<?xml version="1.0" encoding="UTF-8"?>
<!-- Created with Inkscape (http://www.inkscape.org/) -->
<svg id="a" width="192.22" height="225.16" version="1.0" xmlns="http://www.w3.org/2000/svg">
 <path d="m1 1 3.4585 145.31c2.4704 103.79 180.83 103.79 183.3 0l3.4586-145.31z" fill="#296bce" stroke="#000" stroke-width="2"/>
 <path d="m45.722 194.67v-11.218c-4.5286-1.0803-9.4311-1.1634-11.965 4.861-0.24928 4.3624 8.1016 7.1045 11.965 6.3566z" color="#000000" fill="#ffe729" stroke="#000" stroke-width="1px"/>
 <path d="m13.066 128.36c8.8495 58.207 79.396 26.798 72.541 58.332l4.7363-0.2493c-5.9412-48.61-50.396-15.081-77.277-58.082z" color="#000000" fill="#ffe729" stroke="#000" stroke-width="1px"/>
 <path d="m33.757 188.31c0.08813-3.4936 11.808-2.6479 20.017 1.8193 7.0075 3.8134 18.59 10.547 32.255-1.2142l-1.1142-2.6194c-11.12 14.971-32.177-21.047-50.41-11.696z" color="#000000" fill="#ffe729" stroke="#000" stroke-width="1px"/>
 <path d="m15.386 42.589c5.6406 66.042 69.597 84.227 72.799 118.8-1.3808 30.7-1.2926 18.743-3.8779 49.531 1.9249 0.8283 5.1064-0.1138 6.1996-1.1948 10.89-47.048-5.8408-82.385-22.769-100.51-17.01-18.214-43.714-34.725-52.352-66.629z" color="#000000" fill="#ffe729" stroke="#000" stroke-width="1px"/>
 <path d="m147.43 194.67v-11.218c4.5286-1.0803 9.4311-1.1634 11.965 4.861 0.24928 4.3624-8.1016 7.1045-11.965 6.3566z" color="#000000" fill="#ffe729" stroke="#000" stroke-width="1px"/>
 <path d="m128.06 4.8921c8.1413 49.714-13.007 73.112-20.877 99.61-7.9181 26.66-5.7814 51.934-6.645 69.882h-4.7489c-6.6958-50.368 12.928-109.26 21.336-127.31 8.4751-18.187 8.994-36.349 10.935-42.185z" color="#000000" fill="#ffe729" stroke="#000" stroke-width="1px"/>
 <path d="m65.248 4.8921c-8.1413 49.714 13.007 73.112 20.877 99.61 7.9181 26.66 5.7814 51.934 6.645 69.882h4.7489c6.6957-50.368-12.928-109.26-21.336-127.31-8.4751-18.187-8.994-36.349-10.935-42.185z" color="#000000" fill="#ffe729" stroke="#000" stroke-width="1px"/>
 <path d="m94.493 67.091h4.0542v145.24c-1.2508 0.3016-2.5693 0.4005-4.0542 0z" color="#000000" fill="#ffe729" stroke="#000" stroke-width="1px"/>
 <g fill="#ffe729" stroke="#000" stroke-width="1px">
  <path d="m96.521 20.399c1.9884-1.4208 3.001-3.7156 3.1505-6.1682 0.20726-3.0663-0.84356-6.1183-2.4907-8.6736-0.24808-0.45199-0.79859-0.75532-0.65978-1.3268v-3.6191 3.6191c0.13881 0.57146-0.4117 0.87479-0.65978 1.3268-1.6471 2.5553-2.6979 5.6073-2.4907 8.6736 0.14948 2.4526 1.1621 4.7474 3.1505 6.1682z"/>
  <path d="m96.594 30.579v-11.093c3.1783-5.1103 5.1049-6.5508 7.6654-8.3509 0.56776-0.68054 1.1639-2.3897 1.3976-4.4463-0.2337 2.0566-0.82983 3.7658-1.3976 4.4463-0.70218 8.2968-0.71253 14.402-7.6654 19.444z" color="#000000"/>
  <path d="m96.594 39.428v-11.093c3.1783-5.1103 6.1644-7.174 8.7248-8.9741 0.56776-0.68054 1.7248-1.9535 1.9585-4.0101-0.2337 2.0566-1.3907 3.3295-1.9585 4.0101-0.51522 7.9229-0.83717 18.328-8.7248 20.067z" color="#000000"/>
  <path d="m96.594 48.589v-11.093c3.1783-5.1103 7.1615-7.4233 9.7219-9.2234 0.56776-0.68054 1.9741-2.0158 2.2078-4.0724-0.2337 2.0566-1.64 3.3918-2.2078 4.0724 0.29495 8.0476-1.8343 18.578-9.7219 20.316z" color="#000000"/>
  <path d="m96.594 58.311v-11.093c3.1783-5.1103 7.1615-7.4233 9.7219-9.2234 0.56776-0.68054 1.9741-2.0158 2.2078-4.0724-0.2337 2.0566-1.64 3.3918-2.2078 4.0724 0.29495 8.0476-1.8343 18.578-9.7219 20.316z" color="#000000"/>
  <path d="m96.594 65.727v-11.093c3.1783-5.1103 7.1615-7.4233 9.7219-9.2234 0.56776-0.68054 1.9741-2.0158 2.2078-4.0724-0.2337 2.0566-1.64 3.3918-2.2078 4.0724 0.29495 8.0476-1.8343 18.578-9.7219 20.316z" color="#000000"/>
  <path d="m96.719 69.093-0.12464-6.1697c3.1783-5.1103 7.1615-7.4233 9.7219-9.2234 0.56776-0.68054 1.9741-2.0158 2.2078-4.0724-0.2337 2.0566-1.64 3.3918-2.2078 4.0724 0.26289 7.173-2.8036 10.736-6.4152 15.9-0.93471 1.3366-3.1429 1.4346-3.1821-0.50711z" color="#000000"/>
  <path d="m96.714 30.579v-11.093c-3.1783-5.1103-5.1049-6.5508-7.6654-8.3509-0.56776-0.68054-1.1639-2.3897-1.3976-4.4463 0.2337 2.0566 0.82983 3.7658 1.3976 4.4463 0.70218 8.2968 0.71253 14.402 7.6654 19.444z" color="#000000"/>
  <path d="m96.714 39.428v-11.093c-3.1783-5.1103-6.1644-7.174-8.7248-8.9741-0.56776-0.68054-1.7248-1.9535-1.9585-4.0101 0.2337 2.0566 1.3907 3.3295 1.9585 4.0101 0.51522 7.9229 0.83717 18.328 8.7248 20.067z" color="#000000"/>
  <path d="m96.714 48.589v-11.093c-3.1783-5.1103-7.1615-7.4233-9.7219-9.2234-0.56776-0.68054-1.9741-2.0158-2.2078-4.0724 0.2337 2.0566 1.64 3.3918 2.2078 4.0724-0.29495 8.0476 1.8343 18.578 9.7219 20.316z" color="#000000"/>
  <path d="m96.714 58.311v-11.093c-3.1783-5.1103-7.1615-7.4233-9.7219-9.2234-0.56776-0.68054-1.9741-2.0158-2.2078-4.0724 0.2337 2.0566 1.64 3.3918 2.2078 4.0724-0.29495 8.0476 1.8343 18.578 9.7219 20.316z" color="#000000"/>
  <path d="m96.714 65.727v-11.093c-3.1783-5.1103-7.1615-7.4233-9.7219-9.2234-0.56776-0.68054-1.9741-2.0158-2.2078-4.0724 0.2337 2.0566 1.64 3.3918 2.2078 4.0724-0.29495 8.0476 1.8343 18.578 9.7219 20.316z" color="#000000"/>
  <path d="m96.59 69.093 0.12464-6.1697c-3.1783-5.1103-7.1615-7.4233-9.7219-9.2234-0.56776-0.68054-1.9741-2.0158-2.2078-4.0724 0.2337 2.0566 1.64 3.3918 2.2078 4.0724-0.26289 7.173 2.8036 10.736 6.4152 15.9 0.93471 1.3366 3.1429 1.4346 3.1821-0.50711z" color="#000000"/>
 </g>
 <path d="m180.24 128.36c-8.8495 58.207-79.396 26.798-72.541 58.332l-4.7363-0.24929c5.9412-48.61 50.396-15.081 77.277-58.082z" color="#000000" fill="#ffe729" stroke="#000" stroke-width="1px"/>
 <path d="m177.92 42.589c-5.6406 66.042-69.949 85.284-73.151 119.86 2.0858 35.459 1.2926 18.919 4.2304 48.474-1.9249 0.8283-5.1064-0.1138-6.1996-1.1948-10.89-47.048 5.8408-82.385 22.769-100.51 17.01-18.214 43.714-34.725 52.352-66.629z" color="#000000" fill="#ffe729" stroke="#000" stroke-width="1px"/>
 <path d="m159.39 188.31c-0.0881-3.4936-11.808-2.6479-20.017 1.8193-7.1541 3.8932-19.077 10.83-33.116-1.9771l1.5357-2.4823c10.998 16.565 32.373-20.546 50.849-11.07z" color="#000000" fill="#ffe729" stroke="#000" stroke-width="1px"/>
 <path d="m127.75 80.926 3.3126 1.8696c-16.993 37.821-29.29 36.714-29.29 129.54-1.0605 0.3016-2.1783 0.4005-3.4372 0 0-72.519 3.5315-81.499 29.415-131.41z" color="#000000" fill="#ffe729" stroke="#000" stroke-width="1px"/>
 <g fill="#ffe729" stroke="#000" stroke-width="1px">
  <path d="m152.89 40.733c2.4333-0.2268 4.4634-1.7 5.8271-3.7439 1.7225-2.5452 2.3508-5.7113 2.2139-8.7483 0.0131-0.51543-0.30984-1.0546 0.0978-1.4785 0.60724-1.0424 1.2145-2.0848 1.8217-3.1272-0.60724 1.0424-1.2145 2.0848-1.8217 3.1272-0.16772 0.56366-0.79608 0.54864-1.238 0.81432-2.7095 1.3788-5.1537 3.487-6.5181 6.2409-1.1054 2.1944-1.3855 4.687-0.38263 6.9156z"/>
  <path d="m147.83 49.566 5.5839-9.5852c5.3186-2.8158 7.7085-3.0907 10.827-3.3573 0.83315-0.30224 2.2086-1.479 3.4458-3.1384-1.2372 1.6594-2.6126 2.8362-3.4458 3.1384-4.7831 6.8156-7.8653 12.086-16.411 12.942z" color="#000000"/>
  <path d="m143.38 57.212 5.5838-9.5852c5.3186-2.8158 8.9376-3.0959 12.056-3.3625 0.83315-0.30224 2.4737-0.81977 3.7108-2.4792-1.2371 1.6594-2.8777 2.1769-3.7108 2.4792-4.4333 6.5866-9.9493 15.416-17.64 12.948z" color="#000000"/>
  <path d="m138.77 65.128 5.5839-9.5852c5.3186-2.8158 9.9247-2.8094 13.043-3.076 0.83315-0.30224 2.7204-0.74814 3.9576-2.4075-1.2372 1.6594-3.1244 2.1053-3.9576 2.4075-3.796 7.1022-10.936 15.129-18.627 12.661z" color="#000000"/>
  <path d="m133.87 73.529 5.5838-9.5852c5.3186-2.8158 9.9247-2.8094 13.043-3.076 0.83315-0.30224 2.7204-0.74814 3.9576-2.4075-1.2371 1.6594-3.1244 2.1053-3.9576 2.4075-3.796 7.1022-10.936 15.129-18.627 12.661z" color="#000000"/>
  <path d="m130.14 79.937 5.5839-9.5852c5.3186-2.8158 9.9247-2.8094 13.043-3.076 0.83315-0.30224 2.7204-0.74814 3.9576-2.4075-1.2372 1.6594-3.1244 2.1053-3.9576 2.4075-3.796 7.1022-10.936 15.129-18.627 12.661z" color="#000000"/>
  <path d="m128.55 82.907 2.9979-5.3938c5.3186-2.8158 9.9247-2.8094 13.043-3.076 0.83314-0.30224 2.7204-0.74814 3.9576-2.4075-1.2371 1.6594-3.1244 2.1053-3.9576 2.4075-3.3835 6.3303-7.8265 7.8652-13.547 10.51-1.4805 0.68442-3.4378-0.34243-2.4943-2.0399z" color="#000000"/>
  <path d="m147.94 49.626 5.5838-9.5852c-0.17396-6.0155-1.1135-8.23-2.4199-11.074-0.14803-0.87383 0.19723-2.6508 1.0305-4.5454-0.83328 1.8947-1.1785 3.6716-1.0305 4.5454-3.5696 7.5225-6.6339 12.803-3.164 20.659z" color="#000000"/>
  <path d="m143.48 57.272 5.5839-9.5852c-0.17397-6.0155-1.7153-9.3018-3.0216-12.146-0.14803-0.87383-0.50701-2.5562 0.32627-4.4508-0.83328 1.8947-0.4743 3.577-0.32627 4.4508-3.543 7.1053-8.5026 16.258-2.5623 21.731z" color="#000000"/>
  <path d="m138.87 65.188 5.5838-9.5852c-0.17397-6.0155-2.4514-10.019-3.7577-12.863-0.14803-0.87383-0.69103-2.7355 0.14224-4.6302-0.83327 1.8947-0.29027 3.7563-0.14224 4.6302-4.3058 6.8052-7.7664 16.976-1.8262 22.449z" color="#000000"/>
  <path d="m133.98 73.589 5.5839-9.5852c-0.17397-6.0155-2.4514-10.019-3.7577-12.863-0.14802-0.87383-0.69103-2.7355 0.14225-4.6302-0.83328 1.8947-0.29027 3.7563-0.14225 4.6302-4.3057 6.8052-7.7664 16.976-1.8262 22.449z" color="#000000"/>
  <path d="m130.24 79.997 5.5838-9.5852c-0.17396-6.0155-2.4514-10.019-3.7577-12.863-0.14802-0.87383-0.69103-2.7355 0.14224-4.6302-0.83327 1.8947-0.29026 3.7563-0.14224 4.6302-4.3057 6.8052-7.7664 16.976-1.8262 22.449z" color="#000000"/>
  <path d="m128.44 82.842 3.2133-5.2683c-0.17397-6.0155-2.4514-10.019-3.7577-12.863-0.14802-0.87383-0.69103-2.7355 0.14225-4.6302-0.83328 1.8947-0.29027 3.7563-0.14225 4.6302-3.8378 6.0656-2.9815 10.688-2.4604 16.968 0.13486 1.6254 1.9936 2.8216 3.0048 1.1636z" color="#000000"/>
 </g>
 <path d="m128.99 138.14 2.5648 2.9914c-27.338 23.985-26.548 12.76-26.548 70.461-1.0605 0.3016-2.1783 0.4005-3.4372 0 0-58.564-0.58165-48.096 27.421-73.452z" color="#000000" fill="#ffe729" stroke="#000" stroke-width="1px"/>
 <path d="m65.561 80.926-3.3126 1.8696c16.993 37.821 29.291 36.714 29.291 129.54 1.0605 0.3016 2.1783 0.4005 3.4372 0 0-72.519-3.5315-81.499-29.415-131.41z" color="#000000" fill="#ffe729" stroke="#000" stroke-width="1px"/>
 <g fill="#ffe729" stroke="#000" stroke-width="1px">
  <path d="m40.416 40.733c-2.4333-0.22679-4.4634-1.7-5.8271-3.7439-1.7225-2.5452-2.3509-5.7113-2.2139-8.7483-0.01316-0.51543 0.30984-1.0546-0.09776-1.4785-0.60724-1.0424-1.2145-2.0848-1.8217-3.1272 0.60724 1.0424 1.2145 2.0848 1.8217 3.1272 0.16771 0.56366 0.79608 0.54864 1.238 0.81432 2.7095 1.3788 5.1537 3.487 6.5181 6.2409 1.1054 2.1944 1.3855 4.687 0.38263 6.9156z"/>
  <path d="m45.477 49.566-5.5839-9.5852c-5.3186-2.8158-7.7085-3.0907-10.827-3.3573-0.83315-0.30224-2.2086-1.479-3.4457-3.1384 1.2371 1.6594 2.6126 2.8362 3.4457 3.1384 4.7831 6.8156 7.8653 12.086 16.411 12.942z" color="#000000"/>
  <path d="m49.932 57.212-5.5839-9.5852c-5.3186-2.8158-8.9376-3.0959-12.056-3.3625-0.83315-0.30224-2.4737-0.81977-3.7108-2.4792 1.2371 1.6594 2.8777 2.1769 3.7108 2.4792 4.4333 6.5866 9.9493 15.416 17.64 12.948z" color="#000000"/>
  <path d="m54.543 65.128-5.5839-9.5852c-5.3186-2.8158-9.9247-2.8094-13.043-3.076-0.83315-0.30224-2.7204-0.74814-3.9576-2.4075 1.2371 1.6594 3.1244 2.1053 3.9576 2.4075 3.796 7.1022 10.936 15.129 18.627 12.661z" color="#000000"/>
  <path d="m59.437 73.529-5.5839-9.5852c-5.3186-2.8158-9.9247-2.8094-13.043-3.076-0.83315-0.30224-2.7204-0.74814-3.9576-2.4075 1.2371 1.6594 3.1244 2.1053 3.9576 2.4075 3.796 7.1022 10.936 15.129 18.627 12.661z" color="#000000"/>
  <path d="m63.17 79.937-5.5839-9.5852c-5.3186-2.8158-9.9247-2.8094-13.043-3.076-0.83315-0.30224-2.7204-0.74814-3.9576-2.4075 1.2371 1.6594 3.1244 2.1053 3.9576 2.4075 3.796 7.1022 10.936 15.129 18.627 12.661z" color="#000000"/>
  <path d="m64.756 82.907-2.9979-5.3938c-5.3186-2.8158-9.9247-2.8094-13.043-3.076-0.83315-0.30224-2.7204-0.74814-3.9576-2.4075 1.2371 1.6594 3.1244 2.1053 3.9576 2.4075 3.3835 6.3303 7.8265 7.8652 13.547 10.51 1.4805 0.68442 3.4378-0.34243 2.4943-2.0399z" color="#000000"/>
  <path d="m45.374 49.626-5.5839-9.5852c0.17397-6.0155 1.1135-8.23 2.4199-11.074 0.14802-0.87383-0.19723-2.6508-1.0305-4.5454 0.83328 1.8947 1.1785 3.6716 1.0305 4.5454 3.5696 7.5225 6.6339 12.803 3.164 20.659z" color="#000000"/>
  <path d="m49.828 57.273-5.5839-9.5852c0.17397-6.0155 1.7153-9.3018 3.0216-12.146 0.14802-0.87383 0.50701-2.5562-0.32627-4.4508 0.83328 1.8947 0.4743 3.577 0.32627 4.4508 3.543 7.1053 8.5026 16.258 2.5623 21.731z" color="#000000"/>
  <path d="m54.439 65.188-5.5839-9.5852c0.17397-6.0155 2.4514-10.019 3.7577-12.863 0.14802-0.87383 0.69103-2.7355-0.14224-4.6302 0.83328 1.8947 0.29027 3.7563 0.14224 4.6302 4.3057 6.8052 7.7664 16.976 1.8262 22.449z" color="#000000"/>
  <path d="m59.333 73.589-5.5839-9.5852c0.17397-6.0155 2.4514-10.019 3.7577-12.863 0.14802-0.87383 0.69103-2.7355-0.14224-4.6302 0.83328 1.8947 0.29027 3.7563 0.14224 4.6302 4.3057 6.8052 7.7664 16.976 1.8262 22.449z" color="#000000"/>
  <path d="m63.066 79.997-5.5839-9.5852c0.17397-6.0155 2.4514-10.019 3.7577-12.863 0.14802-0.87383 0.69103-2.7355-0.14224-4.6302 0.83328 1.8947 0.29027 3.7563 0.14224 4.6302 4.3057 6.8052 7.7664 16.976 1.8262 22.449z" color="#000000"/>
  <path d="m64.868 82.842-3.2133-5.2683c0.17397-6.0155 2.4514-10.019 3.7577-12.863 0.14802-0.87383 0.69103-2.7355-0.14224-4.6302 0.83328 1.8947 0.29027 3.7563 0.14224 4.6302 3.8378 6.0656 2.9815 10.688 2.4604 16.968-0.13485 1.6254-1.9935 2.8216-3.0048 1.1636z" color="#000000"/>
 </g>
 <path d="m64.315 138.14-2.5648 2.9914c27.338 23.985 26.548 12.76 26.548 70.461 1.0605 0.3016 2.1783 0.4005 3.4372 0 0-58.564 0.58165-48.096-27.421-73.452z" color="#000000" fill="#ffe729" stroke="#000" stroke-width="1px"/>
 <g fill="#ffe729" stroke="#000" stroke-width="1px">
  <path d="m24 113.12c-2.2968 0.8347-4.7618 0.37028-6.8681-0.89494-2.6449-1.565-4.5659-4.1591-5.7398-6.9634-0.23214-0.46038-0.17053-1.0859-0.72018-1.295-0.99443-0.68295-1.9889-1.3659-2.9833-2.0488 0.99443 0.68295 1.9889 1.3659 2.9833 2.0488 0.39248 0.43794 0.95418 0.15586 1.4672 0.20724 3.0388 0.0888 6.1496 0.95044 8.5598 2.8572 1.9371 1.5117 3.2555 3.6455 3.301 6.0889z"/>
  <path d="m32.35 118.94-9.1442-6.28c-6.0118-0.27306-8.29 0.49953-11.223 1.5911-0.8824 0.0827-2.6288-0.39347-4.4564-1.3651 1.8276 0.97162 3.574 1.4478 4.4564 1.3651 7.2368 4.1182 12.275 7.5661 20.368 4.6889z" color="#000000"/>
  <path d="m39.645 123.95-9.1442-6.28c-6.0118-0.27306-9.4035 1.02-12.337 2.1116-0.8824 0.0827-2.5867 0.31585-4.4143-0.65578 1.8276 0.97163 3.5319 0.73852 4.4143 0.65578 6.8227 4.0606 15.582 9.686 21.481 4.1684z" color="#000000"/>
  <path d="m47.197 129.14-9.1442-6.28c-6.0118-0.27306-10.173 1.7009-13.107 2.7924-0.8824 0.0828-2.7792 0.48606-4.6068-0.48556 1.8276 0.97162 3.7244 0.56831 4.6068 0.48556 6.4668 4.799 16.352 9.0052 22.251 3.4876z" color="#000000"/>
  <path d="m55.211 134.64-9.1442-6.28c-6.0118-0.27307-10.173 1.7009-13.107 2.7924-0.8824 0.0827-2.7792 0.48606-4.6068-0.48557 1.8276 0.97163 3.7244 0.56832 4.6068 0.48557 6.4668 4.799 16.352 9.0052 22.251 3.4876z" color="#000000"/>
  <path d="m61.324 138.84-9.1442-6.28c-6.0118-0.27306-10.173 1.7009-13.107 2.7924-0.8824 0.0827-2.7792 0.48606-4.6068-0.48557 1.8276 0.97163 3.7244 0.56831 4.6068 0.48557 6.4668 4.799 16.352 9.0052 22.251 3.4875z" color="#000000"/>
  <path d="m64.028 140.85-5.0153-3.5955c-6.0118-0.27307-10.173 1.7009-13.107 2.7924-0.8824 0.0828-2.7792 0.48606-4.6068-0.48557 1.8276 0.97163 3.7244 0.56832 4.6068 0.48557 5.764 4.2775 10.437 3.7667 16.739 3.7133 1.631-0.0138 2.9618-1.7786 1.3834-2.9102z" color="#000000"/>
  <path d="m32.283 119.04-9.1442-6.28c-2.4132-5.513-2.51-7.9166-2.5443-11.046-0.23956-0.85329-1.311-2.3123-2.874-3.6692 1.563 1.3569 2.6344 2.8159 2.874 3.6692 6.4418 5.2758 11.469 8.7408 11.688 17.326z" color="#000000"/>
  <path d="m39.577 124.05-9.1442-6.28c-2.4132-5.513-2.4239-9.1428-2.4582-12.272-0.23956-0.85328-0.63388-2.5277-2.1968-3.8846 1.563 1.3569 1.9573 3.0313 2.1968 3.8846 6.2394 4.91 14.635 11.066 11.602 18.552z" color="#000000"/>
  <path d="m47.129 129.24-9.1442-6.28c-2.4132-5.513-2.0649-10.106-2.0992-13.236-0.23956-0.85328-0.54412-2.7685-2.1071-4.1254 1.563 1.3569 1.8675 3.2721 2.1071 4.1254 6.8008 4.3128 14.276 12.029 11.243 19.516z" color="#000000"/>
  <path d="m55.143 134.74-9.1442-6.28c-2.4132-5.513-2.0649-10.106-2.0992-13.236-0.23956-0.85329-0.54412-2.7685-2.1071-4.1254 1.563 1.3569 1.8675 3.2721 2.1071 4.1254 6.8008 4.3128 14.276 12.029 11.243 19.516z" color="#000000"/>
  <path d="m61.256 138.94-9.1442-6.28c-2.4132-5.513-2.0649-10.106-2.0992-13.236-0.23956-0.85329-0.54412-2.7685-2.1071-4.1254 1.563 1.3569 1.8675 3.2721 2.1071 4.1254 6.8008 4.3128 14.276 12.029 11.243 19.516z" color="#000000"/>
  <path d="m64.101 140.74-5.1564-3.3901c-2.4132-5.513-2.0649-10.106-2.0992-13.236-0.23956-0.85329-0.54412-2.7685-2.1071-4.1254 1.563 1.3569 1.8675 3.2721 2.1071 4.1254 6.0616 3.844 7.2625 8.3888 9.4751 14.29 0.57264 1.5272-0.59668 3.4029-2.2195 2.336z" color="#000000"/>
 </g>
 <g fill="#ffe729" stroke="#000" stroke-width="1px">
  <path d="m169.31 113.12c2.2968 0.8347 4.7618 0.37028 6.8681-0.89494 2.6449-1.565 4.5659-4.1591 5.7398-6.9634 0.23214-0.46038 0.17053-1.0859 0.72018-1.295l2.9833-2.0488-2.9833 2.0488c-0.39248 0.43794-0.95418 0.15586-1.4672 0.20725-3.0388 0.0888-6.1496 0.95044-8.5598 2.8572-1.9371 1.5117-3.2555 3.6455-3.301 6.0889z"/>
  <path d="m160.96 118.94 9.1442-6.28c6.0118-0.27306 8.29 0.49953 11.223 1.5911 0.88241 0.0828 2.6288-0.39347 4.4564-1.3651-1.8276 0.97162-3.574 1.4478-4.4564 1.3651-7.2368 4.1182-12.275 7.5661-20.368 4.6889z" color="#000000"/>
  <path d="m153.66 123.95 9.1442-6.28c6.0118-0.27306 9.4035 1.02 12.337 2.1116 0.88241 0.0828 2.5868 0.31585 4.4143-0.65577-1.8276 0.97162-3.5319 0.73852-4.4143 0.65577-6.8227 4.0606-15.582 9.686-21.481 4.1684z" color="#000000"/>
  <path d="m146.11 129.14 9.1442-6.28c6.0118-0.27306 10.173 1.7009 13.107 2.7924 0.88241 0.0827 2.7792 0.48606 4.6068-0.48557-1.8276 0.97163-3.7244 0.56831-4.6068 0.48557-6.4668 4.799-16.352 9.0052-22.251 3.4876z" color="#000000"/>
  <path d="m138.1 134.64 9.1442-6.28c6.0118-0.27306 10.173 1.7009 13.107 2.7924 0.88241 0.0827 2.7792 0.48606 4.6068-0.48557-1.8276 0.97163-3.7244 0.56831-4.6068 0.48557-6.4668 4.799-16.352 9.0052-22.251 3.4875z" color="#000000"/>
  <path d="m131.98 138.84 9.1442-6.28c6.0118-0.27306 10.173 1.7009 13.107 2.7924 0.8824 0.0828 2.7792 0.48606 4.6068-0.48556-1.8276 0.97162-3.7244 0.56831-4.6068 0.48556-6.4668 4.799-16.352 9.0052-22.251 3.4876z" color="#000000"/>
  <path d="m129.28 140.85 5.0152-3.5956c6.0118-0.27306 10.173 1.7009 13.107 2.7924 0.8824 0.0828 2.7792 0.48606 4.6068-0.48556-1.8276 0.97162-3.7244 0.56831-4.6068 0.48556-5.764 4.2775-10.437 3.7667-16.739 3.7133-1.631-0.0138-2.9618-1.7786-1.3834-2.9102z" color="#000000"/>
  <path d="m161.03 119.04 9.1442-6.28c2.4132-5.513 2.51-7.9166 2.5443-11.046 0.23957-0.85329 1.311-2.3123 2.874-3.6692-1.563 1.3569-2.6344 2.8159-2.874 3.6692-6.4418 5.2758-11.469 8.7408-11.688 17.326z" color="#000000"/>
  <path d="m153.73 124.05 9.1442-6.28c2.4132-5.513 2.4239-9.1428 2.4582-12.272 0.23956-0.85328 0.63388-2.5277 2.1968-3.8846-1.563 1.3569-1.9573 3.0313-2.1968 3.8846-6.2394 4.91-14.635 11.066-11.602 18.552z" color="#000000"/>
  <path d="m146.18 129.23 9.1442-6.28c2.4132-5.513 2.0649-10.106 2.0992-13.236 0.23956-0.85328 0.54412-2.7685 2.1071-4.1254-1.563 1.3569-1.8675 3.2721-2.1071 4.1254-6.8008 4.3128-14.276 12.029-11.243 19.516z" color="#000000"/>
  <path d="m138.17 134.74 9.1442-6.28c2.4132-5.513 2.0649-10.106 2.0992-13.236 0.23956-0.85328 0.54412-2.7685 2.1071-4.1254-1.563 1.3569-1.8675 3.2721-2.1071 4.1254-6.8008 4.3128-14.276 12.029-11.243 19.516z" color="#000000"/>
  <path d="m132.05 138.94 9.1442-6.28c2.4132-5.513 2.0649-10.106 2.0992-13.236 0.23957-0.85329 0.54413-2.7685 2.1071-4.1254-1.563 1.3569-1.8675 3.2721-2.1071 4.1254-6.8008 4.3128-14.276 12.029-11.243 19.516z" color="#000000"/>
  <path d="m129.21 140.74 5.1564-3.3901c2.4132-5.513 2.0649-10.106 2.0992-13.236 0.23956-0.85328 0.54413-2.7685 2.1071-4.1254-1.563 1.3569-1.8675 3.2721-2.1071 4.1254-6.0616 3.8441-7.2625 8.3888-9.4751 14.29-0.57264 1.5272 0.59668 3.4029 2.2195 2.336z" color="#000000"/>
 </g>
 <path d="m85.89 184.2c1.0802 1.8281 19.735 1.5372 21.189-0.12464 1.9137 0.67374 2.1549 7.8489 0.43624 8.3509-1.6891 0.49338-18.699 0.22477-21.251 0-2.49-0.21932-2.6899-5.9842-0.37393-8.2263z" color="#000000" fill="#ffe729" stroke="#000" stroke-width="1px"/>
</svg>
