<?xml version="1.0" encoding="UTF-8"?>
<!-- Created with Inkscape (http://www.inkscape.org/) -->
<svg id="b" width="210.67" height="246.76" version="1.0" xmlns="http://www.w3.org/2000/svg" xmlns:xlink="http://www.w3.org/1999/xlink">
 <path d="m1 1 3.7939 159.38c2.71 113.84 198.37 113.84 201.08 0l3.7939-159.38z" fill="#e65f4a" stroke="#000" stroke-width="1.8898"/>
 <use transform="rotate(45 101.99 115.34)" xlink:href="#a"/>
 <use transform="rotate(90 101.99 115.34)" xlink:href="#a"/>
 <use transform="rotate(135 101.99 115.34)" xlink:href="#a"/>
 <use transform="rotate(180 101.99 115.34)" xlink:href="#a"/>
 <use transform="rotate(225 101.99 115.34)" xlink:href="#a"/>
 <use transform="rotate(-90 101.99 115.34)" xlink:href="#a"/>
 <use transform="rotate(-45 101.99 115.34)" xlink:href="#a"/>
 <g id="a" fill="#fcd930" stroke="#000" stroke-width="1.1339">
  <path d="m101.99 115.34-0.74805-86.303-8.0043 0.13387z"/>
  <path d="m101.99 115.34 0.74805-86.303 8.0043 0.13387z"/>
  <path d="m101.99 115.34-8.1094-77.239-8.3468 0.91977z"/>
  <path d="m107.48 139.03-19.416-88.669-8.0069 1.8064z"/>
  <path d="m101.99 115.87 8.1094-77.239 8.3468 0.91977z"/>
  <path d="m96.507 139.56 19.416-88.669 8.0069 1.8064z"/>
 </g>
 <circle cx="102.24" cy="115.34" r="26.184" color="#000000" fill="#fcd930" stroke="#000" stroke-width="1.1339"/>
 <path d="m85.161 106.62c8.8379-11.695 22.166-1.5848 9.1021 16.132 6.5177 1.8824 12.055 1.5532 16.583-0.5459-11.987-21.75 5.1711-25.127 11.097-15.96" fill="none" stroke="#000" stroke-linecap="round" stroke-linejoin="round" stroke-width="1.1339"/>
 <path d="m92.1 125.65c5.6881 7.0527 15.285 8.0078 20.659-0.2317-7.4174 2.4545-13.518 2.9038-20.659 0.2317z" stroke="#000" stroke-linejoin="round" stroke-width="1.1339"/>
 <path d="m110.62 108.26c6.8052 6.3567 9.2546 2.0714 11.299-1.8451-3.6699 2.5524-7.8128 3.1319-11.299 1.8451z" stroke="#000" stroke-linejoin="round" stroke-width="1.1339"/>
 <path d="m86.787 105.87c-1.2436 6.5841 6.5896 5.2579 8.609 1.3897-3.2385 0.45599-5.4748-0.65415-8.609-1.3897z" stroke="#000" stroke-linejoin="round" stroke-width="1.1339"/>
</svg>
