<?xml version="1.0" encoding="utf-8" standalone="no"?>
<!DOCTYPE svg PUBLIC "-//W3C//DTD SVG 1.1//EN" "http://www.w3.org/Graphics/SVG/1.1/DTD/svg11.dtd">
<svg version="1.1"
   xmlns="http://www.w3.org/2000/svg"
   xmlns:xlink="http://www.w3.org/1999/xlink"
   width="520" height="585" viewBox="0,0 100,112.5">
  <title>Wappen von Malters</title>
  <desc>Wappen der Schweizer Gemeinde Malters, Kanton Luzern</desc>
  <path d="M 1,1 V 62.5 a 49,49 0 0,0 98,0 V 1 z" stroke="black" stroke-width="2" fill="#0093dd" />
  <path d="M 36.5,57 l -35,-36.5 0,-19 8,0 40.5,40.5 40.5,-40.5 8,0 0,19 -35,36.5 29.5,28 A 48.5,48.5 0 0,1 80.89,99.89 L 50,69 19.11,99.89 A 48.5,48.5 0 0,1 7.02,84.98 z" stroke="black" stroke-width="1" fill="white" />
  <path id="stern" d="M 47.2,12.15 l 2.8,-7.2 2.8,7.2 7.6,-1.2 -4.8,6 4.8,6 -7.6,-1.2 -2.8,7.2 -2.8,-7.2 -7.6,1.2 4.8,-6 -4.8,-6 z" stroke="black" stroke-width="1" fill="#fcdb00" />
  <use y="76" xlink:href="#stern" />
</svg>

