<?xml version="1.0" encoding="UTF-8"?>
<svg width="528" height="608" xmlns="http://www.w3.org/2000/svg">
<path d="M4.01 4.015v341.79c.895 142.85 117.03 258.18 259.99 258.18 142.95 0 259.09-115.33 259.99-258.18V4.015z" fill="#f00000" stroke="#000" stroke-width="8"/>
<path d="M81.736.9C70.385.9 59.04.905 47.687.904 32.857.95 18.008.786 3.18.971c-.27 2.44-.14 1.223-.145 3.676.01 31.812-.004 63.625-.008 95.437 3.46 4.93 8.037 8.73 12.198 12.982 21.937 22.447 43.806 45.062 65.783 67.47 16.783 17 33.585 33.986 50.27 51.085 19.479 19.894 39.176 39.554 58.722 59.408 16.064 16.198 32.163 32.53 48.266 48.666-6.395-.296-12.845-.189-19.245-.183-52.827-.073-105.627.043-158.455.088-3.068.1-6.971-.605-9.597 1.265-2.28 1.635-2.44 4.228-2.278 6.815 1.283 19.462 4.043 38.88 6.383 58.236.185 1.624-.276 3.617-1.726 4.547-1.534.784-3.314 1.02-4.86 1.826-4.311 2.223-6.253 8.072-3.98 12.4 1.859 3.97 6.165 6.283 10.47 6.26 4.345.157 8.635-1.152 11.44-4.629 2.212-2.86 3.684-6.355 4.451-9.87 1.075-5.516 2.407-11.093 3.354-16.68.7-4.127 1.075-8.377 1.943-12.475.47-2.794 3.315-4.313 5.594-5.506 7.027-3.298 14.892-5.274 22.457-6.88 7.167-1.462 14.418-2.8 21.685-3.651.107 17.15-.084 34.301-.341 51.451-.415 7.828-.18 15.693-.75 23.51-.37 12.827-1.344 25.645-2.553 38.422a221 221 0 0 1-4.492 29.345c-1.087 4.463-2.688 9.177-6.422 12.133-1.803 1.506-4.502 2.33-5.666 4.38-2.335 3.784-1.556 9.203 2.123 11.83 2.76 1.802 6.18 1.42 9.316 1.454 21.092.034 42.184-.02 63.27-.01 2.99-.078 5.986-.32 8.203-2.57 3.354-3.264 3.299-8.712.23-12.139-1.937-2.032-4.732-2.374-6.748-4.457-3.225-3.298-4.692-8.046-6.187-12.312-5.291-18.544-5.946-36.917-6.875-55.998-.112-5.594-.1-11.209-.447-16.786-.163-8.213-.073-16.434-.208-24.648-.134-14.104.102-28.218-.078-42.322 15.05 1.248 30.61 2.513 44.866 7.832 2.334.924 4.825 2.268 5.603 4.838.806 2.816.51 6.031.582 8.937.073 9.15-.341 19.165 2.52 27.973 1.265 4.07 4.373 7.44 8.377 8.93 3.56 1.147 7.441 1.192 10.89-.375 3.763-1.529 6.607-5.196 7.06-9.239.37-4.081-2.447-8.03-6.316-9.25-1.338-.408-2.781-.554-4.091-1.04-1.182-.583-1.485-2.37-1.496-3.546.09-3.186.521-6.366.824-9.535 1.036-13.438 2.564-26.882 3.734-40.314.605-4.866 1.203-9.68.873-14.602 5.678 6.344 11.972 12.133 17.88 18.264 35.33 35.901 70.251 70.785 105.67 106.547 11.076 11.315 22.391 22.4 33.472 33.717 11.82 11.718 23.426 23.673 35.324 35.314-.854.729-1.747 1.418-2.608 2.143 1.65 1.696 3.308 3.385 4.96 5.08 1.09-.922 2.214-1.811 3.292-2.745 21.462-18.896 39.497-41.999 53.495-66.892 3.678-6.238 6.78-12.727 9.804-19.295a346 346 0 0 0 8.031-19.598l-7.59.899c-4.86-4.804-9.4-9.923-14.165-14.823-49.634-51.69-99.295-103.375-149.407-154.607-10.777-10.819-3.743-4.062-226.847-232.297-8.692-8.933-17.561-17.69-26.2-26.673.698-.002 1.395.001 2.092 0Q85.322 4.542 81.736.9"/>
<path d="m76.967 8.1c-22.15.005-44.503-.028-66.625.017.81 17.726-1.522 75.147-.19 89.227.403.683 1.003 1.288 1.557 1.865 16.232 16.624 32.502 33.19 48.588 49.965 12.262 12.564 24.547 25.102 36.91 37.56 31.467 32.173 63.074 64.193 94.703 96.204 13.645 13.762 27.391 27.537 40.93 41.406 14.871 15.173 29.956 30.14 44.844 45.29 42.73 42.94 85.293 86.044 128.08 128.927 11.243 11.209 22.295 22.607 33.65 33.705 3.276-3.466 6.908-6.55 10.1-10.094 5.974-6.193 11.523-12.822 16.742-19.664 4.149-5.235 8.007-10.706 11.697-16.278 6.674-10.481 13.096-21.472 18.108-32.855 1.523-3.303 2.928-6.658 4.406-9.979-5.19-5.195-10.13-10.638-15.225-15.923-15.392-16.232-31.064-32.509-46.49-48.702-37.03-38.176-74.061-76.354-111.266-114.36-21.476-22.012-42.876-44.1-64.412-66.054-30.425-30.98-60.578-62.225-90.978-93.23-15.689-16.03-31.278-32.207-47.078-48.12-10.426-10.845-21.103-21.444-31.59-32.234-2.951-2.838-5.606-5.957-8.602-8.746-2.654-2.614-5.15-5.374-7.86-7.927" fill="#fff"/>
<path d="m337.578 18.9s-1.14 161.436-.851 242.15c16.62-.834 50.691.062 72.34-.077-.18 7.463-.058 14.939-.069 22.408-4.524 2.206-8.43 5.436-10.928 9.86-5.582 8.829-4.815 21.282 1.518 29.519 2.878 3.41 6.159 6.443 10.375 8.09 4.345 1.696 9.328 2.782 13.986 2.1 5.1-.438 10.062-2.766 13.953-6.036 9.026-7.34 12.155-21.127 6.998-31.586-2.082-4.485-5.324-8.359-9.529-10.99-.23-7.839-.074-15.7-.068-23.545 4.146-.047 72.297-.049 72.297-.049-.055-59.808.638-241.637.638-241.637zm101.6 27.856c14.345.109 45.332.09 45.332.09s.07 20.276.066 30.138c-15.145.068-30.296-.042-45.441.047-.28-3.528-.327-26.026.043-30.275m-78.657.039c15.611-.05 31.222-.114 46.833 0-.21 16.375.192 28.497-.293 30.107-15.508.277-31.045.13-46.561.073-.067-10.062.021-30.18.021-30.18m14.772 54.58c6.03-.001 14.864.048 31.701.15 0 0 .057 19.882.012 29.82-15.588-.072-31.155-.149-46.742-.171.106-9.804-.077-19.822.158-29.643 5.618-.103 8.842-.155 14.871-.156m108.992.168c-.228 9.93-.062 29.805-.062 29.805s-30.213-.186-45.319-.102c-.006-9.805-.011-29.024-.011-29.416 9.282-.04 22.32-.116 45.392-.287m-102.361 53.562c7.598-.007 15.783.046 25.043.145.061 9.983.028 19.966.012 29.943-15.566-.084-31.133-.078-46.698-.156.067-9.882-.174-19.838.117-29.709a1062 1062 0 0121.526-.223m102.361.217c-.09 10.05.15 20.108-.107 30.153-15.156-.258-45.469-.366-45.469-.366l.15-29.748zm-45.957 52.235c15.29.569 30.625.335 45.93.398.1 9.686-.04 19.372.033 29.059-15.308.022-45.93-.034-45.93-.034zm-57.428.017c9.436.039 19.73.125 26.05.274.05 9.759.062 19.52.023 29.279-15.672-.056-31.35.016-47.016-.096.011-9.63-.028-19.262.04-28.886l.005-.555c2.886-.044 11.463-.054 20.898-.016m39.903 88.274c3.365-.06 6.666 1.494 8.707 4.312 3.471 4.474 2.39 11.244-1.91 14.772-4.328 4.003-12.163 2.855-15.315-2.067-1.12-1.763-2.064-3.93-2.058-6.053.123-4.54 2.753-8.936 7.232-10.353a10.5 10.5 0 013.344-.611"/>
<path d="M4.01 4.015v341.79c.895 142.85 117.03 258.18 259.99 258.18 142.95 0 259.09-115.33 259.99-258.18V4.015z" fill="none" stroke="#000" stroke-width="8"/>
</svg>
