<?xml version="1.0" encoding="utf-8" standalone="no"?>
<!DOCTYPE svg PUBLIC "-//W3C//DTD SVG 1.1//EN" "http://www.w3.org/Graphics/SVG/1.1/DTD/svg11.dtd">
<svg version="1.1"
   xmlns="http://www.w3.org/2000/svg"
   xmlns:xlink="http://www.w3.org/1999/xlink"
   width="520" height="585" viewBox="0,0 100,112.5">
  <title>Wappen von Alberswil</title>
  <desc>Wappen der Schweizer Gemeinde Alberswil, Kanton Luzern</desc>
  <g stroke="black" stroke-width="1" fill="#e2001a">
    <path d="M 1,1 V 62.5 a 49,49 0 0,0 98,0 V 1 z" stroke-width="2" fill="#ffd400" />
    <path d="M 2.871,74 A 48.5,48.5 0 0,0 9.371,89 h 81.258,0 A 48.5,48.5 0 0,0 97.129,74 z M 4,79 H 96 M 6,84 H 94 M 8,74 v 5 m 12,0 v -5 m 12,0 v 5 m 12,0 v -5 m 12,0 v 5 m 12,0 v -5 m 12,0 v 5 m 12,0 v -5 M 14,79 v 5 m 12,0 v -5 m 12,0 v 5 m 12,0 v -5 m 12,0 v 5 m 12,0 v -5 m 12,0 v 5 M 20,84 v 5 m 12,0 v -5 m 12,0 v 5 m 12,0 v -5 m 12,0 v 5 m 12,0 v -5 M 17,74 L 17,36 50,6 83,36 83,74 z" />
    <path d="M 14,30.5 h 4.5 v 3 h 9 v -3 h 9 v 3 h 9 v -3 h 9 v 3 h 9 v -3 h 9 v 3 h 9 v -3 h 4.5 v 9.5 H 14 z M 50,6 V 74 M 55.5,40 V 68.4 m 11,0 V 40 m 11,0 V 68.4" />
    <path d="M 50,45.6 H 83 v 5.7 H 50 v 5.7 h 11 v 5.7 -5.7 h 11 v 5.7 -5.7 H 83 v 5.7 H 50 z M 50,68.4 h 11 v 5.7 -5.7 h 11 v 5.7 -5.7 H 83" />
    <path id="fenster" d="M 26,57 H 41 v 2 H 26 z M 28,57 V 49 a 2.75,2 0 0,1 5.5,0 2.75,2 0 0,1 5.5,0 M 30,57 V 49 a 1.75,1.65 0 0,1 3.5,0 v 8 h 2 V 49 a 1.75,1.65 0 0,1 3.5,0 v 8" />
    <use xlink:href="#fenster" transform="matrix(-1,0,0,1,100,0)" />
  </g>
</svg>

