<?xml version="1.0" encoding="UTF-8"?>
<svg width="528" height="608" xmlns="http://www.w3.org/2000/svg">
<path d="M264 3.998H4.98v340.51c.892 142.31 116.59 257.21 259.02 257.21z"/>
<path d="M264 3.998v597.72c142.41 0 258.12-114.9 259.02-257.21V3.998z" fill="#fff" stroke="#000" stroke-width="5"/>
<path d="M7.77 1.244c.033 116.17.06 232.38-.006 348.55.904 25.14 5.22 50.121 13.252 73.971 2.945 9.502 6.775 18.651 10.97 27.66 46.158-96.174 98.883-257.76 103.23-450.11-41.156-.133-86.282-.053-127.45-.066zm135.98.033c.552 49.927 6.523 110.12 19.985 189.94 29.42 147.21 73.256 256.81 98.365 348.08.246-4.847.192-9.78.172-14.64.12-98.579.034-197.28.094-295.88-.026-75.786.026-151.64-.047-227.42-18.36-.148-93.554-.165-118.57-.087z" fill="#fcdb00"/>
<path d="m283.12 173.81-2.025 1.986c5.472 8.71 11.663 16.975 17.182 25.652 2.087 3.125 3.936 6.298 6.382 9.17 6.324-3.35 13.166-5.772 19.975-7.94 7.886-2.16 16.217-3.571 24.408-3.312-8.796 25.14-17.746 50.221-27.102 75.154-2.147 6.144-4.542 12.182-6.916 18.232-5.312 14.322-11.042 28.456-16.44 42.738-6.31 15.492-12.236 31.125-18.659 46.57-1.15 3.125-2.852 6.191-3.537 9.45 2.587 1.609 5.791 2.252 8.604 3.43 9.169 3.25 18.005 7.241 27.02 10.878 1.962.751 4.05 2.06 6.165 2 .558-1.655.732-3.456 1.064-5.172 3.431-19.136 7.693-38.139 12.898-56.869 2.3-7.998 4.508-15.997 7.4-23.816 31.25-.033 63.565-.1 94.835-.187 3.796 10.346 6.703 21.065 9.648 31.684 2.826 11.735 6.031 23.345 8.319 35.207 1.529 6.31 2.618 12.685 3.794 19.068 2.846.246 4.822-1.363 7.475-2.287 6.922-2.467 13.51-5.713 20.412-8.22 4.807-1.947 9.735-3.555 14.535-5.517-1.396-4.481-3.617-8.59-5.299-12.992-5.957-14.854-12.056-29.648-17.834-44.582-17.055-44.768-34.063-89.442-49.389-134.85 16.503-.24 33.26 3.523 47.834 11.342 4.222-5.518 7.427-11.842 11.27-17.646 3.744-5.598 7.414-11.269 11.463-16.654-.312-.824-.626-1.657-.931-2.488-35.871.06-71.75.02-107.61.014q.006-.022.011-.045h-4.502l.01.045c-25.95 0-51.909.035-77.863-.045zm103.96 25.17c1.65.018 3.303.062 4.945.035a692 692 0 0 1 6.684 18.311c4.129 10.871 7.965 21.855 11.729 32.86 5.233 13.935 9.587 28.197 14.74 42.167-19.495.3-39.017.061-58.512.155-6.004-.094-12.02.118-18.018-.221 3.364-8.863 6.263-17.898 9.46-26.814 4.868-13.75 9.836-27.455 14.63-41.225 2.254-6.556 4.886-12.964 7.146-19.514.705-1.875 1.291-3.87 2.262-5.625 1.636-.137 3.283-.147 4.934-.13z"/>
<g stroke="#000">
<path d="M385.63 18.869c-2.958 9.598-12.949 52.357-12.949 52.357-16.385-4.98-32.75-10.083-49.24-14.688.14.165 6.55 6.471 37.443 35.328-2.956 3.386-29.477 27.552-36.508 35.027 12.296-3.529 46.535-14.457 48.91-15.078 2.63 7.467 10.004 41.81 12.219 50.119 4.91-16.613 10.232-43.172 12.836-50.104 16.232 5.088 32.327 10.737 48.756 15.135-15.634-15.521-33.364-31.161-36.891-35.23 11.055-10.351 34.278-31.443 38.143-35.535-16.649 5.132-33.319 10.203-49.971 15.312-2.347-6.318-12.164-49.914-12.631-52.174zm0 372c-2.958 9.598-9.996 46.301-12.949 52.357-3.796-.268-40.952-12.889-49.24-14.688.14.165 6.547 6.47 37.443 35.328-2.956 3.386-29.477 27.552-36.508 35.027 12.296-3.529 46.535-14.457 48.91-15.078 2.63 7.467 10.004 41.81 12.219 50.119 4.91-16.613 10.232-43.172 12.836-50.104 16.232 5.088 32.327 10.737 48.756 15.135-15.633-15.521-33.364-31.161-36.891-35.23 11.054-10.35 34.278-31.443 38.143-35.535-16.649 5.132-33.319 10.203-49.971 15.312-2.347-6.318-12.164-49.914-12.631-52.174z" fill="#f00000" stroke-width="5"/>
<path d="M4.985 3.999v340.51c.892 142.31 116.59 257.21 259.02 257.21 142.41 0 258.12-114.9 259.02-257.21V3.999z" fill="none" stroke-width="8"/>
</g>
</svg>
