<?xml version="1.0" encoding="UTF-8"?>
<svg width="528" height="608" xmlns="http://www.w3.org/2000/svg">
<path d="m4.01 4.015v341.79c.895 142.85 117.03 258.18 259.99 258.18 142.95 0 259.09-115.33 259.99-258.18v-341.79z" fill="#f00000" stroke="#000" stroke-width="8"/>
<path d="m383.92578 14.853516c-.56854.02623-1.1276.09716-1.65039.191406-3.03365.789339-5.74853 3.156977-8.60547 4.49414-4.50041 2.226643-9.5658 2.34944-14.47266 2.750001-4.90685.235623-9.77283.701171-14.67968.701171-18.07822.135484-36.1503.118218-54.22852-.07617-23.52701-.818793-47.1487-.60728-70.6875-.265625-9.04206.494809-18.07327.295439-27.09765.566406-7.23954.494809-14.53772.25939-21.79493.330078-5.66674-.0059-11.67564.222584-17.23047-1.238281-3.96436-1.08976-6.90414-3.439405-10.24999-5.660157-1.87322-1.254695-4.16963-2.149824-6.43751-1.519531-1.57278.483028-3.41123 1.808995-3.57617 3.576172-.22384 2.114721-.005 4.299372.18946 6.408203 1.61991 14.779487 3.85113 29.276564 4.66992 44.167967.22973 6.29704.27155 12.558807-.84766 18.78516-2.50939-1.454979-4.72419-2.869518-7.75195-2.798831-4.77137-.147265-9.25367 2.903701-10.77344 7.439452-1.67881 4.706589-.24834 9.638073 2.75586 13.437503 2.63899 3.23394 6.37526 5.63075 10.38086 6.75586 6.72116 1.72005 14.06641.64252 19.96289-3.0332 5.65497-3.64039 9.83601-9.18905 12.0332-15.533209 2.46227-7.127615 2.93399-15.210326 3.22852-22.697267.25329-3.15735.37711-6.28398.34765-9.453124 19.82773-2.079375 39.63896-4.294791 59.49024-6.162108 2.95708-.241514 6.0312-.842889 8.98828-.636718l.30664.294922c.0884 8.847662-.006 17.712845.0176 26.566406-.54783 13.136015-.14092 26.324888-.82422 39.466798-.5655 23.58003-1.59043 47.16634-3.32227 70.69335-.94838 9.8314-1.49096 19.898-3.56445 29.56446-1.16634 5.77278-4.93707 10.71639-10.17969 13.37305-1.97924 1.04262-4.50501 1.71819-5.77148 3.66796-1.36662 2.04993-2.06798 4.58301-2.50977 6.98047-.52426 2.16185 1.3021 4.73163 3.63477 4.51367 6.37361-.0471 12.76514.005 19.12109-.50195 6.01429-.14137 12.0404-.25177 18.05469-.28711 1.79074 0 3.44463-.59078 4.31055-2.25781.45357-3.09845-.31667-6.02454.83789-9.13476.80111-2.46227 2.726-4.5651 5.4121-4.81251 2.31501.1296 4.24746 1.74856 5.09571 3.86329 1.30771 3.38119 1.17876 7.18039.98437 10.73242 1.10154.81879 1.82596 1.80916 3.33985 1.70313 9.63111-.053 19.24974.0109 28.88086.15234 3.27517.0648 6.85197.70131 10.09179.30664 1.57279-.24152 3.10444-1.51479 3.29883-3.14649.1885-1.97923-.31855-4.07617-1.01953-5.91992-.70687-1.72005-1.53184-3.32744-3.26367-4.19336-2.57419-1.23113-5.2723-2.05624-7.69922-3.60547-4.76548-2.73322-8.16426-7.35094-9.60156-12.6289-1.32539-5.01878-1.92638-10.27937-2.55078-15.42774-1.93801-17.63053-3.46965-35.30848-4.40626-53.02148-.47713-6.27348-.46026-12.55855-.95507-18.83203-.0118-5.90826-.57586-11.76951-.63477-17.67188-.70687-20.740756-1.24839-41.499409-1.18359-62.25195 19.53908 2.020473 39.05876 4.229796 58.5625 6.56836 4.22944.477137 8.47169.907939 12.70703 1.326173.54783 9.083282.68991 17.611699 3.55273 26.38867 2.07938 6.903772 6.29611 13.041277 12.33985 17.046877 4.87152 3.21037 10.9575 4.77771 16.76562 3.9707 5.01879-.60673 9.77118-3.25759 13.14649-6.98633 3.71696-4.211763 4.90781-10.290639 2.76953-15.52148-1.44319-3.62861-5.01874-6.307614-8.85352-6.86133-2.83337-.359327-4.91311.893804-7.30469 2.136721-.28274-3.13969-.49526-6.254781-.2832-9.406252.11192-16.723379 2.62181-34.001664 4.33008-50.642578.0353-1.678817.46427-3.987366-.90234-5.265624-1.19285-1.232606-2.98776-1.547445-4.69336-1.46875zm-273.8125 122.523434c-9.96439-.002-19.97161 1.27597-29.660157 3.37891-2.456375.65974-5.035674.87223-6.042967 3.60547-1.001402 3.36941-.148313 7.42677-.171876 10.92578.08836 13.04176.19528 26.08906.20117 39.13672-10.950602-8.47655-21.936554-16.91744-32.804684-25.49414-1.996909-1.69648-4.006796-3.0159-6.410157-4.07031-1.454975.91304-3.33419 1.44291-3.664062 3.36914-.306311 2.1265-.123016 4.34798-.128906 6.49804.135483 5.8847.0059 11.7931.365234 17.66602.188499 4.32369.2185 8.65292.265625 12.96484.01767 3.34585.464844 6.66193.464844 10.01367.04712 2.06171-.124421 4.17664.134765 6.22657.241515 1.60813 1.556382 2.64509 2.710938 3.64648 10.785668 8.67095 21.529461 17.37759 32.556642 25.73633 1.331276.99551 2.827894 1.91355 3.976562 3.11523-.48303 4.9481-.566452 9.82138-.189454 14.78125.459467 5.384.189348 10.75465.578127 16.14454.223843 2.82747.27148 5.64904.27148 8.48242-3.55202-3.13969-7.093744-6.29668-10.781248-9.2832-6.568007-5.80223-13.276024-11.4338-19.791016-17.29493-1.443193-1.3077-2.898994-2.90926-4.636718-3.8164-2.1913-1.01908-5.024017.43625-5.283203 2.88085-.282748 3.49901.188392 7.13967.388671 10.63868.318093 12.97107 1.377895 25.92937 1.937501 38.88867.164936 2.29144 1.790212 3.69386 3.416015 5.07226 11.251024 8.92424 22.389987 18.00655 33.199221 27.46094 3.864228 3.15147 5.827671 8.56616 6.281247 13.40235.359327 4.39437-.807247 8.81747-2.904295 12.66992-1.849649 3.38119-5.496755 5.77839-8.689455 7.79296-5.336872 3.15147-10.768147 5.82627-15.822265 9.4961-7.61064 5.2544-13.124407 13.34207-15.816406 22.13672-3.051325 10.21429-2.851009 21.33539.730469 31.39062 1.855536 5.74922 4.82524 10.93305 8.318359 15.82813 5.766886 7.48694 13.100976 12.85389 20.953122 17.94336 5.325097 3.39887 10.454697 7.31551 13.476563 13.01171 2.15596 3.94671 2.716174 8.46485 2.097661 12.88868-.247406 1.89677-.742941 3.97624-.601566 5.87891.123702 2.02635 2.638635 3.54606 4.488284 2.96289 2.621305-.77756 4.33587-3.94681 5.455079-6.24415 2.315-5.39577 3.934997-11.42767 3.66992-17.33593-.19439-8.19382-3.15649-16.15703-8.640627-22.27735-4.706578-5.74921-10.491424-9.20773-16.164061-13.86718-3.817103-3.3223-7.045635-7.62696-8.753903-12.41602-1.419635-4.58877-1.159388-10.23243 1.644526-14.28516 2.338568-3.47544 6.219543-6.00239 10.124999-7.39258 4.576991-1.64347 9.343094-2.50982 13.890631-4.34179 5.389888-2.10883 10.932036-5.16095 14.542968-9.80273 3.228043-3.97616 5.196173-8.81821 4.666013-14.00782-.16493-3.2575-2.02709-6.20762-2.07422-9.41211-.0353-2.56829 2.42824-4.46529 4.91406-4.01172 1.63759.12371 2.45063 1.77206 2.92188 3.13868 1.0014 3.2457 1.05338 6.93331 1.30078 10.30273.54783 6.06142.47681 12.18856.0586 18.25586-.43 14.79716-2.08411 29.54666-2.79687 44.33203-.71865 14.32592-1.72625 29.1763-.3125 43.45508.61262 8.12901 1.99572 16.129 4.64648 23.85156 4.28835 12.65888 12.21171 24.53489 23.49219 31.95703 2.7509 1.71416 6.84596 3.7754 10.11523 2.66797 3.16914-1.1192 4.16451-4.74224 2.97461-7.68164-1.24291-2.87461-3.7051-5.31278-5.54297-7.83985-4.10573-5.13659-6.33944-11.29267-7.88867-17.61327-2.315-9.99044-2.89797-20.44588-2.25-30.66016.88359-14.5262 3.34549-28.69375 5.9668-42.99609 2.04992-11.49254 3.7242-23.03753 3.80078-34.75391.10014-5.37222-.60765-10.56169-1.30273-15.875 4.91864 5.35454 9.96657 10.41973 16.27538 14.14257 7.0746 4.28247 14.72789 6.25563 22.58594 8.51173 5.00111 1.53154 10.09056 3.84057 12.90626 8.49414 2.13828 3.29872 2.08462 7.8464-.24805 11.0332-2.04403 2.98653-5.11863 4.3347-8.16407 6.04297-4.05272 2.17362-7.84086 5.10143-10.59765 8.8125-3.91135 5.47824-6.06069 12.16537-5.66602 18.92187-.0412 5.761 1.81908 11.25014 5 16.01563 5.08358 8.09956 15.33272 12.89991 24.78711 10.77929 1.96157-.40645 3.79452-1.64278 3.87109-3.8164-.11781-1.29004-.919-2.83931-2.19726-3.31054-2.94529-1.15456-6.00824-1.30169-8.87695-2.97462-3.74642-2.20897-6.05483-6.51447-6.39649-10.78516-.22384-5.26618 2.19043-10.09098 6.06055-13.56054 6.3854-5.78456 14.35478-6.58523 21.48828-11.50977 6.35595-4.07039 11.34678-10.01543 14.0918-17.05468 1.83786-4.98344 2.4211-10.40191 1.46094-15.64454-1.08387-7.34555-5.31983-14.22667-10.93946-18.99804-6.54444-5.84347-15.49774-9.17058-22.18945-14.94336-6.93912-5.97306-12.44083-13.07743-18.07812-20.21094-7.55174-10.41456-15.79985-21.71348-20.4004-33.76562-3.73463-10.28498-3.91177-22.04249-2.86914-32.82227.68331-7.78147 3.70016-15.48086 9.41993-20.93554 3.44599-3.65807 7.33999-6.78461 10.99804-10.20704 1.508-1.53744 3.44617-3.02288 3.65235-5.33789 1.0603-9.11273.76001-18.54317.71289-27.7207-.0589-3.57559-.0295-7.13346-.35938-10.69726-.30042-3.0749.005-6.17319-.25977-9.2422-.17671-1.67292-1.49082-3.24534-3.22265-3.38671-2.1913-.22974-3.82818.72308-5.66016 1.74804-6.92733 4.06452-13.64927 8.50119-20.49414 12.70117-.0943-5.67852-.2065-11.36245-.30664-17.04687-.60084-10.80334-.1234-21.59513-.79492-32.39258-.0707-10.01399-.24017-20.02897-.25195-30.04297-.0295-1.59046-.007-3.42172-.59571-4.92382-.73632-1.61403-2.27896-2.06729-3.8164-2.63868-7.31022-2.35624-15.22124-3.44032-22.86133-4.01171-3.29873-.3019-6.61603-.44467-9.9375-.44532zm261.08789 35.38477c-.92638.0352-1.86095.11237-2.80859.23828-7.01569.82467-13.57911 3.89957-18.92187 8.47656-9.11864 7.61653-14.80258 18.7215-16.67579 30.36719-1.83787 10.36155.18281 21.5645 3.28125 31.50781 3.46956 10.72087 8.64682 20.94829 14.84961 30.33789 3.61683 5.94361 7.88689 11.32151 11.91016 16.99415 2.96297 4.18231 6.51083 7.5635 7.04687 12.90039-4.65356.28275-8.19498-1.77977-12.3125-3.53516-4.12341-1.80252-8.31039-3.41567-12.39257-5.32422-12.0227-4.80673-23.6814-9.05404-36.62891-10.65039-11.27459-1.45498-22.57249-1.86105-33.58789 1.40234-11.72227 3.26928-22.16729 11.64556-27.08594 22.87891-2.60953 5.70209-3.43373 12.15091-2.30273 18.31836.68331 3.41655 2.03826 6.72202 3.66406 9.79101 1.68471 3.1338 4.04753 5.44373 6.5039 7.95313-1.3136 7.76379-.24186 16.239 3.75195 23.10742 3.16326 5.53126 8.00625 9.99598 13.83204 12.59961 5.49003 2.58008 11.5031 3.68208 17.55274 3.59961 11.03307.32398 22.23191-2.85135 31.91015-8.05273 11.73994-6.02608 22.16548-15.20883 31.11328-24.82227 3.74642-3.79944 6.80401-8.07036 10.25-12.11719 1.89677-2.26199 3.64028-4.64234 5.54883-6.89843-.41823 7.73433-1.55988 15.42776-2.05469 23.1621-1.50209 17.04147-1.9568 34.13009-1.63281 51.23047.57139 15.40978 2.71046 30.73129 6.48633 45.6875 3.33996 13.58958 7.91123 26.73287 14.34375 39.17969 4.21766 7.78147 8.16978 15.12059 14.46093 21.48242 2.52707 2.52117 5.55993 5.34352 8.99414 6.49219 2.62132.94838 5.24336-.43068 7.23438-2.08594 3.6875-3.20447 6.54453-7.46946 8.83008-11.75781 1.45497-2.96886 3.13887-6.67355 2.73242-10.04297-.17672-1.82608-1.17719-3.16891-2.38477-4.46484-7.23953-7.61065-13.69582-16.29384-18.39062-25.7129-6.45608-12.26419-10.4325-26.14315-13.21875-39.67382-4.17054-22.96151-4.83072-47.06018-4.3418-70.35156.44769-7.02748.71873-14.04883 1.46094-21.05274 3.38119 3.32819 5.96826 7.18581 9.00781 10.82031 9.69002 11.4572 19.80275 22.86149 32.33204 31.3086 8.79464 5.63729 18.2551 9.80809 28.71679 11.00976 3.64627.27097 7.3576.24133 11.00977.0352 8.90068-.91305 17.41852-4.00451 24.3164-9.78907 5.43702-4.70657 9.31312-11.00485 10.30274-18.19726.30631-2.37392-.0231-4.78824.28906-7.15625 1.02496-2.1324 2.85766-3.81094 3.91797-5.94922 3.08667-6.1321 4.37597-13.10656 3.08593-19.9043-.86591-5.8788-3.33966-11.28672-6.6914-16.15234-6.72116-9.17755-16.81216-15.83487-27.93359-18.25-6.86843-1.51978-13.63678-1.58347-20.62891-1.3125-14.64989.85413-29.20545 4.51736-43.14258 8.98242-5.04823 1.71416-10.16084 3.20545-15.1914 4.97852-2.52707.90714-5.13625 1.24922-7.80469 1.39648.98962-2.02047 2.1424-3.90713 3.65039-5.58594 6.79185-7.90517 14.66825-14.80837 21.61914-22.58984 10.22606-11.19212 19.05118-23.64481 23.39844-38.33594 3.72285-12.80614 3.96326-27.46151-1.26758-39.88477-2.98065-7.4398-7.56398-14.13195-13.91993-19.08593-5.04234-3.98204-10.92651-6.76775-17.42382-7.10352-6.96268-.55371-13.75337.98347-20.1211 3.73438-6.0511-2.51013-12.05443-4.37942-18.53906-4.13282zm-100.00195 279.64648c-1.505-.0535-3.01143-.0467-4.51563.0196-4.01119.17657-8.002.77926-11.86914 1.80273-10.40269 2.83927-20.29799 8.80493-27.10742 17.24609-5.01289 5.99069-8.34034 13.16681-10.08985 20.76563-.82467 3.62855-.87937 7.47458-.79101 11.17383.0943 3.92902 1.1029 7.51108 1.95704 11.31641-3.45773-.61852-6.77463-1.50194-10.23829-1.87305-13.5188-1.44909-27.53364 3.39176-37.05273 13.14648-6.48549 6.36768-10.79138 14.8217-12.20508 23.79297-1.03085 7.87567.48973 15.85092 3.91211 22.98438 1.55512 3.26334 3.6395 6.09178 5.69531 9.04297-.0708-.0226-.13629-.0572-.20703-.0801l11.15235 8.24414c26.40881 9.02732 54.6991 13.99416 84.16015 13.99416 39.70982 0 77.33709-8.92491 111.01367-24.84182l3.62305-4.62695c.004-.008.006-.0157.01-.0235 2.31601-4.45727 4.3839-8.90985 5.17187-13.92578 1.99686-11.69861-1.92526-23.72702-9.77148-32.5039-6.05548-7.08044-14.25545-11.86404-23.19727-14.30274-3.43421-.84235-6.96778-1.30681-10.47851-1.64258-7.24538-.34164-14.08459 1.0243-20.98243 3.07422.96017-4.51214 2.06115-8.88358 1.94922-13.53711.33577-15.64526-7.96985-30.38861-20.68164-39.2539-8.49674-6.30489-18.92198-9.61775-29.45703-9.99219z" />
<path d="m373.30664 179.69141c-2.38818-.0948-4.78848.14081-7.1543.79687-6.77418 1.60814-12.65197 5.99611-16.77539 11.52149-5.49003 7.02747-8.81297 15.63841-9.46093 24.5332-.1885 5.1307-.11798 10.20394 1.13672 15.21094 2.00279 9.54865 5.77229 18.24876 10.04296 26.96093 5.08358 9.99045 11.29209 19.13317 17.72461 28.28125 2.73912 4.3237 6.48675 8.8526 7.88282 13.81836.98961 2.76858-.37815 6.0617-2.73438 7.6875-2.49761 1.77306-5.30647 2.00832-8.28711 1.91407-6.87432-2.23843-13.47818-5.31374-20.17578-8.0293-11.7046-4.48863-23.3265-8.49851-35.79688-10.25391-7.35733-1.22524-14.81985-2.05056-22.27734-1.35547-8.3823.93661-17.23101 3.76382-23.76367 9.26563-4.36493 3.4401-7.82198 8.16372-9.71875 13.38867-2.92173 8.84767-.71291 19.80581 6.66211 25.86133 1.20168 1.16044 2.57978 1.96049 2.26758 3.88672-.6244 3.68161-.74769 6.93926-.44727 10.6621.99551 3.94082 1.97375 7.71064 4.34766 11.08594 3.10433 4.81261 7.88705 8.13019 13.35351 9.73242 5.32509 1.72595 10.54305 1.4901 16.05664 1.14844 13.23616-1.43729 25.6006-7.93461 36.10352-15.85156 9.53687-7.30433 17.92665-15.87061 25.50195-25.17773 2.5624-3.12791 5.23512-6.18381 8.04492-9.09375 1.42553-1.46676 3.20479-2.08654 5.10157-2.71094.84824-.0118 1.69667-.0292 2.54492-.0527 1.64347.8718 3.38147 1.64325 3.63477 3.72851.0942 2.56241-.54824 5.12507-.66016 7.69336-1.6847 15.42157-3.29743 31.03888-3.5625 46.55469-.55961 7.62831-.30066 15.32664-.32422 22.97852.36521 4.71247.39947 9.4302.9414 14.125.90127 10.71498 2.86999 21.24141 5.29102 31.70898 4.71836 18.47289 11.33321 36.59313 22.53711 52.1914 2.39158 3.13969 4.9537 6.62046 8.16406 8.95313.84236.60083 1.61365 1.19035 2.65039 1.39063 2.21487-1.35484 3.95881-3.6882 5.4668-5.76758 2.26788-3.16325 3.68684-6.69152 4.91797-10.35547-1.8143-2.5035-4.06377-4.58901-6.03711-6.95703-11.87543-13.63672-19.7582-30.64828-24.47656-48.00196-3.27518-11.18622-5.1653-22.73749-6.4082-34.3125-.22974-4.74192-.80183-9.44362-.97266-14.18554-.60084-5.28386-.36491-10.57943-.79492-15.86328-.42413-12.50572.17069-24.76406 1.13086-37.22266.5596-3.90547.37106-8.27491 1.48437-12.05078 1.19579-2.7509 4.61887-2.95191 6.88086-1.33789 3.5049 2.26788 6.40358 5.37215 9.11914 8.48828 8.21737 9.60755 16.65811 19.70441 26.25977 27.93945 9.14807 8.11723 19.69919 14.26595 31.86913 16.41602 10.12593 1.68471 20.94556.88955 29.7461-4.80664 7.38091-4.59466 12.20092-13.37738 10.77539-22.14258-.38878-2.15595.73527-3.59352 2.04297-5.11328 3.76998-4.17643 5.79651-9.93702 5.49609-15.55664.11781-4.78905-1.46045-9.64202-3.76367-13.80079-5.06001-8.28805-13.19501-14.674-22.46679-17.58984-10.24374-3.36942-21.39528-2.88593-31.94532-1.56055-12.03447 1.64348-23.92118 4.87122-35.47851 8.53516-4.40616 1.5021-8.87078 2.83316-13.35352 4.09375-2.96297.86592-5.83347.69531-8.87891.69531-1.45497-.0412-2.89191-.0304-4.12305-.91992-1.8673-1.49032-2.32638-4.35762-1.54882-6.53125.95427-2.96885 2.75163-5.71947 4.6543-8.16406 7.01569-8.31751 15.15562-15.47627 22.27734-23.64063 4.42972-4.99521 8.12279-10.3185 11.85742-15.82031 4.56521-6.40307 7.6813-13.64327 9.58984-21.2539 2.25021-9.61934 2.61627-19.48645-.15819-29.04688-2.58598-8.32929-7.07403-15.95231-14.11329-21.26562-4.43561-3.32819-9.8845-5.25342-15.46289-4.97656-5.20139-.0353-9.76783 1.69505-14.50977 3.58593-2.39157.84824-4.16441-.42919-6.30859-1.25977-3.69266-1.57204-7.63885-2.6466-11.61914-2.80468zm15.34766 34.7207c.88359.6892 2.29736 1.47239 2.57422 2.62695.32398 2.72146-.00024 5.5833-.32422 8.29297-.24152 2.37979-.15838 4.75501-.49415 7.12891-.40056 2.95119-.18754 5.89643-.54687 8.85352-.43001 3.26337-.27703 6.46721-1.07226 9.70702-.30631 1.07209-1.15449 1.84915-1.85547 2.67383-.82469-.84824-2.16249-1.55541-2.0918-2.89258-.34166-7.07459.0362-14.2535.21875-21.33398.41234-3.88189.17075-7.77044.38281-11.65235.19439-2.02635 1.67154-2.53248 3.20899-3.40429zm-12.72852 7.99805c.74222 2.16772 1.08255 4.40204 1.35352 6.66992.77167 4.83616 1.59149 9.6603 2.75781 14.42578.73043 3.96436 2.07833 7.92794 2.4082 11.94531.20618 1.44909-1.02427 3.57495-2.70898 3.06836-1.36662-.74221-1.6793-2.42055-2.1211-3.77539-1.96746-7.09815-4.47004-14.04833-6.4375-21.14648-.45946-2.3857-1.65547-5.53694-.32422-7.78126 1.08387-2.07936 3.01056-2.6935 5.07227-3.40624zm24.11523.93749c1.21347.65975 2.33868 1.21945 2.92774 2.56251.76578 2.73911-.44758 5.77295-1.125 8.44726-1.54923 5.38988-2.85683 10.84456-4.44141 16.22266-.97784 3.15147-1.13701 6.08384-3.29297 8.69336-.70098-.28275-1.40839-.56491-2.10937-.84766-.90125-2.83925-.14711-5.41834-.0293-8.29883.44769-5.15425 1.97463-9.80925 3.07617-14.8457.77756-2.99242 1.39571-6.04287 2.2793-9.01172.41823-1.46676 1.52494-2.12075 2.71484-2.92188zm-36.03906 9.34766c1.51388 1.11333 2.27416 2.50448 2.875 4.24219 2.48584 7.21597 5.33761 14.28435 7.97071 21.44141.4889 1.34305.97723 2.95741.48242 4.35937-.57137 1.01318-1.62552 1.10186-2.63281 1.41406-2.22076-2.93939-3.13453-6.40301-5.02539-9.5957-2.68023-5.33099-5.65965-9.72648-6.86133-15.64062-.45947-2.59187 1.2004-4.78929 3.1914-6.22071zm45.80665 2.26758c1.12508.90716 2.59054 1.83357 2.82617 3.38867.73043 3.26339-1.66679 6.43219-2.99805 9.27735-2.71557 5.78455-5.82489 11.40425-9.01758 16.9414-.59495 1.10154-1.35549 1.11975-2.45703 1.37305-.34755-.5537-.69539-1.10256-1.04883-1.65039.38289-3.76997 1.80991-6.92647 3.03516-10.48437 1.49621-4.20589 3.5514-8.10717 5.27734-12.2129 1.184-2.55061 1.95589-4.96579 4.38282-6.63281zm-52.99805 7.61524c.30253.014.61813.0729.94726.17968 1.92621 2.65077 2.86454 6.18516 4.10156 9.20703 2.04993 5.06001 3.82776 10.21315 5.74219 15.32617.5655 1.51978-.0636 2.65668-.59961 4.05274-1.27824-.33575-2.29912-.55974-2.98242-1.82031-3.26928-6.04963-6.65529-11.98611-9.41796-18.29493-.60674-1.48441-1.21354-3.0463-1.46094-4.63085.12885-2.08748 1.55216-4.11714 3.66992-4.01953zm61.86328 3.54296c2.18541.90126 2.63347 2.44995 3.24609 4.52344-2.23842 6.83897-7.35885 12.50042-11.51172 18.32032-1.58455 2.07936-3.07447 4.77725-5.23632 6.26757-1.49622.0177-2.37372-1.33833-1.87891-2.72851 1.1251-3.16915 3.0448-6.0837 4.54101-9.08789 1.86732-3.7641 4.05948-7.32826 6.10352-10.99219 1.39607-2.35035 2.48613-4.61803 4.73633-6.30274zm-110.01563 48.98242c.93693.004 1.8876.093 2.83008.20899 5.43702.83647 10.79045 2.42144 16.05664 3.97656 2.92172 1.08387 6.35684 1.77225 8.67774 3.83985-.71866.59493-1.30121 1.62745-2.32618 1.5332-4.31779-.006-8.66481-1.22577-12.94726-1.74414-2.53296-.26508-5.02581-.72419-7.5293-1.17187-3.95848-.68331-7.95156-.84873-11.93359-1.38477.30042-1.3195.35363-2.49113 1.4375-3.42774 1.68066-1.43362 3.67314-1.83851 5.73437-1.83008zm140.76563 9.44727c1.80197.0293 3.42733.44014 4.61132 2.1543.79523 1.07796.0225 2.15116-.5371 3.11133-7.03336.98962-14.16561 1.18825-21.2461 1.7832-2.76269-.16494-6.17908.95527-7.76953-2.03125 2.34444-1.7554 4.91123-1.80935 7.65625-2.4043 5.09535-1.04263 10.27345-1.95387 15.43359-2.54882.6303-.0412 1.25091-.0742 1.85157-.0645zm-147.54688 1.0918c3.69296-.0165 7.40829.25796 11.07813.64453 4.67712.2474 9.36022.74219 13.99023 1.47851 1.34304.21207 2.34409.91367 3.38672 1.72657-.37111.53604-.68825 1.34802-1.2832 1.64844-1.79074.65974-3.88845.63618-5.77344.73632-5.6903.0942-11.39173-.0344-17.08203-.17578-3.51078-.10014-6.87625.0939-10.32813-.67187.0942-1.21935-.19959-2.50446.60743-3.50586.90715-1.24292 2.30249-1.83191 3.82226-1.85547.52646-.0147 1.05447-.023 1.58203-.0254zm147.75196 8.28515c1.47438-.007 2.9497.003 4.42383.0293 1.614.0648 3.26383.18322 4.70703.99023 1.17221.76578 2.24863 1.97843 2.13671 3.46875.22974 1.23701-1.46575 1.80155-2.40234 2.02539-4.35904.34166-8.92411-.79953-13.29492-1.03515-1.76127-.0825-3.51809-.15302-5.26758-.39454-3.48134-.42412-7.22053-.49031-10.57226-1.58007.15904-.61852.29364-1.26644.53515-1.84961 1.8202-1.02497 4.44823-.94249 6.48047-1.10742 4.40911-.34902 8.83071-.52507 13.25391-.54688zm-128.67188 2.52149c1.35897.002 2.71303.15497 4.0918.65234-.26508 2.72146-2.55109 2.76863-4.70703 3.31055-8.17614 1.30771-16.26504 2.78152-24.48828 3.83594-2.47405.37111-4.75305.83597-7.12696-.27735.0471-1.79072-.14713-3.228 1.44922-4.42968 2.47994-1.80253 6.49211-1.24363 9.45508-1.70899 5.33687-.25919 10.64357-.84666 15.98633-1.03516 1.83564-.0994 3.5926-.34994 5.33984-.34765zm114.57227 6.56836c.0641.001.12735.008.19141.0175 9.44259 1.01319 18.08388.52293 27.32031 2.83203 1.79663.53605 3.80515 1.65655 3.71679 3.8125.10014 1.13689-.55959 1.78432-1.10742 2.67969-6.52087-.98373-12.74081-3.17478-19.26758-4.09961-3.56969-.51837-7.08095-1.40219-10.60351-2.16797-1.26059-.22384-2.07326-.93709-2.99219-1.75.81732-.43627 1.78055-1.33934 2.74219-1.32422zm-114.4082 2.12305c.36889.002.73297.0294 1.08788.0898 1.06031.51248 1.11397 1.67394.24805 2.39257-1.67882 1.54334-4.2116 2.27286-6.29687 3.1211-7.46338 2.55062-14.99847 4.50791-22.66211 6.33398-1.21935.21796-2.52693.66503-3.71094.11134-1.30181-.44769-2.53869-2.06689-1.87305-3.45118.35933-1.2488 1.37887-1.57997 2.49219-1.96875 2.86872-.83057 5.85953-1.34819 8.78125-1.98438 6.21456-1.40194 12.43592-2.7403 18.63281-4.20117 1.04704-.23415 2.19409-.45109 3.30079-.44335zm117.39843 5.61718c.36804.009.76286.0806 1.24219.21094 7.55762 1.82607 15.16334 3.38773 22.67382 5.4082 2.28556.62441 4.85984.95929 6.98633 2.00781 1.46087.75989 2.03207 2.8697 1.14259 4.24219-1.14867 1.37251-2.91684 1.73678-4.60743 1.2832-3.48723-.9248-6.81573-2.44341-10.26172-3.53906-4.86562-1.54923-9.70686-3.18838-14.53125-4.86718-1.46087-.5655-3.28136-1.10124-4.36523-2.26758-.17083-.63619-.16006-1.34227-.17773-1.99024.74368-.34607 1.28504-.50375 1.89843-.48828zm-109.81055.24805c.34709-.005.69443-.002 1.04493.004.29453.58315.59609 1.16683.89062 1.75-1.36071 1.13099-2.76312 2.03875-4.3418 2.83398-7.00978 3.6227-14.06169 7.18556-21.21875 10.50195-1.84374.82469-3.93322 1.59563-5.84765.50587-1.3784-.6951-1.81474-1.93071-2.49805-3.21485 3.1986-2.23843 6.69819-3.25137 10.20899-4.83594 6.1262-2.6802 12.30415-5.07902 18.67187-7.12304 1.02055-.32251 2.04859-.40835 3.08984-.42188zm102.71485 4.22266c.25551-.00059.53058.0521.83984.18164 4.59465 1.44907 9.03572 4.17576 13.35352 6.39062 4.86563 2.80391 9.93699 5.20226 14.82617 7.94726-1.20168 2.43871-3.40525 3.93402-6.17383 3.48633-2.9335-1.13099-5.51913-3.35053-8.17578-5.01757-5.03057-3.17502-9.99018-6.43258-14.79102-9.94336-.81288-.61851-1.43815-1.39025-2.05078-2.19727.81291-.35785 1.40537-.84517 2.17188-.84765zm-95.20117 1.0957c.31809.58906.64284 1.17657.96094 1.76563-.96017 1.08385-1.97395 2.08572-3.20509 2.86328-4.64177 2.9924-9.40736 5.80787-13.99023 8.89453-2.23252 1.49621-4.38362 3.32786-6.81055 4.48242-1.9321 1.03085-4.87615-.31689-5.39453-2.4375-.14137-1.72006 1.71959-2.79924 3.03906-3.45899 5.24851-2.52116 10.37331-5.2821 15.48633-8.06836 3.15737-1.46674 6.47397-3.611 9.91407-4.04101zm87.26953 1.94336c3.48722 1.50799 6.7099 4.13526 9.85546 6.25586 5.00701 3.40476 9.84876 7.03237 14.80274 10.50781.754.68331 1.81328 1.13246 1.66602 2.30469.10014 1.59044-2.04362 2.66195-3.39844 2.6914-2.32679.38878-4.26462-1.96766-5.93164-3.28124-5.31921-4.27658-10.53837-8.64689-15.46289-13.36524-1.16634-1.14278-2.16865-2.41498-3.14649-3.7168.53016-.46536 1.06152-.94291 1.61524-1.39648zm-8.07032 2.18555c.90716.0648 1.74406-.0892 2.49805.51757 2.74501 2.12651 4.9938 4.88453 7.63868 7.14063 3.8112 3.25748 7.3172 6.82126 11.22265 9.96093 1.60813 1.50211 4.91767 3.08557 3.86914 5.73634-1.3136 2.12059-4.19985 2.03161-5.92578.48827-6.21456-5.20727-11.19769-12.13427-16.64648-18.125-1.47854-1.84374-3.28655-3.07387-2.65626-5.71874zm-71.50585.64843c.53604.51838 1.0714 1.04214 1.60156 1.56641-1.92032 2.69789-4.44176 4.28774-6.95703 6.37891-4.67712 3.56379-9.35411 7.9587-14.40235 10.96289-1.21934.78934-2.69783.84788-4.06445.43554-1.49621-.60084-1.91444-2.00277-2.58008-3.32226 1.34893-1.12511 2.82782-2.02674 4.35938-2.88086 5.1248-2.96297 10.24382-5.67722 15.09765-9.09375 2.20307-1.56101 4.45359-2.99246 6.94532-4.04688zm-74.83399 118.22852c-8.51191-.30042-16.8888 2.06343-24.23437 6.31054-11.95791 6.80364-20.34617 19.25492-21.36524 33.06836-.45947 11.15679 3.35125 21.3884 9.30664 30.6543-4.80672-3.25161-9.814-6.21401-15.42773-7.8457-4.97166-1.46087-10.23028-2.44396-15.42578-2.33203-3.87012.5007-7.67577 1.01833-11.36328 2.34961-8.22917 3.01009-15.65212 8.77225-20.11719 16.36523-2.52707 4.0704-3.73949 8.5339-4.61719 13.19336-.1237 2.58597-.11189 5.16012-.006 7.74609.95427 5.36633 2.53274 10.4972 5.5664 15.08008 3.12202 4.6359 7.10267 8.72521 11.68555 11.92969 2.61542 1.97335 6.39162 2.56743 9.51953 3.48047l.42969.22461c15.19184 3.72289 30.99139 6.86294 46.61914 8.02927 8.90658 1.0662 18.095 1.08859 27.07227 1.3301 15.23307-.22384 30.33829-1.03109 45.37109-3.64062 4.98933-.73633 9.91332-1.73667 14.84375-2.77342l.40625-.19533c10.65608-2.25023 21.13528-5.47237 31.35546-9.21289 1.90856-.73044 4.1299-1.29436 5.78516-2.50781 5.73155-4.64769 10.05403-10.92307 12.02149-18.06837.54782-1.99691.75981-4.02825 1.11914-6.0664.31809-7.08639-1.51399-14.15439-5.50782-20.0332-4.77138-7.269-12.30407-12.70641-20.52734-15.4043-12.39381-4.01739-26.44415-2.22727-37.71875 4.16992-3.36942 1.77896-6.27255 4.11745-9.38867 6.2793 5.73155-8.67685 9.78458-18.1142 10.26172-28.62891.32398-7.48106-1.60855-14.99719-5.44922-21.42383-8.05244-13.86056-24.25133-22.57293-40.21485-22.07812z" fill="#fff" />
<path d="m383.05849 21.123273c-4.21766 3.015984-8.81161 5.672235-13.97177 6.644183-4.20588.818793-8.55934 1.060941-12.82413 1.384924-4.52398.518372-9.00645.45368-13.5481.547929-9.59577.536044-19.25666.258519-28.86423.346878-7.86394.07069-15.69874-.470764-23.56269-.388296-10.99185-.153155-22.00111-.124106-32.98707-.56001-5.10715-.02356-10.20813.006-15.31527.006-10.59129.418232-21.20618.35339-31.80925.541889-4.33547-.04123-8.64225.389159-12.97773.389159-11.38062.141375-22.77291.300237-34.14765-.04142-4.0056-.200281-7.98118-.317921-11.76883-1.59029-4.36493-1.507992-7.89988-3.999686-11.6463-6.591548 1.63758 11.869548 3.06958 23.773809 4.27126 35.690481.88359 8.176149.8895 16.529032.61265 24.740523-.28864 3.675729-.67232 7.722765-2.27456 11.086292-1.07209 2.238428-3.30412 4.29479-5.96078 3.794089-2.63309-.365217-2.1857-4.312149-4.5655-5.242864-1.67882-.848247-3.49264-.565775-4.94172.600564-1.54334 1.130995-1.72587 2.769065-2.27369 4.471449.64207 1.96746 1.11262 3.793355 2.52047 5.395595 2.77447 3.22216 7.11594 4.61842 11.28648 4.45937 6.28527.10603 12.14033-3.18112 15.69235-8.300053 4.12932-5.578392 5.15492-11.870048 5.80288-18.608889.73044-7.345573.75934-14.779146 1.20113-22.142389.40056-1.631695 1.75581-1.914491 3.21078-2.108881 10.83869-.801121 21.58275-2.291617 32.40377-3.269456 11.2098-1.237024 22.44315-2.273335 33.67651-3.380767 3.25751-.217952 6.67412-.836856 9.92572-.695482 1.74951.02945 2.56862 1.731746 2.52738 3.292753.0118 15.33322.0239 30.631586-.12339 45.964807-.31809 9.030277-.34232 18.065907-.53671 27.096187-.58317 7.08639-.15835 14.17886-.7533 21.24758-.6892 19.04429-1.84399 38.11231-3.47568 57.09769-.45358 5.11304-1.05453 10.2084-1.73784 15.29198-.78934 5.60784-2.32081 11.42188-5.94353 15.90462-2.25609 2.67433-4.95432 5.05452-8.13524 6.57429-1.8143.86592-3.56975 1.79638-5.20144 2.98039 1.90855.0942 3.81133.10056 5.71399-.0173 8.69452-.64797 17.38317-.14212 26.06591-.91379.31809-4.54165 1.57289-9.63039 5.10135-12.78186 4.21177-3.82889 10.79211-4.17127 15.10991-.30114 4.04684 3.42832 4.97733 8.15312 5.36022 13.20725 5.37811-.0353 10.72035-.20034 16.08668.23557 5.34277.0294 10.692.2944 16.02888.16481-5.67264-2.83338-11.07419-4.83072-15.45679-9.70224-4.09396-4.6948-6.22114-11.34476-7.16363-17.41207-1.58457-10.02579-2.53819-20.18145-3.43945-30.28971-1.24291-13.91358-2.18566-27.90338-2.76294-41.85231-.68331-9.207-.8898-18.45584-1.202-27.6864-.64796-8.42355-.22943-16.888497-.87151-25.323831-.15904-13.736868-.26508-27.520207-.30632-41.262966-.10014-1.637585.68283-2.598158 2.15548-3.21078 2.12651-.253296 4.38292.08221 6.50353.329621 21.84233 2.303222 43.65522 5.013582 65.48576 7.46996 2.99243.483029 6.0849.530166 9.03609 1.189913 1.53155.559606 1.59696 2.90348 1.65587 4.258317-.006 7.286665.25881 14.638176 1.81982 21.818806 1.07208 4.659465 2.72723 9.077721 5.77267 12.824137 3.65806 4.66535 9.17777 7.904803 15.2333 7.698633 4.21178.14726 8.45278-1.30166 11.10355-4.682863 2.17952-2.827483 3.25148-6.574064 1.0484-9.725529-1.29004-1.932117-4.00526-2.485227-5.83135-.994905-1.24291 1.17223-1.38457 3.327765-2.492 4.570682-1.70238 1.348948-4.21752.636621-5.2955-1.171793-2.11472-3.669839-2.55681-8.506157-2.79832-12.647243-.51248-10.921162.86066-22.154459 1.82671-33.028497.96606-7.793256 1.62517-15.622144 2.72671-23.391838zm-271.52791 123.229747c-3.2414-.0548-6.49195-.006-9.74797.13116-7.074605.40645-14.084343 1.35454-20.964558 3.08049-.01178 11.22158.152949 22.44371.229527 33.6653.371108 6.86253.288574 13.73645.371043 20.61077.10014 1.61402-.80713 3.40489-2.621435 3.36955-1.17223.11192-1.896762-.53632-2.786242-1.16662-12.558749-9.72537-25.205247-19.3211-37.628511-29.22318.05891 7.42803.105352 14.86778.48235 22.28993.135484 7.55764.08893 15.09773.7369 22.63769 9.90209 8.22326 19.874434 16.34636 30.159416 24.09249 1.996908 1.41375 3.899695 3.37581 6.155789 4.33598 2.002805-.73043 3.847051-1.8848 5.796834-2.74482-1.513878 6.20279-3.670509 13.02367-3.18748 19.42086.117812 9.63112.754574 19.22721.736902 28.86423-.03534 2.34445.271021 4.85336-.235571 7.15069-.995506 1.99102-3.581544 2.49184-5.507764 1.73784-2.150069-1.28415-4.011411-3.11584-5.943528-4.71219-9.448511-7.93463-18.821062-15.95195-27.992718-24.20467.08247 4.09985.04727 8.24666.447835 12.32884.318092 4.12931.147139 8.27101.606606 12.39442.20617 5.30154.241342 10.59086.706699 15.8865 9.183437 7.40448 18.219914 14.99769 27.232521 22.60834 2.491724 2.03226 4.954501 4.09423 7.29307 6.29731 1.543337 1.44909 3.151347 2.73273 4.140968 4.6354 1.82019 3.58737 3.374654 7.2103 3.745762 11.25714.636185 6.85076.07733 14.02534-3.945954 19.83936-2.880498 4.16465-6.815878 6.51536-11.062995 9.05421-7.080496 4.48863-14.142949 7.28685-20.068884 13.43074-6.04375 6.11444-8.683252 14.66681-9.502045 23.04323-.624403 8.04067.783844 16.29373 4.229842 23.59807 2.709674 6.24992 7.16322 11.59265 12.176113 16.14019 4.141086 3.56381 8.853484 6.7037 13.454037 9.62543 5.378113 3.58738 10.2846 7.15681 13.441962 12.97083 1.614024 2.84516 2.374177 5.90837 3.069268 9.07751.936605-5.59017.412512-11.44497-2.032087-16.59924-2.332672-4.83029-5.726105-9.10686-9.873082-12.50573-3.281064-2.87461-7.00985-5.08355-10.196665-8.05241-2.70967-2.50939-5.272264-4.9192-7.245609-8.07656-2.279662-3.61683-4.075977-7.74607-4.676816-11.99318-.677418-6.2028 1.125397-13.10637 5.449092-17.73048 1.596352-1.79074 3.351292-3.4165 5.418892-4.65352 8.441225-5.3192 18.502235-4.90082 26.943459-10.73251 4.453288-2.86283 7.628363-7.48771 7.98769-12.84226.188499-3.46367-2.344335-6.138-2.373788-9.41317-.1885-4.47685 2.326916-9.10668 6.462115-11.00346 3.66984-1.83197 8.21733-1.66121 11.28044 1.25463 3.53436 3.3871 4.37054 7.99356 4.7122 12.67659 1.41374 12.85327.50732 26.43721-.27613 39.36118-1.49032 20.89393-3.55832 42.19994-3.21077 63.12922.5007 8.48835 1.2957 17.41852 3.59303 25.62412 2.06171 6.79774 4.3825 13.24825 8.42344 19.14474 4.3237 6.74473 10.02616 12.47633 17.142 16.24632-3.25161-3.86423-6.50904-7.53993-8.90062-12.02856-4.6359-8.55904-6.22676-17.63067-7.32241-27.19111-.39467-9.03028-.45343-18.17804.58331-27.17298 1.3136-14.86786 4.43024-29.28817 6.85127-43.97931 1.60225-10.80335 2.52084-21.60687 1.8552-32.52803-.32987-4.92453-1.72596-9.93758-2.95709-14.72074-.97784-3.72286-3.00969-7.89354-1.78444-11.76366 1.14866-4.17054 4.83544-7.26836 9.24749-7.14465 3.98204.38289 7.17534 2.71476 9.87913 5.5069 4.34725 4.60645 7.62225 10.48563 11.44525 15.68114 2.37391 3.46956 5.14834 6.60968 7.61061 10.00855-6.09677-2.09705-11.43921-7.23957-15.99264-11.65752-2.68022-2.49172-4.83663-5.37869-7.08684-8.24742-1.38429-1.66114-3.10972-3.72229-5.21266-4.42916-1.90856-.35344-2.45696 1.35421-3.38767 2.59123 1.53155 2.68611 3.56376 4.93064 5.53711 7.28099 5.384 6.43842 10.57961 12.51756 17.9134 16.82359 5.6373 3.60504 12.22945 5.53693 18.67965 7.1274 4.54754 1.13099 8.8711 3.04556 12.80602 5.57852 4.50041 2.98064 7.95769 7.32837 9.05334 12.6947 1.16045 5.31921-.98971 10.86216-4.79503 14.60858-4.92453 5.007-11.46858 6.06746-16.05735 11.62818-7.35146 8.29396-6.89196 21.51806-.40642 30.16545-1.64347-3.92902-2.52755-7.91736-1.82068-12.18215 1.04853-6.31472 4.58313-11.95755 9.66082-15.82179 5.2603-4.30013 11.21556-5.90827 17.22397-8.8359 5.23674-2.74501 9.96133-6.47405 12.99498-11.63421 3.41066-5.70799 4.4412-12.75285 2.33237-19.12059-1.54334-5.60195-5.15977-10.01999-9.60128-13.63092-4.79494-3.66396-10.39697-6.20316-15.22726-9.49601-3.49901-2.33268-6.82724-4.89434-9.75487-7.92211-6.67993-6.97446-12.62327-14.50265-18.40783-22.22522-6.56213-9.207-13.10673-19.17414-17.37152-29.67707-2.72735-6.5739-3.93537-13.6196-3.99428-20.71777-.27685-9.21288.0359-19.35653 3.08135-28.13941 1.92033-5.63141 5.46615-10.79095 9.67203-14.96149 3.85834-3.87012 7.78767-7.65204 12.07602-11.05092.10014-4.93631.74179-9.8201.59452-14.7682.17083-8.64739-.54811-17.24162-.58934-25.88902-6.39719 3.82889-12.59963 7.98826-18.91435 11.95263-2.17363 1.29004-4.5418 3.56962-7.21024 3.15728-1.54333-.0177-2.67992-1.29597-3.08048-2.68615-.78345-11.03308-.7714-22.01326-.90689-33.06991-.46536-11.18624-.43641-22.39637-.66614-33.5885-.36522-6.70939-.25319-13.46609-.33566-20.19314-9.48975-2.42987-19.13488-3.52453-28.85905-3.68882z" fill="#fcdb00" />
<path d="m4.01 4.015v341.79c.895 142.85 117.03 258.18 259.99 258.18 142.95 0 259.09-115.33 259.99-258.18v-341.79z" fill="none" stroke="#000" stroke-width="8"/>
</svg>
