<?xml version="1.0" encoding="UTF-8"?>
<svg width="600" height="689" version="1.1" xmlns="http://www.w3.org/2000/svg">
 <path d="M595.75 4.251v370.22c0 204.49-147.76 310.28-295.75 310.28S4.25 578.971 4.25 374.471V4.251z" fill="#0093dd" stroke="#000" stroke-width="8.501"/>
 <g stroke-width="1.333">
  <path d="M553.2 34.359c3.237 2.49 6.173 7.693 4.787 11.812-2.363 3.51-5.778 6.544-8.634 9.688-7.626 8.044-12.254 19.137-14.6 29.847-2.824 13.853-4.324 28.139-3.717 42.296 2.696-5.459 5.25-10.965 7.356-16.68 5.92-15.8 13.451-31.251 20.072-46.782 2.267-5.379 5.361-10.166 8.984-14.716 4.691 2.761 8.01 6.576 8.058 12.29.845 10.39-5.187 18.244-8.138 28.442-2.904 9.928-6.67 19.266-10.819 28.714-4.244 11.858-9.924 23-15.542 34.253-3.956 7.166-9.063 13.55-12.558 21.02-3.797 8.045-9.541 14.797-13.53 22.729-4.165 8.332-8.888 16.344-14.44 23.846-5.108 6.768-8.777 14.38-13.85 21.148-1.868 2.618-3.99 5.396-5.188 8.364.64 4.405 3.72 8.603 5.952 12.37 11.002 17.496 15.996 29.517 16.212 48.362.191 9.735-.198 18.952-8.074 27.693-17.055 17.18-38.267 11.617-49.576-7.088-6.367-10.182-3.702-21.356-4.74-33.28-11.551 5.477-17.327 14.974-26.472 23.274-5.027 4.564-9.78 9.385-14.567 14.189-7.26 7.278-16.82 9.944-22.084 19.345-1.148 3.91.336 8.458 1.468 12.24 3.67 11.11 6.287 22.57 9.303 33.87 1.181 5.411 3.128 11.955-.032 17.047-3.032 5.666-10.771 8.538-16.403 10.917-13.882 5.124-28.658 10.79-43.337 12.56-10.054 1.66-21.462.48-30.445-4.547-8.123-5.093-6.75-15.866-8.905-24.038-13.147 5.634-24.54 16.552-35.04 26.065-9.814 8.444-19.755 15.96-27.988 26.11-8.2 9.307-14.376 19.809-20.583 30.487-3.989 6.926-3.222 13.662-5.137 21.165-1.676 6.782-3.096 13.726-5.441 20.302-4.723 12.353-7.643 25.713-10.723 38.562-2.378 10.725-8.84 19.584-11.536 30.262-1.644 6.352-4.182 10.757-8.44 15.689-2.858-1.054-6.273-1.836-8.522-3.927-2.537-2.346-4.308-5.777-6-8.778-5.68-10.677-12.206-20.83-17.663-31.65-3.734-7.582-6.175-15.881-8.154-24.07-2.122-8.619-1.85-17.461-3.941-26.08-6.175-1.803-12.542-1.675-18.764-3.111-5.09-1.15-10.1-2.523-15.207-3.592-14.456-3.048-28.674-8.65-40.943-16.95-4.037-2.793-8.107-6.113-10.963-10.152-2.01-2.521-2.153-6.88-.893-9.736 6.91-6.832 15.846-12.05 24.876-15.594 8.33-3.272 15.11-7.884 23.694-10.166 6.798-1.804 13.66-3.192 20.33-5.475 11.12-3.782 22.402-5.666 33.987-7.373 6.142-.96 11.95-2.826 16.8-6.832 8.09-6.465 13.819-16.696 18.606-25.746 4.596-8.986 9.621-17.46 12.91-27.07-5.49-2.17-10.627-3.957-14.346-8.84-4.771-5.891-9.989-14.67-8.33-22.523 1.262-4.309 3.814-8.92 7.468-11.634 13.371-2.314 26.68-4.805 39.843-8.077 1.867-.493 3.431-1.165 4.5-2.825 3.653-5.49 6.191-11.714 9.446-17.461 4.595-8.044 6.319-17.078 10.627-25.234 2.121-4.15 3.941-8.412 5.536-12.785-8.632-1.627-17.008-.59-25.704-1.006-4.3-17.046-3.596-23.612-3.703-34.443-.206-9.353 2.267-17.845 2.968-27.119.623-10.006 2.985-19.376 4.533-29.27 2.28-22.467 6.853-42.53 14.552-56.423 12.318.926 24.334 7.342 35.263 12.752 9.701 4.87 19.88 8.652 29.614 13.472 6.32 3.048 12.063 6.88 18.734 9.194 10.323-7.996 18.54-18.498 28.498-26.99 8.696-7.342 17.775-14.205 26.63-21.356 8.106-6.592 17.2-11.3 25.8-17.158 8.043-5.443 16.676-9.832 24.86-15.082 7.387-4.678 15.095-8.81 23.2-12.13 9.446-3.8 17.776-9.402 27.446-12.69 8.297-2.809 16.643-5.49 24.827-8.635 13.118-5.139 26.633-9.05 39.667-14.396 5.106-1.852 11.25-4.263 16.26-.863z"/>
  <path d="M547.57 39.962c-26.695 7.277-52.976 15.88-78.442 26.765-22.147 10.486-43.961 20.861-64.481 34.413-6 5.09-12.987 8.22-19.594 12.337-12.511 8.762-25.115 16.968-36.126 27.678-7.02 5.697-13.5 11.953-19.723 18.529-3.543 3.783-13.232 13.37-13.232 13.37s-5.15-2.15-8.852-3.97c-5.266-3.031-10.864-5.043-15.667-8.858-17.836-8.786-40.757-22.245-56.121-24.773-8.671 11.25-11.07 54.43-15.158 71.06-2.636 17.432-9.616 39.23-2.172 60.865 6.223 1.26 13.04 2.324 19.358 2.182 5.744.254 9.073.26 15.334 2.09-2.755 5.777-14.867 22.965-18.796 36.854-1.724 4.053-3.56 8.028-5.826 11.812-3.429 6.56-5.87 13.408-11.01 19.186-2.154 2.25-6.144 2.346-9.016 3.335.022.008.043.015.063.024l-.45.095c-12.323 2.329-25.28 5.087-35.8 7.83-.463 5.443.7 11.333 2.472 16.454 1.834 3.113 4.961 6.577 8.12 8.317 4.533.303 9.113-.08 13.662.047.877.973 1.754 1.93 2.648 2.89-7.387 11.905-13.58 23.988-19.611 36.613-3.19 5.25-6.254 10.71-9.718 15.754-4.133 4.421-7.484 9.64-12.016 13.6-4.675 3.352-10.163 5.745-15.238 8.459-2.074 1.229-4.084.717-6.365.797-5.266-.128-10.627 2.043-15.827 2.841-21.862 2.57-43.962 13.2-63.924 22.122-4.627 2.523-10.802 4.534-14.138 8.683-.925 2.473-.78 4.293 1.183 6.161 4.1 4.247 9.444 8.124 14.63 10.916 14.697 6.067 29.68 10.6 45.54 12.212 8.489 2.73 16.02.99 24.797 1.261-.734 14.11 3.094 28.57 6.541 42.183 3.51 9.163 6.352 19.777 12.367 27.582 5.09 6.91 6.668 14.285 14.2 19.186 3.223-5.49 6.367-10.87 7.755-17.158 3.527-7.373 7.435-14.286 9.27-22.378 4.005-9.737 6.129-20 9.926-29.799 2.44-7.118 3.398-14.65 5.6-21.849 1.611-4.342.032-8.109.128-12.498 1.612-3.894 4.93-6.862 6.094-11.156 2.65-10.71 10.724-20.542 17.824-28.73 4.979-7.278 11.92-12.337 17.728-19.009 7.61-8.62 17.314-14.477 25.435-22.52 9.064-7.567 18.78-14.669 29.04-20.495 3.989-2.825 7.9-5.634 12.368-7.693-.32 7.485-1.932 14.733-2.97 22.122-.717 4.119 1.086 8.667 1.803 12.752 4.835 1.964 8.808 4.453 13.995 5.107 4.595.576 9.287.465 13.914.337 11.346-.877 20.854-5.076 31.657-7.758 5.92-1.755 11.17-6.304 16.658-9.208 2.17-1.23 4.085-2.075 4.037-4.933-.19-4.564-.333-9.464-1.833-13.805-3.224-8.955-4.468-18.434-7.787-27.39-2.666-7.15-5.379-14.652-2.506-22.203 13.483-11.556 28.339-21.802 41.249-34.045 3.254-4.406 7.977-6.736 11.775-10.55 6.826-6.804 15.17-15.316 23.312-21.93.994 8.151 2.057 10.677 2.87 16.456 1.42 10.066 1.72 38.953 16.275 41.466 7.947.542 18.164-.62 23.472-6.799 6.618-7.706 6.543-20.254 3.959-30.214-.67-18.754-11.696-35.251-19.404-52.176 6.547-12.965 14.879-24.452 22.93-38.386-23.419 4.288-39.377 1.245-52.689-23.08-11.355-12-25.179-27.167-28.113-39.711-2.301-9.841-.768-19.648 1.29-29.479 2.665 7.61 6.411 15.525 21.255 33.263 7.706 8.364 16.69 17.23 26.743 22.594 20.31 10.922 29.362 7.099 46.242-1.159 3.91-8.938 6.317-17.862 7.866-27.486 1.914-7.022 1.244-14.204 2.872-21.306 1.404-18.228 2.777-35.85 8.12-53.47 4.15-12.083 10.42-21.054 19.772-29.672-.511-.989-1.02-1.977-1.547-2.95zm17.918 23.685c-3.32 4.757-3.127 10.422-5.856 15.402-4.307 7.805-7.036 16.264-11.01 24.244-3.303 6.384-5.33 13.168-9.207 19.281-4.77 7.837-6.59 16.073-12.159 22.984-2.824 3.208-2.201 7.247-3.19 11.301-.24 3.016-2.3 6.4 1.003 8.332 6.75-18.068 17.76-32.034 24.223-50.086 4.118-11.024 11.336-21.326 14.04-33.982 1.278-5.713 6.113-11.841 2.155-17.476zm-100.92 12.154c.78.008 1.628.08 2.563.23 12.212.273 24.339 9.894 23.156 26.626-2.114 13.98-14.89 24.43-28.36 23.429-6.16-.894-11.79-1.5-16.146-6.464-5.28-4.805-6.303-11.013-7.595-17.7-1.181-5.97 2.473-12.434 6.19-16.84 3.623-2.874 7.965-4.901 12.017-7.103 2.67-1.064 4.797-2.214 8.176-2.178zm1.07 8.139a30.167 30.166 0 0 0-4.651.297c-4.665.661-9 3.75-12.19 7.149-3.223 8.556-.352 20.894 8.6 24.821 11.307 2.704 18.226 2.016 23.198-9.15 2.776-5.236 1.84-13.776-2.247-18.416-2.959-3.362-7.92-4.631-12.71-4.702zm-1.647 6.293c1.806.02 3.592.377 5.135 1.169 3.03 1.557 5.656 4.739 6.206 8.125.488 2.995-.552 6.541-2.697 8.681-2.352 2.348-6.364 3.963-9.526 2.938-4.773-1.547-9.924-6.895-9.046-12.034-.383-3.176 1.86-7.076 4.658-8.027a16.051 16.05 0 0 1 5.27-.853zm-42.33 55.342c3.098 13.02 21.895 35.687 35.464 42.359 6.653 2.586 13.278 4.725 20.458 3.065-13.814-5.463-23.568-12.066-32.983-22.297-6.844-6.624-16.294-15.192-22.938-23.129zm99.115 22.3a1.93 1.93 0 0 0-.708.162c-1.342 1.628.942 6.75 3.336 5.521 1.36-1.648-.387-5.748-2.627-5.682zm-8.792 15.145c-4.009 4.676-7.5 7.358-12.431 9.863-9.047 4.358-18.667 5.54-28.53 7.104-6.016 1.196-9.753-.634-15.893-2.65 5.01 4.1 9.336 7.916 16.118 8.442 6.222.24 12.676.363 18.764-1.077 12.42-2.94 20.09-8.667 21.97-21.682zm-207.2.693a8.419 8.419 0 0 1 1.745.184c2.137 3.56-2.633 6.13-4.39 8.875a469.76 469.74 0 0 1-3.238-4.564c1.697-2.587 3.041-4.467 5.884-4.494zm127.69 11.166c3.54 4.645 6.32 9.784 9.702 14.508 3.766 4.948 7.817 10.15 10.338 15.865-.446 5.57-1.77 11.205-2.648 16.76-4.101 9.193-8.328 18.322-12.27 27.595-9.472 14.429-30.947 42.239-47.694 44.246-4.58-1.293-9.446-2.713-13.643-4.98-3.256-2.538-6.91-6.4-9.238-9.817-1.356-3.463-2.776-6.896-4.165-10.344.751-10.757 5.665-19.454 10.595-28.823 9.347-15.262 22.134-33.886 34.066-44.182 5.17-4.437 8.65-10.421 13.98-14.572 3.59-2.793 6.093-5.984 10.977-6.256zm-142.33.813c4.02.24 7.529.143 8.614 4.804-3.016.24-5.997.352-9.013.32.096-1.724.222-3.43.398-5.122zm141.44 6.912c-20.04 18.338-38.678 36.294-51.777 60.491-3.225 6.496-6.703 12.114-7.007 19.617-.16 5.635.494 12.513 5.347 16.184 5.68 5.172 14.6 7.455 21.318 2.842 9.924-6.384 18.044-16.616 24.73-26.225 7.546-12.848 13.835-26.367 18.319-40.604 1.02-3.847 2.76-8.155.589-11.937-3.527-6.832-5.967-15.053-11.52-20.368zm-145.23 5.955c1.528.013 2.765.381 3.702 2.457a47.445 47.443 0 0 1-7.561 2.984 17.073 17.073 0 0 1 .796-5.379c1.125.048 2.146-.072 3.062-.062zm-8.106 11.697c-.16 1.772-.35 3.544-.525 5.316-1.388.128-2.776.256-4.164.366-.208-1.356-.416-2.73-.623-4.102 1.77-.543 3.541-1.07 5.312-1.58zm-6.733 9.197c.584.005 1.265.15 2.06.461a309.58 309.57 0 0 1-1.022 7.724c-1.836.048-3.672.08-5.507.112.851-3.197.888-8.327 4.467-8.297zm-8.346 17.714.05 6.496-4.149.43a82.782 82.778 0 0 1-2.586-3.624c1.293-3.335 3.782-2.552 6.686-3.302zm206.29 8.689c-.128 3.96-.208 6.163-3 9.227-1.93-2.586-1.85-5.06-1.787-8.11a69.437 69.435 0 0 1 4.787-1.117zm-212.38 3.712c.048 1.213.097 2.427.13 3.623-1.342-.08-2.682-.176-4.022-.272a43.99 43.988 0 0 1-2.028-3.223c1.979-.048 3.941-.097 5.92-.13zm200.07 4.573c3.223 1.548 2.952 4.373 4.036 7.343-1.34.653-2.679 1.324-4.019 1.978-.016-3.113-.033-6.208-.017-9.32zm-3.877 9.23c-.415 4.422-.207 5.333-4.563 7.311.99-3.48.08-6.704 4.563-7.31zm-242.82 70.405c1.373.533 2.744 1.07 4.114 1.614-.064 1.294-.112 2.584-.176 3.877a221.19 221.18 0 0 0-8.218 3.048c-.718-1.324-1.435-2.649-2.17-3.973.935-1.356 1.148-3.874 2.783-4.088l3.667-.48zm149.12 15.229c-.096 2.489-.21 4.98-.32 7.47-1.66.75-3.337 1.499-4.995 2.265-1.214-3.351-.192-6.177.765-9.449a107.02 107.01 0 0 1 4.548-.286zm-10.246 6.433c-.127 3.958-.207 6.16-3 9.224-1.931-2.586-1.851-5.059-1.787-8.107a69.437 69.435 0 0 1 4.787-1.117zm-12.271 6.462a1215.9 1215.9 0 0 1 3.305 4.724c-1.213 1.854-2.41 3.704-3.624 5.54-3.08-2.522-1.547-7.454.32-10.264zm-5.615 6.274c-.304 4.389-.799 6.431-3.846 9.751-2.122-3.622-2.282-5.234-1.516-9.273l5.36-.478zm-13.118 5.042c4.133 1.245 3.288 3.305 3.703 6.848-1.5.973-3.015 1.964-4.515 2.953-.847-3.766-.991-6.24.813-9.8zm-5.568 5.588c.064 2.603.158 5.3-.16 7.885-1.436 2.698-3.686 2.122-6.254 2.824.08-3.718-.784-6.942 1.45-10.2a73.587 73.584 0 0 1 4.964-.508zm-173.41 69.429c1.786 1.501 3.478 3.08 5.187 4.645-2.762.926-5.52 1.804-8.266 2.778l-2.187-2.954c1.723-1.516 3.463-3.032 5.266-4.469zm-.287 11.093c1.26.592 2.52 1.215 3.765 1.837-1.882 3.208-4.324 5.794-7.084 8.252-.51-2.553-.845-5.076-.701-7.677a86.366 86.362 0 0 1 4.02-2.41zm4.388 10.71c-.941 3-1.867 5.715-4.068 8.044-1.26-1.803-3.08-2.665-2.697-5.09 2.186-1.102 4.484-2.029 6.765-2.954zm5.967 9.912a176.92 176.92 0 0 1-2.328 6.336c-1.58-.367-3.176-.718-4.77-1.068a115.54 115.54 0 0 1 2.12-5.028 85.251 85.248 0 0 1 4.978-.24zm5.117 5.609c1.03.012 2.18.424 3.39 1.365-.288 3.464-4.054 7.646-7.707 5.858-.767-3.687 1.23-7.258 4.317-7.223zm12.244 5.148c-.08 2.603-.16 5.188-.286 7.773a918.1 918.06 0 0 0-6.862.56c.367-2.73-.767-6.29 2.36-7.645 1.55-.415 3.146-.64 4.788-.688zm10.155 1.8c.324 0 .667.013 1.031.036a143.8 143.79 0 0 1-3.845 8.268c-1.836-.574-3.671-1.182-5.507-1.772 2.693-3.77 3.45-6.517 8.32-6.53zm7.106.417c1.43-.007 2.86.054 4.296.114-.303 3.16-.767 5.362-2.697 7.98-1.42-.287-2.84-.574-4.26-.846-.015-2.379-.063-4.773.08-7.15.862-.067 1.72-.094 2.58-.098z" fill="#fff"/>
  <path d="M206.19 353.93c-4.07 1.613-6.113 3.43-8.603 6.99 2.299 1.454 4.07 2.587 6.862 1.724 3.048-1.468 4.63-4.005 6.608-6.591a192.964 192.964 0 0 0-4.867-2.123zm-7.516 12.564c-1.634 0-3.318.212-4.867.219-.655 2.681.367 4.757 1.294 7.2 4.737 0 6.221-2.285 9.221-5.444-1.533-1.616-3.55-1.974-5.648-1.974z"/>
 </g>
 <path d="m134.81 30.481-23.523 84.256-85.424-5.656 72.841 48.415-31.774 79.518 68.54-54.335 65.786 54.8-30.48-81.992 72.433-45.65-87.379 3.659c-6.9874-27.675-14.049-55.34-21.02-83.015zm292.56 349.54-23.523 84.254-85.424-5.654 72.839 48.413-31.774 79.518 68.542-54.333 65.786 54.8-30.481-81.994 72.433-45.649-87.379 3.658c-7.012-27.669-14.006-55.345-21.021-83.013z" fill="#fcdb00" stroke="none" />
 <path d="m134.95 19.395-2.8809 10.322-22.902 82.029-93.777-6.209 79.814 53.049-34.883 87.297 75.104-59.537 72.221 60.16-33.398-89.844 79.516-50.115-95.744 4.0098c-6.8036-26.931-13.67-53.85-20.451-80.771zm-0.27539 22.148c6.1189 24.221 12.283 48.436 18.396 72.65l0.5664 2.2422 79.014-3.3086-65.348 41.186 27.562 74.143-59.354-49.441-61.975 49.131 28.664-71.738-65.867-43.781 77.07 5.1035zm292.84 327.39-2.8828 10.322-22.9 82.027-93.777-6.207 79.811 53.049-34.881 87.295 75.105-59.535 72.221 60.16-33.4-89.846 79.518-50.113-95.746 4.0098c-6.8035-26.931-13.669-53.849-20.449-80.77zm-0.27735 22.146c6.1187 24.222 12.282 48.435 18.396 72.65l0.56641 2.2422 79.016-3.3066-65.35 41.184 27.562 74.145-59.352-49.441-61.979 49.131 28.666-71.74-65.867-43.779 77.07 5.1016z" color="#000000" style="-inkscape-stroke:none"/>
</svg>
