<?xml version="1.0" encoding="utf-8" standalone="no"?>
<!DOCTYPE svg PUBLIC "-//W3C//DTD SVG 1.1//EN" "http://www.w3.org/Graphics/SVG/1.1/DTD/svg11.dtd">
<svg version="1.1"
   xmlns="http://www.w3.org/2000/svg"
   xmlns:xlink="http://www.w3.org/1999/xlink"
   width="520" height="585" viewBox="0,0 100,112.5">
  <title>Wappen von Schötz</title>
  <desc>Wappen der Schweizer Gemeinde Schötz, Kanton Luzern</desc>
  <g stroke="black" stroke-width="1" fill="white">
    <path d="M 1,1 V 62.5 a 49,49 0 0,0 98,0 V 1 z" stroke-width="2" fill="#0093dd" />
    <path d="M 46,20 a 5,5 0 1,1 0,-8 5,5 0 1,1 8,0 5,5 0 1,1 0,8 v 26 h 26 a 5,5 0 1,1 8,0 5,5 0 1,1 0,8 5,5 0 1,1 -8,0 H 54 V 92 a 5,5 0 1,1 0,8 5,5 0 1,1 -8,0 5,5 0 1,1 0,-8 V 54 H 20 a 5,5 0 1,1 -8,0 5,5 0 1,1 0,-8 5,5 0 1,1 8,0 h 26 z" />
    <path id="stern" d="M 15.5,14 L 19,6 22.5,14 31.2,13 26,20 31.2,27 22.5,26 19,34 15.5,26 6.8,27 12,20 6.8,13 z" />
    <use x="62" xlink:href="#stern" />
    <use x="5.5" y="59.5" xlink:href="#stern" />
    <use x="56.5" y="59.5" xlink:href="#stern" />
  </g>
</svg>

