<?xml version="1.0" encoding="UTF-8" standalone="no"?>
<!-- Created with Inkscape (http://www.inkscape.org/) -->
<svg
   xmlns:svg="http://www.w3.org/2000/svg"
   xmlns="http://www.w3.org/2000/svg"
   xmlns:xlink="http://www.w3.org/1999/xlink"
   version="1.0"
   width="218.61086"
   height="256.06854"
   id="svg2780">
  <defs
     id="defs2782" />
  <g
     transform="translate(-16.716536,-801.80041)"
     id="layer1">
    <path
       d="M 17.716536,802.80041 L 21.654911,968.2404 C 24.468028,1086.4118 227.57589,1086.4118 230.38901,968.2404 L 234.32739,802.80041 L 17.716536,802.80041 z"
       id="path3282"
       style="fill:#ffffff;fill-opacity:1;fill-rule:evenodd;stroke:none;stroke-width:2;stroke-linecap:butt;stroke-miterlimit:4;stroke-dashoffset:0;stroke-opacity:1" />
    <g
       id="g4531">
      <rect
         width="11.684775"
         height="76.557411"
         x="53.649605"
         y="932.66333"
         id="rect4524"
         style="opacity:1;fill:#bf3323;fill-opacity:1;fill-rule:evenodd;stroke:#000000;stroke-width:1.00000012px;stroke-linecap:butt;stroke-linejoin:miter;marker:none;marker-start:none;marker-mid:none;marker-end:none;stroke-miterlimit:4;stroke-dasharray:none;stroke-dashoffset:0;stroke-opacity:1;visibility:visible;display:inline;overflow:visible;enable-background:accumulate" />
      <path
         d="M 61.532254,815.73385 C 63.319556,823.79898 65.861317,830.59269 74.982407,830.73286 C 75.899479,835.34543 76.056331,838.20695 75.563053,839.76376 C 73.911988,839.32491 72.159139,838.17358 70.27306,836.08963 C 70.358666,837.31178 70.59545,839.52139 70.449393,840.51188 C 68.103789,840.6556 66.674462,837.91323 64.983067,836.53046 C 66.952821,842.80934 70.383344,847.02986 77.502717,846.05245 C 77.695915,849.59424 78.704546,853.29912 77.855384,856.63244 C 75.519615,856.05487 73.971551,854.49268 72.56539,852.75311 C 72.847245,854.18791 72.749299,855.81261 72.56539,857.48029 C 69.90643,855.64803 67.158386,853.5439 65.335733,849.57911 C 66.848111,860.3528 71.584679,863.60339 78.737049,861.2171 C 79.189109,864.76192 79.938182,868.00973 79.971381,871.97342 C 77.855384,871.80392 75.739386,870.04845 73.623389,868.27042 C 73.705025,869.64027 73.975663,870.91561 73.623389,872.50242 C 70.708382,869.27454 67.479312,868.73566 64.983067,864.03843 C 68.773098,875.75735 74.794463,878.26409 81.382046,878.32141 C 81.950302,881.89709 82.207988,886.90448 81.558379,890.66472 L 76.444719,885.02207 C 76.571978,887.02051 76.818162,889.01895 76.092053,891.01739 C 72.661012,890.00058 69.403045,887.77225 66.673057,881.84807 C 69.855727,894.02994 73.783929,899.15126 83.674376,900.01038 C 84.18704,904.52648 84.785687,909.02108 84.389592,913.76437 C 81.886122,913.28386 79.775392,910.76753 77.502717,908.20987 C 77.70645,909.92356 77.803608,911.925 77.326384,913.4117 C 69.423985,910.01149 68.175829,904.71006 66.673057,899.48138 C 69.471406,915.08195 75.472284,923.07651 85.790373,920.81769 C 86.094081,925.84318 86.466894,930.86867 86.319373,935.89417 C 83.508669,935.54433 81.697641,933.13613 79.795048,930.51601 C 79.77155,932.5458 80.105367,934.6947 79.442382,936.51133 C 74.172859,933.90809 69.809805,927.45236 65.459421,920.94279 C 70.559851,933.9141 74.888049,946.9325 87.154843,943.88507 C 87.425145,948.81557 87.853742,954.09513 86.729137,958.90535 C 84.433648,957.53271 83.029306,955.64781 81.419272,953.36123 C 81.564482,956.20503 81.232136,958.57127 80.436908,960.47462 C 76.193715,956.24659 74.426253,953.68966 73.189974,950.61813 C 72.946145,952.92745 72.595943,954.81127 71.885198,955.25292 C 66.535017,949.82787 63.028555,943.05383 59.911332,935.53109 C 56.794108,943.05383 53.287646,949.82787 47.937465,955.25292 C 47.22672,954.81127 46.876518,952.92745 46.632689,950.61813 C 45.39641,953.68966 43.628948,956.24659 39.385755,960.47462 C 38.590527,958.57127 38.258181,956.20503 38.403391,953.36123 C 36.793357,955.64781 35.389015,957.53271 33.093526,958.90535 C 31.968921,954.09513 32.397518,948.81557 32.66782,943.88507 C 44.934614,946.9325 49.262812,933.9141 54.363242,920.94279 C 50.012858,927.45236 45.649804,933.90809 40.380281,936.51133 C 39.717296,934.6947 40.051113,932.5458 40.027615,930.51601 C 38.125022,933.13613 36.313994,935.54433 33.50329,935.89417 C 33.355769,930.86867 33.728582,925.84318 34.03229,920.81769 C 44.350379,923.07651 50.351257,915.08195 53.149606,899.48138 C 51.646834,904.71006 50.398678,910.01149 42.496279,913.4117 C 42.019055,911.925 42.116213,909.92356 42.319946,908.20987 C 40.047271,910.76753 37.936541,913.28386 35.433071,913.76437 C 35.036976,909.02108 35.635623,904.52648 36.148287,900.01038 C 46.038734,899.15126 49.966936,894.02994 53.149606,881.84807 C 50.419618,887.77225 47.161651,890.00058 43.73061,891.01739 C 43.004501,889.01895 43.250685,887.02051 43.377944,885.02207 L 38.264284,890.66472 C 37.614675,886.90448 37.872361,881.89709 38.440617,878.32141 C 45.0282,878.26409 51.049565,875.75735 54.839596,864.03843 C 52.343351,868.73566 49.114281,869.27454 46.199274,872.50242 C 45.847,870.91561 46.117638,869.64027 46.199274,868.27042 C 44.083277,870.04845 41.967279,871.80392 39.851282,871.97342 C 39.884481,868.00973 40.633554,864.76192 41.085614,861.2171 C 48.237984,863.60339 52.974552,860.3528 54.48693,849.57911 C 52.664277,853.5439 49.916233,855.64803 47.257273,857.48029 C 47.073364,855.81261 46.975418,854.18791 47.257273,852.75311 C 45.851112,854.49268 44.303048,856.05487 41.967279,856.63244 C 41.118117,853.29912 42.126748,849.59424 42.319946,846.05245 C 49.439319,847.02986 52.869842,842.80934 54.839596,836.53046 C 53.148201,837.91323 51.718874,840.6556 49.37327,840.51188 C 49.227213,839.52139 49.463997,837.31178 49.549603,836.08963 C 47.663524,838.17358 45.910675,839.32491 44.25961,839.76376 C 43.766332,838.20695 44.04787,834.97137 44.964942,830.3588 C 55.208209,829.71989 59.744952,823.79898 61.532254,815.73385 z"
         id="path3987"
         style="fill:#2a5936;fill-opacity:1;fill-rule:evenodd;stroke:#000000;stroke-width:1px;stroke-linecap:butt;stroke-linejoin:miter;stroke-opacity:1" />
    </g>
    <use
       transform="translate(64.405899,1.2343317)"
       id="use4535"
       x="0"
       y="0"
       width="248.03149"
       height="248.03149"
       xlink:href="#g4531" />
    <use
       transform="translate(128.82237,-0.7481211)"
       id="use4537"
       x="0"
       y="0"
       width="248.03149"
       height="248.03149"
       xlink:href="#g4531" />
    <path
       d="M 30.09375,200.28125 C 63.807777,269.96665 188.22204,269.96555 221.9375,200.28125 L 30.09375,200.28125 z"
       transform="translate(0,804.33069)"
       id="rect4526"
       style="opacity:1;fill:#2a5936;fill-opacity:1;fill-rule:evenodd;stroke:#000000;stroke-width:1.00000012px;stroke-linecap:butt;stroke-linejoin:miter;marker:none;marker-start:none;marker-mid:none;marker-end:none;stroke-miterlimit:4;stroke-dasharray:none;stroke-dashoffset:0;stroke-opacity:1;visibility:visible;display:inline;overflow:visible;enable-background:accumulate" />
    <path
       d="M 17.716536,802.80041 L 21.654911,968.2404 C 24.468028,1086.4118 227.57589,1086.4118 230.38901,968.2404 L 234.32739,802.80041 L 17.716536,802.80041 z"
       id="path4756"
       style="fill:none;fill-opacity:1;fill-rule:evenodd;stroke:#000000;stroke-width:2;stroke-linecap:butt;stroke-miterlimit:4;stroke-dashoffset:0;stroke-opacity:1" />
  </g>
</svg>
