<?xml version="1.0" encoding="UTF-8"?>
<svg width="872" height="920"  xmlns="http://www.w3.org/2000/svg">
 <path d="M435.52 5H5v479.26c0 237.86 192.66 430.52 430.52 430.52V4.99z" fill="#fcdb00"/>
 <path d="M435.52 5v909.79c237.86 0 430.52-192.66 430.52-430.52V5.01H435.52z" fill="#f00000"/>
 <path d="M655.1 5.01 435.52 235.6v221.35L865.89 5.01zm210.94 231.96-430.52 452.1v221.35l430.52-452.1z" fill="#fff"/>
 <path d="M418.12 61.992c-.474-.06-1.067-.043-1.793.025a327.08 327.08 0 0 1-22.969 2.463c-35.903 3.283-71.542-.275-107.18-1.369-11.88-.547-24.023-.82-35.639 3.557-6.864 2.462-12.144 6.291-14.52 13.678 15.84 13.404 25.87 31.186 34.582 49.787 6.336 13.404 11.088 27.353 12.672 42.125.264 3.009.792 6.018 0 9.027 5.016 3.83 10.298 7.387 15.312 11.217 14.52 11.49 26.66 24.345 29.828 44.041 2.376 14.772 1.32 28.996-3.432 43.494 5.28.82 10.296 1.642 15.576 2.463 2.64.274 3.961 1.64 3.961 4.924.264 14.772-6.335 26.26-17.424 34.467-17.952 13.404-37.224 12.582-56.496 3.281-.792-.273-2.375-.272-2.375-2.187 1.848-1.095 3.698-2.19 5.282-3.557 32.207-23.252 33.526-62.915 2.902-88.629-8.712-7.112-18.742-12.31-28.773-17.508-30.887-16.139-63.625-28.449-95.041-43.494-24.023-11.489-47.517-24.072-67.316-42.947-6.072-6.018-11.617-12.583-16.896-19.969-9.504 22.705-10.821 44.862-1.319 67.293 9.504 22.431 25.607 39.39 43.822 54.162 27.454 22.158 58.341 38.57 90.02 53.068 1.85.82 3.962 1.916 5.81 2.736-26.4-.82-51.48-6.84-75.767-16.96-33-13.679-62.303-32.826-84.215-63.19-.528 1.095-.793 1.367-.793 1.914-8.448 32.552-.527 60.455 21.648 84.254 20.064 21.884 45.67 35.29 72.598 45.684 23.496 9.301 48.048 15.045 72.863 19.148-29.567 7.386-59.134 5.47-88.438-1.916-29.04-7.112-56.496-18.326-78.672-41.578 3.96 47.324 27.192 79.33 68.11 97.383 45.81 16.648 90.068 15.846 130.94 15.594-59.398 27.628-117.74 18.328-176.08-4.923.265.82.265 1.095.265 1.369 11.088 31.73 33.262 51.974 63.094 63.463 40.655 15.866 82.633 15.319 124.87 9.299 16.368-2.188 32.207-6.29 48.047-10.395.505-.19.983-.321 1.845-.547-2.59 4.466-15.049 13.386-21.646 16.959-34.319 18.875-71.015 22.704-109.03 20.242-12.144-.821-24.288-2.736-36.695-5.471 1.584 4.377 3.699 7.659 6.075 10.668 10.032 13.13 22.968 21.884 38.016 27.629 35.375 13.404 72.069 15.045 109.29 10.395 26.928-3.283 52.537-11.213 76.56-24.07 2.113-1.368 3.169-1.094 3.96 1.64 3.168 9.576 2.113 18.328-3.166 26.808-5.016 8.207-11.88 14.225-19.008 19.97-15.84 12.584-33.266 22.43-50.426 32.554-9.24 5.197-18.741 10.396-27.453 16.688 7.39 7.112 15.312 14.227 20.062 23.8 3.167 6.566 2.639 9.848-2.641 14.499 6.6 7.659 14.52 6.015 22.176 2.732 11.352-4.924 22.439-10.121 33.79-15.592 13.2-6.292 26.4-12.583 39.864-19.148 2.112 17.507 1.583 34.468-1.057 51.154-3.432 21.337-10.032 41.579-23.76 58.539-18.48 22.978-43.294 31.459-71.277 32.279-7.656 0-15.049-.547-23.232-1.367 4.224 12.036 11.616 20.242 21.121 26.26 20.327 13.13 42.767 15.046 66 12.584 10.295-1.095 20.062-4.377 30.094-8.754-1.32 19.148 1.848 36.929 9.768 53.615 8.976 19.422 22.439 34.467 41.71 43.494.265-2.462.267-4.65.267-7.111v-300.63c0-2.462.261-4.65.261-7.114 0-1.64-.261-3.281-.261-4.923v-306.65c0-1.64.261-3.281.261-4.922-.264-15.32-.263-30.912-.527-46.23-.792-3.557-1.318-7.112-1.318-10.121-6.072-30.09-17.16-57.72-39.336-79.604-5.016-5.198-10.822-9.3-17.158-13.402 11.088-3.283 22.175-3.557 34.055-4.924-12.144-15.866-28.247-22.432-46.727-27.631 15.312-1.914 29.038-4.65 40.918-13.13 6.6-4.923 11.354-10.941 12.938-19.147.396-2.257.048-3.13-1.375-3.309v-.002zm-305.65 108.9.02.012-.002-.012c5.028 2.857 9.752 5.6 14.428 8.314 2.928 1.67 5.84 3.343 8.785 4.817 29.567 16.413 60.72 29.543 91.344 43.768 9.768 4.377 19.269 9.3 27.453 16.412 3.853 3.053 7.353 6.601 8.478 11.5.206.727.374 1.478.465 2.281.003.061.033.108.035.17.002.042-.004.058-.002.1.006.058.017.114.022.173.264 5.472-.53 6.018-5.545 4.924-18.48-4.377-36.168-11.489-53.328-19.969-25.344-12.31-49.367-26.808-71.28-44.863-5.807-4.65-11.087-9.846-15.84-15.865-1.191-1.646-2.384-3.295-3.31-5.183-.01-.023-.018-.048-.029-.07a17.054 17.054 0 0 1-1.178-3.233 16.698 16.698 0 0 1-.465-2.947c-.008-.118-.044-.209-.05-.329z"/>
 <path d="M191.477 74.548c-5.832.002-11.657.578-17.432 2.253-14.52 4.104-19.008 21.064-8.448 32.826 2.64-3.556 6.599-4.923 10.823-5.744 8.448-1.64 16.896-1.094 25.344.274 19.272 3.01 38.016 8.48 54.384 20.242 6.845 5.293 9.444 9.118 12.936 15.045-.314.25-.629.133-1.319 0-13.728-2.735-27.456-4.923-41.448-2.734-6.6 1.094-13.2 2.46-18.48 6.838-3.696 3.009-3.697 4.651.527 6.84 5.016 2.461 10.033 4.923 15.313 6.837 20.064 7.933 40.92 13.13 59.928 23.8.792-3.01.264-6.02 0-9.028-1.584-14.772-6.336-28.723-12.672-42.127-8.976-18.601-18.745-36.382-34.584-49.786-7.656-1.094-15.048-2.736-22.44-3.83-7.425-.77-14.934-1.711-22.432-1.707zm1.863 41.347c-4.671-.025-9.363.334-14.016.847-12.936 1.368-25.607 3.008-38.544 3.555-11.352.274-22.439-.819-34.056-4.375 1.848 4.377 4.75 6.837 7.655 9.026 8.712 6.565 18.216 10.942 28.512 13.13 18.48 4.104 36.432.823 54.384-3.007 9.24-2.189 18.216-4.65 26.928-9.575-2.376-2.735-5.28-4.104-7.92-5.199-7.425-3.248-15.158-4.36-22.944-4.402zM273.528 636.474c7.656 7.112 15.312 13.951 20.064 23.799 3.432 6.839 2.64 10.121-2.64 14.498-2.904 1.915-6.072 3.556-8.976 5.47-9.768 6.84-10.824 11.49-5.28 22.158 3.432 6.566 6.6 13.404 8.184 21.064 3.96 19.695-6.336 34.74-24.816 36.656-2.64.273-5.28 0-7.92-.821.264-.547.264-1.094.792-1.368 10.824-12.857 7.392-27.902-6.336-36.93-18.744-12.309-38.544-12.856-58.08-2.461-15.576 8.48-17.952 21.61-8.184 39.665-15.312 4.376-31.152-9.027-32.208-27.082-.792-14.771 5.544-25.713 16.632-34.194 9.504-7.112 20.592-10.394 33.264-12.583-12.144-4.103-23.232-5.197-34.584-5.197-12.936 0-25.872 1.367-37.752 6.838-11.352 5.198-14.784 10.942-14.52 23.252-12.144-3.83-18.216-16.96-13.464-30.09 3.168-9.027 9.504-15.046 17.424-19.422 14.256-7.933 29.568-10.395 45.408-10.942 12.408-.547 24.816 1.094 36.96 2.735.264.547.792.547 1.32.274-.264-.274-.528-.274-.792-.547-12.144-13.678-27.72-20.79-44.616-24.893-4.224-1.095-8.712-1.368-12.936-1.095-7.392.274-13.992 2.736-18.216 9.575-7.92-8.207-7.92-19.149-.264-27.082 9.24-9.574 20.856-11.215 33-10.121 27.192 2.462 49.896 15.045 69.96 33.1 1.848 1.64 4.224 3.282 5.808 5.197 10.032 10.668 21.384 11.489 33.792 4.65 2.376-1.368 5.808-2.735 8.976-4.103z" fill="#f00000"/>
 <path d="M277.036 93.078c-.237.395-.32 1.005-.223 1.914.792 9.027 7.921 18.602 16.369 21.338 14.784 4.924 31.943-4.378 38.28-20.79-3.014 0-5.962.067-8.845.068a73.453 18.198 0 0 1-.066 0 73.453 18.198 0 0 1-7.635.115 73.453 18.198 0 0 1-3.457-.053l-1.379-.072a9.486 9.486 0 0 1 .348 2.52 9.486 9.486 0 0 1-9.487 9.484 9.486 9.486 0 0 1-9.486-9.485 9.486 9.486 0 0 1 .707-3.45l-3.474-.182a73.453 18.198 0 0 1-11.653-1.407z" fill="#fff"/>
 <path d="m5.48 5.11v479.26c0 237.86 192.66 430.52 430.52 430.52s430.52-192.66 430.52-430.52v-479.26z" fill="none" stroke="#000" stroke-width="10"/>
</svg>
