<?xml version="1.0" encoding="UTF-8"?>
<svg width="1817.6" height="2106" version="1.1" xmlns="http://www.w3.org/2000/svg">
 <path class="st0" d="M11 11v1186.2c0 496.03 401.76 897.79 897.79 897.79s897.79-401.76 897.79-897.79V11z" fill="#094" stroke="#000300" stroke-width="22"/>
 <g transform="translate(4)">
  <g fill="#fff">
   <path d="m924.53 1309.8 77.753-16.121s-27.489 43.174-37.542 66.588c-21.946 51.112-48.954 159.53-48.954 159.53l-10.092-162.46z" stroke="#000" stroke-width="18"/>
   <path d="m846.55 1125.3 8.486 148.54s9.307 92.107 9.844 139.36c0.822 72.306-0.912 143.75-2.24 215.61-1.126 60.928-3.768 121.82-4.858 182.75-0.984 55.03-1.517 165.11-1.517 165.11l3.438 81.42c28.215 7.15 61.443 12.286 73.914 9.493 0 0-8.63-120.59-11.207-198.46s1.93-250.85 1.93-250.85l11.77-248.89 14.421-199.72-5.265-53.432c-29.99 5.922-70.602-1.172-98.716 9.069z" stroke="#000" stroke-width="20"/>
   <path d="m887.2 1677.9s7.324-31.149-2.801-44.99c-23.621 1.88-95.538-11.072-95.538-11.072s28.345 28.008 41.032 45.502c11.932 16.453 26.357 49.738 37.8 78.911 11.442 29.173 21.386-40.371 21.386-40.371z"/>
  </g>
  <path d="m875.42 1648.7c0.708 5.889 2.172 13.437 3.356 18.847 1.029 6.096 2.424 10.392 2.424 10.392s2.748-3.565 5.79-9.159c2.691-5.511 5.239-13.3 4.33-21.862-0.708-6.32-2.482-13.248-6.464-18.691a25.656 25.656 0 0 0-3.343-3.74 37.769 37.769 0 0 1-3.748 0.488c-1.997 0.16-4.533 0.201-7.579 0.124-2.73-0.069-5.777-0.23-9.073-0.472a348.83 348.83 0 0 1-9.365-0.823 522.39 522.39 0 0 1-9.026-0.992 781.57 781.57 0 0 1-16.694-2.17c-12.86-1.803-7.926-0.546-41.749-6.638a4891.4 4891.4 0 0 1-25.894-4.735 1473 1473 0 0 1 18.853 18.299c30.261 29.9 31.93 34.14 31.93 34.14a235.84 235.84 0 0 1 4.248 5.145c1.48 1.848 2.821 3.595 4.002 5.223 11.326 15.617 25.426 48.064 36.828 77.135 6.094 15.54 18.11 16.016 24.845 3.88 2.542-4.705 3.74-9.387 4.413-13.53 0.969-5.5 1.235-10.77 1.21-15.372a111.71 111.71 0 0 0-0.81-12.855 92.235 92.235 0 0 0-0.562-3.95 58.243 58.243 0 0 0-0.242-1.366 0.174 0.174 0 0 1-0.021-0.074v-0.025s0 0.01-5e-3 0.024a0.175 0.175 0 0 1-0.041 0.065 98.741 98.741 0 0 0-0.633 1.231 251.48 251.48 0 0 0-1.766 3.55 375.99 375.99 0 0 0-5.336 11.45c-1.876 4.203-3.726 8.553-5.734 13.285-1.586 3.665-2.917 7.138-4.464 9.804-0.167 0.3-0.316 0.545-0.445 0.74a5.041 5.041 0 0 1-0.267 0.372l-0.061 0.073 0.105-0.095 6.308 0.184s0.046 0.051 0.019 0.017a3.714 3.714 0 0 1-0.217-0.31 10.9 10.9 0 0 1-0.566-1.025 24.619 24.619 0 0 1-0.835-1.915c-11.482-29.274-26.233-63.4-38.771-80.687a155.73 155.73 0 0 0-4.463-5.828 251.79 251.79 0 0 0-4.538-5.496s-2.352-5.002-32.885-35.172l-7.041 13.564c34.05 6.132 29.135 4.881 42.363 6.736a797.64 797.64 0 0 0 17.038 2.215c3.146 0.371 6.264 0.716 9.302 1.021 3.376 0.34 6.666 0.632 9.799 0.861 3.478 0.255 6.794 0.433 9.837 0.51 3.37 0.085 6.523 0.048 9.251-0.17l-7.091-3.25c1.765 2.413 2.928 6.13 3.477 11.027z"/>
  <g fill="#fff">
   <path d="m885.07 2062.6s6.157-72.873-6.427-95.112c-34.273-64.922-79.325-115.19-79.325-115.19-18.382-39.227-11.9-94.208-9.951-137.19 0 0-36.668 40.7-44.708 66.037-5.318 16.758-7.725 51.264-7.725 51.264-51.47-28.383-93.148-30.54-151.34-22.955 67.62 30.475 126.26 71.488 184.36 116.48 37.79 39.919 61.563 77.661 72.71 129.62z" stroke="#000" stroke-width="18"/>
   <path d="m741.82 1856.5s-47.763-63.578-81.014-96.598c-35.975-28.099-68.271-62.728-111.35-70.022-22.015-3.356-36.262 4.807-43.808 26.863-24.88-20.733-58.387-11.452-59.717 17.298-38.938-37.004-61.771 6.22-61.771 6.22-17.479-25.406-37.094-13.731-47.534-11.148-1.443-23.775-16.095-31.242-47.638-24.31-13.565-24.36-20.788-30.03-44.6-27.005-5.608-16.578-16.512-23.514-27.944-22.737-1.558-19.283-17.404-37.767-26.72-39.654-1.642-14.281-5.376-26.843-31.146-37.287 8.183-19.141-8.425-47.324-39.206-53.945 10.295-22.48-11.105-59.353-11.105-59.353 31.109 3.229 44.474-3.245 51.527-18.672 16.404 13.162 45.975 7.948 56.414-5.574 19.471 7.306 31.06 11.494 54-2.057 14.479 16.803 37.03 14.929 53.055 6.424 14.473 16.195 41.879 13.957 49.96 8.86 13.249 14.108 27.866 26.394 48.778 22.324 3.006 19.35 17.953 30.317 36.203 31.675 0 18.077 15.508 26.823 31.535 35.793-4.948 15.145 3.38 31.46 19.579 32.53-7.176 13.493-6.642 30.268 3.824 48.361 0 0 76.724 53.434 100.47 64.254l-198.98-318.51-19.846-23.748-17.306 1.832-22.956 17.848c-16.578-16.077-42.5-20.785-56.748-9.051-9.022-19.672-37.866-31.43-55.03-26.122-2.062-21.017-23.298-39.582-43.391-43.736-6.338-36.712-28.864-48.519-52.522-50.112 8.474-22.23-9.766-42.173-25.65-50.133 9.899-22.079-18.28-54.223-26.98-59.468 8.328-21.892-7.291-54.65-19.041-69.921 22.215-22.62 5.237-58.26-13.72-81.014 13.467-8.865 11.82-56.386-0.747-71.136 22.736-11.032 21.589-51.835 4.166-74.925 10.137-7.609 27.043-24.099 23.193-63.92 26.004 22.227 32.01 35.825 65.256 29.672 3.227 21.745 39.873 41.235 67.138 39.119 3.551 18.664 19.438 49.759 52.276 48.923 1.991 31.411 24.61 58.998 49.082 58.134-4.504 27.041 10.968 47.342 44.66 57.064 0.89 22.686 9.83 73.355 48.72 93.847-11.291 31.426 22.803 67.536 41.953 77.638-15.58 18.403-6.854 67.104 8.29 91.214-20.376 10.149-34.139 62.798-34.139 62.798l98.387 178.96 115.09 164.72 15.101-76.638s-13.814-19.375-34.795-23.094c3.38-16.847 6.307-41.845-16.528-53.56 14.963-11.602 9.032-33.537-4.025-45.364 17.056-6.744 7.966-37.133-1.379-48.458 12.538-11.031 20.044-26.92 13.21-51.644 17.94-7.779 29.408-24.137 21.074-42.354 19.741-3.188 22.52-22.135 20.322-35.282 17.274-3.397 33.806-12.971 41.675-36.296 14.37 12.083 23.26 19.43 44.716 14.875 4.525 18.503 17.206 38.761 43.633 40.106-2.448 28.133 0.467 42.416 18.365 59.461-12.606 19.922-6.23 38.251 6.065 48.758-9.022 11.899-10.06 25.731-2.416 48.742-18.489 13.252-15 34.425-10.979 55.901-17.455 3.386-21.538 28.794-22.097 42.302-13.651 1.672-40.856 24.566-42.868 44.753-25.052-7.088-46.731 9.786-46.731 9.786l-7.12 51.729s0.948 24.16 4.998 35.35c17.398 48.068 80.692 130.41 80.692 130.41z"/>
   <path d="m1019.5 1710.1c43.14 50.759 43.086 78.269 29.938 138.65 32.734-26.501 43.483-20.712 83.225-29.626 24.939-2.024 53.55 3.757 79.529 12.435-14.76 6.417-78.301 33.076-111.83 58.48-33.761 25.579-63.143 57.577-87.16 92.467-17.112 24.859-39.37 81.528-39.37 81.528s-27.506 9.217-38.211 3.144c-15.152-8.596-18.755-29.351-20.439-46.69 1.428-23.82 18.975-56.215 36.134-81.198 17.754-30.346 44.108-66.251 53.803-99.907 10.95-41.401 16.594-89.76 14.38-129.28z" stroke="#000" stroke-width="18"/>
   <path d="m1063.8 1889.6s55.38-64.644 88.63-97.664c35.975-28.099 68.271-62.728 111.35-70.022 22.014-3.356 36.262 4.807 43.808 26.863 24.88-20.733 58.387-11.452 59.717 17.298 38.938-37.004 61.771 6.22 61.771 6.22 17.478-25.406 37.094-13.731 47.534-11.148 1.443-23.775 16.094-31.242 47.638-24.31 13.565-24.36 20.788-30.03 44.6-27.005 5.608-16.578 16.512-23.514 27.944-22.737 1.558-19.283 17.404-37.767 26.72-39.654 1.642-14.281 5.376-26.843 31.146-37.287-8.183-19.141 8.425-47.324 39.206-53.945-10.295-22.48 11.104-59.353 11.104-59.353-31.109 3.229-44.474-3.245-51.527-18.672-16.404 13.162-45.975 7.948-56.414-5.574-19.471 7.306-31.06 11.494-54-2.057-14.479 16.803-37.03 14.929-53.055 6.424-14.474 16.195-41.879 13.957-49.96 8.86-13.25 14.108-27.866 26.394-48.778 22.324-3.006 19.35-17.953 30.317-36.203 31.675 0 18.077-15.508 26.823-31.535 35.793 4.948 15.145-3.38 31.46-19.579 32.53 7.176 13.493 6.642 30.268-3.824 48.361 0 0-76.724 53.434-100.47 64.254l198.98-318.51 19.846-23.748 17.306 1.832 22.956 17.848c16.578-16.077 42.5-20.785 56.748-9.051 9.022-19.672 37.866-31.43 55.03-26.122 2.062-21.017 23.298-39.582 43.391-43.736 6.338-36.712 28.864-48.519 52.522-50.112-8.474-22.23 9.766-42.173 25.65-50.133-9.899-22.079 18.28-54.223 26.98-59.468-8.328-21.892 7.291-54.65 19.041-69.921-22.215-22.62-5.237-58.26 13.72-81.014-13.467-8.865-11.82-56.386 0.747-71.136-22.736-11.032-21.589-51.835-4.166-74.925-10.137-7.609-27.043-24.099-23.194-63.92-26.004 22.227-32.01 35.825-65.256 29.672-3.227 21.745-39.873 41.235-67.138 39.119-3.551 18.664-19.438 49.759-52.276 48.923-1.991 31.411-24.61 58.998-49.082 58.134 4.504 27.041-10.968 47.342-44.66 57.064-0.89 22.686-9.83 73.355-48.72 93.847 11.291 31.426-22.803 67.536-41.953 77.638 15.58 18.403 6.854 67.104-8.29 91.214 20.376 10.149 34.139 62.798 34.139 62.798l-98.387 178.96-115.09 164.72-15.1-76.638s13.814-19.375 34.795-23.094c-3.38-16.847-6.308-41.845 16.528-53.56-14.963-11.602-9.032-33.537 4.025-45.364-17.056-6.744-7.967-37.133 1.379-48.458-12.538-11.031-20.044-26.92-13.21-51.644-17.94-7.779-29.408-24.137-21.074-42.354-19.741-3.188-22.52-22.135-20.322-35.282-17.274-3.397-33.806-12.971-41.675-36.296-14.37 12.083-23.26 19.43-44.716 14.875-4.525 18.503-17.206 38.761-43.633 40.106 2.448 28.133-0.467 42.416-18.364 59.461 12.606 19.922 6.23 38.251-6.065 48.758 9.022 11.899 10.06 25.731 2.416 48.742 18.489 13.252 15 34.425 10.979 55.901 17.455 3.386 21.538 28.794 22.097 42.302 13.65 1.672 40.856 24.566 42.868 44.753 25.052-7.088 46.73 9.786 46.73 9.786l7.121 51.729s-0.743 24.237-4.998 35.35c-19.673 51.379-91.95 137.06-91.95 137.06z"/>
  </g>
 </g>
 <circle cx="877.37" cy="655.67" r="373.24" fill="#fff"/>
 <path d="m694.16 380.57-24.808-98.652-9.884-85.074c-35.449-15.104-47.44-22.878-86.133-13.96l-18.53-7.38-17.937-12.802 6.587 21.135 0.722 19.969s-10.882 24.977-12.575 32.66c-4.868 22.09-4.183 56.921-4.183 56.921l80.099 33.33z" fill="#fff" stroke="#000" stroke-width="16"/>
 <path d="M644.75 300.146c-12.607-18.057-26.2-35.745-38.148-50.743-21.264-26.694-37.8-45.79-37.8-45.79s11.089 22.716 28.532 52.179c9.875 16.678 21.588 35.31 34.297 53.514 9.5 13.605 17.435 24.956 22.125 31.763 1.534 2.228 5.405 2.71 8.235 2.85.477.025.99.019 1.373.016.741-.234 1.247-.555 1.465-.689.035.01.071.035.08.03a.206.206 0 0 0 .045-.063c.12-.229-.394-.163-.394-.163s-.244.428.262.588c.047.016.104.038.175.035.04-.001.052-.037.076-.055a3.7 3.7 0 0 1 1.084-1.381c.179-.443.316-.838.503-1.357.983-2.746 1.79-6.688.27-8.891-4.725-6.858-12.685-18.243-22.182-31.846z"/>
 <path d="m1113.8 379.6 86.157-54.079 77.857-35.69c3.41-38.38 7.098-52.187-13.34-86.231l1.293-19.903 6.632-21.015-18.066 12.795-18.767 6.857c-33.032-4.657-58.794 0.98-90.376 11.745l-6.947 86.478z" fill="#fff" stroke="#000" stroke-width="16"/>
 <path d="M1175.014 307.767c13.277-17.57 25.899-35.963 36.47-51.962 18.817-28.471 31.869-50.1 31.869-50.1s-18.177 17.566-40.808 43.26c-12.81 14.546-26.911 31.443-40.296 49.155-10.004 13.239-18.347 24.294-23.372 30.858-1.645 2.147-.907 5.977-.166 8.713.124.46.288.947.41 1.31.451.633.912 1.015 1.107 1.181.001.036-.01.078-.003.085.015.01.05.02.074.024.254.042.032-.426.032-.426s-.482-.1-.478.431c0 .05-.004.111.02.177.015.038.053.038.077.056a3.7 3.7 0 0 1 1.649.604c.476.033.894.042 1.445.058 2.915.087 6.914-.364 8.54-2.49 5.062-6.613 13.43-17.702 23.432-30.937z"/>
 <path d="M1167.8 238.5c0 110.13-117.08 236.82-262.26 236.82-145.19 0-263.5-126.69-263.5-236.82S760.29 50.59 905.47 50.59c145.19 0 262.33 77.782 262.33 187.91z" fill="#fff" stroke="#000" stroke-linecap="round" stroke-width="20"/>
 <path d="m1170.3 235.56c-11.514-40.578-37.305-59.791-66.346-77.471-19.406-11.814-42.2-15.613-66.346-15.613s-45.133 7.806-66.346 15.613c-21.123 7.806-42.2 15.613-66.346 15.613-24.147 0-45.134-7.806-66.347-15.613-21.122-7.806-43.627-15.613-66.346-15.613-22.72 0-46.272 4.973-66.346 15.613-27.311 14.475-56.372 35.74-66.346 77.471" fill="none" stroke="#000" stroke-width="16"/>
 <path d="m914.77 166.26c4.455 65.978 9.292 119.66 14.606 162.5 3.483 28.087 7.373 53.136 11.762 73.887 2.645 12.508 5.758 24.804 9.37 35.097 2.915 8.305 5.756 14.164 8.446 18.206 3.648 5.481 7.305 8.048 10.88 8.048 0 0-43.079 10-65 10s-65-10-65-10c3.574 0 7.23-2.567 10.878-8.048 2.69-4.042 5.531-9.9 8.446-18.206 3.613-10.292 6.725-22.589 9.37-35.097 4.39-20.751 8.279-45.8 11.762-73.887 5.314-42.841 10.15-96.525 14.606-162.5z"/>
 <path d="m1244.4 778.41 78.055 65.229 58.003 63.017c37.556-8.618 51.826-9.376 77.888-39.335l19.328-4.92 22.036-0.187-17.75-13.227-12.322-15.73c-5.778-32.854-19.1-55.614-39.097-82.323l-84.393 20.116z" fill="#fff" stroke="#000" stroke-width="16"/>
 <path d="M1331.655 814.429c20.814 7.198 42.207 13.518 60.689 18.629 32.893 9.097 57.495 14.827 57.495 14.827s-22.322-11.86-53.752-25.443c-17.793-7.689-38.22-15.878-59.202-23.134-15.682-5.424-28.774-9.942-36.57-12.693-2.55-.9-5.965.985-8.337 2.535-.4.26-.812.567-1.12.794-.462.625-.683 1.182-.78 1.418-.034.013-.078.014-.082.023a.206.206 0 0 0 0 .078c.038.255.414-.1.414-.1s-.054-.49-.557-.322c-.047.015-.107.03-.162.075-.031.024-.02.06-.03.09a3.7 3.7 0 0 1-.065 1.754c.116.463.237.863.392 1.393.818 2.799 2.483 6.462 5.007 7.352 7.854 2.77 20.985 7.302 36.664 12.725z"/>
 <path d="m1394.6 784.61c-104.74 34.031-261.41-38.17-306.27-176.24-44.866-138.08 39.063-289.75 143.8-323.78s215.25 54.395 260.12 192.47c44.867 138.08 7.09 273.53-97.648 307.56z" fill="#fff" stroke="#000" stroke-linecap="round" stroke-width="20"/>
 <path d="m1398.2 786.08c35.033-23.49 45.336-53.955 53.177-87.038 5.239-22.107 1.808-44.96-5.653-67.924s-21.372-40.512-35.351-58.274c-13.952-17.677-27.89-35.31-35.351-58.274-7.462-22.965-6.523-45.337-5.654-67.924 0.897-22.5 1.368-46.317-5.653-67.924-7.02-21.608-19.028-42.47-35.35-58.274-22.207-21.501-51.411-42.569-94.182-39.159" fill="none" stroke="#000" stroke-width="16"/>
 <path d="m1385.1 521.67c-61.372 24.625-110.93 45.814-150.03 64.106-25.636 11.992-48.257 23.432-66.636 34.019-11.079 6.38-21.811 13.14-30.484 19.757-6.998 5.339-11.692 9.851-14.705 13.658-4.086 5.164-5.397 9.434-4.293 12.834 0 0-22.822-37.88-29.596-58.729s-10.576-64.908-10.576-64.908c1.105 3.4 4.676 6.083 11.016 7.86 4.675 1.308 11.126 2.2 19.925 2.406 10.905 0.255 23.562-0.585 36.275-1.934 21.092-2.239 46.117-6.28 73.905-11.646 42.387-8.185 94.938-20.175 159.06-36.324z"/>
 <path d="m905.47 1025.9-37.916 94.392-42.009 74.637c19.801 33.055 24.932 46.392 61.478 61.921l10.652 16.862 6.987 20.9 7.095-20.97 11.153-16.579c29.46-15.648 46.989-35.351 66.212-62.623l-45.21-74.046z" fill="#fff" stroke="#000" stroke-width="16"/>
 <path d="M898.17 1119.97c-.414 22.019.186 44.318 1.037 63.475 1.512 34.094 3.665 59.263 3.665 59.263s4.382-24.895 7.587-58.984c1.815-19.298 3.29-41.256 3.708-63.453.312-16.59.563-30.438.77-38.702.07-2.704-2.78-5.369-4.986-7.146-.371-.3-.79-.597-1.102-.82-.737-.246-1.335-.284-1.59-.304-.022-.028-.037-.07-.047-.07a.206.206 0 0 0-.074.024c-.23.115.224.363.224.363s.448-.203.133-.63c-.029-.04-.062-.092-.12-.13-.034-.023-.065 0-.095 0a3.7 3.7 0 0 1-1.689.48c-.405.253-.747.49-1.204.802-2.409 1.643-5.379 4.358-5.444 7.034-.209 8.326-.46 22.215-.773 38.802z"/>
 <path d="m945.3 1169.1c-64.732-89.097-44.48-260.41 72.974-345.74 117.46-85.34 287.64-52.387 352.38 36.71s14.785 221.53-102.67 306.86c-117.46 85.34-257.95 91.266-322.68 2.17z" fill="#fff" stroke="#000" stroke-linecap="round" stroke-width="20"/>
 <path d="m945.01 1173c33.166 26.06 65.325 26.444 99.211 23.678 22.644-1.849 43.318-12.173 62.852-26.366s31.925-32.844 44.498-51.628c12.5-18.732 24.964-37.436 44.498-51.629 19.536-14.193 41.103-20.213 62.853-26.366 21.677-6.1 44.472-13.012 62.852-26.366 18.381-13.355 34.512-31.221 44.498-51.629 13.587-27.763 24.599-62.049 8.14-101.67" fill="none" stroke="#000" stroke-width="16"/>
 <path d="m1192.4 1078.9c-42.385-50.759-77.852-91.345-107.33-122.88-19.328-20.676-37.198-38.655-52.946-52.863-9.492-8.564-19.237-16.682-28.21-22.886-7.24-5.005-12.982-8.076-17.534-9.765-6.173-2.29-10.64-2.217-13.532-0.116 0 0 28.973-33.411 46.708-46.297s58.464-30.115 58.464-30.115c-2.892 2.1-4.34 6.327-4.07 12.905 0.199 4.851 1.345 11.261 3.868 19.694 3.127 10.45 7.837 22.227 13.049 33.901 8.646 19.368 20.223 41.92 33.914 66.69 20.882 37.782 48.524 84.056 83.698 140.05z"/>
 <path d="m565.41 779.97-101.49-6.892-83.965-16.889c-25.319 29.047-36.417 38.048-39.893 77.604l-12.745 15.341-17.718 13.104 22.136 0.267 19.214 5.484c23.986 23.183 48.141 33.765 80.019 43.62l56.45-65.879z" fill="#fff" stroke="#000" stroke-width="18"/>
 <path d="M473.659 802.102c-21.07 6.41-42.092 13.872-60.048 20.601-31.958 11.974-55.23 21.8-55.23 21.8s25.03-3.526 58.442-11.012c18.914-4.238 40.253-9.62 61.493-16.081 15.874-4.83 29.122-8.87 37.046-11.227 2.592-.77 4.246-4.303 5.255-6.951.17-.446.324-.936.44-1.301.005-.777-.143-1.358-.203-1.607.02-.03.054-.056.052-.066a.206.206 0 0 0-.045-.063c-.18-.183-.276.325-.276.325s.33.364.64-.068c.029-.04.068-.087.087-.155.01-.038-.02-.06-.03-.09a3.7 3.7 0 0 1-.978-1.457c-.366-.307-.698-.56-1.135-.898-2.307-1.783-5.808-3.768-8.372-3.004-7.983 2.374-21.27 6.427-37.142 11.256z"/>
 <path d="m440.82 860.65c64.733-89.097 233.92-122.77 351.37-37.439 117.46 85.341 138.71 257.38 73.976 346.47s-206.12 82.517-323.57-2.818c-117.46-85.34-166.51-217.12-101.78-306.22z" fill="#fff" stroke="#000" stroke-linecap="round" stroke-width="20"/>
 <path d="m437.08 861.56c-14.536 39.596-4.964 70.3 8.139 101.67 8.755 20.964 24.963 37.436 44.498 51.628s41.101 20.213 62.852 26.366c21.677 6.1 43.317 12.174 62.852 26.366 19.535 14.194 31.926 32.845 44.499 51.63 12.5 18.73 26.117 38.274 44.497 51.628 18.381 13.354 40.358 23.175 62.853 26.366 30.603 4.342 66.613 4.22 99.211-23.678" fill="none" stroke="#000" stroke-width="16"/>
 <path d="M603.045 1067.8c35.176-55.997 62.817-102.27 83.699-140.051 13.69-24.77 25.267-47.322 33.914-66.69 5.212-11.674 9.921-23.45 13.049-33.901 2.523-8.433 3.668-14.842 3.868-19.694.27-6.578-1.179-10.804-4.07-12.905 0 0 40.728 17.23 58.463 30.116s46.708 46.296 46.708 46.296c-2.892-2.101-7.358-2.174-13.531.116-4.552 1.69-10.295 4.76-17.535 9.765-8.972 6.203-18.718 14.322-28.21 22.886-15.748 14.209-33.618 32.187-52.945 52.863-29.48 31.536-64.948 72.124-107.332 122.88z"/>
 <path d="m578.28 285.5c104.74 34.032 189.05 184.53 144.19 322.6-44.867 138.08-201.92 211.46-306.66 177.42s-142.17-170.53-97.308-308.6c44.866-138.08 155.04-225.46 259.78-191.42z" fill="#fff" stroke="#000" stroke-linecap="round" stroke-width="20"/>
 <path d="m576.26 282.21c-42.15-1.59-68.392 17.002-94.18 39.159-17.233 14.805-27.89 35.31-35.352 58.274s-6.522 45.336-5.653 67.923c0.897 22.502 1.809 44.96-5.653 67.924-7.462 22.965-21.371 40.512-35.351 58.275-13.951 17.676-28.33 36.667-35.351 58.274-7.02 21.608-9.57 45.544-5.653 67.923 5.327 30.448 16.57 64.658 53.177 87.04" fill="none" stroke="#000" stroke-width="16"/>
 <path d="m431.4 503.79c64.125 16.15 116.68 28.14 159.06 36.324 27.789 5.366 52.814 9.408 73.905 11.646 12.713 1.35 25.37 2.189 36.275 1.934 8.8-0.206 15.25-1.097 19.925-2.407 6.34-1.776 9.911-4.46 11.016-7.86 0 0-3.801 44.06-10.576 64.91s-29.596 58.728-29.596 58.728c1.104-3.4-0.207-7.67-4.293-12.833-3.012-3.808-7.707-8.32-14.705-13.659-8.672-6.616-19.405-13.376-30.483-19.757-18.38-10.587-41-22.026-66.636-34.019-39.103-18.292-88.665-39.481-150.03-64.106z"/>
 <g transform="translate(-151.13 -519.43)">
  <circle cx="1056" cy="1188" r="222.55" fill="#fff"/>
  <path d="m1056 960.18c-125.82 0-227.82 102-227.82 227.82s102 227.82 227.82 227.82 227.82-102 227.82-227.82-102-227.82-227.82-227.82zm-34.697 16.195c10.355-1.698 20.127 5.32 21.824 15.676l2.236 13.637c3.538-0.356 7.085-0.61 10.637-0.76 1.835 0.017 3.67 0.062 5.502 0.135l1.623-13.121c1.152-9.318 9.641-15.938 18.96-14.785 9.318 1.152 15.937 9.64 14.784 18.959l-1.623 13.123a183.08 183.08 0 0 1 15.666 4.156l5.326-12.299a19 19 0 0 1 24.987-9.884c9.63 4.17 14.055 15.357 9.885 24.986l-5.334 12.316c4.136 2.31 8.18 4.779 12.125 7.402l8.556-10.277a19 19 0 0 1 26.758-2.445c8.064 6.714 9.159 18.694 2.445 26.758l-8.58 10.307a183.06 183.06 0 0 1 9.522 10.539l11.123-7.463a19 19 0 0 1 26.363 5.193c5.847 8.714 3.522 20.517-5.191 26.363l-11.115 7.457c2.207 4.191 4.25 8.466 6.125 12.814l12.797-4.033a19 19 0 0 1 23.832 12.41c3.155 10.01-2.401 20.68-12.41 23.834l-12.768 4.024c0.936 4.643 1.691 9.32 2.264 14.022l13.418-0.264c10.49-0.207 19.164 8.13 19.37 18.621 0.208 10.491-8.129 19.164-18.62 19.371l-13.816 0.272a183.06 183.06 0 0 1-1.928 15.996l13.006 3.543c9.06 2.467 14.404 11.812 11.936 20.87-2.467 9.06-11.81 14.403-20.869 11.937l-13.158-3.584a183.13 183.13 0 0 1-7.057 16.688l11.48 7.062c7.998 4.92 10.493 15.392 5.573 23.389s-15.39 10.492-23.387 5.572l-11.615-7.144a183.09 183.09 0 0 1-11.473 14.024l9.025 10.01c6.287 6.973 5.731 17.723-1.242 24.01s-17.723 5.73-24.01-1.242l-9.131-10.127a183.17 183.17 0 0 1-14.959 10.223l5.84 12.148c4.068 8.462 0.505 18.62-7.957 22.688-8.462 4.066-18.618 0.504-22.686-7.958l-5.908-12.289a183.06 183.06 0 0 1-15.277 5.168l2.197 13.404c1.698 10.355-5.32 20.127-15.676 21.824-10.355 1.698-20.127-5.32-21.824-15.676l-2.236-13.637c-3.538 0.357-7.085 0.61-10.637 0.76-1.826-0.103-3.65-0.233-5.471-0.39l-1.654 13.376c-1.153 9.319-9.641 15.938-18.96 14.785-9.318-1.152-15.937-9.64-14.784-18.959l1.673-13.535a183.01 183.01 0 0 1-15.644-3.91l-5.398 12.465c-4.17 9.63-15.357 14.055-24.986 9.885-9.63-4.17-14.055-15.357-9.885-24.986l5.492-12.682a182.98 182.98 0 0 1-12.148-7.197l-8.691 10.438c-6.714 8.064-18.694 9.159-26.758 2.445s-9.159-18.694-2.446-26.758l8.842-10.62a183.1 183.1 0 0 1-9.627-10.329l-11.279 7.567c-8.714 5.845-20.517 3.52-26.363-5.194-5.846-8.713-3.522-20.517 5.192-26.363l11.477-7.7a183.09 183.09 0 0 1-6.328-12.62l-12.955 4.082c-10.008 3.154-20.678-2.402-23.832-12.41-3.156-10.01 2.4-20.68 12.41-23.834l13.182-4.154a183.08 183.08 0 0 1-2.516-13.894l-13.58 0.267c-10.491 0.207-19.164-8.13-19.371-18.62-0.207-10.492 8.13-19.165 18.621-19.372l13.816-0.271a183.07 183.07 0 0 1 1.928-15.996l-13.006-3.543c-9.06-2.467-14.404-11.812-11.936-20.871a17.001 17.001 0 0 1 20.869-11.936l13.158 3.584a183.13 183.13 0 0 1 7.056-16.688l-11.48-7.063c-7.998-4.92-10.493-15.392-5.572-23.389a17 17 0 0 1 23.386-5.572l11.615 7.144c3.59-4.86 7.42-9.54 11.473-14.024l-9.025-10.01c-6.287-6.973-5.731-17.723 1.242-24.01a17 17 0 0 1 24.01 1.243l9.131 10.127a183.21 183.21 0 0 1 14.959-10.223l-5.84-12.148c-4.068-8.463-0.505-18.62 7.957-22.687a17 17 0 0 1 22.685 7.957l5.909 12.289a183.07 183.07 0 0 1 15.277-5.168l-2.197-13.404c-1.698-10.355 5.32-20.127 15.676-21.824z" fill="#000014"/>
 </g>
 <path d="m727.52 1849.3c4.37 5.715 14.3 7.178 14.3 7.178s1.191-9.967-3.178-15.681l-0.023-0.03c-15.359-19.871-48.056-61.201-72.88-85.853a292.07 292.07 0 0 0-0.3-0.296 397.72 397.72 0 0 1-0.324-0.254c-35.527-27.749-69.14-63.728-114.49-71.407a106.26 106.26 0 0 0-0.056-0.01 76.248 76.248 0 0 0-0.058-0.01c-25.19-3.84-42.886 6.382-51.486 31.518l11.104-3.111c-28.736-23.946-69.559-12.921-71.19 22.352l11.814-4.75c-21.506-20.44-40.349-19.622-53.84-11.737 0 0-12.137 6.879-18.943 19.761l11.956-0.698c-21.2-30.816-49.856-15.244-54.982-13.976l8.669 6.371c-1.782-29.362-21.615-38.307-56.127-30.723l7.618 3.432c-14.433-25.92-24.004-34.05-51.598-30.544l7.513 4.7c-6.475-19.137-19.727-28.519-35.05-27.478l7.452 6.42c-1.715-21.217-18.94-43.243-32.307-45.95l5.564 6.06c-1.81-15.747-6.516-31.24-35.47-42.974l3.806 9.239c10.36-24.233-10.12-56.216-44.17-63.54l4.892 9.758c2.589-5.653 3.493-11.826 3.434-17.789 0 0-0.296-22.918-14.85-47.992l-6.776 10.476c32.849 3.41 49.94-3.745 58.616-22.725l-10.747 2.55c19.334 15.512 53.365 10.046 66.335-6.756l-8 2.276c19.534 7.33 34.214 12.66 60.019-2.584l-8.864-1.458c17.15 19.903 43.462 17.685 61.64 8.038l-8.5-1.518c16.434 18.39 47.546 17.286 58.914 10.115l-8.837-1.129c13.713 14.602 30.315 29.252 55.218 24.404l-8.255-5.796c3.545 22.817 21.539 36.013 42.6 37.58l-6.48-6.98c0 22.581 19.074 32.924 35.117 41.901l-3.236-8.282c-6.277 19.21 4.497 40.283 25.771 41.688l-5.719-10.272c-8.522 16.026-7.519 35.335 3.945 55.154a89.357 89.357 0 0 0 0.808 1.367 26940 26940 0 0 0 1.251 0.872c49.447 34.437 31.932 21.992 52.729 35.585a1195.8 1195.8 0 0 0 19.631 12.585 660.84 660.84 0 0 0 10.121 6.216 352.31 352.31 0 0 0 10.001 5.812c3.38 1.881 6.503 3.506 9.083 4.682a65.677 65.677 0 0 0 18.462 5.325l-208.85-334.33-22.55-26.984-23.004 2.435-24.531 19.073 9.17 0.501c-18.44-17.882-48.39-23.992-66.071-9.43l10.813 2.486c-10.46-22.806-42.62-36.337-63.461-29.891l9.035 6.004c-2.428-24.735-26.143-45.194-48.941-49.907l5.48 5.664c-6.928-40.138-32.518-54.126-58.95-55.906l6.071 9.478c10.11-26.518-10.973-49.824-29.055-58.884l3.251 9.122c11.624-25.926-18.18-61.35-29.753-68.327l2.929 8.484c9.49-24.946-7.584-60.496-20.036-76.678l-0.554 9.173c26.042-26.514 6.607-66.46-13.336-90.398l-1.53 10.327c17.915-11.793 15.394-64.317 0.733-81.523l-2.272 10.838c27.759-13.469 25.989-59.873 6.698-85.439l-1.386 9.815c11.48-8.617 30.118-27.164 25.959-70.192l-11.516 5.994c24.669 21.086 33.906 38.113 71.078 31.234l-8.198-5.855c3.943 26.565 44.735 47.388 74.603 45.07l-7.418-5.67c3.997 21.008 22.055 55.562 59.33 54.612l-7.164-6.555c2.163 34.108 27.117 65.717 56.315 64.687l-7.151-8.146c-5.22 31.335 13.257 54.445 49.624 64.94l-5.054-6.45c0.94 23.933 10.22 77.512 52.452 99.764l-3.325-8.56c-12.862 35.796 23.832 74.886 45.274 86.197l-2.076-10.714c-18.261 21.571-8.347 73.905 7.704 99.46l2.807-9.989c-5.391 2.686-10.028 7.375-13.861 12.504 0 0-13.601 15.281-23.928 54.79a269.14 269.14 0 0 0-0.695 2.717l99.9 181.72 124.73 178.52 18.846-95.64a62.464 62.464 0 0 0-1.731-2.56c-15.414-21.62-39.273-25.923-39.273-25.923l5.641 8.27c3.51-17.496 7.17-47.127-20.196-61.166l1.094 11.76c19.175-14.868 11.927-42.006-3.615-56.084l-2.125 11.698c23.365-9.239 12.896-45.547 1.446-59.423l-0.775 9.71c14.367-12.64 22.862-31.526 15.333-58.763l-3.962 8.287c20.655-8.956 34.973-29.136 24.655-51.688l-5.25 9.823c24.737-3.995 28.71-27.794 26.11-43.347l-5.553 8.022c19.29-3.793 38.133-14.772 46.957-40.927l-11.138 3.12c14.407 12.114 25.458 21.718 50.675 16.364l-8.253-5.184c5.016 20.513 19.769 43.892 50.077 45.435l-6.618-7.598c-2.567 29.496 0.334 45.92 20.51 65.137l-1.087-8.812c-14.615 23.098-7.548 45.02 7.432 57.822l-1.03-9.55c-10.8 14.242-11.53 30.945-3.481 55.177l2.565-7.896c-22.1 15.839-17.823 41.292-13.781 62.879l5.547-8.16c-22.903 4.442-27.162 34.462-27.758 48.885l6.143-6.66c-17.329 2.124-46.652 27.628-48.982 51.008l8.871-6.042s-28.613-7.934-52.937 10.998a59.784 59.784 0 0 0-2.26 1.85l-7.579 55.057a373.06 373.06 0 0 0 0.024 0.62c1.227 31.273 5.411 37.46 5.411 37.46 13.042 36.032 50.635 89.973 69.855 116.34 3.147 4.318 7.938 7.387 11.712 9.29a45.543 45.543 0 0 0 4.135 1.836c0.494 0.19 0.885 0.328 1.157 0.422 0.134 0.046 0.236 0.079 0.307 0.102 0.1 0 0.107 0.033 0.11 0.035-3e-3 0-0.035-0.018-6e-3 -0.115l-0.018-0.322a40.222 40.222 0 0 0-0.098-1.226 52.332 52.332 0 0 0-0.621-4.461c-0.755-4.115-2.27-9.563-5.363-13.808-19.101-26.206-55.676-78.8-68.004-112.86-0.664-1.833-1.24-4.115-1.786-6.927 0 0-2.106-8.613-2.8-26.316l-0.06 1.229 7.12-51.73-2.635 4.57c18.393-14.316 40.526-8.574 40.526-8.574l8.042 2.276 0.829-8.317c1.694-16.994 26.78-37.278 36.754-38.5a8.864 8.864 0 0 1 6.237 1.591 78.232 78.232 0 0 1-0.094-8.25c0.52-12.593 4.429-33.39 16.436-35.718a11.406 11.406 0 0 1 7.292 1.005 1567.6 1567.6 0 0 1-1.745-9.165c-4-21.366-6.703-38.258 8.176-48.924a32.849 32.849 0 0 1 4.402-2.66 167.16 167.16 0 0 1-1.836-5.237c-7.239-21.79-5.894-32.75 1.35-42.306a38.856 38.856 0 0 1 5.038-5.467 31.922 31.922 0 0 1-6.068-4.083c-9.61-8.213-15.293-22.947-4.697-39.694a46.456 46.456 0 0 1 3.441-4.747 103.05 103.05 0 0 1-4.529-4.065c-15.619-14.875-18.548-27.016-16.218-53.785a272.8 272.8 0 0 1 0.794-7.818 46.119 46.119 0 0 1-7.412 0.22c-22.546-1.147-33.156-18.285-37.189-34.778a69.352 69.352 0 0 1-1.333-6.993 76.997 76.997 0 0 1-6.92 1.808c-17.698 3.757-24.426-1.333-38.757-13.385a1211.6 1211.6 0 0 1-8.568-7.272 64.594 64.594 0 0 1-2.57 10.392c-6.914 20.495-21.137 28.665-36.393 31.666a68.779 68.779 0 0 1-7.323 1.035 43.748 43.748 0 0 1 1.77 6.987c1.785 10.68 0.08 24.858-14.534 27.218l-9.073 1.465 3.823 8.358c6.351 13.88-2.27 26.418-17.494 33.019a51.157 51.157 0 0 1-5.922 2.145 81.986 81.986 0 0 1 1.96 6.142c6.14 22.21-0.376 35.101-11.087 44.523a56.792 56.792 0 0 1-6.562 4.978 19.259 19.259 0 0 1 5.787 4.733c7.162 8.68 14.717 33.336 4.203 37.494l-10.469 4.14 8.344 7.557c10.497 9.508 15.059 26.407 4.435 34.644l-8.692 6.74 9.787 5.02c18.305 9.391 16.11 29.755 12.86 45.954l-1.41 7.02 7.051 1.25s18.508 3.702 30.317 20.265l-1.168-5.417-15.101 76.638 12.606-2.656-115.09-164.72 0.396 0.637-98.387-178.96 0.638 5.143c2.62-10.02 4.808-15.434 5.948-18.542 3.858-10.52 9.262-22.86 15.65-31.408 3.145-4.209 6.13-6.979 8.888-8.353a12.401 12.401 0 0 1 10.31-0.342 61.083 61.083 0 0 1-7.503-9.647c-14.235-22.664-21.771-67.733-8.875-82.968l5.63-6.65-7.706-4.064c-16.858-8.893-48.353-42.023-38.631-69.08a30.358 30.358 0 0 1 2.778-5.747 63.327 63.327 0 0 1-6.103-2.813c-35.55-18.73-44.147-66.49-44.989-87.929a102.78 102.78 0 0 1-0.073-5.131 117.11 117.11 0 0 1-4.98-1.32c-31.017-8.95-43.485-26.442-39.696-49.189a52.575 52.575 0 0 1 3.006-10.789 24.127 24.127 0 0 1-10.158 2.643c-19.744 0.697-40.03-22.868-41.85-51.582a66.212 66.212 0 0 1-0.059-7.327 43.206 43.206 0 0 1-7.105 0.773c-28.384 0.722-42.118-26.924-45.221-43.234a49.672 49.672 0 0 1-0.808-6.688 44.511 44.511 0 0 1-6.61 1.017c-24.66 1.914-57.16-16.242-59.673-33.167a14.896 14.896 0 0 1 0.981-7.908 126.97 126.97 0 0 1-9.179 2.053c-29.32 5.426-32.096-4.743-59.434-28.11a327.37 327.37 0 0 0-14.55-11.734 123.08 123.08 0 0 1 3.034 17.729c3.54 36.615-11.634 51.048-20.428 57.649a74.465 74.465 0 0 1-6.305 4.247 48.131 48.131 0 0 1 4.92 5.567c15.555 20.615 16.079 55.817-1.634 64.411l-8.141 3.95 5.868 6.888c10.44 12.252 11.17 54.862 2.226 60.749l-6.544 4.308 5.015 6.02c17.964 21.562 32.464 52.934 14.104 71.628a31.858 31.858 0 0 1-4.886 4.07 69.86 69.86 0 0 1 4.333 5.104c11.049 14.36 25.213 44.326 18.046 63.163l-2.08 5.465 5.008 3.019c5.723 3.45 32.319 32.519 24.207 50.61a16.306 16.306 0 0 1-4.698 6.066 43.734 43.734 0 0 1 7.95 3.056c13.651 6.841 29.058 23.508 22.244 41.38a26.992 26.992 0 0 1-6.276 9.612 79.209 79.209 0 0 1 12.346-0.133c20.886 1.406 40.348 11.034 46.094 44.319a97.563 97.563 0 0 1 0.73 4.993 37.739 37.739 0 0 1 4.751 0.67c17.387 3.595 36.144 20.266 37.842 37.565l0.838 8.539 8.197-2.536c13.487-4.17 39.013 5.814 46.598 22.352l3.792 8.268 7.021-5.782c10.813-8.905 32.709-5.599 47.425 8.673a48.979 48.979 0 0 1 4.07 4.466l28.056-21.813-3.56 1.435 17.306-1.832-6.108-2.473 19.846 23.748-0.565-0.78 198.98 318.51 8.84-10.078c-2.17-0.988-4.855-2.38-8.083-4.176a338.82 338.82 0 0 1-9.597-5.578 646.28 646.28 0 0 1-9.905-6.084 1179.3 1179.3 0 0 1-19.397-12.435c-20.567-13.442-3.053-0.997-52.388-35.355l2.059 2.239c-9.468-16.368-9.533-30.607-3.703-41.57l5.083-9.558-10.802-0.714c-11.122-0.734-17.006-12.293-13.386-23.37a22.186 22.186 0 0 1 2.439-5.126 1237.2 1237.2 0 0 1-5.674-3.156c-16.013-8.961-27.954-16.112-27.954-29.684a23.141 23.141 0 0 1 1.098-7.044 45.922 45.922 0 0 1-7.579 0.063c-15.439-1.15-27.338-9.886-29.806-25.769a37.205 37.205 0 0 1-0.351-8.288 36.669 36.669 0 0 1-7.903 2.492c-16.92 3.294-29.551-6.63-42.337-20.245l-3.954-4.21-4.884 3.081c-4.795 3.025-28.494 6.397-41.006-7.603a26.549 26.549 0 0 1-3.343-4.673 49.607 49.607 0 0 1-5.158 3.155c-13.872 7.362-32.663 8.892-44.471-4.81a32.216 32.216 0 0 1-3.455-4.855 117.41 117.41 0 0 1-5.408 3.397c-20.074 11.859-28.571 8.812-47.98 1.53a4864.8 4864.8 0 0 1-5.656-2.126 14.906 14.906 0 0 1-2.344 4.403c-7.907 10.242-33.018 15.202-46.492 4.39a22.859 22.859 0 0 1-7.29-10.333 40.216 40.216 0 0 1-3.457 12.884c-5.429 11.876-15.07 17.668-44.438 14.62a193.53 193.53 0 0 1-15.586-2.262 97.93 97.93 0 0 1 8.809 12.738c12.452 21.455 12.958 41.103 12.958 41.103 0.045 4.51-0.634 8.482-2.163 11.82a19.516 19.516 0 0 1-7.535 8.507 56.142 56.142 0 0 1 12.427 1.252c27.513 5.917 40.248 30.3 34.242 44.35a16.445 16.445 0 0 1-4.634 6.202 112.9 112.9 0 0 1 8.442 3.037c22.584 9.153 25.348 18.786 26.82 31.599l0.581 5.052 4.984 1.009c5.264 1.066 19.73 16.009 21.132 33.357a34.382 34.382 0 0 1-0.459 9.007 16.942 16.942 0 0 1 7.911-2.587c7.543-0.513 16.096 3.978 20.84 17.996a49.3 49.3 0 0 1 1.528 5.576 161.05 161.05 0 0 1 5.984-0.875c20.031-2.545 24.904 0.664 37.602 23.467a378.91 378.91 0 0 1 2.538 4.634 161.41 161.41 0 0 1 5.08-1.203c28.544-6.272 38.048-0.234 39.148 17.897a54.266 54.266 0 0 1-0.11 8.047 82.928 82.928 0 0 0 8.778-1.676c15.894-3.931 26.427-11.533 40.086 8.321a67.078 67.078 0 0 1 8.15 16.147 33.129 33.129 0 0 1 3.807-16.845c6.61-12.513 19.012-16.576 19.012-16.576 6.993-2.079 17.654-1.232 31.748 12.161l11.106 10.555 0.708-15.306c1.028-22.206 27.232-29.754 48.244-12.244a49.708 49.708 0 0 1 8.145 8.632 73.23 73.23 0 0 1 2.96-11.744c6.492-18.977 17.29-25.082 36.13-22.209l-0.114-0.018c40.806 6.91 71.785 40.188 108.21 68.636l-0.624-0.55c24.228 24.06 56.377 64.697 71.67 84.483z" fill-opacity=".957"/>
 <path d="m1082.4 1857.5c-6.353 7.216-11.181 15.708-14.331 22.158a120.59 120.59 0 0 0-3.234 7.193 84.688 84.688 0 0 0-0.983 2.514l-0.049 0.135c-0.01 0.032-0.017 0.048-0.017 0.048s0.015-0.01 0.044-0.024c0.03-0.015 0.071-0.04 0.127-0.07a94.913 94.913 0 0 0 2.337-1.348 133.34 133.34 0 0 0 6.638-4.234c5.905-4.012 13.67-9.958 19.976-17.12 19.01-21.593 45.397-50.989 64.441-69.9l-0.623 0.549c36.423-28.45 67.4-61.727 108.21-68.636l-0.114 0.018c18.84-2.872 29.637 3.232 36.13 22.209a73.23 73.23 0 0 1 2.96 11.744 49.707 49.707 0 0 1 8.145-8.632c21.01-17.51 47.216-9.962 48.244 12.244l0.708 15.306 11.106-10.555c14.093-13.394 24.754-14.24 31.748-12.161 0 0 12.402 4.063 19.012 16.576a33.129 33.129 0 0 1 3.807 16.845 67.077 67.077 0 0 1 8.15-16.147c13.658-19.854 24.192-12.253 40.085-8.321a82.928 82.928 0 0 0 8.778 1.676 54.266 54.266 0 0 1-0.11-8.047c1.1-18.132 10.604-24.17 39.148-17.897a161.41 161.41 0 0 1 5.08 1.203 378.92 378.92 0 0 1 2.539-4.635c12.697-22.802 17.57-26.01 37.602-23.467a161.06 161.06 0 0 1 5.984 0.875 49.301 49.301 0 0 1 1.529-5.575c4.742-14.018 13.296-18.51 20.839-17.996a16.942 16.942 0 0 1 7.91 2.586 34.382 34.382 0 0 1-0.459-9.007c1.402-17.348 15.868-32.29 21.132-33.357l4.984-1.009 0.581-5.052c1.473-12.814 4.237-22.446 26.821-31.599a112.9 112.9 0 0 1 8.441-3.036 16.445 16.445 0 0 1-4.634-6.203c-6.006-14.049 6.729-38.432 34.242-44.35a56.142 56.142 0 0 1 12.427-1.251 19.516 19.516 0 0 1-7.534-8.507c-1.53-3.339-2.208-7.31-2.163-11.82 0 0 0.506-19.65 12.958-41.104a97.929 97.929 0 0 1 8.809-12.738 193.53 193.53 0 0 1-15.586 2.262c-29.368 3.049-39.01-2.744-44.438-14.62a40.216 40.216 0 0 1-3.457-12.884 22.859 22.859 0 0 1-7.29 10.334c-13.474 10.811-38.586 5.851-46.492-4.39a14.906 14.906 0 0 1-2.345-4.403 4865.4 4865.4 0 0 1-5.655 2.126c-19.41 7.282-27.906 10.329-47.98-1.53a117.41 117.41 0 0 1-5.408-3.397 32.216 32.216 0 0 1-3.456 4.854c-11.807 13.703-30.599 12.173-44.47 4.81a49.607 49.607 0 0 1-5.159-3.154 26.549 26.549 0 0 1-3.343 4.673c-12.512 14-36.21 10.628-41.006 7.603l-4.884-3.081-3.953 4.21c-12.786 13.615-25.418 23.538-42.338 20.245a36.67 36.67 0 0 1-7.903-2.492 37.205 37.205 0 0 1-0.352 8.289c-2.468 15.883-14.367 24.62-29.806 25.769a45.922 45.922 0 0 1-7.578-0.063 23.142 23.142 0 0 1 1.098 7.043c0 13.573-11.941 20.723-27.954 29.684a1237.2 1237.2 0 0 1-5.675 3.157 22.186 22.186 0 0 1 2.44 5.126c3.619 11.078-2.265 22.636-13.386 23.37l-10.802 0.714 5.083 9.557c5.83 10.963 5.765 25.202-3.703 41.57l2.059-2.239c-49.335 34.36-31.821 21.913-52.388 35.355a1181.7 1181.7 0 0 1-19.397 12.435 645.81 645.81 0 0 1-9.905 6.084 338.82 338.82 0 0 1-9.597 5.579c-3.228 1.796-5.913 3.187-8.083 4.176l8.84 10.078 198.98-318.51-0.565 0.78 19.846-23.748-6.109 2.472 17.306 1.832-3.56-1.435 28.057 21.814a48.979 48.979 0 0 1 4.07-4.467c14.716-14.27 36.612-17.578 47.425-8.673l7.02 5.783 3.793-8.268c7.584-16.538 33.112-26.524 46.598-22.352l8.196 2.535 0.838-8.539c1.698-17.299 20.455-33.97 37.842-37.564a37.74 37.74 0 0 1 4.752-0.67 97.563 97.563 0 0 1 0.73-4.994c5.745-33.285 25.207-42.913 46.093-44.319a79.209 79.209 0 0 1 12.346 0.133 26.992 26.992 0 0 1-6.275-9.61c-6.814-17.874 8.593-34.54 22.245-41.382a43.734 43.734 0 0 1 7.949-3.056 16.306 16.306 0 0 1-4.698-6.066c-8.112-18.09 18.484-47.159 24.207-50.61l5.007-3.019-2.079-5.465c-7.166-18.837 6.997-48.803 18.046-63.163a69.86 69.86 0 0 1 4.332-5.104 31.858 31.858 0 0 1-4.885-4.07c-18.36-18.693-3.86-50.065 14.104-71.628l5.014-6.02-6.544-4.308c-8.942-5.887-8.213-48.497 2.226-60.749l5.869-6.887-8.141-3.95c-17.713-8.595-17.19-43.796-1.634-64.411a48.131 48.131 0 0 1 4.92-5.568 74.462 74.462 0 0 1-6.306-4.247c-8.794-6.6-23.967-21.034-20.428-57.648a123.08 123.08 0 0 1 3.034-17.73 327.37 327.37 0 0 0-14.55 11.735c-27.338 23.367-30.114 33.536-59.434 28.11a126.97 126.97 0 0 1-9.179-2.053 14.896 14.896 0 0 1 0.981 7.908c-2.512 16.926-35.012 35.081-59.672 33.167a44.511 44.511 0 0 1-6.61-1.017 49.673 49.673 0 0 1-0.808 6.688c-3.104 16.31-16.838 43.957-45.221 43.234a43.206 43.206 0 0 1-7.106-0.773 66.212 66.212 0 0 1-0.058 7.327c-1.82 28.714-22.106 52.278-41.85 51.582a24.127 24.127 0 0 1-10.158-2.643 52.575 52.575 0 0 1 3.006 10.79c3.79 22.746-8.679 40.237-39.696 49.188a117.11 117.11 0 0 1-4.98 1.32 102.78 102.78 0 0 1-0.073 5.131c-0.842 21.438-9.44 69.198-44.99 87.93a63.327 63.327 0 0 1-6.102 2.812 30.358 30.358 0 0 1 2.778 5.747c9.723 27.057-21.773 60.187-38.63 69.08l-7.706 4.065 5.629 6.65c12.897 15.234 5.36 60.303-8.875 82.967a61.083 61.083 0 0 1-7.503 9.647 12.401 12.401 0 0 1 10.31 0.342c2.759 1.374 5.743 4.144 8.888 8.353 6.389 8.549 11.792 20.889 15.65 31.408 1.14 3.107 3.33 8.522 5.948 18.542l0.639-5.143-98.387 178.96 0.395-0.637-115.09 164.72 12.606 2.657-15.1-76.639-1.168 5.417c11.81-16.563 30.317-20.265 30.317-20.265l7.05-1.25-1.408-7.02c-3.25-16.2-5.446-36.563 12.86-45.953l9.786-5.02-8.692-6.74c-10.623-8.238-6.061-25.137 4.435-34.645l8.344-7.557-10.47-4.14c-10.513-4.157-2.958-28.813 4.205-37.494a19.259 19.259 0 0 1 5.786-4.733 56.792 56.792 0 0 1-6.562-4.978c-10.71-9.422-17.226-22.313-11.087-44.523a81.986 81.986 0 0 1 1.96-6.141 51.157 51.157 0 0 1-5.922-2.146c-15.223-6.6-23.844-19.138-17.493-33.019l3.823-8.357-9.073-1.466c-14.613-2.36-16.319-16.538-14.534-27.218a43.748 43.748 0 0 1 1.77-6.987 68.779 68.779 0 0 1-7.323-1.035c-15.256-3-29.48-11.171-36.393-31.666a64.594 64.594 0 0 1-2.57-10.392 1211.7 1211.7 0 0 1-8.568 7.272c-14.332 12.051-21.06 17.142-38.758 13.385a76.997 76.997 0 0 1-6.92-1.808 69.353 69.353 0 0 1-1.333 6.993c-4.033 16.493-14.643 33.631-37.19 34.778a46.12 46.12 0 0 1-7.412-0.22 272.8 272.8 0 0 1 0.794 7.818c2.33 26.769-0.6 38.91-16.218 53.785a103.05 103.05 0 0 1-4.53 4.065 46.456 46.456 0 0 1 3.442 4.747c10.596 16.747 4.913 31.48-4.697 39.694a31.922 31.922 0 0 1-6.068 4.083 38.856 38.856 0 0 1 5.038 5.467c7.245 9.555 8.59 20.515 1.35 42.306a167.16 167.16 0 0 1-1.836 5.237 32.849 32.849 0 0 1 4.402 2.66c14.88 10.665 12.177 27.558 8.176 48.924a1567.5 1567.5 0 0 1-1.744 9.165 11.406 11.406 0 0 1 7.292-1.005c12.007 2.329 15.915 23.126 16.436 35.719a78.227 78.227 0 0 1-0.094 8.25 8.864 8.864 0 0 1 6.237-1.591c9.973 1.222 35.06 21.506 36.754 38.499l0.829 8.317 8.042-2.276s22.133-5.742 40.526 8.574l-2.635-4.569 7.12 51.729-0.062-1.169c-0.535 17.474-2.713 26.254-2.713 26.254-0.556 2.792-1.142 5.024-1.826 6.809-12.812 33.459-49.047 82.558-71.824 111.6l0.062-0.078c-9.488 11.748-13.637 27.987-13.65 28.042 0.05-0.025 14.967-7.392 24.541-19.246l0.062-0.078c22.917-29.218 60.321-79.817 73.882-115.23 0 0 4.538-7.608 5.459-37.64a314.73 314.73 0 0 0 0.018-0.59l-7.575-55.028a59.784 59.784 0 0 0-2.26-1.85c-24.323-18.932-52.937-10.998-52.937-10.998l8.871 6.042c-2.33-23.38-31.653-48.884-48.982-51.007l6.143 6.659c-0.596-14.422-4.855-44.442-27.758-48.885l5.547 8.16c4.042-21.587 8.318-47.04-13.78-62.88l2.564 7.897c8.05-24.232 7.318-40.935-3.48-55.178l-1.03 9.55c14.98-12.801 22.046-34.723 7.431-57.821l-1.088 8.812c20.177-19.215 23.077-35.64 20.511-65.137l-6.617 7.597c30.309-1.542 45.06-24.922 50.077-45.435l-8.254 5.185c25.217 5.353 36.268-4.25 50.675-16.364l-11.138-3.12c8.825 26.155 27.666 37.133 46.957 40.927l-5.553-8.022c-2.6 15.552 1.373 39.352 26.11 43.347l-5.25-9.823c-10.318 22.552 4 42.732 24.655 51.688l-3.962-8.287c-7.528 27.237 0.966 46.124 15.333 58.764l-0.775-9.71c-11.45 13.875-21.918 50.183 1.447 59.422l-2.126-11.698c-15.542 14.078-22.79 41.216-3.615 56.084l1.094-11.76c-27.365 14.038-23.706 43.67-20.196 61.165l5.642-8.27s-23.86 4.304-39.273 25.923a62.465 62.465 0 0 0-1.732 2.56l18.845 95.641 124.73-178.52 99.901-181.72a269.14 269.14 0 0 0-0.695-2.717c-10.327-39.509-23.928-54.79-23.928-54.79-3.832-5.128-8.47-9.818-13.86-12.504l2.806 9.99c16.05-25.556 25.965-77.89 7.704-99.46l-2.076 10.713c21.442-11.31 58.136-50.4 45.274-86.197l-3.325 8.56c42.232-22.252 51.512-75.832 52.452-99.766l-5.053 6.451c36.366-10.495 54.843-33.605 49.624-64.94l-7.152 8.146c29.199 1.03 54.153-30.58 56.315-64.687l-7.164 6.555c37.276 0.949 55.333-33.604 59.33-54.612l-7.418 5.67c29.87 2.318 70.661-18.505 74.603-45.07l-8.198 5.855c37.172 6.88 46.41-10.148 71.078-31.234l-11.516-5.994c-4.159 43.028 14.48 61.576 25.96 70.192l-1.386-9.815c-19.291 25.566-21.061 71.97 6.698 85.44l-2.273-10.839c-14.66 17.206-17.182 69.73 0.733 81.523l-1.53-10.327c-19.942 23.938-39.378 63.884-13.336 90.4l-0.553-9.174c-12.452 16.183-29.527 51.732-20.036 76.678l2.928-8.483c-11.572 6.976-41.378 42.4-29.753 68.327l3.251-9.123c-18.08 9.061-39.164 32.367-29.055 58.884l6.07-9.477c-26.43 1.78-52.02 15.767-58.95 55.906l5.482-5.665c-22.798 4.713-46.513 25.172-48.941 49.907l9.035-6.003c-20.84-6.446-53.002 7.085-63.461 29.89l10.813-2.485c-17.683-14.563-47.632-8.453-66.071 9.43l9.17-0.501-24.531-19.073-23.004-2.435-22.55 26.984-208.85 334.33a65.677 65.677 0 0 0 18.462-5.326c2.579-1.175 5.702-2.8 9.082-4.68a353.01 353.01 0 0 0 10.001-5.813 660.84 660.84 0 0 0 10.121-6.216 1192.6 1192.6 0 0 0 19.631-12.585c20.798-13.594 3.283-1.149 52.73-35.585a26940 26940 0 0 0 1.252-0.872 89.358 89.358 0 0 0 0.807-1.368c11.464-19.819 12.467-39.128 3.945-55.154l-5.72 10.272c21.275-1.405 32.049-22.477 25.772-41.688l-3.235 8.283c16.042-8.978 35.117-19.321 35.117-41.901l-6.48 6.98c21.06-1.567 39.054-14.763 42.6-37.58l-8.255 5.796c24.903 4.848 41.506-9.801 55.218-24.404l-8.838 1.128c11.368 7.172 42.48 8.277 58.915-10.115l-8.5 1.52c18.176 9.646 44.488 11.864 61.64-8.039l-8.864 1.457c25.805 15.245 40.485 9.914 60.019 2.585l-8-2.276c12.97 16.802 47 22.268 66.335 6.755l-10.747-2.55c8.676 18.98 25.766 26.136 58.616 22.726l-6.777-10.476c-14.552 25.074-14.848 47.992-14.848 47.992-0.06 5.963 0.845 12.136 3.434 17.789l4.892-9.758c-34.05 7.323-54.53 39.307-44.17 63.54l3.806-9.24c-28.956 11.735-33.66 27.227-35.47 42.975l5.564-6.06c-13.368 2.707-30.593 24.733-32.308 45.95l7.452-6.42c-15.323-1.041-28.575 8.341-35.05 27.478l7.513-4.7c-27.593-3.506-37.165 4.625-51.598 30.543l7.618-3.431c-34.512-7.584-54.345 1.361-56.127 30.723l8.668-6.371c-5.126-1.268-33.782-16.84-54.982 13.976l11.956 0.698c-6.805-12.882-18.942-19.761-18.942-19.761-13.493-7.885-32.335-8.703-53.842 11.736l11.815 4.75c-1.632-35.273-42.456-46.299-71.19-22.352l11.103 3.112c-8.6-25.136-26.296-35.358-51.486-31.518a76.248 76.248 0 0 0-0.057 0.01 106.26 106.26 0 0 0-0.056 0.01c-45.348 7.679-78.96 43.658-114.49 71.407a397.72 397.72 0 0 1-0.325 0.254 485.24 485.24 0 0 0-0.298 0.296c-19.323 19.188-46.032 48.944-65.084 70.583z"/>
</svg>
