<?xml version="1.0" encoding="UTF-8" standalone="no"?>
<svg
   xmlns:dc="http://purl.org/dc/elements/1.1/"
   xmlns:cc="http://creativecommons.org/ns#"
   xmlns:rdf="http://www.w3.org/1999/02/22-rdf-syntax-ns#"
   xmlns:svg="http://www.w3.org/2000/svg"
   xmlns="http://www.w3.org/2000/svg"
   xmlns:sodipodi="http://sodipodi.sourceforge.net/DTD/sodipodi-0.dtd"
   xmlns:inkscape="http://www.inkscape.org/namespaces/inkscape"
   width="800"
   height="904.98"
   version="1.1"
   id="svg70"
   sodipodi:docname="CHE Wessen COA.svg"
   inkscape:version="0.92.3 (2405546, 2018-03-11)">
  <metadata
     id="metadata76">
    <rdf:RDF>
      <cc:Work
         rdf:about="">
        <dc:format>image/svg+xml</dc:format>
        <dc:type
           rdf:resource="http://purl.org/dc/dcmitype/StillImage" />
        <dc:title></dc:title>
      </cc:Work>
    </rdf:RDF>
  </metadata>
  <defs
     id="defs74" />
  <sodipodi:namedview
     pagecolor="#ffffff"
     bordercolor="#666666"
     borderopacity="1"
     objecttolerance="10"
     gridtolerance="10"
     guidetolerance="10"
     inkscape:pageopacity="0"
     inkscape:pageshadow="2"
     inkscape:window-width="1920"
     inkscape:window-height="1017"
     id="namedview72"
     showgrid="false"
     inkscape:zoom="0.57162449"
     inkscape:cx="30.760383"
     inkscape:cy="423.50498"
     inkscape:window-x="-8"
     inkscape:window-y="-8"
     inkscape:window-maximized="1"
     inkscape:current-layer="svg70" />
  <path
     d="M6.452 6.452v498.59c.034 217.32 176.22 393.49 393.55 393.49s393.52-176.16 393.55-393.49V6.452z"
     fill="#0093dd"
     stroke="#000"
     stroke-width="12.904"
     id="path2"
     style="fill:#ffffff" />
  <g
     id="g906"
     transform="matrix(0.71125772,0,0,0.66495717,61.725667,57.20359)"
     style="stroke-width:1.93877935">
    <g
       style="fill:#000000;stroke:none;stroke-width:1.93877935"
       id="g10"
       transform="matrix(0.1,0,0,-0.1,-65.642456,1110.4608)">
      <path
         inkscape:connector-curvature="0"
         id="path2-6"
         d="m 6229,11096 c -56,-15 -115,-50 -199,-119 -57,-46 -65,-57 -65,-87 0,-34 1,-35 52,-42 54,-8 248,-75 316,-110 21,-10 56,-35 78,-55 38,-34 41,-35 82,-25 23,6 67,14 97,17 82,9 158,66 120,90 -5,3 -10,26 -10,49 0,60 -59,175 -109,215 -64,51 -124,71 -225,75 -51,2 -111,-1 -137,-8 z"
         style="stroke-width:1.93877935" />
      <path
         inkscape:connector-curvature="0"
         id="path4-7"
         d="m 5515,10864 c -192,-22 -476,-134 -610,-238 -22,-18 -65,-49 -95,-71 -30,-21 -61,-47 -68,-57 -24,-33 -87,-66 -138,-72 -27,-3 -76,-10 -109,-16 -74,-12 -293,-12 -360,1 -27,5 -76,12 -107,15 -52,6 -61,4 -94,-21 -37,-29 -64,-77 -64,-118 0,-20 9,-25 64,-40 72,-19 88,-16 111,19 21,32 68,30 73,-2 7,-47 -114,-90 -178,-64 -33,14 -75,7 -83,-13 -10,-26 40,-186 70,-225 48,-63 96,-184 91,-230 -3,-24 -8,-28 -52,-33 -26,-3 -71,-2 -100,2 -28,4 -88,8 -134,8 -89,1 -200,22 -269,52 -57,24 -133,97 -161,153 -34,67 -56,206 -43,268 16,72 14,147 -3,154 -26,10 -188,-107 -291,-210 -149,-150 -180,-227 -156,-387 22,-141 94,-253 222,-345 164,-118 222,-134 414,-115 76,7 144,21 217,45 59,19 142,41 185,50 83,16 366,26 379,13 8,-8 -6,-38 -86,-177 -29,-50 -45,-91 -48,-122 -2,-26 -10,-52 -16,-56 -6,-5 -54,-17 -106,-27 -129,-23 -627,-32 -784,-13 -104,12 -110,14 -116,38 -15,56 -98,168 -155,208 -67,49 -123,60 -202,42 -47,-10 -57,-10 -71,3 -23,21 -107,30 -147,16 -28,-10 -39,-9 -77,9 -57,28 -73,28 -131,-4 -35,-18 -56,-24 -78,-19 -54,12 -109,-5 -155,-47 -39,-36 -47,-40 -80,-34 -83,16 -165,-38 -215,-141 l -21,-43 -86,-1 c -48,-1 -157,-1 -242,-1 -178,1 -258,-9 -341,-43 -71,-29 -115,-63 -192,-152 -125,-146 -157,-233 -192,-538 -9,-77 -20,-170 -25,-206 -18,-128 35,-393 91,-457 73,-82 123,-106 303,-142 102,-21 101,-21 296,5 l 45,6 46,-58 c 25,-32 58,-78 74,-103 16,-25 61,-95 100,-155 40,-61 91,-146 114,-190 23,-44 45,-87 51,-95 5,-8 44,-76 86,-150 77,-135 152,-244 216,-311 30,-31 268,-199 283,-199 4,0 41,-16 83,-36 127,-59 238,-98 328,-113 33,-6 84,-15 115,-20 74,-12 211,-17 227,-7 20,12 14,36 -20,75 -48,54 -20,51 133,-18 194,-86 263,-109 283,-92 9,7 16,17 16,21 0,4 -29,42 -65,85 -65,79 -74,95 -54,95 16,0 225,-79 304,-115 17,-8 52,-20 78,-27 41,-11 49,-10 57,2 6,8 10,18 10,21 0,3 -36,45 -80,93 -44,49 -80,94 -80,101 0,18 30,10 262,-68 108,-37 204,-64 212,-61 28,11 17,39 -31,89 -60,62 -49,66 90,31 101,-26 152,-31 180,-21 11,5 10,14 -9,53 -12,26 -25,58 -29,71 -8,27 -20,27 130,-3 44,-8 98,-20 120,-26 22,-5 63,-10 92,-10 h 51 l -41,64 c -23,36 -47,65 -54,65 -17,1 -24,17 -17,36 6,15 15,16 58,9 28,-4 89,-8 136,-9 47,-1 118,-5 158,-9 66,-8 72,-7 72,10 -1,11 -24,37 -52,59 -87,69 -129,108 -126,117 2,5 41,24 87,43 126,52 282,155 389,256 51,49 97,89 102,89 36,0 -62,-113 -208,-240 -70,-61 -73,-63 -187,-115 -44,-21 -82,-39 -84,-41 -2,-2 30,-36 71,-76 92,-89 113,-120 100,-144 -15,-26 -174,-26 -369,0 -48,7 -43,-17 22,-97 54,-66 70,-112 42,-123 -7,-2 -35,2 -62,11 -28,8 -63,15 -80,15 -16,0 -70,11 -120,25 -49,14 -100,25 -112,25 -21,0 -22,-1 -7,-37 8,-21 20,-49 27,-62 10,-19 9,-25 -8,-37 -26,-19 -39,-18 -60,6 -26,28 -36,15 -30,-38 27,-259 26,-255 61,-307 19,-28 34,-54 34,-58 0,-5 19,-35 43,-69 23,-33 47,-68 53,-78 13,-23 127,-150 224,-248 110,-113 268,-239 338,-272 23,-11 73,-43 110,-72 37,-30 86,-66 109,-81 59,-38 181,-161 238,-241 25,-36 51,-66 56,-66 5,0 13,-8 16,-17 5,-13 186,-288 198,-301 2,-2 16,6 32,18 23,16 36,43 61,118 70,217 74,254 87,729 1,66 6,127 10,133 11,18 27,-15 31,-64 2,-23 8,-73 14,-113 12,-88 3,-327 -16,-447 -8,-49 -26,-123 -40,-165 -58,-179 -82,-218 -216,-354 -114,-114 -131,-171 -119,-379 5,-75 12,-143 17,-150 7,-13 78,-118 117,-174 20,-30 45,-68 74,-118 39,-67 199,-226 283,-281 129,-85 506,-422 670,-600 283,-307 422,-521 440,-673 11,-97 1,-148 -39,-211 -42,-65 -96,-85 -226,-84 -96,1 -143,14 -335,98 -202,88 -243,99 -385,99 -117,0 -137,-3 -198,-27 -83,-32 -157,-80 -245,-160 -81,-73 -85,-79 -68,-103 13,-18 16,-17 68,9 55,28 211,58 225,43 4,-4 -5,-19 -22,-33 -51,-42 -207,-154 -247,-176 -26,-15 -38,-29 -38,-45 0,-29 24,-38 53,-20 12,8 49,22 82,31 67,18 225,34 225,22 0,-11 -36,-39 -172,-131 -140,-94 -153,-106 -144,-129 8,-21 26,-19 112,10 44,15 110,27 162,31 48,3 102,10 120,14 35,9 62,4 62,-11 0,-4 -79,-60 -175,-123 -96,-64 -175,-122 -175,-130 0,-31 27,-38 67,-17 42,21 280,67 291,56 8,-7 -7,-21 -162,-149 -83,-68 -106,-93 -104,-110 4,-26 24,-26 93,2 62,24 172,63 245,87 30,10 60,21 65,25 18,13 156,51 205,57 37,4 77,-3 177,-30 183,-52 224,-49 588,34 120,28 284,73 380,104 22,8 81,23 130,34 115,27 286,92 331,126 19,14 53,52 77,83 23,31 45,58 49,60 21,10 67,127 78,197 12,80 1,262 -21,338 -23,80 -1,87 85,27 50,-35 86,-50 86,-36 0,9 -44,82 -61,101 -10,11 -32,53 -48,93 -17,40 -39,85 -49,100 -44,63 -145,272 -136,281 5,5 46,-4 98,-21 78,-26 90,-28 103,-15 13,13 13,18 -1,45 -9,17 -21,34 -27,37 -25,16 -111,170 -185,330 -59,130 -64,144 -55,149 5,4 41,-12 80,-34 97,-55 108,-53 69,10 -11,19 -36,64 -54,100 -17,36 -53,94 -80,130 -81,110 -132,211 -106,210 4,-1 41,-18 82,-40 48,-25 78,-36 84,-30 13,13 -48,139 -98,203 -21,28 -61,86 -89,131 -52,84 -111,167 -159,224 -15,18 -28,37 -28,42 0,17 39,11 89,-15 27,-13 69,-26 93,-27 39,-3 43,-1 46,22 3,29 7,21 -118,226 -170,278 -228,379 -233,404 -3,14 -8,35 -12,48 -7,19 -4,22 23,22 16,0 54,-11 85,-25 64,-29 198,-58 211,-45 5,5 -1,27 -13,52 -11,25 -21,49 -21,54 0,32 -130,202 -236,309 -303,307 -357,381 -429,585 -20,58 -49,137 -65,175 -15,39 -40,104 -54,145 -14,41 -37,107 -52,145 -59,153 -120,353 -170,555 -27,106 -29,128 -27,285 3,200 9,336 26,535 7,80 11,233 10,341 -2,216 -18,316 -74,454 -16,38 -29,72 -29,74 0,2 15,0 33,-3 59,-12 69,-11 80,6 8,11 8,27 -1,55 -6,21 -20,69 -31,107 -12,38 -39,100 -61,139 -38,66 -48,96 -20,62 7,-8 23,-15 36,-15 19,0 26,7 30,30 5,25 12,30 43,35 20,3 108,20 196,36 88,17 196,37 240,45 44,8 98,20 120,26 22,6 76,15 120,19 127,13 254,28 335,39 41,5 143,17 225,25 365,35 663,82 825,129 30,9 80,20 110,25 79,14 232,83 291,132 51,43 133,146 182,230 15,26 43,105 62,175 19,71 44,158 56,192 30,93 39,201 39,442 0,245 -8,317 -43,394 -36,79 -46,82 -201,61 -98,-13 -155,-27 -226,-55 -52,-20 -135,-47 -185,-58 -49,-12 -124,-36 -165,-53 -109,-45 -205,-75 -285,-88 -121,-21 -657,-185 -690,-211 -5,-5 -59,-22 -120,-40 -60,-18 -127,-41 -148,-52 -89,-45 -451,-148 -522,-148 -27,0 -93,-6 -145,-14 -169,-25 -322,-36 -440,-34 -96,3 -115,6 -118,19 -2,11 17,26 61,47 76,38 230,191 266,264 23,49 54,200 44,223 -3,9 0,21 5,28 15,18 -8,102 -46,169 -52,90 -176,188 -238,188 -12,0 -26,5 -29,10 -10,15 -44,12 -150,-15 -83,-21 -109,-33 -174,-80 -42,-30 -82,-55 -88,-55 -33,0 2,52 70,104 20,16 37,35 37,42 0,37 -180,122 -380,180 -138,40 -406,70 -515,58 z m -195,-281 c 0,-9 -9,-26 -20,-38 -10,-11 -21,-36 -22,-55 -3,-33 -1,-35 37,-43 113,-24 126,-30 180,-82 30,-29 55,-60 55,-69 0,-21 -16,-21 -24,0 -3,9 -12,14 -20,11 -8,-3 -24,5 -36,18 -35,37 -142,70 -265,81 -27,3 -54,9 -59,14 -5,5 13,34 45,72 88,103 129,131 129,91 z m 1390,-212 35,-29 v -113 c 0,-149 -14,-176 -110,-208 -77,-25 -85,-25 -85,-8 0,8 19,22 43,33 28,13 53,35 75,69 l 33,49 -7,91 c -4,53 -12,96 -20,106 -15,17 -19,39 -6,39 4,0 23,-13 42,-29 z m 3134,-57 c 28,-58 28,-64 37,-299 10,-266 4,-323 -51,-505 -16,-52 -38,-131 -50,-175 -25,-90 -73,-183 -138,-265 -46,-57 -101,-109 -115,-110 -5,0 -23,-6 -40,-14 -49,-22 -271,-94 -356,-115 -160,-40 -406,-82 -596,-101 -204,-20 -390,-41 -460,-50 -38,-6 -117,-14 -175,-20 -58,-5 -186,-25 -285,-44 -483,-93 -526,-99 -543,-78 -7,10 -16,28 -19,42 -3,14 -33,76 -65,138 -57,110 -58,112 -34,112 14,0 41,-14 60,-31 41,-36 79,-37 84,-1 4,29 -86,218 -143,297 -60,85 -59,103 4,70 24,-12 31,-12 46,-1 21,15 20,20 -28,133 -37,88 -83,158 -155,236 -56,62 -53,81 13,84 102,5 283,24 364,38 46,8 112,15 147,15 77,0 164,18 309,65 60,19 114,35 119,35 5,0 48,14 95,31 148,54 183,66 291,100 58,18 136,48 174,67 38,19 90,40 115,47 123,36 219,67 246,79 17,8 88,26 159,41 114,23 293,81 356,115 12,6 42,15 68,20 53,9 183,47 287,83 90,32 203,47 230,32 11,-6 33,-38 49,-71 z m -4648,1 c 2,-39 4,-43 35,-55 37,-16 49,-4 49,48 0,36 8,38 61,21 60,-21 106,-79 62,-79 -10,0 -26,-7 -37,-15 -27,-21 -96,-28 -142,-16 -49,13 -111,86 -92,108 17,21 63,12 64,-12 z m -707,-390 c 12,-12 10,-20 -12,-57 -48,-81 -97,-109 -97,-55 -1,12 -9,40 -20,62 -11,22 -19,44 -20,48 -1,27 120,29 149,2 z m -312,-11 c 2,-5 -15,-36 -38,-68 -45,-63 -56,-63 -77,2 -15,45 -7,60 41,71 50,11 69,10 74,-5 z m 549,-55 c 17,-19 16,-21 -11,-49 -15,-16 -32,-27 -37,-24 -4,3 -8,27 -8,54 0,43 2,48 19,43 11,-3 28,-14 37,-24 z m -431,-9 c 8,-16 18,-50 21,-74 7,-50 9,-49 -91,-60 -68,-8 -82,2 -58,40 38,61 88,123 100,124 7,0 19,-13 28,-30 z m 298,-2 c 4,-13 9,-54 13,-92 l 7,-69 -69,7 c -38,4 -76,13 -84,21 -12,13 -10,19 16,47 17,18 43,50 58,71 31,42 51,47 59,15 z m 271,-85 c 47,-45 96,-120 96,-145 0,-24 -18,-23 -114,8 -121,39 -136,45 -136,57 0,15 90,117 104,117 6,0 29,-17 50,-37 z m -399,-383 c 8,-13 -56,-130 -71,-130 -6,0 -23,28 -37,62 -21,47 -24,64 -15,70 19,11 116,10 123,-2 z m 195,-20 c 12,-8 12,-14 -3,-45 -10,-20 -23,-35 -30,-32 -19,6 -41,52 -34,70 7,18 43,22 67,7 z m -101,-115 c 17,-36 31,-72 31,-80 0,-16 -64,-37 -120,-39 -29,-1 -36,3 -38,21 -3,19 45,130 70,160 15,19 24,9 57,-62 z m 225,34 c 19,-23 32,-47 30,-54 -6,-14 -93,-55 -119,-55 -35,0 -27,53 21,128 20,30 27,28 68,-19 z m 96,31 c 0,-5 -2,-10 -4,-10 -3,0 -8,5 -11,10 -3,6 -1,10 4,10 6,0 11,-4 11,-10 z m -558,-93 c 16,-49 27,-95 24,-103 -4,-11 -26,-14 -91,-14 -79,0 -85,1 -85,21 0,31 92,190 108,187 7,-2 27,-43 44,-91 z m -1418,-92 c 23,-53 -11,-151 -44,-130 -12,7 -12,16 6,128 8,46 20,47 38,2 z m 2452,-79 c 3,-8 -4,-31 -14,-53 -28,-54 -227,-259 -282,-291 -25,-14 -67,-46 -95,-72 -27,-25 -83,-73 -124,-105 -138,-111 -160,-130 -292,-245 -73,-63 -175,-156 -228,-207 -53,-50 -109,-97 -126,-103 -16,-6 -84,-22 -150,-35 -66,-13 -147,-31 -180,-40 -33,-8 -109,-22 -170,-30 -60,-9 -157,-26 -215,-40 -58,-13 -134,-27 -170,-30 -36,-4 -85,-10 -110,-15 -238,-47 -462,-79 -515,-73 -22,2 -78,-2 -125,-11 -46,-8 -88,-12 -92,-10 -4,3 -24,0 -45,-5 -20,-6 -54,-8 -75,-4 -33,5 -44,14 -75,62 -150,232 -196,294 -310,419 -13,14 -23,28 -23,32 0,4 -37,38 -82,76 -45,38 -97,82 -115,98 -44,36 -145,73 -253,91 -47,7 -97,17 -113,21 l -27,6 17,-31 c 10,-17 29,-36 43,-42 14,-6 49,-38 77,-70 80,-89 70,-101 -37,-45 -64,34 -204,75 -216,63 -3,-3 25,-34 62,-69 99,-91 134,-131 134,-150 0,-23 -3,-23 -131,8 -191,45 -220,20 -80,-70 138,-89 156,-119 58,-99 -65,14 -162,11 -202,-6 l -30,-13 25,-20 c 67,-53 170,-151 170,-160 0,-15 -125,0 -183,23 -26,10 -52,19 -57,19 -38,0 34,-81 136,-152 113,-79 143,-103 144,-114 1,-26 -111,-27 -265,-2 -96,16 -167,48 -196,89 -13,19 -28,39 -34,45 -6,7 -22,52 -36,100 -36,134 -33,343 11,589 5,28 13,82 18,122 15,113 68,207 177,318 77,78 99,95 155,116 63,23 73,24 353,24 h 289 l 24,-75 c 13,-41 24,-84 24,-95 0,-11 7,-31 15,-45 13,-24 14,-24 20,-5 4,11 27,61 51,112 24,51 44,97 44,102 0,5 9,26 21,45 21,36 39,39 39,7 0,-10 11,-50 25,-90 14,-40 33,-108 42,-150 24,-119 44,-141 57,-61 11,71 107,310 124,310 10,0 51,-123 62,-185 23,-128 37,-128 68,2 23,96 74,213 92,213 5,0 12,-10 15,-22 33,-142 64,-260 69,-265 4,-4 10,-2 15,3 11,11 71,188 71,208 0,21 22,66 31,66 15,0 29,-39 39,-112 13,-92 28,-138 45,-138 7,0 23,28 35,63 35,95 41,103 86,100 22,-1 129,-7 239,-13 252,-14 723,-5 855,17 65,10 95,12 98,4 2,-6 15,-34 30,-63 23,-45 34,-56 72,-70 58,-22 130,-22 255,-2 115,19 148,14 320,-47 119,-42 216,-46 290,-10 54,26 254,220 281,272 15,31 41,38 50,15 z M 4105,7871 c 3,-5 -17,-36 -43,-68 -97,-116 -285,-275 -419,-355 -43,-26 -87,-56 -98,-68 -43,-48 -345,-155 -510,-181 -212,-33 -334,-23 -465,41 -29,14 -150,196 -192,290 -28,61 -28,65 -11,78 32,23 45,9 79,-83 19,-49 48,-117 65,-151 l 30,-61 97,-31 c 105,-33 222,-46 274,-31 18,5 81,14 140,19 180,17 473,133 449,178 -5,10 -52,55 -105,102 -92,82 -135,142 -123,173 5,12 30,18 187,42 19,3 51,10 70,15 19,5 87,19 150,30 63,11 160,29 215,40 158,30 201,34 210,21 z"
         style="stroke-width:1.93877935" />
      <path
         inkscape:connector-curvature="0"
         id="path6-8"
         d="m 5195,4962 c -11,-10 -58,-43 -105,-72 -47,-29 -108,-69 -137,-87 -28,-18 -112,-68 -185,-109 -213,-122 -463,-305 -626,-459 -87,-81 -192,-213 -216,-269 -8,-17 -28,-62 -45,-99 -21,-44 -46,-130 -69,-240 l -37,-172 v -305 c 0,-286 10,-465 36,-655 24,-171 28,-215 35,-356 10,-214 -7,-249 -156,-324 -139,-70 -194,-85 -309,-85 -85,0 -273,28 -300,44 -4,3 -72,17 -152,31 -212,40 -348,27 -528,-47 -41,-16 -91,-40 -111,-53 -19,-12 -59,-34 -88,-49 -64,-33 -69,-51 -9,-42 113,18 301,13 294,-8 -2,-5 -41,-23 -88,-39 -120,-40 -289,-123 -289,-141 0,-26 17,-27 87,-7 80,23 283,26 290,4 3,-8 -59,-44 -162,-94 -92,-45 -169,-88 -172,-95 -3,-8 0,-21 7,-29 11,-13 16,-13 41,0 68,36 249,59 264,35 11,-17 -10,-35 -133,-111 -149,-93 -151,-94 -129,-116 15,-16 19,-15 64,5 27,13 76,24 113,27 36,3 103,13 150,24 83,18 100,19 100,1 0,-10 -225,-174 -292,-213 -32,-18 -48,-34 -48,-48 0,-23 25,-36 43,-21 25,19 130,52 215,67 48,8 137,29 197,45 146,41 192,51 240,51 81,0 301,-21 355,-35 81,-21 372,-49 524,-50 102,-1 156,4 246,22 63,13 135,27 160,32 73,14 186,47 222,66 40,21 175,141 191,169 6,11 17,47 24,80 67,283 76,390 47,544 -23,122 -14,272 30,486 9,44 20,91 25,105 5,14 12,34 16,45 12,36 25,-5 25,-80 0,-73 10,-102 29,-91 19,12 56,95 91,201 18,55 36,105 41,110 4,6 13,29 20,53 18,62 36,73 44,25 10,-58 13,-65 32,-61 17,3 74,107 138,251 27,60 45,67 45,16 0,-32 23,-48 47,-33 13,8 45,87 75,184 5,19 19,53 31,75 20,40 20,40 35,17 20,-30 47,-28 70,6 17,24 92,177 92,187 0,2 9,25 20,51 24,54 37,50 48,-16 4,-24 12,-45 17,-46 13,-3 105,137 105,160 0,9 -13,36 -28,59 -51,75 -92,203 -118,367 -13,84 -11,136 7,197 12,37 -1,177 -31,349 -11,61 -23,144 -26,185 -7,71 -9,76 -55,126 -27,28 -49,56 -49,61 0,5 -26,29 -57,54 -32,25 -70,58 -85,72 -26,27 -137,86 -161,86 -7,0 -21,-8 -32,-18 z"
         style="stroke-width:1.93877935" />
      <path
         inkscape:connector-curvature="0"
         id="path8-1"
         d="m 5703,4518 c 4,-13 13,-77 22,-143 27,-213 27,-213 95,-145 46,46 49,64 17,111 -12,19 -45,71 -72,117 -49,81 -73,104 -62,60 z"
         style="stroke-width:1.93877935" />
    </g>
    <path
       sodipodi:nodetypes="ccsccscsccccsscssscccsccccscsscccccccccsssccsscc"
       inkscape:connector-curvature="0"
       id="path832"
       d="m 643.17881,257.47655 c -1.2034,-0.18104 -2.44054,-1.95505 -3.41229,-4.89311 -0.42864,-1.29598 -3.10213,-7.01069 -5.9411,-12.69933 -2.83897,-5.68864 -5.25595,-10.72332 -5.37109,-11.18816 -0.16708,-0.67459 -0.0784,-0.88667 0.43919,-1.05078 1.4484,-0.4592 3.1956,0.39615 8.43521,4.12956 2.60918,1.85913 4.89119,2.12848 6.15956,0.72703 1.49919,-1.65652 0.2151,-5.89736 -4.9509,-16.35086 -3.35511,-6.78912 -5.64035,-10.78873 -8.98717,-15.72928 -4.12636,-6.09127 -4.95634,-8.31011 -2.92085,-7.80847 0.48024,0.11835 1.96645,0.70638 3.30269,1.30674 1.33624,0.60035 2.69822,1.09102 3.02662,1.09036 0.91124,-0.002 2.63698,-1.174 3.04483,-2.06817 0.50369,-1.10428 -0.13495,-3.25456 -2.9428,-9.90836 -4.53223,-10.74009 -8.30829,-16.70654 -16.1398,-25.50207 -2.69888,-3.03111 -4.23287,-5.31132 -4.23287,-6.292 0,-1.70706 1.44848,-2.06606 10.8321,-2.6847 9.66441,-0.63715 20.73101,-1.87451 32.61492,-3.64669 2.95647,-0.44089 8.26101,-0.95387 11.78787,-1.13996 10.4615,-0.55202 16.73124,-1.83876 31.74046,-6.51413 4.29308,-1.33727 9.61935,-2.92404 11.8362,-3.52616 2.21685,-0.60212 8.0232,-2.54092 12.90293,-4.30845 4.87972,-1.76753 14.60692,-5.11817 21.6159,-7.44587 12.32242,-4.09229 16.56195,-5.71012 25.00942,-9.5437 4.1655,-1.89039 6.49583,-2.68639 19.5933,-6.69289 4.38068,-1.34002 9.66458,-3.07026 11.742,-3.84496 3.96908,-1.48009 8.59553,-2.71688 18.36488,-4.90942 10.65577,-2.39147 24.2796,-6.63612 31.3452,-9.76591 5.17942,-2.2943 5.8236,-2.5074 11.346,-3.7531 6.16552,-1.39077 15.43852,-4.05157 24.37222,-6.99336 9.28305,-3.05682 13.18748,-3.98493 19.4451,-4.62225 4.3953,-0.44764 6.3342,-0.0786 7.69957,1.46532 2.49241,2.81845 5.35088,8.77854 6.00181,12.51417 0.9339,5.35942 1.89757,30.33505 1.64917,42.74054 -0.22965,11.46718 -0.91462,15.81103 -4.35495,27.61731 -0.89257,3.06312 -2.84302,9.85032 -4.3344,15.08269 -1.4913,5.23235 -3.36105,11.10399 -4.15492,13.04807 -2.51633,6.16205 -6.12983,12.38193 -10.73595,18.47965 -2.20448,2.9184 -9.85883,10.67019 -11.05613,11.19688 -5.46502,2.40409 -27.3528,9.70541 -37.51582,12.51455 -8.20575,2.26813 -24.8712,5.60076 -38.946,7.78812 -9.82088,1.52626 -17.71433,2.49952 -32.4963,4.00676 -15.43553,1.57388 -27.41745,2.90015 -37.27515,4.12597 -4.1178,0.51205 -10.3542,1.22668 -13.85873,1.58807 -11.6961,1.20611 -21.6345,2.78691 -42.03652,6.68633 -12.98093,2.48104 -27.26781,5.08565 -32.19522,5.86943 -3.00157,0.47745 -10.09977,0.99683 -10.44819,0.90459 -0.0876,-0.0232 0.48975,0.0736 0,0 z"
       style="fill:#fcdb00;fill-opacity:0.99215686;stroke:#eedb05;stroke-width:3.08671546;stroke-miterlimit:4;stroke-dasharray:none;stroke-opacity:1" />
    <path
       inkscape:connector-curvature="0"
       id="path836"
       d="m 48.934076,356.77235 c -12.565252,-0.9676 -22.965037,-3.38705 -28.018312,-6.51831 -2.561288,-1.58711 -3.516158,-2.50768 -5.94159,-5.72822 -2.51526,-3.33981 -3.192683,-4.76491 -4.883678,-10.27392 -4.3182627,-14.06822 -4.281212,-33.13649 0.11649,-59.95206 0.591533,-3.60696 1.380248,-8.70861 1.752705,-11.337 0.81297,-5.73711 1.052273,-6.88539 2.124608,-10.19491 2.578792,-7.95884 7.16388,-14.75956 16.194592,-24.02024 7.425803,-7.61491 10.409348,-9.72932 16.662758,-11.80875 5.185567,-1.72434 5.873827,-1.75858 35.409015,-1.7618 l 27.217556,-0.003 1.06026,3.34521 c 1.93392,6.10169 3.26106,10.96392 3.60882,13.22153 0.3475,2.25607 2.05927,6.21051 2.79442,6.45557 0.21209,0.0707 0.47771,-0.13428 0.59028,-0.45549 0.11257,-0.32122 2.18372,-4.90243 4.60256,-10.18048 2.41884,-5.27805 4.70325,-10.5109 5.07646,-11.62858 1.2246,-3.66736 3.76487,-7.60746 4.90472,-7.60746 0.65287,0 1.01888,0.80574 1.2332,2.71481 0.0988,0.87986 0.89397,3.81886 1.7671,6.53112 2.3946,7.43852 3.48495,11.33918 5.02976,17.9936 1.33891,5.76755 2.66255,9.38913 3.52498,9.64463 0.67583,0.20022 1.36703,-1.35429 2.03439,-4.57535 1.78139,-8.598 10.719,-31.03445 12.36264,-31.03445 0.40755,0 1.82095,3.32944 3.2052,7.5502 1.22631,3.73919 2.18157,7.47617 3.67782,14.38772 0.85473,3.94822 1.65562,5.9388 2.38943,5.9388 0.79254,0 1.85614,-2.40147 3.0474,-6.88064 3.12571,-11.75283 6.34911,-20.12945 8.92312,-23.18849 0.7998,-0.95051 0.89763,-0.98521 1.42703,-0.50611 0.62003,0.56113 0.58572,0.44028 3.79612,13.37132 2.44794,9.85992 3.74103,14.51542 4.14573,14.92579 0.64648,0.65551 1.56909,-0.2208 2.55871,-2.43033 1.57139,-3.50844 5.65983,-16.03292 6.05496,-18.54869 0.43905,-2.79541 2.11234,-6.33215 3.05985,-6.46745 1.45472,-0.20773 2.49892,2.94702 4.09151,12.36139 1.20213,7.10625 2.06616,10.24083 3.2154,11.66507 0.60607,0.75109 0.8477,0.85751 1.32074,0.58168 0.78271,-0.45639 2.62474,-4.18216 4.62199,-9.34863 1.24241,-3.21385 1.95095,-4.58573 2.86423,-5.5458 l 1.21347,-1.27561 5.17878,0.21301 c 2.84833,0.11716 10.26827,0.50409 16.48876,0.85985 14.78655,0.84567 41.57371,1.14729 57.82429,0.6511 18.45001,-0.56335 25.86475,-1.05264 34.56713,-2.28105 2.36554,-0.33391 5.11807,-0.60936 6.11676,-0.6121 l 1.81578,-0.005 2.60467,5.10544 c 2.95509,5.79228 4.05723,7.03596 7.4326,8.38722 5.46084,2.18612 13.20551,2.3547 25.35858,0.55197 11.82556,-1.75415 14.53826,-1.44188 29.06147,3.34535 11.11832,3.66488 13.70202,4.2593 19.5396,4.49534 4.97184,0.20103 8.25534,-0.26569 11.69124,-1.66183 3.56096,-1.44695 8.56683,-5.5659 17.74027,-14.59716 6.3514,-6.25293 9.58389,-9.84998 11.5949,-12.90246 1.5429,-2.34202 1.92582,-2.73025 3.02573,-3.0678 1.03831,-0.31867 1.96834,0.59736 1.96834,1.93869 0,1.36659 -1.13096,4.39672 -2.24532,6.01581 -2.06136,2.99491 -6.64853,8.1201 -13.35758,14.92418 -7.49973,7.60593 -10.98046,10.75187 -14.18536,12.82092 -3.13,2.02067 -6.42041,4.6084 -11.25315,8.84992 -2.50947,2.20251 -8.67421,7.34055 -13.69941,11.41789 -16.88925,13.7036 -33.29389,28.00598 -47.84551,41.71403 -4.55034,4.28657 -10.06716,9.00447 -12.03872,10.29535 -1.40853,0.92223 -6.00188,2.10351 -16.79377,4.31888 -4.38063,0.89925 -10.61705,2.26035 -13.85872,3.02466 -7.62041,1.79672 -9.36863,2.13195 -19.11546,3.66557 -10.48028,1.64902 -14.18112,2.3175 -21.18631,3.82687 -8.66763,1.86759 -13.67652,2.74119 -20.90798,3.64656 -3.61426,0.45249 -11.14097,1.66887 -16.72603,2.70304 -21.3792,3.95876 -32.02452,5.39776 -42.65095,5.76541 -4.38062,0.15156 -9.39844,0.5022 -11.15069,0.7792 -6.94613,1.09804 -9.6576,1.42525 -11.94717,1.44172 -1.31418,0.009 -3.24962,0.22489 -4.30098,0.47875 -2.27699,0.54979 -6.65184,0.61073 -8.60153,0.11979 -2.17715,-0.54821 -3.74791,-2.18772 -7.25143,-7.56878 -12.71039,-19.52191 -18.51497,-27.43632 -27.4876,-37.47873 -1.87871,-2.1027 -3.88054,-4.54005 -4.44851,-5.41632 -1.04527,-1.61265 -3.57842,-3.94041 -13.38042,-12.2955 -7.68048,-6.54674 -8.52805,-7.17529 -11.76359,-8.72372 -5.731079,-2.74271 -13.106729,-4.86708 -22.166354,-6.38446 -4.565497,-0.76465 -10.174485,-1.86736 -11.58519,-2.2776 -0.506227,-0.14721 -0.442095,0.11195 0.434873,1.75731 1.3758,2.58126 2.849145,4.24615 4.84368,5.4734 2.440447,1.50163 4.650277,3.51181 7.965412,7.24577 3.670605,4.13434 5.031638,6.02179 5.031638,6.97778 0,0.40722 -0.107528,0.7396 -0.238943,0.73862 -0.903765,-0.007 -3.497917,-1.03639 -8.044425,-3.19299 -9.93834,-4.71416 -21.982792,-8.08815 -21.982792,-6.15798 0,0.28797 3.998925,4.48142 8.886495,9.31879 9.021877,8.92921 10.689915,10.94614 10.49037,12.6846 -0.09966,0.86823 -0.14778,0.8886 -2.013645,0.85244 -1.05135,-0.0203 -4.062038,-0.55482 -6.690413,-1.18766 -8.440455,-2.03225 -12.662475,-2.80732 -16.24815,-2.98282 -3.141427,-0.15376 -3.582862,-0.10775 -4.260862,0.44406 -0.725963,0.59084 -0.736103,0.65478 -0.252188,1.59055 0.789173,1.5261 3.362738,3.64563 9.096255,7.49145 8.595165,5.76531 11.187053,7.92589 11.187053,9.32544 0,0.68271 -3.010703,0.65292 -6.258098,-0.0619 -3.22248,-0.70935 -14.24496,-0.79351 -17.138325,-0.13086 -2.071095,0.47433 -5.595367,1.90377 -5.595367,2.26947 0,0.12647 0.89604,0.93127 1.991197,1.78844 4.872818,3.81394 15.19719,13.29075 16.551578,15.1928 0.955755,1.34224 0.39408,1.57787 -3.25641,1.36614 -4.72773,-0.2742 -9.92937,-1.33905 -14.967773,-3.06412 -4.995067,-1.71024 -5.657242,-1.83229 -5.940217,-1.09488 -0.358335,0.9338 0.687645,2.57062 3.539602,5.53903 3.48612,3.62847 6.910013,6.39289 15.388643,12.42468 3.547507,2.52372 7.27347,5.34279 8.279917,6.26457 1.559288,1.42812 1.778115,1.7618 1.479653,2.25627 -0.782138,1.29579 -6.468563,1.88741 -13.176368,1.37087 z"
       style="fill:#fcdb00;fill-opacity:0.99215686;stroke:#eedb05;stroke-width:3.0883894;stroke-miterlimit:4;stroke-dasharray:none;stroke-opacity:1" />
    <path
       sodipodi:nodetypes="ccccccccccccccccscccsccsccccccc"
       inkscape:connector-curvature="0"
       id="path840"
       d="m 248.01703,87.27114 -11.81451,10.36866 -8.64244,10.06566 -5.26505,6.97803 -2.29206,7.96158 -1.61702,9.51799 3.95409,12.97993 4.55514,7.7337 7.05467,9.30074 9.04251,6.8826 10.51803,6.71607 8.38773,2.67545 5.92541,0.50109 10.56928,-0.22178 11.29965,-1.27266 14.04593,-4.06919 c 0,0 21.16986,-6.15315 25.22409,-6.07352 4.055,0.0797 42.56621,-1.48364 42.56621,-1.48364 l 52.13251,5.6706 3.60445,-15.76945 c 0,0 -19.3739,-7.65945 -21.62668,-7.65945 -2.25278,0 -27.93446,-4.055 -27.93446,-4.055 l -45.9567,-0.45056 c 0,0 -22.6871,0.0226 -30.92906,-0.21396 -8.66305,-0.24869 -27.37458,-8.77452 -27.37458,-8.77452 l -11.12724,-11.44584 -3.32594,-8.55183 -2.4493,-9.10184 2.13876,-24.33471 -2.1514,0.0197 z"
       style="fill:#ef3120;fill-opacity:1;stroke:#ae111e;stroke-width:1.45408463px;stroke-linecap:butt;stroke-linejoin:miter;stroke-opacity:1" />
  </g>
</svg>
