<?xml version="1.0" encoding="UTF-8" standalone="no"?>
<!-- Created with Inkscape (http://www.inkscape.org/) -->

<svg
   xmlns:dc="http://purl.org/dc/elements/1.1/"
   xmlns:cc="http://creativecommons.org/ns#"
   xmlns:rdf="http://www.w3.org/1999/02/22-rdf-syntax-ns#"
   xmlns:svg="http://www.w3.org/2000/svg"
   xmlns="http://www.w3.org/2000/svg"
   xmlns:sodipodi="http://sodipodi.sourceforge.net/DTD/sodipodi-0.dtd"
   xmlns:inkscape="http://www.inkscape.org/namespaces/inkscape"
   version="1.0"
   width="208.86046"
   height="244.65999"
   id="svg2780"
   inkscape:version="0.92.4 (5da689c313, 2019-01-14)"
   sodipodi:docname="Wollerau-blazon.svg">
  <metadata
     id="metadata27">
    <rdf:RDF>
      <cc:Work
         rdf:about="">
        <dc:format>image/svg+xml</dc:format>
        <dc:type
           rdf:resource="http://purl.org/dc/dcmitype/StillImage" />
        <dc:title></dc:title>
      </cc:Work>
    </rdf:RDF>
  </metadata>
  <sodipodi:namedview
     pagecolor="#ffffff"
     bordercolor="#666666"
     borderopacity="1"
     objecttolerance="10"
     gridtolerance="10"
     guidetolerance="10"
     inkscape:pageopacity="0"
     inkscape:pageshadow="2"
     inkscape:window-width="3259"
     inkscape:window-height="1417"
     id="namedview25"
     showgrid="false"
     inkscape:zoom="2"
     inkscape:cx="27.927591"
     inkscape:cy="180.0339"
     inkscape:window-x="-8"
     inkscape:window-y="-8"
     inkscape:window-maximized="1"
     inkscape:current-layer="svg2780"
     inkscape:measure-start="104.255,149.787"
     inkscape:measure-end="104.255,126.383"
     showguides="true"
     inkscape:object-paths="true"
     inkscape:snap-intersection-paths="true"
     inkscape:snap-global="false" />
  <defs
     id="defs2782" />
  <path
     inkscape:connector-curvature="0"
     style="fill:#feeb00;fill-opacity:1;fill-rule:evenodd;stroke:#000000;stroke-width:1.99999988;stroke-linecap:butt;stroke-miterlimit:4;stroke-dashoffset:0;stroke-opacity:1"
     id="path4212"
     d="m 1,1 3.761095,158.00304 c 2.686489,112.85918 196.651755,112.85918 199.338255,0 L 207.86045,1 Z" />
  <path
     style="opacity:1;fill:#cc2918;fill-opacity:1;stroke:#000000;stroke-width:1;stroke-miterlimit:4;stroke-dasharray:none;stroke-dashoffset:4.57999992;stroke-opacity:1"
     d="M 104.43024,1 V 243.64742 C 65.26681,243.18482 13.77058,225.25412 5.49213,168.72538 L 1,1 Z"
     id="path6029"
     inkscape:connector-curvature="0"
     sodipodi:nodetypes="ccccc" />
  <path
     style="opacity:1;fill:#1b63c6;fill-opacity:1;stroke:#000000;stroke-width:1;stroke-miterlimit:8;stroke-dasharray:none;stroke-dashoffset:4.57999992;stroke-opacity:1"
     d="m 112.78568,102.17329 c -2.83595,0.30827 -4.46054,2.42014 -5.14043,4.97767 1.33852,-0.8822 2.75748,-1.69649 4.81162,-1.97462 z"
     id="path1839-7"
     inkscape:connector-curvature="0"
     sodipodi:nodetypes="cccc" />
  <path
     style="opacity:1;fill:#1b63c6;fill-opacity:1;stroke:#000000;stroke-width:1;stroke-miterlimit:8;stroke-dasharray:none;stroke-dashoffset:4.57999992;stroke-opacity:1"
     d="m 116.07279,100.42663 c -2.60499,0.11093 -5.09871,1.51852 -5.03125,3.25 0.0695,1.78325 1.12296,2.90716 4.125,2.4375 l 5.03125,-6.28125 c -1.31552,0.40578 -2.6671,0.53167 -4.125,0.59375 z"
     id="path1741"
     inkscape:connector-curvature="0"
     sodipodi:nodetypes="ssccs" />
  <path
     style="opacity:1;fill:#ffffff;fill-opacity:1;stroke:#000000;stroke-width:1;stroke-miterlimit:8;stroke-dasharray:none;stroke-dashoffset:4.57999992;stroke-opacity:1"
     d="M 44.024561,1 V 108.48978 H 3.5586803 l 0.4760788,20 H 44.024561 v 99.02781 l 20,9.43843 V 128.48978 h 40.405679 v -20 H 64.024561 V 1 Z"
     id="path1837"
     inkscape:connector-curvature="0" />
  <path
     style="opacity:1;fill:#1b63c6;fill-opacity:1;stroke:#000000;stroke-width:1;stroke-miterlimit:8;stroke-dasharray:none;stroke-dashoffset:4.57999992;stroke-opacity:1"
     d="m 154.52482,188.08072 c -2.82135,0.42147 -4.93299,2.59119 -5.51003,5.17386 1.30216,-0.93503 3.28116,-1.93043 5.32253,-2.29051 z"
     id="path1839"
     inkscape:connector-curvature="0"
     sodipodi:nodetypes="cccc" />
  <path
     style="opacity:1;fill:#1b63c6;fill-opacity:1;stroke:#000000;stroke-width:1;stroke-miterlimit:8;stroke-dasharray:none;stroke-dashoffset:4.57999992;stroke-opacity:1"
     d="m 157.51708,193.1233 c -2.09017,1.81752 -3.02401,4.2151 -3.19715,6.51799 1.45796,-1.90385 3.36426,-3.39637 5.97694,-4.31494 z"
     id="path1841"
     inkscape:connector-curvature="0"
     sodipodi:nodetypes="cccc" />
  <path
     style="opacity:1;fill:#1b63c6;fill-opacity:1;stroke:#000000;stroke-width:1;stroke-miterlimit:8;stroke-dasharray:none;stroke-dashoffset:4.57999992;stroke-opacity:1"
     d="m 163.88326,195.2951 c -0.42701,1.89855 -0.84869,4.72546 1.07414,6.8671 0.15106,-1.94906 0.81161,-4.72986 2.52703,-6.59658 z"
     id="path1843"
     inkscape:connector-curvature="0"
     sodipodi:nodetypes="cccc" />
  <path
     style="opacity:1;fill:#1b63c6;fill-opacity:1;stroke:#000000;stroke-width:1;stroke-miterlimit:8;stroke-dasharray:none;stroke-dashoffset:4.57999992;stroke-opacity:1"
     d="m 170.62888,193.42286 c -0.75378,2.3114 0.35545,4.24498 1.58487,5.73007 0.12377,-1.99747 0.61203,-4.12591 1.88909,-5.95863 z"
     id="path1845"
     inkscape:connector-curvature="0"
     sodipodi:nodetypes="cccc" />
  <path
     style="opacity:1;fill:#1b63c6;fill-opacity:1;stroke:#000000;stroke-width:1;stroke-miterlimit:8;stroke-dasharray:none;stroke-dashoffset:4.57999992;stroke-opacity:1"
     d="m 114.12726,184.89113 c -2.32327,1.65532 -2.69779,4.32019 -2.04062,6.88364 0.7364,-1.42395 1.79492,-2.92173 3.4509,-4.16856 z"
     id="path1839-5"
     inkscape:connector-curvature="0"
     sodipodi:nodetypes="cccc" />
  <path
     style="opacity:1;fill:#1b63c6;fill-opacity:1;stroke:#000000;stroke-width:1;stroke-miterlimit:8;stroke-dasharray:none;stroke-dashoffset:4.57999992;stroke-opacity:1"
     d="m 118.58907,187.68305 c -1.33023,2.42954 -0.89872,4.48938 -0.26255,6.70942 0.70731,-2.29129 1.55134,-4.05326 3.68338,-5.82082 z"
     id="path1841-3"
     inkscape:connector-curvature="0"
     sodipodi:nodetypes="cccc" />
  <path
     style="opacity:1;fill:#1b63c6;fill-opacity:1;stroke:#000000;stroke-width:1;stroke-miterlimit:8;stroke-dasharray:none;stroke-dashoffset:4.57999992;stroke-opacity:1"
     d="m 125.39413,187.75368 c -0.23686,1.93151 -0.40636,4.23768 1.71914,6.17834 -0.0427,-1.95444 0.48659,-3.95079 2.00868,-5.97824 z"
     id="path1843-2"
     inkscape:connector-curvature="0"
     sodipodi:nodetypes="cccc" />
  <path
     style="opacity:1;fill:#1b63c6;fill-opacity:1;stroke:#000000;stroke-width:1;stroke-miterlimit:8;stroke-dasharray:none;stroke-dashoffset:4.57999992;stroke-opacity:1"
     d="m 132.58869,185.31666 c 0.0636,2.43037 1.70956,3.8351 3.36527,4.82284 -0.55218,-1.92362 -0.64786,-4.00768 -0.0581,-6.16221 z"
     id="path1845-1"
     inkscape:connector-curvature="0"
     sodipodi:nodetypes="cccc" />
  <path
     style="opacity:1;fill:#1b63c6;fill-opacity:1;stroke:#000000;stroke-width:1;stroke-miterlimit:8;stroke-dasharray:none;stroke-dashoffset:4.57999992;stroke-opacity:1"
     d="m 126.39742,28.90673 c 0.44088,-2.818382 -0.93392,-4.64297 -3.22615,-5.965414 0.50318,1.522073 0.91986,3.104126 0.65347,5.159822 z"
     id="path1839-3"
     inkscape:connector-curvature="0"
     sodipodi:nodetypes="cccc" />
  <path
     style="opacity:1;fill:#1b63c6;fill-opacity:1;stroke:#000000;stroke-width:1;stroke-miterlimit:8;stroke-dasharray:none;stroke-dashoffset:4.57999992;stroke-opacity:1"
     d="m 124.625,38.534988 c 0.6483,-1.888842 1.057,-3.467656 2.28125,-5.28125 1.86962,-2.769635 0.51094,-5.503403 -1.76562,-5.96875 -2.76942,-0.566093 -3.46208,1.344943 -3.73438,3.59375 z"
     id="path1873"
     inkscape:connector-curvature="0"
     sodipodi:nodetypes="csscc" />
  <path
     style="opacity:1;fill:#1b63c6;fill-opacity:1;stroke:#000000;stroke-width:1;stroke-miterlimit:8;stroke-dasharray:none;stroke-dashoffset:4.57999992;stroke-opacity:1"
     d="m 115.15257,107.67563 c -0.95859,2.59871 -0.34516,4.69737 0.61048,6.79976 0.36277,-2.37038 0.91253,-4.50813 2.76155,-6.56993 z"
     id="path1841-2"
     inkscape:connector-curvature="0"
     sodipodi:nodetypes="cccc" />
  <path
     style="opacity:1;fill:#1b63c6;fill-opacity:1;stroke:#000000;stroke-width:1;stroke-miterlimit:8;stroke-dasharray:none;stroke-dashoffset:4.57999992;stroke-opacity:1"
     d="m 121.65809,108.64131 c 0.22431,1.933 0.36213,3.8866 2.88461,5.27259 -0.50145,-1.8895 -0.56254,-4.06405 0.43972,-6.39275 z"
     id="path1843-1"
     inkscape:connector-curvature="0"
     sodipodi:nodetypes="cccc" />
  <path
     style="opacity:1;fill:#1b63c6;fill-opacity:1;stroke:#000000;stroke-width:1;stroke-miterlimit:8;stroke-dasharray:none;stroke-dashoffset:4.57999992;stroke-opacity:1"
     d="m 127.59231,106.35392 c 0.7008,2.32801 2.85428,3.65378 4.7115,4.17112 -1.0388,-1.71058 -1.91787,-3.50145 -1.91577,-5.73523 z"
     id="path1845-8"
     inkscape:connector-curvature="0"
     sodipodi:nodetypes="cccc" />
  <path
     style="opacity:1;fill:#1b63c6;fill-opacity:1;stroke:#000000;stroke-width:1;stroke-miterlimit:8;stroke-dasharray:none;stroke-dashoffset:4.57999992;stroke-opacity:1"
     d="m 119.11509,26.909425 c -1.69135,-2.193513 -3.47204,-2.639174 -5.76075,-2.947547 1.81474,1.567482 2.89931,2.818205 3.66253,5.480415 z"
     id="path1841-7"
     inkscape:connector-curvature="0"
     sodipodi:nodetypes="cccc" />
  <path
     style="opacity:1;fill:#1b63c6;fill-opacity:1;stroke:#000000;stroke-width:1;stroke-miterlimit:8;stroke-dasharray:none;stroke-dashoffset:4.57999992;stroke-opacity:1"
     d="m 115.19784,34.731867 c -1.88189,-0.495276 -4.4506,-0.380189 -6.66026,1.464066 1.94234,0.221329 4.51591,0.234632 6.31948,2.016328 z"
     id="path1843-0"
     inkscape:connector-curvature="0"
     sodipodi:nodetypes="cccc" />
  <path
     style="opacity:1;fill:#1b63c6;fill-opacity:1;stroke:#000000;stroke-width:1;stroke-miterlimit:8;stroke-dasharray:none;stroke-dashoffset:4.57999992;stroke-opacity:1"
     d="m 115.52623,42.941098 c -2.39622,0.410936 -3.98722,2.613339 -4.72774,4.393397 1.82475,-0.821886 3.95439,-1.64273 6.17115,-1.367556 z"
     id="path1845-9"
     inkscape:connector-curvature="0"
     sodipodi:nodetypes="cccc" />
  <path
     style="opacity:1;fill:#1b63c6;fill-opacity:1;stroke:#000000;stroke-width:1;stroke-miterlimit:8;stroke-dasharray:none;stroke-dashoffset:4.57999992;stroke-opacity:1"
     d="m 138.125,68.034988 c -11.03112,-6.231741 -13.51305,-13.055473 -15.5,-18.625 -0.71058,-1.991802 -1.87426,-2.198273 -3.6875,-2.125 -2.78723,0.112632 -4.29239,-1.350292 -4.20992,-3.053942 0.0767,-1.584167 1.58764,-2.579016 2.83492,-3.321058 -2.93785,-1.177143 -4.3836,-2.82224 -3.5,-5.75 0.3067,-1.016242 1.04139,-1.820362 4.2487,-1.676777 -2.46129,-2.846366 -2.69544,-5.584636 0.001,-6.323223 1.83302,-0.50203 3.73329,-0.0504 4.0625,3.625 0.15948,1.780425 0.52615,3.611134 1.8125,5.125 1.55089,1.825188 2.79862,3.838769 3.6875,6.25 2.36496,6.415348 12.80532,11.685911 19.8125,12.6875 z"
     id="path1871"
     inkscape:connector-curvature="0"
     sodipodi:nodetypes="cssscscsssscc" />
  <path
     style="opacity:1;fill:#1b63c6;fill-opacity:1;stroke:#000000;stroke-width:1;stroke-miterlimit:8;stroke-dasharray:none;stroke-dashoffset:4.57999992;stroke-opacity:1"
     d="m 167.90493,136.73782 c -11.26158,-0.24865 -19.73286,1.87312 -23.33452,8.13172 -1.63737,2.78652 -2.23283,5.5504 1.5026,8.22012 5.37931,4.66834 2.10715,9.066 -0.70711,11.4021 -2.7358,2.3925 -4.42235,4.88493 -4.68458,7.51301 -0.86314,3.08698 -2.40933,5.80966 -5.03814,7.95495 1.07974,2.28339 1.48643,3.82329 0.50161,5.09931 -0.8588,1.11273 -2.85515,2.29476 -5.36297,0.1156 -0.33909,3.18122 -1.60873,4.2737 -2.84003,4.54317 -1.73108,0.37885 -3.42903,-1.12846 -4.05426,-2.7754 -0.73546,1.22798 -1.59861,2.89204 -3.40708,2.83614 -1.2886,-0.0398 -2.44468,-0.5939 -2.85837,-2.37178 -2.66347,2.00521 -4.96589,-0.19719 -4.31906,-2.76246 0.37975,-1.50604 1.91944,-1.88452 4.40413,-2.33156 1.72926,-0.31113 3.93291,-1.70514 7.06427,-4.12079 0.20758,-4.79986 1.61933,-7.69695 3.35875,-10.07627 3.49008,-3.69412 1.38546,-7.04411 0.0884,-7.6014 -4.76941,-2.74963 -3.63632,-5.87581 -3.44715,-8.83884 -2.83542,1.33909 -4.75919,4.24101 -6.36396,7.68979 -1.38046,-2.5819 -0.62414,-4.06967 1.74437,-8.21318 -2.53399,1.43469 -4.42096,1.92945 -7.93155,2.64472 2.34347,-4.77476 5.06371,-4.47679 7.80276,-7.21882 -2.66402,-1.68042 -3.4575,-4.91933 -1.52719,-7.89559 0.889,1.99906 1.01043,4.47173 4.50781,4.86136 1.73336,-7.52445 8.10111,-12.77899 15.55635,-17.50089 7.14194,-3.81821 13.53663,-8.38368 19.62221,-13.25826 7.00475,7.17788 9.28787,15.36754 9.72271,23.95325 z"
     id="path1727"
     inkscape:connector-curvature="0"
     sodipodi:nodetypes="ccccccscscscssccccccccccccc" />
  <path
     style="opacity:1;fill:none;fill-opacity:1;stroke:#000000;stroke-width:1;stroke-miterlimit:8;stroke-dasharray:none;stroke-dashoffset:4.57999992;stroke-opacity:1"
     d="m 158.01961,115.61488 c 0.98757,4.08333 2.93954,8.27467 3.01739,11.4545 0.028,1.1453 -1.27196,2.53519 -0.70581,4.08126 0.85119,2.32446 3.28285,2.20605 4.15717,1.81205 1.17383,-0.52897 1.2545,-1.06616 1.88664,-2.1777 -1.89262,-5.55058 -3.65296,-10.44595 -8.35539,-15.17011 z"
     id="path1729"
     inkscape:connector-curvature="0"
     sodipodi:nodetypes="cssscc" />
  <path
     style="opacity:1;fill:#1b63c6;fill-opacity:1;stroke:#000000;stroke-width:1;stroke-miterlimit:8;stroke-dasharray:none;stroke-dashoffset:4.57999992;stroke-opacity:1"
     d="M 187.42251,129.19984 C 194.61438,124.98721 196.6793,118.565 189.5,110.15999 179.22823,98.134545 179.72492,87.402233 189,75.534988 c -5.12445,-12.073143 -3.12521,-20.924765 0.125,-27.75 -1.81771,-11.537254 3.0105,-15.809096 10.375,-18.25 -3.09739,4.059113 -4.00123,8.474565 -3.59009,13.093424 0.3221,3.618529 2.45128,6.611899 2.96509,11.156576 4.87085,6.854601 3.07177,18.732677 -4,21.625 -1.73992,3.238226 -4.32417,5.726939 -5.6875,8.15625 -4.0808,7.27158 -3.24443,14.58851 1.6875,20.781252 10.1273,12.71627 11.3695,21.61981 -4.75812,31.24372 0.28959,3.12747 -1.42461,5.7465 -2.8125,7.8125 -3.50979,5.22463 -6.21761,10.76488 0.19562,17.63128 5.32863,5.70516 5.12721,10.92072 -2,16.875 -2.62568,2.19357 -5.08759,3.4765 -5.125,10.5 -0.0186,3.48291 -1.91515,8.2077 -6.79069,5.91283 -1.16507,1.56473 -1.90822,2.76447 -3.60101,2.84347 -1.54614,0.0721 -2.40538,-0.39548 -3.55845,-2.35733 -0.7682,0.97539 -2.94016,2.18537 -4.96247,0.92734 -0.89931,-0.55944 -1.39543,-1.68577 -0.20825,-4.2419 -2.05686,0.69273 -3.4528,0.6563 -4.02167,-0.97227 -0.73635,-2.10803 0.94258,-4.08109 4.46361,-3.88909 2.04483,0.1115 3.52343,-0.1651 5.03814,-1.06066 3.13424,-1.85309 4.04069,-6.48103 7.11526,-10.78338 0.66096,-0.92491 0.78213,-2.15121 -1.67938,-4.46361 -1.5029,-1.41186 -2.59393,-3.55552 -2.69584,-7.42462 -2.38394,2.74638 -2.69448,5.61716 -3.0494,8.48528 -0.78161,-2.05029 -1.59358,-4.24622 -1.38343,-7.53621 -2.53676,3.40468 -5.67115,4.51621 -9.39995,4.44262 3.78223,-3.35135 7.95163,-6.42883 8.44109,-12.10921 -2.21977,1.48058 -4.21868,2.15131 -5.56847,0.44194 3.91287,-2.17701 4.10852,-4.54167 4.36091,-6.9027 0.37795,-3.53565 2.3476,-6.34607 4.0625,-9.3125 5.13545,-8.8833 1.46564,-18.96361 -9.6875,-27.8125 -6.60691,-5.24192 -8.6402,-12.608052 -7.625,-21.750002 4.12155,-19.304564 13.62982,-24.962792 27.75,-18.9375 1.58558,7.41069 3.00782,12.99567 1.52405,20.008121 -1.1509,5.439246 -1.26108,11.680391 1.99816,17.191941 4.36911,7.3884 6.27928,13.17035 8.09346,19.22171 0.34889,1.16374 1.62869,1.33853 2.43184,0.86808 z"
     id="path1721"
     inkscape:connector-curvature="0"
     sodipodi:nodetypes="sscccsccsscsssscscscsssssccccccsssccssss" />
  <path
     style="opacity:1;fill:#1b63c6;fill-opacity:1;stroke:#000000;stroke-width:1;stroke-miterlimit:8;stroke-dasharray:none;stroke-dashoffset:4.57999992;stroke-opacity:1"
     d="m 140.4375,68.159988 c -2.05574,7.342049 -4.23561,14.632139 -12.41385,21.062812 -3.3581,2.640527 -7.53845,8.035394 -9.9708,10.586237 -1.8887,1.980713 -4.67469,2.859903 -4.28125,7.468753 0.17364,2.03407 1.85254,4.37092 6.78125,0.0937 0.53455,1.87712 1.82354,2.33952 3.08533,1.99783 1.59291,-0.43135 1.62257,-1.63344 1.78967,-3.62283 1.8229,1.42947 3.59446,1.48731 4.83604,0.23351 1.25529,-1.26764 1.22321,-2.93249 0.41396,-5.23351 8.08969,-3.377662 18.33704,-11.434918 22.19715,-18.961552 3.52838,-7.809177 -8.21734,-22.668311 -12.4375,-13.62495 z"
     id="path1739"
     inkscape:connector-curvature="0"
     sodipodi:nodetypes="cssscscsccc" />
  <path
     style="opacity:1;fill:#1b63c6;fill-opacity:1;stroke:#000000;stroke-width:1;stroke-miterlimit:8;stroke-dasharray:none;stroke-dashoffset:4.57999992;stroke-opacity:1"
     d="m 158.97771,51.001118 c -7.61744,0.747364 -13.68402,2.435031 -20.24094,6.363961 -2.36419,1.817907 -5.17151,1.272502 -7.86656,1.325826 0.69133,1.723652 1.63216,3.335689 6.71752,3.093592 -2.19916,1.918637 -1.37449,4.062842 -1.92831,6.280014 -0.67413,2.698809 -1.74609,4.07166 -4.71123,5.505966 4.0043,1.365386 6.63162,0.09617 10.28046,-2.68198 -0.82965,3.316001 -1.18597,4.707153 -0.31697,6.603779 0.93952,2.050533 -1.18067,3.468653 -2.3376,6.366783 3.85119,-0.574231 7.81083,-2.680357 9.54399,-7.951271 0.29727,3.102569 0.366,5.824233 -0.24816,9.754999 5.00947,-2.841134 5.1857,-3.392865 7.95549,-9.072053 1.1588,4.089703 1.71777,2.803424 1.89277,10.362345 1.71172,-2.085785 3.67221,-4.67353 3.32464,-10.054175 2.09895,3.66523 3.51991,3.440988 2.17754,10.783379 4.58154,-4.074072 2.44519,-6.615728 4.17635,-12.153398 1.23521,5.633749 2.92263,6.728904 5.46307,7.549621 -1.09634,-2.419772 -1.78666,-4.880929 -0.49123,-7.792689 1.59643,2.49171 3.38757,4.588521 5.30395,5.160533 -1.4349,-2.681381 -2.4448,-4.290339 -1.88899,-6.444768 1.09999,1.430117 1.97311,2.450527 3.90476,3.277348 -0.13886,-5.470077 -2.7762,-6.275853 -2.93826,-11.275192 -0.14626,-4.512028 -0.37716,-9.020759 -0.8125,-13.53125 z"
     id="path1731"
     inkscape:connector-curvature="0"
     sodipodi:nodetypes="ccccsccscccccccccccccscc" />
  <path
     style="opacity:1;fill:none;fill-opacity:1;stroke:#000000;stroke-width:1;stroke-miterlimit:8;stroke-dasharray:none;stroke-dashoffset:4.57999992;stroke-opacity:1"
     d="m 147.22206,44.46038 1.43158,-3.916218 1.65996,3.40991 1.73518,-3.339525 1.8466,4.530843 z"
     id="path1745"
     inkscape:connector-curvature="0" />
  <path
     style="opacity:1;fill:#cc2918;fill-opacity:1;stroke:#000000;stroke-width:1;stroke-miterlimit:8;stroke-dasharray:none;stroke-dashoffset:4.57999992;stroke-opacity:1"
     d="m 134.42456,21.35285 c 3.54008,1.578521 3.98594,3.835853 3.59375,6.28125 -1.7847,11.128096 4.00852,10.567408 9.625,10.1875 4.86496,-0.329074 8.74656,0.555673 11.9375,2.25 l 0.0312,2.09375 c -4.99546,-1.886398 -10.20301,-2.110454 -16.6562,-1.21875 -3.80005,0.525092 -7.83663,0.584892 -10.28125,-2.625 -1.73307,-2.275596 -1.37776,-4.582325 0.21875,-7.3125 2.83183,-4.842674 2.04943,-6.528382 1.53125,-9.65625 z"
     id="path1733"
     inkscape:connector-curvature="0"
     sodipodi:nodetypes="cssccsssc" />
  <path
     style="opacity:1;fill:none;fill-opacity:1;stroke:#000000;stroke-width:1;stroke-miterlimit:8;stroke-dasharray:none;stroke-dashoffset:4.57999992;stroke-opacity:1"
     d="m 146.22769,33.102478 2.47487,4.132155 1.98429,-3.983104 1.41866,3.894716 2.80633,-4.662486 z"
     id="path1743"
     inkscape:connector-curvature="0" />
  <path
     style="opacity:1;fill:#1b63c6;fill-opacity:1;stroke:#000000;stroke-width:1;stroke-miterlimit:8;stroke-dasharray:none;stroke-dashoffset:4.57999992;stroke-opacity:1"
     d="m 156.625,20.909988 c -2.41109,1.730838 -5.96776,0.749494 -8.9375,1.5 -3.55,0.897149 -2.09893,2.541667 -1.875,3.8125 -1.23973,2.028658 -1.99279,4.637376 -1.58394,6.512024 0.22426,1.028271 1.46393,1.962809 5.60983,1.356694 2.12701,-0.31096 7.65692,-1.137761 8.03661,3.631282 0.30554,3.837691 -1.11806,6.779543 -5.875,6.375 l -5.52275,-0.46967 c -0.37742,3.051906 2.1013,4.051327 6.83525,4.15717 -0.79667,2.084471 -2.87761,3.001418 -4.9375,3.9375 1.81607,1.038092 4.24308,1.465254 7,1.5625 l -4.375,3.5625 c 2.95122,0.284557 4.96716,-0.366171 6.75,-1.25 -0.2831,1.819622 -0.62248,3.636648 -1.3125,5.4375 2.14295,-1.108788 4.12514,-2.309444 5.6875,-3.75 0.177,1.797899 -0.075,3.847506 -0.3125,5.5625 1.81394,-1.456895 3.62096,-3.358209 4.9375,-5.3125 0.80639,1.589051 1.65689,3.898385 3.4375,5.40625 0.63472,-1.755936 1.21937,-4.226099 2.75,-5.65625 1.23261,2.090935 2.92964,3.141145 5.0625,4.25 -0.40527,-1.360724 -1.2424,-2.376661 -1.25,-5.0625 0.94327,0.719545 2.19576,1.54873 3.375,1.875 -0.83923,-2.232083 -2.18672,-3.965791 -2.46875,-6.03125 1.24686,0.658996 3.12541,0.823857 5.03125,0.90625 -1.26802,-1.453559 -3.20844,-2.579997 -4.3125,-5.5 1.85049,0.530643 3.27446,0.687975 4.875,0.46875 -2.19605,-3.200532 -4.19596,-2.389565 -5.71875,-5.28125 1.61458,0.163586 3.01042,-0.304529 4.59375,-0.5625 -2.00547,-2.076777 -3.01026,-2.078094 -4.875,-5.375 h 4.375 c -2.0597,-1.874198 -2.30137,-2.472338 -3.875,-5.375 l 4.53125,0.4375 c -2.61325,-2.408877 -2.83144,-5.160848 -5.53125,-5.5625 2.09422,-2.223438 4.16236,-5.931961 1.85512,-9.18501 -2.29803,-3.240059 -5.98407,0.06338 -8.60512,2.49751 -1.79167,-0.676915 -3.58298,-0.981106 -5.375,-1.0625 -2.66634,-0.121105 -5.33333,-1.118039 -8,2.1875 z"
     id="path1735"
     inkscape:connector-curvature="0"
     sodipodi:nodetypes="cscssssccccccccccccccccccccccccccscsc" />
  <path
     style="opacity:1;fill:none;fill-opacity:1;stroke:#000000;stroke-width:1;stroke-miterlimit:8;stroke-dasharray:none;stroke-dashoffset:4.57999992;stroke-opacity:1"
     d="m 176.16924,19.402284 c 1.4441,1.701386 -0.71835,3.438853 -1.6044,4.572526"
     id="path1747"
     inkscape:connector-curvature="0"
     sodipodi:nodetypes="cc" />
  <g
     id="g1906"
     transform="matrix(1.0911508,-0.34955371,0.35070961,1.0947589,-24.942417,54.589772)"
     style="stroke-width:0.87133306">
    <path
       sodipodi:nodetypes="ccc"
       inkscape:connector-curvature="0"
       id="path1899"
       d="m 163.96875,21.909988 c -1.0197,0.06284 -1.64486,0.32736 -2.15625,0.5625 3.21876,1.60546 5.54844,3.822164 7.84375,6.0625"
       style="opacity:1;fill:none;fill-opacity:1;stroke:#000000;stroke-width:0.87133306;stroke-miterlimit:8;stroke-dasharray:none;stroke-dashoffset:4.57999992;stroke-opacity:1" />
    <ellipse
       transform="rotate(27.17072)"
       ry="1.15625"
       rx="1.578125"
       cy="-51.871651"
       cx="156.22443"
       id="path1901"
       style="opacity:1;fill:#000000;fill-opacity:1;stroke:#000000;stroke-width:0.87133306;stroke-miterlimit:8;stroke-dasharray:none;stroke-dashoffset:4.57999992;stroke-opacity:1" />
  </g>
  <path
     style="opacity:1;fill:none;fill-opacity:1;stroke:#000000;stroke-width:1;stroke-miterlimit:8;stroke-dasharray:none;stroke-dashoffset:4.57999992;stroke-opacity:1"
     d="m 145.8125,26.222488 c 1.398,0.05574 3.7093,0.299237 3.96875,-1.375"
     id="path1737"
     inkscape:connector-curvature="0"
     sodipodi:nodetypes="cc" />
  <path
     style="opacity:1;fill:none;fill-opacity:1;stroke:#000000;stroke-width:1;stroke-miterlimit:8;stroke-dasharray:none;stroke-dashoffset:4.57999992;stroke-opacity:1"
     d="m 189.125,47.784988 c 0.82141,3.981712 1.32431,7.872422 1.5625,11.6875"
     id="path1723"
     inkscape:connector-curvature="0"
     sodipodi:nodetypes="cc" />
  <path
     style="opacity:1;fill:none;fill-opacity:1;stroke:#000000;stroke-width:1;stroke-miterlimit:8;stroke-dasharray:none;stroke-dashoffset:4.57999992;stroke-opacity:1"
     d="m 198.875,53.784988 c 0.47993,5.587914 -1.59405,10.378365 -3.1875,14.625"
     id="path1725"
     inkscape:connector-curvature="0"
     sodipodi:nodetypes="cc" />
  <path
     inkscape:connector-curvature="0"
     style="fill:none;fill-opacity:1;fill-rule:evenodd;stroke:#000000;stroke-width:1.99999988;stroke-linecap:butt;stroke-miterlimit:4;stroke-dashoffset:0;stroke-opacity:1"
     id="path4212-0"
     d="M 1,0.99999834 4.761095,159.00304 c 2.686489,112.85918 196.651755,112.85918 199.338255,0 l 3.7611,-158.00304166 z" />
</svg>
