<?xml version="1.0" encoding="UTF-8" standalone="no"?>
<svg
   xmlns:dc="http://purl.org/dc/elements/1.1/"
   xmlns:cc="http://creativecommons.org/ns#"
   xmlns:rdf="http://www.w3.org/1999/02/22-rdf-syntax-ns#"
   xmlns:svg="http://www.w3.org/2000/svg"
   xmlns="http://www.w3.org/2000/svg"
   xmlns:sodipodi="http://sodipodi.sourceforge.net/DTD/sodipodi-0.dtd"
   xmlns:inkscape="http://www.inkscape.org/namespaces/inkscape"
   id="svg2"
   version="1.1"
   width="400"
   height="480"
   viewBox="0 0 400 480"
   sodipodi:docname="CHE Küssnacht Flag.svg"
   inkscape:version="0.92.3 (2405546, 2018-03-11)">
  <sodipodi:namedview
     pagecolor="#ffffff"
     bordercolor="#666666"
     borderopacity="1"
     objecttolerance="10"
     gridtolerance="10"
     guidetolerance="10"
     inkscape:pageopacity="0"
     inkscape:pageshadow="2"
     inkscape:window-width="1920"
     inkscape:window-height="1017"
     id="namedview10"
     showgrid="false"
     inkscape:zoom="0.76206771"
     inkscape:cx="313.60468"
     inkscape:cy="336.82375"
     inkscape:window-x="-8"
     inkscape:window-y="-8"
     inkscape:window-maximized="1"
     inkscape:current-layer="svg2" />
  <metadata
     id="metadata8">
    <rdf:RDF>
      <cc:Work
         rdf:about="">
        <dc:format>image/svg+xml</dc:format>
        <dc:type
           rdf:resource="http://purl.org/dc/dcmitype/StillImage" />
        <dc:title></dc:title>
      </cc:Work>
    </rdf:RDF>
  </metadata>
  <defs
     id="defs6" />
  <path
     style="color:#000000;clip-rule:nonzero;display:inline;overflow:visible;visibility:visible;opacity:1;isolation:auto;mix-blend-mode:normal;color-interpolation:sRGB;color-interpolation-filters:linearRGB;solid-color:#000000;solid-opacity:1;fill:#f00000;fill-opacity:1;fill-rule:evenodd;stroke:none;stroke-width:5;stroke-linecap:butt;stroke-miterlimit:4;stroke-dasharray:none;stroke-dashoffset:0;stroke-opacity:1;color-rendering:auto;image-rendering:auto;shape-rendering:auto;text-rendering:auto;enable-background:accumulate"
     d="M 2.510661,2.5106611 V 280.47859 c 1.335e-4,108.80747 88.416395,197.01325 197.483329,197.01325 109.06696,0 197.48321,-88.20578 197.48335,-197.01325 V 2.5106611 Z"
     id="path4164"
     inkscape:connector-curvature="0"
     sodipodi:nodetypes="ccsccc" />
  <path
     style="color:#000000;clip-rule:nonzero;display:inline;overflow:visible;visibility:visible;opacity:1;isolation:auto;mix-blend-mode:normal;color-interpolation:sRGB;color-interpolation-filters:linearRGB;solid-color:#000000;solid-opacity:1;fill:none;fill-opacity:1;fill-rule:evenodd;stroke:#000000;stroke-width:5;stroke-linecap:butt;stroke-miterlimit:4;stroke-dasharray:none;stroke-dashoffset:0;stroke-opacity:1;color-rendering:auto;image-rendering:auto;shape-rendering:auto;text-rendering:auto;enable-background:accumulate"
     d="M 2.510661,2.5106611 V 280.47859 c 1.382e-4,108.80747 88.416401,197.01325 197.483329,197.01325 109.06696,0 197.48321,-88.20578 197.48335,-197.01325 V 2.5106611 Z"
     id="path4164-2"
     inkscape:connector-curvature="0"
     sodipodi:nodetypes="ccsccc" />
  <g
     id="g1168"
     transform="matrix(0.76205607,0,0,0.75582126,-84.691311,-62.571212)"
     style="stroke-width:1.31764078">
    <g
       id="g1053"
       style="stroke-width:1.31764078">
      <g
         id="g875"
         style="stroke-width:1.31764078">
        <path
           id="path871"
           d="M 355.4,513 219.6,377.2 c -10.8,-10.8 -10.8,-28.3 0,-39 L 355.4,202.4 c 10.8,-10.8 28.3,-10.8 39,0 l 135.8,135.8 c 10.8,10.8 10.8,28.3 0,39 L 394.5,513 c -10.8,10.8 -28.3,10.8 -39.1,0 z"
           class="st2"
           inkscape:connector-curvature="0"
           style="fill:#ffffff;stroke-width:1.31764078" />
        <path
           id="path873"
           d="m 374.9,524.9 c -6.9,0 -13.3,-2.7 -18.2,-7.5 L 215.3,375.8 c -10,-10 -10,-26.3 0,-36.4 L 356.8,198 c 4.9,-4.9 11.3,-7.5 18.2,-7.5 6.9,0 13.3,2.7 18.2,7.5 l 141.5,141.5 c 10,10 10,26.3 0,36.4 L 393.1,517.4 c -4.8,4.8 -11.3,7.5 -18.2,7.5 z m 0,-330.2 c -5.7,0 -11.1,2.2 -15.2,6.3 L 218.3,342.5 c -8.4,8.4 -8.4,22 0,30.3 l 141.5,141.5 c 4.1,4.1 9.4,6.3 15.2,6.3 5.7,0 11.1,-2.2 15.2,-6.3 L 531.7,372.8 c 8.4,-8.4 8.4,-22 0,-30.3 L 390.1,201 c -4,-4.1 -9.4,-6.3 -15.2,-6.3 z"
           inkscape:connector-curvature="0"
           style="stroke-width:1.31764078" />
      </g>
      <g
         id="g881"
         style="stroke-width:1.31764078">
        <path
           id="path877"
           d="m 392.7,199.7 h -35.4 c -2.8,0 -5,-2.2 -5,-5 V 188 c 0,-2.8 2.2,-5 5,-5 h 35.4 c 2.8,0 5,2.2 5,5 v 6.7 c 0,2.7 -2.3,5 -5,5 z"
           class="st2"
           inkscape:connector-curvature="0"
           style="fill:#ffffff;stroke-width:1.31764078" />
        <path
           id="path879"
           d="m 393.4,201.8 h -36.9 c -3.5,0 -6.4,-2.9 -6.4,-6.4 v -8.1 c 0,-3.5 2.9,-6.4 6.4,-6.4 h 36.9 c 3.5,0 6.4,2.9 6.4,6.4 v 8.1 c 0,3.6 -2.9,6.4 -6.4,6.4 z m -36.9,-16.6 c -1.2,0 -2.1,1 -2.1,2.1 v 8.1 c 0,1.2 1,2.1 2.1,2.1 h 36.9 c 1.2,0 2.1,-1 2.1,-2.1 v -8.1 c 0,-1.2 -1,-2.1 -2.1,-2.1 z"
           inkscape:connector-curvature="0"
           style="stroke-width:1.31764078" />
      </g>
      <g
         id="g887"
         style="stroke-width:1.31764078">
        <path
           id="path883"
           d="m 392.7,532.3 h -35.4 c -2.8,0 -5,-2.2 -5,-5 v -6.7 c 0,-2.8 2.2,-5 5,-5 h 35.4 c 2.8,0 5,2.2 5,5 v 6.7 c 0,2.8 -2.3,5 -5,5 z"
           class="st2"
           inkscape:connector-curvature="0"
           style="fill:#ffffff;stroke-width:1.31764078" />
        <path
           id="path885"
           d="m 393.4,534.4 h -36.9 c -3.5,0 -6.4,-2.9 -6.4,-6.4 v -8.1 c 0,-3.5 2.9,-6.4 6.4,-6.4 h 36.9 c 3.5,0 6.4,2.9 6.4,6.4 v 8.1 c 0,3.6 -2.9,6.4 -6.4,6.4 z m -36.9,-16.6 c -1.2,0 -2.1,1 -2.1,2.1 v 8.1 c 0,1.2 1,2.1 2.1,2.1 h 36.9 c 1.2,0 2.1,-1 2.1,-2.1 v -8.1 c 0,-1.2 -1,-2.1 -2.1,-2.1 z"
           inkscape:connector-curvature="0"
           style="stroke-width:1.31764078" />
      </g>
      <g
         id="g893"
         style="stroke-width:1.31764078">
        <path
           id="path889"
           d="M 532.9,375.4 V 340 c 0,-2.8 2.2,-5 5,-5 h 6.7 c 2.8,0 5,2.2 5,5 v 35.4 c 0,2.8 -2.2,5 -5,5 h -6.7 c -2.7,0 -5,-2.3 -5,-5 z"
           class="st2"
           inkscape:connector-curvature="0"
           style="fill:#ffffff;stroke-width:1.31764078" />
        <path
           id="path891"
           d="m 545.3,382.5 h -8.1 c -3.5,0 -6.4,-2.9 -6.4,-6.4 v -36.9 c 0,-3.5 2.9,-6.4 6.4,-6.4 h 8.1 c 3.5,0 6.4,2.9 6.4,6.4 v 36.9 c 0,3.5 -2.8,6.4 -6.4,6.4 z m -8.1,-45.4 c -1.2,0 -2.1,1 -2.1,2.1 v 36.9 c 0,1.2 1,2.1 2.1,2.1 h 8.1 c 1.2,0 2.1,-1 2.1,-2.1 v -36.9 c 0,-1.2 -1,-2.1 -2.1,-2.1 z"
           inkscape:connector-curvature="0"
           style="stroke-width:1.31764078" />
      </g>
      <g
         id="g899"
         style="stroke-width:1.31764078">
        <path
           id="path895"
           d="M 200.3,375.4 V 340 c 0,-2.8 2.2,-5 5,-5 h 6.7 c 2.8,0 5,2.2 5,5 v 35.4 c 0,2.8 -2.2,5 -5,5 h -6.7 c -2.8,0 -5,-2.3 -5,-5 z"
           class="st2"
           inkscape:connector-curvature="0"
           style="fill:#ffffff;stroke-width:1.31764078" />
        <path
           id="path897"
           d="m 212.7,382.5 h -8.1 c -3.5,0 -6.4,-2.9 -6.4,-6.4 v -36.9 c 0,-3.5 2.9,-6.4 6.4,-6.4 h 8.1 c 3.5,0 6.4,2.9 6.4,6.4 v 36.9 c 0,3.5 -2.9,6.4 -6.4,6.4 z m -8.1,-45.4 c -1.2,0 -2.1,1 -2.1,2.1 v 36.9 c 0,1.2 1,2.1 2.1,2.1 h 8.1 c 1.2,0 2.1,-1 2.1,-2.1 v -36.9 c 0,-1.2 -1,-2.1 -2.1,-2.1 z"
           inkscape:connector-curvature="0"
           style="stroke-width:1.31764078" />
      </g>
      <g
         id="g905"
         style="stroke-width:1.31764078">
        <path
           id="path901"
           d="m 237.7,339 c 16,-5.6 45.2,-18.2 72.8,-45.8 27.6,-27.6 40.2,-56.8 45.8,-72.8"
           class="st2"
           inkscape:connector-curvature="0"
           style="fill:#ffffff;stroke-width:1.31764078" />
        <path
           id="path903"
           d="m 237.7,339 c 13.3,-5.6 26.1,-12.3 38.1,-20.2 12,-7.9 23.1,-17 33.2,-27.1 10.1,-10.1 19.2,-21.3 27.1,-33.2 7.9,-12 14.6,-24.7 20.2,-38.1 -3.9,13.9 -9.9,27.3 -17.4,39.9 -1.8,3.1 -3.8,6.2 -5.9,9.2 -1.1,1.5 -2.1,3 -3.2,4.5 l -3.3,4.4 c -4.5,5.7 -9.4,11.2 -14.5,16.4 -5.2,5.1 -10.7,10 -16.4,14.5 l -4.4,3.3 c -1.5,1.1 -3,2.1 -4.5,3.2 -3,2.1 -6.1,4.1 -9.2,5.9 -12.5,7.4 -25.9,13.4 -39.8,17.3 z"
           inkscape:connector-curvature="0"
           style="stroke-width:1.31764078" />
      </g>
      <g
         id="g911"
         style="stroke-width:1.31764078">
        <path
           id="path907"
           d="m 356.3,494.9 c -5.6,-16 -18.2,-45.2 -45.8,-72.8 -27.6,-27.6 -56.8,-40.2 -72.8,-45.8"
           class="st2"
           inkscape:connector-curvature="0"
           style="fill:#ffffff;stroke-width:1.31764078" />
        <path
           id="path909"
           d="m 356.3,494.9 c -5.6,-13.3 -12.3,-26.1 -20.2,-38.1 -7.9,-12 -17,-23.1 -27.1,-33.2 -10.1,-10.1 -21.3,-19.2 -33.2,-27.1 -12,-7.9 -24.7,-14.6 -38.1,-20.2 13.9,3.9 27.3,9.9 39.9,17.4 3.1,1.8 6.2,3.8 9.2,5.9 1.5,1.1 3,2.1 4.5,3.2 l 4.4,3.3 c 5.7,4.5 11.2,9.4 16.4,14.5 5.1,5.2 10,10.7 14.5,16.4 l 3.3,4.4 c 1.1,1.5 2.1,3 3.2,4.5 2.1,3 4.1,6.1 5.9,9.2 7.4,12.5 13.4,25.9 17.3,39.8 z"
           inkscape:connector-curvature="0"
           style="stroke-width:1.31764078" />
      </g>
      <g
         id="g917"
         style="stroke-width:1.31764078">
        <path
           id="path913"
           d="m 512.2,376.3 c -16,5.6 -45.2,18.2 -72.8,45.8 -27.6,27.6 -40.2,56.8 -45.8,72.8"
           class="st2"
           inkscape:connector-curvature="0"
           style="fill:#ffffff;stroke-width:1.31764078" />
        <path
           id="path915"
           d="m 512.2,376.3 c -13.3,5.6 -26.1,12.3 -38.1,20.2 -12,7.9 -23.1,17 -33.2,27.1 -10.1,10.1 -19.2,21.3 -27.1,33.2 -7.9,12 -14.6,24.7 -20.2,38.1 3.9,-13.9 9.9,-27.3 17.4,-39.9 1.8,-3.1 3.8,-6.2 5.9,-9.2 1.1,-1.5 2.1,-3 3.2,-4.5 l 3.3,-4.4 c 4.5,-5.7 9.4,-11.2 14.5,-16.4 5.2,-5.1 10.7,-10 16.4,-14.5 l 4.4,-3.3 c 1.5,-1.1 3,-2.1 4.5,-3.2 3,-2.1 6.1,-4.1 9.2,-5.9 12.4,-7.4 25.8,-13.3 39.8,-17.3 z"
           inkscape:connector-curvature="0"
           style="stroke-width:1.31764078" />
      </g>
      <g
         id="g923"
         style="stroke-width:1.31764078">
        <path
           id="path919"
           d="m 393.6,220.4 c 5.6,16 18.2,45.2 45.8,72.8 27.6,27.6 56.8,40.2 72.8,45.8"
           class="st2"
           inkscape:connector-curvature="0"
           style="fill:#ffffff;stroke-width:1.31764078" />
        <path
           id="path921"
           d="m 393.6,220.4 c 5.6,13.3 12.3,26.1 20.2,38.1 7.9,12 17,23.1 27.1,33.2 10.1,10.1 21.3,19.2 33.2,27.1 12,7.9 24.7,14.6 38.1,20.2 -13.9,-3.9 -27.3,-9.9 -39.9,-17.4 -3.1,-1.8 -6.2,-3.8 -9.2,-5.9 -1.5,-1.1 -3,-2.1 -4.5,-3.2 l -4.4,-3.3 c -5.7,-4.5 -11.2,-9.4 -16.4,-14.5 -5.1,-5.2 -10,-10.7 -14.5,-16.4 l -3.3,-4.4 c -1.1,-1.5 -2.1,-3 -3.2,-4.5 -2.1,-3 -4.1,-6.1 -5.9,-9.2 -7.4,-12.4 -13.4,-25.8 -17.3,-39.8 z"
           inkscape:connector-curvature="0"
           style="stroke-width:1.31764078" />
      </g>
      <g
         id="g955"
         style="stroke-width:1.31764078">
        <g
           id="g929"
           style="stroke-width:1.31764078">
          <path
             id="path925"
             d="m 387.4,183 h -24.9 c -5.6,0 -10.3,-41.7 -10.3,-41.7 0,-4.6 4.6,-8.5 10.3,-8.5 h 24.9 c 5.6,0 10.3,3.8 10.3,8.5 0,0 -4.7,41.7 -10.3,41.7 z"
             class="st3"
             inkscape:connector-curvature="0"
             style="fill:#ffdd00;fill-opacity:1;stroke-width:1.31764078" />
          <path
             id="path927"
             d="m 387.4,185.2 h -24.9 c -2.6,0 -5.6,-1.7 -9.3,-22.6 -1.8,-10.4 -3,-20.9 -3,-21 v -0.2 c 0,-5.8 5.6,-10.6 12.4,-10.6 h 24.9 c 6.8,0 12.4,4.7 12.4,10.6 v 0.2 c 0,0.1 -1.2,10.6 -3,21 -3.9,20.8 -6.9,22.6 -9.5,22.6 z m -24.6,-4.3 h 24.3 c 2.7,-2.4 6.5,-22.3 8.4,-39.7 -0.1,-3.4 -3.8,-6.2 -8.1,-6.2 h -24.9 c -4.4,0 -8,2.8 -8.1,6.2 1.9,17.4 5.6,37.3 8.4,39.7 z"
             inkscape:connector-curvature="0"
             style="stroke-width:1.31764078" />
        </g>
        <g
           id="g935"
           style="stroke-width:1.31764078">
          <line
             id="line931"
             y2="183.3"
             x2="379"
             y1="133.10001"
             x1="379"
             class="st3"
             style="fill:#ffda00;stroke-width:1.31764078" />
          <rect
             id="rect933"
             height="50.200001"
             width="1.7"
             y="133.10001"
             x="378.10001"
             style="stroke-width:1.31764078" />
        </g>
        <g
           id="g941"
           style="stroke-width:1.31764078">
          <line
             id="line937"
             y2="183.3"
             x2="370.89999"
             y1="133.10001"
             x1="370.89999"
             class="st3"
             style="fill:#ffda00;stroke-width:1.31764078" />
          <rect
             id="rect939"
             height="50.200001"
             width="1.7"
             y="133.10001"
             x="370.10001"
             style="stroke-width:1.31764078" />
        </g>
        <g
           id="g947"
           style="stroke-width:1.31764078">
          <line
             id="line943"
             y2="183.3"
             x2="362.79999"
             y1="133.10001"
             x1="362.79999"
             class="st3"
             style="fill:#ffda00;stroke-width:1.31764078" />
          <rect
             id="rect945"
             height="50.200001"
             width="1.7"
             y="133.10001"
             x="362"
             style="stroke-width:1.31764078" />
        </g>
        <g
           id="g953"
           style="stroke-width:1.31764078">
          <line
             id="line949"
             y2="183.3"
             x2="387"
             y1="133.10001"
             x1="387"
             class="st3"
             style="fill:#ffda00;stroke-width:1.31764078" />
          <rect
             id="rect951"
             height="50.200001"
             width="1.7"
             y="133.10001"
             x="386.20001"
             style="stroke-width:1.31764078" />
        </g>
      </g>
      <g
         id="g987"
         style="stroke-width:1.31764078">
        <g
           id="g961"
           style="stroke-width:1.31764078">
          <path
             id="path957"
             d="m 549.8,370.1 v -24.9 c 0,-5.6 41.7,-10.3 41.7,-10.3 4.6,0 8.5,4.6 8.5,10.3 v 24.9 c 0,5.6 -3.8,10.3 -8.5,10.3 0.1,0 -41.7,-4.6 -41.7,-10.3 z"
             class="st3"
             inkscape:connector-curvature="0"
             style="fill:#ffdd00;fill-opacity:1;stroke-width:1.31764078" />
          <path
             id="path959"
             d="m 591.6,382.5 h -0.2 c -0.1,0 -10.6,-1.2 -21,-3 -20.9,-3.7 -22.6,-6.8 -22.6,-9.3 v -24.9 c 0,-2.6 1.7,-5.6 22.6,-9.3 10.4,-1.8 20.9,-3 21,-3 h 0.2 c 5.8,0 10.6,5.6 10.6,12.4 v 24.9 c 0,6.7 -4.8,12.2 -10.6,12.2 z M 552,369.8 c 2.4,2.7 22.3,6.5 39.7,8.4 3.4,-0.1 6.2,-3.8 6.2,-8.1 v -24.9 c 0,-4.4 -2.8,-8 -6.2,-8.1 -17.4,1.9 -37.3,5.7 -39.7,8.4 z"
             inkscape:connector-curvature="0"
             style="stroke-width:1.31764078" />
        </g>
        <g
           id="g967"
           style="stroke-width:1.31764078">
          <line
             id="line963"
             y2="361.70001"
             x2="549.59998"
             y1="361.70001"
             x1="599.79999"
             class="st3"
             style="fill:#ffda00;stroke-width:1.31764078" />
          <rect
             id="rect965"
             height="1.7"
             width="50.200001"
             y="360.79999"
             x="549.59998"
             style="stroke-width:1.31764078" />
        </g>
        <g
           id="g973"
           style="stroke-width:1.31764078">
          <line
             id="line969"
             y2="353.60001"
             x2="549.59998"
             y1="353.60001"
             x1="599.79999"
             class="st3"
             style="fill:#ffda00;stroke-width:1.31764078" />
          <rect
             id="rect971"
             height="1.7"
             width="50.200001"
             y="352.79999"
             x="549.59998"
             style="stroke-width:1.31764078" />
        </g>
        <g
           id="g979"
           style="stroke-width:1.31764078">
          <line
             id="line975"
             y2="345.60001"
             x2="549.59998"
             y1="345.60001"
             x1="599.79999"
             class="st3"
             style="fill:#ffda00;stroke-width:1.31764078" />
          <rect
             id="rect977"
             height="1.7"
             width="50.200001"
             y="344.70001"
             x="549.59998"
             style="stroke-width:1.31764078" />
        </g>
        <g
           id="g985"
           style="stroke-width:1.31764078">
          <line
             id="line981"
             y2="369.79999"
             x2="549.59998"
             y1="369.79999"
             x1="599.79999"
             class="st3"
             style="fill:#ffda00;stroke-width:1.31764078" />
          <rect
             id="rect983"
             height="1.7"
             width="50.200001"
             y="368.89999"
             x="549.59998"
             style="stroke-width:1.31764078" />
        </g>
      </g>
      <g
         id="g1019"
         style="stroke-width:1.31764078">
        <g
           id="g993"
           style="stroke-width:1.31764078">
          <path
             id="path989"
             d="m 362.5,532.6 h 24.9 c 5.6,0 10.3,41.7 10.3,41.7 0,4.6 -4.6,8.5 -10.3,8.5 h -24.9 c -5.6,0 -10.3,-3.8 -10.3,-8.5 0,0 4.6,-41.7 10.3,-41.7 z"
             class="st3"
             inkscape:connector-curvature="0"
             style="fill:#ffdd00;fill-opacity:1;stroke-width:1.31764078" />
          <path
             id="path991"
             d="m 387.4,584.9 h -24.9 c -6.8,0 -12.4,-4.7 -12.4,-10.6 v -0.2 c 0,-0.1 1.2,-10.6 3,-21 3.7,-20.9 6.8,-22.6 9.3,-22.6 h 24.9 c 2.6,0 5.6,1.7 9.3,22.6 1.8,10.4 3,20.9 3,21 v 0.2 c 0.2,5.8 -5.4,10.6 -12.2,10.6 z m -33,-10.5 c 0.1,3.4 3.8,6.2 8.1,6.2 h 24.9 c 4.4,0 8,-2.8 8.1,-6.2 -1.9,-17.4 -5.7,-37.3 -8.4,-39.7 h -24.3 c -2.8,2.4 -6.5,22.3 -8.4,39.7 z"
             inkscape:connector-curvature="0"
             style="stroke-width:1.31764078" />
        </g>
        <g
           id="g999"
           style="stroke-width:1.31764078">
          <line
             id="line995"
             y2="532.29999"
             x2="370.89999"
             y1="582.5"
             x1="370.89999"
             class="st3"
             style="fill:#ffda00;stroke-width:1.31764078" />
          <rect
             id="rect997"
             height="50.200001"
             width="1.7"
             y="532.29999"
             x="370.10001"
             style="stroke-width:1.31764078" />
        </g>
        <g
           id="g1005"
           style="stroke-width:1.31764078">
          <line
             id="line1001"
             y2="532.29999"
             x2="379"
             y1="582.5"
             x1="379"
             class="st3"
             style="fill:#ffda00;stroke-width:1.31764078" />
          <rect
             id="rect1003"
             height="50.200001"
             width="1.7"
             y="532.29999"
             x="378.10001"
             style="stroke-width:1.31764078" />
        </g>
        <g
           id="g1011"
           style="stroke-width:1.31764078">
          <line
             id="line1007"
             y2="532.29999"
             x2="387"
             y1="582.5"
             x1="387"
             class="st3"
             style="fill:#ffda00;stroke-width:1.31764078" />
          <rect
             id="rect1009"
             height="50.200001"
             width="1.7"
             y="532.29999"
             x="386.20001"
             style="stroke-width:1.31764078" />
        </g>
        <g
           id="g1017"
           style="stroke-width:1.31764078">
          <line
             id="line1013"
             y2="532.29999"
             x2="362.79999"
             y1="582.5"
             x1="362.79999"
             class="st3"
             style="fill:#ffda00;stroke-width:1.31764078" />
          <rect
             id="rect1015"
             height="50.200001"
             width="1.7"
             y="532.29999"
             x="362"
             style="stroke-width:1.31764078" />
        </g>
      </g>
      <g
         id="g1051"
         style="stroke-width:1.31764078">
        <g
           id="g1025"
           style="stroke-width:1.31764078">
          <path
             id="path1021"
             d="m 200.2,345.2 v 24.9 c 0,5.6 -41.7,10.3 -41.7,10.3 -4.6,0 -8.5,-4.6 -8.5,-10.3 v -24.9 c 0,-5.6 3.8,-10.3 8.5,-10.3 -0.1,0.1 41.7,4.7 41.7,10.3 z"
             class="st3"
             inkscape:connector-curvature="0"
             style="fill:#ffdd00;fill-opacity:1;stroke-width:1.31764078" />
          <path
             id="path1023"
             d="m 158.6,382.5 h -0.1 c -5.8,0 -10.6,-5.6 -10.6,-12.4 v -24.9 c 0,-6.8 4.7,-12.4 10.6,-12.4 h 0.2 c 0.1,0 10.6,1.2 21,3 20.9,3.7 22.6,6.8 22.6,9.3 V 370 c 0,2.6 -1.7,5.6 -22.6,9.3 -10.4,1.8 -20.9,3 -21,3 z m -0.3,-45.4 c -3.4,0.1 -6.2,3.8 -6.2,8.1 v 24.9 c 0,4.4 2.8,8 6.2,8.1 17.4,-1.9 37.3,-5.7 39.7,-8.4 v -24.3 c -2.4,-2.8 -22.2,-6.5 -39.7,-8.4 z"
             inkscape:connector-curvature="0"
             style="stroke-width:1.31764078" />
        </g>
        <g
           id="g1031"
           style="stroke-width:1.31764078">
          <line
             id="line1027"
             y2="353.60001"
             x2="200.39999"
             y1="353.60001"
             x1="150.2"
             class="st3"
             style="fill:#ffda00;stroke-width:1.31764078" />
          <rect
             id="rect1029"
             height="1.7"
             width="50.200001"
             y="352.79999"
             x="150.2"
             style="stroke-width:1.31764078" />
        </g>
        <g
           id="g1037"
           style="stroke-width:1.31764078">
          <line
             id="line1033"
             y2="361.70001"
             x2="200.39999"
             y1="361.70001"
             x1="150.2"
             class="st3"
             style="fill:#ffda00;stroke-width:1.31764078" />
          <rect
             id="rect1035"
             height="1.7"
             width="50.200001"
             y="360.79999"
             x="150.2"
             style="stroke-width:1.31764078" />
        </g>
        <g
           id="g1043"
           style="stroke-width:1.31764078">
          <line
             id="line1039"
             y2="369.79999"
             x2="200.39999"
             y1="369.79999"
             x1="150.2"
             class="st3"
             style="fill:#ffda00;stroke-width:1.31764078" />
          <rect
             id="rect1041"
             height="1.7"
             width="50.200001"
             y="368.89999"
             x="150.2"
             style="stroke-width:1.31764078" />
        </g>
        <g
           id="g1049"
           style="stroke-width:1.31764078">
          <line
             id="line1045"
             y2="345.60001"
             x2="200.39999"
             y1="345.60001"
             x1="150.2"
             class="st3"
             style="fill:#ffda00;stroke-width:1.31764078" />
          <rect
             id="rect1047"
             height="1.7"
             width="50.200001"
             y="344.70001"
             x="150.2"
             style="stroke-width:1.31764078" />
        </g>
      </g>
    </g>
  </g>
</svg>
