<?xml version="1.0" encoding="UTF-8" standalone="no"?>
<!-- Created with Inkscape (http://www.inkscape.org/) -->

<svg
   xmlns:dc="http://purl.org/dc/elements/1.1/"
   xmlns:cc="http://creativecommons.org/ns#"
   xmlns:rdf="http://www.w3.org/1999/02/22-rdf-syntax-ns#"
   xmlns:svg="http://www.w3.org/2000/svg"
   xmlns="http://www.w3.org/2000/svg"
   xmlns:sodipodi="http://sodipodi.sourceforge.net/DTD/sodipodi-0.dtd"
   xmlns:inkscape="http://www.inkscape.org/namespaces/inkscape"
   version="1.0"
   width="208.86046"
   height="244.65999"
   id="svg2780"
   inkscape:version="0.92.4 (5da689c313, 2019-01-14)"
   sodipodi:docname="Innerthal-blazon.svg">
  <metadata
     id="metadata27">
    <rdf:RDF>
      <cc:Work
         rdf:about="">
        <dc:format>image/svg+xml</dc:format>
        <dc:type
           rdf:resource="http://purl.org/dc/dcmitype/StillImage" />
        <dc:title />
      </cc:Work>
    </rdf:RDF>
  </metadata>
  <sodipodi:namedview
     pagecolor="#ffffff"
     bordercolor="#666666"
     borderopacity="1"
     objecttolerance="10"
     gridtolerance="10"
     guidetolerance="10"
     inkscape:pageopacity="0"
     inkscape:pageshadow="2"
     inkscape:window-width="3259"
     inkscape:window-height="1417"
     id="namedview25"
     showgrid="false"
     inkscape:zoom="4.0000001"
     inkscape:cx="168.27471"
     inkscape:cy="9.8297179"
     inkscape:window-x="-8"
     inkscape:window-y="-8"
     inkscape:window-maximized="1"
     inkscape:current-layer="svg2780"
     inkscape:measure-start="104.255,149.787"
     inkscape:measure-end="104.255,126.383"
     showguides="true"
     inkscape:object-paths="true"
     inkscape:snap-intersection-paths="true" />
  <defs
     id="defs2782" />
  <path
     inkscape:connector-curvature="0"
     style="fill:#cc2918;fill-opacity:1;fill-rule:evenodd;stroke:#000000;stroke-width:1.99999988;stroke-linecap:butt;stroke-miterlimit:4;stroke-dashoffset:0;stroke-opacity:1"
     id="path4212"
     d="m 1,1 3.761095,158.00304 c 2.686489,112.85918 196.651755,112.85918 199.338255,0 L 207.86045,1 Z" />
  <path
     style="opacity:1;fill:#ffffff;fill-opacity:1;stroke:#000000;stroke-width:1;stroke-miterlimit:8;stroke-dasharray:none;stroke-dashoffset:4.57999992;stroke-opacity:1"
     d="M 4.2026314,135.54207 9,132.15999 l 1.875,-5.625 7.125,-3 3.25,-7 3.625,-0.25 2.75,-9.75 7.25,-1.375 6.625,-5.750002 14,13.125002 4,0.125 1.5,11.375 4,3.375 0.75,5.875 3.375,3.75 8.25,7 2.875,16.75 11.25,9.375 8.25,0.625 7.375,5.25 9.375,-3.875 1.375,-7.875 3.25,-2.75 3.25,-11.875 15.125,-9.625 0.875,-3.125 13.375,-12.125 0.875,-10.875 11.875,-12.125 2.75,3.625 6.875,-1 5.875,6.125 2.875,10.875 8.875,1.625 4.375,6.375 6.62211,2.38088 c 0,34.04639 -0.82508,49.18688 -11.59619,67.34092 H 15.709523 C 5.1552998,179.97486 4.2026314,166.11527 4.2026314,135.54207 Z"
     id="path4345"
     inkscape:connector-curvature="0"
     sodipodi:nodetypes="ccccccccccccccccccccccccccccccccccccccc" />
  <path
     style="opacity:1;fill:#1b63c6;fill-opacity:1;stroke:#000000;stroke-width:1;stroke-miterlimit:8;stroke-dasharray:none;stroke-dashoffset:4.57999992;stroke-opacity:1"
     d="m 15.709523,199.13179 c 11.53795,21.62986 42.668769,44.51563 88.720717,44.51563 45.17548,0 73.42512,-19.69031 88.72068,-44.51563 z"
     id="path4347"
     inkscape:connector-curvature="0"
     sodipodi:nodetypes="cccc" />
  <path
     style="opacity:1;fill:none;fill-opacity:1;stroke:#000000;stroke-width:1;stroke-miterlimit:8;stroke-dasharray:none;stroke-dashoffset:4.57999992;stroke-opacity:1"
     d="m 107.125,176.03499 -1.6777,5.51572 -14.053748,1.85615 -5.39169,8.48528"
     id="path4349"
     inkscape:connector-curvature="0" />
  <path
     style="opacity:1;fill:none;fill-opacity:1;stroke:#000000;stroke-width:1;stroke-miterlimit:8;stroke-dasharray:none;stroke-dashoffset:4.57999992;stroke-opacity:1"
     d="m 116.5,172.15999 3.08943,2.76159 7.51301,-0.0884 8.48529,6.98268"
     id="path4351"
     inkscape:connector-curvature="0" />
  <path
     style="opacity:1;fill:none;fill-opacity:1;stroke:#000000;stroke-width:1;stroke-miterlimit:8;stroke-dasharray:none;stroke-dashoffset:4.57999992;stroke-opacity:1"
     d="m 127.10244,174.83318 -1.5026,5.92203 3.35876,6.62913"
     id="path4353"
     inkscape:connector-curvature="0" />
  <path
     style="opacity:1;fill:none;fill-opacity:1;stroke:#000000;stroke-width:1;stroke-miterlimit:8;stroke-dasharray:none;stroke-dashoffset:4.57999992;stroke-opacity:1"
     d="m 124.375,149.65999 3.16939,6.61165 19.09188,6.27557 2.82843,5.56847 7.15945,3.62392 10.78338,0.0884 4.50781,5.39169"
     id="path4355"
     inkscape:connector-curvature="0" />
  <path
     style="opacity:1;fill:none;fill-opacity:1;stroke:#000000;stroke-width:1;stroke-miterlimit:8;stroke-dasharray:none;stroke-dashoffset:4.57999992;stroke-opacity:1"
     d="m 149.4647,168.11568 3.27037,8.04334 4.69922,2.53979 2.37184,7.27132"
     id="path4357"
     inkscape:connector-curvature="0" />
  <path
     style="opacity:1;fill:none;fill-opacity:1;stroke:#000000;stroke-width:1;stroke-miterlimit:8;stroke-dasharray:none;stroke-dashoffset:4.57999992;stroke-opacity:1"
     d="m 153.75,124.78499 9.76844,4.88176 2.56327,4.15425 7.60139,1.5026 5.12653,4.50781"
     id="path4359"
     inkscape:connector-curvature="0" />
  <path
     style="opacity:1;fill:none;fill-opacity:1;stroke:#000000;stroke-width:1;stroke-miterlimit:8;stroke-dasharray:none;stroke-dashoffset:4.57999992;stroke-opacity:1"
     d="m 154.625,113.90999 10.7496,7.44825 2.12132,8.57367 6.18718,5.39169"
     id="path4361"
     inkscape:connector-curvature="0" />
  <path
     style="opacity:1;fill:none;fill-opacity:1;stroke:#000000;stroke-width:1;stroke-miterlimit:8;stroke-dasharray:none;stroke-dashoffset:4.57999992;stroke-opacity:1"
     d="m 198.125,129.40999 -6.49906,1.67097 -3.18198,7.6014"
     id="path4363"
     inkscape:connector-curvature="0" />
  <path
     style="opacity:1;fill:none;fill-opacity:1;stroke:#000000;stroke-width:1;stroke-miterlimit:8;stroke-dasharray:none;stroke-dashoffset:4.57999992;stroke-opacity:1"
     d="m 84.809903,34.317857 c -1.562746,-1.620193 -2.15071,-3.375638 -1.941822,-5.461893 0.173655,-1.734322 -0.254392,-3.16898 -1.483307,-4.425324 -1.293815,-1.322694 -1.760293,-2.808897 -1.456087,-4.466556 0.294292,-1.603632 0.152463,-3.668587 -0.967629,-5.565063 1.204855,0.41229 3.591417,1.130676 4.01014,3.145065 0.406735,1.956707 1.051284,3.334019 2.435812,4.130551 1.475726,0.848993 3.068972,1.628015 3.391266,3.885105 0.271262,1.899679 1.746349,3.236346 3.319412,4.61551 z"
     id="path4373-1"
     inkscape:connector-curvature="0"
     sodipodi:nodetypes="cssscssscc" />
  <path
     style="opacity:1;fill:none;fill-opacity:1;stroke:#000000;stroke-width:1;stroke-miterlimit:8;stroke-dasharray:none;stroke-dashoffset:4.57999992;stroke-opacity:1"
     d="M 85.697309,33.93309 104.43024,60.370278"
     id="path4375-4"
     inkscape:connector-curvature="0" />
  <path
     style="opacity:1;fill:#feeb00;fill-opacity:1;stroke:#000000;stroke-width:1;stroke-miterlimit:8;stroke-dasharray:none;stroke-dashoffset:4.57999992;stroke-opacity:1"
     d="m 100.46474,27.998051 c -0.543281,-2.184501 -0.17475,-3.998743 1.04928,-5.701049 1.01755,-1.415139 1.36418,-2.871613 0.92808,-4.574097 -0.45913,-1.792394 -0.12001,-3.312722 0.97227,-4.596194 1.05668,-1.24164 1.96633,-3.100858 1.94454,-5.3033007 0.83729,0.9594809 2.54492,2.7749027 1.90035,4.7287767 -0.62611,1.897925 -0.75657,3.412987 0.0442,4.795068 0.85352,1.473112 1.8438,2.944388 0.99437,5.060233 -0.71492,1.780801 -0.10579,3.675932 0.56694,5.656854 z"
     id="path4373"
     inkscape:connector-curvature="0"
     sodipodi:nodetypes="cssscssscc" />
  <path
     style="opacity:1;fill:none;fill-opacity:1;stroke:#000000;stroke-width:1;stroke-miterlimit:8;stroke-dasharray:none;stroke-dashoffset:4.57999992;stroke-opacity:1"
     d="m 101.42564,28.108536 3.0046,32.261742"
     id="path4375"
     inkscape:connector-curvature="0" />
  <path
     style="opacity:1;fill:#feeb00;fill-opacity:1;stroke:#000000;stroke-width:1;stroke-miterlimit:8;stroke-dasharray:none;stroke-dashoffset:4.57999992;stroke-opacity:1"
     d="M 92.221312,30.127455 C 91.131153,28.158 91.017566,26.310194 91.759299,24.349091 92.375912,22.71881 92.333767,21.22225 91.471892,19.690647 90.564501,18.078159 90.498576,16.521865 91.22145,14.999423 c 0.699314,-1.472821 1.096768,-3.504122 0.505686,-5.6258791 1.057092,0.7100811 3.176402,2.0216761 3.059495,4.0758011 -0.113557,1.995304 0.152555,3.492507 1.283749,4.62024 1.205706,1.20201 2.543037,2.36685 2.270172,4.630448 -0.229654,1.905156 0.849216,3.578058 2.011728,5.317366 z"
     id="path4373-7"
     inkscape:connector-curvature="0"
     sodipodi:nodetypes="cssscssscc" />
  <path
     style="opacity:1;fill:none;fill-opacity:1;stroke:#000000;stroke-width:1;stroke-miterlimit:8;stroke-dasharray:none;stroke-dashoffset:4.57999992;stroke-opacity:1"
     d="M 93.178066,29.985476 104.43024,60.370278"
     id="path4375-1"
     inkscape:connector-curvature="0" />
  <path
     style="opacity:1;fill:#feeb00;fill-opacity:1;stroke:#000000;stroke-width:1;stroke-miterlimit:8;stroke-dasharray:none;stroke-dashoffset:4.57999992;stroke-opacity:1"
     d="m 84.809903,34.317857 c -1.562746,-1.620193 -2.15071,-3.375638 -1.941822,-5.461893 0.173655,-1.734322 -0.254392,-3.16898 -1.483307,-4.425324 -1.293815,-1.322694 -1.760293,-2.808897 -1.456087,-4.466556 0.294292,-1.603632 0.152463,-3.668587 -0.967629,-5.565063 1.204855,0.41229 3.591417,1.130676 4.01014,3.145065 0.406735,1.956707 1.051284,3.334019 2.435812,4.130551 1.475726,0.848993 3.068972,1.628015 3.391266,3.885105 0.271262,1.899679 1.746349,3.236346 3.319412,4.61551 z"
     id="path4373-4"
     inkscape:connector-curvature="0"
     sodipodi:nodetypes="cssscssscc" />
  <path
     style="opacity:1;fill:none;fill-opacity:1;stroke:#000000;stroke-width:1;stroke-miterlimit:8;stroke-dasharray:none;stroke-dashoffset:4.57999992;stroke-opacity:1"
     d="M 85.697309,33.93309 104.43024,60.370278"
     id="path4375-8"
     inkscape:connector-curvature="0" />
  <path
     style="opacity:1;fill:#feeb00;fill-opacity:1;stroke:#000000;stroke-width:1;stroke-miterlimit:8;stroke-dasharray:none;stroke-dashoffset:4.57999992;stroke-opacity:1"
     d="m 78.735587,40.283689 c -1.928833,-1.160518 -2.951105,-2.703972 -3.289298,-4.773204 -0.281137,-1.720171 -1.065916,-2.995158 -2.578123,-3.890626 -1.592068,-0.94276 -2.427308,-2.257589 -2.562501,-3.937499 -0.130787,-1.625158 -0.802233,-3.583043 -2.375003,-5.124997 1.270509,0.0864 3.761683,0.162622 4.687501,1.999999 0.899309,1.784763 1.87837,2.948322 3.421879,3.359371 1.645177,0.438118 3.38576,0.778234 4.281251,2.875 0.753692,1.764741 2.524471,2.674081 4.400887,3.599112 z"
     id="path4373-73"
     inkscape:connector-curvature="0"
     sodipodi:nodetypes="cssscssscc" />
  <path
     style="opacity:1;fill:none;fill-opacity:1;stroke:#000000;stroke-width:1;stroke-miterlimit:8;stroke-dasharray:none;stroke-dashoffset:4.57999992;stroke-opacity:1"
     d="m 79.49317,39.682354 24.93707,20.687924"
     id="path4375-5"
     inkscape:connector-curvature="0" />
  <path
     style="opacity:1;fill:#feeb00;fill-opacity:1;stroke:#000000;stroke-width:1;stroke-miterlimit:8;stroke-dasharray:none;stroke-dashoffset:4.57999992;stroke-opacity:1"
     d="m 74.412319,47.618388 c -2.163474,-0.621755 -3.550388,-1.848033 -4.412613,-3.759227 -0.716772,-1.588794 -1.8048,-2.617221 -3.497244,-3.09079 -1.781824,-0.498579 -2.928907,-1.552429 -3.494286,-3.140107 -0.546952,-1.535932 -1.702257,-3.253321 -3.620523,-4.335672 1.24958,-0.245374 3.675596,-0.816514 5.045415,0.718637 1.330597,1.49119 2.577449,2.361703 4.174751,2.359256 1.702513,-0.0026 3.471815,-0.124584 4.879475,1.668967 1.184759,1.509539 3.130556,1.929583 5.18245,2.337442 z"
     id="path4373-7-1"
     inkscape:connector-curvature="0"
     sodipodi:nodetypes="cssscssscc" />
  <path
     style="opacity:1;fill:none;fill-opacity:1;stroke:#000000;stroke-width:1;stroke-miterlimit:8;stroke-dasharray:none;stroke-dashoffset:4.57999992;stroke-opacity:1"
     d="M 74.988452,46.841467 104.43024,60.370278"
     id="path4375-1-3"
     inkscape:connector-curvature="0" />
  <path
     style="opacity:1;fill:#feeb00;fill-opacity:1;stroke:#000000;stroke-width:1;stroke-miterlimit:8;stroke-dasharray:none;stroke-dashoffset:4.57999992;stroke-opacity:1"
     d="m 72.134723,55.822108 c -2.250677,-0.04062 -3.907718,-0.866155 -5.235217,-2.489067 -1.103558,-1.349142 -2.420689,-2.060925 -4.178034,-2.08032 -1.850151,-0.02042 -3.230904,-0.741474 -4.18794,-2.128723 -0.925843,-1.342034 -2.486275,-2.70189 -4.619311,-3.250876 1.143494,-0.560429 3.339024,-1.740007 5.059494,-0.6117 1.671206,1.095995 3.100878,1.614136 4.64312,1.198361 1.643824,-0.443168 3.321271,-1.01891 5.145172,0.349197 1.535086,1.151465 3.523297,1.053586 5.610836,0.916479 z"
     id="path4373-4-2"
     inkscape:connector-curvature="0"
     sodipodi:nodetypes="cssscssscc" />
  <path
     style="opacity:1;fill:none;fill-opacity:1;stroke:#000000;stroke-width:1;stroke-miterlimit:8;stroke-dasharray:none;stroke-dashoffset:4.57999992;stroke-opacity:1"
     d="m 72.490142,54.922545 31.940098,5.447733"
     id="path4375-8-1"
     inkscape:connector-curvature="0" />
  <path
     style="opacity:1;fill:#feeb00;fill-opacity:1;stroke:#000000;stroke-width:1;stroke-miterlimit:8;stroke-dasharray:none;stroke-dashoffset:4.57999992;stroke-opacity:1"
     d="m 72.058013,64.335778 c -2.184501,0.543281 -3.998743,0.17475 -5.701049,-1.04928 -1.415139,-1.01755 -2.871613,-1.36418 -4.574097,-0.92808 -1.792394,0.45913 -3.312722,0.12001 -4.596194,-0.97227 -1.24164,-1.05668 -3.100858,-1.96633 -5.303301,-1.94454 0.959481,-0.83729 2.774903,-2.54492 4.728777,-1.90035 1.897925,0.62611 3.412987,0.75657 4.795068,-0.0442 1.473112,-0.85352 2.944388,-1.8438 5.060233,-0.99437 1.780801,0.71492 3.675932,0.10579 5.656854,-0.56694 z"
     id="path4373-44"
     inkscape:connector-curvature="0"
     sodipodi:nodetypes="cssscssscc" />
  <path
     style="opacity:1;fill:none;fill-opacity:1;stroke:#000000;stroke-width:1;stroke-miterlimit:8;stroke-dasharray:none;stroke-dashoffset:4.57999992;stroke-opacity:1"
     d="m 72.168498,63.374878 32.261742,-3.0046"
     id="path4375-6"
     inkscape:connector-curvature="0" />
  <path
     style="opacity:1;fill:#feeb00;fill-opacity:1;stroke:#000000;stroke-width:1;stroke-miterlimit:8;stroke-dasharray:none;stroke-dashoffset:4.57999992;stroke-opacity:1"
     d="m 74.187417,72.579206 c -1.969455,1.090159 -3.817261,1.203746 -5.778364,0.462013 -1.630281,-0.616613 -3.126841,-0.574468 -4.658444,0.287407 -1.612488,0.907391 -3.168782,0.973316 -4.691224,0.250442 -1.472821,-0.699314 -3.504122,-1.096768 -5.625879,-0.505686 0.710081,-1.057092 2.021676,-3.176402 4.075801,-3.059495 1.995304,0.113557 3.492507,-0.152555 4.62024,-1.283749 1.20201,-1.205706 2.36685,-2.543037 4.630448,-2.270172 1.905156,0.229654 3.578058,-0.849216 5.317366,-2.011724 z"
     id="path4373-7-3"
     inkscape:connector-curvature="0"
     sodipodi:nodetypes="cssscssscc" />
  <path
     style="opacity:1;fill:none;fill-opacity:1;stroke:#000000;stroke-width:1;stroke-miterlimit:8;stroke-dasharray:none;stroke-dashoffset:4.57999992;stroke-opacity:1"
     d="M 74.045438,71.622452 104.43024,60.370278"
     id="path4375-1-0"
     inkscape:connector-curvature="0" />
  <path
     style="opacity:1;fill:#feeb00;fill-opacity:1;stroke:#000000;stroke-width:1;stroke-miterlimit:8;stroke-dasharray:none;stroke-dashoffset:4.57999992;stroke-opacity:1"
     d="m 78.377819,79.990615 c -1.620193,1.562746 -3.375638,2.15071 -5.461893,1.941822 -1.734322,-0.173655 -3.16898,0.254392 -4.425324,1.483307 -1.322694,1.293815 -2.808897,1.760293 -4.466556,1.456087 -1.603632,-0.294292 -3.668587,-0.152463 -5.565063,0.967629 0.41229,-1.204855 1.130676,-3.591417 3.145065,-4.01014 1.956707,-0.406735 3.334019,-1.051284 4.130551,-2.435812 0.848993,-1.475726 1.628015,-3.068972 3.885105,-3.391266 1.899679,-0.271262 3.236346,-1.746349 4.61551,-3.319412 z"
     id="path4373-4-1"
     inkscape:connector-curvature="0"
     sodipodi:nodetypes="cssscssscc" />
  <path
     style="opacity:1;fill:none;fill-opacity:1;stroke:#000000;stroke-width:1;stroke-miterlimit:8;stroke-dasharray:none;stroke-dashoffset:4.57999992;stroke-opacity:1"
     d="M 77.993052,79.103209 104.43024,60.370278"
     id="path4375-8-7"
     inkscape:connector-curvature="0" />
  <path
     style="opacity:1;fill:#feeb00;fill-opacity:1;stroke:#000000;stroke-width:1;stroke-miterlimit:8;stroke-dasharray:none;stroke-dashoffset:4.57999992;stroke-opacity:1"
     d="m 84.343651,86.064931 c -1.160518,1.928833 -2.703972,2.951105 -4.773204,3.289298 -1.720171,0.281137 -2.995158,1.065916 -3.890626,2.578123 -0.94276,1.592068 -2.257589,2.427308 -3.937499,2.562501 -1.625158,0.130787 -3.583043,0.802233 -5.124997,2.375003 0.0864,-1.270509 0.162622,-3.761683 1.999999,-4.687501 1.784763,-0.899309 2.948322,-1.87837 3.359371,-3.421879 0.438118,-1.645177 0.778234,-3.38576 2.875,-4.281251 1.764741,-0.753692 2.674081,-2.524471 3.599112,-4.400887 z"
     id="path4373-71"
     inkscape:connector-curvature="0"
     sodipodi:nodetypes="cssscssscc" />
  <path
     style="opacity:1;fill:none;fill-opacity:1;stroke:#000000;stroke-width:1;stroke-miterlimit:8;stroke-dasharray:none;stroke-dashoffset:4.57999992;stroke-opacity:1"
     d="M 83.742316,85.307348 104.43024,60.370278"
     id="path4375-9"
     inkscape:connector-curvature="0" />
  <path
     style="opacity:1;fill:#feeb00;fill-opacity:1;stroke:#000000;stroke-width:1;stroke-miterlimit:8;stroke-dasharray:none;stroke-dashoffset:4.57999992;stroke-opacity:1"
     d="m 91.67835,90.388199 c -0.621755,2.163474 -1.848033,3.550388 -3.759227,4.412613 -1.588794,0.716772 -2.617221,1.8048 -3.09079,3.497244 -0.498579,1.781824 -1.552429,2.928904 -3.140107,3.494284 -1.535932,0.54695 -3.253321,1.70226 -4.335672,3.62053 -0.245374,-1.24958 -0.816514,-3.6756 0.718637,-5.04542 1.49119,-1.330597 2.361703,-2.577449 2.359256,-4.174751 -0.0026,-1.702513 -0.124584,-3.471815 1.668967,-4.879475 1.509539,-1.184759 1.929583,-3.130556 2.337442,-5.18245 z"
     id="path4373-7-9"
     inkscape:connector-curvature="0"
     sodipodi:nodetypes="cssscssscc" />
  <path
     style="opacity:1;fill:none;fill-opacity:1;stroke:#000000;stroke-width:1;stroke-miterlimit:8;stroke-dasharray:none;stroke-dashoffset:4.57999992;stroke-opacity:1"
     d="M 90.901429,89.812066 104.43024,60.370278"
     id="path4375-1-4"
     inkscape:connector-curvature="0" />
  <path
     style="opacity:1;fill:#feeb00;fill-opacity:1;stroke:#000000;stroke-width:1;stroke-miterlimit:8;stroke-dasharray:none;stroke-dashoffset:4.57999992;stroke-opacity:1"
     d="m 99.88207,92.665795 c -0.04062,2.250677 -0.866155,3.907718 -2.489067,5.235217 -1.349142,1.103558 -2.060925,2.420688 -2.08032,4.178038 -0.02042,1.85015 -0.741474,3.2309 -2.128723,4.18794 -1.342034,0.92584 -2.70189,2.48627 -3.250876,4.61931 -0.560429,-1.1435 -1.740007,-3.33903 -0.6117,-5.0595 1.095995,-1.6712 1.614136,-3.10087 1.198361,-4.64312 -0.443168,-1.643821 -1.01891,-3.321268 0.349197,-5.145169 1.151465,-1.535086 1.053586,-3.523297 0.916479,-5.610836 z"
     id="path4373-4-8"
     inkscape:connector-curvature="0"
     sodipodi:nodetypes="cssscssscc" />
  <path
     style="opacity:1;fill:none;fill-opacity:1;stroke:#000000;stroke-width:1;stroke-miterlimit:8;stroke-dasharray:none;stroke-dashoffset:4.57999992;stroke-opacity:1"
     d="M 98.982507,92.310376 104.43024,60.370278"
     id="path4375-8-75"
     inkscape:connector-curvature="0" />
  <path
     style="opacity:1;fill:#feeb00;fill-opacity:1;stroke:#000000;stroke-width:1;stroke-miterlimit:8;stroke-dasharray:none;stroke-dashoffset:4.57999992;stroke-opacity:1"
     d="m 108.39574,92.742505 c 0.54328,2.184501 0.17475,3.998743 -1.04928,5.701049 -1.01755,1.415139 -1.36418,2.871616 -0.92808,4.574096 0.45913,1.7924 0.12001,3.31272 -0.97227,4.59619 -1.05668,1.24165 -1.96633,3.10086 -1.94454,5.30331 -0.83729,-0.95949 -2.54492,-2.77491 -1.90035,-4.72878 0.62611,-1.89793 0.75657,-3.41299 -0.0442,-4.79507 -0.85352,-1.47311 -1.8438,-2.94439 -0.99437,-5.060232 0.71492,-1.780801 0.10579,-3.675932 -0.56694,-5.656854 z"
     id="path4373-8"
     inkscape:connector-curvature="0"
     sodipodi:nodetypes="cssscssscc" />
  <path
     style="opacity:1;fill:none;fill-opacity:1;stroke:#000000;stroke-width:1;stroke-miterlimit:8;stroke-dasharray:none;stroke-dashoffset:4.57999992;stroke-opacity:1"
     d="m 107.43484,92.63202 -3.0046,-32.261742"
     id="path4375-3"
     inkscape:connector-curvature="0" />
  <path
     style="opacity:1;fill:#feeb00;fill-opacity:1;stroke:#000000;stroke-width:1;stroke-miterlimit:8;stroke-dasharray:none;stroke-dashoffset:4.57999992;stroke-opacity:1"
     d="m 116.63917,90.613101 c 1.09016,1.969455 1.20374,3.817261 0.46201,5.778364 -0.61661,1.630281 -0.57447,3.126841 0.28741,4.658445 0.90739,1.61249 0.97331,3.16878 0.25044,4.69122 -0.69931,1.47282 -1.09677,3.50413 -0.50569,5.62588 -1.05709,-0.71008 -3.1764,-2.02167 -3.05949,-4.0758 0.11356,-1.9953 -0.15256,-3.49251 -1.28375,-4.62024 -1.20571,-1.20201 -2.54304,-2.36685 -2.27017,-4.630447 0.22965,-1.905156 -0.84922,-3.578058 -2.01173,-5.317366 z"
     id="path4373-7-2"
     inkscape:connector-curvature="0"
     sodipodi:nodetypes="cssscssscc" />
  <path
     style="opacity:1;fill:none;fill-opacity:1;stroke:#000000;stroke-width:1;stroke-miterlimit:8;stroke-dasharray:none;stroke-dashoffset:4.57999992;stroke-opacity:1"
     d="M 115.68241,90.75508 104.43024,60.370278"
     id="path4375-1-7"
     inkscape:connector-curvature="0" />
  <path
     style="opacity:1;fill:#feeb00;fill-opacity:1;stroke:#000000;stroke-width:1;stroke-miterlimit:8;stroke-dasharray:none;stroke-dashoffset:4.57999992;stroke-opacity:1"
     d="m 124.05058,86.422699 c 1.56274,1.620193 2.15071,3.375638 1.94182,5.461893 -0.17366,1.734322 0.25439,3.16898 1.48331,4.425324 1.29381,1.322694 1.76029,2.808897 1.45608,4.466554 -0.29429,1.60363 -0.15246,3.66859 0.96763,5.56507 -1.20485,-0.41229 -3.59141,-1.13068 -4.01014,-3.14507 -0.40673,-1.95671 -1.05128,-3.334019 -2.43581,-4.130551 -1.47573,-0.848993 -3.06897,-1.628015 -3.39127,-3.885105 -0.27126,-1.899679 -1.74635,-3.236346 -3.31941,-4.61551 z"
     id="path4373-4-7"
     inkscape:connector-curvature="0"
     sodipodi:nodetypes="cssscssscc" />
  <path
     style="opacity:1;fill:none;fill-opacity:1;stroke:#000000;stroke-width:1;stroke-miterlimit:8;stroke-dasharray:none;stroke-dashoffset:4.57999992;stroke-opacity:1"
     d="M 123.16317,86.807466 104.43024,60.370278"
     id="path4375-8-76"
     inkscape:connector-curvature="0" />
  <path
     style="opacity:1;fill:#feeb00;fill-opacity:1;stroke:#000000;stroke-width:1;stroke-miterlimit:8;stroke-dasharray:none;stroke-dashoffset:4.57999992;stroke-opacity:1"
     d="m 130.12489,80.456867 c 1.92884,1.160518 2.95111,2.703972 3.2893,4.773204 0.28114,1.720171 1.06592,2.995158 2.57812,3.890626 1.59207,0.94276 2.42731,2.257589 2.56251,3.937499 0.13078,1.625158 0.80223,3.583043 2.375,5.124997 -1.27051,-0.0864 -3.76169,-0.162622 -4.6875,-1.999999 -0.89931,-1.784763 -1.87837,-2.948322 -3.42188,-3.359371 -1.64518,-0.438118 -3.38576,-0.778234 -4.28125,-2.875 -0.75369,-1.764741 -2.52447,-2.674081 -4.40089,-3.599112 z"
     id="path4373-9"
     inkscape:connector-curvature="0"
     sodipodi:nodetypes="cssscssscc" />
  <path
     style="opacity:1;fill:none;fill-opacity:1;stroke:#000000;stroke-width:1;stroke-miterlimit:8;stroke-dasharray:none;stroke-dashoffset:4.57999992;stroke-opacity:1"
     d="M 129.36731,81.058202 104.43024,60.370278"
     id="path4375-96"
     inkscape:connector-curvature="0" />
  <path
     style="opacity:1;fill:#feeb00;fill-opacity:1;stroke:#000000;stroke-width:1;stroke-miterlimit:8;stroke-dasharray:none;stroke-dashoffset:4.57999992;stroke-opacity:1"
     d="m 134.44816,73.122168 c 2.16347,0.621755 3.55039,1.848033 4.41261,3.759227 0.71678,1.588794 1.8048,2.617221 3.49725,3.09079 1.78182,0.498579 2.9289,1.552429 3.49428,3.140107 0.54696,1.535932 1.70226,3.253321 3.62053,4.335672 -1.24958,0.245374 -3.6756,0.816514 -5.04542,-0.718637 -1.33059,-1.49119 -2.57745,-2.361703 -4.17475,-2.359256 -1.70251,0.0026 -3.47181,0.124584 -4.87947,-1.668967 -1.18476,-1.509539 -3.13056,-1.929583 -5.18245,-2.337442 z"
     id="path4373-7-39"
     inkscape:connector-curvature="0"
     sodipodi:nodetypes="cssscssscc" />
  <path
     style="opacity:1;fill:none;fill-opacity:1;stroke:#000000;stroke-width:1;stroke-miterlimit:8;stroke-dasharray:none;stroke-dashoffset:4.57999992;stroke-opacity:1"
     d="M 133.87203,73.899089 104.43024,60.370278"
     id="path4375-1-9"
     inkscape:connector-curvature="0" />
  <path
     style="opacity:1;fill:#feeb00;fill-opacity:1;stroke:#000000;stroke-width:1;stroke-miterlimit:8;stroke-dasharray:none;stroke-dashoffset:4.57999992;stroke-opacity:1"
     d="m 136.72576,64.918448 c 2.25067,0.04062 3.90771,0.866155 5.23521,2.489067 1.10356,1.349142 2.42069,2.060925 4.17804,2.08032 1.85015,0.02042 3.2309,0.741474 4.18794,2.128723 0.92584,1.342034 2.48627,2.70189 4.61931,3.250876 -1.14349,0.560429 -3.33902,1.740007 -5.0595,0.6117 -1.6712,-1.095995 -3.10087,-1.614136 -4.64312,-1.198361 -1.64382,0.443168 -3.32127,1.01891 -5.14517,-0.349197 -1.53508,-1.151465 -3.52329,-1.053586 -5.61083,-0.916479 z"
     id="path4373-4-0"
     inkscape:connector-curvature="0"
     sodipodi:nodetypes="cssscssscc" />
  <path
     style="opacity:1;fill:none;fill-opacity:1;stroke:#000000;stroke-width:1;stroke-miterlimit:8;stroke-dasharray:none;stroke-dashoffset:4.57999992;stroke-opacity:1"
     d="m 136.37034,65.818011 -31.9401,-5.447733"
     id="path4375-8-6"
     inkscape:connector-curvature="0" />
  <path
     style="opacity:1;fill:#feeb00;fill-opacity:1;stroke:#000000;stroke-width:1;stroke-miterlimit:8;stroke-dasharray:none;stroke-dashoffset:4.57999992;stroke-opacity:1"
     d="m 136.80247,56.404778 c 2.1845,-0.543281 3.99874,-0.17475 5.70105,1.04928 1.41513,1.01755 2.87161,1.36418 4.57409,0.92808 1.7924,-0.45913 3.31272,-0.12001 4.5962,0.97227 1.24164,1.05668 3.10085,1.96633 5.3033,1.94454 -0.95948,0.83729 -2.77491,2.54492 -4.72878,1.90035 -1.89792,-0.62611 -3.41299,-0.75657 -4.79507,0.0442 -1.47311,0.85352 -2.94439,1.8438 -5.06023,0.99437 -1.7808,-0.71492 -3.67593,-0.10579 -5.65685,0.56694 z"
     id="path4373-13"
     inkscape:connector-curvature="0"
     sodipodi:nodetypes="cssscssscc" />
  <path
     style="opacity:1;fill:none;fill-opacity:1;stroke:#000000;stroke-width:1;stroke-miterlimit:8;stroke-dasharray:none;stroke-dashoffset:4.57999992;stroke-opacity:1"
     d="m 136.69198,57.365678 -32.26174,3.0046"
     id="path4375-45"
     inkscape:connector-curvature="0" />
  <path
     style="opacity:1;fill:#feeb00;fill-opacity:1;stroke:#000000;stroke-width:1;stroke-miterlimit:8;stroke-dasharray:none;stroke-dashoffset:4.57999992;stroke-opacity:1"
     d="m 134.67306,48.16135 c 1.96946,-1.090159 3.81726,-1.203746 5.77837,-0.462013 1.63028,0.616613 3.12684,0.574468 4.65844,-0.287407 1.61249,-0.907391 3.16878,-0.973316 4.69122,-0.250442 1.47283,0.699314 3.50413,1.096768 5.62588,0.505686 -0.71008,1.057092 -2.02167,3.176402 -4.0758,3.059495 -1.9953,-0.113557 -3.4925,0.152555 -4.62024,1.283749 -1.20201,1.205706 -2.36685,2.543037 -4.63044,2.270172 -1.90516,-0.229654 -3.57806,0.849216 -5.31737,2.011724 z"
     id="path4373-7-5"
     inkscape:connector-curvature="0"
     sodipodi:nodetypes="cssscssscc" />
  <path
     style="opacity:1;fill:none;fill-opacity:1;stroke:#000000;stroke-width:1;stroke-miterlimit:8;stroke-dasharray:none;stroke-dashoffset:4.57999992;stroke-opacity:1"
     d="m 134.81504,49.118104 -30.3848,11.252174"
     id="path4375-1-39"
     inkscape:connector-curvature="0" />
  <path
     style="opacity:1;fill:#feeb00;fill-opacity:1;stroke:#000000;stroke-width:1;stroke-miterlimit:8;stroke-dasharray:none;stroke-dashoffset:4.57999992;stroke-opacity:1"
     d="m 130.48266,40.749941 c 1.62019,-1.562746 3.37564,-2.15071 5.46189,-1.941822 1.73433,0.173655 3.16898,-0.254392 4.42533,-1.483307 1.32269,-1.293815 2.80889,-1.760293 4.46655,-1.456087 1.60364,0.294292 3.66859,0.152463 5.56507,-0.967629 -0.41229,1.204855 -1.13068,3.591417 -3.14507,4.01014 -1.9567,0.406735 -3.33402,1.051284 -4.13055,2.435812 -0.84899,1.475726 -1.62801,3.068972 -3.8851,3.391266 -1.89968,0.271262 -3.23635,1.746349 -4.61551,3.319412 z"
     id="path4373-4-4"
     inkscape:connector-curvature="0"
     sodipodi:nodetypes="cssscssscc" />
  <path
     style="opacity:1;fill:none;fill-opacity:1;stroke:#000000;stroke-width:1;stroke-miterlimit:8;stroke-dasharray:none;stroke-dashoffset:4.57999992;stroke-opacity:1"
     d="M 130.86743,41.637347 104.43024,60.370278"
     id="path4375-8-8"
     inkscape:connector-curvature="0" />
  <path
     style="opacity:1;fill:#feeb00;fill-opacity:1;stroke:#000000;stroke-width:1;stroke-miterlimit:8;stroke-dasharray:none;stroke-dashoffset:4.57999992;stroke-opacity:1"
     d="m 124.51683,34.675626 c 1.16052,-1.928833 2.70397,-2.951105 4.7732,-3.289298 1.72018,-0.281138 2.99516,-1.065916 3.89063,-2.578123 0.94276,-1.592068 2.25759,-2.427308 3.9375,-2.562501 1.62516,-0.130787 3.58304,-0.802233 5.125,-2.375003 -0.0864,1.270509 -0.16262,3.761683 -2,4.687501 -1.78476,0.899309 -2.94832,1.87837 -3.35937,3.421879 -0.43812,1.645177 -0.77824,3.38576 -2.875,4.281251 -1.76474,0.753691 -2.67408,2.524471 -3.59912,4.400887 z"
     id="path4373-87"
     inkscape:connector-curvature="0"
     sodipodi:nodetypes="cssscssscc" />
  <path
     style="opacity:1;fill:none;fill-opacity:1;stroke:#000000;stroke-width:1;stroke-miterlimit:8;stroke-dasharray:none;stroke-dashoffset:4.57999992;stroke-opacity:1"
     d="m 125.11817,35.433209 -20.68793,24.93707"
     id="path4375-2"
     inkscape:connector-curvature="0" />
  <path
     style="opacity:1;fill:#feeb00;fill-opacity:1;stroke:#000000;stroke-width:1;stroke-miterlimit:8;stroke-dasharray:none;stroke-dashoffset:4.57999992;stroke-opacity:1"
     d="m 117.18213,30.352358 c 0.62176,-2.163474 1.84804,-3.550388 3.75923,-4.412614 1.58879,-0.716771 2.61722,-1.804799 3.09079,-3.497244 0.49858,-1.781824 1.55243,-2.928906 3.14011,-3.494286 1.53593,-0.546951 3.25332,-1.702256 4.33567,-3.620523 0.24537,1.24958 0.81651,3.675596 -0.71864,5.045416 -1.49119,1.330596 -2.3617,2.577448 -2.35925,4.174751 0.003,1.702512 0.12458,3.471814 -1.66897,4.879475 -1.50954,1.184759 -1.92958,3.130555 -2.33744,5.182449 z"
     id="path4373-7-50"
     inkscape:connector-curvature="0"
     sodipodi:nodetypes="cssscssscc" />
  <path
     style="opacity:1;fill:none;fill-opacity:1;stroke:#000000;stroke-width:1;stroke-miterlimit:8;stroke-dasharray:none;stroke-dashoffset:4.57999992;stroke-opacity:1"
     d="M 117.95905,30.92849 104.43024,60.370279"
     id="path4375-1-03"
     inkscape:connector-curvature="0" />
  <path
     style="opacity:1;fill:#feeb00;fill-opacity:1;stroke:#000000;stroke-width:1;stroke-miterlimit:8;stroke-dasharray:none;stroke-dashoffset:4.57999992;stroke-opacity:1"
     d="m 108.97841,28.074761 c 0.0406,-2.250677 0.86616,-3.907718 2.48907,-5.235217 1.34914,-1.103558 2.06092,-2.420689 2.08032,-4.178033 0.0204,-1.850151 0.74147,-3.230905 2.12872,-4.187941 1.34204,-0.925843 2.70189,-2.486275 3.25088,-4.6193108 0.56043,1.1434938 1.74,3.3390238 0.6117,5.0594938 -1.096,1.671206 -1.61414,3.100878 -1.19836,4.64312 0.44316,1.643824 1.01891,3.321271 -0.3492,5.145172 -1.15146,1.535087 -1.05359,3.523297 -0.91648,5.610836 z"
     id="path4373-4-9"
     inkscape:connector-curvature="0"
     sodipodi:nodetypes="cssscssscc" />
  <path
     style="opacity:1;fill:none;fill-opacity:1;stroke:#000000;stroke-width:1;stroke-miterlimit:8;stroke-dasharray:none;stroke-dashoffset:4.57999992;stroke-opacity:1"
     d="m 109.87797,28.430181 -5.44773,31.940097"
     id="path4375-8-5"
     inkscape:connector-curvature="0" />
  <circle
     style="opacity:1;fill:#feeb00;fill-opacity:1;stroke:#000000;stroke-width:1;stroke-miterlimit:8;stroke-dasharray:none;stroke-dashoffset:4.57999992;stroke-opacity:1"
     id="path4371"
     cx="104.43024"
     cy="60.370277"
     r="33.809135" />
  <path
     style="opacity:1;fill:none;fill-opacity:1;stroke:#000000;stroke-width:1;stroke-miterlimit:8;stroke-dasharray:none;stroke-dashoffset:4.57999992;stroke-opacity:1"
     d="m 18,123.53499 3.25,5.625 6.125,3.125"
     id="path4814"
     inkscape:connector-curvature="0" />
  <path
     style="opacity:1;fill:none;fill-opacity:1;stroke:#000000;stroke-width:1;stroke-miterlimit:8;stroke-dasharray:none;stroke-dashoffset:4.57999992;stroke-opacity:1"
     d="m 55.5,112.53499 -11.375,7.875 -10,5.25"
     id="path4816"
     inkscape:connector-curvature="0" />
  <path
     style="opacity:1;fill:none;fill-opacity:1;stroke:#000000;stroke-width:1;stroke-miterlimit:8;stroke-dasharray:none;stroke-dashoffset:4.57999992;stroke-opacity:1"
     d="m 34.875,105.15999 0.875,4.375 5.25,4.5"
     id="path4818"
     inkscape:connector-curvature="0" />
  <path
     style="opacity:1;fill:none;fill-opacity:1;stroke:#000000;stroke-width:1;stroke-miterlimit:8;stroke-dasharray:none;stroke-dashoffset:4.57999992;stroke-opacity:1"
     d="m 80.25,160.78499 -6.375,3 -12.25,-2.75 -4.75,4.75 -18,5.5 -4.875,9.875 -11,5.5"
     id="path4820"
     inkscape:connector-curvature="0" />
  <path
     style="opacity:1;fill:none;fill-opacity:1;stroke:#000000;stroke-width:1;stroke-miterlimit:8;stroke-dasharray:none;stroke-dashoffset:4.57999992;stroke-opacity:1"
     d="m 155.125,145.40999 8.625,3.375 3.625,8.125 20.25,7.5 4.875,9.625"
     id="path4822"
     inkscape:connector-curvature="0" />
  <path
     style="opacity:1;fill:none;fill-opacity:1;stroke:#000000;stroke-width:1;stroke-miterlimit:8;stroke-dasharray:none;stroke-dashoffset:4.57999992;stroke-opacity:1"
     d="m 65.75,133.28499 -7.375,5.5 -10.5,-0.625 -6.25,6.5 4.125,12.75"
     id="path4824"
     inkscape:connector-curvature="0" />
  <path
     style="opacity:1;fill:none;fill-opacity:1;stroke:#000000;stroke-width:1;stroke-miterlimit:8;stroke-dasharray:none;stroke-dashoffset:4.57999992;stroke-opacity:1"
     d="m 16,144.40999 0.875,11.25 8.125,4.375 3.125,10.75"
     id="path4828"
     inkscape:connector-curvature="0" />
  <path
     style="opacity:1;fill:none;fill-opacity:1;stroke:#000000;stroke-width:1;stroke-miterlimit:8;stroke-dasharray:none;stroke-dashoffset:4.57999992;stroke-opacity:1"
     d="m 56.875,165.78499 7.375,3.625 3.125,11.625"
     id="path4830"
     inkscape:connector-curvature="0" />
  <path
     style="opacity:1;fill:#ffffff;fill-opacity:1;stroke:#000000;stroke-width:1;stroke-miterlimit:8;stroke-dasharray:none;stroke-dashoffset:4.57999992;stroke-opacity:1"
     d="m 44.125,120.40999 5.75,1.75 1.875,6.875 3.25,2.875"
     id="path4832"
     inkscape:connector-curvature="0" />
  <path
     inkscape:connector-curvature="0"
     style="fill:none;fill-opacity:1;fill-rule:evenodd;stroke:#000000;stroke-width:1.99999988;stroke-linecap:butt;stroke-miterlimit:4;stroke-dashoffset:0;stroke-opacity:1"
     id="path4212-6"
     d="M 1,0.99999834 4.761095,159.00304 c 2.686489,112.85918 196.651755,112.85918 199.338255,0 l 3.7611,-158.00304166 z" />
</svg>
