<?xml version="1.0" encoding="UTF-8" standalone="no"?>
<!-- Created with Inkscape (http://www.inkscape.org/) -->

<svg
   xmlns:dc="http://purl.org/dc/elements/1.1/"
   xmlns:cc="http://creativecommons.org/ns#"
   xmlns:rdf="http://www.w3.org/1999/02/22-rdf-syntax-ns#"
   xmlns:svg="http://www.w3.org/2000/svg"
   xmlns="http://www.w3.org/2000/svg"
   xmlns:sodipodi="http://sodipodi.sourceforge.net/DTD/sodipodi-0.dtd"
   xmlns:inkscape="http://www.inkscape.org/namespaces/inkscape"
   version="1.0"
   width="208.86046"
   height="244.65999"
   id="svg2780"
   inkscape:version="0.92.4 (5da689c313, 2019-01-14)"
   sodipodi:docname="Reichenburg-blazon.svg">
  <metadata
     id="metadata27">
    <rdf:RDF>
      <cc:Work
         rdf:about="">
        <dc:format>image/svg+xml</dc:format>
        <dc:type
           rdf:resource="http://purl.org/dc/dcmitype/StillImage" />
        <dc:title></dc:title>
      </cc:Work>
    </rdf:RDF>
  </metadata>
  <sodipodi:namedview
     pagecolor="#ffffff"
     bordercolor="#666666"
     borderopacity="1"
     objecttolerance="10"
     gridtolerance="10"
     guidetolerance="10"
     inkscape:pageopacity="0"
     inkscape:pageshadow="2"
     inkscape:window-width="3259"
     inkscape:window-height="1417"
     id="namedview25"
     showgrid="false"
     inkscape:zoom="2.8284271"
     inkscape:cx="147.25523"
     inkscape:cy="124.55167"
     inkscape:window-x="-8"
     inkscape:window-y="-8"
     inkscape:window-maximized="1"
     inkscape:current-layer="svg2780"
     inkscape:measure-start="104.255,149.787"
     inkscape:measure-end="104.255,126.383"
     showguides="true"
     inkscape:object-paths="true"
     inkscape:snap-intersection-paths="true" />
  <defs
     id="defs2782" />
  <path
     inkscape:connector-curvature="0"
     style="fill:#feeb00;fill-opacity:1;fill-rule:evenodd;stroke:#000000;stroke-width:1.99999988;stroke-linecap:butt;stroke-miterlimit:4;stroke-dashoffset:0;stroke-opacity:1"
     id="path4212"
     d="m 1,1 3.761095,158.00304 c 2.686489,112.85918 196.651755,112.85918 199.338255,0 L 207.86045,1 Z" />
  <g
     id="g8705">
    <path
       sodipodi:nodetypes="cccccc"
       inkscape:connector-curvature="0"
       d="m 115.87712,147.43281 3.00521,39.4212 -14.4521,20.24093 -14.45209,-20.24092 3.00521,-39.4212 c 7.63126,0 15.26251,-1e-5 22.89377,-1e-5 z"
       style="opacity:1;fill:#009645;fill-opacity:1;stroke:#000000;stroke-width:1;stroke-miterlimit:8;stroke-dasharray:none;stroke-dashoffset:4.57999992;stroke-opacity:1"
       id="path8454-8" />
    <path
       sodipodi:nodetypes="cccccc"
       inkscape:connector-curvature="0"
       d="m 143.41609,110.79129 38.42045,9.32369 14.78432,19.99956 -23.7162,7.48997 -36.56313,-15.03995 c 2.35819,-7.25776 4.71637,-14.51551 7.07456,-21.77327 z"
       style="opacity:1;fill:#009645;fill-opacity:1;stroke:#000000;stroke-width:1;stroke-miterlimit:8;stroke-dasharray:none;stroke-dashoffset:4.57999992;stroke-opacity:1"
       id="path8454-8-1" />
    <path
       sodipodi:nodetypes="cccccc"
       inkscape:connector-curvature="0"
       d="m 117.07792,73.277332 20.73993,-33.658839 23.58931,-7.880525 -0.20532,24.869974 -25.60247,30.126002 c -6.17382,-4.485542 -12.34764,-8.97107 -18.52145,-13.456612 z"
       style="opacity:1;fill:#009645;fill-opacity:1;stroke:#000000;stroke-width:1;stroke-miterlimit:8;stroke-dasharray:none;stroke-dashoffset:4.57999992;stroke-opacity:1"
       id="path8454-8-2" />
    <path
       sodipodi:nodetypes="cccccc"
       inkscape:connector-curvature="0"
       d="M 73.261093,86.733976 47.658627,56.607974 47.453302,31.737986 71.042603,39.618509 91.782537,73.277348 C 85.608718,77.76289 79.434912,82.248434 73.261093,86.733976 Z"
       style="opacity:1;fill:#009645;fill-opacity:1;stroke:#000000;stroke-width:1;stroke-miterlimit:8;stroke-dasharray:none;stroke-dashoffset:4.57999992;stroke-opacity:1"
       id="path8454-8-0" />
    <path
       sodipodi:nodetypes="cccccc"
       inkscape:connector-curvature="0"
       d="m 72.518965,132.56457 -36.563128,15.03995 -23.716213,-7.48998 14.784317,-19.99954 38.42045,-9.3237 c 2.358189,7.25776 4.716385,14.51551 7.074574,21.77327 z"
       style="opacity:1;fill:#009645;fill-opacity:1;stroke:#000000;stroke-width:1;stroke-miterlimit:8;stroke-dasharray:none;stroke-dashoffset:4.57999992;stroke-opacity:1"
       id="path8454-8-00" />
    <path
       sodipodi:nodetypes="sssccssscs"
       inkscape:connector-curvature="0"
       d="m 92.04798,31.347488 c -12.13073,-6.026554 -20.38245,-0.07627 -22.75,5.125 -4.042032,8.879938 -0.6214,17.522529 4.125,23.25 5.04514,6.087967 10.9206,10.575465 16.625,15.375 9.588173,0 19.17635,0 28.76452,0 5.7044,-4.799535 11.57986,-9.287033 16.625,-15.375 4.7464,-5.727471 8.16703,-14.370062 4.125,-23.25 -2.36755,-5.20127 -10.61927,-11.151554 -22.75,-5.125 -4.30809,2.14026 -8.68767,3.245558 -12.38226,3.245558 -3.69459,0 -8.07417,-1.105298 -12.38226,-3.245558 z"
       style="opacity:1;fill:#cc2918;fill-opacity:1;stroke:#000000;stroke-width:1;stroke-miterlimit:8;stroke-dasharray:none;stroke-dashoffset:4.57999992;stroke-opacity:1"
       id="path8460-3" />
    <path
       sodipodi:nodetypes="sssccssscs"
       inkscape:connector-curvature="0"
       d="m 25.648777,97.58181 c -9.480195,9.6747 -6.37106,19.36129 -2.155972,23.22025 7.196266,6.58825 16.472892,6.00574 23.386759,3.26153 7.349035,-2.91692 13.432516,-7.1181 19.759902,-11.06017 2.962908,-9.1189 5.925818,-18.237796 8.888725,-27.356688 -2.801872,-6.908345 -5.254119,-13.882952 -9.485086,-20.562451 -3.98043,-6.28398 -11.14299,-12.2079 -20.837369,-11.107753 -5.678315,0.644393 -13.887293,6.653506 -11.904301,20.052824 0.704235,4.758613 0.402071,9.265397 -0.73962,12.779161 -1.141691,3.513764 -3.546257,7.337436 -6.913038,10.773297 z"
       style="opacity:1;fill:#cc2918;fill-opacity:1;stroke:#000000;stroke-width:1;stroke-miterlimit:8;stroke-dasharray:none;stroke-dashoffset:4.57999992;stroke-opacity:1"
       id="path8460-3-0" />
    <path
       sodipodi:nodetypes="sssccssscs"
       inkscape:connector-curvature="0"
       d="m 68.122854,181.19875 c 6.271647,12.00585 16.444918,12.0422 21.417536,9.2259 8.48957,-4.80817 10.80221,-13.81077 10.328812,-21.23426 -0.503186,-7.89073 -2.618848,-14.9747 -4.412709,-22.21057 -7.756995,-5.63578 -15.513993,-11.27157 -23.270985,-16.90736 -7.436053,0.52995 -14.827085,0.7069 -22.487106,2.66671 -7.206441,1.84376 -15.053777,6.82516 -17.003202,16.38503 -1.141842,5.59953 2.03645,15.26365 15.392737,17.51833 4.743331,0.80072 8.936164,2.48077 11.92515,4.6524 2.988986,2.17162 5.882463,5.64008 8.109767,9.90382 z"
       style="opacity:1;fill:#cc2918;fill-opacity:1;stroke:#000000;stroke-width:1;stroke-miterlimit:8;stroke-dasharray:none;stroke-dashoffset:4.57999992;stroke-opacity:1"
       id="path8460-3-5" />
    <path
       sodipodi:nodetypes="sssccssscs"
       inkscape:connector-curvature="0"
       d="m 160.77251,166.64256 c 13.35629,-2.25468 16.53458,-11.9188 15.39274,-17.51833 -1.94942,-9.55987 -9.79676,-14.54127 -17.0032,-16.38503 -7.66002,-1.95981 -15.05106,-2.13676 -22.48711,-2.66671 -7.75699,5.63579 -15.51399,11.27158 -23.27098,16.90736 -1.79386,7.23587 -3.90953,14.31984 -4.41271,22.21057 -0.4734,7.42349 1.83924,16.42608 10.32881,21.23426 4.97262,2.8163 15.14589,2.77995 21.41754,-9.2259 2.2273,-4.26374 5.12078,-7.7322 8.10976,-9.90382 2.98899,-2.17163 7.18182,-3.85168 11.92515,-4.6524 z"
       style="opacity:1;fill:#cc2918;fill-opacity:1;stroke:#000000;stroke-width:1;stroke-miterlimit:8;stroke-dasharray:none;stroke-dashoffset:4.57999992;stroke-opacity:1"
       id="path8460-3-4" />
    <path
       sodipodi:nodetypes="sssccssscs"
       inkscape:connector-curvature="0"
       d="m 175.55906,74.029375 c 1.98299,-13.399318 -6.22599,-19.408431 -11.9043,-20.052824 -9.69438,-1.100149 -16.85694,4.823773 -20.83737,11.107753 -4.23097,6.679499 -6.68322,13.654107 -9.48509,20.562451 2.96291,9.118895 5.92582,18.237795 8.88873,27.356685 6.32738,3.94207 12.41086,8.14325 19.7599,11.06018 6.91386,2.74421 16.19049,3.32671 23.38676,-3.26154 4.21509,-3.85895 7.32422,-13.54554 -2.15598,-23.220247 -3.36678,-3.43586 -5.77134,-7.259533 -6.91303,-10.773296 -1.14169,-3.513764 -1.44386,-8.020548 -0.73962,-12.779162 z"
       style="opacity:1;fill:#cc2918;fill-opacity:1;stroke:#000000;stroke-width:1;stroke-miterlimit:8;stroke-dasharray:none;stroke-dashoffset:4.57999992;stroke-opacity:1"
       id="path8460-3-6" />
    <path
       sodipodi:nodetypes="cscccsccc"
       inkscape:connector-curvature="0"
       d="m 82.5189,140.31836 c -2.45266,3.37581 -2.98341,8.23586 -0.40215,12.93789 4.30265,7.83772 12.25232,4.95355 15.02275,3.42946 2.37187,-1.30484 4.92792,-1.83659 7.29073,-1.8366 2.36282,0 4.91887,0.53175 7.29074,1.83659 2.77043,1.52409 10.7201,4.40826 15.02275,-3.42946 2.58126,-4.70203 2.05051,-9.56208 -0.40215,-12.93789 l -21.91134,-30.15836 z"
       style="opacity:1;fill:#cc2918;fill-opacity:1;stroke:#000000;stroke-width:1;stroke-miterlimit:8;stroke-dasharray:none;stroke-dashoffset:4.57999992;stroke-opacity:1"
       id="path8464-5-5" />
    <path
       sodipodi:nodetypes="csscssccc"
       inkscape:connector-curvature="0"
       d="m 97.1395,151.86895 c -2.77043,1.3663 -10.10138,4.94234 -14.40403,-2.08395 -2.58126,-4.21523 -1.902659,-7.14593 0.16854,-9.99669 l 21.52623,-29.62832 21.52622,29.62831 c 2.0712,2.85076 2.7498,5.78146 0.16854,9.99669 -4.30265,7.02629 -11.6336,3.45025 -14.40403,2.08395 -2.37187,-1.16975 -4.92792,-1.64645 -7.29074,-1.64645 -2.36281,1e-5 -4.91886,0.47671 -7.29073,1.64646 z"
       style="opacity:1;fill:none;fill-opacity:1;stroke:#000000;stroke-width:1;stroke-miterlimit:8;stroke-dasharray:none;stroke-dashoffset:4.57999992;stroke-opacity:1"
       id="path8464-0" />
    <path
       sodipodi:nodetypes="csscssc"
       inkscape:connector-curvature="0"
       d="m 136.81027,57.926924 c 2.88615,-4.508543 -0.0407,-9.770324 -4.68527,-12.704436 -4.0223,-2.541 -10.55129,-2.484008 -16.0625,0.4375 -3.52995,1.871237 -7.42101,3.25 -11.63226,3.25 -4.21125,0 -8.102308,-1.378763 -11.632258,-3.25 -5.51121,-2.921508 -12.0402,-2.9785 -16.062497,-0.4375 -4.64458,2.934112 -7.57142,8.195893 -4.68527,12.704436"
       style="opacity:1;fill:none;fill-opacity:1;stroke:#000000;stroke-width:1;stroke-miterlimit:8;stroke-dasharray:none;stroke-dashoffset:4.57999992;stroke-opacity:1"
       id="path8462-0" />
    <path
       sodipodi:nodetypes="cscccsccc"
       inkscape:connector-curvature="0"
       d="m 126.34159,140.31835 c 2.45267,3.37581 6.91084,5.38242 12.18039,4.3805 8.78371,-1.67007 8.49728,-10.12192 7.9039,-13.22772 -0.50803,-2.659 -0.22389,-5.25427 0.50625,-7.50144 0.73015,-2.24718 2.02573,-4.5138 3.99966,-6.36637 2.3056,-2.16386 7.5052,-8.83319 1.38067,-15.34724 -3.67424,-3.907935 -8.46043,-4.905 -12.42893,-3.615564 l -35.45328,11.519474 z"
       style="opacity:1;fill:#cc2918;fill-opacity:1;stroke:#000000;stroke-width:1;stroke-miterlimit:8;stroke-dasharray:none;stroke-dashoffset:4.57999992;stroke-opacity:1"
       id="path8464-5-5-5" />
    <path
       sodipodi:nodetypes="csscssccc"
       inkscape:connector-curvature="0"
       d="m 141.84487,129.98267 c 0.44331,3.05704 1.57894,11.13425 -6.43305,13.05507 -4.80657,1.15234 -7.38414,-0.39868 -9.45533,-3.24944 l -21.52624,-29.62832 34.83016,-11.316997 c 3.35127,-1.088895 6.34823,-0.828646 9.5595,2.928857 5.35281,6.2633 -0.31359,12.1304 -2.46913,14.34302 -1.84545,1.89431 -3.08868,4.17795 -3.81883,6.42513 -0.73014,2.24716 -1.06664,4.82542 -0.68708,7.44268 z"
       style="opacity:1;fill:none;fill-opacity:1;stroke:#000000;stroke-width:1;stroke-miterlimit:8;stroke-dasharray:none;stroke-dashoffset:4.57999992;stroke-opacity:1"
       id="path8464-0-7" />
    <path
       sodipodi:nodetypes="csscssc"
       inkscape:connector-curvature="0"
       d="m 64.759631,63.223839 c -3.39601,-4.138108 -9.304707,-2.980488 -13.530464,0.53007 -3.659594,3.040223 -5.62296,9.267273 -4.547499,15.411541 0.688838,3.935426 0.797716,8.062105 -0.503632,12.067242 -1.301348,4.005136 -3.815032,7.279691 -6.685499,10.058628 -4.481577,4.33868 -6.553348,10.5305 -5.379672,15.14115 1.355252,5.32395 5.45506,9.73352 10.634809,8.38184"
       style="opacity:1;fill:none;fill-opacity:1;stroke:#000000;stroke-width:1;stroke-miterlimit:8;stroke-dasharray:none;stroke-dashoffset:4.57999992;stroke-opacity:1"
       id="path8462-0-6" />
    <path
       sodipodi:nodetypes="csscssc"
       inkscape:connector-curvature="0"
       d="m 47.532401,133.38492 c -4.984999,1.95105 -5.709925,7.92828 -3.677017,13.03204 1.760547,4.41996 7.07611,8.21149 13.251992,9.08735 3.955675,0.56099 7.914025,1.73266 11.320998,4.20797 3.406973,2.47531 5.744488,5.87786 7.500392,9.46657 2.741444,5.60296 7.990008,9.48671 12.737677,9.79525 5.482172,0.35626 10.942833,-2.18025 11.257944,-7.52418"
       style="opacity:1;fill:none;fill-opacity:1;stroke:#000000;stroke-width:1;stroke-miterlimit:8;stroke-dasharray:none;stroke-dashoffset:4.57999992;stroke-opacity:1"
       id="path8462-0-4" />
    <path
       sodipodi:nodetypes="csscssc"
       inkscape:connector-curvature="0"
       d="m 108.93606,171.44996 c 0.31511,5.34392 5.77578,7.88043 11.25794,7.52417 4.74767,-0.30854 9.99624,-4.19229 12.73768,-9.79525 1.75591,-3.58871 4.09342,-6.99126 7.5004,-9.46657 3.40697,-2.47531 7.36532,-3.64698 11.32099,-4.20797 6.17588,-0.87586 11.49145,-4.66739 13.25199,-9.08735 2.03292,-5.10376 1.30798,-11.08099 -3.67702,-13.03204"
       style="opacity:1;fill:none;fill-opacity:1;stroke:#000000;stroke-width:1;stroke-miterlimit:8;stroke-dasharray:none;stroke-dashoffset:4.57999992;stroke-opacity:1"
       id="path8462-0-2" />
    <path
       sodipodi:nodetypes="cscccsccc"
       inkscape:connector-curvature="0"
       d="m 68.976952,98.640533 c -3.9685,-1.289436 -8.754693,-0.292371 -12.428936,3.615557 -6.124523,6.51406 -0.924931,13.18338 1.380675,15.34725 1.973925,1.85256 3.269512,4.11919 3.99967,6.36635 0.730151,2.24718 1.01429,4.84245 0.506261,7.50145 -0.593385,3.1058 -0.879811,11.55765 7.903896,13.22772 5.269549,1.00192 9.727721,-1.00469 12.180393,-4.38049 L 104.43024,110.16 Z"
       style="opacity:1;fill:#cc2918;fill-opacity:1;stroke:#000000;stroke-width:1;stroke-miterlimit:8;stroke-dasharray:none;stroke-dashoffset:4.57999992;stroke-opacity:1"
       id="path8464-5-5-54" />
    <path
       sodipodi:nodetypes="csscssccc"
       inkscape:connector-curvature="0"
       d="m 62.509702,116.11488 c -2.155539,-2.21263 -7.821943,-8.07972 -2.469136,-14.34302 3.211269,-3.757506 6.208229,-4.017755 9.559499,-2.92886 l 34.830175,11.31701 -21.526227,29.6283 c -2.071198,2.85076 -4.64876,4.40178 -9.455335,3.24944 -8.011991,-1.92082 -6.876363,-9.99803 -6.433045,-13.05507 0.379551,-2.61726 0.04306,-5.19551 -0.687095,-7.44269 -0.730158,-2.24716 -1.97339,-4.5308 -3.818836,-6.42511 z"
       style="opacity:1;fill:none;fill-opacity:1;stroke:#000000;stroke-width:1;stroke-miterlimit:8;stroke-dasharray:none;stroke-dashoffset:4.57999992;stroke-opacity:1"
       id="path8464-0-1" />
    <path
       sodipodi:nodetypes="csscssc"
       inkscape:connector-curvature="0"
       d="m 164.11282,124.81434 c 5.17975,1.35168 9.27955,-3.0579 10.63481,-8.38184 1.17367,-4.61065 -0.8981,-10.80248 -5.37967,-15.14115 -2.87047,-2.778942 -5.38416,-6.053498 -6.6855,-10.058635 -1.30135,-4.005137 -1.19247,-8.131814 -0.50364,-12.06724 1.07547,-6.144268 -0.8879,-12.371318 -4.54749,-15.411537 -4.22576,-3.510568 -10.13446,-4.668179 -13.53047,-0.53007"
       style="opacity:1;fill:none;fill-opacity:1;stroke:#000000;stroke-width:1;stroke-miterlimit:8;stroke-dasharray:none;stroke-dashoffset:4.57999992;stroke-opacity:1"
       id="path8462-0-8" />
    <path
       sodipodi:nodetypes="cscccsccc"
       inkscape:connector-curvature="0"
       d="m 139.88351,98.640513 c 3.9685,-1.289451 7.25455,-4.909347 7.93005,-10.230595 1.12598,-8.869883 -7.00071,-11.209239 -10.13787,-11.604643 -2.68585,-0.338512 -5.0663,-1.410726 -6.97785,-2.799543 -1.91157,-1.38883 -3.6669,-3.321434 -4.81882,-5.771222 -1.34548,-2.861432 -6.08163,-9.867473 -14.16944,-6.055659 -4.85207,2.286796 -7.27935,6.530626 -7.27936,10.703351 l 10e-6,37.277788 z"
       style="opacity:1;fill:#cc2918;fill-opacity:1;stroke:#000000;stroke-width:1;stroke-miterlimit:8;stroke-dasharray:none;stroke-dashoffset:4.57999992;stroke-opacity:1"
       id="path8464-5-5-9" />
    <path
       sodipodi:nodetypes="csscssccc"
       inkscape:connector-curvature="0"
       d="m 134.84447,80.702116 c 3.04441,0.523058 11.07722,1.939005 10.42819,10.152427 -0.38937,4.92742 -2.66099,6.899534 -6.01226,7.988427 l -34.83018,11.31701 10e-6,-36.622597 c 0,-3.523734 1.17362,-6.293591 5.73955,-8.186557 7.61087,-3.155354 11.43979,4.046747 12.87802,6.780525 1.23132,2.340498 3.01902,4.228565 4.93058,5.617396 1.91156,1.388816 4.25964,2.505567 6.86609,2.953369 z"
       style="opacity:1;fill:none;fill-opacity:1;stroke:#000000;stroke-width:1;stroke-miterlimit:8;stroke-dasharray:none;stroke-dashoffset:4.57999992;stroke-opacity:1"
       id="path8464-0-0" />
    <path
       sodipodi:nodetypes="cscccsccc"
       inkscape:connector-curvature="0"
       d="m 104.43023,72.882218 c -10e-6,-4.172725 -2.42729,-8.416555 -7.279356,-10.703351 -8.087813,-3.811815 -12.823958,3.194227 -14.169446,6.055659 -1.151917,2.449788 -2.90725,4.382392 -4.818798,5.771225 -1.911561,1.38883 -4.292004,2.461044 -6.977853,2.799556 -3.137162,0.395404 -11.263853,2.73476 -10.137874,11.604643 0.675501,5.321249 3.961552,8.941145 7.930047,10.230595 l 35.45329,11.519465 z"
       style="opacity:1;fill:#cc2918;fill-opacity:1;stroke:#000000;stroke-width:1;stroke-miterlimit:8;stroke-dasharray:none;stroke-dashoffset:4.57999992;stroke-opacity:1"
       id="path8464-5-5-4" />
    <path
       sodipodi:nodetypes="csscssccc"
       inkscape:connector-curvature="0"
       d="m 85.812649,72.131367 c 1.438234,-2.733778 5.267153,-9.935879 12.87802,-6.780525 4.565931,1.892966 5.739551,4.662824 5.739551,8.186557 l 10e-6,36.622611 -34.830164,-11.317008 c -3.35127,-1.088892 -5.622892,-3.061007 -6.012258,-7.988426 -0.649033,-8.213423 7.383774,-9.62937 10.42819,-10.152428 2.606445,-0.447802 4.95453,-1.564552 6.866091,-2.953383 1.911548,-1.388833 3.699238,-3.2769 4.93056,-5.617398 z"
       style="opacity:1;fill:none;fill-opacity:1;stroke:#000000;stroke-width:1;stroke-miterlimit:8;stroke-dasharray:none;stroke-dashoffset:4.57999992;stroke-opacity:1"
       id="path8464-0-75" />
    <circle
       r="8.3698416"
       cy="110.15997"
       cx="104.43024"
       id="path8456"
       style="opacity:1;fill:#feeb00;fill-opacity:1;stroke:#000000;stroke-width:1;stroke-miterlimit:8;stroke-dasharray:none;stroke-dashoffset:4.57999992;stroke-opacity:1" />
    <circle
       transform="rotate(-144)"
       r="6.2858143"
       cy="-42.411121"
       cx="-149.23624"
       id="path8458-9"
       style="opacity:1;fill:#feeb00;fill-opacity:1;stroke:#000000;stroke-width:1;stroke-miterlimit:8;stroke-dasharray:none;stroke-dashoffset:4.57999992;stroke-opacity:1" />
    <circle
       transform="rotate(144)"
       r="6.2858143"
       cy="-165.17624"
       cx="-19.735401"
       id="path8458-16"
       style="opacity:1;fill:#feeb00;fill-opacity:1;stroke:#000000;stroke-width:1;stroke-miterlimit:8;stroke-dasharray:none;stroke-dashoffset:4.57999992;stroke-opacity:1" />
    <circle
       r="6.2858143"
       cy="95.487625"
       cx="104.43024"
       id="path8458"
       style="opacity:1;fill:#feeb00;fill-opacity:1;stroke:#000000;stroke-width:1;stroke-miterlimit:8;stroke-dasharray:none;stroke-dashoffset:4.57999992;stroke-opacity:1" />
    <circle
       transform="rotate(-72)"
       r="6.2858143"
       cy="118.68801"
       cx="-72.49765"
       id="path8458-1"
       style="opacity:1;fill:#feeb00;fill-opacity:1;stroke:#000000;stroke-width:1;stroke-miterlimit:8;stroke-dasharray:none;stroke-dashoffset:4.57999992;stroke-opacity:1" />
    <circle
       transform="rotate(72)"
       r="6.2858143"
       cy="-79.950111"
       cx="137.03911"
       id="path8458-19"
       style="opacity:1;fill:#feeb00;fill-opacity:1;stroke:#000000;stroke-width:1;stroke-miterlimit:8;stroke-dasharray:none;stroke-dashoffset:4.57999992;stroke-opacity:1" />
  </g>
</svg>
