<?xml version="1.0" encoding="UTF-8" standalone="no"?>
<!-- Created with Inkscape (http://www.inkscape.org/) -->

<svg
   xmlns:dc="http://purl.org/dc/elements/1.1/"
   xmlns:cc="http://creativecommons.org/ns#"
   xmlns:rdf="http://www.w3.org/1999/02/22-rdf-syntax-ns#"
   xmlns:svg="http://www.w3.org/2000/svg"
   xmlns="http://www.w3.org/2000/svg"
   xmlns:sodipodi="http://sodipodi.sourceforge.net/DTD/sodipodi-0.dtd"
   xmlns:inkscape="http://www.inkscape.org/namespaces/inkscape"
   version="1.0"
   width="208.86046"
   height="244.65999"
   id="svg2780"
   inkscape:version="0.92.4 (5da689c313, 2019-01-14)"
   sodipodi:docname="Tuggen-blazon.svg">
  <metadata
     id="metadata27">
    <rdf:RDF>
      <cc:Work
         rdf:about="">
        <dc:format>image/svg+xml</dc:format>
        <dc:type
           rdf:resource="http://purl.org/dc/dcmitype/StillImage" />
        <dc:title></dc:title>
      </cc:Work>
    </rdf:RDF>
  </metadata>
  <sodipodi:namedview
     pagecolor="#ffffff"
     bordercolor="#666666"
     borderopacity="1"
     objecttolerance="10"
     gridtolerance="10"
     guidetolerance="10"
     inkscape:pageopacity="0"
     inkscape:pageshadow="2"
     inkscape:window-width="3259"
     inkscape:window-height="1417"
     id="namedview25"
     showgrid="false"
     inkscape:zoom="1.4142136"
     inkscape:cx="-71.220887"
     inkscape:cy="167.52144"
     inkscape:window-x="-8"
     inkscape:window-y="-8"
     inkscape:window-maximized="1"
     inkscape:current-layer="svg2780"
     inkscape:measure-start="104.255,149.787"
     inkscape:measure-end="104.255,126.383"
     showguides="true"
     inkscape:object-paths="true"
     inkscape:snap-intersection-paths="true"
     inkscape:snap-global="true"
     inkscape:guide-bbox="true" />
  <defs
     id="defs2782" />
  <path
     inkscape:connector-curvature="0"
     style="fill:#cc2918;fill-opacity:1;fill-rule:evenodd;stroke:#000000;stroke-width:1.99999988;stroke-linecap:butt;stroke-miterlimit:4;stroke-dashoffset:0;stroke-opacity:1"
     id="path4212"
     d="m 1,1 3.761095,158.00304 c 2.686489,112.85918 196.651755,112.85918 199.338255,0 L 207.86045,1 Z" />
  <path
     style="opacity:1;fill:#1b63c6;fill-opacity:1;stroke:#000000;stroke-width:1;stroke-miterlimit:8;stroke-dasharray:none;stroke-dashoffset:4.57999992;stroke-opacity:1"
     d="m 8.8425672,183.79915 191.1753028,3e-5 c -14.3874,40.30081 -53.17635,59.84824 -95.58763,59.84824 -52.953257,0 -86.241046,-29.61163 -95.5876728,-59.84827 z"
     id="path9471"
     inkscape:connector-curvature="0"
     sodipodi:nodetypes="cccc" />
  <path
     inkscape:connector-curvature="0"
     style="fill:none;fill-opacity:1;fill-rule:evenodd;stroke:#000000;stroke-width:1.99999988;stroke-linecap:butt;stroke-miterlimit:4;stroke-dashoffset:0;stroke-opacity:1"
     id="path4212-9"
     d="M 1,0.99999834 4.761095,159.00304 c 2.686489,112.85918 196.651755,112.85918 199.338255,0 l 3.7611,-158.00304166 z" />
  <g
     id="g10265">
    <path
       sodipodi:nodetypes="cccccc"
       inkscape:connector-curvature="0"
       d="M 103.31128,17.108261 V 178.99389 h 3.89473 V 17.108259 l -1.94736,1e-6 z"
       style="opacity:1;fill:#feeb00;fill-opacity:1;stroke:#000000;stroke-width:1;stroke-miterlimit:8;stroke-dasharray:none;stroke-dashoffset:4.57999992;stroke-opacity:1"
       id="path9345-2" />
    <path
       sodipodi:nodetypes="csccccsscccccccccccccccccccscccc"
       inkscape:connector-curvature="0"
       id="path9383"
       d="m 68.068039,67.981954 c -5.846106,-8.198948 -16.855651,-4.772098 -19.784584,0.348268 -3.838688,6.710802 -0.986913,13.505611 2.44429,18.407893 l 1.795366,0.194678 c 0.323979,1.621834 0.603872,3.199581 0.605664,4.499227 -3.228265,1.881615 -6.152112,3.945881 -8.565834,6.316221 -2.640539,0.13287 -5.402662,-0.519734 -7.094935,3.114849 -2.957274,6.35149 -4.830348,12.28049 -6.74884,18.68909 -3.52962,11.79047 3.089805,18.73388 11.853732,25.09184 l -7.00841,18.08344 c 1.169865,0.12262 2.472505,0.20837 3.291956,0.27628 -0.17865,4.18028 -0.437425,9.03233 -1.624771,11.97975 l 8.535332,1.30158 c 1.295483,-3.49013 1.365809,-8.28703 1.567106,-12.99331 6.429827,0.10201 12.582993,-0.73893 19.063083,-2.76762 2.618218,1.38421 4.969674,3.0136 8.155499,3.8302 -1.84839,4.75508 -1.523427,10.05932 -1.899378,15.1542 l 8.380188,-4.2e-4 2.818765,-17.78458 c -0.960607,-2.28421 -0.954455,-4.17455 -4.833332,-7.64767 -2.682154,-6.97241 -7.799652,-12.26679 -11.869195,-17.1308 2.032803,-5.91267 3.539483,-12.15417 4.649788,-18.64341 1.022538,2.42042 2.303973,4.74098 3.854429,6.95776 l 2.080168,-17.55907 c -1.644698,-2.78485 -4.084702,-4.19228 -5.445146,-5.2616 l -3.732066,-5.078057 c 0.03155,-0.96502 -0.611599,-1.899925 -1.28481,-2.324894 -0.926101,-1.686261 -0.625441,-3.464119 0.06118,-5.261602 0.717997,-1.879616 0.325427,-3.752459 0.183544,-5.62869 2.295826,0.08982 3.856741,-1.781789 0.550633,-6.118141 0.477855,-2.88341 0.891252,-6.004573 -0.860251,-9.843422 z"
       style="opacity:1;fill:#feeb00;fill-opacity:1;stroke:#000000;stroke-width:1;stroke-miterlimit:8;stroke-dasharray:none;stroke-dashoffset:4.57999992;stroke-opacity:1" />
    <path
       sodipodi:nodetypes="ccsccc"
       inkscape:connector-curvature="0"
       id="path9393"
       d="m 67.207212,68.183944 c -3.403683,0.748083 -6.271709,2.263939 -7.246287,6.493739 -4.461307,0.0088 -7.165953,2.680018 -5.447772,6.587815 0.555425,1.263247 0.989641,1.832198 1.485296,2.511078 -0.778413,0.810924 -0.611448,1.613247 -0.399347,2.325096 -0.760699,0.500017 -1.739218,0.941409 -3.075991,0.831121"
       style="opacity:1;fill:none;fill-opacity:1;stroke:#000000;stroke-width:1;stroke-miterlimit:8;stroke-dasharray:none;stroke-dashoffset:4.57999992;stroke-opacity:1" />
    <path
       sodipodi:nodetypes="ccccccc"
       inkscape:connector-curvature="0"
       id="path9395"
       d="m 68.556914,97.360693 c -1.190569,1.198977 -3.130373,1.589354 -4.201703,0.06309 -1.227466,0.937788 -3.06459,0.03497 -3.158111,-1.124807 -1.272474,0.737285 -3.37369,-0.203574 -2.941802,-1.946781 -1.356078,0.07341 -2.616025,-2.083375 -1.816995,-3.352788 -1.13792,-1.19719 -0.532453,-2.899974 -0.04327,-3.735153 -0.708835,-0.701452 -0.924481,-1.423423 -0.964395,-1.961389"
       style="opacity:1;fill:none;fill-opacity:1;stroke:#000000;stroke-width:1;stroke-miterlimit:8;stroke-dasharray:none;stroke-dashoffset:4.57999992;stroke-opacity:1" />
    <path
       inkscape:connector-curvature="0"
       id="path9397"
       d="m 53.128775,91.43202 h 3.138323"
       style="opacity:1;fill:none;fill-opacity:1;stroke:#000000;stroke-width:1;stroke-miterlimit:8;stroke-dasharray:none;stroke-dashoffset:4.57999992;stroke-opacity:1" />
    <path
       sodipodi:nodetypes="cc"
       inkscape:connector-curvature="0"
       id="path9399"
       d="m 72.28898,102.43875 c -13.905818,10.93642 -23.669299,0.2225 -27.726039,-4.690509"
       style="opacity:1;fill:none;fill-opacity:1;stroke:#000000;stroke-width:1;stroke-miterlimit:8;stroke-dasharray:none;stroke-dashoffset:4.57999992;stroke-opacity:1" />
    <path
       sodipodi:nodetypes="ccccc"
       inkscape:connector-curvature="0"
       id="path9401"
       d="m 44.649464,110.12111 c -0.884864,4.71774 -1.335966,8.43555 -5.364462,17.65082 4.422614,3.84444 8.226896,8.43972 11.507637,13.67072 l -3.465676,4.49609 c -1.565384,-0.0171 -3.361263,-0.35472 -4.754065,-1.29472"
       style="opacity:1;fill:none;fill-opacity:1;stroke:#000000;stroke-width:1;stroke-miterlimit:8;stroke-dasharray:none;stroke-dashoffset:4.57999992;stroke-opacity:1" />
    <path
       sodipodi:nodetypes="cc"
       inkscape:connector-curvature="0"
       id="path9403"
       d="m 47.441104,136.56946 c 6.420933,0.32335 12.943001,0.51186 19.708637,0.37561"
       style="opacity:1;fill:none;fill-opacity:1;stroke:#000000;stroke-width:1;stroke-miterlimit:8;stroke-dasharray:none;stroke-dashoffset:4.57999992;stroke-opacity:1" />
    <path
       sodipodi:nodetypes="cc"
       inkscape:connector-curvature="0"
       id="path9405"
       d="m 67.504119,86.414821 c -0.888526,0.191207 -1.593856,0.428213 -3.110493,0.462392"
       style="opacity:1;fill:none;fill-opacity:1;stroke:#000000;stroke-width:1;stroke-miterlimit:8;stroke-dasharray:none;stroke-dashoffset:4.57999992;stroke-opacity:1" />
    <ellipse
       ry="0.82594907"
       rx="1.2542189"
       cy="76.475563"
       cx="64.494934"
       id="path9407"
       style="opacity:1;fill:none;fill-opacity:1;stroke:#000000;stroke-width:0.99999988;stroke-miterlimit:8;stroke-dasharray:none;stroke-dashoffset:4.57999992;stroke-opacity:1" />
    <path
       sodipodi:nodetypes="csccccccccccccccssccc"
       inkscape:connector-curvature="0"
       id="path9413"
       d="m 131.86703,171.2425 c -0.46587,-19.58581 -1.53605,-33.07371 -0.97856,-46.61769 0.19785,-4.80657 0.36149,-10.19841 4.65401,-12.08103 V 95.758199 c 0.68033,-1.043895 1.56764,-1.958423 2.89854,-2.595707 -0.28697,-1.124543 -0.59137,-2.693011 -0.28981,-3.779408 1.24697,-1.620579 2.85109,-3.229482 5.25411,-3.942822 -0.0825,-1.073788 -0.17984,-2.096057 -0.15142,-3.558283 -3.50636,-1.32705 -2.87397,-5.842862 -1.87107,-6.88944 -0.49954,-2.068304 -0.50115,-3.707211 -0.0433,-5.234677 2.22412,-10.701396 15.89302,-8.911597 17.82386,-1.514163 1.22461,2.029663 1.74591,4.546221 1.47091,7.614075 0.77373,3.540709 -0.72307,5.35385 -2.46592,6.878625 l 0.0108,2.930987 c 8.69418,3.122694 7.70743,6.442906 8.94096,9.67432 l 3.30379,3.670885 c 0.89798,6.517189 2.04318,12.922199 3.12026,15.540079 2.65724,6.45855 3.55365,13.95163 2.6308,21.96413 -0.79709,6.92059 -2.41363,13.99274 -2.73704,20.1057 -13.73759,6.00306 -27.68314,10.79106 -41.57094,14.62 z"
       style="opacity:1;fill:#feeb00;fill-opacity:1;stroke:#000000;stroke-width:1;stroke-miterlimit:8;stroke-dasharray:none;stroke-dashoffset:4.57999992;stroke-opacity:1" />
    <path
       sodipodi:nodetypes="cc"
       inkscape:connector-curvature="0"
       id="path9415"
       d="m 141.33956,69.757862 c 4.68317,-5.004914 11.06312,-6.58841 17.82386,-1.514163"
       style="opacity:1;fill:none;fill-opacity:1;stroke:#000000;stroke-width:1;stroke-miterlimit:8;stroke-dasharray:none;stroke-dashoffset:4.57999992;stroke-opacity:1" />
    <path
       sodipodi:nodetypes="cccc"
       inkscape:connector-curvature="0"
       id="path9417"
       d="m 135.90152,170.10336 c 5.19526,-15.59227 7.87264,-33.01572 7.53625,-51.87066 l -7.87366,-2.59571 -0.0216,-3.09321"
       style="opacity:1;fill:none;fill-opacity:1;stroke:#000000;stroke-width:1;stroke-miterlimit:8;stroke-dasharray:none;stroke-dashoffset:4.57999992;stroke-opacity:1" />
    <path
       sodipodi:nodetypes="csc"
       inkscape:connector-curvature="0"
       id="path9419"
       d="m 164.87523,160.19939 c 0.21482,-6.93372 0.12348,-15.15799 1.83367,-20.54584 1.91468,-6.03205 1.72856,-16.01196 1.51253,-26.87514"
       style="opacity:1;fill:none;fill-opacity:1;stroke:#000000;stroke-width:1;stroke-miterlimit:8;stroke-dasharray:none;stroke-dashoffset:4.57999992;stroke-opacity:1" />
    <path
       sodipodi:nodetypes="ccc"
       inkscape:connector-curvature="0"
       id="path9421"
       d="m 158.17917,85.667386 c -0.0779,10.963237 -0.40847,23.927624 -5.91158,26.531384 -0.99291,-0.51413 -2.0003,-1.72414 -2.82885,-2.78016"
       style="opacity:1;fill:none;fill-opacity:1;stroke:#000000;stroke-width:1;stroke-miterlimit:8;stroke-dasharray:none;stroke-dashoffset:4.57999992;stroke-opacity:1" />
    <path
       sodipodi:nodetypes="cc"
       inkscape:connector-curvature="0"
       id="path9423"
       d="m 143.40532,85.440262 c 0.22261,3.149895 0.93307,6.430121 2.36858,9.950212"
       style="opacity:1;fill:none;fill-opacity:1;stroke:#000000;stroke-width:1;stroke-miterlimit:8;stroke-dasharray:none;stroke-dashoffset:4.57999992;stroke-opacity:1" />
    <path
       sodipodi:nodetypes="ccc"
       inkscape:connector-curvature="0"
       id="path9425"
       d="m 151.85218,75.289221 c 1.06641,1.595786 2.08439,3.270586 2.07657,6.619055 l -2.03331,0.04326"
       style="opacity:1;fill:none;fill-opacity:1;stroke:#000000;stroke-width:1;stroke-miterlimit:8;stroke-dasharray:none;stroke-dashoffset:4.57999992;stroke-opacity:1" />
    <path
       sodipodi:nodetypes="cccc"
       inkscape:connector-curvature="0"
       id="path9427"
       d="m 143.43777,118.2327 2.63599,0.87809 V 98.890228 l -10.53128,-3.132029"
       style="opacity:1;fill:none;fill-opacity:1;stroke:#000000;stroke-width:1;stroke-miterlimit:8;stroke-dasharray:none;stroke-dashoffset:4.57999992;stroke-opacity:1" />
    <path
       sodipodi:nodetypes="csssccssscc"
       inkscape:connector-curvature="0"
       id="path9429"
       d="m 155.7327,164.45416 10.65329,-92.912024 c 0.38943,-3.396385 3.4587,-5.637657 7.28059,-5.24803 4.78639,0.487953 6.34943,3.890244 6.08755,6.699365 -0.35468,3.804481 -4.42039,5.413645 -5.65928,5.322783 -0.94115,-0.584751 -0.76982,-1.750094 -0.48945,-2.294303 1.85562,-0.08012 3.72356,-1.704494 3.79324,-3.273206 0.13973,-3.145466 -2.62929,-4.037438 -3.88502,-4.099155 -3.27056,-0.160742 -4.4369,1.551605 -4.61919,3.229044 l -9.93017,91.377676 z"
       style="opacity:1;fill:#feeb00;fill-opacity:1;stroke:#000000;stroke-width:1;stroke-miterlimit:8;stroke-dasharray:none;stroke-dashoffset:4.57999992;stroke-opacity:1" />
    <path
       sodipodi:nodetypes="cc"
       inkscape:connector-curvature="0"
       id="path9431"
       d="m 158.17668,93.244387 c 2.45298,-1.274742 4.37895,-2.137044 6.18491,-4.139682"
       style="opacity:1;fill:none;fill-opacity:1;stroke:#000000;stroke-width:1;stroke-miterlimit:8;stroke-dasharray:none;stroke-dashoffset:4.57999992;stroke-opacity:1" />
    <circle
       r="0.90849763"
       cy="76.16188"
       cx="146.56245"
       id="path9433"
       style="opacity:1;fill:none;fill-opacity:1;stroke:#000000;stroke-width:1;stroke-miterlimit:8;stroke-dasharray:none;stroke-dashoffset:4.57999992;stroke-opacity:1" />
    <circle
       r="0.90849763"
       cy="75.678581"
       cx="156.35139"
       id="path9433-6"
       style="opacity:1;fill:none;fill-opacity:1;stroke:#000000;stroke-width:1;stroke-miterlimit:8;stroke-dasharray:none;stroke-dashoffset:4.57999992;stroke-opacity:1" />
    <path
       sodipodi:nodetypes="cc"
       inkscape:connector-curvature="0"
       id="path9450"
       d="m 144.13981,73.652696 c 1.29942,-0.503492 2.64236,-0.571747 4.02335,-0.259571"
       style="opacity:1;fill:none;fill-opacity:1;stroke:#000000;stroke-width:1;stroke-miterlimit:8;stroke-dasharray:none;stroke-dashoffset:4.57999992;stroke-opacity:1" />
    <path
       sodipodi:nodetypes="cc"
       inkscape:connector-curvature="0"
       id="path9450-1"
       d="m 154.0997,73.128089 c 1.29942,-0.503491 2.64237,-0.571746 4.02335,-0.25957"
       style="opacity:1;fill:none;fill-opacity:1;stroke:#000000;stroke-width:1;stroke-miterlimit:8;stroke-dasharray:none;stroke-dashoffset:4.57999992;stroke-opacity:1" />
    <path
       sodipodi:nodetypes="ccc"
       inkscape:connector-curvature="0"
       id="path9469"
       d="m 149.19401,85.797405 c 1.11157,-0.877721 3.5545,-1.881781 5.75106,-0.214134 -1.87825,1.389559 -3.79128,1.596754 -5.75106,0.214134 z"
       style="opacity:1;fill:none;fill-opacity:1;stroke:#000000;stroke-width:1;stroke-miterlimit:8;stroke-dasharray:none;stroke-dashoffset:4.57999992;stroke-opacity:1" />
    <path
       sodipodi:nodetypes="cscccsscc"
       inkscape:connector-curvature="0"
       id="path9473"
       d="m 168.22143,112.77841 c -1.46393,-1.82698 -3.34917,-3.35798 -5.53552,-3.03927 -1.47403,0.21486 -3.70124,1.64338 -3.04011,2.67565 -1.17292,0.48676 -1.36004,1.73986 -0.68939,2.06628 -0.85583,0.527 -0.94412,1.54612 -0.34162,1.94044 -0.53165,1.15424 1.0433,1.90006 1.68248,1.52954 1.48688,-0.86191 2.22151,-1.41141 3.57912,-1.10127 2.20204,0.50305 2.66439,1.03976 4.42948,2.2298 z"
       style="opacity:1;fill:#feeb00;fill-opacity:1;stroke:#000000;stroke-width:1;stroke-miterlimit:8;stroke-dasharray:none;stroke-dashoffset:4.57999992;stroke-opacity:1" />
    <path
       sodipodi:nodetypes="ccc"
       inkscape:connector-curvature="0"
       id="path9475"
       d="m 138.44102,93.162492 10.99772,3.461213 0,21.201465"
       style="opacity:1;fill:none;fill-opacity:1;stroke:#000000;stroke-width:1;stroke-miterlimit:8;stroke-dasharray:none;stroke-dashoffset:4.57999992;stroke-opacity:1" />
    <path
       sodipodi:nodetypes="cssccc"
       inkscape:connector-curvature="0"
       id="path9477"
       d="m 143.46379,120.85024 c 2.21478,1.53076 6.62055,-0.63459 7.79736,-3.63448 0.63254,-1.61244 0.96435,-3.15246 -1.47473,-2.83601 -2.12767,0.27605 -3.71266,1.39764 -4.65519,4.41707 l -1.69346,-0.56412 z"
       style="opacity:1;fill:#feeb00;fill-opacity:1;stroke:#000000;stroke-width:1;stroke-miterlimit:8;stroke-dasharray:none;stroke-dashoffset:4.57999992;stroke-opacity:1" />
    <path
       sodipodi:nodetypes="cc"
       inkscape:connector-curvature="0"
       id="path9479"
       d="m 158.60088,116.55537 2.58615,-1.02862"
       style="opacity:1;fill:none;fill-opacity:1;stroke:#000000;stroke-width:1;stroke-miterlimit:8;stroke-dasharray:none;stroke-dashoffset:4.57999992;stroke-opacity:1" />
    <path
       sodipodi:nodetypes="cc"
       inkscape:connector-curvature="0"
       id="path9481"
       d="m 159.57924,112.44507 2.48517,-0.79091"
       style="opacity:1;fill:none;fill-opacity:1;stroke:#000000;stroke-width:1;stroke-miterlimit:8;stroke-dasharray:none;stroke-dashoffset:4.57999992;stroke-opacity:1" />
    <path
       sodipodi:nodetypes="cc"
       inkscape:connector-curvature="0"
       id="path9483"
       d="m 158.95898,114.47024 2.61287,-0.94192"
       style="opacity:1;fill:none;fill-opacity:1;stroke:#000000;stroke-width:1;stroke-miterlimit:8;stroke-dasharray:none;stroke-dashoffset:4.57999992;stroke-opacity:1" />
    <path
       sodipodi:nodetypes="ccccccsssscc"
       inkscape:connector-curvature="0"
       d="m 189.57647,155.11338 8.47931,-4.32618 v -5.36446 C 143.44775,171.86902 87.944529,189.36333 28.988695,172.33158 l -0.346094,4.84531 c 1.927226,8.45218 5.174199,16.84092 9.524077,24.48556 7.960043,-1.47489 15.410046,-6.78762 23.566962,-6.78762 9.471636,0 17.990125,7.16335 27.460773,7.16335 9.470658,0 17.989127,-7.16335 27.460767,-7.16335 9.47164,0 17.99013,7.16335 27.46077,7.16335 8.78728,0 16.75484,-6.16687 25.42461,-7.05684 3.41029,-13.85887 9.45411,-26.66105 20.03591,-39.86796 z"
       style="opacity:1;fill:#feeb00;fill-opacity:1;stroke:#000000;stroke-width:1;stroke-miterlimit:8;stroke-dasharray:none;stroke-dashoffset:4.57999992;stroke-opacity:1"
       id="path9336" />
    <path
       sodipodi:nodetypes="cc"
       inkscape:connector-curvature="0"
       id="path9343"
       d="M 28.642601,177.17689 C 76.848779,190.61574 130.36135,183.7661 189.57647,155.11338"
       style="opacity:1;fill:none;fill-opacity:1;stroke:#000000;stroke-width:1;stroke-miterlimit:8;stroke-dasharray:none;stroke-dashoffset:4.57999992;stroke-opacity:1" />
    <path
       sodipodi:nodetypes="cc"
       inkscape:connector-curvature="0"
       id="path9385"
       d="m 38.856444,163.00374 c 2.635258,0.17251 5.240146,0.23722 7.804672,0.28802"
       style="opacity:1;fill:none;fill-opacity:1;stroke:#000000;stroke-width:1;stroke-miterlimit:8;stroke-dasharray:none;stroke-dashoffset:4.57999992;stroke-opacity:1" />
    <path
       sodipodi:nodetypes="ccccc"
       inkscape:connector-curvature="0"
       id="path9409"
       d="M 81.466192,95.831157 26.090362,200.53559 c 1.119224,0.37665 2.259516,0.6858 3.414042,0.94936 L 83.823018,96.904637 c -0.22661,-0.962272 -1.438635,-1.542421 -2.356826,-1.07348 z"
       style="opacity:1;fill:#feeb00;fill-opacity:1;stroke:#000000;stroke-width:1;stroke-miterlimit:8;stroke-dasharray:none;stroke-dashoffset:4.57999992;stroke-opacity:1" />
    <path
       sodipodi:nodetypes="cssccscccscc"
       inkscape:connector-curvature="0"
       id="path9485"
       d="m 75.653958,125.25942 c 1.231866,1.9613 2.605836,3.98405 5.941078,4.24297 2.398792,0.18623 4.222,-2.32852 3.89356,-5.19141 -0.528283,-4.60486 -1.000961,-9.22918 -2.163089,-13.84377 -0.237832,-1.00727 -0.07328,-1.9743 0.08653,-2.94181 1.011048,-6.12726 -3.4676,-8.875735 -5.60349,-8.88613 -1.549814,-0.0075 -3.000628,0.421936 -2.670045,1.35428 -0.886252,0.17755 -1.33563,0.90246 -0.878499,1.5852 -0.673158,0.37613 -0.771247,1.39824 -0.272369,1.89574 -0.77447,2.5076 2.585423,0.98438 3.318228,1.90097 0.773464,0.96744 0.558291,2.25889 0.285955,3.52619 z"
       style="opacity:1;fill:#feeb00;fill-opacity:1;stroke:#000000;stroke-width:1;stroke-miterlimit:8;stroke-dasharray:none;stroke-dashoffset:4.57999992;stroke-opacity:1" />
    <path
       sodipodi:nodetypes="cc"
       inkscape:connector-curvature="0"
       id="path9479-6"
       d="m 73.977557,103.35812 2.244306,0.003"
       style="opacity:1;fill:none;fill-opacity:1;stroke:#000000;stroke-width:1;stroke-miterlimit:8;stroke-dasharray:none;stroke-dashoffset:4.57999992;stroke-opacity:1" />
    <path
       sodipodi:nodetypes="cc"
       inkscape:connector-curvature="0"
       id="path9481-9"
       d="m 74.977326,100.03318 2.849783,0.22297"
       style="opacity:1;fill:none;fill-opacity:1;stroke:#000000;stroke-width:1;stroke-miterlimit:8;stroke-dasharray:none;stroke-dashoffset:4.57999992;stroke-opacity:1" />
    <path
       sodipodi:nodetypes="cc"
       inkscape:connector-curvature="0"
       id="path9483-8"
       d="m 74.163439,101.6398 2.604103,0.14701"
       style="opacity:1;fill:none;fill-opacity:1;stroke:#000000;stroke-width:1;stroke-miterlimit:8;stroke-dasharray:none;stroke-dashoffset:4.57999992;stroke-opacity:1" />
    <path
       sodipodi:nodetypes="cscccscc"
       inkscape:connector-curvature="0"
       id="path9411"
       d="m 50.347937,142.01956 c 4.176166,0.14219 8.283202,0.8159 10.325047,2.53215 0.743314,0.62478 1.10766,1.28473 0.622053,1.92445 0.541745,0.6898 0.882316,2.0557 0.11653,2.44803 0.113723,1.06693 -0.152385,1.90507 -1.31417,1.9359 -0.470464,1.2861 -2.861849,0.61947 -3.623812,0.34025 -3.286344,-1.20431 -6.113218,-3.35784 -8.892703,-5.59101 z"
       style="opacity:1;fill:#feeb00;fill-opacity:1;stroke:#000000;stroke-width:1;stroke-miterlimit:8;stroke-dasharray:none;stroke-dashoffset:4.57999992;stroke-opacity:1" />
    <path
       sodipodi:nodetypes="cccc"
       inkscape:connector-curvature="0"
       id="path9381"
       d="M 140.60411,39.604392 C 138.85742,103.57343 108.30913,152.40312 77.006216,179.08145 94.402097,112.67018 84.434515,73.86599 71.039158,39.604392 Z"
       style="opacity:1;fill:#ffffff;fill-opacity:1;stroke:#000000;stroke-width:1;stroke-miterlimit:1;stroke-dasharray:none;stroke-dashoffset:4.57999992;stroke-opacity:1" />
    <path
       sodipodi:nodetypes="ccccccc"
       inkscape:connector-curvature="0"
       d="m 64.981345,39.604392 v -3.980085 h 40.277305 40.27731 v 3.980085 h -40.27731 z"
       style="opacity:1;fill:#ffffff;fill-opacity:1;stroke:#000000;stroke-width:1;stroke-miterlimit:8;stroke-dasharray:none;stroke-dashoffset:4.57999992;stroke-opacity:1"
       id="path9363-0" />
    <path
       sodipodi:nodetypes="cc"
       inkscape:connector-curvature="0"
       id="path9391"
       d="m 66.397194,160.52414 c 4.765228,-1.43897 8.84484,-3.75092 12.621742,-6.44827"
       style="opacity:1;fill:none;fill-opacity:1;stroke:#000000;stroke-width:1;stroke-miterlimit:8;stroke-dasharray:none;stroke-dashoffset:4.57999992;stroke-opacity:1" />
    <path
       sodipodi:nodetypes="csc"
       inkscape:connector-curvature="0"
       id="path9340"
       d="m 23.40312,199.57753 c 3.553113,1.34815 7.137491,2.46065 10.869746,2.46065 1.314585,0 2.610823,-0.13802 3.893812,-0.37573"
       style="opacity:1;fill:none;fill-opacity:1;stroke:#000000;stroke-width:0.99999988;stroke-miterlimit:20;stroke-dasharray:none;stroke-dashoffset:4.57999992;stroke-opacity:1" />
    <path
       sodipodi:nodetypes="cc"
       inkscape:connector-curvature="0"
       id="path9512"
       d="m 146.07376,99.413821 3.36498,-2.271244"
       style="opacity:1;fill:#000000;fill-opacity:1;stroke:#000000;stroke-width:1;stroke-miterlimit:1;stroke-dasharray:none;stroke-dashoffset:4.57999992;stroke-opacity:1" />
    <path
       sodipodi:nodetypes="cc"
       inkscape:connector-curvature="0"
       id="path10174"
       d="m 144.92191,93.078714 c -4.70619,-1.820029 -5.94763,-2.442281 -6.77187,-3.691433"
       style="opacity:1;fill:none;fill-opacity:1;stroke:#000000;stroke-width:1;stroke-miterlimit:1;stroke-dasharray:none;stroke-dashoffset:4.57999992;stroke-opacity:1" />
    <path
       sodipodi:nodetypes="cc"
       inkscape:connector-curvature="0"
       id="path10191"
       d="m 59.9375,150.84749 -3.15625,-1.875"
       style="opacity:1;fill:none;fill-opacity:1;stroke:#000000;stroke-width:1;stroke-miterlimit:1;stroke-dasharray:none;stroke-dashoffset:4.57999992;stroke-opacity:1" />
    <path
       sodipodi:nodetypes="cc"
       inkscape:connector-curvature="0"
       id="path10193"
       d="M 61.420315,149.01441 57.59375,147.15999"
       style="opacity:1;fill:none;fill-opacity:1;stroke:#000000;stroke-width:1;stroke-miterlimit:1;stroke-dasharray:none;stroke-dashoffset:4.57999992;stroke-opacity:1" />
    <path
       sodipodi:nodetypes="cc"
       inkscape:connector-curvature="0"
       id="path10195"
       d="m 61.389464,146.64894 c -0.125,-0.0312 -3.170714,-1.42645 -3.170714,-1.42645"
       style="opacity:1;fill:none;fill-opacity:1;stroke:#000000;stroke-width:1;stroke-miterlimit:1;stroke-dasharray:none;stroke-dashoffset:4.57999992;stroke-opacity:1" />
  </g>
</svg>
