<?xml version="1.0" encoding="UTF-8" standalone="no"?>
<!-- Created with Inkscape (http://www.inkscape.org/) -->
<svg
   xmlns:svg="http://www.w3.org/2000/svg"
   xmlns="http://www.w3.org/2000/svg"
   version="1.0"
   width="298.50305"
   height="361.69217"
   id="svg8928">
  <defs
     id="defs8930" />
  <g
     transform="translate(-200.74847,-351.5161)"
     id="layer1">
    <path
       d="M 499.18137,605.79912 L 495.60164,605.79912 L 499.18137,605.79912"
       id="path3665"
       style="fill:#e6e7e8;fill-opacity:1;fill-rule:nonzero;stroke:none" />
    <path
       d="M 393.7376,408.54591 L 368.04774,408.54591 L 368.04774,406.75605 L 369.8376,406.75605 L 368.04774,404.96619 L 368.04774,406.75605 L 368.04774,404.96619 L 391.96522,404.96619 L 391.96522,406.75605 L 393.7376,406.75605 L 393.7376,408.54591"
       id="path3699"
       style="fill:#e6e7e8;fill-opacity:1;fill-rule:nonzero;stroke:none" />
    <path
       d="M 368.04774,408.54591 L 366.27548,408.54591 L 366.27548,406.75605 L 368.04774,406.75605 L 368.04774,408.54591 M 369.8376,406.75605 L 368.04774,406.75605 L 368.04774,404.96619 L 369.8376,406.75605"
       id="path3701"
       style="fill:#e6e7e8;fill-opacity:1;fill-rule:nonzero;stroke:none" />
    <path
       d="M 395.75554,408.54591 L 393.7376,408.54591 L 393.7376,406.75605 L 395.75554,406.75605 L 395.75554,408.54591 M 393.7376,406.75605 L 391.96522,406.75605 L 393.7376,404.96619 L 393.7376,406.75605"
       id="path3705"
       style="fill:#e6e7e8;fill-opacity:1;fill-rule:nonzero;stroke:none" />
    <path
       d="M 201.2574,352.77952 L 201.2574,352.60401 L 201.32757,352.60401 L 201.41532,352.49877 L 201.48548,352.60401 L 201.5907,352.60401 L 201.5907,352.91984 L 201.48548,352.99012 L 201.32757,352.99012 L 201.2574,352.91984 L 201.2574,352.77952 z M 201.5907,353.09535 L 201.73114,353.09535 L 201.73114,352.09519 L 201.5907,352.09519 L 201.5907,352.49877 L 201.48548,352.4461 L 201.2574,352.4461 L 201.16965,352.49877 L 201.08189,352.67416 L 201.08189,352.91984 L 201.16965,352.99012 L 201.2574,353.09535 L 201.41532,353.16551 L 201.48548,353.09535 L 201.5907,352.99012 L 201.5907,353.09535"
       id="path3723"
       style="fill:#231f20;fill-opacity:1;fill-rule:nonzero;stroke:none" />
    <path
       d="M 202.04698,352.18281 L 201.97205,352.18281 L 201.97205,352.28196 L 202.04698,352.28196 L 202.04698,352.18281 z M 201.97682,353.09535 L 202.04698,353.09535 L 202.04698,352.4461 L 201.97682,352.4461 L 201.97682,353.09535"
       id="path3725"
       style="fill:#231f20;fill-opacity:1;fill-rule:nonzero;stroke:none" />
    <path
       d="M 202.87175,352.4461 L 202.80159,352.4461 L 202.80159,352.49877 L 202.69623,352.4461 L 202.46817,352.4461 L 202.3804,352.49877 L 202.31025,352.67416 L 202.31025,352.99012 L 202.3804,352.99012 L 202.46817,353.09535 L 202.69623,353.09535 L 202.80159,352.99012 L 202.80159,353.16551 L 202.69623,353.2358 L 202.55593,353.34102 L 202.31025,353.2358 L 202.31025,353.34102 L 202.46817,353.41119 L 202.69623,353.41119 L 202.80159,353.34102 L 202.87175,353.2358 L 202.87175,352.4461 z M 202.62608,352.99012 L 202.46817,352.91984 L 202.3804,352.84969 L 202.3804,352.77952 L 202.46817,352.60401 L 202.55593,352.60401 L 202.62608,352.49877 L 202.69623,352.60401 L 202.80159,352.67416 L 202.80159,352.91984 L 202.69623,352.91984 L 202.62608,352.99012"
       id="path3727"
       style="fill:#231f20;fill-opacity:1;fill-rule:nonzero;stroke:none" />
    <path
       d="M 203.29294,352.27057 L 203.11729,352.27057 L 203.11729,352.17144 L 203.29294,352.17144 L 203.29294,352.27057 z M 203.11743,352.4461 L 203.29294,352.4461 L 203.29294,353.09535 L 203.11743,353.09535 L 203.11743,352.4461"
       id="path3729"
       style="fill:#231f20;fill-opacity:1;fill-rule:nonzero;stroke:none" />
    <path
       d="M 203.87192,352.49877 L 203.78429,352.60401 L 203.69653,352.60401 L 203.62624,352.67416 L 203.62624,352.77952 L 203.69653,352.91984 L 203.78429,352.99012 L 203.9422,352.99012 L 203.9422,352.91984 L 204.01235,352.77952 L 203.9422,352.60401 L 203.87192,352.49877 z M 203.52102,352.4461 L 203.62624,352.4461 L 203.62624,352.49877 L 203.69653,352.49877 L 203.87192,352.4461 L 204.01235,352.4461 L 204.11759,352.49877 L 204.11759,352.67416 L 204.18788,352.77952 L 204.11759,352.91984 L 204.11759,352.99012 L 204.01235,353.09535 L 203.87192,353.16551 L 203.69653,353.09535 L 203.62624,352.99012 L 203.62624,353.41119 L 203.52102,353.41119 L 203.52102,352.4461"
       id="path3731"
       style="fill:#231f20;fill-opacity:1;fill-rule:nonzero;stroke:none" />
    <path
       d="M 204.36327,353.09535 L 204.43354,353.09535 L 204.43354,352.84969 L 204.5037,352.60401 L 204.59147,352.49877 L 204.67909,352.60401 L 204.67909,352.4461 L 204.5037,352.4461 L 204.43354,352.60401 L 204.43354,352.4461 L 204.36327,352.4461 L 204.36327,353.09535"
       id="path3733"
       style="fill:#231f20;fill-opacity:1;fill-rule:nonzero;stroke:none" />
    <path
       d="M 204.90729,352.77952 L 205.01252,352.60401 L 205.0828,352.49877 L 205.18804,352.49877 L 205.22312,352.60401 L 205.22312,352.77952 L 204.90729,352.77952 z M 205.32848,352.99012 L 205.01252,352.99012 L 204.90729,352.91984 L 204.90729,352.84969 L 205.39863,352.84969 L 205.39863,352.67416 L 205.32848,352.49877 L 205.22312,352.4461 L 205.01252,352.4461 L 204.90729,352.49877 L 204.8546,352.67416 L 204.8546,352.91984 L 204.90729,352.99012 L 205.01252,353.09535 L 205.18804,353.16551 L 205.32848,353.09535 L 205.32848,352.99012"
       id="path3735"
       style="fill:#231f20;fill-opacity:1;fill-rule:nonzero;stroke:none" />
    <path
       d="M 205.57402,352.99012 L 205.73207,352.99012 L 205.83729,352.91984 L 205.73207,352.84969 L 205.66178,352.84969 L 205.57402,352.77952 L 205.50387,352.67416 L 205.57402,352.49877 L 205.66178,352.4461 L 205.90745,352.4461 L 205.90745,352.60401 L 205.73207,352.49877 L 205.66178,352.60401 L 205.73207,352.67416 L 205.83729,352.77952 L 205.90745,352.84969 L 205.97774,352.91984 L 205.90745,352.99012 L 205.90745,353.09535 L 205.83729,353.09535 L 205.73207,353.16551 L 205.66178,353.16551 L 205.50387,353.09535 L 205.57402,352.99012"
       id="path3737"
       style="fill:#231f20;fill-opacity:1;fill-rule:nonzero;stroke:none" />
    <path
       d="M 206.08297,352.99012 L 206.29357,352.99012 L 206.29357,352.84969 L 206.22342,352.84969 L 206.08297,352.77952 L 206.08297,352.49877 L 206.15313,352.49877 L 206.22342,352.4461 L 206.46895,352.4461 L 206.39879,352.60401 L 206.29357,352.49877 L 206.22342,352.60401 L 206.15313,352.60401 L 206.22342,352.67416 L 206.29357,352.77952 L 206.39879,352.84969 L 206.46895,352.91984 L 206.46895,352.99012 L 206.39879,353.09535 L 206.29357,353.09535 L 206.22342,353.16551 L 206.15313,353.16551 L 206.08297,353.09535 L 206.08297,352.99012"
       id="path3739"
       style="fill:#231f20;fill-opacity:1;fill-rule:nonzero;stroke:none" />
    <path
       d="M 207.71492,352.35834 L 207.60955,352.35834 L 207.46924,352.27057 L 207.29373,352.35834 L 207.22358,352.4461 L 207.11834,352.49877 L 207.11834,352.84969 L 207.22358,352.91984 L 207.29373,352.99012 L 207.60955,352.99012 L 207.60955,352.77952 L 207.39909,352.77952 L 207.39909,352.60401 L 207.71492,352.60401 L 207.71492,353.09535 L 207.46924,353.16551 L 207.29373,353.09535 L 207.11834,352.99012 L 207.06567,352.84969 L 206.9779,352.67416 L 207.06567,352.4461 L 207.11834,352.35834 L 207.29373,352.18281 L 207.46924,352.18281 L 207.71492,352.27057 L 207.71492,352.35834"
       id="path3741"
       style="fill:#231f20;fill-opacity:1;fill-rule:nonzero;stroke:none" />
    <path
       d="M 207.96059,352.4461 L 208.1185,352.4461 L 208.1185,352.49877 L 208.18865,352.4461 L 208.45194,352.4461 L 208.50449,352.60401 L 208.60985,352.4461 L 208.78537,352.4461 L 208.83792,352.49877 L 208.92568,352.60401 L 208.92568,353.09535 L 208.78537,353.09535 L 208.78537,352.60401 L 208.68,352.49877 L 208.60985,352.60401 L 208.50449,352.60401 L 208.50449,353.09535 L 208.36418,353.09535 L 208.36418,352.60401 L 208.29403,352.49877 L 208.18865,352.60401 L 208.1185,352.60401 L 208.1185,353.09535 L 207.96059,353.09535 L 207.96059,352.4461"
       id="path3743"
       style="fill:#231f20;fill-opacity:1;fill-rule:nonzero;stroke:none" />
    <path
       d="M 209.17135,353.09535 L 209.25912,353.09535 L 209.25912,352.99012 L 209.32927,353.09535 L 209.50478,353.16551 L 209.57494,353.09535 L 209.75045,352.99012 L 209.75045,352.77952 L 209.68017,352.49877 L 209.57494,352.4461 L 209.32927,352.4461 L 209.25912,352.49877 L 209.25912,352.09519 L 209.17135,352.09519 L 209.17135,353.09535 z M 209.68017,352.77952 L 209.57494,352.91984 L 209.57494,352.99012 L 209.32927,352.99012 L 209.32927,352.91984 L 209.25912,352.84969 L 209.25912,352.77952 L 209.32927,352.60401 L 209.50478,352.49877 L 209.57494,352.60401 L 209.68017,352.77952"
       id="path3745"
       style="fill:#231f20;fill-opacity:1;fill-rule:nonzero;stroke:none" />
    <path
       d="M 209.99613,352.18281 L 210.06628,352.18281 L 210.06628,352.60401 L 210.5751,352.60401 L 210.5751,352.18281 L 210.66285,352.18281 L 210.66285,353.09535 L 210.5751,353.09535 L 210.5751,352.67416 L 210.06628,352.67416 L 210.06628,353.09535 L 209.99613,353.09535 L 209.99613,352.18281"
       id="path3747"
       style="fill:#231f20;fill-opacity:1;fill-rule:nonzero;stroke:none" />
    <path
       d="M 498.11092,352.60401 L 201.73114,352.60401 L 201.8013,407.49306 L 201.90667,462.50496 L 201.97682,517.48177 L 202.04698,572.47606 L 202.13473,576.09086 L 202.22249,579.68819 L 202.46817,583.28539 L 202.80159,586.81257 L 203.18758,590.28694 L 203.78429,593.7965 L 204.36327,597.2534 L 205.0828,600.67521 L 205.83729,604.02674 L 206.71463,607.37839 L 207.71492,610.72992 L 208.68,614.08157 L 209.85569,617.2928 L 211.06644,620.53909 L 212.27734,623.73284 L 213.66362,626.89137 L 215.15513,630.01482 L 216.62915,633.05052 L 218.26098,636.06876 L 219.87545,639.06937 L 221.68279,642.03492 L 223.47265,644.96539 L 225.36788,647.8081 L 227.35073,650.61574 L 229.38627,653.40589 L 231.49197,656.07309 L 233.63273,658.79295 L 235.84378,661.38999 L 238.14247,663.91687 L 240.49395,666.47882 L 242.96815,668.91795 L 245.42475,671.28692 L 247.95164,673.65589 L 250.54867,675.95457 L 253.26854,678.16562 L 255.97094,680.28892 L 258.7435,682.39461 L 261.51605,684.43015 L 264.37623,686.413 L 267.34178,688.34317 L 270.36,690.15064 L 273.36063,691.9405 L 276.41393,693.67769 L 279.59007,695.29216 L 282.69605,696.94159 L 285.97743,698.41562 L 289.24133,699.87205 L 292.5227,701.17057 L 295.85675,702.48669 L 299.22589,703.73252 L 302.6477,704.85552 L 306.17474,705.94359 L 309.59655,706.90867 L 313.19389,707.8036 L 316.72093,708.62837 L 320.31813,709.34779 L 324.00323,710.01452 L 327.60043,710.59362 L 331.37314,711.08497 L 335.04063,711.50616 L 338.81334,711.82199 L 342.56859,711.9799 L 346.41159,712.15542 L 350.1667,712.22557 L 354.02718,712.15542 L 357.85258,711.9799 L 361.6253,711.82199 L 365.29279,711.50616 L 369.0655,711.08497 L 372.75059,710.59362 L 376.41808,710.01452 L 380.01528,709.34779 L 383.61262,708.62837 L 387.20982,707.8036 L 390.73685,706.90867 L 394.26403,705.94359 L 397.68572,704.85552 L 401.10753,703.73252 L 404.49427,702.48669 L 407.84592,701.17057 L 411.09222,699.87205 L 414.37359,698.41562 L 417.65495,696.94159 L 420.74334,695.29216 L 423.91948,693.67769 L 426.97279,691.9405 L 429.99102,690.15064 L 433.00924,688.34317 L 435.88703,686.413 L 438.85257,684.43015 L 441.59005,682.39461 L 444.38008,680.28892 L 447.08248,678.16562 L 449.78474,675.95457 L 452.39938,673.65589 L 454.94374,671.28692 L 457.38285,668.91795 L 459.83959,666.47882 L 462.20855,663.91687 L 464.50723,661.38999 L 466.71829,658.79295 L 468.85905,656.07309 L 470.96474,653.40589 L 473.01789,650.61574 L 474.98314,647.8081 L 476.86077,644.96539 L 478.65063,642.03492 L 480.47557,639.06937 L 482.10752,636.06876 L 483.73947,633.05052 L 485.17843,630.01482 L 486.66993,626.89137 L 488.0562,623.73284 L 489.30204,620.53909 L 490.5128,617.2928 L 491.6534,614.08157 L 492.72385,610.72992 L 493.61879,607.37839 L 494.51372,604.02674 L 495.3385,600.67521 L 496.00523,597.2534 L 496.65449,593.7965 L 497.14583,590.28694 L 497.54942,586.81257 L 497.88285,583.28539 L 498.11092,579.68819 L 498.28644,576.09086 L 498.28644,572.47606 L 498.21628,517.48177 L 498.21628,462.50496 L 498.11092,407.49306 L 498.11092,352.60401"
       id="path3749"
       style="fill:#db4c35;fill-opacity:1;fill-rule:nonzero;stroke:none" />
    <path
       d="M 201.73114,352.60401 L 498.04077,352.60401"
       id="path3751"
       style="fill:none;stroke:#231f20;stroke-width:1.96533704;stroke-linecap:butt;stroke-linejoin:miter;stroke-miterlimit:10;stroke-dasharray:none;stroke-opacity:1" />
    <path
       d="M 202.69623,352.60401 L 200.76607,352.60401 L 200.83622,407.49306 L 200.90637,462.50496 L 201.01173,517.48177 L 201.08189,572.47606 L 203.04727,572.47606 L 202.97698,517.48177 L 202.87175,462.50496 L 202.80159,407.49306 L 202.69623,352.60401"
       id="path3753"
       style="fill:#231f20;fill-opacity:1;fill-rule:nonzero;stroke:none" />
    <path
       d="M 201.73114,351.63892 L 200.76607,351.63892 L 200.76607,352.60401 L 202.69623,352.60401 L 201.73114,353.5867 L 201.73114,351.63892"
       id="path3755"
       style="fill:#231f20;fill-opacity:1;fill-rule:nonzero;stroke:none" />
    <path
       d="M 203.04727,572.47606 L 203.18758,579.68819 L 203.78429,586.7072 L 204.76684,593.65606 L 205.97774,600.42954 L 207.60955,607.13272 L 209.57494,613.76575 L 211.96138,620.20566 L 214.59363,626.41764 L 216.05005,629.59364 L 217.43633,632.54171 L 220.7001,638.57804 L 222.50757,641.56119 L 224.29743,644.49165 L 228.1579,650.12439 L 232.15883,655.51159 L 236.5808,660.67057 L 238.86202,663.28521 L 241.14322,665.74181 L 243.59982,668.26869 L 246.05654,670.5499 L 251.233,675.11232 L 256.53244,679.5343 L 262.02487,683.62297 L 267.79804,687.536 L 273.85198,691.1508 L 280.09902,694.50246 L 286.39862,697.50309 L 292.85613,700.29324 L 299.45395,702.81999 L 306.33265,705.03105 L 313.36928,706.90867 L 320.49365,708.3827 L 324.00323,709.04944 L 327.70579,709.61094 L 335.14599,710.50586 L 342.56859,711.01482 L 350.1667,711.22541 L 350.07894,713.20826 L 342.48083,712.94499 L 334.97048,712.47125 L 327.44252,711.55871 L 323.75755,711.01482 L 320.16022,710.33049 L 312.87793,708.80376 L 305.75369,706.90867 L 298.91007,704.69761 L 292.10152,702.10057 L 285.55624,699.31055 L 279.09873,696.22217 L 272.88689,692.83544 L 266.7628,689.18555 L 260.95442,685.2724 L 255.32168,681.09609 L 249.91702,676.60382 L 244.74042,672.00634 L 242.21354,669.6375 L 239.75694,667.12809 L 237.40558,664.60121 L 235.08929,661.9691 L 230.59703,656.75741 L 226.50848,651.19484 L 222.68309,645.5621 L 220.87562,642.59656 L 218.98052,639.57832 L 215.69902,633.54187 L 214.26019,630.41841 L 212.78615,627.24227 L 210.17152,620.94267 L 207.71492,614.32725 L 205.73207,607.62406 L 204.11759,600.92087 L 202.80159,593.90174 L 201.8013,586.95287 L 201.2574,579.75835 L 201.08189,572.56381 L 203.04727,572.47606"
       id="path3757"
       style="fill:#231f20;fill-opacity:1;fill-rule:nonzero;stroke:none" />
    <path
       d="M 201.08189,572.47606 L 201.08189,572.56381 L 203.04727,572.47606 L 201.08189,572.47606"
       id="path3759"
       style="fill:#231f20;fill-opacity:1;fill-rule:nonzero;stroke:none" />
    <path
       d="M 350.1667,711.22541 L 357.78243,711.01482 L 361.6253,710.8393 L 365.22263,710.50586 L 372.57508,709.61094 L 376.27764,709.04944 L 379.87497,708.3827 L 386.99922,706.90867 L 394.01835,705.03105 L 400.7917,702.81999 L 407.42473,700.29324 L 413.97,697.50309 L 420.25199,694.50246 L 426.48144,691.1508 L 432.35998,687.536 L 435.32553,685.58822 L 438.25599,683.62297 L 440.95827,681.67506 L 443.73082,679.5343 L 449.13548,675.11232 L 454.20672,670.65526 L 459.10257,665.74181 L 463.68245,660.67057 L 468.10457,655.44142 L 472.1755,650.05424 L 476.05359,644.49165 L 479.65092,638.57804 L 482.82693,632.54171 L 484.31857,629.59364 L 485.75739,626.41764 L 488.38964,620.20566 L 489.61787,616.94189 L 490.77608,613.66039 L 492.6361,607.13272 L 494.28565,600.42954 L 495.58417,593.55084 L 496.14567,590.12902 L 496.54925,586.7072 L 497.14583,579.60044 L 497.32135,576.00324 L 497.32135,572.47606 L 499.18137,572.47606 L 499.18137,576.16115 L 499.00585,579.86371 L 498.44435,586.95287 L 498.04077,590.46245 L 497.47927,593.97202 L 496.14567,600.92087 L 494.51372,607.62406 L 492.54834,614.32725 L 491.40774,617.67877 L 490.1795,620.94267 L 487.59994,627.24227 L 486.02067,630.52377 L 484.54664,633.54187 L 481.26527,639.64849 L 477.66793,645.5621 L 473.7373,651.26499 L 469.57847,656.75741 L 465.15649,661.9691 L 460.48884,667.12809 L 455.59299,672.00634 L 450.434,676.60382 L 444.97665,681.09609 L 442.18663,683.20179 L 439.34392,685.2724 L 436.37837,687.23777 L 433.4303,689.18555 L 427.44653,692.83544 L 421.16453,696.22217 L 414.68942,699.31055 L 408.16175,702.10057 L 401.38828,704.69761 L 394.5097,706.90867 L 387.49055,708.80376 L 380.12052,710.33049 L 376.52332,711.01482 L 372.82075,711.55871 L 365.38054,712.47125 L 361.69559,712.78707 L 357.78243,712.94499 L 350.1667,713.20826 L 350.1667,711.22541"
       id="path3761"
       style="fill:#231f20;fill-opacity:1;fill-rule:nonzero;stroke:none" />
    <path
       d="M 350.07894,713.20826 L 350.1667,713.20826 L 350.1667,711.22541 L 350.07894,713.20826"
       id="path3763"
       style="fill:#231f20;fill-opacity:1;fill-rule:nonzero;stroke:none" />
    <path
       d="M 497.32135,572.47606 L 499.25153,572.47606 L 499.18137,517.48177 L 499.11122,462.50496 L 499.00585,407.49306 L 499.00585,352.60401 L 497.0406,352.60401 L 497.0406,407.49306 L 497.14583,462.50496 L 497.21599,517.48177 L 497.32135,572.47606"
       id="path3765"
       style="fill:#231f20;fill-opacity:1;fill-rule:nonzero;stroke:none" />
    <path
       d="M 499.18137,572.47606 L 499.25153,572.47606 L 497.32135,572.47606 L 499.18137,572.47606"
       id="path3767"
       style="fill:#231f20;fill-opacity:1;fill-rule:nonzero;stroke:none" />
    <path
       d="M 498.02329,352.60401 L 498.02329,352.49877"
       id="path3769"
       style="fill:none;stroke:#231f20;stroke-width:1.96533704;stroke-linecap:butt;stroke-linejoin:miter;stroke-miterlimit:10;stroke-dasharray:none;stroke-opacity:1" />
    <path
       d="M 499.00585,352.60401 L 497.0406,352.60401 L 499.00585,352.60401"
       id="path3771"
       style="fill:#231f20;fill-opacity:1;fill-rule:nonzero;stroke:none" />
    <path
       d="M 441.59005,407.00172 L 441.59005,364.18544 L 427.53429,364.18544 L 427.53429,406.93156 L 384.61278,406.93156 L 384.61278,421.0048 L 427.6922,421.0048 L 427.6922,463.89124 L 441.76543,463.89124 L 441.69528,421.0048 L 484.54664,421.0048 L 484.54664,406.93156 L 441.59005,407.00172"
       id="path3773"
       style="fill:#ffffff;fill-opacity:1;fill-rule:nonzero;stroke:none" />
    <path
       d="M 441.60752,407.00172 L 441.60752,364.18544"
       id="path3775"
       style="fill:none;stroke:#231f20;stroke-width:1.96533704;stroke-linecap:butt;stroke-linejoin:miter;stroke-miterlimit:10;stroke-dasharray:none;stroke-opacity:1" />
    <path
       d="M 434.5709,365.18574 L 434.5709,363.22035"
       id="path3777"
       style="fill:none;stroke:#231f20;stroke-width:14.07321739;stroke-linecap:butt;stroke-linejoin:miter;stroke-miterlimit:10;stroke-dasharray:none;stroke-opacity:1" />
    <path
       d="M 442.59022,364.18544 L 442.59022,363.22035 L 441.59005,363.22035 L 441.59005,365.18574 L 440.62483,364.18544 L 442.59022,364.18544"
       id="path3779"
       style="fill:#231f20;fill-opacity:1;fill-rule:nonzero;stroke:none" />
    <path
       d="M 427.53429,406.93156 L 427.53429,364.18544"
       id="path3781"
       style="fill:none;stroke:#231f20;stroke-width:1.96533704;stroke-linecap:butt;stroke-linejoin:miter;stroke-miterlimit:10;stroke-dasharray:none;stroke-opacity:1" />
    <path
       d="M 427.53429,363.22035 L 426.55173,363.22035 L 426.55173,364.18544 L 428.51698,364.18544 L 427.53429,365.18574 L 427.53429,363.22035"
       id="path3783"
       style="fill:#231f20;fill-opacity:1;fill-rule:nonzero;stroke:none" />
    <path
       d="M 406.07353,407.93172 L 406.07353,405.94887"
       id="path3785"
       style="fill:none;stroke:#231f20;stroke-width:42.92155838;stroke-linecap:butt;stroke-linejoin:miter;stroke-miterlimit:10;stroke-dasharray:none;stroke-opacity:1" />
    <path
       d="M 428.51698,406.93156 L 428.51698,407.93172 L 427.53429,407.93172 L 427.53429,405.93127 L 426.55173,406.93156 L 428.51698,406.93156"
       id="path3787"
       style="fill:#231f20;fill-opacity:1;fill-rule:nonzero;stroke:none" />
    <path
       d="M 384.59517,421.0048 L 384.59517,406.93156"
       id="path3789"
       style="fill:none;stroke:#231f20;stroke-width:1.96533704;stroke-linecap:butt;stroke-linejoin:miter;stroke-miterlimit:10;stroke-dasharray:none;stroke-opacity:1" />
    <path
       d="M 384.61278,405.93127 L 383.61262,405.93127 L 383.61262,406.93156 L 385.57787,406.93156 L 384.61278,407.93172 L 384.61278,405.93127"
       id="path3791"
       style="fill:#231f20;fill-opacity:1;fill-rule:nonzero;stroke:none" />
    <path
       d="M 406.16129,421.96989 L 406.16129,420.0045"
       id="path3793"
       style="fill:none;stroke:#231f20;stroke-width:43.09703445;stroke-linecap:butt;stroke-linejoin:miter;stroke-miterlimit:10;stroke-dasharray:none;stroke-opacity:1" />
    <path
       d="M 383.61262,421.0048 L 383.61262,421.96989 L 384.61278,421.96989 L 384.61278,420.0045 L 385.57787,421.0048 L 383.61262,421.0048"
       id="path3795"
       style="fill:#231f20;fill-opacity:1;fill-rule:nonzero;stroke:none" />
    <path
       d="M 427.7098,463.89124 L 427.7098,421.0048"
       id="path3797"
       style="fill:none;stroke:#231f20;stroke-width:1.98288453;stroke-linecap:butt;stroke-linejoin:miter;stroke-miterlimit:10;stroke-dasharray:none;stroke-opacity:1" />
    <path
       d="M 427.6922,420.0045 L 428.69249,420.0045 L 428.69249,421.0048 L 426.70964,421.0048 L 427.6922,421.96989 L 427.6922,420.0045"
       id="path3799"
       style="fill:#231f20;fill-opacity:1;fill-rule:nonzero;stroke:none" />
    <path
       d="M 434.72882,464.85632 L 434.72882,462.92615"
       id="path3801"
       style="fill:none;stroke:#231f20;stroke-width:14.07321739;stroke-linecap:butt;stroke-linejoin:miter;stroke-miterlimit:10;stroke-dasharray:none;stroke-opacity:1" />
    <path
       d="M 426.70964,463.89124 L 426.70964,464.85632 L 427.6922,464.85632 L 427.6922,462.92615 L 428.69249,463.89124 L 426.70964,463.89124"
       id="path3803"
       style="fill:#231f20;fill-opacity:1;fill-rule:nonzero;stroke:none" />
    <path
       d="M 440.78274,463.89124 L 442.76573,463.89124 L 442.66037,421.0048 L 440.71259,421.0048 L 440.78274,463.89124"
       id="path3805"
       style="fill:#231f20;fill-opacity:1;fill-rule:nonzero;stroke:none" />
    <path
       d="M 441.76543,464.85632 L 442.76573,464.85632 L 442.76573,463.89124 L 440.78274,463.89124 L 441.76543,462.92615 L 441.76543,464.85632"
       id="path3807"
       style="fill:#231f20;fill-opacity:1;fill-rule:nonzero;stroke:none" />
    <path
       d="M 463.12095,421.96989 L 463.12095,420.0045"
       id="path3809"
       style="fill:none;stroke:#231f20;stroke-width:42.83381653;stroke-linecap:butt;stroke-linejoin:miter;stroke-miterlimit:10;stroke-dasharray:none;stroke-opacity:1" />
    <path
       d="M 440.71259,421.0048 L 440.71259,420.0045 L 441.69528,420.0045 L 441.69528,421.96989 L 442.66037,421.0048 L 440.71259,421.0048"
       id="path3811"
       style="fill:#231f20;fill-opacity:1;fill-rule:nonzero;stroke:none" />
    <path
       d="M 484.54664,421.0048 L 484.54664,406.93156"
       id="path3813"
       style="fill:none;stroke:#231f20;stroke-width:1.96533704;stroke-linecap:butt;stroke-linejoin:miter;stroke-miterlimit:10;stroke-dasharray:none;stroke-opacity:1" />
    <path
       d="M 484.54664,421.96989 L 485.52933,421.96989 L 485.52933,421.0048 L 483.56394,421.0048 L 484.54664,420.0045 L 484.54664,421.96989"
       id="path3815"
       style="fill:#231f20;fill-opacity:1;fill-rule:nonzero;stroke:none" />
    <path
       d="M 484.54664,407.93172 L 484.54664,405.93127 L 441.59005,406.0541 L 441.59005,408.00201 L 484.54664,407.93172"
       id="path3817"
       style="fill:#231f20;fill-opacity:1;fill-rule:nonzero;stroke:none" />
    <path
       d="M 485.52933,406.93156 L 485.52933,405.93127 L 484.54664,405.93127 L 484.54664,407.93172 L 483.56394,406.93156 L 485.52933,406.93156"
       id="path3819"
       style="fill:#231f20;fill-opacity:1;fill-rule:nonzero;stroke:none" />
    <path
       d="M 441.60752,407.00172 L 441.60752,406.93156"
       id="path3821"
       style="fill:none;stroke:#231f20;stroke-width:1.96533704;stroke-linecap:butt;stroke-linejoin:miter;stroke-miterlimit:10;stroke-dasharray:none;stroke-opacity:1" />
    <path
       d="M 441.59005,408.00201 L 440.62483,407.00172 L 442.59022,407.00172 L 441.59005,406.0541 L 441.59005,408.00201"
       id="path3823"
       style="fill:#231f20;fill-opacity:1;fill-rule:nonzero;stroke:none" />
  </g>
</svg>
