<svg width="615" height="707" xml:space="preserve" xmlns="http://www.w3.org/2000/svg"><g stroke="#000"><path d="M605.5 9.215H9.5l28.7 438c10.188 141.21 127.72 250.57 269.3 250.57s259.11-109.36 269.3-250.57z" fill="#fff" stroke-width="13"/><path d="M307.5 523.435c-51.057 0-64.927 46.365-58.625 77.25 0 0-44.752-39.077-81.312 3.156-12.217 14.113-16.324 29.594-15.4 44.793 44.048 31.022 97.698 49.154 155.34 49.154s111.29-18.132 155.34-49.154c.923-15.199-3.183-30.68-15.4-44.793-36.557-42.233-81.312-3.156-81.312-3.156 6.305-30.885-7.57-77.25-58.625-77.25z" fill="#094" stroke-width="4"/><g fill="#f00000" stroke-linecap="round" stroke-width="4.199"><path d="M508.087 178.415c-15.854-49.901-59.28-52.386-95.123-35.153s-68.93 73.755-68.93 73.755c25.42-68.224 15.855-101.33 2.759-126.83s-36.533-46.873-39.29-57.213c-2.758 10.34-26.194 31.708-39.29 57.212-13.097 25.503-22.661 58.606 2.757 126.83 0 0-33.085-56.521-68.928-73.754s-79.27-14.748-95.123 35.153c-11.05 34.782 3.445 55.833 30.329 80.648 26.883 24.815 46.871 38.6 39.979 66.173 0 0 32.907-15.165 31.53-46.871-1.379-31.708-14.008-36.418-1.89-51.01 11.133-13.403 32.397-2.067 44.805 17.233 12.407 19.3 19.99 37.222 19.99 73.066 0 35.843 5.902 80.648-40.669 80.648-33.776 0-22.058-48.251-15.165-58.591 0 0-25.79 1.708-41.358 45.494-11.028 31.019 7.029 60.345 29.64 66.172 24.768 6.383 61.387-21.774 75.133-43.425 0 0-17.422 40.964 0 66.862 12.555 18.66 20.712 22.223 28.262 31.708 7.55-9.485 15.707-13.047 28.261-31.708 17.422-25.898 0-66.862 0-66.862 13.746 21.651 50.366 49.808 75.133 43.425 22.612-5.827 40.668-35.153 29.639-66.172-15.568-43.786-41.357-45.494-41.357-45.494 6.892 10.34 18.611 58.591-15.165 58.591-46.571 0-40.668-44.805-40.668-80.648 0-35.844 7.583-53.765 19.989-73.066 12.407-19.3 33.673-30.636 44.804-17.233 12.119 14.592-.51 19.302-1.888 51.01-1.379 31.706 31.53 46.871 31.53 46.871-6.894-27.571 13.096-41.358 39.978-66.173 26.88-24.815 41.375-45.866 30.326-80.648z" stroke-width="4.00000939"/><g stroke-linejoin="round"><path d="M270.963 217.024s27.675 51.07 27.675 106.14c0 54.652-19.403 84.792-19.403 84.792M344.028 217.024s-27.674 51.07-27.674 106.14c0 54.652 19.403 84.792 19.403 84.792" stroke-width="4.00000939"/><path d="M344.285 315.858h-73.58c-8.888 0-16.095 7.204-16.095 16.093s7.206 16.094 16.095 16.094h73.58c8.888 0 16.095-7.205 16.095-16.094s-7.207-16.093-16.095-16.093z" stroke-width="4.00000939"/></g></g><path d="M605.5 9.215H9.5l28.7 438c10.188 141.21 127.72 250.57 269.3 250.57s259.11-109.36 269.3-250.57z" fill="none" stroke-width="8"/></g></svg>
