<?xml version="1.0" encoding="UTF-8"?>
<svg width="720" height="798.15" xmlns="http://www.w3.org/2000/svg">
 <path d="m359.97 789.85-1.513-.615c-100.28-40.897-180.47-102.23-238.36-182.3-56.273-77.834-91.534-173.33-104.8-283.84-7.094-58.797-8.586-139.63-8.588-197.09 0-29.852.412-52.779.59-61.252l.057-2.642L9.8 61.12C32.615 51.855 156.72 5.638 360 5.603h.064c203.19.034 327.37 46.255 350.2 55.522l2.444.991.058 2.642c.174 8.441.589 31.314.589 61.273-.005 57.447-1.503 138.27-8.599 197.07-13.267 110.5-48.544 206-104.84 283.84-57.894 80.032-138.1 141.37-238.41 182.29z" fill="#fff"/>
  <path d="M360.05-.036h-.067C134.323 0 4.483 57.138 3.953 57.366L.774 58.769l-.08 3.468c0 .038-.671 26.601-.671 64.816.003 56.428 1.433 138.18 8.636 197.89 26.427 220.06 139.88 387.71 349.27 472.34l2.053.845 2.051-.845c209.39-84.615 322.93-252.26 349.35-472.34 7.206-59.709 8.639-141.45 8.644-197.86 0-38.229-.666-64.802-.666-64.84l-.088-3.468-3.179-1.403c-.532-.228-130.37-57.364-356.03-57.402m0 10.695c203.14.034 327.21 46.512 348.68 55.228.177 8.475.586 31.336.586 61.19-.005 57.338-1.495 137.99-8.57 196.59-13.186 109.82-48.214 204.69-104.11 281.97-57.45 79.425-137.04 140.28-236.68 180.93-99.576-40.608-179.18-101.47-236.63-180.93-55.87-77.27-90.881-172.14-104.07-281.97-7.066-58.594-8.555-139.26-8.558-196.61 0-29.85.414-52.704.591-61.172 21.157-8.59 145.3-55.188 348.68-55.223h.067"/>
  <path d="M410.7 101.78c-1.664.017-3.413.08-5.275.205-4.52.305-30.61 7.065-39.861 10.71a174.29 174.29 0 0 1 5.914 5.688c3.599 3.566 7.314 7.236 11.12 9.909 7.958-5.114 27.307-14.533 46.013-13.068.66.05 1.217.1 1.818-.395 2.995-2.48 6.653-7.02 12.68-10.955.39-.256.277-.447-.273-.428-12.982.417-20.484-1.783-32.135-1.666zm-250.52 6.852c-.61-.061-.38.233-.258.359 4.76 4.885 5.339 6.357 6.563 13.432.056.334-.133.46-.416.277-6.462-4.17-7.537-6.523-10.26-7.523-.96-.355-11.25-.888-15.584-.027-.15.029-.44.096-.008.296 5.088 2.361 5.026 7.292 7.836 13.764.118.273.037.386-.21.164-7.055-6.36-13.893-8.267-22.163 5.85-.326.554-.362.939.469 1.049 3.198.417 6.412.238 8.66.414.549.046.827.074.535.814-1.473 3.762-4.635 2.41-8.367 8.032-.46.693-.422.878.845 1.568 2.147 1.168 7.836 4.075 7.729 5.48-.398 5.287 4.944 11 7.92 18.49 2.978 7.49-2.13 16.302-.02 17.464l-.002.001c9.152 5.043 14.173 22.297 16.88 25.773 14.678 18.855 28.28 65.24 49.022 96.47 8.208 12.354 11.828 10.625 12.377 12.663.305 1.134-2.8 7.749-1.209 9.784 5.666 7.25 15.555 14.84 17.426 14.434 1.872-.404 8.056-3.02 13.852-6.278-4.847-21.304-5.424-37.309-1.87-50.457-36.83-29.75-76.683-80.977-79.767-126.13-.425-6.23 8.729-19.657 8.905-23.9.952-23.1-.111-26.15-.838-26.857-.727-.708-7.815-4.38-18.047-5.404zm177.57 1.297c-17.056.218-25.863 2.385-30.713 13.401-.177.399-.328.624-.943.63-13.52.12-32.988 1.625-47.822 3.986-3.34.516-8.38 13.028-3.553 13.662 4.844.642 4.017-10.416 7.182-8.815 2.6 1.315 3.166 2.112 3.23 2.791.543 5.87-12.057 7.108-10.934 12.557.532 2.58 4.92 2.676 4.92 2.676s1.407 16.296 1.434 16.646c.024.35.266.436.408.147.142-.294 8.453-14.148 8.453-14.148.94 8.663 1.603 19.645 1.619 19.98s.132.52.36.15c1.056-1.716 4.607-7.65 10.09-18.342l1.365.328 1.859 7.076c.044.16.063.23.256.034a110.41 110.41 0 0 1 5.07-4.8c.903.24 1.027.362 2.393.589l1.265 6.572c.027.147.09.159.223.045l5.574-4.799 2.164.629 1.82 6.408c.06.208.108.252.276.1l4.99-4.526 2.287.723s7.146 15.152 10.352 21.98c.334.708.393 1.24-.433 1.518-11.385 3.808-40.241 8.848-39.992 9.882.628 2.642 3.821 8.536 6.896 8.053 5.463-.867 18.274-2.863 45.572-7.8.79-.143 1.59-.11 1.795.66a1.521 1.521 0 0 1-1.209 1.886c-4.86.92-8.138 1.652-12.119 2.43-39.704 71.094-89.222 57.163-64.996 146.01.436 1.596 1.67.68 2.053.28 4.725-4.915 7.947-6.81 19.072-10.6 1.72-.584 2.78 1.574.83 2.26-18.864 6.664-20.792 16.51-21.824 20.296-21.125 77.6-37.066 110.05-42.092 113.3-1.724 1.115-18.073 13.043-26.367 15.768-6.157 2.018-25.186-6-39.127.703-2.57 1.235-3.363 7.794-5.342 14.684-.056.2-.199.618.205.34 4.203-2.835 5.01-3.313 8.625-3.11.097.008.285.035.143.286-3.615 6.329-6.797 9.476 4.681 23.873.1.12.278.371.395.007 3.089-9.409 2.826-10.972 8.978-12.03.117-.017.333-.044.307.21-.16 1.58-1.682 3.842-2.44 5.893-1.178 3.21-1.667 6.15-1.175 7.107 1.3 2.526 7.924 4.525 13.084 6.45.104.043.3.048.101-.264-.7-1.123-1.58-2.49-2.097-3.887-.054-.14-.166-.398.029-.695 1.192-1.77 2.26-3.04 3.674-4.813.254-.32.278-.017.283.133.217 9.601 8.897 8.99 15.375 9.494.513.043.434-.326.383-.511-2.05-7.695-2.168-10.454-.344-14.96.32-.796.766-.806 1.105-.77 4.34.437 17.191 2.459 17.191-.784 0-5.96 11.374-13.564 12.467-15.984.904-2 6.734 3.22 7.79.96 52.03-111.2 69.785-120.38 74.496-121.32.708-.138.502-.592.43-.825-.88-2.84-.85-9.189-.872-10.562-.03-1.775 1.922-1.755 2.053-.327 2.072 22.526 24.326 15.94 61.186 15.94 13.246 0 26.947.386 51.279 3.824 2.654.374 1.644 2.666-.53 2.345-7.547-1.11-13.572-1.827-23.331-2.498-100.81 27.646-49.776 145.49-52.086 147.74-35.9 35.068-43.72 48.673-50.174 49.518-4.463.588-23.2-10.669-36.533-7.244-11.256 2.893-14.224 3.256-17.285 12.887-.03.1-.043.296.246.14 3.438-1.801 11.932.56 19.127.556.353 0 .307.151.144.226-4.345 2.08-9.22 1.682-10.908 3.957-1.818 2.447-2.556 4.128-.896 13.57.043.253.164.179.228.147 9.392-4.574 4.331-6.82 17.248-5.676.123.01.138.185.02.222-11.1 3.404-11.38 7.27-7.604 13.361.19.302.333.258.471.153 2.971-2.112 4.838-2.531 9.894-2.549.238 0 .416.074.237.277-1.572 1.77-2.037 3.169-1.192 8.487.061.398.245.318.39.195 3.49-2.952 10.09-6.637 16.52-5.078 7.521 1.829 21.972-3.756 25.162-11.865 3.578-9.112 50.06-49.354 67.107-63.268.69-.564 1.637-1.44 1.455-3.037-1.284-11.08-3.34-33.246-.752-40.631 4.367-12.443 18.255-49.712 59.115-70.34a1.51 1.51 0 0 0 .793-1.037c2.43-10.248 2.592-20.868-.12-28.76-.566-1.637 1.855-2.152 2.339-.612 3.73 11.903 2.389 28.746-3.752 41.66-1 2.096-1.292 3.708-.385 5.815 9.387 21.799 52.888 65.144 59.752 81.025 3.954 9.056 5.888 19.858 3.086 32.328-1.73 8.31-7.196 28.8-8.111 40.004a.61.61 0 0 1-.61.556c-35.892 0-32.773-6.026-38.869-6.603-6.395-.607-20.379 14.885-18.564 26.695.014.099.11.044.252-.049 5.903-3.977 9.277-7.003 12.236-7.805.181-.05.283.187.184.256-3.104 2.265-8.766 1.86-7.569 25.455.014.262.04.278.256.043 5.992-6.57 5.658-7.123 12.857-8.98.372-.097.344.108.317.215-1.037 4.048-2.772 5.137 2.265 14.949.244.473.531.268.67.164 6.77-4.946 4.123-7.305 13.18-11.72.386-.191.357.095.309.213-.486 1.203-2.121.485.424 12.152.04.174.23.426.591.1 3.243-2.944 8.77-8.758 15.367-11.22 3.273-1.225 5.28 3.035 7.1 1.581 15.962-12.738 16.363-10.553 22.775-27.213.984-2.56 2.001-6.147 1.7-8.406-.728-5.444 5.134-33.604 15.296-66.418 2.792-8.39 4.676-8.346 3.256-11.566-4.42-10.034-22.56-37.441-23.783-40.963-2.83-8.182 6.26-36.207 4.254-55.396 2.032 1.495 4.11 2.81 5.943 3.709 23.523 11.588 56.581-6.3 71.193-27.615 19.57-28.547 24.617-53.437 24.617-84.326 0-40.434-68.233-101.59-94.26-110.47-6.834-2.332-35.615-6.083-58.076 5.625a.521.521 0 0 0-.154.79l3.682 4.427a.513.513 0 0 0 .681.093c11.021-7.37 36.351-6.466 49.396-1.482 31.296 11.962 56.051 49.172 67.672 63 9.663 11.85 12.576 21.426 15.25 31.779 6.131 23.665-11.729 65.948-22.89 82.488-14.746 21.84-54.879 25.563-71.204-8.26-10.812-24.748-30.789-38.487-47.11-49.936-32.274-22.633-91.327-33.863-97.046-52.496-7.358-23.962 26.42-82.256 22.971-126.9 0 0-3.456-.89-5.04-1.29l-.778-.196c.89 15.874-3.714 27.307-13.002 34.184a1.396 1.396 0 0 1-1.65-.21c-.484-.485-.386-1.295.17-1.704 9.369-6.914 13.117-18.545 11.443-35.525 11.462 2.998 20.405 5.035 25.693 5.623 7.436.826 26.876-2.637 29.98 4.996.022.05.038.169.252.094 2.216-.773 23.304-7.436 23.828-7.596.548-.168.368-.353-.057-.457-18.99-4.636-31.853-17.27-49.746-22.518-11.486-3.37-21.407-.233-24.008-1.455-6.932-3.256-15.658-15.205-23.086-20.342-.502-.347-.93-.588-1.945-.604-7.679-.105-14.28-.248-19.965-.175zm-1.795 11.02c.314.046.61.165.881.367.467.347 9.27 6.705 11.637 8.673.315.26.234.442-.133.405-.323-.032-8.672-.847-10.662-1.045-.27-.024-.476-.218-.57-.512l-1.059-3.42c-.077-.248-.194-.39-.523-.338l-10.83 1.762a7.73 7.73 0 0 0-1.074 6.746 7.663 7.663 0 0 0 7.396 5.445 7.71 7.71 0 0 0 2.783-.515 1.251 1.251 0 0 1 1.514.5 1.211 1.211 0 0 1-.604 1.74 10.117 10.117 0 0 1-4.265.676 10.197 10.197 0 0 1-8.986-6.715 10.085 10.085 0 0 1 .21-7.385l-1.82.295c-1.306 1.861-3.303 4.998-4.156 6.233-.853 1.232-2.817.243-1.889-1.022.714-.973 3.76-5.114 5.133-6.978.411-.561.955-.99 1.688-1.176l14.342-3.67c.342-.087.674-.113.988-.067z"/>
  <path d="M225.09 162.93c-.918.007-2.618.946-2.326 1.473 1.82 3.28 20.269 23.828 22.178 25.178 1.712 1.212 18.152 5.029 21.152 5.029h.002c3 0 39.653-4.633 46.76-8.113.599-.295.287-1.424-.504-1.838-.791-.415-20.425-1.056-25.227-1.836-2.824-.46-40.974-7.985-42.832-8.7-1.86-.715-15-9.404-18.865-11.134a.818.818 0 0 0-.338-.059zm179.68 235.61c-.238-.013-.24.183-.004.293 16.23 7.56 25.071 12.23 35.201 19.484.348-4.666.167-9.176-.6-13.229-8.077-2.13-16.35-5.477-34.598-6.549z" fill="#f00000"/>
</svg>
