<?xml version="1.0" encoding="UTF-8"?>
<svg version="1.1" viewBox="0 0 615 707" xml:space="preserve" xmlns="http://www.w3.org/2000/svg"><g stroke="#000"><path d="m603.15 9.1773h-591.29l22.576 433.15c10.108 139.65 132.61 247.8 273.07 247.8s262.96-108.15 273.07-247.8z" fill="#f00000" stroke-width="7"/><path d="m603.15 9.1773h-591.29l22.576 433.15c10.108 139.65 132.61 247.8 273.07 247.8s262.96-108.15 273.07-247.8z" fill="none" stroke-width="7"/><path d="m116.76 325.88c-17.187 0-32.637 7.0227-47.699 14.045-12.572 5.8612-25.323 11.663-39.273 13.441l4.4492 85.346c12.237-2.3259 23.596-7.5525 34.824-12.787 15.063-7.0222 30.512-14.045 47.699-14.045s32.635 7.0227 47.697 14.045c15.217 7.0222 30.51 14.045 47.697 14.045 17.341-1.2e-4 32.637-7.0227 47.699-14.045 15.063-7.0222 30.511-14.045 47.697-14.045 17.341 1.2e-4 32.637 7.0227 47.699 14.045 15.063 7.0222 30.51 14.045 47.697 14.045s32.637-7.0227 47.699-14.045c15.217-7.0222 30.51-14.045 47.697-14.045 17.341 1.2e-4 32.635 7.0227 47.697 14.045 11.281 5.2059 22.609 10.397 34.715 12.742l4.4473-85.326c-13.796-1.8047-26.515-7.5796-39.162-13.416-15.063-7.0222-30.356-14.045-47.697-14.045-17.187 0-32.48 7.0227-47.697 14.045-15.063 7.0222-30.512 14.045-47.699 14.045s-32.635-7.0227-47.697-14.045c-15.063-7.0222-30.358-14.045-47.699-14.045-17.187 0-32.635 7.0227-47.697 14.045-15.063 7.0222-30.358 14.045-47.699 14.045-17.187 0-32.48-7.0227-47.697-14.045-15.063-7.0222-30.511-14.045-47.697-14.045z" fill="#fff" stroke-width="5"/></g><g transform="translate(3.5481)"><path d="m263.62 463.36c-12.513 0.1988-20.7 6.1632-28.887 16.059 15.165 1.7284 25.813 11.747 36.504 22.236l17.334-0.50781 6.5703-27.172s-18.712-9.8168-28.961-10.576c-0.87395-0.0385-1.7264-0.0523-2.5606-0.0391zm79.391 0c-0.42688 6e-3 -0.85795 0.0198-1.2949 0.0391-10.249 0.75933-28.961 10.576-28.961 10.576l6.5703 27.172 17.334 0.50781c10.691-10.489 21.339-20.508 36.504-22.236-8.4598-10.225-16.919-16.252-30.152-16.059z" fill="#fff" stroke="#000" stroke-width="4"/></g><path d="m258.67 493.31c-8.9158 13.69-18.392 23.799-32.578 31.258-12.4 6.5198-25.816 11.303-39.977 12.961-0.15526 13.921 6.7237 29.43 21.521 31.576 7.6309 16.473 15.958 23.951 32.908 25.158 8.4145 13.445 24.78 18.158 42.107 10.99 12.387 14.331 36.681 14.075 49.689 0 17.327 7.1681 33.693 2.4543 42.107-10.99 16.951-1.2076 25.277-8.6855 32.908-25.158 14.798-2.1462 21.677-17.655 21.521-31.576-14.16-1.6584-27.577-6.4412-39.977-12.961-14.186-7.459-23.662-17.568-32.578-31.258-20.248-20.56-22.351-47.103-48.828-46.748-28.033-0.39863-36.246 30.297-48.826 46.748z" fill="#fff" stroke="#000" stroke-width="4"/><path d="m284.52 482.51s-2.1002 5.081-5.8965 12.297c-4.0532 7.7042-9.1236 15.994-15.865 25.084-16.113 21.725-36.825 36.611-55.33 47.166-0.65244 0.37214-0.33399 2.4883-0.33399 2.4883s1.6452 1.3692 2.3164 0.98633c18.786-10.716 40.006-25.937 56.561-48.258 6.8113-9.1842 11.433-18.621 14.475-26.645 2.9347-7.7399 4.0742-13.119 4.0742-13.119zm44.533 0.49219s1.1376 5.3773 4.0723 13.117c3.0421 8.0231 7.6652 17.462 14.477 26.646 16.554 22.321 37.774 37.54 56.561 48.256 0.67117 0.38283 2.3164-0.98633 2.3164-0.98633s0.3165-2.1161-0.33594-2.4883c-18.506-10.555-39.216-25.439-55.328-47.164-6.7416-9.0896-11.812-17.38-15.865-25.084-3.7963-7.2159-5.8965-12.297-5.8965-12.297zm-35.83 18.258s-9.1739 19.108-18.123 38.055c-10.152 21.497-22.309 42.09-36.061 53.342-0.53157 0.43492 0.11718 2.4629 0.11718 2.4629s1.8114 1.1275 2.416 0.63281c14.231-11.644 26.938-33.119 37.145-54.73 9.0841-19.238 14.506-39.762 14.506-39.762zm26.635 0s5.4217 20.524 14.506 39.762c10.206 21.611 22.913 43.086 37.145 54.73 0.60461 0.49471 2.416-0.63281 2.416-0.63281s0.64876-2.028 0.11719-2.4629c-13.752-11.252-25.908-31.845-36.061-53.342-8.9492-18.946-18.123-38.055-18.123-38.055zm-20.676 19.09s-0.37919 4.0333-1.1738 9.9863c-0.94372 7.0698-1.9084 12.709-3.4512 21.65-3.2131 18.605-8.8176 36.023-13.848 52.854-0.1453 0.48615 1.627 1.541 1.627 1.541s2.0607 0.0865 2.2051-0.39649c5.0176-16.789 10.698-34.447 13.957-53.318 1.4208-8.2189 1.7133-15.939 1.5059-22.23-0.20051-6.0824-0.82227-10.086-0.82227-10.086zm15.863 0s-0.62176 4.0035-0.82227 10.086c-0.20741 6.2918 0.087 14.012 1.5078 22.23 3.2592 18.872 8.9375 36.53 13.955 53.318 0.14436 0.48301 2.207 0.39649 2.207 0.39649s1.7722-1.0549 1.627-1.541c-5.0301-16.83-10.635-34.249-13.848-52.854-1.5427-8.9416-2.5074-14.581-3.4512-21.65-0.79465-5.953-1.1758-9.9863-1.1758-9.9863z"/><g fill="#fff" stroke="#000" stroke-miterlimit="30" stroke-width="4"><path d="m116.24 168.01-0.11133 126.75h166.69v-65.688c1e-5 -1.8379 5.5203-8.5629 13.555-12.367h-55.225v-16.334h-15.443v16.334h-18.412v-16.334h-15.441v16.334h-15.736v-48.697zm322.62 0v48.697h-15.705v-16.334h-15.443v16.334h-18.412v-16.334h-15.441v16.334h-55.225c8.0344 3.8043 13.555 10.529 13.555 12.367v65.688h166.69l-0.14258-126.75z" stroke-linecap="square" stroke-opacity=".96439"/><path d="m260.19 138.26-10 156.6c4.9311-0.0836 36.814-0.11719 36.814-0.11719s0.12264-42.171-2e-3 -54.592c1.1e-4 -11.14 9.0487-20.172 20.211-20.172 11.162-1e-5 20.211 9.0315 20.211 20.172 0.16284 10.823 0.0742 54.629 0.0742 54.629s33.807 0.052 37.305 0.0801l-10-156.6h-94.613z" stroke-linecap="square"/><g stroke-linecap="round"><path d="m253.68 131.59h107.64v16.037h-107.64z"/><path d="m246.61 119.92h121.79v15.812h-121.79z"/><path d="m233.81 90.633v33.568h147.38v-33.568h-24.178v21.148h-19.025v-21.148h-20.975v21.148h-19.025v-21.148h-20.975v21.148h-19.025v-21.148h-24.176z"/></g></g><g transform="translate(-.52026)"><path d="m140.51 163.83v43.936h11.012v-43.936zm324 0v43.936h11.012v-43.936z" stroke-linecap="round" stroke-miterlimit="30" stroke-opacity=".656" stroke-width="3"/></g><g transform="translate(.46922)"><path d="m145.45 128.25-41.711 47.025h83.422l-41.711-47.025zm323.16 0-41.711 47.025h83.422l-41.711-47.025z" fill="#fd0" stroke="#000" stroke-linecap="round" stroke-miterlimit="30" stroke-width="4"/></g><path d="m339.42 294.78s0.27576-35.175-0.0682-58.039c-1.8e-4 -17.558-14.261-31.791-31.854-31.791h-1.2e-4c-17.592-2e-5 -31.853 14.233-31.854 31.791 0.26624 26.54-0.0684 58.039-0.0684 58.039" fill="none" stroke="#000" stroke-linecap="round" stroke-miterlimit="30" stroke-width="3"/><path d="m299.27 198.9 2.5098 21.584h11.445l2.5059-21.584zm-27.651 18.276 17.033 13.488 8.0918-8.0918-13.484-17.037zm59.252-11.641-13.486 17.037 8.0918 8.0918 17.033-13.488zm-62.895 29.268v10.871h19.061v-10.871zm59.129 0v10.871h19.918v-10.871zm-59.129 19.998v10.873h19.061v-10.873zm59.129 0v10.873h19.918v-10.873zm-59.129 20v10.873h19.061v-10.873zm59.129 0v10.873h19.918v-10.873z" fill="#fff" stroke="#000" stroke-linecap="round" stroke-miterlimit="30" stroke-width="2.8544"/></svg>
