<?xml version="1.0" encoding="UTF-8"?>
<svg version="1.1" viewBox="0 0 410 490" xmlns="http://www.w3.org/2000/svg"><g stroke="#000"><path d="m5,5v280a200,200 0 0,0 400,0V5z" fill="#fff" stroke-width="8"/><path d="m73.54 148.56c-25.642 0-46.427 20.786-46.427 46.427 0 27.795 24.609 44.33 24.609 68.541 0 24.252-19.66 43.912-43.912 43.912-0.77059 0-1.5243-0.0558-2.2827-0.0963a201.16 201.16 0 0 0 398.95-2e-3c-0.76574 0.0409-1.5272 0.0982-2.3024 0.0982-24.252-1e-5 -43.893-19.66-43.893-43.912 3e-5 -24.212 24.609-40.747 24.609-68.541 0-25.642-20.785-46.427-46.427-46.427-25.642 0-46.427 20.786-46.427 46.427 0 27.795 24.609 44.33 24.609 68.541 0 24.252-19.66 43.912-43.912 43.912-24.252-1e-5 -43.912-19.66-43.912-43.912 0-24.212 24.609-40.747 24.609-68.541-1e-5 -25.642-20.785-46.427-46.427-46.427-25.642 0-46.427 20.786-46.427 46.427-1e-5 27.795 24.609 44.33 24.609 68.541 0 24.252-19.66 43.912-43.912 43.912-24.252-1e-5 -43.912-19.66-43.912-43.912 0-24.212 24.609-40.747 24.609-68.541-1e-5 -25.642-20.785-46.427-46.427-46.427z" fill="#0092dd" stroke-linecap="round" stroke-linejoin="round" stroke-width="4"/><path d="m5,5v280a200,200 0 0,0 400,0V5z" fill="none" stroke-width="8"/></g></svg>
