<?xml version="1.0" encoding="UTF-8" standalone="no"?>
<svg
   xmlns:svg="http://www.w3.org/2000/svg"
   xmlns="http://www.w3.org/2000/svg"
   version="1.1"
   width="365.5625"
   height="458.375"
   id="svg3349">
  <defs
     id="defs3351" />
  <g
     transform="translate(-285.79018,-343.17468)"
     id="layer1">
    <path
       d="m 411.07142,396.33096 c 0,0 7.21789,7.24239 -0.71875,13.84375 0,0 3.34323,-12.34557 -9.3125,-13.1875 0,0 6.27328,5.95137 0.9375,11.625 0,0 -2.21451,-10.79541 -13.40625,-7.40625 0,0 4.84359,1.84894 4.125,7.28125 0,0 -5.05598,-5.7714 -12.34375,-1.40625 0,0 5.17049,0.71861 5.21875,5.25 0,0 -6.37524,-2.55377 -10.53125,2.03125 0,0 4.87826,-0.37531 6.9375,3.4375 0,0 6.35278,-11.6562 24.6875,-7.3125 5.06765,1.20122 9.33147,3.63586 11.75,5.25 l 0.59375,-2.375 c 3.56613,-17.01015 -7.9375,-17.03125 -7.9375,-17.03125 z m 79.65625,14.0625 c -1.96807,0 -3.59375,1.59443 -3.59375,3.5625 0,1.96807 1.62568,3.5625 3.59375,3.5625 1.97344,0 3.5625,-1.59443 3.5625,-3.5625 0,-1.96807 -1.58906,-3.5625 -3.5625,-3.5625 z m -34.65625,5.46875 0.90625,8.03125 3.65625,-5.3125 -4.5625,-2.71875 z m 4.5625,1.875 0.90625,8.03125 3.65625,-5.28125 -4.5625,-2.75 z m 5.53125,1.8125 0.90625,8.03125 3.65625,-5.28125 -4.5625,-2.75 z m 4.9375,0.96875 2.375,8.03125 3.65625,-5.28125 -6.03125,-2.75 z m -75.875,60.625 c -1.94679,0.10719 -3.34375,0.53125 -3.34375,0.53125 0,0 9.00711,2.93035 6.40625,12.59375 0,0 -3.44287,-12.51977 -14.84375,-7.125 0,0 8.20936,2.86089 6.90625,10.59375 0,0 -7.63103,-9.22105 -15.75,-0.8125 0,0 8.47332,0.54123 10.125,6.53125 0,0 -9.5757,-4.61086 -13.28125,4.3125 0,0 7.94003,-2.46372 9.84375,2.25 0,0 -8.54453,0.21427 -9.53125,7.25 0,0 5.90135,-2.58385 8.96875,-0.0312 0,0 0.90122,-15.09099 13.75,-20.4375 5.80233,-2.41317 9.85643,-1.66531 12.3125,-1.53125 l -0.0312,-2.40625 c -0.35024,-10.64375 -7.24832,-11.95457 -11.53125,-11.71875 z m 3.28125,120.59375 c -3.75449,0.1535 -6.9375,2.15625 -6.9375,2.15625 0,0 10.84212,1.03221 9.8125,11.5 0,0 -6.92333,-12.24231 -16.46875,-4 0,0 9.53106,1.27601 9.71875,9.0625 0,0 -10.0479,-7.52473 -15.625,2.75 0,0 8.94664,-0.9589 12.25,3.40625 0,0 -11.21575,-1.71332 -12.40625,7.875 0,0 6.97364,-4.47553 10.0625,-0.4375 0,0 -8.63984,2.23276 -7.21875,9.53125 0,0 4.33122,-5.05646 8.75,-3.09375 0,0 -1.37529,-16.19783 7.6875,-22.71875 5.08374,-3.66265 9.00824,-4.73299 11.4375,-4.78125 l -0.65625,-2.3125 c -2.31396,-7.39234 -6.65176,-9.091 -10.40625,-8.9375 z m 93,21.21875 c -6.26483,0.19816 -9.625,7.1875 -9.625,7.1875 0,0 9.82567,-4.73975 14.4375,4.5 0,0 -12.39356,-6.68548 -16.09375,5.375 0,0 8.7617,-3.9941 13.0625,2.5 0,0 -12.52129,-1.04401 -11.78125,10.625 0,0 7.07158,-5.57162 12.1875,-3.625 0,0 -10.40416,4.56074 -6.3125,13.3125 0,0 3.54515,-7.52502 8.3125,-5.75 0,0 -6.1516,6.4793 -1.0625,11.90625 0,0 1.26211,-4.52918 4.28125,-5.6875 0,0 -7.73553,-14.3743 -3.53125,-24.71875 2.35954,-5.80769 4.56133,-8.98258 6.59375,-10.3125 l -1.78125,-1.625 c -3.31358,-2.82793 -6.23604,-3.76504 -8.6875,-3.6875 z"
       id="path42"
       style="fill:#000000;fill-opacity:1;fill-rule:nonzero;stroke:none" />
    <path
       d="m 515.57143,390.33096 c -2.58249,0.0618 -5.93083,1.18549 -7.65625,5.90625 l -0.28125,1.3125 c -2.05387,-0.60597 -7.2773,-1.0625 -9.40625,-1.0625 -1.75357,0 -6.01837,0.0461 -9.90625,3.875 0,0 -3.02983,3.12573 -7.0625,3.28125 -2.12895,0.0804 -5.48178,-0.16197 -8.46875,-0.6875 l -15.5625,-2.625 c 0,0 -4.55874,-0.72226 -6.5,-0.78125 -1.15296,-0.0322 -1.26239,0.81008 -1.375,1.4375 0,0 -0.37759,2.28318 -0.46875,5.65625 -0.20378,7.27704 3.0334,9.50827 5.3125,11.03125 2.27374,1.51761 13.66805,4.55063 20.5,5.6875 6.82658,1.14223 12.33705,3.85847 13.65625,6.0625 0.53626,0.89555 1.07619,2.92116 0.78125,4.9375 -3.27118,-0.45046 -30.97994,-5.01752 -45.4375,-12.375 0,0 -7.30145,-2.84968 -5.875,-8.4375 0,0 1.77112,-4.88265 6.46875,-2.625 0,0 -1.62986,-12.63146 -11.78125,-7.15625 0,0 -9.73178,6.71013 -1.3125,16.0625 0,0 2.26786,4.41648 16.3125,8.40625 13.59954,3.85571 38.03097,7.9926 40.9375,8.25 -1.38355,2.58477 -4.92505,4.3575 -12.78125,2.25 0,0 -24.0889,-6.05602 -25.34375,-6.28125 -0.11261,-0.0214 -0.21061,-0.005 -0.3125,0 -0.0536,0.92237 0.0693,2.69281 1.28125,4.5 1.15832,0.84729 2.74828,1.73573 4.4375,2.59375 15.34239,7.1966 32.87767,14.59966 47.8125,14.9375 1.00281,0.0214 1.8027,0.86683 1.78125,1.875 -0.0214,1.00817 -0.86683,1.80806 -1.875,1.78125 -8.45145,-0.19305 -17.57201,-2.51099 -26.65625,-5.75 -1.63023,0.5738 -3.44798,1.21799 -5.4375,1.96875 -2.92261,0.80975 -5.80983,2.1048 -8.4375,3.53125 -0.97063,0.47191 -1.82339,0.94063 -2.53125,1.375 -0.17697,0.10725 -0.52311,0.22041 -0.625,0.34375 -1.59805,0.98672 -2.997,1.95892 -4.1875,2.84375 -2.99233,2.7242 -5.4783,5.45906 -7.5,7.96875 -0.17608,0.21645 -0.36291,0.40715 -0.53125,0.625 -0.0697,0.0858 -0.11779,0.19009 -0.1875,0.28125 -0.38611,0.49336 -0.77643,0.99148 -1.125,1.46875 -0.059,0.0804 -0.0973,0.13295 -0.15625,0.21875 -0.27349,0.37002 -0.53457,0.76571 -0.78125,1.125 -0.11261,0.15015 -0.2365,0.28735 -0.34375,0.4375 -0.20914,0.30031 -0.4007,0.61667 -0.59375,0.90625 -0.0804,0.12334 -0.16956,0.25166 -0.25,0.375 -0.23595,0.36466 -0.44175,0.72466 -0.65625,1.0625 -0.10725,0.16624 -0.21597,0.30787 -0.3125,0.46875 -0.11798,0.19305 -0.23114,0.38017 -0.34375,0.5625 -0.0912,0.16088 -0.19545,0.3186 -0.28125,0.46875 -0.11798,0.19842 -0.21061,0.38017 -0.3125,0.5625 -0.1287,0.21987 -0.2365,0.42658 -0.34375,0.625 -0.0751,0.1287 -0.1544,0.28291 -0.21875,0.40625 -0.0643,0.1287 -0.12315,0.22577 -0.1875,0.34375 -0.059,0.11261 -0.10262,0.21061 -0.15625,0.3125 -0.0483,0.0912 -0.11335,0.20081 -0.15625,0.28125 -0.0751,0.16088 -0.13387,0.28827 -0.1875,0.40625 -0.0322,0.0643 -0.0411,0.10799 -0.0625,0.15625 -0.0375,0.0751 -0.0723,0.13924 -0.0937,0.1875 -0.0161,0.0375 -0.0205,0.0669 -0.0312,0.0937 -0.0214,0.0536 -0.0625,0.0937 -0.0625,0.0937 -0.27778,0.87476 -1.17365,1.43502 -2.09375,1.25 -0.98672,-0.19842 -1.63592,-1.16953 -1.4375,-2.15625 0.0107,-0.0483 0.0562,-0.12222 0.0937,-0.21875 0.0107,-0.0322 0.0205,-0.0875 0.0312,-0.125 0.0322,-0.0804 0.0508,-0.14811 0.0937,-0.25 0.0268,-0.0536 0.0669,-0.12315 0.0937,-0.1875 0.0483,-0.10189 0.0973,-0.22577 0.15625,-0.34375 0.0375,-0.0804 0.0821,-0.1642 0.125,-0.25 0.059,-0.1287 0.11242,-0.26146 0.1875,-0.40625 0.0483,-0.10189 0.10262,-0.20525 0.15625,-0.3125 0.0804,-0.16088 0.18472,-0.32303 0.28125,-0.5 0.059,-0.11261 0.0919,-0.22577 0.15625,-0.34375 0.10725,-0.20378 0.25166,-0.43102 0.375,-0.65625 0.059,-0.10189 0.0919,-0.19989 0.15625,-0.3125 0.17697,-0.30567 0.38997,-0.63091 0.59375,-0.96875 0.0161,-0.0322 0.01,-0.0562 0.0312,-0.0937 0.23059,-0.38611 0.48187,-0.76922 0.75,-1.1875 0.0214,-0.0375 0.0411,-0.0875 0.0625,-0.125 0.23595,-0.37538 0.48723,-0.75942 0.75,-1.15625 0.0643,-0.10189 0.14904,-0.21061 0.21875,-0.3125 0.23059,-0.34321 0.46671,-0.70857 0.71875,-1.0625 0.0858,-0.12334 0.1642,-0.25166 0.25,-0.375 0.24668,-0.34857 0.51312,-0.69784 0.78125,-1.0625 0.0912,-0.1287 0.18472,-0.2463 0.28125,-0.375 0.28422,-0.38074 0.57469,-0.76478 0.875,-1.15625 0.0912,-0.11798 0.19009,-0.22577 0.28125,-0.34375 0.33784,-0.42901 0.67196,-0.87277 1.03125,-1.3125 0.0643,-0.0804 0.14904,-0.16956 0.21875,-0.25 1.34065,-1.6195 2.84739,-3.27417 4.53125,-4.96875 l -32.7811,-19.6562 c 0,0 -5.17138,-3.33541 -6.09375,-9.78125 0,0 -0.73226,-6.98747 5.53125,-11.40625 0,0 -25.64619,-16.99641 -33.78125,4.0625 0,0 -5.26072,11.66725 6.15625,26.3125 l 41.90625,48 c 0.13406,0.40756 0.43712,0.81656 0.8125,1.21875 l 33.15625,-22.21875 c 0.83656,-0.56307 1.96818,-0.33656 2.53125,0.5 0.55771,0.83656 0.33656,1.96818 -0.5,2.53125 l -39.21875,26.28125 c -0.0375,0.0215 -0.0875,0.041 -0.125,0.0625 -5.59855,4.01658 -9.24343,4.63927 -12.1875,3.78125 -9.80819,-2.86363 -7.28125,-11.8125 -7.28125,-11.8125 -17.62685,-2.94943 -26.82685,14.43555 -23.25,23.375 5.21781,13.06328 21.13429,15.17237 31.3125,14.25 12.52702,-1.14223 40.59375,-9.09375 40.59375,-9.09375 l 16.78125,18.125 c 2.25765,2.30055 4.46703,4.5153 6.15625,6.15625 0.72395,0.69714 0.765,1.83855 0.0625,2.5625 -0.7025,0.72395 -1.8698,0.75964 -2.59375,0.0625 -2.54187,-2.46143 -6.22253,-6.21975 -9.53125,-9.625 l -5,-5.03125 c 0,0 -19.15376,15.86006 -27.75,32.3125 l 0.0625,0 c -6.48338,12.41441 -6.25,34 -6.25,34 0,0 -0.03,22.31065 -9.125,22.375 -8.82683,0.0697 -9.3125,-12.21875 -9.3125,-12.21875 -15.48718,2.99769 -15.25,16.21875 -15.25,16.21875 -0.98136,20.13655 20.27264,20.17053 41.03125,24.5625 0,0 22.84836,-57.46294 52.5625,-65.8125 l 0.40625,-0.46875 c -3.53395,-8.20477 -7.10178,-25.09763 6.9375,-48.5 0.52017,-0.86338 1.63662,-1.14517 2.5,-0.625 0.86338,0.51481 1.14517,1.63662 0.625,2.5 -16.76884,27.94985 -6.98103,45.64541 -4.5625,49.28125 7.88838,10.47315 26.07211,34.598 26.28125,34.8125 l 1.28125,1.71875 c 0.92237,1.62487 1.4568,3.98772 -0.84375,6.40625 -2.61158,2.74565 -5.51862,1.85026 -7.40625,0.71875 l -8.28125,-6.5 c 0,0 -11.7351,12.04614 -3.5625,26.375 7.86693,13.79796 22.91433,5.76094 24.625,4.65625 1.70531,-1.11006 27.625,-26.46875 27.625,-26.46875 0,0 -4.58485,-30.19716 -5.4375,-34.75 -0.85265,-4.55284 -4.71875,-31.125 -4.71875,-31.125 0,0 1.36147,-0.2901 2.375,-1.25 1.08324,-1.02962 1.54012,-2.23331 1.59375,-3.71875 0.20378,-5.29288 -1.01175,-12.14264 -9.65625,-27.28125 -4.3008,-7.51836 -12.30319,-21.69496 -14.4375,-37.1875 -1.405,-10.21038 -0.93407,-22.8534 1.84375,-33.5625 3.43742,-13.2617 7.41686,-18.1387 11.03125,-29.25 3.85034,-11.07912 1.1951,-21.93284 0.75,-23 2.12895,-1.06716 9.88397,-9.87681 1.0625,-16.875 -2.5526,-2.02706 -10.46624,-3.04275 -13.8125,3.875 l -0.125,-0.0625 c -0.15202,0.16048 -0.35707,0.25 -0.59375,0.25 -0.46118,0 -0.8125,-0.35132 -0.8125,-0.8125 0,-0.0201 -10e-4,-0.0428 0,-0.0625 l -0.15625,-0.0937 c 0,0 2.52408,-8.50863 -4.46875,-10.5625 0,0 -1.5539,-0.5793 -3.5625,-0.53125 z m -22.5,17 c 3.37844,0 6.125,2.74656 6.125,6.125 0,3.37844 -2.74656,6.125 -6.125,6.125 -3.37844,0 -6.125,-2.74656 -6.125,-6.125 0,-3.37844 2.74656,-6.125 6.125,-6.125 z"
       id="path66"
       style="fill:#e53527;fill-opacity:1;fill-rule:nonzero;stroke:none" />
    <path
       d="m 286.79018,344.17468 0,19.34375 36.75,0 0,-19.34375 -36.75,0 z m 108.96875,0 0,19.34375 36.75,0 0,-19.34375 -36.75,0 z m 108.9375,0 0,19.34375 36.75,0 0,-19.34375 -36.75,0 z m 108.9375,0 0,19.34375 36.71875,0 0,-19.34375 -36.71875,0 z m -326.84375,146.96875 0,0.0625 c 0,161.14601 164.29382,295.51362 181.78125,309.34375 17.48743,-13.8355 181.78125,-148.19774 181.78125,-309.34375 l 0,-0.0625 -32.625,0 c -4.19891,147.57328 -149.15625,267.46875 -149.15625,267.46875 0,0 -144.92609,-119.89547 -149.125,-267.46875 l -32.65625,0 z"
       id="path100"
       style="fill:#000000;fill-opacity:1;fill-rule:nonzero;stroke:none" />
    <path
       d="m 411.07142,396.33096 c 0,0 7.21789,7.24239 -0.71875,13.84375 0,0 3.34323,-12.34557 -9.3125,-13.1875 0,0 6.27328,5.95137 0.9375,11.625 0,0 -2.21451,-10.79541 -13.40625,-7.40625 0,0 4.84359,1.84894 4.125,7.28125 0,0 -5.05598,-5.7714 -12.34375,-1.40625 0,0 5.17049,0.71861 5.21875,5.25 0,0 -6.37524,-2.55377 -10.53125,2.03125 0,0 4.87826,-0.37531 6.9375,3.4375 0,0 6.35278,-11.6562 24.6875,-7.3125 5.06765,1.20122 9.33147,3.63586 11.75,5.25 l 0.59375,-2.375 c 3.56613,-17.01015 -7.9375,-17.03125 -7.9375,-17.03125 z m 79.65625,14.0625 c -1.96807,0 -3.59375,1.59443 -3.59375,3.5625 0,1.96807 1.62568,3.5625 3.59375,3.5625 1.97344,0 3.5625,-1.59443 3.5625,-3.5625 0,-1.96807 -1.58906,-3.5625 -3.5625,-3.5625 z m -34.65625,5.46875 0.90625,8.03125 3.65625,-5.3125 -4.5625,-2.71875 z m 4.5625,1.875 0.90625,8.03125 3.65625,-5.28125 -4.5625,-2.75 z m 5.53125,1.8125 0.90625,8.03125 3.65625,-5.28125 -4.5625,-2.75 z m 4.9375,0.96875 2.375,8.03125 3.65625,-5.28125 -6.03125,-2.75 z m -75.875,60.625 c -1.94679,0.10719 -3.34375,0.53125 -3.34375,0.53125 0,0 9.00711,2.93035 6.40625,12.59375 0,0 -3.44287,-12.51977 -14.84375,-7.125 0,0 8.20936,2.86089 6.90625,10.59375 0,0 -7.63103,-9.22105 -15.75,-0.8125 0,0 8.47332,0.54123 10.125,6.53125 0,0 -9.5757,-4.61086 -13.28125,4.3125 0,0 7.94003,-2.46372 9.84375,2.25 0,0 -8.54453,0.21427 -9.53125,7.25 0,0 5.90135,-2.58385 8.96875,-0.0312 0,0 0.90122,-15.09099 13.75,-20.4375 5.80233,-2.41317 9.85643,-1.66531 12.3125,-1.53125 l -0.0312,-2.40625 c -0.35024,-10.64375 -7.24832,-11.95457 -11.53125,-11.71875 z m 3.28125,120.59375 c -3.75449,0.1535 -6.9375,2.15625 -6.9375,2.15625 0,0 10.84212,1.03221 9.8125,11.5 0,0 -6.92333,-12.24231 -16.46875,-4 0,0 9.53106,1.27601 9.71875,9.0625 0,0 -10.0479,-7.52473 -15.625,2.75 0,0 8.94664,-0.9589 12.25,3.40625 0,0 -11.21575,-1.71332 -12.40625,7.875 0,0 6.97364,-4.47553 10.0625,-0.4375 0,0 -8.63984,2.23276 -7.21875,9.53125 0,0 4.33122,-5.05646 8.75,-3.09375 0,0 -1.37529,-16.19783 7.6875,-22.71875 5.08374,-3.66265 9.00824,-4.73299 11.4375,-4.78125 l -0.65625,-2.3125 c -2.31396,-7.39234 -6.65176,-9.091 -10.40625,-8.9375 z m 93,21.21875 c -6.26483,0.19816 -9.625,7.1875 -9.625,7.1875 0,0 9.82567,-4.73975 14.4375,4.5 0,0 -12.39356,-6.68548 -16.09375,5.375 0,0 8.7617,-3.9941 13.0625,2.5 0,0 -12.52129,-1.04401 -11.78125,10.625 0,0 7.07158,-5.57162 12.1875,-3.625 0,0 -10.40416,4.56074 -6.3125,13.3125 0,0 3.54515,-7.52502 8.3125,-5.75 0,0 -6.1516,6.4793 -1.0625,11.90625 0,0 1.26211,-4.52918 4.28125,-5.6875 0,0 -7.73553,-14.3743 -3.53125,-24.71875 2.35954,-5.80769 4.56133,-8.98258 6.59375,-10.3125 l -1.78125,-1.625 c -3.31358,-2.82793 -6.23604,-3.76504 -8.6875,-3.6875 z"
       id="path3368"
       style="fill:#000000;fill-opacity:1;fill-rule:nonzero;stroke:none" />
    <path
       d="m 515.57143,390.33096 c -2.58249,0.0618 -5.93083,1.18549 -7.65625,5.90625 l -0.28125,1.3125 c -2.05387,-0.60597 -7.2773,-1.0625 -9.40625,-1.0625 -1.75357,0 -6.01837,0.0461 -9.90625,3.875 0,0 -3.02983,3.12573 -7.0625,3.28125 -2.12895,0.0804 -5.48178,-0.16197 -8.46875,-0.6875 l -15.5625,-2.625 c 0,0 -4.55874,-0.72226 -6.5,-0.78125 -1.15296,-0.0322 -1.26239,0.81008 -1.375,1.4375 0,0 -0.37759,2.28318 -0.46875,5.65625 -0.20378,7.27704 3.0334,9.50827 5.3125,11.03125 2.27374,1.51761 13.66805,4.55063 20.5,5.6875 6.82658,1.14223 12.33705,3.85847 13.65625,6.0625 0.53626,0.89555 1.07619,2.92116 0.78125,4.9375 -3.27118,-0.45046 -30.97994,-5.01752 -45.4375,-12.375 0,0 -7.30145,-2.84968 -5.875,-8.4375 0,0 1.77112,-4.88265 6.46875,-2.625 0,0 -1.62986,-12.63146 -11.78125,-7.15625 0,0 -9.73178,6.71013 -1.3125,16.0625 0,0 2.26786,4.41648 16.3125,8.40625 13.59954,3.85571 38.03097,7.9926 40.9375,8.25 -1.38355,2.58477 -4.92505,4.3575 -12.78125,2.25 0,0 -24.0889,-6.05602 -25.34375,-6.28125 -0.11261,-0.0214 -0.21061,-0.005 -0.3125,0 -0.0536,0.92237 0.0693,2.69281 1.28125,4.5 1.15832,0.84729 2.74828,1.73573 4.4375,2.59375 15.34239,7.1966 32.87767,14.59966 47.8125,14.9375 1.00281,0.0214 1.8027,0.86683 1.78125,1.875 -0.0214,1.00817 -0.86683,1.80806 -1.875,1.78125 -8.45145,-0.19305 -17.57201,-2.51099 -26.65625,-5.75 -1.63023,0.5738 -3.44798,1.21799 -5.4375,1.96875 -2.92261,0.80975 -5.80983,2.1048 -8.4375,3.53125 -0.97063,0.47191 -1.82339,0.94063 -2.53125,1.375 -0.17697,0.10725 -0.52311,0.22041 -0.625,0.34375 -1.59805,0.98672 -2.997,1.95892 -4.1875,2.84375 -2.99233,2.7242 -5.4783,5.45906 -7.5,7.96875 -0.17608,0.21645 -0.36291,0.40715 -0.53125,0.625 -0.0697,0.0858 -0.11779,0.19009 -0.1875,0.28125 -0.38611,0.49336 -0.77643,0.99148 -1.125,1.46875 -0.059,0.0804 -0.0973,0.13295 -0.15625,0.21875 -0.27349,0.37002 -0.53457,0.76571 -0.78125,1.125 -0.11261,0.15015 -0.2365,0.28735 -0.34375,0.4375 -0.20914,0.30031 -0.4007,0.61667 -0.59375,0.90625 -0.0804,0.12334 -0.16956,0.25166 -0.25,0.375 -0.23595,0.36466 -0.44175,0.72466 -0.65625,1.0625 -0.10725,0.16624 -0.21597,0.30787 -0.3125,0.46875 -0.11798,0.19305 -0.23114,0.38017 -0.34375,0.5625 -0.0912,0.16088 -0.19545,0.3186 -0.28125,0.46875 -0.11798,0.19842 -0.21061,0.38017 -0.3125,0.5625 -0.1287,0.21987 -0.2365,0.42658 -0.34375,0.625 -0.0751,0.1287 -0.1544,0.28291 -0.21875,0.40625 -0.0643,0.1287 -0.12315,0.22577 -0.1875,0.34375 -0.059,0.11261 -0.10262,0.21061 -0.15625,0.3125 -0.0483,0.0912 -0.11335,0.20081 -0.15625,0.28125 -0.0751,0.16088 -0.13387,0.28827 -0.1875,0.40625 -0.0322,0.0643 -0.0411,0.10799 -0.0625,0.15625 -0.0375,0.0751 -0.0723,0.13924 -0.0937,0.1875 -0.0161,0.0375 -0.0205,0.0669 -0.0312,0.0937 -0.0214,0.0536 -0.0625,0.0937 -0.0625,0.0937 -0.27778,0.87476 -1.17365,1.43502 -2.09375,1.25 -0.98672,-0.19842 -1.63592,-1.16953 -1.4375,-2.15625 0.0107,-0.0483 0.0562,-0.12222 0.0937,-0.21875 0.0107,-0.0322 0.0205,-0.0875 0.0312,-0.125 0.0322,-0.0804 0.0508,-0.14811 0.0937,-0.25 0.0268,-0.0536 0.0669,-0.12315 0.0937,-0.1875 0.0483,-0.10189 0.0973,-0.22577 0.15625,-0.34375 0.0375,-0.0804 0.0821,-0.1642 0.125,-0.25 0.059,-0.1287 0.11242,-0.26146 0.1875,-0.40625 0.0483,-0.10189 0.10262,-0.20525 0.15625,-0.3125 0.0804,-0.16088 0.18472,-0.32303 0.28125,-0.5 0.059,-0.11261 0.0919,-0.22577 0.15625,-0.34375 0.10725,-0.20378 0.25166,-0.43102 0.375,-0.65625 0.059,-0.10189 0.0919,-0.19989 0.15625,-0.3125 0.17697,-0.30567 0.38997,-0.63091 0.59375,-0.96875 0.0161,-0.0322 0.01,-0.0562 0.0312,-0.0937 0.23059,-0.38611 0.48187,-0.76922 0.75,-1.1875 0.0214,-0.0375 0.0411,-0.0875 0.0625,-0.125 0.23595,-0.37538 0.48723,-0.75942 0.75,-1.15625 0.0643,-0.10189 0.14904,-0.21061 0.21875,-0.3125 0.23059,-0.34321 0.46671,-0.70857 0.71875,-1.0625 0.0858,-0.12334 0.1642,-0.25166 0.25,-0.375 0.24668,-0.34857 0.51312,-0.69784 0.78125,-1.0625 0.0912,-0.1287 0.18472,-0.2463 0.28125,-0.375 0.28422,-0.38074 0.57469,-0.76478 0.875,-1.15625 0.0912,-0.11798 0.19009,-0.22577 0.28125,-0.34375 0.33784,-0.42901 0.67196,-0.87277 1.03125,-1.3125 0.0643,-0.0804 0.14904,-0.16956 0.21875,-0.25 1.34065,-1.6195 2.84739,-3.27417 4.53125,-4.96875 l -32.7811,-19.6562 c 0,0 -5.17138,-3.33541 -6.09375,-9.78125 0,0 -0.73226,-6.98747 5.53125,-11.40625 0,0 -25.64619,-16.99641 -33.78125,4.0625 0,0 -5.26072,11.66725 6.15625,26.3125 l 41.90625,48 c 0.13406,0.40756 0.43712,0.81656 0.8125,1.21875 l 33.15625,-22.21875 c 0.83656,-0.56307 1.96818,-0.33656 2.53125,0.5 0.55771,0.83656 0.33656,1.96818 -0.5,2.53125 l -39.21875,26.28125 c -0.0375,0.0215 -0.0875,0.041 -0.125,0.0625 -5.59855,4.01658 -9.24343,4.63927 -12.1875,3.78125 -9.80819,-2.86363 -7.28125,-11.8125 -7.28125,-11.8125 -17.62685,-2.94943 -26.82685,14.43555 -23.25,23.375 5.21781,13.06328 21.13429,15.17237 31.3125,14.25 12.52702,-1.14223 40.59375,-9.09375 40.59375,-9.09375 l 16.78125,18.125 c 2.25765,2.30055 4.46703,4.5153 6.15625,6.15625 0.72395,0.69714 0.765,1.83855 0.0625,2.5625 -0.7025,0.72395 -1.8698,0.75964 -2.59375,0.0625 -2.54187,-2.46143 -6.22253,-6.21975 -9.53125,-9.625 l -5,-5.03125 c 0,0 -19.15376,15.86006 -27.75,32.3125 l 0.0625,0 c -6.48338,12.41441 -6.25,34 -6.25,34 0,0 -0.03,22.31065 -9.125,22.375 -8.82683,0.0697 -9.3125,-12.21875 -9.3125,-12.21875 -15.48718,2.99769 -15.25,16.21875 -15.25,16.21875 -0.98136,20.13655 20.27264,20.17053 41.03125,24.5625 0,0 22.84836,-57.46294 52.5625,-65.8125 l 0.40625,-0.46875 c -3.53395,-8.20477 -7.10178,-25.09763 6.9375,-48.5 0.52017,-0.86338 1.63662,-1.14517 2.5,-0.625 0.86338,0.51481 1.14517,1.63662 0.625,2.5 -16.76884,27.94985 -6.98103,45.64541 -4.5625,49.28125 7.88838,10.47315 26.07211,34.598 26.28125,34.8125 l 1.28125,1.71875 c 0.92237,1.62487 1.4568,3.98772 -0.84375,6.40625 -2.61158,2.74565 -5.51862,1.85026 -7.40625,0.71875 l -8.28125,-6.5 c 0,0 -11.7351,12.04614 -3.5625,26.375 7.86693,13.79796 22.91433,5.76094 24.625,4.65625 1.70531,-1.11006 27.625,-26.46875 27.625,-26.46875 0,0 -4.58485,-30.19716 -5.4375,-34.75 -0.85265,-4.55284 -4.71875,-31.125 -4.71875,-31.125 0,0 1.36147,-0.2901 2.375,-1.25 1.08324,-1.02962 1.54012,-2.23331 1.59375,-3.71875 0.20378,-5.29288 -1.01175,-12.14264 -9.65625,-27.28125 -4.3008,-7.51836 -12.30319,-21.69496 -14.4375,-37.1875 -1.405,-10.21038 -0.93407,-22.8534 1.84375,-33.5625 3.43742,-13.2617 7.41686,-18.1387 11.03125,-29.25 3.85034,-11.07912 1.1951,-21.93284 0.75,-23 2.12895,-1.06716 9.88397,-9.87681 1.0625,-16.875 -2.5526,-2.02706 -10.46624,-3.04275 -13.8125,3.875 l -0.125,-0.0625 c -0.15202,0.16048 -0.35707,0.25 -0.59375,0.25 -0.46118,0 -0.8125,-0.35132 -0.8125,-0.8125 0,-0.0201 -10e-4,-0.0428 0,-0.0625 l -0.15625,-0.0937 c 0,0 2.52408,-8.50863 -4.46875,-10.5625 0,0 -1.5539,-0.5793 -3.5625,-0.53125 z m -22.5,17 c 3.37844,0 6.125,2.74656 6.125,6.125 0,3.37844 -2.74656,6.125 -6.125,6.125 -3.37844,0 -6.125,-2.74656 -6.125,-6.125 0,-3.37844 2.74656,-6.125 6.125,-6.125 z"
       id="path3370"
       style="fill:#e53527;fill-opacity:1;fill-rule:nonzero;stroke:none" />
    <path
       d="m 286.79018,344.17468 0,19.34375 36.75,0 0,-19.34375 -36.75,0 z m 108.96875,0 0,19.34375 36.75,0 0,-19.34375 -36.75,0 z m 108.9375,0 0,19.34375 36.75,0 0,-19.34375 -36.75,0 z m 108.9375,0 0,19.34375 36.71875,0 0,-19.34375 -36.71875,0 z m -326.84375,146.96875 0,0.0625 c 0,161.14601 164.29382,295.51362 181.78125,309.34375 17.48743,-13.8355 181.78125,-148.19774 181.78125,-309.34375 l 0,-0.0625 -32.625,0 c -4.19891,147.57328 -149.15625,267.46875 -149.15625,267.46875 0,0 -144.92609,-119.89547 -149.125,-267.46875 l -32.65625,0 z"
       id="path3372"
       style="fill:#000000;fill-opacity:1;fill-rule:nonzero;stroke:none" />
  </g>
</svg>
