<?xml version="1.0" encoding="UTF-8"?>
<svg width="500.32" height="579" version="1.1" xmlns="http://www.w3.org/2000/svg">
 <path d="M3.653 3.482h493.06l-5.295 121.53-9.72 223.39c-.4 125.51-103.46 227.15-230.54 227.15s-230.14-101.64-230.53-227.15z" fill="#fff"/>
 <path d="M365.15 497.7c-24.594 0-24.594 15.25-49.21 15.25-24.522 0-24.522-15.25-49.045-15.25-24.594 0-24.594 15.25-49.186 15.25-24.594 0-24.594-15.25-49.186-15.25-24.617 0-24.617 15.25-49.21 15.25-22.028 0-24.38-12.19-42.221-14.78-2.114-.305 47.635 41.633 49.588 41.35 17.534-2.706 19.98-14.732 41.845-14.732 24.593 0 24.593 15.25 49.185 15.25 24.594 0 24.594-15.25 49.186-15.25 24.522 0 24.522 15.25 49.046 15.25 24.617 0 24.617-15.25 49.209-15.25 10.684 0 16.732 2.894 22.169 6.142 1.765 1.035 23.346-18.075 21.699-18.262-19.417-2.024-21.181-14.968-43.868-14.968" fill="#fff"/>
 <path d="M365.15 497.7c-24.594 0-24.594 15.25-49.21 15.25-24.522 0-24.522-15.25-49.045-15.25-24.594 0-24.594 15.25-49.186 15.25-24.594 0-24.594-15.25-49.186-15.25-24.617 0-24.617 15.25-49.21 15.25-22.028 0-24.38-12.19-42.221-14.78-2.114-.305 47.635 41.633 49.588 41.35 17.534-2.706 19.98-14.732 41.845-14.732 24.593 0 24.593 15.25 49.185 15.25 24.594 0 24.594-15.25 49.186-15.25 24.522 0 24.522 15.25 49.046 15.25 24.617 0 24.617-15.25 49.209-15.25 10.684 0 16.732 2.894 22.169 6.142 1.765 1.035 23.346-18.075 21.699-18.262-19.417-2.024-21.181-14.968-43.868-14.968z" fill="none" stroke="#000" stroke-width="3.6"/>
 <path d="M463.471 389.274c-24.547 0-24.547 15.25-49.116 15.25-24.593 0-24.593-15.25-49.209-15.25-24.594 0-24.594 15.25-49.21 15.25-24.521 0-24.521-15.25-49.044-15.25-24.594 0-24.594 15.25-49.186 15.25-24.594 0-24.594-15.25-49.186-15.25-24.617 0-24.617 15.25-49.21 15.25-24.64 0-24.64-15.25-49.282-15.25-21.374 0-24.214 11.461-40.676 14.52-1.24.213 6.893 25.158 8.72 24.312 9.698-4.495 14.983-11.72 31.956-11.72 24.643 0 24.643 15.25 49.283 15.25 24.594 0 24.594-15.25 49.21-15.25 24.593 0 24.593 15.25 49.185 15.25 24.594 0 24.594-15.25 49.186-15.25 24.522 0 24.522 15.25 49.045 15.25 24.617 0 24.617-15.25 49.21-15.25 24.617 0 24.617 15.25 49.209 15.25 24.57 0 24.57-15.25 49.115-15.25 2.613 0 4.919.165 7.014.47 1.647.26 6.942-25.416 5.53-25.84-3.412-1.06-7.437-1.742-12.544-1.742" fill="#fff"/>
 <path d="M463.471 389.274c-24.547 0-24.547 15.25-49.116 15.25-24.593 0-24.593-15.25-49.209-15.25-24.594 0-24.594 15.25-49.21 15.25-24.521 0-24.521-15.25-49.044-15.25-24.594 0-24.594 15.25-49.186 15.25-24.594 0-24.594-15.25-49.186-15.25-24.617 0-24.617 15.25-49.21 15.25-24.64 0-24.64-15.25-49.282-15.25-21.374 0-24.214 11.461-40.676 14.52-1.24.213 6.893 25.158 8.72 24.312 9.698-4.495 14.983-11.72 31.956-11.72 24.643 0 24.643 15.25 49.283 15.25 24.594 0 24.594-15.25 49.21-15.25 24.593 0 24.593 15.25 49.185 15.25 24.594 0 24.594-15.25 49.186-15.25 24.522 0 24.522 15.25 49.045 15.25 24.617 0 24.617-15.25 49.21-15.25 24.617 0 24.617 15.25 49.209 15.25 24.57 0 24.57-15.25 49.115-15.25 2.613 0 4.919.165 7.014.47 1.647.26 6.942-25.416 5.53-25.84-3.412-1.06-7.437-1.742-12.544-1.742z" fill="none" stroke="#000" stroke-width="3.6"/>
 <path d="M414.35 458.726c-24.595 0-24.595-15.25-49.21-15.25-24.594 0-24.594 15.25-49.21 15.25-24.521 0-24.521-15.25-49.045-15.25-24.593 0-24.593 15.25-49.185 15.25-24.594 0-24.594-15.25-49.186-15.25-24.617 0-24.617 15.25-49.21 15.25-24.64 0-24.64-15.25-49.282-15.25-12.064 0-18.223 3.67-24.26 7.39-1.506.94 9.995 21.909 11.934 21.345 3.373-.988 7.345-1.624 12.325-1.624 24.642 0 24.642 15.25 49.283 15.25 24.593 0 24.593-15.25 49.209-15.25 24.594 0 24.594 15.25 49.186 15.25 24.594 0 24.594-15.25 49.186-15.25 24.522 0 24.522 15.25 49.045 15.25 24.617 0 24.617-15.25 49.21-15.25 24.616 0 24.616 15.25 49.209 15.25 12.402 0 18.568-3.883 24.78-7.742 3.93-2.448 21.228-34.548 19.816-34.43-20.145 1.764-21.652 15.061-44.596 15.061" fill="#fff"/>
 <path d="M414.35 458.726c-24.595 0-24.595-15.25-49.21-15.25-24.594 0-24.594 15.25-49.21 15.25-24.521 0-24.521-15.25-49.045-15.25-24.593 0-24.593 15.25-49.185 15.25-24.594 0-24.594-15.25-49.186-15.25-24.617 0-24.617 15.25-49.21 15.25-24.64 0-24.64-15.25-49.282-15.25-12.064 0-18.223 3.67-24.26 7.39-1.506.94 9.995 21.909 11.934 21.345 3.373-.988 7.345-1.624 12.325-1.624 24.642 0 24.642 15.25 49.283 15.25 24.593 0 24.593-15.25 49.209-15.25 24.594 0 24.594 15.25 49.186 15.25 24.594 0 24.594-15.25 49.186-15.25 24.522 0 24.522 15.25 49.045 15.25 24.617 0 24.617-15.25 49.21-15.25 24.616 0 24.616 15.25 49.209 15.25 12.402 0 18.568-3.883 24.78-7.742 3.93-2.448 21.228-34.548 19.816-34.43-20.145 1.764-21.652 15.061-44.596 15.061z" fill="none" stroke="#000" stroke-width="3.6"/>
 <path d="M263.658 46.499v1.27c-3.06.777-6.119 1.036-9.437 1.036-1.295-1.035-.07-2.706-.33-4 3.06-3.578 9.014-2.66 9.767 1.694" fill="#fff"/>
 <path d="M373.36 188.62c0 1.789-2.07 3.06-3.86 3.318-2.282-2.047-1.011-5.883 0-8.684 1.554.753 1.295 4.59 3.86 5.366" fill="#fb9"/>
 <path d="M374.112 245.36c-2.824.258-4.613 0-8.449-.777v-1.012c3.342.494 7.413-1.53 8.449 1.789"/>
 <path d="m270.59 297.51-3.836-5.883c5.366-1.294 10.473-7.154 16.875-4.354l1.27 1.789c-6.4 1.788-6.4 15.085-14.308 8.448zm-3.299-243.46 15.043 19.798c-2.73 3.695-14.39 1.883-14.39 1.883-.095-7.999-.653-21.681-.653-21.681zm-27.388 245.49c-29.396-.754-57.26.258-87.69-.754-6.377-8.943-6.377-17.65-6.895-27.346-.259-6.402 2.942-11.626 5.625-16.122 12.78-14.308 32.97-17.11 49.587-11.743 9.225 3.059 17.51 10.26 23.793 14.567 2.235 1.954 7.766 6.59 4.59 10.214-1.79 4.613-6.897 7.931-3.837 12.52.517 1.554 2.824 1.812 4.612 1.295 1.53 6.377 7.414 1.27 10.214 5.883 3.083-3.083 6.143 2.048 8.943-1.035.518 2.047 3.342 1.788 4.354 3.318-.777 2.824.26 7.672.26 7.672-3.06 2.824-9.72 1.389-13.557 1.53zM120.273 74.1c3.577-1.53 31.936-4.354 40.644-6.402l2.047-.494c29.912-5.883 58.27-8.19 87.17-14.591 2.283 1.294 1.53 20.545 1.53 20.545l.126 2.047zm132.66 26.664s-.259 136.23-1.012 155.41c-2.448.574-5.625 3.238-7.93.179-24.17-49-26.1-71.85-21.228-98.68 4.542-19.933 14.073-40.384 28.381-54.693zm211.43 235.6c.494-2.824-1.036-6.401-2.306-9.202-7.155-7.672-24.288-4.353-23.276-18.427 0-8.167-.236-15.58.26-23.253 0-2.518.08-5.994.08-5.994-7.927-.286-15.858.05-23.785-.148 2.03-2.198 2.617-3.695 3.77-6.119 5.436-8.943 2-27.606 1.79-33.23-.26-9.978-.543-16.804.752-27.11 1.082-4.025-.4-15.086-1.012-16.851-3.363-10.289-9.205-15.986-17.393-22.24-1.53.493-2.862 1.168-2.862 1.168-1.53-1.788-4.033-6.04-3.256-8.088.753-2.283 6.636-2.683 8.166-3.577 1.294-1.012 2.306-2.048 1.788-3.836 5.13-2.283 13.297-2.542 13.297-10.473.26-5.107-3.577-7.93-6.636-10.731-1.746-1.34-3.925-3.2-5.884-4.354-2.738-8.023-9.134-16.442-15.085-19.933-7.837-3.271-16.354-4.396-25.064 0-3.607 1.821-7.178 4.118-10.26 7.178-1.2 1.2-3.272 4.589-3.013 7.39-7.46 2.777-16.403 4.623-21.746 10.99-.954 1.137-1.247 2.989-1.27 3.836.258 6.66 5.106 8.19 10.472 9.979 1.953.54 6.401 1.53 9.72.753-.518 2.306-1.27 3.836-.518 6.142 2.824 3.06 8.966 0 6.92 6.637 3.835.776-.778 4.095 1.53 5.624-1.037 1.295-1.45 3.537-.778 5.13.45 1.068 2.824 2.025 2.824 2.025-5.884 2.824-11.767 7.672-18.92 10.237-4.096 1.27-15.393 11.955-16.875 24.029-1.06 6.895-6.59 15.862-8.19 26.83-.494 1.529-1.389 6.047-3.577 7.93-8.943 7.413-19.933 11.25-30.407 14.05-2.824 1.553-5.884 4.354-9.202 2.824-4.872-3.577-5.578-2.47-5.578-9.79L267.5 90.72c7.153-4.872 13.06-10.238 21.98-12.78 1.036-1.294 1.177-2.8.283-3.836-8.449-7.93-13.297-18.662-21.746-26.075-.753-2.824-2.306-6.143-4.59-8.19-3.576-2.047-7.67 0-11.248.518-4.872 1.53 0 8.19-5.625 8.684-29.912 4.354-89.476 14.332-89.476 14.332-20.452 3.06-37.843 7.413-58.553 10.732-5.695 5.671-32 27.488-37.318 55.21-2.899 14.098-5.862 36.408-3.05 48.175 0 0 2.693 20.757 13.02 41.797 5.958 13.038 14.617 27.064 31.515 47.398 8.307 10.167 20.31 21.204 34.195 31.066l-.26 1.035c-1.67.024-87.688-.517-87.688-.517-1.534 0-6.137 2.047-3.325 4.612 2.083 4.284 7.656 13.391 7.912 14.144 3.354 6.543 9.863 15.98 13.448 20.616 8.067 10.755 14.654 17.932 23.62 27.346 1.036 1.2 1.318 2.777.448 2.612 3.271 1.883 6.213 3.954 9.672 5.696 4.637 2.353 10.167 4.118 18.592 4.118 24.594 0 24.594-15.25 49.21-15.25 24.593 0 24.593 15.25 49.185 15.25 24.594 0 24.594-15.25 49.186-15.25 24.522 0 24.522 15.25 49.045 15.25 24.617 0 24.617-15.25 49.21-15.25 24.617 0 24.617 15.25 49.21 15.25a54.01 54.01 0 0 0 3.482-.118 39.51 39.51 0 0 0 3.577-.376c.212-20.475-.54-56.13-1.036-76.345-1.27-1.789-1.27-4.613-1.27-6.401 1.27-.753 2.306-1.53 3.836-1.271l1.788 2.047c3.39 3.554 1.6 22.24 1.79 28.359v52.505c13.366-3.883 17.296-13.65 36.948-13.65.47 0 .894.024 1.341.047-.259-7.601.424-20.38-.447-25.841"/>
 <g fill="#f00000">
  <path d="M168.52 362.17c24.594 0 24.594 15.25 49.186 15.25 24.594 0 24.594-15.25 49.186-15.25 24.522 0 24.522 15.25 49.045 15.25 24.618 0 24.618-15.25 49.21-15.25 24.617 0 24.617 15.25 49.209 15.25 1.224 0 2.377-.047 3.483-.117.188-10.167 1.035-70.273-.612-71.92-2.047-1.789-4.777-1.342-6.425-1.483l-277.49-1.27s-72.613.258-77.723-.26c-1.535 0-5.37-.258-4.86 2.542 5.937 10.638 12.722 22.664 20.197 32.477 4.866 6.378 18.942 22.805 29.791 35.914 4.636 2.354 10.167 4.119 18.592 4.119 24.593 0 24.593-15.25 49.209-15.25"/>
  <path d="M349.33 282.69c16.333 1.27 30.924.235 48.057 1.012 11.226-.777 37.397-.777 37.397-.777l-.095 12.78s-2.388 22.435 8.449 28.123c5.883 2.824 14.308 2.307 17.65 10.238l.753 21.463c-1.012 2.8-4.59 2.8-7.155 2.565-9.672-.118-19.32 11.414-25.652 11.367 0-25.816.612-46.903-.682-72.98-.518-3.06-2.048-7.672-6.402-6.637-12.52 2.542-22.239-2.824-35.255 0-6.99.283-32.477.494-32.477.494-7.93 0-14.826.26-22.757-1.27-1.53-.518-1.53-2.542-1.012-3.837 4.071-5.883 9.202-.753 13.79-2.541 1.813 1.012 3.601 1.012 5.39 0"/>
  <path d="M415.88 293.56c0 1.953 1.176 6.237-2.142 6.237-3.083 0-7.672.776-8.19-3.06 0-1.788 0-4.095 2.306-4.612 2.942.4 8.025-.495 8.025 1.435"/>
 </g>
 <path d="M110.03 78.516c-5.156.026-8.592.082-9.713.176 0 0-14.356 14.523-19.416 20.97-5.064 6.45-12.788 19.158-15.088 30.925-3.619 14.473-4.663 33.159-3.316 44.949 1.642 13.909 6.988 27.04 12.1 41.984 4.94 15.393 33.463 51.095 42.1 59.025 8.66 7.978 17.37 14.566 28.102 22.238h2.822c-4.354-11.51-8.188-24.03-4.611-36.29 5.129-15.603 23.18-25.841 37.818-26.288 14.355-1.554 35.723 5.814 53.703 26.289 2.8 3.177 4.095 8.943 9.203 7.154 2.4-2.965-2.54-9.084-3.059-10.732-6.895-13.06-20.734-41.466-24.734-69.189-3.977-27.7 9.812-60.46 18.59-72.934 11.014-15.65 25.205-27.465 31.912-31.795 2.024-1.295 4.92-2.73 5.155-5.014l-5.155-.351.006.002s-120.33-1.299-156.42-1.12zm270.44 36.42c-.49.008-.983.036-1.477.084-7.79 1.083-17.086 4.872-19.887 12.285l9.721-.895c8.14-.539 17.334 1.02 25.518 3.069a33.47 33.47 0 0 1 3.193.482c-1.162-4.31-5.342-6.077-7.835-8.822l.52-.754c4.283 2.67 8.853 5.225 9.825 10.162a37.1 37.1 0 0 1 2.194.67c-.074-2.186-1.864-4.89-3.313-6.76-4.325-5.273-11.11-9.636-18.457-9.521h-.002zm-8.36 14.289c-8.521.167-18.641 2.76-23.624 4.324-4.613 1.46-10.92 3.435-12.213 8.801 12.543-9.978 33.89-9.977 44.033-9.389 6.73.894 21.934 4.519 30.877 10.143 2 1.648 3.34 3.46 4.61 3.082l-2.046-3.082c-7.578-7.46-18.333-11.485-29.652-13.039l-8.45-.752a37.517 37.517 0 0 0-3.534-.088zm-22.28 10.047c-3.13-.023-13.44 3.695-10.992 8.19 3.837 4.095 9.462 2.8 14.31 2.046l1.295-5.623c-.259-3.06-1.553-4.613-4.613-4.613zm51.13 39.379c-9.46 6.378-23.016 10.99-31.466 20.451l-7.413 10.355s-3.435 6.73-5.529 16.285c-.706 2.306-2.543 11.368-3.414 13.227-1.012 5.107-4.329 9.46-1.787 14.826 9.979 1.035 18.144.517 28.123.777 4.353-.518 9.72 2.306 13.557 0 .517-1.53-1.531-13.297-1.531-13.297-1.53-1.53-1.763 1.364-3.576 2.305-2.824 1.459-7.438 4.85-9.227 1.014 4.354-2.047 9.72-3.577 12.545-7.672.517-7.413-.518-14.828-2.824-20.453.258-5.6.257-12.002 4.87-15.32 1.365-.212 2.307-1.035 2.802.52 0 0-3.978 5.411-3.836 12.001 2.047 6.143 1.294 12.025 3.836 16.873 1.788 2.306-3.06 3.837-.494 6.143-1.553 4.849 0 8.684 0 13.791.118 1.859 3.552 6.355 6.117 7.932 1.012.8 3.578 5.623 3.578 5.623 1.012 2.048 2.566 8.684-.258 11.25-.236 0-.495-.518-1.012-.518.517-5.366 0-12.261-5.625-15.086l-1.011 1.012s3.577 4.094 1.789 6.142c-3.083-2.8-4.615-6.635-8.192-8.941-7.154 1.035-14.567.517-21.203.517-2.824 0-6.66-2.307-9.226-.777 2.307 3.06 3.6 7.154 3.318 10.99-.895 1.342-1.648.305-2.283-1.012-.26-2.825-2.822-8.449-2.822-8.449-.753-1.01-2.802-2.281-3.319-1.27.517 3.06.777 7.413 2.047 9.202l.258 10.215c8.685-1.012 15.84 4.094 25.3 2.564 9.72-.259 17.393 1.27 26.853-.26 7.93-7.411 9.202-20.191 7.414-30.663.259-1.79.048-4.825-.258-7.415-2.565-15.345 3.623-29.7-.26-44.998-1.224-4.848-2.258-8.023-6.753-9.482-4.472-1.342-7.037 1.318-10.12.541 1.53-2.048 4.354-2.306 6.895-3.318 1.295-.26 2.823 2.047 3.342 0-3.084-4.848-8.966 0-12.78.517-.516-1.294 6.376-3.34 7.413-4.87-.776-1.272-2.306-1.272-3.836-1.272zm-37.577 5.266c-1.622.092-3.501 1.324-5.62 2.224-5.836 2.684-21.958 9.415-26.853 21.63l-1.106 4.964c-2.589 10.332-6.12 15.84-6.566 18.053-1.79 10.331-4.59 16.872-4.59 17.625 1.53 2.307 4.355.26 5.367 3.06l-.52.518c-7.413-2.047-12 1.53-17.625 6.403-4.095 2.54-10.239 2.54-14.334 5.105 4.613 2.048 6.662 5.885 9.227 9.98.235 1.012-.259 3.057-1.553 2.8-1.53-.52-1.011-2.048-1.271-3.319-3.576-1.035-5.106-10.99-10.99-6.4 1.036 1.53 2.307 2.563 2.824 4.093-2.824 3.06-2.307-2.564-4.613-2.564-1.271-1.013-3.576-1.012-4.588.518 7.648 3.578-.284 15.087 7.906 17.393 9.72-5.884 22.758-1.789 29.654-8.19-1.012-4.33-1.53-8.685-1.789-12.521-1.789-8.19 7.153-9.718 12.283-14.566l1.271-14.309c.353-2.307 5.297-12.615 7.415-27.865-.023-1.647 4.33-8.448 6.636-12.52 1.035-.26 2.566-2.048 3.319 0-1.012 1.528-9.698 16.613-8.686 24.521 0 7.413-6.143 12.025-6.143 19.18-1.012 2.8-.235 7.413.518 10.473 4.613 1.035 9.204 4.356 14.311 4.096l-.496-4.614c2.048-8.166 4.779-17.084 6.121-24.52 2.918-16.169 10.236-23.512 13.812-28.384l.002-.002s-2.377-7.506-1.79-12.52c-.482-.276-.994-.372-1.534-.341zm-59.463 101.27c-.928.13-2.037 1.19-3.155.558-9.226.26-16.38 5.884-19.699 13.557 4.848.494 8.425-1.036 13.814 0 3.06-4.096 5.884-9.981 10.473-12.78h.002c-.388-1.157-.879-1.413-1.435-1.335zm18.557.046c-7.672 1.788-14.073.777-19.674 6.66.494 2.8-4.355 4.589-1.555 7.413 13.297-.776 25.323 0 38.855 0 19.44.235 38.102 1.012 57.777 0 3.083 1.012 3.837-1.293 4.096-3.34-.141-3.884-8.52-3.13-12.285-3.06l-56.482.517c-5.107 0-5.367-6.66-10.732-8.19zm-62.277 4.15c-.772-.076-1.643.195-2.649.958 3.836 2.047 5.105 10.496 9.953 7.672-2.485-1.453-3.96-8.297-7.304-8.63zM70.029 362.17c-19.833 0-23.721 9.859-37.33 13.719-.777.236-1.59.425-2.436.59-1.737.376-3.625.634-5.71.799-.843.047 3.34 26.78 4.486 26.57 16.74-2.965 19.48-14.566 40.99-14.566 24.642 0 24.643 15.25 49.283 15.25 24.594 0 24.593-15.25 49.209-15.25 24.593 0 24.593 15.25 49.186 15.25s24.594-15.25 49.186-15.25c24.522 0 24.523 15.25 49.047 15.25 24.617 0 24.617-15.25 49.209-15.25 24.617 0 24.616 15.25 49.209 15.25 24.57 0 24.57-15.25 49.115-15.25 5.06 0 9.061.657 12.45 1.716 1.436.447 3.577-25.792 2.706-26.145-3.483-1.412-7.601-2.4-12.943-2.613-.282-.023-.59-.021-.871-.021v-.002c-.447-.022-.87-.047-1.342-.047-19.652 0-23.582 9.767-36.949 13.65a33.5 33.5 0 0 1-5.107 1.105c-1.13.165-2.305.307-3.576.377a54.08 54.08 0 0 1-3.485.118c-24.594 0-24.593-15.25-49.209-15.25-24.593 0-24.594 15.25-49.209 15.25-24.522 0-24.52-15.25-49.045-15.25-24.593 0-24.594 15.25-49.188 15.25s-24.592-15.25-49.184-15.25c-24.617 0-24.618 15.25-49.21 15.25-8.426 0-13.955-1.765-18.59-4.118-3.46-1.742-6.404-3.814-9.675-5.697-4.589-2.613-9.79-4.87-17.855-5.342a66.717 66.717 0 0 0-3.162-.094zm-.002 54.213c-18.434 0-23.081 8.518-34.57 12.824-1.083.4 8.515 22.759 9.877 21.936 6.178-3.836 12.342-7.672 24.695-7.672 24.643 0 24.643 15.25 49.283 15.25 24.594 0 24.593-15.25 49.209-15.25 24.593 0 24.594 15.25 49.186 15.25 24.594 0 24.594-15.25 49.186-15.25 24.522 0 24.522 15.25 49.045 15.25 24.617 0 24.618-15.25 49.211-15.25 24.617 0 24.617 15.25 49.209 15.25 23.204 0 24.498-13.58 45.232-15.109 1.224-.094 12.166-26.594 10.26-26.83-1.93-.258-4.023-.398-6.377-.398h-.002c-24.547 0-24.546 15.25-49.115 15.25-24.593 0-24.593-15.25-49.209-15.25-24.594 0-24.595 15.25-49.21 15.25-24.522 0-24.52-15.25-49.044-15.25-24.594 0-24.596 15.25-49.188 15.25-24.594 0-24.594-15.25-49.186-15.25-24.617 0-24.616 15.25-49.209 15.25-24.64 0-24.64-15.25-49.283-15.25zm-.006 54.201c-4.98 0-8.952.635-12.324 1.623-1.94.565 19.474 25.865 22.33 26.5 15.25 3.413 18.52 14.238 39.277 14.238 24.594 0 24.595-15.25 49.211-15.25 24.593 0 24.592 15.25 49.184 15.25 24.594 0 24.596-15.25 49.188-15.25 24.522 0 24.521 15.25 49.045 15.25 24.617 0 24.617-15.25 49.21-15.25 22.686 0 24.451 12.967 43.89 14.967 1.648.189 34.196-37.113 30.312-34.713-6.284 3.883-12.426 7.885-24.994 7.885-24.595 0-24.594-15.25-49.209-15.25-24.594 0-24.595 15.25-49.21 15.25-24.522 0-24.522-15.25-49.046-15.25-24.593 0-24.594 15.25-49.186 15.25-24.594 0-24.594-15.25-49.186-15.25-24.617 0-24.616 15.25-49.209 15.25-24.64 0-24.64-15.25-49.283-15.25zm98.506 54.205c-21.3 0-24.168 11.438-40.549 14.498-2.282.423 29.205 17.132 46.621 22.779 26.57 8.59 49.987 13.416 76.957 13.416 29.09 0 54.317-5.014 82.77-15.039 18.71-6.566 54.67-28.523 52.86-29.605-5.39-3.2-11.439-6.049-22.03-6.049h-.002c-24.594 0-24.593 15.25-49.209 15.25-24.522 0-24.522-15.25-49.045-15.25-24.594 0-24.594 15.25-49.186 15.25-24.594 0-24.596-15.25-49.188-15.25z" fill="#0093dd"/>
 <g fill="none" stroke="#000" stroke-width="3.6">
  <path d="M365.15 524.789c-24.594 0-24.594 15.25-49.21 15.25-24.522 0-24.522-15.25-49.045-15.25-24.594 0-24.594 15.25-49.186 15.25-24.594 0-24.594-15.25-49.186-15.25-21.3 0-24.169 11.437-40.55 14.497-2.282.423 29.206 17.133 46.622 22.78 26.57 8.59 49.987 13.415 76.957 13.415 29.09 0 54.317-5.013 82.77-15.038 18.71-6.566 54.67-28.524 52.859-29.606-5.39-3.2-11.438-6.048-22.029-6.048zM463.471 416.38c-24.547 0-24.547 15.25-49.116 15.25-24.593 0-24.593-15.25-49.209-15.25-24.594 0-24.594 15.25-49.21 15.25-24.521 0-24.521-15.25-49.044-15.25-24.594 0-24.594 15.25-49.186 15.25-24.594 0-24.594-15.25-49.186-15.25-24.617 0-24.617 15.25-49.21 15.25-24.64 0-24.64-15.25-49.282-15.25-18.434 0-23.082 8.52-34.571 12.826-1.083.4 8.515 22.758 9.877 21.935 6.178-3.836 12.342-7.672 24.695-7.672 24.643 0 24.643 15.25 49.283 15.25 24.594 0 24.594-15.25 49.21-15.25 24.593 0 24.593 15.25 49.185 15.25 24.594 0 24.594-15.25 49.186-15.25 24.522 0 24.522 15.25 49.045 15.25 24.617 0 24.617-15.25 49.21-15.25 24.617 0 24.617 15.25 49.209 15.25 23.204 0 24.498-13.58 45.232-15.109 1.224-.094 12.167-26.594 10.261-26.83-1.93-.258-4.024-.4-6.378-.4zM414.35 485.832c-24.595 0-24.595-15.25-49.21-15.25-24.594 0-24.594 15.25-49.21 15.25-24.521 0-24.521-15.25-49.045-15.25-24.593 0-24.593 15.25-49.185 15.25-24.594 0-24.594-15.25-49.186-15.25-24.617 0-24.617 15.25-49.21 15.25-24.64 0-24.64-15.25-49.282-15.25-4.98 0-8.953.635-12.325 1.623-1.94.565 19.474 25.865 22.33 26.5 15.25 3.413 18.521 14.239 39.278 14.239 24.594 0 24.594-15.25 49.21-15.25 24.593 0 24.593 15.25 49.185 15.25 24.594 0 24.594-15.25 49.186-15.25 24.522 0 24.522 15.25 49.046 15.25 24.617 0 24.617-15.25 49.209-15.25 22.687 0 24.451 12.967 43.89 14.967 1.648.189 34.196-37.113 30.313-34.713-6.284 3.883-12.426 7.884-24.994 7.884zM464.814 362.215c-.447-.022-.871-.047-1.342-.047-19.652 0-23.582 9.767-36.949 13.65a33.5 33.5 0 0 1-5.107 1.106c-1.13.165-2.306.306-3.577.376-1.106.071-2.26.118-3.483.118-24.594 0-24.594-15.25-49.21-15.25-24.593 0-24.593 15.25-49.208 15.25-24.522 0-24.522-15.25-49.046-15.25-24.593 0-24.593 15.25-49.186 15.25s-24.593-15.25-49.185-15.25c-24.617 0-24.617 15.25-49.21 15.25-8.425 0-13.955-1.765-18.591-4.118-3.46-1.742-6.402-3.813-9.673-5.696-4.589-2.613-9.79-4.872-17.855-5.343a66.717 66.717 0 0 0-3.162-.094c-19.833 0-23.721 9.86-37.33 13.72-.777.236-1.59.424-2.436.589-1.737.376-3.627.635-5.712.8-.843.047 3.342 26.781 4.488 26.57 16.74-2.965 19.48-14.567 40.99-14.567 24.642 0 24.642 15.25 49.282 15.25 24.594 0 24.594-15.25 49.21-15.25 24.593 0 24.593 15.25 49.186 15.25s24.593-15.25 49.185-15.25c24.522 0 24.522 15.25 49.046 15.25 24.617 0 24.617-15.25 49.209-15.25 24.617 0 24.617 15.25 49.21 15.25 24.57 0 24.57-15.25 49.115-15.25 5.06 0 9.06.659 12.45 1.718 1.435.447 3.577-25.793 2.706-26.146-3.483-1.412-7.602-2.4-12.944-2.612-.282-.023-.588-.023-.87-.023z"/>
 </g>
 <path d="M370.85 134.78c-1.41.018-2.828.274-3.893.428-4.567.66-10.494.234-10.988 5.86 3.06 3.341-.52 6.402-.52 9.98.26 3.577-4.352 5.363-2.304 8.423 2.824.776 6.14 0 7.93-1.789l1.295 2.047c-.777 1.53-1.554.778-2.824 1.531-1.53 9.461 8.166.259 9.72 6.143-2.566 2.047-5.884-1.79-7.674 1.53 3.578 3.081-2.823 5.623.26 8.94 2.801.519 5.366.26 8.166-1.011 6.401 2.566 10.473-4.093 16.121-5.105-.518 3.577-4.871 3.835-7.154 6.117-2.307 2.048-7.696.519-7.178 4.873 1.788 1.53 1.272 5.624 4.614 5.105 5.883-4.094 13.038-6.636 19.416-10.99.259-2.565-.912-4.297-2.024-6.635-1.26-2.649-3.837-2.824-6.144-2.824-8.684-2.542-.258-11.767-5.106-16.615-4.353-2.565-6.402-6.636-6.402-12.52-.633-2.883-2.961-3.518-5.31-3.488zm-42.492 118.76c-1.035 2.047-2.823 2.565-4.613 3.082-1.011 4.331-5.366 1.53-5.625 6.12 1.53 5.623 6.143-1.011 9.203-.235-1.53 1.789-4.096 3.058-6.38 4.328-1.788 1.27-1.292 3.061-.774 5.11 2.823 2.046 4.846-3.061 7.93-3.061-1.036 2.565-6.66 4.613-7.413 7.931 4.33 7.414 6.142-4.354 10.99-2.306v1.27c-.776 1.035-1.79 1.036-2.824 1.53-1.53 1.553-4.33 3.083-3.06 6.143 4.612 2.564 6.896-4.59 11.51-3.836 6.142 3.083 9.718-4.094 15.837-3.318 1.812-2.801 1.812-5.108 1.53-7.932-.494-1.788-2.54-3.576-.493-5.86-1.53-1.552-.519-3.578-2.826-4.355-8.166.778-14.308-4.871-22.992-4.611zm-74.906 5.092c-2.186.107-4.374.727-6.139 1.05 0 3.579 1.788 7.671 4.871 9.977l.496-3.082c2.824.776 4.612 3.578 7.178 5.131 2.023.235 4.589-.777 5.6 1.012l-1.27.775c-9.72-.258-16.097-3.34-26.076-1.293l-.517 1.53c.258 2.564 1.554 3.343 3.342 4.613 7.673-2.824 12.777 3.576 20.19 4.093 2.048 1.53 3.838-1.552 5.885.26-4.872 4.072-9.719-.777-14.332-.517v.754c4.872 2.306 13.036 7.411 18.402 4.093 2.306-4.33 8.45.002 9.98-4.847-.494-3.835-1.27-7.93-3.06-10.99h.26s-16.287-10.191-20.97-12.027c-1.219-.477-2.53-.596-3.84-.532zm-19.791 11.459c-1.601.095-3.478 1.87-4.758 3.15-.777 1.788-2.049 4.59-.26 6.377 2.306 2.048 2.566-2.046 4.614-1.27l-1.295 2.8c0 1.553 1.036 2.564 2.566 2.564 2.565-.26 3.837-3.058 3.319-5.365-1.271-1.035-3.06-1.27-4.33-.518-.52-2.542 2.047-3.577 2.54-5.625-.573-1.624-1.435-2.17-2.396-2.113z" fill="#fb9"/>
 <path d="m373.081 144.633.283 1.554c-1.295.494-2.071-3.083-4.095-1.789-1.554 1.012-1.036 4.071-3.083 3.06-1.271-1.271-.236-3.837-2.8-3.319-.26-1.035 0-1.294.776-1.53 3.318-.776 6.119 1.012 8.92 2.024"/>
 <path d="M244.515 281.397v1.294c1.27.494 2.542-2.047 3.836-1.294-1.788 1.294.259 5.883-3.342 4.095-1.53-.518 0-1.53 0-2.048-1.788 1.036-4.589 2.307-6.895 2.048-.753-2.307 1.788-4.848 3.06-6.143 2.306-.753 2.306 1.295 3.341 2.048" fill="#fb9"/>
 <path d="M150.019 143.462h31.818l4.66-12.732-32.337-.023h-2.447l.73-2.33c3.082-9.72 9.154-23.534 11.72-29.183h-12.309c-1.953 3.6-9.108 17.344-12.426 30.148l-.33 1.341H107.21l-4.66 12.732 32.97.024h1.836l-.047 1.859c-.494 15.673 2.965 30.147 4.095 34.43h12.567c-1.13-5.624-3.977-20.993-3.953-34.477v-1.789" fill="#fff"/>
 <path d="M141.4 179.734c-1.13-4.284-4.59-18.757-4.095-34.43l.047-1.86h-1.836l-32.97-.023 4.66-12.732h31.888l.33-1.342c3.318-12.803 10.472-26.547 12.426-30.148h12.308c-2.565 5.649-8.637 19.463-11.72 29.183l-.73 2.33h2.448l32.337.023-4.66 12.732h-31.818v1.79c-.024 13.484 2.824 28.852 3.953 34.476h-12.567zm47.657-52.6-32.43-.023c4.118-11.979 11.86-28.76 11.931-28.947l1.177-2.541h-19.981l-.518.917c-.376.636-8.825 15.72-12.92 30.571l-30.384-.023h-1.247l-.423 1.177-5.955 16.332-.87 2.424h2.541l33.702.023c-.212 14.427 2.447 25.746 4.612 34.9l.33 1.366h19.792l-.494-2.165c-.047-.189-4.024-18.356-4.307-34.101l29.489.023h1.247l.424-1.177 5.954-16.332.87-2.424h-2.541"/>
 <path d="m264.44 158.19.517 100.96c-2.565.777-5.883-2.047-8.707-3.06l.33-157.94c1.27-1.813 2.502-3.248 7.083-5.764zm-9.198-82.992s.518-13.865 0-19.749c2.307-1.036 5.107-1.789 7.672-1.271l.334 21.04" fill="#fff"/>
 <path d="M403.248 145.68c.776 2.8 4.612 3.577 3.577 7.413-3.813-1.271-4.848-6.143-7.649-8.19-2.565 6.66 10.214 10.237 3.318 16.121-2.047-1.294-.776-7.672-5.106-8.448-1.789-1.53 1.012-3.06 0-5.107-1.295-2.307-2.307-5.884-5.625-5.884l-.518.777c1.53 1.53 3.577 3.318 3.577 6.119-.517 1.788-1.53 4.094-.259 6.142 2.566 1.27 4.095 3.318 4.354 6.142-.259 2.048-2.306 1.789-4.095 1.789.777-4.354-6.142-4.872-3.318-9.46.259-2.566-1.035-5.367-2.306-7.155-2.048-.259-3.836-2.565-3.577-4.613.258-1.012 0-1.53-.777-2.047h-1.012c-1.036 2.824.259 6.919 2.565 8.707 1.836.518 1.012 2.048 2.8 2.8l-1.011 6.402c2.8 2.048 5.86 4.848 4.589 8.425l-.518.518c-9.46-2.306-3.577-10.237-7.413-16.615-3.577-3.318-6.637-6.401-6.143-11.508l1.295-1.53c8.19 1.53 19.18 1.012 23.252 9.202" fill="#fcdb00"/>
 <path d="M3.664 3.399h493.04l-5.295 121.53-9.72 223.38c-.4 125.51-103.46 227.15-230.54 227.15S20.99 473.819 20.61 348.309z" fill="none" stroke="#000" stroke-miterlimit="3.864" stroke-width="6.9"/>
</svg>
