<?xml version="1.0" encoding="UTF-8"?>
<svg width="600" height="690.56" version="1.1" viewBox="0 0 158.75 182.71" xmlns="http://www.w3.org/2000/svg">
 <path d="M2.26 1.582h154.23a.884.884 0 0 1 .88.92l-3.327 103.99c.004 27.076-14.553 50.767-36.21 63.85a.855.855 0 0 1-.276.296c-.733.44-1.494.825-2.235 1.233-.232.128-.457.256-.689.38a74.177 74.177 0 0 1-12.33 5.239c-.505.16-1.009.32-1.517.472a73.716 73.716 0 0 1-6.088 1.57c-.116.025-.228.06-.348.08-2.142.441-4.309.75-6.487.998-.577.065-1.154.12-1.734.172-2.239.205-4.486.345-6.744.345-2.255 0-4.501-.14-6.736-.345a61.065 61.065 0 0 1-1.746-.176c-2.179-.248-4.34-.553-6.48-.99-.095-.02-.195-.047-.292-.067-2.082-.433-4.132-.981-6.17-1.59-.501-.152-.998-.309-1.494-.469a73.868 73.868 0 0 1-12.383-5.262c-.2-.108-.397-.22-.597-.328-.78-.428-1.57-.833-2.338-1.29-.117-.068-.196-.184-.277-.3-21.629-13.09-36.169-36.774-36.169-63.845L1.371 2.505a.888.888 0 0 1 .885-.921z" fill="#fff"/>
 <path d="M67.01 61.543c-.771 1.033-1.98 2.393-3.622 3.871v2.425c0 3.181 1.07 5.215 1.81 5.215.743 0 1.812-2.034 1.812-5.215l.004-5.883c0-.004-.004-.009-.004-.013zm24.948 0v.4c0 .006-.008.009-.008.013l.008 5.884c0 3.18 1.073 5.214 1.817 5.214.735 0 1.809-2.033 1.809-5.214v-2.426c-1.642-1.478-2.85-2.838-3.626-3.87zM67.01 78.758a21.024 21.024 0 0 1-3.622 3.842v2.458c0 3.177 1.07 5.21 1.81 5.21.742 0 1.812-2.033 1.812-5.21 0-2.237.008-4.589.016-5.859-.004-.012-.016-.016-.016-.029zm24.947 0v.413c0 .008-.012.013-.012.02.005 1.27.012 3.63.012 5.868 0 3.177 1.074 5.21 1.818 5.21.735 0 1.808-2.033 1.808-5.21v-2.458a20.762 20.762 0 0 1-3.626-3.842zM67.01 96.064c-1.412 1.911-3.062 3.344-3.622 3.814v2.4c0 3.177 1.07 5.211 1.81 5.211.743 0 1.812-2.034 1.812-5.21 0-2.41.004-4.798.004-5.876 0-.008-.004-.008-.004-.016zm24.948 0v.323c0 .008-.004.01-.004.017 0 1.078.004 3.467.004 5.876 0 3.176 1.073 5.21 1.817 5.21.735 0 1.813-2.034 1.813-5.21l-.004-2.401c-.555-.466-2.209-1.903-3.626-3.814z" fill="#f00000" stroke="#f00000" stroke-width="1.3229"/>
 <path d="M79.472 8.675c-1.874 4.912-4.842 8.824-6.316 10.588 2.336-.062 4.001-1.724 4.017-1.74.131-.14.311-.204.487-.204a.675.675 0 0 1 .678.678c0 2.388.661 4.103 1.16 5.054.49-.955 1.142-2.678 1.142-5.055 0-.277.164-.522.417-.628a.67.67 0 0 1 .743.155c.016.016 1.682 1.678 4.018 1.74-1.486-1.764-4.471-5.676-6.345-10.588zm-2.427 10.672a7.63 7.63 0 0 1-3.156 1.197h-.002c-.556.947-3.096 4.777-9.519 7.13 1.421.596 3.887 1.053 6.505-1.14.02-.02.053.003.082-.012.168-.123.368-.188.585-.11.016.003.02.024.036.033.005.004.014-.005.022-.005.024.013.016.04.036.054a.618.618 0 0 1 .319.498c0 .028.037.035.037.064v2.21a5.929 5.929 0 0 0 2.388-2.026c.004-.008.01-.008.017-.016a19.368 19.368 0 0 1 3.127-5.488 12.335 12.335 0 0 1-.477-2.389zm4.886 0c-.09.936-.27 1.728-.478 2.43a19.67 19.67 0 0 1 3.083 5.423c.016.02.044.016.057.04a5.938 5.938 0 0 0 2.385 2.03v-2.214c0-.032.045-.04.049-.072a.62.62 0 0 1 .306-.482c.024-.013.015-.049.04-.062.005-.004.012.009.02.005.021-.003.03-.024.046-.032.216-.078.42-.013.588.11.02.016.048-.004.07.012 2.638 2.217 5.1 1.747 6.517 1.143-6.435-2.352-8.98-6.187-9.527-7.134a7.653 7.653 0 0 1-3.156-1.196zM78.1 23.293c-2.48 3.405-3.194 6.655-3.353 8.362l1.633-1.086c.021-.012.037 0 .053-.013a.615.615 0 0 1 .41-.081c.02.004.04-.008.06 0 .004 0 .004-.004.008 0 .16.036.282.13.373.252.012.013.032.013.044.03.033.045.013.098.03.147.02.06.065.11.069.179.004.033.265 3.16 2.046 5.018 1.776-1.858 2.037-4.986 2.041-5.018.005-.061.053-.105.07-.159.016-.053 0-.114.029-.168.011-.016.035-.016.048-.032a.7.7 0 0 1 .372-.253l.003.004c.02-.008.04.004.065 0a.602.602 0 0 1 .42.085c.012.008.025.001.033.009l1.634 1.085c-.152-1.698-.867-4.923-3.32-8.312-.417.89-.805 1.38-.837 1.424a.676.676 0 0 1-.528.254H79.5a.685.685 0 0 1-.527-.25c-.033-.044-.437-.55-.874-1.477zm7.185 6.508c.368 1.842.311 3.091.298 3.197a.67.67 0 0 1-.673.625.678.678 0 0 1-.376-.11l-.543-.36c.935 2.173 1.454 4.39 1.731 6.244.021.033.062.045.07.09.89 2.756 2.437 4.43 3.446 5.288l-.004-2.765c0-.343.253-.632.596-.678.33-.07.658.18.74.507.008.028.567 1.813 2.752 4.3v-3.222c0-.306.204-.576.498-.653a.676.676 0 0 1 .763.306c1.52 2.532 3.88 4.103 5.407 4.912l-1.188-2.957a.686.686 0 0 1 .073-.628.673.673 0 0 1 .564-.298c3.683 0 5.324-.666 6.051-1.176-10.18-2.548-15.071-8.681-17.154-12.32v.127a.678.678 0 0 1-.816.665c-.066-.012-1.095-.294-2.234-1.094zm-11.633.025c-1.135.78-2.14 1.057-2.205 1.07a.68.68 0 0 1-.567-.138.68.68 0 0 1-.25-.528v-.118c-2.087 3.642-6.978 9.767-17.154 12.315.71.503 2.356 1.172 6.052 1.172.228 0 .44.11.568.298v-.002c.126.184.15.42.065.629l-1.18 2.956c1.532-.82 3.896-2.392 5.406-4.911a.67.67 0 0 1 .768-.307c.29.078.498.347.498.653v3.218c2.18-2.486 2.74-4.267 2.748-4.3.09-.33.41-.55.748-.494.335.045.588.331.588.67l-.008 2.764c1.013-.857 2.556-2.532 3.442-5.288.003-.02.028-.027.04-.048.278-1.862.797-4.096 1.744-6.289l-.547.364a.717.717 0 0 1-.678.045.672.672 0 0 1-.376-.56c-.008-.105-.069-1.342.298-3.171zm2.784 3.324c-1.743 3.716-2.099 7.787-2.168 9.64l2.214-.95c.013-.005.024.003.037 0a.686.686 0 0 1 .46-.017l.013.013c.017.005.021.025.038.029a.68.68 0 0 1 .306.29c.008.016.032.024.04.045.013.032-.008.065 0 .102.016.057.054.106.054.167 0 .037.012 3.594 2.041 5.513 2.034-1.928 2.042-5.472 2.042-5.513 0-.06.036-.11.056-.167.008-.037-.02-.07 0-.102.008-.02.029-.03.041-.045a.632.632 0 0 1 .294-.282c.016-.013.024-.033.045-.037.004-.005.004-.008.016-.013a.664.664 0 0 1 .454.016c.016.004.029-.004.037 0l2.213.952c-.073-1.854-.425-5.929-2.165-9.64-.375 1.383-1.127 3.2-2.609 4.405-.249.2-.608.2-.861 0-1.478-1.205-2.222-3.022-2.597-4.406zm9.6 9.995c.004.372.004.654 0 .703a.681.681 0 0 1-.31.555.739.739 0 0 1-.368.102.635.635 0 0 1-.27-.057l-1-.432c2.785 4.736 2.855 9.979 2.855 10.228a.665.665 0 0 1-.347.597.716.716 0 0 1-.69-.013l-.478-.298c1.756 3.291 3.92 5.283 5.17 6.178l-.004-1.474c0-.319.216-.592.522-.666a.673.673 0 0 1 .764.363c.02.033 1.384 2.703 5.063 5.889v-3.777a.684.684 0 0 1 1.242-.392c1.658 2.4 3.56 3.699 4.65 4.3v-4.81c0-.307.205-.585.511-.663.31-.09.605.062.76.327 2.127 3.777 5.283 4.986 6.95 5.37l-1.377-3.427a.707.707 0 0 1 .07-.632.673.673 0 0 1 .563-.299c4.083 0 5.978-.836 6.835-1.486-5.651-.632-10.718-2.416-16.692-5.859-5.57-3.201-8.428-6.411-9.853-8.583v1.204a.666.666 0 0 1-.327.58.686.686 0 0 1-.67.021c-.106-.053-1.963-1.07-3.568-3.548zm-13.138.049c-1.597 2.441-3.43 3.446-3.536 3.5a.658.658 0 0 1-.67-.021.674.674 0 0 1-.322-.585v-1.2c-1.43 2.177-4.284 5.382-9.853 8.583-5.978 3.442-11.045 5.227-16.697 5.863.85.641 2.744 1.483 6.836 1.483.224 0 .44.11.563.298a.66.66 0 0 1 .065.633l-1.368 3.425c1.662-.384 4.818-1.592 6.946-5.369a.665.665 0 0 1 .763-.327.682.682 0 0 1 .507.662v4.81c1.094-.6 2.989-1.898 4.655-4.291a.67.67 0 0 1 .764-.265.676.676 0 0 1 .474.649v3.777c3.683-3.185 5.042-5.856 5.058-5.888a.677.677 0 0 1 .772-.364.687.687 0 0 1 .523.666l-.004 1.474c1.254-.899 3.422-2.9 5.186-6.207l-.531.327a.694.694 0 0 1-.685.013.676.676 0 0 1-.352-.597c0-.249.073-5.491 2.866-10.228l-1.012.433a.696.696 0 0 1-.633-.046.695.695 0 0 1-.314-.555c0-.049-.004-.307 0-.654zm9.784 1.128c-.286 1.568-1.008 3.756-2.809 5.091a.662.662 0 0 1-.809 0h-.002c-1.8-1.335-2.519-3.523-2.8-5.087-2.006 3.193-2.626 6.782-2.822 8.652l1.412-.874c.013-.008.03.008.046 0a.65.65 0 0 1 .563-.053c.046.017.057.065.094.09.02.012.053-.012.07.004.062.049.09.127.135.192.025.041.057.07.073.115.058.139.07.289.021.436-.861 2.715-.608 5.33-.355 6.758.323-.392.641-.783 1.009-1.147a.677.677 0 0 1 .69-.155.67.67 0 0 1 .457.534c.008.037.494 2.994 1.817 5.37 1.327-2.38 1.81-5.333 1.813-5.37a.68.68 0 0 1 .461-.534c.237-.09.511-.02.687.155.371.364.686.755 1.008 1.143.254-1.429.503-4.038-.359-6.753a.682.682 0 0 1 .236-.744c.025-.02.066.012.094-.004.046-.026.053-.074.099-.09a.643.643 0 0 1 .56.053c.004.004.016-.004.02 0l1.405.866c-.196-1.862-.821-5.455-2.814-8.649zm2.359 12.323c.045 2.348-.421 4.096-.523 4.439 2.593 3.907 3.296 8.247 3.328 8.468a.672.672 0 0 1-.237.616.62.62 0 0 1-.65.128l-1.306-.433c.147.453.254.894.327 1.323.012.02.04.028.049.052 1.343 3.753 3.38 5.766 4.573 6.681v-1.47c0-.306.208-.58.502-.657a.669.669 0 0 1 .767.322 19.621 19.621 0 0 0 5.072 5.83v-2.772a.68.68 0 0 1 .58-.673c.351-.041.653.155.747.473.02.041 1.184 3.479 6.24 7.75l-.76-5.65a.677.677 0 0 1 .482-.744.696.696 0 0 1 .812.371c1.43 3.157 4.46 5.19 6.284 6.182l-1.653-4.3a.678.678 0 0 1 .342-.853.675.675 0 0 1 .879.266c1.278 2.148 3.895 3.912 5.528 4.859l-1.322-4.312a.67.67 0 0 1 .273-.768.67.67 0 0 1 .821.062c2.32 2.025 4.553 2.711 5.995 2.927-1.556-1.809-2.483-3.85-2.528-3.956a.672.672 0 0 1 .617-.956c2.658 0 4.781-1.303 6.018-2.287-11.935-.356-19.33-4.377-25.88-8.493a37.117 37.117 0 0 1-3.479-2.5v1.27c0 3.185-1.11 6.57-3.164 6.57-2.062 0-3.173-3.385-3.173-6.57l-.008-5.5c-.918-.547-3.377-2.273-5.553-5.695zm-11.142.052c-2.173 3.39-4.607 5.1-5.525 5.643l-.004 5.5c0 3.186-1.114 6.57-3.172 6.57-2.054 0-3.17-3.385-3.17-6.57v-1.27a36.5 36.5 0 0 1-3.475 2.5c-6.545 4.116-13.935 8.138-25.88 8.493 1.23.984 3.357 2.287 6.015 2.287.233 0 .445.114.576.31a.683.683 0 0 1 .045.645c-.045.107-.972 2.148-2.532 3.957 1.446-.216 3.68-.902 5.999-2.928.228-.2.56-.22.813-.061a.67.67 0 0 1 .277.767l-1.323 4.313c1.638-.948 4.251-2.712 5.529-4.86a.676.676 0 0 1 .882-.265.67.67 0 0 1 .335.854l-1.65 4.3c1.83-.992 4.855-3.026 6.293-6.182a.683.683 0 0 1 .804-.372c.33.094.53.413.49.744l-.768 5.655c5.055-4.275 6.223-7.714 6.23-7.754a.706.706 0 0 1 .756-.474c.331.049.58.335.58.674v2.772c1.254-.96 3.41-2.89 5.072-5.83a.672.672 0 0 1 .768-.323.686.686 0 0 1 .506.657v1.47c1.193-.914 3.222-2.928 4.573-6.68 0-.008.012-.008.016-.021.07-.437.176-.89.327-1.356l-1.303.434a.676.676 0 0 1-.886-.744c.033-.22.727-4.557 3.328-8.464-.098-.335-.567-2.059-.526-4.39zm2.689 3.713c-2.405 2.842-3.5 6.44-3.924 8.228l1.608-.535a.657.657 0 0 1 .727.204c.18.208.221.507.09.752-1.127 2.196-.992 4.287-.747 5.528a13.91 13.91 0 0 1 1.997-1.854.665.665 0 0 1 .682-.077.67.67 0 0 1 .404.555c.004.041.388 3.752 2.046 7.55 1.657-3.806 2.037-7.51 2.041-7.55a.677.677 0 0 1 .409-.555.658.658 0 0 1 .682.077c.763.584 1.42 1.205 1.992 1.85.249-1.241.38-3.332-.747-5.525a.676.676 0 0 1 .085-.751.676.676 0 0 1 .736-.204l1.604.535c-.424-1.789-1.518-5.386-3.923-8.228-.344 1.429-1.062 3.728-2.332 5.504a.684.684 0 0 1-.547.282.668.668 0 0 1-.555-.286c-1.266-1.772-1.977-4.075-2.328-5.5zm9.419 14.034v.001zm0 .001a8.373 8.373 0 0 1-.371 1.522c2.789 4.063 2.68 8.436 2.667 8.67a.697.697 0 0 1-.331.558.703.703 0 0 1-.645.022l-.965-.482c1.274 3.254 1.221 6.418 1.111 7.823.935 1.294 2.242 2.221 3.128 2.728v-1.617c0-.315.217-.593.527-.657.298-.086.624.081.763.363.903 1.87 2.577 3.634 3.687 4.68l-.003-3.022a.676.676 0 0 1 .612-.678c.34-.086.666.204.731.547.576 2.985 2.307 5.954 5.014 8.795v-5.495c0-.34.245-.621.576-.674.351-.061.653.15.751.481 1.066 3.528 4.627 6.097 6.375 7.175v-3.356c0-.323.22-.597.535-.666a.683.683 0 0 1 .759.384c.963 2.111 2.458 3.462 3.585 4.242-.67-2.646-.364-5.267-.343-5.402a.68.68 0 0 1 1.238-.298c2.331 3.442 5.426 5.096 6.913 5.737v-3.091c0-.274.162-.518.416-.625a.672.672 0 0 1 .739.143c2.376 2.331 5.145 2.622 6.913 2.458-1.846-1.106-2.88-2.389-2.936-2.458a.665.665 0 0 1-.107-.65.654.654 0 0 1 .482-.437c2.478-.576 3.997-2.266 4.745-3.348-6.925-.086-15.023-1.025-23.516-6.17-6.129-3.711-9.237-7.33-10.755-9.669v1.27a.667.667 0 0 1-.343.588.67.67 0 0 1-.678 0l-.343-.22v1.445c0 3.181-1.11 6.57-3.164 6.57-2.063 0-3.173-3.389-3.173-6.57 0-2.03-.004-4.173-.013-5.504-.833-.494-2.857-1.976-4.58-5.111zm-13.064.035c-1.719 3.108-3.727 4.578-4.56 5.076-.005 1.327-.013 3.475-.013 5.505 0 3.18-1.115 6.57-3.173 6.57-2.053 0-3.168-3.39-3.168-6.57v-1.446c-.14.085-.319.208-.34.22a.653.653 0 0 1-.677 0 .667.667 0 0 1-.344-.587V81.98c-1.519 2.335-4.622 5.957-10.751 9.665-8.497 5.145-16.598 6.084-23.524 6.17.748 1.082 2.27 2.772 4.741 3.348a.657.657 0 0 1 .49.437.667.667 0 0 1-.11.649c-.053.07-1.094 1.356-2.952 2.47 1.784.152 4.528-.114 6.93-2.47.2-.196.49-.245.742-.143.25.106.413.351.413.625v3.09a16.344 16.344 0 0 0 6.92-5.737.69.69 0 0 1 .724-.281.68.68 0 0 1 .51.58c.02.134.33 2.752-.339 5.394 1.12-.78 2.625-2.135 3.577-4.234.135-.29.441-.433.764-.385.31.07.535.343.535.666v3.356c1.747-1.078 5.312-3.646 6.374-7.174a.667.667 0 0 1 .747-.482c.335.053.58.335.58.674v5.496c2.707-2.842 4.44-5.81 5.007-8.795.069-.343.375-.633.738-.547a.68.68 0 0 1 .613.678l-.004 3.021c1.111-1.045 2.781-2.809 3.683-4.68a.682.682 0 0 1 .764-.363c.31.066.531.343.531.658v1.613c.882-.499 2.163-1.421 3.099-2.696-.11-1.388-.18-4.568 1.11-7.851l-.967.48a.684.684 0 0 1-.98-.579c-.008-.232-.119-4.602 2.67-8.664a8.377 8.377 0 0 1-.359-1.49zm3.306.103c-3.287 3.026-4.047 7.007-4.214 8.902l1.69-.85a.7.7 0 0 1 .796.148.678.678 0 0 1 .102.8c-1.625 2.882-1.866 6.01-1.837 7.868.637-.8 1.376-1.523 2.29-2.009a.668.668 0 0 1 .67.021.687.687 0 0 1 .327.584v4.986l.727-.543a.646.646 0 0 1 .681-.078.68.68 0 0 1 .4.56c.004.032.274 2.825 1.589 5.153 1.31-2.328 1.584-5.12 1.584-5.153a.68.68 0 0 1 .4-.56.648.648 0 0 1 .682.078l.731.543v-4.986a.682.682 0 0 1 .997-.605c.914.486 1.645 1.209 2.282 2.005.029-1.862-.212-4.994-1.833-7.865a.679.679 0 0 1 .098-.8.7.7 0 0 1 .8-.146l1.69.849c-.17-1.895-.922-5.876-4.209-8.902-.29 1.715-1.009 4.953-2.626 8.073a.673.673 0 0 1-.595.367.683.683 0 0 1-.609-.367c-1.609-3.116-2.323-6.358-2.613-8.073zm-1.532 16.75c-2.07 1.784-3.042 5.055-3.425 6.766l1.617-.544a.68.68 0 0 1 .669.14.678.678 0 0 1 .217.645l-1.634 7.767 1.01-.748a.654.654 0 0 1 .71-.061.677.677 0 0 1 .371.604v4.561l1.483-2.213a.672.672 0 0 1 .673-.294.68.68 0 0 1 .547.49c.412 1.543 1.72 4.84 2.516 6.779.792-1.94 2.102-5.236 2.51-6.779a.676.676 0 0 1 .548-.49.653.653 0 0 1 .677.294l1.475 2.214V105.9a.68.68 0 0 1 .375-.604.654.654 0 0 1 .711.06l1.012.748-1.628-7.767a.675.675 0 0 1 .211-.645.65.65 0 0 1 .666-.139l1.613.544c-.384-1.711-1.352-4.982-3.414-6.766v5.055a.689.689 0 0 1-.37.612.674.674 0 0 1-.716-.064l-.902-.682c-.262 1.376-.87 3.682-2.226 5.524a.69.69 0 0 1-.543.279.679.679 0 0 1-.546-.279c-1.36-1.842-1.965-4.148-2.222-5.516l-.902.674c-.2.155-.482.183-.711.064s-.372-.35-.372-.612v-5.055zm13.533 3.994c.69 1.915.934 3.552.955 3.695a.68.68 0 0 1-.245.613.655.655 0 0 1-.649.118l-1.593-.53 1.756 8.358a.674.674 0 0 1-.302.71.67.67 0 0 1-.768-.024l-1.367-1.013v5.174l2.352 3.19.906-2.255c.11-.277.372-.412.67-.433.29.02.54.225.612.503.6 2.205 2.107 4.671 3.202 6.255v-2.907c0-.351.261-.641.608-.674.348-.061.662.192.735.535.596 2.854 2.446 4.912 3.638 5.982v-4.03c0-.331.229-.613.551-.674.319-.02.645.123.76.429 1.282 3.324 3.666 5.561 5.03 6.635v-1.862c0-.31.205-.576.51-.653.303-.098.61.053.76.326.883 1.58 2.365 2.781 3.426 3.496l-.604-3.034a.677.677 0 0 1 .372-.748c.285-.118.62-.056.817.18a19.381 19.381 0 0 0 3.642 3.377c-.735-2.89-.323-5.626-.307-5.765a.685.685 0 0 1 .576-.572.703.703 0 0 1 .719.388c2.013 4.34 5.508 5.52 7.134 5.835l-.719-3.598a.696.696 0 0 1 .36-.739.697.697 0 0 1 .804.14c2.164 2.274 4.528 3.053 5.978 3.315l-2.054-2.916a.686.686 0 0 1 .483-1.061c2.87-.355 5.034-1.618 6.333-2.602-.18 0-.36.005-.56.005-3.621 0-10.739-.666-19.17-4.92-8.286-4.182-14.044-9.213-16.66-14.472l.004 3.177c0 3.18-1.11 6.57-3.169 6.57-2.062 0-3.173-3.39-3.173-6.57 0-2.144-.004-4.259-.004-5.46a13.44 13.44 0 0 1-2.347-1.494h-.002zm-17.577.035a13.21 13.21 0 0 1-2.299 1.458c0 1.205-.003 3.315-.003 5.459 0 3.18-1.115 6.57-3.173 6.57-2.053 0-3.17-3.39-3.17-6.57V99.1c-2.612 5.26-8.369 10.29-16.654 14.472-8.885 4.487-16.325 4.924-19.731 4.916 1.299.984 3.455 2.246 6.333 2.601.241.029.441.184.54.396a.68.68 0 0 1-.07.665l-2.038 2.912c1.454-.27 3.826-1.05 5.978-3.312a.68.68 0 0 1 1.16.6l-.726 3.598c1.633-.315 5.128-1.495 7.145-5.835a.667.667 0 0 1 .71-.388.68.68 0 0 1 .576.572c.02.139.433 2.874-.31 5.765a19.262 19.262 0 0 0 3.646-3.377.7.7 0 0 1 .82-.18.695.695 0 0 1 .372.748l-.612 3.034c1.066-.718 2.557-1.92 3.43-3.496.147-.273.473-.424.763-.326a.673.673 0 0 1 .507.653v1.862c1.368-1.074 3.753-3.31 5.035-6.635.118-.306.449-.445.75-.429.332.062.56.343.56.674v4.03c1.189-1.07 3.038-3.128 3.638-5.982.078-.343.388-.596.74-.535a.675.675 0 0 1 .608.674v2.907c1.09-1.584 2.601-4.05 3.193-6.255a.69.69 0 0 1 .616-.503c.34.029.564.16.67.425l.91 2.266 2.312-3.124v-5.242l-1.36 1.012a.684.684 0 0 1-1.073-.686l1.755-8.358-1.597.53a.655.655 0 0 1-.649-.118.678.678 0 0 1-.24-.613c.016-.143.26-1.76.938-3.658zm5.31 14.744-1.809 2.718.216 32.394c1.577-.55 3.224-.93 4.984-.93 1.753 0 3.411.384 4.984.934l.216-32.391-1.817-2.727c-.93 2.715-2.678 6.863-2.763 7.071a.672.672 0 0 1-.62.412.69.69 0 0 1-.631-.412c-.086-.208-1.826-4.356-2.759-7.07zm3.401 36.032c-4.317 0-8.182 1.964-10.608 5.405-2.495 3.535-3.135 8.037-1.708 12.044.31.636.644 1.374.93 2.12a.904.904 0 0 1-.461 1.146.918.918 0 0 1-1.175-.375c-.379-.69-.722-1.43-.999-2.21-2.32-4.815-5.94-10.437-13.123-10.437-6.479 0-11.754 5.268-11.754 11.742 0 1.712.38 3.36 1.088 4.904.759.449 1.476.942 2.243 1.366.155.082.31.167.46.249a73.698 73.698 0 0 0 13.788 5.703 74.42 74.42 0 0 0 6.124 1.578c.118.026.228.058.343.082 2.124.433 4.293.742 6.478.991.558.061 1.12.118 1.683.172 2.214.195 4.448.338 6.711.338s4.493-.143 6.699-.338c.57-.053 1.138-.11 1.7-.172 2.177-.249 4.334-.558 6.45-.987.15-.032.301-.077.456-.11a74.24 74.24 0 0 0 5.981-1.54 73.395 73.395 0 0 0 14.355-6.005c.726-.4 1.41-.869 2.124-1.293a11.577 11.577 0 0 0 1.105-4.938c0-6.474-5.263-11.742-11.741-11.742-7.196 0-10.817 5.622-13.165 10.527a11.715 11.715 0 0 1-1.011 2.14.923.923 0 0 1-1.194.33.904.904 0 0 1-.409-1.162c.314-.73.637-1.451.983-2.173 1.382-3.918.75-8.415-1.744-11.95-2.426-3.44-6.3-5.405-10.61-5.405z" fill="#094" stroke="#094" stroke-width=".52918"/>
 <path d="M153.558 106.734c0 26.085-13.562 49.016-33.979 62.24.297-1.117.477-2.266.477-3.452 0-7.47-6.08-13.55-13.546-13.55-5.934 0-9.667 3.228-12.27 7.083a15.176 15.176 0 0 0-2.784-8.599 14.416 14.416 0 0 0-5.305-4.58l-.208-31.232 1.96 2.66c.143.2.367.298.632.274a.674.674 0 0 0 .546-.42l.68-1.707c1.394 3.313 3.916 6.475 4.039 6.63.179.228.48.314.75.216a.68.68 0 0 0 .456-.64v-1.406c1.577 2.69 3.798 4.157 3.924 4.238.212.135.477.151.693.025a.668.668 0 0 0 .355-.595v-2.56c2.184 3.517 5.15 5.315 5.305 5.404.208.13.47.122.685.008a.681.681 0 0 0 .342-.59v-1.085c1.732 1.924 3.888 2.992 3.998 3.049.233.118.51.085.713-.073a.668.668 0 0 0 .249-.668l-.44-2.189c2.094 1.989 3.908 2.885 3.998 2.93a.68.68 0 0 0 .778-.126c.204-.2.26-.505.139-.766-.714-1.561-.93-3.289-.958-4.625 3.146 4.462 7.784 4.67 8.012 4.678h.02a.694.694 0 0 0 .518-.237.682.682 0 0 0 .147-.574l-.501-2.51c3.358 2.575 6.646 2.445 6.821 2.461a.685.685 0 0 0 .57-.379.673.673 0 0 0-.044-.689l-2.266-3.223c4.72-.954 7.36-3.986 7.474-4.128a.66.66 0 0 0 .082-.762.642.642 0 0 0-.693-.351c-.085.016-9.3 1.202-20.877-4.638-4.45-2.245-8.08-4.73-10.905-7.343v-3.835c2.392 3.594 6.492 5.685 6.708 5.791.208.106.452.09.66-.029a.68.68 0 0 0 .318-.579v-2.07c1.94 2.56 4.369 3.554 4.495 3.603a.62.62 0 0 0 .253.053.679.679 0 0 0 .615-.966c-.7-1.508-.888-3.284-.909-4.589 3.285 3.856 7.164 5.021 7.344 5.074a.718.718 0 0 0 .595-.11.678.678 0 0 0 .273-.542v-2.604c4.214 3.102 8.839 1.504 9.047 1.43a.678.678 0 0 0 .448-.635.685.685 0 0 0-.436-.64c-1.601-.603-2.8-1.544-3.505-2.2 3.587-1.341 5.058-4.58 5.127-4.724a.723.723 0 0 0-.053-.652.689.689 0 0 0-.57-.305c-6.977 0-15.275-.705-23.95-5.962a42.422 42.422 0 0 1-3.705-2.523l-.538-3.99c2.734 3.293 6.61 4.822 6.81 4.9a.67.67 0 0 0 .72-.156.67.67 0 0 0 .156-.721l-.909-2.368c2.262 1.944 4.817 3.154 4.964 3.22a.667.667 0 0 0 .733-.099c.204-.175.281-.456.204-.713l-1.19-3.859c3.696 2.412 6.805 2.033 6.96 2.017a.691.691 0 0 0 .563-.48.692.692 0 0 0-.216-.71c-1.361-1.145-2.413-2.82-2.975-3.843 4.283-.472 7.009-3.651 7.127-3.798a.674.674 0 0 0 .102-.721.684.684 0 0 0-.62-.391c-12.548 0-20.119-4.096-26.794-8.29a35.224 35.224 0 0 1-2.828-1.996v-2.905c2.425 2.73 4.858 3.614 4.976 3.655a.712.712 0 0 0 .228.037c.135 0 .273-.04.387-.126a.67.67 0 0 0 .29-.55v-3.668c3.305 4.083 7.673 4.336 7.885 4.344.224-.024.449-.094.579-.285a.676.676 0 0 0 .082-.644l-1.443-3.61c6.802-.233 7.715-2.89 7.8-3.204a.684.684 0 0 0-.603-.848c-6.027-.489-11.056-2.164-17.356-5.79-2.865-1.643-4.899-3.269-6.443-4.752V45.06c2.657 3.102 6.166 4.365 6.337 4.422a.61.61 0 0 0 .224.04c.18 0 .363-.072.493-.207a.69.69 0 0 0 .143-.722l-1.451-3.61c6.117-.208 6.826-2.352 6.911-2.804a.683.683 0 0 0-.525-.782c-10.901-2.38-15.8-9.17-17.61-12.535 4.023 1.858 7.442-.714 7.479-.742a.66.66 0 0 0 .244-.66.663.663 0 0 0-.464-.518c-5.779-1.744-8.632-4.829-9.724-6.308.212-.024.424-.02.628-.065a.698.698 0 0 0 .505-.468.684.684 0 0 0-.155-.665c-.056-.056-5.383-5.705-7.563-12.939-.176-.574-1.13-.574-1.3 0-2.18 7.226-7.474 12.882-7.527 12.94a.676.676 0 0 0-.155.664c.07.236.265.411.501.468.204.045.416.04.624.065-1.093 1.48-3.941 4.564-9.72 6.308a.686.686 0 0 0-.472.518.694.694 0 0 0 .244.66c.04.029 3.456 2.616 7.49.742-1.813 3.366-6.712 10.155-17.613 12.535a.68.68 0 0 0-.521.782c.082.448.79 2.596 6.907 2.804l-1.447 3.61a.682.682 0 0 0 .632.93.664.664 0 0 0 .228-.04c.172-.058 3.672-1.321 6.33-4.423v2.51c-1.537 1.484-3.583 3.11-6.44 4.757-6.304 3.626-11.333 5.301-17.356 5.79a.68.68 0 0 0-.5.282.697.697 0 0 0-.103.566c.086.314.995 2.97 7.804 3.203l-1.446 3.61a.653.653 0 0 0 .082.645c.13.191.379.28.578.285.212-.008 4.585-.26 7.886-4.344v3.667c0 .22.106.428.285.55a.66.66 0 0 0 .391.127c.073 0 .151-.013.224-.037.119-.04 2.552-.92 4.98-3.651v2.901a35.243 35.243 0 0 1-2.828 1.997c-6.675 4.193-14.239 8.289-26.798 8.289a.675.675 0 0 0-.517 1.113c.118.146 2.844 3.325 7.132 3.798-.563 1.022-1.614 2.697-2.975 3.842a.676.676 0 0 0 .342 1.19c.147.017 3.264.404 6.96-2.017l-1.19 3.86a.675.675 0 0 0 .937.811c.151-.065 2.702-1.276 4.96-3.22l-.9 2.368a.663.663 0 0 0 .15.721.67.67 0 0 0 .722.155c.2-.077 4.083-1.601 6.817-4.898l-.542 3.99c-1.1.827-2.294 1.67-3.7 2.522-8.684 5.257-16.985 5.962-23.954 5.962a.684.684 0 0 0-.57.306.7.7 0 0 0-.054.652c.07.142 1.537 3.382 5.131 4.723-.709.656-1.907 1.593-3.513 2.2a.677.677 0 0 0-.44.64.682.682 0 0 0 .453.636c.216.074 4.837 1.679 9.05-1.43v2.604c0 .211.099.415.274.542a.691.691 0 0 0 .59.11c.184-.054 4.064-1.22 7.352-5.074-.024 1.3-.212 3.077-.913 4.584a.677.677 0 0 0 .616.97.602.602 0 0 0 .248-.053c.127-.048 2.555-1.043 4.495-3.602v2.07c0 .236.118.452.322.578a.725.725 0 0 0 .66.03c.208-.107 4.312-2.197 6.704-5.787v3.83c-2.82 2.612-6.451 5.098-10.901 7.344-11.565 5.831-20.792 4.65-20.889 4.637a.674.674 0 0 0-.689.35.674.674 0 0 0 .086.763c.118.143 2.759 3.175 7.474 4.128l-2.258 3.224a.675.675 0 0 0-.053.688c.11.22.33.367.574.38.176 0 3.464.106 6.826-2.462l-.505 2.51a.685.685 0 0 0 .147.575c.138.159.35.277.542.236.22-.008 4.857-.216 8.003-4.678-.028 1.337-.236 3.064-.957 4.625a.679.679 0 0 0 .913.893c.098-.046 1.91-.942 3.997-2.93l-.436 2.188a.672.672 0 0 0 .253.668c.2.16.477.192.709.073.114-.057 2.266-1.125 4.002-3.044v1.08a.677.677 0 0 0 1.023.583c.15-.09 3.121-1.887 5.306-5.404v2.56c0 .252.134.476.354.594.224.126.489.11.693-.024.126-.082 2.351-1.549 3.932-4.243v1.41a.678.678 0 0 0 1.207.424c.122-.155 2.645-3.317 4.03-6.634l.689 1.715c.09.225.297.388.546.416.244.04.48-.07.632-.273l1.923-2.604-.204 31.175a14.46 14.46 0 0 0-5.31 4.58 15.15 15.15 0 0 0-2.77 8.6c-2.593-3.836-6.334-7.084-12.275-7.084-7.474 0-13.554 6.08-13.554 13.55 0 1.178.18 2.315.469 3.428-20.396-13.232-33.95-36.163-33.95-62.25L1.847 1.81h155.08zM66.94 96.346c0 1.076-.004 3.46-.004 5.864 0 3.17-1.068 5.2-1.81 5.2-.737 0-1.805-2.03-1.805-5.2v-2.396c.559-.469 2.205-1.899 3.615-3.806v.322c0 .008.004.008.004.016m.013-17.17a1032.57 1032.57 0 0 0-.016 5.849c0 3.17-1.068 5.2-1.81 5.2-.737 0-1.805-2.03-1.805-5.2v-2.453a20.992 20.992 0 0 0 3.615-3.835v.411c0 .013.012.017.016.03m-.013-17.21-.004 5.872c0 3.174-1.068 5.204-1.81 5.204-.737 0-1.805-2.03-1.805-5.204v-2.421c1.638-1.475 2.845-2.832 3.615-3.863v.399c0 .004.004.008.004.013m6.859-41.331a7.614 7.614 0 0 0 3.15-1.194c.093.912.264 1.695.476 2.384a19.334 19.334 0 0 0-3.121 5.477c-.008.008-.013.008-.016.016a5.92 5.92 0 0 1-2.384 2.021v-2.204c0-.03-.037-.037-.037-.065a.617.617 0 0 0-.318-.497c-.021-.013-.013-.04-.037-.053-.008 0-.017.008-.021.004-.016-.009-.021-.03-.037-.033-.216-.077-.416-.012-.583.11-.029.016-.061-.008-.082.013-2.612 2.188-5.074 1.732-6.492 1.137 6.41-2.348 8.945-6.17 9.5-7.116m7.897-3.015a.67.67 0 0 0-.741-.155.677.677 0 0 0-.416.628c0 2.371-.652 4.091-1.141 5.045-.497-.95-1.158-2.661-1.158-5.045a.674.674 0 0 0-.676-.677.66.66 0 0 0-.485.204c-.016.016-1.679 1.675-4.01 1.736 1.471-1.76 4.434-5.664 6.304-10.567 1.87 4.903 4.85 8.807 6.333 10.567-2.33-.061-3.994-1.72-4.01-1.736m6.284 8.994c-.02-.016-.049.004-.07-.013-.166-.122-.37-.187-.586-.11-.016.009-.024.03-.045.033-.008.004-.016-.008-.021-.004-.024.013-.016.048-.04.061a.62.62 0 0 0-.306.481c-.004.032-.049.04-.049.073v2.208a5.926 5.926 0 0 1-2.38-2.025c-.012-.024-.04-.02-.056-.04a19.63 19.63 0 0 0-3.077-5.412c.208-.701.387-1.492.477-2.425a7.636 7.636 0 0 0 3.15 1.194c.546.945 3.085 4.772 9.507 7.12-1.414.603-3.871 1.071-6.504-1.142m3.847 35.352c0-.004.008-.008.008-.012v-.4c.775 1.031 1.98 2.388 3.62 3.864v2.42c0 3.175-1.073 5.204-1.806 5.204-.742 0-1.814-2.03-1.814-5.204zm-.004 17.201c0-.008.013-.012.013-.02v-.412c1.267 1.744 2.6 3 3.619 3.835v2.453c0 3.17-1.072 5.2-1.805 5.2-.742 0-1.814-2.03-1.814-5.2 0-2.233-.008-4.589-.013-5.856m.008 17.177c0-.008.004-.008.004-.016v-.322c1.414 1.907 3.065 3.341 3.62 3.806l.003 2.396c0 3.17-1.076 5.2-1.81 5.2-.741 0-1.813-2.03-1.813-5.2 0-2.404-.004-4.788-.004-5.864m-15.848 13.754c.933 2.714 2.674 6.863 2.76 7.07.109.25.354.412.63.412a.672.672 0 0 0 .62-.412c.086-.207 1.834-4.356 2.763-7.07l1.818 2.726-.216 32.39c-1.573-.55-3.232-.933-4.984-.933-1.76 0-3.407.379-4.984.93l-.216-32.395zm2.983-60.651a.66.66 0 0 0 .807 0c1.797-1.333 2.519-3.517 2.804-5.082 1.989 3.187 2.612 6.773 2.808 8.631l-1.402-.864c-.004-.004-.016.004-.021 0a.642.642 0 0 0-.558-.053c-.045.017-.053.065-.099.09-.028.017-.069-.016-.093.004a.68.68 0 0 0-.237.742c.86 2.71.612 5.314.359 6.74-.322-.387-.636-.778-1.007-1.14a.655.655 0 0 0-.684-.155.679.679 0 0 0-.46.533c-.005.037-.486 2.983-1.81 5.36-1.32-2.372-1.805-5.323-1.814-5.36a.668.668 0 0 0-.456-.533.675.675 0 0 0-.689.154c-.366.363-.684.754-1.006 1.146-.253-1.427-.506-4.035.354-6.745a.616.616 0 0 0-.02-.436c-.017-.045-.05-.073-.074-.114-.046-.065-.073-.143-.135-.192-.016-.016-.048.008-.07-.004-.036-.024-.048-.073-.093-.09a.649.649 0 0 0-.562.053c-.016.008-.032-.008-.045 0l-1.41.872c.195-1.866.815-5.448 2.816-8.635.281 1.56.998 3.745 2.795 5.078M76.285 30.64l-1.63 1.084c.159-1.704.872-4.948 3.346-8.346.436.925.84 1.43.872 1.475a.683.683 0 0 0 .525.249h.004a.674.674 0 0 0 .526-.253c.032-.045.42-.534.836-1.422 2.449 3.382 3.162 6.602 3.313 8.297l-1.63-1.084c-.008-.008-.021 0-.033-.008a.6.6 0 0 0-.42-.086c-.024.004-.045-.008-.064 0l-.004-.004a.698.698 0 0 0-.371.253c-.013.016-.037.016-.048.032-.03.053-.013.114-.03.167-.016.053-.064.098-.069.16-.004.031-.265 3.153-2.037 5.008-1.777-1.855-2.038-4.976-2.042-5.009-.004-.07-.048-.118-.07-.18-.015-.048.005-.1-.028-.146-.013-.016-.032-.016-.045-.029a.634.634 0 0 0-.371-.252c-.004-.005-.004 0-.008 0-.02-.009-.04.004-.061 0a.613.613 0 0 0-.408.082c-.016.012-.032 0-.053.012m.057 2.576c.375 1.381 1.116 3.195 2.592 4.397.252.2.61.2.86 0 1.479-1.202 2.229-3.016 2.603-4.397 1.736 3.704 2.087 7.771 2.16 9.621l-2.208-.95c-.008-.003-.021.005-.037 0a.663.663 0 0 0-.453-.015c-.012.004-.012.008-.016.012-.02.004-.029.025-.045.037a.632.632 0 0 0-.293.281c-.013.017-.033.025-.04.046-.022.032.007.064 0 .101-.022.057-.057.106-.057.167 0 .04-.008 3.578-2.038 5.502-2.025-1.916-2.038-5.465-2.038-5.502 0-.061-.037-.11-.053-.167-.008-.037.013-.07 0-.101-.008-.021-.032-.03-.04-.046a.679.679 0 0 0-.306-.289c-.016-.004-.02-.024-.037-.029l-.012-.013a.686.686 0 0 0-.46.017c-.014.004-.025-.004-.038 0l-2.209.95c.07-1.85.424-5.914 2.164-9.622m-1.434 35.087a.656.656 0 0 0-.726-.204l-1.605.534c.424-1.785 1.516-5.375 3.916-8.212.35 1.422 1.06 3.721 2.323 5.49.122.179.33.285.554.285.212 0 .42-.106.546-.281 1.268-1.773 1.985-4.067 2.327-5.494 2.4 2.837 3.493 6.427 3.916 8.212l-1.601-.534a.674.674 0 0 0-.734.204.674.674 0 0 0-.085.75c1.125 2.188.994 4.275.746 5.513a14.039 14.039 0 0 0-1.99-1.846.656.656 0 0 0-.68-.077.676.676 0 0 0-.407.554c-.004.04-.383 3.737-2.038 7.535-1.654-3.79-2.037-7.494-2.041-7.535a.67.67 0 0 0-.404-.554.663.663 0 0 0-.68.077 13.884 13.884 0 0 0-1.993 1.85c-.245-1.239-.38-3.325.745-5.517a.666.666 0 0 0-.09-.75M74.43 82.75a.698.698 0 0 0-.795-.147l-1.687.848c.167-1.891.925-5.865 4.205-8.884.29 1.711 1.003 4.947 2.609 8.056.114.225.35.367.607.367.248 0 .48-.142.595-.367 1.614-3.113 2.33-6.345 2.62-8.056 3.28 3.02 4.03 6.993 4.202 8.884l-1.687-.848a.7.7 0 0 0-.8.147.678.678 0 0 0-.097.798c1.618 2.865 1.858 5.99 1.83 7.85-.636-.795-1.366-1.517-2.279-2.002a.68.68 0 0 0-.994.604v4.976l-.73-.542a.647.647 0 0 0-.68-.078.678.678 0 0 0-.4.559c0 .032-.272 2.82-1.58 5.142-1.313-2.322-1.582-5.11-1.586-5.142a.679.679 0 0 0-.399-.559.645.645 0 0 0-.68.078l-.726.542V90a.685.685 0 0 0-.326-.583.666.666 0 0 0-.668-.02c-.913.484-1.65 1.206-2.286 2.004-.03-1.854.212-4.976 1.833-7.853a.678.678 0 0 0-.101-.798m-.942 14.883a.68.68 0 0 0-.668-.139l-1.614.542c.383-1.707 1.353-4.972 3.42-6.752v5.045c0 .26.142.493.37.611s.51.09.71-.065l.9-.672c.256 1.365.86 3.668 2.217 5.505a.677.677 0 0 0 .546.278.688.688 0 0 0 .542-.278c1.353-1.837 1.96-4.14 2.22-5.513l.901.68a.672.672 0 0 0 .713.065.688.688 0 0 0 .371-.611v-5.045c2.058 1.78 3.024 5.045 3.407 6.752l-1.61-.542a.648.648 0 0 0-.664.139.674.674 0 0 0-.212.644l1.626 7.75-1.01-.745a.652.652 0 0 0-.71-.061.68.68 0 0 0-.374.603v4.552l-1.471-2.21a.652.652 0 0 0-.677-.292.674.674 0 0 0-.546.488c-.407 1.54-1.716 4.83-2.506 6.765-.795-1.935-2.099-5.224-2.51-6.765a.68.68 0 0 0-.546-.488c-.04-.008-.078-.008-.11-.008a.67.67 0 0 0-.563.301l-1.479 2.209v-4.552a.676.676 0 0 0-.37-.603.652.652 0 0 0-.71.06l-1.006.747 1.63-7.751a.677.677 0 0 0-.216-.644m52.83 24.41 2.05 2.91c-1.446-.261-3.806-1.04-5.966-3.31a.696.696 0 0 0-.802-.138.695.695 0 0 0-.359.738l.717 3.59c-1.622-.314-5.11-1.492-7.12-5.824a.702.702 0 0 0-.716-.387.683.683 0 0 0-.575.57c-.016.14-.428 2.87.306 5.755a19.345 19.345 0 0 1-3.635-3.37c-.196-.237-.53-.298-.815-.18a.676.676 0 0 0-.371.746l.603 3.028c-1.06-.713-2.539-1.911-3.42-3.488-.15-.273-.456-.424-.757-.326a.666.666 0 0 0-.51.652v1.858c-1.36-1.072-3.74-3.305-5.02-6.622-.115-.306-.44-.448-.758-.428a.678.678 0 0 0-.55.672v4.023c-1.19-1.068-3.036-3.122-3.631-5.97-.073-.343-.387-.595-.734-.534a.67.67 0 0 0-.607.672v2.902c-1.092-1.582-2.596-4.043-3.195-6.244a.683.683 0 0 0-.611-.5c-.298.02-.559.154-.669.431l-.905 2.25-2.347-3.183v-5.163l1.365 1.01a.668.668 0 0 0 .766.025.673.673 0 0 0 .302-.71l-1.752-8.341 1.59.53a.653.653 0 0 0 .647-.119.68.68 0 0 0 .245-.611 20.522 20.522 0 0 0-.954-3.688c.945.75 1.838 1.243 2.343 1.491 0 1.199.004 3.31.004 5.449 0 3.175 1.109 6.557 3.167 6.557 2.053 0 3.162-3.382 3.162-6.557l-.004-3.17c2.612 5.248 8.358 10.268 16.627 14.441 8.415 4.247 15.518 4.911 19.133 4.911.2 0 .379-.004.558-.004-1.296.982-3.456 2.241-6.32 2.596a.684.684 0 0 0-.482 1.06m.938-19.862c.056.069 1.088 1.348 2.93 2.453-1.765.163-4.528-.127-6.9-2.453a.67.67 0 0 0-.737-.143.675.675 0 0 0-.416.623v3.085c-1.483-.64-4.572-2.29-6.9-5.725a.679.679 0 0 0-.72-.281.683.683 0 0 0-.514.578c-.02.135-.326 2.751.342 5.392-1.124-.779-2.616-2.128-3.578-4.234a.682.682 0 0 0-.758-.383.676.676 0 0 0-.533.664v3.35c-1.745-1.076-5.298-3.64-6.362-7.16-.098-.33-.4-.543-.75-.481a.68.68 0 0 0-.574.672v5.485c-2.702-2.836-4.43-5.799-5.005-8.778-.064-.342-.39-.631-.729-.546a.674.674 0 0 0-.611.677l.004 3.015c-1.109-1.043-2.78-2.804-3.68-4.67-.139-.281-.465-.448-.762-.363a.667.667 0 0 0-.526.656v1.614c-.884-.505-2.188-1.43-3.122-2.722.11-1.402.163-4.56-1.108-7.808l.962.48c.195.099.44.09.644-.02a.696.696 0 0 0 .33-.558c.012-.233.122-4.597-2.661-8.652.11-.297.26-.823.37-1.52 1.72 3.13 3.741 4.61 4.573 5.102.008 1.329.013 3.468.013 5.494 0 3.174 1.108 6.557 3.166 6.557 2.05 0 3.158-3.383 3.158-6.557v-1.443c.135.086.322.208.343.22a.67.67 0 0 0 .676 0 .666.666 0 0 0 .342-.587v-1.267c1.516 2.335 4.617 5.946 10.734 9.65 8.477 5.135 16.558 6.072 23.47 6.157-.747 1.08-2.262 2.767-4.736 3.342a.652.652 0 0 0-.481.436.664.664 0 0 0 .106.648m-5.253-17.454c-1.438-.216-3.667-.9-5.982-2.922a.669.669 0 0 0-.82-.061.667.667 0 0 0-.272.766l1.32 4.303c-1.63-.945-4.242-2.705-5.518-4.849a.673.673 0 0 0-.876-.265.678.678 0 0 0-.342.852l1.65 4.291c-1.821-.99-4.845-3.02-6.271-6.17a.694.694 0 0 0-.811-.37.675.675 0 0 0-.481.741l.758 5.64c-5.045-4.262-6.207-7.694-6.227-7.734-.094-.318-.395-.514-.746-.473a.68.68 0 0 0-.579.672v2.767a19.587 19.587 0 0 1-5.06-5.82.668.668 0 0 0-.767-.321.681.681 0 0 0-.501.656v1.467c-1.19-.913-3.224-2.922-4.564-6.667-.008-.024-.037-.032-.049-.053a9.369 9.369 0 0 0-.326-1.32l1.304.432a.619.619 0 0 0 .648-.127.67.67 0 0 0 .236-.615c-.032-.22-.733-4.552-3.32-8.452.1-.342.566-2.086.52-4.43 2.173 3.415 4.626 5.14 5.543 5.685l.008 5.49c0 3.178 1.108 6.557 3.166 6.557 2.05 0 3.159-3.379 3.159-6.557v-1.268a37.052 37.052 0 0 0 3.472 2.494c6.536 4.108 13.917 8.122 25.829 8.477-1.235.982-3.354 2.282-6.007 2.282a.67.67 0 0 0-.616.954c.045.105.97 2.143 2.523 3.948m-11.113-19.549c-1.663-.383-4.813-1.59-6.936-5.359-.155-.265-.448-.415-.758-.326a.68.68 0 0 0-.51.66v4.801c-1.088-.6-2.987-1.895-4.641-4.291a.68.68 0 0 0-1.239.391v3.77c-3.672-3.179-5.033-5.844-5.053-5.877a.672.672 0 0 0-.762-.362.681.681 0 0 0-.522.664l.004 1.47c-1.247-.892-3.407-2.88-5.16-6.165l.478.298c.207.118.472.13.688.012.22-.118.35-.35.347-.595 0-.248-.07-5.48-2.849-10.208l.999.432c.09.04.175.057.269.057a.737.737 0 0 0 .366-.102.68.68 0 0 0 .31-.554c.004-.049.004-.33 0-.701 1.602 2.474 3.456 3.488 3.562 3.541.216.11.464.102.668-.02a.664.664 0 0 0 .326-.58v-1.201c1.422 2.168 4.275 5.37 9.833 8.566 5.962 3.435 11.02 5.216 16.66 5.848-.856.647-2.747 1.483-6.823 1.483a.672.672 0 0 0-.562.297.707.707 0 0 0-.07.632zM99.848 47.52c-1.524-.807-3.88-2.376-5.396-4.902a.675.675 0 0 0-.762-.306.673.673 0 0 0-.497.652v3.215c-2.18-2.482-2.738-4.262-2.747-4.291-.082-.326-.407-.575-.737-.505a.682.682 0 0 0-.595.676l.004 2.76c-1.007-.857-2.551-2.527-3.44-5.278-.008-.045-.048-.057-.069-.09-.277-1.85-.795-4.063-1.728-6.231l.542.358c.11.073.24.11.375.11a.668.668 0 0 0 .672-.623c.013-.106.07-1.353-.297-3.19 1.137.798 2.164 1.08 2.229 1.091.045.008.09.013.134.013.16 0 .31-.049.433-.15a.677.677 0 0 0 .248-.527v-.126c2.079 3.631 6.96 9.752 17.12 12.295-.725.51-2.363 1.174-6.04 1.174-.223 0-.44.11-.562.297a.685.685 0 0 0-.072.628zm-39.815-3.578a.68.68 0 0 0-.567-.297c-3.688 0-5.33-.669-6.039-1.17 10.155-2.543 15.037-8.656 17.12-12.291v.118c0 .204.09.396.249.526a.68.68 0 0 0 .566.138c.065-.013 1.068-.29 2.2-1.068-.366 1.826-.305 3.06-.297 3.167.016.24.16.452.375.558a.716.716 0 0 0 .677-.045l.546-.363c-.946 2.189-1.463 4.418-1.74 6.276-.013.02-.037.029-.04.049-.885 2.75-2.425 4.421-3.436 5.277l.008-2.759a.676.676 0 0 0-.587-.668.666.666 0 0 0-.746.493c-.008.032-.566 1.81-2.742 4.291v-3.211a.677.677 0 0 0-.497-.652.668.668 0 0 0-.767.305c-1.507 2.515-3.867 4.084-5.395 4.903l1.178-2.95a.664.664 0 0 0-.065-.628m-4.462 15.55a.664.664 0 0 0-.762.327c-2.124 3.77-5.274 4.976-6.932 5.359l1.365-3.42a.659.659 0 0 0-.065-.631.672.672 0 0 0-.562-.297c-4.083 0-5.974-.84-6.822-1.48 5.64-.635 10.697-2.416 16.663-5.852 5.559-3.195 8.407-6.394 9.833-8.566v1.198c-.004.24.123.46.322.583.208.13.457.134.669.02.106-.052 1.935-1.055 3.529-3.492-.004.347 0 .604 0 .653a.694.694 0 0 0 .314.554.693.693 0 0 0 .631.045l1.01-.432c-2.787 4.727-2.86 9.96-2.86 10.208 0 .245.13.477.35.595.22.118.481.11.685-.013l.53-.326c-1.76 3.301-3.924 5.298-5.176 6.195l.005-1.472c0-.317-.22-.59-.522-.664a.675.675 0 0 0-.77.363c-.016.032-1.374 2.698-5.05 5.876v-3.77a.675.675 0 0 0-1.234-.382c-1.663 2.388-3.554 3.684-4.646 4.283v-4.8a.68.68 0 0 0-.505-.661m-6.66 22.206a.674.674 0 0 0-.88.265c-1.275 2.143-3.883 3.904-5.517 4.85l1.32-4.304a.67.67 0 0 0-.277-.766.68.68 0 0 0-.81.061c-2.315 2.021-4.545 2.706-5.987 2.922 1.556-1.805 2.482-3.843 2.526-3.949a.68.68 0 0 0-.045-.644.685.685 0 0 0-.574-.31c-2.653 0-4.776-1.3-6.003-2.282 11.92-.354 19.296-4.368 25.829-8.476a36.442 36.442 0 0 0 3.468-2.494v1.267c0 3.179 1.112 6.557 3.162 6.557 2.054 0 3.167-3.378 3.167-6.557l.004-5.489c.917-.542 3.345-2.25 5.513-5.632-.04 2.327.428 4.047.526 4.38-2.596 3.9-3.289 8.229-3.321 8.449a.687.687 0 0 0 .236.623c.183.143.42.2.648.119l1.3-.432c-.15.464-.257.917-.326 1.353-.004.012-.016.012-.016.02-1.349 3.746-3.374 5.755-4.564 6.667V76.43a.685.685 0 0 0-.506-.656.67.67 0 0 0-.766.322 19.648 19.648 0 0 1-5.061 5.82v-2.767a.68.68 0 0 0-.579-.673.705.705 0 0 0-.754.473c-.008.04-1.173 3.472-6.218 7.739l.766-5.644a.681.681 0 0 0-.49-.742.682.682 0 0 0-.802.37c-1.435 3.15-4.454 5.18-6.28 6.17l1.646-4.29a.67.67 0 0 0-.334-.853m-.15 19.394c-.322-.048-.628.094-.763.384-.95 2.094-2.453 3.447-3.57 4.226.669-2.637.36-5.25.339-5.384a.678.678 0 0 0-.51-.578.687.687 0 0 0-.721.28 16.312 16.312 0 0 1-6.907 5.726v-3.084a.677.677 0 0 0-.412-.624.686.686 0 0 0-.742.143c-2.396 2.351-5.135 2.616-6.915 2.465 1.854-1.112 2.893-2.396 2.946-2.465a.665.665 0 0 0 .11-.648.656.656 0 0 0-.49-.436c-2.465-.575-3.985-2.262-4.73-3.342 6.91-.086 14.996-1.023 23.476-6.158 6.117-3.7 9.214-7.315 10.73-9.646v1.264c0 .244.127.464.343.587a.65.65 0 0 0 .676 0c.021-.013.2-.135.338-.22v1.442c0 3.175 1.113 6.557 3.163 6.557 2.054 0 3.166-3.382 3.166-6.557 0-2.025.008-4.169.013-5.493.831-.498 2.836-1.965 4.552-5.066.106.68.252 1.194.358 1.488-2.783 4.054-2.673 8.415-2.665 8.647a.683.683 0 0 0 .978.579l.966-.481c-1.288 3.276-1.218 6.45-1.108 7.836-.934 1.272-2.213 2.193-3.093 2.69v-1.61c0-.313-.22-.59-.53-.656a.68.68 0 0 0-.762.363c-.9 1.866-2.568 3.627-3.676 4.67l.004-3.015a.678.678 0 0 0-.611-.677c-.363-.085-.669.204-.738.546-.566 2.98-2.294 5.942-4.996 8.778v-5.485a.68.68 0 0 0-.579-.673.665.665 0 0 0-.746.481c-1.059 3.521-4.617 6.084-6.36 7.16v-3.35a.68.68 0 0 0-.535-.664m15.755 14.915c-.35-.061-.66.192-.737.534-.6 2.849-2.445 4.903-3.631 5.97v-4.022a.678.678 0 0 0-.559-.672c-.301-.017-.631.122-.75.427-1.279 3.318-3.659 5.55-5.024 6.623v-1.859a.672.672 0 0 0-.505-.652c-.29-.098-.616.054-.762.326-.872 1.573-2.36 2.771-3.424 3.489l.612-3.028a.693.693 0 0 0-.371-.746.7.7 0 0 0-.82.18 19.226 19.226 0 0 1-3.638 3.37c.741-2.886.33-5.616.31-5.755a.679.679 0 0 0-.575-.57.667.667 0 0 0-.71.387c-2.012 4.332-5.5 5.51-7.13 5.823l.724-3.59a.679.679 0 0 0-1.157-.599c-2.148 2.258-4.515 3.036-5.966 3.305l2.033-2.906a.68.68 0 0 0 .07-.664.684.684 0 0 0-.538-.395c-2.873-.355-5.025-1.614-6.32-2.596 3.398.008 10.823-.428 19.69-4.906 8.269-4.173 14.015-9.194 16.623-14.442v3.17c0 3.175 1.113 6.557 3.163 6.557 2.053 0 3.166-3.382 3.166-6.557 0-2.14.004-4.246.004-5.448a13.174 13.174 0 0 0 2.294-1.455c-.676 1.895-.92 3.508-.937 3.651a.677.677 0 0 0 .24.611c.184.151.416.2.648.119l1.594-.53-1.753 8.342a.682.682 0 0 0 1.072.685l1.357-1.011v5.232l-2.306 3.118-.91-2.262c-.105-.265-.33-.395-.668-.424a.69.69 0 0 0-.615.502c-.59 2.2-2.099 4.662-3.187 6.243v-2.902c0-.346-.26-.64-.607-.672m52.623 54.449c-.713.424-1.398.892-2.123 1.292a73.35 73.35 0 0 1-14.35 6.003 74.21 74.21 0 0 1-5.978 1.54c-.154.032-.305.077-.456.11-2.115.427-4.27.737-6.447.986-.562.061-1.129.118-1.7.171-2.204.196-4.433.338-6.695.338-2.261 0-4.495-.142-6.708-.338-.562-.053-1.124-.11-1.683-.171-2.184-.249-4.352-.559-6.475-.99-.114-.025-.224-.057-.342-.083a74.382 74.382 0 0 1-6.121-1.577 73.672 73.672 0 0 1-13.783-5.701c-.15-.082-.306-.167-.46-.248-.766-.424-1.484-.917-2.242-1.366a11.677 11.677 0 0 1-1.088-4.902c0-6.472 5.273-11.737 11.75-11.737 7.18 0 10.798 5.62 13.117 10.432.277.778.62 1.52.999 2.209a.917.917 0 0 0 1.173.375.904.904 0 0 0 .46-1.146 26.773 26.773 0 0 0-.928-2.119c-1.427-4.006-.787-8.505 1.707-12.038 2.425-3.44 6.288-5.403 10.604-5.403 4.308 0 8.179 1.964 10.604 5.403 2.494 3.534 3.126 8.028 1.744 11.944a57.113 57.113 0 0 0-.982 2.172.903.903 0 0 0 .408 1.162.922.922 0 0 0 1.194-.33c.4-.656.742-1.386 1.01-2.14 2.348-4.902 5.966-10.522 13.16-10.522 6.475 0 11.736 5.265 11.736 11.737 0 1.736-.383 3.39-1.104 4.935M158.504.275a.907.907 0 0 0-.648-.277H.906a.902.902 0 0 0-.9.937l3.39 105.8c0 27.548 14.797 51.65 36.807 64.971.082.119.163.237.281.306.783.465 1.586.876 2.38 1.312.204.11.404.224.607.334a75.16 75.16 0 0 0 12.6 5.355c.506.163 1.011.322 1.52.477 2.075.62 4.161 1.178 6.28 1.618.099.02.2.048.298.07 2.176.443 4.377.753 6.594 1.006.586.069 1.181.126 1.776.179 2.274.208 4.56.35 6.855.35 2.298 0 4.584-.142 6.862-.35.591-.053 1.178-.11 1.765-.175 2.217-.253 4.422-.567 6.602-1.015.122-.02.236-.057.354-.082a75.02 75.02 0 0 0 6.195-1.597c.517-.155 1.03-.318 1.544-.481a75.495 75.495 0 0 0 12.548-5.33c.237-.127.465-.257.701-.388.754-.415 1.528-.807 2.274-1.255a.87.87 0 0 0 .281-.302c22.04-13.314 36.852-37.422 36.848-64.975L158.755.943a.9.9 0 0 0-.249-.66"/>
</svg>
