<?xml version="1.0" encoding="UTF-8" standalone="no"?>
<!-- Created with Inkscape (http://www.inkscape.org/) -->

<svg
   version="1.0"
   width="208.86046"
   height="244.65999"
   id="svg2780"
   inkscape:version="1.4 (86a8ad7, 2024-10-11)"
   sodipodi:docname="Châtillon-blazon.svg"
   xml:space="preserve"
   xmlns:inkscape="http://www.inkscape.org/namespaces/inkscape"
   xmlns:sodipodi="http://sodipodi.sourceforge.net/DTD/sodipodi-0.dtd"
   xmlns="http://www.w3.org/2000/svg"
   xmlns:svg="http://www.w3.org/2000/svg"
   xmlns:rdf="http://www.w3.org/1999/02/22-rdf-syntax-ns#"
   xmlns:cc="http://creativecommons.org/ns#"
   xmlns:dc="http://purl.org/dc/elements/1.1/"><metadata
     id="metadata27"><rdf:RDF><cc:Work
         rdf:about=""><dc:format>image/svg+xml</dc:format><dc:type
           rdf:resource="http://purl.org/dc/dcmitype/StillImage" /></cc:Work></rdf:RDF></metadata><sodipodi:namedview
     pagecolor="#ffffff"
     bordercolor="#666666"
     borderopacity="1"
     objecttolerance="10"
     gridtolerance="10"
     guidetolerance="10"
     inkscape:pageopacity="0"
     inkscape:pageshadow="2"
     inkscape:window-width="3256"
     inkscape:window-height="1417"
     id="namedview25"
     showgrid="false"
     inkscape:zoom="4"
     inkscape:cx="68.875"
     inkscape:cy="118.125"
     inkscape:window-x="-8"
     inkscape:window-y="-8"
     inkscape:window-maximized="1"
     inkscape:current-layer="svg2780"
     inkscape:measure-start="104.255,149.787"
     inkscape:measure-end="104.255,126.383"
     showguides="true"
     inkscape:object-paths="true"
     inkscape:snap-intersection-paths="true"
     inkscape:pagecheckerboard="0"
     inkscape:snap-object-midpoints="true"
     inkscape:showpageshadow="2"
     inkscape:deskcolor="#d1d1d1" /><defs
     id="defs2782" /><path
     id="path4212-6"
     style="fill:#ffffff;fill-opacity:1;fill-rule:evenodd;stroke:#000000;stroke-width:2;stroke-linecap:butt;stroke-miterlimit:4;stroke-dashoffset:0;stroke-opacity:1;stroke-dasharray:none"
     d="M 1.000033,149.10355 V 0.99999834 H 207.89951 V 149.10355 c 0,51.44535 -51.75421,94.56785 -103.46927,94.56785 -51.71506,0 -103.430207,-43.1225 -103.430207,-94.56785 z"
     inkscape:connector-curvature="0"
     sodipodi:nodetypes="sccscs" /><g
     id="g39"
     transform="matrix(0.94816707,0,0,0.94944556,8.7330037,9.1539341)"
     style="stroke-width:1.05396"><path
       id="path2-1-4-1-7"
       style="fill:#009645;fill-opacity:1;stroke:#000000;stroke-width:1.05396;stroke-miterlimit:10;stroke-opacity:1"
       d="m 161.86601,109.17221 v 67.88247 c 0,5.9824 -2.08077,11.84722 -6.92557,15.18954 -1.27596,0.88026 27.61328,0.88026 26.33731,0 -4.8448,-3.34232 -6.92556,-9.20714 -6.92556,-15.18954 v -67.88247 h -6.24153 z"
       sodipodi:nodetypes="cssssccc" /><path
       id="path1-4-5-3-5-1"
       style="fill:#009645;fill-opacity:1;stroke:#000000;stroke-width:1.05396;stroke-miterlimit:10;stroke-opacity:1"
       d="m 157.68389,99.49182 c -3.75503,13.58287 -12.62425,29.94265 -17.17773,35.77482 2.98909,-0.28164 5.14827,-1.23125 7.5,-3.41303 0.39834,0.85014 0.70997,1.44406 1.57227,2.48888 1.09446,-1.544 2.23816,-3.5178 2.98046,-5.99852 0.63071,1.56409 1.17044,2.26965 1.98438,3.17359 8.04535,-5.55853 10.81877,-8.653 13.56641,-20.80581 2.84139,12.18642 5.60834,15.16412 13.56445,20.80581 0.81394,-0.90394 1.35366,-1.6095 1.98437,-3.17359 0.7423,2.48072 1.88601,4.45452 2.98047,5.99852 0.8623,-1.04482 1.17393,-1.63874 1.57227,-2.48888 2.35173,2.18178 4.51091,3.13139 7.5,3.41303 -4.55348,-5.83217 -13.42271,-22.19195 -17.17774,-35.77482 h -10.42382 z"
       sodipodi:nodetypes="ccccccccccccccc" /><path
       id="path1-7-5-1-9-7"
       style="fill:#009645;fill-opacity:1;stroke:#000000;stroke-width:1.05396;stroke-miterlimit:10;stroke-opacity:1"
       d="m 168.10968,87.072608 -15.81641,0.04828 c -2.60598,15.246242 -9.47972,27.968062 -14.0332,33.800232 4.545,-0.42824 6.5085,-1.87112 9.58007,-6.29256 0.54801,1.19204 0.38757,2.71416 0.15625,4.50098 3.14361,-3.18851 6.99412,-7.37636 8.37305,-13.12253 1.114,0.88869 1.29752,2.0423 1.9043,3.85409 3.63241,-4.23645 7.97142,-10.99807 9.83496,-17.235262 1.86354,6.237192 4.99805,12.862402 9.38046,17.300502 0.80858,-1.82638 1.20451,-3.10699 2.3588,-3.91933 1.37893,5.74617 5.97943,11.2554 9.12304,14.44392 -0.23132,-1.78682 -0.39176,-3.30895 0.15625,-4.50099 3.32157,6.0345 5.03508,5.86433 9.58008,6.29257 -4.55348,-5.83218 -12.17722,-19.87538 -14.7832,-35.121622 z"
       sodipodi:nodetypes="ccccccccccccccc" /><path
       id="path6-6-1-2-8-7"
       style="fill:#009645;fill-opacity:1;stroke:#000000;stroke-width:1.05396;stroke-miterlimit:10;stroke-opacity:1"
       d="m 168.1078,101.60136 c -3.5179,5.09444 -5.77291,9.96528 -6.768,14.61406 0.7939,-0.22602 2.4084,-1.24432 4.18283,-1.32951 -1.54102,4.16368 -2.26679,7.79284 -2.61221,11.32495 1.28771,-0.95705 2.09447,-1.00637 3.09949,-1.44083 0.23283,3.15165 0.94609,5.94939 2.09789,8.374 1.1518,-2.42461 1.8672,-5.22235 2.10003,-8.374 0.71098,0.42363 1.89037,0.46367 3.05047,1.32321 -0.34542,-3.53211 -1.02216,-7.04365 -2.56319,-11.20733 1.52015,0.087 2.94591,1.10191 4.18283,1.32951 -0.99508,-4.64878 -3.25225,-9.51962 -6.77014,-14.61406 z"
       sodipodi:nodetypes="ccccccccccc" /><path
       id="path5-3-8-5-3-4-7"
       style="fill:#009645;fill-opacity:1;stroke:#000000;stroke-width:1.05396;stroke-miterlimit:10;stroke-opacity:1"
       d="m 168.10968,80.057525 c -4.78132,4.425614 -6.36708,10.079058 -6.48454,17.968185 1.52957,-1.614775 2.23925,-1.630742 4.14812,-2.254208 -0.92847,5.767768 -0.80196,11.178328 2.33642,15.795198 3.13838,-4.61687 3.26489,-10.02743 2.33642,-15.795198 1.90887,0.623466 2.86987,0.829533 4.39945,2.444308 -0.11743,-7.889123 -1.95455,-13.732671 -6.73587,-18.158285 z"
       sodipodi:nodetypes="ccccccc" /><path
       id="path1-8-3-0-7"
       style="fill:#009645;fill-opacity:1;stroke:#000000;stroke-width:1.05396;stroke-miterlimit:10;stroke-opacity:1"
       d="m 168.10968,67.743323 -12.34766,0.03355 c -3.75503,13.582864 -9.682,29.431282 -15.25195,35.073347 6.18018,0.0946 10.1335,-2.89191 13.45507,-8.926412 -0.29574,1.679329 -0.47541,2.489357 -1.28125,5.036582 3.14361,-3.188519 5.2719,-7.441114 7.26954,-11.999148 0.0372,3.127539 0.055,4.113327 -0.8379,7.151601 3.34764,-1.683626 6.34571,-7.948651 8.99415,-11.904653 2.64844,3.956002 5.6465,10.221027 8.99414,11.904653 -0.89289,-3.038274 -0.87705,-4.024062 -0.83985,-7.151601 1.99764,4.558034 4.12592,8.810629 7.26953,11.999148 -0.80584,-2.547225 -0.98551,-3.357253 -1.28125,-5.036582 3.32157,6.034502 6.3999,9.417892 12.58008,9.323342 -5.56995,-5.642071 -10.62192,-21.887413 -14.37695,-35.470277 z"
       sodipodi:nodetypes="ccccccccccccccc" /><path
       id="path5-3-8-4-7-3"
       style="fill:#009645;fill-opacity:1;stroke:#000000;stroke-width:1.05396;stroke-miterlimit:10;stroke-opacity:1"
       d="m 168.10968,60.002572 c -4.10771,3.802106 -6.11551,9.353165 -6.21642,16.130836 1.31407,-1.387275 2.56922,-2.095092 4.20917,-2.63071 -0.79766,4.955167 -0.68898,9.603467 2.00725,13.56991 2.69623,-3.966443 2.80492,-8.614743 2.00726,-13.56991 1.63994,0.535618 2.89508,1.243435 4.20917,2.63071 -0.10089,-6.777671 -2.10872,-12.32873 -6.21643,-16.130836 z"
       sodipodi:nodetypes="ccccccc" /><path
       id="path1-0-8-1-6-3"
       style="fill:#009645;fill-opacity:1;stroke:#000000;stroke-width:1.05396;stroke-miterlimit:10;stroke-opacity:1"
       d="m 159.74639,46.620366 c -3.01211,13.582869 -8.16637,28.116433 -13.73632,33.7585 6.18018,0.09453 8.01212,-2.679672 10.00976,-7.237717 0.57354,1.984974 1.87921,2.811135 2.9707,3.211397 3.54652,-3.774716 6.60915,-8.797294 9.12501,-16.460231 2.51586,7.662937 4.81546,12.305308 9.11328,16.460231 1.09149,-0.400262 2.39521,-1.226423 2.96875,-3.211397 1.99764,4.558045 3.82958,7.332263 10.00976,7.237717 -5.56995,-5.642067 -10.72422,-20.175631 -13.73633,-33.7585 h -8.36151 z"
       sodipodi:nodetypes="ccccccccccc" /><path
       id="path5-3-6-1-3-5"
       style="fill:#009645;fill-opacity:1;stroke:#000000;stroke-width:1.05396;stroke-miterlimit:10;stroke-opacity:1"
       d="m 168.11554,41.469494 c -3.2586,4.416365 -4.85138,8.097611 -4.93143,15.970267 1.04245,-1.611393 2.03815,-2.433563 3.3391,-3.055727 -0.34158,2.69735 0.0285,7.820941 1.5855,10.995496 1.42784,-3.286339 2.00801,-8.109495 1.59916,-10.995496 1.30096,0.622164 2.29665,1.444334 3.33911,3.055727 -0.08,-7.872656 -1.67284,-11.553902 -4.93144,-15.970267 z"
       sodipodi:nodetypes="ccccccc" /><path
       id="path1-0-9-2-3-6-9"
       style="fill:#009645;fill-opacity:1;stroke:#000000;stroke-width:1.05396;stroke-miterlimit:10;stroke-opacity:1"
       d="m 163.09014,30.920447 c -3.75503,13.582869 -7.93012,23.910261 -12.4707,28.5056 2.60046,-0.33318 6.06877,-2.394033 8.06641,-6.952078 0.97129,1.295869 1.30947,2.480966 1.35547,4.091434 3.35829,-3.146532 6.45225,-6.930357 8.07421,-10.155066 1.46729,3.129658 4.71593,7.008524 8.07422,10.155066 0.046,-1.610468 0.38418,-2.795565 1.35547,-4.091434 1.99764,4.558045 5.46595,6.618898 8.06641,6.952078 -4.54058,-4.595339 -8.71372,-14.922731 -12.46875,-28.5056 h -5.02149 -0.0117 z"
       sodipodi:nodetypes="cccccccccccc" /><path
       id="path5-3-6-8-8-1-9"
       style="fill:#009645;fill-opacity:1;stroke:#000000;stroke-width:1.05396;stroke-miterlimit:10;stroke-opacity:1"
       d="m 168.10968,26.660665 c -3.26263,4.421409 -4.85737,8.106859 -4.93752,15.988505 1.04373,-1.613231 2.04066,-2.436338 3.34322,-3.059211 -0.342,2.700426 0.0353,5.976398 1.5943,9.154577 1.42961,-3.290091 2.00365,-6.265284 1.5943,-9.154577 1.30256,0.622873 2.29948,1.44598 3.34323,3.059211 -0.0801,-7.881646 -1.6749,-11.567096 -4.93753,-15.988505 z"
       sodipodi:nodetypes="ccccccc" /><path
       id="path1-0-9-4-4-7-5-8"
       style="fill:#009645;fill-opacity:1;stroke:#000000;stroke-width:1.05396;stroke-miterlimit:10;stroke-opacity:1"
       d="m 168.10968,17.249441 c -1.4687,5.177305 -6.97074,17.814218 -11.27149,22.166825 4.43452,0.07076 9.25387,-2.626505 11.27149,-7.760699 2.01762,5.134194 6.83501,7.831479 11.26953,7.760699 -4.30075,-4.352607 -9.80083,-16.98952 -11.26953,-22.166825 z"
       sodipodi:nodetypes="ccccc" /><path
       id="path6-4-1"
       style="fill:#009645;fill-opacity:1;stroke:#000000;stroke-width:1.05396;stroke-miterlimit:10;stroke-opacity:1"
       d="m 168.10914,10.991965 c -1.31903,3.778887 -2.92603,7.386583 -4.99415,10.717952 1.0791,-0.22753 1.70875,-0.643433 2.46485,-1.211887 -0.0726,3.156894 -1.86153,6.606943 -1.71289,9.604781 0.85914,-0.57485 1.58534,-2.316861 2.51758,-3.046216 0.17418,2.139459 0.85015,5.362283 1.72461,6.772189 0.89614,-1.427575 1.5337,-4.676209 1.72461,-6.772189 0.95434,0.741235 1.66039,2.471366 2.51953,3.046216 0.14864,-2.997838 -1.64029,-6.447887 -1.71289,-9.604781 0.7561,0.568454 1.3838,0.984357 2.46289,1.211887 -2.06811,-3.331369 -3.67511,-6.939065 -4.99414,-10.717952 z"
       sodipodi:nodetypes="ccccccccccc" /></g><path
     style="fill:#000000;fill-opacity:1;stroke:#ffffff;stroke-miterlimit:10;stroke-opacity:1"
     d="M 24.35738,135.12501 V 22.625001 h 6.89115 v 7.75 h 5.20365 v -7.75 h 4.31977 4.31977 v 7.75 h 5.20365 v -7.75 h 6.89115 v 52.468754 h 6.14115 v 7.75 h 5.613454 v -7.75 h 4.659966 4.659966 v 7.75 h 5.613454 v -7.75 h 6.14115 V 22.625001 h 6.89115 v 7.75 h 5.20365 v -7.75 h 4.31977 4.31977 v 7.75 h 5.20365 v -7.75 h 6.89115 V 135.12501 Z"
     id="path1"
     sodipodi:nodetypes="cccccccccccccccccccccccccccccccccccc" /><path
     id="path2"
     style="fill:#ffffff;fill-opacity:1;stroke:#ffffff;stroke-width:1;stroke-miterlimit:10;stroke-opacity:1"
     d="m 103.37091,60.253984 v 16.429531 h 3.05889 3.06062 V 60.253984 h -3.06062 z"
     sodipodi:nodetypes="ccccccc" /><path
     id="path2-3"
     style="fill:#ffffff;fill-opacity:1;stroke:#ffffff;stroke-width:1;stroke-miterlimit:10;stroke-opacity:1"
     d="m 103.37091,96.253984 v 16.429536 h 3.05889 3.06062 V 96.253984 h -3.06062 z"
     sodipodi:nodetypes="ccccccc" /><path
     id="path2-2"
     style="fill:#ffffff;fill-opacity:1;stroke:#ffffff;stroke-width:1;stroke-miterlimit:10;stroke-opacity:1"
     d="m 70.541762,96.253982 v 16.429538 h 3.058897 3.060628 V 96.253982 h -3.060628 z"
     sodipodi:nodetypes="ccccccc" /><path
     id="path2-1"
     style="fill:#ffffff;fill-opacity:1;stroke:#ffffff;stroke-width:1;stroke-miterlimit:10;stroke-opacity:1"
     d="M 43.831277,60.253984 V 76.683515 H 40.772381 37.711753 V 60.253984 h 3.060628 z"
     sodipodi:nodetypes="ccccccc" /><path
     id="path2-3-2"
     style="fill:#ffffff;fill-opacity:1;stroke:#ffffff;stroke-width:1;stroke-miterlimit:10;stroke-opacity:1"
     d="M 43.831277,96.253984 V 112.68352 H 40.772381 37.711753 V 96.253984 h 3.060628 z"
     sodipodi:nodetypes="ccccccc" /><path
     style="fill:#000000;fill-opacity:1;stroke:#ffffff;stroke-miterlimit:10;stroke-opacity:1"
     d="m 128.90626,193.88199 v -53.10073 l 2.03125,-2.03125 v -7.875 h -4.23321 v -6.38523 h -11.71901 v 6.38523 h -11.71901 v -6.38523 H 91.547269 v 6.38523 H 79.828257 v -6.38523 H 68.109244 v 6.38523 H 56.390232 v -6.38523 H 44.67122 v 6.38523 H 32.952211 v -6.38523 H 21.233198 v 6.38523 h -4.23321 v 7.875 l 2.03125,2.03125 v 53.10073 z"
     id="path7-1"
     sodipodi:nodetypes="ccccccccccccccccccccccccccccc" /><path
     style="fill:none;fill-opacity:1;stroke:#ffffff;stroke-miterlimit:10;stroke-opacity:1"
     d="M 19.031238,140.78126 H 128.90626"
     id="path13"
     sodipodi:nodetypes="cc" /><g
     id="g37"
     transform="matrix(0.85207764,0,0,0.85377918,10.887311,28.057142)"
     style="stroke-width:1.17243"><path
       style="fill:none;fill-opacity:1;stroke:#ffffff;stroke-width:1.17243;stroke-miterlimit:10;stroke-opacity:1"
       d="m 73.601525,152.20474 c 7.53711,0 13.45743,6.11749 13.45743,13.45743 v 26.21982"
       id="path8"
       sodipodi:nodetypes="csc" /><path
       style="fill:none;fill-opacity:1;stroke:#ffffff;stroke-width:1.17243;stroke-miterlimit:10;stroke-opacity:1"
       d="m 73.601525,152.20474 c -7.53711,0 -13.45743,6.11749 -13.45743,13.45743 v 26.21982"
       id="path8-0"
       sodipodi:nodetypes="csc" /><path
       style="fill:#ffffff;fill-opacity:1;stroke:#ffffff;stroke-width:1.17243;stroke-miterlimit:10;stroke-opacity:1"
       d="M 81.806074,191.88199 H 65.396975 v -26.21982 c 0,-4.56335 3.665547,-8.19851 8.204549,-8.19851 4.539002,0 8.204549,3.63516 8.204549,8.20221 z"
       id="path9-6"
       sodipodi:nodetypes="ccsccc" /><path
       style="fill:none;fill-opacity:1;stroke:#ffffff;stroke-width:1.17243;stroke-miterlimit:10;stroke-opacity:1"
       d="m 60.908131,161.04215 4.772326,1.73699"
       id="path33" /><path
       style="fill:none;fill-opacity:1;stroke:#ffffff;stroke-width:1.17243;stroke-miterlimit:10;stroke-opacity:1"
       d="m 63.270886,156.99373 3.941706,3.30749"
       id="path34" /><path
       style="fill:none;fill-opacity:1;stroke:#ffffff;stroke-width:1.17243;stroke-miterlimit:10;stroke-opacity:1"
       d="m 66.875357,154.01212 2.584894,4.47716"
       id="path35" /><path
       style="fill:none;fill-opacity:1;stroke:#ffffff;stroke-width:1.17243;stroke-miterlimit:10;stroke-opacity:1"
       d="m 71.269536,152.43681 0.888822,5.04076"
       id="path36" /><path
       style="fill:none;fill-opacity:1;stroke:#ffffff;stroke-width:1.17243;stroke-miterlimit:10;stroke-opacity:1"
       d="m 60.144095,165.6556 h 5.25288"
       id="path37" /><path
       style="fill:none;fill-opacity:1;stroke:#ffffff;stroke-width:1.17243;stroke-miterlimit:10;stroke-opacity:1"
       d="m 81.806075,169.40449 h 5.25288"
       id="path28-8" /><path
       style="fill:none;fill-opacity:1;stroke:#ffffff;stroke-width:1.17243;stroke-miterlimit:10;stroke-opacity:1"
       d="m 81.806075,173.17223 h 5.25288"
       id="path29-0" /><path
       style="fill:none;fill-opacity:1;stroke:#ffffff;stroke-width:1.17243;stroke-miterlimit:10;stroke-opacity:1"
       d="m 81.806075,176.93995 5.25288,-0.0195"
       id="path30-8" /><path
       style="fill:none;fill-opacity:1;stroke:#ffffff;stroke-width:1.17243;stroke-miterlimit:10;stroke-opacity:1"
       d="m 81.806075,180.70767 h 5.25288"
       id="path31-7" /><path
       style="fill:none;fill-opacity:1;stroke:#ffffff;stroke-width:1.17243;stroke-miterlimit:10;stroke-opacity:1"
       d="m 81.806075,184.47541 h 5.25288"
       id="path32-7" /><path
       style="fill:none;fill-opacity:1;stroke:#ffffff;stroke-width:1.17243;stroke-miterlimit:10;stroke-opacity:1"
       d="m 81.806075,188.24314 h 5.25288"
       id="path32-7-0" /><path
       style="fill:none;fill-opacity:1;stroke:#ffffff;stroke-width:1.17243;stroke-miterlimit:10;stroke-opacity:1"
       d="m 86.294915,161.04215 -4.772322,1.73699"
       id="path33-8" /><path
       style="fill:none;fill-opacity:1;stroke:#ffffff;stroke-width:1.17243;stroke-miterlimit:10;stroke-opacity:1"
       d="m 83.932165,156.99373 -3.941707,3.30749"
       id="path34-3" /><path
       style="fill:none;fill-opacity:1;stroke:#ffffff;stroke-width:1.17243;stroke-miterlimit:10;stroke-opacity:1"
       d="m 80.327693,154.01212 -2.584898,4.47716"
       id="path35-8" /><path
       style="fill:none;fill-opacity:1;stroke:#ffffff;stroke-width:1.17243;stroke-miterlimit:10;stroke-opacity:1"
       d="m 75.933515,152.43681 -0.88882,5.04076"
       id="path36-3" /><path
       style="fill:none;fill-opacity:1;stroke:#ffffff;stroke-width:1.17243;stroke-miterlimit:10;stroke-opacity:1"
       d="m 87.058955,165.59771 h -5.25288"
       id="path37-7" /><path
       style="fill:none;fill-opacity:1;stroke:#ffffff;stroke-width:1.17243;stroke-miterlimit:10;stroke-opacity:1"
       d="m 65.396975,169.46239 h -5.25288"
       id="path28-8-9" /><path
       style="fill:none;fill-opacity:1;stroke:#ffffff;stroke-width:1.17243;stroke-miterlimit:10;stroke-opacity:1"
       d="m 65.396975,173.23012 h -5.25288"
       id="path29-0-6" /><path
       style="fill:none;fill-opacity:1;stroke:#ffffff;stroke-width:1.17243;stroke-miterlimit:10;stroke-opacity:1"
       d="m 65.396975,176.99784 -5.25288,-0.0195"
       id="path30-8-5" /><path
       style="fill:none;fill-opacity:1;stroke:#ffffff;stroke-width:1.17243;stroke-miterlimit:10;stroke-opacity:1"
       d="m 65.396975,180.76556 h -5.25288"
       id="path31-7-1" /><path
       style="fill:none;fill-opacity:1;stroke:#ffffff;stroke-width:1.17243;stroke-miterlimit:10;stroke-opacity:1"
       d="m 65.396975,184.5333 h -5.25288"
       id="path32-7-09" /><path
       style="fill:none;fill-opacity:1;stroke:#ffffff;stroke-width:1.17243;stroke-miterlimit:10;stroke-opacity:1"
       d="m 65.396975,188.30104 h -5.25288"
       id="path32-7-0-9" /></g><path
     id="path4-8-3"
     style="fill:#000000;fill-opacity:1;stroke:#ffffff;stroke-miterlimit:10;stroke-opacity:1"
     d="m 87.470703,38.449219 v 4.62288 l 1.863448,1.86345 h 17.095549 17.09552 l 1.86346,-1.86345 v -4.62288 H 106.4297 Z"
     sodipodi:nodetypes="ccccccccc" /><path
     id="path4-8-4"
     style="fill:#000000;fill-opacity:1;stroke:#ffffff;stroke-miterlimit:10;stroke-opacity:1"
     d="m 21.81351,38.449219 v 4.62288 l 1.863448,1.86345 h 17.095547 17.09553 l 1.86345,-1.86345 v -4.62288 h -18.95898 z"
     sodipodi:nodetypes="ccccccccc" /><path
     style="fill:#009645;fill-opacity:1;stroke:#000000;stroke-miterlimit:10;stroke-opacity:1"
     d="M 13.363427,191.88199 H 195.52781 c -16.76076,26.65964 -47.30399,49.9589 -91.09757,51.78941 -42.899699,-1.34715 -72.394465,-23.38884 -91.066813,-51.78941 z"
     id="path5"
     sodipodi:nodetypes="cccc" /><path
     id="path4212-6-8"
     style="fill:none;fill-opacity:1;fill-rule:evenodd;stroke:#000000;stroke-width:2;stroke-linecap:butt;stroke-miterlimit:4;stroke-dasharray:none;stroke-dashoffset:0;stroke-opacity:1"
     d="M 1.000033,149.10355 V 0.99999834 H 207.89951 V 149.10355 c 0,51.44535 -51.75421,94.56785 -103.46927,94.56785 -51.71506,0 -103.430207,-43.1225 -103.430207,-94.56785 z"
     inkscape:connector-curvature="0"
     sodipodi:nodetypes="sccscs" /></svg>
