<?xml version="1.0" encoding="UTF-8"?>
<svg width="500" height="564" version="1.1" xmlns="http://www.w3.org/2000/svg">
<path d="M5.276 5.276v307.47c0 135.85 109.57 245.98 244.73 245.98s244.72-110.12 244.72-245.98V5.276z" fill="#f00000" fill-rule="evenodd"/>
<g stroke="#000">
<path d="m249.97 101.4-243.5 239.62a245.39 245.39 0 0 0 16.916 68.611l226.59-222.97 226.62 223.01a245.42 245.42 0 0 0 16.926-68.602zm0 198-183.22 180.3c13.46 15.278 28.753 28.878 45.578 40.406l137.64-135.45 137.66 135.47c16.827-11.526 32.121-25.126 45.582-40.402z" fill="#fcdb00" stroke-width="3"/>
<path d="M5.276 5.276v307.47c0 135.85 109.57 245.98 244.73 245.98s244.72-110.12 244.72-245.98V5.276z" clip-rule="evenodd" fill="none" stroke-miterlimit="3.864" stroke-width="10"/>
<path d="m249.94 420.81-10.396 44.855-44.068-13.346 33.648 31.432-33.592 31.492 44.045-13.424 10.477 44.838 10.396-44.855 44.068 13.346-33.648-31.432 33.592-31.492-44.045 13.424zm-0.09 50.902a12.022 12.022 0 0 1 12.023 12.021 12.022 12.022 0 0 1-12.023 12.021 12.022 12.022 0 0 1-12.02-12.02 12.022 12.022 0 0 1 12.02-12.022z" fill="#fcdb00" stroke-linecap="round" stroke-miterlimit="10" stroke-width="3"/>
</g>
<path d="M403.357 29.444c-1.602-.256-3.25-.465-4.876-.424-1.532.028-3.026.246-4.555.429-4.025.457-7.98 1.744-11.621 3.496-1.175.558-2.258 1.254-3.383 1.9-3.084-.982-6.366-1.37-9.595-1.214-3.091.233-6.13.803-9.098 1.693-.634.208-1.206.25-1.836-.01-4.19-1.462-8.345-3.058-12.51-4.587-.989-.454-2.027-.766-3.035-1.165-1.967-.861-3.961-1.648-5.88-2.622-.594-.34-1.223-.402-1.417-1.156-.469-1.692-.844-3.434-1.44-5.09-.337-.881-.927-1.934-1.868-2.264-1.157-.405-2.374.125-3.35.74-1.78 1.19-3.034 3.122-4.001 4.992a28.205 28.205 0 0 0-2.392 5.333c-.526 1.336-.921 2.904-.686 4.346.318 1.812 1.278 3.375 2.564 4.666 1.584 1.59 3.716 2.788 5.634 3.937 2.718 1.555 5.133 3.198 8.193 4.064a25.715 25.715 0 0 0-.894 2.704c-3.36-.699-6.662-1.997-9.85-3.237-2.56-1.028-5.048-2.378-7.222-4.086-2.538-1.943-4.694-4.532-5.81-7.555-.301-.762-.383-1.587-.659-2.353-.116-.276-.409-.314-.642-.14a5.122 5.122 0 0 0-2.021 2.36c-.952 1.85-.885 4.126-.406 6.103.75 3.17 2.66 5.85 5.084 7.975 2.409 2.081 5.257 3.755 8.306 4.693-.82.154-1.583.228-2.31.686-.842.476-1.459 1.285-1.597 2.253-.096 1.055.585 1.86 1.287 2.556 2.192 2.018 4.93 3.215 7.558 4.526 2.586 1.14 5.192 2.197 7.66 3.588 2.724 1.512 5.385 3.192 7.833 5.124 1.68 1.31 2.931 2.904 4.376 4.444a43.635 43.635 0 0 0 3.192 3.212c.151.174.439.349.472.587.036.415-.055.844-.1 1.257a110.784 110.784 0 0 0-.578 6.145c-.182 3.246-.259 6.395.287 9.615-2.465-.914-4.849-2.12-7.244-3.196-1.475-.665-2.839-1.524-4.317-2.18-2.467-1.08-5.042-2.858-7.683-3.452-1.862-.435-3.845-.25-5.547.64-1.833.975-3.503 2.322-5.238 3.47-3.379 2.244-6.805 4.474-10.37 6.408-3.06 1.676-6.251 3.031-9.463 4.374-3.258 1.367-6.427 2.951-9.124 5.27-1.009.895-2.104 1.999-2.554 3.292-.13.3-.06.506.179.714 1.608.95 3.337 1.39 5.136 1.807-.586.497-1.283 1.097-1.547 1.837-.144.346 0 .74.268.984.698.684 1.556.982 2.443 1.362 1.654.575 3.354.992 5.11 1.083 2.666.192 5.601-.262 7.84-1.81 1.94-1.334 3.477-3.499 4.876-5.37.997 1.693 2.388 2.971 3.93 4.161.273.202.527.383.885.296.63-.261.844-.936 1.118-1.501 1.222-2.587 1.474-5.239 2.095-7.94.183-.897.773-1.439 1.496-1.925a43.285 43.285 0 0 1 4.74-2.762c1.081-.479 2.273-.966 3.475-.881.938.058 1.775.685 2.454 1.285 2.927 2.587 5.628 5.424 8.513 8.06a78.23 78.23 0 0 0 12.541 9.587c-.084 1.253.042 2.796-.617 3.893-.799 1.464-1.81 2.868-2.456 4.41-.547 1.243-1.151 2.428-1.57 3.722-.271.833-.638 1.622-.965 2.431-1.134 3.203-2.71 6.343-4.852 8.994a15.353 15.353 0 0 1-7.528 5.063c-3.726 1.13-7.212 2.791-10.141 5.398-.993.907-2.103 1.92-2.627 3.178 1.487 1.154 3.452 1.815 5.29 2.151-.41.566-.853 1.029-1.026 1.731.242.682 1.213 1.041 1.804 1.348 2.808 1.405 5.934 2.286 9.092 1.86 2.094-.268 4.048-1.23 5.499-2.771 1.68-1.772 2.531-3.8 3.657-5.9.764 1.927 1.826 3.906 3.516 5.174.44.262.841.7 1.338.268 1.693-2.182 2.321-4.788 2.447-7.5.125-1.61.003-3.342.442-4.87.45-1.511 1.24-2.706 2.051-4.027a77.174 77.174 0 0 1 5.894-7.766c1.838-2.097 3.858-4.268 6.166-5.853 1.508-1.057 2.873-2.289 4-3.753.897.347 1.691.858 2.511 1.351a63.222 63.222 0 0 0 10.967 4.444c5.3 1.627 10.71 2.79 16.182 3.656-.432 2.84-.562 5.711.166 8.518.247 1.076.663 2.079 1.127 3.076.548 1.176 1.003 2.397 1.435 3.619-3.204 2.433-6.725 4.832-10.488 6.29-3.668 1.641-7.444 2.82-11.266 4.03-3.595 1.076-7.104 1.997-10.452 3.752-2.178 1.156-4.46 2.658-5.816 4.765-.195.416-.586.86-.136 1.252 1.257 1.09 2.814 1.632 4.368 2.124-.443.324-1.115.62-1.225 1.21.173.803 1.03 1.256 1.664 1.67 2.267 1.209 4.77 2.133 7.309 2.546 2.325.364 4.685.139 6.785-.972 2.648-1.42 4.896-3.559 6.845-5.815.541 1.62 1.866 3.03 3.052 4.223.438.38 1.013 1.043 1.657.74 1.122-.853 1.751-1.999 2.279-3.279.743-1.609.735-3.596 1.228-5.19.312-1.06 1.355-1.595 2.276-2.04 2.075-1.052 4.248-1.577 6.424-2.342 3.038-.973 6.301-1.81 9.047-3.443.533-.337 1.161-.723 1.348-1.363.375-1.168.425-2.47.579-3.685.353-3.447.865-6.806 1.999-10.096 1.31 3.047 3.21 5.938 5.13 8.631 2.396 3.404 5.032 6.525 7.643 9.755.894 1.144 1.846 2.328 2.516 3.62.58 1.103.568 2.44.419 3.646-.223 1.735-.675 3.454-1.175 5.127-.795 2.189-1.444 4.292-2.742 6.268-1.991 3.49-5.423 5.92-9.28 6.933-1.673.538-3.337 1.126-4.945 1.839-2.463 1.143-4.742 2.834-6.097 5.232-.128.346-.448.641-.167.988.348.414.835.63 1.312.858 1.128.507 2.195 1.07 3.42 1.312-.379.491-.753.907-.907 1.528.003.585.498.942.972 1.174 2.986 1.54 6.527 2.777 9.933 2.508 2.378-.163 4.658-1.161 6.144-3.07 1.457-1.794 2.03-3.823 2.992-5.866.756 1.605 1.983 2.962 3.327 4.098.502.376 1.087.802 1.675.317 1.351-1.596 2.024-3.865 2.282-5.916.34-2.638-.26-4.952.54-7.506.366-1.466 1.058-2.758 1.673-4.126a72.204 72.204 0 0 1 6.317-9.931c.8-1.084 1.718-1.98 2.152-3.268.318-.849.273-1.763-.012-2.613-.81-2.56-2.447-4.582-3.32-7.12-1.326-3.41-1.275-7.13.06-10.533.569-1.876 1.483-3.593 2.13-5.44.373-1.056.89-2.04 1.196-3.12.861-2.431 1.66-4.902 2.256-7.414 3.444 1.778 7.274 2.655 11.073 1.558a9.694 9.694 0 0 0 6.14-5.548c1.193-2.514 1.247-5.349.71-8.036-.585-3.158-1.946-6.176-2.057-9.418-.01-1.486.176-3.118 1.238-4.25 1.07-1.25 2.431-1.622 3.908-2.167.609-.212.943-.437 1.343-.952-.588-.86-1.44-1.37-2.37-1.793-2.013-.98-4.39-1.666-6.65-1.486-2.292.193-4.512 1.123-6.087 2.83-.99 1.03-1.624 2.294-2.068 3.639-.807 2.8-.49 5.75.59 8.43.794 2.155 2.234 4.036 2.95 6.198.225.655.314 1.44.094 2.106-.355.89-1.274 1.395-2.21 1.384-1.202.01-2.4-.788-3.194-1.645-1.363-1.46-2.312-3.406-3.053-5.246-.818-2.516-1.927-4.929-3.561-7.026-1.655-2.163-3.645-3.91-5.772-5.593-2.184-1.758-4.446-3.403-6.687-5.089-1.982-1.491-3.953-2.8-5.722-4.543a24.93 24.93 0 0 1-4.607-6.182c-.64-1.173-1.151-2.402-1.723-3.61-1.432-3.239-2.844-6.427-4.479-9.576-3.323-6.394-7.255-12.41-11.977-17.864-2.879-3.308-6.05-6.531-9.653-9.051 2.593-1.905 4.644-4.23 6.986-6.4.631-.598 1.382-1.122 1.715-1.955.163-.289.132-.583-.167-.757-1.197-.71-2.57-1.156-3.84-1.728-3.686-1.383-7.6-2.185-11.505-2.603 1.138-1.398 2.254-2.693 2.979-4.37.528-1.22 1.098-2.427 1.6-3.657-.384-.57-.836-.746-1.493-.867z"/>
<path d="M401.404 31.377c-2.557-.033-5.155.357-7.672.795-3.855.67-7.544 2.008-10.73 4.318 1.905.928 3.685 2.076 5.257 3.5 2.064-.802 4.309-1.197 6.506-1.424.706-.104 1.602.11 2.106-.475 2.014-1.852 3.786-4.033 4.533-6.714z" fill="#fcdb00"/>
<path d="M411.863 43.38a13.667 13.667 0 0 0-1.81-.666c-5.135-1.636-10.596-2.201-15.944-1.448-2.461.36-5.074.9-7.266 2.12-1.418.753-2.706 1.735-3.756 2.953-.467.547-.935 1.086-1.474 1.563-.294-.277-.76-.507-.76-.964-.062-.822.434-1.705.81-2.408.945-1.524 2.751-2.479 4.133-3.58-1.483-.845-2.914-1.874-4.477-2.558-4.063-1.686-8.281-2.67-12.695-2.183-2.119.285-4.246.908-6.334 1.363-1.005.212-2.062.401-3.09.27-1.634-.236-2.98-.913-4.49-1.488-1.398-.462-2.715-1.121-4.12-1.568-2.729-1.074-5.516-1.98-8.269-2.975-2.127-.68-4.157-1.678-6.174-2.63.154 1.45.225 2.856-.067 4.295-.532 2.73-1.915 5.222-4.005 7.066 1.03.675 1.989 1.428 3.097 1.979 1.29.77 2.68 1.264 4.078 1.785a9.888 9.888 0 0 1 1.845-2.81c1.488-1.619 3.584-2.555 5.635-3.235.4-.114.917-.267 1.323-.13.557.08.45.868.28 1.237-.605 1.208-1.493 2.24-2.014 3.506-.582 1.186-.781 2.414-1.133 3.672 1.359 1.043 2.9 1.667 4.192 2.799 1.416 1.183 2.454 2.751 2.726 4.6.26 1.776.417 3.776-.098 5.517-.268.982-.857 1.895-1.704 2.471-.811.546-1.874.636-2.779.275a20.292 20.292 0 0 1-2.879-1.458c-1.293-.708-2.677-1.256-4.015-1.88-3.473-1.396-6.982-2.613-10.725-3.025-1.729-.176-3.541-.226-5.23.249-.525.14-.96.43-1.383.759 3.063 2.061 6.668 3.505 10.027 4.973a67.44 67.44 0 0 1 7.13 3.8c2.896 1.81 5.924 3.829 8.27 6.332 1.907 1.992 3.368 4.163 5.455 6.014a21.148 21.148 0 0 0 8.122 4.532c3.489.967 7.331.496 10.448-1.36 2.71-1.597 4.5-4.047 5.963-6.776.459-.929.838-1.891 1.33-2.805.375.279.632.512.618 1.01.011 1.894-.805 3.82-1.634 5.482-1.715 3.265-4.873 5.734-8.357 6.872-2.624.847-5.41.776-8.05.03-2.74-.723-5.08-2.025-7.499-3.438a83.756 83.756 0 0 0-.921 10.44c-.047 1.987.08 3.98.369 5.946.217 1.428.374 2.775 1.03 4.087.886-3.344 1.741-6.97 3.244-10.103.109-.24.397-.725.715-.55.586.27.554.944.426 1.48-1.05 4.534-2.276 8.747-2.52 13.43-.061 1.515-.025 2.99.585 4.406.908-2.67 1.95-5.358 3.407-7.772.905-1.44 1.894-2.836 3-4.128.276-.313.573-.68.938-.889.206.198.396.41.587.623-.51 1.518-1.415 2.777-2.148 4.18a31.883 31.883 0 0 0-2.621 5.82c-1.545 4.421-2.344 8.982-2.683 13.642-.129 1.333-.057 2.573-.764 3.772-.728 1.22-1.677 2.269-2.281 3.598-.46 1.022-.968 2.031-1.335 3.09-.607 1.875-1.235 3.768-1.949 5.605-1.337 3.144-3.132 6.269-5.54 8.722a20.855 20.855 0 0 1-4.282 3.167c-1.107.626-2.257.958-3.443 1.38 2.382 2.174 4.713 4.401 7.178 6.485 1.064-1.55 1.789-3.384 3.274-4.601.478-.4 1.04-.639 1.663-.449.282.617.38 1.303.656 1.925.513 1.164 1.095 2.305 1.88 3.311 1.482-2.875.614-6.71 1.478-9.756.296-1.283.917-2.404 1.638-3.492 1.378-2.146 2.84-4.234 4.33-6.304 2.423-3.326 5.328-6.256 8.545-8.816.856-.671 1.804-1.241 2.614-1.964 1.118-1.028 1.851-2.586 2.614-3.897.539-.92.845-2.24 1.681-2.908.424-.058.7.428.775.782.153.921-.224 1.988-.48 2.865 1.355-.316 2.749-.781 3.726-1.824.628-.653.731-1.74.909-2.595.44-2.445 1.173-4.827 2.71-6.821a6.994 6.994 0 0 1 3.369-2.396c.101.166.204.334.308.5-1.056 1.5-2.302 2.946-3.072 4.731-.55 1.462-.797 3.109-1.052 4.647-.252 1.502-.574 3.028-1.737 4.11-.815.803-1.784 1.085-2.814 1.489 1.499.962 3.098 1.694 4.73 2.395 4.65 1.851 9.465 3.254 14.365 4.268 5.844 1.222 11.492 2.157 17.138 4.284 1.712.76 3.465 1.493 5.088 2.435.972.558 1.98.993 3.01 1.435-.796-3.689-1.52-7.643-1.37-11.426.165-3.027.891-6.044 1.923-8.889.409-1.141.957-2.224 1.716-3.171l.736.5c-.052.436-.107.869-.224 1.293-.947 3.025-1.74 6.16-2.054 9.319-.198 1.823.071 3.555.36 5.346.464 2.82.956 5.56 1.9 8.268 1.068 3.31 2.702 6.33 4.645 9.205 3.154 4.608 6.738 8.7 10.075 13.104.953 1.28 1.939 2.567 2.396 4.119.372 1.21.408 2.476.204 3.72-.417 2.7-1.328 5.42-2.259 7.982-.517 1.242-1.09 2.467-1.656 3.687-.822 1.564-1.846 3.05-3.08 4.318-1.937 1.88-4.269 3.266-6.804 4.175 2.425 2.163 4.749 4.446 7.296 6.51.91-1.944 1.534-4.125 2.688-5.895.31-.45.612-.862 1.174-.99.219.056.423.146.61.27.34.674.44 1.496.677 2.214.487 1.457 1.288 2.797 2.442 3.827.36-1.077.604-2.185.666-3.322.184-2.43-.187-4.605.376-6.988.567-2.534 1.754-4.605 2.786-6.98 1.763-3.35 3.81-6.538 6.38-9.335.649-.732 1.449-1.732 1.14-2.778-.54-1.935-1.675-3.776-2.534-5.588-1.022-2.102-1.99-4.447-2.159-6.799-.159-1.921.184-3.8.81-5.615.463-1.59 1.256-2.997 1.867-4.527 1.88-4.848 4.03-9.783 4.965-14.938.406-2.154.484-4.345.353-6.53-.276-3.824-1.447-7.524-3.792-10.594-1.52-2.013-3.4-3.607-5.398-5.125-2.621-1.985-5.346-3.842-7.98-5.812-2.258-1.683-4.437-3.553-6.244-5.724-1.121-1.364-2.07-2.832-2.925-4.376-1.277-2.295-2.515-4.621-3.6-7.013-.981-2.118-1.85-4.277-2.91-6.364-2.564-5.043-5.426-9.85-8.971-14.273-3.706-4.74-7.995-8.983-12.657-12.782-2.792 2.031-5.863 4.05-9.26 4.861-2.535.543-5.324.534-7.788-.32-.853-.376-1.745-.61-1.922-1.652.894-.329 1.67-.044 2.574.004 2.768.189 5.53-.062 8.17-.936a20.988 20.988 0 0 0 4.922-2.692c1.567-1.139 3.124-2.301 4.6-3.556 2.027-1.681 3.821-3.672 5.547-5.656z" fill="#fcdb00"/>
<path d="M401.157 45.846c-2.081-.21-4.211-.048-6.263.337-2.531.48-5.027 1.483-7.053 3.094-1.014.803-1.943 1.894-2.25 3.175-.067.343.149.912.57.865.646-.048 1.235-.675 1.744-1.036 3.526-2.577 7.633-4.353 11.95-5.048.862-.17 1.71-.094 2.58-.078.233-.116.304-.492.422-.709-.53-.322-1.075-.556-1.7-.6z"/>
<path d="M331.519 21.187c-.169-.29-.586-.376-.866-.182-1.517.78-2.447 2.417-3.227 3.864-1.243 2.132-2.099 4.409-2.887 6.738-.351 1.179-.243 2.442.462 3.472.925 1.383 2.39 2.638 3.9 3.335.651.25 1.308.567 1.98.191 1-.564 1.776-1.614 2.353-2.584.912-1.626 1.176-3.618.929-5.453-.353-2.635-1.33-5.156-2.098-7.736-.168-.542-.29-1.137-.546-1.645z" fill="#fcdb00"/>
<path d="M404.147 58.736c-.419-.214-.821-.394-1.296-.24-.2-.022-.398.513-.263.643.345.617.975 1.095 1.467 1.594 2.364 2.244 4.477 4.704 6.728 7.056.455.465.917 1.021 1.479 1.352.315.12 1.009.19.999-.306.05-.408-.26-.863-.47-1.193l-1.757-2.534c-1.847-2.587-4.093-4.82-6.887-6.372zM362.272 40.777c-.593-.028-1.364.014-1.74.551.039.445.28 1.07.754 1.194.719.22 1.466.337 2.195.524-.552.72-1.015 1.472-1.223 2.366-.222 1.021.189 2.154.985 2.822.993.849 2.676.926 3.69.08.875-.853 1.086-2.131 1.16-3.3 1.15.793 2.325 1.549 3.442 2.392.607.432 1.27.984 2.025 1.094.657-.436.159-1.009-.125-1.51-1.1-1.486-2.537-2.744-4.038-3.814-2.108-1.501-4.574-2.182-7.125-2.399zM329.791 28.173c-.72.542-.921 1.842-1.236 2.657-.371 1.083-.947 2.074-1.368 3.13-.186.639-.098 1.532.713 1.648.934.07 1.533-.811 1.865-1.565.598-1.6.776-3.374.538-5.063-.047-.355-.176-.64-.512-.807zM397.026 62.798c-.359-.213-1.336-.185-1.214.416.046.79 1.132 1.21 1.666 1.671 3.136 2.472 5.937 5.477 8.536 8.5.48.533.924 1.117 1.459 1.596.32.295.778.293 1.183.366-.073-.72-.265-1.336-.664-1.944-1.426-2.234-2.975-4.39-4.9-6.222-1.77-1.753-3.889-3.185-6.066-4.383z"/>
<path d="M345.86 40.098c-1.979.67-3.655 2.445-4.805 4.133-1.4 1.95-1.984 4.288-2.227 6.642-.182 1.53-.127 3.067-.295 4.596 1.737.911 3.587 1.47 5.394 2.205-.81-2.789-.817-5.592-.665-8.469.122-2.014.41-3.976 1.106-5.878.466-1.09.964-2.168 1.491-3.23z" fill="#fff"/>
<path d="M415.106 72.524a9.108 9.108 0 0 0-.204.715c.244.582.852 1.012 1.229 1.517 1.553 1.956 2.813 4.204 3.939 6.428.766 1.544 1.551 3.098 2.491 4.542.252.43.617.606 1.056.803.148-.38.304-.715.226-1.133-.258-1.597-.76-3.171-1.536-4.595-1.526-2.95-3.575-5.772-6.152-7.887-.305-.28-.663-.303-1.049-.39z"/>
<path d="M478.433 105.628c-2.246-.532-4.587-.616-6.694.455-1.826.877-3.002 2.617-3.39 4.58-.302 1.552-.083 3.21.408 4.702.629 1.882 1.649 3.432 2.498 5.304.66 1.31 1.079 2.713.985 4.193-.129 1.805-1.244 3.553-2.953 4.235-1.289.57-2.698.546-4.036.167-1.299-.394-2.272-1.229-3.182-2.196.01 1.609-.267 3.16-.577 4.736 1.092.517 2.138 1.102 3.27 1.538 1.76.73 3.74 1.099 5.632.727 2.054-.39 3.861-1.746 4.858-3.578 1.038-1.938 1.282-4.12 1.152-6.287-.243-3.609-1.909-7.09-2.09-10.62-.082-2.035.294-4.177 1.555-5.826.71-.936 1.638-1.453 2.564-2.13z" fill="#fcdb00"/>
<path d="M410.973 77.89c-.194.257-.45.515-.572.816.187.35.439.677.675.994.97 1.282 1.848 2.64 2.69 4.006 1.198 1.963 2.318 4.176 3.642 6.09.223.326.529.55.846.777.12-.483.216-.955.142-1.455-.245-1.728-.88-3.312-1.697-4.84-1.328-2.487-3.26-4.966-5.726-6.388z"/>
<path d="M312.762 34.476c-.373.921-.636 1.867-.662 2.866-.072 2.46.834 4.788 2.282 6.75 1.52 2.095 3.715 3.648 5.955 4.891a61.417 61.417 0 0 0 10.994 4.183c1.836.511 3.72.772 5.552 1.296a17.247 17.247 0 0 1 .157-2.99c-1.735-.565-3.507-.992-5.241-1.555a92.903 92.903 0 0 1-5.644-2.044c-3.212-1.3-6.07-3.356-8.553-5.751-1.663-1.606-3.196-3.468-4.121-5.602-.294-.668-.474-1.36-.719-2.044z" fill="#fcdb00" stroke="#fcdb00" stroke-width=".20141"/>
<path d="M344.783 49.548c-.037 1.217.067 2.52.96 3.443 1.15 1.165 2.715 2.03 4.174 2.748-.121-.707-.24-1.486-.565-2.129a7.836 7.836 0 0 0-1.964-2.456c-.778-.645-1.703-1.109-2.605-1.606z" fill="#fcdb00"/>
<path d="M423.954 89.94c-.07.54-.114.82.255 1.252 2.09 2.65 3.976 5.445 6.15 8.03.777.905 1.464 2.022 2.42 2.74.496.441.98-.292.826-.751-.204-.584-.587-1.12-.898-1.652-.904-1.456-1.674-2.931-2.692-4.315-1.555-2.12-3.614-4.252-6.06-5.304z"/>
<g fill="#fcdb00">
<path d="M345.218 55.411c.065 1.506.754 2.947 1.93 3.9.377.284.844.556 1.32.61.76-.04 1.054-.878 1.386-1.433-1.615-.927-3.067-2.085-4.636-3.077z" stroke="#fcdb00" stroke-width=".20141"/>
<path d="M336.196 92.077c-1.558-.85-3.327-1.553-5.125-1.583-1.183-.035-2.29.335-3.316.9-1.222.686-2.374 1.564-3.52 2.373-3.634 2.577-7.412 4.94-11.376 6.976-2.157 1.128-4.365 2.132-6.567 3.168-.314.167-.74.317-.958.612.107.276.24.536.389.795 1.61 2.707 3.528 5.22 5.792 7.417 1.075-1.41 1.844-2.99 2.817-4.462.377-.534.826-1.193 1.488-1.384.406.138.693.276.764.738.138 1.042-.148 2.038.352 3.058.507.989 1.372 1.826 2.148 2.607.783-2.308 1.186-4.819 1.632-7.213.191-1.373 1.365-2.327 2.428-3.083 2.773-1.838 5.651-3.63 9.08-3.767 1.358-.065 2.513.313 3.574 1.172 3.46 2.843 6.688 6.042 10.057 8.996 3.415 2.969 6.972 5.835 10.765 8.305.13-1.036.345-2.062.47-3.098.101-.604-.333-.964-.626-1.44-.702-.953-.913-2.04-1.324-3.152-1.176-3.375-2.233-6.849-2.935-10.356-1.371-.542-2.75-1.066-4.115-1.627-2.37-.968-4.563-2.257-6.884-3.331-1.629-.962-3.372-1.678-5.01-2.621zM416.537 140.682c-2.744-1.176-5.588-2.17-8.508-2.812-.245.716-.446 1.436-.502 2.196-.118 1.731 0 3.465.513 5.13.65 2.084 1.6 4.074 2.279 6.147.187.622.405 1.404.223 2.045-.257.492-.77.873-1.194 1.219-1.286.978-2.64 1.87-3.989 2.758-3.51 2.294-7.385 4.07-11.328 5.48-2.273.736-4.503 1.503-6.823 2.088a17.11 17.11 0 0 0-2.794.935c2.147 3.077 4.183 5.977 7.128 8.376 1.425-1.191 2.13-2.857 3.384-4.175.328-.327.969-.815 1.45-.583.278.444.426.987.614 1.474.606 1.6 1.504 3.049 2.96 4.005.678-1.751.862-3.592 1.234-5.416.22-1.055.639-2.034 1.492-2.726 1.654-1.389 3.92-2.13 5.916-2.888 3.475-1.344 7.01-2.13 10.366-3.596.516-.252 1.099-.532 1.487-.964.47-.665.387-1.633.434-2.415.184-3.249.838-6.453 1.912-9.522.34-.874.764-1.843.87-2.783-.249-.246-.587-.421-.887-.6-2.048-1.189-4.103-2.34-6.237-3.373zM303.09 105.465c-2.368.79-4.605 2.014-6.627 3.472-.949.669-1.782 1.474-2.745 2.123 1.292.55 2.765.852 4.17.854 2.093-1.44 4.268-2.919 6.533-4.106-.444-.78-.883-1.563-1.33-2.343zM305.684 109.617c-1.161.582-2.24 1.342-3.319 2.062-1.716 1.204-3.661 2.467-4.928 4.157 1.748.73 3.68 1.111 5.57 1.19 2.475.09 5.201-.749 6.954-2.552-1.536-1.546-3.044-3.041-4.277-4.857zM382.15 166.426c-1.899.653-3.742 1.432-5.478 2.45-1.336.806-2.586 1.675-3.585 2.894 1.127.387 2.521.886 3.721.727 2.054-1.496 4.266-2.585 6.503-3.763-.423-.755-.789-1.527-1.16-2.308zM384.702 170.407c-1.682.666-3.267 1.674-4.78 2.66a38.78 38.78 0 0 0-3.541 2.636c2.55 1.215 5.44 2.16 8.299 1.923 1.87-.12 3.629-.918 5.223-1.858-1.892-1.621-3.834-3.25-5.2-5.361zM427.436 193.363c-2.816 1.202-5.48 2.584-7.768 4.652 1.189.382 2.479.814 3.729.877 1.824-1.367 3.605-2.758 5.63-3.83-.534-.562-1.04-1.153-1.591-1.699zM336.71 152.376c-.517.062-1.021.316-1.506.503-2.195.953-4.298 2.222-6.084 3.824a9.26 9.26 0 0 0 3.001.926c.24.051.473-.142.663-.262 1.726-1.251 3.444-2.553 5.28-3.64-.45-.448-.863-.947-1.354-1.35zM430.802 196.601c-1.526.892-2.985 1.92-4.384 2.997-.955.735-1.86 1.518-2.618 2.462 1.448.747 2.999 1.238 4.59 1.572 1.617.302 3.376.377 4.941-.212 1.106-.444 1.885-1.25 2.606-2.17-1.855-1.377-3.552-2.971-5.135-4.649zM339.76 155.535c-1.497.867-2.901 1.93-4.255 3.004-.987.782-1.963 1.532-2.864 2.415 2.38.933 4.734 1.571 7.31 1.304 1.939-.222 3.837-1.082 4.928-2.761-1.835-1.124-3.513-2.533-5.119-3.962z"/>
</g>
<path d="M76.054 20.086c-4.387.014-8.024 2.445-9.46 5.877a9.353 9.353 0 0 0-.667 2.577c-.294 2.634.543 5.405 2.541 7.427 2.558 2.589 6.257 3.638 9.32 2.096 2.708-1.363 4.123-4.144 4.15-6.877.35.144.722.258 1.106.387v53.443H28.8c-.128-.385-.24-.756-.384-1.106 2.733-.028 5.512-1.445 6.875-4.152 1.541-3.063.494-6.762-2.094-9.32-2.022-1.999-4.793-2.835-7.428-2.541a9.37 9.37 0 0 0-2.578.668c-3.432 1.436-5.863 5.074-5.877 9.46-.012 3.82 1.37 6.594 2.305 8.258.915 1.63 1.158 1.79 1.162 3.217v19.41c-.002 1.427-.246 1.586-1.162 3.219-.935 1.664-2.317 4.437-2.305 8.256v.002c.014 4.386 2.445 8.024 5.877 9.46 3.325 1.392 7.311.788 10.006-1.874 2.588-2.558 3.635-6.258 2.094-9.32-1.363-2.709-4.143-4.124-6.877-4.151.144-.35.258-.72.387-1.106h54.244v91.174c-.385.129-.756.243-1.106.387-.027-2.734-1.442-5.514-4.15-6.877-3.063-1.542-6.763-.494-9.32 2.094-1.999 2.022-2.836 4.793-2.542 7.428.098.874.317 1.744.666 2.578 1.437 3.432 5.075 5.863 9.461 5.877 3.82.012 6.594-1.37 8.258-2.305 1.63-.915 1.789-1.158 3.217-1.162h19.41c1.426.002 1.586.245 3.219 1.162 1.664.934 4.439 2.317 8.257 2.305 4.387-.014 8.025-2.445 9.461-5.877 1.392-3.325.79-7.312-1.873-10.006-2.558-2.589-6.257-3.636-9.32-2.094-2.707 1.363-4.125 4.142-4.152 6.875-.35-.144-.721-.257-1.106-.385v-91.174h54.371c.128.385.243.756.387 1.106-2.733.027-5.514 1.443-6.877 4.15-1.542 3.063-.493 6.762 2.096 9.32 2.694 2.663 6.678 3.267 10.004 1.875 3.432-1.436 5.863-5.074 5.877-9.46v-.002c.011-3.82-1.369-6.592-2.303-8.256-.917-1.634-1.162-1.792-1.164-3.221V89.5c.004-1.428.249-1.587 1.164-3.217.934-1.664 2.315-4.439 2.303-8.258-.014-4.386-2.445-8.024-5.877-9.46a9.359 9.359 0 0 0-2.577-.669c-2.634-.294-5.406.543-7.427 2.541-2.589 2.558-3.638 6.258-2.096 9.32 1.362 2.707 4.142 4.125 6.875 4.153-.144.35-.257.721-.385 1.106h-54.37V31.573c.384-.129.755-.241 1.105-.385.028 2.732 1.445 5.512 4.152 6.875 3.063 1.541 6.762.492 9.32-2.096 2.663-2.694 3.265-6.679 1.873-10.004-1.436-3.432-5.074-5.863-9.46-5.877-3.82-.012-6.594 1.368-8.258 2.303-1.634.917-1.792 1.162-3.221 1.164H87.529c-1.428-.004-1.587-.249-3.217-1.164-1.664-.935-4.439-2.315-8.258-2.303z"/>
<path transform="translate(223.09 -3.617)" d="M-147.03 26.703c-3.33.01-5.758 1.778-6.703 4.035a6.364 6.364 0 0 0-.453 1.752c-.2 1.792.363 3.64 1.693 4.986 1.867 1.89 4.17 2.363 5.838 1.524 1.668-.84 2.55-2.575 2.523-4.348a1.5 1.5 0 0 0-1.521-1.478 1.5 1.5 0 0 0-1.477 1.523c.01.66-.426 1.397-.875 1.623-.448.226-1.06.357-2.355-.953-.867-.877-1.1-2.291-.606-3.47.494-1.18 1.587-2.187 3.946-2.194 2.537-.008 3.778.68 5.3 1.535 1.203.675 2.755 1.35 4.67 1.662v58.732h-59.533c-.312-1.915-.987-3.467-1.662-4.67-.855-1.523-1.543-2.763-1.535-5.3.007-2.359 1.014-3.452 2.194-3.946 1.179-.493 2.594-.26 3.47.606 1.31 1.294 1.18 1.906.953 2.355-.225.449-.963.885-1.623.875a1.5 1.5 0 0 0-1.523 1.477 1.5 1.5 0 0 0 1.478 1.521c1.773.026 3.509-.855 4.348-2.523.84-1.668.366-3.97-1.523-5.838-1.346-1.33-3.195-1.893-4.987-1.693a6.366 6.366 0 0 0-1.752.453c-2.257.944-4.024 3.373-4.035 6.703-.01 3.15 1.037 5.206 1.92 6.78.88 1.566 1.541 2.611 1.547 4.677v19.35h.002v.054c0 2.084-.665 3.128-1.549 4.702-.883 1.573-1.93 3.628-1.92 6.779.01 3.33 1.778 5.758 4.035 6.703 2.258.945 4.944.534 6.739-1.24 1.89-1.867 2.363-4.17 1.523-5.838s-2.575-2.55-4.347-2.523a1.5 1.5 0 0 0-1.479 1.521 1.5 1.5 0 0 0 1.523 1.477c.66-.01 1.398.426 1.623.875.226.448.357 1.06-.953 2.355-.876.867-2.291 1.1-3.47.606-1.18-.494-2.186-1.585-2.194-3.944-.008-2.537.68-3.78 1.535-5.302.676-1.203 1.35-2.755 1.663-4.67h59.533v96.463c-1.916.312-3.468.987-4.67 1.662-1.523.855-2.764 1.543-5.301 1.535-2.358-.007-3.452-1.014-3.945-2.193-.494-1.18-.261-2.595.605-3.471 1.294-1.31 1.907-1.18 2.355-.953.45.226.885.963.875 1.623a1.5 1.5 0 0 0 1.477 1.523 1.5 1.5 0 0 0 1.522-1.478c.026-1.773-.856-3.509-2.524-4.348-1.668-.84-3.97-.366-5.838 1.523-1.33 1.346-1.893 3.195-1.693 4.987.066.597.217 1.187.453 1.752.945 2.257 3.374 4.024 6.703 4.035 3.15.01 5.206-1.037 6.78-1.92 1.566-.88 2.611-1.541 4.677-1.547h19.35v-.002h.055c2.083 0 3.128.665 4.701 1.549 1.573.883 3.629 1.93 6.78 1.92 3.329-.01 5.758-1.778 6.702-4.035.945-2.258.534-4.944-1.24-6.739-1.867-1.89-4.17-2.363-5.838-1.523-1.667.84-2.55 2.575-2.523 4.348a1.5 1.5 0 0 0 1.521 1.478 1.5 1.5 0 0 0 1.477-1.523c-.01-.66.426-1.398.875-1.623.449-.226 1.061-.357 2.356.953.866.876 1.099 2.291.605 3.47-.494 1.18-1.585 2.186-3.943 2.194-2.538.008-3.78-.68-5.303-1.535-1.203-.675-2.755-1.35-4.67-1.662v-96.463h59.66c.313 1.915.987 3.467 1.662 4.67.855 1.522 1.543 2.765 1.535 5.302-.007 2.358-1.014 3.45-2.193 3.944-1.18.493-2.594.26-3.47-.606-1.31-1.294-1.18-1.907-.954-2.355.226-.45.963-.885 1.623-.875a1.5 1.5 0 0 0 1.523-1.477 1.5 1.5 0 0 0-1.478-1.522c-1.772-.026-3.508.856-4.348 2.524s-.366 3.97 1.524 5.838c1.794 1.773 4.48 2.185 6.738 1.24 2.257-.945 4.025-3.374 4.035-6.703.01-3.15-1.036-5.206-1.92-6.78-.883-1.573-1.549-2.617-1.549-4.7v-.055h.002v-19.35c.006-2.066.668-3.111 1.547-4.678.884-1.573 1.93-3.629 1.92-6.78-.01-3.329-1.778-5.758-4.035-6.702a6.364 6.364 0 0 0-1.752-.454c-1.792-.2-3.64.364-4.986 1.694-1.89 1.867-2.363 4.17-1.524 5.838.84 1.667 2.576 2.55 4.348 2.523a1.5 1.5 0 0 0 1.479-1.521 1.5 1.5 0 0 0-1.524-1.477c-.66.01-1.397-.426-1.623-.875-.226-.449-.356-1.061.953-2.355.877-.867 2.292-1.1 3.471-.606 1.18.494 2.186 1.587 2.193 3.945.008 2.538-.68 3.778-1.535 5.301-.675 1.203-1.35 2.755-1.662 4.67h-59.66V32.9c1.915-.313 3.468-.987 4.67-1.662 1.523-.855 2.765-1.543 5.303-1.535 2.358.007 3.45 1.014 3.943 2.193.494 1.18.261 2.594-.605 3.47-1.295 1.31-1.907 1.18-2.356.954s-.885-.963-.875-1.623a1.5 1.5 0 0 0-1.476-1.523 1.5 1.5 0 0 0-1.522 1.478c-.026 1.772.856 3.508 2.523 4.348 1.668.84 3.971.366 5.838-1.524 1.774-1.794 2.185-4.48 1.24-6.738-.944-2.257-3.373-4.025-6.703-4.035-3.15-.01-5.206 1.036-6.779 1.92-1.573.883-2.618 1.549-4.701 1.549h-.055v-.002h-19.35c-2.066-.006-3.11-.668-4.677-1.547-1.574-.884-3.63-1.93-6.78-1.92zm12.98 6.467h16.381v60.002a1.5 1.5 0 0 0 1.5 1.5 1.5 1.5 0 0 0 .52-.139 1.5 1.5 0 0 0 .369.1h60.002v16.38h-59.984a1.5 1.5 0 0 0-.907-.308 1.5 1.5 0 0 0-1.5 1.5v98.002h-16.38v-98.002a1.5 1.5 0 0 0-1.5-1.5 1.5 1.5 0 0 0-.86.309h-59.904V94.633h60.002a1.5 1.5 0 0 0 .307-.082 1.5 1.5 0 0 0 .455.12 1.5 1.5 0 0 0 1.5-1.5z" fill="#fcdb00"/>
</svg>
