<?xml version="1.0" encoding="UTF-8"?>
<svg width="416" height="476" viewBox="0 0 416 476" xmlns="http://www.w3.org/2000/svg">
<path d="M2.5 2.492v265.64c.04 113.44 92.036 205.38 205.5 205.38 113.47 0 205.47-91.942 205.5-205.38V2.492z" fill="#f00000" stroke="#000" stroke-width="5"/>
<path d="M71.735 44.498c-8.21.055-16.478-.073-24.678.064-.142 1.603-.041 3.228-.055 4.835.005 14.761-.004 29.528 0 44.29.023 1.46-.137 2.994.115 4.442.365.776.944 1.47 1.456 2.16 2.42 3.204 4.807 6.442 7.319 9.574.726.968 1.543 1.653 1.46 2.977-.013 81.738.033 163.7-.022 245.42 29.637-.009 59.274-.005 88.916.005.005-3.936-.009-7.867-.009-11.798 15.268.055 30.537.014 45.805.018.018-8.876 0-17.757.01-26.637 2.2-.009 4.401-.009 6.607-.009.022 3.274.013 6.548.013 9.826.977 0 1.954.004 2.931.009-.005-3.283-.005-6.566-.009-9.848 2.288.009 4.576.018 6.868.014.009 3.269.005 6.538-.005 9.807 1.027.018 2.05.032 3.073.05.009-3.282.009-6.57.005-9.853 2.282-.023 4.57-.027 6.858.028-.037 3.269-.019 6.533-.005 9.802.959 0 1.917 0 2.872.005 0-3.27.009-6.543.004-9.812 2.228-.027 4.452-.036 6.68-.054.027 8.89 0 17.784.005 26.678 14.218.013 28.436.005 42.654-.005 0 3.926.01 7.858-.004 11.785 30.285-.019 60.571-.028 90.852.005-.027-67.187.004-134.39-.009-201.57.014-1.535-.123-3.101.04-4.621.266-1.201 1-2.329 1.553-3.415 1.74-3.302 3.447-6.616 5.242-9.89.456-.83.78-1.639.749-2.612-.005-15.885-.036-31.788.005-47.668-8.05.014-16.095 0-24.14 0-.018 8.539-.014 17.077 0 25.615-5.84-.013-11.675.01-17.515-.009.005-8.534.014-17.072.005-25.605-8.292.01-16.583 0-24.875.014-.009 8.53.019 17.062-.013 25.596-5.712 0-11.42.01-17.131 0 .022-8.534-.014-17.067.018-25.6-8.355-.006-16.716-.015-25.072.027.046 15.857-.022 31.788.037 47.649-.05 1.132.575 1.858 1.173 2.734a473.28 473.28 0 0 1 7.278 10.53c.667 1.054 1.904 2.27 1.822 3.58-.005 18.232-.013 36.472.01 54.708-8.461-.005-16.918.013-25.374 0-.009 8.131-.014 16.263-.009 24.4-7.118.022-14.236.005-21.354.018-.005-8.127-.018-16.255 0-24.382-9.342-.064-18.684-.014-28.025-.032.032 8.132-.023 16.264.01 24.396-8.215.037-16.429-.009-24.643.019-.013-8.137-.032-16.278 0-24.414-8.328-.023-16.656.041-24.989-.004.01-30.253-.018-60.507 0-90.756.032-1.59-.142-3.237.091-4.812.626-1.22 1.694-2.238 2.534-3.32 2.507-3.118 4.987-6.26 7.566-9.32.626-.849 1.42-1.478 1.37-2.615.05-10.497-.037-21.03.036-31.527.201-3.055-.155-6.087.037-9.132.196-3.927.133-7.821-.096-11.743-8.588.009-17.173 0-25.76.004-.028 9.11.014 18.222-.005 27.336-5.885-.022-11.776-.022-17.66-.008.008-9.11-.005-18.223.008-27.332-8.337.023-16.675-.023-25.012.022.005 9.105.005 18.205-.004 27.31-5.858-.028-11.715 0-17.573-.015-.046-9.104 0-18.213-.037-27.322zm139.85 226.35c2.347 1.543 5.246 3.452 6.73 5.863.182 2.99-.01 6.017.06 9.022-2.28.032-4.562.032-6.84.022.027-4.967-.041-9.94.05-14.908zm-3.127.215c.018 4.894.013 9.785 0 14.679l-6.845.013c0-3.045.05-6.09-.027-9.131 2.06-2.17 4.328-3.987 6.872-5.562zm12.853 9.054c1.328 1.748 2.392 3.635 3.351 5.607-1.132.01-2.26.014-3.393.018-.009-1.872-.009-3.749.042-5.625zm-22.683.27c.054 1.784.06 3.575.06 5.36-1.046 0-2.087-.005-3.133-.01.721-1.42 1.415-2.83 2.278-4.177.26-.392.525-.785.795-1.173zm15.507 8.341c1.412 0 2.828.056 4.235.041.005 2.466.013 4.927.005 7.392-2.274.018-4.548.023-6.822.014.023-2.447-.128-4.917.046-7.36a32.082 32.082 0 0 1 2.536-.087zm-12.517.018 6.844.014c.005 2.48.027 4.954-.046 7.433-2.264-.018-4.53-.022-6.798-.018a447.58 447.58 0 0 1 0-7.429zm24.14.005c.812 2.425 1.351 4.904 1.785 7.42-2.091.013-4.187.009-6.279-.014 0-2.46-.005-4.927 0-7.388 1.498-.013 2.996-.018 4.494-.018zm-31.486.005c1.47 0 2.94.005 4.41.018-.008 2.466-.014 4.936-.018 7.402-2.037.009-4.077.009-6.113-.01.219-2.56.926-4.976 1.72-7.41zm17.309 10.501c2.264.028 4.529.032 6.794.037-.005 2.3-.004 4.602-.014 6.903-2.26-.005-4.525-.005-6.785.005-.032-2.315-.05-4.63.005-6.944zm16.378.019c.009 2.31.009 4.62 0 6.926-2.233-.01-4.461-.014-6.694-.018.005-2.297 0-4.594-.004-6.89 2.233-.019 4.465-.018 6.698-.018zm-22.92.003h3.42c.013 2.306.008 4.612.004 6.922-2.283 0-4.562 0-6.844-.005a884.74 884.74 0 0 0 0-6.912l3.42-.006zm-9.669.003c1.103 0 2.205.009 3.308.025-.005 2.292-.005 4.584.005 6.876-2.21.018-4.415.018-6.625 0 0-2.296 0-4.589.005-6.885 1.102-.012 2.205-.018 3.308-.017zm16.188 9.974c2.265.009 4.534.01 6.799.014.013 2.493.022 4.981.018 7.47-2.279-.006-4.557-.006-6.84 0 0-2.498.005-4.991.023-7.484zm-16.188.008a182.08 182.08 0 0 1 3.313.024c-.005 2.48-.01 4.963.009 7.442-2.21.014-4.42.01-6.634-.009-.005-2.475-.005-4.945 0-7.42 1.105-.022 2.209-.035 3.312-.037zm6.248 0c2.283 0 4.57.006 6.854 0 0 2.498.023 4.996-.064 7.489-2.269-.014-4.539-.014-6.808-.014.023-2.493.027-4.986.018-7.474zm24.671.001c.558 0 1.116.002 1.674.004.01 2.489.005 4.977 0 7.465-2.232.005-4.47.005-6.707-.013.005-2.47.004-4.94.01-7.416 1.674-.03 3.349-.04 5.024-.04z"/>
<path d="M135.27 47.631c.027 9.15.023 18.301.01 27.455-8.05-.005-16.105-.006-24.154-.006-.032-9.15-.019-18.3-.01-27.445-6.205.023-12.404-.017-18.609.02-.01 9.145.04 18.29-.02 27.436-7.958-.014-15.91-.013-23.869-.004-.032-9.15.008-18.301-.02-27.451-6.181.036-12.362-.041-18.54.04-.014 16.14.04 32.29-.01 48.427 34.892.027 69.79.005 104.68.01 0-16.154.001-32.303.006-48.457-6.488-.032-12.977-.006-19.465-.024zm127.92 43.938c.014 14.51.005 29.024.01 43.539 34.285-.014 68.564.006 102.85-.008-.004-14.51-.017-29.02-.008-43.53-6.009.022-12.019.013-18.027.013.055 8.56-.014 17.123.041 25.684-7.94.009-15.875 0-23.811 0-.009-8.557-.023-17.113 0-25.67a2789.4 2789.4 0 0 0-18.537-.01c.023 8.561.005 17.123.01 25.684-7.908-.018-15.817.033-23.721-.031.028-8.552.01-17.104.023-25.66-6.278 0-12.557.017-18.83-.01zm-161.04 7.7c-16.799 0-33.597.017-50.393.03 2.749 3.356 5.273 6.885 7.994 10.268 28.13.019 56.27.029 84.404-.003 2.749-3.457 5.517-6.895 8.389-10.246-16.796-.04-33.596-.051-50.395-.05zm-41.809 13.416c0 8.812 0 17.63.004 26.445 13.588-.05 27.182-.017 40.77-.017-.01-8.803 0-17.601 0-26.404-13.588-.014-27.181.04-40.773-.024zm43.795.014c.005 8.807.018 17.61-.014 26.414 13.013.004 26.026-.037 39.04.017-.023-8.803.008-17.61-.014-26.418-13.004-.009-26.008.014-39.012-.013zm210.73 25.44c-16.656.002-33.311.013-49.965.022 2.762 3.932 5.36 7.987 8.246 11.822 28.427-.059 56.854-.028 85.281-.02 2.192-3.894 4.264-7.856 6.4-11.782a25212.69 25212.69 0 0 0-49.963-.041zm-245.63 4.046a490.86 490.86 0 0 0-8.846.05c-.1 8.95-.018 17.967-.04 26.92 5.907-.008 11.811.004 17.72-.01.005-8.98-.004-17.955.014-26.937-2.945 0-5.896-.019-8.848-.024zm66.172.004c-2.585-.003-5.171 0-7.758.037.023 8.323.02 16.643.006 24.967.064.612-.11 1.455.342 1.926 5.05.1 10.114-.014 15.168.05-.014-8.994-.004-17.986-.004-26.98-2.584.012-5.17.003-7.754 0zm-10.703.004c-14.57 0-29.133-.004-43.703.005.023 8.986.01 17.971 0 26.957 14.57-.018 29.133.004 43.703-.01-.005-8.985-.018-17.966 0-26.952zm233.76 10.79c-5.333.046-10.667 0-16 .022-.023 6.127.015 12.252-.008 18.38 5.329.004 10.655-.006 15.988 0 .013-6.133-.021-12.265.02-18.4zm-66.502.014c-6.114.019-12.228 0-18.342.004.032 6.128.009 12.255.014 18.383 6.109.005 12.213 0 18.322 0 .01-6.127.006-12.259.006-18.387zm3.014.004c.022 6.128-.006 12.254.008 18.377 14.812 0 29.625.014 44.432 0a8042.2 8042.2 0 0 1-.01-18.377c-14.812.005-29.618.005-44.43 0zM60.367 172.11c-.041 8.584-.01 17.174-.024 25.758 13.593.023 27.187-.019 40.78.018-.033-8.593.03-17.182-.034-25.775-13.574.009-27.148.013-40.723 0zm82.779 0c-12.994.01-25.985.011-38.975.006-.05 8.584-.005 17.172-.028 25.756 13.004.018 26.008-.01 39.012.008.005-8.589.027-17.181-.01-25.77zm172.23 2.225c-13.917.022-27.83.005-41.746.01.004 7.428.003 14.862.008 22.29 13.935 0 27.875.008 41.814-.005-.05-7.434.106-14.871-.077-22.295zm3.035.017v.002c.009 7.429-.013 14.853-.004 22.281 13.355.004 26.709.003 40.064-.006-.05-7.424-.018-14.853-.018-22.277-13.35-.009-26.697-.013-40.043 0zm-35.607 25.303c-3.057 0-6.113.008-9.17.012-.004 8.32.004 16.638-.01 24.957 6.114-.005 12.228-.006 18.342-.006 0-8.314-.008-16.629.01-24.943-3.057-.016-6.115-.02-9.172-.02zm12.172.002c.014 8.324.014 16.648 0 24.967 14.807-.009 29.613-.005 44.42 0 .014-8.323-.009-16.643.01-24.967-14.807.01-29.618 0-44.43 0zm55.486 0c-2.669.002-5.337.009-8.006.004.004 8.32-.015 16.64-.006 24.963 5.338-.014 10.675.022 16.008-.023-.014-8.306-.031-16.611.01-24.912a680.43 680.43 0 0 0-8.006-.031zm-222.61 1.15c-.22 1.58-.228 3.156-.192 4.745.004 5.556.006 11.113-.003 16.67 5.168.04 10.34 0 15.51.027-.018-7.145.013-14.286-.024-21.432-5.095.023-10.196.036-15.29-.01zm-3.178.018c-14.55.01-29.102.02-43.658.006-.013 7.136.01 14.278-.013 21.418 14.565-.009 29.134-.028 43.699.004-.014-7.146.013-14.287-.028-21.428zm-46.586.01c-5.908-.004-11.817-.001-17.72.004-.042 7.136-.013 14.274-.022 21.41a2552.84 2552.84 0 0 1 17.72.004c.024-7.141-.014-14.282.022-21.418zm170.25 9.643v.002c-.069 7.218.015 14.436-.062 21.654 7.437-.032 14.875-.01 22.312-.014-.014-7.21.023-14.423-.018-21.637-7.41 0-14.822 0-22.232-.006zm-91.143.002c-3.643.001-7.288.005-10.932.007-.027 7.21.01 14.423-.013 21.633 7.296-.005 14.593.01 21.885 0 .004-7.21.017-14.423-.01-21.637-3.644-.004-7.286-.005-10.93-.004zm47.172 0c-1.815.003-3.63.01-5.445.025v.002c-.05 7.15.037 14.299-.045 21.449 1.708.192 3.414.196 5.13.164 5.576.009 11.153-.004 16.728.01-.019-7.219.025-14.432-.03-21.646-5.444.013-10.891-.015-16.337-.004zm-123.63 14.83c-6.8-.007-13.597-.004-20.359.05-.096 7.803.002 15.662-.035 23.48 13.588.004 27.176-.006 40.764.003.005-7.844.004-15.683.004-23.527-6.771.016-13.573 0-20.373-.006zm42.928.002c-6.508-.007-13.014-.006-19.486.044-.091 7.808-.009 15.674-.04 23.486 13.003-.014 26.011.01 39.015-.007.01-7.84-.004-15.68.01-23.523-6.479.02-12.99.006-19.498 0zm170.84 2.312a2433.6 2433.6 0 0 0-20.84.047c-.096 7.707-.017 15.474-.031 23.195 13.912-.023 27.824-.023 41.736 0 .127-7.716.124-15.52-.004-23.236-6.926.016-13.896 0-20.861-.006zm43.924.002c-6.677 0-13.354.007-20.03.014.004 7.734.008 15.474.003 23.213 13.351.005 26.705-.005 40.061 0-.041-7.73-.032-15.47 0-23.203a7040.74 7040.74 0 0 0-20.033-.024zm-158.78 7.445a1.535 1.535 0 0 0-.18.016c-11.071.005-22.144.009-33.212 0-.032 9.894.02 19.793-.022 29.688 11.378 0 22.755.05 34.133-.024-.005-9.387-.013-18.784.01-28.172-.052-.667.105-1.52-.729-1.507zm56.244.006c-17.524.018-35.05.019-52.574.01h-.002c.01 9.903.006 19.808.006 29.71 2.1-.01 4.206-.014 6.31-.005 5.302-6.296 11.939-11.273 19.87-13.707.397-.123.818-.095 1.265.088 7.602 2.612 14.387 7.438 19.51 13.615 1.877.009 3.758 0 5.635 0-.027-9.903.003-19.808-.02-29.711zm34.678.01c-10.538.01-21.075-.001-31.617.004-.023 9.899 0 19.793-.013 29.69 10.547.006 21.099-.004 31.646 0zm-201.34 16.78c-2.95-.008-5.9-.002-8.844.058-.132 8.78-.014 17.642-.06 26.432 5.913-.005 11.827.005 17.74 0-.01-8.822-.015-17.642.008-26.46-2.943.003-5.893-.02-8.844-.029zm73.912.003c-5.168.027-10.337-.027-15.506.037.037 8.808.001 17.616.02 26.428 5.164.055 10.328.005 15.492.027.004-8.83-.006-17.662-.006-26.492zm-40.299.01a8699.5 8699.5 0 0 0-21.848.013c0 8.817.009 17.638-.01 26.46 14.57.013 29.136 0 43.701.01.005-8.831-.018-17.658.004-26.483-7.282.007-14.565.002-21.848 0zm192.13 1.908v.002a9293.13 9293.13 0 0 0-.004 25.322c14.803-.019 29.61-.015 44.412-.006.004-8.438.017-16.875-.006-25.312-14.803 0-29.604.008-44.402-.006zm47.467.004c-.005 8.437-.01 16.877.008 25.314 5.328-.064 10.672.1 16-.092-.032-8.406-.019-16.817-.014-25.223-5.328.005-10.66.005-15.994 0zm-68.803.006c-.032 8.437-.014 16.875-.02 25.309 6.11-.005 12.22-.03 18.325.007.008-8.437.026-16.879-.006-25.316-6.1-.005-12.2 0-18.3 0zm-64.969 1.048c-4.945 1.68-9.222 4.609-13.049 8.116 2.644 2.497 5.19 5.094 7.742 7.683 1.69-1.255 3.485-2.334 5.325-3.347-.024-4.15.014-8.301-.018-12.451zm2.96.01c-.033 4.141.002 8.279-.034 12.42 1.95 1.037 3.75 2.292 5.549 3.57 2.47-2.515 5.045-4.935 7.652-7.314-3.858-3.79-8.164-6.621-13.168-8.676zm-18.2 10.506c-3.808 3.936-6.95 8.707-9.17 13.711 2.963 1.452 5.941 2.878 8.89 4.358 1.845-4.137 4.626-7.698 7.882-10.816-2.562-2.384-5-4.906-7.602-7.252zm33.498.453a224.45 224.45 0 0 0-7.451 7.145c3.036 3.068 5.64 6.488 7.447 10.424 3-1.393 5.976-2.83 8.967-4.246-2.402-4.662-5.26-9.574-8.963-13.322zm-52.492 2.03c-4.232-.005-8.463.003-12.68.06-.132 9.534-.014 19.151-.064 28.693 4.712.004 9.424-.02 14.14.008 1.133-10.278 5.338-20.331 11.292-28.746-4.221.007-8.455-.011-12.688-.016zm-28.195.005c-.004 9.58.013 19.163-.01 28.742 4.133.004 8.265-.003 12.396.01-.032-9.579-.003-19.162-.017-28.746-4.123 0-8.246.003-12.37-.006zm118.29 0a198.15 198.15 0 0 0-6.055.051c-.127 9.534 0 19.155-.078 28.697 4.06-.018 8.123 0 12.182 0 .005-9.579-.003-19.158.006-28.742-2.016.019-4.035.001-6.054-.006zm-20.424.002c-3.758-.002-7.514-.001-11.27.022 6.076 8.524 9.997 18.332 11.243 28.742 3.767-.032 7.534-.019 11.301-.024a19661 19661 0 0 1 0-28.736c-3.758.007-7.516 0-11.273-.003zm-120.45 13.57c-6.508-.004-13.013-.002-19.48.04-.119 7.825-.005 15.693-.05 23.528 13.007-.027 26.011-.02 39.015-.005.014-7.854.005-15.701.01-23.555-6.474.009-12.986-.004-19.494-.008zm-42.932.002a2808 2808 0 0 0-20.355.047c-.1 7.812.005 15.675-.045 23.496 13.593.024 27.191-.01 40.783.018-.022-7.853.004-15.707-.01-23.561-6.762.014-13.568.003-20.372 0zm102.24.54c-2.25 5.241-3.74 10.803-4.28 16.487 3.439.023 6.883.01 10.32.014.348-2.685.754-5.338 1.448-7.959.407-1.466.914-2.89 1.242-4.379-2.95-1.301-5.808-2.812-8.73-4.164zm132.4.099c-13.917.005-27.833-.008-41.75.006.01 7.634.004 15.27.004 22.91 13.944-.019 27.888 0 41.832-.014-.064-7.634.097-15.273-.086-22.902zm3.027.006c.005 7.634.009 15.268-.01 22.902 13.352-.01 26.706.013 40.062-.01-.032-7.63-.008-15.263-.008-22.893a38177 38177 0 0 0-40.043 0zm-81.264.187c-.876.165-1.693.492-2.488.885-2.132 1.073-4.296 2.074-6.437 3.13 1.36 3.926 2.332 8.044 2.652 12.194 3.447-.009 6.895.014 10.342-.027-.616-5.557-1.945-11.004-4.068-16.182zm7.192 17.271c.087 6.931-.004 13.863.037 20.79 8.735-.018 17.473-.024 26.207.003.027-6.93.01-13.857.02-20.783-8.753-.014-17.511.013-26.264-.01zm-98.076.006c-.005 6.927 0 13.853 0 20.78 9.77-.019 19.544-.015 29.314.003.036-6.926.005-13.857.014-20.783-9.776 0-19.553.005-29.328 0zm36.264 1.951c-1.304 0-2.607.013-3.908.063-.11 4.922 0 9.866-.051 14.793 3.493 0 6.982-.01 10.475 0 .005-4.945 0-9.89 0-14.83-2.169.017-4.343-.024-6.516-.025zm52.367.008c-1.272 0-2.544.012-3.815.055-.082 5.05-.009 10.12-.027 15.18 3.397.005 6.8.01 10.201.006-.009-5.073-.014-10.15 0-15.223-2.117.02-4.24-.016-6.36-.018zm57.086 6.502c-6.091.074-12.21-.073-18.291.069-.119 7.332-.014 14.72-.05 22.062 6.113.005 12.227.005 18.341 0-.018-7.374-.014-14.752 0-22.131zM69.22 308a377.35 377.35 0 0 0-8.846.057v.002c-.082 7.392-.068 14.824-.004 22.22 5.415-.013 10.84-.008 16.254-.003.726-.037 1.508.095 1.426-.9.027-7.114-.01-14.256.018-21.374-2.945.023-5.897.006-8.848-.002zm277.24 0c-1.33.006-2.659.02-3.986.043-.11 7.347-.01 14.74-.047 22.09 5.333-.023 10.667.024 16-.021a5809.15 5809.15 0 0 1 .004-22.09c-3.986.006-7.982-.04-11.971-.022zm-221.78.002c-14.565.01-29.13-.008-43.695.01.027 7.42-.01 14.84.014 22.264 14.2-.014 28.553.013 42.73-.01.37.023.676-.077.914-.3.086-7.31.014-14.649.037-21.964zm214.71 0c-14.748.041-29.65-.05-44.375.041-.123 7.347-.018 14.74-.045 22.09 14.803-.018 29.604-.005 44.406 0 .005-7.378-.005-14.752.014-22.13zm-207.88.004c-1.292.003-2.584.01-3.875.023.01 7.351.029 14.704-.008 22.055 5.132.42 10.332.076 15.482.2.082-7.424.018-14.851.027-22.275-3.876.017-7.752-.011-11.627-.002zM182.5 319.3c-1.304 0-2.608.01-3.908.059-.11 4.785-.007 9.584-.043 14.369 3.493.004 6.987.01 10.48.01-.005-4.808-.015-9.617-.006-14.425-2.172.026-4.349-.012-6.524-.013zm49.803.357c-.426.002-.852.006-1.277.012-.014 4.69.008 9.379-.01 14.072 3.406-.004 6.816-.023 10.223.014-.033-4.671-.013-9.346-.004-14.021-2.976-.016-5.952-.09-8.932-.076zm12.055 3.565c-.028 6.78.013 13.56-.024 20.342 3.68.005 7.36-.005 11.035.004 0-6.78-.003-13.561.006-20.342-3.675.009-7.346 0-11.018-.004zm-98.125.004c.009 6.776.021 13.556-.006 20.332 4.128.005 8.26 0 12.393.006-.009-6.776-.023-13.556.004-20.332-4.132-.005-8.259.007-12.391-.006zm29.33.004c-4.62.014-9.245 0-13.865.006-.005 6.775.008 13.556-.024 20.336 4.63-.01 9.265-.019 13.898 0-.004-6.78.004-13.561-.01-20.342zm82.857.002c-.019 6.775.018 13.556-.014 20.336 4.06-.009 8.119-.01 12.178.004-.013-6.78-.004-13.556-.013-20.332-4.05-.004-8.1-.003-12.15-.008zm100.01 9.947c-13.351.014-26.702.02-40.053.006.009 7.333.014 14.66-.004 21.988 13.351.005 26.7.027 40.051-.01 0-7.328.006-14.656.006-21.984zm-43.066.002c-13.912.027-27.83-.001-41.746.008-.019 7.333.018 14.665-.027 21.998 13.949-.019 27.902.014 41.855-.018-.142-7.328.091-14.656-.082-21.988zm-255.03.014c-.01 7.332.004 14.66-.014 21.992 13.593 0 27.185-.013 40.777.005-.014-7.328.01-14.657-.008-21.98-13.583 0-27.172.033-40.756-.017zm82.775.007c-12.99.018-25.984.024-38.98.01-.003 7.328-.009 14.652-.009 21.98 13.008-.019 26.016-.01 39.02-.006-.018-7.328.051-14.656-.031-21.984zm39.404 3.543c-1.303 0-2.605.013-3.904.065-.147 2.242-.015 4.507-.065 6.754 3.488-.005 6.982-.01 10.475 0 0-2.265-.001-4.536.008-6.805-2.169.026-4.342-.013-6.514-.014zm52.354.002c-1.272 0-2.542.01-3.81.053v.002c-.129 2.246 0 4.515-.046 6.766 3.406-.01 6.808-.004 10.21-.004.004-2.27-.002-4.536.003-6.805-2.117.023-4.238-.01-6.357-.012z" fill="#fff"/>
<path d="m208.04 36.969c-13.757 8e-3 -27.514 0.052-41.271 0.125-0.096 9.244-0.358 24.125 0.408 33.249 0.908 10.509 3.1 21.098 6.932 30.899 2.945 7.194 6.77 14.159 11.653 20.154 6e-3 8e-3 0.0128 0.0159 0.019 0.024 4.12 5.33 9.01 10.023 14.613 13.725 3e-3 2e-3 7e-3 5e-3 0.01 7e-3 2.225 1.503 4.626 2.829 7.02 4.235 0.372 0.174 0.671 0.345 0.807 0.393 0.025 8e-3 2e-3 8e-3 0.01 0.014 0.0141-9e-3 0.0285-0.0176 0.043-0.026 2.95-1.603 5.855-3.344 8.511-5.325 8e-3 -6e-3 0.0159-0.0114 0.024-0.017 7.194-5.092 13.346-11.801 18.156-19.213 5e-3 -7e-3 0.01-0.0134 0.015-0.02 7.429-10.923 11.158-23.91 13.036-37.003v-3e-3c1.016-8.421 1.511-19.718 1.278-41.141-13.755-0.05855-27.509-0.08422-41.264-0.077z" fill="none" stroke="#000" stroke-width="3"/>
<path d="m201.6 37.124c-7e-3 10.2 7e-3 26.966-0.015 37.162-11.143 0.033-22.287 0.027-33.432 5e-3 -0.31327 1.01e-4 -0.56221 0.2632-0.545 0.576 0.212 3.765 1.038 7.519 1.813 11.128 0.054 0.25 0.275 0.43 0.531 0.431 10.55 0.041 21.098 0.013 31.645 0.026-4e-3 16.413-4e-3 32.828-4e-3 49.246 0 0.532 4.558 3.144 6.204 3.897 0.294 0.103 0.731 0.166 1.115-0.076l5.633-3.523c0.038-16.515 0.024-33.032 9e-3 -49.546 10.533-0.026 21.07 0.03 31.61-0.022 0.25475-9.69e-4 0.47484-0.17829 0.53-0.427 0.81-3.646 1.464-7.36 1.77-11.103 0.0256-0.31698-0.22399-0.5887-0.542-0.59-11.124-0.012-22.25 0.02-33.373-0.012 8e-3 -10.227-0.011-37.248-0.011-37.248z" fill="#fff" stroke="#000" stroke-width="3"/>
</svg>
