<?xml version="1.0" encoding="UTF-8"?>
<svg width="500" height="573" xmlns="http://www.w3.org/2000/svg">
<g clip-rule="evenodd" fill-rule="evenodd">
<path d="M3.55 3.83v272.15H250V3.83zM250 275.98v293.47h.005c136.11 0 246.45-110.96 246.45-247.83v-45.64h-246.45z" fill="#f00000"/>
<path d="M250 275.98H3.55v45.642c0 136.87 110.34 247.83 246.45 247.83zm0-272.15v272.15h246.45V3.83z" fill="#0093dd" stroke="#000" stroke-width="3"/>
</g>
<path d="m3.553 3.555v318.06c0 136.87 110.34 247.83 246.45 247.83s246.45-110.95 246.45-247.83v-318.06z" fill="none" stroke="#000" stroke-width="7"/>
<g fill="#fcdb00" stroke="#000" stroke-width="2.5">
<path d="m337.85 343.71v-3.679h-5.667v-5.962h-9.132v5.423h-23.576v-11.481h14.197v-13.098h-14.197v-10.72h29.417c0 10.498 9.874 10.276 9.874 0h7.45v13.859h13.857v56.104h-13.858v13.859h-7.449c0-10.307-9.874-10.498-9.874 0h-29.417v-10.72h14.197v-13.13h-14.197v-11.481h23.576v5.423h9.132v-5.962h5.667v-3.679z"/>
<path d="m357.28 306.8h17.038v97.65h-17.038z"/>
<path d="m365.79 401.21-20.936 19.283-2.277 4.662-4.479 0.444-14.378 12.876c1.114-3.584-1.51-7.263-4.9-7.263-3.365 0-5.914 3.806-4.8 7.168-2.45-0.983-6.94 1.84-6.94 6.914 0 4.98 4.217 8.119 6.667 7.168-1.089 3.361 1.435 7.135 4.826 7.135s6.013-3.678 4.9-7.262l12.423 15.065 4.479 0.444 2.277 4.218 13.784 17.316c-1.436 1.078-2.376 3.266-2.376 5.423 0 4.345 2.301 6.502 5.073 6.502h1.262c-0.148 1.078-0.322 1.078-0.322 2.03 0 3.488 2.673 6.66 5.89 6.66 3.291 0 5.915-3.172 5.915-6.66 0-0.952-0.1-0.952-0.248-2.03h1.336c2.797 0 5.074-2.157 5.074-6.502 0-2.156-1.337-4.345-3.292-5.423l12.25-13.003 2.277-5.392h4.479l14.378-18.648c-1.114 3.584 1.51 7.263 4.9 7.263s5.914-3.774 4.826-7.136c2.45 0.951 6.657-2.188 6.657-7.168 0-5.074-4.48-7.897-6.93-6.913 1.114-3.362-1.435-7.168-4.8-7.168-3.39 0-6.014 3.679-4.9 7.263l-14.378-12.876-4.48-0.444-2.276-4.662zm-0.42 19.727c7.003 0 13.437 3.9 10.64 15.699-0.841 3.679 2.03 4.98 3.292 3.362 6.855-8.785 15.64-3.045 15.64 7.58s-8.785 16.365-15.64 7.58c-1.262-1.618-4.133-0.318-3.292 3.361 2.797 11.354-3.637 15.7-10.64 15.7-7.004 0-13.414-4.346-10.617-15.7 0.842-3.678-2.029-4.979-3.316-3.361-6.83 8.785-15.615 3.044-15.615-7.58 0-10.625 8.785-16.365 15.615-7.58 1.287 1.617 4.158 0.317 3.316-3.362-2.796-11.798 3.613-15.699 10.616-15.699z"/>
</g>
<path d="m373.22 226.41c24.348 0 25.693-15.188 25.693-18.395 5.645 4.732 13.731 9.159 22.122 4.427 8.39-4.732 9.611-14.502 7.323-17.86 0 0 9.46 4.427 16.782-4.733 7.323-9.16 3.357-16.944-0.915-19.845 3.051 2.29 9.611-0.916 12.663-5.496 3.051-4.58 3.661-13.89-0.303-15.79 3.836-3.838 8.152-7.916 8.152-14.154 0-5.65-0.644-9.836-13.45-13.992 0 0 6.601-5.001-0.943-13.494-7.546-8.493-23.107-13.303-33.66-13.303-6.18-12.062 1.346-19.44 1.346-24.665 0-5.768-4.036-9.7-12.762-9.7h-15.88c0-6.227-7.24-11.276-16.168-11.276-8.93 0-16.168 5.048-16.168 11.275h-15.88c-8.727 0-12.762 3.933-12.762 9.701 0 5.225 7.526 12.602 1.346 24.665-10.553 0-26.115 4.81-33.66 13.303s-0.943 13.494-0.943 13.494c-12.806 4.157-13.451 8.341-13.451 13.992 0 6.237 4.315 10.315 8.152 14.154-3.964 1.898-3.353 11.21-0.303 15.79s9.612 7.786 12.664 5.496c-4.272 2.9-8.239 10.685-0.916 19.844 7.324 9.159 16.782 4.733 16.782 4.733-2.288 3.36-1.068 13.129 7.324 17.86s16.477 0.306 22.122-4.426c2e-3 3.207 1.346 18.395 25.694 18.395z" fill="#fff" stroke="#000" stroke-width="2.5"/>
<g stroke-width="2.5">
<path d="M363.06 158.9c2.111-11.33 3.355-22.321 4.119-30.923.374-4.21.611-7.637.762-10.107a253.16 253.16 0 0 0 .193-3.572l.008-.192.003-.05v-.016s0 .006-.003.017l-.008.048-.03.19-.119.737a1804 1804 0 0 1-2.117 12.776 1787.4 1787.4 0 0 1-5.427 30.603c-1.56 8.373-3.394 16.802-5.494 24.196-3.804 13.396-8.747 21.854-8.747 25.4h2.664c0-2.785 4.819-11.192 8.646-24.672 2.13-7.498 3.982-16.015 5.55-24.435zm21.392-9.32c-2.414-17.859-6.149-35.538-6.149-35.538s1.094 18.036 3.509 35.895l.006.04c1.854 11.148 4.235 23.2 7.12 33.36 3.827 13.48 8.645 21.888 8.645 24.671h2.665c0-3.545-4.943-12.003-8.747-25.4-2.85-10.038-5.208-21.964-7.055-33.068zm-33.4-8.995c3.255-8.361 5.498-16.493 7-22.95a167.46 167.46 0 0 0 1.522-7.225 110.82 110.82 0 0 0 .462-2.652l.007-.047-.014.046-.041.13-.163.504a469.09 469.09 0 0 1-2.999 8.89c-2.34 6.725-4.852 13.594-8.256 22.337-3.149 8.086-6.989 16.599-11.49 24.201-14.173 23.943-17.714 26.508-20.093 30.001l2.202 1.502c2.197-3.225 5.982-6.153 20.184-30.144 4.593-7.758 8.5-16.424 11.68-24.592zm-6.795-15.006c3.631-6.157 6.341-12.261 8.228-17.142a108.12 108.12 0 0 0 1.906-5.316 69.695 69.695 0 0 0 .604-1.937l.01-.035-.017.032-.047.091-.184.353a336.88 336.88 0 0 1-3.4 6.284c-2.912 5.253-5.41 9.56-9.395 16.315-5.79 9.817-13.513 20.848-22.796 29.372-11.14 10.23-13.537 12.473-17.697 15.297l1.497 2.206c4.383-2.976 6.867-5.314 18.002-15.54 9.545-8.765 17.427-20.04 23.29-29.98zm-7.264-12.265c3.9-4.813 6.925-9.714 9.068-13.677a78.642 78.642 0 0 0 2.141-4.245 49.56 49.56 0 0 0 .688-1.546l.011-.028-.018.025-.05.069-.193.268c-.185.253-.414.567-.753 1.024-.724.976-1.598 2.137-2.853 3.765-3.336 4.323-5.658 7.173-10.11 12.666-7.459 9.2-17.88 19.894-30.64 27.442-9.807 5.802-11.075 6.545-15.004 8.428l1.15 2.404c3.999-1.915 5.402-2.734 15.21-8.536 13.112-7.757 23.782-18.718 31.353-28.058zm-41.426 8.518c30.334-9.845 45.507-26.65 52.778-38.461a35.539 35.539 0 0 0 4.11-9.723 27.46 27.46 0 0 0 .58-2.839 16.438 16.438 0 0 0 .111-.953c-.004-.046.005-.068.005-.07a.14.14 0 0 1-.03.063c-.02.043-.045.098-.084.178-.08.168-.182.376-.335.677a66.222 66.222 0 0 1-1.343 2.508c-1.751 3.127-2.86 4.823-5.283 8.76-6.96 11.307-21.67 27.696-51.331 37.323z"/>
<path d="M330.52 95.168c.776-1.083 1.353-3.175 1.353-3.175s-3.496 1.543-3.686 1.887c-.833 1.513-.824 3.8-.824 3.8s2.184-.749 3.157-2.512zm66.452 42.088c-3.185-8.446-5.31-14.263-7.589-20.78a527.871 527.871 0 0 1-2.777-8.143l-.15-.46-.039-.118-.013-.041.006.043.018.123.076.478c.069.43.17 1.029.312 1.824.292 1.626.725 3.86 1.35 6.642 1.347 5.993 3.371 13.57 6.312 21.373 3.338 8.853 7.552 18.464 12.595 26.983 14.203 23.991 17.987 26.92 20.185 30.144l2.201-1.502c-2.379-3.492-5.919-6.058-20.093-30-4.942-8.349-9.09-17.799-12.395-26.567zm4.782-17.8c-4.56-9.442-10.317-18.304-10.317-18.304s3.36 10.021 7.92 19.463l.031.065c6.048 10.97 14.952 24.66 26.085 34.883 11.135 10.225 13.62 12.562 18.003 15.54l1.496-2.207c-4.16-2.824-6.558-5.068-17.697-15.297-10.87-9.98-19.567-23.346-25.553-34.207zm10.435-6.996c-4.513-5.489-7.292-8.912-10.601-13.215-1.01-1.31-2.005-2.63-2.986-3.96-.35-.476-.698-.955-1.042-1.436l-.019-.026.013.03.035.082c.224.517.456 1.03.697 1.539a81.898 81.898 0 0 0 2.273 4.443c2.268 4.136 5.458 9.233 9.572 14.237 7.522 9.15 17.947 19.697 30.67 27.223 9.808 5.803 11.212 6.622 15.21 8.537l1.151-2.405c-3.929-1.882-5.198-2.625-15.004-8.427-12.382-7.326-22.56-17.609-29.969-26.622zm39.506 6.845c-30.344-9.848-45.04-26.773-51.8-38.097l.066.136c-2.702-5.973-6.648-11.515-6.672-11.549.009.04 1.507 6.557 4.25 12.644l.068.136c7.068 11.838 22.234 29.194 53.265 39.266z"/>
<path d="M418.25 93.88c-.19-.343-1.57-.114-1.57-.114s-1.33.187-1.105.595c.972 1.764 3.499 3.32 3.499 3.32s.009-2.288-.824-3.8z"/>
</g>
<g fill="#fcdb00" stroke="#000" stroke-width="2.5">
<path d="m121.92 49.617v73.286l-51.789-51.819-11.318 11.322 51.793 51.819h-73.251v16.012h73.251l-51.793 51.826 11.318 11.322 51.789-51.819v73.286h16.007v-73.288l51.789 51.819 11.318-11.322-51.793-51.822h73.251v-16.01h-73.251l51.793-51.824-11.318-11.32-51.789 51.819v-73.286zm8.0025 74.544a18.759 18.77 0 0 1 18.759 18.77 18.759 18.77 0 0 1-18.759 18.768 18.759 18.77 0 0 1-18.757-18.768 18.759 18.77 0 0 1 18.757-18.77z" />
<path d="m129.92 116.37a26.548 26.563 0 0 0-26.55 26.565 26.548 26.563 0 0 0 26.55 26.565 26.548 26.563 0 0 0 26.55-26.565 26.548 26.563 0 0 0-26.55-26.565zm0 15.928a10.632 10.638 0 0 1 10.628 10.634 10.632 10.638 0 0 1-10.628 10.64 10.632 10.638 0 0 1-10.628-10.638 10.632 10.638 0 0 1 10.628-10.636z"/>
<path d="m129.92 40.985a101.89 101.95 0 0 0-101.89 101.95 101.89 101.95 0 0 0 101.89 101.95 101.89 101.95 0 0 0 101.89-101.95 101.89 101.95 0 0 0-101.89-101.95zm0 25.751a76.153 76.196 0 0 1 76.153 76.196 76.153 76.196 0 0 1-76.153 76.196 76.153 76.196 0 0 1-76.153-76.196 76.153 76.196 0 0 1 76.153-76.196z"/>
</g>
<g stroke="#000" stroke-width="2.5">
<ellipse cx="129.92" cy="142.93" rx="90.143" ry="90.194" fill="none"/>
<ellipse cx="129.92" cy="142.93" rx="18.687" ry="18.698" fill="none"/>
<path d="m131.28 302.99a13.356 13.364 0 0 0-13.356 13.364v3.505h-3.85a13.356 13.364 0 0 0-13.356 13.364 13.356 13.364 0 0 0 13.356 13.364h3.85v38.348h-38.322v-3.852a13.356 13.364 0 0 0-13.356-13.364 13.356 13.364 0 0 0-13.356 13.364v3.852h-3.507a13.356 13.364 0 0 0-13.356 13.365 13.356 13.364 0 0 0 13.356 13.364h3.507v3.852a13.356 13.364 0 0 0 13.356 13.364 13.356 13.364 0 0 0 13.356-13.364v-3.852h38.322v38.344h-3.85a13.356 13.364 0 0 0-13.356 13.364 13.356 13.364 0 0 0 13.356 13.364h3.85v3.509a13.356 13.364 0 0 0 13.356 13.364 13.356 13.364 0 0 0 13.356-13.364v-3.509h3.85a13.356 13.364 0 0 0 13.356-13.364 13.356 13.364 0 0 0-13.356-13.364h-3.85v-38.344h38.325v3.852a13.356 13.364 0 0 0 13.356 13.364 13.356 13.364 0 0 0 13.356-13.364v-3.852h3.503a13.356 13.364 0 0 0 13.356-13.364 13.356 13.364 0 0 0-13.356-13.364h-3.503v-3.852a13.356 13.364 0 0 0-13.356-13.364 13.356 13.364 0 0 0-13.356 13.364v3.852h-38.325v-38.348h3.85a13.356 13.364 0 0 0 13.356-13.364 13.356 13.364 0 0 0-13.356-13.364h-3.85v-3.505a13.356 13.364 0 0 0-13.356-13.364z" fill="#fff"/>
</g>
</svg>
