<svg id="Calque_1" data-name="Calque 1" xmlns="http://www.w3.org/2000/svg" viewBox="0 0 412.27 451.29">
    <defs>
        <style>
            .cls-1{fill:#fe0000;}.cls-2{fill:none;stroke:#000;stroke-miterlimit:10;}.cls-3{fill:#feec01;}.cls-4{fill:#033aaa;}.cls-5{fill:#fff;}.cls-6{fill:#fded01;}
        </style>
    </defs>
    <path class="cls-1"
          d="M476.44,53.86H72.92V284.28c-.16,3.35-.25,6.72-.25,10.11s.09,6.76.25,10.11v12.4h1c11.19,100.83,96.68,179.25,200.5,179.25s189.31-78.42,200.5-179.25h1.51Z"
          transform="translate(-68.17 -49.36)"/>
    <path class="cls-2"
          d="M478.48,320.9a205.77,205.77,0,0,1-408.1,0l-1.46-16.31c-.16-3.42-.25-6.85-.25-10.2s.09-6.78.25-10.2V49.86H480.44"
          transform="translate(-68.17 -49.36)"/>
    <path class="cls-3"
          d="M317.51,197.35c-1.07-2.06-5.62-4.12-7.56-5.38s-6.05-3.72-8.16-4.77c-.58-.29-1.8-1.26-2.39-1-1.68.76-1.62,5.29-2.39,7s-2.84,4.54-3.58,6.17a56.15,56.15,0,0,0-2.38,7.16c-.44,1.76-.73,5.4-1.2,7.16a54.75,54.75,0,0,1-2.78,7.56,22.14,22.14,0,0,1-3,4.77c-1,1-3.52,3-5,3-1.12,0-2.81-1.83-3.78-2.39-1.51-.86-4.62-2.4-6.17-3.18a27.81,27.81,0,0,0-3.58-1.79c-.81-.25-2.94-1.13-3.38-.4-1.22,2,4,5.76,5.17,7.76.76,1.26,2.13,3.86,2.79,5.17.37.74,1.93,2.37,1.39,3-1,1.13-4.49-1-5.77-1.8-1.11-.68-2.43-3.17-3.58-3.78-2.23-1.17-7.68-.5-9.95-1.59-1.27-.61-3-4.58-4.18-3.78s1.77,4.14,2.19,5.57c.5,1.71,2,5.29,1.39,7-.38,1.1-2.44,3.24-3.58,3s-1-2.19-3.78-3.18-7-4.78-8.15-5.37-6.27-6-8.36-4.78c-.39.22-.09,1.35,0,1.79a23.45,23.45,0,0,0,2,4.78c.59,1.1,2.33,3,2.79,4.17a18.59,18.59,0,0,1,.39,2.59,16.7,16.7,0,0,0,.6,3.18c1,2.11,4.46,5.39,6,7.17.87,1,2.43,3.25,3.18,4.37a27.1,27.1,0,0,1,2.59,4.18c.24.66.23,2.1.4,2.79.89,3.68,2.37,11.56,5,14.32,8.6,9.14,33.83,20.18,46.35,19.3,5-.35,15.28-5.53,17.11-10.15,1.48-3.7-3.23-11.5-4.37-15.32-.57-1.89-2.12-5.59-2.39-7.56-.46-3.3.24-10,.4-13.33.1-2.27.43-6.81.79-9,.66-4,3.18-11.79,3.78-15.81.36-2.42.26-7.34.6-9.75a82.79,82.79,0,0,1,2.19-9.75c.48-1.54,2.08-4.39,2.39-6A6.26,6.26,0,0,0,317.51,197.35Z"
          transform="translate(-68.17 -49.36)"/>
    <path
        d="M295.49,298.07c-13.68,0-37.42-11-45.56-19.66-2.42-2.58-3.86-8.86-4.81-13-.15-.65-.28-1.25-.41-1.76a10.63,10.63,0,0,1-.17-1.33,8.53,8.53,0,0,0-.19-1.35,20.08,20.08,0,0,0-2-3.25l-.49-.71c-.76-1.14-2.29-3.31-3.11-4.29-.43-.5-1-1.12-1.65-1.8-1.73-1.84-3.69-3.93-4.46-5.58a10,10,0,0,1-.58-2.68c0-.29-.07-.56-.1-.76s-.07-.55-.11-.89a8.41,8.41,0,0,0-.24-1.5,12.56,12.56,0,0,0-1.45-2.2,17.58,17.58,0,0,1-1.28-1.87,24.19,24.19,0,0,1-2.09-5l0-.16c-.18-.8-.46-2.13.51-2.7,2-1.12,4.7,1,7.81,3.57a17.37,17.37,0,0,0,1.49,1.18,18.44,18.44,0,0,1,2.28,1.61,27.63,27.63,0,0,0,5.77,3.72,5.88,5.88,0,0,1,3.21,2.58c.17.27.35.54.46.57h0a5.08,5.08,0,0,0,2.41-2.35c.36-1-.5-3.58-1-5.11-.16-.47-.3-.89-.4-1.23a10.23,10.23,0,0,0-1-1.71c-1.09-1.72-2.44-3.87-.85-5s2.79.73,3.84,2.15a7.8,7.8,0,0,0,1.34,1.55,14.66,14.66,0,0,0,4.49.66c2.14.13,4.17.25,5.5,1a8.21,8.21,0,0,1,2.21,2.23,8.41,8.41,0,0,0,1.43,1.59c2.51,1.56,3.68,1.91,4.19,2-.18-.31-.46-.69-.62-.92a6.82,6.82,0,0,1-.62-.94c-.66-1.32-2-3.9-2.75-5.11a16,16,0,0,0-1.95-2.22c-2.08-2.14-4.44-4.57-3.21-6.57.79-1.29,2.69-.65,4.08-.18l.44.14a18.13,18.13,0,0,1,2.85,1.37l.9.49,1.21.61c1.6.8,3.8,1.91,5,2.59a12.07,12.07,0,0,1,1.3,1,6.73,6.73,0,0,0,2,1.29c.88,0,3-1.42,4.26-2.7a21.16,21.16,0,0,0,2.79-4.5,54.92,54.92,0,0,0,2.72-7.38c.22-.85.41-2.24.6-3.6s.36-2.64.59-3.54a57.41,57.41,0,0,1,2.44-7.34,31.51,31.51,0,0,1,1.87-3.23,29.85,29.85,0,0,0,1.71-2.94,12,12,0,0,0,.55-2.33c.38-2.17.78-4.42,2.34-5.13.93-.42,2,.23,2.79.74a5.28,5.28,0,0,0,.46.27c2.18,1.09,6.27,3.55,8.25,4.83.47.3,1.12.67,1.82,1.07,2.3,1.28,5.15,2.88,6.09,4.69h0c.52,1,.23,2.87.09,3.63a19.91,19.91,0,0,1-1.43,3.73c-.41.9-.8,1.76-1,2.34a83.16,83.16,0,0,0-2.15,9.6c-.16,1.13-.22,2.94-.28,4.68s-.13,3.79-.32,5.07c-.31,2.13-1.15,5.27-2,8.3-.74,2.77-1.51,5.64-1.82,7.53-.35,2.16-.67,6.61-.78,8.94,0,.84-.12,1.9-.2,3.07a61.56,61.56,0,0,0-.21,10.08,33.5,33.5,0,0,0,1.52,5c.33.91.64,1.76.84,2.43a39.21,39.21,0,0,0,1.63,4c1.83,4.18,3.91,8.92,2.71,11.93-2,5-12.67,10.4-18,10.78C296.57,298.05,296,298.07,295.49,298.07Zm-66.88-68.88c0,.22.09.48.11.6l0,.19a23.37,23.37,0,0,0,1.89,4.5,19.09,19.09,0,0,0,1.12,1.61,13.47,13.47,0,0,1,1.72,2.67,9.25,9.25,0,0,1,.36,2c0,.29.06.56.09.75s.08.53.12.85a9.25,9.25,0,0,0,.4,2.08,26.93,26.93,0,0,0,4.11,5.06c.66.71,1.27,1.36,1.71,1.88.89,1,2.43,3.24,3.25,4.47.13.19.3.42.47.68a20.13,20.13,0,0,1,2.23,3.71,8.13,8.13,0,0,1,.3,1.85,8.55,8.55,0,0,0,.13,1l.41,1.78c.85,3.71,2.27,9.92,4.32,12.1,8.09,8.59,33,19.85,45.55,19,4.6-.32,14.56-5.25,16.26-9.52.88-2.23-1.19-6.94-2.7-10.38a42.5,42.5,0,0,1-1.71-4.28c-.19-.62-.48-1.44-.8-2.33a32.73,32.73,0,0,1-1.62-5.38c-.36-2.57-.05-7,.2-10.49.08-1.15.15-2.19.19-3,.11-2.45.44-6.91.81-9.17.32-2,1.07-4.78,1.85-7.73s1.62-6.06,1.92-8.07c.18-1.17.24-3,.3-4.85s.12-3.65.3-4.89a83.93,83.93,0,0,1,2.22-9.91,24.35,24.35,0,0,1,1.08-2.58,19,19,0,0,0,1.28-3.28,5.83,5.83,0,0,0,.1-2.34c-.66-1.27-3.44-2.83-5.29-3.86-.72-.41-1.41-.79-1.93-1.13-2-1.28-6-3.7-8.06-4.72-.16-.08-.38-.21-.62-.36a6.22,6.22,0,0,0-1-.55c-.54.45-.89,2.47-1.09,3.59a12.36,12.36,0,0,1-.7,2.81,29.93,29.93,0,0,1-1.83,3.17,32.55,32.55,0,0,0-1.75,3,56.14,56.14,0,0,0-2.32,7c-.2.8-.38,2.09-.55,3.34a35.29,35.29,0,0,1-.65,3.84,54.49,54.49,0,0,1-2.86,7.74,23.65,23.65,0,0,1-3.18,5.05S281.37,230,279.1,230c-1.09,0-2.18-.89-3.22-1.74a10.19,10.19,0,0,0-1.05-.78c-1.15-.66-3.32-1.75-4.9-2.55l-1.22-.61c-.26-.13-.6-.32-1-.52a17,17,0,0,0-2.46-1.2l-.5-.17a9.36,9.36,0,0,0-1.79-.47c0,.86,2.07,3,3,3.94a16.85,16.85,0,0,1,2.23,2.58c.76,1.27,2.13,3.86,2.82,5.24a6,6,0,0,0,.45.67c.72,1,1.71,2.38.8,3.42-1.39,1.6-4.34.09-7.05-1.6a8.58,8.58,0,0,1-1.95-2.05,8.27,8.27,0,0,0-1.57-1.69,14.16,14.16,0,0,0-4.68-.72,15.25,15.25,0,0,1-5.23-.86,6.86,6.86,0,0,1-2.08-2.16l-.26-.35c.19.33.4.66.56.91a10.12,10.12,0,0,1,1.18,2.21c.1.33.23.72.38,1.16.87,2.6,1.54,4.88,1,6.42-.45,1.26-2.82,4.07-4.75,3.63a2.79,2.79,0,0,1-1.68-1.41,3.88,3.88,0,0,0-2.21-1.81c-2-.7-4.48-2.62-6.31-4a20.2,20.2,0,0,0-2-1.41,12.27,12.27,0,0,1-1.89-1.44C232.77,231.74,229.84,229.27,228.61,229.19Zm71-42Z"
        transform="translate(-68.17 -49.36)"/>
    <path class="cls-4" d="M72.34,308.47l0-2.19A4.07,4.07,0,0,0,72.34,308.47Z" transform="translate(-68.17 -49.36)"/>
    <path class="cls-5" d="M72.32,306.28a4.07,4.07,0,0,0,0,2.19l0-2.19Z" transform="translate(-68.17 -49.36)"/>
    <path class="cls-4"
          d="M453,256.42c-10-.94-26.65,16.49-36.65,16.36-9.45-.12-24.79-16.21-34.24-16.36-10.12-.16-27.06,16.52-37.18,16.36-9.46-.15-24.79-16.25-34.24-16.36-9.94-.11-26.44,16.45-36.38,16.36-9.58-.08-25.2-16.27-34.78-16.36-9.94-.08-26.44,16.46-36.38,16.36-9.51-.09-25-16.21-34.51-16.36-10.18-.15-27.26,16.46-37.45,16.36-9.75-.09-25.85-17.22-35.57-16.36-7.1.64-25.64,9.43-23.54,16.36l.23,33.5c1.63-6.47,17.18-13.6,23.54-14.17,9.72-.87,25.81,16.27,35.56,16.36,10.18.1,27.25-16.52,37.43-16.36,9.5.15,25,16.26,34.48,16.36,9.94.1,26.42-16.44,36.36-16.36,9.57.08,25.18,16.28,34.75,16.36,9.94.09,26.43-16.47,36.36-16.36,9.45.11,24.77,16.21,34.22,16.36,10.12.16,27-16.52,37.16-16.36,9.45.15,24.77,16.24,34.22,16.36,10,.13,26.67-17.3,36.62-16.36,7.09.67,23.53,16.36,23.53,16.36V272.78S460.1,257.1,453,256.42Z"
          transform="translate(-68.17 -49.36)"/>
    <path
        d="M71.85,310.2l-.26-37.34a5.53,5.53,0,0,1,1.06-4.69c4-5.89,16.91-11.71,22.93-12.24,5.2-.47,12.1,4,18.77,8.33,6.05,3.92,12.3,8,16.86,8h.08c4.94,0,11.75-4.12,18.33-8.1,6.78-4.1,13.82-8.31,19-8.26,4.89.08,11.29,4.24,17.48,8.26s12.4,8.06,17,8.1h.08c4.82,0,11.44-4.12,17.85-8.1s13.26-8.26,18.37-8.26h.08c4.93.05,11.4,4.22,17.65,8.26s12.48,8.06,17.12,8.1h.07c4.82,0,11.43-4.12,17.83-8.1,6.57-4.09,13.36-8.32,18.48-8.26,4.88.06,11.26,4.23,17.42,8.27s12.25,8,16.82,8.09c4.92.12,11.74-4.08,18.33-8.1s13.52-8.26,18.71-8.26h.15c4.86.08,11.22,4.24,17.36,8.26s12.29,8,16.88,8.1h.1c4.7,0,11.15-4.09,17.39-8,6.83-4.34,13.93-8.82,19.19-8.31,7.19.68,23.16,15.85,23.84,16.49l.16.15v37.07l-.85-.81c-.16-.15-16.39-15.57-23.23-16.22-5-.48-11.86,3.92-18.55,8.16s-13,8.22-18,8.2-11.24-4.23-17.4-8.26-12.25-8-16.82-8.1H382c-4.91,0-11.65,4.12-18.18,8.11-6.71,4.1-13.63,8.37-18.85,8.25-4.86-.08-11.21-4.23-17.34-8.25s-12.29-8.05-16.88-8.11c-4.84,0-11.49,4.1-17.93,8.11S279.62,309,274.52,309h-.08c-4.93,0-11.39-4.22-17.64-8.26s-12.48-8.06-17.12-8.1h-.07c-4.81,0-11.42,4.12-17.82,8.1S208.52,309,203.42,309h-.09c-4.91-.05-11.34-4.23-17.55-8.27s-12.34-8-16.94-8.09c-4.92-.08-11.84,4.09-18.5,8.12S136.72,309,131.51,309h-.1c-4.85-.05-10.93-4-17.38-8.18s-13.26-8.63-18.12-8.18c-6.27.56-21.54,7.59-23.1,13.79ZM310.7,291.61h.11c4.87.06,11.24,4.23,17.4,8.27s12.25,8,16.82,8.09h.13c4.91,0,11.65-4.12,18.18-8.11,6.71-4.09,13.66-8.33,18.85-8.25,4.86.08,11.21,4.24,17.35,8.26s12.28,8,16.86,8.1h.11c4.69,0,11.14-4.09,17.37-8,6.83-4.34,13.91-8.81,19.19-8.32,6.33.6,19.48,12.46,23,15.71V273c-1.69-1.59-16.61-15.46-23.09-16.08-5-.46-11.87,3.92-18.57,8.16s-13,8.26-18,8.2S405.11,269.05,399,265s-12.26-8-16.84-8.1H382c-4.91,0-11.66,4.12-18.19,8.11-6.71,4.1-13.63,8.37-18.86,8.25-4.86-.07-11.22-4.23-17.36-8.25s-12.29-8-16.88-8.11c-4.82,0-11.5,4.1-17.94,8.11s-13.26,8.25-18.36,8.25h-.08c-4.93,0-11.4-4.22-17.65-8.26s-12.48-8.06-17.12-8.1h-.08c-4.81,0-11.43,4.12-17.83,8.11-6.57,4.08-13.32,8.32-18.47,8.25-4.92,0-11.35-4.22-17.57-8.26-6.07-3.95-12.34-8-16.94-8.1h-.14c-4.95,0-11.77,4.13-18.37,8.12s-13.64,8.24-18.85,8.24h-.09c-4.85,0-10.94-4-17.39-8.18s-13.28-8.6-18.14-8.18c-5.7.51-18.43,6.24-22.19,11.81a4.6,4.6,0,0,0-.92,3.91l0,.14L72.81,304c3.9-6,17-11.88,23-12.42,5.19-.46,12.09,4,18.76,8.34,6,3.92,12.28,8,16.84,8h.09c4.93,0,11.73-4.12,18.31-8.1,6.78-4.1,13.77-8.38,19-8.26,4.89.08,11.29,4.24,17.47,8.26s12.4,8.05,17,8.1h.08c4.82,0,11.44-4.12,17.84-8.11s13.25-8.25,18.35-8.25h.08c4.93,0,11.4,4.22,17.65,8.26s12.47,8.06,17.11,8.1c4.84.06,11.46-4.1,17.88-8.1S305.59,291.61,310.7,291.61Z"
        transform="translate(-68.17 -49.36)"/>
    <path class="cls-5"
          d="M452.21,261.39h.33c2.93.28,12,7.09,19,13.55v22.44c-5.82-4.75-13.06-9.78-18.06-10.26-.41,0-.84-.06-1.27-.06-6.48,0-13.41,4.4-20.75,9.06-5.42,3.44-11.57,7.34-15,7.34-3.27,0-9.47-4.1-14.45-7.36-7-4.58-13.59-8.9-19.75-9H382c-6.45,0-13.53,4.33-21,8.91-5.71,3.5-12.19,7.45-15.83,7.45h-.06c-3.27-.05-9.45-4.1-14.42-7.36-7-4.59-13.63-8.93-19.82-9h-.16c-6.4,0-13.37,4.34-20.75,8.94-5.58,3.48-11.91,7.42-15.46,7.42-3.34,0-9.64-4.1-14.71-7.38-7.1-4.59-13.81-8.92-20-9h-.13c-6.38,0-13.35,4.34-20.73,8.94-5.59,3.48-11.93,7.42-15.5,7.42-3.31,0-9.57-4.1-14.61-7.38-7-4.57-13.66-8.88-19.85-9h-.22c-6.48,0-13.63,4.33-21.2,8.91-5.78,3.49-12.32,7.45-16,7.45-3.25,0-9.46-4.06-14.44-7.29-7.21-4.68-14-9.1-20.44-9.1-.39,0-.79,0-1.17.05-4.07.36-11.83,3-18.18,7l-.15-21.41V272l-.11-.38c.4-.92,2.56-3.28,7.49-6,4.63-2.52,9.44-4.08,11.61-4.28h.29c3.46,0,9.59,4,15,7.49,7,4.55,13.63,8.84,19.79,8.9h.14c6.47,0,13.61-4.32,21.18-8.89,5.79-3.5,12.34-7.47,16-7.47h.07c3.3.05,9.55,4.11,14.56,7.37,7.07,4.59,13.75,8.93,20,9h.14c6.39,0,13.37-4.34,20.75-8.93,5.6-3.48,11.93-7.43,15.5-7.43,3.33,0,9.65,4.11,14.72,7.38,7.1,4.59,13.82,8.93,20,9h.12c6.39,0,13.36-4.34,20.74-8.93,5.59-3.48,11.93-7.43,15.51-7.43,3.27,0,9.48,4.11,14.47,7.37,7,4.57,13.58,8.89,19.75,9h.22c6.45,0,13.54-4.33,21.05-8.91,5.72-3.49,12.2-7.45,15.84-7.45H382c3.27.05,9.47,4.11,14.44,7.36,7,4.59,13.63,8.92,19.81,9h.18c6.3,0,13.11-4.32,20.33-8.9,5.55-3.51,11.83-7.49,15.41-7.49m0-5c-10,0-26,16.39-35.74,16.39h-.11c-9.45-.12-24.79-16.21-34.24-16.36H382c-10.09,0-26.8,16.36-36.89,16.36h-.14c-9.46-.15-24.79-16.25-34.24-16.36h-.11c-9.92,0-26.28,16.36-36.2,16.36h-.07c-9.58-.08-25.2-16.27-34.78-16.36h-.08c-9.91,0-26.28,16.36-36.21,16.36h-.09c-9.51-.09-25-16.21-34.51-16.36h-.14c-10.17,0-27.07,16.36-37.22,16.36h-.09c-9.51-.09-25.06-16.39-34.84-16.39-.25,0-.49,0-.73,0-7.1.64-25.64,9.43-23.54,16.36l.23,33.5c1.63-6.47,17.18-13.6,23.54-14.17.24,0,.49,0,.73,0,9.78,0,25.32,16.3,34.83,16.39h.09c10.14,0,27-16.36,37.19-16.36h.15c9.5.15,25,16.26,34.48,16.36h.09c9.92,0,26.28-16.36,36.19-16.36h.08c9.57.08,25.18,16.28,34.75,16.36h.08c9.91,0,26.26-16.36,36.18-16.36h.1c9.45.11,24.77,16.21,34.22,16.36h.14c10.09,0,26.79-16.36,36.87-16.36h.15c9.45.15,24.77,16.24,34.22,16.36h.11c9.74,0,25.72-16.4,35.71-16.4.27,0,.54,0,.8,0,7.09.67,23.53,16.36,23.53,16.36V272.78S460.1,257.1,453,256.42c-.27,0-.53,0-.8,0Z"
          transform="translate(-68.17 -49.36)"/>
    <path
        d="M71.85,310.2l-.26-37.34a5.53,5.53,0,0,1,1.06-4.69c4-5.89,16.91-11.71,22.93-12.24,5.18-.48,12.1,4,18.77,8.33,6.05,3.92,12.3,8,16.86,8,5,0,11.83-4.12,18.41-8.1s13.66-8.26,18.89-8.26h.15c4.89.08,11.29,4.24,17.48,8.26s12.4,8.06,17,8.1c4.9,0,11.52-4.12,17.93-8.1s13.26-8.26,18.36-8.26h0c5,.05,11.49,4.22,17.74,8.26s12.48,8.06,17.12,8.1c4.89,0,11.5-4.12,17.9-8.1s13.27-8.26,18.37-8.26h.11c4.88.06,11.26,4.23,17.42,8.27s12.25,8,16.82,8.09h.14c4.91,0,11.66-4.12,18.19-8.1s13.52-8.26,18.7-8.26h.16c4.86.08,11.22,4.24,17.36,8.26s12.29,8,16.88,8.1h.1c4.7,0,11.15-4.09,17.39-8,6.83-4.34,13.94-8.81,19.19-8.31,7.19.68,23.16,15.85,23.84,16.49l.16.15v37.07l-.85-.81c-.16-.15-16.39-15.57-23.23-16.22-5-.49-11.87,3.92-18.55,8.16s-12.93,8.2-17.91,8.2h-.12c-4.87-.06-11.24-4.23-17.4-8.26s-12.25-8-16.82-8.1H382c-4.9,0-11.65,4.12-18.17,8.11S350.35,309,345.16,309H345c-4.86-.08-11.21-4.23-17.34-8.25s-12.29-8.05-16.88-8.11h0c-4.91,0-11.53,4.12-17.93,8.11S279.61,309,274.52,309s-11.47-4.22-17.72-8.26-12.48-8.06-17.12-8.1c-4.88,0-11.5,4.12-17.89,8.1S208.52,309,203.42,309s-11.43-4.23-17.64-8.27-12.34-8-16.94-8.09h-.14c-4.95,0-11.76,4.13-18.36,8.12S136.72,309,131.51,309c-4.95-.05-11-4-17.48-8.18s-13.25-8.63-18.12-8.18c-6.27.56-21.54,7.59-23.1,13.79ZM382,291.61h.16c4.86.08,11.21,4.24,17.35,8.26s12.28,8,16.86,8.1l.11.5V308c4.69,0,11.14-4.09,17.37-8,6.84-4.34,13.92-8.81,19.19-8.32,6.33.6,19.48,12.46,23,15.71V273c-1.69-1.59-16.61-15.46-23.09-16.08-5-.46-11.88,3.92-18.57,8.16s-12.93,8.2-17.92,8.2h-.12c-4.87-.06-11.24-4.23-17.4-8.26s-12.26-8-16.84-8.1H382c-4.9,0-11.65,4.12-18.18,8.11s-13.52,8.25-18.71,8.25h-.15c-4.86-.07-11.22-4.23-17.36-8.25s-12.29-8-16.88-8.11h0c-4.92,0-11.54,4.12-17.94,8.11s-13.26,8.25-18.36,8.25-11.48-4.22-17.73-8.26-12.48-8.06-17.12-8.1h0c-4.89,0-11.51,4.12-17.91,8.11s-13.27,8.25-18.38,8.25-11.44-4.22-17.66-8.26c-6.07-3.95-12.34-8-16.94-8.1h-.14c-4.95,0-11.77,4.13-18.37,8.12s-13.64,8.24-18.85,8.24c-4.94,0-11-4-17.48-8.18s-13.27-8.61-18.14-8.18c-5.7.51-18.43,6.24-22.19,11.81a4.6,4.6,0,0,0-.92,3.91l0,.14L72.81,304c3.9-6,17-11.88,23-12.42,5.19-.45,12.09,4,18.76,8.34,6,3.92,12.28,8,16.84,8,5,0,11.82-4.12,18.41-8.1s13.65-8.26,18.87-8.26h.16c4.88.08,11.28,4.24,17.46,8.26s12.4,8.05,17,8.1c4.9,0,11.52-4.12,17.92-8.1s13.25-8.26,18.35-8.26,11.48,4.22,17.73,8.26,12.47,8.06,17.11,8.1c4.88,0,11.49-4.12,17.88-8.1s13.26-8.26,18.37-8.26h.11c4.87.06,11.24,4.23,17.4,8.27s12.25,8,16.82,8.09h.13c4.9,0,11.65-4.12,18.18-8.11S376.85,291.61,382,291.61ZM345.16,304c-3.48-.05-9.73-4.15-14.75-7.44-7-4.55-13.51-8.85-19.55-8.92h-.17c-6.24,0-13.15,4.31-20.47,8.86-5.64,3.52-12,7.5-15.73,7.5-3.48,0-9.85-4.14-15-7.45-7-4.56-13.7-8.86-19.79-8.91h-.12c-6.24,0-13.15,4.3-20.47,8.86-5.64,3.52-12,7.5-15.76,7.5-3.46,0-9.79-4.15-14.88-7.46-7-4.53-13.55-8.8-19.58-8.9h-.22c-6.34,0-13.43,4.29-20.95,8.84C141.93,300,135.32,304,131.47,304c-3.4,0-9.67-4.1-14.71-7.37-7.15-4.64-13.89-9-20.17-9-.38,0-.76,0-1.13.05-3.92.35-11.55,2.9-18,6.95l-.76.48-.16-23-.15-.49.08-.17c.44-1,2.55-3.39,7.71-6.2,4.69-2.55,9.58-4.14,11.81-4.33l.33,0c3.61,0,9.8,4,15.27,7.57,7,4.51,13.51,8.76,19.53,8.82h.14c6.32,0,13.4-4.28,20.91-8.82,5.84-3.53,12.46-7.54,16.3-7.54h0c3.53.06,9.84,4.16,14.91,7.45,7,4.55,13.62,8.85,19.69,8.91h.15c6.24,0,13.15-4.3,20.48-8.86,5.65-3.51,12-7.5,15.76-7.5,3.48,0,9.86,4.15,15,7.46,7,4.55,13.69,8.85,19.78,8.9h.13c6.24,0,13.15-4.3,20.46-8.85,5.65-3.52,12.06-7.51,15.78-7.51h0c3.42,0,9.7,4.15,14.74,7.45,6.92,4.54,13.46,8.82,19.49,8.91h.21c6.31,0,13.35-4.29,20.79-8.84,5.78-3.52,12.32-7.52,16.1-7.52h0c3.5.06,9.75,4.15,14.78,7.44,6.95,4.55,13.51,8.84,19.55,8.92h.17c6.15,0,12.91-4.28,20.07-8.82,5.6-3.55,11.94-7.57,15.67-7.57h.37c3.08.3,12.24,7.19,19.3,13.68l.17.15v23.71l-.82-.67c-7.67-6.25-13.82-9.76-17.78-10.14-.4,0-.82-.06-1.23-.06-6.33,0-13.21,4.36-20.48,9C426.26,300,420,304,416.46,304h0c-3.42,0-9.68-4.14-14.72-7.44-6.93-4.54-13.47-8.82-19.49-8.92H382c-6.3,0-13.33,4.29-20.78,8.84C355.48,300,348.94,304,345.16,304ZM310.7,286.61h.17c6.33.08,13,4.45,20.08,9.09,4.92,3.22,11,7.22,14.16,7.27,3.55,0,10-3.91,15.61-7.37,7.58-4.62,14.72-9,21.31-9h.23c6.32.1,13,4.46,20,9.07,4.93,3.24,11.06,7.25,14.19,7.29h0c3.28,0,9.37-3.86,14.73-7.26,7.41-4.7,14.4-9.14,21-9.14.45,0,.89,0,1.32.07,4.07.38,10,3.65,17.51,9.7V275.17c-7.75-7.09-16.05-13-18.56-13.27h-.28c-3.44,0-9.65,3.94-15.14,7.42-7.28,4.61-14.16,9-20.6,9h-.18c-6.33-.08-13-4.45-20.08-9.08-4.93-3.22-11-7.23-14.18-7.28h0c-3.56,0-10,3.92-15.63,7.37-7.58,4.63-14.73,9-21.32,9h-.22c-6.32-.1-13-4.46-20-9.07-4.93-3.23-11.07-7.25-14.2-7.29-3.43,0-9.7,3.91-15.24,7.35-7.44,4.64-14.47,9-21,9h-.12c-6.38,0-13.16-4.43-20.32-9.06-5-3.24-11.26-7.27-14.46-7.3-3.41,0-9.69,3.91-15.22,7.35-7.45,4.64-14.48,9-21,9h-.14c-6.37-.06-13.11-4.44-20.24-9.07-5-3.23-11.14-7.24-14.3-7.29h0c-3.62,0-10.11,3.93-15.84,7.4-7.63,4.61-14.83,9-21.44,9h-.14c-6.31-.06-13-4.39-20.06-9-5.35-3.47-11.42-7.41-14.73-7.41h-.25c-2.12.19-6.84,1.73-11.41,4.22-4.77,2.6-6.72,4.77-7.2,5.58l.08.32.15,21.24c6.38-3.85,13.76-6.28,17.64-6.63.4,0,.81-.05,1.22-.05,6.57,0,13.44,4.46,20.71,9.18,4.93,3.2,11.07,7.18,14.17,7.21,3.57,0,10.05-3.92,15.77-7.38,7.63-4.62,14.84-9,21.46-9h.23c6.33.1,13,4.45,20.11,9.06,5,3.24,11.18,7.27,14.35,7.3,3.42,0,9.69-3.9,15.22-7.35,7.44-4.63,14.47-9,21-9h.13c6.38.06,13.15,4.43,20.31,9.06,5,3.25,11.25,7.27,14.44,7.3,3.41,0,9.67-3.9,15.2-7.34C297.13,291,304.16,286.61,310.7,286.61Z"
        transform="translate(-68.17 -49.36)"/>
    <path class="cls-6"
          d="M371.11,125.11c.3-3-.15-6,.59-9a30.84,30.84,0,0,1,5.13-11.48C381.07,99,385.13,93.19,390,88a51.47,51.47,0,0,1,9-8.08,32.85,32.85,0,0,1,9.6-4.7c3.55-.93,7.11-.09,10.62.62s6.92,2.37,10.29,3.79c1.47.61,2.1,2.09,3.25,3.06a83.29,83.29,0,0,1,7.71,7.44,18,18,0,0,1,4.75,12.09,104.92,104.92,0,0,1-.24,14.4,20.11,20.11,0,0,1-2.59,7.4c-2.76,5-5.33,10.2-8.42,15-4,6.27-7.4,12.91-11.38,19.19a10.87,10.87,0,0,0-1,1.7c-2.12,5.14-6.25,8.63-10.14,12.31-1.65,1.56-2.89,1.24-3.45-.93-.71-2.72-.7-5.21,1.62-7.54a40.78,40.78,0,0,0,7-9.48c1.35-2.52,3.32-4.78,4.44-7.41,1.95-4.57,5.12-8.46,7-13.1a36.76,36.76,0,0,1,3.69-6.14c4-6.13,6.47-12.78,6.18-20.13-.36-8.92-8.17-16-16.24-15.45a14.87,14.87,0,0,0-10.06,5.18,22.31,22.31,0,0,0-4.9,9.14c-.8,2.8-1.41,5.68-3,8.21a2,2,0,0,0-.28.8c-.47,6.12-3.93,11.15-6.22,16.59-1.5,3.55-4.07,6.55-6.3,9.7-2.72,3.84-5.54,7.61-8.28,11.43-1.4,1.94-5.14,2.95-7.08,1.8a2.57,2.57,0,0,1-1.16-2.44c.15-5.07-1.25-9.85-2.38-14.72A44.63,44.63,0,0,1,371.11,125.11Z"
          transform="translate(-68.17 -49.36)"/>
    <path
        d="M409.61,174.22a2.49,2.49,0,0,1-.61-.08,3.2,3.2,0,0,1-2-2.57c-.63-2.44-1-5.61,1.88-8.49a40,40,0,0,0,6.85-9.26,35.93,35.93,0,0,1,2-3.14,26.06,26.06,0,0,0,2.44-4.18,53.34,53.34,0,0,1,3.43-6.39,47.47,47.47,0,0,0,3.54-6.69,27.29,27.29,0,0,1,2.9-5c.3-.44.6-.87.88-1.31,4.32-6.58,6.28-13,6-19.54a15.5,15.5,0,0,0-5.18-10.85,13.17,13.17,0,0,0-19.38,1.22,21.1,21.1,0,0,0-4.68,8.73l-.39,1.43a26.24,26.24,0,0,1-2.68,7,1,1,0,0,0-.13.35c-.35,4.61-2.32,8.6-4.22,12.46-.71,1.45-1.45,2.95-2.08,4.44a38.57,38.57,0,0,1-4.82,7.73c-.53.72-1.07,1.44-1.58,2.17-1.57,2.22-3.18,4.41-4.78,6.61q-1.77,2.4-3.51,4.82c-1.73,2.41-6.05,3.48-8.4,2.08a3.55,3.55,0,0,1-1.65-3.33c.12-4.17-.83-8.11-1.83-12.27-.18-.73-.35-1.47-.52-2.2a45.44,45.44,0,0,1-1-12.93v0c.11-1.11.11-2.21.11-3.39a23.68,23.68,0,0,1,.5-5.76A31.43,31.43,0,0,1,376,104l2.46-3.3a155.18,155.18,0,0,1,10.74-13.4,52.89,52.89,0,0,1,9.21-8.24,34.54,34.54,0,0,1,9.89-4.83c3.54-.93,7-.22,10.38.47l.7.14a42.56,42.56,0,0,1,8.54,3l1.94.83a6.68,6.68,0,0,1,2.48,2.11,7.9,7.9,0,0,0,1,1.11,83.55,83.55,0,0,1,7.8,7.54,18.85,18.85,0,0,1,5,12.74c0,.84,0,1.67.05,2.5a85.34,85.34,0,0,1-.29,12,21,21,0,0,1-2.72,7.76c-.75,1.37-1.49,2.76-2.23,4.14-1.94,3.64-3.95,7.41-6.22,11-2,3.17-3.93,6.49-5.77,9.71s-3.64,6.37-5.61,9.47l-.25.39a6.38,6.38,0,0,0-.67,1.16c-2,4.81-5.63,8.22-9.16,11.51L412.12,173A3.81,3.81,0,0,1,409.61,174.22ZM422.56,91a16,16,0,0,1,10.5,4.19,17.55,17.55,0,0,1,5.85,12.26c.28,7-1.8,13.77-6.34,20.72-.29.44-.6.89-.9,1.33a25.54,25.54,0,0,0-2.7,4.63,50.25,50.25,0,0,1-3.68,7,51.78,51.78,0,0,0-3.31,6.14,27.94,27.94,0,0,1-2.62,4.51,34.65,34.65,0,0,0-1.86,3,42.17,42.17,0,0,1-7.19,9.72c-1.73,1.74-2.12,3.64-1.36,6.58.21.83.49,1.11.6,1.14s.53-.06,1.2-.69l1.22-1.15c3.53-3.3,6.86-6.41,8.68-10.81a8.35,8.35,0,0,1,.85-1.5l.23-.36c1.95-3.07,3.79-6.28,5.57-9.39s3.76-6.59,5.82-9.8c2.22-3.48,4.21-7.2,6.14-10.81.74-1.39,1.48-2.78,2.24-4.16a19.08,19.08,0,0,0,2.48-7,82.49,82.49,0,0,0,.28-11.75c0-.84,0-1.67-.05-2.51a17,17,0,0,0-4.49-11.44,82,82,0,0,0-7.62-7.35,10.05,10.05,0,0,1-1.27-1.36,4.86,4.86,0,0,0-1.72-1.54l-1.95-.84A40.9,40.9,0,0,0,419,76.82l-.71-.14c-3.27-.67-6.37-1.3-9.46-.49a32.13,32.13,0,0,0-9.3,4.56,51.23,51.23,0,0,0-8.84,7.93,152.84,152.84,0,0,0-10.61,13.23c-.82,1.11-1.64,2.21-2.47,3.31a29.68,29.68,0,0,0-4.95,11.12,22,22,0,0,0-.44,5.29c0,1.16,0,2.36-.12,3.56a43.16,43.16,0,0,0,.91,12.34c.17.73.35,1.45.52,2.18,1,4.11,2,8.36,1.89,12.8,0,1.14.5,1.45.67,1.55,1.46.87,4.64,0,5.76-1.52s2.34-3.23,3.51-4.84c1.6-2.19,3.2-4.37,4.76-6.58.53-.75,1.07-1.48,1.61-2.21a37.32,37.32,0,0,0,4.59-7.31c.65-1.55,1.4-3.08,2.13-4.55,1.9-3.86,3.69-7.51,4-11.73a2.78,2.78,0,0,1,.43-1.24,24.74,24.74,0,0,0,2.45-6.52c.13-.48.26-1,.4-1.45a23.07,23.07,0,0,1,5.13-9.54,15.86,15.86,0,0,1,10.71-5.5C421.92,91.05,422.24,91,422.56,91Z"
        transform="translate(-68.17 -49.36)"/>
    <path class="cls-6"
          d="M395.38,168.68a126,126,0,0,1,16.35.48,14,14,0,0,1,4.38,1.05c2.88,1.24,6,.74,9,.44a115.56,115.56,0,0,1,12.75-.33,6.39,6.39,0,0,1,5.87,3.67c.77,1.46.52,2.2-.94,3a8.06,8.06,0,0,1-2.28.81c-5.32,1-10.19,3.33-15.16,5.35-2.82,1.14-5.61,2.33-8.44,3.45-5.59,2.22-11.45,2.4-17.35,2.22-2.86-.09-5.2-1.54-7.5-3-1.28-.82-2.52-1.7-3.77-2.55a5.73,5.73,0,0,0-2.49-1.09c-1.29-.16-2.78-.55-3.51.95s.16,2.56,1,3.57a4.28,4.28,0,0,0,1.45,1.07c2.85,1.29,5.58,2.88,8.69,3.52a7.25,7.25,0,0,1,1.73.54c2.66,1.33,3.33,4,1.46,6.31a19.64,19.64,0,0,1-3.31,3.13c-2.38,1.82-4.84,3.53-7.29,5.26-2.82,2-4.61,1.76-6.16-1.28a12.05,12.05,0,0,0-7.94-6.44c-5.58-1.61-9.13-5.8-12.05-10.55a4.46,4.46,0,0,1,0-4.87,26.59,26.59,0,0,1,13.1-11.6,40.2,40.2,0,0,1,16.53-3Z"
          transform="translate(-68.17 -49.36)"/>
    <path
        d="M383,208.75a3.18,3.18,0,0,1-.82-.1c-1.23-.3-2.26-1.28-3.14-3a11,11,0,0,0-7.33-5.94c-6.31-1.82-10.06-6.83-12.62-11a5.44,5.44,0,0,1,0-5.89,27.53,27.53,0,0,1,13.57-12c4.94-2.15,10.16-3.11,16.93-3.12h5.79a129.72,129.72,0,0,1,16.46.49,14.73,14.73,0,0,1,4.69,1.12c2.37,1,5.05.73,7.64.46l.85-.09a111.2,111.2,0,0,1,12.47-.34h.39a7.4,7.4,0,0,1,6.74,4.2A3.31,3.31,0,0,1,445,176a3.36,3.36,0,0,1-1.8,1.83,9.52,9.52,0,0,1-2.56.9,64,64,0,0,0-12.2,4.14c-.92.39-1.85.78-2.78,1.15l-3.49,1.44c-1.64.68-3.29,1.36-4.95,2-5.81,2.31-12,2.47-17.75,2.28-3.25-.1-5.89-1.8-8-3.18-.83-.54-1.66-1.1-2.48-1.67l-1.3-.89a5,5,0,0,0-2-.93l-.42,0c-1.36-.19-1.78-.16-2.08.45s-.1,1.31.9,2.48a3.47,3.47,0,0,0,1.11.81c.68.3,1.35.63,2,1a27.29,27.29,0,0,0,6.47,2.5,8.3,8.3,0,0,1,2,.63,5.27,5.27,0,0,1,3,3.55,5.06,5.06,0,0,1-1.19,4.29,20.41,20.41,0,0,1-3.47,3.28c-2,1.52-4.06,3-6.07,4.4l-1.25.89A6.59,6.59,0,0,1,383,208.75Zm10.64-39.07h-4c-6.48,0-11.46.92-16.13,3a25.47,25.47,0,0,0-12.63,11.18,3.46,3.46,0,0,0-.05,3.85c2.51,4.09,5.84,8.49,11.46,10.1a13.08,13.08,0,0,1,8.56,7c.6,1.18,1.2,1.83,1.83,2s1.61-.18,2.86-1.06l1.26-.89c2-1.41,4-2.86,6-4.36a18.72,18.72,0,0,0,3.13-3,3.07,3.07,0,0,0,.79-2.6,3.31,3.31,0,0,0-1.92-2.18,6,6,0,0,0-1.48-.46,29.35,29.35,0,0,1-6.93-2.66c-.65-.31-1.31-.63-2-.93a5.34,5.34,0,0,1-1.79-1.33c-.72-.83-2.21-2.57-1.18-4.66s3-1.72,4.15-1.55l.38.05a6.83,6.83,0,0,1,2.93,1.25l1.32.9c.8.56,1.61,1.11,2.43,1.64,2.44,1.58,4.5,2.79,7,2.87,5.56.17,11.47,0,16.95-2.15,1.65-.65,3.29-1.33,4.93-2l3.5-1.44c.93-.37,1.84-.76,2.76-1.14a64.12,64.12,0,0,1,12.59-4.26,7.58,7.58,0,0,0,2-.71c.67-.35.8-.57.83-.65s0-.32-.3-1a5.43,5.43,0,0,0-5-3.14h-.39a111.61,111.61,0,0,0-12.25.32l-.84.09c-2.84.31-5.79.62-8.64-.6a13.07,13.07,0,0,0-4.06-1,126.54,126.54,0,0,0-16.23-.48h-1.83Z"
        transform="translate(-68.17 -49.36)"/>
    <path class="cls-6"
          d="M371.46,231.34a.25.25,0,0,0-.12.37c-2.41,1.14-4.28,3-6.39,4.59a11.86,11.86,0,0,1-2.28,1.48c-2.3,1-4.25.43-5.44-1.78a16.93,16.93,0,0,0-5.63-5.84,24.73,24.73,0,0,1-7.46-7.87c-2.06-3.52-2.05-5.46.94-8.34a60.56,60.56,0,0,1,6.61-5.32c2.46-1.78,5.31-2.95,7.74-4.8a5.21,5.21,0,0,1,3.19-.86,34.88,34.88,0,0,1,7.56.49,37.49,37.49,0,0,0,6.61,1,10.28,10.28,0,0,1,4.72,1c4.71,2.67,9.6,1.93,14.5.95a20.67,20.67,0,0,1,5.13-.44c1,.06,2.14.18,2.52,1.32s.6,2.7-.5,3.71c-2.52,2.32-4.72,5-7.91,6.58a49.44,49.44,0,0,0-4.79,2.62c-6.54,4.1-13,2.92-19.33-.41a32,32,0,0,0-9-3.46c-2.58-.49-4.19.19-4.58,1.79s.65,2.94,3.15,3.8c1.63.55,3.35.86,4.94,1.48C369.21,224.79,371.61,227.15,371.46,231.34Z"
          transform="translate(-68.17 -49.36)"/>
    <path
        d="M360.59,239.25a4.72,4.72,0,0,1-4.24-2.77A15.86,15.86,0,0,0,351,231a25.39,25.39,0,0,1-7.76-8.19c-2.38-4.06-2.1-6.47,1.1-9.56a61.76,61.76,0,0,1,6.72-5.41,41.84,41.84,0,0,1,3.78-2.33,33.27,33.27,0,0,0,3.95-2.46,6.29,6.29,0,0,1,3.78-1.06h.27a34.32,34.32,0,0,1,7.51.51,37,37,0,0,0,6.43.94,11.13,11.13,0,0,1,5.18,1.17c4.35,2.46,8.83,1.84,13.82.84a21.15,21.15,0,0,1,5.38-.46c.9.05,2.78.15,3.41,2,.69,2.06.44,3.66-.77,4.77-.62.57-1.21,1.16-1.81,1.75a24.66,24.66,0,0,1-6.34,5,49.53,49.53,0,0,0-4.7,2.57c-6,3.79-12.69,3.66-20.33-.38a31.4,31.4,0,0,0-8.75-3.35c-1.13-.22-3.07-.37-3.42,1-.26,1.08.58,2,2.5,2.62.69.23,1.39.42,2.13.62a26.73,26.73,0,0,1,2.86.88c4.45,1.73,6.63,4.72,6.48,8.91v.31l.24.49-.93.43a21.1,21.1,0,0,0-4.31,3c-.63.51-1.25,1-1.9,1.5l-.29.22a10.75,10.75,0,0,1-2.2,1.38A6.34,6.34,0,0,1,360.59,239.25ZM364.16,204h-1.54a4.11,4.11,0,0,0-2.58.66,37.91,37.91,0,0,1-4.17,2.61,37.5,37.5,0,0,0-3.6,2.2,60.8,60.8,0,0,0-6.5,5.23c-2.53,2.44-2.68,3.84-.76,7.11a23.36,23.36,0,0,0,7.16,7.55,18.13,18.13,0,0,1,5.94,6.2c.91,1.7,2.28,2.13,4.17,1.33a8.7,8.7,0,0,0,1.78-1.14l.29-.22c.63-.47,1.23-1,1.83-1.45a26,26,0,0,1,4.23-3,.47.47,0,0,0,0-.1c0-3.13-1.67-5.24-5.21-6.62a24.91,24.91,0,0,0-2.65-.81c-.74-.2-1.5-.4-2.26-.66-4-1.37-4.1-3.71-3.79-5,.53-2.17,2.68-3.11,5.74-2.53a33.34,33.34,0,0,1,9.31,3.56c7,3.72,12.87,3.87,18.33.44a52.34,52.34,0,0,1,4.89-2.67,22.33,22.33,0,0,0,5.8-4.62c.62-.6,1.23-1.21,1.87-1.79.4-.37.78-1,.23-2.65-.14-.4-.4-.58-1.63-.65a19.09,19.09,0,0,0-4.88.42c-5.19,1-10.25,1.74-15.2-1.06a9.3,9.3,0,0,0-4.25-.91,37.84,37.84,0,0,1-6.78-1A28.18,28.18,0,0,0,364.16,204Z"
        transform="translate(-68.17 -49.36)"/>
    <path class="cls-6"
          d="M351.77,235.59a25.37,25.37,0,0,1,9.47,2,14.09,14.09,0,0,0,8,1c5.15-.75,10.3-.43,15.46-.41,1.41,0,3-.12,3.6,1.57a5.34,5.34,0,0,1-1.62,5.77,9.56,9.56,0,0,1-2.16,1.1,148.29,148.29,0,0,1-18.36,5.23,10.26,10.26,0,0,1-6.77-.87c-2.47-1.15-5-2.24-7.5-3.28a12.41,12.41,0,0,0-3.2-.9c-2-.26-2.66.62-1.81,2.44.5,1.1,1.2,2.1,1.77,3.18,1.28,2.44,1,4.05-.95,6a56,56,0,0,0-5.71,5.81c-2.19,2.84-5.62,3.4-8.9,4.1-.82.17-1.29-.19-1.59-1-.75-2.07-.16-4,.55-5.9.28-.75.75-1.43,1.11-2.16a6.31,6.31,0,0,0-.48-6.88c-.28-.42-.61-.81-.86-1.24-1.55-2.72-1.24-5.3,1.11-7.41a25.76,25.76,0,0,1,7.34-4.79c2.6-1.07,5.35-1.76,7.91-2.95A9.8,9.8,0,0,1,351.77,235.59Z"
          transform="translate(-68.17 -49.36)"/>
    <path
        d="M332.74,269.37a2.22,2.22,0,0,1-2.16-1.7c-.86-2.38-.2-4.56.56-6.59a9.66,9.66,0,0,1,.75-1.51l.4-.74a5.35,5.35,0,0,0-.41-5.87l-.28-.39a8,8,0,0,1-.63-.93c-1.82-3.18-1.35-6.25,1.31-8.65a26.83,26.83,0,0,1,7.63-5c1.16-.48,2.36-.88,3.52-1.28a43.15,43.15,0,0,0,4.35-1.65,6.9,6.9,0,0,1,3-.47c.31,0,.62,0,.92,0h.11a25.84,25.84,0,0,1,9.85,2.08,12.93,12.93,0,0,0,7.45.95,76.17,76.17,0,0,1,12.22-.46c1.13,0,2.26,0,3.4,0H385c1.35,0,3.4,0,4.25,2.21a6.3,6.3,0,0,1-2,7,10.79,10.79,0,0,1-2.39,1.22,149.2,149.2,0,0,1-18.49,5.26,11.26,11.26,0,0,1-7.39-.94c-2.31-1.08-4.75-2.15-7.46-3.27a11.57,11.57,0,0,0-2.95-.83c-.78-.1-1,0-1.06.05a2.26,2.26,0,0,0,.28,1c.28.59.61,1.15,1,1.75s.54.91.78,1.38c1.5,2.86,1.17,4.94-1.14,7.16-.47.46-1,.9-1.43,1.35a37.2,37.2,0,0,0-4.18,4.35c-2.28,3-5.64,3.66-8.88,4.34l-.6.13A3.34,3.34,0,0,1,332.74,269.37Zm19-32.77a9.14,9.14,0,0,0-3.16.31,46,46,0,0,1-4.55,1.73c-1.13.38-2.29.78-3.4,1.23a25,25,0,0,0-7.05,4.61c-1.95,1.75-2.25,3.83-.92,6.17.15.26.33.49.5.73l.33.44a7.3,7.3,0,0,1,.55,7.9c-.14.28-.3.55-.45.83a9.46,9.46,0,0,0-.62,1.23c-.67,1.82-1.18,3.46-.55,5.21.12.31.21.38.22.38a.45.45,0,0,0,.22,0l.6-.12c3-.64,5.88-1.23,7.72-3.61a38.41,38.41,0,0,1,4.4-4.59c.47-.44.94-.88,1.4-1.33,1.67-1.6,1.84-2.72.76-4.79-.23-.44-.48-.86-.73-1.29a18.74,18.74,0,0,1-1.06-1.93,2.9,2.9,0,0,1-.08-3c.54-.74,1.52-1,2.92-.85a14,14,0,0,1,3.46,1c2.74,1.12,5.21,2.21,7.55,3.3a9.3,9.3,0,0,0,6.13.79,147.41,147.41,0,0,0,18.24-5.19,8.34,8.34,0,0,0,1.92-1,4.32,4.32,0,0,0,1.26-4.58c-.33-.86-.92-.92-2.39-.93h-.28c-1.14,0-2.28,0-3.42,0a74.11,74.11,0,0,0-11.9.44,15,15,0,0,1-8.57-1.11A23.87,23.87,0,0,0,351.78,236.6Z"
        transform="translate(-68.17 -49.36)"/>
    <path class="cls-5"
          d="M172.65,87.09H154.51a3,3,0,0,1-3-3V72a3,3,0,0,0-3-3h-9a3,3,0,0,0-3,3v12.1a3,3,0,0,1-3,3h-19a3,3,0,0,0-3,3V98a3,3,0,0,0,3,3h19a3,3,0,0,1,3,3v65.2a3,3,0,0,0,3,3h9a3,3,0,0,0,3-3V104a3,3,0,0,1,3-3h18.14a3,3,0,0,0,3-3V90.11A3,3,0,0,0,172.65,87.09Z"
          transform="translate(-68.17 -49.36)"/>
    <path
        d="M148.47,173.22h-9a4,4,0,0,1-4-4V104a2,2,0,0,0-2-2h-19a4,4,0,0,1-4-4V90.11a4,4,0,0,1,4-4h19a2,2,0,0,0,2-2V72a4,4,0,0,1,4-4h9a4,4,0,0,1,4,4v12.1a2,2,0,0,0,2,2h18.14a4,4,0,0,1,4,4V98a4,4,0,0,1-4,4H154.51a2,2,0,0,0-2,2v65.2A4,4,0,0,1,148.47,173.22Zm-34-85.13a2,2,0,0,0-2,2V98a2,2,0,0,0,2,2h19a4,4,0,0,1,4,4v65.2a2,2,0,0,0,2,2h9a2,2,0,0,0,2-2V104a4,4,0,0,1,4-4h18.14a2,2,0,0,0,2-2V90.11a2,2,0,0,0-2-2H154.51a4,4,0,0,1-4-4V72a2,2,0,0,0-2-2h-9a2,2,0,0,0-2,2v12.1a4,4,0,0,1-4,4Z"
        transform="translate(-68.17 -49.36)"/>
    <path class="cls-5"
          d="M411.57,388.58a3.72,3.72,0,0,0-3.84,1.92l-13.42-13.42a3.73,3.73,0,0,0,1.29-2.8h0c0-2.07-2.24-3.74-2.24-3.74V335.67a1.13,1.13,0,0,0-1.13-1.12H387.6a1.12,1.12,0,0,0-1.12,1.12v15.89H379v-6a1.12,1.12,0,0,0-1.12-1.12H372.1v-4.62a1.12,1.12,0,0,0-1.12-1.12h-8.17a1.12,1.12,0,0,0-1.12,1.12V349a1.12,1.12,0,0,0,1.12,1.12h9.29v10h-9.29a1.12,1.12,0,0,0-1.12,1.12v9.24a1.12,1.12,0,0,0,1.12,1.12H371a1.12,1.12,0,0,0,1.12-1.12v-4.62h5.75a1.12,1.12,0,0,0,1.12-1.12v-5.93h7.51v11.72s-2.22,1.67-2.22,3.74h0a3.72,3.72,0,0,0,1.32,2.82l-13.4,13.4a3.72,3.72,0,0,0-3.84-1.92,3.84,3.84,0,0,0-3.16,3.84V396a3.85,3.85,0,0,0,3.31,3.89,3.69,3.69,0,0,0,3.42-1.51l14.35,14.35a3.7,3.7,0,0,0-1.26,2.78h0a3.73,3.73,0,0,0,3.73,3.73h3.87a3.73,3.73,0,0,0,3.73-3.73h0a3.71,3.71,0,0,0-2.11-3.35L408,398.34a3.69,3.69,0,0,0,3.42,1.51,3.85,3.85,0,0,0,3.31-3.89v-3.54A3.84,3.84,0,0,0,411.57,388.58Zm-21.7,19.61-13.06-13.05,13.06-13.06,13.05,13.06Z"
          transform="translate(-68.17 -49.36)"/>
    <path
        d="M392.6,419.7h-3.87a4.22,4.22,0,0,1-3.18-7L372,399.08a4.17,4.17,0,0,1-3.51,1.27,4.38,4.38,0,0,1-3.76-4.39v-3.54a4.33,4.33,0,0,1,3.59-4.33,4.19,4.19,0,0,1,4,1.62l12.61-12.61a4.19,4.19,0,0,1-1.11-2.82c0-1.92,1.64-3.48,2.22-4v-11h-6.51v5.43a1.62,1.62,0,0,1-1.62,1.62H372.6v4.12a1.63,1.63,0,0,1-1.62,1.62h-8.17a1.62,1.62,0,0,1-1.62-1.62v-9.24a1.62,1.62,0,0,1,1.62-1.62h8.79v-9h-8.79a1.62,1.62,0,0,1-1.62-1.62v-9.24a1.62,1.62,0,0,1,1.62-1.62H371a1.63,1.63,0,0,1,1.62,1.62v4.12h5.25a1.62,1.62,0,0,1,1.62,1.62v5.54H386V335.67a1.63,1.63,0,0,1,1.62-1.62h4.63a1.63,1.63,0,0,1,1.63,1.62V370.3c.58.5,2.24,2.06,2.24,4a4.23,4.23,0,0,1-1.08,2.8l12.63,12.63a4.17,4.17,0,0,1,4-1.62,4.33,4.33,0,0,1,3.59,4.33V396a4.38,4.38,0,0,1-3.76,4.39,4.18,4.18,0,0,1-3.51-1.27L395,412a4.16,4.16,0,0,1,1.8,3.45A4.24,4.24,0,0,1,392.6,419.7Zm-20.74-22.12L387,412.71l-.4.35a3.17,3.17,0,0,0-1.09,2.41,3.23,3.23,0,0,0,3.23,3.23h3.87a3.22,3.22,0,0,0,1.4-6.13l-.63-.31,14.68-14.68.35.47a3.2,3.2,0,0,0,3,1.31,3.38,3.38,0,0,0,2.87-3.4v-3.54a3.33,3.33,0,0,0-2.74-3.34h0a3.22,3.22,0,0,0-3.32,1.66l-.32.58-14.27-14.27.4-.35a3.22,3.22,0,0,0,1.12-2.42c0-1.79-2-3.32-2-3.33l-.2-.15V335.67a.63.63,0,0,0-.63-.62H387.6a.62.62,0,0,0-.62.62v16.39h-8.51v-6.54a.62.62,0,0,0-.62-.62H371.6v-5.12a.62.62,0,0,0-.62-.62h-8.17a.62.62,0,0,0-.62.62V349a.62.62,0,0,0,.62.62h9.79v11h-9.79a.62.62,0,0,0-.62.62v9.24a.62.62,0,0,0,.62.62H371a.62.62,0,0,0,.62-.62v-5.12h6.25a.62.62,0,0,0,.62-.62v-6.43H387v12.47l-.2.15s-2,1.55-2,3.34a3.23,3.23,0,0,0,1.14,2.44l.41.35-14.25,14.25-.32-.58a3.22,3.22,0,0,0-3.32-1.66,3.33,3.33,0,0,0-2.74,3.34V396a3.38,3.38,0,0,0,2.87,3.4,3.21,3.21,0,0,0,3-1.31Zm18,11.32L376.1,395.14l13.77-13.77,13.76,13.77Zm-12.36-13.76,12.36,12.35,12.35-12.35-12.35-12.36Z"
        transform="translate(-68.17 -49.36)"/>
    <path class="cls-5"
          d="M191,376.47a74.4,74.4,0,0,0,6.77-7.63c2.34-3,5.38-5.4,7.48-9.32-7.77,1.81-15,3.37-22.12,5.22-2.35.61-3.24,0-3.89-2.19-1.51-5.12-3.19-10.2-4.91-15.26-.66-1.93-.92-4.09-2.58-6.08-2.26,7.12-4.61,13.76-6.43,20.54-.86,3.19-2.13,3.61-5.07,2.81-7-1.89-14-3.43-22.12-5.38C143.21,365,147.56,370,152,375c3.68,4.13,3.7,4.08.11,8.05-4.27,4.73-8.52,9.5-12.84,14.32,1.41,1,2.46.48,3.47.28,5.95-1.16,11.93-2.2,17.82-3.63,2.73-.66,3.83-.15,4.6,2.64,2,7.12,4.31,14.14,6.61,21.55.56-.67.78-.83.85-1,1.53-4.74,3-9.5,4.58-14.22,1-3.06.95-7.43,3.48-8.83s6.22.87,9.41,1.5c4.88,1,9.75,2,14.63,3a150,150,0,0,0-13.82-16.27C188.59,380.05,188.74,378.6,191,376.47Zm-12.49,3.41a7,7,0,0,1-6.75,6.34,6.65,6.65,0,0,1-6.28-6.68,6.18,6.18,0,0,1,6.42-6.36A6.6,6.6,0,0,1,178.47,379.88Z"
          transform="translate(-68.17 -49.36)"/>
    <path
        d="M172,346.73c.11.39.23.8.37,1.21,1.54,4.57,3.33,9.88,4.88,15.18.28.95,1.13,3.85,4.32,3.85a8.23,8.23,0,0,0,2-.29c5.08-1.32,10.17-2.48,15.56-3.71l1.41-.32c-.57.66-1.16,1.29-1.74,1.92-.89,1-1.82,2-2.66,3a72.23,72.23,0,0,1-6.58,7.42,5.34,5.34,0,0,0-.13,8.76,144.52,144.52,0,0,1,10.41,11.81c-3.09-.65-6.27-1.31-9.41-1.93a23.47,23.47,0,0,1-2.79-.83,16.42,16.42,0,0,0-5.11-1.15,5.81,5.81,0,0,0-2.85.69c-2.58,1.42-3.2,4.48-3.74,7.17a25.1,25.1,0,0,1-.67,2.77c-1,3.09-2,6.25-3,9.3l-.25.78c-.12-.37-.24-.75-.35-1.13-1.65-5.2-3.21-10.12-4.6-15.15-.33-1.19-1.21-4.36-4.75-4.36a9.38,9.38,0,0,0-2.25.32c-4.38,1.06-8.91,1.92-13.29,2.76l-3.11.59,1-1.1c2.92-3.27,5.94-6.65,8.92-9.94l0,0c2-2.25,3.16-3.49,3.14-5.26s-1.14-3-3.2-5.31l-.09-.11c-3-3.4-6.07-6.87-9.28-10.55l-.48-.54.88.2c5.26,1.24,10.23,2.4,15.1,3.72a9.83,9.83,0,0,0,2.61.42c3.66,0,4.57-3.37,4.91-4.64,1.27-4.73,2.79-9.36,4.4-14.26l.42-1.28m-.19,41.49a9,9,0,0,0,8.62-8.23,8.09,8.09,0,0,0-2.25-6,8.82,8.82,0,0,0-6.34-2.78h-.05a8.2,8.2,0,0,0-8.38,8.35,8.69,8.69,0,0,0,8.23,8.69h.17m-.13-47c-2.26,7.12-4.61,13.76-6.43,20.54-.62,2.3-1.46,3.16-3,3.16a8.4,8.4,0,0,1-2.09-.35c-7-1.89-14-3.43-22.12-5.38C143.21,365,147.56,370,152,375c3.68,4.13,3.7,4.08.11,8.05-4.27,4.73-8.52,9.5-12.84,14.32a2.87,2.87,0,0,0,1.73.6,8.65,8.65,0,0,0,1.74-.32c5.95-1.16,11.93-2.2,17.82-3.63a7.63,7.63,0,0,1,1.78-.26c1.49,0,2.25.81,2.82,2.9,2,7.12,4.31,14.14,6.61,21.55.56-.67.78-.83.85-1,1.53-4.74,3-9.5,4.58-14.22,1-3.06.95-7.43,3.48-8.83a3.82,3.82,0,0,1,1.89-.44c2.29,0,5.06,1.45,7.52,1.94,4.88,1,9.75,2,14.63,3a150,150,0,0,0-13.82-16.27c-2.29-2.32-2.14-3.77.08-5.9a74.4,74.4,0,0,0,6.77-7.63c2.34-3,5.38-5.4,7.48-9.32-7.77,1.81-15,3.37-22.12,5.22a6.09,6.09,0,0,1-1.49.23c-1.28,0-1.91-.74-2.4-2.42-1.51-5.12-3.19-10.2-4.91-15.26-.66-1.93-.92-4.09-2.58-6.08Zm.13,45h-.12a6.65,6.65,0,0,1-6.28-6.68,6.17,6.17,0,0,1,6.38-6.36h0a6.6,6.6,0,0,1,6.61,6.7,7,7,0,0,1-6.63,6.34Z"
        transform="translate(-68.17 -49.36)"/>
    <path class="cls-5"
          d="M337.2,398.88c-.13,3.78-.33,7.55-.42,11.33,0,2.14-1.41,3.52-2.81,4.73-2.19,1.89-2.82,4.16-2.9,7-.33,11.45-.89,22.91-1.26,34.36-.08,2.3-.6,3.31-3.23,3.28-11.7-.14-23.4,0-35.1,0-22.13-.08-44.27-.31-66.4-.27-3.58,0-4.47-1.13-4.18-4.55.49-5.64.52-11.32.75-17s.47-11.58.68-17.37c0-1.24.45-2.69-.66-3.58-4.92-3.92-4.1-9.25-3.82-14.52.35-6.3.28-6.19,6.58-6.6,3.2-.21,4.82.58,4.1,4.12-.6,2.93,0,4.63,3.71,4.55,3.18-.07,2.9-1.8,3.08-3.85.13-1.5-.84-3.84,1.17-4.29a14.71,14.71,0,0,1,7.07.24c1.68.49.49,2.67.71,4.07.25,1.6-1.22,4.06,2.22,4,2.63-.06,4.42-.73,3.92-3.85-.67-4.24,1.54-5.25,5.18-4.63,2.57.44,3.52-.53,3.57-3.22.16-8.06.57-16.12.92-24.17a5.49,5.49,0,0,0-1-3.93c-5.09-6.23-1.44-13.33-2-20-.09-1.09.89-1.38,1.86-1.37a29.82,29.82,0,0,0,3.78,0c3.15-.4,3.82,1.07,3.58,3.93-.33,4,3.25,6.2,7,4.49,1.71-.78.82-2.42,1.15-3.66.43-1.56-.91-4,1.43-4.56a13.81,13.81,0,0,1,8.18.29c1.66.7.79,3,.63,4.54-.27,2.62.58,3.69,3.28,3.49,2.28-.18,5,.8,4.74-3.26-.1-1.58-.94-4.11,1.06-4.74a15.49,15.49,0,0,1,8.2-.24c1.25.31,1,1.61,1,2.59-.14,4.15-.38,8.3-.45,12.46a5.4,5.4,0,0,1-1.88,4c-2.64,2.44-3.22,5.44-3.26,8.87q-.15,10.39-.83,20.77c-.19,2.92.54,4.36,3.63,3.86,4-.64,5.14,1.08,4.54,4.85-.21,1.31-1.13,3.65,1.79,3.51,2.15-.1,4.49.3,4.37-3.42-.14-4.73,3.1-6.6,7.76-4.85,2.39.89,1.25,3.09,1.08,4.58-.35,3.09.8,3.93,3.73,3.85,2.32-.06,3.05-.87,3.15-3.09.08-1.78-.91-4.45,1-5.19,2.64-1,5.71-.47,8.56,0C337.41,396.54,337.23,397.9,337.2,398.88Z"
          transform="translate(-68.17 -49.36)"/>
    <path
        d="M336.16,396.35c-2.85-.45-5.92-1-8.56,0-1.92.74-.93,3.41-1,5.19-.1,2.22-.83,3-3.15,3.09-2.93.08-4.08-.76-3.73-3.85.17-1.49,1.31-3.69-1.08-4.58-4.66-1.75-7.9.12-7.76,4.85.12,3.72-2.22,3.32-4.37,3.42-2.92.14-2-2.2-1.79-3.51.6-3.77-.58-5.49-4.54-4.85-3.09.5-3.82-.94-3.63-3.86q.69-10.36.83-20.77c0-3.43.62-6.43,3.26-8.87a5.4,5.4,0,0,0,1.88-4c.07-4.16.31-8.31.45-12.46,0-1,.29-2.28-1-2.59a15.49,15.49,0,0,0-8.2.24c-2,.63-1.16,3.16-1.06,4.74.25,4.06-2.46,3.08-4.74,3.26-2.7.2-3.55-.87-3.28-3.49.16-1.53,1-3.84-.63-4.54a13.81,13.81,0,0,0-8.18-.29c-2.34.53-1,3-1.43,4.56-.33,1.24.56,2.88-1.15,3.66-3.76,1.71-7.34-.49-7-4.49.24-2.86-.43-4.33-3.58-3.93a29.82,29.82,0,0,1-3.78,0c-1,0-1.95.28-1.86,1.37.56,6.68-3.09,13.78,2,20a5.49,5.49,0,0,1,1,3.93c-.35,8.05-.76,16.11-.92,24.17-.05,2.69-1,3.66-3.57,3.22-3.64-.62-5.85.39-5.18,4.63.5,3.12-1.29,3.79-3.92,3.85-3.44.09-2-2.37-2.22-4-.22-1.4,1-3.58-.71-4.07a14.71,14.71,0,0,0-7.07-.24c-2,.45-1,2.79-1.17,4.29-.18,2.05.1,3.78-3.08,3.85-3.73.08-4.31-1.62-3.71-4.55.72-3.54-.9-4.33-4.1-4.12-6.3.41-6.23.3-6.58,6.6-.28,5.27-1.1,10.6,3.82,14.52,1.11.89.71,2.34.66,3.58-.21,5.79-.45,11.58-.68,17.37s-.26,11.34-.75,17c-.29,3.42.6,4.55,4.18,4.55,22.13,0,44.27.19,66.4.27,11.7,0,23.4-.13,35.1,0,2.63,0,3.15-1,3.23-3.28.37-11.45.93-22.91,1.26-34.36.08-2.82.71-5.09,2.9-7,1.4-1.21,2.76-2.59,2.81-4.73.09-3.78.29-7.55.42-11.33C337.23,397.9,337.41,396.54,336.16,396.35ZM258.1,356.67a74,74,0,0,0,.35-9.05c-.12-3.19,2-2.39,3.79-2.59,2.06-.23,2.5.67,2.47,2.6-.07,5.77,0,5.77,5.92,5.82,5.19.05,5.46.05,5.45-5.37,0-4,2.6-2.7,4.59-3,2.66-.37,2.35,1.38,2.31,3.07-.12,5.24-.1,5.24,5,5.28a14.28,14.28,0,0,1,2.27,0c3.38.64,4.39-.83,4.28-4.09-.05-1.56-1.29-4.16,2.34-4.33,3.38-.16,4.81.65,4.2,4.27-.54,3.2,1,7.46-1,9.48s-6.23.59-9.47.59c-3.9,0-7.79-.28-11.69-.43,0,.38,0,.76,0,1.14-6-.24-12.07-.61-18.1-.65C258.45,359.46,257.91,358.76,258.1,356.67Zm1.24,4.4,39.81.05c-1.3,3-2.85,4.42-5.83,4.37-9.55-.16-19.1-.25-28.64-.1C261.64,365.44,260,364.44,259.34,361.07Zm56,64.15a1.46,1.46,0,0,1-1.58.74c-1-.24-.74-1.12-.78-1.83-.38-5.68-.33-5.74,5.52-5.75,4.21,0,5.91,2.62,4.2,6.59-.72,1.68-2.15,1.36-3,.37C318.21,423.41,316.89,423,315.37,425.22Zm4.46,11.87c2.09,0,2.6.8,2.39,2.69-.18,1.72.27,3.71-2.6,3.36-1.49-.18-3-.14-4.52-.2-4-.52-8,.39-12,.26-2-.07-3.07-.44-2.77-2.74.23-1.72-.25-3.5,2.62-3.4C308.58,437.26,314.21,437.2,319.83,437.09Zm-4.94-4.88c.9,3.7-2,3.14-4.73,3.28-3.52.19-2.37-2.15-2.63-4-.57-4.12,2-3.82,4.78-3.92C315.87,427.45,314.83,429.74,314.89,432.21Zm-3.6-7.34c-.79,2-2.63,1.54-3.51.45-1.63-2-2.86-2.21-4.38-.12a1.45,1.45,0,0,1-1.62.65c-1-.27-.71-1.14-.75-1.85-.36-5.62-.33-5.65,6-5.59C311.41,418.46,312.94,420.67,311.29,424.87Zm-8.48,7.27c.87,4.59-2.72,3.08-5.23,3.34-3.76.38-2.55-2.25-2.76-4.19-.56-5.19,3.31-3.46,5.74-3.62S303,427.72,302.81,432.14ZM298.76,440c-.06,1.64.27,3.18-2.17,3.15s-2.17-1.42-2.1-3-.16-3.27,2.44-3.18S298.65,438.84,298.76,440Zm-6.3-37a6.18,6.18,0,0,1-1.87,0c-1.85-.74-5.52,2.25-5.38-2.65.11-3.8,0-3.8,5.22-3.74,4.27.06,4.74.69,4,4.73C294.21,402.64,293.62,403,292.46,403Zm.78,7.77c-1.11-2-.53-4-.13-6C294.87,406.67,294.16,408.72,293.24,410.75ZM262,388.18c2,.26.17,2.35,1,3.29-.64,1.13.62,3.25-1.29,3s-.8-2.26-.78-3.45C260.91,390,260.1,387.94,262,388.18Zm.61-15.15c1.72,0,.68,1.74,1,2.7-.44,1,.64,2.94-1.35,2.77-1.52-.13-.8-1.82-.78-2.81S261,373,262.61,373Zm27.68,13.46c-1.66-.11-3.57.76-3.69-2.49-.18-4.61,2.75-3.67,5.34-3.75,1.79-.06,3.17-.28,3.34,2.51C295.54,387.07,293,386.64,290.29,386.49Zm3.65,8.31a7.63,7.63,0,0,1,.36-7.18A10.16,10.16,0,0,1,293.94,394.8Zm-28.79-19.49c-.27-2.07.88-2.57,2.7-2.4,1.36.13,2.74.13,4.11.18V373c1.12,0,2.25-.07,3.37,0,.92,0,2.21-.55,2.61.71a4.6,4.6,0,0,1-.28,4c-.66,1-1.93,1.89-2.93.21-1.44-2.4-2.79-2.05-4.27-.08-1.22,1.62-3,1.1-4.47.77C264.3,378.14,265.3,376.44,265.15,375.31Zm13.28,5c2.4-.24,3.66-.1,3.71,2.78.05,3.83-2.17,3.28-4.53,3.37-2.17.08-3-.45-3-2.88C274.59,380.35,276,379.68,278.43,380.33Zm-7.12,7.88a1.48,1.48,0,0,1,0-.21c.74,0,1.49.07,2.24.09,2,0,4.19-.79,4,2.91-.13,3.27-1,4.54-4.32,4.06a18,18,0,0,0-4.86,0c-3.32.43-4.38-.76-4-4.13.25-2.26.89-3.15,3.14-2.85C268.8,388.2,270.06,388.16,271.31,388.21Zm.84,11.58c.2-2.66,1-3.51,3.55-3.2a17.3,17.3,0,0,0,4.49,0c3.18-.49,3.76.94,3.54,3.78-.17,2.13-.86,2.92-2.94,2.65-1.11-.14-2.24-.1-3.94-.17C275.49,402.25,271.75,404.9,272.15,399.79Zm11-4.83c-4.41,0-4.54-.25-4-4.74.17-1.55.65-2.28,2.29-2.21a41.49,41.49,0,0,0,6.78,0c3.23-.38,3.66,1.07,3.51,3.86-.12,2.41-.76,3.5-3.27,3.13a31.61,31.61,0,0,0-3.38-.16,1,1,0,0,0,0,.17C284.39,395,283.76,395,283.14,395Zm8.79-16.64c-1.43.73-3.71,1.12-4.91-.3-1.57-1.86-2.74-2.44-4.5-.47a2.14,2.14,0,0,1-2.78.28c-1-.73-.27-2.09-.34-3.17a1.47,1.47,0,0,1,1.54-1.72c1-.06,2,0,3,0s1.76.07,2.63.1a.76.76,0,0,0,0-.15,19.15,19.15,0,0,1,2.63.12c1.2.22,3.08-.82,3.4,1.18C292.84,375.53,293.38,377.58,291.93,378.32Zm-9.29-7c-3.25-.2-6.5-.28-9.76-.41l0,.73c-3-.12-6-.3-9-.33-1.54,0-2.32-.4-2.19-2.14.11-1.48.46-2.29,2.18-2.27q9.41.1,18.8,0c1.61,0,2.25.51,2.17,2.18C284.74,370.64,284.35,371.45,282.64,371.35Zm-16,9c1.87-.2,3.46-.42,3.52,2.71.08,4.66-2.94,3.22-5.1,3.41-2-.11-4.05.72-4.09-2.76C260.93,378.65,264.34,380.59,266.65,380.34Zm-3.59,16.17a18.82,18.82,0,0,1,3,.06c1.78.41,4.59-1.61,4.76,2.66s-2.25,4-5,3.81c-.25,0-.5,0-.76,0-5,0-4.94-.05-4.63-4.22C260.6,396.9,261.41,396.41,263.06,396.51Zm.67,11.59c.16-2.74.83-3.9,3.7-3.52,1.73.23,3.52,0,5.28.06,1.92.07,4.26-1,4.23,2.79,0,3.59-1.74,3.86-4.43,3.54-.87-.1-1.75-.08-2.63-.12a.76.76,0,0,0,0,.15c-.88,0-1.76-.11-2.64-.1C265.29,410.93,263.56,411.23,263.73,408.1Zm9.85,9.55c-1.76.13-2.1-.85-1.95-2.32.14-1.31-.25-2.89,2-2.79s4.23,0,6.35.06c1.53,0,3.25-.53,3.2,2.24,0,2.51-1.16,2.94-3.22,2.73-1-.09-2,0-3,0S274.7,417.57,273.58,417.65Zm2.7,3.56c-.06,2.35.07,4.68-3.28,4.7-1.5,0-3,.08-3.88.11-3.27-.2-6.71,1.05-5.93-4,.35-2.31,1-3,3.22-2.85s4.29,0,6.41.14C274.18,419.37,276.36,418.26,276.28,421.21ZM282,411c-3.16.42-3.87-1-3.57-3.82.2-1.85.66-2.81,2.68-2.58,1.37.16,2.75.13,4.13.18a1.48,1.48,0,0,0,0-.21c.88,0,1.76.12,2.63.1,1.85-.06,3.46-.23,3.21,2.63-.21,2.38-.25,4.19-3.45,3.7A20.11,20.11,0,0,0,282,411Zm17.64,11c-.48,1.82.68,4.1-2.36,4.05-3.42-.06-1.89-2.52-2-4.05-.11-1.76-.5-3.95,2.6-3.67C301.16,418.65,298.59,421.18,299.61,422Zm-5.45-50.71c-1.75,0-3.51.05-5.26.09-1.47,0-2.72.07-2.61-2.09.08-1.8.71-2.51,2.48-2.3.87.1,1.75.08,2.63.11V367c.88,0,1.76.13,2.63.09,1.31-.05,1.8.57,1.67,1.82C295.59,369.94,295.91,371.27,294.16,371.3Zm-33.93,36.09c-.06-1-.41-2.81,1.08-2.64,2,.23.53,2.23,1,3.29-.4,1,.47,2.86-1.14,2.69C259.15,410.53,260.3,408.56,260.23,407.39Zm-.37,8.12c.18-1.24-.47-3,1.82-3,1.63,0,3.26-.12,4.89,0s3.58-.85,3.59,2.26c0,2.85-1.43,3-3.53,2.81-.75-.08-1.51-.07-2.26-.1v.15a25.78,25.78,0,0,0-2.63-.09C260.25,417.62,259.66,416.94,259.86,415.51Zm.8,3.87c2.36,0,.25,2.26,1.18,3-.57,1.28.53,3.33-1.16,3.34-2.17,0-1-2.11-1-3.25S259,419.37,260.66,419.38ZM219.3,407.19a37.13,37.13,0,0,0,.25-6.41c-.13-2.57.73-3.34,3.4-3.41,3.32-.07,4.72.82,3.93,4.19-.91,3.87.89,4.6,4.4,4.38,5.25-.34,5.41-.11,5.53-5.34.05-2.53.92-3.1,3.33-3.09,2.74,0,2.57,1.43,2.57,3.35,0,1.66-1.18,4.27.56,4.83a13.19,13.19,0,0,0,7.77,0c1.85-.61.89-3.38.91-5.15,0-2.31.87-2.88,3.12-3,3.19-.18,4,.81,3.83,4-.56,9.46-.42,9.49-10,9.34-3.39-.05-6.78-.25-10.18-.39l0,.82c-5.4-.21-10.81-.6-16.21-.57C219.64,410.74,219,409.71,219.3,407.19Zm41.73,33c-.38,1,.49,2.78-1.11,2.7-1.86-.08-1-1.92-1-3s-.47-2.77,1.07-2.68C261.93,437.32,260.66,439.18,261,440.19Zm-40.54-27.9c12.5.08,24.25.18,36,.22,1.54,0,1.89.72,1.83,2.1s-.3,2.14-1.87,2.13c-10.53-.08-21.07-.07-31.6-.21C222.65,416.5,222,414.39,220.49,412.29Zm4.64,30.7c-2.85-.07-1.82-2-2-3.46-.23-2.13.71-2.75,2.8-2.76,2.68,0,2.3,1.61,2.15,3.38C228.51,442.4,227.37,443,225.13,443Zm1.18-7.7c-2.26.09-3.11-.5-2.92-2.94.47-6.05-.26-4.94,5.18-4.94,2.17.14,5-.92,4.48,3.28C232.41,436.28,233.8,435,226.31,435.29Zm-2.38-13.48c.1-1.9-.43-3.72,2.52-3.66,3.69.06,2.17,2.53,2.3,4.21.16,2,.11,3.7-2.88,3.44C222.37,425.49,224.46,423,223.93,421.81Zm10.48-3.61c.74.08,1.53-.11,2.25,0,1.23.23,3.2-.83,3.51,1.07a13.07,13.07,0,0,1-.4,5.93c-.38,1.21-1.66.52-2.3-.43-.86-1.26-2-1.67-3.17-.61s-2,2.39-3.41,1.44c-1.16-.75-.31-2.34-.4-3.49C229.74,418.72,231.47,417.87,234.41,418.2Zm10.48,13.42c.85,4.09-1.73,3.74-4.4,3.83s-2.85-1.07-2.9-3.33c-.07-3.57.84-5,4.81-4.8S244.69,429.94,244.89,431.62Zm-11.58,5.28c.73.13,1.51,0,2.26.05,1.73.23,4-1,4,2.65s-1.83,3.51-4.25,3.3c-.37,0-.75,0-1.45-.06-1.17-.78-4.27,1.77-4.21-2.4C229.74,437.73,230.39,436.37,233.31,436.9ZM235,447.16c.18-2.19,1-2.86,3-2.61,1,.13,2,.1,3,.14,5.09,0,5.22.2,4.64,4.41-.22,1.53-.9,1.83-2.19,1.8a28.26,28.26,0,0,0-4.87,0C235.45,451.4,234.78,450.06,235,447.16ZM245.28,443c-2.85.49-4.82.05-4.2-3.73.28-1.72.72-2.46,2.5-2.29,1.36.13,2.74,0,4.12,0,1.9,0,4-.62,3.84,2.8-.1,3.11-1.5,3.54-3.95,3.27C246.84,443,246.09,443,245.28,443Zm.8-18.57c-1,1.3-2.17,1.89-3.52,1.28-1.69-.76-.38-2.46-.69-3.6-.73-3.56,1.13-4.23,4-3.83a14.71,14.71,0,0,0,1.88.05c4.13.06,5.92,2.88,4.12,6.65-.77,1.61-1.66,1.09-2.44-.09C248.51,423.46,247.16,423.05,246.08,424.43ZM225,457.7c-1.91-.06-2.61-.6-2.5-2.62s.55-3.17,2.79-2.69c2.3-.37,2.31,1,2.31,2.72C227.58,457,227,457.77,225,457.7Zm1.26-6.87c-2.78.32-3.8-.63-3.48-3.56.23-2,.62-3.08,2.84-2.75,1,.14,2,.09,3.7.16,1.23.44,4.72-1.87,4.29,3-.24,2.64-1,3.59-3.59,3.22A14.34,14.34,0,0,0,226.25,450.83Zm9.25,7c-.5-.07-1-.05-1.88-.09-1.17-.53-3.29,1.06-4.39-.92s.34-4.33,2.86-4.35c1.12,0,2.25,0,3.38,0,1.59.11,3.56-.68,3.5,2.38C238.91,457.59,237.72,458.11,235.5,457.83Zm15.34-3c-.17,1.38.33,3.22-2.14,3-1.11-.1-2.24-.1-3.36-.15-2.42,0-5.65,1.12-4.76-3.48.24-1.24.75-1.72,1.93-1.7,2.12,0,4.24.1,6.35,0C250.61,452.44,251,453.31,250.84,454.82Zm3.63,3.11c-2.51,0-1.93-1.59-2-3-.08-1.75.6-2.36,2.41-2.34,2.29,0,1.8,1.49,1.79,3.06C256.74,456.9,256.48,457.92,254.47,457.93Zm-1.6-6.93c-.37-.06-.75,0-1.63-.07-1.6-.16-4.49,1.09-4.06-3.17.24-2.4.86-3.45,3.32-3.08.73.11,1.52-.1,2.25,0,1.75.28,4.42-1.36,4.35,2.62C257,450.57,255.82,451.53,252.87,451Zm4.35-10.27c.29,1.72-.54,2.38-2.36,2.34-3.06-.07-1.23-2.35-1.68-3-.3-2.46.54-3.26,2.51-3.05C258.57,437.29,257,439.41,257.22,440.73Zm.48-10.08c-.21,3.29-.34,5.88-4.46,4.55-2.83.62-3.62-.33-3.59-3.06,0-3.33.59-5.14,4.51-4.57C256.25,427.87,257.91,427.48,257.7,430.65Zm.34-8.57c-.38,1.7.78,4.24-2.56,3.93-3.14-.3-1.58-2.62-1.62-4s-.89-3.73,2.24-3.63C259.43,418.45,257.52,420.83,258,422.08Zm1.19,35.65c-1.41-.1-1-1.54-.91-2.46s-.39-2.42,1-2.44c2.07-.05.42,1.82,1.12,2.37C260.15,456.3,260.76,457.84,259.23,457.73Zm4.14.06c-1.8,0-1.31-1.42-1.4-2.35.16-1.26-.31-2.82,1.67-2.81s1.32,1.48,1.26,2.45S265.46,457.83,263.37,457.79ZM261.45,451c-2.78.19-2.85-1.13-2.94-3.33-.14-3.38,1.89-2.93,4.07-3.05,2.5-.13,3.09.94,2.58,3.17C265.88,451.07,263.77,450.88,261.45,451Zm4-11c-.48,1.07.76,3.12-1.6,3.05-2-.06-1.29-1.8-1.23-2.86s-.68-3.11,1.6-3.05S265.07,439,265.46,440Zm-5.13-4.65c-1.74.09-1.13-1.59-1.14-2.59,0-5.22,0-5.24,5.3-5.21,1.57,0,3.14.12,5.16.2a33.32,33.32,0,0,0-3.67,6.41C264.89,436.84,262.25,435.24,260.33,435.35Zm8.32,22.5c-1.15,0-2.26,0-2.14-1.68.11-1.41,1-1.45,2.07-1.42s2,0,1.93,1.5C270.57,457.57,269.79,457.89,268.65,457.85Zm2.11-7c.09,1.74-.6,2.41-2.42,2.31-2-.11-1.61-1.42-1.62-2.85-.21-1.6.71-2.16,2.42-2.1C271.16,448.28,270.7,449.67,270.76,450.86Zm-1.88-4.21c-2.53,0-1.84-1.74-1.91-4,0-.58.15-1.71,2.18-1.69,2.53,0,1.84,1.74,1.88,3.12S270.92,446.68,268.88,446.65Zm2.29-8.37a1.81,1.81,0,0,1-2.79.94c-2.4-1.76-.68-3.89-.23-5.94C271.26,433.8,271.78,435.79,271.17,438.28Zm.56-5.33c-1-.13-2.09-.76-2.1-1.81a2.4,2.4,0,0,1,2.11-2.26c1.36-.1,1.33,1.58,2.13,2.2C273.49,432.29,272.8,433.1,271.73,433Zm7-4.78c-.26,1.14-1,2.59-2.36,2.64s-2.15-1.48-2.22-2.61c-.12-1.74,1.59-1,2.54-1.35C277.54,427.16,279.16,426.49,278.78,428.17Zm.54,2.58c.37-.9.8-2.34,2.25-2a3.64,3.64,0,0,1,2.13,2.3c-.71,1.11-1.66,2-2.69,1.91S278.74,432.13,279.32,430.75Zm5.25,25.87c-.17,1.52-1.34,1.2-2.27,1.25s-1.63-.31-1.61-1.5c0-1.68,1.11-1.7,2.35-1.64C284.39,454.64,284.7,455.42,284.57,456.62Zm.25-5.71c.14,1.85-.78,2.33-2.48,2.19-2.08-.19-1.26-1.69-1.4-2.75-.18-1.78.83-2,2.29-2C285.34,448.31,284.73,449.76,284.82,450.91Zm.19-7.44c.21,2.2-.13,3.43-2.3,3.24-2.33-.2-1.41-1.88-1.5-3.07-.13-1.66.13-2.91,2.37-2.73C286,441.11,284.73,442.88,285,443.47Zm-1.63-4.75c-1.22-.11-2.08-.1-2-1.8.08-2,1.16-3.3,2.78-3.34,1.81-.06.75,1.95,1.15,2.52C285.54,438,285.17,438.9,283.38,438.72Zm5.7,16.61c-.23,1,.38,2.54-1.5,2.47s-1.31-1.51-1.27-2.52-.36-2.83,1.7-2.61C289.87,452.88,288.78,454.44,289.08,455.33Zm-.15-4.27c-2.95.11-2.24-1.74-2.39-3.44-.27-2.88,1.44-2.77,3.48-2.9,2.72-.17,2.79,1.32,2.47,3.35C293.1,451.1,291.16,451,288.93,451.06Zm-.28-13.84c2,.25.47,2.09,1.11,2.87-.4,1.25.48,3.09-1.61,3s-1.28-1.83-1.24-2.93S286.36,436.94,288.65,437.22Zm3.4,5.54c-1.09-1.79-1-3.54,0-6C293.37,439.18,292.82,441,292.05,442.76Zm1.12-10.39c-.25,1.2.57,3.17-1.73,3-1.73-.14-4.23,1.32-4.82-1.92-.36-2-1.64-3.58-3.09-5.8a36.73,36.73,0,0,0,5.3-.07C292.94,426.86,293.91,428.8,293.17,432.37Zm-.46-6.55c-1.08-2.15-.93-4.25.07-7.17A8.3,8.3,0,0,1,292.71,425.82Zm-.71-8.19c-.87,0-1.74,0-3.23.08,2.34,2.27,1.49,4.6,1.5,6.8,0,.65-.19,1.4-.93,1.4-3.5,0-7.11.68-10.47-.54-2-.74-.77-2.88-.91-4.4s.94-1.82,2.21-1.81c1.75,0,3.51,0,5.44,0-1.25-2.2-2-5.16-.09-6.18,2.21-1.19,5.42-1,8,.09.92.38.28,2.09.27,3.19S293,417.65,292,417.63ZM298.18,455c-.1,1.5.15,3-2.23,2.93-2,0-2.22-1.08-2-2.67-.18-1.7.24-2.75,2.39-2.66C298.18,452.72,298.28,453.65,298.18,455Zm0-4c-1.94.13-4.56.78-4.05-3.47.28-2.3,1-3.12,3.2-2.84a16.46,16.46,0,0,1,2.23.05c1.65.46,4.32-1.5,4.47,2.52s-1.88,3.91-4.56,3.71C299.2,451,299,451,298.16,451Zm8.23,6.83-2.4-.09c-1-.27-2.86.88-4.05-.64s.29-4.35,2.37-4.46a28.18,28.18,0,0,1,4.11,0c1.59.16,3.83-1,3.83,2.37C310.25,458.24,308.43,458,306.39,457.84Zm3.7-6.86c-5,0-5-.16-4.56-4.19.16-1.37.55-2.08,2-2s2.78-.16,4.13,0c1.71.26,4.37-1.57,4.48,2.45.1,3.77-1.74,4.1-4.58,3.77C311.1,451,310.59,451,310.09,451Zm9,6.89c-1.25.07-2.5.07-3.75,0-1.75,0-3.72.68-3.63-2.58.07-3.09,1.84-2.64,3.69-2.6l2,.07c1.06.3,2.94-.85,4.12.66S321.11,457.76,319.06,457.87Zm6.33,0c-2.3.06-2.15-1.23-2.18-2.85,0-2,.94-2.4,2.74-2.44,2.33,0,2.3,1.27,2.05,2.79C328.34,457.61,327.16,457.86,325.39,457.9Zm-.45-6.9a24.08,24.08,0,0,0-3.4,0c-3.76,0-5-1.61-3.65-5,1.1-2.67,3.61-.46,5.34-1.36,1.73,1.09,5.46-1.84,5.22,3.11C328.32,450.36,327.57,451.4,324.94,451Zm3.77-10.95c0,2-.22,3.29-2.8,3.19-2.37-.1-2.22-1.4-2.05-3.08-.21-1.88.14-3.13,2.71-3C328.92,437.22,328.71,438.48,328.71,440.05Zm.42-9.6c-.28,5.09-.07,5.1-5.63,5.06-1.73-.22-4.27,1-4-2.81.33-5.07.1-5.19,5.11-5C326.43,427.77,329.36,426.25,329.13,430.45Zm.23-8.38c0,2.36.28,4.21-2.78,4-3.48-.22-1.85-2.6-2-4.13-.17-1.87-.31-3.72,2.76-3.56C331,418.58,328.73,421.15,329.36,422.07Zm-2.47-5.16c-9.4-.26-18.81-.11-28.22-.19-1.31,0-3.16.76-3.21-1.87s1.67-2.24,3.29-2.24H330c.95,0,1.9.07,3.34.13C331.55,415.4,330.1,417,326.89,416.91Zm8.38-15.76C335,411,335,411,325.36,411c-3.52,0-7,0-10.56,0,0,.21,0,.42,0,.63-5.4-.21-10.79-.56-16.19-.58-2.36,0-3.12-.71-2.87-3a36.44,36.44,0,0,0,.26-7.15c-.32-3.78,2.16-3,4.37-3.18,2.82-.23,2.52,1.44,2.55,3.31,0,1.65-1.18,4.23.61,4.8a13.7,13.7,0,0,0,7.77,0c2-.61,1-3.35,1-5.08,0-2.59,1-3.08,3.35-3.1,3.34,0,2.2,2.18,2.39,3.86.17,1.51-1.12,3.87.76,4.35,2.72.68,5.89,1,8.5-.1,1.57-.69.86-3.25.76-4.91-.24-4.2,2.75-2.82,4.84-3.08C335.82,397.39,335.32,399.4,335.27,401.15Z"
        transform="translate(-68.17 -49.36)"/>
    <path class="cls-3"
          d="M229.17,125.71a34.24,34.24,0,0,0,6.18,4.69,29.17,29.17,0,0,0,4.13,1.31,78.32,78.32,0,0,0,7.68,2.06c1.11.17,3.39,0,4.5.19.77.13,2.21.85,3,.94,1.46.15,4.36-.46,5.81-.57,1.69-.12,5.08-.09,6.75-.37.67-.11,2-.6,2.62-.75.88-.2,2.67-.43,3.56-.56s3-.8,3.94-.57c.55.14,1.37,1,1.87,1.32s2.4.6,3,.87c.61-3.24,1.28-6.72,2.1-8.44a7.39,7.39,0,0,1-1.95,1.76,7,7,0,0,1-2.63.37,30,30,0,0,1-4.12-.37,20.34,20.34,0,0,0-3.18-.75c-.8,0-2.21,1-3,1.12-1.81.28-5.48-.29-7.31-.37-1.12,0-3.38-.09-4.5-.19a32.78,32.78,0,0,1-4.31-.56,42.57,42.57,0,0,1-5.06-2.06c-1.77-.82-5.41-2.34-6.93-3.56-1.32-1.07-3.15-4-4.31-5.25-1.36-1.45-4.28-4.16-5.81-5.43a8.85,8.85,0,0,0-2.25-1.69,7,7,0,0,0-3.93.37,6.58,6.58,0,0,0-2.25,3c-.4,1.51.16,4.74.75,6.19C224.42,120.54,227.53,124.09,229.17,125.71Z"
          transform="translate(-68.17 -49.36)"/>
    <path
        d="M255.18,135.92a6.05,6.05,0,0,1-.63,0,8.92,8.92,0,0,1-1.88-.55,8.65,8.65,0,0,0-1.18-.4,16.7,16.7,0,0,0-2.16-.08,17.59,17.59,0,0,1-2.32-.1,61.84,61.84,0,0,1-6.68-1.75l-1.14-.34-.84-.23a21.23,21.23,0,0,1-3.46-1.15,34.72,34.72,0,0,1-6.42-4.87h0c-1.77-1.75-4.93-5.38-5.85-7.64-.64-1.57-1.27-5-.79-6.82a7.46,7.46,0,0,1,2.73-3.61,7.83,7.83,0,0,1,4.69-.46,6.43,6.43,0,0,1,2.24,1.54l.38.34c1.54,1.29,4.51,4,5.9,5.52a26,26,0,0,1,1.73,2.18,19.78,19.78,0,0,0,2.48,3,33.09,33.09,0,0,0,5.7,3l1,.46a43,43,0,0,0,4.9,2,33.78,33.78,0,0,0,4.14.53c.71.06,1.91.1,3,.14l1.49,0c.58,0,1.35.1,2.19.18a24.54,24.54,0,0,0,4.91.2,5.62,5.62,0,0,0,1.12-.45,6.17,6.17,0,0,1,2-.68,7.31,7.31,0,0,1,2.37.47,8.27,8.27,0,0,0,1,.29,30,30,0,0,0,3.94.36,6.29,6.29,0,0,0,2.14-.23,7,7,0,0,0,1.64-1.46l1.73,1c-.79,1.65-1.48,5.28-2,8.19l-.23,1.22-1.14-.48c-.23-.1-.86-.25-1.36-.38a7.9,7.9,0,0,1-1.77-.54,5.16,5.16,0,0,1-.86-.64,5.73,5.73,0,0,0-.78-.58,8.59,8.59,0,0,0-2.39.35c-.44.1-.84.19-1.15.24l-.78.11c-.88.12-2.08.3-2.71.44-.28.06-.66.18-1.06.31a15.82,15.82,0,0,1-1.61.45,40.26,40.26,0,0,1-4.51.28c-.89,0-1.72.05-2.33.1s-1.13.13-1.82.23A27.59,27.59,0,0,1,255.18,135.92ZM229.87,125a33.86,33.86,0,0,0,5.94,4.51,20.16,20.16,0,0,0,3.07,1l.88.24,1.15.34a62.23,62.23,0,0,0,6.4,1.69,16.46,16.46,0,0,0,2,.08,16.92,16.92,0,0,1,2.5.11,10,10,0,0,1,1.55.49,7.84,7.84,0,0,0,1.38.44,20.28,20.28,0,0,0,3.67-.32c.75-.11,1.44-.2,2-.24s1.5-.08,2.42-.11A36.46,36.46,0,0,0,267,133a10.77,10.77,0,0,0,1.34-.38c.47-.15.92-.29,1.24-.36.7-.15,1.9-.32,2.86-.46l.76-.11c.27,0,.62-.12,1-.21a8.39,8.39,0,0,1,3.32-.34,4.27,4.27,0,0,1,1.58,1,4.25,4.25,0,0,0,.55.42c.15.07.83.24,1.27.35l.5.13c.31-1.62.61-3.07.92-4.33a9.26,9.26,0,0,1-2.51.29,29.28,29.28,0,0,1-4.39-.38c-.38-.07-.83-.21-1.31-.35a6.59,6.59,0,0,0-1.65-.39,5.62,5.62,0,0,0-1.25.49,6.57,6.57,0,0,1-1.66.62,25.65,25.65,0,0,1-5.42-.19c-.79-.07-1.53-.15-2.09-.17l-1.45-.05c-1.09,0-2.32-.08-3.08-.14a35.25,35.25,0,0,1-4.48-.59,41,41,0,0,1-5.22-2.12l-1-.46a33.78,33.78,0,0,1-6.14-3.23,20.2,20.2,0,0,1-2.83-3.34,25.56,25.56,0,0,0-1.58-2c-1.34-1.43-4.23-4.1-5.72-5.35-.13-.1-.27-.24-.44-.38a7.07,7.07,0,0,0-1.44-1.11,6.2,6.2,0,0,0-3.17.29,5.78,5.78,0,0,0-1.78,2.38,12.63,12.63,0,0,0,.71,5.55c.77,1.87,3.62,5.21,5.4,7Z"
        transform="translate(-68.17 -49.36)"/>
    <path class="cls-3"
          d="M361.75,115.13c-.49-.68-2.11-1.35-2.82-1.78a14.12,14.12,0,0,0-1.59-.94c-.82-.34-2.62-.57-3.46-.84s-2-.95-2.72-1.13c-.41-.1-1.32,0-1.69-.19a4.67,4.67,0,0,1-1.22-1.49c-.23-.44-.72-1.42-.56-1.88s1.32-.93,1.78-1.22c1-.63,3.17-1.74,4.22-2.34,1.22-.69,3.74-2,4.87-2.81a11.5,11.5,0,0,0,2.62-2.44,13.82,13.82,0,0,0,.66-3.18c.1-.5.55-1.54.37-2A4.71,4.71,0,0,0,359.78,91a9,9,0,0,0-2.63.38,20.15,20.15,0,0,0-2.9.47c-.89.31-2.36,1.65-3.28,1.87a17.7,17.7,0,0,1-3.47-.19c-.67,0-2.16.4-2.71,0a3.36,3.36,0,0,1-.66-2.06,6.91,6.91,0,0,1,.75-2.53A13.64,13.64,0,0,1,347,86.55c.59-.54,1.93-1.43,2.53-2s2-2,2.62-2.71a11.72,11.72,0,0,0,2.06-2.63,6.08,6.08,0,0,0,0-2.25c-.11-.57-.37-1.83-.84-2.15s-1.9,0-2.53,0a13.82,13.82,0,0,0-2.63-.19A15.44,15.44,0,0,0,346.1,76a53.06,53.06,0,0,1-5.81,2.35c-.78.24-2.38.9-3.19.74a3.42,3.42,0,0,1-1.59-1.12,8.55,8.55,0,0,1-.75-3.37c0-1.21.83-3.57.75-4.78a6.11,6.11,0,0,0-.84-2.81,4.81,4.81,0,0,0-2.06-.84,4.63,4.63,0,0,0-2.25,0c-.78.39-1.46,2.18-2.06,2.81A57.45,57.45,0,0,1,323,73.15c-1.13.85-3.29,2.75-4.59,3.28s-4.12.44-5.44.84c-3.12,1-8.71,4.58-11.8,5.63-1.64.55-5.08,1-6.75,1.4-1.44.35-4.24,1.43-5.71,1.59-2.13.24-6.42-.79-8.53-.46a18.8,18.8,0,0,0-4.5,1.68A25.49,25.49,0,0,0,273.11,89c-1.05.81-3.1,2.52-4.12,3.37-.75.63-2.23,1.92-3,2.53a36.65,36.65,0,0,1-3,2.25c-.48.29-1.55.69-2.06.93-.92.44-2.71,1.41-3.65,1.78-1.65.66-5.07,1.6-6.75,2.16-.94.31-3.17.5-3.75,1.31s-.12,2.68,0,3.56a16.31,16.31,0,0,0,1.13,3.94,20.76,20.76,0,0,0,3.09,3.74,24.55,24.55,0,0,0,2.72,2.16,25.46,25.46,0,0,0,2.34,1.31,22.16,22.16,0,0,0,3.93,1.59,14.6,14.6,0,0,0,3.85,0,24.07,24.07,0,0,0,3.84-1.21,39.38,39.38,0,0,0,3.56-1.78c.49-.3,1.36-1.06,1.87-1.32a9.05,9.05,0,0,1,3.47-.75,9.7,9.7,0,0,1,3.56,1.41,15,15,0,0,1,3.56,3.56,10,10,0,0,1,.94,5.06s-1.68,7.15-2.79,11.1a6.62,6.62,0,0,1-.24.84c-.4,1.33-.68,2.06-.72,1.55a7.26,7.26,0,0,1-2.06,1.88,11.81,11.81,0,0,1-2.06.56c-.7.16-2.12.75-2.81.56s-1.72-1.52-2.25-2.06-1.47-2.23-2.25-2.58c-.47-.21-1.76-.42-2.06,0-.75,1,1.63,3.57,1.5,4.83,0,.48-.76,1.23-.94,1.68a10.92,10.92,0,0,0-.75,3,6.13,6.13,0,0,0,.75,2.81,7.22,7.22,0,0,0,2.43,1.31,8.77,8.77,0,0,0,3,.75c1-.11,2.82-1.39,3.75-1.87,1.08-.55,3.26-1.64,4.31-2.25s2.62-1.78,3.56-2.25A35.92,35.92,0,0,1,289,143a37.14,37.14,0,0,1,3.74-.93c1.07-.18,3.24-.26,4.31-.38,1.44-.15,4.3-.48,5.72-.75a21.74,21.74,0,0,0,3.09-.75c4.27-1.63,13.24-12.17,16.12-8.62.5.62-1.49,1.89-2.07,2.44-1.11,1.06-3.64,2.83-4.87,3.75a30.6,30.6,0,0,1-3.37,2.43,46,46,0,0,1-7.12,2.25c-1,.25-2.95.57-3.94.75-2.47.45-7.56.82-9.93,1.69a22.8,22.8,0,0,0-5.57,3.28,36.4,36.4,0,0,0-2.25,2.95,36,36,0,0,1-3.23,3.09c-.42.28-2.12,1.67-2.81,2.25a15.32,15.32,0,0,1-2.67,2.25,12.64,12.64,0,0,1-2.39.14c-.89.09-2.64.72-3.52.56s-2.17-1.36-2.95-1.69c-1.41-.59-4.47-1.12-5.9-1.68-1.87-.74-5.16-3.81-7.17-3.66a3.69,3.69,0,0,0-2,1.41c-.58.94-.09,3.43-.7,4.35a3.48,3.48,0,0,1-2,1.27c-.72,0-1.88-1.08-2.53-1.41-1.13-.57-3.53-1.47-4.63-2.1s-3.26-2.62-4.5-3.24a10.34,10.34,0,0,0-2.81-.84,6.66,6.66,0,0,0-2.81.42,1.73,1.73,0,0,0-.71.85c-.1.93,1.15,2.6,1.69,3.37,1,1.42,3.93,3.54,4.78,5.06.63,1.13,1.63,3.86,1.12,5.06-.21.49-1.31,1-1.82,1.12a6.4,6.4,0,0,1-2.39,0,19.23,19.23,0,0,1-2.53-1.26c-2.43-1.13-7.44-3-9.84-4.22-1-.51-3.07-1.73-4.22-1.83-.57,0-2,.06-2.24.57-.65,1.17,1.4,4.35,1.26,5.2s3.65,3.09,4.36,3.51,7.87,4.22,8.43,4.78a3.41,3.41,0,0,1,1,2.25,4.22,4.22,0,0,1-1.26,2.39c-.87.52-3.09.25-4.08,0-.77-.2-2-1.66-2.81-1.55s-2.65,1.64-2.53,2.53c.3,2.1,6.89,3.79,7.45,4.07s3.08,1.66,3.51,2.67a4.48,4.48,0,0,1-.28,3.1,4.11,4.11,0,0,1-2.67,1.4c-1.59-.14-3.7-3.09-5.06-3.93-1-.64-3.18-2.4-4.35-2.11a3.4,3.4,0,0,0-1.69,2.25c-.16,1.45,1.43,4.23,2.39,5.34,1.12,1.29,4.52,2.48,5.76,3.65s2.22,4.58,3.7,5.16c.63.24,2-.46,2.63-.57s2.19-.13,2.9-.28c.36-.07,1.05-.37,1.41-.47,1.4-.36,4.28-1.27,5.71-1,1.66.29,5.25,3,5.81,3.38s1.61,1,2.15,1.31c1.27.72,4.41,2.43,5.16,2.71s4-.18,4.31-.28,3.76-.46,5-.84a24.42,24.42,0,0,0,3.85-1.87,32.89,32.89,0,0,0,4-2.91c.64-.58,1.59-2.07,2.25-2.62a37.67,37.67,0,0,1,4-2.34,7.66,7.66,0,0,1,3.56-.47c1.27.35,3.27,2.2,4.31,3,.75.57,2.11,1.92,2.91,2.43a16.92,16.92,0,0,0,2.71,1.31c.77.28,2.41,1,3.19.75.58-.19,1.22-1.38,1.59-1.87a32,32,0,0,0,2.16-3.28,46.33,46.33,0,0,0,1.78-4.59c.31-.93.93-2.79,1.12-3.75.09-.46-.15-1.55.19-1.87s1.06-.16,1.4-.1a10.07,10.07,0,0,1,2.72,1.32c.63.42,1.62,1.62,2.25,2.06.91.62,3,1.4,3.93,2,1.31.79,3.62,2.85,5,3.56a17.52,17.52,0,0,0,3.84,1.41,12,12,0,0,0,2.81,0,4.07,4.07,0,0,0,3.75-2.72,7.78,7.78,0,0,0,.19-2.81,24.42,24.42,0,0,0-1.31-4.4,10.74,10.74,0,0,1-.94-2,5.08,5.08,0,0,1,.75-2.9,3.28,3.28,0,0,1,1.78-.66c3.22-.14,9.5,2.09,12.46,3.37.94.41,2.49,1.88,3.47,2.16a5.72,5.72,0,0,0,3,0,3.53,3.53,0,0,0,1.41-1.88,6.24,6.24,0,0,0-1-3.18c-2.12-3.18-8.73-7.43-11.62-9.93-.59-.51-2-1.36-2.34-2.06a3.61,3.61,0,0,1-.09-2.25,3.91,3.91,0,0,1,1.4-1.13,4.42,4.42,0,0,1,1.78-.65c1.16.1,3,1.79,4,2.34,2,1.1,6.18,3.11,8.24,4.12.73.36,2.1,1.39,2.91,1.41a2.82,2.82,0,0,0,1.78-.75,4.34,4.34,0,0,0,.09-2.53,7.3,7.3,0,0,0-1.12-2.25c-1.77-2.19-6.49-5.43-8.81-7-.49-.34-1.63-.95-1.87-1.5a6.08,6.08,0,0,1,.19-3.37,3,3,0,0,1,1-1.4c.86-.43,3.37.09,3.84.09s2.53,0,3.37.09c1.36.08,4.07.41,5.43.47.92,0,2.81.35,3.66,0a3.92,3.92,0,0,0,1.68-1.69,3.52,3.52,0,0,0-.18-1.78c-.19-.46-1-1.15-1.22-1.59s-.39-1.32-.66-1.68c-.64-.9-2.59-2-3.37-2.82-.28-.28-.73-.95-1-1.21-.48-.43-1.63-1-2.15-1.41s-1.37-1.18-1.88-1.5c-.28-.17-1-.31-1.22-.56a3.88,3.88,0,0,1-.65-1.78,9.9,9.9,0,0,1,.37-1.59c.06-.37-.18-1.24.1-1.5s1.26,0,1.68,0h6.19a12.88,12.88,0,0,0,2.06,0,9.07,9.07,0,0,0,2.71-1.31,5.84,5.84,0,0,0,.94-1.22,5,5,0,0,0,.75-1.78,4,4,0,0,0-.84-1.78,11.5,11.5,0,0,0-1.6-1c-.37-.28-1-1-1.4-1.22a13.37,13.37,0,0,0-1.5-.66c-.91-.38-3-.77-3.65-1.5a3.86,3.86,0,0,1-.47-1.4c-.11-.44-.54-1.41-.28-1.78s1.83-.32,2.43-.47c.79-.19,2.3-.82,3.09-.94s2.32.31,3,0a4.77,4.77,0,0,0,1.69-1.87,9,9,0,0,0,.37-3.19A5,5,0,0,0,361.75,115.13Z"
          transform="translate(-68.17 -49.36)"/>
    <path
        d="M253.86,207.75a3.76,3.76,0,0,1-1.24-.15c-.86-.32-4.14-2.12-5.3-2.78-.54-.31-1.61-.95-2.22-1.35l-.45-.32c-2.51-1.79-4.18-2.77-5-2.9-1-.17-3.15.43-4.46.79l-.84.22-.54.19a8.43,8.43,0,0,1-.9.29,13.67,13.67,0,0,1-1.79.19c-.45,0-.88.06-1.17.1a5.31,5.31,0,0,0-.69.21,3.73,3.73,0,0,1-2.45.3c-1.22-.47-2-2-2.81-3.43a9.29,9.29,0,0,0-1.22-1.93,12.87,12.87,0,0,0-2.44-1.49,12.39,12.39,0,0,1-3.39-2.24c-1-1.14-2.84-4.21-2.62-6.1a4.25,4.25,0,0,1,2.44-3.11c1.37-.34,3.07.83,4.42,1.76l.7.47a12.71,12.71,0,0,1,1.94,1.7c.81.81,2,2,2.68,2.09a3.47,3.47,0,0,0,1.75-1,3.84,3.84,0,0,0,.19-2.15,9.33,9.33,0,0,0-3-2.16l-.69-.23c-4.18-1.36-7-2.66-7.3-4.6-.23-1.64,2.15-3.49,3.38-3.66a3.42,3.42,0,0,1,2.39,1,5,5,0,0,0,.81.55,6.86,6.86,0,0,0,3.31.11,3.64,3.64,0,0,0,.79-1.65,2.65,2.65,0,0,0-.7-1.43c-.47-.39-4.44-2.55-6.35-3.58l-1.89-1c-4.69-2.81-5-3.75-4.83-4.54,0-.13-.31-.83-.5-1.29-.63-1.53-1.27-3.1-.65-4.23s3.1-1.08,3.21-1.07a12.07,12.07,0,0,1,3.82,1.53l.75.39c1.31.65,3.43,1.52,5.48,2.37,1.67.68,3.24,1.33,4.34,1.84.24.11.56.29.9.49a8.16,8.16,0,0,0,1.44.71,5.65,5.65,0,0,0,1.88,0,3.65,3.65,0,0,0,1.22-.62c.24-.59-.42-2.88-1.11-4.11a15.12,15.12,0,0,0-2.41-2.57,17.5,17.5,0,0,1-2.32-2.41l-.15-.22c-.94-1.32-1.84-2.7-1.71-3.84a2.56,2.56,0,0,1,1.21-1.6,7.66,7.66,0,0,1,3.37-.55,11.23,11.23,0,0,1,3.18,1,17.55,17.55,0,0,1,2.68,1.88,21,21,0,0,0,1.88,1.38,27.27,27.27,0,0,0,2.61,1.2c.75.32,1.47.63,2,.88a7.94,7.94,0,0,1,.92.6,5.08,5.08,0,0,0,1.16.7,3.25,3.25,0,0,0,1.14-.81,5.45,5.45,0,0,0,.19-1.69,5.69,5.69,0,0,1,.49-2.65,4.52,4.52,0,0,1,2.75-1.87c1.6-.12,3.47,1.12,5.27,2.32a15.79,15.79,0,0,0,2.34,1.4,26.31,26.31,0,0,0,2.69.75,26,26,0,0,1,3.23.94,8.55,8.55,0,0,1,1.35.82,6.73,6.73,0,0,0,1.39.81,7.41,7.41,0,0,0,1.9-.31,13.09,13.09,0,0,1,1.33-.27c.24,0,.59,0,.95,0a5.33,5.33,0,0,0,1.18-.05,8.54,8.54,0,0,0,1.59-1.34c.3-.29.58-.56.81-.75,0,0,2.31-1.93,2.89-2.31a39.62,39.62,0,0,0,3-2.92c.21-.24.51-.68.8-1.1a11.41,11.41,0,0,1,1.53-1.94,24.05,24.05,0,0,1,5.9-3.47,33.39,33.39,0,0,1,6.25-1.2l-1.1.08c-.93.06-2,.13-2.58.23-.87.15-2.69.62-3.61.91a32.7,32.7,0,0,0-3.79,1.44,21.59,21.59,0,0,0-2,1.24c-.57.38-1.12.75-1.52,1-.9.51-2.53,1.34-3.72,2l-.63.32c-.26.13-.58.33-.93.54a9.42,9.42,0,0,1-3.17,1.44A8.58,8.58,0,0,1,270,151a7.28,7.28,0,0,1-2.86-1.63,6.92,6.92,0,0,1-1-3.42,11.71,11.71,0,0,1,.82-3.37,4.25,4.25,0,0,1,.5-.86,4.34,4.34,0,0,0,.38-.62,7.2,7.2,0,0,0-.7-1.55c-.66-1.23-1.41-2.64-.62-3.71s2.91-.49,3.28-.32a5.73,5.73,0,0,1,1.93,2,8.2,8.2,0,0,0,.62.81c.14.14.3.32.48.53a6.76,6.76,0,0,0,1.33,1.27,6.56,6.56,0,0,0,1.56-.36c.28-.09.54-.17.75-.22l.43-.09a8.46,8.46,0,0,0,1.38-.37,6.37,6.37,0,0,0,1.68-1.52l.43-.7c.06-.17.12-.37.19-.62a6,6,0,0,0,.22-.75c1.11-4,2.78-11.06,2.79-11.13a9.15,9.15,0,0,0-.85-4.36,13.86,13.86,0,0,0-3.26-3.22,8.72,8.72,0,0,0-3.05-1.22,8.06,8.06,0,0,0-2.94.65,7.94,7.94,0,0,0-.92.64,10.4,10.4,0,0,1-.89.63,34.5,34.5,0,0,1-3.7,1.85,24.79,24.79,0,0,1-4.06,1.28,15.89,15.89,0,0,1-4.19,0,23,23,0,0,1-4.16-1.67,20.31,20.31,0,0,1-5.34-3.66,22.15,22.15,0,0,1-3.28-4,16.88,16.88,0,0,1-1.23-4.26l0-.36c-.24-1.56-.4-3,.23-3.92s2-1.19,3.28-1.45c.37-.08.72-.15,1-.23.63-.21,1.5-.47,2.43-.75,1.53-.46,3.27-1,4.27-1.38.55-.23,1.47-.69,2.28-1.11.5-.25,1-.49,1.32-.65.18-.09.44-.2.72-.32.44-.19,1-.42,1.25-.57a30.16,30.16,0,0,0,2.62-2l.27-.21c.46-.37,1.19-1,1.85-1.56l1.13-1,.14-.12c1.05-.87,3-2.48,4-3.27l.43-.34A14.38,14.38,0,0,1,280,84.44a20.31,20.31,0,0,1,4.73.22,20.73,20.73,0,0,0,3.84.24A22.55,22.55,0,0,0,292,84c.79-.25,1.54-.49,2.11-.63s1.63-.34,2.63-.51a37.49,37.49,0,0,0,4-.87,45.44,45.44,0,0,0,5.5-2.65,43.07,43.07,0,0,1,6.33-3,14.56,14.56,0,0,1,2.67-.4,12.54,12.54,0,0,0,2.68-.41,19.78,19.78,0,0,0,3.34-2.35l1-.81,1-.71a43.08,43.08,0,0,0,4.26-3.4,6.63,6.63,0,0,0,.61-.95,5,5,0,0,1,1.72-2.06,5.41,5.41,0,0,1,2.89-.09,5.74,5.74,0,0,1,2.61,1.16c.91,1,1.1,3.39,1.1,3.41a10.86,10.86,0,0,1-.4,2.77,11,11,0,0,0-.35,2,8.14,8.14,0,0,0,.58,2.85,2.8,2.8,0,0,0,1,.69,7.42,7.42,0,0,0,2.14-.53l.55-.19a51.39,51.39,0,0,0,5.66-2.28,7.84,7.84,0,0,0,.67-.45,5.78,5.78,0,0,1,1.7-.94,6,6,0,0,1,2.13.07c.29,0,.56.08.76.09a4.34,4.34,0,0,0,.65-.06A3.57,3.57,0,0,1,354,74c.59.41,1,1.24,1.26,2.8a6.75,6.75,0,0,1,0,2.76,8.62,8.62,0,0,1-1.85,2.51c-.16.16-.3.32-.41.44-.62.72-1.95,2.13-2.71,2.81-.32.29-.79.64-1.29,1a13.94,13.94,0,0,0-1.23,1,11.2,11.2,0,0,0-2,2.1,6.12,6.12,0,0,0-.62,2,3.73,3.73,0,0,0,.26,1.24,6.39,6.39,0,0,0,1.13-.08,6.39,6.39,0,0,1,1-.09c.32,0,.75.06,1.22.12a8.93,8.93,0,0,0,2,.1,7.36,7.36,0,0,0,1.47-.86,8.37,8.37,0,0,1,1.71-1,13,13,0,0,1,2.37-.42l.71-.09.64-.14A5.29,5.29,0,0,1,360,90a5.56,5.56,0,0,1,3.11,2.53,3.37,3.37,0,0,1-.2,2.11c-.05.17-.11.33-.13.45s-.08.5-.12.81a8.24,8.24,0,0,1-.64,2.67c-.15.26-.59,1-2.91,2.75a37.68,37.68,0,0,1-3.77,2.23l-1.2.65-1.49.82c-1,.52-2.06,1.12-2.69,1.5-.14.09-.34.19-.55.3a7.31,7.31,0,0,0-.77.42,5.11,5.11,0,0,0,.46,1.06,4.08,4.08,0,0,0,.82,1.09h.53a3.94,3.94,0,0,1,.92.08,12.42,12.42,0,0,1,1.69.68c.41.19.83.38,1.09.47s.86.21,1.39.32a14.14,14.14,0,0,1,2.14.54,11,11,0,0,1,1.41.81l.33.2c.18.12.43.24.71.39a6.85,6.85,0,0,1,2.39,1.67h0a5.56,5.56,0,0,1,.65,2.49,9.73,9.73,0,0,1-.46,3.65,5.67,5.67,0,0,1-2.19,2.38,4.79,4.79,0,0,1-2.28.12,6.21,6.21,0,0,0-1,0,14.76,14.76,0,0,0-1.68.5,12.74,12.74,0,0,1-1.32.42,4.58,4.58,0,0,1-1,.1c-.18,0-.45,0-.67,0,0,.16.1.33.13.44s.11.33.14.45l.06.25a4.74,4.74,0,0,0,.21.77,8.12,8.12,0,0,0,2.05.79c.45.14.89.27,1.22.41l.35.14a9.69,9.69,0,0,1,1.29.59,6.93,6.93,0,0,1,1,.82c.19.17.37.34.51.45a3.34,3.34,0,0,0,.49.29,4.73,4.73,0,0,1,1.25.88,4.81,4.81,0,0,1,1.09,2.42,4.89,4.89,0,0,1-.87,2.28,6.58,6.58,0,0,1-1.18,1.51,9.56,9.56,0,0,1-3.13,1.51,6.7,6.7,0,0,1-1.75,0l-.53,0h-6.19a4.56,4.56,0,0,1-.64-.07l-.15,0a3,3,0,0,1,0,.73,5.43,5.43,0,0,1-.2.76,3.78,3.78,0,0,0-.16.65,3.16,3.16,0,0,0,.36,1.1l.36.14a3.39,3.39,0,0,1,.68.29,11,11,0,0,1,1.23,1c.26.22.51.44.7.57s.49.31.79.5a10,10,0,0,1,1.44,1,5.64,5.64,0,0,1,.7.8,5.49,5.49,0,0,0,.38.46,13.32,13.32,0,0,0,1.26,1,10.93,10.93,0,0,1,2.22,1.94,4.3,4.3,0,0,1,.51,1.22,4.2,4.2,0,0,0,.2.56,5.74,5.74,0,0,0,.42.51,4.57,4.57,0,0,1,.86,1.21,4.3,4.3,0,0,1,.2,2.48,4.92,4.92,0,0,1-2.25,2.28,7.55,7.55,0,0,1-3.31.13l-.77-.06c-.76,0-1.92-.15-3-.25-.91-.09-1.81-.18-2.42-.22-.79,0-2.83-.09-3.31-.09a6.74,6.74,0,0,1-.83-.09,9.1,9.1,0,0,0-2.58-.1,2.9,2.9,0,0,0-.52.84,5.43,5.43,0,0,0-.22,2.63,5.6,5.6,0,0,0,1.12.81l.41.27c2.31,1.58,7.13,4.89,9,7.22a8.24,8.24,0,0,1,1.32,2.67c0,.09.48,2.26-.25,3.31a3.61,3.61,0,0,1-2.63,1.18,6.11,6.11,0,0,1-2.61-1.1,6.49,6.49,0,0,0-.71-.41l-1.22-.6c-2.26-1.11-5.36-2.62-7.06-3.54a14.3,14.3,0,0,1-1.34-.9,8,8,0,0,0-2.3-1.33,5,5,0,0,0-1.2.53,3.27,3.27,0,0,0-1,.72,3.23,3.23,0,0,0,.11,1.36,6.72,6.72,0,0,0,1.34,1.15c.3.22.57.42.76.58.88.77,2.16,1.73,3.51,2.75,3.16,2.37,6.73,5.06,8.28,7.38.39.59,1.4,2.61,1.19,3.91a4.43,4.43,0,0,1-1.95,2.6,6.4,6.4,0,0,1-3.72.07,8.2,8.2,0,0,1-2.28-1.34,9.47,9.47,0,0,0-1.31-.86c-3.08-1.34-9.06-3.42-12-3.29a2.85,2.85,0,0,0-1.1.35,4.68,4.68,0,0,0-.48,2.12,5.81,5.81,0,0,0,.44.84,7,7,0,0,1,.44.86,25.58,25.58,0,0,1,1.37,4.65,8.48,8.48,0,0,1-.25,3.29,5.08,5.08,0,0,1-4.54,3.34,12.54,12.54,0,0,1-3.12,0,18.56,18.56,0,0,1-4.14-1.5,24.24,24.24,0,0,1-2.91-2.05c-.77-.6-1.56-1.21-2.1-1.54-.37-.22-1-.52-1.65-.8a18.59,18.59,0,0,1-2.34-1.2,9.58,9.58,0,0,1-1.25-1.14,10.56,10.56,0,0,0-1-.92,9.33,9.33,0,0,0-2.35-1.15,1.83,1.83,0,0,0-.4,0c0,.11,0,.22,0,.31a3.49,3.49,0,0,1,0,.92,39.15,39.15,0,0,1-1.16,3.87,42.73,42.73,0,0,1-1.83,4.73,34.18,34.18,0,0,1-2.25,3.42c-.08.1-.17.24-.27.39-.58.9-1.09,1.6-1.81,1.83-.92.3-2.09-.09-3.41-.6l-.42-.15a18.34,18.34,0,0,1-2.93-1.42,17.64,17.64,0,0,1-1.87-1.54c-.41-.36-.8-.71-1.1-.94l-.86-.7a13.1,13.1,0,0,0-3.11-2.13,7.23,7.23,0,0,0-2.79.37l-.77.42a26.56,26.56,0,0,0-3.12,1.83,9.42,9.42,0,0,0-1.06,1.24,12.26,12.26,0,0,1-1.15,1.35,32.51,32.51,0,0,1-4.19,3,25.25,25.25,0,0,1-4.05,2,31.06,31.06,0,0,1-4,.71l-1,.15A22.84,22.84,0,0,1,253.86,207.75Zm-14.55-9.53a4,4,0,0,1,.71.06c1.44.25,3.74,1.78,5.79,3.24l.4.28c.54.36,1.57,1,2.1,1.28,1.38.79,4.38,2.41,5,2.65a17.37,17.37,0,0,0,3.68-.31,11.44,11.44,0,0,1,1.3-.2,36.53,36.53,0,0,0,3.64-.63,24.79,24.79,0,0,0,3.63-1.78,32,32,0,0,0,3.87-2.78,12.26,12.26,0,0,0,.92-1.11,11.09,11.09,0,0,1,1.36-1.55,24.93,24.93,0,0,1,3.47-2.06l.69-.37a8.24,8.24,0,0,1,4.34-.58,13.54,13.54,0,0,1,3.84,2.52c.3.25.58.48.81.65s.76.64,1.21,1a19,19,0,0,0,1.63,1.35,16.05,16.05,0,0,0,2.51,1.21l.46.17a6.72,6.72,0,0,0,2.08.57,6.91,6.91,0,0,0,.76-1c.13-.2.24-.37.34-.5a31.39,31.39,0,0,0,2.07-3.14,38.49,38.49,0,0,0,1.72-4.46c.21-.6.9-2.65,1.09-3.61a3.43,3.43,0,0,0,0-.44,2.48,2.48,0,0,1,.48-2,2.75,2.75,0,0,1,2.29-.36,10.83,10.83,0,0,1,3.09,1.47,9.88,9.88,0,0,1,1.29,1.16,8.1,8.1,0,0,0,1,.9,16.33,16.33,0,0,0,2,1,17.82,17.82,0,0,1,1.85.91,27.47,27.47,0,0,1,2.3,1.67,22.68,22.68,0,0,0,2.62,1.86,16.76,16.76,0,0,0,3.55,1.3,10.91,10.91,0,0,0,2.49,0,5.66,5.66,0,0,0,1.56-.41,5.39,5.39,0,0,0,1.4-1.69,7.08,7.08,0,0,0,.12-2.33,22.2,22.2,0,0,0-1.25-4.15,4.27,4.27,0,0,0-.31-.58,4.58,4.58,0,0,1-.69-1.65,5.88,5.88,0,0,1,1-3.67,4.22,4.22,0,0,1,2.47-1c3.65-.16,10.57,2.44,12.91,3.46a10,10,0,0,1,1.69,1.07,7.79,7.79,0,0,0,1.65,1,5.08,5.08,0,0,0,2.28.06,2.85,2.85,0,0,0,.86-1.14,5.65,5.65,0,0,0-.87-2.47c-1.36-2-4.94-4.73-7.82-6.9-1.38-1-2.69-2-3.62-2.83-.16-.13-.38-.29-.63-.47a6.18,6.18,0,0,1-2-1.91,4.57,4.57,0,0,1-.11-3.1c.16-.34.51-.84,1.83-1.58a4,4,0,0,1,2.36-.78,7.67,7.67,0,0,1,3.28,1.7,12.37,12.37,0,0,0,1.14.76c1.66.9,4.73,2.4,7,3.5l1.24.61a9.64,9.64,0,0,1,.85.49,6.5,6.5,0,0,0,1.64.81h0a2.23,2.23,0,0,0,1-.36,5.73,5.73,0,0,0-.09-1.71,6.59,6.59,0,0,0-.93-1.83c-1.71-2.11-6.53-5.42-8.59-6.83l-.35-.22a4.72,4.72,0,0,1-1.88-1.7,7,7,0,0,1,.16-4.12,4.13,4.13,0,0,1,1.53-2,7.45,7.45,0,0,1,3.73-.08,4.83,4.83,0,0,0,.56.07c.43,0,2.55,0,3.43.1.63,0,1.55.12,2.5.21s2.21.22,2.92.25l.86.07a8.17,8.17,0,0,0,2.37,0,3.37,3.37,0,0,0,1.12-1.1,3.23,3.23,0,0,0-.17-1.07,4.37,4.37,0,0,0-.5-.62,5.35,5.35,0,0,1-.66-.86,5.12,5.12,0,0,1-.37-.94,4.45,4.45,0,0,0-.23-.66,10.23,10.23,0,0,0-1.78-1.49,13.86,13.86,0,0,1-1.48-1.19,6.84,6.84,0,0,1-.54-.64,6,6,0,0,0-.45-.53,10,10,0,0,0-1.15-.76c-.36-.22-.7-.42-.93-.59s-.52-.41-.83-.67a11.32,11.32,0,0,0-1-.79l-.3-.11a2.68,2.68,0,0,1-1.13-.62,4.75,4.75,0,0,1-.92-2.4,4.06,4.06,0,0,1,.25-1.34,2.19,2.19,0,0,0,.13-.46,1.68,1.68,0,0,0,0-.29,2.06,2.06,0,0,1,.42-1.79,2.35,2.35,0,0,1,2-.32,3.24,3.24,0,0,0,.35.05h6.19l.63,0a6.8,6.8,0,0,0,1.2,0,7.84,7.84,0,0,0,2.31-1.11,5.31,5.31,0,0,0,.71-.94,4.53,4.53,0,0,0,.61-1.29,3.67,3.67,0,0,0-.59-1.11,5.77,5.77,0,0,0-.72-.45,7.72,7.72,0,0,1-.73-.44c-.18-.14-.42-.36-.67-.59a6.8,6.8,0,0,0-.66-.58,7.68,7.68,0,0,0-1-.43l-.39-.16c-.26-.11-.63-.21-1-.34a7,7,0,0,1-3-1.39,3.46,3.46,0,0,1-.67-1.65l0-.2c0-.09-.06-.19-.1-.31a2.56,2.56,0,0,1,0-2.29,2.84,2.84,0,0,1,2.39-.81c.22,0,.52,0,.62,0,.3-.07.72-.22,1.15-.37a14.06,14.06,0,0,1,2-.59,6.65,6.65,0,0,1,1.46,0,5.2,5.2,0,0,0,1.28,0,4.32,4.32,0,0,0,1.18-1.37,8.68,8.68,0,0,0,.29-2.72,4.9,4.9,0,0,0-.29-1.45,7.64,7.64,0,0,0-1.68-1c-.33-.16-.62-.32-.84-.45l-.35-.22a8.42,8.42,0,0,0-1.09-.64,11.68,11.68,0,0,0-1.79-.44c-.61-.13-1.19-.24-1.61-.38a13.42,13.42,0,0,1-1.3-.55,11.7,11.7,0,0,0-1.36-.56,3.1,3.1,0,0,0-.46,0,3.14,3.14,0,0,1-1.46-.26,5.54,5.54,0,0,1-1.62-1.91c-.66-1.24-.84-2-.62-2.67a3.23,3.23,0,0,1,1.8-1.53l.4-.21c.67-.41,1.79-1,2.78-1.56.56-.3,1.09-.58,1.47-.8l1.22-.67A38.5,38.5,0,0,0,358,99.71a9,9,0,0,0,2.34-2.13,8.06,8.06,0,0,0,.41-2c0-.35.09-.68.14-.92A5.2,5.2,0,0,1,361,94a4.46,4.46,0,0,0,.22-.9,4.62,4.62,0,0,0-1.74-1.22,5.86,5.86,0,0,0-1.42.23l-.8.17-.78.1a11.67,11.67,0,0,0-1.94.32,7.71,7.71,0,0,0-1.25.76,7.29,7.29,0,0,1-2.13,1.14,8.21,8.21,0,0,1-2.69-.06c-.4,0-.76-.09-1-.1s-.43,0-.7.07a3.59,3.59,0,0,1-2.58-.26c-1-.74-1.07-2.84-1.07-2.86a7.76,7.76,0,0,1,.88-3,13.14,13.14,0,0,1,2.35-2.59,17.22,17.22,0,0,1,1.39-1.08c.44-.33.89-.66,1.15-.89.69-.62,2-2,2.53-2.63l.45-.49a8.74,8.74,0,0,0,1.42-1.8,5.41,5.41,0,0,0,0-1.74,5.59,5.59,0,0,0-.43-1.49,6.22,6.22,0,0,0-1,.07,5.83,5.83,0,0,1-1,.08c-.25,0-.6-.06-1-.11a6.65,6.65,0,0,0-1.38-.11,6.3,6.3,0,0,0-1,.63,7.72,7.72,0,0,1-.93.61,54.07,54.07,0,0,1-6,2.4l-.49.17a7,7,0,0,1-3.19.61,4.32,4.32,0,0,1-2.23-1.56,9.46,9.46,0,0,1-.92-3.89,11.15,11.15,0,0,1,.4-2.56,9.74,9.74,0,0,0,.35-2.18,5.51,5.51,0,0,0-.58-2.21,4.67,4.67,0,0,0-1.52-.53,4.58,4.58,0,0,0-1.62-.09,6.35,6.35,0,0,0-.87,1.28,7.68,7.68,0,0,1-.9,1.33,43.61,43.61,0,0,1-4.51,3.62l-.95.7c-.28.21-.61.48-1,.77a19.6,19.6,0,0,1-3.84,2.64,12.59,12.59,0,0,1-3.25.56,13.23,13.23,0,0,0-2.26.31,42.37,42.37,0,0,0-6,2.83,44.93,44.93,0,0,1-5.8,2.78,33.93,33.93,0,0,1-4.32.94c-1,.18-1.89.34-2.51.49s-1.22.35-2,.6a23.63,23.63,0,0,1-3.87,1,21.73,21.73,0,0,1-4.28-.25,20.44,20.44,0,0,0-4.2-.23A17.83,17.83,0,0,0,276.12,88a18.63,18.63,0,0,0-1.95,1.43l-.44.36c-1,.77-2.92,2.37-4,3.23l-.14.12-1.11.94c-.68.58-1.43,1.22-1.91,1.6l-.26.21A32.18,32.18,0,0,1,263.5,98a13.44,13.44,0,0,1-1.49.69l-.65.29c-.33.16-.78.38-1.26.63-.85.43-1.81.92-2.45,1.17-1.08.43-2.86,1-4.43,1.45-.91.27-1.76.52-2.37.73a11,11,0,0,1-1.19.29,5.87,5.87,0,0,0-2.06.66,7.33,7.33,0,0,0,.12,2.44l.05.39a15.87,15.87,0,0,0,1,3.61,20.3,20.3,0,0,0,2.91,3.5,24.52,24.52,0,0,0,2.57,2c.5.33,1.64,1,2.22,1.24a23.17,23.17,0,0,0,3.7,1.51,14.05,14.05,0,0,0,3.49,0,23.56,23.56,0,0,0,3.62-1.16,36.49,36.49,0,0,0,3.43-1.71c.19-.12.44-.31.7-.51a8,8,0,0,1,1.24-.84,9.47,9.47,0,0,1,4-.85,10.48,10.48,0,0,1,4.07,1.59,16,16,0,0,1,3.85,3.9,10.84,10.84,0,0,1,1,5.76c0,.07-1.69,7.22-2.8,11.14a6,6,0,0,1-.26.91c-.39,1.31-.64,2.15-1.27,2.34a9,9,0,0,1-2,1.62,7.49,7.49,0,0,1-1.92.57l-.39.09-.62.18a5.18,5.18,0,0,1-2.69.37,5.45,5.45,0,0,1-2.29-1.87c-.16-.18-.29-.34-.41-.45a11.49,11.49,0,0,1-.82-1,5.67,5.67,0,0,0-1.13-1.33,2.67,2.67,0,0,0-.74-.15,10,10,0,0,0,.67,1.42,5.23,5.23,0,0,1,.92,2.75,3.48,3.48,0,0,1-.71,1.49,4.43,4.43,0,0,0-.29.46,10.14,10.14,0,0,0-.68,2.62,5.37,5.37,0,0,0,.53,2.2,5.76,5.76,0,0,0,2,1,6.93,6.93,0,0,0,2.57.71,9.19,9.19,0,0,0,2.35-1.16c.4-.24.77-.46,1.06-.61l.63-.32c1.11-.57,2.78-1.42,3.63-1.91.37-.21.88-.55,1.41-.9a23.48,23.48,0,0,1,2.2-1.37,35.64,35.64,0,0,1,4.09-1.56,36.65,36.65,0,0,1,3.88-1c.7-.12,1.75-.19,2.77-.26l1.6-.12c1.21-.13,4.19-.47,5.64-.74a21.57,21.57,0,0,0,2.91-.7c1.38-.53,3.54-2.28,5.63-4a46.39,46.39,0,0,1,6.07-4.42c2.52-1.39,4.39-1.36,5.55.07a1.39,1.39,0,0,1,.3,1c-.09.84-.86,1.5-1.93,2.35-.21.17-.4.31-.51.42a46.22,46.22,0,0,1-4,3.1l-1,.73-.75.57a20.48,20.48,0,0,1-2.77,2,43,43,0,0,1-7.33,2.32c-.81.21-2.25.46-3.3.64l-.7.12c-.83.15-1.94.3-3.12.45a37.76,37.76,0,0,0-6.64,1.2,22.1,22.1,0,0,0-5.26,3.08,12.26,12.26,0,0,0-1.21,1.58,15.59,15.59,0,0,1-.95,1.29,34.58,34.58,0,0,1-3.43,3.26c-.33.22-1.82,1.43-2.72,2.19-.2.16-.43.39-.69.64a8.44,8.44,0,0,1-2.25,1.77,5.45,5.45,0,0,1-1.94.19c-.28,0-.53,0-.72,0s-.65.13-1.08.23a7.28,7.28,0,0,1-2.72.32,6.22,6.22,0,0,1-2.16-1.12,8.26,8.26,0,0,0-1-.63,26.14,26.14,0,0,0-2.93-.84,27.62,27.62,0,0,1-2.95-.83,17.06,17.06,0,0,1-2.71-1.59c-1.3-.88-3.1-2.07-4-2a3.13,3.13,0,0,0-1.2.93,5.93,5.93,0,0,0-.19,1.67,5.31,5.31,0,0,1-.52,2.71,4.39,4.39,0,0,1-2.77,1.72,4.31,4.31,0,0,1-2.36-1.08,7,7,0,0,0-.66-.43c-.45-.23-1.13-.52-1.85-.83a29.26,29.26,0,0,1-2.83-1.31,20.6,20.6,0,0,1-2.12-1.54,17.83,17.83,0,0,0-2.32-1.66,9.44,9.44,0,0,0-2.44-.74,6.17,6.17,0,0,0-2.25.29,1.14,1.14,0,0,0-.2.19,8.08,8.08,0,0,0,1.35,2.35l.16.24a17.51,17.51,0,0,0,2,2.08,15.29,15.29,0,0,1,2.79,3.06c.45.79,2,4.11,1.17,5.94-.47,1.12-2.39,1.67-2.47,1.69a7,7,0,0,1-2.89,0,8.07,8.07,0,0,1-2-.91c-.29-.17-.56-.32-.76-.42-1.06-.49-2.62-1.13-4.26-1.8-2.08-.86-4.24-1.75-5.6-2.42l-.81-.42a12,12,0,0,0-3.05-1.31,4.12,4.12,0,0,0-1.31.14,9.78,9.78,0,0,0,.77,2.41,6.48,6.48,0,0,1,.65,2.12c.18.23.93,1,3.8,2.72l1.88,1c4.83,2.62,6.42,3.54,6.81,3.93a4.42,4.42,0,0,1,1.27,3.08,5.13,5.13,0,0,1-1.75,3.12c-1.53.93-4.8.12-4.84.11a4.78,4.78,0,0,1-1.52-.88,4.33,4.33,0,0,0-1-.64,3.63,3.63,0,0,0-1.6,1.48c0,.18.58,1.16,5.94,2.9a8.46,8.46,0,0,1,1,.34c.56.28,3.38,1.75,4,3.18a5.37,5.37,0,0,1-.38,4,5,5,0,0,1-3.59,1.85c-1.36-.12-2.65-1.41-3.91-2.66a11.94,11.94,0,0,0-1.58-1.42l-.78-.52c-.57-.39-2.3-1.6-2.82-1.47a3.14,3.14,0,0,0-.93,1.39c-.1.93,1.15,3.41,2.16,4.57a11.22,11.22,0,0,0,2.8,1.78,13.64,13.64,0,0,1,2.89,1.81,9.93,9.93,0,0,1,1.6,2.43c.5.92,1.24,2.31,1.77,2.51h0a7.53,7.53,0,0,0,1.06-.32,7.7,7.7,0,0,1,1-.3c.34-.05.83-.08,1.34-.12a12.13,12.13,0,0,0,1.51-.15,4.19,4.19,0,0,0,.63-.21c.28-.1.55-.2.74-.25s.5-.13.8-.21A19.94,19.94,0,0,1,239.31,198.22Zm-8.82-44.91Zm89.85-21.51a5.05,5.05,0,0,0-2.23.77,44.54,44.54,0,0,0-5.77,4.23,39.62,39.62,0,0,1-5.33,3.89,26.53,26.53,0,0,0,4.16-1.44,19.38,19.38,0,0,0,2.44-1.74l.79-.61,1-.74a47.23,47.23,0,0,0,3.76-2.92c.16-.15.39-.34.66-.55a11.85,11.85,0,0,0,1-.82A1.32,1.32,0,0,0,320.34,131.8Zm32-7.53Z"
        transform="translate(-68.17 -49.36)"/>
    <path
        d="M290.12,98a12.24,12.24,0,0,0-7.69-2.29,2.71,2.71,0,0,0-2.73,2.39c-.38,2.28,1.71,6.08,3.85,7a6.89,6.89,0,0,0,.95.27c2.39.07,5.9-2.58,6.43-4.69A2.27,2.27,0,0,0,290.12,98Z"
        transform="translate(-68.17 -49.36)"/>
    <path
        d="M328.32,89.24A5.49,5.49,0,0,0,324,86.85c-1.67-.21-2.23,1.21-2.87,2.42a1.71,1.71,0,0,1-2.28.86,5.59,5.59,0,0,1-2.43-1,4.54,4.54,0,0,0-3.63-1.28,6.38,6.38,0,0,0-4,1,2.29,2.29,0,0,0-1,2.61c.22,1,1.05.84,1.75.89,2.22.16,4,1,4.91,3.18a4.91,4.91,0,0,0,.77,1.11,2.9,2.9,0,0,0,4.82,0,13.19,13.19,0,0,0,1.35-2.34c1-2,1.62-2.31,3.84-1.87,2.39.48,3,1.24,3.22,3.28a5,5,0,0,1-2.52,5,24,24,0,0,0-5.65,5.78c-.4.53-.81,1.09-.35,1.69a1.4,1.4,0,0,0,1.76.29c1.87-1,4-1.48,5.69-3,1.83-1.68,3-3.84,4.37-5.82a4,4,0,0,0,0-4.62C330.45,93.18,329.44,91.18,328.32,89.24Z"
        transform="translate(-68.17 -49.36)"/>
    <path class="cls-3"
          d="M188.7,211.84a18.62,18.62,0,0,1-6.06-2.11c-2.18-1.28-5.57-5.14-7.51-6.76s-5.34-4.92-7.53-5.9a18.94,18.94,0,0,0-5.8-1c-1.54,0-4.74.27-6.06,1a2.73,2.73,0,0,0-1.06,1.32c-.2,1.19.83,3.63,1.58,4.58.59.73,2.56,1.3,3.17,2,.85,1,1.55,3.58,2.11,4.75.25.53,1.36,1.61,1.05,2.11s-2.2.21-2.9,0c-1.14-.34-2.94-2-3.95-2.64s-3.33-1.9-4.49-2.45a26.41,26.41,0,0,0-4.48-1.77c-1.36-.25-4.24-.49-5.54,0-1,.37-2.16,2.4-3.14,2.77s-3.21-.78-3.72,0c-.6.95,1.12,3.24,1.85,4.09,1.25,1.46,4.68,3.43,6.44,4.22,2.59,1.17,9.18.82,11,3,.69.85.93,3.51.26,4.38s-3.15,1.22-4.22,1.56a55.54,55.54,0,0,1-7,1.82c-.88.11-2.8-.49-3.54,0-1,.64-1.85,4.31-2.11,4.14s-1.1,2.91-.53,3.62c1.14,1.39,5.33.86,7.12,1s6.07,0,7.13,0,6.24-3,8.43-2.65a3.69,3.69,0,0,1,2.38,1.67c.27,1-1.13,3.1-1.85,3.91-1,1.09-3.7,2.43-5,3.09s-4.13,1.3-5.27,2.14c-.89.65-2.38,2.9-2.38,3.7s4.92,1.25,6.6,1.31c3,.12,8.94.72,11.81,0,2.19-.54,5.95-3.21,8-4.22,1.56-.77,4.75-2.19,6.33-2.93,1.78-.83,5.45-2.32,7.12-3.37,1.22-.76,3.12-3.15,4.48-3.63,1.75-.62,5.6-.34,7.43,0a11.42,11.42,0,0,1,2.59,1c1.06.59,2.78,2.36,3.85,2.93a10,10,0,0,0,3.8,1.28,6.07,6.07,0,0,0,2.68-1.28c.83-.77,2.22-2.78,2.27-3.91.06-1.33-3-3.69-2.27-4.83s4.36-.52,5.79-.27c2.23.39,6.35,2.41,8.36,3.43,1,.5,3.08,2.71,3.93,2,1.32-1.1-3.22-5.37-2-6.57.75-.73,3,.84,4,1.32,4.5,2.33,16.32,12,16.32,12s3.2-1.88,3.58-3c.6-1.68-.89-5.26-1.39-7-.42-1.43-3.37-4.65-2.19-5.57,1.61-1.23,4.6,4.23,6.54,4.8.83.25,2.59-.26,3.45-.2a13,13,0,0,1,4.14.77c1.14.63,2.47,3.1,3.58,3.78,1.28.8,4.8,2.95,5.77,1.8,1.47-1.76-2.89-6.27-4.18-8.16-.92-1.34-3.52-3.44-4.31-4.86-.37-.66-1.37-2.34-.86-2.9,1.1-1.2,4.86.66,6.35,1.3a35.8,35.8,0,0,1,3,2.09c.91.55,2.86,1.45,3.78,2S278,229,279.11,229c1.92-.07,5-3.07,6.19-4.59,1.8-2.29,3.74-7.93,4.55-10.73s3.18-8.51,1.85-10.95c-.59-1.08-3.5-1.27-4.53-2-1.45-.95-3.47-4-5-4.74a10.15,10.15,0,0,0-4.54-.58c-1.45.26-4,1.87-5.24,2.7-1.72,1.18-4.52,4.39-6.27,5.53a27.23,27.23,0,0,1-6.75,3.08,18.42,18.42,0,0,1-6.37-.09c-2-.53-5.43-3.12-7.31-4s-5.78-3-7.91-3.25c-2.68-.24-8,1.3-10.55,2.22-1.29.46-3.58,2-4.84,2.58a80.93,80.93,0,0,1-10.67,3.56c-3,.67-9.16.86-12.17,1.45-1.74.35-5.13,1.44-6.86,1.85A18.17,18.17,0,0,1,188.7,211.84Z"
          transform="translate(-68.17 -49.36)"/>
    <path
        d="M161.37,250.11c-1.9,0-3.93-.13-5.63-.23l-2.15-.12c-7.56-.3-7.56-1.76-7.56-2.31,0-1.24,1.76-3.75,2.78-4.5a13.79,13.79,0,0,1,3.43-1.48,18,18,0,0,0,2-.75l.25-.13a20.38,20.38,0,0,0,4.47-2.74,6.29,6.29,0,0,0,1.62-3,3.41,3.41,0,0,0-1.54-.93c-1.1-.16-3.68.95-5.39,1.67a9.75,9.75,0,0,1-2.9,1h-.55c-1.65,0-5.07.09-6.66,0-.4,0-1,0-1.61,0-2.37,0-5.06.09-6.21-1.34-1-1.17-.05-4.29.46-4.87l.22-.25c.08-.2.18-.46.26-.68.6-1.62,1.13-2.9,1.92-3.43a4.35,4.35,0,0,1,2.87-.24,7.34,7.34,0,0,0,1.09.09,50.15,50.15,0,0,0,6.84-1.79c.29-.09.68-.18,1.1-.28a7.58,7.58,0,0,0,2.63-.93,4.4,4.4,0,0,0-.25-3.14c-.84-1-3.69-1.43-6-1.75a18.65,18.65,0,0,1-4.64-1c-1.51-.68-5.31-2.76-6.78-4.48-1.14-1.33-2.89-3.78-1.93-5.28.66-1,2-.75,3.08-.55a5.16,5.16,0,0,0,1.15.15,6,6,0,0,0,1.16-1.11,5.69,5.69,0,0,1,2-1.65c1.6-.61,4.78-.29,6.08-.05a24.79,24.79,0,0,1,4.72,1.85c1.22.57,3.49,1.84,4.57,2.5a14.64,14.64,0,0,1,1.42,1,10.6,10.6,0,0,0,2.31,1.51,7.75,7.75,0,0,0,1.32.27l-.14-.19a5.51,5.51,0,0,1-.53-.8c-.2-.43-.41-1-.64-1.62a12,12,0,0,0-1.32-2.9,5.82,5.82,0,0,0-1.24-.74,5.65,5.65,0,0,1-2-1.31c-.76-1-2.07-3.72-1.78-5.37a3.59,3.59,0,0,1,1.53-2c1.68-1,5.29-1.22,6.58-1.19a19.8,19.8,0,0,1,6.2,1.14c1.84.82,4.34,3,6.35,4.8.53.48,1,.9,1.42,1.24.74.62,1.66,1.53,2.63,2.5a32.41,32.41,0,0,0,4.74,4.17,17.66,17.66,0,0,0,5.62,2,13.34,13.34,0,0,0,2.8-.54c.32-.09.62-.17.86-.22.73-.17,1.78-.48,2.88-.79,1.47-.43,3-.86,4-1.07,1.48-.29,3.6-.48,5.85-.68a57.41,57.41,0,0,0,6.29-.76A79.22,79.22,0,0,0,222,203.27c.51-.22,1.29-.67,2-1.11a19.86,19.86,0,0,1,2.85-1.49c2-.73,7.87-2.56,11-2.27,1.93.17,4.89,1.66,7,2.74l1.2.59c.77.37,1.74,1,2.77,1.62a20.81,20.81,0,0,0,4.36,2.35,17.45,17.45,0,0,0,5.91.07,19.24,19.24,0,0,0,9.52-5.68,28,28,0,0,1,3.15-2.78c.86-.59,3.82-2.54,5.63-2.86a11.3,11.3,0,0,1,5.14.66,12.25,12.25,0,0,1,3.14,2.84,14.58,14.58,0,0,0,2,2,7.82,7.82,0,0,0,1.57.53c1.35.36,2.74.74,3.3,1.77,1.3,2.38-.16,6.81-1.23,10-.21.63-.4,1.2-.54,1.67-.24.83-2.42,8.14-4.73,11.07-1,1.26-4.39,4.87-6.93,5-1.09,0-2.23-.87-3.3-1.74a8.47,8.47,0,0,0-1-.78c-.41-.24-1-.55-1.67-.87-.79-.4-1.6-.8-2.13-1.12a15.22,15.22,0,0,1-1.24-.91,12.39,12.39,0,0,0-1.63-1.12l-.52-.23c-3.12-1.38-4.19-1.47-4.56-1.38a7.41,7.41,0,0,0,.77,1.65l.08.15a15.55,15.55,0,0,0,2.2,2.5,19,19,0,0,1,2.07,2.28c.25.38.65.88,1.11,1.46,2.09,2.63,4.69,5.9,3,7.91-1.36,1.63-4.33.11-7.06-1.59a8.9,8.9,0,0,1-2-2.06,8.26,8.26,0,0,0-1.56-1.69,11.82,11.82,0,0,0-3.72-.65,7.76,7.76,0,0,0-1.19.11,6.14,6.14,0,0,1-2.48,0c-1.08-.32-2.15-1.49-3.28-2.73a13.49,13.49,0,0,0-2.2-2.12,12.48,12.48,0,0,0,1.2,2.18,10,10,0,0,1,1.17,2.2c.1.33.23.72.38,1.16.87,2.6,1.54,4.88,1,6.42-.46,1.3-3,2.89-4,3.51l-.6.36-.54-.45c-.12-.09-11.79-9.64-16.15-11.89l-.64-.36a11.5,11.5,0,0,0-2-1,12.62,12.62,0,0,0,1,1.93c1,1.61,2.07,3.44.75,4.54s-2.77-.2-4-1.17a9.15,9.15,0,0,0-1-.71c-3.89-2-6.6-3.08-8.08-3.33l-.28-.05c-3.24-.58-4.16-.37-4.43-.2a7.84,7.84,0,0,0,1,1.53,5.09,5.09,0,0,1,1.38,2.87c-.07,1.54-1.7,3.78-2.59,4.6a6.94,6.94,0,0,1-3.3,1.55c-1.44.07-3.86-1.15-4.33-1.4a14.57,14.57,0,0,1-2.15-1.61,14.31,14.31,0,0,0-1.71-1.32,10.78,10.78,0,0,0-2.29-.88c-1.93-.35-5.5-.54-6.92,0a10.46,10.46,0,0,0-2.36,1.89,13.2,13.2,0,0,1-1.92,1.65,48.15,48.15,0,0,1-5.35,2.59c-.72.31-1.37.6-1.88.84l-2.18,1c-1.47.67-3.14,1.43-4.13,1.92-.66.33-1.56.87-2.51,1.44a25.2,25.2,0,0,1-5.66,2.85A19.2,19.2,0,0,1,161.37,250.11Zm-13.19-3.06a30,30,0,0,0,5.49.72c.61,0,1.36.06,2.19.11,3,.19,7.21.44,9.34-.09a25.36,25.36,0,0,0,5.11-2.62c1-.6,1.92-1.16,2.65-1.52,1-.51,2.7-1.27,4.19-2l2.16-1,1.93-.86a49,49,0,0,0,5.08-2.45,13.19,13.19,0,0,0,1.61-1.4,10.22,10.22,0,0,1,3.08-2.33c2.08-.74,6.33-.34,7.94,0a12.13,12.13,0,0,1,2.9,1.09,14.7,14.7,0,0,1,2,1.54,12.63,12.63,0,0,0,1.8,1.37A9.41,9.41,0,0,0,209,238.8a5.36,5.36,0,0,0,2.06-1,7.47,7.47,0,0,0,2-3.21,6.05,6.05,0,0,0-1-1.59c-.88-1.18-1.87-2.52-1.14-3.72,1-1.62,3.89-1.25,6.54-.78l.27.05c1.69.29,4.52,1.44,8.64,3.52a8.37,8.37,0,0,1,1.31.9c.31.24.84.65,1.26.91a15.86,15.86,0,0,0-.92-1.66c-1-1.66-2-3.39-.86-4.53s3.13,0,4.56.82l.57.32c4,2.09,13.53,9.71,15.94,11.68a9.31,9.31,0,0,0,2.56-2.1c.36-1-.5-3.58-1-5.11-.16-.47-.3-.89-.4-1.23a10,10,0,0,0-.94-1.7c-1.07-1.69-2.4-3.79-.9-4.95,1.67-1.28,3.48.72,5.08,2.47A9.43,9.43,0,0,0,254.9,230a6.27,6.27,0,0,0,1.63-.12,8.58,8.58,0,0,1,1.6-.13,13.54,13.54,0,0,1,4.55.9,8.48,8.48,0,0,1,2.18,2.21,8.54,8.54,0,0,0,1.45,1.6c3.59,2.23,4.44,2,4.52,1.95.59-.71-2.18-4.19-3.08-5.34-.49-.61-.91-1.13-1.2-1.57a19.57,19.57,0,0,0-1.83-2,16.1,16.1,0,0,1-2.54-2.94l-.08-.14c-.64-1.14-1.6-2.86-.64-3.92,1.36-1.48,4.2-.39,7,.84l.5.22A11.21,11.21,0,0,1,271,223a12.41,12.41,0,0,0,1.06.78c.46.27,1.24.67,2,1s1.33.67,1.77.93a9.92,9.92,0,0,1,1.29,1c.51.42,1.57,1.29,1.95,1.29h0c1.34,0,4.12-2.52,5.44-4.21,1.69-2.14,3.61-7.73,4.38-10.39.15-.49.34-1.08.56-1.74.84-2.55,2.26-6.83,1.38-8.45a6.05,6.05,0,0,0-2.08-.8,8.19,8.19,0,0,1-2.13-.79,14.18,14.18,0,0,1-2.39-2.32,11.69,11.69,0,0,0-2.52-2.36,9.43,9.43,0,0,0-3.93-.5,17.81,17.81,0,0,0-4.85,2.54,28.77,28.77,0,0,0-2.89,2.57,27.67,27.67,0,0,1-3.41,3,28.17,28.17,0,0,1-7.09,3.22,19.64,19.64,0,0,1-6.83-.1,21.58,21.58,0,0,1-4.92-2.58c-1-.61-1.89-1.19-2.56-1.51l-1.24-.61c-1.9-1-4.78-2.4-6.33-2.54-2.31-.21-7.3,1.13-10.12,2.16a19.26,19.26,0,0,0-2.52,1.33,22.65,22.65,0,0,1-2.27,1.23,82.54,82.54,0,0,1-10.84,3.62,56.83,56.83,0,0,1-6.56.8c-2.09.19-4.26.38-5.63.65-.95.19-2.42.62-3.85,1-1.14.32-2.2.63-3,.81l-.81.21a12.69,12.69,0,0,1-3.45.61,19.49,19.49,0,0,1-6.5-2.25,33,33,0,0,1-5.12-4.47c-.95-.94-1.84-1.82-2.52-2.39-.41-.34-.91-.78-1.46-1.27-1.8-1.59-4.28-3.78-5.84-4.48a17.93,17.93,0,0,0-5.39-1c-1.69,0-4.53.31-5.55.91a2.3,2.3,0,0,0-.6.68,7.61,7.61,0,0,0,1.4,3.74,5.93,5.93,0,0,0,1.28.77,5.87,5.87,0,0,1,1.86,1.21,12.68,12.68,0,0,1,1.68,3.52c.21.57.41,1.1.57,1.45,0,.09.21.31.32.47.53.71,1.25,1.68.68,2.6-.75,1.21-2.85.79-4,.43a11.07,11.07,0,0,1-2.94-1.84c-.48-.36-.92-.71-1.24-.9-1-.62-3.25-1.87-4.39-2.4a25.26,25.26,0,0,0-4.25-1.69,13.17,13.17,0,0,0-5-.05A5.84,5.84,0,0,0,140.4,207a5.66,5.66,0,0,1-2,1.65,4.32,4.32,0,0,1-2.22-.06,8.17,8.17,0,0,0-1-.16,9.8,9.8,0,0,0,1.74,2.72c1.08,1.27,4.29,3.14,6.09,4a18.15,18.15,0,0,0,4.08.84c2.91.4,5.92.82,7.25,2.47,1,1.18,1.27,4.35.28,5.63-.73.94-2.33,1.31-3.75,1.65-.37.08-.71.16-1,.24a52.86,52.86,0,0,1-7.19,1.86,6.82,6.82,0,0,1-1.59-.08,4.88,4.88,0,0,0-1.54-.06,10.78,10.78,0,0,0-1.13,2.44c-.35,1-.52,1.42-.88,1.67a5.87,5.87,0,0,0-.34,2.22c.64.62,3.2.58,4.59.55.69,0,1.3,0,1.78,0,1.51.1,5,0,6.48,0h.56a19.5,19.5,0,0,0,2.15-.84c2.71-1.15,4.92-2,6.44-1.81.91.12,2.88,1.16,3.21,2.4.5,1.92-2,4.8-2.07,4.83a19.75,19.75,0,0,1-5.06,3.2l-.25.13a19.38,19.38,0,0,1-2.25.85,13.13,13.13,0,0,0-2.88,1.2A8.58,8.58,0,0,0,148.18,247.05Zm-10.86-13Zm.07-4,.15.07Z"
        transform="translate(-68.17 -49.36)"/>
    <path class="cls-3"
          d="M165.49,171.75c-.19-1.83.43-5.58,0-7.38a18,18,0,0,0-2.37-4.75c-.87-1.21-3.2-3.13-4.22-4.22s-2.8-3.14-3.69-4.22a63.57,63.57,0,0,1-4-5c-.89-1.43-2.74-4.39-2.9-6.07s1.85-4.52,1.58-6.06c-.22-1.26-3.26-3-2.9-4.22s3.66-2,5-2.11c1.84-.13,5.7.69,7.12,1.85,2,1.57,3.44,6.69,4.49,9,.78,1.69,1.72,5.42,2.9,6.86s4.59,3.53,6.33,4.35c2.48,1.17,7.88,2.38,10.55,3,4.44,1.1,13.4,3.09,17.93,3.7,2,.27,6.16.15,8.18.52a26.21,26.21,0,0,1,5.05,1.59c.79.39,3,1.19,2.89,2.08s-3.07.51-3.47,1.35.76,3.19,1.34,4.1a16.49,16.49,0,0,0,2.71,2.49,45.66,45.66,0,0,0,4.3,3.16c1.37.81,4.66,1.51,5.78,2.64a3.46,3.46,0,0,1,1,2.25c-.25,1-2.23,2.51-3.28,2.68-1.28.21-3.6-2.12-4.87-1.84-.87.19-2.6,1.64-2.53,2.53.1,1.2,2.85,2.27,3.92,2.83.83.44,2.71.8,3.53,1.24,1,.53,3.07,1.67,3.51,2.67a4.43,4.43,0,0,1-.28,3.1,4.11,4.11,0,0,1-2.67,1.4c-1.59-.14-3.7-3.09-5.06-3.93-1-.64-3.18-2.4-4.35-2.11-.69.16-1,2-1.69,2.25-.93.28-2.95-2-3.66-1.3-1,.91,1,3.88,1.48,5.09s2.55,2.93,2.43,4.13c-.08.91-1.84,2-2.43,2.75-.38.45-1.48,1.84-1.48,1.84s-3.56-.86-4.53-1.58c-1.8-1.34-3.81-5.57-5.27-7.29-.67-.79-1.95-2.53-2.9-2.93a3.28,3.28,0,0,0-2.37,0c-.61.46-.65,2.19-.8,2.93a35.48,35.48,0,0,1-.52,4.28,24.21,24.21,0,0,1-2.38,3.54l-4.7,1.05s-1.18-3.46-1.63-4.59c-.72-1.83-2.68-5.3-3.16-7.21-.2-.81.06-2.55-.27-3.32-.42-1-1.81-3.31-2.9-3.25-1.38.09-2.08,3.68-3.16,4.56s-3.47,2.2-4.75,2-3.27-2.22-3.95-3.32-.81-3.29-1.06-4.39C166.85,178.29,165.73,174,165.49,171.75Z"
          transform="translate(-68.17 -49.36)"/>
    <path
        d="M187.56,201.15l-.29-.86s-1.17-3.45-1.61-4.55c-.26-.65-.7-1.57-1.17-2.54a28.85,28.85,0,0,1-2-4.79,7.38,7.38,0,0,1-.12-1.7,4.19,4.19,0,0,0-2.06-4.11,8.69,8.69,0,0,0-1.05,1.93,6.59,6.59,0,0,1-1.5,2.4c-1,.81-3.77,2.49-5.53,2.23s-4-2.78-4.65-3.78a10.8,10.8,0,0,1-1-3.59c-.07-.43-.14-.82-.2-1.11l-.43-1.81a66.55,66.55,0,0,1-1.44-7h0a23.1,23.1,0,0,1,.05-3.28,17.78,17.78,0,0,0,0-4,17.23,17.23,0,0,0-2.21-4.39,23.1,23.1,0,0,0-2.54-2.58c-.61-.57-1.19-1.11-1.6-1.55-.94-1-2.78-3.11-3.73-4.26l-.53-.64a49.46,49.46,0,0,1-3.51-4.48c-1.49-2.4-2.88-4.83-3-6.5a8,8,0,0,1,.85-3.39,7.23,7.23,0,0,0,.74-2.6,6.15,6.15,0,0,0-1.15-1.35c-1-1-2.09-2.07-1.73-3.32.7-2.39,5.85-2.82,5.9-2.83,1.94-.14,6.09.67,7.82,2.07s2.88,4.53,3.87,7.1c.32.85.63,1.65.9,2.22s.59,1.49.9,2.4a18.31,18.31,0,0,0,1.86,4.25,22.78,22.78,0,0,0,6,4.08,59.94,59.94,0,0,0,9.08,2.65l1.28.31c4.59,1.14,13.44,3.08,17.83,3.68.86.11,2.16.15,3.53.2a35.17,35.17,0,0,1,4.69.33,26.84,26.84,0,0,1,5.31,1.67c.13.07.3.14.49.22,1.32.6,3.14,1.42,2.95,2.88-.15,1.23-1.54,1.44-2.56,1.58-.3.05-.76.12-1,.19a7.89,7.89,0,0,0,1.29,3,13.18,13.18,0,0,0,2.08,1.92l.43.34a43,43,0,0,0,4.16,3.08,14.77,14.77,0,0,0,2.11.86,10.91,10.91,0,0,1,3.88,1.94c.43.43,1.53,2,1.25,3.18-.37,1.53-2.81,3.22-4.1,3.43a5,5,0,0,1-3.06-1,5.78,5.78,0,0,0-1.76-.8,3.56,3.56,0,0,0-1.74,1.53c.16.42,2.05,1.32,2.67,1.62l.71.35a10.7,10.7,0,0,0,1.56.53,12,12,0,0,1,2,.71c1.75.94,3.44,2,4,3.15a5.29,5.29,0,0,1-.37,4.05,5,5,0,0,1-3.59,1.85c-1.36-.12-2.65-1.41-3.91-2.66a11.94,11.94,0,0,0-1.58-1.42l-.78-.52a10,10,0,0,0-2.69-1.48c-.1.15-.23.43-.32.61-.32.66-.69,1.41-1.44,1.63a3.35,3.35,0,0,1-2.6-.81c-.18-.12-.42-.27-.63-.38a18.65,18.65,0,0,0,1.17,2.6c.21.4.39.76.51,1a8.23,8.23,0,0,0,.89,1.26c.85,1.09,1.73,2.21,1.62,3.35s-1.08,1.87-1.94,2.62a8.57,8.57,0,0,0-.72.68c-.38.45-1.46,1.82-1.46,1.82l-.4.51-.62-.16c-.63-.15-3.82-.95-4.89-1.75-1.26-.93-2.46-2.87-3.63-4.75a27.94,27.94,0,0,0-1.81-2.69l-.42-.51a9.6,9.6,0,0,0-2.11-2.15,3.06,3.06,0,0,0-1.37-.11,6.8,6.8,0,0,0-.32,1.58c0,.28-.07.54-.1.73a12.5,12.5,0,0,0-.15,1.54,11.76,11.76,0,0,1-.43,2.9,22.21,22.21,0,0,1-2.52,3.81l-.22.28ZM197.62,187a5.07,5.07,0,0,1,1.75.3,9,9,0,0,1,2.89,2.73l.39.47a27.36,27.36,0,0,1,2,2.94,18.39,18.39,0,0,0,3.12,4.2,16.29,16.29,0,0,0,3.55,1.25c.36-.45.86-1.08,1.1-1.36a9.17,9.17,0,0,1,.94-.89,6.08,6.08,0,0,0,1.26-1.33c0-.34-.81-1.4-1.21-1.91a8.79,8.79,0,0,1-1.15-1.7c-.1-.24-.26-.56-.45-.91-.94-1.81-2.1-4.07-.8-5.31.94-.88,2.14-.13,3.1.47a8.44,8.44,0,0,0,.91.52c.09-.15.2-.37.27-.52.34-.69.72-1.47,1.52-1.66,1.37-.34,3.07.83,4.42,1.76l.7.47a12.71,12.71,0,0,1,1.94,1.7c.81.81,2,2,2.68,2.09a3.47,3.47,0,0,0,1.75-1,3.79,3.79,0,0,0,.2-2.13c-.14-.32-.79-1-3.07-2.2a12.25,12.25,0,0,0-1.61-.55,12,12,0,0,1-1.92-.68l-.64-.32c-1.64-.78-3.68-1.75-3.8-3.32s2.11-3.33,3.31-3.59c1-.22,2.12.42,3.18,1a6.2,6.2,0,0,0,1.74.8,4.66,4.66,0,0,0,2.47-1.93,3.53,3.53,0,0,0-.72-1.31,10.56,10.56,0,0,0-3.13-1.45,16.51,16.51,0,0,1-2.45-1,47,47,0,0,1-4.42-3.26L217,169a12.43,12.43,0,0,1-2.51-2.39c-.66-1-2.11-3.57-1.4-5.07.42-.89,1.49-1,2.51-1.2l.32,0a13.68,13.68,0,0,0-1.24-.61l-.56-.26a24.72,24.72,0,0,0-4.78-1.49,35.27,35.27,0,0,0-4.39-.3c-1.43,0-2.78-.09-3.74-.22-4.46-.6-13.4-2.57-18-3.71l-1.27-.31a62.54,62.54,0,0,1-9.47-2.79c-1.48-.7-5.21-2.84-6.68-4.63a17.81,17.81,0,0,1-2.19-4.85c-.31-.86-.59-1.68-.84-2.22s-.61-1.46-1-2.34c-.86-2.23-2-5.28-3.25-6.27s-4.73-1.75-6.42-1.62-4,.92-4.13,1.39a9,9,0,0,0,1.21,1.34,5.13,5.13,0,0,1,1.72,2.43,7.49,7.49,0,0,1-.85,3.68,7.93,7.93,0,0,0-.72,2.46c.13,1.43,2,4.36,2.74,5.61a49.43,49.43,0,0,0,3.35,4.28l.54.64c.93,1.13,2.73,3.19,3.65,4.18.36.38.91.9,1.5,1.44a23,23,0,0,1,2.8,2.88,19,19,0,0,1,2.54,5.1,18.68,18.68,0,0,1,.08,4.55,22.06,22.06,0,0,0-.06,3h0c.17,1.63.88,4.59,1.39,6.75.17.69.32,1.32.44,1.84.07.32.14.75.22,1.22a10.45,10.45,0,0,0,.71,2.86c.66,1.08,2.46,2.74,3.25,2.86s2.88-.91,4-1.8a6.57,6.57,0,0,0,.94-1.69c.68-1.47,1.38-3,2.79-3.09,2.15-.14,3.87,3.82,3.88,3.86a5.77,5.77,0,0,1,.26,2.26,6.86,6.86,0,0,0,.06,1.21,29.07,29.07,0,0,0,1.89,4.4c.48,1,1,1.95,1.23,2.68s1,2.68,1.36,3.79l3.47-.78a19.84,19.84,0,0,0,2-3,11.75,11.75,0,0,0,.3-2.33c.05-.67.09-1.31.18-1.79,0-.16.06-.37.09-.6.13-1.09.29-2.33,1.08-2.93A2.67,2.67,0,0,1,197.62,187Zm17.28-.36Z"
        transform="translate(-68.17 -49.36)"/>
    <polygon class="cls-3"
             points="94.95 121.07 91.26 121.07 85.72 116.85 82.82 112.37 80.97 107.36 83.35 103.93 86.77 103.93 90.47 108.15 94.95 110.26 97.32 115 97.32 120.23 94.95 121.07"/>
    <path
        d="M163.29,171.43h-4.2l-5.94-4.53-3.1-4.82-2-5.5,3-4.29h4.41l3.85,4.41,4.61,2.16,2.63,5.27v6.17Zm-3.52-2H163l1.54-.55V164.6l-2.11-4.22-4.36-2-3.53-4H152l-1.78,2.57,1.63,4.42,2.74,4.24Z"
        transform="translate(-68.17 -49.36)"/>
    <path class="cls-3"
          d="M134.25,162.79c-2.11-.69-4.85-4.66-5.94-6.6-.68-1.2-2.45-4.2-1.58-5.27.41-.52,2,0,2.63,0,1.22,0,3.77-.49,4.89,0,.74.32,1.66,1.79,2.23,2.37a22.2,22.2,0,0,1,3.17,3.56c.61,1.14,2.16,4,1.32,5-.39.45-1.79-.06-2.38,0C137.49,162,135.3,163.13,134.25,162.79Z"
          transform="translate(-68.17 -49.36)"/>
    <path
        d="M134.71,163.85a2.43,2.43,0,0,1-.77-.11c-3.07-1-6.47-7-6.5-7.06l-.1-.17c-1.28-2.26-2.54-4.78-1.4-6.22.66-.81,1.84-.62,2.8-.46a4.61,4.61,0,0,0,.62.09c.35,0,.81,0,1.31-.09a9.21,9.21,0,0,1,4,.17,6,6,0,0,1,2,1.89c.22.27.42.53.58.7l.43.43a18.33,18.33,0,0,1,2.91,3.36c1.3,2.42,2.33,4.82,1.19,6.14-.61.71-1.62.55-2.43.41a4.26,4.26,0,0,0-.6-.07,8.18,8.18,0,0,0-1.37.39A9.07,9.07,0,0,1,134.71,163.85Zm-7.23-12.16c0,.35.18,1.32,1.6,3.83l.1.18c1.22,2.17,3.77,5.61,5.38,6.13h0a6.11,6.11,0,0,0,2.13-.48,8.66,8.66,0,0,1,1.8-.48,4,4,0,0,1,1.12.09,6.17,6.17,0,0,0,.62.08c0-.35-.17-1.31-1.45-3.7a18.36,18.36,0,0,0-2.56-2.9l-.45-.44c-.21-.22-.46-.53-.73-.87a6.09,6.09,0,0,0-1.19-1.29,9,9,0,0,0-3,0c-.55.05-1.07.1-1.49.1a7.12,7.12,0,0,1-1-.11A5.77,5.77,0,0,0,127.48,151.69Z"
        transform="translate(-68.17 -49.36)"/>
    <path class="cls-3"
          d="M134.64,150.63c-2.11-.69-4.85-4.66-5.94-6.6-.67-1.2-2.44-4.2-1.58-5.27.41-.52,2,0,2.63,0,1.23,0,3.77-.49,4.89,0,.75.32,1.66,1.79,2.24,2.37a22.63,22.63,0,0,1,3.16,3.56c.61,1.14,2.17,4,1.32,5-.39.45-1.78-.06-2.37,0C137.88,149.82,135.7,151,134.64,150.63Z"
          transform="translate(-68.17 -49.36)"/>
    <path
        d="M135.1,151.69a2.43,2.43,0,0,1-.77-.11h0c-3.07-1-6.47-7-6.5-7.06l-.1-.17c-1.28-2.26-2.54-4.78-1.39-6.22.65-.81,1.84-.62,2.79-.46a4.85,4.85,0,0,0,.62.09c.35,0,.81,0,1.31-.09a9.06,9.06,0,0,1,4,.17,6.07,6.07,0,0,1,2,1.89,8.29,8.29,0,0,0,.58.7l.43.43a17.88,17.88,0,0,1,2.9,3.36c1.3,2.42,2.33,4.82,1.2,6.14-.62.71-1.63.54-2.44.41a3.15,3.15,0,0,0-.59-.07,8,8,0,0,0-1.38.39A9.07,9.07,0,0,1,135.1,151.69Zm-.15-2a6.07,6.07,0,0,0,2.13-.48,9,9,0,0,1,1.8-.48,4,4,0,0,1,1.12.09,6,6,0,0,0,.63.08c0-.35-.18-1.31-1.46-3.7a18.82,18.82,0,0,0-2.56-2.9l-.45-.45c-.2-.21-.45-.52-.72-.86a6.11,6.11,0,0,0-1.2-1.29,9,9,0,0,0-3,0c-.55.05-1.07.1-1.49.1a7.31,7.31,0,0,1-.95-.11,5.77,5.77,0,0,0-.93-.12c0,.35.18,1.32,1.6,3.83l.1.18c1.22,2.17,3.77,5.61,5.38,6.13Z"
        transform="translate(-68.17 -49.36)"/>
    <path class="cls-3"
          d="M136.4,138.47c-2.11-.69-4.85-4.66-5.94-6.6-.67-1.2-2.44-4.2-1.58-5.27.41-.52,2,0,2.64,0,1.22,0,3.76-.49,4.88,0,.75.32,1.67,1.79,2.24,2.37a22.14,22.14,0,0,1,3.16,3.56c.62,1.14,2.17,4,1.32,5-.38.45-1.78-.06-2.37,0C139.64,137.66,137.46,138.81,136.4,138.47Z"
          transform="translate(-68.17 -49.36)"/>
    <path
        d="M136.86,139.53a2.47,2.47,0,0,1-.77-.11h0c-3.06-1-6.46-7-6.5-7.06l-.1-.18c-1.27-2.25-2.54-4.78-1.39-6.21.65-.81,1.84-.62,2.79-.46a5,5,0,0,0,.63.09c.34,0,.8,0,1.31-.09a9.07,9.07,0,0,1,4,.17,6,6,0,0,1,2,1.89c.22.27.41.53.58.7l.43.43a18.33,18.33,0,0,1,2.91,3.36c1.29,2.42,2.33,4.82,1.19,6.14-.62.71-1.62.55-2.43.41a4.42,4.42,0,0,0-.6-.07,7.92,7.92,0,0,0-1.37.39A9.13,9.13,0,0,1,136.86,139.53Zm-.15-2a6.3,6.3,0,0,0,2.13-.48,8.91,8.91,0,0,1,1.81-.48,4,4,0,0,1,1.12.09,5.82,5.82,0,0,0,.62.08c0-.35-.18-1.31-1.46-3.7a18.2,18.2,0,0,0-2.55-2.9l-.45-.45a9.68,9.68,0,0,1-.73-.87,6.27,6.27,0,0,0-1.19-1.28,9,9,0,0,0-3,0c-.55,0-1.07.1-1.48.1a6.12,6.12,0,0,1-1-.12,7.16,7.16,0,0,0-.93-.11c0,.35.18,1.32,1.6,3.83l.11.18c1.21,2.17,3.76,5.61,5.37,6.13Z"
        transform="translate(-68.17 -49.36)"/>
    <rect x="268.4" y="136.44" width="3.33" height="5.51" transform="translate(-100.84 64.03) rotate(-22.4)"/>
    <path
        d="M261.45,125.81c-.74.16-1.21.59-1.67,0-1.15,0-2.12-4.79-2.12-4.79a2.07,2.07,0,0,1,2-2.09l1.67,0a2.08,2.08,0,0,1,2.1,2.06S262.6,125.8,261.45,125.81Z"
        transform="translate(-68.17 -49.36)"/>
    <rect x="69.93" y="108.86" width="3.49" height="3.49" rx="1.62"/>
    <rect x="69.93" y="96.61" width="3.49" height="3.49" rx="1.75"/>
    <rect x="71.3" y="84.52" width="3.49" height="3.49" rx="1.52"/>
    <rect x="66.9" y="158.44" width="3.49" height="3.49" rx="1.62"/>
    <rect x="68.18" y="181.78" width="3.49" height="3.49" rx="1.62"/>
    <rect x="79.85" y="195.03" width="3.49" height="3.49" rx="1.62"/>
    <rect x="86.77" y="147.86" width="3.49" height="3.49" rx="1.62"/>
    <path
        d="M266.71,136.13c.54-.52.71-1.14,1.4-.9,1-.63,4.36,2.9,4.36,2.9a2.07,2.07,0,0,1-.62,2.87l-1.4.91a2.07,2.07,0,0,1-2.87-.61S265.75,136.76,266.71,136.13Z"
        transform="translate(-68.17 -49.36)"/>
    <path
        d="M472.38,57.86l-1.9,262.49A197.77,197.77,0,0,1,78.33,320l-1.42-16c-.16-3.25-.24-6.5-.24-9.66s.08-6.51.24-9.81V57.86H472.38m8.06-8H68.92V284.19c-.16,3.42-.25,6.85-.25,10.2s.09,6.78.25,10.2l1.46,16.31a205.77,205.77,0,0,0,408.1,0l2-271Z"
        transform="translate(-68.17 -49.36)"/>
</svg>
