<?xml version="1.0" encoding="UTF-8"?>
<!DOCTYPE svg PUBLIC "-//W3C//DTD SVG 1.1//EN" "http://www.w3.org/Graphics/SVG/1.1/DTD/svg11.dtd">
<!-- Creator: CorelDRAW 2018 (64 Bit) -->
<svg xmlns="http://www.w3.org/2000/svg" xmlns:inkscape="http://www.inkscape.org/namespaces/inkscape" xmlns:sodipodi="http://inkscape.sourceforge.net/dtd/sodipodi-0.dtd" xml:space="preserve" width="603px" height="763px" version="1.1" style="shape-rendering:geometricPrecision; text-rendering:geometricPrecision; image-rendering:optimizeQuality; fill-rule:evenodd; clip-rule:evenodd"
viewBox="0 0 603 762.92"
 xmlns:xlink="http://www.w3.org/1999/xlink">
 <defs>
  <style type="text/css">
   <![CDATA[
    .str1 {stroke:black;stroke-width:3;stroke-miterlimit:22.9256}
    .str0 {stroke:black;stroke-width:3.3;stroke-miterlimit:22.9256}
    .str2 {stroke:black;stroke-width:2;stroke-miterlimit:22.9256}
    .str3 {stroke:black;stroke-width:3;stroke-linecap:square;stroke-miterlimit:22.9256}
    .str4 {stroke:black;stroke-width:2;stroke-linecap:square;stroke-miterlimit:22.9256}
    .fil4 {fill:none}
    .fil1 {fill:#5AB532}
    .fil0 {fill:#E20909}
    .fil2 {fill:white}
    .fil3 {fill:url(#id0)}
   ]]>
  </style>
  <radialGradient id="id0" gradientUnits="userSpaceOnUse" gradientTransform="matrix(1.04264 -0 -0 1.08696 -9 -21)" cx="205.55" cy="244.73" r="349.43" fx="205.55" fy="244.73">
   <stop offset="0" style="stop-opacity:0.313725; stop-color:white"/>
   <stop offset="0.188235" style="stop-opacity:0.25098; stop-color:white"/>
   <stop offset="0.6" style="stop-opacity:0.12549; stop-color:#6B6B6B"/>
   <stop offset="1" style="stop-opacity:0.12549; stop-color:black"/>
  </radialGradient>
 </defs>
 <g id="Ebene_x0020_1">
  <metadata id="CorelCorpID_0Corel-Layer"/>
  <g id="layer1" inkscape:groupmode="layer" inkscape:label="Fond écu">
   <path id="path1337" class="fil0 str0" d="M1.65 1.65l0 458.64c0,166.23 134.25,300.98 299.85,300.98 165.6,0 299.85,-134.75 299.85,-300.98l0 -458.64 -599.7 0z"/>
   <path id="path20321" class="fil1" d="M299.03 381.89l-247.03 247.03c53.77,80.79 145.45,134 249.5,134 102.78,0 193.47,-51.91 247.5,-131.03l-249.97 -250z" sodipodi:nodetypes="ccscc"/>
   <path id="path1488" class="fil2 str1" d="M1.65 1.65l0 81.21 216.14 216.14 -211.89 211.9c7.16,42.48 23.17,81.93 46.1,116.38l247.03 -247.04 249.97 250c23.22,-34 39.66,-73 47.38,-115.1l-216.14 -216.14 220.74 -220.54 0.37 -76.81 -86.17 0 -216.18 216.14 -216.14 -216.14 -81.21 0z"/>
  </g>
  <g id="layer2" inkscape:groupmode="layer" inkscape:label="Meubles">
   <path id="path8912" class="fil2 str2" d="M279.77 87.7c0.05,-0.3 0.08,-0.6 0.14,-0.89 0.13,-0.64 0.28,-1.25 0.47,-1.86 0.19,-0.62 0.41,-1.22 0.66,-1.8 0.25,-0.59 0.52,-1.16 0.82,-1.71 0.3,-0.55 0.63,-1.08 0.98,-1.6 0.35,-0.52 0.72,-1.03 1.12,-1.51 0.4,-0.48 0.82,-0.94 1.26,-1.38 0.44,-0.44 0.91,-0.86 1.39,-1.26 0.05,-0.04 0.09,-0.07 0.14,-0.1l-31.9 -18.42c-0.63,0.83 -1.3,1.65 -1.89,2.53 -1,1.47 -1.92,3 -2.78,4.57 -0.85,1.58 -1.63,3.2 -2.34,4.86 -0.01,0.03 -0.02,0.07 -0.04,0.11l31.97 18.46zm6.98 18.19c-0.04,-0.03 -0.09,-0.06 -0.14,-0.09 -0.48,-0.4 -0.95,-0.82 -1.39,-1.26 -0.44,-0.44 -0.86,-0.91 -1.26,-1.39 -0.4,-0.49 -0.77,-0.98 -1.12,-1.5 -0.35,-0.52 -0.68,-1.06 -0.98,-1.61 -0.3,-0.56 -0.57,-1.13 -0.82,-1.71 -0.25,-0.58 -0.47,-1.18 -0.66,-1.79 -0.19,-0.61 -0.34,-1.24 -0.47,-1.87 -0.06,-0.29 -0.09,-0.6 -0.14,-0.89l-31.97 18.45c0.02,0.04 0.03,0.08 0.04,0.12 0.71,1.66 1.49,3.28 2.34,4.86 0.86,1.57 1.78,3.09 2.78,4.57 0.59,0.87 1.26,1.69 1.89,2.53l31.9 -18.42zm19.26 3.05c-0.4,0.15 -0.79,0.31 -1.2,0.43 -0.61,0.19 -1.22,0.35 -1.86,0.48 -0.63,0.13 -1.29,0.23 -1.94,0.29 -0.66,0.07 -1.32,0.11 -1.99,0.11 -0.67,0 -1.34,-0.04 -2,-0.11 -0.65,-0.06 -1.3,-0.16 -1.93,-0.29 -0.64,-0.13 -1.26,-0.29 -1.87,-0.48 -0.41,-0.12 -0.8,-0.28 -1.19,-0.43l0 36.85c0.44,0.06 0.87,0.16 1.31,0.2 1.87,0.19 3.76,0.29 5.68,0.29 1.92,0 3.8,-0.1 5.67,-0.29 0.44,-0.04 0.88,-0.14 1.32,-0.2l0 -36.85zm12.25 -15.16c-0.05,0.29 -0.08,0.6 -0.14,0.89 -0.13,0.63 -0.28,1.26 -0.47,1.87 -0.19,0.61 -0.41,1.21 -0.66,1.79 -0.25,0.58 -0.52,1.15 -0.82,1.71 -0.3,0.55 -0.63,1.09 -0.98,1.61 -0.35,0.52 -0.72,1.01 -1.12,1.5 -0.4,0.48 -0.82,0.95 -1.26,1.39 -0.44,0.44 -0.9,0.86 -1.38,1.26 -0.05,0.03 -0.1,0.06 -0.14,0.09l31.9 18.42c0.63,-0.84 1.29,-1.66 1.88,-2.53 1,-1.48 1.93,-3 2.79,-4.57 0.85,-1.58 1.63,-3.2 2.34,-4.86 0.01,-0.04 0.02,-0.08 0.04,-0.12l-31.98 -18.45zm-6.97 -18.19c0.05,0.03 0.09,0.06 0.14,0.1 0.48,0.4 0.94,0.82 1.38,1.26 0.44,0.44 0.86,0.9 1.26,1.38 0.4,0.48 0.77,0.99 1.12,1.51 0.35,0.52 0.68,1.05 0.98,1.6 0.3,0.55 0.57,1.12 0.82,1.71 0.25,0.58 0.47,1.18 0.66,1.8 0.19,0.61 0.34,1.22 0.47,1.86 0.06,0.29 0.09,0.6 0.14,0.89l31.98 -18.46c-0.02,-0.04 -0.03,-0.08 -0.04,-0.11 -0.71,-1.66 -1.49,-3.28 -2.34,-4.86 -0.86,-1.57 -1.79,-3.1 -2.79,-4.57 -0.59,-0.87 -1.25,-1.7 -1.88,-2.53l-31.9 18.42zm-12.27 -40.4c-1.92,0 -3.81,0.1 -5.68,0.29 -0.44,0.05 -0.87,0.15 -1.31,0.2l0 36.87c0.39,-0.15 0.78,-0.31 1.19,-0.44 0.61,-0.19 1.23,-0.35 1.87,-0.48 0.63,-0.13 1.28,-0.23 1.93,-0.3 0.66,-0.06 1.33,-0.1 2,-0.1 0.67,0 1.33,0.04 1.99,0.1 0.65,0.07 1.31,0.17 1.94,0.3 0.64,0.13 1.25,0.29 1.86,0.48 0.41,0.13 0.8,0.29 1.2,0.44l0 -36.87c-0.44,-0.05 -0.88,-0.15 -1.32,-0.2 -1.87,-0.19 -3.75,-0.29 -5.67,-0.29z"/>
   <path id="path3276" class="fil2 str3" d="M373.44 90.74c0,41.08 -33.34,74.42 -74.42,74.42 -41.08,0 -74.42,-33.34 -74.42,-74.42 0,-41.08 33.34,-74.42 74.42,-74.42 41.08,0 74.42,33.34 74.42,74.42zm-18.88 0c0,30.66 -24.88,55.54 -55.54,55.54 -30.66,0 -55.55,-24.88 -55.55,-55.54 0,-30.66 24.89,-55.54 55.55,-55.54 30.66,0 55.54,24.88 55.54,55.54z"/>
   <path id="path7916" class="fil2 str4" d="M318.53 90.74c0,10.77 -8.74,19.51 -19.51,19.51 -10.77,0 -19.51,-8.74 -19.51,-19.51 0,-10.77 8.74,-19.51 19.51,-19.51 10.77,0 19.51,8.74 19.51,19.51zm-4.95 0c0,8.04 -6.53,14.56 -14.56,14.56 -8.04,0 -14.56,-6.52 -14.56,-14.56 0,-8.04 6.52,-14.56 14.56,-14.56 8.03,0 14.56,6.52 14.56,14.56z"/>
   <g id="g25173" inkscape:label="Fond écu">
   </g>
   <g id="g25188" inkscape:label="Reflet final">
   </g>
   <g id="g25190" inkscape:label="Contour final">
   </g>
   <path id="path26143" class="fil2 str1" d="M380.77 520c-2.62,0 -5.05,0.76 -7.11,2.07 0.86,-1.75 1.34,-3.73 1.34,-5.81 0,-7.32 -5.93,-13.26 -13.25,-13.26 -7.32,0 -13.26,5.94 -13.26,13.26 0,2.52 0.71,4.87 1.93,6.88l-41.29 0 0 -41.29c2.01,1.23 4.37,1.93 6.88,1.93 7.33,0 13.26,-5.94 13.26,-13.26 0,-7.32 -5.93,-13.25 -13.26,-13.25 -2.08,0 -4.05,0.48 -5.81,1.34 1.31,-2.05 2.07,-4.49 2.07,-7.11 0,-7.32 -5.93,-13.25 -13.25,-13.25 -7.32,0 -13.26,5.93 -13.26,13.25 0,2.62 0.76,5.06 2.07,7.11 -1.75,-0.86 -3.73,-1.34 -5.81,-1.34 -7.32,0 -13.26,5.93 -13.26,13.25 0,7.32 5.94,13.26 13.26,13.26 2.52,0 4.87,-0.7 6.88,-1.93l0 41.29 -41.28 0c1.22,-2.01 1.92,-4.36 1.92,-6.88 0,-7.32 -5.93,-13.26 -13.25,-13.26 -7.32,0 -13.26,5.94 -13.26,13.26 0,2.08 0.48,4.05 1.34,5.81 -2.05,-1.31 -4.49,-2.07 -7.11,-2.07 -7.32,0 -13.25,5.93 -13.25,13.25 0,7.33 5.93,13.26 13.25,13.26 2.62,0 5.06,-0.76 7.11,-2.07 -0.86,1.75 -1.34,3.73 -1.34,5.81 0,7.32 5.94,13.26 13.26,13.26 7.32,0 13.25,-5.94 13.25,-13.26 0,-2.52 -0.7,-4.87 -1.92,-6.88l41.28 0 0 41.28c-2.01,-1.22 -4.36,-1.92 -6.88,-1.92 -7.32,0 -13.26,5.94 -13.26,13.26 0,7.32 5.94,13.25 13.26,13.25 2.08,0 4.06,-0.48 5.81,-1.34 -1.31,2.05 -2.07,4.49 -2.07,7.11 0,7.32 5.94,13.25 13.26,13.25 7.32,0 13.25,-5.93 13.25,-13.25 0,-2.62 -0.76,-5.06 -2.07,-7.11 1.76,0.86 3.73,1.34 5.81,1.34 7.33,0 13.26,-5.93 13.26,-13.25 0,-7.32 -5.93,-13.26 -13.26,-13.26 -2.51,0 -4.87,0.7 -6.88,1.92l0 -41.28 41.29 0c-1.22,2.01 -1.93,4.36 -1.93,6.88 0,7.32 5.94,13.26 13.26,13.26 7.32,0 13.25,-5.94 13.25,-13.26 0,-2.08 -0.48,-4.06 -1.34,-5.81 2.06,1.31 4.49,2.07 7.11,2.07 7.32,0 13.25,-5.93 13.25,-13.26 0,-7.32 -5.93,-13.25 -13.25,-13.25z"/>
  </g>
  <g id="layer3" inkscape:groupmode="layer" inkscape:label="Reflet final" sodipodi:insensitive="true">
   <path id="path2346" class="fil3" d="M1.65 1.65l0 458.64c0,166.23 134.25,300.98 299.85,300.98 165.6,0 299.85,-134.75 299.85,-300.98l0 -458.64 -599.7 0z"/>
  </g>
  <path id="path18563" class="fil4 str0" d="M1.65 1.65l0 458.64c0,166.23 134.25,300.98 299.85,300.98 165.6,0 299.85,-134.75 299.85,-300.98l0 -458.64 -599.7 0z"/>
 </g>
</svg>
