<svg width="412" height="500" viewBox="0 0 412 500" fill="none" xmlns="http://www.w3.org/2000/svg">
<path d="M205.877 1.54688H410.458V302.578C410.458 410.757 318.94 498.454 206.008 498.454C93.0959 498.454 1.54688 410.757 1.54688 302.578V1.54688H205.877Z" fill="#020202"/>
<path d="M10 10V61.677L151.512 199.217L12.7812 334.055C17.4733 361.092 27.9535 386.193 42.9649 408.112L204.701 250.914L368.36 410C383.562 388.364 394.328 363.543 399.382 336.758L257.871 199.217L402 59.1329V10H346.213L204.681 147.54L63.1692 10H10Z" fill="white"/>
<path d="M205.877 6.54688H405.458V302.578C405.458 407.796 316.382 493.454 206.008 493.454C95.6529 493.454 6.54688 407.795 6.54688 302.578V6.54688H205.877Z" stroke="black" stroke-width="10"/>
</svg>
