<?xml version="1.0" encoding="UTF-8"?>
<svg width="416" height="476"  xmlns="http://www.w3.org/2000/svg">
<path d="M2.5 2.5v265.63C2.539 381.57 94.533 473.5 208 473.5c113.47 0 205.46-91.938 205.5-205.37V2.5z" fill="#f00000" stroke="#000" stroke-width="5"/>
<path d="M229.74 21.131c.318 1.685.757 3.257.766 5.002.009 1.86-.27 3.739-.412 5.6-.447 5.707-2.244 11.495-3.19 17.189-.137.91-.34 1.79-.683 2.646-.933-2.33-1.604-4.631-2.893-6.814-1.388-2.282-2.974-4.431-5.127-6.047-3.374-2.635-7.594-4.865-11.904-5.278-.19 2.02.159 4.015-.022 6.026-.45 6.506-1.533 13.007-3.14 19.32-1.109 3.73-2.191 7.573-3.85 11.102-1.066-.12-1.99-.599-2.978-.998-2.072-.886-4.294-1.396-6.43-2.131 2.114-3.197 3.554-6.708 3.73-10.58-.747.481-1.483.971-2.162 1.543a15.98 15.98 0 0 1-7.074 3.54c-5.638 1.303-11.92.788-17.623.126-4.701-.331-9.325-.5-13.756 1.322-3.747 1.418-6.692 4.031-9.133 7.143-.816 1.044-1.396 2.291-2.273 3.275-1.788.933-3.902 1.256-5.797 1.969-4.963 1.749-10.079 3.046-15.004 4.902-9.914 3.24-19.627 6.898-29.605 9.97 4.293.005 8.544-.498 12.807-.855 4.598-.3 9.168-.82 13.762-1.177 2.445-.194 4.856-.623 7.315-.692 3.317-.12 6.583-.662 9.892-.812 4.745-.486 9.425-.95 14.2-.748.373.017.708.21 1.005.576-6.992 2.024-13.851 4.546-20.895 6.42-9.3 2.458-18.631 4.891-27.896 7.478 1.521.112 3.035.129 4.539-.12 7.624-1.148 14.959-1.72 22.27-3.739 2.707-.58 5.23-1.702 7.959-2.148-3.713 2.415-7.847 4.126-11.826 6.15-6.73 3.37-13.654 6.277-20.521 9.346-1.659.765-3.399.98-4.809 2.033 5.961.36 12.045.22 17.898-1.035 6.485-1.466 12.922-3.293 19.355-5.08 6.36-1.99 12.613-4.054 19.133-5.592 4.431-.898 8.532-1.973 13.1-1.951 3.27-.048 6.528.327 9.317 2.18 1.758 1.138 2.871 3.36 2.373 5.452-.55 2.398-2.08 4.462-3.799 6.168-3 3-6.842 5.398-10.465 7.577-9.046 5.462-19.128 10.692-27.314 17.375-6.296 5.114-11.522 11.458-15.23 18.682-1.508 3.072-2.97 6.11-3.988 9.388-.929 3-1.878 5.842-1.93 9.018-.077-.395-.155-.79-.236-1.182-.194 4.238-.593 8.272-.28 12.471.104 2.824.848 5.48 1.582 8.213 1.371 4.663 3.094 9.116 5.711 13.232 3.129 4.805 6.807 9.21 11.135 12.982 7.1 6.593 15.52 11.671 23.916 16.42 5.39 2.824 10.778 5.634 16.244 8.303 2.15 1.121 4.327 2.17 6.42 3.39.039 2.777 1.195 5.601 2.23 8.163 1.69 3.6 3.598 7.15 5.944 10.369 1.156 1.671 2.526 3.093 3.395 4.959-5.205 1.254-10.3 2.904-15.496 4.207-6.202 1.5-12.227 3.506-18.467 4.89-5.29 1.285-10.632 2.261-15.982 3.254-3.546.567-7.164 1.368-10.748 1.557-2.15.094-3.808-.878-5.518-2.026-4.414-2.956-8.478-6.442-12.75-9.588-2.213-1.53-4.814-3.007-7.5-3.42-4.345-.42-8.9 1.496-11.496 5.045-1.599 2.153-3.28 4.302-4.586 6.649 2.978-1.079 6.06-1.547 9.193-1.908 1.23-.035 2.932-.263 3.881.691 1.401 1.238 2.369 2.738 4.006 3.73 2.725 1.642 5.38 3.396 8.092 5.06-2.609.171-5.201.442-7.818.425-3.937-.03-7.788.404-11.518 1.71-2.235.813-4.25 2.24-5.407 4.358-2.53 4.375-2.994 10.081-2.668 15.023 2.089-2.144 3.253-4.946 5.453-7.043.907-.842 2.16-2.02 3.461-2.05 1.225.687 2.441 2.096 3.864 2.255 1.976.245 4.047-.013 5.882-.795 1.612-.709 2.136-2.488 3.928-2.51 2.763-.249 5.556-.266 8.328-.296-4.19 2.346-8.414 5.038-11.779 8.502-2.595 2.974-3.669 6.857-3.398 10.764.357 4.787 1.593 9.558 3.08 14.113 1.813-3.18 2.192-6.587 3.64-9.905.542-1.28 1.235-2.48 1.944-3.675 1.13.021 2.392.202 3.492-.086 2.136-.735 3.993-2.242 5.123-4.198 1.019-1.633 1.617-3.5 2.653-5.11.906-1.075 2.458-1.69 3.691-2.321 4.121-1.865 8.4-3.54 12.689-4.967 1.23-.374 2.6-.92 3.898-.877 1.483 1.762 2.162 3.906 4.014 5.453 1.573 1.384 3.426 1.694 5.438 1.904.795 1.449 1.485 2.87 1.752 4.516.55 3.687.154 7.247.15 10.904 2.729-3.614 5.674-6.43 7.432-10.701 1.504-3.425.653-7.299-1.05-10.475-1.989-3.661-5.07-6.02-8.534-8.182 5.028-2.681 10.567-4.53 15.904-6.498 8.083-2.879 16.305-5.28 24.578-7.533 3.717-1.005 7.314-2.399 10.916-3.808 1.59-.65 3.034-1.392 3.945-2.926 1.388-2.256 1.328-4.654 1.16-7.207-.327-3.516-1.684-7.288-1.336-10.8 4.942 3.258 9.15 7.337 13.193 11.626 2.79 2.836 5.626 6.088 8.986 8.185 3.825 2.454 7.577 4.89 10.816 8.114 3.615 3.279 5.861 7.237 8.551 11.22 2.411 3.482 4.647 7.075 7.067 10.548 2.088 2.943 4.077 5.957 6.119 8.935 2.686 3.941 5.079 8.061 7.795 11.984 1.852 2.682 4.01 5.386 5.488 8.295 1.242 2.596 1.798 5.54.264 8.152-1.543 2.45-4.664 3.425-7.418 3.442-5.175-.275-9.666-2.054-14.732-2.793-3.073-.503-6.386.418-8.97 2.115-5.014 3.447-6.777 8.44-9.171 13.727-2.961-2.063-6.218-3.543-9.578-4.832-3.129-1.147-6.325-2.083-9.639-2.521-4.297-.864-8.781-.606-13.242-.58-7.654.502-15.097 2.784-21.814 6.462-7.851 4.182-14.619 10.453-19.234 18.072-2.591 4.388-4.62 9.042-5.875 13.988-.275.997-.447 2.218-1.092 3.047-6.837-11.956-19.914-19.846-33.623-20.658-12.759-1.104-25.96 3.11-35.29 11.98-4.44 4.023-8.137 8.746-10.569 14.242a47.044 47.044 0 0 0-4.22 14.182 37.573 37.573 0 0 0-.391 8.188c.936.822 1.874 1.64 2.824 2.445-.497-3.501-.336-7.156.12-10.65 1.104-7.366 3.867-14.67 8.392-20.63 9.063-12.197 24.59-18.727 39.645-17.257 7.289.804 14.32 3.322 20.246 7.68 7.34 5.269 12.575 13.02 15.094 21.668.099-4.096.094-8.109 1.053-12.131 2.355-10.198 8.018-19.755 16.18-26.37 5.54-4.55 12.05-8.196 19.018-10.005 7.396-2.029 15.336-2.505 22.883-1.057 9.29 1.595 18.04 5.879 24.8 12.467-.906 2.385-1.863 4.806-1.884 7.393-.314 3.807 1.762 7.76 3.262 11.193.335-4.057 1.52-8.084 3.484-11.65.284-.512.923-.408 1.25.035 6.377 6.476 9.936 15.608 9.223 24.715 1.38-3.962 4.268-7.52 7.109-10.555 6.661-6.962 15.333-11.862 24.938-13.186 6.88-1.044 13.902-.167 20.408 2.248 8.836 3.128 16.521 9.06 22.021 16.615 4.59 6.287 7.104 13.498 8.625 21.07.435 2.455.704 5.06.541 7.59.909-.78 1.82-1.555 2.715-2.35-.01-.202.006-.407-.012-.607-1.053-10.636-4.898-21.35-11.744-29.652-9.69-12.067-25.359-18.974-40.826-17.582-5.69.292-10.827 2.158-15.97 4.457.627-.989 1.323-1.974 1.821-3.036.838-1.86.1-4.245 1.127-5.95.924-1.617 2.45-3.017 3.774-4.32 3.176-3.02 6.488-6.36 8.808-10.1 1.62-2.65 1.106-5.213 1.17-8.161.039-2.033-.362-3.997-.547-6.008-.163-3.215-.295-6.335.633-9.46 2.123 1.221 3.94 3.079 6.485 3.126 2.127.142 3.742-.765 5.56-1.693 1.152.51 2.32.985 3.37 1.685 2.492 1.758 4.23 3.945 6.335 6.072.065-2.058.116-4.122.086-6.185.026-2.531-1.27-5.131-2.43-7.336-2.72-4.955-8.207-7.678-13.78-7.52-3.628-.06-6.842 1.96-10.323 2.077-1.964.051-3.34-1.007-4.71-2.262-2.61-2.35-4.87-5.248-7.018-8.02-7.869-9.875-15.394-20.217-21.707-31.163-1.758-2.983-2.248-6.335-4.028-9.313-2.294-3.799-5.022-7.308-7.412-11.029-3.111-4.534-6.077-9.188-8.806-13.967-2.063-3.438-4.258-6.833-6.08-10.408 4.942-.25 9.626-1.503 14.229-3.248 1.843-.7 3.48-1.71 5.152-2.742 4.641 7.714 8.57 16.008 11.205 24.625 1.023 2.677 1.483 5.483 2.338 8.203.984 3.245 1.744 6.606 2.496 9.906 1.539-1.19 2.463-2.913 3.576-4.55 2.347-3.632 2.777-7.701 3.237-11.892.45-4.615-.856-8.763-.852-13.568 2.763 4.358 4.126 9.931 5.57 14.852 1.397 5.205 2.968 10.41 4.133 15.656.198.039.396.082.594.125.786-2.39 1.586-4.727 2.033-7.207.83-4.5 1.615-9.158 1.68-13.73.619-6.914-.43-13.469-1.89-20.186 2.281 2.428 1.95 5.184 3.308 8.227.378-2.016.65-4.049.869-6.086.434-5.123-.13-9.988-.834-15.051-1.006-6.468-3.666-12.367-7.117-17.881-2.278-3.318-5.023-6.485-8.032-9.158-3.055-2.484-6.05-4.754-9.824-6.04 3.842-1.374 7.296-3.385 10.55-5.822.055-.309-.026-.52-.245-.623-2.987-2.084-5.961-4.38-8.36-7.134 1.14-.224 2.304-.3 3.305-.885 1.694-.928 2.91-2.234 4.196-3.631 5.273-.847 10.232-3.177 14.014-6.984 3.244-3.06 5.41-6.975 8.045-10.73-2.364-.04-4.684.378-7.043.271-3.82-.168-7.577-.555-11.238-1.707.962-.756 2.123-1.53 2.832-2.535 1.014-1.543 1.62-3.275 1.921-5.088 1.81-.623 3.682-1.057 5.444-1.783 5.97-2.27 11.14-6.976 13.723-12.842 1.306-2.824 2.274-5.763 2.635-8.862.356-3.42.85-6.767.73-10.219-.236.056-.469.107-.701.159-2.832 2.72-6.425 4.709-9.867 6.552-2.506 1.165-5.161 2.648-7.899 3.047 1.384-1.972 2.514-3.966 2.725-6.42.077-1.422 1.07-1.96 2.08-2.742 4.194-2.883 8.294-6.729 10.576-11.336 1.474-2.737 1.994-6.047 2.299-9.107.064-3.606.257-7.42-.469-10.957-.782-4.968-2.471-9.697-4.762-14.162-.326-.568-.699-1.107-1.064-1.649-.421 2.622-.79 5.178-1.826 7.645-1.848 4.538-4.539 9.058-8.192 12.367.533-4.826.796-9.926-1.418-14.404 1.406-4.525.528-9.648-1.144-13.992-1.5-4.195-3.94-7.802-6.764-11.205 0 0-2.171-2.78-6.734-6.442 0 0-.417.165-.627.246-.026 3.804-.855 7.658-1.89 11.311-1.075 3.469-2.258 6.983-3.852 10.244-1.015-2.836-2.102-4.597-4.246-6.707.984-3.816-.044-8.128-1.715-11.613-1.745-3.343-4.057-6.385-6.889-8.886-5.196-4.418-11.62-7.21-18.428-7.82zm-32.369 100.37c.176 3.438.823 7.693-1.025 10.766-1.775 3.417-4.845 5.493-8.073 7.393-4.877 2.763-10.36 5.7-13.584 10.44-1.835 2.57-2.776 5.46-3.627 8.463-1.714-4.203-1.401-8.707.563-12.76a28.808 28.808 0 0 1 8.728-10.193c4.34-3.02 8.307-6.617 12.295-10.09 1.612-1.362 2.866-2.958 4.723-4.019zm51.359 234.01c.75.018 1.496.85 2.098 1.219 1.216.98 2.61 1.26 4.084 1.646-2.73 1.393-5.42 2.364-7.948 4.121-1.353.954-2.233 2.257-3.23 3.555-1.86-1.732-3.87-3.27-5.906-4.783 3.128-2.209 6.731-5.08 10.582-5.711a.96.96 0 0 1 .32-.047zm21.965 7.115c-1.994 3.086-4.615 5.806-6.566 8.93-1.1 1.62-1.014 3.89-1.448 5.828-.485 3.653-.842 7.35-.79 11.041.111 1.491-1.007 2.26-1.837 3.326-.79-3.382-2.074-6.59-3.638-9.683-1.268-2.467-3.053-4.546-4.471-6.936 1.152-.335 2.252-.653 3.172-1.465 1.74-1.388 2.493-3.185 3.594-5.037.67-1.31 2.096-1.677 3.338-2.287 2.887-1.225 5.732-2.565 8.646-3.717z"/>
<path d="M240.32 27.344c3.21 1.577 6.05 3.95 8.479 6.554 2.505 2.948 4.646 6.66 5.226 10.525.537 4.439-1.1 8.517-2.73 12.54a219.677 219.677 0 0 1-6.712 14.337c-2.32 4.663-5.466 8.784-9.025 12.562.086-1.99.314-4.225-.172-6.167-.562-2.278-1.34-4.637-2.913-6.425-2.248-2.493-5.26-4.375-8.393-5.552 3.657-10.623 6.846-21.586 8.616-32.691.615-2.67.593-5.35.559-8.071 2.41.567 4.822 1.328 7.065 2.39z" fill="#f2f2f3"/>
<path d="M63.105 26.609c3.808 4.43 6.657 9.592 7.86 15.338.726 3.722.456 7.233.546 11.01.039 3.103-.017 6.184.348 9.274.198 6.287.026 12.622.451 18.909.065 4.302.078 8.604.198 12.905.49 5.264.33 10.598.468 15.892.383 6.287.22 12.609.4 18.905.417 5.862.314 11.754.507 17.62.258 4.577.172 9.175.357 13.752.447 6.287.284 12.613.498 18.909.331 4.886.073 9.742.56 14.612.18 5.299.094 10.606.296 15.905.378 5.14.055 10.336.541 15.462.314 5.406-.026 10.881.464 16.27 2.54-.382 5.097-.589 7.628-1.006 3.958-.588 7.818-1.633 11.754-2.307.421 3.197.997 6.467.98 9.695-1.629 1.04-3.674 1.59-5.48 2.256-5.062 1.908-10.627 2.91-15.956 3.752.039 4.779-.077 9.549-.116 14.324-.013 2.166-.331 4.284-.439 6.442-.159 4.332-1.048 8.664-2.062 12.867-.499 2.191-1.676 4.267-1.964 6.485.932 1.057 2.209 1.736 3.107 2.853 1.47 1.84 2.643 3.976 3.283 6.245 1.87 6.15-1.07 13.275-6.472 16.644-2.063 1.349-4.366 1.955-6.79 2.295-7.057.558-14.092-4.294-15.695-11.26-.89-3.28-.395-6.58.756-9.721 1.204-2.725 3.142-4.762 5.333-6.709-.76-2.707-1.882-5.269-2.307-8.088-.396-3.017-1.002-5.99-1.238-9.029-.735-5.183-.468-10.649-.537-15.905-.069-2.651.219-5.187-.305-7.813-5.746-.546-11.457-1.964-16.885-3.902-1.401-.499-2.97-.902-4.233-1.697.189-3.262.687-6.524 1.01-9.777 2.677.275 5.217 1.018 7.868 1.5 3.18.687 6.4 1.044 9.618 1.473.606.048 1.126.22 1.693-.077.177-2.828-.043-5.673.146-8.505.598-7.138.07-14.349.71-21.483.12-3.584.008-7.164.335-10.74.133-5.298.142-10.606.283-15.905.434-4.121.267-8.247.473-12.38.275-3.469.133-6.92.245-10.397.125-4.284-.069-8.535.469-12.798.382-9.029.017-18.157.76-27.169.164-5.436 0-10.903.391-16.33.155-6.009.022-12.043.464-18.038.125-5.02.116-10.039.22-15.059.408-5.453.107-10.959.597-16.404.159-3.554.069-7.125.198-10.684.575-6.094 3.249-11.612 6.807-16.51.511-.62.988-1.81 1.856-1.904zM353.62 27.49c3.683 4.031 6.261 8.9 7.774 14.135 1.032 4.41.486 9.055.937 13.726.224 5.87.112 11.758.31 17.628.326 4.044.27 8.075.348 12.132.37 6.12.313 12.248.416 18.376-.043 2.738.43 5.428.4 8.165.22 8.883.224 17.766.464 26.65.598 6.3.24 12.677.55 18.998.305 4.019.103 8.071.305 12.085.628 6.365.142 12.82.615 19.197.258 6.438.039 12.905.52 19.335.103 5.157.146 10.314.198 15.471.42 5.93.404 11.934.408 17.886 5.247-.296 10.52-1.255 15.621-2.522 1.345-.331 2.712-.559 4.083-.765.253 3.279.734 6.532.975 9.807-3.88 1.749-7.869 3.227-12.02 4.194-2.87.812-5.836 1.044-8.724 1.784-.056 2.926.017 5.823-.22 8.724-.321 4.25.027 8.298-.502 12.519-.352 4.181-.808 8.552-1.882 12.622-.585 2.273-1.483 4.4-2.3 6.596 1.849 1.328 3.417 2.91 4.599 4.86 2.205 3.452 2.617 7.827 1.723 11.759-1.611 6.476-7.851 11.315-14.534 11.22-6.132.087-11.896-4.099-13.984-9.815-.94-2.406-1.147-5.023-.778-7.568.903-4.112 2.94-7.881 6.447-10.336-2.514-5.904-3.017-11.81-3.842-18.097-.636-7.46-.439-15.123-.374-22.614-7.443-1.095-14.732-2.883-21.702-5.758.434-3.262.722-6.532.993-9.811 4.675.747 9.29 1.938 13.993 2.56 2.01.242 4.026.443 6.046.637.022-5.243.12-10.49.232-15.733.443-5.002.24-10.022.529-15.041.24-6.146.009-12.342.49-18.475.27-6.154.056-12.334.442-18.484.147-5.011.018-10.056.426-15.037.167-5.587.125-11.182.27-16.765.383-5.454.125-10.886.59-16.326.236-5.724.042-11.48.438-17.194.094-3.292.116-6.588.163-9.884-.013-2.592.456-5.14.378-7.736.069-4.297.017-8.6.164-12.897.412-5.148.111-10.323.55-15.462.395-7.194-.387-15.166 1.28-22.17.963-3.95 3.19-7.629 5.463-10.968.46-.546.94-1.543 1.723-1.607z" fill="#1c1d1c"/>
<path d="M62.043 30.438c-.052 63.745.03 127.49-.017 191.23-.026 1.19.086 2.548-.4 3.649-2.11 4.568-5.776 8.332-10.628 9.901.331-9.098.563-18.204.86-27.302.386-16.623 1.035-33.246 1.405-49.864.33-5.72.206-11.457.55-17.177.099-4.156.18-8.311.24-12.467.366-5.57.267-11.174.439-16.756.52-6.6.107-13.258.61-19.859.12-5.41.12-10.82.24-16.232.46-6.145.169-12.338.504-18.488.511-5.38-.374-11.41 1.203-16.528 1.083-3.593 2.87-7.022 4.994-10.108z" fill="#f2f2f3"/>
<path d="M63.775 30.056c2.531 4.117 4.766 8.07 5.608 12.914.537 7.564.374 15.132.787 22.7.086 4.293.129 8.586.21 12.88.486 7 .18 14.04.632 21.036.163 5.445.065 10.903.413 16.335.124 4.878.094 9.764.245 14.642.438 7.151.214 14.332.618 21.488.116 8.6.508 17.186.658 25.785.404 10.886.516 21.78.915 32.661.18 8.028.495 16.043.61 24.07-1.585-.541-3.124-1.07-4.529-2.011-2.475-1.595-4.353-4.216-5.733-6.777-.61-1.04-.412-2.506-.455-3.68-.013-61.883 0-123.77-.013-185.65-.005-2.13-.039-4.258.034-6.39zM354.33 31.104c2.308 3.111 4.117 6.803 5.23 10.512.958 3.176.718 6.18.812 9.442.07 2.858 0 5.711.245 8.565.215 5.277.039 10.649.439 15.93.172 6.438.056 12.906.447 19.34.137 5.07.098 10.164.39 15.235.267 15.26.839 30.525 1.13 45.79.688 26.3 1.35 52.662 2.003 78.963-4.533-1.2-8.255-4.517-10.28-8.703-.532-1.053-.425-2.075-.455-3.219.034-63.95-.082-127.91.039-191.85z" fill="#fff"/>
<g fill="#fff">
<path d="M352.58 31.311c.056 64.145.013 128.37.03 192.52.142 2.703-1.629 5.247-3.283 7.237-1.874 2.32-4.37 3.7-7.091 4.805.425-13.752.834-27.543 1.109-41.295.27-4.86.249-9.739.378-14.6.464-6.716.146-13.48.593-20.197.18-5.87.06-11.762.468-17.62.172-5.295.004-10.62.396-15.901.167-5.437.038-10.907.447-16.331.094-4.298.103-8.6.227-12.893.349-4.427.228-8.888.344-13.327-.026-2.871.357-5.716.323-8.587.09-4.448.081-8.887.378-13.327.06-6.025.275-12.033.554-18.05.572-4.452 2.536-8.801 5.127-12.44zM209.11 37.117c3.752 1.345 7.512 3.008 10.052 6.214 2.2 2.815 3.584 6.37 4.246 9.863.305 1.77 1.019 3.649.335 5.398-1.994 6.03-4.151 12.007-6.223 18.01-2.42 6.933-5.157 13.809-7.172 20.87.984-5.424 1.027-11.69-1.491-16.735-1.767-3.516-4.074-6.76-7.362-9.012 1.844-4.482 3.464-9.03 4.555-13.756 1.698-6.807 2.824-13.838 3.06-20.852zM268.58 38.655a40.918 40.918 0 0 1 4.964 5.733c3.6 5.226 6.36 10.91 6.235 17.409-.172 4.061-1.99 7.233-3.893 10.697-4.5 7.366-10.5 13.12-16.726 18.99-2.837 2.506-5.673 5.06-8.754 7.195.55-2.265 1.156-4.779 1.001-7.121-.447-3.713-2.703-7.087-5.763-9.193 3.649-3.721 7.117-7.666 10.172-11.89 1.981-2.914 3.894-5.905 5.57-9.004 3.876-7.03 6.295-14.839 7.194-22.816z"/>
<path d="M256.26 53.735c.765-.056.825.718 1.16 1.246.654 1.5 1.234 3.09 1.474 4.715-3.378 7.894-9.308 15.179-15.252 21.324l-1.13-1.006c2.175-2.755 3.571-5.844 5.41-8.818 3.155-5.583 6.22-11.397 8.338-17.461zM189.93 61.651c-.696 1.324-1.414 2.591-2.475 3.666-1.78 1.882-3.967 2.965-6.202 4.211 4.448-.687 9.219-.33 13.408 1.376 3.954 1.56 7.448 4.198 9.829 7.74 2.277 3.412 3.635 7.413 3.786 11.521.253 6.193-1.762 12.21-4.414 17.723-1.491 3.052-3.709 5.377-5.862 7.947-6.906 8.027-15.054 13.606-22.622 20.783-3.85 3.885-7.164 8.612-7.976 14.139-.752 3.859.03 8.066 2.119 11.4 1.435 2.261 3.48 3.808 5.956 4.797-1.938 3.743-3.146 7.74-3.09 11.986.774.004 1.552.009 2.325.009.01-1.535-.004-3.043.331-4.552.533-3.145 2.196-5.827 3.79-8.543 2.798-4.667 6.92-8.058 11.553-10.795 2.424-1.405 4.98-2.441 7.525-3.588 6.412-2.914 12.153-7.207 16.636-12.648 2.42-3.378 4.186-7.345 2.63-11.51-1.362-3.068-4.56-5.354-6.257-8.264-1.6-2.746-2.158-6.02-1.406-9.127 1.272-5.978 3.129-11.947 5.179-17.701 2.853-7.942 5.44-16.008 8.552-23.856 2.2.923 4.237 1.925 6.03 3.536 2.458 1.732 3.515 4.599 3.588 7.517.232 4.052-1.186 8.367-2.287 12.252 1.324-1.255 2.708-2.441 4.044-3.683 1.896-1.814 3.958-3.352 5.57-5.45 2.665 1.72 6.244 3.473 7.706 6.412 1.104 1.793.85 4.276.636 6.283-.778 3.842-2.441 7.629-4.367 11.027 2.776-2.153 5.716-4.319 8.948-5.737 2.166 1.956 4.736 4.41 5.694 7.233.541 2.303-.516 5.01-1.857 6.88-2.058 2.69-4.637 5.007-7.585 6.691 4.35.026 8.686.07 13.01-.48 1.12 2.595 1.185 5.539.33 8.22a6.792 6.792 0 0 1-3.296 3.902c-4.28 2.222-8.634 2.682-13.275 3.55 4.482 2.226 8.943 4.659 13.61 6.472-.438 2.471-.808 5.011-1.943 7.285-.932 1.852-2.668 3.064-4.64 3.605-4.152 1.268-8.351.409-12.502-.344 2.978 3.537 5.41 7.53 8.51 10.96-1.57 1.963-2.923 3.829-5.274 4.92-1.547.812-3.193.868-4.873.473-3.692-.847-7.362-2.69-10.761-4.139a213.454 213.454 0 0 0 2.51 7.792c.812 2.368 1.942 4.564 2.91 6.867-1.763 1.014-3.379 2.024-5.463 2.21-1.925-.173-3.816-1.075-5.497-1.978-2.093-1.134-4.284-2.067-6.369-3.214 1.578 5.105 2.626 10.026 5.175 14.814-2.708 1.422-5.493 2.316-8.57 1.594a19.019 19.019 0 0 1-8.565-5.08c-1.62-1.805-3.098-3.79-4.448-5.801.804 2.389 1.59 5.088 3.09 7.138 2.527 3.575 6.7 5.969 10.976 6.725 3.546.439 6.906-.687 9.906-2.514a23.64 23.64 0 0 0 9.107 4.917c5.02 1.25 10.499.627 15.2-1.496-3.795-5.943-7.121-12.209-11.126-18.032-1.432-2.054-2.45-4.293-3.658-6.476 2.502 2.695 5.071 5.45 8.05 7.68 3.094 2.247 6.497 4.052 10.134 5.234 3.966 1.362 7.74 1.435 11.384 3.765 7.039 4.624 12.867 11.225 16.232 18.978 2.789 6.575 3.949 13.554 4.172 20.662-1.8-3.963-3.79-7.83-5.81-11.685-2.819-4.887-6.3-9.412-10.095-13.572-4.259-4.435-9.128-8.986-14.685-11.711 0 .893-.051 1.809.078 2.694 2.926 1.74 5.732 3.601 8.173 6 7.405 6.828 12.66 16.218 15.935 25.664 2.63 7.22 3.774 15.011 3.864 22.678.009 4.504-.752 9.012-1.31 13.468-1.59-6.274-3.095-12.42-5.643-18.406-3.06-7.486-6.89-14.68-11.053-21.608a112.105 112.105 0 0 0-17.044-21.16c-.323-.25-.722-.809-1.156-.791-.396.378-.748.786-1.113 1.199 4.203 4.671 8.393 9.248 11.814 14.556 2.814 4.074 5.032 8.47 7.15 12.93 1.256 2.717 2.57 5.287 3.073 8.27 1.277 6.987 2.592 13.506 1.724 20.65-.284 2.78-.92 5.38-2.287 7.838-.58-2.355-1.04-4.728-1.775-7.04-1.448-4.533-2.458-9.054-4.362-13.443-1.267-2.892-2.458-5.831-3.915-8.633-1.873-3.516-3.829-7-5.939-10.383-3.915-6.373-8.68-11.94-13.902-17.263-.533.528-1.061 1.057-1.598 1.586 4.98 4.366 8.908 10.12 12.527 15.63-2.244 1.332-4.556 2.514-7.053 3.3-4.104 1.337-8.522 2.411-12.858 2.338-1.581-2.265-2.518-4.65-4.503-6.605-1.685-2.046-3.602-3.744-5.673-5.38.838 1.946 1.646 3.91 2.81 5.685 3.065 4.61 6.167 9.14 8.832 14 3.812 6.468 7.542 12.928 11.78 19.134 2.716 4.254 5.78 8.25 8.638 12.403 2.174 3.05 2.591 6.79 4.504 10.12 2.737 4.75 5.797 9.326 9.02 13.762 1.848 2.595 3.614 5.234 5.6 7.727 4.452 5.728 8.698 11.969 13.902 17.03 1.882 1.694 4.143 3.782 6.88 3.464 4.216-.623 7.508-2.595 11.986-2.153 3.43.305 6.601 1.891 8.707 4.646 1.895 2.132 2.66 4.667 3.442 7.34-2.067-1.719-4.134-3.283-6.949-3.335-2.2-.27-3.812 2.128-6.038 1.754-1.521-.271-1.422-2.128-2.776-2.863-1.706-1.03-4.336-.79-5.239 1.204-2.02 3.95-1.37 8.887-1.027 13.163.28 3.446 1.173 7.228-.756 10.37-3.872 5.982-9.652 9.592-13.511 15.372-.004 1.904-.327 5.598-1.934 7.701-1.184 1.55-3.726 1.482-5.1 2.865-1.877 1.887-3.869 6.983-3.869 6.983-1.804-1.566-.022-7.11.172-9.569.189-2.694 1.955-4.658 3.403-6.816 2.398-3.283 4.264-7.263 7.255-9.936 1.444-1.426 3.347-2.892 4.301-4.697.636-.932-.081-2.363-.219-3.365-1.586 1.414-2.277 3.653-4.108 4.551-5.286 2.875-10.8 5.033-16.361 7.658-1.066.563-2.123.753-2.501 2.046-.993 2.437-2.037 4.818-4.573 5.99-1.865.774-3.43-.266-5.247-.09-1.74 1.38-2.617 4.057-3.554 6.013-.103-1.74-.288-3.76.262-5.441.563-1.78 1.332-3.498 2.097-5.196.563-1.169 1.027-2.269 2.08-3.09 2.553-2.071 5.793-3.21 8.797-4.486 4.452-1.904 8.978-3.614 13.451-5.47.885-.383 1.81-.762 2.613-1.299.468-.752-.774-1.384-1.169-1.934-4.237 2.003-8.62 3.529-13.288 4.109-1.667.15-3.257.167-4.77-.65-1.186-.61-1.702-2.268-2.961-2.646-.967-.413-2.149.098-3.081.425a209.958 209.958 0 0 0-5.54 2.355c2.08-2.768 3.649-5.44 6.842-7.104 2.47-1.44 5.07-1.268 7.778-.743 3.988.756 8.002 1.783 12.037 2.252 3.189.279 6.713-.383 9.077-2.686 1.843-1.663 2.591-4.079 2.694-6.498.056-2.79-.993-5.247-2.44-7.568-1.952-3.047-4.174-5.905-6.1-8.973-3.51-5.492-6.935-11.027-10.644-16.391-4.745-7.052-9.162-14.195-14.362-20.95-2.746-3.498-6.206-6.481-9.85-9.016-2.217-1.586-4.534-2.798-6.614-4.582-5.088-4.319-9.188-9.798-14.34-14.027-5.51-4.658-11.738-8.14-17.247-12.832-1.895-1.68-3.683-3.485-5.398-5.35-3.893-4.396-6.532-9.51-9.66-14.216 1.263 4.044 2.363 7.907 4.64 11.547 3.28 5.454 7.8 9.656 12.833 13.468-2.265-.275-4.328-1.122-6.528-1.655-3.631-.863-7.005-2.862-10.344-4.452-2.677-1.25-5.256-2.694-7.912-3.992-7.98-4.087-16.189-8.028-23.77-12.82-8.857-5.437-17.49-12.14-23.727-20.538-5.088-6.49-8.118-14.66-9.214-22.781-1.224-8.363.989-17.156 4.19-24.857 3.623-8.183 9.128-15.6 15.842-21.513 7.245-6.403 16.236-11.053 24.625-15.836 4.56-2.441 8.904-5.23 12.854-8.578 2.604-2.256 5.05-5.196 5.84-8.625.657-2.725-.49-5.578-2.557-7.387-2.73-2.48-6.812-3.292-10.38-3.499-8.04-.283-16.433 2.23-24.151 4.328-7.736 2.3-15.402 4.8-23.207 6.872a84.313 84.313 0 0 1-10.705 2.355c1.89-.787 3.786-1.556 5.642-2.416 7.087-3.313 14.17-6.575 21.036-10.34 3.254-1.688 6.442-3.49 9.49-5.53 2.5-1.694 5.015-3.22 7.85-4.29.108-.158.216-.317.323-.48-1.745-.628-3.502-1.195-5.333-1.522-3.107-.645-6.506-.395-9.64-.03-4.976.421-9.927 1.079-14.911 1.414-7.113.516-14.22 1.4-21.346 1.736 2.002-.765 4.052-1.375 6.102-1.99 6.687-1.977 13.25-4.31 19.92-6.334 4.404-1.444 8.89-2.592 13.27-4.1.125-.606.116-1.367.451-1.904 3.099-4.787 8.303-8.376 14.006-9.115 5.772-.778 10.727.726 16.447.722 5.059.108 10.048-.705 14.586-3.013z"/>
<path d="M294.4 68.609c2.325 5.905 2.91 12.265 2.535 18.561-.313 4.315-1.65 8.475-4.387 11.87-3.202 3.885-7.229 6.756-11.694 9.03a80.226 80.226 0 0 1-17.031 7.253c-2.205.486-4.242 1.083-6.202 2.252 2.785-2.948 4.74-7.258 3.387-11.302-1.062-2.415-2.764-4.607-4.43-6.63 3.385-.998 6.591-2.506 9.763-4.054 6.128-2.982 11.956-6.73 17.074-11.237 2.707-2.519 5.209-5.14 7.186-8.286 1.564-2.342 2.664-4.89 3.799-7.456z"/>
<path d="M280.62 69.971c.344 2.149.718 4.25.623 6.442-.056 2.622-.872 4.925-1.38 7.5-3.48 3.038-7.456 5.543-11.452 7.842a214.806 214.806 0 0 1-12.768 6.129c3.266-2.742 6.502-5.549 9.557-8.522 4.504-4.148 8.621-8.626 12.14-13.645 1.268-1.814 2.304-3.76 3.28-5.746z"/>
</g>
<path d="M161.59 71.364c2.763-.297 5.527-.357 8.299-.46.008.795.012 1.59.017 2.385-2.695.155-5.385.404-8.08.632.078 1.354.404 2.806-.468 3.98-.907 1.319-2.759 1.714-4.04.666-1.255-1.26-1.594-3.451-1.92-5.119-1.397-.365-2.803-.644-4.22-.894 3.441-.975 6.866-1.044 10.412-1.19z" fill="#1c1d1c"/>
<g fill="#fff">
<path d="M208.37 103.74c-.554 2.965-1.62 5.686-1.581 8.763-.194 3.988 1.388 7.658 3.897 10.679 1.44 1.934 3.984 3.704 4.56 6.085.606 2.995-1.074 6.016-2.793 8.346-2.755 3.438-6.112 6.373-9.94 8.56-5.33 3.344-11.149 5.402-16.336 8.978-2.084 1.323-3.829 3.012-5.513 4.804-1.539 1.492-2.665 3.245-4.388 4.552-.933-.752-2.286-1.457-2.858-2.527-.464-2.05.18-4.457.864-6.404 1.547-4.276 4.731-7.422 8.432-9.918 4.353-3.022 8.878-4.543 12.78-8.269 2.497-2.475 4.676-5.784 4.788-9.403.129-3.262-.099-6.554-.61-9.772 2.802-2.863 5.148-6.15 6.85-9.786.705-1.534 1.199-3.133 1.848-4.688zM282.54 110.23c-1.22 2.484-2.27 4.822-4.224 6.85-.59.576-1.182 1.204-2.016 1.393-2.729.709-5.759.657-8.57.739-2.204-.146-4.335-.537-6.562-.404 3.039-.997 5.957-2.256 8.93-3.417 4.345-1.242 8.415-3.128 12.442-5.161z"/>
<path d="M297.99 112.03c-.533 6.227-1.994 12.136-5.806 17.212-3.726 5.01-9.399 7.671-15.411 8.827-6.347 1.173-12.45.245-18.595-1.47-.03-.137-.056-.279-.086-.417 3.197-.623 5.888-2.806 6.923-5.926 1.07-3 .67-5.763.658-8.879 2.161.366 4.156.4 6.33.138 6.347-.46 12.424-2.295 18.127-5.08 2.75-1.25 5.376-2.673 7.86-4.405zM257.85 139.37c5.51 1.753 11.483 2.424 17.237 1.84-.438 1.112-.825 2.359-1.521 3.334-.86 1.04-1.775 1.956-3.236 1.852-2.703-.146-5.441-1.246-8.02-2.032.314-.933.61-1.87.916-2.802a53.994 53.994 0 0 1-5.376-2.192zM261.73 147.64a885.248 885.248 0 0 0 10.507 3.455c4.594 1.427 9.369 1.977 14.169 1.934-2.802 4.289-6.425 7.865-11.139 9.979-3.481 1.633-7.362 2.252-11.156 1.56-3.099-.705-6.154-2.286-8.93-3.795-1.943-1.066-3.85-2.161-5.583-3.554 2.78-.335 5.639-.67 7.878-2.527 2.282-1.818 3.425-4.323 4.254-7.052zM249.68 160.95c3.58 1.38 6.816 3.83 10.413 5.174 1.93.726 3.915 1.006 5.952 1.26-2.174 1.667-4.555 2.316-7.28 2.114-.455-.15-.838-.533-1.207-.821a71.903 71.903 0 0 1-7.878-7.727zM251.35 166.33c1.298 1.268 2.652 2.475 3.945 3.747 3.442 3.516 7.22 6.722 10.903 9.984-2.531 1.379-5.453 2.54-8.35 2.75-4.74.486-9.725-1.255-13.666-3.812-3.416-2.149-5.922-4.92-8.861-7.62 2.935.757 5.784 1.715 8.852.933 2.557-.88 4.775-3 6.464-5.058.236-.305.477-.615.713-.924zM235.9 182.54c2.613 4.435 5.363 8.819 7.744 13.387-3.03.55-5.922.988-8.977.254-4.81-1.01-8.956-3.83-11.99-7.65-1.118-1.539-1.496-3.756-1.96-5.57 2.858 1.419 5.458 2.785 8.784 2.274 2.445-.284 4.323-1.5 6.399-2.695z"/>
</g>
<path d="M62.748 227.95c2.011 2.82 4.41 5.256 7.482 6.91 1.38.71 2.832 1.281 4.267 1.865.04 1.595.065 3.194.06 4.792-7.83.301-15.835.494-23.64-.258.017-1.289.03-2.578.038-3.872 5.097-1.89 8.819-4.89 11.792-9.437zM353.73 228.34c1.603 1.8 3.004 3.614 4.89 5.166 1.926 1.551 4.122 2.617 6.468 3.386-.009 1.551.018 3.107.06 4.663-5.027.112-9.884.632-14.907.344-2.682-.185-5.364-.297-8.045-.396a84.66 84.66 0 0 1-.03-3.618c2.239-.855 4.366-1.921 6.227-3.447 2.187-1.702 3.777-3.846 5.337-6.098z" fill="#fff"/>
<path d="M31.789 240.06c2.183.408 4.332.988 6.52 1.367 12.42 2.415 25.084 2.9 37.68 1.848 6.219-.503 12.248-1.715 18.32-3.077.357 2.213.563 4.417.602 6.66-3.094 1.058-6.124 2.205-9.3 3.013-5.862 1.573-12.089 2.2-18.14 2.476-5.213.288-10.593-.155-15.815-.537-6.992-.821-13.963-2.459-20.55-4.951-.035-2.248.334-4.577.682-6.799zM322.25 240.29c.743.034 1.496.168 2.222.322 9.012 2.05 18.264 3.086 27.5 3.266 9.403.112 18.827-.618 28.016-2.668 1.624-.396 3.249-.774 4.899-1.049.262 2.166.438 4.336.71 6.498-13.633 5.93-29.1 6.678-43.71 5.118-6.903-.868-13.822-2.42-20.294-5.006.146-2.162.3-4.345.658-6.481z" fill="#fcdb00"/>
<path d="M184.81 248.8c6.236 2.011 10.834 5.191 17.151 5.699 1.465.03 2.806.425 4.173.91-.163 1.797-.254 3.568-.056 5.368.33 2.768 1.122 5.48 1.461 8.243.15 1.564.185 3.36-.77 4.693-.897 1.353-2.694 2.071-4.133 2.686-2.888 1.117-5.81 2.174-8.793 3.008-10.894 3.129-21.711 6.365-32.253 10.555-4.474 1.83-9.21 3.176-12.936 6.339 3.283 1.955 6.498 3.197 9.145 6.085 2.583 2.475 3.877 6.004 3.83 9.55-.323 2.002-1.59 3.957-2.652 5.659-.172-3.056-.929-6.068-2.497-8.715-.404-.64-.911-1.406-1.595-1.767-1.22.043-2.14.546-3.287-.223-2.476-1.431-3.855-4.753-5.772-6.91-6.463 1.082-12.78 3.476-18.724 6.2-1.654.852-3.515 1.642-4.92 2.876-.955 1.555-1.432 3.373-2.424 4.925-.873 1.444-2.132 3.279-3.782 3.867-1.71.486-3.163-.653-4.4-1.667-.86 3.013-2.498 5.806-3.744 8.685-.24-1.732-.649-3.433-.898-5.165-.387-4.491 1.573-8.948 5.329-11.504 4.74-3.39 9.841-6.296 14.93-9.124a79.65 79.65 0 0 1-2.441-1.917c-5.51.31-11.006.731-16.494 1.354-.636 1.212-1.053 2.338-2.493 2.776-1.538.417-3.644.886-4.878-.42-1.203-1.036-2.243-1.93-3.958-1.518-2.299.89-4.267 2.94-5.724 4.89.924-3.308 1.26-7.28 4.096-9.608 3.51-2.067 8.152-2.407 12.136-2.36 8.152-.64 16.159.271 24.294-1.848-2.23-1.93-4.796-1.684-7.534-1.482-1.195 0-2.82.447-3.85-.262-3.757-2.226-7.556-4.423-11.175-6.876-2.01-1.29-1.753-3.894-4.22-4.405-2.789-.383-5.754-.026-8.517.43 1.246-1.44 2.389-2.85 4.117-3.748 2.462-1.435 5.333-1.878 8.087-1.04 3.09.937 5.82 3.305 8.303 5.299a168.753 168.753 0 0 0 7.04 5.44c1.89 1.376 4.018 2.755 6.326 3.288 2.466.451 5.187.116 7.65-.288 7.163-1.225 14.31-2.243 21.371-4.01 6.442-1.473 12.712-3.476 19.102-5.126 3.533-.924 7.044-1.908 10.563-2.888 3.034-.847 6.081-1.526 9.05-2.604-1.516-2.098-3.128-4.117-4.74-6.142-3.988-5.2-7.21-10.705-8.496-17.207z" fill="#fff"/>
<g fill="#fcdb00">
<path d="M52.266 253.93c3.06.245 6.128.228 9.188.494 4.04.288 7.968-.335 11.99-.442-.047.734-.094 1.47-.15 2.204a83.315 83.315 0 0 1-5.39-.189c-2.59-.176-5.144.288-7.74.116-2.642-.22-5.255.086-7.898.03-.004-.735-.004-1.474 0-2.213zM343.14 254c3.958.065 7.873.584 11.835.503 3.288.133 6.485-.439 9.764-.533v2.243c-7.19-.043-14.38-.069-21.569-.081-.009-.714-.022-1.423-.03-2.132zM52.331 258.36c7.022.009 14.04-.021 21.062.004-.009.907-.013 1.814-.017 2.725a2458.42 2458.42 0 0 0-21.071-.022l.026-2.707zM343.09 258.44c7.177-.03 14.354.039 21.531.069v2.87c-7.147-.064-14.302-.085-21.449-.064-.022-.958-.043-1.917-.082-2.875zM52.335 263.47c7.005-.017 14.014.009 21.023-.013l-.013 3.008c-6.983.018-13.967-.012-20.95-.038-.017-.989-.039-1.973-.06-2.957zM343.1 263.54c7.134-.004 14.272.047 21.406.03 0 1.032-.004 2.063-.004 3.094-7.164-.06-14.328-.086-21.492-.09l.09-3.034zM52.348 268.7c6.915-.004 13.829.009 20.744.004.004.984.017 1.968.034 2.948-6.867-.03-13.739-.013-20.607-.056-.055-.967-.116-1.934-.172-2.896zM343.18 268.8c7.014-.004 14.027.03 21.041.039-.017.962-.043 1.925-.065 2.888-6.957.017-13.928.064-20.886-.086l-.09-2.841zM52.877 273.94c6.64-.065 13.288-.026 19.928 0-.099 1.01-.198 2.015-.288 3.021-5.836-.004-11.676-.038-17.512.01-.584-.035-1.32.064-1.86-.16-.151-.958-.203-1.904-.267-2.87zM343.57 274.06c6.807-.069 13.615.017 20.422-.026l-.193 2.974c-6.636.022-13.275.017-19.91-.047-.1-.967-.207-1.934-.318-2.901zM53.311 279.17c6.287.288 12.596.116 18.888.15a48.857 48.857 0 0 1-.589 3.129c-5.917-.026-11.835-.077-17.753-.056a35.527 35.527 0 0 1-.546-3.223zM344.06 279.4c6.416-.086 12.871.052 19.292-.021a156.472 156.472 0 0 1-.357 3.145c-6.154-.081-12.308-.047-18.466-.051-.172-1.015-.39-2.05-.468-3.073zM54.235 284.65c5.66-.069 11.345.004 17.01-.004a33.667 33.667 0 0 1-1.014 3.88c-5.106-.102-10.207.005-15.308-.085-.292-1.264-.606-2.484-.688-3.79zM344.84 284.66c5.9-.017 11.801-.013 17.706.013-.31 1.29-.627 2.57-.963 3.846-5.29.03-10.58-.017-15.87-.021-.203-.843-.422-1.68-.62-2.523a47.09 47.09 0 0 1-.253-1.315zM55.868 290.69c4.568.052 9.136-.039 13.705.043-.288.713-.541 1.47-.928 2.136-.993-.16-1.964-.516-2.957-.74-3.232-.584-6.347-.107-9.45.839-.125-.757-.245-1.517-.37-2.278zM346.38 290.73c4.852.021 9.708.009 14.56.009-.357.868-.705 1.736-1.044 2.609-4.143-1.921-8.48-1.66-12.738-.284-.258-.778-.52-1.556-.778-2.334zM352.2 294.24c5.144-.649 10.46 2.149 12.841 6.756 1.466 2.634 1.685 5.62 1.225 8.556-.89 4.061-3.83 7.804-7.714 9.377-2.961 1.281-6.408 1.35-9.39.086-4.882-1.985-8.346-6.927-8.166-12.257.104-6.21 4.938-11.887 11.204-12.519zM59.095 294.61c4.35-1.354 9.467-.138 12.708 3.09 2.987 2.836 4.16 7.117 3.606 11.139-.684 4.689-3.971 8.711-8.44 10.284-2.622.8-5.42.92-8.037.021-4.491-1.448-7.929-5.505-8.685-10.159-1.002-6.15 2.875-12.549 8.848-14.375z"/>
</g>
<path d="M351.77 299.79c1.233-.275 2.591-.245 3.83-.004 3.205.752 5.87 4.074 5.62 7.405-.021 3.949-3.532 7.477-7.538 7.22-4.172.188-7.52-3.632-7.456-7.659.155-3.206 2.458-6.085 5.544-6.962zM59.925 300.12c1.706-.722 4.035-.778 5.754-.069 2.596 1.186 4.762 3.726 4.633 6.713.155 3.936-3.133 7.658-7.138 7.628-3.434.258-6.79-2.114-7.572-5.484-.946-3.545.91-7.4 4.323-8.788z" fill="#1c1d1c"/>
<path d="M61.244 301.87c3-.954 6.261.885 6.829 4.005.644 2.802-1.332 5.613-4.044 6.279-2.87.632-5.716-1.23-6.37-4.065-.678-2.665 1.105-5.295 3.585-6.219zM352.18 301.91c3.154-1.092 6.919 1.508 6.932 4.848.133 2.432-1.586 4.697-3.89 5.38-2.737.67-5.174-.649-6.377-3.124-1.285-2.798.443-6.236 3.335-7.104z" fill="#fcdb00"/>
<path d="M206.4 355.32a53.138 53.138 0 0 0-11.385 1.832c-6.966 1.81-13.478 5.455-19.018 10.006-8.161 6.614-13.825 16.171-16.18 26.369-.958 4.023-.954 8.035-1.053 12.131-2.518-8.647-7.753-16.399-15.094-21.668-5.926-4.358-12.958-6.876-20.246-7.68-15.054-1.47-30.58 5.06-39.645 17.256-4.525 5.96-7.288 13.265-8.392 20.631-.455 3.494-.618 7.15-.121 10.65 35.812 30.332 82.122 48.656 132.73 48.656 51.06 0 97.735-18.659 133.68-49.475.162-2.53-.108-5.133-.543-7.588-1.522-7.572-4.036-14.783-8.625-21.07-5.501-7.555-13.186-13.487-22.021-16.615-6.507-2.415-13.528-3.292-20.408-2.248-9.605 1.324-18.276 6.224-24.938 13.186-2.841 3.034-5.73 6.593-7.11 10.555.714-9.106-2.845-18.238-9.222-24.715-.327-.442-.967-.546-1.25-.035-1.964 3.567-3.15 7.594-3.485 11.65-1.5-3.434-3.575-7.386-3.262-11.193.022-2.587.978-5.007 1.885-7.392-6.76-6.589-15.51-10.872-24.8-12.467-3.774-.725-7.646-.968-11.499-.776z" fill="#fff"/>
<path d="M2.5 2.5v265.63C2.539 381.57 94.533 473.5 208 473.5c113.47 0 205.46-91.938 205.5-205.37V2.5z" fill="none" stroke="#000" stroke-width="5"/>
</svg>
