<?xml version="1.0" encoding="UTF-8"?>
<svg width="520" height="589" xmlns="http://www.w3.org/2000/svg">
<path d="m6.5032e-6 0.0053407c173.33 0 346.67 0.017333 520-0.0053333-0.02266 80.489 0.01067 160.99-0.01066 241.48 0.0173 28.597-4.092 57.055-11.587 84.632-9.5267 34.189-24.329 66.964-43.851 96.617-14.837 22.487-31.932 43.399-50.799 62.624-6.7733 6.7653-13.759 13.356-20.848 19.789-10.283 8.96-20.763 17.736-31.7 25.889-19.301 14.637-39.935 27.679-61.251 39.172-13.043 6.788-26.3 13.323-39.952 18.796-4.3573-1.9747-8.8093-3.7067-13.144-5.7387-26.339-11.867-51.425-26.369-75.027-43.021-25.059-17.736-48.7-37.66-69.976-59.803-30.403-31.984-56.352-68.261-73.853-108.91-8.1333-18.075-13.996-36.803-18.753-56.023-1.92-8.08-3.2907-16.213-4.752-24.377-2.116-13.232-3.4027-26.579-4.04-39.963-0.576-11.083-0.44667-22.284-0.44-33.383-0.018667-72.589 4e-3 -145.19-0.014667-217.77z"/>
<path d="m120.07 6.2533c-37.559-0.024-76.116-0.045333-113.62 0.010667-0.164 31.949 0.045333 64.197-0.073333 96.171 5.08 5.0893 10.525 9.8067 15.747 14.751 18.28 16.905 36.543 33.817 54.816 50.724 12.264 11.635 24.707 23.073 37.124 34.54 12.083 11.043 23.973 22.317 36.007 33.412 13.787 12.544 27.299 25.376 41.017 37.981 22.253 20.653 44.484 41.3 66.753 61.931 4.9267 4.4573 9.64 9.1693 14.499 13.701 6.2307 5.6093 12.269 11.432 18.449 17.097 10 9.1867 19.725 18.649 29.747 27.803a13411 13411 0 0 0 27.852 25.776c9.7013 9.3053 19.769 18.216 29.533 27.464 11.32 10.332 22.292 21.036 33.568 31.419 7.9907-8.1867 15.547-16.8 22.807-25.635 9.3293-11.325 18.149-23.045 26.091-35.392 5.8187-8.696 10.893-17.809 15.909-26.984a322.11 322.11 0 0 0 17.337-39.067c-5.288-5.1627-10.853-10.037-16.187-15.151a562.51 562.51 0 0 0-11.388-10.603c-11.791-11.168-23.708-22.204-35.696-33.163-9.9893-9.1987-19.968-18.408-30.013-27.537-6.344-6.0827-12.913-11.917-19.363-17.881a336.59 336.59 0 0 0-9.0867-8.42c-18.72-17.589-37.716-34.872-56.555-52.353-6.5813-5.8227-12.919-11.907-19.375-17.871-20.995-19.473-42.12-38.705-63.023-58.303-4.2667-3.8093-8.3987-7.776-12.636-11.624-10.667-10.044-21.496-19.856-32.267-29.821-14.52-13.509-29.176-26.872-43.693-40.392-8.1653-7.4427-16.072-15.179-24.28-22.583zm-99.007 15.053c5.8133 2.7253 11.491 5.6427 17.552 7.8213 17.219 6.2533 34.567 10.473 52.351 14.707 1.0493 8.5653 2.376 17.169 5.9093 25.115 3.7987 8.4587 10.187 15.631 18.409 19.987 4.204 2.144 8.7813 3.24 13.071 5.316-1.8053 2.3027-3.888 4.3453-5.7453 6.608 5.0453 4.5427 10.351 8.7733 15.453 13.255 12.405 10.344 24.595 20.923 36.773 31.533 4.8307 3.988 9.5547 8.1013 14.301 12.204 23.348 19.92 46.797 39.743 70.1 59.707 4.368 3.928 8.8107 7.748 13.263 11.573 3.488 2.8613 6.632 6.3427 10.487 8.6853 10.475 5.704 22.784 8.7627 34.715 7.6507 6.276-0.60933 12.477-2.3027 17.533-6.2067a66.675 66.675 0 0 1 4.4027 3.9667c-0.0107 5.2427 0.0107 10.48-0.012 15.715-5.9707 5.7787-11.631 11.851-17.479 17.741 2.3427 2.128 4.8533 4.0573 7.224 6.1573 6.3667 5.5347 13.512 10.219 21.085 13.92 4.1093 1.9067 8.1893 3.6 12.777 3.7867 6.6813 8.1027 13.589 16.009 20.216 24.163 8.7987 10.552 17.636 21.099 26.667 31.459 8.7533 10.411 17.88 20.529 26.547 31.013 2.6653 3.1933 5.3627 5.8173 6.028 10.133 0.84133 4.26-0.47333 8.3347-3.216 11.613-3.9387 4.876-12.173 7.2-17.388 3.0133-20.808-16.065-41.64-32.08-62.351-48.285-10.757-8.2333-21.384-16.771-32.428-24.613-1.456-0.97733-1.62-3.4827-2.32-5.0173-5.1747-13.277-14.769-25.067-25.183-34.636a1623.2 1623.2 0 0 1-17.297 17.487c-5.288-0.14133-10.576 0-15.859-0.072a214.41 214.41 0 0 1-3.736-4.1027c2.1893-3.12 3.5947-6.4787 4.1653-10.259 1.4667-9.368 0.67067-19.203-1.7387-28.349-1.0667-4.0693-2.5733-7.98-4.8307-11.54-1.3733-2.0707-3.472-3.7413-5.216-5.5133-3.4933-3.4707-6.9867-6.9293-10.581-10.293-7.924-7.8827-15.955-15.652-23.895-23.513-20.717-20.1-41.396-40.256-62.136-60.328-6.016-5.6427-11.773-11.551-17.767-17.216-10.723-10.293-21.316-20.737-32.067-31.003a243.48 243.48 0 0 1-5.0507 5.192c-3.7987-5.248-6.484-11.252-10.328-16.443-2.0133-2.7933-4.7347-4.712-7.6133-6.5347-5.1867-3.12-10.801-5.3493-16.761-6.444-6.3147-1.5133-12.727-1.76-19.193-1.444-2.116-4.9547-3.544-10.107-5.16-15.236-4.1187-13.323-9.796-26.28-16.133-38.688-2.3133-4.7067-5.1813-9.108-7.54-13.787zm382.91 4.168c-3.92 0.01067-7.7533 2.7267-9.2747 6.3067-0.81333 1.7773-0.73333 3.52-0.768 5.4267 0 3.2573-5e-3 6.512 0.012 9.7627-3.5947 0.06267-7.196-0.04-10.785 0.052-5.4 0.30933-9.6667 5.14-9.548 10.507-0.0173 5.2987 4.8133 10.044 10.124 9.8067 3.3693-0.016 6.7333-0.08 10.101-0.028 0.0853 5.952 0.11333 11.912 0.024 17.865 0.0333 6.8613 0.17333 13.733-5e-3 20.596a6417.9 6417.9 0 0 0-40.369-0.0227c-0.0107-3.8493 0.0773-7.7027 0.0107-11.551-0.04-6.1333-7.2693-10.784-12.935-8.7587-3.8947 1.344-7.084 5.0667-6.96 9.316 0.0107 3.68 0.12934 7.3587-0.0333 11.037-3.968-0.0333-7.952-0.12933-11.92 0-6.1333 0.316-10.627 7.2293-8.764 13.001 1.3493 3.996 4.9667 7.2733 9.3187 7.3747 3.8093 0.0907 7.6293-0.0267 11.444 0.024 0.04 3.448-0.0333 6.8947-0.04 10.343-0.112 4.78 3.6747 9.1467 8.3707 9.8747 5.66 1.1573 11.648-4.2093 11.536-9.88 0.044-3.42-0.0293-6.8453-0.0627-10.259 13.493-0.15334 27-0.04 40.499-0.0627-0.192 12.707 0.056 25.416-0.0613 38.123-3.3867 0-6.7733-0.04-10.16-0.044-5.3947-0.192-10.04 4.7453-10.033 10.043-0.24267 4.7693 3.7587 9.2493 8.3413 10.073 3.916 0.34933 7.896 0.056 11.829 0.168 0.17467 4.108-0.0747 8.228 0.13467 12.325 0.36 5.1067 5.0293 9.1347 10.052 9.2093 5.2147 0.044 10.107-4.5093 10.253-9.7627 0.0973-3.9267-0.056-7.86 0.0173-11.787 3.5387-0.0627 7.0893 0.1 10.621-0.0347 5.7227-0.33866 10.3-6.3093 9.1493-11.912-0.84133-4.4133-5.1027-8.448-9.7187-8.3067-3.364-0.0453-6.728 0.0107-10.092-0.0133-0.0333-12.701-5e-3 -25.403-0.0213-38.104 13.5 0.028 26.999-0.0227 40.493 0.0333-0.0107 3.6227-0.0733 7.252-5e-3 10.875 0.028 4.796 4.3227 9.208 9.1147 9.428 5.536 0.54267 10.913-4.48 10.953-9.9933 0.0453-3.4253 0.0507-6.8493-0.0227-10.275 3.8547-0.21466 7.7267 0.14134 11.564-0.18666 4.1827-0.41734 7.6413-3.476 8.7467-7.4987 1.8973-5.8533-3.0533-12.771-9.2147-12.765-3.6853-0.0893-7.376-4e-3 -11.061-0.0493 0.016-3.476 0.012-6.9533 0.0333-10.429 0.248-5.552-4.956-10.467-10.429-10.343-5.1467 0.19733-9.6453 4.576-9.7467 9.7787-0.0613 3.6667 0.056 7.3467 0.056 11.015-13.493-0.056-26.987-0.0667-40.483-5e-3 -0.0107-12.832 0.04-25.664-0.012-38.491 3.376-0.028 6.7507 0.04 10.125 0.06667 5.5867 0.136 10.48-5.4667 9.9733-10.957-0.37867-4.96-5-9.26-9.9627-9.3507-3.3627-0.112-6.7373-0.02133-10.107-0.084 0-3.628 0.084-7.2507 0.0907-10.88 0.084-4.9307-3.8667-9.5867-8.7147-10.433a8.2373 8.2373 0 0 0-1.68-0.16667zm-236.96 295.88c-5.1307 0.124-9.56 4.7573-9.7133 9.836-0.084 3.7187 0.04 7.4427-5e-3 11.16-3.5333 0.0907-7.0653-0.0333-10.597 0.0293-5.3453-5e-3 -10.183 4.948-10.211 10.259-0.10667 5.1573 4.4133 10.247 9.6453 10.388 3.7253 0.124 7.456-7e-3 11.18 0.04 0.0453 12.069 0.0227 24.147 0.0347 36.215-13.547-0.0107-27.089-0.0507-40.628 0.0227-0.0173-3.52 0.084-7.0533-0.024-10.569-0.23067-5.3373-4.7573-9.8453-10.056-10.213-5.3333-0.056-10.103 4.312-10.413 9.6613-0.11867 3.7013-0.0053 7.4133-0.03333 11.116-3.8547 0.028-7.7253-0.10666-11.575 0.0173-5.1973 0.164-9.516 5.2253-9.4133 10.315-0.12 5.2133 4.6827 10.271 9.9773 10.067 3.68 0.0507 7.36-0.056 11.039 0.0453-0.01067 3.588-0.08 7.184-0.02267 10.773 0.164 5.4267 4.92 10.24 10.435 10.088 5.424 0.0733 9.8493-4.8307 10.069-10.077 0.112-3.612-0.0227-7.2347 0.0173-10.851 13.533 0.0667 27.072-0.0133 40.605 0.0267 0.016 12.392 0.04 24.779-0.0173 37.165-3.9053-0.0573-7.844-0.20934-11.744 0.0213-5.7733 0.51467-9.848 6.4173-8.9333 11.997 0.92 4.7347 5.1413 8.64 10.067 8.5827 3.5453 0.0173 7.084-0.0613 10.623-0.016 0.0173 3.5373-0.028 7.076-0.0333 10.62-0.316 5.2693 4.5707 10.049 9.7227 10.207 5.5867 0.44 10.96-4.6493 10.977-10.207 0.08-3.5387 0.0227-7.0827 0.0133-10.62 3.6787-0.052 7.3587 0.044 11.037-0.0133 4.9333 0.0293 9.2-4.3667 9.808-9.112 0.56-5.496-3.712-10.857-9.232-11.421-3.8547-0.248-7.7493-0.0907-11.604-0.0453 5e-3 -12.369 0.0293-24.732-0.016-37.101 13.589-0.11867 27.185-0.0627 40.773-0.0333 0.0347 3.5933-0.12267 7.2 0.0293 10.789 0.08 5.48 5.3107 10.624 10.88 10.1 5.216-0.38934 9.9787-5.3547 9.72-10.671 5e-3 -3.408-0.04-6.8173-0.0227-10.225 3.16 0 6.32-0.04 9.48-5e-3 1.892-0.0227 3.6187 0.0733 5.3627-0.77333 3.64-1.884 6.3653-5.648 6.072-9.8747-0.27066-5.1013-4.6053-9.5307-9.7347-9.756-3.72-0.11333-7.4547-0.0107-11.18-0.0227-0.0227-3.5093 0.0733-7.0253 0-10.54 0.0333-4.136-3.1373-8.1333-6.936-9.56-4.5653-1.964-10.317 0.6-12.512 4.904-0.94267 1.6027-1.2027 3.3867-1.2027 5.2253 5e-3 3.324 0.0173 6.6533 0.0347 9.9773-13.589-0.04-27.175-0.0347-40.764-0.0173 0.0267-12.065 0.0667-24.135-0.0173-36.204 3.4987-0.0107 6.9973 0.0507 10.491-0.0453 5.0907-0.0453 9.7187-4.1933 10.311-9.2533 0.47466-4.3573-2.1267-8.652-6.1-10.424-1.884-0.90667-3.8427-0.99734-5.9027-0.992-2.9187 0.0333-5.836 0.0493-8.7533 5e-3 -0.0227-3.5387 0.056-7.0707 0-10.608-0.0173-5.6493-5.2827-10.829-11.005-10.4z" fill="#f00000"/>
<path d="m129.01 6.1895 0.00196 0.011719c2.9293 2.3533 5.5993 5.0447 8.3926 7.5781a11050 11050 0 0 0 41.289 38.27c17.693 16.545 35.588 32.887 53.371 49.336 38.411 35.731 77.092 71.122 115.49 106.86 30.729 28.333 61.459 56.673 92.172 85.021 18.737 17.443 37.574 34.968 56.25 52.461 4.052-12.211 7.7268-24.388 10.373-36.994 3.3067-13.944 5.146-28.069 6.4726-42.322 0.55333-7.7427 1.0001-15.478 0.85742-23.242-0.0333-78.983 0.03899-157.96-0.04101-236.95-128.19-0.028-256.44 0.026703-384.63-0.029297zm274.77 13.912a15.053 15.053 0 0 1 2.5273 0.15625c6.52 0.89733 12.185 6.4392 13.027 12.99 0.236 2.844 0.05079 5.7269 0.05079 8.5762 4.1373-0.056 7.8673-0.32697 11.684 1.625a15.215 15.215 0 0 1 8.334 10.693c1.5587 7.252-2.952 15.033-9.916 17.477-3.324 1.372-6.5351 0.83874-10.107 0.94141 0.0507 9.2933 0.03971 18.588 0.01171 27.881 9.972 0.028 19.95-0.02308 29.922 0.01562 0.084-4.316-0.60331-8.9319 1.834-12.768 2.5173-4.5147 7.038-7.3863 12.156-7.9609 7.8267-0.74667 15.448 4.9917 16.74 12.773 0.288 2.608 0.07812 5.2764 0.07812 7.9004 4 0.16933 7.495-0.41728 11.281 1.248 5.0133 1.9347 8.4989 6.5798 9.3789 11.828 1.1733 6.7547-2.7874 13.848-9.1367 16.432-3.7533 1.6867-7.5218 1.1725-11.539 1.2285-0.0173 3.3413 0.37051 7.0208-0.79883 10.174-2.048 5.8293-7.5498 10.123-13.746 10.506-6.344 0.42933-12.492-3.4348-15.049-9.2188-1.7547-3.56-1.127-7.5909-1.1777-11.451-9.9827 0.028-19.963 2.8e-4 -29.945 0.01758 0.04 9.2933 0.03891 18.587 0.00391 27.881 3.296-0.096 6.2886-0.42165 9.4766 0.67968 6.2413 1.8787 10.876 8.0525 10.723 14.604 0.136 6.252-3.9602 12.239-9.8535 14.355-3.4653 1.3253-6.7262 0.88004-10.355 0.9707-0.084 4.2933 0.55394 8.3398-1.2461 12.34-2.7427 6.6867-10.086 10.627-17.188 9.0977-5.208-1.0213-9.6512-4.9455-11.355-9.9668-1.3373-3.696-0.79466-7.6124-0.86133-11.494-4.064-0.0627-7.8575 0.48474-11.645-1.3379-5.9267-2.6533-9.5532-9.2259-8.7012-15.658 0.55866-5.8347 4.7788-11.076 10.383-12.814 3.216-1.1293 6.5399-0.81355 9.9199-0.82422 7e-3 -9.272-0.02531-18.544 0.02539-27.814-10-0.04-20.001-0.02148-30.002-0.02148 0.084 2.6573 0.29847 5.4565-0.13086 8.0859-1.1227 5.9587-6.1055 11.105-12.092 12.211-3.9347 0.97067-8.1744-0.14033-11.498-2.3457-3.2227-2.1613-5.3044-5.6212-6.3418-9.3066-0.67733-2.76-0.33305-5.8346-0.37305-8.668-4.684-0.10133-8.7192 0.64374-13.02-1.7656-6.3773-3.1707-9.6355-11.206-7.5195-17.961 1.36-4.8533 5.2824-8.735 10.057-10.252 3.2-1.1173 7.0832-0.61132 10.48-0.69532 0.0107-4.1867-0.42862-7.8989 1.3594-11.838 2.444-5.648 8.4503-9.2836 14.584-8.9609 6.22 0.23067 11.78 4.4619 13.801 10.324 1.2067 3.1427 0.69335 7.1146 0.77735 10.461 9.9733-5e-3 19.943-0.0109 29.916-0.0039-0.04-9.3173-0.03761-18.632-0.00391-27.943-3.324-0.08533-7.0737 0.41267-10.178-0.75-4.328-1.3827-7.912-4.9454-9.3613-9.2441-1.66-4.5547-1.022-9.8359 1.7207-13.836 2.196-3.2667 5.6222-5.5072 9.4316-6.4219 2.6533-0.7 5.615-0.41173 8.375-0.42773 0.14134-4.4467-0.58606-8.3476 1.2539-12.545 2.34-5.5147 7.9459-9.0425 13.826-9.1758l0.00196-0.001954zm-397.34 90.668-0.0019531 0.00195 0.0019531 0.00196c-6.5e-6 -0.0013 6.4e-6 -0.00261 0-0.00391zm0 0.00391c0.2133 42.992-0.030407 86.01 0.15625 129.01-0.192 27.351 3.6048 54.787 10.439 81.252a304.16 304.16 0 0 0 11.684 36.104c9.1867 23.819 21.26 46.54 35.736 67.566 10.723 15.851 22.908 30.807 35.725 45.01 20.627 22.368 43.485 42.603 68.012 60.604 22.423 16.359 46.115 30.81 71.104 42.914 6.8067 3.4133 13.787 6.5335 20.848 9.3789 22.541-9.2533 44.167-20.815 64.873-33.631 29.691-18.841 57.345-40.778 82.223-65.639-4.3907-4.3173-8.9956-8.4079-13.477-12.629-16.609-15.557-33.36-30.961-49.98-46.523-13.781-12.871-27.627-25.863-41.453-38.678-14.413-13.429-28.804-26.915-43.303-40.244-30.509-28.457-61.223-56.964-91.76-85.404-23.46-21.691-46.905-43.4-70.361-65.096-30.159-27.919-60.261-56.122-90.465-83.99zm161.19 205.16c0.88666 7e-3 1.7788 0.09682 2.6641 0.27148 6.744 1.1573 12.093 7.1161 12.793 13.871 0.15867 2.3427 0.05682 4.7061 0.07422 7.0527 3.16 0.0733 6.6982-0.30439 9.7129 0.59961 5.3107 1.5107 9.7289 5.8007 10.932 11.262 1.8347 7.1733-2.1685 15.089-9.0644 17.803-3.832 1.7667-7.4889 1.3259-11.559 1.3379 0.0173 8.6107 0.00391 17.224 0.00391 25.834 10.147-0.0227 20.295 0.04354 30.441-0.03516 0.0227-2.9907-0.32158-6.2087 0.34375-9.1367 1.264-4.9373 5.1812-9.1586 10.047-10.711 4.3467-1.4773 9.2443-0.84918 13.156 1.5215 3.0747 1.7867 5.3679 4.7724 6.5879 8.0898 1.1333 3.1707 0.82202 6.9471 0.80469 10.275 3.0427 0.0733 6.4286-0.31162 9.3633 0.48438 5.2147 1.28 9.7529 5.5604 11.141 10.773 2.1947 6.9733-1.4795 15.101-8.1035 18.17-4.1147 2.088-7.9585 1.4731-12.383 1.5918-0.0173 3.036 0.25198 6.4392-0.55469 9.3672-1.4 5-5.4334 9.2765-10.428 10.783-3.3067 1.0387-7.017 0.82189-10.25-0.38477-4.2213-1.7333-7.6457-5.3267-8.959-9.7227-1.192-3.392-0.77458-6.5514-0.78125-10.066-10.141-0.0293-20.285-8.6e-4 -30.426-0.00586-5e-3 8.864 0.01238 17.726-0.01562 26.59 3.3467 0.04 6.5132-0.39072 9.7012 0.61328 4.8093 1.3493 8.8389 5.1144 10.463 9.8438 2.6747 7.3067-0.95979 16.159-8.2051 19.184-4.0067 1.9293-7.7498 1.3153-12.021 1.4219 0.192 4.7067 0.39704 9.017-2.0977 13.221-3.4493 6.1787-10.934 8.9224-17.668 7.0664-5.5187-1.456-10.107-6.3666-11.111-11.986-0.36134-2.7307-0.135-5.5631-0.15234-8.3164-4.424-0.04-8.3126 0.49584-12.404-1.6309-6.2587-3.0587-9.8248-10.36-8.2168-17.16 1.1907-5.232 4.9945-9.587 10.051-11.404 3.4933-1.2987 6.9319-0.82837 10.617-0.8457-0.028-8.8653-0.01143-17.732-0.02343-26.59-10.119-0.028-20.239 0.02809-30.357-0.03321-0.016 2.6067 0.18762 5.2765-0.12304 7.8672-0.77867 5.5067-4.7684 10.371-10.023 12.205-3.0933 1.044-6.452 1.2124-9.584 0.25781-4.82-1.4267-8.7707-5.3322-10.293-10.117-1.1867-3.4027-0.76758-6.6424-0.76758-10.18-4.408-0.14133-8.2168 0.61608-12.314-1.4492-6.4-2.8893-10.07-10.327-8.5742-17.16 1.14-5.52 5.4934-10.14 10.9-11.68 3.2733-1.0107 6.551-0.67346 9.959-0.68946 0.052-4.6107-0.56408-8.6451 1.9199-12.799 3.1373-5.9027 10.119-8.9657 16.613-7.5391 6.52 1.32 11.804 7.3461 12.254 13.982 0.124 2.1053 0.01114 4.2274-0.00586 6.334 10.141-7e-3 20.29 0 30.432 0-0.0627-8.6133-0.05816-17.229-0.00586-25.84-3.6467-0.0333-6.9935 0.41324-10.492-0.77343-5.6933-1.7707-9.9762-7.0632-10.547-12.994-0.68266-6.4613 3.0248-13.03 8.9902-15.668 3.9733-1.952 7.7877-1.5284 12.055-1.5391 0.0667-3.9453-0.60448-7.7937 0.96485-11.484 2.3067-5.856 8.315-9.7831 14.527-9.7324z" fill="#fff"/>
<path d="m38.116 35.115c7.1907 6.156 14.031 12.731 20.995 19.136 9.3333 8.656 18.596 17.345 27.964 25.973-0.70667 0.716-1.4173 1.4267-2.128 2.144-6.456-5.88-12.805-11.889-19.228-17.809-4.836-4.576-9.808-8.984-14.521-13.684-5.028-4.5707-9.7867-9.4507-14.933-13.88 6.2933 12.52 11.281 25.651 15.08 39.133 0.60933 2.3187 1.3147 4.6093 2.0427 6.8933 9.7587-0.02667 19.432 1.784 28.48 5.452 4.2093 1.7147 7.9507 4.1813 11.563 6.912 2.9013-3.08 5.8867-6.0933 8.8373-9.1307-7.376-7.1947-11.92-16.477-14.183-26.459-0.756-3.6-1.5867-7.1333-1.9187-10.805-5.756-1.5867-11.553-3.008-17.337-4.4693-10.351-2.7827-20.633-5.7507-30.713-9.4067zm68.847 54.961c-3.1773 3.16-6.3947 6.3027-9.448 9.5813 2.8507 3.6573 4.612 7.8933 7.2013 11.697 4.7587-4.904 9.56-9.768 14.249-14.739-4.464-1.3867-8.2787-3.7867-12.003-6.54zm11.667 14.964c-1.96 1.744-3.7253 3.7013-5.6613 5.4733 43.133 41.881 86.387 83.571 129.37 125.62 7.0493 6.9973 14.137 13.96 21.311 20.833a388.27 388.27 0 0 0 14.183-15.835c-3.6-2.9227-7.0547-6.032-10.587-9.04-6.0733-5.004-11.887-10.315-17.976-15.303-17.347-14.819-34.799-29.507-52.063-44.421-14.832-12.624-29.685-25.251-44.427-37.971-11.225-9.8307-22.8-19.581-34.149-29.355zm164.51 138.83c-5.74 5.9253-11.384 11.968-17.04 17.979 2.264 3.86 3.7533 8.024 4.8773 12.341 2.1107 9.0613 2.9333 18.604 1.9347 27.869 2.8667-2.5173 5.3067-5.4853 8.0533-8.1533 14.56-14.321 28.433-29.293 42.932-43.675-12.259 2.0533-24.645 0.224-36.187-4.1653-1.5813-0.62667-3.048-1.4507-4.5733-2.1947zm50.949 2.9853c-12.935 13.107-25.651 26.453-38.524 39.647-8.0413 8.384-16.355 16.545-24.352 24.964 3.2 0 6.3893 0.0613 9.584-0.092 8.216-8.9267 16.943-17.396 25.244-26.249 9.1987-9.2373 18.172-18.693 27.332-27.977 0.496-0.43333 0.728-0.94667 0.70667-1.5333 0.10666-2.9133-0.024-5.8413 9e-3 -8.76zm-15.677 33.699c-4.904 5.004-9.86 10.049-14.691 15.117 9.6733 9.0667 18.093 19.124 24.2 30.956 1.0493 1.952 1.8627 3.9947 2.556 6.0987 6.2933-6.128 12.196-12.663 18.467-18.813 2.8453-2.8493 5.5867-5.8067 8.4773-8.6107-5.3107-1.32-10.459-3.7867-15.131-6.5973-5.4173-3.08-10.48-6.7027-15.328-10.608-2.924-2.432-5.6373-5.112-8.5493-7.544zm43.484 27.097c-5.4293 5.484-10.693 11.137-16.208 16.544-4.1027 4.0053-8.0133 8.34-12.229 12.24 15.543 12.267 31.396 24.145 46.909 36.459 13.867 10.788 27.716 21.605 41.6 32.367 2.2107 1.6027 3.96 3.4027 6.9187 3.2213 4.7573-0.0453 8.7027-4.2493 8.4027-9.0107 0.096-2.884-1.456-4.808-3.212-6.8787-13.399-15.744-27.032-31.301-40.385-47.084-10.66-12.573-21.125-25.303-31.797-37.857z" fill="#fcdb00"/>
</svg>
