<?xml version="1.0" encoding="UTF-8"?>
<svg width="406" height="456" xmlns="http://www.w3.org/2000/svg">
 <path d="M3 3v250c0 110.5 89.5 200 200 200s200-89.5 200-200V3z" fill="#fff" stroke="#000" stroke-width="6"/>
 <path d="m203 6.049-200 200v46.95a201.03 201.03 0 0 0 3.762 38.636l196.24-196.24 196.24 196.24A201.075 201.075 0 0 0 403.003 253v-46.951l-200-200zm0 178.21L31.43 355.829c10.975 18.28 24.806 34.628 40.85 48.498L203 273.607l130.72 130.72c16.043-13.87 29.875-30.22 40.85-48.498L203 184.259zm0 177.81-75.971 75.97c22.973 9.438 48.085 14.724 74.422 14.925l1.549-1.549 1.549 1.549c26.337-.2 51.449-5.487 74.422-14.924L203 362.069z"/>
</svg>
