<?xml version="1.0" encoding="UTF-8"?>
<svg width="416" height="476" xmlns="http://www.w3.org/2000/svg">
<path d="M2.5 2.5v265.63C2.539 381.57 94.533 473.5 208 473.5c113.47 0 205.46-91.938 205.5-205.37V2.5z" fill="#fcdb00" stroke="#000" stroke-width="5"/>
<path d="M148.89 33.262c-5.965 2.311-11.237 6.9-15.508 11.578-5.627 6.56-10.021 14.334-13.264 22.322-7.71-.507-15.773.586-22.898 3.637-4.563 2.16-8.86 5-12.51 8.5-1.201 1.114-2.151 2.643-3.764 3.136-7.367 2.577-14.84 4.789-22.486 6.374-3.005.612-6.298 1.329-9.039 2.75-2.33 1.342-4.275 3.42-5.664 5.705-1.416 2.398-1 5.297-.361 7.873.397 1.466 1.361 2.6 2.763 3.193 2.065.909 4.609.69 6.829.75 6.44-.046 12.806 1.278 18.393 4.576-3.257.037-6.494 0-9.72-.498-4.32-.616-8.654-.854-13.007-1.105-2.247-.092-4.412-1.042-6.637-.891-1.087.073-1.827 1.128-1.685 2.188.2 2.923 2.593 5.08 5.16 6.13 3.49 1.275 7.007 1.467 10.684 1.485.822 1.507 1.632 2.927 3.002 4.01 2.48 1.977 5.777 2.753 8.869 3.119 4.248.475 7.78-.795 12.109-1.014 4.613-.206 9.336.292 13.936.607 7.061.43 14.073 1.81 20.842 3.838-6.596 1.686-14.049.762-20.604-.76-6.925 16.134-12.571 33.013-13.686 50.644-.461 9.683.599 19.303 2.6 28.77.799 4.39 1.821 8.707 3.054 13 2.727 9.73 5.875 19.357 9.52 28.784 1.069 2.84 2.416 5.55 4.193 8.017 1.827 2.585 5.167 4.266 7.885 5.777 5.06 2.522 10.427 4.498 15.895 5.942 4.262 1.165 8.638 2.558 13.055 2.883-2.471-8.35-2.53-17.302.215-25.592.027 5.997.292 11.93 1.457 17.836.708 3.402 1.498 6.768 2.617 10.066 1.516 4.462 2.526 9.036 3.385 13.668a121.95 121.95 0 0 1 1.826 11.418c.52 5.513 1.11 11.775-.42 17.16-.598 2.288-.74 4.7-.475 7.048.348 2.723 1.648 4.992 2.315 7.75 1.407 5.532 1.847 11.593 2.687 17.262.896 8.012 2.53 15.27 1.598 23.4-.703 8.391-5.335 15.997-10.305 22.574-.9 1.142-1.735 2.51-2.877 3.424-1.069-.013-2.16-.332-3.207-.547-5.189-1.141-10.463-1.325-15.748-.882a67.12 67.12 0 0 1 3.266-10.756c.986 1.859 1.703 3.754 3.822 4.572 1.22.457 2.27-.905 2.818-1.819 1.928-3.494 1.43-8.138 1.26-11.984-.616-16.804.911-33.948 5.25-50.227 2.37-8.765 4.535-17.558 6.102-26.506.616-2.726-.256-5.34-.672-8.13-1.142-5.56-2.228-11.203-3.996-16.602-6.34-1.051-12.841-2.824-18.875-5.043-.37 4.289-.306 8.596-.543 12.895-.352 3.65-.132 7.271-.274 10.939.019 3.804-.337 7.604-.662 11.4-.726 4.234.8 7.773 1.498 11.898 1.202 6.632.869 13.817.873 20.555-.214 9.911-.393 19.463-2.129 29.229-.653 4.407-1.817 8.535-4.695 12.039-2.197 2.818-5.267 4.367-7.633 6.957-4.786 5.257-8.505 11.127-11.854 17.375-1.708 3.046-3.045 6.235-4.283 9.492.361.356.72.712 1.086 1.068-2.553 4.609-4.425 9.532-5.238 14.748-.075.426-.067.878-.117 1.313 34.31 25.695 76.919 40.918 123.09 40.918 45.9 0 88.278-15.053 122.48-40.48-.355-6.709-2.141-13.735-6.03-19.3a25.679 25.679 0 0 0-12.465-9.66 34.9 34.9 0 0 1 6.436-12.503c1.795 1.165 3.121 2.413 5.465 2.02 1.457-.685 2.57-2.399 2.857-3.96.388-3.925.347-7.89.58-11.817.671-5.645 1.695-11.268 2.563-16.89.845-5.455 1.84-10.875 3.193-16.224 1.516-6.586 3.206-12.91 6.111-19.049 1.288-2.727 2.45-5.453 2.852-8.473.489-3.407.557-7.215-.645-10.486-.676-1.831-2.562-3.294-3.982-4.564-4.732-4.115-9.069-8.513-11.9-14.182-4.225-7.984-4.791-17.576-3.389-26.359 1.069-10.533 2.627-20.586 6.65-30.457 1.755-4.079 3.66-8.309 6.173-11.977 2.553-.183 5.073.087 7.613-.447 6.024-.987 12.137-4.085 15.184-9.598-12.698-2.887-25.054-6.124-37.04-11.309-1.698-.758-3.325-1.353-4.827-2.476-6.431-4.824-13.457-10.117-21.148-12.656-6.568-2.211-13.351-2.586-20.221-2.32-7.377.378-14.672 1.401-21.93 2.753-6.655 1.197-13.351 2.162-19.992 3.404-2.293.37-4.635.524-6.955.67-11.081.736-22.29.759-33.344-.42-10.528-1-20.99-2.666-31.508-3.753-5.03-.453-10.077-.719-15.12-.979-1.2.009-1.686-1.375-2.029-2.307-1.078-3.407-1.5-7.064-1.615-10.627-.141-8.961 1.631-17.606 3.29-26.398 2.237-10.359 4.169-20.544 4.804-31.154.114-7.413-.545-15.11-2.773-22.209 2.43-.913 4.896-1.657 7.257-2.744 7.56-3.339 14.325-8.715 19.811-14.85 4.413-5.015 8.563-10.838 10.436-17.324.553-1.79.376-3.477.29-5.308-.96-.151-1.91-.28-2.883-.215-12.561 1.183-24.706 6.026-34.572 13.9-3.577 2.868-6.893 5.854-9.332 9.787-1.193-.484-2.334-.935-3.416-1.643-.064-.438.68-.896.927-1.234 5.34-5.193 9.552-11.465 12.178-18.439 1.622-4.44 2.882-9.428 2.485-14.174-.092-1.507-.859-2.58-1.635-3.809zm11.961 30.895c-1.982.987-3.89 2.033-5.594 3.463-5.96 4.7-10.187 10.478-14.979 16.256-.251.06-.502.119-.754.174.279-1.777.544-3.471 1.553-5.006 2.782-4.38 6.537-8.203 10.799-11.145 2.795-1.818 5.58-3.436 8.975-3.742zm95.826 178.86.066.232c1.471 5.815 2.724 11.538 5.067 17.102 2.402 6.144 5.75 11.981 9.537 17.375 9.702 14.086 22.45 25.953 36.227 35.992 3.91 2.947 8.486 5.619 11.318 9.67 1.69 2.586 2.88 5.637 2.908 8.756.247 6.925-1.36 14.241-2.809 20.992-.78 3.842-1.895 7.574-2.85 11.37-1.25 4.955-2.425 9.61-5.38 13.886-5.312 7.893-13.908 13.036-20.477 19.75-7.925 0-15.526 1.251-22.291 5.6-3.248 2.06-6.01 5.249-8.627 8.049-.48-4.796-1.658-9.478-3.385-13.977-1.288-3.48-3.27-6.661-5.654-9.489 1.736-3.238 3.818-6.133 6.06-9.029.507 1.128.768 2.183 1.914 2.846 1.841 1.055 4.966.652 5.647-1.655.996-3.375.84-7.421 1.113-10.875.32-3.708 1.663-6.984 3.307-10.273 5.527-10.839 12.973-19.426 20.687-28.666 4.71-5.64 9.18-10.999 12.328-17.723-3.458-2.754-6.953-5.43-10.232-8.398-3.284-2.754-6.29-5.912-9.309-8.963-7.801-8.199-14.74-16.703-19.6-27.012-2.188-4.49-3.863-9.15-4.74-14.078-.703-3.764-.799-7.66-.826-11.482zm-82.643 6.818.055.229.04.207c.544 2.594.494 5.225.448 7.879-.347 6.614-.826 13.254-1.69 19.822 6.67.827 13.544.608 20.327.498 16.375-.932 32.864-4.554 47.887-11.2 4.06-1.799 7.8-3.974 11.609-6.212-3.257 2.992-7.084 5.487-10.943 7.629 4.604 8.961 10.34 17.43 16.279 25.56 3.782 5.185 7.916 10.095 11.73 15.247 1.735 2.466 3.46 5.422 3.693 8.482.178 1.987-.009 3.823-.635 5.72-1.73 5.562-4.105 10.792-6.695 16-5.61 10.83-12.058 20.963-20.32 29.98-2.151 2.41-4.449 4.687-6.934 6.76-.424.339-.847.685-1.363.868-1.087-.516-2.054-1.287-3.113-1.867-6.596-3.412-13.737-4.742-21.1-5.098-7.322-.251-14.902.552-21.85 2.96-7.838 2.776-14.663 8.17-18.998 15.282-4.691 7.51-6.846 16.006-7.358 24.79-2.594-2.212-5.431-4.01-8.738-4.942.073-4.27 1.133-8.566 2.494-12.59 1.526 1.251 3.394 2.906 5.518 2.138 1.22-.913 1.795-2.696 2.023-4.148.452-3.444-1.585-6.636-2.265-9.97-.914-4.44-.854-9.309-.96-13.804-.74-10.149-.269-20.427-.392-30.604-.133-2.75.867-5.44 1.812-7.994 1.325-3.092 2.398-6.925 1.512-10.264-.356-1.74-1.237-3.15-1.908-4.758-.827-2.114-.445-4.48-.166-6.664 1.032-7.166 2.047-14.335 3.152-21.492 2.179-12.835 4.5-25.642 6.848-38.445zM324.57 23.226c6.966.31 13.42 3.604 18.188 8.61.804.872 1.544 1.859 2.434 2.64.955-.228 1.768-1.33 2.535-1.937 4.673-4.407 10.15-7.646 16.339-9.427 1.15 8.368.9 16.759-.558 25.067 5.806 1.658 10.611 5.723 13.785 10.793 4.262 6.6 5.93 14.845 4.641 22.59-.59 3.376-2.046 6.478-4.234 9.113 6.641 3.855 13.068 8.99 17.033 15.671-7.158 3.362-14.982 4.814-22.865 4.71.2 1.762.443 3.457.087 5.22-.7 3.937-1.987 7.893-4.084 11.314-3.521 5.933-9.446 10.451-15.822 12.931-4.129 1.658-8.496 1.896-12.885 1.494-2.663-.343-4.92-1.38-7.326-2.476-2.257 7.55-5.993 14.603-11.255 20.49-5.066-5.559-8.218-12.365-10.04-19.613-3.833 1.973-8.163 2.919-12.47 2.535-6.094-.589-11.734-3.179-16.462-7.016-5.198-4.106-9.665-9.957-11.223-16.475-.654-2.49-.516-4.942-.256-7.472-4.403.146-8.674-.197-12.926-1.384-3.065-.736-5.81-2.129-8.596-3.554 3.361-6.294 8.957-11.488 15.164-14.932-2.842-3.841-4.92-8.039-5.28-12.872-.129-2.973-.17-6.13.575-9.02 1.576-6.788 5.559-13.229 11.177-17.399 2.946-2.201 6.303-3.48 9.843-4.39-2.79-7.732-3.047-15.693-2.151-23.796 2.937.593 5.741 1.119 8.486 2.375 4.08 1.873 7.793 4.53 10.761 7.91 6.966-7.106 17.247-12.364 27.383-11.701z"/>
<path d="M322.86 26.359c-2.565-.033-5.14.362-7.535 1.205-3.34 1.128-6.686 2.585-9.572 4.627 3.599.215 6.544 1.417 9.517 3.38 1.571.983 3.002 2.29 4.664 3.102 1.032.466 2.101.37 3.074-.183 3.412-1.873 6.802-5.028 10.693-6.197 1.59-.526 3.088-.302 4.71-.178-2.832-2.43-6.163-3.787-9.67-4.91a22.764 22.764 0 0 0-5.881-.846zm14.129 8.36c-1.114-.045-2.239.222-3.307.624-4.092 1.585-6.672 5.404-10.93 6.445-2.023.54-3.892-.145-5.568-1.255-2.603-1.75-5.297-3.925-8.344-4.903-1.982-.57-4.372-.813-6.254.201-2.59 1.44-4.37 3.993-5.023 6.865-.94 4.13.095 8.427 2.229 12.021 2.201 3.805 5.289 6.515 7.81 10.045 5.426-3.037 11.742-4.352 17.89-3.173 3.07.52 5.851 1.749 8.578 3.197 2.841-3.32 5.718-6.437 7.596-10.447 2.11-4.326 2.895-9.464 1.457-14.123-.722-2.101-2.028-4.156-4.157-5.047a5.328 5.328 0 0 0-1.978-.451zm20.75 16.495c-1.334.036-2.673.28-3.918.623-4.28 1.092-8.18 3.951-11.172 7.135-2.074 2.48-3.772 5.229-6.033 7.572 3.937 3.252 6.969 7.436 8.412 12.369 1.238 3.933 1.12 8.013.61 12.055 3.256 1.38 6.132 2.954 9.64 3.703 4.202.918 8.934.787 12.922-.935 2.74-1.202 4.957-3.459 5.765-6.377.443-2.248.382-4.792-1.029-6.701-1.905-2.727-4.987-3.543-7.074-6.16-1.471-1.622-2.033-3.574-1.969-5.739-.078-2.891 1.334-4.996 1.805-7.75.25-1.507.341-3.106.058-4.613-.47-2.042-2.242-3.765-4.133-4.555-1.221-.49-2.55-.663-3.884-.627zm-71.999.469c-1.862-.06-3.768.27-5.426 1.072-2.562 1.206-4.143 4.078-3.988 6.873.119 2.604 1.375 5.144 1.736 7.752.42 2.722-.119 5.573-2.101 7.578-2.458 2.576-5.535 3.426-7.518 6.193-1.594 2.12-2.128 4.97-1.215 7.487.95 2.667 3.33 4.585 5.961 5.48 3.435 1.266 6.92 1.225 10.51.809 4.166-.566 8.18-1.89 12.053-3.494-.274-2.681-.373-5.362-.13-8.057.794-6.563 4.14-12.616 9.26-16.805-2.867-4.134-5.375-8.067-9.509-11.113-2.288-1.612-5.001-3.147-7.797-3.59a13.42 13.42 0 0 0-1.836-.185zm-10.141 1.26c-10.309 5.06-16.197 17.397-13.881 28.6.388 1.869 1.325 3.394 2.316 4.993.206-2.005.243-3.937 1.317-5.719 1.585-2.653 4.22-4.416 6.777-6.033 1.567-1.028 2.895-2.225 3.188-4.18.612-3.827-2.078-7.956-1.639-11.899.11-2.123.98-3.904 1.922-5.763zm92.695 1.177c.224 1.535.494 3.033.44 4.59-.05 4.435-2.222 7.788-1.518 12.328.288 1.768 1.842 2.59 3.2 3.49 2.434 1.494 4.593 3.394 5.794 6.034.671 1.452.735 2.91.863 4.472h.627c1.562-3.558 2.147-7.404 1.658-11.26-.776-7.586-4.651-15.31-11.065-19.654zM296.838 94.1c-3.376 1.435-6.834 2.326-10.127 3.961-3.869 1.941-7.733 4.416-9.984 8.235-1.234 2.178-2.096 5.12-1.393 7.587.621 2.353 2.937 3.73 5.139 4.338 3.731.676 8.578-.164 11.844 1.983 2.777 1.744 3.444 4.946 4.449 7.838.964 3.142 2.689 5.966 5.47 7.802 2.211 1.43 5.035 1.84 7.456.68 3.444-1.594 6.016-5.038 7.523-8.432 2.22-5.18 1.83-11.515 2.123-17.047-7.249-.616-14.086-4.042-18.617-9.779-1.717-2.151-2.951-4.585-3.883-7.166zm47.882.453c-2.773 6.843-8.488 12.51-15.481 14.963-2.224.823-4.504 1.142-6.838 1.485-.351 4.924-.497 9.614 1.276 14.319 1.557 4.581 5.134 8.701 9.642 10.56 3.54 1.448 8.486.297 10.121-3.416 1.467-3.449 1.727-6.952 4.221-10.008 1.722-2.206 4.426-2.762 7.053-3.096 2.243-.251 4.667.155 6.845-.402 2.576-.754 4.898-2.76 5.538-5.436.721-3.252-.45-6.444-2.487-8.97-2.334-2.855-5.713-4.989-9.052-6.487-3.517-1.594-7.294-2-10.838-3.512zm-71.99 20.836c.598 3.7 1.42 7.227 3.434 10.447a32.112 32.112 0 0 0 11.904 10.94c4.855 2.621 10.445 3.777 15.935 3.023-1.37-.548-2.682-.96-3.897-1.819-2.188-1.493-3.68-3.767-4.846-6.1-1.22-2.454-1.68-5.217-2.863-7.665-.671-1.402-2.019-2.066-3.48-2.363-3.609-.722-7.752-.068-11.424-1.447-2.197-.813-3.687-2.576-4.6-4.686zm95.591 3.03c-2.38 1.685-4.74 3.146-7.685 3.58-2.686.525-5.497.07-8.114.736-1.466.384-2.694 1.187-3.375 2.58-1.658 3.303-2.082 7.605-4.48 10.588-1.28 1.603-2.933 2.312-4.692 3.235 2.686.233 5.226.452 7.88-.242 4.882-1.115 9.14-3.724 12.78-7.118 3.841-3.617 6.772-8.088 7.685-13.359z" fill="#f00000"/>
<path d="M361.37 27.935c-4.663 1.827-8.789 4.685-12.379 8.152-.909.91-1.968 1.864-2.566 3.01.059 1.827.543 3.622.566 5.463.027 2.316-.397 4.724-.836 6.994 1.79-.809 3.604-1.727 5.477-2.32 2.731-.836 5.573-1.234 8.427-1.252 1.677-6.518 2.16-13.37 1.31-20.047zm-80.938.324c-.301 6.97-.154 13.694 3.03 20.07 4.046-.155 7.668.825 11.222 2.72-1.032-4.507-.558-8.923.817-13.29a35.658 35.658 0 0 0-13.643-8.974c-.475-.174-.951-.352-1.426-.526zm94.919 64.82c-1.352.716-2.489 1.79-3.836 2.53-2.718 1.567-5.59 2.178-8.633 2.772 2.143 1.927 4.147 3.846 5.659 6.326.64 1.014 1.143 2.162 1.892 3.094 6.705.607 13.228-.462 19.586-2.586-.658-1.019-1.348-2.005-2.207-2.863-3.293-3.344-6.87-6.35-10.926-8.725-.493-.256-.973-.508-1.535-.549zm-109.4 1.132c-5.184 2.955-10.214 6.898-13.662 11.812 5.732 2.37 12.304 3.07 18.447 3.426.772-.393 1.143-1.8 1.623-2.531 1.781-3.577 4.572-6.007 7.486-8.62-3.106-.182-5.993-.259-8.939-1.396-1.8-.662-3.324-1.718-4.955-2.691zm55.003 33.224c-1.06 2.092-1.94 4.185-3.334 6.094-1.233 1.758-2.768 3.166-4.367 4.582.772 4.668 2.156 9.203 4.302 13.424.708 1.434 1.691 2.663 2.788 3.814 4.115-5.39 7.162-11.602 9.076-18.1-2.485-2.047-5.098-4.382-6.783-7.155-.553-.89-1.093-1.79-1.682-2.658z" fill="#094"/>
<path d="M316.58 64.554c4.718-.955 9.688-.32 14.023 1.758 5.321 2.462 9.482 7.354 11.456 12.83 1.256 3.422 1.338 7.044.904 10.625-.73 4.07-2.772 7.965-5.586 10.984-3.352 3.655-8.039 6.094-12.908 6.957-4.079.484-8.167.315-11.999-1.279-9.048-3.343-15.037-13.04-13.927-22.623.43-4.248 2.261-8.217 4.865-11.56 3.27-3.98 8.14-6.72 13.173-7.693z" fill="#fcdb00"/>
<path d="M105.97 83.795c-.877.007-1.762.08-2.652.19-4.043.771-7.524 2.845-10.557 5.572.415 2.188 1.297 4.194 2.964 5.71a7.07 7.07 0 0 0 6.108 1.417c2-.475 4.191-1.335 5.594-2.897.703-.785 1.26-1.7 1.142-2.8-.224-1.6-1.356-3.193-2-4.645 1.63-.722 3.278-1.023 5.014-1.361-1.8-.905-3.684-1.203-5.613-1.186zm-4.922 2.51a4.322 4.322 0 0 1 4.322 4.322 4.322 4.322 0 0 1-4.322 4.322 4.322 4.322 0 0 1-4.322-4.322 4.322 4.322 0 0 1 4.322-4.322zM51.665 97.7c-2.311.036-4.772 1.306-4.562 3.951 2.124.95 4.896.772 5.974-1.563.553-1.141-.275-2.169-1.412-2.388z" fill="#fff"/>
<path d="M51.143 113.82c10.128.891 20.28 1.177 30.426 1.745-.685.26-1.38.49-2.096.64-5.194.945-10.278 1.183-15.526 1.662-3.928.416-7.934.462-11.876.375-2.352-.041-4.567-.238-6.654-1.43-1.33-.758-4.177-3.26-3.751-4.628 0 0 6.54 1.558 9.478 1.636z" fill="#f00000"/>
<path d="M209.65 374.5c-6.07.228-12 .946-17.596 3.45-6.527 2.717-12.054 7.498-15.891 13.417-3.805 5.554-6.066 12.197-6.773 18.875a50.618 50.618 0 0 0 .43 12.1c-.91.384-2.188 1.123-2.97.113-1.589-1.795-2.782-3.85-4.623-5.445-1.996-1.768-4.311-3.566-6.865-4.42-.799.886-1.442 1.928-2.164 2.873-3.01 4.015-6.702 7.5-11.174 9.834-1.292.69-2.68 1.045-4.101 1.356-.366-2.764.558-5.12 1.53-7.637 1.152-2.887 2.796-5.513 3.952-8.404-3.659 2.078-5.369 5.322-8.516 7.994-2.745 2.361-5.864 4.74-9.66 4.75.082-1.544.283-3.047.822-4.504 1.937-5.38 5.125-10.167 9.145-14.219-5.445-1.087-10.898-1.714-16.434-.896-1.325 3.229-3.221 6.135-6.063 8.222-3.439 2.572-7.714 4.723-12.104 4.586.63-5.837 4.285-11.67 7.135-16.668-1.895 1.59-2.868 3.623-4.197 5.647-1.48 2.27-2.645 4.566-4.275 6.709-1.818 2.452-4.088 4.427-5.774 6.994-3.232 4.692-4.69 10.169-5.19 15.77 33.716 24.204 75.027 38.499 119.7 38.499 44.217 0 85.134-14.008 118.66-37.76-.078-1.797-.265-3.592-.445-5.412-.858-6.34-3.403-12.628-8.039-17.15-2.338-2.398-5.23-4.056-8.363-5.184-4.047 5.047-9.096 9.45-15.422 11.277-.69-2.138.256-4.581.873-6.65.872-2.814 2.349-5.267 3.865-7.766-1.809 1.183-3.225 2.763-4.906 4.092-2.946 2.384-6.34 4.23-9.875 5.582-1.43.566-2.9.663-4.422.685-.036-2.484 1.087-4.416 2.215-6.53 1.283-2.294 2.993-3.993 4.555-6.095-6.19.393-13.36 1.664-18.398 5.528-3.645 2.64-6.579 6.088-8.534 10.148-.516.895-.998 2.367-2.1 2.65-.67-.077-1.316-.256-1.896-.603-.329-.827-.186-1.883-.218-2.76.264-7.263-1.217-15-4.93-21.313-.649-1.165-1.46-2.156-2.424-3.074-3.526 4.796-7.958 8.656-13.754 10.383-1.265.347-2.466.27-3.764.242.32-4.417 2.11-8.116 4.198-11.926-3.618 2.096-6.57 4.938-10.396 6.715-1.914 1.037-3.84 1.41-6.01 1.424.16-1.558.457-3.032 1.21-4.42 2.983-6.153 8.966-11.003 14.562-14.717-3.129-2.266-6.971-3.641-10.652-4.72-4.6-1.333-9.184-1.452-13.93-1.644z" fill="#094"/>
<path d="M2.5 2.5v265.63C2.539 381.57 94.533 473.5 208 473.5c113.47 0 205.46-91.938 205.5-205.37V2.5z" fill="none" stroke="#000" stroke-width="5"/>
</svg>
