<?xml version="1.0" encoding="UTF-8"?>
<svg width="600" height="704" xmlns="http://www.w3.org/2000/svg">
 <g stroke-width="2">
  <path d="M447.19 36.283c-74.196 0-135.71-15.537-147.25-24.638-11.527 9.101-73.048 24.638-147.25 24.638-69.879 0-128.52-14.752-144.74-23.072v305.14c0 101.16 57.226 198.16 116.65 259.78 82.663 85.723 175.33 116.65 175.33 116.65s92.673-30.926 175.33-116.65c59.422-61.622 116.65-158.62 116.65-259.78V13.211c-16.225 8.32-74.864 23.072-144.74 23.072" fill="#f00000"/>
  <path d="M16.023 25.197v293.15c0 125.78 87.553 226.36 114.39 254.19 72.801 75.493 154.18 108 169.52 113.68 15.349-5.69 96.864-38.32 169.53-113.68 26.835-27.828 114.39-128.4 114.39-254.19V25.197c-26.147 8.984-78.147 19.159-136.67 19.159-42.656 0-77.191-4.922-98.648-9.05-21.629-4.164-39.056-9.302-48.618-14.234-20.745 10.584-80.282 23.284-147.23 23.284-58.526 0-110.52-10.175-136.67-19.159zm283.91 678.11-2.555-.854c-3.86-1.287-95.506-32.544-178.59-118.7C90.893 554.825-.122 450.193-.122 318.363V.003l11.757 6.03c15.081 7.735 71.938 22.182 141.05 22.182 74.71 0 133.57-16.053 142.24-22.902l5-3.949 5.003 3.95c8.678 6.848 67.538 22.901 142.24 22.901 69.112 0 125.98-14.447 141.06-22.182l11.755-6.03v318.36c0 131.83-91.02 236.47-118.92 265.39-83.08 86.156-174.73 117.41-178.59 118.7z"/>
  <path d="M515.98 168.22c-2.96-20.414-12.514-35.099-30.064-46.214-19.393-12.28-33.584-14.859-42.075-14.859-7.444 0-11.47 1.895-12.201 2.276-.575.269-2.22 1.14-2.397 2.563-.176 1.377.109 3.788 4.005 4.494.4.073.945.16 1.62.267 23.87 3.808 41.156 12.02 51.385 24.41 16.693 20.22 18.814 52.077 4.728 71.01-14.023 18.853-41.611 27.008-52.589 27.008-10.088 0-23.794-6.31-24.371-6.579l-.145-.067-59.483-4.15-38.857 17.213-30.084-.472-25.407-11.055-22.6-19.797v-57.555l-10.433-26.563-18.893-17.004v-8.708l-20.23-26.42-9.495-7.563v17.508l-11.402-9.464-7.822-1.45 5.166 28.429-1.106.734-24.226 16.077-1.416 7.56-36.952 19.42-5.312 9.36 1.641 4.105 12.964 12.717 13.583.248.16-.067c3.943-1.608 10.4-4.169 12.024-4.62l.25-.071.261-.004c.908-.015 3.634-.075 6.823-.148l.983 3.806-22.947 12.007-.12.07c-.15.094-4.859 2.927-12.333 2.927-2.3 0-4.182-.747-5.354-1.372l-1.255-.668 1.111-7.523-5.916-2.365-5.736 6.516-.054.167c-.08.256-1.978 6.403 1.731 11.84 1.802 2.793 5.48 4.188 10.956 4.188 6.109 0 12.267-1.77 13.581-2.172l6.4-2.381 2.722-1.011v4.18l4.782 4.516h11.277l22.087-14.182.499-.321h8.193v84.978l-6.181 9.034v53.97l5.323 9.631-.972 1.068-19.74 21.694-.228.252-.299.161-44.26 24.141-8.06 15.143-.233 31.033-.006.729-7.88 9.315 1.245 11.941 13.402 23.639h24.624v-13.381h-4.295l-.11-6.472-11.172-11.17-.592-.591V433.97l.024-.155 1.124-7.199h11.373l1.348-13.517-1.733-1.448-.723-.606v-7.03l1.556-.368 52.64-12.358 15.468-10.802v-8.873h17.647l19.508 34.748.194.347 5.713 46.341 6.22 8.294.405.539v17.429l-.637.597-14.12 13.258-.364.34-.478.132-10.746 2.985-.21.056-.254.071-.62.178-9.335 2.625-3.305 4.597.137 8.694h8.23v6.013l10.051.113 1.996.022v1.143h6.476l29.433-19.407v-23.245l11.557-11.557-9.511-23.778-.143-.362V376.99l5.547-5.55v-9.088l-3.265-3.26h26.9l59.115-33.015.476-.267.545.01 6.123.115 6.003.116-4.853 3.533-13.84 10.084 2.336 7.416 4.843 1.423 4.807-3.186 3.134-2.077v15.23l33.049 41.135v16.461l-.087.285-12.635 41.645-.058.193-.095.176-11.753 21.893-1.215-.008-10.068-.063-.617-.004h-.404l-.708-.004-.499.004h-11.872l-9.309 8.51v8.696h10.578v3.566h39.224l8.813-8.811v-28.603l.393-.535 29.8-40.36V409.77l-5.636-9.02-.307-.49V379.67l3.255 2.527 10.76 8.346.067.053.06.054 40.725 37.303.509.468.115.682 8.31 48.622-.987.741-8.265 6.2-.345.26-.42.095-9.543 2.155-5.094 7.131v11.882h11.412v3.804h13.226l16.818-16.814v-59.319l.13-.345 5.773-15.29-1.76-7.035-15.569-5.295-.504-.171-.351-.398-29.657-33.364-.196-.22-.127-.268-10.02-21.556-.187-.406V323.57l.184-.4 8.37-18.29.967-26.09-9.985-16.94 2.545-.697c5.597-1.535 17.528-5.317 34.534-13.416 12.816-6.1 23.637-17.284 28.944-29.913 6.114-14.55 7.561-29.848 4.695-49.604" fill="#fff"/>
  <path d="m443.35 258.29-4.165.846 12.169 20.646-.898 24.194-8.583 18.757v27.64l10.932 23.519 30.73 34.568.53.599 15.047 5.115.954 3.823-5.727 15.167v58.42l-14.55 14.553h-7.767v-6.184l5.77-5.77-4.28-4.28-7.544 7.544v4.886h-5.358v-6.78l3.522-4.93 9.33-2.108 12.143-9.107-9.047-52.934-42.293-38.744-36.637-28.44-27.59-36.998-19.1-.361-59.628 33.303h-26.648l-6.39-6.391V322.12h-6.055v29.229l12.602 12.604v5.892l-5.547 5.548v67.143l8.984 22.464-10.887 10.887v22.767l-26.73 17.623h-1.453v-4.03l10.925-8.284-3.657-4.823-13.323 10.1v5.868l-5.993-.064v-8.851l3.703-6.171 10.966-3.043 17.034-15.991v-20.39l-6.78-9.039-5.682-46.075-20.192-35.973v-19.177h-6.054v17.42h-12.63l-16.82-14.827-9.354-16.927v-51.78l1.616-2.365 5.613 18.933 5.801-1.721-6.849-23.118v-85.476l11.993-3.366 13.28-11.458 4.303-13.412-5.764-1.849-3.781 11.79-10.972 9.464-12.504 3.511h-9.743l-22.587 14.503h-8.61l-2.453-2.32v-.239l11.714-.202 25.433-17.228-9.404-13.099-1.598.039c-8.008.19-20.168.474-20.852.474-.642 0-1.516 0-13.167 4.744l-11.25-.204-5.604-5.499v-3.806h6.064v-9.381h-6.064v-2.083l35.105-18.455 1.46-7.79 24.328-16.143h10.586l2.948 5.529 5.342-2.85-3.45-6.463V78.389l2.649 2.084 8.419 10.994v23.48h6.054V99.372l4.881 6.375v9.12l19.492 17.542 9.834 25.035v58.576l24.37 21.346 26.667 11.604 31.7.496 38.759-17.167 57.83 4.034c2.762 1.24 15.51 6.704 25.483 6.704 11.632 0 40.856-8.627 55.685-28.565 15.34-20.618 13.21-53.903-4.847-75.776-10.847-13.137-28.932-21.804-53.755-25.764-.642-.101-2.05-.27-1.926-.932.19-.884 2.96-.933 6.054-1.23 8.006-.492 22.287.594 44.247 14.498 16.751 10.609 25.481 24.026 28.306 43.504 2.797 19.28 1.474 33.5-4.433 47.554-4.95 11.779-15.06 22.218-27.041 27.923-23.36 11.123-37.206 14.007-37.341 14.035zm-23.669 152.59v10.502l-30.195 40.893v28.276l-6.548 6.548h-19.97v-1.188l4.7-4.7-4.28-4.28-6.474 6.473v3.695h-7.737v-4.027l9.143-9.013 13.412.085 12.986-24.196 13.2-43.302V398.25l-33.049-41.135v-13.5h13.52l14.632 19.625.246.33 20.473 15.885v21.917zm-81.085 82.653v-3.128l6.946-6.355h4.161l-6.58 6.486v2.997zm13.831-149.24-1.14-.335-.884-2.805 16.947-12.346 6.522 8.748h-11.279zm-143.58 164.69-.056-3.612 1.77-2.464 1.79-.503-1.268 2.111v4.468zm-30.627-121.28-56.456 13.256v11.896l2.272 1.899-.797 8.003h-11.186l-1.667 10.683-.036 22.287 11.791 11.791.044 2.652h-7.858v6.054h12.191v5.656H108.01l-11.896-20.977-.99-9.5 7.722-9.124.238-32.213 7.072-13.284 44.11-24.063 18.938-20.808 2.688 4.864 15.537 13.696v8.005zm-61.246-191.94c-7.483 3.027-18.152 2.103-20.592-1.679-2.123-3.114-1.675-6.698-1.406-8.022l3.331-3.785.553.22-.962 6.514 1.237 1.087c.389.345 3.987 3.37 9.488 3.37 8.1 0 13.408-2.934 14.324-3.479l32.585-17.052 3.742 5.211-18.792 12.73-15.864.272v.372zm48.337-113.64 10.899 9.05v11.245h-8.496l-3.735-20.541zm348 136.56c6.276-14.937 7.77-30.595 4.843-50.767-3.057-21.096-12.927-36.27-31.057-47.75-35.478-22.464-54.567-13.66-56.458-12.681-.878.412-3.247 1.744-3.568 4.238-.349 2.775.987 6.052 5.792 6.926.408.074.969.163 1.665.274 23.324 3.72 40.16 11.672 50.04 23.64 16.09 19.49 18.18 50.132 4.66 68.308-13.563 18.233-40.223 26.123-50.83 26.123-9.656 0-23.31-6.31-23.446-6.375l-.509-.238-60.435-4.216-38.913 17.238-29.164-.456-24.69-10.746-21.597-18.915v-56.978l-10.774-27.433-18.551-16.695v-8.473L189.487 76.5l-13.278-10.58v17.385l-8.248-6.847-11.509-2.13 5.48 30.134-24.903 16.525-1.392 7.426-36.58 19.228-6.151 10.837 2.204 5.509 13.916 13.654 14.905.27.575-.236c4.744-1.935 10.425-4.153 11.769-4.534.861-.014 3.23-.067 6.072-.131l-22.289 11.664-.202.115c-.042.026-4.347 2.631-11.234 2.631a9.248 9.248 0 0 1-4.213-1.055l1.136-7.709-8.958-3.582-7.061 8.022-.194.603c-.095.3-2.3 7.424 2.004 13.739 2.567 3.977 7.67 5.144 12.778 5.142 6.492 0 12.988-1.885 14.281-2.283l6.221-2.312v1.97l6.103 5.765h12.79l22.587-14.503h5.358v82.106l-6.181 9.034v55.212l4.837 8.753-19.635 21.578-44.814 24.444-8.621 16.196-.236 31.509-7.971 9.422 1.388 13.323 14.26 25.148h28.09v-17.764h-4.33l-.09-5.203-11.748-11.747V434.15l.831-5.331h11.484l1.659-16.646-2.56-2.14v-4.272l52.915-12.423 16.747-11.698v-7.823h14.172l18.862 33.6 5.731 46.493 6.538 8.715v15.75l-14.035 13.176-10.705 2.973-.215.06-.937.26-.004.005-10.007 2.815-4.175 5.81.182 11.575h8.195v5.989l12.047.135v1.167h9.325l30.966-20.418v-23.518l11.938-11.936-10.036-25.09v-63.47l5.547-5.548v-10.907l-.159-.157h22.172l59.573-33.273 5.56.105-14.697 10.705 3.16 10.034 6.942 2.044 5.39-3.574v11.918l33.049 41.133v15.367l-12.623 41.603-11.12 20.715-9.964-.063v-.006h-1.045l-1.26-.008-.006.008h-12.657l-10.647 9.74v11.851h10.58v3.566h42.324l10.094-10.096v-28.787l30.195-40.895v-14.229l-5.943-9.51v-15.487l10.473 8.129 40.677 37.258 8.074 47.245-8.15 6.112-10.322 2.331-5.988 8.387v14.774h11.412v3.804h16.328l18.097-18.1v-59.825l6.008-15.902-2.218-8.86-16.655-5.664-29.606-33.307-9.995-21.5v-24.98l8.536-18.653 1.007-27.164-8.857-15.026c5.848-1.616 17.793-5.446 34.679-13.488 13.289-6.328 24.511-17.932 30.022-31.045z"/>
  <path d="m190.94 309.75 2.878.942 2.871.955c.24-.723 6.734-22.654 8.034-27.043l-5.806-1.717a9277.1 9277.1 0 0 1-7.977 26.864m-40.542-182.62v-1.254h-6.054v7.308h1.19v11.412h19.337l-2.19-4.381c-.31-.62-2.952-5.617-7.717-7.031h5.798l9.638 4.26 2.448-5.538-10.81-4.776h-11.64"/>
  <path d="m254.61 200.7a7.37 7.37 0 1 1 0-14.739 7.37 7.37 0 0 1 0 14.739zm0-24.014a16.604 16.604 0 0 0-13.537 6.984l-72.771 19.266v23.362l73.705-19.512v-2.605a16.592 16.592 0 0 0 12.602 5.792 16.644 16.644 0 0 0 0-33.287z" fill="#fcdb00"/>
  <path d="M254.61 206.95a13.632 13.632 0 0 1-13.617-13.617c0-7.507 6.109-13.615 13.617-13.615s13.617 6.109 13.617 13.615a13.632 13.632 0 0 1-13.617 13.617zm-83.281 15.42v-17.101l64.302-17.024a19.516 19.516 0 0 0-.692 5.087 19.554 19.554 0 0 0 3.562 11.254zm83.281-48.706a19.631 19.631 0 0 0-15.311 7.35l-74.024 19.597v29.626l78.202-20.703a19.544 19.544 0 0 0 11.133 3.47c10.847 0 19.671-8.824 19.671-19.67s-8.825-19.67-19.671-19.67z"/>
  <path d="m254.61 197.67a4.348 4.348 0 0 1-4.343-4.345c0-2.395 1.948-4.342 4.343-4.342s4.343 1.947 4.343 4.342a4.348 4.348 0 0 1-4.343 4.345zm0-14.741a10.409 10.409 0 0 0-10.397 10.397c0 5.733 4.664 10.399 10.397 10.399s10.397-4.666 10.397-10.399a10.409 10.409 0 0 0-10.397-10.397z"/>
 </g>
</svg>
