<?xml version="1.0" encoding="UTF-8"?>
<svg width="620" height="710" xmlns="http://www.w3.org/2000/svg">
 <path d="m6.133 6.133v393.87c0 167.82 136.04 303.87 303.87 303.87s303.87-136.04 303.87-303.87v-393.87z" fill="#fff" stroke="#000" stroke-width="12"/>
 <path d="M284.948 33.824v35.17H224.98v56.698h-17.444V68.993H132.3v56.699h-15.86V68.993H85.355v98.298h76.823v-63.553h17.094v63.553h71.578v-63.57h15.862v63.57h18.23v28.785h-19.445v56.696h-15.865v-56.696h-70.767v56.696h-17.08v-56.696H84.938v103.977h33.144v-65.558h17.49v65.558h72.4v-65.558h18.317v65.558h58.697v20.728h-7.666l-.42.931a17.88 17.88 0 0 0-1.308 6.701 15.448 15.448 0 0 0 6.692 12.813 29.945 29.945 0 0 0 8.54 3.738H6.153v55.032c0 167.823 136.045 303.858 303.858 303.858 167.823 0 303.857-136.045 303.857-303.858v-55.033H331.413a29.91 29.91 0 0 0 8.488-3.711 15.466 15.466 0 0 0 6.68-12.813 18.318 18.318 0 0 0-1.29-6.7l-.419-.932h-7.351l-2.838-286.981z"/>
 <g fill="#fcdb00">
  <path d="M332.2 347.721h-44.104a29.85 29.85 0 0 1-12.395 15.291h68.911a29.85 29.85 0 0 1-12.395-15.29m29.414 18.71v-.532H259.627v.532s-1.054 7.11 13.181 18.458h75.646c14.236-11.34 13.18-18.458 13.18-18.458m-4.867 58.897v-.636h-90.72v.637s-.932 8.6 11.733 22.287h67.264c12.648-13.696 11.715-22.287 11.715-22.287m-8.148-37.274h-76.44c-14.227 10.808-1.056 33.47-1.056 33.47h78.508s13.18-22.68-1.056-33.47m-77.469 62.99a37.318 37.318 0 0 0 40.72 33.147 37.326 37.326 0 0 0 40.728-33.147zm51.85 44.452c0 4.57-5.365 8.27-12.003 8.27s-11.986-3.698-11.986-8.27 5.373-8.27 11.986-8.27 12.002 3.708 12.002 8.27m73.327 8.252a17.986 17.986 0 1 1-17.988-17.988 17.986 17.986 0 0 1 17.988 17.988m-68.503 46.127a17.986 17.986 0 1 1-17.986-17.986 17.986 17.986 0 0 1 17.986 17.986m37.562 44.776a41.94 41.94 0 0 0 26.17-11.096 36.864 36.864 0 0 0 11.985-28.332 43.946 43.946 0 0 0-4.92-20.36 50.76 50.76 0 0 0-4.763-7.432l-.872-.872a57.476 57.476 0 0 1 2.05 30.688c-1.632 15.107-22.209 26.334-29.396 29.824 0 .645.07 1.334.07 1.927a47.558 47.558 0 0 1-.315 5.635"/>
  <path d="M509.821 425.771a89.987 89.987 0 0 0-31.49-51.465 79.834 79.834 0 0 0-27.757-12.98 80.697 80.697 0 0 0-64.062 6.507 48.457 48.457 0 0 0-24.851 51.597 32.633 32.633 0 0 0 15.98 21.807 31.516 31.516 0 0 0 9.49 4.362 28.053 28.053 0 0 0 35.05-18.431 24.948 24.948 0 0 0-.27-13.67 27.695 27.695 0 0 0-27.086-19.496s-.488.34-.488-.497a22.209 22.209 0 0 1 14.934-8.732l.48-.078a58.906 58.906 0 0 1 16.809-2.425h.114a61.201 61.201 0 0 1 48.23 22.218 70.308 70.308 0 0 1 13.319 41.092 69.498 69.498 0 0 1 .077 3.29 52.731 52.731 0 0 1-26.98 47.104 71.895 71.895 0 0 1-14.829 6.315 107.346 107.346 0 0 1-29.074 3.594c-4.92 0-12.308-.646-17.027-1.047a18.5 18.5 0 0 1-7.772 16.33c.14.174 2.041 2.678 2.276 2.922.533.558 1.012.986 1.36 1.43a53.734 53.734 0 0 1 5.052 7.851 46.895 46.895 0 0 1 5.295 21.807 40.126 40.126 0 0 1-13.085 30.749 44.906 44.906 0 0 1-29.998 11.89h-1.326l.4-1.902a40.414 40.414 0 0 0 .542-6.926v-.793a23.553 23.553 0 0 0-5.775-16.871 20.456 20.456 0 0 0-15.457-4.675 25.628 25.628 0 0 0-24.965 21.152 39.533 39.533 0 0 0 .802 19.906 40.126 40.126 0 0 0 17.123 17.23 67.525 67.525 0 0 0 59.1-1.37c66.808-33.611 35.188-98.448 35.188-98.448 51.789 0 73.936-49.425 73.936-49.425a99.89 99.89 0 0 0 8-32.276 66.915 66.915 0 0 0-1.222-17.673"/>
  <path d="M445.607 499.216a68.118 68.118 0 0 0 14.158-6.018 49.616 49.616 0 0 0 25.375-44.348c0-1.056 0-2.085-.08-3.123a67.255 67.255 0 0 0-12.682-39.35A58.06 58.06 0 0 0 426.8 385.39h-.174a54.03 54.03 0 0 0-19.147 3.297l-3.14 1.814a33.68 33.68 0 0 1 18.754 13.774 35.302 35.302 0 0 1 8.008-.75 47.104 47.104 0 0 1 28.394 12.962 43.327 43.327 0 0 1 7.562 8.652 34.892 34.892 0 0 1 5.732 17.631c.191 2.922.27 5.861.191 8.775a56.909 56.909 0 0 1-.916 9.002 34.413 34.413 0 0 1-18.475 25.393 85.861 85.861 0 0 1-9.176 4.772 144.637 144.637 0 0 1-35.19 9.96c-2.537.43-5.103.918-7.675 1.197 5.138.461 10.466.767 15.85.767a103.419 103.419 0 0 0 28.183-3.49m-220.763 4.606a17.986 17.986 0 1 0 17.987-17.988 17.986 17.986 0 0 0-17.987 17.988m30.93 90.903a41.94 41.94 0 0 1-26.169-11.096 36.864 36.864 0 0 1-11.984-28.332 43.946 43.946 0 0 1 4.919-20.36 51.718 51.718 0 0 1 4.763-7.432l.872-.872a57.415 57.415 0 0 0-2.059 30.688c1.631 15.107 22.218 26.334 29.414 29.824 0 .645-.07 1.334-.07 1.927a47.558 47.558 0 0 0 .315 5.635"/>
  <path d="M111.257 425.771a89.987 89.987 0 0 1 31.49-51.465 79.737 79.737 0 0 1 27.756-12.98 80.706 80.706 0 0 1 64.062 6.507 48.457 48.457 0 0 1 24.853 51.597 32.667 32.667 0 0 1-15.981 21.807 31.202 31.202 0 0 1-9.482 4.362 28.044 28.044 0 0 1-35.04-18.441 24.948 24.948 0 0 1 .27-13.668 27.687 27.687 0 0 1 27.041-19.497s.497.34.497-.497a22.209 22.209 0 0 0-14.916-8.721l-.488-.08a58.767 58.767 0 0 0-16.801-2.424h-.113a61.201 61.201 0 0 0-48.23 22.218 70.308 70.308 0 0 0-13.32 41.058 59.505 59.505 0 0 0-.079 3.29 52.731 52.731 0 0 0 26.98 47.104 71.895 71.895 0 0 0 14.83 6.315 107.297 107.297 0 0 0 29.056 3.594c4.938 0 12.317-.646 17.036-1.046a18.476 18.476 0 0 0 7.773 16.328c-.14.175-2.05 2.679-2.277 2.923-.532.558-1.012.986-1.36 1.43a53.734 53.734 0 0 0-5.051 7.851 46.895 46.895 0 0 0-5.295 21.807 40.039 40.039 0 0 0 13.084 30.749 44.906 44.906 0 0 0 30.043 11.969h1.325l-.401-1.902a40.405 40.405 0 0 1-.54-6.926v-.794a23.553 23.553 0 0 1 5.774-16.87 20.447 20.447 0 0 1 15.456-4.676 25.628 25.628 0 0 1 24.967 21.153 39.663 39.663 0 0 1-.803 19.906 40.204 40.204 0 0 1-17.141 17.175 67.525 67.525 0 0 1-59.099-1.369c-66.818-33.609-35.188-98.447-35.188-98.447-51.789 0-73.937-49.425-73.937-49.425a99.608 99.608 0 0 1-8.007-32.276 67.394 67.394 0 0 1 1.238-17.673"/>
  <path d="M175.511 499.216a68.38 68.38 0 0 1-14.156-6.018 49.616 49.616 0 0 1-25.376-44.348c0-1.056 0-2.085.088-3.123a67.237 67.237 0 0 1 12.665-39.35 58.095 58.095 0 0 1 45.586-20.987h.158a54.03 54.03 0 0 1 19.146 3.297l3.15 1.814a33.671 33.671 0 0 0-18.78 13.774 35.302 35.302 0 0 0-8.009-.75 47.104 47.104 0 0 0-28.429 13.014 43.327 43.327 0 0 0-7.562 8.653 34.797 34.797 0 0 0-5.714 17.63c-.2 2.923-.288 5.861-.2 8.776a56.9 56.9 0 0 0 .915 9.001 34.413 34.413 0 0 0 18.476 25.394 85.861 85.861 0 0 0 9.177 4.77 144.637 144.637 0 0 0 35.188 9.963c2.556.427 5.104.916 7.677 1.195-5.13.462-10.468.767-15.85.767a103.469 103.469 0 0 1-28.185-3.489M311.75 611.84v25.165h-2.747V611.84c-8.427 23.552-41.618 25.296-41.618 25.296a34.953 34.953 0 0 0 30.164 16.32 49.434 49.434 0 0 0 12.832 23.318 49.495 49.495 0 0 0 12.84-23.317 34.944 34.944 0 0 0 30.147-16.321s-33.148-1.744-41.617-25.296m-.673-267.185c-28.864-.226-32.188-10.093-32.353-16.208a14.83 14.83 0 0 1 .715-4.483h63.285a15.353 15.353 0 0 1 .681 4.484c-.14 6.105-3.489 15.98-32.328 16.208m-81.682-47.742v-65.58H204.77v65.589h-66.059v-65.59h-23.806v65.59H88.1v-97.638h70.517v56.7h23.412v-56.7h64.43v56.7h22.2v-56.7h16.267v97.629zm40.483-132.745v-63.59h-22.2v63.59H182.44v-63.59h-23.413v63.59H88.51v-92.01h24.773v56.699h22.2v-56.7h68.913v56.7H228.2v-56.7h56.752v92.01zm18.214-127.233h43.415l2.8 283.861h-46.232z"/>
 </g>
</svg>
