<?xml version="1.0" encoding="UTF-8"?>
<svg width="416" height="476" viewBox="0 0 416 476" xmlns="http://www.w3.org/2000/svg">
<path d="M2.5 2.492v248.555h411V2.492H2.5z" fill="#fcdb00"/>
<path d="M203.553 63.455c-.754 0-1.79.224-2.145.916-.45.88-.067 2.207.645 2.893.547.527 1.543.054 2.302-.024.989-.618 1.41-1.683 1.313-2.822-.613-.65-1.362-.963-2.115-.963zm-11.98 30.315-5.177.95-3.4-.476-1.51.238-.078-.002 1.91 4.456 2.819 4.605 3.967 1.91.87-7.855zm6.78 8.777-.132.068-1.084 5.287.175 4.696 5.047-.846 3.502-1.215-3.132-4.574-3.99-3.332z" fill="#fff"/>
<path d="M233.963 37.306a6.842 6.842 0 0 0-3.482 1.246c-1.272.901-2.01 2.33-2.806 3.63-1.72-.01-3.615-.207-5.12.804-1.035.669-1.465 1.717-2.055 2.746-1.226.073-2.65.028-3.798.504-1.35.604-1.96 2.53-2.993 3.427-1.9.93-4.54.614-6.613.618-4.22.043-8.45.646-12.279 2.499-2.594 1.377-4.97 3.304-7.395 4.96-5.546 3.597-11.409 5.204-17.362 7.83-1.762.774-3.922 1.552-5.258 2.966-1.63 1.68-1.359 4.645-.535 6.64.668 1.913 2.388 3.537 2.718 5.514.256 3.524 1.368 6.897 3.656 9.625 2.563 2.933 6.16 5.08 10.068 5.514.59 1.794 1.304 3.501 2.316 5.098-7.286.993-15.162 2.155-22.483 1.18-6.174-.791-11.913-3.917-15.702-8.878-2.485-3.409-3.308-7.28-3.784-11.394-1.95 1.592-3.922 3.089-5.57 5.015-3.741 3.693-3.749 6.933-3.62 12.187-.247 5.661 2.375 10.29 6.723 13.692 2.819 2.22 6.521 3.226 10.036 3.601 6.329.367 13.143-1.885 19.243-3.445 3.203-.723 6.27-1.858 9.505-2.44 6.068-1.39 12.072-2.937 18.213-4.008.01 1.556.028 3.107.083 4.663-1.758.746-3.355 1.437-4.252 3.245-.97 2.009-.375 3.99.568 5.861 1.835 3.419 4.27 6.586 6.76 9.552 1.912-1.135 3.651-2.49 5.431-3.817l3.162-2.508c1.515-1.25 3.41-2.105 5.14-3.02-.468 3.656-2.714 5.963-5.085 8.544l-3.134 2.21c-3.3 1.579-6.65 2.338-10.32 2.082-5.528-.105-9.652-2.256-15.015-1.427-3.931.49-7.454 3.267-8.9 6.937-.65 1.68-.353 3.281.095 4.956-2.018.046-3.917.036-5.83.755-1.075.361-2.11.97-3.221 1.2-2.485-1.598-4.764-3.525-7.258-5.126-6.187-4.05-12.256-8.256-18.32-12.48-4.935-3.535-9.84-7.092-14.566-10.91-2.036-1.633-4.114-3.19-6.013-4.983-1.83-1.725-3.78-3.281-5.322-5.203-2.132-2.6-3.61-5.959-5.295-8.892-2.471-4.283-4.76-8.645-7.55-12.736 2.315-5.587 3.903-12.205 2.818-18.241-.773-4.411-1.94-8.521-4.988-11.93-2.69-3.043-6.324-4.769-10.232-5.652-3.167-.632-6.106-.179-9.231.338 3.716 3.025 7.432 5.895 9.524 10.315-1.483 1.268-2.888 2.334-3.442 4.307-.815 3.253-.26 6.882 1.849 9.555 1.098 1.395 1.78 2.632 2.178 4.38-1.953-.535-4.393-1.062-5.899-2.5-1.643-1.546-2.768-3.839-3.793-5.83-2.233-4.223-3.753-8.292-7.574-11.417-3.314-2.513-7.289-2.654-11.313-2.04-3.578.626-6.983 1.793-9.46 4.575-3.134 3.46-4.246 7.579-5.16 12.031 2.219-1.084 4.447-2.192 6.722-3.158 1.798-.787 3.66-.86 5.592-.87-.339 2.435-.778 4.61.6 6.838 2.397 3.601 6.214 5.135 10.1 6.585 2.334.796 3.989 2.304 5.788 3.89-1.956-.046-3.828.38-5.73.773-4.196.98-8.022 1.03-11.834 3.319-3.72 2.169-7.075 5.688-7.075 10.255-.274 4.155 1.3 7.647 3.232 11.193.887-1.77 1.578-3.651 2.553-5.372 1.849-2.887 4.85-4.37 8.145-4.97 2.087 4.093 3.525 5.355 7.79 6.059 1.967-.138 3.803-.17 5.642-.966 1.318-.49 2.746-1.464 4.165-1.5 1.706.434 3.203 2.05 4.489 3.198-1.803.998-3.524 1.826-4.8 3.515-1.213 1.551-1.795 3.354-1.868 5.313-.21 1.382.128 3.066-1.364 3.794-1.431.608-2.986.699-8.491.492a34.762 34.762 0 0 0 3.334 4.001c2.274 2.32 4.984 4.092 8.205 4.76 4.087.938 7.757-.064 11.6-1.391.202 2.256.285 4.32 1.644 6.237 1.863 2.82 4.91 4.045 8.21 4.105-.069 3.807.306 7.391 3.107 10.228 2.608 2.631 5.876 2.727 9.363 2.71.032 1.162.046 2.356.188 3.51.494 3.706 2.842 7.079 6.352 8.511 2.173.833 4.54.64 6.814.472-.046 3.02-.032 5.903 1.546 8.59 1.506 2.32 3.859 3.473 6.485 4.058 2.637.556 4.953-.242 7.45-1.016.81 4.023 1.684 8.183 5.052 10.9 2.105 1.8 4.613 2.362 7.313 2.509.069 1.29.042 2.65.486 3.876.65 1.867 1.821 3.345 3.148 4.773-3.047.668-6.081 1.282-9.184 1.639-4.766.82-9.59.877-14.397 1.198-9.432.215-19.445-1.57-27.838-5.999-3.377-1.684-5.757-4.165-8.704-6.453-.197-2.626-.366-5.249-.426-7.884-.036-3.414-.814-6.865-2.292-9.95-1.547-3.359-5.048-5.775-8.343-7.216-4.457-1.863-8.924-1.373-13.505-.32 3.441 2.503 7.103 4.452 9.364 8.131-2.435 2.06-3.36 4.888-2.495 7.986.64 2.137 2.421 3.29 3.973 4.732 1.62 1.318 2.077 3.785 2.786 5.67-1.491-.21-2.86-.252-4.15-1.121-8.17-6.407-13.711-15.16-25.59-12.242-4.28 1.053-7.918 3.94-10.563 7.386-2.128 2.764-3.23 5.853-4.301 9.135 3.761-1.639 7.903-3.872 12.03-4.151-.073 1.364-.324 3.016.193 4.316.796 2.169 2.562 3.628 4.63 4.535 3.348 1.322-.705-.281 10.792 3.23 2.435 1.14 4.476 2.444 6.544 4.155a72.459 72.459 0 0 0-6.544 1.863c-5.007 1.388-9.214 4.56-11.66 9.194-2.513 5.258-2.476 11.212-1.584 16.854a109.939 109.939 0 0 0 3.336-3.665c1.991-2.32 6.252-4.995 8.796-6.675 2.123 4.653 6.768 4.487 10.05 3.659a17.623 17.623 0 0 0 7.074-4c1.538-1.336 3.36-3.13 5.387-3.61 2.576-.477 5.344-.206 7.962-.34-1.162 1.227-2.15 2.509-2.586 4.17-.764 2.315-.045 4.42-.233 6.718-.215 1.016-1.226 1.313-2.132 1.437-2.316.26-4.646.251-6.956.613 2.278 2.636 4.256 5.112 7.601 6.462 4.17 1.514 9.052 1.002 12.805-1.382 3.372-2.142 5.802-5.18 7.706-8.658 1.698 1.377 3.23 2.818 5.39 3.418 2.49.7 5.332.842 7.794-.018 1.986-.71 3.808-2.21 5.588-3.355 1.196 4.17 3.923 7.923 9.949 7.327 2.563-.184 4.324-1.574 6.296-3.039 1.048 1.735 2.065 3.391 3.717 4.627 2.736 2.36 7.066 2.585 10.219.974 1.68-.842 2.7-2.187 4.141-3.294 1.455.782 2.558 2.27 4.087 3.01 1.331.637 2.96.724 4.324 1.218.806 1.382 1.322 2.924 2.1 4.33 1.684 3.408 3.822 6.497 6.042 9.573l2.724 2.811c74.916-.002 68.631-.008 143.546.003.361-4.374-1.842-26.236-1.921-26.973-.128-1.405-.558-3.153-.073-4.503.631-1.235 2.366-1.885 3.524-2.548 3.95-1.854 7.656-4.115 11.239-6.59 1.407-.964 2.706-2.074 4.036-3.14 7.638-6.411 14.681-14.896 17.797-24.487 2.1-6.091 2.385-12.576 1.223-18.892a80.899 80.899 0 0 1-7.26 10.119c-3.796 4.35-8.608 7.983-14.707 11.409-2.457 1.267-4.97 2.416-7.437 3.66-.036-3.638-.013-7.244.641-10.832 3.952-1.397 6.651-2.938 9.789-4.818 3.967-2.394 7.762-5.034 11.107-8.265 4.196-3.785 7.642-8.38 10.648-13.143 4.238-6.956 6.988-14.96 7.63-23.088.132-3.725-.445-7.528-1.204-11.17-4.17 6.191-8.133 12.84-13.14 18.382-2.301 2.728-4.8 5.277-7.554 7.551-2.068 1.78-4.178 3.474-6.604 4.755 2.362-4.411 5.249-8.503 7.592-12.919 1.506-2.938 3.121-5.811 4.421-8.855 1.675-3.514 3.276-7.033 4.343-10.795 3.574-10.534 5.148-22.136 3.396-33.174-.833-6.265-2.82-12.219-5.35-17.985-1.145-2.53-2.719-4.887-4.215-7.225-2.787-4.384-6.815-8.046-11.102-10.933-2.541-1.815-5.434-2.856-8.384-3.803-7.4-2.508-15.834-2.01-22.931 1.235-6.05 2.728-11.043 7.382-14.292 13.162-1.83 3.41-3.473 6.878-4.347 10.672-1.286 3.963-1.483 8.008-1.772 12.127-.302 6.219.687 12.667 1.835 18.767 1.579 9.216 4.069 17.55 4.028 27-.215 3.716-.765 7.336-2.375 10.723-1.703 4.196-4.389 7.995-7.524 11.244-2.283 2.155-4.924 3.953-7.4 5.88 2.453.572 4.87 1.034 7.404 1.062 9.436-.179 18.617-4.892 24.113-12.594 4.205-5.514 6.663-12.182 7.3-19.07.38-5.894-.6-11.555-2.175-17.211 3.744 1.167 6.993 2.544 11.024 1.9 4.947-.889 8.216-4.106 11.904-7.176-3.359-.531-7.135-1.273-9.995-3.2-3.208-2.013-5.707-5.262-7.418-8.598-3.025-5.835-4.014-12.708-2.916-19.17.412-2.416 1.634-4.778 3.46-6.42 2.714-2.184 6.325-2.477 9.587-1.516 3.117.815 5.525 2.641 7.913 4.71l2.874 3.697c1.986 2.59 2.979 5.624 3.524 8.805.86 5.285.617 10.933.448 16.278-.183 5.267-1.281 10.297-2.173 15.468-.94 5-2.907 9.713-4.65 14.47-.17 1.473-1.09 2.915-1.675 4.265-2.636 5.972-6.054 11.642-9.175 17.371-2.32 4.178-4.426 8.467-6.513 12.764-5.253 2.54-10.79 5.203-15.32 8.882-6.206 4.85-11.277 12.018-12.494 19.911-.476 4.174-.069 8.407 1.954 12.15 1.538 3.13 4.197 5.337 7.295 6.838-2.865 5.07-5.414 11.042-5.611 16.927 0 2.503.522 5.254 1.922 7.378 1.94 2.869 5.464 4.754 8.69 5.807.023 3.652.243 7.285.115 10.941-11.784-.018-25.036 0-36.824-.009-2.523-5.404-4.311-11.089-5.68-16.886-2.902-11.839-3.346-23.54-4.417-35.604-.732-9.436-1.08-18.781-2.883-28.108 1.62-1.702 3.46-3.569 4.508-5.688.928-1.88 1.583-3.922 1.848-6.009.284-2.2-.059-4.54-.256-6.75 1.95-.457 3.711-.203 5.523-1.032 4.908-1.905 4.87-8.683 4.87-8.683.238-3.432-1.652-5.802-3.405-8.498 2.75-1.725 5.766-3.652 6.494-7.066.96-4.622-.7-9.326-2.76-13.413 1.547-.874 2.998-1.648 4.129-3.062 2.27-2.764 2.566-6.868 1.464-10.172-.902-2.902-2.901-4.966-4.576-7.61 1.762-1.392 3.615-2.417 4.503-4.595.723-1.9.814-4.202.16-6.128-.645-1.931-2.422-3.565-3.712-5.116 1.702-2.993 1.611-6.828-.324-9.679-.998-1.478-2.536-2.421-3.973-3.428-1.93-1.105-3.986-1.44-6.141-1.78.114-1.734.348-3.345-.11-5.052-.796-3.231-3.08-6.009-6.288-7.048-1.972-.7-4.036-.393-5.995-.892-1.606-2.672-2.673-5.23-5.597-6.791-3.363-1.964-6.905-1.803-10.625-1.226-1.337-1.813-2.723-3.433-4.833-4.362a7.212 7.212 0 0 0-3.643-.679zm-30.41 26.148c.754 0 1.502.314 2.115.964.096 1.139-.325 2.205-1.313 2.823-.76.078-1.543.037-2.302.023-.248-.957-.504-1.913-.645-2.893.633-.604 1.392-.917 2.145-.917zm8.325 35.59-20.1 1.683s.517-3.902.949-5.685c2.612-1.597 4.965-3.51 7.28-5.506 1.218-1.066 2.692-1.65 4.174-1.555 2.949.188 5.333 4.324 7.697 11.063zm-21.673-3.952c-.11 2.888-.558 5.725-1.094 8.558-2.654-2.119-4.865-4.64-6.059-7.863 2.425-.036 4.769-.232 7.153-.695zm8.638 8.805s4.02 3.254 5.722 6.197c-2.018.828-4.132 1.061-6.297 1.125-.76-2.929.575-7.322.575-7.322zm13.163-.664c-1.07 2.334-6.079 5.504-6.079 5.504l-2.996-3.699c3.019-.593 5.994-1.427 9.075-1.805zm107.96 86.804c-.047 2.855.26 5.647.608 8.475-1.085-.311-2.448-.559-3.345-1.277-1.03-.806-1.227-2.366-.687-3.505.719-1.534 2.178-2.6 3.423-3.693z"/>
<path d="M234.498 39.904c-.749-.044-1.487.1-2.14.524-1.794.993-1.982 3.18-3.108 4.722-1.515.554-3.94-1.23-5.367.075-.618 1.089-.536 2.609-.93 3.812-1.487.078-3.177-.965-4.66-.682-1.487 1.044-1.998 3.079-3.92 3.811-4.48 1.67-9.813.166-14.504 1.488-4.819 1.314-8.47 4.518-12.543 7.2-2.965 2.031-6.292 3.193-9.67 4.511-3.565 1.263-6.919 2.38-10.008 4.658-.512.403-1.13.888-1.322 1.534.238 1.967 1.74 5.066 1.74 5.066.414-1.775 2.077-3.324 2.077-3.324s2.589.139 3.847.857c-1.176 1.341-2.392 2.439-3.101 4.114-.82 2.077-1.425 4.21-.541 6.384 1.556 4.023 5.176 7.299 9.332 8.448 3.139.796 6.622.508 9.789.023 3.94-.75 6.227-3.498 9.238-5.809 2.142-1.688 4.8-2.603 7.51-1.816 2.517.778 4.284 3.144 5.52 5.35 1.532 2.942 2.827 6.237 3.152 9.564.073 1.702.188 3.904-1.043 5.254-1.46 1.702-3.483 3.003-5.244 4.385-1.465 1.08-2.97 2.462-4.71 3.029-2.388.787-4.707.407-7.128.791-1.35.229-2.816 1.255-3.155 2.637-.045 1.441.824 2.973 1.588 4.154 1.304 1.904 2.77 3.698 4.225 5.482 3.752-2.736 7.4-6.4 11.67-8.076a25.097 25.097 0 0 1 7.097-1.89c3.085-.334 6.118-.532 9.17.164 2.993.718 6.16.188 8.961-1.002 2.86-1.208 5.116-3.584 6.516-6.32 1.231-2.614 1.634-5.71 1.625-8.57.879.082 1.757.155 2.64.224.705 6.63-2.584 13.294-8.437 16.543-2.27 1.304-5.085 1.835-7.652 2.133-2.586.315-4.791-.656-7.326-.725-2.737-.082-5.58.312-8.276.77-.746 4.118-2.227 7.957-5.398 10.822-4.956 4.613-11.706 6.425-18.37 5.666-4.164-.44-8.58-2.118-12.708-1.29-2.632.554-5.748 2.471-6.567 5.167-.535 1.954.847 3.199 1.56 4.842.394.823.164 1.577-.404 2.246-2.37.169-4.644-.613-7.06-.11-3.057.453-5.565 2.687-6.75 5.479-.38.947-.193 2.182.896 2.511 1.327.664 2.943.636 3.217 2.42.115 1.273-1.436 1.576-2.379 1.795-2.874.545-5.826 1.945-7.482 4.444-.696 1.03-.668 2.15-.16 3.254 1.185.494 2.599.412 3.843.76.97.265 1.457 1.872.409 2.357-2.49 1.547-5.072 2.549-6.692 5.217-1.194 2.205-.609 5.746 1.615 7.115 1.099.43 2.6-.137 3.786-.018.49.293.925.69 1.369 1.047-1.378 2.622-3.45 4.732-3.094 7.912.302 3.048 2.401 4.91 4.557 6.805 7.152-1.524 14.283-3.034 21.523-4.096 7.82-.883 15.774-1.161 23.443.875 5.414 1.259 9.812 3.624 15.45 3.98 3.505.216 7.69.001 10.783-1.83 2.274-1.372 2.947-3.701 3.217-6.19.169-.76.105-2.183 1.025-2.458 1.716.224 3.262.984 4.992.467 4.755-1.318 8.824-5.346 10.055-10.147.522-1.949.053-4.045.41-5.962.572-1.36 2.281-.755 3.402-.75 3.607.617 6.961-1.3 9.245-3.954 2.814-3.221 3.893-7.831 3.11-11.996-.223-1.354-1.127-3.032-.683-4.373 1.547-.87 3.768-.272 5.475-.908 3.537-1.23 6.215-5.133 5.373-8.918-.595-2.48-2.733-3.679-4.102-5.605-.636-.842-.186-2.212.752-2.633 1.364-.687 2.759-.988 3.995-1.963 1.331-1.075 2.407-2.686 2.613-4.406.302-2.201-.178-4.544-.805-6.659-.577-1.922-1.786-3.359-2.728-5.08-.472-.787-.192-1.994.623-2.447 1.345-.686 2.983-.788 4.123-1.86 2.105-1.816 2.412-5.233 1.798-7.769-.764-3.075-2.746-4.915-4.503-7.36-.81-1.043-.806-2.465.095-3.444 1.231-1.177 2.934-1.947 3.946-3.42 1.162-1.84.91-4.265-.317-6.008-1.121-1.625-2.749-2.385-4.117-3.694-.513-.466-.688-1.044-.674-1.73.668-1.25 2.7-1.537 2.824-3.166.467-2.741-1.602-5.335-3.798-6.713-2.133-1.377-4.357-1.386-6.805-1.469a131.79 131.79 0 0 1-1.455-1.726c.38-2.238 1.043-4.703.04-6.877-1.116-2.348-3.614-4.201-6.245-4.334-1.588-.115-3.082.246-4.66.219-.934-1.149-1.185-2.824-1.913-4.123-1.56-2.97-4.75-4.732-8.082-4.7-2.04-.123-3.82.7-5.796.887-1.103-1.51-1.653-3.088-3.24-4.236-.965-.69-2.241-1.285-3.489-1.358zm92.973 8.557c-1.319.019-2.634.118-3.936.297-7.789 1.217-15.102 5.532-19.353 12.26-4.828 7.102-6.641 15.825-6.893 24.29-.014 4.055.188 8.132.81 12.141 1.113 6.347 2.577 12.634 3.79 18.963 1.148 5.533 1.748 11.08 1.144 16.727-.8 5.07-2.47 9.968-5.39 14.224-2.041 3.419-4.842 6.023-7.5 8.924 5.917.046 11.686-1.983 16.459-5.447 4.489-3.313 7.749-7.88 9.877-13.01 3.377-7.487 3.431-16.195 1.35-24.039-.715-3.354-2.106-6.36-2.444-9.793 3.185 2.522 6.75 4.727 10.832 5.35 3.775.485 7.23-.478 10.117-2.967-4.444-1.661-8.287-4.383-11.105-8.223-4.787-6.155-6.349-13.884-6.065-21.545.233-3.83 1.397-7.848 4.248-10.566 2.073-2.105 4.892-3.122 7.82-3.172 4.435-.197 8.301 1.665 11.784 4.232 4.36 3.382 7.624 8.518 9.015 13.84 1.286 6.183 1.231 12.731.828 19.01-.517 5.469-.942 10.703-2.375 15.998-1.194 5.13-2.663 10.178-4.681 15.047a171.559 171.559 0 0 1-6.252 12.975c-3.355 5.875-6.714 11.545-9.418 17.77 3.171-1.21 6.143-2.825 9.25-4.202 1.043-.545 2.398-.985 2.988-2.05 1.268-1.96 2.416-3.995 3.633-5.981 6.942-11.194 13.295-22.735 16.576-35.59 1.194-4.38 1.661-9.062 2.068-13.602.325-5.793-.275-11.696-1.341-17.398-1.433-6.604-3.96-13.139-7.707-18.781-3.826-6.133-9.701-11.161-16.506-13.664-3.69-1.411-7.668-2.075-11.623-2.018zM81.459 51.75c1.483 1.501 2.915 2.91 4.031 4.723.66 1.011 1.162 2.168 1.926 3.097.728.6 1.717.916 2.555 1.332-1.808.719-3.95 1.553-5.23 3.077-1.561 1.862-1.667 4.635-.77 6.818.814 1.908 2.692 3.34 3.529 5.176.513 1.112.54 2.383.678 3.582 2.292 1.038 4.501 2.183 6.611 3.556 1.849-5.07 2.993-10.22 2.147-15.642-.81-4.732-2.243-9.537-6.375-12.42-2.719-2.092-5.725-2.979-9.102-3.299zm160.832 6.918c2.313-.047 4.604.404 7.035.693 2.508.353 5.176-.133 7.63.43.933 1.3.812 2.96.689 4.475-.76 6.695-5.592 12.929-11.995 15.134-2.466.984-4.915.962-7.523.971-.06-.96-.123-1.918-.191-2.875 8.598 1.506 17.765-6.426 16.832-15.258-2.156-.023-4.23.039-6.368-.25-2.594-.33-5.174-.944-7.796-.55-2.517.347-4.773 1.83-6.499 3.638-1.885 2.069-2.59 4.7-3.185 7.363-.705-.004-1.41-.013-2.12-.017.07-1.799.3-3.52 1.114-5.145 1.803-3.505 4.31-6.53 8.154-7.843 1.44-.53 2.835-.738 4.223-.766zm-183.28.482c-2.7.074-5.384.558-7.687 2.065-2.595 1.67-3.981 4.227-5.322 6.904 1.647-.595 3.399-1.313 5.143-1.55 1.72-.234 3.392.142 5.09.036.992-.334 1.724-1.565 2.447-2.306-.23 1.688-.513 3.34-1.2 4.91-.64 1.579-1.193 3.057-.47 4.732.979 2.087 2.997 3.592 5.002 4.621 2.37 1.186 4.856 2.143 7.226 3.329a15.06 15.06 0 0 1 6.15 6.232c-1.445.874-2.388 1.129-4.095 1.143-3.624.027-6.99.956-10.518 1.638-2.938.627-5.99 1.507-8.355 3.448-1.844 1.51-3.24 3.655-3.565 6.048-.247 1.662.243 3.474.573 5.108 1.29-1.638 2.594-3.162 4.392-4.27 1.73-1.12 3.612-1.638 5.543-2.279 1.355-.421 2.53-1.606 3.61-2.494-.12 1.638-.467 3.678.173 5.234.842 1.94 2.811 3.292 4.93 3.342 2.686.192 4.973-.75 7.33-1.895 1.68-.837 3.656-.818 5.194.317 2.288 1.702 4.106 3.816 5.675 6.191-2.8 1.364-5.45 2.16-7.244 4.92-1.766 2.517-.174 5.707-2.105 7.95-1.474 1.738-3.455 1.6-5.528 1.779 1.52 1.125 2.837 2.27 4.645 2.937 3.011 1.163 6.644.847 9.678-.095 1.67-.523 3.105-1.363 4.492-2.293a151.54 151.54 0 0 1 1.806 1.689c-.3 1.468-.48 2.95-.285 4.549.234 2.498 2.225 4.708 4.705 5.139 1.47.242 3.107-.106 4.54-.014.425.256.92.737.828 1.281-.101 2.05-.66 3.835-.229 5.922.508 2.81 2.578 5.32 5.41 5.97 2.12.509 3.927-.39 5.977-.624.471.174.86.52 1.162 1.033.064 2.233-.564 4.26-.024 6.549.746 3.015 3.36 5.784 6.604 5.894 2.229.192 3.804-.998 5.85-1.36.494.312.946.702 1.408 1.077-.462 3.121-1.28 6.662.312 9.596 1.4 2.594 4.26 3.634 7.092 3.345 2.398-.132 3.785-1.69 5.936-2.408.462.21.856.48 1.185.815.462 2.105.285 4.28.903 6.38.654 2.668 2.287 5.01 4.662 6.424 1.34.842 3.071 1.03 4.595.655.421-.371.82-.778 1.19-1.213-1.84-1.03-3.762-1.676-4.787-3.666-1.154-2.298-1.451-5.317-.293-7.674.855-1.817 2.435-3.312 3.85-4.703-1.232-1.716-2.286-3.25-1.7-5.488.824-3.254 4.165-5.895 7.025-7.377-.604-1.277-1.382-2.613-1.144-4.082.27-1.964 1.387-3.35 2.48-4.924-2.599-1.726-5.09-3.596-7.652-5.367-4.686-3.067-9.329-6.189-13.86-9.479-4.164-2.645-7.94-5.797-12.027-8.557-6.397-4.933-13.276-10.137-18.511-16.283-2.93-3.633-4.891-8.279-7.33-12.338-2.142-3.542-3.869-7.642-7.077-10.324-2.686-2.357-5.911-3.46-9.275-4.467-1.794-.517-3.51-1.16-5.025-2.277-2.43-1.734-3.944-4.494-5.248-7.111-1.547-3.09-3.081-6.665-5.397-9.25-1.615-1.822-3.742-2.823-6.168-2.993a35.454 35.454 0 0 0-2.691-.04zm144.378 1.715c1.617.043 3.177.894 4.728 1.56 2.403 1.227 4.763 1.36 6.383 3.731-2.009.224-3.867.055-5.83-.361-.485.847-.943 1.752-1.557 2.512-.709.81-1.756 1.355-2.552 2.091-.23.806-.262 1.675-.358 2.508-.714-.009-1.427-.017-2.137-.031-.27-1.194-.375-2.683-1.185-3.648-.842-1.053-1.852-1.977-2.809-2.924a24.306 24.306 0 0 1-3.726-.498c2.434-1.245 4.481-3.002 6.797-4.403a4.42 4.42 0 0 1 2.246-.537zm39.965 5.838c1.215-.008 2.45.1 3.648.125-.018.563-.042 1.122-.06 1.68-1.598.215-3.232.243-4.815.545-1.606.508-2.23 2.938-3.772 3.597-.38-.746-.753-1.602-.78-2.449.92-1.492 2.456-2.85 4.136-3.394.54-.072 1.09-.1 1.643-.104zm129.398 62.994c-2.306 3.446-4.525 6.893-7.248 10.041-3.258 4.334-7.089 8.123-11.207 11.633-5.734 4.544-12.073 8.055-18.74 11.03-5.14 2.512-10.393 4.8-15.49 7.39-3.369 1.99-6.733 3.853-9.47 6.549-3.093 2.85-5.857 5.926-7.577 9.816-1.968 3.853-2.609 7.91-2.041 12.203.274 2.76 1.227 5.361 3.158 7.393 1.505 1.67 3.404 2.57 5.431 3.435 2.462-3.258 5.999-5.807 9.426-7.976-1.515-.7-3.308-1.404-4.31-2.809-1.515-2.091-1.314-5.176.252-7.185 2.21-2.989 5.838-4.855 9.115-6.447 4.695-2.055 9.662-3.552 14.303-5.84 2.832-1.419 5.679-2.741 8.351-4.457 9.542-5.707 17.188-14.398 21.691-24.557 2.93-6.393 4.795-13.12 4.356-20.219zM78.498 165.072l1.166 1.14c1.414 1.273 2.307 2.879 3.455 4.352.513.618 1.969.916 2.05 1.707-1.06 1.021-2.456 1.583-3.536 2.54-1.272 1.226-1.379 3.523-.487 4.988 1.103 1.61 3.26 2.623 4.32 4.357 1.03 1.68 1.603 3.748 2.24 5.606 1.866-.325 3.734-.646 5.61-.92-.842-5.464.17-12.141-2.76-17.074-2.557-4.417-7.235-6.092-12.058-6.696zm181.568 8.672c-.485.137-.964.27-1.445.399-1.753.366-3.46.342-5.236.351-.092 2.389-.297 4.683-1.367 6.865-1.996 4.096-5.562 7.862-9.914 9.418-1.707.668-3.381.619-5.184.65-.65 2.756-1.634 5.267-3.922 7.075-3.432 2.572-7.272 2.935-11.414 3.168-1.281 1.652-2.768 3.08-3.98 4.777-2.197 3.076-3.904 6.402-4.454 10.182-.672 3.313.312 6.444-.388 9.72-.522 2.806-2.139 5.794-4.66 7.258-2.046 1.222-4.709.617-6.915.233-2.278 2.027-4.476 3.822-7.707 3.785-3.317.009-5.677-1.982-8.253-3.771-2.325 1.702-4.37 3.533-7.153 4.48 1.538 4.485 4.053 8.247 6.84 12.031.586.76 1.194 1.594 1.963 2.17 1.693.293 3.512.092 5.232.133 23.948-.014 47.9-.02 71.848.008 2.851-.019 5.696.008 8.547-.078-1.231-3.405-2.685-6.705-3.65-10.205-4.197-14.558-5.085-29.06-6.28-44.038-.183-3.674-.531-7.335-.77-11.01-.393-4.511-.561-9.221-1.738-13.6zm103.127 2.613c-3.78 4.934-8.398 9.496-13.638 12.86-4.668 2.97-9.57 5.685-14.727 7.703-6.352 2.81-13.445 5.568-18.945 9.865-5.103 4.119-8.814 9.774-10.38 16.158-.704 2.728-1.304 5.933-.571 8.702.668 3.061 3.171 5.532 6.04 6.63 1.396.485 2.88.727 4.307 1.116.197 4.43.022 8.855.325 13.285 3.693-.046 7.387-.004 11.08-.022-.545-7.4-1.296-14.782-1.813-22.181-.15-2.558-.787-5.295-.385-7.83.147-1.222 1.053-1.539 2.014-2.038a114.835 114.835 0 0 0 9.693-4.94c6.975-4.335 13.408-9.837 18.346-16.427 3.117-3.949 5.36-8.424 7.025-13.156 1.071-3.153 1.483-6.411 1.63-9.725zm-303.798 2.42c-.58 0-1.16.036-1.743.112-5.477.723-9.884 4.329-12.58 9.02 3.02-1.209 5.763-1.796 9.05-1.663a45.51 45.51 0 0 1 3.333-2.424c-.183 1.236-.218 2.37-.863 3.473-.769 1.473-1.91 2.79-1.635 4.566.37 2.11 2.421 3.187 4.215 3.942 3.807 1.432 7.747 1.665 11.473 3.646 3.839 1.977 6.645 5.185 10.416 7.244-5.346 1.31-10.44 2.052-15.497 4.235-2.928 1.322-5.462 3.458-6.904 6.369-1.537 2.952-1.63 6.054-1.771 9.312 2.086-2.013 4.117-3.897 6.675-5.316.852-.494 1.814-.925 2.555-1.57.59-.627 1.007-1.434 1.469-2.157.572 2.407.91 4.636 3.312 5.895 3.044 1.391 7.017.189 9.598-1.715 2.503-1.656 4.828-4.736 7.816-5.35 3.263-.58 6.668-.582 9.98-.591 1.076.036 2.26-.045 3.304.261.384.39.715.846 1.058 1.276-1.926 1.67-3.858 3.14-5.052 5.469-1.355 2.562.7 6.297-1.026 8.6-1.483 1.953-3.738 1.962-5.967 2.177 1.854 1.14 3.615 2.175 5.834 2.39 4.018.481 8.02-1.08 10.838-3.935 3.135-3.272 5.079-7.4 5.93-11.83.325.201.655.397.984.594.435 2.05.624 4.559 2.276 6.037 2.85 2.686 7.216 3.003 10.634 1.236 1.968-.924 3.212-2.513 4.873-3.809.847-.663 2.114-.704 2.7.293.37 1.58.165 3.117 1.025 4.55 1.61 2.896 5.447 4.141 8.45 2.718 2-.86 2.845-2.498 4.378-3.857.705-.609 1.809-.03 2.024.798.631 1.854.988 3.593 2.416 5.043 2.031 2.256 5.256 2.894 8.011 1.604 2.124-.93 2.875-2.764 4.385-4.31.595-.682 1.625-.646 2.28-.069 1.432 1.263 2.197 2.864 3.972 3.82 3.19 1.826 7.37.618 9.947-1.748 1.181-.929 2.358-2.51 4.051-2.125 1.103.344 2.051 1.328 2.985 1.987 2.1 1.665 5.243 2.412 7.714 1.154 1.51-.746 2.4-2.235 3.662-3.168 1.918-.151 4.25 1.16 6.213.496 1.817-.618 2.88-2.457 3.43-4.191 1.222-3.74.2-7.713.897-11.768.49-3.364 1.944-6.338 3.775-9.166 1.199-1.794 2.764-3.326 4.082-5.047-5.807-1.272-11.364-3.501-17.135-4.678-3.816-.814-7.98-.735-11.879-.699-15.413.545-31.416 5.863-46.677 7.483-8.782.819-17.922 1.048-26.53-1.135-3.958-.838-7.762-2.235-11.414-3.955-3.487-1.785-6.718-4.178-9.67-6.737-3.542.055-6.977 1.03-10.506 1.043-2.105.05-3.899-.805-5.615-1.921-3.203-2.11-5.336-5.263-8.457-7.565-3.127-2.527-7.048-4.338-11.1-4.344zm274.226 5.15c-3.675 1.159-7.14 2.791-10.678 4.288-.407 3.68-.309 7.052.963 10.562 3.02-1.3 6.008-2.696 9.06-3.927.252-3.652.129-7.289.655-10.922z" fill="#0093dd"/>
<path d="M139.426 85.587c.421 1.542.678 3.011 1.25 4.499 1.784 4.498 5.098 8.425 9.372 10.74 3.601 2.137 8.2 2.915 12.31 3.474 6.233.48 12.585.068 18.767-.833 1.053-.138 2.138-.339 3.2-.33 1.322.742 2.443 1.867 3.637 2.796-7.628 1.327-15.358 3.657-22.881 5.45-3.391.815-6.553 1.863-10.04 2.293-3.437.421-6.915.774-10.292-.247-4.137-1.359-7.84-4.123-9.684-8.15-2.865-6.631-1.34-15.029 4.361-19.692z" fill="#f00000"/>
<path d="m211.9 100.56 0.115 1.488c-2.224 0.078-4.434 0.261-6.617 0.714-1.35 0.26-4.164 0.545-4.164 0.545s-1.73-1.112-2.527-1.698c4.298-0.942 8.804-0.996 13.194-1.048zm-13.664 1.017c-0.393 0.755-2.487 3.022-2.487 3.022s-2.547 0.044-4.354 0.332c-0.037-0.915-0.065-1.826-0.097-2.741 2.316-0.265 4.604-0.613 6.938-0.613z" fill="#f00000" />
<g stroke="#000">
<path d="m198.585 102.527-1.77 3.734-.563 4.79s.65 1.879.65 1.61c0-.268 3.501.149 3.681-.12.18-.27 4.346-1.64 4.346-1.64l.933-1.015-3.38-3.935-3.068-2.908z" fill="none"/>
<path d="m413.5 251.05h-411v17.086c0.04 113.44 92.036 205.38 205.5 205.38 113.47 0 205.47-91.941 205.5-205.38v-17.085z" fill="#f00000" stroke-width="2.5"/>
<path d="M2.5 2.492v265.64c.04 113.44 92.036 205.38 205.5 205.38 113.47 0 205.47-91.942 205.5-205.38V2.492z" fill="none" stroke-width="5"/>
</g>

</svg>
