<?xml version="1.0" encoding="UTF-8"?>
<svg width="416" height="476" viewBox="0 0 416 476" xmlns="http://www.w3.org/2000/svg">
<path d="M2.5 2.5v265.63C2.539 381.57 94.533 473.5 208 473.5c113.47 0 205.46-91.938 205.5-205.37V2.5z" fill="#1c63b7"/>
<g stroke="#000">
<path d="M2.7 2.5v73.453l161.25 160.85-134.17 133.84c10.529 18.222 23.74 34.694 39.152 48.828l139.07-138.72 139.07 138.72a206.267 206.267 0 0 0 39.152-48.828l-134.17-133.84 161.25-160.85V2.5h-14.465l-190.84 190.36L17.159 2.5z" fill="#fff" stroke-width="3"/>
<path d="M2.5 2.5v265.63C2.539 381.57 94.533 473.5 208 473.5c113.47 0 205.46-91.938 205.5-205.37V2.5z" fill="none" stroke-width="5"/>
<path d="M208 9.945c-3.401 9.476-21.686 7.279-21.686 24.377 0 14.28 17.068 35.603 17.068 59.09v8.576h9.234v-8.576c0-23.487 17.068-44.81 17.068-59.09 0-17.098-18.284-14.902-21.686-24.377zm-62.443 18.342c-21.343 0-29.631 19.815-29.631 32.344 0 18.052 11.803 31.787 23.855 31.787 6.53 0 12.051-5.299 14.061-8.922 0 0-14.562.278-14.562-12.27 0-6.692 3.262-13.105 12.805-13.105 9.542 0 32.85 10.764 32.85 44.502l12.305 1.395c0-22.028-9.245-75.73-51.682-75.73zm124.89 0c-42.437 0-51.684 53.701-51.684 75.73l12.307-1.395c0-33.738 23.306-44.5 32.848-44.5 9.542 0 12.805 6.414 12.805 13.105 0 12.547-14.562 12.27-14.562 12.27 2.01 3.623 7.531 8.922 14.061 8.922 12.053 0 23.855-13.737 23.855-31.79 0-12.527-8.286-32.341-29.629-32.341zm-62.445 79.605-3.45.116c0 2.214.268 15.066-3.208 20.604-3.475 5.537-7.753 17.724-1.871 25.699 5.883 7.976 7.701 11.296 8.529 14.289.828-2.994 2.65-6.313 8.531-14.29 5.882-7.975 1.604-20.16-1.873-25.698-3.474-5.538-3.209-18.39-3.209-20.604zm-11.555.887-11.309.557s.536 17.06-12.834 17.06c-7.219 0-9.355-6.425-9.355-7.976 0 0-5.616 2.88-5.616 11.521 0 5.982 8.823 9.748 16.041 9.748 7.219 0 6.588-.66 12.752-3.709 4.126-3.757 5.588-4.52 8.282-10.375 2.923-6.357 2.039-16.826 2.039-16.826zm23.312 0s-.883 10.469 2.041 16.826c2.693 5.856 4.154 6.618 8.28 10.375 6.164 3.049 5.533 3.709 12.751 3.709 7.219 0 16.043-3.766 16.043-9.748 0-8.641-5.615-11.521-5.615-11.521 0 1.55-2.139 7.977-9.357 7.977-13.37 0-12.834-17.061-12.834-17.061z" fill="#fff" stroke-linecap="round" stroke-linejoin="round" stroke-width="3"/>
<path d="m239.12 100.93h-62.233c-3.172 0-5.743 2.42-5.743 5.409s2.571 5.41 5.743 5.41h62.233c3.173 0 5.745-2.422 5.745-5.41s-2.571-5.409-5.745-5.409z" fill="#fff" stroke-linecap="round" stroke-linejoin="round" stroke-width="3"/>
</g>
</svg>
