<?xml version="1.0" encoding="UTF-8" standalone="no"?>
<!-- Created with Inkscape (http://www.inkscape.org/) -->
<svg
   xmlns:svg="http://www.w3.org/2000/svg"
   xmlns="http://www.w3.org/2000/svg"
   version="1.0"
   width="225.79192"
   height="264.47998"
   id="svg2780">
  <defs
     id="defs2782" />
  <g
     transform="translate(-9.591988,-807.5937)"
     id="layer1">
    <path
       d="M 10.591988,808.5937 L 14.660928,979.51094 C 17.567305,1101.5946 227.40857,1101.5946 230.31496,979.51094 L 234.3839,808.5937 L 10.591988,808.5937 z"
       id="path4261"
       style="fill:#ffffff;fill-opacity:1;fill-rule:evenodd;stroke:none;stroke-width:2;stroke-linecap:butt;stroke-miterlimit:4;stroke-dashoffset:0;stroke-opacity:1" />
    <path
       d="M 10.59375,4.25 L 14.65625,175.1875 C 15.104366,194.01079 20.48011,209.91869 29.25,222.9375 L 122.5,123.53125 L 10.59375,4.25 z M 122.5,123.53125 L 215.71875,222.9375 C 224.48864,209.91869 229.86438,194.01079 230.3125,175.1875 L 234.375,4.25 L 122.5,123.53125 z"
       transform="translate(0,804.33069)"
       id="path3567"
       style="fill:#2c6bc6;fill-opacity:1;fill-rule:evenodd;stroke:#000000;stroke-width:0.99999994px;stroke-linecap:butt;stroke-linejoin:miter;stroke-opacity:1" />
    <path
       d="M 10.591988,808.5937 L 14.660928,979.51094 C 17.567305,1101.5946 227.40857,1101.5946 230.31496,979.51094 L 234.3839,808.5937 L 10.591988,808.5937 z"
       id="path3282"
       style="fill:none;fill-opacity:1;fill-rule:evenodd;stroke:#000000;stroke-width:2;stroke-linecap:butt;stroke-miterlimit:4;stroke-dashoffset:0;stroke-opacity:1" />
  </g>
</svg>
