<?xml version="1.0" encoding="UTF-8"?>
<svg width="620" height="710" xmlns="http://www.w3.org/2000/svg">
 <path d="M6.001 6.001v394.02c0 167.88 136.1 303.98 304 303.98s304-136.09 304-303.98V6.001z" fill="#fff"/>
 <path d="m107.68 6.0022v620.86a305.24 305.26 0 0 0 11.162 9.4904l0.125 0.098a305 305.02 0 0 0 11.496 8.8574c0.07 0.052 0.143 0.10101 0.213 0.15301a304.3 304.32 0 0 0 11.887 8.2753l0.096 0.06a304.02 304.04 0 0 0 12.404 7.7743l0.052 0.031a302.52 302.54 0 0 0 53.684 25.106l0.022 8e-3v-680.72h-101.14zm202.32 0v696.99c28.401 0 55.865-3.6002 81.939-10.221a301.7 301.72 0 0 0 19.195-6.0332c0.012-5e-3 0.025-8e-3 0.037-0.012v-680.72h-101.17zm202.32 0v620.86a305.39 305.4 0 0 0 56.388-67.19l0.062-0.098 0.012-0.02a303.6 303.62 0 0 0 7.3189-12.512c0.046-0.084 0.096-0.16501 0.142-0.24801a302.99 303.01 0 0 0 6.7349-12.919c0.032-0.067 0.069-0.131 0.101-0.197a302.66 302.68 0 0 0 6.0549-13.147c0.053-0.124 0.113-0.24401 0.16599-0.36801 1.894-4.3952 3.6799-8.8504 5.3689-13.351 0.063-0.169 0.13399-0.33401 0.19699-0.50402a301.46 301.48 0 0 0 4.7499-13.743c0.043-0.134 0.092-0.26501 0.13499-0.40001a301.7 301.72 0 0 0 4.0179-13.817c0.061-0.23001 0.134-0.45701 0.195-0.68702 1.233-4.6802 2.347-9.4104 3.3599-14.177 0.04-0.18801 0.089-0.37302 0.128-0.56102a302.71 302.73 0 0 0 2.696-14.608c0.02-0.133 0.049-0.26301 0.07-0.39601 0.77998-4.9272 1.434-9.8944 1.974-14.897 0.014-0.125 0.036-0.24701 0.05-0.37201 0.54498-5.1172 0.96398-10.273 1.253-15.464v-411.2h-101.18z" fill="#f00000" stroke="#000" stroke-width="6"/>
 <path d="M6.002 6.002v226.16h608V6.002h-608z" fill="#fff" stroke="#000" stroke-width="6"/>
 <path d="M6.002 6.002v34.975l215.04 77.352-215.04 77.35v36.486h76.49l227.51-81.836 227.51 81.836h76.494v-36.484l-215.04-77.352 215.04-77.354V6.002h-80.695l-223.31 80.326L86.691 6.002H6z"/>
 <path d="M6.001 6.001v394.02c0 167.88 136.1 303.98 304 303.98s304-136.09 304-303.98V6.001z" fill="none" stroke="#000" stroke-width="12"/>
</svg>
