<?xml version="1.0" encoding="UTF-8"?>
<svg width="500" height="600"  xmlns="http://www.w3.org/2000/svg">
 <path d="M3.359 3.367v346.06a246.65 247.19 0 0 0 493.3 0V3.367z" fill="#f00000"/>
 <g stroke="#000">
  <path transform="matrix(1.1196 0 0 1.1223 -3.023 -3.03)" d="m369.45 172.78-28-17-28 17 24-66-66 24 17-28-17-28 66 24-24-66 28 17 28-17-24 66 66-24-17 28 17 28-66-24zm-233 264-28-17-28 17 24-66-66 24 17-28-17-28 66 24-24-66 28 17 28-17-24 66 66-24-17 28 17 28-66-24z" fill="#fff"   stroke-width="2"/>
  <path d="m4.703 3.066 132.91.267 354.73 392.09c-12.796 66.833-56.71 120.22-101.02 156.31L4.053 123.003l-.066-.367" fill="#fcdb00" stroke-width="2.242"/>
  <path d="M156.53 44.6c2.338 6.536 2.87 11.986-.741 14.943 2.306 3.216-.51 5.438-4.379 6.495 11.097 22.67 5.998 46.463 13.818 71.367 2.474.824 6.439-2.192 6.528 4.06.094 6.52-1.654 10.522 5.255 14.754 8.182 5.014 9.829-2.716 16.679 2.694-6.944-5.396-4.62-8.906-14.032-12.28 3.865.332 4.8-1.027 6.811-2.674 2.666-2.182 5.2 3.933 8.096 3.347 3.697-.747 7.138-3.702 5.254-6.828-2.907-4.826-9.167-10.55-4.865-14.535 1.766-1.636 4.016-4.815 8.379-1.696-3.614-4.917-4.512-10.039 6.558-6.593 2.695.838 5.537 1.633 5.867 6.115 5.196-5.51 10.678-1.361 15.589 3.981 4.597 5 9.655 10.168 10.588 16.555 2.455.572 5.796-.386 7.365 4.512 2.893 9.045-4.86 12.04-13.37 12.597 8.075 9.484-3.527 18.329-3.27 23.834 8.222 24.243 26.104 39.729 44.226 54.432 23.317 18.912 50.21 31.447 71.373 60.572 10.019 13.789 10.746 25.238 21.018 37.747 6.304 7.677 16.074.925 12.26-12.29-6.818-23.624-30.586-43.592-50.795-58.82-17.87-13.465-35.85-25.72-49.475-36.87-12.768-10.447-25.818-19.668-26.536-34.196-.635-12.746.265-20.002-8.797-31.436 17.358 3.903 17.526 19.427 21.317 32.266 4.676-5.623.765-16.217-1.12-23.508 18.65 5.904 5.672 27.578 17.33 39.595 1.342-6.688 3.807-14.1.603-24.61 18.104 10.112-2.022 28.653 14.724 40.638 2.51-9.218 2.156-18.435.427-27.652 13.581 10.013 4.904 28.542 14.022 37.272 4.067-7.179 2.495-13.341.359-19.967 16.917 7.647 12.145 26.44 18.037 32.715 10.55 11.223 20.382 21.548 29.322 31.559 8.62 9.664 19.892 20.347 28.46 35.117 3.689 6.353 4.886 14.194 1.996 24.769-1.716 6.278-6.557 8.474-11.6 9.197-1.13 11.608-11.341 21.066-1.343 30.11 6.141 5.557 13.735 10.573 15.55 21.274 1.815 10.713 2.238 19.124 7.657 23.498 6.375 5.153 12.038 1.363 14.644-2.439 2.77 13.602-5.24 15.471-12.454 13.996 1.67 8.334 6.763 8.953 13.788 5.95-3.219 7.771-11.557 11.756-18.625 7.063-2.08 8.29 5.551 8.467 10.042 11.268-6.845 4.788-12.85 3.765-17.912-.539-.664 3.41 2.337 7.62 9.43 11.627-5.336 3.69-10.895 3.723-16.231 1.531-6.392-2.625.02 8.253-8.524 10.564-3.917 1.06-7.397-.313-8.747-4.594-2.534-8.033-5.61-8.743-7.668-5.541-2.979 4.63-4.351 9-7.648 1.122-5.29 2.584-10.347 3.344-13.847-2.439 3.817-.337 7.635 1.351 11.455-2.798-5.372-1.854-3.304-6.195-3.777-9.686-4.553 1.358-8.806 2.38-8.086-2.135-3.796.144-6.973 2.021-9.195 5.92-.907-3.877.466-11.179 6.996-9.228-2.45-4.687.8-5.09 2.871-6.379-8.813-.698-4.877-5.77-4.419-8.145-4.126-2.816-7.355.665-10.946 1.591.98-5.395 3.902-8.566 11.445-6.34 1.098-3.427 3.462-3.05 6.344-1.112-2.297-5.315 1.03-8.255 4.33-7.512 1.938-3.41-.601-4.767-4.39-8.768 7.254-.457 12.698 5.586 9.623 11.392 5.462 5.064-3.94 8.404 1.15 19.772 4.639 10.36 11.963 12.69 17.515 1.755 5.549-10.929-.93-22.07-8.32-30.1-8.195-8.909-8.726-18.403-8.747-29.634-18.129 12.037-32.58-6.03-28.057-27.16-6.936.62-12.36 1.153-16.619-5.277.574 8.95-1.833 19.508 5.926 24.58-9.968 1.197-14.855-4.962-19.559-11.383.083 5.535-1.032 11.142 8.827 16.101-10.53 2.048-12.28-4.874-18.127-9.487-9.24-7.289-5.122-18.976-17.83-21.346-8.609-1.604-16.403-1.076-19.937-10.799-.933 5.76-3.392 7.79-6.294 4.429-5.407 7.088-11.162 6.489-17.167.419 5.565-.198 10.67.039 11.698-4.26-8.357-3.39-.221-8.23-3.728-14.186-6.655.583-9.001-1.34-9.235-6.095-5.213.572-5.726 3.97-8.29 6.135-2.261-4.782.18-8.115 5.672-10.505-.581-1.724-2.108-3.678 1.582-4.016-2.766-2.357-2.912-5.53-.706-7.496-2.815-3.9-6.506-2.532-9.857-3.207 3.61-3.26 7.345-5.134 11.548-1.862 3.147-1.14 6.374-3.248 8.947 2.515.218-4.195 4.804-7.352-1.86-10.973 8.458.563 12.734 8.892 5.663 17.068 4.443 10.908 11.982 3.166 20.62 13.637 6.3 7.637 12.416 8.656 17.947 11.413-12.027-11-5.697-20.7-1.314-23.703 7.658-5.25 17.436 2.916 25.397 8.34 6.585 4.486 11.498 7.496 16.017 8.778-4.012-8.34-12.327-16.68-20.396-25.019 7.586 1.8 15.19 3.546 20.446 11.766-17.508-26.196-43.102-37.26-68.609-48.64-13.079-5.834-22.137-8.004-39.242-17.508-10.743-5.968-21.179-10.079-20.31-24.19-20.376 5.423-22.538-6.975-26.088-17.344 1.993 7.073 2.536 6.534-.677 9.707-9.988-5.364-10.3-13.052-17.032-22.22-.617 6.869-1.542 13.222-3.931 17.13-2.97-9.347-6.462-16.708-13.38-22.327-1.584 6.607-2.417 8.838-4.583 11.362-1.212-8.578-6.644-12.068-12.28-14.68-5.218-2.417-8.901-3.772-15.336-12.105-2.36 5.859-6.33 5.756-8.33.888-3.493 4.08-6.986 2.132-10.478 1.716 2.828-1.043 6.56-1 6.587-5.412-5.092-3.123 1.334-6.937-.03-10.758-1.784-5-8.658.153-9.175-5.287-3.316 2.256-4.317-.507-4.652-4.828-4.762-1.659-5.733 2.917-6.673 6.38-4.871-3.88-.01-11.636 5.643-9.912-2.066-2.467-.04-4.25 1.313-6.145-5.474-2.696-2.958-4.724-1.567-6.848-2.303-1.982-6.086-2.183-11.375-.573 4.355-7.608 9.981-5.91 14.69-4.869 2.168-2.42 5.91-1.442 7.482 2.112 3.52-1.784 3.294-6.542 1.448-13.105 8.344 5.537 5.982 9.638 4.581 14.657-.25.897 4.562.227 1.448 4.373 20.666 15.177 38.502 28.483 61.925 32.339-3.079-2.367-5.803-4.795-12.338-6.584.79-2.005 4.231-3.125 8.583-3.94-12.88-1.192-22.344-5.576-28.726-10.32 7.742-4.21 14.428-10.654 27.292-4.026-4.175-2.971-5.06-4.818 2.69-7.192-5.609-5.437-3.237-12.611-2.114-18.64-5.115 1.7-11.24 4.327-16.353.806 8.654-5.425 14.495-12.19 13.268-24.273-4.69 2.156-6.246.78-6.17-2.438-8.104 4.128-10.589-1.867-12.507-8.208 4.07 2.425 8.477 3.228 12.546 2.133-3.138-7.11 6.203-8.555 6.315-13.432.178-7.788-10.912 3.273-9.651-9.565-3.165-.666-5.993-1.194-9.158.968.824-4.023 3.166-8.896 12.23-5.684-1.232-5.284 1.839-4.5 6.344-2.877 2.268-4.156-6.293-7.787 2.964-6.983-3.99-4.05-5.003-4.914-10.693-4.574 5.322-5.887 10.197-4.354 14.288.39 5.575-3.746 7.904.635 8.623 4.073 3.55-2.07 4.632-3.364 4.633-10.18z" fill="#0093dd"   stroke-width="2.242"/>
  <g  >
   <path transform="matrix(1.1196 0 0 1.1223 -3.023 -3.03)" d="M198.34 120.15c-2.248 1.367-3.02 3.816-.677 5.822 2.125 1.82 5.332 2.02 6.629-1.175-1.984-3.484-3.968-3.178-5.952-4.647z" fill="#fff" stroke-width=".5"/>
   <g stroke-width="2">
    <path transform="matrix(1.1196 0 0 1.1223 -3.023 -3.03)" d="M168.88 103c-3.096 6.329-1.642 11.646 1.164 15.11l10.742 13.28c.195 1.346-1.114 1.688-2.486 1.989-5.79-7.287-11.275-10.755-16.642-16.441-5.968-6.323-3.485-18.629 7.222-13.942z" fill="#da121a"/>
    <path transform="matrix(1.1196 0 0 1.1223 -3.023 -3.03)" d="M280.79 286.67c4.173 5.614 9.239 12.812 11.806 18.251m-92.06-183.43c-.289 1.331.68.572 2.402 2.338-2.275.223-3.194-.841-2.462-2.287m116.42 305.89c3.063-1.253 1.773-5.395-2.138-4.667m-10.595-10.533c2.798-1.298 2.236-3.99-1.964-2.947m-.938-17.17c1.732.82 4.15 4.01-.444 4.231m14.653-9.577c-2.989 1.863-5.131 2.16-4.675-2.338m-18.955-55.909c1.599-19.14 2.947-38.15-10.338-52.85m-64.34 41.11c-.377-4.494-2.389-5.26-4.884-3.422m-13.915-21.964c2.576-.2 4.816.198 2.338 3.893m-.045-18.667c2.77 1.747 3.03 4.881-1.51 4.517m12.897 3.155c-3.989-.156-4.454-2.352-3.396-5.431m-89.29-188.35c4.372-1.194 2.725-5.116.035-5.413m-.236-24.692c2.088 1.625 1.411 4.962-2.744 4.202m14.268-16.717c1.734 2.419-.751 5.627-3.211 3.729m14.388 4.146c-2.496 1.056-5.568-1.289-3.475-4.246m-61.27 112.74c2.951-2.765-.166-5.523-3.475-3.293M61.26 142.37c4.06-1.808 1.326-3.948-.92-3.147m14.807-13.165c-1.945 1.471-4.672 2.06-5.385-1.379m-6.684-1.882c.697 2.459 1.531 4.986-2.964 4.849m133.98-11.497c3.963 1.374 2.814 4.188 6.457 5.35 4.512 1.438 3.211 4.405 6.284 7.574m-22.364-14.942c-.455 3.543 1.265 4.186 4 3.475m30.606 17.206c-4 .491-3.096 2.882-.747 4.073m-46.14 32.408c-5.885 2.343-14.65 1-16.244 8.831 13.612-1.664 17.888 7.972 25.457-3.591-2.301 4.589-6.533 8.971-1.782 14.315 5.69-15.674 20.618-1.202 19.946-24.657.974 5.632.119 12.687 5.538 14.862-1.426-5.739.392-11.355 5.413-13.28m-81.01-37.572c7.914.089 15.788.319 21.1 9.531-1.058-5.122-2.122-10.247-.318-14.588m-18.546 33.626c4.765 6.504 12.16 7.72 21.03 4.12-7.614 4.589-16.659 3.389-21.255 8.404 5.331.42 10.439-1.563 16.233 3.855" fill="none"/>
   </g>
  </g>
 </g>
 <path d="M3.359 3.367v346.06a246.65 247.19 0 0 0 493.3 0V3.367z" fill="none" stroke="#000"  stroke-width="6.726"/>
</svg>
