<?xml version="1.0" encoding="UTF-8"?>
<svg width="416" height="476" xmlns="http://www.w3.org/2000/svg">
<g stroke-width="1.128">
<path d="M2.5 2.5v228.12h411V2.5z" fill="#fcdb00"/>
<path d="m413.5 230.61-206.08.002v242.87c.193 0 .383.014.576.014 113.47 0 205.46-91.937 205.5-205.37z" fill="#f00000"/>
<path d="M2.5 230.62v37.516c.039 113.25 91.724 205.04 204.93 205.36l-.002-242.87z" fill="#1c63b7"/>
<path d="M413.5 231.06H2.5v1.053c39.587-.002 186.71-.01 204.24-.02.018 39.092-.007 78.18.012 117.27-3.816.305-7.85.524-11.586 1.444-2.968.781-5.581 2.402-7.237 5.033-9.273.038-18.547 0-27.82.013-1.052.063-1.977-.056-2.66.907-.835 1.37.008 2.865.89 3.965 2.528 3.091 5.785 5.698 8.829 8.263a225.97 225.97 0 0 0 8.289 6.725c-4.163 6.21-8.447 12.367-13.041 18.27-6.567 8.23-13.504 16.185-20.617 23.95-2 2.22-3.396 4.832-3.383 7.886.209 4.983 4.567 9.114 9.38 9.816 2.275.426 4.279-.2 6.398-.934-.113 1.318-.216 2.606-.092 3.928.805 6.515 6.126 11.868 12.64 12.697 4.031.407 7.757-1.123 10.849-3.63.369 2.312.77 4.504 1.978 6.552 2.282 4.017 6.258 6.998 10.805 7.898 3.409.849 7.196.031 10.307-1.476 2.546-1.244 4.282-3.214 6.078-5.328-.008 3.502-.005 11.053-.005 18.127.416.002.826.03 1.244.03.41 0 .814-.028 1.224-.03.05-6.985.117-14.463.078-17.912 1.556 1.759 3.08 3.426 5.17 4.56 3.22 1.83 7.393 3.054 11.053 2.035 4.628-1.11 8.685-4.168 11.094-8.26 1.1-1.902 1.55-4.092 2.063-6.206 3.257 2.863 7.506 4.31 11.83 3.537 4.267-.779 7.857-3.846 10.096-7.45 1.624-2.626 2.127-5.583 2.037-8.636 2.46.739 5.011.976 7.496.19 2.83-.948 5.243-3.121 6.56-5.79 1.049-2.006 1.058-4.571.542-6.728-.797-2.95-3.487-5.414-5.47-7.666-3.408-3.865-6.928-7.621-10.231-11.58-6.733-7.652-12.644-15.85-18.434-24.223-.641-.944-1.34-1.907-1.819-2.94.237-.48.598-.829.973-1.199 2.721-2.498 5.517-4.912 8.258-7.39 3.257-2.865 6.699-5.671 8.486-9.725-.227-.578-.45-1.156-.672-1.735-1.28-.36-2.526-.555-3.857-.54a4858 4858 0 0 1-25.666 0c-1.365-1.59-2.77-3.031-4.68-3.96-4.457-2.228-9.791-2.536-14.689-2.498-.1-3.593-.026-7.184-.055-10.783-.006-33.344-.002-66.695-.011-100.04.005-2.138-.012-4.296.134-6.431 67.996.006 135.99.01 203.99 0v-1.041z"/>
<path d="m232.73 11.76c-2.584 1.688-4.878 3.395-7.912 4.215-5.216 1.403-10.64 2.143-16.031 2.418-5.134 0.114-11.307-0.16-16.016 2.187-1.722 0.768-3.04 1.995-4.367 3.3-9.828 0.663-18.99 4.076-27.504 8.878-1.891 1.262-3.13 3.281-2.627 5.613 0.398 1.75 2.24 2.462 3.402 3.623 0.483 1.878 0.037 4.007 0.373 5.942 0.436 2.674 1.137 5.69 2.92 7.808 1.886 2.21 4.579 3.233 7.434 3.418 0.981 1.72 2.003 3.304 3.668 4.442 1.218 0.872 2.553 0.977 3.98 1.28l-0.598 0.47c-2.521 0.578-4.874 1.538-7.32 2.343-6.86 2.357-14.366 4.411-21.662 4.4-5.551 0.13-11.152 0.01-16.367-2.118-3.793-1.447-7.198-3.928-8.863-7.735-1.294-2.764-1.372-6.494 0.865-8.808 1.266-1.48 2.934-2.096 4.793-2.48 0.02-0.36 0.041-0.727 0.06-1.093-2.602-1.726-5.494-1.638-8.47-1.226-4.159 0.925-7.887 3.652-9.94 7.398-3.375 6.116-2.157 14.074 2.784 18.977 4.49 4.424 11.048 6.86 17.15 7.985 7.68 1.237 16.059-0.312 23.584-1.98 9.15-1.979 17.925-5.004 26.81-7.905-0.208 1.072-0.31 2.47-1.03 3.338-0.968 1.057-2.503 1.587-3.545 2.578-1.01 1.053-1.478 2.561-1.579 3.984-0.174 2.295 2.338 3.751 1.827 6.198-0.366 2.357-2.637 3.654-3.916 5.687 3.926 1.518 7.27 0.277 11.055-0.838 0.583 0.564 1.167 1.124 1.75 1.688 2.893-0.47 5.325-1.793 7.98-2.924 3.523-1.485 7.134-3.081 11.018-3.213 1.034 0.023 2.448 0.23 3.002 1.23 0.142 1.413-0.706 2.934-1.65 3.934-2.414 2.409-5.585 3.826-8.948 4.258-2.868 0.564-5.592-0.36-8.507 0.039-5.695 0.493-11.064 3.243-16.602 3.893-4.913 0.516-9.255-1.736-13.494-3.88-0.189 0.48-0.431 0.967-0.526 1.47 0.209 3.57 1.811 6.66 4.102 9.34-1.983 0.535-3.955 1.09-5.852 1.892-2.398 0.947-4.375 2.162-7.015 2.328-3.243 0.293-6.261 1.01-9.508 0.91-4.48-3.813-8.975-7.614-13.455-11.426-13.404-11.137-26.4-22.911-38.59-35.365-2.93-2.973-6.188-6.13-8.236-9.791-1.6566-2.9196-2.0375-6.3927-1.053-9.602 0.971-3.125 2.49-6.584 2.271-9.964-0.217-2.007-0.928-4.326-2.502-5.696-1.351-1.295-3.074-1.355-4.187-2.914-1.65-2.082-3.25-3.978-5.744-5.078-2.485-1.143-5.07-0.813-7.725-0.717-0.228 0.38-0.457 0.753-0.683 1.133 1.322 1.076 2.967 2.1 3.972 3.48 0.872 1.195 1.045 2.52 1.315 3.936-1.46 0.934-2.872 1.678-3.664 3.315-1.005 2.204-0.85 5.002-0.56 7.353 0.35 2.196 1.68 3.633 3.259 5.065-0.64 2-0.933 3.96-0.967 6.06-4.603-4.442-8.576-9.007-10.297-15.336-1.038-3.992-1.343-7.597-4.57-10.574-3.272-2.933-6.952-2.425-10.986-3.146-2.252-0.46-4.404-0.121-6.637 0.263-1.959 0.403-3.537 1.438-5.254 2.41 0.584 1.65 1.971 1.726 3.35 2.475 1.717 0.773 3.168 1.807 4.52 3.111-1.001 1.56-2 2.948-2.057 4.883-0.19 3.238 0.388 6.618 3.076 8.742 1.55 1.238 3.272 1.294 5.172 1.323 0.185 1.038 0.238 2.14 0.869 3.03 1.019 1.551 2.976 2.584 4.451 3.684 1.4 0.978 2.519 2.233 3.533 3.594-3-0.977-6.027-2.121-8.843-3.549-2.087-1.018-3.746-2.652-5.803-3.685-1.746-0.897-3.916-0.96-5.826-0.717-1.798 0.37-3.15 1.99-4.344 3.27-5.064-0.014-8.95 3.946-10.221 8.601-0.375 2.196-0.883 4.188 0.615 6.104 1.427-1.602 2.65-3.145 4.604-4.155 1.184-0.65 2.412-0.516 3.73-0.597 0.674 2.404 1.615 4.603 3.623 6.193 1.978 1.71 4.562 2.096 7.07 1.57 1.318-0.374 2.556-1.1 3.873-1.503 0.977 1.018 1.554 2.139 2.928 2.703 2.967 1.248 6.228 0.468 9.33 1.601 1.659 0.542 2.594 1.746 3.67 3.031-3.154 2.148-5.913 4.31-6.928 8.194-0.715 2.527 0.362 4.37 1.248 6.633-1.399 0.64-2.95 1.505-4.49 1.675-1.732 0.186-3.528 0.067-5.27 0.063 0.334 0.81 0.52 1.732 1.159 2.35 3.057 3.072 7.706 4.37 11.92 3.355 1.797-0.493 3.161-1.422 4.953-1.582 1.76-0.218 3.418-0.441 4.998-1.305 2.062-1.114 3.517-3 5.021-4.74 0.791 6e-3 1.575 0 2.362 0.051 2.684 0.237 5.088 2.528 4.633 5.363-0.802 5.477-5.42 8.118-6.682 13.641-0.161 0.945-0.617 2.711 0.469 3.22 1.621-0.726 3.023-1.741 4.74-2.272 1.976-0.612 3.942-1.214 5.871-1.987-4.41 5.05-8.23 10.38-8.947 17.258-0.274 2.314 0.494 4.374 1.613 6.346 0.384 0.09 0.77 0.173 1.148 0.264 0.565-1.584 0.996-3.285 1.784-4.77 1.175-2.095 3.166-3.812 5.498-4.47 2.394-0.711 4.84-1.167 7.183-2.077-1.24 2.356-2.276 4.807-3.594 7.125-1.205 2.205-2.627 4.652-2.978 7.16-0.256 3.067-0.28 5.942 1.361 8.659 0.545 0.986 0.971 0.975 2 1.088 0.573-4.305 3.643-8.059 7.365-10.141 2.513-1.38 4.982-2.784 7.368-4.381-0.954 2.589-2.096 5.09-3.162 7.632-1.67 3.988-2.34 8.934-0.956 13.082 0.689 1.532 1.296 3.652 3.239 3.899 0.541-2.713 1.174-5.211 3.22-7.207 2.33-2.215 5.091-3.85 7.248-6.283-0.535 2.878-0.903 6.06-0.273 8.943 0.612 2.394 2.285 3.768 4.238 5.086-10.71 4.12-21.948 6.719-33.418 7.373-4.086 0.067-8.196-1.46-10.652-4.846-0.863-1.162-1.033-2.433-1.345-3.799-0.665-3.305-2.748-6.43-5.586-8.257-2.073-1.31-4.277-1.267-6.639-1.11-1.797 0.142-3.603 1.24-5.264 1.729-1.787 0.293-3.762-0.12-5.53 0.308-2.788 0.75-5.164 2.741-6.89 5.002-0.57 0.726-0.578 1.524-0.654 2.4 3.043-0.316 6.015-0.688 8.51 1.475 0.733 1.417 0.935 3.07 1.77 4.467 1.683 2.82 4.708 4.498 7.984 4.565 0.906 1.517 1.887 2.822 3.129 4.078-5.316-0.014-10.688-0.556-15.846-1.86-2.679-0.555-5.377-1.502-8.037-0.345-2.38 0.829-4.114 2.489-5.375 4.632-0.807 1.427-2.127 1.866-3.307 2.918-3.746 3.42-5.082 9.631-1.95 13.88 1.191-1.318 2.149-2.675 3.69-3.608 1.185-0.767 2.503-1.132 3.873-1.412 1.081 1.507 2.239 2.86 3.936 3.695 4.423 2.332 10.053 0.861 12.959-3.16 2.489 0.546 4.956 1.047 7.521 0.986 2.754 0.1 5.314-0.552 8.002-0.984-2.17 1.944-4.686 3.65-7.492 4.504-2.247 0.611-4.907 0.188-6.68 1.89-2.256 2.106-3.053 5.662-3.593 8.569-0.394 2.375-1.937 4.114-2.235 6.57-0.28 4.192 1.504 9.43 5.45 11.492 0.36-1.517 0.425-3.061 0.671-4.588 0.413-1.83 1.893-3.443 3.155-4.765 2.888 1.01 6.83 1.612 9.605 0.043 2.717-1.512 3.625-4.234 4.574-6.998 1.228-0.25 2.396-0.425 3.5-1.051 2.063-1.175 3.394-2.828 5.03-4.463 0.858-0.925 2.005-1.06 3.158-1.61 1.28-0.52 2.182-1.655 3.4-2.222 0.356 0.089 0.7 0.216 1.041 0.373 0.602 2-0.705 4.111-0.416 6.26 0.143 2.46 1.399 4.148 3.48 5.377-0.227 2.042-0.666 4.082-1.96 5.742-1.062 1.19-2.505 2.005-3.653 3.129 4.1558 1.9236 9.058 1.187 12.465-1.873 2.286-1.85 2.686-4.633 4.81-6.586 1.891-1.788 3.08-4.1 2.962-6.75 0.024-2.565-1.19-4.454-2.56-6.488 1.687-0.01 3.904-0.466 5.308 0.658 2.257 1.512 3.25 4.66 3.203 7.26-0.146 2.26-1.424 3.703-2.582 5.504-0.72 1.19 1.359 1.308 2.084 1.351 4.021 0.317 7.248-1.757 9.985-4.469 2.39-2.328 3.627-5.17 4.779-8.238 0.27 2.465 0.469 4.826-0.014 7.287-0.451 2.024-1.394 3.852-2.607 5.522-0.366 0.568-0.899 1.165-1.051 1.834 0.232 0.336 0.637 0.52 1.207 0.554 3.656 0.28 7.444-1.058 10.193-3.466 2.527-2.507 4.306-5.87 5.111-9.334 1.062 1.73 2.006 3.491 2.565 5.455 0.744 2.279 0.326 5.016 0.472 7.42 3.078-0.636 5.495-2.683 7.174-5.262 1.85-2.973 2.505-6.306 2.6-9.772 2.142 2.632 4.678 5.447 5.844 8.666 0.64 1.632 0.499 3.195 0.613 4.926 1.272-0.588 2.464-1.193 3.336-2.332 3.285-4.02 4.383-9.003 4.924-14.047 3.796 5.812 9.587 11.07 16.812 11.582-1.176-2.437-2.646-4.552-3.371-7.207-0.779-2.447-0.622-4.816-0.542-7.344 1.456 1.774 3.017 3.443 4.79 4.903 6.747 5.869 15.025 10.295 22.754 14.746 5.224 2.973 10.734 6.295 14.887 10.689 2.783 2.826 4.92 6.112 6.31 9.834-71.233-0.045-148.47 0.014-219.7 0.029v1.617h411v-1.449c-23.996-5e-3 -41.993-0.02-65.986 0.012-5.144-6.777-10.204-13.521-14.75-20.723-2.276-3.727-4.807-7.845-5.984-12.068-1.195-4.352-0.214-9.061 2.906-12.365 2.45-2.66 6.477-3.592 9.957-3.768 5.201 0.049 10.455 1.401 15.656 1.33 2.844 0.02 5.628 0.068 8.416-0.615 6.13-1.337 12.139-4.58 15.33-10.176 2.076-3.404 2.957-7.322 1.89-11.232-2.247 0.734-3.45 3.083-5.55 4.244-4.908 3.358-10.5 3.902-16.293 3.504-7.501 0.015-14.85-2.304-22.29-1.893-5.39 0.305-10.462 2.444-14.644 5.819 0.592-2.55 1.218-4.965 2.806-7.108 3.385-4.641 8.786-7.875 14.31-9.279 2.897-0.767 5.666-0.603 8.634-0.607 4.254-0.029 8.336 0.893 12.607 1.045 4.258 0.17 9.031 0.412 13.16-0.774 3.315-1 6.405-2.357 8.951-4.756 3.096-2.712 5.199-6.318 6.194-10.3 0.579-2.091 0.518-4.46 0.521-6.628-0.06-1.568 0.062-3.128-0.734-4.531l-1.129 0.037c-0.915 1.84-1.568 3.67-3.072 5.154-5.082 5.174-12.418 7.775-19.625 7.424-6.604-0.289-13.244-1.924-19.914-1.853-4.946 0.198-9.782 1.05-14.262 3.217-2.756 1.24-4.941 3.094-7.334 4.882 2.37-4.902 6.006-9.086 10.443-12.225 6.628-5.059 15.146-7.745 23.477-6.74 4.088 0.289 8.236 0.293 12.332 0.18 5.106-0.431 10.21-1.835 14.408-4.865 7.021-5.078 9.88-15.518 5.783-23.285-0.489-0.74-0.671-1.309-1.643-0.635-0.701 1.621-0.935 3.399-1.75 4.998-2.533 5.18-8.089 9.117-13.949 9.088-3.309 0.047-6.686 0.09-9.943-0.375-4.4-0.271-8.922-0.514-13.312-0.069-4.1 0.574-8.108 1.98-11.787 3.858 1.518-1.593 3.096-3.106 4.799-4.5 13.219-10.881 27.356-18.993 40.11-30.576 3.959-3.764 7.739-7.931 10.692-12.535 4.086-6.258 6.832-13.504 6.904-21.043-0.081-4.504-0.91-9.012-3.072-13.004-2.717-4.874-6.9-8.91-11.986-11.238-3.897-2-8.095-2.812-12.414-3.268-7.022-0.682-14.092 0.373-20.887 2.14-5.803 1.479-11.135 3.878-16.521 6.452-3.774 1.816-7.468 4.027-11.498 5.066-3.566 0.995-7.553 1.036-11.07-0.173-3.443-1.151-6.217-4.133-7.795-7.325-1.001-1.981-1.124-4.025-1.817-6.082-1.269 0.27-1.914 1.203-2.607 2.2-1.527 2.304-2.156 5.035-2.668 7.714-0.493 2.925-0.973 5.652-0.418 8.62 0.706 4.086 2.47 8.43 5.52 11.331 3.054 3.096 7.623 4.675 11.924 4.538 2.143-0.015 4.211-0.496 6.35-0.61-4.206 3.651-8.357 6.839-13.942 8.01-2.062 0.53-4.09 0.308-6.172 0.465 0.957 1.526 1.94 2.968 3.434 4.025 4.959 3.813 11.59 4.757 17.537 3.002 3.419-1.019 6.593-3.047 9.234-5.418 4.808-4.329 8.914-9.901 13.305-14.666 3.665-3.926 7.747-7.33 12.518-9.84 4.438-2.203 9.167-3.572 14.168-3.084 4.149 0.322 7.995 2.75 9.844 6.51 1.64 3.256 1.245 7.444 0.207 10.828-1.66 5.387-5.068 10.354-8.666 14.641-2.721 2.945-5.6 5.853-8.787 8.285-8.842 7.165-18.479 13.517-27.682 20.205-6.07 4.6-11.954 9.508-17.35 14.89-5.529 5.807-10.409 11.975-13.975 19.196-2.816 5.71-4.388 11.753-5.332 18.025-0.83 4.799-0.566 9.862-0.537 14.727 0.696 12.451 4.381 24.508 10.246 35.484 5.305 9.904 11.54 19.307 17.096 29.064-12.886 0.043-25.773-0.01-38.66 0.024-1.805-4.292-4.072-8.365-5.893-12.65-3.48-8.354-6.454-16.802-9.767-25.223-3.897-10.047-9.083-19.538-15.22-28.391-2.602-3.693-5.295-7.306-7.628-11.186 1.08-2.223 2.108-4.453 2.754-6.852 3.062 2.726 6.566 4.694 10.754 4.83 2.508 0.176 5.438-0.47 7.357-2.162l-0.064-0.844c-1.234-0.8-2.965-1.377-3.885-2.552-1.232-1.564-1.838-3.64-1.752-5.621 0.155-4.741 1.899-9.44 2.52-14.113 0.402-2.519 0.198-5.215 0.251-7.776 1.92 1.087 3.817 2.054 6.027 2.405 3.043 0.365 6.03 0.313 8.666-1.446 0.46-1.152-0.726-1.346-1.394-2.02-2.087-1.412-3.012-3.646-3.467-6.046-1.028-7.808 2.167-14.437 1.338-22.21-0.157-2.829-1.195-5.171-2.03-7.841 3.134 0.915 6.46 1.386 9.628 0.318 1.546-0.616 3.068-0.915 3.3-2.836-1.33-0.445-2.837-0.81-3.927-1.734-1.384-1.134-2.152-2.694-2.598-4.39-0.82-3.115-0.958-6.424-1.666-9.58-0.9-4.235-2.492-8.286-4.959-11.86 3.505 0.835 7.576 0.64 9.98-2.4-1.934-0.735-3.925-1.152-5.343-2.783-3.143-3.523-3.683-8.036-6.65-11.852-2.177-2.959-4.98-4.43-8.696-4.297 2-4.135 3.336-8.44 3.739-13.033-1.953-0.973-3.99-1.148-6.12-1.395-4.603-0.654-9.462 0.012-13.895 1.334-3.997 1.2-7.412 3.46-11.404 4.588-1.83 0.532-3.773 0.877-5.646 1.256 0.84-1.252 1.945-2.628 2.262-4.123 0.337-1.985 0.458-3.933-1.2-5.365zm-38.553 40.707h2e-3c2.95 0.017 5.798 0.848 8.227 2.807 2.598 2.038 3.921 4.86 4.306 8.103-4.566-0.611-8.906-1.293-13.539-0.732-3.593 0.212-7.035 1.071-10.559 1.754-0.43-2.694-0.831-5.215 0.383-7.784 1.167 0.726 2.036 1.665 3.512 1.575 1.331 0.099 2.247-0.412 2.996-1.493 0.73-1.052 0.499-2.527 0.617-3.779 1.3307-0.30072 2.6908-0.45199 4.055-0.451zm4.074 17.174c1.949-6e-3 3.855 0.272 5.772 0.687-1.253 1.337-2.38 2.608-4.133 3.301-2.29 0.896-4.78 1.345-7.203 1.71-1.034-1.58-2.329-2.871-3.733-4.118 2.831-0.74 5.486-1.589 8.46-1.56 0.28-0.013 0.56-0.02 0.837-0.02z"/>
<path d="m232.16 14.873c-2.1133 0.88696-3.9726 2.1404-6.125 2.8672-7.192 2.266-14.09 2.4218-21.51 2.9238-2.465 0.067-4.7329-0.16745-7.1309 0.43555-2.343 0.545-5.0966 1.6786-6.5566 3.6836-1.071 1.684-1.3384 3.9363-1.9414 5.8223-1.133-1.52-1.512-2.5747-1.707-4.4707-7.984 0.663-15.583 3.2866-22.719 6.8516-1.256 0.655-2.873 1.2622-3.793 2.3672-1.015 2.157 0.65589 4.2935 2.8379 4.6445 2.455 0.63 3.7678-1.2261 5.2988-2.7441l1.1387-0.01367c-0.256 1.327-0.57058 2.4843-1.6426 3.4043-1.27 1.328-2.8407 1.5583-4.5527 1.9473 0.133 3.826 0.17906 7.3421 2.1641 10.746 1.556 2.736 4.8033 4.0698 7.8613 3.5918 5.817-0.67 10.54-4.5407 16.084-6.0957 3.888-1.12 8.28-0.48017 11.875 1.2988 4.58 2.133 7.5992 7.3903 7.1582 12.402-0.508 3.006-1.7874 5.8236-4.0684 7.8906-2.422 2.494-5.5282 3.6216-8.8652 4.3086-3.385 0.672-6.9642 1.6904-10.406 1.7324-1.526 0.048-2.9485 0.04442-4.3555 0.73242-1.584 0.697-2.6047 2.5968-2.2637 4.2988 0.517 1.812 2.1289 3.2108 1.9199 5.2168-0.034 1.93-1.6306 3.5615-2.6836 5.0645 1.647-0.279 3.2231-0.47994 4.7891-1.0859 0.966-0.337 1.9498-0.83791 2.9648-1.0039 0.862 0.484 1.6009 1.2458 2.5059 1.6348 1.523-0.204 3.0021-1.0148 4.4141-1.5938 4.49-1.953 8.5452-3.9099 13.576-3.9629 1.46-0.037 3.5204 0.35844 4.4023 1.6484 0.735 1.47 0.46144 3.4963 0.52344 5.1133 3.343 0.73 6.9156 1.1282 10.141-0.29883 2.522-1.109 5.3592-2.518 7.1562-4.666 0.877-1.01 0.68476-2.2428 0.88476-3.5098 0.488 0.19 1.3623 0.17959 1.6133 0.68359 1.527 2.452 1.796 5.5475 2.043 8.3535 4.485-3.066 8.1922-6.9983 10.117-12.156 0.702-1.839 0.38825-4.1535 0.40625-6.1035 0.556 0.12 1.1169 0.24114 1.6699 0.36914 0.755 2.206 1.6182 4.3432 2.7852 6.3672 2.592-2.84 4.4232-6.3039 4.9922-10.131 0.564-3.735 0.20556-7.9463-1.0234-11.529-0.426-1.49-1.6216-2.6551-0.81055-4.2051 2.427 2.825 3.726 6.4377 3.916 10.137 0.124 2.958 0.12647 5.7936-0.76953 8.6426-0.947 3.215-3.1085 6.0401-5.1055 8.7051-0.502 0.493-0.72493 1.2066-1.5449 1.0156-0.982-1.085-1.6992-2.4371-2.4942-3.6641-2.372 7.168-7.8905 12.927-14.646 16.156 0.246-2.893 0.9958-5.485 0.0918-8.373-4.198 3.902-9.4628 6.8419-15.342 6.6719-2.011 0.02-3.7281-0.80594-5.6621-1.0859-1.376 0.75-2.4669 1.9552-3.8359 2.7422-2.012 1.167-4.3358 2.003-6.6348 2.334-3.75 0.43699-8.0275-0.33033-11.854 0.51367-5.386 1.063-9.9548 3.7128-15.635 3.4648-3.619-0.037-6.4873-1.4768-9.7812-2.7148 0.876 2.708 2.2263 5.1447 4.5293 6.8887 2.073 1.778 4.6797 2.2466 6.8477 3.8496-2.835 0.502-5.0808-0.71099-7.7598-1.209-2.423-0.053-4.9548 1.081-7.2168 1.873-3.859 1.361-7.3206 3.604-10.309 6.377-2.039 1.902-3.364 4.129-5.123 6.252-1.887 2.313-3.9203 4.6748-6.2812 6.5098-3.817 2.892-8.5562 4.5147-13.283 5.0547-1.996 0.237-3.7439-0.22272-5.7109-0.51172 2.176 2.76 5.1037 4.8022 8.3457 6.1152 2.836 1.058 6.1926 0.86929 9.0606 0.0293 1.58-0.418 2.8883-1.0804 4.5723-0.73437-1.153 1.305-2.8794 1.8843-4.3594 2.9043-2.673 1.81-5.0391 4.175-7.5371 6.209-4.392 3.427-9.1829 5.3961-14.256 7.5391-5.178 2.219-10.702 3.778-16.141 5.209-6.641 1.646-13.571 2.7418-20.426 2.6328-4.125-0.053-7.8998-1.7842-10.465-5.0332-2.309-2.773-1.8949-6.0283-3.7539-9.0293-1.522-2.437-4.1632-4.2-7.1172-4.043-1.592-0.071-2.7686 0.68711-4.0996 1.4121 0.203 1.598 0.66781 2.9596-0.24219 4.4356-1.1 2.03-2.9117 2.675-4.5527 4.084 0.194 2.175 2.0542 4.2421 3.8652 5.3281 1.504 0.944 3.1765 0.49372 4.8125 0.26172 0.764 2.062 1.5429 3.9403 3.3809 5.2793 1.632 1.266 3.4036 1.2076 5.3516 1.5156 1.011-0.065 1.1378 1.1492 1.5508 1.8242-7.07-0.305-13.656 0.46836-20.379-0.80664-3.817-0.654-6.9674-2.0475-10.943-1.4785-2.058 0.464-3.4234 1.8693-4.4844 3.6133 1.892 1.323 3.492 2.7569 3.957 5.1309 0.502 2.097-0.5277 3.5094-1.4707 5.2344 0.882 1.09 1.626 2.1332 2.916 2.7832 2.465 1.219 5.6073 0.98065 7.9023-0.52735 2.285-1.466 2.7278-4.2705 5.0938-5.7695-5e-3 0.926-0.01997 1.8445-0.04297 2.7695 3.277 0.853 6.4657 1.463 9.8457 0.75196 3.537-0.773 7.1024-1.6255 10.482-2.9395 0.27 0.347 0.53673 0.68721 0.80273 1.0332-1.779 1.034-3.4192 2.1723-4.7422 3.7793-2.147 2.556-4.969 4.4896-8.041 5.7656-1.964 0.81-4.2134 0.23714-6.1484 0.86914-1.924 1.354-2.6603 4.1636-3.2812 6.3106 2.175 0.209 3.9738 0.70568 5.3008 2.5547 1.493 1.749 1.1224 3.5392 1.5254 5.6191 0.869 1.257 3.1732 0.9806 4.4902 0.9336 3.059-0.242 4.9003-3.1294 5.4023-5.9024 0.015-1.37-0.66724-2.7756-0.99024-4.0976 0.98589 0.50806 1.9448 1.0668 2.873 1.6738 3.897 0.305 6.7355-3.4432 8.3965-6.4922 0.9 0.02 1.9444 0.18115 2.8164-0.0899 1.072-0.583 1.9288-1.5922 3.0098-2.1562 1.664-0.413 3.3577-0.0816 4.2207 1.5254 1.067 1.698 0.24698 3.1499-0.16602 4.8808-0.813 1.943 0.44461 4.8924 2.4746 5.5274 1.294-0.285 2.3994-1.9158 3.6934-2.4648 2.466 0.369 3.6885 2.0198 4.8965 4.0098 1.73-1.992 3.435-4.2946 2.832-7.1016-0.493-2.555-2.1145-4.2225-3.9355-5.9395 2.38-1.465 5.6752-2.594 8.3672-1.375 3.475 1.655 5.6572 5.4004 5.5332 9.2344 0.062 2.13-0.83708 3.8079-1.7051 5.6719 4.528-0.569 8.1597-3.5197 10.262-7.4726 1.54-3.04 2.6234-6.3517 3.7754-9.5527 1.343 2.398 1.6071 4.883 2.0801 7.543 0.67 4.154-0.38431 8.2781-2.5703 11.83 2.46-0.375 4.5769-1.1992 6.3789-2.9492 3.741-3.31 5.7095-8.1536 5.1895-13.143-0.21-1.711-0.73985-3.2715-0.46485-5.0215 1.535 2.276 2.0085 4.8501 3.1895 7.2871 1.162 2.465 2.6419 4.8169 3.4199 7.4629 0.508 1.774 0.69245 3.6838 0.93945 5.5098 1.569-1.484 3.0237-2.9066 3.8867-4.9356 1.589-3.537 1.7256-7.9018 1.5156-11.715-0.09-1.256 0.0699-2.4188 0.3789-3.6328 1.18 1.614 1.5081 3.4757 2.2871 5.2637 1.232 2.554 3.6435 4.7546 5.2305 7.1016 1.143 1.692 1.8147 3.6802 2.5547 5.5762 3.69-5.04 4.5429-11.751 4.4609-17.834 0.309-0.024 0.62254-0.0501 0.93554-0.0781 2.466 4.517 5.5609 8.6135 9.6309 11.812 1.289 1.052 2.7783 1.67 4.3203 2.252-0.87799-2.042-1.8595-3.9148-2.0215-6.1758-0.247-3.238-0.0351-6.476 0.54687-9.668 3.64-1.54 7.084-3.3866 10-6.0996 2.39-1.991 4.1353-4.5114 6.7383-6.1504-0.9 2.308-2.3885 4.1896-4.0195 6.0156-3.048 3.257-6.7372 5.8289-10.91 7.4219 1.67 2.66 3.9089 4.6524 6.2129 6.7344 6.544 5.656 14.228 9.4855 21.625 13.895 5.727 3.328 11.173 6.41 15.777 11.293 3.153 3.177 5.5506 6.9585 6.9356 11.23 20.174-5e-3 40.348 8e-3 60.521-6e-3 -1.46-4.073-3.7274-7.7204-5.4004-11.691-3.51-8.596-6.6622-17.318-9.9902-25.98-2.494-6.017-5.2423-11.971-8.5293-17.605-4.12-7.055-9.2174-13.44-13.523-20.357-3.238 2.91-7.0014 5.0204-10.439 7.6504-1.787 1.456-3.7109 3.4765-3.9199 5.8945-0.056 2.123 0.40202 4.2381 0.41602 6.3711-3.125-0.202-5.1023-2.1252-7.1543-4.2441-2.347-2.542-3.6169-5.7196-4.1719-9.0996-1.759 1.774-3.6507 3.3735-5.8887 4.5215-3.49 1.802-7.2313 3.1468-10.695 5.0098-1.693 0.934-3.2581 2.0582-4.3301 3.6992-0.715 1.057-1.1989 2.3583-2.0859 3.2383-1.387-0.748-2.0556-2.7177-2.5156-4.1367-1.057-3.47-0.63123-6.8499 0.01-10.338-3.083 0.99-6.1242 2.0162-9.3242 2.5762-4.39 0.925-8.8418 0.7167-13.299 1.4707-4.082 0.707-8.0698 3.0837-10.385 6.5547-0.649 0.882-1.0478 2.318-1.9648 2.916-1.128-0.256-1.7189-1.1063-2.2969-2.0313-1.4-2.38-2.0891-5.1796-1.7051-7.9336 0.395-2.361 1.318-4.4336 2.375-6.5586-5.371 1.617-10.407 0.67786-15.883 1.3809-4.58 0.55-9.2496 1.5102-12.893 4.5312-0.84799 0.526-1.5573 1.5908-2.6523 1.1738-0.446-3.973 1.4103-8.2229 4.1543-11.045 3.281-3.328 7.3006-4.5841 11.309-6.7461 3.138-1.655 5.938-3.7608 7.957-6.7188 1.091-1.46 1.8798-3.225 3.1328-4.543 0.48366-0.21688 1.0053-0.33634 1.5352-0.35156-1.103 2.565-2.6004 4.9755-4.1894 7.2695-1.171 1.712-2.7497 2.9933-4.4727 4.1133-4.304 2.93-9.1385 4.2047-13.312 7.5137-2.285 1.915-3.336 4.6401-4.166 7.4141 1.949-1.03 3.8195-2.0769 5.8965-2.8359 3.196-1.204 6.6902-1.6964 10.076-2.0664 3.75-0.422 7.1098 0.34633 10.799-0.38867 2.712-0.53 5.184-1.7695 7.375-3.4375 1.816-1.309 3.2659-3.0023 5.1289-4.2383-0.91 3.432-3.5183 5.3439-6.0312 7.5859-2.546 2.105-3.9452 5.586-4.3672 8.791-0.284 2.433 0.87794 4.2433 1.8359 6.3633 1.934-3.182 4.616-5.8049 8.082-7.2559 4.556-1.944 9.7593-1.8011 14.613-2.3281 3.647-0.293 7.4404-1.0501 10.775-2.5801 1.642-0.692 2.8485-1.83 3.9805-3.166 0.508-0.64599 1.1643-0.87201 1.9043-1.166-0.484 1.726-1.2796 3.3282-1.8106 5.0352-1.043 3.955-1.326 8.0219 0.125 11.92 1.228-1.626 2.3414-3.1703 4.0664-4.3223 3.584-2.376 8.0042-3.6159 11.783-5.7969 2.883-1.68 5.5907-3.5103 7.2637-6.4863 0.782-1.266 1.1808-2.8829 2.1328-4.0059l1.3125-0.41797c-0.498 2.466-1.3134 5.0512-1.3184 7.5742 0.342 4.566 2.9941 8.6542 6.8711 11.035 0.039-1.632-0.14069-3.3735 0.19531-4.9805 0.702-2.737 2.9049-5.0896 5.1289-6.7246 3.014-2.137 6.2167-3.5926 8.7617-6.4336 3.07-3.47 4.9873-8.1228 4.2383-12.801-0.256-2.02-0.31697-3.3563 1.082-4.9863 0.582 2.564 0.35067 5.166 1.7637 7.375 2.92 4.314 8.4196 6.1797 13.436 5.0137-1.683-2.124-3.228-4.1073-3.541-6.9043-0.754-6.002 2.1422-12.345 2.5742-18.514 0.459-3.883-0.49792-7.4114-1.2949-11.152 1.958 1.266 2.9084 3.3557 4.9434 4.5547 2.9 1.858 6.2766 2.1499 9.6016 1.5039-1.377-1.744-2.7157-3.3369-3.1797-5.5859-1.746-6.414 0.51327-12.758 1.0723-19.186 0.427-4.461-0.53015-8.9786-2.6191-12.934-1.466-2.66-3.5842-4.3615-3.9922-7.5625 1.812 1.65 3.3998 3.9735 5.5098 5.1875 3.1023 1.6414 6.7006 2.0823 10.107 1.2383-0.066-0.2-0.13618-0.39584-0.20118-0.58984-1.185-0.81-2.3088-1.5764-3.0488-2.8574-1.734-2.86-2.0246-6.2972-2.5176-9.5352-0.682-4.855-1.9823-9.7921-4.9453-13.789-1.574-2.195-3.65-3.7436-5.377-5.8066 2.414-0.54 3.197 1.5458 5.416 1.9238 2.18 0.408 4.5039 0.3647 6.7129 0.3457-1.972-1.727-3.7363-3.5622-4.8223-5.9902-1.788-3.825-3.1191-7.7709-6.6191-10.461-1.508-1.203-3.5156-1.1641-5.3086-0.74414-1.607 1.537-2.6185 3.628-4.2695 5.168-2.872 3.235-6.8725 5.2832-11.02 6.3262-1.233 0.322-2.1569 0.0697-3.2969-0.4043 5.021-1.503 9.616-3.5667 13.123-7.5957 4.44-4.732 6.7554-11.11 7.6094-17.455-6.81-1.792-14.376-1.0741-20.748 1.9219-4.632 2.106-9.9268 4.3262-15.09 4.1562-2.03-0.039-3.8541 0.21409-5.6191-1.0039 1.936-0.844 4.3375-1.2216 5.6465-3.0176 1-1.247 1.1802-2.6353 1.5312-4.1523v-0.0039zm27.252 4.7617c-0.194 0.611-0.39266 1.2278-0.59766 1.8398-2.924 0.104-5.6071 0.99538-8.2871 2.1094 1.253 1.313 2.3693 2.4637 2.2793 4.4277-0.204 2.63-1.9999 5.202-3.7109 7.127-0.849 1.01-1.8024 0.73411-2.9824 0.78711 1.327-1.703 3.1944-3.5181 3.9004-5.5801 0.338-1.185 0.51215-2.7924-0.46484-3.7324-0.778-0.748-1.7255-1.0763-2.6445-0.32226-2.47 1.74-4.5231 4.1626-6.4941 6.4336l-1.2109-0.41211c1.067-3.044 3.4532-4.9071 5.7852-6.9941 4.049-3.484 8.9997-5.7876 14.428-5.6836zm108.69 3.5625c-3.9594-0.01084-7.9355 0.46543-11.838 1.2793-6.978 1.285-13.824 3.9254-20.148 7.1074-4.79 2.317-8.9647 4.8358-14.262 5.9688-4.666 0.773-9.4474 0.14576-13.443-2.4902-3.385-2.22-5.5484-5.565-6.7754-9.377-1.745 3.707-2.757 7.6985-2.543 11.812-0.023 4.57 1.7826 9.0667 5.0156 12.305 2.689 2.528 6.2782 3.7743 9.9492 3.7793 4.896 0.222 9.9392-2.1384 14.449-3.8594-2.584 3.532-5.4485 6.7679-8.9805 9.3809-4.21 3.342-8.8526 5.9628-14.225 6.8398 3.708 2.608 8.0038 3.9135 12.551 3.4785 5.15-0.384 9.5833-3.3772 13.238-6.8242 3.67-3.588 6.7941-7.7646 10.203-11.602 3.068-3.328 6.1551-6.4916 9.9141-9.0566 4.993-3.413 10.775-6.0477 16.883-6.3887 3.88-0.127 7.9311 0.7551 10.914 3.3711 3.144 2.708 5.4542 6.655 5.1172 10.916-0.308 3.87-1.6702 7.7239-3.4082 11.17-3.31 6.506-8.46 12.147-14.002 16.832-9.194 8.056-19.017 14.269-28.865 21.395-8.117 6.22-15.79 12.401-22.447 20.23-3.565 4.413-6.9498 9.1896-9.3438 14.35-3.565 7.243-5.1442 15.631-5.5332 23.643-0.45 10.573 1.3862 21.185 5.1602 31.061 4.722 12.488 12.829 24.41 19.609 35.936 1.037 1.622 1.8648 3.4915 3.1348 4.9375 0.84999 0.26 1.8163 0.23015 2.6973 0.24415 4.567-0.056 9.1331-7e-3 13.703-0.0352-3.47-4.784-6.9965-9.5047-10.27-14.43-3.072-4.628-6.4094-9.4947-8.6094-14.596-1.418-3.31-2.1679-6.7961-1.3379-10.371 0.792-3.428 2.7921-6.8654 5.7461-8.8574 2.902-1.895 6.3374-2.6505 9.7754-2.5605 6.95 0.124 14.133 2.2266 21.107 1.1406 4.712-0.631 9.195-2.4937 12.793-5.6367 2.973-2.788 5.0535-6.4727 5.3145-10.598-3.49 2.992-7.5888 5.0721-12.174 5.7031-8.108 0.9-15.746-0.23731-23.721-1.4453-7.43-1.058-15.105 0.5925-20.676 5.8125-2.043 1.84-2.7291 4.4276-4.6641 6.3516 0.157-2.228 0.66296-4.3901 1.252-6.5371 0.94799-3.514 1.7074-6.7998 3.8164-9.8438 3.543-5.111 9.3126-8.6945 15.268-10.27 3.637-0.816 7.4551-1.1839 11.162-0.67187 3.964 0.223 7.8925 0.92387 11.855 1.0469 3.794-0.028 7.2684 0.30403 10.984-0.66797 4.514-1.12 8.7163-3.5743 11.488-7.3613 2.547-3.666 3.6811-8.0863 3.4961-12.529-3.647 4.762-8.9565 7.866-14.73 9.293-3.253 0.84299-6.9311 0.63545-10.289 0.56445-6.622-0.493-13.996-2.3178-20.635-1.5078-4.083 0.409-8.3398 1.5199-11.844 3.7109-3.566 2.309-6.9486 5.1333-9.5176 8.5312-0.797 1.044-1.6427 1.8552-2.8047 2.4941 0.93499-3.053 2.2422-6.0005 3.5742-8.8965 2.993-6.704 8.4739-12.27 14.756-15.977 6.411-3.955 14.29-5.3673 21.738-4.8223 6.206 0.512 12.871 0.93827 18.859-1.0527 3.04-1.034 6.1501-2.5448 8.3301-4.9668 3.106-3.352 4.8281-7.925 4.6211-12.5-0.082-1.232-0.22003-2.4536-0.33203-3.6816l-0.57813 0.36914c-2.395 6.48-9.3649 11.07-16.211 11.195-2.9638 0.0858-5.93-0.016-8.8809-0.30468-3.22-0.418-6.3194-0.30685-9.6094-0.33985-2.27 0.028-4.411-0.0759-6.625 0.45508-5.092 1.137-9.9094 3.5596-14.066 6.6856-3.139 2.555-6.0733 5.3756-8.9473 8.2246-0.364-0.022-0.73361-0.0522-1.0996-0.0762 2.77-4.073 6.2476-7.8147 9.5566-11.471 7.018-7.173 15.102-13.127 23.195-18.996 6.364-4.456 12.798-8.9998 18.805-13.926 6.107-4.836 11.625-10.177 16.039-16.629 3.32-5.035 6.0329-10.963 6.7539-16.994 0.526-5.907-0.0638-12.381-3.4258-17.445-3.299-5.11-8.4573-8.5481-14.197-10.369-3.852-1.137-7.8017-1.6355-11.764-1.6465l-2e-3 -0.0039zm-302.54 2.8496c0.342 0.508 0.67962 1.0106 1.0156 1.5176 1.664 2.163 1.885 4.5826 2.293 7.1816 1.361 0.228 3.1482 0.79783 4.4102 0.04883 1.266-0.726 1.7414-2.2695 1.0254-3.5645-1.763-3.252-5.0931-5.0046-8.7441-5.1836zm-29.828 1.4023c-1.876 0.014-3.7675 0.48161-5.5215 1.0996 1.708 1.072 3.4523 2.0151 5.0312 3.2871 1.076 0.777 1.8898 1.6829 3.3398 1.5879 1.157-0.024 3.1105-0.59403 2.9395-2.082 0.17-1.707-0.98398-2.8012-2.459-3.3652-1.0707-0.36595-2.1967-0.54371-3.3281-0.52539zm7.1836 0.93164v0.0039l2e-3 0.0039c0.682 2.204 0.84269 4.1326-0.82031 5.9336-1.452 1.02-3.746 0.73424-5.373 1.3652-1.58 1.02-2.0626 3.3858-1.8066 5.1348 0.226 1.883 1.029 4.1636 2.627 5.3066 2.047 1.365 4.2474 0.98134 6.5664 0.90234-0.241 1.128-0.48427 2.2517-0.69727 3.3867 1.802 1.829 4.0912 2.9919 5.8652 4.8359 1.516 1.504 2.9517 3.0585 4.1797 4.8125 1.607 2.447 4.3984 3.3167 6.2324 5.6387-0.92 0.047-1.7168 0.2107-2.5508-0.2793-2.177-1.15-4.1834-2.5524-6.4824-3.4824-4.263-1.938-9.2655-3.2495-12.98-6.0195-1.658-1.165-3.1329-2.4105-5.2559-2.5195-1.55-0.056-3.4883 0.02524-4.5273 1.3652-0.341 0.826 0.38267 1.8476 0.63867 2.6406 0.763 1.677 0.60686 3.5529-0.61914 4.9609-1.059 1.36-2.074 2.2914-1.291 4.1504 1.11 1.835 3.128 3.7947 5.332 4.0977 2.911 0.119 5.6363-1.7586 7.6562-3.6836l1.1074 0.19922c0.085 1.541-0.52745 3.2085 1.0605 4.1465 2.93 1.902 6.938 0.57788 10.291 2.0469 2.674 0.92 3.7251 3.2152 5.3281 5.3242-2.868 1.863-6.5465 3.8773-7.7695 7.2812-0.835 2.185 0.10466 3.849 0.97266 5.793 1.606-0.735 3.1087-1.6474 4.6387-2.5234 0.91 1.17 1.8841 2.2954 2.2441 3.7754 0.398 1.442 0.05651 2.7046-0.14648 4.1406 1.967-0.55 3.7822-0.91383 5.3652-2.2988 1.882-1.678 3.6314-4.0378 3.9844-6.5898 0.175-0.943 0.33756-1.871 0.72656-2.752 0.536 0.345 1.3784 0.66642 1.5254 1.3574 0.165 1.247-0.41791 2.6538-0.75391 3.8438 2.365 0.474 4.4838 0.61981 6.2188 2.5078 1.955 1.886 1.7716 4.5518 1.2676 7.0078-1.118 4.447-4.7301 6.9493-5.9961 11.32 1.907-0.52199 3.8118-1.0617 5.6758-1.7207 2.535-0.862 4.4303-2.5506 7.1953-2.8066-0.474 1.997-1.2054 3.5615-2.5664 5.1035-3.125 3.703-6.0422 7.1814-7.5352 11.898-0.716 2.033-0.73136 4.1034-0.69336 6.2324 1.275-2.053 2.2545-4.0276 4.3125-5.4356 2.836-1.977 7.0371-1.7638 9.9961-3.3008 2.266-1.204 2.4862-3.7036 4.6992-5.0586-0.682 4.213-2.333 8.3215-4.291 12.104-1.461 2.855-3.576 5.87-4.291 9-0.508 2 0.01838 3.8872 0.35938 5.8672 1.18-2.526 2.6804-4.6085 4.9844-6.2285 2.702-2.05 5.8738-3.1994 8.5098-5.2344 1.74-1.317 2.9202-3.305 4.1582-5.084l1.2285 0.74024c-0.35648 2.506-0.98654 4.9653-1.8789 7.334-1.3 3.72-3.3085 6.6761-3.8535 10.662-0.57 2.656-0.30103 5.11 0.54297 7.668 0.94-1.556 1.7051-3.0699 2.9941-4.3809 1.967-2 4.4503-3.3861 6.4043-5.4531 1.854-1.902 3.0228-4.378 4.4688-6.625-0.398 2.466-0.4745 4.8849-0.4375 7.3789 0.057 3.085-1.1867 5.954 0.11133 8.918 0.948 2.327 3.8272 4.469 6.3652 3.209 4.258-1.916 8.6375-4.167 12.104-7.334 1.1-0.969 2.2205-1.9242 3.3144-2.9062-7.477 0.205-14.674-4.7985-17.271-11.77-0.328-0.744 0.11317-1.2265 0.32617-1.9375 2.02 2.053 3.8533 3.7938 6.9453 3.7988 4.077-0.285 9.5629-2.1915 13.61-4.7897 3.3009-2.119 7.9802-8.2793 8.1731-8.4662 1.6756-2.5406 4.0382-4.6036 6.3262-6.6035-6.4909 0.78374-6.1928 0.43455-8.1152 0.63278l-3.9573-3.0145c-16.792-15.382-31.602-26.529-31.602-26.529s-21.607-21.397-23.978-24.08c-2.575-3.006-4.313-6.6198-4.375-10.635-0.336-4.581 2.597-8.1907 2.791-12.805-4e-3 -1.219-0.24178-2.4988-0.80078-3.5898-0.645-1.204-1.8256-1.9569-2.8926-2.7539-1.294 1.805-2.5083 3.3952-4.9453 3.4082-1.991 0.252-3.3588-0.49603-4.9238-1.582-0.824 0.66-1.984 1.3429-2.334 2.3809-0.797 2.328-0.37959 5.0927 0.69141 7.2637 0.693 1.408 2.3687 1.7303 3.3887 2.8203-0.375 1.352-1.0962 2.601-1.4102 3.957-0.203 1.352-0.07192 2.9029 0.33008 4.2109 0.433 1.39 1.6962 2.4193 1.9102 3.8223-1.986-0.222-3.3551-1.6004-4.8711-2.7754-4.012-3.437-7.6575-6.9759-10.064-11.756-1.442-2.783-2.0422-5.687-2.7422-8.707-0.584-2.484-1.714-4.9864-3.752-6.6074-1.532-1.176-3.2548-1.3242-5.0938-1.5762zm160.11 0.26172v2e-3c0.494 5e-3 0.99024 0.0255 1.4902 0.0625 4.016 0.446 7.8096 1.5984 10.559 4.7324-1.977 0.28-3.29-0.73866-5.002-1.4727-1.365-0.626-2.7938-0.9267-4.2578-1.2207-0.613 2.243-1.0937 4.9033-3.0527 6.4062-1.816 1.522-4.6552 1.5508-6.4902 0.05078-1.745-1.564-3.0004-3.599-3.0684-5.998 3.017-1.833 6.3603-2.5995 9.8223-2.5625zm-76.736 21.568c-4.016-0.038-8.0444 1.4941-10.523 4.7461-4.144 5.154-3.9829 13.249 0.57813 18.1 3.736 4.192 9.2116 6.2086 14.518 7.5586 3.204 0.836 6.3812 0.72974 9.6582 0.67774 9.904-0.56 19.085-3.0308 28.549-5.8008 5.04-1.535 10.007-3.3132 15.053-4.8262 3.409-1.034 6.3758-2.516 9.9648-2.877 3.694-0.489 7.3328-0.02428 10.924 0.88672 0.451-1.006 0.89675-2.0077 1.3438-3.0117-2.855-0.806-5.4968-1.1337-8.4648-1.0957-8.63-0.3-17.131 2.2543-25.176 5.1113-6.67 2.448-13.674 3.94-20.752 4.543-7.738 0.427-15.818-0.13394-22.617-4.2109-4.666-2.774-7.9887-8.5573-6.6797-14.029 0.517-2.46 2.087-3.9295 3.627-5.7695zm-101.73 6.1211v2e-3c-0.88-0.017-1.8035 0.23924-2.5215 0.61524-2.958 1.692-5.0485 4.5195-5.3555 7.9805 1.105-0.555 2.2263-1.2181 3.4023-1.6211 1.678-0.513 3.5843-0.37913 5.2383-0.95312 2.162-0.79 2.7089-4.39 0.71289-5.666-0.44-0.238-0.94956-0.34742-1.4766-0.35742zm30.289 34.604c-2.12 1.227-4.0494 2.7491-6.1504 3.9961-1.952 1.18-4.3734 1.2845-6.6094 1.8105 2.674 1.85 6.0916 2.7177 9.3105 2.2188 1.817-0.322 3.7147-1.2799 4.3457-3.1289 0.625-1.797-0.25748-3.2655-0.89648-4.8965zm-8.6758 59.975v2e-3c-2.846 7e-3 -5.6387 1.2981-7.2637 3.7461 2.769 0.194 5.1453 1.2391 7.7383 2.0391 1.764-0.525 3.3-2.1056 3.334-4.0156-0.052-0.848-0.66669-1.2817-1.4297-1.4707-0.7763-0.20095-1.5751-0.30202-2.377-0.30078zm-17.324 26.109c-2.697-0.012-4.5558 2.3004-5.5098 4.6074-0.764 1.726-0.56977 3.4293-0.25977 5.2363 1.54-1.03 3.0336-2.0307 4.8496-2.5137 1.19-0.427 2.8676-0.67819 3.7676-1.6172 1.299-2.053 0.11001-5.6271-2.584-5.7031-0.08713-6e-3 -0.17441-9e-3 -0.26172-0.01zm19.588 24.598c-0.407-0.012-0.78206 0.12811-1.1641 0.53711-2.333 2.256-3.5052 5.7034-2.7422 8.8984 0.332 1.65 1.154 2.9823 1.998 4.4043 0.925-2.01 1.6443-3.9536 3.1953-5.5996 0.823-1.009 2.2868-2.1618 2.3008-3.5508 0.233-1.901-0.90241-3.6065-2.5664-4.4375-0.371-0.138-0.70548-0.24-1.0215-0.25zm42.777 1.6035c-2.223 0.542-3.9497 2.6531-4.5137 4.8301-0.63 2.128-1.7533 3.9607-2.9473 5.8047 1.849-0.242 3.5358-0.30016 5.1758-1.2852 1.712-1.049 3.2945-2.5461 4.3145-4.2871 1.086-1.93-0.1973-4.1895-2.0293-5.0625z" fill="#f00000"/>
<path d="M203.57 30.43c-.512.071-1.02.162-1.522.271-.454 1.124-.452 2.665-1.48 3.29-.563.342-1.393.2-1.975-.112-.435-.233-.89-.81-.89-1.185.056.067.317.16.484.162.551 0 .998-.46.998-1.027.001-.569-.446-1.03-.998-1.03s-.999.461-.998 1.03c.001.066.008.132.022.197-.6-.073-1.204-.109-1.807-.154.423 2.494 2.463 4.452 5.09 3.925 2.295-.867 2.72-3.219 3.076-5.367zm-15.152 23.338c-1.214.375-2.384.835-3.55 1.328.55.398 1.095.854 1.7 1.162 1.328.161 1.508-1.59 1.85-2.49zm-7.781 2.897c-1.944 1.048-3.95 1.83-6.135 2.2 1.167 2.589 3.257 3.746 5.912 4.409-.089-2.215.189-4.4.223-6.61zm4.168 15.656a52.452 52.452 0 0 1 .209 3.953c1.963-.005 3.916-.038 5.869-.233-1.389-2.133-3.41-3.774-6.078-3.72z" fill="#fff"/>
<path d="M183.9 35.727C0 0 0 0 183.9 35.727zM40.41 43.65c-.739 1.593-1.408 2.48-3.081 3.182.228-.764.36-1.693.824-2.353.53-.564 1.555-.62 2.257-.83zM89.265 245.6c2.887-.275 5.766-.157 8.643.127 3.784.224 7.952.375 11.18 2.614 1.317.857 1.972 2.47 3.2 3.346 1.688.247 3.456.081 5.164.095 7.272-.023 14.536-.01 21.81-.076 1.602-.047 2.579.285 3.916 1.1-.588 3.13-2.631 4.999-4.732 7.193-4.32 4.215-9.263 7.876-13.67 11.986 2.296 3.1 4.315 6.386 6.582 9.512 7.193 9.99 15.32 19.472 23.502 28.66 1.698 2.048 3.755 3.973 5.111 6.268 1.253 2.063 1.167 4.586.91 6.898-.829 4.22-4.63 7.511-8.813 8.194-1.964.388-3.66-.105-5.562-.517-.005.948.005 1.878-.1 2.821-.602 6.648-6.306 12.503-12.848 13.532-4.24.62-8-1.105-11.085-3.897-.35 2.351-.797 4.614-1.949 6.728-2.071 3.882-5.864 6.741-10.065 7.955-4.073.991-8.515.39-12.024-1.967-2.721-1.731-4.708-4.149-6.088-7.05-1.171 2.062-2.474 4.001-4.29 5.562-3.86 3.455-9.317 4.66-14.314 3.356-6.544-1.588-11.962-7.122-12.228-14.048-2.427 1.805-4.969 3.238-8.065 3.447-5.613.323-11.057-3.1-13.693-7.985-1.478-2.687-1.796-5.619-1.64-8.633-1.028.28-2.091.602-3.153.749-5.025.474-9.99-2.812-11.384-7.69-.981-3.528.248-7.056 2.633-9.71 7.96-8.871 15.812-17.738 23-27.264 3.599-4.874 7.159-9.804 10.392-14.935-4.594-4.034-9.278-7.965-13.924-11.934-2.072-1.772-3.523-3.887-4.547-6.405.493-.517.947-1.252 1.588-1.593 1.47-.293 3.062-.151 4.56-.17 8.327.028 16.652.005 24.979.051 1.275-1.707 2.659-3.219 4.674-4.053 3.783-1.588 8.283-1.91 12.332-2.266zm240.62-.105c3.396.39 7.18.53 10.222 2.228 1.873.997 3.196 2.485 4.562 4.065 6.917.094 13.835.051 20.753.07 2.674.033 5.376-.142 8.045.057.707.052 1.499.536 1.574 1.294.21 1.185-.568 2.252-1.261 3.135-2.442 2.99-5.698 5.475-8.647 7.946-2.94 2.45-5.86 4.935-8.682 7.519 2.892 4.006 5.694 8.084 8.61 12.076 6.95 9.768 15.012 18.857 22.953 27.827 1.465 1.64 2.949 3.044 3.973 5.035 1.157 2.12 1.328 4.756.84 7.084-1.076 4.107-4.874 7.187-9.018 7.794-1.811.305-3.495-.08-5.224-.569-.006 2.088-.116 4.107-.835 6.089-1.23 3.413-3.832 6.367-6.857 8.33-2.375 1.536-5.03 2.209-7.86 2-3.187-.16-5.898-1.587-8.316-3.583-.555 2.986-1.3 5.803-3.216 8.235-3.64 4.987-10.098 7.439-16.134 6.106-4.911-1.147-9.023-4.556-11.294-9.031-1.56 2.85-3.555 5.367-6.348 7.102-5.001 3.215-11.753 2.916-16.685-.28-4.134-2.564-6.817-7.108-7.23-11.943-2.579 1.588-4.912 3.086-8.026 3.357-5.818.474-11.697-3.32-14.262-8.45-1.32-2.555-1.541-5.31-1.295-8.135-1.39.384-2.926.862-4.371.787-2.85-.19-5.662-1.39-7.743-3.351-1.877-1.884-3.02-4.591-2.888-7.27.047-2.745 1.319-5.059 3.078-7.088 6.997-8.112 14.17-15.75 20.652-24.394 4.4-5.723 8.454-11.688 12.65-17.553-4.775-4.665-10.104-8.828-14.717-13.675-1.327-1.36-2.177-2.98-2.92-4.707.459-.56.9-1.214 1.469-1.664 1.05-.209 2.157-.175 3.22-.185 8.386.028 16.77-.327 25.152-.412 1.683-1.66 3.276-3.622 5.633-4.32 2.883-.886 6.064-1.043 9.056-1.332 3.76-.436 7.615-.464 11.388-.195z"/>
<path d="M93.27 247.65c3.913-.056 7.928.19 11.745 1.1 2.588.664 4.19 2.56 5.561 4.722 3.215 5.163 6.382 10.351 9.63 15.49 6.733 10.52 13.905 20.6 22.118 30.03 3.792 4.41 7.61 8.805 11.497 13.129 1.997 2.494 4.713 4.538 5.045 7.951.659 3.86-2.02 7.449-5.482 8.848-2.887 1.114-6.305.502-8.581-1.598-8.582-9.866-15.536-20.435-22.667-31.345-2.86-4.324-5.41-8.795-7.828-13.376-.683.215-1.352.452-2.015.711 3.75 7.592 8.368 14.642 13.148 21.617 5.329 7.885 10.905 15.58 16.992 22.904 1 1.182 1.853 2.476 1.9 4.078.272 3.547-1.502 7.193-3.996 9.635-2.2 2.038-5.096 3.735-8.188 3.65-3.294.104-6.609-1.593-8.71-4.086-2.11-2.584-3.053-5.899-4.328-8.947-2.187-5.292-4.386-10.563-6.316-15.96-1.066-2.774-1.944-5.62-3.006-8.397l-.228-.967c-1.56-4.552-3.091-9.117-4.528-13.712-.303-.754-.445-1.688-1.232-2.095-.611-.057-1.124.185-1.526.74.256 1.165.73 2.29 1.109 3.423 2.769 8.16 5.281 16.318 8.468 24.337.241.649.484 1.298.725 1.952.375.925.74 1.855 1.11 2.783 1.924 4.852 3.997 9.663 5.827 14.551 1.996 4.88-.203 10.933-4.082 14.257-4.022 3.784-10.44 4.333-15.21 1.68-2.854-1.557-4.888-4.097-6.136-7.07a53.441 53.441 0 0 0-.478-1.475c-.204-1.768-.584-3.475-.55-5.267.005-12.011.08-24.02.1-36.034.16-2.385.312-4.736.24-7.13-.212-.452-.43-.902-.643-1.348a6.116 6.116 0 0 0-1.499.891c-.128 1.414-.056 2.85-.068 4.268.016 13.75-.003 27.5.016 41.25.08 3.72-1.504 7.31-4.116 9.927-2.555 2.343-5.979 3.708-9.464 3.542-6.747.242-13.607-5.182-13.849-12.152-.185-3.703 1.536-6.269 2.711-9.602 2.614-6.879 5.368-13.712 7.914-20.61 2.167-6.106 4.134-12.279 6.216-18.419.446-1.28.797-2.555 1.015-3.898-.455-.241-.911-.487-1.365-.73-1.043 1.546-1.48 3.262-2.03 5.017-.64 2.087-1.313 4.158-1.935 6.25-.222.597-.436 1.203-.658 1.801-.233.82-.484 1.636-.721 2.455-.237.607-.474 1.219-.721 1.821l-.199.982c-.241.587-.474 1.18-.71 1.768-2.993 8.525-6.402 16.913-9.71 25.314-1.447 3.707-3.799 7.193-7.781 8.416-6.15 1.944-13.062-2.172-14.984-8.169-.621-1.679-.488-3.348-.46-5.122 0-1.678 1.049-3.1 2.088-4.333 8.04-9.748 15.104-20.445 22.017-31.017a166.25 166.25 0 0 0 5.423-8.81c.801-1.427 1.712-2.636 1.978-4.296a84.115 84.115 0 0 0-1.911-.25c-3.376 6.2-7.353 12.122-11.185 18.054-5.191 8.036-10.658 16.154-16.694 23.588-.92 1.148-1.764 2.29-2.892 3.252-2.19 1.793-5.286 2.338-7.95 1.38-3.334-1.105-5.999-4.347-5.69-7.975-.128-2.209.914-4.039 2.342-5.637 5.765-6.424 11.54-12.825 17.036-19.487 7.714-9.27 14.479-19.17 20.8-29.429 2.493-4.167 5.03-8.316 7.66-12.4 1.528-2.34 3.481-4.27 6.293-4.925 4.423-1.086 9.047-1.55 13.598-1.498zm227.11.071c5.089-.157 10.516-.194 15.514.881 2.844.632 4.978 2.467 6.51 4.88 2.45 3.746 4.779 7.57 7.136 11.373 6.187 10.417 13.388 20.27 20.913 29.753 4.936 5.954 10.108 11.73 15.177 17.571 1.346 1.503 2.883 2.963 3.992 4.66.83 1.3 1.095 2.746 1.542 4.21-.413 2.03-.782 3.898-2.267 5.454-2.119 2.427-5.002 3.432-8.193 2.844-1.972-.403-3.575-1.58-4.855-3.087-7.95-9.596-14.713-19.713-21.493-30.155-2.717-4.276-5.447-8.657-7.519-13.289-.873.052-1.484-.185-2.058.644.545 1.622 1.503 3.163 2.3 4.675 3.949 7.345 8.543 14.039 13.275 20.877 4.566 6.586 9.322 13.086 14.442 19.254.71.905 1.375 2.024 1.498 3.19.399 3.775-1.285 7.615-4.016 10.189-2.067 1.997-4.869 3.618-7.808 3.608-3.993.27-7.9-1.858-10.005-5.23-1.679-2.758-2.646-5.979-3.874-8.956-.394-1.004-.8-2-1.199-2.996a110.33 110.33 0 0 1-.939-2.352 182.54 182.54 0 0 1-.925-2.38c-3.907-9.748-7.197-19.895-10.425-29.904a7.889 7.889 0 0 0-1.423-2.668c-.493.317-.967.663-1.421 1.029.435 1.873 1.232 3.669 1.805 5.508 2.006 6.17 3.998 12.332 6.296 18.406a1411.5 1411.5 0 0 0 5.444 13.925c.37.91.734 1.817 1.109 2.721.305.788.611 1.574.92 2.362.857 2.304 2.043 4.698 2.432 7.13.664 5.89-3.143 11.735-8.696 13.718-2.508 1.033-4.954.815-7.6.673-2.868-1.02-5.494-2.03-7.505-4.452-2.58-3.068-3.485-6.898-3.447-10.843.086-13.11-.161-26.253.2-39.353-.043-1.587.227-3.484-.399-4.959l-1.224.029c-.45.81-.44 1.658-.454 2.56a11127 11127 0 0 0 .028 41.724c0 1.019.005 2.062-.09 3.077-.26 4.233-2.978 8.429-6.628 10.554-5.396 3.21-12.778 1.895-16.97-2.698-2.128-2.138-3.218-5.116-3.536-8.07-.271-2.802 1.085-5.253 2.006-7.804 2.66-7.33 5.68-14.541 8.41-21.844 1.839-4.93 3.352-9.97 5.15-14.916a96.468 96.468 0 0 1 .217-1c.233-.602.446-1.21.67-1.816.264-.835.549-1.659.867-2.48.17-.891.241-1.787.303-2.693a59.54 59.54 0 0 0-1.792.085c-.132.555-.271 1.11-.412 1.659-.19.47-.39.94-.588 1.405-.071.34-.138.682-.209 1.023-2.062 6.316-4.107 12.631-6.415 18.871-2.916 7.648-5.936 15.262-8.795 22.934-1.673 4.33-5.258 7.757-10.061 7.957-4.5.08-9.374-2.353-11.463-6.444-1.599-2.874-1.926-6.192-1.035-9.354 6.804-8.313 13.143-16.955 19.08-25.911 4.172-6.368 8.088-12.674 11.63-19.43.61-1.18-.911-1.295-1.703-1.38-3.48 6.471-7.312 12.759-11.3 18.933-5.361 8.202-11.022 16.423-17.247 23.99-1.433 1.727-3.02 3.172-5.277 3.69-4.362.847-8.805-1.631-10.412-5.777a106.28 106.28 0 0 1 .005-4.432c.654-1.412 1.331-2.773 2.38-3.94 3.45-3.973 7.054-7.809 10.487-11.802 8.572-9.704 16.38-20.088 23.44-30.945a1200.996 1200.996 0 0 1 11.484-18.51c1.266-1.964 2.562-3.698 4.832-4.548 3.186-1.137 6.827-1.327 10.184-1.606zm-207.11 6.13c9.075.034 18.182.062 27.253.147-.616 1.105-1.252 2.177-2.148 3.082-4.56 4.718-9.975 8.52-14.707 13.086-3.603-5.348-6.866-10.924-10.397-16.315zm189.32-.1c-2.627 4.955-5.875 9.569-8.672 14.428a109.95 109.95 0 0 0-1.062 1.778c-3.257-2.778-6.386-5.703-9.644-8.482-2.522-2.427-4.998-4.576-6.936-7.487 8.761-.047 17.562.237 26.314-.237zm-259.14.362c9.098.033 18.201-.02 27.3.028-3.366 5.286-6.595 10.658-9.918 15.978-3.96-3.167-7.667-6.633-11.62-9.81-2.149-1.887-4.158-3.816-5.762-6.197zm302.13.009c9.06-.01 18.12.028 27.182-.02-2.489 3.23-5.59 5.642-8.672 8.255-3.043 2.418-5.878 5.06-8.903 7.492-3.216-5.235-6.472-10.441-9.607-15.728zm-147.52 98.102c5.841-.792 11.697-.764 17.571-.503 2.83.422 5.43.635 7.914 2.2 2.398 1.393 3.497 3.669 4.916 5.936 6.713 11.27 13.44 22.204 21.435 32.635 6.079 8.25 13.062 16.04 19.962 23.612 1.839 2.252 3.963 4.005 5.19 6.713.229 1.522.664 2.864.139 4.386-1.195 4.978-7.023 7.766-11.701 5.765-2.983-1.238-4.272-3.75-6.235-6.12-8.165-10.25-15.24-21.185-22.317-32.185-1.55-2.455-2.954-4.968-4.348-7.514-.48.019-.958.034-1.433.052-.146.383-.288.768-.43 1.147 2.82 5.34 6.102 10.364 9.435 15.39 6.296 9.473 12.925 18.922 20.135 27.728.82 1.004 1.433 2.125 2.05 3.258a60.44 60.44 0 0 1-.053 4.347c-.19.517-.37 1.033-.536 1.55-.915 2.252-2.204 4.267-4.12 5.794-1.608 1.41-3.49 2.039-5.467 2.742-3.926.44-7.841-.83-10.502-3.794-2.313-2.651-3.181-5.694-4.442-8.88-2.03-5.055-4.083-10.098-6.05-15.182-2.831-7.448-5.338-15.04-7.756-22.63-.384-1.166-.75-2.442-1.366-3.51-.701-.099-1.261.177-1.915.376.236.791.482 1.579.73 2.366.393 1.06.758 2.133 1.138 3.2 2.185 6.752 4.31 13.46 6.869 20.083 2.484 6.335 5.154 12.598 7.591 18.952.953 2.537 2.076 4.694 1.83 7.5-.465 6.917-7.135 12.897-14.062 12.646-6.307-.067-12.06-5.025-13.063-11.256-.564-4.168-.379-8.132-.35-12.308.057-3.641-.053-7.268.194-10.905.052-7.587-.005-15.172.038-22.758-.042-.944.114-1.783-.479-2.59-.65-.075-1.128.223-1.716.452.014 13.986-.015 27.977.052 41.964 0 2.327.076 4.74-.313 7.045-.806 3.618-3.309 6.876-6.544 8.682-2.83 1.654-6.106 1.977-9.297 1.47-6.39-1.319-11.758-7.752-10.776-14.428.535-3.068 2.076-5.936 3.043-8.89.465-1.242.94-2.484 1.404-3.722.29-.806.598-1.602.906-2.399 3.518-8.695 6.67-17.525 9.61-26.433.882-2.854 2.257-5.697 2.636-8.676-.536-.184-1.072-.37-1.612-.54-1.2 2.537-1.839 5.334-2.759 7.984-2.792 8.444-5.694 16.884-8.984 25.143-1.395 3.419-2.656 6.89-3.955 10.346-1.162 2.925-2.327 5.827-4.717 7.984-1.746 1.712-3.988 2.413-6.364 2.693-6.452.778-12.79-5.077-12.98-11.479-.13-2.076.118-4.063 1.535-5.68a193.24 193.24 0 0 0 9.725-12.578c6.77-9.714 13.432-19.103 19.174-29.49.478-.84.73-1.712.91-2.652-.621-.061-1.248-.113-1.868-.16-4.112 7.624-8.943 14.897-13.75 22.094-4.897 7.387-9.857 14.589-15.65 21.317-2.66 3.091-7.378 3.922-10.971 2.02-2.774-1.338-4.547-4.148-4.675-7.207.156-2.243 1.18-4.248 2.683-5.893 7.738-8.767 15.618-17.263 22.758-26.546 6.815-9.118 13.248-18.506 19.066-28.286 1.75-2.813 3.452-5.675 5.32-8.407 1.394-1.948 3.419-2.854 5.646-3.513a38.903 38.903 0 0 0 1.954-.455zm-38.95 5.931c9.136-.067 18.278-.03 27.414-.03a603.46 603.46 0 0 1-9.782 15.87c-1.971-1.612-4.053-3.134-5.973-4.818-4.177-3.555-8.36-6.566-11.66-11.023zm97.722.048c-1.241 1.682-2.545 3.294-4.087 4.716-4.215 3.926-8.59 7.681-12.868 11.54-3.29-5.437-6.642-10.833-9.871-16.314 8.937-.01 17.889-.119 26.826.056z" fill="#fff"/>
</g>
<path d="M2.5 2.5v265.63C2.539 381.57 94.533 473.5 208 473.5c113.47 0 205.46-91.938 205.5-205.37V2.5z" fill="none" stroke="#000" stroke-width="5"/>
</svg>
