<?xml version="1.0" encoding="UTF-8" standalone="no"?>
<svg
   xmlns:dc="http://purl.org/dc/elements/1.1/"
   xmlns:cc="http://creativecommons.org/ns#"
   xmlns:rdf="http://www.w3.org/1999/02/22-rdf-syntax-ns#"
   xmlns:svg="http://www.w3.org/2000/svg"
   xmlns="http://www.w3.org/2000/svg"
   xmlns:xlink="http://www.w3.org/1999/xlink"
   height="567"
   width="516"
   version="1.1"
   id="svg2985">
  <metadata
     id="metadata2991">
    <rdf:RDF>
      <cc:Work
         rdf:about="">
        <dc:format>image/svg+xml</dc:format>
        <dc:type
           rdf:resource="http://purl.org/dc/dcmitype/StillImage" />
        <dc:title></dc:title>
      </cc:Work>
    </rdf:RDF>
  </metadata>
  <defs
     id="defs2989">
    <linearGradient
       id="linearGradient2893-5">
      <stop
         style="stop-color:white;stop-opacity:0.3137255;"
         offset="0"
         id="stop2895-5" />
      <stop
         id="stop2897-1"
         offset="0.19"
         style="stop-color:white;stop-opacity:0.25098041;" />
      <stop
         style="stop-color:#6b6b6b;stop-opacity:0.1254902;"
         offset="0.60000002"
         id="stop2901-7" />
      <stop
         style="stop-color:black;stop-opacity:0.1254902;"
         offset="1"
         id="stop2899-1" />
    </linearGradient>
    <radialGradient
       xlink:href="#linearGradient2893-5"
       id="radialGradient4658"
       gradientUnits="userSpaceOnUse"
       gradientTransform="matrix(1.353218,0,0,1.348928,-77.62935,-85.74693)"
       cx="221.44487"
       cy="226.33101"
       fx="221.44487"
       fy="226.33101"
       r="300" />
  </defs>
  <g
     style="display:inline"
     id="layer10">
    <g
       transform="matrix(0.85908948,0,0,0.85908948,2.0482289e-7,7.018232e-4)"
       id="g4623">
      <g
         id="layer3-4"
         style="display:inline">
        <path
           style="display:inline;fill:#2b5df2;fill-opacity:1;fill-rule:evenodd;stroke:none;stroke-width:3.49206924;stroke-miterlimit:4;stroke-dasharray:none"
           d="M 0,0 V 260.43022 C 0,274.00965 0.6723151,287.19198 1.9472362,300 H 300 V 0 Z"
           id="path3161" />
        <path
           style="display:inline;fill:#2b5df2;fill-opacity:1;fill-rule:evenodd;stroke:none;stroke-width:3.49206924;stroke-miterlimit:4;stroke-dasharray:none"
           d="m 300,300 v 358.5 c 0,0 270.47398,-101.95684 296,-358.5 z"
           id="path5127" />
        <path
           style="display:inline;fill:#fcef3c;fill-opacity:1;fill-rule:evenodd;stroke:none"
           d="M 300,300 V 660 C 300,660 27.698488,557.61656 2,300 Z"
           id="path6098" />
        <path
           style="display:inline;fill:#fcef3c;fill-opacity:1;fill-rule:evenodd;stroke:none"
           d="m 600,0 v 260.43022 c 0,13.57944 -0.67231,26.76176 -1.94723,39.56978 H 300 V 0 Z"
           id="path6100" />
      </g>
      <g
         id="layer4-8"
         style="display:inline" />
      <g
         id="layer1-2"
         style="display:inline">
        <rect
           style="display:inline;fill:#000000;fill-opacity:1;stroke:none;stroke-width:0;stroke-miterlimit:4;stroke-dasharray:none;stroke-opacity:1"
           id="rect7071"
           width="3.1769114"
           height="656"
           x="298.41153"
           y="2" />
        <rect
           style="display:inline;fill:#000000;fill-opacity:1;stroke:none;stroke-width:0;stroke-miterlimit:4;stroke-dasharray:none;stroke-opacity:1"
           id="rect7073"
           width="3.2797973"
           height="593.79834"
           x="298.36011"
           y="-596.98151"
           transform="rotate(90)" />
        <path
           d="m 299.99999,658.50028 c 0,0 -298.49999,-112.32036 -298.49999,-397.772 0,-285.451616 0,-259.1705027 0,-259.1705027 L 598.49999,1.4991833 V 260.72828 c 0,285.45164 -298.5,397.772 -298.5,397.772 z"
           style="fill:none;stroke:#000000;stroke-width:3.00000048;stroke-linecap:butt;stroke-linejoin:miter;stroke-miterlimit:4;stroke-dasharray:none;stroke-opacity:1"
           id="path1411" />
      </g>
    </g>
  </g>
  <g
     style="display:inline"
     id="layer2" />
  <g
     style="display:inline"
     id="layer3">
    <g
       style="stroke:#000000;stroke-width:1.69516301;stroke-miterlimit:4;stroke-dasharray:none;stroke-opacity:1"
       transform="matrix(1.1798275,0,0,1.1798275,-5.1683651,-32.380863)"
       id="g4703">
      <path
         style="display:inline;fill:#fcef3c;fill-opacity:1;fill-rule:evenodd;stroke:#000000;stroke-width:2.08410239;stroke-linecap:butt;stroke-linejoin:round;stroke-miterlimit:4;stroke-dasharray:none;stroke-dashoffset:0;stroke-opacity:1"
         id="path3015"
         d="m 134.60811,142.91207 -19.41932,8.25771 8.24908,4.80271 -20.65719,4.31053 7.15361,6.31974 -21.101207,0.19768 5.783234,7.59391 -20.734318,-3.92276 4.190613,8.57625 -19.570622,-7.89245 2.436948,9.22901 -17.654838,-11.55884 0.589634,9.5271 -15.060589,-14.78102 -1.280339,9.45906 -11.88757,-17.43518 -3.101111,9.02753 -8.2577175,-19.41932 -4.80270801,8.24907 -4.31052619,-20.65718 -6.3197393,7.15361 -0.197684,-21.10121 -7.593908,5.78324 3.922756,-20.73432 -8.576246,4.19061 7.892446,-19.570622 -9.229003,2.436949 11.558834,-17.654839 -9.527096,0.589635 L -8.1154451,58.828084 -17.574512,57.547744 -0.13932833,45.660174 -9.1668605,42.559063 10.252461,34.301346 2.0033873,29.498638 22.660573,25.188112 15.506965,18.868372 36.60817,18.670688 30.824936,11.076781 51.559254,14.999537 47.368642,6.4232908 66.939264,14.315737 64.502315,5.0867332 82.157154,16.645567 81.567519,7.1184711 96.628108,21.899493 l 1.28034,-9.459067 11.887572,17.435184 3.10111,-9.027532 8.25772,19.419322 4.8027,-8.249074 4.31053,20.657185 6.31974,-7.153608 0.19768,21.101206 7.59391,-5.783234 -3.92275,20.734318 8.57624,-4.190613 -7.89244,19.570622 9.229,-2.436948 -11.55884,17.654836 9.5271,-0.58963 -14.78102,15.06059 9.45907,1.28034 -17.43519,11.88757 z"
         transform="matrix(0.813378,0,0,0.813378,62.364018,61.693403)" />
      <path
         style="fill:#2b5df2;stroke:#000000;stroke-width:1.69516301;stroke-linecap:butt;stroke-linejoin:bevel;stroke-miterlimit:4;stroke-dasharray:none;stroke-opacity:1"
         d="m 82.559567,131.34477 v 19.787 h 65.501803 c 0,0 0,-5.94313 0,-10.91697 -3.12503,-4.68234 -13.53608,-10.03227 -14.92225,-11.08262 3.0223,-5.23478 6.39337,-14.16287 6.39337,-14.16287 l -6.65252,0.17058 -9.24921,12.73373 H 111.21661 L 94.841155,114.287 l -7.334837,7.33484 9.552346,9.55235 z"
         id="path3788" />
      <path
         style="fill:none;stroke:#000000;stroke-width:1.69516301;stroke-linecap:butt;stroke-linejoin:miter;stroke-miterlimit:4;stroke-dasharray:none;stroke-opacity:1"
         d="m 96.824119,131.21684 c 3.653201,-2.19619 9.694491,-3.30496 14.477781,-3.34759"
         id="path3790" />
      <path
         style="fill:none;stroke:#000000;stroke-width:1.69516301;stroke-linecap:butt;stroke-linejoin:miter;stroke-miterlimit:4;stroke-dasharray:none;stroke-opacity:1"
         d="m 123.36931,127.87656 c 2.30646,0.0628 7.09695,0.5095 9.65928,1.20136"
         id="path3792" />
    </g>
  </g>
  <g
     style="display:inline"
     id="layer4">
    <g
       style="stroke:#000000;stroke-width:2;stroke-miterlimit:4;stroke-dasharray:none;stroke-opacity:1"
       transform="translate(60.71537,-9.833275)"
       id="g4709">
      <path
         style="fill:#5ab532;stroke:#000000;stroke-width:2;stroke-linecap:butt;stroke-linejoin:miter;stroke-miterlimit:4;stroke-dasharray:none;stroke-opacity:1"
         d="m 326.52374,23.158714 c -1.99743,10.128304 -3.00843,22.679999 -8.39445,30.083492 1.42993,1.602341 2.70282,1.289482 6.5529,-0.410035 -3.56349,6.371696 -10.41874,14.834558 -12.64279,17.186089 5.4402,1.727824 8.05802,0.663381 11.15275,-3.335875 -2.48746,8.919023 -13.55332,20.144191 -17.68067,24.875028 5.14512,1.467755 8.17883,-0.563335 13.33847,-4.611441 -3.84358,5.739231 -10.15874,18.067968 -22.32013,27.429928 10.3489,1.43094 11.88152,-1.54603 13.93174,-3.81834 -3.27275,4.78075 -4.94986,14.62447 -24.82987,34.35629 0.0815,1.54254 5.03454,1.37387 6.73028,1.33158 4.28089,-0.10677 6.25573,-4.66698 7.6718,-6.46939 -2.41784,4.92718 -4.62634,10.25023 -8.44317,14.23276 -6.11115,6.37644 -16.24256,10.27723 -22.49196,14.72986 0.2923,2.26979 4.52327,1.91523 6.81181,1.91523 4.3228,0 8.88537,-2.43489 12.64405,-4.57006 2.67702,-1.52072 5.03631,-3.95818 6.10022,-6.45727 -13.51257,22.39072 -33.12404,24.44181 -32.18393,28.01608 2.61907,3.52923 9.81682,2.20218 13.19383,1.17188 6.65774,-2.71307 8.80242,-1.95602 14.70518,-6.07222 2.86367,-1.99693 4.98771,-3.76658 6.17215,-8.24457 -0.82309,5.58756 -8.2915,12.72011 -14.08184,16.31021 -6.00891,3.65984 -11.89559,7.05369 -12.82172,9.27639 7.40553,1.58913 13.78802,-1.92513 18.31199,-3.72092 8.83586,-3.50741 19.30675,-15.87347 19.32038,-14.85403 1.16742,1.33492 -3.04132,6.4824 -4.29119,7.72573 -3.48328,3.59815 -6.29709,5.38227 -7.82649,8.35035 2.20724,4.08162 10.83636,-1.72506 15.41343,-2.9387 5.441,-2.99413 6.99064,-6.75019 9.27513,-12.92541 0,40.17212 2.45873,32.17489 -18.60171,40.07397 -8.22239,4.85034 -9.74258,6.06051 -12.91455,9.83453 -3.50239,1.63191 -6.08341,1.22821 -10.74094,1.90061 -0.16888,1.14506 4.46997,4.29488 7.51253,4.65408 3.4816,0.17984 6.5124,-5.75072 14.42507,-4.36895 1.9584,-1.27608 3.04247,-4.87133 5.09516,-5.98944 3.56517,-1.94196 8.40716,0.0795 12.06166,-1.68863 2.20148,-1.06512 3.26841,-1.76116 4.28366,-3.87186 0.91304,3.82906 -0.7797,6.6297 -4.02779,9.02304 -7.90515,2.38556 -10.56983,1.31357 -13.0266,5.30713 -1.56404,2.54241 -1.10247,5.96533 -0.29977,8.84034 0.38683,1.38545 0.75165,3.03334 2.69747,3.85973 0.88711,-3.52953 0.45441,-7.53744 3.29197,-9.93195 3.10267,-2.61823 11.6407,-2.4584 11.72051,-1.1769 -0.25654,3.98827 -2.00276,5.95285 -0.0585,10.38013 0.93763,2.13512 2.75338,7.84296 6.27458,7.96572 -0.63777,-3.71091 -3.05333,-8.17329 -2.41233,-12.30289 0.43606,-2.80932 0.89554,-5.97212 4.44212,-7.90467 1.46631,-0.0748 6.07905,1.56763 8.6844,5.13906 1.96438,5.65657 2.49915,14.07112 4.42747,13.6211 0.26821,-3.60195 0.61265,-7.27645 0.056,-10.85549 -0.25021,-1.60886 -0.99946,-2.37359 -1.68863,-4.58344 2.72503,1.16971 10.39827,7.62554 12.6269,6.44265 -2.83014,-3.2637 -4.49808,-8.46423 -8.04347,-12.47347 -3.51678,-2.00746 -9.11082,-0.11542 -12.57339,-2.215 -1.58293,-0.95983 -2.21819,-2.40094 -2.02728,-4.24227 0.27566,-2.65874 2.90976,-4.78294 5.02199,-4.86606 4.08164,-0.23122 6.92075,0.53595 11.53781,4.42749 6.09225,6.03397 3.4959,8.78606 10.82623,12.92666 2.75007,1.07006 9.86855,1.35317 11.67912,0.25587 -1.55468,-2.34421 -6.05012,-2.43613 -8.06063,-4.59806 -3.08653,-3.31898 -2.93118,-9.18719 -5.96017,-12.55876 -2.89393,-3.22124 -6.52737,-4.56591 -10.15855,-6.9251 -3.19845,-2.07805 -8.93598,-3.25572 -10.77271,-6.59859 0,-7.50302 -0.28263,-13.52774 -0.28263,-23.85282 4.65748,5.94441 10.58268,11.71965 17.76597,14.23276 2.5047,0.87628 6.58921,2.27166 7.96069,0 0.55117,-2.92793 -1.83232,-3.80552 -2.75349,-4.24227 -4.7009,-3.61893 -7.78876,-7.32284 -11.7205,-16.50379 5.61045,4.94919 17.37527,14.67722 26.79403,19.53989 4.4758,2.31075 9.32555,6.16917 12.51234,4.68336 1.15048,-0.75559 0.51441,-2.66591 -0.0293,-3.9304 -8.23726,-5.00924 -13.88124,-9.10231 -19.25475,-15.46818 -0.45834,-2.37092 -1.59969,-6.13516 -5.30713,-10.37303 4.29596,5.42612 13.21084,12.35807 21.46975,15.43892 3.64905,1.97855 10.87501,3.56194 13.26783,1.20617 -0.20305,-3.59159 -8.39179,-7.84087 -12.18125,-9.92235 -4.47221,-3.43058 -7.87972,-4.74858 -8.83154,-9.03389 3.45595,0.55113 7.02191,0.69482 7.65967,-2.54153 -6.5417,-5.56587 -20.69606,-18.09758 -22.17882,-23.86871 1.25411,0.66046 7.405,1.07211 9.06694,-0.85288 -7.47155,-4.73664 -13.47814,-12.19146 -17.43945,-17.82805 -3.2847,-4.90268 -3.50698,-7.46676 -4.82466,-13.68998 2.26298,2.19902 5.53708,4.06322 9.58902,3.07572 -3.28615,-5.02713 -14.80823,-17.075467 -14.89614,-23.218694 0.15252,0.526563 7.17782,2.02589 9.64932,1.206167 -5.40873,-5.607359 -10.46185,-11.212621 -15.74046,-22.31407 1.64305,1.416055 6.75574,1.008424 8.32254,0.422159 -3.07714,-3.093433 -10.86842,-15.586317 -11.51889,-19.358963 1.96626,0.703688 2.95922,0.785428 5.36745,0.482466 -6.74256,-9.394206 -8.97677,-21.690464 -11.0821,-29.351221 z"
         id="path3795" />
      <path
         style="fill:none;stroke:#000000;stroke-width:2;stroke-linecap:round;stroke-linejoin:miter;stroke-miterlimit:4;stroke-dasharray:none;stroke-opacity:1"
         d="m 328.92143,43.162162 c 0.0201,1.588118 -0.0804,3.417469 -1.56801,3.85973"
         id="path3767" />
      <path
         style="fill:none;stroke:#000000;stroke-width:2;stroke-linecap:round;stroke-linejoin:miter;stroke-miterlimit:4;stroke-dasharray:none;stroke-opacity:1"
         d="m 326.32818,54.982587 c -0.26134,1.266474 0.14071,2.352024 0.84431,3.256648"
         id="path3769" />
      <path
         style="fill:none;stroke:#000000;stroke-width:2;stroke-linecap:round;stroke-linejoin:miter;stroke-miterlimit:4;stroke-dasharray:none;stroke-opacity:1"
         d="m 324.09677,62.822665 c 1.86403,8.409967 6.07219,6.039046 6.87514,-1.085549"
         id="path3771" />
      <path
         style="fill:none;stroke:#000000;stroke-width:2;stroke-linecap:butt;stroke-linejoin:miter;stroke-miterlimit:4;stroke-dasharray:none;stroke-opacity:1"
         d="m 332.2987,67.526712 3.73911,4.221581"
         id="path3773" />
      <path
         style="fill:none;stroke:#000000;stroke-width:2;stroke-linecap:round;stroke-linejoin:miter;stroke-miterlimit:4;stroke-dasharray:none;stroke-opacity:1"
         d="m 323.73492,73.075075 c 1.19162,6.610439 5.40645,4.979902 6.81484,0"
         id="path3775" />
      <path
         style="fill:none;stroke:#000000;stroke-width:2;stroke-linecap:round;stroke-linejoin:miter;stroke-miterlimit:4;stroke-dasharray:none;stroke-opacity:1"
         d="m 321.74475,84.111493 c -3.08199,12.466357 -6.21176,13.30803 -5.7896,13.991524 1.4474,1.226268 5.42775,-1.407194 6.75453,-3.437573 0.0402,1.970071 0.80411,4.121067 2.2314,4.643739 1.02525,0.623186 3.37727,-2.975209 3.67881,-5.367439 2.59326,4.3623 5.48805,5.950419 9.40809,3.859731 -5.1061,-4.503019 -6.05093,-8.58388 -6.63391,-15.680156"
         id="path3777" />
      <path
         style="fill:none;stroke:#000000;stroke-width:2;stroke-linecap:butt;stroke-linejoin:miter;stroke-miterlimit:4;stroke-dasharray:none;stroke-opacity:1"
         d="m 337.24398,85.6192 3.98035,5.910213"
         id="path3779" />
      <path
         style="fill:none;stroke:#000000;stroke-width:2;stroke-linecap:round;stroke-linejoin:miter;stroke-miterlimit:4;stroke-dasharray:none;stroke-opacity:1"
         d="m 335.07288,101.41997 c 0.58169,3.32222 2.46744,6.89626 4.52312,7.17669"
         id="path3781" />
      <path
         style="fill:none;stroke:#000000;stroke-width:2;stroke-linecap:round;stroke-linejoin:miter;stroke-miterlimit:4;stroke-dasharray:none;stroke-opacity:1"
         d="m 343.15419,106.78741 c 0.78988,1.98724 1.80958,3.85957 3.55819,5.36744"
         id="path3783" />
      <path
         style="fill:none;stroke:#000000;stroke-width:2;stroke-linecap:round;stroke-linejoin:miter;stroke-miterlimit:4;stroke-dasharray:none;stroke-opacity:1"
         d="m 317.94532,102.74676 c 0.39855,7.8865 -2.34988,12.11264 -5.54836,16.40385 3.21859,0.68162 7.24549,0.89513 10.97611,-5.06589 -0.92577,5.02515 -0.69846,10.15123 1.62832,10.37302 1.44691,0.014 4.21976,-6.72116 3.07573,-9.89056 4.48617,3.06416 7.92686,4.6783 13.50905,3.92004 -5.79882,-3.95984 -9.18045,-8.68238 -10.31272,-15.55954"
         id="path3785" />
      <path
         style="fill:none;stroke:#000000;stroke-width:2;stroke-linecap:round;stroke-linejoin:miter;stroke-miterlimit:4;stroke-dasharray:none;stroke-opacity:1"
         d="m 311.91449,127.71439 c -0.91309,3.74186 -3.31153,6.79056 -6.63391,9.40809"
         id="path3787" />
      <path
         style="fill:none;stroke:#000000;stroke-width:2;stroke-linecap:round;stroke-linejoin:miter;stroke-miterlimit:4;stroke-dasharray:none;stroke-opacity:1"
         d="m 340.74186,126.32729 c -0.59012,6.98871 3.84845,13.38353 7.96069,16.52448"
         id="path3789" />
      <path
         style="fill:none;stroke:#000000;stroke-width:2;stroke-linecap:round;stroke-linejoin:miter;stroke-miterlimit:4;stroke-dasharray:none;stroke-opacity:1"
         d="m 355.09523,140.43944 c 0.97688,1.65471 2.7627,3.12965 5.18651,4.46281"
         id="path3791" />
      <path
         style="fill:none;stroke:#000000;stroke-width:2;stroke-linecap:round;stroke-linejoin:miter;stroke-miterlimit:4;stroke-dasharray:none;stroke-opacity:1"
         d="m 318.78964,126.80977 c -1.36321,6.91598 -5.40466,14.53236 -11.57919,17.73064 3.90711,2.11511 12.65526,-1.52062 14.65492,-3.25665 0.2265,5.21464 0.52332,10.00719 3.49788,10.97611 1.10565,-0.14072 4.86487,-5.10611 4.70405,-12.06166 2.61335,4.24168 9.32767,6.37257 13.99151,6.27206 -5.20661,-6.5334 -9.87046,-10.35293 -9.70963,-20.26359"
         id="path3793" />
      <path
         style="fill:none;stroke:#000000;stroke-width:2;stroke-linecap:round;stroke-linejoin:miter;stroke-miterlimit:4;stroke-dasharray:none;stroke-opacity:1"
         d="m 319.09118,147.55582 c -4.19928,11.20018 -9.8632,20.44749 -18.39403,25.87226 8.77345,2.37791 13.04877,-3.49074 18.1528,-7.84008 0.7253,6.73403 5.90623,16.75316 7.53854,16.28324 4.87122,-0.15094 5.5873,-10.68869 6.09113,-17.36879 4.12927,4.16472 8.03003,9.61317 17.61002,8.62409 -6.79838,-8.90411 -13.87507,-17.75668 -16.46416,-27.44028"
         id="path3796" />
      <path
         style="fill:none;stroke:#000000;stroke-width:2;stroke-linecap:butt;stroke-linejoin:miter;stroke-miterlimit:4;stroke-dasharray:none;stroke-opacity:1"
         d="m 347.97885,155.09435 c 1.21705,4.75163 3.57422,8.59116 6.39268,12.06166"
         id="path3798" />
      <path
         style="fill:none;stroke:#000000;stroke-width:2;stroke-linecap:round;stroke-linejoin:miter;stroke-miterlimit:4;stroke-dasharray:none;stroke-opacity:1"
         d="m 355.09523,154.49127 c 4.7399,6.65157 10.98986,11.88374 19.35897,16.52447"
         id="path3800" />
      <path
         style="fill:none;stroke:#000000;stroke-width:2;stroke-linecap:butt;stroke-linejoin:miter;stroke-miterlimit:4;stroke-dasharray:none;stroke-opacity:1"
         d="m 319.82523,181.89799 c 1.53854,6.47466 2.53488,10.93663 5.9907,11.42451 5.39592,-0.82813 8.01561,-7.8949 8.9502,-8.44404"
         id="path3802" />
      <path
         style="fill:none;stroke:#000000;stroke-width:2;stroke-linecap:round;stroke-linejoin:miter;stroke-miterlimit:4;stroke-dasharray:none;stroke-opacity:1"
         d="m 306.36613,153.52634 c -1.79568,5.84337 -5.20672,10.07138 -9.40809,13.50906"
         id="path3804" />
    </g>
  </g>
  <g
     style="display:inline"
     id="layer6" />
  <g
     style="display:inline"
     id="layer5">
    <g
       style="stroke:#000000;stroke-width:2.01493168;stroke-miterlimit:4;stroke-dasharray:none;stroke-opacity:1"
       transform="matrix(0.99258949,0,0,0.99258949,26.406563,-1.0947443)"
       id="g4733">
      <path
         style="display:inline;fill:#5ab532;stroke:#000000;stroke-width:2.01493168;stroke-linecap:butt;stroke-linejoin:miter;stroke-miterlimit:4;stroke-dasharray:none;stroke-opacity:1"
         d="m 94.045202,410.02229 c -0.571075,5.7269 -4.257909,9.39739 -11.00435,11.04855 l -0.04419,25.89778 97.972088,28.06263 0.0616,-53.99287 c -5.62481,-1.79484 -10.66261,-4.16304 -11.05305,-11.07052 z"
         id="path3807" />
      <rect
         style="display:inline;fill:#fcef3c;stroke:#000000;stroke-width:2.01493168;stroke-linecap:round;stroke-linejoin:miter;stroke-miterlimit:4;stroke-dasharray:none;stroke-dashoffset:0;stroke-opacity:1"
         id="rect3814"
         width="12.182958"
         height="8.1874714"
         x="125.95606"
         y="415.95752" />
      <path
         style="fill:#5ab532;fill-opacity:1;stroke:#000000;stroke-width:2.01493168;stroke-linecap:butt;stroke-linejoin:miter;stroke-miterlimit:4;stroke-dasharray:none;stroke-opacity:1"
         d="m 129.13538,278.94238 v 5.03813 h -6.18719 v 6.01041 h 6.0988 c 0,0 0,22.21365 0,33.23402 0,7.31959 -24.81843,15.00671 -32.129167,24.79293 -7.918497,14.83517 5.424677,46.66416 -21.257398,62.53476 39.393875,0 68.681235,0 112.783535,0 C 161.74968,394.625 174.93326,363 166.96559,348.01787 c -7.35195,-9.77903 -31.9082,-17.50979 -31.9082,-24.61616 0,-11.16063 0,-33.37046 0,-33.37046 h 6.03636 V 284 h -6.0625 v -5.04687 z"
         id="path3794" />
    </g>
  </g>
  <g
     style="display:inline"
     id="layer8" />
  <g
     style="display:inline"
     id="layer9">
    <g
       style="stroke:#000000;stroke-width:1.73550034;stroke-linecap:round;stroke-linejoin:round;stroke-miterlimit:4;stroke-dasharray:none;stroke-opacity:1"
       transform="matrix(1.0745161,0,0,1.2359407,30.740022,-83.957808)"
       id="g4739">
      <path
         style="display:inline;fill:#fcef3c;stroke:#000000;stroke-width:1.73550034;stroke-linecap:round;stroke-linejoin:round;stroke-miterlimit:4;stroke-dasharray:none;stroke-opacity:1"
         d="m 302.59751,315.31418 c -2.60427,2.35596 -2.04436,5.98475 -2.38648,6.49654 -1.03515,0.71717 -2.70241,2.5248 -2.60746,3.93329 0.58909,0.87972 0.4996,0.45703 2.16551,0.61871 0.36204,2.11083 -0.63658,3.87279 1.01647,6.62913 0.48613,1.29636 2.43067,0.25043 4.11005,1.37001 -0.32068,0.40185 0.60135,2.47896 -0.90413,2.7355 -6.2275,1.06118 -30.13124,-0.16218 -30.91567,-0.56997 -4.81689,-0.70085 -16.42099,-0.14774 -25.36359,-0.97008 -0.68191,-0.0627 -0.0659,-0.78553 -0.71097,-0.84189 -1.16378,-0.0147 -2.10659,-0.11785 -3.0936,0.13259 -0.25933,0.18228 0.0597,0.94307 -0.70894,0.89247 -1.34131,-0.0883 -4.45594,-0.0326 -4.50597,0.30077 -0.11785,1.28163 -0.14731,2.16552 0.26516,3.18198 2.25736,0.20698 6.8367,-0.39055 7.11039,0.4436 2.48345,3.01348 15.3589,1.86097 23.73715,2.47321 2.03293,-0.0884 4.06586,0.17678 6.01041,0.75131 0.69237,0.5156 3.10832,1.34055 5.43588,1.72357 4.71405,0 12.16813,-0.13258 12.99309,0.35355 1.06066,0.85442 1.54679,4.62566 2.16551,7.24785 0.62367,2.41302 13.49395,14.52515 13.70019,15.73312 -0.65558,0.64797 -17.07921,7.40612 -21.9203,12.72792 -1.94454,2.0182 -0.61872,20.87439 -1.32582,31.51045 -1.56153,3.24091 -6.48182,6.17246 -9.19239,9.05981 -0.81023,1.38475 0.2357,1.84142 1.81195,1.81195 6.62913,0.0295 12.50696,-0.0736 19.13608,-0.0442 0.29463,-0.42721 0.32409,-4.38995 0.17678,-7.07107 -0.38302,-0.45667 -1.0754,-0.38301 -1.5468,-0.83968 0,-1.73831 -0.17678,-6.12826 0.39775,-6.36396 0.50087,-5.77471 1.00174,-15.30592 0.26517,-16.66121 -0.78077,-1.41421 -1.0312,-4.15426 -0.44195,-5.61266 9.73745,-2.96101 16.07195,-8.92723 23.90905,-13.52342 1.59099,4.62566 11.93242,16.8969 14.71666,19.44544 5.92211,4.16365 13.8857,6.84157 19.40124,7.95496 -0.4888,4.50883 -0.0365,8.57156 0.0442,10.20885 0.80734,1.56353 1.54583,3.48777 3.35876,2.78423 3.91855,-5.09706 6.86483,-8.95668 10.78338,-14.05374 0.1426,-0.52167 -4.37859,-2.55738 -8.68293,-4.40413 -6.54257,-2.80705 -16.599,-7.33797 -19.95489,-6.55603 -0.92808,-5.30331 -8.88303,-14.71666 -9.14819,-15.77732 -0.13259,-1.75303 0.61871,-5.75997 -0.0884,-6.40815 -3.41768,-2.97575 -7.01214,-4.09534 -10.47402,-5.3475 -0.7955,-5.58321 -3.31456,-13.4645 -2.96101,-15.46797 0,0 10.9749,0.28495 16.48444,-0.0884 3.31456,4.62565 9.45755,8.50001 15.02602,11.62307 0.91334,0.50087 1.46778,0.72875 3.08823,0.34574 0.34747,-0.28223 0.10754,-1.84343 0.931,-1.94697 0.8734,-0.1098 0.65725,-0.098 1.51502,8e-5 0.58778,0.0672 0.2748,0.72483 0.65617,1.40636 0.13026,0.38883 7.20426,0.29131 8.87979,-0.20299 0.66291,-0.20625 1.01647,-5.05287 0.35355,-5.17072 -4.65512,-0.26517 -14.21579,-0.0442 -14.53988,-0.53033 -5.83363,-3.37349 -10.34144,-7.98441 -14.4073,-12.68373 -16.73487,-0.82499 -21.05116,0.25046 -21.78773,-0.13259 -0.50085,-1.04594 -0.5598,-2.18025 -0.35355,-3.22618 0.71493,-0.10011 1.3852,-0.50987 1.40893,-1.01709 0.1634,-3.49272 -0.09,-7.15583 0.18206,-11.09212 1.20168,-1.26276 0.91334,-2.47487 0.57452,-3.71231 -0.50087,-0.44194 -1.2227,-0.35354 -1.72357,-0.79548 -0.97227,-0.97228 -0.7513,-2.91682 -1.63519,-3.0936 -3.47661,-0.11391 -9.69325,-0.25517 -10.42982,0.30936 z"
         id="path3817" />
      <path
         style="fill:#fcef3c;stroke:#000000;stroke-width:1.73550034;stroke-linecap:round;stroke-linejoin:round;stroke-miterlimit:4;stroke-dasharray:none;stroke-opacity:1"
         d="m 349.875,423.40882 0.125,3.9375 -89.5,-0.0312 c -5.90353,-0.10027 -13.14828,-4.19876 -12.40625,-9.3125 0.17739,-1.108 0.73958,-1.2114 1.0625,-0.67233 2.17923,3.05813 6.00022,6.08545 11.16468,6.01608 z"
         id="path3820" />
      <path
         style="fill:#fcef3c;stroke:#000000;stroke-width:1.73550034;stroke-linecap:round;stroke-linejoin:round;stroke-miterlimit:4;stroke-dasharray:none;stroke-opacity:1"
         d="m 394.50477,365.30279 2.91925,2.15489 -43.00677,57.85586 c -6.28794,5.8902 -13.15336,-1.45532 -13.02703,-3.25553 -0.0977,-0.82929 -0.0668,-1.4249 0.43693,-1.37477 0.61627,0.47845 7.35917,4.83425 10.12195,1.68404 z"
         id="path3820-1" />
    </g>
  </g>
  <g
     style="display:inline"
     id="layer11">
    <g
       id="layer2-8"
       style="display:inline"
       transform="matrix(0.85908948,0,0,0.85908948,1.8e-7,7.0334449e-4)">
      <path
         d="m 300.00001,658.5 c 0,0 298.5,-112.32031 298.5,-397.77183 0,-285.451504 0,-258.5516835 0,-258.5516835 H 1.5 V 260.72817 C 1.5,546.17969 300.00001,658.5 300.00001,658.5 Z"
         style="fill:url(#radialGradient4658);fill-opacity:1;fill-rule:evenodd;stroke:none"
         id="path2875" />
    </g>
  </g>
</svg>
