<?xml version="1.0" encoding="UTF-8"?>
<!DOCTYPE svg PUBLIC "-//W3C//DTD SVG 1.1//EN" "http://www.w3.org/Graphics/SVG/1.1/DTD/svg11.dtd">
<svg width="620" height="710" xmlns="http://www.w3.org/2000/svg">
 <path d="M614 322.27H6.01v77.75c0 167.88 136.1 303.98 304 303.98s304-136.09 304-303.98v-77.75z" fill="#094"/>
 <g stroke="#000">
  <path d="M6.002 6.002v316.266h607.994V6.002H6.002z" fill="#fff" stroke-width="5"/>
  <path d="M6.001 6.001v394.02c0 167.88 136.1 303.98 304 303.98s304-136.09 304-303.98V6.001z" fill="none" stroke-width="12"/>
  <path d="M310 28.28a20.31 20.31 0 0 0-20.312 20.31v2.284h-.336a20.214 20.214 0 0 0-20.215 20.214 20.214 20.214 0 0 0 20.215 20.215h.336v46.41h-45.737v-.336a20.214 20.214 0 0 0-20.214-20.214 20.214 20.214 0 0 0-20.214 20.214v.337h-2.956a20.31 20.31 0 0 0-20.312 20.311 20.31 20.31 0 0 0 20.312 20.31h2.956v.339a20.214 20.214 0 0 0 20.214 20.214 20.214 20.214 0 0 0 20.214-20.214v-.34h45.737v45.74h-.336a20.214 20.214 0 0 0-20.215 20.214 20.214 20.214 0 0 0 20.215 20.214h.336v2.956A20.31 20.31 0 0 0 310 287.77a20.31 20.31 0 0 0 20.309-20.312v-2.956h.34a20.214 20.214 0 0 0 20.214-20.214 20.214 20.214 0 0 0-20.215-20.214h-.339v-45.74h46.414v.34a20.214 20.214 0 0 0 20.214 20.214 20.214 20.214 0 0 0 20.214-20.214v-.34h2.285a20.31 20.31 0 0 0 20.309-20.309 20.31 20.31 0 0 0-20.31-20.311h-2.284v-.337a20.214 20.214 0 0 0-20.214-20.214 20.214 20.214 0 0 0-20.214 20.214v.337h-46.414V91.303h.34a20.214 20.214 0 0 0 20.214-20.215 20.214 20.214 0 0 0-20.215-20.214h-.34V48.59A20.31 20.31 0 0 0 310 28.28z" fill="#f00000" stroke-width="3.3"/>
 </g>
 <g stroke="#000" stroke-width="3.3">
  <path d="m224.48 480.13-21.897 10.995.887.095c3.26 8.904 2.995 21.25 14.586 23.007-1.678-5.018-4.166-19.176-4.166-19.176l2.392-4.081s.4 8.332 2.393 12.124c2.324 4.419 8.425 6.888 8.425 6.888-1.458-5.213-2.62-29.852-2.62-29.852zm22.476 44.561s-.956 3.392-1.161 3.905c-.206.514-.568 4.083.07 5.968 1.155 3.413 6.462 8.667 6.462 8.667l-1.831 1.074-8.78-10.119-2.786-5.609s-2.4 6.158-1.44 9.062c1.382 4.177 9.434 9.231 9.434 9.231l9.144.476 4.693-6.85-5.172-4.493c-3.813-3.262-6.783-6.615-8.633-11.312z" fill="#fff"/>
  <path d="m174.146 448.698 22.56.538-16.445 18.966s-7.823-2.566-9.871-5.782c-1.917-3.01-2.556-7.448-.997-10.656.824-1.696 4.753-3.066 4.753-3.066" fill="#fcdb00"/>
  <path d="m297.31 505.915-25.456 3.156c-18.14 3.587-31.158 14.224-48.135 21.903-12.195 5.683-26.725 8.174-39.917 7.638-14.96-.609-24.51-5.215-25.452-11.59-3.157-11.054 2.31-17.807 12.182-21.302-.134 10.078 3.413 11.601 11.672 15.99 6.847 2.955 13.885 4.698 21.173 3.9 23.127-2.632 43.037-18.012 62.491-22.706l15.446-2.73 12.108-1.096 4.437-.237-.71 7.87" fill="#f00000"/>
  <path d="M237.055 546.185c1.925 8.09 9.55 14.506 17.135 15.063 10.261-1.731 17.583-11.525 29.246-14.85 6.15-1.753 9.644.045 13.033 2.934 2.74 2.335 4.011 10.028 4.011 10.028-3.775 18.023-9.851 25.525-21.115 30.867-13.59 6.446-27.224 8.369-44.959-3.833-2.565 17.243 9.51 19.442 25.08 23.983 0 0-8.404 14.982-36.03 16.01 27.387 14.526 42.691 6.342 54.045-.096 0 0-8.097 18.352-29.179 24.192 0 0 22.03 12.435 49.765-15.131 0 0-1.033 26.368-29.065 40.516 32.166 12.273 52.904-32.12 52.904-32.12 3.678 10.93-7.623 30.658-20.738 44.393 38.288-9.94 46.773-54.97 46.773-54.97 12.514 23.108-3.953 45.128-3.953 45.128 32.277-13.366 35.709-47.926 35.709-47.926s8.843 18.031-5.065 41.867c29.653-12.443 27.272-59.462 27.272-59.462 11.877 12.991 8.262 37.248 8.262 37.248 19.225-23.439 7.904-57.745 7.904-57.745 14.301 10.56 17.374 32.198 17.374 32.198 19.107-30.963-6.432-61.467-6.432-61.467 20.381 5.382 28.333 25.162 28.333 25.162 5.394-35.462-25.278-58.24-25.278-58.24 19.888.49 30.229 21.3 30.229 21.3 3.415-26.861-35.483-54.515-35.483-54.515 9.012.014 22.85 7.695 33.637 19.858-2.625-31.884-32.357-45.728-32.357-45.728s10.304-1.448 28.602 11.1c-8.592-25.093-41.075-36.234-41.075-36.234 6.17-1.96 22.771-3.594 40.14 10.63-10.21-30.667-44.793-35.896-44.793-35.896 7.066-7.703 27.986-4.156 27.986-4.156-22.908-23.343-42.809-19.264-42.809-19.264s6.755-11.485 32.124-7.628c-19.443-19.41-39.198-16.46-39.198-16.46 7.379-9.262 22.162-7.94 22.162-7.94-17.881-15.226-44.85 1.271-44.85 1.271 3.64-12.718 28.51-21.155 28.51-21.155-41.901-11.152-63.577 13.406-63.577 13.406-.498-10.83 12.257-20.596 12.257-20.596-24.787-.223-32.159 18.637-32.159 18.637s-8.744-9.646-15.74-9.835c11.784 11.892-1.204 35.287-1.204 35.287-17.532.775-19.462 2.04-32.962 11.43 0 0-5.25 5.027-8.477 6.559-3.92 1.86-7.78 3.361-12.678 2.936-8.608-1.329-16.952 7.124-19.3 13.103-22.226 7.107-34.62 14.83-46.926 32.654l14.22 4.76s-7.247 3.565-9.31 6.81c-2.566 4.033-4.052 8.275-2.764 14.072 4.872 17.164 14.013 33.137 33.445 27.605 3.687-.793 8.595-4.776 12.41-7.839 6.628-5.32 12.171-16.494 17.954-18.102 22.42.614 36.284 26.952 40.924 44.045l-7.384 7.384c-11.58 7.458-24.14 12.956-36.586 18.752z" fill="#fcdb00"/>
  <path d="m294.49 382.02c16.114-1 23.32-21.364 23.32-21.364 9.124 14.367-4.574 24.5-4.574 24.5 20.436-1.67 21.478-21.673 21.478-21.673 8.198 8.916 5.818 17.576 5.818 17.576" fill="none"/>
  <path d="M241.23 428.62c-6.76 3.867-6.175 10.08-1.96 15.12 3.494 3.132 7.147 2.163 11.126 1.034 4.664-2.272 6.726-4.745 7.03-9.559-.014-3.004-.75-4.81-2.423-7.114" fill="#fff"/>
  <path d="M238.027 411.87c-4.077 0-7.858 4.125-7.58 7.732.375 3.302 2.517 5.896 5.131 7.332 6.886 2.754 14.442 1.111 19.424 1.163a33.03 33.03 0 0 1 2.428 5.03c1.234 2.555 4.84 4.588 7.496 5.578 2.702 1.007 6.968-.14 6.968-.14m-35.959-3.065-4.156.905c-2.8.926-5.062 2.542-4.521 4.788.566 2.208 1.702 4.101 3.957 4.337 3.256.34 7.554-.17 10.856-.118M300.48 559.36c5.32-3.374 9.395-21.719 9.395-21.719 3.457 11.06.549 24.048.549 24.048 13.326-6.618 14.784-32.804 14.784-32.804 4.788 6.383 5.418 21.444 5.418 21.444 13.973-11.506 8.312-36.314 8.312-36.314 9.123 8.427 9.412 23.975 9.412 23.975 16.622-15-2.558-35.186-2.558-35.186s16.45 3.33 19.127 20.073c8.216-21.866-9.914-38.442-9.914-38.442s18.726.888 24.315 11.228c2.016-21.383-25.56-34.395-25.56-34.395 4.652-1.012 14.146-.28 22.997 5.238-2.104-14.293-10-18.834-24.554-22.88 6.779-2.268 16.826-1.786 23.838.839-5.428-18.174-27.6-17.1-27.6-17.1 20.935-22.438 17.347-44.57 17.347-44.57-10.52-5.007-22.059-4.053-31.693.282-10.127 4.557-22.315 24.737-22.315 24.737" fill="none"/>
  <circle cx="245.51" cy="435.73" r="2.959" fill="#fff"/>
  <path d="M326.22 404.56s3.614-7.248 6.613-9.807c3.327-2.836 7.669-4.404 11.894-5.524 3.158-.837 9.768-.816 9.768-.816" fill="none"/>
  <path d="M176.75 290.736c2.716-.007 4.234-2.409 4.61-4.633.375-2.224 1.205-6.934.061-10.101-1.194-3.306-6.788-8.069-6.788-8.069s-7.841-11.049-9.53-15.77c-2.145-8.567-1.036-15.626 1.232-24.582 0 0 2.576-7.968 1.594-11.082-.982-3.115-2.844-5.378-5.45-6.422-3.696-1.483-8.87 2.14-11.883 1.246-2.683-.796-5.179-3.645-5.39-6.436.341-9.122 9.688-10.037 13.618-13.822 3.064-3.137 6.125-7.335 5.978-11.717-.51-6.973-7.07-14.844-12.743-16.74-10.96-3.566-15.652 5.363-20.362 6.696-3.71.888-8.319.087-11.182-2.434-2.071-1.824-3.548-5.154-2.772-7.804 2.548-5.655 10.965-6.94 15.667-11.09 5.857-6.043 6.138-16.26 4.205-23.7-1.787-6.802-4.89-8.54-11.401-9.236-5.453-.567-11.94 2.52-17.192.226-2.897-1.264-5.117-4.129-6.354-7.037-.778-1.83-1.11-4.086-.417-5.949 2.473-6.423 11.529-6.965 14.57-11.635 1.964-3.341 2.572-7.198.857-11.593-1.716-4.395-4.908-11.76-12.174-11.406-5.424.372-8.88 5.95-13.985 7.032-3.178.674-6.85 1.027-9.734-.469-3.032-1.573-6.298-8.085-6.298-8.085s-1.78-7.375-3.99-10.332c-1.746-2.336-4.1-4.649-6.935-5.333-2.76-.667-5.852.239-8.376 1.539-2.536 1.306-5.033 3.33-6.146 5.957-1.299 3.069 0 9.998 0 9.998l1.67 9.488s.68 4.818 0 7.078c-.85 2.825-4.881 7.384-4.881 7.384l-7.114 6.353s-5.521 5.438-6.752 8.973c-1.182 3.396-1.368 7.362-.268 10.785.995 3.093 3.268 5.837 5.874 7.775 5.899 5.067 15.724 2.045 20.559 5.693 2.085 1.714 3.42 4.274 3.917 6.86.622 3.247.253 6.855-1.384 9.821-1.63 2.954-7.34 6.967-7.34 6.967-2.152 1.324-6.515 4.031-6.972 7.742-1.192 9.677 1.543 11.148 1.543 11.148 4.22 4.079 8.362 5.943 14.172 6.707l8.397.144c8.626 1.464 7.794 5.705 7.67 13.452-.348 4.973-2.852 10.519-2.852 10.519s-2.55 9.051-1.013 13.181c1.229 3.305 4.138 6.413 7.507 7.452 4.324 1.334 8.829-2.251 13.349-2.475 2.385-.117 5.057-.564 7.14.605 2.749 1.544 5.183 4.348 5.587 7.632 2.594 9.66 5.439 19.309 15.685 21.139 5.352 1.825 11.427-2.793 16.103-1.772 4.743 1.968 7.157 7.112 9.757 11.18 6.54 6.956 12.919 15.839 18.205 21.086 0 0 5.79 7.872 8.152 7.866z" fill="#094"/>
  <g fill="none">
   <path d="M176.75 290.74c-6.724-5.65-5.844-8.1-3.857-11.69 1.533-2.77 8.563-5.085 9.098.718m-36.22-42.723s-37.83-45.252-50.841-71.417c-15.583-31.336-31.452-100.17-31.452-100.17"/>
   <path d="m86.122 208.98 32.983-5.158 26.92-28.139m-25.015 56.71 18.554-4.443 14.726-10.132M59.88 163.27l31.162-7.324 24.743-22.348m-66.482-21.855 26.35-1.127 19.76-23.782"/>
  </g>
  <path d="M443.25 290.736c-2.716-.007-4.234-2.409-4.61-4.633-.375-2.224-1.205-6.934-.061-10.101 1.194-3.306 6.788-8.069 6.788-8.069s7.841-11.049 9.53-15.77c2.145-8.567 1.036-15.626-1.232-24.582 0 0-2.576-7.968-1.594-11.082.982-3.115 2.844-5.378 5.45-6.422 3.696-1.483 8.87 2.14 11.883 1.246 2.683-.796 5.179-3.645 5.39-6.436-.341-9.122-9.688-10.037-13.618-13.822-3.064-3.137-6.125-7.335-5.978-11.717.51-6.973 7.07-14.844 12.743-16.74 10.96-3.566 15.652 5.363 20.362 6.696 3.71.888 8.319.087 11.182-2.434 2.071-1.824 3.548-5.154 2.772-7.804-2.548-5.655-10.965-6.94-15.667-11.09-5.857-6.043-6.138-16.26-4.205-23.7 1.787-6.802 4.89-8.54 11.401-9.236 5.453-.567 11.94 2.52 17.192.226 2.897-1.264 5.117-4.129 6.354-7.037.778-1.83 1.11-4.086.417-5.949-2.473-6.423-11.529-6.965-14.57-11.635-1.964-3.341-2.572-7.198-.857-11.593 1.716-4.395 4.908-11.76 12.174-11.406 5.424.372 8.88 5.95 13.985 7.032 3.178.674 6.85 1.027 9.734-.469 3.032-1.573 6.298-8.085 6.298-8.085s1.78-7.375 3.99-10.332c1.746-2.336 4.1-4.649 6.935-5.333 2.76-.667 5.852.239 8.376 1.539 2.536 1.306 5.033 3.33 6.146 5.957 1.299 3.069 0 9.998 0 9.998l-1.67 9.488s-.68 4.818 0 7.078c.85 2.825 4.881 7.384 4.881 7.384l7.114 6.353s5.521 5.438 6.752 8.973c1.182 3.396 1.368 7.362.268 10.785-.995 3.093-3.268 5.837-5.874 7.775-5.899 5.067-15.724 2.045-20.559 5.693-2.085 1.714-3.42 4.274-3.917 6.86-.622 3.247-.253 6.855 1.384 9.821 1.63 2.954 7.34 6.967 7.34 6.967 2.152 1.324 6.515 4.031 6.972 7.742 1.192 9.677-1.543 11.148-1.543 11.148-4.22 4.079-8.362 5.943-14.172 6.707l-8.397.144c-8.626 1.464-7.794 5.705-7.67 13.452.348 4.973 2.852 10.519 2.852 10.519s2.55 9.051 1.013 13.181c-1.229 3.305-4.138 6.413-7.507 7.452-4.324 1.334-8.829-2.251-13.349-2.475-2.385-.117-5.057-.564-7.14.605-2.749 1.544-5.183 4.348-5.587 7.632-2.594 9.66-5.439 19.309-15.685 21.139-5.352 1.825-11.427-2.793-16.103-1.772-4.743 1.968-7.157 7.112-9.757 11.18-6.54 6.956-12.919 15.839-18.205 21.086 0 0-5.79 7.872-8.152 7.866z" fill="#094"/>
  <g fill="none">
   <path d="M443.25 290.74c6.724-5.65 5.844-8.1 3.857-11.69-1.533-2.77-8.563-5.085-9.098.718m36.22-42.723s37.83-45.252 50.841-71.417c15.583-31.336 31.452-100.17 31.452-100.17"/>
   <path d="m533.88 208.98-32.983-5.158-26.92-28.139m25.015 56.71-18.554-4.443-14.726-10.132m94.408-54.548-31.162-7.324-24.743-22.348m66.482-21.855-26.35-1.127-19.76-23.782"/>
  </g>
 </g>
</svg>
