<?xml version="1.0" encoding="UTF-8" standalone="no"?>
<!-- Created with Inkscape (http://www.inkscape.org/) -->

<svg
   xmlns:dc="http://purl.org/dc/elements/1.1/"
   xmlns:cc="http://creativecommons.org/ns#"
   xmlns:rdf="http://www.w3.org/1999/02/22-rdf-syntax-ns#"
   xmlns:svg="http://www.w3.org/2000/svg"
   xmlns="http://www.w3.org/2000/svg"
   xmlns:sodipodi="http://sodipodi.sourceforge.net/DTD/sodipodi-0.dtd"
   xmlns:inkscape="http://www.inkscape.org/namespaces/inkscape"
   version="1.1"
   id="svg2"
   width="452"
   height="502"
   viewBox="0 0 452 502"
   sodipodi:docname="CHE Fräschels COA.svg"
   inkscape:version="0.92.3 (2405546, 2018-03-11)">
  <metadata
     id="metadata8">
    <rdf:RDF>
      <cc:Work
         rdf:about="">
        <dc:format>image/svg+xml</dc:format>
        <dc:type
           rdf:resource="http://purl.org/dc/dcmitype/StillImage" />
        <dc:title></dc:title>
      </cc:Work>
    </rdf:RDF>
  </metadata>
  <defs
     id="defs6" />
  <sodipodi:namedview
     pagecolor="#ffffff"
     bordercolor="#666666"
     borderopacity="1"
     objecttolerance="10"
     gridtolerance="10"
     guidetolerance="10"
     inkscape:pageopacity="0"
     inkscape:pageshadow="2"
     inkscape:window-width="1920"
     inkscape:window-height="1017"
     id="namedview4"
     showgrid="false"
     inkscape:zoom="1.4573406"
     inkscape:cx="153.61322"
     inkscape:cy="263.34433"
     inkscape:window-x="-8"
     inkscape:window-y="-8"
     inkscape:window-maximized="1"
     inkscape:current-layer="g946" />
  <style
     id="style817"
     type="text/css">
	.st0{fill:#FFFFFF;}
	.st1{fill:#20872D;stroke:#000000;stroke-width:0.75;stroke-miterlimit:10;}
	.st2{fill:#20872D;}
	.st3{fill:none;stroke:#000000;stroke-width:2;stroke-miterlimit:10;}
	.st4{fill:none;stroke:#000000;stroke-width:3;stroke-miterlimit:10;}
</style>
  <g
     id="g946"
     transform="translate(125.99967,28.216897)">
    <path
       d="m 321.5956,-24.443346 h -444.18554 c 0,0 -0.0412,272.340476 0,272.732486 18.20738,159.66992 222.195753,221.17348 222.195753,221.17348 0,0 203.782417,-61.48294 221.989787,-221.17348 0.0412,-0.39201 0,-272.732486 0,-272.732486 z"
       class="st0"
       id="Hintergrund"
       inkscape:connector-curvature="0"
       style="fill:#ffffff;stroke-width:1" />
    <g
       id="Haus"
       transform="matrix(2.0596566,0,0,2.0631855,-125.41167,-27.538123)"
       style="stroke-width:0.48510244">
	<rect
   id="rect820"
   height="15.93"
   width="27.219999"
   y="171.83"
   x="105.17"
   style="stroke-width:0.48510244" />

	<rect
   id="rect822"
   height="15.93"
   width="20.690001"
   y="171.83"
   x="83.389999"
   style="stroke-width:0.48510244" />

	<rect
   id="rect824"
   height="15.93"
   width="20.690001"
   y="154.75999"
   x="83.389999"
   style="stroke-width:0.48510244" />

	<rect
   id="rect826"
   height="15.93"
   width="20.690001"
   y="120.61"
   x="83.389999"
   style="stroke-width:0.48510244" />

	<rect
   id="rect828"
   height="15.93"
   width="27.219999"
   y="137.69"
   x="105.17"
   style="stroke-width:0.48510244" />

	<rect
   id="rect830"
   height="15.93"
   width="13.07"
   y="120.61"
   x="105.17"
   style="stroke-width:0.48510244" />

	<rect
   id="rect832"
   height="15.93"
   width="13.07"
   y="120.61"
   x="119.33"
   style="stroke-width:0.48510244" />

	<rect
   id="rect834"
   height="15.93"
   width="13.07"
   y="154.75999"
   x="119.33"
   style="stroke-width:0.48510244" />

	<rect
   id="rect836"
   height="15.93"
   width="13.07"
   y="154.75999"
   x="105.17"
   style="stroke-width:0.48510244" />

	<rect
   id="rect838"
   height="15.93"
   width="9.8000002"
   y="137.69"
   x="83.389999"
   style="stroke-width:0.48510244" />

	<rect
   id="rect840"
   height="15.93"
   width="9.8000002"
   y="137.69"
   x="94.279999"
   style="stroke-width:0.48510244" />

	<rect
   id="rect842"
   height="15.93"
   width="9.8000002"
   y="103.54"
   x="83.389999"
   style="stroke-width:0.48510244" />

	<rect
   id="rect844"
   height="15.93"
   width="9.8000002"
   y="103.54"
   x="94.279999"
   style="stroke-width:0.48510244" />

	<rect
   id="rect846"
   height="15.93"
   width="27.219999"
   y="103.54"
   x="105.17"
   style="stroke-width:0.48510244" />

	<polygon
   id="polygon848"
   points="95.37,78.5 83.39,102.54 104.08,102.54 116.06,78.5 "
   style="stroke-width:0.48510244" />

	<polygon
   id="polygon850"
   points="117.24,78.5 105.17,102.54 132.39,102.54 "
   style="stroke-width:0.48510244" />

</g>
    <path
       d="m 33.985157,144.73786 c -2.986502,-0.9078 -9.309649,1.29981 -12.357939,2.06319 -1.585936,0.392 -4.551842,0.0618 -6.17897,0 -2.574571,-0.1238 -5.8082321,-1.56803 -6.1789699,-4.12637 0,0 1.8536899,-3.3011 4.1193129,-4.12637 1.874287,-0.68086 5.9936,0 7.991468,0 3.171871,0 9.742175,1.15538 12.70808,0 1.647727,-0.66023 4.222296,-3.36299 5.210931,-4.84848 1.132811,-1.67119 3.027696,-5.50872 2.924713,-7.53064 -0.102983,-2.31076 -2.492185,-6.62283 -4.119314,-8.25275 -1.627127,-1.6299 -5.931811,-4.0232 -8.238626,-4.12636 -2.780536,-0.12379 -8.197433,2.3314 -10.298282,4.12636 -2.28622,1.96003 -4.922579,7.59254 -6.17897,10.31594 -0.679687,1.48549 -1.071021,4.88975 -2.059657,6.18955 -3.3778362,4.43585 -18.5369086,12.37912 -18.5369086,12.37912 0,0 -0.9062488,-4.12637 -2.0596566,-4.12637 -4.1193128,0 -2.7187468,7.92263 -4.1193128,10.31592 -1.668322,2.8472 -8.238626,10.31593 -8.238626,10.31593 v -45.39009 c 0,0 2.945308,-4.22953 4.469454,-4.12636 0.65909,0.0413 1.338777,1.50613 1.709515,2.06319 1.894884,2.88846 3.975138,11.78079 6.1789698,14.44229 1.6477252,1.98066 5.6640556,4.12637 8.2386263,4.12637 2.5745707,0 6.8586564,-4.00257 8.2386261,-6.18955 1.4005666,-2.22825 2.8217298,-7.79883 2.0596569,-10.31594 -0.6384937,-2.10444 -4.1605065,-5.34364 -6.1789699,-6.18954 -2.36860505,-0.99033 -7.7031155,0 -10.2776862,0 -2.0390598,0 -6.364339,0.76338 -8.259223,0 -1.359373,-0.55706 -4.119313,-2.06319 -4.119313,-2.06319 l 4.119313,-8.25274 h 13.2435918 c 0,0 5.169738,5.17859 7.352974,6.18956 2.842326,1.32043 9.2890512,2.64087 12.3579402,2.06318 2.945308,-0.55706 8.815329,-3.56932 10.298281,-6.18955 1.276988,-2.24887 1.215198,-8.04643 0,-10.315935 -0.885651,-1.629917 -4.407665,-3.589943 -6.178968,-4.126371 -3.645593,-1.093487 -11.6370603,-1.299806 -15.2002661,0 -2.2656223,0.825274 -7.4559568,6.189557 -7.4559568,6.189557 H -15.446601 L 0.3921581,78.055708 13.388591,76.652742 c 0,0 5.746441,5.5706 8.238627,6.189556 3.04829,0.742747 9.721578,-0.350742 12.357939,-2.063187 1.565338,-1.01096 3.583802,-4.415216 4.119312,-6.189555 0.453126,-1.485494 0.494319,-4.724694 0,-6.189556 -0.823861,-2.455191 -3.76917,-7.324309 -6.178969,-8.252743 -2.450991,-0.928433 -7.909082,0.949066 -10.298282,2.063188 -2.986502,1.402964 -10.298284,8.252741 -10.298284,8.252741 L 0.3921581,71.247196 11.328934,58.084072 c 1.915482,-0.763378 6.343743,0.784011 8.238627,0 2.69815,-1.114119 6.796866,-5.715024 8.238625,-8.252741 1.050427,-1.856867 2.430396,-6.148294 2.059657,-8.252741 -0.308948,-1.836235 -2.553973,-5.178596 -4.119312,-6.189557 -2.636362,-1.712444 -9.309648,-2.805933 -12.35794,-2.063185 -2.492184,0.618954 -6.8586563,4.002579 -8.2386262,6.189555 -1.4005665,2.228241 -2.224429,7.695682 -2.0596566,10.315928 0.1029829,1.629917 2.2450255,4.55964 2.0596566,6.189556 L -7.2079746,72.52637 c 0,0 -3.9751374,-2.682141 -4.1193134,-4.12637 -0.185369,-1.856867 3.5838027,-4.415216 4.1193134,-6.189555 0.5973004,-1.98066 1.1946008,-6.581564 0,-8.252743 -0.9474421,-1.32044 -4.5724374,-2.3314 -6.1789694,-2.063186 -2.533379,0.412637 -7.373571,3.754998 -8.238626,6.189556 -0.700284,2.00129 1.009231,6.395875 2.059656,8.252742 0.72088,1.279176 3.192468,2.991619 4.119313,4.126372 1.174004,1.444228 4.119313,6.189556 4.119313,6.189556 L -25.744883,99.347781 V 49.831331 L -7.2079746,35.389033 c 1.9566737,-0.618957 6.24075934,0.474532 8.2386262,0 2.2450257,-0.536428 6.8380598,-2.290137 8.2386265,-4.126372 1.5859349,-2.083816 2.9865019,-7.860736 2.0596559,-10.315926 -0.926845,-2.413927 -5.7876345,-5.364283 -8.2386258,-6.189557 -2.32741193,-0.784011 -7.6001326,-1.052224 -9.8245618,0 -2.3892017,1.134751 -5.7670374,5.756287 -6.6526904,8.252742 -1.029829,2.90909 1.544742,9.696972 0,12.379113 l -12.357939,8.252742 c 0,0 -0.78267,-7.798842 0,-10.315927 1.153406,-3.754998 5.396299,-10.584142 6.178969,-14.4423 0.514914,-2.517085 1.153408,-8.005159 0,-10.3159264 -1.153407,-2.3107677 -4.119313,-5.4880733 -6.178969,-6.1895564 -1.956675,-0.6808511 -6.343743,-0.6808511 -8.321012,0 -2.059658,0.7014831 -5.025563,3.8787887 -6.178971,6.1895564 -1.153408,2.3107674 -0.514914,7.7988414 0,10.3159264 0.78267,3.858158 5.025562,10.687302 6.178971,14.4423 0.782669,2.517085 0,10.315927 0,10.315927 l -12.357941,-8.252742 c -1.544743,-2.682141 1.029829,-9.470023 0,-12.379113 -0.885653,-2.496455 -4.263489,-7.117991 -6.65269,-8.252742 -2.224429,-1.052224 -7.49715,-0.784011 -9.824562,0 -2.450991,0.825274 -7.311781,3.77563 -8.238626,6.189557 -0.947442,2.45519 0.473721,8.23211 2.059655,10.315926 1.400568,1.836235 5.993601,3.589944 8.238627,4.126372 1.997867,0.474532 6.281953,-0.618957 8.238626,0 l 18.536911,14.442298 v 49.51645 L -48.483493,76.652742 c 0,0 2.94531,-4.745328 4.119313,-6.189556 0.926846,-1.134753 3.398434,-2.847196 4.119314,-4.126372 1.050424,-1.856867 2.759939,-6.251452 2.059657,-8.252742 -0.865057,-2.434558 -5.705249,-5.776919 -8.238627,-6.189556 -1.606531,-0.268214 -5.231527,0.742746 -6.17897,2.063186 -1.1946,1.671179 -0.5973,6.272083 0,8.252743 0.535512,1.774339 4.304683,4.332688 4.119313,6.189555 -0.144176,1.444229 -4.119313,4.12637 -4.119313,4.12637 L -64.960745,56.020887 c -0.18537,-1.629916 1.956674,-4.559639 2.059657,-6.189556 0.164772,-2.620246 -0.65909,-8.087687 -2.059657,-10.315928 -1.379969,-2.186976 -5.746442,-5.570601 -8.238625,-6.189555 -3.048293,-0.742748 -9.72158,0.350741 -12.357941,2.063185 -1.565339,1.010961 -3.810365,4.353322 -4.119312,6.189557 -0.370738,2.104447 1.00923,6.395874 2.059656,8.252741 1.44176,2.537717 5.540476,7.138622 8.238626,8.252741 1.894884,0.784011 6.323146,-0.763378 8.238627,0 l 10.936776,13.163124 -10.936776,-0.78401 c 0,0 -7.311781,-6.849777 -10.298283,-8.252741 -2.389202,-1.114122 -7.847292,-2.991621 -10.298283,-2.063188 -2.409798,0.928434 -5.355107,5.797552 -6.178974,8.252743 -0.494312,1.464862 -0.453119,4.704062 0,6.189556 0.535514,1.774339 2.553979,5.178595 4.119318,6.189555 2.63636,1.712445 9.309647,2.805934 12.357939,2.063187 2.492184,-0.618956 8.238627,-6.189556 8.238627,-6.189556 l 12.996432,1.402966 15.838758,17.165703 h -14.417594 c 0,0 -5.169739,-5.364283 -7.455959,-6.189557 -3.583802,-1.299806 -11.575269,-1.093487 -15.200264,0 -1.771305,0.536428 -5.293318,2.496454 -6.17897,4.126371 -1.215197,2.269505 -1.276987,8.067065 0,10.315935 1.482953,2.62023 7.352974,5.63249 10.298283,6.18955 3.068888,0.57769 9.515614,-0.74275 12.357939,-2.06318 2.183236,-1.01097 7.352974,-6.18956 7.352974,-6.18956 h 13.243591 l 4.119314,8.25274 c 0,0 -2.759939,1.50613 -4.119314,2.06319 -1.894884,0.76338 -6.220161,0 -8.259222,0 -2.574571,0 -7.909081,-0.99033 -10.277686,0 -2.018463,0.8459 -5.540477,4.0851 -6.178971,6.18954 -0.762072,2.51711 0.659091,8.08769 2.059658,10.31594 1.379971,2.18698 5.664055,6.18955 8.238627,6.18955 2.57457,0 6.590901,-2.14571 8.238626,-4.12637 2.203832,-2.6615 4.284084,-11.55383 6.178968,-14.44229 0.370739,-0.55706 1.050426,-2.02192 1.709515,-2.06319 1.524147,-0.10317 4.469456,4.12636 4.469456,4.12636 v 45.39009 c 0,0 -6.570305,-7.46873 -8.238627,-10.31593 -1.400567,-2.39329 0,-10.31592 -4.119312,-10.31592 -1.153409,0 -2.059658,4.12637 -2.059658,4.12637 0,0 -15.159071,-7.94327 -18.536908,-12.37912 -0.988636,-1.2998 -1.379971,-4.70406 -2.059656,-6.18955 -1.256392,-2.7234 -3.892752,-8.35591 -6.178971,-10.31594 -2.100849,-1.79496 -7.517746,-4.25015 -10.298282,-4.12636 -2.306816,0.10316 -6.611499,2.49646 -8.238631,4.12636 -1.627125,1.62992 -4.016326,5.94199 -4.119316,8.25275 -0.10297,2.02192 1.7919,5.85945 2.924717,7.53064 1.009233,1.46486 3.563209,4.18825 5.210933,4.84848 2.94531,1.15538 9.515615,0 12.70808,0 1.997869,0 6.117182,-0.68086 7.99147,0 2.265622,0.82527 4.119311,4.12637 4.119311,4.12637 -0.370737,2.55834 -3.604398,4.00257 -6.178968,4.12637 -1.627129,0.0618 -4.593034,0.392 -6.17897,0 -3.048292,-0.76338 -9.371437,-2.97099 -12.357939,-2.06319 -1.915481,0.57769 -4.593038,4.12637 -5.313917,6.00387 -0.926847,2.45519 -0.906247,8.04642 0,10.50161 0.700287,1.91876 3.542612,5.17859 5.313917,6.18956 2.739343,1.54739 9.412631,3.13604 12.357939,2.06318 2.553974,-0.92842 5.725846,-5.88007 7.044025,-8.25274 1.318181,-2.37266 1.297584,-8.45905 3.254258,-10.31592 1.544742,-1.46487 6.178969,-2.53772 8.238626,-2.06319 3.913347,0.9078 12.35794,10.31593 12.35794,10.31593 -0.144177,1.19665 -3.171871,1.79497 -4.345876,2.06318 -2.450991,0.55707 -7.600133,-0.4539 -10.071721,0 -1.462356,0.26821 -4.696017,0.86654 -5.581669,2.06319 -1.544742,2.08381 -1.894884,8.08769 -0.5973,10.31592 1.153407,2.0013 5.931811,4.12638 8.238626,4.12638 2.306815,0 6.693884,-2.41394 8.238626,-4.12638 1.833095,-2.04254 1.585936,-8.7479 3.851557,-10.31592 0.906249,-0.61895 3.35724,-0.35074 4.387069,0 2.450992,0.82528 8.238627,6.18955 8.238627,6.18955 v 26.82141 c 0,0 -6.405532,-2.74403 -8.238627,-4.12637 -1.627128,-1.2379 -3.645591,-6.76725 -5.540476,-6.02449 -1.009231,0.392 0.782669,3.56931 0,4.31205 -1.235794,1.17602 -5.231528,0.30948 -6.817462,-0.37137 -2.409799,-1.01097 -5.396301,-5.79755 -7.68252,-7.09735 -2.471588,-1.40297 -8.053257,-3.54869 -10.85439,-3.21859 -2.368605,0.28886 -7.044025,2.70279 -8.238627,4.76596 -1.462355,2.53773 -1.318179,9.09866 0,11.73954 1.153408,2.31076 5.725847,5.61187 8.238627,6.18954 2.553975,0.57771 7.991468,-0.82525 10.298283,-2.06318 2.574571,-1.38234 5.334509,-7.96389 8.238627,-8.25274 1.85369,-0.18567 5.808231,2.31078 6.178968,4.12638 0.370738,1.8156 -2.63636,5.07543 -4.119312,6.18954 -2.759941,2.06319 -10.504249,1.91878 -13.14061,4.12637 -2.224428,1.85688 -5.684651,7.42748 -5.396299,10.31594 0.308949,3.28047 5.046158,9.47002 8.238626,10.31593 3.995734,1.05223 12.357939,2.06318 15.303248,-6.18956 1.379969,-3.89941 -1.97727,-12.52353 -0.885653,-16.50549 0.494318,-1.79496 2.306816,-5.83881 4.119313,-6.18955 2.801134,-0.55706 9.453823,6.43714 9.453823,6.43714 l -2.039058,154.49132 h 11.101549 0.08239 11.10155 L -20.8223,204.79719 c 0,0 6.65269,-6.9942 9.453822,-6.43714 1.812499,0.35074 3.6249967,4.39459 4.1193143,6.18955 1.0916179,3.98196 -2.2656219,12.60608 -0.8856524,16.50549 2.9453089,8.25274 11.3075145,7.24179 15.3032483,6.18956 3.1924678,-0.84591 7.9296778,-7.03546 8.2386268,-10.31593 0.288351,-2.88846 -3.171872,-8.45906 -5.3963,-10.31594 -2.6363612,-2.20759 -10.38066986,-2.06318 -13.1406096,-4.12637 -1.4829527,-1.11411 -4.4900514,-4.37394 -4.1193131,-6.18954 0.3707381,-1.8156 4.3252787,-4.31205 6.1789697,-4.12638 2.9041157,0.28885 5.6640555,6.8704 8.2386262,8.25274 2.3068155,1.23793 7.7443088,2.64089 10.2982828,2.06318 2.512781,-0.57767 7.085219,-3.87878 8.238626,-6.18954 1.31818,-2.62025 1.462357,-9.18118 0,-11.73954 -1.1946,-2.06317 -5.87002,-4.49773 -8.238626,-4.76596 -2.821729,-0.3301 -8.4033985,1.81562 -10.8543902,3.21859 -2.2656221,1.2998 -5.2727207,6.08638 -7.6825188,7.09735 -1.565339,0.66021 -5.5816694,1.54739 -6.8174633,0.37137 -0.7826697,-0.74274 1.0092317,-3.92005 0,-4.31205 -1.8948843,-0.74276 -3.9133477,4.78659 -5.5404777,6.02449 -1.833093,1.38234 -8.238624,4.12637 -8.238624,4.12637 v -26.82141 c 0,0 5.787634,-5.36427 8.238624,-6.18955 1.050427,-0.35074 3.4808208,-0.61895 4.3870704,0 2.2656219,1.56802 2.018463,8.27338 3.8515574,10.31592 1.5447425,1.71244 5.93181091,4.12638 8.2386263,4.12638 2.3068153,0 7.0852189,-2.12508 8.2386259,-4.12638 1.297584,-2.22823 0.926846,-8.23211 -0.5973,-10.31592 -0.8856528,-1.19665 -4.1193132,-1.79498 -5.5816694,-2.06319 -2.4715878,-0.4539 -7.6207292,0.55707 -10.0717205,0 -1.1740043,-0.26821 -4.2016997,-0.86653 -4.3458757,-2.06318 0,0 8.44459222,-9.40813 12.3579397,-10.31593 2.0596565,-0.47453 6.6938836,0.59832 8.2386259,2.06319 1.956675,1.85687 1.936078,7.94326 3.254258,10.31592 1.31818,2.37267 4.490051,7.32432 7.044025,8.25274 2.945309,1.07286 9.618597,-0.51579 12.357939,-2.06318 1.771306,-1.01097 4.613632,-4.2708 5.313914,-6.18956 0.90625,-2.45519 0.926845,-8.04642 0,-10.50161 -0.659089,-1.8775 -3.35724,-5.42618 -5.27272,-6.00387 z"
       class="st1"
       id="Baum_1_"
       inkscape:connector-curvature="0"
       style="fill:#20872d;stroke:#000000;stroke-width:1.75;stroke-miterlimit:10;stroke-dasharray:none" />
    <path
       d="m 289.38257,144.73786 c -2.98649,-0.9078 -9.30965,1.29981 -12.35794,2.06319 -1.58593,0.392 -4.55185,0.0618 -6.17897,0 -2.57457,-0.1238 -5.80823,-1.56803 -6.17897,-4.12637 0,0 1.85369,-3.3011 4.11932,-4.12637 1.87429,-0.68086 5.99359,0 7.99146,0 3.17187,0 9.74217,1.15538 12.70808,0 1.64774,-0.66023 4.2223,-3.36299 5.21093,-4.84848 1.13281,-1.67119 3.0277,-5.50872 2.92472,-7.53064 -0.10299,-2.31076 -2.49219,-6.62283 -4.11931,-8.25275 -1.62713,-1.6299 -5.93183,-4.0232 -8.23862,-4.12636 -2.78055,-0.12379 -8.19744,2.3314 -10.29829,4.12636 -2.28623,1.96003 -4.92258,7.59254 -6.17897,10.31594 -0.67969,1.48549 -1.07103,4.88975 -2.05966,6.18955 -3.37783,4.43585 -18.53691,12.37912 -18.53691,12.37912 0,0 -0.90624,-4.12637 -2.05966,-4.12637 -4.11932,0 -2.71875,7.92263 -4.11932,10.31592 -1.66831,2.8472 -8.2386,10.31593 -8.2386,10.31593 v -45.39009 c 0,0 2.94529,-4.22953 4.46943,-4.12636 0.6591,0.0413 1.33879,1.50613 1.70952,2.06319 1.89489,2.88846 3.97514,11.78079 6.17897,14.44229 1.64774,1.98066 5.66406,4.12637 8.23863,4.12637 2.57456,0 6.85866,-4.00257 8.23863,-6.18955 1.40056,-2.22825 2.82172,-7.79883 2.05965,-10.31594 -0.63849,-2.10444 -4.1605,-5.34364 -6.17897,-6.18954 -2.3686,-0.99033 -7.70312,0 -10.27768,0 -2.03906,0 -6.36434,0.76338 -8.25923,0 -1.35937,-0.55706 -4.11932,-2.06319 -4.11932,-2.06319 l 4.11932,-8.25274 h 13.24359 c 0,0 5.16974,5.17859 7.35297,6.18956 2.84234,1.32043 9.28906,2.64087 12.35795,2.06318 2.94531,-0.55706 8.81533,-3.56932 10.29828,-6.18955 1.27699,-2.24887 1.2152,-8.04643 0,-10.315935 -0.88565,-1.629917 -4.40766,-3.589943 -6.17897,-4.126371 -3.64559,-1.093487 -11.63706,-1.299806 -15.20026,0 -2.26563,0.825274 -7.45596,6.189557 -7.45596,6.189557 h -14.4176 l 15.83877,-17.165703 12.99643,-1.402966 c 0,0 5.74643,5.5706 8.23862,6.189556 3.04829,0.742747 9.72158,-0.350742 12.35794,-2.063187 1.56534,-1.01096 3.58381,-4.415216 4.11932,-6.189555 0.45312,-1.485494 0.49431,-4.724694 0,-6.189556 -0.82387,-2.455191 -3.76919,-7.324309 -6.17899,-8.252743 -2.45097,-0.928433 -7.90907,0.949066 -10.29827,2.063188 -2.98651,1.402964 -10.29828,8.252741 -10.29828,8.252741 l -10.93677,0.78401 10.93677,-13.163124 c 1.91548,-0.763378 6.34374,0.784011 8.23863,0 2.69815,-1.114119 6.79686,-5.715024 8.23862,-8.252741 1.05043,-1.856867 2.4304,-6.148294 2.05967,-8.252741 -0.30896,-1.836235 -2.55399,-5.178596 -4.11934,-6.189557 -2.63634,-1.712444 -9.30963,-2.805933 -12.35792,-2.063185 -2.49219,0.618954 -6.85866,4.002579 -8.23864,6.189555 -1.40056,2.228241 -2.22443,7.695682 -2.05965,10.315928 0.10298,1.629917 2.24503,4.55964 2.05965,6.189556 L 248.18944,72.52637 c 0,0 -3.97514,-2.682141 -4.11931,-4.12637 -0.18538,-1.856867 3.5838,-4.415216 4.11931,-6.189555 0.5973,-1.98066 1.19461,-6.581564 0,-8.252743 -0.94744,-1.32044 -4.57244,-2.3314 -6.17898,-2.063186 -2.53337,0.412637 -7.37357,3.754998 -8.2386,6.189556 -0.70029,2.00129 1.00921,6.395875 2.05963,8.252742 0.72088,1.279176 3.19248,2.991619 4.11932,4.126372 1.17401,1.444228 4.11932,6.189556 4.11932,6.189556 l -14.4176,22.695039 v -49.51645 l 18.53691,-14.442298 c 1.95667,-0.618957 6.24076,0.474532 8.23863,0 2.24502,-0.536428 6.83806,-2.290137 8.23862,-4.126372 1.58593,-2.083816 2.98649,-7.860736 2.05966,-10.315926 -0.92685,-2.413927 -5.78763,-5.364283 -8.23863,-6.189557 -2.32741,-0.784011 -7.60013,-1.052224 -9.82455,0 -2.38921,1.134751 -5.76706,5.756287 -6.65271,8.252742 -1.02982,2.90909 1.54475,9.696972 0,12.379113 l -12.35793,8.252742 c 0,0 -0.78266,-7.798842 0,-10.315927 1.15341,-3.754998 5.39629,-10.584142 6.17896,-14.4423 0.51492,-2.517085 1.15342,-8.005159 0,-10.3159264 -1.1534,-2.3107677 -4.1193,-5.4880733 -6.17896,-6.1895564 -1.95668,-0.6808511 -6.34375,-0.6808511 -8.32102,0 -2.05964,0.7014831 -5.02555,3.8787887 -6.17896,6.1895564 -1.15342,2.3107674 -0.51492,7.7988414 0,10.3159264 0.78266,3.858158 5.02555,10.687302 6.17896,14.4423 0.78267,2.517085 0,10.315927 0,10.315927 l -12.35793,-8.252742 c -1.54474,-2.682141 1.02984,-9.470023 0,-12.379113 -0.88565,-2.496455 -4.26349,-7.117991 -6.65269,-8.252742 -2.22444,-1.052224 -7.49714,-0.784011 -9.82456,0 -2.451,0.825274 -7.31178,3.77563 -8.23863,6.189557 -0.94744,2.45519 0.47372,8.23211 2.05966,10.315926 1.40057,1.836235 5.99359,3.589944 8.23862,4.126372 1.99788,0.474532 6.28195,-0.618957 8.23863,0 l 18.5369,14.442298 v 49.51645 L 206.91392,76.652742 c 0,0 2.94531,-4.745328 4.11932,-6.189556 0.92684,-1.134753 3.39843,-2.847196 4.11931,-4.126372 1.05042,-1.856867 2.75994,-6.251452 2.05965,-8.252742 -0.86504,-2.434558 -5.70524,-5.776919 -8.23862,-6.189556 -1.60654,-0.268214 -5.23152,0.742746 -6.17897,2.063186 -1.1946,1.671179 -0.5973,6.272083 0,8.252743 0.53551,1.774339 4.30468,4.332688 4.11931,6.189555 -0.14418,1.444229 -4.11931,4.12637 -4.11931,4.12637 L 190.43667,56.020887 c -0.18537,-1.629916 1.95667,-4.559639 2.05966,-6.189556 0.16477,-2.620246 -0.6591,-8.087687 -2.05966,-10.315928 -1.37997,-2.186976 -5.74645,-5.570601 -8.23864,-6.189555 -3.04828,-0.742748 -9.72156,0.350741 -12.35793,2.063185 -1.56534,1.010961 -3.81036,4.353322 -4.11931,6.189557 -0.37073,2.104447 1.00924,6.395874 2.05965,8.252741 1.44177,2.537717 5.54048,7.138622 8.23862,8.252741 1.8949,0.784011 6.32316,-0.763378 8.23864,0 l 10.93678,13.163124 -10.93678,-0.78401 c 0,0 -7.31178,-6.849777 -10.29827,-8.252741 -2.38921,-1.114122 -7.8473,-2.991621 -10.29829,-2.063188 -2.4098,0.928434 -5.3551,5.797552 -6.17897,8.252743 -0.49433,1.464862 -0.45313,4.704062 0,6.189556 0.53551,1.774339 2.55396,5.178595 4.1193,6.189555 2.63637,1.712445 9.30966,2.805934 12.35796,2.063187 2.49217,-0.618956 8.2386,-6.189556 8.2386,-6.189556 l 12.99645,1.402966 15.83876,17.165703 h -14.4176 c 0,0 -5.16974,-5.364283 -7.45595,-6.189557 -3.58382,-1.299806 -11.57528,-1.093487 -15.20026,0 -1.77131,0.536428 -5.29334,2.496454 -6.17899,4.126371 -1.21518,2.269505 -1.27698,8.067065 0,10.315935 1.48296,2.62023 7.35297,5.63249 10.29829,6.18955 3.06888,0.57769 9.51562,-0.74275 12.35794,-2.06318 2.18324,-1.01097 7.35297,-6.18956 7.35297,-6.18956 h 13.2436 l 4.11931,8.25274 c 0,0 -2.75995,1.50613 -4.11931,2.06319 -1.89489,0.76338 -6.22017,0 -8.25922,0 -2.57457,0 -7.90909,-0.99033 -10.27769,0 -2.01848,0.8459 -5.54047,4.0851 -6.17897,6.18954 -0.76208,2.51711 0.65909,8.08769 2.05965,10.31594 1.37996,2.18698 5.66406,6.18955 8.23863,6.18955 2.57457,0 6.5909,-2.14571 8.23862,-4.12637 2.20384,-2.6615 4.28409,-11.55383 6.17898,-14.44229 0.37074,-0.55706 1.05041,-2.02192 1.70951,-2.06319 1.52414,-0.10317 4.46945,4.12636 4.46945,4.12636 v 45.39009 c 0,0 -6.57029,-7.46873 -8.23862,-10.31593 -1.40057,-2.39329 0,-10.31592 -4.11932,-10.31592 -1.1534,0 -2.05965,4.12637 -2.05965,4.12637 0,0 -15.15907,-7.94327 -18.53691,-12.37912 -0.98863,-1.2998 -1.37998,-4.70406 -2.05967,-6.18955 -1.25637,-2.7234 -3.89274,-8.35591 -6.17897,-10.31594 -2.10083,-1.79496 -7.51773,-4.25015 -10.29827,-4.12636 -2.30682,0.10316 -6.61149,2.49646 -8.23862,4.12636 -1.62713,1.62992 -4.01634,5.94199 -4.11932,8.25275 -0.10299,2.02192 1.79191,5.85945 2.92472,7.53064 1.00923,1.46486 3.56319,4.18825 5.21093,4.84848 2.94531,1.15538 9.51561,0 12.70808,0 1.99787,0 6.11718,-0.68086 7.99145,0 2.26564,0.82527 4.11933,4.12637 4.11933,4.12637 -0.37074,2.55834 -3.60441,4.00257 -6.17896,4.12637 -1.62715,0.0618 -4.59305,0.392 -6.17897,0 -3.0483,-0.76338 -9.37145,-2.97099 -12.35796,-2.06319 -1.91548,0.57769 -4.59302,4.12637 -5.3139,6.00387 -0.92685,2.45519 -0.90626,8.04642 0,10.50161 0.70027,1.91876 3.5426,5.17859 5.3139,6.18956 2.73935,1.54739 9.41264,3.13604 12.35796,2.06318 2.55396,-0.92842 5.72583,-5.88007 7.04401,-8.25274 1.31818,-2.37266 1.29759,-8.45905 3.25426,-10.31592 1.54474,-1.46487 6.17897,-2.53772 8.23863,-2.06319 3.91334,0.9078 12.35793,10.31593 12.35793,10.31593 -0.14417,1.19665 -3.17186,1.79497 -4.34588,2.06318 -2.45099,0.55707 -7.60012,-0.4539 -10.07171,0 -1.46234,0.26821 -4.69602,0.86654 -5.58168,2.06319 -1.54473,2.08381 -1.89488,8.08769 -0.59729,10.31592 1.1534,2.0013 5.93181,4.12638 8.23863,4.12638 2.30681,0 6.69388,-2.41394 8.23863,-4.12638 1.83309,-2.04254 1.58593,-8.7479 3.85155,-10.31592 0.90624,-0.61895 3.35724,-0.35074 4.38707,0 2.45099,0.82528 8.23862,6.18955 8.23862,6.18955 v 26.82141 c 0,0 -6.40552,-2.74403 -8.23862,-4.12637 -1.62713,-1.2379 -3.6456,-6.76725 -5.54047,-6.02449 -1.00924,0.392 0.78267,3.56931 0,4.31205 -1.2358,1.17602 -5.23153,0.30948 -6.81747,-0.37137 -2.4098,-1.01097 -5.3963,-5.79755 -7.68251,-7.09735 -2.4716,-1.40297 -8.05326,-3.54869 -10.8544,-3.21859 -2.3686,0.28886 -7.04403,2.70279 -8.23863,4.76596 -1.46235,2.53773 -1.31818,9.09866 0,11.73954 1.15341,2.31076 5.72585,5.61187 8.23863,6.18954 2.55398,0.57771 7.99147,-0.82525 10.29828,-2.06318 2.57456,-1.38234 5.33452,-7.96389 8.23863,-8.25274 1.85369,-0.18567 5.80823,2.31078 6.17897,4.12638 0.37074,1.8156 -2.63636,5.07543 -4.11931,6.18954 -2.75994,2.06319 -10.50424,1.91878 -13.14061,4.12637 -2.22443,1.85688 -5.68465,7.42748 -5.39629,10.31594 0.30894,3.28047 5.04615,9.47002 8.23861,10.31593 3.99574,1.05223 12.35795,2.06318 15.30326,-6.18956 1.37996,-3.89941 -1.97728,-12.52353 -0.88566,-16.50549 0.49432,-1.79496 2.30682,-5.83881 4.11931,-6.18955 2.80114,-0.55706 9.45383,6.43714 9.45383,6.43714 l -2.03907,154.49132 h 11.10156 0.0824 11.10155 l -2.03906,-154.49132 c 0,0 6.65269,-6.9942 9.45382,-6.43714 1.8125,0.35074 3.625,4.39459 4.11932,6.18955 1.09162,3.98196 -2.26563,12.60608 -0.88565,16.50549 2.9453,8.25274 11.3075,7.24179 15.30324,6.18956 3.19247,-0.84591 7.92969,-7.03546 8.23863,-10.31593 0.28835,-2.88846 -3.17188,-8.45906 -5.39631,-10.31594 -2.63635,-2.20759 -10.38066,-2.06318 -13.1406,-4.12637 -1.48296,-1.11411 -4.49005,-4.37394 -4.11931,-6.18954 0.37073,-1.8156 4.32527,-4.31205 6.17897,-4.12638 2.90411,0.28885 5.66405,6.8704 8.23862,8.25274 2.30682,1.23793 7.74432,2.64089 10.29828,2.06318 2.51279,-0.57767 7.08522,-3.87878 8.23862,-6.18954 1.31819,-2.62025 1.46236,-9.18118 0,-11.73954 -1.1946,-2.06317 -5.87001,-4.49773 -8.23862,-4.76596 -2.82172,-0.3301 -8.4034,1.81562 -10.85439,3.21859 -2.26561,1.2998 -5.27271,6.08638 -7.68251,7.09735 -1.56535,0.66021 -5.58167,1.54739 -6.81746,0.37137 -0.78267,-0.74274 1.00922,-3.92005 0,-4.31205 -1.8949,-0.74276 -3.91335,4.78659 -5.54049,6.02449 -1.83308,1.38234 -8.23861,4.12637 -8.23861,4.12637 v -26.82141 c 0,0 5.78762,-5.36427 8.23861,-6.18955 1.05043,-0.35074 3.48083,-0.61895 4.38707,0 2.26563,1.56802 2.01847,8.27338 3.85156,10.31592 1.54474,1.71244 5.93181,4.12638 8.23863,4.12638 2.30682,0 7.08521,-2.12508 8.23862,-4.12638 1.29759,-2.22823 0.92685,-8.23211 -0.5973,-10.31592 -0.88565,-1.19665 -4.1193,-1.79498 -5.58166,-2.06319 -2.47159,-0.4539 -7.62073,0.55707 -10.07173,0 -1.174,-0.26821 -4.20169,-0.86653 -4.34587,-2.06318 0,0 8.44459,-9.40813 12.35794,-10.31593 2.05966,-0.47453 6.69388,0.59832 8.23862,2.06319 1.95668,1.85687 1.93608,7.94326 3.25427,10.31592 1.31818,2.37267 4.49005,7.32432 7.04402,8.25274 2.9453,1.07286 9.61859,-0.51579 12.35794,-2.06318 1.77131,-1.01097 4.61363,-4.2708 5.31391,-6.18956 0.90624,-2.45519 0.92684,-8.04642 0,-10.50161 -0.65909,-1.8775 -3.35724,-5.42618 -5.27272,-6.00387 z"
       class="st1"
       id="Baum"
       inkscape:connector-curvature="0"
       style="fill:#20872d;stroke:#000000;stroke-width:1.75;stroke-miterlimit:10;stroke-dasharray:none" />
    <path
       d="m -73.116984,359.30913 c 67.9686659,78.40106 173.011145,110.13286 173.011145,110.13286 0,0 109.161809,-33.79498 173.011159,-110.13286 z"
       class="st2"
       id="Boden"
       inkscape:connector-curvature="0"
       style="fill:#20872d;stroke-width:1" />
    <line
       y2="359.30914"
       x2="272.90533"
       y1="359.30914"
       x1="-73.116982"
       class="st3"
       id="Linie"
       style="fill:none;stroke:#000000;stroke-width:3;stroke-miterlimit:10;stroke-dasharray:none" />
    <path
       d="m 321.88395,-24.443346 h -444.18553 c 0,0 -0.0412,272.340476 0,272.732486 18.20736,159.66992 222.195741,221.17348 222.195741,221.17348 0,0 203.782419,-61.48294 221.989789,-221.17348 0.0412,-0.39201 0,-272.732486 0,-272.732486 z"
       class="st4"
       id="Umrandung"
       inkscape:connector-curvature="0"
       style="fill:none;stroke:#000000;stroke-width:7;stroke-miterlimit:10;stroke-dasharray:none" />
  </g>
</svg>
