<?xml version="1.0" encoding="UTF-8"?>
<svg width="412" height="500" viewBox="0 0 412 500" fill="none" xmlns="http://www.w3.org/2000/svg">
<path d="M205.877 1.54688H410.458V302.578C410.458 410.757 318.94 498.454 206.008 498.454C93.0959 498.454 1.54688 410.757 1.54688 302.578V1.54688H205.877Z" fill="#fcdb00"/>
<path d="M205.877 6.54688H405.458V302.578C405.458 407.796 316.382 493.454 206.008 493.454C95.6529 493.454 6.54688 407.795 6.54688 302.578V6.54688H205.877Z" stroke="black" stroke-width="10"/>
<path d="M205.5 55C190.879 55 176.656 56.8363 163.088 60.2466L188.94 89.4642C162.682 92.5636 138.647 102.919 118.894 118.489L116.487 79.5485C91.9082 94.2693 71.2812 114.904 56.5519 139.476L95.4979 141.882C79.9087 161.635 69.564 185.696 66.4689 211.966L37.1992 186.118C33.7888 199.683 32 213.857 32 228.476C32 243.095 33.7888 257.317 37.1992 270.882L66.4689 244.986C69.5641 271.259 79.9079 295.356 95.4979 315.118L56.5519 317.524C71.2812 342.096 91.9082 362.731 116.487 377.452L118.894 338.463C138.647 354.041 162.682 364.434 188.94 367.536L163.088 396.753C176.655 400.163 190.879 402 205.5 402C220.117 402 234.3 400.162 247.864 396.753L222.06 367.536C248.311 364.444 272.36 354.075 292.106 338.511L294.513 377.403C319.062 362.688 339.683 342.07 354.4 317.524L315.502 315.118C331.075 295.368 341.431 271.288 344.531 245.034L373.801 270.882C377.211 257.317 379 243.094 379 228.476C379 213.841 377.219 199.649 373.801 186.07L344.531 211.918C341.431 185.667 331.074 161.623 315.502 141.882L354.4 139.476C339.683 114.93 319.062 94.312 294.513 79.5966L292.106 118.441C272.36 102.885 248.311 92.5539 222.06 89.4642L247.864 60.2466C234.299 56.838 220.118 55 205.5 55ZM187.88 120.751V189.15H166.121V210.907H97.7606C105.254 164.732 141.699 128.256 187.88 120.751ZM223.12 120.751C269.316 128.239 305.799 164.717 313.288 210.907H244.783V189.15H223.12V120.751ZM186.533 209.559H224.468V247.489H186.533V209.559ZM97.7606 246.093H166.121V267.802H187.88V336.249C141.715 328.739 105.271 292.252 97.7606 246.093ZM244.783 246.093H313.24C305.733 292.268 269.3 328.756 223.12 336.249V267.802H244.783V246.093Z" fill="black"/>
</svg>
