<?xml version="1.0" encoding="UTF-8"?>
<svg width="600" height="642" version="1.1" xmlns="http://www.w3.org/2000/svg">
 <path d="m300.01 11.127h-287.57s30.38 369.47 34.667 397.05c7.26 47.181 42.82 135.72 109.35 176.96a299.77 299.77 0 0 0 143.85 44.505 299.78 299.78 0 0 0 143.85-44.505c66.507-41.234 102.07-129.77 109.33-176.96 3.841-27.432 34.221-397.05 34.221-397.05z" fill="#1c63b7"/>
 <path d="m300.01 641.48a308.56 308.56 0 0 1-149.79-46.71c-69.908-43.317-106.8-134.23-114.51-184.81-4.288-27.58-33.479-382.65-34.669-397.8l-1.039-12.166h600l-1.041 12.167c-1.165 14.843-30.505 370.81-34.667 397.8-7.831 50.576-44.431 141.5-114.51 184.81a309.08 309.08 0 0 1-149.77 46.711zm0-22.525a292.65 292.65 0 0 0 137.92-43.315c62.817-39.004 97.186-124.44 103.71-169.07 4.138-24.631 28.596-319.79 33.775-384.02h-551.11c5.328 64.23 29.613 359.98 33.478 384.02 6.815 44.48 41.185 130.07 103.71 169.07a292.18 292.18 0 0 0 138.52 43.612"/>
 <path d="m194.23 50.6c-55.553 0-100.58 45.08-100.58 100.71 0 55.61 45.026 100.71 100.58 100.71s100.58-45.103 100.58-100.71c-0.07-55.61-45.048-100.64-100.58-100.71zm214.54 0c-55.68-0.09-100.85 45.056-100.88 100.81-0.03 55.726 45.099 100.92 100.78 100.9s100.78-45.27 100.68-101c-0.07-55.61-45.048-100.64-100.58-100.71z" fill="#fcdb00"/>
 <path d="m193.94 82.172s-39.102 61.255-39.102 83.064c0 21.633 17.493 39.152 39.102 39.152s39.104-17.52 39.104-39.152c0-22.401-39.104-83.064-39.104-83.064zm214.55 0s-39.104 61.255-39.104 83.064c1.264 20.666 18.36 36.75 39.027 36.75 20.666 0 37.764-16.083 39.029-36.75 0-22.4-38.953-83.064-38.953-83.064z" fill="#f00000"/>
 <path d="m193.94 73.871-3.6914 5.9473c-4.164 6.368-39.871 62.868-39.871 85.418a39.63 39.63 0 0 0 11.818 31.521 39.45 39.45 0 0 0 31.744 11.053v-0.00196a39.289 39.289 0 0 0 31.893-10.928 39.442 39.442 0 0 0 11.672-31.645c0-23.418-38.238-82.916-39.848-85.418l-3.7168-5.9473zm214.4 0-3.6934 5.9473c-4.015 6.368-39.723 62.868-39.723 85.418a39.694 39.694 0 0 0 11.797 31.521c8.425 8.227 20.071 12.291 31.768 11.053v-0.00196c11.72 1.362 23.417-2.6757 31.842-10.928s12.662-19.875 11.572-31.645c0-23.418-38.087-82.916-39.723-85.418l-3.8398-5.9473zm-214.4 16.629c12.291 19.877 34.668 59.178 34.668 74.146 0 19.18-15.513 34.717-34.668 34.717-19.13 0-34.666-15.537-34.666-34.717 0-14.822 22.375-54.124 34.666-74.146zm214.55 0c12.291 19.877 34.52 59.178 34.52 74.146 1.436 9.466-1.761 19.055-8.625 25.721a29.556 29.556 0 0 1-25.895 7.9551 30.592 30.592 0 0 1-25.598-8.3027 30.637 30.637 0 0 1-9.0703-25.373c0-14.822 22.377-54.124 34.668-74.146z"/>
 <path d="m187.6 154.55v67.205h12.738v-67.205h-12.738zm214.48 0v67.205h12.736v-67.205h-12.736z"/>
 <path d="m194.26 46.141c-58.11 0-105.22 47.181-105.19 105.36 0.025001 58.16 47.179 105.29 105.29 105.24 58.11-0.05 105.17-47.279 105.09-105.44-0.074-58.11-47.155-105.16-105.19-105.16zm214.48 0c-58.135-0.074-105.32 47.058-105.34 105.27-0.025 58.184 47.107 105.36 105.24 105.34 58.133-0.02 105.22-47.254 105.14-105.44-0.098-58.059-47.056-105.09-105.04-105.16v-0.009766zm-214.48 8.8906c53.102 0 96.145 43.092 96.145 96.271-0.074 53.129-43.068 96.171-96.145 96.248-53.104 0-96.145-43.094-96.145-96.248 0-53.178 43.043-96.271 96.145-96.271zm214.48 0c53.104 0 96.146 43.092 96.146 96.271-0.075 53.128-43.092 96.17-96.145 96.248-53.104 0-96.146-43.094-96.146-96.248 0-53.178 43.044-96.271 96.145-96.271z"/>
 <path d="m146.24 219.08v329.43h95.549v-329.43h-95.549zm214.54 0v329.43h95.549v-329.43h-95.549z" fill="#fff"/>
 <path d="m141.68 214.47v338.47h104.6v-338.47h-104.6zm214.53 0v338.47h104.42v-338.47h-104.42zm-205.51 9.0684h86.533v320.36h-86.533v-320.36zm214.52 0h86.535v320.36h-86.535v-320.36z"/>
</svg>
