<?xml version="1.0" encoding="UTF-8" standalone="no"?>
<!-- Generator: Adobe Illustrator 12.0.1, SVG Export Plug-In . SVG Version: 6.00 Build 51448)  -->

<svg
   xmlns:dc="http://purl.org/dc/elements/1.1/"
   xmlns:cc="http://creativecommons.org/ns#"
   xmlns:rdf="http://www.w3.org/1999/02/22-rdf-syntax-ns#"
   xmlns:svg="http://www.w3.org/2000/svg"
   xmlns="http://www.w3.org/2000/svg"
   xmlns:sodipodi="http://sodipodi.sourceforge.net/DTD/sodipodi-0.dtd"
   xmlns:inkscape="http://www.inkscape.org/namespaces/inkscape"
   version="1.0"
   width="744.09448"
   height="824.35999"
   viewBox="0 0 59.378 65.437"
   overflow="visible"
   enable-background="new 0 0 59.378 65.437"
   xml:space="preserve"
   id="svg2178"
   sodipodi:version="0.32"
   inkscape:version="0.92.3 (2405546, 2018-03-11)"
   sodipodi:docname="CHE Meyriez COA.svg"
   inkscape:output_extension="org.inkscape.output.svg.inkscape"><metadata
   id="metadata2303"><rdf:RDF><cc:Work
       rdf:about=""><dc:format>image/svg+xml</dc:format><dc:type
         rdf:resource="http://purl.org/dc/dcmitype/StillImage" /><cc:license
         rdf:resource="http://web.resource.org/cc/PublicDomain" /></cc:Work><cc:License
       rdf:about="http://web.resource.org/cc/PublicDomain"><cc:permits
         rdf:resource="http://web.resource.org/cc/Reproduction" /><cc:permits
         rdf:resource="http://web.resource.org/cc/Distribution" /><cc:permits
         rdf:resource="http://web.resource.org/cc/DerivativeWorks" /></cc:License></rdf:RDF></metadata><defs
   id="defs2301">
	

		
			
		
			
		
			
		
			
		
			
		
			
		
			
		
			
		
			
		
			
		
			
		
			
		
			
		
			
		
			
		
			
		
			
		
			
		
			
		
			
		
			
		
			
		
			
		
			
		
			
		
			
		
			
		
			
		
			
		
			
		
			
		
			
		
			
		
			
		
			
		
			
		
			
		
			
		
			
		
			
		
			
		
			
		
			
		
			
		
			
		
			
		
			
		
			
		
			
		
			
		
			
		
			
		
			
		
			
		
			
		
			
		
			
	</defs><sodipodi:namedview
   inkscape:window-height="1017"
   inkscape:window-width="1920"
   inkscape:pageshadow="2"
   inkscape:pageopacity="0.0"
   guidetolerance="10.0"
   gridtolerance="10.0"
   objecttolerance="10.0"
   borderopacity="1.0"
   bordercolor="#666666"
   pagecolor="#ffffff"
   id="base"
   inkscape:zoom="0.54169168"
   inkscape:cx="176.25935"
   inkscape:cy="487.77465"
   inkscape:window-x="-8"
   inkscape:window-y="-8"
   inkscape:current-layer="svg2178"
   width="744.09448px"
   height="824.36px"
   inkscape:showpageshadow="false"
   showborder="true"
   borderlayer="false"
   showgrid="false"
   inkscape:window-maximized="1" />
<g
   id="Ebene_1">
</g>
<g
   id="_x2D__Desktop">
</g>
<g
   id="_x2D__Hilfslinien">
</g>
<g
   id="_x2D__Gitter"
   display="none"
   style="display:none">
</g>
<path
   clip-rule="evenodd"
   stroke-miterlimit="2.4142"
   d="M 0.36,0.36 L 0.36,40.715 C 4.01,56.054 13.73,64.174 29.52,65.076 C 44.032,64.723 56.03,56.09 59.018,40.53 L 59.018,0.36 L 0.36,0.36 L 0.36,0.36 z "
   id="path2186"
   style="fill:#e20909;fill-rule:evenodd;stroke:#010101;stroke-width:0.72000003;stroke-linejoin:round;stroke-miterlimit:2.41420007;fill-opacity:1" /><path
   clip-rule="evenodd"
   stroke-miterlimit="2.4142"
   d="M 0.36,0.36 L 0.36,40.715 C 4.01,56.054 13.73,64.174 29.52,65.076 C 44.032,64.723 56.03,56.09 59.018,40.53 L 59.018,0.36 L 0.36,0.36 L 0.36,0.36 z "
   id="path2298"
   style="fill:none;fill-rule:evenodd;stroke:#010101;stroke-width:0.72000003;stroke-linejoin:round;stroke-miterlimit:2.41420007" />
<g
   style="fill:none;fill-rule:evenodd;stroke:none;stroke-width:0.16352527"
   id="wappen-merlach"
   transform="matrix(0.47542448,0,0,0.50089154,76.666676,-18.069113)"><path
     id="path1139"
     d="m 166.4,6 c 0.7,1.1 -0.1,2.9 0.3,4.1 -0.2,3.3 0,7.3 -0.3,10.6 0.5,3.1 0.2,6.4 0.2,9.5 0.2,4 -0.1,8.2 0.1,12.1 -0.3,1.9 -0.1,4.5 0,6.2 0.2,1.3 -0.3,2.6 0,3.7 -0.2,2.6 -0.2,5.5 -0.1,8.2 -0.1,5.2 0.4,9.6 -0.2,14.9 0.4,2 -0.3,3.6 -0.3,5.5 0.2,3.6 0.1,7.2 -0.4,10.7 -0.3,2.5 -1,5.1 -1.5,7.5 -0.4,0.9 -0.6,1.9 -1,2.9 l -1.1,2.9 c -0.8,2.7 -2.5,4.8 -3.1,7.5 -2.4,2.9 -3.2,6.6 -5.8,9.4 -1,2.1 -3.3,3.5 -4.2,5.4 -1.1,0.6 -1,1.9 -2.3,2.2 -1.6,1.6 -2.7,3.6 -4.9,4.6 -1,1 -2.1,2.3 -3.3,3.1 -0.9,0.1 -1.2,0.8 -1.6,1.3 -1.2,0.5 -2.2,1.5 -3.3,1.9 -2.3,1.6 -5,3.1 -7.7,4.3 -2,1.5 -3.9,2.1 -6.1,2.9 l -4.6,1.9 c -1.5,0 -2.6,1.4 -4.2,0.8 -2.3,-0.4 -4.2,-1.5 -6.5,-2 -0.6,-0.3 -1,-0.9 -1.8,-1 -0.7,0.1 -0.9,-0.7 -1.5,-0.6 -4.4,-1.7 -8,-4.5 -12.2,-6.7 -4.1,-2.8 -8.1,-5.4 -11.7,-8.9 -1.1,-1.5 -3.1,-2.7 -4.1,-4.6 -1.4,-1.1 -2.2,-2.8 -3.6,-4.3 l -0.1,-0.4 c -0.7,-0.5 -1.7,-1.3 -1.8,-2.2 -1.7,-0.9 -1.8,-3.2 -3.1,-4.3 -1.1,-2 -2.2,-3.9 -3.4,-6.1 0.2,-0.7 -0.9,-1 -0.6,-1.8 -0.8,-2.1 -2.1,-3.9 -2.5,-6.1 l -0.3,-0.4 c -0.4,-1.8 -0.9,-3.5 -1,-5.2 -1.2,-2 -0.6,-4.5 -1.3,-6.7 -0.5,-3.3 0.1,-6.6 -0.7,-9.9 0.5,-2.2 -0.3,-4.8 0,-7.2 -0.6,-2 0,-3.7 -0.4,-5.9 0.5,-1.8 -0.4,-3.4 0.2,-5 -0.3,-4.8 0,-9.7 -0.2,-14.9 0.5,-0.3 -0.1,-0.9 0,-1.3 C 54.3,38.2 54.1,32 54.4,26 54.2,19.5 54.1,13.6 54.5,6.9 56.5,6.1 164.1,6 166.4,6 Z"
     class="st2"
     inkscape:connector-curvature="0"
     style="display:none;fill:none;stroke:#ff675d;stroke-width:0.04511662;stroke-miterlimit:3.86369991" /><path
     id="path1141"
     d="m -139.04639,47.135496 c 2.08621,2.008296 5.26519,3.442793 7.05337,5.929255 l -0.0993,0.09563 c 2.68227,2.295195 4.66913,5.259823 6.75534,7.841917 0.29803,0.956332 1.78818,1.912663 1.78818,2.964628 0.99343,0.765065 0.89409,2.103929 1.78818,3.060261 0.39737,2.008296 2.0862,2.486461 2.38424,4.494757 1.29146,0.765065 0.49671,2.295196 1.58949,3.060261 0,1.721397 2.18555,0.669431 3.17898,1.243231 1.5895,0.765064 3.47702,0.669432 5.16585,0.669432 l 5.9606,0.860698 c 1.09277,0.09563 1.58949,1.24323 2.78161,1.24323 0.794745,0.765066 2.185551,1.243232 2.483581,2.486462 0,1.338864 -0.596059,2.008296 -1.688836,2.868994 -1.490155,0.669433 -2.086205,1.721397 -3.576355,2.295196 -1.09277,1.53013 -2.48358,2.677728 -3.87439,3.729692 -1.68883,-0.09563 -2.98029,-2.008296 -4.56979,-0.860698 0.89409,3.442793 1.49015,6.598687 2.08621,10.232747 0.6954,1.817031 0.49672,3.538431 1.29146,5.164201 0,0.76507 0.29804,1.33886 -0.19869,2.00829 0.29803,1.24324 0,2.77336 0.59606,4.11223 0.99343,0.95633 0.59607,2.29519 1.5895,3.15589 0,1.62577 1.68884,2.67773 2.28489,4.20786 0.0994,0.8607 -0.89409,1.24323 -1.49015,1.53013 -0.59606,-0.0956 -0.99343,0 -1.19211,0.5738 -0.39738,2.19956 -0.39738,4.49475 -0.59606,6.78995 -0.6954,1.81703 0.69539,3.25153 0.79474,5.16419 0.89409,1.05197 0.79475,2.2952 1.58949,3.34717 0.6954,0 0.29804,0.76506 0.6954,1.05195 1.5895,2.869 2.08621,6.12053 2.48359,8.98952 -0.39738,0.86071 -1.19212,1.81703 -2.38424,1.91266 -1.29146,0.0956 -2.08621,-0.66943 -3.17898,-1.24322 -0.59607,-1.24324 -1.5895,0.47816 -2.78161,-0.47817 -1.19213,0.5738 -2.2849,-0.19127 -3.47702,-0.2869 -0.99343,0 -1.88752,0.0956 -2.9803,-0.2869 -0.99343,-0.95633 -2.78161,-0.76506 -4.27175,-1.05196 -1.49016,-0.38254 -2.18556,-2.0083 -4.07308,-1.62577 -0.39737,-0.2869 -1.09278,-0.38253 -1.68883,-0.47817 -0.39738,-0.47816 -1.09278,-1.24322 -0.8941,-2.10392 0.39738,-2.2952 2.9803,-3.06026 4.5698,-4.68602 0.89408,-0.47818 0.99343,-1.53013 1.98686,-1.81703 0.79474,-0.8607 1.29146,-1.62577 1.98686,-2.48646 0.99344,-1.24324 1.19212,-3.34717 1.29146,-5.1642 -0.6954,-0.66943 -0.19868,-1.62576 -1.09277,-2.10392 l -1.68884,-1.91267 c -0.0993,-0.86069 -0.49671,-1.53013 -0.99343,-2.19956 0.29803,-1.62576 0.39737,-3.63406 0.59607,-5.06856 -1.29147,-2.10393 -2.88096,-4.01659 -4.07308,-5.92926 -0.99343,-0.95633 -0.99343,-2.39082 -1.98687,-3.15588 -0.79474,0.19126 -0.99343,1.62576 -1.98687,0.86069 -0.6954,-0.95633 -1.19211,-1.81703 -2.18554,-2.10393 -1.09278,-1.33886 -1.68884,-3.06027 -2.38424,-4.686031 -0.59606,-0.478166 -0.8941,-1.051966 -0.99343,-1.912663 0.29803,-1.434497 1.09277,-3.155895 0.39737,-4.494759 -1.88753,-2.199562 -2.38424,-5.259822 -3.87439,-7.459385 -0.19868,-1.434497 -0.89409,-2.582094 -1.49015,-3.920958 -0.59606,-0.382533 -0.6954,0.573798 -1.29146,0.669432 -1.29146,-0.09564 -1.88752,-1.147598 -2.2849,-2.10393 -0.29803,-1.53013 -1.58949,-2.677727 -1.88751,-4.399124 -0.59607,-2.390828 3.27832,-3.729692 1.19211,-6.216154 -1.88752,-2.582095 -2.28489,-6.024888 -3.97373,-8.893881 -2.18555,-3.63406 -3.27832,-7.937552 -3.77504,-12.14541 0.19868,-1.051964 -0.49672,-3.06026 1.29146,-3.251527 0.79475,-0.09563 1.29146,0.382533 1.88752,0.573799 0.39737,-0.669432 0.79474,-1.53013 1.68884,-1.434497 1.49014,-0.573799 2.48358,0.573799 4.07307,0.573799 l 1.78818,0.765065 z"
     inkscape:connector-curvature="0"
     style="stroke-width:0.16352527" /><path
     id="path1143"
     d="m 71.2,21.9 c 2.1,2.1 5.3,3.6 7.1,6.2 l -0.1,0.1 c 2.7,2.4 4.7,5.5 6.8,8.2 0.3,1 1.8,2 1.8,3.1 1,0.8 0.9,2.2 1.8,3.2 0.4,2.1 2.1,2.6 2.4,4.7 1.3,0.8 0.5,2.4 1.6,3.2 0,1.8 2.2,0.7 3.2,1.3 1.6,0.8 3.5,0.7 5.2,0.7 l 6,0.9 c 1.1,0.1 1.6,1.3 2.8,1.3 0.8,0.8 2.2,1.3 2.5,2.6 0,1.4 -0.6,2.1 -1.7,3 -1.5,0.7 -2.1,1.8 -3.6,2.4 -1.1,1.6 -2.5,2.8 -3.9,3.9 -1.7,-0.1 -3,-2.1 -4.6,-0.9 0.9,3.6 1.5,6.9 2.1,10.7 0.7,1.9 0.5,3.7 1.3,5.4 0,0.8 0.3,1.4 -0.2,2.1 0.3,1.3 0,2.9 0.6,4.3 1,1 0.6,2.4 1.6,3.3 0,1.7 1.7,2.8 2.3,4.4 0.1,0.9 -0.9,1.3 -1.5,1.6 -0.6,-0.1 -1,0 -1.2,0.6 -0.4,2.3 -0.4,4.7 -0.6,7.1 -0.7,1.9 0.7,3.4 0.8,5.4 0.9,1.1 0.8,2.4 1.6,3.5 0.7,0 0.3,0.8 0.7,1.1 1.6,3 2.1,6.4 2.5,9.4 -0.4,0.9 -1.2,1.9 -2.4,2 -1.3,0.1 -2.1,-0.7 -3.2,-1.3 -0.6,-1.3 -1.6,0.5 -2.8,-0.5 -1.2,0.6 -2.3,-0.2 -3.5,-0.3 -1,0 -1.9,0.1 -3,-0.3 -1,-1 -2.8,-0.8 -4.3,-1.1 -1.5,-0.4 -2.2,-2.1 -4.1,-1.7 -0.4,-0.3 -1.1,-0.4 -1.7,-0.5 -0.4,-0.5 -1.1,-1.3 -0.9,-2.2 0.4,-2.4 3,-3.2 4.6,-4.9 0.9,-0.5 1,-1.6 2,-1.9 0.8,-0.9 1.3,-1.7 2,-2.6 1,-1.3 1.2,-3.5 1.3,-5.4 -0.7,-0.7 -0.2,-1.7 -1.1,-2.2 l -1.7,-2 c -0.1,-0.9 -0.5,-1.6 -1,-2.3 0.3,-1.7 0.4,-3.8 0.6,-5.3 C 88,90 86.4,88 85.2,86 c -1,-1 -1,-2.5 -2,-3.3 -0.8,0.2 -1,1.7 -2,0.9 C 80.5,82.6 80,81.7 79,81.4 77.9,80 77.3,78.2 76.6,76.5 76,76 75.7,75.4 75.6,74.5 75.9,73 76.7,71.2 76,69.8 74.1,67.5 73.6,64.3 72.1,62 71.9,60.5 71.2,59.3 70.6,57.9 70,57.5 69.9,58.5 69.3,58.6 68,58.5 67.4,57.4 67,56.4 66.7,54.8 65.4,53.6 65.1,51.8 64.5,49.3 68.4,47.9 66.3,45.3 64.4,42.6 64,39 62.3,36 60.1,32.2 59,27.7 58.5,23.3 c 0.2,-1.1 -0.5,-3.2 1.3,-3.4 0.8,-0.1 1.3,0.4 1.9,0.6 0.4,-0.7 0.8,-1.6 1.7,-1.5 1.5,-0.6 2.5,0.6 4.1,0.6 l 1.8,0.8 z"
     class="st2"
     inkscape:connector-curvature="0"
     style="display:none;fill:none;stroke:#ff675d;stroke-width:0.04511662;stroke-miterlimit:3.86369991" /><path
     id="path1145"
     d="m -139.04639,47.135496 c 2.08621,2.008296 5.26519,3.442793 7.05337,5.929255 l -0.0993,0.09563 c 2.68227,2.295195 4.66913,5.259823 6.75534,7.841917 0.29803,0.956332 1.78818,1.912663 1.78818,2.964628 0.99343,0.765065 0.89409,2.103929 1.78818,3.060261 0.39737,2.008296 2.0862,2.486461 2.38424,4.494757 1.29146,0.765065 0.49671,2.295196 1.58949,3.060261 0,1.721397 2.18555,0.669431 3.17898,1.243231 1.5895,0.765064 3.47702,0.669432 5.16585,0.669432 l 5.9606,0.860698 c 1.09277,0.09563 1.58949,1.24323 2.78161,1.24323 0.794745,0.765066 2.185551,1.243232 2.483581,2.486462 0,1.338864 -0.596059,2.008296 -1.688836,2.868994 -1.490155,0.669433 -2.086205,1.721397 -3.576355,2.295196 -1.09277,1.53013 -2.48358,2.677728 -3.87439,3.729692 -1.68883,-0.09563 -2.98029,-2.008296 -4.56979,-0.860698 0.89409,3.442793 1.49015,6.598687 2.08621,10.232747 0.6954,1.817031 0.49672,3.538431 1.29146,5.164201 0,0.76507 0.29804,1.33886 -0.19869,2.00829 0.29803,1.24324 0,2.77336 0.59606,4.11223 0.99343,0.95633 0.59607,2.29519 1.5895,3.15589 0,1.62577 1.68884,2.67773 2.28489,4.20786 0.0994,0.8607 -0.89409,1.24323 -1.49015,1.53013 -0.59606,-0.0956 -0.99343,0 -1.19211,0.5738 -0.39738,2.19956 -0.39738,4.49475 -0.59606,6.78995 -0.6954,1.81703 0.69539,3.25153 0.79474,5.16419 0.89409,1.05197 0.79475,2.2952 1.58949,3.34717 0.6954,0 0.29804,0.76506 0.6954,1.05195 1.5895,2.869 2.08621,6.12053 2.48359,8.98952 -0.39738,0.86071 -1.19212,1.81703 -2.38424,1.91266 -1.29146,0.0956 -2.08621,-0.66943 -3.17898,-1.24322 -0.59607,-1.24324 -1.5895,0.47816 -2.78161,-0.47817 -1.19213,0.5738 -2.2849,-0.19127 -3.47702,-0.2869 -0.99343,0 -1.88752,0.0956 -2.9803,-0.2869 -0.99343,-0.95633 -2.78161,-0.76506 -4.27175,-1.05196 -1.49016,-0.38254 -2.18556,-2.0083 -4.07308,-1.62577 -0.39737,-0.2869 -1.09278,-0.38253 -1.68883,-0.47817 -0.39738,-0.47816 -1.09278,-1.24322 -0.8941,-2.10392 0.39738,-2.2952 2.9803,-3.06026 4.5698,-4.68602 0.89408,-0.47818 0.99343,-1.53013 1.98686,-1.81703 0.79474,-0.8607 1.29146,-1.62577 1.98686,-2.48646 0.99344,-1.24324 1.19212,-3.34717 1.29146,-5.1642 -0.6954,-0.66943 -0.19868,-1.62576 -1.09277,-2.10392 l -1.68884,-1.91267 c -0.0993,-0.86069 -0.49671,-1.53013 -0.99343,-2.19956 0.29803,-1.62576 0.39737,-3.63406 0.59607,-5.06856 -1.29147,-2.10393 -2.88096,-4.01659 -4.07308,-5.92926 -0.99343,-0.95633 -0.99343,-2.39082 -1.98687,-3.15588 -0.79474,0.19126 -0.99343,1.62576 -1.98687,0.86069 -0.6954,-0.95633 -1.19211,-1.81703 -2.18554,-2.10393 -1.09278,-1.33886 -1.68884,-3.06027 -2.38424,-4.686031 -0.59606,-0.478166 -0.8941,-1.051966 -0.99343,-1.912663 0.29803,-1.434497 1.09277,-3.155895 0.39737,-4.494759 -1.88753,-2.199562 -2.38424,-5.259822 -3.87439,-7.459385 -0.19868,-1.434497 -0.89409,-2.582094 -1.49015,-3.920958 -0.59606,-0.382533 -0.6954,0.573798 -1.29146,0.669432 -1.29146,-0.09564 -1.88752,-1.147598 -2.2849,-2.10393 -0.29803,-1.53013 -1.58949,-2.677727 -1.88751,-4.399124 -0.59607,-2.390828 3.27832,-3.729692 1.19211,-6.216154 -1.88752,-2.582095 -2.28489,-6.024888 -3.97373,-8.893881 -2.18555,-3.63406 -3.27832,-7.937552 -3.77504,-12.14541 0.19868,-1.051964 -0.49672,-3.06026 1.29146,-3.251527 0.79475,-0.09563 1.29146,0.382533 1.88752,0.573799 0.39737,-0.669432 0.79474,-1.53013 1.68884,-1.434497 1.49014,-0.573799 2.48358,0.573799 4.07307,0.573799 l 1.78818,0.765065 z"
     class="st3"
     inkscape:connector-curvature="0"
     style="fill:#000000;fill-opacity:1;stroke:none;stroke-width:0.04511662;stroke-miterlimit:3.86369991;stroke-opacity:1" /><path
     id="path1147"
     d="m -54.604619,45.892266 v 0.573798 c 0.794746,-0.09563 1.490146,-0.478165 2.284892,0.191266 2.185556,4.112226 0.894094,9.372048 -0.198684,13.579907 -0.695399,0.765064 -0.496715,1.721396 -1.192115,2.390828 -1.490155,6.311788 -3.775048,12.527941 -6.159287,18.361563 -1.490146,2.677728 -2.38424,5.259823 -4.371101,7.746285 -0.496715,1.24323 -1.092778,2.008295 -1.788177,3.155893 -0.09935,0.5738 -0.993431,0.860698 -0.794747,1.625764 -1.291461,1.53013 -1.887524,3.347159 -2.980301,5.068556 -0.496716,1.912664 0.397378,3.825334 -0.496716,5.546734 0.298032,0.95633 -0.496715,2.00829 -0.695399,3.06026 -0.397378,0.5738 -1.092778,0.76506 -1.788177,0.5738 -0.397378,-0.0956 -0.794747,-0.47817 -1.192125,-0.28691 -1.092777,2.0083 -2.284892,4.78166 -1.490146,6.98123 1.490146,1.62576 1.390809,4.01659 1.788177,6.12052 -0.09935,0.57379 -0.496715,1.05196 -0.99343,1.33886 0,2.10393 -1.887524,3.82532 -0.6954,6.12052 1.589483,3.4428 4.967163,6.50305 8.742202,7.17249 1.68884,1.14759 4.967163,1.53013 5.06651,4.01659 -0.69541,0.38253 -1.291462,0.86069 -2.086209,0.95633 -0.09935,0.2869 -0.794746,0.2869 -0.99344,0.66944 -1.291462,0.28689 -2.38423,1.53012 -3.178976,2.48646 -1.986871,0.86069 -4.371111,1.62576 -5.662573,3.06025 l -4.470447,1.33887 c -1.390799,0.66943 -2.682261,1.53013 -3.775039,2.39082 -1.192124,0.28691 -2.384239,1.05197 -3.576354,0.66944 -0.99344,-1.05196 -1.092778,-2.77336 -1.490156,-4.11223 0.298031,-0.57379 -0.09934,-0.95633 0,-1.62576 0.397378,-1.4345 -0.198684,-3.82533 0.794747,-5.16419 -0.198684,-3.4428 2.781617,-6.78995 0.298031,-10.32838 0.298031,-0.57379 -0.198684,-0.8607 -0.198684,-1.33887 -0.496716,-2.19955 -0.596063,-4.59039 -2.68227,-5.73798 -0.794745,-0.19127 -1.986865,0 -2.086208,-1.05196 0,-0.8607 0.596059,-1.91267 0.397373,-2.869 0.496716,-0.8607 1.192119,-2.0083 0.993433,-3.15589 h 0.198686 c 0,-3.82533 0.397373,-7.45939 -0.198686,-11.09345 0.198686,-1.1476 -0.09934,-2.96463 0.298029,-4.20786 0.09934,-1.051968 0.29803,-2.486465 0,-3.442797 l -0.09934,-0.191266 c -0.89409,0.573799 -1.390806,2.103929 -2.384239,1.243231 -0.198686,-1.434498 -1.788178,-1.625764 -2.185551,-2.964628 -1.589492,-1.434497 -1.986865,-3.538426 -3.477014,-4.972923 -0.29803,-0.956331 -0.59606,-1.81703 -0.496716,-2.964627 1.291462,-1.721396 3.278328,-2.964628 4.669132,-4.303492 -0.09934,-0.765064 0.794747,-0.573799 0.993433,-0.956331 1.092777,-0.573799 1.19212,-1.817029 2.384239,-2.390829 0,-0.860697 0.894089,-1.147597 1.390809,-1.721396 1.092768,-0.2869 1.887515,-1.147597 2.980292,-1.721397 1.390809,-0.478166 1.986871,-1.53013 2.38424,-2.77336 0.198684,-0.860699 0.794746,-1.625765 0.99343,-2.582095 0.397378,-0.191267 0.298031,-0.669433 0.397378,-0.860699 1.291462,-1.912662 2.582924,-4.112225 3.775039,-5.833621 1.887524,-2.964628 4.271763,-5.451089 6.954034,-7.555019 0.993431,-2.103929 3.775038,-2.964627 5.0665,-4.781656 3.278333,-2.008296 5.662573,-5.16419 9.338274,-6.311788 0.695399,0.09563 1.589483,0 1.68883,0.860699 z"
     inkscape:connector-curvature="0"
     style="stroke:#000000;stroke-width:0.16352527;stroke-opacity:1" /><path
     id="path1149"
     d="m 156.2,20.6 v 0.6 c 0.8,-0.1 1.5,-0.5 2.3,0.2 2.2,4.3 0.9,9.8 -0.2,14.2 -0.7,0.8 -0.5,1.8 -1.2,2.5 -1.5,6.6 -3.8,13.1 -6.2,19.2 -1.5,2.8 -2.4,5.5 -4.4,8.1 -0.5,1.3 -1.1,2.1 -1.8,3.3 -0.1,0.6 -1,0.9 -0.8,1.7 -1.3,1.6 -1.9,3.5 -3,5.3 -0.5,2 0.4,4 -0.5,5.8 0.3,1 -0.5,2.1 -0.7,3.2 -0.4,0.6 -1.1,0.8 -1.8,0.6 -0.4,-0.1 -0.8,-0.5 -1.2,-0.3 -1.1,2.1 -2.3,5 -1.5,7.3 1.5,1.7 1.4,4.2 1.8,6.4 -0.1,0.6 -0.5,1.1 -1,1.4 0,2.2 -1.9,4 -0.7,6.4 1.6,3.6 5,6.8 8.8,7.5 1.7,1.2 5,1.6 5.1,4.2 -0.7,0.4 -1.3,0.9 -2.1,1 -0.1,0.3 -0.8,0.3 -1,0.7 -1.3,0.3 -2.4,1.6 -3.2,2.6 -2,0.9 -4.4,1.7 -5.7,3.2 l -4.5,1.4 c -1.4,0.7 -2.7,1.6 -3.8,2.5 -1.2,0.3 -2.4,1.1 -3.6,0.7 -1,-1.1 -1.1,-2.9 -1.5,-4.3 0.3,-0.6 -0.1,-1 0,-1.7 0.4,-1.5 -0.2,-4 0.8,-5.4 -0.2,-3.6 2.8,-7.1 0.3,-10.8 0.3,-0.6 -0.2,-0.9 -0.2,-1.4 -0.5,-2.3 -0.6,-4.8 -2.7,-6 -0.8,-0.2 -2,0 -2.1,-1.1 0,-0.9 0.6,-2 0.4,-3 0.5,-0.9 1.2,-2.1 1,-3.3 h 0.2 c 0,-4 0.4,-7.8 -0.2,-11.6 0.2,-1.2 -0.1,-3.1 0.3,-4.4 0.1,-1.1 0.3,-2.6 0,-3.6 l -0.1,-0.2 c -0.9,0.6 -1.4,2.2 -2.4,1.3 -0.2,-1.5 -1.8,-1.7 -2.2,-3.1 -1.6,-1.5 -2,-3.7 -3.5,-5.2 -0.3,-1 -0.6,-1.9 -0.5,-3.1 1.3,-1.8 3.3,-3.1 4.7,-4.5 -0.1,-0.8 0.8,-0.6 1,-1 1.1,-0.6 1.2,-1.9 2.4,-2.5 0,-0.9 0.9,-1.2 1.4,-1.8 1.1,-0.3 1.9,-1.2 3,-1.8 1.4,-0.5 2,-1.6 2.4,-2.9 0.2,-0.9 0.8,-1.7 1,-2.7 0.4,-0.2 0.3,-0.7 0.4,-0.9 1.3,-2 2.6,-4.3 3.8,-6.1 1.9,-3.1 4.3,-5.7 7,-7.9 1,-2.2 3.8,-3.1 5.1,-5 3.3,-2.1 5.7,-5.4 9.4,-6.6 0.7,0.1 1.6,0 1.7,0.9 z"
     class="st2"
     inkscape:connector-curvature="0"
     style="display:none;fill:none;stroke:#ff675d;stroke-width:0.04511662;stroke-miterlimit:3.86369991" /><path
     id="path1151"
     d="m -54.604619,45.892266 v 0.573798 c 0.794746,-0.09563 1.490146,-0.478165 2.284892,0.191266 2.185556,4.112226 0.894094,9.372048 -0.198684,13.579907 -0.695399,0.765064 -0.496715,1.721396 -1.192115,2.390828 -1.490155,6.311788 -3.775048,12.527941 -6.159287,18.361563 -1.490146,2.677728 -2.38424,5.259823 -4.371101,7.746285 -0.496715,1.24323 -1.092778,2.008295 -1.788177,3.155893 -0.09935,0.5738 -0.993431,0.860698 -0.794747,1.625764 -1.291461,1.53013 -1.887524,3.347159 -2.980301,5.068556 -0.496716,1.912664 0.397378,3.825334 -0.496716,5.546734 0.298032,0.95633 -0.496715,2.00829 -0.695399,3.06026 -0.397378,0.5738 -1.092778,0.76506 -1.788177,0.5738 -0.397378,-0.0956 -0.794747,-0.47817 -1.192125,-0.28691 -1.092777,2.0083 -2.284892,4.78166 -1.490146,6.98123 1.490146,1.62576 1.390809,4.01659 1.788177,6.12052 -0.09935,0.57379 -0.496715,1.05196 -0.99343,1.33886 0,2.10393 -1.887524,3.82532 -0.6954,6.12052 1.589483,3.4428 4.967163,6.50305 8.742202,7.17249 1.68884,1.14759 4.967163,1.53013 5.06651,4.01659 -0.69541,0.38253 -1.291462,0.86069 -2.086209,0.95633 -0.09935,0.2869 -0.794746,0.2869 -0.99344,0.66944 -1.291462,0.28689 -2.38423,1.53012 -3.178976,2.48646 -1.986871,0.86069 -4.371111,1.62576 -5.662573,3.06025 l -4.470447,1.33887 c -1.390799,0.66943 -2.682261,1.53013 -3.775039,2.39082 -1.192124,0.28691 -2.384239,1.05197 -3.576354,0.66944 -0.99344,-1.05196 -1.092778,-2.77336 -1.490156,-4.11223 0.298031,-0.57379 -0.09934,-0.95633 0,-1.62576 0.397378,-1.4345 -0.198684,-3.82533 0.794747,-5.16419 -0.198684,-3.4428 2.781617,-6.78995 0.298031,-10.32838 0.298031,-0.57379 -0.198684,-0.8607 -0.198684,-1.33887 -0.496716,-2.19955 -0.596063,-4.59039 -2.68227,-5.73798 -0.794745,-0.19127 -1.986865,0 -2.086208,-1.05196 0,-0.8607 0.596059,-1.91267 0.397373,-2.869 0.496716,-0.8607 1.192119,-2.0083 0.993433,-3.15589 h 0.198686 c 0,-3.82533 0.397373,-7.45939 -0.198686,-11.09345 0.198686,-1.1476 -0.09934,-2.96463 0.298029,-4.20786 0.09934,-1.051968 0.29803,-2.486465 0,-3.442797 l -0.09934,-0.191266 c -0.89409,0.573799 -1.390806,2.103929 -2.384239,1.243231 -0.198686,-1.434498 -1.788178,-1.625764 -2.185551,-2.964628 -1.589492,-1.434497 -1.986865,-3.538426 -3.477014,-4.972923 -0.29803,-0.956331 -0.59606,-1.81703 -0.496716,-2.964627 1.291462,-1.721396 3.278328,-2.964628 4.669132,-4.303492 -0.09934,-0.765064 0.794747,-0.573799 0.993433,-0.956331 1.092777,-0.573799 1.19212,-1.817029 2.384239,-2.390829 0,-0.860697 0.894089,-1.147597 1.390809,-1.721396 1.092768,-0.2869 1.887515,-1.147597 2.980292,-1.721397 1.390809,-0.478166 1.986871,-1.53013 2.38424,-2.77336 0.198684,-0.860699 0.794746,-1.625765 0.99343,-2.582095 0.397378,-0.191267 0.298031,-0.669433 0.397378,-0.860699 1.291462,-1.912662 2.582924,-4.112225 3.775039,-5.833621 1.887524,-2.964628 4.271763,-5.451089 6.954034,-7.555019 0.993431,-2.103929 3.775038,-2.964627 5.0665,-4.781656 3.278333,-2.008296 5.662573,-5.16419 9.338274,-6.311788 0.695399,0.09563 1.589483,0 1.68883,0.860699 z"
     class="st3"
     inkscape:connector-curvature="0"
     style="fill:#000000;stroke:none;stroke-width:0.04511662;stroke-miterlimit:3.86369991;stroke-opacity:1" /><path
     id="path1153"
     d="m -142.92078,48.856893 c 1.09278,-0.478166 1.88753,0.573799 2.78162,1.24323 0.6954,0.382533 0.0993,1.243232 0.19868,1.912663 l -0.89409,1.051965 c -0.59606,0 -0.29803,-0.956332 -0.89408,-0.382533 -0.29803,1.051965 0.79474,1.530131 1.58949,2.008297 0.79475,0.478166 1.49015,0.09563 2.38423,0 0.59606,0.09563 0.89409,0.956331 1.39081,0.382532 l -0.29803,-0.860698 c 0.29803,-0.2869 0.89409,-0.09564 1.19212,0.09563 1.29146,0.860698 0,2.868994 1.09278,3.634059 0.29802,1.53013 -0.69541,2.868994 -0.89409,4.207859 0.0993,0.191266 0.39736,0.09563 0.59606,0 0.49671,-1.625764 0.6954,-3.251528 1.49014,-4.781658 0.8941,0.478166 0.59607,1.721397 0.99343,2.390829 0.59607,0 1.29147,-0.2869 1.88753,0.09563 0.6954,0.956331 -0.39738,1.912663 -0.79475,2.773361 -0.39738,0.573799 -0.29803,1.338864 -0.89409,1.817029 0.0994,0.669433 -0.49672,1.243232 -0.49672,1.912663 -0.29803,-0.382532 0.1987,-0.669431 0.29803,-0.956331 0.0993,-1.24323 0.6954,-2.295195 0,-3.442793 -0.49671,0.382533 -0.89408,0.956331 -1.49014,0.956331 -0.49672,0.860699 -0.39738,2.295196 -1.58949,2.486462 -0.59607,-0.669432 -1.19213,-0.286899 -1.78818,-0.382532 -0.19869,-0.2869 -0.29803,-0.765066 0,-0.956331 0.49671,-0.191267 1.09278,-0.2869 1.29146,-0.860699 -0.79475,-0.2869 -1.98687,0.09563 -2.58292,0.669432 0.39736,0.2869 0.79474,1.147598 0.29803,1.53013 -0.1987,0.2869 -0.29803,0.09563 -0.49673,0.09563 -0.29802,-0.382532 -0.99343,-0.765065 -0.6954,-1.338863 l 0.29803,-0.191267 c -0.19868,-0.382532 -0.89409,-0.478166 -1.3908,-0.573799 -0.29804,0.09563 -0.6954,0.2869 -0.6954,0.669433 -0.0993,0.765064 0.19868,1.434496 0.89409,1.817029 -0.0993,0.286899 -0.39738,0.09563 -0.59606,-0.09563 -0.69541,-0.765065 -0.59607,-1.912663 -1.68884,-2.295196 -0.79475,1.051965 0.69541,1.912663 1.39081,2.677728 0.49671,2.199562 3.6757,1.81703 3.6757,4.207858 -0.19869,0.382533 -0.8941,0.765066 -1.39081,0.5738 -0.6954,-0.382533 -1.09278,-1.530131 -1.98686,-1.243232 -0.29803,0.382533 -0.99343,0.956332 -1.49015,0.573799 -0.79475,-1.53013 -0.89409,-3.34716 -1.78819,-4.972923 -0.89408,-3.06026 -2.98029,-5.737989 -4.17241,-8.798249 -0.19869,-1.434497 -0.59605,-2.964627 -1.49015,-4.207858 0,-0.09564 0,-0.191267 0.0993,-0.2869 2.18554,0.669432 2.28489,2.964628 2.98029,4.686025 0.39738,0.478165 0.69541,1.434497 1.58949,1.53013 0.39738,-0.191267 0.99343,-0.765066 0.99343,-1.243231 -0.29802,-1.434498 -2.7816,-1.721396 -2.38424,-3.442793 0,-2.199562 -0.89408,-4.207858 -0.0993,-6.216155 1.39081,-0.191266 2.38424,0.765066 3.57635,1.530131 z m 85.832584,4.87729 c 0.496716,1.530131 1.092768,3.634059 3.079639,3.729692 0.496716,1.53013 -0.695409,2.868995 -1.192124,4.207859 -0.198684,-0.382533 -0.298022,-0.956332 -0.6954,-1.338864 -0.596062,0 -0.298031,0.669431 -0.695399,0.860698 -0.794747,1.338864 -2.38424,1.434497 -3.576364,2.103929 l -0.596053,-0.09563 c -1.68884,-0.956331 -2.185555,-2.677728 -2.384239,-4.399124 -0.298031,-0.382533 -0.198684,-1.243232 -0.993431,-1.243232 h -0.397378 c 0.198684,1.147599 0.397378,2.390829 0.993431,3.442793 -0.09934,0.5738 -0.496716,0.860699 -0.993431,1.051966 0,0.382531 0.894093,0.09563 1.092778,0.478165 1.092777,0.860698 2.384239,1.625764 3.874385,1.817029 1.291462,0 2.582924,-0.860697 3.576354,-1.625763 l 0.397378,-0.956331 c 0.794747,1.53013 -0.695399,2.582094 -0.596062,4.016592 -0.496715,0.956331 -0.298031,2.677728 -1.589493,2.868994 -0.596052,-0.382533 0.397378,-1.051964 -0.298031,-1.243231 -0.894084,0.2869 -1.490146,0.956331 -2.483577,0.669432 l -0.198684,-0.2869 c 0.6954,-0.765064 2.284893,-1.434497 2.185546,-2.582094 -0.397369,-0.2869 -0.894084,0 -1.192115,0.2869 -0.298031,0.573798 -0.397378,1.051964 -1.192125,1.24323 -0.894083,0.09563 -1.490146,-0.09563 -2.284892,-0.478166 -0.298031,0.669433 -1.192115,0.669433 -1.788177,0.191267 -0.6954,-0.669432 -0.298032,-1.81703 -0.397369,-2.486462 -0.695409,-0.860698 -1.589493,-1.625763 -1.887524,-2.582095 -1.788177,0.765066 0.596053,2.008296 0.496715,3.155894 0.397369,2.103929 2.284893,2.582095 3.874386,3.729692 0.298031,0.669433 1.291462,0.382533 1.390809,1.147599 0.198684,0.478165 0.99343,-0.09564 1.390799,0.191265 0.894093,0.191266 1.887524,-0.382532 2.582933,0 0.198684,0.765066 0,1.338865 -0.496725,1.912663 -0.397368,-0.191266 -1.092768,-0.286899 -1.390799,0.09563 -0.198694,0.382533 -0.695409,0.573799 -0.993431,0.2869 l -0.794746,-1.051965 c -0.298031,0.2869 0.298021,0.669432 0.198684,1.147598 0.09934,0.765065 0.198684,1.53013 -0.09935,2.199562 -0.695399,0.2869 -1.390799,0.860698 -2.185545,0.573799 -0.198694,-0.956331 -1.589493,-0.860698 -1.490156,-1.912662 -0.09934,-0.191267 -0.596053,-0.09564 -0.6954,0 -1.192124,2.199561 -3.775048,3.442793 -3.973732,6.12052 0.09935,0.478166 0.695399,0.860699 1.192124,0.765066 0.993431,-0.956332 3.079639,-0.478166 2.781608,-2.390829 0.794747,-0.765066 2.483577,0.286899 2.582924,-1.147598 0.198684,-0.573799 0.794746,-0.765065 1.291462,-0.956332 h 0.198684 c 0.198694,0.669433 -0.397368,1.051966 -0.397368,1.721397 l -1.788178,1.147598 c 0.993431,0.956331 -0.794746,1.625764 -0.794746,2.582095 -1.788177,3.634059 -3.874386,7.268118 -6.457319,10.519645 -0.894084,1.243232 -2.086208,2.582095 -2.980292,3.920959 0.09934,0.478166 0.6954,0.765066 1.092778,0.956331 1.291462,-0.09563 0.596052,-1.721397 1.291462,-2.295195 2.68226,-4.016592 6.258624,-6.981219 8.046802,-11.475977 0.596062,-1.81703 2.185555,-3.155894 2.483576,-5.068556 l 0.298031,-0.09564 c -0.695399,3.920959 -2.880954,7.363752 -5.364531,10.710912 -0.894094,2.103929 -2.582924,3.920959 -3.576364,6.024888 l -2.38423,5.642356 c -0.596062,0.09563 -0.99344,-0.478166 -1.291462,-0.860699 -0.09935,-0.478166 0.298022,-0.765065 0.298022,-1.24323 -1.788177,0.573798 -2.483577,2.677737 -3.775039,3.729697 -0.198684,2.0083 1.887524,3.1559 1.589493,5.16419 -1.390808,3.7297 -3.37767,7.26812 -3.079639,11.47598 -0.695409,2.58209 1.092768,5.45109 -0.894093,7.74628 l -0.397378,-0.2869 c 0,0.38253 0.298031,1.24323 0,1.91267 1.092777,1.05195 1.192124,2.48646 1.390809,4.11222 -0.09934,0.8607 -1.490146,0 -1.192115,1.05196 0.198684,0.28692 0.397368,0.76508 0.198684,1.14761 -0.397378,0.2869 -0.894094,0.47816 -1.490146,0.2869 -0.198694,0.38253 0.298031,0.66944 0.09934,0.95633 -0.993431,-0.28689 0.397378,-2.48646 -1.390799,-1.81703 -0.894093,-0.95633 -0.596062,-2.19956 -0.695409,-3.44279 -0.298031,0 -0.298031,0.8607 -0.993431,0.57379 -0.198684,-1.05195 1.68884,-2.58209 0.09935,-3.25152 -0.397378,-0.38254 0.198684,-0.76506 0.198684,-1.1476 0.397369,-1.14759 0.198685,-2.48646 -0.198684,-3.82533 0,-0.95632 0.596053,-1.91265 0.6954,-2.86898 1.192114,0.38252 -0.496716,2.67772 1.192114,2.96462 0.993441,-0.5738 -0.496715,-2.19956 1.092778,-2.19956 0.09935,-0.0956 0.198694,-0.38254 0,-0.57381 -0.794746,0.19127 -1.092778,-0.47816 -0.794746,-1.05195 0.894093,-1.24324 -0.894084,-2.77336 0.298031,-3.92096 -0.794747,-1.05197 -0.09934,-2.39083 -0.198684,-3.53843 0.397368,-0.38254 1.390808,-0.66943 1.390808,-1.33887 -1.092777,-1.05196 -0.09935,-2.48646 0.198685,-3.44279 -0.596063,-0.76506 0.09934,-2.39082 -1.490146,-2.29519 -0.397379,0.28689 0.198684,0.76506 0,1.05196 -0.198694,0.66944 0,1.1476 0.198684,1.7214 -0.496716,0.95633 -0.596063,2.00829 -0.596063,3.06026 -0.298031,0.76506 -1.291461,1.1476 -0.695399,2.10393 0.496715,1.05197 -0.993431,1.62576 -0.496715,2.48646 0.695399,0.8607 0.496715,2.0083 0.298031,2.96463 -0.09935,0.38253 -0.496725,1.05196 -1.092778,0.95633 -0.198694,0 -0.596062,-0.0956 -0.397378,-0.38254 0.695409,-0.86069 -0.298031,-1.24322 -0.198684,-2.19955 -1.192115,-0.8607 -0.09935,-2.2952 -0.496715,-3.34717 1.192114,-0.76506 0.397368,-1.91266 0.695399,-2.96462 -0.298031,0 -0.794746,-0.0956 -0.695399,-0.47817 1.092777,-1.33886 -0.794747,-3.25152 0.894083,-4.39912 -0.198684,-0.66943 -1.887514,-0.95634 -0.794746,-1.7214 -0.496716,-1.53014 1.490155,-2.00831 1.68884,-3.155908 v -0.860698 c -0.298031,-0.2869 -1.192115,0.286899 -1.092778,-0.478166 0.596062,-0.956331 0.596062,-2.008295 0.596062,-3.155894 -0.298031,-0.286899 -1.192124,-0.860698 -0.298031,-1.147597 0.397378,-0.669432 1.589493,1.24323 1.291462,-0.2869 -0.894084,-0.478166 -0.496715,-1.721396 -0.397368,-2.486462 l -1.192125,-1.051964 c 0.496715,-0.860698 0.596062,-2.103929 1.788177,-2.295196 0.596062,-1.338863 2.980302,-1.625763 2.682271,-3.251526 -0.198684,-0.382533 -0.993431,-0.09563 -1.291462,-0.191267 -0.198684,0.765066 -1.68883,1.051966 -0.993431,2.008297 -0.298031,0 -0.894093,-0.382533 -0.99343,-0.860698 -0.09935,-0.478166 -0.198694,-0.956332 0,-1.434498 0.794746,-0.669432 1.589493,-0.860698 1.986861,-1.81703 l -0.198684,-1.338864 c 0.397368,-0.191266 1.092777,-0.09563 1.291462,-0.669431 -0.09935,-0.478166 -0.496716,-1.147598 -0.794747,-1.530131 -0.198684,0.09563 -0.397378,0.573799 -0.894093,0.478166 -0.198685,-0.191266 -0.198685,-0.765065 0.09935,-0.956331 0.894093,-1.243232 2.483576,1.051964 3.079639,-0.860699 0,-0.573798 0.198684,-1.24323 -0.198685,-1.721396 0.09935,-0.765065 0.894094,-1.051964 1.490146,-1.625764 0.794747,0 1.788178,-0.382532 1.986871,-1.051964 -0.596062,-0.09563 -1.192124,-0.382533 -1.688839,-0.956332 0,-0.669431 -0.198685,-1.434497 0.596062,-1.721396 0.794746,-0.09563 1.788177,-0.382533 2.185545,-1.147598 0.596063,-1.147597 -1.788177,-0.286899 -0.894083,-1.53013 0.695399,0.191267 1.192114,0.382533 1.887524,0.191267 0.397368,-0.669433 -0.09935,-1.338865 0.397368,-2.008296 0.496715,-0.382533 0.794747,-0.860699 0.596062,-1.434497 l -1.291461,0.478165 c -0.397379,-0.382532 -0.298032,-1.051964 -0.09935,-1.721397 0.496715,-1.051964 1.589493,0.573799 1.788177,-0.860698 0,-1.625763 2.384239,-1.243231 2.185555,-2.964628 0,-1.912662 2.384239,-1.721396 2.880955,-3.442793 2.68227,-1.338863 3.775048,-4.59039 6.75534,-6.12052 0.298031,-0.382533 0.695399,-0.669432 1.092778,-0.765066 1.490146,1.051965 1.589493,3.251527 1.390808,5.068558 z m 2.483577,1.912663 c 0.298031,0.09563 0.298031,0.382532 0.198684,0.765065 -0.09934,0 -0.496715,0.09563 -0.397368,-0.191266 -0.298031,-1.338864 -2.185555,-1.625764 -1.887524,-3.251527 l 0.09935,-3.825326 0.198684,-0.09563 c 0.298031,2.199563 2.086208,4.207859 1.788177,6.598688 z m -81.262791,-3.34716 c -0.0993,0.191266 -0.29803,0.860698 -0.79474,0.765065 l -0.59606,-0.191266 c -0.29803,-0.956332 0.89409,-0.765066 1.3908,-0.573799 z"
     class="st0"
     inkscape:connector-curvature="0"
     style="fill:#ffffff;stroke:none;stroke-width:0.16352527;stroke-opacity:1" /><path
     id="path1155"
     d="m -58.479004,52.204053 c 0.09935,0.765065 0.298031,1.53013 -0.198685,2.199562 -0.496715,0.2869 -1.291461,0.478166 -1.887524,0.09563 -0.298031,-0.286899 0.09935,-0.382533 0.09935,-0.669432 -0.09935,-0.478165 -0.596062,-1.147598 0,-1.721397 0.6954,-0.191266 1.490146,-0.191266 1.986862,0.09563 z"
     inkscape:connector-curvature="0"
     style="fill:#000000;stroke:none;stroke-width:0.16352527;stroke-opacity:1" /><path
     id="path1157"
     d="m -53.412494,55.551212 c -0.69541,-0.478165 -0.198694,-1.53013 -0.09935,-2.295194 l 0.596062,-1.243232 c 0.496715,1.147598 -0.09935,2.390829 -0.496715,3.538426 z"
     class="st0"
     inkscape:connector-curvature="0"
     style="fill:#ffffff;stroke:none;stroke-width:0.16352527;stroke-opacity:1" /><path
     id="path1159"
     d="m -138.25165,57.655142 c 0.79475,0.669432 0.99344,-0.860698 1.5895,-0.2869 0.39737,-0.191266 0.89409,-0.765065 1.29146,-0.478165 l 0.0993,0.09563 c -0.49672,1.147598 -1.49015,1.912662 -2.68228,2.390828 -2.28489,0.191266 -2.98029,-2.295195 -4.76847,-3.155893 1.98687,-0.2869 2.78161,2.868994 4.47044,1.434496 z m 72.321896,1.434497 c -0.198684,0.191266 -0.397368,0.382532 -0.695399,0.09563 -0.397369,-0.2869 -0.298032,-0.956331 0,-1.243231 0.695399,0 0.695399,0.573799 0.695399,1.147597 z m -70.533716,2.486462 c -0.79474,0.765065 -1.88751,0.573799 -2.68226,0.478166 -0.69541,-0.2869 -1.29146,-0.382533 -1.68884,-1.147599 1.78818,0.2869 3.97373,0.2869 4.96716,-1.338864 l 0.29803,-0.286899 c 0.79475,1.243231 -1.09277,1.147598 -0.89409,2.295196 z m 75.500879,-2.582096 c 0.09935,0.191267 -0.09934,0.669433 -0.397368,0.382533 -0.298031,-0.09563 -0.6954,-0.765064 0,-0.860698 0,0.191267 0.397368,0.191267 0.397368,0.478165 z m 0,1.721397 c 0.198694,0.286899 -0.198684,0.286899 -0.298021,0.573799 -0.198694,0.09563 -0.298031,-0.09563 -0.298031,-0.2869 -0.09935,-0.478165 0.496715,-0.765064 0.596052,-0.286899 z"
     inkscape:connector-curvature="0"
     style="fill:#000000;fill-opacity:1;stroke:none;stroke-width:0.16352527;stroke-opacity:1" /><path
     id="path1161"
     d="m -129.80747,65.114527 c 0.6954,-0.765066 1.29147,0.573799 1.88753,-0.573799 0.99343,0.286899 1.29146,1.53013 1.49014,2.486462 -1.09277,1.147597 0.59607,2.103929 0.99343,3.06026 0.49672,0.860699 2.18556,0.2869 1.88753,1.338864 -0.79475,0.286899 -1.68883,-0.09563 -2.18556,0.669432 -0.49671,0.382533 -1.88751,0 -1.68883,1.147597 l 0.0994,0.191267 c 0.99343,0 2.08621,-1.434497 3.17898,-0.478165 0.39737,0.286898 -0.29803,0.956331 0.49671,0.956331 0.39738,-0.09563 0.8941,0 1.19213,0.191266 -0.0994,0.573799 -1.09278,0.191266 -1.29147,0.765065 0.49672,1.051965 1.5895,1.530131 2.08621,2.390829 v 0.286899 c -0.6954,0.191267 -1.78817,-0.956332 -1.98687,0.382533 0.0994,0.382533 0.39738,0.765064 0.8941,0.956331 0.69539,-0.09563 1.19211,-1.625763 1.88752,-0.573798 0.59606,1.434497 -1.09278,2.390828 -0.29803,3.825324 -0.59606,0.09564 -1.09278,-0.765064 -1.49015,-0.191266 0.0993,1.051965 1.09277,0.860699 1.78818,1.434498 0.59606,1.051964 -0.69541,2.773361 1.19211,2.868994 0.1987,0.956331 0.0994,1.81703 -0.19868,2.773361 0.6954,0.669432 1.09278,1.434497 1.98686,1.338864 0.49673,0.860698 1.58949,0.860698 2.08621,1.81703 -0.29802,0.2869 -0.39737,0.956331 -0.29802,1.338864 -0.69541,0 -1.78819,-0.478166 -2.08621,0.191266 0.0993,0.669431 0.79475,0.860698 1.19211,1.051964 0.59607,0.09563 0.19869,-0.860698 0.8941,-0.478166 l 1.68883,1.051965 c -0.59606,0.956331 -1.88753,1.721397 -1.19212,3.060261 0.0993,1.62576 2.78161,0.478166 1.88752,2.2952 -0.99343,0.28689 -0.39737,1.24323 -0.59605,2.0083 0.79474,0.38253 1.09277,1.14759 1.09277,2.10393 0.99343,1.33886 -1.58949,1.72139 -0.69541,3.06026 0.39738,0.66943 1.49016,0.47816 1.5895,1.53013 -0.0993,1.05196 -0.99343,1.81703 -1.68883,2.58209 -0.69541,-0.38253 -0.59607,-1.43449 -0.39738,-2.10392 0.19868,-0.19127 0.6954,-0.2869 0.6954,-0.76507 0,-0.19126 -0.0993,-0.2869 -0.39737,-0.2869 l -0.89409,0.47816 c -0.89409,-1.05196 -0.59606,-2.58209 -1.78818,-3.44279 -0.6954,-1.33886 2.08621,-1.24323 0.99343,-2.67773 -0.79475,-0.19126 -0.99343,1.24324 -1.88751,0.5738 -0.59607,-0.47816 0,-1.24323 -0.0994,-2.0083 -1.19212,-0.5738 -1.49015,-2.199562 -2.58293,-2.964628 0.19869,-0.573799 0.0994,-1.24323 -0.49671,-1.53013 0.19868,-1.817029 -0.99343,-3.155893 -2.48359,-4.016592 -0.39737,0.09563 -0.89408,0.478166 -0.99343,0.860699 0,1.051964 1.68884,0.09563 1.68884,1.24323 0.0993,0.669433 -0.0993,1.81703 0.89409,2.008296 0.19868,1.243231 0.99343,2.295195 1.49015,3.442795 l -0.0994,0.2869 c -0.59606,-0.38253 -0.89409,0.2869 -1.09277,0.8607 0,0.0956 0.19868,0.19127 0.29803,0.2869 l 0.79474,-0.66944 c 1.68883,1.14761 1.09278,3.4428 2.58293,4.78167 -0.0994,1.4345 1.68884,2.00829 1.29146,3.44279 0.89409,0.66943 0.6954,1.7214 0.6954,2.48646 1.19212,1.81703 0.89409,4.20786 2.18555,6.02489 -0.89408,1.53013 0.39738,2.86899 0.39738,4.3035 -0.59606,2.58209 1.19212,5.06855 -0.19869,7.26811 -0.0993,0.19126 -0.0993,0.2869 0.0994,0.5738 0.79474,-0.66943 0.6954,-1.81703 1.19211,-2.67773 -0.0993,-0.57379 0.89409,-1.1476 0,-1.43449 0.29803,-1.05197 -0.89408,-2.0083 0,-2.96463 -0.79475,-2.0083 -0.6954,-4.20787 -0.6954,-6.31179 0,-0.8607 0.59606,-1.81703 -0.49671,-2.2952 0,-0.19127 -0.0994,-0.38253 -0.0994,-0.66943 0.69541,-0.0956 1.39081,0.19127 1.98687,0.47816 0.59605,0.38254 0.0993,1.1476 0.49672,1.72141 -0.99344,0.47816 -0.79475,1.62576 -0.99344,2.29519 0.89409,1.33887 0.99344,3.25152 -0.0993,4.59039 0.6954,0.76506 -0.19869,2.0083 0.59606,2.77336 -0.99343,0.8607 0.59605,1.7214 -0.49672,2.39083 -0.39737,1.1476 1.68883,2.96463 -0.59606,3.1559 -0.19868,0.76506 -0.89409,0.2869 -1.29146,0.0956 -0.99343,-0.5738 -1.09278,-2.869 -2.68227,-2.0083 0.49672,1.05197 1.78818,1.53013 2.48359,2.39083 0.39736,0.47817 0.49671,1.24323 -0.1987,1.62577 -0.99343,0 -1.29146,-1.24324 -2.18554,-1.53014 -0.69541,0.19127 -1.88753,-0.0956 -1.98687,0.95633 -0.29804,-0.86069 0.39737,-1.43449 0.89409,-2.10393 0.39737,-0.0956 0.29803,-0.28689 0.29803,-0.66943 2.38424,-5.83361 -0.29803,-12.1454 -1.88752,-17.69212 l -1.09278,-0.57381 c -3.07964,-4.11222 -6.15928,-8.32007 -8.44418,-12.719211 l -0.29802,-3.920959 c -2.28491,-2.390829 -5.2652,-4.781657 -5.66258,-8.22445 -0.79474,-1.243232 -1.09277,-2.773362 -1.88752,-3.920959 l -2.18554,-5.451089 c 0.0993,-2.008296 1.19211,-3.729693 1.78817,-5.642356 0.49672,-0.956331 0.99343,-2.103929 2.28489,-2.486462 l 1.78818,-0.478165 c 0.8941,-1.243231 2.58294,-1.912663 1.98687,-3.634059 l 0.79475,-1.243232 c -0.29803,0.5738 0,0.765066 0.19868,0.860699 z"
     class="st0"
     inkscape:connector-curvature="0"
     style="fill:#ffffff;stroke:none;stroke-width:0.16352527;stroke-opacity:1" /><path
     id="path1163"
     d="m -68.810709,64.540728 c -0.298021,0.382532 -0.99343,0.956332 -1.390799,0.573799 -0.09935,-0.191267 -0.09935,-0.2869 0,-0.573799 0.198685,-0.2869 1.291462,-0.573799 1.390799,0 z m 5.364542,0.382532 h -0.198685 c 0,-0.09563 0,-0.286899 0.198685,-0.191266 z"
     inkscape:connector-curvature="0"
     style="fill:#000000;fill-opacity:1;stroke:none;stroke-width:0.16352527;stroke-opacity:1" /><path
     id="path1165"
     d="m -133.08579,67.600989 c -0.19869,0.669431 -1.09278,1.051964 -1.68884,1.24323 -0.79475,-0.191266 -1.88752,0.09564 -2.18555,-0.860698 0.39737,-0.956331 1.49015,-0.09564 2.18555,-0.573799 0.39738,-0.09563 1.88752,-1.434497 1.68884,0.191267 z"
     class="st0"
     inkscape:connector-curvature="0"
     style="fill:#ffffff;stroke:none;stroke-width:0.16352527;stroke-opacity:1" /><path
     id="path1167"
     d="m -70.10217,66.835923 v 0.191267 c -0.198685,0.191266 -0.6954,0.09563 -0.993431,0.09563 v -0.382533 c 0.397378,-0.191266 0.894093,-0.09563 0.993431,0.09563 z m -58.1158,1.721397 c 0,0.191266 -0.0993,0.286899 -0.29803,0.286899 -0.29804,0 -0.6954,-0.286899 -0.59607,-0.765065 0.0993,-0.956331 1.09278,-0.09563 0.8941,0.478166 z m 61.394132,-0.669433 c -0.09935,1.434498 -2.483586,1.721397 -1.589493,3.251528 -2.483586,2.582094 -2.781607,6.216154 -5.165847,8.798249 -0.198694,2.295195 -1.887524,4.303491 -1.68884,6.69432 0.198685,0.191266 0.596063,0.191266 0.397378,0.382532 -1.788186,0.382532 -1.291461,2.390828 -1.887524,3.538427 -0.198684,1.338863 -1.390808,2.390828 -0.794746,4.016591 -0.397378,0.573799 -1.192125,1.147598 -0.794747,1.912663 0.397369,0.286899 1.092778,0.478166 1.192115,1.051965 -0.496715,0.573798 -2.185545,-0.191267 -1.986861,1.147597 0.198684,1.051964 -0.894094,2.199561 0,3.155891 -0.298031,0.0956 -0.6954,0.57381 -0.993431,0.0956 -0.397378,-2.2952 0.894084,-4.494761 0.993431,-6.789957 1.390809,-1.051964 -0.6954,-2.77336 0.993431,-3.442793 -0.198685,-0.956332 1.092777,-1.625763 0,-2.199562 0.397378,-0.573798 1.390808,-0.669432 1.390808,-1.53013 0.09934,-0.860698 -0.794746,-1.338864 0.198685,-2.008296 0.09935,-0.669432 0.596062,-1.051965 0.894093,-1.625764 0.09934,-1.434497 0.397368,-2.868994 1.589493,-3.729692 0.397368,-0.860698 -1.192125,-2.582095 0.695399,-2.582095 0.6954,-0.669432 0.397369,-1.625763 0.993431,-2.199562 0.397378,-0.669432 1.291462,-1.338864 0.993431,-2.199563 -0.198684,-0.286899 -0.894084,-0.478166 -0.496716,-0.956331 1.490156,-0.09563 1.490156,-1.912662 3.079639,-2.103929 -0.695399,-0.765065 0.298032,-1.81703 0.496725,-2.677728 v -1.051964 c 0.894084,0 1.092768,0.765065 1.490146,1.051964 z m -64.970492,1.81703 v 0.573799 c -0.59606,0 -0.29803,-0.669432 -0.49671,-0.956331 0.39737,-0.286899 0.6954,0.09564 0.49671,0.382532 z m 67.553416,-0.286898 c 0,0.191265 0,0.573798 -0.198684,0.669431 -0.198694,-0.09563 -0.596062,-0.09563 -0.596062,-0.2869 0.09935,-0.478165 0.596062,-0.478165 0.794746,-0.382531 z m -2.483586,0.478165 c 0.09935,0.191266 0,0.286899 -0.09934,0.286899 h -0.198684 c -0.198694,-0.191266 0.09934,-0.191266 0.298022,-0.286899 z m -5.662563,1.051965 c -0.09934,0.382531 -0.496715,0.286899 -0.794746,0.286899 -0.596063,-0.286899 -0.09934,-0.765065 0.198684,-0.860698 0.298031,0 0.894093,0.191266 0.596062,0.573799 z m -58.115807,2.199561 c -0.29803,0.382533 -0.99344,1.147598 -1.58949,0.956332 -0.59606,-0.860699 1.19212,-1.625763 -0.19868,-2.295196 0,-0.382532 0.6954,-0.286899 0.89408,-0.669431 0.99343,-0.09563 0.6954,1.243231 0.89409,2.008295 z m 67.553418,-2.008295 c -0.198684,0.573798 -0.894094,0.765065 -1.291462,0.956331 0.198684,-0.382533 0.794747,-0.860698 1.291462,-0.956331 z m -3.178986,1.147597 c 0,0.191267 -0.198684,0.5738 -0.397368,0.5738 l -0.198694,-0.09564 c -0.198685,-0.286899 0.298031,-0.669432 0.596062,-0.478166 z"
     inkscape:connector-curvature="0"
     style="fill:#000000;fill-opacity:1;stroke:none;stroke-width:0.16352527;stroke-opacity:1" /><path
     id="path1169"
     d="m -58.479004,73.14771 h -0.09935 c -0.298032,-0.382532 0.198694,-0.860698 0.397378,-1.051964 0.09934,0.382533 0,0.956331 -0.298031,1.051964 z m -18.477844,-0.382532 c -0.298031,0.09563 -0.496715,0.382532 -0.794746,0.286899 -0.198694,-0.191265 0.09934,-0.573798 0.298031,-0.573798 0.298021,0.09563 0.496715,0.09563 0.496715,0.286899 z"
     class="st0"
     inkscape:connector-curvature="0"
     style="fill:#ffffff;stroke:none;stroke-width:0.16352527;stroke-opacity:1" /><path
     id="path1171"
     d="m -126.4298,81.945959 c -0.29803,0.860699 0.49672,1.243232 0.79475,1.81703 0.6954,1.147598 0.89409,2.582095 0.39738,3.920959 0.29802,0.765065 1.49014,0.573799 1.49014,1.53013 -0.19868,0.573799 0.0993,1.243231 -0.49671,1.434498 -0.89409,-0.382533 -0.49672,-1.81703 -0.89409,-2.582095 -0.59607,-0.2869 -0.49672,-1.051965 -0.89409,-1.434497 0,-0.956332 0.59605,-2.677729 -0.89409,-2.964628 0,-2.390828 -2.18556,-4.016592 -2.28489,-6.40742 -0.59607,-0.669433 -1.09278,-1.338864 -0.79475,-2.199563 l -0.19868,-0.765065 c 1.78817,2.10393 2.88095,4.87729 3.77503,7.650651 z m 57.917123,-7.93755 c 0,0.382533 -0.298032,0.669432 -0.6954,0.573799 -0.298031,0.09563 -0.397378,-0.191266 -0.596062,-0.2869 0,-0.191266 0.198684,-0.382532 0.496715,-0.573799 0.397378,-0.09563 0.794747,0 0.794747,0.2869 z m -5.066501,0.573799 c -0.198694,0.191266 -0.397378,0.09563 -0.695409,0.09563 l -0.09934,-0.09563 c 0.09934,-0.2869 0.894083,-0.478166 0.794746,0 z"
     inkscape:connector-curvature="0"
     style="fill:#000000;fill-opacity:1;stroke:none;stroke-width:0.16352527;stroke-opacity:1" /><path
     id="path1173"
     d="m -58.97572,74.486575 c -0.09935,0.382532 0.09934,0.956331 -0.397378,1.051964 -0.198684,-0.2869 -0.09934,-1.147597 0.397378,-1.051964 z"
     class="st0"
     inkscape:connector-curvature="0"
     style="fill:#ffffff;stroke:none;stroke-width:0.16352527;stroke-opacity:1" /><path
     id="path1175"
     d="m -125.43637,76.494871 c 0,0.286899 -0.29803,0.573798 -0.49671,0.669431 -0.29803,0 -0.19868,-0.669431 -0.0993,-0.860697 0.19869,-0.382533 0.59605,-0.2869 0.59605,0.191266 z"
     inkscape:connector-curvature="0"
     style="fill:#000000;fill-opacity:1;stroke:none;stroke-width:0.16352527;stroke-opacity:1" /><path
     id="path1177"
     d="m -59.671129,76.686136 c -0.198684,-0.09563 -0.09934,-0.478165 0,-0.669431 l 0.198694,-0.191266 c 0.09934,0.286899 0,0.669432 -0.198694,0.860697 z"
     class="st0"
     inkscape:connector-curvature="0"
     style="fill:#ffffff;stroke:none;stroke-width:0.16352527;stroke-opacity:1" /><path
     id="path1179"
     d="m -134.97331,81.563427 c 0.39736,2.773361 2.0862,4.972923 2.38424,7.650651 -0.0994,0.191266 -0.39738,0 -0.59607,-0.09563 -1.78817,-3.920958 -3.27833,-7.841917 -4.86781,-11.858509 0,-0.191267 0.19868,-0.191267 0.29802,-0.2869 2.18555,0.765066 1.49015,3.251527 2.78162,4.590392 z m 59.506608,-4.207858 c 0.198684,0.478166 -0.298031,0.765065 -0.596062,0.860698 -0.298031,0.09564 -0.397368,-0.191266 -0.596062,-0.382532 0,-0.2869 0.09935,-0.765066 0.397378,-0.765066 0.397368,-0.09563 0.596062,0.09563 0.794746,0.2869 z m -57.122368,1.338863 c 0.0993,0.191267 -0.0994,0.191267 -0.29804,0.2869 l -0.29803,-0.2869 c -0.19868,-0.573798 0.59607,-0.286899 0.59607,0 z"
     inkscape:connector-curvature="0"
     style="fill:#000000;fill-opacity:1;stroke:none;stroke-width:0.16352527;stroke-opacity:1" /><path
     id="path1181"
     d="m -66.525806,78.694432 c -0.09935,0.191267 -0.496716,0.191267 -0.69541,0 -0.198684,-0.09563 0,-0.286899 0,-0.478165 l 0.397378,-0.286899 c 0.298032,0.09563 0.596063,0.478165 0.298032,0.765064 z m -14.90149,0.09563 c 0,0.191266 0,0.382532 -0.198694,0.382532 -0.298021,0 -0.198684,-0.382532 -0.09934,-0.478166 z"
     class="st0"
     inkscape:connector-curvature="0"
     style="fill:#ffffff;stroke:none;stroke-width:0.16352527;stroke-opacity:1" /><path
     id="path1183"
     d="m -129.41009,79.459498 c 0.29802,0.478166 -0.29803,0.860698 -0.39738,1.243231 -0.29803,0 -0.79474,0 -0.79474,-0.382533 0.59606,0 0.59606,-0.765065 1.19212,-0.860698 z"
     inkscape:connector-curvature="0"
     style="fill:#000000;fill-opacity:1;stroke:none;stroke-width:0.16352527;stroke-opacity:1" /><path
     id="path1185"
     d="m -107.35589,79.842031 c -0.19868,0.286898 -0.79475,0.191266 -1.09278,0.09563 -0.19868,-0.09563 -0.19868,-0.382533 0,-0.573799 0.39738,0.09563 0.8941,0.191266 1.09278,0.478165 z"
     class="st0"
     inkscape:connector-curvature="0"
     style="fill:#ffffff;stroke:#000000;stroke-width:0.16352527;stroke-opacity:1" /><path
     id="path1187"
     d="m -75.963417,79.363865 c 0.09934,0.286899 -0.09935,0.286899 -0.298031,0.286899 -0.09935,0.09564 -0.198684,-0.09563 -0.298031,-0.191266 -0.09935,-0.2869 0.496715,-0.478166 0.596062,-0.09563 z"
     inkscape:connector-curvature="0"
     style="fill:#000000;fill-opacity:1;stroke:none;stroke-width:0.16352527;stroke-opacity:1" /><path
     id="path1189"
     d="m -84.904313,79.842031 c -0.298031,1.625763 -0.198684,3.251526 -1.192114,4.494757 0.09934,-0.573799 -1.589493,-1.81703 0,-2.008296 0,-1.051964 0.397368,-2.103929 0.99343,-3.06026 z"
     class="st0"
     inkscape:connector-curvature="0"
     style="fill:#ffffff;stroke:none;stroke-width:0.16352527;stroke-opacity:1" /><path
     id="path1191"
     d="m -122.25738,80.128929 -0.19868,0.2869 c -0.19869,0 -0.29803,0 -0.29803,-0.191266 -0.0994,-0.286899 0.39737,-0.573799 0.49671,-0.09563 z m -2.18555,0.478166 c 0.0993,0.382533 -0.0993,0.956332 -0.6954,0.860699 -0.29804,0.09563 -0.59607,-0.09563 -0.6954,-0.286899 0.0993,-0.382533 0.19868,-0.956332 0.59606,-1.051966 0.59605,-0.09563 0.79474,0.2869 0.79474,0.478166 z"
     inkscape:connector-curvature="0"
     style="fill:#000000;fill-opacity:1;stroke:none;stroke-width:0.16352527;stroke-opacity:1" /><path
     id="path1193"
     d="m -101.19661,81.563427 c 0.0994,1.051964 -1.3908,0.956331 -1.98686,1.625764 -0.6954,-0.2869 -1.09278,-0.5738 -1.5895,-1.051966 -0.49671,0.2869 -0.89408,0.956332 -0.29803,1.338865 -0.19868,0.669432 -0.79474,1.243231 -0.6954,2.008295 -0.6954,0.765066 -1.09278,1.530131 -2.18555,1.625765 -0.19869,0.573798 -0.79475,1.051964 -1.19212,0.573798 -0.29803,-0.860698 -1.78817,-1.338864 -0.6954,-2.199563 0.6954,-0.286898 0.39737,-1.051964 -0.0993,-1.24323 1.19211,-0.765065 1.19211,1.434497 2.18555,0.573799 -0.69541,-0.956332 -1.19212,-2.103929 -2.58292,-2.295196 0.49671,-0.573799 1.09277,0.382533 1.78817,0 0.6954,0.191267 1.78818,0.382533 1.88752,1.338864 0.19869,0.191266 0.69541,0.191266 0.79475,0 0.49672,-0.382532 0.0993,-1.243231 0.0993,-1.721397 0.29803,-0.382531 1.88753,0.09564 1.39081,-1.051964 l -1.19212,-0.956332 c 0.79474,0 1.78817,0.09564 2.48358,0.2869 z m -16.98769,0.09563 c 0.0993,0.191267 0.59605,0.669432 0.0993,0.860698 -0.6954,0.191267 -1.29146,0.2869 -2.08621,0.382533 -1.09278,-0.478166 0.29803,-1.147597 0,-2.008296 0.19868,-0.2869 0.39738,-0.191266 0.69541,-0.09563 0.0993,0.573799 0.89408,0.573799 1.29146,0.860699 z m 11.52381,-0.191266 c 0.19869,0.09563 0.29803,0.191266 0.19869,0.382533 -0.69541,0 -1.58949,0.286898 -2.2849,-0.191267 -0.19868,-0.191266 -0.59605,-0.478166 -0.29802,-0.956331 0.29802,-0.382533 1.09277,-0.09564 1.3908,0 0.39738,0.286899 0.39738,0.860698 0.99343,0.765065 z"
     class="st0"
     inkscape:connector-curvature="0"
     style="fill:#ffffff;stroke:none;stroke-width:0.16352527;stroke-opacity:1" /><path
     id="path1195"
     d="m -76.559479,81.754694 c -0.198685,0.286898 -0.198685,0.765064 -0.596063,0.956331 -0.298021,0 -0.99343,0.191266 -0.894083,-0.2869 v -0.2869 c 0.397368,-0.191266 0.99343,-0.09563 1.490146,-0.382531 z m 7.550086,0.191265 c 0,0.2869 -0.298031,0.2869 -0.496715,0.2869 l -0.198684,-0.2869 c 0.09934,-0.191265 0.596062,-0.286899 0.695399,0 z m -54.142067,2.103929 c -0.1987,0 -0.39738,-0.286899 -0.1987,-0.478165 h 0.1987 z"
     inkscape:connector-curvature="0"
     style="fill:#000000;fill-opacity:1;stroke:none;stroke-width:0.16352527;stroke-opacity:1" /><path
     id="path1197"
     d="m -118.58168,85.29312 c -0.19868,0.191265 -0.79474,0.191265 -1.09278,0 -0.0993,-0.2869 -0.29803,-0.765066 -0.0993,-1.051965 l 0.49671,-0.2869 c 0.59605,0.09563 0.39737,0.956332 0.6954,1.338865 z"
     class="st0"
     inkscape:connector-curvature="0"
     style="fill:#ffffff;stroke:none;stroke-width:0.16352527;stroke-opacity:1" /><path
     id="path1199"
     d="m -123.44949,85.00622 v 0 c -0.49672,0.09563 -0.39738,-0.286899 -0.39738,-0.669432 0.39738,-0.09563 0.19868,0.382533 0.39738,0.669432 z"
     inkscape:connector-curvature="0"
     style="fill:#000000;fill-opacity:1;stroke:none;stroke-width:0.16352527;stroke-opacity:1" /><path
     id="path1201"
     d="m -116.49547,84.528054 c -0.0994,0.191267 -0.29803,0.669433 -0.6954,0.669433 -0.59606,-0.09563 0.29803,-0.573799 0,-0.956332 0.39737,0 0.6954,0 0.6954,0.286899 z"
     class="st0"
     inkscape:connector-curvature="0"
     style="fill:#ffffff;stroke:none;stroke-width:0.16352527;stroke-opacity:1" /><path
     id="path1203"
     d="m -132.09236,84.814954 c 0.19869,0.2869 -0.0993,0.382533 -0.39738,0.573799 0,0 -0.19868,0 -0.19868,-0.191266 0,-0.2869 0.19868,-0.478166 0.59606,-0.382533 z"
     inkscape:connector-curvature="0"
     style="fill:#000000;fill-opacity:1;stroke:none;stroke-width:0.16352527;stroke-opacity:1" /><path
     id="path1205"
     d="m -89.970819,85.771285 c 0.198687,0.191266 0.695404,0.09563 0.695404,0.382533 -0.89409,0.573799 -1.490149,2.008296 -2.880955,1.147597 -0.794747,0.09563 -1.490149,0.956332 -2.284895,0.191266 -0.198687,-0.09563 -0.496717,0.191267 -0.397373,0.382533 0,0.382533 0.993433,0.765066 0.496717,1.147598 -0.397374,0.191266 -0.794747,-0.191266 -0.89409,-0.669432 -0.198687,-0.860699 0.596059,-1.338864 0.89409,-2.103929 0.695402,-0.669432 1.688835,-1.051964 2.483581,-0.382533 0.298029,-0.09563 0.794746,-0.09563 0.695403,-0.573798 -0.09934,-0.191266 -0.695403,-0.765066 0,-0.956332 0.29803,0.478166 0.695402,0.956332 1.192118,1.434497 z M -117.4889,88.64028 c 0.0994,0.382532 -0.19868,0.765064 -0.49672,0.956331 -0.0993,-1.147598 -1.09277,-2.390829 -0.39737,-3.63406 1.29146,0.478166 0.19869,1.912663 0.89409,2.677729 z"
     class="st0"
     inkscape:connector-curvature="0"
     style="fill:#ffffff;stroke:none;stroke-width:0.16352527;stroke-opacity:1" /><path
     id="path1207"
     d="m -126.52914,87.970847 c -0.39737,0.09563 -0.99343,-0.09563 -1.09277,-0.573799 -0.0994,-0.669431 0.79475,-0.382532 1.09277,-0.286898 z m 4.27176,0.5738 -0.0993,0.382532 c -0.29803,0 -0.59606,-0.382532 -0.59606,-0.765065 l 0.19869,-0.382533 c 0.49671,-0.09563 0.49671,0.478166 0.49671,0.765066 z"
     inkscape:connector-curvature="0"
     style="fill:#000000;fill-opacity:1;stroke:none;stroke-width:0.16352527;stroke-opacity:1" /><path
     id="path1209"
     d="m -87.884614,89.022812 c 0.596062,0.765065 0.695409,2.008296 0.298031,2.773361 -0.496716,0.860698 -1.887519,0.09563 -2.185549,1.147598 -0.695403,0.286899 -1.390805,1.243231 -2.284895,1.051965 -0.596059,-1.434498 -2.185551,-2.582096 -2.284894,-4.399125 0.397372,-0.669432 0.993432,-1.721397 2.086208,-1.147598 0.397373,0 1.092776,0.765065 1.390806,0.09563 0.298029,-0.286899 0.496716,-0.860698 1.092775,-0.573799 0.496717,0.573799 1.192119,0.860699 1.887518,1.051964 z"
     class="st0"
     inkscape:connector-curvature="0"
     style="fill:#ffffff;stroke:none;stroke-width:0.16352527;stroke-opacity:1" /><path
     id="path1211"
     d="m -80.036497,87.875214 c 0,0.09563 -0.198684,0.191267 -0.397368,0.191267 -0.09935,-0.191267 0.198684,-0.191267 0.397368,-0.191267 z m 5.861257,1.147598 v 0 c -0.198684,0.191266 -0.596062,0.191266 -0.6954,0.09563 -0.298031,-0.09563 -0.09935,-0.382532 0.09934,-0.573799 0.198684,0.09564 0.596062,0.191267 0.596062,0.478165 z m -16.192951,0.765065 c 0,0.382533 -0.397373,0.669432 -0.89409,0.765066 -0.29803,0.09563 -0.397373,-0.2869 -0.596059,-0.478166 0.09934,-0.382533 0.695403,-0.5738 0.993433,-0.669433 0.397372,-0.191266 0.596059,0.191267 0.496716,0.382533 z m -30.597729,2.199563 c -0.29803,0.09563 -0.19868,-0.191267 -0.29803,-0.382533 l 0.1987,-0.382533 c 0.29802,0 0.19868,0.573799 0.0993,0.765066 z m -8.24548,0 z m 55.135507,-0.2869 h -0.09935 v -0.191266 c 0,0 0.298031,0 0.09935,0.191266 z m -6.556656,2.677727 c 0,0.2869 -0.198694,0.669433 -0.496715,0.669433 -0.198694,-0.09563 -0.596063,-0.191267 -0.596063,-0.382533 -0.09935,-0.669431 0.993431,-0.573798 1.092778,-0.2869 z"
     inkscape:connector-curvature="0"
     style="fill:#000000;fill-opacity:1;stroke:none;stroke-width:0.16352527;stroke-opacity:1" /><path
     id="path1213"
     d="m -130.70156,96.864729 c -0.39737,1.147598 1.39081,0.2869 1.29147,1.434497 0.49672,1.817034 -0.59606,2.868994 -1.29147,4.112234 -1.29146,-1.43451 -1.88751,-4.112234 -1.19211,-6.12053 0.29803,-0.382531 1.29146,-0.09563 1.19211,0.573799 z"
     class="st0"
     inkscape:connector-curvature="0"
     style="fill:#ffffff;stroke:none;stroke-width:0.16352527;stroke-opacity:1" /><path
     id="path1215"
     d="m -126.92651,96.57783 v 0 l 0.0993,0.191266 h -0.0993 z m 45.99593,1.051965 c 0.09934,0.669431 -0.496716,0.382532 -0.993431,0.478165 h -0.198694 c 0.09935,-0.2869 0.298031,-0.860698 0.496715,-0.956331 0.397379,0 0.69541,0.191266 0.69541,0.478166 z m -42.0222,0.669431 c -0.0994,0.191267 -0.29803,0.09564 -0.59606,0 0,-0.09563 -0.0994,-0.573798 0.19868,-0.573798 0.39738,0.09563 0.39738,0.382532 0.39738,0.573798 z m 5.46388,0.478166 c -0.0994,0.191267 -0.0994,0.765066 -0.39738,0.669433 -0.6954,-0.191267 0,-0.765066 0,-1.051965 0.39738,-0.191267 0.29803,0.286899 0.39738,0.382532 z m -7.3514,0.669433 -0.39737,-0.09563 0.19868,-0.2869 c 0.19869,-0.09563 0.29803,0.09563 0.19869,0.382534 z m 9.43761,-0.2869 c 0,0.2869 -0.39738,0.669432 -0.6954,0.2869 l -0.0994,-0.382533 c 0.19869,0 0.49672,-0.09563 0.79475,0.09563 z"
     inkscape:connector-curvature="0"
     style="fill:#000000;fill-opacity:1;stroke:none;stroke-width:0.16352527;stroke-opacity:1" /><path
     id="path1217"
     d="m -72.685094,102.69836 c 0.496715,-0.19127 0.298031,-0.86071 0.794746,-1.14761 0.894094,0.95634 0.596063,2.39084 0.298032,3.53844 -0.596063,1.1476 -1.390809,-0.19127 -1.986862,-0.47817 -0.596062,-1.14759 -1.986871,-2.00829 -1.589493,-3.4428 0.993431,0 1.092778,-1.721395 2.185546,-0.95633 0.695409,0.8607 -0.993431,2.0083 0.298031,2.48647 z"
     class="st0"
     inkscape:connector-curvature="0"
     style="fill:#ffffff;stroke:none;stroke-width:0.16352527;stroke-opacity:1" /><path
     id="path1219"
     d="m -81.824674,101.64639 h -0.695399 c 0,-0.2869 -0.198684,-0.76507 0.198684,-0.95633 0.496715,0 0.496715,0.66943 0.496715,0.95633 z m -37.551746,3.34716 c -0.19869,0.28691 -0.19869,0.8607 -0.89409,0.8607 -0.0994,0 -0.0994,-0.0956 -0.0994,-0.2869 0.6954,0.0956 0.39737,-0.76506 0.6954,-0.8607 0.1987,0.0956 0.29804,0.0956 0.29804,0.2869 z m 37.551746,0.47817 c -0.09934,0.0956 -0.09934,0.19126 -0.198684,0.19126 -0.09935,0 -0.198684,0 -0.198684,-0.0956 0,-0.19126 0.298031,-0.38253 0.397368,-0.0956 z m 3.675702,0.47817 c 0.09935,0.0956 0,0.0956 -0.09934,0.19126 -0.09935,0 -0.596062,-0.19126 -0.298031,-0.38253 0.09934,0.0956 0.397369,-0.0956 0.397369,0.19127 z m -4.07307,2.67772 c -0.198684,0.0956 -0.695409,0 -0.695409,-0.19127 0,-0.28689 0.397378,-0.38252 0.695409,-0.19126 z m -34.571458,3.63406 c -0.0993,0.28691 0,0.38254 -0.19869,0.76507 -0.29803,-0.0956 -0.29803,-0.66943 -0.19868,-0.8607 z m 37.253719,0.19127 h -0.298022 l 0.198685,-0.2869 c 0.198684,-0.0956 0.09934,0.19127 0.09934,0.2869 z"
     inkscape:connector-curvature="0"
     style="fill:#000000;fill-opacity:1;stroke:none;stroke-width:0.16352527;stroke-opacity:1" /><path
     id="path1221"
     d="m -113.51517,113.31364 c 0,0.19127 -0.0994,0.38253 -0.29803,0.38253 -0.0994,-0.0956 -0.29803,-0.47817 0,-0.76507 0.19868,0 0.39737,0.19127 0.29803,0.38254 z"
     class="st0"
     inkscape:connector-curvature="0"
     style="fill:#ffffff;stroke:none;stroke-width:0.16352527;stroke-opacity:1" /><path
     id="path1223"
     d="m -115.50204,117.13897 c -0.19868,0.0956 -0.39737,0.0956 -0.6954,0.0956 l -0.0994,-0.0956 0.69541,-0.57381 c 0,0.0956 0.19869,0.2869 0.0993,0.57381 z m 35.763575,-0.28691 c 0.198684,0.0956 -0.09934,0.0956 -0.198685,0.0956 v -0.19127 z m -35.167515,2.96463 c -0.19868,0.19126 -0.6954,0.0956 -0.99343,0.0956 -0.39738,-0.47817 0.39737,-0.76507 0.79475,-1.1476 0.49671,0.0956 0.49671,0.76506 0.19868,1.05196 z m 34.273431,4.49476 c 0,0.28689 -0.298031,0.66943 -0.695409,0.66943 -0.298032,0 -0.596053,-0.2869 -0.397369,-0.47816 0.298031,-0.38254 0.298031,-1.1476 0.09934,-1.4345 1.192125,-0.47816 0.397379,0.86069 0.993441,1.24323 z m -33.876051,-0.76506 c 0,0.19126 -0.0994,0.38252 -0.19869,0.57379 h -0.29803 c -0.0993,-0.38253 0.19869,-0.57379 0.49672,-0.57379 z m -0.59606,4.30349 -0.19869,0.0956 -0.29803,-0.2869 c 0.19869,0.0956 0.49672,-0.0956 0.49672,0.19127 z"
     inkscape:connector-curvature="0"
     style="fill:#000000;fill-opacity:1;stroke:none;stroke-width:0.16352527;stroke-opacity:1" /><path
     id="path1225"
     d="m -76.559479,129.0931 c -0.298032,0.19127 -0.397369,-0.19126 -0.794747,-0.38253 -0.198684,-0.2869 0.09935,-0.66943 0.397378,-0.86069 0.496716,0.2869 0.496716,0.86069 0.397369,1.24322 z"
     class="st0"
     inkscape:connector-curvature="0"
     style="fill:#ffffff;stroke:none;stroke-width:0.16352527;stroke-opacity:1" /><path
     id="path1227"
     d="m -80.036497,129.95381 c -0.198684,0 -0.397368,-0.0956 -0.596052,-0.2869 0.198684,-0.0956 0.198684,-0.28691 0.496715,-0.19127 z"
     inkscape:connector-curvature="0"
     style="fill:#000000;fill-opacity:1;stroke:none;stroke-width:0.16352527;stroke-opacity:1" /><path
     id="path1229"
     d="m -74.671955,131.29267 c -0.596063,1.62576 -2.38424,2.48646 -2.284893,4.30349 -0.09935,0.19126 -0.496715,0.5738 -0.794746,0.0956 -0.298031,-0.66943 -0.496716,-1.43449 -0.198694,-2.19956 0.794746,-0.66944 1.490156,-1.24323 1.68884,-2.19956 0.397368,-0.19127 0.198684,-0.8607 0.596062,-0.95633 0.596053,0.0956 0.794746,0.66943 0.993431,0.95633 z"
     class="st0"
     inkscape:connector-curvature="0"
     style="fill:#ffffff;stroke:none;stroke-width:0.16352527;stroke-opacity:1" /><path
     id="path1231"
     d="m 131.2,110 -0.1,0.1 v -0.2 z"
     class="st4"
     inkscape:connector-curvature="0"
     style="display:none;stroke-width:0.16352527" /><path
     id="path1233"
     d="m 97.2,114.3 -0.3,0.3 0.2,-1 c 0.4,-0.1 0.3,0.6 0.1,0.7 z m 47.2,2.2 c -0.1,0.7 0.9,0 1.2,0.3 0.3,0.2 0.3,0.5 0.2,0.8 -0.3,0.4 -0.8,0.3 -1.1,0.1 -0.2,-0.6 -0.3,-1.2 -1.1,-1 l -0.2,-1.1 c 0.5,0.1 0.9,0.5 1,0.9 z M 95,116.2 v 0 l 0.1,0.4 H 95 Z m 39.4,0.7 c -0.4,0.3 -0.6,-0.2 -0.7,-0.4 l 0.1,-0.4 c 0.6,-0.2 0.7,0.4 0.6,0.8 z m 4.3,4 c 0.4,0.1 0.9,-0.3 0.9,-0.8 0,-1.2 -1.2,-1.9 -1.1,-3 1,1 2.4,1.3 3.5,2.2 0.1,1.5 -2.2,1.7 -2.5,3.1 -1.2,-0.2 -2.2,2 -3.2,0.4 -0.6,-1 -0.6,-2.2 -0.9,-3.3 0.3,0 0.9,0.4 1,0.9 0,0.6 0.6,0.9 0.9,1.1 0.3,0.1 0.4,-0.2 0.4,-0.4 0,-1.8 -2.6,-2.6 -2.4,-4.5 1.9,1 1.8,3.3 3.4,4.3 z m -44.3,-3.7 c 0,0.9 0.6,1.9 0.7,2.6 -0.2,0.2 -0.7,0.3 -0.9,0 0.3,-1.1 -1.4,-0.6 -1,-1.8 0.6,-0.1 0.6,-0.8 1.2,-0.8 z m 47.3,0.2 c -0.2,0.3 -0.5,0.1 -0.8,0 -0.1,-0.3 -0.4,-0.5 -0.1,-0.8 z m -37,1 -0.2,0.1 c -0.4,-0.2 -0.3,-0.9 0,-1.1 0.6,0.1 0.2,0.7 0.2,1 z m -13.1,0.5 c 0.1,0.2 0,0.6 -0.3,0.7 -0.4,-0.1 -0.4,-0.8 -0.2,-1.1 0.3,-0.2 0.4,0.2 0.5,0.4 z m 35.4,1.2 c -0.2,0.2 -0.7,0.3 -0.5,0.7 0,0.3 0.7,1 -0.1,1 h -0.3 c 0,-0.9 -0.1,-1.9 0.5,-2.5 0.1,0.2 0.8,0.4 0.4,0.8 z m -32.6,0.7 c -0.1,0.6 -0.8,0.7 -1.3,0.5 l -0.2,-0.2 1.1,-0.8 z m 38.6,-0.4 c -0.1,0 -0.3,0.1 -0.3,-0.1 l 0.1,-0.4 c 0.2,0 0.2,0.3 0.2,0.5 z m -38.5,1.4 0.3,-0.5 v 0.5 z m 41.7,1.2 c 0.2,0.2 0.1,0.7 -0.1,0.8 -0.8,0.5 -1.8,0.4 -2.2,1.3 -2.3,-0.2 -3.9,1.5 -6.3,1.6 -0.5,0.2 -1.3,0 -2,0.5 -0.4,-0.8 -0.1,-1.9 0,-2.6 0,-0.7 -0.1,-1.3 0.1,-2 0.2,-0.4 0.8,-0.2 1,0 0.9,1 -1.2,2.3 0.6,2.9 0.3,-1.1 1.5,-1.7 1.5,-2.9 0.7,-0.1 1.1,-0.6 1.3,-1.1 0.1,0.1 0.4,0.2 0.4,0.4 -0.8,0.4 0.3,1.3 -0.4,1.9 0,0.3 0.1,0.5 0.3,0.8 0.8,0.1 0.5,-0.8 0.9,-1.1 0.1,-0.7 -0.3,-1 -0.6,-1.4 0.9,-0.6 2.1,-1 3.1,-0.5 0.8,0.8 1.7,0.9 2.4,1.4 z m -37.3,-0.9 c 0,0.3 -0.1,0.6 -0.4,0.7 -0.4,0.1 -0.4,-0.3 -0.6,-0.5 -0.1,-0.7 0.9,-0.7 1,-0.2 z m 3.9,0 c 0.1,0.2 -0.2,0.1 -0.2,0.3 -0.1,0 -0.2,-0.1 -0.3,-0.2 l 0.2,-0.6 c 0.1,0 0.3,0.2 0.3,0.5 z m 3.2,0.4 c 0.3,0 0.3,0.4 0.2,0.7 -1,0.3 -2.1,1 -3,0 -0.4,-0.7 0.4,-1 0.8,-1.4 1.2,-0.6 1,1.3 2,0.7 z"
     class="st5"
     inkscape:connector-curvature="0"
     style="display:none;fill:#ffffff;stroke-width:0.16352527" /></g></svg>