<svg width="500" height="540.705" viewBox="0 0 132.292 143.061" xmlns="http://www.w3.org/2000/svg">
    <defs>
        <clipPath clipPathUnits="userSpaceOnUse" id="a">
            <path d="M196.654 15.558h87.165v94.262h-87.165z"/>
        </clipPath>
        <clipPath clipPathUnits="userSpaceOnUse" id="b">
            <path d="M196.654 20.913h82.214v88.907h-82.214z"/>
        </clipPath>
        <clipPath clipPathUnits="userSpaceOnUse" id="c">
            <path d="M196.654 15.558h87.165v94.262h-87.165z"/>
        </clipPath>
        <clipPath clipPathUnits="userSpaceOnUse" id="d">
            <path d="M196.654 20.913h82.214v88.907h-82.214z"/>
        </clipPath>
        <clipPath clipPathUnits="userSpaceOnUse" id="e">
            <path d="M196.654 15.558h87.165v94.262h-87.165z"/>
        </clipPath>
    </defs>
    <g clip-path="url(#a)" transform="matrix(1.60911 0 0 -1.60911 -316.439 176.713)">
        <path d="M0 0c-6.044-.031-20.551 6.827-26.217 11.627-5.665 4.8-13.17 13.662-13.168 25.847.002 11.458 5.908 15.016 5.783 25.601-.126 10.585-6.767 13.539-6.767 13.539l3.323 6.277S-22.136 87.869 0 87.944c22.136.074 37.188-5.12 37.188-5.12l3.324-6.277s-6.642-2.954-6.767-13.539c-.126-10.585 5.781-14.143 5.782-25.601.002-12.185-7.503-21.047-13.167-25.847C20.694 6.76 6.044.031 0 0" style="fill:#fff;fill-opacity:1;fill-rule:nonzero;stroke:none" transform="translate(237.69 21.395)"/>
    </g>
    <g clip-path="url(#b)" transform="matrix(1.60911 0 0 -1.60911 -316.439 176.713)">
        <path d="M0 0c-6.044-.031-20.551 6.827-26.217 11.627-5.665 4.8-13.17 13.662-13.168 25.847.002 11.458 5.908 15.016 5.783 25.601-.126 10.585-6.767 13.539-6.767 13.539l3.323 6.277S-22.136 87.869 0 87.944c22.136.074 37.188-5.12 37.188-5.12l3.324-6.277s-6.642-2.954-6.767-13.539c-.126-10.585 5.781-14.143 5.782-25.601.002-12.185-7.503-21.047-13.167-25.847C20.694 6.76 6.044.031 0 0Z" style="fill:none;stroke:#000;stroke-width:.963;stroke-linecap:butt;stroke-linejoin:miter;stroke-miterlimit:4;stroke-dasharray:none;stroke-opacity:1" transform="translate(237.69 21.395)"/>
    </g>
    <g clip-path="url(#c)" transform="matrix(1.60911 0 0 -1.60911 -316.439 176.713)">
        <path d="m0 0 3.057-2.461S5.22 1.863 5.816 3.802c.596 1.939.618 4.423-.075 6.337-1.565 4.325-7.192 6.718-6.859 10.885.149 1.864.523 2.311.895 2.759.298-1.342.819-1.64 1.341-2.088.523-.447 2.76-.82 3.43-.745.671.074.82-.373.746-.746-.075-.372-1.864-.894-2.312-1.938 1.566.82 2.684.522 3.505.671.82.149 1.118 1.044 1.416 1.715.299.671-.12 1.919-.194 2.181 1.835 1.011 1.312 1.836 2.173 2.66.861.824 1.686.824 2.21.449.337.75.071 1.221-.637 1.574-.3.149-1.761.187-2.884-.488 1.011 1.2 1.91 2.51 1.985 3.859.075 1.349 1.274 1.462 2.435 1.986 0 .899-.974 1.048-1.611.936-.637-.112-3.221-2.959-4.345-3.559 0 0 .038 2.847.375 3.896s.861 3.072 2.247 3.184c-.525 1.012-2.211.188-2.585-.224-.374-.412-1.948-3.896-4.196-4.383.075 1.648-.329 2.902-.599 3.334-.412-2.136-4.159-2.36-5.619-5.657-.856-1.93.899-3.971 2.061-4.495-1.387-2.36-1.593-3.415-1.724-4.945-.375-4.347 7.423-9.791 7.118-13.751C3.775 3.762 0 0 0 0" style="fill:#f00000;fill-opacity:1;fill-rule:nonzero;stroke:none" transform="translate(257.647 64.44)"/>
        <path d="m0 0 3.057-2.461S5.22 1.863 5.816 3.802c.596 1.939.618 4.423-.075 6.337-1.565 4.325-7.192 6.718-6.859 10.885.149 1.864.523 2.311.895 2.759.298-1.342.819-1.64 1.341-2.088.523-.447 2.76-.82 3.43-.745.671.074.82-.373.746-.746-.075-.372-1.864-.894-2.312-1.938 1.566.82 2.684.522 3.505.671.82.149 1.118 1.044 1.416 1.715.299.671-.12 1.919-.194 2.181 1.835 1.011 1.312 1.836 2.173 2.66.861.824 1.686.824 2.21.449.337.75.071 1.221-.637 1.574-.3.149-1.761.187-2.884-.488 1.011 1.2 1.91 2.51 1.985 3.859.075 1.349 1.274 1.462 2.435 1.986 0 .899-.974 1.048-1.611.936-.637-.112-3.221-2.959-4.345-3.559 0 0 .038 2.847.375 3.896s.861 3.072 2.247 3.184c-.525 1.012-2.211.188-2.585-.224-.374-.412-1.948-3.896-4.196-4.383.075 1.648-.329 2.902-.599 3.334-.412-2.136-4.159-2.36-5.619-5.657-.856-1.93.899-3.971 2.061-4.495-1.387-2.36-1.593-3.415-1.724-4.945-.375-4.347 7.423-9.791 7.118-13.751C3.775 3.762 0 0 0 0Z" style="fill:none;stroke:#000;stroke-width:.562;stroke-linecap:butt;stroke-linejoin:miter;stroke-miterlimit:4;stroke-dasharray:none;stroke-opacity:1" transform="translate(257.647 64.44)"/>
        <path d="M0 0s-.709-2.297-2.204-2.519c.57 1.111.441 2.995.441 2.995l.834.451z" style="fill:#fcdb00;fill-opacity:1;fill-rule:nonzero;stroke:none" transform="translate(257.516 34.187)"/>
        <path d="M0 0s-.709-2.297-2.204-2.519c.57 1.111.441 2.995.441 2.995l.834.451z" style="fill:none;stroke:#000;stroke-width:.401;stroke-linecap:butt;stroke-linejoin:miter;stroke-miterlimit:4;stroke-dasharray:none;stroke-opacity:1" transform="translate(257.516 34.187)"/>
        <path d="M0 0s-1.681-1.803-1.179-3.287c.821 1.589 2.425 1.905 2.425 1.905l.004.992Z" style="fill:#fcdb00;fill-opacity:1;fill-rule:nonzero;stroke:none" transform="translate(251.546 34.846)"/>
        <path d="M0 0s-1.681-1.803-1.179-3.287c.821 1.589 2.425 1.905 2.425 1.905l.004.992Z" style="fill:none;stroke:#000;stroke-width:.401;stroke-linecap:butt;stroke-linejoin:miter;stroke-miterlimit:4;stroke-dasharray:none;stroke-opacity:1" transform="translate(251.546 34.846)"/>
        <path d="M0 0s-1.578.054-2.696-1.634c1.549.707 2.728.08 2.728.08l.578.667z" style="fill:#fcdb00;fill-opacity:1;fill-rule:nonzero;stroke:none" transform="translate(251.109 36.639)"/>
        <path d="M0 0s-1.578.054-2.696-1.634c1.549.707 2.728.08 2.728.08l.578.667z" style="fill:none;stroke:#000;stroke-width:.401;stroke-linecap:butt;stroke-linejoin:miter;stroke-miterlimit:4;stroke-dasharray:none;stroke-opacity:1" transform="translate(251.109 36.639)"/>
        <path d="M0 0s-2.034.233-2.887-.636c1.088.03 2.429-.607 2.429-.607l.72.388z" style="fill:#fcdb00;fill-opacity:1;fill-rule:nonzero;stroke:none" transform="translate(251.564 38.532)"/>
        <path d="M0 0s-2.034.233-2.887-.636c1.088.03 2.429-.607 2.429-.607l.72.388z" style="fill:none;stroke:#000;stroke-width:.401;stroke-linecap:butt;stroke-linejoin:miter;stroke-miterlimit:4;stroke-dasharray:none;stroke-opacity:1" transform="translate(251.564 38.532)"/>
        <path d="M0 0s-6.32 3.503-6.428 3.299C-6.534 3.095-.261-.942-.261-.942z" style="fill:#000;fill-opacity:1;fill-rule:nonzero;stroke:none" transform="translate(241.26 60.293)"/>
        <path d="M0 0s-6.32 3.503-6.428 3.299C-6.534 3.095-.261-.942-.261-.942z" style="fill:none;stroke:#000;stroke-width:.562;stroke-linecap:butt;stroke-linejoin:miter;stroke-miterlimit:4;stroke-dasharray:none;stroke-opacity:1" transform="translate(241.26 60.293)"/>
        <path d="M0 0c1.273.04 4.372-.452 5.597-.358 1.749.135 3.572.798 4.199 1.963.404-1.838.807-1.793 1.39-1.838 1.525-.045 2.724 2.286 3.857 2.556.941.224 1.883.09 2.601-.179a2.608 2.608 0 0 0 1.345-1.077c.104 1.166.14 2.173-.543 3.001-.269.326-1.385.677-2.103.811.763.717 1.031 1.48 1.345 2.422.314.942.711 1.308 1.345 1.48-.675.227-1.775.021-2.286-.224-.422-.203-2.886-1.653-3.408-2.063.907 2.349.44 3.546.314 3.946-.191.605-1.613 2.645-1.659 3.497-.494-.896-.807-1.39-.897-1.973-.09-.583.046-1.838-.045-2.69-.582 1.166-2.645 2.243-3.408 3.094-.246.285-.618.697-.806 1.39-.225-.761-.314-1.301-.225-1.794.089-.493 1.031-1.569.941-2.914-.089-1.346-1.031-2.287-.852-3.229.18-.941.764-1.345 1.256-1.48-.582-.403-1.809-1.215-3.2-1.26C2.104 2.994-.275 4.84-3.432 4.88-4.194 6.898-7.6 18.377-7.6 18.377l-14.574-.494s-4.19-4.118-5.74-6.098c-1.3-1.659-2.075-3.056-4.573-3.811-1.929-.583-1.48 1.48-2.063 1.435-.583-.045-.404-.314-.718-.494-.314-.179-.762.224-1.121-.045s.045-.583.314-.986c-.627 0-.851-.045-.942-.224-.09-.18.135-.404.091-.673-.046-.269-.27-.448-.225-.717.07-.428 1.328-.212 2.036-.627-.898-.196-1.588-.222-1.588-.401 0-.18.324-.453.388-.763.094-.451-.172-.708-.062-.965.152-.353.616-.07 1.064.155.449.224.72.603 1.031.807-.403-.942-.403-1.166-.224-1.435.18-.269.673.045 1.031 0 .359-.045.494-.269.853-.224.359.045.135 1.121.494 1.704.358.583 2.78 1.076 4.08 1.704 1.299.627 3.811 2.242 5.335 2.735 1.525.493 3.946.538 4.798.404-.627-1.211-.493-1.704-.403-2.646.09-.942.135-1.345.269-1.704.672.628.896.987 1.076 1.39.179.404.314.897.493 1.614.269-.851.583-1.524 1.39-2.018-.179.898.673 1.391.315 2.153.94-.269 2.104-.449 4.032-1.435s5.021-3.945 5.829-8.205c.808-4.261 1.3-5.917 1.883-7.98.583-2.063 2.152-3.184 2.736-5.426.582-2.242.897-3.408.807-4.529 1.075 1.345 1.972 1.614 2.376 3.363.538-1.21 1.48-1.614 2.063-1.972.485 1.151.193 2.331.762 3.81.175-.961.224-1.345.403-1.928.18-.582 1.57-2.734 1.525-3.63-.044-.897-.673-.808-1.121-.673-.448.135-1.076.763-1.48.718-.403-.045-.135-.269-.179-.628-.045-.359-.224-.403-.269-.538-.045-.135.418-.524.82-.675-.327-.062-.954.137-1.044-.043-.09-.179.236-.423.236-.647 0-.225-.191-.429-.101-.608.089-.18.447-.494.896-.359s1.09.353 1.39.449c-.124-.309-1.389-.601-1.345-.874.037-.238.297-.262.449-.427.24-.262.09-.377.315-.601.046-.046.78-.461 1.792 1.184.359.583.985.449 1.3.494-.358-.718-.224-.494.09-.718.314-.224.584.09.897.045.313-.045.404-.404.762-.449.358-.044.314 1.076.449 1.48.134.404.223 1.3-.047 1.794.628.269 1.569.314 2.018.179.045 1.076-1.57.934-1.614 1.883.717 0 .851.852 1.614.628.269.807-1.211.762-1.39 1.659.673.224.896.897 1.569.942-.089.717-1.793.044-1.838 1.076.807.18 1.076.538 1.435 1.121 0 0-1.165-.493-1.615.494 1.211.313 1.301 1.21 1.884 1.389.583.18 1.076.269 1.524.09-.18.807-2.105 1.201-4.8.575.401.438 1.203 3.146 3.973 4.45-1.794.672-3.029.266-3.746-.092-1.794-1.167-1.694-3.565-3.479-3.633-1.828-.069-2.902 2.847-3.7 5.199C2.874-2.869.348-.473 0 0" style="fill:#f00000;fill-opacity:1;fill-rule:nonzero;stroke:none" transform="translate(246.484 58.233)"/>
        <path d="M0 0c1.273.04 4.372-.452 5.597-.358 1.749.135 3.572.798 4.199 1.963.404-1.838.807-1.793 1.39-1.838 1.525-.045 2.724 2.286 3.857 2.556.941.224 1.883.09 2.601-.179a2.608 2.608 0 0 0 1.345-1.077c.104 1.166.14 2.173-.543 3.001-.269.326-1.385.677-2.103.811.763.717 1.031 1.48 1.345 2.422.314.942.711 1.308 1.345 1.48-.675.227-1.775.021-2.286-.224-.422-.203-2.886-1.653-3.408-2.063.907 2.349.44 3.546.314 3.946-.191.605-1.613 2.645-1.659 3.497-.494-.896-.807-1.39-.897-1.973-.09-.583.046-1.838-.045-2.69-.582 1.166-2.645 2.243-3.408 3.094-.246.285-.618.697-.806 1.39-.225-.761-.314-1.301-.225-1.794.089-.493 1.031-1.569.941-2.914-.089-1.346-1.031-2.287-.852-3.229.18-.941.764-1.345 1.256-1.48-.582-.403-1.809-1.215-3.2-1.26C2.104 2.994-.275 4.84-3.432 4.88-4.194 6.898-7.6 18.377-7.6 18.377l-14.574-.494s-4.19-4.118-5.74-6.098c-1.3-1.659-2.075-3.056-4.573-3.811-1.929-.583-1.48 1.48-2.063 1.435-.583-.045-.404-.314-.718-.494-.314-.179-.762.224-1.121-.045s.045-.583.314-.986c-.627 0-.851-.045-.942-.224-.09-.18.135-.404.091-.673-.046-.269-.27-.448-.225-.717.07-.428 1.328-.212 2.036-.627-.898-.196-1.588-.222-1.588-.401 0-.18.324-.453.388-.763.094-.451-.172-.708-.062-.965.152-.353.616-.07 1.064.155.449.224.72.603 1.031.807-.403-.942-.403-1.166-.224-1.435.18-.269.673.045 1.031 0 .359-.045.494-.269.853-.224.359.045.135 1.121.494 1.704.358.583 2.78 1.076 4.08 1.704 1.299.627 3.811 2.242 5.335 2.735 1.525.493 3.946.538 4.798.404-.627-1.211-.493-1.704-.403-2.646.09-.942.135-1.345.269-1.704.672.628.896.987 1.076 1.39.179.404.314.897.493 1.614.269-.851.583-1.524 1.39-2.018-.179.898.673 1.391.315 2.153.94-.269 2.104-.449 4.032-1.435s5.021-3.945 5.829-8.205c.808-4.261 1.3-5.917 1.883-7.98.583-2.063 2.152-3.184 2.736-5.426.582-2.242.897-3.408.807-4.529 1.075 1.345 1.972 1.614 2.376 3.363.538-1.21 1.48-1.614 2.063-1.972.485 1.151.193 2.331.762 3.81.175-.961.224-1.345.403-1.928.18-.582 1.57-2.734 1.525-3.63-.044-.897-.673-.808-1.121-.673-.448.135-1.076.763-1.48.718-.403-.045-.135-.269-.179-.628-.045-.359-.224-.403-.269-.538-.045-.135.418-.524.82-.675-.327-.062-.954.137-1.044-.043-.09-.179.236-.423.236-.647 0-.225-.191-.429-.101-.608.089-.18.447-.494.896-.359s1.09.353 1.39.449c-.124-.309-1.389-.601-1.345-.874.037-.238.297-.262.449-.427.24-.262.09-.377.315-.601.046-.046.78-.461 1.792 1.184.359.583.985.449 1.3.494-.358-.718-.224-.494.09-.718.314-.224.584.09.897.045.313-.045.404-.404.762-.449.358-.044.314 1.076.449 1.48.134.404.223 1.3-.047 1.794.628.269 1.569.314 2.018.179.045 1.076-1.57.934-1.614 1.883.717 0 .851.852 1.614.628.269.807-1.211.762-1.39 1.659.673.224.896.897 1.569.942-.089.717-1.793.044-1.838 1.076.807.18 1.076.538 1.435 1.121 0 0-1.165-.493-1.615.494 1.211.313 1.301 1.21 1.884 1.389.583.18 1.076.269 1.524.09-.18.807-2.105 1.201-4.8.575.401.438 1.203 3.146 3.973 4.45-1.794.672-3.029.266-3.746-.092-1.794-1.167-1.694-3.565-3.479-3.633-1.828-.069-2.902 2.847-3.7 5.199C2.874-2.869.348-.473 0 0Z" style="fill:none;stroke:#000;stroke-width:.562;stroke-linecap:butt;stroke-linejoin:miter;stroke-miterlimit:4;stroke-dasharray:none;stroke-opacity:1" transform="translate(246.484 58.233)"/>
        <path d="M0 0s-3.792-2.316-3.754-2.522c.076-.419 1.114-.235 1.114-.235l-.469-1.114 1.173-3.285 3.461 1.291 2.404-3.461-4.921-1.049 2.009-1.148-1.327-1.363c.821-.703 2.949-.311 2.949-.311-.293-.939-3.226-1.466-5.337-1.349-.879.048-2.111.411-3.285-.117-1.173-.528-2.828-3.425-6.719-3.25-.763-1.173.912-1.736 1.264-2.088-4.751.704-3.247-5.723-9.326-10.499 2.288-.293 4.576 2.111 5.221 3.402.176-.352.41-1.584.351-1.877.704.763.704 2.405 2.112 3.05-.528-1.114-.646-3.167-1.819-4.223.764-1.232 2.522 3.108 4.458 3.46-.586-1.173-.117-1.818 0-2.052.411 1.349 1.408 1.759 1.819 1.876-.821-.938-1.525-3.226-1.467-4.34 1.115.587 2.053 1.936 2.581 2.992.059-.939.352-1.878.411-2.053.879.762 1.231 1.818 1.818 2.58.176-1.525.529-2.873 2.757-3.577-.176 2.287 1.994 3.46 2.874 4.105-.177-1.877 0-2.639.88-3.46 1.29 1.407 1.758 2.581 1.935 3.402.822-.47.586-1.584.586-1.584 1.057.821 1.232 1.994 1.232 3.461.705-1.173 3.237-1.067 5.103-2.933-.352 1.936-2.464 2.287-2.346 4.047.118 1.76.41 1.995.645 2.464.88-1.702 1.525-1.584 2.347-1.76-.939 2.17.469 3.929.469 5.748 1.7-.997 2.873-.352 3.577.234.705.587 1.29 2.17 2.229 2.288-.939.704-3.695-.704-4.985-.117 0 1.877-.06 3.225-.176 4.164 1.349-.997 1.994.645 2.228 1.232.587.293.645.469 1.173.586-.175.763-1.936 1.467-3.46 1.467a49.334 49.334 0 0 0-.704 1.994c1.025 0 1.236 1.048 1.556 1.846.644.293.904.449 1.432.567-1.375 1.203-2.77.596-4.4-1 .401 1.7 1.201 2.366 2.534 2.633 0 0-.467 1.733-2.133 1.2-.937-.3-1.1-1.267-1.9-2.267 0 .867.005 1.167-.054 2.046-.059.88-.847 1.133-.847 1.133z" style="fill:#f00000;fill-opacity:1;fill-rule:nonzero;stroke:none" transform="translate(233.43 101.097)"/>
        <path d="M0 0s-3.792-2.316-3.754-2.522c.076-.419 1.114-.235 1.114-.235l-.469-1.114 1.173-3.285 3.461 1.291 2.404-3.461-4.921-1.049 2.009-1.148-1.327-1.363c.821-.703 2.949-.311 2.949-.311-.293-.939-3.226-1.466-5.337-1.349-.879.048-2.111.411-3.285-.117-1.173-.528-2.828-3.425-6.719-3.25-.763-1.173.912-1.736 1.264-2.088-4.751.704-3.247-5.723-9.326-10.499 2.288-.293 4.576 2.111 5.221 3.402.176-.352.41-1.584.351-1.877.704.763.704 2.405 2.112 3.05-.528-1.114-.646-3.167-1.819-4.223.764-1.232 2.522 3.108 4.458 3.46-.586-1.173-.117-1.818 0-2.052.411 1.349 1.408 1.759 1.819 1.876-.821-.938-1.525-3.226-1.467-4.34 1.115.587 2.053 1.936 2.581 2.992.059-.939.352-1.878.411-2.053.879.762 1.231 1.818 1.818 2.58.176-1.525.529-2.873 2.757-3.577-.176 2.287 1.994 3.46 2.874 4.105-.177-1.877 0-2.639.88-3.46 1.29 1.407 1.758 2.581 1.935 3.402.822-.47.586-1.584.586-1.584 1.057.821 1.232 1.994 1.232 3.461.705-1.173 3.237-1.067 5.103-2.933-.352 1.936-2.464 2.287-2.346 4.047.118 1.76.41 1.995.645 2.464.88-1.702 1.525-1.584 2.347-1.76-.939 2.17.469 3.929.469 5.748 1.7-.997 2.873-.352 3.577.234.705.587 1.29 2.17 2.229 2.288-.939.704-3.695-.704-4.985-.117 0 1.877-.06 3.225-.176 4.164 1.349-.997 1.994.645 2.228 1.232.587.293.645.469 1.173.586-.175.763-1.936 1.467-3.46 1.467a49.334 49.334 0 0 0-.704 1.994c1.025 0 1.236 1.048 1.556 1.846.644.293.904.449 1.432.567-1.375 1.203-2.77.596-4.4-1 .401 1.7 1.201 2.366 2.534 2.633 0 0-.467 1.733-2.133 1.2-.937-.3-1.1-1.267-1.9-2.267 0 .867.005 1.167-.054 2.046-.059.88-.847 1.133-.847 1.133zm2.639-13.197c.586-.762.938-2.17.704-2.874.646-.117 1.174 1.525 1.408 1.877l.645-1.232c.821.059.704 1.877.645 2.463.822-.058 1.525-1.114 1.994-1.583.411.997-.235 2.815-.938 3.578.762.293 1.642-.762 1.818-1.29.645.528.293 2.58.293 2.58" style="fill:none;stroke:#000;stroke-width:.562;stroke-linecap:butt;stroke-linejoin:miter;stroke-miterlimit:4;stroke-dasharray:none;stroke-opacity:1" transform="translate(233.43 101.097)"/>
        <path d="m0 0-.826.989 1.025.713-.462-.674.489-.15.313.012Z" style="fill:#000;fill-opacity:1;fill-rule:nonzero;stroke:none" transform="translate(230.317 97.554)"/>
        <path d="m0 0-.826.989 1.025.713-.462-.674.489-.15.313.012Z" style="fill:none;stroke:#000;stroke-width:.562;stroke-linecap:butt;stroke-linejoin:miter;stroke-miterlimit:4;stroke-dasharray:none;stroke-opacity:1" transform="translate(230.317 97.554)"/>
        <path d="M0 0s2.206.125 2.958-.827C1.818-.426.953-.376.953-.376s.476-.677.576-1.229C1.178-1.855.6-1.816.414-1.793.476-1.479.439-.301 0 0" style="fill:#000;fill-opacity:1;fill-rule:nonzero;stroke:none" transform="translate(234.478 99.984)"/>
        <path d="M0 0s2.206.125 2.958-.827C1.818-.426.953-.376.953-.376s.476-.677.576-1.229C1.178-1.855.6-1.816.414-1.793.476-1.479.439-.301 0 0Z" style="fill:none;stroke:#000;stroke-width:.241;stroke-linecap:butt;stroke-linejoin:miter;stroke-miterlimit:4;stroke-dasharray:none;stroke-opacity:1" transform="translate(234.478 99.984)"/>
        <path d="M0 0s.008 1.267-.005 1.277c.282.028.605.098.961.484.671.99.741 1.725 1.135 2.02.38.324.647.296 1.196.592-.282.63-1.156.824-1.678.65-.065.957-.805 1.501-.805 1.501s-.851-.519-.913-1.305c-.261.087-1.109.241-1.5-.129.261-.218.913-.85.891-1.524-.022-.674-.821-1.219-1.587-1.218-.501.002-.957.152-1.022.849-.065.696.55.753 1 .978-.109.348-.456.957-1.391.913 0 1.066-.827 1.653-.827 1.653s-.822-.573-.822-1.639c-.935.044-1.282-.565-1.391-.913.449-.225 1.064-.282.999-.978-.065-.696-.521-.847-1.021-.848-.766-.002-1.566.543-1.588 1.217-.021.674.631 1.307.892 1.524-.391.37-1.239.216-1.5.129-.062.786-.914 1.305-.914 1.305s-.74-.544-.805-1.501c-.521.174-1.395-.02-1.678-.65.549-.296.817-.268 1.197-.591.394-.296.463-1.031 1.134-2.021.357-.385.68-.456.961-.484-.012-.01-.004-1.289-.004-1.289z" style="fill:#fcdb00;fill-opacity:1;fill-rule:nonzero;stroke:none" transform="translate(241.58 100.619)"/>
        <path d="M0 0s.008 1.267-.005 1.277c.282.028.605.098.961.484.671.99.741 1.725 1.135 2.02.38.324.647.296 1.196.592-.282.63-1.156.824-1.678.65-.065.957-.805 1.501-.805 1.501s-.851-.519-.913-1.305c-.261.087-1.109.241-1.5-.129.261-.218.913-.85.891-1.524-.022-.674-.821-1.219-1.587-1.218-.501.002-.957.152-1.022.849-.065.696.55.753 1 .978-.109.348-.456.957-1.391.913 0 1.066-.827 1.653-.827 1.653s-.822-.573-.822-1.639c-.935.044-1.282-.565-1.391-.913.449-.225 1.064-.282.999-.978-.065-.696-.521-.847-1.021-.848-.766-.002-1.566.543-1.588 1.217-.021.674.631 1.307.892 1.524-.391.37-1.239.216-1.5.129-.062.786-.914 1.305-.914 1.305s-.74-.544-.805-1.501c-.521.174-1.395-.02-1.678-.65.549-.296.817-.268 1.197-.591.394-.296.463-1.031 1.134-2.021.357-.385.68-.456.961-.484-.012-.01-.004-1.289-.004-1.289zm-9.085 1.281h9.076" style="fill:none;stroke:#000;stroke-width:.562;stroke-linecap:butt;stroke-linejoin:miter;stroke-miterlimit:4;stroke-dasharray:none;stroke-opacity:1" transform="translate(241.58 100.619)"/>
        <path d="M0 0c.448-.22 2.959-2.906 2.959-2.906L2.772-3.4S1.586-2.661 0 0" style="fill:#000;fill-opacity:1;fill-rule:nonzero;stroke:none" transform="translate(219.95 88.29)"/>
        <path d="M0 0c.448-.22 2.959-2.906 2.959-2.906L2.772-3.4S1.586-2.661 0 0z" style="fill:none;stroke:#000;stroke-width:.16;stroke-linecap:butt;stroke-linejoin:miter;stroke-miterlimit:4;stroke-dasharray:none;stroke-opacity:1" transform="translate(219.95 88.29)"/>
        <path d="M0 0s-2.55-.49-3.569.801C-2.213.826-.506 1.894-.506 1.894l.877-.556Z" style="fill:#fcdb00;fill-opacity:1;fill-rule:nonzero;stroke:none" transform="translate(213.384 92.16)"/>
        <path d="M0 0s-2.55-.49-3.569.801C-2.213.826-.506 1.894-.506 1.894l.877-.556Z" style="fill:none;stroke:#000;stroke-width:.401;stroke-linecap:butt;stroke-linejoin:miter;stroke-miterlimit:4;stroke-dasharray:none;stroke-opacity:1" transform="translate(213.384 92.16)"/>
        <path d="M0 0s-2.763.402-3.852-.964C-1.832-.722-.53-1.967-.53-1.967l.944.605z" style="fill:#fcdb00;fill-opacity:1;fill-rule:nonzero;stroke:none" transform="translate(211.126 97.76)"/>
        <path d="M0 0s-2.763.402-3.852-.964C-1.832-.722-.53-1.967-.53-1.967l.944.605z" style="fill:none;stroke:#000;stroke-width:.401;stroke-linecap:butt;stroke-linejoin:miter;stroke-miterlimit:4;stroke-dasharray:none;stroke-opacity:1" transform="translate(211.126 97.76)"/>
        <path d="M0 0s.743 2.084-.199 3.125C-.397 1.985-1.514.695-1.514.695l.348-.819z" style="fill:#fcdb00;fill-opacity:1;fill-rule:nonzero;stroke:none" transform="translate(217.257 99.964)"/>
        <path d="M0 0s.743 2.084-.199 3.125C-.397 1.985-1.514.695-1.514.695l.348-.819z" style="fill:none;stroke:#000;stroke-width:.401;stroke-linecap:butt;stroke-linejoin:miter;stroke-miterlimit:4;stroke-dasharray:none;stroke-opacity:1" transform="translate(217.257 99.964)"/>
        <path d="M0 0c.812-.382 3.682 2.008 4.256 2.869 0 0-.814 1.912-2.439 3.012C.335 6.886-1.912 7.986-3.729 9.898c-1.818 1.913-3.205 3.491-3.252 4.16-.048.67 1.243 2.104 1.1 2.63-.144.526-.479.192-.814.287-.334.096-.525.717-.764.526-.239-.191-.121-.999-.736-2.163-.361 1.204-.364 2.116-.89 2.355-.526.239-.479-.335-1.004-.574-.526-.24-1.053 0-1.292-.479-.239-.478.43-1.625 1.244-2.39-.882.164-1.722.717-2.009.573-.393-.197-.163-.965-.212-1.252-.047-.287-.601-.602-.505-.947.117-.417 2.296-.144 3.204-1.052-.458-.231-.576-.274-.749-.551-.286-.459.291-.48.436-.988.116-.407-.104-.528.087-.959.191-.43 1.103.348 1.919.174 2.156-.46 3.808-4.937 4.845-6.493C-2.547 1.894-1.214.572 0 0" style="fill:#f00000;fill-opacity:1;fill-rule:nonzero;stroke:none" transform="translate(223.125 83.123)"/>
        <path d="M0 0c.812-.382 3.682 2.008 4.256 2.869 0 0-.814 1.912-2.439 3.012C.335 6.886-1.912 7.986-3.729 9.898c-1.818 1.913-3.205 3.491-3.252 4.16-.048.67 1.243 2.104 1.1 2.63-.144.526-.479.192-.814.287-.334.096-.525.717-.764.526-.239-.191-.121-.999-.736-2.163-.361 1.204-.364 2.116-.89 2.355-.526.239-.479-.335-1.004-.574-.526-.24-1.053 0-1.292-.479-.239-.478.43-1.625 1.244-2.39-.882.164-1.722.717-2.009.573-.393-.197-.163-.965-.212-1.252-.047-.287-.601-.602-.505-.947.117-.417 2.296-.144 3.204-1.052-.458-.231-.576-.274-.749-.551-.286-.459.291-.48.436-.988.116-.407-.104-.528.087-.959.191-.43 1.103.348 1.919.174 2.156-.46 3.808-4.937 4.845-6.493C-2.547 1.894-1.214.572 0 0Z" style="fill:none;stroke:#000;stroke-width:.562;stroke-linecap:butt;stroke-linejoin:miter;stroke-miterlimit:4;stroke-dasharray:none;stroke-opacity:1" transform="translate(223.125 83.123)"/>
        <path d="M0 0s-.646 1.831-3.125 1.928C-1.6.658-1.806-1.119-1.806-1.119l1.04-.193z" style="fill:#fcdb00;fill-opacity:1;fill-rule:nonzero;stroke:none" transform="translate(213.739 100.953)"/>
        <path d="M0 0s-.646 1.831-3.125 1.928C-1.6.658-1.806-1.119-1.806-1.119l1.04-.193z" style="fill:none;stroke:#000;stroke-width:.401;stroke-linecap:butt;stroke-linejoin:miter;stroke-miterlimit:4;stroke-dasharray:none;stroke-opacity:1" transform="translate(213.739 100.953)"/>
        <path d="M0 0s-.954.735-3.179.933c-2.225.198-3.432.014-4.916.409-1.484.396-1.944 1.912-2.686 1.912-1.06 0-1.082-.535-1.001-1.183.049-.396.983-1.816 2.094-2.14 1.093-.318 2.822.046 4.187-.09.989-.099 2.83-.236 3.572-.533C-1.187-.989 0-1.236 0-1.236Z" style="fill:#f00000;fill-opacity:1;fill-rule:nonzero;stroke:none" transform="translate(238.312 91.893)"/>
        <path d="M0 0s-.954.735-3.179.933c-2.225.198-3.432.014-4.916.409-1.484.396-1.944 1.912-2.686 1.912-1.06 0-1.082-.535-1.001-1.183.049-.396.983-1.816 2.094-2.14 1.093-.318 2.822.046 4.187-.09.989-.099 2.83-.236 3.572-.533C-1.187-.989 0-1.236 0-1.236Z" style="fill:none;stroke:#000;stroke-width:.401;stroke-linecap:butt;stroke-linejoin:miter;stroke-miterlimit:4;stroke-dasharray:none;stroke-opacity:1" transform="translate(238.312 91.893)"/>
        <path d="M0 0c3.901.977 6.735-.472 9.422-4.289 2.355-3.346 5.439-10.189 5.439-10.189S7.89-11.643 4.289-10.112c-3.014 1.284-9.598 5.81-9.598 5.81S-3.018-.755 0 0" style="fill:#094;fill-opacity:1;fill-rule:nonzero;stroke:none" transform="translate(217.368 36.818)"/>
        <path d="M0 0c3.901.977 6.735-.472 9.422-4.289 2.355-3.346 5.439-10.189 5.439-10.189S7.89-11.643 4.289-10.112c-3.014 1.284-9.598 5.81-9.598 5.81S-3.018-.755 0 0z" style="fill:none;stroke:#000;stroke-width:.562;stroke-linecap:butt;stroke-linejoin:miter;stroke-miterlimit:4;stroke-dasharray:none;stroke-opacity:1" transform="translate(217.368 36.818)"/>
        <path d="M0 0c1.969.029 5.111.871 5.111.871s3.676 5.957 3.676 11.098c0 5.141-3.753 9.48-8.886 9.467-5.132-.013-8.886-4.325-8.886-9.218 0-4.892 3.601-11.181 3.601-11.181S-1.97-.029 0 0" style="fill:#094;fill-opacity:1;fill-rule:nonzero;stroke:none" transform="translate(237.69 21.395)"/>
    </g>
    <g clip-path="url(#d)" transform="matrix(1.60911 0 0 -1.60911 -316.439 176.713)">
        <path d="M0 0c1.969.029 5.111.871 5.111.871s3.676 5.957 3.676 11.098c0 5.141-3.753 9.48-8.886 9.467-5.132-.013-8.886-4.325-8.886-9.218 0-4.892 3.601-11.181 3.601-11.181S-1.97-.029 0 0z" style="fill:none;stroke:#000;stroke-width:.562;stroke-linecap:butt;stroke-linejoin:miter;stroke-miterlimit:4;stroke-dasharray:none;stroke-opacity:1" transform="translate(237.69 21.395)"/>
    </g>
    <g clip-path="url(#e)" transform="matrix(1.60911 0 0 -1.60911 -316.439 176.713)">
        <path d="M0 0c-3.901.976-6.735-.472-9.422-4.29-2.355-3.346-5.439-10.188-5.439-10.188s6.971 2.834 10.571 4.366c3.015 1.284 9.599 5.81 9.599 5.81S3.018-.756 0 0" style="fill:#094;fill-opacity:1;fill-rule:nonzero;stroke:none" transform="translate(257.935 36.721)"/>
        <path d="M0 0c-3.901.976-6.735-.472-9.422-4.29-2.355-3.346-5.439-10.188-5.439-10.188s6.971 2.834 10.571 4.366c3.015 1.284 9.599 5.81 9.599 5.81S3.018-.756 0 0z" style="fill:none;stroke:#000;stroke-width:.562;stroke-linecap:butt;stroke-linejoin:miter;stroke-miterlimit:4;stroke-dasharray:none;stroke-opacity:1" transform="translate(257.935 36.721)"/>
        <path d="M0 0s-1.814-1.5-3.373-1.273C-2.276-.606-1.477.809-1.477.809l1.03.113z" style="fill:#fcdb00;fill-opacity:1;fill-rule:nonzero;stroke:none" transform="translate(224.86 39.209)"/>
        <path d="M0 0s-1.814-1.5-3.373-1.273C-2.276-.606-1.477.809-1.477.809l1.03.113z" style="fill:none;stroke:#000;stroke-width:.401;stroke-linecap:butt;stroke-linejoin:miter;stroke-miterlimit:4;stroke-dasharray:none;stroke-opacity:1" transform="translate(224.86 39.209)"/>
        <path d="M0 0s-2.422-1.097-2.691-2.698c1.53 1.214 3.147.921 3.147.921l.493.945z" style="fill:#fcdb00;fill-opacity:1;fill-rule:nonzero;stroke:none" transform="translate(220.373 41.768)"/>
        <path d="M0 0s-2.422-1.097-2.691-2.698c1.53 1.214 3.147.921 3.147.921l.493.945z" style="fill:none;stroke:#000;stroke-width:.401;stroke-linecap:butt;stroke-linejoin:miter;stroke-miterlimit:4;stroke-dasharray:none;stroke-opacity:1" transform="translate(220.373 41.768)"/>
        <path d="M0 0s-1.603.337-3.133-1.106c1.748.41 2.81-.416 2.81-.416l.745.545z" style="fill:#fcdb00;fill-opacity:1;fill-rule:nonzero;stroke:none" transform="translate(219.759 43.906)"/>
        <path d="M0 0s-1.603.337-3.133-1.106c1.748.41 2.81-.416 2.81-.416l.745.545z" style="fill:none;stroke:#000;stroke-width:.401;stroke-linecap:butt;stroke-linejoin:miter;stroke-miterlimit:4;stroke-dasharray:none;stroke-opacity:1" transform="translate(219.759 43.906)"/>
        <path d="M0 0s-1.76 1.403-3.073.847c1.032-.568 1.904-2.065 1.904-2.065l.903.062z" style="fill:#fcdb00;fill-opacity:1;fill-rule:nonzero;stroke:none" transform="translate(220.666 46.193)"/>
        <path d="M0 0s-1.76 1.403-3.073.847c1.032-.568 1.904-2.065 1.904-2.065l.903.062z" style="fill:none;stroke:#000;stroke-width:.401;stroke-linecap:butt;stroke-linejoin:miter;stroke-miterlimit:4;stroke-dasharray:none;stroke-opacity:1" transform="translate(220.666 46.193)"/>
        <path d="M0 0s-1.348 3.644-3.793 5.291c-1.847-1.148-2.197-2.146-6.34-2.396S-17.271.649-18.968.649c0 0-1.597.499-1.597 2.196-2.047-1.397-.749-3.544-.749-3.544s-3.145-.2-3.794-3.594c1.747.649 3.495 1.398 4.642 1.198-.25-1.397-.549-2.496-2.246-4.043 1.897.149 3.245.648 4.093 1.098.849.449 1.649 2.496 1.698 2.696.049.199.548-2.446.798-2.795.106-.149 1.522-1.406 3.495-1.997-2.147-.749-3.644-4.992-4.693-5.591-1.048-.599-1.448-.349-1.797-.15-.349.2-.949 1.597-1.248 1.597-.299 0-.448-.349-.549-.699-.1-.349-.649-.348-.649-.648 0-.3.949-.749 1.498-1.398-.748.05-1.348.549-1.498.299-.031-.049.1-.381.05-.648-.068-.365-.31-.693-.25-.799.2-.35.849-.35 1.349-.35-.6-.349-.65-.399-.65-.648 0-.25.249-.35.349-.549.101-.2.1-.5.2-.799.101-.299 1.298 0 1.747.3.45.299.749.299 1.198.499-.449-.699-.499-.65-.349-.899.15-.25.5-.25.649-.399.15-.15.3-.599.649-.799.35-.2.848.699 1.098 1.348.25.649 1.448.649 1.947.399 0 .3 0 .5.25.649.249.15.899-.3 1.447-.25-.399.849.8 1.648 1.897 1.348 1.098-.3.649-.249 1.198-.499-.05.4-.4 1.199-.45 1.398 1.049-.649 1.748-.2 2.796-.599-.299.998-2.396 1.197-2.196 2.096 2.595-1.198 3.095.05 4.941-.199-.548 2.246-2.446.648-3.544 1.447.599.35 1.896.999 2.146 1.547 0 0 .85 1.299 2.496.999-.349.599-1.497.849-2.445.699-.949-.15-1.998-1.199-2.996-.599-.998.599-.948 1.448-.748 2.146.37 1.293 2.396 2.346 3.693 3.644 1.099 1.198 1.897 3.045 2.447 3.544C-2.096-.2 0 0 0 0" style="fill:#f00000;fill-opacity:1;fill-rule:nonzero;stroke:none" transform="translate(240.985 58.626)"/>
        <path d="M0 0s-1.348 3.644-3.793 5.291c-1.847-1.148-2.197-2.146-6.34-2.396S-17.271.649-18.968.649c0 0-1.597.499-1.597 2.196-2.047-1.397-.749-3.544-.749-3.544s-3.145-.2-3.794-3.594c1.747.649 3.495 1.398 4.642 1.198-.25-1.397-.549-2.496-2.246-4.043 1.897.149 3.245.648 4.093 1.098.849.449 1.649 2.496 1.698 2.696.049.199.548-2.446.798-2.795.106-.149 1.522-1.406 3.495-1.997-2.147-.749-3.644-4.992-4.693-5.591-1.048-.599-1.448-.349-1.797-.15-.349.2-.949 1.597-1.248 1.597-.299 0-.448-.349-.549-.699-.1-.349-.649-.348-.649-.648 0-.3.949-.749 1.498-1.398-.748.05-1.348.549-1.498.299-.031-.049.1-.381.05-.648-.068-.365-.31-.693-.25-.799.2-.35.849-.35 1.349-.35-.6-.349-.65-.399-.65-.648 0-.25.249-.35.349-.549.101-.2.1-.5.2-.799.101-.299 1.298 0 1.747.3.45.299.749.299 1.198.499-.449-.699-.499-.65-.349-.899.15-.25.5-.25.649-.399.15-.15.3-.599.649-.799.35-.2.848.699 1.098 1.348.25.649 1.448.649 1.947.399 0 .3 0 .5.25.649.249.15.899-.3 1.447-.25-.399.849.8 1.648 1.897 1.348 1.098-.3.649-.249 1.198-.499-.05.4-.4 1.199-.45 1.398 1.049-.649 1.748-.2 2.796-.599-.299.998-2.396 1.197-2.196 2.096 2.595-1.198 3.095.05 4.941-.199-.548 2.246-2.446.648-3.544 1.447.599.35 1.896.999 2.146 1.547 0 0 .85 1.299 2.496.999-.349.599-1.497.849-2.445.699-.949-.15-1.998-1.199-2.996-.599-.998.599-.948 1.448-.748 2.146.37 1.293 2.396 2.346 3.693 3.644 1.099 1.198 1.897 3.045 2.447 3.544C-2.096-.2 0 0 0 0Z" style="fill:none;stroke:#000;stroke-width:.562;stroke-linecap:butt;stroke-linejoin:miter;stroke-miterlimit:4;stroke-dasharray:none;stroke-opacity:1" transform="translate(240.985 58.626)"/>
        <path d="M0 0s-.798-2.471-2.419-2.744c.63 1.201.514 3.211.514 3.211l.91.502z" style="fill:#fcdb00;fill-opacity:1;fill-rule:nonzero;stroke:none" transform="translate(213.98 61.251)"/>
        <path d="M0 0s-.798-2.471-2.419-2.744c.63 1.201.514 3.211.514 3.211l.91.502z" style="fill:none;stroke:#000;stroke-width:.401;stroke-linecap:butt;stroke-linejoin:miter;stroke-miterlimit:4;stroke-dasharray:none;stroke-opacity:1" transform="translate(213.98 61.251)"/>
        <path d="M0 0s-2.515-.984-2.721-2.658c1.537 1.248 3.237.92 3.237.92l.47.983z" style="fill:#fcdb00;fill-opacity:1;fill-rule:nonzero;stroke:none" transform="translate(210.108 63.444)"/>
        <path d="M0 0s-2.515-.984-2.721-2.658c1.537 1.248 3.237.92 3.237.92l.47.983z" style="fill:none;stroke:#000;stroke-width:.401;stroke-linecap:butt;stroke-linejoin:miter;stroke-miterlimit:4;stroke-dasharray:none;stroke-opacity:1" transform="translate(210.108 63.444)"/>
        <path d="M0 0c-.631.167-1.702.442-3.236-1.169 1.826.492 2.987-.31 2.987-.31l.761.54z" style="fill:#fcdb00;fill-opacity:1;fill-rule:nonzero;stroke:none" transform="translate(209.766 65.888)"/>
        <path d="M0 0c-.631.167-1.702.442-3.236-1.169 1.826.492 2.987-.31 2.987-.31l.761.54z" style="fill:none;stroke:#000;stroke-width:.401;stroke-linecap:butt;stroke-linejoin:miter;stroke-miterlimit:4;stroke-dasharray:none;stroke-opacity:1" transform="translate(209.766 65.888)"/>
        <path d="M0 0s-1.098 1.664-2.374 1.5C-1.657.747-1.339-.78-1.339-.78l.785-.168z" style="fill:#fcdb00;fill-opacity:1;fill-rule:nonzero;stroke:none" transform="translate(211.689 67.891)"/>
        <path d="M0 0s-1.098 1.664-2.374 1.5C-1.657.747-1.339-.78-1.339-.78l.785-.168z" style="fill:none;stroke:#000;stroke-width:.401;stroke-linecap:butt;stroke-linejoin:miter;stroke-miterlimit:4;stroke-dasharray:none;stroke-opacity:1" transform="translate(211.689 67.891)"/>
    </g>
</svg>
