<?xml version="1.0" encoding="UTF-8"?>
<svg width="600" height="682" xmlns="http://www.w3.org/2000/svg">
 <path d="M4.15 3.977v406.69c0 147.41 132.46 266.89 295.85 266.89s295.85-119.49 295.85-266.89V3.976z" fill="#f00000"/>
 <path d="M234.31 6.057v181.33L88.78 343.327l145.53 170.45h145.51l145.53-170.45-145.53-155.94V6.057z" fill="#fcdb00" stroke="#000" stroke-width="5.66"/>
  <path d="m317.34 131.47a10.554 4.331 34.12 1 0-18.129-9.795 10.554 4.331 34.12 1 0 18.129 9.795z" fill="#cf142b" stroke="#000" stroke-width="3.397"/>
  <g stroke="#fff">
   <path transform="matrix(1.6571 .89521 .26791 -4.6548 227.15 727.79)" d="m34.911 132.14a7.322 1.43 0 1 1-14.643 0 7.322 1.43 0 1 1 14.643 0z" stroke-width=".803"/>
   <path transform="matrix(2.0768 1.122 .33946 -5.8981 206.11 897.15)" d="m34.911 132.14a7.322 1.43 0 1 1-14.643 0 7.322 1.43 0 1 1 14.643 0z" stroke-width=".637"/>
   <path transform="matrix(2.4969 1.3491 .4114 -7.1492 185.01 1071)" d="m34.911 132.14a7.322 1.43 0 1 1-14.643 0 7.322 1.43 0 1 1 14.643 0z" stroke-width=".528"/>
   <path transform="matrix(2.9135 1.574 .48307 -8.3941 164.06 1247.2)" d="m34.911 132.14a7.322 1.43 0 1 1-14.643 0 7.322 1.43 0 1 1 14.643 0z" stroke-width=".451"/>
   <path transform="matrix(3.189 1.723 .53169 -9.2391 148.91 1371.8)" d="m34.911 132.14a7.322 1.43 0 1 1-14.643 0 7.322 1.43 0 1 1 14.643 0z" stroke-width=".411"/>
   <path transform="matrix(3.5233 1.9035 .58733 -10.207 132.33 1516.1)" d="m34.911 132.14a7.322 1.43 0 1 1-14.643 0 7.322 1.43 0 1 1 14.643 0z" stroke-width=".372"/>
   <path transform="matrix(3.6751 1.9857 .61277 -10.647 124.78 1590)" d="m34.911 132.14a7.322 1.43 0 1 1-14.643 0 7.322 1.43 0 1 1 14.643 0z" stroke-width=".356"/>
   <path transform="matrix(3.7057 2.0021 .61778 -10.736 123.28 1619.2)" d="m34.911 132.14a7.322 1.43 0 1 1-14.643 0 7.322 1.43 0 1 1 14.643 0z" stroke-width=".353"/>
   <path transform="matrix(3.5233 1.9035 .58733 -10.207 132.33 1570.3)" d="m34.911 132.14a7.322 1.43 0 1 1-14.643 0 7.322 1.43 0 1 1 14.643 0z" stroke-width=".372"/>
  </g>
  <path d="m333.56 106.39a26.396 23.983 0 1 0-52.793 0 26.396 23.983 0 1 0 52.793 0z" stroke="#000" stroke-width="3.395"/>
  <path d="m319.48 106.39a12.318 11.192 0 1 0-24.637 0 12.318 11.192 0 1 0 24.637 0z" stroke="#fff" stroke-width="2.264"/>
  <g stroke="#000" stroke-width=".783">
   <path transform="matrix(2.8526 0 0 -6.5894 235.84 1021.9)" d="M15 114h10l-.524-36.881h-8.91z"/>
   <path transform="matrix(2.8526 0 0 -6.5894 235.84 1021.9)" d="M35 114H25l-.524-36.881h10.45z"/>
  </g>
  <path d="M206.79 292.19c-8.214-.663-14.664-6.995-14.664-14.629 0-7.699 6.497-14.059 14.808-14.633h197.85c.409-.028.878 0 1.294 0 8.892 0 16.106 6.555 16.106 14.629s-7.214 14.633-16.106 14.633-16.102-6.555-16.102-14.629c0-2.651.8-5.173 2.155-7.315h-169.96c1.359 2.142 2.159 4.664 2.159 7.315 0 8.074-7.214 14.629-16.106 14.629-.485 0-.961.036-1.435 0z" stroke="#000" stroke-width="3.395"/>
 <path d="M280.34 273.2h52.158-.907m-25.353 22.307.455 214.85z" fill="#fff" stroke="#fff" stroke-width="3.396"/>
 <path d="M4.15 3.977v406.69c0 147.41 132.46 266.89 295.85 266.89s295.84-119.49 295.84-266.89V3.976z" fill="none"/>
 <path d="M4.15 3.977v406.26c0 147.27 132.46 266.64 295.85 266.64s295.85-119.37 295.85-266.63V3.986z" fill="none" stroke="#000" stroke-width="8.299"/>
</svg>
