<?xml version="1.0" encoding="UTF-8"?>
<!DOCTYPE svg PUBLIC "-//W3C//DTD SVG 1.1//EN" "http://www.w3.org/Graphics/SVG/1.1/DTD/svg11.dtd">
<svg width="620" height="662.15" version="1.1" xmlns="http://www.w3.org/2000/svg">
<path d="m608.61 14.392-8.762.733a480.64 480.64 0 0 1-40.939 1.588c-31.366 0-62.952-2.343-93.53-4.599-27.096-2.004-52.659-3.9-75.242-3.9-29.264 0-63.676 2.847-80.17 23.12-16.482-20.283-50.925-23.12-80.179-23.12-22.56 0-48.156 1.896-75.24 3.889-30.58 2.267-62.176 4.61-93.532 4.61-14.895 0-28.29-.515-40.938-1.588l-8.751-.733 2.552 8.52c49.284 163.35 57.86 279.35 22.375 302.74l-2.463 1.61-.22 2.979c-6.846 90.498 18.946 173.23 72.623 232.9 51.508 57.257 123.82 89.512 203.66 90.793h.208c79.84-1.282 152.16-33.536 203.68-90.816 53.676-59.668 79.458-142.38 72.613-232.88l-.22-2.979-2.474-1.61c-35.454-23.383-26.875-139.39 22.364-302.76z" fill="none" stroke="#000" stroke-width="16"/>
<path d="m33.797 327.262-.217 2.98c-6.845 90.498 18.948 173.23 72.624 232.9 51.508 57.257 123.82 89.512 203.66 90.792h.21c79.84-1.281 152.16-33.534 203.68-90.814 53.676-59.668 79.459-142.38 72.613-232.88l-.22-2.98z" fill="#fff"/>
<path d="M229.8 8.217c-22.562 0-48.158 1.895-75.241 3.89-30.579 2.266-62.177 4.611-93.531 4.611-14.895 0-28.291-.516-40.94-1.589l-8.751-.734 2.553 8.52c49.284 163.35 57.859 279.36 22.375 302.74l-2.468 1.607 552.35-.002-2.476-1.61c-35.452-23.382-26.874-139.38 22.365-302.76l2.59-8.498-8.763.733a480.64 480.64 0 0 1-40.939 1.59c-31.367 0-62.952-2.346-93.53-4.602-27.096-2.004-52.659-3.9-75.242-3.9-29.264 0-63.675 2.85-80.17 23.122-16.481-20.283-50.925-23.122-80.179-23.122z" fill="#f00000"/>
<path d="m33.797 327.26 552.34-3e-3" fill="none" stroke="#000" stroke-width="5"/>
<g stroke="#000" stroke-width="3">
<path d="M227.87 450.26c13.779 6.71 25.645 8.49 33.244-.511 13.577-13.583 30.939-14.94 52.878-1.533 15.151-14.836 31.703-11.29 49.049 2.554 9.795 5.457 19.807 8.506 29.974 10.212l2.18 29.105c-30.177 9.323-21.768 23.488-4.359 38.56 9.155 8.65 3.44 13.611-3.271 15.581-14.34 4.348-21.456 11.277-22.343 20.424-3.753 14.122-7.879 28.244-14.17 42.382-11.133 17.638-28.852 16.602-26.984-7.15 1.978-9.788-6.368-9.394-8.315-1.53-3.566 9.089-8.626 8.549-10.214.51-1.869-6.959-7.973-6.813-9 2.042-8.61 23.226-28.402 21.447-37.059 1.533-4.999-12.445-7.894-26.027-10.355-39.83-.732-10.153-6.166-16.106-15.259-18.382-12.986-7.28-10.339-14.866-5.45-22.467 16.66-20.09 13.89-31.045-2.18-35.757z" fill="#fcdb00"/>
<path d="m386.75 455.11 2.46 43.666c42.976-5.325 84.91-19.856 122.08-75.586 10.511-18.178 28.946-31.513 53.97-40.85 11.381-7.396 4.734-16.675-8.72-14.297-21.862 8.286-41.73 20.322-59.964 38.807-34.427 27.193-70.319 46.919-109.82 48.26zm-153.49-5.608-2.445 43.666c-42.991-5.325-84.924-19.856-122.09-75.586-10.511-18.178-28.946-31.513-53.969-40.85-11.382-7.397-4.734-16.675 8.719-14.297 21.862 8.286 41.731 20.322 59.964 38.807 52.264 41.282 90.055 47.743 109.82 48.26z" fill="#fcdb00"/>
</g>
<path d="m65.612 189.39 31.926-27.936 9.578-35.916-7.982-35.917 27.137 15.963 42.302 6.385 32.724-18.357-9.577 29.531 12.77 39.908 23.146 25.54-29.531-.798-35.917 23.945-14.367 36.715-13.568-34.32-29.533-25.542-39.11.798z" fill="#094" stroke="#000" stroke-linejoin="round" stroke-width="3"/>
<path d="m139.04 145.49c-10.376-14.366-28.734-30.33-13.569-47.889 15.165-9.577 39.11-9.577 52.678 7.982 7.981 14.367-10.376 29.531-21.55 42.302z" fill="#fff"/>
<path d="m139.04 145.49c-10.376-14.366-28.734-30.33-13.569-47.889 15.165-9.577 39.11-9.577 52.678 7.982 7.981 14.367-10.376 29.531-21.55 42.302zm-16.762-43.1c3.991-3.192 8.78-3.192 14.367 0 6.385 6.385 12.77 7.982 21.55 3.991 3.991-2.394 9.578-3.193 17.56-3.99" fill="none" stroke="#000" stroke-width="3"/>
<path d="m157.4 150.28c10.375-15.166 19.953-38.312 40.705-31.927 15.963 9.578 25.54 31.128 15.963 51.082-12.77 11.972-32.724 0-47.89-3.99z" fill="#fff"/>
<path d="m157.4 150.28c10.375-15.166 19.953-38.312 40.705-31.927 15.963 9.578 25.54 31.128 15.963 51.082-12.77 11.972-32.724 0-47.89-3.99zm35.916-33.523c3.99 3.193 6.385 7.183 6.385 13.569-3.99 7.981-2.394 15.164 4.789 20.751 3.193 3.193 7.183 7.982 10.376 15.165" fill="none" stroke="#000" stroke-width="3"/>
<path d="m132.66 164.65c-18.357 3.99-43.898 16.761-52.678-3.99-3.99-17.56 4.79-39.11 25.541-46.294 15.165-2.394 24.743 20.752 33.523 35.12z" fill="#fff"/>
<path d="M132.66 164.65c-18.357 3.99-43.898 16.761-52.678-3.99-3.99-17.56 4.79-39.11 25.541-46.294 15.165-2.394 24.743 20.752 33.523 35.12zm-49.485.798c-1.596-4.789 0-9.578 4.789-13.568 7.981-3.193 11.972-9.578 11.174-18.358 0-4.789.798-10.376 3.193-18.357" fill="none" stroke="#000" stroke-width="3"/>
<path d="m151.01 180.61c-2.395 17.56 1.596 43.898-23.945 43.898-19.155-3.192-36.715-19.954-35.118-42.302 7.981-15.165 35.118-15.963 51.081-18.357z" fill="#fff"/>
<path d="M151.01 180.61c-2.395 17.56 1.596 43.898-23.945 43.898-19.155-3.192-36.715-19.954-35.118-42.302 7.981-15.165 35.118-15.963 51.081-18.357zm-18.358 43.1c-5.587-.798-9.577-4.789-11.174-10.376 0-8.78-3.99-14.367-12.77-17.56-4.789-1.595-10.376-4.788-16.761-10.375" fill="none" stroke="#000" stroke-width="3"/>
<path d="m162.99 166.24c16.761 4.79 41.504 4.79 43.1 26.34-3.192 18.357-20.752 33.522-43.1 30.329-16.761-7.981-13.568-29.532-14.367-45.495z" fill="#fff"/>
<path d="M162.99 166.24c16.761 4.79 41.504 4.79 43.1 26.34-3.192 18.357-20.752 33.522-43.1 30.329-16.761-7.981-13.568-29.532-14.367-45.495zm42.302 20.752c-.798 4.79-4.789 8.78-10.376 10.376-8.78-.798-15.165 2.395-18.357 11.174-1.597 3.991-4.79 9.578-10.376 15.165" fill="none" stroke="#000" stroke-width="3"/>
<path d="M107.12 147.09c-.799 0 21.55 11.174 21.55 11.174l7.183 19.155-13.569 18.358 19.954-15.963 16.761-1.596 15.963 19.155-10.376-22.348 7.184-15.165 21.55-13.568-26.34 6.385-12.77-11.973-3.99-24.742-4.79 22.348-14.366 12.77z"/>
<path d="M107.12 147.09c-.799 0 21.55 11.174 21.55 11.174l7.183 19.155-13.569 18.358 19.954-15.963 16.761-1.596 15.963 19.155-10.376-22.348 7.184-15.165 21.55-13.568-26.34 6.385-12.77-11.973-3.99-24.742-4.79 22.348-14.366 12.77z" fill="none" stroke="#000" stroke-width="3"/>
<path d="M128.67 149.48c-1.597-3.99 0-6.385 6.385-7.183.798-4.79 3.99-7.184 9.578-4.79 4.789-3.99 8.78-2.394 11.174.799 4.789-.798 7.981 0 7.981 4.789 4.79 0 7.184 2.394 7.184 7.981 3.99 1.597 3.99 4.79 2.394 7.982 1.596 4.789 1.596 7.981-1.596 10.376-.798 3.193 0 7.981-5.587 7.183-1.597 3.991-3.991 6.385-7.184 4.79-3.192 3.192-5.587 3.99-9.577 1.595-3.991 3.193-6.386 2.395-7.982-1.596-5.587 1.596-7.981 0-7.981-5.587-4.79 0-7.184-2.394-6.386-7.183-3.192-1.597-2.394-5.587-.798-10.376-3.192-3.193-1.596-5.587 2.395-8.78z" fill="#fcdb00"/>
<path d="M128.67 149.48c-1.597-3.99 0-6.385 6.385-7.183.798-4.79 3.99-7.184 9.578-4.79 4.789-3.99 8.78-2.394 11.174.799 4.789-.798 7.981 0 7.981 4.789 4.79 0 7.184 2.394 7.184 7.981 3.99 1.597 3.99 4.79 2.394 7.982 1.596 4.789 1.596 7.981-1.596 10.376-.798 3.193 0 7.981-5.587 7.183-1.597 3.991-3.991 6.385-7.184 4.79-3.192 3.192-5.587 3.99-9.577 1.595-3.991 3.193-6.386 2.395-7.982-1.596-5.587 1.596-7.981 0-7.981-5.587-4.79 0-7.184-2.394-6.386-7.183-3.192-1.597-2.394-5.587-.798-10.376-3.192-3.193-1.596-5.587 2.395-8.78z" fill="none" stroke="#000" stroke-width="3"/>
<path d="m230.83 188.59 31.128-27.935 9.578-36.715-7.982-35.118 27.935 15.963 42.302 6.385 32.725-19.156-9.578 30.33 12.77 39.11 23.147 25.54-29.532-.798-36.715 23.945-13.569 37.513-13.568-35.119-29.532-25.54s-39.11.797-39.11 1.596z" fill="#094" stroke="#000" stroke-linejoin="round" stroke-width="3"/>
<path d="m303.46 144.69c-9.577-14.366-28.733-30.33-13.568-47.889 15.963-10.376 39.11-9.578 53.476 7.184 7.982 15.164-11.174 29.531-21.55 43.1z" fill="#fff"/>
<path d="m303.46 144.69c-9.577-14.366-28.733-30.33-13.568-47.889 15.963-10.376 39.11-9.578 53.476 7.184 7.982 15.164-11.174 29.531-21.55 43.1zm-16.76-43.1c4.788-3.193 9.577-3.193 15.164 0 5.587 6.385 12.77 7.183 20.752 3.99 3.991-2.394 10.376-3.99 18.358-3.99" fill="none" stroke="#000" stroke-width="3"/>
<path d="M322.62 149.48c10.376-15.165 19.954-39.11 40.706-32.724 15.963 10.376 24.743 31.128 15.165 51.082-12.77 11.972-32.724.798-47.89-3.193z" fill="#fff"/>
<path d="M322.62 149.48c10.376-15.165 19.954-39.11 40.706-32.724 15.963 10.376 24.743 31.128 15.165 51.082-12.77 11.972-32.724.798-47.89-3.193zm35.119-33.522c4.789 2.394 7.183 7.183 6.385 13.568-3.192 7.982-1.596 14.367 4.789 20.752 3.99 2.395 7.982 7.982 11.174 15.165" fill="none" stroke="#000" stroke-width="3"/>
<path d="m297.07 163.85c-18.357 3.99-43.1 16.761-51.88-3.99-3.99-18.358 3.991-39.908 24.743-47.092 15.165-1.596 25.541 20.752 34.32 35.119z" fill="#fff"/>
<path d="M297.08 163.85c-18.357 3.99-43.1 16.761-51.88-3.99-3.99-18.358 3.991-39.908 24.743-47.092 15.165-1.596 25.541 20.752 34.32 35.119zm-49.485.798c-.798-5.587.798-9.578 5.587-14.367 7.982-3.192 11.972-8.78 11.174-17.559-.798-4.789 0-11.174 3.193-18.358" fill="none" stroke="#000" stroke-width="3"/>
<path d="M316.23 179.01c-3.193 18.357.798 44.696-24.743 43.898-19.155-3.193-35.916-19.156-34.32-41.504 7.981-15.963 35.119-15.963 51.082-18.357z" fill="#fff"/>
<path d="M316.23 179.01c-3.193 18.357.798 44.696-24.743 43.898-19.155-3.193-35.916-19.156-34.32-41.504 7.981-15.963 35.119-15.963 51.082-18.357zm-19.156 43.1c-4.788-.798-8.78-3.99-11.174-10.376.798-7.982-3.99-14.367-12.77-17.56-3.99-.798-9.578-3.99-15.963-9.577" fill="none" stroke="#000" stroke-width="3"/>
<path d="m328.2 164.65c16.761 5.587 41.504 4.789 43.1 26.339-3.192 19.156-21.55 34.32-43.898 31.128-15.963-7.982-13.568-30.33-13.568-46.293z" fill="#fff"/>
<path d="M328.2 164.65c16.761 5.587 41.504 4.789 43.1 26.339-3.192 19.156-21.55 34.32-43.898 31.128-15.963-7.982-13.568-30.33-13.568-46.293zm42.302 20.752c-1.596 5.587-4.789 8.78-11.174 10.376-8.78-.798-14.367 3.192-18.357 11.174-.798 4.789-4.79 9.578-10.376 15.165" fill="none" stroke="#000" stroke-width="3"/>
<path d="m272.33 146.29c-1.597 0 21.55 10.375 21.55 10.375l6.385 19.156-12.77 19.156 19.953-16.761 15.963-1.597 16.762 19.954-11.175-22.348 7.982-15.963 21.55-12.77-26.339 6.385-13.568-12.77-3.991-23.945-3.991 22.348-14.367 11.972z"/>
<g stroke="#000" stroke-width="3">
<path d="m272.33 146.29c-1.597 0 21.55 10.375 21.55 10.375l6.385 19.156-12.77 19.156 19.953-16.761 15.963-1.597 16.762 19.954-11.175-22.348 7.982-15.963 21.55-12.77-26.339 6.385-13.568-12.77-3.991-23.945-3.991 22.348-14.367 11.972z" fill="none"/>
<path d="M293.88 148.68c-2.395-3.99 0-7.183 5.587-7.982 1.596-4.788 4.789-6.385 10.376-4.788 4.789-3.193 7.981-2.395 10.376.798 4.789 0 7.981.798 8.78 4.789 3.99 0 6.385 3.192 7.183 8.78 3.192 1.596 3.192 3.99 2.394 7.98 1.597 3.991 1.597 7.982-2.394 9.579 0 3.99.798 7.981-5.587 7.183-1.597 3.99-3.991 6.385-7.184 5.587-2.394 2.394-5.587 3.99-8.78 1.596-3.99 2.395-7.183 2.395-7.98-2.394-5.588 2.394-8.78 0-8.78-4.79-3.991-.797-6.386-3.192-5.587-7.182-3.193-1.597-3.193-5.588-.799-10.376-3.192-3.193-1.596-6.386 2.395-8.78z" fill="#fcdb00"/>
<path d="m396.05 186.99 31.128-27.137 9.578-36.715-7.982-35.917 27.137 15.963 43.1 6.386 32.725-18.358-9.578 29.532 12.77 39.907 23.147 25.541-30.33-.798-35.917 23.944-14.366 36.715-12.77-34.32-29.532-25.54s-39.908.797-39.11.797z" fill="#094" stroke-linejoin="round"/>
</g>
<path d="m468.68 143.89c-9.578-15.165-28.734-31.128-13.569-47.889 15.963-10.376 39.11-10.376 52.678 7.183 7.982 14.367-10.376 29.532-21.55 42.302z" fill="#fff"/>
<path d="m468.68 143.89c-9.578-15.165-28.734-31.128-13.569-47.889 15.963-10.376 39.11-10.376 52.678 7.183 7.982 14.367-10.376 29.532-21.55 42.302zm-16.761-43.898c3.99-3.193 9.577-3.193 15.165 0 5.587 6.385 12.77 7.981 20.751 3.99 3.991-1.596 10.376-3.192 18.358-3.192" fill="none" stroke="#000" stroke-width="3"/>
<path d="m487.03 147.88c10.376-15.165 20.752-38.311 41.504-31.926 15.963 9.578 24.743 31.128 15.165 51.081-12.77 11.973-32.724 0-47.889-3.99z" fill="#fff"/>
<path d="m487.03 147.88c10.376-15.165 20.752-38.311 41.504-31.926 15.963 9.578 24.743 31.128 15.165 51.081-12.77 11.973-32.724 0-47.889-3.99zm35.917-33.523c4.789 3.193 6.385 7.184 6.385 13.569-3.192 7.982-1.596 15.165 4.79 20.752 3.99 3.193 7.183 7.981 11.173 15.165" fill="none" stroke="#000" stroke-width="3"/>
<path d="m462.29 162.25c-18.358 4.79-43.1 17.56-52.678-3.192-3.991-18.358 4.789-39.908 25.54-47.091 15.165-2.394 25.541 20.752 34.321 35.119z" fill="#fff"/>
<path d="M462.29 162.25c-18.358 4.79-43.1 17.56-52.678-3.192-3.991-18.358 4.789-39.908 25.54-47.091 15.165-2.394 25.541 20.752 34.321 35.119zm-49.486.799c-.798-4.79 0-9.578 5.587-13.569 7.982-3.192 11.174-9.578 11.174-18.357-.798-4.79 0-10.376 2.395-18.358" fill="none" stroke="#000" stroke-width="3"/>
<path d="m480.65 178.22c-2.394 17.559 1.596 43.898-23.944 43.898-19.156-3.193-35.917-19.954-34.32-41.504 7.98-15.963 34.32-16.761 50.283-18.358z" fill="#fff"/>
<path d="M480.65 178.22c-2.394 17.559 1.596 43.898-23.944 43.898-19.156-3.193-35.917-19.954-34.32-41.504 7.98-15.963 34.32-16.761 50.283-18.358zm-18.357 43.1c-5.587-.798-8.78-3.991-11.174-10.376 0-8.78-3.991-14.367-12.77-17.56-4.79-1.596-10.377-4.788-16.762-9.577" fill="none" stroke="#000" stroke-width="3"/>
<path d="m492.62 163.85c16.762 4.789 42.302 4.789 43.1 26.339-2.394 18.357-20.751 33.522-43.1 30.33-16.76-7.982-13.568-29.532-14.366-45.495z" fill="#fff"/>
<path d="M492.62 163.85c16.762 4.789 42.302 4.789 43.1 26.339-2.394 18.357-20.751 33.522-43.1 30.33-16.76-7.982-13.568-29.532-14.366-45.495zm43.1 20.752c-1.596 4.789-4.788 8.78-11.174 10.376-8.78-.798-14.366 3.192-18.357 11.174-1.596 3.99-4.789 9.578-10.376 15.165" fill="none" stroke="#000" stroke-width="3"/>
<path d="M436.75 144.69c-.798 0 21.55 11.174 21.55 11.174l7.183 19.156-12.77 18.357 19.954-15.963 15.963-1.596 16.76 19.954-11.173-23.146 7.981-15.165 20.752-12.77-25.54 5.586-13.57-11.972-3.99-24.743-3.99 23.147-15.166 11.972z"/>
<path d="M436.75 144.69c-.798 0 21.55 11.174 21.55 11.174l7.183 19.156-12.77 18.357 19.954-15.963 15.963-1.596 16.76 19.954-11.173-23.146 7.981-15.165 20.752-12.77-25.54 5.586-13.57-11.972-3.99-24.743-3.99 23.147-15.166 11.972z" fill="none" stroke="#000" stroke-width="3"/>
<path d="M458.3 147.09c-1.596-3.991 0-6.386 6.385-7.184.798-4.789 3.99-7.183 9.578-4.789 5.587-3.99 8.78-2.394 11.174.799 4.789-.799 7.982 0 7.982 4.788 4.788 0 7.183 2.395 7.981 7.982 3.193 1.596 3.193 4.789 1.596 8.78 1.597 3.99 2.395 7.183-1.596 9.577-.798 3.193.798 7.982-5.587 7.184-1.596 3.99-3.99 6.385-7.183 4.789-2.395 3.192-5.587 3.99-8.78 1.596-4.789 3.193-7.183 2.394-8.78-1.596-5.587 1.596-7.981 0-7.981-5.587-4.79 0-6.385-2.395-5.587-6.386-3.193-2.394-3.193-6.385-1.597-11.174-2.394-3.192-.798-5.587 2.395-8.78z" fill="#fcdb00"/>
<path d="M458.3 147.09c-1.596-3.991 0-6.386 6.385-7.184.798-4.789 3.99-7.183 9.578-4.789 5.587-3.99 8.78-2.394 11.174.799 4.789-.799 7.982 0 7.982 4.788 4.788 0 7.183 2.395 7.981 7.982 3.193 1.596 3.193 4.789 1.596 8.78 1.597 3.99 2.395 7.183-1.596 9.577-.798 3.193.798 7.982-5.587 7.184-1.596 3.99-3.99 6.385-7.183 4.789-2.395 3.192-5.587 3.99-8.78 1.596-4.789 3.193-7.183 2.394-8.78-1.596-5.587 1.596-7.981 0-7.981-5.587-4.79 0-6.385-2.395-5.587-6.386-3.193-2.394-3.193-6.385-1.597-11.174-2.394-3.192-.798-5.587 2.395-8.78z" fill="none" stroke="#000" stroke-width="3"/>
</svg>
