<?xml version="1.0" encoding="UTF-8" standalone="no"?>
<!-- Generator: Adobe Illustrator 12.0.1, SVG Export Plug-In . SVG Version: 6.00 Build 51448)  -->

<svg
   xmlns:dc="http://purl.org/dc/elements/1.1/"
   xmlns:cc="http://creativecommons.org/ns#"
   xmlns:rdf="http://www.w3.org/1999/02/22-rdf-syntax-ns#"
   xmlns:svg="http://www.w3.org/2000/svg"
   xmlns="http://www.w3.org/2000/svg"
   xmlns:sodipodi="http://sodipodi.sourceforge.net/DTD/sodipodi-0.dtd"
   xmlns:inkscape="http://www.inkscape.org/namespaces/inkscape"
   version="1.0"
   width="744.09448"
   height="824.35999"
   viewBox="0 0 59.378 65.437"
   overflow="visible"
   enable-background="new 0 0 59.378 65.437"
   xml:space="preserve"
   id="svg2178"
   sodipodi:version="0.32"
   inkscape:version="0.92.3 (2405546, 2018-03-11)"
   sodipodi:docname="CHE Bösingen COA.svg"
   inkscape:output_extension="org.inkscape.output.svg.inkscape"><metadata
   id="metadata2303"><rdf:RDF><cc:Work
       rdf:about=""><dc:format>image/svg+xml</dc:format><dc:type
         rdf:resource="http://purl.org/dc/dcmitype/StillImage" /><cc:license
         rdf:resource="http://web.resource.org/cc/PublicDomain" /></cc:Work><cc:License
       rdf:about="http://web.resource.org/cc/PublicDomain"><cc:permits
         rdf:resource="http://web.resource.org/cc/Reproduction" /><cc:permits
         rdf:resource="http://web.resource.org/cc/Distribution" /><cc:permits
         rdf:resource="http://web.resource.org/cc/DerivativeWorks" /></cc:License></rdf:RDF></metadata><defs
   id="defs2301">
	

		
			
		
			
		
			
		
			
		
			
		
			
		
			
		
			
		
			
		
			
		
			
		
			
		
			
		
			
		
			
		
			
		
			
		
			
		
			
		
			
		
			
		
			
		
			
		
			
		
			
		
			
		
			
		
			
		
			
		
			
		
			
		
			
		
			
		
			
		
			
		
			
		
			
		
			
		
			
		
			
		
			
		
			
		
			
		
			
		
			
		
			
		
			
		
			
		
			
		
			
		
			
		
			
		
			
		
			
		
			
		
			
		
			
	</defs><sodipodi:namedview
   inkscape:window-height="1017"
   inkscape:window-width="1920"
   inkscape:pageshadow="2"
   inkscape:pageopacity="0.0"
   guidetolerance="10.0"
   gridtolerance="10.0"
   objecttolerance="10.0"
   borderopacity="1.0"
   bordercolor="#666666"
   pagecolor="#ffffff"
   id="base"
   inkscape:zoom="0.90374809"
   inkscape:cx="233.36918"
   inkscape:cy="487.77465"
   inkscape:window-x="-8"
   inkscape:window-y="-8"
   inkscape:current-layer="svg2178"
   width="744.09448px"
   height="824.36px"
   inkscape:showpageshadow="false"
   showborder="true"
   borderlayer="false"
   showgrid="false"
   inkscape:window-maximized="1" />
<g
   id="Ebene_1">
</g>
<g
   id="_x2D__Desktop">
</g>
<g
   id="_x2D__Hilfslinien">
</g>
<g
   id="_x2D__Gitter"
   display="none"
   style="display:none">
</g>
<path
   clip-rule="evenodd"
   stroke-miterlimit="2.4142"
   d="M 0.36,0.36 L 0.36,40.715 C 4.01,56.054 13.73,64.174 29.52,65.076 C 44.032,64.723 56.03,56.09 59.018,40.53 L 59.018,0.36 L 0.36,0.36 L 0.36,0.36 z "
   id="path2186"
   style="fill:#f00000;fill-rule:evenodd;stroke:#010101;stroke-width:0.72000003;stroke-linejoin:round;stroke-miterlimit:2.41420007;fill-opacity:1" /><path
   clip-rule="evenodd"
   stroke-miterlimit="2.4142"
   d="M 30.568,32.949 C 31.751,32.949 32.715,33.914 32.715,35.096 C 32.715,36.28 31.75,37.244 30.568,37.244 C 29.386,37.244 28.42,36.279 28.42,35.096 C 28.419,33.914 29.385,32.949 30.568,32.949 L 30.568,32.949 z M 30.539,33.776 C 31.26,33.776 31.847,34.364 31.847,35.084 C 31.847,35.804 31.26,36.392 30.539,36.392 C 29.819,36.392 29.232,35.804 29.232,35.084 C 29.232,34.364 29.819,33.776 30.539,33.776 L 30.539,33.776 z "
   id="path2188"
   style="fill:#fcdb00;fill-rule:evenodd;stroke:#010101;stroke-width:0.49970001;stroke-linejoin:round;stroke-miterlimit:2.41420007;fill-opacity:1" /><path
   clip-rule="evenodd"
   stroke-miterlimit="2.4142"
   d="M 30.123,35.866 L 30.123,38.598 L 31.079,38.598 L 31.079,35.852 C 30.788,35.364 30.314,35.253 30.123,35.866 L 30.123,35.866 z "
   id="path2190"
   style="fill:#fcdb00;fill-rule:evenodd;stroke:#000000;stroke-width:0.49970001;stroke-linejoin:round;stroke-miterlimit:2.41420007;fill-opacity:1" /><polygon
   clip-rule="evenodd"
   stroke-miterlimit="2.4142"
   points="30.502,39.346 29.533,40.805 30.398,44.142 31.851,40.923 30.502,39.346 "
   id="polygon2192"
   style="fill:#fcdb00;fill-rule:evenodd;stroke:#010101;stroke-width:0.49970001;stroke-linejoin:round;stroke-miterlimit:2.41420007;fill-opacity:1" /><path
   clip-rule="evenodd"
   stroke-miterlimit="2.4142"
   d="M 32.738,45.59 L 33.706,48.52 L 35.015,45.539 C 35.014,45.539 32.764,45.59 32.738,45.59 L 32.738,45.59 z "
   id="path2194"
   style="fill:#fcdb00;fill-rule:evenodd;stroke:#000000;stroke-width:0.49970001;stroke-linejoin:round;stroke-miterlimit:2.41420007;fill-opacity:1" /><path
   clip-rule="evenodd"
   stroke-miterlimit="2.4142"
   d="M 30.645,45.59 L 31.613,48.52 L 32.922,45.539 C 32.921,45.539 30.671,45.59 30.645,45.59 L 30.645,45.59 z "
   id="path2196"
   style="fill:#fcdb00;fill-rule:evenodd;stroke:#000000;stroke-width:0.49970001;stroke-linejoin:round;stroke-miterlimit:2.41420007;fill-opacity:1" /><path
   clip-rule="evenodd"
   stroke-miterlimit="2.4142"
   d="M 28.395,45.59 L 29.364,48.52 L 30.672,45.539 C 30.671,45.539 28.421,45.59 28.395,45.59 L 28.395,45.59 z "
   id="path2198"
   style="fill:#fcdb00;fill-rule:evenodd;stroke:#000000;stroke-width:0.49970001;stroke-linejoin:round;stroke-miterlimit:2.41420007;fill-opacity:1" /><path
   clip-rule="evenodd"
   stroke-miterlimit="2.4142"
   d="M 26.329,45.59 L 27.297,48.52 L 28.606,45.539 C 28.605,45.539 26.355,45.59 26.329,45.59 L 26.329,45.59 z "
   id="path2200"
   style="fill:#fcdb00;fill-rule:evenodd;stroke:#000000;stroke-width:0.49970001;stroke-linejoin:round;stroke-miterlimit:2.41420007;fill-opacity:1" /><rect
   x="25.962"
   y="44.492001"
   clip-rule="evenodd"
   stroke-miterlimit="2.4142"
   width="9.3400002"
   height="1.413"
   id="rect2202"
   style="fill:#fcdb00;fill-rule:evenodd;stroke:#000000;stroke-width:0.49970001;stroke-linejoin:round;stroke-miterlimit:2.41420007;fill-opacity:1" /><path
   clip-rule="evenodd"
   stroke-miterlimit="2.4142"
   d="M 23.686,50.168 L 24.655,53.098 L 25.963,50.117 C 25.962,50.117 23.712,50.168 23.686,50.168 L 23.686,50.168 z "
   id="path2204"
   style="fill:#fcdb00;fill-rule:evenodd;stroke:#000000;stroke-width:0.49970001;stroke-linejoin:round;stroke-miterlimit:2.41420007;fill-opacity:1" /><path
   clip-rule="evenodd"
   stroke-miterlimit="2.4142"
   d="M 34.988,50.168 L 35.956,53.098 L 37.265,50.117 C 37.264,50.117 35.014,50.168 34.988,50.168 L 34.988,50.168 z "
   id="path2206"
   style="fill:#fcdb00;fill-rule:evenodd;stroke:#000000;stroke-width:0.49970001;stroke-linejoin:round;stroke-miterlimit:2.41420007;fill-opacity:1" /><path
   clip-rule="evenodd"
   stroke-miterlimit="2.4142"
   d="M 32.791,50.168 L 33.759,53.098 L 35.067,50.117 C 35.066,50.117 32.817,50.168 32.791,50.168 L 32.791,50.168 z "
   id="path2208"
   style="fill:#fcdb00;fill-rule:evenodd;stroke:#000000;stroke-width:0.49970001;stroke-linejoin:round;stroke-miterlimit:2.41420007;fill-opacity:1" /><path
   clip-rule="evenodd"
   stroke-miterlimit="2.4142"
   d="M 30.567,50.248 L 31.535,53.178 L 32.843,50.196 C 32.842,50.195 30.593,50.248 30.567,50.248 L 30.567,50.248 z "
   id="path2210"
   style="fill:#fcdb00;fill-rule:evenodd;stroke:#000000;stroke-width:0.49970001;stroke-linejoin:round;stroke-miterlimit:2.41420007;fill-opacity:1" /><path
   clip-rule="evenodd"
   stroke-miterlimit="2.4142"
   d="M 28.212,50.168 L 29.18,53.098 L 30.488,50.117 C 30.488,50.117 28.239,50.168 28.212,50.168 L 28.212,50.168 z "
   id="path2212"
   style="fill:#fcdb00;fill-rule:evenodd;stroke:#000000;stroke-width:0.49970001;stroke-linejoin:round;stroke-miterlimit:2.41420007;fill-opacity:1" /><path
   clip-rule="evenodd"
   stroke-miterlimit="2.4142"
   d="M 25.858,50.248 L 26.826,53.178 L 28.134,50.196 C 28.133,50.195 25.884,50.248 25.858,50.248 L 25.858,50.248 z "
   id="path2214"
   style="fill:#fcdb00;fill-rule:evenodd;stroke:#000000;stroke-width:0.49970001;stroke-linejoin:round;stroke-miterlimit:2.41420007;fill-opacity:1" /><rect
   x="22.718"
   y="49.042999"
   clip-rule="evenodd"
   stroke-miterlimit="2.4142"
   width="15.645"
   height="1.465"
   id="rect2216"
   style="fill:#fcdb00;fill-rule:evenodd;stroke:#000000;stroke-width:0.49970001;stroke-linejoin:round;stroke-miterlimit:2.41420007;fill-opacity:1" /><path
   clip-rule="evenodd"
   stroke-miterlimit="2.4142"
   d="M 39.173,55.139 L 40.141,58.069 L 41.45,55.087 C 41.45,55.086 39.2,55.139 39.173,55.139 L 39.173,55.139 z "
   id="path2218"
   style="fill:#fcdb00;fill-rule:evenodd;stroke:#000000;stroke-width:0.49970138;stroke-linejoin:round;stroke-miterlimit:2.41420007;stroke-dasharray:none;fill-opacity:1" /><path
   clip-rule="evenodd"
   stroke-miterlimit="2.4142"
   d="M 37.002,55.139 L 37.97,58.069 L 39.278,55.087 C 39.278,55.086 37.029,55.139 37.002,55.139 L 37.002,55.139 z "
   id="path2220"
   style="fill:#fcdb00;fill-rule:evenodd;stroke:#000000;stroke-width:0.49970138;stroke-linejoin:round;stroke-miterlimit:2.41420007;stroke-dasharray:none;fill-opacity:1" /><path
   clip-rule="evenodd"
   stroke-miterlimit="2.4142"
   d="M 34.857,55.139 L 35.825,58.069 L 37.134,55.087 C 37.133,55.086 34.883,55.139 34.857,55.139 L 34.857,55.139 z "
   id="path2222"
   style="fill:#fcdb00;fill-rule:evenodd;stroke:#000000;stroke-width:0.49970138;stroke-linejoin:round;stroke-miterlimit:2.41420007;stroke-dasharray:none;fill-opacity:1" /><path
   clip-rule="evenodd"
   stroke-miterlimit="2.4142"
   d="M 32.66,55.139 L 33.628,58.069 L 34.936,55.087 C 34.935,55.086 32.686,55.139 32.66,55.139 L 32.66,55.139 z "
   id="path2224"
   style="fill:#fcdb00;fill-rule:evenodd;stroke:#000000;stroke-width:0.49970138;stroke-linejoin:round;stroke-miterlimit:2.41420007;stroke-dasharray:none;fill-opacity:1" /><path
   clip-rule="evenodd"
   stroke-miterlimit="2.4142"
   d="M 30.462,55.139 L 31.43,58.069 L 32.738,55.087 C 32.738,55.086 30.488,55.139 30.462,55.139 L 30.462,55.139 z "
   id="path2226"
   style="fill:#fcdb00;fill-rule:evenodd;stroke:#000000;stroke-width:0.49970138;stroke-linejoin:round;stroke-miterlimit:2.41420007;stroke-dasharray:none;fill-opacity:1" /><path
   clip-rule="evenodd"
   stroke-miterlimit="2.4142"
   d="M 28.291,55.139 L 29.259,58.069 L 30.568,55.087 C 30.567,55.086 28.317,55.139 28.291,55.139 L 28.291,55.139 z "
   id="path2228"
   style="fill:#fcdb00;fill-rule:evenodd;stroke:#000000;stroke-width:0.49970138;stroke-linejoin:round;stroke-miterlimit:2.41420007;stroke-dasharray:none;fill-opacity:1" /><path
   clip-rule="evenodd"
   stroke-miterlimit="2.4142"
   d="M 26.171,55.139 L 27.14,58.069 L 28.448,55.087 C 28.448,55.086 26.198,55.139 26.171,55.139 L 26.171,55.139 z "
   id="path2230"
   style="fill:#fcdb00;fill-rule:evenodd;stroke:#000000;stroke-width:0.49970138;stroke-linejoin:round;stroke-miterlimit:2.41420007;stroke-dasharray:none;fill-opacity:1" /><path
   clip-rule="evenodd"
   stroke-miterlimit="2.4142"
   d="M 24.053,55.139 L 25.021,58.069 L 26.329,55.087 C 26.329,55.086 24.079,55.139 24.053,55.139 L 24.053,55.139 z "
   id="path2232"
   style="fill:#fcdb00;fill-rule:evenodd;stroke:#000000;stroke-width:0.49970138;stroke-linejoin:round;stroke-miterlimit:2.41420007;stroke-dasharray:none;fill-opacity:1" /><path
   clip-rule="evenodd"
   stroke-miterlimit="2.4142"
   d="M 21.777,55.139 L 22.745,58.069 L 24.053,55.087 C 24.052,55.086 21.803,55.139 21.777,55.139 L 21.777,55.139 z "
   id="path2234"
   style="fill:#fcdb00;fill-rule:evenodd;stroke:#000000;stroke-width:0.49970138;stroke-linejoin:round;stroke-miterlimit:2.41420007;stroke-dasharray:none;fill-opacity:1" /><path
   clip-rule="evenodd"
   stroke-miterlimit="2.4142"
   d="M 19.631,55.139 L 20.599,58.069 L 21.908,55.087 C 21.908,55.086 19.658,55.139 19.631,55.139 L 19.631,55.139 z "
   id="path2236"
   style="fill:#fcdb00;fill-rule:evenodd;stroke:#000000;stroke-width:0.49970138;stroke-linejoin:round;stroke-miterlimit:2.41420007;stroke-dasharray:none;fill-opacity:1" /><path
   clip-rule="evenodd"
   stroke-miterlimit="2.4142"
   d="M 17.565,55.583 L 43.359,55.583 L 30.593,37.533 L 17.565,55.583 L 17.565,55.583 z M 20.547,53.805 L 40.51,53.805 L 30.629,40.254 L 20.547,53.805 L 20.547,53.805 z "
   id="path2238"
   style="fill:#fcdb00;fill-rule:evenodd;stroke:#010101;stroke-width:0.49970138;stroke-linejoin:round;stroke-miterlimit:2.41420007;fill-opacity:1;stroke-dasharray:none" /><path
   clip-rule="evenodd"
   stroke-miterlimit="2.4142"
   d="M 42.392,33.346 L 51.13,33.346 C 51.767,33.258 51.949,33.59 51.679,34.34 C 50.72,34.993 49.691,35.508 48.592,35.883 L 43.936,35.648 C 43.182,35.357 42.448,34.989 41.764,34.419 C 41.381,33.983 41.59,33.573 42.392,33.346 L 42.392,33.346 z "
   id="path2240"
   style="fill:#fcdb00;fill-rule:evenodd;stroke:#010101;stroke-width:0.49970138;stroke-linejoin:round;stroke-miterlimit:2.41420007;fill-opacity:1;stroke-dasharray:none" /><path
   clip-rule="evenodd"
   stroke-miterlimit="2.4142"
   d="M 46.735,32.248 L 46.735,32.248 L 46.735,32.248 C 46.448,32.308 46.16,32.394 45.872,32.666 L 40.117,39.86 C 39.974,40.731 40.371,41.146 41.137,41.247 C 40.643,42.464 41.081,42.974 42.158,43 C 41.996,44.466 42.736,44.508 43.727,44.15 C 43.956,45.243 44.719,45.392 45.611,44.516 C 45.829,45.345 46.239,45.62 46.736,45.642 L 46.736,45.641 L 46.736,45.642 C 47.233,45.62 47.643,45.345 47.861,44.516 C 48.753,45.392 49.515,45.243 49.745,44.15 C 50.737,44.507 51.476,44.465 51.314,43 C 52.391,42.974 52.83,42.464 52.335,41.247 C 53.101,41.146 53.497,40.731 53.356,39.86 L 47.6,32.666 C 47.311,32.394 47.023,32.307 46.735,32.248 L 46.735,32.248 z "
   id="path2242"
   style="fill:#fcdb00;fill-rule:evenodd;stroke:#010101;stroke-width:0.49970001;stroke-linejoin:round;stroke-miterlimit:2.41420007;fill-opacity:1" /><line
   stroke-miterlimit="2.4142"
   x1="45.602001"
   y1="44.516998"
   x2="45.876999"
   y2="41.587002"
   id="line2244"
   style="fill:none;stroke:#000000;stroke-width:0.49970001;stroke-linejoin:round;stroke-miterlimit:2.41420007" /><line
   stroke-miterlimit="2.4142"
   x1="47.841"
   y1="44.542999"
   x2="47.659"
   y2="41.403"
   id="line2246"
   style="fill:none;stroke:#000000;stroke-width:0.49970001;stroke-linejoin:round;stroke-miterlimit:2.41420007" /><line
   stroke-miterlimit="2.4142"
   x1="49.752998"
   y1="44.148998"
   x2="49.084999"
   y2="41.351002"
   id="line2248"
   style="fill:none;stroke:#000000;stroke-width:0.49970001;stroke-linejoin:round;stroke-miterlimit:2.41420007" /><line
   stroke-miterlimit="2.4142"
   x1="51.272999"
   y1="42.98"
   x2="50.369999"
   y2="41.101002"
   id="line2250"
   style="fill:none;stroke:#000000;stroke-width:0.49970001;stroke-linejoin:round;stroke-miterlimit:2.41420007" /><line
   stroke-miterlimit="2.4142"
   x1="52.360001"
   y1="41.245998"
   x2="51.023998"
   y2="39.617001"
   id="line2252"
   style="fill:none;stroke:#000000;stroke-width:0.49970001;stroke-linejoin:round;stroke-miterlimit:2.41420007" /><line
   stroke-miterlimit="2.4142"
   x1="43.743"
   y1="44.136002"
   x2="45.064999"
   y2="40.970001"
   id="line2254"
   style="fill:none;stroke:#000000;stroke-width:0.49970001;stroke-linejoin:round;stroke-miterlimit:2.41420007" /><line
   stroke-miterlimit="2.4142"
   x1="42.118999"
   y1="42.993"
   x2="43.362999"
   y2="40.497002"
   id="line2256"
   style="fill:none;stroke:#000000;stroke-width:0.49970001;stroke-linejoin:round;stroke-miterlimit:2.41420007" /><line
   stroke-miterlimit="2.4142"
   x1="41.136002"
   y1="41.245998"
   x2="42.523998"
   y2="39.130001"
   id="line2258"
   style="fill:none;stroke:#000000;stroke-width:0.49970001;stroke-linejoin:round;stroke-miterlimit:2.41420007" /><path
   clip-rule="evenodd"
   stroke-miterlimit="2.4142"
   d="M 7.385,33.293 L 16.123,33.293 C 16.759,33.206 16.942,33.537 16.672,34.287 C 15.713,34.941 14.684,35.456 13.585,35.831 L 8.929,35.596 C 8.175,35.304 7.441,34.936 6.757,34.367 C 6.374,33.93 6.583,33.52 7.385,33.293 L 7.385,33.293 z "
   id="path2260"
   style="fill:#fcdb00;fill-rule:evenodd;stroke:#010101;stroke-width:0.49970001;stroke-linejoin:round;stroke-miterlimit:2.41420007;fill-opacity:1" /><path
   clip-rule="evenodd"
   stroke-miterlimit="2.4142"
   d="M 11.728,32.195 L 11.728,32.195 L 11.728,32.195 C 11.44,32.256 11.153,32.342 10.865,32.614 L 5.109,39.807 C 4.967,40.679 5.364,41.093 6.13,41.194 C 5.635,42.411 6.073,42.922 7.151,42.947 C 6.989,44.414 7.728,44.456 8.72,44.098 C 8.949,45.191 9.712,45.339 10.604,44.464 C 10.822,45.292 11.232,45.567 11.729,45.589 L 11.729,45.589 L 11.729,45.589 C 12.226,45.567 12.636,45.292 12.854,44.464 C 13.746,45.339 14.508,45.191 14.738,44.098 C 15.729,44.455 16.469,44.413 16.307,42.947 C 17.384,42.922 17.822,42.411 17.328,41.194 C 18.094,41.093 18.49,40.679 18.348,39.807 L 12.593,32.614 C 12.303,32.342 12.015,32.255 11.728,32.195 L 11.728,32.195 z "
   id="path2262"
   style="fill:#fcdb00;fill-rule:evenodd;stroke:#010101;stroke-width:0.49970001;stroke-linejoin:round;stroke-miterlimit:2.41420007;fill-opacity:1" /><line
   stroke-miterlimit="2.4142"
   x1="10.595"
   y1="44.464001"
   x2="10.87"
   y2="41.535"
   id="line2264"
   style="fill:none;stroke:#000000;stroke-width:0.49970001;stroke-linejoin:round;stroke-miterlimit:2.41420007" /><line
   stroke-miterlimit="2.4142"
   x1="12.834"
   y1="44.491001"
   x2="12.651"
   y2="41.351002"
   id="line2266"
   style="fill:none;stroke:#000000;stroke-width:0.49970001;stroke-linejoin:round;stroke-miterlimit:2.41420007" /><line
   stroke-miterlimit="2.4142"
   x1="14.747"
   y1="44.097"
   x2="14.079"
   y2="41.298"
   id="line2268"
   style="fill:none;stroke:#000000;stroke-width:0.49970001;stroke-linejoin:round;stroke-miterlimit:2.41420007" /><line
   stroke-miterlimit="2.4142"
   x1="16.266001"
   y1="42.926998"
   x2="15.362"
   y2="41.049"
   id="line2270"
   style="fill:none;stroke:#000000;stroke-width:0.49970001;stroke-linejoin:round;stroke-miterlimit:2.41420007" /><line
   stroke-miterlimit="2.4142"
   x1="17.353001"
   y1="41.193001"
   x2="16.017"
   y2="39.563999"
   id="line2272"
   style="fill:none;stroke:#000000;stroke-width:0.49970001;stroke-linejoin:round;stroke-miterlimit:2.41420007" /><line
   stroke-miterlimit="2.4142"
   x1="8.7349997"
   y1="44.083"
   x2="10.058"
   y2="40.917"
   id="line2274"
   style="fill:none;stroke:#000000;stroke-width:0.49970001;stroke-linejoin:round;stroke-miterlimit:2.41420007" /><line
   stroke-miterlimit="2.4142"
   x1="7.1110001"
   y1="42.941002"
   x2="8.3559999"
   y2="40.445"
   id="line2276"
   style="fill:none;stroke:#000000;stroke-width:0.49970001;stroke-linejoin:round;stroke-miterlimit:2.41420007" /><line
   stroke-miterlimit="2.4142"
   x1="6.1290002"
   y1="41.193001"
   x2="7.5170002"
   y2="39.078999"
   id="line2278"
   style="fill:none;stroke:#000000;stroke-width:0.49970001;stroke-linejoin:round;stroke-miterlimit:2.41420007" /><rect
   x="0.32300001"
   y="0.35699999"
   clip-rule="evenodd"
   stroke-miterlimit="2.4142"
   width="58.678001"
   height="29.562"
   id="rect2280"
   style="fill:#fcdb00;fill-rule:evenodd;stroke:#010101;stroke-width:0.49970001;stroke-linejoin:round;stroke-miterlimit:2.41420007;fill-opacity:1" /><path
   clip-rule="evenodd"
   stroke-miterlimit="2.4142"
   d="M 33.102,29.84 L 16.253,29.84 C 17.561,25.545 20.354,21.63 24.94,18.172 C 24.215,18.016 23.518,17.807 23.003,17.231 C 21.863,18.252 20.516,18.443 19.027,18.068 C 17.304,19.308 16.092,19.444 15.626,17.964 C 16.742,17.179 17.929,16.464 19.184,15.818 C 17.388,15.842 15.592,15.777 13.795,15.452 C 13.482,15.4 13.376,14.999 13.482,14.249 C 12.514,13.455 13.203,12.749 13.586,12.052 C 14.108,11.092 14.807,10.517 15.679,10.325 C 16.786,9.692 17.938,9.126 19.184,8.703 C 19.778,8.488 20.371,8.238 20.963,7.813 C 23.077,6.292 25.318,5.183 27.712,4.569 C 28.933,3.741 30.171,2.938 31.532,2.319 C 31.366,3.348 30.913,4.378 30.328,5.406 C 31.803,4.751 32.971,3.865 33.886,2.791 C 34.218,4.063 33.886,5.337 33.102,6.61 C 34.262,6.312 35.396,6.136 36.346,6.819 C 37.043,7.098 37.741,7.133 38.439,6.923 C 39.398,6.509 40.357,6.553 41.316,7.604 C 40.484,7.342 39.672,7.342 38.91,7.917 C 38.374,8.566 37.789,8.977 37.183,9.277 C 37.632,9.949 38.321,10.315 39.537,10.009 C 40.592,9.599 41.429,9.582 41.787,10.428 C 41.943,10.968 42.345,11.23 42.99,11.213 C 42.484,11.606 41.943,11.649 41.368,11.344 C 40.775,10.69 40.217,10.698 39.694,11.369 C 39.174,12.006 38.416,12.354 37.548,12.572 C 37.962,13.462 38.616,13.585 39.379,13.357 C 40.313,13.093 41.186,13.005 41.629,14.142 C 41.908,15.083 42.466,15.538 43.303,15.502 C 42.737,15.969 42.135,16.117 41.289,15.606 C 40.783,14.928 40.251,15.096 39.745,15.397 C 39.135,16.025 38.349,16.338 37.391,16.338 C 37.853,16.757 38.185,17.175 38.228,17.594 C 38.664,18.215 39.222,18.162 39.798,18.013 C 41.559,17.576 42.413,18.117 42.361,19.634 C 41.919,20.594 41.931,21.553 42.257,22.512 C 41.596,22.414 41.191,21.948 41.158,20.943 C 41.22,19.589 40.898,18.852 40.137,19.74 C 39.748,20.525 38.929,20.734 37.913,20.681 C 38.279,21.008 38.559,21.401 38.645,21.937 C 38.95,22.932 39.517,22.654 39.953,22.827 C 41.313,22.617 41.837,23.42 41.523,25.233 C 41.335,25.866 41.483,26.45 41.785,27.012 C 41.218,26.931 40.764,26.325 40.476,25.337 C 40.334,24.594 39.985,24.3 39.273,24.919 C 38.785,25.32 38.261,25.303 37.704,24.866 C 36.849,24.186 36.169,24.308 35.663,25.232 C 36.262,25.467 36.651,25.852 36.762,26.436 C 36.884,27.338 37.39,27.521 38.071,27.377 C 38.915,27.236 39.651,27.341 40.007,28.318 C 40.042,28.702 40.147,29.086 40.32,29.469 C 39.779,29.234 39.264,28.973 38.934,28.528 C 38.471,28.144 38.08,28.214 37.756,28.737 C 36.886,29.424 35.829,29.484 35.219,28.972 C 34.848,28.326 34.412,28.03 33.832,28.501 C 33.433,28.99 33.224,29.426 33.102,29.84 L 33.102,29.84 z "
   id="path2282"
   style="fill:#010101;fill-rule:evenodd;stroke:#010101;stroke-width:0.49970001;stroke-linejoin:round;stroke-miterlimit:2.41420007" /><path
   clip-rule="evenodd"
   stroke-miterlimit="2.4142"
   d="M 14.79,16.499 C 15.74,16.402 16.656,16.464 17.746,16.577 L 16.046,17.676 C 15.305,17.738 14.703,17.729 14.24,17.651 C 13.691,17.126 13.875,16.743 14.79,16.499 L 14.79,16.499 z "
   id="path2284"
   style="fill:#f00000;fill-rule:evenodd;stroke:#010101;stroke-width:0.49970001;stroke-linejoin:round;stroke-miterlimit:2.41420007;fill-opacity:1" /><path
   clip-rule="evenodd"
   stroke-miterlimit="2.4142"
   d="M 24.625,18.277 C 27.477,18.565 29.491,17.284 30.669,14.431"
   id="path2286"
   style="fill:none;fill-rule:evenodd;stroke:#fcdb00;stroke-width:0.72000003;stroke-linejoin:round;stroke-miterlimit:2.41420007;stroke-opacity:1" /><path
   clip-rule="evenodd"
   stroke-miterlimit="2.4142"
   d="M 21.958,9.54 C 21.53,9.34 21.521,9.069 21.932,8.833 C 22.289,8.587 22.647,8.312 23.004,7.997 C 23.683,7.559 24.445,7.375 25.229,7.918 C 25.769,8.328 26.188,8.79 26.484,9.305 C 25.88,10.659 24.198,10.914 22.822,9.593 C 22.821,9.61 22.009,9.531 21.958,9.54 L 21.958,9.54 z "
   id="path2288"
   style="fill:#ffffff;fill-rule:evenodd;stroke:#010101;stroke-width:0.21600001;stroke-linejoin:round;stroke-miterlimit:2.41420007" /><path
   clip-rule="evenodd"
   stroke-miterlimit="2.4142"
   d="M 15.81,11.344 C 14.681,11.58 14.481,12.774 15.941,12.757 C 16.468,12.669 16.795,12.152 17.04,11.554"
   id="path2290"
   style="fill:none;fill-rule:evenodd;stroke:#ffffff;stroke-width:0.49970001;stroke-linejoin:round;stroke-miterlimit:2.41420007" /><path
   clip-rule="evenodd"
   stroke-miterlimit="2.4142"
   d="M 23.445,8.547 C 23.026,9.476 23.454,9.852 24.676,9.834 C 24.737,9.733 24.872,9.598 24.65,9.427 C 23.928,9.274 24.224,8.981 24.715,8.547 C 24.715,8.421 23.445,8.416 23.445,8.547 L 23.445,8.547 z "
   id="path2292"
   style="fill:#010101;fill-rule:evenodd;stroke:#010101;stroke-width:0.21600001;stroke-linejoin:round;stroke-miterlimit:2.41420007" /><path
   clip-rule="evenodd"
   stroke-miterlimit="2.4142"
   d="M 27.556,4.282 C 28.535,4.639 29.559,4.935 30.747,5.014 C 30.302,5.529 29.849,6.017 29.334,6.322"
   id="path2294"
   style="fill:none;fill-rule:evenodd;stroke:#fcdb00;stroke-width:0.49970001;stroke-linejoin:round;stroke-miterlimit:2.41420007;stroke-opacity:1" /><path
   clip-rule="evenodd"
   stroke-miterlimit="2.4142"
   d="M 31.48,5.982 C 30.756,6.575 30.346,7.203 30.251,7.866 C 30.645,7.806 30.965,7.602 31.219,7.264"
   id="path2296"
   style="fill:none;fill-rule:evenodd;stroke:#fcdb00;stroke-width:0.49970001;stroke-linejoin:round;stroke-miterlimit:2.41420007;stroke-opacity:1" /><path
   clip-rule="evenodd"
   stroke-miterlimit="2.4142"
   d="M 0.36,0.36 L 0.36,40.715 C 4.01,56.054 13.73,64.174 29.52,65.076 C 44.032,64.723 56.03,56.09 59.018,40.53 L 59.018,0.36 L 0.36,0.36 L 0.36,0.36 z "
   id="path2298"
   style="fill:none;fill-rule:evenodd;stroke:#010101;stroke-width:0.72000003;stroke-linejoin:round;stroke-miterlimit:2.41420007" />
</svg>