<?xml version="1.0" encoding="UTF-8"?>
<svg width="406" height="456" xmlns="http://www.w3.org/2000/svg">
<path class="st0" d="M2.5 3v215.5h400V3z" fill="#f00000"/>
<path d="m203.04 9.222c-1.321 0-4.63 13.877-41.63 12.556s-29.73 27.083-26.427 34.351c5.946 11.232 45.59 73.351 45.59 132.81h-4.62s-12.554-103.74-75.318-139.42c-50.874-25.768-79.284 33.703-58.805 70.7 12.553 25.768 50.871 68.046 10.569 71.35 0 0 7.928 17.846 29.731 17.846s29.734-24.445 25.77-46.249c-4.625-21.803 5.952-33.037 21.808-5.948 13.214 23.124 11.227 31.047 11.227 31.047h-5.278v13.885s-9.83-0.65-15.136 15.731h167.7c-5.307-16.38-17.124-15.73-17.124-15.73v-13.886h-5.949s2.643-11.892 13.214-29.731c17.178-29.071 25.765-11.232 20.48 3.303-8.59 23.125 4.624 46.92 26.427 46.92s29.732-17.846 29.732-17.846c-39.642-3.304-1.98-45.583 9.252-70.689 20.482-36.999-8.592-96.468-58.805-70.701-62.766 35.678-75.32 139.42-75.32 139.42h-4.62c2.643-70.033 40.306-121.58 45.592-132.81 3.964-7.268 10.57-35.673-26.428-34.351s-39.648-12.556-41.63-12.556z"/>
<path d="M202.984 15.54c-.355.032-.613.29-.613.29s-8.588 11.234-34.354 10.573c-24.445-.661-37.66 7.267-24.446 33.694 13.213 25.766 40.302 64.747 41.623 128.176 5.693-.043 11.626-.033 16.55-.032V70.945c0-22.224.851-41.384 2-44.448.951 3.08 2 22.224 2 44.448V188.24c5.197-.081 10.737.084 15.787.032 1.322-64.086 28.41-102.407 41.624-128.836s.66-34.354-25.106-33.032c-25.767.66-34.354-10.572-34.354-10.572-.248-.248-.496-.31-.71-.291zM74.438 49.303c-31.799.442-41.328 48.451-24.687 74.219 8.589 13.874 46.907 65.408 10.57 70.032 0 2.643 29.732 24.445 40.963-8.59 4.625-13.213-9.25-39.64 3.303-49.55 15.856-11.893 39.64 27.089 42.943 52.855h8.59c1.321-7.928-32.374-90.514-65.408-89.192-21.802 2.642-15.857 34.356-7.267 55.498 0 0 23.124 46.907-15.195 41.622-2.643-.661-1.322-2.643.66-2.643 0 0 19.16 1.322 15.195-19.82-3.964-21.14-21.803-42.944-9.91-70.032 13.213-27.088 43.606-.001 54.176 15.194 0 0 27.75 38.98 33.034 68.711h9.91S156.781 92.471 99.962 57.451C90.3 51.63 81.776 49.197 74.438 49.3zm257.852.906c-7.343-.146-15.868 2.208-25.53 7.906-56.818 35.677-70.693 130.816-70.693 130.816h9.912c5.285-30.391 33.032-69.37 33.032-69.37 10.57-15.196 40.963-42.286 54.176-15.197 11.893 27.088-6.606 48.891-9.91 70.032-3.964 21.142 15.195 19.82 15.195 19.82 1.321 0 3.305 1.982.662 2.642-37.659 5.286-15.197-41.621-15.197-41.621 8.59-21.142 14.536-52.856-7.267-55.499-33.034-1.321-66.067 82.586-65.406 89.193h7.927c6.607-27.749 30.392-64.747 45.587-52.194 9.91 9.25-4.625 31.713 0 48.892 7.928 31.052 40.963 14.533 42.284 8.587-35.016-3.964 1.983-56.156 10.571-70.03 16.105-25.767 6.476-73.341-25.343-73.975zM140.426 192.895v9.25h125.146v-9.25H140.426zm-.154 13.874c-2.643 0-11.232 4.625-11.893 11.893h150.635c-.66-7.268-9.25-11.893-11.892-11.893H140.276z" clip-rule="evenodd" fill="#fff"/>
<path class="st0" d="M402.5 218.5H2.5V253c0 110.5 89.5 200 200 200s200-89.5 200-200z" fill="#fff" stroke="#000" stroke-width="3"/>
<path class="st0" d="M3 3v250c0 110.5 89.5 200 200 200s200-89.5 200-200V3z" fill="none" stroke="#000" stroke-width="6"/>
</svg>
