<?xml version="1.0" encoding="UTF-8" standalone="no"?>
<!-- Created with Inkscape (http://www.inkscape.org/) -->
<svg
   xmlns:dc="http://purl.org/dc/elements/1.1/"
   xmlns:cc="http://creativecommons.org/ns#"
   xmlns:rdf="http://www.w3.org/1999/02/22-rdf-syntax-ns#"
   xmlns:svg="http://www.w3.org/2000/svg"
   xmlns="http://www.w3.org/2000/svg"
   xmlns:sodipodi="http://sodipodi.sourceforge.net/DTD/sodipodi-0.dtd"
   xmlns:inkscape="http://www.inkscape.org/namespaces/inkscape"
   width="724.95978"
   height="848.92334"
   id="svg2"
   sodipodi:version="0.32"
   inkscape:version="0.45+devel"
   sodipodi:docbase="/home/fundriver"
   sodipodi:docname="Wappen_Winterthur.svg"
   inkscape:output_extension="org.inkscape.output.svg.inkscape"
   version="1.0">
  <defs
     id="defs4">
    <inkscape:perspective
       sodipodi:type="inkscape:persp3d"
       id="perspective2542"
       inkscape:vp_x="-50 : 600 : 1"
       inkscape:vp_y="0 : 1000 : 0"
       inkscape:vp_z="700 : 600 : 1"
       inkscape:persp3d-origin="300 : 400 : 1" />
  </defs>
  <sodipodi:namedview
     id="base"
     pagecolor="#ffffff"
     bordercolor="#666666"
     borderopacity="1.0"
     inkscape:pageopacity="0.0"
     inkscape:pageshadow="2"
     inkscape:zoom="3.1489134"
     inkscape:cx="126.74421"
     inkscape:cy="477.63999"
     inkscape:document-units="px"
     inkscape:current-layer="layer1"
     showgrid="true"
     showguides="true"
     inkscape:window-width="1280"
     inkscape:window-height="949"
     inkscape:window-x="0"
     inkscape:window-y="25"
     inkscape:guide-bbox="true" />
  <metadata
     id="metadata7">
    <rdf:RDF>
      <cc:Work
         rdf:about="">
        <dc:format>image/svg+xml</dc:format>
        <dc:type
           rdf:resource="http://purl.org/dc/dcmitype/StillImage" />
      </cc:Work>
    </rdf:RDF>
  </metadata>
  <g
     inkscape:label="Ebene 1"
     inkscape:groupmode="layer"
     id="layer1"
     transform="translate(-15.886138,-20.071832)">
    <g
       id="g3554" />
    <path
       id="path2308"
       d="M 20.070038,24.098197 L 20.070038,24.098197 L 736.18724,20.071832 L 725.80639,568.92882 C 725.80639,568.92882 713.58568,714.01856 610.65958,792.5286 C 507.73349,871.03863 397.78001,861.81628 387.62715,863.07158 C 377.47427,864.32688 264.45282,869.10165 172.56,813.28038 C 80.667176,757.45911 45.529174,648.4825 45.529174,648.4825 C 45.529174,648.4825 33.671369,593.31504 30.812887,552.05175 C 27.954405,510.78845 20.39619,24.315192 20.070038,24.098197 z "
       style="fill:#ffffff;fill-opacity:1;fill-rule:evenodd;stroke:none;stroke-width:1px;stroke-linecap:butt;stroke-linejoin:miter;stroke-opacity:1" />
    <path
       sodipodi:nodetypes="ccssssscccccccccccssssssssc"
       id="path2291"
       d="M 15.886138,20.240235 C 16.744166,68.573722 16.771463,68.504436 17.206875,93.597531 C 17.884523,135.2707 18.440436,191.97591 19.189929,252.21204 C 20.68893,372.68431 22.827766,507.19034 27.883668,565.50312 C 37.980874,681.96062 74.41106,727.64824 123.65326,780.68082 C 174.20826,835.12723 278.89226,873.93633 386.68251,868.48469 C 493.59469,863.07741 561.361,845.95664 638.50593,773.95536 C 658.80152,755.01298 675.0701,732.11678 687.49012,709.25066 C 703.89754,676.61218 716.93529,641.65362 723.73791,605.66418 C 729.45648,573.77712 729.87671,552.01054 731.00308,525.05318 C 732.22589,497.80245 740.84594,28.967553 740.84594,28.967553 L 740.49683,20.615973 L 732.87612,20.357096 L 15.886138,20.240235 z M 24.514688,29.30901 L 730.05143,30.635102 C 730.05143,30.635102 725.55727,477.7573 721.90581,538.24195 C 720.79309,596.52966 705.66377,653.04572 679.46352,704.93518 C 667.41483,727.11764 658.73421,741.21593 632.36409,767.2464 C 558.63004,840.03075 492.39217,853.98364 386.23156,859.3529 C 280.94903,864.67773 177.96912,825.8192 130.26635,774.44457 C 81.250751,721.65607 46.968014,679.58106 37.013253,564.76669 C 32.043164,507.44354 29.822587,372.49334 28.323909,252.04651 C 27.574573,191.82312 27.019303,135.15516 26.340839,93.432014 C 26.001616,72.570448 25.619035,55.485909 25.194822,43.482439 C 24.982698,37.480694 24.769202,32.737153 24.515421,29.404164 C 24.512445,29.364849 24.517698,29.347952 24.514688,29.30901 z"
       style="fill:#000000;fill-opacity:1;fill-rule:evenodd;stroke:none;stroke-width:3;stroke-linecap:butt;stroke-linejoin:miter;stroke-miterlimit:4;stroke-opacity:1" />
    <path
       id="path5205"
       d="M 686.48995,695.36663 L 56.593602,27.506163 L 23.747303,27.759176 L 24.218348,88.910766 L 646.58707,754.53101 C 646.58707,754.53101 651.16697,749.52781 655.9213,743.53841 C 660.79587,737.39754 659.84044,738.75016 663.66768,733.49852 C 667.6476,728.03738 667.25752,728.73601 670.9198,722.98182 C 674.67639,717.07945 674.32105,718.20983 677.53677,712.46512 C 680.67388,706.86086 681.15691,706.32772 683.12486,702.16924 C 685.15464,697.88012 686.48995,695.36663 686.48995,695.36663 z"
       style="fill:#ff0000;fill-opacity:1;fill-rule:evenodd;stroke:#000000;stroke-width:3.05661583px;stroke-linecap:butt;stroke-linejoin:miter;stroke-opacity:1"
       sodipodi:nodetypes="ccccczzzzzc" />
    <path
       sodipodi:nodetypes="cccccccccccccc"
       id="path8114"
       d="M 389.86126,181.59253 C 402.32224,177.124 397.2554,163.65555 393.93264,154.31786 C 390.03769,139.2844 385.06391,124.94668 395.12673,111.6775 C 401.19351,106.70705 408.10452,109.32107 414.90685,110.0026 C 418.59212,109.97421 421.80021,107.65067 424.77936,106.88147 C 436.86287,101.24581 422.66658,89.311309 416.24169,85.631652 C 409.71856,83.216328 403.58984,88.558476 398.78626,92.617554 C 383.42795,107.18606 368.19277,121.30074 348.83268,130.30461 C 337.32312,137.83111 335.22166,150.00171 335.86029,165.62139 C 341.16794,164.30656 341.53372,163.91597 346.9356,163.29063 C 345.30413,174.14704 339.50471,191.40667 350.31197,198.80759 C 355.68733,201.96542 364.43718,205.31805 370.54074,207.7482 C 376.16478,197.57574 387.69516,193.79062 396.46846,187.03298 C 393.38054,184.39834 392.42723,183.82324 389.86126,181.59253 z "
       style="fill:#ff0000;fill-opacity:1;fill-rule:evenodd;stroke:#000000;stroke-width:3.04499269px;stroke-linecap:butt;stroke-linejoin:miter;stroke-opacity:1" />
    <path
       id="path10056"
       d="M 348.82683,129.54339 C 339.4017,117.62464 349.80244,100.64546 356.13417,89.901007 C 362.97671,83.02771 371.449,77.64119 381.14907,76.005449 C 388.96683,75.046386 403.63463,79.510163 401.80771,89.549188 C 387.50408,99.258076 367.35324,130.471 348.82683,129.54339 z "
       style="fill:#ff0000;fill-opacity:1;fill-rule:evenodd;stroke:#000000;stroke-width:3.04499269px;stroke-linecap:butt;stroke-linejoin:miter;stroke-opacity:1"
       sodipodi:nodetypes="ccccc" />
    <path
       id="path11027"
       d="M 355.36708,89.145656 C 338.80081,80.717608 353.65888,63.702879 368.10855,63.16431 C 367.00349,67.383705 369.99764,74.045407 371.27073,78.365358 C 365.55643,81.614389 361.42418,86.479332 355.36708,89.145656 z "
       style="fill:#ff0000;fill-opacity:1;fill-rule:evenodd;stroke:#000000;stroke-width:3.04499269px;stroke-linecap:butt;stroke-linejoin:miter;stroke-opacity:1"
       sodipodi:nodetypes="cccc" />
    <path
       sodipodi:nodetypes="cccc"
       id="path11998"
       d="M 365.05345,61.861531 C 359.2654,64.632144 360.32722,63.562165 355.95239,66.303023 C 354.65029,61.587294 349.38706,59.085505 345.72452,56.086147 C 350.74633,56.562805 361.47698,57.409467 365.05345,61.861531 z "
       style="fill:#ff0000;fill-opacity:1;fill-rule:evenodd;stroke:#000000;stroke-width:3.04499269px;stroke-linecap:butt;stroke-linejoin:miter;stroke-opacity:1" />
    <path
       id="path12972"
       d="M 372.02611,77.59826 C 385.85994,73.75778 391.78161,79.836019 393.229,62.97081 C 392.62817,56.821895 386.60805,50.377978 380.20021,51.652097 C 372.92087,53.558019 369.74605,59.39596 368.132,66.209204 C 367.15323,70.256565 368.02802,73.661318 372.02611,77.59826 z "
       style="fill:#ff0000;fill-opacity:1;fill-rule:evenodd;stroke:#000000;stroke-width:3.04499269px;stroke-linecap:butt;stroke-linejoin:miter;stroke-opacity:1"
       sodipodi:nodetypes="ccccc" />
    <path
       sodipodi:nodetypes="cccc"
       id="path19757"
       d="M 380.18848,50.129651 C 384.37396,43.780177 379.90978,39.472825 377.37773,34.713653 C 387.40002,34.298645 393.14088,48.662695 390.34378,55.902788 C 387.56242,53.163965 386.08074,51.260977 380.18848,50.129651 z "
       style="color:#000000;fill:#ff0000;fill-opacity:1;fill-rule:evenodd;stroke:#000000;stroke-width:3.04499269px;stroke-linecap:butt;stroke-linejoin:miter;marker:none;marker-start:none;marker-mid:none;marker-end:none;stroke-miterlimit:4;stroke-dasharray:none;stroke-dashoffset:0;stroke-opacity:1;visibility:visible;display:inline;overflow:visible;enable-background:accumulate" />
    <path
       id="path19763"
       d="M 388.82202,75.294082 C 392.64243,71.611254 392.95219,67.376605 393.229,62.97081 C 395.79678,54.143954 406.25783,55.991499 412.64364,59.179792 C 416.34245,61.751933 418.31995,65.213844 418.40224,69.628327 C 418.10382,73.65029 406.73171,90.827254 402.15902,85.740129 C 399.87488,81.281573 393.77764,77.946527 388.82202,75.294082 z "
       style="color:#000000;fill:#ff0000;fill-opacity:1;fill-rule:evenodd;stroke:#000000;stroke-width:3.04499269px;stroke-linecap:butt;stroke-linejoin:miter;marker:none;marker-start:none;marker-mid:none;marker-end:none;stroke-miterlimit:4;stroke-dasharray:none;stroke-dashoffset:0;stroke-opacity:1;visibility:visible;display:inline;overflow:visible;enable-background:accumulate"
       sodipodi:nodetypes="cccccc" />
    <path
       sodipodi:nodetypes="cccc"
       id="path19777"
       d="M 414.75975,41.48937 C 421.59828,48.675713 422.84201,57.884262 418.65191,66.642955 C 417.60548,64.00578 415.47643,61.057176 413.75278,59.006348 C 415.4635,53.340811 414.57645,47.329151 414.75975,41.48937 z "
       style="color:#000000;fill:#ff0000;fill-opacity:1;fill-rule:evenodd;stroke:#000000;stroke-width:3.04499269px;stroke-linecap:butt;stroke-linejoin:miter;marker:none;marker-start:none;marker-mid:none;marker-end:none;stroke-miterlimit:4;stroke-dasharray:none;stroke-dashoffset:0;stroke-opacity:1;visibility:visible;display:inline;overflow:visible;enable-background:accumulate" />
    <path
       id="path19783"
       d="M 425.80684,92.028778 C 432.65301,90.914699 434.79256,87.287512 436.76546,81.667209 C 438.66641,89.470447 436.72052,97.006415 429.21342,103.53163 C 430.06314,98.798795 428.89889,95.798194 425.80684,92.028778 z "
       style="color:#000000;fill:#ff0000;fill-opacity:1;fill-rule:evenodd;stroke:#000000;stroke-width:3.04499269px;stroke-linecap:butt;stroke-linejoin:miter;marker:none;marker-start:none;marker-mid:none;marker-end:none;stroke-miterlimit:4;stroke-dasharray:none;stroke-dashoffset:0;stroke-opacity:1;visibility:visible;display:inline;overflow:visible;enable-background:accumulate"
       sodipodi:nodetypes="cccc" />
    <path
       sodipodi:nodetypes="ccccccccccccccccccccccsscccccccccccccccccccccccccccccccccccccccccccccccccccsccscccccccc"
       id="path19795"
       d="M 279.04036,162.05431 C 270.96091,150.73343 270.59817,136.91833 266.56757,124.08686 C 263.71494,108.16949 269.36332,104.84722 251.16714,101.36736 C 244.4878,100.8095 239.38912,108.24948 236.79767,113.65837 C 235.87368,121.15111 251.06889,133.95339 256.14675,141.54651 C 249.0324,133.91267 241.79903,126.50095 234.55506,119.00454 C 231.26114,117.65426 226.80591,122.27093 226.21088,122.87519 C 218.73733,132.83984 221.95324,140.44381 228.6998,149.50047 C 237.31798,153.55246 245.49872,158.76188 254.67528,161.48072 C 246.44472,159.48612 240.03265,153.44915 231.76229,151.7607 C 227.02453,151.79719 225.79226,153.10975 224.18522,156.38669 C 222.79086,168.50019 236.72071,179.31564 245.72233,185.14909 C 251.90017,188.76159 254.25466,195.47073 258.02509,201.041 C 264.22667,207.87981 271.82045,214.11746 280.97913,216.0896 C 285.45374,217.1717 285.56624,218.6191 285.60512,223.66667 C 289.35558,231.96011 300.50075,243.35914 307.60912,249.07376 C 308.23312,245.05512 307.28973,241.27266 307.02497,237.20454 C 312.35222,244.66216 326.3903,264.12766 332.3414,269.55111 C 333.30691,264.33661 333.84973,260.60789 333.82619,257.55242 C 343.21321,270.78573 358.2965,290.08869 370.34197,301.06723 C 371.69201,296.94681 371.1095,292.85304 371.16006,288.68309 C 376.9473,297.39429 384.22314,303.7717 392.84516,309.62546 C 398.71863,314.355 408.51963,318.45399 414.19464,314.02862 C 417.2239,311.6664 416.62512,310.40804 417.18678,307.15415 C 417.92588,302.87232 417.18095,307.94868 417.90696,303.24877 C 421.22313,305.92701 424.60999,307.6884 427.25908,309.99675 C 455.02563,330.80847 492.82549,337.01341 521.91498,316.14467 C 515.92102,322.39781 505.90364,325.13125 497.64642,328.15636 C 536.92206,338.11164 569.76815,360.92548 601.86366,384.7217 C 602.68237,377.19269 600.30752,365.52651 595.72989,359.82907 C 593.77417,357.90332 599.11272,365.3769 600.35909,367.82231 C 606.83351,395.30038 597.86952,423.01296 598.74343,450.62325 C 601.55692,446.7347 600.89295,446.68413 603.56063,443.67323 C 604.13499,460.5098 607.94419,477.55972 616.54201,492.12987 C 617.00666,488.42798 621.58592,477.02561 624.85643,471.30907 C 627.14967,492.31554 653.15824,498.99443 657.09805,519.22321 C 657.20031,530.42719 657.25314,538.8857 657.32087,548.14979 C 657.35375,552.41906 655.70738,555.15861 653.58511,557.31381 C 643.59995,569.78434 631.30308,564.8367 618.59807,561.38967 C 610.63762,560.31991 606.68803,563.56365 604.20515,570.63578 C 602.83516,578.91121 608.84694,584.82155 615.75839,588.056 C 620.7126,590.48563 621.18363,588.1608 625.94256,584.65001 C 627.74848,584.32956 648.92817,579.33054 637.03166,582.56326 C 621.83832,584.10195 617.78954,586.3915 625.77158,603.20431 C 632.57395,611.27371 643.04537,609.5959 650.13081,603.01667 C 654.01911,598.64779 658.07503,594.50847 660.68243,589.23252 C 662.91564,584.67869 660.79506,591.41965 659.1893,593.05037 C 654.31661,598.40352 650.27453,604.00636 657.03462,609.81492 C 665.50586,615.59277 675.37987,614.77615 680.59742,605.0658 C 678.89059,590.23144 682.05914,592.3461 687.29014,584.45993 C 697.08897,572.7626 696.34316,559.17369 696.11991,544.80583 C 696.39936,537.66823 700.37788,531.1943 703.57974,524.95534 C 706.25298,518.8864 705.45688,512.30987 703.57095,506.17101 C 700.46938,508.26821 697.48839,509.71874 694.33948,511.32365 C 693.96295,507.27058 696.53159,489.39516 699.27855,479.37997 C 694.39813,481.95759 696.83407,481.11924 691.37289,484.20323 C 691.75347,474.30118 691.73784,464.75626 690.09944,455.02227 C 687.13692,460.83542 681.07683,466.38429 674.18408,464.2801 C 667.273,461.6225 665.96943,453.44102 665.67572,446.83642 C 664.01149,428.85018 662.95946,409.564 653.95201,393.56147 C 673.38047,417.42658 700.85269,413.36921 704.00567,382.59444 C 700.90633,322.79848 661.29451,275.82769 650.96407,217.04598 C 650.49582,210.71202 654.45846,204.13347 659.97564,200.98988 C 684.08768,189.72 706.82482,165.39102 695.72194,137.77889 C 688.1106,147.33395 681.71088,157.77362 674.18093,167.38456 C 680.38021,158.97601 686.72249,151.62957 689.20606,141.38563 C 694.36396,122.24494 684.44611,107.56423 667.76188,98.832321 C 671.69887,113.77576 667.55997,129.58551 657.22874,140.87066 C 642.98139,155.6416 635.2058,174.17694 632.51873,194.34997 C 639.94599,250.96485 664.3827,302.89197 685.52518,355.33103 C 688.64871,365.61893 691.50505,378.99975 682.72654,387.32596 C 668.07777,393.68478 661.24448,379.02529 654.59017,368.90342 C 636.16393,344.43407 616.562,320.93792 595.26079,298.93103 C 587.58298,290.86406 581.14418,281.52772 572.23637,274.74772 C 567.45025,271.20964 562.95202,267.31645 558.44636,263.4349 C 555.81305,261.16631 554.85567,261.01044 552.32797,259.77083 C 551.21209,259.22361 547.2199,262.89965 545.223,263.91739 C 540.18994,267.13986 537.93605,272.89827 532.65851,275.81387 C 527.30837,278.49288 526.93697,275.17069 526.53426,271.38857 C 525.56298,262.26681 525.00735,262.77405 521.18737,269.05078 C 514.27068,278.66782 490.44356,287.91681 478.34743,291.36247 C 475.51783,292.19701 476.64506,291.59537 470.31257,291.19966 C 471.04142,287.75863 477.38157,279.71256 470.37642,281.90799 C 448.73729,289.91121 425.45458,291.36777 403.62844,283.75101 C 407.69527,275.41036 415.72561,271.76667 416.84082,261.79274 C 417.72743,248.13056 414.96874,234.00548 402.1078,227.33688 C 364.28165,199.09292 316.20216,191.24189 279.04036,162.05431 z"
       style="color:#000000;fill:#ff0000;fill-opacity:1;fill-rule:evenodd;stroke:#000000;stroke-width:3.04499269px;stroke-linecap:butt;stroke-linejoin:miter;marker:none;marker-start:none;marker-mid:none;marker-end:none;stroke-miterlimit:4;stroke-dasharray:none;stroke-dashoffset:0;stroke-opacity:1;visibility:visible;display:inline;overflow:visible;enable-background:accumulate" />
    <path
       id="path21757"
       d="M 274.52288,152.82285 C 270.62445,145.42719 269.65034,137.60321 269.65351,129.39198 C 273.99087,112.41677 286.58343,113.42392 298.53904,123.84059 C 300.53071,125.80183 301.64422,130.69727 302.4214,133.7072 C 303.524,137.97758 299.24006,140.77353 296.39022,141.36635 C 288.19423,143.36141 281.00174,147.51942 274.52288,152.82285 z "
       style="color:#000000;fill:#ff0000;fill-opacity:1;fill-rule:evenodd;stroke:#000000;stroke-width:3.04499269px;stroke-linecap:butt;stroke-linejoin:miter;marker:none;marker-start:none;marker-mid:none;marker-end:none;stroke-miterlimit:4;stroke-dasharray:none;stroke-dashoffset:0;stroke-opacity:1;visibility:visible;display:inline;overflow:visible;enable-background:accumulate"
       sodipodi:nodetypes="cccscc" />
    <path
       sodipodi:nodetypes="cccc"
       id="path21763"
       d="M 297.6073,122.64158 C 303.86703,121.06983 304.59035,115.47874 307.26235,110.6379 C 309.57469,120.80231 309.37099,128.54166 302.64673,136.35626 C 301.33854,129.677 300.54689,127.12949 297.6073,122.64158 z "
       style="color:#000000;fill:#ff0000;fill-opacity:1;fill-rule:evenodd;stroke:#000000;stroke-width:3.04499269px;stroke-linecap:butt;stroke-linejoin:miter;marker:none;marker-start:none;marker-mid:none;marker-end:none;stroke-miterlimit:4;stroke-dasharray:none;stroke-dashoffset:0;stroke-opacity:1;visibility:visible;display:inline;overflow:visible;enable-background:accumulate" />
    <path
       id="path21767"
       d="M 262.00068,104.52166 C 261.54445,95.34718 250.97947,89.741025 243.21227,87.045697 C 246.91611,91.34785 249.15034,95.454958 249.91784,101.12105 C 255.67999,101.99334 257.82564,102.36079 262.00068,104.52166 z "
       style="color:#000000;fill:#ff0000;fill-opacity:1;fill-rule:evenodd;stroke:#000000;stroke-width:3.04499269px;stroke-linecap:butt;stroke-linejoin:miter;marker:none;marker-start:none;marker-mid:none;marker-end:none;stroke-miterlimit:4;stroke-dasharray:none;stroke-dashoffset:0;stroke-opacity:1;visibility:visible;display:inline;overflow:visible;enable-background:accumulate"
       sodipodi:nodetypes="cccc" />
    <path
       id="path21785"
       d="M 231.5311,118.14655 C 224.80645,113.21147 217.70642,114.42866 210.24364,116.60267 C 215.62857,118.11194 221.12351,119.28511 225.73586,122.53801 C 228.78455,119.9156 228.00012,121.62877 231.5311,118.14655 z "
       style="color:#000000;fill:#ff0000;fill-opacity:1;fill-rule:evenodd;stroke:#000000;stroke-width:3.04499269px;stroke-linecap:butt;stroke-linejoin:miter;marker:none;marker-start:none;marker-mid:none;marker-end:none;stroke-miterlimit:4;stroke-dasharray:none;stroke-dashoffset:0;stroke-opacity:1;visibility:visible;display:inline;overflow:visible;enable-background:accumulate"
       sodipodi:nodetypes="cccc" />
    <path
       id="path21789"
       d="M 224.16763,154.103 C 217.55434,153.66376 213.93388,158.25039 210.15202,162.79439 C 213.29125,161.62887 219.21101,160.1619 222.68623,159.44332 C 223.03832,159.41357 223.8677,157.66465 224.16763,154.103 z "
       style="color:#000000;fill:#ff0000;fill-opacity:1;fill-rule:evenodd;stroke:#000000;stroke-width:3.04499269px;stroke-linecap:butt;stroke-linejoin:miter;marker:none;marker-start:none;marker-mid:none;marker-end:none;stroke-miterlimit:4;stroke-dasharray:none;stroke-dashoffset:0;stroke-opacity:1;visibility:visible;display:inline;overflow:visible;enable-background:accumulate"
       sodipodi:nodetypes="cccc" />
    <path
       sodipodi:nodetypes="cccccccccccccccccccccccccc"
       id="path21795"
       d="M 461.75836,176.04206 C 458.47764,170.20747 454.12174,165.07083 448.75285,161.01852 C 468.0995,160.39572 483.62601,172.3126 498.44923,183.20235 C 495.63927,176.22441 493.9024,171.59822 492.28656,166.53616 C 497.77054,170.67344 527.48918,184.72273 529.13957,171.16646 C 554.6836,196.68056 572.27401,182.25412 582.3839,154.82392 C 588.29597,143.81692 597.03345,135.16674 607.04108,127.87318 C 613.47256,123.74664 621.34574,126.44215 627.45298,129.68097 C 640.16508,136.65867 632.27835,152.37027 620.02249,153.33759 C 612.17048,155.44286 616.13492,163.32356 617.09487,168.58556 C 617.44977,184.22853 612.15187,193.10348 605.20259,205.97942 C 604.37032,202.83462 603.00128,200.8787 601.58998,196.79692 C 590.6365,217.51704 586.58474,230.50809 569.49365,246.8165 C 568.09007,242.22111 569.31443,241.83111 566.59116,233.6826 C 556.59671,255.07001 548.16828,265.48738 528.07983,278.28984 C 525.56313,272.41309 527.05749,267.06234 526.12801,260.98654 C 518.36657,276.71024 488.30213,292.70119 470.73355,291.34282 C 472.22368,286.01672 474.9239,282.62425 476.21009,279.35335 C 461.94001,284.76036 447.1084,288.49105 432.2823,290.28992 C 425.27065,289.66189 418.473,288.53789 411.69989,286.64211 C 406.14192,285.29804 408.49793,285.8193 402.66061,284.31082 C 416.17492,270.05684 419.6294,261.52229 414.39882,241.70635 C 407.81114,226.54444 384.73413,214.87265 370.62709,207.3302 C 380.06701,193.31283 389.18796,194.00678 396.7532,186.93563 C 396.86245,186.82471 393.62243,185.18075 390.47103,181.90304 C 413.75269,165.71324 435.52041,168.7849 461.75836,176.04206 z"
       style="color:#000000;fill:#ff0000;fill-opacity:1;fill-rule:evenodd;stroke:#000000;stroke-width:3.04499269px;stroke-linecap:butt;stroke-linejoin:miter;marker:none;marker-start:none;marker-mid:none;marker-end:none;stroke-miterlimit:4;stroke-dasharray:none;stroke-dashoffset:0;stroke-opacity:1;visibility:visible;display:inline;overflow:visible;enable-background:accumulate" />
    <path
       sodipodi:nodetypes="cssccsccccccsccccccc"
       id="path22770"
       d="M 518.05931,159.45189 C 516.00935,156.76206 511.29547,157.22019 507.38456,157.25032 C 501.47051,157.29588 503.56673,155.76084 503.52566,150.42862 C 503.49425,146.35144 502.93301,141.88269 503.44357,139.77143 C 515.37888,142.56521 522.42,155.65521 535.53232,154.74969 C 538.28675,153.34585 539.36102,146.77228 540.01758,144.05734 C 541.26465,138.90056 542.93804,136.55584 545.25233,131.83669 C 549.40446,125.12647 551.19907,118.311 549.65551,110.48719 C 544.29186,106.03339 533.95672,110.18311 526.80702,109.14063 C 523.34451,108.47584 521.43855,104.0035 521.40807,100.04698 C 525.07977,93.932424 530.32038,85.507907 538.03777,84.693467 C 545.50624,84.443147 551.23413,90.53199 558.62603,89.102509 C 562.81449,88.021057 563.12981,86.022722 568.49852,85.981367 C 573.95821,85.939311 575.57422,87.934675 579.18499,89.705421 C 590.89049,95.04105 598.41331,105.33307 607.53797,113.84768 C 609.23269,115.51648 603.34213,116.44211 611.3793,118.3857 C 616.93479,120.39121 621.68419,122.60542 625.15172,127.41488 C 603.74415,123.55036 598.64648,134.71492 585.73216,149.0341 C 573.93509,170.2363 577.28381,189.10044 547.17937,184.34953 C 535.40807,179.16891 526.55068,168.87098 518.05931,159.45189 z"
       style="color:#000000;fill:#ff0000;fill-opacity:1;fill-rule:evenodd;stroke:#000000;stroke-width:3.04499269px;stroke-linecap:butt;stroke-linejoin:miter;marker:none;marker-start:none;marker-mid:none;marker-end:none;stroke-miterlimit:4;stroke-dasharray:none;stroke-dashoffset:0;stroke-opacity:1;visibility:visible;display:inline;overflow:visible;enable-background:accumulate" />
    <path
       id="path21799"
       d="M 589.28615,116.27207 C 585.12167,114.42561 582.30071,111.26782 579.32572,107.97483 C 575.73444,104.43844 572.87146,104.69573 570.37868,100.6127 C 564.72595,91.353873 571.45331,97.86115 573.58575,98.376831 C 576.80153,99.154526 567.32164,96.648229 564.01327,96.673713 C 561.86019,96.690298 569.12191,99.113093 568.6158,101.2059 C 567.61584,105.34083 565.60347,105.45942 565.64125,110.36405 C 565.66888,113.95067 569.26514,115.17466 571.77796,116.40694 C 577.56357,119.24423 578.99953,114.57788 576.63357,112.24807 C 573.96566,109.62094 572.71736,105.87158 577.04203,107.99243 C 577.60143,108.26676 579.05996,111.70961 582.40581,112.51872 C 584.75176,113.08604 586.22522,115.07499 589.28615,116.27207 z "
       style="color:#000000;fill:#ffffff;fill-opacity:1;fill-rule:evenodd;stroke:#000000;stroke-width:3.04499269px;stroke-linecap:butt;stroke-linejoin:miter;marker:none;marker-start:none;marker-mid:none;marker-end:none;stroke-miterlimit:4;stroke-dasharray:none;stroke-dashoffset:0;stroke-opacity:1;visibility:visible;display:inline;overflow:visible;enable-background:accumulate"
       sodipodi:nodetypes="ccsssssssssc" />
    <path
       id="path23747"
       d="M 539.21666,109.81978 C 532.13943,110.20302 525.33183,109.76873 523.37329,106.64453 C 522.7727,110.29295 523.12452,113.897 524.02851,117.4593 C 529.45294,112.29294 526.50071,115.8282 530.47771,111.61786 C 530.96145,116.93461 531.70546,117.84025 531.97839,120.91136 C 534.25171,117.96021 536.97144,115.62408 539.21666,109.81978 z "
       style="color:#000000;fill:#ff0000;fill-opacity:1;fill-rule:evenodd;stroke:#000000;stroke-width:3.04499269px;stroke-linecap:butt;stroke-linejoin:miter;marker:none;marker-start:none;marker-mid:none;marker-end:none;stroke-miterlimit:4;stroke-dasharray:none;stroke-dashoffset:0;stroke-opacity:1;visibility:visible;display:inline;overflow:visible;enable-background:accumulate"
       sodipodi:nodetypes="cccccc" />
    <path
       id="path23751"
       d="M 528.66955,153.27999 C 528.42276,150.79366 527.03441,145.223 526.13329,140.32406 C 523.24106,142.81319 522.17929,143.66763 519.88718,146.20273 C 519.58956,142.84589 518.77038,137.42406 518.30493,135.48853 C 514.90641,138.93982 513.07666,139.28262 509.82187,142.15394 C 514.444,145.97436 523.33208,151.50985 528.66955,153.27999 z "
       style="color:#000000;fill:#ff0000;fill-opacity:1;fill-rule:evenodd;stroke:#000000;stroke-width:3.04499269px;stroke-linecap:butt;stroke-linejoin:miter;marker:none;marker-start:none;marker-mid:none;marker-end:none;stroke-miterlimit:4;stroke-dasharray:none;stroke-dashoffset:0;stroke-opacity:1;visibility:visible;display:inline;overflow:visible;enable-background:accumulate"
       sodipodi:nodetypes="cccccc" />
    <path
       sodipodi:nodetypes="ccccssccccc"
       id="path23755"
       d="M 540.10175,142.62932 C 532.39634,131.35193 519.49481,128.64799 508.63727,122.22222 C 503.2031,118.90774 498.04833,114.96167 492.56945,111.68818 C 481.75921,106.23378 470.8732,100.43405 461.96798,92.130871 C 459.15713,89.363008 458.88576,87.309428 458.84686,82.258393 C 458.81613,78.268445 463.85182,78.111174 467.19102,78.38777 C 468.1402,78.466385 470.46941,83.320782 471.81114,85.203606 C 478.5511,96.307335 490.54072,101.3708 500.16411,109.34586 C 508.67864,113.71984 515.4562,120.32389 523.87939,124.38863 C 529.15694,127.86113 532.93022,133.10811 537.68112,137.2239 C 540.41281,139.44167 541.27248,136.53183 540.10175,142.62932 z"
       style="color:#000000;fill:#ff0000;fill-opacity:1;fill-rule:evenodd;stroke:#000000;stroke-width:3.04499269px;stroke-linecap:butt;stroke-linejoin:miter;marker:none;marker-start:none;marker-mid:none;marker-end:none;stroke-miterlimit:4;stroke-dasharray:none;stroke-dashoffset:0;stroke-opacity:1;visibility:visible;display:inline;overflow:visible;enable-background:accumulate" />
    <path
       sodipodi:nodetypes="ccccccccccccccccccccccccccc"
       id="path23757"
       d="M 533.09271,480.2359 C 532.34019,474.87175 530.77006,469.77466 529.11457,465.14658 C 541.12343,474.08458 554.58965,479.71974 568.41876,485.08818 C 568.00293,480.50978 564.54504,475.58402 561.55786,469.71528 C 592.00244,472.22023 596.92389,481.11421 580.49469,457.38908 C 577.42578,451.52922 572.00243,446.17969 572.74171,439.1783 C 574.6181,433.58535 576.19174,423.10379 582.49693,420.83266 C 589.19398,420.2635 597.24431,419.16279 599.9733,412.48896 C 601.33595,406.5519 603.07062,397.96824 600.54351,391.76536 C 589.17726,388.64391 570.6419,380.22258 560.88337,375.42463 C 568.48249,374.61493 580.64203,375.76494 588.36445,375.27795 C 572.37431,364.21884 552.07674,362.70065 533.25819,364.63547 C 536.63789,366.82932 540.22856,369.55592 541.68916,373.19795 C 521.58931,374.69909 515.41437,382.6306 514.77043,399.85798 C 517.39396,398.804 522.48584,399.04177 526.94887,399.34981 C 527.96286,405.34126 531.33136,418.6829 526.17794,422.78902 C 504.86927,420.1507 480.03386,405.39206 473.34848,383.6099 C 472.8228,375.99629 480.30969,373.81767 486.20135,372.09183 C 494.4652,365.37194 488.40098,360.29299 480.76722,358.43081 C 473.58588,356.88837 467.23463,356.47285 460.21413,358.58913 C 453.68843,360.27407 454.93062,362.40424 452.66639,367.02124 C 450.86807,374.16023 454.39678,380.97692 457.51228,387.08962 C 467.12699,408.51857 477.3352,408.03893 472.95666,431.57295 C 471.46116,442.60938 481.47814,448.57585 489.1183,454.28659 C 491.46197,456.59444 494.2275,459.0047 498.74241,461.47367 C 498.57557,456.16999 498.6201,456.67372 498.58231,450.65755 C 507.73679,462.65009 521.16966,472.19353 533.09271,480.2359 z"
       style="color:#000000;fill:#ff0000;fill-opacity:1;fill-rule:evenodd;stroke:#000000;stroke-width:3.04499269px;stroke-linecap:butt;stroke-linejoin:miter;marker:none;marker-start:none;marker-mid:none;marker-end:none;stroke-miterlimit:4;stroke-dasharray:none;stroke-dashoffset:0;stroke-opacity:1;visibility:visible;display:inline;overflow:visible;enable-background:accumulate" />
    <path
       sodipodi:nodetypes="cccscc"
       id="path23767"
       d="M 601.29301,390.23705 C 598.14065,390.3026 594.21263,388.33485 589.85117,387.28012 C 582.97653,384.57408 576.16369,381.69377 569.23357,379.06495 C 555.94627,374.57853 564.06633,374.90591 573.00433,374.44457 C 577.31213,374.21798 581.63759,375.16304 585.95122,375.12982 C 590.82611,378.23065 604.94237,382.67097 601.29301,390.23705 z "
       style="color:#000000;fill:#ff0000;fill-opacity:1;fill-rule:evenodd;stroke:#000000;stroke-width:3.04499269px;stroke-linecap:butt;stroke-linejoin:miter;marker:none;marker-start:none;marker-mid:none;marker-end:none;stroke-miterlimit:4;stroke-dasharray:none;stroke-dashoffset:0;stroke-opacity:1;visibility:visible;display:inline;overflow:visible;enable-background:accumulate" />
    <path
       id="path23773"
       d="M 663.14787,613.60683 C 660.7955,620.06643 660.29664,620.86883 660.13521,630.85476 C 656.44151,624.30998 654.23021,615.53846 655.60102,608.11972 C 657.75825,610.93951 659.65764,612.30762 663.14787,613.60683 z "
       style="color:#000000;fill:#ff0000;fill-opacity:1;fill-rule:evenodd;stroke:#000000;stroke-width:3.04499269px;stroke-linecap:butt;stroke-linejoin:miter;marker:none;marker-start:none;marker-mid:none;marker-end:none;stroke-miterlimit:4;stroke-dasharray:none;stroke-dashoffset:0;stroke-opacity:1;visibility:visible;display:inline;overflow:visible;enable-background:accumulate"
       sodipodi:nodetypes="cccc" />
    <path
       id="path23775"
       d="M 623.45859,599.41576 C 617.63287,600.09463 615.70565,601.91882 612.08712,605.59352 C 610.90702,598.75688 611.86033,593.45175 616.56404,588.46699 C 621.75749,588.48093 621.45323,588.02959 623.38236,586.97929 C 619.75623,593.20183 623.42081,594.51108 623.45859,599.41576 z "
       style="color:#000000;fill:#ff0000;fill-opacity:1;fill-rule:evenodd;stroke:#000000;stroke-width:3.04499269px;stroke-linecap:butt;stroke-linejoin:miter;marker:none;marker-start:none;marker-mid:none;marker-end:none;stroke-miterlimit:4;stroke-dasharray:none;stroke-dashoffset:0;stroke-opacity:1;visibility:visible;display:inline;overflow:visible;enable-background:accumulate"
       sodipodi:nodetypes="ccccc" />
    <path
       sodipodi:nodetypes="cccc"
       id="path23781"
       d="M 605.71922,565.77768 C 599.07058,562.16935 595.92508,562.9096 591.25142,564.98783 C 601.49722,551.39039 604.65339,554.02784 615.90813,560.97196 C 610.09981,561.91318 610.75582,562.11416 605.71922,565.77768 z "
       style="color:#000000;fill:#ff0000;fill-opacity:1;fill-rule:evenodd;stroke:#000000;stroke-width:3.04499269px;stroke-linecap:butt;stroke-linejoin:miter;marker:none;marker-start:none;marker-mid:none;marker-end:none;stroke-miterlimit:4;stroke-dasharray:none;stroke-dashoffset:0;stroke-opacity:1;visibility:visible;display:inline;overflow:visible;enable-background:accumulate" />
    <path
       id="path23801"
       d="M 652.0744,558.84799 C 648.10264,560.96291 645.23585,560.5228 645.18817,554.33341 C 645.15453,549.96545 644.80041,546.82509 643.58948,544.44921 C 641.8729,541.08108 638.03529,539.96251 634.42548,540.71344 C 619.52787,547.39014 619.59741,564.1576 636.90852,566.57751 C 643.07907,565.73003 648.30862,563.65585 652.0744,558.84799 z "
       style="color:#000000;fill:#ff0000;fill-opacity:1;fill-rule:evenodd;stroke:#000000;stroke-width:3.04499269px;stroke-linecap:butt;stroke-linejoin:miter;marker:none;marker-start:none;marker-mid:none;marker-end:none;stroke-miterlimit:4;stroke-dasharray:none;stroke-dashoffset:0;stroke-opacity:1;visibility:visible;display:inline;overflow:visible;enable-background:accumulate"
       sodipodi:nodetypes="cssccc" />
    <path
       sodipodi:nodetypes="cccc"
       id="path23809"
       d="M 625.58906,548.16541 C 630.85975,536.91127 626.34336,539.16949 620.71169,539.29652 C 628.90655,532.10462 638.36731,536.06492 641.7366,542.20657 C 636.4704,542.48148 629.64927,543.31017 625.58906,548.16541 z "
       style="color:#000000;fill:#ff0000;fill-opacity:1;fill-rule:evenodd;stroke:#000000;stroke-width:3.04499269px;stroke-linecap:butt;stroke-linejoin:miter;marker:none;marker-start:none;marker-mid:none;marker-end:none;stroke-miterlimit:4;stroke-dasharray:none;stroke-dashoffset:0;stroke-opacity:1;visibility:visible;display:inline;overflow:visible;enable-background:accumulate" />
    <path
       sodipodi:nodetypes="cccsccscc"
       id="path23815"
       d="M 452.65466,365.49879 C 444.80391,368.28896 439.12342,369.25783 433.7061,376.30255 C 430.60462,382.8559 430.8765,391.3642 432.35371,398.38981 C 433.13934,401.43269 435.79234,403.2556 437.45018,404.88807 C 439.93565,407.33556 438.58842,409.87304 442.37862,415.06054 C 447.81708,426.26774 458.72353,435.98916 471.47525,436.91326 C 474.50166,436.88995 473.55981,432.02824 473.69444,428.52221 C 473.79044,426.02215 474.38655,419.54806 474.36182,416.33673 C 468.0997,402.17465 446.73475,382.03461 452.65466,365.49879 z "
       style="color:#000000;fill:#ff0000;fill-opacity:1;fill-rule:evenodd;stroke:#000000;stroke-width:3.04499269px;stroke-linecap:butt;stroke-linejoin:miter;marker:none;marker-start:none;marker-mid:none;marker-end:none;stroke-miterlimit:4;stroke-dasharray:none;stroke-dashoffset:0;stroke-opacity:1;visibility:visible;display:inline;overflow:visible;enable-background:accumulate" />
    <path
       id="path23817"
       d="M 486.87462,360.66757 C 488.80592,349.95422 479.78176,342.94843 470.7247,339.47641 C 473.62138,345.18948 475.53916,349.80586 473.89859,356.19991 C 478.54801,357.29043 482.93393,357.9614 486.87462,360.66757 z "
       style="color:#000000;fill:#ff0000;fill-opacity:1;fill-rule:evenodd;stroke:#000000;stroke-width:3.04499269px;stroke-linecap:butt;stroke-linejoin:miter;marker:none;marker-start:none;marker-mid:none;marker-end:none;stroke-miterlimit:4;stroke-dasharray:none;stroke-dashoffset:0;stroke-opacity:1;visibility:visible;display:inline;overflow:visible;enable-background:accumulate"
       sodipodi:nodetypes="cccc" />
    <path
       id="path23819"
       d="M 458.68583,357.83964 C 459.63507,348.96596 454.17198,345.93241 447.15015,342.70308 C 439.50305,341.11535 433.66493,346.87261 431.24651,353.48337 C 427.74375,360.36297 431.85456,363.79979 435.17577,369.43978 C 441.35361,371.15509 445.06941,366.50782 452.65466,365.49879 C 453.60033,365.72751 457.36727,359.81382 458.68583,357.83964 z "
       style="color:#000000;fill:#ff0000;fill-opacity:1;fill-rule:evenodd;stroke:#000000;stroke-width:3.04499269px;stroke-linecap:butt;stroke-linejoin:miter;marker:none;marker-start:none;marker-mid:none;marker-end:none;stroke-miterlimit:4;stroke-dasharray:none;stroke-dashoffset:0;stroke-opacity:1;visibility:visible;display:inline;overflow:visible;enable-background:accumulate"
       sodipodi:nodetypes="cccccc" />
    <path
       id="path23825"
       d="M 421.94762,332.23941 C 428.40751,335.24434 431.94235,340.08184 435.20059,346.26919 C 439.92241,343.03126 443.52797,341.29141 448.65519,343.50535 C 442.52687,335.50623 431.70509,331.65059 421.94762,332.23941 z "
       style="color:#000000;fill:#ff0000;fill-opacity:1;fill-rule:evenodd;stroke:#000000;stroke-width:3.04499269px;stroke-linecap:butt;stroke-linejoin:miter;marker:none;marker-start:none;marker-mid:none;marker-end:none;stroke-miterlimit:4;stroke-dasharray:none;stroke-dashoffset:0;stroke-opacity:1;visibility:visible;display:inline;overflow:visible;enable-background:accumulate"
       sodipodi:nodetypes="cccc" />
    <path
       id="path23829"
       d="M 429.77098,359.42611 C 426.04732,360.1436 423.23178,364.94262 420.71588,367.49757 C 415.62695,373.79042 419.02061,377.62494 423.85708,382.46858 C 427.38757,385.94509 430.86959,383.85802 431.45761,380.88749 C 432.14869,377.3963 434.80984,374.4145 436.72169,372.47296 C 439.0359,370.12286 437.04923,370.22079 433.87165,367.74929 C 432.35377,366.56869 429.34837,361.62721 429.77098,359.42611 z "
       style="color:#000000;fill:#ff0000;fill-opacity:1;fill-rule:evenodd;stroke:#000000;stroke-width:3.04499269px;stroke-linecap:butt;stroke-linejoin:miter;marker:none;marker-start:none;marker-mid:none;marker-end:none;stroke-miterlimit:4;stroke-dasharray:none;stroke-dashoffset:0;stroke-opacity:1;visibility:visible;display:inline;overflow:visible;enable-background:accumulate"
       sodipodi:nodetypes="cccsssc" />
    <path
       id="path23833"
       d="M 426.89659,360.65445 C 422.01035,354.77326 413.21743,354.95265 406.13782,355.19931 C 413.36038,358.96382 416.32885,362.55449 419.64879,368.07316 C 422.87105,364.77579 424.31201,362.62417 426.89659,360.65445 z "
       style="color:#000000;fill:#ff0000;fill-opacity:1;fill-rule:evenodd;stroke:#000000;stroke-width:3.04499269px;stroke-linecap:butt;stroke-linejoin:miter;marker:none;marker-start:none;marker-mid:none;marker-end:none;stroke-miterlimit:4;stroke-dasharray:none;stroke-dashoffset:0;stroke-opacity:1;visibility:visible;display:inline;overflow:visible;enable-background:accumulate"
       sodipodi:nodetypes="cccc" />
    <path
       id="path23837"
       d="M 429.96447,384.70535 C 426.58608,383.64486 421.971,383.04776 418.54611,384.7933 C 414.95067,386.62578 416.01872,391.08018 417.08813,393.1785 C 420.35789,397.60653 424.50661,402.48727 429.36156,405.26428 C 433.50563,407.29658 436.23056,407.54305 436.20087,403.68907 C 430.33373,397.80996 431.49167,392.84657 429.96447,384.70535 z "
       style="color:#000000;fill:#ff0000;fill-opacity:1;fill-rule:evenodd;stroke:#000000;stroke-width:3.04499269px;stroke-linecap:butt;stroke-linejoin:miter;marker:none;marker-start:none;marker-mid:none;marker-end:none;stroke-miterlimit:4;stroke-dasharray:none;stroke-dashoffset:0;stroke-opacity:1;visibility:visible;display:inline;overflow:visible;enable-background:accumulate"
       sodipodi:nodetypes="cscccc" />
    <path
       id="path23841"
       d="M 416.29174,388.61703 C 414.09156,385.22752 409.86564,383.64385 405.58766,382.60931 C 411.72484,378.14367 416.76017,375.06513 423.07374,382.62398 C 418.37952,384.26114 418.51587,386.26655 416.29174,388.61703 z "
       style="color:#000000;fill:#ff0000;fill-opacity:1;fill-rule:evenodd;stroke:#000000;stroke-width:3.04499269px;stroke-linecap:butt;stroke-linejoin:miter;marker:none;marker-start:none;marker-mid:none;marker-end:none;stroke-miterlimit:4;stroke-dasharray:none;stroke-dashoffset:0;stroke-opacity:1;visibility:visible;display:inline;overflow:visible;enable-background:accumulate"
       sodipodi:nodetypes="cccc" />
    <path
       sodipodi:nodetypes="cccccsccccccccccccccssscccccccccccccccccccccccccccccccccccccccccccccccccccccccccccccccccccccccc"
       id="path23849"
       d="M 119.0209,339.42539 C 117.1159,335.4654 114.73106,333.24787 111.34415,331.5869 C 100.42987,327.38733 95.140473,332.91329 89.077572,342.83091 C 88.404742,335.22272 91.041466,326.09238 81.597726,324.20332 C 73.372917,323.16075 68.509462,327.41384 66.455297,334.97774 C 65.619501,338.4339 66.63895,343.07419 67.29862,345.62904 C 68.339138,349.65899 70.861337,351.93931 70.896114,356.45421 C 66.923719,351.20759 67.502806,348.36336 65.293957,345.19712 C 57.854673,336.05959 51.030844,349.31697 47.582988,355.67741 C 44.509006,362.63379 47.743944,367.69337 51.523976,373.15631 C 53.546337,377.12433 51.547604,380.91324 50.844837,383.81931 C 49.512695,391.15002 49.884689,398.70779 51.776114,405.88899 C 65.527605,425.28289 50.78326,434.15219 55.628217,456.07257 C 59.031207,452.74381 58.959964,452.71854 61.994546,447.68018 C 59.266506,465.97697 59.410191,484.18955 59.660088,502.67536 C 64.824163,497.77046 66.889491,494.64134 69.946889,491.77261 C 68.599988,511.77663 72.611894,531.03158 76.643358,550.44538 C 79.341953,547.45404 77.777541,549.20386 82.534483,538.81526 C 84.927753,564.51444 86.269596,574.52142 97.359264,598.452 C 99.859094,594.85517 101.4316,591.47043 104.17378,586.66782 C 107.37016,592.10139 109.41831,598.59575 114.19284,602.57732 C 119.05849,606.63488 121.77527,604.29202 123.33341,603.26818 C 126.08632,601.45925 127.64345,598.96609 128.61508,597.13734 C 130.81027,593.00566 127.58315,598.50337 130.70142,593.65331 C 143.80011,640.27927 196.36068,649.50897 238.62443,647.29509 C 251.93768,643.65891 265.15022,639.43047 274.29986,628.56444 C 267.20617,634.72578 258.97978,641.01244 250.78058,644.15636 C 247.71756,644.94725 255.85081,645.63983 258.40456,645.62016 C 273.71551,647.03153 288.78874,650.20166 304.12501,651.35816 C 324.12074,653.05506 369.77158,663.78822 375.15352,681.26185 C 376.71084,670.62553 369.71977,653.37037 359.62997,642.55662 C 357.45278,640.41273 365.14042,645.87131 366.52789,648.59366 C 372.50852,661.21209 376.71961,674.8466 376.73462,688.8624 C 382.22124,707.41929 382.72463,722.6721 402.24296,730.70681 C 403.40182,725.72643 404.03231,723.68208 405.02602,720.11372 C 411.53917,732.02762 418.64477,742.14417 430.64125,749.12711 C 432.12907,743.26021 431.69029,744.25966 432.3886,735.28592 C 440.51294,743.61638 454.80324,743.75069 460.21834,754.44987 C 462.92871,770.30684 449.40087,782.30796 438.4301,791.91996 C 428.49887,799.40896 415.4814,799.97488 403.46653,799.04073 C 392.44278,793.20935 386.39711,786.31128 377.54967,794.67273 C 368.77945,809.90689 384.30499,812.54406 398.21513,812.71762 C 395.30228,813.96325 391.29087,813.79116 386.1083,814.72354 C 371.19795,815.81802 376.27646,829.79365 384.71732,835.72615 C 390.5208,838.55165 398.98845,839.43434 404.50919,835.57369 C 409.40411,831.31544 412.01231,825.58778 417.34449,821.77195 C 416.94437,823.42646 415.81367,823.90849 415.09599,826.35688 C 413.05806,833.03881 415.73428,840.37672 422.07602,843.05108 C 436.86462,844.82001 441.40325,837.19369 445.14577,826.38624 C 445.02621,831.53856 447.80535,832.04544 451.54774,831.98095 C 456.34434,830.89214 460.84209,826.28943 464.5522,822.93084 C 473.36387,807.48665 495.57853,803.89547 502.56207,787.50694 C 499.00967,787.5343 496.0813,788.21488 489.68192,787.74781 C 497.38948,779.34617 506.4033,771.10419 510.44544,760.17026 C 501.48515,760.23928 508.12672,760.08871 502.52353,760.66437 C 500.03368,750.84317 507.44355,738.47915 508.62553,729.67798 C 503.15382,732.58307 506.39509,731.35365 501.71835,733.66651 C 502.51404,724.75777 501.28202,713.00817 501.05436,704.38497 C 488.67861,724.95229 466.45429,705.67408 456.69848,692.81405 C 449.44343,678.76216 435.44673,670.00743 424.88582,658.56927 C 430.78426,663.0928 436.8446,667.29956 443.58172,670.07698 C 473.77655,682.52084 501.56743,705.18098 532.74479,682.33174 C 544.14513,669.26614 531.44285,649.87408 518.70851,639.04746 C 495.30798,624.30157 470.71556,611.16061 446.82496,596.97001 C 439.48456,592.71845 428.16739,589.31336 426.89821,579.61426 C 425.23272,571.31832 425.24732,562.95158 425.18226,554.50556 C 423.87272,537.76989 411.68082,526.54747 398.25791,518.17197 C 399.86835,526.96557 402.87234,535.18181 406.66024,543.2606 C 410.29666,552.17224 406.0411,544.71882 404.61704,539.20344 C 396.13228,516.44993 377.55403,504.97714 353.25179,506.3383 C 351.50799,507.22706 352.1846,506.1054 346.42423,509.43598 C 350.28638,510.94644 352.50899,512.41958 355.79733,514.03222 C 363.00855,517.97526 363.18867,525.30292 364.57294,532.36206 C 369.03049,544.54534 373.67213,555.64068 381.11915,566.26403 C 390.73194,582.06219 405.79374,593.46432 422.49506,600.96377 C 451.14936,617.23379 484.12637,629.01373 508.90639,651.30329 C 519.77849,659.7819 521.80325,680.50499 503.78305,677.9872 C 458.91916,667.15371 422.23319,638.00169 383.77224,614.20364 C 355.20949,598.69875 325.32246,585.91748 296.65244,570.72102 C 296.4345,570.50648 290.71101,565.247 290.52158,565.43935 C 286.32722,567.68549 281.26898,579.54745 281.80266,570.07414 C 282.00679,566.26488 282.99199,554.94502 282.09532,558.65282 C 275.1892,572.22204 256.79788,590.82038 243.52272,600.02758 C 245.19482,590.32962 245.52046,586.64955 244.9829,583.29936 C 229.77109,595.05003 210.4241,601.62483 191.90572,606.87002 C 195.65172,601.08447 198.27802,596.63691 200.71628,593.34653 C 184.77431,597.45111 165.10747,602.42196 149.80932,593.73866 C 154.56627,592.2642 158.66524,590.02496 162.31531,586.60059 C 171.34941,575.84923 168.88777,582.3548 158.85828,582.5354 C 148.45642,583.60202 138.62908,582.01667 129.22751,577.81536 C 176.39927,555.83557 149.8953,521.9708 126.94453,487.58595 C 125.68912,480.89513 123.07292,475.10541 118.50113,470.08304 C 113.21919,462.75973 110.33255,453.6615 107.65048,445.04468 C 100.58324,424.30816 95.063739,403.80206 95.745419,381.95091 C 94.981482,362.86297 105.37951,352.64154 119.0209,339.42539 z"
       style="color:#000000;fill:#ff0000;fill-opacity:1;fill-rule:evenodd;stroke:#000000;stroke-width:3.04499269px;stroke-linecap:butt;stroke-linejoin:miter;marker:none;marker-start:none;marker-mid:none;marker-end:none;stroke-miterlimit:4;stroke-dasharray:none;stroke-dashoffset:0;stroke-opacity:1;visibility:visible;display:inline;overflow:visible;enable-background:accumulate" />
    <path
       id="path23852"
       d="M 378.29225,693.418 C 377.15517,690.54289 371.92031,688.65439 369.86599,686.63149 C 367.18685,683.9933 365.11763,681.26946 362.20096,679.83908 C 359.16031,678.34796 357.61366,676.83022 354.55938,676.09161 C 350.76798,675.17471 348.43454,674.04054 344.64001,673.12291 C 341.37876,672.33424 337.39367,671.56049 334.72647,670.91548 C 331.01868,670.01881 342.44544,671.01994 346.13901,670.06629 C 349.86646,669.10387 355.60601,670.07627 358.32449,670.73371 C 362.39179,671.7173 364.84337,672.89746 369.00508,673.69651 C 372.15089,674.30052 373.49388,677.36122 375.13593,678.97817 C 377.65563,681.45935 378.14284,684.71576 379.01241,688.08356 C 379.335,689.33286 378.35279,693.10274 378.29225,693.418 z "
       style="color:#000000;fill:#ff0000;fill-opacity:1;fill-rule:evenodd;stroke:#000000;stroke-width:3.04499269px;stroke-linecap:butt;stroke-linejoin:miter;marker:none;marker-start:none;marker-mid:none;marker-end:none;stroke-miterlimit:4;stroke-dasharray:none;stroke-dashoffset:0;stroke-opacity:1;visibility:visible;display:inline;overflow:visible;enable-background:accumulate" />
    <path
       sodipodi:nodetypes="cccccccccccccccscccccccccccccccccc"
       id="path23854"
       d="M 380.64043,701.77389 C 381.66334,705.73555 372.56401,703.35864 368.47255,703.39015 C 359.401,705.93941 347.7523,709.54745 340.40102,715.78673 C 336.25583,720.22554 332.53905,725.60827 329.86114,731.09334 C 323.96172,744.09906 339.04651,756.74572 348.49589,763.80685 C 339.32012,769.2947 328.71821,767.60823 317.95959,771.84382 C 321.90456,775.61701 325.77128,778.75464 328.20376,781.14994 C 312.95662,784.09 298.19517,781.41171 283.77234,776.36333 C 287.66809,780.57609 291.95005,784.41606 296.04576,788.44913 C 284.43947,789.76534 269.85093,785.73802 259.04437,781.51169 C 259.47733,787.23297 261.19021,785.90402 262.34748,791.68681 C 251.94769,788.53143 238.85597,781.12159 229.17431,778.3779 C 229.95999,769.36616 228.21475,760.94676 222.35181,753.80207 C 217.37896,748.99807 210.56296,747.03237 205.08023,742.93225 C 198.38774,737.57637 192.03452,728.96192 188.94644,720.75973 C 187.11657,717.20375 184.76743,715.73394 185.15163,710.27895 C 185.59266,704.01703 186.89782,707.25139 191.09525,703.23395 C 195.84156,700.04812 204.29745,696.09679 209.34122,700.04833 C 215.09855,705.30636 216.63442,711.23059 213.28808,718.28843 C 211.53159,724.76564 219.96532,729.42416 224.81787,732.66373 C 231.26433,737.7454 236.06573,739.13924 244.21297,739.0833 C 251.83578,739.42863 259.5814,740.00868 267.50515,739.94764 C 274.1692,739.96875 278.97817,735.1317 283.42052,730.68978 C 285.93389,724.2188 284.25736,714.85835 283.2446,707.85305 C 282.20643,703.83225 284.22202,701.43897 286.22501,697.70947 C 282.24396,698.9223 278.39326,699.96714 273.94845,701.05813 C 277.4127,688.07968 289.04979,676.90306 299.94015,670.21152 C 296.5514,669.86884 293.60213,670.04334 286.80651,669.65145 C 299.41016,661.46857 314.39108,657.36247 329.2865,656.49324 C 338.4087,655.07088 385.70597,679.77366 362.13647,671.4656 C 354.11487,670.56434 345.92032,670.4012 337.82621,670.27199 C 342.69536,673.7507 345.94043,673.55975 351.50863,675.35382 C 359.79803,680.11437 369.09533,683.60085 375.98512,690.39069 C 380.31087,694.65033 379.45904,684.44326 380.64043,701.77389 z "
       style="color:#000000;fill:#ff0000;fill-opacity:1;fill-rule:evenodd;stroke:#000000;stroke-width:3.04499269px;stroke-linecap:butt;stroke-linejoin:miter;marker:none;marker-start:none;marker-mid:none;marker-end:none;stroke-miterlimit:4;stroke-dasharray:none;stroke-dashoffset:0;stroke-opacity:1;visibility:visible;display:inline;overflow:visible;enable-background:accumulate" />
    <path
       sodipodi:nodetypes="cccccc"
       id="path23856"
       d="M 379.84122,693.77488 C 373.35378,687.85063 363.8905,680.96806 355.33234,677.60817 C 349.22788,675.27553 343.52072,673.3274 337.73283,670.28371 C 344.84544,670.02922 351.96541,669.72901 359.07983,669.96661 C 365.12486,671.6437 370.68209,673.67621 375.89129,678.21109 C 378.70498,682.19576 380.48531,688.83843 379.84122,693.77488 z "
       style="color:#000000;fill:#ff0000;fill-opacity:1;fill-rule:evenodd;stroke:#000000;stroke-width:3.04499269px;stroke-linecap:butt;stroke-linejoin:miter;marker:none;marker-start:none;marker-mid:none;marker-end:none;stroke-miterlimit:4;stroke-dasharray:none;stroke-dashoffset:0;stroke-opacity:1;visibility:visible;display:inline;overflow:visible;enable-background:accumulate" />
    <path
       id="path23863"
       d="M 413.36245,798.96451 C 411.27481,795.16031 409.2755,793.0859 410.24131,789.09203 C 415.36728,775.15596 406.78766,767.02504 394.15003,775.5131 C 387.4508,783.4051 385.85088,784.11616 391.22241,790.76106 C 396.37297,798.07949 404.83737,800.21747 413.36245,798.96451 z "
       style="color:#000000;fill:#ff0000;fill-opacity:1;fill-rule:evenodd;stroke:#000000;stroke-width:3.04499269px;stroke-linecap:butt;stroke-linejoin:miter;marker:none;marker-start:none;marker-mid:none;marker-end:none;stroke-miterlimit:4;stroke-dasharray:none;stroke-dashoffset:0;stroke-opacity:1;visibility:visible;display:inline;overflow:visible;enable-background:accumulate"
       sodipodi:nodetypes="ccccc" />
    <path
       id="path23873"
       d="M 404.78375,772.3861 C 406.77799,763.24411 388.62924,766.53845 380.71392,769.02318 C 385.62538,770.10907 389.89974,773.96313 391.74028,777.91833 C 395.48972,774.46607 399.69043,772.58043 404.78375,772.3861 z "
       style="color:#000000;fill:#ff0000;fill-opacity:1;fill-rule:evenodd;stroke:#000000;stroke-width:3.04499269px;stroke-linecap:butt;stroke-linejoin:miter;marker:none;marker-start:none;marker-mid:none;marker-end:none;stroke-miterlimit:4;stroke-dasharray:none;stroke-dashoffset:0;stroke-opacity:1;visibility:visible;display:inline;overflow:visible;enable-background:accumulate"
       sodipodi:nodetypes="cccc" />
    <path
       id="path23875"
       d="M 384.3655,790.05262 C 374.05633,778.9146 362.68541,791.05454 357.73346,801.09475 C 363.62033,798.07506 368.47845,795.19007 374.36356,800.94949 C 376.50709,795.90937 380.33254,792.95969 384.3655,790.05262 z "
       style="color:#000000;fill:#ff0000;fill-opacity:1;fill-rule:evenodd;stroke:#000000;stroke-width:3.04499269px;stroke-linecap:butt;stroke-linejoin:miter;marker:none;marker-start:none;marker-mid:none;marker-end:none;stroke-miterlimit:4;stroke-dasharray:none;stroke-dashoffset:0;stroke-opacity:1;visibility:visible;display:inline;overflow:visible;enable-background:accumulate"
       sodipodi:nodetypes="cccc" />
    <path
       id="path23879"
       d="M 377.73144,818.27073 C 367.95945,819.15325 363.70945,833.13814 364.97824,841.45937 C 368.27576,833.8157 370.42686,831.39861 379.54505,830.88813 C 378.22407,827.5709 375.94646,825.1748 377.73144,818.27073 z "
       style="color:#000000;fill:#ff0000;fill-opacity:1;fill-rule:evenodd;stroke:#000000;stroke-width:3.04499269px;stroke-linecap:butt;stroke-linejoin:miter;marker:none;marker-start:none;marker-mid:none;marker-end:none;stroke-miterlimit:4;stroke-dasharray:none;stroke-dashoffset:0;stroke-opacity:1;visibility:visible;display:inline;overflow:visible;enable-background:accumulate"
       sodipodi:nodetypes="cccc" />
    <path
       sodipodi:nodetypes="cccc"
       id="path23902"
       d="M 412.23286,849.97834 C 411.48396,846.18315 413.05966,841.78823 417.71525,839.54402 C 415.08873,835.19929 413.76648,832.80751 413.39718,828.95146 C 406.85564,835.26465 403.60919,843.92639 412.23286,849.97834 z "
       style="color:#000000;fill:#ff0000;fill-opacity:1;fill-rule:evenodd;stroke:#000000;stroke-width:3.04499269px;stroke-linecap:butt;stroke-linejoin:miter;marker:none;marker-start:none;marker-mid:none;marker-end:none;stroke-miterlimit:4;stroke-dasharray:none;stroke-dashoffset:0;stroke-opacity:1;visibility:visible;display:inline;overflow:visible;enable-background:accumulate" />
    <path
       sodipodi:nodetypes="ccccccc"
       id="path23906"
       d="M 228.97582,778.30796 C 220.55493,778.38667 213.55181,777.653 206.10386,773.91652 C 198.0626,769.5006 191.94259,762.68799 184.66055,757.33373 C 175.5571,750.17524 175.63749,738.6737 178.34794,728.45408 C 182.38971,719.52658 183.27092,721.64096 190.12111,722.44549 C 195.75148,735.286 201.51296,741.24528 210.46013,746.47722 C 224.53729,751.82655 231.69931,763.68341 228.97582,778.30796 z "
       style="color:#000000;fill:#ff0000;fill-opacity:1;fill-rule:evenodd;stroke:#000000;stroke-width:3.04499269px;stroke-linecap:butt;stroke-linejoin:miter;marker:none;marker-start:none;marker-mid:none;marker-end:none;stroke-miterlimit:4;stroke-dasharray:none;stroke-dashoffset:0;stroke-opacity:1;visibility:visible;display:inline;overflow:visible;enable-background:accumulate" />
    <path
       id="path23910"
       d="M 178.34794,728.45408 C 173.33893,723.83301 167.5518,720.04902 165.28982,713.32925 C 162.79695,706.74628 166.16688,701.20437 172.02359,698.05196 C 182.72626,694.08783 185.44384,697.38429 189.59964,703.76061 C 183.61953,710.54147 184.90328,712.15854 189.926,722.06857 C 183.0335,722.28885 183.87355,718.95282 178.34794,728.45408 z "
       style="color:#000000;fill:#ff0000;fill-opacity:1;fill-rule:evenodd;stroke:#000000;stroke-width:3.04499269px;stroke-linecap:butt;stroke-linejoin:miter;marker:none;marker-start:none;marker-mid:none;marker-end:none;stroke-miterlimit:4;stroke-dasharray:none;stroke-dashoffset:0;stroke-opacity:1;visibility:visible;display:inline;overflow:visible;enable-background:accumulate"
       sodipodi:nodetypes="cccccc" />
    <path
       id="path23918"
       d="M 178.34794,728.45408 C 173.04427,722.39434 169.05246,719.08604 160.78111,720.97669 C 154.2121,723.82812 153.98427,732.38667 154.06495,738.53764 C 156.02321,744.77758 162.16209,749.48037 168.4901,750.32682 C 171.37708,748.86843 174.07624,748.33313 177.74503,749.01302 C 175.68066,741.50991 176.56039,735.65618 178.34794,728.45408 z "
       style="color:#000000;fill:#ff0000;fill-opacity:1;fill-rule:evenodd;stroke:#000000;stroke-width:3.04499269px;stroke-linecap:butt;stroke-linejoin:miter;marker:none;marker-start:none;marker-mid:none;marker-end:none;stroke-miterlimit:4;stroke-dasharray:none;stroke-dashoffset:0;stroke-opacity:1;visibility:visible;display:inline;overflow:visible;enable-background:accumulate"
       sodipodi:nodetypes="cccccc" />
    <path
       sodipodi:nodetypes="ccccc"
       id="path23922"
       d="M 178.22724,749.45668 C 174.22344,748.50475 170.86125,747.18864 167.87255,752.13415 C 164.68573,758.72904 167.76939,765.01269 173.32425,768.07884 C 181.1913,771.43585 189.01891,770.33808 196.8708,767.73376 C 185.74085,756.9686 186.42523,760.69596 178.22724,749.45668 z "
       style="color:#000000;fill:#ff0000;fill-opacity:1;fill-rule:evenodd;stroke:#000000;stroke-width:3.04499269px;stroke-linecap:butt;stroke-linejoin:miter;marker:none;marker-start:none;marker-mid:none;marker-end:none;stroke-miterlimit:4;stroke-dasharray:none;stroke-dashoffset:0;stroke-opacity:1;visibility:visible;display:inline;overflow:visible;enable-background:accumulate" />
    <path
       id="path23926"
       d="M 166.40287,758.99692 C 158.1132,757.54968 156.15305,761.83366 152.21316,767.23076 C 152.51538,754.06607 157.11034,750.60681 168.64888,750.00925 C 166.40885,754.69711 166.26004,755.66946 166.40287,758.99692 z "
       style="color:#000000;fill:#ff0000;fill-opacity:1;fill-rule:evenodd;stroke:#000000;stroke-width:3.04499269px;stroke-linecap:butt;stroke-linejoin:miter;marker:none;marker-start:none;marker-mid:none;marker-end:none;stroke-miterlimit:4;stroke-dasharray:none;stroke-dashoffset:0;stroke-opacity:1;visibility:visible;display:inline;overflow:visible;enable-background:accumulate"
       sodipodi:nodetypes="cccc" />
    <path
       sodipodi:nodetypes="cccc"
       id="path23930"
       d="M 160.01988,720.98255 C 151.84775,717.91352 145.80684,722.83559 141.47395,729.30998 C 145.56849,728.23532 149.95599,728.45974 154.21157,728.31714 C 156.20367,725.20113 157.68797,723.02642 160.01988,720.98255 z "
       style="color:#000000;fill:#ff0000;fill-opacity:1;fill-rule:evenodd;stroke:#000000;stroke-width:3.04499269px;stroke-linecap:butt;stroke-linejoin:miter;marker:none;marker-start:none;marker-mid:none;marker-end:none;stroke-miterlimit:4;stroke-dasharray:none;stroke-dashoffset:0;stroke-opacity:1;visibility:visible;display:inline;overflow:visible;enable-background:accumulate" />
    <path
       sodipodi:nodetypes="cccc"
       id="path23932"
       d="M 168.99022,699.57418 C 168.50812,692.7233 164.1359,690.67024 158.25116,689.0228 C 168.26153,686.00716 174.59111,689.85285 181.721,696.47675 C 175.62066,696.5164 173.30124,696.75014 168.99022,699.57418 z "
       style="color:#000000;fill:#ff0000;fill-opacity:1;fill-rule:evenodd;stroke:#000000;stroke-width:3.04499269px;stroke-linecap:butt;stroke-linejoin:miter;marker:none;marker-start:none;marker-mid:none;marker-end:none;stroke-miterlimit:4;stroke-dasharray:none;stroke-dashoffset:0;stroke-opacity:1;visibility:visible;display:inline;overflow:visible;enable-background:accumulate" />
    <path
       sodipodi:nodetypes="ccccc"
       id="path23934"
       d="M 205.96117,697.94687 C 212.95318,694.02644 212.3469,690.13357 207.10491,684.8087 C 211.2102,685.80036 213.86163,688.00552 216.88311,690.85497 C 224.69388,697.20139 221.13108,703.50541 214.84394,709.36369 C 214.09697,704.06724 211.60141,701.66529 205.96117,697.94687 z "
       style="color:#000000;fill:#ff0000;fill-opacity:1;fill-rule:evenodd;stroke:#000000;stroke-width:3.04499269px;stroke-linecap:butt;stroke-linejoin:miter;marker:none;marker-start:none;marker-mid:none;marker-end:none;stroke-miterlimit:4;stroke-dasharray:none;stroke-dashoffset:0;stroke-opacity:1;visibility:visible;display:inline;overflow:visible;enable-background:accumulate" />
    <path
       id="path23940"
       d="M 95.956541,377.08695 C 99.70627,373.46165 103.53625,373.76753 108.63349,375.0002 C 115.29444,378.84604 120.41055,380.38483 126.13581,374.1041 C 130.28925,368.2389 123.30542,362.83413 121.43945,357.39232 C 117.74822,350.53546 110.18075,352.77535 105.44785,356.75425 C 98.036427,361.36956 95.677754,368.77637 95.956541,377.08695 z "
       style="color:#000000;fill:#ff0000;fill-opacity:1;fill-rule:evenodd;stroke:#000000;stroke-width:3.04499269px;stroke-linecap:butt;stroke-linejoin:miter;marker:none;marker-start:none;marker-mid:none;marker-end:none;stroke-miterlimit:4;stroke-dasharray:none;stroke-dashoffset:0;stroke-opacity:1;visibility:visible;display:inline;overflow:visible;enable-background:accumulate"
       sodipodi:nodetypes="cccccc" />
    <path
       sodipodi:nodetypes="cccc"
       id="path23944"
       d="M 127.19701,371.97334 C 131.86528,366.76888 131.98857,360.04974 130.59513,353.58238 C 129.96718,356.17901 128.16328,358.69639 124.9749,362.5001 C 126.76961,366.61181 127.87505,367.59995 127.19701,371.97334 z"
       style="color:#000000;fill:#ff0000;fill-opacity:1;fill-rule:evenodd;stroke:#000000;stroke-width:3.04499269px;stroke-linecap:butt;stroke-linejoin:miter;marker:none;marker-start:none;marker-mid:none;marker-end:none;stroke-miterlimit:4;stroke-dasharray:none;stroke-dashoffset:0;stroke-opacity:1;visibility:visible;display:inline;overflow:visible;enable-background:accumulate" />
    <path
       sodipodi:nodetypes="cccc"
       id="path23946"
       d="M 119.3149,338.95718 C 126.46258,328.94934 118.78659,319.34293 108.90215,311.05139 C 109.08044,317.449 111.35,324.09705 107.91042,329.88467 C 111.74922,331.9948 116.35147,332.06566 119.3149,338.95718 z "
       style="color:#000000;fill:#ff0000;fill-opacity:1;fill-rule:evenodd;stroke:#000000;stroke-width:3.04499269px;stroke-linecap:butt;stroke-linejoin:miter;marker:none;marker-start:none;marker-mid:none;marker-end:none;stroke-miterlimit:4;stroke-dasharray:none;stroke-dashoffset:0;stroke-opacity:1;visibility:visible;display:inline;overflow:visible;enable-background:accumulate" />
    <path
       sodipodi:nodetypes="cccc"
       id="path23950"
       d="M 87.091403,326.27227 C 85.08541,316.77613 79.576656,311.96853 71.524984,307.26396 C 73.404863,313.8774 76.254966,319.43454 75.325681,324.5398 C 80.861737,323.1229 83.299589,324.00712 87.091403,326.27227 z "
       style="color:#000000;fill:#ff0000;fill-opacity:1;fill-rule:evenodd;stroke:#000000;stroke-width:3.04499269px;stroke-linecap:butt;stroke-linejoin:miter;marker:none;marker-start:none;marker-mid:none;marker-end:none;stroke-miterlimit:4;stroke-dasharray:none;stroke-dashoffset:0;stroke-opacity:1;visibility:visible;display:inline;overflow:visible;enable-background:accumulate" />
    <path
       id="path23952"
       d="M 60.877029,341.17986 C 55.869792,334.78267 51.396839,330.64334 43.382628,331.39648 C 48.678452,335.33826 52.183003,340.81736 53.196001,346.13852 C 54.540253,343.85635 57.237744,341.62002 60.877029,341.17986 z "
       style="color:#000000;fill:#ff0000;fill-opacity:1;fill-rule:evenodd;stroke:#000000;stroke-width:3.04499269px;stroke-linecap:butt;stroke-linejoin:miter;marker:none;marker-start:none;marker-mid:none;marker-end:none;stroke-miterlimit:4;stroke-dasharray:none;stroke-dashoffset:0;stroke-opacity:1;visibility:visible;display:inline;overflow:visible;enable-background:accumulate"
       sodipodi:nodetypes="cccc" />
    <path
       sodipodi:nodetypes="ccccccccccccccc"
       id="path23956"
       d="M 131.2309,442.57922 C 134.98734,437.18637 134.95427,431.54505 134.90802,425.32659 C 131.95634,429.12456 127.57645,430.06635 123.94501,432.32983 C 123.41398,423.32031 127.45936,415.23616 131.72238,407.55698 C 132.98187,404.98875 134.40134,401.5887 137.07061,400.89949 C 174.09897,390.20765 150.3899,343.01627 212.76893,354.40499 C 222.30017,359.10093 222.26305,372.47081 219.06396,381.00099 C 213.7587,387.79748 207.02066,384.54691 203.81601,378.07338 C 197.96611,373.6883 189.6476,380.59273 185.59936,385.06512 C 182.47708,399.8222 181.50028,415.5864 180.62258,430.77971 C 179.48665,439.28938 185.14467,463.21166 177.0686,463.54173 C 169.35421,464.24148 175.92163,469.9668 178.66142,472.6647 C 171.28708,469.2545 125.77428,460.64579 139.89756,480.576 C 145.16164,489.41858 126.65675,474.36607 127.76486,486.75962 C 121.46419,472.92816 126.69381,456.30094 131.2309,442.57922 z "
       style="color:#000000;fill:#ff0000;fill-opacity:1;fill-rule:evenodd;stroke:#000000;stroke-width:3.04499269px;stroke-linecap:butt;stroke-linejoin:miter;marker:none;marker-start:none;marker-mid:none;marker-end:none;stroke-miterlimit:4;stroke-dasharray:none;stroke-dashoffset:0;stroke-opacity:1;visibility:visible;display:inline;overflow:visible;enable-background:accumulate" />
    <path
       sodipodi:nodetypes="cccccccc"
       id="path23960"
       d="M 134.67934,396.11515 C 132.70439,382.62136 137.94622,368.40633 147.33286,358.71541 C 151.62347,353.8796 154.29895,348.26225 161.39647,347.15293 C 168.36499,342.72458 174.03251,341.59218 182.22021,341.69873 C 190.42343,341.04415 195.81301,344.61041 199.99027,351.49834 C 196.8194,355.60278 191.48523,359.96021 187.17319,363.17239 C 180.22953,369.22684 172.44388,373.93277 165.64036,380.21244 C 161.70782,384.31431 137.2331,410.86425 134.67934,396.11515 z"
       style="color:#000000;fill:#ff0000;fill-opacity:1;fill-rule:evenodd;stroke:#000000;stroke-width:3.04499269px;stroke-linecap:butt;stroke-linejoin:miter;marker:none;marker-start:none;marker-mid:none;marker-end:none;stroke-miterlimit:4;stroke-dasharray:none;stroke-dashoffset:0;stroke-opacity:1;visibility:visible;display:inline;overflow:visible;enable-background:accumulate" />
    <path
       sodipodi:nodetypes="cccccc"
       id="path23964"
       d="M 193.37719,344.18518 C 184.96229,335.80266 190.40079,332.69237 199.62874,328.62302 C 206.36862,327.44561 214.09072,330.99531 220.22286,333.79328 C 232.8749,341.78236 229.92055,353.72731 217.33628,354.36982 C 211.36693,354.70472 206.99497,351.85061 201.09589,352.1662 C 198.48842,349.18051 198.83047,348.28597 193.37719,344.18518 z "
       style="color:#000000;fill:#ff0000;fill-opacity:1;fill-rule:evenodd;stroke:#000000;stroke-width:3.04499269px;stroke-linecap:butt;stroke-linejoin:miter;marker:none;marker-start:none;marker-mid:none;marker-end:none;stroke-miterlimit:4;stroke-dasharray:none;stroke-dashoffset:0;stroke-opacity:1;visibility:visible;display:inline;overflow:visible;enable-background:accumulate" />
    <path
       id="path23968"
       d="M 189.5476,341.1696 C 184.7346,340.37567 179.87647,340.65958 174.68962,340.69954 C 171.50578,335.31132 172.12502,330.4013 175.22847,323.48209 C 177.46936,315.28976 186.77864,317.30296 193.45098,317.25156 C 202.25553,319.13751 200.17329,327.67736 193.55653,330.95361 C 190.012,332.76013 188.24446,335.63225 189.5476,341.1696 z "
       style="color:#000000;fill:#ff0000;fill-opacity:1;fill-rule:evenodd;stroke:#000000;stroke-width:3.04499269px;stroke-linecap:butt;stroke-linejoin:miter;marker:none;marker-start:none;marker-mid:none;marker-end:none;stroke-miterlimit:4;stroke-dasharray:none;stroke-dashoffset:0;stroke-opacity:1;visibility:visible;display:inline;overflow:visible;enable-background:accumulate"
       sodipodi:nodetypes="cccccc" />
    <path
       id="path23972"
       d="M 174.3055,340.90862 C 168.44535,344.63566 161.83527,347.42918 154.86302,347.99962 C 145.18814,346.92851 146.12274,336.42838 149.3937,329.77126 C 152.85272,323.91891 159.75636,322.23247 166.08203,322.03 C 173.57424,323.59162 171.97386,335.05226 174.3055,340.90862 z "
       style="color:#000000;fill:#ff0000;fill-opacity:1;fill-rule:evenodd;stroke:#000000;stroke-width:3.04499269px;stroke-linecap:butt;stroke-linejoin:miter;marker:none;marker-start:none;marker-mid:none;marker-end:none;stroke-miterlimit:4;stroke-dasharray:none;stroke-dashoffset:0;stroke-opacity:1;visibility:visible;display:inline;overflow:visible;enable-background:accumulate"
       sodipodi:nodetypes="ccccc" />
    <path
       id="path23982"
       d="M 155.33692,310.6937 C 158.3597,310.78247 163.04356,312.95643 166.02339,314.41774 C 168.39512,315.58088 169.96908,319.322 171.25184,324.21195 C 166.81432,322.54181 169.14939,320.93271 158.86901,321.98352 C 160.31709,316.7716 157.2301,313.79461 155.33692,310.6937 z "
       style="color:#000000;fill:#ff0000;fill-opacity:1;fill-rule:evenodd;stroke:#000000;stroke-width:3.04499269px;stroke-linecap:butt;stroke-linejoin:miter;marker:none;marker-start:none;marker-mid:none;marker-end:none;stroke-miterlimit:4;stroke-dasharray:none;stroke-dashoffset:0;stroke-opacity:1;visibility:visible;display:inline;overflow:visible;enable-background:accumulate"
       sodipodi:nodetypes="csccc" />
    <path
       sodipodi:nodetypes="cccc"
       id="path23986"
       d="M 187.03188,316.7287 C 188.73381,310.14362 184.84944,303.64551 182.64135,297.54176 C 193.78305,301.34424 199.65196,307.63327 198.87294,319.73935 C 195.82028,317.7697 193.59263,316.5913 187.03188,316.7287 z "
       style="color:#000000;fill:#ff0000;fill-opacity:1;fill-rule:evenodd;stroke:#000000;stroke-width:3.04499269px;stroke-linecap:butt;stroke-linejoin:miter;marker:none;marker-start:none;marker-mid:none;marker-end:none;stroke-miterlimit:4;stroke-dasharray:none;stroke-dashoffset:0;stroke-opacity:1;visibility:visible;display:inline;overflow:visible;enable-background:accumulate" />
    <path
       sodipodi:nodetypes="cccc"
       id="path23992"
       d="M 221.61632,317.03461 C 223.72112,323.60817 221.03216,327.96195 215.76515,331.15934 C 222.13393,333.45776 226.82625,339.60149 228.64574,344.2213 C 232.28948,334.14505 230.9719,322.91604 221.61632,317.03461 z "
       style="color:#000000;fill:#ff0000;fill-opacity:1;fill-rule:evenodd;stroke:#000000;stroke-width:3.04499269px;stroke-linecap:butt;stroke-linejoin:miter;marker:none;marker-start:none;marker-mid:none;marker-end:none;stroke-miterlimit:4;stroke-dasharray:none;stroke-dashoffset:0;stroke-opacity:1;visibility:visible;display:inline;overflow:visible;enable-background:accumulate" />
    <path
       id="path23998"
       d="M 219.043,381.88244 C 227.90503,378.43463 235.46332,369.6983 237.26257,360.16937 C 232.98015,363.85783 226.61437,367.3838 221.18255,368.98355 C 220.77394,374.48812 220.33988,377.34703 219.043,381.88244 z"
       style="color:#000000;fill:#ff0000;fill-opacity:1;fill-rule:evenodd;stroke:#000000;stroke-width:3.04499269px;stroke-linecap:butt;stroke-linejoin:miter;marker:none;marker-start:none;marker-mid:none;marker-end:none;stroke-miterlimit:4;stroke-dasharray:none;stroke-dashoffset:0;stroke-opacity:1;visibility:visible;display:inline;overflow:visible;enable-background:accumulate"
       sodipodi:nodetypes="cccc" />
    <path
       sodipodi:nodetypes="cccccsscccccccccsccccccccccccsccccc"
       id="path24004"
       d="M 290.51572,564.67813 C 298.51812,554.70201 306.07538,544.97303 311.58961,533.30371 C 312.90539,528.66583 316.31737,525.2982 318.34683,521.07133 C 319.90303,525.04335 320.62429,527.78902 322.22918,530.93793 C 333.58484,516.54834 336.73215,499.84505 337.07842,482.10223 C 337.04539,477.81375 333.09891,477.42811 330.93584,475.2981 C 328.37888,472.78023 338.10668,474.5907 341.58128,473.69355 C 346.90449,472.31912 347.81512,472.57975 349.91372,468.30049 C 353.39687,459.44677 346.11028,457.03791 339.15687,455.44174 C 335.18452,454.4811 333.34237,453.20271 327.72091,453.24602 C 320.81074,453.07672 316.98569,459.18296 314.1068,464.76993 C 311.17457,477.58306 303.38042,488.3179 298.52273,500.34725 C 277.86314,525.27847 269.83835,501.95241 253.43157,494.16561 C 236.80864,492.94833 232.87509,495.2681 224.47774,480.25313 C 223.22628,483.52389 222.52271,485.34507 221.86492,488.03853 C 205.14577,476.62475 193.17264,460.31415 171.5975,463.46592 C 173.72321,467.15297 173.6014,466.82655 176.35429,469.6374 C 177.43385,470.73969 174.70932,467.42294 178.73267,472.48494 C 167.89688,467.9052 156.11652,466.69954 144.35935,466.83875 C 136.57694,467.7359 134.6235,474.88163 139.8917,479.81478 C 141.36724,481.88347 140.26217,480.12393 142.80597,483.97704 C 139.20661,482.27428 131.23511,481.28718 127.72967,482.19229 C 124.00594,488.64286 134.74948,502.36903 139.34155,507.22475 C 161.60133,535.05823 157.34246,557.15785 127.70727,578.11256 C 139.80454,584.61102 152.11821,584.9341 165.03663,581.63137 C 164.57748,587.24147 153.70908,592.13164 148.24682,594.2668 C 165.09362,600.19313 184.25,599.01851 200.90221,592.77418 C 197.61114,597.81947 193.17965,602.27207 190.69143,607.77582 C 210.27988,602.06073 228.25432,597.60254 247.26071,582.52055 C 245.73415,588.0161 245.85497,589.65039 245.05912,593.19529 C 243.75185,599.01819 247.06172,597.90995 248.88871,596.21088 C 259.84582,587.93327 261.25934,586.97589 269.31281,579.3056 C 277.62694,569.80568 279.04052,565.11284 282.06983,558.95057 C 283.1811,565.6339 281.69107,571.75996 281.57835,574.54033 C 285.79638,572.47711 289.06609,567.65446 290.51572,564.67813 z "
       style="color:#000000;fill:#ff0000;fill-opacity:1;fill-rule:evenodd;stroke:#000000;stroke-width:3.04499269px;stroke-linecap:butt;stroke-linejoin:miter;marker:none;marker-start:none;marker-mid:none;marker-end:none;stroke-miterlimit:4;stroke-dasharray:none;stroke-dashoffset:0;stroke-opacity:1;visibility:visible;display:inline;overflow:visible;enable-background:accumulate" />
    <path
       id="path24979"
       d="M 344.24029,456.74676 C 340.78526,452.80411 340.51114,452.53797 337.58752,449.36366 C 334.14782,444.43838 327.42988,444.38874 323.05974,441.10158 C 319.4077,437.50541 321.50721,436.70463 317.66665,432.76914 C 314.13906,428.05179 308.18058,426.67078 303.88837,422.97876 C 298.08319,415.70862 287.48168,408.04241 278.70343,414.79878 C 275.78186,417.76571 271.48171,415.99744 269.56285,414.10792 C 267.74875,412.32155 263.06071,412.60637 261.25477,413.07267 C 258.79888,413.70677 256.99176,419.46781 252.86279,420.32673 C 250.76261,420.76362 249.63403,427.39422 249.12704,429.49074 C 250.43166,436.19191 257.81819,439.34901 263.67827,440.79771 C 269.87487,442.29626 269.40236,439.28356 272.08107,444.53935 C 272.5,451.0978 274.27171,461.7366 269.9733,467.39371 C 255.82785,484.77734 256.63211,479.26782 243.32455,466.83771 C 237.67959,463.95975 233.42477,474.39645 234.28366,479.08769 C 234.99789,481.85387 241.19159,482.07956 244.20303,482.05636 C 248.34401,482.02447 249.88156,485.11167 251.10098,488.09339 C 252.29769,491.01954 255.9456,492.35084 257.24357,494.89752 C 265.27726,506.84466 276.3628,514.27373 290.85475,509.86403 C 307.27087,494.64004 307.72201,469.51685 323.34502,453.9222 C 330.56379,451.4634 337.47532,454.51228 344.24029,456.74676 z"
       style="color:#000000;fill:#ff0000;fill-opacity:1;fill-rule:evenodd;stroke:#000000;stroke-width:3.04499269px;stroke-linecap:butt;stroke-linejoin:miter;marker:none;marker-start:none;marker-mid:none;marker-end:none;stroke-miterlimit:4;stroke-dasharray:none;stroke-dashoffset:0;stroke-opacity:1;visibility:visible;display:inline;overflow:visible;enable-background:accumulate"
       sodipodi:nodetypes="ccccccsssccccccsscccc" />
    <path
       sodipodi:nodetypes="ccssssssc"
       id="path24008"
       d="M 304.78445,440.48106 C 301.69466,435.00031 296.06261,431.27923 292.49342,426.11162 C 291.3185,423.80638 282.03707,420.34787 287.15899,425.39143 C 289.85865,428.04984 287.19922,430.61403 287.23521,435.28737 C 287.26681,439.38869 292.15795,439.81707 296.40509,439.78436 C 301.71035,439.7435 296.82381,436.56284 295.87891,435.63235 C 294.46678,434.24182 294.65653,428.01405 293.21597,426.65302 C 286.96191,420.74423 296.47919,430.47056 297.11356,432.92746 C 297.53323,434.55286 303.0699,437.67281 304.78445,440.48106 z "
       style="color:#000000;fill:#ffffff;fill-opacity:1;fill-rule:evenodd;stroke:#000000;stroke-width:3.04499269px;stroke-linecap:butt;stroke-linejoin:miter;marker:none;marker-start:none;marker-mid:none;marker-end:none;stroke-miterlimit:4;stroke-dasharray:none;stroke-dashoffset:0;stroke-opacity:1;visibility:visible;display:inline;overflow:visible;enable-background:accumulate" />
    <path
       sodipodi:nodetypes="cccccc"
       id="path24981"
       d="M 252.43152,475.56689 C 253.9935,472.4743 253.46091,472.96236 254.55028,467.59983 C 252.8201,467.99714 251.89921,469.09501 249.04048,469.41123 C 249.35744,466.71053 248.68927,465.76876 249.36993,462.40435 C 243.40424,462.96984 244.35258,464.40412 241.85545,465.6768 C 246.67859,469.33177 249.49669,472.0222 252.43152,475.56689 z "
       style="color:#000000;fill:#ff0000;fill-opacity:1;fill-rule:evenodd;stroke:#000000;stroke-width:3.04499269px;stroke-linecap:butt;stroke-linejoin:miter;marker:none;marker-start:none;marker-mid:none;marker-end:none;stroke-miterlimit:4;stroke-dasharray:none;stroke-dashoffset:0;stroke-opacity:1;visibility:visible;display:inline;overflow:visible;enable-background:accumulate" />
    <path
       id="path25009"
       d="M 265.96782,441.54135 C 264.26765,443.72776 260.7476,448.86475 259.28054,453.41645 C 256.36648,447.48288 256.7135,445.0533 260.03093,440.35067 C 258.21904,441.8569 255.29997,443.85206 251.98336,445.42034 C 252.43759,441.75903 252.33283,439.26978 254.19667,436.74438 C 256.35377,437.98096 264.38456,440.92215 265.96782,441.54135 z "
       style="color:#000000;fill:#ff0000;fill-opacity:1;fill-rule:evenodd;stroke:#000000;stroke-width:3.04499269px;stroke-linecap:butt;stroke-linejoin:miter;marker:none;marker-start:none;marker-mid:none;marker-end:none;stroke-miterlimit:4;stroke-dasharray:none;stroke-dashoffset:0;stroke-opacity:1;visibility:visible;display:inline;overflow:visible;enable-background:accumulate"
       sodipodi:nodetypes="cccccc" />
    <path
       sodipodi:nodetypes="ccccccccccccsc"
       id="path25022"
       d="M 272.21594,462.04755 C 269.82171,465.16019 268.5199,468.92746 263.13401,468.96894 C 258.34546,464.59965 255.32315,459.03667 251.59833,453.83238 C 247.32279,449.62842 243.35587,445.04531 237.80832,442.51955 C 232.91889,439.08365 228.91571,434.457 224.67707,430.25003 C 220.75959,425.55097 215.46059,422.42502 210.9778,418.36556 C 207.39207,414.48264 205.04858,404.83638 198.71023,407.04097 C 194.72985,409.06964 196.51558,411.87509 198.77473,415.41446 C 202.3247,419.67637 205.25812,424.66944 209.53157,428.2732 C 219.97336,434.37538 227.93491,443.72037 238.62233,449.36471 C 243.77642,452.77342 248.54044,456.82256 253.92891,459.90459 C 257.54578,463.51751 263.49096,468.07749 263.16919,473.53628 C 262.22097,477.82084 264.62374,472.98643 265.62339,470.9481 C 267.58969,466.93852 270.19476,467.21559 272.21594,462.04755 z "
       style="color:#000000;fill:#ff0000;fill-opacity:1;fill-rule:evenodd;stroke:#000000;stroke-width:3.04499269px;stroke-linecap:butt;stroke-linejoin:miter;marker:none;marker-start:none;marker-mid:none;marker-end:none;stroke-miterlimit:4;stroke-dasharray:none;stroke-dashoffset:0;stroke-opacity:1;visibility:visible;display:inline;overflow:visible;enable-background:accumulate" />
    <path
       style="color:#000000;fill:#000000;fill-opacity:1;fill-rule:evenodd;stroke:#000000;stroke-width:1px;stroke-linecap:butt;stroke-linejoin:miter;marker:none;marker-start:none;marker-mid:none;marker-end:none;stroke-miterlimit:4;stroke-dasharray:none;stroke-dashoffset:0;stroke-opacity:1;visibility:visible;display:inline;overflow:visible;enable-background:accumulate"
       d="M 268.35418,414.15395 C 266.86993,418.09119 262.43383,418.18123 258.50952,417.5696 C 259.25763,413.88636 265.32206,414.15395 268.35418,414.15395 z "
       id="path3762"
       sodipodi:nodetypes="ccc" />
    <path
       style="color:#000000;fill:#000000;fill-opacity:1;fill-rule:evenodd;stroke:#000000;stroke-width:0.99794668px;stroke-linecap:butt;stroke-linejoin:miter;marker:none;marker-start:none;marker-mid:none;marker-end:none;stroke-miterlimit:4;stroke-dasharray:none;stroke-dashoffset:0;stroke-opacity:1;visibility:visible;display:inline;overflow:visible;enable-background:accumulate"
       d="M 540.38716,85.833408 C 538.79351,91.707701 535.30212,90.539867 531.94379,89.799592 C 532.4835,85.522688 537.5389,85.833408 540.38716,85.833408 z "
       id="path4735"
       sodipodi:nodetypes="ccc" />
  </g>
</svg>
