<?xml version="1.0" encoding="UTF-8" standalone="no"?>
<!-- Created with Inkscape (http://www.inkscape.org/) -->

<svg
   xmlns:dc="http://purl.org/dc/elements/1.1/"
   xmlns:cc="http://creativecommons.org/ns#"
   xmlns:rdf="http://www.w3.org/1999/02/22-rdf-syntax-ns#"
   xmlns:svg="http://www.w3.org/2000/svg"
   xmlns="http://www.w3.org/2000/svg"
   xmlns:sodipodi="http://sodipodi.sourceforge.net/DTD/sodipodi-0.dtd"
   xmlns:inkscape="http://www.inkscape.org/namespaces/inkscape"
   version="1.0"
   width="208.86046"
   height="244.65999"
   id="svg2780"
   inkscape:version="0.92.4 (5da689c313, 2019-01-14)"
   sodipodi:docname="Dorneck-blazon.svg">
  <metadata
     id="metadata27">
    <rdf:RDF>
      <cc:Work
         rdf:about="">
        <dc:format>image/svg+xml</dc:format>
        <dc:type
           rdf:resource="http://purl.org/dc/dcmitype/StillImage" />
        <dc:title></dc:title>
      </cc:Work>
    </rdf:RDF>
  </metadata>
  <sodipodi:namedview
     pagecolor="#ffffff"
     bordercolor="#666666"
     borderopacity="1"
     objecttolerance="10"
     gridtolerance="10"
     guidetolerance="10"
     inkscape:pageopacity="0"
     inkscape:pageshadow="2"
     inkscape:window-width="3259"
     inkscape:window-height="1417"
     id="namedview25"
     showgrid="false"
     inkscape:zoom="1"
     inkscape:cx="-712.06383"
     inkscape:cy="179.59054"
     inkscape:window-x="-8"
     inkscape:window-y="-8"
     inkscape:window-maximized="1"
     inkscape:current-layer="svg2780"
     inkscape:measure-start="104.255,149.787"
     inkscape:measure-end="104.255,126.383"
     showguides="true"
     inkscape:object-paths="true"
     inkscape:snap-intersection-paths="true" />
  <defs
     id="defs2782" />
  <path
     inkscape:connector-curvature="0"
     style="fill:#ffffff;fill-opacity:1;fill-rule:evenodd;stroke:#000000;stroke-width:1.99999988;stroke-linecap:butt;stroke-miterlimit:4;stroke-dashoffset:0;stroke-opacity:1"
     id="path4212"
     d="m 1,1 3.761095,158.00304 c 2.686489,112.85918 196.651755,112.85918 199.338255,0 L 207.86045,1 Z" />
  <path
     style="opacity:1;fill:#000000;fill-opacity:1;stroke:#000000;stroke-width:1;stroke-miterlimit:4;stroke-dasharray:none;stroke-dashoffset:4.57999992;stroke-opacity:1"
     d="m 164.17009,56.127643 c -2.09774,-1.44021 -4.50014,-0.218278 -2.82842,2.032932 12.79744,17.233557 19.4995,30.837601 26.79683,56.693545 0.59548,2.10989 2.86504,1.88279 2.90165,-0.65533 0.17905,-12.41154 -1.686,-25.926918 1.85616,-41.719303 4.64014,-20.687619 -5.55917,-53.209785 -38.27216,-53.209785 -29.87883,0 -41.7193,23.169878 -41.7193,43.31029 0,13.379676 3.7703,27.871706 11.97015,45.579998 16.23926,35.0701 12.06131,54.30763 0.31583,66.14287 15.0446,6.93344 28.02855,16.06047 28.63783,38.36055 17.90834,-11.32721 40.79007,-39.82926 -8.22012,-112.60676 -7.70922,-11.447781 -14.9453,-23.613087 -16.52862,-39.421202 -0.89938,-8.97955 5.98428,-27.842329 25.8094,-27.842329 16.83577,0 28.9051,13.663178 27.75394,31.908193 -0.19186,3.040792 -2.91782,4.203872 -5.12653,2.209709 -5.55013,-5.010998 -9.22618,-7.954455 -13.34664,-10.783378 z"
     id="path36108"
     inkscape:connector-curvature="0"
     sodipodi:nodetypes="ssssssssccssssss" />
  <path
     style="opacity:1;fill:#000000;fill-opacity:1;stroke:#000000;stroke-width:1;stroke-miterlimit:4;stroke-dasharray:none;stroke-dashoffset:4.57999992;stroke-opacity:1"
     d="m 44.690393,56.127641 c 2.09774,-1.44021 4.50014,-0.218278 2.82842,2.032932 -12.79744,17.233557 -19.4995,30.837601 -26.796826,56.693547 -0.59548,2.10989 -2.86504,1.88279 -2.90165,-0.65533 -0.17905,-12.41154 1.686,-25.92692 -1.85616,-41.719305 -4.64014,-20.687619 5.55917,-53.209785 38.272156,-53.209785 29.87883,0 41.719297,23.169878 41.719297,43.31029 0,13.379676 -3.770297,27.871706 -11.970147,45.58 -16.23926,35.0701 -12.06131,54.30763 -0.31583,66.14287 -15.0446,6.93344 -28.02855,16.06047 -28.63783,38.36055 -17.90834,-11.32721 -40.790066,-39.82926 8.22012,-112.60676 7.70922,-11.447783 14.9453,-23.613089 16.52862,-39.421204 0.89938,-8.97955 -5.98428,-27.842329 -25.8094,-27.842329 -16.83577,0 -28.905096,13.663178 -27.75394,31.908193 0.19186,3.040792 2.91782,4.203872 5.12653,2.209709 5.55013,-5.010998 9.22618,-7.954455 13.34664,-10.783378 z"
     id="path36108-8"
     inkscape:connector-curvature="0"
     sodipodi:nodetypes="ssssssssccssssss" />
</svg>
