<?xml version="1.0" encoding="UTF-8"?>
<svg width="520.17" height="570" xmlns="http://www.w3.org/2000/svg">
 <path d="m515.23 314.04c-7.049-4.03-14.48-7.346-22.024-10.325-12.465-4.915-25.729-7.92-39.185-6.989-18.985 1.308-36.02 15.623-55.005 14.44-10.226-0.64-19.699-5.007-29.23-8.35-16.984-5.964-33.313-12.048-51.208-6.037-13.621 4.578-25.828 12.808-40.255 15.1-14.698 2.332-26.932-3.725-40.434-8.283-18.264-6.17-34.984-11.56-54.087-5.529-13.33 4.208-26.146 10.001-40.103 11.956-13.707 1.923-25.036-1.902-37.95-5.68-16.851-4.935-32.692-8.793-50.362-6.177-17.505 2.596-34.356 8.66-50.448 15.88 0 138.75 118.53 251.02 265.02 251.02 135.54 0 245.2-112.27 245.2-251.02" fill="#fff" stroke="#000" stroke-miterlimit="10" stroke-width="4.9543"/>
 <path d="M423.907 339.5c-3.5 2.24-7.127 4.347-10.357 6.97-6.428 5.218-12.155 10.522-19.21 14.948-7.61 4.776-15.49 9.367-24.024 12.28-6.289 2.147-12.697 2.384-19.27 2.054h-7.536c-8.165 0-15.365.562-23.424-1.07-1.942-.396-7.67-.126-9.056-1.757-1.876-2.2.918-5.252.119-7.55-1.044-3.006-5.1-1.797-7.511-1.83-6.903-.08-13.984.522-20.874.964-5.648.364-15.16 1.044-17.214.397 1.611-5.866 2.252-12.584 2.226-18.668-.027-7.465-6.329-8.482-12.34-8.085-7.642.502-15.946.62-23.456 1.79-5.311.825-10.457 2.497-15.689 3.712-5.7 1.328-11.388 2.682-17.062 4.102 0 0-5.734 2.147-5.747 2.154-2.345.878-7.18-.14-9.71-.403-6.738-.7-13.337-1.731-20.128-1.75-9.222-.034-18.648-1.25-27.77.587-11.897 2.405-24.468 5.668-35.85 9.895-7.147 2.656-13.99 6.606-21.032 9.618l-10.767 5.74-13.277 6.824.634 3.164 6.896 3.653 5.027 2.874 5.384 3.587h3.586l-12.564 1.79H53.514l2.874 3.23c10.985 11.031 29.25 17.815 44.469 19.976 3.362.475 6.738.97 10.08 1.552l17.591 1.79c8.317.846 16.62 1.962 24.976 2.411 8.066.43 16.158.258 24.197 1.182h10.767c.614 0 3.296 5.444 3.693 6.058 1.473 2.292 3.058 4.446 5.119 6.249 10.02 8.752 27.103 5.813 39.284 5.978 3.072.04 5.945-2.173 4.413-5.258-2.042-4.102-6.877-5.093-9.493-8.343 4.393 1.962 8.673 4.294 12.967 6.44l6.639 2.51a2039.18 2039.18 0 0 1 6.566 3.356c3.336 1.711 5.516 1.308 9.208 1.315 4.921 0 13.568-3.865 13.588-9.968.007-4.003-2.847-5.423-5.833-7.253.608.376 3.217-.33 3.91-.397 19.54-1.816 37.726-10.027 54.934-18.99l11.487-5.741 14.354-4.67s11.487-1.077 12.92-1.077c4.876 0 10.372 2.1 14.606 4.32 5.304 2.781 10.9 4.862 16.177 7.755 5.84 3.197 11.633 6.487 17.247 10.067" fill="#0093dd"/>
 <g stroke="#000">
  <path d="M440.41 432.32c.244-.575-11.131-7.795-11.917-8.336-13.39-9.262-26.489-17.003-41.385-23.622-3.739-1.658-7.114-3.39-11.197-4.103-4.36-.753-8.673-.033-13.04.357-5.707.509-10.173 2.352-15.497 4.34-20.392 7.623-38.617 21.032-60.528 24.322-6.6.99-13.258 1.42-19.923 1.341-9.644-.119-19.289-.218-28.933-.317l-7.907-.086-23.701-.257c-19.156-.199-38.313-.787-57.43-2.134a737.796 737.796 0 0 1-15.299-1.235c-16.534-1.5-33.319-2.729-49.199-7.92a89.282 89.282 0 0 1-15.378-6.652c-6.15-3.396-11.045-6.983-15.457-12.498.264.336 3.745-.04 4.195-.04h6.097l12.564-1.79h-3.587l-5.384-3.587-5.027-2.874-4.307-2.51-3.23-4.307 13.277-6.823 10.767-5.74c7.042-3.02 13.885-6.963 21.032-9.618 11.382-4.228 23.952-7.491 35.85-9.896 8.573-1.73 18.02-.588 26.745-.588h10.047l15.074 2.154 77.802 14.995c11.474 2.021 22.975 3.917 34.422 6.09 7.365 1.4 14.698 3.006 22.122 4.076 8.905 1.288 17.941.62 26.898.72 7.313.08 14.797-.132 21.8-2.484 19.724-9.202 38.034-21.984 57.224-34.614 5.892-4.855 10.965-8.277 19.95-13.964-3.528 3.448-6.5 6.143-8.245 10.992-2.655 7.379 9.36 11.131 5.608 18.053-1.48 2.735-4.55 5.179-4.881 8.429-.41 3.99 3.673 6.196 4.829 9.479 2.22 6.315-6.527 10.364-4.75 16.342 1.11 3.732 6.295 7.26 4.102 11.573-1.545 3.045-4.855 4.432-4.835 8.297.013 2.523 1.308 4.901 2.642 6.969 1.632 2.53 4.05 3.573 3.673 6.956-.443 3.943-3.594 7.299-5.688 10.51z" fill="#0093dd" stroke-linecap="round" stroke-miterlimit="0" stroke-width="3.3"/>
  <g stroke-miterlimit="10">
   <g fill="none">
    <path d="M447.02 325.13c-9.72 7.487-43.263 30.29-52.684 36.284-7.61 4.776-15.49 9.367-24.024 12.28-6.289 2.147-12.697 2.384-19.27 2.054h-7.536c-6.211-.515-22.93-1.836-32.48-3.41.102-2.556.918-4.669.119-6.967-1.044-3.006-5.01-3.068-7.421-3.1-20.683-.047-26.143.768-38.178 1.698 1.611-5.866 2.252-11.651 2.226-17.735-.027-7.465-6.329-8.482-12.34-8.085-13.98-.167-26.65 2.56-39.145 5.502-8.51 1.945-14.976 3.317-22.81 6.256-54.024-7.882-87.781 3.709-125.26 23.687l-13.277 6.824.634 3.164 6.896 3.653 5.027 2.874 5.384 3.587h3.586l-12.564 1.79H53.506l2.874 3.23c10.985 11.031 29.25 17.815 44.469 19.976 3.362.475 6.738.97 10.08 1.552l17.591 1.79c8.317.846 16.62 1.962 24.976 2.411 8.066.43 16.158.258 24.197 1.182l10.767.933c.612.053 3.296 4.51 3.693 5.125 1.473 2.292 3.058 4.446 5.119 6.249 10.02 8.752 27.103 5.813 39.284 5.978 3.072.04 5.945-2.173 4.413-5.258-2.042-4.102-9.327-8.934-11.943-12.184 12.319 7.248 24.818 17.482 37.83 17.462 4.921 0 13.568-3.398 13.588-9.502.007-4.003-2.847-5.423-5.833-7.253 25.129-3.624 47.998-14.434 70.331-25.594 14.644-5.155 28.345-8.424 41.88-1.427 5.304 2.781 10.9 4.862 16.177 7.755 5.84 3.197 11.633 6.487 17.247 10.067 7.002 4.466 13.33 9.777 20.161 14.46" stroke-linecap="round" stroke-miterlimit="0" stroke-width="4.9"/>
    <path d="M151.86 376.47c30.835 9.182 62.146 13.984 91.845 17.584 11.263 1.341 22.578 2.477 33.933 2.51 23.424.06 46.722-4.254 69.921-7.114 13.898-1.711 27.883-3.098 41.893-3.111" stroke-width="3.302"/>
    <path d="M83.662 388.32c4.435 2.758 15.198 7.633 15.927 11.038.535 3.27-4.202 4.61-6.54 5.417-2.213.766-5.78.277-7.537 1.836-1.817 1.625-3.435 4.188-3.64 6.652m39.839-26.919c2.048 2.914 5.37 6.243 3.779 10.101-8.515 11.256-26.549 16.557-37.732 18.787" stroke-width="3.303"/>
    <path d="M123.5 367.5c7.231 6.046 18.27 10.33 22.294 18.258 1.592 3.323.734 7.907-.218 11.302-4.315 8.696-15.093 13.146-22.829 16.812-2.814 1.32-5.694 2.602-8.607 3.699-1.982.746-3.95 1.506-5.925 2.26" stroke-width="3.303"/>
    <path d="M133.39 408.65c9.149-.674 20.002-2.18 28.325-1.229 1.605.205 3.759.925 4.234 2.755.687 2.636-4.234 5.641-5.945 6.79-4.459 2.986-8.35 4.525-14.599 6.223" stroke-width="3.302"/>
    <path d="M403.23 355.66c5.489 6.93 8.56 14.09 9.314 22.975.528 6.229-3.482 13.304-6.699 18.456-1.915 3.072-3.943 6.163-5.568 9.393" stroke-width="3.303"/>
    <path d="m428.53 349.81-19.777 13.488m20.881 1.857-18.166 6.605m22.842 12.425-22.294-.607m17.618 19.077-20.881-10.622m15.649 21.225-20.808-12.472" stroke-width="3.3"/>
   </g>
   <g stroke-width="1.651">
    <circle cx="154.19" cy="365.16" r="6.606"/>
    <circle cx="100.16" cy="375.05" r="9.499" fill="#0093dd"/>
    <circle cx="202.56" cy="371.76" r="5.846"/>
    <circle cx="174.21" cy="361.85" r="6.196"/>
    <circle cx="183.61" cy="375.05" r="5.06"/>
    <circle cx="191.97" cy="363.3" r="4.75"/>
    <circle cx="222" cy="381.67" r="6.295"/>
    <circle cx="233.04" cy="369.28" r="5.985"/>
    <circle cx="241.29" cy="383.58" r="4.386"/>
    <circle cx="259.26" cy="382.22" r="5.747"/>
    <circle cx="289.5" cy="381.53" r="5.06"/>
    <circle cx="276.12" cy="390.09" r="3.924"/>
    <circle cx="313.94" cy="384.54" r="4.644"/>
    <circle cx="337.81" cy="383.01" r="3.818"/>
    <circle cx="100.16" cy="375.04" r="5.952"/>
   </g>
   <path d="M515.23 314.04c-17.122-9.446-43.003-18.119-61.208-17.313-18.985 1.308-36.021 15.622-55.005 14.44-10.226-.64-19.698-5.007-29.23-8.35-16.983-5.964-33.312-12.049-51.207-6.037-13.621 4.578-25.828 12.808-40.255 15.1-13.575 2.154-24.487 1.256-36.866-4.716-18.106-8.739-37.586-15.424-57.654-9.096-13.33 4.208-26.145 10.001-40.103 11.956-13.707 1.923-25.035-1.902-37.95-5.68-16.851-4.935-32.691-8.793-50.362-6.177-17.505 2.596-34.356 8.66-50.448 15.88V4.947h510.29v308.82" fill="#f00000" stroke-width="4.954"/>
   <g stroke-width="3.303">
    <g fill="#094">
     <path d="m373.06 130.24c10.569 31.245 18.179 64.452 27.757 93.246 6.295 18.892 11.19 41.92 23.675 57.938 1.321 1.691 2.352 4.05 3.54 5.628 2.412 3.415 5.113 6.573 8.304 9.261l1.638-2.021v-8.72l-2.926-7.748s-2.953-7.015-2.953-8.118-4.426-8.852-4.796-9.962a3608.1 3608.1 0 0 0-5.535-15.497c-6.771-22.61-13.594-47.693-23.153-68.137-8.39-18.152-14.255-36.377-25.551-45.87z"/>
     <path d="M480.78 83.999c-4.214 18.265-7.696 38.617-12.234 55.012-1.89 6.6-2.854 13.542-3.785 20.339-3.091 23.946-7.015 48.895-8.521 71.295.072 11.355-2.207 19.355-5.945 29.831-3.587 5.727-7.511 7.398-13.436 9.816l-2.517 5.82 3.64 9.472v11.666l7.2-1.143c-2.114-4.115-2.055-7.682-1.863-12.12 11.514-8.753 17.94-24.323 21.957-35.137 6.341-20.907 11.322-50.196 11.448-71.79 2.602-38.564 8.818-58.308 4.056-93.06z"/>
     <path d="m414.9 91.49 3.362 16.276c2.094 14.466 3.693 28.88 5.186 43.426.944 9.195 1.42 17.981 1.347 27.235-.099 11.996 2.055 23.992 3.548 35.869l1.288 12.584s1.552 21.449 1.552 22.221c0 .773.495 19.355.495 19.355l3.065 6.744 2.127-4.92 1.123-14.21v-37.983l-1.895-44.179c-.456-6.572-.932-13.139-1.348-19.71-2.623-22.82-9.737-45.137-19.85-62.708z"/>
    </g>
    <path d="M420.03 16.443c-9.466 3.19-2.55 18.126-1.136 24.164 1.962 8.336 3.48 16.791 4.954 25.227 1.182 6.757 1.262 15.695 3.97 22.03 0 .006 1.546 3.626 1.546 3.626 1.433 2.002 2.477 4.003 5.165 4.168 11.217.674 3.013-33.794 1.81-39.317 0-.006-3.87-17.828-3.87-17.828-3.24-9.977-4.343-23.991-12.439-22.07zm-52.687 28.371c-2.068 2.12-1.387 6.936-1.024 9.724l2.325 6.196c6.81 15.616 13.575 31.252 20.478 46.821 1.017 2.292 1.79 4.776 3.217 6.857 3.237 4.723 10.912 5.773 11.613-1.097.977-9.585-6.718-21.495-10.563-29.897-5.172-11.316-10.331-22.638-15.708-33.86-1.123-2.346-3.376-5.107-6.084-5.642-2.048-.403-3.389.013-4.254.898z"/>
    <path d="m437.98 269.82 2.379-16.864v-17.57l1.149-41.34c.713-25.596 1.103-52.019-2.147-77.537-.885-6.969-2.1-13.885-3.025-20.847m-4.663 172.79-3.865-37.712c0-6.13-2.022-12.927-2.966-18.991-.925-5.932-1.91-11.85-3.045-17.75-2.431-12.636-5.43-25.16-8.892-37.56-3.626-12.98-8.151-25.702-11.632-38.722" fill="none"/>
   </g>
  </g>
  <g fill="#094" stroke-width="3.303">
   <path d="M145.69 130.24c-11.937 35.935-15.283 64.082-24.982 93.246-6.295 18.892-13.965 41.92-26.45 57.938-1.321 1.691-2.352 4.05-3.54 5.628l-2.214 2.953-3.692 4.287-2.398 2.021-1.638-2.021v-8.72l2.926-7.748s2.953-7.015 2.953-8.119 4.426-8.851 4.795-9.96c.37-1.11 5.536-15.498 5.536-15.498l4.056-11.07c6.447-19.019 9.594-41.987 16.84-57.067 7.187-16.799 18.533-33.827 27.807-45.87z" stroke-miterlimit="20"/>
   <path d="M37.971 83.999a244.41 244.41 0 0 1 19.982 75.351c2.523 25.874-.568 70.047 7.92 93.893 1.599 6.341 5.364 12.002 10.331 14.724l5.688 2.325 2.517 5.82-3.64 9.472v11.666l-7.2-1.143 2.12-6.182-.258-5.939s-3.877-2.847-4.908-3.877-8.263-11.111-8.263-11.111l-5.166-10.331-3.62-9.816-2.583-11.368c-3.408-17.287-1.71-35.38-1.81-52.964.066-20.392-2.972-42.342-6.46-59.927L40.038 105.7z" stroke-miterlimit="10"/>
   <path d="m103.86 91.49-3.362 16.276c-2.094 14.466-3.693 28.88-5.186 43.426a243.43 243.43 0 0 0-1.347 27.235c.099 11.996-2.055 23.992-3.548 35.869L89.13 226.88s-1.552 21.449-1.552 22.221c0 .773-.495 19.355-.495 19.355l-3.065 6.744-2.127-4.92-1.123-14.21v-37.983l1.895-44.179c.456-6.572.932-13.139 1.348-19.71.793-12.393 4.274-23.847 8.006-35.619 1.883-5.932 2.722-11.256 5.892-16.759z" stroke-miterlimit="10"/>
  </g>
  <g stroke-miterlimit="10">
   <g stroke-width="3.303">
    <path d="M98.723 16.443c9.466 3.19 2.55 18.126 1.137 24.164-1.962 8.336-3.482 16.791-4.955 25.227-1.182 6.757-1.261 15.695-3.97 22.03 0 .006-1.545 3.626-1.545 3.626-1.434 2.002-2.478 4.003-5.166 4.168-11.217.674-3.012-33.794-1.81-39.317 0-.006 3.87-17.828 3.87-17.828 2.85-10.423 4.343-23.991 12.439-22.07zm52.681 28.371c2.067 2.12 1.387 6.936 1.023 9.724l-2.325 6.196c-6.81 15.616-13.574 31.252-20.477 46.821-1.018 2.292-1.79 4.776-3.217 6.857-3.237 4.723-10.913 5.773-11.613-1.097-.978-9.585 6.718-21.495 10.562-29.897 5.173-11.316 10.332-22.638 15.709-33.86 1.123-2.346 3.375-5.107 6.084-5.642 2.054-.403 3.395.013 4.254.898z" stroke-linecap="round"/>
    <path d="m80.77 269.82-2.38-16.863v-17.57l-1.15-41.34c-.713-25.596-1.102-52.019 2.148-77.537.885-6.969 2.1-13.885 3.025-20.847m4.671 172.79 3.864-37.712c0-6.13 2.022-12.927 2.966-18.991.925-5.932 1.91-11.85 3.046-17.75 2.43-12.636 5.43-25.16 8.89-37.56 3.627-12.98 8.152-25.702 11.633-38.722" fill="none"/>
    <path d="m288.09 124.59 41.299 40.01-55.296-15.747-14.004 55.758-14.004-55.758-55.296 15.748 41.292-40.01-41.292-40.005 55.296 15.748 14.004-55.758 14.004 55.758 55.296-15.748z" fill="#fff"/>
   </g>
   <path d="M4.942 4.942v309.1c0 138.75 118.53 251.02 265.02 251.02 135.53 0 245.2-112.27 245.2-251.02l.066-.008V4.944z" fill="none" stroke-width="9.9"/>
  </g>
 </g>
</svg>
