<?xml version="1.0" encoding="UTF-8"?>
<svg width="400" height="450" xmlns="http://www.w3.org/2000/svg">
<path d="m4.148 4.23h-0.387v245.3c0 108.38 87.861 196.24 196.24 196.24 66.95 0 126.04-33.55 161.45-84.724l-357.3-356.82z" fill="#fff"/>
<path d="m4.1485 4.2308 357.3 356.82c21.917-31.672 34.788-70.081 34.788-111.52v-245.3h-392.09z" fill="#f00000" stroke="#000" stroke-width="4"/>
<path d="m0 0v250c0 110.46 89.546 200 200 200s200-89.538 200-200v-250zm8.775 8.832h382.4v240.2c0 106.12-85.592 192.15-191.19 192.15s-191.21-86.023-191.21-192.15z"/>
</svg>
