<?xml version="1.0" encoding="UTF-8" standalone="no"?>
<!-- Created with Inkscape (http://www.inkscape.org/) -->

<svg
   xmlns:dc="http://purl.org/dc/elements/1.1/"
   xmlns:cc="http://creativecommons.org/ns#"
   xmlns:rdf="http://www.w3.org/1999/02/22-rdf-syntax-ns#"
   xmlns:svg="http://www.w3.org/2000/svg"
   xmlns="http://www.w3.org/2000/svg"
   xmlns:sodipodi="http://sodipodi.sourceforge.net/DTD/sodipodi-0.dtd"
   xmlns:inkscape="http://www.inkscape.org/namespaces/inkscape"
   version="1.0"
   width="208.86046"
   height="244.65999"
   id="svg2780"
   inkscape:version="0.92.4 (5da689c313, 2019-01-14)"
   sodipodi:docname="Obergösgen-blazon.svg">
  <metadata
     id="metadata27">
    <rdf:RDF>
      <cc:Work
         rdf:about="">
        <dc:format>image/svg+xml</dc:format>
        <dc:type
           rdf:resource="http://purl.org/dc/dcmitype/StillImage" />
        <dc:title></dc:title>
      </cc:Work>
    </rdf:RDF>
  </metadata>
  <sodipodi:namedview
     pagecolor="#ffffff"
     bordercolor="#666666"
     borderopacity="1"
     objecttolerance="10"
     gridtolerance="10"
     guidetolerance="10"
     inkscape:pageopacity="0"
     inkscape:pageshadow="2"
     inkscape:window-width="3259"
     inkscape:window-height="1417"
     id="namedview25"
     showgrid="false"
     inkscape:zoom="4"
     inkscape:cx="57.14056"
     inkscape:cy="118.15303"
     inkscape:window-x="-8"
     inkscape:window-y="-8"
     inkscape:window-maximized="1"
     inkscape:current-layer="svg2780"
     inkscape:measure-start="104.255,149.787"
     inkscape:measure-end="104.255,126.383"
     showguides="true"
     inkscape:object-paths="true"
     inkscape:snap-intersection-paths="true"
     inkscape:snap-object-midpoints="true"
     inkscape:snap-global="true" />
  <defs
     id="defs2782" />
  <path
     inkscape:connector-curvature="0"
     style="fill:#ffffff;fill-opacity:1;fill-rule:evenodd;stroke:#000000;stroke-width:1.99999988;stroke-linecap:butt;stroke-miterlimit:4;stroke-dashoffset:0;stroke-opacity:1"
     id="path4212"
     d="m 1,1 3.761095,158.00304 c 2.686489,112.85918 196.651755,112.85918 199.338255,0 L 207.86045,1 Z" />
  <path
     id="path9987-9-9-4-6"
     style="opacity:1;fill:#1b63c6;fill-opacity:1;stroke:#000000;stroke-width:0.99999994;stroke-miterlimit:20;stroke-dasharray:none;stroke-dashoffset:4.57999992;stroke-opacity:1"
     d="m 113.71907,101.79576 c 7.74182,8.79276 20.96229,11.19234 28.70491,19.98601 7.74262,8.79367 8.44908,22.21157 16.19088,31.00433 7.74183,8.79277 20.96228,11.19234 28.70491,19.98601 4.69191,5.32882 6.80002,12.35574 9.45562,19.02251 -5.43615,11.22747 -12.33737,21.79458 -24.14301,30.15111 -4.44242,-8.24172 -6.119,-18.30193 -12.34451,-25.37255 -7.74263,-8.79367 -20.96309,-11.19324 -28.70491,-19.986 -7.74181,-8.79277 -8.44827,-22.21067 -16.19088,-31.00434 -7.74262,-8.79367 -20.963093,-11.19325 -28.704923,-19.98601 z"
     inkscape:connector-curvature="0"
     sodipodi:nodetypes="csssccssscc"
     inkscape:transform-center-x="-148.23808"
     inkscape:transform-center-y="141.10147" />
  <path
     style="opacity:1;fill:#cc2918;fill-opacity:1;stroke:#000000;stroke-width:1;stroke-miterlimit:4;stroke-dasharray:none;stroke-dashoffset:4.57999992;stroke-opacity:1"
     d="M 23.644242,210.25725 207.86045,1 H 1.0000014 c 1.4906831,55.856107 3.3883912,152.05572 4.4720492,167.56832 2.5118335,14.47823 6.5970554,28.69823 18.1721914,41.68893 z"
     id="path6378"
     inkscape:connector-curvature="0"
     sodipodi:nodetypes="ccccc" />
  <g
     id="g6697">
    <path
       sodipodi:nodetypes="ccccccccccc"
       inkscape:connector-curvature="0"
       d="m 53.863964,64.308318 c -1.11384,1.514884 0.112403,2.594898 2.668814,3.531774 V 87.991638 H 44.521038 V 136.8262 H 68.526907 80.521035 V 67.852925 c 2.892349,-1.081407 3.704529,-2.256281 2.668814,-3.544602 L 68.526907,42.159984 Z"
       style="opacity:1;fill:#ffffff;fill-opacity:1;stroke:#000000;stroke-width:1;stroke-miterlimit:4;stroke-dasharray:none;stroke-dashoffset:4.57999992;stroke-opacity:1"
       id="path6474-0-3" />
    <path
       sodipodi:nodetypes="csssc"
       inkscape:connector-curvature="0"
       id="path6431-3"
       d="m 56.536382,67.841365 c -1.9492,-0.68832 -3.107559,-1.549336 -3.10756,-2.483576 -10e-7,-2.256832 6.759644,-4.086355 15.098088,-4.086355 8.338443,0 15.098088,1.829523 15.098087,4.086355 -10e-7,0.931315 -1.151117,1.789863 -3.089272,2.477104"
       style="opacity:1;fill:none;fill-opacity:0.4;stroke:#000000;stroke-width:1;stroke-miterlimit:4;stroke-dasharray:none;stroke-dashoffset:4.57999992;stroke-opacity:1" />
    <path
       inkscape:connector-curvature="0"
       id="path6439-7"
       d="m 68.52691,42.159986 v -24.875"
       style="opacity:1;fill:none;fill-opacity:0.4;stroke:#000000;stroke-width:1;stroke-miterlimit:4;stroke-dasharray:none;stroke-dashoffset:4.57999992;stroke-opacity:1" />
    <path
       sodipodi:nodetypes="cscccscc"
       inkscape:connector-curvature="0"
       d="m 68.52691,28.122197 c -2.543891,0.04149 -4.442428,1.642132 -7.317316,2.260723 -2.509465,0.539963 -5.785162,0.84469 -7.792354,0.153 1.968392,-0.920526 2.29783,-1.963688 4.257313,-3.286242 -2.230372,-0.87486 -2.410914,-1.689402 -3.947954,-3.226008 2.128727,-0.125903 4.672404,-0.722005 6.960898,-1.748104 2.683306,-1.203122 5.295522,-1.83351 7.839413,-1.875 z"
       style="opacity:1;fill:#ffffff;fill-opacity:1;stroke:#000000;stroke-width:1;stroke-miterlimit:4;stroke-dasharray:none;stroke-dashoffset:4.57999992;stroke-opacity:1"
       id="path6441-9-0" />
    <path
       sodipodi:nodetypes="scccscs"
       inkscape:connector-curvature="0"
       d="m 65.5659,71.242048 v 7.601398 h 2.96101 2.96101 v -7.601398 c 0,-1.135201 -1.473495,-2.276 -2.96101,-2.276 -1.487515,0 -2.96101,1.140799 -2.96101,2.276 z"
       style="opacity:1;fill:#000000;fill-opacity:1;stroke:#000000;stroke-width:1;stroke-miterlimit:4;stroke-dasharray:none;stroke-dashoffset:4.57999992;stroke-opacity:1"
       id="path6476-9-7" />
    <path
       sodipodi:nodetypes="cc"
       inkscape:connector-curvature="0"
       id="path6597-68"
       d="M 56.532778,69.466237 V 62.875485"
       style="opacity:1;fill:none;fill-opacity:1;stroke:#000000;stroke-width:1;stroke-miterlimit:4;stroke-dasharray:none;stroke-dashoffset:4.57999992;stroke-opacity:1" />
    <path
       sodipodi:nodetypes="cc"
       inkscape:connector-curvature="0"
       id="path6597-6-4"
       d="M 80.521035,69.466242 V 62.875483"
       style="opacity:1;fill:none;fill-opacity:1;stroke:#000000;stroke-width:1;stroke-miterlimit:4;stroke-dasharray:none;stroke-dashoffset:4.57999992;stroke-opacity:1" />
    <path
       sodipodi:nodetypes="scccscs"
       inkscape:connector-curvature="0"
       d="m 65.565903,71.24205 v 7.601398 h 2.96101 2.96101 V 71.24205 c 0,-1.135201 -1.473495,-2.276 -2.96101,-2.276 -1.487515,0 -2.96101,1.140799 -2.96101,2.276 z"
       style="opacity:1;fill:#000000;fill-opacity:1;stroke:#000000;stroke-width:1;stroke-miterlimit:4;stroke-dasharray:none;stroke-dashoffset:4.57999992;stroke-opacity:1"
       id="path6476-9-4" />
    <path
       inkscape:connector-curvature="0"
       id="path6542"
       d="m 56.532781,87.991638 h 8.609432"
       style="opacity:1;fill:none;fill-opacity:0.4;stroke:#000000;stroke-width:1;stroke-miterlimit:4;stroke-dasharray:none;stroke-dashoffset:4.57999992;stroke-opacity:1" />
    <path
       sodipodi:nodetypes="scccscs"
       inkscape:connector-curvature="0"
       d="m 51.961086,98.189445 v 7.601395 h 2.96101 2.96101 v -7.601395 c 0,-1.135199 -1.473495,-2.275998 -2.96101,-2.275998 -1.487515,0 -2.96101,1.140799 -2.96101,2.275998 z"
       style="opacity:1;fill:#000000;fill-opacity:1;stroke:#000000;stroke-width:1;stroke-miterlimit:4;stroke-dasharray:none;stroke-dashoffset:4.57999992;stroke-opacity:1"
       id="path6476-9-4-1" />
    <path
       sodipodi:nodetypes="scccscs"
       inkscape:connector-curvature="0"
       d="m 66.963974,113.0606 v 14.65888 h 3.30476 3.30476 V 113.0606 c 0,-2.12152 -1.644556,-3.80052 -3.30476,-3.80052 -1.660204,0 -3.30476,1.679 -3.30476,3.80052 z"
       style="opacity:1;fill:#000000;fill-opacity:1;stroke:#000000;stroke-width:0.99999988;stroke-miterlimit:4;stroke-dasharray:none;stroke-dashoffset:4.57999992;stroke-opacity:1"
       id="path6476-9-4-7" />
    <path
       sodipodi:nodetypes="ccccccccc"
       inkscape:connector-curvature="0"
       d="m 17.863967,64.308318 c -1.11384,1.514884 0.112403,2.594898 2.668814,3.531774 V 136.8262 H 32.52691 44.521038 V 67.852925 c 2.892349,-1.081407 3.704529,-2.256281 2.668814,-3.544602 L 32.52691,42.159984 Z"
       style="opacity:1;fill:#ffffff;fill-opacity:1;stroke:#000000;stroke-width:1;stroke-miterlimit:4;stroke-dasharray:none;stroke-dashoffset:4.57999992;stroke-opacity:1"
       id="path6474-0" />
    <path
       sodipodi:nodetypes="csssc"
       inkscape:connector-curvature="0"
       id="path6431"
       d="m 20.536385,67.841365 c -1.9492,-0.68832 -3.107559,-1.549336 -3.10756,-2.483576 -1e-6,-2.256832 6.759644,-4.086355 15.098088,-4.086355 8.338443,0 15.098088,1.829523 15.098087,4.086355 -10e-7,0.931315 -1.151117,1.789863 -3.089272,2.477104"
       style="opacity:1;fill:none;fill-opacity:0.4;stroke:#000000;stroke-width:1;stroke-miterlimit:4;stroke-dasharray:none;stroke-dashoffset:4.57999992;stroke-opacity:1" />
    <path
       inkscape:connector-curvature="0"
       id="path6439"
       d="m 32.526913,42.159986 v -24.875"
       style="opacity:1;fill:none;fill-opacity:0.4;stroke:#000000;stroke-width:1;stroke-miterlimit:4;stroke-dasharray:none;stroke-dashoffset:4.57999992;stroke-opacity:1" />
    <path
       sodipodi:nodetypes="cscccscc"
       inkscape:connector-curvature="0"
       d="m 32.526913,28.122197 c -2.543891,0.04149 -4.442428,1.642132 -7.317316,2.260723 -2.509465,0.539963 -5.785162,0.84469 -7.792354,0.153 1.968392,-0.920526 2.29783,-1.963688 4.257313,-3.286242 -2.230372,-0.87486 -2.410914,-1.689402 -3.947954,-3.226008 2.128727,-0.125903 4.672404,-0.722005 6.960898,-1.748104 2.683306,-1.203122 5.295522,-1.83351 7.839413,-1.875 z"
       style="opacity:1;fill:#ffffff;fill-opacity:1;stroke:#000000;stroke-width:1;stroke-miterlimit:4;stroke-dasharray:none;stroke-dashoffset:4.57999992;stroke-opacity:1"
       id="path6441-9" />
    <path
       sodipodi:nodetypes="scccscs"
       inkscape:connector-curvature="0"
       d="m 29.565903,71.242048 v 7.601398 h 2.96101 2.96101 v -7.601398 c 0,-1.135201 -1.473495,-2.276 -2.96101,-2.276 -1.487515,0 -2.96101,1.140799 -2.96101,2.276 z"
       style="opacity:1;fill:#000000;fill-opacity:1;stroke:#000000;stroke-width:1;stroke-miterlimit:4;stroke-dasharray:none;stroke-dashoffset:4.57999992;stroke-opacity:1"
       id="path6476-9" />
    <path
       sodipodi:nodetypes="cc"
       inkscape:connector-curvature="0"
       id="path6597"
       d="M 20.532781,69.466237 V 62.875485"
       style="opacity:1;fill:none;fill-opacity:1;stroke:#000000;stroke-width:1;stroke-miterlimit:4;stroke-dasharray:none;stroke-dashoffset:4.57999992;stroke-opacity:1" />
    <path
       sodipodi:nodetypes="cc"
       inkscape:connector-curvature="0"
       id="path6597-6"
       d="M 44.521038,69.466242 V 62.875483"
       style="opacity:1;fill:none;fill-opacity:1;stroke:#000000;stroke-width:1;stroke-miterlimit:4;stroke-dasharray:none;stroke-dashoffset:4.57999992;stroke-opacity:1" />
  </g>
  <path
     id="path6399-0"
     style="opacity:1;fill:#009645;fill-opacity:1;stroke:#000000;stroke-width:1;stroke-miterlimit:4;stroke-dasharray:none;stroke-dashoffset:4.57999992;stroke-opacity:1"
     d="M 4.1161786,131.9102 C 11.761631,119.29522 25.400739,119.53895 32.125,131.33416 c 1.041868,-7.40819 7.469421,-12.84438 15.5,-12.84438 8.030579,0 14.458132,5.43619 15.5,12.84438 6.474261,-11.42021 20.36683,-12.04104 28.008821,0.57604 0.122263,0.20186 0.421494,0.7032 0.588253,1.0152 L 23.644242,210.25725 C 0.801632,183.9263 4.9384739,156.68885 4.1161786,131.9102 Z"
     inkscape:connector-curvature="0"
     sodipodi:nodetypes="cccccccc" />
  <path
     inkscape:connector-curvature="0"
     style="fill:none;fill-opacity:1;fill-rule:evenodd;stroke:#000000;stroke-width:1.99999988;stroke-linecap:butt;stroke-miterlimit:4;stroke-dashoffset:0;stroke-opacity:1"
     id="path4212-3"
     d="M 1,0.99999834 4.761095,159.00304 c 2.686489,112.85918 196.651755,112.85918 199.338255,0 l 3.7611,-158.00304166 z" />
</svg>
