<?xml version="1.0" encoding="UTF-8" standalone="no"?>
<!-- Created with Inkscape (http://www.inkscape.org/) -->

<svg
   xmlns:dc="http://purl.org/dc/elements/1.1/"
   xmlns:cc="http://creativecommons.org/ns#"
   xmlns:rdf="http://www.w3.org/1999/02/22-rdf-syntax-ns#"
   xmlns:svg="http://www.w3.org/2000/svg"
   xmlns="http://www.w3.org/2000/svg"
   xmlns:sodipodi="http://sodipodi.sourceforge.net/DTD/sodipodi-0.dtd"
   xmlns:inkscape="http://www.inkscape.org/namespaces/inkscape"
   version="1.0"
   width="208.86046"
   height="244.65999"
   id="svg2780"
   inkscape:version="0.92.4 (5da689c313, 2019-01-14)"
   sodipodi:docname="Trimbach-blazon.svg">
  <metadata
     id="metadata27">
    <rdf:RDF>
      <cc:Work
         rdf:about="">
        <dc:format>image/svg+xml</dc:format>
        <dc:type
           rdf:resource="http://purl.org/dc/dcmitype/StillImage" />
        <dc:title></dc:title>
      </cc:Work>
    </rdf:RDF>
  </metadata>
  <sodipodi:namedview
     pagecolor="#ffffff"
     bordercolor="#666666"
     borderopacity="1"
     objecttolerance="10"
     gridtolerance="10"
     guidetolerance="10"
     inkscape:pageopacity="0"
     inkscape:pageshadow="2"
     inkscape:window-width="3259"
     inkscape:window-height="1417"
     id="namedview25"
     showgrid="false"
     inkscape:zoom="2.8284271"
     inkscape:cx="8.4570659"
     inkscape:cy="82.721121"
     inkscape:window-x="-8"
     inkscape:window-y="-8"
     inkscape:window-maximized="1"
     inkscape:current-layer="svg2780"
     inkscape:measure-start="104.255,149.787"
     inkscape:measure-end="104.255,126.383"
     showguides="true"
     inkscape:object-paths="true"
     inkscape:snap-intersection-paths="true"
     inkscape:snap-global="false" />
  <defs
     id="defs2782" />
  <path
     inkscape:connector-curvature="0"
     style="fill:#ffffff;fill-opacity:1;fill-rule:evenodd;stroke:#000000;stroke-width:1.99999988;stroke-linecap:butt;stroke-miterlimit:4;stroke-dashoffset:0;stroke-opacity:1"
     id="path4212"
     d="m 1,1 3.761095,158.00304 c 2.686489,112.85918 196.651755,112.85918 199.338255,0 L 207.86045,1 Z" />
  <g
     id="g27325"
     transform="matrix(1.0837195,0,0,1.083739,-8.7428466,-9.7380818)"
     style="stroke-width:0.92273968">
    <path
       sodipodi:nodetypes="ccccccccccc"
       inkscape:connector-curvature="0"
       d="m 114.73105,144.24771 -3.66972,33.36114 c 0.37054,2.73865 1.0936,6.26571 0.45273,11.08081 -1.51429,-0.31271 -2.83038,-0.75312 -3.9808,-1.4154 -0.23319,3.91084 -0.62283,6.70932 -3.10302,9.61288 -2.48018,-2.90356 -2.86983,-5.70204 -3.10302,-9.61288 -1.15042,0.66228 -2.466507,1.10269 -3.980799,1.4154 -0.640871,-4.8151 0.08219,-8.34216 0.452728,-11.08081 l -3.669717,-33.36114 h 10.300808 z"
       style="opacity:1;fill:#009645;fill-opacity:1;stroke:#000000;stroke-width:0.92458516;stroke-miterlimit:20;stroke-dasharray:none;stroke-dashoffset:4.57999992;stroke-opacity:1"
       id="path26966-8" />
    <path
       sodipodi:nodetypes="ccccccccccc"
       inkscape:connector-curvature="0"
       d="m 131.68351,116.96308 30.59433,13.79927 c 2.71911,0.49388 6.29699,0.89613 10.67837,2.99359 -0.76535,1.34353 -1.5909,2.45912 -2.57625,3.34857 3.64736,1.43029 6.18847,2.66565 8.1835,5.9217 -3.52787,1.46154 -6.30979,0.96734 -10.10127,-0.0194 0.27436,1.29876 0.28652,2.68653 0.11598,4.22333 -4.77746,-0.87843 -7.90847,-2.65603 -10.39857,-3.85472 l -32.86234,-6.81904 3.18313,-9.79666 z"
       style="opacity:1;fill:#009645;fill-opacity:1;stroke:#000000;stroke-width:0.92458516;stroke-miterlimit:20;stroke-dasharray:none;stroke-dashoffset:4.57999992;stroke-opacity:1"
       id="path26966-8-3" />
    <path
       sodipodi:nodetypes="ccccccccccc"
       inkscape:connector-curvature="0"
       d="m 110.97284,92.408927 22.57805,-24.83273 c 1.30997,-2.433406 2.79816,-5.711862 6.14687,-9.230662 1.04129,1.143067 1.84715,2.272947 2.38858,3.484928 2.48739,-3.026868 4.44753,-5.061853 8.16071,-5.953074 0.29984,3.806845 -1.02983,6.299898 -3.1399,9.600892 1.31997,0.140416 2.64357,0.557685 4.05247,1.194771 -2.31176,4.272187 -4.96989,6.700648 -6.8794,8.698461 l -16.64032,29.146737 -8.33353,-6.054664 z"
       style="opacity:1;fill:#009645;fill-opacity:1;stroke:#000000;stroke-width:0.92458516;stroke-miterlimit:20;stroke-dasharray:none;stroke-dashoffset:4.57999992;stroke-opacity:1"
       id="path26966-8-2" />
    <path
       sodipodi:nodetypes="ccccccccccc"
       inkscape:connector-curvature="0"
       d="M 81.220544,104.51827 64.580216,75.371525 c -1.909507,-1.997803 -4.567625,-4.42626 -6.879397,-8.698456 1.408892,-0.637075 2.732502,-1.05436 4.052479,-1.194774 -2.110078,-3.300996 -3.439736,-5.794031 -3.139909,-9.600892 3.713172,0.891222 5.673322,2.926205 8.160706,5.95307 0.541435,-1.211979 1.347294,-2.341854 2.38858,-3.484922 3.348717,3.518786 4.836909,6.797261 6.146875,9.23066 l 22.578054,24.832729 -8.333535,6.05467 z"
       style="opacity:1;fill:#009645;fill-opacity:1;stroke:#000000;stroke-width:0.92458516;stroke-miterlimit:20;stroke-dasharray:none;stroke-dashoffset:4.57999992;stroke-opacity:1"
       id="path26966-8-0" />
    <path
       sodipodi:nodetypes="ccccccccccc"
       inkscape:connector-curvature="0"
       d="m 83.543271,136.55636 -32.86235,6.81906 c -2.490102,1.19869 -5.621103,2.97628 -10.398584,3.85472 -0.170508,-1.53679 -0.158364,-2.92458 0.116005,-4.22333 -3.79149,0.98673 -6.573408,1.48092 -10.101276,0.0194 1.995044,-3.25604 4.536138,-4.4914 8.183522,-5.92165 -0.98535,-0.88946 -1.810892,-2.00503 -2.576252,-3.34859 4.381379,-2.09744 7.959257,-2.4997 10.67837,-2.99359 l 30.594342,-13.79925 3.183107,9.79664 z"
       style="opacity:1;fill:#009645;fill-opacity:1;stroke:#000000;stroke-width:0.92458516;stroke-miterlimit:20;stroke-dasharray:none;stroke-dashoffset:4.57999992;stroke-opacity:1"
       id="path26966-8-4" />
    <path
       sodipodi:nodetypes="cscccccccscccscccsssssccccscssscccccscscc"
       inkscape:connector-curvature="0"
       d="m 97.48548,36.409977 c -8.58816,-3.402915 -22.66769,1.850151 -25.625,18.375013 -2.54987,14.248179 5.0268,22.076302 13.12499,30.249994 3.10051,3.129399 5.84091,8.197705 2.73428,10.454784 C 84.61318,97.74684 80.63974,93.574393 78.6216,89.658607 73.35045,79.43095 68.24676,69.806085 53.90799,67.828238 37.27806,65.534329 27.93128,77.301495 28.51377,86.520876 c 0.18643,2.950916 0.60855,5.610473 0.0533,7.319458 -0.55528,1.708965 -2.46003,3.612479 -4.34538,5.89023 -5.89024,7.116246 -5.24511,22.129986 9.5571,30.049016 12.76288,6.828 22.54919,2.04118 32.82532,-3.13487 3.93434,-1.9817 9.6014,-3.02178 10.78802,0.63026 1.18662,3.65201 -4.00947,6.14162 -8.35725,6.85092 -11.35596,1.85267 -22.08687,3.7323 -28.39884,16.75808 -7.32056,15.10717 0.98237,27.63272 9.93052,29.92769 2.86409,0.73459 5.52391,1.15496 6.97766,2.21118 1.45373,1.05624 2.67548,3.45598 4.25916,5.95291 4.94777,7.80101 19.42603,11.82694 31.53161,0.19631 10.43776,-10.02824 8.90937,-20.81478 7.16216,-32.18744 -0.66894,-4.35417 0.0931,-10.06527 3.93309,-10.06527 3.83995,0 4.60203,5.7111 3.93309,10.06527 -1.74721,11.37266 -3.2756,22.1592 7.16216,32.18744 12.10558,11.63063 26.58384,7.6047 31.53161,-0.19631 1.58368,-2.49693 2.80543,-4.89667 4.25918,-5.95288 1.45376,-1.05621 4.11359,-1.47661 6.97769,-2.21118 8.94815,-2.29496 17.25106,-14.82053 9.9305,-29.92768 -6.31197,-13.0258 -17.04288,-14.90544 -28.39884,-16.75808 -4.34778,-0.70931 -9.54388,-3.19889 -8.35725,-6.85093 1.1866,-3.65201 6.85368,-2.61196 10.78803,-0.63025 10.27613,5.17604 20.06244,9.96285 32.82531,3.13484 14.80221,-7.91902 15.44735,-22.93275 9.5571,-30.049004 -1.88535,-2.277766 -3.79008,-4.181277 -4.3454,-5.890247 -0.5553,-1.708995 -0.13317,-4.368547 0.0532,-7.31947 0.5825,-9.219383 -8.76428,-20.986534 -25.39422,-18.692632 -14.33877,1.977846 -19.44245,11.60272 -24.71361,21.830369 -2.01813,3.915795 -5.99154,8.088263 -9.09815,5.831162 -3.10659,-2.257054 -0.36622,-7.325377 2.73429,-10.454784 8.0982,-8.173681 15.67486,-16.001824 13.12498,-30.250002 -2.9573,-16.524854 -17.03684,-21.777913 -25.62499,-18.374998 -2.74888,1.089201 -5.14783,2.312504 -6.94472,2.312531 -1.7969,-3e-6 -4.19584,-1.223315 -6.94472,-2.312538 z"
       style="opacity:1;fill:#cc2918;fill-opacity:1;stroke:#000000;stroke-width:0.92458516;stroke-miterlimit:20;stroke-dasharray:none;stroke-dashoffset:4.57999992;stroke-opacity:1"
       id="path26822-3-3-3" />
    <path
       sodipodi:nodetypes="ccc"
       inkscape:connector-curvature="0"
       d="m 93.214621,153.0079 c 1.56676,-5.95287 6.384819,-13.59791 11.215619,-13.59791 4.8308,0 9.64886,7.64504 11.21562,13.59791"
       style="opacity:1;fill:none;fill-opacity:1;stroke:#000000;stroke-width:0.92458516;stroke-miterlimit:20;stroke-dasharray:none;stroke-dashoffset:4.57999992;stroke-opacity:1"
       id="path26948-2" />
    <path
       sodipodi:nodetypes="cccc"
       inkscape:connector-curvature="0"
       d="m 84.36048,74.284987 c -10.112231,-21.212206 0.98547,-28.848787 15.125,-21.875 3.22674,1.426549 7.03314,1.410102 9.88952,0 14.13953,-6.973787 25.23723,0.662794 15.125,21.875"
       style="opacity:1;fill:none;fill-opacity:1;stroke:#000000;stroke-width:0.92458516;stroke-miterlimit:20;stroke-dasharray:none;stroke-dashoffset:4.57999992;stroke-opacity:1"
       id="path26824-8" />
    <path
       sodipodi:nodetypes="cccc"
       inkscape:connector-curvature="0"
       d="m 84.61535,37.059086 c 6.35336,-2.541445 10.40563,2.966592 12.96167,5.257714 4.28557,3.667395 9.90868,3.287368 13.70644,0 2.55604,-2.291122 6.60831,-7.799159 12.96167,-5.257714"
       style="opacity:1;fill:none;fill-opacity:1;stroke:#000000;stroke-width:0.92458516;stroke-miterlimit:20;stroke-dasharray:none;stroke-dashoffset:4.57999992;stroke-opacity:1"
       id="path26826-8" />
    <path
       sodipodi:nodetypes="ccc"
       inkscape:connector-curvature="0"
       d="m 133.79311,139.82315 c -5.17735,-3.32962 -10.95936,-10.27431 -9.46656,-14.86868 1.4928,-4.59436 10.25253,-6.81415 16.3982,-6.4647"
       style="opacity:1;fill:none;fill-opacity:1;stroke:#000000;stroke-width:0.92458516;stroke-miterlimit:20;stroke-dasharray:none;stroke-dashoffset:4.57999992;stroke-opacity:1"
       id="path26948-2-1" />
    <path
       sodipodi:nodetypes="cccc"
       inkscape:connector-curvature="0"
       d="m 56.18709,123.91722 c -23.29886,3.06237 -27.1323,-9.852 -16.13048,-21.14448 2.35385,-2.62798 3.51445,-6.253167 3.05603,-9.40549 -2.26311,-15.60251 8.42909,-23.797218 25.47825,-7.624986"
       style="opacity:1;fill:none;fill-opacity:1;stroke:#000000;stroke-width:0.92458516;stroke-miterlimit:20;stroke-dasharray:none;stroke-dashoffset:4.57999992;stroke-opacity:1"
       id="path26824-8-2" />
    <path
       sodipodi:nodetypes="cccc"
       inkscape:connector-curvature="0"
       d="m 20.86192,112.17139 c -0.45377,-6.82776 6.03691,-8.97962 9.00576,-10.70256 4.81221,-2.942534 6.18842,-8.407865 4.23552,-13.035599 -1.38913,-3.138933 -5.37536,-8.694952 -0.99501,-13.952007"
       style="opacity:1;fill:none;fill-opacity:1;stroke:#000000;stroke-width:0.92458516;stroke-miterlimit:20;stroke-dasharray:none;stroke-dashoffset:4.57999992;stroke-opacity:1"
       id="path26826-8-4" />
    <path
       sodipodi:nodetypes="ccc"
       inkscape:connector-curvature="0"
       d="m 133.79307,97.156416 c -4.76654,3.895044 -13.15807,7.248024 -17.06627,4.408554 -3.9082,-2.839471 -3.31245,-11.856421 -1.08098,-17.593313"
       style="opacity:1;fill:none;fill-opacity:1;stroke:#000000;stroke-width:0.92458516;stroke-miterlimit:20;stroke-dasharray:none;stroke-dashoffset:4.57999992;stroke-opacity:1"
       id="path26948-2-9" />
    <path
       sodipodi:nodetypes="cccc"
       inkscape:connector-curvature="0"
       d="m 94.68406,166.04892 c -4.28726,23.10484 -17.75415,22.75992 -25.09419,8.807 -1.77198,-3.05074 -4.86109,-5.27478 -8.00079,-5.81292 -15.5382,-2.66909 -20.02777,-15.37028 0.62142,-26.5875"
       style="opacity:1;fill:none;fill-opacity:1;stroke:#000000;stroke-width:0.92458516;stroke-miterlimit:20;stroke-dasharray:none;stroke-dashoffset:4.57999992;stroke-opacity:1"
       id="path26824-8-26" />
    <path
       sodipodi:nodetypes="cccc"
       inkscape:connector-curvature="0"
       d="m 72.59702,196.01549 c -6.63379,-1.67832 -6.6746,-8.51629 -7.39579,-11.87226 -1.31147,-5.48597 -6.08405,-8.4837 -11.08875,-8.05643 -3.41456,0.35115 -9.93047,2.42538 -13.57662,-3.3651"
       style="opacity:1;fill:none;fill-opacity:1;stroke:#000000;stroke-width:0.92458516;stroke-miterlimit:20;stroke-dasharray:none;stroke-dashoffset:4.57999992;stroke-opacity:1"
       id="path26826-8-0" />
    <path
       sodipodi:nodetypes="ccc"
       inkscape:connector-curvature="0"
       d="m 93.21463,83.971679 c 2.23145,5.736885 2.82721,14.753833 -1.08099,17.593301 -3.9082,2.83948 -12.29973,-0.51351 -17.06627,-4.408557"
       style="opacity:1;fill:none;fill-opacity:1;stroke:#000000;stroke-width:0.92458516;stroke-miterlimit:20;stroke-dasharray:none;stroke-dashoffset:4.57999992;stroke-opacity:1"
       id="path26948-2-2" />
    <path
       sodipodi:nodetypes="cccc"
       inkscape:connector-curvature="0"
       d="m 146.64995,142.45552 c 20.64917,11.21721 16.15962,23.9184 0.62141,26.58749 -3.449,0.74253 -6.51877,2.99317 -8.00078,5.81292 -7.34004,13.95292 -20.80694,14.29786 -25.09419,-8.807"
       style="opacity:1;fill:none;fill-opacity:1;stroke:#000000;stroke-width:0.92458516;stroke-miterlimit:20;stroke-dasharray:none;stroke-dashoffset:4.57999992;stroke-opacity:1"
       id="path26824-8-3" />
    <path
       sodipodi:nodetypes="cccc"
       inkscape:connector-curvature="0"
       d="m 168.32457,172.72171 c -3.64613,5.79049 -10.16204,3.71625 -13.57661,3.3651 -5.62275,-0.44799 -9.94855,3.16466 -11.08875,8.05644 -0.7212,3.35596 -0.76201,10.19392 -7.3958,11.87226"
       style="opacity:1;fill:none;fill-opacity:1;stroke:#000000;stroke-width:0.92458516;stroke-miterlimit:20;stroke-dasharray:none;stroke-dashoffset:4.57999992;stroke-opacity:1"
       id="path26826-8-6" />
    <path
       sodipodi:nodetypes="ccc"
       inkscape:connector-curvature="0"
       d="m 68.13578,118.48975 c 6.14567,-0.34945 14.90539,1.87036 16.39819,6.46472 1.4928,4.59437 -4.28921,11.53906 -9.46657,14.86866"
       style="opacity:1;fill:none;fill-opacity:1;stroke:#000000;stroke-width:0.92458516;stroke-miterlimit:20;stroke-dasharray:none;stroke-dashoffset:4.57999992;stroke-opacity:1"
       id="path26948-2-21" />
    <path
       sodipodi:nodetypes="cccc"
       inkscape:connector-curvature="0"
       d="m 140.26964,85.742252 c 17.04915,-16.17222 27.74136,-7.977522 25.47824,7.624993 -0.35961,3.509637 0.83228,7.124655 3.05605,9.405485 11.00182,11.29248 7.16838,24.20684 -16.1305,21.14447"
       style="opacity:1;fill:none;fill-opacity:1;stroke:#000000;stroke-width:0.92458516;stroke-miterlimit:20;stroke-dasharray:none;stroke-dashoffset:4.57999992;stroke-opacity:1"
       id="path26824-8-5" />
    <path
       sodipodi:nodetypes="cccc"
       inkscape:connector-curvature="0"
       d="m 175.75233,74.481225 c 4.38036,5.257056 0.39413,10.813065 -0.99499,13.951998 -2.16359,5.209106 -0.0645,10.439568 4.23551,13.035597 2.96885,1.72294 9.45953,3.87481 9.00577,10.70254"
       style="opacity:1;fill:none;fill-opacity:1;stroke:#000000;stroke-width:0.92458516;stroke-miterlimit:20;stroke-dasharray:none;stroke-dashoffset:4.57999992;stroke-opacity:1"
       id="path26826-8-1" />
    <path
       sodipodi:nodetypes="ccc"
       inkscape:connector-curvature="0"
       d="m 97.49116,105.89028 c 3.51591,-12.742996 5.09994,-26.862251 6.93908,-40.835416 1.83914,13.973166 3.42317,28.092421 6.93908,40.835416"
       style="opacity:1;fill:none;fill-opacity:1;stroke:#000000;stroke-width:0.92458516;stroke-miterlimit:20;stroke-dasharray:none;stroke-dashoffset:4.57999992;stroke-opacity:1"
       id="path26828-2-1" />
    <path
       inkscape:connector-curvature="0"
       id="path27249"
       d="m 111.36932,105.89028 -6.93908,12.5995"
       style="opacity:1;fill:#ffffff;fill-opacity:1;stroke:#000000;stroke-width:0.92458516;stroke-miterlimit:20;stroke-dasharray:none;stroke-dashoffset:4.57999992;stroke-opacity:1" />
    <path
       sodipodi:nodetypes="ccc"
       inkscape:connector-curvature="0"
       d="m 90.303111,121.19578 c -11.03283,-7.28163 -23.97155,-13.15123 -36.69249,-19.2183 13.8576,2.56882 27.7753,5.42542 40.98108,6.01939"
       style="opacity:1;fill:none;fill-opacity:1;stroke:#000000;stroke-width:0.92458516;stroke-miterlimit:20;stroke-dasharray:none;stroke-dashoffset:4.57999992;stroke-opacity:1"
       id="path26828-2-1-5" />
    <path
       inkscape:connector-curvature="0"
       id="path27249-1"
       d="m 94.591701,107.99687 9.838539,10.49291"
       style="opacity:1;fill:#ffffff;fill-opacity:1;stroke:#000000;stroke-width:0.92458516;stroke-miterlimit:20;stroke-dasharray:none;stroke-dashoffset:4.57999992;stroke-opacity:1" />
    <path
       sodipodi:nodetypes="ccc"
       inkscape:connector-curvature="0"
       d="M 102.63828,132.76168 C 92.3037,141.00438 82.72309,151.49603 73.02198,161.71954 79.74731,149.33398 86.76489,136.9802 91.4106,124.6043"
       style="opacity:1;fill:none;fill-opacity:1;stroke:#000000;stroke-width:0.92458516;stroke-miterlimit:20;stroke-dasharray:none;stroke-dashoffset:4.57999992;stroke-opacity:1"
       id="path26828-2-1-9" />
    <path
       inkscape:connector-curvature="0"
       id="path27249-8"
       d="m 91.4106,124.6043 13.01964,-6.11452"
       style="opacity:1;fill:#ffffff;fill-opacity:1;stroke:#000000;stroke-width:0.92458516;stroke-miterlimit:20;stroke-dasharray:none;stroke-dashoffset:4.57999992;stroke-opacity:1" />
    <path
       sodipodi:nodetypes="ccc"
       inkscape:connector-curvature="0"
       d="m 117.44987,124.60429 c 4.64573,12.37591 11.6633,24.72969 18.38863,37.11525 -9.70112,-10.22351 -19.28172,-20.71516 -29.61629,-28.95785"
       style="opacity:1;fill:none;fill-opacity:1;stroke:#000000;stroke-width:0.92458516;stroke-miterlimit:20;stroke-dasharray:none;stroke-dashoffset:4.57999992;stroke-opacity:1"
       id="path26828-2-1-96" />
    <path
       inkscape:connector-curvature="0"
       id="path27249-0"
       d="m 106.22221,132.76169 -1.79197,-14.27191"
       style="opacity:1;fill:#ffffff;fill-opacity:1;stroke:#000000;stroke-width:0.92458516;stroke-miterlimit:20;stroke-dasharray:none;stroke-dashoffset:4.57999992;stroke-opacity:1" />
    <path
       sodipodi:nodetypes="ccc"
       inkscape:connector-curvature="0"
       d="m 114.26879,107.99686 c 13.20579,-0.59398 27.12349,-3.45057 40.98109,-6.01938 -12.72095,6.06707 -25.65967,11.93666 -36.6925,19.2183"
       style="opacity:1;fill:none;fill-opacity:1;stroke:#000000;stroke-width:0.92458516;stroke-miterlimit:20;stroke-dasharray:none;stroke-dashoffset:4.57999992;stroke-opacity:1"
       id="path26828-2-1-7" />
    <path
       inkscape:connector-curvature="0"
       id="path27249-5"
       d="m 118.55738,121.19578 -14.12714,-2.706"
       style="opacity:1;fill:#ffffff;fill-opacity:1;stroke:#000000;stroke-width:0.92458516;stroke-miterlimit:20;stroke-dasharray:none;stroke-dashoffset:4.57999992;stroke-opacity:1" />
    <path
       sodipodi:nodetypes="ccscscccccccccscccccc"
       inkscape:connector-curvature="0"
       d="m 125.13748,111.7618 c -0.67635,-2.08149 -2.73136,-4.07958 -5.65388,-4.20862 0.78038,-2.81929 -0.48492,-5.39111 -2.25559,-6.67754 -1.77068,-1.286414 -4.60764,-1.695037 -7.0479,-0.0817 -1.02584,-2.73952 -3.56121,-4.076455 -5.74986,-4.076455 -2.18866,0 -4.72403,1.336935 -5.749883,4.076455 -2.44022,-1.613367 -5.277231,-1.204754 -7.047892,0.0817 -1.770664,1.28643 -3.035965,3.85824 -2.255613,6.67754 -2.922514,0.12905 -4.977517,2.12713 -5.653846,4.20863 -0.676337,2.08147 -0.188275,4.9058 2.100228,6.72798 -2.288504,1.82217 -2.776578,4.64652 -2.100239,6.728 0.676329,2.08148 2.731342,4.07956 5.653849,4.20862 -0.780373,2.81929 0.484935,5.39109 2.255594,6.67751 1.770658,1.28644 4.607666,1.69505 7.047902,0.0817 1.025833,2.73952 3.56121,4.07645 5.74986,4.07645 2.18865,0 4.72402,-1.33693 5.7499,-4.07645 2.44021,1.61335 5.27722,1.20474 7.0479,-0.0817 1.77066,-1.28643 3.03595,-3.85822 2.2556,-6.67752 2.9225,-0.12904 4.97753,-2.12712 5.65385,-4.20861 0.67633,-2.08148 0.18826,-4.90583 -2.10023,-6.72799 2.2885,-1.82217 2.77656,-4.64651 2.10025,-6.72798 z"
       style="opacity:1;fill:#feeb00;fill-opacity:1;stroke:#000000;stroke-width:0.92458516;stroke-miterlimit:20;stroke-dasharray:none;stroke-dashoffset:4.57999992;stroke-opacity:1"
       id="path26865-9-7-2" />
  </g>
</svg>
