<?xml version="1.0" encoding="UTF-8" standalone="no"?>
<!-- Created with Inkscape (http://www.inkscape.org/) -->

<svg
   xmlns:dc="http://purl.org/dc/elements/1.1/"
   xmlns:cc="http://creativecommons.org/ns#"
   xmlns:rdf="http://www.w3.org/1999/02/22-rdf-syntax-ns#"
   xmlns:svg="http://www.w3.org/2000/svg"
   xmlns="http://www.w3.org/2000/svg"
   xmlns:sodipodi="http://sodipodi.sourceforge.net/DTD/sodipodi-0.dtd"
   xmlns:inkscape="http://www.inkscape.org/namespaces/inkscape"
   version="1.0"
   width="208.86046"
   height="244.65999"
   id="svg2780"
   inkscape:version="0.92.4 (5da689c313, 2019-01-14)"
   sodipodi:docname="Wisen-blazon.svg">
  <metadata
     id="metadata27">
    <rdf:RDF>
      <cc:Work
         rdf:about="">
        <dc:format>image/svg+xml</dc:format>
        <dc:type
           rdf:resource="http://purl.org/dc/dcmitype/StillImage" />
        <dc:title></dc:title>
      </cc:Work>
    </rdf:RDF>
  </metadata>
  <sodipodi:namedview
     pagecolor="#ffffff"
     bordercolor="#666666"
     borderopacity="1"
     objecttolerance="10"
     gridtolerance="10"
     guidetolerance="10"
     inkscape:pageopacity="0"
     inkscape:pageshadow="2"
     inkscape:window-width="3259"
     inkscape:window-height="1417"
     id="namedview25"
     showgrid="false"
     inkscape:zoom="1.4142136"
     inkscape:cx="199.07487"
     inkscape:cy="95.002744"
     inkscape:window-x="-8"
     inkscape:window-y="-8"
     inkscape:window-maximized="1"
     inkscape:current-layer="svg2780"
     inkscape:measure-start="104.255,149.787"
     inkscape:measure-end="104.255,126.383"
     showguides="true"
     inkscape:object-paths="true"
     inkscape:snap-intersection-paths="true"
     inkscape:snap-global="true" />
  <defs
     id="defs2782" />
  <path
     inkscape:connector-curvature="0"
     style="fill:#feeb00;fill-opacity:1;fill-rule:evenodd;stroke:#000000;stroke-width:1.99999988;stroke-linecap:butt;stroke-miterlimit:4;stroke-dashoffset:0;stroke-opacity:1"
     id="path4212"
     d="m 1,1 3.761095,158.00304 c 2.686489,112.85918 196.651755,112.85918 199.338255,0 L 207.86045,1 Z" />
  <path
     style="opacity:1;fill:#cc2918;fill-opacity:1;stroke:#000000;stroke-width:1;stroke-miterlimit:4;stroke-dasharray:none;stroke-dashoffset:4.57999992;stroke-opacity:1"
     d="m 104.43024,1 v 242.64742 c 16.74805,-0.63013 33.56238,-2.52795 50.71509,-10.89923 V 1 Z"
     id="path7555"
     inkscape:connector-curvature="0"
     sodipodi:nodetypes="ccccc" />
  <path
     style="opacity:1;fill:#cc2918;fill-opacity:1;stroke:#000000;stroke-width:1;stroke-miterlimit:4;stroke-dasharray:none;stroke-dashoffset:4.57999992;stroke-opacity:1"
     d="M 53.715109,1 H 1 l 4.1843186,165.0094 c 2.7761319,26.92271 18.3302714,53.67539 48.5307904,66.73879 z"
     id="path7557"
     inkscape:connector-curvature="0"
     sodipodi:nodetypes="ccccc" />
  <path
     style="opacity:1;fill:#1b63c6;fill-opacity:1;stroke:#000000;stroke-width:1;stroke-miterlimit:4;stroke-dasharray:none;stroke-dashoffset:4.57999992;stroke-opacity:1"
     d="m 71.753144,103.11363 c -4.26456,20.04197 -8.99815,39.65555 -23.494302,55.27933 23.077292,3.5574 29.460472,-29.58374 32.801882,-55.45075 z"
     id="path7360-9"
     inkscape:connector-curvature="0"
     sodipodi:nodetypes="cccc" />
  <path
     style="opacity:1;fill:none;fill-opacity:1;stroke:#000000;stroke-width:1;stroke-miterlimit:4;stroke-dasharray:none;stroke-dashoffset:4.57999992;stroke-opacity:1"
     d="m 83.753054,101.47086 c -1.43757,19.59313 -3.50627,35.81965 -8.97402,51.08371"
     id="path7530-8"
     inkscape:connector-curvature="0"
     sodipodi:nodetypes="cc" />
  <path
     style="opacity:1;fill:none;fill-opacity:1;stroke:#000000;stroke-width:1;stroke-miterlimit:4;stroke-dasharray:none;stroke-dashoffset:4.57999992;stroke-opacity:1"
     d="m 141.15619,103.23864 c 5.67022,17.1961 14.61192,33.12902 26.42812,47.7297"
     id="path7338"
     inkscape:connector-curvature="0"
     sodipodi:nodetypes="cc" />
  <path
     style="opacity:1;fill:none;fill-opacity:1;stroke:#000000;stroke-width:1;stroke-miterlimit:4;stroke-dasharray:none;stroke-dashoffset:4.57999992;stroke-opacity:1"
     d="m 156.35899,96.609505 c 6.66972,9.536075 15.19929,18.080235 28.90299,23.864855"
     id="path7340"
     inkscape:connector-curvature="0"
     sodipodi:nodetypes="cc" />
  <path
     style="opacity:1;fill:none;fill-opacity:1;stroke:#000000;stroke-width:1;stroke-miterlimit:4;stroke-dasharray:none;stroke-dashoffset:4.57999992;stroke-opacity:1"
     d="m 163.9345,81.101252 c 9.17997,3.25036 20.64062,4.353072 30.05572,4.076588"
     id="path7342"
     inkscape:connector-curvature="0"
     sodipodi:nodetypes="cc" />
  <path
     style="opacity:1;fill:none;fill-opacity:1;stroke:#000000;stroke-width:1;stroke-miterlimit:4;stroke-dasharray:none;stroke-dashoffset:4.57999992;stroke-opacity:1"
     d="m 167.09687,64.200233 c 9.7128,0.657244 22.19163,-0.794062 30.45737,-5.431218"
     id="path7344"
     inkscape:connector-curvature="0"
     sodipodi:nodetypes="cc" />
  <path
     style="opacity:1;fill:none;fill-opacity:1;stroke:#000000;stroke-width:1;stroke-miterlimit:4;stroke-dasharray:none;stroke-dashoffset:4.57999992;stroke-opacity:1"
     d="m 168.48152,45.498068 c 9.72762,-0.809574 20.48579,-5.385047 29.062,-10.513771"
     id="path7348"
     inkscape:connector-curvature="0"
     sodipodi:nodetypes="cc" />
  <path
     style="opacity:1;fill:#1b63c6;fill-opacity:1;stroke:#000000;stroke-width:1;stroke-miterlimit:4;stroke-dasharray:none;stroke-dashoffset:4.57999992;stroke-opacity:1"
     d="m 168.11908,31.963612 c 9.92756,-3.437307 18.27788,-8.863682 27.7521,-13.887694 -2.35198,7.534626 -4.81199,18.286672 -26.14594,23.311553 z"
     id="path7350"
     inkscape:connector-curvature="0"
     sodipodi:nodetypes="cccc" />
  <path
     style="opacity:1;fill:#1b63c6;fill-opacity:1;stroke:#000000;stroke-width:1;stroke-miterlimit:4;stroke-dasharray:none;stroke-dashoffset:4.57999992;stroke-opacity:1"
     d="m 167.69675,51.232588 c 10.68785,-1.521382 20.46895,-4.781096 29.78687,-9.015612 -3.24735,11.195214 -13.20055,19.064203 -31.46641,18.093881 z"
     id="path7352"
     inkscape:connector-curvature="0"
     sodipodi:nodetypes="cccc" />
  <path
     style="opacity:1;fill:#1b63c6;fill-opacity:1;stroke:#000000;stroke-width:1;stroke-miterlimit:4;stroke-dasharray:none;stroke-dashoffset:4.57999992;stroke-opacity:1"
     d="m 162.32574,85.42416 c 8.75823,7.987061 20.26066,11.870161 33.11606,13.425383 -8.33472,11.713077 -20.37237,8.622907 -36.32761,-2.724874 z"
     id="path7356"
     inkscape:connector-curvature="0"
     sodipodi:nodetypes="cccc" />
  <path
     style="opacity:1;fill:#1b63c6;fill-opacity:1;stroke:#000000;stroke-width:1;stroke-miterlimit:4;stroke-dasharray:none;stroke-dashoffset:4.57999992;stroke-opacity:1"
     d="m 151.51463,98.634315 c 8.41967,14.169475 20.68547,29.387575 33.79392,38.705215 -16.46877,8.58569 -27.07241,-9.08209 -40.97038,-31.97957 z"
     id="path7358"
     inkscape:connector-curvature="0"
     sodipodi:nodetypes="cccc" />
  <path
     style="opacity:1;fill:#1b63c6;fill-opacity:1;stroke:#000000;stroke-width:1;stroke-miterlimit:4;stroke-dasharray:none;stroke-dashoffset:4.57999992;stroke-opacity:1"
     d="m 137.10734,103.11363 c 4.26456,20.04197 8.99815,39.65555 23.4943,55.27933 -23.07729,3.5574 -29.46047,-29.58374 -32.80188,-55.45075 z"
     id="path7360"
     inkscape:connector-curvature="0"
     sodipodi:nodetypes="cccc" />
  <path
     style="opacity:1;fill:#1b63c6;fill-opacity:1;stroke:#000000;stroke-width:1;stroke-miterlimit:4;stroke-dasharray:none;stroke-dashoffset:4.57999992;stroke-opacity:1"
     d="m 164.34849,68.801925 c 9.5198,2.307399 21.64585,1.282181 33.24474,-2.62132 -1.89126,12.082749 -15.99244,14.781712 -30.19925,13.722718 z"
     id="path7362"
     inkscape:connector-curvature="0"
     sodipodi:nodetypes="cccc" />
  <path
     style="opacity:1;fill:#1b63c6;fill-opacity:1;stroke:#000000;stroke-width:1;stroke-miterlimit:4;stroke-dasharray:none;stroke-dashoffset:4.57999992;stroke-opacity:1"
     d="m 164.40233,166.52469 c 5.36805,-4.28949 15.11109,-3.27151 15.99829,1.63518 -4.12078,-0.99831 -7.97142,-0.49161 -11.26952,3.09359 z"
     id="path7368"
     inkscape:connector-curvature="0"
     sodipodi:nodetypes="cccc" />
  <path
     style="opacity:1;fill:#1b63c6;fill-opacity:1;stroke:#000000;stroke-width:1;stroke-miterlimit:4;stroke-dasharray:none;stroke-dashoffset:4.57999992;stroke-opacity:1"
     d="m 173.24116,180.40166 c 6.36968,-0.0976 11.96203,1.0617 12.86051,9.81111 -3.44715,-3.29803 -8.66206,-4.84355 -12.99309,-4.37523 z"
     id="path7366"
     inkscape:connector-curvature="0"
     sodipodi:nodetypes="cccc" />
  <path
     style="opacity:1;fill:#1b63c6;fill-opacity:1;stroke:#000000;stroke-width:1;stroke-miterlimit:4;stroke-dasharray:none;stroke-dashoffset:4.57999992;stroke-opacity:1"
     d="m 164.44652,194.01346 c 3.96765,8.32512 0.5907,12.1305 -4.552,14.84925 1.55848,-4.8319 2.52618,-9.66379 -0.22097,-14.49569 z"
     id="path7370"
     inkscape:connector-curvature="0"
     sodipodi:nodetypes="cccc" />
  <path
     style="opacity:1;fill:#1b63c6;fill-opacity:1;stroke:#000000;stroke-width:1;stroke-miterlimit:4;stroke-dasharray:none;stroke-dashoffset:4.57999992;stroke-opacity:1"
     d="m 137.375,190.28499 c -3.22894,4.07432 -2.35339,8.6133 3.25,13.6875 -0.49998,-3.9375 -1.47222,-7.90873 0.25,-11.6875 z"
     id="path7372"
     inkscape:connector-curvature="0"
     sodipodi:nodetypes="cccc" />
  <path
     style="opacity:1;fill:#1b63c6;fill-opacity:1;stroke:#000000;stroke-width:1;stroke-miterlimit:4;stroke-dasharray:none;stroke-dashoffset:4.57999992;stroke-opacity:1"
     d="m 119.875,163.65999 25.625,12.625 c 5.49621,2.70789 12.40305,-1.14339 15.25,-2.875 1.49887,-0.91166 1.53508,-3.14645 1.3156,-4.67381 -0.45073,-3.13673 2.34,-4.79798 5.5594,-1.95119 1.70334,1.50619 3.92486,4.02544 2.625,5.5 -3.51285,3.98499 -6.97119,6.63476 -10.375,9.625 2.39949,1.03846 5.0469,1.38825 8.5,-0.5 6.97793,-5.42319 6.67012,0.0756 6.625,1.875 -0.0733,2.9228 -0.24318,5.1167 -2.75,4.875 -3.89867,-0.3393 -6.96886,-1.68884 -11.875,-1.5 1.27703,2.38678 2.73822,4.19799 4.125,5.25 2.10198,1.59456 0.86133,3.86331 -1.125,4.25 -4.35585,0.84797 -5.81955,-2.41448 -6.375,-4.375 -0.33938,-1.19786 -3.31156,-3.66756 -5.25,-5.625 -1.51919,2.25516 -3.16068,4.12221 -6.875,5.375 -1.99041,0.67134 -3.78554,3.22497 -6.375,1.75 -2.14408,-1.22128 -4.23769,-2.37032 -0.5,-5.625 1.56087,-1.35916 4.84935,0.2654 5.625,-3.375 l -21.5,-10.625 z"
     id="path7364"
     inkscape:connector-curvature="0"
     sodipodi:nodetypes="csssssccsccssscsssccc" />
  <path
     style="opacity:1;fill:none;fill-opacity:1;stroke:#000000;stroke-width:1;stroke-miterlimit:4;stroke-dasharray:none;stroke-dashoffset:4.57999992;stroke-opacity:1"
     d="m 67.70439,103.23864 c -5.67022,17.1961 -14.61192,33.12902 -26.42812,47.7297"
     id="path7338-5"
     inkscape:connector-curvature="0"
     sodipodi:nodetypes="cc" />
  <path
     style="opacity:1;fill:none;fill-opacity:1;stroke:#000000;stroke-width:1;stroke-miterlimit:4;stroke-dasharray:none;stroke-dashoffset:4.57999992;stroke-opacity:1"
     d="M 52.50159,96.6095 C 45.83187,106.14558 37.3023,114.68974 23.5986,120.47436"
     id="path7340-8"
     inkscape:connector-curvature="0"
     sodipodi:nodetypes="cc" />
  <path
     style="opacity:1;fill:none;fill-opacity:1;stroke:#000000;stroke-width:1;stroke-miterlimit:4;stroke-dasharray:none;stroke-dashoffset:4.57999992;stroke-opacity:1"
     d="m 44.92608,81.101247 c -9.17997,3.25036 -20.64062,4.353072 -30.055716,4.076588"
     id="path7342-7"
     inkscape:connector-curvature="0"
     sodipodi:nodetypes="cc" />
  <path
     style="opacity:1;fill:none;fill-opacity:1;stroke:#000000;stroke-width:1;stroke-miterlimit:4;stroke-dasharray:none;stroke-dashoffset:4.57999992;stroke-opacity:1"
     d="M 41.76371,64.200228 C 32.05091,64.857472 19.572084,63.406166 11.306344,58.76901"
     id="path7344-5"
     inkscape:connector-curvature="0"
     sodipodi:nodetypes="cc" />
  <path
     style="opacity:1;fill:none;fill-opacity:1;stroke:#000000;stroke-width:1;stroke-miterlimit:4;stroke-dasharray:none;stroke-dashoffset:4.57999992;stroke-opacity:1"
     d="M 40.37906,45.498063 C 30.65144,44.688489 19.893274,40.113016 11.317064,34.984292"
     id="path7348-1"
     inkscape:connector-curvature="0"
     sodipodi:nodetypes="cc" />
  <path
     style="opacity:1;fill:#1b63c6;fill-opacity:1;stroke:#000000;stroke-width:1;stroke-miterlimit:4;stroke-dasharray:none;stroke-dashoffset:4.57999992;stroke-opacity:1"
     d="M 40.7415,31.963607 C 30.81394,28.5263 22.46362,23.099925 12.989404,18.075913 c 2.35198,7.534626 4.81199,18.286672 26.145936,23.311553 z"
     id="path7350-9"
     inkscape:connector-curvature="0"
     sodipodi:nodetypes="cccc" />
  <path
     style="opacity:1;fill:#1b63c6;fill-opacity:1;stroke:#000000;stroke-width:1;stroke-miterlimit:4;stroke-dasharray:none;stroke-dashoffset:4.57999992;stroke-opacity:1"
     d="M 41.16383,51.232583 C 30.47598,49.711201 20.69488,46.451487 11.376964,42.216971 14.624314,53.412185 24.57751,61.281174 42.84337,60.310852 Z"
     id="path7352-1"
     inkscape:connector-curvature="0"
     sodipodi:nodetypes="cccc" />
  <path
     style="opacity:1;fill:#1b63c6;fill-opacity:1;stroke:#000000;stroke-width:1;stroke-miterlimit:4;stroke-dasharray:none;stroke-dashoffset:4.57999992;stroke-opacity:1"
     d="M 46.53484,85.424155 C 37.77661,93.411216 26.27418,97.294316 13.418784,98.849538 21.7535,110.56262 33.79115,107.47245 49.74639,96.124664 Z"
     id="path7356-0"
     inkscape:connector-curvature="0"
     sodipodi:nodetypes="cccc" />
  <path
     style="opacity:1;fill:#1b63c6;fill-opacity:1;stroke:#000000;stroke-width:1;stroke-miterlimit:4;stroke-dasharray:none;stroke-dashoffset:4.57999992;stroke-opacity:1"
     d="m 57.34595,98.63431 c -8.41967,14.16948 -20.68547,29.38758 -33.79392,38.70522 16.46877,8.58569 27.07241,-9.08209 40.97038,-31.97957 z"
     id="path7358-2"
     inkscape:connector-curvature="0"
     sodipodi:nodetypes="cccc" />
  <path
     style="opacity:1;fill:#1b63c6;fill-opacity:1;stroke:#000000;stroke-width:1;stroke-miterlimit:4;stroke-dasharray:none;stroke-dashoffset:4.57999992;stroke-opacity:1"
     d="M 44.51209,68.80192 C 34.99229,71.109319 22.86624,70.084101 11.267354,66.1806 13.158614,78.263349 27.25979,80.962312 41.4666,79.903318 Z"
     id="path7362-5"
     inkscape:connector-curvature="0"
     sodipodi:nodetypes="cccc" />
  <path
     style="opacity:1;fill:#1b63c6;fill-opacity:1;stroke:#000000;stroke-width:1;stroke-miterlimit:4;stroke-dasharray:none;stroke-dashoffset:4.57999992;stroke-opacity:1"
     d="m 44.45825,166.52469 c -5.36805,-4.28949 -15.11109,-3.27151 -15.99829,1.63518 4.12078,-0.99831 7.97142,-0.49161 11.26952,3.09359 z"
     id="path7368-7"
     inkscape:connector-curvature="0"
     sodipodi:nodetypes="cccc" />
  <path
     style="opacity:1;fill:#1b63c6;fill-opacity:1;stroke:#000000;stroke-width:1;stroke-miterlimit:4;stroke-dasharray:none;stroke-dashoffset:4.57999992;stroke-opacity:1"
     d="m 35.61942,180.40166 c -6.36968,-0.0976 -11.96203,1.0617 -12.86051,9.81111 3.44715,-3.29803 8.66206,-4.84355 12.99309,-4.37523 z"
     id="path7366-2"
     inkscape:connector-curvature="0"
     sodipodi:nodetypes="cccc" />
  <path
     style="opacity:1;fill:#1b63c6;fill-opacity:1;stroke:#000000;stroke-width:1;stroke-miterlimit:4;stroke-dasharray:none;stroke-dashoffset:4.57999992;stroke-opacity:1"
     d="m 44.41406,194.01346 c -3.96765,8.32512 -0.5907,12.1305 4.552,14.84925 -1.55848,-4.8319 -2.52618,-9.66379 0.22097,-14.49569 z"
     id="path7370-2"
     inkscape:connector-curvature="0"
     sodipodi:nodetypes="cccc" />
  <path
     style="opacity:1;fill:#1b63c6;fill-opacity:1;stroke:#000000;stroke-width:1;stroke-miterlimit:4;stroke-dasharray:none;stroke-dashoffset:4.57999992;stroke-opacity:1"
     d="m 71.48558,190.28499 c 3.22894,4.07432 2.35339,8.6133 -3.25,13.6875 0.49998,-3.9375 1.47222,-7.90873 -0.25,-11.6875 z"
     id="path7372-0"
     inkscape:connector-curvature="0"
     sodipodi:nodetypes="cccc" />
  <path
     style="opacity:1;fill:#1b63c6;fill-opacity:1;stroke:#000000;stroke-width:1;stroke-miterlimit:4;stroke-dasharray:none;stroke-dashoffset:4.57999992;stroke-opacity:1"
     d="m 88.98558,163.65999 -25.625,12.625 c -5.49621,2.70789 -12.40305,-1.14339 -15.25,-2.875 -1.49887,-0.91166 -1.53508,-3.14645 -1.3156,-4.67381 0.45073,-3.13673 -2.34,-4.79798 -5.5594,-1.95119 -1.70334,1.50619 -3.92486,4.02544 -2.625,5.5 3.51285,3.98499 6.97119,6.63476 10.375,9.625 -2.39949,1.03846 -5.0469,1.38825 -8.5,-0.5 -6.97793,-5.42319 -6.67012,0.0756 -6.625,1.875 0.0733,2.9228 0.24318,5.1167 2.75,4.875 3.89867,-0.3393 6.96886,-1.68884 11.875,-1.5 -1.27703,2.38678 -2.73822,4.19799 -4.125,5.25 -2.10198,1.59456 -0.86133,3.86331 1.125,4.25 4.35585,0.84797 5.81955,-2.41448 6.375,-4.375 0.33938,-1.19786 3.31156,-3.66756 5.25,-5.625 1.51919,2.25516 3.16068,4.12221 6.875,5.375 1.99041,0.67134 3.78554,3.22497 6.375,1.75 2.14408,-1.22128 4.23769,-2.37032 0.5,-5.625 -1.56087,-1.35916 -4.84935,0.2654 -5.625,-3.375 l 21.5,-10.625 z"
     id="path7364-7"
     inkscape:connector-curvature="0"
     sodipodi:nodetypes="csssssccsccssscsssccc" />
  <path
     style="opacity:1;fill:none;fill-opacity:1;stroke:#000000;stroke-width:1;stroke-miterlimit:4;stroke-dasharray:none;stroke-dashoffset:4.57999992;stroke-opacity:1"
     d="m 125.23243,101.47086 c 1.43757,19.59313 3.50627,35.81965 8.97402,51.08371"
     id="path7530"
     inkscape:connector-curvature="0"
     sodipodi:nodetypes="cc" />
  <path
     id="path7336-6"
     style="opacity:1;fill:#1b63c6;fill-opacity:1;stroke:#000000;stroke-width:1;stroke-miterlimit:4;stroke-dasharray:none;stroke-dashoffset:4.57999992;stroke-opacity:1"
     d="m 100.49641,213.90084 c -6.2225,3.23034 -11.58472,4.62557 -17.32411,-1.23743 13.27119,0.35602 14.3582,-4.10821 15.02602,-12.55115 -7.77227,6.87428 -13.37562,6.2421 -20.68288,0.88388 7.29845,-0.34734 12.49201,0.1879 15.37958,-6.54073 -5.75896,-0.73576 -10.96407,-2.18363 -11.84404,-9.19239 15.2288,10.22151 18.09332,-4.82535 17.14734,-17.94284 -3.125574,5.47034 -8.347455,8.06155 -13.61181,10.51822 0.55917,-5.59459 1.31867,-11.21143 3.35876,-16.97057 -3.33725,1.93528 -6.90927,2.83501 -10.6066,3.18198 9.119264,-11.0567 13.711185,-23.08558 14.094449,-29.77224 -0.950005,1.22761 -4.676178,7.70874 -6.036543,8.5127 4.595854,-16.65306 1.341965,-28.71918 1.090829,-42.89968 -5.43903,8.67621 -12.832555,12.24352 -16.396585,2.46416 -6.07336,8.46233 -17.36458,7.55173 -16.84924,-2.596202 C 45.49484,102.58687 41.15834,88.307809 46.0858,82.732529 39.62135,81.870342 37.53986,71.801486 42.90643,66.672815 37.21224,63.752577 34.10555,52.64438 40.87089,47.664879 33.92538,43.717432 34.8909,34.320997 40.76739,30.04051 c -0.9677,-2.769502 -1.40688,-4.289003 -0.375,-7.058505 5.93116,8.155605 15.13286,8.020208 22.45064,12.374369 6.53854,3.890507 9.04053,14.314106 0.35355,16.08668 -1.47467,0.300906 -3.1417,1.340901 -2.2981,3.535534 1.8433,4.795351 3.64375,9.637231 3.00521,14.318912 -0.64067,4.697274 0.9232,13.184906 9.36916,11.490485 4.16051,-0.834677 9.403394,-2.141301 14.895044,-1.835105 0.492907,-3.333333 2.716357,-6.666667 4,-10 -1.943933,0.547643 -3.608001,1.515082 -5.3125,2.421875 2.229847,-4.851816 7.620801,-8.815735 12.894607,-13.089768 6.709819,-7.095889 -3.214045,-11.041061 -10.625,-12 2.229464,-2.264327 5.693706,-3.015124 8.5,-3.500001 3.477349,-0.536377 3.190109,-6.392918 0.125,-7.4375 -5.68051,-1.542146 -11.988323,0.627394 -18.25,3.3125 -0.229785,-4.837596 4.582822,-13.752222 10.75,-13.625 0.517981,-1.289834 1.442919,-2.817565 3.188203,-3.936077 6.406444,-6.731083 16.609266,-11.1446906 29.311796,-0.313923 2.31078,2.276964 5.00096,3.33528 8.125,3 -0.9198,3.440167 -3.4156,5.599825 -7,6.875 2.61506,6.518958 5.07154,13.11876 -0.625,23.875001 -3.81712,7.971259 -3.43985,16.182199 -1.45086,24.485234 5.49165,-0.306197 9.62808,0.933089 13.78859,1.767766 8.44596,1.694421 10.00983,-6.793211 9.36916,-11.490485 -0.63854,-4.681681 1.16191,-9.523561 3.00521,-14.318912 0.8436,-2.194633 -0.82343,-3.234628 -2.2981,-3.535534 -8.68698,-1.772574 -6.18499,-12.196173 0.35355,-16.08668 7.31778,-4.354161 16.51948,-4.218764 22.45064,-12.374369 1.03188,2.769502 0.5927,4.289003 -0.375,7.058505 5.87649,4.280487 6.84201,13.676922 -0.1035,17.624369 6.76534,4.979501 3.65865,16.087698 -2.03554,19.007936 5.36657,5.128671 3.28508,15.197527 -3.17937,16.059714 4.92746,5.57528 1.77846,20.666839 -7.15578,17.026019 -0.47367,9.02293 -10.77588,11.05853 -16.84924,2.5962 -4.56403,11.34186 -9.62805,6.21205 -15.37958,-2.651656 -4.9e-4,9.163176 0.41474,18.427416 -2.65165,27.046836 -4.09098,11.4995 -3.88974,19.50938 10.78338,37.29988 -3.69733,-0.34697 -7.26935,-1.2467 -10.6066,-3.18198 2.04009,5.75914 2.79959,11.37598 3.35876,16.97057 -4.91282,-2.35369 -10.70721,-5.31305 -13.61181,-10.51822 -0.94598,13.11749 1.91854,28.16435 17.14734,17.94284 -0.87997,7.00876 -6.08508,8.45663 -11.84404,9.19239 2.88757,6.72863 8.08113,6.19339 15.37958,6.54073 -7.30726,5.35822 -12.91061,5.9904 -20.68288,-0.88388 0.66782,8.44294 1.75483,12.90717 15.02602,12.55115 -5.73939,5.863 -11.10161,4.46777 -17.32411,1.23743 -0.4089,5.47838 -2.23789,14.12999 -3.93393,17.67767 -1.69604,-3.54768 -3.52493,-12.19929 -3.93383,-17.67767 z"
     inkscape:connector-curvature="0"
     sodipodi:nodetypes="ccccccccccccccccccccssssscccccccccccccccsssssccccccccscccccccccccc" />
  <path
     style="opacity:1;fill:none;fill-opacity:1;stroke:#000000;stroke-width:1;stroke-miterlimit:4;stroke-dasharray:none;stroke-dashoffset:4.57999992;stroke-opacity:1"
     d="m 90.250001,25.034986 c 0.806967,0.02625 1.855598,0.231621 2.82293,0.642869"
     id="path7376"
     inkscape:connector-curvature="0"
     sodipodi:nodetypes="cc" />
  <path
     style="opacity:1;fill:none;fill-opacity:1;stroke:#000000;stroke-width:1;stroke-miterlimit:4;stroke-dasharray:none;stroke-dashoffset:4.57999992;stroke-opacity:1"
     d="m 93.322822,21.174235 c 2.397338,1.971608 4.986477,3.815141 4.346303,8.193833 10.057515,6.652514 9.169485,13.997414 2.271363,20.781607"
     id="path7378"
     inkscape:connector-curvature="0"
     sodipodi:nodetypes="ccc" />
  <g
     id="g7580"
     transform="translate(-0.88189865,-1.532932)">
    <path
       sodipodi:nodetypes="cc"
       inkscape:connector-curvature="0"
       id="path7380"
       d="m 100.56384,21.634088 c 4.10413,-0.05368 6.89143,1.841548 9.54595,3.933281"
       style="opacity:1;fill:none;fill-opacity:1;stroke:#000000;stroke-width:1;stroke-miterlimit:4;stroke-dasharray:none;stroke-dashoffset:4.57999992;stroke-opacity:1" />
    <circle
       r="2.0771263"
       cy="24.904457"
       cx="103.87841"
       id="path7382"
       style="opacity:1;fill:#000000;fill-opacity:1;stroke:#000000;stroke-width:1;stroke-miterlimit:4;stroke-dasharray:none;stroke-dashoffset:4.57999992;stroke-opacity:1" />
  </g>
  <path
     inkscape:connector-curvature="0"
     style="fill:none;fill-opacity:1;fill-rule:evenodd;stroke:#000000;stroke-width:1.99999988;stroke-linecap:butt;stroke-miterlimit:4;stroke-dashoffset:0;stroke-opacity:1"
     id="path4212-6"
     d="M 1,0.99999834 4.761095,159.00304 c 2.686489,112.85918 196.651755,112.85918 199.338255,0 l 3.7611,-158.00304166 z" />
  <path
     style="opacity:1;fill:none;fill-opacity:1;stroke:#000000;stroke-width:1;stroke-miterlimit:4;stroke-dasharray:none;stroke-dashoffset:4.57999992;stroke-opacity:1"
     d="M 88.167894,78.95288 C 87.837,81.256421 87.668373,83.900236 87.560683,86.138626"
     id="path7574"
     inkscape:connector-curvature="0"
     sodipodi:nodetypes="cc" />
  <path
     style="opacity:1;fill:none;fill-opacity:1;stroke:#000000;stroke-width:1;stroke-miterlimit:4;stroke-dasharray:none;stroke-dashoffset:4.57999992;stroke-opacity:1"
     d="m 121.79914,79.020221 c 0.40558,1.650163 0.6748,4.567458 0.53034,6.065652"
     id="path7576"
     inkscape:connector-curvature="0"
     sodipodi:nodetypes="cc" />
</svg>
