<?xml version="1.0" encoding="UTF-8"?>
<svg width="400" height="449" xmlns="http://www.w3.org/2000/svg">
 <g stroke="#000" stroke-width="4.5">
  <path d="M397.74 2.26v255.39c0 19.97-6.026 44.558-13.351 62.12-4.862 13.386-13.676 30.503-21.959 42.09-9.033 12.636-23.64 27.705-35.682 37.515-11.28 9.188-27.97 19.509-41.172 25.62-13.864 6.418-33.335 14.161-48.169 17.82-10.822 2.67-25.775 3.927-37.409 3.927-11.517 0-27.815-3.062-39.502-5.812-11.671-2.747-26.726-7.633-37.781-12.274-12.807-5.378-28.934-14.83-40.258-22.875-9.514-6.761-21.582-16.845-29.278-25.62C43.391 369 32.76 352.063 25.73 338.986c-5.359-9.97-11.458-23.908-14.639-34.77-4.072-13.902-8.837-33.096-8.837-46.565V2.26z" fill="#f00000"/>
  <path d="m199.76 22.026-11.647 50.465-47.872-17.469 38.171 36.879-36.88 36.232 48.523-18.763 9.705 52.408 11.647-51.761 48.52 20.705-38.171-38.174 36.877-36.879-47.226 18.115zm.324 245.86-10.352 51.113-49.168-18.115 38.17 36.88-36.88 36.235 48.2-19.087 10.028 52.728 11.644-52.084 48.523 21.029-38.171-38.174 36.877-36.88-47.23 18.115z" fill="#fcdb00" stroke-miterlimit="30"/>
  <path d="m126.55 133.34 183.81 128.82 16.573-13.56 36.158 21.094-66.29 114.51 9.04-85.129-210.92-143.89-73.823 57.255L93.038 90.4l33.522 24.861z" fill="#0093dd"/>
 </g>
</svg>
