<?xml version="1.0" encoding="UTF-8" standalone="no"?>
<svg
   xmlns:dc="http://purl.org/dc/elements/1.1/"
   xmlns:cc="http://creativecommons.org/ns#"
   xmlns:rdf="http://www.w3.org/1999/02/22-rdf-syntax-ns#"
   xmlns:svg="http://www.w3.org/2000/svg"
   xmlns="http://www.w3.org/2000/svg"
   xmlns:xlink="http://www.w3.org/1999/xlink"
   xmlns:sodipodi="http://sodipodi.sourceforge.net/DTD/sodipodi-0.dtd"
   xmlns:inkscape="http://www.inkscape.org/namespaces/inkscape"
   width="163"
   height="179"
   viewBox="0 0 163 179"
   version="1.1"
   id="svg44"
   sodipodi:docname="CHE Kriegstetten COA.svg"
   inkscape:version="0.92.3 (2405546, 2018-03-11)">
  <metadata
     id="metadata48">
    <rdf:RDF>
      <cc:Work
         rdf:about="">
        <dc:format>image/svg+xml</dc:format>
        <dc:type
           rdf:resource="http://purl.org/dc/dcmitype/StillImage" />
      </cc:Work>
    </rdf:RDF>
  </metadata>
  <sodipodi:namedview
     pagecolor="#ffffff"
     bordercolor="#666666"
     borderopacity="1"
     objecttolerance="10"
     gridtolerance="10"
     guidetolerance="10"
     inkscape:pageopacity="0"
     inkscape:pageshadow="2"
     inkscape:window-width="1920"
     inkscape:window-height="1017"
     id="namedview46"
     showgrid="false"
     inkscape:zoom="2.0435335"
     inkscape:cx="166.10539"
     inkscape:cy="8.9457785"
     inkscape:window-x="-8"
     inkscape:window-y="-8"
     inkscape:window-maximized="1"
     inkscape:current-layer="svg44" />
  <defs
     id="defs10">
    <path
       id="b"
       d="M0,0.00265566747 C0,0.00265566747 0.141144211,63.5813266 0.0217652288,94.2337044 C0.00329776194,98.9860213 0.663509703,103.484722 2.07495182,107.950227 C4.59246328,115.915237 7.92056464,123.503807 12.5710685,130.447714 C20.413806,142.157879 30.9521341,150.519912 44.1095447,155.365178 C48.8998737,157.129205 53.8663031,158.55397 58.8670294,159.549182 C63.438387,160.458748 68.1568247,160.847139 72.824477,160.98125 C78.5935817,161.147894 84.325092,160.183886 89.9266704,158.878626 C96.1185483,157.435934 102.101348,155.241025 107.754372,152.252071 C112.864583,149.54993 117.630509,146.333917 121.903749,142.40884 C122.847568,141.542429 123.768304,140.65278 124.700251,139.773754 L127.145212,137.136676 C130.997657,133.090103 134.08766,128.49447 136.749614,123.595428 C139.538861,118.462686 141.727915,113.090935 143.236971,107.42706 C144.146494,104.0132 145.00721,100.65378 144.999954,97.047384 C144.935318,65.4568917 144.96236,0 144.96236,0 L0,0.00265566747 Z" />
    <filter
       id="a"
       width="1.112393"
       height="1.1012235"
       x="-0.056196505"
       y="-0.050611759"
       filterUnits="objectBoundingBox">
      <feOffset
         dx="2"
         dy="3"
         in="SourceAlpha"
         result="shadowOffsetOuter1"
         id="feOffset3" />
      <feColorMatrix
         values="0 0 0 0 0 0 0 0 0 0 0 0 0 0 0 0 0 0 0.5 0"
         in="shadowBlurOuter1"
         id="feColorMatrix7" />
    </filter>
  </defs>
  <g
     transform="translate(6,6)"
     id="g42"
     style="fill:none;fill-rule:evenodd">
    <use
       xlink:href="#b"
       id="use14"
       style="fill:#ffe006;stroke:none;stroke-width:0.91063738"
       x="0"
       y="0"
       width="100%"
       height="100%"
       transform="matrix(1.1033809,0,0,1.0929078,-4.4980306,-4.5341882)" />
    <path
       d="m -4.4980306,-4.5312855 c 0,0 0.1557359,69.4856235 0.024015,102.9858425 -0.020377,5.193843 0.7080886,10.110503 2.2654468,14.990903 2.77777428,8.70501 6.4499378,16.99862 11.5812158,24.58767 8.653527,12.79814 20.281316,21.93706 34.798952,27.23249 5.285559,1.92792 10.76542,3.48506 16.283127,4.57273 5.04395,0.99407 10.250184,1.41856 15.400382,1.56512 6.365521,0.18212 12.68956,-0.87143 18.870233,-2.29797 6.831999,-1.57675 13.433309,-3.97557 19.670749,-7.24221 5.6385,-2.95321 10.89714,-6.46801 15.61216,-10.75775 1.04139,-0.94691 2.05729,-1.91922 3.0856,-2.87992 l 2.69771,-2.88207 c 4.25072,-4.42253 7.66018,-9.44514 10.59732,-14.79934 3.07761,-5.60959 5.49296,-11.48044 7.15803,-17.67052 1.00354,-3.73105 1.95325,-7.40258 1.94525,-11.34403 -0.0714,-34.525503 -0.0415,-106.0638479 -0.0415,-106.0638479 z"
       id="path16"
       inkscape:connector-curvature="0"
       style="stroke:#000000;stroke-width:2.99999952" />
    <path
       d="m 39.0832,71.18333 c 3.868848,-0.06486 7.743506,0.249382 11.552061,-0.922571 3.853593,-1.186365 7.15221,-3.121601 9.974303,-6.150225 -0.467806,-0.232084 -1.518918,-0.753193 -1.518918,-0.753193 1.154262,-1.590712 4.199362,-6.514209 4.654094,-7.587417 -1.118668,-0.169377 -2.033943,-0.307763 -3.127911,-0.474257 1.640954,-3.517299 3.505643,-6.772242 3.275371,-10.740013 h -1.579937 c 0.46926,-5.877059 -1.516738,-10.973538 -1.516738,-10.973538 0,0 -2.9158,0.728686 -3.96764,0.991043 C 56.116733,27.50829 53.47043,22.357755 53.47043,22.357755 c 0,0 -1.987452,1.634679 -2.960839,2.435441 -1.04312,-3.231158 -2.119657,-5.936882 -4.122362,-9.054159 -0.581854,0.318574 -1.134649,0.621293 -1.725945,0.945634 -1.620614,-4.8889 -3.961102,-8.3521415 -3.961102,-8.3521415 0,0 -1.730301,1.1229418 -2.578746,1.5777384 -0.631248,-2.2437189 -2.223533,-5.7011938 -2.223533,-5.7011938 0,0 -1.662749,2.378501 -2.965924,5.6824543 C 31.925904,8.4298312 31.925904,8.4298312 31.148648,7.2982427 28.02655,11.013028 27.264548,13.54505 25.306879,17.411195 24.472236,16.7899 23.589651,16.133291 22.595925,15.394513 c -2.69134,2.508958 -5.420453,9.467154 -5.584622,9.548601 -0.291289,-0.604716 -0.582579,-1.210155 -0.865151,-1.799012 -0.629795,0.396417 -2.743642,5.832372 -3.037835,8.526564 -0.0356,0.321459 -0.116227,0.63715 -0.19032,1.029963 -0.77653,-0.307762 -1.529089,-0.606156 -2.362278,-0.936984 -1.5327195,3.175659 -1.2842898,6.539435 -1.2864687,9.945737 -0.7067942,0.05767 -2.1981085,0.177305 -2.1981085,0.177305 0,0 -0.5353627,7.985997 1.2675814,11.543658 -0.6152674,0.03387 -1.1942146,0.06631 -1.8029441,0.09946 0.7198698,3.62253 1.8073019,6.930808 5.1720229,9.077225 -0.316714,0.423085 -0.59275,0.790671 -0.945057,1.262768 2.813376,2.853479 5.660894,5.704077 9.653231,7.141268 4.282173,1.5417 8.413978,1.135193 12.510919,-0.590302 0.318166,-0.134059 0.641417,-0.255146 0.962491,-0.382721 z"
       id="path18"
       inkscape:connector-curvature="0"
       style="fill:#009943;stroke-width:0.99999988" />
    <path
       d="m 39.0832,71.18333 c 3.868848,-0.06486 7.743506,0.249382 11.552061,-0.922571 3.853593,-1.186365 7.15221,-3.121601 9.974303,-6.150225 -0.467806,-0.232084 -1.518918,-0.753193 -1.518918,-0.753193 1.154262,-1.590712 4.199362,-6.514209 4.654094,-7.587417 -1.118668,-0.169377 -2.033943,-0.307763 -3.127911,-0.474257 1.640954,-3.517299 3.505643,-6.772242 3.275371,-10.740013 h -1.579937 c 0.46926,-5.877059 -1.516738,-10.973538 -1.516738,-10.973538 0,0 -2.9158,0.728686 -3.96764,0.991043 C 56.116733,27.50829 53.47043,22.357755 53.47043,22.357755 c 0,0 -1.987452,1.634679 -2.960839,2.435441 -1.04312,-3.231158 -2.119657,-5.936882 -4.122362,-9.054159 -0.581854,0.318574 -1.134649,0.621293 -1.725945,0.945634 -1.620614,-4.8889 -3.961102,-8.3521415 -3.961102,-8.3521415 0,0 -1.730301,1.1229418 -2.578746,1.5777384 -0.631248,-2.2437189 -2.223533,-5.7011938 -2.223533,-5.7011938 0,0 -1.662749,2.378501 -2.965924,5.6824543 C 31.925904,8.4298312 31.925904,8.4298312 31.148648,7.2982427 28.02655,11.013028 27.264548,13.54505 25.306879,17.411195 24.472236,16.7899 23.589651,16.133291 22.595925,15.394513 c -2.69134,2.508958 -5.420453,9.467154 -5.584622,9.548601 -0.291289,-0.604716 -0.582579,-1.210155 -0.865151,-1.799012 -0.629795,0.396417 -2.743642,5.832372 -3.037835,8.526564 -0.0356,0.321459 -0.116227,0.63715 -0.19032,1.029963 -0.77653,-0.307762 -1.529089,-0.606156 -2.362278,-0.936984 -1.5327195,3.175659 -1.2842898,6.539435 -1.2864687,9.945737 -0.7067942,0.05767 -2.1981085,0.177305 -2.1981085,0.177305 0,0 -0.5353627,7.985997 1.2675814,11.543658 -0.6152674,0.03387 -1.1942146,0.06631 -1.8029441,0.09946 0.7198698,3.62253 1.8073019,6.930808 5.1720229,9.077225 -0.316714,0.423085 -0.59275,0.790671 -0.945057,1.262768 2.813376,2.853479 5.660894,5.704077 9.653231,7.141268 4.282173,1.5417 8.413978,1.135193 12.510919,-0.590302 0.318166,-0.134059 0.641417,-0.255146 0.962491,-0.382721 z"
       id="path20"
       inkscape:connector-curvature="0"
       style="stroke:#000000;stroke-width:1.99999976" />
    <path
       d="m 104.73648,105.3409 c -0.82516,0.099 -1.45673,0.17318 -2.14629,0.25614 0.11675,-3.93446 0.15372,-7.630985 -1.6061,-11.157959 -1.192057,0.34273 -2.265932,0.651256 -3.364456,0.967791 -0.606907,-5.527317 -1.366086,-8.269872 -3.352131,-12.213796 -1.157257,0.828808 -2.021575,1.448047 -2.990306,2.142236 -1.323306,-3.366161 -2.157895,-5.785634 -4.198323,-8.86437 -0.576453,0.275785 -1.14493,0.546473 -1.647422,0.787329 -0.90855,-2.198264 -1.853353,-5.01504 -3.957589,-8.248039 -1.036166,0.446057 -1.072421,0.42932 -2.257957,0.971429 -0.860693,-2.835696 -2.325392,-5.66266 -2.325392,-5.66266 -1.048493,1.661977 -2.443583,2.936113 -3.167954,6.114537 -0.499594,-0.724751 -0.965108,-1.400021 -1.575641,-2.286312 -2.645159,3.009607 -4.219348,6.535853 -5.813115,10.075924 -0.970909,-0.729843 -1.923687,-1.446588 -2.985956,-2.245562 -2.642985,2.607211 -3.961938,5.921708 -5.015507,9.496706 -0.745401,-0.618511 -1.376963,-1.143154 -2.046954,-1.698359 -2.010697,2.885176 -1.849001,6.434706 -2.627758,9.741198 -0.759177,-0.381293 -1.324756,-0.66508 -2.100611,-1.05438 -1.623495,3.243914 -1.774316,6.595521 -1.378411,10.109407 h -2.159344 c 0.40098,4.0516 0.788183,7.96425 1.182635,11.9482 h -1.841024 c 0.78673,3.6332 1.792442,7.06922 5.380232,9.24492 -0.517722,0.46862 -0.954231,0.86301 -1.39074,1.25814 0,0 4.58915,4.26772 6.957321,5.70775 4.786376,2.90921 9.933851,3.25048 15.128457,0.8492 0.36545,-0.16881 0.765705,-0.2627 1.150006,-0.39076 l 5.376608,1.15624 c 1.40814,0 2.817007,-0.0115 4.224423,0.002 6.871034,0.0668 12.674724,-2.42312 17.475599,-7.32465 l -2.304363,-0.38564 c 0.960023,-1.09222 1.986783,-2.13351 2.862693,-3.28976 1.01949,-1.34618 1.83014,-2.82114 1.94689,-4.7036 -1.03327,-0.0887 -1.87582,-0.16082 -2.9265,-0.25178 1.91427,-3.64194 3.51601,-7.07358 3.49498,-11.05171"
       id="path22"
       inkscape:connector-curvature="0"
       style="fill:#009943;stroke-width:0.99999988" />
    <path
       d="m 104.73648,105.3409 c -0.82516,0.099 -1.45673,0.17318 -2.14629,0.25614 0.11675,-3.93446 0.15372,-7.630985 -1.6061,-11.157959 -1.192057,0.34273 -2.265932,0.651256 -3.364456,0.967791 -0.606907,-5.527317 -1.366086,-8.269872 -3.352131,-12.213796 -1.157257,0.828808 -2.021575,1.448047 -2.990306,2.142236 -1.323306,-3.366161 -2.157895,-5.785634 -4.198323,-8.86437 -0.576453,0.275785 -1.14493,0.546473 -1.647422,0.787329 -0.90855,-2.198264 -1.853353,-5.01504 -3.957589,-8.248039 -1.036166,0.446057 -1.072421,0.42932 -2.257957,0.971429 -0.860693,-2.835696 -2.325392,-5.66266 -2.325392,-5.66266 -1.048493,1.661977 -2.443583,2.936113 -3.167954,6.114537 -0.499594,-0.724751 -0.965108,-1.400021 -1.575641,-2.286312 -2.645159,3.009607 -4.219348,6.535853 -5.813115,10.075924 -0.970909,-0.729843 -1.923687,-1.446588 -2.985956,-2.245562 -2.642985,2.607211 -3.961938,5.921708 -5.015507,9.496706 -0.745401,-0.618511 -1.376963,-1.143154 -2.046954,-1.698359 -2.010697,2.885176 -1.849001,6.434706 -2.627758,9.741198 -0.759177,-0.381293 -1.324756,-0.66508 -2.100611,-1.05438 -1.623495,3.243914 -1.774316,6.595521 -1.378411,10.109407 h -2.159344 c 0.40098,4.0516 0.788183,7.96425 1.182635,11.9482 h -1.841024 c 0.78673,3.6332 1.792442,7.06922 5.380232,9.24492 -0.517722,0.46862 -0.954231,0.86301 -1.39074,1.25814 0,0 4.58915,4.26772 6.957321,5.70775 4.786376,2.90921 9.933851,3.25048 15.128457,0.8492 0.36545,-0.16881 0.765705,-0.2627 1.150006,-0.39076 l 5.376608,1.15624 c 1.40814,0 2.817007,-0.0115 4.224423,0.002 6.871034,0.0668 12.674724,-2.42312 17.475599,-7.32465 l -2.304363,-0.38564 c 0.960023,-1.09222 1.986783,-2.13351 2.862693,-3.28976 1.01949,-1.34618 1.83014,-2.82114 1.94689,-4.7036 -1.03327,-0.0887 -1.87582,-0.16082 -2.9265,-0.25178 1.91427,-3.64194 3.51601,-7.07358 3.49498,-11.05171 z"
       id="path24"
       inkscape:connector-curvature="0"
       style="stroke:#000000;stroke-width:1.99999976" />
    <path
       d="m 119.60088,5.3019819 c -1.02104,1.9282454 -2.18951,3.67465 -2.43497,5.8523821 -0.41466,-0.171661 -1.0864,-0.449513 -1.98326,-0.821196 -2.0232,2.372665 -2.91424,5.285036 -4.10304,8.224319 -0.58314,-0.363682 -1.14523,-0.714272 -1.76394,-1.100504 -2.31078,2.459221 -3.11687,5.702545 -4.1655,8.998964 -0.99054,-0.722274 -1.92661,-1.405997 -3.09508,-2.257742 -1.08858,4.15762 -2.150286,8.211228 -3.229418,12.336115 -1.029755,-0.32004 -2.233072,-0.69536 -3.554035,-1.106323 -1.525752,3.672468 -1.681158,7.480225 -1.657194,11.322897 -0.745083,-0.109107 -1.318783,-0.192752 -2.118333,-0.310586 0.343494,3.91468 1.516313,7.42131 3.633192,10.920663 -0.968755,0.08436 -2.631759,0.226938 -2.631759,0.226938 0,0 -0.219311,1.649664 4.073272,7.887549 -0.344222,0.172385 -1.395764,0.69827 -1.395764,0.69827 3.60124,4.508211 8.524889,6.478643 14.044759,7.083812 2.40811,0.263306 4.86773,0.04363 7.30415,0.04363 l 5.38479,-1.155784 c 7.96498,4.180168 16.92196,1.770409 22.85578,-6.584112 -0.33479,-0.17893 -0.71096,-0.380411 -1.0995,-0.588438 3.25412,-2.37921 4.87285,-5.423962 5.20689,-9.192441 -0.69062,-0.152747 -1.34202,-0.296037 -1.9709,-0.434966 1.1009,-3.873946 1.57148,-7.650428 1.10744,-11.635662 -0.64559,-0.05309 -1.16555,-0.09456 -1.73417,-0.141107 0.43209,-3.539361 0.0863,-6.840143 -1.33186,-10.052917 -0.8591,0.477151 -1.56134,0.867747 -2.342,1.301984 -0.39505,-3.409162 -0.56571,-6.853236 -2.38267,-9.868892 -0.71022,0.498973 -1.39431,0.979761 -2.10597,1.480188 -1.28177,-3.492081 -2.31879,-6.964524 -5.19454,-9.308092 -0.93316,0.736092 -1.87214,1.475822 -2.85107,2.247555 -1.60201,-3.708106 -3.22797,-7.157998 -5.75588,-10.1794754 -0.5708,0.8262874 -1.045,1.4583674 -1.63395,2.3653924 -0.91429,-3.0142002 -3.07547,-6.2524303 -3.07547,-6.2524303"
       id="path26"
       inkscape:connector-curvature="0"
       style="fill:#009943;stroke-width:0.99999988" />
    <path
       d="m 119.60088,5.3019819 c -1.02104,1.9282454 -2.18951,3.67465 -2.43497,5.8523821 -0.41466,-0.171661 -1.0864,-0.449513 -1.98326,-0.821196 -2.0232,2.372665 -2.91424,5.285036 -4.10304,8.224319 -0.58314,-0.363682 -1.14523,-0.714272 -1.76394,-1.100504 -2.31078,2.459221 -3.11687,5.702545 -4.1655,8.998964 -0.99054,-0.722274 -1.92661,-1.405997 -3.09508,-2.257742 -1.08858,4.15762 -2.150286,8.211228 -3.229418,12.336115 -1.029755,-0.32004 -2.233072,-0.69536 -3.554035,-1.106323 -1.525752,3.672468 -1.681158,7.480225 -1.657194,11.322897 -0.745083,-0.109107 -1.318783,-0.192752 -2.118333,-0.310586 0.343494,3.91468 1.516313,7.42131 3.633192,10.920663 -0.968755,0.08436 -2.631759,0.226938 -2.631759,0.226938 0,0 -0.219311,1.649664 4.073272,7.887549 -0.344222,0.172385 -1.395764,0.69827 -1.395764,0.69827 3.60124,4.508211 8.524889,6.478643 14.044759,7.083812 2.40811,0.263306 4.86773,0.04363 7.30415,0.04363 l 5.38479,-1.155784 c 7.96498,4.180168 16.92196,1.770409 22.85578,-6.584112 -0.33479,-0.17893 -0.71096,-0.380411 -1.0995,-0.588438 3.25412,-2.37921 4.87285,-5.423962 5.20689,-9.192441 -0.69062,-0.152747 -1.34202,-0.296037 -1.9709,-0.434966 1.1009,-3.873946 1.57148,-7.650428 1.10744,-11.635662 -0.64559,-0.05309 -1.16555,-0.09456 -1.73417,-0.141107 0.43209,-3.539361 0.0863,-6.840143 -1.33186,-10.052917 -0.8591,0.477151 -1.56134,0.867747 -2.342,1.301984 -0.39505,-3.409162 -0.56571,-6.853236 -2.38267,-9.868892 -0.71022,0.498973 -1.39431,0.979761 -2.10597,1.480188 -1.28177,-3.492081 -2.31879,-6.964524 -5.19454,-9.308092 -0.93316,0.736092 -1.87214,1.475822 -2.85107,2.247555 -1.60201,-3.708106 -3.22797,-7.157998 -5.75588,-10.1794754 -0.5708,0.8262874 -1.045,1.4583674 -1.63395,2.3653924 -0.91429,-3.0142002 -3.07547,-6.2524303 -3.07547,-6.2524303 z"
       id="path28"
       inkscape:connector-curvature="0"
       style="stroke:#000000;stroke-width:1.99999976" />
    <path
       d="m 75.387396,79.619709 c 0.757669,2.356546 3.19365,9.815814 2.820532,22.548811 -0.372401,12.73228 0.217296,18.85741 0.413145,21.78254 0.176553,2.6163 0.646165,5.22106 0.704062,7.83663 0.08362,3.75489 0.0072,7.52059 -0.175837,11.27259 -0.23302,4.78237 -1.303764,9.41826 -2.873427,14.15588 -1.914189,-0.77132 -3.806936,-1.53543 -5.743997,-2.31615 0.773392,-2.67835 1.592536,-5.13158 2.186521,-7.63964 1.759081,-7.42752 2.194383,-14.86659 1.496755,-22.55819 -0.697629,-7.70604 -1.095048,-13.53535 -0.0972,-23.29705 0.996404,-9.760976 1.269453,-21.785421 1.269453,-21.785421"
       id="path30"
       inkscape:connector-curvature="0"
       style="fill:#009943;stroke-width:0.99999988" />
    <path
       d="m 75.387396,79.619709 c 0.757669,2.356546 3.19365,9.815814 2.820532,22.548811 -0.372401,12.73228 0.217296,18.85741 0.413145,21.78254 0.176553,2.6163 0.646165,5.22106 0.704062,7.83663 0.08362,3.75489 0.0072,7.52059 -0.175837,11.27259 -0.23302,4.78237 -1.303764,9.41826 -2.873427,14.15588 -1.914189,-0.77132 -3.806936,-1.53543 -5.743997,-2.31615 0.773392,-2.67835 1.592536,-5.13158 2.186521,-7.63964 1.759081,-7.42752 2.194383,-14.86659 1.496755,-22.55819 -0.697629,-7.70604 -1.095048,-13.53535 -0.0972,-23.29705 0.996404,-9.760976 1.269453,-21.785421 1.269454,-21.785421 z"
       id="path32"
       inkscape:connector-curvature="0"
       style="stroke:#000000;stroke-width:1.99999976" />
    <path
       d="m 120.11204,98.199141 c 1.84837,-0.881179 3.69743,-1.76236 5.58888,-2.663931 -0.0931,-0.367037 -0.17303,-0.683823 -0.25155,-1.000612 -1.04301,-4.178686 -2.37161,-8.307122 -3.04563,-12.550623 -0.63304,-3.982058 -1.01382,-9.169368 -0.75394,-12.134792 0.25989,-2.965424 0.82064,-7.567223 1.02216,-14.660358 -0.0569,-8.923219 -0.9777,-17.886493 -1.77262,-26.811897 -0.26126,-2.9261 0.0716,-5.909732 0.13271,-8.867145 0,0 -2.96226,9.684238 -2.74336,18.708686 0.21819,9.023719 -0.0953,18.669359 -0.41207,23.721215 -0.84079,6.897962 -1.25493,11.951273 -0.8401,17.166257 0.41624,5.214982 3.07552,19.0932 3.07552,19.0932"
       id="path34"
       inkscape:connector-curvature="0"
       style="fill:#009943;stroke-width:0.99999988" />
    <path
       d="m 120.11204,98.199141 c 1.84837,-0.881179 3.69743,-1.76236 5.58888,-2.663931 -0.0931,-0.367037 -0.17303,-0.683823 -0.25155,-1.000612 -1.04301,-4.178686 -2.37161,-8.307122 -3.04563,-12.550623 -0.63304,-3.982058 -1.01382,-9.169368 -0.75394,-12.134792 0.25989,-2.965424 0.82064,-7.567223 1.02216,-14.660358 -0.0569,-8.923219 -0.9777,-17.886493 -1.77262,-26.811897 -0.26126,-2.9261 0.0716,-5.909732 0.13271,-8.867145 0,0 -2.96226,9.684238 -2.74336,18.708686 0.21819,9.023719 -0.0953,18.669359 -0.41207,23.721215 -0.84079,6.897962 -1.25493,11.951273 -0.8401,17.166257 0.41624,5.214982 3.07552,19.0932 3.07552,19.0932 z"
       id="path36"
       inkscape:connector-curvature="0"
       style="stroke:#000000;stroke-width:1.99999976" />
    <path
       d="m 34.520788,18.416875 c 0,1.464969 -0.05441,2.932825 0.01038,4.39563 0.0964,9.371471 -1.552795,18.125202 -1.443997,30.770123 0.133591,4.8445 0.402833,9.688279 0.717522,14.524843 0.543309,8.367642 -1.076971,16.378785 -3.486387,24.270855 -0.121925,0.401965 -0.357425,0.767124 -0.611519,1.297543 1.839252,0.767125 3.664046,1.527753 5.604522,2.337456 1.47223,-3.585204 2.158076,-7.224534 2.660757,-10.89706 C 38.852782,78.679783 38.610394,72.255568 37.848801,65.808984 37.415667,62.14656 37.034181,43.93476 37.377794,33.89936 37.618116,24.943566 34.520788,18.416875 34.520788,18.416875"
       id="path38"
       inkscape:connector-curvature="0"
       style="fill:#009943;stroke-width:0.99999988" />
    <path
       d="m 34.520788,18.416875 c 0,1.464969 -0.05441,2.932825 0.01038,4.39563 0.0964,9.371471 -1.552795,18.125202 -1.443997,30.770123 0.133591,4.8445 0.402833,9.688279 0.717522,14.524843 0.543309,8.367642 -1.076971,16.378785 -3.486387,24.270855 -0.121925,0.401965 -0.357425,0.767124 -0.611519,1.297543 1.839252,0.767125 3.664046,1.527753 5.604522,2.337456 1.47223,-3.585204 2.158076,-7.224534 2.660757,-10.89706 C 38.852782,78.679783 38.610394,72.255568 37.848801,65.808984 37.415667,62.14656 37.034181,43.93476 37.377794,33.89936 37.618116,24.943566 34.520788,18.416875 34.520788,18.416875 Z"
       id="path40"
       inkscape:connector-curvature="0"
       style="stroke:#000000;stroke-width:1.99999976" />
  </g>
</svg>
