<?xml version="1.0" encoding="UTF-8" standalone="no"?>
<!-- Created with Inkscape (http://www.inkscape.org/) -->

<svg
   xmlns:dc="http://purl.org/dc/elements/1.1/"
   xmlns:cc="http://creativecommons.org/ns#"
   xmlns:rdf="http://www.w3.org/1999/02/22-rdf-syntax-ns#"
   xmlns:svg="http://www.w3.org/2000/svg"
   xmlns="http://www.w3.org/2000/svg"
   xmlns:sodipodi="http://sodipodi.sourceforge.net/DTD/sodipodi-0.dtd"
   xmlns:inkscape="http://www.inkscape.org/namespaces/inkscape"
   version="1.1"
   id="svg2"
   width="930"
   height="1020"
   viewBox="0 0 930 1020"
   sodipodi:docname="CHE Lohn-Ammannsegg COA.svg"
   inkscape:version="0.92.3 (2405546, 2018-03-11)">
  <metadata
     id="metadata8">
    <rdf:RDF>
      <cc:Work
         rdf:about="">
        <dc:format>image/svg+xml</dc:format>
        <dc:type
           rdf:resource="http://purl.org/dc/dcmitype/StillImage" />
        <dc:title></dc:title>
      </cc:Work>
    </rdf:RDF>
  </metadata>
  <defs
     id="defs6" />
  <sodipodi:namedview
     pagecolor="#ffffff"
     bordercolor="#666666"
     borderopacity="1"
     objecttolerance="10"
     gridtolerance="10"
     guidetolerance="10"
     inkscape:pageopacity="0"
     inkscape:pageshadow="2"
     inkscape:window-width="1920"
     inkscape:window-height="1017"
     id="namedview4"
     showgrid="false"
     inkscape:zoom="0.50716541"
     inkscape:cx="964.65796"
     inkscape:cy="27.213102"
     inkscape:window-x="-8"
     inkscape:window-y="-8"
     inkscape:window-maximized="1"
     inkscape:current-layer="svg2" />
  <g
     id="g981"
     transform="translate(-455.25987,588.84744)">
    <path
       id="path817"
       d="m 507.87626,-110.31137 h 830.77624 l -14.8557,192.14953 c 0,0 -44.5672,317.96172 -378.24889,345.41165 C 611.86613,454.69973 527.30295,89.844391 527.30295,89.844391 Z"
       inkscape:connector-curvature="0"
       style="fill:#ffffff;stroke-width:1.00000012" />
    <path
       id="path819"
       d="m 461.02369,-583.82271 46.85257,473.51134 h 830.77624 l 41.1389,-473.51134 z"
       inkscape:connector-curvature="0"
       style="fill:#dc0014;stroke-width:1.00000012" />
    <path
       id="path821"
       d="m 461.02369,-583.82271 h 918.76771 l -41.1389,473.51134 H 507.87626 Z"
       inkscape:connector-curvature="0"
       style="fill:none;stroke:#e20613;stroke-width:0.31020004" />
    <path
       id="path823"
       d="m 762.70859,-530.06658 c 14.8557,4.575 17.14119,20.58744 22.85493,34.31241 5.71372,-14.86872 20.56941,-22.87493 31.99687,-9.14997 11.42745,14.8687 5.71372,32.02492 11.42745,45.74988 9.14199,-9.14997 18.28394,-2.28748 22.85492,5.71875 10.28471,17.15621 1.14276,42.31865 17.1412,57.18736 9.14196,8.00622 18.28393,17.15619 28.56863,26.30619 2.28551,2.28748 5.71373,0 5.71373,-3.43125 2.2855,-25.16244 -20.56942,-43.4624 -37.7106,-60.61861 -9.14196,-11.43747 0,-20.58746 11.42744,-26.30619 -26.28314,-13.72496 -37.7106,-32.02492 -26.28314,-54.89986 3.42823,-5.71874 14.8557,2.2875 14.8557,-3.43123 5.71373,-14.86872 -17.1412,-34.31243 0,-45.7499 9.14196,-5.71873 18.28392,4.57499 29.71138,-1.14374 3.42823,-3.43125 4.571,-8.00623 6.85648,-10.29373 17.14119,-5.71873 34.28238,-1.14374 39.99612,19.44371 9.14195,-5.71873 25.1404,-9.14998 28.56862,-3.43125 9.14199,9.14998 7.99923,28.59369 -9.14196,42.31865 2.2855,3.43125 19.42668,0 22.85491,2.28749 17.14133,22.87494 -9.14194,44.60614 -26.28315,54.89986 11.42747,5.71873 20.56943,18.29997 11.42747,29.73744 -17.1412,14.8687 -45.70984,35.45616 -31.9969,56.04361 28.56865,-17.15622 45.70984,-49.18114 43.42435,-83.49353 0,-3.43125 5.71372,-5.71874 9.14197,-9.14999 5.71372,-3.43125 11.42759,0 14.85569,5.71874 11.4276,-17.15621 0,-43.4624 20.5693,-54.89988 11.4276,-5.71874 23.9979,4.57499 22.8551,17.15622 5.7136,-5.71874 11.4275,-14.86871 14.8557,-22.87496 3.4282,-9.14996 14.8556,-12.58121 22.855,-9.14996 10.2846,5.71874 5.7136,14.8687 11.4273,20.58743 5.7137,3.43124 9.1421,-3.43122 14.8558,-5.71873 14.8556,-5.71874 31.9967,3.43125 31.9967,20.58745 0,9.14999 -15.9984,16.01245 -15.9984,25.16244 2.2855,5.71873 15.9984,11.43747 18.284,20.58746 3.4282,22.87494 -21.7123,17.15619 -39.996,24.01868 3.4282,3.43124 4.5709,3.43124 5.7137,5.71874 4.5709,6.86248 5.7136,22.87494 -3.4284,25.16244 -14.8557,3.43123 -31.9967,3.43123 -45.7097,-1.14374 -5.7138,-1.14376 -3.4282,18.29994 -12.5703,20.58744 -22.8549,3.43124 -43.4242,-8.00622 -66.27923,3.43124 -9.14194,3.43124 -23.99765,25.16243 -18.28393,28.59368 5.71373,3.43124 11.42747,-3.43125 17.14119,-5.71874 14.85575,-3.43124 31.99687,3.43125 43.42437,-3.43124 14.8557,-9.14997 28.5685,-20.58744 45.7097,-32.02492 14.8558,-5.71872 27.426,2.2875 26.2832,17.15621 14.8558,-14.86871 31.9969,-28.59367 51.4236,-22.87493 5.7139,2.28748 12.5703,13.72495 3.4283,22.87493 14.8556,5.71874 29.7114,-11.43748 43.4243,-3.43123 15.9984,10.29372 7.9992,24.01867 0,32.0249 0,3.43125 -2.2856,8.00622 0,8.00622 22.8549,0 37.7106,30.88119 22.8549,40.03117 -5.7138,5.71875 -18.2839,8.00623 -26.2832,8.00623 -14.8557,5.71874 -1.1426,22.87495 -10.2846,28.59368 -11.4276,3.43123 -29.7114,-3.43124 -37.7108,-14.86872 -3.4282,0 -5.7135,-1.14374 -5.7135,1.14376 0,5.71872 -1.1429,13.72496 -6.8564,17.15619 -5.7139,0 -10.2848,0 -15.9986,-1.14374 -20.5694,-5.71873 -17.1412,-25.16243 -31.9968,-36.59991 -5.7138,9.14999 -10.2848,20.58746 -21.7122,11.43748 -19.4266,-13.72497 -21.7122,-40.03116 -44.5672,-50.32488 -12.5702,-5.71873 -35.42507,8.00622 -38.85329,27.44993 -3.42825,34.31242 0,75.48732 26.28309,91.49979 19.4266,12.5812 43.4245,3.43123 62.851,-5.71874 20.5695,-5.71874 37.7108,14.86871 57.1374,14.86871 h 13.713 c 5.7135,11.43745 -5.7138,19.44371 -17.1412,25.16242 -17.1412,5.71873 -33.1397,-9.14997 -53.7092,-6.86247 -5.7136,3.43124 -10.2846,9.14999 -7.9992,10.29372 22.855,4.575 62.851,-12.58122 57.1373,24.0187 -2.2854,5.71874 -77.7066,20.58745 -95.9906,-6.86249 -1.1428,-2.28749 -5.7136,-1.14374 -5.7136,1.14376 3.4281,5.71873 11.4273,18.29995 2.2853,24.01868 -9.1419,3.43125 -14.8556,-4.57499 -19.42661,-5.71873 -29.7114,-10.29372 -38.85337,0 -54.85181,-6.86248 -7.99922,-3.43124 -18.28393,-18.29997 -22.85492,-14.86872 -29.71138,21.7312 -46.85258,16.01246 -69.7075,19.44371 -4.57098,1.14374 -10.28471,5.71873 -13.71293,9.14997 -3.42825,0 -7.99924,0 -11.42749,-5.71874 -3.42823,-9.14997 9.14198,-17.15621 5.71375,-17.15621 -11.42746,-11.43746 -20.56943,9.14999 -31.99689,9.14999 -14.85568,5.71873 -28.56865,5.71873 -43.42434,-2.28751 -9.14196,-5.71874 -20.56942,2.28751 -28.56866,0 -3.42822,-3.43123 -5.71372,-11.43746 -3.42822,-14.86871 17.14119,-14.86872 37.71061,-5.71873 57.13729,-11.43746 -5.71374,-26.3062 -37.7106,-3.43126 -51.42356,0 -11.42746,0 -31.99689,-9.15 -28.56865,-22.87495 3.42824,-5.71873 13.71295,-1.14377 17.14119,-3.43125 42.28159,-27.44993 66.27927,-12.5812 111.9891,-5.71873 28.56864,4.575 34.28237,-37.74365 39.9961,-62.9061 3.42823,-26.30618 -3.42824,-57.18736 -28.56865,-62.90609 -34.28238,-9.14999 -43.42434,34.31242 -66.27927,51.46863 -9.14196,5.71873 -11.42745,-3.43124 -17.14118,-11.43747 -11.42745,11.43747 -14.85568,28.59367 -31.99688,37.74365 -17.1412,5.71873 -22.85492,-5.71873 -26.28317,-20.58745 -5.71372,9.14997 -17.14117,14.86872 -26.28315,20.58745 -9.14195,3.43124 -17.14119,0 -20.56941,-9.14998 -2.2855,-5.71874 3.42822,-17.1562 0,-22.87493 -5.71373,-5.71874 -14.85571,-1.14376 -22.85492,-5.71874 -5.71372,-3.43125 -11.42746,-9.14998 -14.85569,-17.15621 -2.28551,-17.15622 28.56863,-17.15622 26.28314,-34.31243 0,-9.14997 -7.99922,-24.01867 -3.42824,-28.59367 13.71295,-11.43748 28.56865,3.43124 43.42435,3.43124 5.71372,0 -5.71372,-14.86872 0,-20.58745 20.56943,-17.15621 45.70982,3.43124 60.56553,17.15621 4.57099,4.575 -3.42823,-5.71873 0,-11.43748 5.71373,-5.71873 19.42668,-6.86248 23.99766,-2.28749 23.99767,21.73121 52.56632,28.59368 82.2777,32.02492 0,0 6.85649,3.43125 11.42747,4.57498 5.71373,1.14376 12.57019,4.575 11.42744,-3.43123 -3.42822,-45.74989 -43.42434,-24.01869 -83.42044,-29.73743 -11.42745,-1.14375 -4.57098,-18.29994 -10.28471,-18.29994 -20.56943,-3.43125 -41.13884,11.43746 -57.13729,-14.86871 -5.71373,-9.14999 13.71294,-13.72498 9.14197,-17.15622 -15.99845,-10.29372 -21.71217,3.43124 -34.28237,-14.86872 -9.14197,-12.5812 9.14196,-20.58743 11.42744,-28.59368 3.42825,-11.43746 -19.42668,-20.58745 -9.14196,-40.03115 9.14196,-16.01246 28.56865,0 39.9961,0 9.14198,4.57498 6.85648,-24.01868 23.99767,-18.29995"
       inkscape:connector-curvature="0"
       style="stroke-width:1.00000012" />
    <path
       id="path825"
       d="m 742.13917,-498.04166 c -12.57021,0 -20.56943,-11.43748 -34.28239,-9.14999 -9.14196,2.28751 -9.14196,14.86872 -5.71372,20.58747 3.42824,5.71873 14.8557,9.14998 17.14119,14.8687 5.71373,14.86872 -20.56943,14.86872 -20.56943,28.59368 0,3.43125 5.71373,5.71875 9.14196,9.14998 11.42747,3.43125 31.9969,-5.71873 34.28239,9.14998 3.42823,9.14997 -20.56943,9.14997 -14.8557,20.58744 17.1412,20.58747 43.42435,-3.43124 66.27925,0 v 9.14999 c -5.71372,5.71874 -11.42745,14.86872 -3.42824,14.86872 17.1412,3.43123 37.71063,11.43746 45.70984,-3.43124 9.14197,-11.43748 -17.14119,-9.14999 -26.28315,-5.71874 -9.14197,-2.28751 0,-5.71874 0,-5.71874 5.71372,-2.2875 14.8557,0 11.42746,-2.2875 -5.71374,-20.58745 -31.99689,-26.30619 -51.42357,-14.86872 -11.42746,0 -7.99922,-5.71873 -7.99922,-5.71873 7.99922,-2.28749 23.99768,-4.57499 34.28237,-6.86248 -9.14197,-9.14998 -20.56941,-14.86871 -28.56864,-22.87493 -5.71373,-3.43125 -17.14118,5.71873 -22.8549,-3.43125 5.71372,-3.43126 11.42743,2.28749 17.14117,-3.43126 -11.42745,-2.28748 -17.14117,-11.43746 -28.56865,-19.44369 14.85571,0 23.99767,8.00623 31.99689,17.15621 3.42823,-4.57498 -1.14274,-6.86247 -3.42824,-22.87496 0,-3.43122 3.42824,-3.43122 5.71373,-3.43122 -5.71373,11.43746 3.42825,18.29994 5.71375,32.02492 1.14272,6.86248 17.14116,12.58122 25.14039,20.58745 9.14197,-14.86872 -5.71372,-24.01871 0,-37.74366 0,0 3.42824,-3.43125 5.71373,0 0,14.86872 5.71373,26.30619 3.42824,40.03115 l -1.14275,3.43124 c -3.42824,0 0,0 0,0 11.42746,5.71873 12.5702,13.72498 21.71218,17.1562 13.71294,5.71874 -3.42824,-17.1562 9.14195,-26.30618 0,11.43747 0,22.87496 9.14198,28.59368 5.71372,-17.15621 9.14195,-40.03115 -5.71373,-45.74988 -11.42747,-5.71874 -9.14196,11.43747 -17.1412,17.1562 -11.42745,-22.87494 9.14198,-66.33734 -22.85491,-66.33734 -9.14196,0 -3.42824,14.86872 -9.14196,22.87496 h -9.14197 c -11.42745,-14.86873 -5.71374,-40.03116 -26.28317,-45.74989 -3.42821,0 -5.71371,5.71873 -9.14195,9.14998 1.14275,6.86246 1.14275,16.01245 -4.57098,16.01245"
       inkscape:connector-curvature="0"
       style="fill:#ffffff;stroke-width:1.00000012" />
    <path
       id="path827"
       d="m 886.12514,-550.65403 c -4.57097,-4.57499 -17.14118,-11.43746 -20.56942,0 -3.42825,14.86872 9.14196,22.87494 17.14118,34.31241 0,3.43125 3.42824,9.14997 -3.42823,11.43748 -7.99922,3.43123 -25.14042,-8.00623 -25.14042,3.43123 -5.71373,22.87496 22.85491,28.59369 37.71063,43.46242 v 9.14996 c -5.71374,3.43124 -17.1412,-2.28749 -20.56943,5.71873 0,20.58745 26.28314,26.30619 34.28237,43.4624 9.14197,-11.43746 -5.71372,-22.87495 -11.42746,-28.59368 9.14196,-3.43125 14.8557,3.43124 17.14119,9.14997 0,20.58746 9.14197,45.7499 -5.71373,57.18737 -17.14119,14.8687 -31.99689,-26.30619 -54.8518,-32.02493 -3.42824,0 -3.42824,3.43126 -3.42824,5.71874 14.85569,20.58745 45.70984,32.02492 34.28239,57.18734 0,3.43126 -11.42749,3.43126 -17.14121,0 -20.56942,-9.14996 -39.99609,-17.15619 -60.56552,-9.14996 l 3.42824,3.43123 c -3.42824,0 -5.71373,0 -9.14197,3.43126 26.28316,9.14997 60.56554,-5.71875 71.99297,22.87494 14.85571,34.31242 11.42749,77.77481 -11.42743,108.65598 -22.85493,28.59367 -60.56554,11.43746 -89.13419,3.43125 -17.14117,-3.43125 -31.99687,11.43746 -45.70982,17.1562 -3.42825,0 -9.14198,3.43124 -11.42746,-3.43125 -3.42824,0 -3.42824,3.43125 -3.42824,5.71873 0,5.71874 5.71372,3.43125 9.14196,5.71874 22.85491,5.71875 45.70984,-26.30617 68.56474,-3.43124 0,0 3.42824,-3.43122 3.42824,-5.71873 9.14198,3.43123 9.14198,11.43747 9.14198,17.1562 0,3.43126 -2.2855,5.71874 -5.71374,5.71874 -14.85569,0 -31.99688,-3.43125 -43.42433,2.2875 -3.42824,3.43124 -11.42747,0 -14.85571,5.71874 11.42747,5.71873 23.99767,2.28748 37.71064,11.43747 -3.42826,-2.28749 13.71292,0 15.99842,-1.14374 11.42746,-5.71874 20.56943,-12.58123 31.99689,-16.01247 14.85569,-5.71875 31.99689,-2.2875 45.70984,-5.71875 5.71371,-3.43122 11.42745,-14.8687 11.42745,-11.43747 11.42746,26.30619 -34.28238,11.43747 -45.70983,32.02494 0,3.43124 -14.8557,10.29372 3.42823,5.71874 25.14042,-6.8625 54.8518,-3.43125 74.27848,-26.30621 h 11.42746 c 20.56944,28.5937 51.42356,14.86872 77.70673,28.5937 0,0 14.85581,4.57499 3.42831,-5.71874 -5.71381,-5.71874 -11.42755,-14.86871 -17.14127,-14.86871 -14.85571,0 -20.56943,-3.43125 -31.99688,-9.14998 v -11.43748 c 9.14196,-3.43125 12.57019,9.14999 15.99844,9.14999 28.56869,0 50.28081,8.00622 76.56401,19.4437 17.1412,5.71874 43.4243,4.57499 57.1372,-5.71873 -17.141,-17.15621 -43.4242,0 -62.8509,-11.43748 -5.7138,-5.71873 -9.1422,-11.43748 -3.4283,-17.15621 3.4283,0 5.7138,0 9.142,3.43124 3.4283,0 3.4283,-5.71874 3.4283,-5.71874 22.8547,-11.43746 39.996,9.14997 62.851,9.14997 5.7136,0 14.8556,-5.71871 11.4273,-11.43746 0,-9.14997 -9.1419,3.43124 -14.8557,0 -17.1411,-5.71873 -28.5686,-22.87493 -45.7097,-14.86871 -31.9971,14.86871 -79.99227,17.1562 -97.13346,-17.1562 -9.14195,11.43746 11.42747,20.58745 5.71373,26.30618 -9.14196,5.71873 -13.71295,-9.14998 -13.71295,-14.86872 -9.14195,-20.58744 -14.8557,-42.31865 -5.71373,-62.9061 0,20.58745 4.571,32.02493 12.57021,49.18114 0,-28.59369 -10.2847,-57.18736 -2.28549,-86.92478 2.28549,-8.00623 -10.28472,5.71873 -13.71294,5.71873 -9.14196,20.58745 -11.42748,43.46239 -14.85571,66.33733 -4.57098,3.43124 -2.28549,-24.01869 -3.42823,-37.74366 -9.14197,22.87495 -3.42824,49.18113 0,72.05608 -14.8557,-6.86249 -6.85648,-20.58746 -9.14197,-29.73743 -9.14197,-22.87495 3.42823,-48.03738 9.14197,-74.34356 0,-3.43125 3.42823,-11.43748 9.14198,-9.14999 0,2.28749 0,9.14999 3.42821,9.14999 14.8557,-11.43748 26.28317,-20.58746 39.99611,-26.30621 17.14117,-9.14996 37.71057,-3.43122 57.13737,0 14.8555,0 26.2831,3.43126 39.996,3.43126 5.7139,0 23.9975,-18.29995 22.8549,-16.01246 -14.8557,21.73119 26.2833,19.4437 38.8533,10.29373 -9.1417,16.01245 34.2826,29.73742 34.2826,29.73742 -9.1422,5.71873 -76.5641,-33.16868 -77.7069,-12.58122 0,6.86249 9.142,14.86872 5.7136,14.86872 -11.4272,5.71875 -9.1418,-14.86872 -17.141,-17.15622 -9.142,-3.43124 -20.5694,-9.14997 -31.997,-3.43124 3.4284,3.43124 3.4284,9.15 5.7138,14.86873 h -5.7138 c 0,-11.43749 -20.5693,-28.59369 -22.8549,-17.15622 0,14.86872 11.4277,32.02492 26.2833,40.03116 11.4275,9.14998 9.1418,-11.43746 14.8557,-20.58745 h 9.142 c 9.1419,20.58745 17.1411,43.46238 34.2823,49.18113 17.1412,5.71873 0,-26.30618 9.142,-28.59368 14.8556,-5.71874 22.8549,26.30618 39.9961,26.30618 17.1412,3.43124 0,-20.58745 9.1419,-26.30618 9.142,-11.43746 39.996,0 34.2823,-26.30619 -3.428,-11.43748 -22.8548,-9.14999 -28.5686,-17.15621 -5.7137,-11.43748 5.7138,-14.86871 11.4276,-22.87496 3.4283,-5.71872 -3.4282,-9.14995 -5.7138,-11.43745 -9.142,-3.43124 -17.1411,0 -22.8549,9.14997 h -11.4274 c -3.4283,0 -3.4283,3.43124 -3.4283,5.71873 h -10.2848 c 0,-9.14997 -3.4282,-20.58744 5.7137,-26.30617 0,-3.43125 3.4284,-9.14998 -3.4282,-9.14998 -28.5685,-5.71874 -37.7106,28.59367 -60.5655,34.31241 -2.2855,-9.14997 9.142,-32.02491 -9.142,-26.30618 -14.8556,3.43125 -26.2831,17.15621 -37.7105,28.59368 14.8557,11.43747 22.8549,-5.71874 31.9968,-11.43747 5.7137,-2.28749 0,3.43123 3.4282,5.71873 -9.1418,3.43124 -11.4274,17.15621 -20.5693,14.8687 -9.142,-5.71872 -17.1414,-3.43123 -26.2832,-5.71872 -22.85491,-11.43748 -49.13808,9.14998 -74.27849,5.71872 0,0 -5.71371,-5.71872 -3.42823,-11.43746 5.71373,-11.43746 11.42744,-20.58745 20.56942,-28.59368 20.56943,-17.15621 39.9961,-37.74366 62.851,-51.46862 0,-3.43125 -3.4283,-3.43125 -5.7137,-3.43125 3.4281,-11.43747 3.4281,-26.30616 9.1418,-37.74365 3.4284,11.43749 -7.999,22.87495 0,34.3124 9.1422,-11.43745 20.5695,-11.43745 28.5689,-22.87491 0,0 -1.1428,-3.43125 -3.4283,-3.43125 0,-5.71874 5.7136,-11.43748 5.7136,-20.58747 h 5.7137 c 3.4283,5.71875 -9.1418,17.15621 0,17.15621 11.4276,0 20.5695,-20.58744 34.2824,-20.58744 -5.7136,14.86871 -23.9976,14.86871 -26.2831,26.30618 -2.2854,3.43126 5.7138,3.43126 11.4275,3.43126 -5.7137,5.71873 -17.1411,-1.14376 -22.8549,2.28749 -11.4274,5.71874 -20.5693,14.86871 -28.5687,22.87494 5.7138,5.71873 19.4266,1.14373 20.5695,5.71873 -19.4267,1.14374 -39.996,3.43125 -51.4236,20.58744 0,3.43126 5.7138,3.43126 9.1421,3.43126 -5.7138,9.14996 -22.85505,0 -20.56955,9.14996 5.71374,17.15622 28.56865,9.14999 45.70985,5.71874 11.4274,0 0,-14.8687 -5.7137,-20.58745 17.1411,-9.14998 34.2822,9.14998 54.8517,5.71875 5.7137,-3.43126 11.4275,-5.71875 14.8557,-11.43749 0,-9.14996 -17.141,-11.43747 -14.8557,-17.15621 5.7137,-20.58743 39.9961,0 43.4243,-20.58743 3.4283,-9.14999 -22.8549,-11.43747 -20.5693,-26.30619 2.2855,-5.71875 11.4275,-11.43748 17.1411,-17.15622 3.4282,-9.14998 -3.4283,-17.15621 -9.1418,-17.15621 -11.4276,-2.28748 -22.855,14.86872 -34.2824,5.71875 -3.4283,-3.43124 -3.4283,-26.30618 -14.8557,-20.58744 -14.8559,5.71873 -9.1421,34.3124 -28.5687,43.46237 -2.2855,-11.43747 -5.7138,-28.59368 -14.8557,-26.30617 -28.56862,5.71872 0,49.18112 -22.8549,62.90609 -3.4283,2.28749 -5.71372,-17.15621 -11.42751,-14.86872 -14.85568,5.71873 -14.85568,26.30619 -11.42745,43.4624 0,3.43124 2.28549,3.43124 5.71372,3.43124 5.71373,-3.43124 0,-17.1562 9.14197,-14.86871 3.42826,0 0,11.43747 -2.28548,17.15622 -22.85493,17.15619 -39.9961,43.46238 -68.56476,45.74988 -5.71372,-20.58746 -7.99921,-40.03116 -7.99921,-60.61861 0,-22.87494 1.14275,-43.46239 -1.14275,-66.33734 -2.28548,-14.86872 -19.42667,-17.15621 -22.85491,-34.3124 14.85569,0 14.85569,14.8687 22.85491,20.58744 5.71373,-11.43747 -2.28548,-22.87494 0,-34.31241 5.71373,5.71873 3.42824,17.15621 9.14196,17.15621 2.2855,3.43124 5.71374,-5.71874 11.42747,-9.14998 3.42825,9.14998 -5.71373,14.86871 -9.14197,20.58744 -9.14196,11.43747 -9.14196,26.30619 -2.2855,37.74366 5.71374,-5.71875 11.42747,-11.43747 20.56942,-11.43747 -11.42745,11.43747 -28.56863,22.87494 -22.85491,43.4624 3.42825,5.71874 5.71374,11.43747 14.85569,9.14996 -5.71372,5.71875 -17.14117,20.58745 -9.14195,20.58745 11.42747,0 22.85491,-17.15621 31.99688,-28.59367 v -9.14997 c -5.71372,-9.14999 -11.42745,-5.71873 -20.56941,-3.43124 0,-22.87495 34.28235,-22.87495 39.9961,-45.74989 0,-5.71874 0,-14.86871 -5.71375,-14.86871 -9.14196,0 -17.14117,5.71873 -20.56941,2.28748 -9.14197,-11.43746 9.14196,-22.87494 11.42745,-37.74365 0,-3.43125 3.42824,-11.43747 -3.42824,-11.43747 -9.14197,3.43123 -22.85491,14.86872 -26.28315,5.71873 -9.14196,-9.14998 -14.85569,-22.87496 -28.56864,-17.15621 -9.14198,5.71874 -11.42747,14.86871 -9.14198,22.87495 -3.42823,4.57499 -5.71371,4.57499 -11.42745,-1.14375"
       inkscape:connector-curvature="0"
       style="fill:#ffffff;stroke-width:1.00000012" />
    <path
       id="path829"
       d="m 897.55259,-317.32961 c -3.42823,11.43748 0,22.87495 14.8557,22.87495 -1.14274,21.73119 3.42824,49.18113 -14.8557,68.62482 5.71373,-20.58744 11.42747,-43.46239 3.42824,-66.33733 h -5.71373 c -5.71372,-9.14997 -3.42822,-17.1562 -3.42822,-26.30619 h 5.71371"
       inkscape:connector-curvature="0"
       style="stroke-width:1.00000012" />
    <path
       id="path831"
       d="m 894.12436,-253.27977 c 0,14.86872 -5.71373,28.59369 -11.42746,40.03116 -3.42823,9.14998 -3.42823,22.87493 -17.14118,22.87493 11.42744,-20.58743 20.56942,-43.46238 26.28316,-68.62482 0,-1.14374 2.28548,2.28749 2.28548,5.71873"
       inkscape:connector-curvature="0"
       style="stroke-width:1.00000012" />
    <path
       id="path833"
       d="m 675.8599,-337.91705 c 9.14197,9.14998 17.14119,5.71874 26.28316,11.43747 3.42824,3.43124 3.42824,11.43748 5.71372,11.43748 17.1412,-5.71874 34.28239,5.71873 43.42435,-9.14999 -17.14119,-5.71874 -34.28237,-14.86872 -43.42435,-32.02492 h 9.14198 c 9.14196,14.86871 26.28315,17.1562 34.28237,32.02492 11.42746,-5.71874 31.99688,3.43125 31.99688,-11.43747 0,-3.43125 -14.8557,-3.43125 -11.42746,-14.86873 9.14197,3.43125 14.85569,14.86873 26.28316,5.71874 -11.42747,-9.14997 -22.85491,-20.58743 -34.28237,-26.30616 -17.14119,-9.14998 -9.14197,14.8687 -9.14197,22.87493 h -11.42746 c -14.85571,-14.8687 -28.56865,-40.03115 -49.13806,-32.02491 -14.85572,3.43123 5.71372,20.58745 5.71372,32.02491 -14.8557,0 -22.85491,-9.14997 -37.71061,-14.8687 -9.14198,-3.43126 -20.56943,3.43124 -17.1412,11.43746 2.2855,9.14998 11.42748,17.15621 9.14198,26.30618 -9.14198,9.14998 -26.28316,5.71873 -28.56864,20.58746 0,17.15621 26.28314,14.86871 37.71061,17.15621 5.71374,3.43124 -3.42825,17.1562 -3.42825,26.30617 3.42825,5.71875 9.14199,9.14998 14.85569,5.71875 11.42746,-9.14999 17.1412,-20.58745 28.56866,-28.59368 3.42823,0 9.14197,0 9.14197,3.43124 0,9.14997 -9.14197,26.30618 3.42823,26.30618 22.85491,3.43123 28.56866,-29.73742 43.42434,-46.89363 3.42824,0 -2.28549,5.71875 1.14275,5.71875 0,9.14996 4.57098,13.72496 10.28472,13.72496 20.56942,3.43123 22.8549,-26.3062 37.7106,-40.03117 0,-3.43124 -5.71373,-3.43124 -9.14196,-3.43124 -11.42746,5.71873 -9.14198,22.87495 -22.85493,28.59369 0,-9.14998 5.71374,-14.86873 11.42747,-20.58746 -9.14197,-5.71873 -17.14118,-2.2875 -26.28316,-2.2875 -17.14117,5.71874 -17.14117,28.59369 -34.28237,37.74368 3.42824,-11.43748 9.14197,-20.58746 17.1412,-32.02494 0,0 -1.14276,1.14377 -4.57099,1.14377 -3.42824,0 -4.571,1.14372 -6.85649,1.14372 -22.85492,-5.71873 -31.99689,17.15622 -45.70982,32.02494 0,0 -5.71374,-3.43125 -2.2855,-5.71873 5.71374,-5.71875 5.71374,-14.86873 11.42747,-17.15622 -9.14197,-9.14999 -20.56944,3.43124 -28.56866,0 v -5.71874 c 14.8557,-3.43125 26.28317,0 39.9961,-5.71874 -11.42744,-9.14997 -31.99688,-9.14997 -34.28237,-22.87495 h 2.28549"
       inkscape:connector-curvature="0"
       style="fill:#ffffff;stroke-width:1.00000012" />
    <path
       id="path835"
       d="m 787.849,-85.148923 h 222.8355 l 36.5678,29.737423 v 179.56832 h -81.13496 v 24.01866 c 17.14119,0 100.56166,18.29997 100.56166,117.80597 0,57.18737 -51.4236,128.09969 -141.70051,117.80596 -36.56786,-4.57499 -87.99143,-21.73119 -115.41732,-70.91232 -38.85335,-70.91233 -10.28471,-112.08722 13.71294,-114.37471 44.5671,-3.43125 54.85181,83.49353 53.70905,81.20605 2.28551,4.57499 3.42825,28.59366 46.85259,22.87493 11.42746,-1.14375 37.71061,-16.01245 37.71061,-43.46238 0,-44.60615 -29.71139,-58.33111 -29.71139,-58.33111 H 891.83888 L 864.41296,169.9067 V 126.4443 L 818.70313,125.30056 787.849,96.706873 Z"
       inkscape:connector-curvature="0"
       style="stroke-width:1.00000012" />
    <g
       id="g849"
       style="fill:#dc0014;stroke-width:0.08747021"
       transform="matrix(11.427459,0,0,11.437471,-2598.1069,-592.9728)">
      <path
         id="path837"
         d="m 303.6,63.1 h 1.5 v 5.5 l -1.6,-2 z"
         inkscape:connector-curvature="0"
         style="stroke-width:0.08747021" />
      <path
         id="path839"
         d="m 296.7,45.3 2.1,2.4 -0.1,14.2 -1.9,-1.7 z"
         inkscape:connector-curvature="0"
         style="stroke-width:0.08747021" />
      <path
         id="path841"
         d="m 297.3,44.9 h 18 l 2.8,2.5 h -18.7 z"
         inkscape:connector-curvature="0"
         style="stroke-width:0.08747021" />
      <path
         id="path843"
         d="M 299.6,48.2 V 62 h 6.2 v 6.8 c 2.5,-0.2 5.4,0.2 7.4,2 1.6,1.5 1.6,7 -1.5,8.5 -1.8,1 -3.7,1.1 -5.3,0.5 -3,-1.1 -3,-4.3 -3.9,-7 -0.3,-1.1 -2.6,-0.7 -3.1,-0.1 -1.4,1.6 -1.7,5 0.1,7.5 1.3,1.5 3.3,2.6 4.9,3.4 2.7,1.2 5.8,1.6 8.5,0.9 2.3,-0.8 4.4,-2.6 5.7,-4.9 2,-3.8 1.6,-9 -1.6,-12.1 -1.5,-1.3 -3.8,-2.4 -6,-1.8 l 0.1,-3.8 h 7 V 48.2 Z"
         inkscape:connector-curvature="0"
         style="stroke-width:0.08747021" />
      <path
         id="path845"
         d="m 312.2,71.1 -1.6,-1 c 1.4,1.9 1.4,3.8 1.3,5.4 -0.1,1.1 -0.1,1.3 -1.5,2.5 -0.9,0.8 -2.8,0.9 -3.5,1.1 1.3,0.8 3.9,0.3 4.9,-0.5 2.1,-1.7 2.5,-5.9 0.4,-7.5"
         inkscape:connector-curvature="0"
         style="stroke-width:0.08747021" />
      <path
         id="path847"
         d="m 301,70.2 c -0.7,-0.4 -1.6,-0.4 -2.3,-0.1 -2,1.3 -1.9,4.8 -1,7.2 -0.1,-1.8 0.3,-4.6 1.5,-5.4 0.8,-0.3 2.1,-0.3 2.9,-0.3 -0.4,-0.2 -0.8,-1.2 -1.1,-1.4"
         inkscape:connector-curvature="0"
         style="stroke-width:0.08747021" />
    </g>
    <path
       id="path851"
       d="M 507.87626,-110.31137 H 1338.6525"
       inkscape:connector-curvature="0"
       style="fill:none;stroke:#1d1d1b;stroke-width:9.75399876;stroke-miterlimit:4;stroke-dasharray:none" />
    <path
       id="path853"
       d="M 1379.7914,-583.82271 H 920.40752 461.02369 l 63.99378,646.217167 c 19.42666,204.730753 190.83854,363.711603 399.96102,363.711603 213.69341,0 387.39081,-165.84334 401.10381,-376.29282 z"
       inkscape:connector-curvature="0"
       style="fill:none;stroke:#1d1d1b;stroke-width:1.36879992" />
    <path
       id="path855"
       d="M 1379.7914,-583.82271 H 920.40752 461.02369 l 63.99378,646.217167 c 19.42666,204.730753 190.83854,363.711603 399.96102,363.711603 213.69341,0 387.39081,-165.84334 401.10381,-376.29282 z"
       inkscape:connector-curvature="0"
       style="fill:none;stroke:#000000;stroke-width:10.00500107;stroke-miterlimit:4;stroke-dasharray:none" />
  </g>
</svg>
