<?xml version="1.0" encoding="UTF-8" standalone="no"?>
<svg
   xmlns:dc="http://purl.org/dc/elements/1.1/"
   xmlns:cc="http://creativecommons.org/ns#"
   xmlns:rdf="http://www.w3.org/1999/02/22-rdf-syntax-ns#"
   xmlns:svg="http://www.w3.org/2000/svg"
   xmlns="http://www.w3.org/2000/svg"
   xmlns:sodipodi="http://sodipodi.sourceforge.net/DTD/sodipodi-0.dtd"
   xmlns:inkscape="http://www.inkscape.org/namespaces/inkscape"
   id="Ebene_1"
   viewBox="0 0 267 300"
   version="1.1"
   sodipodi:docname="CHE Obergerlafingen COA.svg"
   inkscape:version="0.92.3 (2405546, 2018-03-11)">
  <metadata
     id="metadata17">
    <rdf:RDF>
      <cc:Work
         rdf:about="">
        <dc:format>image/svg+xml</dc:format>
        <dc:type
           rdf:resource="http://purl.org/dc/dcmitype/StillImage" />
      </cc:Work>
    </rdf:RDF>
  </metadata>
  <sodipodi:namedview
     pagecolor="#ffffff"
     bordercolor="#666666"
     borderopacity="1"
     objecttolerance="10"
     gridtolerance="10"
     guidetolerance="10"
     inkscape:pageopacity="0"
     inkscape:pageshadow="2"
     inkscape:window-width="1920"
     inkscape:window-height="1017"
     id="namedview15"
     showgrid="false"
     inkscape:zoom="1.7243624"
     inkscape:cx="141.86866"
     inkscape:cy="80.40906"
     inkscape:window-x="-8"
     inkscape:window-y="-8"
     inkscape:window-maximized="1"
     inkscape:current-layer="Ebene_1" />
  <defs
     id="defs4">
    <style
       id="style2">.cls-1{fill:#fff;}.cls-2{fill:#c00;}</style>
  </defs>
  <path
     class="cls-2"
     d="m 2.5371699,166.22268 c 0,72.49594 58.6316881,131.26554 130.9575001,131.26554 72.32583,0 130.95752,-58.7696 130.95752,-131.26554 V 2.5094601 H 2.5371699 Z"
     id="path6"
     inkscape:connector-curvature="0"
     style="fill:#f00000;stroke:#000000;stroke-width:5;stroke-miterlimit:4;stroke-dasharray:none;stroke-opacity:1;fill-opacity:1" />
  <polygon
     class="cls-1"
     points="167.9,129.94 150.59,149.8 167.9,169.66 142.05,164.61 133.5,189.52 124.95,164.61 99.1,169.66 116.41,149.8 99.1,129.94 124.95,135 133.5,110.08 142.05,135 "
     id="polygon8"
     transform="matrix(0.98095502,0,0,0.98326257,2.5371697,2.5094601)"
     style="fill:#ffffff;stroke:#000000;stroke-width:2.03643567;stroke-opacity:1;stroke-miterlimit:4;stroke-dasharray:none" />
  <polygon
     class="cls-1"
     points="167.9,38.64 150.59,58.5 167.9,78.36 142.05,73.31 133.5,98.23 124.95,73.31 99.1,78.36 116.41,58.5 99.1,38.64 124.95,43.7 133.5,18.78 142.05,43.7 "
     id="polygon10"
     transform="matrix(0.98095502,0,0,0.98326257,2.5371697,2.5094601)"
     style="fill:#ffffff;stroke:#000000;stroke-width:2.03643567;stroke-opacity:1;stroke-miterlimit:4;stroke-dasharray:none" />
  <polygon
     class="cls-1"
     points="167.9,221.24 150.59,241.1 167.9,260.96 142.05,255.91 133.5,280.82 124.95,255.91 99.1,260.96 116.41,241.1 99.1,221.24 124.95,226.3 133.5,201.38 142.05,226.3 "
     id="polygon12"
     transform="matrix(0.98095502,0,0,0.98326257,2.5371697,2.5094601)"
     style="fill:#ffffff;stroke:#000000;stroke-width:2.03643567;stroke-opacity:1;stroke-miterlimit:4;stroke-dasharray:none" />
</svg>
