<?xml version="1.0" encoding="UTF-8" standalone="no"?>
<!-- Created with Inkscape (http://www.inkscape.org/) -->

<svg
   xmlns:dc="http://purl.org/dc/elements/1.1/"
   xmlns:cc="http://creativecommons.org/ns#"
   xmlns:rdf="http://www.w3.org/1999/02/22-rdf-syntax-ns#"
   xmlns:svg="http://www.w3.org/2000/svg"
   xmlns="http://www.w3.org/2000/svg"
   xmlns:sodipodi="http://sodipodi.sourceforge.net/DTD/sodipodi-0.dtd"
   xmlns:inkscape="http://www.inkscape.org/namespaces/inkscape"
   version="1.0"
   width="208.86046"
   height="244.65999"
   id="svg2780"
   inkscape:version="0.92.4 (5da689c313, 2019-01-14)"
   sodipodi:docname="Grenchen-blazon.svg">
  <metadata
     id="metadata27">
    <rdf:RDF>
      <cc:Work
         rdf:about="">
        <dc:format>image/svg+xml</dc:format>
        <dc:type
           rdf:resource="http://purl.org/dc/dcmitype/StillImage" />
        <dc:title></dc:title>
      </cc:Work>
    </rdf:RDF>
  </metadata>
  <sodipodi:namedview
     pagecolor="#ffffff"
     bordercolor="#666666"
     borderopacity="1"
     objecttolerance="10"
     gridtolerance="10"
     guidetolerance="10"
     inkscape:pageopacity="0"
     inkscape:pageshadow="2"
     inkscape:window-width="3259"
     inkscape:window-height="1417"
     id="namedview25"
     showgrid="false"
     inkscape:zoom="2.8284271"
     inkscape:cx="-26.999927"
     inkscape:cy="125.34048"
     inkscape:window-x="-8"
     inkscape:window-y="-8"
     inkscape:window-maximized="1"
     inkscape:current-layer="svg2780"
     inkscape:measure-start="104.255,149.787"
     inkscape:measure-end="104.255,126.383"
     showguides="true"
     inkscape:object-paths="true"
     inkscape:snap-intersection-paths="true" />
  <defs
     id="defs2782" />
  <path
     inkscape:connector-curvature="0"
     style="fill:#cc2918;fill-opacity:1;fill-rule:evenodd;stroke:#000000;stroke-width:1.99999988;stroke-linecap:butt;stroke-miterlimit:4;stroke-dashoffset:0;stroke-opacity:1"
     id="path4212"
     d="m 1,1 3.761095,158.00304 c 2.686489,112.85918 196.651755,112.85918 199.338255,0 L 207.86045,1 Z" />
  <g
     id="g16214"
     transform="matrix(1.0404621,0,0,1.0403597,-4.2254624,-2.7541636)"
     style="stroke-width:0.96115875">
    <path
       sodipodi:nodetypes="ccccccccccccccccccc"
       inkscape:connector-curvature="0"
       d="m 179.53926,156.44842 -1.23744,6.18718 -54.42641,-22.05742 c 0.39507,26.11098 3.16843,48.86685 6.3684,69.83961 0.0272,0.25878 0.0407,0.51652 0.0407,0.77594 -1e-5,5.11885 -5.23013,9.58621 -12.99589,11.96506 l -2.21575,-4.60143 3.7e-4,-14.86023 c -3.06358,-0.8987 -6.71844,-1.4207 -10.643,-1.4207 -3.92455,0 -7.579415,0.522 -10.642994,1.4207 l 3.7e-4,14.86023 -2.21575,4.60143 c -7.76576,-2.37885 -12.99588,-6.84621 -12.99589,-11.96506 0,-0.25942 0.0135,-0.51716 0.0407,-0.77594 3.19997,-20.97276 5.97333,-43.72863 6.3684,-69.83961 L 30.558668,162.6356 29.321228,156.44842 104.43024,12.905742 Z"
       style="opacity:1;fill:#ffffff;fill-opacity:1;stroke:#000000;stroke-width:0.96115875;stroke-miterlimit:4;stroke-dasharray:none;stroke-dashoffset:4.57999992;stroke-opacity:1"
       id="path16033-8-3" />
    <path
       sodipodi:nodetypes="cc"
       inkscape:connector-curvature="0"
       id="path15925"
       d="m 104.43024,197.40514 c 13.79246,0 25.06241,5.75993 25.81423,13.01554"
       style="opacity:1;fill:none;fill-opacity:1;stroke:#000000;stroke-width:0.96115875;stroke-miterlimit:4;stroke-dasharray:none;stroke-dashoffset:4.57999992;stroke-opacity:1" />
    <path
       sodipodi:nodetypes="ccc"
       inkscape:connector-curvature="0"
       d="m 179.53926,156.44842 -55.77892,-22.64903 0.11507,6.77879"
       style="opacity:1;fill:none;fill-opacity:1;stroke:#000000;stroke-width:0.96115875;stroke-miterlimit:4;stroke-dasharray:none;stroke-dashoffset:4.57999992;stroke-opacity:1"
       id="path15923-8-5" />
    <path
       sodipodi:nodetypes="csc"
       inkscape:connector-curvature="0"
       id="path16033"
       d="m 115.07361,203.69723 c 5.37785,1.57758 8.93524,4.31597 8.93524,7.42996 0,3.11414 -3.55772,5.85262 -8.93598,7.43017"
       style="opacity:1;fill:none;fill-opacity:1;stroke:#000000;stroke-width:0.96115875;stroke-miterlimit:4;stroke-dasharray:none;stroke-dashoffset:4.57999992;stroke-opacity:1" />
    <ellipse
       ry="4.5694952"
       rx="4.5702615"
       cy="160.4165"
       cx="104.43024"
       id="path15942"
       style="opacity:1;fill:#cc2918;fill-opacity:1;stroke:#000000;stroke-width:0.96115869;stroke-miterlimit:4;stroke-dasharray:none;stroke-dashoffset:4.57999992;stroke-opacity:1" />
    <ellipse
       ry="4.5694952"
       rx="4.5702615"
       cy="171.90494"
       cx="111.08875"
       id="path15942-6"
       style="opacity:1;fill:#cc2918;fill-opacity:1;stroke:#000000;stroke-width:0.96115869;stroke-miterlimit:4;stroke-dasharray:none;stroke-dashoffset:4.57999992;stroke-opacity:1" />
    <ellipse
       ry="4.5694952"
       rx="4.5702615"
       transform="scale(-1,1)"
       cy="171.90494"
       cx="-97.771744"
       id="path15942-6-8"
       style="opacity:1;fill:#cc2918;fill-opacity:1;stroke:#000000;stroke-width:0.96115869;stroke-miterlimit:4;stroke-dasharray:none;stroke-dashoffset:4.57999992;stroke-opacity:1" />
    <path
       sodipodi:nodetypes="cc"
       inkscape:connector-curvature="0"
       id="path15925-0"
       d="m 104.43024,197.40514 c -13.792462,0 -25.062412,5.75993 -25.814232,13.01554"
       style="opacity:1;fill:none;fill-opacity:1;stroke:#000000;stroke-width:0.96115875;stroke-miterlimit:4;stroke-dasharray:none;stroke-dashoffset:4.57999992;stroke-opacity:1" />
    <path
       sodipodi:nodetypes="ccc"
       inkscape:connector-curvature="0"
       d="m 29.321219,156.44842 55.778919,-22.64903 -0.11507,6.77879"
       style="opacity:1;fill:none;fill-opacity:1;stroke:#000000;stroke-width:0.96115875;stroke-miterlimit:4;stroke-dasharray:none;stroke-dashoffset:4.57999992;stroke-opacity:1"
       id="path15923-8-5-9" />
    <path
       sodipodi:nodetypes="csc"
       inkscape:connector-curvature="0"
       id="path16033-1"
       d="m 93.786868,203.69723 c -5.37785,1.57758 -8.93524,4.31597 -8.93524,7.42996 0,3.11414 3.55772,5.85262 8.93598,7.43017"
       style="opacity:1;fill:none;fill-opacity:1;stroke:#000000;stroke-width:0.96115875;stroke-miterlimit:4;stroke-dasharray:none;stroke-dashoffset:4.57999992;stroke-opacity:1" />
    <path
       sodipodi:nodetypes="ccccccc"
       inkscape:connector-curvature="0"
       d="m 155.24114,137.12498 c 0,0 -34.28339,-15.23974 -36.92813,-15.53231 -1.56706,-0.17335 -9.40017,1.25198 -9.40017,1.25198 l -4.4826,-79.13557 -4.4826,79.13557 c 0,0 -7.833112,-1.42533 -9.400172,-1.25198 -2.64474,0.29257 -36.928129,15.53231 -36.928129,15.53231"
       style="opacity:1;fill:none;fill-opacity:1;stroke:#000000;stroke-width:0.96115875;stroke-miterlimit:22;stroke-dasharray:none;stroke-dashoffset:4.57999992;stroke-opacity:1"
       id="path16009-3-0" />
  </g>
</svg>
