<?xml version="1.0" encoding="UTF-8" standalone="no"?>
<!-- Created with Inkscape (http://www.inkscape.org/) -->

<svg
   xmlns:dc="http://purl.org/dc/elements/1.1/"
   xmlns:cc="http://creativecommons.org/ns#"
   xmlns:rdf="http://www.w3.org/1999/02/22-rdf-syntax-ns#"
   xmlns:svg="http://www.w3.org/2000/svg"
   xmlns="http://www.w3.org/2000/svg"
   xmlns:sodipodi="http://sodipodi.sourceforge.net/DTD/sodipodi-0.dtd"
   xmlns:inkscape="http://www.inkscape.org/namespaces/inkscape"
   version="1.0"
   width="208.86046"
   height="244.65999"
   id="svg2780"
   inkscape:version="0.92.4 (5da689c313, 2019-01-14)"
   sodipodi:docname="Günsberg-blazon.svg">
  <metadata
     id="metadata27">
    <rdf:RDF>
      <cc:Work
         rdf:about="">
        <dc:format>image/svg+xml</dc:format>
        <dc:type
           rdf:resource="http://purl.org/dc/dcmitype/StillImage" />
        <dc:title />
      </cc:Work>
    </rdf:RDF>
  </metadata>
  <sodipodi:namedview
     pagecolor="#ffffff"
     bordercolor="#666666"
     borderopacity="1"
     objecttolerance="10"
     gridtolerance="10"
     guidetolerance="10"
     inkscape:pageopacity="0"
     inkscape:pageshadow="2"
     inkscape:window-width="3259"
     inkscape:window-height="1417"
     id="namedview25"
     showgrid="false"
     inkscape:zoom="2.8284271"
     inkscape:cx="134.40949"
     inkscape:cy="83.362593"
     inkscape:window-x="-8"
     inkscape:window-y="-8"
     inkscape:window-maximized="1"
     inkscape:current-layer="svg2780"
     inkscape:measure-start="104.255,149.787"
     inkscape:measure-end="104.255,126.383"
     showguides="true"
     inkscape:object-paths="true"
     inkscape:snap-intersection-paths="true"
     inkscape:snap-global="true" />
  <defs
     id="defs2782" />
  <path
     inkscape:connector-curvature="0"
     style="fill:#feeb00;fill-opacity:1;fill-rule:evenodd;stroke:#000000;stroke-width:1.99999988;stroke-linecap:butt;stroke-miterlimit:4;stroke-dashoffset:0;stroke-opacity:1"
     id="path4212"
     d="m 1,1 3.761095,158.00304 c 2.686489,112.85918 196.651755,112.85918 199.338255,0 L 207.86045,1 Z" />
  <path
     id="path3744-3"
     style="opacity:1;fill:#cc2918;fill-opacity:1;stroke:#000000;stroke-width:1.00199997;stroke-miterlimit:20;stroke-dasharray:none;stroke-dashoffset:4.57999992;stroke-opacity:1"
     d="m 68.842669,128.43086 c -4.985404,-2.69031 -14.526666,-6.57221 -23.180878,-7.98758 -3.040241,-0.49722 -6.17422,-0.34377 -8.536139,1.70935 -4.235074,3.6814 -7.715928,7.32532 -11.059661,11.6865 l -1.906862,-0.99483 -1.575193,1.57447 c -0.01503,2.83688 -0.388069,6.72821 -1.831396,7.14576 -2.849774,0.8244 -5.64439,1.08514 -8.483127,1.24446 2.48726,-5.27448 5.196623,-11.71765 11.172903,-15.94534 3.776202,-4.37418 7.598092,-8.8468 11.635075,-13.32947 2.421164,-2.68846 3.698625,-1.83681 5.281213,-1.62563 5.847054,0.78024 16.051354,4.22542 22.577209,3.29034"
     inkscape:connector-curvature="0"
     sodipodi:nodetypes="cssccccccccc" />
  <path
     id="path1639-9"
     style="opacity:1;fill:#009645;fill-opacity:1;stroke:#000000;stroke-width:1.00157475;stroke-miterlimit:4;stroke-dasharray:none;stroke-dashoffset:4.57999992;stroke-opacity:1"
     d="m 156.48326,232.10641 c 14.3834,-6.18962 29.06402,-21.47159 12.50976,-35.46058 -8.89348,-7.51533 -29.0044,-7.64247 -39.38236,3.60245 3.49074,-17.76479 -8.75811,-29.0379 -25.18042,-29.0379 -16.422303,0 -28.67115,11.27311 -25.180416,29.0379 -10.377958,-11.24492 -30.488881,-11.11778 -39.382363,-3.60245 -16.554255,13.98899 -1.873637,29.27096 12.509769,35.46058 18.936109,7.12535 30.040309,10.82043 52.05301,11.54101 22.01271,-0.72058 37.70642,-5.78599 52.05302,-11.54101 z"
     inkscape:connector-curvature="0"
     sodipodi:nodetypes="cscccsccc" />
  <path
     style="opacity:1;fill:#cc2918;fill-opacity:1;stroke:#000000;stroke-width:1.00157475;stroke-miterlimit:20;stroke-dasharray:none;stroke-dashoffset:4.57999992;stroke-opacity:1"
     d="m 87.229249,29.840648 c -7.492938,3.894679 -8.515591,7.663406 -7.109398,15.627429 0.498855,2.825269 -2.148528,6.057759 -4.535216,8.887451 l 5.979382,1.495033 c 1.247552,-5.09813 8.660249,-9.121284 18.721623,-10.172148 26.84618,-2.803956 58.90956,0.86117 68.98895,-19.724155 -6.41616,4.169699 -11.81594,8.046427 -19.90915,10.240592 -3.0908,0.83795 -5.37676,0.0081 -3.69351,-2.427458 2.27208,-3.287702 6.427,-7.413406 10.65586,-10.971634 -8.70843,0.393112 -13.72784,8.104536 -19.47685,14.771859 -1.04371,0.285248 -9.74295,1.146496 -10.88127,0.815133 -1.25193,-0.364432 -1.44041,-0.759607 -1.39909,-1.828427 0.13438,-3.476263 4.0831,-8.102267 7.19339,-11.938327 -6.83973,1.459785 -10.55256,6.715544 -14.27787,14.178042 -3.12075,0.266298 -8.53443,0.0083 -12.20618,0.646078 -1.48535,0.258006 -1.42635,-0.784185 -1.31064,-1.407268 0.82375,-4.435657 4.98597,-8.056785 7.91508,-12.583909 -7.95315,2.513502 -11.20978,6.34375 -14.331569,14.897971 -3.04068,0.850148 -7.991512,1.893691 -10.532697,3.25983 -0.960879,0.516568 -1.870025,0.524957 -2.173296,-0.177761 -1.785196,-4.136527 -0.663758,-8.393354 2.382451,-13.588331 z"
     id="path3738"
     inkscape:connector-curvature="0"
     sodipodi:nodetypes="csccscssccssccssccssc" />
  <path
     style="opacity:1;fill:#cc2918;fill-opacity:1;stroke:#000000;stroke-width:1.00157475;stroke-miterlimit:20;stroke-dasharray:none;stroke-dashoffset:4.57999992;stroke-opacity:1"
     d="m 133.53866,132.38214 c 3.51621,4.10711 7.83927,7.80256 16.66663,9.20001 8.78924,0.61389 14.60218,10.40474 20.87691,18.77171 l 1.0846,8.38365 8.19665,6.82564 c 0.9649,-2.4565 1.26315,-4.75884 0.62036,-7.60267 -0.34804,-1.5398 -2.46275,-2.49303 -5.03854,-3.06437 l -0.51032,-1.49193 c 0.86691,-0.49012 1.96022,-1.23703 3.19259,-2.14164 -5.75036,-8.91411 -12.41411,-18.39676 -19.09603,-27.89072 -9.24329,-2.2396 -17.67057,-1.78778 -25.99285,-0.98968 z"
     id="path3734"
     inkscape:connector-curvature="0"
     sodipodi:nodetypes="cccccsccccc" />
  <path
     id="path3744"
     style="opacity:1;fill:#cc2918;fill-opacity:1;stroke:#000000;stroke-width:1.00199997;stroke-miterlimit:20;stroke-dasharray:none;stroke-dashoffset:4.57999992;stroke-opacity:1"
     d="m 102.63654,43.876526 c -3.701541,3.063241 -8.567629,5.301733 -10.592184,9.379347 -0.383368,0.772133 0.822498,1.168922 1.429094,1.230581 1.357618,0.138 6.63527,0.938049 9.20026,1.31285 6.46336,-9.415563 12.27201,-9.829082 19.23159,-8.896088 -6.23585,2.771536 -9.58315,4.963581 -11.78653,8.441168 -0.59649,0.941444 -0.19964,1.691433 0.74068,1.885653 2.83338,0.585226 8.05941,1.655721 10.65304,2.143543 5.52666,-6.581213 9.38625,-8.369892 20.62128,-6.836007 -5.26734,1.478977 -11.25168,3.345353 -13.36299,7.104725 -0.45202,0.804855 -0.12736,1.465527 1.02935,1.786045 3.33122,0.923063 7.1767,1.603771 10.84217,2.54696 8.44001,-6.974444 13.49313,-6.736927 22.6669,-6.072484 -6.29685,2.496427 -17.00384,4.195824 -15.63808,7.880007 0.62698,1.691303 13.98449,-0.149238 23.58763,-1.624235 -12.15158,7.492794 -21.6911,7.652766 -29.40283,5.573835 -16.82415,-4.535462 -33.40892,-8.381344 -54.195057,-10.810874 -3.208713,0.300561 -3.807319,1.077863 -3.664036,2.999975 2.411089,-0.663291 10.270102,-0.413119 14.851059,1.567404 -2.555322,4.335747 -7.401435,5.374975 -12.884404,5.839892 2.611311,7.900112 5.96146,22.227627 6.353046,30.083441 16.022692,-1.252979 31.796792,-2.466759 54.131942,7.013946 3.07128,0.71034 6.5873,0.88929 11.93309,-0.46035 -0.15876,3.25979 -1.90133,4.08006 -3.28866,5.4475 1.63747,5.40553 3.19912,10.45441 5.52602,15.03096 3.84726,7.56679 8.8709,6.81195 12.43964,7.04238 l 18.94137,24.07277 c -1.0508,0.39972 -2.07611,0.47659 -3.10191,0.55979 1.01972,2.74459 2.26244,5.57674 5.5638,6.85348 0.58964,3.37776 -0.1918,6.4235 -0.92605,9.48067 l -7.73944,-7.2702 c -0.62234,-14.85254 -10.04831,-22.97054 -23.47275,-28.02977 -7.66617,-1.37606 -15.668,-2.90834 -20.42402,-6.12201 -23.30266,1.69805 -16.94668,-1.54114 -44.726773,3.17353 -6.717871,1.1438 -13.39304,0.88434 -19.725772,-1.4019 -0.592025,0.5379 -1.133687,1.0485 -1.751517,1.65097 -8.360895,-0.62292 -16.916355,-0.71315 -25.681739,-0.45509 -3.079297,0.0906 -6.126753,0.83794 -8.05461,3.30316 -3.456775,4.42032 -5.847457,9.39154 -8.299771,14.30952 l -2.39418,-1.34487 -1.246649,1.84554 c 0.525312,2.78785 0.899908,6.67903 -0.437526,7.36371 -2.640705,1.35186 -5.334579,2.13986 -8.09107,2.83668 1.437647,-5.65153 2.870836,-12.49264 7.932966,-17.78076 2.874402,-5.01308 5.77493,-10.13148 8.884693,-15.30071 1.865061,-3.10023 3.281294,-2.50734 4.87515,-2.60132 5.888652,-0.34717 11.771925,-0.85982 17.952574,-3.73116 -1.011711,-4.44454 -1.951876,-8.91805 -1.901348,-13.79259 -0.431715,0.50611 -0.878765,0.88393 -1.537379,1.2729 -0.137444,-5.39809 1.333022,-10.42409 3.096813,-15.382224 -0.979581,0.543754 -1.860375,0.755213 -2.737064,0.907837 1.894124,-6.227973 5.724865,-12.369602 10.254808,-18.480061 -4.881579,0.07771 -8.012463,-2.902865 -14.354233,-5.097434 -3.859177,1.761698 -7.45145,2.999757 -7.915141,-1.900136 l 0.925309,-5.388643 c 9.424552,-5.009911 16.577377,-8.761965 27.323773,-13.124038 6.40567,-1.356198 10.338159,0.09617 11.614757,-0.498828 5.194278,-8.103731 9.564079,-9.237115 16.730909,-9.538987 z"
     inkscape:connector-curvature="0"
     sodipodi:nodetypes="cssccssccssccscsccccccccscccccccccccsscccccccccccccccccccc" />
  <g
     id="g24445"
     transform="translate(1.75,-0.25)">
    <path
       sodipodi:nodetypes="cc"
       inkscape:connector-curvature="0"
       id="path3740"
       d="m 63.870593,60.77165 c 2.852089,1.08104 4.688564,1.460541 7.306582,1.287354"
       style="opacity:1;fill:none;fill-opacity:1;stroke:#000000;stroke-width:1.00199997;stroke-miterlimit:20;stroke-dasharray:none;stroke-dashoffset:4.57999992;stroke-opacity:1" />
    <ellipse
       ry="1.3200588"
       rx="1.3210489"
       transform="rotate(-3.6167947)"
       cy="67.233086"
       cx="61.703926"
       id="path3742"
       style="opacity:1;fill:#000000;fill-opacity:1;stroke:#000000;stroke-width:1.00199997;stroke-miterlimit:20;stroke-dasharray:none;stroke-dashoffset:4.57999992;stroke-opacity:1" />
  </g>
  <path
     style="opacity:1;fill:none;fill-opacity:1;stroke:#000000;stroke-width:1.00199997;stroke-miterlimit:20;stroke-dasharray:none;stroke-dashoffset:4.57999992;stroke-opacity:1"
     d="m 141.89956,133.03143 c -5.2908,-4.03994 -8.90819,-9.08133 -12.27178,-14.27462"
     id="path3746"
     inkscape:connector-curvature="0"
     sodipodi:nodetypes="cc" />
  <path
     style="opacity:1;fill:none;fill-opacity:1;stroke:#000000;stroke-width:1.00199997;stroke-miterlimit:20;stroke-dasharray:none;stroke-dashoffset:4.57999992;stroke-opacity:1"
     d="m 77.447013,134.80306 c 2.315932,-2.11169 3.784578,-4.26361 5.234841,-6.41638"
     id="path3748"
     inkscape:connector-curvature="0"
     sodipodi:nodetypes="cc" />
  <path
     style="opacity:1;fill:none;fill-opacity:1;stroke:#000000;stroke-width:1.00199997;stroke-miterlimit:20;stroke-dasharray:none;stroke-dashoffset:4.57999992;stroke-opacity:1"
     d="m 61.135334,124.89873 c 2.688865,-1.24347 5.313381,-2.52021 7.833531,-3.85088"
     id="path3750"
     inkscape:connector-curvature="0"
     sodipodi:nodetypes="cc" />
  <path
     style="opacity:1;fill:none;fill-opacity:1;stroke:#000000;stroke-width:1.00199997;stroke-miterlimit:20;stroke-dasharray:none;stroke-dashoffset:4.57999992;stroke-opacity:1"
     d="m 68.311164,79.424592 c 2.734387,0.103026 5.352059,-0.938783 7.743217,-4.202479"
     id="path3756"
     inkscape:connector-curvature="0"
     sodipodi:nodetypes="cc" />
  <path
     style="opacity:1;fill:none;fill-opacity:1;stroke:#000000;stroke-width:1.00199997;stroke-miterlimit:20;stroke-dasharray:none;stroke-dashoffset:4.57999992;stroke-opacity:1"
     d="m 80.21322,63.241355 c 0.8236,-0.320236 2.990578,-1.157715 3.783607,-1.319828"
     id="path3760"
     inkscape:connector-curvature="0"
     sodipodi:nodetypes="cc" />
  <ellipse
     style="opacity:1;fill:#000000;fill-opacity:1;stroke:#000000;stroke-width:1.00199997;stroke-miterlimit:20;stroke-dasharray:none;stroke-dashoffset:4.57999992;stroke-opacity:1"
     id="path3764"
     cx="41.744762"
     cy="72.545265"
     rx="1.6535873"
     ry="2.5760791"
     transform="rotate(-3.6167947)" />
  <path
     style="opacity:1;fill:none;fill-opacity:0.47906979;stroke:#000000;stroke-width:1.00199997;stroke-miterlimit:20;stroke-dasharray:none;stroke-dashoffset:4.57999992;stroke-opacity:1"
     d="m 85.963482,69.328823 c -0.949507,0.05385 -1.912315,0.08376 -2.976342,-0.06853"
     id="path23673"
     inkscape:connector-curvature="0"
     sodipodi:nodetypes="cc" />
  <path
     inkscape:connector-curvature="0"
     style="fill:none;fill-opacity:1;fill-rule:evenodd;stroke:#000000;stroke-width:1.99999988;stroke-linecap:butt;stroke-miterlimit:4;stroke-dashoffset:0;stroke-opacity:1"
     id="path4212-4"
     d="M 1,0.99999834 4.761095,159.00304 c 2.686489,112.85918 196.651755,112.85918 199.338255,0 l 3.7611,-158.00304166 z" />
</svg>
