<?xml version="1.0" encoding="UTF-8" standalone="no"?>
<!-- Created with Inkscape (http://www.inkscape.org/) -->

<svg
   version="1.0"
   width="208.86046"
   height="244.65999"
   id="svg2780"
   inkscape:version="1.1 (c68e22c387, 2021-05-23)"
   sodipodi:docname="Lommiswil-blazon.svg"
   xmlns:inkscape="http://www.inkscape.org/namespaces/inkscape"
   xmlns:sodipodi="http://sodipodi.sourceforge.net/DTD/sodipodi-0.dtd"
   xmlns="http://www.w3.org/2000/svg"
   xmlns:svg="http://www.w3.org/2000/svg"
   xmlns:rdf="http://www.w3.org/1999/02/22-rdf-syntax-ns#"
   xmlns:cc="http://creativecommons.org/ns#"
   xmlns:dc="http://purl.org/dc/elements/1.1/">
  <metadata
     id="metadata27">
    <rdf:RDF>
      <cc:Work
         rdf:about="">
        <dc:format>image/svg+xml</dc:format>
        <dc:type
           rdf:resource="http://purl.org/dc/dcmitype/StillImage" />
        <dc:title />
      </cc:Work>
    </rdf:RDF>
  </metadata>
  <sodipodi:namedview
     pagecolor="#ffffff"
     bordercolor="#666666"
     borderopacity="1"
     objecttolerance="10"
     gridtolerance="10"
     guidetolerance="10"
     inkscape:pageopacity="0"
     inkscape:pageshadow="2"
     inkscape:window-width="3222"
     inkscape:window-height="1417"
     id="namedview25"
     showgrid="false"
     inkscape:zoom="2.8284272"
     inkscape:cx="-39.774755"
     inkscape:cy="147.96209"
     inkscape:window-x="-8"
     inkscape:window-y="-8"
     inkscape:window-maximized="1"
     inkscape:current-layer="svg2780"
     inkscape:measure-start="104.255,149.787"
     inkscape:measure-end="104.255,126.383"
     showguides="true"
     inkscape:object-paths="true"
     inkscape:snap-intersection-paths="true"
     inkscape:pagecheckerboard="0" />
  <defs
     id="defs2782" />
  <path
     inkscape:connector-curvature="0"
     style="fill:#1b63c6;fill-opacity:1;fill-rule:evenodd;stroke:#000000;stroke-width:1.99999988;stroke-linecap:butt;stroke-miterlimit:4;stroke-dashoffset:0;stroke-opacity:1"
     id="path4212"
     d="m 1,1 3.761095,158.00304 c 2.686489,112.85918 196.651755,112.85918 199.338255,0 L 207.86045,1 Z" />
  <path
     style="fill:#009645;fill-opacity:1;stroke:#000000;stroke-width:1;stroke-linecap:butt;stroke-linejoin:miter;stroke-miterlimit:4;stroke-dasharray:none;stroke-dashoffset:4.58;stroke-opacity:1"
     d="m 7.654467,179.76887 193.551493,5e-5 c -8.79522,31.33825 -40.6278,63.8785 -96.77572,63.8785 -51.85312,0 -89.604345,-30.67802 -96.775773,-63.87855 z"
     id="path77195"
     sodipodi:nodetypes="ccsc" />
  <path
     id="path5375-1-1"
     style="fill:#cc2918;fill-opacity:1;stroke:#000000;stroke-width:1.00001;stroke-miterlimit:8.30769;stroke-dasharray:none;stroke-dashoffset:4.58;stroke-opacity:1"
     d="m 116.0009,51.853881 58.44812,40.908145 -4.29763,-27.360574 27.17826,-5.330453 -58.44813,-40.908146 z"
     inkscape:connector-curvature="0"
     sodipodi:nodetypes="ccccc"
     inkscape:transform-center-x="-144.14497"
     inkscape:transform-center-y="-134.80852" />
  <path
     id="path5377-4-8-29"
     style="fill:#ffffff;fill-opacity:1;stroke:#000000;stroke-width:1.00001;stroke-miterlimit:8.30769;stroke-dasharray:none;stroke-dashoffset:4.58;stroke-opacity:1"
     d="m 178.2609,63.810941 -19.46616,-13.624465 8.02673,-11.468309 -11.01425,-7.708922 -8.02672,11.468299 -16.92571,-11.846382 -6.82717,9.754411 16.92572,11.84639 -8.02674,11.468309 11.01426,7.708922 8.02671,-11.468299 19.46617,13.624466 -1.28235,-8.163909 z"
     inkscape:connector-curvature="0"
     sodipodi:nodetypes="cccccccccccccc"
     inkscape:transform-center-x="-138.43277"
     inkscape:transform-center-y="-138.80652" />
  <path
     id="path5373-0-1-1"
     style="fill:#ffffff;fill-opacity:1;stroke:#000000;stroke-width:0.999999;stroke-miterlimit:8.30769;stroke-dasharray:none;stroke-dashoffset:4.58;stroke-opacity:1"
     d="M 142.06833,15.789534 31.825865,173.30013 c -1.425315,-0.99758 -2.850645,-1.99518 -4.275959,-2.99278 L 137.79238,12.796765 c 1.42531,0.997583 2.85063,1.995186 4.27595,2.992769 z"
     sodipodi:nodetypes="ccccc"
     inkscape:transform-center-x="-64.20336"
     inkscape:transform-center-y="-88.441385" />
  <g
     id="g96725"
     transform="translate(0,4)">
    <path
       d="m 139.27599,142.11686 c -0.233,1.2043 -1.95394,2.52651 0.95117,3.91537 0.34191,2.24657 0.39769,4.66739 0.12059,7.04563 -0.50673,4.34745 -3.00069,12.98014 -4.35265,16.01256 -1.3187,2.95785 -3.99827,5.81539 -5.92703,7.80347 -1.5425,1.59006 -3.8642,3.2923 -3.94184,5.57306 -2.90427,3.56165 -6.9743,6.96813 -4.94521,9.45233 h 11.11137 c 3.0763,0 2.29208,-6.42824 3.20046,-9.95313 1.91951,1.55447 5.27043,2.06128 5.69046,-2.33061 0.35434,-3.70494 5.32504,-19.57268 7.95531,-23.16332 4.43994,-6.06105 5.75271,-5.5014 4.07892,-12.40494 3.25339,-3.37302 -0.14644,-3.29309 -0.26936,-4.97274 4.6943,-6.06788 3.93166,-13.1353 4.94391,-22.87678 l -25.90128,8.23545 c 0.566,4.14365 0.67138,10.12058 4.9697,12.19171 -1.05582,2.62863 0.38639,4.06846 2.31557,5.47194 z"
       fill="#e3e4e5"
       stroke="#9a9a99"
       stroke-linecap="round"
       stroke-linejoin="round"
       stroke-width="0.9585"
       id="path31514-6-1"
       style="fill:#ffffff;fill-opacity:1;stroke:#000000;stroke-width:1.00001;stroke-linecap:butt;stroke-miterlimit:4;stroke-dasharray:none;stroke-opacity:1"
       sodipodi:nodetypes="cccscccscssccccccc" />
    <path
       d="m 126.12616,182.46695 c -0.16297,2.28809 6.29158,2.21405 8.88998,2.82546"
       fill="none"
       stroke="#9a9a99"
       stroke-linecap="round"
       stroke-linejoin="round"
       stroke-width="0.9585"
       id="path31516-4-7"
       style="fill:none;stroke:#000000;stroke-width:1.00001;stroke-linecap:butt;stroke-miterlimit:4;stroke-dasharray:none;stroke-opacity:1"
       sodipodi:nodetypes="cc" />
    <path
       d="m 125.1917,191.91929 c -2.1424,-1.32375 0.66415,-5.12016 2.53162,-7.85224"
       fill="none"
       stroke="#9a9a99"
       stroke-linecap="round"
       stroke-linejoin="round"
       stroke-width="0.9585"
       id="path31518-3-5"
       style="fill:none;stroke:#000000;stroke-width:1.00001;stroke-linecap:butt;stroke-miterlimit:4;stroke-dasharray:none;stroke-opacity:1" />
    <path
       d="m 164.43835,92.261406 c 2.24469,0.449725 4.02758,0.0289 5.94284,1.367743 0.8527,-0.199404 1.74053,0.09385 2.84835,3.323388 0.90434,0.898861 2.75385,1.049504 2.231,4.437293 1.24451,0.60281 1.68706,2.15843 1.76069,4.11512 2.47608,1.93739 2.10593,3.52188 2.01394,5.11821 1.09808,0.0707 1.3077,1.61124 1.18977,3.62684 1.17566,2.00757 1.40191,3.83244 0.88577,6.63164 0.20824,0.99637 0.92642,2.60868 0.90053,3.65587 -0.0166,0.67007 -0.003,1.66674 -0.79684,3.05957 0.24135,1.12918 0.73925,2.10082 -0.81717,2.90824 0.40432,2.403 -0.42281,2.56091 -2.0496,2.44907 -0.36512,0.9425 -3.22489,1.00215 -4.30192,-1.54998 -1.6295,-0.2411 -2.69871,-1.67234 -2.55579,-2.62908 -1.37033,-4.16551 -3.91431,-10.68744 -4.51117,-23.55076 z"
       fill="#e3e4e5"
       stroke="#9a9a99"
       stroke-linecap="round"
       stroke-linejoin="round"
       stroke-width="0.9585"
       id="path31520-8-9"
       style="fill:#ffffff;fill-opacity:1;stroke:#000000;stroke-width:1.00001;stroke-linecap:butt;stroke-miterlimit:4;stroke-dasharray:none;stroke-opacity:1"
       sodipodi:nodetypes="cccccccccccccccc" />
    <path
       d="m 45.001197,52.207044 c -1.171358,-0.784871 -8.098739,0.0703 -8.757822,0.512757 -0.744566,0.499699 -2.041504,0.87261 -3.268894,1.457601 -1.368198,0.65223 -2.872817,2.004717 -3.513415,2.542783 -1.646804,1.383477 -2.422232,3.753221 -4.119986,5.256694 -4.354052,3.85571 -9.691261,9.413456 -9.347881,11.996957 0.195563,1.471128 -0.283575,2.922661 1.146848,3.406695 0.94594,0.320035 1.836925,0.08787 2.850386,-0.198126 l 4.76441,-1.344381 c -2.961668,1.724258 -6.051272,1.330463 -5.520313,3.563633 0.429824,1.808951 2.727431,2.395024 6.794064,0.886107 3.312457,-1.229104 5.079087,0.598144 8.234326,1.230717 1.781475,0.356704 5.068844,-0.774507 6.317295,-1.08149 L 53.594226,77.74377"
       style="fill:#ffffff;fill-opacity:1;fill-rule:evenodd;stroke:#000000;stroke-width:1.00001;stroke-linecap:butt;stroke-linejoin:round;stroke-miterlimit:4;stroke-dasharray:none;stroke-opacity:1"
       id="path31526-2-9" />
    <path
       d="m 57.964023,119.97208 c -0.917419,0.11831 -5.474028,-0.57215 -8.65378,4.81131 -1.5301,0.33084 -5.723643,0.64772 -6.662248,3.99234 -2.339887,-0.26003 -3.964379,2.65387 -4.39835,4.89495 -1.857393,-0.27168 -4.16504,2.91242 -3.304823,4.86714 -0.520602,1.37316 -0.797175,2.90216 -0.650108,4.53161 0.618197,6.8494 3.778319,9.85281 10.676343,17.90051 1.342407,1.56614 0.818972,3.98519 2.81732,5.08672 2.010204,3.88455 3.417307,8.60508 6.437147,8.16079 l 4.432966,-8.64221 c 1.227283,-2.39273 -4.849438,-4.75635 -7.623366,-7.07179 0.341215,-1.4694 2.40247,-2.70346 -2.97562,-6.49472 -3.212138,-2.26442 -5.376392,-2.78641 -5.401667,-5.51832 0.04356,-4.2088 3.45998,-5.67483 5.440458,-6.41533 1.840404,0.3854 3.447624,1.01504 5.349133,-1.54653 2.818743,0.73924 4.347008,0.2087 5.408661,-1.297 2.123926,0.45021 4.741468,0.75409 5.365487,-2.58611 4.193147,-0.12089 4.116472,-2.8324 4.840759,-5.36871 3.053175,-2.97904 5.567907,-11.98037 4.889946,-16.19664"
       fill="#e3e4e5"
       stroke="#9a9a99"
       stroke-linecap="round"
       stroke-linejoin="round"
       stroke-width="0.9585"
       id="path31528-9-9"
       style="fill:#ffffff;fill-opacity:1;stroke:#000000;stroke-width:1.00001;stroke-linecap:butt;stroke-miterlimit:4;stroke-dasharray:none;stroke-opacity:1"
       sodipodi:nodetypes="cccccssccccsccccccc" />
    <path
       d="m 47.788377,166.05666 c 1.978196,1.1585 4.42159,-3.92557 5.991169,-5.67744"
       fill="none"
       stroke="#9a9a99"
       stroke-linecap="round"
       stroke-linejoin="round"
       stroke-width="0.9585"
       id="path31530-3-9"
       style="fill:none;stroke:#000000;stroke-width:1.00001;stroke-linecap:butt;stroke-miterlimit:4;stroke-dasharray:none;stroke-opacity:1"
       sodipodi:nodetypes="cc" />
    <path
       d="m 55.857768,171.0463 c -1.47478,1.99516 -4.308859,-2.82609 -6.011869,-5.51474"
       fill="none"
       stroke="#9a9a99"
       stroke-linecap="round"
       stroke-linejoin="round"
       stroke-width="0.9585"
       id="path31532-6-4"
       style="fill:none;stroke:#000000;stroke-width:1.00001;stroke-linecap:butt;stroke-miterlimit:4;stroke-dasharray:none;stroke-opacity:1"
       sodipodi:nodetypes="cc" />
    <path
       d="m 51.835974,73.237313 c -0.412987,3.840373 -3.497789,5.594184 -5.904511,6.092249 -0.78716,3.143265 1.179861,6.636915 1.154799,8.310738 -2.956087,3.674257 -0.06988,3.476167 1.319427,6.670319 -3.239715,3.001012 -0.200139,4.407719 1.261725,6.764271 -1.550156,3.96176 0.955771,3.38557 2.893292,5.852 -1.224504,1.43801 0.01633,4.79544 1.806083,5.83801 -1.27399,2.07192 -0.394131,3.11539 0.693484,4.54151 0.158114,2.22471 0.587378,4.19922 2.925419,4.58862 0.599973,3.37958 2.567534,2.91578 3.345289,3.91642 0.539284,3.95458 2.711063,5.66015 4.50606,4.64827 0.352599,2.71656 2.121423,4.85264 4.986569,3.7797 1.381942,4.21304 4.930897,4.65412 7.171561,3.62841 1.353632,1.80933 3.657255,2.86005 5.786767,2.42596 2.02997,1.77134 4.768656,2.16614 7.016404,1.3591 1.580031,0.29025 1.171934,2.23195 4.964078,0.65213 1.817026,1.92198 3.658997,0.907 5.51977,0.47637 0.64505,1.83213 2.9895,1.75629 6.17698,0.20776 4.94685,2.29801 4.55486,0.11828 6.46393,-0.17649 2.37562,1.608 3.81934,2.04868 7.13854,-0.70941 3.27988,2.10593 2.95716,0.0198 5.74782,-1.00926 2.53033,0.39357 4.54247,1.07094 5.26209,-1.31078 3.09596,0.74964 4.32406,-0.4295 5.42701,-1.79147 4.50825,-0.13134 4.29474,-1.283 5.36865,-2.27852 3.18977,0.1513 4.57047,0.29987 6.70048,-3.14801 -0.35763,1.7261 1.02189,3.61844 2.75994,2.88542 1.72378,4.13713 3.88552,2.76975 5.76698,3.2118 0.90431,4.52174 2.99352,2.32409 4.97426,3.48708 -0.44001,3.12057 3.30907,2.84731 4.41797,4.09373 -0.15147,2.12214 1.50929,4.21257 2.94151,6.17197 0.53124,4.34461 0.14012,13.32268 -0.4596,16.58897 -0.58505,3.18589 -1.45528,5.57325 -2.86155,7.96084 -1.12463,1.9095 -3.21712,3.49718 -2.75553,5.73175 -1.22864,1.76488 -7.41533,6.02638 -5.73133,9.22248 h 11.4544 c 3.07628,0 2.38474,-6.6438 2.43758,-10.28367 2.08233,0.71425 5.39765,0.3481 4.98119,-3.60901 -0.38951,-3.70103 0.86744,-20.35751 2.75672,-24.38891 1.36707,-2.9172 1.96175,-4.18388 1.96175,-5.88509 0,-1.51261 -2.167,-3.1272 -3.83598,-6.36732 1.31662,-2.47597 -1.65589,-4.34129 -3.00952,-5.74056 0.61684,-2.19137 -1.0766,-4.3079 -2.6035,-6.48067 2.57439,-3.24323 -0.61128,-3.66696 -1.15975,-5.35044 1.55253,-2.3596 0.48768,-3.474 -0.19105,-4.86535 1.77002,-1.97373 1.81793,-3.64207 0.0418,-4.99307 1.86157,-0.5832 1.99453,-2.91469 0.091,-6.64776 0.92736,-1.84498 1.45113,-3.85073 -0.85339,-6.18104 0.94335,-2.85431 -0.5439,-4.612927 -2.79093,-6.03382 -0.0754,-2.718794 -1.51224,-4.046176 -4.3143,-3.997975 -1.12148,-1.010118 -0.7263,-3.743778 -4.90185,-2.211542 -1.75087,-3.093295 -4.5467,-2.496638 -6.2656,-1.497644 -2.97265,-2.294055 -4.75826,-1.067956 -5.69401,-0.28387 -1.9222,-0.532518 -3.23444,-3.59415 -6.58954,-1.45649 -1.96544,-0.633491 -3.8816,-1.492657 -5.81205,-0.09994 -1.65497,-0.720846 -2.18076,-1.393308 -3.86371,-1.393308 -1.09526,0 -2.13297,0.710133 -2.74528,1.699437 -2.62353,-0.885649 -4.04727,-1.255224 -5.52049,0.115239 -1.29447,-1.273289 -3.8895,-1.258713 -4.57446,0.148289 -1.20594,-0.881328 -1.97626,-2.540321 -5.93278,-0.247321 -1.90839,-0.454567 -2.60567,-2.576918 -7.07021,1.36238 -1.81005,-1.12096 -3.01688,-2.223769 -5.435813,0.645428 -1.239659,-1.427156 -3.992139,-1.447308 -5.805839,-0.755371 -0.686331,-0.739481 -3.350179,-2.888614 -5.711049,-0.420478 -1.198795,-2.657053 -3.391721,-2.392225 -5.631157,-2.177346 -0.756105,-2.748448 -3.469729,-4.663749 -4.075471,-5.074572 0.582903,-3.501267 -1.996576,-4.631786 -4.248944,-7.015911 0.734986,-3.30136 -1.876389,-4.923561 -3.935035,-6.632547 0.605684,-3.922557 -2.348219,-7.321556 -4.000605,-10.887764 -1.61386,-5.462516 -6.262347,-5.237277 -8.69968,-5.815019 -1.230089,-2.345714 -4.166854,-3.630783 -6.828681,-0.974725 -1.192,-1.743935 -4.260891,-2.3492 -5.476709,0.0709 -3.225883,-1.439334 -5.131622,-0.07727 -4.979909,1.721154 -2.559647,-0.05586 -3.746041,0.886664 -4.936059,2.458219 -2.512915,3.318584 1.734706,5.223035 4.720466,4.824332 0.512501,1.206246 -0.288412,5.124483 4.300846,2.858874 -0.465499,2.416571 -0.779437,6.058091 2.460655,5.979251"
       fill="#e3e4e5"
       stroke="#9a9a99"
       stroke-linecap="round"
       stroke-linejoin="round"
       stroke-width="0.9585"
       id="path31536-8-1"
       style="fill:#ffffff;fill-opacity:1;stroke:#000000;stroke-width:1.00001;stroke-linecap:butt;stroke-linejoin:miter;stroke-miterlimit:4;stroke-dasharray:none;stroke-opacity:1"
       sodipodi:nodetypes="ccccccccccccccccccccccccccccccssccscssscccccccccccccccscccccccccccccccccsccc" />
    <path
       d="m 149.56772,132.56525 c -0.43977,-0.33368 -2.76911,-1.32903 -2.3585,-2.99347 -1.35957,-0.58315 -2.17816,-1.74728 -1.3109,-2.9455 -0.96332,-1.26956 -2.76699,-1.4263 -2.15663,-5.11536 -1.74053,-0.60833 -1.76444,-1.79731 -1.01438,-3.21734 -2.0035,-1.6586 -1.57404,-3.29358 -0.9005,-4.80302"
       fill="none"
       stroke="#9a9a99"
       stroke-linecap="round"
       stroke-linejoin="round"
       stroke-width="0.9585"
       id="path31538-4-8"
       style="fill:none;stroke:#000000;stroke-width:1.00001;stroke-linecap:butt;stroke-miterlimit:4;stroke-dasharray:none;stroke-opacity:1" />
    <path
       d="m 164.35167,182.6968 c 1.27195,2.12287 5.52317,2.48286 8.19223,2.46339"
       fill="none"
       stroke="#9a9a99"
       stroke-linecap="round"
       stroke-linejoin="round"
       stroke-width="0.9585"
       id="path31540-5-5"
       style="fill:none;stroke:#000000;stroke-width:1.00001;stroke-linecap:butt;stroke-miterlimit:4;stroke-dasharray:none;stroke-opacity:1"
       sodipodi:nodetypes="cc" />
    <path
       d="m 163.73603,191.91925 c -2.40075,-0.86804 0.28145,-5.42492 2.1429,-7.92429"
       fill="none"
       stroke="#9a9a99"
       stroke-linecap="round"
       stroke-linejoin="round"
       stroke-width="0.9585"
       id="path31542-6-3"
       style="fill:none;stroke:#000000;stroke-width:1.00001;stroke-linecap:butt;stroke-miterlimit:4;stroke-dasharray:none;stroke-opacity:1"
       sodipodi:nodetypes="cc" />
    <path
       d="m 74.680569,126.40732 c -0.741085,1.26877 -2.31957,2.51056 -0.06292,5.1377 -0.372442,1.88674 -1.614053,4.30934 1.224871,5.33881 -2.003941,1.71082 0.08032,2.33057 1.031817,3.26812 0.180915,1.48694 -1.346682,2.49779 1.681527,4.70885 -0.288779,1.58124 -1.107496,3.21602 1.548562,4.12405 -0.0048,2.60809 0.704637,2.53631 1.141189,3.14426 -0.593091,2.52979 0.331587,3.75923 1.154566,4.34537 0.535041,6.33523 3.345836,13.63337 0.34054,19.17481 -0.994149,1.83312 -3.362115,3.3083 -3.419156,5.58936 -2.521782,3.57365 -6.063285,6.99699 -4.277823,9.47273 l 9.712635,-0.0461 c 2.689073,-0.0128 1.973024,-6.43768 2.75034,-9.9663 1.812152,1.74758 4.614776,0.88792 4.528038,-4.68747 -0.05816,-3.72127 -2.435933,-17.35213 -0.67838,-21.23757 0.666141,-0.54727 2.142716,-0.21328 1.179039,-4.18771 0.355122,-1.07434 2.319812,-1.05414 0.603287,-3.86267 0.897644,-1.63479 2.862064,-3.29515 0.459179,-5.33109 0.35082,-1.55079 1.66467,-1.63204 0.05219,-5.67872 0.455921,-1.29269 2.20523,-2.28095 -0.3214,-3.92888 0.715917,-2.40429 -0.28558,-2.6143 -0.73835,-3.42706"
       fill="#e3e4e5"
       stroke="#9a9a99"
       stroke-linecap="round"
       stroke-linejoin="round"
       stroke-width="0.9585"
       id="path31544-1-6"
       style="fill:#ffffff;fill-opacity:1;stroke:#000000;stroke-width:1.00001;stroke-linecap:butt;stroke-miterlimit:4;stroke-dasharray:none;stroke-opacity:1"
       sodipodi:nodetypes="ccccccccsccsccccccccc" />
    <path
       d="m 79.321565,181.23865 c 0.044,2.29209 5.66144,1.80022 7.97498,2.22489"
       fill="none"
       stroke="#9a9a99"
       stroke-linecap="round"
       stroke-linejoin="round"
       stroke-width="0.9585"
       id="path31546-1-1"
       style="fill:none;stroke:#000000;stroke-width:1.00001;stroke-linecap:butt;stroke-miterlimit:4;stroke-dasharray:none;stroke-opacity:1"
       sodipodi:nodetypes="cc" />
    <path
       d="m 79.276125,190.72611 c -1.97419,-1.16708 0.16226,-5.15043 1.56706,-8.0062"
       fill="none"
       stroke="#9a9a99"
       stroke-linecap="round"
       stroke-linejoin="round"
       stroke-width="0.9585"
       id="path31548-8-6"
       style="fill:none;stroke:#000000;stroke-width:1.00001;stroke-linecap:butt;stroke-miterlimit:4;stroke-dasharray:none;stroke-opacity:1" />
    <path
       d="m 20.691116,71.688744 c -0.234868,0.839885 -2.562906,1.940666 -2.743266,1.356425 -0.171518,-0.556266 -0.105929,-0.963634 0.05957,-1.345208"
       fill="none"
       stroke="#9a9a99"
       stroke-linecap="round"
       stroke-linejoin="round"
       stroke-width="0.9585"
       id="path31554-2-4"
       style="fill:none;stroke:#000000;stroke-width:1.00001;stroke-linecap:butt;stroke-miterlimit:4;stroke-dasharray:none;stroke-opacity:1" />
    <g
       id="g85680"
       transform="matrix(0.966528,0,0,0.966528,4.619595,2.3505863)"
       style="stroke-width:1.03464">
      <path
         d="m 27.167393,60.113079 c 0.192328,2.576463 4.373443,4.282257 6.094174,0.04406"
         fill="none"
         stroke="#9a9a99"
         stroke-linecap="round"
         stroke-linejoin="round"
         stroke-width="0.9585"
         id="path31550-8-8"
         style="fill:none;stroke:#000000;stroke-width:1.03464;stroke-linecap:butt;stroke-miterlimit:4;stroke-dasharray:none;stroke-opacity:1"
         sodipodi:nodetypes="cc" />
      <path
         d="m 34.582078,60.155508 c -4.119792,0.362569 -6.249793,-2.275739 -9.12609,1.399979"
         fill="none"
         stroke="#9a9a99"
         stroke-linecap="round"
         stroke-linejoin="round"
         stroke-width="0.9585"
         id="path31552-5-4"
         style="fill:none;stroke:#000000;stroke-width:1.03464;stroke-linecap:butt;stroke-miterlimit:4;stroke-dasharray:none;stroke-opacity:1" />
      <path
         d="m 28.879947,60.802601 c -0.208247,0.410606 -0.04797,0.918154 0.358227,1.13343 0.40625,0.215014 0.904232,0.05696 1.1124,-0.353459 0.208498,-0.410622 0.04785,-0.918067 -0.358201,-1.133523 -0.406319,-0.215035 -0.904306,-0.05697 -1.112457,0.35353 z"
         stroke="#9a9a99"
         stroke-linecap="round"
         stroke-linejoin="round"
         stroke-width="0.9585"
         id="path31556-1-8"
         style="fill:#000000;fill-opacity:1;stroke:#000000;stroke-width:1.03464;stroke-linecap:butt;stroke-miterlimit:4;stroke-dasharray:none;stroke-opacity:1" />
    </g>
    <path
       d="m 59.97468,55.02902 c 0.246561,4.314963 1.71243,7.569876 0.781926,12.914711 -0.749799,4.305848 -3.233099,7.637706 -5.865111,3.168882 l -4.122521,-6.999601 c -1.8134,-3.07941 1.245372,-8.315468 2.834783,-11.882236"
       style="fill:none;fill-rule:evenodd;stroke:#000000;stroke-width:1.00001;stroke-linecap:butt;stroke-linejoin:round;stroke-miterlimit:4;stroke-dasharray:none;stroke-opacity:1"
       id="path31558-8-5" />
  </g>
  <path
     inkscape:connector-curvature="0"
     style="fill:none;fill-opacity:1;fill-rule:evenodd;stroke:#000000;stroke-width:2;stroke-linecap:butt;stroke-miterlimit:4;stroke-dashoffset:0;stroke-opacity:1"
     id="path4212-0"
     d="m 1,1 3.761095,158.00304 c 2.686489,112.85918 196.651755,112.85918 199.338255,0 L 207.86045,1 Z" />
  <path
     id="path5373-0-1-0"
     style="fill:#ffffff;fill-opacity:1;stroke:#000000;stroke-width:0.999997;stroke-miterlimit:1;stroke-dasharray:none;stroke-dashoffset:4.58;stroke-opacity:1"
     d="m 61.52482,130.8673 -16.252015,23.22031 c -2.234297,-1.15308 -3.380359,-3.10944 -2.10869,-6.0893 l 14.979496,-21.40218 c 0.634496,2.36581 2.088221,2.193 3.18737,3.21532 0.06119,0.3991 0.193839,1.05585 0.193839,1.05585 z"
     sodipodi:nodetypes="cccccc"
     inkscape:transform-center-x="-62.054346"
     inkscape:transform-center-y="-85.481075" />
</svg>
