<?xml version="1.0" encoding="UTF-8"?>
<svg version="1.1" viewBox="0 0 410 490" xmlns="http://www.w3.org/2000/svg"><path d="m5,5v280a200,200 0 0,0 400,0V5z" fill="#fff" stroke="#000" stroke-width="8"/><g transform="matrix(.66987 0 0 .66987 3.0348 3.0189)"><path transform="matrix(1.4928 0 0 1.4928 -4.5304 -4.5068)" d="m5 5v280a200 200 0 0 0 200 200v-480h-200z" fill="#0092dd"/><path transform="matrix(1.4928 0 0 1.4928 -4.5304 -4.5068)" d="m205 4.0234v478.7h1.3945c19.196-315.2 178.46-455.65 199.57-478.7h-200.96z" stroke-width=".66987"/><path transform="matrix(1.4928 0 0 1.4928 -4.5304 -4.5068)" d="m4.0391 4.0234c21.104 23.052 180.36 163.51 199.56 478.7h1.4004v-478.7h-200.96z" fill="#fd0" stroke="#000" stroke-width="3"/></g><g stroke="#000" stroke-linecap="round" stroke-linejoin="round"><polygon transform="matrix(.65008 0 0 .65008 6.5111 -6.4852)" points="64.446 582.51 207.95 582.51 176.59 393.45 95.804 393.45" fill="#fff" stroke-width="2.75"/><g stroke-width="1.7877"><path d="m133.4 238.58c-1.0369-10.019-4.0494-36.549-4.0494-36.549h-12.881v13.399h-14.512v-13.399h-13.821v13.399h-14.512v-13.399h-12.881s-3.0118 26.53-4.0487 36.549c-1.0362 10.02 1.3821 15.894 16.585 15.894h21.767 21.767c15.202 0 17.621-5.8735 16.585-15.894z" fill="#fff"/><path d="m95.05 279.25c-4.5798 0-8.2924 3.7133-8.2924 8.2924v23.593h16.585v-23.593c0-4.5792-3.7126-8.2924-8.2924-8.2924z"/><path d="m147.7 352.91c-12.32 0-17.328 8.9139-17.328 8.9139-6.5691-8.1631-17.703-15.203-35.132-15.203-17.428 0-28.561 7.0397-35.132 15.203 0 0-5.0076-8.9139-17.328-8.9139-9.7142 0-17.23 8.1819-19.005 19.542 13.268 29.423 33.581 54.955 58.767 74.454 4.4498 1.5329 8.7416 2.3826 12.697 2.3826 26.973 0 69.496-39.219 71.761-68.833 1.1721-15.318-7.4239-27.545-19.301-27.545z" fill="#3b8428"/></g></g><g fill="none" stroke="#000"><path d="m130.37 361.83c5.6498 7.0202 7.9238 14.871 7.9238 19.79" stroke-linecap="round" stroke-linejoin="round" stroke-width="1.7877"/><path d="m60.108 361.83c-5.6499 7.0202-7.9238 14.871-7.9238 19.79" stroke-linecap="round" stroke-linejoin="round" stroke-width="1.7877"/><path d="m5,5v280a200,200 0 0,0 400,0V5z" stroke-width="8"/></g><g stroke="#000" stroke-linecap="round" stroke-linejoin="round" stroke-width="1.7877"><path d="m361.41 351.79c-12.32 0-17.328 8.9139-17.328 8.9139-6.5697-8.1631-17.703-15.203-35.131-15.203-17.429 0-28.563 7.0397-35.132 15.203 0 0-5.0069-8.9139-17.327-8.9139-11.878 0-20.473 12.228-19.301 27.545 2.2649 29.614 44.788 68.833 71.761 68.833 3.9564 0 8.2482-0.84966 12.697-2.3826 25.187-19.499 45.499-45.032 58.767-74.454-1.7754-11.361-9.291-19.542-19.005-19.542z" fill="#3b8428"/><path d="m272.7 361.83c-5.6492 7.0202-7.9238 14.871-7.9238 19.79" fill="none"/><path d="m342.96 361.83c5.6498 7.0202 7.9238 14.871 7.9238 19.79" fill="none"/><path d="m267.56 270.84s-8.1085 1.4887-13.569 7.2809c-5.4613 5.7922-7.5097 15.63-0.16577 21.845 8.6045 7.2809 23.168-0.99267 23.333-15.059 0.0813-6.9591-1.6558-16.052-9.5984-14.066z" fill="#e20909"/></g><g fill="#f00000" stroke="#000" stroke-linecap="round" stroke-linejoin="round" stroke-width="1.7877"><path d="m375.56 197.5s2.8122-11.953-8.0857-11.953c-7.0306 0-10.546 8.0857-10.546 15.469 0 13.273 7.8484 19.185 18.487 34.81 10.135 14.885 12.098 40.856 12.098 62.57 0 21.093-5.9762 54.49-42.186 54.49l-0.35169-8.7891s9.8435 2.4606 15.468-2.1095c5.6252-4.5701 9.8442-24.961 3.1639-42.538-6.6789-17.578-25.312-36.21-34.452-52.03-9.1401-15.82-18.746-41.559-2.4606-71.717 9.4925-17.578 37.265-23.554 51.326-11.25 14.063 12.305 3.868 29.883-2.4606 33.047z"/><path d="m266.46 301.13c7.4694-2.4515 10.307 2.5379 16.987 7.4603 6.6796 4.9211 8.7332 1.0167 8.7332 1.0167-3.4259 4.964-4.4258 11.618-3.108 17.264 1.3951 5.9794 8.8665 16.848 8.8665 16.848-6.2291-0.34585-8.6019 2.2246-10.975 4.5974-3.164 3.164-8.7891 5.9762-8.7891 9.4925 0 3.515 2.8122 4.5694 2.8122 4.5694 2.1095 3.1639 4.9218 1.4061 4.9218 1.4061s8.0857-2.4606 9.1402-7.7334c1.0551-5.2735 7.0313-4.2184 20.39-0.3517 13.359 3.8667 24.961 4.2184 30.585 2.1095 5.6245-2.1095 2.8122-7.734 2.8122-9.1408 0-1.4068 9.4925-7.734 9.4925-22.148 0-30.586-20.039-47.812-32.695-54.139-12.656-6.3279-12.656-16.874-14.414-25.663-1.7572-8.7898-8.8606-11.674-8.8606-11.674 6.0002-6.439 4.8899-13.921 4.2912-19.615-0.70338-6.6796-3.1639-15.82-3.1639-15.82-0.35169 8.0857-9.1408 16.523-13.008 19.336 0 0-2.4177-12.138-9.8487-16.712 0 0 2.859 10.577 0.28668 16.578-2.573 6.0028-5.9521 9.9365-5.9521 15.653-1.8384 1.0174-3.6405 2.4495-5.0453 4.4869-1.9762 2.8675-5.1038 7.7457-5.1038 17.129 0 3.7529-2.376 5.6297-3.3772 7.0053-0.80545 1.1077-0.27433 4.9296 1.8878 4.455 0 0 2.2402 6.4293 6.7439 6.3038 4.5038-0.12546 4.1293-2.7511 7.6313-3.0014 2.1888-0.15667 5.9905 1.6902 10.978-0.29189 0 0 1.0557 0.86851-3.2218 6.6724-1.7513 2.376-2.7524 5.5042-0.87631 8.256 0 0-1.4328 4.2879 1.4451 6.0392-0.46026 0.94717-0.86981 2.0159-1.1942 3.2179 0 0-4.5688-2.1056-7.8751-5.1109-3.3063-3.0053-12.924-10.52-15.229-8.3158-0.3647 0.34844-0.54737 0.83535-0.31789 1.3067 0 0-2.8883-1.9073-4.2905 0.39655-0.4336 0.71249-0.13002 1.5966 0.62343 2.588 0 0-2.2265-0.88476-3.2283 0.51747-0.82366 1.1526-1.0232 2.5184 0.16967 3.9505 0 0-1.4588-1.0076-2.7609 0.99592-1.3015 2.0036 3.7549 6.2044 7.3622 8.1078 3.6066 1.9034 4.704 2.768 7.175 1.9574z"/></g><g fill="none" stroke="#000" stroke-linecap="round" stroke-linejoin="round" stroke-width="1.7877"><path d="m374.15 177.82s-7.6514-15.267-23.554-8.7891c-9.4925 3.8667-26.016 18.632-21.796 42.186"/><path d="m360.09 178.52s-12.656-0.35104-19.335 12.656c-6.6796 13.008-3.8673 34.101 13.007 61.873"/><path d="m347.43 205.94s-2.1095 12.305 8.0857 32.695c10.195 20.39 22.499 39.725 22.499 63.28"/><path d="m254.69 290.07c1.2462 1.4945 3.8816 3.6482 8.9477 6.7699"/><path d="m257.75 285.61c1.6844 2.2168 5.6167 4.9699 8.5941 7.5305"/><path d="m261.41 282.62c1.1201 2.3006 7.4317 6.6081 7.4317 6.6081"/><path d="m284.59 285.48s0.87631-3.6281 3.0027-5.0037c2.1264-1.3762 1.7513-3.0027 1.7513-3.0027"/><path d="m288.68 270.56c2.9923-1.1896 6.4104-3.7588 10.164-8.9659"/><path d="m263.33 267.54c0.52461-0.11442 1.1448-0.48171 1.8644-1.202"/><path d="m284.51 235.82s-0.22038-1.5648-0.10921-3.8147c0.18722-3.8147 1.3236-9.5972 6.0848-13.059"/><path d="m292.18 309.61c2.4339-3.5286 6.0919-6.2024 11.014-7.0566 1.0895-0.18853 2.2415-0.28799 3.4558-0.28799 11.601 0 22.499 9.1408 24.256 17.226"/><path d="m297.94 343.72c2.0757 0.11506 4.5811 0.55517 7.6566 1.4334 12.305 3.5156 23.554 4.5701 23.554 4.5701"/><path d="m302.36 235.05c-1.0395 1.1155-2.2902 2.1986-3.7952 3.2361"/><path d="m308.41 290.31s-0.64293 6.6165-5.2136 12.241"/><path d="m284.4 232.01s-4.8561-0.0702-9.4294 2.4606"/><path d="m292.72 284.73s-4.1326 1.5277-6.6874 6.7901"/><path d="m287.25 352.09s-7.5864 4.665-6.2629 10.291"/><path d="m294.7 349.11s-2.9312 3.7113-5.4126 5.8637c-2.482 2.1518-4.9315 4.1865-3.3746 8.8125"/><path d="m292.41 234.15s-1.7487-6.7017 3.3505-11.51c5.0999-4.808 5.6817-7.4304 5.6817-7.4304s1.1662 7.4304-2.1849 12.675"/></g><path d="m269.82 255.57s3.1061-1.8579 5.0992-4.5161c2.1849-2.9137 6.7017-1.7474 10.781 0.87436 0 0-2.0276 5.3001-6.1186 6.1186-5.0999 1.02-6.7023-2.3305-9.7616-2.4768z" fill="#fff" stroke="#000" stroke-linecap="round" stroke-linejoin="round" stroke-width="1.7877"/><path d="m276.55 249.76c-0.62408 0.27693-1.1766 0.69558-1.6272 1.2956-0.44465 0.59287-0.94457 1.1428-1.4529 1.6447-0.12351 0.57858-0.19437 1.2111-0.19437 1.8742 0 0.91726 0.13326 1.7741 0.36144 2.5119 1.1058 0.59287 2.3474 1.1324 4.0351 1.1487 0.52136-0.90946 0.8503-2.2103 0.8503-3.6606-6.5e-4 -2.3195-0.83925-4.2639-1.9723-4.8145zm0.26523 4.977c-0.24833 0-0.44856-0.55517-0.44856-1.2397 0-0.68453 0.20088-1.239 0.44856-1.239s0.44856 0.55517 0.44856 1.239c0 0.68519-0.20088 1.2397-0.44856 1.2397z" stroke-width=".65008"/><g transform="matrix(.68941 0 0 .68941 -2.8582 -18.588)" stroke="#270202" stroke-linecap="round" stroke-linejoin="round" stroke-width="2.75"><path d="m388.69 265.41v-37.172c0-14.236-13.013-25.776-29.064-25.776v-36.464c0-14.236-13.013-25.776-29.064-25.776v-34.854c0-14.236-13.013-25.776-29.064-25.776-16.053 0-29.064 11.541-29.064 25.776v34.854c-16.053 0-29.064 11.54-29.064 25.776v36.465c-16.052-1e-3 -29.064 11.539-29.064 25.775v37.172z" fill="#3b8428"/><g fill="none"><line x1="272.44" x2="272.44" y1="265.41" y2="228.24"/><line x1="330.56" x2="330.56" y1="228.24" y2="265.41"/><path d="m359.63 202.46c-16.052 0-29.064 11.54-29.064 25.776 0-14.236-13.013-25.776-29.064-25.776s-29.064 11.54-29.064 25.776c0-14.236-13.013-25.776-29.064-25.776"/><line x1="301.5" x2="301.5" y1="202.46" y2="166"/><path d="m330.56 140.22c-16.052 0-29.064 11.54-29.064 25.776 0-14.236-13.013-25.776-29.064-25.776"/></g></g></svg>
