<?xml version="1.0" encoding="UTF-8" standalone="no"?>
<!-- Created with Inkscape (http://www.inkscape.org/) -->

<svg
   xmlns:dc="http://purl.org/dc/elements/1.1/"
   xmlns:cc="http://creativecommons.org/ns#"
   xmlns:rdf="http://www.w3.org/1999/02/22-rdf-syntax-ns#"
   xmlns:svg="http://www.w3.org/2000/svg"
   xmlns="http://www.w3.org/2000/svg"
   xmlns:sodipodi="http://sodipodi.sourceforge.net/DTD/sodipodi-0.dtd"
   xmlns:inkscape="http://www.inkscape.org/namespaces/inkscape"
   version="1.0"
   width="208.86046"
   height="244.65999"
   id="svg2780"
   inkscape:version="0.92.4 (5da689c313, 2019-01-14)"
   sodipodi:docname="Riedholz-blazon.svg">
  <metadata
     id="metadata27">
    <rdf:RDF>
      <cc:Work
         rdf:about="">
        <dc:format>image/svg+xml</dc:format>
        <dc:type
           rdf:resource="http://purl.org/dc/dcmitype/StillImage" />
        <dc:title></dc:title>
      </cc:Work>
    </rdf:RDF>
  </metadata>
  <sodipodi:namedview
     pagecolor="#ffffff"
     bordercolor="#666666"
     borderopacity="1"
     objecttolerance="10"
     gridtolerance="10"
     guidetolerance="10"
     inkscape:pageopacity="0"
     inkscape:pageshadow="2"
     inkscape:window-width="3259"
     inkscape:window-height="1417"
     id="namedview25"
     showgrid="false"
     inkscape:zoom="2.8284271"
     inkscape:cx="5.0928517"
     inkscape:cy="63.769009"
     inkscape:window-x="-8"
     inkscape:window-y="-8"
     inkscape:window-maximized="1"
     inkscape:current-layer="svg2780"
     inkscape:measure-start="104.255,149.787"
     inkscape:measure-end="104.255,126.383"
     showguides="true"
     inkscape:object-paths="true"
     inkscape:snap-intersection-paths="true"
     inkscape:snap-global="true" />
  <defs
     id="defs2782" />
  <path
     inkscape:connector-curvature="0"
     style="fill:#feeb00;fill-opacity:1;fill-rule:evenodd;stroke:#000000;stroke-width:1.99999988;stroke-linecap:butt;stroke-miterlimit:4;stroke-dashoffset:0;stroke-opacity:1"
     id="path4212"
     d="m 1,1 3.761095,158.00304 c 2.686489,112.85918 196.651755,112.85918 199.338255,0 L 207.86045,1 Z" />
  <g
     id="g8710"
     transform="matrix(1.0271602,0,0,1.0268522,-2.8363446,-1.9015598)"
     style="stroke-width:0.97370398">
    <path
       sodipodi:nodetypes="csssccccscsscsscsccscsssccc"
       inkscape:connector-curvature="0"
       d="m 96.11048,150.40999 v 36.125 c 0,9.75289 -3.39948,13.51868 -12.624999,11.625 -11.77049,-2.41608 -19.00585,0.0859 -23.500005,5.375 -2.0721,2.43862 -4.45915,3.82828 -6.75,5.5 4.21928,-0.29129 8.40487,-0.87694 12.750005,-2.625 4.36978,-1.75798 8.19619,-1.35134 11.5,0.375 1.74663,0.91266 5.16491,1.74456 7.0468,2.46339 -2.25657,1.96887 -5.76489,1.77199 -7.83894,2.42359 -5.14925,1.61773 -6.22651,6.82056 -5.95786,12.86302 3.03321,-3.20102 6.30401,-5.57775 10.625,-6 6.14103,-0.60011 11.342399,-2.2338 14.749999,-6 2.06203,-2.27903 5.7108,-2.875 8.31976,-2.875 2.60896,0 6.25773,0.59597 8.31976,2.875 3.4076,3.7662 8.60897,5.39989 14.75,6 4.32099,0.42225 7.59179,2.79898 10.625,6 0.26865,-6.04246 -0.80861,-11.24529 -5.95786,-12.86302 -2.07405,-0.6516 -5.58237,-0.45472 -7.83894,-2.42359 1.88189,-0.71883 5.30017,-1.55073 7.0468,-2.46339 3.30381,-1.72634 7.13022,-2.13298 11.5,-0.375 4.34513,1.74806 8.53072,2.33371 12.75,2.625 -2.29085,-1.67172 -4.6779,-3.06138 -6.75,-5.5 -4.49415,-5.2891 -11.72951,-7.79108 -23.5,-5.375 -9.22552,1.89368 -12.625,-1.87211 -12.625,-11.625 v -36.125 h -8.31976 z"
       style="opacity:1;fill:#009645;fill-opacity:1;stroke:#000000;stroke-width:0.97523731;stroke-miterlimit:4;stroke-dasharray:none;stroke-dashoffset:4.57999992;stroke-opacity:1"
       id="path8659-9" />
    <path
       sodipodi:nodetypes="ccccccccccccccccccccccccccccccccccccccc"
       inkscape:connector-curvature="0"
       d="m 126.75888,169.82992 c -3.18328,-4.32874 -5.48941,-8.45242 -6.57469,-12.78116 9.30176,7.93292 27.15984,14.21137 40.41005,14.22817 -19.38262,-9.52158 -31.31695,-24.42247 -42.33834,-39.98272 5.47887,3.7949 10.96117,7.2987 18.0566,8.55328 -1.34896,-2.01823 -2.55511,-3.96941 -3.4375,-6.6875 4.74304,2.64342 9.69263,4.0475 14.90691,3.86348 -16.11964,-10.39295 -24.94903,-23.93111 -31.81409,-34.3804 4.96414,3.28814 9.45174,5.6933 13.59284,7.26248 -1.3822,-2.09308 -2.25078,-3.77398 -3.17938,-5.95895 2.74764,1.95501 6.6712,3.29454 10.99896,3.25364 -10.39224,-8.956768 -16.85522,-18.046658 -23.31917,-28.389883 4.79845,3.211391 9.77359,3.882532 15.39674,4.030752 -7.49022,-6.791993 -12.67694,-15.43815 -17.12746,-23.165435 3.52796,1.127495 6.84329,2.300684 10.68061,1.955299 -6.28612,-6.748111 -9.88834,-14.167198 -12.41962,-21.854019 2.10569,0.964563 4.40265,1.450952 6.74175,1.83199 -7.2095,-7.641596 -7.91133,-16.995738 -11.0903,-25.698001 -0.41874,-1.134193 -0.98218,-2.165032 -1.81255,-3.005204 -0.83037,0.840172 -1.39381,1.871011 -1.81255,3.005204 -3.17897,8.702263 -3.8808,18.056405 -11.0903,25.698001 2.3391,-0.381038 4.63606,-0.867427 6.74175,-1.83199 -2.53128,7.686821 -6.1335,15.105908 -12.41962,21.854019 3.83732,0.345385 7.15265,-0.827804 10.68061,-1.955299 -4.45052,7.727285 -9.63724,16.373442 -17.127462,23.165435 5.623152,-0.14822 10.598292,-0.819361 15.396742,-4.030752 -6.46395,10.343225 -12.92693,19.433115 -23.319172,28.389883 4.32776,0.0409 8.25132,-1.29863 10.998962,-3.25364 -0.9286,2.18497 -1.79718,3.86587 -3.179382,5.95895 4.141102,-1.56918 8.628702,-3.97434 13.592842,-7.26248 -6.86506,10.44929 -15.694452,23.98745 -31.81409,34.3804 5.21428,0.18402 10.163868,-1.22006 14.906908,-3.86348 -0.88239,2.71809 -2.08854,4.66927 -3.4375,6.6875 7.09543,-1.25458 12.577732,-4.75838 18.056602,-8.55328 -11.021392,15.56025 -22.95572,30.46114 -42.33834,39.98272 13.25021,-0.0168 31.108288,-6.29525 40.41005,-14.22817 -1.08528,4.32874 -3.39141,8.45242 -6.57469,12.78116 7.88947,-2.51134 17.08114,-7.16716 22.32864,-13.91993 5.2475,6.75277 14.43917,11.40859 22.32864,13.91993 z"
       style="opacity:1;fill:#009645;fill-opacity:1;stroke:#000000;stroke-width:0.97565138;stroke-miterlimit:6;stroke-dasharray:none;stroke-dashoffset:4.57999992;stroke-opacity:1"
       id="path8657-9" />
  </g>
</svg>
