<?xml version="1.0" encoding="UTF-8" standalone="no"?>
<svg
   xmlns:dc="http://purl.org/dc/elements/1.1/"
   xmlns:cc="http://creativecommons.org/ns#"
   xmlns:rdf="http://www.w3.org/1999/02/22-rdf-syntax-ns#"
   xmlns:svg="http://www.w3.org/2000/svg"
   xmlns="http://www.w3.org/2000/svg"
   xmlns:sodipodi="http://sodipodi.sourceforge.net/DTD/sodipodi-0.dtd"
   xmlns:inkscape="http://www.inkscape.org/namespaces/inkscape"
   viewBox="0 0 120 136"
   version="1.1"
   id="svg28"
   sodipodi:docname="CHE Selzach COA.svg"
   inkscape:version="0.92.3 (2405546, 2018-03-11)">
  <metadata
     id="metadata34">
    <rdf:RDF>
      <cc:Work
         rdf:about="">
        <dc:format>image/svg+xml</dc:format>
        <dc:type
           rdf:resource="http://purl.org/dc/dcmitype/StillImage" />
      </cc:Work>
    </rdf:RDF>
  </metadata>
  <defs
     id="defs32" />
  <sodipodi:namedview
     pagecolor="#ffffff"
     bordercolor="#666666"
     borderopacity="1"
     objecttolerance="10"
     gridtolerance="10"
     guidetolerance="10"
     inkscape:pageopacity="0"
     inkscape:pageshadow="2"
     inkscape:window-width="1920"
     inkscape:window-height="1017"
     id="namedview30"
     showgrid="false"
     inkscape:zoom="2.8284271"
     inkscape:cx="117.79718"
     inkscape:cy="-0.091200978"
     inkscape:window-x="-8"
     inkscape:window-y="-8"
     inkscape:window-maximized="1"
     inkscape:current-layer="svg28" />
  <title
     id="title2">salzstreuer</title>
  <path
     d="M 1.5041553,1.5082595 V 77.231422 c 1.7158788,42.416728 38.5975207,57.414408 58.4958637,57.267488 23.154613,0 57.257721,-17.02547 58.495871,-57.042181 V 1.5082595 Z"
     style="fill:#f00000;fill-opacity:1;stroke:#000000;stroke-width:2.99999976;stroke-miterlimit:4;stroke-dasharray:none;stroke-opacity:1"
     id="path4"
     inkscape:connector-curvature="0" />
  <path
     d="M 86.391403,71.31463 A 81.738221,82.129754 0 0 1 79.976358,53.936508 c 0.97493,-0.489799 3.197772,-1.518381 3.168524,-3.213091 A 3.4902531,3.5069718 0 0 0 81.360758,48.362578 C 82.33569,47.833593 83.04739,47.294812 82.988895,46.099699 82.871902,43.954372 80.853794,43.454776 78.79669,43.425388 V 29.191786 a 2.3495839,2.3608386 0 0 0 0.97493,-3.683301 c 2.330086,-1.087356 2.837051,-5.250662 0.06824,-6.230263 -3.987466,-5.955973 -12.800843,-8.424569 -19.371877,-8.316812 -6.571036,0.107755 -14.72146,1.596749 -19.293886,8.003341 a 3.6169943,3.6343199 0 0 0 -0.380223,6.259651 2.8175508,2.831047 0 0 0 0.877438,3.967384 v 14.439319 c -1.949858,0.29388 -4.02646,0.19592 -4.02646,2.341247 a 2.7688043,2.782067 0 0 0 1.676881,2.605738 c -0.750698,0.450616 -1.598887,1.234297 -1.55989,2.066958 0,1.577159 2.388581,2.537167 3.285518,3.026968 A 70.370524,70.707604 0 0 1 34.720058,71.618308 H 28.119774 L 20.81754,99.468364 v 11.755216 h 79.39839 V 99.527143 L 92.357982,71.31463 Z"
     style="fill:#ffffff;stroke-width:0.99999994"
     id="path6"
     inkscape:connector-curvature="0" />
  <path
     d="M 100.59615,99.576116 92.689458,71.167691 H 86.537643 A 93.291153,93.738025 0 0 1 80.259087,53.985488 c 0.974931,-0.4898 3.197774,-1.586953 3.158776,-3.281664 A 2.9247931,2.9388032 0 0 0 81.877472,48.529111 2.8273001,2.840843 0 0 0 83.398365,45.95276 C 83.310621,43.905393 81.34126,43.219672 79.264656,43.229469 V 29.260358 c 1.949862,-0.979602 1.803623,-2.801659 0.974932,-3.663708 a 3.7827325,3.8008522 0 0 0 -0.26323,-6.729859 c -3.987469,-5.965772 -12.888591,-8.267833 -19.498623,-8.150283 -6.610032,0.117554 -14.965191,1.733896 -19.498621,8.150283 -2.515321,1.136338 -2.476325,4.682492 -0.224233,6.30863 a 2.9247931,2.9388032 0 0 0 0.828692,4.084937 v 14.008294 c -2.14485,0.166532 -3.899727,0.78368 -4.055714,2.605739 a 2.9247931,2.9388032 0 0 0 1.68663,2.65472 2.5933166,2.6057388 0 0 0 -1.472146,2.027774 c 0,1.586954 2.300838,2.693902 3.197775,3.183702 A 63.117037,63.419373 0 0 1 34.700559,71.1481 H 28.119774 L 20.456816,99.507547 V 111.51746 H 100.59615 Z M 78.728446,28.065245 c -4.591927,3.085743 -13.922017,3.663708 -18.279958,3.663708 -4.357942,0 -13.87327,-0.979603 -18.377451,-3.918406 a 0.97493106,0.97960106 0 0 1 0,-1.616341 c 4.543179,3.134724 13.834272,3.918404 18.377451,3.918404 4.543178,0 13.98051,-0.822865 18.52369,-3.918404 a 1.1991651,1.2049093 0 0 1 -0.243732,1.851447 z m -1.062676,2.037569 v 15.183817 c -3.363512,2.782067 -10.509757,4.290653 -17.139289,4.310245 -5.527858,0 -13.171318,-1.959203 -17.363521,-4.486574 V 29.975466 c 4.318945,2.115938 12.820343,3.360031 17.207534,3.360031 4.552928,0 13.122571,-0.9796 17.295276,-3.252274 z M 42.733991,18.984342 c 3.080781,-5.074333 12.488865,-6.857207 17.548758,-6.857207 5.37187,0.07838 14.078005,1.322462 18.309205,7.337211 0.409471,0.626945 -0.594707,1.724098 -0.97493,2.08655 -3.188026,3.428606 -14.117003,4.271062 -17.197784,4.271062 -2.924794,0 -12.966584,-0.911028 -16.632324,-3.918404 -1.082174,-0.911028 -1.598887,-2.008182 -1.052925,-2.919212 z m -1.56964,1.32246 a 2.9247931,2.9388032 0 0 0 1.091923,2.223697 c 4.211703,3.742076 12.86909,4.692289 18.192214,4.643308 5.323123,-0.04898 15.218674,-1.087356 18.348202,-4.643308 a 3.4317573,3.4481957 0 0 0 1.072424,-1.959202 c 0.974932,0.764088 1.530642,2.556758 -1.072424,4.084935 -4.630922,2.880028 -12.069646,4.045752 -18.348202,4.045752 -6.278557,0 -13.649036,-1.195112 -18.192214,-4.045752 -2.027856,-1.283278 -2.437328,-3.555951 -1.091923,-4.34943 z m -2.291087,25.636161 c 0.06824,-0.754293 0.97493,-1.146132 1.608635,-1.185317 a 3.1977738,3.2130914 0 0 0 1.238163,1.449811 41.112844,41.309777 0 0 0 18.845417,4.800044 c 6.200561,0 12.508365,-1.087356 18.006977,-4.525756 0.497214,-0.391842 1.530642,-1.097155 1.784124,-1.959203 0.399722,-0.06856 1.725628,0.303677 1.637884,1.528177 -0.078,0.979603 -0.974932,1.547771 -1.949861,2.115939 A 39.972173,40.163644 0 0 1 60.545981,53.231195 46.045995,46.266557 0 0 1 40.813376,48.166658 c -1.072424,-0.617149 -2.057105,-1.155929 -1.940112,-2.223695 z m 0.321725,4.672697 a 0.97493106,0.97960106 0 0 1 0.458219,-0.862048 3.6559914,3.6735041 0 0 1 0.643455,-0.411433 15.325916,15.399329 0 0 0 1.394151,0.764089 43.218694,43.425715 0 0 0 18.835667,4.457185 38.578022,38.762814 0 0 0 18.864917,-4.418001 15.862129,15.938109 0 0 0 1.608636,-0.930621 1.7646253,1.773078 0 0 1 0.623956,0.44082 1.1894159,1.1951132 0 0 1 0.42897,0.979602 c -0.07799,0.519188 -0.497214,0.901232 -1.091922,1.30287 -0.263232,0.176326 -0.633706,0.39184 -0.906687,0.548575 -5.147636,2.831049 -12.615609,4.378816 -19.605863,4.378816 a 43.940143,44.150619 0 0 1 -18.972159,-4.32004 c -0.838441,-0.391839 -2.174095,-1.165725 -2.28134,-1.929814 z m 3.022287,3.918406 a 44.495855,44.708992 0 0 0 18.231212,3.849831 42.497245,42.70081 0 0 0 18.348202,-3.849831 c 1.754877,7.249047 3.82173,12.803385 8.862124,22.403475 -8.091929,5.583727 -16.837061,7.738848 -26.986092,7.699664 -10.149033,-0.03919 -18.006977,-2.654719 -27.405312,-7.699664 5.527859,-9.198454 7.750701,-15.9577 8.949866,-22.374088 z m 45.675521,24.15696 v 5.632707 c -8.706134,5.760055 -17.461015,7.836809 -27.356565,7.836809 A 50.745162,50.988236 0 0 1 33.13092,84.451081 v -5.799238 c 9.057109,4.898006 17.217282,7.778033 27.444308,7.660479 14.458229,-0.107755 22.052941,-3.879219 27.317569,-7.621296 z M 98.743781,109.85214 H 22.260438 v -8.93397 H 98.743781 Z M 22.601664,99.076521 29.552922,72.627296 h 4.396938 c 0.116993,0 -1.423399,2.576352 -2.593315,4.506166 v 8.111095 c 10.119784,6.964965 21.311992,8.551918 29.169936,8.551918 10.636499,0 19.498622,-2.076753 29.023699,-8.816411 v -7.699662 a 48.892792,49.126995 0 0 1 -2.41783,-4.69229 h 4.357943 l 7.263236,26.449225 z"
     style="fill:#000000;fill-rule:evenodd;stroke-width:0.99999994"
     id="path8"
     inkscape:connector-curvature="0" />
  <path
     d="m 58.1574,18.935364 c 0,0.626943 1.043176,1.204908 2.398329,1.204908 1.355156,0 2.369083,-0.51919 2.369083,-1.146134 0,-0.626945 -1.101671,-1.204908 -2.398331,-1.204908 -1.296658,0 -2.369081,0.519188 -2.369081,1.146134 z"
     style="fill:#000000;fill-rule:evenodd;stroke-width:0.99999994"
     id="path10"
     inkscape:connector-curvature="0" />
  <path
     d="m 64.231219,16.261052 c 1.247913,-0.205717 2.164348,-0.822865 2.086354,-1.420422 -0.07799,-0.597557 -1.160169,-0.979603 -2.417828,-0.783681 -1.257663,0.19592 -2.154599,0.773885 -2.066855,1.371442 0.08775,0.597556 1.199164,0.940416 2.398329,0.832661 z"
     style="fill:#000000;fill-rule:evenodd;stroke-width:0.99999994"
     id="path12"
     inkscape:connector-curvature="0" />
  <path
     d="m 69.807825,18.337807 c 1.228414,-0.264495 2.1156,-0.930622 2.018107,-1.518383 -0.0975,-0.58776 -1.208913,-0.979602 -2.447076,-0.666128 -1.238162,0.313472 -2.125349,0.871844 -2.008358,1.469401 0.116992,0.597556 1.247912,0.881641 2.437327,0.71511 z"
     style="fill:#000000;fill-rule:evenodd;stroke-width:0.99999994"
     id="path14"
     inkscape:connector-curvature="0" />
  <path
     d="m 70.821753,21.100281 c 0.214486,0.587761 1.325908,0.773885 2.495824,0.509393 1.169917,-0.264494 2.037606,-1.097154 1.881618,-1.684913 -0.15599,-0.587763 -1.27716,-0.822866 -2.486075,-0.460415 -1.208914,0.362453 -2.047355,1.028582 -1.891367,1.635935 z"
     style="fill:#000000;fill-rule:evenodd;stroke-width:0.99999994"
     id="path16"
     inkscape:connector-curvature="0" />
  <path
     d="m 65.020914,21.521509 c -1.316157,0.186124 -2.26184,0.793477 -2.222843,1.420422 0.03899,0.626944 1.160168,0.979602 2.476326,0.891436 1.316156,-0.08816 2.310586,-0.78368 2.222842,-1.410625 -0.08775,-0.626944 -1.179666,-1.028582 -2.476325,-0.901233 z"
     style="fill:#000000;fill-rule:evenodd;stroke-width:0.99999994"
     id="path18"
     inkscape:connector-curvature="0" />
  <path
     d="m 56.734001,16.261052 c 1.199164,0.107755 2.271589,-0.225309 2.398329,-0.832661 0.126742,-0.607354 -0.838441,-1.263686 -2.076602,-1.371442 -1.238162,-0.107757 -2.330085,0.176328 -2.408081,0.783681 -0.07799,0.607352 0.838441,1.214705 2.086354,1.420422 z"
     style="fill:#000000;fill-rule:evenodd;stroke-width:0.99999994"
     id="path20"
     inkscape:connector-curvature="0" />
  <path
     d="m 51.157395,18.337807 c 1.189415,0.166531 2.281339,-0.12735 2.437327,-0.724906 0.155989,-0.597557 -0.779945,-1.302869 -2.018106,-1.459605 -1.238163,-0.156737 -2.330086,0.05877 -2.437328,0.656331 -0.107244,0.597558 0.779944,1.263685 2.018107,1.52818 z"
     style="fill:#000000;fill-rule:evenodd;stroke-width:0.99999994"
     id="path22"
     inkscape:connector-curvature="0" />
  <path
     d="m 47.647641,21.580284 c 1.169919,0.264495 2.28134,0.07838 2.486075,-0.50939 0.204737,-0.587762 -0.653202,-1.361647 -1.83287,-1.635936 -1.179667,-0.274288 -2.330085,-0.127346 -2.486074,0.460414 -0.155988,0.58776 0.623956,1.312664 1.832869,1.684912 z"
     style="fill:#000000;fill-rule:evenodd;stroke-width:0.99999994"
     id="path24"
     inkscape:connector-curvature="0" />
  <path
     d="m 55.681075,23.833367 c 1.316156,0.127348 2.398329,-0.215512 2.486075,-0.891436 0.08774,-0.675926 -0.916436,-1.234298 -2.213094,-1.420422 -1.296658,-0.186124 -2.456827,0.264492 -2.486075,0.901233 -0.02925,0.63674 0.916436,1.283278 2.213094,1.410625 z"
     style="fill:#000000;fill-rule:evenodd;stroke-width:0.99999994"
     id="path26"
     inkscape:connector-curvature="0" />
</svg>
