<?xml version="1.0" encoding="UTF-8"?>
<svg width="408" height="467" viewBox="0 0 408 467" xmlns="http://www.w3.org/2000/svg">
<path d="M4 4.005v258.98c0 110.47 89.543 200.01 200 200.01 110.46 0 200-89.55 200-200.01V4.005z" fill="#fcdb00"/>
<path d="m206.37 17-7.299.002c.05 2.284-.023 8.956-.027 11.24-3.65.055-7.298-.032-10.947.035a274.01 274.01 0 0 0-.018 6.711c3.666.088 7.319-.051 10.984.139 0 2.865.031 11.939-.015 14.805-.055.514.003 1.357-.457 1.707-.986.893-2.08 1.508-2.961 2.545-1.361 1.605-2.2 3.74-2.217 5.851.097 2.38 1.116 4.813 2.814 6.498.83.843 1.981 1.404 2.727 2.315.173 1.116.144 2.273.156 3.402-.02 3.885.309 7.444-.681 11.266-2.074 7.635-6.019 13.9-10.393 20.38-2.31 3.161-4.774 6.184-7.311 9.167-2.71 3.447-5.566 6.766-8.3 10.19-5.247 6.153-10.278 12.484-15.474 18.683-3.152 3.733-6.114 7.624-9.346 11.28-9.7 11.766-19.532 23.475-29.396 35.1-1.344 1.733-2.811 3.356-4.265 4.995-8.099 9.553-16.492 19.273-24.684 28.838-.405.628-1.075 1.104-.317 1.791 3.692 3.919 7.468 7.724 11.21 11.584.615.54.526 1.146.564 1.9-.025 43.963.03 87.956-.03 131.91-.105 1.092.113 2.946-1.138 3.422-1.42.771-3.055 1.202-4.602 1.653-5.145 1.386-10.344 2.271-15.695 1.896-5.764-.345-11.052-2.044-16.412-4.054-8.48-3.172-17.759-3.78-26.58-1.948 35.502 55.714 97.781 92.7 168.74 92.7 70.597 0 132.6-36.614 168.19-91.853-1.624-.515-3.257-.995-4.943-1.342-6.24-1.373-12.743-1.276-18.967.131-4.614 1.125-8.862 3.25-13.484 4.416-7.783 2.234-15.843 1.972-23.697.266-1.98-.472-4.03-.937-5.9-1.75-.624-.316-1.384-.672-1.506-1.443-.173-.961-.15-1.974-.159-2.952.004-25 .025-50 .004-75.006.043-19.105-.06-38.218.067-57.324 2.237-2.288 4.39-4.652 6.64-6.927 1.905-1.977 3.856-3.88 5.622-5.987-3.22-4.222-6.876-8.05-10.242-12.154-2.432-3.034-5.152-5.815-7.55-8.882-9.602-11.196-19.182-22.41-28.608-33.762-7.088-8.37-13.966-16.93-21.07-25.277-8.28-10.117-16.691-20.13-24.887-30.318-4.336-5.023-8.308-10.388-11.742-16.068-2.503-4.345-4.924-9.087-6.045-14-.788-3.33-.434-6.541-.514-10.102.042-1.303-.127-2.808.299-4.051 1.21-1.041 2.538-1.673 3.49-3.022 2.448-3.11 2.616-7.727.194-10.904-1.024-1.445-2.529-2.165-3.721-3.379-.341-3.32-.165-12.965-.123-16.307 3.784.042 7.57.027 11.354-.015.097-2.225.075-4.451.012-6.676-3.797-.089-7.592-.057-11.393-.074-.034-2.288-.07-8.96.048-11.244z"/>
<path d="M204.8 95.674c-.092 3.623.432 7.163 1.047 10.719.64 4.484 1.748 8.794 2.709 13.252 1.226 5.895 2.835 11.671 4.34 17.512 2.2 7.732 4.265 15.495 6.603 23.186 2.288 8.166 4.969 16.198 7.405 24.318 1.462 4.458 2.717 8.965 4.314 13.373 1.252 3.518 2.132 7.104 3.586 10.547 2.149.059 4.288.04 6.437-.016-2.165-6.392-4.402-12.759-6.521-19.164-5.111-15.267-9.82-30.645-14.547-46.027-2.495-8.499-5.09-16.956-7.395-25.51-1.331-4.542-2.841-9.037-4.265-13.555-.923-2.962-2.078-5.988-3.713-8.634zm-4.242.234v.004l.002-.004zm0 .004c-.838 1.276-1.517 2.665-2.069 4.084-3.257 8.343-5.525 17.108-7.964 25.717-1.475 4.888-2.866 9.8-4.303 14.701-.88 3.278-1.814 6.535-2.914 9.746-1.951 6.11-3.767 12.265-5.697 18.38-3.178 9.354-6.107 18.787-9.36 28.116-1.462 3.953-2.77 7.96-4.21 11.92 2.17.038 4.347.06 6.517-.02a57.591 57.591 0 0 0 2.416-6.726c4.205-12.287 7.992-24.768 11.84-37.182 4.323-14.934 8.866-30.063 12.25-45.236 1.664-7.798 3.46-15.436 3.494-23.5zm-36.168 118.27c-.856.021-1.71.092-2.56.201-.115 2.558-.064 5.129-.048 7.686 22.358.055 44.722-.017 67.08.021 4.947-.02 9.903.05 14.85-.06.013-2.57.013-5.135 0-7.705-.876-.064-1.75-.13-2.63-.143-25.553.004-51.14.008-76.692 0zm87.219 1.81v.003c-.611.005-1.22.028-1.826.074-.135 1.694-.01 3.426.209 5.111 3.493.826 7.16.965 10.717 1.475 8.22 1.074 16.399 2.423 24.607 3.615 6.826.8 13.6 2.213 20.447 2.773.113-1.833.126-3.67.084-5.503-8.993-1.08-17.872-2.957-26.855-4.09-7.29-1.003-14.558-2.467-21.895-3.112-1.808-.208-3.656-.36-5.489-.345zm-97.828.03c-1.828.005-3.65.155-5.473.363-7.075.586-13.978 1.908-21.002 2.91-5.613.928-11.249 1.667-16.85 2.758-3.628.691-7.23 1.04-10.875 1.592a93.33 93.33 0 0 0 .08 5.537c10.24-1.146 20.386-3.059 30.588-4.47 4.779-.755 9.585-1.378 14.385-2.01 3.607-.476 7.265-.758 10.83-1.479.181-1.715.187-3.43.149-5.154a31.791 31.791 0 0 0-1.832-.047zm48.943 13.008c-2.992.01-6.051.33-8.908 1.186-3.616 1.31-6.937 3.159-9.465 6.117-3.207 3.51-4.955 8.158-5.035 12.898-.038 3.097-.136 6.226.164 9.31.733-.383 1.478-.821 2.064-1.416 2.954-2.95 6.006-5.807 8.98-8.736 1.096-.994 1.046-2.835 1.383-4.209 1.991-12.476 19.052-12.369 21.393-.88.266 1.145.325 2.387.721 3.495.577 1.332 1.838 2.452 2.883 3.43 1.26 1.13 2.43 2.35 3.652 3.522 1.808 1.69 3.211 3.55 5.432 4.755.08-3.78.303-7.635-.106-11.395-.594-5.372-3.525-10.367-7.882-13.553-4.07-2.848-9.035-4.423-13.998-4.511-.424-.01-.85-.015-1.278-.014zm42.15 2.486v.002a54.252 54.252 0 0 0-3.473.075c-.008 47.784-.022 95.573-.01 143.36 2.36.236 4.638.047 6.955-.391.004-47.65-.009-95.296.004-142.94a93.53 93.53 0 0 0-3.476-.102zm-84.605.008c-1.177.017-2.352.067-3.531.116-.085 47.527-.057 95.069-.028 142.59 2.33.733 4.665.811 7.084.664.025-.59.05-1.18.059-1.77-.004-47.165.016-94.36-.047-141.52a42.222 42.222 0 0 0-3.537-.08zm112.42 8.532c-1.06-.033-2.12.053-3.155.261-3.379.65-6.317 3.023-7.48 6.293 3.704.08 7.019-.216 10.428 1.57 3.687 1.863 5.734 5.856 5.771 9.897-.029 8.853.025 17.704-.046 26.553.038 1.281-.164 2.358.826 3.348a164.5 164.5 0 0 0 8.888 9.334c.152-13.21.03-26.436.118-39.65.063-4.08-.894-8.211-3.47-11.451-2.687-3.705-7.288-6.013-11.88-6.153zm-139.36.006c-1.806.005-3.643.36-5.385.904-6.106 2.17-10.318 8.12-10.479 14.588-.034 11.664.016 23.3-.021 34.973.007 2.267-.071 4.507.123 6.77 2.309-2.209 4.395-4.649 6.636-6.928.974-1.088 2.14-2.159 2.852-3.44.223-1.298.092-2.671.11-3.986.025-8.428-.025-16.858.017-25.285.004-3.738 1.952-7.386 5.23-9.248 3.22-1.858 6.957-1.731 10.543-1.854-.598-1.807-1.459-3.353-3.064-4.449-1.967-1.481-4.24-2.051-6.563-2.045zm69.574.082c-2.113-.022-4.255.84-5.473 2.527-1.395 1.685-1.498 4.29-2.215 6.385 4.947.03 9.895.085 14.842.006-.598-1.998-.808-4.337-1.857-6.149-1.1-1.843-3.184-2.748-5.297-2.77zm61.797 9.935a9.184 9.184 0 0 0-2.23.332c-1.417.552-.895 1.839-1 3.035.012 10.652.046 21.306 0 31.963 4.238-.067 8.495.05 12.733-.11.144-8.509.026-17.024.073-25.536.054-1.888-.351-3.75-1.325-5.38-1.773-2.795-5.006-4.39-8.252-4.304zm-124.43.008c-3.504.072-6.878 2.118-8.367 5.395-.927 1.963-.762 3.86-.77 5.97.072 7.918-.026 15.834.041 23.752 4.218.342 8.488.095 12.723.196.089-11.074-.009-22.156.033-33.234.089-1.007-.37-1.443-1.234-1.805a9.11 9.11 0 0 0-2.426-.273zm63.53 2.72c-3.023.016-6.05.05-9.072.016-.88.072-1.903-.138-2.56.583-2.747 2.604-5.512 5.143-8.045 7.962 12.44.004 24.883.038 37.322-.021-2.84-2.836-5.797-5.547-8.578-8.438-3.02-.113-6.043-.116-9.066-.101zm-25.735 16.82c-1.073.003-2.146.017-3.22.038-.03 7.854-.012 15.71-.017 23.568 18.596-.021 37.192.021 55.783-.03-.088-7.858-.132-15.701-.136-23.563-2.107-.038-4.204 0-6.31.013-.068 5.773.038 11.54-.06 17.313-12.46.106-24.922-.01-37.382.053-1.791.017-3.58 0-5.368-.035-.088-5.773-.026-11.542-.072-17.314a104.134 104.134 0 0 0-3.219-.041zm-44.217 19.144c-.491 0-.979.02-1.463.072-1.146.22-2.13 1.357-2.961 2.12-2.975 3.046-6.022 6.055-8.799 9.283 7.758.193 15.526.022 23.283.064 0-3.797.04-7.596-.011-11.393-1.871-.114-3.738-.16-5.618-.062-1.466.075-2.957-.087-4.43-.084zm127.68.017c-.008 3.84-.099 7.691-.01 11.525 4.424.022 8.85-.016 13.275 0 3.333 0 6.67.117 9.965-.166-2.124-2.3-4.24-4.601-6.477-6.793-1.386-1.373-2.68-3.05-4.344-4.082-.716-.497-1.673-.442-2.511-.484-3.3-.013-6.6.055-9.899 0zm-58.488 15.36c-3.137-.05-6.273.407-9.262 1.445a35.421 35.421 0 0 0-5.422 2.568c-2.208 1.281-3.911 3.056-5.664 4.893-2.431 2.625-4.01 5.749-5.181 9.107a22.013 22.013 0 0 0-1.204 7.125c0 14.702-.003 29.404-.008 44.107 3.098-.56 6.085-1.92 9-3.07-.037-12.7-.006-25.378-.027-38.078-.088-3.447.69-7.012 2.317-10.062 2.149-3.632 5.36-6.633 9.464-7.863 6.57-2.276 14.461-.289 18.822 5.214 2.086 2.465 3.39 5.333 3.95 8.51.463 2.284.27 4.421.29 6.73-.007 9.41-.004 18.824.005 28.233-.004 2.562-.076 5.116.05 7.673 2.81 1.172 5.744 2.338 8.727 2.961.025-5.094.043-10.19-.008-15.285-.164-2.528.044-5.04.023-7.568.008-6.46.01-12.925-.004-19.385-.118-3.034-.024-5.827-.998-8.738-1.812-6.018-5.77-11.282-11.143-14.564-2.528-1.412-5.275-2.675-8.111-3.328a30.3 30.3 0 0 0-5.615-.623zm-.404 14.937c-6.134 0-11.713 5.582-11.713 11.715 0 3.92-.168 1.534-.086 3.557.098 11.368-.134 22.756.066 34.12 5.379-1.37 10.845-2.031 16.377-1.233 2.35.345 6.982 1.5 6.982 1.5l.088.013V330.8c0-6.133-5.58-11.715-11.715-11.715zm78.625 55.635c-4.495-.069-9.012.362-13.312 1.665-3.131.977-6.237 2.022-9.28 3.236-8.866 3.228-18.78 3.72-28.02 2.021-4.729-.796-8.709-2.857-13.272-4.193-2.747-.775-5.388-1.68-8.228-2.088-6.582-1.003-13.464-.706-19.873 1.152-5.723 1.58-10.78 4.174-16.79 5.106-7.239 1.133-14.754.964-21.905-.688-4.383-1.053-8.3-2.832-12.521-4.252-3.616-1.137-7.37-1.884-11.17-1.922-3.413.034-6.738-.067-10.121.532-3.784.535-7.268 1.744-10.846 3.054-3.797 1.538-7.856 3.115-11.918 3.764-8.12 1.766-16.778 1.322-24.818-.68-3.468-.686-6.705-2.055-10.14-2.843-3.737-.906-7.552-1.497-11.378-1.842-2.364-.212-4.65-.007-6.965.242 1.383 1.99 2.77 3.976 4.223 5.912 3.251-.006 6.503.231 9.687.836 6.317 1.125 12.348 3.651 18.77 4.717 5.023.817 10.028 1.21 15.105.691a70.355 70.355 0 0 0 8.582-1.47c3.426-.961 6.794-2.163 10.105-3.465 4.336-1.652 8.732-2.899 13.375-3.27 3.56-.18 7.033-.29 10.564.295 5.263.797 9.764 2.807 14.736 4.496a51.508 51.508 0 0 0 18.12 2.743c5.043.037 10.003-.751 14.845-2.13 2.941-.969 5.857-2.013 8.777-3.033 8.71-2.848 18.372-3.063 27.158-.4 1.56.43 3.119.862 4.627 1.447 4.745 1.816 9.886 3.52 14.96 4.008 4.77.548 9.627.538 14.384-.115 4.711-.56 9.424-2.032 13.84-3.742 5.301-2.002 10.723-3.569 16.445-3.598 7.467-.38 14.376 1.567 21.287 4.154 4.703 1.82 9.486 3.224 14.533 3.658 4.766.527 9.584.493 14.332-.181 3.776-.405 7.33-1.433 11.037-2.33 8.07-2.53 16.384-3.92 24.78-3.156 1.341-1.786 2.62-3.619 3.904-5.45-3.355-.723-6.83-.983-10.232-.94-6.355.254-12.701 1.581-18.752 3.503-9.313 2.642-18.853 3.721-28.443 1.943-8.533-1.319-16.698-6.41-25.711-7.164-1.485-.12-2.98-.2-4.479-.222zm1.986 30.426a49.721 49.721 0 0 0-15.1 2.09c-2.415.788-4.801 1.66-7.178 2.545-9.92 4.117-21.313 4.656-31.662 1.904-4.938-1.335-9.738-3.763-14.748-4.939-6.552-1.77-13.585-1.866-20.26-.783-7.83 1.323-14.623 5.498-22.334 6.535a57.698 57.698 0 0 1-18.02-.15c-5.652-.982-11.2-3.668-16.712-5.354-8.191-2.229-16.86-2.173-25.09-.172-5.208 1.412-10.026 3.819-15.188 5.315-8.01 2.16-16.629 2.066-24.756.353a201.062 201.062 0 0 0 8.75 7.326 56.84 56.84 0 0 0 14.975-1.195c6.178-1.399 11.782-4.408 17.816-6.014 3.468-.83 7.048-1.393 10.617-1.402 5.2-.067 10.288 1.042 15.176 2.74 3.106 1.092 6.104 2.38 9.26 3.325 7.189 2.182 14.552 2.366 21.977 1.62 5.562-.77 10.786-2.543 16.02-4.507 6.658-2.516 14.114-3.697 21.197-2.82 3.767.61 7.508 1.508 11.094 2.832 4.281 1.588 8.739 3.298 13.227 4.154 6.472 1.251 13.223 1.121 19.725.156 5.419-1.02 10.26-3.02 15.393-4.93 4.458-1.428 8.976-2.52 13.688-2.584 6.637-.303 13.08 1.294 19.16 3.848 5.263 2.166 10.495 3.974 16.209 4.441 4.44.389 8.945.297 13.375-.28 3.35-2.682 6.64-5.434 9.809-8.321-3.579.987-7.132 1.916-10.912 2.314-7.358.97-15.111.366-22.148-2.048-5.828-2.162-12.075-4.89-18.27-5.66a50.322 50.322 0 0 0-5.088-.339zm-81.13 30.156a47.036 47.036 0 0 0-14.765 2.707c-5.697 2.107-10.941 4.344-17.047 5.098-7.054.754-14.084.52-20.877-1.687-3.468-1.13-6.886-2.405-10.328-3.606-7.168-2.347-14.884-2.942-22.312-1.594-2.78.437-5.395 1.24-7.983 2.145a199.35 199.35 0 0 0 7.829 4.064c4.2-.782 8.478-.871 12.79-.56 5.765.497 11.459 2.78 16.856 4.781a56.107 56.107 0 0 0 11.445 2.606c6.24.467 12.387.348 18.488-1.165 5.25-1.146 9.963-3.557 15.125-4.914 4.677-1.538 9.877-1.77 14.77-1.58 7.171.422 13.147 3.21 19.805 5.487 6.999 2.397 14.579 3.182 21.92 2.347 5.313-.333 10.635-2.072 15.582-3.943 4.091-1.568 8.22-2.85 12.574-3.436 5.438-.497 10.795-.32 16.059 1.063a199.341 199.341 0 0 0 7.543-3.863c-2.206-.828-4.417-1.617-6.659-2.204-3.042-.758-6.164-1.207-9.29-1.443-5.542-.32-11.189.533-16.485 2.164-5.503 1.867-10.454 4.176-16.277 5.225-5.195.809-10.492.846-15.709.2-6.573-.935-12.106-3.563-18.22-5.65-4.8-1.613-9.822-2.34-14.833-2.242z" fill="#fff"/>
<path d="M5 4.005v258.99c0 110.47 89.543 200.01 200 200.01 110.46 0 200-89.552 200-200.01V4.005z" fill="none" stroke="#000" stroke-width="8"/>
</svg>
