<?xml version="1.0" encoding="UTF-8"?>
<!-- Created with Inkscape (http://www.inkscape.org/) -->
<svg id="a" width="218.54" height="255.98" version="1.0" xmlns="http://www.w3.org/2000/svg">
 <path d="m1 1 3.9371 165.39c2.8122 118.13 205.85 118.13 208.66 0l3.9371-165.39z" fill="#ce3921"/>
 <path d="m180.27 39.603c5.6811-0.23945 10.264 4.5791 10.264 10.267s-4.5868 10.59-10.264 10.267l-51.832-2.9488v-15.401z" color="#000000" fill="#efd905" stroke="#000" stroke-width="1px"/>
 <path d="m128.27 51.027-13.789 7.8044c-17.601-6.24-60.526-19.634-64.048 17.061-59.231-35.331 15.223-94.212 77.837-24.865z" fill="#fff" stroke="#000" stroke-linejoin="round" stroke-width=".99921"/>
 <rect x="122.64" y="37.777" width="9.2534" height="24.502" ry="4.6282" color="#000000" fill="#efd905" stroke="#000" stroke-width="1px"/>
 <path d="m162.36 145.79c-1.0856 1.4646-2.1976 2.7959-3.9249 3.7273 6.458-0.33164 12.963-0.42889 19.749 0.88167-5.4112 1.4217-10.751 6.2167-16.752 8.464-3.9372 1.4745-1.0812 3.7887 1.8902 2.5506 6.4921-2.7051 16.597-5.7191 23.678-2.1979-0.92858 1.0904-2.3287 2.0628-4.5847 2.8213 5.3879 1.6066 9.8517 4.1374 13.578 7.406-1.0981 1.2343-2.8916 2.4687-5.3114 3.703 3.052 1.9875 6.0038 4.1086 8.0734 7.406-3.0996 2.6367-6.6241 4.4235-11.05 4.4083 1.1098 1.9915 2.044 3.8073 2.8213 5.4663-4.1157 1.4621-8.6165 0.61301-13.049 0.17634 0.13193 1.4838 0.0226 2.7264-0.17633 3.8793-8.7913-2.4202-18.111-13.181-19.749-16.223-0.89323-1.6586-4.2772-0.3136-2.4687 1.9397 3.9311 4.8978 8.9395 11.184 11.285 16.046-9.8986-0.56544-13.526-5.2531-17.457-9.3456 0.17537 2.8204-0.0354 5.2546-0.17634 7.7587-5.6872-8.4414-17.75-17.36-4.4083-23.452-13.822-3.7697-22.868-11.679-31.813-19.676l-0.45596 15.487c3.963 1.4651 7.1054 4.0283 8.4175 11.458l-4.0092-0.74445c-0.10776-6.3935-8.6474-12.759-12.502-0.27444l-3.1917 2.2141c0.49308-6.7043 3.2336-9.9125 6.7007-11.991l-0.17634-16.046c-4.0786 5.614-13.908 13.65-31.211 18.691 13.498 5.6514 3.5919 14.96-3.3503 23.805-0.11756-2.5494-0.23511-5.011-0.35267-7.2297-5.7602 6.297-11.52 8.8317-17.281 8.8167 1.9199-4.3183 6.3765-9.8324 11.1-15.457 1.54-1.8337-0.88442-4.0871-2.2193-2.2407-5.701 7.8857-15.408 14.031-20.342 15.758-0.03898-1.1954 0.05938-2.528 0.35267-4.0557-4.7478 1.9684-8.9596 1.5251-13.049 0.529 0.37695-2.071 0.97914-4.0519 2.9977-5.4663-5.0212-0.14706-8.5708-1.5817-10.933-4.0557 1.303-3.5772 3.7565-6.1957 7.0533-8.1113-2.0962-0.73296-3.9546-1.6561-4.4083-3.703 3.6452-3.8379 8.0606-5.8785 12.696-7.406-2.3082-0.79619-3.2137-1.873-3.8793-2.9977 6.2533-2.3484 14.008-1.3605 24.334 3.174 1.741 0.76456 4.9585-0.91503 1.4107-2.9977-5.988-3.5151-11.484-4.8847-17.104-8.993 6.4512-0.88317 12.749-1.152 18.868-0.70533-1.2832-1.1788-2.8904-2.6238-3.6427-3.8974 23.814-0.0417 22.1 20.893 15.779 22.587-11.097 2.9734-20.793 5.644-33.826 7.4079 13.032-1.7639 22.683-4.4224 33.826-7.4079 9.5882-2.5692 19.88-8.2895 27.538-13.752 1.809-1.2903 0.59649-3.9279 5.6427-6.0476l0.17634-6.2957 6.4513 0.30102-0.95472 5.3713c5.643 3.8948 4.7685 5.4568 9.3154 8.8084 5.8124 4.2844 14.949 9.2327 23.947 11.644 11.51 3.0841 22.531 6.7442 34.806 7.8865-12.274-1.1525-23.296-4.8024-34.806-7.8865-4.4159-1.1832-8.7316-21.996 16.126-21.917z" fill="#1f872d" stroke="#000" stroke-linejoin="round" stroke-width=".99921"/>
 <circle cx="111.85" cy="238.72" r="7.3565" color="#000000" fill="#1f3784" stroke="#000" stroke-width="1pt"/>
 <circle cx="120.54" cy="234.98" r="7.3565" color="#000000" fill="#1f3784" stroke="#000" stroke-width="1pt"/>
 <circle cx="103.99" cy="233.23" r="7.3565" color="#000000" fill="#1f3784" stroke="#000" stroke-width="1pt"/>
 <circle cx="93.393" cy="229.87" r="7.3565" color="#000000" fill="#1f3784" stroke="#000" stroke-width="1pt"/>
 <circle cx="91.024" cy="219.52" r="7.3565" color="#000000" fill="#1f3784" stroke="#000" stroke-width="1pt"/>
 <circle cx="103.49" cy="223.01" r="7.3565" color="#000000" fill="#1f3784" stroke="#000" stroke-width="1pt"/>
 <circle cx="115.59" cy="225.48" r="7.3565" color="#000000" fill="#1f3784" stroke="#000" stroke-width="1pt"/>
 <circle cx="127.06" cy="226.11" r="7.3565" color="#000000" fill="#1f3784" stroke="#000" stroke-width="1pt"/>
 <circle cx="87.533" cy="207.15" r="7.3565" color="#000000" fill="#1f3784" stroke="#000" stroke-width="1pt"/>
 <circle cx="131.55" cy="215.63" r="7.3565" color="#000000" fill="#1f3784" stroke="#000" stroke-width="1pt"/>
 <circle cx="122.32" cy="213.39" r="7.3565" color="#000000" fill="#1f3784" stroke="#000" stroke-width="1pt"/>
 <circle cx="110.85" cy="212.76" r="7.3565" color="#000000" fill="#1f3784" stroke="#000" stroke-width="1pt"/>
 <circle cx="98.754" cy="210.77" r="7.3565" color="#000000" fill="#1f3784" stroke="#000" stroke-width="1pt"/>
 <circle cx="108.11" cy="201.17" r="7.3565" color="#000000" fill="#1f3784" stroke="#000" stroke-width="1pt"/>
 <circle cx="93.393" cy="187.33" r="7.3565" color="#000000" fill="#1f3784" stroke="#000" stroke-width="1pt"/>
 <circle cx="120.95" cy="202.79" r="7.3565" color="#000000" fill="#1f3784" stroke="#000" stroke-width="1pt"/>
 <circle cx="131.05" cy="194.19" r="7.3565" color="#000000" fill="#1f3784" stroke="#000" stroke-width="1pt"/>
 <circle cx="133.67" cy="205.28" r="7.3565" color="#000000" fill="#1f3784" stroke="#000" stroke-width="1pt"/>
 <circle cx="127.89" cy="182.96" r="7.3565" color="#000000" fill="#1f3784" stroke="#000" stroke-width="1pt"/>
 <circle cx="135.88" cy="194.93" r="7.3565" color="#000000" fill="#1f3784" stroke="#000" stroke-width="1pt"/>
 <circle cx="88.031" cy="196.06" r="7.3565" color="#000000" fill="#1f3784" stroke="#000" stroke-width="1pt"/>
 <circle cx="96.011" cy="197.68" r="7.3565" color="#000000" fill="#1f3784" stroke="#000" stroke-width="1pt"/>
 <circle cx="101.75" cy="181.47" r="7.3565" color="#000000" fill="#1f3784" stroke="#000" stroke-width="1pt"/>
 <circle cx="105.61" cy="190.67" r="7.3565" color="#000000" fill="#1f3784" stroke="#000" stroke-width="1pt"/>
 <circle cx="115.71" cy="182.69" r="7.3565" color="#000000" fill="#1f3784" stroke="#000" stroke-width="1pt"/>
 <circle cx="118.95" cy="192.43" r="7.3565" color="#000000" fill="#1f3784" stroke="#000" stroke-width="1pt"/>
 <path d="m21.413 86.619c-5.5591-1e-6 -12.027 2.0637-18.281 3.6562l1.0312 42.688c5.9318-1.5528 11.996-3.4062 17.25-3.4062 8.9689 0 20.312 5.4688 29.281 5.4688 8.9689-1e-5 20.312-5.4688 29.281-5.4688 8.9689 0 20.344 5.4688 29.312 5.4688 8.9689-1e-5 20.281-5.4688 29.25-5.4688s20.344 5.4688 29.312 5.4688c8.9689-1e-5 20.281-5.4688 29.25-5.4688 5.2543 0 11.349 1.8535 17.281 3.4062l1.0312-42.688c-6.2543-1.5926-12.753-3.6562-18.312-3.6562-8.9689-1e-6 -20.281 5.4688-29.25 5.4688-8.9689-3e-6 -20.344-5.4688-29.312-5.4688-8.9689-1e-6 -20.281 5.4688-29.25 5.4688-8.9689-3e-6 -20.344-5.4688-29.312-5.4688-8.9689-1e-6 -20.312 5.4688-29.281 5.4688-8.9689-3e-6 -20.312-5.4688-29.281-5.4688z" fill="#fff" stroke="#000" stroke-width="1px"/>
 <path d="m1 1 3.9371 165.39c2.8122 118.13 205.85 118.13 208.66 0l3.9371-165.39z" fill="none" stroke="#000" stroke-width="2"/>
</svg>
