<?xml version="1.0" encoding="UTF-8" standalone="no"?>
<!-- Created with Inkscape (http://www.inkscape.org/) -->

<svg
   xmlns:dc="http://purl.org/dc/elements/1.1/"
   xmlns:cc="http://creativecommons.org/ns#"
   xmlns:rdf="http://www.w3.org/1999/02/22-rdf-syntax-ns#"
   xmlns:svg="http://www.w3.org/2000/svg"
   xmlns="http://www.w3.org/2000/svg"
   xmlns:sodipodi="http://sodipodi.sourceforge.net/DTD/sodipodi-0.dtd"
   xmlns:inkscape="http://www.inkscape.org/namespaces/inkscape"
   version="1.0"
   width="208.86046"
   height="244.65999"
   id="svg2780"
   inkscape:version="0.92.4 (5da689c313, 2019-01-14)"
   sodipodi:docname="Schönenwerd-blazon.svg">
  <metadata
     id="metadata27">
    <rdf:RDF>
      <cc:Work
         rdf:about="">
        <dc:format>image/svg+xml</dc:format>
        <dc:type
           rdf:resource="http://purl.org/dc/dcmitype/StillImage" />
        <dc:title></dc:title>
      </cc:Work>
    </rdf:RDF>
  </metadata>
  <sodipodi:namedview
     pagecolor="#ffffff"
     bordercolor="#666666"
     borderopacity="1"
     objecttolerance="10"
     gridtolerance="10"
     guidetolerance="10"
     inkscape:pageopacity="0"
     inkscape:pageshadow="2"
     inkscape:window-width="3259"
     inkscape:window-height="1417"
     id="namedview25"
     showgrid="false"
     inkscape:zoom="2.8284271"
     inkscape:cx="-43.885822"
     inkscape:cy="163.31176"
     inkscape:window-x="-8"
     inkscape:window-y="-8"
     inkscape:window-maximized="1"
     inkscape:current-layer="svg2780"
     inkscape:measure-start="104.255,149.787"
     inkscape:measure-end="104.255,126.383"
     showguides="true"
     inkscape:object-paths="true"
     inkscape:snap-intersection-paths="true" />
  <defs
     id="defs2782" />
  <g
     id="g19310"
     transform="translate(-233.92717,23.988505)">
    <path
       sodipodi:nodetypes="csccsssc"
       inkscape:connector-curvature="0"
       id="path19241-17"
       d="m 400.19475,49.434923 c -1.29075,-10.404518 -13.35612,-14.821008 -26.75,-6.25 -26.83275,17.170812 -30.01774,61.576127 -12.375,97.749997 6.10786,8.23488 15.60988,13.06755 24.625,4 5.8921,10.15471 -2.38968,27.97619 -21,18.375 -17.07907,-8.81121 -22.30162,-44.36673 -21.625,-68.045209 1.10968,-38.833397 26.72544,-76.198842 45.25,-80.329787 22.34843,-4.9836598 31.70241,21.095619 11.875,34.499999 z"
       style="opacity:1;fill:none;fill-opacity:1;stroke:#000000;stroke-width:1;stroke-miterlimit:4;stroke-dasharray:none;stroke-dashoffset:4.57999992;stroke-opacity:1" />
    <path
       sodipodi:nodetypes="sscsscs"
       inkscape:connector-curvature="0"
       d="m 313.68023,28.80992 c 14.37848,51.82604 21.17288,72.10696 5.25,125.5 -6.09118,20.42512 2.46887,37.88782 13.81976,47.75 11.35089,-9.86218 19.91094,-27.32488 13.81976,-47.75 -15.92288,-53.39304 -9.12848,-73.67396 5.25,-125.499997 5.99167,-21.5964678 -7.23668,-35.3371413 -19.06976,-42.625 -11.83308,7.2878557 -25.06143,21.0285292 -19.06976,42.624997 z"
       style="opacity:1;fill:none;fill-opacity:1;stroke:#000000;stroke-width:1;stroke-miterlimit:4;stroke-dasharray:none;stroke-dashoffset:4.57999992;stroke-opacity:1"
       id="path19191-4-3" />
    <path
       sodipodi:nodetypes="csccscc"
       inkscape:connector-curvature="0"
       d="m 307.43023,90.309921 c -2.59079,0 -4.82978,2.56911 -4.82978,4.82979 0,2.26068 2.23899,4.82979 4.82978,4.82979 h 50.63952 c 2.59079,0 4.82978,-2.56911 4.82978,-4.82979 0,-2.26068 -2.23899,-4.82979 -4.82978,-4.82979 z"
       style="opacity:1;fill:none;fill-opacity:1;stroke:#000000;stroke-width:1;stroke-miterlimit:4;stroke-dasharray:none;stroke-dashoffset:4.57999992;stroke-opacity:1"
       id="path19193-8-3-4" />
    <path
       sodipodi:nodetypes="csccscc"
       inkscape:connector-curvature="0"
       d="m 312.61773,80.65034 c -2.59079,0 -4.82978,2.56911 -4.82978,4.82979 0,2.260681 2.23899,4.829791 4.82978,4.829791 h 40.26452 c 2.59079,0 4.82978,-2.56911 4.82978,-4.829791 0,-2.26068 -2.23899,-4.82979 -4.82978,-4.82979 z"
       style="opacity:1;fill:none;fill-opacity:1;stroke:#000000;stroke-width:1;stroke-miterlimit:4;stroke-dasharray:none;stroke-dashoffset:4.57999992;stroke-opacity:1"
       id="path19193-8-8-5-2" />
    <path
       sodipodi:nodetypes="csccscc"
       inkscape:connector-curvature="0"
       d="m 352.88225,109.62908 c 2.59079,0 4.82978,-2.56911 4.82978,-4.82979 0,-2.26068 -2.23899,-4.829789 -4.82978,-4.829789 h -40.26452 c -2.59079,0 -4.82978,2.569109 -4.82978,4.829789 0,2.26068 2.23899,4.82979 4.82978,4.82979 z"
       style="opacity:1;fill:none;fill-opacity:1;stroke:#000000;stroke-width:1;stroke-miterlimit:4;stroke-dasharray:none;stroke-dashoffset:4.57999992;stroke-opacity:1"
       id="path19193-8-8-0-3-2" />
    <path
       sodipodi:nodetypes="csccsssc"
       inkscape:connector-curvature="0"
       id="path19241-1-3"
       d="m 265.30523,49.43492 c 1.29075,-10.404518 13.35612,-14.821008 26.75,-6.25 26.83275,17.170812 30.01774,61.57613 12.375,97.75 -6.10786,8.23488 -15.60988,13.06755 -24.625,4 -5.8921,10.15471 2.38968,27.97619 21,18.375 17.07907,-8.81121 22.30162,-44.36673 21.625,-68.045209 -1.10968,-38.8334 -26.72544,-76.198845 -45.25,-80.32979 -22.34843,-4.9836598 -31.70241,21.095619 -11.875,34.499999 z"
       style="opacity:1;fill:none;fill-opacity:1;stroke:#000000;stroke-width:1;stroke-miterlimit:4;stroke-dasharray:none;stroke-dashoffset:4.57999992;stroke-opacity:1" />
  </g>
  <path
     inkscape:connector-curvature="0"
     style="fill:#000000;fill-opacity:1;fill-rule:evenodd;stroke:#000000;stroke-width:1.99999988;stroke-linecap:butt;stroke-miterlimit:4;stroke-dashoffset:0;stroke-opacity:1"
     id="path4212"
     d="m 1,1 3.761095,158.00304 c 2.686489,112.85918 196.651755,112.85918 199.338255,0 L 207.86045,1 Z" />
  <path
     style="opacity:1;fill:#ffffff;fill-opacity:1;stroke:#000000;stroke-width:1;stroke-miterlimit:4;stroke-dasharray:none;stroke-dashoffset:4.57999992;stroke-opacity:1"
     d="M 2.8445621,78.48978 H 206.01589 l -1.90432,80 H 4.7488774 Z"
     id="path19176"
     inkscape:connector-curvature="0" />
  <path
     style="opacity:1;fill:#cc2918;fill-opacity:1;stroke:#000000;stroke-width:1;stroke-miterlimit:4;stroke-dasharray:none;stroke-dashoffset:4.57999992;stroke-opacity:1"
     d="M 1.0000014,1 2.8445621,78.48978 H 206.01589 L 207.86045,1 Z"
     id="path19178"
     inkscape:connector-curvature="0" />
  <g
     id="g19428">
    <path
       sodipodi:nodetypes="sscsscs"
       inkscape:connector-curvature="0"
       d="m 85.36048,52.15999 c 14.37848,51.82604 21.17288,72.10696 5.25,125.5 -6.09118,20.42512 2.46887,37.88782 13.81976,47.75 11.35089,-9.86218 19.91094,-27.32488 13.81976,-47.75 C 102.32712,124.26695 109.12152,103.98603 123.5,52.159993 129.49167,30.563525 116.26332,16.822851 104.43024,9.5349925 92.59716,16.822848 79.36881,30.563522 85.36048,52.15999 Z"
       style="opacity:1;fill:#cc2918;fill-opacity:1;stroke:#000000;stroke-width:1;stroke-miterlimit:4;stroke-dasharray:none;stroke-dashoffset:4.57999992;stroke-opacity:1"
       id="path19191-4" />
    <path
       sodipodi:nodetypes="csscsssc"
       inkscape:connector-curvature="0"
       id="path19241-1"
       d="m 37.692586,72.78499 c 3.294653,-10.743445 13.35612,-14.821008 26.75,-6.25 26.83275,17.170812 30.79572,61.96869 13.375,98.25 -4.483691,9.33797 -16.742463,12.52336 -25.625,3.5 -5.8921,10.15471 2.38968,27.97619 21,18.375 17.07907,-8.81121 22.743562,-44.36673 22.066942,-68.04521 C 94.149848,79.781381 68.092146,42.415936 49.567586,38.284991 27.219156,33.301331 17.865176,59.38061 37.692586,72.78499 Z"
       style="opacity:1;fill:#cc2918;fill-opacity:1;stroke:#000000;stroke-width:1;stroke-miterlimit:4;stroke-dasharray:none;stroke-dashoffset:4.57999992;stroke-opacity:1" />
    <path
       sodipodi:nodetypes="csscsssc"
       inkscape:connector-curvature="0"
       id="path19241-1-19"
       d="m 171.1679,72.78499 c -3.29466,-10.743445 -13.35612,-14.821008 -26.75,-6.25 -26.83275,17.170812 -30.79572,61.96869 -13.375,98.25 4.48369,9.33797 16.74246,12.52336 25.625,3.5 5.8921,10.15471 -2.38968,27.97619 -21,18.375 -17.07907,-8.81121 -22.74356,-44.36673 -22.06694,-68.04521 1.10968,-38.833399 27.16738,-76.198844 45.69194,-80.329789 22.34843,-4.98366 31.70241,21.095619 11.875,34.499999 z"
       style="opacity:1;fill:#cc2918;fill-opacity:1;stroke:#000000;stroke-width:1;stroke-miterlimit:4;stroke-dasharray:none;stroke-dashoffset:4.57999992;stroke-opacity:1" />
    <path
       sodipodi:nodetypes="cscscc"
       inkscape:connector-curvature="0"
       id="path19241-1-8"
       d="m 80.590855,158.49706 c -0.854599,2.11923 -1.779114,4.21745 -2.773269,6.28793 -4.48369,9.33797 -16.742463,12.52336 -25.625,3.5 -5.8921,10.15471 2.389681,27.97619 21,18.375 8.476617,-4.37315 14.032622,-15.33421 17.396344,-28.16144 z"
       style="opacity:1;fill:#ffffff;fill-opacity:1;stroke:#000000;stroke-width:1;stroke-miterlimit:4;stroke-dasharray:none;stroke-dashoffset:4.57999992;stroke-opacity:1" />
    <path
       sodipodi:nodetypes="csccsc"
       inkscape:connector-curvature="0"
       id="path19241-1-1"
       d="m 37.692586,72.784987 c 3.294653,-10.743445 13.356121,-14.82101 26.75,-6.25 4.902937,3.137487 9.042313,7.19737 12.427192,11.95915 l 8.595974,0.0053 C 76.07934,57.070772 61.381427,40.919454 49.567586,38.284988 c -22.34843,-4.983661 -31.70241,21.095619 -11.875,34.499999 z"
       style="opacity:1;fill:#ffffff;fill-opacity:1;stroke:#000000;stroke-width:1;stroke-miterlimit:4;stroke-dasharray:none;stroke-dashoffset:4.57999992;stroke-opacity:1" />
    <path
       sodipodi:nodetypes="cscscc"
       inkscape:connector-curvature="0"
       d="m 95.674675,158.4948 c -1.331049,5.92915 -3.008255,12.27116 -5.064195,19.16519 -6.091182,20.42512 2.46887,37.88782 13.81976,47.75 11.35089,-9.86218 19.91094,-27.32488 13.81976,-47.75 -2.0562,-6.89492 -3.73358,-13.23767 -5.06471,-19.16747 z"
       style="opacity:1;fill:#ffffff;fill-opacity:1;stroke:#000000;stroke-width:1;stroke-miterlimit:4;stroke-dasharray:none;stroke-dashoffset:4.57999992;stroke-opacity:1"
       id="path19191-4-2" />
    <path
       sodipodi:nodetypes="sccscs"
       inkscape:connector-curvature="0"
       d="m 85.36048,52.159987 c 2.706072,9.753814 5.143514,18.390288 7.211443,26.340442 l 23.718257,-0.0062 C 118.35776,70.545753 120.79464,61.911249 123.5,52.15999 129.49167,30.563521 116.26332,16.822849 104.43024,9.5349904 92.59716,16.822846 79.368813,30.563518 85.36048,52.159987 Z"
       style="opacity:1;fill:#ffffff;fill-opacity:1;stroke:#000000;stroke-width:1;stroke-miterlimit:4;stroke-dasharray:none;stroke-dashoffset:4.57999992;stroke-opacity:1"
       id="path19191-4-8" />
    <path
       sodipodi:nodetypes="cscscc"
       inkscape:connector-curvature="0"
       id="path19241-1-8-0"
       d="m 128.26963,158.49706 c 0.8546,2.11923 1.77911,4.21745 2.77327,6.28793 4.48369,9.33797 16.74246,12.52336 25.625,3.5 5.8921,10.15471 -2.38968,27.97619 -21,18.375 -8.47662,-4.37315 -14.03263,-15.33421 -17.39635,-28.16144 z"
       style="opacity:1;fill:#ffffff;fill-opacity:1;stroke:#000000;stroke-width:1;stroke-miterlimit:4;stroke-dasharray:none;stroke-dashoffset:4.57999992;stroke-opacity:1" />
    <path
       sodipodi:nodetypes="csccsc"
       inkscape:connector-curvature="0"
       id="path19241-1-1-9"
       d="m 171.1679,72.784987 c -3.29466,-10.743445 -13.35612,-14.82101 -26.75,-6.25 -4.90294,3.137487 -9.04232,7.19737 -12.4272,11.95915 l -8.59597,0.0053 c 9.38641,-21.428665 24.08433,-37.579983 35.89817,-40.214449 22.34843,-4.983661 31.70241,21.095619 11.875,34.499999 z"
       style="opacity:1;fill:#ffffff;fill-opacity:1;stroke:#000000;stroke-width:1;stroke-miterlimit:4;stroke-dasharray:none;stroke-dashoffset:4.57999992;stroke-opacity:1" />
    <path
       sodipodi:nodetypes="csccscc"
       inkscape:connector-curvature="0"
       d="m 86.065747,104.00041 c -2.59079,0 -2.82978,2.56911 -2.82978,4.82979 0,2.26068 0.23899,4.82979 2.82978,4.82979 h 36.728983 c 2.59079,0 2.82978,-2.56911 2.82978,-4.82979 0,-2.26068 -0.23899,-4.82979 -2.82978,-4.82979 z"
       style="opacity:1;fill:#cc2918;fill-opacity:1;stroke:#000000;stroke-width:1;stroke-miterlimit:4;stroke-dasharray:none;stroke-dashoffset:4.57999992;stroke-opacity:1"
       id="path19193-8-8-5" />
    <path
       sodipodi:nodetypes="csccscc"
       inkscape:connector-curvature="0"
       d="m 80.878247,113.65999 c -2.59079,0 -2.82978,2.56911 -2.82978,4.82979 0,2.26068 0.23899,4.82979 2.82978,4.82979 h 47.103983 c 2.59079,0 2.82978,-2.56911 2.82978,-4.82979 0,-2.26068 -0.23899,-4.82979 -2.82978,-4.82979 z"
       style="opacity:1;fill:#cc2918;fill-opacity:1;stroke:#000000;stroke-width:1;stroke-miterlimit:4;stroke-dasharray:none;stroke-dashoffset:4.57999992;stroke-opacity:1"
       id="path19193-8-3" />
    <path
       sodipodi:nodetypes="csccscc"
       inkscape:connector-curvature="0"
       d="m 122.79473,132.97915 c 2.59079,0 2.82978,-2.56911 2.82978,-4.82979 0,-2.26068 -0.23899,-4.82979 -2.82978,-4.82979 H 86.065747 c -2.59079,0 -2.82978,2.56911 -2.82978,4.82979 0,2.26068 0.23899,4.82979 2.82978,4.82979 z"
       style="opacity:1;fill:#cc2918;fill-opacity:1;stroke:#000000;stroke-width:1;stroke-miterlimit:4;stroke-dasharray:none;stroke-dashoffset:4.57999992;stroke-opacity:1"
       id="path19193-8-8-0-3" />
  </g>
  <path
     inkscape:connector-curvature="0"
     style="fill:none;fill-opacity:1;fill-rule:evenodd;stroke:#000000;stroke-width:1.99999988;stroke-linecap:butt;stroke-miterlimit:4;stroke-dashoffset:0;stroke-opacity:1"
     id="path4212-2"
     d="M 1,0.99999834 4.761095,159.00304 c 2.686489,112.85918 196.651755,112.85918 199.338255,0 l 3.7611,-158.00304166 z" />
</svg>
