<?xml version="1.0" encoding="UTF-8"?>
<svg width="524.79" height="628.13" xmlns="http://www.w3.org/2000/svg">
 <path d="M4 4v361.76a258.4 258.4 0 0 0 516.79 0V4z" fill="#fff"/>
 <g fill="#094">
  <path d="m274.98 483.67-1.817-54.657 59.357-99.529-60.438 75.28-.374-91.576 40.553-60.814-41.995 42.716-1.082-69.496 25.702-28.979-26.063 14.86s.985-87.518-3.078-90.778c-4.077-3.259-3.8 91.131-3.8 91.131l-20.64-14.84 19.926 27.87-1.824 70.584-39.09-42.709 38.01 59.365-1.81 90.854-57.921-73.844 56.471 99.175-1.102 53.95z"/>
  <g stroke="#000" stroke-width="3">
   <path d="m275.26 444.57s6.143-23.86 41.254-25.324c0 0-2.135 32.203-41.254 25.324zm12.01-39.46s17.021-20.262 49.955-5.062c0 0-19.899 26.787-49.955 5.062z"/>
   <path d="M300.48 381.73s24.794-24.02 54.115-6.29c0 0-13.125 28.404-54.115 6.29zm15.21-23.89s24.821-24.707 50.905-8.411c0 0-14.352 21.448-50.905 8.411zM269.9 165.49s-1.449-34.034 30.756-38.735c0 0 3.987 35.47-30.756 38.735z"/>
   <path d="M268.6 135.44s-2.53-33.659 29.675-38.375c0 0 5.082 35.116-29.675 38.375zm59.21 203.09s20.634-28.604 51.037-16.296c0 0-6.878 24.624-51.037 16.296zm-.45-.89s19.275-36.253-7.862-55.794c0 0-13.853 40.594 7.862 55.794zm-21.99-75.13s19.795-27.134-6.517-47.785c0 0-14.553 31.697 6.517 47.785zm-24.83-55.24s24.828-20.06 3.827-45.046c0 0-21.604 21.871-3.827 45.046z"/>
   <path d="M311.75 356.21s14.976-22.759-7.814-45.573c0 0-17.88 37.62 7.814 45.573zm-19.95 25.12s17.188-16.4-7.786-46.432c0 0-14.65 36.301 7.786 46.432zm-20.45-54.03s7.6-28.59 32.58-28.95c0 0-3.266 30.04-32.58 28.95zm20.28-45.25s11.58-19.18 38.002-6.15c0 0-11.946 19.902-38.002 6.15zm-12.88-42.03s20.107 8.315 10.74 36.246c0 0-20.883-8.577-10.74-36.246zm-3.25-25.28s14.671.118 16.162 19.34c0 0-15.205-.076-16.162-19.34zm5.04-7.47s17.95-24.04 46.911-3.772c0 0-3.883 21.705-46.91 3.772zm24.28 55.14s20.8-26.489 50.662-12.946c0 0-5.304 23.764-50.662 12.946zm-50.87 182.16s-6.164-23.86-41.267-25.324c0 0 2.17 32.203 41.267 25.324zm-10.79-39.46s-17.02-20.262-49.948-5.062c0 0 19.9 26.787 49.948 5.062z"/>
   <path d="m229.94 381.73s-24.78-24.02-54.1-6.29c0 0 13.11 28.404 54.1 6.29zm-15.19-23.89s-24.835-24.707-50.905-8.411c0 0 14.345 21.448 50.905 8.411zm47.01-192.35s1.456-34.034-30.763-38.735c0 0-3.98 35.47 30.763 38.735z"/>
   <path d="m263.06 135.44s2.53-33.659-29.682-38.375c0 0-5.075 35.116 29.682 38.375z"/>
   <path d="m202.62 338.53s-20.634-28.604-51.037-16.296c0 0 6.878 24.624 51.037 16.296z"/>
   <path d="m203.51 337.03s-19.268-36.253 7.883-55.794c0 0 13.84 40.594-7.883 55.794zm22.21-75.62s-19.788-27.134 6.51-47.785c0 0 14.56 31.697-6.51 47.785zm24.16-54.14s-24.828-20.06-3.82-45.046c0 0 21.61 21.871 3.82 45.046z"/>
   <path d="m218.68 356.21s-14.976-22.759 7.828-45.573c0 0 17.874 37.62-7.828 45.573zm19.95 25.12s-17.188-16.4 7.78-46.432c0 0 14.663 36.301-7.78 46.432zm20.45-54.03s-7.599-28.59-32.573-28.95c0 0 3.266 30.04 32.573 28.95z"/>
  </g>
  <path d="m238.81 282.05s-11.579-19.18-38.009-6.15c0 0 11.946 19.902 38.01 6.15"/>
 </g>
 <path d="m238.81 282.05s-11.579-19.18-38.009-6.15c0 0 11.946 19.902 38.01 6.15z" fill="none" stroke="#000" stroke-width="3"/>
 <g fill="#094">
  <path d="M251.66 240.02s-20.093 8.315-10.733 36.246c0 0 20.883-8.577 10.733-36.246zm3.4-25.55s-14.657.118-16.148 19.34c0 0 15.191-.069 16.148-19.34z" stroke="#000" stroke-width="3"/>
  <path d="m249.88 207.27s-17.95-24.04-46.904-3.772c0 0 3.869 21.705 46.904 3.772"/>
 </g>
 <g fill="none" stroke="#000" stroke-width="3">
  <path d="m249.88 207.27s-17.95-24.04-46.904-3.772c0 0 3.869 21.705 46.904 3.772z"/>
  <path d="m225.6 262.41s-20.786-26.489-50.655-12.946c0 0 5.297 23.764 50.655 12.946z" fill="#094"/>
  <path d="m112.08 61.281-14.616 59.795-55.355-17.939 45.393 41.412-45.17 39.631 55.133-17.71 14.617 59.343 15.273-59.123 55.35 17.934-44.713-39.852 44.49-42.078-55.342 18.383zm295.48 0-14.609 59.795-55.35-17.939 45.395 41.412-45.178 39.631 55.133-17.71 14.61 59.343 15.28-59.123 55.35 17.934-44.715-39.852 44.498-42.078-55.355 18.383z" fill="#f00000" stroke-miterlimit="30"/>
  <path d="m274.98 483.67-1.817-54.657 59.357-99.529-60.438 75.28-.374-91.576 40.553-60.814-41.995 42.716-1.082-69.496 25.702-28.979-26.063 14.86s.985-87.518-3.078-90.778c-4.077-3.259-3.8 91.131-3.8 91.131l-20.64-14.84 19.926 27.87-1.824 70.584-39.09-42.709 38.01 59.365-1.81 90.854-57.921-73.844 56.471 99.175-1.102 53.95z" fill="#094"/>
 </g>
 <path d="M102.37 567.99s149.65-191.99 320.15-.87c0 0-142.6 130.65-320.15.87" fill="#094" stroke="#030000" stroke-width="3"/>
 <path d="M4 4.789v361.76a258.4 258.4 0 0 0 516.79 0V4.789z" fill="none" stroke="#000" stroke-width="8"/>
 <g fill="#094" stroke="#000" stroke-width="3">
  <path d="m309.99 255.71s37.926-18.217 36.151-54.157c0 0-29.092 6.255-36.15 54.157zm-24.26-51.8s44.784-15.699 41.524-46.834c0 0-26.72-0.873-41.524 46.835zm-20.31-79.49s-20.28-20.269-0.367-66.604c0 0 24.613 41.266 0.367 66.604zm61.67 213.6s41.982-23.757 38.723-59.587c0 0-33.662 11.442-38.723 59.587zm-81.59-136.75s-44.79-15.699-41.538-46.835c0 0 26.721-0.873 41.538 46.835zm-18.23 60.08s-37.926-18.217-36.144-54.157c0 0 29.092 6.255 36.144 54.157zm-22.39 76.67s-41.995-23.757-38.73-59.587c0 0 33.668 11.442 38.73 59.587z"/>
 </g>
</svg>
