<?xml version="1.0" encoding="UTF-8"?>
<svg width="410" height="490" xmlns="http://www.w3.org/2000/svg">
 <path d="M5 5v280a200 200 0 0 0 400 0V5z" fill="#fcdb00" stroke="#0f0" stroke-width="8"/>
 <g stroke="#000">
  <path d="m261.89 198.67-56.688-46.195-56.401 46.545 26.416-68.189-61.696-39.257 73.014 4.052 18.271-70.807 18.709 70.693 72.988-4.504-61.451 39.639z" fill="#f00000" stroke-width="4"/>
  <path d="m5.318 226.3c7.066 5.284 14.11 10.567 22.187 10.567s15.133-5.284 22.187-10.567c7.066-5.284 14.11-10.567 22.187-10.567s15.133 5.284 22.187 10.567c7.066 5.284 14.11 10.567 22.187 10.567 8.056 0 15.133-5.284 22.187-10.567 7.066-5.284 14.11-10.567 22.187-10.567 8.056 0 15.133 5.284 22.187 10.567s14.11 10.567 22.187 10.567c8.056 0 15.133-5.284 22.187-10.567 7.066-5.284 14.11-10.567 22.187-10.567 8.056 0 15.133 5.284 22.187 10.567 7.066 5.284 14.11 10.567 22.187 10.567 8.078 0 15.133-5.284 22.187-10.567 7.066-5.284 14.11-10.567 22.187-10.567 8.078 0 15.133 5.284 22.187 10.567 7.066 5.284 14.11 10.567 22.187 10.567 8.056 0 15.133-5.284 22.187-10.567v88c-7.054 5.284-14.13 10.567-22.187 10.567-8.078 0-15.12-5.284-22.187-10.567-7.054-5.284-14.109-10.567-22.187-10.567s-15.12 5.284-22.187 10.567c-7.054 5.284-14.109 10.567-22.187 10.567s-15.12-5.284-22.187-10.567c-7.054-5.284-14.13-10.567-22.187-10.567-8.078 0-15.12 5.284-22.187 10.567-7.054 5.284-14.13 10.567-22.187 10.567-8.078 0-15.133-5.284-22.187-10.567-7.054-5.284-14.13-10.567-22.187-10.567-8.078 0-15.12 5.284-22.187 10.567-7.054 5.284-14.13 10.567-22.187 10.567-8.078 0-15.12-5.284-22.187-10.567-7.054-5.284-14.109-10.567-22.187-10.567s-15.12 5.284-22.187 10.567c-7.054 5.284-14.109 10.567-22.187 10.567s-15.12-5.284-22.187-10.567z" fill="#0093dd" stroke-width="4"/>
  <path d="M5 5v280a200 200 0 0 0 400 0V5z" fill="none" stroke-width="8"/>
 </g>
</svg>
