<?xml version="1.0" encoding="UTF-8" standalone="no"?>
<!-- Created with Inkscape (http://www.inkscape.org/) -->

<svg
   xmlns:dc="http://purl.org/dc/elements/1.1/"
   xmlns:cc="http://creativecommons.org/ns#"
   xmlns:rdf="http://www.w3.org/1999/02/22-rdf-syntax-ns#"
   xmlns:svg="http://www.w3.org/2000/svg"
   xmlns="http://www.w3.org/2000/svg"
   xmlns:sodipodi="http://sodipodi.sourceforge.net/DTD/sodipodi-0.dtd"
   xmlns:inkscape="http://www.inkscape.org/namespaces/inkscape"
   version="1.0"
   width="208.86046"
   height="244.65999"
   id="svg2780"
   inkscape:version="0.92.4 (5da689c313, 2019-01-14)"
   sodipodi:docname="Zullwil-blazon.svg">
  <metadata
     id="metadata27">
    <rdf:RDF>
      <cc:Work
         rdf:about="">
        <dc:format>image/svg+xml</dc:format>
        <dc:type
           rdf:resource="http://purl.org/dc/dcmitype/StillImage" />
        <dc:title></dc:title>
      </cc:Work>
    </rdf:RDF>
  </metadata>
  <sodipodi:namedview
     pagecolor="#ffffff"
     bordercolor="#666666"
     borderopacity="1"
     objecttolerance="10"
     gridtolerance="10"
     guidetolerance="10"
     inkscape:pageopacity="0"
     inkscape:pageshadow="2"
     inkscape:window-width="3259"
     inkscape:window-height="1417"
     id="namedview25"
     showgrid="false"
     inkscape:zoom="2.8284271"
     inkscape:cx="-15.592448"
     inkscape:cy="69.469212"
     inkscape:window-x="-8"
     inkscape:window-y="-8"
     inkscape:window-maximized="1"
     inkscape:current-layer="svg2780"
     inkscape:measure-start="104.255,149.787"
     inkscape:measure-end="104.255,126.383"
     showguides="true"
     inkscape:object-paths="true"
     inkscape:snap-intersection-paths="true"
     inkscape:snap-global="true" />
  <defs
     id="defs2782" />
  <g
     id="g29038"
     transform="rotate(90,-123.23248,340.30994)">
    <path
       sodipodi:nodetypes="ccsscscc"
       inkscape:connector-curvature="0"
       id="path28862"
       d="M -362.25965,111.85649 H -382.25 c -17.41975,0 -34.11879,-10.17992 -39.4375,-23.259003 -6.10465,-15.011768 2.6441,-26.062066 13.8125,-26.1875 6.59816,-0.07411 12.50179,2.627024 15.875,15.375 -6.51801,-3.64128 -12.5,0.03102 -12.5,8.25 0,9.612518 10.25247,19.000003 22.25,19.000003 h 19.99035 z"
       style="opacity:1;fill:none;fill-opacity:1;stroke:#00ff00;stroke-width:1.00199997;stroke-miterlimit:20;stroke-dasharray:none;stroke-dashoffset:4.57999992;stroke-opacity:0.81860465" />
    <path
       sodipodi:nodetypes="scccscs"
       inkscape:connector-curvature="0"
       d="m -402.98837,127.20019 c 8.11588,-3.09067 15.96836,-4.06586 25.8094,-4.06586 v -4.64455 -4.64455 c -9.84104,0 -17.69352,-0.97519 -25.8094,-4.06586 -20.4915,-7.80352 -38.35595,-14.684553 -57.6292,8.71041 19.27325,23.39497 37.1377,16.51393 57.6292,8.71041 z"
       style="opacity:1;fill:none;fill-opacity:1;stroke:#00ff00;stroke-width:1.00199997;stroke-miterlimit:20;stroke-dasharray:none;stroke-dashoffset:4.57999992;stroke-opacity:0.81860465"
       id="path28856-1" />
    <path
       sodipodi:nodetypes="cscccsc"
       inkscape:connector-curvature="0"
       d="m -374.7666,123.13433 h 120.38493 c 12.03677,0 22.62885,5.90664 28.99138,10.56739 -2.38521,-4.35801 -3.88909,-10.58706 -3.88909,-15.21194 0,-4.62488 1.50388,-10.85393 3.88909,-15.21194 -6.36253,4.66075 -16.95461,10.56739 -28.99138,10.56739 H -374.7666 Z"
       style="opacity:1;fill:none;fill-opacity:1;stroke:#00ff00;stroke-width:1.00199997;stroke-miterlimit:20;stroke-dasharray:none;stroke-dashoffset:4.57999992;stroke-opacity:0.81860465"
       id="path28852-1" />
    <path
       sodipodi:nodetypes="ccccccc"
       inkscape:connector-curvature="0"
       d="m -371.25,136.88207 h -8.6875 v -18.39229 -18.39229 h 8.6875 v 18.39229 z"
       style="opacity:1;fill:none;fill-opacity:1;stroke:#00ff00;stroke-width:1.00199997;stroke-miterlimit:20;stroke-dasharray:none;stroke-dashoffset:4.57999992;stroke-opacity:0.81860465"
       id="path28854-5" />
    <path
       sodipodi:nodetypes="ccsscscc"
       inkscape:connector-curvature="0"
       id="path28862-0"
       d="M -362.25965,125.12307 H -382.25 c -17.41975,0 -34.11879,10.17992 -39.4375,23.259 -6.10465,15.01177 2.6441,26.06206 13.8125,26.1875 6.59816,0.0741 12.50179,-2.62703 15.875,-15.375 -6.51801,3.64128 -12.5,-0.031 -12.5,-8.25 0,-9.61252 10.25247,-19 22.25,-19 h 19.99035 z"
       style="opacity:1;fill:none;fill-opacity:1;stroke:#00ff00;stroke-width:1.00199997;stroke-miterlimit:20;stroke-dasharray:none;stroke-dashoffset:4.57999992;stroke-opacity:0.81860465" />
  </g>
  <path
     inkscape:connector-curvature="0"
     style="fill:#ffffff;fill-opacity:1;fill-rule:evenodd;stroke:#000000;stroke-width:1.99999988;stroke-linecap:butt;stroke-miterlimit:4;stroke-dashoffset:0;stroke-opacity:1"
     id="path4212"
     d="m 1,1 3.761095,158.00304 c 2.686489,112.85918 196.651755,112.85918 199.338255,0 L 207.86045,1 Z" />
  <path
     style="fill:#000000;fill-opacity:1;fill-rule:evenodd;stroke:#000000;stroke-width:1px;stroke-linecap:butt;stroke-linejoin:miter;stroke-opacity:1"
     d="M 104.4302,0.9999974 V 118.48978 H 3.79671 L 0.99999,0.9999974 Z"
     id="path835"
     inkscape:connector-curvature="0" />
  <path
     style="fill:#000000;fill-opacity:1;fill-rule:evenodd;stroke:#000000;stroke-width:1px;stroke-linecap:butt;stroke-linejoin:miter;stroke-opacity:1"
     d="M 205.06373,118.48978 H 104.4302 v 125.15763 c 55.27579,-1.54192 86.96981,-29.2268 95.77315,-60.4291 5.84008,-15.07949 3.66615,-42.49668 4.86038,-64.72853 z"
     id="path837"
     inkscape:connector-curvature="0"
     sodipodi:nodetypes="ccccc" />
  <g
     id="g29031">
    <path
       sodipodi:nodetypes="ccsscscc"
       inkscape:connector-curvature="0"
       id="path28862-5-0"
       d="M 80.648486,100.13732 67.421315,85.148797 C 55.895043,72.087687 37.212879,66.302757 23.887058,70.968999 8.5921017,76.324767 6.0955744,90.196203 13.391402,98.653148 c 4.310301,4.996252 10.241874,7.635442 22.032134,1.729582 -7.043009,-2.477773 -8.247726,-9.392865 -2.085217,-14.831196 7.207345,-6.360384 21.029809,-4.884712 28.968315,4.1109 l 13.227171,14.988526 z"
       style="opacity:1;fill:#ffffff;fill-opacity:1;stroke:#000000;stroke-width:1.00199997;stroke-miterlimit:20;stroke-dasharray:none;stroke-dashoffset:4.57999992;stroke-opacity:1" />
    <path
       sodipodi:nodetypes="scccscs"
       inkscape:connector-curvature="0"
       d="m 63.207601,58.968671 c 3.052751,8.130212 7.517369,14.663184 14.028963,22.041863 l -3.482437,3.073203 -3.482406,3.073195 C 63.760129,79.778233 57.833125,74.535806 50.145676,70.495643 30.735906,60.294782 13.756066,51.453244 18.544647,21.522461 c 30.293979,-1.029083 36.955175,16.9185 44.662954,37.44621 z"
       style="opacity:1;fill:#ffffff;fill-opacity:1;stroke:#000000;stroke-width:1.00199997;stroke-miterlimit:20;stroke-dasharray:none;stroke-dashoffset:4.57999992;stroke-opacity:1"
       id="path28856-1-6-1" />
    <path
       sodipodi:nodetypes="cscccscc"
       inkscape:connector-curvature="0"
       d="m 78.832782,82.819308 79.656048,90.263202 c 7.96448,9.02503 19.40175,12.79195 27.10627,14.74517 -4.84582,1.26832 -10.51138,4.73561 -13.97907,8.2795 -3.46767,3.54388 -7.14305,9.62282 -8.83241,15.0333 -0.71536,-9.09599 -3.29518,-22.88656 -11.25964,-31.91159 L 71.86793,88.965695 Z"
       style="opacity:1;fill:#ffffff;fill-opacity:1;stroke:#000000;stroke-width:1.00199997;stroke-miterlimit:20;stroke-dasharray:none;stroke-dashoffset:4.57999992;stroke-opacity:1"
       id="path28852-1-0-0" />
    <path
       sodipodi:nodetypes="ccsscscc"
       inkscape:connector-curvature="0"
       id="path28862-0-6-9"
       d="M 88.828444,92.877084 75.601273,77.888548 C 64.075001,64.827438 60.658404,45.570852 66.94567,32.928809 74.162,18.418671 88.236226,17.666652 95.720162,25.957583 c 4.421418,4.898195 6.302448,11.111932 -1.023849,22.07618 -1.582659,-7.296481 -8.294223,-9.351837 -14.45672,-3.913516 -7.207356,6.360394 -7.462146,20.259072 0.476341,29.254662 l 13.227191,14.988538 z"
       style="opacity:1;fill:#ffffff;fill-opacity:1;stroke:#000000;stroke-width:1.00199997;stroke-miterlimit:20;stroke-dasharray:none;stroke-dashoffset:4.57999992;stroke-opacity:1" />
    <path
       sodipodi:nodetypes="ccccccc"
       inkscape:connector-curvature="0"
       d="m 91.467529,76.359446 -5.748327,-6.513785 -13.790308,12.16976 -13.790318,12.16977 5.748317,6.513779 13.790328,-12.169764 z"
       style="opacity:1;fill:#ffffff;fill-opacity:1;stroke:#000000;stroke-width:1.00199997;stroke-miterlimit:20;stroke-dasharray:none;stroke-dashoffset:4.57999992;stroke-opacity:1"
       id="path28854-5-3-5" />
  </g>
  <g
     id="g29024">
    <path
       sodipodi:nodetypes="ccsscscc"
       inkscape:connector-curvature="0"
       id="path28862-5"
       d="m 128.21194,100.03378 13.22718,-14.98853 c 11.52627,-13.06111 30.20843,-18.846041 43.53425,-14.179799 15.29496,5.355768 17.79149,19.227204 10.49566,27.684149 -4.3103,4.99625 -10.24188,7.63545 -22.03214,1.72959 7.04301,-2.477781 8.24773,-9.392873 2.08522,-14.831203 -7.20734,-6.360385 -21.02981,-4.884712 -28.96831,4.1109 l -13.22717,14.988523 z"
       style="opacity:1;fill:#000000;fill-opacity:1;stroke:#ffffff;stroke-width:1.00199997;stroke-miterlimit:20;stroke-dasharray:none;stroke-dashoffset:4.57999992;stroke-opacity:1" />
    <path
       sodipodi:nodetypes="scccscs"
       inkscape:connector-curvature="0"
       d="m 145.65283,58.968677 c -3.05275,8.130211 -7.51737,14.663184 -14.02896,22.041863 l 3.48243,3.073203 3.48241,3.073195 c 6.51159,-7.378699 12.4386,-12.621126 20.12604,-16.661289 19.40977,-10.200862 36.38961,-19.0424 31.60103,-48.973183 -30.29398,-1.029082 -36.95517,16.9185 -44.66295,37.446211 z"
       style="opacity:1;fill:#000000;fill-opacity:1;stroke:#ffffff;stroke-width:1.00199997;stroke-miterlimit:20;stroke-dasharray:none;stroke-dashoffset:4.57999992;stroke-opacity:1"
       id="path28856-1-6" />
    <path
       sodipodi:nodetypes="cscccscc"
       inkscape:connector-curvature="0"
       d="M 130.02765,82.819314 50.371598,173.08251 c -7.964472,9.02504 -19.40175,12.79197 -27.106266,14.74518 4.845819,1.26833 10.511374,4.73561 13.979071,8.27951 3.467666,3.54386 7.14305,9.6228 8.832404,15.03329 0.71536,-9.09599 3.29518,-22.88657 11.259643,-31.91159 L 136.9925,88.965701 Z"
       style="opacity:1;fill:#000000;fill-opacity:1;stroke:#ffffff;stroke-width:1.00199997;stroke-miterlimit:20;stroke-dasharray:none;stroke-dashoffset:4.57999992;stroke-opacity:1"
       id="path28852-1-0" />
    <path
       sodipodi:nodetypes="ccsscscc"
       inkscape:connector-curvature="0"
       id="path28862-0-6"
       d="m 120.13554,92.877089 13.22717,-14.988536 c 11.52627,-13.06111 14.94287,-32.317696 8.6556,-44.959738 -7.21633,-14.510138 -21.29055,-15.262157 -28.77449,-6.971226 -4.42141,4.898195 -6.30245,11.111932 1.02385,22.076179 1.58266,-7.29648 8.29422,-9.351836 14.45672,-3.913515 7.20736,6.360394 7.46215,20.259071 -0.47634,29.254662 l -13.22719,14.988537 z"
       style="opacity:1;fill:#000000;fill-opacity:1;stroke:#ffffff;stroke-width:1.00199997;stroke-miterlimit:20;stroke-dasharray:none;stroke-dashoffset:4.57999992;stroke-opacity:1" />
    <path
       sodipodi:nodetypes="ccccccc"
       inkscape:connector-curvature="0"
       d="m 117.3929,76.359451 5.74833,-6.513785 13.79031,12.169761 13.79031,12.169769 -5.74831,6.513784 -13.79033,-12.169769 z"
       style="opacity:1;fill:#000000;fill-opacity:1;stroke:#ffffff;stroke-width:1.00199997;stroke-miterlimit:20;stroke-dasharray:none;stroke-dashoffset:4.57999992;stroke-opacity:1"
       id="path28854-5-3" />
  </g>
</svg>
