<?xml version="1.0" encoding="UTF-8"?>
<svg viewBox="0 0 400 459" xmlns="http://www.w3.org/2000/svg">
 <g stroke="#000">
  <path d="M199.85 2.506H397.5v265c0 104.38-88.436 188.99-197.5 188.99-109.07 0-197.5-84.612-197.5-188.99v-265z" fill="#0093dd" stroke-width="5"/>
  <g transform="scale(1.6484) rotate(2.5 246.56 -238.2)" fill="#fcdb00" fill-rule="evenodd" stroke-width="3">
   <path d="M44.177 157.6a10 10 0 0 0 .63 14.114A10 10 0 0 0 52 174.331l1.44 32.97a10 10 0 0 0-6.937 3.234 10 10 0 0 0 .617 14.13 10 10 0 0 0 14.129-.618 10 10 0 0 0 2.616-7.192l32.97-1.438a10 10 0 0 0 3.234 6.935 10 10 0 0 0 14.13-.617 10 10 0 0 0-.618-14.129 10 10 0 0 0-7.192-2.616l-1.875-42.96-42.96 1.876a10 10 0 0 0-3.234-6.937 10 10 0 0 0-14.129.617 10 10 0 0 0-.013.014zm20.212 18.648.077-.084a8.5 8.5 0 0 1 14.263 2.864 8.5 8.5 0 1 1 11.094 10.168 8.5 8.5 0 1 1-10.165 11.093 8.5 8.5 0 1 1-11.095-10.164 8.5 8.5 0 0 1-4.174-13.878z" stroke-linejoin="round" style="paint-order:markers fill stroke"/>
   <path d="m133.48 75.862 11.236 10.296 12.161-13.271 4.424 4.053-12.161 13.271 23.034 21.107 12.16-13.27 4.424 4.053-12.16 13.271 11.235 10.296 7.432-8.11-6.636-6.08 4.759-5.193 6.635 6.08 7.657-8.356-11.236-10.296-2.927 3.194-4.423-4.054 10.614-11.583 4.423 4.054-2.928 3.195 11.236 10.296 7.658-8.356-6.636-6.08 4.76-5.194 6.635 6.08 7.432-8.11-11.236-10.296-12.161 13.27-4.424-4.053 12.16-13.27-23.033-21.108-12.161 13.271-4.424-4.053 12.161-13.271-11.236-10.296-7.431 8.11 6.635 6.08-4.76 5.194-6.635-6.08-7.657 8.356 11.236 10.296 2.928-3.195 4.424 4.053-10.614 11.583-4.424-4.053 2.927-3.194-11.236-10.296-7.657 8.356 6.635 6.08-4.758 5.193-6.636-6.08z" style="paint-order:markers fill stroke"/>
   <rect transform="rotate(-47.5)" x="-54.769" y="178.74" width="168.55" height="15.307" ry="7.653" stroke-linejoin="round" style="paint-order:markers fill stroke"/>
   <rect transform="rotate(-47.5)" x="-58.935" y="166.94" width="9.836" height="39.166" ry="4.918" stroke-linejoin="round" style="paint-order:markers fill stroke"/>
  </g>
  <g fill="#fff" stroke-width="5">
   <path d="m215.34 291.94 76.026-76.026 10.036 10.036-76.026 76.026z" fill-rule="evenodd" stroke-linejoin="round" style="paint-order:markers fill stroke"/>
   <path d="m51.63 82.613-3.443-33.855 33.855 3.443 191.18 181.86-39.737 39.736z" fill-rule="evenodd" style="paint-order:markers fill stroke"/>
   <path d="m48.187 48.757 193.51 193.51"/>
   <path d="m252.75 274.61 51.69 47.073a24.725 24.725 0 0 0 6.22 24.518 24.725 24.725 0 0 0 34.966 0 24.725 24.725 0 0 0 0-34.967 24.725 24.725 0 0 0-24.516-6.222l-47.073-51.69z" fill-rule="evenodd" stroke-linejoin="round" style="paint-order:markers fill stroke"/>
  </g>
 </g>
</svg>
