<?xml version="1.0" encoding="UTF-8"?>
<!-- Created with Inkscape (http://www.inkscape.org/) -->
<svg id="b" width="210.67" height="246.76" version="1.0" xml:space="preserve" xmlns="http://www.w3.org/2000/svg" xmlns:xlink="http://www.w3.org/1999/xlink"><path d="m1.0004 1 3.793 159.38c2.7093 113.84 198.37 113.84 201.08 0l3.793-159.38z" fill="#e65f4a" stroke="#000" stroke-width="1.89"/><g id="a" stroke="#000" stroke-linecap="round" stroke-linejoin="round"><path d="m154.62 161.26c3.5583 7.7636 2.7496 24.908-15.527 25.555-18.277 0.64697-27.981-19.732-27.981-39.465 0-31.004 26.324-68.715 57.055-66.339 10.859 0.83948 14.438 8.4442 16.897 16.113 1.2474 3.8886-0.82127 7.8921-2.2972 10.271-12.421 20.017-28.465 22.353-24.588 36.721-9.381-2.2644-17.126-7.1657-11.16-17.953 6.8784-12.438 0.97607-16.951-6.6314-13.586-15.318 6.7746-22.159 26.003-22.159 35.745 0 13.118 6.6836 25 18.509 25 10.78 0 14.26-6.7217 17.883-12.06z" fill="#fcd930" stroke-width="1.5118"/><path d="m161.54 111.89c6.1774-8.2833-2.4407-16.595-16.847-11.793-38.749 12.916-37.626 86.203-4.3522 77.217" fill="none" stroke-width=".75591"/><path d="m128.07 132.27 54.87 48.916c0.88443 0.78847 2.3964 1.5938 3.54 0.32182 1.9713-2.1926-0.31275-1.9367-1.77-3.2182l-54.709-48.112c-0.39669-0.34885-0.80454-1.9309-1.4482-0.64364s-1.9309 2.0918-0.48273 2.7355z" fill="#fcd930" stroke-width="1.5118"/><path d="m131.74 90.946c1.7918-3.9782 3.5579-5.775 4.736-6.66 1.8379-1.3807 10.508-9.398 11.026-9.768 0.518-0.37 1.332-0.962 1.406-2.294 0.074-1.332-0.6233-3.3497 1.554-5.106 18.411-14.851 36.382-28.842 39.431-27.193 2.1262 1.1497 3.3604 0.53397 4.9301-0.91732 1.8062-1.67 7.1417-5.8167 7.7337-6.4827 0.592-0.666 3.3049-0.34347 1.1114 1.8849-1.6901 1.717-7.992 6.586-8.288 6.808-0.29601 0.222-1.5715 0.97216-1.998 3.182-0.95876 4.9675-15.785 16.1-33.966 30.562-3.6561 2.9082-8.3456 0.43254-9.3816 1.8385-1.036 1.406-13.296 10.328-14.518 11.946-1.1772 1.5593-2.001 2.9393-2.963 3.3833-0.96201 0.444-1.2102-0.30428-0.81401-1.184z" fill="#fcd930" stroke-width="1.5118"/><path d="m160.15 59.688c0-1.159-0.40735-2.0201 0.32194-3.4126 0.83381-1.5921 1.8737-5.4471 2.5755-6.4388 3.1459-4.4452 0.88202-6.4161-0.5989-3.7118s-5.0672 10.988-4.7453 12.662c0.32194 1.6741 2.1892 5.5374-0.0644 8.0485-2.2536 2.5111-5.3296 5.2073-4.7647 6.2456 1.1042 2.0297 5.916-2.318 7.0288-3.2761 1.1138-0.95891 3.2732-0.78034 4.6254 0.63619 1.3522 1.4165 1.711 1.979 3.6057 1.996 1.7996 0.01618 8.5636 0.38633 9.465 0.32194 0.90143-0.06439 3.0262-2.1892 0-2.318-3.0262-0.12878-10.817 0.45072-11.075-0.70827" fill="#fcd930" stroke-width="1.5118"/><path d="m169.39 52.172c0-1.159-0.0891-1.7322 0.4182-3.22 0.64128-1.8809 3.2979-7.5277 3.8029-8.6528 0.87581-1.9515-0.99369-3.175-1.8262-1.4978-1.4963 3.0145-4.6679 11.019-4.7453 12.662-0.12993 2.7562 0.40833 7.2942-0.52165 8.3854-2.1885 2.568-2.4176 2.7286-3.6817 5.0664m1.1628 1.4714c1.382-0.92626 3.1078-2.7962 3.8927-3.472 1.1138-0.95891 2.4281-0.8817 4.8428-0.72155 1.7822 0.1182 1.5185 1.233 3.4132 1.25 1.7996 0.01618 10.032-0.02279 10.933-0.08718s2.7856-1.6838-0.24066-1.8126c-3.0262-0.12878-8.6994-0.29532-10.305-0.20288" fill="#fcd930" stroke-width="1.5118"/><path d="m178.5 45.31c0-1.159-0.0891-1.7322 0.4182-3.22 0.64128-1.8809 2.8807-7.2709 3.3857-8.3961 0.87581-1.9515-1.066-2.9662-1.7942-1.2411-1.2872 3.0493-4.9947 11.629-5.0662 13.207-0.12455 2.7482 0.72924 6.4919-0.20074 7.5831-2.1885 2.568-2.1992 1.6983-3.4571 4.0395-1.0753 2.0013 0.35556 1.5154 1.0665 1.1826 1.5068-0.70537 2.8832-1.8014 3.668-2.4772 1.1138-0.95891 1.9467-0.84961 4.3614-0.68946 1.7822 0.1182 2.4812 1.265 4.3759 1.2821 1.7996 0.01618 10.038 0.03789 10.933-0.08718 0.46081-0.06439 1.7404-1.6838-0.24066-1.8126-3.0226-0.19648-9.3412-0.35951-10.946-0.26707" fill="#fcd930" stroke-width="1.5118"/><path d="m187.82 40.035c0-0.93799 0.31309-1.4661 0.56289-2.0605 0.62305-1.4825 2.539-6.1886 2.9474-7.0992 0.70835-1.5794-1.1567-2.698-1.8301-1.3406-1.2102 2.4397-3.7754 8.9181-3.838 10.247-0.10509 2.2307-0.72876 5.5182-1.4809 6.4014-1.77 2.0784-1.9554 2.2083-2.9778 4.1003m0.94044 1.1908c1.1178-0.74964 2.5136-2.2631 3.1484-2.81 0.9008-0.77606 2.0883-0.89855 4.0452-0.93697 1.666-0.03271 0.87514 1.3509 2.4076 1.3646 1.4555 0.01309 8.0493-0.72446 8.7784-0.77657 0.72908-0.05211 2.3785-2.3615-0.0663-2.2051-2.3834 0.15251-7.3248 1.1409-8.6232 1.2157" fill="#fcd930" stroke-width="1.5118"/></g><path d="m92.302 196.25c-5.4272-3.9803-3.4129-8.1272-0.71887-12.58 2.2191-3.6678 7.6951-10.007 10.244-23.543 6.2852-33.38-16.199-69.008-28.146-86.894-4.6245-6.9228-1.3469-16.441 0.44832-20.215 1.7088-3.5925 18.912-8.3406 24.281-10.917 4.1571-1.9947 6.3157-6.7186 7.2143-9.7738 0.89858 3.0552 3.0572 7.779 7.2143 9.7738 5.3697 2.5766 22.573 7.3248 24.281 10.917 1.7952 3.774 5.0728 13.292 0.44832 20.215-11.948 17.886-34.432 53.514-28.146 86.894 2.5487 13.535 8.0247 19.875 10.244 23.543 2.694 4.4529 4.7083 8.5998-0.71887 12.58-6.8569 5.0289-10.833 7.2023-13.323 13.655-2.4894-6.4527-6.4657-8.6261-13.323-13.655z" fill="#fcd930" stroke="#000" stroke-linecap="round" stroke-linejoin="round" stroke-width="1.5118"/><path d="m105.41 50.552v142.31" fill="none" stroke="#000" stroke-linecap="round" stroke-linejoin="round" stroke-width=".94488"/><use transform="matrix(-1 0 0 1 210.67 0)" xlink:href="#a"/><rect x="84.908" y="138.64" width="40.851" height="17.599" ry="2.5482" fill="#fcd930" stroke="#000" stroke-linecap="round" stroke-linejoin="round" stroke-width="1.5118"/><rect x="79.095" y="143.66" width="52.477" height="7.4058" ry="2.6677" fill="#fcd930" stroke="#000" stroke-linecap="round" stroke-linejoin="round" stroke-width="1.5118"/></svg>
