<?xml version="1.0" encoding="UTF-8"?>
<svg width="540" height="620"  xmlns="http://www.w3.org/2000/svg">
<path d="M4.5 4.5h531V350a265.5 265.5 0 0 1-531 0z" fill="#fff" stroke="#000" stroke-width="9"/>
<path d="M13.352 13.352v336.65c0 67.19 27.659 133.97 75.17 181.48 47.511 47.511 114.29 75.17 181.48 75.17v-274.75c8.932-3.021 17.282-5.701 26.557-5.701 9.71 0 18.388 2.92 27.801 6.113 9.392 3.186 19.318 6.643 31.014 6.643 11.696 0 21.659-3.457 31.02-6.645 9.41-3.192 18.088-6.111 27.795-6.111 9.71 0 18.433 2.921 27.797 6.111h.002l.004.002c9.392 3.186 19.318 6.643 31.014 6.643s21.659-3.456 31.02-6.645c9.41-3.191 18.088-6.111 27.795-6.111 1.614 0 3.193.105 4.76.254v-98.053a60.333 60.333 0 0 0-4.76-.201c-11.696 0-21.622 3.457-31.014 6.642l-.004.002h-.002c-9.364 3.19-18.086 6.112-27.795 6.112s-18.39-2.921-27.803-6.114c-9.359-3.188-19.32-6.642-31.014-6.642-11.696 0-21.62 3.457-31.012 6.642l-.004.002h-.004c-9.364 3.19-18.086 6.111-27.795 6.111-9.71 0-18.388-2.92-27.8-6.113-9.393-3.185-19.319-6.642-31.015-6.642-9.884 0-18.458 2.485-26.557 5.173V13.354H13.352z"/>
<path d="M296.56 238.2c-9.882 0-18.459 2.48-26.557 5.168v10.533c8.932-3.021 17.282-5.701 26.557-5.701 9.71 0 18.388 2.92 27.801 6.113 9.392 3.186 19.318 6.643 31.014 6.643s21.659-3.457 31.02-6.645c9.41-3.192 18.088-6.111 27.795-6.111 9.71 0 18.432 2.921 27.797 6.111h.002l.004.002c9.392 3.186 19.318 6.643 31.014 6.643s21.659-3.456 31.02-6.645c9.41-3.191 18.088-6.111 27.795-6.111 1.282 0 2.545.056 3.797.152v-10.016a59.896 59.896 0 0 0-3.797-.136c-11.696 0-21.622 3.457-31.014 6.642l-.004.002h-.002c-9.364 3.19-18.085 6.111-27.795 6.111s-18.39-2.92-27.803-6.113c-9.359-3.188-19.32-6.642-31.014-6.642-11.696 0-21.62 3.457-31.012 6.642l-.004.002h-.004c-9.364 3.19-18.085 6.111-27.795 6.111s-18.388-2.92-27.8-6.113c-9.393-3.185-19.319-6.643-31.015-6.643zm0 22.666c-9.882 0-18.459 2.48-26.557 5.168v10.533c8.932-3.021 17.282-5.701 26.557-5.701 9.71 0 18.388 2.92 27.801 6.113 9.392 3.186 19.318 6.643 31.014 6.643s21.659-3.457 31.02-6.645c9.41-3.191 18.088-6.111 27.795-6.111 9.71 0 18.432 2.922 27.797 6.111l.002.002h.004c9.392 3.186 19.318 6.643 31.014 6.643s21.659-3.457 31.02-6.645c9.41-3.191 18.088-6.111 27.795-6.111 1.282 0 2.545.056 3.797.152v-10.016a59.896 59.896 0 0 0-3.797-.136c-11.696 0-21.622 3.457-31.014 6.642l-.004.002h-.002c-9.364 3.19-18.085 6.111-27.795 6.111s-18.39-2.92-27.803-6.113c-9.359-3.188-19.32-6.642-31.014-6.642-11.696 0-21.62 3.457-31.012 6.642l-.004.002h-.004c-9.364 3.19-18.085 6.111-27.795 6.111s-18.388-2.92-27.8-6.113c-9.393-3.186-19.319-6.643-31.015-6.643zm0 22.666c-9.882 0-18.459 2.482-26.557 5.17v10.53c8.932-3.02 17.282-5.7 26.557-5.7 9.71 0 18.388 2.92 27.801 6.113 9.392 3.186 19.318 6.645 31.014 6.644 11.696 0 21.659-3.458 31.02-6.646 9.41-3.192 18.088-6.111 27.795-6.111 9.71 0 18.432 2.921 27.797 6.111l.002.002h.004c9.392 3.186 19.318 6.644 31.014 6.644s21.659-3.458 31.02-6.646c9.41-3.191 18.088-6.111 27.795-6.111 1.282 0 2.545.056 3.797.152v-10.016a59.867 59.867 0 0 0-3.797-.137c-11.696 0-21.622 3.46-31.014 6.645h-.004l-.002.002c-9.364 3.19-18.085 6.111-27.795 6.111-9.707 0-18.387-2.92-27.797-6.111-9.36-3.189-19.324-6.647-31.02-6.647s-21.62 3.46-31.012 6.645h-.004l-.004.002c-9.364 3.19-18.085 6.111-27.795 6.111s-18.388-2.92-27.8-6.113c-9.393-3.186-19.319-6.645-31.015-6.645zm0 22.668c-9.882 0-18.459 2.48-26.557 5.168v10.533c8.932-3.021 17.282-5.701 26.557-5.701 9.71 0 18.388 2.92 27.801 6.113 9.392 3.186 19.318 6.643 31.014 6.643s21.659-3.457 31.02-6.645c9.41-3.191 18.088-6.111 27.795-6.111 9.71 0 18.432 2.921 27.797 6.111h.002l.004.002c9.392 3.186 19.318 6.643 31.014 6.643s21.659-3.456 31.02-6.645c9.41-3.191 18.088-6.111 27.795-6.111 1.282 0 2.545.057 3.797.152v-10.016a59.896 59.896 0 0 0-3.797-.136c-11.696 0-21.622 3.457-31.014 6.642l-.004.002h-.002c-9.364 3.19-18.085 6.111-27.795 6.111s-18.39-2.92-27.803-6.113c-9.359-3.188-19.32-6.642-31.014-6.642-11.696 0-21.62 3.457-31.012 6.642l-.004.002h-.004c-9.364 3.19-18.085 6.111-27.795 6.111s-18.388-2.92-27.8-6.113c-9.393-3.185-19.319-6.643-31.015-6.643z" fill="#0093dd"/>
<path d="M380.09 194.75c1.668-2.011 2.95-4.399 4.194-6.686 1.787-3.488 3.717-7.286 4.346-11.175 6.438 2.435 14.163 2.416 19.89-1.754 4.051-2.72 6.477-6.795 10.59-9.426 3.76-2.578 7.553-3.402 10.75-6.404 3.317-2.945 5.524-7.044 6.19-11.423.192-1.926.072-3.894.02-5.819 6.657 1.363 13.829-.82 20.139-2.854-4.008-5.419-9.03-10.126-14.663-13.82 2.073-2.316 3.827-4.809 4.727-7.82 1.678-5 .8-10.627-1.763-15.168-1.191-2.23-3.036-4.466-3.512-6.967-.61-3.737-.31-7.31-1.401-10.984-1.34-4.97-4.785-9.226-9.297-11.675-2.383-1.163-5.061-1.82-7.682-2.178 3.602-5.99 3.622-12.805 3.479-19.572-6.334 2.554-13.457 5.318-18.833 9.612-1.563-2.864-3.35-5.462-5.986-7.44-3.002-2.453-7.1-3.564-10.898-3.86-3.803-.028-7.715 1.32-11.475 1.821-1.62.21-3.002-.233-4.57-.529-2.597-.505-5.113-1.015-7.777-.838-3.731.247-7.367 1.734-10.412 3.869-2.616 1.82-4.56 4.613-6.085 7.363-5.614-4.323-12.1-7.068-18.757-9.336-.02 6.581.634 13.891 4.027 19.681-5.81.8-11.175 3.531-14.34 8.606-3.12 4.952-3.04 10.317-3.65 15.907-.572 4.204-3.316 6.648-4.65 10.58-.987 3.078-1.821 6.018-1.068 9.263.629 4.208 2.754 7.93 5.809 10.851-5.509 4.056-9.86 9.355-13.338 15.206 5.852 1.573 12.766 2.998 18.738 1.516-.534 4.365-.205 8.61 2.106 12.447 2.159 3.807 5.552 6.285 9.378 8.249 2.507 1.3 5.376 2.511 7.415 4.503 2.321 2.178 4.175 5.29 6.834 6.981 3.069 2.054 6.686 3.083 10.365 3.145 3.936.148 7.568-.957 11.17-2.41 1.172 4.64 3.326 8.806 5.919 12.8 1.267 1.953 2.55 3.973 4.074 5.737z"/>
<path d="M359.17 174.66c-2.891-.003-5.725-.721-8.285-2.469-2.64-1.8-4.25-4.957-6.738-7.069-3.798-3.397-9.388-4.42-13.228-8.218-2.802-2.697-4.423-6.469-4.28-10.37.229-5.09 2.988-9.86 7.02-12.909 3.579-2.845 8.073-3.86 12.305-5.328 2.463-.805 5.113-1.845 7.715-1.969 1.453-.01 1.72 1.407 1.763 2.565.048 1.106-.854 1.835-1.511 2.597-.796.796-1.395 1.696-1.934 2.682 2.669-.553 4.913-1.83 7.734-1.668-.171 1.725-.51 3.384-1.258 4.961-1.587 3.45-3.304 6.78-4.347 10.455 4.584-3.274 8.73-7.239 13.505-10.227.429.815 1.13 1.75 1.158 2.683.081 1.683-.185 3.393-.275 5.08l1.328.03c.581-1.392 1.16-2.784 1.684-4.2 1.32-.128 2.72-.3 4.04-.161 1.483 1.539 1.192 3.913 1.15 5.867-.473 6.48.294 12.264-2.165 18.478-1.477 3.864-4.695 6.814-8.63 8.049-2.219.712-4.502 1.143-6.75 1.14zm38.896-.14c-2.717.08-5.468-.497-7.832-1.637-5.142-2.526-8.192-7.635-9.107-13.162-.243-2.164-.182-4.362-.267-6.536-.048-4.136-.41-7.99 1.005-11.974 1.515-.005 3.032.004 4.547.004.682 2.097 1.315 4.05 3.068 5.523.477-2.378.03-4.608-.199-6.976.767-.243 1.605-.685 2.42-.676 1.144.31 2.13 1.396 2.988 2.178 2.664 2.668 5.757 4.937 9.002 6.848-.672-2.03-1.445-4.032-2.217-6.024-1.239-3.255-2.962-6.082-3.644-9.551 2.745-.105 4.899 1.048 7.353 2.025.586.234 2.207.41 1.649-.672-1.1-1.134-3.227-1.847-3.875-3.32-.696-1.606.143-4.16 2.201-3.984 2.993.038 6.172 1.4 9.002 2.32 4.084 1.315 8.307 2.75 11.661 5.524 2.893 2.297 5.366 5.36 6.21 9.025 1.02 3.78-.797 8.13-3.118 11.084-3.03 3.708-6.971 4.87-10.931 7.182-4.027 2.249-7.248 5.909-10.508 9.035-2.48 2.471-5.915 3.66-9.408 3.763zm-36.273-5.157c.991.015 1.981-.113 2.889-.428 2.273-.924 3.393-2.787 4.427-4.889-2.416 1.058-4.41 2.564-7.207 1.91-3.054-.695-4.813-3.978-6.652-6.242-3.136-4.184-7.292-7.476-12.305-9.091-2.669-.939-5.457-1.335-6.891-4.094-1.387-2.516-.391-4.614-.01-7.201-1.14.934-2.397 1.844-2.983 3.25-.92 2.058-1.191 4.87.095 6.838 1.568 2.607 4.076 4.04 6.887 4.994 2.879.94 5.58 2.054 7.934 4.008 2.273 1.944 4.07 4.151 5.937 6.462 1.41 1.663 2.787 3.427 4.975 4.065.917.248 1.91.403 2.902.418zm34.012-.25a9.712 9.712 0 0 0 2.545-.35c2.01-.69 3.507-2.64 4.813-4.226 2.42-3.083 5.271-5.98 8.573-8.115 3.212-2.12 7.346-2.769 10.711-4.551 2.483-1.354 4.356-3.827 4.137-6.767-.062-2.688-1.696-4.417-3.707-5.951.257 1.573.833 3.265.729 4.86a5.556 5.556 0 0 1-3.04 4.09c-2.592 1.343-5.59 2.02-8.296 3.15-3.298 1.314-6.315 3.435-8.607 6.156-1.925 2.297-3.622 4.995-5.828 7.025-1.12 1.115-3.155.961-4.594.775-2.12-.329-3.579-1.72-5.275-2.896.58 1.734 1.096 3.826 2.587 5.008 1.462 1.238 3.357 1.799 5.252 1.792zm-64.114-42.058a25.302 25.302 0 0 1-4.06-.226c-3.889-.658-7.493-2.712-9.742-5.99-2.345-3.34-3.06-7.605-1.878-11.521 1.082-4.027 3.96-6.73 4.933-10.771 1.129-4.051.514-8.148 1.668-12.16.89-3.641 3.245-6.877 6.453-8.817 3.579-2.116 8.086-2.697 12.06-1.44 4.27 1.302 7.902 4 10.785 7.363 2.397 2.874 4.665 5.895 6.638 9.078.686 1.301 1.61 2.617.577 4.032-.772 1.32-2.026.862-3.217.514-1.61-.615-3.111-1.362-4.836-1.62.705 1.187 1.557 2.039 2.638 2.887 1.187.93 1.913 2.16 2.66 3.438-1.434.814-2.755 1.341-4.437 1.122-4.103-.471-8.216-.68-12.348-.537 3.612 3.007 8.025 4.59 11.732 7.4 1.049.759 1.145 1.51.95 2.735-1.688 1.258-4.157 1.207-6.073 2.137 1.45.872 3.032 1.265 4.6 1.828 1.2.429 1.735 1.868 1.182 2.998-.596 1.253-1.901 2.04-3.06 2.711-3.211 1.897-6.895 2.545-10.57 3.712a23.682 23.682 0 0 1-6.656 1.127zm95.646-.14c-1.725-.025-3.452-.291-5.156-.725-3.746-.962-7.744-1.854-11.21-3.574-1.4-.667-3.063-1.452-4.054-2.682-.958-1.077-.038-2.869.967-3.564 1.454-.768 3.222-.935 4.766-1.521-1.625-1.168-3.431-.962-5.214-1.61-.934-.396-.858-1.355-.505-2.14.715-1.226 2.115-2.145 3.273-2.917 2.878-1.887 5.757-3.727 8.44-5.9-4.094-.196-7.995.316-12.065.525-1.149.02-2.494.09-3.58-.34-.515-.447-.93-1.015-1.378-1.53 1.773-1.762 3.784-3.24 5.495-5.07-1.587-1.029-3.884 1.007-5.438 1.48-1.491.661-3.725.056-3.797-1.821.367-1.692 1.654-3.25 2.56-4.709 3.345-5.085 6.846-10.365 12.155-13.596 4.299-2.63 9.584-3.422 14.34-1.568 4.39 1.41 7.34 5.16 8.66 9.454 1.19 4.227.275 9.893 2.233 13.986 1.668 3.26 3.932 5.733 4.785 9.464.61 3.026.53 6.467-.785 9.311-1.701 3.99-5.139 7.172-9.351 8.32-1.695.532-3.416.75-5.14.725zm-99.058-5.055c1.152.046 2.232-.28 3.426-.512-1.82-.477-3.485-.919-4.71-2.463-1.648-1.758-1.958-4.374-.7-6.443 1.548-2.568 4.207-4.44 5.923-6.938 1.072-1.544 1.613-3.36 1.717-5.228.21-4.127-.238-8.286.024-12.408.09-1.659.937-3.18 2.486-3.871 2.144-1.006 4.19-.619 6.453-.514-1.368-1.205-2.587-2.496-4.521-2.635-3.646-.314-8.083 2.011-8.684 5.905-.69 4.284.253 8.948-.638 13.242-.734 3.202-2.741 5.61-4.667 8.164-1.448 1.982-2.762 3.85-2.714 6.427-.23 3.35 2.334 6.195 5.421 7.087a5.12 5.12 0 0 0 1.184.187zm102.52-.631c.82-.015 1.621-.146 2.346-.59 2.006-1.143 3.92-3.145 4.044-5.566.215-2.74-.915-5.028-2.459-7.192-1.872-2.706-4.535-5.27-5.15-8.625-.529-3.955-.32-8.054-1.012-12-.395-2.186-1.552-4.264-3.415-5.527-2.102-1.506-4.847-1.915-7.301-1.138-1.144.457-2.098 1.524-2.932 2.397 2.054.01 4.728-.506 6.606.452 1.763.863 2.511 2.878 2.912 4.674.714 4.437-.13 9.103.384 13.535.734 3.446 3.751 5.785 6.053 8.191 1.377 1.53 2.854 3.637 2.068 5.791-.777 2.621-2.782 3.682-4.607 5.489.803.023 1.642.124 2.462.11zm-40.333-29.416c-.832-.034-1.554-.264-1.869-1.253-.486-1.711.507-3.87 1.088-5.485-.281-.315-.56-.635-.84-.95-.991 1.568-1.658 3.298-2.602 4.885-.457.805-1.978 1.368-2.564.42-.781-1.106-1.067-2.636-1.42-3.922-.844-3.589-2.054-7.068-2.893-10.656-.996 2.659-2.014 5.251-2.562 8.048-.505 2.526-.991 4.996-2.178 7.307-3.197-1.158-3.38-4.256-6.105-5.943.133 2.502.749 4.912.992 7.4-1.673.067-3.742.477-5.172-.6-2.159-1.568-3.892-3.788-5.66-5.77-3.48-4.09-6.215-8.55-6.553-14.05-.477-5.866 2.63-11.842 7.53-15.035 2.182-1.367 4.792-2.19 7.36-2.376 3.636-.162 7.472 1.267 10.984 1.582 3.36-.014 6.605-1.649 9.989-1.854 4.355-.424 8.745.762 11.934 3.84 5.728 5.542 6.995 15.203 3.025 22.084-1.987 3.56-4.621 6.8-7.437 9.73-1.14 1.12-2.503 2.507-4.19 2.588a11.125 11.125 0 0 1-.857.01zm8.4-18.613c1.201-2.64 1.879-5.41.55-8.164-1.435-2.774-4.695-4.046-7.669-4.18-2.916-.123-5.37.806-8.068 1.73-2.03.706-4.07.658-6.19.577-2.468-.095-4.885-1.225-7.339-1.677-2.94-.553-6.266-.38-8.953 1.035-1.916 1.005-3.432 2.716-3.8 4.894-.337 1.901.354 3.768.963 5.541 1.073-2.454 2.136-6.6 5.242-7.11 4.794-1.277 8.511 1.129 13.086 1.848 4.88.777 9.966-2.416 14.655-2.773 2.521-.248 5.137 1.063 6.381 3.269.672 1.549.809 3.366 1.143 5.01z" fill="#f00000"/>
<path d="M379.96 187.7c-1.959-2.52-3.63-5.336-4.856-8.281-.833-2.13-1.439-4.438-.314-6.592 1.067-1.996 2.636-3.74 3.908-5.617 1.496 2.164 3.173 4.126 4.945 6.06 1.325 1.297 1.207 2.779.797 4.452-1.025 3.46-2.67 6.862-4.48 9.978zm-61.993-47.749c-2.396-.03-4.863-.425-7.146-.693 2.001-2.912 4.274-5.876 7.129-8.006.9-.648 1.986-1.358 3.101-1.52 1.134-.048 2.326.405 3.422.672 1.773.496 3.584.739 5.414.953-1.654 1.71-3.117 3.506-4.514 5.432-1.058 1.453-2.391 2.588-4.207 2.931-1.035.184-2.11.245-3.199.231zm122.27-1.426a21.125 21.125 0 0 1-3.017-.263c-1.888-.32-2.998-1.548-4.213-2.897a55.783 55.783 0 0 0-4.428-4.517c2.373-.4 4.728-.787 7.006-1.582 1.43-.382 2.85-1.145 4.246-.268 3.464 2.092 6.361 5.304 9.24 8.125-2.92.887-5.843 1.45-8.834 1.402zM348.16 74.707a107.2 107.2 0 0 0-5.574-2.31c-1.368-.544-2.626-1.012-3.455-2.313-2.416-3.707-3.284-8.27-3.584-12.617 3.135 1.354 6.286 2.81 9.193 4.612 1.435.958 3.007 2.073 3.188 3.94.262 2.884.046 5.796.232 8.688zm61.335-.351c-.057-2.783-.295-5.552-.428-8.33-.071-1.802 1.568-2.86 2.874-3.756 3.169-1.954 6.548-3.593 9.993-4.994.014 3.95-.557 8.358-2.816 11.703-1.096 1.649-2.712 2.411-4.475 3.15-1.74.69-3.409 1.545-5.148 2.227z" fill="#094"/>
<path d="M385.22 136.84a5.815 5.815 0 0 1-2.099-.394 1.484 1.484 0 0 1-.184-.085c-1.135-.629-2.018-1.554-2.678-2.619-.084.14-.124.283-.22.42-1.104 1.714-2.999 2.56-4.85 2.563a6.533 6.533 0 0 1-1.775-.255c-2.506-.52-4.325-2.564-4.649-5.057a1.09 1.09 0 0 1-.008-.1c-.028-.45.068-.904.11-1.358-.831.384-1.745.71-2.793.732a4.825 4.825 0 0 1-2.465-.603 6.96 6.96 0 0 1-3.03-3.377 1.494 1.494 0 0 1-.056-.156c-.704-2.382.192-4.67 1.618-6.363-1.484-.431-3.122-1.25-4.004-2.959l-.001-.001c-1.509-2.928-.713-6.78 2.132-8.672l.03-.02c.89-.558 1.852-.803 2.802-.878-.893-1.457-1.318-3.235-.709-5.02.985-3.075 4.08-4.859 7.07-4.818.104 0 .207.013.309.036 1.27.288 2.352.917 3.321 1.678.133-.966.413-1.919.98-2.792 1.701-2.893 5.381-4.417 8.605-2.8 2.485.98 4.063 3.26 4.382 5.76 1.851-1.187 4.13-1.805 6.443-1.294a1.47 1.47 0 0 1 .143.039c2.01.659 3.291 2.316 4.08 3.842 1.009 1.929.436 3.976-.445 5.483a7.37 7.37 0 0 1 1.55.38c1.794.56 3.017 1.987 3.609 3.548.596 1.573.643 3.331.047 4.909a1.487 1.487 0 0 1-.057.132c-.868 1.76-2.424 2.77-4.107 3.277.126.107.278.19.397.304 1.52 1.374 2.062 3.474 1.559 5.393-.7 2.842-3.307 4.84-6.186 4.847a5.676 5.676 0 0 1-1.978-.352c-.158-.053-.29-.165-.444-.228.191 1.126.124 2.35-.597 3.48a1.494 1.494 0 0 1-.046.07c-1.294 1.802-3.338 3.305-5.806 3.308zm8.99-16.545c-.004 0-.008-.002-.011-.003-.01-.001-.029-.003.01.003z" fill="#fcdb00"/>
<path d="M137.36 88.367c-25.587 31.375-22.967 80.315-29.697 119.44l64.553.377c-.983-23.123-18.283-65.241-10.359-87.461 4.447-13.634 16.85-18.689 16.85-18.689 15.948-8.051 29.193 1.38 29.193 1.38 17.599 13.112 7.396 31.647 7.396 31.647-3.604 7.687-11.663 8.914-11.663 8.914 6.247-5.592 4.816-14.479 4.816-14.479-.834-15.571-16.648-14.707-16.648-14.707-21.22 2.777-15.623 26.375-15.623 26.375 9.12 34.222 50.296 31.731 64.287-.68 13.973-33.57-12.596-58.496-12.596-58.496-19.296-19.125-66.861-21.655-90.508 6.375zm-47.711 125.88c-2.506 0-4.533 3.188-4.533 7.129 0 3.96 2.027 7.17 4.533 7.17h30.891c.105 0 .185.045.314.045h76.627c2.507 0 4.543-3.183 4.543-7.137 0-3.954-2.036-7.148-4.543-7.148h-30.887c-.104-.013-.202-.059-.294-.059zm-15.105 19.811c-2.604.002-4.723 3.392-4.723 7.555 0 4.183 2.12 7.607 4.725 7.607h23.502c.086 0 .166.031.252.031h32.248a.766.766 0 0 0 .283.047h79.855c2.617 0 4.729-3.41 4.729-7.568 0-4.184-2.112-7.582-4.729-7.582h-23.48c-.105 0-.197-.02-.289-.02h-8.682c-.037-.02-.05-.02-.068-.02h-23.473a.765.765 0 0 0-.283-.05H74.546zm12.42 20.93c-2.63 0-4.754 3.439-4.754 7.668 0 4.242 2.125 7.666 4.754 7.666h32.266c.117.02.216.053.32.053h80.055c2.617 0 4.74-3.445 4.74-7.674 0-4.242-2.123-7.68-4.74-7.68h-32.273a1.672 1.672 0 0 0-.295-.031H86.965zm18.037 23.668c-5.265 45.069 2.442 106.32-21.783 146.64 0 0-10.783 16.719-29.277 26.715 0 0 37.835 28.869 66.562-18.107 0 0 7.457 23.4 21.824 41.609 0 0 15.745-10.802 20.707-41.92 0 0 24.046 30.471 62.979 20.48 0 0-13.547-7.634-24.857-28.777-18.687-43.79-21.937-99.612-25.375-146.6-24.926-.003-45.853-.055-70.779-.043z" fill="#fff"/>
<path d="M4.5 4.5h531V350a265.5 265.5 0 0 1-531 0z" fill="none" stroke="#000" stroke-width="9"/>
<path d="M380.09 498.75c1.668-2.011 2.95-4.399 4.194-6.686 1.787-3.488 3.717-7.286 4.346-11.175 6.438 2.435 14.163 2.416 19.89-1.753 4.051-2.721 6.477-6.796 10.59-9.426 3.76-2.579 7.553-3.403 10.75-6.405 3.317-2.945 5.524-7.043 6.19-11.423.192-1.925.072-3.893.02-5.819 6.657 1.363 13.829-.82 20.139-2.854-4.008-5.419-9.03-10.126-14.663-13.82 2.073-2.316 3.827-4.809 4.727-7.82 1.678-5 .8-10.627-1.763-15.168-1.191-2.23-3.036-4.465-3.512-6.967-.61-3.736-.31-7.31-1.401-10.984-1.34-4.97-4.785-9.226-9.297-11.675-2.383-1.163-5.061-1.82-7.682-2.178 3.602-5.99 3.622-12.805 3.479-19.572-6.334 2.554-13.457 5.318-18.833 9.612-1.563-2.864-3.35-5.461-5.986-7.44-3.002-2.453-7.1-3.564-10.898-3.86-3.803-.028-7.715 1.32-11.475 1.821-1.62.21-3.002-.233-4.57-.529-2.597-.505-5.113-1.015-7.777-.838-3.731.247-7.367 1.734-10.412 3.87-2.616 1.82-4.56 4.612-6.085 7.362-5.614-4.323-12.1-7.067-18.757-9.336-.02 6.581.634 13.891 4.027 19.681-5.81.8-11.175 3.531-14.34 8.607-3.12 4.95-3.04 10.317-3.65 15.907-.572 4.203-3.316 6.647-4.65 10.579-.987 3.078-1.821 6.018-1.068 9.263.629 4.208 2.754 7.93 5.809 10.851-5.509 4.056-9.86 9.355-13.338 15.206 5.852 1.573 12.766 2.998 18.738 1.516-.534 4.365-.205 8.61 2.106 12.447 2.159 3.807 5.552 6.285 9.378 8.249 2.507 1.3 5.376 2.511 7.415 4.503 2.321 2.178 4.175 5.29 6.834 6.981 3.069 2.054 6.686 3.084 10.365 3.146 3.936.147 7.568-.958 11.17-2.412 1.172 4.642 3.326 8.807 5.919 12.8 1.267 1.954 2.55 3.975 4.074 5.738z"/>
<path d="M359.17 478.67c-2.891-.003-5.725-.721-8.285-2.469-2.64-1.8-4.25-4.957-6.738-7.069-3.798-3.397-9.388-4.42-13.228-8.218-2.802-2.697-4.423-6.469-4.28-10.37.229-5.09 2.988-9.86 7.02-12.909 3.579-2.845 8.073-3.86 12.305-5.328 2.463-.805 5.113-1.845 7.715-1.969 1.453-.01 1.72 1.407 1.763 2.565.048 1.106-.854 1.835-1.511 2.597-.796.796-1.395 1.696-1.934 2.682 2.669-.553 4.913-1.83 7.734-1.668-.171 1.725-.51 3.384-1.258 4.961-1.587 3.45-3.304 6.78-4.347 10.455 4.584-3.274 8.73-7.239 13.505-10.227.429.815 1.13 1.75 1.158 2.683.081 1.683-.185 3.393-.275 5.08l1.328.03c.581-1.392 1.16-2.784 1.684-4.2 1.32-.128 2.72-.3 4.04-.161 1.483 1.539 1.192 3.913 1.15 5.867-.473 6.48.294 12.264-2.165 18.478-1.477 3.864-4.695 6.814-8.63 8.049-2.219.712-4.502 1.143-6.75 1.14zm38.896-.14c-2.717.08-5.468-.497-7.832-1.637-5.142-2.526-8.192-7.635-9.107-13.162-.243-2.164-.182-4.362-.267-6.536-.048-4.136-.41-7.99 1.005-11.974 1.515-.005 3.032.004 4.547.004.682 2.097 1.315 4.05 3.068 5.523.477-2.378.03-4.608-.199-6.976.767-.243 1.605-.686 2.42-.676 1.144.31 2.13 1.396 2.988 2.178 2.664 2.668 5.757 4.937 9.002 6.848-.672-2.03-1.445-4.032-2.217-6.024-1.239-3.255-2.962-6.082-3.644-9.551 2.745-.105 4.899 1.048 7.353 2.025.586.234 2.207.41 1.649-.672-1.1-1.134-3.227-1.847-3.875-3.32-.696-1.606.143-4.16 2.201-3.984 2.993.038 6.172 1.4 9.002 2.32 4.084 1.315 8.307 2.75 11.661 5.524 2.893 2.297 5.366 5.36 6.21 9.025 1.02 3.779-.797 8.13-3.118 11.084-3.03 3.707-6.971 4.87-10.931 7.181-4.027 2.25-7.248 5.91-10.508 9.036-2.48 2.471-5.915 3.66-9.408 3.763zm-36.273-5.157c.991.015 1.981-.113 2.889-.428 2.273-.924 3.393-2.787 4.427-4.889-2.416 1.058-4.41 2.564-7.207 1.91-3.054-.695-4.813-3.978-6.652-6.242-3.136-4.184-7.292-7.476-12.305-9.091-2.669-.939-5.457-1.335-6.891-4.094-1.387-2.516-.391-4.614-.01-7.201-1.14.934-2.397 1.844-2.983 3.25-.92 2.058-1.191 4.87.095 6.838 1.568 2.607 4.076 4.04 6.887 4.994 2.879.94 5.58 2.054 7.934 4.008 2.273 1.944 4.07 4.151 5.937 6.462 1.41 1.663 2.787 3.427 4.975 4.065.917.248 1.91.403 2.902.418zm34.012-.25a9.695 9.695 0 0 0 2.545-.35c2.01-.69 3.507-2.64 4.813-4.226 2.42-3.083 5.271-5.98 8.573-8.115 3.212-2.12 7.346-2.769 10.711-4.551 2.483-1.354 4.356-3.827 4.137-6.767-.062-2.688-1.696-4.417-3.707-5.951.257 1.573.833 3.265.729 4.86a5.556 5.556 0 0 1-3.04 4.09c-2.592 1.343-5.59 2.02-8.296 3.15-3.298 1.314-6.315 3.435-8.607 6.156-1.925 2.297-3.622 4.995-5.828 7.025-1.12 1.115-3.155.961-4.594.775-2.12-.329-3.579-1.72-5.275-2.896.58 1.734 1.096 3.826 2.587 5.008 1.462 1.238 3.357 1.799 5.252 1.793zm-64.114-42.058a25.302 25.302 0 0 1-4.06-.226c-3.889-.658-7.493-2.712-9.742-5.99-2.345-3.34-3.06-7.605-1.878-11.521 1.082-4.027 3.96-6.73 4.933-10.771 1.129-4.051.514-8.148 1.668-12.16.89-3.641 3.245-6.877 6.453-8.817 3.579-2.116 8.086-2.697 12.06-1.44 4.27 1.302 7.902 4 10.785 7.363 2.397 2.874 4.665 5.895 6.638 9.078.686 1.301 1.61 2.617.577 4.032-.772 1.32-2.026.862-3.217.514-1.61-.615-3.111-1.362-4.836-1.62.705 1.187 1.557 2.039 2.638 2.887 1.187.929 1.913 2.16 2.66 3.438-1.434.814-2.755 1.341-4.437 1.122-4.103-.471-8.216-.68-12.348-.537 3.612 3.007 8.025 4.59 11.732 7.4 1.049.759 1.145 1.51.95 2.735-1.688 1.258-4.157 1.207-6.073 2.137 1.45.872 3.032 1.265 4.6 1.828 1.2.429 1.735 1.868 1.182 2.998-.596 1.253-1.901 2.04-3.06 2.711-3.211 1.897-6.895 2.545-10.57 3.712a23.682 23.682 0 0 1-6.656 1.127zm95.646-.14c-1.725-.025-3.452-.291-5.156-.725-3.746-.962-7.744-1.854-11.21-3.574-1.4-.667-3.063-1.452-4.054-2.682-.958-1.077-.038-2.869.967-3.564 1.454-.768 3.222-.935 4.766-1.521-1.625-1.168-3.431-.962-5.214-1.61-.934-.396-.858-1.355-.505-2.14.715-1.226 2.115-2.145 3.273-2.917 2.878-1.887 5.757-3.727 8.44-5.9-4.094-.196-7.995.316-12.065.525-1.149.02-2.494.09-3.58-.34-.515-.447-.93-1.015-1.378-1.53 1.773-1.762 3.784-3.24 5.495-5.07-1.587-1.029-3.884 1.007-5.438 1.48-1.491.661-3.725.056-3.797-1.821.367-1.692 1.654-3.25 2.56-4.709 3.345-5.085 6.846-10.365 12.155-13.596 4.299-2.63 9.584-3.422 14.34-1.568 4.39 1.41 7.34 5.16 8.66 9.454 1.19 4.227.275 9.893 2.233 13.986 1.668 3.26 3.932 5.733 4.785 9.464.61 3.026.53 6.467-.785 9.311-1.701 3.99-5.139 7.172-9.351 8.32-1.695.532-3.416.75-5.14.725zm-99.058-5.055c1.152.045 2.232-.28 3.426-.512-1.82-.477-3.485-.919-4.71-2.463-1.648-1.758-1.958-4.374-.7-6.443 1.548-2.568 4.207-4.44 5.923-6.938 1.072-1.544 1.613-3.36 1.717-5.228.21-4.127-.238-8.286.024-12.408.09-1.659.937-3.18 2.486-3.871 2.144-1.006 4.19-.619 6.453-.514-1.368-1.205-2.587-2.496-4.521-2.635-3.646-.314-8.083 2.011-8.684 5.905-.69 4.284.253 8.948-.638 13.242-.734 3.202-2.741 5.61-4.667 8.164-1.448 1.982-2.762 3.85-2.714 6.427-.23 3.35 2.334 6.195 5.421 7.087a5.12 5.12 0 0 0 1.184.187zm102.52-.631c.82-.015 1.621-.146 2.346-.59 2.006-1.143 3.92-3.145 4.044-5.566.215-2.74-.915-5.028-2.459-7.192-1.872-2.706-4.535-5.27-5.15-8.625-.529-3.955-.32-8.054-1.012-12-.395-2.186-1.552-4.264-3.415-5.527-2.102-1.506-4.847-1.915-7.301-1.138-1.144.457-2.098 1.524-2.932 2.397 2.054.01 4.728-.506 6.606.452 1.763.863 2.511 2.878 2.912 4.674.714 4.437-.13 9.103.384 13.535.734 3.446 3.751 5.785 6.053 8.191 1.377 1.53 2.854 3.637 2.068 5.791-.777 2.621-2.782 3.682-4.607 5.489.803.023 1.642.124 2.462.11zm-40.333-29.416c-.832-.034-1.554-.264-1.869-1.253-.486-1.711.507-3.87 1.088-5.485-.281-.315-.56-.635-.84-.95-.991 1.568-1.658 3.298-2.602 4.885-.457.805-1.978 1.368-2.564.42-.781-1.106-1.067-2.636-1.42-3.922-.844-3.589-2.054-7.068-2.893-10.656-.996 2.659-2.014 5.251-2.562 8.048-.505 2.526-.991 4.996-2.178 7.307-3.197-1.158-3.38-4.256-6.105-5.943.133 2.502.749 4.912.992 7.4-1.673.067-3.742.477-5.172-.6-2.159-1.568-3.892-3.788-5.66-5.77-3.48-4.09-6.215-8.55-6.553-14.05-.477-5.866 2.63-11.842 7.53-15.035 2.182-1.367 4.792-2.19 7.36-2.376 3.636-.162 7.472 1.267 10.984 1.582 3.36-.014 6.605-1.649 9.989-1.854 4.355-.424 8.745.762 11.934 3.84 5.728 5.542 6.995 15.203 3.025 22.084-1.987 3.56-4.621 6.8-7.437 9.73-1.14 1.12-2.503 2.507-4.19 2.588a11.125 11.125 0 0 1-.857.01zm8.4-18.613c1.201-2.64 1.879-5.41.55-8.164-1.435-2.774-4.695-4.046-7.669-4.18-2.916-.123-5.37.806-8.068 1.73-2.03.705-4.07.658-6.19.577-2.468-.095-4.885-1.225-7.339-1.678-2.94-.552-6.266-.38-8.953 1.035-1.916 1.006-3.432 2.717-3.8 4.895-.337 1.9.354 3.768.963 5.541 1.073-2.454 2.136-6.6 5.242-7.11 4.794-1.277 8.511 1.129 13.086 1.848 4.88.777 9.966-2.416 14.655-2.773 2.521-.248 5.137 1.062 6.381 3.269.672 1.549.809 3.366 1.143 5.01z" fill="#f00000"/>
<path d="M379.96 491.71c-1.959-2.52-3.63-5.336-4.856-8.281-.833-2.13-1.439-4.438-.314-6.592 1.067-1.996 2.636-3.74 3.908-5.617 1.496 2.164 3.173 4.126 4.945 6.06 1.325 1.297 1.207 2.779.797 4.452-1.025 3.46-2.67 6.862-4.48 9.979zm-61.993-47.749c-2.396-.03-4.863-.425-7.146-.693 2.001-2.912 4.274-5.876 7.129-8.006.9-.648 1.986-1.358 3.101-1.52 1.134-.048 2.326.405 3.422.672 1.773.496 3.584.739 5.414.953-1.654 1.71-3.117 3.506-4.514 5.432-1.058 1.453-2.391 2.588-4.207 2.931-1.035.184-2.11.245-3.199.231zm122.27-1.426a21.125 21.125 0 0 1-3.017-.263c-1.888-.32-2.998-1.548-4.213-2.897a55.783 55.783 0 0 0-4.428-4.517c2.373-.4 4.728-.787 7.006-1.582 1.43-.382 2.85-1.145 4.246-.268 3.464 2.092 6.361 5.304 9.24 8.125-2.92.887-5.843 1.45-8.834 1.402zm-92.077-63.818a107.2 107.2 0 0 0-5.574-2.31c-1.368-.544-2.626-1.012-3.455-2.313-2.416-3.707-3.284-8.27-3.584-12.617 3.135 1.354 6.286 2.81 9.193 4.612 1.435.958 3.007 2.073 3.188 3.94.262 2.884.046 5.795.232 8.688zm61.335-.351c-.057-2.783-.295-5.552-.428-8.33-.071-1.802 1.568-2.86 2.874-3.756 3.169-1.954 6.548-3.593 9.993-4.994.014 3.95-.557 8.358-2.816 11.703-1.096 1.649-2.712 2.411-4.475 3.15-1.74.69-3.409 1.545-5.148 2.227z" fill="#094"/>
<path d="M385.22 440.84a5.815 5.815 0 0 1-2.099-.394 1.484 1.484 0 0 1-.184-.085c-1.135-.629-2.018-1.554-2.678-2.619-.084.14-.124.283-.22.42-1.104 1.714-2.999 2.56-4.85 2.563a6.533 6.533 0 0 1-1.775-.255c-2.506-.52-4.325-2.564-4.649-5.057a1.09 1.09 0 0 1-.008-.1c-.028-.45.068-.904.11-1.358-.831.384-1.745.71-2.793.732a4.825 4.825 0 0 1-2.465-.603 6.96 6.96 0 0 1-3.03-3.377 1.494 1.494 0 0 1-.056-.156c-.704-2.382.192-4.67 1.618-6.363-1.484-.431-3.122-1.25-4.004-2.959l-.001-.001c-1.509-2.928-.713-6.78 2.132-8.672l.03-.02c.89-.558 1.852-.803 2.802-.878-.893-1.457-1.318-3.235-.709-5.02.985-3.075 4.08-4.859 7.07-4.818.104 0 .207.013.309.036 1.27.288 2.352.917 3.321 1.678.133-.966.413-1.919.98-2.792 1.701-2.893 5.381-4.417 8.605-2.8 2.485.98 4.063 3.26 4.382 5.76 1.851-1.187 4.13-1.805 6.443-1.294a1.47 1.47 0 0 1 .143.039c2.01.659 3.291 2.316 4.08 3.842 1.009 1.929.436 3.976-.445 5.483a7.37 7.37 0 0 1 1.55.38c1.794.56 3.017 1.987 3.609 3.548.596 1.573.643 3.331.047 4.909a1.487 1.487 0 0 1-.057.132c-.868 1.76-2.424 2.77-4.107 3.277.126.107.278.19.397.304 1.52 1.374 2.062 3.474 1.559 5.393-.7 2.842-3.307 4.84-6.186 4.847a5.676 5.676 0 0 1-1.978-.352c-.158-.053-.29-.165-.444-.228.191 1.126.124 2.35-.597 3.48a1.494 1.494 0 0 1-.046.07c-1.294 1.802-3.338 3.305-5.806 3.308zm8.99-16.545c-.004 0-.008-.002-.011-.003-.01-.001-.029-.003.01.003z" fill="#fcdb00"/>
</svg>
