<?xml version="1.0" encoding="ISO-8859-1" standalone="no"?>
<!DOCTYPE svg PUBLIC "-//W3C//DTD SVG 1.1//EN" "http://www.w3.org/Graphics/SVG/1.1/DTD/svg11.dtd">
<svg
   xmlns:svg="http://www.w3.org/2000/svg"
   xmlns="http://www.w3.org/2000/svg"
   version="1.1"
   width="525" height="612"
   viewBox="0 0 350 408">
  <title>Wappen von Giebenach</title>
  <desc>Wappen der Schweizer Gemeinde Giebenach, Kanton Baselland</desc>
  <path d="M 2,2 h 346 V 233 A 173 173 0 0 1 2,233 z" stroke="black" stroke-width="4" fill="#0056ad" />
  <g fill="none">
    <path d="M 49,162 L 257,320 175,58 93,320 301,162" stroke="black" stroke-width="33" />
    <path d="M 49,162 L 257,320 175,58 93,320 301,162" stroke="white" stroke-width="25" />
    <path d="M 207.4,233.1 L 301,162 49,162 205,280.5" stroke="black" stroke-width="33" />
    <path d="M 197,241 L 301,162 49,162 257,320" stroke="white" stroke-width="25" />
    <path d="M 134,189 L 113.5,254.5 M 213.95,182.45 L 195.5,123.5" stroke="black" stroke-width="33" />
    <path d="M 136.05,182.45 L 103.25,287.25 M 216,189 L 175,58" stroke="white" stroke-width="25" />
  </g>
</svg>
