<?xml version="1.0" encoding="utf-8" standalone="no"?>
<!DOCTYPE svg PUBLIC "-//W3C//DTD SVG 1.1//EN" "http://www.w3.org/Graphics/SVG/1.1/DTD/svg11.dtd">
<svg version="1.1"
   xmlns="http://www.w3.org/2000/svg"
   width="540" height="620" viewBox="0,0 540,620">
  <title>Wappen von Hemmiken</title>
  <desc>Wappen der Schweizer Gemeinde Hemmiken, Kanton Baselland</desc>
  <g stroke="black" stroke-width="4" fill="#0056ad">
    <path d="M 4.5,4.5 h 531 V 350 A 265.5,265.5 0 0,1 4.5,350 z" stroke-width="9" fill="#ffd400" />
    <path d="M 0,0 c 0,96 -20,142 -63,156 l 0,312 a 17,20 0 0,1 -34,0 l 0,-312 c -42,-14 -62,-60 -63,-156 z" transform="translate(519,254) rotate(53)" />
    <path d="M 0,0 a 500,500 0 0,1 146,0 l 1,18 -57,0 0,19 58,0 1,28 -59,0 0,17 59,0 -1,26 -58,0 0,18 57,0 -1,14 a 200,200 0 0,1 -56,16 l 0,312 a 17,20 0 0,1 -34,0 l 0,-312 a 200,200 0 0,1 -56,-16 l -1,-14 57,0 0,-18 -58,0 -1,-26 59,0 0,-17 -59,0 1,-28 58,0 0,-19 -57,0 1,-18 z" transform="translate(35,225) rotate(-48)" />
    <path d="M 244,114 a 231,40 0 1,1 54,0 l -6,443 a 20,25 0 0,1 -40,0 z" />
  </g>
</svg>
