<?xml version="1.0" encoding="UTF-8"?>
<!-- Created with Inkscape (http://www.inkscape.org/) -->
<svg id="a" width="237.71" height="278.44" version="1.0" xmlns="http://www.w3.org/2000/svg">
 <path d="m1 1 4.2856 180.01c3.0611 128.58 224.08 128.58 227.14 0l4.2856-180.01z" fill="#246fcb" stroke="#000" stroke-width="2"/>
 <path d="m202.48 216.44c6.1338 0.9035 7.0642-0.617 6.7846-6.7846-1.1056-24.392 15.867-40.91-0.7478-64.027-17.459-24.292-60.326 0.45084-60.326-16.543s40.925 6.3039 60.326-16.543c17.578-20.7-2.4507-42.313 0.7478-64.027 0.90348-6.1338-0.61704-7.0642-6.7846-6.7846-24.392 1.1056-40.91-15.867-64.027 0.74784-24.292 17.459 0.45084 60.326-16.543 60.326s6.3039-40.925-16.543-60.326c-20.7-17.578-42.313 2.4506-64.027-0.74784-6.1338-0.90346-7.0642 0.61707-6.7847 6.7846 1.1056 24.392-15.867 40.91 0.74784 64.027 17.459 24.292 60.326-0.45084 60.326 16.543s-40.925-6.3039-60.326 16.543c-17.578 20.7 2.4506 42.313-0.74784 64.027-0.90346 6.1337 0.61707 7.0642 6.7847 6.7846 24.392-1.1056 40.91 15.867 64.027-0.7478 24.292-17.459-0.45084-60.326 16.543-60.326s-6.3039 40.925 16.543 60.326c20.7 17.578 42.313-2.4507 64.027 0.7478z" fill="#fff" stroke="#000" stroke-width="1px"/>
 <circle cx="114.24" cy="136.69" r="7.2291" fill="#fff700" stroke="#000" stroke-width="1pt"/>
 <circle cx="129.58" cy="121.48" r="7.2291" fill="#fff700" stroke="#000" stroke-width="1pt"/>
 <circle cx="129.58" cy="136.69" r="7.2291" fill="#fff700" stroke="#000" stroke-width="1pt"/>
 <circle cx="114.24" cy="121.48" r="7.2291" fill="#fff700" stroke="#000" stroke-width="1pt"/>
 <circle cx="121.91" cy="129.08" r="7.2291" fill="#fff700" stroke="#000" stroke-width="1pt"/>
 <path d="m140.76 110.34 42.93-42.93" fill="none" stroke="#000" stroke-width="1px"/>
 <path d="m144.75 113.48c11.965-11.716 27.67-23.432 32.157-25.427" fill="none" stroke="#000" stroke-width="1px"/>
 <path d="m138.41 108.49c9.3315-8.9741 22.793-30.163 25.036-34.151" fill="none" stroke="#000" stroke-width="1px"/>
 <path d="m140.65 147.93 42.93 42.93" fill="none" stroke="#000" stroke-width="1px"/>
 <path d="m137.52 151.92c11.716 11.965 23.432 27.67 25.427 32.157" fill="none" stroke="#000" stroke-width="1px"/>
 <path d="m142.5 145.58c8.9741 9.3315 30.163 22.793 34.151 25.036" fill="none" stroke="#000" stroke-width="1px"/>
 <path d="m103.06 147.82-42.93 42.93" fill="none" stroke="#000" stroke-width="1px"/>
 <path d="m99.074 144.69c-11.965 11.716-27.67 23.432-32.157 25.427" fill="none" stroke="#000" stroke-width="1px"/>
 <path d="m105.41 149.68c-9.3315 8.9741-22.793 30.163-25.036 34.151" fill="none" stroke="#000" stroke-width="1px"/>
 <path d="m103.17 110.24-42.93-42.93" fill="none" stroke="#000" stroke-width="1px"/>
 <path d="m106.3 106.25c-11.716-11.965-23.432-27.67-25.427-32.157" fill="none" stroke="#000" stroke-width="1px"/>
 <path d="m101.32 112.59c-8.9741-9.3315-30.163-22.793-34.151-25.036" fill="none" stroke="#000" stroke-width="1px"/>
</svg>
