<?xml version="1.0" encoding="UTF-8" standalone="no"?>
<svg
   xmlns:dc="http://purl.org/dc/elements/1.1/"
   xmlns:cc="http://creativecommons.org/ns#"
   xmlns:rdf="http://www.w3.org/1999/02/22-rdf-syntax-ns#"
   xmlns:svg="http://www.w3.org/2000/svg"
   xmlns="http://www.w3.org/2000/svg"
   xmlns:sodipodi="http://sodipodi.sourceforge.net/DTD/sodipodi-0.dtd"
   xmlns:inkscape="http://www.inkscape.org/namespaces/inkscape"
   viewBox="0 0 412.41 500"
   version="1.1"
   id="svg53"
   sodipodi:docname="CHE Hemishofen COA.svg"
   inkscape:version="0.92.3 (2405546, 2018-03-11)">
  <metadata
     id="metadata57">
    <rdf:RDF>
      <cc:Work
         rdf:about="">
        <dc:format>image/svg+xml</dc:format>
        <dc:type
           rdf:resource="http://purl.org/dc/dcmitype/StillImage" />
        <dc:title></dc:title>
      </cc:Work>
    </rdf:RDF>
  </metadata>
  <sodipodi:namedview
     pagecolor="#ffffff"
     bordercolor="#666666"
     borderopacity="1"
     objecttolerance="10"
     gridtolerance="10"
     guidetolerance="10"
     inkscape:pageopacity="0"
     inkscape:pageshadow="2"
     inkscape:window-width="1920"
     inkscape:window-height="1017"
     id="namedview55"
     showgrid="false"
     inkscape:zoom="1.7539999"
     inkscape:cx="155.54324"
     inkscape:cy="378.64802"
     inkscape:window-x="-8"
     inkscape:window-y="-8"
     inkscape:window-maximized="1"
     inkscape:current-layer="svg53" />
  <defs
     id="defs17">
    <linearGradient
       id="c"
       x1="38.728"
       x2="42.821"
       y1="59.193"
       y2="59.005"
       gradientTransform="matrix(1.005036,0,0,1.0041765,63.980799,39.315446)"
       gradientUnits="userSpaceOnUse">
      <stop
         offset="0"
         id="stop2" />
      <stop
         stop-opacity="0"
         offset="1"
         id="stop4" />
    </linearGradient>
    <linearGradient
       id="b"
       x1="30.397221"
       x2="31.045"
       y1="41.739098"
       y2="43.243881"
       gradientTransform="matrix(1.005036,0,0,1.0041765,63.980799,39.315446)"
       gradientUnits="userSpaceOnUse">
      <stop
         offset="0"
         id="stop7" />
      <stop
         stop-opacity="0"
         offset="1"
         id="stop9" />
    </linearGradient>
    <linearGradient
       id="a"
       x1="22.651"
       x2="18.955"
       y1="58.842"
       y2="58.864"
       gradientTransform="matrix(1.005036,0,0,1.0041765,63.980799,39.315446)"
       gradientUnits="userSpaceOnUse">
      <stop
         offset="0"
         id="stop12" />
      <stop
         stop-opacity="0"
         offset="1"
         id="stop14" />
    </linearGradient>
    <linearGradient
       id="a-2"
       x1="22.650999"
       x2="18.955"
       y1="58.841999"
       y2="58.863998"
       gradientTransform="matrix(6.6541427,0,0,6.6484519,-0.24592876,260.3397)"
       gradientUnits="userSpaceOnUse">
      <stop
         offset="0"
         id="stop12-6" />
      <stop
         stop-opacity="0"
         offset="1"
         id="stop14-2" />
    </linearGradient>
  </defs>
  <path
     d="M 206.08053,2.5797932 H 409.83486 V 302.30797 c 0,107.86947 -91.07951,195.11509 -203.63492,195.11509 -112.483775,0 -203.654831,-87.24961 -203.654831,-195.11509 L 2.5411289,2.5797932 206.05666,2.5937351 Z"
     id="path19"
     style="fill:#f00000;fill-opacity:1;stroke-width:0.99999988"
     inkscape:connector-curvature="0" />
  <path
     inkscape:connector-curvature="0"
     style="fill:#000000;fill-opacity:1;stroke:none;stroke-width:4.99999952;stroke-miterlimit:4;stroke-dasharray:none;stroke-opacity:1"
     d="m 409.77932,246.53686 0.0317,55.78505 C 409.87232,410.19136 318.7315,497.43699 206.17609,497.43699 93.692315,497.43699 2.5212592,410.1874 2.5212592,302.32191 l 0.084266,-55.70592 z"
     id="path19-2"
     sodipodi:nodetypes="cssccc" />
  <path
     d="m 229.28136,26.125592 a 62.556087,62.609623 0 0 0 -7.39791,0.540652 c -3.51779,0.435154 -7.07511,1.054914 -10.27011,2.604335 -0.88933,0.428558 -1.73254,0.923054 -2.63505,1.318651 -0.9025,0.395598 -1.8709,0.725261 -2.85902,0.751632 a 7.1607482,7.1668767 0 0 1 -2.67459,-0.540642 c -0.85639,-0.329665 -1.67324,-0.738446 -2.50329,-1.12086 -3.68907,-1.681278 -7.70093,-2.584556 -11.72596,-3.013116 -5.40187,-0.580206 -10.96841,-0.309884 -16.07383,1.556013 -5.02635,1.846109 -9.48616,5.287794 -12.43741,9.758024 -3.07643,4.674626 -4.44666,10.298676 -4.77604,15.889765 -0.39526,6.632818 0.65877,13.456848 3.83399,19.298478 1.84454,3.388937 4.36102,6.36909 6.94995,9.230569 3.09618,3.428491 6.35047,6.731724 9.7497,9.863524 4.26218,3.916394 8.74836,7.569051 13.06326,11.426113 2.55599,2.28788 5.13833,4.77354 6.32411,7.99764 0.42819,1.14723 0.67193,2.36698 0.61263,3.58672 -0.0658,1.22636 -0.42818,2.4593 -1.11987,3.46807 a 6.2845942,6.2899727 0 0 1 -2.31887,1.99776 c -0.92226,0.46812 -1.94333,0.72526 -2.971,0.79119 a 9.9868395,9.9953858 0 0 1 -4.11727,-0.65933 15.942053,15.955696 0 0 1 -3.66931,-2.03072 c -2.93807,-2.10986 -5.3228,-4.90538 -7.7734,-7.58225 -6.0079,-6.57349 -12.52965,-12.659075 -19.18316,-18.579818 -2.6087,-2.327427 -5.25692,-4.628479 -8.19501,-6.527338 -4.5718,-2.966967 -9.89461,-4.925158 -15.34916,-4.9845 a 22.944698,22.964335 0 0 0 -15.34917,5.604272 23.017162,23.03686 0 0 0 -6.32411,9.44815 c -2.22663,6.197644 -1.84453,13.054654 -0.52043,19.509464 0.75099,3.67245 1.79184,7.27896 2.79316,10.89206 0.65217,2.34062 1.29117,4.74715 1.04084,7.16028 -0.1647,1.60876 -0.72464,3.14499 -1.25166,4.67463 a 68.926319,68.985309 0 0 0 -3.09618,12.03929 c -0.77075,5.14935 -0.68509,10.48329 0.82347,15.46781 1.11988,3.7054 2.99736,7.1537 5.28985,10.27229 2.26614,3.09225 5.0066,5.93395 8.39923,7.69434 3.26747,1.69447 7.00265,2.30765 10.67853,2.37358 4.54546,0.0857 9.15681,-0.65932 13.28065,-2.58456 3.43216,-1.60216 6.44271,-3.97573 9.32809,-6.43502 a 106.32427,106.41526 0 0 0 12.76022,-12.77773 c 3.70883,-4.45707 6.96971,-9.30312 11.19897,-13.27884 1.66668,-1.56921 3.57048,-3.03291 5.81028,-3.52741 1.99605,-0.43515 4.12385,-0.0592 5.90911,0.92307 1.6469,0.92306 3.02371,2.34061 3.83399,4.04826 0.60606,1.29228 0.9025,2.7362 0.83663,4.16034 v 65.60297 h 18.03691 v -65.60297 c 0,-1.49006 0.19763,-2.85487 0.40843,-4.25924 0.17788,-1.18679 0.49407,-2.38676 1.23849,-3.32299 0.86956,-1.10769 2.23978,-1.72745 3.62318,-1.978 2.63505,-0.45493 5.13835,0.36923 7.18052,2.07689 1.40316,1.17359 2.43741,2.70325 3.53095,4.16034 2.89856,3.87026 6.24509,7.35807 9.53231,10.89208 3.71541,4.0021 7.3518,8.07674 11.20555,11.94039 3.42556,3.4285 7.10146,6.73831 11.51517,8.71629 3.72859,1.66811 7.85244,2.32084 11.9236,2.29444 3.91303,-0.0263 7.83926,-0.68568 11.40317,-2.29444 a 23.135737,23.155539 0 0 0 9.65087,-8.18883 c 1.58104,-2.36041 2.7207,-4.9977 3.62979,-7.68774 1.35046,-4.00869 2.18709,-8.2284 1.9697,-12.45467 -0.23057,-4.36474 -1.58104,-8.61081 -3.21477,-12.67226 -0.85638,-2.12962 -1.79841,-4.22627 -2.48353,-6.42184 a 13.274063,13.285424 0 0 1 -0.73781,-4.26583 c 0.0264,-1.01536 0.24375,-2.03074 0.52701,-3.01314 0.55336,-1.91202 1.38999,-3.72518 2.0751,-5.60425 1.35705,-3.7318 2.08169,-7.67457 2.58235,-11.62393 0.39525,-3.13179 0.67193,-6.28339 0.527,-9.44155 -0.18444,-4.28563 -1.13965,-8.591026 -3.21476,-12.349191 a 24.229285,24.25002 0 0 0 -10.26351,-9.758023 25.296479,25.318131 0 0 0 -17.22006,-2.076874 28.787922,28.812558 0 0 0 -10.79052,5.399874 c -4.61793,3.606518 -8.25429,8.281145 -12.0356,12.757967 -4.71673,5.604277 -9.71016,10.964587 -14.61135,16.410627 -2.1278,2.35381 -4.32807,4.79991 -7.25956,6.01306 a 9.1567986,9.1646352 0 0 1 -3.33333,0.72526 7.1936864,7.199843 0 0 1 -3.30699,-0.72526 6.5612745,6.5668897 0 0 1 -3.6232,-5.70318 c -0.0394,-1.33183 0.32939,-2.64389 0.9091,-3.84387 0.5797,-1.19337 1.37023,-2.28126 2.20025,-3.31639 1.73915,-2.15602 3.68908,-4.1274 5.69831,-6.02625 5.38867,-5.103195 11.16602,-9.771228 16.48224,-14.94034 2.85903,-2.769173 5.59947,-5.716364 7.78656,-9.039366 4.22925,-6.415246 6.28459,-14.109579 6.53492,-21.790729 a 37.977657,38.01016 0 0 0 -1.23187,-11.472286 25.164727,25.186264 0 0 0 -5.40186,-10.120649 23.412419,23.432456 0 0 0 -12.03558,-6.955899 31.581074,31.608101 0 0 0 -7.33203,-0.745039 z"
     style="opacity:0.99800002;fill:#009944;fill-rule:evenodd;stroke:#000000;stroke-width:2.64831972;stroke-linecap:round;stroke-linejoin:round;paint-order:markers fill stroke"
     id="path39"
     inkscape:connector-curvature="0" />
  <g
     id="g47"
     transform="matrix(0.99498927,0,0,0.99584088,1.0329463,-257.87291)"
     style="stroke-width:1.00460625">
    <path
       transform="matrix(6.6208,0,0,6.6208,-423.85,0.04)"
       d="m 87.323,58.729 c -2.61,-0.01 -4.115,0.334 -4.631,0.349 -0.222,0.006 -0.007,-0.221 0,0 0.006,0.221 -0.222,0.007 0,0 0.511,-0.015 1.813,0.379 4.655,0.342 1.34,0.022 1.93,0.039 4.124,0.187 0.275,0.02 0.511,0.046 0.681,0.123 a 0.81,0.81 0 0 1 0.305,0.24 0.4,0.4 0 0 0 0.635,-0.486 1.603,1.603 0 0 0 -0.61,-0.482 c -0.338,-0.154 -0.675,-0.174 -0.957,-0.194 -2.138,-0.158 -2.404,-0.1 -4.202,-0.079 z"
       style="font-variant-ligatures:normal;font-variant-position:normal;font-variant-caps:normal;font-variant-numeric:normal;font-variant-alternates:normal;font-feature-settings:normal;text-indent:0;text-decoration:none;text-decoration-line:none;text-decoration-style:solid;text-decoration-color:#000000;text-transform:none;text-orientation:mixed;white-space:normal;shape-padding:0;isolation:auto;mix-blend-mode:normal;fill:#000000;fill-opacity:1;stroke-width:1.00460625"
       id="path41"
       inkscape:connector-curvature="0" />
    <path
       transform="matrix(6.6208,0,0,6.6208,-423.85,0.04)"
       d="m 107.36,59.184 c -2.378,-0.123 -2.793,-0.084 -5.79,-0.124 -0.397,-0.006 -3.047,-0.115 -3.446,-0.126 -0.204,-0.006 -0.468,-0.021 -0.754,0.09 a 1.154,1.154 0 0 0 -0.623,0.576 0.4,0.4 0 1 0 0.718,0.35 0.386,0.386 0 0 1 0.196,-0.18 c 0.09,-0.035 0.24,-0.04 0.441,-0.035 0.399,0.01 3.034,-0.097 3.435,-0.11 2.562,-0.086 3.879,-0.121 5.823,-0.441 0.22,-0.014 0.014,0.22 0,0 -0.013,-0.22 0.22,-0.014 0,0 z"
       style="font-variant-ligatures:normal;font-variant-position:normal;font-variant-caps:normal;font-variant-numeric:normal;font-variant-alternates:normal;font-feature-settings:normal;text-indent:0;text-decoration:none;text-decoration-line:none;text-decoration-style:solid;text-decoration-color:#000000;text-transform:none;text-orientation:mixed;white-space:normal;shape-padding:0;isolation:auto;mix-blend-mode:normal;fill:#000000;fill-opacity:1;stroke-width:1.00460625"
       id="path45"
       inkscape:connector-curvature="0" />
    <path
       transform="matrix(6.6208,0,0,6.6208,-423.85,0.04)"
       d="m 95.183,45.457 c -0.221,0 0,-0.221 0,0 0,1.247 -0.26,1.32 -0.332,4.486 -0.037,1.606 -0.169,2.863 -0.227,4.465 a 0.40074462,0.40074462 0 1 0 0.801,0.028 c 0.058,-1.608 0.002,-2.847 0.013,-4.457 0.02,-3.234 -0.256,-3.271 -0.255,-4.522 0,-0.22 0.22,0 0,0 z"
       style="font-variant-ligatures:normal;font-variant-position:normal;font-variant-caps:normal;font-variant-numeric:normal;font-variant-alternates:normal;font-feature-settings:normal;text-indent:0;text-decoration:none;text-decoration-line:none;text-decoration-style:solid;text-decoration-color:#000000;text-transform:none;text-orientation:mixed;white-space:normal;shape-padding:0;opacity:1;isolation:auto;mix-blend-mode:normal;fill:#000000;fill-opacity:1;stroke-width:1.00460625"
       id="path43"
       inkscape:connector-curvature="0" />
  </g>
  <g
     id="g51"
     style="fill:none;stroke:#000000;stroke-width:0.40184245;stroke-linecap:round"
     transform="matrix(0.99498927,0,0,0.99584088,1.0329463,-257.87291)">
    <path
       d="m 120.45,427.59 a 11.4,11.4 0 0 0 3.127,-2.084 11.41,11.41 0 0 0 2.502,-3.44 m 2.812,10.735 c 0.937,-0.9 1.716,-1.963 2.294,-3.127 a 11.352,11.352 0 0 0 1.146,-4.17 m 5.525,8.442 a 8.85,8.85 0 0 0 1.772,-3.23 8.848,8.848 0 0 0 0.313,-3.545 m 6.773,2.498 a 14.282,14.282 0 0 0 2.19,-3.648 c 0.586,-1.424 0.94,-2.945 1.042,-4.482 m 7.713,0.629 a 8.203,8.203 0 0 0 1.46,-3.231 8.2,8.2 0 0 0 0,-3.336 m 9.054,-115.72 2.137,2.21 m 2.65,-6.931 4.348,4.79 m 4.496,-7.518 a 6.813,6.813 0 0 1 1.696,2.58 6.823,6.823 0 0 1 0.295,3.612 m 8.179,-5.523 a 15.54,15.54 0 0 1 0.59,7.37 m 6.786,-4.569 a 14.373,14.373 0 0 1 0.442,6.486 m 21.222,-8.625 a 9.443,9.443 0 0 1 -0.738,3.76 9.432,9.432 0 0 1 -1.621,2.579 m 11.945,-5.75 a 15.448,15.448 0 0 1 -3.685,6.486 m 12.312,-3.023 a 24.014,24.014 0 0 1 -6.486,9.434 m 10.591,-0.516 a 20.676,20.676 0 0 1 -7.96,7.739 m 0.902,10.985 a 27.138,27.138 0 0 0 6.928,-6.191 m -13.118,15.328 c 1.342,0.23 2.732,0.18 4.053,-0.148 a 9.913,9.913 0 0 0 3.465,-1.621 m 32.942,17.467 a 2.852,2.852 0 0 1 0.442,-1.622 2.853,2.853 0 0 1 1.548,-1.18 m 4.1,4.868 a 7.154,7.154 0 0 1 2.138,-3.391 7.13,7.13 0 0 1 2.653,-1.474 m 0.043,11.128 a 28.766,28.766 0 0 1 4.57,-4.939 m -2.716,11.646 a 9.81,9.81 0 0 0 4.496,-2.138 9.791,9.791 0 0 0 2.432,-3.095 m -8.451,14.8 c 1.824,-0.33 3.173,-0.916 4.794,-1.912 2.103,-1.291 3.063,-2.202 4.431,-3.196 m -11.741,11.755 c 1.5,0.561 3.116,0.814 4.717,0.737 a 11.865,11.865 0 0 0 4.127,-0.958 m -5.401,21.004 a 139.84,139.84 0 0 1 5.454,2.727 m -4.792,6.859 a 24.085,24.085 0 0 1 6.191,3.98 m -6.125,4.787 a 67.428,67.428 0 0 1 4.422,5.011 m -8.858,1.695 a 33.908,33.908 0 0 1 5.012,5.086 m -12.824,-4.861 a 26.272,26.272 0 0 0 4.053,7.15 m -13.058,-10.321 a 20.262,20.262 0 0 0 2.654,8.328 m -10.996,-10.983 a 9.276,9.276 0 0 0 1.106,5.16"
       id="path49"
       inkscape:connector-curvature="0"
       style="stroke-width:2.66049838" />
  </g>
  <path
     inkscape:connector-curvature="0"
     style="opacity:1;fill:#009944;fill-opacity:1;stroke:none;stroke-width:4.99999952;stroke-miterlimit:4;stroke-dasharray:none;stroke-opacity:1"
     d="M 62.302177,440.45811 C 41.312082,420.3926 24.871245,395.95802 14.58858,368.689 l 85.87811,-122.09201 101.15024,-0.0197 z"
     id="path19-2-3"
     sodipodi:nodetypes="ccccc" />
  <path
     inkscape:connector-curvature="0"
     style="opacity:1;fill:#009944;fill-opacity:1;stroke:none;stroke-width:4.99999952;stroke-miterlimit:4;stroke-dasharray:none;stroke-opacity:1"
     d="M 409.77932,246.53686 228.8468,496.24466 c 0,0 -15.00719,1.19233 -22.67071,1.19233 -23.04444,0 -45.19435,-3.66198 -65.84906,-10.41298 L 310.28522,246.55619 Z"
     id="path19-2-3-4"
     sodipodi:nodetypes="ccsccc" />
  <path
     d="M 206.08053,2.5797932 H 409.83486 V 302.30797 c 0,107.86947 -91.07951,195.11509 -203.63492,195.11509 -112.483775,0 -203.654831,-87.24961 -203.654831,-195.11509 L 2.5411289,2.5797932 206.05666,2.5937351 Z"
     id="path21"
     inkscape:connector-curvature="0"
     style="fill:none;stroke:#000000;stroke-width:5.08099985;stroke-miterlimit:4;stroke-dasharray:none" />
  <path
     inkscape:connector-curvature="0"
     style="fill:none;fill-opacity:1;stroke:#000000;stroke-width:4.99999952;stroke-miterlimit:4;stroke-dasharray:none;stroke-opacity:1"
     d="m 409.77929,246.53686 0.0317,55.78505 c 0.0613,107.86945 -91.07952,195.11508 -203.63494,195.11508 -112.483774,0 -203.6548248,-87.24959 -203.6548248,-195.11508 l 0.0843,-55.70592 z"
     id="path19-2-8"
     sodipodi:nodetypes="cssccc" />
</svg>
