<?xml version="1.0" encoding="UTF-8"?>
<!-- Created with Inkscape (http://www.inkscape.org/) -->
<svg id="a" width="208.54" height="244.27" version="1.0" xmlns="http://www.w3.org/2000/svg">
 <path d="m1 1 3.7553 157.76c2.6823 112.68 196.35 112.68 199.03 0l3.7553-157.76z" fill="#cd3020" stroke="#000" stroke-width="2"/>
 <path d="m125.8 93.638c0.43969-1.0556 0.32303-2.1576-0.61296-3.2903 2.3704 0.8175 2.9176 1.8696 2.9834 3.1821z" fill="#f7de39" stroke="#000" stroke-width=".70866"/>
 <path d="m176.87 147.83c-0.0745-2.1607-1.5086-3.1879-2.6585-4.4098 3.1739 0.5479 4.5975 1.6926 4.8712 2.8372z" fill="#f7de39" stroke="#000" stroke-width=".70866"/>
 <path d="m178.63 153.62c-3.258-2.1596-3.3629-4.175-3.502-4.9193-0.14079-0.75301 3.3574-3.2542 4.2156-3.183 0.91958 0.0763 1.779 1.9569 2.2506 3.8187 0.4751 1.8756 2.8886 6.268-2.9641 4.2836z" fill="#f7de39" stroke="#000" stroke-width=".70866"/>
 <path d="m120.99 99.272c-0.20428-0.72784-1.6066-2.6466-3.8444-3.2189 3.1033-1.1561 4.1597 0.0625 4.7972 1.7754z" fill="#f7de39" stroke="#000" stroke-width=".70866"/>
 <path d="m121.89 104.52c-1.7112-1.0219-3.1134-0.96322-4.9483-0.13108 2.2993 0.38864 2.9267 1.1761 4.1597 2.4072z" fill="#f7de39" stroke="#000" stroke-width=".70866"/>
 <path d="m180.79 164.18c-1.1574 1.1679-3.4299 2.5831-3.9024 3.4736 0.0776-1.8075 0.68138-4.2439 2.8758-5.2594z" fill="#f7de39" stroke="#000" stroke-width=".70866"/>
 <path d="m176.06 160.72c-1.4738-0.31808-3.3066 0.0435-4.9711 0.93077 0.54521-1.9277 1.177-3.6189 4.5923-3.5564z" fill="#f7de39" stroke="#000" stroke-width=".70866"/>
 <path d="m173.96 152.21c-1.2666-0.19715-3.7744-0.6506-5.288-0.5482 1.1579-2.5269 4.5559-1.9182 5.9649-0.49442z" fill="#f7de39" stroke="#000" stroke-width=".70866"/>
 <path d="m90.323 18.424c-0.62137-2.0797-2.2034-3.5821-3.5887-3.9625 3.3614-1.1006 4.9942 1.6076 5.547 3.2947z" fill="#f7de39" stroke="#000" stroke-width=".70866"/>
 <path d="m94.059 12.167c0.17272-1.3965-0.47484-2.7972-1.8804-4.4693 3.6284 0.73246 4.547 3.2725 4.6484 4.4736z" fill="#f7de39" stroke="#000" stroke-width=".70866"/>
 <path d="m102.02 11.705c0.39009-1.3594 0.51373-3.0793-0.0577-5.1556 2.9669 2.0774 3.1773 3.742 2.1298 6.3148z" fill="#f7de39" stroke="#000" stroke-width=".70866"/>
 <path d="m92.235 25.01c-3.4786-0.59246-5.4829-2.9323-4.5201-5.0768 0.97799-2.1784 3.3481-4.2568 4.59-2.2506 1.2655 2.0444 5.8032 2.1973-0.0699 7.3274z" fill="#f7de39" stroke="#000" stroke-width=".70866"/>
 <path d="m98.236 18.287c0.0755 0.42247 2.521 5.4894-2.9762 2.3693-5.5441-3.1466-4.2704-7.3571-1.496-9.283 2.9836-2.0711 3.6232 0.76888 3.478 3.0577-0.14544 2.2926 0.91873 3.4336 0.99424 3.856z" fill="#f7de39" stroke="#000" stroke-width=".70866"/>
 <path d="m99.063 18.351c-1.7369-1.0665-3.8712-3.0258-0.96686-6.7306 2.9379-3.7476 7.9066 0.85705 7.4777 2.0512-0.42363 1.1793-4.736 5.7691-6.5108 4.6794z" fill="#f7de39" stroke="#000" stroke-width=".70866"/>
 <path d="m107.91 16.793c0.68021 0.28564 1.9773 2.4445 2.9576-3.099 1.6617 1.3258 2.4948 5.3921-2.6382 5.6731z" fill="#f7de39" stroke="#000" stroke-width=".70866"/>
 <path d="m124.94 104.41c7.1097 2.6961 5.757 7.6097 4.5067 8.2494-1.2877 0.65873-5.6174-0.0141-7.8535-3.3442-1.2444-1.8532-3.7629-7.6013 3.3468-4.9052z" fill="#f7de39" stroke="#000" stroke-width=".70866"/>
 <path d="m126.82 101.67c2.7318 7e-3 3.5949-4.4966 3.468-7.2915-0.13083-2.8821-6.1778-1.9172-7.602 0.74765-1.4392 2.6928 3.1855 6.7016 4.134 6.5439z" fill="#f7de39" stroke="#000" stroke-width=".70866"/>
 <path d="m133.01 98.24c1.2334-0.46536 1.8948-2.0289 1.1574-4.4887 3.0812 1.6201 2.4362 5.705 1.2121 6.0334z" fill="#f7de39" stroke="#000" stroke-width=".70866"/>
 <path d="m125.47 104.14c0.0275 0.88549-2.6258 0.98715-4.2102 0.2717-1.5333-0.69235-2.6884-3.1143-2.8203-4.2335-0.13099-1.1116 3.0473-3.7929 4.5801-2.8826 1.6232 0.96401 2.7453 4.4459 2.4504 6.8444z" fill="#f7de39" stroke="#000" stroke-width=".70866"/>
 <path d="m126.66 98.489c3.9071-4.3164 6.1728 12.472 6.1659 15.157-7e-3 2.6855-3.5299 1.2474-5.4251-0.062-1.8952-1.3095-1.819-5.282-2.8488-7.0043-0.55819-0.93354-1.7439-3.8351 2.108-8.0906z" fill="#f7de39" stroke="#000" stroke-width=".70866"/>
 <path d="m166.64 103.28c-7.2263 2.9181-6.8044 9.6196-4.1858 17.461-1.7542 0.0434-3.3217 6e-3 -5.6599-0.81542 0.13558 0.80247 0.0292 1.5646 0.48758 2.3703-3.5238-0.34182-5.2037-0.54926-8.3459-1.7266l0.44216 2.4308c-3.9076-1.0333-6.3763-2.5926-9.3141-4.1472l0.20519 2.683c-5.6914-2.2541-9.8218-4.1353-9.0686-7.2726 0.72842-3.0342-1.2454-5.8859-2.459-8.5735-1.1992-2.6558-2.3199-7.5575-0.41189-9.0128 1.908-1.4553 4.2305-0.57253 5.7941 0.99742 1.5853 1.5917 2.2454 3.0639 0.56624 3.7807-1.6954 0.72364-1.9141 1.5369-1.9512 2.6477-0.0356 1.0649 1.4554 2.824 3.9939 4.0593 2.5385 1.2354 7.6105 1.8527 9.3459 1.1079 1.6457-0.70637 1.2014-2.0659 0.50433-2.8139-0.71909-0.77178 0.77173-5.9032 0.77173-5.9032-0.96213 0.0572-1.968 0.28915-2.8864 0.25892 0.42993-2.8744 2.6079-6.0983 5.485-7.1809-0.40486-0.57594-0.73369-0.86261-1.5854-1.1716 1.2978-0.43262 1.973-1.8089 12.375-1.5012" fill="#f7de39" stroke="#000" stroke-width=".70866"/>
 <path d="m166.63 100.11c-2.3971-2.8167-6.685-4.3778-11.165-6.6851 2.4995-1.7385 4.7738-2.1476 7.117-1.9178" fill="#f7de39" stroke="#000" stroke-width=".70866"/>
 <path d="m166.51 95.412c-2.8699-2.0158-15.605-8.182-18.054-9.2786-2.4046-1.0769-6.1188-1.4912-14.202-2.0472-8.0757-0.55546-10.49-2.0033-15.515-5.0745l-12.519-20.321 36.763-1.4828c12.987 8.5385 23.36 18.184 28.941 23.228 5.6774 5.1307 11.761 11.755 14.375 15.085 2.6281 3.3483 3.5292 4.3859 5.582 3.1579 2.1432-1.2821 0.20388-7.1722-2.3864-11.861-2.5619-4.6373-6.0028-11.809-8.94-17.865-3.0061-6.1974-6.6705-18.272-5.9291-25.447 0.74021-7.1638 10.435-16.213 11.146-17.788 0.74073-1.6408 0.53967-4.2416 0.0516-7.1435 3.1439 1.7783 5.0078 5.2643 5.7085 7.6613 0.68536 2.3445 2.464 7.7073 2.1479 10.78-0.31373 3.0498-4.4216 9.4146-7.4254 11.659-3.0641 2.2894-7.5606 2.1421-5.5793 7.8362 1.9429 5.5837 4.988 12.685 8.4719 18.562 3.6056 6.0826 11.68 23.867 7.1598 28.045-4.5424 4.1978-9.6826 1.3881-12.844-3.4502" fill="#f7de39" stroke="#000" stroke-width=".70866"/>
 <path d="m162.4 85.856c4.1076 8.7522 2.1554 14.525 1.8356 19.986-0.31981 5.4176 1.2385 6.9001 2.2264 8.4812 1.121-0.95092 1.7613-2.033 2.4453-3.3772-0.23879 5.2967 0.81447 8.8982 2.4729 10.261l0.90293-4.8039c2.2956 2.6914 6.6765 8.5612 10.042 11.705 3.3873 3.1638 3.5752 6.6511 3.6056 9.5685 0.0303 2.9175 0.0228 10.154-1.6091 11.923-1.6103 1.7451-1.8986 2.0799-3.9574 2.0221-2.0604-0.0579-3.7724-0.89448-4.933-1.8601-1.1395-0.94799-3.2788 2.8354-3.4485 3.8438-0.17078 1.0146 0.68445 1.9931 1.6098 2.7056 0.89763 0.69118 4.8441-0.11518 6.579-0.63043-1.6951 0.52385-4.7456 1.2054-5.0262 1.7977-0.28807 0.60808-0.34372 1.4535-0.25145 2.6223 0.11659 1.4769 1.6306 2.8697 2.9659 2.3813 1.4127-0.51668 2.949-2.0966 3.6128-2.8374-0.66179 0.73529-2.243 1.9688-2.4144 2.909-0.16376 0.89787 0.48038 0.72465 1.0891 2.0954 0.60133 1.3541 2.3377 0.89621 3.229 0.77879 1.3407-0.17661 1.9504-0.91069 3.2771-2.5724 1.3052-1.635 5.9577-4.7268 6.4066-7.8933 0.43667-3.0808 1.243-4.4222 4.8082-10.619-0.48874-0.1372-1.4397-0.52853-2.4877-0.3644 2.2584-1.8557 3.9353-7.7226 4.2479-9.6367l-2.4729 0.0135c0.71684-2.3273 0.96495-7.4597 1.0887-8.8205-0.88257 0.10604-1.7652 0.21208-2.6914 0.31813 0.17491-2.2361-0.0455-6.2636-0.13367-8.7916-9.754 6.8863-9.6142-9.5464-11.957-17.394" fill="#f7de39" stroke="#000" stroke-linecap="round" stroke-width=".70866"/>
 <path d="m182.53 42.518c2.3543-2.1102 8.9982-11.564 9.422-14.768" fill="none" stroke="#000" stroke-linecap="round" stroke-width=".70866"/>
 <path d="m123.24 57.752c-9.0165-7.8626-17.719-25.141-18.88-27.473-1.1439-2.2988-1.2814-7.7625 2.357-8.5034 3.6204-0.73722 3.2822-3.1516 1.8153-6.3501-1.4339-3.1265-5.3182-0.51388-6.831 1.5237-1.5129 2.0376-6.2856 19.416-6.3726 21.51-0.087 2.0938 0.46761 4.8261 0.39752 7.3491l3.1138-3.5476c-0.0576 4.6057 0.60535 8.4611 2.007 12.386l1.9191-1.946c0.54076 4.081 1.0395 6.8506 2.4758 9.2215" fill="#f7de39" stroke="#000" stroke-width=".70866"/>
 <path d="m96.727 37.175c-1.6821 1.7346-5.7361-5.9235-5.8023-10.674-0.0662-4.7501 6.884-8.5968 7.9096-8.8776 1.0066-0.2756 2.4919 0.0186 2.2856 1.0654-0.2278 1.1562-1.6105 4.3084-1.694 10.28-0.0835 5.9718-1.1043 6.559-2.699 8.2062z" fill="#f7de39" stroke="#000" stroke-width=".70866"/>
 <path d="m151.49 14.562c8.7117-5.7631 11.434 3.6664 5.8619 2.7227z" fill="#f7de39" stroke="#000" stroke-width=".70866"/>
 <path d="m122.79 29.858c-3.0231-0.46544-4.6098-1.2541-5.6121-2.7048-1.0313-1.4929-1.6077-4.1761 0.35449-2.5428 1.9985 1.6635 4.0523 2.4201 7.4223 3.5141 3.4258 1.1121 18.525-0.14744 20.962 1.7362-6.2563 0.0156-20.095 0.46408-23.127-3e-3z" fill="#f7de39" stroke="#000" stroke-width=".70866"/>
 <path d="m67.198 43.174c-1.7039-1.2765-3.6562-2.7454-5.1653-2.6372 1.5938-2.6941 5.1083-0.14419 6.6691 0.70555z" fill="#f7de39" stroke="#000" stroke-width=".70866"/>
 <path d="m70.366 34.047c-1.0231-0.81112-1.173-2.3855-3.2998-4.086 2.8767 0.27136 6.2087 1.6059 5.3444 4.2857z" fill="#f7de39" stroke="#000" stroke-width=".70866"/>
 <path d="m77.675 31.944c0.21728-1.9434 0.69253-3.4732-0.73132-5.7437 2.8033 1.0816 4.7382 4.1399 3.228 6.4072z" fill="#f7de39" stroke="#000" stroke-width=".70866"/>
 <path d="m84.475 41.454c3.3198-1.4529 3.7124-4.1756 2.5208-6.3409-0.25027 2.1533-1.3833 3.6093-2.6818 3.9695z" fill="#f7de39" stroke="#000" stroke-width=".70866"/>
 <path d="m75.585 42.838c1.7561-1.9842 3.2041-6.251 6.9581-5.6841 3.8394 0.57985 4.848 5.449 1.8165 6.1884-3.0527 0.74469-7.3502 0.85365-8.7746-0.50433z" fill="#f7de39" stroke="#000" stroke-width=".70866"/>
 <path d="m129.18 75.245c-1.7968 0.42858-6.8377 2.5055-8.4112 4.0393-1.634 1.5929-3.0136 6.0851-3.0136 6.0851-2.3721-1.1863-6.5007-3.4602-8.5739-5.6713l0.46608 3.5593c-4.0446-1.856-9.1121-4.1597-11.066-8.6981l-0.0883 4.4878c-3.9495-2.0826-8.3471-9.76-10.919-13.948l-0.0681 3.9703c-2.9794-3.2531-5.5813-5.5368-6.3902-7.9784-0.81793-2.4689-4.4336-1.7457-7.4635-4.8821-2.9865-3.0915-2.0915-4.1647-2.793-5.415-0.66456-1.1844-1.7672-0.67931-3.4449-2.8736-1.6695-2.1835-2.3867-4.0345-1.6808-5.3514 0.68612-1.28 1.4651-1.9016 2.477-1.7723 1.0978 0.14037 3.5121 3.8147 4.9967 5.1172-1.5893-1.4099-3.8468-4.6012-4.7808-5.3454-0.98657-0.78601-2.4006-2.8341-0.32597-5.4531 2.1087-2.6621 4.9831-2.0138 4.961-0.7376-0.0221 1.2747 0.12838 2.9416 1.0939 4.8274-0.96078-1.8944-1.02-3.9632-1.0737-4.9191-0.0536-0.95499 0.94192-1.7608 2.9018-2.7426 1.9599-0.98177 4.3761-0.42194 4.7629-0.13562 0.69197 0.51222 0.35871 1.3406 0.71855 3.2971 0.36108 1.9633-2.486 2.2138-2.0459 5.6874 0.4414 3.4835 1.9592 5.7102 5.0218 8.4677 3.2024 2.8833 8.8389 6.8434 14.642 8.6692 5.8828 1.8507 13.236 5.0387 16.005 6.5155" fill="#f7de39" stroke="#000" stroke-linecap="round" stroke-width=".70866"/>
 <path d="m134.88 24.263c-0.0962 1.0567-0.0518 2.2726 1.4584 3.0062-0.12709-1.0681 3e-3 -2.3549 0.3831-3.6048z" fill="#f7de39" stroke="#000" stroke-width=".70866"/>
 <path d="m137.12 34.376c-0.55201-0.90618-1.048-2.0172-0.0156-3.3412 0.35657 1.0148 1.0406 2.1125 1.9324 3.0671z" fill="#f7de39" stroke="#000" stroke-width=".70866"/>
 <path d="m145.96 36.07c-3.5286 6.4365-6.8113 3.1074-11.864 3.4765 0.78946 0.96749 1.2673 2.5434 1.9664 3.3355-5.1763-2.0532-10.744-1.1106-14.436 0.27533 1.1458 0.81046 2.1681 1.6827 2.8195 2.0606-5.768 2.7915-8.7332 4.2379-11.446 8.1756 1.3164-0.12676 3.2559 0.23013 4.1861 0.25716-4.2349 3.4691-3.7893 8.3598-3.0682 11.55 3.9768-0.83057 9.2303 0.37975 15.628-0.29963-0.77907 1.2506-1.5447 2.0139-2.9876 3.4087 3.2815 1.5403 15.916-0.66826 21.934-7.5603l-0.67102 4.5226c4.684-4.2932 8.0214-7.8203 9.0161-12.826l2.2021 3.4554c2.0166-4.673 1.9576-7.6673 1.6013-12.311l2.7579 2.5485c0.0479-4.4862-0.29488-10.543-0.89969-12.238 1.1775 0.36505 1.9842 0.60649 3.1617 0.97154-0.81719-3.4754-2.9322-8.3105-5.1708-9.7464 3.8112-0.67943 5.7012-2.2005 5.2522-4.1472-0.43544-1.888-4.2306-3.8882-9.5138-2.465" fill="#f7de39" stroke="#000" stroke-width=".70866"/>
 <path d="m158.59 18.019c-0.12249-0.85213-0.71106-1.393-2.9631-3.0508-2.2229-1.6364-11.515-0.55478-13.898-0.62508-2.4446-0.0703-1.6886 0.93804-2.3774 1.4021-0.64687 0.43586-5.2692 0.91769-6.8191 1.5123 2.852 1.4105 1.3029 2.3951 0.56976 3.2757-0.76399 0.91761-1.2371 2.5682-0.60474 3.7785 0.63238 1.2104 3.6696 0.0591 6.0427-0.74141 2.3912-0.80666 3.0836 0.73305 4.2655 2.3781 1.2025 1.6738 0.91986 2.8345 0.73099 4.7815-0.18391 1.8959-0.62075 2.915-2.5702 2.9178-2.0151 3e-3 -3.3056-0.25814-4.9953-0.16671-1.6941 0.0917-1.2606 0.99737-0.30026 2.1645 0.92971 1.1299 2.2771 1.8236 3.4716 0.9859 1.3285-0.93167 2.6707-0.0833 4.9004 0.24197 2.2298 0.32526 11.898 1.9868 12.516-2.8338 0.63361-4.9422-1.6686-6.4893-1.4832-8.5906 0.18502-2.0968 1.2515-5.5931 7.169-4.9442" fill="#f7de39" stroke="#000" stroke-linecap="round" stroke-width=".70866"/>
 <ellipse transform="matrix(.98598 -.16686 .30694 .95173 0 0)" cx="132.95" cy="44.765" rx="1.9887" ry="1.4884" fill="#f7de39" stroke="#000" stroke-linecap="round" stroke-width=".71238"/>
 <path d="m141.62 18.597c-0.97311-0.4085-0.0874-1.6305 0.69682-1.0316 0.75632 0.57759 2.5447 0.74201 4.0985 0.49284 1.5112-0.24235 0.99874 0.98769-0.0953 1.1982-1.1029 0.21221-3.7642-0.26658-4.7001-0.65942z"/>
 <path d="m160.69 25.126c3.8112-0.67943 5.7012-2.2005 5.2522-4.1472-0.43544-1.888-4.2306-3.8882-9.5138-2.465" fill="#f7de39" stroke="#000" stroke-linecap="round" stroke-width=".70866"/>
 <path d="m58.377 206.87c-1.2344-1.0378-2.6625-0.88864-4.6038-0.79491 1.9823-2.5505 5.3529-1.4971 6.2094-0.51052z" fill="#f7de39" stroke="#000" stroke-width=".70866"/>
 <path d="m127.43 218.71c-1.0266-1.7052-3.3769-1.6963-5.042-1.9033 2.2714-2.3409 5.96-1.7563 6.3449 0.9278z" fill="#f7de39" stroke="#000" stroke-width=".70866"/>
 <path d="m123.66 233.2c-1.5073 0.034-3.2054 0.8129-4.6173 2.0637 0.081-2.0017 0.54841-4.3498 3.8842-5.0849z" fill="#f7de39" stroke="#000" stroke-width=".70866"/>
 <path d="m133.76 234.47c-1.3918 1.1467-2.9924 2.3146-3.9742 3.7312-0.65472-1.714 0.22981-3.606 2.1272-5.105z" fill="#f7de39" stroke="#000" stroke-width=".70866"/>
 <path d="m131.47 224.99c-5.4197-1.2535-7.4409-4.5486-7.1935-5.6725 0.23447-1.0651 2.8774-2.2784 3.7285-2.4091 0.91204-0.1402 1.3826 0.1286 2.2752 1.8292 0.89913 1.7133 1.0437 3.4887 1.1898 6.2524z" fill="#f7de39" stroke="#000" stroke-width=".70866"/>
 <path d="m67.094 205.09c0.47948-1.228-1.3313-1.8332-4.2957-3.5101 3.9121-1.5643 6.489 2.0943 5.914 3.2238z" fill="#f7de39" stroke="#000" stroke-width=".70866"/>
 <path d="m60.119 220.42c-1.879 1.0402-2.6455 2.8221-2.6705 4.6038 1.9518-1.5563 3.2406-2.1608 4.2408-3.137z" fill="#f7de39" stroke="#000" stroke-width=".70866"/>
 <path d="m56.917 217.23c-0.67757-0.3352-3.3762-2.0819-6.0649 0.865 1.5327-4.2768 4.1111-5.0241 6.3158-3.8969z" fill="#f7de39" stroke="#000" stroke-width=".70866"/>
 <path d="m65.682 217.94c0.69401 0.821 3.0952 6.7403 0.29105 6.4257-1.5397-0.1728-3.7987 0.085-4.2935-0.9648-0.5048-1.071-2.2402-2.8127-1.853-3.4394 0.71364-1.1549 4.9489-3.5863 5.8554-2.0215z" fill="#f7de39" stroke="#000" stroke-width=".70866"/>
 <path d="m61.27 213.85c-0.36007-0.3753-3.3695-1.4649-4.4354-0.916-1.0419 0.5365-1.0121 3.9638-0.86826 4.3804 0.16104 0.4666 0.88822 1.951 1.7976 2.3295 0.87537 0.3643 2.0435 0.2036 2.6529 0.064 0.58465-0.1343 1.851-0.724 2.231-1.3459 0.38414-0.6289 1.7252-2.1422 1.5492-2.9927-0.28862-1.395-2.564-1.1405-2.9271-1.5189z" fill="#f7de39" stroke="#000" stroke-width=".70866"/>
 <path d="m62.729 213.57c-0.70555 0.8535-1.7164 0.2452-3.9152-0.4064-2.2164-0.6568-1.3877-2.051-1.5084-2.8939-0.12233-0.8537-0.42013-1.8022-0.17045-2.4444 0.24248-0.62367 0.88333-1.5402 2.0744-2.0906 1.1911-0.55043 1.3336-0.26647 3.0254 0.9694 1.7153 1.253 1.4611 1.1398 2.1839 2.7322 0.73745 1.6247-0.9581 3.2486-1.6897 4.1336z" fill="#f7de39" stroke="#000" stroke-width=".70866"/>
 <path d="m110.64 180.99c-4.6282 0.51331-11.656 2.3658-15.052 5.2669-3.4265 2.9274-4.8968 4.9161-5.2058 6.4612 1.5346-0.32885 3.1952-0.55493 4.7619-0.64698-2.85 1.8159-4.7731 6.8455-4.5948 10.083 1.5549-0.58497 3.1099-1.1699 4.6648-1.7549 0 0-1.3708 2.2896-1.0119 3.4545 0.31047 1.0078 1.2374 0.98085 0.89419 2.6164-0.36076 1.7194-7.2043 4.6991-10.245 5.7233-3.0406 1.0243-10.652 2.4907-13.731 0.932-3.184-1.6119-2.1193-4.3356-1.5571-5.3316 0.60002-1.0629 1.4515-3.579 0.48477-4.4209-0.97756-0.85139-3.832 0.35666-4.7598 1.2437-0.88536 0.84645-3.0661-0.0194-2.8899 3.7828 0.17622 3.8638 4.2748 5.5032 3.6175 10.507 3.834 1.415 9.517 5.2082 13.198 5.5873 3.6805 0.3791 8.9291 0.01 11.029-0.1974-0.57542-1.2415-2.1501-2.4348-2.1501-2.4348 3.3248-0.8086 8.2286-0.2214 11.548-1.1274l-2.065-3.4998c5.2677 0.2608 7.6731 0.7315 11.41-1.2212l-3.6044-3.352c3.9583-1.1346 4.994-0.1046 9.1514-0.4385-9.6816-12.813-4.3868-17.44 6.736-22.294" fill="#f7de39" stroke="#000" stroke-width=".70866"/>
 <path d="m22.213 180.45c-2.1285-0.048-4.2213 2.1644-5.3863 3.1298-0.26947-3.1187 2.9363-5.4471 4.7002-5.6631z" fill="#f7de39" stroke="#000" stroke-width=".70866"/>
 <path d="m18.348 171.53c-1.304-0.0652-2.4286-0.47239-4.9729 0.0798 0.83769-2.1509 4.6742-3.7015 5.529-1.0186z" fill="#f7de39" stroke="#000" stroke-width=".70866"/>
 <path d="m65.015 117.9c-0.09621 1.0567-0.0518 2.2726 1.4584 3.0062-0.12709-1.0681 0.0032-2.3549 0.3831-3.6048z" fill="#f7de39" stroke="#000" stroke-width=".70866"/>
 <path d="m19.931 124.08c-1.0401-1.9051-2.8999-3.0458-4.334-3.1299 3.0592-1.7754 5.2192 0.53424 6.1107 2.0696z" fill="#f7de39" stroke="#000" stroke-width=".70866"/>
 <path d="m23.158 117.53c0.31565-2.3633-1.1334-4.1232-2.8558-5.4666 3.7014-0.0378 5.565 3.1297 5.5642 4.8954z" fill="#f7de39" stroke="#000" stroke-width=".70866"/>
 <path d="m29.714 112.02c0.09898-1.4108-0.05024-3.1189-1.0408-5.031 2.5473 1.153 2.7496 3.6116 2.6094 5.7341z" fill="#f7de39" stroke="#000" stroke-width=".70866"/>
 <path d="m37.234 118.22c0.72472 0.138 2.4423 1.9801 2.2487-3.6461 1.901 0.95133 3.5612 4.7557-1.4012 6.0976z" fill="#f7de39" stroke="#000" stroke-width=".70866"/>
 <path d="m23.97 130.25c-3.5875 1.1943-4.0568-0.92493-4.7969-3.779-0.74412-2.8697 1.154-5.3543 2.7859-3.65 1.6629 1.7367 3.3774 1.9572 2.011 7.429z" fill="#f7de39" stroke="#000" stroke-width=".70866"/>
 <path d="m21.499 162.42c-0.95306-1.7076-2.2423-2.7915-4.7208-3.8111 2.9096-0.74976 6.1745 0.70106 6.2639 3.4238z" fill="#f7de39" stroke="#000" stroke-width=".70866"/>
 <path d="m27.539 119.48c0.19129 4.7487 2.7048 10.327-1.7092 7.3802-4.414-2.9467-6.9359-8.0163-4.1294-9.8952 2.8363-1.8988 5.6473-2.1463 5.8386 2.515z" fill="#f7de39" stroke="#000" stroke-width=".70866"/>
 <path d="m29.756 119.16c-3.0337-0.10373-4.3074-3.9636-2.7941-6.6278 1.5286-2.6912 6.0371-1.844 7.0044 0.42605 1.0117 2.3742-1.1749 6.3056-4.2103 6.2018z" fill="#f7de39" stroke="#000" stroke-width=".70866"/>
 <path d="m26.687 137.87c-3.5366 0.48898-3.4933-4.3785-3.1859-9.1964 0.30746-4.7562 2.3871-12.658 8.1323-11.99 5.8315 0.67854 4.0045 2.1534 4.2537 2.8759z" fill="#f7de39" stroke="#000" stroke-width=".70866"/>
 <path d="m51.543 174.57c-3.3836-3.0694-7.4463-7.7998-8.8236-11.679l-1.3853 2.8268c-2.1869-3.5475-4.5982-8.4045-5.4993-12.922l-0.73509 3.8553c-1.2321-1.5198-3.034-8.2061-3.8883-11.63-0.4318 1.1402-1.2784 2.4298-2.0617 3.052-0.86514-0.63896-2.8364-6.4533-3.4354-8.219-0.59899-1.7657 4.7496-5.2668 3.891-12.762-0.85754-7.4862 6.8723-11.685 8.9248-8.9246 2.0998 2.8237 1.5728 4.188-1.4444 6.3416-2.9883 2.1329-2.1209 5.3575-0.97041 7.6952 1.1258 2.2876 10.264 14.783 17.627 19.734" fill="#f7de39" stroke="#000" stroke-width=".70866"/>
 <path d="m32.56 164.55c1.8565-3.1122-0.6306-4.9439-2.4219-5.3137 1.0482 1.8975 0.44838 3.2165-0.39866 4.2645z" fill="#f7de39" stroke="#000" stroke-width=".70866"/>
 <path d="m30.066 172.75c-4.7924-3.6242-5.9095-9.1738-2.5256-10.895 3.461-1.7604 9.281 3.3073 6.559 4.4117-2.6689 1.0828-3.1357 3.7318-4.0334 6.4833z" fill="#f7de39" stroke="#000" stroke-width=".70866"/>
 <path d="m120.89 191.86c-3.0963-1.9427-8.9574-4.5526-14.661-5.6363 2.4995-1.7385 7.0462-2.8468 9.3894-2.617" fill="#f7de39" stroke="#000" stroke-width=".70866"/>
 <path d="m121.41 188.54c-5.7183-3.5159-17.872-8.9227-27.946-10.006l18.829-6.6375" fill="#f7de39" stroke="#000" stroke-width=".70866"/>
 <path d="m122.14 223.85c-1.2048-0.4376-3.5164-1.7986-5.4539-1.9282 3.9099-0.6494 5.5818-0.1387 6.9372 0.5412z" fill="#f7de39" stroke="#000" stroke-width=".70866"/>
 <path d="m103.08 177.16c-5.3067-0.35521-11.088 3.3085-16.361 4.0098-5.2626 0.6998-9.3886 0.22482-12.063-0.14107l-13.943-9.2516 26.177-17.502c14.707 5.0266 27.421 11.996 34.085 15.488 6.7783 3.5512 14.672 7.879 18.035 10.452 3.3806 2.5863 10.125 8.3253 12.792 4.5052 2.6878-3.8495-7.8418-10.667-12.307-13.73-4.3685-2.9971-11.426-7.0968-16.437-9.4743-6.2231-2.9525-16.526-9.5606-18.997-13.198-4.0475-5.957-2.9424-12.881-2.9112-14.851 0.0312-1.97-0.88569-4.5043-2.4322-7.1925 5.2254 1.5492 10.026 4.9904 13.347 9.079 3.3631 4.141 5.3945 8.2976 5.6833 12.269 0.28917 3.9771-0.49734 5.6318 3.8074 7.5824 3.9362 1.7836 6.9406 3.6541 12.749 7.2508 9.1175 5.6456 26.227 15.066 23.416 24.234-2.8143 9.1803-12.613 4.8535-20.859-2.0143 11.569 8.0632 10.903 18.155 29.642 14.296-0.41983 2.4261-3.746 6.1836-5.2801 7.9556 1.1327-0.15908 3.0097 0.0424 4.1875 0.15639-0.82896 1.1739-6.4306 6.5552-8.7289 7.8515l3.0031 1.6422c-1.3982 1.3197-4.1797 3.4864-6.7774 5.2352 0.71169 0.3661 1.5554 1.0322 1.8881 1.3926-2.7984 2.4068-8.1719 3.8472-8.8223 5.4827-0.65618 1.6502-4.4092 3.8538-5.2394 3.8803-0.82773 0.026-1.8326 1.1463-2.2691 2.2601-0.45168 1.1526-4.1052 1.8248-5.0255 0.6637-0.93161-1.1755-1.9928-1.1965-2.0584-2.1068-0.0686-0.9533 0.84874-1.7121 1.306-2.5893-0.45781 0.8829-2.9933 3.2771-4.0575 3.3433-1.4191 0.089-4.5581 1.0591-5.0396-0.3419-0.38106-1.1088-0.62559-3.5583-0.49841-4.2191 0.12387-0.6435 4.7868-1.7153 6.7782-1.9028-1.9884 0.1455-6.7012 1.4306-7.7429 0.9853-1.0738-0.459-1.7265-2.5279-1.7534-4.1847-0.0269-1.6581 2.2947-3.8675 3.6472-3.2282 1.3525 0.6395 3.7228 2.2275 5.7325 1.7693 2.008-0.4578 2.0923 0.016 4.2782-0.9112 2.3188-0.9838 11.211-8.7326 11.998-10.505 0.79471-1.789 1.0795-3.8527-1.5096-3.9954-2.5021-0.13794-6.6919-2.2497-9.5866-4.2829-0.0957 1.2179-0.19143 2.4357-0.28715 3.6536-2.121-1.5179-5.4382-4.2181-7.2282-9.4068-0.32684 1.4724-0.5894 3.117-1.088 4.2303-8.744-7.0929-4.529-10.33-11.563-20.958" fill="#f7de39" stroke="#000" stroke-linecap="round" stroke-width=".70866"/>
 <path d="m80.027 173.83c-4.0788 5.453-1.9856 9.719-0.0723 13.026-2.6197 0.41391-7.9806-0.33375-10.953-0.92747l0.84162 2.1924c-3.999 0.038-6.7421-0.0645-10.785-2.1268l-0.12024 1.6632c-3.6825-0.0781-4.9876-0.92509-8.8353-2.2812l1.3258 2.5902c-4.3154-0.91465-8.2545-1.8163-10.641-2.5291-2.5545-0.763-4.4368 0.10667-7.1804-0.25105-2.7522-0.35884-3.8139-0.75112-3.2575-3.091-1.5383 2.3274-4.552 2.2052-6.822 1.3334-2.2499-0.86408-2.6188-1.7714-3.3663-2.8825-0.77634-1.154-0.38993-3.171 0.61761-3.3614 0.9945-0.18787 3.8359-0.56012 5.8011-0.36344-2.1128-0.22314-4.816 0.0996-6.0087 0.0371-1.2597-0.0659-3.7862-0.47763-3.6209-3.8147 0.16808-3.392 2.6365-4.9064 3.3604-3.8552 0.72309 1.05 3.4215 2.0098 5.3034 2.9828-1.8831-0.98279-4.7408-2.3226-5.3402-3.0691-0.59879-0.74586-1.7405-2.6601-1.4583-4.8456 0.27441-2.1247 2.1329-3.0793 3.5492-3.1266 1.417-0.0473 3.9846 0.0142 3.5521 1.9559-0.29527 1.3256-0.11769 3.6792 2.2599 6.2496 2.3843 2.5776 5.2228 2.8272 9.3178 3.2901 4.2818 0.48409 10.552-0.62139 16.335-2.5099" fill="#f7de39" stroke="#000" stroke-linecap="round" stroke-linejoin="round" stroke-width=".70866"/>
 <path d="m112.06 148.41c-3.5718-2.7821-0.86864-9.6388-4.7558-17.546" fill="none" stroke="#000" stroke-linecap="round" stroke-width=".70866"/>
 <path d="m53.455 122.84c-2.9832-0.67541-4.511-1.5729-5.4095-3.0901-0.92458-1.5613-1.3122-4.2782 0.53116-2.5118 1.8774 1.799 3.0584 3.1669 6.5408 3.653 3.4634 0.4834 19.33 1.7746 19.801 3.3193-1.6985 0.68362-18.472-0.69305-21.464-1.3704z" fill="#f7de39" stroke="#000" stroke-width=".70866"/>
 <path d="m81.276 108.11c0.55395-5.0215 6.7372 0.0201 3.0808 1.1158z" fill="#f7de39" stroke="#000" stroke-width=".70866"/>
 <path d="m75.046 129.08c-0.65542 7.311-5.9855 4.092-10.962 7.072 1.1109 0.57031 3.5395 1.5757 4.4973 2.0215-5.5653 0.19184-13.75 4.027-15.837 7.5173 1.3745 0.28369 5.1326 0.30272 5.8808 0.38802-5.0325 3.3847-10.878 8.2462-11.787 12.941 1.279-0.0253 3.1991-0.72233 4.0623-1.0701-1.0078 5.6165 0.49404 13.38 2.4322 16.014 3.3113-2.3538 7.7446-0.13516 13.334-3.3199-0.58382 2.1996-0.11445 1.228-0.87799 3.0839 6.4666-0.7682 17.653-8.9645 20.408-17.69l0.70203 4.5364c2.5725-5.8098 3.9708-10.996 2.8774-15.981l3.0308 1.419c-0.0237-5.0895-0.16455-9.7872-1.3619-13.776l2.4353 0.61253c-0.0481-2.8078-0.0706-7.3091-2.4289-11.291 3.22-2.149 4.1407-4.9264 3.0281-7.016-1.1126-2.0897-5.9282-4.0932-10.199-0.67315" fill="#f7de39" stroke="#000" stroke-width=".70866"/>
 <path d="m66.531 126.95c-0.55201-0.90618-1.048-2.0172-0.01557-3.3412 0.35657 1.0148 1.0406 2.1125 1.9324 3.0671z" fill="#f7de39" stroke="#000" stroke-width=".70866"/>
 <path d="m87.16 112.22c-0.12248-0.85212-0.97081-2.6117-3.4851-3.7452-2.5309-1.1409-8.8496-0.51108-11.232-0.58138-2.4446-0.0703-2.4351 0.76983-3.164 1.4021-0.73359 0.63643-2.2081 1.3617-4.5587 1.4271-2.3943 0.0654-3.3502 0.34599-2.8285 1.3962 0.47625 0.95884 1.5156 2.3363 1.1379 3.0135-0.41439 0.74281-0.71271 1.9564-0.25514 2.7297 0.41988 0.70964 3.7786 0.98348 5.1687-0.30439 1.3423-1.2437 3.1062 0.74183 4.0907 1.8537 0.94034 1.062 1.5342 1.982 1.605 4.1697 0.07077 2.1877-0.86639 4.6264-2.1332 4.3162-1.2493-0.30594-2.519-1.3944-4.3835-1.9148-1.9457-0.54305-1.7231 1.4253-0.56247 2.9512 1.1919 1.5669 1.9658 1.24 3.3842 0.8985 1.3285-0.31986 2.3361 1.1316 4.5658 1.4568 2.2297 0.32525 11.323 0.89499 11.774-4.9351 0.44999-5.8218-1.9675-9.0349 3.7081-11.557" fill="#f7de39" stroke="#000" stroke-linecap="round" stroke-width=".70866"/>
 <ellipse transform="matrix(.98598 -.16686 .30694 .95173 0 0)" cx="35.899" cy="125.76" rx="1.9887" ry="1.4884" fill="#f7de39" stroke="#000" stroke-linecap="round" stroke-width=".71238"/>
 <path d="m70.83 112.23c-0.97311-0.40849-0.08741-1.6305 0.69681-1.0316 0.75633 0.57759 2.5447 0.74201 4.0985 0.49284 1.5112-0.24234 0.99874 0.98769-0.09527 1.1982-1.1029 0.21222-3.7642-0.26657-4.7001-0.65942z"/>
 <path d="m73.915 224.56c-8.5757-0.4925-8.3157-3.2887-9.9976-4.9024-1.7716-1.6997-2.2104-5.5411-1.4451-7.7804 0.7386-2.1612 0.74082-0.6662 1.764 0.5114 1.083 1.2465 18.251 12.664 9.6787 12.171z" fill="#f7de39" stroke="#000" stroke-width=".70866"/>
 <path d="m91.452 121.55c3.22-2.149 4.1407-4.9264 3.0281-7.016-1.1126-2.0897-5.9282-4.0932-10.199-0.67315" fill="#f7de39" stroke="#000" stroke-linecap="round" stroke-width=".70866"/>
 <path d="m28.584 58.88 3.9331 12.088 12.435-2.6378-8.502 9.4502 8.502 9.4502-12.435-2.6378-3.9331 12.088-3.9331-12.088-12.435 2.6378 8.502-9.4502-8.502-9.4502 12.435 2.6378z" fill="#f7de39" stroke="#000" stroke-width=".70866"/>
 <path d="m1.0123 0.98749 0.40625 17.5 186.5 187.72c3.9796-5.2735 7.2936-11.101 9.875-17.5l-186.5-187.72z" color="#000000" fill="#f7de39" stroke="#000" stroke-width="1px"/>
 <path d="m1 1 3.7553 157.76c2.6823 112.68 196.35 112.68 199.03 0l3.7553-157.76z" fill="none" stroke="#000" stroke-width="2"/>
</svg>
