<?xml version="1.0" encoding="UTF-8"?>
<!-- Created with Inkscape (http://www.inkscape.org/) -->
<svg id="a" width="231.43" height="271.08" version="1.0" xmlns="http://www.w3.org/2000/svg">
 <path d="m1 1 4.1714 175.22c2.9796 125.16 218.11 125.16 221.09 0l4.1714-175.22z" fill="#d4381a" stroke="#000" stroke-width="2"/>
 <path d="m115.71 49.064c-1.7455 14.481-40.262 57.134-58.604 71.666 16.169 22.307 29.666 57.51 34.397 92.751l-22.097 1.9699c-6.0794-32.083-19.599-68.552-41.116-98.394 40.951-29.487 65.705-61.61 87.419-103.54 21.714 41.928 46.468 74.051 87.419 103.54-21.517 29.842-35.036 66.311-41.116 98.394l-22.097-1.9699c4.731-35.241 18.228-70.444 34.397-92.751-18.342-14.533-56.858-57.185-58.604-71.666z" fill="#ffef08" stroke="#000" stroke-width="1px"/>
 <rect x="62.223" y="208.19" width="106.98" height="19.666" fill="#ffef08" stroke="#000" stroke-width="1px"/>
 <path d="m115.71 29.379c-7.7702 13.106-5.1005 52.168-8.9247 146.41-0.50041 12.332-7.221 26.661-14.88 32.402v23.276h47.61v-23.276c-7.6593-5.7416-14.38-20.07-14.88-32.402-3.8242-94.243-1.1545-133.31-8.9247-146.41z" fill="#ffef08" stroke="#000" stroke-width="1px"/>
</svg>
