<?xml version="1.0" encoding="UTF-8"?>
<svg viewBox="0 0 412.41 500" xmlns="http://www.w3.org/2000/svg">
 <defs>
  <linearGradient id="c" x1="38.728" x2="42.821" y1="59.193" y2="59.005" gradientTransform="translate(64.137 .203)" gradientUnits="userSpaceOnUse">
   <stop offset="0"/>
   <stop stop-opacity="0" offset="1"/>
  </linearGradient>
  <linearGradient id="b" x1="31" x2="31.045" y1="49.403" y2="45.655" gradientTransform="translate(64.137 .203)" gradientUnits="userSpaceOnUse">
   <stop offset="0"/>
   <stop stop-opacity="0" offset="1"/>
  </linearGradient>
  <linearGradient id="a" x1="22.651" x2="18.955" y1="58.842" y2="58.864" gradientTransform="translate(64.137 .203)" gradientUnits="userSpaceOnUse">
   <stop offset="0"/>
   <stop stop-opacity="0" offset="1"/>
  </linearGradient>
 </defs>
 <path d="m206.08 1.54h204.78v300.98c0 108.32-91.538 195.93-204.66 195.93-113.05 0-204.68-87.614-204.68-195.93l-4e-3 -300.98 204.54 0.014z" fill="#fcdb00"/>
 <path d="m206.08 1.54h204.78v300.98c0 108.32-91.538 195.93-204.66 195.93-113.05 0-204.68-87.614-204.68-195.93l-4e-3 -300.98 204.54 0.014z" fill="none" stroke="#000" stroke-width="3.0811"/>
 <path d="M220.3 169.824a689.732 689.732 0 0 1 9.59-16.469c4.709-7.835 9.572-15.576 14.385-23.348 3.935-6.355 7.84-12.738 11.257-19.387 5.622-10.944 9.933-22.752 10.84-35.022.423-5.72.098-11.518-1.25-17.094-2.95-12.197-10.763-22.904-20.638-30.645-12.923-10.129-29.444-15.428-45.862-15.218-15.096.194-30.161 5.018-42.319 13.968-12.584 9.264-21.854 22.804-26.475 37.732a78.605 78.605 0 0 0-3.335 28.35 60.104 60.104 0 0 1 10.84-11.257c4.75-3.791 10.151-6.885 16.051-8.339 8.418-2.074 17.645-.602 25.016 3.961 6.064 3.754 10.797 9.455 13.968 15.844 4.352 8.768 5.836 18.79 5.211 28.56-.473 7.394-2.118 14.693-4.586 21.68a94.571 94.571 0 0 1-8.547 17.927 16.74 16.74 0 0 1 2.919 3.961 16.738 16.738 0 0 1 1.668 4.795" fill="#fff" stroke="#000" stroke-width="2.6483"/>
 <path d="M230.517 131.84a9.095 9.095 0 0 1 .047-2.249c.259-1.773 2.284-4.256 3.023-5.889 2.027-4.483 4.473-8.067 6.358-12.612 3.996-8.75 7.3-17.248 9.64-26.058.881-3.68 1.177-6.236-.364-4.586a17.709 17.709 0 0 0-2.085 2.136c-.328.4-.65.823-1.09 1.093-.22.135-.47.23-.728.248a1.134 1.134 0 0 1-.736-.194c-.254-.182-.409-.48-.464-.789-.053-.308-.02-.625.046-.93.221-1.003.774-1.903 1.407-2.71.837-1.07 1.827-2.016 2.606-3.128a10.345 10.345 0 0 0 1.818-4.957 10.347 10.347 0 0 0-.88-5.205 65.936 65.936 0 0 1-1.25 2.032 7.84 7.84 0 0 1-.65.911 2.877 2.877 0 0 1-.862.705 1.7 1.7 0 0 1-.648.189 1.186 1.186 0 0 1-.655-.137c-.276-.154-.468-.432-.568-.732-.1-.299-.118-.62-.11-.936.027-1.048.327-2.078.782-3.022.446-.925 1.04-1.774 1.46-2.71.516-1.155.756-2.45.573-3.7a5.77 5.77 0 0 0-1.381-2.971c-.241.71-.476 1.422-.704 2.136-.178.559-.363 1.139-.76 1.57-.199.216-.45.39-.732.468-.282.08-.597.059-.853-.083-.245-.136-.423-.374-.525-.635s-.13-.545-.127-.825c.014-1.147.546-2.214.964-3.283.639-1.63 1.031-3.419.678-5.133a6.242 6.242 0 0 0-2.84-4.025c.244.62.244 1.334.001 1.955a2.708 2.708 0 0 1-1.328 1.435c-.209.102-.435.176-.668.187a1.02 1.02 0 0 1-.658-.187.972.972 0 0 1-.312-.423 1.398 1.398 0 0 1-.09-.52c0-.356.102-.701.18-1.047.528-2.302.07-4.737-.81-6.928a18.7 18.7 0 0 0-4.938-7.001 48.572 48.572 0 0 1 11.792 10.907c3.769 4.878 6.59 10.47 8.402 16.362 1.77 5.756 2.582 11.844 1.99 17.837-.665 6.726-3.061 13.151-5.675 19.384-3.513 8.376-7.463 16.578-12.088 24.395a159.417 159.417 0 0 1-6.191 9.655"/>
 <path transform="translate(-423.85 .04) scale(6.6208)" d="m92.568 25.644s-1.215 0.08-1.2 1.5 1.2 1.5 1.2 1.5h4.725s1.183-0.08 1.199-1.5-1.2-1.5-1.2-1.5h-4.722z" fill="#fff" fill-rule="evenodd" stroke="#000" stroke-linejoin="round" stroke-width=".4" style="paint-order:markers fill stroke"/>
 <path d="M219.023 175.326a1.267 1.267 0 0 0-.604-.043 1.42 1.42 0 0 0-.562.232 1.762 1.762 0 0 0-.676.99 2.573 2.573 0 0 0 0 1.253c.117.506.349.976.555 1.453.206.477.39.976.403 1.495.013.555-.17 1.093-.347 1.62-.177.525-.35 1.069-.317 1.623.02.33.117.658.307.929.19.27.475.479.799.545.214.044.438.025.646-.04s.4-.178.568-.317c.336-.278.574-.657.776-1.043.637-1.22.974-2.607.884-3.98-.092-1.408-.633-2.773-1.474-3.907-.126-.17-.26-.337-.417-.48s-.339-.264-.54-.33z"/>
 <path d="M189.024 189.686a123.49 123.49 0 0 1-.15 20.276c-.718 7.995-2.214 15.902-3.98 23.732-1.727 7.667-3.727 15.527-2.505 23.29.593 3.766 1.953 7.421 4.06 10.599 2.108 3.177 4.968 5.867 8.322 7.68a22.073 22.073 0 0 0 11.156 2.628 21.975 21.975 0 0 0 10.955-3.366c4.745-3 8.26-7.924 9.434-13.414 1.417-6.628-.502-13.45-2.064-20.047-1.646-6.952-2.906-13.994-3.832-21.08a227.35 227.35 0 0 1-1.917-30.07" fill="#7a3f28" stroke="#000" stroke-width="2.6483"/>
 <g fill="none" stroke="#000" stroke-linecap="round" stroke-width=".5">
  <path d="m199.71 202.37h9.065m-6.628 5.826 7.739 0.074m-5.972 5.964h6.56m-4.646 6.045h5.675" stroke-width="3.3104"/>
 </g>
 <path d="M217.547 257.794c.33-2.416.479-4.858.442-7.296-.051-3.403-.464-6.806-1.327-10.098-.203-.774-.434-1.55-.824-2.248-.39-.7-.955-1.323-1.682-1.658a3.133 3.133 0 0 0-2.25-.117 3.528 3.528 0 0 0-1.803 1.37c-.355.52-.574 1.124-.71 1.74-.136.614-.193 1.244-.249 1.871-.333 3.799-.613 7.643-1.769 11.277-.674 2.123-1.638 4.14-2.505 6.191-.407.961-.796 1.94-.982 2.966-.186 1.027-.16 2.115.244 3.078.35.832.974 1.539 1.731 2.03.758.49 1.645.768 2.544.844 1.393.119 2.808-.243 4.027-.929 1.218-.686 2.245-1.686 3.049-2.83a11.449 11.449 0 0 0 2.063-6.19z"/>
 <path transform="translate(-423.85 .04) scale(6.6208)" d="M98.666 43.068a9.496 9.496 0 0 0-1.123.082c-.534.066-1.074.16-1.559.395-.135.065-.263.14-.4.2s-.284.11-.434.114a1.087 1.087 0 0 1-.406-.082c-.13-.05-.254-.112-.38-.17-.56-.255-1.169-.392-1.78-.457-.82-.088-1.665-.047-2.44.236-.763.28-1.44.802-1.888 1.48-.467.709-.675 1.562-.725 2.41-.06 1.006.1 2.041.582 2.927.28.514.662.966 1.055 1.4.47.52.964 1.021 1.48 1.496.647.594 1.328 1.148 1.983 1.733.388.347.78.724.96 1.213.065.174.102.359.093.544-.01.186-.065.373-.17.526a.954.954 0 0 1-.352.303c-.14.071-.295.11-.451.12a1.516 1.516 0 0 1-.625-.1 2.42 2.42 0 0 1-.557-.308c-.446-.32-.808-.744-1.18-1.15-.912-.997-1.902-1.92-2.912-2.818-.396-.353-.798-.702-1.244-.99-.694-.45-1.502-.747-2.33-.756a3.483 3.483 0 0 0-2.33.85 3.494 3.494 0 0 0-.96 1.433c-.338.94-.28 1.98-.079 2.959.114.557.272 1.104.424 1.652.099.355.196.72.158 1.086-.025.244-.11.477-.19.709a10.463 10.463 0 0 0-.47 1.826c-.117.781-.104 1.59.125 2.346.17.562.455 1.085.803 1.558.344.469.76.9 1.275 1.167.496.257 1.063.35 1.621.36.69.013 1.39-.1 2.016-.392.521-.243.978-.603 1.416-.976a16.14 16.14 0 0 0 1.937-1.938c.563-.676 1.058-1.411 1.7-2.014.253-.238.542-.46.882-.535.303-.066.626-.009.897.14.25.14.459.355.582.614.092.196.137.415.127.631v9.95h2.738v-9.95c0-.226.03-.433.062-.646.027-.18.075-.362.188-.504.132-.168.34-.262.55-.3.4-.069.78.056 1.09.315.213.178.37.41.536.631.44.587.948 1.116 1.447 1.652.564.607 1.116 1.225 1.701 1.811.52.52 1.078 1.022 1.748 1.322.566.253 1.192.352 1.81.348.594-.004 1.19-.104 1.731-.348a3.512 3.512 0 0 0 1.465-1.242c.24-.358.413-.758.551-1.166.205-.608.332-1.248.299-1.889-.035-.662-.24-1.306-.488-1.922-.13-.323-.273-.641-.377-.974a2.015 2.015 0 0 1-.112-.647c.004-.154.037-.308.08-.457.084-.29.211-.565.315-.85.206-.566.316-1.164.392-1.763.06-.475.102-.953.08-1.432-.028-.65-.173-1.303-.488-1.873a3.678 3.678 0 0 0-1.558-1.48 3.84 3.84 0 0 0-2.614-.315 4.37 4.37 0 0 0-1.638.819c-.701.547-1.253 1.256-1.827 1.935-.716.85-1.474 1.663-2.218 2.489-.323.357-.657.728-1.102.912a1.39 1.39 0 0 1-.506.11 1.092 1.092 0 0 1-.502-.11.996.996 0 0 1-.55-.865c-.006-.202.05-.401.138-.583.088-.181.208-.346.334-.503.264-.327.56-.626.865-.914.818-.774 1.695-1.482 2.502-2.266.434-.42.85-.867 1.182-1.371.642-.973.954-2.14.992-3.305a5.765 5.765 0 0 0-.187-1.74 3.82 3.82 0 0 0-.82-1.535 3.554 3.554 0 0 0-1.827-1.055 4.794 4.794 0 0 0-1.113-.113z" fill="#094" fill-rule="evenodd" opacity=".998" stroke="#000" stroke-linecap="round" stroke-linejoin="round" stroke-width=".4" style="paint-order:markers fill stroke"/>
 <g>
  <path transform="translate(-423.85 .04) scale(6.6208)" d="M87.323 58.729c-2.61-.01-4.115.334-4.631.349-.222.006-.007-.221 0 0 .006.221-.222.007 0 0 .511-.015 1.813.379 4.655.342 1.34.022 1.93.039 4.124.187.275.02.511.046.681.123a.81.81 0 0 1 .305.24.4.4 0 0 0 .635-.486 1.603 1.603 0 0 0-.61-.482c-.338-.154-.675-.174-.957-.194-2.138-.158-2.404-.1-4.202-.079z" fill="url(#a)" style="font-feature-settings:normal;font-variant-alternates:normal;font-variant-caps:normal;font-variant-east-asian:normal;font-variant-ligatures:normal;font-variant-numeric:normal;font-variant-position:normal;font-variation-settings:normal;inline-size:0;isolation:auto;mix-blend-mode:normal;shape-margin:0;shape-padding:0;text-decoration-color:#000;text-decoration-line:none;text-decoration-style:solid;text-indent:0;text-orientation:mixed;text-transform:none;white-space:normal"/>
  <path transform="translate(-423.85 .04) scale(6.6208)" d="M95.183 45.457c-.221 0 0-.221 0 0 0 1.247-.26 1.32-.332 4.486-.037 1.606-.169 2.863-.227 4.465a.4.4 0 1 0 .801.028c.058-1.608.002-2.847.013-4.457.02-3.234-.256-3.271-.255-4.522 0-.22.22 0 0 0z" fill="url(#b)" style="font-feature-settings:normal;font-variant-alternates:normal;font-variant-caps:normal;font-variant-east-asian:normal;font-variant-ligatures:normal;font-variant-numeric:normal;font-variant-position:normal;font-variation-settings:normal;inline-size:0;isolation:auto;mix-blend-mode:normal;shape-margin:0;shape-padding:0;text-decoration-color:#000;text-decoration-line:none;text-decoration-style:solid;text-indent:0;text-orientation:mixed;text-transform:none;white-space:normal"/>
  <path transform="translate(-423.85 .04) scale(6.6208)" d="M107.36 59.184c-2.378-.123-2.793-.084-5.79-.124-.397-.006-3.047-.115-3.446-.126-.204-.006-.468-.021-.754.09a1.154 1.154 0 0 0-.623.576.4.4 0 1 0 .718.35.386.386 0 0 1 .196-.18c.09-.035.24-.04.441-.035.399.01 3.034-.097 3.435-.11 2.562-.086 3.879-.121 5.823-.441.22-.014.014.22 0 0-.013-.22.22-.014 0 0z" fill="url(#c)" style="font-feature-settings:normal;font-variant-alternates:normal;font-variant-caps:normal;font-variant-east-asian:normal;font-variant-ligatures:normal;font-variant-numeric:normal;font-variant-position:normal;font-variation-settings:normal;inline-size:0;isolation:auto;mix-blend-mode:normal;shape-margin:0;shape-padding:0;text-decoration-color:#000;text-decoration-line:none;text-decoration-style:solid;text-indent:0;text-orientation:mixed;text-transform:none;white-space:normal"/>
 </g>
 <g fill="none" stroke="#000" stroke-linecap="round" stroke-width=".4">
  <path d="m120.45 427.59a11.4 11.4 0 0 0 3.127-2.084 11.41 11.41 0 0 0 2.502-3.44m2.812 10.735c0.937-0.9 1.716-1.963 2.294-3.127a11.352 11.352 0 0 0 1.146-4.17m5.525 8.442a8.85 8.85 0 0 0 1.772-3.23 8.848 8.848 0 0 0 0.313-3.545m6.773 2.498a14.282 14.282 0 0 0 2.19-3.648c0.586-1.424 0.94-2.945 1.042-4.482m7.713 0.629a8.203 8.203 0 0 0 1.46-3.231 8.2 8.2 0 0 0 0-3.336m9.054-115.72 2.137 2.21m2.65-6.931 4.348 4.79m4.496-7.518a6.813 6.813 0 0 1 1.696 2.58 6.823 6.823 0 0 1 0.295 3.612m8.179-5.523a15.54 15.54 0 0 1 0.59 7.37m6.786-4.569a14.373 14.373 0 0 1 0.442 6.486m21.222-8.625a9.443 9.443 0 0 1-0.738 3.76 9.432 9.432 0 0 1-1.621 2.579m11.945-5.75a15.448 15.448 0 0 1-3.685 6.486m12.312-3.023a24.014 24.014 0 0 1-6.486 9.434m10.591-0.516a20.676 20.676 0 0 1-7.96 7.739m0.902 10.985a27.138 27.138 0 0 0 6.928-6.191m-13.118 15.328c1.342 0.23 2.732 0.18 4.053-0.148a9.913 9.913 0 0 0 3.465-1.621m32.942 17.467a2.852 2.852 0 0 1 0.442-1.622 2.853 2.853 0 0 1 1.548-1.18m4.1 4.868a7.154 7.154 0 0 1 2.138-3.391 7.13 7.13 0 0 1 2.653-1.474m0.043 11.128a28.766 28.766 0 0 1 4.57-4.939m-2.716 11.646a9.81 9.81 0 0 0 4.496-2.138 9.791 9.791 0 0 0 2.432-3.095m-8.451 14.8c1.824-0.33 3.173-0.916 4.794-1.912 2.103-1.291 3.063-2.202 4.431-3.196m-11.741 11.755c1.5 0.561 3.116 0.814 4.717 0.737a11.865 11.865 0 0 0 4.127-0.958m-5.401 21.004a139.84 139.84 0 0 1 5.454 2.727m-4.792 6.859a24.085 24.085 0 0 1 6.191 3.98m-6.125 4.787a67.428 67.428 0 0 1 4.422 5.011m-8.858 1.695a33.908 33.908 0 0 1 5.012 5.086m-12.824-4.861a26.272 26.272 0 0 0 4.053 7.15m-13.058-10.321a20.262 20.262 0 0 0 2.654 8.328m-10.996-10.983a9.276 9.276 0 0 0 1.106 5.16" stroke-width="2.6483"/>
 </g>
</svg>
