<?xml version="1.0" encoding="UTF-8" standalone="no"?>
<!-- Created with Inkscape (http://www.inkscape.org/) -->
<svg
   xmlns:svg="http://www.w3.org/2000/svg"
   xmlns="http://www.w3.org/2000/svg"
   version="1.0"
   width="210.66693"
   height="246.76353"
   id="svg2780">
  <defs
     id="defs2782" />
  <g
     transform="translate(-38.003555,-787.11378)"
     id="layer1">
    <path
       d="M 39.003555,788.11378 L 42.797495,947.49464 C 45.507445,1061.3382 241.16658,1061.3382 243.87654,947.49464 L 247.67048,788.11378 L 39.003555,788.11378 z "
       style="fill:#d33921;fill-opacity:1;fill-rule:evenodd;stroke:#000000;stroke-width:2;stroke-linecap:butt;stroke-miterlimit:4;stroke-dashoffset:0;stroke-opacity:1"
       id="path3282" />
    <path
       d="M 69.511818,195.52319 C 69.159413,191.99914 73.300168,189.4442 72.242954,188.12268 C 71.142226,186.74677 71.186658,185.75298 73.828775,185.47966 C 76.383708,185.21535 87.313862,188.01942 96.470773,188.12269 L 69.511818,195.52319 z "
       transform="translate(20.28702,787.9201)"
       style="opacity:1;color:#000000;fill:#efd905;fill-opacity:1;fill-rule:evenodd;stroke:#000000;stroke-width:1px;stroke-linecap:butt;stroke-linejoin:miter;marker:none;marker-start:none;marker-mid:none;marker-end:none;stroke-miterlimit:4;stroke-dasharray:none;stroke-dashoffset:0;stroke-opacity:1;visibility:visible;display:inline;overflow:visible;enable-background:accumulate"
       id="path34582" />
    <path
       d="M 124.46927,169.53735 C 125.12247,173.31166 123.91011,176.40489 121.35442,177.01298 C 118.79873,177.62107 114.94084,180.5542 108.24774,184.4788 C 101.59277,188.38104 104.11245,191.08364 104.81993,193.07673 C 105.55512,195.14787 105.15722,196.1702 103.20647,195.47425 C 101.36107,194.81587 98.283179,193.72366 96.414271,195.84176 C 94.545363,197.95986 81.72731,205.45902 81.198703,212.24281 C 78.166813,210.89234 78.37569,206.98371 76.826166,204.20395 C 75.239036,201.35673 69.639761,194.70179 63.852519,197.82015 C 63.500115,191.65306 80.239557,192.27405 88.444376,189.68873 C 96.624334,187.11124 113.0984,175.21858 115.91764,168.34668 L 124.46927,169.53735 z "
       transform="translate(20.28702,787.9201)"
       style="opacity:1;color:#000000;fill:#efd905;fill-opacity:1;fill-rule:evenodd;stroke:#000000;stroke-width:1px;stroke-linecap:butt;stroke-linejoin:round;marker:none;marker-start:none;marker-mid:none;marker-end:none;stroke-miterlimit:4;stroke-dasharray:none;stroke-dashoffset:0;stroke-opacity:1;visibility:visible;display:inline;overflow:visible;enable-background:accumulate"
       id="path34579" />
    <path
       d="M 109.95025,159.75412 C 110.74316,162.92576 113.64603,168.54831 114.88392,170.50246 L 124.39884,173.6741 C 127.10179,171.64973 129.04041,169.18268 130.47782,166.1855 L 109.95025,159.75412 z "
       transform="translate(20.28702,787.9201)"
       style="fill:#ffffff;fill-opacity:1;fill-rule:evenodd;stroke:#000000;stroke-width:1px;stroke-linecap:butt;stroke-linejoin:miter;stroke-opacity:1"
       id="path34577" />
    <path
       d="M 144.42785,1008.1406 C 146.36608,1004.6165 151.97529,992.95437 148.72818,991.65403 C 145.55684,990.38405 146.99897,989.35348 149.98923,988.8551 C 153.50809,988.26862 170.91885,988.99481 173.03695,988.99481"
       style="opacity:1;color:#000000;fill:#efd905;fill-opacity:1;fill-rule:evenodd;stroke:#000000;stroke-width:1px;stroke-linecap:butt;stroke-linejoin:miter;marker:none;marker-start:none;marker-mid:none;marker-end:none;stroke-miterlimit:4;stroke-dasharray:none;stroke-dashoffset:0;stroke-opacity:1;visibility:visible;display:inline;overflow:visible;enable-background:accumulate"
       id="path34594" />
    <path
       d="M 152.12911,170.78329 C 181.65785,183.49186 203.71096,163.43225 212.43253,150.1007 C 193.70443,152.66188 191.08545,147.4427 183.27757,137.76591 L 156.42741,143.96593"
       transform="translate(20.28702,787.9201)"
       style="opacity:1;color:#000000;fill:#ffffff;fill-opacity:1;fill-rule:evenodd;stroke:#000000;stroke-width:1px;stroke-linecap:butt;stroke-linejoin:miter;marker:none;marker-start:none;marker-mid:none;marker-end:none;stroke-miterlimit:4;stroke-dasharray:none;stroke-dashoffset:0;stroke-opacity:1;visibility:visible;display:inline;overflow:visible;enable-background:accumulate"
       id="path34565" />
    <path
       d="M 172.7899,961.56904 C 172.7899,961.56904 175.84492,982.73056 175.90475,984.24513 C 175.97774,986.09265 176.332,986.97797 178.27203,987.60916 C 180.29155,988.26622 184.21788,993.59593 184.912,996.28798 C 182.69878,994.04636 178.69742,990.86998 177.70067,992.73889 C 176.70392,994.6078 167.11019,1008.3131 165.86425,1009.8083 C 164.61832,1011.3034 164.56671,1015.2941 164.91911,1018.1133 C 159.92905,1008.6007 152.79961,1001.7057 143.92062,1010.9019 C 140.79266,1005.7433 157.3789,998.71064 162.1124,994.36898 C 166.89354,989.98362 168.80916,987.05918 168.18619,983.81974 C 167.56322,980.5803 165.37214,961.48094 165.37214,961.48094"
       style="color:#000000;fill:#efd905;fill-opacity:1;fill-rule:evenodd;stroke:#000000;stroke-width:1px;stroke-linecap:butt;stroke-linejoin:round;marker:none;marker-start:none;marker-mid:none;marker-end:none;stroke-miterlimit:4;stroke-dashoffset:0;stroke-opacity:1;visibility:visible;display:inline;overflow:visible;enable-background:accumulate"
       id="path34592" />
    <path
       d="M 155.05805,112.53189 C 149.41072,106.36481 130.79582,91.207426 116.64594,87.51116 C 134.01831,83.441112 143.52209,79.657848 154.77496,66.847548 C 166.08948,53.967069 162.12967,25.427479 138.2208,20.386929 C 114.28648,15.341014 95.113837,24.366597 91.237386,25.600013 C 87.360935,26.833429 82.745776,27.271342 74.745205,27.322951 C 66.62004,27.37456 56.448875,33.520263 54.063882,35.458488 C 51.616759,37.447206 49.355813,39.745529 53.23448,42.454973 C 57.196439,45.222602 60.35189,53.701691 65.63796,53.701691 C 70.92403,53.701691 81.39814,53.340432 89.184941,47.25519 C 97.032573,41.12241 113.04795,34.164607 124.9702,34.194841 C 136.89149,34.225072 148.18016,43.844588 139.40627,54.488341 C 130.69339,65.058086 109.44213,68.05592 84.707526,71.958934 C 59.991805,75.858968 40.853085,95.102416 59.144408,124.37743 C 77.400662,153.59631 102.63401,159.39957 134.31778,168.96825 C 138.0109,172.63114 141.08106,175.79565 145.27256,178.71098 L 152.94362,178.43156 C 158.14785,173.92329 159.63931,169.62144 159.81551,167.33081"
       transform="translate(20.28702,787.9201)"
       style="fill:#ffffff;fill-opacity:1;fill-rule:evenodd;stroke:#000000;stroke-width:1px;stroke-linecap:round;stroke-linejoin:round;stroke-opacity:1"
       id="path33594" />
    <path
       d="M 93.034828,87.863565 C 38.940714,82.753698 84.834072,165.71563 203.16128,141.95768 C 189.33674,128.59567 152.70868,107.71569 126.16087,104.07418"
       transform="translate(20.28702,787.9201)"
       style="fill:#ffffff;fill-opacity:1;fill-rule:evenodd;stroke:#000000;stroke-width:1px;stroke-linecap:round;stroke-linejoin:miter;stroke-opacity:1"
       id="path34569" />
    <path
       d="M 179.81447,125.39466 C 171.35676,126.80427 150.65299,126.62808 129.33251,122.39922"
       transform="translate(20.28702,787.9201)"
       style="fill:none;fill-opacity:0.75;fill-rule:evenodd;stroke:#000000;stroke-width:1px;stroke-linecap:round;stroke-linejoin:miter;stroke-opacity:1"
       id="path34571" />
    <path
       d="M 194.26307,134.82148 C 178.40486,137.99313 159.63931,138.25743 138.31883,134.90959"
       transform="translate(20.28702,787.9201)"
       style="fill:none;fill-opacity:0.75;fill-rule:evenodd;stroke:#000000;stroke-width:1px;stroke-linecap:round;stroke-linejoin:miter;stroke-opacity:1"
       id="path34573" />
    <path
       d="M 66.074039,53.826285 C 69.622094,53.701691 69.514128,48.407148 69.547407,45.173793 C 69.580699,41.939197 69.522853,41.143325 70.132859,40.123795 C 71.365835,42.468299 74.508042,42.374497 75.669831,41.258675 C 76.800961,40.172299 76.567827,38.842668 76.122746,38.065276 C 75.677665,37.287883 74.707371,37.114125 74.68243,36.854495 C 74.622092,36.226408 75.225963,36.331064 76.720395,35.397173 C 71.673651,35.584628 67.638732,38.703379 66.007153,38.334962 C 64.361123,37.963283 55.057373,34.470002 53.378616,36.206051 C 51.668463,37.974568 49.355813,39.745529 53.23448,42.454973 C 57.196439,45.222602 62.527623,53.950821 66.074039,53.826285 z "
       transform="translate(20.28702,787.9201)"
       style="fill:#000000;fill-opacity:1;fill-rule:evenodd;stroke:none;stroke-width:1px;stroke-linecap:butt;stroke-linejoin:miter;stroke-opacity:1"
       id="path35572" />
    <path
       d="M 65.944051,45.940239 C 69.137069,49.967403 68.152841,53.540464 64.664213,53.914246 C 61.175585,54.288028 41.115974,55.160185 40.36841,55.160185 C 39.620847,55.160185 38.526727,52.851988 40.243817,52.41912"
       transform="translate(20.28702,787.9201)"
       style="opacity:1;color:#000000;fill:#efd905;fill-opacity:1;fill-rule:evenodd;stroke:#000000;stroke-width:1px;stroke-linecap:butt;stroke-linejoin:round;marker:none;marker-start:none;marker-mid:none;marker-end:none;stroke-miterlimit:4;stroke-dasharray:none;stroke-dashoffset:0;stroke-opacity:1;visibility:visible;display:inline;overflow:visible;enable-background:accumulate"
       id="path34599" />
    <path
       d="M 56.398264,40.892354 C 54.915055,42.095254 51.174177,46.350513 46.224322,47.435365 C 41.358495,48.501801 37.232187,49.993967 36.484624,51.115312 C 35.737061,52.236656 35.281439,53.811029 38.022504,53.561841 C 40.763569,53.312653 41.115974,51.79615 45.476759,51.920744 C 49.837544,52.045338 66.113992,49.32565 67.359931,48.70268 C 68.60587,48.079711 65.165741,44.578654 64.050099,43.749158 C 62.975143,42.949914 61.822552,42.131712 59.850399,44.010868 C 57.923921,45.846503 55.992275,45.019694 58.810895,42.603843 C 61.680634,40.144177 57.923622,39.65527 56.398264,40.892354 z "
       transform="translate(20.28702,787.9201)"
       style="opacity:1;color:#000000;fill:#efd905;fill-opacity:1;fill-rule:evenodd;stroke:#000000;stroke-width:1px;stroke-linecap:butt;stroke-linejoin:round;marker:none;marker-start:none;marker-mid:none;marker-end:none;stroke-miterlimit:4;stroke-dasharray:none;stroke-dashoffset:0;stroke-opacity:1;visibility:visible;display:inline;overflow:visible;enable-background:accumulate"
       id="path34601" />
  </g>
</svg>
