<?xml version="1.0" encoding="UTF-8"?>
<svg width="620" height="759" viewBox="0 0 465 569.25" xmlns="http://www.w3.org/2000/svg">
 <path d="m3.0008 3.2285v328.29a229.5 234.5 0 0 0 459 0v-328.29z" fill="#f00000" stroke="#000" stroke-width="6"/>
 <path d="m14.08 58.133c-7.1388 16.514 0.18383 34.193 8.3644 48.807 29.294 41.546 56.148 48.507 96.879 60.297-16.3 2.543-32.569 2.3898-48.991 2.2366-21.662-0.0919-42.189 4.8409-62.442 12.102 9.0078 10.815 18.414 21.324 27.544 32.048 8.7014 9.8963 18.383 18.444 31.711 21.171 13.052 2.9107 26.441-2.4511 38.635-6.6486-3e-3 10.724-0.18383 20.834 3.2477 31.19 6.2196 19.854 19.884 32.937 30.21 52.453 11.367 20.405 21.383 47.18 16.205 70.683-1.8077 10.478 3.7992 22.121 5.8826 32.538 3.0639 11.49 4.9328 27.238 13.358 36.123 6.5873 4.5958 16.545 5.086 24.205 7.2614 11.195 2.1171 22.326 10.653 33.604 10.457h3e-3c11.281 0.19609 22.412-8.3398 33.604-10.457 7.6597-2.1754 17.62-2.6656 24.205-7.2614 8.4256-8.8852 10.295-24.633 13.358-36.123 2.0834-10.417 7.6903-22.063 5.8826-32.538-5.1779-23.503 4.8409-50.278 16.208-70.683 10.325-19.517 23.99-32.6 30.21-52.453 3.4315-10.356 3.2477-20.467 3.2477-31.19 12.194 4.1975 25.583 9.5593 38.635 6.6486 13.328-2.7268 23.01-11.275 31.711-21.171 9.1303-10.724 18.536-21.233 27.544-32.048-20.252-7.2614-40.78-12.194-62.445-12.102-16.422 0.15319-32.691 0.30638-48.991-2.2366 40.734-11.79 67.586-18.751 96.879-60.297 8.1805-14.615 15.503-32.293 8.3644-48.807-14.798 12.623-25.767 26.349-43.323 35.541-22.856 12.255-46.387 13.818-71.694 15.35l-0.13787-0.34928v-6e-3a22.804 22.804 0 0 0-40.529-16.888l0.0337-0.26043a22.804 22.804 0 0 0-22.804-22.804 22.789 22.789 0 0 0-18.123 9.0047 22.477 22.477 0 0 0-21.668-16.536 22.477 22.477 0 0 0-21.75 16.857 22.801 22.801 0 0 0-41.191 13.481l0.0306 0.25736a22.804 22.804 0 0 0-40.526 16.888v6e-3c-0.049 0.1103-0.0919 0.23898-0.14093 0.34928-25.308-1.5318-48.838-3.0944-71.691-15.35-17.556-9.1916-28.525-22.918-43.323-35.541z" stroke="none" />
 <path d="m161.88 107.43c-0.28187 7.2736-0.7966 16.147 4.2588 21.049 7.9967 9.2835 22.645 11.673 32.174 3.5541 8.5482-6.0971 10.616-13.987 11.275-24.511-4.412 8.0886-7.6964 18.353-17.348 21.692-6.4954 1.2255-15.105 1.8077-20.13-3.309-5.7601-4.7184-7.3226-11.888-10.233-18.475zm141.24 0c-2.9107 6.5873-4.4732 13.757-10.233 18.475-5.0247 5.1167-13.634 4.5345-20.13 3.309-9.6512-3.3396-12.933-13.604-17.345-21.692 0.65873 10.524 2.7268 18.414 11.275 24.511 9.5286 8.1192 24.177 5.7294 32.174-3.5541 5.0554-4.9022 4.5406-13.775 4.2588-21.049zm-88.396 2.5798c0.58213 8.1805 2.877 18.377 10.537 22.912 2.2152 1.6238 4.7122 2.3163 7.2399 2.3898 2.5246-0.0735 5.0247-0.76597 7.2399-2.3898 7.6597-4.5345 9.9514-14.734 10.537-22.912-3.5142 6.6486-6.333 16.079-11.98 18.778a15.963 15.963 0 0 1-5.7968 1.4676 15.963 15.963 0 0 1-5.7999-1.4706c-5.6467-2.6962-8.4655-12.13-11.98-18.775zm-75.212 0.11643c-2.7268 1.4706-5.423 2.9719-8.1192 4.5039-8.2112 4.9022-13.971 11.459-15.84 21.079-2.2366 8.4256 3.9861 14.37 8.9189 20.16-0.79661 8.5788-1.6851 16.333 3.0945 24.024 5.2116 10.264 14.777 12.847 24.051 14.982 1.0448 8.8025 4.412 18.748 13.573 23.926 6.7405 4.3813 14.998 4.2281 22.427 1.4707 5.2944 6.8263 10.852 11.716 19.884 13.971 9.0537 2.2611 17.023-1.6974 24.958-4.9451l0.0398 0.0184 0.0398-0.0184c7.9354 3.2477 15.905 7.2062 24.958 4.9451 9.0323-2.255 14.59-7.1449 19.884-13.971 7.4299 2.7575 15.687 2.9107 22.428-1.4707 9.161-5.1779 12.528-15.123 13.573-23.929 9.2743-2.1324 18.84-4.7184 24.051-14.979 4.7796-7.6903 3.8911-15.445 3.0945-24.024 4.9328-5.7907 11.152-11.735 8.9158-20.16-1.869-9.6205-7.626-16.177-15.837-21.079-2.6962-1.5319-5.3924-3.0332-8.1192-4.5039 5.852 6.189 14.278 12.102 17.77 19.946 2.4511 8.2112-0.31864 14.762-3.6766 21.879-1.725-3.8666-3.9493-6.0971-7.0469-9.5286 3.4928 11.735 7.2583 24.015 0.24205 35.354-4.4426 7.7822-9.6818 10.187-19.333 13.175-4.1669-8.5482-8.1805-14.186-15.779-19.854 3.983 7.8128 9.6328 14.514 9.7186 22.765 0.0766 7.4758-1.7862 16.386-8.3705 20.804-5.6498 3.7961-13.138 3.4346-20.344 1.4431 1.2439-4.7858 0.65261-8.395 0.0306-12.687-4.5039 9.0997-7.7209 17.801-16.943 23.224-10.92 5.4567-20.696 3.8114-29.257-5.0431-8.5574 8.8546-18.337 10.503-29.257 5.0431-9.2222-5.423-12.439-14.124-16.943-23.224-0.6189 4.2955-1.2102 7.9017 0.0306 12.687-7.2032 1.9915-14.691 2.353-20.344-1.44-6.5812-4.4212-8.4471-13.334-8.3674-20.807 0.0858-8.251 5.7325-14.952 9.7155-22.765-7.5984 5.6682-11.612 11.306-15.779 19.854-9.6481-2.9873-14.89-5.3924-19.333-13.175-7.0163-11.336-3.2477-23.619 0.24511-35.354-3.1006 3.4315-5.325 5.662-7.0469 9.5286-3.358-7.1174-6.1277-13.668-3.6766-21.879 3.4928-7.8435 11.918-13.757 17.77-19.946zm84.9 31.04c-4.8593 9.8656-12.464 21.098-23.007 21.799-9.7676 0.64954-17.672-9.1579-23.806-17.204 2.9965 11.211 7.8282 23.285 24.499 23.846 14.541-0.48103 19.777-15.727 22.314-28.442zm16.177 0c2.5369 12.715 7.773 27.961 22.314 28.442 16.667-0.55763 21.502-12.635 24.499-23.846-6.1339 8.0457-14.039 17.853-23.806 17.204-10.543-0.70163-18.147-11.937-23.01-21.799zm-32.986 33.917c0.3217 4.8317 1.0417 10.141 3.7073 13.971 5.4353 6.3882 13.04 10.494 21.19 10.028 8.1499 0.46877 15.751-3.6399 21.187-10.028 2.6656-3.8298 3.3856-9.1395 3.7073-13.971-5.7601 9.5286-11.41 17.908-24.885 17.74h-0.0184c-13.475 0.16851-19.128-8.2112-24.888-17.74zm-177.93 14.86c11.643 5.086 23.01 10.233 33.641 17.25 11.765 7.4758 26.778 11.275 39.738 4.5039 8.7014-4.1669 13.162-11.41 17.556-18.996-10.846 8.9771-22.948 18.782-38.053 16.361-18.72-3.4928-33.733-15.718-52.882-19.119zm405.65 0c-19.149 3.4009-34.162 15.626-52.882 19.119-15.105 2.4205-27.207-7.3839-38.053-16.361 4.3905 7.5861 8.8515 14.829 17.553 18.996 12.96 6.7711 27.973 2.972 39.738-4.5039 10.632-7.0162 21.999-12.164 33.641-17.25zm-313.62 15.258c0.58213 11.361 3.7134 19.722 9.8044 29.321-2.6625 6.7712-4.6264 15.35-1.2562 21.937 5.7907 12.164 20.755 17.636 32.14 17.066 11.385-0.56681 14.477-5.9868 17.109-12.062 4.2373 3.3335 8.107 9.4275 12.121 14.483-1.9547-9.1364-6.1277-17.648-14.063-23.5-13.175-9.6512-29.842-14.737-42.925-24.695-6.6792-5.0554-9.4061-15.258-12.93-22.55zm221.58 0c-3.5234 7.292-6.2534 17.495-12.933 22.55-13.083 9.9576-29.75 15.044-42.925 24.695-7.9354 5.852-12.108 14.363-14.066 23.5 4.0137-5.0554 7.8833-11.149 12.124-14.483 2.6288 6.0756 5.7202 11.496 17.109 12.062 11.385 0.56988 26.346-4.9022 32.137-17.066 3.3702-6.5873 1.4094-15.166-1.2562-21.937 6.091-9.596 9.2222-17.96 9.8044-29.321zm-197.06 35.075c6.1584 2.9413 13.107 5.6406 18.469 9.93 0.70469 6.4954-4.6479 15.188-11.817 16.361-7.9232 1.296-12.933-7.2859-12.877-13.328 0.046-4.7888 3.0669-9.308 6.2258-12.963zm172.54 0c3.1558 3.6552 6.1768 8.1744 6.2227 12.966 0.0613 6.0358-4.9512 14.621-12.874 13.325-7.1694-1.1735-12.522-9.8656-11.817-16.361 5.3618-4.2894 12.311-6.9887 18.469-9.93zm-126.37 42.226c-7.1388 6.2809-14.768 11.551-22.826 16.576 8.1192-1.4707 15.534-3.646 23.163-6.6792-0.12256-3.309-0.24511-6.5873-0.33703-9.8963zm80.212 0c-0.0919 3.309-0.21447 6.5873-0.33703 9.8963 7.629 3.0332 15.044 5.2086 23.163 6.6792-8.058-5.0247-15.69-10.295-22.829-16.576zm-77.546 18.536c-8.4256 5.4843-16.974 10.785-25.553 16.024 9.5286-0.67405 17.341-1.777 24.909-7.9354 0.27575-2.6962 0.49022-5.3924 0.64341-8.0886zm74.881 0c0.1532 2.6962 0.3646 5.3924 0.64035 8.0886 7.5678 6.1584 15.381 7.2614 24.909 7.9354-8.5788-5.2392-17.127-10.54-25.553-16.024zm-73.603 17.587c-8.8239 5.0554-16.778 9.2222-26.092 13.358 7.5984-0.55149 16.664-0.15319 24.793-4.9052 0 0 0.80886-4.3231 1.3021-8.4532zm72.323 0c0.49022 4.1301 1.3021 8.4532 1.3021 8.4532 8.1284 4.749 17.194 4.3507 24.793 4.9022-9.3142-4.1362-17.271-8.3-26.095-13.355zm-72.246 15.503c-6.955 4.7184-14.155 8.9771-21.049 13.695 6.5873-1.2868 13.015-2.9107 19.48-4.8409 0.52086-2.9413 1.0448-5.8826 1.5656-8.8546zm72.175 0c0.52086 2.972 1.0448 5.9133 1.5656 8.8546 6.4648 1.9302 12.896 3.5541 19.483 4.8409-6.8937-4.7184-14.094-8.9771-21.049-13.695zm-75.092 18.883c-0.66792 0-1.342 6e-3 -2.0222 0.0214 10.356 3.309 20.191 7.0162 30.148 11.336a25.92 25.92 0 0 0 10.877 1.3879 25.92 25.92 0 0 0 10.874-1.3879c9.9576-4.32 19.793-8.0273 30.148-11.336a84.315 84.315 0 0 0-2.0222-0.0214c-10.046 9e-3 -19.027 1.8169-28.678 4.8317-3.6491 1.1367-7.0316 1.4155-10.322 1.2654-3.2906 0.1532-6.6731-0.12868-10.325-1.2654-9.6512-3.0148-18.628-4.8225-28.678-4.8317zm-19.29 2.8341c-2.013 3e-3 -4.0137 0.11949-5.9531 0.46264-5.2392 1.0724-7.721 7.966-10.846 11.735 8.9158-4.0137 17.737-8.1774 26.839-11.793-3.2783-0.0919-6.6792-0.4075-10.037-0.40443zm116.58 0c-3.358-3e-3 -6.762 0.30945-10.034 0.40443 9.0997 3.6154 17.924 7.7822 26.839 11.796-3.1251-3.7686-5.6099-10.662-10.849-11.735a34.386 34.386 0 0 0-5.9562-0.4657zm-110.1 17.654c-7.292-0.0306-9.5348 5.1289-10.353 11.581 3.8666-3.3028 6.5199-5.3924 10.233-4.749 7.053 1.2255 10.785 8.1805 11.152 15.442-0.0919 6.0358-1.0724 12.102-1.6851 18.077 3.4928-6.8631 9.4183-12.357 8.7627-21.294-0.65567-8.9404-6.2503-19.21-18.107-19.057zm103.62 0c-11.857-0.15319-17.455 10.117-18.107 19.057-0.65567 8.9373 5.2668 14.431 8.7596 21.294-0.61277-5.9745-1.5932-12.041-1.6851-18.077 0.36767-7.2614 4.0995-14.216 11.152-15.442 3.7134-0.64341 6.3698 1.4461 10.233 4.749-0.81805-6.4525-3.0639-11.612-10.356-11.581zm-52.429 65.849a69.09 69.09 0 0 0-9.5684 0.60052c-9.7431 2.7268-19.578 4.6601-29.107 8.2449 13.542-0.0245 26.107-2.8708 39.294-3.0179 13.187 0.14706 25.752 2.9934 39.294 3.0179-9.5286-3.5847-19.364-5.515-29.107-8.2418a69.225 69.225 0 0 0-9.5654-0.60359c-0.20834 0-0.41362 0.0214-0.6189 0.0245-0.20834-3e-3 -0.41362-0.0245-0.6189-0.0245z" fill="#fff" stroke="none"/>
</svg>
