<?xml version="1.0" encoding="UTF-8" standalone="no"?>
<!-- Created with Inkscape (http://www.inkscape.org/) -->
<svg
   xmlns:svg="http://www.w3.org/2000/svg"
   xmlns="http://www.w3.org/2000/svg"
   version="1.0"
   width="214.15553"
   height="250.84985"
   id="svg2780">
  <defs
     id="defs2782" />
  <g
     transform="translate(-133.72482,-843.84222)"
     id="layer1">
    <path
       d="M 134.72482,844.84222 L 138.58219,1006.884 C 141.33745,1122.6281 340.26773,1122.6281 343.02299,1006.884 L 346.88036,844.84222 L 134.72482,844.84222 z "
       style="fill:#ffffff;fill-opacity:1;fill-rule:evenodd;stroke:#000000;stroke-width:1.99999988;stroke-linecap:butt;stroke-miterlimit:4;stroke-dashoffset:0;stroke-opacity:1"
       id="path3282" />
    <path
       d="M 53.15625,56.875 L 54.78125,125.84375 L 229.96875,283.03125 C 248.36367,268.57022 260.76381,247.20677 261.4375,218.90625 L 261.71875,206.5 L 94.96875,56.875 L 53.15625,56.875 z "
       transform="translate(81.571653,787.97809)"
       style="opacity:1;color:#000000;fill:#2163c6;fill-opacity:1;fill-rule:evenodd;stroke:#000000;stroke-width:1.99999988;stroke-linecap:butt;stroke-linejoin:miter;marker:none;marker-start:none;marker-mid:none;marker-end:none;stroke-miterlimit:4;stroke-dasharray:none;stroke-dashoffset:0;stroke-opacity:1;visibility:visible;display:inline;overflow:visible;enable-background:accumulate"
       id="rect12410" />
    <g
       transform="matrix(0.7441994,0.6679575,-0.6679575,0.7441994,570.26807,23.34242)"
       id="use12406">
      <rect
         width="38.412106"
         height="6.6956882"
         x="278.65353"
         y="937.24255"
         style="opacity:1;color:#000000;fill:#ffffff;fill-opacity:1;fill-rule:evenodd;stroke:#000000;stroke-width:0.99921256;stroke-linecap:butt;stroke-linejoin:miter;marker:none;marker-start:none;marker-mid:none;marker-end:none;stroke-miterlimit:4;stroke-dasharray:none;stroke-dashoffset:0;stroke-opacity:1;visibility:visible;display:inline;overflow:visible;enable-background:accumulate"
         id="rect2255" />
      <path
         d="M 317.06564,937.24255 C 298.47628,928.34434 303.14308,911.26458 306.93402,907.90486 C 310.67587,904.58865 311.47214,905.11982 315.03933,909.5788 C 318.56338,913.98385 324.06741,916.17589 324.90665,915.30537 C 325.70466,914.47761 324.66587,909.61066 325.46656,906.52498 C 326.26197,903.45962 329.20583,895.79697 327.9021,890.72515 C 326.604,885.67524 320.19502,881.71014 313.04772,883.40351 C 305.92068,885.09207 299.98235,894.88158 297.06669,904.82133 C 294.15103,894.88158 286.01017,885.79688 278.88313,884.10832 C 271.73583,882.41495 267.26508,886.99676 265.96698,892.04667 C 264.66325,897.11849 266.9023,905.13354 267.69771,908.1989 C 268.4984,911.28458 267.59053,916.18646 268.61002,916.89119 C 269.73017,917.6655 275.4819,914.77676 279.00595,910.37171 C 282.57314,905.91273 284.15679,906.01048 287.11126,908.78588 C 290.0186,911.51701 296.71428,930.81117 278.65353,937.24255"
         style="fill:#ffffff;fill-opacity:1;fill-rule:evenodd;stroke:#000000;stroke-width:1px;stroke-linecap:butt;stroke-linejoin:miter;stroke-opacity:1"
         id="path2257" />
      <rect
         width="23.787315"
         height="8.9863186"
         rx="4.4931593"
         ry="4.4931593"
         x="285.17303"
         y="916.45068"
         style="opacity:1;color:#000000;fill:#ffffff;fill-opacity:1;fill-rule:evenodd;stroke:#000000;stroke-width:0.99921262;stroke-linecap:butt;stroke-linejoin:miter;marker:none;marker-start:none;marker-mid:none;marker-end:none;stroke-miterlimit:4;stroke-dasharray:none;stroke-dashoffset:0;stroke-opacity:1;visibility:visible;display:inline;overflow:visible;enable-background:accumulate"
         id="rect2259" />
    </g>
    <g
       transform="matrix(0.7441994,0.6679575,-0.6679575,0.7441994,627.01437,74.275146)"
       id="use12404">
      <rect
         width="38.412106"
         height="6.6956882"
         x="278.65353"
         y="937.24255"
         style="opacity:1;color:#000000;fill:#ffffff;fill-opacity:1;fill-rule:evenodd;stroke:#000000;stroke-width:0.99921256;stroke-linecap:butt;stroke-linejoin:miter;marker:none;marker-start:none;marker-mid:none;marker-end:none;stroke-miterlimit:4;stroke-dasharray:none;stroke-dashoffset:0;stroke-opacity:1;visibility:visible;display:inline;overflow:visible;enable-background:accumulate"
         id="rect2263" />
      <path
         d="M 317.06564,937.24255 C 298.47628,928.34434 303.14308,911.26458 306.93402,907.90486 C 310.67587,904.58865 311.47214,905.11982 315.03933,909.5788 C 318.56338,913.98385 324.06741,916.17589 324.90665,915.30537 C 325.70466,914.47761 324.66587,909.61066 325.46656,906.52498 C 326.26197,903.45962 329.20583,895.79697 327.9021,890.72515 C 326.604,885.67524 320.19502,881.71014 313.04772,883.40351 C 305.92068,885.09207 299.98235,894.88158 297.06669,904.82133 C 294.15103,894.88158 286.01017,885.79688 278.88313,884.10832 C 271.73583,882.41495 267.26508,886.99676 265.96698,892.04667 C 264.66325,897.11849 266.9023,905.13354 267.69771,908.1989 C 268.4984,911.28458 267.59053,916.18646 268.61002,916.89119 C 269.73017,917.6655 275.4819,914.77676 279.00595,910.37171 C 282.57314,905.91273 284.15679,906.01048 287.11126,908.78588 C 290.0186,911.51701 296.71428,930.81117 278.65353,937.24255"
         style="fill:#ffffff;fill-opacity:1;fill-rule:evenodd;stroke:#000000;stroke-width:1px;stroke-linecap:butt;stroke-linejoin:miter;stroke-opacity:1"
         id="path2265" />
      <rect
         width="23.787315"
         height="8.9863186"
         rx="4.4931593"
         ry="4.4931593"
         x="285.17303"
         y="916.45068"
         style="opacity:1;color:#000000;fill:#ffffff;fill-opacity:1;fill-rule:evenodd;stroke:#000000;stroke-width:0.99921262;stroke-linecap:butt;stroke-linejoin:miter;marker:none;marker-start:none;marker-mid:none;marker-end:none;stroke-miterlimit:4;stroke-dasharray:none;stroke-dashoffset:0;stroke-opacity:1;visibility:visible;display:inline;overflow:visible;enable-background:accumulate"
         id="rect2267" />
    </g>
    <g
       transform="matrix(0.7441994,0.6679575,-0.6679575,0.7441994,683.76065,125.20787)"
       id="g12391">
      <rect
         width="38.412106"
         height="6.6956882"
         x="278.65353"
         y="937.24255"
         style="opacity:1;color:#000000;fill:#ffffff;fill-opacity:1;fill-rule:evenodd;stroke:#000000;stroke-width:0.99921256;stroke-linecap:butt;stroke-linejoin:miter;marker:none;marker-start:none;marker-mid:none;marker-end:none;stroke-miterlimit:4;stroke-dasharray:none;stroke-dashoffset:0;stroke-opacity:1;visibility:visible;display:inline;overflow:visible;enable-background:accumulate"
         id="rect7535" />
      <path
         d="M 317.06564,937.24255 C 298.47628,928.34434 303.14308,911.26458 306.93402,907.90486 C 310.67587,904.58865 311.47214,905.11982 315.03933,909.5788 C 318.56338,913.98385 324.06741,916.17589 324.90665,915.30537 C 325.70466,914.47761 324.66587,909.61066 325.46656,906.52498 C 326.26197,903.45962 329.20583,895.79697 327.9021,890.72515 C 326.604,885.67524 320.19502,881.71014 313.04772,883.40351 C 305.92068,885.09207 299.98235,894.88158 297.06669,904.82133 C 294.15103,894.88158 286.01017,885.79688 278.88313,884.10832 C 271.73583,882.41495 267.26508,886.99676 265.96698,892.04667 C 264.66325,897.11849 266.9023,905.13354 267.69771,908.1989 C 268.4984,911.28458 267.59053,916.18646 268.61002,916.89119 C 269.73017,917.6655 275.4819,914.77676 279.00595,910.37171 C 282.57314,905.91273 284.15679,906.01048 287.11126,908.78588 C 290.0186,911.51701 296.71428,930.81117 278.65353,937.24255"
         style="fill:#ffffff;fill-opacity:1;fill-rule:evenodd;stroke:#000000;stroke-width:1px;stroke-linecap:butt;stroke-linejoin:miter;stroke-opacity:1"
         id="path8506" />
      <rect
         width="23.787315"
         height="8.9863186"
         rx="4.4931593"
         ry="4.4931593"
         x="285.17303"
         y="916.45068"
         style="opacity:1;color:#000000;fill:#ffffff;fill-opacity:1;fill-rule:evenodd;stroke:#000000;stroke-width:0.99921262;stroke-linecap:butt;stroke-linejoin:miter;marker:none;marker-start:none;marker-mid:none;marker-end:none;stroke-miterlimit:4;stroke-dasharray:none;stroke-dashoffset:0;stroke-opacity:1;visibility:visible;display:inline;overflow:visible;enable-background:accumulate"
         id="rect10451" />
    </g>
  </g>
</svg>
