<?xml version="1.0" encoding="UTF-8" standalone="no"?>
<!-- Created with Inkscape (http://www.inkscape.org/) -->

<svg
   xmlns:dc="http://purl.org/dc/elements/1.1/"
   xmlns:cc="http://creativecommons.org/ns#"
   xmlns:rdf="http://www.w3.org/1999/02/22-rdf-syntax-ns#"
   xmlns:svg="http://www.w3.org/2000/svg"
   xmlns="http://www.w3.org/2000/svg"
   xmlns:sodipodi="http://sodipodi.sourceforge.net/DTD/sodipodi-0.dtd"
   xmlns:inkscape="http://www.inkscape.org/namespaces/inkscape"
   version="1.0"
   width="208.86046"
   height="244.65999"
   id="svg2780"
   inkscape:version="0.92.4 (5da689c313, 2019-01-14)"
   sodipodi:docname="Ramsen-blazon.svg">
  <metadata
     id="metadata27">
    <rdf:RDF>
      <cc:Work
         rdf:about="">
        <dc:format>image/svg+xml</dc:format>
        <dc:type
           rdf:resource="http://purl.org/dc/dcmitype/StillImage" />
        <dc:title></dc:title>
      </cc:Work>
    </rdf:RDF>
  </metadata>
  <sodipodi:namedview
     pagecolor="#ffffff"
     bordercolor="#666666"
     borderopacity="1"
     objecttolerance="10"
     gridtolerance="10"
     guidetolerance="10"
     inkscape:pageopacity="0"
     inkscape:pageshadow="2"
     inkscape:window-width="3259"
     inkscape:window-height="1417"
     id="namedview25"
     showgrid="false"
     inkscape:zoom="1.4142136"
     inkscape:cx="141.83335"
     inkscape:cy="174.49126"
     inkscape:window-x="-8"
     inkscape:window-y="-8"
     inkscape:window-maximized="1"
     inkscape:current-layer="svg2780"
     inkscape:measure-start="104.255,149.787"
     inkscape:measure-end="104.255,126.383"
     showguides="true"
     inkscape:object-paths="true"
     inkscape:snap-intersection-paths="true"
     inkscape:snap-global="true" />
  <defs
     id="defs2782" />
  <path
     inkscape:connector-curvature="0"
     style="fill:#1b63c6;fill-opacity:1;fill-rule:evenodd;stroke:#000000;stroke-width:1.99999988;stroke-linecap:butt;stroke-miterlimit:4;stroke-dashoffset:0;stroke-opacity:1"
     id="path4212"
     d="m 1,1 3.761095,158.00304 c 2.686489,112.85918 196.651755,112.85918 199.338255,0 L 207.86045,1 Z" />
  <g
     id="g7991">
    <path
       sodipodi:nodetypes="cccccc"
       inkscape:connector-curvature="0"
       d="m 103.32598,15.027061 -0.35355,31.112698 c -4.086511,4.06705 -6.91493,14.846978 1.45781,24.306796 8.37274,-9.459818 5.54432,-20.239746 1.45781,-24.306796 L 105.5345,15.027061 c -0.73617,0 -1.47235,0 -2.20852,0 z"
       style="opacity:1;fill:#feeb00;fill-opacity:1;stroke:#000000;stroke-width:1;stroke-miterlimit:20;stroke-dasharray:none;stroke-dashoffset:4.57999992;stroke-opacity:1"
       id="path7795-2" />
    <path
       sodipodi:nodetypes="cccccccccccc"
       inkscape:connector-curvature="0"
       d="m 105.71113,75.6905 c 3.68708,-3.44205 5.58445,-9.76603 6.49586,-17.67767 3.93872,-7.288007 5.54863,-14.700413 5.43109,-22.773539 l -1.65559,-0.05245 c 0.0827,8.053022 -1.0783,14.197466 -5.05679,21.455973 -2.98056,1.14886 -5.52967,3.35878 -6.49546,8.44109 -0.9658,-5.08231 -3.51491,-7.29223 -6.495465,-8.44109 -3.978498,-7.258507 -4.954623,-14.478319 -5.068273,-22.530962 l -1.539534,-0.01616 c 0.07933,8.073592 1.38779,16.629134 5.326514,23.917141 0.911413,7.91164 2.80878,14.23562 6.495858,17.67767 z"
       style="opacity:1;fill:#feeb00;fill-opacity:1;stroke:#000000;stroke-width:1;stroke-miterlimit:6;stroke-dasharray:none;stroke-dashoffset:4.57999992;stroke-opacity:1"
       id="path7637-4-8-0" />
    <path
       sodipodi:nodetypes="cccccccccccc"
       inkscape:connector-curvature="0"
       d="m 106.05107,86.9405 c 4.66561,-3.44205 7.06651,-9.76603 8.21981,-17.67767 4.98403,-7.288007 9.63721,-16.364175 9.91117,-24.87859 l -1.74206,-0.124206 c -0.32456,8.50363 -4.75609,16.374269 -9.79045,23.632776 -3.77157,1.14886 -6.99719,3.35878 -8.2193,8.44109 -1.22211,-5.08231 -4.447736,-7.29223 -8.219308,-8.44109 -5.034358,-7.258507 -7.731775,-15.259668 -9.557487,-23.571335 l -1.729438,0.386128 c 1.777827,8.331245 4.681559,17.26722 9.665587,24.555227 1.153295,7.91164 3.554208,14.23562 8.219806,17.67767 1.02643,1.835135 2.09602,2.206757 3.24167,0 z"
       style="opacity:1;fill:#feeb00;fill-opacity:1;stroke:#000000;stroke-width:1;stroke-miterlimit:6;stroke-dasharray:none;stroke-dashoffset:4.57999992;stroke-opacity:1"
       id="path7637-4-8-3" />
    <path
       sodipodi:nodetypes="cccccccccccc"
       inkscape:connector-curvature="0"
       d="m 106.20797,99.0655 c 5.11723,-3.44205 7.75054,-9.76603 9.01548,-17.67767 5.46647,-7.288007 10.96115,-14.413505 12.24062,-23.10505 l -1.88856,-0.260752 c -1.3362,8.680579 -6.60867,14.737275 -12.13035,21.995782 -4.13665,1.14886 -7.67451,3.35878 -9.01492,8.44109 -1.34041,-5.08231 -4.878271,-7.29223 -9.014927,-8.44109 -5.521679,-7.258507 -9.22441,-13.884208 -12.01026,-22.213488 l -1.941243,0.633664 c 2.731804,8.349688 6.706744,15.661837 12.173222,22.949844 1.264932,7.91164 3.89825,14.23562 9.015478,17.67767 1.24797,2.92884 2.4236,2.48468 3.55546,0 z"
       style="opacity:1;fill:#feeb00;fill-opacity:1;stroke:#000000;stroke-width:1;stroke-miterlimit:6;stroke-dasharray:none;stroke-dashoffset:4.57999992;stroke-opacity:1"
       id="path7637-4-8-2" />
    <path
       sodipodi:nodetypes="cccccccccccc"
       inkscape:connector-curvature="0"
       d="m 106.2777,111.0655 c 5.31795,-3.44205 8.05455,-9.76603 9.36911,-17.67767 5.68089,-7.288007 10.92554,-14.623442 15.01508,-22.761186 l -2.03212,-0.94848 c -4.14932,8.1134 -9.09274,15.081139 -14.831,22.339646 -4.29891,1.14886 -7.97554,3.35878 -9.36853,8.44109 -1.39299,-5.08231 -5.06962,-7.29223 -9.368535,-8.44109 C 89.323439,84.759303 84.756955,78.048736 81.115521,69.695055 l -1.969649,0.953912 c 3.580276,8.374297 8.386899,15.450856 14.067798,22.738863 1.31455,7.91164 4.051159,14.23562 9.36911,17.67767 1.90292,5.46329 2.68253,1.78437 3.69492,0 z"
       style="opacity:1;fill:#feeb00;fill-opacity:1;stroke:#000000;stroke-width:1;stroke-miterlimit:6;stroke-dasharray:none;stroke-dashoffset:4.57999992;stroke-opacity:1"
       id="path7637-4-8-5" />
    <path
       sodipodi:nodetypes="cccccc"
       inkscape:connector-curvature="0"
       d="M 14.53115,27.580447 30.81594,54.11131 c 4.82772,1.179459 13.7474,9.053266 11.44479,21.474573 C 30.21109,71.791515 27.44713,60.171471 28.66076,55.39463 L 12.88826,28.593234 c 0.54763,-0.337595 1.09525,-0.675193 1.64289,-1.012787 z"
       style="opacity:1;fill:#feeb00;fill-opacity:1;stroke:#000000;stroke-width:1;stroke-miterlimit:20;stroke-dasharray:none;stroke-dashoffset:4.57999992;stroke-opacity:1"
       id="path7795-2-6-3" />
    <path
       sodipodi:nodetypes="cccccccccccc"
       inkscape:connector-curvature="0"
       d="M 43.48337,81.612604 C 37.90139,80.868668 32.05514,76.939629 27.73783,70.218858 20.35978,65.598532 15.78614,59.195559 11.01608,51.890597 l 1.5582,-1.183696 c 4.81496,7.270775 8.58592,13.04541 15.99526,17.618802 3.7526,-0.467564 7.37824,-0.479068 10.93624,3.333196 -1.5377,-4.982797 0.26013,-8.140015 2.54814,-11.150932 -0.2364,-8.703927 -3.227213,-15.145502 -5.695193,-23.509544 l 1.8367,-0.388971 c 2.5231,8.351642 5.620653,15.428975 5.913343,24.129408 3.64571,7.107503 4.18486,14.108668 2.05403,19.321285 0.21875,3.527225 -1.4953,1.822632 -2.67943,1.552459 z"
       style="opacity:1;fill:#feeb00;fill-opacity:1;stroke:#000000;stroke-width:0.99999988;stroke-miterlimit:6;stroke-dasharray:none;stroke-dashoffset:4.57999992;stroke-opacity:1"
       id="path7637-4-8-6-1-7" />
    <path
       sodipodi:nodetypes="cccccccccccc"
       inkscape:connector-curvature="0"
       d="M 49.93693,92.546895 C 43.92192,92.089235 38.52,87.928593 33.45582,81.727974 25.20078,78.125814 17.12566,71.362247 10.61704,65.234382 l 1.38541,-1.493295 c 6.5513,6.084169 13.95733,12.383844 22.24349,15.933503 4.03474,-1.038471 8.10727,-0.868444 11.80097,2.85584 -1.45616,-5.039183 0.37708,-8.679738 3.24768,-11.699199 0.93117,-8.966242 -0.52706,-17.759042 -2.2744,-26.527348 l 2.05688,-0.302005 c 1.80686,8.754885 3.26603,18.173703 2.39587,27.138311 2.95263,7.441481 3.95873,14.18533 1.43155,19.662811 -0.23379,1.375685 -1.53935,1.624285 -2.96756,1.743895 z"
       style="opacity:1;fill:#feeb00;fill-opacity:1;stroke:#000000;stroke-width:0.99999994;stroke-miterlimit:6;stroke-dasharray:none;stroke-dashoffset:4.57999992;stroke-opacity:1"
       id="path7637-4-8-6-0" />
    <path
       sodipodi:nodetypes="cccccccccccc"
       inkscape:connector-curvature="0"
       d="M 56.45233,102.33628 C 49.99338,102.52084 44.13535,98.833655 38.60837,93.013535 29.69853,90.210835 23.13077,84.89173 15.78776,79.383074 l 1.30006,-1.812837 c 7.38783,5.460196 13.39421,10.501967 22.33664,13.247347 4.31192,-1.506326 8.68289,-1.774966 12.70193,1.649791 -1.63908,-5.019473 0.27159,-8.959893 3.30448,-12.375032 0.86156,-9.314597 0.56669,-18.382283 0.41341,-27.56761 l 2.23082,-0.0052 c 0.21877,9.177001 0.49324,18.346895 -0.3029,27.653159 3.28105,7.325036 4.46349,14.145113 1.83657,20.048628 -0.0963,2.41696 -0.35042,5.79288 -3.15644,2.11496 z"
       style="opacity:1;fill:#feeb00;fill-opacity:1;stroke:#000000;stroke-width:1;stroke-miterlimit:6;stroke-dasharray:none;stroke-dashoffset:4.57999992;stroke-opacity:1"
       id="path7637-4-5-5-5-6" />
    <path
       sodipodi:nodetypes="cccccccccccc"
       inkscape:connector-curvature="0"
       d="m 62.99105,113.66047 c -6.46155,-0.0218 -12.19884,-3.89418 -17.53714,-9.88783 -8.8158,-3.0858 -15.39159,-6.806125 -23.25818,-11.537055 l 1.10836,-1.935988 c 7.90625,4.678158 14.18542,8.274728 23.03562,11.304273 4.35782,-1.36786 8.73514,-1.49678 12.64276,2.05458 -1.47795,-5.069255 0.55758,-8.946645 3.69799,-12.263195 1.15857,-9.282329 1.860527,-18.354808 2.000647,-27.540345 l 2.22985,0.066 c -0.0744,9.179307 -0.800007,18.35329 -1.892927,27.629385 3.04545,7.42608 4.0095,14.280435 1.19539,20.097055 1.07704,4.31867 -0.47897,4.1726 -3.22237,2.01312 z"
       style="opacity:1;fill:#feeb00;fill-opacity:1;stroke:#000000;stroke-width:1;stroke-miterlimit:6;stroke-dasharray:none;stroke-dashoffset:4.57999992;stroke-opacity:1"
       id="path7637-4-5-5-8" />
    <path
       sodipodi:nodetypes="cccccc"
       inkscape:connector-curvature="0"
       d="m 194.32933,27.580441 -16.28479,26.530863 c -4.82772,1.179459 -13.7474,9.053266 -11.44479,21.474573 12.04964,-3.794368 14.8136,-15.414412 13.59997,-20.191253 l 15.7725,-26.801396 c -0.54763,-0.337595 -1.09525,-0.675193 -1.64289,-1.012787 z"
       style="opacity:1;fill:#feeb00;fill-opacity:1;stroke:#000000;stroke-width:1;stroke-miterlimit:20;stroke-dasharray:none;stroke-dashoffset:4.57999992;stroke-opacity:1"
       id="path7795-2-6" />
    <path
       sodipodi:nodetypes="cccccccccccc"
       inkscape:connector-curvature="0"
       d="m 165.37711,81.612598 c 5.58198,-0.743936 11.42823,-4.672975 15.74554,-11.393746 7.37805,-4.620326 11.95169,-11.023299 16.72175,-18.328261 l -1.5582,-1.183696 c -4.81496,7.270775 -8.58592,13.04541 -15.99526,17.618802 -3.7526,-0.467564 -7.37824,-0.479068 -10.93624,3.333196 1.5377,-4.982797 -0.26013,-8.140015 -2.54814,-11.150932 0.2364,-8.703927 2.34333,-15.322279 4.81131,-23.686321 l -1.8367,-0.388971 c -2.5231,8.351642 -4.73677,15.605752 -5.02946,24.306185 -3.64571,7.107503 -4.18486,14.108668 -2.05403,19.321285 -0.21875,3.527225 1.4953,1.822632 2.67943,1.552459 z"
       style="opacity:1;fill:#feeb00;fill-opacity:1;stroke:#000000;stroke-width:0.99999988;stroke-miterlimit:6;stroke-dasharray:none;stroke-dashoffset:4.57999992;stroke-opacity:1"
       id="path7637-4-8-6-1" />
    <path
       sodipodi:nodetypes="cccccccccccc"
       inkscape:connector-curvature="0"
       d="m 158.92355,92.546893 c 6.01501,-0.45766 11.41693,-4.618306 16.48111,-10.818925 8.25504,-3.60216 16.33016,-10.365727 22.83878,-16.493592 l -1.38541,-1.493295 c -6.5513,6.084169 -13.95733,12.383844 -22.24349,15.933503 -4.03474,-1.038471 -8.10727,-0.868444 -11.80097,2.85584 1.45616,-5.039183 -0.37708,-8.679738 -3.24768,-11.699199 -0.93117,-8.966242 0.52706,-17.759042 2.2744,-26.527348 l -2.05688,-0.302005 c -1.80686,8.754885 -3.26603,18.173703 -2.39587,27.138311 -2.95263,7.441481 -3.95873,14.18533 -1.43155,19.662811 0.23379,1.375684 1.53935,1.624282 2.96756,1.743899 z"
       style="opacity:1;fill:#feeb00;fill-opacity:1;stroke:#000000;stroke-width:0.99999994;stroke-miterlimit:6;stroke-dasharray:none;stroke-dashoffset:4.57999992;stroke-opacity:1"
       id="path7637-4-8-6" />
    <path
       sodipodi:nodetypes="cccccccccccc"
       inkscape:connector-curvature="0"
       d="m 152.40815,102.33628 c 6.45895,0.18456 12.31698,-3.502635 17.84396,-9.322754 8.90984,-2.802697 15.4776,-8.121802 22.82061,-13.630458 l -1.30006,-1.812837 c -7.38783,5.460196 -13.39421,10.501967 -22.33664,13.247347 -4.31192,-1.506326 -8.68289,-1.774966 -12.70193,1.649793 1.63908,-5.019475 -0.27159,-8.959895 -3.30448,-12.375034 -0.86156,-9.314597 -0.56669,-18.382283 -0.41341,-27.56761 l -2.23082,-0.0052 c -0.21877,9.177001 -0.49324,18.346895 0.3029,27.653159 -3.28105,7.325036 -4.46349,14.145118 -1.83657,20.048634 0.0963,2.41696 0.35042,5.79288 3.15644,2.11496 z"
       style="opacity:1;fill:#feeb00;fill-opacity:1;stroke:#000000;stroke-width:1;stroke-miterlimit:6;stroke-dasharray:none;stroke-dashoffset:4.57999992;stroke-opacity:1"
       id="path7637-4-5-5-5" />
    <path
       sodipodi:nodetypes="cccccccccccc"
       inkscape:connector-curvature="0"
       d="m 145.86943,113.66047 c 6.46155,-0.0218 12.19884,-3.89418 17.53714,-9.88783 8.8158,-3.0858 15.39159,-6.806127 23.25818,-11.537059 l -1.10836,-1.93599 c -7.90625,4.678155 -14.18542,8.274732 -23.03562,11.304279 -4.35782,-1.36786 -8.73514,-1.49678 -12.64276,2.05458 1.47795,-5.069259 -0.55758,-8.946653 -3.69799,-12.263197 -1.15857,-9.282333 -1.15342,-18.354812 -1.29354,-27.540349 l -2.22985,0.066 c 0.0744,9.179307 0.0929,18.35329 1.18582,27.629383 -3.04545,7.426078 -4.0095,14.280443 -1.19539,20.097063 -1.07704,4.31867 0.47897,4.1726 3.22237,2.01312 z"
       style="opacity:1;fill:#feeb00;fill-opacity:1;stroke:#000000;stroke-width:1;stroke-miterlimit:6;stroke-dasharray:none;stroke-dashoffset:4.57999992;stroke-opacity:1"
       id="path7637-4-5-5" />
    <path
       sodipodi:nodetypes="ccccccccccccccc"
       inkscape:connector-curvature="0"
       d="m 102.53048,191.71537 h 1.89976 1.89976 V 123.0655 c 5.46849,-3.44205 8.28256,-9.76603 9.63433,-17.67767 5.84171,-7.288004 10.5413,-14.528348 15.46795,-22.273878 l -1.85615,-1.23743 c -4.98568,7.71601 -9.61145,14.882784 -15.51215,22.141288 -4.42061,1.14886 -8.20132,3.35878 -9.63374,8.44109 -1.43242,-5.08231 -5.213132,-7.29223 -9.633742,-8.44109 C 88.895792,96.759306 84.093241,89.062202 79.107566,81.346192 l -1.856155,1.23743 c 4.926658,7.74553 9.803023,15.516204 15.644738,22.804208 1.351762,7.91164 4.16584,14.23562 9.634331,17.67767 z"
       style="opacity:1;fill:#feeb00;fill-opacity:1;stroke:#000000;stroke-width:1;stroke-miterlimit:20;stroke-dasharray:none;stroke-dashoffset:4.57999992;stroke-opacity:1"
       id="path7864-4" />
    <path
       sodipodi:nodetypes="ccccccc"
       inkscape:connector-curvature="0"
       d="m 117.44347,206.62226 c -3.04619,-0.31724 -5.14974,-0.52204 -8.6012,-0.61614 2.90512,-39.9113 46.93568,-86.39151 84.45345,-69.4423 -26.01723,-19.97555 -63.03106,-9.31038 -89.49492,49.47118 -27.588863,-58.90656 -63.615257,-67.50219 -87.98604,-47.97118 37.64277,-17.69921 81.298332,28.031 84.20345,67.9423 -3.451459,0.0941 -5.555011,0.2989 -8.601201,0.61614"
       style="opacity:1;fill:#feeb00;fill-opacity:1;stroke:#000000;stroke-width:1;stroke-miterlimit:20;stroke-dasharray:none;stroke-dashoffset:4.57999992;stroke-opacity:1"
       id="path7793-7-3" />
    <path
       sodipodi:nodetypes="ccccccccccccccccccccccccccccccccccccccccccccccc"
       inkscape:connector-curvature="0"
       d="m 108.93817,204.84466 -0.0959,1.16145 c 3.45146,0.0941 5.55501,0.2989 8.6012,0.61614 2.12869,-28.62979 6.53804,-56.86735 18.75508,-84.08946 -2.917,-5.7657 -2.05375,-12.63391 0.85929,-20.11292 -1.25753,-9.255214 -1.43898,-17.720314 -1.67648,-26.89685 l 2.22832,-0.105607 c 0.30329,9.181598 0.45931,17.54563 1.78261,26.805917 3.19883,3.26023 5.30292,7.10085 3.91526,12.19556 3.84391,-3.62022 8.22283,-3.56908 12.60427,-2.27886 8.79498,-3.18629 16.87417,-7.31381 25.12011,-11.3633 l 0.95453,2.01628 c -8.21051,4.10519 -16.39087,8.25779 -25.15045,11.49972 -5.23098,6.08754 -10.89857,10.06123 -17.35871,10.19782 -8.09947,19.65113 -11.59621,41.89984 -14.76134,65.54544 8.6969,-14.71842 17.64742,-29.1823 31.90819,-38.09538 0.88896,-0.55561 2.42874,-0.66738 3.88909,-0.35355 2.2501,0.48354 4.52021,1.0605 6.36396,2.12132 0.83912,0.48279 1.66201,1.11506 1.85616,2.03293 4.39948,20.79891 3.22537,37.9771 -5.0988,52.6214 1.65143,-16.50413 1.59622,-32.57518 -0.70895,-48.91445 -19.57402,13.02067 -32.93411,34.14525 -38.37375,48.10338 16.02612,2.5407 31.18291,8.19275 44.29947,17.35234 -19.04127,13.09229 -40.89361,18.27465 -64.42109,18.74344 -23.527481,-0.46879 -45.37982,-5.65115 -64.42109,-18.74344 13.11656,-9.15959 28.27335,-14.81164 44.299469,-17.35234 -5.43964,-13.95813 -18.799729,-35.08271 -38.373749,-48.10338 -2.30517,16.33927 -1.36038,32.91032 0.29105,49.41445 -8.32417,-14.6443 -10.49828,-32.32249 -6.0988,-53.1214 0.19415,-0.91787 1.01704,-1.55014 1.85616,-2.03293 1.84375,-1.06082 4.11386,-1.63778 6.36396,-2.12132 1.46035,-0.31383 3.00013,-0.20206 3.88909,0.35355 14.26077,8.91308 23.21129,23.37696 31.908189,38.09538 -3.16513,-23.6456 -6.66187,-45.89431 -14.761339,-65.54544 -6.46014,-0.13659 -12.12773,-4.11028 -17.35871,-10.19782 -8.75958,-3.24193 -16.93994,-7.39453 -25.15045,-11.49972 l 0.95453,-2.01628 c 8.24594,4.04949 16.32513,8.17701 25.12011,11.3633 4.38144,-1.29022 8.76036,-1.34136 12.60427,2.27886 -1.38766,-5.09471 0.71643,-8.93533 3.91526,-12.19556 1.3233,-9.260285 1.47932,-18.33142 1.78261,-27.513018 l 2.22832,0.105607 c -0.2375,9.176536 -0.41895,18.348746 -1.67648,27.603951 2.91304,7.47901 3.77629,14.34722 0.85929,20.11292 12.217039,27.22211 16.626389,55.45967 18.755079,84.08946 3.04619,-0.31724 5.149742,-0.52204 8.601201,-0.61614 l -0.05945,-0.75152"
       style="opacity:1;fill:#feeb00;fill-opacity:1;stroke:#000000;stroke-width:1;stroke-miterlimit:20;stroke-dasharray:none;stroke-dashoffset:4.57999992;stroke-opacity:1"
       id="path7793-7" />
    <path
       sodipodi:nodetypes="cc"
       inkscape:connector-curvature="0"
       id="path7620"
       d="m 162.92561,159.44826 c 0.76527,-0.51355 1.49643,-0.99319 2.21407,-1.43743"
       style="opacity:1;fill:none;fill-opacity:1;stroke:#000000;stroke-width:1;stroke-miterlimit:6;stroke-dasharray:none;stroke-dashoffset:4.57999992;stroke-opacity:1" />
    <path
       sodipodi:nodetypes="cc"
       inkscape:connector-curvature="0"
       id="path7620-6"
       d="m 45.93487,159.44826 c -0.76527,-0.51355 -1.49643,-0.99319 -2.21407,-1.43743"
       style="opacity:1;fill:none;fill-opacity:1;stroke:#000000;stroke-width:1;stroke-miterlimit:6;stroke-dasharray:none;stroke-dashoffset:4.57999992;stroke-opacity:1" />
  </g>
  <path
     inkscape:connector-curvature="0"
     style="fill:none;fill-opacity:1;fill-rule:evenodd;stroke:#000000;stroke-width:1.99999988;stroke-linecap:butt;stroke-miterlimit:4;stroke-dashoffset:0;stroke-opacity:1"
     id="path4212-3"
     d="M 1,0.99999834 4.761095,159.00304 c 2.686489,112.85918 196.651755,112.85918 199.338255,0 l 3.7611,-158.00304166 z" />
</svg>
