<?xml version="1.0" encoding="UTF-8"?>
<svg width="407.54" height="494.06" version="1.1" viewBox="-176.54 -214.72 407.54 494.06" xml:space="preserve" xmlns="http://www.w3.org/2000/svg"><path d="M17.631-128.3c-.68 1.25-1.504 3.207-1.504 5.402 0 2.398.938 4.469 2.703 5.992l.395.309h7.383l-1.527-2.039c-.969-1.297-1.633-2.91-2.352-4.727-.84-2.16-1.648-4.043-2.977-5.266l-1.289-1.176z" fill="#010202"/><path d="M27.088-213.19h202.4V84.27c0 106.88-90.568 193.53-202.25 193.53-111.7 0-202.24-86.657-202.24-193.53v-297.46z" fill="#fff"/><path d="M-66.21 5.44a68.882 68.882 0 0 1-11.472 6.476c-8.25 3.665-16.382 6.315-24.98 9.067-9.727 3.113-18.286 7.376-28.628 11.28-5.446 2.057-11.133 4.756-16.949 4.995-1.916.079-3.882-.119-5.626-.916-.755-.345-1.473-.81-1.985-1.464a3.262 3.262 0 0 1-.571-1.098 2.614 2.614 0 0 1-.061-1.232c.152-.758.671-1.401 1.29-1.864.62-.463 1.338-.77 2.046-1.08 2.787-1.22 9.317-2.171 8.202-3.995-.493-1.046-1.737-.808-2.683-.925-2.13-.264-4.24.477-6.29 1.11-1.429.44-2.885.836-4.377.922-1.492.085-3.036-.158-4.32-.922-1.03-.611-1.853-1.533-2.452-2.57-.6-1.035-.983-2.184-1.25-3.351-.703-3.08-.604-6.278-.555-9.437.07-4.378.06-8.879 1.666-12.953.95-2.411 2.49-4.638 4.626-6.106 2.207-1.517 4.884-2.139 7.448-2.915 5.332-1.614 10.39-4.004 15.45-6.337 3.322-1.532 13.98-6.51 17.32-8.001"/><g stroke="#000"><path d="M27.088-213.19h202.4V84.27c0 106.88-90.568 193.53-202.25 193.53-111.7 0-202.24-86.657-202.24-193.53v-297.46z" fill="none" stroke-width="3.048"/></g><path d="M-46.302-113.92c20.277 6.961 52.734 19.641 58.414 23.297-2.535 2.511-14.168 14.871-18.75 41.824-10.352 4.688-13.434-.422-13.434-.422s-4.031.184-4.84 2.229c-7.762-4.816-6.23-11.336-11.512-7.375-1.238.934-8.073-3.347-11.452-6.646 0 0 .77-2.014.755-2.962-1.488-.343-11.049-.907-11.936-2.657.297-1.041.398-2.113.647-3.217-3.187-.417-5.957-1.668-8.3-2.477.212-1.101.4-3.533.4-3.533-3.87-.647-7.943-1.726-8.972-2.16-.038-.817.1-2.808-.175-3.733-2.47.23-8.279-3.372-11.338-6.87l.22-4.763c-4.342-2.27-7.789-4.932-10.301-7.06-.112-4.835-1.17-6.51-.418-9.105-21.93-3.746-17.242-44.531-21.555-45.344-7.926-1.531-13.367-.992-13.367-.992s.703-6.25 11.695-7c-5.758-4.043-13.422-5.09-13.422-5.09s3.137-4.895 16.91-2.281c-3.023-7.07-10.344-10.574-10.344-10.574s8.402-2.113 17.051 5.566c-.699-8.863-7.547-16.063-7.547-16.063s8.219-1.113 16.137 12.863c1.863-8.398-1.223-17.328-1.223-17.328s8.863 1.266 11.445 18.77c7.504 10.445 2.457 26.008 10.305 43.984 4.379 10.025 17.633 13.193 34.907 19.119"/><path d="M-9.728 127.48c6.68-22.75 29.305-37.875 52.297-35.969 1.211-4.703 2.15-9.198 3.888-12.293-6.584-37.726-14.099-29.917-14.099-29.917s-39.164-5.604-57.07 2.756c-3.598 1.688-22.934 12.346-25.117 19.72.994.492 2.14 1.515 2.604 2.3-5.682 3.868-8.95 6.784-11.076 11.42 4.615 1.215 5.925 2.045 6.152 2.623-2.906 3.32-6.949 9.238-8.883 14.188 1.299.783 2.884 1.92 4.143 3.146-3.829 5.132-4.85 6.548-5.764 11.557 2.5.594 2.742 1.617 3.923 2.954-2.156 3.675-3.474 6.341-3.458 10.272 1.273.189 3.44 1.58 5.405 1.86-1.11 1.985-2.944 6.664-2.334 12.57 2.077-.045 3.19.122 5.528 1.078-8.242 6.703 6.784 25.828 7.854 37.234-5.574.64-4.633-6.406-9.473-8.484-2.62 4.719-7.918 4.703-14.254 3.14-6.32-1.562-13.706-4.64-20.456-4.733-14.832-3.75-21.008 1.359-22.36 3.047.43.14 5.634 1.344 13.11 4.547-12.614.898-14.833 8.555-14.833 8.555s6.48-.406 14.54 1.195c-13.075 6.594-11.267 13.89-11.267 13.89s7.242-4.265 14.695-4.827c-4.023 2.984-7.359 9.547-4.887 14.297 2.953-2.797 8.672-5.422 10.734-6.266-2.758 6.297-2.344 10.906.691 14.25 8.168-11.164 11.102-10.47 13.47-10.281 1.296.094 4.815 1.203 9.976 1.766 4.313.438 9.785.28 16.023.656 14.992.828 32.352 1.328 43.81-10.188-3.512-25.642-9.942-54.173-3.512-76.064" fill="#010202"/><path d="m77.559-183.58c1.828-10.695 27.789-17.078 27.019 6.275-6.263-4.669-17.794-10.024-27.019-6.275"/><path d="m33.42-118.39-.015-.01v.01z" fill="#fff"/><path d="M-120.17-21.033a136.625 136.625 0 0 1-8.897 4.449c-5.095 2.32-10.326 4.323-15.57 6.28-4.381 1.636-8.786 3.245-12.953 5.365-.956.486-1.92 1.017-2.617 1.832-.684.8-1.06 1.828-1.227 2.867s-.134 2.1-.082 3.152c.264 5.28 1.035 10.584.393 15.832-.09.74-.208 1.506 0 2.224.166.571.534 1.075 1.001 1.443.468.368 1.03.605 1.613.729 1.164.246 2.374.048 3.536-.21 4.672-1.034 9.128-3.004 13.869-3.663.862-.12 1.742-.195 2.6-.047.857.15 1.698.544 2.24 1.224.482.604.695 1.399.65 2.169-.047.77-.342 1.514-.78 2.15-.628.909-1.531 1.594-2.478 2.165-.946.57-1.949 1.044-2.887 1.629-1.386.864-2.62 1.966-4.056 2.747-.254.139-.516.268-.738.453-.111.093-.212.2-.29.322a.899.899 0 0 0-.095.83c.052.136.135.259.238.361.206.205.487.324.775.362.287.04.581.003.862-.071.28-.074.55-.184.818-.294 2.803-1.15 5.585-2.35 8.374-3.533 11.693-4.954 23.523-9.578 35.327-14.262a3676.722 3676.722 0 0 0 29.31-11.776" fill="#ffd72e"/><path d="M21.463-122.9c-.758-1.938-1.504-3.738-2.648-4.785-.742 1.352-1.352 3.023-1.352 4.793 0 .254-.153 1.353-.133 1.618 1.102.016 2.79-.19 4.508-.167-.109-.27-.261-1.174-.375-1.459" fill="#fff" stroke="#000"/><path d="m14.577-50.655c-44.788 1.778-95.903 22.09-95.903 22.09-9.672-8.395-9.532-18.942-18.618-29.013-13.466-17.647-18.781-9.223-18.781-9.223s-0.468 0.427-1.956 3.77c-8.325-3.234-9.038 3.223-9.038 3.223l-0.048 2.625s-6.98-0.156-6.943 5.026c0 0-0.859 2.218 1.99 4.127-1.039 0.145-3.87 2.598-4.737 7.131 0 0-1.564 4.445 5.42 4.41-8.69 1.339-10.416 10.1-5.664 19.93 2.889-4.647 1.458-10.12 8.348-10.56 7.711 0.732 20.363 14.488 21.61 16.113 1.23 1.62 20.54 28.165 29.763 18.18 0.625-0.688 12.253-0.26 16.502 1.605 4.417 2.228 5.863 4.35 5.245 6.46 2.756 0.753 7.129 0.567 10.452-1.708 1.496 1.12 1.336 3.031 2.291 4.443 4.323-1.116 5.662-3.223 7.015-4.186 0 0 2.018 2.107 2.137 3.628 1.666-0.017 6.924-1.517 9.699-3.464 0.506 1.525 1.076 2.187 1.814 3.395 3.903-0.932 8.299-5.292 8.299-5.292s2.247 1.2 3.047 3.167c7.011-2.402 7.224-8.624 14.469-7.428 4.684 0.78 11 0.078 17.625-0.891 16.868-2.437 21.905-14.455 24.72-18.194 1.905-2.416 3.124-4.413 4.56-6.536-0.067 1.505-0.255 2.731-0.646 4.075-4.094 14.442-15.049 27.077-39.319 25.924-1.947 1.607-0.888 3.948-0.825 5.158 0.242 6 16.383 23.703 25.66 36.984 6.07 8.703 10.357 17.525 13.692 24.902 7.163-13.582 6.82-23.35 6.916-30.292 2.293 6.184 4.33 14.511-6.047 35.631-2.594 6.86-8.534 45.186-8.292 46.35 2.875-1.656 3.328-0.987 4.635-1.88-0.592 4.004-0.53 6.594 0.766 12.093 2.195-1.375 4.906-2.563 4.906-2.563s-4.578 10.547 2.016 15.594c0.828-2.922 3.422-5.109 3.422-5.109s-2.522 10.916 3.822 13.791c0.109-0.656 0.812-4.319 1.983-5.025 0.646 8.44 3.887 11.653 4.93 13.658 1-0.836 0.26-4.256 3.187-5.22 1.156 10.806 4.523 10.657 4.523 10.657s0.763-1.649 2.016-2.945c3.82 9.164 25.328 18.945 21.57 41.016-0.78 0.453-2.523 0.406-3.047-1.297-0.508-1.688-1.836-6.72-2.469-7.414-0.609-0.688-2.406-2.898-16.578-4.391-14.172-1.484-21.219 4.953-21.219 4.953s-15.672-4.672-24.05 5.266c4.987-1.063 17.198 4.813 17.198 4.813s-12.57 2.727-14.508 14.25c8.953-4.141 18.094-3.016 18.094-3.016s-11.109 7.64-8.844 18.422c7.805-7.375 16-9.281 16-9.281s-7.523 11.398-1.28 18.938c3.03-3.97 8.608-12.258 12.804-11.672 1.734 11.297 8.867 15.266 9.836 14.477 0.984-0.805-1.938-10.414 5.281-16.328 12.328-2.672 42.672-7.883 54.391-33.328-1.328-7.883-26.188-44.773-25.656-71.344 0.125-7.391 1.25-36.773 1.25-36.773s0.898-17.164-5.875-28.586c4.234 0.313 9.29 7.777 11.72 9.136 1.49-2.107 0.761-5.916-0.031-8.488l4.836 5.25s4.164-8.234 0.656-18.438c-3.492-10.188-19.781-29.988-22.016-36.711-1.57-4.688-4.508-22.293-5.656-29.543-1.164-7.266-0.75-29.36-0.75-29.36s5.02 1.221 7.253 3.014c1.275-5.633-0.587-6.972-1.683-10.22 2.442 0.344 6.128 1.863 7.925 3.566 1.83-5.594-1.871-11.144-2.183-11.831 4.883-0.387 7.226 1.15 8.977 2.045 0.319-5.032-1.826-12.267-3.11-15.573 1.906-0.855 4.725 1.86 7.647 4.931 0.414-5.14-0.678-13.602-5.334-20.77 1.734-1.242 3.53 1.016 5.656-2.016-9.141-12.953 2.094-25.992 1.109-35.625-1.57-15.391-8.575-25.589-8.575-25.589s24.688-0.121 19.508-17.992c-0.978-2.236-1.992-4.014-3.036-5.423s-2.118-2.449-3.212-3.207c-4.946-2.837-13.434-2.659-17.748-0.559-0.844-0.534-1.384-1.314-2.434-1.889-8.391-4.602-10.55-9.235-23.503-9.9-18.273-0.952-27.321 2.353-40.922 8.64-4.426-0.032-19.86-0.18085-30.391 0.784-2.762 13.383 2.695 14.793 1.117 17.922-2.95 5.848-1.855 7.344-1.855 7.344l1.578 0.03c-0.45 2.056-0.617 6.024 2.613 10.513 3.87-5.36 5.176-8.762 5.602-10.367l1.113 0.023c-0.188 2.457-0.082 6.984 2.527 10.344 3.918-3.543 5.313-8.04 5.78-10.191l0.235 8e-3s8.93-0.61 14.664 2.223c5.734 2.848 5.5 13.793 5.5 13.793s-15.563-4.672-22.27-4.535c-9.465 0.19-24.16 3.777-33.078 1.895-8.922-1.871-17.023-13.344-17.023-13.344s-14.035 18.969 17.344 23.688c7 1.059 13.55 0.664 19.293-0.152 0 0 14.96-2.934 18.172-3.336 3.203-0.398 16.234 1.289 16.234 1.289s-0.75 4.246-7.156 4.246c-2.141 0-27.633-0.43-27.633-0.43s-0.688 7.656 4.953 8.137c1.809 0.145 8.48-0.465 17.117 0.688 18.156 2.426 38.766 8.91 53.78-5.801 12.97-12.703 11.53-43.591 17.04-47.005 9.57-6.641 19.894-0.79 20.284 1.775-14.328-5.223-17.313-0.613-18.97 0.496-8.62 11.718 3.334 54.941-40.448 56.101-20.568 0.21305-39.504 5.8926-51.918 16.731-15.508 13.934-17.141 31.04-18.762 39.664-0.641 3.391 1.086 2.313 1.086 2.313s8.25-2.656 14.273-3.379c1.063-0.125 1.176 0.504 1.176 0.504s0.023 0.746-1.031 1.266"/><g fill="#fff"><path d="M-92.208-126.56c3.672-16.449-7.406-32.043-7.559-44.754-3.168 9.633 2.297 19.934 4.457 30.16 2.336 11.191 1.957 20.406-5.027 20.336-1.293.031-1.156 1.449-.422 1.43 6.136-.262 7.504-3.254 8.551-7.172M15.081-145.5c0 1.383.305 3.16 1.289 5.137 2.125-3.242 3.262-5.809 3.734-7.176-1.742-.121-3.48.031-4.785-.059-.133.512-.238 1.227-.238 2.098M24.608-146.14c0 1.762.25 4.063 1.223 6.121 2.25-2.648 3.305-5.785 3.738-7.527-1.641 0-3.391-.016-4.906-.137-.024.449-.055.949-.055 1.543"/></g><path d="M-21.783-137.72c0 1.289.277 2.508.801 3.602 2.094 4.258 8.133 7.105 17.973 8.473 5.77.801 11.875.746 18.699-.145.094-.023 14.855-2.703 18.184-3.078 2.859-.328 11.797.621 15.5 1.047 0 0 1.172.137 1.609.191.141-.664.438-1.84.57-2.465-.445-.117-1.711-.406-1.711-.406-3.406-.906-15.078-3.863-20.371-3.77-3.352.059-7.43.527-11.758 1.043-7.777.895-15.816 1.836-21.793.68-7.031-1.371-13.328-7.473-16.289-10.738-.695 1.488-1.414 3.464-1.414 5.566" fill="#f00000"/><path d="M27.12-128.66c-.688 1.391-1.496 3.711-1.496 6.848 0 1.199.137 2.504.434 3.895l.223 1.09 3.785-.168 3.387-.098 2.398-.07-1.336-1.938c-.75-1.117-1.422-2.641-2.125-4.223-.891-2.047-1.797-4.023-2.98-5.559l-1.328-1.715z"/><path d="M-90.678-36.286A233.352 233.352 0 0 0-52.3-50.753c4.078-1.963 8.099-4.043 12.11-6.139 13.765-7.19 27.45-14.56 41.595-20.97 19.435-8.81 39.645-15.767 59.678-23.115 7.39-2.71 14.762-5.477 22.081-8.377 12.13-4.805 24.113-9.974 36.032-15.279 12.424-5.529 24.8-11.214 37.609-15.784 6.886-2.457 13.886-4.588 20.758-7.084 3.195-1.16 6.362-2.399 9.593-3.453 2.055-.67 4.148-1.268 6.298-1.496.958-.102 1.934-.128 2.875.077.941.205 1.85.658 2.473 1.392.468.552.756 1.238.928 1.941.172.704.234 1.428.292 2.15.026.32.052.642.14.951.087.309.242.607.487.814.252.212.581.315.909.344.328.03.657-.007.984-.044 1.196-.138 2.395-.283 3.598-.269 1.204.014 2.42.192 3.522.676 1.34.59 2.467 1.623 3.251 2.86a7.353 7.353 0 0 1 1.034 2.572c.17.914.142 1.869-.125 2.76-.363 1.21-1.147 2.258-2.064 3.128-.916.87-1.968 1.583-2.996 2.317-5.197 3.713-9.903 8.095-15.24 11.6-2.423 1.592-4.964 2.994-7.446 4.493-2.713 1.638-5.366 3.395-8.234 4.744-1.882.886-3.86 1.598-5.593 2.748-.26.173-.525.366-.662.647-.113.23-.128.503-.06.75.068.249.215.471.403.646.376.35.893.506 1.4.587 1.418.226 2.868-.045 4.257-.408 4.328-1.13 8.371-3.133 12.36-5.155 3.716-1.882 7.416-3.794 11.124-5.692 1.393-.713 2.791-1.426 4.266-1.947s3.037-.848 4.599-.762c1.477.081 2.958.551 4.104 1.487.782.64 1.387 1.475 1.868 2.364.48.888.845 1.834 1.212 2.776.568 1.459 1.153 2.962 1.125 4.527a6.446 6.446 0 0 1-.825 2.992 7.616 7.616 0 0 1-2.051 2.34c-1.592 1.212-3.554 1.81-5.46 2.422-9.783 3.142-19.23 7.234-28.848 10.849-7.097 2.666-14.288 5.073-21.482 7.468-13.871 4.617-27.765 9.193-41.388 14.497-11.412 4.442-22.62 9.389-33.798 14.389a3711.554 3711.554 0 0 0-24.008 10.84c-17.311-65.93-123.27 64.42-151.06 5.294z"/><path d="M-86.272-33.862c6.882-2.214 12.42-2.912 19.2-5.421 7.257-2.687 13.914-4.809 20.751-8.432 3.662-1.94 7.206-4.093 10.802-6.154 10.058-5.763 20.514-10.795 30.808-16.125 11.1-5.748 22.087-11.877 33.945-15.827 8.596-2.863 17.538-4.543 26.253-7.02 8.607-2.446 16.977-5.665 25.23-9.125 14.902-6.246 29.455-13.285 44.2-19.893 12.763-5.72 25.67-11.118 38.662-16.296 7.326-2.919 14.685-5.77 22.188-8.199.78-.253 1.566-.502 2.375-.638.809-.136 1.648-.156 2.443.047.793.202 1.531.63 2.077 1.24s.891 1.402.936 2.219c.016.3-.007.602.01.903.017.3.078.608.247.858.125.186.305.332.507.432.201.099.423.153.647.174.447.043.895-.042 1.338-.114 1.205-.197 2.438-.301 3.646-.124s2.396.655 3.277 1.5c.808.775 1.324 1.836 1.478 2.945s-.049 2.257-.533 3.266c-.697 1.45-1.928 2.568-3.188 3.57-4.374 3.48-9.411 6.012-14.077 9.088-4.546 2.996-8.765 6.525-13.615 9-4.078 2.081-8.508 3.368-12.736 5.125-.884.367-1.766.758-2.55 1.308-.783.55-1.47 1.273-1.84 2.156a4.241 4.241 0 0 0-.267 2.242c.11.754.412 1.476.844 2.103.866 1.254 2.235 2.103 3.692 2.552 1.654.51 3.427.54 5.143.31s3.387-.71 5.045-1.208c8.517-2.56 16.92-5.63 24.728-9.888 3.721-2.03 7.386-4.358 11.534-5.23.26-.056.524-.105.79-.113.267-.008.538.025.783.13.27.117.5.318.676.555.175.237.298.509.388.79.18.561.23 1.156.38 1.726.134.51.346.996.497 1.501.15.506.238 1.047.115 1.56-.138.573-.524 1.054-.943 1.469-1.582 1.567-3.708 2.433-5.775 3.263-8.886 3.568-17.764 7.163-26.77 10.419-9.527 3.444-19.188 6.507-28.81 9.673a1574.077 1574.077 0 0 0-41.78 14.427c-8.022 2.891-16.043 5.848-23.668 9.667-7.962 3.988-15.51 8.923-23.952 11.756-1.103.37-2.25.707-3.41.615-.894-.072-1.75-.398-2.55-.807-.798-.41-1.55-.904-2.331-1.344-4.076-2.297-8.836-3.054-13.504-3.365C20.63-51.69 4.27-47.743-11.419-42.727c-12.864 4.112-25.48 8.958-38.286 13.245-6.196 2.074-15.142 4.406-21.676 4.45-8.795.465-14.892-8.83-14.892-8.83z" fill="#fcdb00"/><path d="M31.155-122.82c-.828-1.906-1.715-3.832-2.828-5.281-.535 1.082-1.336 3.184-1.367 6.137 1.512.031 3.09.055 4.609.082a16.656 16.656 0 0 0-.414-.938M56.81-163.406a12.659 12.659 0 0 0 2.055 6.945c1.936 2.947 5.094 4.979 8.494 5.914s7.026.834 10.479.118c1.461-.304 2.907-.718 4.252-1.366s2.589-1.535 3.533-2.691c1.506-1.844 2.154-4.351 1.775-6.697l-4.49-.326c-.39 1.61-1.026 2.442-1.373 3.61-.587 1.537-1.807 2.786-3.246 3.583-1.439.797-3.086 1.165-4.728 1.256-2.109.116-4.272-.228-6.143-1.207-.936-.49-1.794-1.138-2.484-1.938s-1.211-1.751-1.463-2.777c-.192-.78-.228-1.59-.352-2.385-.086-.555-.225-1.115-.473-1.615z" fill="#fff"/><path d="m32.799 57.07 16.25 16.038c-.373 2.15-3.679 9.157-4.394 10.942z" fill="#f00000"/></svg>
