<?xml version="1.0" encoding="UTF-8"?>
<svg width="510" height="572" version="1.1" viewBox="0 0 510 572" xmlns="http://www.w3.org/2000/svg">
<path d="m3.4197 4.3335v313.66a251.59 251.51 0 0 0 503.16 0v-313.66z" fill="#fff" stroke="#000" stroke-width="6.667"/>
<g stroke-width="1.3334">
<path d="m396.79 98.917c-1.4494 0.07867-2.4815 1.5561-3.6629 2.4295-1.8321 1.7228-4.9789 3.3402-5.651 5.8696-0.78671 2.1494 0.18401 4.2562 1.0881 6.187 2.2108 4.7869 6.731 8.6231 10.965 11.609 4.0389 2.5228 8.2044 5.0576 12.609 6.8897 4.4042 1.9788 9.1032 4.3602 13.929 4.9656 0.4707-1.5521 0.86138-3.1202 1.1974-4.7096a74.311 74.311 0 0 0-1.6614-3.0668c0.42669-0.69471 0.76404-1.7574 1.5574-2.0934 0.40002-0.092 0.82137-0.10401 1.2454-0.092a16.696 14.537 46.923 0 0-1.0721 5.4243 16.696 14.537 46.923 0 0 15.581 17.736 16.696 14.537 46.923 0 0 15.581-13.417 16.696 14.537 46.923 0 0-15.581-17.734 16.696 14.537 46.923 0 0-10.474 2.6228c-5.567-1.4721-11.077-3.3935-16.27-5.8803-5.3523-3.0962-10.221-7.2671-14.509-11.707-1.5094-1.4414-2.4441-3.2802-3.7949-4.8376a2.4881 2.4881 0 0 0-1.0774-0.19468z" fill="#fcdb00"/>
<path d="m300.63 13.459c-2.7282 0.11067-5.467 0.6067-7.9338 1.2361-2.0174 0.44002-5.2483 2.7001-5.2483 2.7001s6.627 0.77204 10.891 3.4869c2.6335 1.8628 3.6295 4.9723 3.1228 8.1111-2.5295-1.7774-4.0269-4.1162-7.2217-5.0576-13.981-2.3068-20.428 11.614-15.608 11.458 2.6762-0.6227 5.835-2.5348 8.5951-1.5574 1.1601 1.2214 0.83071 2.5335 0.12267 3.8842-3.8242 0.08-7.5137 1.0201-9.9819 4.1469-2.9135 3.3949-3.6829 8.0004-2.2655 12.226 2.6575-0.45736 4.0562-3.9095 7.2084-4.1042 1.5868-0.27468 2.3881 1.1294 3.0295 2.3148 1.5094 3.2308 1.7721 7.3591 4.3989 10.254 1.2521 1.5081 3.1402 2.0881 2.8468 4.3669-0.42803 11.262 0.66537 22.676 1.8988 33.869 1.3574 8.6365 2.1081 17.302 2.9335 25.993 0.18268 3.2428-0.0613 6.4804 0.0107 9.7339-3.5429-4.8416-6.4684-10.058-9.8592-14.998-4.0562-7.207-8.6138-14.498-10.287-22.548a101.33 101.31 0 0 1-1.5201-11.903c-0.25734-3.3095-1.1987-6.4003-0.98405-9.7605-0.0493-3.1922 0.94672-6.1003 1.4774-9.1965 0.21334-2.9122 0.30534-6.547-1.1854-9.1538-2.6455-3.8789-5.235-7.4391-9.8285-9.1178-3.8429-1.1601-8.1738-0.88672-11.967 0.33602-1.9801 0.72004-4.5202 1.8988-5.151 4.1029 2.6521 1.2534 5.1563 0.41469 7.4404 2.1201 2.3281 1.7641 3.1962 4.4936 2.5468 7.3337-1.9108-1.4414-3.9389-3.2002-6.327-3.7322-5.511-0.96405-11.039 1.6801-14.045 6.327-0.60537 0.98939-2.2481 3.0722-1.1067 4.0989 2.8602-0.08 5.0043-1.9908 8.0218-0.73337 0.33602 0.77604 0.67737 1.5508 1.0134 2.3268-2.1614 0.92272-4.3429 1.2147-6.255 2.6988-3.5375 2.2788-4.8136 6.5724-5.211 10.542-0.0427 1.7468-0.47603 3.4002 0.92272 4.7269 2.0468-1.7161 4.6856-4.3909 7.4711-4.5442 2.9735 0.09734 4.9536 2.7428 5.871 5.3256-2.0041 1.6734-4.8016 3.7309-5.4936 6.3697-0.55469 3.5669 0.48936 6.963 1.8761 10.206 0.61737 1.4587 1.7228 2.4295 2.9082 3.4188 0.70937-2.1374 0.47603-4.4402 2.1694-6.0763 1.0681-0.52003 1.8561-0.19601 2.4495 0.76937 1.5761 2.3575 0.32268 6.2177 2.2961 8.6965 1.6068 1.8694 3.4148 3.4322 4.6136 5.6376 4.3669 6.7724 8.0271 14.022 11.801 21.142 2.3895 4.0856 4.1789 8.4885 6.427 12.659 2.7495 5.2456 5.0883 10.706 7.6618 16.037 2.3201 4.0856 4.4096 8.2938 6.7257 12.379 2.8828 5.839 5.0029 12.05 7.7524 17.942 3.5002 6.071 7.4337 11.818 12.247 16.929 2.6695 3.1082 5.443 5.9977 8.9872 8.1164 2.6988 1.8561 6.3404 2.2041 9.3952 1.0867 2.3335-0.97739 4.1722-3.5669 6.267-4.8856 1.0454-0.61603 2.2975-1.1534 3.4935-0.6347 2.8295 1.1787 5.419 3.0588 7.9911 4.7029 9.1458 6.2043 19.505 8.7205 28.552 15.525 2.9148 2.5401 5.3643 5.6723 7.6724 8.7631 2.4081 2.9615 4.7843 6.2297 6.227 9.7779 0.33469 2.7108 0.32269 6.1617-1.4734 8.4098-0.90405 1.4588-2.2054 3.2295-1.7841 5.0323 0.46536 2.9668 3.1588 4.5189 4.1549 7.3777 0.6347 2.7535 0.12134 5.967-2.3028 7.7258-3.7869 2.6321-8.8405 3.3162-13.299 4.0176-4.2696 0.27468-8.5591 0.39069-12.835 0.63603-17.893 1.4228-35.229 8.8365-48.705 20.678-4.3976 4.8909-8.1604 10.437-11.282 16.221-2.6335 4.4576-4.8016 9.0445-6.091 14.077-0.55603 2.8028-0.36002 5.819 0 8.6351 1.0574 5.863 2.5161 11.499 5.2776 16.813 1.9241 3.5669 3.7695 7.1697 5.827 10.657 1.8161 3.5362 4.0522 6.803 6.8497 9.6379 4.1896 4.1522 8.4965 7.5604 11.79 12.61 3.2615 5.7043 5.0083 12.747 3.8602 19.274-0.55069 4.9296-2.2054 9.5152-4.2336 14.01-2.1614 4.5016-7.0137 8.0258-10.574 11.409-1.4907 1.3321-3.2562 3.1575-5.2403 3.6335-4.5029 0.56269-8.2231-1.9481-12.835-1.3561-4.7162 0.39736-8.0884 3.0055-11.614 5.8817-3.2188 2.6508-6.1443 6.2057-6.939 10.387-0.16001 1.1134 0.092 2.3468 1.4481 2.2481 3.6655-0.53736 7.3004-3.7002 11.051-3.5842 1.0561 0.28002 3.2548 1.0321 2.8895 2.4801-6.403 3.8469-10.086 11.321-8.7418 18.748 0.42669 1.6134 2.7242 1.7534 3.5175 0.39203 1.4174-1.9068 2.6401-3.7629 4.7843-4.9536 1.8748-1.2454 4.0002-1.7401 5.8456-0.116-1.4414 2.5708-3.7935 5.5816-3.8175 8.6165-0.12267 1.8628 0.75737 3.4748 2.0761 4.7082 2.6882 0.66004 3.2682-1.4708 4.9789-2.9068 2.6761-2.4668 6.427-2.8028 9.8232-1.8134 3.2495 0.99606 6.823 0.62271 9.6885-1.2521 2.1508-1.4841 3.3602-3.5362 4.7656-5.643 0.74537-1.2147 2.2908-1.8628 3.4455-2.6868 3.8842-2.6015 7.3297-5.6976 9.7859-9.7165 3.7815-6.2723 6.927-12.867 10.886-19.042 1.5828-2.8948 3.3908-5.7163 4.6736-8.7511 2.6748-6.279 5.4803-12.502 8.1004-18.798 2.1068-4.3736 4.0736-8.7271 5.1243-13.49 1.1121-4.6962 2.7068-9.8445 1.5401-14.663-0.53736-3.0242-2.0894-5.7536-4.3202-7.8604-1.9228-1.8801-4.1402-3.0842-5.9363-5.0936-2.5468-2.9375-4.4669-6.259-4.6549-10.235-0.0973-3.7735-1.2347-8.0924 0.0733-11.634 1.7894-5.283 3.8722-10.277 7.6671-14.461a52.476 52.476 0 0 1 8.4125-7.4511c4.6122-3.6895 9.5112-7.5177 14.674-10.419 1.7948-1.0267 3.6829-1.1787 5.711-1.0681 0.23868 7.4684-2.6748 14.883-2.3641 22.425 0.40935 7.4804 2.5228 14.95 5.1563 21.931 1.4481 4.3056 2.1321 8.6231 3.7135 12.886 1.5028 4.2496 3.6535 8.1218 5.7243 12.103 3.8189 6.9137 5.847 15.023 7.4591 22.708 0.7147 2.8455 0.46402 5.6483 0.89738 8.5365 0.71604 5.143 0.19068 10.254-0.6107 15.353-0.96539 5.4483-2.1068 10.663-4.3802 15.738-2.1201 4.2576-4.6802 8.2324-7.5257 12.043-2.6882 4.1296-5.9497 8.8312-10.667 10.798-2.0641 1.0267-4.9896 0.74538-6.487-1.1361-1.6974-2.0028-2.8455-4.3976-4.5869-6.3817-3.3348-4.0429-8.9072-6.1563-14.081-5.6976-4.0069 0.51203-7.8311 2.5521-10.562 5.515-2.8402 3.3762-3.7335 7.5471-4.4296 11.798-0.068 5.783 7.8831-1.5521 10.221-2.1921 1.4107 1.0014 2.1934 1.8694 2.3948 3.6709 0.10401 1.2694 0.40936 3.4935-1.3507 3.6935-3.7069 0.69737-7.019 1.0094-9.7125 3.9776-2.6268 3.1508-4.0202 7.5164-3.8376 11.609 0.08 3.2068 0.26268 6.999 1.8881 9.8392 0.56803 1.1174 2.5655 2.1681 2.5655 2.1681s2.8295-6.2177 5.5843-8.1724c1.0627-0.43336 1.6254 0.45335 2.4068 0.98405 1.1787 0.98272 2.5295 1.6054 3.8855 2.2961 0.0187 2.2468-0.20801 4.7509 0.42136 6.9257 0.93472 4.0909 8.5258 10.965 8.5258 10.965s3.1468 2.1961 4.1989-10.697c0.86405-4.2976 7.5818-3.4695 10.739-3.2615 1.7894 0.20134 3.3775 0.54936 5.107-0.15868 2.4988-1.0801 4.8189-3.2308 5.363-5.9977 0.40936-1.8561 0.75205-3.6935 1.5094-5.4536 2.1374 0.27469 3.2628 1.8014 5.0643 2.7122 2.2174 0.81871 4.9789 0.46403 6.4884-1.5201 2.2348-2.3028 2.6201-5.0403 3.3108-8.0258 1.2334-5.6363 4.7896-10.754 7.9231-15.518 2.7548-4.2802 4.6856-9.1178 7.5377-13.357 3.1522-4.6963 6.5004-9.2272 10.214-13.497 2.5908-3.1268 4.8576-6.5404 7.3137-9.7779 2.6015-3.4682 4.2762-7.5297 4.3122-11.907-0.024-3.0735-1.1481-5.675-2.2535-8.4711-1.7841-4.3976-3.3602-8.8312-4.1602-13.521-0.67204-4.7029-1.5468-9.2645-1.1067-14.046 0.032-5.5523 0.96539-10.974 1.4427-16.489 1.0321-8.3858 3.3602-16.166 5.187-24.375 1.5694-5.4656 3.0775-10.834 3.5735-16.53 0.26802-2.3095 0.16401-4.8936 0.93339-7.0724 5.431 2.0574 11.089 2.6428 16.848 2.8562 6.8244-0.94672 13.018-4.9896 16.892-10.663 12.462-22.56 6.5604-37.587 1.7601-60.314-0.96005-5.679-3.3362-10.619-5.0216-16.11-1.9308-4.7789-6.5764-20.858-10.91-31.782-3.1828-8.8298-6.299-16.958-5.9137-26.547 0.45736-6.375 1.2267-12.893 3.0842-19.006 2.1081-7.139 4.3616-13.894 8.5591-20.134 1.5574-2.7668 3.5669-5.2043 3.5122-8.5018 0.48269-3.3402-3.7255-6.3457-6.7564-5.0323-1.4721 0.58669-2.9815 1.3627-4.1296 2.4615-7.9604 8.2324-12.603 18.108-16.329 28.802-1.0747 4.1149-2.3881 8.1578-2.9868 12.335-1.0507 7.7684-1.5708 15.348-0.28002 23.128 0.61604 5.0016 2.1601 9.7405 3.1628 14.663 0.5867 2.7908 1.4854 5.435 2.3535 8.2018 1.2641 3.8229 3.2002 7.2857 4.6789 11.023 2.5468 5.595 4.5269 11.397 6.0963 17.338 1.8028 5.8563 3.3295 11.811 4.7029 17.778 1.4174 5.9483 0.77604 11.641 1.2534 17.71-0.13467 5.979 0.64137 11.073-0.76404 16.514-0.48803 1.9121-1.5388 4.0976-3.2308 5.2096-3.4762 1.8748-7.4657 0.69737-10.831-0.82938-2.9202-1.3561-4.6429-4.0429-6.091-6.7924-2.5228-4.4336-2.9442-10.009-4.2402-14.945-1.6294-5.807-2.4481-11.787-4.1336-17.57-1.6388-5.1843-2.6161-10.633-4.3749-15.793-0.75204-2.2161-1.3067-4.4882-2.0534-6.7057-4.8936-14.23-9.1445-28.624-14.533-42.689-2.1681-6.5764-5.0523-12.837-7.4711-19.317-2.3335-5.2816-3.9882-10.375-6.995-15.041-1.2214-1.9121-2.1254-3.9149-3.4642-5.747-0.82405-1.1787-1.8441-2.3201-2.4801-3.6095-0.40269-0.88005 0.56803-1.4414 1.0267-2.0641 4.5456-4.6536 8.8818-9.4845 12.859-14.633 1.7414-2.3335 3.1775-4.9416 5.0536-7.1644 0.61603-0.34135 2.3335-0.33602 2.8762 0.16001 1.0387 1.4588 1.7721 3.0468 3.0242 4.3656 3.8535 4.2696 10.171 6.2603 15.804 6.0937 3.8295-0.072 7.1537-1.4214 10.001-3.9629 3.7562-2.8935 5.595-7.2364 6.2603-11.817 0.50669-3.9202-0.34669-7.8898-2.9002-10.967-2.4868-2.8895-5.3456-5.5523-9.1032-6.6137-3.6535-1.1547-7.3057-1.1187-11.087-0.97206 3.4455-6.547 7.1964-13.478 9.1632-20.617 2.7868-7.8724 3.3242-15.549 4.5389-23.72 0.28135-1.9054-0.0733-3.5122 0.92272-5.1789 6.023 1.2707 11.607 4.6109 17.782 5.5936 4.3376 0.91605 8.5031 0.6667 12.907 0.64804 4.0696-0.03067 8.1924 0.27468 12.249-0.03733 2.0228-0.14668 2.6882-2.7655 2.0108-4.3722-1.2534-2.1134-3.2082-3.6882-4.9736-5.3443-5.8216-5.5936-12.114-10.974-18.968-15.267-3.3962-1.9654-7.2804-3.1748-11.038-4.2562-1.6934-0.5307-4.2216-0.46402-5.499-1.7521 13.707-4.1709 21.856-11.421 30.551-22.669-3.8455-0.50136-8.9445 0.49336-15.926 2.1975-7.3791 1.6254-13.903-0.96405-21.357 0.5627-6.3404 1.2534-12.47 3.1388-17.992 6.5417 0 0-7.5857-3.3668-10.059-4.1122-5.1136-1.5454-10.245-2.2161-15.505-2.9868-4.1242-0.25601-8.2898 8e-3 -12.334 0.86271-2.4988 0.51336-4.8323 1.8001-6.7444 3.4682-1.7334 1.5948-5.0269 7.5751-5.0269 7.5751-2.7228-0.16268-5.6016 2.5375-15.462 2.9842-5.963 0.84271-12.341-1.9308-18.334-1.3681-2.3081 0.26268-4.6789 1.9974-4.5802 4.5256 0.14 2.1001 1.2761 4.2322 1.9854 6.2043 0.83604 2.1561 1.3001 4.7203 2.6321 6.6084 1.1067 1.6801 2.4441 2.8828 2.9335 4.9043 0.97072 3.3215 2.1614 7.5417 4.8616 9.8992-0.41335 0.75071 0.16001 2.1001-0.52136 2.6055-2.0374 1.5161-6.1603 1.1787-8.4591 0.22268-3.0242-1.3814-5.803-3.5735-8.4418-5.5763-1.5761-1.2401-3.0975-2.0828-5.1203-1.3374-1.9294 0.97072-1.7468 2.6268-1.3374 4.4709 1.0694 3.6335 1.8454 7.0164 4.2829 10.027 4.1042 5.3136 11.118 8.8005 17.881 8.1471 2.8335-0.09201 5.327-0.80671 8.1298-0.03734 1.2227 1.9428 0.83738 5.1976 3.1708 5.9923 3.5922 0.81738 7.4231-1.5948 11.261-0.17734 3.5549 1.2934 7.1204 2.7175 10.451 4.5256-1.5401 2.2161-3.7455 3.8162-5.1736 6.1497-1.5041 2.1001-1.076 4.4522-4.0269 5.191-10.513 3.3042-20.226 8.7271-28.32 16.226-3.9269 4.2202-10.098 6.083-15.614 7.0404-1.2947 0.12267-3.0002 0.62403-4.0189-0.39602-3.4215-2.7415-5.431-7.3164-7.0257-11.291-2.2721-5.8136-4.4229-11.641-5.8936-17.717-1.3814-4.6109-1.6934-9.2898-2.1815-14.041-0.25068-4.7643-0.52002-9.3872 0.23868-14.126 0.51203-5.3936 1.6494-11.025 1.1974-16.428-0.24001-2.8468-1.2587-5.4003-2.4935-7.9404-1.1414-2.5641-0.36535-4.8243 0.5067-7.2911 1.5774-5.259 2.7442-10.406 1.6561-15.902-0.97072-5.2216-4.8989-9.7472-9.5779-12.074-2.4281-0.92272-5.1469-1.2001-7.8764-1.0907zm98.524 29.71c0.61337 0.01333 1.1307 0.28668 1.2507 1.1041-0.37869 1.4841-1.3614 2.3748-2.0708 3.6762-0.28669 0.92805-0.30535 1.9481-0.44536 2.9015-1.3814-1.0081-2.7922-1.6308-3.3415-3.3895-0.31735-1.8321 1.5508-3.1642 2.9562-3.9149 0.48936-0.19868 1.1081-0.38936 1.6508-0.37735zm6.0577 1.1814a1.5694 1.5694 0 1 1 0 3.1388 1.5694 1.5694 0 0 1 0-3.1388zm-43.262 16.418s-1.0867 3.4735-1.1721 5.427c-0.87338-0.20001-1.6134-0.24268-2.1201-1.0974-1.0867-2.1014-1.8268-6.7737-1.8268-6.7737zm11.201 6.683c-0.84938 1.5401-4.1989 3.5029-4.1989 3.5029s-2.8282-6.107-3.4335-8.1231zm-8.4805 1.7881s2.7535 4.7749 3.4508 6.307c-2.7495-0.44536-5.9443-0.24001-7.135-3.1588zm13.807 1.0027c1.1001 0.81338 4.9883 2.8868 5.6603 4.0896 0.23202 0.98272 0.40403 2.3268-1.008 2.2668-12.607-0.46803-2.8388 0.34668-12.517-0.16668l-1.0801-2.8468s4.9336-3.1775 8.9445-3.3428zm18.309 28.678c0.33469-0.01867 0.69204 0.03867 1.0774 0.19468 1.3507 1.5574 2.2855 3.3948 3.7935 4.8363 4.2882 4.4402 9.1578 8.6111 14.509 11.707 5.511 2.6388 11.374 4.6482 17.288 6.1497-0.12134 2.1614-1.2827 3.7442-2.6201 5.3376-1.1787-0.10401-2.5108-0.41469-3.6775-0.14668-0.79471 0.33602-1.1934 2.3308-1.6214 3.0268 0.58137 1.0081 1.1934 1.1014 1.7254 2.1334a56.524 56.524 0 0 1-1.1974 4.7096c-4.8269-0.60536-9.5245-2.9868-13.929-4.9656-4.4042-1.8321-8.5711-4.3669-12.609-6.8884-4.2336-2.9868-8.7538-6.8217-10.966-11.61-0.90405-1.9308-1.8748-4.0376-1.0867-6.187 0.67204-2.5281 3.8175-4.1469 5.651-5.8683 1.1814-0.87338 2.2134-2.3521 3.6629-2.4295zm16.824 19.076a3.8669 3.8655 0 0 0-1.7134 0.36802c-1.8814 0.96005-3.2322 3.3162-2.7602 5.4296 0.67737 2.0028 3.0348 3.5975 5.1483 2.9682 2.6695-0.70804 4.2829-3.9816 2.8535-6.455-0.62803-1.4361-2.0521-2.2868-3.5282-2.3108zm29.772 3.5295c1.7174-0.0107 3.4322 0.21335 5.0083 0.70404 4.1002 1.2587 7.3431 4.7523 8.7298 8.7405 1.6561 5.2696-1.6921 11.45-6.4204 13.937-5.3203 3.1695-13.018 2.1548-16.841-2.8895-1.6201-2.0148-2.0534-4.5736-1.5961-7.0844l0.6787-7e-3c3.1282 2.0161 6.243 5.7163 10.03 6.3457 4.4669 0.54936 7.9178-3.0668 8.8098-7.1511 0.30535-2.9068-1.4534-5.8936-4.0442-7.1951-2.0534-1.0747-4.3016-1.3121-6.5924-1.1534-1.9854 0.0533-3.6282 0.6587-5.339-0.72671 0.7027-1.2094 1.0814-2.3695 2.5535-2.8162a19.037 19.032 0 0 1 5.0229-0.70404zm-13.617 6.667 15.744 4.0376s2.1548 6.9204-3.7655 3.9789c-3.8295-1.7521-9.8539-3.9896-13.593-5.9803-0.61736-0.47069 1.6134-2.0348 1.6134-2.0348z"/>
<path d="m185.85 15.265c-2.7175 0.01333-5.419 0.90138-7.7311 2.4428-1.7108 1.1481-3.5309 2.9068-3.9949 4.9829 5.491 1.3801 10.983 2.0828 16.254 4.2936 3.3548 1.1907 6.3737 2.9562 9.5192 4.5869 0.70804-3.1815 0.51336-6.4003-1.3681-9.1418-2.0161-2.7428-4.6189-5.0083-7.8498-6.1923a12.039 12.037 0 0 0-4.8296-0.97072zm-113.34 9.1285c-0.46936-0.036-0.88805 0.12401-1.1174 0.72804l0.03067 0.24001c1.4054 5.6176 1.7841 11.419 0.22668 17.056-0.87338 3.6775-2.3468 7.0964-4.9856 9.8632-0.94672 0.95338-2.1801 1.3747-3.0842 2.4068-1.5948 1.8014-3.0362 3.6095-3.1588 6.1323-0.16401 2.1308 0.50136 3.9509 1.0134 5.9777-3.5242-1.9788-4.0002-7.7858-1.2934-10.657 1.0321-1.1961 2.9442-1.6734 4.0682-2.6441 2.0774-2.2348 3.1455-4.8496 2.8028-7.9391-0.47603-4.8603-2.2721-10.485-6.243-13.643-2.0214-1.6668-4.3669-3.4189-6.907-4.1576-1.3334-0.39736-1.8588-0.24535-2.9522 0.5667 4.5082 6.767 6.4697 15.274 6.243 23.341 0.056 1.8201-0.39069 3.3602-1.8694 4.5016-2.1068 1.6614-3.9882 3.2495-4.7029 5.9603-0.99605 2.7602-0.16534 5.1549 0.06134 7.9511-1.4734-0.18268-1.5281-1.4707-1.8934-2.6135-0.6667-3.4002-0.056-7.3471 2.4241-9.9165 1.0747-1.2534 2.6508-2.3148 3.4335-3.7682 1.1241-3.6455-1.1867-7.6711-3.5922-10.281-1.1854-1.0067-2.7201-2.6988-4.3736-2.6988-0.5867 0.55603-0.092 1.7041 0.024 2.4055 1.2281 4.4709 1.0507 9.4605-1.0694 13.643-1.2334 2.3815-3.2188 4.1402-4.4042 6.5777-1.4414 2.8762-2.7802 5.8003-4.2589 8.6591-0.92272 2.0708-1.9534 4.0989-0.50669 6.2123 3.6402-0.94138 7.2817-1.9974 10.99-2.6321 0.04934 0.83071 0.09734 1.6601 0.14134 2.4975-2.1508 0.68404-4.3869 1.0507-6.5377 1.7654-4.9296 1.3974-9.4378 4.6056-13.141 8.0738-3.5975 3.4989-4.9523 8.9152-2.5761 13.489 1.4841 2.5521 4.5922 4.4029 6.767 6.375-0.07334 1.5468-0.83071 3.7069 0.22668 5.0029 1.9068 2.0028 4.3069 2.4721 6.9524 2.7348-1.5334 1.4107-4.6376 0.82537-6.531 0.60003-0.012 0.6707 0.22001 1.2387 0.69604 1.7014 1.5828 1.6668 3.5495 2.7122 5.675 3.5242 1.0814 0.50669 2.1334 0.59336 2.6948 1.7721-2.2788-0.0667-4.5336-0.40935-6.811-0.52536 1.6241 5.447 8.0138 5.551 11.43 9.1605-3.0855 0.0613-5.859-1.1107-8.9205-1.2641 0.45336 1.4294 0.91738 2.7735 1.9921 3.8535 2.6935 2.5948 5.9243 4.3056 9.1992 5.991 0.71471 0.52537 1.8028 0.67737 1.3561 1.7894-2.7121-0.092-5.3936-0.55603-8.1191-0.54937 0.55603 1.5268 0.95338 3.4802 2.3468 4.4882 1.8321 1.3001 3.9335 2.2601 5.9803 3.1762 1.5027 0.68404 3.1828 1.0747 4.3309 2.3028-2.6801-0.0853-5.3576 0.036-8.0391-0.12267 0.72671 1.5868 1.4001 3.0775 2.7682 4.2269 2.5961 2.3201 5.987 3.4255 9.1258 4.8603 0.65337 0.28001 1.1921 0.6667 1.6188 1.1547-2.6388 0.0733-5.2403-0.14001-7.8738 0.18934 0.86138 1.8454 2.0401 3.7495 3.6215 5.0629 3.1162 2.2481 6.5497 2.8642 10.183 3.7135-1.7588 0.92271-4.2016 0.43335-6.151 0.68403 1.5094 2.7415 4.0629 4.6963 6.927 5.887 1.7534 0.88538 3.7642 1.0934 5.4496 2.0828-2.2041 0.28002-4.3682 0.10267-6.5737 0.012 0.80671 1.6241 2.1268 3.0228 3.5015 4.1842 2.3268 1.5934 5.3203 2.3441 7.5924 4.0176l0.44002 0.81738c-1.2267-0.21335-2.4428-0.48269-3.6642-0.74538 0.32268 1.0627 1.0014 1.8268 1.6241 2.7175 1.4854 2.0401 2.3335 4.9549 4.0869 6.951 1.3387 1.6054 3.9829 1.3921 5.8337 1.0801 3.1948-0.76938 4.9843-2.9735 7.2817-5.0803 0.7027-0.7027 1.4107-0.94672 2.3641-1.1547-0.25068 3.1268-3.4575 5.3496-4.8136 8.2138 2.2535 0.18401 4.4669-0.0533 6.439-1.2334 2.0828-1.1734 3.1762-2.9615 4.9469-4.4829-0.50003 2.1374-1.2814 4.2562-1.9294 6.3644 2.3335-0.0987 4.6976-0.13334 6.983-0.69071 0.7267-0.13334 1.1174-0.83071 1.6188-1.3201-0.0867-4.5602-0.93605-9.0552-1.1254-13.605 0.84537-12.134 0.79337-20.393 6.7377-31.422 2.2668-3.8296 4.9909-7.2804 7.8564-10.675-3.4628-2.2001-7.4044-2.4495-11.387-1.9548-2.6575 0.40935-5.2456 1.3427-7.9151 1.6241-2.9202-0.6227-5.7123-2.2961-8.4485-3.4988-2.6521-1.2881-6.043-2.5335-7.7404-5.0683-1.3934-1.9494-1.4734-4.4162-2.9828-6.1563-1.8561-2.2401-4.0069-4.1669-5.6936-6.567-5.675-6.0963-4.8723-11.729-5.3683-19.39-0.44802-10.391 3.0935-24.609 9.8699-32.608 0 0 6.495-7.2577 8.7738-10.086 13.455-16.988 5.5683-29.215 3.8135-31.348-0.84405-0.98272-1.8828-2.5095-3.2268-2.7602-1.5708-0.12801-1.0627 1.4481-0.92805 2.4308 1.2881 5.247-0.47603 10.467-2.9508 15.065-2.3641 4.8429-6.427 10.077-11.681 11.897-2.0894 0.43469-3.6535 2.2721-4.6483 4.0496-1.3387 2.2841-0.87338 4.6843-1.3254 7.4444-1.7908-0.79338-1.8334-2.6201-1.9494-4.3429-0.12801-2.9922 1.5708-5.6363 3.6775-7.6097 1.0507-0.89205 2.0588-1.7334 3.5309-1.4227l0.15334 1.7161c3.3228-2.0401 5.7416-5.8683 6.059-9.7712 0.26268-2.8268 0.04934-5.7216-0.04934-8.5618-0.02934-4.7389-3.1588-9.0685-7.043-11.542-0.43602-0.18668-0.95872-0.42136-1.4294-0.45869zm92.513 0.45336c-3.9709 0.04267-8.3738 0.14667-11.966 2.0334-3.8482 2.0894-7.1671 5.0136-10.289 8.0444-1.7841 1.7521-3.9216 2.9682-5.8096 4.5802-3.1095 2.7175-6.603 5.2523-10.397 6.9137-4.6309 1.9534-8.5471-3.2135-13.195-1.2961-1.4361 0.61737-3.5309 2.3201-3.1708 4.0989 0.17201 2.3335 1.7788 4.1642 2.7682 6.1737 0.23868 2.0334-2.0654 3.8602-1.8214 6.0537 0.42269 3.7242 0.96005 6.8364 3.3602 9.5965 1.8694 2.2295 3.1202 5.0536 4.7949 7.4284 0.91605 1.4174 3.5402 2.5015 3.5402 2.5015l0.86671-6.9377 1.0041-0.032c0.30935 1.1867 0.67737 2.5201 1.0894 3.4135 0.6667 1.9121 4.3949 6.4777 4.3949 6.4777s-0.43869 1.0934-0.89739 2.1868c-0.70137 0.084-1.4841 0.03067-1.4841 0.03067l-3.0615-5.603-4.1256 6.035c-5.347-0.24135-7.8378-3.8735-12.491-6.0923-3.6842-1.3427-7.2337-2.4241-11.174-1.3921-2.7001 0.80538-5.6323 1.8508-6.151 5.0136 2.3881 3.8535 5.6016 7.2191 8.8578 10.341 2.7988 2.2041 6.2017 3.9629 9.7632 4.4762 3.6469 0.48803 7.3244 0.67204 11.001 0.58136 2.2428-0.0067 4.2829-0.25735 6.483 0.14668-0.0307 1.5507-0.18401 3.2535 0.18268 4.7683 0.70937 1.6734 2.5601 2.6695 4.3376 2.5655 1.8508-0.19601 3.6349-0.91605 5.4856-1.1667 3.0242-0.33602 6.023 0.0307 8.9498 0.82405 5.267 1.2707 10.707 3.3042 16.084 3.8349 3.6775 0.36669 7.031-0.55069 10.501-1.6068-0.44536 2.3455-1.9121 3.7735-3.2428 5.619 3.6282-0.69604 5.651-3.1268 8.6271-4.8616-0.32002 1.6561-1.2841 2.8762-2.1761 4.2509 3.2188-0.34268 4.2882-3.6455 6.751-4.6282-0.45335 1.2267-0.91071 2.4481-1.2401 3.7189 1.4041-0.6107 2.4615-1.4294 3.3535-2.6762 0.75071-0.90271 1.1721-2.0988 2.3388-2.4895-0.14001 1.3614-0.39069 2.6975-0.67737 4.0349 3.9469 0.092 2.9628-4.9043 5.315-6.723 0.15868 1.9108-0.0373 4.0242-0.84938 5.783-2.9268 2.2908-6.8844 2.5468-10.355 3.6402-4.8256 1.3667-9.8899 1.2094-14.717 2.4121-5.5643 1.7401-11.759 2.4481-17.054 4.8483-0.59336 0.35469-1.6868 0.5507-1.7534 1.3627 2.6388 0.55603 5.4736 0.41469 8.1071 1.0374l0.49336 0.55603c-2.9068 0.50136-5.815 0.74538-8.6671 1.5454-3.9709 0.99472-8.7125 1.8201-11.449 5.1603 3.0242 0.58003 6.0483-0.5627 9.1272-0.12267-2.8348 1.4174-6.2377 1.7414-9.2005 2.9255-2.8402 1.1854-5.975 2.3641-8.3391 4.3789 3.0602 0.60004 6.3897-0.14667 9.4938-0.30401l0.23735 0.96405c-4.1536 0.99605-8.1604 2.4868-11.923 4.5069-0.71471 0.42269-1.1174 1.0454-1.6001 1.6934 2.3761 0.0413 4.7203-0.28802 7.1097-0.0933-4.5816 1.8028-8.8578 3.2615-12.223 7.043-0.18935 0.35335-0.35469 0.72004-0.4947 1.0987 3.3415-1.6988 6.683-3.1575 10.47-3.5068-2.9068 1.6134-5.8216 3.1335-8.5871 4.9909-3.0135 1.7521-5.4563 4.3416-6.1777 7.8471 2.2601-1.0387 4.2042-2.3201 6.783-2.4668-2.1628 2.0081-4.6629 3.3762-6.403 5.8803-1.5828 2.0454-1.7414 4.3069-2.0708 6.767 0.87338-0.82404 1.7654-1.6134 2.7855-2.2601-1.2334 2.9015-3.0855 5.3016-3.3362 8.5258-0.23868 3.2428-0.12134 6.527 0.0493 9.7765 0.30669 5.527 1.8268 10.969 2.1014 16.489 0.31735 4.3842-3.4455 7.9764-5.339 11.701-1.0267 2.2481-2.6268 4.3549-3.2268 6.7604 4.5029-2.9802 8.7365-6.4564 12.854-9.9486 2.6575-2.2414 4.7776-4.9709 7.3311-7.3164 6.371-7.1204 12.174-14.645 18.553-21.753 3.1202-3.6042 6.267-7.195 9.3458-10.835 1.6001-1.7521 3.2442-3.7055 5.2296-5.0243 7.0337-4.8843 26.075-7.1137 28.932-5.9123-3.7469 1.6721-7.9524 2.1281-11.938 3.0535-4.2269 0.86672-7.8258 2.6308-11.899 4.1642-1.8521 0.68404-3.5002 1.6374-4.9109 3.0295-3.2268 3.0895-6.0363 6.6564-8.7125 10.223-4.1109 4.8723-7.8991 9.9472-12.407 14.486-6.0163 7.1017-11.894 14.053-19.352 19.726-6.1697 5.6803-12.938 10.651-19.384 16.038-4.7763 3.5775-9.0352 7.7498-13.983 11.09-2.1374 1.5761-4.3922 2.8042-7.0857 3.0535-4.8803 0.35468-9.9579-1.9161-13.227-5.507-1.9721-2.0214-1.7334-5.1243-1.4641-7.7071 0.6227-3.6655 1.4174-7.0004 0.12134-10.659-1.5814-5.5336-6.3403-8.6831-11.087-11.353-3.0722-1.8441-7.2084-2.2588-10.483-0.73337-0.76271 0.31868-1.1974 0.91605-1.7041 1.5268 3.3162 0.54403 7.5017 1.3134 9.4072 4.4216 2.4441 3.2668 2.7375 7.6764 1.1307 11.371-0.88672 1.9734-1.5281 4.0496-2.5415 5.955-1.4414-1.9668-2.4188-4.5442-4.2402-6.1737-2.9682-2.0534-6.867-3.4575-10.507-2.9628-3.4749 0.34269-6.8217 2.4548-9.4298 4.6843-2.2668 1.9174-3.7815 4.3842-5.0163 7.047-0.60537 1.0627-0.54936 2.0654-0.46402 3.2375 3.2802-1.3867 6.579-2.8468 9.9752-3.9215 10.05-2.8335 9.4138 5.0789 13.427 10.699-2.2601-1.3201-3.5122-3.1202-6.1137-3.7495-3.3122-1.1174-6.6724 0.37335-9.7445 1.5574-2.8468 1.5094-6.567 3.6282-7.6911 6.835-1.0321 2.4001-1.1667 4.6949-0.5307 7.223 3.4935-1.6734 6.2177-4.3109 10.061-5.4643 2.0468-0.62937 5.1376-1.1481 6.867 0.47602 2.0268 1.7228 2.3268 4.7149 4.0496 6.8577-2.9268-0.59203-5.5643-1.5201-8.4005 0.0493-5.4003 3.0482-10.189 9.1738-8.9738 15.713 2.2361-0.56803 3.9709-2.0508 6.171-2.7535 2.1014-0.70138 4.2029-1.4668 6.427-0.83738 4.2936 1.3561 7.6537 4.4882 11.106 7.2364 4.2576 3.3722 8.8805 6.663 14.001 8.5871 2.1494 0.78671 4.4536 0.18268 6.6404-0.104-0.75204 1.0694-1.7348 1.7854-2.7615 2.5668-0.53203 0.68404 1.1187 1.0134 1.5468 1.1174 4.5336 0.024 9.2005-1.8321 13.214-3.8109-0.92938 2.4428-2.8415 3.8296-4.3442 5.8443l-0.11734 0.90939c1.5894-0.08 3.1108-0.024 4.6256-0.56804 2.5655-0.94671 4.3429-2.7055 6.2857-4.5309 2.3588-2.2468 4.9669-4.0429 7.4831-6.1203-0.78671 1.9788-1.3067 3.8722-2.3881 5.7163-1.0881 1.8988-2.3095 3.5669-2.7735 5.7603 2.1748-0.11067 4.1549-0.6547 5.8897-2.0228 4.5202-3.4869 7.7204-8.5485 11.887-12.702-0.53203 4.0669-2.8095 7.4391-3.3655 11.501 3.2668-1.5201 6.5284-3.7869 8.5071-6.8537 1.6201-2.3068 3.3735-4.4402 4.8083-6.883 0.84938-1.3681 1.3934-2.7295 2.5361-3.8949-0.33069 3.4442-1.4801 6.5337-1.9494 9.9352 1.3507-0.37735 2.1441-1.3014 3.0362-2.3148 2.2001-2.5335 4.5882-4.3229 5.9323-7.5044 1.4961-2.9495 1.9481-6.047 2.1614-9.3138 1.7348 3.4082 1.3561 6.731 1.0507 10.382 2.1934-2.2041 4.6376-3.7242 5.9817-6.5764 1.6494-3.4322 1.2334-7.0977-0.55736-10.37 2.8042 1.3667 3.3068 3.8109 4.7229 6.307 0.60537-1.3481 1.2227-2.6441 2.1948-3.7789 0.48136-2.3148-0.43469-3.6589-1.4547-5.5816 1.6428 1.4228 3.0602 3.0042 4.3682 4.7443 1.3867-1.7641 2.7975-3.8295 3.4442-5.991-0.37868-1.5334-2.2161-2.8268-3.0042-4.2749 4.1602 1.4107 9.3752 2.0094 12.943-1.1054-2.1388-1.1467-4.5869-2.2175-5.4363-4.6896 3.8162 2.7535 6.0243 4.0162 18.308 0.53736-1.1121-1.1361-2.5721-1.6614-3.7509-2.7068-1.5454-1.3974-2.6988-3.1748-2.8335-5.3003 2.1681 3.0108 5.199 4.9643 8.8872 5.5323 2.7495 0.29868 5.315-0.25068 7.9471-0.98272 0.57469-0.11067 1.0507-0.43336 1.4361-0.96539-2.8282-1.0494-4.9416-2.3641-6.1643-5.2336 3.4335 2.6441 8.8458 4.0056 12.859 2.1494-1.5081-0.96539-4.4349-1.3734-4.9656-3.2908 2.6935 0.86005 5.7843 0.42002 8.4538-0.36669 2.5361-0.79471 4.0562-2.5161 6.023-4.1709-1.3494 2.9922-3.1815 5.9897-5.6136 8.2191-2.3268 1.8628-5.3936 2.8668-8.0324 4.2402-6.9684 3.4562-24.325 8.3645-26.745 10.454-2.5468 2.4068-5.699 3.2922-7.8804 6.2043-0.78671 0.80005-0.46936 1.6748-0.0173 2.5468 1.0134 2.0094 3.5309 3.0975 5.199 4.5869-1.9068 0.0133-3.3975-0.78671-5.1203-1.4347 1.4908 3.6829 4.8083 5.5936 8.1498 7.3417l0.36001 0.70804c-1.7601 0.024-3.5135-0.10401-5.2723-0.27468 1.2214 2.7362 4.4162 4.7696 6.243 7.0297 0.52003 0.70138 1.2774 2.0761 0.092 2.5335-4.8563 2.4255-10.074 4.1402-14.953 6.5337-5.9377 2.9335-12.133 5.2416-18.101 8.0991-3.0975 1.3934-6.0057 3.2068-8.4911 5.527-0.21334 0.34268-0.31735 0.77604-0.29334 1.3014 3.8789-0.99605 7.7578-2.1068 11.698-2.8642-1.0454 0.97605-2.2801 1.4401-3.5068 2.1201-4.9069 2.8388-9.9685 5.3123-14.747 8.3778-2.9428 1.9788-5.4243 4.3909-7.9591 6.8457 4.4416-2.0161 8.7418-1.8988 13.635-2.9495-0.012 0.59203-0.23868 0.97605-0.67737 1.1467a259.44 259.44 0 0 1-12.293 6.6817c-2.8095 1.4894-5.467 2.7855-7.3244 5.4963-0.90938 1.3494-2.5668 3.1762-2.3161 4.8856 4.9069-2.4188 10.123-5.0069 15.492-6.1497-2.8095 2.4495-6.219 4.2202-9.2672 6.3577-2.6201 1.8694-5.7536 3.2002-8.1298 5.355-1.6374 1.9668-3.0602 5.4243-3.1148 7.9524 2.6935-1.3494 5.2536-2.9562 7.9284-4.3296 2.5415-1.0134 5.1203-2.0454 7.7698-2.7428-1.2694 1.4841-2.8828 2.2908-4.4896 3.5242-2.7495 2.0894-5.5643 4.2136-7.9778 6.687-1.4481 1.5334-3.0002 3.3042-3.6295 5.3496-0.26268 1.1974-0.18268 2.4988-0.17601 3.7135 1.2521-1.1467 2.7535-1.7214 4.1829-2.5828 2.9628-2.0161 6.8124-2.8708 10.251-3.7615-2.0334 1.4467-4.1656 2.6321-5.9923 4.3656-2.8842 2.5415-5.1763 5.607-7.1484 8.8938-0.06134 1.6481 0.72804 3.3775 1.0881 4.9829 3.5922-2.6268 7.2324-5.863 11.833-6.6324a42.789 42.789 0 0 0-9.3405 9.9792c-0.34802 0.5987-1.0134 1.2934-0.7027 2.0214 0.91605 2.2228 2.3895 4.2802 3.9095 6.131 0.69737-3.0775 2.6095-5.807 4.2949-8.4765-0.79471 3.8109-2.8828 6.803-2.5721 10.987 0.23868 4.4096 2.6828 7.4871 5.4443 10.687 1.9054 1.9654 4.0802 3.6455 5.999 5.6056 6.0297 6.315 11.686 12.161 13.757 20.966 0.97739 4.0002-0.51336 7.4817-2.4495 10.89-1.9668 2.9255-4.9963 5.3496-8.4298 6.283-2.8042 0.40935-5.791 0.0307-8.5711-0.42136-4.1722-0.74404-8.2164-3.6695-12.211-5.1056-2.9068-1.0681-5.327-2.4055-8.5525-2.1494-4.8576 0.12267-9.2245 2.6455-12.554 6.035-1.9788 2.1428-3.8669 4.5202-3.8482 7.5924 2.5161 0.024 4.4896-1.1241 6.8724-1.7294 3.0362-0.85338 6.8404-1.4894 9.8779-0.46936 2.1735 0.89072 2.6868 2.5935 3.4815 4.5962 1.1787 2.8828 3.3548 5.259 6.2497 6.4684 2.6335 1.1361 5.3816 0.94672 7.8938 2.6135l0.51203 0.92805c-4.5389 0.46536-9.0298-0.22535-12.975-2.5881-2.2855-1.6374-2.9322-3.9709-4.1722-6.315-1.0694-1.6548-3.3788-1.3254-5.0163-0.93472-4.7589 1.7281-8.5645 6.027-10.862 10.425-0.45202 0.99605-1.2694 2.1441-1.0134 3.2735 0.5627 0.52536 1.5281-0.10934 2.1134-0.32935 3.6042-1.8134 8.1258-3.7855 12.23-3.3268 4.3069 0.80004 6.183 4.4202 9.8539 6.179 3.2495 1.6614 7.3484 1.7281 10.91 1.4654 2.7121-0.17068 5.1563-1.1907 7.8564-1.1467-1.3067 1.7268-4.0322 2.3495-6.0297 2.9362-4.6856 0.98938-10.367 1.1241-14.735-1.0987-2.2788-1.0934-3.3842-3.0482-5.3336-4.5069-0.65337-0.52003-1.3361-0.40402-1.9961 0.0347-1.3867 0.80671-2.5655 1.9188-3.5122 3.2068-2.2055 3.0962-4.0869 6.3577-5.2003 10.01-0.21868 0.76937-0.24268 1.8934 0.83204 1.8988 3.3962-1.2521 6.4203-3.4802 10.081-3.9562 2.6695-0.37869 5.655-0.5627 8.2711 0.23201 3.1575 0.95205 6.5417 1.0441 9.7605 0.33602 3.4468-0.67737 6.3604-2.7002 9.8045-3.5002-0.56803 1.2827-1.7041 1.7601-2.8162 2.5041-3.5789 2.1068-6.9457 4.1096-11.263 3.9629-2.9202 0.17201-5.675-1.4161-8.5045-1.0134-2.7001 1.5881-4.1469 4.6856-3.8055 7.7938 0.03067 1.8001 0.82404 4.5669 2.5841 5.4043 1.6734-0.19601 3.1642-1.7708 4.5936-2.6015 3.8975-2.6748 8.4618-3.6042 13.117-3.7322 0 0 9.5458 1.1001 13.958-0.31068 1.8321-0.46403 3.6909-1.3334 5.1563-2.5001-0.048 0.61737-0.49603 1.2241-0.54403 1.8348 3.6709-0.0493 7.1644-0.0133 10.629-1.4174 9.0405-3.2615 15.388-11.262 24.008-14.785 23.576 0.79071 37.615-28.924 18.188-44.173-2.8962-1.5694-4.9923-4.0669-6.4404-6.987-3.3228-6.4364-7.063-12.25-8.5405-19.304-0.67871-2.6015-0.51336-5.2403-0.97739-7.8591-0.88538-4.0736-3.0415-7.5004-4.3989-11.371-1.3868-3.2615-2.9695-6.2777-3.6589-9.8019 3.1642 2.8402 5.5163 6.6804 8.1004 10.051-0.0853-2.9375 0.17068-5.643-0.47603-8.5605-0.57469-2.6095-2.1454-4.5082-2.2548-7.2631-0.12268-2.6375 0.068-5.5696 1.2281-7.9871 0.60003 3.7069 0.87338 7.0577 3.9336 9.6539 0.6907-1.5814 1.4921-2.9495 1.5228-4.7269 0.15867-3.9576 0.98939-8.1831 2.9748-11.646 0.08 2.7482-0.20801 6.095 0.96405 8.6298 2.2855-3.7869 3.5202-8.0738 4.5029-12.343 0.36002-1.2454 0.51336-2.6561 1.3561-3.6455 0.30669 2.2841-0.024 5.503 1.3254 7.4377 1.5881-3.7495 1.0641-10.694 3.0082-11.827 0 0 0.97472 2.0694 1.4214 2.9495 0.48136 0.26268 0.79338 0.20135 0.91605-0.17734 0.51337-3.6509-0.6667-7.4071-0.37335-11.126 0.37335-5.1603 1.6628-10.303 3.3482-15.189 1.1001-3.2308 3.1282-5.9243 4.1109-9.2285 1.8814-5.643 1.8334-11.237 1.6001-17.112-0.67604-4.9549-2.2868-9.6579-3.3482-14.578 5.3576 5.523 6.3363 12.115 6.3243 19.464 0.0187 4.7269-0.53069 9.5578-1.9294 14.083-1.2894 3.7682-3.6429 7.2191-4.8336 11.03-1.6374 5.167-2.0934 10.413-2.1561 15.805-0.024 1.2267 0.15201 2.4241 0.39735 3.6215 1.8201-2.7122 2.2975-5.619 3.6589-8.5205-0.20001 4.6482-0.92805 9.1685-2.6508 13.51-3.1642 8.8618-3.8002 18.088-3.5669 27.425 0.14001 3.2802 1.0494 6.5657 1.6974 9.7792 0.23202 1.2454 0.5867 2.0761 1.3267 3.0962 0.95205-2.4668 2.0521-4.7949 2.6442-7.3844 0.84938-2.9802 0.85604-6.071 1.5894-9.0565 0.29868 4.4882 1.1227 8.8552 0.97605 13.331a41.649 41.649 0 0 1-1.4481 10.083c-0.72671 2.9375-1.5148 5.7043-1.3321 8.7645 4.6002-0.52536 6.5057-7.6231 7.075-11.518 0.45336-2.3828 0.13467-5.0443 0.98939-7.3031 0.6107 3.1695 0.59336 6.5284 0.60536 9.7472-0.024 5.0496-1.3494 9.6485-2.0041 14.662-0.22001 1.7334-1.5268 4.2442-0.29868 5.7896 1.1667 0.56803 1.9974 0.0173 2.6028-0.98405 2.6321-4.6909 4.1589-9.8339 4.7696-15.165 0.62937 0.83072 0.44003 2.0041 0.53203 3.0228 0.012 4.6243 0.40936 8.8805-0.19601 13.454-0.94672 6.8204-1.1774 9.6272 2.3095 12.654 0.92805-3.3522 1.5334-6.7417 2.1934-10.155 1.4908 4.1709 2.8095 8.9085 2.4548 13.367-0.45336 3.7029-0.7107 7.2777 2.6522 9.6432 0.24934-1.4534 0.26934-3.9389 1.6734-4.8429 0.50669 2.0574 0.48936 4.1349 0.73337 6.223 0.36002 2.7788 2.0894 5.4296 3.0602 7.9698 1.7414 5.643 1.4241 11.927-1.8628 16.954-2.9202 4.3122-6.347 8.2938-10.251 11.745-13.401 12.291-8.6458 5.575-14.838 10.81-2.2908 1.9534-3.9696 4.7136-5.6136 7.2057-3.5482 5.5336-7.019 10.981-8.7658 17.362-1.3134 4.0242-1.2894 8.0138-1.2774 12.197 0.0613 1.7094 0.0547 3.6335 0.6907 5.2336 0.35469 0.6107 0.54936 1.3201 1.3801 1.2521 1.2334-1.2454 2.0094-3.0242 2.8162-4.5696 3.0055-6.5337 7.3071-11.987 11.675-17.606-1.0027 3.0362-1.4121 6.1737-2.2121 9.2592-1.0441 4.3842-2.4495 8.5685-2.3521 13.149 0.10934 3.4629 0.41603 6.9204 0.50136 10.387 0.0667 1.3934 0.14001 2.7615 1.4348 3.5989 2.1441-3.6042 3.8802-7.4137 5.9563-11.054 2.4068-4.2456 3.9656-8.8672 6.5244-13.046 1.3561-2.1121 2.2308-4.5016 3.7335-6.4924-0.31868 2.9255-1.3747 5.7416-1.8934 8.6538-0.65337 3.5549-1.9614 6.7257-1.8761 10.402 0.0613 4.1709 7e-3 9.3565 2.0468 13.113 0.47603 0.89072 1.3681 1.2014 2.1934 0.53603 1.1667-1.3427 1.6854-3.3948 2.3388-5.0376 1.8268-4.9336 4.2642-9.6552 5.9376-14.651 0.40936 3.7202-0.18934 7.9204 0.6227 11.561 0.66004 0.97072 1.4854-0.032 1.9681-0.62403 1.6974-2.1868 3.8909-3.7989 5.8083-5.7403 1.5588-3.2802 2.0828-7.0124 3.6162-10.279 0.13334 2.4188-0.37735 5.1123 0.20935 7.4577l0.75071 0.18267c2.5721-2.7468 5.1923-5.539 7.5871-8.4458 1.7094-2.5775 1.7334-6.5724 2.2841-9.5472 0.89738 2.1441 0.70804 4.4162 1.4174 6.591 1.9308-1.9548 3.8255-3.9456 5.823-5.8323 0.57337-0.60403 1.1907-1.044 1.2214-1.9481 0.29335-4.4456-0.13467-8.9405 0.26802-13.374 1.0574 3.1148 1.7721 6.1137 3.6589 8.8858 0.77604 0.87339 1.5161-0.58669 1.8588-1.1667 1.6054-4.5629 2.1681-9.6072 2.6388-14.401 0.08-0.28135 0.23735-0.53736 0.47603-0.76937 0.7267 2.4428 1.7961 6.5284 4.6242 7.2671 1.3494-5.643 0.87338-11.813 1.8761-17.534 0.0853-0.47069 0.26135-0.91738 0.52403-1.3387 0.44669 2.7975 0.88005 5.5336 3.5375 7.091 2.7002-4.0429 3.4082-8.4458 4.5442-13.081 0.75738-3.0482 2.4801-5.2763 3.8309-8.0191 1.3254-2.6201 1.8814-5.631 2.6935-8.5071 1.2281-4.4216 2.4748-8.7818 1.6188-13.398-0.39736-3.7322-2.4321-6.2857-3.7015-9.6805-1.7654-4.1469-2.9068-8.5618-4.0376-12.91-1.1547-4.7096 0.0427-10.554-2.3828-14.707-1.2401-2.4001-3.1588-4.3122-4.2829-6.7297-1.0801-2.3508-1.9734-4.7816-2.4668-7.3337 2.2228 3.4989 5.4976 6.107 9.5605 7.1017 0.17067-2.6135-0.88005-4.9029-2.3468-6.9977-3.1708-4.4949-6.383-9.7659-7.2444-15.269-0.15334-0.90405-0.32402-1.7601 7e-3 -2.6388 0.90405 2.1134 1.8614 4.1416 3.3829 5.8936 2.0401 2.4855 4.5762 5.6856 7.6724 6.8217 0.59337-2.8948 0.73338-5.7843-0.29335-8.5991-1.2761-4.1522-3.9469-7.2857-5.547-11.378-0.89204-2.3081-0.77604-4.7456-0.45202-7.151 0.65337 1.8268 1.0334 3.5242 2.2801 5.0696 1.5694 1.9294 3.4989 3.6335 5.4056 5.2136 0.88538-2.9362 0.72671-6.227-0.34268-9.0978-2.7068-6.7004-6.3657-13.217-5.687-20.82 0.81204 3.0042 1.6254 5.8683 3.4335 8.4645 1.0934 1.4907 2.1614 3.6935 3.9096 4.4629 0.6107-8.3964-2.0468-16.472-4.1362-24.503-1.5401-6.2777-3.7869-11.689-3.0362-18.326 2.0161 1.8694 4.2642 3.0855 5.2483 5.7656 1.1974 3.3162 1.7868 8.6578 3.9016 11.669 2.4801-1.0987 1.8708-7.1057 1.8708-7.1057s6.9217-4.2082 7.191-7.7111c0.69337-9.0578-5.707-16.977-15.334-22.531-3.6215-2.0708-6.2297-5.8817-8.1778-9.4845-4.9483-10.486-8.3204-21.54-10.543-32.911-1.4054-7.1884-3.3295-14.249-4.7896-21.424-1.2161-4.5016-2.3775-9.2032-4.3509-13.423-1.4161-3.2255-3.1695-6.9924-5.9123-9.2885-1.5521-1.3307-3.4695-1.2827-5.315-2.0828-1.0267-0.6347-0.81872-2.3028-0.27469-3.1868 1.4601-2.4321 3.0362-5.0456 2.7002-8.0071-0.19601-2.2775-1.2894-3.9469-2.1441-5.987 2.5161 1.9068 4.6669 4.0376 4.9229 7.3671 2.4801-1.6734 2.5895-5.491 1.6801-8.0804-0.74671-3.0362-2.7002-5.5203-3.5362-8.4765 2.6268 2.5588 4.9603 5.3923 7.5617 7.9578 0.5507-1.7468 0.64137-3.2002 0.22001-4.9963-1.2147-5.1176-3.8175-9.5018-5.8403-14.039 2.9868 1.9121 5.627 4.4696 7.8871 7.1937 2.0281-6.571 1.6254-14.053-0.21334-20.636-0.75204-2.9922-1.9988-5.8696-3.5735-8.5205-1.8148-2.7468-4.4722-5.0136-7.1551-6.8897-2.8642-1.7894-4.6602-5.3363-6.1683-8.2551 2.1321 0.7627 6.4484 4.3656 8.6605 4.6162-0.27468-2.0094-2.4121-7.4697-3.9149-9.0018-1.7468-1.8268-3.0108-3.5975-4.1336-5.8697 1.8628 0.5867 6.5857 3.7095 8.5471 3.8562 0.33069-6.427-7.027-8.7765-8.5671-14.994 1.5881 0.89205 5.2483 3.4455 7.067 3.8362-0.0533-3.6829-3.8909-8.0564-5.2336-11.374 0.92805 0.54403 4.6002 2.9015 5.443 3.5682 1.5201-4.7456-3.4709-10.494-4.2949-15.085-0.86672-4.9656-2.1815-9.8032-3.4829-14.663-1.9974 0.95872-3.4695 2.3388-5.663 2.9068-2.5535 0.67737-5.3456 0.6347-7.9538 0.36669-1.3014-0.26268-3.0295-0.32402-3.5869-1.7721 3.4282 0.48936 6.7204 0.5867 10.021-0.6107 4.0989-1.6854 7.5791-4.5002 10.341-7.9378 2.1561-2.5895 2.0161-6.8937 1.7534-10.058-0.53203-5.7896-4.9176-9.8939-10.081-11.965-5.7843-2.2655-12.467-0.76404-16.97 3.4562-2.2001 2.1735-4.3202 4.4069-6.6244 6.4724a26.227 26.22 0 0 0-1.3707-0.97605c1.8321-3.1375 4.5856-5.299 6.511-8.4818-0.94672-0.81338-1.8988-1.7294-2.9495-2.4001-9.9392-5.7603-21.344-8.8872-32.852-8.6431h-1e-3zm-1.0521 13.861c4.4456-0.088 14.395 2.3241 15.067 4.6936-1.6628 0.04934-3.5269-0.30402-5.1456 0.10401-1.1481 0.68404-0.97605 2.1254-1.068 3.2735 0.0493 2.4068-1.1361 5.0989-2.8895 6.7364-2.1748 2.1681-5.7483 2.1254-8.5285 1.4667 1.8201-1.0761 3.5549-1.6801 4.3122-3.8549 0.79471-2.4975-0.53336-6.2523-2.0108-8.4871-4.1616-5.1243-10.762 4.2216-14.318 6.1923-2.1014 1.8201-4.0322 3.4135-6.9337 3.6469-1.9361 0.20001-3.5042-0.28802-3.6269-2.5295 5.5203 0.71471 9.2072-0.71604 12.505-5.2656 2.9335-3.3522 7.5151-5.2403 11.827-5.923 0.24267-0.02933 0.51469-0.04667 0.81071-0.052zm51.94 2.4641c2.4228 0.11601 4.3962 1.1654 4.8136 3.0362-2.6148-0.15201-5.5963-0.98405-8.0951-0.16001-4.6803 1.5441-9.0272 7.1337-10.121 8.5805a28.856 28.848 0 0 0-1.8508-2.5068c2.2361-2.3001 5.423-4.4429 7.7498-6.379 2.2108-1.8668 5.0803-2.6855 7.5031-2.5708zm-58.721 5.903c1.2041-0.04267 1.9974 1.9174 0.51337 2.1281-1.2534-0.07334-2.0774-1.0987-0.89872-2.0454a1.1547 1.1547 0 0 1 0.38669-0.08267zm-3.8629 4.1202c0.15734-4e-3 0.33602 0.0067 0.53336 0.036 1.2294 1.4774 1.9494 3.5175 2.6468 5.307-1.7534-0.024-3.0855-2.0334-3.9829-3.3335-0.43469-1.1707-0.30135-1.9814 0.80271-2.0094zm-27.479 11.547c5.755 1.6801 11.411 2.5015 17.441 2.0588-2.4321 0.6267-12.741 2.9175-17.441-2.0574zm15.772 9.5112c5.3416 3.6575 7.8644 8.9632 10.281 14.687-11.014-0.64004-10.85 0.73337-15.868-0.44802 0 0-1.8721-2.5468-1.8068-5.1816 0 0 0.08-7.0764 1.0987-7.9191 1.5027-0.23735 6.295-1.1374 6.295-1.1374zm-12.307 0.08267c0.74671-0.01333 1.4494 0.15201 2.1868 0.64004 0.92805 2.1815 0.08 9.0245 0.08 9.0245s-4.2589-5.5203-3.7949-8.2804c0.084-0.50403 1.08-1.3761 1.5281-1.3854zm-7.7724 1.7721c0.30001 1.9934 0.48269 4.1056 0.56269 4.6896-0.84538-0.36669-2.2188-2.5641-3.1162-4.6083zm87.875 1.7801 5.995 2.0481-0.19201 1.6788-6.0603-2.2375zm-0.044 5.3243s3.5429 1.6628 5.603 3.0895l-0.63337 2.0668-5.2403-3.5469zm-84.673 2.1028 1.6534 3.0908-3.5642 0.10667zm7.4804 2.1468c0.52536 2.5881 2.9415 6.6964 3.0455 9.3205-0.90405 1.0454-3.2775 1.5161-3.6562 0.36135-0.50136-1.7094-0.32935-6.3243-0.19601-8.0884 0.17734-0.61737 0.0187-1.4601 0.80671-1.5948zm76.471 0.42136s3.0842 1.8961 4.7896 3.0615c-0.0373 0.36669-0.5107 1.0227-0.57203 1.3894-1.1734-0.5867-4.7976-3.0442-4.7976-3.0442zm-0.60403 4.0469s0.83738 0.54536 4.1562 4.0669l-0.72004 1.5107-4.7243-4.4522zm-54.655 0.96939 0.0493 0.16001 0.0493 0.15201c0.36669 1.4534 1.0987 2.7361 0.32269 4.1896-0.79338 2.0401-3.2975 2.6935-5.259 2.8628-3.4695 0.08667-6.9337 0.044-10.403 0.14668l-5.3296 0.58936c3.0668-1.9361 12.226-1.5961 15.714-1.7921 1.9428 0.104 3.6842-1.0374 4.5762-2.7228 0.22667-1.1601 0.23201-2.4001 0.28001-3.5855zm52.683 2.3308s3.4615 2.3508 4.3256 4.3229l-0.6907 0.78138c-1.5028-0.52003-4.2456-3.8202-4.2456-3.8202zm-2.2868 3.2748c1.4734 1.2081 2.6775 2.5721 3.7575 4.1656l-1.2187 1.4641s-3.1282-4.4136-3.2135-5.0616c0.06-0.30535 0.6747-0.56803 0.6747-0.56803zm-2.3468 3.0882c0.71604 1.4654 2.6055 4.8043 2.6055 4.8043s-0.51336 0.5467-0.98405 0.5347c-1.2334-1.2454-2.9868-4.4669-2.9868-4.4669s0.72004-0.68937 1.3667-0.87205zm-3.3015 2.2401 2.6641 4.6589s0.75338-0.39068-1.2081 0.86938c-0.94672-1.0707-2.5401-4.8349-2.5401-4.8349zm-3.1215 1.6881 0.98006 5.5243-1.7654 0.32135-0.52803-5.1856zm-128.89 148.02a1.0241 1.0241 0 0 1 0.56803 0.13068c1.5521 1.0814 2.7548 2.3641 4.5149 3.1895 2.7548 1.2401 5.931 1.5681 8.9072 1.0734 1.2814-0.22002 2.5708-0.42136 3.8722-0.50003-0.20801 1.1227-0.37869 1.5748-1.3734 2.1561-2.6708 1.6668-5.6083 1.4961-8.5338 0.66537-3.6055-0.66671-7.3551-1.8934-9.5605-5.0269 0.44669-0.5547 0.86538-1.6188 1.6054-1.6881zm96.624 182.01a22.86 22.855 0 0 1 2.8602 0.0213h1e-3c2.5201 0.17868 4.9509 0.79604 7.1151 1.9241 1.2334 0.72004 2.8148 1.4894 3.6162 2.7055 0.46403 1.1294 0.29335 1.8521-0.99605 2.3468-2.0961 0.32935-3.9776-1.9041-5.9443-2.5588-4.0749-1.4774-8.8392-1.4214-13.03-0.47469-4.3189 1.5014-7.7391 5.5736-10.799 8.7805-13.11 15.476-36.135 17.436-42.652 11.303-5.1309-4.9709-5.259-5.303-4.6376-7.4804 4.5389 1.7961 6.5737 6.023 11.485 7.1644 4.6309 1.4401 9.0605 0.024 13.739-0.7387 4.8749-0.87339 8.7792-3.3655 12.767-6.1457 3.2442-2.6015 6.1817-5.6136 9.0845-8.5805 3.7935-4.7016 10.667-7.8991 17.39-8.2671z"/>
<path d="m300.45 16.288a21.229 21.224 0 0 0-2.1961 0.16268c4.0216 1.0067 8.3711 6.8084 8.7991 9.6112 0.12801 1.6134 0.22668 3.3602-0.15334 4.9403-0.72004 2.0948-2.2348 3.0668-4.0856 4.0669-1.1174 0.46536-0.85472 1.7601-0.52537 2.6695 0.88005 1.6428 2.9068 2.5335 3.9896 4.0856 1.1601 1.6921 2.1868 3.4082 3.6882 4.8429 0.33069 0.53203 1.2094 0.60537 1.2041-0.16401 0.29868-6.3403 2.6935-11.342 2.0534-17.454-0.16-2.6575-2.4015-7.8351-4.1802-9.7405-1.4854-1.3201-3.8269-3.1148-8.5925-3.0202zm179.08 9.3098c-5.5963 0.70937-11.209 2.0468-17.012 1.9308-4.2576 0.08534-8.7311-0.24401-12.841 0.61603-5.071 0.91605-8.9872 3.5549-13.313 6.0897 0.0747 1.7521 1.4614 2.1001 2.6268 3.1015 2.0654 1.4721 4.3936 3.5482 7.027 3.7202 2.4241 0.15868 4.9709 0.10934 7.3351-0.53203 5.987-1.6668 11.681-3.9015 16.793-7.4991 3.2628-2.2721 6.5604-4.6229 9.3832-7.4271zm-76.88 1.3681c-2.0348 0.02533-3.8802-0.14001-5.803 0.63603-5.6576 1.3494-6.4537 6.1697-8.8525 10.565 0 0-9.7365 2.6695-14.666 3.4269-3.4455 0.048-6.7564 0.51736-10.415-0.104-3.6589-0.62137-7.4897-1.7534-11.503-1.0574-1.0134 0.28802-1.0014 0.87338-1.0081 1.7961 0.86672 0.75738 4.3149 0.68004 5.3443 0.90005 2.8362 0.60137 2.7241 0.6627 5.5043 0.86938-1.0627 3.2855-4.0976 3.6962-5.5643 6.891a80.164 80.164 0 0 0-1.1067-1.3374c0.16667-1.8134 2.0148-2.6428 2.9682-4.1202-1.5521-0.33068-3.7242-0.73604-5.307-0.82671-0.25601 2.2655-0.16401 4.2802 1.3627 6.0937 3.9949 4.2936 8.8458 6.059 13.897 8.6005 5.187 2.8575 10.629 5.551 15.425 9.0258 3.3415 2.5161 6.5124 4.7029 8.5578 8.4698 1.7841 2.7548 2.7002 5.9257 0.99072 8.9725-2.5295 0.04267-4.8749-0.62937-7.3257-1.1174-4.9296-0.70804-10.001-0.24535-14.667 1.5508 0.0493 0.60403 0.0933 1.2094 0.14134 1.8134 1.9241 0.12801 3.8375 0.024 5.7616-0.03733 3.0362-0.10934 5.7976 0.89738 8.6311 1.8508 3.8002 1.2027 7.0684 3.3162 10.997 4.1896 4.1229 0.87338 8.4538 1.7601 12.662 1.1361 1.7908-0.41469 3.5309-0.94005 5.3696-1.1361 1.7174-1.1961 1.7174-3.8469 3.5869-4.5376 0.24935 1.1921 0.44536 2.3828 0.5867 3.5855 1.4587-0.24401 3.6162 0.46403 4.1656-1.3801 0.33601-2.1628-0.0547-4.3789 0.27468-6.5604 1.4387 0.20268 1.8001 2.0001 2.2534 3.3255l-0.19334 1.8734c-0.42269 1.4561-0.76004 3.1295-1.6134 4.3962-0.52003 0.81338-1.8268 0.94138-2.6828 1.2041-1.4961 0.31735-2.8535 0.98272-4.3122 1.4107-4.0749 0.84271-8.2351 0.90938-12.31 1.4947 0.26268 1.1667 0.70937 1.8641 1.4974 2.7001 5.4243 5.7043 12.303 10.998 19.878 13.405 3.0228 0.75738 5.8336 1.5508 8.9792 1.1601 2.4255-3.2802 4.1789-6.8937 5.755-10.638 3.5602-8.5925 6.103-17.705 7.1164-26.963 0.72004-4.0669 0.43469-8.3058 0.48936-12.526-2.6575-2.0148-5.755-2.4495-8.5165-4.2629-1.8014-1.1787-3.4882-2.6001-4.8496-4.2749-0.68404-0.74537-0.59203-1.5868-0.80538-2.5281 1.0747-0.37335 1.6428-0.52003 2.6748 0.08534 4.8803 2.6321 9.7245 5.5203 14.813 7.7378 5.9016 1.9241 11.734 4.5376 17.801 5.8697 7.8871 1.5508 15.462 2.7468 23.544 2.1254 0.80005-0.08534 0.80005-1.3934 0.17735-1.7414-2.3095-2.0268-4.4242-4.2256-6.8977-6.0643-4.7523-3.9509-9.4498-7.8538-14.899-10.846-5.303-3.2668-12.321-3.9749-18.424-3.8042-3.2668 0.07334-6.567-0.19601-9.8165 0.09067 2.9735 1.5694 6.1937 2.2775 9.5285 2.5601 6.635 1.1534 12.779 1.6534 18.93 4.6403 4.5029 2.0401 7.6004 5.3616 11.534 8.2018 0.0547 0.39069 0.10401 0.78271 0.16001 1.1734-3.9709 0.93338-7.9471 1.4961-12.017 0.90405-5.2296-0.81338-10.471-2.5281-15.534-4.1229-6.311-2.6375-13.085-5.887-18.057-10.662-1.8081-1.7468-4.0442-2.8588-5.9443-4.5069 0-1.3867 0.78805-2.6081 2.2855-2.4988 1.9241 0.50003 3.6895 1.6868 5.5163 2.4855 0.56803-0.42669 1.1414-0.85471 1.7094-1.2827-1.4161-3.6095-5.0629-7.3684-8.7431-9.6872-8.5405-5.379-17.128-8.6418-29.034-8.5911zm-110.33 1.6668c-1.9108-0.12401-3.9496 0.33068-5.7296 0.93472 1.9241 0.49469 3.6469 0.85605 4.9349 2.5228 1.6374 2.8402 1.0401 6.247 1.6188 9.2272 1.0027 2.4068 2.8962 4.5256 4.8083 6.2537a64.195 64.195 0 0 1 4.3376 0.06134c0.0733 1.7841-0.45736 3.4269-0.65337 5.1736 0.61736 1.4774 1.4788 2.8335 3.2748 2.8082 1.3494 0.01333 2.1441 0.89872 2.6762 2.0534 0.43336 2.8935-0.76404 5.7336-0.38669 8.5738 0.5747 1.5868 1.7241 2.5708 2.9815 3.6095 0.0373 0.82404 0.0733 1.6481 0.104 2.4801-1.4107-0.12401-3.3415 0.18134-4.4709-0.81338-1.9241-1.4107-2.8708-3.3602-3.2868-5.667-0.96539 0.39602-1.7601 0.85338-2.2721 1.8068-1.4294 2.3268-1.1374 5.7656-1.5281 8.4271-0.42669 3.1202 0.22668 6.0643 0.28802 9.1672-0.0307 4.6789 0.6707 9.3605 1.2214 14.003 0.77604 4.2629 0.87338 8.5805 1.4787 12.874 0.98939 6.4737 0.0973 12.959 1.0201 19.476 0.14667 5.0869 0.67203 10.199 1.5081 15.219 0.5507 2.1134 1.3934 4.2389 2.6708 6.015 2.1441 2.8948 4.2696 5.747 7.0497 8.0738 0.88538-2.8215 1.3427-5.7523 2.4361-8.4818 2.0828-5.5643 5.9323-9.8939 10.349-13.741 0.98406-0.64803-0.0547-2.0534-0.46402-2.7548-3.2935-4.9536-5.3816-10.346-7.5564-15.848-2.2055-6.8337-4.3442-13.637-5.443-20.758-1.4974-9.6672-1.7841-19.634-0.6907-29.356 0.29335-3.5295 1.4534-7.4751 0.99605-10.987-0.44669-1.9841-1.1734-4.2202-2.0281-6.0523-1.1547-1.4281-3.0548-2.2775-4.4416-3.4989-1.3561-1.2334-3.5495-1.9468-4.2696-3.6455-1.0334-2.1254-2.6828-3.7869-3.8495-5.8136-1.7334-2.8402 0.69737-6.4003-1.7108-8.8005-1.2761-1.7134-3.0615-2.4175-4.9736-2.5415zm110.94 4.9163c4.4282-0.04267 8.3564 2.4681 11.246 5.6443 2.4135 2.8028 4.9309 6.6017 5.0336 10.407-3.0482 0.56803-4.8083-0.97872-7.3737-2.1388-0.38935 1.2467-0.70137 2.5601-1.2761 3.7322-0.98939 1.6601-2.6628 2.7468-4.5442 3.1148-3.8189 0.5547-7.5938 0.5187-10.911-1.6934-2.1254-1.1227-2.6201-3.0775-4.0936-4.7443-0.81204-0.36002-1.6801-0.5987-2.5281-0.87338l0.0173-1.2214c1.3507-0.6467 2.6268-1.3254 3.6722-2.4241 3.1468-3.3228 8.3084-4.3002 12.663-3.3602 3.4709 0.80671 5.787 3.0175 8.9498 4.3869-1.6374-2.0708-3.4695-4.3362-5.687-5.7963-3.8309-2.1561-8.5338-2.5161-12.414-0.26268-1.7281 1.0134-3.5429 1.3561-5.4123 0.46536 1.3934-1.7041 2.7001-3.6469 4.3989-5.0576 2.7068-0.27468 5.523-0.09067 8.2591-0.17601zm-117.21 9.3498c-1.4521 0.02667-4.4789 0.40402-5.451 2.9762 2.2108-0.08534 5.4136-0.70937 7.1724 0.92138 2.2481 2.3148 3.1948 6.0777 3.8669 9.1485 0.78138 3.9029 4.6309 7.011 8.7045 5.7163 1.2894-1.1174 1.6934-3.3949 0.74004-4.8603-0.64804-1.1001-1.2467-2.5961-2.5175-3.0602-1.3201-0.67204-2.9868-1.0507-4.1176-2.0094-1.4161-3.7135-4.2136-6.7977-7.6044-8.8138 0 0-0.30935-0.02667-0.79338-0.01867zm159.44 9.7205c1.2947 1.6841 2.9562 2.9242 4.7336 4.0589 8.2964 4.9229 17.833 7.5071 27.503 6.9377-1.8028-1.3427-3.4708-2.8442-5.2843-4.1576-4.0442-2.7068-8.7671-4.7883-13.587-5.5763-4.4829-0.15868-8.9178-0.7027-13.365-1.2641zm-184.38 1.1107c0.96005 1.8001 2.3948 3.6322 2.9682 5.5803 0.30002 1.6921 0.29335 3.4629 0.24401 5.1736-0.0533 2.3748-1.1841 4.3656-1.4041 6.6804 0.78137 1.0694 1.9601 1.8881 2.6081 3.0295 0.12134 2.2041 0.59203 4.2016-1.5708 5.5643-2.6868-1.5761-2.4668-5.2776-4.1469-7.9151-4.0362-6.2203-10.521-9.2712-16.782-5.719 3.0602 0.66004 6.463 1.8041 8.2898 4.3016 1.3681 1.7708 2.2415 3.8162 3.5069 5.6736 1.0254 1.4774 1.1654 3.1575 2.0028 4.7016 0.91071 1.3067 2.1321 2.4201 3.2375 3.5615-0.15868 0.66004-0.14668 1.2521-0.68404 1.7401-0.93339 0.16534-1.3801-0.40802-2.0894-0.89072-2.7668-2.0094-2.5655-5.3363-5.4056-7.2777-1.0534-0.85071-13.907-1.6841-14.638 4.0789 7.8844-0.83204 16.704 1.5828 16.77 11.194-0.0853 0.78671-3.6855 1.3761-4.5656 1.7494-5.1123 2.1708-4.8656 3.1668-3.0575 9.8552 0.73071-0.16001 0.93472-4.0349 2.5988-4.6722 2.6001-0.99472 6.935-0.02 7.8938 2.7228 1.1867 3.2855 1.008 6.7724 3.4588 9.8379 2.6575 2.9015 5.5336 5.5203 7.2751 9.1418 2.9068 5.8576 5.9256 11.654 8.8338 17.509 4.8189 10.157 10.086 20.092 15.119 30.122 5.4056 10.937 9.6272 22.632 16.006 32.782 2.3695 3.2988 4.8069 6.5897 7.5738 9.5698 2.8962 3.2562 5.1603 6.4937 8.8938 8.9298 1.0401 0.63604 2.5908 0.5627 3.7269 0.26935 3.3468-1.8801 5.143-5.655 8.5578-7.1871 4.2216-1.8881 9.2858-2.5175 13.825-3.3655 3.3468-0.66671 6.8057-0.57337 10.209-0.46403-0.14668 1.2574-0.0547 2.0401-1.1854 2.7788-3.6655 2.6561-8.0204 2.7295-11.974 4.0482l0.0253 0.75071c4.4776 4.6536 9.8352 6.6644 15.382 9.6325 5.3816 2.5708 11.131 4.5922 16.121 7.8284 2.5975 1.7228 4.8083 4.1589 6.8497 6.499 3.2308 4.3536 6.6404 8.5498 9.5725 13.123 3.0175 4.0189 5.8096 8.3805 7.6298 13.094 0.52003 2.8215 0.60403 5.7776 0.70804 8.6405 0.0493 3.1642 1.2041 6.419 1.9734 9.4912 0.95338 3.0042 1.8628 6.1617 3.3468 8.9405 3.7895-4.8936 3.4868-12.459 5.755-17.908 0 0 1.3814 6.3203 1.2907 9.5232-0.12667 4.4829-0.75871 8.7698-2.5601 13.209-2.4988 5.4723-6.391 9.7912-9.2978 14.854-1.9681 3.6749-3.4215 7.6018-4.1909 11.706-2.2801 8.5871-3.7695 17.632-3.5495 26.529 0.5187 8.6725 3.9882 17.588 7.067 25.655 1.6441 4.5816 3.5629 8.9605 5.6816 13.346 4.1789 8.6538 6.787 17.881 8.2471 27.36 1.4174 6.5164 1.1121 13.058 0.90405 19.752-0.0307 3.2308-0.96539 6.1123-1.5148 9.2698-0.98939 4.5202-1.9428 9.2832-3.9215 13.454-2.0534 4.5616-4.6856 8.6405-7.4351 12.806-2.6508 3.8602-5.535 7.5177-9.3165 10.327-2.4935 2.0828-6.0537 2.9255-9.2192 3.2428-3.1642 0.36002-6.1737-1.2881-8.0751-3.7442-4.0949-5.287-6.7604-11.427-14.533-10.406-2.3641 0.0547-9.8885 2.9282-10.622 8.3965 0 0 10.107-5.3736 12.863-3.4562 2.1748 1.7401 2.2001 4.5869 2.4375 7.1337 0.26268 3.1522-0.10401 6.211-0.75738 9.2898-2.2174 1.5134-4.4776 0.62937-6.9764 0.62937-3.0122-0.4467-6.0603 2.1561-7.4044 4.6536-1.1734 1.9348-0.83071 3.8042-0.77471 5.9537 0.31068-0.0427 0.62937-0.092 0.94139-0.13334 1.6134-2.1748 3.7135-4.1416 6.6444-3.6709 2.3161 0.29868 3.2628 1.9961 4.9176 3.3215 1.8028-0.34136 3.0535-2.9122 4.8016-3.7429 2.1508-1.6001 4.9243 0.53736 7.3071 0.45202 1.7334-0.84938 2.6695-2.1068 4.8069-1.8748-0.74537 1.7214-1.3494 4.3722-3.0668 5.331-2.3015 0.93338-4.1536 0.20268-6.0777-1.1294-2.9935 2.7242-4.8256 6.7484-4.5562 10.846-0.0493 2.4668 0.45736 5.0456 3.0908 5.931 0.28002-2.4495-0.0987-5.1483 1.4961-7.2191 1.4174-1.9734 3.4695-2.6135 5.7003-3.2548 2.3081-0.55603 4.7829 0.73871 7.2271 0.67204 2.5775 0 4.8003 0.46936 6.267-2.1321 0.54936-2.5948-0.0853-5.503 0.20801-8.1338 1.3614-3.0535 5.247-4.1416 8.1858-2.7922 2.0948 0.96005 3.8175 2.4001 5.5336 3.9029 3.0002-2.0214 2.8962-4.8869 3.8189-8.0311 1.2161-4.7643 4.2762-7.8791 6.5857-12.514 3.0295-5.8136 6.4684-11.305 10.066-16.782 2.6815-4.5616 6.011-8.5991 9.0952-12.881 2.8228-4.1096 6.195-7.7244 8.9925-11.834 1.1121-1.5468 0.89338-3.1335 0.87338-4.9336-0.06-4.3376-2.1494-8.4404-3.1815-12.826-3.0922-9.2338-5.0643-19.585-3.6589-29.302 0.0907-4.1336 0.94005-8.1404 1.4534-12.231 1.5628-9.9125 4.7469-19.341 6.1377-29.314 1.3507-6.0643 1.6254-12.154 2.1454-18.316 0.048-2.8042-0.17201-5.699 0.20668-8.4765 0.18401-0.87338 1.3067-0.96538 2.0348-0.94671 0.78671-0.0613 1.4908 0.80004 2.1201 1.1961 2.3281 1.7708 4.9416 3.3415 7.7031 4.3242 4.1482 1.0694 8.5031 1.5201 12.774 0.97205 3.1335-0.48269 6.0777-2.4561 8.2644-4.6789 3.1402-3.4202 4.8323-8.4951 6.2443-12.831 1.4468-4.2202 1.8668-8.6791 2.2094-13.149 0.0547-5.619 0.61737-11.018-0.6827-16.41-1.0694-4.5376-2.2668-9.0698-3.8615-13.454-2.0094-6.0043-2.9068-12.361-4.7029-18.432-1.8014-5.0323-3.1028-10.201-5.0269-15.189-1.8881-5.8016-3.5495-11.617-6.0057-17.222-3.8535-10.474-6.763-21.002-5.6936-32.282 1.8334-12.819 5.723-25.869 12.535-36.954 1.3134-2.3335 3.1948-4.0002 3.2202-6.791-0.68537 0.0667-1.7228-0.15334-2.2361 0.36535-3.2628 2.7908-5.431 6.2723-7.9791 9.7659-1.8388 2.9255-3.1695 6.1737-4.7469 9.2525-3.8602 9.3312-6.463 19.188-7.3604 29.259-0.56803 2.9188 0.15201 5.6243 0.15201 8.5431-0.012 3.4389 1.1921 6.9377 1.8628 10.377 3.5495 16.294 11.418 30.004 15.816 45.792 1.8148 5.3683 3.3908 10.883 4.2336 16.489 0.27602 2.4308 0.24668 4.8723 0.62537 7.3031 0.32269 4.4709-0.0733 9.0018 0.34135 13.478 0.26268 2.7068 1.1187 5.1976 1.1734 7.9338 0.0733 3.9696 0.37869 7.8111-0.98939 11.597-1.5468 4.8736-6.5684 8.4405-11.675 8.3071-3.6229-0.0747-7.147-0.89872-10.111-3.0602-3.2428-2.6135-6.059-5.7963-8.6498-9.0392-1.9121-3.7202-3.6962-7.4271-4.5749-11.542-0.99072-4.3429-1.6201-8.7391-2.3095-13.137-0.5867-3.7069-2.2428-6.991-3.1282-10.607-1.2587-5.5816-3.0122-11.041-4.5082-16.561-1.3441-5.3696-3.3722-10.523-4.9736-15.825-1.8441-6.5284-4.1536-12.947-6.187-19.397-3.8802-10.094-6.8177-20.458-11.247-30.407-2.7242-5.691-4.9776-11.377-8.3071-16.813-2.3215-3.2002-4.4722-6.4977-6.9284-9.6045-0.39068-0.70937-1.5334-1.6934-1.2881-2.5415 2.1921-2.1374 4.8376-3.7802 7.0857-5.875 3.3655-2.8455 5.7736-6.375 8.5778-9.7219 1.8934-2.4801 4.5816-5.259 5.1256-8.3911-5.883-3.0295-12.433-5.491-17.948-9.1858-2.3281-1.5028-4.7963-2.9735-6.9284-4.7509-3.7749-3.1695-6.939-7.2377-9.7192-11.287-1.2761 0.0853-2.4855 0.25735-3.6829 0.73337-3.8669 1.4108-7.7831 2.8882-11.406 4.8496-5.2963 3.2295-10.337 6.4297-14.49 11.121-3.0908 3.3335-5.6803 6.9617-6.9817 11.378 2.7362 0.58003 5.0336-0.28802 7.7338-0.47736 2.9082-0.16401 5.3696-1.1054 8.2351 0.0613-0.0307 1.1974 0.25602 1.9174-0.96538 2.6015-3.4082 2.0468-8.2524 2.2228-12.143 2.7308-6.7924 0.46403-12.462 3.2722-18.284 6.5404-4.5442 2.9068-8.0938 7.1097-9.4325 12.411-0.14001 1.1654-0.46403 2.8575 0.34268 3.8349a31.018 31.018 0 0 0 5.4243 6.2217c0.88671 0.81337 1.9188 0.58003 2.6148-0.33602 4.2709-5.0563 11.155-8.4031 17.838-7.2057 0.83071 0.0667 0.57337 1.4841-0.0173 1.8068-3.5255 2.6135-8.0458 2.4561-11.449 5.643 4.3496-0.67737 9.5712-1.5708 13.866 7e-3 1.2707 0.52003 1.2334 1.0321 1.3561 2.2721-0.69071 0.39736-1.4228 1.1601-2.2535 1.1174-3.2082 0.16534-6.6217-0.24402-9.8045 0.24534-2.9628 0.61604-5.8817 2.3628-8.4965 3.8282-1.1361 0.67204-2.7868 0.51336-4.0322 0.24401-1.5148-1.0134-2.6935-2.6255-3.8736-4.0056-2.8708-3.6269-6.0843-6.9257-9.1565-10.377-3.0602-3.6095-6.2803-7.0897-9.3285-10.706-3.5669-4.7576-7.3137-9.4352-10.582-14.401-2.2841-4.2749-4.8323-8.3911-7.2697-12.581-1.6801-3.4562-4.0376-6.4804-5.675-9.9539-2.1695-4.6669-4.7589-9.0392-6.5977-13.857-0.91071-2.4068-2.1748-4.6176-3.3908-6.871-1.0134-1.8868 0.22001-3.4869 0.29335-5.435 0.12268-3.0468-1.0134-6.0643-1.1361-9.1605-0.25068-5.5083-0.0133-10.993-0.0493-16.501 0.0307-2.2961 0.82538-4.3909 0.57337-6.7244-5e-3 -1.6121-1.1841-3.1868-2.0334-4.4882-1.7334-2.6455-4.8003-4.3909-7.8431-5.0456zm76.672 14.093-0.65604 8e-3 1.9668 5.2523c4.3202 8.2071 13.254 9.7952 14.955 9.9725l0.0733 0.032c4.9603 0.17334 9.9285 0.6707 14.527-1.5361l1.5281-0.35869c0.0307-0.0013 0.0533 0.0093 0.084 0.0067a42.256 42.256 0 0 1 10.385-0.5067c3.0668 0.26268 6.011 1.1414 9.0965 1.3001-0.60536-1.7894-1.7894-3.1015-2.9735-4.5189l-0.55737 1.2334c-1.9481 0.47069-4.1909 0.16001-6.1817 0.07334-2.6508-0.18934-5.291 0.0067-7.9418-0.0053-1.9481 0.012-3.8909-0.81871-5.815-1.2894-3.3548-0.83605-6.4457-2.2961-9.3605-4.1336-2.7295 0.5427-5.863 1.1467-8.5458 0.18268-3.5442-1.4814-7.6764-3.0508-10.586-5.7123zm90.277 11.41c4.1642 1.6961 2.9042 6.987 2.2361 10.381-0.31335 1.4467-1.3387 1.9854-2.4455 2.7161 0.0707-1.2067 0.0987-1.6361 0.144-2.3601 0.0147 0.0013 0.0267 0.0093 0.04 0.01333 0.72137-1.7414 0.64803-3.5069 0.57469-5.351-0.0907-1.9121-1.056-3.4389-0.54936-5.4003zm-82.519 55.062c-6.7684 3.1028-13.141 5.4963-18.565 10.889-1.8321 2.0468-3.8855 4.1296-5.1136 6.5604-1.5201 2.8935-3.4695 5.867-3.1762 9.2752 1.4787-1.7348 2.4495-3.7802 3.9829-5.479a36.646 36.646 0 0 1 11.045-8.3845c2.1201-1.0387 4.4722-1.7161 6.5124-2.8948 0.5867-0.29335 0.85072-1.1294 1.1561-1.6734a122.19 122.19 0 0 1 4.1602-8.2938zm49.635 131.85c-0.57337 1.9361-1.4841 3.9682-1.5334 6.0083-0.0427 1.0867 0.69604 1.8988 1.2401 2.7775 0.96005 1.3254 1.6308 2.6455 3.0802 3.5002 0.10934-3.5295 0.40268-6.9737-1.0934-10.259-0.37335-0.73338-0.77071-1.8868-1.6934-2.0268zm3.3122 20.158c-2.3801 0.0133-2.4255 2.5335-2.0041 4.3736 1.1361 3.0708 3.0775 5.8936 4.3242 8.9405 0.82538 1.8694 1.1734 3.7562 2.2121 5.5336 0.85472-1.7894 2.2041-3.2242 1.5028-5.3136-1.3334-4.6723-3.1042-9.4592-5.7976-13.527a3.6615 3.6602 0 0 0-0.23734-7e-3zm-6.7444 10.415c-2.7202-0.0733-5.2936 0.72004-8.0404 0.6507-7.7631 0.0373-15.492 0.19601-23.208 1.1121-8.2724 0.81338-16.402 3.6162-23.923 7.0671-7.9844 4.3229-16.109 9.5338-22.169 16.38-5.3336 6.351-9.2072 14.261-10.417 22.493-0.29868 3.5349-0.18934 7.2537 0.10401 10.785 1.6068 6.699 3.7935 13.321 7.067 19.402 2.1201 3.4868 4.2096 7.1084 6.843 10.23a70.777 70.777 0 0 0 7.2884 6.7737c2.8095 2.1481 4.7029 5.587 6.7137 8.5298 2.8948 4.8003 6.219 10.961 5.4176 16.744-0.70804 4.1229-1.7534 8.2698-3.2255 12.19-1.5028 4.0002-2.4921 7.8604-5.1496 11.323-3.1522 4.8989-6.915 9.3072-11.393 13.046-2.0894 1.6188-4.6976 2.6935-7.2391 3.3522-2.8828 0.48936-6.1523-1.4161-8.8885-2.2108-4.8509-1.1787-10.318 1.2894-13.733 4.6669 3.1522 0.22001 6.079-0.45869 8.8578 1.3374 1.7041 0.93339 2.2535 2.4601 3.3535 3.9269 1.4534 1.5694 3.6589 0.16401 5.1483 2.0641 0.0493 1.5868-2.5695 2.7295-3.8896 2.9562-3.6282 0.56003-7.7204 2.6615-9.1632 6.2283 3.2375-1.7214 6.9937-1.6481 10.451-0.68937 1.5148 0.57336 3.2868-1.0014 4.6603-1.5641 2.2975-1.2881 4.6002-1.008 7.0497-1.5148 1.9734-2.4535 3.9229-4.5256 7.1311-5.2456 1.9241-0.41469 2.1734 2.0534 1 3.0108-2.2534 2.1201-4.4949 4.1776-6.3403 6.6884-1.6854 0.0427-3.4028-0.056-5.0763 0.15201-1.7841 0.52536-3.4935 1.4054-5.0763 2.3761-1.6494 1.0681-2.5295 2.6802-3.4762 4.3362 3.0535-0.22001 5.6696-1.3201 8.5831-0.52536 2.4935 0.5987 4.5016 1.6734 7.0484 0.44002 3.4695-1.6134 4.5696-6.5897 7.6738-8.9112 1.6361-0.88538 3.4749-1.3374 5.0936-2.3028 1.8268-1.0321 3.1962-2.9308 4.5469-4.5189 4.4709-5.4963 6.467-11.531 9.8645-17.632 2.1254-3.8469 4.3069-7.6458 6.0843-11.677 3.8429-8.7872 7.8138-17.4 11.381-26.297 0.79471-2.3641 1.2654-4.8189 2.0468-7.1871 1.2161-3.7015 1.3814-8.2164-0.36002-11.782-1.6734-2.8162-4.9363-4.8123-7.6298-6.523-3.3908-2.1921-5.7603-5.827-6.335-9.8325-0.97738-4.2509-0.86271-8.5005-0.75871-12.83 0.12801-3.8655 1.4721-7.2311 3.0855-10.681 3.5308-8.4711 10.583-16.692 17.957-21.968 7.8204-6.527 13.973-6.3323 23.147-9.8539 1.4041-3.7269 4.7803-8.4405 5.7336-10.23 0.93872-1.8801-4.2176-12.111-6.667-14.195a11.605 11.601 0 0 0-1.1721-0.0893zm-76.196 165.61c0.012 0.93339 0.0307 1.5934-0.74004 2.2588-1.8014 1.4534-3.8069 2.6628-5.6696 4.0429-1.2947-0.90938-2.0401-1.3734-1.4414-3.0842 1.9668-2.1988 5.0096-2.9735 7.8498-3.2175zm57.816 28.031c1.7134 0 3.2722 0.6507 5.2003 0.79338-0.0427 1.1307-0.0667 1.3441-1.0747 1.9548-1.4721 0.78671-3.1522 2.5281-4.8936 2.2775-1.4707-0.90272-0.90938-3.4189-0.72004-4.8483a6.1523 6.1497 0 0 1 1.4881-0.17734z" fill="#f00000"/>
<path d="m434.68 64.142c0.98406-0.036 1.8334-0.23735 2.5962 0.5267 1.9494 1.7041 3.9469 2.8695 4.9003 5.399-0.6667 0.95872-1.0694 1.4347-2.2121 1.7641-0.90405-2.9682-3.1202-4.4829-5.2656-6.4977a19.508 19.508 0 0 1-0.0187-1.1907zm-1.8694 7.2991c0.72137 0.07334 1.3814 0.28002 1.9868 0.60537 1.1721 1.2334 2.6668 2.3028 3.2735 3.8829 0.31201 0.81338 0.0827 2.6121 0.0827 2.6121-0.0547 1.3374-0.56537 1.6201-0.95072 2.9095-0.37869-0.06667-0.76271-0.14001-1.1467-0.21334-0.32002-3.6095-2.5481-6.383-3.2455-9.7965zm3.9776 11.073c-0.48936 1.4161-1.3681 3.7002-3.3055 2.9988-1.0014-0.31202-0.55603-2.2295-0.59204-3.0108 1.3014-0.10401 2.6028-0.07334 3.8976 0.012z" fill="#030202"/>
<path d="m94.946 82.966c0.6667 4.8003 8.6938 10.522 8.6938 10.522 4.6789 3.4442 10.666 3.0175 16.169 3.0668 3.0122-0.14134 9.1205-0.30668 9.1205-0.30668s0.12667-5.4096-0.31735-8.1698c-10.518 3.7682-19.872-6.439-30-6.411zm40.61 6.0723c1.2534 2.7788 1.7748 5.2936 1.7748 5.2936s8.9178 0.56803 11.869 0.25601c2.0708-0.6107 1.7961-3.3468 0.94139-4.8189z" fill="#f00000"/>
</g>
</svg>
