<?xml version="1.0" encoding="UTF-8"?>
<svg width="390.35" height="450.69" version="1.1" xmlns="http://www.w3.org/2000/svg">
 <path d="M195.88 441.69c112.1 0 186.68-93.061 186.68-188.09V8H9.21v245.6c0 95.029 74.58 188.09 186.68 188.09z" fill="#fff" fill-rule="evenodd" stroke="#000" stroke-width="7"/>
 <g stroke="#000" stroke-linecap="round" stroke-linejoin="round">
  <path d="m195.18 389.64a132.53 66.468 0 0 0-100.59 23.396c28.122 18.214 62.148 29.164 100.59 29.164 38.44 0 72.464-10.95 100.59-29.164a132.53 66.468 0 0 0-100.59-23.396z" fill="#094" fill-rule="evenodd" stroke-width="7"/>
  <path d="M174.88 411.69a62.11 62.11 0 0 1 3.334 18.5m10-.666c.225-3.752 2.999-8.778 5.833-13.834m-12 15.834c.794-7.265 2.152-13.12 3.833-18.167m-22-.333c5.032 5.991 8.599 10.427 9.833 21m-20.166-19c6.761 6.01 9.621 11.042 11 16" fill="none" stroke-width="2.5"/>
 </g>
 <g fill-rule="evenodd">
  <path d="M215.88 26.69c9.139 1.244 17.598 3.981 25.821 7.238.991.393 1.971-.128 2.122-1.183 3.786-26.464-31.008-26.357-29.042-7.152.06.538.563 1.024 1.099 1.097z"/>
  <path d="M182.88 68.69c-4.044.999-7.619 1.159-9.683-1.256-6.108-7.146-16.923-9.488-24.583-11.167-6.65-1.458-10.859-10.663-8.839-15.879.44-1.137.243-2.261-.965-2.468-9.577-1.635-9.944 13.571-5.924 18.193 10.782 12.398 37.717 16.91 47.626 21.794 5.37 3.409 12.463-9.222 2.368-9.217z" fill="#f00000" stroke="#000" stroke-linecap="round" stroke-linejoin="round" stroke-width=".5"/>
  <g fill="#fff" stroke="#000" stroke-linecap="round" stroke-linejoin="round" stroke-width=".667">
   <path d="M159.88 46.69c-5.252-.04-8.048 3.094-7.227 8.353 1.633-1.647 2.774-3.201 5.25-2.667 2.209.721 2.305 0 3.491-.07.702.792 1.854 2.342 3.926 1.151-.223.985-.583 2.632-.03 3.396.747.185 3.056-.139 3.913-.281l2.757 1.842c1.185 1.585 4.757 3.29 6.823 4.877.91-7.027-9.872-10.926-18.903-16.602z"/>
   <path d="M164.88 51.69c-5.252-.04-8.048 3.094-7.227 8.353 1.633-1.647 3.191-3.784 5.25-2.667.941.482 1.246-.218 1.417-1.166-.197.893-.304 1.817.157 2.93.702.792 3.771.509 5.843-.682-.223.985-.583 2.632-.03 3.396.747.185 3.056-.139 3.913-.281-.138.356-.836 1.717-.469 2.602 1.419.259 2.405-.431 3.226-.76.368 2.402 4.257 3.79 6.823 4.877.91-7.027-9.872-10.926-18.903-16.602zM158.88 70.69c-2.536 1.35-3.158 4.183-3.158 7.407 5.541 3.161 10.691 3.149 13.677-.06-1.656-1.264-2.839-2.891-9.144-2.887-1.378-.632-2.684-2.048-1.375-4.458z"/>
   <path d="M166.88 72.69c-2.536 1.35-3.158 4.183-3.158 7.407 5.541 3.161 10.691 3.149 13.677-.06-1.656-1.264-2.839-2.891-9.144-2.887-1.378-.632-2.684-2.048-1.375-4.458z"/>
  </g>
  <path d="M268.88 307.69c.359.399.36 1.04-.08 1.352a4.146 4.146 0 0 1-1.832.752c-.528.08-.795.425-.558.907.933 1.898 2.171 3.796 3.781 5.694.347.409.233.906-.297.986-.972.14-2.098-.03-3.33-.41-.514-.158-.718.07-.444.533 1.214 2.047 2.628 3.598 4.108 4.979.393.367.477 1.039.03 1.34-.29.197-.608.312-.96.322-.533.02-.982.269-.812.774.446 1.325 1.93 2.909 4.271 4.707.426.327.646 1.071.187 1.316-.394.215-.974.305-1.74.285-.537-.01-.892.355-.717.862.475 1.375 1.43 2.75 3.104 4.125.415.34.855 1.077.592 1.537-.301.527-.946.667-1.679.697-.539.02-.731.373-.469.841.644 1.151 1.167 2.272 3.399 3.821.441.306.481.823.01 1.09-.405.232-.9.392-1.665.322-.536-.05-.778.226-.546.71.697 1.458 1.564 2.916 3.718 4.374.444.301.865.958.785 1.489-.204 1.396-1.06 2.046-1.974 2.63-.452.29-.537.864-.115 1.193.916.716 2.201 1.284 3.574 1.816.501.194.671.718.279 1.083-.493.457-1.131.793-2.053.893-.528.06-.772.408-.468.851.875 1.274 2.207 2.423 4.475 3.317.5.197.717.72.397 1.151-.886 1.192-2.048 1.832-3.361 2.169-.524.133-.845.62-.584 1.088.799 1.432 2.404 2.204 4.558 2.526.531.08.606.37.267.784-.727.887-.963 2.085 0 4.042 1.768 4.001 1.953 7.915-1.037 11.651-.385.481-1.008 1.257-1.355 1.766-6.712 9.863-13.283 16.685-19.484 15.551-.688-.126-1.804-.453-2.47-.275-3.703.99-12.649 7.57-14.212 13.265-.175.637-.583.785-.997.27-1.733-2.152-2.796-4.526-3.465-7.032-.218-.817-.799-.97-1.287-.281-1.893 2.674-2.824 5.588-3.31 8.614-.152.949-.573 1.024-.934.132a25.726 25.726 0 0 1-1.887-10.944c.04-.887-.415-1.116-1.034-.479-1.608 1.655-3.146 3.591-4.6 5.861-.484.755-.973.666-1.096-.222-.325-2.355-.463-4.803.196-7.649.19-.821-.279-1.377-1.073-1.103-2.75.95-5.168 3.231-7.59 5.494-.717.671-1.161.425-.973-.539 1.403-7.16 3.331-13.767 9.803-15.577 4.147-1.762 8.187-3.739 12.021-6.128 3.748-3.829 6.094-3.739 8.504-3.819.642-.02 1.068-.583.988-1.219-.291-2.186-.32-4.113-.09-5.779.07-.472-.194-1.037-.604-1.278-13.6-7.969-19.668-22.14-23.547-38.114-.189-.778-.901-1.729-1.584-2.147-1.986-1.215-3.841-2.565-5.428-4.193-4.508-5.775 5.501.914 7.454-2.849-8.157-6.991-10.757-1.672-11.751-4.736-.469-2.436-1.066-6.924-.694-10.23.213-1.892.553-3.708.129-5.426-.214-.866-.689-2.222-.882-3.096-.943-4.286-3.211-7.62-6.766-10.196-.725-.525-1.45-.168-1.302.711.512 3.051 2.988 7.811 4.552 10.219.572.881 1.156 2.346 1.056 3.398-.62 6.761-2.961 12.749-8.508 15.147-2.085 3.437-4.868 6.209-7.816 9.022-.916.839-3.001.604-4.132-.482-1.054 2.136 1.239 2.922 1.104 3.378-2.526 2.462-5.044 5.123-7.233 8.406-2.048.788-2.706-.41-3.727-1.089 0 2.802.114 5.667.59 8.78-1.447.235-2.086-.499-2.77-1.179-.158 2.095-.239 4.241.53 6.954-1.021.555-2.043.114-3.064-.413.06 1.854.05 3.719 1.179 5.421-.838.145-1.63.473-2.77-.589.435 3.044.288 6.323-2.357 9.31-1.618 1.827-2.388 5.156-3.028 8.566-2.954 13.148-8.403 19.439-32.416 21.833-8.962.893-20.143-4.85-20.041 5.21 0 .529-.289.681-.666.31-3.227-3.173-3.456-6.884 0-11.256.416-.526.242-.863-.418-.744-8.501 1.531-9.525 6.539-10.657 11.498-.209.921-.571.919-.752 0-1.758-8.925-.153-16.52 15.561-18.53 1.178-.15 1.18-.328 0-.418-7.886-.6-16.197-.04-20.072 6.635-.38.655-.652.605-.622-.151.306-7.383 5.452-11.199 20.634-9.877.94.08.984-.104.1-.423-4.351-1.568-8.509-2.772-13.28-2.507-1.037.06-1.161-.274-.254-.782 5.778-3.238 10.8-3.899 14.391.333.136.16.411.298.62.318 2.018.191 4.315 1.413 5.293 3.995.173.458.716.722.894.292.447-1.081.02-3.449-.493-4.671-.166-.396-.1-.86.252-1.113 2.192-1.582 4.443-4.023 6.092-6.944.925-1.107 3.408-2.559 4.679-.66.662-.164.417-1.444.09-2.174-.1-.222-.411-.435-.649-.485-1.041-.231-2.154-.356-3.313-.406-.449-.02-.863-.386-.923-.832-3.416-26.757 14.677-48.525 12.942-62.36-1.184-9.441 2.035-14.523 7.084-18.75 2.445-2.047 4.322-4.514 5.5-7.166 1.145-2.579 2.951-4.486 4.25-6.584 4.832-7.805 4.936-15.12 4.732-22.085-.03-1.149-.363-1.197-.73-.107l-2.172 6.461c-.182.546-.514.56-.729.03-2.42-5.976-3.375-11.905-.486-17.714.446-.896.113-1.304-.736-.774-2.869 1.789-4.028 3.738-4.705 9.289-.199 0-.422-.392-.502-.872-1.919-13.991-16.585-30.763 13.578-34.83 3.238-.445 6.44-.91 9.378-1.512.681-.139 1.683.08 2.096.639.605.811 1.241 1.924 1.662 2.593.112.179.266.158.296-.05.147-1.08-.453-2.631-1.021-3.514-.114-.177-.06-.357.148-.407 1.596-.425 3.07-.913 4.374-1.487.942-.415 2.25-.236 3.062.396 1.455 1.133 3.056 1.942 4.225 1.972.564.01.982-.718.8-1.258-1.26-3.729-8.302-7.007-11.23-5.934-.531.195-1.187.894-1.632 1.254-2.409 1.95-4.861 2.439-10.575 2.824-15.787.954-20.993 4.553-21.736 9.269-.112.721-.102.725-.172 0-.256-2.714-1.098-4.307-2.053-5.683-.422-.608-.74-.485-.72.255.116 3.474-.328 5.955-1.095 7.868-.197.498-.573.492-.769 0-.567-1.418-1.113-2.87-2.955-2.284-3.172 1.473-6.372 2.792-9.866 2.5-.676-.06-1.29.39-1.566 1.008-1.765 3.946-8.637 3.895-14.901 6.575-19.43 7.277-38.231 8.851-55.184-6.368-.785-.704-1.713-.5-2.207.431-1.71 3.221-3.997 5.169-6.261 7.171-1.181 1.043-1.493.808-.763-.588 2.962-5.662 5.424-11.112 3.574-14.733-.3-.588-1.048-.627-1.506-.151-2.539 2.637-4.907 6.042-7.167 9.931-.603 1.037-1.013.916-1.093-.28-.665-3.566-.237-8.22 7.023-14.163.684-1.781 1.883-4.886.25-5.25-4.852-.706-8.252 2.8-11.263 7.429-.706 1.084-1.2.94-1.074-.347.698-7.161 3.405-12.897 14.508-12.674 1.058.02 1.772-.77 1.325-1.725-1.898-4.062-6.696-3.843-11.325-3.873-1.291 0-1.401-.531-.218-1.047 6.288-2.745 12.817-3.743 20.373 2.702 1.004.857 2.007.529 1.741-.755-.562-2.713-2.844-5.336-5.175-7.956-.493-.554-.296-.922.432-.781 7.703 1.486 11.898 5.848 10.978 14.406-.122 1.131.618 2.108 1.753 2.188 13.252.897 20.427.01 24.411-1.806h0c.879-.402 1.801-1.588 2.28-2.428 2.093-3.667 6.24-6.159 11.607-7.954a3.73 3.73 0 0 0 1.153-.684c4.069-3.795 8.62-7.245 14.035-10.079a6.417 6.417 0 0 0 1.019-.685c4.226-3.656 7.856-7.879 15.931-7.869.515 0 1.336-.08 1.832-.223 3.789-1.054 7.167-2.419 9.77-4.364.568-.425 1.332-1.276 1.754-1.847a96.47 96.47 0 0 1 1.092-1.453c.182-.237-1.831 7.438-.898 11.463 3.951-10.515 2.071 2.595 4.994 4.17 1.474-2.739 2.165-7.745-.08-11.793 2.09-3.171.332-6.949-.746-7.867 7.835-9.097 15.541-14.027 23.158-16.024 2.563-.673 2.664-1.636.02-1.852-5.743-.471-11.906 2.397-26.182 15.283-.526.474-1.215 1.371-1.59 1.972-2.423 3.885-6.382 7.042-11.47 9.665-1.483.765-2.717-.05-2.488-1.703.674-4.875 2.896-10.75 8.185-18.601.363-.539.593-1.497.603-2.146.09-4.491 3.521-10.776 7.319-12.683.526-.265 1.277-.776 1.645-1.237 1.639-2.048 3.542-3.943 5.831-5.613.922-.729 1.728.416 2.496 1.342.431-.774.43-3.174 2.012-4.066.21 1.728 1.199 6.332 2.373 6.948 1.205-1.76.995-6.331.394-8.981 1.111-1.457 1.222-2.577.716-3.136-.62-.687-2.416 0-3.374-.1-.99-.113-1.045-1.128 1.866-5.008.656-3.729 3.138-6.806 7.616-9.17.539-.285 1.094-.977 1.271-1.56 1.292-4.275 3.727-5.611 6.476-6.141.817-.157 1.092-.767.513-1.363-2.252-2.323-4.691-2.775-7.155-2.98-25.733-1.217-29.074-7.97-29.329-15.486-.03-.819.199-.846.632-.151 1.266 2.036 3.775 3.451 9.864 3.076.378-.02.945.112 1.273.303 5.888 3.428 9.965 3.001 13.01.48.378-.314 1.06-.596 1.551-.616 5.577-.205 8.679-1.945 8.649-5.873 0-.719-.684-1.426-1.345-1.707-2.596-1.102-3.725-3.303-4.079-6.088-.09-.703-.576-1.613-1.156-2.021-8.97-6.313-19.914-12.922-24.514-14.508-.329-.114-.66-.466-.71-.81-1.713-10.799 8.482-10.618 9.773-6.214 1.281 3.694 8.308-2.177-3.028-5.658a.827.827 0 0 1-.497-.509c-2.064-8.1 9.333-.325 20.404.458.57.04 1.395-.24 1.855-.582 20.903-15.567 59.324-1.157 70.064 12.34.898 1.128.452 2.712-.798 3.433-5.099 2.941-10.11 6.349-13.414 10.28-.463.551-.44 1.472.02 2.028.199.19.397.323.596.403.457.265 1.177.199 1.674-.322 30.902-32.421 60.297 17.15 11.411 28.958-1.368.33-2.469 1.695-2.389 3.101.307 5.484 1.159 8.854 2.502 10.32.336.367.295.634-.172.807-.808.299-1.376.791-1.487 1.647-.906 5.957-3.797 8.189-6.358 11.043a1.104 1.104 0 0 0-.231.634c.07 3.36-.587 5.724-1.825 7.288-.277.349-.641.946-.731 1.383-.695 3.44.616 6.127 4.219 7.955.253.124.388.435.253.675-.38.674-.99.808-1.67.788-.404-.01-.797.253-.847.653-.449 3.337.866 4.657 2.676 5.41.34.141.508.51.31.82a3.012 3.012 0 0 1-.502.611c-.231.218-.379.577-.231.865.707 1.377 1.905 2.754 3.332 4.131.234.226.261.612.03.84-.358.352-.813.675-1.569.913-.404.127-.658.518-.522.92.532 1.57 1.423 2.961 3.354 3.832.361.163.366.385.03.591-2.283 1.389-3.157 4.619-2.181 10.268.06.333-.153.685-.461.822-.478.213-.977.408-2.149.07-.458-.134-.944.08-1.077.54-.841 2.897-.921 5.793-.921 8.69 0 .597-.428.857-.925.517-1.232-.84-2.174-1.824-2.978-2.878-.327-.428-.641-.359-.691.178-.286 3.238.687 6.005 4.216 7.812.336.172.365.468.06.696-7.105 5.397-8.004 15.296-4.206 17.048.394.182.418.349.04.565-1.679.956-2.202 2.592-2.152 4.567 0 .351.313.699.652.789 2.451.674 4.008 1.844 5.47 3.067.284.237.265.603-.03.825-4.095 3.055-6.652 7.187-8.157 12.056-.147.476.09.66.529.416 3.389-1.901 5.29-2.232 6.765-2.113.389.03.412.222.06.394-1.054.519-2.009 1.087-2.739 1.767-.228.213-.157.491.129.616 2.495 1.084 3.735 2.763 3.602 5.092.992 4.466 2.869 8.373 6.835 10.96-.09 2.414.615 4.734 3.182 6.835.352 2.381 1.888 3.915 3.3 5.539.497 1.964 1.713 3.929 4.714 5.893.313 2.064.638 4.124 2.946 5.421 5.756-.883 8.711 6.438 10.187 18.089.04.293-.1.707-.289.932-1.543 1.801-2.335 3.506-3.5 6.361-.15.366-.357.354-.499-.02-.16-1.042-1.256-2.794-2.366-3.384-.197-.106-1.28-.333-1.23-.556 1.424-4.442-.271-12.58-4.611-17.852-1.011-1.013-1.411-.659-.765.62 2.949 5.841 4.304 10.892 3.723 17.323-.02.228-.224.447-.441.517-.521.167-1.317.49-1.277.661.6 2.167 1.654 4.108 2.88 5.963.296.448.855 1.111 1.219 1.505 1.042 1.128 1.738 2.116 2.278 3.043.27.462.08.653-.384.382-1.172-.686-2.458-1.603-3.98-2.989-.399-.362-.593-.245-.429.266.853 2.654 1.999 4.722 3.273 6.533.309.439.13.866-.395.766-.866-.158-1.865-.67-2.983-1.501-.431-.32-.799-.162-.719.368.247 1.512-.722 3.223-2.46 4.749-.415 2.033-2.21 3.261-3.917 4.541 1.199.62 2.776.332 5.083-1.708.708-1.949 1.67-2.875 2.709-3.5.811 1.464 1.805 2.503 2.949 3.19z" stroke="#000" stroke-linecap="round" stroke-linejoin="round"/>
  <path d="M99.88 69.69c-.413 12.919-1.516 20.689 10.288 22.626 11.124.922 9.071 8.091 5.083 16.084 4.29-1.927 5.886-5.377 6.584-9.334 12.378 12.257 28.4 18.015 46.583 19.917 1.038.57.378 1.383-.08 2.167-6.213.07-15.733 10.291-22.084 24.333-.04 2.75-.825 3.247-1.5 4.083-1.764 2.39-2.302 3.798-3 5.334-2.147 9.345-7.88 10.155-11.5.25-4.307 1.333-7.697-1.528-10.916-5.167-.971.737-1.399 1.881-1.75 3.083-1.423-2.672-2.127-5.523-1.667-8.666-4.506 1.337-6.627-.192-8.667-6.917-5.098 1.036-6.208-1.346-5.833-5-2.613-1.459-2.632-3.517-1.167-5.917-2.818-1.17-5.778-1.053-8.75-.833 1.331-1.197 2.791-2.277 5.667-2.083-1.635-2.715-4.815-4.401-9.75-4.917.61-.992 1.453-1.789 3-2-1.614-1.714-4.23-2.649-8.667-2.167.489-.899.718-1.581 1.834-2.083-2.594-1.36-4.825-2.995-4.167-6.833-11.327-1.635-8.366-49.427-.826-37.111.549.897.745.844.608-.199-.232-1.776-.209-3.445 1.494-4.413.423-.241.478-.588.03-.784-2.781-1.217-4.949 1.117-7.866 1.352-.369.03-.714-.282-.767-.649-.323-2.206-.555-4.412 1.72-6.618.296-.287.634-.823.701-1.23.963-5.866-3.616-7.296-7.809-9.038-.323-.134-.379-.445-.09-.648 4.375-3.12 14.773.327 12.616 4.811-.15.313-.49.765-.688 1.049-1.721 2.467-1.662 3.916-1.368 5.23.166.739.582.776.929.103.732-1.421.897-3.241 2.383-4.649.267-.252 1.529-1.88 1.709-2.2 2.388-4.253 2.29-7.408-1.01-11.958-.601-.684-.481-.871.316-.432 4.835 2.666 9.42 7.386 5.636 10.845-.238.217-.666.518-.921.715-3.452 2.666-3.348 6.626-2.632 9.423.231.903.663.867.873-.04.869-3.749 1.686-6.698 5.192-8.452.334-.167 1.424-.903 1.681-1.172 4.415-4.621 1.146-10.726.944-15.236-.02-.492.275-.59.598-.216 4.067 4.703 7.901 9.458 3.095 16.178-.236.33-.739.722-1.104.9-4.897 2.395-6.754 5.497-6.474 8.026.06.581.495.627.818.137 1.969-2.98 4.259-5.55 7.521-6.884.342-.14.869-.411 1.164-.634 4.42-3.35 6.694-7.049 6.455-11.156-.03-.52.213-.65.548-.251 3.834 4.554 3.114 13.164-3.225 14.098-.331.05-.855.166-1.16.304-9.592 4.332-12.942 16.673-1.209 3.858.195-.213.54-.248.79-.105 2.436 1.388 5.788.613 9.606-1.264.344-.17.601 0 .553.379-.433 3.375-2.394 6.75-9.167 10.124-.638.318-1.179 1.136-1.202 1.848z"/>
 </g>
 <g fill="none" stroke="#fff" stroke-linecap="round" stroke-linejoin="round">
  <path d="M239.88 286.69c-.138 2.788-.443 5.775.166 7.666m-31.912-50.232c1.288.413 2.572.396 4.242.06m-9.074 32.585c2.003-1.914 3.241-4.254 3.83-6.953m-2.828 18.738c1.171-2.57 1.381-5.071.353-7.483m-41.424-55.626c-1.671.655-3.199 1.517-3.477 4.184m-13.376 138.18c1.668 1.532 2.37 3.064 3.123 4.596m.943-9.133a10.722 10.722 0 0 1 3.417 3.594m52.444-237.18c-.02 1.591-.03 3.182.413 4.773m-3.654 7.542c6.336-1.631 10.926-3.614 13.141-7.542m-20.994-15.691c1.117 2.348 1.355 4.319.917 6" stroke-width="2.5"/>
  <path d="M195.88 92.69c1.162-.292 1.904-.96 2.5-1.5m8.417 6.417c.778.665 1.553 1.678 2.083 3.75m8.167-2.75c1.828 3.481 6.311 1.88 13.25-4.417m19.75 197.67c.727 1.639 1.646 3.278 3 4.917m-6.833-5.167c-.301 2.104-.235 4.136.25 6.083m-11.667-15.916c.448 1.861.572 3.722.08 5.583m22.92 53.25c.495 1.671 3.013 1.261 4.417 3.25m-9.75-14.083c2.657.496 4.015 2.051 5.083 4m2.084 33.369c5.909 1.573 4.935 3.53-2.357 7.896m-76.477-57.432c2.139.95 3.445 4.152 5.167 4.333m-35.25-7.916c.304 2.85.108 5.034-.25 7m56.841-71.143c1.67.418 3.339.657 5.009.295m-10.43 11.903c.339 1.313.329 2.556-.118 3.712m-20.093-22.215c.03 3.711.686 7.051 2.592 9.664m-26.104 97.816a5.96 5.96 0 0 1 2.416 2.416m-19.74 17.56c.511.481 1.021.746 1.532 2.121m11.903-15.202c1.092.817 2.086 1.699 2.711 2.828m53.622-234.58c-.1 1.002-.24 2.004.118 3.006m-11.255-.354c-.256 1.504-.346 3.075.177 4.891m-22.265-10.132c.24 1.994.15 3.549-.08 4.917m27.997-87.75c3.991-.429 6.926-.154 8.917.75m.987 136.7c-.264-2.442 0-4.227.354-5.893m-4.655.354c-.112-2.403.176-4.008.53-5.48m-7.366-2.534c-.296 1.375-.459 2.728.177 3.948m-13.671 5.244c.302 1.973 1.551 2.526 2.77 3.123m-13.435 4.538c-.208-2.311.537-3.805 1.414-5.186 3.417.39 2.271 3.793 4.832 5.48m-8.662-6.658c.471 2.17.292 4.232-.177 6.246m-4.36-4.95a14.23 14.23 0 0 0-.06 3.653m-6.481-5.774c-.176.943-.344 1.895-.06 3.299m-11.387 19.386c.494 1.379.365 2.882.08 4.416 1.774-2.776 7.775-3.499 7.25.08m-38.164 3.17c.699 1.683 1.017 3.296 0 4.667m-10.916-2.417c-.306 2.026-.546 4.131-.08 7.084m-4.67-6.5c-.595 1.833-1.011 3.667.25 5.5m24.833-76.25c2.543.251 4.123-.14 5.75-.5m-9.714-8.192c2.374.05 4.937 2.593 5.486 3.382m-7.843-8.332c1.366.85 3.435.813 4.831.118m5.422-9.546c.171 4.016-1.685 5.626-5.068 5.421M94.345 92.493c1.886.273 3.771.422 5.657-.236" stroke-width="2"/>
  <path d="m212.88 98.69.333 4.167m45.667 185.33c.86.02 1.61-.113 2.917.5m-6.75 1.917c.554 1.156.657 1.709.75 2.25m-3.417 30.5c1.565.5 2.794 1.503 3.917 2.666m-2.084-8.833c1.45.475 2.855.68 4.084-.167m.916 31.25c1.471.322 2.26.19 3.084.08m-3 4.42c1.333.355 2.667.228 4-.08m-4.25 4.747c1.351.229 2.621.295 3.75.08m8.422 29.828a7.81 7.81 0 0 0-.118 3.3m-45.221 9.042c1.315-.181 2.917 0 2.917 0m2.416 4.583c1.043-.581 1.679-1.499 2.25-2.5m2.084 8.667c.156-1.536.08-2.953-.08-4.333m-4.268-72.298c-1.344 5.458 4.763 4.25 4.478-1.414m-45.63-26.538c3.095.74 4.376 2.816 3.25 6.666m-7.584.25c1.822 1.215 3.116 2.762 3.167 5.084m-11.667 4.666c1.583 2.529 3.167 3.47 4.75 4.25m-10.666-.75c1.364 1.425 1.71 3.021 1.75 4.667m-4.834-2.5c-.93 1.042-1.51 2.294-1.333 4m10.833-35.5.08 3.417m-6.08-3.334 1.584 4.417m-7.084-5.167 1.667 3.167m-10.25 6.917-.25 3.166m.08 10c-1.957.311-4.785.903-6.521 2.542m-4.229-6.375c-.176 1.394-.264 2.744 0 3.917m61.102-79.971c1.383.416 2.645.528 4.42.118m-42.604 31.113c1.061-.353 2.121-.314 3.182.118m4.832-26.576c-.292 2.836-.569 5.683.06 9.134m-8.663-16.676c0 1.015.02 2.026.177 2.887m-4.361-7.13c-.684.986-1.399 1.94-2.239 2.77m29.761-17.871c1.163-.144 2.523 0 4 .334m-10.583-3.25c1.918 1.198 3.348 2.674 4.166 4.5m5.183-14.944c1.727 1.759 3.062 3.664 3.536 5.893m-36.593 126.28c-.617 1.277-.696 2.553-.53 3.83m.294 32.056.295 2.887m-29.435 19.917 1.334-.416m9.833-4.834c-.166 1.053-.309 2.069.167 3.334m-4.167-3.75c-.248 1.305-.251 2.611.167 3.916m-16.667 4.25c1.716-.571 3.056-.387 4.333-.08m-8.416-4.336c1.944-.39 3.295-.186 4.583.08m93.167-349.58c.408.255.799.481 1.666 1.5m-8.333 19.666c-6.266 4.425-11.496 4.705-16.917 5.75 8.514-.278 15.695.848 20 5m6.084-12.416c-.117 3.259 1.652 7.327 4.833 12m13.833 7.25c-1.615 1.777-3.329 1.693-5.166-.75-1.41 7.383.35 8.111 6.416 6.083 2.756 2.489 5 3.823 7.75.417-1.049 1.932-.86 3.633 1.667 3.25m-6.5-15.584c-.207.698-.499 1.225-.5 2.334m7.75-1.334c-1.446 1.164-2.765 2.519-3.333 5m13.583-20.666c2.347 3.153 2.264 5.819.167 8.083m-46.929 75.164c0 .943 0 1.885.472 2.828m15.085-28.225c.566.43 1.067.909 2.239.884m-6.718 0c.05.854 0 1.619.354 2.769m-28.991 5.716c-1.023 1.993-1.216 4.194-.354 6.658m3.592-19.544c.389.657.777 1.238 1.166 2.5m-9.166 3.583-.167 3.167m-1.75-3.417-.167 3.25m-4.5-1c.2 1.026.339 2.082-.08 3.417m-4.17-3.583c.207.994.185 1.913-.08 2.75m41.662 56.666c-.199-1.819.303-2.764.707-3.83m-25.161-6.482c.479.516.727.986 1.944 1.65m-121.07 41.246c.781 1.753 3.263 2.663 4.167 4.166m-16.833-2.083 3-.08m3.083-10.92c.78-.274 1.59-.498 2.833 0m53.699-71.515c.846.27 1.314.634 1.532 1.061M85.367 97.081c.982.14 1.964.452 2.946 0" stroke-width="1.5"/>
 </g>
 <path d="M184.88 269.69c-.156 6.554.417 13.108 3.358 19.662.457 1.018 1.507 1.166 2.219.307 2.295-2.773 4.079-5.956 5.166-9.695.312-1.071-.316-2.365-1.272-2.94-3.78-2.272-6.199-4.933-8.234-7.703-.661-.9-1.21-.746-1.237.369z" fill="#f00000" fill-rule="evenodd"/>
 <g transform="translate(21182 21754)" fill-rule="evenodd">
  <path d="m-20969-21698c-1.029 2.455-6.22 4.691-11.07 2.887-5.768-2.145-7.757-6.02-6.493-9.419 1.264-3.397 7.164-4.339 11.07-2.886 4.849 1.803 7.521 6.962 6.493 9.418z" fill="#fff"/>
  <circle cx="-20978" cy="-21701" r="3.5"/>
 </g>
</svg>
