<?xml version="1.0" encoding="UTF-8"?>
<svg width="533.33" height="598.67" version="1.1" viewBox="0 0 400 449" xmlns="http://www.w3.org/2000/svg">
 <path d="m33.99 23.668 6.199 260.41c4.427 186 324.1 186 328.53 0l6.198-260.41z" fill="#fff" fill-rule="evenodd"/>
 <path d="m57.07 23.07c1.17-1.07 4.02-0.47 2.33 1.34-1.1 0.96-3.07 0.31-2.33-1.34z" fill="#fff"/>
 <path d="m77.18 25.16 0.64-0.02v0.68l-0.64 0.03z" fill="#7691ae"/>
 <path d="m343.4 79.314c-15.592 8.596-18.692 18.991-15.788 44.583 15.214 1.912 23.937 4.396 34.4 6.665-15.283 2.37-28.544 4.88-44.379 4.917-0.399 9.245-1.33 13.131-3.829 17.403-3.322 5.637-12.239 8.271-17.836 10.608-1.454-4.533 5.34-10.372 7.034-14.334 3.384-3.925-2.475-5.874-4.11-9.448-3.77-1.543-15.82-3.544-20.15-4.28 0.778-4.072-0.478-8.737-0.202-12.402 6.071-4.662 7.687-15.388 4.257-19.724-10.494-7.656-17.965-6.48-18.915-8.929 18.91-8.661 52.47-19.528 79.517-15.059z" fill="#0093dd"/>
 <path d="m225.09 122.81c-56.282 1.15-117.22-1.011-168.11 1.359-0.97-0.05-1.82 0.36-2.53 1.24-0.29 2.71 0.091 5.44-0.039 8.16 1.14 0.8 2.34 1.07 3.6 0.81 70.117 1.969 144.92 0.034 213.13 0.6 2.039-0.323 3.747-0.3 6.403-0.411 0.04-3.44 0.09-6.69-0.05-10.12-18.08-1.842-39.885-1.518-52.399-1.638z" fill="#fcdb00"/>
 <path d="m202.82 54.145c-1.678 2e-3 -3.311 0.375-4.724 1.245-0.735 0.151-3.956 4.048-4.32 6.73 9.715-1.27 13.892 0.719 21.185 4.61 2.11-8.395-5.113-12.484-12.141-12.585zm-6.347 9.644c-3.559-0.02-6.28-0.094-10.454 1.961-11.196 3.99-21.715 7.915-28.173 13.04-7.728-0.385-12.344 2.08-13.449 2.85 0.05 0.72 0.655 1.346 1.153 1.94 2.179 2.591 4.196-0.25 7.276-0.37 0.837 2.31-5.112 1.098-6.382 2.508-0.65 0.84-0.556 3.024 0.266 6.898 0.993 3.407 3.014 3.508 10.752 0.939 1.43-0.56 3.846-1.361 5.848-1.7 0.802-0.135 3.536-0.547 2.436-0.125-4.392 0.727-10.898 3.73-14.009 4.39 0.946 2.753 1.795 5.206 3.406 7.576-0.72 0.177-1.075 0.217-1.778 0.252-2.117 0.204-4.723 0.508-6.936 0.312-4.35-0.847-5.774-2.3-6.913 0.67-0.653 1.806 3.318 5.171 6.08 6.48 5.079 2.211 10.028 0.885 13.748-0.687-1.37 5.847 1.847 7.917 6.827 6.119 1.945 1.373 10.045 2.813 14.815 3.359 0.553 0.1 0.785 0.574 0.765 1.337h-4.21c-11.165-0.202-22.828 0.285-32.534-0.026-10.215 0.5-21.114 0.253-30.162-0.025-1.342-4.826-4.148-7.173-7.869-10.397-4.176-3.257-9.861-5.145-15.97-5.23s-9.635 2.15-14.94 5.63c-3.765 3.42-5.895 5.024-5.55 9.9-5.27-0.66-10.81 0.12-16.079 0.05-2.26 0.49-2.751 2.5-2.641 4.56 0.09 3.53-0.62 6.8 0.99 10.07 2.24 1.65 4.61 1.11 7.22 1.19 5.7-0.53 11.34 0.64 17-0.11 5.18 0.52 10.42-0.13 15.55 0.29 0.265 4.482 1.855 7.451 4.9 12.05 0.47 1.88 2.29 3.14 3.54 4.6 2.304 1.934 4.855 2.742 8.019 3.05 6.022 0.053 7.744-3.86 7.97-6.26-4.207 0.114-5.19-0.986-8.64-2.29-3.125-1.975-6.888-7.135-7.418-11.05h2.521c0.779 2.32 2.007 4.823 3.238 6.63 2.344 3.443 7.14 5.5 11.31 4.72 1.32-1.759 1.764-3.283 2.324-4.508 0.068 3.396-0.597 6.96-1.465 9.588-1.672 3.554-6.22 6.51-10.54 5.71-4.247-1.018-6.495-1.432-9.33-4.36l-0.69-0.06c2.197 4.274 6.684 7.001 10.23 9.24-1.916-0.117-2.923-0.559-4.96-0.79 0.576 3.64 11.381 9.69 13.328 9.61 0.144 0.193 0.32 0.421 0.366 0.507-3.17-0.1-7.053-2.037-9.903-3.458 2.48 5.934 9.133 8.37 14.732 9.4l0.529 0.519c-4.192 0.178-7.246-0.516-10.21-1.76 3.645 4.347 9.36 5.401 14.363 6.012 0.33 0.257 0.603 0.473 0.68 0.536-2.13 0.38-3.044 0.634-6.354 0.803 4.99 3.965 10.857 3.95 16.63 5.72-2.04 0.98-4.434 1.892-6.634 1.582 2.92 3.1 9.064 6.665 13.545 6.115 3.545-2.569 6.305-5.096 9.423-7.795-0.887-4.124-1.289-5.065-1.678-7.645-0.523-3.475-0.95-5.787-0.876-10.507 0.058-10.78 2.812-17.028 7.435-25.137-8.346 1.486-13.906 3.626-19.925 0.807-3.837-3.094-12.742-8.74-14.659-11.64 9.46-0.23 18.34 0.339 27.649 0.019 5.9 0.24 12.69-0.5 18.501-9e-3 -0.24 0.75 0.14 1.51 1.16 2.27-0.83-0.07-2.564-0.251-3.394-0.531-2.568 3.223-7.096 7.87-8.62 11.46-1.9 4.476-4.432 8.765-6.122 13.471 1.091-0.528 1.942-1.045 3.35-1.445-1.629 2.996-3.856 6.642-4.025 10.773l0.061 2e-3c2.54-1.24 3.142-1.385 4.73-2.03-2.219 3.525-3.31 6.228-3.471 10.239 1.758-2.165 2.638-2.987 4.47-4.25-2.23 4.473-2.776 8.225-2.25 12.81 7.364-5.026 14.311-11.318 21.07-16.69 2.87-1.88 4.607-3.795 8.101-5.03-1.205 1.295-1.97 2.06-2.91 3.2-5.905 5.237-11.168 9.671-19.483 16.674-5.721 3.82-11.467 8.83-16.437 12.236-7.302 4.068-10.299 7.071-18.174 12.143-0.267 0.315-1.566 0.965-1.81 1.292-1.23 0.254-2.028 1.056-4.218 1.31-4.662 0.938-5.82-0.113-6.701-0.506-4.12-2.006-13.138-6.651-17.857-9.63-6.113-3.945-12.76-10.028-20.06-8.213-6.696 1.8-8.84 8.63-10.08 11.425 5.013-2.673 8.912-4.17 14.157-3.227 2.922 0.558 5.323 2.531 9.795 5.18 0 0-0.022 0.634-0.47 0.545-2.16 0.16-7.212-2.09-9.342-2.17-3.066-0.21-6.009 0.243-9.549 2.74-2.919 2.352-6.896 5.196-4.96 13.93 1.499-3.027 2.472-5.631 5.8-7.33 6.326-2.699 12.244 0.104 16.429 2.7-0.124 0.174-0.258 0.555-0.513 0.716-2.357 0.032-8.405-1.954-12.726 0.983-4.265 2.788-7.363 11.965-3.99 15.14 1.37-2.44 3.042-3.962 5.15-6.01 2.602-2.527 5.947-2.552 8.99-2.15 0.37 0.3 0.233 0.441 0.503 0.851-1.87 0.84-4.704 1.37-6.49 2.452-2.912 1.765-5.433 7.533-5.183 11.003 2.933-2.012 7.391-7.266 12.098-7.298 3.285 1.423 7.377 2.59 11.422 2.953 5.858 5.136 13.557 8.579 15.609 8.68 1.922-1.01 3.926-2.66 5.42-3.16 6.608-2.334 19.326-7.126 19.766-7.038 0.528 1.71-1.06 6.747-1.06 6.747s7.101-4.789 7.97-8.787c1.381 2.721 1.413 6.766 1.413 6.766s5.38-5.495 7.187-9.326c1.297 3.95 1.235 6.38 1.235 6.38 3.196-1.426 5.795-6.583 6.407-9.221l0.458-0.321c0.716 1.716 1.316 3.476 1.048 5.522 2.89-2.022 6.553-8.738 6.643-9.707 0.2-0.093 0.217-0.137 0.45-0.25 1.185 2.42 0.827 4.078 0.369 6.205 5.496-3.161 7.058-10.338 9.811-10.577 3.083-0.267 2.575 2.911 3e-3 5.867-3.207 3.636-7.246 6.03-11.23 9.298-5.28 3.978-10.112 8.436-14.54 12.55 0.13 0.55 0.35 1.06 0.67 1.53-2.897 1.585-4.273 4.84-9.9 11.22-4.238 5.426-9.104 12.132-10.81 17.211 2.1-1.27 3.472-1.999 5.3-2.57 0.023 0.311 0.069 0.378 0.04 0.675-4.616 3.816-6.36 8.524-6.73 12.404 1.772-1.299 5.235-4.023 6.1-4.06-0.028 0.335 0.028 0.358 0.031 0.587-1.533 2.177-6.783 10.537-6.68 14.853 2.893-2.882 3.65-4.289 6.913-6.25 0.142 0.2 0.159 0.32 0.225 0.488-3.108 5.045-6.91 11.264-6.389 16.182 2.533-3.474 3.354-4.86 6.662-7.316 0.158 0.468 0.107 0.547 0.126 0.627-2.825 3.655-7.432 12.707-6.69 15.885 0.568-1.361 4.693-4.812 6.791-6.136 0.024 0.05 0.085 0.33 0.12 0.571-2.33 2.772-5.399 10.836-6.125 15.087 1.596-1.927 5.052-3.428 6.076-3.627 0.03 2.02-0.166 2.828-0.385 5.365-1.709 8.59-8.542 11.162-14.765 13.654-2.176 0.872-4.681-0.11-7.031 0.11-3.508-2.576-7.709-2.51-10.94-0.8-5.484 2.904-10.18 9.73-9.31 16.12 2.1-3.142 10.354-8.976 13.16-9.296 2.53-0.349 4.464 0.341 5.41 1.657 1.15 1.598 1.287 3.348-0.14 4.9 1.337 1.187 2.133 1.925 2.519 3.566 1.516 1.239 4.709 2.674 7.028 2.943 1.29 0.315 2.65 0.224 4.79-0.146-1.807 1.251-3.511 2.04-5.517 2.037-1.761-1e-3 -4.495-1.594-6.003-2.76 2.255 4.75 4.78 10.383 9.103 12.72 9.128 4.576 14.166 1.27 20.341-1.58 2.341-1.081 3.85-3.44 5.46-5.48 2.55-0.69 5.32-1.25 7.62-2.47 5.482 0.202 9.809-2.744 12.608-6.34 1.39-1.87 1.158-4.565 0-6.328-1.742-2.654-5.577-4.063-8.739-3.783-1.772 0.158-2.76 1.94-4.45 2.95-4.029 3.12-8.11 4.714-12.91 6.87-3.178 1.398-7.217 1.614-9.47 1.641-3.32 0.27-4.427-0.479-7.842-1.349-2.473-1.003-3.521-0.985-5.788-4.19 4.174 2.028 6.795 2.708 10.23 3.538 3.824 0.57 7.53-0.244 11.78-1.448 4.61-1.77 6.85-3.17 11.07-5.3 2.51-0.942 4.01-4.163 7.07-4.51 4.628-0.147 8.582 1.761 11.27 4.21 0.693-1.254 1.046-2.39 1.21-3.88 0.468-5.094 0.291-9.99 0.07-14.99 1.232-6.23 2.342-12.72 3.75-18.83 2.715-12.333 11.935-20.084 17.02-29.29 0.56-2.7 0.76-4.603 1.17-5.871 1.715-8.15 3.51-13.182 4.44-20.98 0.8-3.04 0.97-6.06 2.16-9.05-0.396-5.742-2.113-10.666-4.34-15.7 5.337 5.489 7.812 13.902 6.583 20.31-1.402 4.437-2.323 11.257-3.046 14.568-2.275 6.241-3.01 12.302-4.321 18.953-0.604 7.96 2.637 16.056 6.397 21.619 0.246-2.946 0.363-4.834 1.578-7.049 0.841 3.525 1.987 11.123 4.26 13-0.054-1.307 0.109-2.89 0.489-4.52 1.731 3.881 2.125 9.164 4.967 12.6 0.08-1.22-0.47-4.59 0.422-6.015 0.62 2.576 1.637 6.829 4.43 11.892 0.32-1.11 1.461-3.113 2.292-4.451 1.41 8.07 4.417 12.49 4.862 12.613 0.39-0.79 2.367-3.998 2.707-4.028 0.678 4.937 3.028 7.84 4.67 11.758 0.99 2.05 1.1 2.66 0.87 4.97-0.412 2.112-1.476 4.196-2.96 5.99-3.128 2.182-6.695 5.068-10.07 7.981-8.287 6.461-11.447 16.835-9.523 26.007 1.273-2.003 4.432-10.408 13.274-15.115 0.123 0.03 0.232 0.317 0.297 0.361-2.872 5.55-6.258 8.072-6.962 13.942-0.058 1.843-0.579 4.97 1.534 6.394 1.08-1.8 2.33-5.4 3.334-7.267 2.014-4.675 7.12-6.905 8.781-7.499 0.049 0.02 0.335 0.127 0.395 0.137-3.66 5.203-8.09 12.137-4.1 17.07 2.814-6.964 4.897-8.92 9.622-13.186 0.088-8e-3 0.25 0.028 0.548 0.065-1.266 3.566-2.982 7.978-2.154 11.774 2.194-2.604 2.966-4.712 5.018-5.892 3.647-0.234 5.33-0.984 8.546-3.423 4.415-2.241 11.765-11.352 13.5-15.33 6.015-6.187 7.349-17.574 10.67-23.42 0.97-1.38 0.995-1.592 1.605-3.713 1.278-6.988-0.957-15.142-4.354-18.857-8.21-7.373-15.211-18.785-19.4-28.399 1.23-0.1 3.985 0.157 7.482 1.011-1.35-2.813-7.112-6.648-9.392-8.038l-0.069-0.614c3.689 0.952 8.021 2.502 9.062 2.662-1.01-2.838-5.233-7.915-9.119-9.636l-0.04-0.653c3.369 0.671 4.728 1.414 7.788 2.52 0.1-1.51-4.342-9.184-7.74-10.613-0.02-0.277-0.023-0.385-0.035-0.472 0.066 6e-3 5.398 1.452 7.906 2.764-2.13-5.712-6.114-10.487-8.6-12.126 0 2e-3 0.1-0.471 0.087-0.526 2.49 0.44 6.275 3.711 8.181 5.617-0.067-4.698-3.266-9.194-6.82-11.7 0.099-3.605 0.288-5.36-0.237-7.998 2.21 3.5 3.62 6.49 6.487 8.262 3.224 1.314 5.685-2.446 6.55-5 3.726-16.218-9.484-20.289-15.749-23.685-11.067-16.711-15.496-38.96-18.584-55.878-0.17-0.977-0.262-1.956-0.169-2.95 5.11-13.46 4.072-25.184 0.232-33.878 6.63 0.12 13.21 0.32 19.83 0.22 10.378 0.46 24.29 1.113 34.899 1.49 5.512 0.888 7.972 0.827 11.8 7.16 0.57 2.1 1.239 3.98-1.15 6.58-3.152 4.124-6.903 8.32-10.725 11.54 14.027 1.81 25.518-8.361 27.665-15.59 1.493-4.21 1.209-7.444 1.329-12.07 6.81-0.424 13.752-0.51 20.151-1.007 9.483-1.044 20.487-2.236 27.54-4.923-12.44-3.534-25.932-5.611-37.89-7.46-0.559-4.998-0.867-6.902-1.01-9.06-0.01-14.208-3.081-19.487 12.29-30.08 1.74-0.84 5.03-3.474 7.88-5.42-16.672-3.464-37.117-0.113-54.68 2.911-2.3 0.22-11.15 3.22-13.69 4.15-6.796 2.67-13.92 5.116-19.02 9.71 6.491 2.164 14.969 2.875 19.35 7.85 3.947 4.156 5.85 7.28 2.84 13.76-2.608 5.435-7.73 4.256-11.69 4.72-13.584-0.173-25.991 0.163-38.518-0.12-0.39-2.15-0.845-3.346-2.02-5.618 1.687 0.389 3.866 0.888 6.06 3.616 0.697-3.842-3.817-9.898-5.534-11.725l0.306-1.439c1.727-0.033 4.389 2.287 5.049 2.677-0.15-2.97-1.57-5.663-5.278-8.56 0.316-0.327 2.199 0.022 6.557 2.262-1.376-3.96-2.867-6.25-4.912-7.784-0.125-0.699 0.182-2.035 0.611-4.412-2.394 1.33-6.346 3.156-9.141 2.603-1.65 7.192-5.367 17.246-10.614 22.208 2.08-5.381 4.548-8.764 5.085-11.228 2.195-4.07 1.972-9.565 2.843-11.414-3.818-3.024-5.14-12.564-4.083-16.336 0.661-2.183 2.227-4.823 4.486-5.646 3.523-1.283 7.791-2.02 11.024 2.246 1.23 2.14 1.557 4.115 0.69 7.6-0.54 1.618-0.687-0.43-0.863-2.955-0.098-2.79-0.959-4.578-5.747-5.496-10.826-0.536-7.272 15.812-4.63 17.921 2.588 2.033 8.216-0.143 10.13-1.6 2.387-1.906 4.727-3.373 5.76-7.13 2.263-10.493-4.673-16.846-13.25-17.35-2.8-0.62-6.251 1.129-8.02 3.14-0.706 0.802-0.58 1.95-1.16 2.69-5.05-3.395-9.192-4.455-15.82-5.85a42.895 42.895 0 0 0-3.534-0.18zm-4.781 10.689c2.193 7e-3 4.458 0.362 6.814 1.122 0.16 0.71 0.231 1.42 0.221 2.12a12.677 12.677 0 0 0-3.82-0.69c2.18 6.482-1.55 10.278-5.341 11.6-5.069 1.022-9.806-2.681-11.602-6.64-0.944 0.294-2.01 0.892-3.498 1.55-0.76-1.47-3.05-3.031-3.05-3.031 0.465-0.808 0.61-1.586 1.1-2.019 1.32 0.44 2.441 0.779 3.48 1.789 4.96-3.567 10.09-5.819 15.695-5.8zm-1.508 1.975c-0.5 0-0.925 0.03-1.182 0.068-1.5 0.227-2.033 0.398-3.435 0.979-1.26 0.522-3.001 1.525-4.481 2.432 0.066 0.938 0.308 1.87 0.709 2.74 1.648 3.535 5.507 5.225 8.619 3.774 3.113-1.451 4.827-4.66 3.179-8.195-0.225-0.478-0.375-1.031-0.687-1.453-0.84-0.263-1.887-0.346-2.722-0.346zm-5.612 2.667c0.783 0 1.418 0.74 1.418 1.654s-0.635 1.654-1.418 1.654c-0.782 0-1.416-0.741-1.416-1.654s0.634-1.653 1.416-1.654zm145.43 0.19a69.077 69.077 0 0 1 6 0.03c2.129 0.112 4.06 0.347 5.735 0.726-3.718 2.389-7.67 4.473-10.254 7.404-3.4 2.24-4.59 6.64-5.77 10.23-0.909 2.714-0.991 5.094-1.219 7.79 0.636 10.751 1.93 14.91 1.77 19.29 2.76 0.75 6.448 1.265 10.11 1.82 8.155 2.373 17.427 2.507 24.117 4.239-4.138 0.112-9.996 0.768-14.256 1.426-10.63 1.619-21.255 1.002-30.49 1.688 0.28 3.055-0.112 10.522-0.408 13.012-0.525 1.94-1.772 5.377-6.462 9.01-0.302 0.51-5.544 4.122-12.006 5.813 1.793-2.188 4.736-4.115 6.753-7.598 3.32-5.73 1.89-11.536-3.297-15.735-5.18-2.757-11.73-3.165-20.162-3.624 0.366-3.168 0.428-6.642 0.33-10.82 5.816-2.46 7.374-8.102 6.806-14.978-0.906-3.633-4.142-7.227-6.577-9.672-4.389-3.357-9.665-5.025-14.168-5.232 6.181-2.818 11.314-5.206 16.698-6.869 11.635-3.058 31.886-7.43 46.75-7.948zm-167.44 15.02c0.573 6e-3 1.067 0.203 1.289 0.653 0.37 1.804 0.718 7.583-0.387 10.484-1.349-1.998-3.573-7.603-3.113-10.333 0.603-0.5 1.474-0.81 2.21-0.803zm3.595 1.598c7.252 0.905 7.415 6.468 7.05 10.082-1.783-1.182-4.082-1.501-7.982-2.058 0.567-1.749 1.092-6.279 0.931-8.023zm-7.04 1.075c0.39 3.041 0.879 4.048 2.08 6.39-1.35-0.215-1.904-0.118-3.358-0.094 0.856-1.53 0.663-3.071 0.65-4.642 0-0.72-0.102-1.459-0.102-1.459zm-3.207-0.465c0.244 0.06 0.475 0.184 0.658 0.384 0.897 1.086 1.023 2.036 0.734 3.803-0.179 0.602-0.234 1.301-1.039 2.707-1.066-2.356-1.832-4.245-2.023-5.942 0.079-0.72 0.937-1.13 1.67-0.952zm-69.71 14.835c0.282 0.189 0.772 0.372 0.823 1.015-1.31 1.99-4.063 5.983-5.941 9.05-0.214-0.027-1.837-0.124-2.056-0.139 1.592-4.13 3.55-6.376 6.958-9.823zm8.439 0.896c0.409 7e-3 1.004 0.234 1.178 0.511-1.604 2.203-2.115 3.316-2.66 4.228-0.76 1.59-0.972 2.46-1.735 4.42-0.163 6e-3 -1.542 0.046-1.705 0.049 0.688-2.928 2.702-6.755 4.76-9.198a0.877 0.877 0 0 1 0.162-0.01zm-19.628 11.76c2.26-0.02 4.53 0.14 6.8 0.17-0.484 2.905 0.094 4.426 0.744 6.196 1.025-2.199 2.975-5.318 4.225-5.998 1.212-0.252 2.151-0.308 4.742-0.028 0.98 2.79 1.838 5.787 4.768 7.027-0.868-3.938-0.401-5.37-0.143-6.935 12.75-0.22 27.224 0.048 40.874-0.092 4-0.136 7.104 0.32 10.91 0.07 6.29-0.23 12.73 0.31 19.08-0.01 4.588 0.32 8.966 0.26 12.36 0.31 5.5-0.61 10.949 0.12 16.42-0.49 0.16 1.02-0.42 1.55-1.73 1.59-8.8 2.648-13.882 5.843-19.536 9.21-7.03-0.84-17.444-0.44-24.514-1.06-6.66 0.61-13.27 0.71-20 0.08-8.96 0.65-20.77-0.13-30 0.26-14.08 0.697-30.184 0.061-41.991 0.05-1.26 0.26-2.46-0.01-3.6-0.81 0.13-2.72-0.25-5.45 0.04-8.16 0.71-0.88 1.56-1.29 2.53-1.24 4.76 0.33 10.01-0.17 14.72 0.15 0.57 1.19 0.807 2.164 1.821 2.717 0.32-1.286 0.89-2.757 1.48-3.007zm199.42 0.322c1.044-0.034 2.049-0.043 3.066 0.098 0.14 3.43 0.09 6.68 0.05 10.12-13.28 0.07-29.995-0.405-43.39-0.73-0.628-2.7-2.416-4.236-2.268-9.332 13.236 0.117 27.6 0.354 39.247-0.097 1.14 0.03 2.307-0.025 3.295-0.059zm-166.4 93.3c1.25 0.34 6.709 3.095 8.019 3.545 2.058-0.964 5.05-1.417 8.179-2.308 0.157 0.176 0.112 0.074 0.195 0.446-1.244 0.68-2.114 0.842-3.66 1.369-2.152 0.835-3.252 1.238-4.762 2.368-3.198-1.217-6.401-3.463-8.343-4.998 0.056-0.195-0.16-0.317 0.372-0.422z"/>
 <path d="m316.29 82.29c0.26 0.22 0.26 0.22 0 0z" fill="#ffff"/>
 <path d="m142.04 104.66c-0.619-0.015-1.075 0.2-1.242 0.873-0.214 0.864 2.726 3.023 3.236 3.083 4.63 2.59 8.675 2.088 15.538-0.558 2-0.75 11.795 0.677 13.535-0.333-0.03-0.489-2.431-1.692-3.483-1.967-0.713-0.186-3.855-0.652-4.839-0.675-0.3 0.425-0.424 1.096-1.256 1.838-0.677-0.713-1.388-1.554-1.86-2.24-1.744-0.079-3.687 0.188-5.255 0.373-1.86 0.217-3.671 0.475-5.419 0.583-1.711 0.01-2.763 0.421-5.07-0.024-1.364-0.263-2.852-0.928-3.884-0.953z" fill="#f00000"/>
 <path d="m372.08 123.1 0.76-0.01 0.03 0.74-0.72 0.01z" fill="#7691ae"/>
 <path d="m333.46 127.29c0.14 0.26 0.14 0.26 0 0z" fill="#fff"/>
 <path d="m243.25 211.34c0.42 0.39 0.42 0.39 0 0zm-34.82 2.1c0.15 0.14 0.15 0.14 0 0z" fill="#7691ae"/>
 <path d="m186.46 227.97c4.71 7.193 11.242 13.609 18.397 18.591-1.35 0-4.79-2.568-7.154-3.652-5.98-4.555-11.71-11.87-11.244-14.939z" fill="#fff"/>
 <path d="m195.1 243.96a1.387 1.387 0 0 0-0.788 0.268c0.844 3.095 10.378 13.26 11.441 13.636 0.881-2.816 1.653-5.296 1.87-7.867-3.928-0.8-9.138-5.018-12.523-6.037z" fill="#f00000"/>
 <path d="m198.14 249.43c0.57 0.3 0.57 0.3 0 0z" fill="#f6e64b"/>
 <g fill="#7691ae">
  <path d="m258.29 295.32c0.39 0.37 0.39 0.37 0 0zm3.05 12.02c0.35 0.35 0.35 0.35 0 0zm90.86 33.79 0.81-0.39 0.85 0.38 0.01 0.86-0.87 0.39-0.81-0.46z"/>
 </g>
 <path d="m33.99 23.668 6.199 260.41c4.427 186 324.1 186 328.53 0l6.198-260.41z" fill="none" stroke="#000" stroke-width="6"/>
 <path d="m113.38 352.99c3.231-0.467 4.44 3.354 2.854 4.276-2.043-0.31-3.907 0.24-5.824 0.987-1.62 0.82-5.658 4.394-9.265 7.318-0.42-2 3.912-7.701 4.912-8.751 1.47-1.65 4.597-3.436 7.323-3.83z"/>
 <path d="m117.14 359.67c1.106 1.043 2.762 2.712 1.032 4.442-3.59 0.02-5.182 0.239-8.461 2.144-2.627 0.949-3.97 2.881-6.28 4.336 0.68-2.785 2.548-6.378 4.205-8.403 2.647-2.322 6.04-5.633 9.504-2.519zm2.28 5.96c0.933 0.865 1.49 1.704 0.955 3.322-0.63 1.336-2.819 0.746-4.479 2.166-1.16 0.7-3.27 2.555-5.921 4.623 0.3-4.084 1.647-6.041 3.497-7.861 1.17-1.4 3.758-4.12 5.948-2.25z"/>
 <path d="m120.38 370.15c2.4 0.25 4.368 3.82 5.468 5.71-1.87 0.68-3.482-1.508-5.3-1.362-1.777 0.143-3.48 0.892-4.9 2.142-0.44 0.07-1.176 0.854-2.562 1.514 0.23-5.458 3.772-6.772 7.294-8.004z"/>
</svg>
