<?xml version="1.0" encoding="UTF-8"?>
<!-- Created with Inkscape (http://www.inkscape.org/) -->
<svg id="a" width="210.67" height="246.76" version="1.0" xml:space="preserve" xmlns="http://www.w3.org/2000/svg"><path d="m1.0004 1 3.793 159.38c2.7093 113.84 198.37 113.84 201.08 0l3.793-159.38z" fill="#1f83bf" stroke="#000" stroke-width="1.89"/><path d="m105.33 22.674 17.939 45.253 44.683-19.314-19.314 44.683 45.253 17.939-45.253 17.939 19.314 44.683-44.683-19.314-17.939 45.253-17.939-45.253-44.683 19.314 19.314-44.683-45.253-17.939 45.253-17.939-19.314-44.683 44.683 19.314z" stroke="#000" stroke-linecap="round" stroke-linejoin="round" stroke-width="1.5118"/><path d="m105.33 22.674v177.12l-17.939-45.253 35.877-86.616z" fill="#fcd930" stroke="#000" stroke-linecap="round" stroke-linejoin="round" stroke-width="1.5118"/><path d="m167.96 48.613-125.24 125.24 19.314-44.683 86.616-35.877z" fill="#fcd930" stroke="#000" stroke-linecap="round" stroke-linejoin="round" stroke-width="1.5118"/><path d="m193.89 111.23h-177.12l45.253-17.939 86.616 35.877z" fill="#fcd930" stroke="#000" stroke-linecap="round" stroke-linejoin="round" stroke-width="1.5118"/><path d="m167.96 173.86-125.24-125.24 44.683 19.314 35.877 86.616z" fill="#fcd930" stroke="#000" stroke-linecap="round" stroke-linejoin="round" stroke-width="1.5118"/></svg>
