<?xml version="1.0" encoding="UTF-8"?>
<svg width="500" height="585"  viewBox="0 0 500 585" xmlns="http://www.w3.org/2000/svg">
<path d="m4.353 4.25 8.932 375.4c6.38 268.13 467.04 268.13 473.43 0l8.93-375.4z" fill="#fcdb00" stroke="#000" stroke-width="8.5"/>
<path d="M245.57 28.863c-1.227-.046-2.563.28-4.01.36-5.01 1.677-9.94 2.981-14.61 5.496-2.061 1.244-1.928 4.25-1.017 6.14 2.003 8.05 4.158 17.662 5.675 25.804 1.37 7.53 2.568 17.57 3.506 25.273.24 5.336 1.118 10.552 1.045 15.907.532 1.816.007 3.266-.313 5.049-2.122 5.215-6.26 9.732-10.545 13.298-5.349 4.197-11.23 8.056-17.616 10.471-11.954 4.477-24.394 7.23-37.206 6.998.146-1.277 1.057-2.269 1.955-3.113 5.003-4.983 12.64-7.464 18.401-11.535 4.098-2.535 8.549-5.209 11.888-8.735 5.349-4.876 9.426-11.269 11.076-18.347.592-4.165.44-8.476.167-12.66-3.607-24.673-26.443-39.246-30.621-38.252-2.075 2.316-2.122 6.042-2.828 9.041-5.728-6.073-12.087-11.336-19.405-15.394-6.167-3.718-12.74-5.502-19.44-7.664-2.002-.392-3.497 1.038-3.418 3.027.08 1.763.2 3.493.033 5.256-17.29-10.237-28.25-7.225-45.755-4.099-1.357 1.43-1.39 3.839-.639 5.562 1.77 7.138 5.096 13.818 9.646 19.599 3.639 4.863 8.502 8.907 13.032 12.925 3.44 2.86 7.31 5.727 10.025 9.306.945 1.185 1.777 2.516 1.378 4.092-1.497 1.51-3.094.633-4.69-.139-5.395-3.732-9.413-9.334-14.622-13.332-6.008-5.482-14.11-8.822-21.954-10.611-9.266-1.55-19.033-1.443-28.007 1.67-2.328.699-6.838 2.248-6.838 2.248-1.6.818-1.79 2.502-1.39 4.238 2.88 2.528 5.581 5.209 8.455 7.737.206.213.245.512.126.891-15.418 4.495-25.308 13.992-26.61 15.534-.239 1.09-.353 2.315-.06 3.406 1.657 2.063 4.019 2.062 6.354 3.592.638.293.778.665.419 1.13-7.765 3.008-11.703 9.907-16.685 15.907-.912 1.53-.525 3.287.672 4.53 4.125 6.813 9.899 13.325 16.844 17.304-.19 1.39-6.819 5.102-6.819 5.102 3.844 6.901 10.502 11.411 17.603 14.57-.706 1.35-2.867 1.735-3.938 2.826-1.53 1.424-1.098 3.965.532 5.136 20.477 14.54 41.91 9.8 61.994-1.71 3.16-1.756 6.34-3.08 10.038-2.54a7.159 7.159 0 0 1 1.444 1.616c-.473 1.41-1.137 2.427-2.428 3.2-7.703 5.028-16.871 8.767-25.054 12.872-7.51 3.253-13.604 9.779-18.96 15.766-.385 1.377-.625 3.958 1.072 4.57 4.923 2.908 10.331 5.349 15.746 7.172 10.465 3.06 21.042 4.158 31.892 3.047 1.091-.353 2.362-.173 3.5-.306-1.397 2.315-3.08 4.856-3.5 7.564-.346 1.816 1.583 3.639 3.373 3.46 9.457.01 18.98-.662 28.1-3.32 5.681-1.584 11.35-3.64 16.559-6.42l.857-.114c-.386 1.051-.592 2.05-.718 3.154-.712 1.61-1.923 4.084-.473 5.594 1.35 1.83 3.88 1.045 5.742.579 6.958-1.537 13.73-4.25 20.117-7.384 2.442-1.49 5.076-2.834 7.258-4.63 4.783-3.972 8.914-8.635 11.714-14.203 1.597-3.586 2.628-7.371 2.84-11.283-.358-2.96-.484-5.827-1.602-8.648-1.856-5.182-5.416-9.48-9.88-12.646-3.745-3.114-8.407-5.176-12.944-6.859-3.52-.878-6.853-2.461-10.365-3.066-.346-.1-.505-.44-.485-1.019 6.053-.186 12.02-1.043 17.921-2.387 6.054-1.61 12.254-3.12 18.035-5.562 4.344-1.556 8.256-3.846 12.32-5.981 3.274-1.863 6.546-3.878 9.394-6.353l.565-.013c.372 10.125.565 19.758.266 29.91-.473 3.292-.173 6.679-.599 9.985-.492 7.49-.838 12.845-1.477 20.436-.665 2.401-.072 5.016-.784 7.45-.2 3.154-.453 6.467-.991 9.574-9.74-.053-19.633 3.293-28.32 7.524-12.727 6.4-24.156 16.617-30.396 29.563-2.807 5.109-4.264 10.578-5.714 16.166-2.648-.187-5.182-.087-7.53 1.277-2.814-3.413-7.883-5.042-11.981-6.28-2.122-.272-3.965-.984-6.134-.771-3.16.3-6.24.951-9.154 2.268-7.111 2.668-12.434 8.568-15.288 15.506-4.922-.266-10.297 1.943-13.976 5.183-3.479 2.674-6.226 6.207-7.717 10.358-1.703 3.972-1.424 7.923-1.284 12.14.585 1.171.506 2.482 1.131 3.64.546 1.682 1.842 2.52 1.623 4.304-8.223 4.73-12.18 15.56-10.144 24.62 1.237 7.318 6.392 14.084 13.33 16.885 1.238.891 1.61 2.74 2.947 3.725-4.244 4.657-6.093 10.47-6.166 16.684.352 2.954.978 5.782 2.275 8.496 4.131 8.788 13.391 15 23.244 14.542.558.605 1.071 1.237 1.484 1.949 3.439 6.612 10.777 11.455 18.3 11.322 1.51-.18 2.362 1.723 1.484 2.9-3.646 9.64.578 21.189 9.273 26.604 3.186 1.896 7.005 3.373 10.757 3.254.945.193 1.89.385 2.84.538.2 2.048-.99 3.473-1.343 5.402-1.198 3.878-.765 7.61.06 11.502 1.796 7.218 7.804 13.75 15.081 15.62 2.369.964 4.737.659 7.238.772l1.011.618c-.592 2.914-1.577 5.835-.985 8.875.645 8.375 6.88 16.717 15.335 18.44.552.266 1.104.533 1.663.792-2.235 5.708-2.276 12.128.632 17.602 2.135 3.792 5.309 7.43 9.307 9.307 1.503 1.004 3.752 1.031 5.182 2.195 2.136 9.054 10.418 16.013 19.678 16.611 3.925.24 7.989.127 11.641-1.457 7.43-2.78 12.806-9.665 13.784-17.529 1.676-.572 3.62-.219 5.342-.977 3.233-.712 5.848-2.488 8.482-4.39 3.945-3.467 6.626-8.509 7.199-13.725.632-2.867.504-6.267-.833-8.96l.939-.766c8.641-1.59 15.313-9.892 15.978-18.46.3-1.39.14-2.895.18-4.312 1.917-.419 3.806-.765 5.682-1.343 10.105-3.28 15.945-14.742 13.265-24.907-.306-3.027-2.136-5.395-2.987-8.149a3.843 3.843 0 0 1 1.47-.792c5.176-.153 10.411-2.269 14.004-6.074 2.295-2.209 3.539-4.962 4.916-7.736 5.595-.393 11.242-2.748 15.3-6.64 3.446-3.22 5.535-7.377 6.905-11.835.466-2.907.36-5.807.174-8.727-.226-2.422-1.637-4.344-2.262-6.573 1.87-2.089 5.315-2.555 7.118-4.836 1.304-1.863 3.592-.972 5.302-2.116 10.657-1.35 19.552-10.344 20.736-21.055.525-4.277.279-9.068-1.744-12.96-.878-1.15-1.49-2.16-1.556-3.657 2.07-1.943 5.58-2.076 7.796-4.119 1.404-1.35 3.167-2.055 4.358-3.678 5.528-5.948 7.504-14.915 5.349-22.692-1.657-5.409-5.176-10.125-9.833-13.325.845-2.8 2.535-5.135 2.954-8.076.958-5.827.067-12.26-3.486-17.15-2.734-4.437-7.091-7.657-11.974-9.366-2.621-8.23-9.86-14.55-18.408-15.914-6.992-1.51-13.99.154-20.064 3.746-1.81 1.251-3.426 2.893-5.003 4.424-10.832.066-17.405.622-22.631 7.786-.484-2.786-4.177-22.167-15.74-37.881-9.194-11.649-21.973-21.242-36.295-25.5-4.285-1.077-8.382-1.949-12.846-1.829 1.949-12.413 3.325-28.133 4.117-40.726.585-8.05.473-18.215.48-26.378l.664.233c6.42 5.329 14.762 8.762 22.739 10.984 5.967 1.317 11.755 2.148 17.815 3.013l.04.432c-4.956 1.47-9.84 2.755-14.556 5.01-5.827 3.074-10.73 7.777-12.793 14.157-1.483 5.84-.552 11.561 1.697 17.036 4.364 9.773 12.254 17.729 21.301 23.284 5.862 3.312 6.065-2.455 7.039-6.433 4.65 4.264 8.874 9.213 15.38 10.803 2.608.1 3.06-1.862 3.413-3.978 5.84 3.905 12.387 6.347 19.246 7.644 5.005-.498 2.984-6.417 2.947-9.905 7.37 4.597 15.692 8.435 24.314 9.819 3.825.898 8.07.645 11.981.678 5.522.02 10.757-1.31 15.933-3.08 2.594-2.414.393-6.06-.791-8.615-2.96-7.198-7.365-13.53-13.073-18.826-3.965-4.105-8.674-7.265-12.413-11.55-1.55-1.57-2.815-3.598-1.83-5.846 1.723-1.444 4.125-.44 5.815.558 4.224 2.934 7.557 6.66 11.515 9.826 6.247 4.517 13.77 7.85 21.454 8.721 4.298.107 8.435.287 12.54-.638 7.098-1.344 13.923-4.638 20.143-8.243 3.395-4.695-3.53-7.91-6.26-10.73 8.489-3.586 16.053-9.786 22.247-16.524 5.089-5.21 8.807-11.224 12.373-17.537 2.654-5.115-10.733-8.645-12.62-9.114 1.623-3.35 9.858-2.261 22.366-29.224-.029-5.98-19.4-20.795-19.472-20.843-3.698-2.241-7.284-4.503-11.482-5.707 2.275-1.956 5.422-2.714 7.058-5.774.621-2.534-.367-3.78-2.508-4.857-8.51-6.17-17.926-10.672-28.273-12.64 1.53-1.783 4.152-4.157 3.048-6.752-.36-1.75-1.624-1.988-3.168-2.274-9.692-1.138-19.372.411-28.14 4.689-2.6 1.557-5.508 2.847-7.856 4.737-3.845 2.96-7.47 5.695-10.285 9.72-3.512 4.07-5.275 9.007-9.18 12.772-.918.911-1.816 1.497-3.114 1.723-1.975-.772-1.795-3.166-1.17-4.816.925-3.6 2.98-6.28 4.776-9.713 3.978-6.679 7.391-14.43 8.123-22.233.247-4.768.735-10.016-1.138-14.562-1.917-2.938-26.58-3.483-43.686 15.38-1.297.899-2.13 2.782-3.56 3.26.007-2.707-.226-5.395-.292-8.102.046-.832-.373-1.437-.739-2.142-1.27-.951-2.188-.799-3.698-.746-6.293 4.364-12.287 8.961-16.864 15.201-3.646 4.484-6.733 9.334-8.788 14.756l-.3.22c-.758-1.99-1.65-3.84-1.703-6.021-.532-2.196-1.962-3.154-4.224-2.821-2.355 1.463-3.466 3.565-5.249 5.528-4.623 5.82-8.528 11.848-10.318 19.166-1.623 5.748-1.996 12.327-.392 18.121 2.321 8.103 8.189 15.381 14.396 20.916 6.699 6.326 14.98 9.532 21.48 15.779 1.025 1.363 2.222 2.222 2.03 4.105-2.915.133-5.629-.679-8.556-.659-16.676-2.371-32.511-9.588-42.935-23.21-.997-1.85-2.5-3.546-3.066-5.582-.04-7.99-.699-16.106-1.464-24.035-1.73-16.12-3.326-33.854-7.065-49.614-.998-3.772-1.603-8.07-3.326-11.57-1.014-1.416-2.133-1.836-3.36-1.883zm16.367 204.943c7.504 1.883 14.555 4.472 20.616 9.428 9.726 7.384 21.21 25.655 20.509 29.995 0 0-9.137-4.344-17.702-.612-1.477-8.715-5.442-16.49-10.517-23.662-3.247-4.61-6.979-8.975-10.984-12.953-.678-.725-1.623-1.258-1.922-2.196zm-29.187 2.754c.408-.008.815-.005 1.22.008-.965 3.945-1.444 7.89-2.542 11.841-.871 5.282-2.455 10.412-3.12 15.747-.572-.02-1.057-.18-1.457-.48-2.74-1.643-6.027-2.56-9.187-2.913-9.307-.772-18.566 3.818-23.955 11.395-1.962-.332-3.54.406-5.442.652.865-4.463 3.154-8.687 5.435-12.572 2.249-3.732 5.276-6.6 8.096-9.84 3.912-3.619 8.342-6.42 13.025-8.934 5.476-2.476 11.812-4.789 17.927-4.903zm18.55 13.167c3.858 4.177 7.63 8.328 10.723 13.125-1.01-.22-2.022-.393-3-.739-3.686-.918-6.999-.293-10.571.712.805-4.338 2.142-8.701 2.847-13.098z"/>
<path d="M244.155 34.872c2.048 4.53 2.5 9.273 3.658 14.356a350.4 350.4 0 0 1 4.803 34.074c.42 5.275 1.318 10.657 1.524 15.972.738 3.952.226 8.016.958 11.928.1 2.129.1 4.27.233 6.386.512 1.57 1.25 3.087 2.002 4.557 5.216 8.422 12.713 14.396 21.228 19.266 12.46 6.712 26.437 10.404 40.64 9.466 2.235-.592 1.83-2.548 1.91-4.377.378-5.675-3.62-9.992-7.957-13.032-7.63-5.269-15.26-9.314-21.7-16.212-4.338-4.331-7.69-10.046-8.822-16.106-.825-6.1-.16-12.087 2.269-17.749 2.262-4.856 4.97-9.446 8.681-13.345.765 3.194 1.923 6.3 2.994 9.4.4 1.364 1.816 2.934 3.3 2.967 1.809-2.394 2.275-5.089 3.692-7.683 4.81-10.358 11.495-19.685 20.642-26.643l.44-.04c1.03 4.344.492 10.112 3.492 13.93 1.743.04 2.767-2.315 3.752-3.493 3.246-3.964 6.672-8.076 10.77-11.176 2.768-2.408 6.087-4.217 9.287-5.98 6.313-3.007 13.757-4.052 20.676-4.191.28 3.978.439 7.923-.246 11.874-1.264 7.052-4.338 13.292-7.95 19.399-1.896 2.98-3.579 5.994-4.577 9.407-.658 3.658-.838 7.464 2.07 10.224 3.671 3.426 10.477 1.577 12.965-2.488 4.005-5.122 6.805-10.51 11.395-15.24 4.55-4.897 10.485-8.655 16.585-11.316 5.721-2.329 12.088-3.32 18.241-3.247-.772 2.415-3.626 5.043-4.045 7.604.433.32.918.559 1.457.725 10.85.473 21.62 6.147 30.575 11.955-.407 1.426-5.463 3.83-9.8 7.337.12.812 1.484 1.278 2.116 1.677 5.01 1.976 9.82 3.998 14.31 7.031 6.706 4.617 12.553 10.518 17.961 16.545-.12 1.29-.938 2.455-1.51 3.626-3.885 7.29-8.036 14.156-14.622 19.365-2.375 2.082-5.102 3.819-7.83 5.402-.884.678-1.876.785-1.856 2.102 1.29 1.33 3.52 2.016 5.15 2.947 3.738 1.603 7.304 3.533 11.116 4.976-2.449 4.464-5.296 8.588-8.702 12.38-4.224 4.49-8.395 8.921-13.484 12.46-5.076 3.792-10.79 6.26-16.685 8.43 2.588 3.252 8.03 5.328 10.531 8.74-3.42 2.562-8.488 4.391-12.7 5.25-5.428 1.183-11.023 1.51-16.51.445-7.359-1.184-14.404-5.475-19.752-10.55-2.295-1.997-4.191-4.239-6.892-5.735-2.634-1.81-5.349-3.04-8.635-2.488-3.54.246-6.56 2.82-6.952 6.42-.539 3.173 1.018 6.286 2.887 8.747 5.349 6.24 12.886 10.937 18.049 17.217 3.698 4.384 5.927 9.34 8.561 14.363-18.653 5.276-36.302-2.21-51.822-12.075-2.741 2.397-1.285 9.07-.965 12.407-11.262-2.427-18.424-9.407-22.722-10.798-1.071 1.384-.566 5.19-.566 5.19s-14.325-11.595-14.352-11.615c-1.59 3.073-2.075 6.62-3.472 9.653-.4-.007-.772-.167-1.118-.486-3.592-2.747-7.125-5.082-9.832-8.808-4.597-5.435-8.35-11.801-8.495-19.119-.014-4.996 2.62-9.493 6.592-12.407 4.457-3.778 9.5-4.91 14.922-6.573 4.45-1.323 8.834-2.74 13.072-4.676 1.69-.865 3.333-1.524 4.75-2.827.16-1.79-.752-2.94-2.355-3.56-3.553-.14-7.138.034-10.684-.24-10.824-1.41-22.273-3.518-32.325-7.909-5.162-2.754-10.025-5.568-14.156-9.786-1.098-1.17-2.288-3.366-4.111-3.193-.712.745-.313 2.295-.42 3.273.22 8.648.14 17.317-.092 25.965-.652 4.377-.187 8.927-.899 13.271-.705 10.551-1.915 22.1-3.113 32.63-.432 2.283-.845 4.797-.559 7.112.386.552.845.965 1.364 1.238 8.555.392 16.997 2.069 24.687 6 6.82 3.087 12.407 7.664 17.935 12.613 5.116 5.143 9.194 10.983 12.54 17.41 5.612 10.505 9.92 24.548 8.715 33.887 0 0-1.164-.093-1.743-.18-.313-4.31-2.614-7.536-5.382-10.67-.166-.445-.193-.958-.08-1.55.187-2.96-.651-5.535-1.39-8.362-2.242-7.198-6.207-13.245-10.704-19.206-2.202-2.62-4.783-4.982-7.198-7.41-1.73-1.79-4.058-3.107-6.04-4.624-9.46-6.353-20.09-10.69-31.706-9.174-1.67 1.111-1.357 3.074.093 4.205 7.065 6.473 14.09 13.251 19.046 21.54 4.132 6.413 8.056 14.396 8.136 22.153-1.856 1.37-3.579 2.914-5.308 4.437-.233-6.366-2.242-12.5-5.462-17.975-4.936-7.69-10.491-14.569-17.962-19.937-1.117-.792-2.355-.885-3.14.386-1.204 1.264-.738 2.607-1.197 4.124-2.195 8.17-3.725 16.478-6 24.614-.4 1.238-.4 2.468-.633 3.746-2.434.007-4.823.213-7.158.931.44-10.039 3-19.764 5.083-29.497.732-3.878 1.244-7.857 2.262-11.682.206-1.01.492-2.122-.014-3.093-.825-.725-1.982-1.065-3.027-1.37-3.452-.04-6.798.345-10.218.745-6.027 1.217-11.795 3.718-17.19 6.619-13.584 7.517-24.341 20.869-27.361 36.249-.093.925-.08 1.856.04 2.794a24.538 24.538 0 0 0-4.923 3.473c-.532-.805-1.544-1.55-1.863-2.448.492-1.298.985-2.515 1.158-3.905.552-5.05 1.922-10.039 3.705-14.789 4.37-9.693 11.276-18.474 19.944-24.687 6.38-5.123 14.456-8.555 22.18-11.096 3.28-.912 6.579-1.63 9.972-1.923 2.441-.705 4.89-.213 7.304-.546 2.7-1.889 1.184-4.117 2.002-6.845 3.66-27.628 4.797-55.209 2.98-83.056-.132-.818-.897-1.69-1.65-2.036-1.143.493-2.108 1.397-3.12 2.123-3.132 2.508-6.439 4.71-9.898 6.745-9.134 5.395-19.166 9.892-29.537 12.274-5.222 1.384-10.617 2.162-15.98 2.747-6.14.686-12.5.413-18.686.533-1.098.073-1.97.685-2.594 1.563.272 1.011.352 1.976 1.283 2.601 2.23 1.65 4.963 2.641 7.425 3.912 5.062 2.148 10.231 4.244 15.56 5.654 7.57 2.621 14.582 5.854 19.565 12.394 3.313 4.237 4.404 9.932 3.066 15.12-1.563 7.731-7.317 13.705-13.364 18.355-6.433 4.444-13.944 7.351-21.528 9.054.306-3.5 1.983-7.704 1.011-11.156-2.368-.707-21.81 12.3-48.556 12.127 2.382-3.492 4.45-7.178 6.094-11.083l-.087-.971c-4.45.306-8.734 1.523-13.205 1.53-7.424.206-15.187.253-22.445-1.377-6.626-1.098-13.571-3.173-19.166-6.985 1.59-1.49 3.293-2.84 4.83-4.39 5.248-5.096 11.289-7.651 17.775-10.724 6.845-2.908 13.465-6.074 19.345-10.691 3.22-2.209 4.704-6.44 3.02-10.072-1.164-2.707-4.437-4.044-7.184-4.297-3.44-.333-6.32.924-9.46 2.095-4.078 1.677-7.55 4.49-11.535 6.4-8.535 4.43-18.095 5.668-27.581 4.524-5.515-1.071-12.188-2.488-16.605-6.174 2.668-1.284 5.302-2.401 7.524-4.417.406-.293.466-.725.18-1.297-1.171-1.51-3.553-1.737-5.203-2.708-5.84-2.315-11.13-5.814-15.666-10.138 3.16-1.637 8.09-2.734 10.477-5.389-4.121-3.557-8.902-4.23-17.263-13.318-2.002-2.249-3.432-4.81-5.155-7.265 1.882-2.647 3.845-5.341 6.18-7.617 4.078-3.505 8.555-5.887 13.185-8.774a4.33 4.33 0 0 0 1.517-1.597c-.965-1.383-2.315-1.916-3.712-2.754-2.142-1.144-4.265-2.342-6.467-3.38 19.263-14.452 28.413-12.368 30.582-14.442-4.071-3.632-7.018-8.222-11.535-11.455 2.062-1.151 4.144-1.33 6.34-1.95 12.5-2.401 25.578-1.037 36.528 5.795 5.894 3.865 11.003 9.819 16.032 14.509 2.648 2.182 6.067 4.284 9.613 4.104 2.01.107 4.072-.845 5.562-2.148 1.969-2.242 1.842-5.535 1.37-8.303-1.13-3.073-3.36-5.009-5.608-7.238-4.85-4.15-9.812-7.743-14.296-12.32-6.56-6.346-11.649-14.11-13.924-23.01 1.936-.753 4.211-1.298 6.26-1.617 12.633-2.083 25.918 2.055 37.061 7.87.892.379 2.255 1.39 3.24.977.592-3.406-.26-6.506-.579-9.839 3.253 1.617 6.885 2.369 10.165 3.959 10.524 4.816 19.026 12.054 26.963 20.35.645.791 1.337.791 2.275.904 1.663-3.466 2.368-7.164 3.28-10.863 1.643 1.39 3.412 2.608 5.069 3.978 8.355 6.613 14.575 16.452 16.644 26.923 1.377 7.783.22 15.879-4.597 22.332-5.561 7.258-13.538 12.067-21.407 16.445-4.996 2.933-9.846 5.189-13.95 9.42-2.429 2.255-3.66 5.747-3.447 9.02.034 1.63 1.557 2.974 3.147 2.974 9.553.752 19.425-.44 28.679-2.847 6.945-1.836 14.096-4.125 20.43-7.564 7.876-3.945 15.067-9.147 20.25-16.372 2.807-4.151 5.348-8.202 4.916-13.444-1.577-22.273-3.905-45.743-10.391-67.17-.2-.759-.62-1.664-.44-2.455 1.45-1.018 3.593-1.238 5.23-1.983 2.434-.751 5.162-2.288 7.73-2.108z" fill="#094"/>
<path d="M215.096 266.825c-5.604.058-11.112 2.602-14.755 6.936 8.096 1.716 15.774 8.649 16.685 17.097 1.031-5.202 5.508-10.038 10.118-12.513-.173-2.082-.093-4.151.014-6.227-1.557-2.235-4.617-4.39-7.371-4.743a18.44 18.44 0 0 0-4.691-.55zm39.866.802c-.237.006-.473.016-.709.034-2.847.26-5.142 1.583-7.577 2.96-.659 1.63-1.038 3.367-1.477 5.057 5.715 1.011 11.256 4.21 14.416 9.16 1.59 2.368 2.235 4.996 3.067 7.637 2.208-.12 4.456-.213 6.665-.04-1.01-3.065-.174-16.56-4.43-21.574-2.838-2.108-6.407-3.321-9.955-3.234zm109.217 1.473c-5.074-.079-10.14 1.782-13.925 5.353.998.878 2.262 1.444 3.333 2.235 3.566 2.768 5.602 6.567 7.072 10.751 2.142-5.335 8.535-8.594 13.984-9.226 1.71-.426 3.619-.114 5.382-.247-1.238-3.273-4.917-5.795-8.05-7.112a19.384 19.384 0 0 0-7.796-1.754zm-216.669.585c-1.426-.02-2.86.079-4.26.218-4.723.845-9.592 3.327-12.613 7.112-.931 1.597-2.82 3.711-2.687 5.614 3.645 1.164 6.08 2.761 8.635 5.582 1.03-5.043 5.008-9.147 8.92-12.227 3.273-1.91 7.039-3.22 10.804-3.68-2.566-1.97-5.66-2.577-8.799-2.62zm182.508 9.858c-4.29 2.015-7.204 5.694-8.867 10.071l.085.68c7.744 1.323 14.384 7.875 16.951 15.133 2.555-7.544 8.575-13.856 16.63-15.167l.334-.612c-1.124-5.022-5.329-9.214-9.945-11.243-4.713-1.968-10.025-1.408-15.188 1.138zm-39.848-1.756c-8.09 1.27-14.483 8.315-14.956 16.505 6.533 2.754 11.376 7.949 13.246 14.84 2.794 7.671.865 16.36-4.331 22.56 7.684-.174 14.47 3.904 18.794 10.09 1.556-2.274 3.013-3.89 5.049-5.747-8.476-2.328-15.361-10.058-17.324-18.547-.113-1.79-.026-3.592-.026-5.382.798-3.213 1.377-6.945 3.06-9.819 1.89-3.472 4.783-6.332 7.89-8.727 2.202-1.424 4.59-2.283 7.065-3.101.313-2.515-1.43-5.268-2.94-7.158-2.07-2.674-5.05-4.137-8.156-5.288-2.926-.479-5.421-.438-7.371-.226zm-130.223.06c-1.345-.031-2.702.12-4.044.479-5.123 1.09-10.511 4.263-12.94 9.066-1.03 1.703-1.19 3.752-1.576 5.721 4.17 1.41 8.03 3.08 11.084 6.38 1.284 1.304 2.108 2.781 3.186 4.238 3.08-5.794 9.247-9.659 15.547-10.896-.086-2.548.784-4.578 1.583-6.926.612-1.723-.699-2.561-1.756-3.646-3.119-2.604-7.05-4.325-11.084-4.417zm34.724 1.113c-.885.023-1.771.126-2.652.317-6.739 1.144-13.637 6.2-14.908 13.238 8.216.106 16.345 5.222 19.299 13.005 1.683-3.472 3.945-6.566 7.072-8.867 2.481-1.896 4.902-3.646 8.029-4.291-.287-4.131-2.98-7.411-6.1-9.886-3.12-2.222-6.91-3.617-10.74-3.516zm45.797 2.091a23.953 23.953 0 0 0-6.971.953c-4.61 1.417-9.4 5.142-11.096 9.732 8.083 1.025 15.513 6.1 18.52 13.824.393.526.466 2.083 1.297 1.883 2.342-6.825 7.85-11.276 14.43-13.777-.839-4.238-3.58-8.369-7.451-10.398-2.59-1.5-5.654-2.174-8.729-2.217zm138.393 2.786a23.697 23.697 0 0 0-5.416.522c-2.368.505-4.145 1.836-6.04 3.247-.76.645-1.67 1.19-2.05 2.135 7.485 1.39 13.878 6.22 17.33 12.979 1.99 4.091 2.488 8.495 1.996 12.986l.572.153c2.288-.779 4.83-1.485 6.806-2.908 4.024-2.681 6.08-8.069 5.448-12.785-.605-4.97-3.193-9.973-7.464-12.753-3.325-2.356-7.213-3.492-11.182-3.576zm-256.778 3.153c-7.941.05-15.734 5.981-17.39 13.873-1.27 3.992-.233 8.436 1.842 11.962 1.158 1.976 3.819 2.328 5.821 3.392-.086-5.96 2.308-12.127 6.466-16.425 3.293-3.552 8.136-6.685 13.085-6.898l1.225-.525c-1.956-2.309-3.772-3.773-6.66-4.777a15.364 15.364 0 0 0-4.389-.602zm238.077 8.137c-5.912.1-11.648 3.347-14.735 8.411-2.88 4.697-3.087 10.957-.706 15.893 1.963 4.41 5.988 7.903 10.512 9.526 6.965 2.255 15.353.206 19.857-5.748 1.863-2.195 2.987-4.89 3.446-7.724.878-4.09-.373-9.027-2.72-12.466-3.194-4.757-8.729-7.803-14.47-7.87-.395-.022-.79-.03-1.184-.022zm-44.964.116c-1.086.025-2.166.159-3.213.412-5.555.698-10.784 4.79-13.258 9.766-1.297 2.555-1.75 5.235-2.13 8.042.287 4.624 1.75 9.074 5.183 12.354 5.481 5.561 14.03 6.6 21.135 3.899 7.55-3.147 11.862-11.61 10.292-19.566-.878-5.089-4.065-9.945-8.622-12.473-2.794-1.607-6.127-2.51-9.387-2.434zm-97.12 1.806a18.096 18.096 0 0 0-6.771 1.473c-1.956 1.11-4.165 1.989-5.655 3.612-4.537 4.424-6.779 10.977-5.19 17.21 1.378 7.085 7.312 12.992 14.55 13.877 3.872 1.224 8.602.067 12.228-1.523 5.907-2.661 9.412-8.536 9.944-14.876.552-5.355-1.583-10.464-5.241-14.316-3.65-3.654-8.778-5.581-13.865-5.457zm46.118 1.246a28.381 28.381 0 0 0-4.007.334c-6.972 1.583-12.846 7.617-13.751 14.775-1.13 5.568 1.164 12.027 5.15 16.025 6.339 5.808 16.158 6.713 23.475 2.203 7.637-4.324 10.592-14.836 7.006-22.692-2.415-5.675-7.723-9.766-13.85-10.544a53.493 53.493 0 0 0-4.023-.101zm-127.92.011c-5.328-.15-10.662 1.931-13.84 6.456-4.317 4.897-5.328 11.642-3.006 17.715 2.075 4.837 6.36 9.2 11.575 10.485 2.242.372 4.21 1.017 6.486.332 6.825-.326 13.052-5.181 14.749-11.834-.5-3.991-.273-7.884 0-11.882-1.903-4.97-5.609-8.74-10.718-10.384a19.154 19.154 0 0 0-5.246-.888zm38.765.044c-1.544.014-3.105.123-4.481.63-6.074 1.584-10.85 7.106-12.088 13.173-1.37 6.732 1.637 13.504 6.806 17.795 5.435 3.772 12.367 4.005 18.334 1.324 4.797-2.129 8.29-6.64 9.161-11.802.053-2.222-.026-4.444.033-6.672-.778-7.717-7.33-13.937-15.048-14.436-.87.005-1.791-.02-2.717-.012zm220.046 19.577c-3.851 2.329-7.856 3.959-12.426 4.032-1.537 3.898-4.251 6.752-7.338 9.473 6.752 4.124 10.271 11.781 9.513 19.598 3.965 1.03 7.784.705 11.35-1.377 5.461-2.774 8.54-8.928 8.767-14.882.4-7.045-3.918-13.37-9.866-16.844zm-56.346 2.202c-.28.652-.545 1.318-.798 1.983-1.524 3.965-4.198 7.124-7.218 10.031 4.364 1.058 7.55 3.826 10.404 7.145 1.251-3.02 3.712-6.034 6.367-7.943-4.012-2.894-6.852-6.673-8.755-11.216zm-232.723.127c-4.23 2.448-7.99 6.778-9.054 11.628-1.423 5.641-.033 12.234 3.785 16.671 1.23 1.138 2.868 2.734 4.638 2.748-.672-8.629 4.064-16.711 11.68-20.683.047-.865-.93-1.657-1.317-2.395-1.204-1.597-1.616-3.485-2.488-5.228-1.357-.32-2.667-.4-3.911-1.085-1.118-.419-2.175-1.51-3.333-1.656zm263.735 14.093c-.15.007-.297.039-.444.103-5.468 2.109-11.19 1.676-16.718.066-3.446 2.475-6.312 5.549-7.65 9.66-.212 2.375.779 4.783.832 7.211-.08 3.26 1.862 6.573 3.978 8.955 2.828 2.108 6.515 3.563 9.893 4.71 5.109.731 10.064-.733 14.022-4.006 3.167-3.233 4.897-7.091 5.196-11.621-.007-5.15-2.169-10.079-6.193-13.345-.786-.559-1.872-1.78-2.916-1.733zm-248.51.538c-.142.01-.293.055-.457.144-3.585 1.563-6.359 5.056-7.995 8.521-2.043 4.039-1.85 8.782-.028 12.86 1.93 4.038 5.549 7.004 9.727 8.468 5.189 1.43 11.695.466 15.9-3.046-.054-.892-.653-1.73-.88-2.602-1.104-3.167-1.07-6.44-.678-9.732.672-4.404 3.047-7.591 5.429-11.183-2.96.997-5.967 1.597-9.1 1.37-3.72-.551-7.245-1.716-10.319-3.91-.545-.347-.986-.935-1.6-.89zm202.478 1.51c-.742.014-1.488.083-2.23.21a23.357 23.357 0 0 1-3.393.593c-1.124.093-2.248.059-3.379.086-3.785 2.128-6.519 5.415-8.189 9.406.58 3.64 1.13 7.02.778 10.764 1.197 4.544 4.737 9.287 9.394 10.657 3.945 1.644 8.774 1.39 12.712-.153 3.739-1.403 6.327-4.204 8.35-7.55 2.654-5.302 2.434-12.121-.939-17.064-2.835-4.441-7.905-7.048-13.104-6.95zm-164.373.156c-.521-.003-1.044.013-1.567.048-1.071.326-2.102.479-3.206.585-3.713 1.125-6.746 3.506-9.054 6.606-2.828 4.291-3.753 9.666-2.09 14.582 1.417 4.231 4.504 8.19 8.708 9.913 6.034 2.654 13.246 1.23 18.209-2.994 1.084-1.197 2.115-2.495 3.106-3.779.107-1.71-.712-3.12-.692-4.79-.246-3.385.678-6.911 1.902-10.044-1.077-2.814-2.58-5.31-5.002-7.166-3.102-1.985-6.668-2.94-10.314-2.961zm124.373.627c-1.225-.01-2.45.115-3.655.385-2.488.027-4.796 1.763-7.098 2.648-5.555 4.151-8.488 11.688-6.778 18.5 1.33 6.872 7.07 12.56 13.983 13.745 3.871.22 7.518.398 11.117-1.318 5.514-2.275 9.013-7.976 9.732-13.744.306-4.717-.486-9.559-3.52-13.33-3.21-4.255-8.476-6.84-13.781-6.886zm-45.427.374c-2.666.055-5.372.594-7.483 1.642-5.754 2.893-9.825 9.013-9.692 15.526-.246 5.129 1.637 10.225 5.469 13.697 6.14 6.06 17.043 6.347 23.695.991 6.879-5.395 8.223-15.873 3.919-23.263-2.15-3.832-5.841-6.66-10.059-7.857-1.726-.53-3.775-.78-5.849-.736zm-41.611.325c-1.136-.017-2.257.106-3.305.425-6.3.951-11.103 5.628-13.265 11.482-2.688 6.54-.425 14.442 4.63 19.212 3.24 2.807 7.272 4.69 11.629 4.564 6.3.06 12.587-2.76 15.82-8.349.831-1.763 2.128-3.839 1.909-5.828-.226-2.681-.166-5.341-.18-8.022-1.756-5.588-6.007-10.671-11.695-12.494-1.713-.545-3.65-.961-5.543-.99zm186.124 20.322c-1.397 2.541-2.947 4.936-4.916 7.079-3.22 2.88-7.577 5.235-11.968 5.328 1.796 3.226 3.52 6.247 3.686 10.052.385 3.12-.479 5.927-.832 8.934 5.342.778 10.63-.565 14.835-3.971 4.577-3.925 7.125-10.278 6.507-16.272-.825-4.35-2.649-9.68-7.312-11.15zm-270.303 7.285c-3.432 2.721-5.162 6.865-5.222 11.19-.752 9.945 8.521 19.212 18.447 19.005-.466-6.692 1.244-13.544 5.928-18.514 1.177-1.703 3.46-2.727 4.464-4.33-.739-.719-1.438-1.604-2.33-2.13-2.674.333-5.22 1.019-7.948.819-4.797-.506-10.172-2.181-13.339-6.04zm227.54 2.521c-1.662 1.97-3.91 3.14-5.686 4.969-1.723 1.696-2.715 4.218-3.447 6.48.12 2.162.965 4.264 1.291 6.412.306 1.783.073 3.653.399 5.449 2.967 4.59 8.489 8.236 14.11 7.843 6.713.493 14.01-4.037 15.926-10.617 1.59-5.042 1.085-10.684-2.182-14.948-1.29-1.936-3.18-3.399-5.442-4.004-5.073-2.494-9.595-2.55-14.968-1.584zm-32.571 4.255c-1.708.01-3.427.16-4.994.688-2.615.552-4.803 2.88-6.779 4.603-2.235 2.102-3.286 4.824-3.912 7.77-1.436 5.402.26 11.529 4.098 15.567 2.814 2.328 6.513 4.697 10.238 4.916 4.677.799 10.059-.26 13.678-3.473 2.914-2.062 4.83-5.614 5.747-9 .732-5.003.373-9.952-2.594-14.196-1.603-2.09-3.286-4.444-6.18-4.385-2.262-.485-4.171-1.576-6.274-2.414-.982-.04-2.003-.083-3.028-.076zm-53.737 4.56c-7.764 5.195-9.52 17.37-3.652 24.627 5.534 7.777 16.877 8.948 24.494 3.56 4.517-2.981 6.766-8.457 7.145-13.685.394-17.732-20.842-20.11-27.987-14.503zm-104.49-1.88c-4.665-.094-9.22 1.92-12.473 5.352-3.2 3.56-5.342 8.162-5.103 13.018.56 5.302 3.053 10.878 7.876 13.579 3.932 2.548 9.38 2.614 13.725 1.21 2.794-1.463 5.522-3.366 7.956-5.368.785-.512.26-1.524.107-2.236-1.131-3.459-2.256-7.563-1.398-11.182.213-2.64 1.277-4.87 2.229-7.298-1.144-1.803-2.721-3.34-4.384-4.67-1.457-1.278-3.48-1.544-5.303-1.996a15.336 15.336 0 0 0-3.232-.41zm32.57.083c-1.15.273-2.241.652-3.432.719-5.01 1.11-9.254 4.943-11.164 9.686-2.62 6.014-1.223 13.617 3.507 18.207 6.06 6.526 17.735 6.174 23.73-.266 2.141-2.202 3.664-4.976 3.817-8.082.426-2.408.326-4.903.393-7.331-.765-3.04-2.255-5.708-3.998-8.29-1.364-.345-2.794-.478-4.185-.698-3.173-.679-6.013-2.115-8.668-3.945zm38.93 1.137c-3.582.091-7.06 1.25-9.858 3.72-3.672 3.512-6.14 8.262-6.194 13.425-.02 7.524 5.255 14.222 12.394 16.364 3.592.892 7.69.758 11.195-.466 5.801-1.922 9.88-7.157 10.478-13.224.14-2.721.287-5.242-.665-7.85-.851-2.92-2.72-5.615-4.883-7.724-2.142-1.776-4.976-2.807-7.57-3.732a19.458 19.458 0 0 0-4.896-.513zM330.45 397.19c-.226.612-.452 1.23-.685 1.843-1.31 2.474-3.053 4.817-4.929 6.899l-.087.512c4.477.891 8.815 2.788 12.048 6.087 4.73 4.278 7.19 11.043 6.898 17.343 8.342-.4 15.101-7.684 15.38-15.94.227-3.831-.578-7.603-3.246-10.477-1.297.273-2.515.918-3.779 1.324a39.352 39.352 0 0 1-10.045.08c-4.457-1.224-8.788-3.932-11.555-7.671zm-42.19 9.235c-1.925-.028-3.904.261-5.76.55-.725.586-1.391 1.245-2.123 1.824-1.79 1.364-3.884 2.442-5.854 3.506-2.853 3.799-4.437 8.295-3.6 13.065.36 4.717 3.507 9.153 7.28 11.848 4.057 2.56 9.372 2.953 13.975 1.995 5.794-1.33 10.092-5.866 11.828-11.448 1.684-5.708.027-12.054-4.07-16.325-2.768-2.076-6.194-4.79-9.773-4.87a14.56 14.56 0 0 0-1.902-.145zm-41.782 3.653c-2.345.033-4.678.298-6.934.996-2.295 1.484-5.148 3.127-6.625 5.489-3.093 4.184-3.613 9.805-2.715 14.794 1.77 7.032 8.675 12.713 16.053 12.261 4.61.38 9.107-1.457 12.346-4.697 3.42-3.433 5.03-8.21 4.764-13.012-.047-4.318-2.329-8.189-5.15-11.309-1.004-1.21-2.574-1.45-3.97-1.97-1.896-.631-3.5-2.055-5.423-2.514a41.645 41.645 0 0 0-2.346-.038zm-78.759.095c-7.465-.095-14.566 6.141-15.043 13.714-.871 7.677 4.817 15.6 12.341 17.31 5.575 1.35 11.88.22 15.753-4.291 1.79-1.743 3.2-3.68 2.793-6.327-.519-4.105-.079-7.524 1.252-11.416-1.071-1.676-2.222-3.36-3.592-4.81-4.657.147-9.115-1.29-12.78-4.15a13.16 13.16 0 0 0-.724-.03zm38.576.562c-2.348.053-4.57-.1-6.732.991-6.067 2.408-9.986 9.134-10.085 15.507.239 5.249 2.873 11.235 7.557 13.976 6.48 4.43 16.265 3.42 21.707-2.255 2.262-2.381 3.979-5.72 4.045-9.047.02-2.9.3-6.154-.978-8.808-.725-2.043-1.956-3.765-3.353-5.402-4.624-.166-8.642-2.055-12.16-4.962zm114.06.7c-4.062.143-8.115 1.848-10.521 5.114 1.87 6.79.62 13.16-2.853 19.265 2.035 3.992 5.115 7.252 9.652 8.197 4.756.672 10.072.731 14.23-2.016 5.622-3.653 8.302-11.47 6.213-17.802-1.483-5.562-5.82-10.245-11.329-11.981-1.696-.583-3.545-.84-5.392-.776zm-52.854 31.939c-1.428.008-2.86.11-4.32.177-2.92 2.508-5.928 4.63-9.78 5.436-3.292 4.157-4.324 10.264-2.235 15.187.685 1.636 1.803 3.12 2.827 4.563 4.477 4.744 11.243 6.347 17.43 4.325 3.792-1.277 7.258-4.072 8.954-7.744 1.158-3.52 1.724-7.124 1.318-10.83-.825-2.434-1.471-4.89-3.36-6.772-1.816-1.93-4.085-3.047-6.533-3.952-1.447-.312-2.872-.399-4.3-.39zm-77.384.07c-5.176-.086-10.784 2.888-13.245 7.525-3.726 6.499-2.415 15.487 3.146 20.556 3.546 3.686 9.56 4.53 14.369 3.619 5.295-.945 9.467-4.79 11.616-9.62.366-1.15.213-2.508.12-3.699-.246-2.381.08-4.636.499-6.978.499-1.743-.493-3.751-1.525-5.122-.997-.406-2.34-.127-3.425-.293-4.444-.705-8.375-2.814-11.555-5.987zm36.005.167c-1.222.012-2.417.133-3.415.645-1.936 1.95-4.178 3.367-6.513 4.777-3.46 4.398-5.07 9.912-3.193 15.354 1.204 2.927 2.508 5.767 5.388 7.384 5.615 3.373 13.672 4.044 19.133-.007 7.065-5.076 8.322-15.846 2.5-22.34-.638-.565-1.648-.61-2.42-.943-3.1-.938-5.481-2.787-7.91-4.856-1.1.073-2.348-.026-3.57-.014zm75.85 3.27c-1.241.015-2.492.17-3.74.475-4.244.685-7.85 3.52-9.959 7.171.1 1.783.26 3.527.014 5.31-.273 2.228-1.125 4.43-1.244 6.645.751 4.863 4.338 8.888 8.542 11.243 4.018 2.062 9.027 2.176 13.338 1.051 4.21-1.084 7.783-3.958 9.526-7.976 3.506-7.258.459-16.152-5.928-20.703-3.193-2.065-6.827-3.263-10.55-3.216zm-19.147 24.43c-1.018.946-1.643 2.19-2.621 3.174-2.196 2.481-5.448 4.091-8.72 4.49-.773 1.138-1.451 2.762-1.511 4.132.904 3.107.292 6.679.372 9.925 1.084 4.045 4.184 6.992 7.983 8.569 3.153 1.663 6.294 1.27 9.74 1.097 3.645-1.038 7.038-2.56 9.24-5.8 2.634-3.486 3.173-7.757 2.381-11.975-4.357-.425-8.635-2.535-11.848-5.475-2.05-2.415-3.745-5.229-5.016-8.136zm-35.538 2.612c-1.149-.008-2.284.05-3.259.276-2.255 2.681-5.182 4.364-8.475 5.468-.878 1.743-1.69 3.494-2.156 5.41-.22 3.472-.485 7.33 1.125 10.537 2.242 4.989 7.59 8.295 13.065 8.042 4.304.306 8.449-1.416 11.609-4.27 5.395-5.322 6.333-14.323 1.789-20.457-4.171-.033-7.324-2.302-10.365-4.883-1.024-.04-2.185-.114-3.333-.123zm-35.734 1.603c-1.377.031-2.651.44-4.053.768-2.528 1.377-4.85 3.127-7.239 4.717a19.225 19.225 0 0 0-1.862 3.48c-3.28 8.734 3.898 19.598 13.271 19.804 6.314.759 12.807-2.621 15.281-8.562.712-1.297.186-3.213.073-4.643-.392-1.816.193-3.52.08-5.368a12.904 12.904 0 0 0-2.628-5.529c-4.404-.392-8.023-1.843-11.502-4.557-.49-.09-.961-.121-1.42-.11zm55.327 23.267c-1.87 2.302-3.334 5.428-5.782 7.132-2.155 1.317-4.656 2.68-7.204 2.894-.978 1.77-1.603 3.372-1.217 5.441.612 2.502.252 5.076.765 7.557 2.221 4.664 6.925 8.31 12.1 8.922 3.793.246 7.33.332 10.677-1.73 5.508-3.007 8.696-9.08 8.05-15.3-.439-1.55-.666-3.686-1.524-5.043-1.623-.3-3.253-.506-4.883-.753-2.78-1.084-5.787-2.42-7.803-4.702-1.177-1.397-2.042-2.968-3.18-4.418zm-36.829 4.021c-.607.007-1.164.12-1.41.596-2.282 3.526-6.653 5.655-10.644 6.553-1.085.193-1.949-.32-2.548.891-1.496 2.335-2.441 4.69-2.308 7.524-.466 5.622 3.552 11.036 8.355 13.531 6.786 3.905 16.904 2.475 21.8-3.865 3.134-3.971 3.526-9.872 1.83-14.509-.673-1.43-1.61-3.52-3.054-4.27-3.053-1.052-6.4-2.21-8.568-4.744-.54-.559-1.011-1.39-1.743-1.67-.445.053-1.103-.045-1.71-.037zm20.197 24.392a44.831 44.831 0 0 0-.831 1.703c-2.402 5.022-7.092 8.702-12.447 10.112-2.062.698-4.45.52-6.626.818 1.271 4.378 5.548 7.943 9.806 9.3 2.993 1.197 6.313 1.018 9.473.72 3.16-.666 6.406-1.704 8.641-4.166 2.82-2.375 4.49-5.834 4.41-9.546-.465-.406-1.05-.645-1.769-.718-4.623-1.111-8.309-4.118-10.657-8.223z" fill="#1c63b7"/>
</svg>
