<?xml version="1.0" encoding="UTF-8"?>
<svg width="600" height="706.38" version="1.1" xmlns="http://www.w3.org/2000/svg">
 <path d="M300 700C161.37 700 6.4 590.88 6.4 414V6.41h587.21V414c0 176.88-154.97 286-293.6 286z" fill="#fff"/>
 <g transform="matrix(1.2793,0,0,1.2793,27705,28426)" stroke="#000">
  <g fill="#e7423f" stroke-width="5.5">
   <path d="m-21451-21994-69.722-0.123-35.069 35.872v15.636h-20.156l-0.232-11.016c11.898-18.584 28.054-40.616 40.387-56.144l44.029-0.109m168.76-3.116 54.095-0.463 0.08 52.339 12.994 0.1 0.231 16.999c-36.723-10.944-29.091-2.886-30.778-54.403-39.815 2.332-66.208 6.277-66.188-33.847" fill="#f00000"/>
  </g>
  <path d="m-21433-22199h4.269c-1.133 12.467-5.853 21.743-26.661 20.596v-0.899c15.054-0.739 20.969-6.816 22.392-19.697zm-11.234 0h4.269c-1.684 7.542-6.753 10.731-15.427 9.287v-0.936c4.935-0.268 10.21-0.833 11.158-8.351zm-14.23 0h3.072v35.493h-3.072z" fill="#fcdb00" stroke-linecap="round" stroke-linejoin="round" stroke-width="1.5"/>
  <path d="m-21528-22163 102.95-0.635c-3.69 18.177-14.662 19.936-31.451 19.488l-0.111-5.932c-1.159 81.654-5.779 94.959 17.581 92.146 74.219-8.632 118.56-18.252 128.79 8.897l-8.473 0.636 0.635 48.297 37.494-0.424c0.162 50.567-3.043 48.889 13.133 53.593l0.212 16.523c-30.326-3.967-21.967-9.278-28.173-56.559-36.443 2.134-60.602 5.743-60.583-30.967-0.131 3.866 0 7.865 1.059 12.326-24.453 6.96-58.434 10.743-97.23 12.922l0.212-13.448-0.424 22.246-66.726-0.113-31.501 34.952v14.306h-13.619l-0.212-14.73c10.89-17.003 21.994-32.509 33.283-46.716l43.984-0.1c-10.289-17.997-13.439-34.049-4.609-52.534 1.427-27.834 2.548-56.125 3.177-85.155 4.866 0.388 8.355 0.09 11.842-0.212-5.516 0.368-14.662 5.14-39.803-13.257h-11.552z" fill="#f00000" stroke-width="5.5"/>
 </g>
 <path d="m155.27 272.44 63.288-0.34285 1.5083 10.091-63.096 0.10234z" fill="#f00000" stroke-width="1.2793"/>
 <g stroke="#000">
  <circle cx="226.92" cy="92.064" r="7.3163" fill="#fff" stroke-width="2.5586"/>
  <path d="m594.37 414.35c0 176.88-154.97 285.99-293.6 285.99s-293.6-109.12-293.6-285.99v-39.847c293.57 0 293.6 260.22 293.6 325.84 0.013-65.614 0.013-325.84 293.6-325.84z" fill="#094" fill-rule="evenodd" stroke-width="5.1172"/>
  <path d="m55.79 498.78c9.403 5.592 15.62 16.426 15.925 21.126h3.513m19.439-21.126c-9.404 5.592-15.62 16.426-15.926 21.126h-3.513m0-34.621v34.621m-19.438-99.035c9.404 5.591 15.62 16.426 15.926 21.126h3.513m19.439-21.126c-9.404 5.591-15.62 16.426-15.926 21.126h-3.513m0-34.622v34.622m53.687 108.68c9.404 5.59 15.62 16.425 15.926 21.125h3.513m19.44-21.126c-9.405 5.592-15.621 16.426-15.927 21.126h-3.513m0-34.621v34.621m-19.439-99.035c9.404 5.592 15.62 16.426 15.926 21.126h3.513m19.44-21.126c-9.405 5.592-15.621 16.426-15.927 21.126h-3.513m0-34.622v34.622m46.549 110.03c9.404 5.592 15.62 16.426 15.926 21.126h3.513m19.439-21.126c-9.404 5.592-15.62 16.426-15.926 21.126h-3.513m0-34.621v34.621m-19.44-99.035c9.405 5.591 15.621 16.426 15.927 21.126h3.513m19.439-21.126c-9.404 5.591-15.62 16.426-15.926 21.126h-3.513m0-34.622v34.622m331.66-48.365c-9.404 5.592-15.62 16.426-15.926 21.126h-3.513m-19.439-21.126c9.404 5.592 15.62 16.426 15.926 21.126h3.513m0-34.621v34.621m19.44-99.035c-9.405 5.591-15.621 16.426-15.927 21.126h-3.513m-19.439-21.126c9.404 5.591 15.62 16.426 15.926 21.126h3.513m0-34.622v34.622m-53.687 108.68c-9.404 5.59-15.62 16.425-15.926 21.125h-3.513m-19.439-21.126c9.404 5.592 15.62 16.426 15.926 21.126h3.513m0-34.621v34.621m19.44-99.035c-9.405 5.592-15.621 16.426-15.927 21.126h-3.513m-19.439-21.126c9.404 5.592 15.62 16.426 15.926 21.126h3.513m0-34.622v34.622m-46.548 110.03c-9.405 5.592-15.62 16.426-15.926 21.126h-3.513m-19.44-21.126c9.405 5.592 15.62 16.426 15.927 21.126h3.513m0-34.621v34.621m19.439-99.035c-9.405 5.591-15.62 16.426-15.926 21.126h-3.513m-19.44-21.126c9.405 5.591 15.62 16.426 15.927 21.126h3.513m0-34.622v34.622" fill="none" stroke-linecap="round" stroke-linejoin="round" stroke-width="3.8379"/>
  <path d="M300 700C161.37 700 6.4 590.88 6.4 414V6.41h587.21V414c0 176.88-154.97 286-293.6 286z" fill="none" stroke-width="12.793"/>
 </g>
</svg>
