<?xml version="1.0" encoding="UTF-8"?>
<svg width="500" height="585" xmlns="http://www.w3.org/2000/svg">
<path d="m4.427 4.32 8.93 375.3c6.379 268.06 466.91 268.06 473.3 0l8.93-375.3z" fill="#0093dd"/>
<path d="M338.14 16.196c-2.437-.253-5.139 1.13-7.2 2.31-4.23 2.627-8.376 5.353-11.187 9.563-2.939 4.17-3.784 9.287-5.61 13.976-1.302 3.433-3.229 6.567-5.545 9.407-2.834 3.48-5.794 6.773-9.343 9.55-7.344-5.882-13.7-13.239-19.08-20.933-3.9-5.433-8.162-11.17-13.416-15.369-3.174-2.534-6.884-4.477-10.6-6.084-2.24-.915-4.78-1.9-7.227-1.946-1.821-.063-3.32 1.584-3.337 3.358-.08 2.172.897 4.355 1.646 6.36-3.669-2.869-7.632-5.306-11.919-7.137-3.26-1.36-7.493-3.173-11.06-2.39-1.573.34-1.533 1.651-2.097 2.902-5.11-1.28-10.001-2.004-15.076-.063-1.09.472-2.104 1.18-1.759 2.534.56 1.376 2.456 2.004 3.73 2.5 4.885 1.676 9.637 3.4 14.057 6.124 4.988 2.812 9.18 6.417 13.427 10.219 5.664 5.317 10.18 11.725 14.778 17.502 4.436 5.104 8.704 11.21 13.992 15.38 4.885 3.827 11.008 5.238 16.873 6.822-1.423 1.924-2.908 4.217-4.85 5.652-1.4 1.093-4 1.127-5.16-.347-1.565-1.712-2.71-3.866-4.036-5.773-2.5-3.773-5.52-7.2-9.402-9.597-2.95-1.854-6.116-3.024-9.164-4.667a132.39 132.39 0 0 0-5.427-2.717c-1.389 5.322-1.464 10.987-.133 16.32.708 2.448 1.827 4.797 2.819 7.142-4.32 1.895-8.551 3.687-12.617 6.084a121.82 121.82 0 0 1-8.243 4.427c-7.397 3.74-15.86 5.856-24 7.233-5.67.985-11.227 1.941-16.982 2.247-1.36.154-3.253.12-4.297 1.14-.939 3.353 1.36 6.802 1.573 10.063-.272 1.4-1.25 2.701-1.867 3.98-1.36 2.593-1.466 5.81-1.426 8.678.104 2.252.365 4.584 2.213 6.111 2.248 1.827 5.619 2.535 8.379 3.215 3.588.796 7.009 2.06 10.535 3.08 2.944.876 6.178 1.82 8.81 3.434 1.25.72 1.992 2.017 2.844 3.152-7.064.423-26.244 7.436-26.244 7.436s-.336 4.437.143 6.396c1.279 4.637 5.353 8.196 10.285 8.104 4.787-.26 9.584-1.532 14.303-2.327 3.267-.472 6.613-.525 9.903-.33 3.582.214 7.04 1.342 10.368 2.604a1247.6 1247.6 0 0 1 15 5.962c-.438 3.11-.95 6.04-2.562 8.787-1.63 2.853-4.626 4.792-7.358 6.485-9.574 5.71-19.786 10.392-29.24 16.285-6.071 3.79-9.919 9.023-14.986 13.856-3.515-3.94-5.154-8.579-6.731-13.516-1.93-6.47-3.64-12.996-5.201-19.562-2.398-9.125-5.147-18.173-7.905-27.196-1.123-3.59-2.17-7.304-3.778-10.703-2.096-4.573-6.545-8.315-10.208-11.679-8.325-7.467-17.622-13.924-26.453-20.78-9.35-7.212-18.889-14.084-28.044-21.514-3.762-3.093-8.416-4.907-12.81-7.325-7.42-4.027-15.065-7.813-22.094-12.503-3.662-2.304-6.756-5.267-10.58-7.316-1.925 2.453-1.369 4.972-1.507 7.875-2.903-.951-5.783-2.022-8.738-2.787-.784-.104-2.517-.807-2.477.564-.627 3.272 1.521 7.028 3.088 9.8 3.503 5.904 6.487 12.057 9.361 18.284 2.259 4.338 4.136 9.597 8.606 12.149 5.714 2.77 13.284 1.865 18.67 2.804 2.08 3.422 2.093 8.544 4.633 11.88 2.69 3.456 6.77 5.236 10.83 6.526 8.68 2.8 17.08 6.487 24.703 11.54 2.786 1.843 5.238 4.026 6.777 7.05 1.964 3.883 3.227 8.064 5.387 11.872 1.917 3.756 4.673 6.885 6.845 10.457 2.177 3.64 2.54 7.575 2.563 11.733.097 7.241-1.35 14.107-1.51 21.312-.069 3.463-.202 6.92-.225 10.381-2.88-2.639-5.777-5.384-8.987-7.619-5.494-3.762-11.989-5.333-18.545-5.898-10.859-1.152-21.422.234-32.276.184-9.032.12-18.053-1.413-27.082-1.256-4.55.012-7.769 2.222-11.853 3.876-6.67 3.07-13.607 5.362-20.6 7.58-2.097.749-4.27 1.216-5.669 3.093 1.492 1.436 3.26 2.615 4.937 3.813-1.82.928-3.86 1.787-5.452 3.079-.494.512-1.1.701-.84 1.52 1.37 1.503 3.6 2.36 5.391 3.27 4.69 2.167 8.62 5.347 13.4 7.334 3.86 1.693 8.513 2.408 12.592 1.129 5.225-1.867 8.01-5.667 12.55-8.501 3.991 2.165 7.426 5.01 11.751 6.076 3.761 1.053 7.959-.322 11.583-1.434 5.224-1.804 10.421-3.22 15.998-3.266 3-.016 6.516.035 9.28 1.33 2.253 1.072 3.283 3.262 4.556 5.26 1.405 2.362 3.157 4.48 5.283 6.227 2.914 2.46 6.41 4.28 8.75 7.36 2.08 2.794 3.497 6.12 4.413 9.462 1.591 6.291 2.263 12.54 3.254 18.9.905 5.103 1.66 10.076 3.013 15.076 2.115 8.104 5.34 15.701 9.177 23.126 2.92 5.231 6.227 10.261 9.493 15.285 4.76 7.096 3.867 17.533 8.516 24.92 1.574 2.574 4.315 2.274 6.671 3.674 1.555 1.266 2.527 3.37 3.576 5.064 4.183 7.454 8.48 14.846 13.111 22.034 3.808 6.712 8.101 13.208 11.581 20.086 3.595 7.824 7.713 16.55 7.316 25.348-11.072 7.276-22.693 16.16-29.286 27.889-2.725 4.644-4.285 10.264-5.795 15.408-2.524-2.823-5.013-5.73-7.697-8.39-4.915-4.983-10.54-9.327-16.688-12.68-6.73-3.797-13.924-6.694-21.47-8.377-4.632-1.112-9.213-1.412-13.929-1.936-.352-12.777-.93-25.528-.75-38.293 3.646-2.88 7.738-4.896 11.7-7.276 4.654-2.8 9.54-5.352 14.004-8.456 2.091-1.493 2.678-3.293 2.551-5.822-.35-14.781-.65-29.576-1.14-44.357-.064-2.656.12-5.34-.087-7.99-.069-1.054-.62-1.862-1.404-2.535-1.584-.047-3.266 1.1-4.653 1.802-7.593 4.25-15.493 7.893-23.189 11.95-.133-8.953-.49-17.9-.552-26.846-.253-14.212-.243-28.417-.588-42.629-.173-4.77.196-9.66-.45-14.389-.317-2.488-1.98-3.925-4.02-5.13-13.491-7.775-30.932-7.475-44.224.596-.951.673-2.174 1.538-2.324 2.782-.398 2.823.126 5.793.012 8.65-.427 10.606.074 21.253-.414 31.853-2.069-.894-4.068-1.836-5.946-3.094-5.415-3.2-10.865-6.363-16.21-9.693-1.41-.853-2.96-1.786-4.567-2.196-.69.052-1.307.382-1.854.992-.363 2.644-.094 5.396-.127 8.063-.053 14.573-.023 28.66.017 43.229-.046 1.75 1.027 2.684 2.322 3.622 8.047 5.507 16.342 10.59 24.597 15.761 1.124.882 2.602 1.38 2.498 3.043.12 9.35.56 18.676.347 28.037-8.144-3.95-15.968-8.605-23.952-12.875-1.406-.79-2.922-1.132-4.494-1.427-.173 3.88-.184 7.754-.144 11.631.094 12.701-.074 25.33.08 38.05-.045 2.187 1.626 2.82 3.204 3.823 6.664 3.68 13.4 7.268 20.002 11.076 2.148 1.343 4.315 2.462 4.782 5.215.754 6.077.684 12.328.741 18.45.105 7.079.024 14.123-.653 21.15l.408 16.176c90.172 102.56 287.42 103.13 378.6 1.52l-.21-4.135c-.425.534-.78 1.124-1.214 1.648-.11-2.96-.139-11.837-.807-14.74-1.261-6.266-4.904-12.167-9.006-16.988-1.827-2.234-4.52-4.136-5.84-6.698-.974-3.163-.787-6.74-1.087-10.02-.56-12.436-.71-24.932-.64-37.381 6.503-4.74 13.353-8.979 19.805-13.79 4.113-2.942 8.692-5.5 12.436-8.899 2.488-2.408 1.735-5.37 1.775-8.493-.322-16.128-.656-32.253-.587-48.387a86.8 86.8 0 0 0-.22-7.347c-2.96 1.395-5.708 3.14-8.45 4.915-8.474 5.49-16.838 11.159-25.317 16.642-.322-7.04-.169-14.08-.329-21.125-.375-15.744-.307-31.493-.787-47.235-.149-5.276.054-10.605-.373-15.865-.183-3.255-3.155-5.278-5.655-6.85-6.913-3.974-15.346-5.997-23.285-4.776-6.975.732-13.497 3.267-19.488 6.844-1.429.998-3.238 1.884-3.1 3.912.094 8.843.147 17.686-.13 26.53-.184 4.873-.059 9.715-.532 14.577-9.603-4.948-18.964-10.432-28.722-15.058-2.114 1.763-1.392 3.802-1.514 6.239.07 15.145.04 30.377-.194 45.516.085 1.025-.02 2.544.93 3.2 2.051 1.648 4.523 2.808 6.77 4.173 6.308 3.474 12.517 7.127 18.877 10.507 1.204.67 2.541 1.31 3.566 2.243.432 1.256.316 2.746.356 4.066-.138 8.4.134 16.77-.16 25.16-5.737-3.325-11.584-6.466-17.276-9.887-3.11-1.884-6.314-3.578-9.477-5.375l-3.053.883c-.18 15.8-.027 31.6-.23 47.402.087.95-.163 2.512.643 3.186 1.423 1.295 3.31 2.143 4.963 3.11 5.496 3.134 10.936 6.371 16.449 9.477 2.068 1.244 4.466 2.482 6.101 4.28 1.348 1.502 1.333 3.44 1.15 5.336-.157.933-.307 1.806-1.2 2.32-1.953 1.06-4.254 1.556-6.327 2.35-6.25 2.346-12.212 5.59-17.765 9.281-6.123 4.148-11.344 9.17-16.264 14.664-1.043-4.124-2.067-8.155-4.087-11.935-3.745-7.529-9.277-13.552-15.013-19.578-1.4-1.33-.973-2.876-1.07-4.633.253-9.124-.64-17.992-1.48-27.058-.824-10.213-1.956-20.376-3.176-30.549-.911-9.188-2.36-18.424-2.655-27.652-.19-5.196 1.653-9.606 2.24-14.688 1.861-12.448 2.35-25.566.277-38.016-1.306-7.91-5.057-18.63-6.717-26.385 15.18-23.966 24.754-48.525 32.541-75.976 2.656-9.666 4.673-19.474 6.17-29.389.617-4.314.854-8.768 1.06-13.129.231-4.688-.271-9.35-.075-14.039 7.575-.224 15.032-1.733 21.904-4.97 1.325-.691 3.07-1.858 3.3-3.454-.575-2.292-2.644-4.302-4.136-6.077-4.372-4.701-8.538-10.147-13.5-14.173-3.155-2.575-6.977-3.97-11.008-4.367-1.671-.346-3.734-.116-4.734-1.758a35.87 35.87 0 0 1-3.762-6.63c-.375-1.014-.972-2.545-.344-3.547 1.365-2.282 3.744-4.155 5.765-5.843 3.485 3.947 6.395 8.053 10.744 11.112 2.817 2.016 5.92 3.26 8.996 4.77 1.81.813 2.413 2.61 3.296 4.253a96.976 96.976 0 0 0 11.28 18.074c4.027 5.483 9.327 10.084 15 13.8 1.068.782 2.129 1.373 2.509 2.738 1.09 3.803 1.519 7.76 2.82 11.521 2.427 7.41 6.435 14.73 12.196 20.064 2.488 2.427 5.267 4.368 7.916 6.632-.179 4.867-.496 9.476.65 14.264 1.32 5.265 2.58 10.484 4.654 15.52 2.293 6.47 6.122 11.925 9.626 17.933 2.395 4.227 4.979 8.248 6.735 12.804 3.763 8.797 4.947 18.082 8.25 27.029.874 2.24 2.2 4.667 4.152 6.135 1.326 1.049 3.255 1.124 4.632.133 2.806-1.919 3.887-5.364 4.388-8.56 1.095-8.487-.453-16.597-3.045-24.65a68.235 68.235 0 0 0-4.854-12.385c-2.391-5.61-5.056-11.089-7.584-16.63-2.034-4.47-4.274-9.23-4.487-14.189-.179-2.195.23-4.256.6-6.399 1.13 2.006 2.287 3.982 3.67 5.824 4.28 5.779 7.47 12.216 9.775 19.013 1.584 4.874 2.43 10.067 5.063 14.546 1.566 2.656 3.745 5.266 6.446 6.81 1.371.8 3 .493 4.16-.532 2.274-1.97 3.074-5.282 3.27-8.162.306-5.086-.863-10.328-2.556-15.104-1.815-4.649-4.176-9.135-5.807-13.867-.547-1.612-.557-3.225-.627-4.906 4.298 1.088 8.455 3.16 12.337 5.286 5.404 3.243 11.212 8.036 17.484 9.654 1.458.466 2.948-.259 3.79-1.462 1.066-1.63.506-4.113-.098-5.825-1.474-3.75-3.772-7.223-6.277-10.357-7.939-9.292-18.533-15.345-30.14-18.865-1.562-.477-3.228-.87-4.72-1.533-1.516-.484-2.085-2.426-2.614-3.756-.83-2.528-1.638-5.726-.82-8.33 1.544-1.123 3.896-1.25 5.738-1.365 7.288-.208 14.99 2.01 21.885 4.228 4.396 1.355 9.24 3.326 13.848 3.452 1.752.018 3.492-.404 4.235-2.166.663-1.867-.47-4.31-1.29-5.992-2.435-4.948-7.424-7.937-12.303-10.08-5.23-2.115-10.715-3.75-16.285-4.707-5.715-.997-11.488-1.946-17.116-3.352-1.884-.45-3.554-1.29-5.3-2.092 4.096-2.557 8.714-3.617 13.48-4.004 6.152-.662 12.368.15 18.46-.662 2.046-.3 4.494-.915 5.625-2.827.765-1.24.102-2.696-.503-3.853-1.952-3.418-5.597-5.976-9.1-7.614-5.824-2.545-12.255-2.904-18.493-2.126-7.817 1.013-15.457 2.946-23.038 4.518-1.324.196-2.973.622-4.262.2-2.115-1.508-2.683-3.916-3.41-6.254 4.419-1.728 9.045-2.316 13.331-4.413 8.508-3.606 15.741-9.143 24.377-11.907 5.703-2.058 11.327-2.42 17.168-3.636 2.05-.455 4.436-1.303 5.387-3.347.38-1.723-.956-2.868-2.172-3.813-2.973-2.138-6.676-3.403-10.241-4.123-6.568-1.267-13.28-.087-19.534 2.05-6.627 2.046-12.916 4.934-19.517 7.02-5.952 2.034-12.72 3.58-19.021 2.974-1.636-.282-4.05-.488-4.637-2.367 1.6-1.664 3.842-2.896 5.84-4.042 5.387-3.076 11.092-5.55 17.134-7.018 6.504-1.757 13.267-2.192 19.752-3.89 1.63-.462 3.945-1.48 3.582-3.566-.496-1.584-2.05-2.793-3.393-3.657-5.16-3.186-10.956-4.224-16.946-4.293-12.829-.387-25.736 3.937-37.21 9.362a68.483 68.483 0 0 1-10.09 3.86 280.03 280.03 0 0 0-2.771-3.1c2.022-1.68 4.226-3.357 5.985-5.315 7.77-8.78 12.124-19.322 20.437-27.957 3.652-3.6 7.666-6.591 11.763-9.58 1.873-1.464 3.88-3.347 3.4-5.979-.24-1.941-2.643-2.15-4.17-2.381-7.631-.616-15.62 2.142-21.793 6.56-5.623 3.998-10.16 9.537-14.648 14.733-2.511 2.862-4.676 6.12-7.424 8.697-2.247 2.12-4.662 3.958-7.162 5.766 3.67-5.985 6.427-12.38 9.182-18.813 3.15-7.046 6.32-14.276 11.424-20.169 2.805-3.248 6.55-5.369 9.493-8.375.992-.98 1.464-2.352.352-3.452-1.97-1.336-4.764-1.636-7.085-1.578-5.456.374-10.911 2.408-15.605 5.162-3.751 2.16-7.031 5.322-9.894 8.549-6.244 7.194-9.976 15.865-14.757 23.813-3.513 5.721-8.646 10.232-15.126 12.227 2.322-4.507 4.587-8.953 6.02-13.845 2.096-7.35 2.68-15.128 6.21-21.986 1.734-3.75 4.523-7.973 4.707-12.155.054-1.636-.144-3.355-1.976-3.844zm-88.208 12.583c3.664 1.832 6.96 5.127 8.995 8.664-3.371-2.356-6.431-5.456-8.995-8.664zm119.81 83.632c3.4.88 6.14 2.81 8.928 4.85 1.946 1.467 3.792 3.231 5.122 5.282 1.043 1.608 1.358 3.365 1.831 5.192-7.2-2.247-13.583-8.067-15.88-15.324zm30.697 40.802c4.464 1.353 7.252 4.724 11.324 7.472.283 3.93 1.24 7.706 1.885 11.579-6.965-3.739-12.708-10.992-13.209-19.05zm83.78 253.98c-1.032 2.036-1.979 4.177-2.96 6.273l1.507 1.88c.52-2.694 1.036-5.392 1.453-8.154z"/>
<path d="M215 20.906c-1.952-.188-3.939.023-5.902.762 6.313.137 17.57 6.5 21.014 8.125-3.708-4.182-9.256-8.324-15.111-8.887zm35.908.328c1.348 1.814 2.799 3.518 4.531 4.975 3.008 2.581 5.8 5.34 8.139 8.554 3.088 4.102 5.243 8.997 7.777 13.55 3.4 6.918 7.474 13.902 12.496 19.772 4.379 4.794 9.678 9.355 15.668 11.97 2.127.915 4.299 1.739 6.395 2.724-2.074 4.51-5.864 7.012-9.735 9.828 1.526 3.515 4.226 6.095 7.303 8.262 2.587 1.866 6.072 1.295 8.572-.428 3.548-2.443 6.527-5.864 9.77-8.676 1.256-1.025 2.6-1.85 4.299-1.463 1.756.38 2.926 2.225 3.927 3.573a41.497 41.497 0 0 0 7.633 8.49c2.858 2.333 6.163 3.635 9.649 4.713 1.492.576 3.174.882 3.814 2.535 2.213 5.237 4.078 10.425 7.367 15.143 4.079 5.928 8.882 12.156 14.834 16.293 2.04 1.508 4.268 2.655 6.475 3.889.8.518 1.717.944 1.994 1.93.824 2.753.917 5.71 1.607 8.51 1.936 9.106 6.486 17.557 13.248 23.98 2.95 2.822 6.222 5.028 9.356 7.62-.2 4.367-1.001 8.4-.574 12.795.449 6.48 2.446 12.372 4.878 18.346 2.051 4.835 4.526 9.5 7.448 13.867 3.865 6.24 7.246 12.68 9.949 19.514 2.419 7.09 3.636 14.586 5.88 21.732.348 1.216.97 2.139 1.862 3.026 2.387-5.686 2.15-11.632 1.152-17.6-1.41-8.07-4.809-15-8.18-22.373-2.8-5.864-6.049-11.947-8.364-18.09-1.32-3.838-2.673-7.432-2.823-11.516-.093-2.57-.178-5.248.317-7.778.369-1.786 1.303-3.173 2.254-4.677 2.356-.005 4.676.001 7.01.353 6.96 1.1 13.63 1.67 20.392 3.842 7.512 2.333 14.253 6.1 20.801 10.387 2.15 1.416 4.333 2.76 6.653 3.883-.594-1.855-1.232-3.642-2.424-5.203-5.819-7.823-13.584-12.737-22.156-17.057-8.596-4.079-18.722-6.09-27.65-9.276-4.436-1.48-8.956-2.92-12.938-5.437-6.267-3.952-11.002-9.88-13.844-16.693-1.083-2.559-2.622-5.768-1.902-8.584.714-1.77 1.953-2.218 3.79-2.12 6.204.23 12.168.195 18.153-1.695 3.445-1.008 6.52-2.672 9.718-4.25 3.894-1.838 8.088-3.537 12.34-4.32 3.467-.64 6.963-.893 10.488-.91 4.31-.057 8.417.367 12.691-.485-2.786-2.956-6.326-4.695-10.283-5.484-7.61-1.595-15.947-.103-23.434 1.586-7.506 1.503-15.093 3.64-22.754 3.576-7.973-.013-16.2-1.405-23.504-4.672-6.752-3.301-12.775-8.93-15.754-15.912-.794-1.924-1.831-4.193-1.716-6.3.346-1.96 2.569-2 4.113-2.3 7.874-.997 15.248-4.44 21.723-8.921 8.693-5.814 17.973-10.303 28.377-12.014 4.781-1.043 9.7-1.412 14.426-2.701-5.047-2.599-10.582-2.707-16.141-2.604-10.82.427-20.82 3.791-30.613 8.174-5.73 2.784-12.015 5.86-18.36 6.775-4.86.83-10.386.583-14.884-1.601-4.679-2.298-8.003-6.088-11.314-10-.968-1.227-2.257-2.675-2.533-4.252 1.676-2.247 4.74-3.376 6.86-5.23 6.002-4.673 8.762-11.574 11.747-18.319 3.013-7.2 5.788-14.327 10.092-20.9 2.863-4.55 6.878-8.394 10.68-12.174-7.235.474-13.233 4.195-18.332 9.115-5.397 5.635-9.158 12.085-12.74 18.945-2.057 3.97-4.38 7.835-7.006 11.453-5.098 6.78-13.566 11.2-22.104 10.996-4.516-.074-9.21-1.019-13.186-3.236-5.99-3.11-11.108-7.616-15.877-12.34-4.821-5.045-9.274-10.438-13.129-16.268-2.954-4.027-5.724-8.548-9.262-12.039-2.085-2.12-4.782-3.787-7.277-5.416-2.458-1.6-5.103-2.42-7.855-3.363zm84.225.05c-4.43 2.454-8.93 5.543-11.631 9.944-2.944 5.248-3.98 11.33-6.992 16.625-3.215 6.33-7.865 11.042-12.588 16.215 2.816 2.558 6.336 4.16 10.139 4.494 1.29.2 2.46-1.226 3.209-2.103 3.358-4.459 5.587-9.63 7.396-14.873 2.252-6.987 3.336-14.644 6.62-21.227 1.457-2.956 2.88-5.912 3.847-9.074zm-104.35 1.325c2.679 4.315 6.02 8.213 9.096 12.246 4.406 5.093 7.955 10.807 12.287 15.963 4.229 5.727 8.71 11.137 13.809 16.125 4.781 4.556 10.45 7.956 17.109 8.785-2.384-3.532-5.294-6.632-7.737-10.117-2.656-3.52-4.562-7.252-6.722-11.094-1.112-1.918-1.936-4.085-3.854-5.351-2.305-1.527-4.46-3.171-6.388-5.164-7.19-6.758-12.778-13.841-21.604-18.721-1.92-1.071-3.94-1.9-5.997-2.672zm173.4 16.264c-7.408.063-13.762 3.582-19.211 8.322-8.041 7.512-13.94 16.497-21.953 24.143-5.213 4.518-11.05 6.315-16.938 9.46 1.636 4.366 5.2 7.218 9.303 9.16 3.346 1.497 6.954 1.123 10.508.972-1.026-1.67-2.414-3.341-3.018-5.219-.248-1.082 1.168-2.176 1.883-2.834 3.485-2.742 7.052-5.715 9.713-9.304 4.69-6.676 9.009-13.576 13.924-20.098 4.527-6.008 10.599-9.476 15.789-14.602zm-115.74 40.801a195.67 195.67 0 0 1-4.184 6.672c3.394.132 6.823.494 10.221.355 1.296-.034 2.183-.736 3.29-1.306-3.02-2.056-6.227-3.774-9.327-5.72zm161.57 17.467c-3.653.017-7.326.632-10.686 1.647-4.476 1.457-8.902 2.8-13.234 4.595-6.325 2.622-12.892 4.742-19.604 6.114-3.767.772-7.598.875-11.342-.08-2.667-.738-5.248-2.178-7.68-3.481-3.312 1.355-6.331 3.204-9.482 4.873 3.583 2.587 7.963 5.12 10.262 8.969 1.74 2.644 2.879 5.561 4.353 8.332.547 1.013 1.205 1.826 2.352 2.172 3.093 1.001 6.518 1.04 9.734 1.011-1.049-3.813-3.778-7.993-3.445-11.963 2.427-1.266 5.738-.813 8.422-1.35 7.715-1.306 14.967-5.748 21.811-9.32 4.845-2.753 10.013-4.855 15.34-6.456 4.523-1.378 9.214-1.85 13.775-3.118-3.285-1.38-6.922-1.961-10.576-1.945zm-27.156 52.254c-4.032 1.24-8.054 2.5-12.115 3.664 2.23 1.93 4.69 3.547 6.873 5.535-.05 5.664.808 11.235 2.84 16.533 3.434 1.464 6.943 2.69 10.635 3.295-.276-2.592-.992-5.04-1.557-7.57-.581-2.937.542-6.474 3.658-7.418 7.691-2.53 16.51-.95 24.166 1.02 6.43 1.826 12.266 4.572 18.982 5.5-1.936-3.878-5.362-6.222-9.193-7.985-4.448-1.976-9.436-3.126-14.148-4.348-10.111-2.408-20.861-3.18-30.141-8.226zm6.82 50.832v.002c1.722 3.635 4.148 6.79 6.108 10.287 3.317 5.708 5.367 12.368 7.338 18.63 1.446 4.192 2.863 8.14 5.894 11.493 2.32-5.059.806-10.974-.889-15.992-2.816-7.725-6.013-15.317-9.423-22.8-3.014-.532-6.028-1.032-9.028-1.62zm-344.92 58.715-.002.004c-6.878.317-13.754 3.08-19.268 7.166-.305 16.384.04 32.777-.127 49.154-9.89-5.813-19.385-12.235-29.166-18.221-.017 13.088 0 26.171-.029 39.266-.007 1.797.472 3.45 1.826 4.69 4.008 3.64 9.293 6.422 13.877 9.193 4.8 2.892 9.614 5.369 14.09 8.797.162 7.604.081 15.213.44 22.816.196 6.906.5 13.838.367 20.744-9.99-5.387-19.572-11.463-29.562-16.85-.11 13.187.266 26.287.582 39.453 9.21 7.022 19.533 11.233 29.449 16.982.201 8.813-.059 17.634.219 26.447 4.504-4.039 8.912-7.992 14.27-10.89 7.782-4.13 16.429-6.51 25.213-7.109.041-12.944-.156-25.893-.15-38.838.029-1.106.046-2.32.386-3.38 1.717-1.614 4.078-2.588 6.066-3.844 5.028-3.094 10.294-5.772 15.328-8.86 2.483-1.462 4.99-2.735 7.08-4.773-.449-11.851-.212-23.73-.378-35.584.034-3.664-.197-7.288-.594-10.928-10.227 4.101-19.563 10.426-29.863 14.355-.007-27.473.006-54.867-.08-82.35-.064-3.036.247-6.119-.035-9.143 0-1.112-1.365-1.738-2.155-2.308-5.346-3.151-11.55-5.589-17.783-5.993zm308.08 1.254c-4.338-.165-8.715 1.261-12.707 2.793-2.81 1.048-5.353 2.558-7.756 4.344-.137 16.516.077 33.07-.35 49.586-5.495-2.564-10.616-5.927-15.938-8.836-5-2.713-9.735-5.854-14.678-8.67-.368 8.825-.075 17.68-.19 26.516.035 4.039-.052 8.077-.004 12.109.07 1.475.051 3.4 1.106 4.55 1.55 1.707 3.6 3.008 5.535 4.23 6.993 3.991 14.31 7.465 21.17 11.681 1.383.934 2.997 1.821 3.031 3.705.266 7.23.27 14.666.397 21.906.138 6.558.413 13.135.219 19.697-10.6-5.733-20.571-12.586-31.102-18.467-.023 10.921.035 21.84.04 32.76.025 2.156-.165 4.344.053 6.487.323.397.69.76 1.118 1.076 9.215 6.648 19.217 11.045 28.693 17.023.08 3.21.213 6.413.263 9.621 6.141-.404 12.224-.674 18.348.145 7.95.753 15.151 3.374 22.611 5.978.288-4.419.104-8.832.168-13.256.097-9.217.092-18.434.125-27.65.053-1.405.005-2.966.461-4.309 1.204-1.728 3.445-2.826 5.139-4.037 8.238-5.617 16.609-11.027 24.863-16.609 1.394-.933 2.696-1.98 3.974-3.064-.24-16.39.138-32.791-.18-49.18-8.006 5.04-15.708 10.579-23.737 15.584-3.48 2.219-6.792 4.948-10.49 6.768-.95-.755-.788-1.659-.87-2.743-.051-30.72.017-61.46-.029-92.17-5.242-3.49-11.082-6.657-17.426-7.394a16.733 16.733 0 0 0-1.857-.174z" fill="#fcdb00"/>
<path d="M248.14 71.505c-.42 2.783-.484 5.8.807 8.381 1.348 2.8 3.889 5.404 7.022 6.06 2.679.6 5.658.513 8.399.501-.84-3.704-2.644-7.005-5.56-9.475-3-2.64-6.86-4.355-10.668-5.467zM63.73 82.426c.293 1.561.547 3.123.773 4.696-3.596-.859-6.984-2.167-10.68-2.581 2.08 4.866 4.793 9.355 7.131 14.103 1.999 3.68 3.658 8.18 6.498 11.285 2.04 2.218 4.677 2.586 7.54 2.73 5.374.507 10.024-.352 15.11 1.78 1.688 4.677 1.072 9.337 4.171 13.59 3.001 3.698 7.443 4.54 11.792 5.656 6.723 2.114 13.256 5.127 19.258 8.814 4.165 2.753 8.808 6.094 11.603 10.295 2.724 4.948 3.94 10.399 7.35 15.093 2.766 4.066 6.883 7.373 7.858 12.293 2.08 11.084-.576 20.756-1.204 31.666-.484 7.706 1.728 14.443 2.206 22.034 4.954 5.156 8.814 11.44 12.345 17.645 1.32-1.544 2.551-3.14 3.635-4.856 2.067-3.267 4.573-6.102 7.275-8.85 2.137-2.172 5.006-3.997 6.838-6.4.726-.834.467-1.837.415-2.85-.455-3.635-1.89-7.253-2.76-10.831-2.701-10.611-5.8-21.106-8.697-31.661-2.542-9.54-5.814-18.866-8.475-28.37-.8-2.995-2.09-5.61-4.367-7.76-6.786-6.688-14.213-12.783-21.873-18.44-10.968-8.445-22.034-16.769-33.256-24.874-4.631-2.857-8.675-6.464-13.445-9.067-8.583-4.73-17.322-8.813-25.582-14.149a129.48 129.48 0 0 1-1.457-.99zm222.25 8.747c-1.355.03-2.704.18-4.07.557-1.767.479-3.5 1.388-5.298 1.681-1.884.19-3.912-.194-5.784-.442-6.636-.986-13.74-1.803-20.428-.991-4.304.404-8.612 2.703-12.449 4.62-4.792 2.64-9.608 5.576-14.643 7.765a90.682 90.682 0 0 1-22.744 5.853c-4.39.91-8.797 1.36-13.249 1.86 2.885 2.974 6.232 5.23 9.872 7.16-.455 1.159-.835 1.96-2.096 2.352-3.07.944-6.261 1.359-9.28 2.54-.634 2.402-.905 4.758.356 7.016 1.355 1.827 4.04 2.772 6.084 3.607 6.199 2.206 12.564 3.962 18.785 6.093 2.31.86 4.995 1.856 6.487 3.93 1.74 2.385 2.16 5.454 1.894 8.335-.27 2.61-2.165 4.684-4.573 5.583-3.043 1.152-6.457 1.613-9.69 1.786-4.631.254-9.188.726-13.802 1.203 1.382 1.44 2.574 2.853 4.568 3.445 1.861.479 3.906.392 5.8.162 7.046-.962 13.527-2.535 20.733-2.214 2.753.099 5.333 1.268 7.978 2.104 8.302 2.639 16.372 6.032 24.546 9.022 4.834 1.792 10.26.766 14.77-1.47 5.305-2.621 9.895-7.137 13.72-11.585 5.663-6.74 10.186-14.406 13.06-22.742.743-1.86 1.429-4.424 3.122-5.633 1.527-.017 3.13.76 4.517 1.347 4.598 2.093 9.056 4.258 14.016 5.386 6.567 1.47 13.053 3.024 19.782 2 4.16-.503 8.128-1.43 11.544-3.981-2.408-2.701-5.126-5.053-7.834-7.443-3.382-2.845-6.971-5.202-11.487-5.622-9.032-.738-16.297 3.502-25.376 3.112-3.088-.191-6.539-.951-9.067-2.83-1.072-.754-1.29-1.842-1.763-2.989 4.027.31 7.938.887 11.993.453 3.808-.453 7.65-1.242 11.221-2.677-3.882-.219-8.08.333-11.837-.813-2.897-.979-5.617-2.218-7.028-5.108 1.9-.186 3.571-.054 5.42.373 4.39.992 8.9.939 13.313.116-1.204-2.599-2.246-5.67-4.182-7.807-1.619-.293-3.739 1.136-5.46 1.315-3.307.668-6.344-1.73-8.839-3.584-4.118-3.319-8.086-7.063-8.496-12.685-1.394-.1-2.756-.19-4.112-.16zm-35.264 16.634c1.45.042 2.897.313 4.264.796 5.133 1.826 8.461 6.647 13.836 8.547 3.64 1.314 6.988.698 10.657 1.107.98.04 1.372.692 2.028 1.303-4.275 2.557-9.908 2.95-14.736 2.23-.87 1.392-1.803 2.988-3.047 4.071-1.33 1.093-3.306 1.47-4.978 1.596-2.845.179-5.765-.225-8.08-2-2.501-2.067-3.216-5.455-2.617-8.543.38-1.75 1.32-3.213 2.194-4.751-6.754 1.38-10.487 8.075-10.487 8.075l-1.378-.922c1.32-6.768 5.157-11.472 12.344-11.51zm3.104 6.253a2.379 2.379 0 1 0 0 4.757 2.379 2.379 0 0 0 0-4.756zm48.483 26.013c-1.976 3.536-3.336 7.35-5.439 10.83-2.517 4.609-5.615 8.9-8.911 12.985-4.654 5.265-9.926 10.916-16.106 14.349-2.811 1.464-5.951 2.38-9.072 2.864-3.515.535-6.626-.33-10.064-.427-1.187 1.728-1.642 4.043-2.49 5.962a17.538 17.538 0 0 1-4.47 6.475c-3.307 3.147-7.16 4.782-11.13 7.316-10.662 6.07-20.961 11.141-30.56 19.005-3.951 3.318-7.511 7.178-10.403 11.451-2.967 4.39-4.459 9.258-5.582 14.384-.789 3.67-.645 7.276-.352 10.992 5.226-1.918 11.095-5.069 16.724-4.885-.64 1.003-1.042 2.005-2.045 2.703-3.076 2.17-6.636 3.674-9.81 5.708-2.72 1.74-4.735 4.16-7.707 5.56-.617-.727-1.257-1.331-1.648-2.214-2.996-7.89-2.38-16.152.137-24.073-1.664 1.44-3.41 2.696-4.994 4.205-4.614 4.551-7.327 10.473-8.134 16.88 2.858 5.599 5.956 10.991 8.387 16.814 2.427 5.352 4.552 10.824 6.92 16.2 1.47 3.38 4.297 5.696 7.396 7.528 1.762 1.078 3.853 1.867 5.437 3.192.663.432.853 1.158.577 2.17-2.333.82-4.736.07-7.045-.46-2.592-.72-5.317-1.664-7.5-3.26-2.356-1.827-3.514-5.347-4.781-7.974-3.232-6.934-6.256-13.95-9.673-20.794-3.116-5.898-6.072-11.856-9.488-17.593-4.81-8.03-9.533-15.84-15.546-23.054-3.728-4.907-7.985-9.833-13.02-13.457-3.947-2.794-8.423-3.854-13.14-4.47-12.86-1.884-26.861.328-39.773-.61-7.384-.403-13.911-1.965-21.336-1.453-4.419.392-8.757 2.881-12.945 4.419-4.055 1.993-8.277 3.48-12.425 5.248 2.448.8 5.005.593 7.408 1.537-3.68 2-7.535 3.867-11.493 5.248 4.574 1.953 8.306 5.213 12.888 7.052 3.202 1.21 6.665 1.48 9.684-.37 3.98-2.487 6.71-6.963 10.64-9.52.966-.629 1.969.23 2.816.666 4.12 2.576 7.328 5.67 12.449 6.096 4.816.115 9.97-1.447 14.653-2.42 5.974-1.003 11.679-1.884 17.773-1.4 3.266.387 6.728 1.141 8.733 4.021 1.462 2.483 2.061 5.174 4.094 7.432 3.152 3.382 7.594 5.524 10.888 8.697 4.436 4.8 6.787 11.816 8.064 18.112 1.822 10.612 2.956 21.096 6.32 31.396 2.707 8.25 5.907 16.76 10.33 24.241 2.173 3.574 4.354 7.12 6.883 10.451 1.077 1.534 2.403 2.875 2.748 4.764 1.067 5.34 1.85 11.263 3.773 16.44.564 1.35 1.1 2.658 2.523 3.29 2.61-.26 5.196-1.4 7.575-2.46 4.361-2.067 8.9-4.026 13.756-4.492-.512 2.413-2.51 2.973-4.32 4.222-2.81 1.895-5.755 3.278-8.29 5.547.462 3.313 1.88 6.193 3.434 9.102 4.736 9.546 10.203 18.492 15.432 27.766 5.726 9.506 11.285 18.872 14.984 29.402.657 1.808 1.136 3.779 2.045 5.472 1.285.259 2.765-.126 4.032-.374 6.648-1.55 13.053-3.019 19.921-3.272 11.233-.91 22.742.27 33.521 3.594 6.953 2.018 13.332 5.27 19.604 8.813.623-3.502.259-6.757.276-10.3-.045-16.533-2.816-32.093-4.33-48.423-.75-6.71-1.557-13.405-2.2-20.12-.762-6.418-.083-13.129 1.046-19.46 1.21-7.294 1.913-14.645 2.259-22.023.276-10.012-1.458-19.786-4.287-29.36-1.117-3.434-4.292-9.846-4.292-9.846s8.541-12.091 13.976-25.042a3675.3 3675.3 0 0 0 9.253-21.85c4.01-9.798 7.13-19.856 10.26-29.967 3.991-14.384 8.26-30.226 7.782-45.233-.08-4.585-.035-9.107-.893-13.635a81.639 81.639 0 0 1-9.488-1.924c-4.246-1.192-8.104-2.915-12.217-4.384z" fill="#fff"/>
<path d="M251.17 434.5c-4.593-.09-9.2.173-13.744.71-7.621 1.274-15.738 3.14-22.466 7.07-5.099 2.724-9.879 6.152-14.176 10.011-4.436 4.367-8.785 8.527-12.097 13.849-5.583 8.152-9.205 18.36-6.936 28.268 1.13 4.587 3.27 8.543 3.819 13.301-2.454-1.285-3.507-3.463-5.196-5.508-3.37-4.153-6.41-8.583-9.556-12.915-7.939-12.132-20.014-21.586-33.368-27.093-10.352-4.325-21.993-5.64-33.093-4.355-12.19 1.388-24.49 7.046-32.106 16.89-3.104 4.414-5.24 9.943-5.436 15.364-.099 7.6 2.753 14.996 7.299 21.021 8.48 11.452 20.462 20.917 32.15 28.93 9.683 6.837 20.186 12.622 30.744 18.025 65.173 28.136 145.24 29.944 212.34 5.431 8.6-3.903 17.02-8.195 25.177-12.913 11.987-6.787 23.528-14.663 33.944-23.677 5.069-4.823 10.01-9.62 13.812-15.546 3.485-5.307 6.129-11.407 6.48-17.806.306-7.093-2.206-14.339-7.01-19.592-6.2-7.028-14.7-11.36-23.706-13.608-10.529-2.564-21.809-2.58-32.3.196-6.262 1.648-12.304 4.25-17.92 7.453-7.846 4.96-15.456 11.36-20.634 19.125-3.572 5.37-7.277 10.728-11.264 15.797-1.41 1.856-2.538 3.763-4.589 5.019.5-5.553 3.444-10.053 4.337-15.56.819-5.22.351-10.72-1.504-15.68-2.004-5.548-5.18-10.761-8.82-15.386-8.14-10.48-18.934-18.913-31.626-23.084-7.272-2.46-14.897-3.587-22.553-3.735z" fill="#094"/>
<path d="m4.427 4.32 8.929 375.3c6.378 268.06 466.9 268.06 473.29 0l8.929-375.3z" fill="none"/>
<path d="m4.427 4.32 8.929 375.3c6.378 268.06 466.9 268.06 473.29 0l8.929-375.3z" fill="none" stroke="#000" stroke-width="8.5"/>
</svg>
