<?xml version="1.0" encoding="UTF-8"?>
<!-- Created with Inkscape (http://www.inkscape.org/) -->
<svg id="b" width="218.61" height="256.07" version="1.0" xmlns="http://www.w3.org/2000/svg" xmlns:xlink="http://www.w3.org/1999/xlink">
 <path d="m1 1 3.9384 165.44c2.8131 118.17 205.92 118.17 208.73 0l3.9384-165.44z" fill="#fff"/>
 <g id="a" stroke="#000" stroke-width="1px">
  <rect x="36.933" y="130.86" width="11.685" height="76.557" fill="#bf3323"/>
  <path d="m44.816 13.933c1.7873 8.0651 4.3291 14.859 13.45 14.999 0.91707 4.6126 1.0739 7.4741 0.58065 9.0309-1.6511-0.43885-3.4039-1.5902-5.29-3.6741 0.08561 1.2222 0.32239 3.4318 0.17633 4.4222-2.3456 0.14372-3.7749-2.5986-5.4663-3.9814 1.9698 6.2789 5.4003 10.499 12.52 9.522 0.1932 3.5418 1.2018 7.2467 0.35267 10.58-2.3358-0.57757-3.8838-2.1398-5.29-3.8793 0.28186 1.4348 0.18391 3.0595 0 4.7272-2.659-1.8323-5.407-3.9364-7.2297-7.9012 1.5124 10.774 6.2489 14.024 13.401 11.638 0.45206 3.5448 1.2011 6.7926 1.2343 10.756-2.116-0.1695-4.232-1.925-6.348-3.703 0.08164 1.3698 0.35227 2.6452 0 4.232-2.915-3.2279-6.1441-3.7668-8.6403-8.464 3.79 11.719 9.8114 14.226 16.399 14.283 0.56826 3.5757 0.82594 8.5831 0.17633 12.343l-5.1137-5.6426c0.12726 1.9984 0.37344 3.9969-0.35267 5.9953-3.431-1.0168-6.689-3.2451-9.419-9.1693 3.1827 12.182 7.1109 17.303 17.001 18.162 0.51266 4.5161 1.1113 9.0107 0.71522 13.754-2.5035-0.48051-4.6142-2.9968-6.8869-5.5545 0.20373 1.7137 0.30089 3.7151-0.17633 5.2018-7.9024-3.4002-9.1506-8.7016-10.653-13.93 2.7983 15.601 8.7992 23.595 19.117 21.336 0.30371 5.0255 0.67652 10.051 0.529 15.076-2.8107-0.34984-4.6217-2.758-6.5243-5.3782-0.0235 2.0298 0.31032 4.1787-0.35267 5.9953-5.2695-2.6032-9.6326-9.059-13.983-15.569 5.1004 12.971 9.4286 25.99 21.695 22.942 0.2703 4.9305 0.6989 10.21-0.42571 15.02-2.2955-1.3726-3.6998-3.2575-5.3099-5.5441 0.14521 2.8438-0.18714 5.21-0.98236 7.1134-4.2432-4.228-6.0107-6.785-7.2469-9.8565-0.24383 2.3093-0.59403 4.1931-1.3048 4.6348-5.3502-5.425-8.8566-12.199-11.974-19.722-3.1172 7.5227-6.6237 14.297-11.974 19.722-0.71074-0.44165-1.0609-2.3255-1.3048-4.6348-1.2363 3.0715-3.0037 5.6285-7.2469 9.8565-0.79523-1.9034-1.1276-4.2696-0.98236-7.1134-1.61 2.2866-3.0144 4.1715-5.3099 5.5441-1.1246-4.8102-0.69601-10.09-0.42571-15.02 12.267 3.0474 16.595-9.971 21.695-22.942-4.3504 6.5096-8.7134 12.965-13.983 15.569-0.66298-1.8166-0.32917-3.9655-0.35267-5.9953-1.9026 2.6201-3.7136 5.0283-6.5243 5.3782-0.14752-5.0255 0.22529-10.051 0.529-15.076 10.318 2.2588 16.319-5.7357 19.117-21.336-1.5028 5.2287-2.7509 10.53-10.653 13.93-0.47722-1.4867-0.38007-3.4881-0.17633-5.2018-2.2727 2.5577-4.3834 5.074-6.8869 5.5545-0.3961-4.7433 0.20255-9.2379 0.71522-13.754 9.8904-0.85912 13.819-5.9804 17.001-18.162-2.73 5.9242-5.988 8.1525-9.419 9.1693-0.72611-1.9984-0.47992-3.9969-0.35267-5.9953l-5.1137 5.6426c-0.64961-3.7602-0.39192-8.7676 0.17633-12.343 6.5876-0.0573 12.609-2.5641 16.399-14.283-2.4962 4.6972-5.7253 5.2361-8.6403 8.464-0.35227-1.5868-0.08164-2.8622 0-4.232-2.116 1.778-4.232 3.5335-6.348 3.703 0.0332-3.9637 0.78227-7.2115 1.2343-10.756 7.1524 2.3863 11.889-0.8643 13.401-11.638-1.8227 3.9648-4.5707 6.0689-7.2297 7.9012-0.18391-1.6677-0.28186-3.2924 0-4.7272-1.4062 1.7396-2.9542 3.3018-5.29 3.8793-0.84916-3.3333 0.15947-7.0382 0.35267-10.58 7.1194 0.97741 10.55-3.2431 12.52-9.522-1.6914 1.3828-3.1207 4.1251-5.4663 3.9814-0.14606-0.99049 0.09073-3.2001 0.17633-4.4222-1.8861 2.084-3.6389 3.2353-5.29 3.6741-0.49328-1.5568-0.21174-4.7924 0.70533-9.405 10.243-0.63891 14.78-6.5598 16.567-14.625z" fill="#2a5936"/>
 </g>
 <use x="128.81708" xlink:href="#a"/>
 <use x="64.411183" xlink:href="#a"/>
 <path d="m13.377 202.81c33.714 69.685 158.13 69.684 191.84 0z" fill="#2a5936" stroke="#000" stroke-width="1px"/>
 <path d="m1 1 3.9384 165.44c2.8131 118.17 205.92 118.17 208.73 0l3.9384-165.44z" fill="none" stroke="#000" stroke-width="2"/>
</svg>
