<?xml version="1.0" encoding="UTF-8"?>
<svg width="500" height="585" viewBox="0 0 500 585" xmlns="http://www.w3.org/2000/svg">
<path d="m4.427 4.32 8.93 375.3c6.379 268.06 466.91 268.06 473.3 0l8.93-375.3z" fill="#fff"/>
<path d="M456.16 479.58H43.85c85.52 131.39 326.78 131.39 412.31 0z" fill="#094"/>
<path d="m4.427 4.32 8.929 375.3c6.378 268.06 466.9 268.06 473.29 0l8.929-375.3z" fill="none" stroke="#000" stroke-width="8.5"/>
<path d="M229.87 23.272a37.974 37.974 0 0 0-4.29.073c-.857.088-5.215 8.925 4.57 31.436 1.53 3.476 2.584 7.02 4.822 10.156 3.253 5.568 7.834 10.445 13.838 13.029 3.705 1.925 7.622 3.213 11.834 3.27 1.914.072 3.995-.19 5.864.245 1.423.692 1.97 2.678 2.227 4.1.508 3.282-.72 6.664-1.619 9.777-.77-3.242-1.238-6.852-3.314-9.564-.887-1.205-2.193-1.987-3.694-2.11-3.754-.285-20.624 1.991-30.176 18.275-1.272-4.453-2.237-8.956-2.566-13.587-.647-6.568-.948-13.492.485-19.97.497-2.455 1.423-5.625.558-8.052-.686-1.395-2.103-1.495-3.493-1.406-2.27.1-3.856 1.941-5.329 3.453-3.002 3.159-4.33 6.808-6.17 10.67-3.142-3.605-6.105-7.204-10.017-10.027-1.099-.97-2.661-1.512-2.578-3.214-.006-4.19.391-8.13-1.06-12.18-1.696-5.284-5.585-8.772-10.205-11.556-3.37-2.249-6.846-4.124-10.685-5.458-8.687-3.442-17.805-3.866-27.034-3.43-3.526.312-7.053.998-10.5 1.768-1 .34-2.333.396-2.623 1.618-.636 2.372.597 5.328 1.395 7.571 2.589 6.333 5.748 12.398 10.518 17.387 5.557 6.674 13.364 10.77 21.404 13.687 5.54 2.031 11.182 2.389 17.024 2.578-.15.659-.285 1.306-.52 1.942-1.444.04-2.873-.536-4.33-.591-4.753-.408-9.434 2.009-12.788 5.222-3.682 3.845-4.899 8.732-5.35 13.893-.308 5.876.122 11.59 3.04 16.818-6.343-3.431-13.631-5.49-20.695-6.802-1.317-.217-1.534-1.244-2.131-2.254-1.34-2.723-2.595-5.48-3.695-8.308 1.669-1.752 3.605-3.515 4.71-5.674 2.416-4.53 3.058-9.927 2.294-14.966-1.82-10.512-7.187-20.17-14.91-27.496-5.663-5.24-12.23-9.982-19.411-12.878-.888-.424-2.221-.268-3.058.217-.949.915-1.523 2.26-2.176 3.393-3.8 6.785-5.363 14.546-5.781 22.246-.24 7.097 1.133 13.978 3.426 20.663 1.752 4.564 4.827 9.056 9.012 11.7 4.006 2.51 8.263 3.879 12.744 5.2 1.79.994 2.248 4.03 3.069 5.787-5.636.457-11.282.424-16.935.507-1.814.162-3.41-1.205-4.838-2.175-2.533-1.97-5.078-4.035-7.198-6.462 1.34-4.062 1.595-8.163.619-12.336-1.233-6.26-4.413-11.981-9.351-16.06-5.067-4.117-10.73-7.633-16.873-9.881-5-1.696-10.072-3.046-15.361-3.392-5.257-.748-10.401-.24-15.624.502-1.457.19-2.857.558-4.247 1.038-.206 1.06-.507 2.204-.39 3.28 1.384 8.643 5.128 16.344 10.06 23.492 5.374 7.85 12.455 14.569 21.265 18.38 5.83 2.231 12.566 2.371 18.68 1.462 3.265 2.6 6.06 5.647 9.04 8.503-2.679.196-4.916 1.569-7.567 1.552-2.879-.781-5.384-2.49-8.364-3.053-10.144-2.606-21.209.352-29.333 6.768-5.4 4.04-8.815 9.33-12.409 14.915-2.957 4.983-5.641 10.227-7.745 15.628-.468 1.038-.752 3.092.509 3.678 8.252 3.933 17.152 4.547 26.124 3.347 7.348-.798 14.223-3.208 20.946-6.17 5.652-2.768 10.513-6.713 13.476-12.36 1.813-3.8 2.929-7.98 2.466-12.214 7.621-2.65 16.009-4.887 24.133-4.564-3.002.731-5.837 1.356-8.303 3.348-4.665 3.766-7.56 9.737-8.057 15.673-.603 5.837.429 11.751 3.498 16.795 2.522 3.833 6.422 6.473 10.875 7.533 6.188 2.421 13.554 1.429 18.922-2.466 4.609-3.443 8.006-8.459 9.256-14.094.865-4.47.754-9.263-.859-13.553-1.16-3.03-2.422-5.848-4.95-8.002 2.846-.29 5.597-.63 8.443-.1 4.134.836 8.057 2.438 11.634 4.676 2.444 1.528 5.094 3.13 7.036 5.29.708.742.742 1.623 1.016 2.572-2.137-.53-4.057-1.25-6.311-1.094-3.487.106-6.646 1.792-9.157 4.135-2.79 2.617-4.994 5.953-6.182 9.597-1.875 5.802-1.016 12.504 1.188 18.095 2.148 4.971 6.4 7.153 11.194 8.994 1.122 1.853 1.534 4.274 2.695 6.21 1.763 3.616 5.452 7.21 5.06 11.462-.697 3.682-3.213 7.56-6.472 9.485-6.35 4.045-12.906 7.667-19.953 10.362-3.794 1.456-7.862 2.276-11.829 3.119-3.46.541-6.947 1.848-9.123 4.727-1.434 1.925-2.907 3.777-4.781 5.3-1.59 1.456-3.879 2.65-5 4.48-1.92 3.41-.54 8.33 2.818 10.312 4.564 2.165 9.664 1.15 14.367 2.455 2.215.53 4.314 1.34 6.138 2.734-8.018 3.312-10.97 1.63-15.78 3.22-2.033.672-3.264 2.5-3.855 4.63 1.847 2.171 3.889 3.617 4.268 6.658.553 3.314 3.99 5.747 7.298 4.675 5.803-2.421 12.337-5.908 18.698-6.12 2.59-.195 4.961.306 7.522.58-2.611 4.056-5.965 7.415-8.983 11.153-13.148 15.397-15.71 35.337-12.627 41.337l3.087-2.539c-.868 8.101 1.12 16.688 2.09 19.913.743-.62 1.49-1.221 2.25-1.813 2.438 4.603 2.488 9.865 5.032 14.485-9.519.592-18.97 1.043-28.507 1.26-3.587.034-7.878-.094-11.232 1.329-2.812 1.138-4.637 3.46-6.394 5.83-2.919 4.252-5.775 8.616-6.953 13.71-.603 2.98-.195 6.266.436 9.212 1.077 4.798 3.615 8.56 5.836 13.006 5.847 9.787 10.356 20.528 13.983 31.319 2.192 5.429 4.385 10.769 7.66 15.657 1.44 2.02 2.495 4.732 5 5.569 3.583-5.926 5.01-12.655 5.228-19.513-.056-2.59.196-4.983-.462-7.511-2.45-1.758-5.937-3.314-7.466-5.954-1.021-1.707-.614-3.292-.33-5.128 1.34.34 2.69.508 4.063.626.446-2.405.139-4.748-.213-7.137-.195-1.205-.608-2.327-1.573-3.13-2.098-1.847-4.704-2.963-6.712-5-2.338-2.349-4.146-5.278-5.803-8.14-.81-1.524-1.77-3.26-1.965-4.989.659-2.438 2.031-4.726 3.248-6.924.686-1.05 1.194-2.31 2.55-2.584 3.085-.485 6.389-.022 9.469.39 7.65 1.178 14.16 4.163 21.303 6.897 5.568 2.126 10.518 4.542 16.633 4.726 3.99.023 7.979-.016 11.968-.178 2.103 8.978 3.504 17.967 5.173 27.028 1.356 8.638 2.773 17.231 3.398 25.957.535 3.326.435 6.657.72 9.999.329 9.62 1.835 18.765-.408 28.362-1.635 5.808-4.653 11.32-6.941 16.806-2.496 4.677-3.623 9.833-3.36 15.144.028.965.436 1.679.96 2.449a90.43 90.43 0 0 1 4.012-.904c.547.743 1.016 1.82 1.819 2.305 6.327-1.11 12.17-4.347 16.344-9.246 1.546-1.875 2.053-4.007 2.717-6.277 3.23-.274 6.49.028 9.704-.335 3.353-.502 10.557-2.288 10.557-2.288l.87 3.144 4.455-2.82 1.058 2.504 6.1-3.698s1.349 2.616 1.595 3.726c3.346-.901 4.267-2.144 8.251-2.88.179 3.287-1.997 4.985-1.774 8.154-.006 1.071 1.033 2.003 1.96 2.36 1.679.296 3.52.078 5.221-.033.29 1.155.508 3.135 2.093 3.113 2.834-.128 5.664-1.328 8.364-2.148 3.867-1.177 7.036-3.47 10.021-6.121 1.64-1.512 1.954-1.987 2.774-4.03 2.003 1.356 4.672 4.842 4.672 4.842s2.018-5.265 1.867-6.42c1.083.971 2.187 2.243 3.632 2.64 3.348 1.015 7.014.64 10.518.702 21.136.129 42.273-.11 63.41.057-.352 2.583-.497 4.803.931 7.097a58.062 58.062 0 0 0 6.227-.363c.48 1.31.63 2.695 1.948 3.46 3.308-.218 6.611-1.58 9.702-2.723 3.616-1.356 6.529-3.7 9.291-6.328 5.474-6.56 4.344-13.811 5.022-21.755.725-3.035 4.441-5.3 6.595-7.37 1.847-1.396 1.914-4.197.569-5.954-1.613-2.282-3.27-4.353-4.174-7.048-1.065-3.225-2.282-6.36-3.069-9.67-1.255-5.194-2.968-10.256-4.2-15.462-1.692-7.153-3.544-14.256-4.995-21.459-1.172-5.763-2.89-11.249-3.65-17.035-.284-2.114-.803-4.078-2.37-5.618-1.964-2.036-5.485-2.622-8.013-3.794-4.48-1.886-8.967-3.538-11.188-8.241-2.388-5.736-2.41-12.912-3.956-18.91-1.328-6.227-3.827-12.26-6.137-18.291.965.067 2.427.513 3.247-.117 3.99-3.56.5-7.955-2.377-10.948-2.79-3.103-6.188-5.558-9.899-7.45-6.037-2.907-12.17-3.553-18.642-4.803-5.635-1.25-10.958-3.727-16.555-5.178-3.844-.948-7.65-1.898-11.623-2.115-5.674-.804-10.803.073-16.595.363-.145-11.5.748-23.04 1.534-34.5.698-7.437.938-14.942 1.468-22.397.335-7.946 1.022-15.846 1.619-23.77 2.098 1.362 4.257 2.562 6.662 3.281 5.987 1.786 12.482 2.372 18.703 2.35 1.752.01 3.37.033 4.932.926 4.207 2.047 8.258 4.558 12.639 6.41 4.118 1.692 8.704 2.422 13.017 3.538 7.343 1.474 14.631 3.153 21.952 4.72 3.543.648 7.26 1.58 11.003 1.218 2.968-.787 4.112-4.972 1.846-7.142-3.476-3.343-8.653-5.196-13.05-7.01-6.83-2.744-13.928-3.888-21.12-5.205-4.023-.826-8.654-1.891-11.427-5.172 7.639.29 15.261-.212 22.704-2.043 6.975-1.807 14.418-2.176 21.376-3.811 2.176-.513 4.017-1.272 5.674-2.806-.061-1.267-.128-2.333-1.026-3.31-1.702-2.03-4.158-2.019-6.579-2.175-10.211-.346-20.466 1.143-30.694.859-1.74-.045-3.448-.34-5.144-.714 4.374-2.516 9.022-4.575 12.61-7.917 1.434-1.345 3.012-2.73 3.626-4.666.68-1.947-.317-4.207-2.27-4.92-2.785-1.161-6.255-.14-8.95.87-5.893 2.56-11.39 6.344-16.4 10.345-1.724 1.367-3.654 2.265-5.517 3.409-.648-1.362-1.373-2.723-1.496-4.252-.028-1.98.893-3.621 2.176-5.061 2.221-2.427 4.726-4.625 7.293-6.673 3.28-2.845 6.568-4.804 7.712-9.318 6.388-.72 11.98-3.856 16.667-8.136 4.1-4.078 5.947-10.205 5.68-15.897-.163-4.39-1.942-8.42-4.648-11.829-2.41-3.057-5.63-6.076-9.34-7.42-4.074-1.367-8.058-.374-11.713 1.623l-1.707-2.327c3.984-4.48 9.212-7.348 14.714-9.547 9.987-3.671 19.936-3.789 30.43-3.71.107.619.219 1.233.325 1.852a20.414 20.414 0 0 0-7.812 3.493c-3.906 3.063-6.227 7.438-7.36 12.209-.83 3.995-1.11 8.392.112 12.337 1.356 5.01 4.587 9.407 8.86 12.32 3.868 2.857 8.627 4.626 13.459 4.536 6.043-.703 11.862-2.968 15.668-7.917 5.607-7.299 6.277-17.554 3.024-25.985-1.68-4.13-4.738-8.28-8.928-10.111-1.685-.798-3.51-.754-5.144-1.646 4.848-.726 9.284.82 13.676 2.7 3.392 1.569 6.769 2.936 9.776 5.212.084 3.56.686 6.902 2.087 10.183 1.858 5.156 4.82 9.798 9.078 13.291 5.965 5.184 14.167 7.59 21.85 8.683a68.99 68.99 0 0 0 19.144.491c3.007-.385 6.4-.781 9.168-2.07 1.278-.385 1.233-1.948 1.037-3.014-1.461-7.12-4.468-13.977-8.536-19.987-5.306-8.654-13.291-15.7-22.475-20.009-7.873-3.414-16.722-2.611-24.428.804-3.755-1.1-7.343-2.717-11.109-3.76 2.846-1.742 5.568-3.65 8.52-5.212 2.567.212 5.228.686 7.756.373 4.235-.574 8.214-.859 12.276-2.343 5.563-1.947 10.462-5.915 14.446-10.178 4.899-5.786 8.905-12.142 12.398-18.859 1.953-3.878 3.141-8.17 4.28-12.343.407-1.333.496-3.7-1.25-4.09-3.89-1.021-8.03-1.216-12.025-1.64-7.711.039-15.456 1.26-22.77 3.738-4.944 1.724-9.637 4.073-13.75 7.337-6.45 4.71-11.287 11.986-12.727 19.87-.675 3.744-.246 7.287 1.233 10.774-3.247 2.255-6.461 4.448-10.049 6.133-6.946-1.25-13.888-2.472-20.896-3.326.96-1.964 2.026-3.8 3.41-5.507 4.262-.831 8.732-1.975 12.42-4.357 1.55-1.016 3.074-2.11 4.44-3.365 2.272-2.199 4.068-5.05 5.57-7.817 2.298-4.392 4.106-8.828 4.38-13.843 1.44-10.534-1.758-20.97-7.415-29.807-.62-.977-2.132-1.2-3.159-.832-1.958.648-3.844 1.573-5.708 2.466-7.248 3.733-14.373 8.063-19.724 14.335-3.577 4.453-6.232 9.787-8.297 15.093-1.724 4.575-2.852 9.675-1.507 14.501.988 3.7 4.057 6.423 6.4 9.414-1.428 2.31-3.074 4.402-4.33 6.79-.692 1.311-1.356 2.628-2.16 3.873-7.46-.006-14.947 1.277-22.005 3.682-.92.307-1.77.754-2.617 1.211 1.02-6.165 1.16-13.38-1.663-19.122-2.098-4.062-4.905-7.9-9.358-9.536-3.04-1.194-6.148-.932-9.239-.122-1.322.569-1.45-1.35-1.97-2.093 1.194-.49 2.315-1.15 3.655-.949 11.226 1.64 23.25-1.997 32.73-7.973 7.89-5.122 13.498-12.638 17.382-21.108 1.255-3.035 2.238-6.2 3.075-9.374.329-1.529-.084-3.142-1.83-3.399-6.557-1.68-13.587-2.148-20.333-1.824-8.805.625-17.777 2.215-25.427 6.852-3.465 2.349-6.818 5.134-9.318 8.515-3.331 4.335-5.335 9.831-5.418 15.305-3.867 3.381-8.783 5.73-12.353 9.368-2.199 2.16-4.626 4.063-6.852 6.188.033-4.229.423-8.475-.347-12.56-.826-5.429-2.427-11.355-5.68-15.857-3.615-4.52-9.14-7.99-13.955-11.127-8.39-5.13-18.194-9.282-28.185-9.669zm-20.672 76.069c1.534 3.839 3.655 7.416 5.167 11.277 3.125 6.579 4.872 13.363 7.02 20.293 1.099 3.99 2.047 8.052 2.683 12.147.106 1.428.458 3.225-.061 4.592-.988.692-2.043.33-3.103.011-3.392-1.383-5.875-4.34-6.69-7.917-1.495-6.255-3.587-12.131-4.463-18.452-.363-1.903-.541-4.13-2.405-5.201-2.293-.882-5.134.374-6.579 2.232-1.785 2.332-1.907 5.195-2.203 8.002-4.542-4.257-10.451-7.282-15.914-10.19 3.599.548 7.186.152 10.429-1.567 6.93-3.035 12.655-8.515 16.12-15.227zm74.155 1.524c.34 1.076.87 1.986 1.534 2.895 2.863 4.364 6.975 8.543 11.896 10.496 2.561 1.094 5.106 1.93 7.94 1.55-3.509 2.171-6.5 5.285-9.519 8.08-1.289-3.236-3.002-7.448-6.378-8.972-2.555-1.289-5.423.888-5.652 3.571-.39 4.514.871 9.42-.077 14.044-1.524 5.541-5.485 9.564-10.24 12.537-.217-5.05-.05-10.395 1.412-15.266 1.362-6.394 3.259-12.694 5.563-18.81.977-2.795 1.819-5.63 2.946-8.375.2-.58.397-1.16.575-1.752zm-30.756 26.124c.402 2.75.485 5.484.435 8.257-.056 5.306-.764 11.261-3.649 15.836-2.734-2.421-4.402-5.663-5.245-9.184-.798-3.326-1.434-6.718-1.696-10.133 3.476-1.4 6.813-3.08 10.156-4.777zm52.506 12.565c-2.422 5.748-1.953 12.711 1.244 18.084 2.829 4.805 7.377 8.364 12.505 10.456a49.28 49.28 0 0 0-11.79 6.317c-3.381 2.343-6.428 5.161-9.803 7.505-2.712 1.953-6.05 2.21-9.352 3.22 2.745-3.5 5.83-6.613 8.905-9.821 2.036-2.193 3.532-5.458 1.746-8.264-1.64-2.199-4.815-1.345-6.79-.117-4.319 2.94-8.04 6.701-12.108 10.01.68-3.51 1.345-7.527 3.102-10.68 1.663-2.342 3.89-4.301 5.703-6.533 2.009-2.539 3.632-5.29 5.256-8.085 2.382-3.76 5.156-7.56 8.766-10.227.87-.625 1.746-1.244 2.617-1.864zm-112.03 7.326h.035c.39.285.681.681.876 1.195a2.662 2.662 0 0 1-.793 1.087c-.318-.335-.841-2.259-.118-2.282zm9.42 11.042c.368.491.742.977 1.11 1.467 2.143 2.857 4.392 5.648 6.64 8.415 1.089 1.378 2.773 2.695 3.42 4.335-.435 2.07-1.132 4.57-2.605 6.144-2.059 1.535-5.05 1.981-7.426 2.958-.826-4.894-.826-9.804-.899-14.748-.162-2.862-.318-5.702-.24-8.57zm-11.037 2.054c-.91 7.264-1.205 14.592-2.17 21.845-2.84-.994-5.458-2.283-7.611-4.426-1.317-1.266-2.277-2.74-3.326-4.218 5.864-2.901 10.16-7.393 13.107-13.202zm101.17 37.468c1.462 1.305 2.438 2.929 3.604 4.475-2.79.368-5.936.837-8.687.179-2.16-.53-3.353-1.987-4.782-3.538 3.303-.268 6.54-.966 9.865-1.116zm-93.586 8.792c2.003-.052 9.055 2.17 15.86 1.876 2.44.05 4.833-1.255 7.238-1.768 1.495 6.199 1.45 12.432 2.305 18.692-4.666-3.499-8.95-7.296-14.658-8.984 1.45-4.698 2.873-5.226-1.51-7.528-2.218.523-4.502.8-6.777.822-3.615 0-7.248.368-10.847.641 2.087-1.456 4.493-2.477 6.847-3.414a4.035 4.035 0 0 1 1.542-.337zM225 230.973c.006 3.99.207 7.967.307 11.95.078 8.002.067 16.004-.017 24.006.145 3.917-.38 7.795-.25 11.718-.364 5.462-.146 10.914-.213 16.388-3.548-1.97-7.298-3.605-11.02-5.201-4.307-2.02-9.229-3.264-13.553-5.49-2.036-1.116-3.414-2.696-3.766-5.045-.591-3.906-.542-7.968.05-11.874.926-10.228 1.457-20.768.982-31.023 2.377.68 4.838 1.055 7.254 1.58 4.38.903 8.688-1.228 12.348-3.416 2.461-1.606 5.167-2.532 7.879-3.593zm46.459 127.33c1.127.002 2.25.106 3.368.274-.999 4.424-2.086 9.262-1.662 13.804.446 4.251 2.879 8.263 5.495 11.55 3.521 4.196 6.763 8.604 9.57 13.314 1.15 2.025 1.44 4.033.932 6.315-1.083 4.888-2.59 9.693-4.09 14.47-2.416 6.226-4.681 12.593-7.683 18.518-1.077 2.344-2.473 4.514-3.56 6.852-.754-3.593-1.072-7.232-1.53-10.87-1.076-11.901-2.147-23.625-2.025-35.593.095-12.844-.223-25.773.056-38.601.377-.024.753-.034 1.129-.033zm-46.894 10.529c-.15 3.42.022 6.846-.146 10.26-.306 3.338-.077 6.68-.233 10.034.01 4.653-.24 9.295-.28 13.949-.396 11.99-.413 23.659-1.796 35.677-.698 6.556-2.015 13.112-3.41 19.562-1.004 4.87-2.376 9.693-4.017 14.385-.67 1.551-1.35 3.855-2.88 4.748-3.431 1.757-8.14 1.306-11.878 1.144-.118-1.512-.408-3.142-.156-4.648 1.328-4.687 5.529-7.076 6.533-11.73.648-3.62-1.294-6.906-2.058-10.35-1.803-8.179-1.858-16.074-2.372-24.237-.083-8.537 2.166-17.141 1.68-25.661-.162-5.39-2.12-10.468-2.767-15.902-.52-5.089-.375-10.161.077-15.244 8.03.251 15.825-.469 23.703-1.986zm92.049 10.635c6.785 5.836 15.305 6.974 23.15 11.438 4.738 2.611 9.23 5.373 12.857 9.469 6.227 6.26 10.317 14.675 13.23 22.922 2.265 6.718 4.246 13.587 5.691 20.533 1.083 5.713 1.478 11.227-1.038 16.65-3.872 7.175-10.216 11.316-13.419 18.932-23.407 0-46.809.045-70.216-.056-1.735-.022-4.195-.106-5.188-1.825-1.64-3.04-2.495-6.634-3.616-9.904 1.858-.212 3.56-.2 5.144-1.317 2.009-1.394 3.265-4.095 4.42-6.198 4.831-9.028 5.791-18.693 10.143-27.71 2.472-5.982 5.318-11.93 8.939-17.308 1.746-2.628 4.157-4.336 6.595-6.256 2.355-1.869 4.526-4.033 6.618-6.193 2.483-2.471 2.812-6.405 1.373-9.502-1.094-2.706-3.343-4.526-4.364-7.193-.586-2.025-.318-4.39-.318-6.483z"/>
<path d="M228.17 27.562c-.212 3.577-.028 7.087.686 10.602 1.523 7.516 4.135 14.937 7.929 21.611 3.922 5.981 9.056 11.594 15.83 14.3 3.649 1.3 7.494 2.176 11.372 2.36 2.098.19 4.184.09 5.786 1.686 2.779 2.996 3.537 7.432 3.058 11.377-.547 5.022-2.5 9.296-4.481 13.86-1.479 3.304-2.305 6.735-3.99 9.933-1.802 3.598-4.318 6.862-7.242 9.613.296 7.003.965 13.688.1 20.718-.3 3.158-1.417 6.35-3.314 8.905-1.434 1.814-3.699 3.092-6.003 2.043-3.694-1.696-6.568-4.955-7.756-8.855-1.222-3.895-2.16-7.935-2.919-11.952-3.298.48-6.568 2.343-9.82 1.802.53 3.956 1.35 7.979 1.34 11.98.033 2.578-2.127 4.196-3.823 5.791-4.207-.993-9.43-3.008-11.796-6.869-1.517-2.304-2.851-4.881-3.493-7.576-1.239-4.955-2.895-9.776-3.743-14.775-.196-1.139-.526-2.238-.894-3.326-.82 1.004-1.623 1.92-2.02 3.18-.77 2.316-.49 4.866-.981 7.304-3.236.312-4.872-2.087-7.193-3.85-4.994-3.911-10.244-7.31-15.723-10.49-4.28-2.276-8.186-4.698-12.834-6.182-6.623-2.433-13.559-4.062-20.51-5.223-.815-.056-1.256-.96-1.675-1.551-2.159-3.71-3.766-7.756-5.758-11.566-.374-.921-1.288-2.289-.78-3.27 1.395-1.596 3.09-2.874 4.323-4.637 3.259-4.202 3.639-9.91 2.941-14.987-1.188-4.72-2.656-9.285-5.334-13.397-1.98-3.142-4.325-6.054-6.847-8.771-5.384-5.19-11.51-9.257-18.095-12.756-4.564 8.559-6.522 18.469-5.501 28.122.513 6.606 2.126 13.754 6.74 18.77 3.46 4.073 8.103 6.12 13.146 7.527 1.68.574 3.382.642 4.347 2.338 2.265 3.973 4.118 8.146 4.882 12.688-4.173.368-8.347.084-12.515.436-3.164.273-6.317.295-9.486.306-1.534-.033-3.096.011-4.48-.742-2.087-1.082-3.844-2.895-5.635-4.413-2.104-1.769-4.203-3.616-6.077-5.664-.514-.62-1.222-1.383-1.29-2.21.201-2.304.983-4.346.833-6.728-.235-3.259-.76-6.652-2.166-9.631-1.78-3.845-4.385-6.97-7.331-9.971-2.254-2.366-4.95-4.028-7.835-5.524-10.713-5.696-23.927-6.712-35.778-5.122a59.778 59.778 0 0 0 9.079 20.617c4.118 6.327 9.848 11.763 16.544 15.278 4.33 2.299 9.067 3.71 14.005 3.582 2.628-.012 5.233-.57 7.85-.547 2.238 1.071 3.9 3.431 5.764 5.055 2.796 2.851 6.044 5.642 8.07 9.107-4.85 2.27-9.933 3.705-15.016 5.306-3.911-1.356-7.465-3.058-11.673-3.404-5.373-.742-10.624-.09-15.602 2.065-7.633 2.951-13.402 9.67-17.559 16.494-3.147 4.765-5.519 9.887-8.002 15.015 5.05 2.148 10.083 2.322 15.48 2.606 6.868-.284 13.86-1.434 20.365-3.671 3.515-1.451 7.148-3.142 10.1-5.569 5.5-4.804 8.727-11.55 9.519-18.776-.028-1.417 1.461-1.624 2.46-2.199 5.54-2.215 11.35-3.844 17.275-4.609 6.272-1.038 17.025-.7 17.025-.7s-1.895 4.928-2.035 7.17c.547.016 2.268.16 2.815.148.636-.87 1.01-2.199 1.535-3.175.642-1.244 1.322-2.471 1.964-3.716 2.475 3.41 12.358 2.278 17.61 3.878 14.398 4.119 22.837 11.839 22.837 11.839l-3.234 7.87s2.437 1.095 3.159 1.11c-.219-.585 1.782-4.214 3.094-6.7 1.308.868 1.44.979 3.125 2.09 6.221 4.163 10.786 9.458 16.277 14.418 5.317 5.418 9.073 12.66 13.843 18.53 1.166 1.484 2.605 2.584 4.067 3.756 2.143-4.363 4.86-8.47 7.7-12.416 1.635-2.338 4.492-4.163 7.405-3.995 2.125.619 2.812 2.628 2.438 4.67-.926 4.274-3.057 8.387-4.87 12.348-.364.72-.749 1.423-1.112 2.142-.853 1.803-1.942 3.621-2.421 5.563-.212 2.07.14 4.397 1.373 6.127.943-.742 1.846-1.507 2.594-2.455.96-1.311 1.83-2.7 2.723-4.06v-.002a61.124 61.124 0 0 1 3.431-4.837c.257-.335.519-.659.792-.977 3.242-3.337 5.625-6.807 9.676-9.256 2.076-1.34 4.542-2.651 7.07-1.848 1.6.659 2.103 2.344 1.902 3.95-.513 3.728-2.612 6.463-4.743 9.392-2.076 3.27-4.257 6.545-5.909 10.032 4.498-.458 7.913-2.963 11.02-6.043 5.017-5.261 10.244-11.539 16.577-15.22 2.556-1.546 5.575-2.25 8.08-.191 3.549-1.936 5.736-5.11 7.845-8.442 3.164-4.815 5.619-9.536 10.044-13.387 3.66-3.548 8.507-9.772 13.557-10.933 1.548-.273 4.966 4.861 4.966 4.861l2.625-.646s-2.455-5.155-4.363-7.343c4.274-4.68 9.658-8.436 15.238-11.394 8.542-4.419 18.63-5.417 28.1-5.59 3.805-.017 7.895-.497 11.634.34h.002-.002c-.145.65-.327 7.486.551 8.758l3.22-.187c-.28-1.736-.586-4.954-.82-7.898 5.571-.284 11.465.104 16.779 1.905 4.57 1.64 8.939 3.275 13.096 5.836 1.15.77 2.472 1.735 3.125 2.985.625 1.88.815 3.884 1.462 5.77 1.797 5.786 5.038 10.596 8.788 15.277 1.93 2.31 4.207 4.704 7.12 5.703 5.602 2.08 11.7 2.93 17.632 3.404 6.26.173 12.794.11 18.943-1.184-1.523-5.378-3.94-10.529-6.657-15.4-4.999-7.917-11.539-14.77-19.858-19.206-7.242-3.654-16.678-3.654-23.686.553a45.227 45.227 0 0 1-9.725-3.962c-3.097-1.663-6.785-2.237-9.268-4.637 4.28-3.381 8.442-6.896 12.744-10.25 1.093-.759 2.037-1.557 3.46-1.15 5.925 1.272 11.862 1.619 17.609-.652 8.14-3.431 14.602-9.564 19.317-16.952 3.75-6.043 7.488-12.906 8.805-19.959-4.296-1.121-8.945-1.21-13.364-.999-10.601.502-21.398 4.051-29.863 10.53-3.03 2.471-5.943 6.081-7.74 9.552-1.869 3.665-2.449 7.878-2.203 11.952.09 2.064 1.2 4.011 1.143 6.048-.569.988-1.629 1.74-2.51 2.444-3.242 2.46-7.043 4.793-10.67 6.634-1.406.832-3.029.202-4.54-.016-7.55-1.518-15.184-2.187-22.867-2.511-.34-2.712.642-5.134 1.696-7.566.926-1.942 1.92-3.979 3.304-5.636.92-1.26 2.884-1.44 4.29-1.891 6.283-1.607 11.986-5.04 16.014-10.156 3.928-5.173 5.557-11.622 5.563-18.045.112-7.823-2.014-15.696-5.853-22.497-3.091 1.3-6.099 2.694-8.91 4.541-6.428 3.727-12.405 7.89-16.333 14.362-4.235 6.272-7.042 13.22-5.965 20.93.982 4.436 4.286 7.17 6.998 10.501-1.764 3.03-3.929 5.658-5.33 8.905-1.02 2.12-1.863 4.788-3.525 6.484-1.54.725-3.655.402-5.34.614-7.65.67-15.523 2.12-22.36 5.758-4.53 2.003-8.446 4.782-12.464 7.639-5.747 4.123-10.586 9.017-15.445 14.122-1.127 1.228-2.455 2.065-3.95 2.779-2.405-4.123-1.864-8.66-5.703-12.287-.033 4.38.877 8.47.34 12.917-.39 3.666-1.657 7.181-4.073 10.004-2.65 3.013-5.446 6.183-8.665 8.599-1.367.987-3.476 1.919-4.932.613-1.652-1.25-1.574-4.067-1.825-5.942-.82-5.736.67-10.859 1.685-16.506 1.618-6.528 3.61-12.9 5.825-19.244 1.674-4.754 3.47-9.027 4.363-13.888.653-3.409.788-7.192 2.049-10.406 1.138-2.873 3.191-5.328 5.11-7.689 2.36-3.068 4.782-6.305 7.75-8.81 1.887 1.975 2.74 4.347 3.907 6.746 1.004 1.099 1.63.647 2.812.167-.15-2.957-2.293-5.837-4.084-8.074 2.064-1.897 5.295-3.588 8.157-2.829 2.115.513 4.163 1.1 6.361 1.139 12.783.19 25.287-5.547 33.746-15.071 4.297-5.53 7.622-12.12 9.173-18.954-5.35-.86-10.708-1.4-16.13-1.189-9.921-.044-20.02 2.344-27.726 8.877-3.76 3.577-7.137 7.573-8.392 12.733-.547 1.998-.407 4.023-.759 6.043-.06.647-.842 1.077-1.294 1.473-2.857 2.02-6.06 3.56-8.866 5.647-3.778 3.086-7.45 6.294-10.92 9.72-1.105 1.01-2.433 2.4-3.934 2.712-.976-.357-1.73-1.384-2.327-2.193-1.032-1.529-1.987-3.137-1.875-5.05.117-3.984.67-7.778-.295-11.722-1.116-7.265-5.223-13.581-10.858-18.184-3.928-3.683-8.715-6.49-13.581-8.739-6.294-2.661-12.962-3.911-19.758-4.319zm-71.603 3.716c-4.55.072-8.937.865-13.472 1.334.893 4.413 2.947 8.096 4.978 12.102 4.062 7.153 10.294 13.235 17.66 16.935 4.659 2.388 9.636 4.107 14.836 4.81 3.744.647 7.46.2 11.194.552 1.355.134 2.906 1.937 2.906 1.937s-3.704 5.222-3.984 7.961l2.456.972s3.216-5.186 4.137-7.558c5.157 1.837 13.153 15.533 13.623 17.038 1.15 3.7 1.172 7.404 3.002 10.942 1.987 3.828 4.29 7.42 5.78 11.505 3.136 6.863 4.309 14.1 6.619 21.153.022-2.678-.447-5.312-.419-7.99-.011-4.319.385-8.788 1.64-12.94.252-1.004.714-2.114.636-3.157-.318-1.217-.904-2.372-1.361-3.544a62.691 62.691 0 0 1-3.81-15.517c-1.25-7.84-.51-15.836 1.36-23.513-2.388 2.165-4.106 4.52-5.457 7.444-1.255 2.79-2.483 5.58-3.995 8.252-2.21-1.144-3.504-3.069-5.161-4.888-3.51-3.839-6.908-7.605-11.371-10.373-.96-.787-3.053-1.662-2.84-3.135-.235-4.38.45-8.727-1.206-12.945-1.797-4.62-5.797-8.119-9.843-10.791-7.923-4.425-16.89-6.55-25.946-6.568a39.529 39.529 0 0 0-1.961-.016zm73.131 138.31h.04l-.04.001z" fill="#094"/>
<path d="M309.69 77.086a7.065 7.065 0 0 0-1.642.164c-3.007.469-5.379 2.377-8.336 2.662-2.243.334-4.849.128-6.952.976-4.046 1.546-6.719 6.02-6.668 10.277-.062 3.8 1.3 7.17 3.23 10.373 2.344 4.09 5.943 7.41 10.313 9.229 2.41 1.06 5.21 1.239 7.778.72 1.121-.38 2.058-1.244 3.152-1.713 2.857-.898 5.457-1.813 7.46-4.185 3.275-3.727 3.498-9.753 2.93-14.424-.43-4.23-1.96-8.202-5.022-11.22-1.7-1.633-3.898-2.82-6.243-2.86zm-127.15.714a8.519 8.519 0 0 0-.584.013c-4.096.106-7.265 3.024-9.107 6.462-2.365 4.597-2.784 10.312-2.187 15.373.402 3.704 2.4 7.465 5.525 9.569 2.204 1.144 4.535 2.483 6.99 2.957 3.89.447 7.55-.76 10.775-2.885 4.09-2.695 8.325-6.355 10.35-10.919 1.072-2.555 1.725-5.597 1.161-8.342-.603-3.945-3.91-7.31-7.549-8.683-2.533-1.02-5.273-.546-7.873-1.149-2.658-.837-4.643-2.36-7.501-2.395zm184.21 41.16c-.982.03-1.934.222-2.823.701-3.454 1.747-6.076 5.28-7.337 8.89-1.245 3.771-1.758 7.716-.826 11.622 1.05 4.96 4.548 9.112 8.883 11.595 2.366 1.289 4.553 2.61 7.36 2.137-.899-1.256-1.607-2.444-1.858-3.99 2.153-.117 4.296-.122 6.444.112-.284 1.267-.72 2.478-1.121 3.705 3.733.073 7.438-2.115 9.97-4.726 2.925-3.297 4.437-7.7 4.576-12.075.207-4.798-.613-10.222-3.721-14.067-1.646-1.958-3.522-3.784-6.245-3.856-2.31.128-4.323 1.043-6.706.709-2.125-.12-4.435-.826-6.596-.758zm-243.49.061a5.16 5.16 0 0 0-1.85.384c-3.626 1.344-6.75 4.302-8.157 7.923-2.215 5.496-2.634 11.79-.524 17.387 1.802 4.52 5.685 7.75 10.35 9.023-.346-1.406-.72-2.757-.547-4.23 2.12.352 4.24.63 6.316 1.2-.569 1.261-1.607 2.36-1.942 3.7 4.403.457 8.95-1.073 12.398-3.79 6.088-5.223 7.829-14.92 4.866-22.207-1.322-3.398-3.967-6.466-7.655-7.259-2.55-.268-5.072-.335-7.555-1.05-1.825-.368-3.81-1.14-5.7-1.08zm207.16 11.391c-1.783-.012-3.544.476-4.922 1.615-1.78 1.317-3.091 3.682-5.401 3.984-2.4.34-4.575.368-6.623 1.852-2.293 1.73-4.353 4.28-5 7.125-.502 2.522-.384 5.251.503 7.673 2.829 7.594 11.104 12.81 19.177 11.924 2.656-.402 5.317-1.396 6.779-3.795-1.54-.006-4.536-.15-3.844-2.511 1.222-.982 2.79-1.557 4.168-2.31.608 1.255 1.216 2.511 1.819 3.772 3.337-1.311 5.496-4.246 6.4-7.639 1.038-3.995.826-8.526-1.021-12.264-1.607-3.286-3.7-6.232-6.975-8.034a10.314 10.314 0 0 0-5.06-1.391zm-164.07 5.286c-2.544-.044-4.971 1.044-6.751 2.84-2.969 2.73-4.632 6.769-5.419 10.653-.725 4.63-.301 10.043 2.857 13.759 1.278 1.59 2.997 2.31 4.855 3.013-.128-1.26-.279-2.51-.452-3.76-.73.295-1.462.596-2.193.892-.837-1.97-1.846-3.476-.346-5.474.81.491 1.618.988 2.433 1.485.111-2.974.078-7.008 2.215-9.357 1.467-1.719 4.101-1.68 5.574.01 4.313 5.552 4.654 12.053 6.997 18.207 1.535.235 3.633-1.004 4.916-1.847 3.738-2.985 6.389-7.209 7.365-11.907.385-3.052.402-6.484-1.054-9.28-1.284-2.717-3.309-4.949-6.238-5.87-2.271-.602-4.782-.373-7.087-.836-2.812-.586-4.732-2.338-7.672-2.528z" fill="#f00000"/>
<path d="M276.68 168.69c-.469.435-.932.876-1.395 1.323-2.36 2.65-4.77 5.317-6.913 8.146-1.395 2.126-2.695 4.034-2.16 6.723.91 1.39 2.617 1.563 3.973.67 2.265-1.445 4.475-3.99 4.654-6.78.435-3.408 1.573-6.64 1.841-10.082zm-25.46 25.566c-.82.001-4.67.87-5.463.928 1.59.653 4.441 3.827 11.47.105 0 0-5.186-1.034-6.007-1.033zm-21.996 10.287a8.359 8.359 0 0 0-1.892.148c-.313.653-.056 1.551-.017 2.254 1.885 13.988 2.69 28.033 3.041 42.133-.034 9.424.083 18.843-.112 28.267-.134 6.4-.145 12.8-.168 19.205 4.096.368 8.041-.24 12.142-.373 4.643-.43 9.297-.542 13.955-.681 3.253-.145 6.495-.452 9.754-.452.536-9.006.63-18.006 1.4-27.006.664-8.359 1.2-16.734 1.83-25.093.363-11.037 1.429-22.034 2.3-33.021-2.194-.954-4.515-1.462-6.914-1.3-4.637.419-9.296.87-13.95 1.01-3.805-.129-8.096-.028-11.678-1.345-2.723-.893-5.234-2.193-7.846-3.326a5.156 5.156 0 0 0-1.845-.42zm36.005 154c-10.419 4.09-26.713 14.003-26.713 14.003s.98-6.38 1.655-7.72c-3.565.715-7.042 1.736-10.535 2.74-.346 18.14-.876 36.353-1.512 54.481-.078 15.344-2.622 30.71-6.757 45.463-1.121 4.163-2.381 10.258-2.381 10.258s1.946-.23 3.832-1.916c.123 1.066.256 2.126.407 3.192 1.607-.212 3.727-2.534 3.727-2.534l.807 2.863s5.632-2.388 6.743-3.476c.385 1.116 1.668 3.577 1.668 3.577l7.647-2.649c2.728-4.377 7.236-7.498 11.837-11.2 5.686-4.197 10.222-10.363 14.173-16.16-.915-5.39-1.523-10.836-2.22-16.259-.77-7.867-1.753-15.534-1.893-23.435-.563-6.824-.446-13.743-.452-20.645-.016-10.194.079-20.389-.033-30.583zm8.872 112.55c-1.21 2.148-1.529 4.464-1.98 6.852 1.355 1.244 3.83 4.605 3.83 4.605s-.667-8.427-1.85-11.457z" fill="#7a3f28"/>
<path d="M256.16 88.432c1.345-.2 2.807-.296 4.04.363 1.25 1.026 1.79 2.98 2.165 4.491 1.155 5.485 1.573 10.964-.625 16.26-3.248 7.844-10.3 13.91-18.028 17.146-4.151 2.06-8.431 3.532-12.928 4.648-.826-3.805-.781-7.834-.72-11.712.145-6.935 2.014-13.737 6.205-19.334 4.692-6.316 12.169-10.585 19.892-11.863z" fill="#094"/>
<path d="M181.73 106.48c1.027.781 1.891 1.791 2.807 2.706-.625.447-1.245 1.038-1.976 1.272-1.59-.25-3.119-.63-4.742-.608-.486-2.187 1.835-4.224 3.911-3.37zM310.97 106.28c.145.787.296 1.573.446 2.36-1.74 2.048-4.123.793-6.35.486.274-1.005.218-1.903 1.2-2.511 1.49-.413 3.17-.263 4.704-.335z"/>
<g fill="#fcdb00" >
<path d="M356.62 201.47c-6.153.055-12.198.794-18.43.961-5.033.363-10.05.162-15.083-.073-2.187-.245-3.448 2.367-4.347 3.946.698.223 1.412.396 2.126.513 12.153.96 23.034-1.607 34.885-3.65 2.377-.524 4.815-.613 7.047-1.478a65.148 65.148 0 0 0-6.2-.219zM320 171.93c-4.799 1.813-9.636 4.113-13.592 7.416-2.477 1.852-4.458 4.084-7.109 5.702-4.497 2.868-9.446 4.135-14.652 4.955-1.864.1-2.75 2.874-3.292 4.291 3.538-.184 7.014-.748 10.523-1.133 2.137-.156 4.19-.038 5.686 1.68 1.484 1.82 2.823 3.593 4.792 4.938a26.676 26.676 0 0 0 4.676-2.198c-.764-1.11-1.93-2.383-2.092-3.75-.307-3.566-.078-6.997 2.087-9.982 3.348-4.648 8.944-7.913 12.973-11.92zM275.78 163.57c-5.44 2.232-10.055 7.114-13.766 11.556-2.963 3.074-5.853 7.277-9.653 9.324-2.996 1.468-6.355 2.405-9.686 2.644-.352 1.3-.43 2.551-.38 3.89 4.425.117 9.112-.692 13.615-.117 1.613.206 2.801 1.06 4.207 1.768 1.752.084 3.505-1.367 4.944-2.248-1.473-.52-2.65-1.222-3.18-2.768-.832-2.779.022-5.926 1.456-8.375 3.337-5.78 8.75-10.362 12.443-15.673zM231.35 154.93c-1.261.123-2.009.91-2.835 1.757-2.773 3.013-4.787 6.433-6.746 9.999-2.41 4.112-4.229 8.788-6.762 12.767-2.4 3.599-6.824 4.798-10.624 6.321.073 2.048.469 3.957 1.836 5.553 1.774.496 4.006-.251 5.78-.57 2.969-.663 6.071-.619 8.956-1.484 1.813-.524 3.052-2.142 4.352-3.415-3.024-1.3-3.543-4.714-3.381-7.65.257-5.244 3.085-9.24 5.412-13.76 1.573-3.252 3.443-5.902 4.012-9.518zM166.27 152.39a97.673 97.673 0 0 0-.909 1.68c-1.093 7.008.77 14.619 3.465 21.092 1.523 3.889 4.525 7.337 5.395 11.394.525 2.722.324 5.535-1.032 7.996-1.49 2.778-3.671 4.508-5.59 6.974 4.19.297 7.461-1.9 11.081-3.721 2.824-1.512 5.67-2.55 7.578-5.274 1.384-1.769 1.807-3.788 2.142-5.953-3.571-1.719-6.98-3.225-9.642-6.283-3.973-4.15-5.457-9.111-7.415-14.367-1.668-4.509-1.881-9.71-5.073-13.537z"/>
<path d="M197.18 150.39c-1.049.402-1.327.658-1.651 1.702-1.15 3.632-1.005 7.828-1.15 11.61-.58 9.587-.117 18.303-3.13 27.632-.892 2.444-2.315 4.686-4.095 6.578-1.055 1.155-2.8 1.214-3.616 2.41-.738 1.08-1.715 2.982-.837 3.833 1.862 1.807 5.256 1.323 7.716.341 2.986-1.121 5.558-2.801 8.845-2.812 4.575-.307 8.263 1.98 12.833 2.092 3.337.302 5.72-1.25 8.632-2.505 3.783-1.68 8.308-2.148 12.125-.302 3.995 1.914 7.683 3.756 12.169 4.27 3.682.329 7.388.345 11.06-.157 5.29-.519 9.97-1.752 15.227-.106 3.705 1.233 5.551 4.05 9.05 5.97 5.35 3.091 11.099 3.432 17.108 3.918 3.822.362 7.198.066 10.764 1.69 4.33 2.064 8.436 4.938 12.967 6.55 6.003 1.837 12.298 2.824 18.39 4.386 6.875 1.467 13.403 3.348 20.373 4.285 1.082.145 2.17.135 3.263.085-1.808-2.41-5.333-3.555-7.962-4.872-6.55-3.119-13.408-4.363-20.506-5.535-5.825-1.267-11.188-1.769-16.304-5.083-2.226-1.362-4.234-3.074-4.68-5.792-.787-3.61.914-6.847 3.19-9.514 3.555-4.385 9.05-6.466 13.71-9.736 3.32-2.371 6.863-3.928 8.922-7.622-3.41-.558-7.254 1.361-10.121 3.074-7.193 4.353-13.838 9.698-20.947 14.206-6.624 3.594-13.391 6.422-21.102 5.68-4.8-.524-9.34-4.14-10.384-8.938-.653-3.822 1.707-7.907 4.14-10.685 3.353-3.733 6.41-7.7 9.853-11.355 1.256-1.602 2.974-3.237 3.605-5.201-2.332 1.054-4.268 2.623-6.205 4.257-5.273 3.923-9.921 8.705-14.73 13.168-4.788 4.788-10.44 9.324-16.997 11.355-4.162 1.234-9.245 1.406-13.218-.552-3.37-1.696-6.154-5.44-5.535-9.368.748-6.462 4.62-12.036 8.096-17.353 2.271-2.919 4.297-5.931 5.608-9.419-1.886.536-3.482 1.557-4.943 2.84-4.436 3.951-8.248 8.65-11.478 13.616-3.633 5.055-6.992 9.797-11.846 13.826-4.28 3.364-9.787 4.972-15.2 4.107-2.187-.357-4.184-1.396-5.646-3.075-1.579-1.68-1.936-4.118-2.277-6.305-.457-4.258-1.204-8.437-1.388-12.722-.235-6.322-.207-12.66-.58-18.976-.068-1.959.004-3.777-1.117-5.496z"/>
</g>
<path d="M180.3 200.69c-6.02 3.312-13.102 5.415-15.592 3.224 0 0-15.288 8.687-23.761 11.416-3.554 1.104-7.683 1.261-10.981 2.946-2.254 1.055-2.338 3.197-3.995 4.927-2.115 2.45-4.954 3.03-7.376 4.921-.898.575-.603 1.624-.625 2.539.089 1.568.881 3.61 2.628 3.906 2.204.296 4.469.083 6.69.267 4.971.257 9.67 2.584 12.968 6.295.597.692.78 1.478 1.11 2.31-4.727 3.56-10 4.368-15.673 5.333-1.105.118-1.875.732-2.746 1.356 1.049 1.736 2.176 3.41 3.125 5.207.418.781.848 1.372 1.808 1.467 1.813-.017 3.705-1.072 5.34-1.786 4.296-1.997 8.832-3.347 13.591-3.492 7.678-.408 15.528 1.713 22.877.19 8.641-1.179 11.99-9.305 15.78-16.08.313 3.364-.91 6.159-2.226 9.15-2.773 6.104-8.933 10.406-15.517 11.36-2.154.39-4.374.246-6.511.636-2.88 2.444-5.33 5.535-7.807 8.38-3.883 4.213-7.23 8.94-10.07 13.91-1.942 4.113-3.36 8.532-4.336 12.974-.658 2.778-1.372 5.49-1.411 8.37a28.644 28.644 0 0 1 3.196-2.221c.28 3.13-.945 11.939.943 18.96 1.613-2.567 3.264-4.42 5.82-6.088-.625 5.78-.787 11.784.14 17.537 2.008 10.947 10.283 19.68 20.08 24.39-.139-2.996.135-5.742.899-8.643.898 1.132 1.027 2.595 1.624 3.978 1.59 3.689 3.543 7.17 5.585 10.624 2.589 4.531 3.504 9.24 4.682 14.25 1.205 5.563 2.416 11.126 3.208 16.767 4.346 22.548 6.986 45.944 6.366 68.921-.625 8.22-4.764 14.625-7.928 21.996-1.395 3.454-2.808 7.008-3.538 10.674 2.55-2.812 3.292-6.506 6.015-9.206-.904 3.939-2.421 8.515-1.836 12.566 4.358-1.691 9.67-4.458 11.856-8.81 1.669-4.699.213-10.43 1.53-15.255.987-3.103 4.196-5.536 5.15-8.739.675-2.064.072-4.548-.424-6.612-1.619-5.987-2.545-12.191-2.824-18.39-.585-6.238-.708-12.65.056-18.877.469-6.155 1.88-12.348.853-18.514-.937-4.972-2.755-9.971-3.13-15.06-.87-9.832 1.061-19.658.52-29.556 1.317 1.188 2.578 2.299 3.314 3.962 1.038 2.064 1.166 4.167 1.49 6.427 12.046 1.323 23.133-1.25 34.6-4.542a226.892 226.892 0 0 1 11.566-3.414c1.423-.374 2.869-.486 4.33-.558-1.099 1.87-2.616 3.348-3.961 5.022 3.08-1.457 6.032-3.142 9.2-4.436 3.254-1.328 6.417-3.276 9.81-4.174 5.998.016 11.75.776 17.833-.05 3.264-.491 6.422-.927 9.49-2.205-2.242-3.71-6.103-5.183-8.854-8.403 2.254.073 4.743.012 6.813 1.01 3.075 1.44 5.284 4.04 7.192 6.769 4.157 5.96 8.024 12.895 12.8 18.447 3.404 3.543 7.231 7.31 11.623 9.58 2.12 1.133 4.218 2.193 6.477 3.024 6.205 2.299 12.186 4.681 17.588 8.587 8.186 5.156 14.106 12.672 18.391 21.253 3.482 6.78 5.792 14.234 7.985 21.51 1.87 7.516 4.012 16.02 2.645 23.742-.742 5.212-4.347 9.687-7.784 13.464-4.698 4.754-8.492 10.021-9.469 16.801 1.105-.44 2.69-.664 3.532-1.506 1.272-1.936 2.143-4.079 3.644-5.893.965-1.322 2.856-1.868 4.302-2.56-1.942 3.911-3.99 8.403-3.978 12.839 6.06-1.535 11.567-4.649 14.926-10.055 2.923-5.212 1.076-12.94 2.12-18.591 1.088-3.761 4.82-4.882 6.405-8.587.782-1.501-.089-3.148-.647-4.571-3.147-6.701-5.797-13.625-7.627-20.806-2.048-5.982-3.242-12.148-4.866-18.241-1.719-6.177-2.885-12.515-4.61-18.692-.775-2.756-1.265-5.563-1.595-8.403-.195-1.323-.3-2.88-.96-4.057-.624-1.194-2.232-1.646-3.398-2.148-4.045-1.506-7.867-2.762-11.404-5.35-3.995-3.02-7.282-6.758-8.17-11.84-.736-4.654-.657-9.341-1.796-13.967-1.322-5.323-2.812-10.496-5.11-15.484-2.232-5.691-5.424-11.064-9.24-15.83 4.536 1.25 10.43 6.894 14.71 8.764-.877-1.702-2.392-6.142-4.928-8.179-2.536-2.036-8.689-4.575-13.102-5.853-5.943-1.601-12.018-1.579-17.944-3.303-4.883-1.238-9.509-3.208-14.402-4.397-8.002-2.025-16.01-1.97-24.15-.999-8.603 1.133-17.57.682-26.196 1.608-7.31.006-15.143 2.125-22.046-1.24-5.775-3.207-11.813-5.847-17.917-8.34-3.571-1.49-7.092-2.858-10.423-4.855-1.189 2.567-2.12 5.133-3.934 7.36-.91-2.69-.658-5.525-.692-8.404.15-5.44 1.038-10.875 1.585-16.287.703-7.79 1.495-15.495 1.305-23.329-.1-3.604.045-7.31-.524-10.875-3.075-2.025-6.01-3.655-7.315-7.332 1.417.146 2.806.38 4.14.899 4.854 1.869 9.753 3.537 14.803 4.809 2.734.692 5.485.207 8.013-.948 2.884-1.345 5.685-2.908 8.43-4.526-3.827-3.504-8.559-7.197-13.933-7.554-1.84-.28-3.252.993-4.848 1.713-4.453 2.299-9.57 2.41-14.301.926.887-1.116 2.489-1.456 3.783-1.964 2.863-1.1 5.831-.658 8.688-1.663 3.465-.982 4.609-3.727 6.015-6.713-2.662-.301-5.518-.58-8.169-.156l-6.243 1.607c-2.483.497-4.599 2.461-6.792 3.75-.591-.742-1.718-1.585-1.634-2.623.01-2.968 3.818-6.92 3.818-6.92s-5.19.491-6.612-1.244c-1.315-1.605.075-5.657.075-6.224zm-17.287 16.709c1.594.04 3.147.45 4.75 1.245 1.937 1.004 4.453 1.808 5.86 3.52-2.115 1.653-4.018 1.58-6.551 1.083-1.255 1.864-2.199 3.694-4.648 4.068-2.89.508-4.793-2.27-6.785-3.816-2.706-1.189-5.452-2.115-7.901-3.84 3.822-1.032 7.683-.385 11.439-1.685 1.333-.412 2.597-.606 3.836-.575zm-14.427 125.28c-10.267 1.356-21.008 1.278-31.342 1.506-3.175.257-6.087-.35-8.883.888-2.561 1.032-4.341 3.677-5.859 5.87-2.438 3.877-5.077 7.812-5.395 12.515-.218 3.962 1.127 8.113 2.974 11.583 4.219 8.164 8.867 15.512 11.974 24.272 3.739 9.547 6.36 20.45 12.281 28.986 2.031-5.267 2.851-10.92 2.344-16.544-.028-1.752-2.277-2.583-3.526-3.43-2.433-1.29-4.542-3.248-5.106-6.043-.58-3.114.81-5.692.536-8.833 1.183.022 2.36.033 3.543.033.061-.843.357-1.802.139-2.628-1.138-1.417-2.84-2.472-4.251-3.61-2.99-2.41-5.692-5.172-7.795-8.403-1.512-2.277-3.543-4.9-3.99-7.633-.563-3.995 1.172-7.806 3.102-11.193.926-1.546 1.853-3.37 3.248-4.542 1.266-1.144 3.638-.285 5.212-.296a79.078 79.078 0 0 1 16.315 2.533c4.787 1.339 9.335 3.23 13.944 5.066 4.48 1.842 8.927 4.046 13.82 4.57 4.308.335 8.482-.073 12.757-.564-1.3-3.13-1.774-6.562-5.24-8.051-6.21-2.729-11.94-6.305-16.683-11.198-1.418-1.58-2.69-3.281-4.118-4.855zm147.96 12.666c-3.599 1.015-7.108 2.137-10.796 2.6-1.964.245-3.917.524-5.876.831-1.294 3.281-1.897 6.746-2.087 10.261-.094 3.331.793 6.44 2.651 9.202 3.381 5.317 8.431 10.238 11.522 15.852 2.11 3.57 1.657 8.655 1.127 12.605-2.165 10.328-6.11 19.886-10.63 29.37-3.554 8.253-8.833 15.976-14.273 23.1a67.208 67.208 0 0 1-5.88 6.959c-2.49 2.572-5.413 4.564-8.337 6.735-2.126 1.568-4.201 2.679-5.407 5.167-1.417 2.958-2.828 6.138-3.308 9.397 1.328-.391 3.604-.268 4.173-1.797 1.769-3.454 4.42-7.46 8.482-8.314-2.243 4.073-4.38 7.912-5.028 12.616 4.877-1.239 10.021-3.08 13.123-7.288 2.137-3.068 2.355-7.381 3.042-10.925.552-2.471 1.763-5.212 4.028-6.562 2.227-1.434 4.71-1.138 7.137-1.83 1.328-.407 2.192-2.081 2.884-3.192 2.773-5.027 4.475-10.757 6.143-16.23 1.194-4.693 3.03-9.101 4.743-13.616 2.84-6.824 6.188-13.96 11.26-19.429 2.801-2.784 5.742-5.412 8.42-8.33 1.725-1.858 3.985-3.928 3.516-6.735-.642-2.611-2.974-4.748-4.123-7.203-2.182-4.062-1.92-8.643-.385-12.878-2.132-2.372-4.42-4.581-6.49-7.003-3.599-4.095-6.49-9.017-9.63-13.364z" fill="#f00000"/>
<path d="M157.35 225.05s-.723-3.566.562-4.392c-1.913.431-2.856.215-3.238 2.452zM164.28 226.62c1.113-3.008.049-5.136.049-5.136l2.74 1.77c-.415 1.729-1.412 2.387-2.789 3.366z" fill="#fff"/>
<path d="M42.025 479.23c.946 1.515 1.906 3.02 2.893 4.5h135.79v-4.5H42.028zm340.81 0v4.5h72.256c.987-1.48 1.946-2.985 2.893-4.5h-75.148z" />
</svg>
