<?xml version="1.0" encoding="UTF-8"?>
<svg width="500" height="585"  viewBox="0 0 500 585" xmlns="http://www.w3.org/2000/svg">
<path d="m4.355 4.2494 8.9308 375.4c6.3801 268.13 467.04 268.13 473.43 0l8.9334-375.4z" fill="#fff" />
<path d="m4.339 4.25 8.9321 375.4c4.5427 190.92 239.36 245.84 376.55 164.89l-384.84-540.29h-0.64401z" fill="#094" stroke="#000" stroke-width="4"/>
<path d="m238.24 13.001-1e-3 0.0019c-1.0827-0.17625-2.1647-0.02793-3.1466 0.77148-2.0143 1.7059-1.0939 5.6828-2.334 7.7285-1.7499 1.9828-3.8912 3.1408-5.0118 5.7089-1.3911 2.8577-0.61128 5.438-0.89454 8.3965-2.4467 4.0148-3.5106 7.6587-3.3223 12.307 0.88126-0.11331 3.6622-1.2148 3.6622-1.2148l-2.2774 7.4277 9.3809-3.2559-3.7422 6.9415 6.9395-1.9629s-0.53251 4.1015-0.79689 7.2129l8.0704-1.6133c1.9634 3.9015 5.3408 7.2741 7.629 11.625-12.218-6.746-27.586-11.594-32.926-25.727-1.6682-4.6832-0.96324-9.9972-0.0253-14.781 1.0953-4.2929 2.9274-7.6829 1.8887-12.297-0.8309-2.7193-3.9271-3.7655-6.5079-3.7403-3.223-0.0063-6.0251 1.9632-7.3849 4.8399-1.3848 2.9333-1.2836 6.7211-1.5039 9.9063-0.47834 7.8935 2.8636 15.607 6.8223 22.248 1.4478 2.5431 4.7032 7.4648 4.7032 7.4648s-2.0775 3.0145-3.1602 4.1035c-1.3471-0.78683-2.838-2.046-4.418-2.2285-2.1024 1.2778-2.6944 3.904-2.8203 6.1953-0.2266 5.1805 1.6932 9.7809 4.3808 14.1 2.4612 3.7453 5.9422 6.0732 9.3478 8.9121 3.5496 2.9333 7.4465 5.2896 11.525 7.4297 4.2112 2.1716 8.3476 3.6245 11.766 7.0488 3.437 3.5124 6.9555 7.4791 8.4473 12.244 1.3219 3.9153 2.1263 8.7045 0.75392 12.695-1.4352 4.06-4.8088 6.8421-8.1584 9.3223-2.008-2.2157-3.9482-4.5836-6.4786-6.2265-3.8335-2.4675-7.9101-3.838-11.529-6.6895-2.4424-1.9261-4.7658-4.0469-6.9689-6.25-5.4323-5.382-8.3467-13.679-12.822-19.904-1.9955-2.6312-5.2558-4.1679-8.0626-5.7793-6.1374-3.2732-11.558-8.1699-17.316-12.268-2.7508-2.0772-6.1762-4.1105-8.2031-6.918-2.4172-3.1851-1.2396-8.044-3.5371-11.531-2.5304-3.9783-6.9869-7.1452-10.266-10.525-2.82-2.6752-5.019-5.7083-8.9904-6.6211-4.2363-1.3471-7.7607-0.05028-11.928 0.70508 2.2472 1.3975 4.3944 2.9203 6.3458 4.7207-0.78684 0.62317-1.5176 1.2465-2.3926 1.75-1.8695-0.06924-3.7712-0.78833-5.584-1.2227-4.9162-1.3282-10.133-1.3589-14.992 0.21484 4.1419 1.9073 8.0771 3.1723 11.256 6.6407-1.2967 1.5988-2.4174 2.6069-4.4316 3.1797-4.5763 1.5611-7.8494 4.1279-10.367 8.2579 4.3244-0.598 8.3149-1.222 12.406 0.77344-0.30215 2.2347-0.78124 4.2007 0.26367 6.334 1.6303 3.3551 4.5528 6.1373 7.8262 7.8808 2.8326 1.4037 5.576 0.98853 8.5157 1.6055 1.2904 1.0071 1.7924 3.374 2.6484 4.8028 1.5673 3.3236 4.3954 5.5205 7.9903 6.2695 2.7634 0.7239 5.2814 0.0623 7.5098 2.1269 4.3623 3.5501 4.204 8.8445 8.1758 12.59 3.8523 4.23 8.2021 5.8469 10.676 10.744 4.7274 9.6056 11.248 18.128 16.345 27.564-4.1923-3.0844-8.7809-6.4196-11.922-10.605-2.7131-3.4872-5.5458-7.8-9.1778-10.381-4.3748-2.7131-9.5368-2.6569-14.408-3.3243-2.3542-0.18884-4.4316-2.3153-6.5021-3.4043-2.0143-1.2904-4.7954-1.9007-6.4571-3.6192-2.008-2.5619-2.6376-6.2072-5.4766-8.3789-3.097-2.2409-7.0157-3.5379-10.377-5.3633-3.3299-1.7184-5.8038-4.1099-9.5177-5.0352-4.4819-1.0701-8.7671-0.21997-13.01 1.3789 2.5304 1.133 5.0243 2.2275 7.2149 3.9648-1.0827 0.84979-2.1212 2.1523-3.6446 2.0137-3.9279-0.20772-7.4729-0.79992-11.369 0.34571-2.4235 0.78683-4.3548 2.1299-6.4825 3.4707 3.9279 0.52245 7.7749 1.2021 11.483 2.6367-2.0772 4.5636-6.535 5.7656-9.3048 9.6739-0.76795 1.0953-1.408 2.2913-2.0879 3.4433 3.7076-1.6177 7.7865-2.2285 11.695-0.95702 0.0692 2.2535-0.15256 4.2699 0.92384 6.3535 2.2976 4.4755 7.1202 6.7081 11.992 6.8907 1.6618-0.012 3.3422-0.34593 5.0039-0.25781 1.6932 2.2472 1.9895 4.8923 4.4571 6.4785 3.909 2.5241 7.9185 1.7367 12.035 3.1719 2.1654 0.79314 3.2299 2.4548 4.6211 4.1543 1.5486 1.9955 3.7999 2.9584 6.0157 4.0411 4.1042 1.9073 8.1078 4.3183 11.041 7.8301 4.1923 4.9288 6.2143 10.564 10.01 15.769 3.2984 4.4629 6.7295 8.8116 10.16 13.174 6.043 8.3656 12.653 16.316 18.922 24.517 3.4118 3.9341 6.5763 8.0761 10.15 11.859 1.1708 1.2464 2.5251 2.2535 3.9414 3.1915 0.0881-1.2148 1.3242-5.0937 1.3242-5.0937 1.5391 2.9157 9.9128 12.829 10.844 13.504 2.5242 1.8632 5.8166 2.3653 8.6681 0.92383 4.4126-2.1401 7.5334-6.3007 11.795-8.8437 4.9666 6.7164 7.4283 15.553 14.119 20.613 0.044-3.2984-7e-3 -6.5775-0.26563-9.8633 1.8128 3.6699 3.3311 7.4841 5.1251 11.16 1.5548 3.0717 3.8782 5.446 6.4531 7.668 0.28326-3.7831-0.23326-7.4708-0.44728-11.234 2.455 3.7705 4.191 7.9432 6.6837 11.701 2.0962 3.7643 4.2927 7.1245 7.8555 9.6739 0.0377-3.9153-0.34469-7.4837-1.1504-11.305 4.4567 6.2757 7.6715 12.884 14.571 16.963 0.0567-3.2544-0.69189-6.0919-1.7871-9.1133 3.0152 3.6697 5.898 7.6216 9.3224 10.92 1.9955 1.9009 4.2507 3.4195 6.5489 4.9239 0.0504-2.7445-0.4336-5.0737-1.3652-7.6231 2.6186 2.4424 5.3364 4.7401 7.8165 7.3399 3.1599 3.3047 6.4842 6.1791 9.2286 9.8613-2.99 4.9791-5.6657 9.9645-7.0567 15.643-2.9396 11.23-1.1405 23.355 3.0391 34.031 1.7248 4.7651 4.1104 9.1837 6.6661 13.539 2.2095 3.7328 5.9194 6.7801 8.7521 10.129 3.9154 4.444 7.7535 10.071 8.8048 15.995 0.59801 2.9523-1.6546 5.4212-3.543 7.3789-2.3731 2.3164-4.9984 5.0213-8.0704 6.3496-2.7823-0.10707-5.5256-1.4465-8.2697-1.9941-3.5376-0.72384-7.3278-1.7152-10.947-1.5136-0.62947 0.71129-1.1524 1.5565-1.6875 2.3496-4.6014 1.3723-9.4036 2.304-12.947 5.7597-3.0592 2.9711-4.4512 6.1323-4.2247 10.463 2.008-0.9568 3.7575-1.9663 6.0802-1.8593 1.6115 1.4225 0.59818 4.0617 0.13867 5.8243-1.0323 2.9773-1.4911 5.7107-1.3086 8.8769 2.3794-1.4667 4.8027-2.7068 7.4786-3.5567 1.3975 1.2967 2.7063 2.5283 3.3672 4.3789 1.0638 2.9585 1.3276 6.0863 2.6992 8.9629 1.8066-1.8128 3.867-3.9965 6.4786-4.5253 1.2904 0.18884 2.4672 1.1969 3.6192 1.7949 3.4747 2.1717 8.1461 2.148 12.106 1.8144 3.6699-0.68612 7.9862-1.8417 10.699-4.5547 2.1716-2.052 4.1811-4.2167 6.6485-5.9415 2.8515-1.9955 4.9979-4.4991 7.5918-6.8281-0.20774 1.4477-0.41751 2.9013-0.59375 4.3555 4.2175-2.3291 6.3327-6.1449 8.7248-10.129 1.2526-2.1339 2.1739-4.4691 3.502-6.5528 1.0072-1.5925 2.4798-2.5317 4.0723-3.4571 2.8011-1.6115 5.7761-3.5557 7.8653-6.0547 1.2715-1.4352 1.3307-3.1605 1.6895-4.9609 3.6006 6.3009 6.7662 13.063 5.375 20.521-1.9136 9.1588-5.0492 18.493-10.109 26.412-5.042 0.57281-10.214 0.39132-15.276 0.1836-4.0915-0.40285-8.1333 2.372-11.941 3.8008-2.8326 1.366-6.6971 1.4549-8.7618 3.8028-3.5566 3.8775-4.4259 9.2339-3.211 14.264 1.4856-1.2086 3.1407-2.9585 5.0606-3.3613 1.1204 0.50987 2.0092 1.246 2.9786 1.9824-1.2338 2.9837-2.9408 5.7596-2.6954 9.0957 0.0755 2.1276 0.94925 3.8389 1.8243 5.7148 1.6492-1.9891 3.5503-4.4992 6.043-5.4433 2.1591 0.16996 4.2575 2.0188 5.9005 3.3281 1.1771 0.88125 0.99944 2.5449 1.3458 3.8731 0.33991 2.0772 1.7683 3.6616 3.002 5.2793 1.1142-2.4549 2.3744-4.4735 4.502-6.1856 2.7256 2.222 5.5634 3.8513 9.1954 3.8828 8.2146 0.41544 15.008-3.978 21.391-8.5605 3.8902-3.0529 7.1935-6.9492 9.9884-11.016 1.5171-0.3588 4.6778-1.416 4.6778-1.416s8.8077-25.98 12.653-38.852c0.57282-1.7813 1.1267-3.5501 1.4415-5.3945 0.54763-2.8577 0.52807-5.5199 2.1836-8.0567 2.7194-4.4629 5.452-8.3603 5.6661-13.824-0.30845-4.0285-3.1982-6.7553-5.7286-9.5879-3.1474-3.4999-5.7659-7.2812-6.7227-11.971-0.27698-2.2472-0.22047-4.5389-0.30859-6.7988 1.3911 1.0323 2.8015 2.0417 4.2871 2.9356 0.15106-3.6195 0.0759-7.2025-0.88087-10.715 2.82 2.8577 5.4002 5.9231 8.0313 8.9571 0.80571-6.3136 1.4035-13.193-0.082-19.432 2.3416 2.6879 4.4367 5.5535 6.4258 8.5176 1.2527-5.7973 2.0987-11.452 1.4063-17.4-0.39027-3.0152-0.88854-6.0183-1.5117-9.002 2.0458 2.3101 3.9396 4.6987 5.7462 7.1915 0-4.1419 0.45285-7.9451-0.44725-12.043-1.3282-6.1561-3.4164-11.899-5.8711-17.677 2.8892-0.81201 6.0362-1.2148 8.7618-2.4297 3.2355-1.4981 6.2449-3.2095 8.6564-5.8848 2.8326-3.0403 4.4555-6.5651 6.6525-10.002-1.9136 0.39027-3.846 0.44052-5.7911 0.50976 1.9955-3.0152 4.6376-6.1116 5.8966-9.498 1.7248-4.7211 2.631-9.6748 2.8262-14.697-1.4163 0.73017-2.8375 1.4739-4.2286 2.248 2.8075-11.765 3.0028-23.945-1.0762-35.445-0.80567 0.88125-1.5994 1.7683-2.3926 2.6621-0.17626-4.5951-0.0191-9.1223-0.9004-13.667-0.51618-3.9971-2.0284-7.6041-3.4824-11.324-1.9576 2.9144-3.2894 5.7105-4.3027 9.0781-1.6051-12.117-2.6768-24.292-3.0294-36.509-1.7436 2.9773-3.4891 5.9497-5.2579 8.9083 0.0743-14.012 2.4911-27.673 4.2579-41.483-1.6051 1.2589-3.1672 2.562-4.7032 3.8965 0.32858-4.4579 5.2344-21.635 3.086-25.319-0.81831 0.10072-3.4692 3.5384-4.2812 3.6895 0.80448-5.1093 5.2474-16.483 3.6504-21.357-1.0638 0.5854-4.0016 2.6805-5.0528 3.2911 1.5359-6.4835 3.3106-12.897 5.2304-19.273-12.268 2.8263-23.582 10.229-30.487 20.836-0.0629-1.0323-0.13187-2.058-0.20118-3.084-9.996 9.7756-15.472 23.22-15.951 37.137-0.9505-1.3281-1.9071-2.6499-2.8575-3.9844-0.44692 4.1733-1.2158 8.36-1.3731 12.559-0.0504 6.8108 1.0654 13.723 3.0859 20.219-1.6934-1.1016-3.3867-2.1909-5.1114-3.2421 0.88121 19.143 8.2833 38.024 21.584 51.947 2.9586 3.2984 6.2694 5.7999 8.8634 9.4004 4.5636 6.3765 8.1206 13.339 9.4298 21.137 1.1771 5.6904 0.91754 12.898-3.4824 17.248-2.4802-5.6841-6.9667-9.7195-11.064-14.257 1.8066 0.0756 3.5664 0.0448 5.3478-0.26368-2.4927-5.5771-6.9175-10.525-10.625-15.353-13.206-17.361-29.842-33.131-45.584-48.224-2.3416-2.2283-4.5384-4.5836-6.8361-6.8496 1.2716 0.30215 5.7321 0.60455 7.0098 0.9004-2.3164-4.4755-8.6526-8.3077-12.209-11.852 1.9451-0.31473 7.5879-0.50194 7.5879-0.50194-5.2604-6.6925-11.841-11.993-18.018-17.76-3.877-3.9619-7.5185-8.7281-9.7618-13.832 1.0764 0.48469 4.6111 1.9653 5.6875 2.4375-0.62947-5.212-2.3538-10.021-4.3555-14.836 0.83719-7e-3 1.6746-0.0244 2.5118-0.0371-0.61059-3.7328-2.9591-6.118-4.7656-9.2597 1.4352 0.37768 2.8578 0.79269 4.293 1.1641-1.4289-5.0861-3.6066-9.8053-5.5958-14.684-1.1268-2.2472-2.7244-4.2867-4.1094-6.3828 1.9136 0.15107 3.8272 0.32636 5.7345 0.46484l0.0625-1.7812c1.5296 0.31473 3.0466 0.66683 4.5762 0.99413-0.4847-1.7311-1.0754-3.4185-1.6798-5.1055 2.1591-0.22032 6.4766-0.58984 6.4766-0.58984s0.68282-3.0597-0.44141-4.8789c2.1654-0.96937 3.6879-1.7421 5.3496-3.4668l4.8926-5.4941c2.8452-2.4235 7.9307-6.2715 11.645-7.336-1.3408-2.5935-2.1772-5.1317-4.8966-6.6172-8.523-4.4567-18.67-6.2297-28.106-7.6152 2.076-5.1339 2.3592-10.476 2.8691-15.875 0.54135-3.8145 3.0087-6.8381 3.5312-10.684 0.32103-2.392-1.2146-4.7639-3.6192-5.2421-11.738-2.1339-19.948 5.6389-29.584 10.619-3.3676 1.5988-8.0744 5.9199-8.0744 5.9199-9.3357-0.75788-12.931-6.9719-18.395-8.9609-6.2758-1.8759-13.645-0.28619-17.5 0.10156-6.0518-4.0613-13.583-7.1231-18.979-12.217-2.1402-2.0584-3.0655-4.7723-5.0547-6.9063-2.2787-2.5241-5.4583-4.4063-8.379-6.0996-0.98827-0.49728-2.0716-0.99563-3.1543-1.1719zm-8.7892 25.144c0.88762 0.98187 1.5421 2.0592 2.1466 3.2363-1.7059 1.0324-3.3503 1.8259-5.3458 2.1407 0.60427-2.4235 1.38-3.69 3.1992-5.3769zm3.2344 5.7403 3.0723 3.8789-7.2657 3.1856zm-90.228 5.4199c1.794 0.16053 9.4376 1.6192 9.4376 1.6192s2.7218 2.0461 1.0039 2.4043c-3.7686 0.78493-8.0206-0.64197-10.442-4.0235zm94.484 0.35743c0.0189 0.0043 0.0265 0.03472 0.0215 0.09571l1.7715 3.5195-4.6602 1.2559c0.58627-0.74213 2.6263-4.9249 2.8672-4.8711zm38.555 3.5215c2.8495-0.0704 6.8026 2.4027 7.709 5.9239 0.46587 2.0395-0.88185 3.1564-2.164 3.9219-1.0759 0.64205-2.5795 0.46333-3.7579 0.03907-1.6354-0.58867-2.952-1.8589-3.9844-3.3633-0.90014-2.4109-0.83756-5.5007 1.9258-6.5079 0.0893-0.0076 0.17963-0.0112 0.2715-0.01367zm2.5195 0.89453c-1.9248 0.0055-3.9496 2.2592-4.1875 4.1719-0.14293 1.1507 0.90986 2.3381 1.9258 2.8965 0.78174 0.42929 1.8594 0.41607 2.6758 0.05664 1.1211-0.49347 2.1928-1.5941 2.4239-2.7637 0.36387-1.8405-0.81655-4.0669-2.4551-4.3301-0.1268-0.02039-0.25449-0.03161-0.38282-0.03125zm-148.83 0.89844c3.3218 0.6816 11.614-0.63887 10.611 2.414l-0.74414 2.2656c-3.7328-0.4596-7.0542-2.8732-9.8673-4.6797zm111 0.29688 3.3008 3.8828s-3.3283 1.1037-4.4298 1.1855c7e-3 -1.5548 1.1289-5.0684 1.1289-5.0684zm-19.276 6.2952 1.3671 10.145-6.4857-4.6325zm-85.426 6.2633c1.8274 0.02747 3.1003 0.41717 2.9766 1.5547-0.92281 4.5485-9.2632 1.1433-12.852-0.4668 2.2424-0.17389 6.8295-1.1337 9.8752-1.0879zm94.628 1.9239 0.92384 6.8125-4.879-2.5411zm8.043 4.2949-0.59571 5.832-4.7656-3.2656zm5.9181 2.3907 0.93946 6.914-5.6563-3.1719zm7.8321 2.8887-0.19923 7.0917s-3.6935-1.2217-5.3867-2.9024c1.5673-0.82467 5.586-4.1895 5.586-4.1895zm-130.2 25.244c2.2976-0.0282 4.8056 0.98423 6.129 2.7988v2e-3c0.21155 0.59873-1.2205 0.34481-1.8438 0.47071-1.3219-0.42804-7.183-2.8387-5.8243-3.082 0.49069-0.12044 1.0089-0.18295 1.5391-0.18946zm-12.356 7.8731c1.9874 8e-3 4.2779 0.24431 5.3164 0.76758 0.77425 0.64834 2.1147 0.87656 0.88087 1.9277-2.1466 0.14477-7.3175-1.4253-9.1114-2.4765 0.63735-0.14635 1.7216-0.22378 2.914-0.21875zm8.7052 10.791c1.6739-0.0363 2.6128 0.71915 1.8692 2.998 0 0-9.8534 1.1511-12.906 0.77344 1.9663-0.74768 7.8417-3.7021 11.037-3.7715zm196.31 283.89c2.0483 0.10253 2.2695 0.0855 2.2695 2.2031-1.7103 2.8439-4.6314 3.118-7.5685 3.75 1.1935-2.0413 2.861-5.3129 5.2988-5.9531zm8.9473 11.32c-0.45825 5.2032-4.5007 5.3867-8.8712 6.164 2.4203-3.5792 4.2892-5.6611 8.8712-6.164zm9.8946 7.3652c0.72074 0.87371 1.4104 1.7667 1.9668 2.748-2.2239 2.7004-5.4666 3.5547-8.709 4.7129 1.5951-3.7995 3.0462-5.3792 6.7422-7.4609zm28.972 25.449c0.87497 1.0638 1.013 2.1203 0.0625 3.1777-1.3911 1.3408-3.7335 1.826-5.5274 2.3925 1.0324-2.7571 2.0407-5.4255 5.4648-5.5703zm5.4531 10.586c0.64835 0.598 1.2773 1.2089 1.9004 1.832-1.8759 2.2976-4.0786 4.1283-6.6153 5.664 0.44692-3.4809 1.6368-5.7336 4.7148-7.4961zm14.547 6.9063c0.59169 0.79941 1.1887 1.4545 0.63478 2.4805-1.1331 1.7749-3.123 3.0912-4.6778 4.4824 0.15736-2.6815 0.80125-6.472 4.043-6.9629z"/>
<path d="m214.96 19.423c-1.3848 0.07428-2.7088 1.0945-3.502 2.1992-1.7626 2.4675-2.0107 6.1244-2.0547 9.0508 0.10213 8.0641 1.9326 15.199 5.1172 22.432 0.16618 0.61435 5.4004 7.5761 5.4004 7.5761l2.6152 0.01563 0.18555 3.1953 37.914 17.773-2.0876-3.6555s-31.572-15.268-34.038-17.276c-2.4654-2.0083-8.9129-9.8653-9.8262-13.932-0.61862-4.1028 0.33082-8.2644 0.75782-12.397 0.3651-3.4684 2.0016-6.3952 2.7696-9.7188 0.40285-1.9261 0.10053-4.0712-1.8634-4.9903-0.43247-0.20667-0.91016-0.30072-1.3887-0.27344zm26.348 1.6152c-0.13757 2.3905 1.1644 3.5672 2.6055 5.2285-3.3739 1.0953-6.2494-0.23939-9.5918-0.13867-1.366 0.80571-2.2492 2.3364-2.3184 3.9101-0.18255 3.0152 1.3472 5.8664 2.6251 8.5039 4.6896 9.8888 12.458 18.841 19.075 27.528 4.3811 6.2757 9.3166 11.109 12.508 18.253 1.089 2.4801 1.44 5.6464 0.38869 8.1895-1.133 2.4297-3.8258 3.6697-6.4317 2.9648-4.6644-1.1771-9.2354-4.4312-13.516-6.584-4.4882-2.1528-8.5821-4.9927-13.102-7.0957-4.4944-2.4172-9.1761-4.5376-13.52-7.2129-3.1222-1.8632-5.6462-4.4504-8.7305-6.3633-0.82461 5.7344 1.7109 11.097 5.4688 15.277 3.3991 3.5376 8.1769 6.0557 12.514 8.252 4.9224 2.5053 10.544 4.4752 15.113 7.5469 4.4755 3.1788 8.3601 7.2715 11.545 11.734 2.0835 2.8829 3.9022 5.9283 6.1934 8.6601-0.0315-1.8884-0.0951-3.7699-0.1328-5.6583 3.034 2.9648 4.836 6.6473 7.5371 9.8828-0.0377-1.7311-0.0953-3.4569-0.1016-5.1816 2.6438 2.0961 4.7278 4.6311 6.8867 7.1992 1.1456 1.41 2.4054 2.9868 2.6446 4.8437 0.10067 1.133-0.56199 2.3664-0.90821 3.4239-2.3856-2.3416-4.5382-4.8912-6.7539-7.3965-0.11333 2.1843-0.13213 4.3731-0.2832 6.5567-3.6195-2.4423-5.2692-6.3703-8.5802-9.0957-0.55393 4.5321-0.15005 8.8392-2.9512 12.748-2.8075 3.6572-7.1825 6.0799-10.393 9.4356 2.5746-0.7239 5.0924-1.5487 7.7677-1.8633-3.5566 4.6453-8.9128 6.5292-12.35 11.219 3.4747-1.8255 6.6219-3.8847 10.594-4.5079-2.7508 5.3441-8.5293 6.8677-11.469 11.859 2.7256-1.1834 8.627-3.5449 8.627-3.5449-0.0768 1.4604-2.8491 3.5639-3.875 4.7031-2.8452 2.5116-5.3502 5.3377-7.7422 8.2773 2.008-0.90643 3.9728-1.8579 6.0879-2.4747-1.4478 3.4304-3.9651 6.0115-5.7403 9.2656 1.794-0.49728 3.8956-0.67956 5.1798-2.1777 3.1535-3.3801 4.3688-8.6485 8.8946-10.625 5.4071-2.4233 11.594-3.4621 17.499-3.3613-3.7139 2.9019-8.5788 3.4936-12.897 5.2247-1.9828 0.8246-3.6132 1.756-5.3316 3.0527-2.606 2.8955-3.3435 7.3789-6.0313 10.344-2.4046 2.8704-5.9415 4.6451-8.2266 7.5469-1.1016 1.24-0.31991 3.556-0.0996 5.0352 0.78683 3.2921 1.3139 6.5535 0.78515 9.9336-1.3471-1.3596-2.6363-2.5489-3.1523-4.4688-0.99456-3.5185-1.3422-6.9389-2.8907-10.338-1.089-2.3416-2.3522-4.7008-4.0391-6.664-2.0143-2.3541-5.1614-3.7712-7.7422-5.4707-5.3127-3.3488-9.5748-7.4643-14.453-11.342-5.5394-4.3055-10.91-8.8265-16.324-13.283-5.0482-4.186-7.9007-9.4047-12.219-14.227-1.3408-1.4919-2.9587-2.6379-4.8848-3.2421-3.8711-1.2086-8.0881-1.3843-11.985-2.5235-2.3856-0.69869-4.6096-2.0964-6.7618-3.3301-2.5303-1.4856-4.8764-2.92-6.7207-5.2617-1.6807-2.0836-2.5323-4.5209-3.9864-6.7051-1.2841-1.9199-3.4675-2.9447-5.463-3.9707-2.1214-1.0323-4.2051-2.1416-6.3517-3.1172-1.2086-0.49728-2.296-1.02-3.6367-0.73046-2.3416 0.4658-4.5574 0.94617-6.4962 2.4316 4.1734 2.2472 8.7244 3.1536 12.74 5.7911 3.399 2.0332 5.81 4.9724 7.3145 8.6289-3.1978-1.8632-5.6091-4.6519-8.8068-6.5215-3.588-2.1465-7.6167-3.5865-11.664-4.5937-1.2338-0.20771-3.0535-0.67358-4.1172 0.16992-1.6052 1.1519-3.2116 2.4296-4.502 3.9277 0.0692 0.53503 0.32847 0.79971 0.7754 0.78711 5.2058 0.8057 10.363 2.1961 15.341 3.9083 4.4188 1.6052 7.3225 5.218 9.7774 9.0508-4.2111-0.31473-5.3588-3.7944-8.9532-5.4688-2.5179-1.1519-5.444-1.9641-8.1817-2.3984-1.2463-0.29584-1.8144 0.54784-2.7462 1.1836-1.5233 1.2904-3.2106 2.2969-4.9668 3.2285 0.92531 3.6257 2.97 6.0431 6.4825 7.3769 3.418 1.3344 6.8054-0.40848 10.129-1.1953 0.74276 1.0637 1.4159 2.2533 2.3223 3.1915 2.0331 0.85607 4.4136 1.006 6.547 1.5411-1.901 1.4352-3.9596 1.4676-6.2383 1.6816 1.3282 1.6367 2.4243 3.1913 4.5079 3.9277 3.0655 1.1456 6.7725-0.47759 9.7248 0.38477 3.8459 1.4981 4.4762 5.1972 7.7501 7.3437 5.6084 3.6383 12.852 5.9871 16.892 11.426 3.588 4.6895 6.277 10.034 9.7013 14.844 6.4269 8.8564 13.22 17.449 19.71 26.261 3.267 5.0231 7.1695 9.5101 10.934 14.156 0.39027-0.48469 6.8379 8.2461 6.8379 8.2461l1-2.3477s-3.2555-7.1825-4.5586-10.953c-0.70502-1.8759-0.46555-3.7141-0.20117-5.6465 3.0876 2.7331 4.0462 6.3571 6.0918 9.7071 1.1292 2.6185 2.5484 5.116 3.4102 7.836-0.13026-1.2098-0.0459-2.2305-0.62304-3.1445l-0.0235-0.10934-1.0918-3.9395c-0.35062-1.2665-0.52919-2.9193 0.55665-3.2051 1.7814 1.1079 3.1118 2.7889 4.4903 4.3437 0.61059-0.44692 1.2268-0.89532 1.8438-1.336 1.0827 1.3723 2.2912 2.8272 3.0782 4.3945 0.72388 1.3911 0.69204 3.2044 0.82423 4.7403-1.8443-1.1142-3.468-2.5121-5.1172-3.8907-0.14477 1.6681-0.20237 3.2613 0.40821 4.8476 1.0009 2.7696 2.1083 5.7651 3.959 8.0879 1.3786 1.7248 4.0555 1.738 5.9375 0.95118 2.0835-0.93162 3.6196-3.2797 5.168-4.9101 2.1151-2.3479 4.6563-3.6633 7.2813-5.3125 3.0339-1.8317 5.6784-5.0101 6.5157-8.4785-0.0881-2.3416-1.4726-4.6029-1.8692-6.9257-0.74278-4.6643-1.0502-9.2456 1.9083-13.236 0.76166 5.9547 0.44537 12.816 4.795 17.543l3.3808-14.736c1.4919 5.0104 1.6307 10.626 4.2871 14.963 1.4856-3.9531 1.1386-8.9739 3.4551-12.486 1.6619 1.5863 1.8766 3.5121 2.5312 5.5957 0.44063 1.6115 1.1151 3.1288 1.8516 4.6269 1.2464-3.2292 2.0691-6.5156 3.8379-9.5371 1.5611 3.2165 2.442 6.6525 4.2988 9.7304 1.2338-3.1221 1.971-6.3933 3.2676-9.4903 1.429 2.2408 2.6439 4.4105 2.5118 7.1739 0.17625 3.0401-2.6635 5.9105-5.0743 7.3457-2.1654-0.86856-3.4051-2.5051-4.9472-4.1543-1.2275 2.5116-2.2467 5.1125-3.5938 7.5605-1.9008-2.1905-3.4254-4.6283-4.8731-7.1348-0.84979 3.0969-1.724 6.1829-2.6934 9.2421-2.9144-0.91902-5.2115-2.6949-7.6035-4.5079-0.84349 1.7688-1.844 3.1089-1.0195 5.1484 1.4792 3.8207 3.4112 7.7927 5.627 11.242-0.11333-2.4549-0.37164-4.7769 0.20118-7.2129 1.7499 0.41545 2.2531 1.9328 3.084 3.3301 1.9514 3.8775 3.4695 7.8608 5.9747 11.455-0.15107-3.0215-0.66282-5.7079-0.34179-8.6601 2.3415 1.2715 3.2863 3.6444 4.627 5.8223 2.7446 4.5573 4.4387 8.9951 8.3477 12.709 0 0-1.7021-8.9076-0.2832-10.789 4.016 6.1121 7.3777 12.462 12.086 18.235 1.259 1.4729 2.7315 2.5689 4.2422 3.7461-0.74898-2.3416-1.4226-4.6943-1.7812-7.1367 2.5304 1.2652 4.4767 3.1841 6.3399 5.2676 4.0286 4.4376 8.3907 8.4911 13.508 11.645-1.1645-2.3477-2.5143-4.4499-2.8164-7.1251 4.9287 2.7823 9.0085 7.5667 12.502 11.941 2.1906 2.6627 3.7151 5.4589 6.5098 7.5859-0.97568-5.3817-5.15-9.1403-6.2579-14.56 6.9305 3.2859 8.8692 11.357 13.785 16.631-0.52247-4.3748-2.9068-8.0068-3.209-12.426 5.9611 4.23 6.4827 10.423 10.914 15.748 0.22031-5.7848-2.3918-10.808-2.6875-16.48 3.934 4.4188 6.5531 9.8336 7.8185 15.605 3.7454 14.604 3.531 29.315 7.1875 43.899 2.2283 8.7496 4.507 17.133 8.8693 25.101 1.0574 1.8757 2.3672 3.5048 3.6954 5.1856 0.0819-1.9891 0.15165-3.9781 0.35937-5.9609 1.687 1.9199 3.1352 3.9876 4.2304 6.3047 2.3543 4.9351 4.744 9.6223 8.3438 13.795-0.25799-2.2157-0.56986-4.4249-0.63281-6.6601 3.9088 3.4557 6.3989 8.7684 9.1056 13.193 1.4542 2.5431 3.0915 4.9669 4.6778 7.4219 0.0189-1.4667 0.0533-2.926 0.12893-4.3925 2.5619 2.6311 4.2386 5.7719 5.8185 9.0508 1.1142 2.3039 1.2842 4.6509 1.5235 7.1563-3.0088-1.5107-4.0728-4.1472-6.0997-6.6524 0.1196 3.6761 0.72662 7.0808 0.50001 10.77-0.21402 3.2795-1.0007 6.6105-1.9512 9.7579-1.5926 5.1677-3.247 10.196-5.6075 15.075-1.4667 3.0969-3.3059 5.964-4.5586 9.168-4.0979 0.22032-8.0385 0.0872-12.117-0.38476-4.3622-0.49099-8.2657-0.0929-12.445 1.1972-2.5746 0.84349-5.4966 1.4292-7.8067 2.8769-0.90644 2.6437-0.80469 5.7785-0.74805 8.5488 5.4951-1.0638 8.5984-4.9807 13.4-7.2461 3.7579-1.2212 7.6793-0.44596 10.99 1.6251-2.9963 1.5107-5.9486 0.1112-8.9513 0.96093-3.374 1.3975-6.4131 3.8839-9.1954 6.2129 0.23921 2.5619 0.0963 5.3003 0.73829 7.7929 0.86238 0.85608 2.4478 1.4851 3.6563 1.2773 2.2347-1.1582 4.1479-2.9643 6.2754-4.3301 3.5943-2.4109 6.9181-6.1232 11.324-6.7911 3.5124-0.38397 6.9814-0.42964 9.5118 2.4219-4.633 0.65464-8.3784-0.98729-12.426 2.0781-2.0143 1.5799-5.7347 4.0427-4.9668 7.0136 0.1196 1.5611 0.33461 3.1151 0.52345 4.6699 3.2544 1.0008 6.4958 1.3391 9.6934-0.0899 3.0278-1.1267 4.8318-3.4689 7.4063-5.1875 2.5619-1.1268 5.2951-1.3723 7.6934-3.0215 3.267-2.1905 6.4585-5.6317 7.2579-9.5917 0.56653-2.4549 1.0766-4.8975 2.1152-7.2071 0.79943 2.3353 1.3205 4.7457 2.082 7.0937 1.624-1.5044 2.1224-2.5481 2.5254-4.7324 1.4604-7.8808 3.7214-15.545 5.6035-23.331 1.8758-6.5716 3.5035-13.18 5.2031-19.789 0.97569-4.4504 4.8027-6.5099 6.3009-10.859 0.85609-2.2472 0.29804-4.6316-1.1113-6.5137-1.9766-2.6248-4.7606-4.4379-6.6426-7.2012-4.444-6.5589-6.9235-13.264-10.373-20.471-1.9136-4.7965-4.3184-10.348-4.0918-15.572 3.9342 5.0104 4.7403 10.99 9.7013 15.396-0.52248-5.4825-3.759-9.8584-3.7148-15.487 2.9208 2.7507 4.7415 6.2269 7.379 9.1972-0.0567-4.9789-2.6651-9.072-3.131-13.944 3.846 2.8073 6.4085 6.7856 10.475 9.3476-0.76166-2.8325-1.6802-5.5961-3.002-8.2265-0.82461-1.6367-1.2532-3.198-1.461-5.0235 2.6375 1.9261 4.9542 4.2229 7.6231 6.1113-1.2967-3.9969-3.9795-7.1993-5.377-11.152 1.8443 0.59799 3.5515 0.97556 4.8419 2.5429 1.7751 2.1905 3.2048 4.4995 5.5528 6.1739-0.36508-6.8484-4.4074-11.047-6.2833-17.424 3.7014 2.2787 5.4134 5.7911 8.2774 8.8692-0.7176-3.5313-1.618-7.0747-2.9336-10.43-0.91903-2.3793-2.3971-4.6761-2.9824-7.1563l0.53515-1.0019c2.9082 1.4037 5.0228 3.954 7.6602 6.0059-2.6854-8.7363-7.2123-16.747-13.197-23.64-7.7127-21.143-8.3689-14.488-13.524-26.492 2.3164 0.4658 4.4994 1.2282 6.6837 2.1093-4.1796-7.7551-10.399-12.804-16.247-19.123 2.7004 0.0692 5.3643 0.37926 8.0333 0.76953-5.4386-7.2075-11.633-13.711-17.694-20.377-5.6903-6.0616-11.438-12.054-17.228-18.021-6.1373-6.0616-11.929-12.348-18.412-18.071-3.3375-2.7841-14.815-16.079-14.815-16.079s7.6518 2.1227 9.043 2.1289c-3.2984-4.9223-9.6258-8.7687-13.315-13.357 1.838-0.0504 5.6034-1e-3 7.4414 0.0743-5.9735-5.8981-11.859-11.682-18.891-16.34-0.012 3.0277-0.0284 6.4145-1.1992 9.2597-1.6619 0.27696-2.647-1.0901-3.9122-1.9336 0.19513 2.4863 0.23196 4.9413 0.0684 7.4277-1.964-0.84978-3.6056-2.1148-5.3555-3.3164-0.88126-0.705-1.7435-0.40429-2.7696-0.40429-1.7059-3.7957-2.3982-7.7347-2.4864-11.883 2.7067 2.9081 4.4112 6.5145 7.0802 9.4668-0.26437-3.9593-0.96842-7.7045-0.4082-11.695 1.9388 1.9828 3.4735 4.2543 5.1543 6.4512 0.0189-3.6256-0.51588-7.2-0.31445-10.832 1.7814 1.2338 3.4807 2.5741 5.1426 3.9589-1.2778-4.9791-2.674-9.6373-2.9824-14.799 2.0647 1.8695 3.6556 4.0975 5.3614 6.2753-0.45942-3.4747-1.346-6.8105-3.0644-9.8887-1.1896-2.1087-2.159-4.1404-2.543-6.5703 1.9891 0.79942 3.908 1.7243 5.8594 2.6055-0.88756-1.9828-1.8556-3.9276-3.0136-5.7656-1.366-2.3353-2.9536-4.1419-3.1172-6.9688 1.6868 0.39655 3.3308 1.0754 4.9863 1.6231-0.98826-2.3793-2.2475-4.5944-3.6134-6.7597-1.5548-2.4801-3.0094-5.4757-5.1055-7.5215-1.7374-1.6303-4.543-2.2284-6.5195-3.5567-0.95679-0.64835-1.5865-1.8751-2.2286-2.8067 5.3442 0.40915 10.391 2.5157 15.66 3.0508 1.6744-1.0512 2.858-2.9944 4.6016-3.8945 1.9766-0.62317 4.0542-0.90747 6.0685-1.3984 0.13213-1.0449 0.20765-2.1228 0.45314-3.1425 1.2023-1.4352 3.3424-2.1271 4.834-3.2539 2.6438-1.8759 2.2154-5.9103 5.5138-7.0371 3.1096-1.2904 5.8163-2.6875 6.8361-6.1621-1.7436-2.0205-4.3502-3.1357-6.8361-3.9415-3.8964-1.2275-7.9884-1.9747-11.998-2.7363-5.577-0.93791-10.657-2.1532-16.323-0.86915-5.728 1.089-8.8536 1.8131-14.115 4.1484-1.857 0.90643-5.3843 2.3479-7.3047 1.9765 2.0395-1.5925 4.2288-2.9221 6.4571-4.2188 1.3155-0.8246 2.9656-1.7689 3.6895-3.1915-0.81202-2.5997-3.0023-4.7507-4.8907-6.6328-2.669-2.5053-5.6336-5.2137-8.9766-6.7559-3.0278-1.4352-6.3442-1.8871-9.3341-3.2656-3.8208-1.7751-6.0867-5.2385-10.078-6.9375-2.7192-1.24-5.5016-0.81107-8.3594-0.4082-2.0899 0.34621-4.4752 0.71569-6.3203 1.8047-1.5486 0.91272-2.341 2.6123-3.2852 4.0664 2.7131 0.92531 5.6259 1.3041 8.2697 2.3867 3.972 1.9703 6.1642 5.7093 7.0586 9.9395 0.78685 4.1545 3.7688 6.1876 5.7012 9.6875-2.606-0.64204-4.853-1.8884-7.1329-3.248-3.5627-2.3793-8.2651 1.9508-11.834-0.75587-1.838-2.0205-2.9143-4.7707-4.4375-7.0488-2.0143 3.5251-1.8202 6.9497-1.7383 10.84-1.4227-2.7193-2.9882-5.7239-2.793-8.8769 0.30215-2.0017 1.8243-3.8647 2.6426-5.7089 0.89385-1.7311 0.7313-3.7191 0.88867-5.6075-7e-3 -2.6375 1.9503-5.2075 3.1778-7.4609-8.611-3.0907-16.227-9.7179-22.823-15.887-2.516-1.8617-4.7208-4.5712-7.6075-5.7559zm1.1719 10.021c0.79481 4.49e-4 1.439 0.64465 1.4395 1.4395-4.5e-4 0.7948-0.64466 1.4391-1.4395 1.4395-0.79557 6.27e-4 -1.4409-0.64389-1.4413-1.4395 4.5e-4 -0.79556 0.64584-1.4401 1.4413-1.4395zm4.6134 0.64257c0.79481 4.5e-4 1.439 0.64465 1.4395 1.4395-4.5e-4 0.7948-0.64466 1.4391-1.4395 1.4395-0.79557 6.27e-4 -1.441-0.64389-1.4414-1.4395 4.6e-4 -0.79556 0.64585-1.4401 1.4414-1.4395zm-4.1075 3.9277c0.79557-6.26e-4 1.441 0.64389 1.4414 1.4395 6.3e-4 0.79632-0.64509 1.442-1.4414 1.4415-0.79556-4.49e-4 -1.4401-0.64584-1.4395-1.4415 4.6e-4 -0.7948 0.64466-1.4391 1.4395-1.4395zm100.13 0.37891c-1.8683-0.0069-3.7715 0.38165-5.5723 0.82227-4.5511 1.1079-8.6992 4.5384-12.797 6.7793-3.9846 2.1591-7.8617 4.3924-11.248 7.4453 3.8207 2.6249 7.4806 5.3636 10.502 8.9199 1.5736 1.6177 2.9395 3.8392 4.8594 5.0352 2.9019 0.07553 5.9025-0.47125 8.7345-1.0566 2.2472-0.39027 3.1926-2.9463 3.9668-4.7969 1.9703-4.6959 0.49136-9.3284 2.2539-14.012 0.75536-2.2912 2.133-4.5777 2.498-6.9571 0.21402-1.366-1.2843-2.0391-2.3984-2.1524-0.26591-0.01769-0.53233-0.02681-0.79884-0.02735zm-95.993 1.9941c0.79556-6.27e-4 1.4409 0.64389 1.4413 1.4395 6.3e-4 0.79632-0.64508 1.442-1.4413 1.4415-0.79557-4.49e-4 -1.4402-0.64584-1.4395-1.4415 4.5e-4 -0.7948 0.64466-1.4391 1.4395-1.4395zm42.415 10.6c2.2208 0.66409 5.961 9.416 5.961 9.416s3.4139 3.2023 3.1622 5.418c-0.14478 1.7563-1.5992 2.7191-2.7071 3.9024-1.4729-1.7184-2.178-2.864-2.2598-5.1992-0.1196-3.9531-1.8958-7.1576-3.0918-10.809-0.16366-0.81201-1.0645-2.7285-1.0645-2.7285zm-136.72 6.8867c-1.5019-0.07051-3.1136 0.07557-4.4122 0.66601-1.4792 1.0197-0.19964 2.2463 0.79493 2.9765 2.6564 1.7751 5.444 3.2159 7.7989 5.4316 3.4495 2.9081 5.011 7.5492 6.4454 11.697-3.7515-3.1096-5.495-7.6301-9.3536-10.664-3.0152-2.4045-6.6026-4.8963-10.373-5.8593-2.606 1.5421-5.5312 2.7945-7.8282 4.7773 1.7374 0.93789 3.5098 1.8056 5.2911 2.668 3.9971 2.0205 7.9405 2.4621 11.428 5.5528 2.7634 2.2661 3.9139 5.312 4.9336 8.6231-2.7194-2.052-4.4938-4.974-7.1622-7.0449-2.3163-1.7751-5.075-2.4089-7.8321-3.1895-2.2347 1.3596-4.5436 2.2653-7.0489 2.9765 0.65466 3.8775 3.2288 7.234 6.6525 9.1035 2.7382 1.3471 5.3952 0.0304 8.209-0.01367 1.3723 1.3408 2.2298 3.2367 3.879 4.2559 1.9198 1.2023 4.0536 2.0376 6.0177 3.1895-2.222 0.54764-4.3518 0.54259-6.6173 0.32227 1.41 2.0395 2.6946 4.2543 5.2754 4.9277 2.1024 0.40285 4.4752-0.03012 6.5841-0.30079 2.4487 3.2859 6.1058 5.2616 8.6173 8.5411 2.3731 2.8011 2.3932 6.4336 4.7852 9.0332 1.9262 2.1087 4.5444 3.6524 7.0371 4.9805-0.23291-2.0961-0.45288-4.2-0.54102-6.3085 3.651 4.0097 3.7942 9.0268 6.7715 13.604 0.31474-1.9451 0.66333-3.8911 1.1543-5.8047 3.2166 4.7713 2.7314 10.495 5.797 15.379 0.30844-2.6312 0.51615-5.2493 1.1582-7.8301 4.3874 5.5833 2.6243 14.067 6.5333 20.324 0.35871-2.7445 0.13767-5.6083 0.71679-8.3085l0.88869-0.29492c3.1031 5.3693 2.6423 12.678 5.8086 18.236 0.69242-1.4667 0.41732-4.8476 2.545-4.9609 2.8452 4.7964 2.1708 11.015 4.7579 16.169 0.41546-2.7381 0.4282-5.5833 1.4101-8.1075 1.0512 1.0638 1.832 2.1776 2.1719 3.6504 0.7239 2.9081 1.1376 5.8619 2.1699 8.6875 0.83719-1.5485 1.2538-3.0713 2.6954-4.1856 1.089 2.5745 1.2967 5.5759 1.9766 8.3203 1.7563-1.0449 2.5491-2.5993 3.4492-4.3555-0.78054-0.21401-1.5555-0.42271-2.336-0.63672 1.8066-3.0529 3.8527-5.9653 5.7286-8.9805-1.0679-0.0627-2.1356-0.1284-3.2031-0.19727 1.8318-3.2103 4.5318-5.5453 6.7286-8.4785-1.0826-0.0819-2.1707-0.17014-3.2598-0.25196 0.97568-1.9891 2.4159-3.9224 2.9824-6.0625-0.18884-2.6816-2.927-5.0036-4.916-6.5332-3.9655-2.8075-8.3029-5.0536-12.256-7.8925-5.042-3.2984-9.0394-7.8557-12.369-12.822-2.6059-4.4188-5.0736-8.9147-7.2579-13.553-0.98197-2.1591-2.668-3.5549-4.7012-4.6816-8.3972-4.3559-15.925-11.103-23.195-17.101-3.2418-2.5431-6.3087-4.9924-8.2853-8.7188-1.9451-3.6949-1.5075-7.8435-4-11.123-1.9514-2.5556-4.728-4.5813-7.0879-6.7656-1.1645-0.99455-2.31-2.2668-3.7012-2.9277-0.48218-0.06613-0.96702-0.11109-1.4531-0.13477zm203.18 18c0.51439-0.0184 1.0242-0.01661 1.5294 0.01173 2.0206 0.11331 3.9563 0.66043 5.7188 2.1113-3.9279 0.60429-7.8754 0.95624-11.797 1.6172 0.35251 1.0638 2.2155 2.6632 0.73634 3.4375-2.3858 0.18884-4.9975-0.37899-7.3517 0.01757-1.1142 0.92532 1.4031 2.5809 1.7871 3.4433-0.84978 0.4784-1.333 1.158-2.3907 0.90625-2.1843-0.30844-4.2308-0.70387-6.4278-0.21289 1.5234 1.4919 3.1043 2.882 4.3379 4.6445-1.1267 0.33991-1.6434 0.20756-2.6504-0.3086-1.9074-0.96937-3.7906-1.7615-5.8867-2.2461 0.79942 1.3975 1.6178 2.7884 2.3731 4.2109-4.9099-0.49728-9.315-2.6691-14.193-3.5 0.44063 2.7381 1.3338 5.7277 1.0254 8.4785-0.45322 3.9404-1.7634 7.5591-3.463 11.109-2.4046-1.089-4.6191-2.4784-6.8223-3.9199-0.36509 2.6879-1.6875 8.334-1.6875 8.334s-2.8458-1.4364-4.0606-2.3555c-1.2464 3.2417-2.7508 6.0991-5.2812 8.5352-0.85609-2.3479-1.3906-4.7649-1.7871-7.2324-0.57912 1.41-1.19 2.8085-1.832 4.1933-3.4055-2.7445-7.2641-7.1823-5.6211-11.891 2.669 1.1771 4.111 4.5185 6.2071 6.5391 0.31474-1.5611 0.52179-3.2532 1.1387-4.7324l3.3808 4.5743c1.8255-4.3119 1.857-8.6603 1.9766-13.148 2.5368 2.0961 2.9454 4.8344 3.877 7.7929 0.31474-2.178 0.6559-4.33 1.3672-6.4199 2.3858 1.5925 4.5758 3.4365 6.8985 5.1172-0.15107-2.3227-0.41011-4.6387-0.63672-6.9551 0.8372 0.77424 1.6554 1.5852 2.543 2.3027 0.82461-5.256-0.65439-9.9193-2.461-14.765 3.695 0.90013 7.7045 2.3095 11.525 1.4785 8.3657-2.2535 14.8-9.518 23.228-10.67 1.5768-0.21008 3.156-0.44285 4.6992-0.49805zm-92.542 14.365c-2.071 1.1016-4.0546 2.3727-6.0626 3.5937 1.5736 0.66093 3.7456 2.1452 5.42 1.0625 1.5987-1.2715 0.90067-2.9568 0.64258-4.6563zm7.8849 3.6387c2.3164 3.3425 2.7887 7.3203 4.8282 10.795 0.59171-2.3227 0.96305-4.6828 1.3848-7.0371 0.50987-0.04407 1.0136-0.08723 1.5235-0.125 0.71132 2.6123 1.4232 4.9668 0.35938 7.6231-0.67983 1.7436-1.9138 4.0097-4.1231 3.7579-1.9828-0.77424-3.0234-2.9276-3.6466-4.8223-0.94421-3.2292-0.80457-6.8931-0.32618-10.191zm11.76 8.498c0.0861 0.0024 0.17896 0.0139 0.28125 0.03711 1.8255 2.1968 2.6748 5.27 4.4688 7.5235 0.81202 0.99456 1.964 1.7929 2.9648 2.586-0.29585 1.2841-0.61604 2.5624-0.94337 3.834-4.3874-1.6115-6.7921-6.622-7.6543-10.902 0.0472-0.9206-0.40849-3.1136 0.88283-3.0781zm167.77 2.4844c-6.4647 2.5997-12.312 6.7696-16.673 12.221-4.337 5.6589-5.9497 11.946-7.6681 18.713-0.96939-3.3865-1.6608-6.8232-2.3027-10.285-2.6186 5.64-5.3207 11.652-6.6426 17.732-1.133 5.1427-1.5292 10.479-0.9375 15.723 0.43434 4.2741 1.568 8.3604 2.166 12.609-3.2292-3.1788-5.541-6.9239-7.4727-10.99 0.10694 5.6777 0.82656 11.424 2.0918 16.963 1.3282 5.7596 3.8648 10.829 6.2442 16.185-3.248-1.7688-6.0429-4.0873-8.8888-6.4101 1.0701 5.5833 3.3226 10.972 5.664 16.127 3.8902 7.95 8.4221 15.461 14.403 22.033-0.71131-4.0473-1.5167-8.0711-1.9824-12.156 1.2904 2.5997 2.5046 5.2051 4.0215 7.6915 1.8128 3.0277 3.9926 5.5649 6.0762 8.4101 3.4684 4.7145 6.6145 9.5179 9.0254 14.875 3.0152 6.5463 4.493 13.847 4.8203 21.029 0.0252 4.7336-0.61612 10.11-3.8516 13.819-2.6878 3.0781-6.7902 4.2-10.674 4.8105 6.6327 13.932 13.847 24.815 29.319 11.113-2.7067-0.28327-5.4055-0.55893-8.0802-1.0625 3.2859-2.6813 6.5197-4.9912 9.1446-8.3965 2.4739-3.1536 3.9219-6.6972 5.1934-10.455-2.7696 0.85608-5.5322 1.5924-8.4278 1.8945 2.0772-3.4936 4.179-6.6839 5.4316-10.605 1.9074-6.2884 2.1215-12.564 1.8887-19.092-1.7374 2.8263-3.5872 5.5315-5.7149 8.0801 0.58541-9.914 1.3154-19.663-0.082-29.559-1.6996 3.078-3.1918 6.2436-5.0235 9.2461-0.61689-3.248-1.2705-6.4961-1.9063-9.7441-1.58-8.6047-2.3808-17.252-2.834-25.983-1.7876 2.99-3.292 6.1181-5.0294 9.1269-0.89385-9.1335-1.0254-18.388-0.20703-27.533 0.28956-3.6068 0.78056-7.1839 0.98829-10.797-2.1466 3.7516-4.1172 7.6057-6.3203 11.332 0.33991-5.514 1.6431-10.716 2.5684-16.143 1.1708-6.8296 3.0843-13.559 3.9278-20.432-2.5368 3.1348-3.82 6.6856-7.0001 9.3105 0.26437-2.5871 0.8621-5.0856 1.4727-7.6035 0.73647-3.0213 0.67349-6.0745 1.2715-9.1211 0.98826-5.042 2.6056-9.7116 3.1407-14.879-1.9891 1.8128-3.6176 3.9213-5.4492 5.8789 0.30215-7.9501 2.976-15.843 4.3106-23.673zm-165.27 31.84c-1.4478 3.8587-4.2542 6.2951-7.1875 9.0332-1.4163 1.3219-3.1295 1.9829-4.9298 2.6251 1.2086-5.9233 6.7165-9.8328 12.117-11.658zm-0.0469 7.4589c-1.2589 3.7264-3.8534 6.9753-5.8614 10.469-2.0899 0.62317-4.1088 1.4352-6.1798 2.0899 0.50987-1.5736 0.97553-3.1033 1.9512-4.4629 2.6438-3.6005 5.7276-6.7109 10.09-8.0957zm0.15234 7.6328c0.15025 9e-3 0.30012 0.0399 0.45117 0.0917 0.18255 2.2976-0.44671 4.7517-2.0644 6.4512-2.4675 2.5556-5.0475 5.0351-7.8361 7.2383-0.0944-4.0349-0.40688-4.1716 1.5508-7.6777l6.543-5.6231c0.54309-0.4186 1.0022-0.50367 1.3555-0.48047zm11.285 4.1581c3.0655 5.1553 4.1487 10.946 7.5353 15.932 1.2464 1.7688 0.81836 3.7137 0.87501 5.7656-3.7014-1.5296-5.8424-4.538-7.4161-8.082-2.0267-4.2987-1.7052-9.0516-0.99415-13.615zm-11.733 1.6055c0.33275 0.69239 0.6693 1.3796 1.0039 2.0684 0.0429 2.5864 0.0735 5.1731 0.0917 7.7597-0.49348 1.6719-0.8967 3.3691-1.4727 5.0195-0.81201-1.2024-2.0152-2.4725-2.1915-3.9707-0.35879-3.1096 1e-3 -6.4284 1.3106-9.2988 0.41546-0.52878 0.83613-1.0557 1.2578-1.5781zm3.6387 0.0957c1.4614 2.6635 1.4596 5.5229 2.3282 8.3399 0.0572 1.7984 0.1064 3.6685 0.1504 5.4121-0.58667 1.1947-1.2545 2.3168-2.1816 3.3164-1.1128-2.5581-1.3036-5.2404-1.879-7.9024 0.0384-3.2272 0.0537-4.4241 0.0801-6.5781 0.48885-0.86943 0.98956-1.7321 1.502-2.5879zm26.198 1.502c2.8452 3.3424 5.4504 6.862 8.3145 10.186 2.0647 2.4801 4.1624 4.6068 4.836 7.8925-3.3551-0.76795-5.6531-2.234-7.875-4.8399-3.3488-3.7957-4.52-8.3537-5.2754-13.238zm-21.174 5.9433c1.6555 2.6689 4.1486 5.7596 2.2539 8.9824-1.3943-0.654-2.4002-1.6517-3.3808-2.7363l-0.17774-5.0488c0.43811-0.39531 0.86785-0.79693 1.3047-1.1973zm12.268 0.58984c1.0827 0.62317 2.0264 1.3483 2.8887 2.2421 3.0215 3.3173 6.0171 6.1236 6.9865 10.719-2.6312-1.0134-5.0347-2.3607-6.879-4.5449-2.1024-2.3291-2.9584-5.3253-2.9962-8.416zm-3.5918 35.005c3.2166 4.4817 5.3951 9.6056 5.8672 15.139-2.4674-1.4981-4.728-2.8705-5.6974-5.7597-0.9505-2.8955-1.4792-6.5212-0.16992-9.3789zm-5.3691 7.2071c1.3093 1.9261 2.6883 3.8528 3.752 5.9239 0.74276 1.4037 0.54188 2.8337 0.58595 4.3633-2.0458-0.57911-3.9856-0.96345-5.2383-2.8769-1.1267-1.6555-0.43932-3.7335 0.0957-5.4707 0.26437-0.64836 0.52774-1.2974 0.8047-1.9395zm0.91406 22.863c2.1654 3.2417 3.6258 6.7787 5.2812 10.291 1.2275 2.6375 2.9524 4.9173 4.545 7.3281 1.1519 1.7309 0.13877 4.2179-0.3711 6.0117-2.6752-1.882-4.4266-3.8848-5.7168-6.9063-2.0458-4.5511-3.588-9.5673-3.7579-14.579 0-0.71759 7e-3 -1.4289 0.0195-2.1465zm11.414 7.6601c2.3354 2.9017 3.9852 6.0112 6.0938 9.1836 1.2149 1.8947 2.5875 3.8148 3.4688 5.8984 0.67352 1.5863 0.49631 3.1783 0.52148 4.8652-5.3819-2.606-7.2825-7.1944-10.486-11.84-1.6934-2.4359-0.95731-5.6904 0.40235-8.1075zm13.27 12.117c3.053 2.2849 5.1178 5.1055 7.8497 7.8437 1.8947 1.8884 3.4998 3.9139 4.6895 6.3184-3.6698-0.16996-6.113-1.7295-8.4357-4.4551-2.2283-2.8389-5.098-5.7855-4.1035-9.7071zm31.21 5.1739c0.61687 0.4784 1.2274 0.96992 1.8379 1.4609 3.9026 3.3991 7.3535 7.6857 9.6134 12.344 1.0323 2.2095 0.42056 3.6377-0.66213 5.6269-1.8883-1.9009-3.2531-3.8141-4.4239-6.2188-2.1842-4.4-4.7602-8.6556-6.3653-13.213zm38.55 8.3243c1.8376 2.3979 3.5196 4.8769 4.7344 7.6524 2.2724 5.0547 4.0418 10.707 3.4942 16.303-0.56652 4.9539-3.5707 9.0071-7.0958 12.324 0.40286-4.3748 1.367-8.6415 2.0215-12.979 0.98198-7.5221-0.90606-14.159-2.6875-21.353-0.15707-0.64714-0.316-1.3001-0.46681-1.9472zm-13.275 0.83595c0.62947 0.3588 1.2537 0.71649 1.877 1.0879 3.4306 2.3101 5.5256 6.7491 6.9357 10.519 1.6807 4.9539 2.7314 10.669 0.0625 15.479-2.1654-4.2867-2.4847-8.7004-3.9766-13.428-1.2713-4.7833-4.1364-8.7047-4.8984-13.659zm-9.5548 1.7617c1.8632 0.73648 3.3175 1.7877 4.4883 3.418 2.8452 4.0097 4.9795 8.5352 4.0039 13.571-3.204-2.8829-4.7915-6.5027-6.6231-10.305-1.0009-2.1213-1.7371-4.3168-1.8692-6.6836zm56.722 27.028c4.4754 3.6824 7.9943 8.5048 8.4727 14.447 0.27697 2.0899-0.23287 3.8028-1.2148 5.6093-1.9766-2.7632-3.5942-5.742-4.5195-9.0215-1.0009-3.7012-2.1844-7.2313-2.7383-11.033zm-3.0782 10.897c3.1788 2.6499 5.2246 6.7357 6.5529 10.588 0.86867 3.8712 0.76244 8.0503 0.44141 11.984-1.1708-0.55393-2.669-0.8611-3.248-2.164-1.0323-2.0772-1.4477-4.5275-1.9199-6.7871-0.8372-4.614-1.8135-8.932-1.8262-13.621zm-77.749 0.15624c-1.3278 1.504-2.573 3.0449-3.498 4.832-3.55 6.7855-5.7027 14.159-5.4258 21.875 0.16367 7.5472 2.6931 14.161 5.7207 20.953 2.5746 5.3441 5.8525 10.424 9.258 15.277 3.3551 5.0356 6.6789 10.098 10.109 15.084 2.4548 3.5564 5.8298 6.6772 7.7813 10.498 0.76166 1.3911 0.66758 2.8341 0.50391 4.3575-1.3093-0.51616-2.0847-1.5224-2.9786-2.5547-1.3782-1.6688-2.7819-3.316-4.211-4.9413-0.47841 3.0025-0.4551 5.8529-2.2618 8.4336-1.7058 2.4297-3.8455 4.5885-6.0235 6.6035-1.7436 1.5421-3.764 3.2475-5.9922 3.9903-2.0584 0.62318-4.4599-0.47774-6.4043-1.1387-4.1984-1.6619-8.4665-2.1156-12.936-2.5059 0.52877 0.62317 0.955 1.768 1.6915 2.1581 2.65 0.83089 5.275 0.66108 7.6543 2.3419l-0.16407 1.4043c-3.0716 0.14479-6.0042-0.32217-9.0704 0.32617-3.1159 0.4784-5.9502 1.9875-8.5938 3.6367-1.3911 0.8246-2.238 2.0604-3.0879 3.3887 2.7131-0.0881 6.1279 0.31298 8.5704-1.0215 3.053-1.4604 5.8798-3.2781 9.3985-3.2656 2.8452 0.11333 5.5859 0.28962 7.5567 2.6251-4.186 0.78683-7.6929-0.0872-11.627 1.6251-2.2032 0.96937-4.9991 2.1976-6.3711 4.2559-1.3848 2.4989 7e-3 4.4803 0.93164 6.7911 1.8946-1.6177 3.7835-3.1591 6.0685-4.1915 4.2236-1.9136 7.3781-4.4883 12.25-4.5449 2.5178-0.25808 4.5378 0.57814 6.6466 1.8496-5.0295 1.0134-9.5425 0.34667-13.621 4.1739-0.71759 1.7499-0.58579 4.2357-0.22071 6.0801 1.7436 1.6303 5.0167 1.5373 7.2325 1.3925 2.5998-0.16996 4.2367-1.644 6.3203-2.9785 2.2787-1.5044 5.0294-0.9441 7.2891-2.7129 6.3386-4.5384 10.644-12.771 15.655-18.429 0.25179 1.9891 0.41621 3.99 0.5547 5.998 1.5673-2.6249 3.028-5.2811 4.1484-8.1269 0.7364-1.5736 1.4291-3.6448 2.795-4.7715 2.9458-1.6052 7.3649-2.2596 9.8009-4.6895 1.6682-1.7059 0.79251-4.4075 0.0371-6.3399-1.7372-3.8648-4.941-7.1293-7.377-10.598-0.0504 1.3785-0.11893 2.7489-0.20703 4.1211-3.5502-3.6193-5.6216-8.1197-7.4786-12.771-0.52877 1.2778-1.0392 2.562-1.5743 3.8399-3.7768-4.2488-3.2348-9.1028-5.545-13.917-0.69242 1.2903-1.2355 2.5497-2.2363 3.6387-3.6258-4.7525-2.2406-12.463-2.6875-18.14-1.3093 1.5611-2.5618 3.1665-3.9278 4.6836-0.82461-5.5393 0.41638-10.587 0.75001-16.076-1.5107 1.5421-2.9908 3.0963-4.6778 4.4433-0.73018-6.0303 1.5179-10.828 2.6446-16.568-1.6744 1.8003-3.2115 3.6259-5.4083 4.8281-0.18255-5.9295 2.9783-10.089 4.2246-15.609-1.6301 1.6807-3.0792 3.4944-4.8984 4.9864 0.0944-3.2859 1.1212-6.3141 1.6563-9.5371-1.391 0.93162-2.7384 1.9133-4.0918 2.8828-0.0567-1.7563-0.0941-3.5113-0.1192-5.2676-1.0072 0.13214-2.0202 0.2619-3.0274 0.40039-0.49662-1.028-0.99859-2.0533-1.5059-3.0761zm74.338 14.071c2.266 2.7885 4.0298 6.0749 4.7286 9.6251 0.40922 2.6444 0.51162 5.2237-1.0117 7.5528 0 0-2.0955-1.205-2.2988-2.1152-0.82534-1.1539-3.0359-5.7155-2.7148-8.3749 0.32103-2.6596 0.5944-2.8164 1.2969-6.6875zm-4.418 5.9297c1.7274 2.1043 2.4864 4.5499 3.5703 6.9883 0 0 0.64324 2.2227 0.50978 3.3419-0.33867 2.8452-1.5324 5.5001-3.2559 7.9551-1.1015-1.8757-2.1096-3.6571-2.1348-5.9043-0.10066-4.1419 0.47337-8.3333 1.3106-12.381zm-6.7638 7.2949c2.738 0.52247 3.4128 3.9975 3.6016 6.3203 0.34622 3.0844-0.99517 5.4887-2.6192 7.9688-1.4856-4.4565-1.8699-9.6809-0.98243-14.289zm-25.598 2.5059c2.5746 5.7973 4.0159 12.067 6.3575 17.971 0.98826 2.222 0.91826 4.4305 0.60352 6.7911-1.6492-1.5233-3.1984-3.034-4.1426-5.1113-1.6367-3.5879-2.5486-7.5405-3.1466-11.418-0.3776-2.8445-0.7977-5.4823 0.32812-8.2324zm11.733 6.0371c1.3723 3.2229 1.8814 6.6657 3.2598 9.8887 0.83719 2.0519 2.0398 3.9333 2.8203 5.998 0.72389 1.9451 0.74347 3.9148 0.8379 5.9668-1.1897-0.65464-2.3287-1.2513-3.1407-2.3907-3.4936-4.7021-5.0744-10.872-5.213-16.663 7e-3 -1.624 0.18919-1.8315 1.4356-2.8008zm8.1916 2.3008c0.31917-3e-3 0.60274 0.21432 0.70898 0.7832 1.624 3.9845 2.662 8.7936 2.4668 13.105-1.3912-0.73647-2.7176-1.1657-3.2715-2.8085-1.0386-2.9585-1.3992-6.7347-1.1348-9.8379 0.0535-0.49413 0.46839-0.98895 0.90431-1.1699 0.10894-0.0452 0.21977-0.0712 0.32618-0.0723zm-78.067 63.152c-1.8444-0.012-3.8143 0.35941-5.4258 1.291-0.55394 2.0269-0.49086 4.2696-0.62305 6.3593 2.8892-1.6996 5.7593-3.3676 8.8185-4.7461-0.86238-0.98827-1.731-2.0967-2.7696-2.9024z" fill="#f00000"/>
<path d="m9.5041 285.16c0.99457 2.6249 1.3219 4.7147 1.0953 7.5473-2.0647-2.1401-1.196-4.8657-1.0953-7.5473z" fill="#289838"/>
<path d="m4.3524 4.25 8.9321 375.4c6.3801 268.13 467.04 268.13 473.43 0l8.9321-375.4z" fill="none" stroke="#000" stroke-width="8.5"/>
</svg>
