<?xml version="1.0" encoding="UTF-8"?>
<svg viewBox="0 0 208.86 244.66" xmlns="http://www.w3.org/2000/svg">
 <g stroke="#000">
  <path d="m1 1 3.761 158c2.687 112.86 196.65 112.86 199.34 0l3.761-158z" fill="#fff" fill-rule="evenodd" stroke-width="2"/>
  <g stroke-dashoffset="4.58">
   <path d="M104.43 1v242.65c-39.163-.463-90.66-18.393-98.938-74.922L1 .998z"/>
   <path d="M152.15 137.01c4.862 0 19.004 2.954 19.916 25.386 18.583-1.059 24.654 9.548 27.029 24.043-13.671 39.188-59.092 57.892-94.66 57.211-38.846-.032-80.48-19.316-93.448-54.061L56.72 137.01l47.715 54.786c1.905-16.666 7.399-30.562 27.799-29.4.912-22.432 15.054-25.386 19.916-25.386" fill="#094"/>
   <path d="m48.18 218.53c1.458-1.777 3.955-4.38 3.955-6.25v-16.92h-16.92c-1.87 0-4.473 2.497-6.25 3.955v-17.07c1.777 1.458 4.38 3.955 6.25 3.955h16.92v-16.92c0-1.87-2.497-4.473-3.955-6.25h17.07c-1.458 1.777-3.955 4.38-3.955 6.25v16.92h16.92c1.87 0 4.473-2.497 6.25-3.955v17.07c-1.777-1.458-4.38-3.955-6.25-3.955h-16.92v16.92c0 1.87 2.497 4.473 3.955 6.25h-8.535z" fill="#fff"/>
  </g>
  <g stroke-dashoffset="4.58">
   <g fill="#f00000">
    <path d="M146 56.91c-5.002-11.724-1.807-23.847 4.702-33.53.833-1.239 1.861-2.004 3.668-2.917 5.225-2.639 5.978-7.022 4.817-11.402-.514-1.94-1.844-1.914-2.12.089-1.55 11.196-9.306 8.9-12.287.84-.712-1.925-2.671-.61-2.651.75.08 5.644 7.158 8.824 5.038 12.596-4.188 7.448-8.77 1.127-12.11-2.122-2.125-2.067-2.542.74-2.21 1.459 2.236 4.82 5.848 7.199 9.282 8.706-.457 9.633-6.27 4.496-12.153 2.165-2.32-.919-2.917.88-1.459 2.431 3.21 3.413 6.945 4.381 10.386 6.408 2.02 1.19 2.292 9.458-3.624 7.116-3.351-1.327-6.443-2.844-9.766-1.812-2.058.639-1.529 1.971.132 2.21 11.54 1.655 12.883 4.171 14.452 6.761zM161.06 113.44c.567 2.732 1.252 5.601 2.316 8.912.26.81 1.058 1.704-1.875 2.063-2.174.266-2.863-.254-5.696 2.244-2.443 2.154-.744 4.03-4.92 5.902-2.47 1.109-5.1 1.906-7.25 6.875l9.126 1.125c.726-1.673 1.909-4.145 2.27-4.893.665-.148 1.455-.454 1.562-1.17.986-6.622 5.8-6.443 9.088-6.866 4.797-.616 4.97-1.73 5.613-6.452.593-4.347.35-9.047.547-13.553zM135.76 115.17c-.17 5.722.528 11.825-.946 17.184-1.963 7.133-4.858 16.533-5.14 23.963-2.592 2.298-4.413 4.596-6.187 6.894l8.86.265.862-5.922 2.74-.353c.338-12.258.849-16.905 2.286-21.083 2.495-7.255 6.084-14.1 9.9-20.86z"/>
    <path d="M108.88 121.03c-.383-3.163-.683-6.048-.063-7.313l5.063-10.311c1.701-3.466 3.388-6.487 6.438-7.25 1.178-.296 8.99 7.364 13.593 11.218-.106-2.736-.058-5.034-1.03-6.843-5.413-10.06-3.775-17.892 6.374-24 2.319-1.396 1.451-3.235-.562-4.063l-4.563-1.875c-7.376.859-8.286-2.002-8.75-3.187l6.5-.188c1.31-.149.546-1.788-1-1.937-2.416-.375-6.679.925-7.25-1.125-.122-1.622-1.47-4.511-.125-4.625 2.775-.235 6.116.488 8.25-.688 1.388-.764 2.615-1.257 3.938-1.75 1.871-.697 3.12-1.94 4.562-2.25 2.494-.534 4.975-.253 7.453-.094 1.41.091.932-1.25.063-1.687-2.526-1.268-4.728-2.41-6.497-3.885-1.005-.837.921-2.75 2.596-1.846 4.885 2.64 9.724 8.283 13.136.512.532-1.212-1.544-1.59-2.625-2.25-3.17-1.935-5.719-4.815-7.125-9-.351-1.043.591-1.912 1.75-.812 4.064 3.86 7.155 11.19 12.375 2.687.679-1.106-.958-1.957-2.063-3.062-2.65-2.652-3.727-6.23-4.5-9.813-.221-1.027.397-2.757 1.688-.687 2.002 3.21 3.984 6.786 7.625 9.187 1.614 1.065 3.562-2.403 4.625-4.062 1.519-2.373-3.642-8.135-2.438-12.75.241-.924 1.266-2.462 1.813-.063 1.047 4.599 1.985 7.242 3.812 8.625 1.943 1.472 4.505-2.532 6.75-3.812 1.59-.907.744-4.143 1.125-6.375.137-.801 1.184-2.53 1.938-.063 1.046 3.425 1.882 7.614-1.313 9.688-7.224 4.69-11.243 10.547-15.188 16.937-3.13 5.07-3.438 12.994-11.562 13.5l2.188 4.562c5.778-1.69 10.95-1.56 15.562.25-3.397 4.13-7.755 6.178-13.375 5.5-.153 6.434-1.783 12.94-4.375 19.562-.582 1.486-.76 2.854 4.75 3.5 12.952 1.518 21.476-1.335 23.25-1.437 4.75-.274 10.019 5.37 14.469 10.375l-2.563.406c.025 9.41-7.144 18.023-7.906 21.03-1.839 7.263 4.354 9.342 4.25 16.25-.111 7.327-.058 14.703-.7 21.878-.097 1.09-2.123 1.89-3.786 2.744l-.55 4.936-8.121-2.533c2.39-2.62 4.73-5.272 8.15-7.204.356-5.668.161-10.676.132-15.882-.025-4.493-2.985-7.28-5.75-10.125-5.825-5.992-6.985-12.065-5.5-20.25-4.743 3.694-16.096 8.79-26 8.375-5.991-.252-15.983.834-17.625-1.125-2.88-3.434-5.305-7.468-7.688-11.562-1.611-2.77-3.943-1.525-4.75.75l-2.778 7.835c-.523 1.475-.217 2.835 1.259 4.486l-.575 3.094z"/>
   </g>
   <path d="M173.81 109.28c.546-1.944.812-3.791 1.108-5.649" fill-opacity=".502"/>
   <circle cx="139.38" cy="59.971" r="1.591" fill="#fff"/>
  </g>
  <path d="M93.324 38.863 75.28 60.061l18.044 21.198-27.326-5.073-9.282 26.27-9.282-26.27-27.326 5.073 18.044-21.198-18.044-21.198 27.326 5.073 9.282-26.27 9.282 26.27z" fill="#fcdb00" stroke-dashoffset="4.58"/>
  <path d="m1 1 3.761 158c2.687 112.86 196.65 112.86 199.34 0l3.761-158z" fill="none" stroke-width="2"/>
 </g>
</svg>
