<?xml version="1.0" encoding="UTF-8" standalone="no"?>
<!-- Created with Inkscape (http://www.inkscape.org/) -->

<svg
   xmlns:dc="http://purl.org/dc/elements/1.1/"
   xmlns:cc="http://creativecommons.org/ns#"
   xmlns:rdf="http://www.w3.org/1999/02/22-rdf-syntax-ns#"
   xmlns:svg="http://www.w3.org/2000/svg"
   xmlns="http://www.w3.org/2000/svg"
   xmlns:xlink="http://www.w3.org/1999/xlink"
   xmlns:sodipodi="http://sodipodi.sourceforge.net/DTD/sodipodi-0.dtd"
   xmlns:inkscape="http://www.inkscape.org/namespaces/inkscape"
   version="1.0"
   width="208.86046"
   height="244.65999"
   id="svg2780"
   inkscape:version="0.92.3 (2405546, 2018-03-11)"
   sodipodi:docname="CHE Schwende-Rüte COA.svg">
  <metadata
     id="metadata27">
    <rdf:RDF>
      <cc:Work
         rdf:about="">
        <dc:format>image/svg+xml</dc:format>
        <dc:type
           rdf:resource="http://purl.org/dc/dcmitype/StillImage" />
        <dc:title />
      </cc:Work>
    </rdf:RDF>
  </metadata>
  <sodipodi:namedview
     pagecolor="#ffffff"
     bordercolor="#666666"
     borderopacity="1"
     objecttolerance="10"
     gridtolerance="10"
     guidetolerance="10"
     inkscape:pageopacity="0"
     inkscape:pageshadow="2"
     inkscape:window-width="1920"
     inkscape:window-height="1017"
     id="namedview25"
     showgrid="false"
     inkscape:zoom="3.3906251"
     inkscape:cx="97.521884"
     inkscape:cy="120.21346"
     inkscape:window-x="-8"
     inkscape:window-y="-8"
     inkscape:window-maximized="1"
     inkscape:current-layer="svg2780"
     inkscape:measure-start="104.255,149.787"
     inkscape:measure-end="104.255,126.383"
     showguides="true"
     inkscape:object-paths="true"
     inkscape:snap-intersection-paths="true"
     inkscape:snap-global="true" />
  <defs
     id="defs2782">
    <path
       d="M385.3,469.4c-3.9-23.5-28.8-33.6-34.9-36c-30.6-12.4-59.9,4.2-64.3,6.8c0.2-9.2-2.7-14.7-4.9-17.6    c-6.3-8.6-18.6-12.6-31-12.3c-12.4-0.3-24.7,3.8-31,12.3c-2.1,2.9-5.1,8.4-4.9,17.6c-4.4-2.6-33.7-19.2-64.3-6.8    c-6,2.4-31,12.5-34.9,36c-2.4,14.3,4.3,26.1,7.1,30.6l128,0.1l128-0.1C381,495.5,387.7,483.7,385.3,469.4z"
       id="SVGID_1_" />
  </defs>
  <path
     inkscape:connector-curvature="0"
     style="fill:#000000;fill-opacity:1;fill-rule:evenodd;stroke:none;stroke-width:1.99999988;stroke-linecap:butt;stroke-miterlimit:4;stroke-dashoffset:0;stroke-opacity:1"
     id="path4212-2"
     d="m 1,1 3.76109,158.00304 c 2.68649,112.85918 196.65176,112.85918 199.33826,0 L 207.86045,1 Z" />
  <path
     inkscape:connector-curvature="0"
     style="fill:#1c63b7;fill-opacity:1;fill-rule:evenodd;stroke:none;stroke-width:1.99999988;stroke-linecap:butt;stroke-miterlimit:4;stroke-dashoffset:0;stroke-opacity:1"
     id="path4212-8"
     d="m 3.7615246,117.01124 0.9995644,41.9918 c 2.6864771,112.85918 196.651761,112.85918 199.338261,0 l 0.99957,-41.9918 z"
     sodipodi:nodetypes="csscc" />
  <g
     id="g1024"
     transform="matrix(0.43350681,0,0,0.46404494,1,1)"
     style="stroke-width:2.22957468">
    <path
       id="path8"
       d="M 211.27453,422.37853"
       class="st2"
       inkscape:connector-curvature="0"
       style="fill:none;stroke:#000000;stroke-width:2.62153387" />
    <g
       id="g26"
       style="stroke-width:2.23857784"
       transform="matrix(0.99881921,0,0,0.99314513,-6.4680647,0.09322616)">
	<path
   style="fill:#f00000;fill-opacity:1;stroke:#000000;stroke-width:2.23857784;stroke-miterlimit:4;stroke-dasharray:none"
   inkscape:connector-curvature="0"
   d="m 136.1,59.1 c -9.4,-0.6 -5,6.1 -0.5,6.3 20.2,0.7 42,-3.1 65.9,-12.5 l -0.6,-2.4 c -16.5,6.6 -37.5,10.2 -64.8,8.6 z"
   class="st3"
   id="path908_00000161596522099737043870000013325004451349249980_" />

	<path
   style="fill:#f00000;fill-opacity:1;stroke:#000000;stroke-width:2.23857784;stroke-miterlimit:4;stroke-dasharray:none"
   inkscape:connector-curvature="0"
   d="m 140.3,30.8 c 0.3,16.7 36.7,21 56.7,20.4 -6.3,8.8 -17.7,17.4 -32.5,17.8 -2.7,0.6 -4.8,3.6 -0.8,4.4 23,2.5 39.8,-4.2 54,-15 l -7.5,-31.5 c -7.6,0.6 -15.9,2.4 -22.1,0.5 -2.4,-0.7 -4.4,-1.2 -5.6,-0.3 -5.5,3.6 -11.4,3.8 -17.5,3.1 -6.4,-0.7 -12.6,-3 -18.9,-4.9 -4.1,-1.2 -5.8,2.2 -5.8,5.5 z"
   class="st3"
   id="path906_00000159446130646882585940000000707113416912786864_" />

	<path
   style="fill:#ffffff;stroke:#000000;stroke-width:2.23857784;stroke-miterlimit:4;stroke-dasharray:none"
   inkscape:connector-curvature="0"
   d="m 210.3,39 c -9.4,-0.8 -22.4,0.6 -18.4,-14.3 2.3,-8.6 11.9,-11.1 20.5,-10.1 8.5,1 14.5,1.8 19,1 8.1,-1.4 18.1,-0.3 24,3.8 14.2,9.7 24.2,4.5 35.7,2.9 8.9,-1.2 20.2,-2.4 27.3,-1.9 4.6,0.3 10.8,-3.8 15.7,-6.8 -2,3 -3.7,6.2 -6.6,8.5 5.2,1.7 10.5,4.2 12.8,5.3 1.9,0.9 11.2,-0.3 15.9,-1.8 -3.2,2 -6.2,4.3 -10.1,5.8 2.8,2.3 6.2,5.2 8.2,7.6 1.6,1.8 7.9,3.2 13.6,4.3 -2.5,0.8 -4.5,1.7 -8.7,1.9 2.7,4.2 5.3,9 6.5,12.1 0.9,2.6 7.8,4.8 11.6,7.3 -3.1,0.6 -6.3,1.2 -9.4,0.6 0.6,7.4 0.2,15.5 -0.5,22 -0.2,2.1 4.7,9.3 8.4,13.6 -3.1,-1.2 -6.6,-2.2 -9.1,-4.1 -1.8,6.8 -4.4,14.6 -6.5,19 -0.9,1.8 2,9 3.8,11.9 -2.7,-1.9 -5.3,-3 -8.2,-5.8 -5.5,5.9 -10.3,13.5 -14,17.8 -1.8,2.1 -1.8,10.6 -0.3,16.3 -2.4,-3.7 -5.1,-6.5 -7.3,-11.3 -13.9,10.5 -25.5,21.3 -21.1,37.9 33.6,16.6 14.8,29.8 7.8,29.8 H 170.3 c -7.9,0 3.3,-24.7 16.1,-36 -8.8,-8.5 -28.3,-35.2 -10.9,-55 8.5,-9.7 22.2,-15.7 46.1,-16.5 35.5,-1.2 108,13.3 106.7,-30.2 -0.6,-20.6 -21.5,-32 -56.4,-21.3 -22.8,7 -47.5,12.6 -61.8,4.8 -7.1,-3.6 -5,-11.9 0.2,-19.1 z"
   class="st4"
   id="path904_00000026155682809310398530000010598303312187169666_" />

	<path
   style="stroke:#000000;stroke-width:2.23857784;stroke-miterlimit:4;stroke-dasharray:none"
   inkscape:connector-curvature="0"
   d="m 172.3,38.8 c -2.1,0.1 -1.3,1.3 -0.5,1.6 3,1 8.8,1.2 12.7,-0.7 1.4,-0.7 1.7,-3.3 -1.1,-2.5 -4.2,1.1 -7.4,1.4 -11.1,1.6 z"
   class="st5"
   id="path910_00000135670332456099355400000012845951244907226292_" />

	<path
   style="fill:#fcdb00;fill-opacity:1;stroke:#000000;stroke-width:2.23857784;stroke-miterlimit:4;stroke-dasharray:none"
   inkscape:connector-curvature="0"
   d="m 342.2,233.4 c -0.6,-30 8.4,-53 22.4,-72.3 -21.9,-3.9 -34,3.3 -27.7,17.9 -9.9,-8.6 -27.4,-8.8 -28.6,5.4 -0.6,7.5 6.6,16.8 20.9,15 -7.8,11.1 -15.9,15.1 -29.6,0.7 -15.4,17.5 -38.2,7.8 -38.2,-3.8 11.5,5.4 29.3,1.9 29.2,-11.8 0,-8.5 -12.2,-15.2 -25.4,-8.3 6.2,-17 -8.2,-21.2 -13.9,-21.2 -5.7,0 -20.1,4.2 -13.9,21.2 -13.2,-7 -25.4,-0.2 -25.4,8.3 0,13.7 17.7,17.2 29.2,11.8 0,11.6 -22.8,21.3 -38.2,3.8 -13.7,14.4 -21.8,10.4 -29.6,-0.7 14.4,1.7 21.6,-7.6 20.9,-15 -1.2,-14.2 -18.7,-14 -28.6,-5.4 6.2,-14.6 -5.8,-21.8 -27.7,-17.9 14,19.4 23,42.4 22.4,72.3 h 90.8 z"
   class="st6"
   id="path854-2_00000106850855764993690220000017556283631898088331_" />

	
		<ellipse
   style="fill:#f00000;fill-opacity:1;stroke:#000000;stroke-width:2.23857784;stroke-miterlimit:4;stroke-dasharray:none"
   ry="7.4000001"
   rx="8.3999996"
   cy="196.5"
   cx="203.10001"
   class="st3"
   id="path856-6-2_00000129200469457533322440000014045731488139944591_" />

	
		<ellipse
   style="fill:#f00000;fill-opacity:1;stroke:#000000;stroke-width:2.23857784;stroke-miterlimit:4;stroke-dasharray:none"
   ry="7.4000001"
   rx="8.3999996"
   cy="189.2"
   cx="157.2"
   class="st3"
   id="path856-5-4_00000021079000023557960270000005905495156888502445_" />

	<path
   style="fill:#fcdb00;fill-opacity:1;stroke:#000000;stroke-width:2.23857784;stroke-miterlimit:4;stroke-dasharray:none"
   inkscape:connector-curvature="0"
   d="m 156.6,230.1 c -3.7,0 -5.7,2.8 -5.7,5.1 0,2.3 1.7,5.1 5.7,5.1 h 94.8 94.8 c 4,0 5.7,-2.7 5.7,-5.1 0,-2.3 -2,-5.1 -5.7,-5.1 h -94.8 z"
   class="st6"
   id="path883-6_00000007422815092044829660000000455884270886937747_" />

	<path
   style="fill:#fcdb00;fill-opacity:1;stroke:#000000;stroke-width:2.23857784;stroke-miterlimit:4;stroke-dasharray:none"
   inkscape:connector-curvature="0"
   d="m 159.2,216.2 c -3.6,0 -5.5,2.8 -5.5,5.1 0,2.3 1.7,5.1 5.5,5.1 h 92.2 92.2 c 3.9,0 5.5,-2.7 5.5,-5.1 0,-2.3 -2,-5.1 -5.5,-5.1 h -92.2 z"
   class="st6"
   id="path883-5-4_00000180341520937441432490000008880149543992849030_" />

	<path
   style="fill:none;stroke:#000000;stroke-width:2.23857784;stroke-miterlimit:4;stroke-dasharray:none"
   inkscape:connector-curvature="0"
   d="m 346.5,197.8 c -1.8,7.4 -16.9,18.4 -27.6,18.4 -7.9,0 -14.2,-1.2 -19,-6.6 -5.6,6.6 -14.8,6.6 -20.9,6.6 -8.3,0 -23.7,-5.1 -27.6,-14.1 -3.9,9 -19.2,14.1 -27.6,14.1 -6.2,0 -15.4,0 -20.9,-6.6 -4.9,5.5 -11.1,6.6 -19,6.6 -10.7,0 -25.8,-11 -27.6,-18.4"
   class="st7"
   id="path902-3_00000175310309518914054250000017833002531311938733_" />

	<ellipse
   style="stroke:#000000;stroke-width:2.23857784;stroke-miterlimit:4;stroke-dasharray:none"
   ry="2.2"
   rx="2.5"
   cy="36.900002"
   cx="220.5"
   class="st5"
   id="path958_00000054253979176288114430000000092984640600547738_" />

	<path
   style="fill:none;stroke:#000000;stroke-width:2.23857784;stroke-miterlimit:4;stroke-dasharray:none"
   inkscape:connector-curvature="0"
   d="m 210.9,39 c 3.2,-6.7 6.7,-7.9 10.2,-8 4.9,-0.1 10.5,7.1 17.1,7.1"
   class="st7"
   id="path960_00000103262267438951876960000002144248524692997025_" />

	<path
   style="fill:none;stroke:#000000;stroke-width:2.23857784;stroke-miterlimit:4;stroke-dasharray:none"
   inkscape:connector-curvature="0"
   d="m 211.4,38.1 c 1.9,3.1 4.3,4.1 9.7,4.3 6.4,0.2 8.9,-2.1 11.5,-5.8"
   class="st7"
   id="path962_00000111873213392897777980000005568295165656459395_" />

	<ellipse
   style="fill:#f00000;fill-opacity:1;stroke:#000000;stroke-width:2.23857784;stroke-miterlimit:4;stroke-dasharray:none"
   ry="7.4000001"
   rx="8.3999996"
   cy="187.2"
   cx="251.3"
   class="st3"
   id="path856_00000139256635074285758480000018098019296043838366_" />

	
		<ellipse
   style="fill:#f00000;fill-opacity:1;stroke:#000000;stroke-width:2.23857784;stroke-miterlimit:4;stroke-dasharray:none"
   ry="7.4000001"
   rx="8.3999996"
   cy="196.5"
   cx="299.60001"
   class="st3"
   id="path856-6_00000070840845833599806930000003743122463773998264_" />

	
		<ellipse
   style="fill:#f00000;fill-opacity:1;stroke:#000000;stroke-width:2.23857784;stroke-miterlimit:4;stroke-dasharray:none"
   ry="7.4000001"
   rx="8.3999996"
   cy="189.2"
   cx="345.5"
   class="st3"
   id="path856-5_00000142854977599030992810000013422617272587457920_" />

</g>
    <g
       id="g3217_00000027592053566919240180000016290161737805022123_"
       style="stroke-width:2.23857784"
       transform="matrix(0.99881921,0,0,0.99314513,-6.4680647,0.09322616)">
	<path
   style="fill:#ffffff;stroke:#000000;stroke-width:1.28942084;stroke-miterlimit:4;stroke-dasharray:none"
   inkscape:connector-curvature="0"
   d="m 318.1,281.4 v 137.7 c -0.1,9.2 2.4,20.7 15.5,37 -56.6,0 -113.2,0 -169.7,0 13.2,-16.3 15.7,-27.7 15.5,-37 V 281.4 l 69.3,-24.7 z"
   class="st8"
   id="path2529-4_00000104677070590639628310000015960484111778014628_" />

	
		<rect
   style="stroke:#000000;stroke-width:2.63211966"
   height="16.4"
   width="16.4"
   class="st9"
   y="289.10001"
   x="253.5"
   id="rect2501_00000005246391651421541850000003307410086057053087_" />

	
		<rect
   style="stroke:#000000;stroke-width:2.63211966"
   height="5.0999999"
   width="4.8000002"
   class="st9"
   y="274.60001"
   x="246.39999"
   id="rect2503_00000153673165673890634090000014461786561730608560_" />

	
		<rect
   style="stroke:#000000;stroke-width:2.63211966"
   height="9.6000004"
   width="10.1"
   class="st9"
   y="333.20001"
   x="243.7"
   id="rect2509_00000100345487468005889930000000163824894386183306_" />

	<path
   style="stroke:#000000;stroke-width:2.63211966"
   inkscape:connector-curvature="0"
   d="m 258.7,376.1 v 20.7 c -6.6,0 -13.2,0 -19.7,0 v -20.7 c 0,-3.2 6.1,-5.4 9.9,-5.4 3.6,0 9.8,2.3 9.8,5.4 z"
   class="st9"
   id="path2511-0_00000091727278157382116780000010842773104459580602_" />

	<path
   style="fill:#f00000;fill-opacity:1;stroke:#000000;stroke-width:1.28942084;stroke-miterlimit:4;stroke-dasharray:none"
   inkscape:connector-curvature="0"
   d="m 245.1,270.6 v -9.8 l -14.4,5.1 v 11.2 h -7.5 v -8.5 l -14.4,5.1 v 11.2 h -7.5 v -8.5 l -14.4,5.1 v 11.2 h -7.5 v -8.5 l -20.6,7.3 v 15.1 h 20.6 v 16.8 h -13 l 13,10.2 v 5.5 l -20,-15.8 h -5.9 v -12.5 h 2.2 v -18.3 l -9.1,3.2 V 293 L 248.7,256.6 350.8,293 v 2.7 l -9.1,-3.2 v 18.3 h 2.2 v 12.5 H 338 l -20,15.8 v -5.5 l 13,-10.2 h -13 v -16.8 h 20.6 V 291.5 L 318,284.2 v 8.5 h -7.5 v -11.2 l -14.4,-5.1 v 8.5 h -7.5 v -11.2 l -14.4,-5.1 v 8.5 h -7.5 v -11.2 l -14.4,-5.1 v 9.8 c -2.3,0 -4.8,0 -7.2,0 z"
   class="st10"
   id="path2495-4_00000083057671142508321000000006603795567533680048_" />

	
		<rect
   style="stroke:#000000;stroke-width:2.63211966"
   height="16.4"
   width="16.4"
   class="st9"
   y="289.10001"
   x="227.7"
   id="rect2501-8_00000169519641264734392070000004647959041536865674_" />

</g>
    <path
       style="fill:#009944;fill-opacity:1;stroke:#000000;stroke-width:1.284235;stroke-miterlimit:4;stroke-dasharray:none"
       id="path36"
       d="m 378.37699,466.27554 c -3.89539,-23.3389 -28.76599,-33.36967 -34.85879,-35.75322 -30.56387,-12.315 -59.82928,4.17122 -64.22408,6.75339 0.19977,-9.13693 -2.69681,-14.59924 -4.89421,-17.47935 -6.29256,-8.54105 -18.57804,-12.51363 -30.9634,-12.21569 -12.38536,-0.29794 -24.67083,3.77395 -30.9634,12.21569 -2.09752,2.88011 -5.09397,8.34242 -4.89421,17.47935 -4.3948,-2.58217 -33.66021,-19.06839 -64.22407,-6.75339 -5.99292,2.38355 -30.9634,12.41432 -34.8588,35.75322 -2.39717,14.20198 4.29493,25.92109 7.09162,30.39025 0,0 62.26124,28.56764 127.35774,26.2007 61.42124,-2.2333 122.63046,-22.92897 131.75226,-32.46711 2.70864,-5.86514 5.31824,-14.41422 3.67934,-24.12384 z"
       class="st11"
       inkscape:connector-curvature="0"
       sodipodi:nodetypes="ccccccccccscc" />
    <g
       id="g46"
       style="stroke-width:2.23857784"
       transform="matrix(0.99881921,0,0,0.99314513,-6.4680647,0.09322616)">
	<defs
   id="defs39">
		<path
   d="m 385.3,469.4 c -3.9,-23.5 -28.8,-33.6 -34.9,-36 -30.6,-12.4 -59.9,4.2 -64.3,6.8 0.2,-9.2 -2.7,-14.7 -4.9,-17.6 -6.3,-8.6 -18.6,-12.6 -31,-12.3 -12.4,-0.3 -24.7,3.8 -31,12.3 -2.1,2.9 -5.1,8.4 -4.9,17.6 -4.4,-2.6 -33.7,-19.2 -64.3,-6.8 -6,2.4 -31,12.5 -34.9,36 -2.4,14.3 4.3,26.1 7.1,30.6 l 128,0.1 128,-0.1 c 2.8,-4.5 9.5,-16.3 7.1,-30.6 z"
   id="path1017"
   inkscape:connector-curvature="0" />

	</defs>

	<clipPath
   id="SVGID_00000117642224795836171400000013733547601060507813_">
		<use
   id="use41"
   style="overflow:visible"
   xlink:href="#SVGID_1_"
   x="0"
   y="0"
   width="100%"
   height="100%" />

	</clipPath>

	
		<path
   id="path44"
   clip-path="url(#SVGID_00000117642224795836171400000013733547601060507813_)"
   d="m 321.6,454 c -4.6,1.7 -8.1,4.1 -15.8,5.6 -17.3,3.4 -28.6,-2.9 -42.5,-5.5 -3.7,-0.7 -8.2,-1.2 -13.3,-1.2 -5.1,0 -9.6,0.5 -13.3,1.2 -13.9,2.6 -25.2,8.9 -42.5,5.5 -7.6,-1.5 -11.2,-3.9 -15.8,-5.6 -12.2,-4.6 -32.1,-4.8 -66.1,16 v 18.5 c 34,-20.8 53.9,-20.6 66.1,-16 4.6,1.7 8.1,4.1 15.8,5.6 17.3,3.4 28.6,-2.9 42.5,-5.5 3.7,-0.7 8.2,-1.2 13.3,-1.2 5.1,0 9.6,0.5 13.3,1.2 13.9,2.6 25.2,8.9 42.5,5.5 7.6,-1.5 11.2,-3.9 15.8,-5.6 12.2,-4.6 32.1,-4.8 66.1,16 V 470 c -34,-20.8 -54,-20.6 -66.1,-16 z"
   style="fill:#ffffff;stroke:#000000;stroke-width:0.4051826;stroke-miterlimit:4;stroke-dasharray:none"
   inkscape:connector-curvature="0" />

</g>
  </g>
  <path
     inkscape:connector-curvature="0"
     style="fill:none;fill-opacity:1;fill-rule:evenodd;stroke:#000000;stroke-width:1.99999988;stroke-linecap:butt;stroke-miterlimit:4;stroke-dashoffset:0;stroke-opacity:1"
     id="path4212"
     d="m 1,1 3.761095,158.00304 c 2.686489,112.85918 196.651755,112.85918 199.338255,0 L 207.86045,1 Z" />
  <style
     id="style2"
     type="text/css">
	.st0{fill:#010101;}
	.st1{fill:#1B63C6;}
	.st2{fill:none;stroke:#000000;stroke-width:1.1758;}
	.st3{fill:#CC2918;stroke:#000000;stroke-width:2;}
	.st4{fill:#FFFFFF;stroke:#000000;stroke-width:2;}
	.st5{stroke:#000000;stroke-width:2;}
	.st6{fill:#FEEB00;stroke:#000000;stroke-width:2;}
	.st7{fill:none;stroke:#000000;stroke-width:2;}
	.st8{fill:#FFFFFF;stroke:#000000;stroke-width:1.1758;}
	.st9{stroke:#000000;stroke-width:1.1758;}
	.st10{fill:#CC2918;stroke:#000000;stroke-width:1.1758;}
	.st11{fill:#009700;stroke:#000000;stroke-width:1.1758;}
	
		.st12{clip-path:url(#SVGID_00000145059699760156604740000009516379689961413037_);fill:#FFFFFF;stroke:#000000;stroke-width:1.1812;}
</style>
</svg>
