<?xml version="1.0" encoding="UTF-8" standalone="no"?>
<svg
   xmlns:dc="http://purl.org/dc/elements/1.1/"
   xmlns:cc="http://creativecommons.org/ns#"
   xmlns:rdf="http://www.w3.org/1999/02/22-rdf-syntax-ns#"
   xmlns:svg="http://www.w3.org/2000/svg"
   xmlns="http://www.w3.org/2000/svg"
   xmlns:sodipodi="http://sodipodi.sourceforge.net/DTD/sodipodi-0.dtd"
   xmlns:inkscape="http://www.inkscape.org/namespaces/inkscape"
   height="579.54279"
   width="500"
   version="1.1"
   id="svg66"
   sodipodi:docname="CHE Eichberg COA.svg"
   inkscape:version="0.92.3 (2405546, 2018-03-11)">
  <metadata
     id="metadata72">
    <rdf:RDF>
      <cc:Work
         rdf:about="">
        <dc:format>image/svg+xml</dc:format>
        <dc:type
           rdf:resource="http://purl.org/dc/dcmitype/StillImage" />
        <dc:title></dc:title>
      </cc:Work>
    </rdf:RDF>
  </metadata>
  <defs
     id="defs70">
    <linearGradient
       id="linearGradient2893">
      <stop
         id="stop2895"
         offset="0"
         style="stop-color:#ffffff;stop-opacity:0.3137255;" />
      <stop
         style="stop-color:#ffffff;stop-opacity:0.25098041;"
         offset="0.19"
         id="stop2897" />
      <stop
         id="stop2901"
         offset="0.60000002"
         style="stop-color:#6b6b6b;stop-opacity:0.1254902;" />
      <stop
         id="stop2899"
         offset="1"
         style="stop-color:#000000;stop-opacity:0.1254902;" />
    </linearGradient>
    <linearGradient
       id="linearGradient2955">
      <stop
         id="stop2965"
         offset="0"
         style="stop-color:white;stop-opacity:0;" />
      <stop
         id="stop2959"
         offset="1"
         style="stop-color:black;stop-opacity:0.64583331;" />
    </linearGradient>
  </defs>
  <sodipodi:namedview
     pagecolor="#ffffff"
     bordercolor="#666666"
     borderopacity="1"
     objecttolerance="10"
     gridtolerance="10"
     guidetolerance="10"
     inkscape:pageopacity="0"
     inkscape:pageshadow="2"
     inkscape:window-width="1920"
     inkscape:window-height="1017"
     id="namedview68"
     showgrid="false"
     inkscape:zoom="1.0700377"
     inkscape:cx="213.82804"
     inkscape:cy="244.95925"
     inkscape:window-x="-8"
     inkscape:window-y="-8"
     inkscape:window-maximized="1"
     inkscape:current-layer="layer2" />
  <path
     d="m9.9796748 9.9796748v319.5630252c0 132.3398 107.6705152 240.0204 240.0203152 240.0204 132.34981 0 240.02034-107.6806 240.02034-240.0204v-319.5630252z"
     fill="#fcdd09"
     stroke="#000"
     stroke-width="9.95935"
     id="path2"
     style="fill:#ffffff" />
  <g
     id="g926"
     transform="matrix(0.74933643,0,0,0.72459415,30.659004,10.443565)"
     style="stroke-width:1.35710704">
    <g
       inkscape:label="Meubles"
       id="layer2"
       style="stroke-width:1.35710704">
      <path
         sodipodi:nodetypes="csssssssssssssssssss"
         id="path10332"
         d="m 294.27616,450.71388 c 9.6464,-16.7337 22.49885,-44.90243 28.22564,-66.93489 8.58374,-33.02384 -9.77647,-16.90573 -14.28632,-23.39694 -12.01096,-17.28774 46.95884,-66.38808 61.44997,-104.72274 22.71439,-60.08837 -16.76962,-37.35544 -22.13918,-34.56319 -26.31615,13.6848 -27.28286,-3.48882 -11.84879,-19.4102 19.70597,-20.3281 36.55737,-41.18913 43.27568,-58.32568 10.95776,-27.95027 -14.05498,-51.54071 -34.64365,-23.39697 -7.36647,10.0696 -40.20229,41.19897 -9.13161,-28.537584 11.48039,-25.767158 3.34061,-54.72356 -24.10829,-64.319689 -17.81534,-6.228245 -44.64698,-0.50339 -56.45131,11.881118 -19.20749,20.151556 -10.062,49.096537 -2.14453,66.569615 22.2325,49.06487 6.64875,36.27574 -14.99599,15.85191 -41.84962,-39.488956 -60.5394,34.39537 -18.95926,64.20542 43.34413,31.07469 56.05784,60.41635 17.87146,40.15206 -24.0044,-12.73836 -45.71905,0.38926 0.0155,71.65184 13.1557,20.49891 38.8604,40.96265 32.86174,64.75904 -2.43876,9.67439 -15.49153,-22.43879 -15.72121,15.12139 -0.13723,22.43911 20.4557,51.28127 30.37018,73.41549 9.91446,22.13423 0.71355,16.73371 10.35994,0 z"
         style="fill:#009645;fill-opacity:1;fill-rule:evenodd;stroke:#000000;stroke-width:5.42842913;stroke-linecap:butt;stroke-linejoin:miter;stroke-miterlimit:4;stroke-dasharray:none;stroke-opacity:1"
         inkscape:connector-curvature="0" />
      <path
         style="fill:#009645;fill-opacity:1;fill-rule:evenodd;stroke:#000000;stroke-width:5.42842913;stroke-linecap:butt;stroke-linejoin:miter;stroke-miterlimit:4;stroke-dasharray:none;stroke-opacity:1"
         d="m 276.91791,536.61621 c -1.55097,-19.28721 -16.4984,-54.97341 -14.71371,-77.67749 3.47807,-44.24637 -10.73027,-30.23935 -18.54869,-29.37238 -30.22798,3.35196 -5.33248,-39.19212 -6.67392,-80.28021 -2.03761,-62.41179 -28.15501,-42.98299 -30.24916,-37.27316 -19.66864,53.62776 -26.86805,24.47773 -20.72269,-9.13636 5.10845,-27.94244 6.70724,-54.83579 2.52299,-72.77166 -6.82459,-29.25397 -41.34709,-34.27316 -41.70385,0.68487 -0.16226,15.89837 -7.34719,99.51936 -23.65875,-18.19477 -3.87605,-27.97205 -28.240407,-46.86954 -56.220478,-38.98208 -18.160052,5.11925 -36.958358,25.23691 -39.642429,42.19139 -4.367382,27.58759 19.533421,46.10903 35.930118,55.91285 46.042409,27.52933 26.000611,33.53801 -3.342482,29.19696 -56.7341899,-8.39327 -29.636457,72.69947 20.779754,64.71127 66.490187,-10.53503 83.571927,15.53528 38.486037,22.71379 -26.798977,4.26689 -38.405789,43.34288 39.50974,50.20564 24.13999,2.12625 62.83773,12.58137 38.99753,20.27268 -10.78488,3.47941 -18.63587,18.52956 26.25384,39.44096 23.40635,10.90359 40.09207,37.8957 50.84273,44.38742 20.67619,12.48521 3.70443,13.25747 2.15342,-6.02972 z"
         id="path11219"
         sodipodi:nodetypes="csssssssssssssssssss"
         inkscape:connector-curvature="0" />
      <path
         sodipodi:nodetypes="csssssssssssssssssss"
         id="path11221"
         d="m 308.28052,543.45527 c -4.11645,4.05535 29.57885,-53.17107 60.65978,-59.13996 43.28284,-8.31219 21.55316,-20.40607 14.22362,-23.28122 -29.79831,-11.68899 33.72386,-17.02699 70.74257,-34.33743 56.2288,-26.29327 22.90357,-46.15013 16.86764,-45.85907 -56.69037,2.73366 -32.87096,-15.33893 0.24516,-22.78485 27.52853,-6.18955 49.50941,-3.34174 64.26135,-14.23411 24.06092,-17.76575 29.08767,-62.53584 -2.99302,-49.19776 -14.5898,6.06596 -93.8038,25.62054 7.37384,-35.52944 24.04256,-14.53088 31.78254,-44.50867 13.63531,-67.36553 -11.77819,-14.83491 -37.51,-24.3971 -54.05084,-20.2562 -26.91451,6.73785 -42.95207,37.11672 -41.3277,56.25406 5.38343,63.42535 -13.62205,29.22223 -15.1172,7.23727 -4.01364,-59.01806 -69.64974,-1.20534 -52.07404,41.3277 25.86544,62.59413 -10.87005,93.48715 -5.70524,47.80283 3.49248,-30.89203 -61.77176,-18.80984 -37.93012,56.26115 7.38636,23.25763 7.42293,66.32218 -11.85285,48.40264 -7.2818,-6.76944 -20.14334,-12.00037 -20.20071,40.26908 -0.0838,76.28785 -28.54171,71.26942 -12.87526,70.44472 z"
         style="fill:#009645;fill-opacity:1;fill-rule:evenodd;stroke:#000000;stroke-width:5.42842913;stroke-linecap:butt;stroke-linejoin:miter;stroke-miterlimit:4;stroke-dasharray:none;stroke-opacity:1"
         inkscape:connector-curvature="0" />
      <path
         sodipodi:nodetypes="ccsccccscccccscssccc"
         id="rect6378"
         d="m 272.40321,741.6882 41.0195,-0.055 c -9.28934,-37.13197 8.28796,-68.92009 2.58852,-62.27779 l -13.60012,7.91011 1.59829,-34.62927 c 13.43527,-26.98054 61.34446,-65.75484 225.26963,-144.21912 -75.82771,37.4365 -149.552,49.44767 -227.91488,117.52882 -0.19216,-47.2995 0.97814,-53.48018 3.97007,-65.47031 21.94206,-87.9326 84.41466,-170.98963 142.79647,-258.29477 -55.08501,75.75385 -107.92338,153.77075 -151.67019,240.94575 l -7.50902,-339.17435 -7.94417,339.48277 C 237.64463,421.35791 161.16525,356.4677 100.01889,265.10002 c 61.40097,96.94942 145.44895,178.69034 176.36584,296.11119 4.7544,18.05686 2.27515,63.30671 2.27515,63.30671 C 180.47144,539.76785 120.42019,526.71121 55.587567,497.38211 51.295598,495.44051 263.93139,595.8597 277.03923,650.1721 l 2.11098,35.65366 -11.61128,-8.30869 c 3.33568,19.67619 10.66951,38.57437 4.38295,62.12761"
         style="fill:#009645;fill-opacity:1;fill-rule:nonzero;stroke:#000000;stroke-width:5.42842913;stroke-linecap:square;stroke-linejoin:miter;stroke-miterlimit:4;stroke-dasharray:none;stroke-opacity:1"
         inkscape:connector-curvature="0" />
      <g
         id="g13048"
         style="stroke-width:1.30816698"
         transform="matrix(1.0336364,0,0,1.0411997,-15.079141,-15.784617)">
        <rect
           rx="69.009956"
           ry="60.580441"
           transform="matrix(-0.890306,0.455363,0.470115,0.882605,0,0)"
           y="634.31311"
           x="-213.48553"
           height="103.66347"
           width="182.5399"
           id="rect9321"
           style="fill:#009645;fill-opacity:1;fill-rule:nonzero;stroke:#000000;stroke-width:4.25183773;stroke-linecap:round;stroke-linejoin:round;stroke-miterlimit:4;stroke-dasharray:none;stroke-opacity:1" />
        <g
           id="g9325"
           transform="matrix(-3.340865,2.108282,2.292568,3.632892,1703.635,-2406.927)"
           style="fill:#5ab532;fill-opacity:1;stroke-width:1.30816698">
          <path
             sodipodi:type="arc"
             style="fill:#009645;fill-opacity:1;fill-rule:nonzero;stroke:#000000;stroke-width:1.42354417;stroke-linecap:round;stroke-linejoin:round;stroke-miterlimit:4;stroke-dasharray:none;stroke-opacity:1"
             id="path9327"
             sodipodi:cx="696.66016"
             sodipodi:cy="409.23535"
             sodipodi:rx="19.926758"
             sodipodi:ry="21.220703"
             d="m 697.3849,388.02869 a 19.926758,21.220703 0 0 1 19.19768,21.64908 19.926758,21.220703 0 0 1 -20.02847,20.77798 l 0.10605,-21.2204 z"
             transform="matrix(0.80034,-0.05713104,0.05784799,0.652598,98.66268,195.7553)"
             sodipodi:start="4.7487672"
             sodipodi:end="1.5761184" />
          <path
             id="path9329"
             d="m 680.11876,426.86191 13.08717,4.06102"
             style="fill:#5ab532;fill-opacity:1;fill-rule:evenodd;stroke:#000000;stroke-width:0.63510776;stroke-linecap:butt;stroke-linejoin:miter;stroke-miterlimit:4;stroke-dasharray:none;stroke-opacity:1"
             sodipodi:nodetypes="cc"
             inkscape:connector-curvature="0" />
          <path
             style="fill:#5ab532;fill-opacity:1;fill-rule:evenodd;stroke:#000000;stroke-width:0.63510776;stroke-linecap:butt;stroke-linejoin:miter;stroke-miterlimit:4;stroke-dasharray:none;stroke-opacity:1"
             d="m 679.49999,416.69941 16.27462,5.14428"
             id="path9331"
             sodipodi:nodetypes="cc"
             inkscape:connector-curvature="0" />
          <path
             style="fill:#5ab532;fill-opacity:1;fill-rule:evenodd;stroke:#000000;stroke-width:0.63510776;stroke-linecap:butt;stroke-linejoin:miter;stroke-miterlimit:4;stroke-dasharray:none;stroke-opacity:1"
             d="m 679.49964,421.69945 15.77636,5"
             id="path9333"
             sodipodi:nodetypes="cc"
             inkscape:connector-curvature="0" />
          <path
             style="fill:#5ab532;fill-opacity:1;fill-rule:evenodd;stroke:#000000;stroke-width:0.63510776;stroke-linecap:butt;stroke-linejoin:miter;stroke-miterlimit:4;stroke-dasharray:none;stroke-opacity:1"
             d="m 680.27607,431.82887 9.07594,2.47508"
             id="path9335"
             sodipodi:nodetypes="cc"
             inkscape:connector-curvature="0" />
          <path
             style="fill:#5ab532;fill-opacity:1;fill-rule:evenodd;stroke:#000000;stroke-width:0.63510776;stroke-linecap:butt;stroke-linejoin:miter;stroke-miterlimit:4;stroke-dasharray:none;stroke-opacity:1"
             d="m 679.49956,411.69938 14.50407,4.68966"
             id="path9337"
             sodipodi:nodetypes="cc"
             inkscape:connector-curvature="0" />
          <path
             style="fill:#5ab532;fill-opacity:1;fill-rule:evenodd;stroke:#000000;stroke-width:0.63510776;stroke-linecap:butt;stroke-linejoin:miter;stroke-miterlimit:4;stroke-dasharray:none;stroke-opacity:1"
             d="m 679.85291,416.34627 6.00061,-6.13479"
             id="path9339"
             sodipodi:nodetypes="cc"
             inkscape:connector-curvature="0" />
          <path
             style="fill:#5ab532;fill-opacity:1;fill-rule:evenodd;stroke:#000000;stroke-width:0.63510776;stroke-linecap:butt;stroke-linejoin:miter;stroke-miterlimit:4;stroke-dasharray:none;stroke-opacity:1"
             d="m 680.1117,421.08748 9.61181,-9.48242"
             id="path9341"
             sodipodi:nodetypes="cc"
             inkscape:connector-curvature="0" />
          <path
             style="fill:#5ab532;fill-opacity:1;fill-rule:evenodd;stroke:#000000;stroke-width:0.63510776;stroke-linecap:butt;stroke-linejoin:miter;stroke-miterlimit:4;stroke-dasharray:none;stroke-opacity:1"
             d="m 680.11182,426.01758 12.27782,-12.29873"
             id="path9343"
             sodipodi:nodetypes="cc"
             inkscape:connector-curvature="0" />
          <path
             style="fill:#5ab532;fill-opacity:1;fill-rule:evenodd;stroke:#000000;stroke-width:0.63510776;stroke-linecap:butt;stroke-linejoin:miter;stroke-miterlimit:4;stroke-dasharray:none;stroke-opacity:1"
             d="m 680.49988,430.56991 13.86999,-13.72094"
             id="path9345"
             sodipodi:nodetypes="cc"
             inkscape:connector-curvature="0" />
          <path
             style="fill:none;fill-opacity:1;fill-rule:evenodd;stroke:#000000;stroke-width:0.63510776;stroke-linecap:butt;stroke-linejoin:miter;stroke-miterlimit:4;stroke-dasharray:none;stroke-opacity:1"
             d="m 680.91782,436.13964 15.08872,-14.79291"
             id="path9347"
             sodipodi:nodetypes="cc"
             inkscape:connector-curvature="0" />
          <path
             style="fill:none;fill-opacity:1;fill-rule:evenodd;stroke:#000000;stroke-width:0.63510776;stroke-linecap:butt;stroke-linejoin:miter;stroke-miterlimit:4;stroke-dasharray:none;stroke-opacity:1"
             d="m 686.5003,435.49982 9.03517,-8.55272"
             id="path9349"
             sodipodi:nodetypes="cc"
             inkscape:connector-curvature="0" />
        </g>
      </g>
      <g
         transform="matrix(-1.0336364,0,0,1.0411997,598.53573,-17.867017)"
         id="g13064"
         style="stroke-width:1.30816698">
        <rect
           style="fill:#009645;fill-opacity:1;fill-rule:nonzero;stroke:#000000;stroke-width:4.25183773;stroke-linecap:round;stroke-linejoin:round;stroke-miterlimit:4;stroke-dasharray:none;stroke-opacity:1"
           id="rect13066"
           width="182.5399"
           height="103.66347"
           x="-213.48553"
           y="634.31311"
           transform="matrix(-0.890306,0.455363,0.470115,0.882605,0,0)"
           ry="60.580441"
           rx="69.009956" />
        <g
           style="fill:#5ab532;fill-opacity:1;stroke-width:1.30816698"
           transform="matrix(-3.340865,2.108282,2.292568,3.632892,1703.635,-2406.927)"
           id="g13068">
          <path
             sodipodi:end="1.5761184"
             sodipodi:start="4.7487672"
             transform="matrix(0.80034,-0.05713104,0.05784799,0.652598,98.66268,195.7553)"
             d="m 697.3849,388.02869 a 19.926758,21.220703 0 0 1 19.19768,21.64908 19.926758,21.220703 0 0 1 -20.02847,20.77798 l 0.10605,-21.2204 z"
             sodipodi:ry="21.220703"
             sodipodi:rx="19.926758"
             sodipodi:cy="409.23535"
             sodipodi:cx="696.66016"
             id="path13070"
             style="fill:#009645;fill-opacity:1;fill-rule:nonzero;stroke:#000000;stroke-width:1.42354417;stroke-linecap:round;stroke-linejoin:round;stroke-miterlimit:4;stroke-dasharray:none;stroke-opacity:1"
             sodipodi:type="arc" />
          <path
             sodipodi:nodetypes="cc"
             style="fill:none;fill-opacity:1;fill-rule:evenodd;stroke:#000000;stroke-width:0.63510776;stroke-linecap:butt;stroke-linejoin:miter;stroke-miterlimit:4;stroke-dasharray:none;stroke-opacity:1"
             d="m 680.11876,426.86191 13.08717,4.06102"
             id="path13072"
             inkscape:connector-curvature="0" />
          <path
             sodipodi:nodetypes="cc"
             id="path13074"
             d="m 679.49999,416.69941 16.27462,5.14428"
             style="fill:none;fill-opacity:1;fill-rule:evenodd;stroke:#000000;stroke-width:0.63510776;stroke-linecap:butt;stroke-linejoin:miter;stroke-miterlimit:4;stroke-dasharray:none;stroke-opacity:1"
             inkscape:connector-curvature="0" />
          <path
             sodipodi:nodetypes="cc"
             id="path13076"
             d="m 679.49964,421.69945 15.77636,5"
             style="fill:none;fill-opacity:1;fill-rule:evenodd;stroke:#000000;stroke-width:0.63510776;stroke-linecap:butt;stroke-linejoin:miter;stroke-miterlimit:4;stroke-dasharray:none;stroke-opacity:1"
             inkscape:connector-curvature="0" />
          <path
             sodipodi:nodetypes="cc"
             id="path13078"
             d="m 680.27607,431.82887 9.07594,2.47508"
             style="fill:none;fill-opacity:1;fill-rule:evenodd;stroke:#000000;stroke-width:0.63510776;stroke-linecap:butt;stroke-linejoin:miter;stroke-miterlimit:4;stroke-dasharray:none;stroke-opacity:1"
             inkscape:connector-curvature="0" />
          <path
             sodipodi:nodetypes="cc"
             id="path13080"
             d="m 679.49956,411.69938 14.50407,4.68966"
             style="fill:none;fill-opacity:1;fill-rule:evenodd;stroke:#000000;stroke-width:0.63510776;stroke-linecap:butt;stroke-linejoin:miter;stroke-miterlimit:4;stroke-dasharray:none;stroke-opacity:1"
             inkscape:connector-curvature="0" />
          <path
             sodipodi:nodetypes="cc"
             id="path13082"
             d="m 679.85291,416.34627 6.00061,-6.13479"
             style="fill:none;fill-opacity:1;fill-rule:evenodd;stroke:#000000;stroke-width:0.63510776;stroke-linecap:butt;stroke-linejoin:miter;stroke-miterlimit:4;stroke-dasharray:none;stroke-opacity:1"
             inkscape:connector-curvature="0" />
          <path
             sodipodi:nodetypes="cc"
             id="path13084"
             d="m 680.1117,421.08748 9.61181,-9.48242"
             style="fill:none;fill-opacity:1;fill-rule:evenodd;stroke:#000000;stroke-width:0.63510776;stroke-linecap:butt;stroke-linejoin:miter;stroke-miterlimit:4;stroke-dasharray:none;stroke-opacity:1"
             inkscape:connector-curvature="0" />
          <path
             sodipodi:nodetypes="cc"
             id="path13086"
             d="m 680.11182,426.01758 12.27782,-12.29873"
             style="fill:none;fill-opacity:1;fill-rule:evenodd;stroke:#000000;stroke-width:0.63510776;stroke-linecap:butt;stroke-linejoin:miter;stroke-miterlimit:4;stroke-dasharray:none;stroke-opacity:1"
             inkscape:connector-curvature="0" />
          <path
             sodipodi:nodetypes="cc"
             id="path13088"
             d="m 680.49988,430.56991 13.86999,-13.72094"
             style="fill:none;fill-opacity:1;fill-rule:evenodd;stroke:#000000;stroke-width:0.63510776;stroke-linecap:butt;stroke-linejoin:miter;stroke-miterlimit:4;stroke-dasharray:none;stroke-opacity:1"
             inkscape:connector-curvature="0" />
          <path
             sodipodi:nodetypes="cc"
             id="path13090"
             d="m 680.91782,436.13964 15.08872,-14.79291"
             style="fill:none;fill-opacity:1;fill-rule:evenodd;stroke:#000000;stroke-width:0.63510776;stroke-linecap:butt;stroke-linejoin:miter;stroke-miterlimit:4;stroke-dasharray:none;stroke-opacity:1"
             inkscape:connector-curvature="0" />
          <path
             sodipodi:nodetypes="cc"
             id="path13092"
             d="m 686.5003,435.49982 9.03517,-8.55272"
             style="fill:none;fill-opacity:1;fill-rule:evenodd;stroke:#000000;stroke-width:0.63510776;stroke-linecap:butt;stroke-linejoin:miter;stroke-miterlimit:4;stroke-dasharray:none;stroke-opacity:1"
             inkscape:connector-curvature="0" />
        </g>
      </g>
    </g>
    <g
       style="display:inline;stroke-width:1.35710704"
       inkscape:label="Contour final"
       id="layer4" />
  </g>
</svg>
