<?xml version="1.0" encoding="UTF-8"?>
<svg width="622.24" height="717.23" version="1.1" xmlns="http://www.w3.org/2000/svg">
 <path d="m6.21 6h609.82l-14.755 429.83c-14.754 162.29-127.87 275.4-290.16 275.4s-275.4-113.11-290.16-275.4z" fill="#0093dd" stroke="#000" stroke-miterlimit="7.5" stroke-width="12"/>
 <path d="M536.94 73.556c.928 4.195 1.258 8.826-.384 12.89-1.64 4.94-5.682 8.772-10.518 10.564-2.353.886-7.233 2.152-7.233 2.152 2.272 2.951 2.817 4.088 1.826 5.888-4.732 6.31-9.699 11.774-15.033 18.072l9.058 8.47s-3.735 4.344-5.764 6.791c-3.46 4.058-6.94 8.09-10.393 12.147-.933 1.161-3.786 4.22-3.786 4.22l3.653 3.348c6.844-7.588 13.986-16.554 19.86-22.913 17.576 14.69 37.163 32.608 57.816 51.39 4.287 4.187 8.017 7.173 12.217 10.933 0 0-3.688 4.616-5.127 6.317-3.76 4.221-7.31 8.623-11.039 12.872-4.056 4.595-7.89 9.386-11.902 14.018-.604.667-2.564 2.6-2.564 2.6-7.683-6.588-14.407-12.4-21.467-19.707 0 0 5.869-7.02 9.038-11.327.618-.922 3.074-3.416 3.074-3.416l-4.69-3.898s-5.778 6.647-7.59 8.805c-2.873 3.77-8.242 10.084-8.242 10.084l25.907 23.444s-4.1 5.287-5.715 7.055c-2.548 2.785-4.956 5.702-7.44 8.543-2.387 2.705-4.31 5.543-7.192 7.776-15.425-13.249-43.3-37.857-43.3-37.857s4.142-4.614 6.26-7.208c4.482-5.273 8.965-10.538 13.51-15.755.65-.859 2.44-2.714 2.44-2.714l-3.287-2.784c-8.04 9.432-14.114 16.684-21.838 25.385 0 0-5.047-4.338-7.796-6.595-1.881-1.569-7.016-6.062-7.016-6.062-1.127 1.28-2.49 2.58-3.3 4.063 2.76 2.46 6.362 5.28 8.921 7.97 1.411 1.538 5.328 5.105 5.328 5.105-7.446 8.916-14.277 16.68-22.034 25.347l3.533 3.043s2.89-3.12 3.86-4.237c4.803-5.822 9.824-11.462 14.695-17.232.947-1.018 3.3-3.686 3.3-3.686 6.337 5.33 11.658 9.653 17.073 14.448 7.303 6.43 13.667 11.92 20.297 17.576 2.158 1.781 5.953 5.829 5.953 5.829-7.098 8.517-14.582 17.702-21.446 25.427-3.363-2.634-6.52-5.537-9.637-8.45-6.858-5.429-11.703-10.642-18.303-15.695 0 0-1.61 1.74-2.321 2.453-5.498 5.987-8.938 11.404-14.369 16.813l3.798 2.997s5.313-5.7 7.832-8.566c1.39-1.557 4.673-5.519 4.673-5.519s3.315 2.713 4.573 3.729c4.9 4.473 10.199 8.424 14.776 13.173 1.415 1.404 4.627 4.164 4.627 4.164s-18.587 22.69-26.494 31.837c-11.374-8.717-33.24-28.677-33.24-28.677s-21.615-18.6-32.768-28.822c-1.645-1.678-3.493-3.156-5.195-4.782 4.915-6.017 10.06-11.825 15.086-17.753.647-.835 2.522-2.97 2.522-2.97l-3.112-2.958s-1.774 2.078-2.666 3.162c-3.75 4.44-7.586 8.814-11.38 13.218-.953 1.07-3.76 4.112-3.76 4.112-3.038-2.055-9.695-8.436-9.695-8.436-8.825 9.524-17.538 20.357-25.257 29.217-21.19 24.376-57.12 66.044-57.12 66.044L294.68 368.45s-30.555 36.064-45.3 53.055a2430.16 2430.16 0 0 0-5.347 6.535c4.257 3.476 12.005 10.848 12.005 10.848s-7.465 2.355-11.44 3.562c-5.026 1.513-10.01 3.152-15.04 4.642-1.21.327-2.811.902-4.905 1.52 3.252.52 5.965 1.696 8.197 2.349 2.712.737 5.308 2.355 7.768 3.719 5.653 3.605 11.14 7.96 15.675 12.168 2.282 2.093 3.77 4.628 5.767 6.96 2.821 3.28 4.353 7 6.582 10.834 2.93 4.869 4.416 10.888 5.863 16.358 1.431 5.278 1.496 10.5 1.402 15.93-.06 4.11-.797 8.131-1.572 12.176-1.344 6.187-3.937 12.29-6.711 17.958-3.72 7.097-8.795 13.424-14.486 19.036-4.102 3.787-8.336 7.46-13.305 10.043-2.201 1.129-4.249 2.482-6.351 3.77-2.056 1.24-4.23 2.162-6.444 3.08-3.282 1.326-6.306 2.835-9.806 3.575-2.996.622-5.79 1.718-8.855 2.051-6.59.871-13.257 1.715-19.914 1.68-3.623.108-7.194.143-10.786-.423-4.284-.669-8.323-.77-12.44-1.859-5.03-1.476-10.158-2.392-15.084-4.244-6.232-1.805-12.01-4.61-17.924-7.23-4.386-2.17-8.626-4.65-12.913-7.01-6.822-3.607-12.626-9.587-18.61-14.555-7.129-6.22-14.079-12.895-18.826-20.335-1.716-2.687-3.99-4.884-5.635-7.597-1.19-1.963-2.06-4.03-3.184-6.078-2.588-4.688-5.293-9.314-7.953-13.963-1.796-3.122-2.257-6.42-3.527-9.73-1.31-3.43-2.433-6.918-3.593-10.4-1.15-3.472-1.471-6.955-2.309-10.501-.704-3.03-1.149-6.122-1.503-9.211-.25-3.205-.059-6.446-.159-9.659-.144-4.392.159-8.741.557-13.114.564-6.093 2.585-12.121 4.184-18.034.982-3.613 2.723-6.556 4.245-9.997 1.837-4.047 4.389-7.3 6.889-10.976 3.116-3.991 6.103-8.908 10.093-12.051 3.595-2.95 7.398-5.62 11.044-8.507 3.289-2.578 6.951-3.695 10.674-5.417 5.158-2.472 11.074-3.679 16.738-4.228 3.967-.533 8.118-.561 12.061.194 7.068.08 11.82 2.704 17.612 4.835 2.88 1.054 5.612 2.39 8.275 3.91 3.922 2.263 7.84 4.33 11.222 7.397 5.665 4.558 10.597 9.914 14.335 16.17 1.446 2.418 2.32 4.108 3.974 7.214 1.754-5.903 2.687-11.691 4.386-17.227 1.24-3.943 3.133-12.694 3.133-12.694s1.648 1.376 2.421 2.051c2.595 2.162 8.866 7.729 8.866 7.729s1.962-1.954 2.81-2.951c22.378-26.925 46.92-55.576 68.339-80.4.01-.011.012-.023.02-.034 9.648-11.786 20.386-23.99 29.406-34.292 0-.005-.002-.01-.001-.015l6.565-7.66c.065.054.11.123.175.175 10.112-11.148 20.452-23.957 29.432-34.036 27.435-30.764 55.934-65.25 79.33-92.68a3984.37 3984.37 0 0 1 17.764-20.147c10.23-11.697 20.274-23.568 30.437-35.324 5.59-6.552 7.213-7.858 10.67-11.942 1.315-1.484 2.807-3.326 4.959-3.404 2.015.015 3.751 1.347 6.805 3.528.246-2.586.588-5.38 1.045-7.302 1.534-5.116 5.033-11.698 9.856-13.172 20.649-5.861 32.298 5.555 34.599 18.456zM148.297 421.753c-3.519-2.97-7.468-5.43-11.884-7.097a2.843 2.843 0 0 0-.18-.062c-2.409-.735-4.966-1.386-7.548-1.785a2.92 2.92 0 0 0-.202-.025c-4.205-.353-8.341.258-12.137 1.037l-.015.003c-4.539.956-8.104 3.22-11.459 5.383l-.057.037c-1.859 1.262-3.928 2.582-5.877 4.279a2.827 2.827 0 0 0-.063.056c-2.915 2.69-4.748 6.082-6.457 8.766-1.596 2.508-2.51 5.212-3.025 7.955l-.002.01c-.422 2.294-1.384 4.93-1.682 8.051a3.281 3.281 0 0 0-.007.094c-.4 6.344.202 12.648 1.55 18.786l.01.053c1.07 4.472 3.16 8.588 4.967 12.27 2.19 4.548 5.012 8.998 8.61 12.765.051.055.106.107.162.157 2.957 2.653 6.027 5.413 9.41 7.862.053.039.108.076.165.111 4.521 2.825 9.37 5.307 14.426 7.186l.004.004c2.102.819 4.373 1.831 7.16 2.27l.002.002c1.719.325 3.123.537 4.092.819.07.392.13.929.252 1.596.551 4.284 1.688 8.549 3.94 12.513l.002.001c2.617 4.61 5.87 8.835 9.485 12.619.04.042.082.083.124.122 4.759 4.42 9.843 8.55 15.866 11.655 5.027 2.723 10.418 4.567 16.013 5.568l.042.007c3.653.6 7.349.413 10.864-.202.369.197.776.313 1.193.339 3.3-.187 6.538-.701 9.709-1.441 3.76-.818 7.081-2.547 10.045-4.077 4.175-2.151 7.616-5.22 10.648-8.321 3.94-3.886 5.558-9.166 6.848-13.516 1.19-3.87 1.325-7.724 1.127-11.44a2.04 2.04 0 0 0-.004-.05c-.245-3.485-1.135-6.651-1.649-9.525l-.003-.019c-.772-4.158-3.123-7.028-4.69-9.629-.003-.002-.004-.007-.006-.01-1.747-2.872-3.901-5.474-6.33-7.75-.023-.02-.043-.043-.066-.062-2.316-2.04-4.743-3.631-6.832-5.263l-.013-.011c-2.537-1.959-5.305-2.86-7.678-3.718l-.022-.008c-3.356-1.18-6.222-1.146-8.792-1.635l.042.009c-3.903-.803-7.826-.433-11.212-.119a2.99 2.99 0 0 0-.147.017c-4.466.645-8.546 2.058-12.385 2.989-.062.015.034.046-.199-.065-.232-.112-.678-.43-1.239-.873-4.754-4.217-9.685-8.086-14.24-12.15-.01-.207.057-.766.16-1.53.684-3.304 1.45-6.745 1.517-10.532v-.022c.024-2.38.146-4.788.271-7.242.156-3.013-.333-5.7-.735-8.224a6.852 6.852 0 0 0-.004-.021c-.348-2.085-.886-4.264-1.96-6.382-.001-.001-.003-.003-.002-.006-2.036-4.032-4.409-8.102-8.42-11.277-.484-.444-.979-.879-1.482-1.303z"/>
 <g fill="#fcdb00">
  <path d="M521.382 63.645c-6.328-5.09-17.44-3.213-20.727 4.206-2.262 4.11-.793 7.925-.814 12.249.046 1.907-1.126 3.384-2.634 4.412-3.6 1.843-7.88-4.031-11.494-3.61-2.58.75-7.58 8.019-10.348 11.317-9.506 11.083-19.09 22.113-28.535 33.242-9.48 10.902-18.843 21.897-28.251 32.86-9.225 10.705-18.446 21.406-27.62 32.16-9.161 10.964-18.658 21.646-27.787 32.637-6.998 7.855-13.718 15.948-20.673 23.846-3.808 4.602-7.774 9.07-11.664 13.601-3.375 3.293-6.527 6.783-9.193 10.683-4.673 5.517-9.415 10.963-14.016 16.548-4.09 4.54-7.873 9.345-11.978 13.866-3.844 4.412-7.964 8.616-11.32 12.693-5.668 6.737-11.463 13.346-17.22 20a2023.81 2023.81 0 0 1-13.468 15.734c-2.791 3.19-5.647 6.327-8.312 9.625-1.357 1.772-3.209 3.02-4.496 4.833-2.283 3.366-5.117 6.39-7.765 9.48-5.95 6.935-11.805 13.853-17.781 20.753-1.235 1.541-4.482 5.017-4.482 5.017s9.15 8.156 13.165 11.365c4.536 3.69 13.905 11.8 13.905 11.8s1.753-2.245 2.742-3.37c5.293-6.437 10.905-12.608 16.26-18.993 14.82-17.081 29.387-34.33 44.157-51.455 4.909-5.212 8.965-10.354 13.22-15.345 2.152-2.504 4.25-5.067 6.477-7.506 4.563-4.477 8.517-9.655 12.796-14.437 8.285-9.667 16.568-19.287 24.8-28.994 2.71-3.291 5.69-6.29 8.089-9.835 6.093-7.377 12.414-14.578 18.614-21.87 38.765-44.68 79.47-92.189 116.1-135.61 2.823-3.337 5.927-6.583 8.354-10.167.517-.791 1.303-1.693 1.212-2.695-.259-2.623-3.644-4.853-2.206-7.784.193-1.578 2.186-3.89 3.756-4.238 1.861-.347 3.948.375 5.84.453 3.899.381 7.81-1.83 9.605-5.292 1.23-2.29 1.427-4.733 1.361-7.277-.091-2.312-.232-4.579-1.257-6.698-1.6-3.22-3.483-6.342-6.411-8.204zM499.433 129.772s-9.718 11.447-13.3 15.728c-7.912 9.144-15.742 18.352-23.668 27.484-12.553 14.892-25.306 29.576-37.892 44.435-7.298 8.435-14.64 16.833-21.852 25.335-1.145 1.438-3.821 4.53-3.821 4.53l5.096 4.957s3.476-4.18 5.34-6.304c3.44-4.1 6.921-8.17 10.428-12.21.888-.97 2.2-2.62 2.2-2.62s5.587 4.833 7.766 6.576c2.211 1.784 5.907 5.13 5.907 5.13s-10.62 12.977-15.668 19.048c-.775.955-2.292 2.49-2.292 2.49s11.078 9.631 16.198 14.094c2.84 2.267 5.166 5.048 7.966 7.361 7.522 6.416 14.934 12.961 22.441 19.395 3.699 3.704 12.185 11.002 12.185 11.002s8.296-9.267 11.25-13.633c2.068-2.425 5.705-6.798 5.705-6.798s-8.498-7.65-12.821-11.25c-4.044 4.016-8.169 8.94-11.897 13.662 0 0-3.22-2.642-4.502-3.753-2.66-2.39-9.268-8.067-9.268-8.067 3.048-4.094 6.889-8.141 9.598-11.73 5.328-6.686 10.234-12.9 15.357-18.638 0 0 4.873 3.915 6.489 5.338 7.432 6.513 13.305 11.425 20.49 17.704 0 0 5.39-5.803 8.133-8.917 1.076-1.298 4.08-4.737 4.08-4.737s-6.473-5.664-8.798-7.73c-5.027-5.16-10.977-9.933-15.968-14.288-2.1-1.776-7.63-6.67-7.63-6.67s-.719.885-1.432 1.725c-6.481 7.547-20.346 23.344-20.346 23.344s-1.7-1.394-2.67-2.535c-2.92-3.39-6.686-6.016-10.015-9.044 6.762-8.265 12.76-15.698 18.543-22.358.877-1.01 2.905-3.324 2.905-3.324s-4.123-3.608-5.812-5.415c-2.5-2.534-8.672-7.973-8.672-7.973s2.041-2.524 2.918-3.677c2.563-2.984 4.983-6.126 7.669-8.999.73-.968 1.172-1.45 1.172-1.45s6.228 5.504 8.424 7.393c2.204 1.888 4.349 3.851 6.567 5.721 2.28-1.842 4.071-4.091 5.958-6.314 4.853-5.717 9.104-10.986 13.426-16.403.991-1.185 3.17-3.468 3.17-3.468 5.03 4.578 8.728 7.294 12.885 11.59 0 0-4.535 5.269-6.627 8.042-3.69 5.225-8.26 9.789-12.126 14.887-1.134 1.547-3.512 4.086-3.512 4.086s6.186 5.532 8.68 8.036c7.684 6.604 15.339 13.264 23.004 19.89 2.57-1.885 4.16-4.369 6.294-6.684 1.318-1.538 2.795-3.008 3.921-4.692.706-1.163 1.662-1.9 1.662-1.9s-5.625-4.753-7.265-6.538c-4.772-4.95-17.224-15.687-17.224-15.687 2.08-2.978 5.475-6.8 7.992-9.695 5.742-7.354 11.843-13.452 17.175-19.597 0 0 9.577 8.38 14.288 12.754-4.15 5.217-12.698 14.856-12.698 14.856l10.303 9.333s1.576-1.689 2.436-2.72c4.429-5.218 8.882-10.421 13.303-15.652 1.536-1.792 5.467-6.899 5.467-6.899-16.3-15.013-33.9-29.696-50.72-45.238-2.461-1.988-4.489-3.663-7.029-5.713 0 0-3.077 3.454-4.47 5.188-3.31 3.993-10.048 11.904-10.048 11.904l-5.943 6.333c-4.89-3.635-9.534-8.606-13.586-12.377 1.828-2.415 3.926-4.624 5.635-7.118 2.21-3.223 5.064-6.001 7.527-9.064 1.666-2.095 6.347-7.448 6.347-7.448zM210.41 413.228c-4.796-3.643-5.986-4.919-12.541-10.75-1.115 3.103-1.424 6.287-2.232 9.459-1.64 6.219-2.29 12.523-3.614 18.851-.54 5.633-1.59 11.444-.39 16.608 0 0 6.9-.86 10.123-1.089 5.46-.356 10.146-2.29 15.42-3.825 7.237-1.336 20.153-6.14 20.153-6.14s-6.602-5.633-9.378-8.105c-5.78-5.09-11.77-9.907-17.54-15.009z"/>
  <path d="M163.95 400.733c2.456 2.056 4.339 4.527 6.453 6.91 2.127 2.418 3.315 5.13 5.006 7.833 1.347 2.178 2.58 4.407 3.577 6.769 1.227 2.868 2.643 5.95 3.171 9.033.415 2.657 1.255 5.201 1.552 7.88.642 5.26.303 10.925.18 16.155 3.318.784 6.222-.195 9.502-.467 4.588-.33 8.864.407 13.386.4 5.195.345 10.394 1.451 15.349 3.024 3.19 1.251 6.3 2.689 9.5 3.912 3.207 1.166 6.048 3.05 8.66 5.22 6.223 3.817 9.52 8.428 14.024 13.328 2.247 2.38 3.422 5.186 4.861 8.088 2.61 5.04 4.794 10.628 5.427 16.302.743 4.706.934 9.579.356 14.313-.655 3.725-1.124 7.522-2.167 11.12-1.18 4.106-2.646 8.147-4.463 12.019-1.538 3.285-4.147 5.577-6.021 8.66-3.693 4.881-8.53 8.975-13.176 12.927-4.756 4.044-10.133 7.103-15.704 9.854-2.01.976-4.116 1.64-6.223 2.353-2.683.901-5.097 2.096-7.9 2.645-4.053.9-8.163.933-12.243 1.61-2.852.404-5.732.746-8.602 1.003-4.104.316-8.04-.347-12.1-.786-7.387-.804-14.57-2.426-21.744-4.312-2.88-.78-5.738-1.897-8.513-3.01-4.08-1.63-7.766-3.982-11.81-5.712-3.705-1.562-7.207-3.527-10.59-5.689-2.642-2.236-5.353-3.989-8.066-5.716-4.501-3.25-8.8-6.976-12.78-10.22-1.35-1.053-2.35-2.375-3.568-3.567-2.67-2.58-4.36-5.755-6.877-8.5-4.638-5.186-8.06-10.855-12.08-16.546-2.284-3.682-4.428-7.492-6.14-11.48-.843-1.999-2.272-3.726-2.714-5.78-.639-4.877-3.701-9.096-4.461-13.396-.327-1.986-.439-3.955-1.062-5.885-1.616-5.113-2.774-10.479-3.093-15.84-.206-3.892-.82-7.46-.392-11.354.41-3.359.002-6.711.5-10.056 1.007-4.348 1.263-8.926 2.546-12.873 1.139-3.559 3.234-7.017 4.827-10.41 1.328-2.838 2.634-5.758 4.4-8.413 1.645-2.338 3.744-4.236 5.269-6.689 1.182-2.002 2.96-3.25 4.52-4.904 2.014-2.213 4.509-4.089 6.802-6.019 2.569-2.215 5.484-3.656 8.504-5.391 4.87-2.78 10.306-3.462 15.706-4.486 2.713-.51 5.193-.146 7.956-.278 2.522-.128 4.908.28 7.398.64 2.765.429 5.457.806 8.109 1.751 4.325 1.548 8.516 2.932 12.452 5.368 4.47 2.392 8.648 5.371 12.495 8.663zm-16.308 21.89c-3.452-2.92-7.312-5.326-11.621-6.954a1.8 1.8 0 0 0-.113-.038c-2.376-.726-4.888-1.364-7.401-1.753a1.778 1.778 0 0 0-.13-.014c-4.04-.34-8.082.248-11.834 1.018l-.009.002c-4.314.909-7.755 3.078-11.101 5.236a1.918 1.918 0 0 0-.036.023c-1.874 1.271-3.905 2.573-5.776 4.202a1.686 1.686 0 0 0-.04.035c-2.739 2.526-4.55 5.833-6.283 8.554-1.51 2.373-2.379 4.935-2.875 7.58v.007c-.445 2.41-1.39 5.017-1.671 7.96l-.004.06c-.393 6.233.197 12.437 1.526 18.49l.007.034c1.031 4.312 3.086 8.375 4.896 12.068 2.152 4.465 4.918 8.82 8.414 12.481.033.035.068.068.104.1 2.956 2.652 6.001 5.386 9.323 7.79.034.025.069.049.105.071 4.471 2.794 9.259 5.244 14.239 7.094 2.132.83 4.33 1.805 6.956 2.218 1.873.355 3.641.544 4.805 1.022.011.047.06.097.14.482.103.497.16 1.14.288 1.818l.01.068c.543 4.169 1.645 8.268 3.802 12.063 2.567 4.524 5.767 8.683 9.33 12.411.025.027.052.052.08.077 4.726 4.391 9.737 8.456 15.641 11.498 4.926 2.668 10.21 4.477 15.7 5.459l.027.004c4.22.71 7.248.856 11.825.124 3.234-.183 6.413-.687 9.538-1.417 7.889-2.012 14.921-6.772 20.175-12.115 3.69-3.638 5.297-8.744 6.58-13.073l.002-.004c1.136-3.7 1.274-7.418 1.08-11.068a.957.957 0 0 0-.003-.031c-.235-3.341-1.11-6.473-1.634-9.413l-.003-.012c-.713-3.842-2.943-6.596-4.555-9.273-.002-.002-.002-.006-.003-.008-1.693-2.783-3.786-5.313-6.148-7.527a.32.32 0 0 1-.042-.04c-2.241-1.974-4.65-3.555-6.784-5.223l-.008-.007c-2.357-1.82-5.005-2.698-7.388-3.559-.006 0-.01-.004-.015-.006-3.153-1.108-5.948-1.081-8.638-1.593l.027.006c-3.692-.76-7.522-.416-10.9-.102a1.777 1.777 0 0 0-.094.011c-4.338.627-8.393 2.026-12.301 2.973-.324.074-.512.04-.894-.143-.38-.182-.875-.551-1.44-.998-4.746-4.213-9.706-8.097-14.32-12.216l-.067-.058c-.234-.19-.231-.21-.257-.597-.026-.38.068-1.034.174-1.802.687-3.329 1.44-6.72 1.504-10.391v-.014c.025-2.41.148-4.833.273-7.288.148-2.861-.318-5.468-.722-8.001 0-.005-.002-.01-.003-.014-.339-2.028-.856-4.096-1.862-6.08-2.017-3.993-4.31-7.902-8.138-10.93a47.93 47.93 0 0 0-1.454-1.281z"/>
 </g>
 <path d="M154.487 419.237c1.533 1.22 2.984 2.54 4.289 4.104 1.748 2.137 3.666 4.451 4.747 6.997.86 2.022 1.729 4.056 2.371 6.158.788 2.512.942 4.945 1.485 7.569 1.093 5.571.404 11.153-.287 16.714-.184 1.785-.185 5.537-.185 5.537l10.454 8.546s4.535-1.332 6.427-1.578c3.553-.497 7.085-1.26 10.594-1.243 4.88-.061 9.821 1.215 14.498 2.47 2.915.817 5.27 2.586 8.132 3.886 4.29 2.008 8.021 4.69 11.31 8.099 1.626 1.765 3.417 3.258 4.733 5.298 2.603 3.992 5.098 7.936 6.278 12.602.843 3.49 1.988 6.598 1.954 10.192-.022 2.11.144 4.218.123 6.327-.053 3.181-1.005 6.124-1.83 9.164a43.739 43.739 0 0 1-3.304 8.435c-.98 1.903-2.415 3.376-3.797 4.996-1.698 1.938-3.239 3.843-5.295 5.425-4.42 3.34-9.12 6.253-14.247 8.385-2.023.797-4.14 1.37-6.223 1.999-2.852.837-5.593.901-8.527 1.184-1.996.157-3.985.45-5.98.526-2.875.142-5.496-.709-8.414-.865-2.197-.115-4.335-.421-6.442-1.068-6.23-1.648-12.224-4.18-17.902-7.203-5.649-3.427-11.225-7.605-15.388-12.774-3.448-3.725-6.04-7.655-8.186-11.792-2.31-3.944-3.25-5.66-4.437-11.413-8.327-2.62-15.105-5.934-23.385-11.187-5.3-3.525-6.382-5.495-10.085-8.687-5.956-6.73-10.226-15.154-13.33-23.547-2-5.926-4.225-12.015-4.012-18.365.142-3.619.112-7.311.994-10.78.893-3.67 1.807-7.458 3.376-10.909 3.183-5.647 7.002-10.891 11.596-15.484 1.142-1 2.522-1.777 3.83-2.543 3.965-2.216 7.528-4.621 11.941-5.92 4.334-1.242 8.604-2.93 13.158-2.041 4.39.474 8.646 1.088 12.738 2.865 4.137 1.622 8.09 3.416 11.446 6.404 1.634 1.174 3.25 2.296 4.783 3.517zm-7.956 4.864c-3.335-2.833-7.044-5.142-11.165-6.699-2.316-.707-4.748-1.322-7.142-1.692-3.755-.316-7.632.233-11.305.987-3.922.826-7.148 2.832-10.477 4.979-1.898 1.288-3.865 2.555-5.6 4.065-2.43 2.241-4.2 5.4-5.974 8.186-1.359 2.136-2.153 4.452-2.617 6.926-.48 2.61-1.397 5.169-1.648 7.8-.38 6.04.19 12.068 1.487 17.975.96 4.018 2.942 7.981 4.757 11.683 2.087 4.333 4.762 8.53 8.09 12.015 2.957 2.652 5.956 5.34 9.172 7.669 4.38 2.736 9.06 5.128 13.902 6.927 4.007 1.744 6.429 2.473 11.651 2.87 1.012 6.35 2.786 11.072 5.32 15.627 2.48 4.372 5.588 8.412 9.057 12.043 4.67 4.338 9.55 8.285 15.24 11.214 4.752 2.578 9.85 4.323 15.165 5.274 6.798 1.31 14.449.162 20.657-1.272 3.26-.706 6.384-2.295 9.343-3.822 3.756-1.936 6.99-4.791 9.926-7.796 3.254-3.204 4.842-8.01 6.115-12.303 1.048-3.408 1.19-6.89 1.001-10.426-.218-3.09-1.065-6.161-1.61-9.216-.611-3.29-2.628-5.844-4.321-8.654-1.599-2.63-3.584-5.032-5.83-7.137-2.111-1.859-4.486-3.423-6.7-5.154-2.043-1.576-4.483-2.415-6.885-3.282-2.798-.984-5.465-.969-8.367-1.52-3.323-.683-6.991-.385-10.355-.072-4.113.593-8.123 1.971-12.153 2.946-1.556.354-2.769-.599-3.914-1.506-4.708-4.185-9.696-8.086-14.391-12.278-1.311-1.062-.95-2.67-.751-4.125.695-3.374 1.423-6.677 1.484-10.142.024-2.46.15-4.909.275-7.364.134-2.596-.296-5.061-.703-7.612-.322-1.926-.8-3.8-1.686-5.546-1.982-3.926-4.135-7.552-7.642-10.322-.461-.425-.93-.841-1.406-1.246z"/>
 <path d="M85.305 73.556c-.928 4.195-1.258 8.826.384 12.89 1.64 4.94 5.682 8.772 10.518 10.564 2.354.886 7.233 2.152 7.233 2.152-2.272 2.951-2.817 4.088-1.826 5.888 4.733 6.31 9.699 11.774 15.033 18.072l-9.058 8.47s3.735 4.344 5.765 6.791c3.459 4.058 6.94 8.09 10.392 12.147.933 1.161 3.786 4.22 3.786 4.22l-3.653 3.348c-6.844-7.588-13.985-16.554-19.86-22.913-17.576 14.69-37.162 32.608-57.816 51.39-4.287 4.187-8.017 7.173-12.217 10.933 0 0 3.688 4.616 5.127 6.317 3.76 4.221 7.31 8.623 11.039 12.872 4.056 4.595 7.89 9.386 11.902 14.018.604.667 2.564 2.6 2.564 2.6 7.684-6.588 14.407-12.4 21.468-19.707 0 0-5.87-7.02-9.04-11.327-.616-.922-3.073-3.416-3.073-3.416l4.69-3.898s5.778 6.647 7.59 8.805c2.873 3.77 8.242 10.084 8.242 10.084L68.588 237.3s4.1 5.287 5.715 7.055c2.549 2.785 4.956 5.702 7.44 8.543 2.388 2.705 4.31 5.543 7.192 7.776 15.425-13.249 43.3-37.857 43.3-37.857s-4.142-4.614-6.26-7.208c-4.482-5.273-8.964-10.538-13.51-15.755-.65-.859-2.44-2.714-2.44-2.714l3.287-2.784c8.04 9.432 14.114 16.684 21.838 25.385 0 0 5.047-4.338 7.796-6.595 1.881-1.569 7.016-6.062 7.016-6.062 1.127 1.28 2.49 2.58 3.3 4.063-2.76 2.46-6.362 5.28-8.921 7.97-1.411 1.538-5.328 5.105-5.328 5.105 7.446 8.916 14.278 16.68 22.034 25.347l-3.533 3.043s-2.89-3.12-3.86-4.237c-4.803-5.822-9.824-11.462-14.695-17.232-.947-1.018-3.3-3.686-3.3-3.686-6.337 5.33-11.658 9.653-17.073 14.448a1667.328 1667.328 0 0 1-20.297 17.576c-2.158 1.781-5.953 5.829-5.953 5.829 7.098 8.517 14.582 17.702 21.446 25.427 3.363-2.634 6.52-5.537 9.637-8.45 6.858-5.429 11.704-10.642 18.303-15.695 0 0 1.611 1.74 2.321 2.453 5.499 5.987 8.939 11.404 14.37 16.813l-3.799 2.997s-5.313-5.7-7.832-8.566c-1.39-1.557-4.673-5.519-4.673-5.519s-3.315 2.713-4.573 3.729c-4.9 4.473-10.199 8.424-14.776 13.173-1.414 1.404-4.627 4.164-4.627 4.164s18.587 22.69 26.494 31.837c11.374-8.717 33.24-28.677 33.24-28.677s21.615-18.6 32.768-28.822c1.646-1.678 3.493-3.156 5.195-4.782-4.915-6.017-10.06-11.825-15.086-17.753-.647-.835-2.522-2.97-2.522-2.97l3.112-2.958s1.774 2.078 2.666 3.162c3.75 4.44 7.587 8.814 11.38 13.218.953 1.07 3.76 4.112 3.76 4.112 3.038-2.055 9.695-8.436 9.695-8.436 8.825 9.524 17.538 20.357 25.257 29.217 21.19 24.376 57.12 66.044 57.12 66.044l16.353 19.422s30.555 36.064 45.301 53.055a2430.16 2430.16 0 0 1 5.346 6.535c-4.257 3.476-12.005 10.848-12.005 10.848s7.465 2.355 11.441 3.562c5.025 1.513 10.01 3.152 15.04 4.642 1.21.327 2.81.902 4.905 1.52-3.253.52-5.966 1.696-8.197 2.349-2.713.737-5.309 2.355-7.769 3.719-5.652 3.605-11.14 7.96-15.675 12.168-2.282 2.093-3.77 4.628-5.767 6.96-2.821 3.28-4.353 7-6.582 10.834-2.93 4.869-4.416 10.888-5.862 16.358-1.432 5.278-1.497 10.5-1.403 15.93.06 4.11.797 8.131 1.572 12.176 1.344 6.187 3.938 12.29 6.712 17.958 3.72 7.097 8.794 13.424 14.486 19.036 4.1 3.787 8.335 7.46 13.304 10.043 2.201 1.129 4.249 2.482 6.351 3.77 2.056 1.24 4.23 2.162 6.444 3.08 3.282 1.326 6.306 2.835 9.806 3.575 2.996.622 5.79 1.718 8.855 2.051 6.59.871 13.257 1.715 19.914 1.68 3.623.108 7.195.143 10.786-.423 4.284-.669 8.323-.77 12.44-1.859 5.03-1.476 10.158-2.392 15.084-4.244 6.232-1.805 12.01-4.61 17.924-7.23 4.386-2.17 8.626-4.65 12.913-7.01 6.822-3.607 12.626-9.587 18.61-14.555 7.129-6.22 14.079-12.895 18.826-20.335 1.716-2.687 3.99-4.884 5.635-7.597 1.19-1.963 2.06-4.03 3.184-6.078 2.589-4.688 5.293-9.314 7.953-13.963 1.797-3.122 2.257-6.42 3.527-9.73 1.31-3.43 2.433-6.918 3.594-10.4 1.149-3.472 1.47-6.955 2.308-10.501.704-3.03 1.149-6.122 1.504-9.211.25-3.205.058-6.446.158-9.659.144-4.392-.159-8.741-.557-13.114-.563-6.093-2.585-12.121-4.184-18.034-.982-3.613-2.723-6.556-4.245-9.997-1.837-4.047-4.389-7.3-6.888-10.976-3.117-3.991-6.103-8.908-10.094-12.051-3.594-2.95-7.398-5.62-11.044-8.507-3.289-2.578-6.951-3.695-10.674-5.417-5.158-2.472-11.074-3.679-16.737-4.228-3.968-.533-8.119-.561-12.062.194-7.067.08-11.82 2.704-17.612 4.835-2.88 1.054-5.612 2.39-8.275 3.91-3.922 2.263-7.839 4.33-11.222 7.397-5.665 4.558-10.597 9.914-14.335 16.17-1.446 2.418-2.32 4.108-3.973 7.214-1.755-5.903-2.688-11.691-4.387-17.227-1.24-3.943-3.133-12.694-3.133-12.694s-1.648 1.376-2.421 2.051c-2.595 2.162-8.865 7.729-8.865 7.729s-1.963-1.954-2.81-2.951c-22.379-26.925-46.92-55.576-68.34-80.4-.01-.011-.011-.023-.02-.034-9.648-11.786-20.385-23.99-29.406-34.292 0-.005.002-.01.001-.015l-6.565-7.66c-.065.054-.109.123-.175.175-10.112-11.148-20.452-23.957-29.431-34.036-27.436-30.764-55.935-65.25-79.33-92.68a3984.37 3984.37 0 0 0-17.765-20.147c-10.23-11.697-20.274-23.568-30.437-35.324-5.59-6.552-7.212-7.858-10.67-11.942-1.315-1.484-2.807-3.326-4.959-3.404-2.015.015-3.751 1.347-6.805 3.528-.246-2.586-.588-5.38-1.045-7.302-1.534-5.116-5.033-11.698-9.856-13.172-20.649-5.861-32.298 5.555-34.599 18.456zm388.643 348.197c3.52-2.97 7.468-5.43 11.885-7.097.059-.023.118-.043.179-.062 2.41-.735 4.967-1.386 7.548-1.785a2.92 2.92 0 0 1 .202-.025c4.205-.353 8.341.258 12.137 1.037l.015.003c4.539.956 8.104 3.22 11.459 5.383l.057.037c1.859 1.262 3.929 2.582 5.877 4.279.022.018.043.037.063.056 2.916 2.69 4.749 6.082 6.458 8.766 1.595 2.508 2.51 5.212 3.025 7.955v.01c.423 2.294 1.385 4.93 1.683 8.051.003.031.006.063.007.094.4 6.344-.202 12.648-1.549 18.786a2.492 2.492 0 0 1-.011.053c-1.07 4.472-3.16 8.588-4.967 12.27-2.19 4.548-5.012 8.998-8.61 12.765a3.008 3.008 0 0 1-.162.157c-2.957 2.653-6.027 5.413-9.41 7.862-.053.039-.108.076-.164.111-4.522 2.825-9.37 5.307-14.426 7.186l-.005.004c-2.102.819-4.373 1.831-7.159 2.27l-.003.002c-1.719.325-3.123.537-4.091.819-.072.392-.13.929-.253 1.596-.551 4.284-1.687 8.549-3.94 12.513l-.002.001c-2.616 4.61-5.87 8.835-9.485 12.619a2.86 2.86 0 0 1-.124.122c-4.759 4.42-9.842 8.55-15.866 11.655-5.027 2.723-10.418 4.567-16.013 5.568a1.601 1.601 0 0 1-.042.007c-3.653.6-7.349.413-10.864-.202a2.922 2.922 0 0 1-1.193.339c-3.3-.187-6.538-.701-9.708-1.441-3.762-.818-7.082-2.547-10.046-4.077-4.175-2.151-7.616-5.22-10.648-8.321-3.94-3.886-5.558-9.166-6.848-13.516-1.19-3.87-1.325-7.724-1.126-11.44 0-.017.002-.033.003-.05.245-3.485 1.136-6.651 1.649-9.525l.003-.019c.772-4.158 3.124-7.028 4.69-9.629.003-.002.004-.007.007-.01 1.746-2.872 3.9-5.474 6.33-7.75.022-.02.043-.043.065-.062 2.317-2.04 4.743-3.631 6.832-5.263l.013-.011c2.537-1.959 5.305-2.86 7.678-3.718l.023-.008c3.355-1.18 6.221-1.146 8.791-1.635l-.042.009c3.904-.803 7.826-.433 11.212-.119.05.005.098.01.147.017 4.466.645 8.546 2.058 12.385 2.989.062.015-.034.046.199-.065.232-.112.678-.43 1.24-.873 4.753-4.217 9.684-8.086 14.24-12.15.009-.207-.058-.766-.162-1.53-.683-3.304-1.45-6.745-1.516-10.532v-.022c-.024-2.38-.146-4.788-.271-7.242-.156-3.013.333-5.7.735-8.224l.004-.021c.348-2.085.886-4.264 1.96-6.382.002-.001.003-.003.002-.006 2.036-4.032 4.409-8.102 8.42-11.277.485-.444.979-.879 1.482-1.303z"/>
 <g fill="#fcdb00">
  <path d="M100.863 63.645c6.328-5.09 17.44-3.213 20.727 4.206 2.263 4.11.793 7.925.814 12.249-.046 1.907 1.126 3.384 2.634 4.412 3.6 1.843 7.88-4.031 11.494-3.61 2.58.75 7.58 8.019 10.348 11.317 9.506 11.083 19.09 22.113 28.535 33.242 9.48 10.902 18.843 21.897 28.251 32.86 9.225 10.705 18.446 21.406 27.62 32.16 9.161 10.964 18.658 21.646 27.787 32.637 6.999 7.855 13.718 15.948 20.673 23.846 3.809 4.602 7.774 9.07 11.664 13.601 3.375 3.293 6.527 6.783 9.193 10.683 4.673 5.517 9.415 10.963 14.016 16.548 4.09 4.54 7.873 9.345 11.978 13.866 3.844 4.412 7.964 8.616 11.32 12.693 5.668 6.737 11.463 13.346 17.221 20a2023.81 2023.81 0 0 0 13.467 15.734c2.791 3.19 5.647 6.327 8.313 9.625 1.356 1.772 3.208 3.02 4.495 4.833 2.283 3.366 5.117 6.39 7.765 9.48 5.95 6.935 11.805 13.853 17.781 20.753 1.235 1.541 4.483 5.017 4.483 5.017s-9.152 8.156-13.166 11.365c-4.536 3.69-13.905 11.8-13.905 11.8s-1.752-2.245-2.741-3.37c-5.294-6.437-10.906-12.608-16.26-18.993-14.82-17.081-29.387-34.33-44.158-51.455-4.909-5.212-8.965-10.354-13.22-15.345-2.152-2.504-4.25-5.067-6.477-7.506-4.563-4.477-8.517-9.655-12.796-14.437-8.285-9.667-16.568-19.287-24.8-28.994-2.71-3.291-5.69-6.29-8.089-9.835-6.093-7.377-12.414-14.578-18.614-21.87-38.764-44.68-79.47-92.189-116.1-135.61-2.823-3.337-5.927-6.583-8.354-10.167-.517-.791-1.302-1.693-1.212-2.695.259-2.623 3.644-4.853 2.206-7.784-.193-1.578-2.186-3.89-3.756-4.238-1.86-.347-3.947.375-5.84.453-3.898.381-7.81-1.83-9.605-5.292-1.23-2.29-1.426-4.733-1.36-7.277.09-2.312.231-4.579 1.256-6.698 1.6-3.22 3.483-6.342 6.412-8.204zM122.812 129.772s9.718 11.447 13.3 15.728c7.912 9.144 15.742 18.352 23.668 27.484 12.553 14.892 25.306 29.576 37.893 44.435 7.298 8.435 14.638 16.833 21.851 25.335 1.145 1.438 3.821 4.53 3.821 4.53l-5.096 4.957s-3.476-4.18-5.34-6.304c-3.44-4.1-6.921-8.17-10.428-12.21-.888-.97-2.2-2.62-2.2-2.62s-5.587 4.833-7.765 6.576c-2.212 1.784-5.907 5.13-5.907 5.13s10.62 12.977 15.668 19.048c.775.955 2.29 2.49 2.29 2.49s-11.077 9.631-16.197 14.094c-2.84 2.267-5.166 5.048-7.966 7.361-7.522 6.416-14.934 12.961-22.44 19.395-3.7 3.704-12.186 11.002-12.186 11.002s-8.296-9.267-11.25-13.633c-2.067-2.425-5.704-6.798-5.704-6.798s8.497-7.65 12.82-11.25c4.044 4.016 8.169 8.94 11.898 13.662 0 0 3.22-2.642 4.501-3.753 2.66-2.39 9.268-8.067 9.268-8.067-3.048-4.094-6.889-8.141-9.598-11.73-5.328-6.686-10.234-12.9-15.357-18.638 0 0-4.873 3.915-6.489 5.338-7.432 6.513-13.305 11.425-20.49 17.704 0 0-5.39-5.803-8.133-8.917-1.076-1.298-4.08-4.737-4.08-4.737s6.473-5.664 8.798-7.73c5.027-5.16 10.977-9.933 15.968-14.288 2.1-1.776 7.63-6.67 7.63-6.67s.719.885 1.432 1.725c6.481 7.547 20.346 23.344 20.346 23.344s1.7-1.394 2.67-2.535c2.92-3.39 6.686-6.016 10.015-9.044-6.762-8.265-12.76-15.698-18.543-22.358-.877-1.01-2.905-3.324-2.905-3.324s4.124-3.608 5.813-5.415c2.5-2.534 8.671-7.973 8.671-7.973s-2.04-2.524-2.918-3.677c-2.563-2.984-4.983-6.126-7.668-8.999-.731-.968-1.173-1.45-1.173-1.45s-6.228 5.504-8.424 7.393c-2.203 1.888-4.349 3.851-6.567 5.721-2.28-1.842-4.071-4.091-5.958-6.314-4.853-5.717-9.104-10.986-13.426-16.403-.991-1.185-3.17-3.468-3.17-3.468-5.03 4.578-8.728 7.294-12.885 11.59 0 0 4.535 5.269 6.627 8.042 3.69 5.225 8.26 9.789 12.126 14.887 1.134 1.547 3.513 4.086 3.513 4.086s-6.187 5.532-8.682 8.036c-7.683 6.604-15.338 13.264-23.003 19.89-2.57-1.885-4.16-4.369-6.294-6.684-1.318-1.538-2.795-3.008-3.921-4.692-.706-1.163-1.662-1.9-1.662-1.9s5.625-4.753 7.265-6.538c4.773-4.95 17.224-15.687 17.224-15.687-2.08-2.978-5.475-6.8-7.991-9.695-5.742-7.354-11.844-13.452-17.176-19.597 0 0-9.577 8.38-14.288 12.754 4.15 5.217 12.699 14.856 12.699 14.856L67.003 222.6s-1.576-1.689-2.436-2.72c-4.428-5.218-8.882-10.421-13.303-15.652-1.536-1.792-5.467-6.899-5.467-6.899 16.3-15.013 33.901-29.696 50.721-45.238 2.46-1.988 4.488-3.663 7.028-5.713 0 0 3.077 3.454 4.47 5.188 3.311 3.993 10.048 11.904 10.048 11.904l5.943 6.333c4.89-3.635 9.534-8.606 13.586-12.377-1.828-2.415-3.926-4.624-5.635-7.118-2.21-3.223-5.064-6.001-7.527-9.064-1.666-2.095-6.347-7.448-6.347-7.448zM411.834 413.228c4.797-3.643 5.987-4.919 12.543-10.75 1.114 3.103 1.423 6.287 2.232 9.459 1.639 6.219 2.29 12.523 3.613 18.851.54 5.633 1.59 11.444.39 16.608 0 0-6.9-.86-10.123-1.089-5.46-.356-10.145-2.29-15.419-3.825-7.238-1.336-20.153-6.14-20.153-6.14s6.601-5.633 9.377-8.105c5.78-5.09 11.77-9.907 17.54-15.009z"/>
  <path d="M458.296 400.733c-2.456 2.056-4.34 4.527-6.454 6.91-2.127 2.418-3.315 5.13-5.006 7.833-1.347 2.178-2.58 4.407-3.577 6.769-1.227 2.868-2.643 5.95-3.171 9.033-.415 2.657-1.255 5.201-1.551 7.88-.642 5.26-.304 10.925-.182 16.155-3.317.784-6.221-.195-9.5-.467-4.589-.33-8.864.407-13.387.4-5.194.345-10.394 1.451-15.349 3.024-3.19 1.251-6.3 2.689-9.5 3.912-3.207 1.166-6.047 3.05-8.66 5.22-6.223 3.817-9.519 8.428-14.024 13.328-2.247 2.38-3.422 5.186-4.861 8.088-2.61 5.04-4.794 10.628-5.427 16.302-.743 4.706-.934 9.579-.356 14.313.655 3.725 1.124 7.522 2.167 11.12 1.18 4.106 2.647 8.147 4.463 12.019 1.538 3.285 4.148 5.577 6.022 8.66 3.693 4.881 8.528 8.975 13.175 12.927 4.756 4.044 10.134 7.103 15.705 9.854 2.009.976 4.115 1.64 6.222 2.353 2.683.901 5.097 2.096 7.9 2.645 4.054.9 8.163.933 12.243 1.61 2.852.404 5.732.746 8.602 1.003 4.105.316 8.04-.347 12.1-.786 7.387-.804 14.57-2.426 21.744-4.312 2.88-.78 5.738-1.897 8.513-3.01 4.08-1.63 7.766-3.982 11.81-5.712 3.705-1.562 7.207-3.527 10.59-5.689 2.642-2.236 5.353-3.989 8.067-5.716 4.5-3.25 8.8-6.976 12.778-10.22 1.35-1.053 2.351-2.375 3.569-3.567 2.67-2.58 4.36-5.755 6.877-8.5 4.638-5.186 8.06-10.855 12.08-16.546 2.284-3.682 4.428-7.492 6.141-11.48.842-1.999 2.271-3.726 2.713-5.78.639-4.877 3.702-9.096 4.462-13.396.326-1.986.438-3.955 1.06-5.885 1.617-5.113 2.775-10.479 3.094-15.84.206-3.892.82-7.46.392-11.354-.41-3.359-.001-6.711-.499-10.056-1.008-4.348-1.264-8.926-2.547-12.873-1.139-3.559-3.234-7.017-4.827-10.41-1.328-2.838-2.634-5.758-4.4-8.413-1.645-2.338-3.743-4.236-5.268-6.689-1.183-2.002-2.96-3.25-4.52-4.904-2.015-2.213-4.51-4.089-6.803-6.019-2.568-2.215-5.484-3.656-8.503-5.391-4.87-2.78-10.307-3.462-15.707-4.486-2.713-.51-5.193-.146-7.955-.278-2.523-.128-4.909.28-7.399.64-2.765.429-5.457.806-8.108 1.751-4.325 1.548-8.517 2.932-12.452 5.368-4.47 2.392-8.648 5.371-12.496 8.663zm16.307 21.89c3.452-2.92 7.312-5.326 11.621-6.954a1.8 1.8 0 0 1 .113-.038c2.376-.726 4.888-1.364 7.401-1.753.043-.006.086-.01.13-.014 4.04-.34 8.083.248 11.834 1.018l.009.002c4.314.909 7.756 3.078 11.101 5.236l.037.023c1.873 1.271 3.904 2.573 5.775 4.202l.04.035c2.74 2.526 4.55 5.833 6.283 8.554 1.51 2.373 2.379 4.935 2.875 7.58.002.004 0 .005 0 .007.445 2.41 1.39 5.017 1.671 7.96l.004.06c.393 6.233-.197 12.437-1.526 18.49l-.007.034c-1.03 4.312-3.086 8.375-4.896 12.068-2.152 4.465-4.918 8.82-8.414 12.481a1.754 1.754 0 0 1-.103.1c-2.957 2.652-6.002 5.386-9.324 7.79a1.873 1.873 0 0 1-.105.071c-4.47 2.794-9.259 5.244-14.238 7.094-2.133.83-4.331 1.805-6.957 2.218-1.873.355-3.64.544-4.805 1.022-.01.047-.059.097-.14.482-.103.497-.16 1.14-.287 1.818l-.011.068c-.543 4.169-1.645 8.268-3.802 12.063-2.567 4.524-5.767 8.683-9.33 12.411a1.92 1.92 0 0 1-.079.077c-4.727 4.391-9.738 8.456-15.642 11.498-4.926 2.668-10.21 4.477-15.7 5.459a6.465 6.465 0 0 1-.027.004c-4.22.71-7.248.856-11.825.124-3.234-.183-6.413-.687-9.537-1.417-7.89-2.012-14.922-6.772-20.176-12.115-3.69-3.638-5.297-8.744-6.58-13.073l-.001-.004c-1.137-3.7-1.275-7.418-1.08-11.068l.002-.031c.235-3.341 1.11-6.473 1.634-9.413l.003-.012c.713-3.842 2.943-6.596 4.556-9.273.001-.002 0-.006.003-.008 1.692-2.783 3.785-5.313 6.147-7.527a.32.32 0 0 0 .042-.04c2.241-1.974 4.65-3.555 6.784-5.223l.008-.007c2.357-1.82 5.005-2.698 7.388-3.559.006 0 .01-.004.015-.006 3.153-1.108 5.948-1.081 8.638-1.593l-.027.006c3.692-.76 7.522-.416 10.9-.102l.094.011c4.338.627 8.393 2.026 12.301 2.973.324.074.512.04.894-.143.38-.182.876-.551 1.44-.998 4.746-4.213 9.706-8.097 14.32-12.216l.067-.058c.234-.19.231-.21.258-.597.026-.38-.07-1.034-.174-1.802-.688-3.329-1.44-6.72-1.505-10.391v-.014c-.025-2.41-.148-4.833-.273-7.288-.148-2.861.318-5.468.722-8.001 0-.005.002-.01.003-.014.339-2.028.856-4.096 1.862-6.08 2.017-3.993 4.31-7.902 8.138-10.93a47.93 47.93 0 0 1 1.455-1.281z"/>
 </g>
 <path d="M467.758 419.237c-1.533 1.22-2.984 2.54-4.289 4.104-1.747 2.137-3.666 4.451-4.747 6.997-.86 2.022-1.729 4.056-2.371 6.158-.788 2.512-.942 4.945-1.485 7.569-1.093 5.571-.404 11.153.287 16.714.184 1.785.185 5.537.185 5.537l-10.454 8.546s-4.535-1.332-6.427-1.578c-3.553-.497-7.085-1.26-10.594-1.243-4.879-.061-9.821 1.215-14.497 2.47-2.916.817-5.27 2.586-8.133 3.886-4.29 2.008-8.02 4.69-11.31 8.099-1.625 1.765-3.417 3.258-4.733 5.298-2.602 3.992-5.098 7.936-6.278 12.602-.843 3.49-1.988 6.598-1.953 10.192.02 2.11-.145 4.218-.123 6.327.052 3.181 1.005 6.124 1.83 9.164a43.739 43.739 0 0 0 3.303 8.435c.98 1.903 2.415 3.376 3.797 4.996 1.698 1.938 3.239 3.843 5.295 5.425 4.42 3.34 9.12 6.253 14.247 8.385 2.023.797 4.14 1.37 6.223 1.999 2.852.837 5.593.901 8.528 1.184 1.995.157 3.984.45 5.979.526 2.875.142 5.496-.709 8.415-.865 2.196-.115 4.334-.421 6.441-1.068 6.23-1.648 12.224-4.18 17.902-7.203 5.649-3.427 11.225-7.605 15.388-12.774 3.448-3.725 6.041-7.655 8.186-11.792 2.31-3.944 3.25-5.66 4.437-11.413 8.328-2.62 15.106-5.934 23.385-11.187 5.3-3.525 6.382-5.495 10.085-8.687 5.957-6.73 10.226-15.154 13.33-23.547 2-5.926 4.225-12.015 4.013-18.365-.143-3.619-.112-7.311-.995-10.78-.893-3.67-1.807-7.458-3.376-10.909-3.183-5.647-7.002-10.891-11.596-15.484-1.142-1-2.522-1.777-3.83-2.543-3.965-2.216-7.528-4.621-11.94-5.92-4.335-1.242-8.604-2.93-13.16-2.041-4.388.474-8.645 1.088-12.737 2.865-4.137 1.622-8.09 3.416-11.446 6.404-1.634 1.174-3.25 2.296-4.783 3.517zm7.957 4.864c3.334-2.833 7.043-5.142 11.164-6.699 2.316-.707 4.748-1.322 7.142-1.692 3.756-.316 7.632.233 11.305.987 3.922.826 7.148 2.832 10.477 4.979 1.898 1.288 3.865 2.555 5.6 4.065 2.43 2.241 4.2 5.4 5.974 8.186 1.359 2.136 2.153 4.452 2.617 6.926.481 2.61 1.397 5.169 1.649 7.8.38 6.04-.191 12.068-1.488 17.975-.96 4.018-2.942 7.981-4.757 11.683-2.087 4.333-4.762 8.53-8.09 12.015-2.957 2.652-5.956 5.34-9.172 7.669-4.38 2.736-9.06 5.128-13.902 6.927-4.007 1.744-6.429 2.473-11.651 2.87-1.012 6.35-2.786 11.072-5.32 15.627-2.48 4.372-5.587 8.412-9.057 12.043-4.67 4.338-9.55 8.285-15.24 11.214-4.752 2.578-9.85 4.323-15.165 5.274-6.798 1.31-14.449.162-20.656-1.272-3.26-.706-6.384-2.295-9.344-3.822-3.756-1.936-6.99-4.791-9.926-7.796-3.254-3.204-4.842-8.01-6.115-12.303-1.047-3.408-1.19-6.89-1.001-10.426.218-3.09 1.065-6.161 1.61-9.216.612-3.29 2.628-5.844 4.321-8.654 1.599-2.63 3.584-5.032 5.83-7.137 2.111-1.859 4.486-3.423 6.7-5.154 2.043-1.576 4.483-2.415 6.885-3.282 2.798-.984 5.465-.969 8.367-1.52 3.323-.683 6.991-.385 10.355-.072 4.113.593 8.123 1.971 12.153 2.946 1.556.354 2.769-.599 3.914-1.506 4.709-4.185 9.696-8.086 14.391-12.278 1.311-1.062.95-2.67.752-4.125-.696-3.374-1.424-6.677-1.485-10.142-.024-2.46-.15-4.909-.275-7.364-.134-2.596.296-5.061.703-7.612.322-1.926.8-3.8 1.686-5.546 1.983-3.926 4.135-7.552 7.642-10.322.461-.425.93-.841 1.406-1.246z"/>
</svg>
