<?xml version="1.0" encoding="UTF-8"?>
<!-- Created with Inkscape (http://www.inkscape.org/) -->
<svg id="c" width="220.65" height="258.46" version="1.0" xmlns="http://www.w3.org/2000/svg" xmlns:xlink="http://www.w3.org/1999/xlink">
 <path d="m1 1 3.9754 166.99c2.8396 119.28 207.86 119.28 210.7 0l3.9754-166.99z" fill="#2161c4"/>
 <path d="m1.0672 0.98903 204.25 207.25c6.2393-11.425 9.977-24.846 10.344-40.25l4-167z" color="#000000" fill="#fff" stroke="#000" stroke-width="1px"/>
 <g fill="#2161c4">
  <path d="m189.19 60.962c-27.45-22.667-57.313-35.156-92.4-39.592-0.9588-0.12128-1.5743 0.52788-1.4603 1.4603 4.2851 35.041 16.937 64.938 39.604 92.388 26.637-9.5901 44.238-28.086 54.256-54.256z" stroke="#000" stroke-linejoin="round" stroke-width="1px"/>
  <path d="m133.08 112.82c26.275-9.5803 43.705-27.879 53.699-53.702" stroke="#000" stroke-linejoin="round" stroke-width="1px"/>
  <path d="m178.34 124.3 13.75-6.0193 6.1188-13.849c-18.542-19.441-39.635-37.819-64.675-47.516-2.0711-0.80205-3.494 0.63323-2.7099 2.7099 9.5261 25.23 28.365 45.837 47.516 64.675z" stroke="#000" stroke-width="1px"/>
  <path id="b" d="m154.9 105.41 17.865 20.728 3.415-15.14-16.093-16.301c-1.5664 2.0668-5.308 7.8664-5.1866 10.713z" fill="#2161c4" stroke="#000" stroke-linejoin="round" stroke-width=".99921"/>
  <path d="m190.84 116.87c4.8121-4.8121 8.0662-11.744 5.7941-14.016-1.6802-1.6802-7.5144-0.0663-11.148 2.0091l-0.52193-2.6503c4.5159-3.5889 12.372-6.1832 15.404-3.1506 3.0951 3.0951-0.83098 11.896-8.136 19.201s-16.106 11.231-19.201 8.136c-3.0326-3.0326-0.43839-10.888 3.1506-15.404l2.6503 0.52194c-2.0754 3.6337-3.6893 9.4678-2.0091 11.148 2.2721 2.2721 9.2043-0.98196 14.016-5.7941z" stroke="#000" stroke-linejoin="round" stroke-width=".99921"/>
  <path id="a" d="m160.09 94.693 2.8738 0.95306 15.87 15.87-2.8738-0.95306z" color="#000000" fill="#2161c4" stroke="#000" stroke-linejoin="round" stroke-width=".99921"/>
  <use transform="matrix(0 1 1 1.5209e-8 73.969 -73.969)" width="248.03149" height="248.03149" stroke="#000000" stroke-width="1.6456" xlink:href="#b"/>
  <use transform="matrix(1.5209e-8 1 1 1.5209e-8 73.969 -73.969)" width="248.03149" height="248.03149" stroke="#000000" stroke-width="1.6456" xlink:href="#a"/>
 </g>
 <g stroke="#000">
  <path d="m133.6 229.88c2.4345 2.9473 8.1691 4.6072 12.728 0.60226 4.5582-4.0041 3.6522-9.9056 1.0433-12.7l-36.437-39.024-11.336 9.9579z" fill="#efde39" stroke-width="1px"/>
  <path d="m102.49 179.81c-4.8743-0.36591-7.774-0.35501-13.996 1.968-12.899-31.282-43.836-57.593-67.531-26.111-15.481-71.664 89.318-83.941 81.527 24.143z" fill="#fff" stroke-linejoin="round" stroke-width=".99921"/>
  <rect transform="rotate(-41.297)" x="-54.71" y="199.78" width="25.062" height="10.598" rx="5.2992" ry="5.2992" color="#000000" fill="#efde39" stroke-width="1px"/>
 </g>
 <path d="m1 1 3.9754 166.99c2.8396 119.28 207.86 119.28 210.7 0l3.9754-166.99z" fill="none" stroke="#000" stroke-width="2"/>
</svg>
