<?xml version="1.0" encoding="UTF-8"?>
<svg width="622.24" height="717.23" version="1.1" xmlns="http://www.w3.org/2000/svg">
 <path d="m6.21 6h609.82l-14.755 429.83c-14.754 162.29-127.87 275.4-290.16 275.4s-275.4-113.11-290.16-275.4z" fill="#f00000"/>
 <path d="m386.81 32.775c-11.353 3.3047-12.215 2.9506-16.559 9.6055-10.58 4.629 1.3168 17.408-6e-3 25.344l11.883-4.8613c4.629-3.3064 8.1388 0.8908 10.025-7.123 0.66128-2.6451-4.0212-20.32-5.3438-22.965zm-189.64 53.307c-2.298 5.7713-3.3136 8.7631-1.1534 12.228 0.2746 10.453 18.506 10.595 29.063 11.162-3.2421-13.896-7.7756-21.871-7.7756-21.871l-9.5489-3.2248c-3.51 0.08532-7.8607-0.93751-10.585 1.7053zm271.5 90.518c-2.6451 4.629-9.9994 10.855-12.645 15.484l11.242 9.2578c6.6128 0 13.886-3.9668 17.854-8.5957-2.6451-6.6128-9.8384-14.163-16.451-16.146zm-262.63 81.791c-4.629 4.629-5.572 18.682-6.8945 25.295 4.629 1.9838 16.478 7.1393 21.523 0.35937 0-7.2741 10.624-16.986 7.4746-25.043-4.092-0.0377-18.515 0.18924-22.104-0.61133zm153.57 42.104-1.6016 0.91602-2.9414 10.201c4.7965 65.406 2.2666 86.296 1.332 130.81-15.006 57.308-20.195 106.1-72.383 151.12-1.9838-24.467-7.6439-46.705-14.918-69.189-2.6451-7.2741-6.8923-13.238-8.2148-20.512-0.39716-13.702 1.4462-27.435 4.5469-40.986l6.1211-0.82032c0.39823 0.92916 0.8923 1.779 1.5762 2.4629l3.5898 3.5645c3.9677 3.3064 17.719 3.3752 37.962-17.344-1.2007-3.2257-1.0283-5.8354-0.68647-7.5057 5.2902-7.9354 8.2941-15.248 7.6328-26.49l-2.8272-4.3739c2.2078-12.024 3.2041-17.055 4.0092-19.526-0.48742-2.1391-4.7498-1.8311-6.9436-1.1294-0.66128-7.2741 0.16352-19.795-1.8203-27.73l-4.8301 5.3476c-0.79217 1.1273-1.5172 2.2803-2.2871 3.416l-4.375-1.1348c2.7145-2.7677 5.2025-5.5563 6.9336-8.4414-10.58 2.6451-23.682 1.4414-31.617 9.377-2.6451-1.9838-0.558-4.8005-3.2031-6.123-10.58 6.6128-19.816 16.22-25.768 26.801l-5.373 0.37305-3.7832 12.129c-3.9677 12.564-2.8694 31.44 7.7109 40.037 1.2828 0.85517 3.7698 0.11538 6.0938-1.0156l2.7656 6.3945c-3.322 9.1665-6.0074 18.793-7.4141 29.443-6.7206-10.337-13.129-22.964-21.064-32.883-11.407-17.227-23.982-32.327-37.791-45.836 1.6191-2.1913 3.1535-4.5386 3.4492-5.4258 11.903-15.209 15.278-27.706 6.6816-42.254-1.3226-4.629-13.953-17.249-17.26-19.895-1.9838 1.3226-3-0.46462-1.9766 6.6113-10.58-10.58-9.922-14.115-22.486-21.389l-17.1-8.459c-0.66128 3.3064-1.0829 4.8271-1.7441 8.7949-10.58-7.9354-23.264-7.3541-35.828-9.3379 5.7993 5.0891 1.3986 7.4705 7.7246 12.529l-19.594-5.1016c-5.9515 1.3226-17.139 0.31524-20.445 5.6055 2.7554 3.9484 5.5528 7.5712 8.3691 10.965-2.2241-1.4057-4.4566-2.8112-6.6895-4.1973-3.3064 5.9515 1.981 12.567 3.9648 19.18-0.66128 7.2741 3.6479 5.3545-1.4166 14.745 1.3226 11.242 5.2068 22.26 12.481 29.534-1.9838 1.3224 4.5544 6.1267 5.877 10.094 7.9354 10.58 7.5641 10.806 19.467 14.774-0.66128 1.9838 1.2436 5.0823 3.8887 7.0664 15.209 7.9354 41.389 16.958 55.938 3.7324 1.9838-3.9677 6.4316-10.997 6.4316-16.287-10.893-11.355-22.549-21.992-34.73-32.057 5.8769 2.8251 11.608 5.6162 17.139 8.6543 29.04 30.289 49.631 51.864 63.764 92.334l5.7617 9.4805c-8.5219-0.34783-17.631 0.66499-26.775 2.5566l-0.19336-2.4531c4.629-3.3064 4.7073-10.682 3.3848-13.988-10.58-12.564-35.606-18.503-52.799-13.213-1.9838 3.3064-12.522 6.0958-11.199 9.4023-14.548 5.9515-23.385 5.6856-34.627 18.25-1.3226 5.2905 2.0084 7.2346 3.9922 10.541-8.5966 4.6287-5.295 11.488-8.6016 19.424 1.3226 3.3064 2.2779 2.398 4.2617 3.7207-2.4121 10.023-4.4509 20.799-5.4258 30.287 8.4908 2.1881 18.509 5.5136 26.736 5.6953 6.7232 2.5033 7.705 5.0452 8.5098 6.4844 10.58 1.3226 11.522-0.39737 28.272-1.265 11.242-1.9838 9.0554-1.2339 18.974-6.5241 9.7678-5.557 17.115-5.9253 18.068-3.9121 12.564-5.2902 20.284-12.56 20.691-33.607-1.3226-3.3065-5.699-10.797-11.65-10.797-2.2915 0.35908-4.5572 0.76151-6.8184 1.1875l-0.50391-6.1348c10.296-1.4235 23.89-1.0949 35.613 2.0801 10.58 31.741 12.385 36.242 21.305 98.756-12.933 7.7132-27.343 16.145-33.723 23.145-1.9838 9.2579-6.0132 23.353-7.3359 32.611 3.3064 6.6128 9.9452 0.95439 16.598-3.5137 38.354-19.177 70.095-54.877 113.08-68.104 10.58-1.9838 21.819-0.67163 30.416 2.6348-1.3225-6.6128-6.0717-16.727-12.023-20.033-15.399-8.7553-28.684-5.8319-38.555-1.3301 18.516-18.516 28.761-38.149 36.035-61.955l19.838-21.814h17.191c9.8475 5.0434 10.913 5.7996 21.725 12.125-5.9515 7.9354-12.131 22.173-10.148 32.092 3.9677 7.9354 5.5885 19.464 14.185 23.432 6.1373 5.152 17.202 14.807 21.237 16.054l9.2877 3.3814c8.5966 4.6289 13.361 5.2878 23.942 6.6104l4.7125-4.6397c9.9192 5.9515 20.283 3.6961 32.848 4.3574 4.6192-4.4848 1.0263-34.322 4.6816-35.191-0.88535-13.188-5.1184-30.114-5.1504-37.35-5.2902-8.5966-11.272-14.128-19.869-20.08l-3.5585-6.9888c-11.188-9.098-13.488-7.8156-28.002-10.242-4.1524-0.0926-10.417 2.6996-14.343 4.7661-4.629 1.9838-11.169 3.4005-11.83 8.6907 1.5318 4.313-37.203-14.818-44.717-15.401 12.925-13.657 25.853-23.823 39.262-35.02 1.9576 6.628 6.5025 16.675 12.503 19.675 11.903 4.629 27.956-0.0127 39.859-3.3164 3.3064 0.66128 1.9925-3.9606 0.66993-5.2832 11.242-2.6451 24.359-5.6092 34.279-12.884-1.3226-1.9838 7.4291-5.7166 5.4453-7.7004 7.9354-5.9515 6.5551-6.5275 12.506-15.785-1.9838-1.9838-3.0101-3.0162-7.9297-3.9648 9.9192-2.6451 19.794-13.492 23.762-22.75-4.7613-0.34452-6.6446-0.83491-8.2578-0.86328 7.3825-9.2275 7.633-15.628 11.955-26.293 1.0067-0.30048 1.992-0.60983 3.0078-0.9043l-7.709-9.9707c-9.2579-4.629-23.871-8.37-35.113-9.6926-7.1864-0.52518-13.547 0.0593-23.744 2.4211l-3.3066-2.6484c-10.303 3.7324-18.332 3.5248-26.268 6.1699-6.7137 3.8272-11.172 6.7526-17.373 11.021-5.9515 3.3064-8.1364 5.8191-15.873 11.25-9.2579 11.242-27.376 26.744-18.779 43.938 2.0691 2.5865 4.9709 11.109 8.666 14.078-19.869 18.876-38.152 38.15-52.309 53.006 9.9192-56.209 12.047-102.4 0.80273-159.93-5.9515-1.9838-10.598-12.704-15.889-15.35z" fill="#094"/>
 <g transform="matrix(6.6128 0 0 6.6128 25.767 -290.39)">
  <path d="m47.584 49.162c-0.54753-0.04854-1.1042-0.03364-1.6582 0.02344-2.2012 0.22679-4.4039 1.1234-6.0039 1.7734-1.388 0.46138-2.9815 0.61283-4.5859 0.94922-1.5965 0.33473-3.2311 0.88424-4.5684 2.207-1.324 1.1066-1.6473 2.8941-1.332 4.6367 0.05832 0.80018 0.38347 1.429 0.79883 1.9434-1.4466-0.56519-3.1431-0.87372-4.7852-0.10742-0.0059 0.0025-0.01175 0.0051-0.01758 0.0078-2.1586 1.0793-2.8787 3.1257-2.959 5.123-0.08031 1.9973 0.35636 4.0737 0.45117 5.6855 4.73e-4 0.0098 0.0011 0.01955 2e-3 0.0293 0.29196 3.017 0.06219 6.4795 1.248 9.498 0.01963 0.0494 0.04452 0.09654 0.07422 0.14062 0.41569 0.62353 0.90061 1.2832 1.5469 1.8125 0.631 0.51675 1.4185 0.69239 2.3739 0.7102 1.9386-0.30957 2.4375-0.33984 2.4375-0.33984s-1.3207 2.8682-0.9657 4.4656c0.25046 1.1271 1.0151 2.0154 1.9922 2.5039 0.03584 0.01796 0.07307 0.03298 0.11133 0.04492 2.9344 0.91068 5.929 1.6079 8.8867 2.5938 9e-3 0.0034 0.01816 0.0067 0.02734 0.0098 1.1794 0.34398 2.5631 0.48539 4.0039 0.66078s2.1412 0.36879 3.4808-0.56313c0.09278-0.0645 1.015-0.14934 1.07-0.24805 0.4119-0.74143 1.0525-1.7083 1.1953-2.9629 0.84212 1.3973 2.2163 2.5408 3.9141 2.6406 0.03057 0.0019 0.06123 0.0019 0.0918 0 1.7355-0.1157 3.0895-1.037 4.1465-1.9883 0.05046-0.04522 1.0181-1.9646 1.0544-2.0217 2.4971-3.9377 4.4891-5.2385 7.6467-10.177-0.23105-1.0973 0.05149-0.20776 0.04297-0.31445-0.04632-0.55588-0.28812-1.2775-0.40251-1.9633-0.11392-0.68293-0.12488-1.3703-0.74007-1.9214-0.62846-0.58821-1.3917-0.89111-2.1914-1.0898 0.83214-0.22872 1.5363-0.6649 2.0254-1.25 0.59553-0.71236 0.8407-1.5425 1.1937-2.2988 0.03817-0.0811 0.20751-0.16845 0.21454-0.25781-0.38713-2.789-0.36196-2.0042-2.2501-6.9647-2.592-2.5455-2.9841-4.5162-3.7245-6.1307-0.88637-0.89692-1.1491-1.4751-1.165-1.5002-0.85195-0.57633-1.8535-1.3542-4.3393-1.7394-0.02827 0.0036-0.50911-0.24993-0.53678-0.24312-1.0659 0.25928-1.8771 0.80872-2.4414 1.498-1.6316 3.3149-0.42023-0.49232-1.0996-2.166-0.01204-0.0275-0.02574-0.05424-0.04102-0.08008 1.4875 0.61991-1.8262-1.3926-4.2227-2.6289zm-20.746 15.148c-0.0033 0.01575-7.46e-4 0.0292-0.0039 0.04492-7.23e-4 0.0053-0.0052 0.0084-0.0059 0.01367zm18.842 0.9082c1.2281 0.6042 2.048 1.1857 3.3945 1.3184l-0.20312-0.04883c0.27251 0.109 0.39033 0.16505 0.36719 0.14453l2e-3 -0.16016c-0.10206 0.54432 0.01764 1.1029 0.32031 1.4551 0.30268 0.35218 0.65289 0.48224 0.9082 0.58984 0.25531 0.10761 0.4332 0.19466 0.49219 0.24609s0.06836 0.01711 0.06836 0.21875c-8.2e-5 0.09431 0.01781 0.18778 0.05273 0.27539 0.1446 0.36151 0.10811 0.23088 0.03516 0.41016s-0.26546 0.77584-0.04883 1.3535c0.04705 0.12584 0.12738 0.23655 0.23242 0.32031 0.26139 0.20911 0.36404 0.58674 0.55078 1.2402 0.012 0.09424 0.01166 0.11746-0.05469 0.20898-0.0745 0.10278-0.24517 0.25313-0.45898 0.45508s-0.50332 0.48002-0.61328 0.94726c-0.06822 0.28989 0.11647 0.59254 0.23047 0.89453-0.08014 0.25615-0.15801 0.46232-0.17969 0.48828-0.0256 0.03065 0.0098 0.05664-0.31055 0.05664l0.04883 2e-3c-0.52059-0.03471-1.0678 0.15877-1.3457 0.53125s-0.29536 0.72247-0.32812 0.96289c-0.03126 0.22938-0.06742 0.35581-0.07031 0.36719l0.125 0.0059c-1.4079-0.25598-2.5209 0.53809-3.2891 1.416l0.17774-0.14844c-0.19648 0.11788-0.45055 0.07484-0.62305-0.09766l0.17773 0.29102c-0.12097-0.36292-0.41296-0.72574-0.78516-0.85156-0.3722-0.12583-0.67513-0.0511-0.90039 0.01367-0.45052 0.12955-0.78512 0.20476-0.67773 0.22266-0.10001-0.01668-0.20237-0.01269-0.30078 0.01172-0.23208 0.05802-0.35374 0.02823-0.50977-0.05273-0.15602-0.08097-0.33193-0.2406-0.49414-0.44336l0.16016 0.41992c-0.03419-0.58128-0.3246-1.1196-0.73242-1.375s-0.79024-0.27776-1.0762-0.31445c-0.28593-0.0367-0.48264-0.08119-0.54688-0.11719-0.06423-0.036-0.08437-8e-3 -0.13086-0.27148-0.0065-0.03578-0.01566-0.07103-0.02734-0.10547-0.01867-0.056-0.01263-0.18646 0.07227-0.45898s0.25-0.63752 0.25-1.1367c1.23e-4 -0.30368-0.18479-0.57679-0.4668-0.68945-0.43635-0.17454-0.6341-0.34455-0.68164-0.42969s-0.09536-0.22429 0.10742-0.71094c0.02174-0.05208 0.03746-0.10647 0.04687-0.16211 0.22673-1.3491-0.14258-2.1833-0.14258-2.8926 1.84e-4 -0.03265-0.0018-0.06527-0.0059-0.09766-0.02832-0.2124-0.0043-0.23257 0.0625-0.32227 0.06676-0.08969 0.23221-0.22551 0.4707-0.39648s0.54774-0.3793 0.8125-0.72852c0.26476-0.34921 0.44299-0.85743 0.4082-1.4141l-0.01563 0.20703c0.0428-0.19259-0.01469-0.1101 0.19336-0.1543s0.61644-0.02734 1.0586-0.02734c0.22578-1.1e-5 0.43927-0.1028 0.58008-0.2793 0.29511-0.36889 0.42218-0.69938 0.54297-0.86914 0.11251-0.15812 0.14638-0.18445 0.3457-0.21094 0.87542 0.15885 1.7376 0.21731 2.7246-0.10742zm-5.4903 22.436 0.08594 0.0332c-0.0064-3e-3 -0.01312-0.0029-0.01953-0.0059-0.02424-0.0079-0.04204-0.01959-0.06641-0.02734zm9.6797 1.0664c0.01112 0.02966 0.0333 0.05635 0.04492 0.08594 0.0037 0.0066 0.0021 0.01486 0.0059 0.02148zm0.63672 0.64062-0.0059 0.08789c0.0024-0.01987-0.0041-0.03491-2e-3 -0.05469 1.23e-4 -0.01272 0.0078-0.02042 0.0078-0.0332zm-3.5098 0.50195-0.07031 0.04492c0.01459-0.0081 0.01879-0.02491 0.0332-0.0332 0.01158-8e-3 0.0256-0.0035 0.03711-0.01172z" clip-rule="evenodd" fill="#fff" fill-rule="evenodd"/>
  <path d="m45.863 64.693a0.26756 0.26756 0 0 0-0.0332 2e-3c-0.45031 0.05629-0.79373 0.23882-1.043 0.48828-0.12271 0.12282-0.18815 0.2795-0.27734 0.42188-0.12733-0.18307-0.28687-0.33857-0.46875-0.44922-0.33122-0.2015-0.70753-0.30542-1.0312-0.35938a0.26756 0.26756 0 0 0-0.14453 0.01563c-0.57043 0.22817-0.90456 0.84185-1.0664 1.4453-0.44996-0.13281-0.96251-0.13375-1.4336 0.05469-0.37837 0.15135-0.53185 0.53418-0.60156 0.89648-0.05482 0.28487-0.05086 0.56484-0.05273 0.82617-0.16668 0.03131-0.35522 0.03876-0.59961 0.08789-0.15366 0.03089-0.32389 0.09337-0.46094 0.23047-0.1357 0.13576-0.21922 0.33135-0.25 0.56836-0.27013 0.85175-0.15152 1.7439 0.29688 2.3008-0.60309 0.49472-0.80734 1.2627-0.89844 1.9004a0.26756 0.26756 0 0 0 0.01563 0.13086c0.1796 0.47892 0.55483 0.75956 0.9375 0.9375 0.2591 0.12048 0.50373 0.19611 0.75 0.28125-0.13318 0.1362-0.25058 0.25644-0.41016 0.43359-0.12541 0.13923-0.2459 0.29804-0.31055 0.49609-0.06427 0.1969-0.05894 0.43338 0.03711 0.66016 0.23468 0.58456 0.75901 1.1331 1.3926 1.2598a0.26756 0.26756 0 0 0 0.23242-0.0625c0.25479-0.23052 0.44498-0.3747 0.56641-0.44336 0.02713-0.01534 0.0488-0.02406 0.06641-0.03125 0.0139 0.07656 0.01951 0.20938 0.01953 0.36328 4.7e-5 0.3117-0.02145 0.70769 0.09375 1.0742 0.0576 0.18326 0.15734 0.36635 0.32422 0.5 0.15388 0.12324 0.36621 0.1792 0.59961 0.18945 0.51533 0.20128 1.0025 0.0616 1.3457-0.18555 0.23226-0.16725 0.36303-0.33484 0.51758-0.50586l0.24414 0.54883a0.26756 0.26756 0 0 0 0.05469 0.08008c0.23932 0.23932 0.53342 0.37154 0.83789 0.40234s0.61425-0.02962 0.93555-0.13672c0.39316-0.13105 0.5848-0.46621 0.68164-0.75781 0.05672-0.17079 0.10511-0.29898 0.15234-0.44531 0.1662 0.15626 0.32199 0.32386 0.52148 0.44141 0.31765 0.18716 0.71206 0.28484 1.1348 0.16406a0.26756 0.26756 0 0 0 0.01953-0.0078c0.49142-0.18428 0.74776-0.60315 0.87305-1.0078 0.0976-0.31523 0.11946-0.596 0.15234-0.85352l0.95898 0.08008a0.26756 0.26756 0 0 0 0.18945-0.05859c0.55791-0.44632 0.78904-1.0311 0.89453-1.6641a0.26756 0.26756 0 0 0-0.05664-0.21484c-0.20164-0.24645-0.21902-0.37245-0.21094-0.42383 0.0081-0.05138 0.05742-0.11779 0.18945-0.2168 0.13204-0.099 0.32236-0.21004 0.5-0.36914s0.34715-0.38801 0.38086-0.69141a0.26756 0.26756 0 0 0 0-2e-3c0.05668-0.56684-0.12046-1.0463-0.40039-1.4238-0.21497-0.2899-0.48644-0.51857-0.76172-0.72852 0.27258-0.26253 0.4693-0.56575 0.54492-0.88867 0.09996-0.42688 0.06987-0.85663 0.01758-1.2227a0.26756 0.26756 0 0 0-0.01953-0.06836c-0.18637-0.43484-0.56743-0.68305-0.95703-0.82226-0.28066-0.10029-0.55779-0.13119-0.83008-0.17188 0.1571-0.52102 0.02517-1.0835-0.35938-1.4766-0.46258-0.56724-1.3123-0.66879-2.0566-0.43945-0.31178-0.68675-1.0045-1.1523-1.7441-1.1523z" fill="#fcdb00"/>
  <g clip-rule="evenodd" fill-rule="evenodd">
   <path d="m47.264 52.66c0.9 0.2 1.7 0.7 2.2 1.4 0.4 1 0.2 2 0.1 2.9l0.5-1.2c0.2-0.9 0.16005-2.1563-0.5-2.8-0.3326-0.32435-0.77315-0.67874-1.6-0.9-2.3-0.9-3.8955 1.0291-5.8 2-3.3144 1.6897-7.9 0-10 3.2-0.3 0.9-0.3 2 0.3 2.7 0.6 0.8 1.4 1.7 2.5 1.4-0.1-0.2-0.25819-0.12689-0.5-0.2-1.1-0.4-1.9-1.6-1.9-2.8 0.2-0.9 0.5413-1.6744 1.5-1.9 2.4645-0.57988 5.5 0 7.6-1.3 2-0.8 3.5-2.3 5.6-2.5"/>
   <path d="m57.064 56.76c1.4 2 1.6 4.7 3.1 6.6 1.2 1.9 4.4 3.7 3.3 6.4-0.4 0.9-1.6 1.3-2.3 1.2 0.8 0.5 1.6357 0.15772 2.3-0.2s1.1-1.272 1.1-2c0-2.4083-1.9-3.9-3.4-5.5-2.6-2.3-1.2-7.4-5.4-7.7-0.7 0-1.3 0.2-1.8 0.7-0.5 0.6-0.9 1.5-0.9 2.4 0.4-0.6 0.6-1.8 1.4-2.3 0.9-0.4 1.9-0.1 2.6 0.4"/>
   <path d="m27.264 63.46c-1.2 2-0.6 4.7 0 6.8 1.4 3.2-1 6.8 0.7 9.8 0.7 0.5 1.5 1.3 2.6 1 0.5-0.3 1.2-0.5 1.3-1.2l-1.4 0.7c-3.7-1.2-1.6-5.4-1.9-8.2-0.2-2.6-1.6-5.1-0.9-7.9 0.2-0.8 1-0.9 1.6-1 1.2 0.2 2 1.2 2.7 2v-0.2c-0.3-0.6-0.7564-1.4575-1.4-1.9-0.99569-0.68454-2.3-0.5-3.3 0.1"/>
   <path d="m49.264 76.26c-0.1 0.6-0.1 1.6-0.9 1.9-0.7 0.2-1.2-0.3-1.7-0.8-0.3 0.5-0.2 1.2-0.8 1.4s-1.1 0.2-1.5-0.2l-0.4-0.9c-0.5 0.4-1 1.3-1.9 0.9-1.7-0.1 0.2-3.6-1.9-1.6-0.5-0.1-1-0.5-1.2-1.1-0.3-0.8 0.5-1.1 0.9-1.6-0.7-0.2-1.6-0.4-1.9-1.2 0.2-0.7 0.3-1.5 1-1.9-0.5-0.5-0.7-1.5-0.4-2.3 0.1-0.8 0.9-0.5 1.3-0.7 0-0.6 0-1.5 0.5-1.7s1.1-0.2 1.5 0c0.2-0.5 0.5-1.2 1-1.5 0.6 0.1 1.4 0.4 1.5 1.1 0.3-0.6 0.6-1.2 1.4-1.2s1.4 0.5 1.6 1.2c0.7-0.3 1.6-0.2 2 0.3 0.3 0.4 0.5 1 0.2 1.5 0.8 0.2 1.6 0.2 1.9 0.9 0.1 0.7 0.1 1.6-0.7 2.1 0.7 0.5 1.4 1.1 1.3 2.1-0.1 0.9-1.7 0.9-0.8 1.9-0.1 0.6-0.2 1.2-0.9 1.4zm2.8-1.2c-1-1.4 1.1-1.4 0.9-2.7-0.2-0.7-0.6-1.2-1.2-1.6-0.2-0.9 0.9-0.9 0.5-1.9-0.1-1.5-2.3-0.9-1.9-2.4-0.1-0.5-0.5-0.9-1-1.1-1.8 0.6-2-1.2-3.6-1.2-1.1 0.5-1.8 0.3-2.9 0.2-0.9 0.1-1.2 0.9-1.6 1.4-0.8 0.1-1.8 0-2 0.9 0.1 1.6-2.1 1.4-1.9 2.9 0 0.9 1.2 1.6 0 2.3-0.5 1.2 0.2 2.3 1.2 2.7 0.1 0.5-0.4 1.2-0.2 1.8 0.3 1.6 2.6 0.5 2.6 2.3 0.4 0.5 1.1 0.9 1.9 0.7 0.5 0.1 1.2-0.9 1.5 0 0.4 0.4 1.2 0.5 1.8 0.2 0.7-0.8 1.6-1.1 2.6-0.9 1.4-0.1 0.5-2.1 1.9-1.9 1-0.1 1.2-1 1.4-1.7z"/>
   <path d="m46.864 72.96c-0.4 0.6-1.3 0.9-2.1 0.9-0.7-0.2-1.1-0.6-1.6-1.2-0.4-0.9 0.3-1.7 0.8-2.3 0.9-0.5 2.6-0.5 2.9 0.8 0 0.6 0.4 1.3 0 1.8m1.3-2c0-0.4 0.2-0.5 0.5-0.7 0-0.5 0.2-1.2-0.3-1.5-0.6-0.5-1.3 0.1-1.9 0.1 0.28313-1.658-2.2748-1.6259-2.6-0.4-0.4-0.3-0.8-0.5-1.3-0.4-0.6 0.5-0.2 1.2-0.3 1.9-0.5-0.2-0.9 0.2-1.3 0.4-0.5 0.5-0.2 1.1 0.2 1.6 1.2 0.5-0.5 1.2 0.1 2 0.2 0.5 0.8 0.9 1.2 0.8 1.5-0.9 0.9 1.6 2.3 1.3 0.9 0.1 0.8-0.8 1.2-1.2l0.4 0.3c0.4 0.2 1.2 0.3 1.6-0.1s0.7-1.2 0.2-1.6c-0.2-0.4 0.5-0.3 0.8-0.4 0.5-0.2 0.59888-0.79215 0.56703-1.313 0-0.7-0.86703-0.78703-1.367-0.78703" fill="#fcdb00"/>
   <path d="m45.154 70.156c-0.44941-5.86e-4 -0.88945 0.11719-1.1895 0.30469-0.5 0.5-1.2008 1.2988-0.80078 2.2988 0.5 0.5 0.89961 1.0012 1.5996 1.2012 0.8-0.1 1.6996-0.30039 2.0996-0.90039 0.4-0.5 0.1-1.2012 0-1.7012-0.1875-0.875-0.95996-1.2021-1.709-1.2031zm-0.10352 0.625c0.37722 0.0021 0.76725 0.16307 1.0273 0.4375 0.15653 0.15076 0.26231 0.33536 0.28516 0.54102 0.3 0.5 0 1.2008-0.5 1.3008-0.26187 0.05237-0.55059 0.13005-0.82422 0.13672-0.02062 1e-3 -0.04027 0.0018-0.06055 2e-3 -0.0026-4.6e-5 -0.0052 6.1e-5 -0.0078 0-0.19132 8.1e-5 -0.36838-0.04259-0.5293-0.16992-3.84e-4 -2.97e-4 -0.0016 2.98e-4 -2e-3 0-0.02578-0.02048-0.05117-0.04336-0.07617-0.06836-0.33043-0.26434-0.52991-0.6609-0.51172-1.043-0.0047-0.21095 0.06105-0.40675 0.21289-0.55859 0.20312-0.40625 0.58774-0.58035 0.98633-0.57812z"/>
   <path d="m53.364 88.56c-1.6-0.5-1.7-2.4-1.9-3.7-0.3 1.1-0.36046 2.5522 0.25989 3.5448 0.41394 0.66231 1.5401 1.1552 2.5401 0.85523 2.1-0.4 3.1-2.6 3.8-4.4 1.1-2.9 4.4-3.7 5.8-6.5 0.4-1.2 0.2-2.6-0.4-3.6-0.5-0.5-1.6-0.9-2.3-0.5l0.6 0.2c0.6 0.2 1.2 0.9 1.3 1.4 0.4 1.3-0.06503 2.6124-0.9 3.3-2.612 2.1511-5.1 4.5-6.1 7.5-0.7 0.9-1.3 2.5-2.7 1.9"/>
   <path d="m47.264 85.46 0.6 1.6c0.1 1-0.4 1.8-1.2 2.3-0.6 0.5-1.8 0.4-2.6 0.1-2.1-1.8-4.8-2-7.5-2.4-1.2-0.4-2.8-0.4-3.7-1.3-0.5-1.4 0.9-2.1 1.5-2.7l-0.9 0.2c-0.7 0.4-1.3 1.2-1.2 2.1 1.2 3.3 5.2 1.9 7.8 3.1 2.2 0.7 4.1 2.3 6.6 1.9 0.9-0.2 1.6-1.2 1.9-1.9-0.3-1.1-0.4-2.7-1.3-3"/>
   <path d="m7.2642 93.96c5.8 3.6 10.8 7.4 15.5 12.3 0.33624 0.99447-0.09019 1.6287-0.7 2.3-2.3 1.9-5.7731 0.70268-7.9669-0.34686 0.09795-0.18826 0.16687-0.45314 0.26687-0.75314-1.8-0.5-3.5935-2.1299-4.6935-3.7299 0.11991-0.16778 0.29951-0.24743 0.69951-0.44743-1.1-1.2-2.2235-2.2625-2.4235-3.9625 0.028932-0.08967 0.62701-0.31784 0.86606-0.47566-0.4-1-2.0486-3.9844-1.5486-4.8844zm5.7-1.2c-0.05984-0.75885-0.35227-1.201-0.5-1.4 1.9 0.3 3.531 0.57438 5.031 1.7744 0.2-0.5 0.23311-1.0298 0.16902-1.3744 2.1829 0.63793 4.5035 2.3497 5.8 3.7 0.16361-0.23565 0.29928-0.66728 0.3-1 0.5 0.4 1.2 1.1 1.4 1.8 1.2 2.3 1.9 5.4 0.2 7.6-0.2 0.3-0.7 0.2-0.9 0-4.7-4.5-10.9-8.3-17-10.9 1.8119-0.76652 3.5057-0.56931 5.5-0.2zm17.8 19.9c1.2 1.5 2.0624 3.0329 3.1 4.7 1.527-5.5556 3.533-12.241 7.3-15.8-3.2 5.6-6.2 11.4-6 18.3 0.2 1.2 0.9 2.3 1.2 3.3 1.2 3.3 2 6.8 2.3 10.6l0.2 0.2c3.7-2.5 5.9-6.4 7.9-9.9 2.2-4 2.7-8.6 3.6-13.2 0.7-6.5 0.8-13.5-0.2-20l0.3-0.6c0.79928 0.76551 1.1 1.3 2 1.6 1.7 8.6 1 17.2-0.5 25.7h0.2c7.7-8.4 15.79-15.662 26.39-19.462-1.628 1.1742-4.1897 1.8618-5.7897 3.0618-6.7 4.5-11.6 8.6-16.9 14.2l0.4 0.3c6.7 1.3 14.67 9.3356 17.878 14.127-0.17144-0.0119-1.6087-1.653-1.6087-1.653-2.9974-3.7681-9.7697-8.9739-15.57-10.474h-2.6l-3 3.3c-1.2 3.7-3 7.2-5.8 10 0.07272 0.0302 0.18848 0.1707 0.29707 0.285 1.5-1.1 4.4029-1.285 6.1029-0.285 0.9 0.5 1.5 1.6 1.6 2.6-1.3-0.5-3-0.7-4.6-0.4-6.9603 2.7624-13.494 8.1856-18.536 11.058 0.2-1.4 0.03619-3.4582 0.33619-4.8582 1.7-1.1 3.7-2 5.1-3.5 0.5-5.6-1.4-10.3-3-15.2-4.8-1.2-9.5 0.5-13.6 2.3-1.5 0.8-4.3393 2.6845-5.7393 3.6845 3.8696-4.076 12.803-8.096 17.539-7.9845l0.5-0.3c-2.2-6.3-7-11.4-11.6-16.2-2.8-2.6-6.9085-5.1016-10.009-7.5016 8.4 4.2 15.909 10.702 20.809 18.002zm2.8-1.7c-1.6-1.3-1.6-4.1-0.9-6l0.5-1.3 0.7 0.4c0.9-1.6 1.9-3.1 3.5-4.1 0.22708 0.20167 0.2 0.9 0.5 1.2 1.2-1.2 2.7-1.7 4.3-2.1-0.9 1.5-2.3 2.6-3.3 4.1-1.3 2.5-2.9 5.2-4 7.6-0.3 0.4-0.9 0.5-1.3 0.2zm9.7395-11.509c-0.31927 1.3844 0.26046 2.8088 0.36046 3.9088 0.22909 0.023 0.29294-0.0186 0.63115 0.0303-0.05441 0.83278-0.37418 3.1801-0.53115 3.7697l0.8 0.2c-0.28356 1.7061-1.0475 2.8187-1.7475 4.1187 0.24739 0.25977 0.34033 0.27424 0.68664 0.37253-1.0207 1.1329-1.9392 2.0088-3.4392 2.7088-0.7 0.2-1.7 0.1-2.3-0.4-0.5-0.5-0.7-1.5-0.4-2.3 1.4-4.3 3.3395-8.7088 5.9395-12.409zm5.6605-17.591c-0.6 0.1-0.9 0.6-0.9 1.2 0.5 2.2 2 3.7 1.7 6.2 0 1.2-0.7 2.1-1.2 3-2.3 1.6-5.3 0.5-7.7-0.2-3-0.9-6-1.7-8.9-2.6-0.9-0.4-1.4-1.1-1.6-2-0.5-1.8 0.32038-3.4348 1.5204-4.7348 1.8-0.9 3.8796-1.1652 4.4796-3.2652-0.1-0.5-0.3-0.8-0.9-0.9-3.2 0.4-3.4 5.1-7.2 4.4-1.6 0-2.6-1.2-3.3-2.4-1.2-2.8-0.9-6.2-1.2-9.3-0.2-3.4-1.7-8.2 2.1-10.1 1.5-0.7 3.1-0.5 4.5 0.2 2 1.1 2.6 5.6 5.4 3.2-0.5-3.3-5.3-2.6-5.5-6-0.3-1.6 0-3 1.1-4 2.4-2.4 5.9-2 8.9-3 3.3-1.2 8.8-3.5 11 0.5 1.1 2.6-0.2 5.3-2 6.9-0.2 0.5-0.2 1.2 0.1 1.7 0.4 0.4 1.1 0.7 1.6 0.3 1.8-2.5 0.9-6.9 4.7-7.8 2.4-0.3 4.4 1 5.5 3 1 2.1 2.069 4.7662 3.669 6.6662 1.3 1.9 2.5393 3.7007 1.931 6.1338-0.41231 1.6492-1.6 3.1-3.3 3.3-2 0.2-4.3-1.7-5.8 0.1-0.1 0.7 0.6 0.9 1 1.2 2.3-0.2 5.4-0.7 7.1 0.9 0.9 0.9 0.9 2.3 0.9 3.4-1.7 4.7-5.8 7.8-8.5 11.9-1 0.9-2.3 1.7-3.7 1.8-1.7-0.1-3.2-1.6-3.8-3.2-1.3-2 1.2-5.4-1.7-6.5zm-19.9 4.7c-0.8 0.2-1.8 0.4-2.5 0.1 0.2-1 0.5-2.2 1.2-2.9 0.8 0.2 1.3-0.2 2.1-0.2-0.1 1.1-0.8 1.9-0.8 3zm-2.4-29.6 2.3 0.2 0.5 2.9c-1.2-0.4-2.4183-0.20597-3.267-0.41896 0.1-0.4-0.63302-2.781 0.46698-2.681zm25.053-6.3159c0.7-0.2 1.838-1.102 2.8544-1.3939 0.28597 0.56098 0.59257 2.4098 0.59257 2.8098-0.7 0.6-1.6 0.9-2.3 1.4-0.51216-1.0326-0.76494-1.7515-1.147-2.8159zm17.747 22.416c-0.6 0.7-1.7 1.3-2.7 1.3l-1.7-1.4c0.5-0.7 1.5-1.3 1.9-2 0.9 0.3 2.1 1.1 2.5 2.1zm-9.5 32.9c-1.2-2.6 0.9-4.7 2.3-6.4 0.09557 0.01976 0.22922 0.15018 0.3864 0.2887 0.6-0.5 3.3943-3.4599 4.4284-3.8141l0.44898 0.6189c1.2-0.5 2.2361-1.1935 3.7361-1.3935l0.5 0.4c0.70335-0.41714 3.4776-0.71697 4.3545-0.71665 0.06621 0.06143-0.19922 0.30752-0.15445 0.51665 1.7864 0.41218 3.5869 0.56914 4.9844 1.4867-6.9 1.9-13.784 5.5132-19.184 10.013-0.8 0.2-1.4-0.4-1.8-1zm18.8-3.7507c0.74435-0.1008 0.73936 0.0551 1.5357 0.02-0.5 1.4-1.8711 2.7988-3.3711 3.1988 0.60431 0.37874 0.89371 0.55443 1.2202 0.73167-0.9 1.4-1.83 1.912-3.13 2.812 0.2 0.2 0.28618 0.15167 0.60015 0.32404-1.5829 1.03-3.5549 1.8642-5.2549 2.2642 0.01976 0.23312-0.0011 0.30115 0.09006 0.48544-1.8 0.5-4.1901 1.2146-5.9901 0.51456-1-0.5-1.3-1.6-1.4-2.7l0.4-0.6c5.8-4.4 11.2-9.3 17.8-11.7-0.6 1.8-1.3 3.1493-2.5 4.6493zm-13.4 14.051c1.9-1 4-0.1 5.8 0.9l-0.1 0.6c1.3 0.9 2.8628 2.5627 3.7628 3.7627-0.12387 0.0959-0.21648 0.27073-0.50848 0.38361 0.56379 0.706 0.74567 1.5537 1.0457 2.5537l0.2 2.2c-0.2 0-0.35129 0.014-0.65129 0.014 0.32465 1.4096 0.11873 2.6023 0.05129 4.086-1.9006-4.2952-7.7941-10.345-10.7-12.6 0.1-0.8 0.4-1.6 1.1-1.9zm4 13.9-0.1 1.4c-1.6-0.2-2.9-1.1-4.2-1.8l-0.1 0.6c-1.3-0.4-2.3499-1.1121-3.181-2.6229-0.58874 0.45689-0.31306 0.23103-0.53651 0.43404-0.27368-0.36966-1.1583-2.4384-1.5825-3.7112-0.25636-1.7512 0.03602-3.5297 1.6-4.2 5.7 2 9.9 6.9 13.3 11.3-1.8-0.1-3.7-0.4-5.2-1.4zm-42.4-2.4-0.3-0.5c-1.6 0.8-3.3847 1.9418-5.0847 2.2418 0 0-0.25574-0.24098-0.48689-0.58773-0.60772 0.21565-2.7284 0.54596-3.5284 0.44596l-0.1-0.7c-1.5-0.1-3.2-0.1-4.6-0.5 0.4-0.7 1-0.9 1.6-1.3 4.3-2.6 8.9-4.6 14-5.4 0.9 0 1.2 1.1 1.5 1.7 0.42281 1.4174-1.2 3.8-3 4.6zm-15-5c0.5-1.2 1.5-2.7 2.8-3.4-0.70876-0.51697-0.35345-0.26151-1.2-0.9 1.7-1.9 4.4-1.9 6.6-2.8-0.2-0.5-0.36849-0.71421-0.5-1 2.6-0.9 5.8-0.4 7.5 1.5 0.2 0.5 0.6 1.6-0.1 2-5.5 1.9-10.9 4.7-14.9 8.7 0-1.3 0.7-2.6 1.1-3.8-0.3-0.2-0.89672-0.13909-1.3-0.3zm-5.8-24.9c0.7 1.7 1.3 3.3 2.5 4.7-0.2 0.2-0.35275 0.2716-0.5 0.4 0.4 1.3 3.4588 4.1221 4.5588 4.9221-0.02602 0.24165-0.01845 0.48141-0.0588 0.67788 2 0.9 4.3 1.9 6.6 1.9 2.2-0.1 3.5-1.5 4.5-3.1 3 3 5.3 6.8 6.9 10.6-0.75661-2e-3 -1.3109 0.0497-2.4 0.1 0.1-1.2 0-2.6-1.2-3.3-2.6-1.4-6.4-1.8-9.2-0.8 0 0.4-0.06414 0.55969 0 1.1-2.2 1-4.7 1.9-6.2 3.8 0.3 0.3 0.6 0.6 1 0.8-0.6 1.4-1.9988 2.6486-1.7 4.4 0.28346 0.0674 0.59242 0.25086 0.7 0.3-0.5 1.4-0.7 3-0.8 4.4 1.5 0.2 2.7226 0.54163 4.7 0.8-0.07233 0.13417-0.0431 0.70791-0.0431 0.90791 1.1912-1e-3 2.8982-0.10116 5.2642-0.61757 0.04202 0.1502 0.15604 0.26459 0.29658 0.7604 1.8429-0.36215 4.825-1.9889 4.825-1.9889 0.1393 0.21481 0.02488 0.34838 0.13102 0.67559 1.9-0.7 4.0262-2.5374 4.5262-4.5374 0.5-1.2 0.18568-2.5501-0.79057-3.5414 0.6-0.1 1.8906 0.14144 2.3906 0.34144 2.2 4.1 2.4 9.1 3 13.9-1.4 1.4-3.4 2.3-5.1 3.3-0.8 2.2-0.2 5.1-0.7 7.3h0.3c3.7375-3.0724 7.2279-5.2452 11.206-7.6098 3.9053-2.2388 7.2941-5.4902 11.894-4.1902 0.9 0.2 1.1836 0.48925 1.9 1 0.12126-0.85466 0.2-1.9-0.2-2.6-1.2486-2.4468-3.3511-3.6064-6.5815-2.9771l0.4815-0.52293c3-3 2.6-8.3 6.5-10.6 1.7-0.2 3.6 0.3 4.9 1.2l-1.1 1.9c-0.9 3 0.7 5.7 2.3 7.8 0.32937-0.31117 0.34592-0.2545 0.6246-0.47815 0.8 0.9 2.5831 2.5803 3.5831 3.2803 0.36967-0.25065 0.43043-0.47959 0.63206-0.57146 1.4 0.5 2.9603 1.4693 4.6603 1.2693 0.1-0.2 0.13125-0.5722 0.2-0.9 1.5 0.6 3.3 0.5 4.7 1.1 0.70262-1.2713 0.62947-3.9654 0.42981-5.4255 0.17024 0.0776 0.33105 0.0181 0.58424 0.0588 0.05-0.6-0.46808-4.5703-1.1426-5.4851 0.17681-0.099 0.52021-0.23347 0.71891-0.3455-1.5774-2.5841-2.0682-3.1996-3.8682-4.3996l0.17787-0.50311c-1.8-1.3-3.9-2.6-6.4-2-1.3 0.3-2.3 1.3-3 2.3-1.9306-0.90494-3.6145-1.9005-5.4412-2.4272 1.3-1.3 3.3245-3.6007 4.8245-4.8007 0.22716 1.0372 0.58424 1.9747 0.98423 2.5747 1.4 1.6 5.4852 0.88371 7.974 0.1256-0.01918-0.0778-0.28547-0.58463-0.30877-0.74729 1.7-0.3 4.8807-1.9658 6.3807-2.7658-0.22985-0.23316-0.41746-0.31456-0.61336-0.45934 0.1-0.2 2.2786-2.2517 2.6094-3.0256-0.12359-0.14699-0.31527-0.28773-0.56321-0.414 1.2043-0.57523 2.3538-2.5604 2.6538-3.8604-0.37846-0.13859-0.72916-0.10624-0.99911-0.12357 0.88792-1.1506 1.6282-3.3904 2.3282-4.4904 0 0-3.7124-1.8716-5.3455-1.8267 0.17376-0.29699 0.28705-0.42958 0.30766-0.70576-1.6709-0.33522-4.0028-0.18336-5.59 0.19812-6.87e-4 -0.12862 0.04372-0.58674-0.21405-0.79813-2.262 0.4186-3.5075 1.2652-4.0413 1.6389-0.19366-0.15394-0.356-0.39441-0.53697-0.5035-1.27 0.75709-4.0562 2.8627-4.7246 3.5676-0.13886-0.02268-0.251-0.14124-0.4843-0.1565-1.3 1.1-2.3 2.3-3 3.8-0.6 1.6-0.7 3.7 0.4 5 0.2 0.4 0.9 0.4 0.9 0.99999-2.3 2-4.6 4.2-6.6 6.5l-0.60065 0.61716c0.9-7 1.2463-15.913 0.24625-22.913 1.1581 0.54899 2.2544 0.29636 3.1544-0.30364 1.6-0.9 3-2.5 3.8-4 2-3.3 5.4-5.8 6.8-9.3 0.4-1.2 0.35351-2.1827 0-3.3 1.2-0.6 2.6-1.5 3.2-2.6-0.8-1.2-1.6398-2.0982-3.1-3 1-3.7-1.3-6.8-3.3-9.6-1.6-3.1-1.9834-6.6141-5.6834-7.7141-0.52237-0.2715-1.7977-0.28331-2.2104-0.21622 0.13258-1.704-0.26648-3.1895-0.92581-4.2307-1.6229 0.47017-3.2 1.1617-4.627 2.1084-0.80638-1.2149-3.8534-1.7474-5.9534-1.1474-4.4414 1.6061-9.6 1.9-13.6 4.5-0.9 0.5-1.3 1.8-2.1 2.7-1.3-0.2-3-0.2-4.1 0.4 0 1.3 0.28325 2.4744 0.7 3.8-2.3 1-3.2 3.8-3.3 6.4 0.5 4.5 0.8 9.1 1.6 13.3 0.3 1.5 1.5 2.6 2.6 3.5l-0.9 3.7c1.1 0.8 2.6-0.1 4 0.5 0.6 1.6 1.9 2.6 3.4 3 5.6 0.5 11 5.4 16.5 1.9 0.9 2.6 0.80948 5.9882 0.8 9-0.01328 4.219-0.4 8.6-1.2 12.6-1.1 6.8-4.2 13-8.9 18-0.2 0.1-0.3-0.10001-0.4-0.2-0.6-3.4-1.5264-6.6168-2.9-10-1.683-3.004-0.9-5.5-0.2-7.8 0.5 0.5 1.2 1.1 1.9 1.2 2.4 0 4.6168-2.1088 5.9168-3.9088-0.20995-0.11366-0.54988-0.20531-0.68959-0.3208 0.7-0.5 1.875-3.6495 2.014-4.8606-0.42677-0.0653-0.65293-0.0769-0.89845-0.12277 0.13405-0.5201 0.28757-2.4575 0.19732-3.8353-0.16674-9e-3 -0.42584-0.0371-0.64003-0.0516-0.2-1.4-0.5-2.8 0-4.1-2.2-0.5-4.3 0.5-6.1 1.5l-0.6-1.6c-1.3 1.5-3.3 2.3-4 4.3l-1-0.5c-0.7 2.4-1.7 4.8-1.3 7.5 0.5 1.6 1.6 2.3 2.9 3l-0.8 2.4h-0.2c-2.2-3.4-4.6245-7.124-7.5245-10.124 0.61787-0.59052 0.82451-0.77597 1.2245-1.476 0.9-1.9 0.5-3.7-0.1-5.8-0.7-1.9-1.8-4-3.5-4.8-0.2 0.3-0.32294 0.6385-0.4 0.8-1.6-1.5-3.4992-2.2894-5.8-3.4l-0.5 1.2c-1.6-0.9-3.8-1.1-5.8-0.9 0 0.4 0.14746 0.6672 0.23378 1.0098-1.9 0.2-4.2338 0.29017-5.8338 1.3902 0.5 1.6 1.4 3.2 1.7 4.9z"/>
   <path d="m48.964 73.06c-0.3 0.2-1 0-0.9 0.6 0.5 0.4 0.2 1.2-0.2 1.6s-1.2 0.3-1.6 0.1l-0.4-0.3c-0.5 0.4-0.4 1.2-1.2 1.2-1.3 0.2-0.8-2.2-2.3-1.3-0.4 0.1-0.9-0.3-1.2-0.8-0.5-0.9 1.1-1.5-0.1-2-0.3-0.5-0.6-1-0.2-1.6 0.4-0.2 0.9-0.5 1.3-0.4 0.1-0.7-0.3-1.5 0.3-1.9 0.5-0.2 0.9 0.1 1.3 0.4 0.2-1.1 2.1-1.6 2.5-0.5-0.1 0.3 0.2 0.5 0.1 0.9 0.5 0 1.2-0.6 1.9-0.1 0.5 0.2 0.3 1 0.3 1.5-0.3 0.2-0.5 0.3-0.5 0.7 0.5 0 1.3 0.2 1.4 0.8 0.2 0.3 0.1 0.9-0.5 1.1m0.4-2.7c0.1-0.5 0.4-1.2 0-1.6-0.4-0.6-1.2-0.9-2.1-0.9-0.5-0.7-1.2-1.6-2.3-1.2-0.7 1-1.7 0.2-2.6 0.7-0.6 0.3-0.8 1-0.8 1.7-0.2 0.8-1.2 0.6-1.4 1.3-0.2 0.9-0.1 1.6 0.5 2.1 0.1 0.8-0.7 1.6 0.1 2.2 0.5 0.5 1.4 0.9 2.1 0.6 0.3 0.6 0.7 1.3 1.5 1.5 1.2 0.5 1.6-1.5 2.7-0.6 0.9 0.2 1.6-0.4 1.7-1.2-0.1-1 0.9-1.6 1.5-2.1 0.5-1-0.2-1.9-0.9-2.5"/>
   <path d="m49.264 76.26c-0.1 0.6-0.1 1.6-0.9 1.9-0.7 0.2-1.2-0.3-1.7-0.8-0.3 0.5-0.2 1.2-0.8 1.4s-1.1 0.2-1.5-0.2l-0.4-0.9c-0.5 0.4-1 1.3-1.9 0.9-1.7-0.1 0.2-3.6-1.9-1.6-0.5-0.1-1-0.5-1.2-1.1-0.3-0.8 0.5-1.1 0.9-1.6-0.7-0.2-1.6-0.4-1.9-1.2 0.2-0.7 0.3-1.5 1-1.9-0.5-0.5-0.7-1.5-0.4-2.3 0.1-0.8 0.9-0.5 1.3-0.7 0-0.6 0-1.5 0.5-1.7s1.1-0.2 1.5 0c0.2-0.5 0.5-1.2 1-1.5 0.6 0.1 1.4 0.4 1.5 1.1 0.3-0.6 0.6-1.2 1.4-1.2s1.4 0.5 1.6 1.2c0.7-0.3 1.6-0.2 2 0.3 0.3 0.4 0.5 1 0.2 1.5 0.8 0.2 1.6 0.2 1.9 0.9 0.1 0.7 0.1 1.6-0.7 2.1 0.7 0.5 1.4 1.1 1.3 2.1-0.1 0.9-1.7 0.9-0.8 1.9-0.1 0.6-0.2 1.2-0.9 1.4zm2.8-1.2c-1-1.4 1.1-1.4 0.9-2.7-0.2-0.7-0.6-1.2-1.2-1.6-0.2-0.9 0.73444-1.2749 0.59941-1.9372-0.2061-1.0109-2.3994-0.86277-1.9994-2.3628-0.1-0.5-0.5-0.9-1-1.1-1.8 0.6-2-1.2-3.6-1.2-1.1 0.5-1.8 0.3-2.9 0.2-0.9 0.1-1.2 0.9-1.6 1.4-0.8 0.1-1.8 0-2 0.9 0.1 1.6-2.1 1.4-1.9 2.9 0 0.9 1.2 1.6 0 2.3-0.5 1.2 0.2 2.3 1.2 2.7 0.1 0.5-0.4 1.2-0.2 1.8 0.3 1.6 2.6 0.5 2.6 2.3 0.4 0.5 1.1 0.9 1.9 0.7 0.5 0.1 1.2-0.9 1.5 0 0.4 0.4 1.2 0.5 1.8 0.2 0.7-0.8 1.6-1.1 2.6-0.9 1.4-0.1 0.5-2.1 1.9-1.9 1-0.1 1.2-1 1.4-1.7z"/>
  </g>
 </g>
 <path d="m6.21 6h609.82l-14.755 429.83c-14.754 162.29-127.87 275.4-290.16 275.4s-275.4-113.11-290.16-275.4z" fill="none" stroke="#000" stroke-miterlimit="7.5" stroke-width="12"/>
</svg>
