<?xml version="1.0" encoding="UTF-8"?>
<svg width="622.24" height="717.23" version="1.1" xmlns="http://www.w3.org/2000/svg">
 <path d="m6.21 6h609.82l-14.755 429.83c-14.754 162.29-127.87 275.4-290.16 275.4s-275.4-113.11-290.16-275.4z" fill="#feeb00" stroke="#000" stroke-miterlimit="7.5" stroke-width="12"/>
 <g transform="translate(-16.801 -62.851)">
  <path d="m102 124 4 66h140l4-66h-29v36h-30v-36h-30v36h-30v-36z"/>
  <path d="m119 197v335h114v-335zm57 15.158c17.642 0 17.682 21.699 17.682 21.699v32.988h-35.363v-32.988s0.0391-21.699 17.682-21.699zm-17.682 58.887h35.363v11.537h-35.363zm17.682 90.422c17.643 0 17.682 21.699 17.682 21.699v32.988h-35.363v-32.988s0.0391-21.699 17.682-21.699zm-17.682 58.887h35.363v11.537h-35.363z"/>
  <path d="m102.26 537.17v32.236h451.32v-32.236h-225.66z"/>
  <path d="m258.12 234.2v28.738h-18.299v269.06h16.451v-142.89a71.654 71.654 0 0 1 71.654-71.654 71.654 71.654 0 0 1 71.652 71.654v142.89h16.451v-269.06h-18.299v-28.738h-30.354v28.738h-24.275v-28.738h-30.354v28.738h-24.275v-28.738z"/>
  <path d="m553.84 124-4 66h-140l-4-66h29v36h30v-36h30v36h30v-36z"/>
  <path d="m536.84 197v335h-114v-335zm-57 15.158c-17.642 0-17.682 21.699-17.682 21.699v32.988h35.363v-32.988s-0.0391-21.699-17.682-21.699zm17.682 58.887h-35.363v11.537h35.363zm-17.682 90.422c-17.643 0-17.682 21.699-17.682 21.699v32.988h35.363v-32.988s-0.0391-21.699-17.682-21.699zm17.682 58.887h-35.363v11.537h35.363z"/>
  <path d="m326.78 321.47c-5.5532 0.10574-11.097 0.88606-16.461 2.3301-0.37262 0.11225-1.1164 0.31277-1.6309 0.46484-14.131 4.1528-26.789 13.089-35.434 25.014-8.2528 11.27-12.838 25.152-12.969 39.117-0.0497 35.088-8e-3 70.177-0.0215 105.27v38.338h12v-16c4e-3 -41.43 8e-3 -82.861 0.0117-124.29-0.34348-9.8929 1.8423-19.885 6.4785-28.645 0.93555-1.7731 2.1285-3.7602 3.3398-5.5059 9.9688-14.69 27.384-23.96 45.129-24.088 3.1452-0.0405 6.2946 0.17694 9.4004 0.67774 1.5566 0.23785 3.2326 0.59694 4.6758 0.94922 2.7932 0.69483 5.5339 1.6045 8.1856 2.7246 0.49349 0.2 1.1971 0.52014 1.541 0.67187 2.5158 1.1509 4.949 2.4835 7.2656 3.9961 7.4164 4.7947 13.633 11.404 17.971 19.096 0.26213 0.45745 0.64509 1.1718 0.81055 1.4746 3.78 7.154 6.04 15.128 6.4121 23.219 0.1232 43.24 0.0779 86.48 0.0859 129.72h2e-3v16h12v-4h-2e-3c-3e-3 -46.783 0.0142-93.567-0.0215-140.35-0.22547-12.113-3.8499-24.123-10.256-34.396-0.28177-0.44607-0.75042-1.1902-1.125-1.7383-9.002-13.564-23.091-23.631-38.83-27.781-6.0424-1.6153-12.306-2.373-18.559-2.2637z"/>
  <path d="m362.74 351.82c-0.88792 0-2.1348 8.1758-2.1348 8.1758l0.0273 6.6777c-2.6533-1.4964-5.7646-3.5002-9.6406-6.3535-3.1334 7.4802-2.6696 15.309-0.44141 23.311 3.2694-2.4336 6.6555-4.4094 10.125-6.0606l0.56055 139.09c0.50983 1.0116 3.2708 3.4295 5.4824 4.9336l-1.668-145.92c3.0588-1.215 6.1701-2.2291 9.3106-3.125-3.1977-1.2952-5.9535-2.0995-9.3887-3.6582l-0.10153-8.8887s-1.2524-8.1758-2.1309-8.1758z" stroke="#000" stroke-width=".1"/>
  <path class="UnoptimicedTransforms" d="m327.92 342.78a12.019 20.394 0 0 0-12.02 20.395 12.019 20.394 0 0 0 0.0274 0.71094h-0.22071c-0.40585 0-0.73242 0.32852-0.73242 0.73437v4.6524c0 0.40586 0.32657 0.73242 0.73242 0.73242h0.91407a12.019 20.394 0 0 0 5.2715 10.809c-0.38364 0.0897-0.78089 0.22731-1.1934 0.44141-6.0927 3.1625-8.7256 2.8529-12.393 2.9688-3.7158 0.11744-5.3047 1.9376-6.8496 4.7949-1.2945 2.3942-7.2471 15.347-10.594 21.453-2.7865 5.0843 2.4195 8.7112 4.4356 10.279 2.0161 1.5681 2.19 2.2202 2.4141 4.4043 0.22401 2.1841-0.96875 3.2391-0.96875 5.3672 0 2.1281 2.0879 2.2363 2.0879 2.2363l4.7324-0.0527 0.0781 2.4941-27.73 76.451c-0.167 0.54387 0.66852 1.2511 2.666 1.0078 1.4098-0.17169 2.1003-1.3338 2.6172-2.3008l18.436-49s3.5276 0.43728 3.4512 1.7148c-0.12239 2.0471 3.1367 3.6289 3.1367 3.6289s-1.9602 8.3759-2.2402 12.912c-0.28002 4.5362-0.0274 8.7031-0.0274 8.7031s-1.5485 5.1735-2.3066 8.7422c-1.318 6.2045 0.31109 13.757-2.2734 19.92-1.0982 2.6187-1.4952 3.429-5.3594 6.6211-3.8642 3.1921-8.8218 5.1236-10.922 5.7676-2.1001 0.64399-1.6953 2.6367-1.6953 2.6367h26.609s0.0247-2.2831 0-3.4238c-0.0569-2.6338-1.7209-4.476-0.33984-7.8945 1.633-4.042 3.7322-9.7787 6.123-16.201 1.9288-5.1813 2.4212-5.699 2.9707-8.7207 0.51676-2.8414 0.7744-5.1729 0.27148-8.6602 4.5346-9.6404 8.082-16.63 8.082-22.021 0-1.1431 0.79171-2.8496 2.8086-2.8496 2.0169 0 2.8066 1.7065 2.8066 2.8496 0 5.3918 3.5474 12.381 8.082 22.021-0.50292 3.4873-0.24528 5.8188 0.27148 8.6602 0.54955 3.0217 1.0439 3.5394 2.9727 8.7207 2.3908 6.4225 4.4901 12.159 6.123 16.201 1.3811 3.4185-0.28489 5.2607-0.34179 7.8945-0.0247 1.1408 0 3.4238 0 3.4238h26.611s0.40283-1.9927-1.6973-2.6367c-2.1001-0.64403-7.0577-2.5754-10.922-5.7676-3.8642-3.1921-4.2611-4.0024-5.3594-6.6211-2.5845-6.1627-0.95344-13.715-2.2715-19.92-0.75811-3.5687-2.3086-8.7422-2.3086-8.7422s0.25268-4.1669-0.0273-8.7031c-0.28001-4.5362-2.4453-13.893-2.4453-13.893s3.5434-0.79324 3.25-4.668c-0.27746-3.6644-3.4258-14.195-3.4258-14.195s-1.9541-7.6089-5.666-14.57c-1.1126-2.0865-2.1089-3.803-2.0703-5.8809 0.0886-4.7645 0.78051-11.951 1.1602-13.762 0.17977-0.8576 1.1667-2.6557 3.123-0.79882 3.0491 2.8941 7.1126 8.9762 8.4844 10.109 1.4633 1.2088 2.1627 1.7767 3.668 0.44727 3.1458-2.7783 7.1871-9.712 10.584-17.584 1.675-3.8818 1.5964-8.248 0.5332-11.006-1.5671-4.065-3.1359-8.2844-7.0352-10.324-2.9716-1.5546-3.4029-2.0794-4.2773 0.63281-1.7338 5.3777-1.827 6.8814 0.76172 8.666 2.2065 1.521 4.1546 3.4059 3.9512 6.5684-0.1912 2.972-2.909 4.9178-4.8066 5.7324-0.46563 0.19989-1.8652 0.63372-2.6699-0.70703-1.2477-2.0786-3.7317-9.3308-6.6621-13.449-2.9304-4.1184-7.827-7.6103-13.883-9.3574-0.38794-0.11192-0.75908-0.17544-1.123-0.22461a12.019 20.394 0 0 0 5.7461-10.545c8e-3 2.8e-4 0.0169 2e-3 0.0254 2e-3h1.0488c0.40586 0 0.73242-0.32851 0.73242-0.73437v-4.6523c0-0.40586-0.32656-0.73243-0.73242-0.73243h-0.25195a12.019 20.394 0 0 0 0.0586-1.5137 12.019 20.394 0 0 0-12.018-20.395zm-9.9609 18.609h19.922c7e-3 0.12739 0.018 0.29154 0.0254 0.40039 0.16146 4.8478-0.60889 9.8219-2.8633 14.158-1.311 2.3689-3.1898 4.77-5.9355 5.4609-2.4235 0.62297-4.8382-0.80827-6.3594-2.6152-2.6847-3.1147-3.947-7.1961-4.5371-11.203-0.27048-2.0448-0.36122-4.1287-0.25195-6.2012z"/>
  <rect x="320.01" y="365.78" width="5.0292" height="1.782" rx=".73259" ry=".73259"/>
  <rect x="330.81" y="365.96" width="5.0292" height="1.782" rx=".73259" ry=".73259"/>
  <rect x="324.79" y="375.48" width="6.2568" height="1.7424" rx=".73259" ry=".73259"/>
  <rect x="326.07" y="371.56" width="3.6928" height="1.188" rx=".73259" ry=".73259"/>
 </g>
</svg>
