<?xml version="1.0" encoding="UTF-8"?>
<svg width="566.94pt" height="638.07pt" version="1.1" viewBox="0 0 566.94 638.07" xmlns="http://www.w3.org/2000/svg"><clipPath id="a"><path d="m0 414h566.94v163h-566.94z"/></clipPath><clipPath id="b"><path d="m13 461h540v177.07h-540z"/></clipPath><clipPath id="c"><path d="m0 162h566.94v368h-566.94z"/></clipPath><clipPath id="d"><path d="m0 0h566.94v448h-566.94z"/></clipPath><clipPath id="e"><path d="m0 0h566.94v638h-566.94z"/></clipPath><path d="m447.76 519.61-71.691-0.0312c9.5352-3.0703 18.816-6.5742 30.895-7.1719 17.707-0.85938 28.625 3.668 40.797 7.2031" fill="#fff" fill-rule="evenodd"/><path d="m447.76 519.61-71.691-0.0312c9.5352-3.0703 18.816-6.5742 30.895-7.1719 17.707-0.85938 28.625 3.668 40.797 7.2031z" fill="none" stroke="#211e1e" stroke-miterlimit="10" stroke-width="3.6"/><path d="m533.95 465.1c-2.4727 5.6172-5.1016 11.082-7.8359 16.402-6.2617 12.18-13.719 23.402-21.453 34.301-0.91016 1.2812-1.8398 2.5664-2.7774 3.8281-9.6758 3.4141-21.492 5.3516-38.41 3.3438-5.7774-0.6875-10.848-1.9492-15.715-3.3633-12.172-3.5352-23.09-8.0625-40.797-7.2031-12.078 0.59765-21.359 4.1016-30.895 7.1719h-0.0312c-9.7148 3.1406-19.684 5.8477-33.199 4.5664-7.7774-0.73828-14.805-2.5781-21.723-4.5859h-0.043c-12.969-3.7695-25.52-8.1602-41.73-7.1523-6.332 0.39453-11.969 1.7188-17.191 3.3633-0.39453 0.12109-0.77735 0.24218-1.1524 0.36328-3.332 1.082-6.5039 2.2734-9.5938 3.4023-4.7656 1.75-9.332 3.3672-13.969 4.2148-12.262 2.2422-28.039 1.6133-37.461-0.39454-4.6172-0.98046-8.5664-2.3828-12.445-3.8476h-0.02736c-9.5352-3.5664-18.535-7.5234-35.148-6.707-10.988 0.54687-20.172 3.7148-29.664 6.6875-8.7773 2.7344-17.797 5.3125-28.754 5.4336-12.445 0.14844-21.273-2.1328-29.09-5.4531-12.391-16.332-23.117-34.32-31.855-54.199 2.082 0.12109 4.2031 0.32422 6.3438 0.61718 17.441 2.3828 28.824 11.039 48.895 12.121 28.512 1.5234 37.602-11.184 62.852-11.727 25.918-0.56641 41.523 8.8047 63.5 12.117 23.23 3.4961 42.793-11.199 65.398-11.734 27.773-0.64453 41.539 12.625 73.012 11.344 22.34-0.91016 37.379-12.414 58.418-12.121 28.594 0.39454 44.418 17.562 79.367 11.332 13.008-2.3125 24.812-9.9805 38.73-11.727 1.4844-0.17968 2.9726-0.32422 4.4453-0.39453" fill="#0093dd" fill-rule="evenodd"/><g clip-path="url(#a)"><path transform="matrix(.1 0 0 -.1 0 638.07)" d="m5339.5 1729.7c-24.727-56.172-51.016-110.82-78.359-164.02-62.617-121.8-137.19-234.02-214.53-343.01-9.1016-12.812-18.398-25.664-27.774-38.281-96.758-34.141-214.92-53.516-384.1-33.438-57.774 6.875-108.48 19.492-157.15 33.633-121.72 35.352-230.9 80.625-407.97 72.031-120.78-5.9765-213.59-41.016-308.95-71.719h-0.3125c-97.148-31.406-196.84-58.477-331.99-45.664-77.774 7.3828-148.05 25.781-217.23 45.859h-0.4297c-129.69 37.695-255.2 81.602-417.3 71.523-63.32-3.9453-119.69-17.188-171.91-33.633-3.9453-1.2109-7.7735-2.4218-11.524-3.6328-33.32-10.82-65.039-22.734-95.938-34.023-47.656-17.5-93.32-33.672-139.69-42.148-122.62-22.422-280.39-16.133-374.61 3.9454-46.172 9.8046-85.664 23.828-124.45 38.476h-0.2734c-95.352 35.664-185.35 75.234-351.48 67.07-109.88-5.4687-201.72-37.148-296.64-66.875-87.773-27.344-177.97-53.125-287.54-54.336-124.45-1.4844-212.73 21.328-290.9 54.531-123.91 163.32-231.17 343.2-318.55 541.99 20.82-1.2109 42.031-3.2422 63.438-6.1718 174.41-23.828 288.24-110.39 488.95-121.21 285.12-15.234 376.02 111.84 628.52 117.27 259.18 5.6641 415.23-88.047 635-121.17 232.3-34.961 427.93 111.99 653.98 117.34 277.73 6.4453 415.39-126.25 730.12-113.44 223.4 9.1016 373.79 124.14 584.18 121.21 285.94-3.9454 444.18-175.62 793.67-113.32 130.08 23.125 248.12 99.805 387.3 117.27 14.844 1.7968 29.726 3.2422 44.453 3.9453z" fill="none" stroke="#211e1e" stroke-miterlimit="10" stroke-width="36"/></g><path d="m187.5 519.51-64.812-0.0195c9.4922-2.9727 18.676-6.1406 29.664-6.6875 16.613-0.81641 25.613 3.1406 35.148 6.707" fill="#fff" fill-rule="evenodd"/><path d="m187.5 519.51-64.812-0.0195c9.4922-2.9727 18.676-6.1406 29.664-6.6875 16.613-0.81641 25.613 3.1406 35.148 6.707z" fill="none" stroke="#211e1e" stroke-miterlimit="10" stroke-width="3.6"/><path d="m321.07 519.56-69.668-0.0234c3.0898-1.1289 6.2617-2.3203 9.5938-3.4023 0.375-0.1211 0.75782-0.24219 1.1524-0.36328 5.2226-1.6445 10.859-2.9688 17.191-3.3633 16.211-1.0078 28.762 3.3828 41.73 7.1523" fill="#fff" fill-rule="evenodd"/><path d="m321.07 519.56-69.668-0.0234c3.0898-1.1289 6.2617-2.3203 9.5938-3.4023 0.375-0.1211 0.75782-0.24219 1.1524-0.36328 5.2226-1.6445 10.859-2.9688 17.191-3.3633 16.211-1.0078 28.762 3.3828 41.73 7.1523z" fill="none" stroke="#211e1e" stroke-miterlimit="10" stroke-width="3.6"/><path d="m447.76 519.61-71.691-0.0312c9.5352-3.0703 18.816-6.5742 30.895-7.1719 17.707-0.85938 28.625 3.668 40.797 7.2031" fill="#fff" fill-rule="evenodd"/><path d="m447.76 519.61-71.691-0.0312c9.5352-3.0703 18.816-6.5742 30.895-7.1719 17.707-0.85938 28.625 3.668 40.797 7.2031z" fill="none" stroke="#211e1e" stroke-miterlimit="10" stroke-width="3.6"/><path d="m187.5 519.51-64.812-0.0195c9.4922-2.9727 18.676-6.1406 29.664-6.6875 16.613-0.81641 25.613 3.1406 35.148 6.707" fill="#fff" fill-rule="evenodd"/><path d="m187.5 519.51-64.812-0.0195c9.4922-2.9727 18.676-6.1406 29.664-6.6875 16.613-0.81641 25.613 3.1406 35.148 6.707z" fill="none" stroke="#211e1e" stroke-miterlimit="10" stroke-width="3.6"/><path d="m321.07 519.56-69.668-0.0234c3.0898-1.1289 6.2617-2.3203 9.5938-3.4023 0.375-0.1211 0.75782-0.24219 1.1524-0.36328 5.2226-1.6445 10.859-2.9688 17.191-3.3633 16.211-1.0078 28.762 3.3828 41.73 7.1523" fill="#fff" fill-rule="evenodd"/><path d="m321.07 519.56-69.668-0.0234c3.0898-1.1289 6.2617-2.3203 9.5938-3.4023 0.375-0.1211 0.75782-0.24219 1.1524-0.36328 5.2226-1.6445 10.859-2.9688 17.191-3.3633 16.211-1.0078 28.762 3.3828 41.73 7.1523z" fill="none" stroke="#211e1e" stroke-miterlimit="10" stroke-width="3.6"/><path d="m447.76 519.61-71.691-0.0312" fill="none" stroke="#211e1e" stroke-miterlimit="10" stroke-width="3.6"/><path d="m501.88 519.63c-14.91 20.18-32.555 37.703-52.246 52.652-21.324 16.18-44.461 29.684-71.875 39.75-27.219 10.012-58.438 16.727-94.789 16.727-18.352 0-35.398-1.8281-51.012-4.8477-15.516-3-30.121-6.9688-43.633-12.117-26.949-10.254-50.934-23.535-71.629-39.875-19.352-15.281-36.836-32.637-51.855-52.449 7.8164 3.3203 16.645 5.6016 29.09 5.4531 10.957-0.12109 19.977-2.6992 28.754-5.4336 9.4922-2.9727 18.676-6.1406 29.664-6.6875 16.613-0.81641 25.613 3.1406 35.148 6.707h0.0273c3.8789 1.4648 7.8281 2.8672 12.445 3.8476 9.4219 2.0078 25.199 2.6367 37.461 0.39454 4.6367-0.84766 9.2031-2.4648 13.969-4.2148 3.0898-1.1289 6.2617-2.3203 9.5938-3.4023 0.375-0.1211 0.75782-0.24219 1.1524-0.36328 5.2226-1.6445 10.859-2.9688 17.191-3.3633 16.211-1.0078 28.762 3.3828 41.73 7.1523h0.043c6.918 2.0078 13.945 3.8477 21.723 4.5859 13.516 1.2812 23.484-1.4258 33.199-4.5664h0.0312c9.5352-3.0703 18.816-6.5742 30.895-7.1719 17.707-0.85938 28.625 3.668 40.797 7.2031 4.8672 1.4141 9.9375 2.6758 15.715 3.3633 16.918 2.0078 28.734 0.0703 38.41-3.3438" fill="#fff" fill-rule="evenodd"/><g clip-path="url(#b)" stroke="#000"><path transform="matrix(.1 0 0 -.1 0 638.07)" d="m5018.8 1184.4c-149.1-201.8-325.55-377.03-522.46-526.52-213.24-161.8-444.61-296.84-718.75-397.5-272.19-100.12-584.38-167.27-947.89-167.27-183.52 0-353.98 18.281-510.12 48.477-155.16 30-301.21 69.688-436.33 121.17-269.49 102.54-509.34 235.35-716.29 398.75-193.52 152.81-368.36 326.37-518.55 524.49 78.164-33.203 166.45-56.016 290.9-54.531 109.57 1.2109 199.77 26.992 287.54 54.336 94.922 29.727 186.76 61.406 296.64 66.875 166.13 8.1641 256.13-31.406 351.48-67.07h0.2734c38.789-14.648 78.281-28.672 124.45-38.476 94.219-20.078 251.99-26.367 374.61-3.9454 46.367 8.4766 92.031 24.648 139.69 42.148 30.898 11.289 62.617 23.203 95.938 34.023 3.75 1.211 7.5782 2.4219 11.524 3.6328 52.226 16.445 108.59 29.688 171.91 33.633 162.11 10.078 287.62-33.828 417.3-71.523h0.4297c69.18-20.078 139.45-38.477 217.23-45.859 135.16-12.812 234.84 14.258 331.99 45.664h0.3125c95.352 30.703 188.16 65.742 308.95 71.719 177.07 8.5938 286.25-36.68 407.97-72.031 48.672-14.141 99.375-26.758 157.15-33.633 169.18-20.078 287.34-0.7031 384.1 33.438z" fill="none" stroke="#000" stroke-miterlimit="10" stroke-width="36"/></g><path d="m554.82 391.64c-0.23047 1.6992-0.48438 3.375-0.7461 5.0391-3.9609 25.453-11.09 47.957-20.129 68.418-1.4727 0.0703-2.9609 0.21485-4.4453 0.39453-13.918 1.7461-25.723 9.4141-38.73 11.727-34.949 6.2305-50.773-10.938-79.367-11.332-21.039-0.29296-36.078 11.211-58.418 12.121-31.473 1.2812-45.238-11.988-73.012-11.344-22.605 0.53515-42.168 15.23-65.398 11.734-21.977-3.3125-37.582-12.684-63.5-12.117-25.25 0.54296-34.34 13.25-62.852 11.727-20.07-1.082-31.453-9.7383-48.895-12.121-2.1406-0.29296-4.2617-0.49609-6.3438-0.61718-3.332-7.6055-6.3828-15.484-9.1289-23.645-4.6875-13.957-8.4727-28.855-11.031-44.844-0.26172-1.6758-0.51172-3.3711-0.73438-5.0898l31.219-61.531h-20.484l29.434-57.992h-17.574l29.652-58.418 29.645 58.418h-17.566l29.422 57.992h-20.473l31.219 61.523 2.5352 4.9961 33.754-66.52h-20.48l29.43-57.992h-17.562l29.645-58.418 29.641 58.418h-17.562l29.422 57.992h-20.473l31.207 61.512 2.5469 5.0078 2.543-5.0078 31.211-61.512h-20.473l29.422-57.992h-17.566l29.645-58.418 29.645 58.418h-17.562l29.418 57.992h-20.473l31.211 61.5 2.5469 5.0195 2.543-5.0195 31.211-61.5h-20.477l29.422-57.992h-17.562l29.645-58.418 29.645 58.418h-17.566l29.422 57.992h-20.473l31.199 61.492 2.5547 5.0273 2.5547-5.0273 31.199-61.492h-20.473l29.422-57.992h-17.566l29.645-58.418 29.645 58.418h-17.562l29.422 57.992h-20.473z" fill="#fff" fill-rule="evenodd"/><g clip-path="url(#c)" stroke="#000"><path transform="matrix(.1 0 0 -.1 0 638.07)" d="m5548.2 2464.3c-2.3047-16.992-4.8438-33.75-7.461-50.391-39.609-254.53-110.9-479.57-201.29-684.18-14.727-0.7031-29.609-2.1485-44.453-3.9453-139.18-17.461-257.23-94.141-387.3-117.27-349.49-62.305-507.73 109.38-793.67 113.32-210.39 2.9296-360.78-112.11-584.18-121.21-314.73-12.812-452.38 119.88-730.12 113.44-226.05-5.3515-421.68-152.3-653.98-117.34-219.77 33.125-375.82 126.84-635 121.17-252.5-5.4296-343.4-132.5-628.52-117.27-200.7 10.82-314.53 97.383-488.95 121.21-21.406 2.9296-42.617 4.9609-63.438 6.1718-33.32 76.055-63.828 154.84-91.289 236.45-46.875 139.57-84.727 288.55-110.31 448.44-2.6172 16.758-5.1172 33.711-7.3438 50.898l312.19 615.31h-204.84l294.34 579.92h-175.74l296.52 584.18 296.45-584.18h-175.66l294.22-579.92h-204.73l337.54-665.2 337.54 665.2h-204.8l294.3 579.92h-175.62l296.45 584.18 296.41-584.18h-175.62l294.22-579.92h-204.73l312.07-615.12 25.469-50.078 25.43 50.078 312.11 615.12h-204.73l294.22 579.92h-175.66l296.45 584.18 296.45-584.18h-175.62l294.18-579.92h-204.73l312.11-615 25.469-50.195 25.43 50.195 312.11 615h-204.77l294.22 579.92h-175.62l296.45 584.18 296.45-584.18h-175.66l294.22-579.92h-204.73l311.99-614.92 25.547-50.273 25.547 50.273 311.99 614.92h-204.73l294.22 579.92h-175.66l296.45 584.18 296.45-584.18h-175.62l294.22-579.92h-204.73z" fill="none" stroke="#000" stroke-miterlimit="10" stroke-width="36"/></g><path d="m557.38 345.4c0 9.5117 0 18.574-0.60937 27.27-0.45313 6.5039-1.1094 12.824-1.9492 18.977l-31.195-61.48h20.473l-29.422-57.992h17.562l-29.645-58.418-29.645 58.418h17.566l-29.422 57.992h20.473l-31.199 61.492-2.5547 5.0273-2.5547-5.0273-31.199-61.492h20.473l-29.422-57.992h17.566l-29.645-58.418-29.645 58.418h17.562l-29.422 57.992h20.477l-31.211 61.5-2.543 5.0195-2.5469-5.0195-31.211-61.5h20.473l-29.418-57.992h17.562l-29.645-58.418-29.645 58.418h17.566l-29.422 57.992h20.473l-31.211 61.512-2.543 5.0078-2.5469-5.0078-31.207-61.512h20.473l-29.422-57.992h17.562l-29.641-58.418-29.645 58.418h17.562l-29.43 57.992h20.48l-33.754 66.52-33.754-66.52h20.473l-29.422-57.992h17.566l-29.645-58.418-29.652 58.418h17.574l-29.434 57.992h20.484l-31.219 61.531c-1.9805-14.695-2.5352-30.48-2.5352-47.391v-334.63c-0.011719-0.16016-0.019532-0.34375 0.12109-0.36328h538.25c2.9258 0 7.1289 0 9.4297 0.011718 0 0 0.0117 2.6641 0.0117 5.918 0 3.25 0.0117 7.1016 0.0117 9.4648-0.0234 106.77 8e-3 213.9 0 320.7" fill="#0093dd" fill-rule="evenodd"/><g clip-path="url(#d)" stroke="#000"><path transform="matrix(.1 0 0 -.1 0 638.07)" d="m5573.8 2926.7c0-95.117 0-185.74-6.0937-272.7-4.5313-65.039-11.094-128.24-19.492-189.77l-311.95 614.8h204.73l-294.22 579.92h175.62l-296.45 584.18-296.45-584.18h175.66l-294.22-579.92h204.73l-311.99-614.92-25.547-50.273-25.547 50.273-311.99 614.92h204.73l-294.22 579.92h175.66l-296.45 584.18-296.45-584.18h175.62l-294.22-579.92h204.77l-312.11-615-25.43-50.195-25.469 50.195-312.11 615h204.73l-294.18 579.92h175.62l-296.45 584.18-296.45-584.18h175.66l-294.22-579.92h204.73l-312.11-615.12-25.43-50.078-25.469 50.078-312.07 615.12h204.73l-294.22 579.92h175.62l-296.41 584.18-296.45-584.18h175.62l-294.3-579.92h204.8l-337.54-665.2-25.352 49.961-312.19 615.23h204.73l-294.22 579.92h175.66l-296.45 584.18-296.52-584.18h175.74l-294.34-579.92h204.84l-312.19-615.31c-19.805 146.95-25.352 304.8-25.352 473.91v3346.3c-0.11719 1.6016-0.19531 3.4375 1.2109 3.6329h5382.5c29.258 0 71.289 0 94.297-0.1172 0 0 0.1172-26.641 0.1172-59.18 0-32.5 0.1172-71.016 0.1172-94.648-0.2344-1067.7 0.078-2139 0-3207z" fill="none" stroke="#000" stroke-miterlimit="10" stroke-width="36"/></g><g clip-path="url(#e)"><path d="m566.9 362.46h-0.1211c-2.4961 66.82-23.863 116.25-52.918 157.08-9.707 13.637-20.473 26.473-32.281 37.68-23.863 22.652-50.809 42.23-83.398 56.52-32.602 14.297-69.875 23.992-115.92 24-45.777 8e-3 -83.34-10.348-115.2-24.719-31.992-14.43-59.836-33.914-82.918-57-23.297-23.293-43.168-50.297-57.84-82.082-14.723-31.895-25.078-68.957-26.281-113.64 0.082031-120.05-0.16016-240.39 0.12109-360.24h564.36c0.39844 0 1.9414 0.011719 2.3945 0l8e-3 0.35937zm-554.64-349.8v331.32c0 18.68 0.6875 35.988 3.2383 51.957 2.5273 15.832 6.2812 30.582 10.918 44.402 18.418 54.848 50.945 96.648 91.922 129 20.496 16.18 44.242 29.324 70.922 39.48 13.383 5.0976 27.844 9.0312 43.199 11.996 15.457 2.9961 32.344 4.8047 50.516 4.8008 35.984 0 66.895-6.6562 93.84-16.559 27.148-9.9727 50.055-23.34 71.16-39.359 20.73-15.734 39.16-34.34 54.484-55.922 7.6562-10.793 15.043-21.906 21.238-33.957 15.602-30.344 27.371-65.086 30.359-107.76 0.60157-8.6211 0.59766-17.59 0.59766-27 0.0156-105.75 0.0898-211.82 0-317.52l-0.0117-15.227c-2.2812-0.01172-6.4414-0.01172-9.3438-0.01172h-532.92c-0.14062 0.01953-0.12891 0.1875-0.11719 0.35937" fill-rule="evenodd"/></g><path d="m278.4 85.652 5.3164-45.637 5.0117 45.672 20.605-41.07-10.91 44.633 33.406-31.543-25.516 38.207 42.18-18.215-37.047 27.18 45.867-2.6914-44.105 12.867 44.02 13.16-45.848-2.9922 36.863 27.422-42.059-18.496 25.266 38.379-33.199-31.762 10.613 44.699-20.332-41.199-5.3125 45.637-5.0156-45.672-20.602 41.066 10.91-44.633-33.41 31.547 25.516-38.211-42.18 18.215 37.047-27.176-45.867 2.6875 44.105-12.867-44.02-13.16 45.848 2.9961-36.863-27.422 42.059 18.492-25.266-38.375 33.199 31.762-10.613-44.703z" fill="#fcdb00"/><path d="m278.4 85.652 5.3164-45.637 5.0117 45.672 20.605-41.07-10.91 44.633 33.406-31.543-25.516 38.207 42.18-18.215-37.047 27.18 45.867-2.6914-44.105 12.867 44.02 13.16-45.848-2.9922 36.863 27.422-42.059-18.496 25.266 38.379-33.199-31.762 10.613 44.699-20.332-41.199-5.3125 45.637-5.0156-45.672-20.602 41.066 10.91-44.633-33.41 31.547 25.516-38.211-42.18 18.215 37.047-27.176-45.867 2.6875 44.105-12.867-44.02-13.16 45.848 2.9961-36.863-27.422 42.059 18.492-25.266-38.375 33.199 31.762-10.613-44.703z" fill="none" stroke="#000" stroke-miterlimit="10" stroke-width="3.6"/></svg>
