<?xml version="1.0" encoding="UTF-8"?>
<svg width="622.24" height="717.23" version="1.1" xmlns="http://www.w3.org/2000/svg">
 <path d="m6.21 6h609.82l-14.755 429.83c-14.754 162.29-127.87 275.4-290.16 275.4s-275.4-113.11-290.16-275.4z" fill="#fcdb00"/>
 <path d="m16.12 210.11v84.756l4.836 140.96c14.76 162.29 127.87 275.4 290.16 275.4s275.41-113.11 290.16-275.4l4.844-141.12v-84.602z" fill="#fff"/>
 <path d="m16.12 207.61h590zm0 85h590zm0 85h590zm4.794 85h577.31zm28.538 85h524.47zm58.512 85h408.77zm-9.343-422.5v411.16zm85 0v479zm85 0v499.36zm85 0v499.36zm85 0v473.1zm85 0v415.42z" fill="none" stroke="#000" stroke-miterlimit="2.5" stroke-width="5"/>
 <path d="M101.12 210.11v80h80v-80zm170 0v80h80v-80zm170 0v80h80v-80zm-424.99 85 2.746 80h77.246v-80zm169.99 0v80h80v-80zm170 0v80h80v-80zm170 0v80h77.24l2.746-80zm-425 85v80h80v-80zm170 0v80h80v-80zm170 0v80h80v-80zm-416.34 85c4.881 28.588 12.989 55.371 23.969 80H96.12v-80zm161.34 0v80h80v-80zm170 0v80h80v-80zm170 0v80h47.363c10.98-24.629 19.088-51.412 23.969-80zm-425 85v74.535c1.748 1.864 3.567 3.653 5.365 5.465h74.635v-80zm170 0v80h80v-80zm170 0v80h74.629c1.8-1.813 3.62-3.604 5.371-5.47v-74.53zm-255 85v50.301c24.544 11.095 51.316 18.83 80 22.775V635.11zm170 0v73.074c28.684-3.946 55.456-11.682 80-22.777V635.11z" fill="#f00000"/>
 <path d="m6.21 6h609.82l-14.755 429.83c-14.754 162.29-127.87 275.4-290.16 275.4s-275.4-113.11-290.16-275.4z" fill="none" stroke="#000" stroke-miterlimit="7.5" stroke-width="12"/>
</svg>
