<svg xmlns="http://www.w3.org/2000/svg" height="477" width="392"><defs><clipPath><path d="m 3650 5865 h 582 v 683.67 h -582 v -683.67 z"/></clipPath></defs><path d="m 6 6 h 380 v 260 c 0 130.27 -85 205 -190 205 -105 0 -190 -74.73 -190 -205 z" fill="#da121a" stroke="#000" stroke-width="6"/><path d="m 11,321 370,0 C 366,396 301,471 196,471 91,471 26,396 11,321 z" fill="#0f47af"/><g stroke="#000" stroke-linejoin="round" stroke-linecap="round" stroke-width="3"><g fill="#fcdd09"><path d="m 121.04 216.94 c -0.827 0.63 -22.299 -11.453 -23.338 -11.431 -1.042 0.022 -22.04 13 -22.902 12.41 -0.855 -0.592 4 -24.747 3.66 -25.728 -0.343 -0.984 -19.18 -16.948 -18.879 -17.946 0.299 -0.996 24.772 -3.841 25.6 -4.47 0.83 -0.63 10.192 -23.477 11.234 -23.501 1.039 -0.024 11.308 22.373 12.162 22.966 0.856 0.594 25.478 2.438 25.822 3.422 0.344 0.981 -17.783 17.668 -18.08 18.664 -0.301 0.998 5.554 24.984 4.725 25.616 z" transform="matrix(0.99978 0.02101 -0.02101 0.99978 7.177 38.04)"/><path d="m 121.04 216.94 c -0.827 0.63 -22.299 -11.453 -23.338 -11.431 -1.042 0.022 -22.04 13 -22.902 12.41 -0.855 -0.592 4 -24.747 3.66 -25.728 -0.343 -0.984 -19.18 -16.948 -18.879 -17.946 0.299 -0.996 24.772 -3.841 25.6 -4.47 0.83 -0.63 10.192 -23.477 11.234 -23.501 1.039 -0.024 11.308 22.373 12.162 22.966 0.856 0.594 25.478 2.438 25.822 3.422 0.344 0.981 -17.783 17.668 -18.08 18.664 -0.301 0.998 5.554 24.984 4.725 25.616 z" transform="matrix(0.99978 0.02101 -0.02101 0.99978 -7.323 -44.96)"/><path d="m 121.04 216.94 c -0.827 0.63 -22.299 -11.453 -23.338 -11.431 -1.042 0.022 -22.04 13 -22.902 12.41 -0.855 -0.592 4 -24.747 3.66 -25.728 -0.343 -0.984 -19.18 -16.948 -18.879 -17.946 0.299 -0.996 24.772 -3.841 25.6 -4.47 0.83 -0.63 10.192 -23.477 11.234 -23.501 1.039 -0.024 11.308 22.373 12.162 22.966 0.856 0.594 25.478 2.438 25.822 3.422 0.344 0.981 -17.783 17.668 -18.08 18.664 -0.301 0.998 5.554 24.984 4.725 25.616 z" transform="matrix(0.99978 0.02101 -0.02101 0.99978 57.677 -116.96)"/><path d="m 121.04 216.94 c -0.827 0.63 -22.299 -11.453 -23.338 -11.431 -1.042 0.022 -22.04 13 -22.902 12.41 -0.855 -0.592 4 -24.747 3.66 -25.728 -0.343 -0.984 -19.18 -16.948 -18.879 -17.946 0.299 -0.996 24.772 -3.841 25.6 -4.47 0.83 -0.63 10.192 -23.477 11.234 -23.501 1.039 -0.024 11.308 22.373 12.162 22.966 0.856 0.594 25.478 2.438 25.822 3.422 0.344 0.981 -17.783 17.668 -18.08 18.664 -0.301 0.998 5.554 24.984 4.725 25.616 z" transform="matrix(-0.99978 0.02101 0.02101 0.99978 384.82 38.04)"/><path d="m 121.04 216.94 c -0.827 0.63 -22.299 -11.453 -23.338 -11.431 -1.042 0.022 -22.04 13 -22.902 12.41 -0.855 -0.592 4 -24.747 3.66 -25.728 -0.343 -0.984 -19.18 -16.948 -18.879 -17.946 0.299 -0.996 24.772 -3.841 25.6 -4.47 0.83 -0.63 10.192 -23.477 11.234 -23.501 1.039 -0.024 11.308 22.373 12.162 22.966 0.856 0.594 25.478 2.438 25.822 3.422 0.344 0.981 -17.783 17.668 -18.08 18.664 -0.301 0.998 5.554 24.984 4.725 25.616 z" transform="matrix(-0.99978 0.02101 0.02101 0.99978 399.32 -44.96)"/><path d="m 121.04 216.94 c -0.827 0.63 -22.299 -11.453 -23.338 -11.431 -1.042 0.022 -22.04 13 -22.902 12.41 -0.855 -0.592 4 -24.747 3.66 -25.728 -0.343 -0.984 -19.18 -16.948 -18.879 -17.946 0.299 -0.996 24.772 -3.841 25.6 -4.47 0.83 -0.63 10.192 -23.477 11.234 -23.501 1.039 -0.024 11.308 22.373 12.162 22.966 0.856 0.594 25.478 2.438 25.822 3.422 0.344 0.981 -17.783 17.668 -18.08 18.664 -0.301 0.998 5.554 24.984 4.725 25.616 z" transform="matrix(-0.99978 0.02101 0.02101 0.99978 334.32 -116.96)"/><path d="m 121.04 216.94 c -0.827 0.63 -22.299 -11.453 -23.338 -11.431 -1.042 0.022 -22.04 13 -22.902 12.41 -0.855 -0.592 4 -24.747 3.66 -25.728 -0.343 -0.984 -19.18 -16.948 -18.879 -17.946 0.299 -0.996 24.772 -3.841 25.6 -4.47 0.83 -0.63 10.192 -23.477 11.234 -23.501 1.039 -0.024 11.308 22.373 12.162 22.966 0.856 0.594 25.478 2.438 25.822 3.422 0.344 0.981 -17.783 17.668 -18.08 18.664 -0.301 0.998 5.554 24.984 4.725 25.616 z" transform="matrix(0.99978 0.02101 -0.02101 0.99978 102.68 82.04)"/></g><g fill="#fff"><path d="m 11 321 c 4.792 -2.4 25 -10 45 -10 20 0 50.04 10 70 10 19.965 0 50 -10 70 -10 20 0 45 10 70 10 25 0 50 -10 70 -10 20 0 45 10 45 10 l -10 30 c -4.925 -2.12 -15 -10 -35 -10 -20 0 -50 10 -70 10 -20 0 -45 -10 -70 -10 -25 0 -45 10 -70 10 -25 0 -50 -10 -70 -10 -20 0 -35 10 -35 10 z"/><path d="m 33.631 378.66 c 6.887 -1.53 11.929 -2.664 22.369 -2.664 c 10.44 0 50.04 10 70 10 19.965 0 50 -10 70 -10 20 0 45 10 70 10 25 0 62.26 -10 70 -10 7.744 0 15.979 1.388 23.16 3.09 c -7.437 12.279 -13.736 27.23 -23.16 26.91 c -18.535 -0.629 -50 10 -70 10 -20 0 -45 -10 -70 -10 -25 0 -45 10 -70 10 -25 0 -50.45 -10.618 -70 -10 -11.282 0.357 -19.568 -22.391 -22.369 -27.336 z"/></g></g></svg>