<?xml version="1.0" encoding="UTF-8" standalone="no"?>
<svg
   xmlns:dc="http://purl.org/dc/elements/1.1/"
   xmlns:cc="http://creativecommons.org/ns#"
   xmlns:rdf="http://www.w3.org/1999/02/22-rdf-syntax-ns#"
   xmlns:svg="http://www.w3.org/2000/svg"
   xmlns="http://www.w3.org/2000/svg"
   viewBox="0 0 226.77333 264.57333"
   height="264.57333"
   width="226.77333"
   xml:space="preserve"
   id="svg2"
   version="1.1"><metadata
     id="metadata8"><rdf:RDF><cc:Work
         rdf:about=""><dc:format>image/svg+xml</dc:format><dc:type
           rdf:resource="http://purl.org/dc/dcmitype/StillImage" /></cc:Work></rdf:RDF></metadata><defs
     id="defs6" /><g
     transform="matrix(1.3333333,0,0,-1.3333333,0,264.57333)"
     id="g10"><g
       transform="scale(0.1)"
       id="g12"><path
         id="path14"
         style="fill:#ffffff;fill-opacity:1;fill-rule:evenodd;stroke:none"
         d="M 850.391,17.5 C 391.137,17.5 17.5,391.129 17.5,850.391 V 1966.75 H 1683.29 V 850.391 C 1683.29,391.129 1309.66,17.5 850.391,17.5" /><path
         id="path16"
         style="fill:#231f20;fill-opacity:1;fill-rule:nonzero;stroke:none"
         d="M 1700.79,1984.25 H 0 V 850.391 C 0,380.73 380.734,0 850.391,0 1320.06,0 1700.79,380.73 1700.79,850.391 V 1984.25 Z m -35,-35 V 850.391 C 1665.79,400.781 1300.01,35 850.391,35 400.781,35 35,400.781 35,850.391 V 1949.25 h 1630.79" /><path
         id="path18"
         style="fill:#231f20;fill-opacity:1;fill-rule:nonzero;stroke:none"
         d="m 912.281,1206.7 c 0.383,12.35 0.625,24.05 1.114,35.75 1.632,39.08 12.128,75.98 28.195,111.47 24.637,54.4 56.726,104.28 93.84,151.06 21.4,26.98 44.66,52.26 70.84,74.81 26.55,22.88 55.54,41.76 88.94,53.4 21.63,7.53 43.87,11.6 66.82,10.14 41.08,-2.6 73.12,-20.58 94.48,-56.03 12.09,-20.07 18.9,-42.01 22.95,-64.9 3.6,-20.35 4.41,-40.88 3.16,-61.45 -3.24,-53.22 -21.93,-100.28 -57.43,-140.61 -21.68,-24.63 -46.8,-45.28 -73.79,-63.83 -18.51,-12.74 -37.19,-25.24 -57.19,-35.61 -5.6,-2.9 -11.56,-5.19 -17.47,-7.4 -2.31,-0.85 -4.99,-0.98 -7.49,-0.98 -4.16,-0.01 -6.6,1.97 -6.86,6.08 -0.23,3.72 -0.24,7.67 0.69,11.24 3.67,13.93 7.58,27.81 11.74,41.6 6.88,22.83 12.41,45.93 15.51,69.56 1.92,14.69 2.7,29.45 0.44,44.2 -0.41,2.66 -1.06,5.3 -1.77,7.9 -5.77,20.93 -23.04,28.25 -41.87,25.8 -21,-2.72 -38.71,-12.84 -55.46,-24.86 -19.69,-14.13 -37,-30.87 -53.29,-48.64 -23.57,-25.68 -44.681,-53.17 -61.978,-83.44 -9.336,-16.33 -17.226,-33.35 -24.492,-50.65 -1.551,-3.71 -3.504,-5.15 -7.597,-5 -8.536,0.32 -17.09,0.08 -25.633,0.1 -1.778,0.01 -3.567,0.16 -6.399,0.29" /><path
         id="path20"
         style="fill:#231f20;fill-opacity:1;fill-rule:nonzero;stroke:none"
         d="m 790.566,1206.67 c -2.425,-0.11 -4.203,-0.25 -5.972,-0.26 -8.371,-0.02 -16.754,0.33 -25.094,-0.14 -4.742,-0.26 -6.687,1.71 -8.332,5.67 -7.699,18.5 -16.078,36.72 -26.457,53.91 -28.469,47.13 -63.422,88.82 -106.648,123.4 -13.204,10.56 -27.418,19.7 -43.602,25.12 -6.988,2.34 -14.363,4.28 -21.672,4.78 -21.851,1.47 -35.687,-9.87 -39.789,-31.5 -2.656,-13.99 -2.023,-28.01 -0.48,-42.03 3.492,-31.69 12.183,-62.17 21.566,-92.52 2.66,-8.6 4.711,-17.38 6.769,-26.14 0.614,-2.58 0.614,-5.41 0.329,-8.06 -0.473,-4.4 -2.829,-6.22 -7.243,-6.45 -4.679,-0.26 -9.101,0.94 -13.125,3.01 -10.953,5.62 -22.023,11.09 -32.535,17.46 -27.32,16.56 -53.695,34.52 -77.855,55.47 -28.199,24.46 -52.067,52.33 -68.207,86.19 -9.789,20.53 -15.817,42.15 -19.106,64.58 -2.968,20.26 -3.761,40.58 -2.011,60.96 2.39,27.88 8.562,54.81 21.644,79.86 13.84,26.5 34.102,45.95 62.731,56.23 19.511,7.02 39.628,8.68 60.105,6.51 41.484,-4.37 77.492,-21.87 110.523,-46.17 28.649,-21.06 53.532,-46.08 76.493,-73 39.386,-46.16 72.925,-96.21 100.129,-150.37 13.812,-27.5 25.054,-55.96 31.523,-86.12 4.633,-21.62 6.391,-43.5 6.316,-65.56 -0.011,-4.82 0,-9.64 0,-14.83" /><path
         id="path22"
         style="fill:#231f20;fill-opacity:1;fill-rule:nonzero;stroke:none"
         d="m 888.191,1206.79 c -24.218,0 -48.304,0 -73.007,0 -0.129,2.16 -0.321,4.23 -0.352,6.31 -0.277,17.5 -0.383,34.99 -0.816,52.48 -1.293,51.99 -11.02,102.35 -29.543,151.05 -9.418,24.77 -18.43,49.7 -27.309,74.67 -10.059,28.27 -17.437,57.24 -21.117,87.05 -3.543,28.74 -3.852,57.52 -0.777,86.35 4.878,45.8 19.789,88.44 40.605,129.28 17.84,35 39.176,67.87 61.844,99.93 2.594,3.68 5.492,7.21 8.636,10.43 3.864,3.96 6.743,3.88 10.75,-0.03 2.325,-2.26 4.485,-4.76 6.36,-7.39 28.699,-40.24 55.273,-81.71 75.457,-126.95 14.59,-32.67 24.648,-66.59 28.887,-102.11 2.675,-22.42 3.117,-44.93 1.632,-67.5 -2.519,-38.24 -11.125,-75.17 -23.918,-111.19 -10.195,-28.71 -20.886,-57.24 -31.21,-85.91 -10.352,-28.78 -17.735,-58.31 -21.114,-88.69 -1.816,-16.29 -2.949,-32.69 -3.64,-49.07 -0.774,-18.37 -0.704,-36.78 -1.028,-55.18 -0.019,-1.05 -0.195,-2.11 -0.34,-3.53" /><path
         id="path24"
         style="fill:#231f20;fill-opacity:1;fill-rule:nonzero;stroke:none"
         d="m 883.746,1101.13 c -2.43,-3.34 -2.129,-6.17 -1.746,-8.72 1.824,-12.28 3.094,-24.73 6.043,-36.76 4.336,-17.65 9.922,-35 14.992,-52.47 2.918,-10.063 5.281,-20.211 6.356,-30.66 1.632,-15.821 -0.965,-30.981 -7.645,-45.309 -4.406,-9.449 -9.199,-18.852 -14.933,-27.563 -7.54,-11.449 -16.114,-22.25 -24.383,-33.207 -1.719,-2.281 -3.883,-4.32 -6.153,-6.082 -3.367,-2.609 -5.953,-2.488 -9.398,0.102 -1.441,1.078 -2.805,2.328 -3.961,3.699 -15.645,18.61 -30.012,38.07 -40.211,60.238 -6.508,14.141 -10.141,28.93 -9.07,44.59 0.808,11.922 3.551,23.489 6.875,34.942 5.121,17.65 10.664,35.2 15.09,53.01 2.812,11.33 4.035,23.05 5.734,34.63 0.398,2.74 -0.156,5.62 -0.313,9.42 -1.89,-1.22 -3.16,-1.64 -3.781,-2.51 -2.308,-3.23 -4.551,-6.52 -6.547,-9.95 -6.554,-11.22 -12.757,-22.66 -19.519,-33.76 -12.414,-20.39 -28.879,-36.51 -51.078,-46.38 -9.969,-4.42 -20.301,-7.71 -30.938,-10.12 -18.379,-4.161 -37.027,-5.231 -55.769,-4.133 -6.45,0.383 -12.993,1.652 -19.176,3.547 -8.949,2.746 -9.91,7.896 -2.899,13.926 3.957,3.42 8.321,6.43 12.747,9.24 13.617,8.64 27.535,16.82 40.996,25.69 19.152,12.61 35.214,28.38 47.625,47.71 13.324,20.76 19.906,43.5 20.492,68.01 0.152,6.45 0.023,12.92 0.023,19.18 4.766,1.38 181.973,1.95 196.426,0.76 0.059,-1.97 0.07,-4.05 0.207,-6.12 0.77,-11.5 0.789,-23.12 2.52,-34.47 3.925,-25.9 16.25,-47.94 33.621,-67.36 13.418,-15 29.557,-26.62 46.637,-37.07 9.44,-5.78 18.95,-11.42 28.28,-17.36 4.11,-2.61 8.1,-5.52 11.69,-8.79 6.23,-5.65 5.35,-10.32 -2.76,-13.03 -5.78,-1.934 -11.93,-3.387 -18.01,-3.766 -27.63,-1.722 -54.712,1.133 -80.837,10.926 -24.551,9.2 -43.465,25.16 -57.196,47.16 -6.504,10.41 -12.375,21.21 -18.554,31.82 -2.375,4.05 -4.758,8.1 -7.297,12.05 -1.024,1.6 -2.461,2.94 -4.18,4.94" /><path
         id="path26"
         style="fill:#231f20;fill-opacity:1;fill-rule:nonzero;stroke:none"
         d="M 852,14.3711 983.16,28.3203 1092,53.4297 1292.93,148.32 1454.79,287.859 852,829.262 249.211,287.859 411.07,148.32 612,53.4297 720.836,28.3203 848.785,14.3711 H 852" /></g></g></svg>