<?xml version="1.0" encoding="UTF-8" standalone="no"?>
<svg xmlns:dc="http://purl.org/dc/elements/1.1/" xmlns:cc="http://creativecommons.org/ns#" xmlns:rdf="http://www.w3.org/1999/02/22-rdf-syntax-ns#" xmlns:svg="http://www.w3.org/2000/svg" xmlns="http://www.w3.org/2000/svg" viewBox="0 0 226.77333 264.57333" height="264.57333" width="226.77333" xml:space="preserve" id="svg2" version="1.1"><metadata id="metadata8"><rdf:RDF><cc:Work rdf:about=""><dc:format>image/svg+xml</dc:format><dc:type rdf:resource="http://purl.org/dc/dcmitype/StillImage"/></cc:Work></rdf:RDF></metadata><defs id="defs6"/><g transform="matrix(1.3333333,0,0,-1.3333333,0,264.57333)" id="g10"><g transform="scale(0.1)" id="g12"><path id="path14" style="fill:#ffffff;fill-opacity:1;fill-rule:evenodd;stroke:none" d="M 850.395,17.5 C 391.133,17.5 17.5,391.129 17.5,850.391 V 1966.75 H 1683.28 V 850.391 C 1683.28,391.129 1309.65,17.5 850.395,17.5"/><path id="path16" style="fill:#231f20;fill-opacity:1;fill-rule:nonzero;stroke:none" d="M 1700.78,1984.25 H 0 V 850.391 C 0,380.73 380.734,0 850.395,0 1320.05,0 1700.78,380.73 1700.78,850.391 V 1984.25 Z m -35,-35 V 850.391 C 1665.78,400.781 1300,35 850.395,35 400.785,35 35,400.781 35,850.391 V 1949.25 h 1630.78"/><path id="path18" style="fill:#ed1c24;fill-opacity:1;fill-rule:nonzero;stroke:none" d="M 656.105,992.125 517.355,906.34 c 0,0 -76.25,-43.149 -21.25,-55.949 55,-12.801 60,-34.051 60,-34.051 l -13.75,-26.25 c 0,0 -23.75,-25 -45,8.75 -13.464,21.39 -34.964,30.23 -48.906,33.832 -7.176,1.859 -14.359,-2.891 -15.418,-10.223 L 418.605,722.59 c 0,0 -1.25,-21.238 -16.25,-24.988 h -26.25 c 0,0 -32.5,12.488 -12.5,58.738 9.375,21.68 12.985,36.5 14.172,46.121 0.797,6.449 -6.539,10.68 -11.797,6.848 L 308.605,767.59 c 0,0 -27.5,-25 -45,-6.25 l -17.5,21.25 c 0,0 -16.25,16.25 16.25,26.25 32.5,10 80,28.75 80,28.75 0,0 43.75,17.5 0,25 -43.75,7.5 -62.5,6.25 -62.5,6.25 0,0 -30.625,-2.5 -37.808,20 v 32.5 c 0,0 2.808,30 55.308,8.75 l 67.5,-27.5 c 0,0 37.5,-30 91.25,16.25 53.75,46.25 200,153.75 200,153.75 v -80.465"/><path id="path20" style="fill:none;stroke:#231f20;stroke-width:10;stroke-linecap:butt;stroke-linejoin:miter;stroke-miterlimit:10;stroke-dasharray:none;stroke-opacity:1" d="M 656.105,992.125 517.355,906.34 c 0,0 -76.25,-43.149 -21.25,-55.949 55,-12.801 60,-34.051 60,-34.051 l -13.75,-26.25 c 0,0 -23.75,-25 -45,8.75 -13.464,21.39 -34.964,30.23 -48.906,33.832 -7.176,1.859 -14.359,-2.891 -15.418,-10.223 L 418.605,722.59 c 0,0 -1.25,-21.238 -16.25,-24.988 h -26.25 c 0,0 -32.5,12.488 -12.5,58.738 9.375,21.68 12.985,36.5 14.172,46.121 0.797,6.449 -6.539,10.68 -11.797,6.848 L 308.605,767.59 c 0,0 -27.5,-25 -45,-6.25 l -17.5,21.25 c 0,0 -16.25,16.25 16.25,26.25 32.5,10 80,28.75 80,28.75 0,0 43.75,17.5 0,25 -43.75,7.5 -62.5,6.25 -62.5,6.25 0,0 -30.625,-2.5 -37.808,20 v 32.5 c 0,0 2.808,30 55.308,8.75 l 67.5,-27.5 c 0,0 37.5,-30 91.25,16.25 53.75,46.25 200,153.75 200,153.75 z"/><path id="path22" style="fill:#ed1c24;fill-opacity:1;fill-rule:nonzero;stroke:none" d="m 542.355,1132.59 c 0,0 -112.5,-61.25 -166.25,-70 -53.75,-8.75 -12.5,-42.58 -12.5,-42.58 0,0 48.75,-8.24 48.75,-35.951 l -13.75,-25.219 c 0,0 -15.242,-30 -50.121,12.5 -34.879,42.5 -81.129,60 -187.379,28.75 0,0 -63.7495,-26.25 -62.4995,11.25 l -0.0117,29.24 c 0,0 -12.4883,35.76 31.2612,19.51 0,0 165,-36.25 62.5,28.75 0,0 -72.5,55 -52.5,75 l 13.75,17.5 c 0,0 37.5,17.5 58.75,-36.25 21.25,-53.75 57.5,-66.25 57.5,-66.25 0,0 17.5,-3.75 -1.25,58.75 -18.75,62.5 8.75,65 8.75,65 h 28.75 c 0,0 32.5,7.5 23.75,-42.5 -8.75,-50 -10.203,-65 -10.203,-65 0,0 -6.812,-24.91 27.321,-4.44 10.89,6.53 21.769,12.98 33.078,18.76 33.625,17.2 104.668,56.59 152.304,104.43 l 10,-81.25"/><path id="path24" style="fill:none;stroke:#231f20;stroke-width:10;stroke-linecap:butt;stroke-linejoin:miter;stroke-miterlimit:10;stroke-dasharray:none;stroke-opacity:1" d="m 542.355,1132.59 c 0,0 -112.5,-61.25 -166.25,-70 -53.75,-8.75 -12.5,-42.58 -12.5,-42.58 0,0 48.75,-8.24 48.75,-35.951 l -13.75,-25.219 c 0,0 -15.242,-30 -50.121,12.5 -34.879,42.5 -81.129,60 -187.379,28.75 0,0 -63.7495,-26.25 -62.4995,11.25 l -0.0117,29.24 c 0,0 -12.4883,35.76 31.2612,19.51 0,0 165,-36.25 62.5,28.75 0,0 -72.5,55 -52.5,75 l 13.75,17.5 c 0,0 37.5,17.5 58.75,-36.25 21.25,-53.75 57.5,-66.25 57.5,-66.25 0,0 17.5,-3.75 -1.25,58.75 -18.75,62.5 8.75,65 8.75,65 h 28.75 c 0,0 32.5,7.5 23.75,-42.5 -8.75,-50 -10.203,-65 -10.203,-65 0,0 -6.812,-24.91 27.321,-4.44 10.89,6.53 21.769,12.98 33.078,18.76 33.625,17.2 104.668,56.59 152.304,104.43 z"/><path id="path26" style="fill:#ed1c24;fill-opacity:1;fill-rule:nonzero;stroke:none" d="m 553.758,787 c 7.629,0.09 20.43,-2.762 23.316,-22.121 0.145,-0.988 1.266,-1.52 2.008,-0.859 5.961,5.3 23.645,24.582 -8.43,43.699 -5.554,3.312 -12.609,3.609 -18.269,0.472 -5.012,-2.769 -9.649,-7.293 -8.082,-14.269 0.957,-4.25 5.097,-6.961 9.457,-6.922"/><path id="path28" style="fill:none;stroke:#231f20;stroke-width:10;stroke-linecap:butt;stroke-linejoin:miter;stroke-miterlimit:10;stroke-dasharray:none;stroke-opacity:1" d="m 553.758,787 c 7.629,0.09 20.43,-2.762 23.316,-22.121 0.145,-0.988 1.266,-1.52 2.008,-0.859 5.961,5.3 23.645,24.582 -8.43,43.699 -5.554,3.312 -12.609,3.609 -18.269,0.472 -5.012,-2.769 -9.649,-7.293 -8.082,-14.269 0.957,-4.25 5.097,-6.961 9.457,-6.922 z"/><path id="path30" style="fill:#ed1c24;fill-opacity:1;fill-rule:nonzero;stroke:none" d="m 397.484,692.238 c -4.57,-6.109 -9.828,-18.117 4.086,-31.867 0.707,-0.699 0.481,-1.93 -0.492,-2.141 -7.805,-1.671 -33.801,-4.558 -30.293,32.622 0.61,6.429 4.547,12.296 10.414,15.019 5.196,2.399 11.582,3.469 16.285,-1.91 2.871,-3.289 2.618,-8.231 0,-11.723"/><path id="path32" style="fill:none;stroke:#231f20;stroke-width:10;stroke-linecap:butt;stroke-linejoin:miter;stroke-miterlimit:10;stroke-dasharray:none;stroke-opacity:1" d="m 397.484,692.238 c -4.57,-6.109 -9.828,-18.117 4.086,-31.867 0.707,-0.699 0.481,-1.93 -0.492,-2.141 -7.805,-1.671 -33.801,-4.558 -30.293,32.622 0.61,6.429 4.547,12.296 10.414,15.019 5.196,2.399 11.582,3.469 16.285,-1.91 2.871,-3.289 2.618,-8.231 0,-11.723 z"/><path id="path34" style="fill:#ed1c24;fill-opacity:1;fill-rule:nonzero;stroke:none" d="m 247.18,754.93 c -6.645,3.742 -19.239,7.41 -31.082,-8.16 -0.606,-0.801 -1.844,-0.731 -2.176,0.21 -2.672,7.532 -8.883,32.942 28.433,34.239 6.465,0.23 12.79,-2.918 16.243,-8.387 3.05,-4.844 4.941,-11.043 0.203,-16.402 -2.891,-3.27 -7.821,-3.649 -11.621,-1.5"/><path id="path36" style="fill:none;stroke:#231f20;stroke-width:10;stroke-linecap:butt;stroke-linejoin:miter;stroke-miterlimit:10;stroke-dasharray:none;stroke-opacity:1" d="m 247.18,754.93 c -6.645,3.742 -19.239,7.41 -31.082,-8.16 -0.606,-0.801 -1.844,-0.731 -2.176,0.21 -2.672,7.532 -8.883,32.942 28.433,34.239 6.465,0.23 12.79,-2.918 16.243,-8.387 3.05,-4.844 4.941,-11.043 0.203,-16.402 -2.891,-3.27 -7.821,-3.649 -11.621,-1.5 z"/><path id="path38" style="fill:#ed1c24;fill-opacity:1;fill-rule:nonzero;stroke:none" d="m 232.746,896.711 c -6.641,3.75 -19.23,7.41 -31.082,-8.16 -0.601,-0.789 -1.84,-0.719 -2.172,0.219 -2.672,7.519 -8.883,32.929 28.438,34.242 6.465,0.218 12.785,-2.922 16.238,-8.403 3.051,-4.839 4.941,-11.039 0.207,-16.39 -2.891,-3.27 -7.824,-3.649 -11.629,-1.508"/><path id="path40" style="fill:none;stroke:#231f20;stroke-width:10;stroke-linecap:butt;stroke-linejoin:miter;stroke-miterlimit:10;stroke-dasharray:none;stroke-opacity:1" d="m 232.746,896.711 c -6.641,3.75 -19.23,7.41 -31.082,-8.16 -0.601,-0.789 -1.84,-0.719 -2.172,0.219 -2.672,7.519 -8.883,32.929 28.438,34.242 6.465,0.218 12.785,-2.922 16.238,-8.403 3.051,-4.839 4.941,-11.039 0.207,-16.39 -2.891,-3.27 -7.824,-3.649 -11.629,-1.508 z"/><path id="path42" style="fill:#ed1c24;fill-opacity:1;fill-rule:nonzero;stroke:none" d="m 91.2969,1013.77 c -5.7383,5.02 -17.3086,11.19 -32.0938,-1.63 -0.7539,-0.65 -1.9531,-0.33 -2.0859,0.66 -1.0742,7.9 -1.957,34.05 34.8398,27.7 6.375,-1.11 11.918,-5.48 14.18,-11.55 1.996,-5.36 2.578,-11.81 -3.149,-16.09 -3.5036,-2.6 -8.4099,-1.97 -11.6911,0.91"/><path id="path44" style="fill:none;stroke:#231f20;stroke-width:10;stroke-linecap:butt;stroke-linejoin:miter;stroke-miterlimit:10;stroke-dasharray:none;stroke-opacity:1" d="m 91.2969,1013.77 c -5.7383,5.02 -17.3086,11.19 -32.0938,-1.63 -0.7539,-0.65 -1.9531,-0.33 -2.0859,0.66 -1.0742,7.9 -1.957,34.05 34.8398,27.7 6.375,-1.11 11.918,-5.48 14.18,-11.55 1.996,-5.36 2.578,-11.81 -3.149,-16.09 -3.5036,-2.6 -8.4099,-1.97 -11.6911,0.91 z"/><path id="path46" style="fill:#ed1c24;fill-opacity:1;fill-rule:nonzero;stroke:none" d="m 138.797,1165.02 c -5.738,5.03 -17.309,11.19 -32.094,-1.62 -0.754,-0.65 -1.953,-0.34 -2.086,0.65 -1.074,7.91 -1.957,34.05 34.84,27.7 6.379,-1.1 11.918,-5.47 14.18,-11.54 1.996,-5.36 2.578,-11.82 -3.149,-16.08 -3.504,-2.62 -8.402,-1.99 -11.691,0.89"/><path id="path48" style="fill:none;stroke:#231f20;stroke-width:10;stroke-linecap:butt;stroke-linejoin:miter;stroke-miterlimit:10;stroke-dasharray:none;stroke-opacity:1" d="m 138.797,1165.02 c -5.738,5.03 -17.309,11.19 -32.094,-1.62 -0.754,-0.65 -1.953,-0.34 -2.086,0.65 -1.074,7.91 -1.957,34.05 34.84,27.7 6.379,-1.1 11.918,-5.47 14.18,-11.54 1.996,-5.36 2.578,-11.82 -3.149,-16.08 -3.504,-2.62 -8.402,-1.99 -11.691,0.89 z"/><path id="path50" style="fill:#ed1c24;fill-opacity:1;fill-rule:nonzero;stroke:none" d="m 282.086,1202.92 c -0.895,7.58 -5.359,19.91 -24.918,20.3 -0.996,0.02 -1.676,1.06 -1.109,1.89 4.496,6.58 21.363,26.58 44.418,-2.79 3.996,-5.09 5.179,-12.05 2.793,-18.07 -2.11,-5.32 -6,-10.49 -13.114,-9.83 -4.347,0.4 -7.566,4.17 -8.07,8.5"/><path id="path52" style="fill:none;stroke:#231f20;stroke-width:10;stroke-linecap:butt;stroke-linejoin:miter;stroke-miterlimit:10;stroke-dasharray:none;stroke-opacity:1" d="m 282.086,1202.92 c -0.895,7.58 -5.359,19.91 -24.918,20.3 -0.996,0.02 -1.676,1.06 -1.109,1.89 4.496,6.58 21.363,26.58 44.418,-2.79 3.996,-5.09 5.179,-12.05 2.793,-18.07 -2.11,-5.32 -6,-10.49 -13.114,-9.83 -4.347,0.4 -7.566,4.17 -8.07,8.5 z"/><path id="path54" style="fill:#ed1c24;fill-opacity:1;fill-rule:nonzero;stroke:none" d="m 410.281,955.238 c 6.477,4.032 18.891,8.25 31.41,-6.777 0.641,-0.77 1.875,-0.652 2.168,0.309 2.336,7.628 7.422,33.289 -29.914,32.949 -6.472,-0.059 -12.648,-3.481 -15.855,-9.098 -2.836,-4.973 -4.453,-11.25 0.512,-16.391 3.031,-3.14 7.972,-3.3 11.679,-0.992"/><path id="path56" style="fill:none;stroke:#231f20;stroke-width:10;stroke-linecap:butt;stroke-linejoin:miter;stroke-miterlimit:10;stroke-dasharray:none;stroke-opacity:1" d="m 410.281,955.238 c 6.477,4.032 18.891,8.25 31.41,-6.777 0.641,-0.77 1.875,-0.652 2.168,0.309 2.336,7.628 7.422,33.289 -29.914,32.949 -6.472,-0.059 -12.648,-3.481 -15.855,-9.098 -2.836,-4.973 -4.453,-11.25 0.512,-16.391 3.031,-3.14 7.972,-3.3 11.679,-0.992 z"/><path id="path58" style="fill:#ed1c24;fill-opacity:1;fill-rule:nonzero;stroke:none" d="m 666.684,1732.26 c 0.023,2.64 -2.77,4.32 -4.965,2.87 l -18.114,-11.92 c 0,0 -24.289,-25.41 -39.574,27.94 -0.847,2.97 -5,3.27 -6.109,0.39 -7.688,-19.97 -18.176,-66.99 60.683,-53.95 99.375,16.44 146.25,-8.75 146.25,-8.75 0,0 -29.375,45 -128.125,29.37 0,0 -10.16,0 -10.046,14.05"/><path id="path60" style="fill:none;stroke:#231f20;stroke-width:10;stroke-linecap:butt;stroke-linejoin:miter;stroke-miterlimit:10;stroke-dasharray:none;stroke-opacity:1" d="m 666.684,1732.26 c 0.023,2.64 -2.77,4.32 -4.965,2.87 l -18.114,-11.92 c 0,0 -24.289,-25.41 -39.574,27.94 -0.847,2.97 -5,3.27 -6.109,0.39 -7.688,-19.97 -18.176,-66.99 60.683,-53.95 99.375,16.44 146.25,-8.75 146.25,-8.75 0,0 -29.375,45 -128.125,29.37 0,0 -10.16,0 -10.046,14.05 z"/><path id="path62" style="fill:#231f20;fill-opacity:1;fill-rule:nonzero;stroke:none" d="m 726.957,1468.01 c 0,0 -223.473,225.78 -178.824,345.15 2.512,6.72 -3.121,13.63 -10.27,13.1 -44.492,-3.33 -152.078,-35.04 18.508,-283.79 0.192,-0.28 -0.109,-0.68 -0.324,-0.42 -24.52,29.31 -173.516,209.76 -171.602,264.86 0.106,3.01 -3.425,4.72 -5.75,2.81 -22.269,-18.3 -76.484,-93.11 103.985,-319.1 0.41,-0.51 -0.172,-1.25 -0.668,-0.82 -31.051,26.43 -228.293,199.43 -237.379,335.94 -0.442,6.66 -8.516,9.78 -13.078,4.9 -28.762,-30.8 -77.016,-134.32 178.261,-389.68 0.407,-0.41 0.008,-1.13 -0.48,-0.82 -28.828,18.09 -230.734,150.29 -302.539,346.28 -1.277,3.49 -5.508,4.88 -8.4689,2.63 -25.9336,-19.74 -109.2812,-118.66 261.1099,-417.02 0.757,-0.61 0.136,-1.85 -0.747,-1.44 -30.886,14.09 -178.257,84.7 -248.23,178.96 -2.832,3.82 -8.633,2.98 -10.203,-1.51 -15.3322,-43.67 -45.8635,-221.09 408.219,-336.04 6.41,-1.62 11.742,-6.12 14.261,-12.23 6.485,-15.72 14.336,-48.11 -10.129,-82.19 -1.73,-2.41 0.028,-5.74 2.977,-5.39 20.355,2.41 76.355,10.32 118.344,28.35 2.359,1.01 4.82,-0.93 4.343,-3.45 -0.98,-5.16 -1.738,-14.56 -2.308,-24.56 -1.059,-18.53 -1.004,-37.1 0.297,-55.61 1.496,-21.19 2.48,-56.971 -2.864,-73.479 -1.324,-4.101 2.305,-8.031 6.532,-7.211 26.363,5.129 94.664,26.3 114.492,109.49 0.902,3.8 4.547,6.21 8.332,5.26 24.359,-6.11 107.426,-29.45 142.25,-71.31 2.976,-3.58 0.996,-9.05 -3.594,-9.86 -57.726,-10.119 -349.144,-75.9 -214.43,-355.119 2.458,-5.082 1.969,-11.113 -1.484,-15.589 -18.246,-23.672 -75.883,-99.34 -95.566,-135.93 -7.348,-13.66 -17.418,-25.813 -29.832,-35.121 -21.219,-15.891 -49.246,-24.563 -53.473,35.558 -0.48,6.789 -0.023,13.629 0.785,20.403 1.594,13.359 1.055,37.929 -28.805,20.668 l -43.156,-26.942 c 0,0 -44.344,-3.058 -10.172,-29.726 0,0 60.828,-32.5 45,-66.66 0,0 -4.789,-36.723 -79.222,-2.352 -3.867,1.789 -8.614,1.512 -11.778,-1.34 -5.293,-4.75 -8.679,-14.969 11.828,-35.48 l 1.672,-52.5 c 0,0 -5.316,-40.52 20.828,-22.508 5.973,4.109 10.774,9.617 14.805,15.648 8.028,12 27.477,35.75 51.266,27.399 13.793,-4.828 22.187,-18.918 21.535,-33.528 l -1.27,-28.382 c -0.476,-10.59 0.735,-17.868 4.008,-24.36 4.559,-9.039 12.66,-15.437 24.656,9.063 l 41.668,19.168 c 0,0 37.5,-12.5 13.332,25 l -18.933,18.941 c -7.699,7.699 -12.961,17.809 -13.477,28.68 -0.465,9.808 2.93,20.187 17.555,24.168 9.805,2.679 20.359,0.793 29.223,-4.188 16.101,-9.043 49.234,-24.043 69.257,-7.972 2.192,1.761 2.469,5 0.407,6.91 l -12.957,11.953 c -5.149,4.758 -8.844,11.109 -9.446,18.098 -0.734,8.55 8.371,22.582 25.039,15.91 0,0 28.024,-14.66 49.434,-7.629 4.035,1.328 5.609,6.281 3.477,9.961 l -11.243,19.34 c 0,0 -16.668,29.16 22.5,22.5 0,0 31.926,-10.961 51.817,-6.942 8.301,1.68 11.008,12.301 4.871,18.141 l -25.024,23.801 c 0,0 -26.664,30 15.836,25.828 0,0 37.004,-21.149 59.231,-1.66 4.715,4.152 4.476,11.64 -0.336,15.66 l -22.856,19.121 c -6.058,5.078 -8.078,13.519 -4.972,20.777 l 33.613,78.652 c 3.172,7.418 1.192,16.032 -4.898,21.321 l -8.223,7.14 c -9,7.821 -13.859,19.289 -13.359,31.2 1.742,41.64 16.859,139 115.964,191.121 0,0 -2.136,-189.692 199.345,-268.184 0,0 105.66,-35.976 98.16,-131.816 -4.34,-55.391 -16.47,-92.403 -25.93,-113.774 -9.79,-22.097 -34.23,-35 -57.41,-28.187 -13.71,4.051 -27.58,14.89 -36.75,39.32 -3.6,9.59 -5.48,19.719 -6.53,29.91 -2.28,21.91 -10.54,70.27 -37.55,32.731 l -35.83,-40 c 0,0 -49.172,-10 -1.67,-35 0,0 92.5,-51.66 14.17,-48.332 l -37.38,5.601 c -6.97,1.047 -13.824,2.719 -20.593,4.699 -13.75,4.02 -38.282,6.989 -14.532,-33.628 l 5.833,-52.5 c 0,0 -12.5,-52.5 31.672,-10 0,0 115,88.328 81.67,-9.172 0,0 -41.67,-80 19.16,-50 l 45.84,5.832 c 0,0 40,-17.5 13.33,40.84 0,0 -19.41,42.386 32.54,65.796 7.54,3.391 15.72,5.141 23.95,5.961 30.19,2.993 114.22,13.879 116.48,42.743 0.42,5.378 -4.41,9.488 -9.8,9.07 l -35.67,-2.742 c 0,0 -20.11,0 -10.04,16.218 6.3,10.141 18.26,15.653 30.12,14.231 17.35,-2.078 45.58,-0.438 55.43,29.223 2.09,6.32 -2.31,12.937 -8.96,13.097 l -24.05,0.563 c 0,0 -33.56,2.687 -12.75,23.707 4.8,4.84 11.71,7.14 18.46,6.261 15.2,-2.031 44.32,-1.871 45.3,28.559 0.12,3.52 -2.59,6.609 -6.1,6.832 l -13.15,0.801 c -7.56,0.457 -13.29,2.879 -17.39,7.226 -4.55,4.832 -8.47,12.243 -5.09,22.172 3.39,9.95 12.88,16.641 23.36,17.371 9.19,0.641 21.46,4.071 25.77,17.11 1.73,5.23 -1.47,10.98 -6.73,12.551 -14.4,4.296 -40.81,18.546 -23.35,64.078 0,0 25,57.5 -35,28.332 0,0 -48.33,-15.832 -87.5,40 0,0 -106.66,105 -115,138.328 0,0 -29.16,64.172 55,25.84 0,0 180.94,-114.02 235,-118.34 34.15,-2.731 145,-30 129.17,125 0,0 1.54,37.719 60.84,11.058 3.77,-1.687 8.07,1.063 8.11,5.192 0.23,20.859 -7.71,69.379 -92.28,35.422 0,0 -27.5,-4.172 -11.67,29.168 0,0 8.46,30.78 61.63,34.66 3.44,0.25 5.57,3.82 3.99,6.88 -7.99,15.48 -36.07,48.58 -115.79,-13.06 -5.29,-4.09 -13.01,-3.85 -17.46,1.15 -3.75,4.21 -6.16,11.06 -2.37,22.03 6.4,18.59 30.06,26.82 40.64,29.63 3.3,0.88 4.77,4.6 3.19,7.63 -4.95,9.45 -22.01,23.15 -80.53,-5.19 -4.78,-2.31 -10.47,-1.64 -14.36,1.97 -13.12,12.16 -36.99,42 3.45,71.62 11.72,8.59 25.53,13.86 39.85,16.32 31.11,5.32 101.69,24 115.26,84.69 0,0 31.76,-57.57 80.46,10 6.34,8.81 10.67,19.18 11.25,30.02 0.83,15.65 -4.68,36.78 -34.39,51.26 -16.79,8.18 -32.32,18.95 -45.07,32.61 -8.97,9.61 -17.33,20.68 -20.58,31.11 0,0 -7.16,-41.02 -60.84,-58.33 -51.66,-16.67 -30.83,-73.34 -30.83,-73.34 0,0 11.67,-35 66.67,-16.66 0,0 4.16,-38.34 -110,-47.5 -114.17,-9.17 -109.17,-84.17 -109.17,-84.17 0,0 -10.83,-74.17 116.67,-156.67 0,0 172.92,-158.75 12.9,-129.199 -27.66,5.097 -54.17,15.199 -78.73,28.898 l -72.58,40.473 c -14.52,8.097 -28.28,17.41 -41.45,27.57 -18.48,14.246 -53.11,36.227 -97.7,42.918 -11.81,1.781 -21.49,10.18 -25.75,21.328 -11.56,30.152 -39.27,89.062 -91.69,131.352 -73.342,59.16 3.33,76.66 3.33,76.66 0,0 336.31,48.05 359.62,141.07 0.91,3.69 -2.52,7.02 -6.2,6.02 -26.83,-7.29 -121.65,-30.79 -201.38,-22.78 -1.45,0.14 -1.7,2.19 -0.33,2.66 50.92,17.23 414.53,144.42 375.34,250.12 -1.61,4.36 -6.74,6.32 -10.85,4.18 -43.95,-22.95 -278.82,-144.59 -361.54,-165.96 -2.13,-0.55 -3.25,2.44 -1.28,3.42 81.54,41.01 528.71,273.57 391.87,375.7 -3.36,2.5 -8.17,1.64 -10.13,-2.05 -14.14,-26.7 -82.71,-130.07 -351.9,-274.59 -0.51,-0.28 -1.06,0.42 -0.57,0.74 56.8,37.24 350.46,237.15 245,322.88 -3.96,3.21 -10,2.02 -12.35,-2.5 -12.58,-24.09 -144.84,-180.49 -253.36,-248.66 -0.44,-0.27 -0.91,0.4 -0.5,0.72 37.91,28.66 191.91,154.76 101.31,248.39 -3.22,3.34 -8.85,1.65 -9.72,-2.9 -6.13,-32.1 -44.23,-132.56 -277.2,-280.62 0,0 26.67,128.33 20.84,159.16 l 6.24,1.3 c 17.47,3.63 35.13,6.51 52.96,7.36 26.99,1.29 80.58,14.89 77.46,103.01 l -145.83,-87.5 c 0,0 -20.833,76.67 -120.833,51.67 0,0 -23.339,52.5 -71.672,20.83 0,0 -90.058,45.83 -109.832,-55.23 -0.5,-2.55 1.817,-4.84 4.356,-4.26 22.641,5.22 108.961,20.05 98.812,-59.68 0,0 2.5,-21.66 -29.168,-4.16 0,0 -51.164,24.07 -66.984,-8.57 -1.402,-2.89 -0.23,-6.35 2.711,-7.66 8.238,-3.67 25.555,-12.3 41.773,-26.17 22.293,-19.07 42.5,-48.02 34.168,-87.6 0,0 -0.804,-42.5 -69.984,-84.17"/><path id="path64" style="fill:none;stroke:#231f20;stroke-width:10;stroke-linecap:butt;stroke-linejoin:miter;stroke-miterlimit:10;stroke-dasharray:none;stroke-opacity:1" d="m 726.957,1468.01 c 0,0 -223.473,225.78 -178.824,345.15 2.512,6.72 -3.121,13.63 -10.27,13.1 -44.492,-3.33 -152.078,-35.04 18.508,-283.79 0.192,-0.28 -0.109,-0.68 -0.324,-0.42 -24.52,29.31 -173.516,209.76 -171.602,264.86 0.106,3.01 -3.425,4.72 -5.75,2.81 -22.269,-18.3 -76.484,-93.11 103.985,-319.1 0.41,-0.51 -0.172,-1.25 -0.668,-0.82 -31.051,26.43 -228.293,199.43 -237.379,335.94 -0.442,6.66 -8.516,9.78 -13.078,4.9 -28.762,-30.8 -77.016,-134.32 178.261,-389.68 0.407,-0.41 0.008,-1.13 -0.48,-0.82 -28.828,18.09 -230.734,150.29 -302.539,346.28 -1.277,3.49 -5.508,4.88 -8.4689,2.63 -25.9336,-19.74 -109.2812,-118.66 261.1099,-417.02 0.757,-0.61 0.136,-1.85 -0.747,-1.44 -30.886,14.09 -178.257,84.7 -248.23,178.96 -2.832,3.82 -8.633,2.98 -10.203,-1.51 -15.3322,-43.67 -45.8635,-221.09 408.219,-336.04 6.41,-1.62 11.742,-6.12 14.261,-12.23 6.485,-15.72 14.336,-48.11 -10.129,-82.19 -1.73,-2.41 0.028,-5.74 2.977,-5.39 20.355,2.41 76.355,10.32 118.344,28.35 2.359,1.01 4.82,-0.93 4.343,-3.45 -0.98,-5.16 -1.738,-14.56 -2.308,-24.56 -1.059,-18.53 -1.004,-37.1 0.297,-55.61 1.496,-21.19 2.48,-56.971 -2.864,-73.479 -1.324,-4.101 2.305,-8.031 6.532,-7.211 26.363,5.129 94.664,26.3 114.492,109.49 0.902,3.8 4.547,6.21 8.332,5.26 24.359,-6.11 107.426,-29.45 142.25,-71.31 2.976,-3.58 0.996,-9.05 -3.594,-9.86 -57.726,-10.119 -349.144,-75.9 -214.43,-355.119 2.458,-5.082 1.969,-11.113 -1.484,-15.589 -18.246,-23.672 -75.883,-99.34 -95.566,-135.93 -7.348,-13.66 -17.418,-25.813 -29.832,-35.121 -21.219,-15.891 -49.246,-24.563 -53.473,35.558 -0.48,6.789 -0.023,13.629 0.785,20.403 1.594,13.359 1.055,37.929 -28.805,20.668 l -43.156,-26.942 c 0,0 -44.344,-3.058 -10.172,-29.726 0,0 60.828,-32.5 45,-66.66 0,0 -4.789,-36.723 -79.222,-2.352 -3.867,1.789 -8.614,1.512 -11.778,-1.34 -5.293,-4.75 -8.679,-14.969 11.828,-35.48 l 1.672,-52.5 c 0,0 -5.316,-40.52 20.828,-22.508 5.973,4.109 10.774,9.617 14.805,15.648 8.028,12 27.477,35.75 51.266,27.399 13.793,-4.828 22.187,-18.918 21.535,-33.528 l -1.27,-28.382 c -0.476,-10.59 0.735,-17.868 4.008,-24.36 4.559,-9.039 12.66,-15.437 24.656,9.063 l 41.668,19.168 c 0,0 37.5,-12.5 13.332,25 l -18.933,18.941 c -7.699,7.699 -12.961,17.809 -13.477,28.68 -0.465,9.808 2.93,20.187 17.555,24.168 9.805,2.679 20.359,0.793 29.223,-4.188 16.101,-9.043 49.234,-24.043 69.257,-7.972 2.192,1.761 2.469,5 0.407,6.91 l -12.957,11.953 c -5.149,4.758 -8.844,11.109 -9.446,18.098 -0.734,8.55 8.371,22.582 25.039,15.91 0,0 28.024,-14.66 49.434,-7.629 4.035,1.328 5.609,6.281 3.477,9.961 l -11.243,19.34 c 0,0 -16.668,29.16 22.5,22.5 0,0 31.926,-10.961 51.817,-6.942 8.301,1.68 11.008,12.301 4.871,18.141 l -25.024,23.801 c 0,0 -26.664,30 15.836,25.828 0,0 37.004,-21.149 59.231,-1.66 4.715,4.152 4.476,11.64 -0.336,15.66 l -22.856,19.121 c -6.058,5.078 -8.078,13.519 -4.972,20.777 l 33.613,78.652 c 3.172,7.418 1.192,16.032 -4.898,21.321 l -8.223,7.14 c -9,7.821 -13.859,19.289 -13.359,31.2 1.742,41.64 16.859,139 115.964,191.121 0,0 -2.136,-189.692 199.345,-268.184 0,0 105.66,-35.976 98.16,-131.816 -4.34,-55.391 -16.47,-92.403 -25.93,-113.774 -9.79,-22.097 -34.23,-35 -57.41,-28.187 -13.71,4.051 -27.58,14.89 -36.75,39.32 -3.6,9.59 -5.48,19.719 -6.53,29.91 -2.28,21.91 -10.54,70.27 -37.55,32.731 l -35.83,-40 c 0,0 -49.172,-10 -1.67,-35 0,0 92.5,-51.66 14.17,-48.332 l -37.38,5.601 c -6.97,1.047 -13.824,2.719 -20.593,4.699 -13.75,4.02 -38.282,6.989 -14.532,-33.628 l 5.833,-52.5 c 0,0 -12.5,-52.5 31.672,-10 0,0 115,88.328 81.67,-9.172 0,0 -41.67,-80 19.16,-50 l 45.84,5.832 c 0,0 40,-17.5 13.33,40.84 0,0 -19.41,42.386 32.54,65.796 7.54,3.391 15.72,5.141 23.95,5.961 30.19,2.993 114.22,13.879 116.48,42.743 0.42,5.378 -4.41,9.488 -9.8,9.07 l -35.67,-2.742 c 0,0 -20.11,0 -10.04,16.218 6.3,10.141 18.26,15.653 30.12,14.231 17.35,-2.078 45.58,-0.438 55.43,29.223 2.09,6.32 -2.31,12.937 -8.96,13.097 l -24.05,0.563 c 0,0 -33.56,2.687 -12.75,23.707 4.8,4.84 11.71,7.14 18.46,6.261 15.2,-2.031 44.32,-1.871 45.3,28.559 0.12,3.52 -2.59,6.609 -6.1,6.832 l -13.15,0.801 c -7.56,0.457 -13.29,2.879 -17.39,7.226 -4.55,4.832 -8.47,12.243 -5.09,22.172 3.39,9.95 12.88,16.641 23.36,17.371 9.19,0.641 21.46,4.071 25.77,17.11 1.73,5.23 -1.47,10.98 -6.73,12.551 -14.4,4.296 -40.81,18.546 -23.35,64.078 0,0 25,57.5 -35,28.332 0,0 -48.33,-15.832 -87.5,40 0,0 -106.66,105 -115,138.328 0,0 -29.16,64.172 55,25.84 0,0 180.94,-114.02 235,-118.34 34.15,-2.731 145,-30 129.17,125 0,0 1.54,37.719 60.84,11.058 3.77,-1.687 8.07,1.063 8.11,5.192 0.23,20.859 -7.71,69.379 -92.28,35.422 0,0 -27.5,-4.172 -11.67,29.168 0,0 8.46,30.78 61.63,34.66 3.44,0.25 5.57,3.82 3.99,6.88 -7.99,15.48 -36.07,48.58 -115.79,-13.06 -5.29,-4.09 -13.01,-3.85 -17.46,1.15 -3.75,4.21 -6.16,11.06 -2.37,22.03 6.4,18.59 30.06,26.82 40.64,29.63 3.3,0.88 4.77,4.6 3.19,7.63 -4.95,9.45 -22.01,23.15 -80.53,-5.19 -4.78,-2.31 -10.47,-1.64 -14.36,1.97 -13.12,12.16 -36.99,42 3.45,71.62 11.72,8.59 25.53,13.86 39.85,16.32 31.11,5.32 101.69,24 115.26,84.69 0,0 31.76,-57.57 80.46,10 6.34,8.81 10.67,19.18 11.25,30.02 0.83,15.65 -4.68,36.78 -34.39,51.26 -16.79,8.18 -32.32,18.95 -45.07,32.61 -8.97,9.61 -17.33,20.68 -20.58,31.11 0,0 -7.16,-41.02 -60.84,-58.33 -51.66,-16.67 -30.83,-73.34 -30.83,-73.34 0,0 11.67,-35 66.67,-16.66 0,0 4.16,-38.34 -110,-47.5 -114.17,-9.17 -109.17,-84.17 -109.17,-84.17 0,0 -10.83,-74.17 116.67,-156.67 0,0 172.92,-158.75 12.9,-129.199 -27.66,5.097 -54.17,15.199 -78.73,28.898 l -72.58,40.473 c -14.52,8.097 -28.28,17.41 -41.45,27.57 -18.48,14.246 -53.11,36.227 -97.7,42.918 -11.81,1.781 -21.49,10.18 -25.75,21.328 -11.56,30.152 -39.27,89.062 -91.69,131.352 -73.342,59.16 3.33,76.66 3.33,76.66 0,0 336.31,48.05 359.62,141.07 0.91,3.69 -2.52,7.02 -6.2,6.02 -26.83,-7.29 -121.65,-30.79 -201.38,-22.78 -1.45,0.14 -1.7,2.19 -0.33,2.66 50.92,17.23 414.53,144.42 375.34,250.12 -1.61,4.36 -6.74,6.32 -10.85,4.18 -43.95,-22.95 -278.82,-144.59 -361.54,-165.96 -2.13,-0.55 -3.25,2.44 -1.28,3.42 81.54,41.01 528.71,273.57 391.87,375.7 -3.36,2.5 -8.17,1.64 -10.13,-2.05 -14.14,-26.7 -82.71,-130.07 -351.9,-274.59 -0.51,-0.28 -1.06,0.42 -0.57,0.74 56.8,37.24 350.46,237.15 245,322.88 -3.96,3.21 -10,2.02 -12.35,-2.5 -12.58,-24.09 -144.84,-180.49 -253.36,-248.66 -0.44,-0.27 -0.91,0.4 -0.5,0.72 37.91,28.66 191.91,154.76 101.31,248.39 -3.22,3.34 -8.85,1.65 -9.72,-2.9 -6.13,-32.1 -44.23,-132.56 -277.2,-280.62 0,0 26.67,128.33 20.84,159.16 l 6.24,1.3 c 17.47,3.63 35.13,6.51 52.96,7.36 26.99,1.29 80.58,14.89 77.46,103.01 l -145.83,-87.5 c 0,0 -20.833,76.67 -120.833,51.67 0,0 -23.339,52.5 -71.672,20.83 0,0 -90.058,45.83 -109.832,-55.23 -0.5,-2.55 1.817,-4.84 4.356,-4.26 22.641,5.22 108.961,20.05 98.812,-59.68 0,0 2.5,-21.66 -29.168,-4.16 0,0 -51.164,24.07 -66.984,-8.57 -1.402,-2.89 -0.23,-6.35 2.711,-7.66 8.238,-3.67 25.555,-12.3 41.773,-26.17 22.293,-19.07 42.5,-48.02 34.168,-87.6 0,0 -0.804,-42.5 -69.984,-84.17 z"/><path id="path66" style="fill:#ed1c24;fill-opacity:1;fill-rule:nonzero;stroke:none" d="m 393.031,540.52 c 7.188,12.121 26.735,36.98 59.84,21.769 6.524,-2.988 12.488,-7.348 16.856,-13.051 6.945,-9.058 15.128,-28.519 -2.372,-43.519 0,0 -18.125,-12.5 -26.25,6.883 -7.722,18.418 -4.144,21.589 -44.64,21.847 -3.121,0.02 -5.027,3.391 -3.434,6.071"/><path id="path68" style="fill:none;stroke:#231f20;stroke-width:10;stroke-linecap:butt;stroke-linejoin:miter;stroke-miterlimit:10;stroke-dasharray:none;stroke-opacity:1" d="m 393.031,540.52 c 7.188,12.121 26.735,36.98 59.84,21.769 6.524,-2.988 12.488,-7.348 16.856,-13.051 6.945,-9.058 15.128,-28.519 -2.372,-43.519 0,0 -18.125,-12.5 -26.25,6.883 -7.722,18.418 -4.144,21.589 -44.64,21.847 -3.121,0.02 -5.027,3.391 -3.434,6.071 z"/><path id="path70" style="fill:#ed1c24;fill-opacity:1;fill-rule:nonzero;stroke:none" d="m 320.586,328.148 c -1.91,13.981 -2.063,45.59 33.32,54.274 6.965,1.719 14.356,2 21.317,0.258 11.074,-2.77 30.257,-10.711 25.211,-35.551 0,0 -6.418,-21.059 -24.829,-10.938 -17.511,9.618 -16.675,14.321 -48.55,-10.66 -2.457,-1.922 -6.047,-0.461 -6.469,2.617"/><path id="path72" style="fill:none;stroke:#231f20;stroke-width:10;stroke-linecap:butt;stroke-linejoin:miter;stroke-miterlimit:10;stroke-dasharray:none;stroke-opacity:1" d="m 320.586,328.148 c -1.91,13.981 -2.063,45.59 33.32,54.274 6.965,1.719 14.356,2 21.317,0.258 11.074,-2.77 30.257,-10.711 25.211,-35.551 0,0 -6.418,-21.059 -24.829,-10.938 -17.511,9.618 -16.675,14.321 -48.55,-10.66 -2.457,-1.922 -6.047,-0.461 -6.469,2.617 z"/><path id="path74" style="fill:#ed1c24;fill-opacity:1;fill-rule:nonzero;stroke:none" d="m 982.531,465.23 c 6.098,12.719 23.349,39.211 57.679,27.008 6.76,-2.398 13.09,-6.226 17.95,-11.508 7.72,-8.41 19.38,-25.589 1.5,-43.55 0,0 -16.94,-14.071 -26.76,4.511 -9.32,17.668 -6.04,21.141 -46.4,17.797 -3.109,-0.25 -5.305,2.934 -3.969,5.742"/><path id="path76" style="fill:none;stroke:#231f20;stroke-width:10;stroke-linecap:butt;stroke-linejoin:miter;stroke-miterlimit:10;stroke-dasharray:none;stroke-opacity:1" d="m 982.531,465.23 c 6.098,12.719 23.349,39.211 57.679,27.008 6.76,-2.398 13.09,-6.226 17.95,-11.508 7.72,-8.41 19.38,-25.589 1.5,-43.55 0,0 -16.94,-14.071 -26.76,4.511 -9.32,17.668 -6.04,21.141 -46.4,17.797 -3.109,-0.25 -5.305,2.934 -3.969,5.742 z"/><path id="path78" style="fill:#ed1c24;fill-opacity:1;fill-rule:nonzero;stroke:none" d="m 905.324,276.988 c -1.238,14.043 0.117,45.621 35.871,52.621 7.039,1.371 14.434,1.321 21.297,-0.757 10.938,-3.301 29.719,-12.141 23.496,-36.711 0,0 -7.422,-20.743 -25.332,-9.75 -17.027,10.449 -15.965,15.109 -49.004,-8.321 -2.539,-1.808 -6.054,-0.191 -6.328,2.918"/><path id="path80" style="fill:none;stroke:#231f20;stroke-width:10;stroke-linecap:butt;stroke-linejoin:miter;stroke-miterlimit:10;stroke-dasharray:none;stroke-opacity:1" d="m 905.324,276.988 c -1.238,14.043 0.117,45.621 35.871,52.621 7.039,1.371 14.434,1.321 21.297,-0.757 10.938,-3.301 29.719,-12.141 23.496,-36.711 0,0 -7.422,-20.743 -25.332,-9.75 -17.027,10.449 -15.965,15.109 -49.004,-8.321 -2.539,-1.808 -6.054,-0.191 -6.328,2.918 z"/><path id="path82" style="fill:#ed1c24;fill-opacity:1;fill-rule:nonzero;stroke:none" d="m 1108.12,142.129 c 13.88,-2.438 45.47,-3.77 55.47,31.262 1.97,6.898 2.54,14.269 1.06,21.289 -2.36,11.179 -9.58,30.64 -34.59,26.531 0,0 -21.29,-5.633 -11.86,-24.41 8.96,-17.86 13.69,-17.192 -12.46,-48.121 -2.02,-2.379 -0.7,-6.02 2.38,-6.551"/><path id="path84" style="fill:none;stroke:#231f20;stroke-width:10;stroke-linecap:butt;stroke-linejoin:miter;stroke-miterlimit:10;stroke-dasharray:none;stroke-opacity:1" d="m 1108.12,142.129 c 13.88,-2.438 45.47,-3.77 55.47,31.262 1.97,6.898 2.54,14.269 1.06,21.289 -2.36,11.179 -9.58,30.64 -34.59,26.531 0,0 -21.29,-5.633 -11.86,-24.41 8.96,-17.86 13.69,-17.192 -12.46,-48.121 -2.02,-2.379 -0.7,-6.02 2.38,-6.551 z"/><path id="path86" style="fill:#ed1c24;fill-opacity:1;fill-rule:nonzero;stroke:none" d="m 561.289,210.121 c 12.918,5.649 39.988,21.969 29.004,56.699 -2.168,6.84 -5.77,13.301 -10.875,18.34 -8.137,8.012 -25.188,17.442 -43.48,3.031 0,0 -14.645,-16.441 3.578,-26.902 17.328,-9.937 20.914,-6.777 16.172,-47.008 -0.368,-3.09 2.738,-5.402 5.601,-4.16"/><path id="path88" style="fill:none;stroke:#231f20;stroke-width:10;stroke-linecap:butt;stroke-linejoin:miter;stroke-miterlimit:10;stroke-dasharray:none;stroke-opacity:1" d="m 561.289,210.121 c 12.918,5.649 39.988,21.969 29.004,56.699 -2.168,6.84 -5.77,13.301 -10.875,18.34 -8.137,8.012 -25.188,17.442 -43.48,3.031 0,0 -14.645,-16.441 3.578,-26.902 17.328,-9.937 20.914,-6.777 16.172,-47.008 -0.368,-3.09 2.738,-5.402 5.601,-4.16 z"/><path id="path90" style="fill:#ed1c24;fill-opacity:1;fill-rule:nonzero;stroke:none" d="m 892.777,1784.68 c 0,0 -23.339,52.5 -71.672,20.83 0,0 -90.039,45.82 -109.828,-55.19 -0.504,-2.57 1.832,-4.88 4.379,-4.29 22.696,5.22 108.93,20.01 98.785,-59.69 0,0 2.5,-21.66 -29.168,-4.16 0,0 -51.113,24.05 -66.96,-8.52 -1.418,-2.92 -0.227,-6.41 2.734,-7.73 8.258,-3.69 25.539,-12.31 41.726,-26.15 0,0 66.457,-48.44 92.707,-47.82 26.25,0.63 20,14.38 20,14.38 0,0 -21.039,156.67 17.297,178.34"/><path id="path92" style="fill:none;stroke:#231f20;stroke-width:10;stroke-linecap:butt;stroke-linejoin:miter;stroke-miterlimit:10;stroke-dasharray:none;stroke-opacity:1" d="m 892.777,1784.68 c 0,0 -23.339,52.5 -71.672,20.83 0,0 -90.039,45.82 -109.828,-55.19 -0.504,-2.57 1.832,-4.88 4.379,-4.29 22.696,5.22 108.93,20.01 98.785,-59.69 0,0 2.5,-21.66 -29.168,-4.16 0,0 -51.113,24.05 -66.96,-8.52 -1.418,-2.92 -0.227,-6.41 2.734,-7.73 8.258,-3.69 25.539,-12.31 41.726,-26.15 0,0 66.457,-48.44 92.707,-47.82 26.25,0.63 20,14.38 20,14.38 0,0 -21.039,156.67 17.297,178.34 z"/><path id="path94" style="fill:#231f20;fill-opacity:1;fill-rule:nonzero;stroke:none" d="m 1118.61,1874.68 c 0,0 -121.672,27.5 -131.672,-85.84 0,0 12.648,-6.61 24.172,-20.63 0,0 52.5,73.13 107.5,106.47"/><path id="path96" style="fill:none;stroke:#231f20;stroke-width:10;stroke-linecap:butt;stroke-linejoin:miter;stroke-miterlimit:10;stroke-dasharray:none;stroke-opacity:1" d="m 1118.61,1874.68 c 0,0 -121.672,27.5 -131.672,-85.84 0,0 12.648,-6.61 24.172,-20.63 0,0 52.5,73.13 107.5,106.47 z"/><path id="path98" style="fill:#ffffff;fill-opacity:1;fill-rule:nonzero;stroke:none" d="m 961.527,1671.44 c -9.48,-9.48 -32.89,-1.45 -52.285,17.95 -19.406,19.4 -27.441,42.81 -17.961,52.29 9.485,9.48 32.891,1.44 52.297,-17.96 19.395,-19.39 27.43,-42.81 17.949,-52.28"/><path id="path100" style="fill:#231f20;fill-opacity:1;fill-rule:nonzero;stroke:none" d="m 950.07,1712.25 c 0,-9.93 -8.047,-17.96 -17.968,-17.96 -9.922,0 -17.969,8.03 -17.969,17.96 0,9.93 8.047,17.97 17.969,17.97 9.921,0 17.968,-8.04 17.968,-17.97"/><path id="path102" style="fill:none;stroke:#ffffff;stroke-width:10;stroke-linecap:butt;stroke-linejoin:miter;stroke-miterlimit:10;stroke-dasharray:none;stroke-opacity:1" d="m 1020.69,1574.26 c 0,0 -378.366,-257.85 -394.694,-451.1"/><path id="path104" style="fill:none;stroke:#ffffff;stroke-width:10;stroke-linecap:butt;stroke-linejoin:miter;stroke-miterlimit:10;stroke-dasharray:none;stroke-opacity:1" d="m 728.32,1480.59 c 0,0 -202.847,-163.32 -219.398,-276.12"/><path id="path106" style="fill:none;stroke:#ffffff;stroke-width:10;stroke-linecap:butt;stroke-linejoin:miter;stroke-miterlimit:10;stroke-dasharray:none;stroke-opacity:1" d="m 926.527,901.34 c 0,0 0,89.172 -36.25,119.59"/><path id="path108" style="fill:none;stroke:#ffffff;stroke-width:10;stroke-linecap:butt;stroke-linejoin:miter;stroke-miterlimit:10;stroke-dasharray:none;stroke-opacity:1" d="m 765.273,1084.26 c 0,0 6.075,71.25 76.786,71.25 70.718,0 174.881,24.58 174.881,24.58"/><path id="path110" style="fill:none;stroke:#ffffff;stroke-width:10;stroke-linecap:butt;stroke-linejoin:miter;stroke-miterlimit:10;stroke-dasharray:none;stroke-opacity:1" d="m 986.938,1517.59 c 0,0 68.172,56.7 64.502,17.01 -0.87,-9.3 -4.87,-18.05 -10.51,-25.5 l -23.75,-31.41 c -3.07,-4.06 -0.73,-9.94 4.32,-10.69 17.99,-2.64 48.01,-12.22 23.36,-46.91 l -27.85,-38.42 c -3.48,-4.79 -0.4,-11.44 5.48,-12.03 18.67,-1.86 46.73,-10.1 21.12,-44.55 l -41.08,-40.77 c -5.69,-5.65 -2.596,-15.44 5.33,-16.66 24.94,-3.85 50.16,-19.34 -64.255,-80.07"/><path id="path112" style="fill:none;stroke:#ffffff;stroke-width:10;stroke-linecap:butt;stroke-linejoin:miter;stroke-miterlimit:10;stroke-dasharray:none;stroke-opacity:1" d="m 409.441,1253.84 c 0,0 -64.656,73.75 11,51.25 56.36,-16.75 39.539,4.62 27.278,16.62 -9.184,9 -16.895,19.5 -22.262,31.18 -8.523,18.57 -10.238,38.72 34.508,23.45 55.66,-18.99 37.93,7.07 25.351,21.52 -7.777,8.93 -13.496,19.6 -16.039,31.16 -3.718,16.93 -0.422,33.57 39.328,11.07 66.25,-37.5 35.383,20 35.383,20 0,0 -33.027,65 22.672,32.5 55.695,-32.5 39.445,9.1 39.445,9.1 0,0 -43.433,73.24 74.235,-2.68"/></g></g></svg>