<?xml version="1.0" encoding="UTF-8" standalone="no"?>
<svg xmlns:dc="http://purl.org/dc/elements/1.1/" xmlns:cc="http://creativecommons.org/ns#" xmlns:rdf="http://www.w3.org/1999/02/22-rdf-syntax-ns#" xmlns:svg="http://www.w3.org/2000/svg" xmlns="http://www.w3.org/2000/svg" viewBox="0 0 226.77333 264.57333" height="264.57333" width="226.77333" xml:space="preserve" id="svg2" version="1.1"><metadata id="metadata8"><rdf:RDF><cc:Work rdf:about=""><dc:format>image/svg+xml</dc:format><dc:type rdf:resource="http://purl.org/dc/dcmitype/StillImage"/></cc:Work></rdf:RDF></metadata><defs id="defs6"/><g transform="matrix(1.3333333,0,0,-1.3333333,0,264.57333)" id="g10"><g transform="scale(0.1)" id="g12"><path id="path14" style="fill:#ed1c24;fill-opacity:1;fill-rule:evenodd;stroke:none" d="M 850.391,17.5 C 391.137,17.5 17.5,391.129 17.5,850.391 V 1966.75 H 1683.29 V 850.391 C 1683.29,391.129 1309.66,17.5 850.391,17.5"/><path id="path16" style="fill:#231f20;fill-opacity:1;fill-rule:nonzero;stroke:none" d="M 1700.79,1984.25 H 0 V 850.391 C 0,380.73 380.734,0 850.395,0 1320.05,0 1700.79,380.73 1700.79,850.391 V 1984.25 Z m -35,-35 V 850.391 C 1665.79,400.781 1300,35 850.395,35 400.785,35 35,400.781 35,850.391 V 1949.25 h 1630.79"/><path id="path18" style="fill:#ffffff;fill-opacity:1;fill-rule:nonzero;stroke:none" d="m 1249.39,1391.34 -185.95,21.67 -142.331,-21.67 V 604.68 l 328.281,47.851 v 738.809"/><path id="path20" style="fill:none;stroke:#231f20;stroke-width:10;stroke-linecap:butt;stroke-linejoin:miter;stroke-miterlimit:10;stroke-dasharray:none;stroke-opacity:1" d="m 1249.39,1391.34 -185.95,21.67 -142.331,-21.67 V 604.68 l 328.281,47.851 z"/><path id="path22" style="fill:none;stroke:#231f20;stroke-width:10;stroke-linecap:butt;stroke-linejoin:miter;stroke-miterlimit:10;stroke-dasharray:none;stroke-opacity:1" d="M 1063.44,1413.01 V 643.559"/><path id="path24" style="fill:#ffffff;fill-opacity:1;fill-rule:nonzero;stroke:none" d="M 414.504,951.832 V 785.512 L 510,788.84 506.109,1003.01 414.504,951.832"/><path id="path26" style="fill:none;stroke:#231f20;stroke-width:10;stroke-linecap:butt;stroke-linejoin:miter;stroke-miterlimit:10;stroke-dasharray:none;stroke-opacity:1" d="M 414.504,951.832 V 785.512 L 510,788.84 506.109,1003.01 Z"/><path id="path28" style="fill:#ffffff;fill-opacity:1;fill-rule:nonzero;stroke:none" d="m 390.168,947.59 126.773,230 105.891,23.17 3.523,-5.06 L 506.23,967.789 390.168,947.59"/><path id="path30" style="fill:none;stroke:#231f20;stroke-width:10;stroke-linecap:butt;stroke-linejoin:miter;stroke-miterlimit:10;stroke-dasharray:none;stroke-opacity:1" d="m 390.168,947.59 126.773,230 105.891,23.17 3.523,-5.06 L 506.23,967.789 Z"/><path id="path32" style="fill:#ffffff;fill-opacity:1;fill-rule:nonzero;stroke:none" d="m 101.941,699.48 c 0,0 61.25,39.36 216.875,30.61 l 3.989,-142.75 -220.864,19.332 v 92.808"/><path id="path34" style="fill:none;stroke:#231f20;stroke-width:10;stroke-linecap:butt;stroke-linejoin:miter;stroke-miterlimit:10;stroke-dasharray:none;stroke-opacity:1" d="m 101.941,699.48 c 0,0 61.25,39.36 216.875,30.61 l 3.989,-142.75 -220.864,19.332 z"/><path id="path36" style="fill:none;stroke:#231f20;stroke-width:10;stroke-linecap:butt;stroke-linejoin:miter;stroke-miterlimit:10;stroke-dasharray:none;stroke-opacity:1" d="m 109.113,637.738 c 0,0 57.867,44.192 213.692,48.043"/><path id="path38" style="fill:#ffffff;fill-opacity:1;fill-rule:nonzero;stroke:none" d="m 31.1094,726.34 53.332,43.34 V 739.102 L 118.297,769.68 V 636.059 l -71.3556,-6.778 -15.832,97.059"/><path id="path40" style="fill:none;stroke:#231f20;stroke-width:10;stroke-linecap:butt;stroke-linejoin:miter;stroke-miterlimit:10;stroke-dasharray:none;stroke-opacity:1" d="m 31.1094,726.34 53.332,43.34 V 739.102 L 118.297,769.68 V 636.059 l -71.3556,-6.778 z"/><path id="path42" style="fill:#231f20;fill-opacity:1;fill-rule:nonzero;stroke:none" d="m 1100.44,1672.18 c 0,-10.22 -8.28,-18.5 -18.5,-18.5 -10.22,0 -18.5,8.28 -18.5,18.5 0,10.21 8.28,18.5 18.5,18.5 10.22,0 18.5,-8.29 18.5,-18.5"/><path id="path44" style="fill:none;stroke:#231f20;stroke-width:10;stroke-linecap:butt;stroke-linejoin:miter;stroke-miterlimit:10;stroke-dasharray:none;stroke-opacity:1" d="m 1100.44,1672.18 c 0,-10.22 -8.28,-18.5 -18.5,-18.5 -10.22,0 -18.5,8.28 -18.5,18.5 0,10.21 8.28,18.5 18.5,18.5 10.22,0 18.5,-8.29 18.5,-18.5 z"/><path id="path46" style="fill:#231f20;fill-opacity:1;fill-rule:nonzero;stroke:none" d="m 1087.63,1672.18 h -11.38 v 111.62 h 11.38 v -111.62"/><path id="path48" style="fill:none;stroke:#231f20;stroke-width:10;stroke-linecap:butt;stroke-linejoin:miter;stroke-miterlimit:10;stroke-dasharray:none;stroke-opacity:1" d="m 1087.63,1672.18 h -11.38 v 111.62 h 11.38 z"/><path id="path50" style="fill:#231f20;fill-opacity:1;fill-rule:nonzero;stroke:none" d="m 1087.63,1672.18 h -11.38 v -47.23 h 11.38 v 47.23"/><path id="path52" style="fill:none;stroke:#231f20;stroke-width:10;stroke-linecap:butt;stroke-linejoin:miter;stroke-miterlimit:10;stroke-dasharray:none;stroke-opacity:1" d="m 1087.63,1672.18 h -11.38 v -47.23 h 11.38 z"/><path id="path54" style="fill:#231f20;fill-opacity:1;fill-rule:nonzero;stroke:none" d="m 1113.1,1745.87 h -62.32 v 18.97 h 62.32 v -18.97"/><path id="path56" style="fill:none;stroke:#231f20;stroke-width:10;stroke-linecap:butt;stroke-linejoin:miter;stroke-miterlimit:10;stroke-dasharray:none;stroke-opacity:1" d="m 1113.1,1745.87 h -62.32 v 18.97 h 62.32 z"/><path id="path58" style="fill:none;stroke:#231f20;stroke-width:10;stroke-linecap:butt;stroke-linejoin:miter;stroke-miterlimit:10;stroke-dasharray:none;stroke-opacity:1" d="M 84.4414,739.102 V 643.559"/><path id="path60" style="fill:#ffffff;fill-opacity:1;fill-rule:nonzero;stroke:none" d="m 463.191,886.34 162.5,307.5 256.25,20 38.75,38.75 92.499,6.25 V 620.09 L 475.691,568.84 v 318.75 l -12.5,-1.25"/><path id="path62" style="fill:none;stroke:#231f20;stroke-width:10;stroke-linecap:butt;stroke-linejoin:miter;stroke-miterlimit:10;stroke-dasharray:none;stroke-opacity:1" d="m 463.191,886.34 162.5,307.5 256.25,20 38.75,38.75 92.499,6.25 V 620.09 L 475.691,568.84 v 318.75 z"/><path id="path64" style="fill:none;stroke:#231f20;stroke-width:10;stroke-linecap:butt;stroke-linejoin:miter;stroke-miterlimit:10;stroke-dasharray:none;stroke-opacity:1" d="m 809.441,694.34 v 240.75 l 60,88.75 91.25,185 52.499,50"/><path id="path66" style="fill:none;stroke:#231f20;stroke-width:10;stroke-linecap:butt;stroke-linejoin:miter;stroke-miterlimit:10;stroke-dasharray:none;stroke-opacity:1" d="m 475.691,887.59 333.75,35"/><path id="path68" style="fill:#ffffff;fill-opacity:1;fill-rule:nonzero;stroke:none" d="m 744.441,793.781 141.25,186.309 157.499,6.254 133.75,-192.563 h -24.17 l 0.84,-130.351 -387.919,-58.75 v 190.05 l -21.25,-0.949"/><path id="path70" style="fill:none;stroke:#231f20;stroke-width:10;stroke-linecap:butt;stroke-linejoin:miter;stroke-miterlimit:10;stroke-dasharray:none;stroke-opacity:1" d="m 744.441,793.781 141.25,186.309 157.499,6.254 133.75,-192.563 h -24.17 l 0.84,-130.351 -387.919,-58.75 v 190.05 z"/><path id="path72" style="fill:none;stroke:#231f20;stroke-width:10;stroke-linecap:butt;stroke-linejoin:miter;stroke-miterlimit:10;stroke-dasharray:none;stroke-opacity:1" d="m 765.691,587.34 v 207.39 l 142.11,5.508 V 605.57 Z"/><path id="path74" style="fill:none;stroke:#231f20;stroke-width:10;stroke-linecap:butt;stroke-linejoin:miter;stroke-miterlimit:10;stroke-dasharray:none;stroke-opacity:1" d="M 1043.19,986.344 914.09,800.48 765.691,794.73"/><path id="path76" style="fill:none;stroke:#231f20;stroke-width:10;stroke-linecap:butt;stroke-linejoin:miter;stroke-miterlimit:10;stroke-dasharray:none;stroke-opacity:1" d="M 1152.77,793.781 1030.15,967.789"/><path id="path78" style="fill:none;stroke:#231f20;stroke-width:10;stroke-linecap:butt;stroke-linejoin:miter;stroke-miterlimit:10;stroke-dasharray:none;stroke-opacity:1" d="m 1171.11,1305.72 v 44.82 c 0,4.47 4.14,8.1 9.25,8.1 5.11,0 9.26,-3.63 9.26,-8.1 v -46.28 z"/><path id="path80" style="fill:none;stroke:#231f20;stroke-width:10;stroke-linecap:butt;stroke-linejoin:miter;stroke-miterlimit:10;stroke-dasharray:none;stroke-opacity:1" d="m 1152.6,1306.76 v 45.87 c 0,4.47 4.14,8.09 9.25,8.09 5.11,0 9.26,-3.62 9.26,-8.09 v -46.91 z"/><path id="path82" style="fill:none;stroke:#231f20;stroke-width:10;stroke-linecap:butt;stroke-linejoin:miter;stroke-miterlimit:10;stroke-dasharray:none;stroke-opacity:1" d="m 1134.09,1307.59 v 47.23 c 0,4.48 4.14,8.11 9.25,8.11 5.11,0 9.26,-3.63 9.26,-8.11 v -48.06 z"/><path id="path84" style="fill:none;stroke:#231f20;stroke-width:10;stroke-linecap:butt;stroke-linejoin:miter;stroke-miterlimit:10;stroke-dasharray:none;stroke-opacity:1" d="m 979.199,1305.72 v 44.82 c 0,4.47 -4.14,8.1 -9.254,8.1 -5.109,0 -9.254,-3.63 -9.254,-8.1 v -46.28 z"/><path id="path86" style="fill:none;stroke:#231f20;stroke-width:10;stroke-linecap:butt;stroke-linejoin:miter;stroke-miterlimit:10;stroke-dasharray:none;stroke-opacity:1" d="m 997.711,1306.76 v 45.87 c 0,4.47 -4.145,8.09 -9.254,8.09 -5.113,0 -9.258,-3.62 -9.258,-8.09 v -46.91 z"/><path id="path88" style="fill:none;stroke:#231f20;stroke-width:10;stroke-linecap:butt;stroke-linejoin:miter;stroke-miterlimit:10;stroke-dasharray:none;stroke-opacity:1" d="m 1016.22,1307.59 v 47.23 c 0,4.48 -4.14,8.11 -9.25,8.11 -5.11,0 -9.259,-3.63 -9.259,-8.11 v -48.06 z"/><path id="path90" style="fill:none;stroke:#231f20;stroke-width:10;stroke-linecap:butt;stroke-linejoin:miter;stroke-miterlimit:10;stroke-dasharray:none;stroke-opacity:1" d="m 1161.85,1183.22 v 43.47 c 0,4.47 4.15,8.1 9.26,8.1 5.11,0 9.25,-3.63 9.25,-8.1 v -43.78 z"/><path id="path92" style="fill:none;stroke:#231f20;stroke-width:10;stroke-linecap:butt;stroke-linejoin:miter;stroke-miterlimit:10;stroke-dasharray:none;stroke-opacity:1" d="m 1152.6,945.09 v -48.129 l 18.51,0.48 v 47.649 z"/><path id="path94" style="fill:none;stroke:#231f20;stroke-width:10;stroke-linecap:butt;stroke-linejoin:miter;stroke-miterlimit:10;stroke-dasharray:none;stroke-opacity:1" d="m 1143.34,1182.91 v 45.87 c 0,4.47 4.15,8.1 9.26,8.1 5.11,0 9.25,-3.63 9.25,-8.1 v -45.56 z"/><path id="path96" style="fill:#ffffff;fill-opacity:1;fill-rule:nonzero;stroke:none" d="m 1076.25,1624.95 -164.934,-233.61 152.124,21.67 194.33,-21.67 -170.14,233.61 h -11.38"/><path id="path98" style="fill:none;stroke:#231f20;stroke-width:10;stroke-linecap:butt;stroke-linejoin:miter;stroke-miterlimit:10;stroke-dasharray:none;stroke-opacity:1" d="m 1076.25,1624.95 -164.934,-233.61 152.124,21.67 194.33,-21.67 -170.14,233.61 z"/><path id="path100" style="fill:#ffffff;fill-opacity:1;fill-rule:nonzero;stroke:none" d="m 374.535,805.441 109.055,8.387 V 587.34 H 296.746 v 149.469 h -17.539 l 95.328,68.632"/><path id="path102" style="fill:none;stroke:#231f20;stroke-width:10;stroke-linecap:butt;stroke-linejoin:miter;stroke-miterlimit:10;stroke-dasharray:none;stroke-opacity:1" d="m 374.535,805.441 109.055,8.387 V 587.34 H 296.746 v 149.469 h -17.539 z"/><path id="path104" style="fill:none;stroke:#231f20;stroke-width:10;stroke-linecap:butt;stroke-linejoin:miter;stroke-miterlimit:10;stroke-dasharray:none;stroke-opacity:1" d="m 483.59,813.828 -83.125,-71.68 -103.719,-5.339"/><path id="path106" style="fill:none;stroke:#231f20;stroke-width:10;stroke-linecap:butt;stroke-linejoin:miter;stroke-miterlimit:10;stroke-dasharray:none;stroke-opacity:1" d="m 401.988,606.672 -1.523,135.476"/><path id="path108" style="fill:#ffffff;fill-opacity:1;fill-rule:nonzero;stroke:none" d="m 46.9414,653.84 c 0,0 317.4996,-107.5 894.9996,0 0,0 386.249,58.75 492.499,102.5 v 35 l 60,47.5 57.5,-36.25 v -35 c 0,0 75,-9.02 117.5,-45.129 l -17.5,-116.391 c 0,0 -148.31,57.969 -357.5,0 -209.19,-57.98 -469.835,-138.39 -732.256,-138.39 -86.864,0 -347.368,22.59 -496.4926,111.16 l -18.75,75"/><path id="path110" style="fill:none;stroke:#231f20;stroke-width:10;stroke-linecap:butt;stroke-linejoin:miter;stroke-miterlimit:10;stroke-dasharray:none;stroke-opacity:1" d="m 46.9414,653.84 c 0,0 317.4996,-107.5 894.9996,0 0,0 386.249,58.75 492.499,102.5 v 35 l 60,47.5 57.5,-36.25 v -35 c 0,0 75,-9.02 117.5,-45.129 l -17.5,-116.391 c 0,0 -148.31,57.969 -357.5,0 -209.19,-57.98 -469.835,-138.39 -732.256,-138.39 -86.864,0 -347.368,22.59 -496.4926,111.16 z"/><path id="path112" style="fill:none;stroke:#231f20;stroke-width:10;stroke-linecap:butt;stroke-linejoin:miter;stroke-miterlimit:10;stroke-dasharray:none;stroke-opacity:1" d="m 1522,636.141 v 134.32 c 0,12.879 -11.23,23.32 -25.09,23.32 -13.85,0 -25.09,-10.441 -25.09,-23.32 V 634.398"/><path id="path114" style="fill:#ffffff;fill-opacity:1;fill-rule:nonzero;stroke:none" d="m 1103.69,629.07 h -47.63 v 135.739 h 47.63 V 629.07"/><path id="path116" style="fill:none;stroke:#231f20;stroke-width:10;stroke-linecap:butt;stroke-linejoin:miter;stroke-miterlimit:10;stroke-dasharray:none;stroke-opacity:1" d="m 1103.69,629.07 h -47.63 v 135.739 h 47.63 z"/><path id="path118" style="fill:#ffffff;fill-opacity:1;fill-rule:nonzero;stroke:none" d="m 46.9414,653.84 c 0,0 317.4996,-107.5 894.9996,0 0,0 386.249,58.75 492.499,102.5 v 35 l 60,47.5 57.5,-36.25 v -35 c 0,0 75,-9.02 117.5,-45.129 l -17.5,-116.391 c 0,0 -148.31,57.969 -357.5,0 -209.19,-57.98 -469.835,-138.39 -732.256,-138.39 -86.864,0 -347.368,22.59 -496.4926,111.16 l -18.75,75"/><path id="path120" style="fill:none;stroke:#231f20;stroke-width:10;stroke-linecap:butt;stroke-linejoin:miter;stroke-miterlimit:10;stroke-dasharray:none;stroke-opacity:1" d="m 46.9414,653.84 c 0,0 317.4996,-107.5 894.9996,0 0,0 386.249,58.75 492.499,102.5 v 35 l 60,47.5 57.5,-36.25 v -35 c 0,0 75,-9.02 117.5,-45.129 l -17.5,-116.391 c 0,0 -148.31,57.969 -357.5,0 -209.19,-57.98 -469.835,-138.39 -732.256,-138.39 -86.864,0 -347.368,22.59 -496.4926,111.16 z"/><path id="path122" style="fill:none;stroke:#231f20;stroke-width:10;stroke-linecap:butt;stroke-linejoin:miter;stroke-miterlimit:10;stroke-dasharray:none;stroke-opacity:1" d="m 1522,636.141 v 134.32 c 0,12.879 -11.23,23.32 -25.09,23.32 -13.85,0 -25.09,-10.441 -25.09,-23.32 V 634.398"/><path id="path124" style="fill:#231f20;fill-opacity:1;fill-rule:nonzero;stroke:none" d="M 1700.79,1984.25 H 0 V 850.391 C 0,380.73 380.734,0 850.395,0 1320.05,0 1700.79,380.73 1700.79,850.391 V 1984.25 Z m -35,-35 V 850.391 C 1665.79,400.781 1300,35 850.395,35 400.785,35 35,400.781 35,850.391 V 1949.25 h 1630.79"/></g></g></svg>