<?xml version="1.0" encoding="UTF-8" standalone="no"?>
<svg xmlns:dc="http://purl.org/dc/elements/1.1/" xmlns:cc="http://creativecommons.org/ns#" xmlns:rdf="http://www.w3.org/1999/02/22-rdf-syntax-ns#" xmlns:svg="http://www.w3.org/2000/svg" xmlns="http://www.w3.org/2000/svg" viewBox="0 0 226.77333 264.57333" height="264.57333" width="226.77333" xml:space="preserve" id="svg2" version="1.1"><metadata id="metadata8"><rdf:RDF><cc:Work rdf:about=""><dc:format>image/svg+xml</dc:format><dc:type rdf:resource="http://purl.org/dc/dcmitype/StillImage"/></cc:Work></rdf:RDF></metadata><defs id="defs6"/><g transform="matrix(1.3333333,0,0,-1.3333333,0,264.57333)" id="g10"><g transform="scale(0.1)" id="g12"><path id="path14" style="fill:#1c63b7;fill-opacity:1;fill-rule:evenodd;stroke:none" d="M 850.391,17.5 C 391.137,17.5 17.5,391.129 17.5,850.391 V 1966.75 H 1683.29 V 850.391 C 1683.29,391.129 1309.66,17.5 850.391,17.5"/><path id="path16" style="fill:#231f20;fill-opacity:1;fill-rule:nonzero;stroke:none" d="M 1700.79,1984.25 H 0 V 850.391 C 0,380.73 380.734,0 850.391,0 1320.06,0 1700.79,380.73 1700.79,850.391 V 1984.25 Z m -35,-35 V 850.391 C 1665.79,400.781 1300.01,35 850.391,35 400.781,35 35,400.781 35,850.391 V 1949.25 h 1630.79"/><path id="path18" style="fill:#ffffff;fill-opacity:1;fill-rule:nonzero;stroke:none" d="m 188.863,1819.97 c 74.391,-22.54 388.715,-125.74 522.696,-297.33 2.757,-3.53 6.504,-6.03 10.871,-7.09 22.07,-5.34 66.554,3.09 163.933,-15.52 0,0 42.813,-112.33 43.399,-194.1 0.031,-3.63 112.168,-135.38 158.648,-202.73 12.52,-18.13 80.45,-44.49 124.76,-53.97 l 7.66,-172.242 c 0.49,-10.136 29.48,-39.828 35.45,-48.047 33.32,-45.851 124.49,-164.101 311.78,-135.82 0,0 59.56,-156.512 -191.49,-157.41 0,0 15.65,-246.852 -143.18,-215.313 0,0 33.06,166.59 -51.02,291.411 -13,19.293 -48.71,62.492 -48.71,62.492 0,0 0,0 0.64,-34.43 0.65,-34.422 -71.26,-8.949 -111.34,23.609 -53.218,43.231 -89.046,93.829 -89.046,93.829 l 10.535,59.101 c 0,0 -54.414,44.512 -94.976,80.66 -49.344,43.969 -120.36,121.04 -120.36,121.04 -1.379,1.23 -3.554,0.21 -3.492,-1.64 0,0 14.012,-118.341 -0.039,-118.411 -14.051,-0.071 -147.648,130.831 -152.715,142.691 -5.062,11.86 -9.57,98.44 -9.57,98.44 -0.246,4.13 -1.961,7.97 -4.899,10.89 -45.046,44.7 -413.164,414.95 -436.152,599.09 0,0 -2.437,62.65 45.477,10.65 0,0 -12.352,22.04 -4.125,47.25 3.406,10.44 14.754,16.09 25.265,12.9"/><path id="path20" style="fill:none;stroke:#231f20;stroke-width:10;stroke-linecap:butt;stroke-linejoin:miter;stroke-miterlimit:10;stroke-dasharray:none;stroke-opacity:1" d="m 188.863,1819.97 c 74.391,-22.54 388.715,-125.74 522.696,-297.33 2.757,-3.53 6.504,-6.03 10.871,-7.09 22.07,-5.34 66.554,3.09 163.933,-15.52 0,0 42.813,-112.33 43.399,-194.1 0.031,-3.63 112.168,-135.38 158.648,-202.73 12.52,-18.13 80.45,-44.49 124.76,-53.97 l 7.66,-172.242 c 0.49,-10.136 29.48,-39.828 35.45,-48.047 33.32,-45.851 124.49,-164.101 311.78,-135.82 0,0 59.56,-156.512 -191.49,-157.41 0,0 15.65,-246.852 -143.18,-215.313 0,0 33.06,166.59 -51.02,291.411 -13,19.293 -48.71,62.492 -48.71,62.492 0,0 0,0 0.64,-34.43 0.65,-34.422 -71.26,-8.949 -111.34,23.609 -53.218,43.231 -89.046,93.829 -89.046,93.829 l 10.535,59.101 c 0,0 -54.414,44.512 -94.976,80.66 -49.344,43.969 -120.36,121.04 -120.36,121.04 -1.379,1.23 -3.554,0.21 -3.492,-1.64 0,0 14.012,-118.341 -0.039,-118.411 -14.051,-0.071 -147.648,130.831 -152.715,142.691 -5.062,11.86 -9.57,98.44 -9.57,98.44 -0.246,4.13 -1.961,7.97 -4.899,10.89 -45.046,44.7 -413.164,414.95 -436.152,599.09 0,0 -2.437,62.65 45.477,10.65 0,0 -12.352,22.04 -4.125,47.25 3.406,10.44 14.754,16.09 25.265,12.9 z"/><path id="path22" style="fill:#231f20;fill-opacity:1;fill-rule:nonzero;stroke:none" d="m 385.125,1427.31 40.293,5.21 c 12.965,1.88 25.473,4.5 37.023,8.36 11.52,3.98 21.825,9.46 29.918,17.9 8.043,8.5 13.34,20.23 17.582,33.8 4.106,-13.43 3.149,-29.42 -4.972,-43.01 -8.098,-13.53 -21.942,-22.97 -36.035,-27.61 -14.2,-4.77 -28.86,-5.98 -42.985,-4.98 -14.125,1.04 -28.043,4.07 -40.824,10.33"/><path id="path24" style="fill:#231f20;fill-opacity:1;fill-rule:nonzero;stroke:none" d="m 453.953,1377 c 22.656,-0.57 44.43,0.36 65.055,4.06 20.578,3.76 39.629,11.02 55.012,22.76 15.39,11.7 27.027,28.16 35.132,47.31 8.282,19.12 13.438,40.38 18.633,62.52 5.188,-22.15 5.582,-45.6 -0.117,-68.66 -5.395,-22.89 -18.262,-45.93 -38.477,-61.03 -20.003,-15.35 -44.918,-21.94 -68.347,-22.25 -23.547,-0.3 -46.649,4.67 -66.891,15.29"/><path id="path26" style="fill:#231f20;fill-opacity:1;fill-rule:nonzero;stroke:none" d="m 646.516,1341.96 c 57.8,-46.19 112.89,-95.41 166.82,-145.83 54.094,-50.27 106.23,-102.58 157.492,-155.77 25.399,-26.83 50.502,-53.942 75.252,-81.391 12.38,-13.707 24.3,-27.891 36.46,-41.797 l 18.12,-20.992 17.54,-21.52 c 46.74,-57.211 92.13,-116.39 127.59,-181.539 -45.76,58.059 -95.44,112.098 -145.26,166.168 -24.94,26.961 -50.04,53.82 -75.36,80.461 -25.252,26.719 -50.389,53.531 -76.033,79.91 l -152.242,159.93 c -50.704,53.43 -101.129,107.18 -150.379,162.37"/><path id="path28" style="fill:#231f20;fill-opacity:1;fill-rule:nonzero;stroke:none" d="m 757.789,1476.98 c 13.34,-8.16 25.508,-17.69 37.191,-27.73 11.743,-10 22.766,-20.75 33.415,-31.88 10.429,-11.34 20.625,-22.94 29.71,-35.49 9.137,-12.47 17.606,-25.6 23.883,-39.92 -22.539,21.43 -43.5,43.02 -64.508,65.13 -20.714,22.32 -41.355,44.68 -59.691,69.89"/><path id="path30" style="fill:#231f20;fill-opacity:1;fill-rule:nonzero;stroke:none" d="m 1112.42,1035.26 c 9.84,-6.57 18.31,-14.58 26.15,-23.08 7.88,-8.48 15.02,-17.633 21.37,-27.344 6.29,-9.746 12,-19.945 16.29,-30.867 4.31,-10.86 7.61,-22.367 7.99,-34.207 l -18.38,28.828 -18.45,28.039 c -12.16,18.867 -24.57,37.551 -34.97,58.631"/><path id="path32" style="fill:#231f20;fill-opacity:1;fill-rule:nonzero;stroke:none" d="m 608.336,1123.55 c 9.25,-4.5 17.473,-10.08 25.344,-16.03 7.929,-5.89 15.34,-12.32 22.468,-19.05 7.106,-6.76 13.907,-13.84 20.196,-21.45 6.347,-7.56 12.336,-15.49 17.293,-24.5 -9.258,4.48 -17.492,10.05 -25.356,16.01 -7.929,5.89 -15.343,12.32 -22.461,19.07 -7.082,6.77 -13.89,13.85 -20.175,21.47 -6.344,7.55 -12.336,15.48 -17.309,24.48"/><path id="path34" style="fill:#231f20;fill-opacity:1;fill-rule:nonzero;stroke:none" d="m 1009.41,782.41 c 8.74,-3.519 16.5,-8.148 23.93,-13.172 7.49,-4.957 14.47,-10.468 21.19,-16.297 6.7,-5.863 13.09,-12.05 19.01,-18.8 5.98,-6.68 11.6,-13.762 16.25,-21.969 -8.76,3.5 -16.52,8.129 -23.94,13.148 -7.48,4.961 -14.49,10.481 -21.19,16.328 -6.67,5.872 -13.08,12.063 -18.99,18.813 -5.98,6.687 -11.61,13.758 -16.26,21.949"/><path id="path36" style="fill:#231f20;fill-opacity:1;fill-rule:nonzero;stroke:none" d="m 1316.87,696.559 c 2.8,-10.879 2.39,-22.348 -0.24,-33.508 -2.61,-11.121 -8.2,-22.25 -17.32,-30.653 -8.98,-8.449 -21.64,-13.347 -33.44,-12.816 -5.96,-0.684 -11.59,1.359 -17.13,2.27 -5.37,1.828 -10.52,4.179 -15.35,6.82 5.7,0.578 11,0.219 16.23,0.5 l 7.69,0.816 3.74,0.321 3.59,0.91 c 9.67,1.781 17.88,6.07 24.56,12.242 6.74,6.148 11.98,14.34 16.41,23.418 4.29,9.18 7.86,19.082 11.26,29.68"/><path id="path38" style="fill:#231f20;fill-opacity:1;fill-rule:nonzero;stroke:none" d="m 456.105,1671.11 c -20.566,22.32 -51.21,27.54 -68.449,11.67 -11.164,-10.29 -15.476,-28.89 0.164,-56.33 -5.781,18.93 -6.007,39.99 6.481,47.82 14.476,9.09 34.762,3.67 50.496,-12.13 17.598,-17.65 20.383,-43.41 6.215,-57.52 -8.582,-8.56 -21.426,-10.78 -34.125,-7.34 16.418,-6.94 33.789,-5.9 45.254,4.66 17.23,15.88 14.531,46.84 -6.036,69.17"/><path id="path40" style="fill:#231f20;fill-opacity:1;fill-rule:nonzero;stroke:none" d="m 437.82,1654.26 c -2.98,3.23 -6.398,5.65 -9.933,7.39 3.875,-5.72 3.328,-13.47 -1.914,-18.3 -5.782,-5.33 -14.782,-4.96 -20.106,0.82 -3.984,4.32 -4.769,10.45 -2.5,15.49 -8.148,-8.01 -6.738,-23.1 3.356,-34.05 10.242,-11.13 25.515,-13.73 34.097,-5.82 8.59,7.91 7.243,23.35 -3,34.47"/><path id="path42" style="fill:none;stroke:#231f20;stroke-width:10;stroke-linecap:butt;stroke-linejoin:miter;stroke-miterlimit:10;stroke-dasharray:none;stroke-opacity:1" d="m 385.125,1503.68 c 0,0 -3.672,-3.77 -21.055,1.47 -19.91,5.99 -30.953,21.32 -44.156,41.07 l -152.191,213.6"/></g></g></svg>