<?xml version="1.0" encoding="UTF-8" standalone="no"?>
<svg
   xmlns:dc="http://purl.org/dc/elements/1.1/"
   xmlns:cc="http://creativecommons.org/ns#"
   xmlns:rdf="http://www.w3.org/1999/02/22-rdf-syntax-ns#"
   xmlns:svg="http://www.w3.org/2000/svg"
   xmlns="http://www.w3.org/2000/svg"
   viewBox="0 0 226.77333 264.57333"
   height="264.57333"
   width="226.77333"
   xml:space="preserve"
   id="svg2"
   version="1.1"><metadata
     id="metadata8"><rdf:RDF><cc:Work
         rdf:about=""><dc:format>image/svg+xml</dc:format><dc:type
           rdf:resource="http://purl.org/dc/dcmitype/StillImage" /></cc:Work></rdf:RDF></metadata><defs
     id="defs6" /><g
     transform="matrix(1.3333333,0,0,-1.3333333,0,264.57333)"
     id="g10"><g
       transform="scale(0.1)"
       id="g12"><path
         id="path14"
         style="fill:#fddd04;fill-opacity:1;fill-rule:evenodd;stroke:none"
         d="M 850.391,17.5 C 391.137,17.5 17.5,391.129 17.5,850.391 V 1966.75 H 1683.29 V 850.391 C 1683.29,391.129 1309.66,17.5 850.391,17.5" /><path
         id="path16"
         style="fill:#231f20;fill-opacity:1;fill-rule:nonzero;stroke:none"
         d="M 1700.79,1984.25 H 0 V 850.391 C 0,380.73 380.734,0 850.391,0 1320.06,0 1700.79,380.73 1700.79,850.391 V 1984.25 Z m -35,-35 V 850.391 C 1665.79,400.781 1300.01,35 850.391,35 400.781,35 35,400.781 35,850.391 V 1949.25 h 1630.79" /><path
         id="path18"
         style="fill:#ffffff;fill-opacity:1;fill-rule:nonzero;stroke:none"
         d="m 972.516,420.34 c 0,0 -16.434,-75.68 12.511,-134.809 8.243,-16.832 21.983,-26.551 40.333,-40.84 13.81,-10.761 118.81,-56.113 25.98,-101.992 -26.68,-13.179 -66.383,-1.301 -117.406,57.602 -10.891,12.578 -41.008,22.097 -51.797,42.648 -7.403,14.082 7.332,42.582 7.332,42.582 l -2.117,114.328 85.164,20.481" /><path
         id="path20"
         style="fill:none;stroke:#231f20;stroke-width:10;stroke-linecap:butt;stroke-linejoin:miter;stroke-miterlimit:10;stroke-dasharray:none;stroke-opacity:1"
         d="m 972.516,420.34 c 0,0 -16.434,-75.68 12.511,-134.809 8.243,-16.832 21.983,-26.551 40.333,-40.84 13.81,-10.761 118.81,-56.113 25.98,-101.992 -26.68,-13.179 -66.383,-1.301 -117.406,57.602 -10.891,12.578 -41.008,22.097 -51.797,42.648 -7.403,14.082 7.332,42.582 7.332,42.582 l -2.117,114.328 z" /><path
         id="path22"
         style="fill:none;stroke:#231f20;stroke-width:10;stroke-linecap:butt;stroke-linejoin:miter;stroke-miterlimit:10;stroke-dasharray:none;stroke-opacity:1"
         d="m 968.543,389.031 -79.074,-103.5" /><path
         id="path24"
         style="fill:none;stroke:#231f20;stroke-width:10;stroke-linecap:butt;stroke-linejoin:miter;stroke-miterlimit:10;stroke-dasharray:none;stroke-opacity:1"
         d="m 887.75,378.332 137.61,-133.641 c 0,0 -74.094,33.77 -91.426,-44.39" /><path
         id="path26"
         style="fill:none;stroke:#231f20;stroke-width:10;stroke-linecap:butt;stroke-linejoin:miter;stroke-miterlimit:10;stroke-dasharray:none;stroke-opacity:1"
         d="m 956.082,176.961 c 0,0 113.478,7.078 82.908,59.23" /><path
         id="path28"
         style="fill:none;stroke:#231f20;stroke-width:10;stroke-linecap:butt;stroke-linejoin:miter;stroke-miterlimit:10;stroke-dasharray:none;stroke-opacity:1"
         d="m 898.102,226.57 c 0,0 12.687,74.559 96.281,48.989" /><path
         id="path30"
         style="fill:#ffffff;fill-opacity:1;fill-rule:nonzero;stroke:none"
         d="m 446.941,1567.59 c 0,0 -61.031,56.1 -1.863,148.56 6.176,9.65 11.356,21.9 0.973,26.74 -10.488,4.89 -31.102,-17.82 -49.528,-43.54 l -21.312,80.68 c -10.606,32.4 -43.731,23.65 -34.391,-0.11 5.907,-15.03 15.692,-54.04 16.91,-69.99 1.266,-16.51 -32.843,-37.63 -46.554,-60.82 -17.805,-30.1 31.25,-75.72 31.25,-75.72 0,0 6.012,-22.32 17.484,-30.29 12.012,-8.35 19.559,-32.75 28.031,-44.34 0,0 75.18,-30.46 59,68.83" /><path
         id="path32"
         style="fill:none;stroke:#231f20;stroke-width:10;stroke-linecap:butt;stroke-linejoin:miter;stroke-miterlimit:10;stroke-dasharray:none;stroke-opacity:1"
         d="m 446.941,1567.59 c 0,0 -61.031,56.1 -1.863,148.56 6.176,9.65 11.356,21.9 0.973,26.74 -10.488,4.89 -31.102,-17.82 -49.528,-43.54 l -21.312,80.68 c -10.606,32.4 -43.731,23.65 -34.391,-0.11 5.907,-15.03 15.692,-54.04 16.91,-69.99 1.266,-16.51 -32.843,-37.63 -46.554,-60.82 -17.805,-30.1 31.25,-75.72 31.25,-75.72 0,0 6.012,-22.32 17.484,-30.29 12.012,-8.35 19.559,-32.75 28.031,-44.34 0,0 75.18,-30.46 59,68.83 z" /><path
         id="path34"
         style="fill:#ffffff;fill-opacity:1;fill-rule:nonzero;stroke:none"
         d="m 1011.94,1720.7 c 0,-95.27 -77.225,-172.5 -172.499,-172.5 -95.269,0 -172.5,77.23 -172.5,172.5 0,95.27 77.231,172.5 172.5,172.5 95.274,0 172.499,-77.23 172.499,-172.5" /><path
         id="path36"
         style="fill:none;stroke:#231f20;stroke-width:10;stroke-linecap:butt;stroke-linejoin:miter;stroke-miterlimit:10;stroke-dasharray:none;stroke-opacity:1"
         d="m 1011.94,1720.7 c 0,-95.27 -77.225,-172.5 -172.499,-172.5 -95.269,0 -172.5,77.23 -172.5,172.5 0,95.27 77.231,172.5 172.5,172.5 95.274,0 172.499,-77.23 172.499,-172.5 z" /><path
         id="path38"
         style="fill:#231f20;fill-opacity:1;fill-rule:nonzero;stroke:none"
         d="m 478.98,1376.18 c 10.606,-7.77 25.52,-16.18 40.774,-15.18 2.152,19.25 4.039,41.98 4.039,64.34 0,73.42 -14.188,92.09 -14.188,92.09 l -30.164,21.41 c 0,0 -7.5,35 -32.5,28.75 11.918,-73.12 -35.257,-76.45 -60.796,-72.37 -1.551,0.25 -8.946,17.04 -8.946,17.04 0,0 -8.383,-4.63 -6.633,-13.53 1.758,-8.91 100.008,-116.39 108.414,-122.55" /><path
         id="path40"
         style="fill:#231f20;fill-opacity:1;fill-rule:nonzero;stroke:none"
         d="m 1256.94,1340.09 -93.75,-46.25 c 0,0 -40.05,-68.24 -40.73,-142.91 21.74,-10.73 36.28,0.16 48.23,7.91 10.2,6.62 72.5,54.23 117.85,122.66 l -31.6,58.59" /><path
         id="path42"
         style="fill:#231f20;fill-opacity:1;fill-rule:nonzero;stroke:none"
         d="m 1145.46,1135.05 c -6.94,0 -14.61,1.41 -22.86,4.81 0.69,-20.48 3.81,-40.98 10.73,-60.14 0.99,2.68 2.28,6.99 3.72,13.89 l 9.78,-2.04 c -3.67,-17.61 -7.34,-24.77 -13.11,-25.52 -0.3,-0.04 -0.59,-0.06 -0.87,-0.06 -3.07,0 -5.5,2.11 -6.63,4.37 -41.61,102.86 28.78,230.84 30.89,232.69 -7.5,13.13 -24.89,15.88 -39.64,9.67 -7.6,-9.93 -17.06,-24.61 -18.83,-38.04 l -9.92,1.31 c 2.17,16.45 13.56,33.64 22.02,44.44 -5.24,36.87 -31.9,162.57 -155.049,207.16 l -17.5,216.25 c 0,0 0.301,40 -43.75,46.25 l -31.25,13.76 c 0,0 47.5,-1.26 7.5,23.74 0,0 -33.75,25 -75,-23.75 0,0 -70,-6.25 -55,-148.75 0,0 -17.5,-83.75 -18.75,-126.25 0,0 -36.496,-6.09 -88.336,-9.89 38.543,-34.32 151.375,-117.15 301.645,-71.58 l 2.91,-9.57 c -32.117,-9.74 -62.597,-13.8 -91.062,-13.8 -118.078,0 -201.778,69.82 -227.235,94.02 -18.379,-1.14 -38.312,-1.91 -58.976,-2.02 21.761,-26.04 50.633,-36 50.976,-36.11 l -3.148,-9.5 c -1.633,0.54 -36.676,12.55 -60.512,45.62 -8.648,0.08 -17.387,0.27 -26.176,0.62 21.918,-48.7 6.809,-172.91 1.618,-195.17 -3.079,-13.19 -8.133,-20.33 -15.461,-21.85 -0.903,-0.19 -1.801,-0.28 -2.68,-0.28 -9.527,0 -17.32,10.12 -18.25,11.37 l 8.027,5.97 c 2.492,-3.33 7.641,-7.9 10.883,-7.27 1.082,0.23 4.848,1.94 7.742,14.33 1.61,6.89 3.203,16.24 4.629,27.16 -0.812,-0.03 -1.664,-0.17 -2.469,-0.17 -23.546,0 -42.089,13.33 -54.566,26.2 -2.316,-18.45 -10.613,-111.66 60.441,-103.08 l 140,98.75 5,-127.5 -42.5,-347.5 c 0,0 -47.5,-283.738 -32.5,-429.988 0,0 6.25,-33.75 46.25,-45 0,0 7.5,-43.75 68.75,-41.25 l 101.25,-3.75 c 0,0 41.25,-22.5 81.25,1.25 l 76.055,15 c 0,0 26.445,13.75 31.445,41.25 0,0 91.359,3.75 83.179,60 l -49.43,458.738 -65.194,195 c 0,0 23.945,50 23.945,121.25 0,0 59.999,-188.75 142.499,-226.25 0,0 34.12,-9.25 37.78,102.6 -5.31,-6.29 -14.7,-11.39 -24.26,-11.39" /><path
         id="path44"
         style="fill:#fddd04;fill-opacity:1;fill-rule:nonzero;stroke:none"
         d="m 666.941,1245.09 c 0,0 -48.621,-38.75 -26.183,-71.87 l 16.515,-7.18 9.668,79.05" /><path
         id="path46"
         style="fill:none;stroke:#231f20;stroke-width:10;stroke-linecap:butt;stroke-linejoin:miter;stroke-miterlimit:10;stroke-dasharray:none;stroke-opacity:1"
         d="m 666.941,1245.09 c 0,0 -48.621,-38.75 -26.183,-71.87 l 16.515,-7.18 z" /><path
         id="path48"
         style="fill:#ffffff;fill-opacity:1;fill-rule:nonzero;stroke:none"
         d="m 714.195,381.078 c 0,0 31.078,-79.328 -48.007,-161.789 -12.512,-13.039 -115.708,-77.437 -38.825,-116.457 22.364,-11.3632 78.024,-2.281 124.168,64.297 9.848,14.223 35.578,29.891 46.899,51.109 4.945,9.262 -6.809,39.481 -6.809,39.481 v 120.34 l -77.426,3.019" /><path
         id="path50"
         style="fill:none;stroke:#231f20;stroke-width:10;stroke-linecap:butt;stroke-linejoin:miter;stroke-miterlimit:10;stroke-dasharray:none;stroke-opacity:1"
         d="m 714.195,381.078 c 0,0 31.078,-79.328 -48.007,-161.789 -12.512,-13.039 -115.708,-77.437 -38.825,-116.457 22.364,-11.3632 78.024,-2.281 124.168,64.297 9.848,14.223 35.578,29.891 46.899,51.109 4.945,9.262 -6.809,39.481 -6.809,39.481 v 120.34 z" /><path
         id="path52"
         style="fill:#fddd04;fill-opacity:1;fill-rule:nonzero;stroke:none"
         d="m 745.266,1148.64 v -71.8 c 0,-7.27 6.504,-13.16 14.531,-13.16 v 0 c 8.109,0 14.648,6.02 14.527,13.36 l -0.597,36.01 c -0.122,7.35 6.418,13.36 14.527,13.36 h 41.672 c 8.023,0 14.527,-5.89 14.527,-13.16 v -36.41 c 0,-7.27 6.508,-13.16 14.531,-13.16 h 3.875 c 8.028,0 14.532,5.89 14.532,13.16 v 37.19 c 0,6.84 5.73,12.52 13.269,13.1 20.274,1.57 58.371,6.49 74.836,21.71 l -8.066,24.38 c 0,0 -90.305,-9.41 -200.871,-13.93 -6.297,-0.26 -11.293,-4.94 -11.293,-10.65" /><path
         id="path54"
         style="fill:none;stroke:#231f20;stroke-width:10;stroke-linecap:butt;stroke-linejoin:miter;stroke-miterlimit:10;stroke-dasharray:none;stroke-opacity:1"
         d="m 745.266,1148.64 v -71.8 c 0,-7.27 6.504,-13.16 14.531,-13.16 v 0 c 8.109,0 14.648,6.02 14.527,13.36 l -0.597,36.01 c -0.122,7.35 6.418,13.36 14.527,13.36 h 41.672 c 8.023,0 14.527,-5.89 14.527,-13.16 v -36.41 c 0,-7.27 6.508,-13.16 14.531,-13.16 h 3.875 c 8.028,0 14.532,5.89 14.532,13.16 v 37.19 c 0,6.84 5.73,12.52 13.269,13.1 20.274,1.57 58.371,6.49 74.836,21.71 l -8.066,24.38 c 0,0 -90.305,-9.41 -200.871,-13.93 -6.297,-0.26 -11.293,-4.94 -11.293,-10.65 z" /><path
         id="path56"
         style="fill:#fddd04;fill-opacity:1;fill-rule:nonzero;stroke:none"
         d="m 747.039,1133.88 c -8.078,-11.47 -31.445,-8.92 -52.199,5.7 -20.746,14.61 -31.02,35.76 -22.945,47.22 8.082,11.47 31.453,8.92 52.199,-5.69 20.746,-14.62 31.019,-35.77 22.945,-47.23" /><path
         id="path58"
         style="fill:none;stroke:#231f20;stroke-width:10;stroke-linecap:butt;stroke-linejoin:miter;stroke-miterlimit:10;stroke-dasharray:none;stroke-opacity:1"
         d="m 747.039,1133.88 c -8.078,-11.47 -31.445,-8.92 -52.199,5.7 -20.746,14.61 -31.02,35.76 -22.945,47.22 8.082,11.47 31.453,8.92 52.199,-5.69 20.746,-14.62 31.019,-35.77 22.945,-47.23 z" /><path
         id="path60"
         style="fill:#ed1c24;fill-opacity:1;fill-rule:nonzero;stroke:none"
         d="m 1002.64,1504.09 -56.531,-39.41 -9.402,-22.09 -186.074,-222.68 c -7.672,-9.18 -14.418,-19.14 -19.442,-30 -7.414,-16.03 -11.035,-33.85 17.247,-22.71 15.046,5.94 28.234,15.66 39.171,27.57 46.336,50.52 200.934,221.81 234.601,294.72 0,0 -6.98,6.89 -19.57,14.6" /><path
         id="path62"
         style="fill:none;stroke:#231f20;stroke-width:10;stroke-linecap:butt;stroke-linejoin:miter;stroke-miterlimit:10;stroke-dasharray:none;stroke-opacity:1"
         d="m 1002.64,1504.09 -56.531,-39.41 -9.402,-22.09 -186.074,-222.68 c -7.672,-9.18 -14.418,-19.14 -19.442,-30 -7.414,-16.03 -11.035,-33.85 17.247,-22.71 15.046,5.94 28.234,15.66 39.171,27.57 46.336,50.52 200.934,221.81 234.601,294.72 0,0 -6.98,6.89 -19.57,14.6 z" /><path
         id="path64"
         style="fill:#ed1c24;fill-opacity:1;fill-rule:nonzero;stroke:none"
         d="m 1056.32,1015.69 c 0,-34.69 -28.13,-62.819 -62.816,-62.819 -34.688,0 -62.813,28.129 -62.813,62.819 0,34.69 28.125,62.81 62.813,62.81 34.686,0 62.816,-28.12 62.816,-62.81" /><path
         id="path66"
         style="fill:none;stroke:#231f20;stroke-width:10;stroke-linecap:butt;stroke-linejoin:miter;stroke-miterlimit:10;stroke-dasharray:none;stroke-opacity:1"
         d="m 1056.32,1015.69 c 0,-34.69 -28.13,-62.819 -62.816,-62.819 -34.688,0 -62.813,28.129 -62.813,62.819 0,34.69 28.125,62.81 62.813,62.81 34.686,0 62.816,-28.12 62.816,-62.81 z" /><path
         id="path68"
         style="fill:#ed1c24;fill-opacity:1;fill-rule:nonzero;stroke:none"
         d="m 1003.84,1108.23 c 4.5,-16.75 -7.016,-34.39 -25.688,-39.39 -18.683,-5.02 -37.472,4.51 -41.953,21.27 -4.492,16.75 7.012,34.39 25.692,39.39 18.683,5.01 37.461,-4.51 41.949,-21.27" /><path
         id="path70"
         style="fill:none;stroke:#231f20;stroke-width:10;stroke-linecap:butt;stroke-linejoin:miter;stroke-miterlimit:10;stroke-dasharray:none;stroke-opacity:1"
         d="m 1003.84,1108.23 c 4.5,-16.75 -7.016,-34.39 -25.688,-39.39 -18.683,-5.02 -37.472,4.51 -41.953,21.27 -4.492,16.75 7.012,34.39 25.692,39.39 18.683,5.01 37.461,-4.51 41.949,-21.27 z" /><path
         id="path72"
         style="fill:#ed1c24;fill-opacity:1;fill-rule:nonzero;stroke:none"
         d="m 627.402,1177.82 c 0,0 -92.824,-47.4 -108.625,-179.074 l 19.09,-6.621 -8.558,-33.324 c 0,0 32.523,-32.992 97.57,-41.289 0,0 75.746,129.298 99.035,195.138 0,0 -33.988,45.42 -98.512,65.17" /><path
         id="path74"
         style="fill:none;stroke:#231f20;stroke-width:10;stroke-linecap:butt;stroke-linejoin:miter;stroke-miterlimit:10;stroke-dasharray:none;stroke-opacity:1"
         d="m 627.402,1177.82 c 0,0 -92.824,-47.4 -108.625,-179.074 l 19.09,-6.621 -8.558,-33.324 c 0,0 32.523,-32.992 97.57,-41.289 0,0 75.746,129.298 99.035,195.138 0,0 -33.988,45.42 -98.512,65.17 z" /><path
         id="path76"
         style="fill:none;stroke:#231f20;stroke-width:10;stroke-linecap:butt;stroke-linejoin:miter;stroke-miterlimit:10;stroke-dasharray:none;stroke-opacity:1"
         d="m 682.707,1126.41 c 0,0 -76.371,-98.03 -89.535,-152.019 0,0 -36.211,17.734 -55.305,17.734" /><path
         id="path78"
         style="fill:#ffffff;fill-opacity:1;fill-rule:nonzero;stroke:none"
         d="m 825.691,1093.5 c 0,-8.28 -6.714,-15 -15,-15 -8.281,0 -15,6.72 -15,15 0,8.29 6.719,15 15,15 8.286,0 15,-6.71 15,-15" /><path
         id="path80"
         style="fill:none;stroke:#231f20;stroke-width:10;stroke-linecap:butt;stroke-linejoin:miter;stroke-miterlimit:10;stroke-dasharray:none;stroke-opacity:1"
         d="m 825.691,1093.5 c 0,-8.28 -6.714,-15 -15,-15 -8.281,0 -15,6.72 -15,15 0,8.29 6.719,15 15,15 8.286,0 15,-6.71 15,-15 z" /><path
         id="path82"
         style="fill:#ffffff;fill-opacity:1;fill-rule:nonzero;stroke:none"
         d="m 928.238,1093.5 c 0,-8.28 -6.707,-15 -15,-15 -8.281,0 -15,6.72 -15,15 0,8.29 6.719,15 15,15 8.293,0 15,-6.71 15,-15" /><path
         id="path84"
         style="fill:none;stroke:#231f20;stroke-width:10;stroke-linecap:butt;stroke-linejoin:miter;stroke-miterlimit:10;stroke-dasharray:none;stroke-opacity:1"
         d="m 928.238,1093.5 c 0,-8.28 -6.707,-15 -15,-15 -8.281,0 -15,6.72 -15,15 0,8.29 6.719,15 15,15 8.293,0 15,-6.71 15,-15 z" /><path
         id="path86"
         style="fill:none;stroke:#231f20;stroke-width:10;stroke-linecap:butt;stroke-linejoin:miter;stroke-miterlimit:10;stroke-dasharray:none;stroke-opacity:1"
         d="m 363.133,1650.61 c -0.094,-10.93 9.055,-30.71 15.238,-38.58 11.664,-14.86 -26.07,-33.4 -34.617,-34.08 -8.551,-0.68 -18.102,14.26 -18.102,14.26" /><path
         id="path88"
         style="fill:none;stroke:#231f20;stroke-width:10;stroke-linecap:butt;stroke-linejoin:miter;stroke-miterlimit:10;stroke-dasharray:none;stroke-opacity:1"
         d="m 402.668,1557.04 c 11.488,4.85 22.168,9.71 24.891,39.95" /><path
         id="path90"
         style="fill:none;stroke:#231f20;stroke-width:10;stroke-linecap:butt;stroke-linejoin:miter;stroke-miterlimit:10;stroke-dasharray:none;stroke-opacity:1"
         d="m 396.848,1700.63 -5.739,-22.62" /><path
         id="path92"
         style="fill:#ffffff;fill-opacity:1;fill-rule:nonzero;stroke:none"
         d="m 1226.67,1319.52 19.72,-74.43 v 0 c 0,0 20.55,53.13 10.55,95 l -30.27,-20.57" /><path
         id="path94"
         style="fill:none;stroke:#231f20;stroke-width:10;stroke-linecap:butt;stroke-linejoin:miter;stroke-miterlimit:10;stroke-dasharray:none;stroke-opacity:1"
         d="m 1226.67,1319.52 19.72,-74.43 v 0 c 0,0 20.55,53.13 10.55,95 z" /><path
         id="path96"
         style="fill:none;stroke:#231f20;stroke-width:10;stroke-linecap:butt;stroke-linejoin:miter;stroke-miterlimit:10;stroke-dasharray:none;stroke-opacity:1"
         d="m 719.918,350.609 71.703,-92.89" /><path
         id="path98"
         style="fill:none;stroke:#231f20;stroke-width:10;stroke-linecap:butt;stroke-linejoin:miter;stroke-miterlimit:10;stroke-dasharray:none;stroke-opacity:1"
         d="M 791.621,358.031 666.188,219.289 c 0,0 75.804,19.563 85.343,-52.16" /><path
         id="path100"
         style="fill:none;stroke:#231f20;stroke-width:10;stroke-linecap:butt;stroke-linejoin:miter;stroke-miterlimit:10;stroke-dasharray:none;stroke-opacity:1"
         d="m 741.574,153.82 c 0,0 -115.32,-1.441 -87.738,54.629" /><path
         id="path102"
         style="fill:none;stroke:#231f20;stroke-width:10;stroke-linecap:butt;stroke-linejoin:miter;stroke-miterlimit:10;stroke-dasharray:none;stroke-opacity:1"
         d="m 783.984,199.371 c 0,0 -28.211,76.481 -104.05,35.551" /><path
         id="path104"
         style="fill:#ffffff;fill-opacity:1;fill-rule:nonzero;stroke:none"
         d="m 825.012,1653.25 c 1.386,10.18 3.465,27.86 3.23,41.1 -0.164,9.12 -8.277,15.9 -17.304,14.5 -16.235,-2.52 -41.614,-4.06 -37.747,11.85 2.813,11.57 13.309,18.92 23.098,23.37 8.899,4.05 18.512,6.13 28.266,6.76 15.34,1.01 45.422,2.06 58.636,-3.87 6.727,-3.01 12.09,-6.2 16.153,-9.02 7.441,-5.15 12.156,-13.67 11.426,-22.69 -0.547,-6.72 -3.516,-12.66 -13.204,-9.54 0,0 -47.175,20 -47.175,-11.87 l 2.332,-40.53 c 0.394,-6.94 -3.778,-13.56 -10.422,-15.58 -0.117,-0.04 -0.235,-0.07 -0.356,-0.1 -9.406,-2.65 -18.257,5.94 -16.933,15.62" /><path
         id="path106"
         style="fill:#ffffff;fill-opacity:1;fill-rule:nonzero;stroke:none"
         d="m 895.633,1691.17 c 0.058,-0.47 0.281,-0.88 0.281,-1.37 0,-6.88 -5.574,-12.46 -12.461,-12.46 -6.875,0 -12.449,5.58 -12.449,12.46 0,0.6 0.262,1.13 0.34,1.71 l -8.309,0.12 2.02,-41.59 c 0.332,-6.8 3.75,-13.23 9.531,-16.83 12.629,-7.87 29.055,-25.04 36.113,-32.73 1.242,-1.34 3.477,-0.46 3.477,1.37 v 89.06 l -18.543,0.26" /><path
         id="path108"
         style="fill:#ffffff;fill-opacity:1;fill-rule:nonzero;stroke:none"
         d="m 784.594,1689.57 c -0.055,-0.48 -0.281,-0.89 -0.281,-1.37 0,-6.88 5.578,-12.46 12.457,-12.46 6.878,0 12.457,5.58 12.457,12.46 0,0.6 -0.266,1.12 -0.348,1.7 l 8.316,0.12 -1.734,-35.63 c -0.281,-5.72 -3.633,-10.73 -8.684,-13.44 -12.664,-6.79 -29.589,-22.15 -36.996,-29.14 -1.414,-1.34 -3.734,-0.32 -3.734,1.63 v 75.87 l 18.547,0.26" /><path
         id="path110"
         style="fill:#ffffff;fill-opacity:1;fill-rule:nonzero;stroke:none"
         d="m 771.109,1540.09 c 0,0 16.664,52.09 41.664,65.84 l 47.086,-2.09 c 0,0 29.454,-36.17 41.106,-61.94 1.973,-4.38 7.273,-6.77 11.367,-4.27 2.539,1.55 7.313,5.47 4.813,10.59 0,0 -22.832,39.98 -39.266,62.9 -5.703,7.95 -15.488,11.89 -25.266,11.89 h -33.898 c -7.469,0 -14.606,-2.91 -19.91,-8.16 -5.711,-5.67 -13.469,-13.75 -20.653,-22.54 -2.707,-3.31 -5.269,-6.72 -7.562,-9.93 -7.887,-11.02 -10.586,-25.13 -6.715,-38.12 1.699,-5.7 4.066,-9 7.234,-4.17" /><path
         id="path112"
         style="fill:#ffffff;fill-opacity:1;fill-rule:nonzero;stroke:none"
         d="m 817.195,1573.01 c 0,0 -8.312,-32.31 -6.007,-61.83 0.16,-2.03 -1.364,-3.8 -3.391,-3.79 -8.109,0.02 -26.043,2.91 -19.188,28.99 8.75,33.3 18.75,41.63 18.75,41.63 0,0 8.008,3.75 9.836,-5" /><path
         id="path114"
         style="fill:#ffffff;fill-opacity:1;fill-rule:nonzero;stroke:none"
         d="m 825.691,1566.34 1.668,-56.66 c 0,0 7.082,-20.42 20.414,-5.42 l -5.957,60 c 0,0 -5.082,15.44 -16.125,2.08" /><path
         id="path116"
         style="fill:#ffffff;fill-opacity:1;fill-rule:nonzero;stroke:none"
         d="m 854.023,1563.84 c 0,0 16.668,-36.24 12.918,-56.45 0,0 25.418,-7.3 17.079,17.7 -8.329,25 -17.5,44.59 -17.5,44.59 0,0 -12.497,10.83 -12.497,-5.84" /><path
         id="path118"
         style="fill:#ffffff;fill-opacity:1;fill-rule:nonzero;stroke:none"
         d="m 825.234,1598.89 c 0,0 -10,-3.18 -2.078,-10.87 7.914,-7.68 28.328,-1.23 28.328,-1.23 0,0 7.067,6.52 -6.25,9.84 -14.789,3.69 -20,2.26 -20,2.26" /><path
         id="path120"
         style="fill:#231f20;fill-opacity:1;fill-rule:nonzero;stroke:none"
         d="m 1195.27,1713.43 c 7.28,1.79 11.28,9.18 11.67,16.66 0.71,13.7 3.39,38.75 32.5,38.75 40,0 37.5,-47.5 37.5,-47.5 l -5.27,-75.02 c 0,0 -43.29,-15.33 -4.54,-41.99 l -1.44,-32.99 c 0,0 -43.75,-18.75 -2.5,-42.5 l -78.75,-1330 c 0,0 8.33,-21.668 32.5,0 l 82.24,1327.95 c 0,0 47.14,20.18 4.01,43.3 l 1.25,33.12 c 0,0 46.25,18.97 2.5,41.88 l 5.63,91.25 c 0,0 3.12,71.25 -67.5,71.25 -50.08,0 -66.88,-35.41 -68.89,-60.14 -0.59,-7.17 -1.11,-14.41 1.01,-21.27 3.1,-9.95 11.27,-14.43 18.08,-12.75" /><path
         id="path122"
         style="fill:none;stroke:#231f20;stroke-width:10;stroke-linecap:butt;stroke-linejoin:miter;stroke-miterlimit:10;stroke-dasharray:none;stroke-opacity:1"
         d="m 1195.27,1713.43 c 7.28,1.79 11.28,9.18 11.67,16.66 0.71,13.7 3.39,38.75 32.5,38.75 40,0 37.5,-47.5 37.5,-47.5 l -5.27,-75.02 c 0,0 -43.29,-15.33 -4.54,-41.99 l -1.44,-32.99 c 0,0 -43.75,-18.75 -2.5,-42.5 l -78.75,-1330 c 0,0 8.33,-21.668 32.5,0 l 82.24,1327.95 c 0,0 47.14,20.18 4.01,43.3 l 1.25,33.12 c 0,0 46.25,18.97 2.5,41.88 l 5.63,91.25 c 0,0 3.12,71.25 -67.5,71.25 -50.08,0 -66.88,-35.41 -68.89,-60.14 -0.59,-7.17 -1.11,-14.41 1.01,-21.27 3.1,-9.95 11.27,-14.43 18.08,-12.75 z" /><path
         id="path124"
         style="fill:#ffffff;fill-opacity:1;fill-rule:nonzero;stroke:none"
         d="m 1271.33,1359.93 -23.4,16.25 c -39.15,8.75 -14.26,36.52 -14.26,36.52 -21.25,11.25 -1.83,31.74 -1.83,31.74 -31.96,25.08 7.6,31.9 7.6,31.9 0,0 -20.07,12.63 -7.6,27.75 4.44,5.36 23.69,4.32 29.87,3.3 43.19,-7.11 48.98,-29.8 48.98,-29.8 27.35,-87.72 5.31,-141.75 -26.53,-193.27 0,0 -12.63,5.13 -16.85,29.31 -3.83,21.96 4.02,46.3 4.02,46.3" /><path
         id="path126"
         style="fill:none;stroke:#231f20;stroke-width:10;stroke-linecap:butt;stroke-linejoin:miter;stroke-miterlimit:10;stroke-dasharray:none;stroke-opacity:1"
         d="m 1271.33,1359.93 -23.4,16.25 c -39.15,8.75 -14.26,36.52 -14.26,36.52 -21.25,11.25 -1.83,31.74 -1.83,31.74 -31.96,25.08 7.6,31.9 7.6,31.9 0,0 -20.07,12.63 -7.6,27.75 4.44,5.36 23.69,4.32 29.87,3.3 43.19,-7.11 48.98,-29.8 48.98,-29.8 27.35,-87.72 5.31,-141.75 -26.53,-193.27 0,0 -12.63,5.13 -16.85,29.31 -3.83,21.96 4.02,46.3 4.02,46.3 z" /><path
         id="path128"
         style="fill:#ffffff;fill-opacity:1;fill-rule:nonzero;stroke:none"
         d="m 1271.33,1471.34 -31.89,5" /><path
         id="path130"
         style="fill:none;stroke:#231f20;stroke-width:10;stroke-linecap:butt;stroke-linejoin:miter;stroke-miterlimit:10;stroke-dasharray:none;stroke-opacity:1"
         d="m 1271.33,1471.34 -31.89,5" /><path
         id="path132"
         style="fill:#ffffff;fill-opacity:1;fill-rule:nonzero;stroke:none"
         d="m 1231.84,1444.44 33.23,-4.72" /><path
         id="path134"
         style="fill:none;stroke:#231f20;stroke-width:10;stroke-linecap:butt;stroke-linejoin:miter;stroke-miterlimit:10;stroke-dasharray:none;stroke-opacity:1"
         d="m 1231.84,1444.44 33.23,-4.72" /><path
         id="path136"
         style="fill:#ffffff;fill-opacity:1;fill-rule:nonzero;stroke:none"
         d="m 1233.67,1412.7 28.51,-4.14" /><path
         id="path138"
         style="fill:none;stroke:#231f20;stroke-width:10;stroke-linecap:butt;stroke-linejoin:miter;stroke-miterlimit:10;stroke-dasharray:none;stroke-opacity:1"
         d="m 1233.67,1412.7 28.51,-4.14" /></g></g></svg>