<?xml version="1.0" encoding="UTF-8" standalone="no"?>
<svg
   xmlns:dc="http://purl.org/dc/elements/1.1/"
   xmlns:cc="http://creativecommons.org/ns#"
   xmlns:rdf="http://www.w3.org/1999/02/22-rdf-syntax-ns#"
   xmlns:svg="http://www.w3.org/2000/svg"
   xmlns="http://www.w3.org/2000/svg"
   viewBox="0 0 226.77333 264.57333"
   height="264.57333"
   width="226.77333"
   xml:space="preserve"
   id="svg2"
   version="1.1"><metadata
     id="metadata8"><rdf:RDF><cc:Work
         rdf:about=""><dc:format>image/svg+xml</dc:format><dc:type
           rdf:resource="http://purl.org/dc/dcmitype/StillImage" /></cc:Work></rdf:RDF></metadata><defs
     id="defs6" /><g
     transform="matrix(1.3333333,0,0,-1.3333333,0,264.57333)"
     id="g10"><g
       transform="scale(0.1)"
       id="g12"><path
         id="path14"
         style="fill:#fddd04;fill-opacity:1;fill-rule:evenodd;stroke:none"
         d="M 0,1984.25 V 850.391 C 0,380.73 380.734,0 850.395,0 1320.05,0 1700.79,380.73 1700.79,850.391 V 1984.25 H 0" /><path
         id="path16"
         style="fill:#1c63b7;fill-opacity:1;fill-rule:nonzero;stroke:none"
         d="m 20.1914,731.34 64.25,-205.93 77.4996,-146.57 142.5,-157.488 166.903,-115 200.597,-70.0004 179.7,-17.5 V 1968.84 H 20.1914 V 731.34" /><path
         id="path18"
         style="fill:none;stroke:#231f20;stroke-width:10;stroke-linecap:butt;stroke-linejoin:miter;stroke-miterlimit:10;stroke-dasharray:none;stroke-opacity:1"
         d="m 20.1914,731.34 64.25,-205.93 77.4996,-146.57 142.5,-157.488 166.903,-115 200.597,-70.0004 179.7,-17.5 V 1968.84 H 20.1914 Z" /><path
         id="path20"
         style="fill:#fddd04;fill-opacity:1;fill-rule:evenodd;stroke:none"
         d="M 478.82,1798.61 V 743.68 H 598.93 V 1798.61 H 478.82" /><path
         id="path22"
         style="fill:none;stroke:#231f20;stroke-width:10;stroke-linecap:butt;stroke-linejoin:miter;stroke-miterlimit:10;stroke-dasharray:none;stroke-opacity:1"
         d="M 478.82,1798.61 V 743.68 h 120.11 v 1054.93 z" /><path
         id="path24"
         style="fill:#fddd04;fill-opacity:1;fill-rule:evenodd;stroke:none"
         d="m 374.426,528.109 c 0,39.141 -25.496,70.86 -56.946,70.86 -31.449,0 -56.945,-31.719 -56.945,-70.86 0,-39.14 25.496,-70.871 56.945,-70.871 31.45,0 56.946,31.731 56.946,70.871" /><path
         id="path26"
         style="fill:none;stroke:#231f20;stroke-width:10;stroke-linecap:butt;stroke-linejoin:miter;stroke-miterlimit:10;stroke-dasharray:none;stroke-opacity:1"
         d="m 374.426,528.109 c 0,39.141 -25.496,70.86 -56.946,70.86 -31.449,0 -56.945,-31.719 -56.945,-70.86 0,-39.14 25.496,-70.871 56.945,-70.871 31.45,0 56.946,31.731 56.946,70.871 z" /><path
         id="path28"
         style="fill:#fddd04;fill-opacity:1;fill-rule:evenodd;stroke:none"
         d="m 419.551,1636.63 v 161.98 h -62.606 v -435.94 h -56.769 v 435.94 h -147.34 v -97.19 h 88.902 v -97.19 h -88.902 v -97.18 h 88.902 v -97.19 h -88.902 v -97.19 h 88.902 v -97.19 h -88.902 v -97.18 h 111.945 c -0.226,2.56 -0.363,5.16 -0.363,7.81 0,39.14 25.492,70.86 56.941,70.86 31.454,0 56.946,-31.72 56.946,-70.86 0,-2.65 -0.137,-5.25 -0.364,-7.81 h 41.61 v 356.35 h 59.269 v 161.98 h -59.269" /><path
         id="path30"
         style="fill:none;stroke:#231f20;stroke-width:10;stroke-linecap:butt;stroke-linejoin:miter;stroke-miterlimit:10;stroke-dasharray:none;stroke-opacity:1"
         d="m 419.551,1636.63 v 161.98 h -62.606 v -435.94 h -56.769 v 435.94 h -147.34 v -97.19 h 88.902 v -97.19 h -88.902 v -97.18 h 88.902 v -97.19 h -88.902 v -97.19 h 88.902 v -97.19 h -88.902 v -97.18 h 111.945 c -0.226,2.56 -0.363,5.16 -0.363,7.81 0,39.14 25.492,70.86 56.941,70.86 31.454,0 56.946,-31.72 56.946,-70.86 0,-2.65 -0.137,-5.25 -0.364,-7.81 h 41.61 v 356.35 h 59.269 v 161.98 z" /><path
         id="path32"
         style="fill:#fddd04;fill-opacity:1;fill-rule:evenodd;stroke:none"
         d="m 809.148,528.109 c 0,39.141 -25.492,70.86 -56.945,70.86 -31.449,0 -56.941,-31.719 -56.941,-70.86 0,-39.14 25.492,-70.871 56.941,-70.871 31.453,0 56.945,31.731 56.945,70.871" /><path
         id="path34"
         style="fill:none;stroke:#231f20;stroke-width:10;stroke-linecap:butt;stroke-linejoin:miter;stroke-miterlimit:10;stroke-dasharray:none;stroke-opacity:1"
         d="m 809.148,528.109 c 0,39.141 -25.492,70.86 -56.945,70.86 -31.449,0 -56.941,-31.719 -56.941,-70.86 0,-39.14 25.492,-70.871 56.941,-70.871 31.453,0 56.945,31.731 56.945,70.871 z" /><path
         id="path36"
         style="fill:#fddd04;fill-opacity:1;fill-rule:evenodd;stroke:none"
         d="m 539.141,237.391 c 39.136,0 70.867,25.488 70.867,56.937 0,31.453 -31.731,56.953 -70.867,56.953 -39.137,0 -70.868,-25.5 -70.868,-56.953 0,-31.449 31.731,-56.937 70.868,-56.937" /><path
         id="path38"
         style="fill:none;stroke:#231f20;stroke-width:10;stroke-linecap:butt;stroke-linejoin:miter;stroke-miterlimit:10;stroke-dasharray:none;stroke-opacity:1"
         d="m 539.141,237.391 c 39.136,0 70.867,25.488 70.867,56.937 0,31.453 -31.731,56.953 -70.867,56.953 -39.137,0 -70.868,-25.5 -70.868,-56.953 0,-31.449 31.731,-56.937 70.868,-56.937 z" /><path
         id="path40"
         style="fill:#fddd04;fill-opacity:1;fill-rule:evenodd;stroke:none"
         d="m 452.727,1029.89 c -19.032,0 -34.457,-15.43 -34.457,-34.456 v -34.465 c 0,-19.028 15.425,-34.449 34.457,-34.449 H 625.02 c 19.031,0 34.46,15.421 34.46,34.449 v 34.465 c 0,19.026 -15.429,34.456 -34.46,34.456 H 452.727" /><path
         id="path42"
         style="fill:none;stroke:#231f20;stroke-width:10;stroke-linecap:butt;stroke-linejoin:miter;stroke-miterlimit:10;stroke-dasharray:none;stroke-opacity:1"
         d="m 452.727,1029.89 c -19.032,0 -34.457,-15.43 -34.457,-34.456 v -34.465 c 0,-19.028 15.425,-34.449 34.457,-34.449 H 625.02 c 19.031,0 34.46,15.421 34.46,34.449 v 34.465 c 0,19.026 -15.429,34.456 -34.46,34.456 z" /><path
         id="path44"
         style="fill:#fddd04;fill-opacity:1;fill-rule:evenodd;stroke:none"
         d="m 452.727,892.059 c -19.032,0 -34.457,-15.43 -34.457,-34.457 v -34.461 c 0,-19.032 15.425,-34.461 34.457,-34.461 v 0 H 625.02 c 19.031,0 34.46,15.429 34.46,34.461 v 0 34.461 c 0,19.027 -15.429,34.457 -34.46,34.457 H 452.727" /><path
         id="path46"
         style="fill:none;stroke:#231f20;stroke-width:10;stroke-linecap:butt;stroke-linejoin:miter;stroke-miterlimit:10;stroke-dasharray:none;stroke-opacity:1"
         d="m 452.727,892.059 c -19.032,0 -34.457,-15.43 -34.457,-34.457 v -34.461 c 0,-19.032 15.425,-34.461 34.457,-34.461 v 0 H 625.02 c 19.031,0 34.46,15.429 34.46,34.461 v 0 34.461 c 0,19.027 -15.429,34.457 -34.46,34.457 z" /><path
         id="path48"
         style="fill:#fddd04;fill-opacity:1;fill-rule:evenodd;stroke:none"
         d="m 647.262,567.289 h -73.867 l 0.25,91.641 z M 573.395,398.012 v 93.047 h 72.617 z m -74.551,169.277 -78.117,-0.019 78.117,90.46 z m 0,-168.937 -77.008,92.707 h 77.008 z M 603.488,747.75 H 474.262 L 339.188,592.672 V 463.441 L 474.262,318.359 H 603.488 L 728.559,463.441 V 592.672 L 603.488,747.75" /><path
         id="path50"
         style="fill:none;stroke:#231f20;stroke-width:10;stroke-linecap:butt;stroke-linejoin:miter;stroke-miterlimit:10;stroke-dasharray:none;stroke-opacity:1"
         d="m 647.262,567.289 h -73.867 l 0.25,91.641 z M 573.395,398.012 v 93.047 h 72.617 z m -74.551,169.277 -78.117,-0.019 78.117,90.46 z m 0,-168.937 -77.008,92.707 h 77.008 z M 603.488,747.75 H 474.262 L 339.188,592.672 V 463.441 L 474.262,318.359 h 129.226 l 125.071,145.082 v 129.231 z" /><path
         id="path52"
         style="fill:#1c63b7;fill-opacity:1;fill-rule:evenodd;stroke:none"
         d="M 1167.66,1489.26 V 338.57 l 43.09,-104.609 h 21.54 l 43.09,104.609 v 1150.69 h -107.72" /><path
         id="path54"
         style="fill:none;stroke:#231f20;stroke-width:10;stroke-linecap:butt;stroke-linejoin:miter;stroke-miterlimit:10;stroke-dasharray:none;stroke-opacity:1"
         d="M 1167.66,1489.26 V 338.57 l 43.09,-104.609 h 21.54 l 43.09,104.609 v 1150.69 z" /><path
         id="path56"
         style="fill:#1c63b7;fill-opacity:1;fill-rule:evenodd;stroke:none"
         d="m 1260.75,1833.54 c 0,21.82 -17.69,39.52 -39.52,39.52 -21.82,0 -39.51,-17.7 -39.51,-39.52 0,-21.83 17.69,-39.52 39.51,-39.52 21.83,0 39.52,17.69 39.52,39.52" /><path
         id="path58"
         style="fill:none;stroke:#231f20;stroke-width:10;stroke-linecap:butt;stroke-linejoin:miter;stroke-miterlimit:10;stroke-dasharray:none;stroke-opacity:1"
         d="m 1260.75,1833.54 c 0,21.82 -17.69,39.52 -39.52,39.52 -21.82,0 -39.51,-17.7 -39.51,-39.52 0,-21.83 17.69,-39.52 39.51,-39.52 21.83,0 39.52,17.69 39.52,39.52" /><path
         id="path60"
         style="fill:#1c63b7;fill-opacity:1;fill-rule:evenodd;stroke:none"
         d="m 1179,1457.93 h 85.04 l 28.35,185.08 -35.17,155.08 h -71.4 l -35.16,-155.08 28.34,-185.08" /><path
         id="path62"
         style="fill:none;stroke:#231f20;stroke-width:9.53462982;stroke-linecap:butt;stroke-linejoin:miter;stroke-miterlimit:10;stroke-dasharray:none;stroke-opacity:1"
         d="m 1179,1457.93 h 85.04 l 28.35,185.08 -35.17,155.08 h -71.4 l -35.16,-155.08 z" /><path
         id="path64"
         style="fill:#1c63b7;fill-opacity:1;fill-rule:nonzero;stroke:none"
         d="M 1221.81,364.719 V 1439.63" /><path
         id="path66"
         style="fill:none;stroke:#231f20;stroke-width:10;stroke-linecap:butt;stroke-linejoin:miter;stroke-miterlimit:10;stroke-dasharray:none;stroke-opacity:1"
         d="M 1221.81,364.719 V 1439.63" /><path
         id="path68"
         style="fill:#1c63b7;fill-opacity:1;fill-rule:evenodd;stroke:none"
         d="m 986.547,1471.53 c 0,25.77 -14.027,46.65 -31.332,46.65 -17.305,0 -31.328,-20.88 -31.328,-46.65 0,-25.76 14.023,-46.64 31.328,-46.64 17.305,0 31.332,20.88 31.332,46.64" /><path
         id="path70"
         style="fill:none;stroke:#231f20;stroke-width:10;stroke-linecap:butt;stroke-linejoin:miter;stroke-miterlimit:10;stroke-dasharray:none;stroke-opacity:1"
         d="m 986.547,1471.53 c 0,25.77 -14.027,46.65 -31.332,46.65 -17.305,0 -31.328,-20.88 -31.328,-46.65 0,-25.76 14.023,-46.64 31.328,-46.64 17.305,0 31.332,20.88 31.332,46.64" /><path
         id="path72"
         style="fill:#1c63b7;fill-opacity:1;fill-rule:evenodd;stroke:none"
         d="m 1519.16,1471.53 c 0,25.77 -14.02,46.65 -31.33,46.65 -17.3,0 -31.33,-20.88 -31.33,-46.65 0,-25.76 14.03,-46.64 31.33,-46.64 17.31,0 31.33,20.88 31.33,46.64" /><path
         id="path74"
         style="fill:none;stroke:#231f20;stroke-width:10;stroke-linecap:butt;stroke-linejoin:miter;stroke-miterlimit:10;stroke-dasharray:none;stroke-opacity:1"
         d="m 1519.16,1471.53 c 0,25.77 -14.02,46.65 -31.33,46.65 -17.3,0 -31.33,-20.88 -31.33,-46.65 0,-25.76 14.03,-46.64 31.33,-46.64 17.31,0 31.33,20.88 31.33,46.64" /><path
         id="path76"
         style="fill:#1c63b7;fill-opacity:1;fill-rule:evenodd;stroke:none"
         d="m 986.547,1424.19 156.653,10.44 h 156.65 l 156.65,-10.44 v 93.99 l -156.65,-10.45 H 1143.2 l -156.653,10.45 v -93.99" /><path
         id="path78"
         style="fill:none;stroke:#231f20;stroke-width:10;stroke-linecap:butt;stroke-linejoin:miter;stroke-miterlimit:10;stroke-dasharray:none;stroke-opacity:1"
         d="m 986.547,1424.19 156.653,10.44 h 156.65 l 156.65,-10.44 v 93.99 l -156.65,-10.45 H 1143.2 l -156.653,10.45 z" /><path
         id="path80"
         style="fill:#231f20;fill-opacity:1;fill-rule:nonzero;stroke:none"
         d="M 1700.79,1984.25 H 0 V 850.391 C 0,380.73 380.734,0 850.395,0 1320.05,0 1700.79,380.73 1700.79,850.391 V 1984.25 Z m -35,-35 V 850.391 C 1665.79,400.781 1300,35 850.395,35 400.785,35 35,400.781 35,850.391 V 1949.25 h 1630.79" /></g></g></svg>