<?xml version="1.0" encoding="UTF-8"?>
<svg width="600" height="700" xmlns="http://www.w3.org/2000/svg">
 <g fill="#fff">
  <path d="M6.005 6.01v394.54a294 295.16 0 0 0 587.99 0V6.01z"/>
  <path d="M98.517 162.9c-1.094 3.726-1.95 8.88 1.375 9.62 3.308.734 9.142 1.468 13.053 1.916 2.105.243 6.642 2.145 10.303 3.22.91.269 5.823-2.589 5.998-3.524 1.096-5.93-4.272-18.823-16.23-18.135-5.479.317-10.844 3.21-12.597 4.98l-1.902 1.923M486.5 299.81c10.621 17.713 11.284 34.596 11.284 34.596l-12.346-8.82-7.27 29.848s-70.046-54.057-4.343-55.624H486.5M157.22 145.69s9.26-12.788 20.285-9.701 18.079 14.11 18.079 14.11-8.378 8.378-19.182 8.82-19.181-13.23-19.181-13.23"/>
 </g>
 <path d="m51.42 555.91h496.83l-44.718 56.318-52.748 40.364-69.621 31.013-80.667 9.353-76.588-9.353-61.921-26.092-46.686-30.518-26.535-23.136-37.349-47.949" fill="#0fab4b"/>
 <path d="m51.42 555.91h496.83l-44.718 56.318-52.748 40.364-69.621 31.013-80.667 9.353-76.588-9.353-61.921-26.092-46.686-30.518-26.535-23.136z" fill="none" stroke="#231f20" stroke-width="3.5"/>
 <path d="m198.18 553.28h-96.2v-114.2h96.2v114.2" fill="#231f20"/>
 <path d="m198.18 553.28h-96.2v-114.2h96.2z" fill="none" stroke="#231f20" stroke-width="3.5"/>
 <path d="m499.13 553.28h-96.395v-114.2h96.395v114.2" fill="#231f20"/>
 <path d="m499.13 553.28h-96.395v-114.2h96.395z" fill="none" stroke="#231f20" stroke-width="3.5"/>
 <path d="M300.23 212.2c63.631 9.045 102.59 69.772 102.59 139.17v57.729h77.317v-232.34s-1.962-5.905 7.21-18.376h-373.57c9.174 12.471 7.207 18.376 7.207 18.376v232.34h77.318V351.37c0-69.394 38.954-130.12 102.59-139.17h-.656" fill="#231f20"/>
 <path d="M300.23 212.2c63.631 9.045 102.59 69.772 102.59 139.17v57.729h77.317v-232.34s-1.962-5.905 7.21-18.376h-373.57c9.174 12.471 7.207 18.376 7.207 18.376v232.34h77.318V351.37c0-69.394 38.954-130.12 102.59-139.17z" fill="none" stroke="#231f20" stroke-width="3.5"/>
 <path d="M118.1 416.46h80.081v15.258h-92.27L118.1 416.46" fill="#231f20"/>
 <path d="m118.1 416.46h80.081v15.258h-92.27z" fill="none" stroke="#231f20" stroke-width="3.5"/>
 <path d="M483.57 416.46h-80.828v15.258h92.461L483.57 416.46" fill="#231f20"/>
 <path d="m483.57 416.46h-80.828v15.258h92.461z" fill="none" stroke="#231f20" stroke-width="3.5"/>
 <path d="M493.23 151H107.87v-16.743h385.36V151" fill="#231f20"/>
 <path d="M493.23 151H107.87v-16.743h385.36z" fill="none" stroke="#231f20" stroke-width="3.5"/>
 <path d="m220.51 55.993-44.474 35.444-44.475-35.444v70.884h88.949V55.993" fill="#231f20"/>
 <path d="m220.51 55.993-44.474 35.444-44.475-35.444v70.884h88.949z" fill="none" stroke="#231f20" stroke-width="3.5"/>
 <path d="m345.03 55.993-44.474 35.444-44.473-35.444v70.884h88.946V55.993" fill="#231f20"/>
 <path d="m345.03 55.993-44.474 35.444-44.473-35.444v70.884h88.946z" fill="none" stroke="#231f20" stroke-width="3.5"/>
 <path d="m470.24 55.993-44.475 35.444-44.475-35.444v70.884h88.949V55.993" fill="#231f20"/>
 <g fill="none" stroke="#231f20" stroke-width="3.5">
  <path d="m470.24 55.993-44.475 35.444-44.475-35.444v70.884h88.949zm-169.36 155.94v71.812m39.31-58.092v58.085m-77.82-60.825v60.833m114.93-29.043v29.041m-152.15-34.641v34.643m0 17.067v24.116m37.22-24.116v24.116m38.51-24.116v24.116m39.31-24.116v24.116m37.11-24.116v24.116"/>
 </g>
 <path d="M197.87 301.95h201.38v-13.145H197.87v13.145" fill="#231f20"/>
 <path d="M6.005 6.01v394.54a294 295.16 0 0 0 587.99 0V6.01z" fill="none" stroke="#231f20" stroke-width="12"/>
</svg>
