<?xml version="1.0" encoding="iso-8859-1"?>
<!DOCTYPE svg PUBLIC "-//W3C//DTD SVG 1.1//EN" "http://www.w3.org/Graphics/SVG/1.1/DTD/svg11.dtd">
<!-- Auto-generated by fig2svg tool
     Date: Tue Nov  7 09:02:11 2006 -->
<svg xmlns="http://www.w3.org/2000/svg"
   xmlns:dc="http://purl.org/dc/elements/1.1/"
   xmlns:cc="http://creativecommons.org/ns#"
   xmlns:rdf="http://www.w3.org/1999/02/22-rdf-syntax-ns#"
   xmlns:svg="http://www.w3.org/2000/svg"
   xmlns:xlink="http://www.w3.org/1999/xlink"
     width="438" height="480" viewBox="21 15 438 480">
<metadata>
<rdf:RDF>
<rdf:Description
 dc:title="Wappen Avers (CH-GR)"
 dc:date="2006-11-07"
 dc:format="image/svg+xml"
 dc:language="de">
<dc:creator rdf:resource="http://de.wikipedia.org/wiki/Benutzer:Bernina" />
</rdf:Description>
</rdf:RDF>
</metadata>
<title>
Wappen Avers (CH-GR)
</title>
<style type="text/css">
  <![CDATA[
  .Rand0 { stroke: #202020; stroke-width:5; }
  .Rand1 { stroke: #202020; stroke-width:15; }
  .Rand2 { stroke: #202020; stroke-width:30; }
  .Rand3 { stroke: #202020; stroke-width:45; }
  .Rand4 { stroke: #202020; stroke-width:60; }
  .Rand6 { stroke: #202020; stroke-width:90; }
  .Rand1Hell { stroke: #ffffff; stroke-width:15; }
  .Rand4Hell { stroke: #ffffff; stroke-width:60; }
  .Rand6Hell { stroke: #ffffff; stroke-width:90; }
  .Schwarz { fill: #000000; }
  .Rot { fill: #ff0000; }
  .Silber { fill: #ffffff; }
  ]]>
</style>
<defs>
<path id="bock6a-1"
      d="M5168,694 A150,150 0.0 0 0 4868,694 A150,150 0.0 0 0 5168,694 Z" />
<path id="bock6a-2"
      d="M5506,702 A150,150 0.0 0 0 5206,702 A150,150 0.0 0 0 5506,702 Z" />
<path id="bock6a-3"
      d="M5809,792 A145,145 0.0 0 0 5519,792 A145,145 0.0 0 0 5809,792 Z" />
<path id="bock6a-4"
      d="M6067,926 A127,127 0.0 0 0 5813,926 A127,127 0.0 0 0 6067,926 Z" />
<path id="bock6a-5"
      d="M6282,1136 A124,124 0.0 0 0 6034,1136 A124,124 0.0 0 0 6282,1136 Z" />
<path id="bock6a-6"
      d="M6481,1290 A105,105 0.0 0 0 6271,1290 A105,105 0.0 0 0 6481,1290 Z" />
<path id="bock6a-7"
      d="M4770,990 C4800,990 4830,990 4875,968 C4920,945 4980,900 5092,885
         C5205,870 5370,885 5580,982 C5790,1080 6045,1260 6248,1350
         C6450,1440 6600,1440 6645,1425 C6690,1410 6630,1380 6570,1365
         C6510,1350 6450,1350 6345,1275 C6240,1200 6090,1050 5925,930
         C5760,810 5580,720 5430,675 C5280,630 5160,630 5055,645
         C4950,660 4860,690 4770,720" />
<path id="bock6-1"
      d="M4770,810 C4710,750 4650,690 4665,630 C4680,570 4770,510 4800,480
         C4830,450 4800,450 4755,450 C4710,450 4650,450 4605,465
         C4560,480 4530,510 4530,570 C4530,630 4560,720 4590,810" />
<path id="bock6-2"
      d="M4905,1170 C4920,1110 4935,1050 4942,1012 C4950,975 4950,960 4950,915
         C4950,870 4950,795 4920,742 C4890,690 4830,660 4732,660
         C4635,660 4500,690 4395,705 C4290,720 4215,720 4162,720
         C4110,720 4080,720 4050,735 C4020,750 3990,780 3960,795
         C3930,810 3900,810 3892,840 C3885,870 3900,930 3960,972
         C4020,1013 4125,1036 4178,1081 C4230,1126 4230,1193 4185,1212
         C4140,1230 4050,1200 4005,1200 C3960,1200 3960,1230 3975,1260
         C3990,1290 4020,1320 4005,1365 C3990,1410 3930,1470 3870,1500
         C3810,1530 3750,1530 3750,1545 C3750,1560 3810,1590 3848,1605
         C3885,1620 3900,1620 3938,1605 C3975,1590 4035,1560 4072,1515
         C4110,1470 4125,1410 4148,1365 C4170,1320 4200,1290 4245,1320
         C4290,1350 4350,1440 4410,1485 C4470,1530 4530,1530 4590,1530" />
<path id="bock6b-1"
      d="M5250,1122 A150,150 0.0 0 0 4950,1122 A150,150 0.0 0 0 5250,1122 Z" />
<path id="bock6b-2"
      d="M5544,1242 A150,150 0.0 0 0 5244,1242 A150,150 0.0 0 0 5544,1242 Z" />
<path id="bock6b-3"
      d="M5969,1602 A125,125 0.0 0 0 5719,1602 A125,125 0.0 0 0 5969,1602 Z" />
<path id="bock6b-4"
      d="M5770,1406 A130,130 0.0 0 0 5510,1406 A130,130 0.0 0 0 5770,1406 Z" />
<path id="bock6b-5"
      d="M6158,1820 A120,120 0.0 0 0 5918,1820 A120,120 0.0 0 0 6158,1820 Z" />
<path id="bock6b-6"
      d="M6331,2022 A105,105 0.0 0 0 6121,2022 A105,105 0.0 0 0 6331,2022 Z" />
<path id="bock6b-7"
      d="M4590,1305 C4605,1335 4620,1365 4665,1372
         C4710,1380 4785,1365 4905,1358 C5025,1350 5190,1350 5415,1500
         C5640,1650 5925,1950 6098,2115 C6270,2280 6330,2310 6375,2325
         C6420,2340 6450,2340 6480,2325 C6510,2310 6540,2280 6525,2265
         C6510,2250 6450,2250 6405,2220 C6360,2190 6330,2130 6210,1980
         C6090,1830 5880,1590 5700,1425 C5520,1260 5370,1170 5242,1125
         C5115,1080 5010,1080 4935,1072 C4860,1065 4815,1050 4770,1035" />
<path id="bock8-1"
      d="M4860,1260 C4920,1350 4980,1440 5055,1485
         C5130,1530 5220,1530 5265,1545 C5310,1560 5310,1590 5280,1620
         C5250,1650 5190,1680 5130,1695 C5070,1710 5010,1710 4950,1680
         C4890,1650 4830,1590 4770,1530" />
<clipPath id="clippath">
<path d="M360,4140 A3240,3240 0.0 0 0 6840,4140 L6840,270 L360,270 L360,4140 Z" />
</clipPath>
</defs>
<g stroke="none" stroke-miterlimit="10" stroke-width="10"
   stroke-linecap="butt" stroke-linejoin="miter"
   fill="none" fill-rule="evenodd" transform="scale(0.066667)">
<g clip-path="url(#clippath)">
<path id="feldo-1" class="Silber"
      d="M-225,-405 L6525,7695 L7425,7695 L7425,-405 L-225,-405 Z" />
<path id="feldu-1" class="Schwarz"
      d="M6525,7695 L-225,-405 L-225,7695 L6525,7695 Z" />
<path id="bock1-1" class="Schwarz Rand2"
      d="M5040,3240 C5010,3420 4980,3600 4980,3735
         C4980,3870 5010,3960 5040,4020 C5070,4080 5100,4110 5115,4155
         C5130,4200 5130,4260 5115,4290 C5100,4320 5070,4320 5010,4275
         C4950,4230 4860,4140 4740,4065 C4620,3990 4470,3930 4335,3885
         C4200,3840 4080,3810 3960,3780 L3960,3870
         C3930,3900 3900,3930 3855,3945 C3810,3960 3750,3960 3675,3945
         C3600,3930 3510,3900 3465,3870 C3420,3840 3420,3810 3480,3780
         C3540,3750 3660,3720 3720,3690 C3780,3660 3780,3630 3750,3630
         C3720,3630 3660,3660 3585,3675 C3510,3690 3420,3690 3375,3675
         C3330,3660 3330,3630 3360,3615 C3390,3600 3450,3600 3510,3585
         C3570,3570 3630,3540 3690,3525 C3750,3510 3810,3510 3870,3525
         C3930,3540 3990,3570 4035,3570 C4080,3570 4110,3540 4230,3585
         C4350,3630 4560,3750 4665,3795 C4770,3840 4770,3810 4740,3750
         C4710,3690 4650,3600 4620,3510 C4590,3420 4590,3330 4605,3240
         C4620,3150 4650,3060 4680,2970" />
<path id="linie2-1" class="Rand4Hell"
      d="M5400,4050 C5340,4080 5280,4110 5235,4110
         C5190,4110 5160,4080 5130,4050 C5100,4020 5070,3990 5055,3915
         C5040,3840 5040,3720 5010,3630 C4980,3540 4920,3480 4860,3435
         C4800,3390 4740,3360 4710,3315 C4680,3270 4680,3210 4725,3210
         C4770,3210 4860,3270 4965,3345 C5070,3420 5190,3510 5250,3600
         C5310,3690 5310,3780 5310,3870" />
<path id="bock2-1" class="Schwarz Rand2"
      d="M5400,4050 C5340,4080 5280,4110 5235,4110
         C5190,4110 5160,4080 5130,4050 C5100,4020 5070,3990 5055,3915
         C5040,3840 5040,3720 5010,3630 C4980,3540 4920,3480 4860,3435
         C4800,3390 4740,3360 4710,3315 C4680,3270 4680,3210 4725,3210
         C4770,3210 4860,3270 4965,3345 C5070,3420 5190,3510 5250,3600
         C5310,3690 5310,3780 5310,3870" />
<path id="bewehrung-1" class="Rot Rand0"
      d="M4871,3402 C4852.33,3390.67 4833.67,3379.33 4806.17,3358
         C4778.67,3336.67 4742.33,3305.33 4727.33,3284
         C4712.33,3261.67 4718.67,3249.33 4744.33,3253.83
         C4770,3258.33 4815,3279.67 4843.83,3300.33 C4872.67,3321 4885.33,3341 4898,3361" />
<path id="linie3-1" class="Rand4Hell"
      d="M4320,1350 C4290,1440 4260,1530 4170,1590
         C4080,1650 3930,1680 3810,1740 C3690,1800 3600,1890 3540,1995
         C3480,2100 3450,2220 3465,2325 C3480,2430 3540,2520 3600,2610
         L3780,2880 C3930,2880 4080,2880 4275,2940
         C4470,3000 4710,3120 4890,3255 C5070,3390 5190,3540 5250,3675
         C5310,3810 5310,3930 5370,4035 C5430,4140 5550,4230 5625,4260
         C5700,4290 5730,4260 5760,4320 C5790,4380 5820,4530 5835,4665
         C5850,4800 5850,4920 5835,5010 C5820,5100 5790,5160 5745,5220
         C5700,5280 5640,5340 5595,5355 C5550,5370 5520,5340 5490,5355
         C5460,5370 5430,5430 5385,5475 C5340,5520 5280,5550 5250,5580
         C5220,5610 5220,5640 5235,5655 C5250,5670 5280,5670 5325,5655
         C5370,5640 5430,5610 5430,5625 C5430,5640 5370,5700 5355,5730
         C5340,5760 5370,5760 5430,5760 C5490,5760 5580,5760 5655,5745
         C5730,5730 5790,5700 5820,5655 C5850,5610 5850,5550 5835,5505
         C5820,5460 5790,5430 5820,5415 C5850,5400 5940,5400 6000,5370
         C6060,5340 6090,5280 6120,5220 L6120,5040
         C6090,4830 6060,4620 6060,4500 C6060,4380 6090,4350 6105,4320
         C6120,4290 6120,4260 6090,4245 C6060,4230 6000,4230 5955,4215
         C5910,4200 5880,4170 5865,4065 C5850,3960 5850,3780 5820,3645
         C5790,3510 5730,3420 5700,3360 C5670,3300 5670,3270 5685,3240
         C5700,3210 5730,3180 5805,3135 C5880,3090 6000,3030 6090,2985
         C6180,2940 6240,2910 6285,2865 C6330,2820 6360,2760 6360,2700
         C6360,2640 6330,2580 6300,2550 C6270,2520 6240,2520 6195,2520
         C6150,2520 6090,2520 6060,2535 C6030,2550 6030,2580 6060,2595
         C6090,2610 6150,2610 6165,2655 C6180,2700 6150,2790 6060,2850
         C5970,2910 5820,2940 5745,2970 C5670,3000 5670,3030 5655,3075
         C5640,3120 5610,3180 5595,3165 C5580,3150 5580,3060 5430,2910
         C5280,2760 4980,2550 4815,2445 C4650,2340 4620,2340 4605,2325
         C4590,2310 4590,2280 4635,2190 C4680,2100 4770,1950 4830,1800
         C4890,1650 4920,1500 4950,1350" />
<path id="bock3-1" class="Schwarz Rand2"
      d="M3690,1980 C3630,1920 3570,1860 3510,1800
         C3450,1740 3390,1680 3375,1635 C3360,1590 3390,1560 3360,1500
         C3330,1440 3240,1350 3180,1320 C3120,1290 3090,1320 3030,1275
         C2970,1230 2880,1110 2775,1020 C2670,930 2550,870 2490,825
         C2430,780 2430,750 2400,720 C2370,690 2310,660 2250,615
         C2190,570 2130,510 2100,510 C2070,510 2070,570 2100,615
         C2130,660 2190,690 2220,720 C2250,750 2250,780 2220,780
         C2190,780 2130,750 2085,720 C2040,690 2010,660 1995,675
         C1980,690 1980,750 2010,825 C2040,900 2100,990 2145,1035
         C2190,1080 2220,1080 2250,1080 L2340,990
         C2520,1110 2700,1230 2850,1380 C3000,1530 3120,1710 3195,1845
         C3270,1980 3300,2070 3360,2160 C3420,2250 3510,2340 3600,2430" />
<path id="bock4-1" class="Schwarz Rand2"
      d="M4950,1350 C4920,1500 4890,1650 4830,1800
         C4770,1950 4680,2100 4635,2190 C4590,2280 4590,2310 4605,2325
         C4620,2340 4650,2340 4815,2445 C4980,2550 5280,2760 5430,2910
         C5580,3060 5580,3150 5595,3158 C5610,3165 5640,3090 5670,3045
         C5700,3000 5730,2985 5775,2978 C5820,2970 5880,2970 5948,2955
         C6015,2940 6090,2910 6135,2880 C6180,2850 6195,2820 6202,2790
         C6210,2760 6210,2730 6195,2700 C6180,2670 6150,2640 6105,2618
         C6060,2595 6000,2580 6000,2565 C6000,2550 6060,2535 6090,2512
         C6120,2490 6120,2460 6135,2460 C6150,2460 6180,2490 6210,2490
         C6240,2490 6270,2460 6285,2475 C6300,2490 6300,2550 6330,2565
         C6360,2580 6420,2550 6435,2565 C6450,2580 6420,2640 6435,2685
         C6450,2730 6510,2760 6495,2775 C6480,2790 6390,2790 6375,2835
         C6360,2880 6420,2970 6405,2992 C6390,3015 6300,2970 6270,3000
         C6240,3030 6270,3135 6248,3150 C6225,3165 6150,3090 6112,3098
         C6075,3105 6075,3195 6045,3202 C6015,3210 5955,3135 5925,3135
         C5895,3135 5895,3210 5880,3225 C5865,3240 5835,3195 5805,3172
         C5775,3150 5745,3150 5722,3165 C5700,3180 5685,3210 5678,3248
         C5670,3285 5670,3330 5700,3390 C5730,3450 5790,3525 5820,3652
         C5850,3780 5850,3960 5865,4065 C5880,4170 5910,4200 5955,4215
         C6000,4230 6060,4230 6090,4245 C6120,4260 6120,4290 6105,4320
         C6090,4350 6060,4380 6060,4500 C6060,4620 6090,4830 6120,5040
         L6120,5220 C6120,5220 6102.25,5253.27 6075.61,5293.28
         C6048.97,5333.29 6028,5356.25 6000,5370
         C5972,5383.75 5935.11,5391.68 5899.16,5397.92
         C5863.21,5404.16 5833.75,5408.12 5820,5415
         C5806.25,5421.88 5805.49,5433.02 5811.24,5449.16
         C5816.98,5465.30 5828.12,5484.38 5835,5505
         C5841.88,5525.62 5845.84,5551.88 5843.76,5580
         C5841.68,5608.12 5833.75,5634.38 5820,5655
         C5806.25,5675.62 5783.97,5694.70 5753.76,5710.84
         C5723.56,5726.98 5689.38,5738.12 5655,5745
         C5620.62,5751.88 5579.27,5755.84 5537.08,5757.92
         C5494.89,5760 5458,5760 5430,5760
         C5402,5760 5379.46,5760 5365.39,5755.84
         C5351.33,5751.68 5348.12,5743.75 5355,5730
         C5361.88,5716.25 5380.19,5693.97 5402.08,5667.92
         C5423.97,5641.88 5446.25,5615.62 5460,5595
         C5473.75,5574.38 5485.69,5554.25 5498.51,5529.92
         C5511.32,5505.60 5520,5475 5490,5490
         C5460,5505 5415.93,5552.95 5390.81,5580.27
         C5365.68,5607.60 5345.62,5626.25 5325,5640
         C5304.38,5653.75 5285.30,5661.68 5269.16,5663.76
         C5253.02,5665.84 5241.88,5661.88 5235,5655
         C5228.12,5648.12 5224.16,5636.98 5226.24,5622.92
         C5228.32,5608.86 5236.25,5593.75 5250,5580
         C5263.75,5566.25 5286.03,5551.14 5312.08,5532.92
         C5338.12,5514.70 5364.38,5495.62 5385,5475
         C5405.62,5454.38 5424.70,5428.12 5442.92,5404.16
         C5461.14,5380.19 5476.25,5361.88 5490,5355
         C5503.75,5348.12 5518.86,5351.33 5537.08,5355
         C5555.30,5358.67 5574.38,5361.88 5595,5355
         C5615.62,5348.12 5641.88,5329.81 5670,5303.76
         C5698.12,5277.72 5724.38,5248 5745,5220
         C5765.62,5192 5784.70,5162.28 5800.84,5125.84
         C5816.98,5089.40 5828.12,5051.25 5835,5010
         C5841.88,4968.75 5845.84,4916.25 5845.84,4853.76
         C5845.84,4791.28 5841.88,4726.88 5835,4665
         C5828.12,4603.12 5816.98,4531.55 5802.92,4465.39
         C5788.86,4399.24 5773.75,4348 5760,4320
         C5746.25,4292 5731.14,4283.80 5708.76,4279.16
         C5686.39,4274.51 5659.38,4273.75 5625,4260
         C5590.62,4246.25 5542.09,4216.79 5492.08,4174.61
         C5442.07,4132.42 5398,4083.12 5370,4035
         C5342,3986.88 5326.63,3930.41 5310,3865.84
         C5293.37,3801.28 5278,3736.88 5250,3675
         C5222,3613.12 5177.93,3541.55 5113.37,3465
         C5048.80,3388.45 4972,3316.88 4890,3255
         C4808,3193.12 4702,3128.72 4587.92,3070.39
         C4473.34,3012.07 4364.38,2968 4275,2940
         C4185.62,2912 4101.59,2899.19 3983.87,2890.34
         C3866.14,2881.49 3780,2880 3780,2880 L3600,2610
         C3540,2520 3480,2430 3465,2325 C3450,2220 3480,2100 3540,1995
         C3600,1890 3690,1800 3810,1740 C3930,1680 4080,1650 4170,1590
         C4260,1530 4290,1440 4320,1350" />
<path id="bock5-1" class="Schwarz Rand2"
      d="M4050,2790 C4050,2820 4050,2850 3990,2880
         C3930,2910 3810,2940 3735,2970 C3660,3000 3630,3030 3600,3045
         C3570,3060 3540,3060 3525,3030 C3510,3000 3510,2940 3465,2880
         C3420,2820 3330,2760 3270,2670 C3210,2580 3180,2460 3090,2325
         C3000,2190 2850,2040 2655,1905 C2460,1770 2220,1650 2085,1605
         C1950,1560 1920,1590 1890,1620 C1890,1650 1890,1680 1860,1680
         C1830,1680 1770,1650 1710,1590 C1650,1530 1590,1440 1560,1380
         C1530,1320 1530,1290 1560,1305 C1590,1320 1650,1380 1695,1410
         C1740,1440 1770,1440 1785,1425 C1800,1410 1800,1380 1785,1365
         C1770,1350 1740,1350 1710,1320 C1680,1290 1650,1230 1635,1185
         C1620,1140 1620,1110 1650,1125 C1680,1140 1740,1200 1800,1230
         C1860,1260 1920,1260 1950,1275 C1980,1290 1980,1320 2040,1350
         C2100,1380 2220,1410 2355,1485 C2490,1560 2640,1680 2745,1740
         C2850,1800 2910,1800 2970,1830 C3030,1860 3090,1920 3120,1980
         C3150,2040 3150,2100 3225,2160 C3300,2220 3450,2280 3600,2340" />
<path id="linie6-1" class="Rand6Hell"
      d="M4950,810 C4950,780 4950,750 4920,720 C4890,690 4830,660 4732,660
         C4635,660 4500,690 4395,705 C4290,720 4215,720 4162,720
         C4110,720 4080,720 4050,735 C4020,750 3990,780 3960,795
         C3930,810 3900,810 3892,840 C3885,870 3900,930 3960,972
         C4020,1013 4125,1036 4178,1081 C4230,1126 4230,1193 4185,1212
         C4140,1230 4050,1200 4005,1200 C3960,1200 3960,1230 3975,1260
         C3990,1290 4020,1320 4005,1365 C3990,1410 3930,1470 3870,1500
         C3810,1530 3750,1530 3750,1545 C3750,1560 3810,1590 3848,1605
         C3885,1620 3900,1620 3938,1605 C3975,1590 4035,1560 4072,1515
         C4110,1470 4125,1410 4148,1365 C4170,1320 4200,1290 4245,1320
         C4290,1350 4350,1440 4410,1485 C4470,1530 4530,1530 4590,1530" />
<use class="Rand4" xlink:href="#bock6a-1" />
<use class="Rand4" xlink:href="#bock6a-2" />
<use class="Rand4" xlink:href="#bock6a-3" />
<use class="Rand4" xlink:href="#bock6a-4" />
<use class="Rand4" xlink:href="#bock6a-5" />
<use class="Rand4" xlink:href="#bock6a-6" />
<use class="Rand4" xlink:href="#bock6a-7" />
<use class="Rand4" xlink:href="#bock6-1" />
<use class="Rand4" xlink:href="#bock6-2" />
<use class="Rand4" xlink:href="#bock6b-1" />
<use class="Rand4" xlink:href="#bock6b-2" />
<use class="Rand4" xlink:href="#bock6b-3" />
<use class="Rand4" xlink:href="#bock6b-4" />
<use class="Rand4" xlink:href="#bock6b-5" />
<use class="Rand4" xlink:href="#bock6b-6" />
<use class="Rand4" xlink:href="#bock6b-7" />
<use class="Schwarz" xlink:href="#bock6a-1" />
<use class="Schwarz" xlink:href="#bock6a-2" />
<use class="Schwarz" xlink:href="#bock6a-3" />
<use class="Schwarz" xlink:href="#bock6a-4" />
<use class="Schwarz" xlink:href="#bock6a-5" />
<use class="Schwarz" xlink:href="#bock6a-6" />
<use class="Schwarz" xlink:href="#bock6a-7" />
<use class="Schwarz" xlink:href="#bock6-1" />
<use class="Schwarz" xlink:href="#bock6-2" />
<use class="Schwarz" xlink:href="#bock6b-1" />
<use class="Schwarz" xlink:href="#bock6b-2" />
<use class="Schwarz" xlink:href="#bock6b-3" />
<use class="Schwarz" xlink:href="#bock6b-4" />
<use class="Schwarz" xlink:href="#bock6b-5" />
<use class="Schwarz" xlink:href="#bock6b-6" />
<use class="Schwarz" xlink:href="#bock6b-7" />
<path id="bock7-1" class="Schwarz Rand2"
      d="M2115,1530 C2100,1590 2085,1650 2092,1710
         C2100,1770 2130,1830 2145,1815 C2160,1800 2160,1710 2190,1725
         C2220,1740 2280,1860 2310,1875 C2340,1890 2340,1800 2370,1815
         C2400,1830 2460,1950 2490,1965 C2520,1980 2520,1890 2550,1905
         C2580,1920 2640,2040 2670,2048 C2700,2055 2700,1950 2700,1845" />
<path id="bock7-2" class="Schwarz Rand2"
      d="M4095,3780 C4080,3810 4065,3840 4058,3885
         C4050,3930 4050,3990 4080,3975 C4110,3960 4170,3870 4200,3885
         C4230,3900 4230,4020 4260,4020 C4290,4020 4350,3900 4380,3900
         C4410,3900 4410,4020 4440,4035 C4470,4050 4530,3960 4560,3968
         C4590,3975 4590,4080 4620,4095 C4650,4110 4710,4035 4770,3960" />
<path id="bock7-3" class="Schwarz Rand2"
      d="M6030,4590 C6090,4620 6150,4650 6150,4680
         C6150,4710 6090,4740 6105,4770 C6120,4800 6210,4830 6210,4860
         C6210,4890 6120,4920 6120,4950 C6120,4980 6210,5010 6210,5040
         C6210,5070 6120,5100 6120,5130 C6120,5160 6210,5190 6210,5220
         C6210,5250 6120,5280 6098,5310 C6075,5340 6120,5370 6120,5392
         C6120,5415 6075,5430 6038,5422 C6000,5415 5970,5385 5940,5355" />
<path id="bock7-4" class="Schwarz Rand2"
      d="M4770,1575 C4860,1650 4950,1725 4950,1762
         C4950,1800 4860,1800 4845,1830 C4830,1860 4890,1920 4875,1950
         C4860,1980 4770,1980 4755,2010 C4740,2040 4800,2100 4785,2130
         C4770,2160 4680,2160 4665,2175 C4650,2190 4710,2220 4695,2250
         C4680,2280 4590,2310 4500,2340" />
<path id="bock7-5" class="Schwarz Rand2"
      d="M2475,1035 C2460,1035 2445,1035 2422,1072
         C2400,1110 2370,1185 2392,1192 C2415,1200 2490,1140 2520,1155
         C2550,1170 2535,1260 2558,1275 C2580,1290 2640,1230 2662,1252
         C2685,1275 2670,1380 2685,1395 C2700,1410 2745,1335 2775,1350
         C2805,1365 2820,1470 2842,1485 C2865,1500 2895,1425 2925,1350" />
<use class="Rand4Hell" xlink:href="#bock8-1" />
<use class="Schwarz Rand2" xlink:href="#bock8-1" />
<path id="linie9-1" class="Rand1Hell"
      d="M3968,784 C3990.67,814 4013.33,844 4033.33,860.33
         C4053.33,876.67 4070.67,879.33 4088,882" />
<path id="auge-1" class="Silber Rand2"
      d="M4560,874 C4518,876.67 4476,879.33 4455.67,915.33
         C4435.33,951.33 4436.67,1020.67 4478.67,1067.67
         C4520.67,1114.67 4603.33,1139.33 4660,1132
         C4716.67,1124.67 4747.33,1085.33 4762.67,1054.67 C4778,1024 4778,1002 4778,980" />
<path id="zunge-1" class="Rot Rand1"
      d="M4140,1170 C4080,1140 4020,1110 3968,1110
         C3915,1110 3870,1140 3825,1155 C3780,1170 3735,1170 3698,1155
         C3660,1140 3630,1110 3630,1058 C3630,1005 3660,930 3675,915
         C3690,900 3690,945 3698,982 C3705,1020 3720,1050 3765,1058
         C3810,1065 3885,1050 3938,1050 C3990,1050 4020,1065 4050,1088
         C4080,1110 4110,1140 4140,1170 Z" />
<path id="augei-1" class="Schwarz"
      d="M4696,954 A78,78 0.0 0 0 4540,954 A78,78 0.0 0 0 4696,954 Z" />
<path id="linie-1" class="Rand3" d="M-225,-405 L6525,7695" />
</g>
<path id="clip-boundary" class="Rand6"
      d="M360,4140 A3240,3240 0.0 0 0 6840,4140 L6840,270 L360,270 L360,4140 Z" />
</g>
</svg>
