<?xml version="1.0" encoding="UTF-8" standalone="no"?>
<svg xmlns:dc="http://purl.org/dc/elements/1.1/" xmlns:cc="http://creativecommons.org/ns#" xmlns:rdf="http://www.w3.org/1999/02/22-rdf-syntax-ns#" xmlns:svg="http://www.w3.org/2000/svg" xmlns="http://www.w3.org/2000/svg" viewBox="0 0 226.77333 264.57333" height="264.57333" width="226.77333" xml:space="preserve" id="svg2" version="1.1"><metadata id="metadata8"><rdf:RDF><cc:Work rdf:about=""><dc:format>image/svg+xml</dc:format><dc:type rdf:resource="http://purl.org/dc/dcmitype/StillImage"/></cc:Work></rdf:RDF></metadata><defs id="defs6"/><g transform="matrix(1.3333333,0,0,-1.3333333,0,264.57333)" id="g10"><g transform="scale(0.1)" id="g12"><path id="path14" style="fill:#ed1c24;fill-opacity:1;fill-rule:evenodd;stroke:none" d="M 0,1984.25 V 850.391 C 0,380.73 380.734,0 850.391,0 1320.06,0 1700.79,380.73 1700.79,850.391 V 1984.25 H 0"/><path id="path16" style="fill:#ffffff;fill-opacity:1;fill-rule:nonzero;stroke:none" d="m 31.9453,718.219 c 4.2422,1.793 5.9336,2.851 10.1133,4.652 41.3281,17.809 80.3754,34.641 160.5584,34.641 80.188,0 119.235,-16.832 160.567,-34.641 40.875,-17.609 83.125,-35.82 166.453,-35.82 83.32,0 125.582,18.211 166.445,35.82 41.336,17.809 80.379,34.641 160.566,34.641 80.184,0 119.239,-16.832 160.572,-34.641 40.87,-17.609 83.13,-35.82 166.46,-35.82 83.33,0 125.59,18.199 166.47,35.82 41.34,17.809 80.39,34.641 160.6,34.641 80.2,0 119.85,-18.352 161.19,-36.172 l -47.5,-102.168 c -21.67,8.34 -90.61,15.859 -113.69,15.859 -83.34,0 -125.62,-18.211 -166.49,-35.812 -41.33,-17.821 -80.39,-34.637 -160.58,-34.637 -80.2,0 -119.24,16.816 -160.58,34.637 -40.866,17.601 -83.131,35.812 -166.452,35.812 -83.32,0 -125.578,-18.211 -166.441,-35.812 -41.34,-17.821 -80.387,-34.637 -160.57,-34.637 -80.184,0 -119.235,16.816 -160.574,34.637 -40.864,17.601 -83.118,35.812 -166.446,35.812 -28.762,0 -129.0076,-7.859 -144.0076,-19.519 L 31.9453,718.219"/><path id="path18" style="fill:none;stroke:#231f20;stroke-width:10;stroke-linecap:butt;stroke-linejoin:miter;stroke-miterlimit:10;stroke-dasharray:none;stroke-opacity:1" d="m 31.9453,718.219 c 4.2422,1.793 5.9336,2.851 10.1133,4.652 41.3281,17.809 80.3754,34.641 160.5584,34.641 80.188,0 119.235,-16.832 160.567,-34.641 40.875,-17.609 83.125,-35.82 166.453,-35.82 83.32,0 125.582,18.211 166.445,35.82 41.336,17.809 80.379,34.641 160.566,34.641 80.184,0 119.239,-16.832 160.572,-34.641 40.87,-17.609 83.13,-35.82 166.46,-35.82 83.33,0 125.59,18.199 166.47,35.82 41.34,17.809 80.39,34.641 160.6,34.641 80.2,0 119.85,-18.352 161.19,-36.172 l -47.5,-102.168 c -21.67,8.34 -90.61,15.859 -113.69,15.859 -83.34,0 -125.62,-18.211 -166.49,-35.812 -41.33,-17.821 -80.39,-34.637 -160.58,-34.637 -80.2,0 -119.24,16.816 -160.58,34.637 -40.866,17.601 -83.131,35.812 -166.452,35.812 -83.32,0 -125.578,-18.211 -166.441,-35.812 -41.34,-17.821 -80.387,-34.637 -160.57,-34.637 -80.184,0 -119.235,16.816 -160.574,34.637 -40.864,17.601 -83.118,35.812 -166.446,35.812 -28.762,0 -129.0076,-7.859 -144.0076,-19.519 z"/><path id="path20" style="fill:#ffffff;fill-opacity:1;fill-rule:nonzero;stroke:none" d="m 64.3477,557.809 c 4.2421,1.8 58.0863,25.242 138.2693,25.242 80.188,0 119.235,-16.821 160.567,-34.629 40.875,-17.613 83.125,-35.832 166.453,-35.832 83.32,0 125.582,18.219 166.445,35.832 41.336,17.808 80.379,34.629 160.566,34.629 80.184,0 119.239,-16.821 160.572,-34.629 40.87,-17.613 83.13,-35.832 166.46,-35.832 83.33,0 125.59,18.211 166.47,35.832 41.34,17.808 80.39,34.629 160.6,34.629 80.2,0 80.34,-10.699 121.68,-28.512 l -41.46,-102.098 c -21.67,8.329 -57.14,8.129 -80.22,8.129 -83.34,0 -125.62,-18.199 -166.49,-35.808 -41.33,-17.813 -80.39,-34.641 -160.58,-34.641 -80.2,0 -119.24,16.828 -160.58,34.641 -40.866,17.609 -83.131,35.808 -166.452,35.808 -83.32,0 -125.578,-18.199 -166.441,-35.808 -41.34,-17.813 -80.387,-34.641 -160.57,-34.641 -80.184,0 -119.235,16.828 -160.574,34.641 -40.864,17.609 -83.118,35.808 -166.446,35.808 -28.762,0 -69.844,-3.398 -84.844,-15.058 L 64.3477,557.809"/><path id="path22" style="fill:none;stroke:#231f20;stroke-width:10;stroke-linecap:butt;stroke-linejoin:miter;stroke-miterlimit:10;stroke-dasharray:none;stroke-opacity:1" d="m 64.3477,557.809 c 4.2421,1.8 58.0863,25.242 138.2693,25.242 80.188,0 119.235,-16.821 160.567,-34.629 40.875,-17.613 83.125,-35.832 166.453,-35.832 83.32,0 125.582,18.219 166.445,35.832 41.336,17.808 80.379,34.629 160.566,34.629 80.184,0 119.239,-16.821 160.572,-34.629 40.87,-17.613 83.13,-35.832 166.46,-35.832 83.33,0 125.59,18.211 166.47,35.832 41.34,17.808 80.39,34.629 160.6,34.629 80.2,0 80.34,-10.699 121.68,-28.512 l -41.46,-102.098 c -21.67,8.329 -57.14,8.129 -80.22,8.129 -83.34,0 -125.62,-18.199 -166.49,-35.808 -41.33,-17.813 -80.39,-34.641 -160.58,-34.641 -80.2,0 -119.24,16.828 -160.58,34.641 -40.866,17.609 -83.131,35.808 -166.452,35.808 -83.32,0 -125.578,-18.199 -166.441,-35.808 -41.34,-17.813 -80.387,-34.641 -160.57,-34.641 -80.184,0 -119.235,16.828 -160.574,34.641 -40.864,17.609 -83.118,35.808 -166.446,35.808 -28.762,0 -69.844,-3.398 -84.844,-15.058 z"/><path id="path24" style="fill:#1c63b7;fill-opacity:1;fill-rule:nonzero;stroke:none" d="m 42.0586,635.051 c 4.2461,1.777 -4.1797,-1.801 0,0 41.3281,17.808 80.3754,34.621 160.5584,34.621 80.188,0 119.235,-16.813 160.567,-34.621 40.875,-17.61 83.125,-35.821 166.453,-35.821 83.32,0 125.582,18.211 166.445,35.821 41.336,17.808 80.379,34.621 160.566,34.621 80.184,0 119.239,-16.813 160.572,-34.621 40.87,-17.61 83.13,-35.821 166.46,-35.821 83.33,0 125.59,18.2 166.47,35.821 41.34,17.808 80.39,34.621 160.6,34.621 80.2,0 109.52,-12.66 150.86,-30.461 L 1624.44,531.34 c -21.67,8.332 -90.61,15.851 -113.69,15.851 -83.34,0 -125.62,-18.203 -166.49,-35.812 -41.33,-17.809 -80.39,-34.617 -160.58,-34.617 -80.2,0 -119.24,16.808 -160.58,34.617 -40.866,17.609 -83.131,35.812 -166.452,35.812 -83.32,0 -125.578,-18.203 -166.441,-35.812 -41.34,-17.809 -80.387,-34.617 -160.57,-34.617 -80.184,0 -119.235,16.808 -160.574,34.617 -40.864,17.609 -83.118,35.812 -166.446,35.812 -28.762,0 -106.5076,-9.179 -121.5076,-20.851 L 42.0586,635.051"/><path id="path26" style="fill:none;stroke:#231f20;stroke-width:10;stroke-linecap:butt;stroke-linejoin:miter;stroke-miterlimit:10;stroke-dasharray:none;stroke-opacity:1" d="m 42.0586,635.051 c 4.2461,1.777 -4.1797,-1.801 0,0 41.3281,17.808 80.3754,34.621 160.5584,34.621 80.188,0 119.235,-16.813 160.567,-34.621 40.875,-17.61 83.125,-35.821 166.453,-35.821 83.32,0 125.582,18.211 166.445,35.821 41.336,17.808 80.379,34.621 160.566,34.621 80.184,0 119.239,-16.813 160.572,-34.621 40.87,-17.61 83.13,-35.821 166.46,-35.821 83.33,0 125.59,18.2 166.47,35.821 41.34,17.808 80.39,34.621 160.6,34.621 80.2,0 109.52,-12.66 150.86,-30.461 L 1624.44,531.34 c -21.67,8.332 -90.61,15.851 -113.69,15.851 -83.34,0 -125.62,-18.203 -166.49,-35.812 -41.33,-17.809 -80.39,-34.617 -160.58,-34.617 -80.2,0 -119.24,16.808 -160.58,34.617 -40.866,17.609 -83.131,35.812 -166.452,35.812 -83.32,0 -125.578,-18.203 -166.441,-35.812 -41.34,-17.809 -80.387,-34.617 -160.57,-34.617 -80.184,0 -119.235,16.808 -160.574,34.617 -40.864,17.609 -83.118,35.812 -166.446,35.812 -28.762,0 -106.5076,-9.179 -121.5076,-20.851 z"/><path id="path28" style="fill:#ffffff;fill-opacity:1;fill-rule:nonzero;stroke:none" d="m 257.434,1683.86 56.504,166.6 56.503,-166.6 172.539,34.37 -116.039,-132.24 116.039,-132.24 -172.539,34.37 -56.503,-166.61 -56.504,166.61 -172.5395,-34.37 116.0395,132.24 -116.0395,132.24 172.5395,-34.37"/><path id="path30" style="fill:none;stroke:#231f20;stroke-width:10;stroke-linecap:butt;stroke-linejoin:miter;stroke-miterlimit:10;stroke-dasharray:none;stroke-opacity:1" d="m 257.434,1683.86 56.504,166.6 56.503,-166.6 172.539,34.37 -116.039,-132.24 116.039,-132.24 -172.539,34.37 -56.503,-166.61 -56.504,166.61 -172.5395,-34.37 116.0395,132.24 -116.0395,132.24 z"/><path id="path32" style="fill:#ffffff;fill-opacity:1;fill-rule:nonzero;stroke:none" d="m 793.895,1683.86 56.496,166.6 56.5,-166.6 172.549,34.37 -116.045,-132.24 116.045,-132.24 -172.549,34.37 -56.5,-166.61 -56.496,166.61 -172.547,-34.37 116.043,132.24 -116.043,132.24 172.547,-34.37"/><path id="path34" style="fill:none;stroke:#231f20;stroke-width:10;stroke-linecap:butt;stroke-linejoin:miter;stroke-miterlimit:10;stroke-dasharray:none;stroke-opacity:1" d="m 793.895,1683.86 56.496,166.6 56.5,-166.6 172.549,34.37 -116.045,-132.24 116.045,-132.24 -172.549,34.37 -56.5,-166.61 -56.496,166.61 -172.547,-34.37 116.043,132.24 -116.043,132.24 z"/><path id="path36" style="fill:#ffffff;fill-opacity:1;fill-rule:nonzero;stroke:none" d="m 1329.69,1683.86 56.51,166.6 56.49,-166.6 172.55,34.37 -116.04,-132.24 116.04,-132.24 -172.55,34.37 -56.49,-166.61 -56.51,166.61 -172.54,-34.37 116.04,132.24 -116.04,132.24 172.54,-34.37"/><path id="path38" style="fill:none;stroke:#231f20;stroke-width:10;stroke-linecap:butt;stroke-linejoin:miter;stroke-miterlimit:10;stroke-dasharray:none;stroke-opacity:1" d="m 1329.69,1683.86 56.51,166.6 56.49,-166.6 172.55,34.37 -116.04,-132.24 116.04,-132.24 -172.55,34.37 -56.49,-166.61 -56.51,166.61 -172.54,-34.37 116.04,132.24 -116.04,132.24 z"/><path id="path40" style="fill:#ffffff;fill-opacity:1;fill-rule:nonzero;stroke:none" d="m 1070.44,1212.73 56.5,166.62 56.5,-166.62 172.55,34.38 -116.04,-132.24 116.04,-132.241 -172.55,34.371 -56.5,-166.609 -56.5,166.609 -172.542,-34.371 116.042,132.241 -116.042,132.24 172.542,-34.38"/><path id="path42" style="fill:none;stroke:#231f20;stroke-width:10;stroke-linecap:butt;stroke-linejoin:miter;stroke-miterlimit:10;stroke-dasharray:none;stroke-opacity:1" d="m 1070.44,1212.73 56.5,166.62 56.5,-166.62 172.55,34.38 L 1239.95,1114.87 1355.99,982.629 1183.44,1017 1126.94,850.391 1070.44,1017 897.898,982.629 1013.94,1114.87 897.898,1247.11 Z"/><path id="path44" style="fill:#ffffff;fill-opacity:1;fill-rule:nonzero;stroke:none" d="m 522.434,1212.73 56.504,166.62 56.503,-166.62 172.539,34.38 L 691.941,1114.87 807.98,982.629 635.441,1017 578.938,850.391 522.434,1017 349.895,982.629 465.934,1114.87 349.895,1247.11 522.434,1212.73"/><path id="path46" style="fill:none;stroke:#231f20;stroke-width:10;stroke-linecap:butt;stroke-linejoin:miter;stroke-miterlimit:10;stroke-dasharray:none;stroke-opacity:1" d="m 522.434,1212.73 56.504,166.62 56.503,-166.62 172.539,34.38 L 691.941,1114.87 807.98,982.629 635.441,1017 578.938,850.391 522.434,1017 349.895,982.629 465.934,1114.87 349.895,1247.11 Z"/><path id="path48" style="fill:#231f20;fill-opacity:1;fill-rule:nonzero;stroke:none" d="M 1700.79,1984.25 H 0 V 850.391 C 0,380.73 380.734,0 850.391,0 1320.06,0 1700.79,380.73 1700.79,850.391 V 1984.25 Z m -35,-35 V 850.391 C 1665.79,400.781 1300.01,35 850.391,35 400.781,35 35,400.781 35,850.391 V 1949.25 h 1630.79"/></g></g></svg>