<?xml version="1.0" encoding="UTF-8" standalone="no"?>
<svg xmlns:dc="http://purl.org/dc/elements/1.1/" xmlns:cc="http://creativecommons.org/ns#" xmlns:rdf="http://www.w3.org/1999/02/22-rdf-syntax-ns#" xmlns:svg="http://www.w3.org/2000/svg" xmlns="http://www.w3.org/2000/svg" viewBox="0 0 226.77333 264.57333" height="264.57333" width="226.77333" xml:space="preserve" id="svg2" version="1.1"><metadata id="metadata8"><rdf:RDF><cc:Work rdf:about=""><dc:format>image/svg+xml</dc:format><dc:type rdf:resource="http://purl.org/dc/dcmitype/StillImage"/></cc:Work></rdf:RDF></metadata><defs id="defs6"/><g transform="matrix(1.3333333,0,0,-1.3333333,0,264.57333)" id="g10"><g transform="scale(0.1)" id="g12"><path id="path14" style="fill:#ed1c24;fill-opacity:1;fill-rule:evenodd;stroke:none" d="M 0,1984.25 V 850.391 C 0,380.73 380.734,0 850.395,0 1320.05,0 1700.79,380.73 1700.79,850.391 V 1984.25 H 0"/><path id="path16" style="fill:#ffffff;fill-opacity:1;fill-rule:nonzero;stroke:none" d="m 949.16,22.7188 c 406.64,48.1328 724.1,392.1792 738.16,814.5822 l -2.71,82.211 L 1411.74,1217.83 1132.42,937.871 853.02,1217.83 573.645,937.871 294.652,1217.83 16.2734,936.18 14.875,855.941 C 20.4375,393.18 390.078,19.5313 846.449,16.8711 l 102.711,5.8477"/><path id="path18" style="fill:none;stroke:#231f20;stroke-width:10;stroke-linecap:butt;stroke-linejoin:miter;stroke-miterlimit:10;stroke-dasharray:none;stroke-opacity:1" d="m 949.16,22.7188 c 406.64,48.1328 724.1,392.1792 738.16,814.5822 l -2.71,82.211 L 1411.74,1217.83 1132.42,937.871 853.02,1217.83 573.645,937.871 294.652,1217.83 16.2734,936.18 14.875,855.941 C 20.4375,393.18 390.078,19.5313 846.449,16.8711 Z"/><path id="path20" style="fill:#1c63b7;fill-opacity:1;fill-rule:nonzero;stroke:none" d="m 1669.88,948.828 c -7.68,-7.598 -13.22,-13.808 -26.11,-19.937 -21.65,-10.282 -32.93,-8.422 -53.31,-5 -26.26,4.41 -62.23,6.73 -111.78,-16.84 -49.55,-23.59 -68.05,-55.52 -81.55,-78.813 -10.54,-18.129 -16.33,-28.136 -37.85,-38.386 -21.58,-10.301 -32.8,-8.442 -53.31,-5 -26.31,4.386 -62.29,10.359 -111.84,-13.231 -49.6,-23.621 -68.13,-55.551 -81.63,-78.84 -10.56,-18.191 -16.36,-28.191 -37.96,-38.472 -21.68,-10.329 -32.98,-8.368 -53.39,-5.028 -26.306,4.379 -62.279,10.328 -111.857,-13.261 l -5.719,-3.2 c -8.351,-5.429 -45.75,-30.621 -70.355,-60.3 -3.117,4.449 -6.141,9.281 -9.555,15.16 -13.527,23.32 -32.027,55.218 -81.633,78.84 -49.578,23.589 -85.551,17.679 -111.859,13.261 -20.461,-3.41 -31.766,-5.242 -53.363,5.008 -21.598,10.301 -27.395,20.281 -37.903,38.441 -13.527,23.321 -32.031,55.219 -81.633,78.84 -49.527,23.559 -85.523,17.61 -111.757,13.2 -20.512,-3.411 -31.735,-5.301 -53.254,4.98 -21.574,10.25 -27.371,20.25 -37.879,38.41 -13.528,23.301 -32,55.199 -81.555,78.789 -49.574,23.61 -85.5467,17.672 -111.8046,13.262 -13.6132,-2.289 -23.1992,-3.781 -34.3789,-1.582 -5.4414,1.07 -11.2695,3 -18.1445,6.211 L 8.46875,928.398 8.38672,859.781 c 0,-3.543 0.21875,-7.011 0.26172,-10.543 28.13286,-5.386 50.56636,-1.668 68.51956,1.301 20.4375,3.441 31.766,5.27 53.258,-5.008 21.574,-10.242 27.371,-20.25 37.879,-38.383 13.523,-23.32 32.027,-55.218 81.605,-78.839 49.496,-23.508 85.469,-17.571 111.754,-13.207 20.461,3.449 31.711,5.328 53.258,-4.973 21.598,-10.277 27.394,-20.289 37.93,-38.418 13.5,-23.32 32.003,-55.223 81.578,-78.84 49.578,-23.562 85.55,-17.641 111.863,-13.262 20.406,3.36 31.711,5.332 53.387,-5.027 21.601,-10.273 27.422,-20.281 37.961,-38.441 10.757,-18.551 24.953,-42.481 55.164,-63.403 -0.36,-4.84 -0.614,-9.828 -0.614,-15.109 0,-55.629 20.594,-86.219 35.629,-108.508 11.7,-17.383 18.133,-26.961 18.133,-51.109 0,-24.242 -6.461,-33.813 -18.187,-51.192 -15.036,-22.3 -35.625,-52.859 -35.653,-108.48 0,-55.6291 20.59,-86.1603 35.629,-108.4884 4.981,-7.3828 8.946,-13.3828 11.93,-19.6797 1.629,-0.0117 3.234,-0.1211 4.867,-0.1211 33.098,0 65.684,2.168 97.777,5.9687 -6.492,33.1016 -20.875,54.461 -32.148,71.1797 -11.727,17.3828 -18.16,26.9488 -18.16,51.1098 0,24.211 6.461,33.781 18.16,51.16 15.059,22.301 35.652,52.859 35.68,108.511 0,55.598 -20.594,86.161 -35.629,108.481 -11.699,17.348 -18.156,26.93 -18.129,51.141 0,20.949 5.16,30.449 14.371,45.488 6.324,10.398 29.355,29.719 48.094,42.332 19.8,8.797 30.972,6.918 50.475,3.687 26.31,-4.41 62.31,-10.3 111.89,13.289 49.58,23.614 68.08,55.524 81.61,78.813 10.53,18.18 16.36,28.187 37.95,38.469 21.6,10.269 32.88,8.441 53.34,5 26.26,-4.391 62.26,-10.36 111.83,13.261 49.53,23.59 68.03,55.489 81.53,78.789 10.51,18.149 16.31,28.129 37.88,38.411 21.54,10.218 32.82,8.39 53.26,4.968 25.15,-4.168 59.23,-9.777 105.66,10.493 0.32,9.707 0.73,19.386 0.73,29.179 l 0.08,74.508 0.04,28.02 c -3.86,-6.661 -6.6,-9.161 -10.95,-13.481"/><path id="path22" style="fill:none;stroke:#231f20;stroke-width:10;stroke-linecap:butt;stroke-linejoin:miter;stroke-miterlimit:10;stroke-dasharray:none;stroke-opacity:1" d="m 1669.88,948.828 c -7.68,-7.598 -13.22,-13.808 -26.11,-19.937 -21.65,-10.282 -32.93,-8.422 -53.31,-5 -26.26,4.41 -62.23,6.73 -111.78,-16.84 -49.55,-23.59 -68.05,-55.52 -81.55,-78.813 -10.54,-18.129 -16.33,-28.136 -37.85,-38.386 -21.58,-10.301 -32.8,-8.442 -53.31,-5 -26.31,4.386 -62.29,10.359 -111.84,-13.231 -49.6,-23.621 -68.13,-55.551 -81.63,-78.84 -10.56,-18.191 -16.36,-28.191 -37.96,-38.472 -21.68,-10.329 -32.98,-8.368 -53.39,-5.028 -26.306,4.379 -62.279,10.328 -111.857,-13.261 l -5.719,-3.2 c -8.351,-5.429 -45.75,-30.621 -70.355,-60.3 -3.117,4.449 -6.141,9.281 -9.555,15.16 -13.527,23.32 -32.027,55.218 -81.633,78.84 -49.578,23.589 -85.551,17.679 -111.859,13.261 -20.461,-3.41 -31.766,-5.242 -53.363,5.008 -21.598,10.301 -27.395,20.281 -37.903,38.441 -13.527,23.321 -32.031,55.219 -81.633,78.84 -49.527,23.559 -85.523,17.61 -111.757,13.2 -20.512,-3.411 -31.735,-5.301 -53.254,4.98 -21.574,10.25 -27.371,20.25 -37.879,38.41 -13.528,23.301 -32,55.199 -81.555,78.789 -49.574,23.61 -85.5467,17.672 -111.8046,13.262 -13.6132,-2.289 -23.1992,-3.781 -34.3789,-1.582 -5.4414,1.07 -11.2695,3 -18.1445,6.211 L 8.46875,928.398 8.38672,859.781 c 0,-3.543 0.21875,-7.011 0.26172,-10.543 28.13286,-5.386 50.56636,-1.668 68.51956,1.301 20.4375,3.441 31.766,5.27 53.258,-5.008 21.574,-10.242 27.371,-20.25 37.879,-38.383 13.523,-23.32 32.027,-55.218 81.605,-78.839 49.496,-23.508 85.469,-17.571 111.754,-13.207 20.461,3.449 31.711,5.328 53.258,-4.973 21.598,-10.277 27.394,-20.289 37.93,-38.418 13.5,-23.32 32.003,-55.223 81.578,-78.84 49.578,-23.562 85.55,-17.641 111.863,-13.262 20.406,3.36 31.711,5.332 53.387,-5.027 21.601,-10.273 27.422,-20.281 37.961,-38.441 10.757,-18.551 24.953,-42.481 55.164,-63.403 -0.36,-4.84 -0.614,-9.828 -0.614,-15.109 0,-55.629 20.594,-86.219 35.629,-108.508 11.7,-17.383 18.133,-26.961 18.133,-51.109 0,-24.242 -6.461,-33.813 -18.187,-51.192 -15.036,-22.3 -35.625,-52.859 -35.653,-108.48 0,-55.6291 20.59,-86.1603 35.629,-108.4884 4.981,-7.3828 8.946,-13.3828 11.93,-19.6797 1.629,-0.0117 3.234,-0.1211 4.867,-0.1211 33.098,0 65.684,2.168 97.777,5.9687 -6.492,33.1016 -20.875,54.461 -32.148,71.1797 -11.727,17.3828 -18.16,26.9488 -18.16,51.1098 0,24.211 6.461,33.781 18.16,51.16 15.059,22.301 35.652,52.859 35.68,108.511 0,55.598 -20.594,86.161 -35.629,108.481 -11.699,17.348 -18.156,26.93 -18.129,51.141 0,20.949 5.16,30.449 14.371,45.488 6.324,10.398 29.355,29.719 48.094,42.332 19.8,8.797 30.972,6.918 50.475,3.687 26.31,-4.41 62.31,-10.3 111.89,13.289 49.58,23.614 68.08,55.524 81.61,78.813 10.53,18.18 16.36,28.187 37.95,38.469 21.6,10.269 32.88,8.441 53.34,5 26.26,-4.391 62.26,-10.36 111.83,13.261 49.53,23.59 68.03,55.489 81.53,78.789 10.51,18.149 16.31,28.129 37.88,38.411 21.54,10.218 32.82,8.39 53.26,4.968 25.15,-4.168 59.23,-9.777 105.66,10.493 0.32,9.707 0.73,19.386 0.73,29.179 l 0.08,74.508 0.04,28.02 c -3.86,-6.661 -6.6,-9.161 -10.95,-13.481 z"/><path id="path24" style="fill:#fccd06;fill-opacity:1;fill-rule:nonzero;stroke:none" d="m 826.242,1440.49 -9.277,1.81 -88.52,-152.85 45.496,170.67 -7.867,5.26 -140.269,-107.35 107.347,140.28 -5.261,7.87 -170.676,-45.5 152.859,88.51 -1.844,9.28 -175.097,23.28 175.097,23.29 1.844,9.28 -152.859,88.52 170.676,-45.5 5.261,7.86 -107.347,140.28 140.269,-107.35 7.867,5.26 -45.496,170.67 88.52,-152.85 9.281,1.83 23.281,171.25 23.282,-171.25 9.277,-1.83 88.516,152.85 -45.497,-170.67 7.872,-5.26 140.273,107.35 -107.355,-140.28 5.265,-7.86 170.67,45.5 -152.857,-88.52 1.855,-9.28 175.082,-23.29 -175.082,-23.28 -1.855,-9.28 152.857,-88.51 -170.67,45.5 -5.265,-7.87 107.355,-140.28 -140.273,107.35 -7.872,-5.26 45.497,-170.67 -88.516,152.85 -9.277,-1.81 -23.282,-166.7 -23.285,166.7"/><path id="path26" style="fill:#231f20;fill-opacity:1;fill-rule:nonzero;stroke:none" d="M 849.527,1931.4 821.289,1723.71 713.93,1909.11 769.113,1702.1 598.977,1832.3 729.18,1662.16 522.168,1717.35 707.57,1609.99 495.195,1581.75 707.57,1553.52 522.168,1446.16 729.18,1501.34 598.977,1331.2 l 170.136,130.21 -55.183,-207.02 107.359,185.41 28.238,-202.16 28.235,202.16 107.359,-185.41 -55.183,207.02 170.142,-130.21 -130.209,170.14 207.009,-55.18 -185.396,107.36 212.376,28.23 -212.376,28.24 185.396,107.36 -207.009,-55.19 130.209,170.14 -170.142,-130.2 55.183,207.01 -107.359,-185.4 -28.235,207.69 z m 0,-74.23 18.325,-134.81 18.566,-3.66 69.668,120.32 -35.813,-134.34 15.743,-10.52 110.414,84.5 -84.5,-110.42 10.515,-15.74 134.345,35.81 -120.317,-69.67 3.691,-18.56 137.816,-18.33 -137.816,-18.32 -3.691,-18.57 120.317,-69.67 -134.345,35.81 -10.515,-15.73 84.5,-110.42 -110.414,84.5 -15.743,-10.52 35.813,-134.34 -69.668,120.32 -18.559,-3.63 -18.332,-131.25 -18.332,131.25 -18.558,3.63 -69.672,-120.32 35.812,134.34 -15.742,10.52 -110.41,-84.5 84.496,110.42 -10.516,15.73 -134.339,-35.81 120.312,69.67 -3.691,18.57 -137.817,18.32 137.817,18.33 3.691,18.56 -120.312,69.67 134.339,-35.81 10.516,15.74 -84.496,110.41 110.41,-84.49 15.742,10.52 -35.812,134.34 69.672,-120.32 18.562,3.66 18.328,134.81"/><path id="path28" style="fill:#fccd06;fill-opacity:1;fill-rule:nonzero;stroke:none" d="m 849.527,1442.55 c -76.754,0 -139.199,62.45 -139.199,139.2 0,76.76 62.445,139.2 139.199,139.2 76.75,0 139.192,-62.44 139.192,-139.2 0,-76.75 -62.442,-139.2 -139.192,-139.2"/><path id="path30" style="fill:#231f20;fill-opacity:1;fill-rule:nonzero;stroke:none" d="m 849.527,1725.95 c -79.64,0 -144.199,-64.56 -144.199,-144.2 0,-79.63 64.559,-144.19 144.199,-144.19 79.637,0 144.196,64.56 144.196,144.19 0,79.64 -64.559,144.2 -144.196,144.2 z m 0,-10 c 73.996,0 134.196,-60.2 134.196,-134.2 0,-73.99 -60.2,-134.19 -134.196,-134.19 -73.996,0 -134.199,60.2 -134.199,134.19 0,74 60.203,134.2 134.199,134.2"/><path id="path32" style="fill:#231f20;fill-opacity:1;fill-rule:nonzero;stroke:none" d="M 1700.79,1984.25 H 0 V 850.391 C 0,380.73 380.734,0 850.395,0 1320.05,0 1700.79,380.73 1700.79,850.391 V 1984.25 Z m -35,-35 V 850.391 C 1665.79,400.781 1300,35 850.395,35 400.785,35 35,400.781 35,850.391 V 1949.25 h 1630.79"/></g></g></svg>