<?xml version="1.0" encoding="UTF-8" standalone="no"?>
<svg xmlns:dc="http://purl.org/dc/elements/1.1/" xmlns:cc="http://creativecommons.org/ns#" xmlns:rdf="http://www.w3.org/1999/02/22-rdf-syntax-ns#" xmlns:svg="http://www.w3.org/2000/svg" xmlns="http://www.w3.org/2000/svg" viewBox="0 0 226.77333 264.57333" height="264.57333" width="226.77333" xml:space="preserve" id="svg2" version="1.1"><metadata id="metadata8"><rdf:RDF><cc:Work rdf:about=""><dc:format>image/svg+xml</dc:format><dc:type rdf:resource="http://purl.org/dc/dcmitype/StillImage"/></cc:Work></rdf:RDF></metadata><defs id="defs6"/><g transform="matrix(1.3333333,0,0,-1.3333333,0,264.57333)" id="g10"><g transform="scale(0.1)" id="g12"><path id="path14" style="fill:#fddd04;fill-opacity:1;fill-rule:evenodd;stroke:none" d="M 850.391,17.5 C 391.137,17.5 17.5,391.129 17.5,850.391 V 1966.75 H 1683.29 V 850.391 C 1683.29,391.129 1309.66,17.5 850.391,17.5"/><path id="path16" style="fill:#231f20;fill-opacity:1;fill-rule:nonzero;stroke:none" d="M 1700.79,1984.25 H 0 V 850.391 C 0,380.73 380.734,0 850.391,0 1320.06,0 1700.79,380.73 1700.79,850.391 V 1984.25 Z m -35,-35 V 850.391 C 1665.79,400.781 1300.01,35 850.391,35 400.781,35 35,400.781 35,850.391 V 1949.25 h 1630.79"/><path id="path18" style="fill:#ffffff;fill-opacity:1;fill-rule:evenodd;stroke:none" d="m 283.844,1700.55 v 98.38 l 23.929,24.59 -47.855,98.38 -47.855,-98.38 23.929,-24.59 v -49.19 -49.19 h 47.852"/><path id="path20" style="fill:none;stroke:#231f20;stroke-width:10;stroke-linecap:butt;stroke-linejoin:miter;stroke-miterlimit:10;stroke-dasharray:none;stroke-opacity:1" d="m 283.844,1700.55 v 98.38 l 23.929,24.59 -47.855,98.38 -47.855,-98.38 23.929,-24.59 v -49.19 -49.19 z"/><path id="path22" style="fill:#1c63b7;fill-opacity:1;fill-rule:nonzero;stroke:none" d="m 483.641,821.199 -84.149,-133.219 -91.719,98.372 13.161,311.538 c -61.813,6.56 -143.563,0.41 -134.789,-180.359 5.98,-106.59 -15.954,-237.761 19.14,-319.332 l 33.895,6.153 c 35.496,-98.383 122.035,-135.27 210.965,-171.75 83.746,105.757 121.23,195.117 176.664,294.32 -61.68,24.566 -143.168,94.277 -143.168,94.277"/><path id="path24" style="fill:none;stroke:#231f20;stroke-width:10;stroke-linecap:butt;stroke-linejoin:miter;stroke-miterlimit:10;stroke-dasharray:none;stroke-opacity:1" d="m 483.641,821.199 -84.149,-133.219 -91.719,98.372 13.161,311.538 c -61.813,6.56 -143.563,0.41 -134.789,-180.359 5.98,-106.59 -15.954,-237.761 19.14,-319.332 l 33.895,6.153 c 35.496,-98.383 122.035,-135.27 210.965,-171.75 83.746,105.757 121.23,195.117 176.664,294.32 -61.68,24.566 -143.168,94.277 -143.168,94.277 z"/><path id="path26" style="fill:#fddd04;fill-opacity:1;fill-rule:nonzero;stroke:none" d="m 192.125,649.031 11.563,-46.73 c 68.996,2.461 131.601,22.14 174.273,108.629 l -42.672,42.218 C 320.934,691.672 276.27,654.77 191.727,649.031 h 0.398"/><path id="path28" style="fill:none;stroke:#231f20;stroke-width:10;stroke-linecap:butt;stroke-linejoin:miter;stroke-miterlimit:10;stroke-dasharray:none;stroke-opacity:1" d="m 192.125,649.031 11.563,-46.73 c 68.996,2.461 131.601,22.14 174.273,108.629 l -42.672,42.218 C 320.934,691.672 276.27,654.77 191.727,649.031 Z"/><path id="path30" style="fill:none;stroke:#231f20;stroke-width:10;stroke-linecap:butt;stroke-linejoin:miter;stroke-miterlimit:10;stroke-dasharray:none;stroke-opacity:1" d="m 188.137,792.512 117.64,-9.442"/><path id="path32" style="fill:#1c63b7;fill-opacity:1;fill-rule:nonzero;stroke:none" d="M 315.75,1099.93 C 172.184,1134.78 120.344,878.59 312.957,867.109 l 2.793,232.821"/><path id="path34" style="fill:none;stroke:#231f20;stroke-width:10;stroke-linecap:butt;stroke-linejoin:miter;stroke-miterlimit:10;stroke-dasharray:none;stroke-opacity:1" d="M 315.75,1099.93 C 172.184,1134.78 120.344,878.59 312.957,867.109 Z"/><path id="path36" style="fill:#ed1c24;fill-opacity:1;fill-rule:evenodd;stroke:none" d="m 311.762,210.43 -3.989,373.011 v 713.249 l -57.023,-11.88 7.176,-1028.888 53.836,-45.492"/><path id="path38" style="fill:none;stroke:#231f20;stroke-width:10;stroke-linecap:butt;stroke-linejoin:miter;stroke-miterlimit:10;stroke-dasharray:none;stroke-opacity:1" d="m 311.762,210.43 -3.989,373.011 v 713.249 l -57.023,-11.88 7.176,-1028.888 z"/><path id="path40" style="fill:#1c63b7;fill-opacity:1;fill-rule:evenodd;stroke:none" d="m 1133.28,1821.38 c -135.128,9.98 -246.643,-9.31 -410.764,-46.32 -164.118,-37.02 -442.657,-53.29 -490.512,-45.09 0.398,-155.77 3.766,-303.67 6.559,-459.43 182.773,-49.04 532.21,45.01 759.519,114.28 322.628,154.54 467.618,127.62 579.288,45.64 0,0 -57.76,362.38 -444.09,390.92"/><path id="path42" style="fill:none;stroke:#231f20;stroke-width:10;stroke-linecap:butt;stroke-linejoin:miter;stroke-miterlimit:10;stroke-dasharray:none;stroke-opacity:1" d="m 1133.28,1821.38 c -135.128,9.98 -246.643,-9.31 -410.764,-46.32 -164.118,-37.02 -442.657,-53.29 -490.512,-45.09 0.398,-155.77 3.766,-303.67 6.559,-459.43 182.773,-49.04 532.21,45.01 759.519,114.28 322.628,154.54 467.618,127.62 579.288,45.64 0,0 -57.76,362.38 -444.09,390.92 z"/><path id="path44" style="fill:#fddd04;fill-opacity:1;fill-rule:evenodd;stroke:none" d="m 1460.77,1586.39 c -207.09,77.92 -454.17,23.86 -606.653,-22.43 -2.793,-29.93 16.75,-139.37 16.75,-139.37 l -130.402,-12.71 c 0,0 21.152,69.05 4.805,111.27 C 563.605,1451.7 383.152,1389.18 235.598,1460.1 l -2.149,137.75 c 55.836,-53.7 201.145,-46.19 276.114,-35.53 87.734,17.63 143.566,26.64 227.308,61.07 11.567,51.24 13.055,157.7 13.055,157.7 l 100.371,20.48 c 0,0 5.418,-86.36 -3.356,-140.46 201.789,59.02 452.289,72.45 623.769,-6.66 16.18,-18.79 29.44,-38.6 41.11,-58.4 9.01,-15.3 24.66,-46.75 24.66,-46.75 0,0 -49.91,27.38 -75.71,37.09"/><path id="path46" style="fill:none;stroke:#231f20;stroke-width:10;stroke-linecap:butt;stroke-linejoin:miter;stroke-miterlimit:10;stroke-dasharray:none;stroke-opacity:1" d="m 1460.77,1586.39 c -207.09,77.92 -454.17,23.86 -606.653,-22.43 -2.793,-29.93 16.75,-139.37 16.75,-139.37 l -130.402,-12.71 c 0,0 21.152,69.05 4.805,111.27 C 563.605,1451.7 383.152,1389.18 235.598,1460.1 l -2.149,137.75 c 55.836,-53.7 201.145,-46.19 276.114,-35.53 87.734,17.63 143.566,26.64 227.308,61.07 11.567,51.24 13.055,157.7 13.055,157.7 l 100.371,20.48 c 0,0 5.418,-86.36 -3.356,-140.46 201.789,59.02 452.289,72.45 623.769,-6.66 16.18,-18.79 29.44,-38.6 41.11,-58.4 9.01,-15.3 24.66,-46.75 24.66,-46.75 0,0 -49.91,27.38 -75.71,37.09 z"/><path id="path48" style="fill:#ffffff;fill-opacity:1;fill-rule:nonzero;stroke:none" d="m 1130.29,1219.05 c 0,-157.67 -124.35,-285.472 -277.735,-285.472 -153.383,0 -277.731,127.802 -277.731,285.472 0,157.66 124.348,285.47 277.731,285.47 153.385,0 277.735,-127.81 277.735,-285.47"/><path id="path50" style="fill:none;stroke:#231f20;stroke-width:10;stroke-linecap:butt;stroke-linejoin:miter;stroke-miterlimit:10;stroke-dasharray:none;stroke-opacity:1" d="m 1130.29,1219.05 c 0,-157.67 -124.35,-285.472 -277.735,-285.472 -153.383,0 -277.731,127.802 -277.731,285.472 0,157.66 124.348,285.47 277.731,285.47 153.385,0 277.735,-127.81 277.735,-285.47 z"/><path id="path52" style="fill:#1c63b7;fill-opacity:1;fill-rule:nonzero;stroke:none" d="m 702.578,976.961 315.042,-3.281 c 26.72,18.453 143.57,-180.36 154.34,-295.141 3.58,-41.801 -35.68,-234.859 -117.35,-244.859 l 33.2,-369.5902 C 905.563,7.94141 724.91,14.8984 545.457,78.0195 l 42.672,94.2815 -13.961,7.379 40.68,89.781 -10.774,7.367 40.68,75.832 -12.063,5.469 45.563,85.133 c -63.406,61.476 -76.465,142.707 -100.391,220.597 71.782,92.231 112.356,193 124.317,312.282 l 0.398,0.82"/><path id="path54" style="fill:none;stroke:#231f20;stroke-width:10;stroke-linecap:butt;stroke-linejoin:miter;stroke-miterlimit:10;stroke-dasharray:none;stroke-opacity:1" d="m 702.578,976.961 315.042,-3.281 c 26.72,18.453 143.57,-180.36 154.34,-295.141 3.58,-41.801 -35.68,-234.859 -117.35,-244.859 l 33.2,-369.5902 C 905.563,7.94141 724.91,14.8984 545.457,78.0195 l 42.672,94.2815 -13.961,7.379 40.68,89.781 -10.774,7.367 40.68,75.832 -12.063,5.469 45.563,85.133 c -63.406,61.476 -76.465,142.707 -100.391,220.597 71.782,92.231 112.356,193 124.317,312.282 z"/><path id="path56" style="fill:#fddd04;fill-opacity:1;fill-rule:nonzero;stroke:none" d="m 577.863,663.859 c 46.082,-41.621 112.407,-1.089 129.817,76.153 0,0 -17.942,-3.442 -31.188,-1.09 -16.32,2.898 -31.34,9.719 -31.34,9.719 l -67.289,-84.782"/><path id="path58" style="fill:none;stroke:#231f20;stroke-width:10;stroke-linecap:butt;stroke-linejoin:miter;stroke-miterlimit:10;stroke-dasharray:none;stroke-opacity:1" d="m 577.863,663.859 c 46.082,-41.621 112.407,-1.089 129.817,76.153 0,0 -17.942,-3.442 -31.188,-1.09 -16.32,2.898 -31.34,9.719 -31.34,9.719 z"/><path id="path60" style="fill:#1c63b7;fill-opacity:1;fill-rule:nonzero;stroke:none" d="m 1304.75,1099.93 c -14.87,5.49 -84.21,12.56 -89.16,75.02 -2.5,31.61 24.04,65.32 80.79,68.46 56.75,3.14 117.24,-76.25 175.07,2.05 l 96.13,-6.21 c -63.4,-77.88 -166.32,-97.5 -240.09,-66.35 -30.96,12.86 -56.87,1.73 -58.87,-17.84 -2.66,-25.85 26.51,-47.4 36.13,-55.13"/><path id="path62" style="fill:none;stroke:#231f20;stroke-width:10;stroke-linecap:butt;stroke-linejoin:miter;stroke-miterlimit:10;stroke-dasharray:none;stroke-opacity:1" d="m 1304.75,1099.93 c -14.87,5.49 -84.21,12.56 -89.16,75.02 -2.5,31.61 24.04,65.32 80.79,68.46 56.75,3.14 117.24,-76.25 175.07,2.05 l 96.13,-6.21 c -63.4,-77.88 -166.32,-97.5 -240.09,-66.35 -30.96,12.86 -56.87,1.73 -58.87,-17.84 -2.66,-25.85 26.51,-47.4 36.13,-55.13 z"/><path id="path64" style="fill:#1c63b7;fill-opacity:1;fill-rule:nonzero;stroke:none" d="m 1484.21,1485.25 c 171.48,-4.51 157.53,-351.06 -61.8,-273.18 98.5,71.32 145.55,154.31 61.8,273.18"/><path id="path66" style="fill:none;stroke:#231f20;stroke-width:10;stroke-linecap:butt;stroke-linejoin:miter;stroke-miterlimit:10;stroke-dasharray:none;stroke-opacity:1" d="m 1484.21,1485.25 c 171.48,-4.51 157.53,-351.06 -61.8,-273.18 98.5,71.32 145.55,154.31 61.8,273.18 z"/><path id="path68" style="fill:#1c63b7;fill-opacity:1;fill-rule:nonzero;stroke:none" d="m 879.586,842.102 -1.688,-0.43 c -10.168,0 -21.347,-0.551 -21.347,-15.594 0,-15.039 -0.668,-47.519 -0.668,-47.519 0,0 -11.477,-1.309 -27.524,-1.309 -19.589,0 -17.816,-41.41 -1.89,-41.41 15.926,0 29.195,0 29.195,0 V 715.488 C 812.477,668.051 754.266,626.68 687.789,613.191 l -45.301,-123.16 c 0,0 22.117,-92.179 237.996,-92.179 215.876,0 237.996,92.179 237.996,92.179 l -45.3,123.16 c -66.47,13.489 -124.688,54.86 -167.871,102.297 v 20.352 c 0,0 13.273,0 29.199,0 15.918,0 17.687,41.41 -1.895,41.41 -16.043,0 -27.519,1.309 -27.519,1.309 0,0 -0.672,32.48 -0.672,47.519 0,15.043 -11.184,15.594 -21.348,15.594 l -1.691,0.43 h -1.797"/><path id="path70" style="fill:none;stroke:#231f20;stroke-width:10;stroke-linecap:butt;stroke-linejoin:miter;stroke-miterlimit:10;stroke-dasharray:none;stroke-opacity:1" d="m 879.586,842.102 -1.688,-0.43 c -10.168,0 -21.347,-0.551 -21.347,-15.594 0,-15.039 -0.668,-47.519 -0.668,-47.519 0,0 -11.477,-1.309 -27.524,-1.309 -19.589,0 -17.816,-41.41 -1.89,-41.41 15.926,0 29.195,0 29.195,0 V 715.488 C 812.477,668.051 754.266,626.68 687.789,613.191 l -45.301,-123.16 c 0,0 22.117,-92.179 237.996,-92.179 215.876,0 237.996,92.179 237.996,92.179 l -45.3,123.16 c -66.47,13.489 -124.688,54.86 -167.871,102.297 v 20.352 c 0,0 13.273,0 29.199,0 15.918,0 17.687,41.41 -1.895,41.41 -16.043,0 -27.519,1.309 -27.519,1.309 0,0 -0.672,32.48 -0.672,47.519 0,15.043 -11.184,15.594 -21.348,15.594 l -1.691,0.43 z"/><path id="path72" style="fill:none;stroke:#231f20;stroke-width:10;stroke-linecap:butt;stroke-linejoin:miter;stroke-miterlimit:10;stroke-dasharray:none;stroke-opacity:1" d="M 644.754,352.66 C 808.258,270.68 1049.53,291.59 1089.41,317.012"/><path id="path74" style="fill:none;stroke:#231f20;stroke-width:10;stroke-linecap:butt;stroke-linejoin:miter;stroke-miterlimit:10;stroke-dasharray:none;stroke-opacity:1" d="m 614.848,269.461 c 117.64,-46.742 218.136,-95.109 462.592,-31.16"/><path id="path76" style="fill:none;stroke:#231f20;stroke-width:10;stroke-linecap:butt;stroke-linejoin:miter;stroke-miterlimit:10;stroke-dasharray:none;stroke-opacity:1" d="M 586.93,173.531 C 706.563,130.91 833.383,94.0117 1077.44,145.66"/><path id="path78" style="fill:#1c63b7;fill-opacity:1;fill-rule:nonzero;stroke:none" d="m 698.59,1095.84 -38.285,3.28 -1.196,-94.28 c -70.187,31.56 -114.054,-11.891 -151.539,-73.379 -11.168,-32.789 -42.613,-95.57 -42.613,-95.57 0,0 102.266,-83.422 161.852,-108.969 l 18.343,22.949 c 114.055,-51.652 123.625,83.211 89.727,112.32 43.07,58.2 -28.731,156.629 -32.664,173.169 -3.938,16.52 -3.625,60.48 -3.625,60.48"/><path id="path80" style="fill:none;stroke:#231f20;stroke-width:10;stroke-linecap:butt;stroke-linejoin:miter;stroke-miterlimit:10;stroke-dasharray:none;stroke-opacity:1" d="m 698.59,1095.84 -38.285,3.28 -1.196,-94.28 c -70.187,31.56 -114.054,-11.891 -151.539,-73.379 -11.168,-32.789 -42.613,-95.57 -42.613,-95.57 0,0 102.266,-83.422 161.852,-108.969 l 18.343,22.949 c 114.055,-51.652 123.625,83.211 89.727,112.32 43.07,58.2 -28.731,156.629 -32.664,173.169 -3.938,16.52 -3.625,60.48 -3.625,60.48 z"/><path id="path82" style="fill:#1c63b7;fill-opacity:1;fill-rule:nonzero;stroke:none" d="m 782.336,1108.13 h 113.656 c 36.692,-36.07 72.422,-55.59 117.088,-70.77 C 998.922,953.91 937.32,911 872.027,907.941 802.512,904.68 728.809,946.59 703.723,1032.84 l 78.613,75.29"/><path id="path84" style="fill:none;stroke:#231f20;stroke-width:10;stroke-linecap:butt;stroke-linejoin:miter;stroke-miterlimit:10;stroke-dasharray:none;stroke-opacity:1" d="m 782.336,1108.13 h 113.656 c 36.692,-36.07 72.422,-55.59 117.088,-70.77 C 998.922,953.91 937.32,911 872.027,907.941 802.512,904.68 728.809,946.59 703.723,1032.84 Z"/><path id="path86" style="fill:#1c63b7;fill-opacity:1;fill-rule:nonzero;stroke:none" d="m 1055.91,1101.57 12.36,-50 25.93,-28.7 c 127.6,-8.19 139.17,-86.081 174.26,-159.858 11.57,-13.532 183.05,-259.481 194.21,-296.371 5.59,-18.86 -3.28,-32.879 -10.76,-44.27 -9.97,-9.012 -197.8,-211.512 -239.28,-233.652 -12.36,-6.547 -117.64,-47.547 -113.65,-25.41 5.58,32.382 -9.57,104.929 -49.45,151.261 -15.96,18.442 93.71,-13.539 92.92,-0.41 -1.2,21.309 58.62,54.102 61.01,77.059 4.39,45.09 29.52,100.429 5.58,134.453 C 1187.51,656.82 1090.2,773.238 1090.2,773.238 976.551,731.422 959,840.469 994.488,874.48 c 0,0 -40.242,33.661 -12.617,74.329 27.629,40.671 35.749,93.331 38.949,151.121 l 35.09,1.64"/><path id="path88" style="fill:none;stroke:#231f20;stroke-width:10;stroke-linecap:butt;stroke-linejoin:miter;stroke-miterlimit:10;stroke-dasharray:none;stroke-opacity:1" d="m 1055.91,1101.57 12.36,-50 25.93,-28.7 c 127.6,-8.19 139.17,-86.081 174.26,-159.858 11.57,-13.532 183.05,-259.481 194.21,-296.371 5.59,-18.86 -3.28,-32.879 -10.76,-44.27 -9.97,-9.012 -197.8,-211.512 -239.28,-233.652 -12.36,-6.547 -117.64,-47.547 -113.65,-25.41 5.58,32.382 -9.57,104.929 -49.45,151.261 -15.96,18.442 93.71,-13.539 92.92,-0.41 -1.2,21.309 58.62,54.102 61.01,77.059 4.39,45.09 29.52,100.429 5.58,134.453 C 1187.51,656.82 1090.2,773.238 1090.2,773.238 976.551,731.422 959,840.469 994.488,874.48 c 0,0 -40.242,33.661 -12.617,74.329 27.629,40.671 35.749,93.331 38.949,151.121 z"/><path id="path90" style="fill:#fddd04;fill-opacity:1;fill-rule:nonzero;stroke:none" d="m 1147.69,704.051 c 51.84,51.238 92.72,82.961 150.04,119 l -30.59,41.371 C 1203.02,822.219 1152.88,786.129 1110.2,749.238 l 37.49,-45.187"/><path id="path92" style="fill:none;stroke:#231f20;stroke-width:10;stroke-linecap:butt;stroke-linejoin:miter;stroke-miterlimit:10;stroke-dasharray:none;stroke-opacity:1" d="m 1147.69,704.051 c 51.84,51.238 92.72,82.961 150.04,119 l -30.59,41.371 C 1203.02,822.219 1152.88,786.129 1110.2,749.238 Z"/><path id="path94" style="fill:#fddd04;fill-opacity:1;fill-rule:nonzero;stroke:none" d="m 1147.69,704.051 26.95,-34.242 c 41.07,35.261 105.31,89.312 151.97,111.453 l -28.88,41.789 c 0,0 -56.98,-38.371 -78.91,-55.571 -21.95,-17.21 -71.13,-63.429 -71.13,-63.429"/><path id="path96" style="fill:none;stroke:#231f20;stroke-width:10;stroke-linecap:butt;stroke-linejoin:miter;stroke-miterlimit:10;stroke-dasharray:none;stroke-opacity:1" d="m 1147.69,704.051 26.95,-34.242 c 41.07,35.261 105.31,89.312 151.97,111.453 l -28.88,41.789 c 0,0 -56.98,-38.371 -78.91,-55.571 -21.95,-17.21 -71.13,-63.429 -71.13,-63.429 z"/><path id="path98" style="fill:#fddd04;fill-opacity:1;fill-rule:nonzero;stroke:none" d="m 1376.42,707.57 c -40.87,-29.679 -113.4,-72.871 -113.4,-72.871 l 28.97,-39.769 c 33.67,12.949 73.95,35.48 110.04,73.769 l -25.61,38.871"/><path id="path100" style="fill:none;stroke:#231f20;stroke-width:10;stroke-linecap:butt;stroke-linejoin:miter;stroke-miterlimit:10;stroke-dasharray:none;stroke-opacity:1" d="m 1376.42,707.57 c -40.87,-29.679 -113.4,-72.871 -113.4,-72.871 l 28.97,-39.769 c 33.67,12.949 73.95,35.48 110.04,73.769 z"/><path id="path102" style="fill:#fddd04;fill-opacity:1;fill-rule:nonzero;stroke:none" d="m 1299.61,525.488 102.53,-55.078 -40.72,-42.012 c -29.5,27.872 -59.86,47.653 -86.97,58.723 l 25.16,38.367"/><path id="path104" style="fill:none;stroke:#231f20;stroke-width:10;stroke-linecap:butt;stroke-linejoin:miter;stroke-miterlimit:10;stroke-dasharray:none;stroke-opacity:1" d="m 1299.61,525.488 102.53,-55.078 -40.72,-42.012 c -29.5,27.872 -59.86,47.653 -86.97,58.723 z"/><path id="path106" style="fill:#fddd04;fill-opacity:1;fill-rule:nonzero;stroke:none" d="m 1067.11,1054.3 27.09,-31.43 c -14.37,-56.972 -43.87,-101.659 -71.39,-147.569 -8.38,15.988 -22.33,30.34 -20.74,49.187 40.28,48.782 65.04,129.812 65.04,129.812"/><path id="path108" style="fill:none;stroke:#231f20;stroke-width:10;stroke-linecap:butt;stroke-linejoin:miter;stroke-miterlimit:10;stroke-dasharray:none;stroke-opacity:1" d="m 1067.11,1054.3 27.09,-31.43 c -14.37,-56.972 -43.87,-101.659 -71.39,-147.569 -8.38,15.988 -22.33,30.34 -20.74,49.187 40.28,48.782 65.04,129.812 65.04,129.812 z"/><path id="path110" style="fill:#fddd04;fill-opacity:1;fill-rule:nonzero;stroke:none" d="m 659.711,1048.29 c 15.949,-48.364 24.125,-98.38 56.027,-145.11 0.797,-17.629 -5.183,-28.7 -15.55,-35.25 -34.297,34.84 -57.368,87.531 -78.106,147.37 l 37.629,32.99"/><path id="path112" style="fill:none;stroke:#231f20;stroke-width:10;stroke-linecap:butt;stroke-linejoin:miter;stroke-miterlimit:10;stroke-dasharray:none;stroke-opacity:1" d="m 659.711,1048.29 c 15.949,-48.364 24.125,-98.38 56.027,-145.11 0.797,-17.629 -5.183,-28.7 -15.55,-35.25 -34.297,34.84 -57.368,87.531 -78.106,147.37 z"/><path id="path114" style="fill:#fddd04;fill-opacity:1;fill-rule:nonzero;stroke:none" d="m 742.457,1067.14 c 85.738,-96.331 174.27,-61.48 211.359,-4.1 l 39.481,-20.08 c -19.52,-40.86 -73.301,-78.991 -123.809,-79.659 -76.586,-1 -132.508,35.773 -155.347,75.559 l 28.316,28.28"/><path id="path116" style="fill:none;stroke:#231f20;stroke-width:10;stroke-linecap:butt;stroke-linejoin:miter;stroke-miterlimit:10;stroke-dasharray:none;stroke-opacity:1" d="m 742.457,1067.14 c 85.738,-96.331 174.27,-61.48 211.359,-4.1 l 39.481,-20.08 c -19.52,-40.86 -73.301,-78.991 -123.809,-79.659 -76.586,-1 -132.508,35.773 -155.347,75.559 z"/><path id="path118" style="fill:#fddd04;fill-opacity:1;fill-rule:nonzero;stroke:none" d="m 1090.2,773.238 71.88,-87.828 c -20.34,-25.41 -97.8,-16.699 -108.97,78.399 l 37.09,9.429"/><path id="path120" style="fill:none;stroke:#231f20;stroke-width:10;stroke-linecap:butt;stroke-linejoin:miter;stroke-miterlimit:10;stroke-dasharray:none;stroke-opacity:1" d="m 1090.2,773.238 71.88,-87.828 c -20.34,-25.41 -97.8,-16.699 -108.97,78.399 z"/><path id="path122" style="fill:#fddd04;fill-opacity:1;fill-rule:nonzero;stroke:none" d="m 443.359,755.609 c 42.672,-35.66 90.489,-72.347 144.723,-99.82 l 18.055,34.102 -141.239,99.75 -21.539,-34.032"/><path id="path124" style="fill:none;stroke:#231f20;stroke-width:10;stroke-linecap:butt;stroke-linejoin:miter;stroke-miterlimit:10;stroke-dasharray:none;stroke-opacity:1" d="m 443.359,755.609 c 42.672,-35.66 90.489,-72.347 144.723,-99.82 l 18.055,34.102 -141.239,99.75 z"/><path id="path126" style="fill:#fddd04;fill-opacity:1;fill-rule:nonzero;stroke:none" d="m 483.242,821.199 -18.152,-30.058 141.047,-101.25 20.672,37.031 c -10.766,5.316 -25.524,11.476 -35.493,17.207 -43.867,25.422 -79.363,53.293 -107.675,77.07 h -0.399"/><path id="path128" style="fill:none;stroke:#231f20;stroke-width:10;stroke-linecap:butt;stroke-linejoin:miter;stroke-miterlimit:10;stroke-dasharray:none;stroke-opacity:1" d="m 483.242,821.199 -18.152,-30.058 141.047,-101.25 20.672,37.031 c -10.766,5.316 -25.524,11.476 -35.493,17.207 -43.867,25.422 -79.363,53.293 -107.675,77.07 z"/><path id="path130" style="fill:#fddd04;fill-opacity:1;fill-rule:nonzero;stroke:none" d="m 523.668,541.301 -34.5,-54.211 c -1.992,117.629 -51.441,144.691 -85.738,193.058 0,0 124.226,-89.66 120.238,-138.847"/><path id="path132" style="fill:none;stroke:#231f20;stroke-width:10;stroke-linecap:butt;stroke-linejoin:miter;stroke-miterlimit:10;stroke-dasharray:none;stroke-opacity:1" d="m 523.668,541.301 -34.5,-54.211 c -1.992,117.629 -51.441,144.691 -85.738,193.058 0,0 124.226,-89.66 120.238,-138.847 z"/><path id="path134" style="fill:#231f20;fill-opacity:1;fill-rule:nonzero;stroke:none" d="m 634.781,858.09 -14.754,-24.192 13.164,-25.41 1.59,16.403 10.371,27.05 -10.371,6.149"/><path id="path136" style="fill:#231f20;fill-opacity:1;fill-rule:nonzero;stroke:none" d="m 645.938,83.0703 15.617,23.6487 -12.239,25.871 -2.179,-16.328 -11.34,-26.6604 10.141,-6.5313"/><path id="path138" style="fill:#231f20;fill-opacity:1;fill-rule:nonzero;stroke:none" d="m 663.309,177.52 15.613,23.628 -12.234,25.883 -2.184,-16.332 -11.34,-26.668 10.145,-6.511"/><path id="path140" style="fill:#231f20;fill-opacity:1;fill-rule:nonzero;stroke:none" d="m 676.336,270.879 15.613,23.633 -12.234,25.867 -2.184,-16.328 -11.34,-26.66 10.145,-6.512"/><path id="path142" style="fill:#231f20;fill-opacity:1;fill-rule:nonzero;stroke:none" d="m 691.531,359.891 15.617,23.629 -12.234,25.878 -2.187,-16.328 -11.34,-26.672 10.144,-6.507"/><path id="path144" style="fill:#231f20;fill-opacity:1;fill-rule:nonzero;stroke:none" d="m 1078.53,861.941 10.37,-27.05 1.59,-16.403 13.17,25.41 -14.76,24.192 -10.37,-6.149"/><path id="path146" style="fill:#fddd04;fill-opacity:1;fill-rule:nonzero;stroke:none" d="m 309.738,1047.47 -1.593,52.35 c 0,0 20.695,6.72 37.046,-5.58 -1.593,-24.19 -12.218,-36.08 -27.773,-48.37 7.578,-4.1 12.656,-41.44 1.488,-43.49 13.164,-15.579 7.981,-38.95 1.199,-42.22 11.965,-6.148 7.977,-44.68 2.793,-40.988 8.774,-5.332 2.391,-39.363 -6.777,-40.582 l -49.851,2.449 c -19.145,4.922 -22.332,36.082 -14.754,39.352 -9.176,5.328 -16.352,27.879 -11.168,36.898 -2.391,17.211 -19.141,31.973 3.59,48.781 -10.372,4.91 -9.571,40.58 0.796,40.99 l 65.004,0.41"/><path id="path148" style="fill:none;stroke:#231f20;stroke-width:10;stroke-linecap:butt;stroke-linejoin:miter;stroke-miterlimit:10;stroke-dasharray:none;stroke-opacity:1" d="m 309.738,1047.47 -1.593,52.35 c 0,0 20.695,6.72 37.046,-5.58 -1.593,-24.19 -12.218,-36.08 -27.773,-48.37 7.578,-4.1 12.656,-41.44 1.488,-43.49 13.164,-15.579 7.981,-38.95 1.199,-42.22 11.965,-6.148 7.977,-44.68 2.793,-40.988 8.774,-5.332 2.391,-39.363 -6.777,-40.582 l -49.851,2.449 c -19.145,4.922 -22.332,36.082 -14.754,39.352 -9.176,5.328 -16.352,27.879 -11.168,36.898 -2.391,17.211 -19.141,31.973 3.59,48.781 -10.372,4.91 -9.571,40.58 0.796,40.99 z"/><path id="path150" style="fill:none;stroke:#231f20;stroke-width:10;stroke-linecap:butt;stroke-linejoin:miter;stroke-miterlimit:10;stroke-dasharray:none;stroke-opacity:1" d="m 242.566,1005.65 77.106,-0.88"/><path id="path152" style="fill:none;stroke:#231f20;stroke-width:10;stroke-linecap:butt;stroke-linejoin:miter;stroke-miterlimit:10;stroke-dasharray:none;stroke-opacity:1" d="m 241.688,957.02 78.863,1.75"/><path id="path154" style="fill:none;stroke:#231f20;stroke-width:10;stroke-linecap:butt;stroke-linejoin:miter;stroke-miterlimit:10;stroke-dasharray:none;stroke-opacity:1" d="m 251.516,920.391 75.164,-1.93"/><path id="path156" style="fill:#ffffff;fill-opacity:1;fill-rule:nonzero;stroke:none" d="m 1015.57,176.621 36.36,-138.6991 118.43,29.1875 -42.34,145.2616 -112.45,-35.75"/><path id="path158" style="fill:none;stroke:#231f20;stroke-width:10;stroke-linecap:butt;stroke-linejoin:miter;stroke-miterlimit:10;stroke-dasharray:none;stroke-opacity:1" d="m 1015.57,176.621 36.36,-138.6991 118.43,29.1875 -42.34,145.2616 z"/><path id="path160" style="fill:none;stroke:#231f20;stroke-width:10;stroke-linecap:butt;stroke-linejoin:miter;stroke-miterlimit:10;stroke-dasharray:none;stroke-opacity:1" d="m 1026.6,140.93 62.33,-1.989 47.66,34.278"/><path id="path162" style="fill:#fddd04;fill-opacity:1;fill-rule:nonzero;stroke:none" d="m 1088.93,138.941 23.18,-86.9293"/><path id="path164" style="fill:none;stroke:#231f20;stroke-width:10;stroke-linecap:butt;stroke-linejoin:miter;stroke-miterlimit:10;stroke-dasharray:none;stroke-opacity:1" d="m 1088.93,138.941 23.18,-86.9293"/><path id="path166" style="fill:#fddd04;fill-opacity:1;fill-rule:nonzero;stroke:none" d="m 1031.61,218.629 c -20.73,2.043 -39.473,37.711 -11.56,44.269 -34.702,-0.41 -30.706,30.743 -11.17,36.891 -30.708,0.41 -35.896,29.922 -12.36,40.992 -35.497,1.641 -19.207,43.801 -2.489,49.828 l 55.929,12.063 c 43.87,4.918 62.2,-139.363 49.84,-147.57 -14.35,-20.481 -43.47,-25.411 -67.79,-35.243 l -0.4,-1.23"/><path id="path168" style="fill:none;stroke:#231f20;stroke-width:10;stroke-linecap:butt;stroke-linejoin:miter;stroke-miterlimit:10;stroke-dasharray:none;stroke-opacity:1" d="m 1031.61,218.629 c -20.73,2.043 -39.473,37.711 -11.56,44.269 -34.702,-0.41 -30.706,30.743 -11.17,36.891 -30.708,0.41 -35.896,29.922 -12.36,40.992 -35.497,1.641 -19.207,43.801 -2.489,49.828 l 55.929,12.063 c 43.87,4.918 62.2,-139.363 49.84,-147.57 -14.35,-20.481 -43.47,-25.411 -67.79,-35.243 z"/><path id="path170" style="fill:#fddd04;fill-opacity:1;fill-rule:nonzero;stroke:none" d="m 993.883,390.34 c -73.934,98.422 99.537,134.488 67.397,15.172 L 993.883,390.34"/><path id="path172" style="fill:none;stroke:#231f20;stroke-width:10;stroke-linecap:butt;stroke-linejoin:miter;stroke-miterlimit:10;stroke-dasharray:none;stroke-opacity:1" d="m 993.883,390.34 c -73.934,98.422 99.537,134.488 67.397,15.172 z"/><path id="path174" style="fill:#fddd04;fill-opacity:1;fill-rule:nonzero;stroke:none" d="m 993.57,339.98 52,14.731"/><path id="path176" style="fill:none;stroke:#231f20;stroke-width:10;stroke-linecap:butt;stroke-linejoin:miter;stroke-miterlimit:10;stroke-dasharray:none;stroke-opacity:1" d="m 993.57,339.98 52,14.731"/><path id="path178" style="fill:#fddd04;fill-opacity:1;fill-rule:nonzero;stroke:none" d="m 1008.88,299.789 50.25,11.891"/><path id="path180" style="fill:none;stroke:#231f20;stroke-width:10;stroke-linecap:butt;stroke-linejoin:miter;stroke-miterlimit:10;stroke-dasharray:none;stroke-opacity:1" d="m 1008.88,299.789 50.25,11.891"/><path id="path182" style="fill:#fddd04;fill-opacity:1;fill-rule:nonzero;stroke:none" d="m 1020.05,262.898 42.67,10.243"/><path id="path184" style="fill:none;stroke:#231f20;stroke-width:10;stroke-linecap:butt;stroke-linejoin:miter;stroke-miterlimit:10;stroke-dasharray:none;stroke-opacity:1" d="m 1020.05,262.898 42.67,10.243"/><path id="path186" style="fill:#fddd04;fill-opacity:1;fill-rule:nonzero;stroke:none" d="m 909.051,161.59 c 66.25,26.898 -18.508,101.629 -35.637,16.64 -8.789,-42.679 22.473,-89.7495 82.434,-46.32 18.23,13.328 148.792,104.602 254.482,70.129 33.94,-11.051 62.91,35.191 47.51,68.199 -24.71,54.071 -88.32,1.203 -36.64,-24.976 -7.03,-29.262 -69.43,22.707 -99.45,8.437 -42.38,-19.679 -94.32,-29.437 -138.98,-48 -13.153,-5.301 -60.204,-82.258 -73.145,-45.84 l -0.574,1.731"/><path id="path188" style="fill:none;stroke:#231f20;stroke-width:10;stroke-linecap:butt;stroke-linejoin:miter;stroke-miterlimit:10;stroke-dasharray:none;stroke-opacity:1" d="m 909.051,161.59 c 66.25,26.898 -18.508,101.629 -35.637,16.64 -8.789,-42.679 22.473,-89.7495 82.434,-46.32 18.23,13.328 148.792,104.602 254.482,70.129 33.94,-11.051 62.91,35.191 47.51,68.199 -24.71,54.071 -88.32,1.203 -36.64,-24.976 -7.03,-29.262 -69.43,22.707 -99.45,8.437 -42.38,-19.679 -94.32,-29.437 -138.98,-48 -13.153,-5.301 -60.204,-82.258 -73.145,-45.84 z"/><path id="path190" style="fill:none;stroke:#231f20;stroke-width:10;stroke-linecap:butt;stroke-linejoin:miter;stroke-miterlimit:10;stroke-dasharray:none;stroke-opacity:1" d="m 1089.96,417.102 c 19.14,-43.461 47.7,-67.301 44.11,-140.274"/><path id="path192" style="fill:none;stroke:#231f20;stroke-width:10;stroke-linecap:butt;stroke-linejoin:miter;stroke-miterlimit:10;stroke-dasharray:none;stroke-opacity:1" d="m 1122.95,412.449 c 19.94,-34.027 40.63,-59.379 45.82,-130.277"/><path id="path194" style="fill:none;stroke:#231f20;stroke-width:10;stroke-linecap:butt;stroke-linejoin:miter;stroke-miterlimit:10;stroke-dasharray:none;stroke-opacity:1" d="m 1141.06,412.922 c 27.52,-20.5 51.23,-36.891 74.37,-99.192"/><path id="path196" style="fill:none;stroke:#231f20;stroke-width:10;stroke-linecap:butt;stroke-linejoin:miter;stroke-miterlimit:10;stroke-dasharray:none;stroke-opacity:1" d="m 842.535,119.77 c -2.39,-30.7387 -5.566,-64.6919 4.406,-95.4419"/><path id="path198" style="fill:none;stroke:#231f20;stroke-width:10;stroke-linecap:butt;stroke-linejoin:miter;stroke-miterlimit:10;stroke-dasharray:none;stroke-opacity:1" d="M 814.238,120.25 C 808.66,86.6406 803.074,53.4297 806.66,28.0117"/><path id="path200" style="fill:none;stroke:#231f20;stroke-width:10;stroke-linecap:butt;stroke-linejoin:miter;stroke-miterlimit:10;stroke-dasharray:none;stroke-opacity:1" d="M 810.352,120.59 C 789.223,92.3086 773.563,56.7188 769.578,23.9219"/><path id="path202" style="fill:none;stroke:#231f20;stroke-width:10;stroke-linecap:butt;stroke-linejoin:miter;stroke-miterlimit:10;stroke-dasharray:none;stroke-opacity:1" d="m 885.164,24.3281 c 9.969,30.75 6.797,64.7032 4.402,95.4419"/><path id="path204" style="fill:none;stroke:#231f20;stroke-width:10;stroke-linecap:butt;stroke-linejoin:miter;stroke-miterlimit:10;stroke-dasharray:none;stroke-opacity:1" d="m 925.438,28.0117 c 3.593,25.418 -1.993,58.6289 -7.579,92.2383"/><path id="path206" style="fill:none;stroke:#231f20;stroke-width:10;stroke-linecap:butt;stroke-linejoin:miter;stroke-miterlimit:10;stroke-dasharray:none;stroke-opacity:1" d="M 962.527,23.9219 C 958.543,56.7188 942.879,92.3086 921.746,120.59"/><path id="path208" style="fill:#fddd04;fill-opacity:1;fill-rule:nonzero;stroke:none" d="m 992.125,586.922 -93.445,-14.231 14.226,93.45 H 844.57 l 14.231,-93.45 -93.449,14.231 v -68.344 l 93.449,14.242 -14.231,-93.449 h 68.336 l -14.226,93.449 93.445,-14.242 v 68.344"/><path id="path210" style="fill:none;stroke:#231f20;stroke-width:10;stroke-linecap:butt;stroke-linejoin:miter;stroke-miterlimit:10;stroke-dasharray:none;stroke-opacity:1" d="m 992.125,586.922 -93.445,-14.231 14.226,93.45 H 844.57 l 14.231,-93.45 -93.449,14.231 v -68.344 l 93.449,14.242 -14.231,-93.449 h 68.336 l -14.226,93.449 93.445,-14.242 z"/><path id="path212" style="fill:#fddd04;fill-opacity:1;fill-rule:nonzero;stroke:none" d="m 392.77,457.801 c 56.632,68.461 45.41,156.39 4.734,232.23 31.902,-48.371 92.781,-82.261 102.351,-188.84 l -49.71,-68.589 -57.375,25.199"/><path id="path214" style="fill:none;stroke:#231f20;stroke-width:10;stroke-linecap:butt;stroke-linejoin:miter;stroke-miterlimit:10;stroke-dasharray:none;stroke-opacity:1" d="m 392.77,457.801 c 56.632,68.461 45.41,156.39 4.734,232.23 31.902,-48.371 92.781,-82.261 102.351,-188.84 l -49.71,-68.589 z"/><path id="path216" style="fill:#ed1c24;fill-opacity:1;fill-rule:nonzero;stroke:none" d="m 850.441,1026.28 c -68.41,1.03 -92.808,56.93 -92.808,56.93 l 26.972,25.47 c 0.524,-1.11 24.735,-42.48 63.911,-42.38 40.523,0.09 63.043,37.2 63.199,37.54 l 27.805,-30.2 c 0,0 -14.778,-47.36 -89.079,-47.36"/><path id="path218" style="fill:none;stroke:#231f20;stroke-width:10;stroke-linecap:butt;stroke-linejoin:miter;stroke-miterlimit:10;stroke-dasharray:none;stroke-opacity:1" d="m 850.441,1026.28 c -68.41,1.03 -92.808,56.93 -92.808,56.93 l 26.972,25.47 c 0.524,-1.11 24.735,-42.48 63.911,-42.38 40.523,0.09 63.043,37.2 63.199,37.54 l 27.805,-30.2 c 0,0 -14.778,-47.36 -89.079,-47.36 z"/><path id="path220" style="fill:#1c63b7;fill-opacity:1;fill-rule:nonzero;stroke:none" d="m 1232.9,556.07 c -85.74,-21.73 -12.69,-111.988 43.14,-64.441 9.57,7.781 24.87,33.199 24.87,33.199 l 101.23,-54.418 c 22.63,26.988 62.91,54.852 62.65,85.488 -0.21,25.313 -62.76,112.801 -62.76,112.801 L 1291.99,594.93 c 0,0 -6.19,18.5 -18.96,31.73 -12.76,13.231 -47.93,15.34 -57.66,3.25 -31.54,-39.172 18,-62.449 18,-62.449 z m 71.85,6.891 159.12,-3.699"/><path id="path222" style="fill:none;stroke:#231f20;stroke-width:10;stroke-linecap:butt;stroke-linejoin:miter;stroke-miterlimit:10;stroke-dasharray:none;stroke-opacity:1" d="m 1232.9,556.07 c -85.74,-21.73 -12.69,-111.988 43.14,-64.441 9.57,7.781 24.87,33.199 24.87,33.199 l 101.23,-54.418 c 22.63,26.988 62.91,54.852 62.65,85.488 -0.21,25.313 -62.76,112.801 -62.76,112.801 L 1291.99,594.93 c 0,0 -6.19,18.5 -18.96,31.73 -12.76,13.231 -47.93,15.34 -57.66,3.25 -31.54,-39.172 18,-62.449 18,-62.449 z m 71.85,6.891 159.12,-3.699"/><path id="path224" style="fill:#231f20;fill-opacity:1;fill-rule:evenodd;stroke:none" d="m 1027.76,1294.05 c -17.35,87.48 -127.537,149.41 -180.729,151.53 v 0.2 c -0.453,0 -0.98,-0.09 -1.437,-0.1 -0.461,0.01 -0.992,0.1 -1.446,0.1 l -0.007,-0.2 c -53.016,-2.13 -158.18,-64.06 -175.532,-151.53 -17.648,-89.03 15.696,-156.25 76.496,-170.78 h 88.481 17.43 88.484 c 72.57,14.53 105.91,81.75 88.26,170.78"/><path id="path226" style="fill:#fddd04;fill-opacity:1;fill-rule:evenodd;stroke:none" d="m 850.488,1045.15 h -12 c -94.722,54.5 -97.246,94.92 -102.519,165.33 -5.211,69.49 14.867,112.63 14.867,112.63 0,0 54.078,20.18 99.652,20.36 45.582,-0.18 99.657,-20.36 99.657,-20.36 0,0 20.078,-43.14 14.871,-112.63 -5.274,-70.41 -7.801,-110.83 -102.52,-165.33 h -12.008"/><path id="path228" style="fill:none;stroke:#231f20;stroke-width:10;stroke-linecap:butt;stroke-linejoin:miter;stroke-miterlimit:10;stroke-dasharray:none;stroke-opacity:1" d="m 850.488,1045.15 h -12 c -94.722,54.5 -97.246,94.92 -102.519,165.33 -5.211,69.49 14.867,112.63 14.867,112.63 0,0 54.078,20.18 99.652,20.36 45.582,-0.18 99.657,-20.36 99.657,-20.36 0,0 20.078,-43.14 14.871,-112.63 -5.274,-70.41 -7.801,-110.83 -102.52,-165.33 z"/><path id="path230" style="fill:#fddd04;fill-opacity:1;fill-rule:evenodd;stroke:none" d="M 862.496,1091.93 H 843.504"/><path id="path232" style="fill:none;stroke:#231f20;stroke-width:10;stroke-linecap:butt;stroke-linejoin:miter;stroke-miterlimit:10;stroke-dasharray:none;stroke-opacity:1" d="M 862.496,1091.93 H 843.504"/><path id="path234" style="fill:#ffffff;fill-opacity:1;fill-rule:evenodd;stroke:none" d="m 941.266,1242.48 c 0,-12.24 -15.086,-22.16 -33.692,-22.16 -18.601,0 -33.679,9.92 -33.679,22.16 0,12.24 15.078,22.16 33.679,22.16 18.606,0 33.692,-9.92 33.692,-22.16"/><path id="path236" style="fill:#231f20;fill-opacity:1;fill-rule:evenodd;stroke:none" d="m 924.617,1248.46 c 0,-9.01 -7.472,-16.32 -16.699,-16.32 -9.219,0 -16.691,7.31 -16.691,16.32 0,9.02 7.472,16.33 16.691,16.33 9.227,0 16.699,-7.31 16.699,-16.33"/><path id="path238" style="fill:none;stroke:#231f20;stroke-width:10;stroke-linecap:butt;stroke-linejoin:miter;stroke-miterlimit:10;stroke-dasharray:none;stroke-opacity:1" d="m 823.859,1177.78 c 0,0 2.016,-18.53 26.629,-19.65 24.617,1.12 26.637,19.65 26.637,19.65"/><path id="path240" style="fill:#fddd04;fill-opacity:1;fill-rule:evenodd;stroke:none" d="m 809.445,1119.14 5.664,6.72 35.379,-2.92 35.387,2.92 5.664,-6.72"/><path id="path242" style="fill:none;stroke:#231f20;stroke-width:10;stroke-linecap:butt;stroke-linejoin:miter;stroke-miterlimit:10;stroke-dasharray:none;stroke-opacity:1" d="m 809.445,1119.14 5.664,6.72 35.379,-2.92 35.387,2.92 5.664,-6.72"/><path id="path244" style="fill:#fddd04;fill-opacity:1;fill-rule:evenodd;stroke:none" d="M 838.488,1091.93 H 857.48"/><path id="path246" style="fill:none;stroke:#231f20;stroke-width:10;stroke-linecap:butt;stroke-linejoin:miter;stroke-miterlimit:10;stroke-dasharray:none;stroke-opacity:1" d="M 838.488,1091.93 H 857.48"/><path id="path248" style="fill:#ffffff;fill-opacity:1;fill-rule:evenodd;stroke:none" d="m 759.723,1242.48 c 0,-12.24 15.078,-22.16 33.687,-22.16 18.602,0 33.684,9.92 33.684,22.16 0,12.24 -15.082,22.16 -33.684,22.16 -18.609,0 -33.687,-9.92 -33.687,-22.16"/><path id="path250" style="fill:#231f20;fill-opacity:1;fill-rule:evenodd;stroke:none" d="m 776.363,1248.46 c 0,-9.01 7.477,-16.32 16.7,-16.32 9.222,0 16.699,7.31 16.699,16.32 0,9.02 -7.477,16.33 -16.699,16.33 -9.223,0 -16.7,-7.31 -16.7,-16.33"/><path id="path252" style="fill:#fddd04;fill-opacity:1;fill-rule:nonzero;stroke:none" d="m 867.625,1425.84 c 14.238,-18.26 10.234,-40 11.563,-60.86 4.89,-17.82 26.687,-7.83 23.125,0 8.007,39.12 -12.454,51.29 -34.688,60.86"/><path id="path254" style="fill:#fddd04;fill-opacity:1;fill-rule:nonzero;stroke:none" d="m 940.602,1395.34 c 5.382,-23.03 8.566,-43.13 6.398,-58.51 -1.34,-21.92 20.984,-3 19.883,1.9 16.551,28.05 -9.395,49.66 -26.145,56.28"/><path id="path256" style="fill:#fddd04;fill-opacity:1;fill-rule:nonzero;stroke:none" d="m 1008.66,1282.85 c 4,-22.1 20.13,-46.56 -9.316,-71.16 -21.992,-9.67 -26.828,-3.95 -18.977,13.85 12.305,7.82 21.913,32.65 28.293,57.31"/><path id="path258" style="fill:#fddd04;fill-opacity:1;fill-rule:nonzero;stroke:none" d="m 797.867,1420.05 c -22.234,-9.57 -42.695,-21.73 -34.687,-60.86 -3.559,-7.82 18.234,-17.82 23.125,0 1.332,20.87 -2.668,42.6 11.562,60.86"/><path id="path260" style="fill:#fddd04;fill-opacity:1;fill-rule:nonzero;stroke:none" d="m 726.063,1354.69 c -16.739,-6.62 -42.692,-28.22 -26.137,-56.28 -1.106,-4.89 21.219,-23.81 19.879,-1.89 -2.172,15.38 1.011,35.47 6.394,58.5"/><path id="path262" style="fill:#fddd04;fill-opacity:1;fill-rule:nonzero;stroke:none" d="m 691.637,1260.12 c 6.379,-24.66 15.992,-49.5 28.297,-57.3 7.851,-17.81 3.015,-23.54 -18.973,-13.86 -29.449,24.6 -13.328,49.06 -9.324,71.16"/><path id="path264" style="fill:none;stroke:#231f20;stroke-width:10;stroke-linecap:butt;stroke-linejoin:miter;stroke-miterlimit:10;stroke-dasharray:none;stroke-opacity:1" d="m 965.563,1245.9 c -14.559,21.78 -91.668,18.74 -91.668,18.74 v -64.58"/><path id="path266" style="fill:none;stroke:#231f20;stroke-width:10;stroke-linecap:butt;stroke-linejoin:miter;stroke-miterlimit:10;stroke-dasharray:none;stroke-opacity:1" d="m 735.418,1245.9 c 14.559,21.78 91.676,18.74 91.676,18.74 v -64.58"/><path id="path268" style="fill:#231f20;fill-opacity:1;fill-rule:nonzero;stroke:none" d="M 1700.79,1984.25 H 0 V 850.391 C 0,380.73 380.734,0 850.391,0 1320.06,0 1700.79,380.73 1700.79,850.391 V 1984.25 Z m -35,-35 V 850.391 C 1665.79,400.781 1300.01,35 850.391,35 400.781,35 35,400.781 35,850.391 V 1949.25 h 1630.79"/></g></g></svg>