<?xml version="1.0" encoding="UTF-8"?>
<svg width="600" height="700" xmlns="http://www.w3.org/2000/svg">
 <path d="M593.99 350.04H6.01v50.514a294 295.16 0 0 0 587.98 0z" fill="#fddd04"/>
 <path d="M6.008 6.008v344.03h587.98V6.008z" fill="#1c63b7" stroke="#231f20" stroke-width="3.5"/>
 <path d="m287.29 82.459 12.708-58.474 12.708 58.474 27.409-53.193-2.86 59.772 40.246-44.285-18.232 56.992 50.331-32.36-32.36 50.334 56.995-18.235-44.285 40.245 59.768-2.86-53.192 27.41 58.474 12.707-58.474 12.707 53.192 27.411-59.768-2.86 44.285 40.245-56.995-18.232 32.36 50.331-50.33-32.36 18.23 56.995-40.244-44.288 2.859 59.771-27.41-53.192-12.707 58.473-12.708-58.473-27.409 53.192 2.86-59.771-40.242 44.288 18.232-56.996-50.335 32.361 32.359-50.331-56.992 18.232 44.285-40.246-59.772 2.858 53.193-27.408-58.474-12.707 58.474-12.707-53.193-27.41 59.772 2.86-44.285-40.245 56.992 18.235-32.36-50.334 50.336 32.36-18.232-56.992 40.241 44.285-2.859-59.772 27.41 53.193" fill="#fddd04"/>
 <path d="m287.29 82.459 12.708-58.474 12.708 58.474 27.409-53.193-2.86 59.772 40.246-44.285-18.232 56.992 50.331-32.36-32.36 50.334 56.995-18.235-44.285 40.245 59.768-2.86-53.192 27.41 58.474 12.707-58.474 12.707 53.192 27.411-59.768-2.86 44.285 40.245-56.995-18.232 32.36 50.331-50.33-32.36 18.23 56.995-40.244-44.288 2.859 59.771-27.41-53.192-12.707 58.473-12.708-58.473-27.409 53.192 2.86-59.771-40.242 44.288 18.232-56.996-50.335 32.361 32.359-50.331-56.992 18.232 44.285-40.246-59.772 2.858 53.193-27.408-58.474-12.707 58.474-12.707-53.193-27.41 59.772 2.86-44.285-40.245 56.992 18.235-32.36-50.334 50.336 32.36-18.232-56.992 40.241 44.285-2.859-59.772z" fill="none" stroke="#231f20" stroke-width="3.5"/>
 <path d="m381.46 178.98c0 44.996-36.474 81.47-81.471 81.47-44.994 0-81.471-36.474-81.471-81.47s36.477-81.472 81.471-81.472c44.997 0 81.471 36.474 81.471 81.471" fill="#fff"/>
 <path d="m368.44 192.21c-7.306 37.794-43.868 62.51-81.665 55.203-37.796-7.31-62.512-43.871-55.206-81.665 7.308-37.796 43.872-62.516 81.668-55.206 37.797 7.306 62.51 43.868 55.203 81.668" fill="#fddd04"/>
 <path d="m184.36 445.59 59.171-38.369-2.267 41.441z" fill="#1c63b7"/>
 <path d="m184.36 445.59 59.171-38.369-2.267 41.441z" fill="none" stroke="#231f20" stroke-width="3.5"/>
 <path d="m393.38 427.95-87.165 23.796 81.612 19.003s-1.108-32.223 5.553-42.8" fill="#1c63b7"/>
 <path d="m393.38 427.95-87.165 23.796 81.612 19.003s-1.108-32.223 5.553-42.8z" fill="none" stroke="#231f20" stroke-width="3.5"/>
 <path d="m429.47 474.1 103.54-29.728s-36.36 43.706-7.771 91.215l-92.164-22.639-3.606-38.848" fill="#1c63b7"/>
 <path d="m429.47 474.1 103.54-29.728s-36.36 43.706-7.771 91.215l-92.164-22.639z" fill="none" stroke="#231f20" stroke-width="3.5"/>
 <path d="m435.86 494.04c0 4.892-3.944 8.86-8.806 8.86s-8.802-3.968-8.802-8.86c0-4.894 3.941-8.863 8.802-8.863s8.806 3.97 8.806 8.863" fill="#ed1c24"/>
 <path d="m237.38 539.5-3.61 37.73-72.454-43.04z" fill="#1c63b7"/>
 <path d="m237.38 539.5-3.61 37.73-72.454-43.04z" fill="none" stroke="#231f20" stroke-width="3.5"/>
 <path d="m384.78 520.5v37.448l-81.612-18.727z" fill="#1c63b7"/>
 <path d="m384.78 520.5v37.448l-81.612-18.727z" fill="none" stroke="#231f20" stroke-width="3.5"/>
 <path d="m274.3 543.41c-81.615 4.47-174.18-11.12-199.58-31.52 0 0-13.518-4.505-7.558-15.692 0 0 16.711-42.221 117.2-50.607 0 0 73.568-8.943 233.18 21.52 0 0 52.19 9.22 56.078 25.434 3.884 16.208-32.389 22.995-32.389 22.995s-61.225 22.077-166.93 27.87" fill="#1c63b7"/>
 <path d="m274.3 543.41c-81.615 4.47-174.18-11.12-199.58-31.52 0 0-13.518-4.505-7.558-15.692 0 0 16.711-42.221 117.2-50.607 0 0 73.568-8.943 233.18 21.52 0 0 52.19 9.22 56.078 25.434 3.884 16.208-32.389 22.995-32.389 22.995s-61.225 22.077-166.93 27.87z" fill="none" stroke="#231f20" stroke-width="3.5"/>
 <path d="m65.518 497.75s22.487 14.774 57.048 6.812" fill="none" stroke="#231f20" stroke-width="3.5"/>
 <path d="m144.76 483.83c0 7.194-5.793 13.026-12.936 13.026-7.145 0-12.938-5.832-12.938-13.025 0-7.192 5.793-13.022 12.938-13.022 7.143 0 12.936 5.83 12.936 13.022" fill="#fff"/>
 <path d="m144.76 483.83c0 7.194-5.793 13.026-12.936 13.026-7.145 0-12.938-5.832-12.938-13.025 0-7.192 5.793-13.022 12.938-13.022 7.143 0 12.936 5.83 12.936 13.022z" fill="none" stroke="#231f20" stroke-width="3.5"/>
 <path d="m134.37 483c0 3.614-2.642 6.544-5.903 6.544-3.258 0-5.9-2.93-5.9-6.544 0-3.618 2.642-6.551 5.9-6.551 3.261 0 5.903 2.933 5.903 6.551" fill="#231f20"/>
 <path d="m216.91 483.83c0 5.565-4.48 10.077-10.006 10.077s-10.007-4.512-10.007-10.076c0-5.563 4.481-10.075 10.007-10.075s10.006 4.512 10.006 10.075" fill="#ed1c24"/>
 <path d="m216.91 483.83c0 5.565-4.48 10.077-10.006 10.077s-10.007-4.512-10.007-10.076c0-5.563 4.481-10.075 10.007-10.075s10.006 4.512 10.006 10.075z" fill="none" stroke="#231f20" stroke-width="3.5"/>
 <path d="m254.92 502.9c0 5.563-4.478 10.076-10.004 10.076s-10.008-4.513-10.008-10.076 4.482-10.07 10.008-10.07 10.004 4.507 10.004 10.07" fill="#ed1c24"/>
 <path d="m254.92 502.9c0 5.563-4.478 10.076-10.004 10.076s-10.008-4.513-10.008-10.076 4.482-10.07 10.008-10.07 10.004 4.507 10.004 10.07z" fill="none" stroke="#231f20" stroke-width="3.5"/>
 <path d="m289.78 483c0 5.565-4.482 10.072-10.008 10.072s-10.005-4.507-10.005-10.072c0-5.566 4.48-10.075 10.005-10.075s10.008 4.51 10.008 10.075" fill="#ed1c24"/>
 <path d="m289.78 483c0 5.565-4.482 10.072-10.008 10.072s-10.005-4.507-10.005-10.072c0-5.566 4.48-10.075 10.005-10.075s10.008 4.51 10.008 10.075z" fill="none" stroke="#231f20" stroke-width="3.5"/>
 <path d="m323.18 504.68c0 5.563-4.48 10.075-10.005 10.075s-10.006-4.512-10.006-10.075c0-5.564 4.48-10.072 10.006-10.072s10.005 4.508 10.005 10.072" fill="#ed1c24"/>
 <path d="m323.18 504.68c0 5.563-4.48 10.075-10.005 10.075s-10.006-4.512-10.006-10.075c0-5.564 4.48-10.072 10.006-10.072s10.005 4.508 10.005 10.072z" fill="none" stroke="#231f20" stroke-width="3.5"/>
 <path d="m359.8 487.68c0 5.559-4.484 10.072-10.008 10.072-5.526 0-10.005-4.513-10.005-10.072 0-5.564 4.479-10.077 10.005-10.077 5.524 0 10.008 4.513 10.008 10.077" fill="#ed1c24"/>
 <path d="m359.8 487.68c0 5.559-4.484 10.072-10.008 10.072-5.526 0-10.005-4.513-10.005-10.072 0-5.564 4.479-10.077 10.005-10.077 5.524 0 10.008 4.513 10.008 10.077z" fill="none" stroke="#231f20" stroke-width="3.5"/>
 <path d="m397.58 502.7c0 5.563-4.48 10.072-10.005 10.072s-10.008-4.509-10.008-10.072c0-5.566 4.484-10.075 10.008-10.075s10.005 4.509 10.005 10.075" fill="#ed1c24"/>
 <path d="m397.58 502.7c0 5.563-4.48 10.072-10.005 10.072s-10.008-4.509-10.008-10.072c0-5.566 4.484-10.075 10.008-10.075s10.005 4.509 10.005 10.075z" fill="none" stroke="#231f20" stroke-width="3.5"/>
 <path d="m439.7 495.27c0 5.565-4.477 10.076-10.005 10.076-5.524 0-10.005-4.511-10.005-10.076 0-5.563 4.48-10.07 10.005-10.07 5.528 0 10.005 4.507 10.005 10.07" fill="#ed1c24"/>
 <path d="m439.7 495.27c0 5.565-4.477 10.076-10.005 10.076-5.524 0-10.005-4.511-10.005-10.076 0-5.563 4.48-10.07 10.005-10.07 5.528 0 10.005 4.507 10.005 10.07z" fill="none" stroke="#231f20" stroke-width="3.5"/>
 <path d="m142.04 452.24s43.946 42.036 3.955 83.477l16.751 2.674s40.203-44.525-6.187-89.045l-14.52 2.893" fill="#ed1c24"/>
 <path d="m142.04 452.24s43.946 42.036 3.955 83.477l16.751 2.674s40.203-44.525-6.187-89.045z" fill="none" stroke="#231f20" stroke-width="3.5"/>
 <path d="M6.008 6.008v394.54a294 295.16 0 0 0 587.99 0V6.009z" fill="none" stroke="#231f20" stroke-width="12"/>
</svg>
