<?xml version="1.0" encoding="UTF-8" standalone="no"?>
<!-- Created with Inkscape (http://www.inkscape.org/) -->
<svg
   xmlns:svg="http://www.w3.org/2000/svg"
   xmlns="http://www.w3.org/2000/svg"
   version="1.0"
   width="221.1328"
   height="259.02261"
   id="svg2780">
  <defs
     id="defs2782" />
  <g
     transform="translate(-14.775018,-804.88495)"
     id="layer1">
    <path
       d="M 15.775018,805.88495 L 19.759247,973.24852 C 22.605117,1092.7939 228.07771,1092.7939 230.92359,973.24852 L 234.90782,805.88495 L 15.775018,805.88495 z "
       style="fill:#215ab5;fill-opacity:1;fill-rule:evenodd;stroke:#000000;stroke-width:2;stroke-linecap:butt;stroke-miterlimit:4;stroke-dashoffset:0;stroke-opacity:1"
       id="path3282" />
    <path
       d="M 178.44308,45.458804 C 153.32632,75.255921 185.15342,84.800038 202.34043,62.635832"
       transform="translate(0,804.33069)"
       style="fill:none;fill-opacity:0.75;fill-rule:evenodd;stroke:#09ff00;stroke-width:1px;stroke-linecap:butt;stroke-linejoin:miter;stroke-opacity:0.35379058"
       id="path7758" />
    <path
       d="M 137.55162,69.239306 C 122.35117,67.370398 116.97314,67.977136 114.62635,67.868774 C 112.27956,67.760412 112.1406,70.677042 113.31812,70.734432 L 134.79801,71.781314 L 113.31812,70.734432 C 111.21873,70.632113 108.99719,73.996489 111.38691,74.098467 L 132.25204,74.98886 L 111.38691,74.098467 C 108.13578,73.959729 108.44237,77.658143 109.518,77.752609 L 128.48629,79.418489 L 109.518,77.752609 C 106.23067,77.463902 107.1593,81.488564 108.12609,81.552722 L 125.357,82.696199 L 108.12609,81.552722 C 105.18328,81.357431 104.70043,85.606727 106.25276,85.767534 L 121.86364,87.384679 L 106.25276,85.767534 C 104.1303,85.547667 103.19716,89.926375 105.31647,90.066023 L 118.71279,90.948751 L 105.31647,90.066023 C 102.71506,89.894608 101.66583,93.75851 105.00055,94.037911 L 115.16945,94.889915 L 105.00055,94.037911 C 102.50151,93.828528 101.62449,97.942992 103.91128,98.269675 C 106.52775,98.643457 114.50176,98.643457 114.50176,98.643457"
       transform="translate(0,804.33069)"
       style="opacity:1;color:#000000;fill:#ffffff;fill-opacity:1;fill-rule:evenodd;stroke:#000000;stroke-width:1px;stroke-linecap:butt;stroke-linejoin:miter;marker:none;marker-start:none;marker-mid:none;marker-end:none;stroke-miterlimit:4;stroke-dasharray:none;stroke-dashoffset:0;stroke-opacity:1;visibility:visible;display:inline;overflow:visible;enable-background:accumulate"
       id="path7855" />
    <path
       d="M 138.79756,937.36205 C 104.5544,961.06405 84.350043,983.77326 79.241694,989.81607 C 74.081051,995.92073 75.883922,1005.2134 75.883922,1021.3748 C 75.883922,1022.5933 75.208987,1022.9025 74.389033,1022.0825 C 64.075902,1011.7694 54.344062,996.94614 35.901215,990.47553 C 34.950132,990.14184 35.200186,989.4666 36.089207,988.79752 C 50.205737,978.17335 58.811344,986.92385 71.766063,973.12049 C 75.055004,969.6161 81.445582,953.87586 94.317551,929.38805 C 103.67625,911.58394 124.90647,888.65845 134.68596,876.68484 C 144.40428,864.78613 156.16988,854.97433 170.94277,846.40854 C 185.76944,837.81156 205.31284,832.64057 209.44228,832.8278 C 213.5642,833.01469 215.51517,835.32245 211.60168,838.55912 C 207.61468,841.85659 195.58844,856.91863 194.61561,858.72623 C 193.62206,860.57233 194.8648,861.97849 197.10749,860.11386 C 199.4126,858.19732 213.92766,843.91666 215.79657,838.55912 C 217.70427,833.09037 219.68294,836.36653 219.7257,839.19354 C 219.76845,842.02055 218.29318,846.50722 216.78813,849.32473 C 215.28308,852.14224 208.3963,859.15693 202.34043,866.96652 C 206.19273,877.03971 173.04072,913.66005 138.79756,937.36205 z "
       style="opacity:1;color:#000000;fill:#ffffff;fill-opacity:1;fill-rule:evenodd;stroke:#000000;stroke-width:1px;stroke-linecap:butt;stroke-linejoin:miter;marker:none;marker-start:none;marker-mid:none;marker-end:none;stroke-miterlimit:4;stroke-dasharray:none;stroke-dashoffset:0;stroke-opacity:1;visibility:visible;display:inline;overflow:visible;enable-background:accumulate"
       id="path6787" />
    <path
       d="M 153.48949,121.82055 C 153.32744,126.48686 151.12485,136.41379 150.70568,137.58027 C 150.26663,138.80209 151.0054,139.84326 153.11982,137.02403 C 155.81519,133.43019 156.50242,123.10394 156.14106,120.15396 C 155.96044,118.67945 153.50539,121.36283 153.48949,121.82055 z "
       transform="translate(0,804.33069)"
       style="opacity:1;color:#000000;fill:#ffffff;fill-opacity:1;fill-rule:evenodd;stroke:#000000;stroke-width:1px;stroke-linecap:butt;stroke-linejoin:miter;marker:none;marker-start:none;marker-mid:none;marker-end:none;stroke-miterlimit:4;stroke-dasharray:none;stroke-dashoffset:0;stroke-opacity:1;visibility:visible;display:inline;overflow:visible;enable-background:accumulate"
       id="path7871" />
    <path
       d="M 79.490882,168.7898 C 96.277154,147.12817 157.39594,80.139435 169.69684,68.367149"
       transform="translate(0,804.33069)"
       style="opacity:1;color:#000000;fill:none;fill-opacity:0.75;fill-rule:evenodd;stroke:#000000;stroke-width:1px;stroke-linecap:round;stroke-linejoin:miter;marker:none;marker-start:none;marker-mid:none;marker-end:none;stroke-miterlimit:4;stroke-dasharray:none;stroke-dashoffset:0;stroke-opacity:1;visibility:visible;display:inline;overflow:visible;enable-background:accumulate"
       id="path7845" />
    <path
       d="M 179.04138,77.960876 C 167.20495,92.787545 160.72608,99.141832 167.57874,99.017238 C 174.556,98.892644 171.69033,100.26318 181.28407,82.321661"
       transform="translate(0,804.33069)"
       style="opacity:1;color:#000000;fill:none;fill-opacity:0.75;fill-rule:evenodd;stroke:#000000;stroke-width:1px;stroke-linecap:round;stroke-linejoin:miter;marker:none;marker-start:none;marker-mid:none;marker-end:none;stroke-miterlimit:4;stroke-dasharray:none;stroke-dashoffset:0;stroke-opacity:1;visibility:visible;display:inline;overflow:visible;enable-background:accumulate"
       id="path7847" />
    <path
       d="M 191.74995,71.731183 C 184.6481,79.456003 180.16272,87.43001 179.78894,93.036733 C 179.41516,98.643457 174.80518,98.020488 174.18222,96.276174"
       transform="translate(0,804.33069)"
       style="opacity:1;color:#000000;fill:none;fill-opacity:0.75;fill-rule:evenodd;stroke:#000000;stroke-width:1px;stroke-linecap:round;stroke-linejoin:miter;marker:none;marker-start:none;marker-mid:none;marker-end:none;stroke-miterlimit:4;stroke-dasharray:none;stroke-dashoffset:0;stroke-opacity:1;visibility:visible;display:inline;overflow:visible;enable-background:accumulate"
       id="path7849" />
    <path
       d="M 167.32955,99.017238 C 170.31981,94.531859 177.42166,84.439757 179.41516,81.200317"
       transform="translate(0,804.33069)"
       style="opacity:1;color:#000000;fill:none;fill-opacity:0.75;fill-rule:evenodd;stroke:#000000;stroke-width:1px;stroke-linecap:round;stroke-linejoin:miter;marker:none;marker-start:none;marker-mid:none;marker-end:none;stroke-miterlimit:4;stroke-dasharray:none;stroke-dashoffset:0;stroke-opacity:1;visibility:visible;display:inline;overflow:visible;enable-background:accumulate"
       id="path7851" />
    <path
       d="M 190.13023 43.946754 A 3.4886281 3.4886281 0 1 1  183.15297,43.946754 A 3.4886281 3.4886281 0 1 1  190.13023 43.946754 z"
       transform="matrix(0.9285714,0,0,0.9285714,14.079106,809.08947)"
       style="opacity:1;color:#000000;fill:none;fill-opacity:0.75;fill-rule:evenodd;stroke:#000000;stroke-width:1.07692313px;stroke-linecap:butt;stroke-linejoin:miter;marker:none;marker-start:none;marker-mid:none;marker-end:none;stroke-miterlimit:4;stroke-dasharray:none;stroke-dashoffset:0;stroke-opacity:1;visibility:visible;display:inline;overflow:visible;enable-background:accumulate"
       id="path7853" />
    <path
       d="M 153.73652,925.49651 C 153.76216,925.07025 151.37474,926.8441 151.35779,926.99423 C 150.51595,934.44826 148.66315,941.66438 147.56944,943.20485 C 146.84455,944.22584 146.58967,945.21634 148.53856,944.35016 C 150.12438,943.64535 152.94637,938.63295 153.73652,925.49651 z "
       style="opacity:1;color:#000000;fill:#ffffff;fill-opacity:1;fill-rule:evenodd;stroke:#000000;stroke-width:1px;stroke-linecap:butt;stroke-linejoin:miter;marker:none;marker-start:none;marker-mid:none;marker-end:none;stroke-miterlimit:4;stroke-dasharray:none;stroke-dashoffset:0;stroke-opacity:1;visibility:visible;display:inline;overflow:visible;enable-background:accumulate"
       id="path7875" />
    <path
       d="M 95.050857,973.59673 C 95.168774,975.94306 99.358882,976.42438 99.399621,975.24616 L 99.621089,968.84105 L 99.399621,975.24616 C 99.344348,976.84471 103.80593,976.6202 103.80599,974.72668 L 103.80627,965.21071 L 103.80599,974.72668 C 103.80592,977.2332 107.54574,975.44347 107.62299,974.36646 L 108.57764,961.05721 L 107.62299,974.36646 C 107.44407,976.8609 111.80153,974.96675 111.91317,972.89444 C 112.02465,970.82509 112.9875,960.9766 112.51498,957.50236"
       style="opacity:1;color:#000000;fill:#ffffff;fill-opacity:1;fill-rule:evenodd;stroke:#000000;stroke-width:1px;stroke-linecap:butt;stroke-linejoin:miter;marker:none;marker-start:none;marker-mid:none;marker-end:none;stroke-miterlimit:4;stroke-dasharray:none;stroke-dashoffset:0;stroke-opacity:1;visibility:visible;display:inline;overflow:visible;enable-background:accumulate"
       id="path7877" />
    <path
       d="M 86.592732,140.13321 C 74.149362,140.73073 73.169298,128.87801 93.320801,126.67708"
       transform="translate(0,804.33069)"
       style="opacity:1;color:#000000;fill:#ffffff;fill-opacity:1;fill-rule:evenodd;stroke:#000000;stroke-width:1px;stroke-linecap:butt;stroke-linejoin:miter;marker:none;marker-start:none;marker-mid:none;marker-end:none;stroke-miterlimit:4;stroke-dasharray:none;stroke-dashoffset:0;stroke-opacity:1;visibility:visible;display:inline;overflow:visible;enable-background:accumulate"
       id="path7879" />
    <path
       d="M 91.70108,130.53948 C 85.845169,131.53624 79.366288,134.02811 77.746568,134.77568"
       transform="translate(0,804.33069)"
       style="opacity:1;color:#000000;fill:none;fill-opacity:0.75;fill-rule:evenodd;stroke:#000000;stroke-width:1px;stroke-linecap:butt;stroke-linejoin:miter;marker:none;marker-start:none;marker-mid:none;marker-end:none;stroke-miterlimit:4;stroke-dasharray:none;stroke-dashoffset:0;stroke-opacity:1;visibility:visible;display:inline;overflow:visible;enable-background:accumulate"
       id="path7881" />
    <path
       d="M 88.835422,135.52324 C 84.973012,135.77243 80.986009,137.14296 79.366288,138.3889"
       transform="translate(0,804.33069)"
       style="opacity:1;color:#000000;fill:none;fill-opacity:0.75;fill-rule:evenodd;stroke:#000000;stroke-width:1px;stroke-linecap:butt;stroke-linejoin:miter;marker:none;marker-start:none;marker-mid:none;marker-end:none;stroke-miterlimit:4;stroke-dasharray:none;stroke-dashoffset:0;stroke-opacity:1;visibility:visible;display:inline;overflow:visible;enable-background:accumulate"
       id="path7883" />
    <path
       d="M 62.047742,175.89165 C 67.031496,179.13109 75.254691,187.97725 76.50063,190.34454"
       transform="translate(0,804.33069)"
       style="opacity:1;color:#000000;fill:none;fill-opacity:0.75;fill-rule:evenodd;stroke:#000000;stroke-width:1px;stroke-linecap:butt;stroke-linejoin:miter;marker:none;marker-start:none;marker-mid:none;marker-end:none;stroke-miterlimit:4;stroke-dasharray:none;stroke-dashoffset:0;stroke-opacity:1;visibility:visible;display:inline;overflow:visible;enable-background:accumulate"
       id="path7885" />
    <path
       d="M 71.143094,214.01737 C 71.392281,202.67933 72.762814,196.44964 73.884159,192.33804"
       transform="translate(0,804.33069)"
       style="opacity:1;color:#000000;fill:none;fill-opacity:0.75;fill-rule:evenodd;stroke:#000000;stroke-width:1px;stroke-linecap:round;stroke-linejoin:miter;marker:none;marker-start:none;marker-mid:none;marker-end:none;stroke-miterlimit:4;stroke-dasharray:none;stroke-dashoffset:0;stroke-opacity:1;visibility:visible;display:inline;overflow:visible;enable-background:accumulate"
       id="path7887" />
    <path
       d="M 65.162588,207.2893 C 65.910152,202.30555 70.395531,192.83641 71.890657,190.09535"
       transform="translate(0,804.33069)"
       style="opacity:1;color:#000000;fill:none;fill-opacity:0.75;fill-rule:evenodd;stroke:#000000;stroke-width:1px;stroke-linecap:round;stroke-linejoin:miter;marker:none;marker-start:none;marker-mid:none;marker-end:none;stroke-miterlimit:4;stroke-dasharray:none;stroke-dashoffset:0;stroke-opacity:1;visibility:visible;display:inline;overflow:visible;enable-background:accumulate"
       id="path7889" />
    <path
       d="M 60.25182,202.19607 C 62.619103,196.83853 68.402029,190.59373 70.520124,187.97725"
       transform="translate(0,804.33069)"
       style="opacity:1;color:#000000;fill:none;fill-opacity:0.75;fill-rule:evenodd;stroke:#000000;stroke-width:1px;stroke-linecap:round;stroke-linejoin:miter;marker:none;marker-start:none;marker-mid:none;marker-end:none;stroke-miterlimit:4;stroke-dasharray:none;stroke-dashoffset:0;stroke-opacity:1;visibility:visible;display:inline;overflow:visible;enable-background:accumulate"
       id="path7891" />
    <path
       d="M 56.690206,198.81692 C 59.555865,194.45613 65.785558,187.85266 68.526623,185.36078"
       transform="translate(0,804.33069)"
       style="opacity:1;color:#000000;fill:none;fill-opacity:0.75;fill-rule:evenodd;stroke:#000000;stroke-width:1px;stroke-linecap:round;stroke-linejoin:miter;marker:none;marker-start:none;marker-mid:none;marker-end:none;stroke-miterlimit:4;stroke-dasharray:none;stroke-dashoffset:0;stroke-opacity:1;visibility:visible;display:inline;overflow:visible;enable-background:accumulate"
       id="path7893" />
    <path
       d="M 52.204827,194.82992 C 57.063988,189.97076 62.795305,186.9805 66.533121,183.36728"
       transform="translate(0,804.33069)"
       style="opacity:1;color:#000000;fill:none;fill-opacity:0.75;fill-rule:evenodd;stroke:#000000;stroke-width:1px;stroke-linecap:round;stroke-linejoin:miter;marker:none;marker-start:none;marker-mid:none;marker-end:none;stroke-miterlimit:4;stroke-dasharray:none;stroke-dashoffset:0;stroke-opacity:1;visibility:visible;display:inline;overflow:visible;enable-background:accumulate"
       id="path7895" />
    <path
       d="M 47.844042,191.96426 C 54.945892,185.73456 60.552616,185.36078 64.788807,181.37378"
       transform="translate(0,804.33069)"
       style="opacity:1;color:#000000;fill:none;fill-opacity:0.75;fill-rule:evenodd;stroke:#000000;stroke-width:1px;stroke-linecap:round;stroke-linejoin:miter;marker:none;marker-start:none;marker-mid:none;marker-end:none;stroke-miterlimit:4;stroke-dasharray:none;stroke-dashoffset:0;stroke-opacity:1;visibility:visible;display:inline;overflow:visible;enable-background:accumulate"
       id="path7897" />
    <path
       d="M 42.361912,188.47563 C 53.201578,181.49837 53.949141,182.37053 60.926397,179.87865"
       transform="translate(0,804.33069)"
       style="opacity:1;color:#000000;fill:none;fill-opacity:0.75;fill-rule:evenodd;stroke:#000000;stroke-width:1px;stroke-linecap:round;stroke-linejoin:miter;marker:none;marker-start:none;marker-mid:none;marker-end:none;stroke-miterlimit:4;stroke-dasharray:none;stroke-dashoffset:0;stroke-opacity:1;visibility:visible;display:inline;overflow:visible;enable-background:accumulate"
       id="path7899" />
    <path
       d="M 146.69912,126.49282 C 146.1516,127.04273 146.32256,131.5279 145.84652,133.15719 C 145.37567,134.7687 146.52002,135.85626 147.26391,134.65675 C 149.63152,130.83901 149.24292,124.46448 148.85232,124.70163 C 148.50614,124.91182 147.21461,125.97507 146.69912,126.49282 z "
       transform="translate(0,804.33069)"
       style="opacity:1;color:#000000;fill:#ffffff;fill-opacity:1;fill-rule:evenodd;stroke:#000000;stroke-width:1px;stroke-linecap:butt;stroke-linejoin:miter;marker:none;marker-start:none;marker-mid:none;marker-end:none;stroke-miterlimit:4;stroke-dasharray:none;stroke-dashoffset:0;stroke-opacity:1;visibility:visible;display:inline;overflow:visible;enable-background:accumulate"
       id="path8870" />
    <path
       d="M 151.4459,122.75164 C 151.4637,122.3976 149.21627,123.90792 149.24337,124.42556 C 149.61715,131.56621 146.43925,136.51054 145.71932,137.55264 C 145.0076,138.58285 145.10262,140.63618 146.77654,139.31466 C 148.45046,137.99314 150.87423,134.05923 151.4459,122.75164 z "
       transform="translate(0,804.33069)"
       style="opacity:1;color:#000000;fill:#ffffff;fill-opacity:1;fill-rule:evenodd;stroke:#000000;stroke-width:1px;stroke-linecap:butt;stroke-linejoin:miter;marker:none;marker-start:none;marker-mid:none;marker-end:none;stroke-miterlimit:4;stroke-dasharray:none;stroke-dashoffset:0;stroke-opacity:1;visibility:visible;display:inline;overflow:visible;enable-background:accumulate"
       id="path7873" />
  </g>
</svg>
