<svg width="600" height="716" version="1.1" id="svg8" xmlns="http://www.w3.org/2000/svg"><defs id="defs12"><path id="SVGID_2_" d="M89.5 1.5h45v51.9h-45z"/><path id="SVGID_4_" d="M1.9 0h179.3v69.6H1.9z"/><path id="b" d="M47.41 13.25h98.23V51.1H47.41z"/><path id="a" d="M0 31.3h196.5v82.12H0z"/><path id="SVGID_2_-5" d="M89.5 1.5h45v51.9h-45z"/><path id="SVGID_4_-3" d="M1.9 0h179.3v69.6H1.9z"/><path id="b-3" d="M47.41 13.25h98.23V51.1H47.41z"/><path id="a-9" d="M0 31.3h196.5v82.12H0z"/><path id="SVGID_2_-4" d="M89.5 1.5h45v51.9h-45z"/><path id="SVGID_4_-8" d="M1.9 0h179.3v69.6H1.9z"/><path id="b-4" d="M47.41 13.25h98.23V51.1H47.41z"/><path id="a-1" d="M0 31.3h196.5v82.12H0z"/><clipPath id="Clip0"><path d="M0 0v538.964h444.083V0H0Z" transform="translate(0 .036)" id="path1412"/></clipPath><clipPath id="Clip0-6"><path d="M0 0v538.964h444.083V0Z" transform="translate(0 .036)" id="path1412-7"/></clipPath><clipPath id="a-6"><path fill="#fff" d="M0 0h244v64.582H0z" id="path1147"/></clipPath><clipPath id="a-6-6"><path d="M0 0h244v64.582H0Z" id="path1147-8" style="fill:#fff"/></clipPath><clipPath id="clipPath74" clipPathUnits="userSpaceOnUse"><path id="path72" d="M0 0h586.772v833.386H0Z"/></clipPath><clipPath id="a-6-01"><path fill="#fff" d="M0 0h244v64.582H0z" id="path1147-2"/></clipPath><clipPath id="a-6-6-79"><path d="M0 0h244v64.582H0Z" id="path1147-8-0" style="fill:#fff"/></clipPath><clipPath id="a-6-0"><path fill="#fff" d="M0 0h244v64.582H0z" id="path1147-7"/></clipPath><clipPath id="a-6-6-7"><path d="M0 0h244v64.582H0Z" id="path1147-8-7" style="fill:#fff"/></clipPath><clipPath clipPathUnits="userSpaceOnUse" id="clipPath74-4"><path d="M0 0h586.772v833.386H0Z" id="path72-4"/></clipPath><symbol id="c"><path d="M61.23 24.96q-1.49 0-2.42-.94-.92-.94-.92-2.5v-.2q0-1.05.4-1.87.4-.82 1.13-1.28.73-.46 1.63-.46 1.43 0 2.2.9.79.92.79 2.59v.63h-4.57q.07.87.57 1.37.52.5 1.28.5 1.08 0 1.76-.87l.85.8q-.42.63-1.13.98-.7.35-1.57.35zm-.18-6q-.65 0-1.05.46-.4.45-.5 1.26h2.99v-.12q-.06-.78-.42-1.18-.37-.41-1.02-.41z" id="path1388"/></symbol><symbol id="c-8"><path d="M61.23 24.96q-1.49 0-2.42-.94-.92-.94-.92-2.5v-.2q0-1.05.4-1.87.4-.82 1.13-1.28.73-.46 1.63-.46 1.43 0 2.2.9.79.92.79 2.59v.63h-4.57q.07.87.57 1.37.52.5 1.28.5 1.08 0 1.76-.87l.85.8q-.42.63-1.13.98-.7.35-1.57.35zm-.18-6q-.65 0-1.05.46-.4.45-.5 1.26h2.99v-.12q-.06-.78-.42-1.18-.37-.41-1.02-.41z" id="path1388-7"/></symbol><symbol id="c-5"><path d="M61.23 24.96q-1.49 0-2.42-.94-.92-.94-.92-2.5v-.2q0-1.05.4-1.87.4-.82 1.13-1.28.73-.46 1.63-.46 1.43 0 2.2.9.79.92.79 2.59v.63h-4.57q.07.87.57 1.37.52.5 1.28.5 1.08 0 1.76-.87l.85.8q-.42.63-1.13.98-.7.35-1.57.35zm-.18-6q-.65 0-1.05.46-.4.45-.5 1.26h2.99v-.12q-.06-.78-.42-1.18-.37-.41-1.02-.41z" id="path1388-5"/></symbol><marker style="overflow:visible" id="Arrow1Lstart" refX="0" refY="0" orient="auto"><path transform="scale(.8)" style="fill-rule:evenodd;stroke:#000;stroke-width:1pt;marker-start:none" d="m0 0 5-5-17.5 5L5 5 0 0z" id="path12217"/></marker><marker style="overflow:visible" id="Arrow2Send" refX="0" refY="0" orient="auto"><path transform="matrix(-.3 0 0 -.3 1.5 0)" d="M8.719 4.034-2.207.016 8.719-4.002c-1.746 2.372-1.736 5.618 0 8.036z" style="font-size:12px;fill-rule:evenodd;stroke-width:.625;stroke-linejoin:round" id="path12184"/></marker><marker style="overflow:visible" id="Dot_l" refX="0" refY="0" orient="auto"><path transform="matrix(.8 0 0 .8 5.7 .8)" style="fill-rule:evenodd;stroke:#000;stroke-width:1pt;marker-start:none;marker-end:none" d="M-2.5-1c0 2.76-2.24 5-5 5s-5-2.24-5-5 2.24-5 5-5 5 2.24 5 5z" id="path12152"/></marker><linearGradient id="linearGradient2893"><stop id="stop2895" offset="0" style="stop-color:#fff;stop-opacity:.3137255"/><stop style="stop-color:#fff;stop-opacity:.25098041" offset=".19" id="stop2897"/><stop id="stop2901" offset=".6" style="stop-color:#6b6b6b;stop-opacity:.1254902"/><stop id="stop2899" offset="1" style="stop-color:#000;stop-opacity:.1254902"/></linearGradient><linearGradient id="linearGradient2955"><stop id="stop2965" offset="0" style="stop-color:white;stop-opacity:0"/><stop id="stop2959" offset="1" style="stop-color:black;stop-opacity:.64583331"/></linearGradient><style id="style1656">.str0{stroke:#2b2a29;stroke-width:13.59;stroke-miterlimit:22.9256}.fil0{fill-rule:nonzero}.cls-1,.cls-4,.cls-5,.cls-6{fill-rule:evenodd}.cls-3,.cls-5{stroke:#010101;stroke-width:.6px}.cls-3{stroke-linecap:square}.cls-7{fill:#b2b2b2}.a{fill:#86cff4}.b{fill:#0071bb}.c{fill:#1a171b}.d,.f{fill:none;stroke:#1a171b;stroke-miterlimit:10}.d{stroke-width:.24px}.e{fill:#fff}.f{stroke-width:.02px}.cls-1,.cls-2,.cls-3{fill:#1e1e1c}.cls-1,.cls-2,.cls-4,.cls-6{stroke:#fff}.cls-1{stroke-miterlimit:10;stroke-width:.24px}.cls-2,.cls-4,.cls-6{stroke-width:0}.cls-3{fill-rule:evenodd}.cls-4{fill:#fff}.cls-5{fill:#028868}.cls-6{fill:#e30d18}.fil2{fill:#4f9e2c}.fil1{fill:#de0000}.fil4{fill:#f8c300}.fil0{fill:#fff}.fil6{fill:#000;fill-rule:nonzero}.fil3{fill:#de0000}.fil3,.fil5{fill-rule:nonzero}.Tiefen,.fil5{fill:#fff}.Abgerundete_x0020_Ecken_x0020_10_x0020_Pt_x002E_,.x_x0020_interaktiv_x0020_spiegeln{fill:none}.Gelbes_x0020_Leuchten{fill:#f8d826;stroke:#fff;stroke-width:.25;stroke-miterlimit:1}.Seidenpapier{opacity:.75;fill:url(#SVGID_1_)}.st2{clip-path:url(#SVGID_3_)}.st1,.st2,.st4{fill-rule:evenodd;clip-rule:evenodd}.st1,.st2{stroke:#000;stroke-width:4.08;stroke-miterlimit:16.34}.st0{fill:#1d1d1b}.st1{fill:#0085cc}.st2{fill:#fab800}.st4{fill:#f9b800}</style></defs><path style="display:inline;fill:#0093dd;fill-opacity:1;stroke-width:1.06973" d="M11.284 10.998v417.703c0 151.391 129.327 274.118 288.86 274.118 159.534 0 288.861-122.727 288.861-274.118V10.998Z" id="path1899"/><path style="fill:#fcdb00;fill-rule:evenodd;stroke:#000;stroke-width:12;stroke-linecap:round;stroke-linejoin:round;stroke-miterlimit:1000;stroke-dasharray:none;paint-order:fill markers stroke" d="M118.056 118.779c1.836-11.128 9.942-25.578 24.247-25.546 14.292.032 23.489 12.629 21.36 25.546L99.297 509.446c-2.662 16.155-18.91 20.204-26.702 19.357-9.393-1.02-20.812-8.439-18.689-21.305z" id="path764-0"/><path style="fill:#fcdb00;fill-rule:evenodd;stroke:#000;stroke-width:12;stroke-linecap:round;stroke-linejoin:round;stroke-miterlimit:1000;stroke-dasharray:none;paint-order:fill markers stroke" d="M483.238 118.779c-1.836-11.128-9.075-25.578-23.381-25.546-14.292.032-24.354 12.629-22.226 25.546l64.366 390.667c2.662 16.155 18.91 20.204 26.702 19.357 9.393-1.02 20.812-8.439 18.689-21.305z" id="path764-0-8"/><g id="g2430" style="stroke-width:12;stroke-dasharray:none"><path style="fill:#fcdb00;fill-rule:evenodd;stroke:#000;stroke-width:12;stroke-linecap:round;stroke-linejoin:miter;stroke-miterlimit:1000;stroke-dasharray:none;paint-order:fill markers stroke" d="m134.51 464.078 25.744 81.278 24.48-81.278" id="path1816"/><path style="fill:#fcdb00;fill-rule:evenodd;stroke:#000;stroke-width:12;stroke-linecap:round;stroke-linejoin:miter;stroke-miterlimit:1000;stroke-dasharray:none;paint-order:fill markers stroke" d="m212.756 464.078 25.744 81.278 24.48-81.278" id="path1816-3"/><path style="fill:#fcdb00;fill-rule:evenodd;stroke:#000;stroke-width:12;stroke-linecap:round;stroke-linejoin:miter;stroke-miterlimit:1000;stroke-dasharray:none;paint-order:fill markers stroke" d="m283.48 464.078 25.744 81.278 24.481-81.278" id="path1816-9"/><path style="fill:#fcdb00;fill-rule:evenodd;stroke:#000;stroke-width:12;stroke-linecap:round;stroke-linejoin:miter;stroke-miterlimit:1000;stroke-dasharray:none;paint-order:fill markers stroke" d="m355.224 464.078 25.744 81.278 24.481-81.278" id="path1816-2"/><path style="fill:#fcdb00;fill-rule:evenodd;stroke:#000;stroke-width:12;stroke-linecap:round;stroke-linejoin:miter;stroke-miterlimit:1000;stroke-dasharray:none;paint-order:fill markers stroke" d="m426.968 464.078 25.744 81.278 24.481-81.278" id="path1816-33"/><path style="fill:#fcdb00;fill-rule:evenodd;stroke:#000;stroke-width:12;stroke-linecap:round;stroke-linejoin:miter;stroke-miterlimit:1000;stroke-dasharray:none;paint-order:fill markers stroke" d="m141.753 356.187 25.744 81.278 24.48-81.278" id="path1816-3-4"/><path style="fill:#fcdb00;fill-rule:evenodd;stroke:#000;stroke-width:12;stroke-linecap:round;stroke-linejoin:miter;stroke-miterlimit:1000;stroke-dasharray:none;paint-order:fill markers stroke" d="m230.524 356.187 25.744 81.278 24.48-81.278" id="path1816-9-2"/><path style="fill:#fcdb00;fill-rule:evenodd;stroke:#000;stroke-width:12;stroke-linecap:round;stroke-linejoin:miter;stroke-miterlimit:1000;stroke-dasharray:none;paint-order:fill markers stroke" d="m319.295 356.187 25.744 81.278 24.48-81.278" id="path1816-2-9"/><path style="fill:#fcdb00;fill-rule:evenodd;stroke:#000;stroke-width:12;stroke-linecap:round;stroke-linejoin:miter;stroke-miterlimit:1000;stroke-dasharray:none;paint-order:fill markers stroke" d="m408.066 356.187 25.744 81.278 24.48-81.278" id="path1816-33-6"/><path style="fill:#fcdb00;fill-rule:evenodd;stroke:#000;stroke-width:12;stroke-linecap:round;stroke-linejoin:miter;stroke-miterlimit:1000;stroke-dasharray:none;paint-order:fill markers stroke" d="m153.593 247.437 25.744 81.278 24.481-81.278" id="path1816-5"/><path style="fill:#fcdb00;fill-rule:evenodd;stroke:#000;stroke-width:12;stroke-linecap:round;stroke-linejoin:miter;stroke-miterlimit:1000;stroke-dasharray:none;paint-order:fill markers stroke" d="m215.575 247.708 25.744 81.278 24.48-81.278" id="path1816-3-7"/><path style="fill:#fcdb00;fill-rule:evenodd;stroke:#000;stroke-width:12;stroke-linecap:round;stroke-linejoin:miter;stroke-miterlimit:1000;stroke-dasharray:none;paint-order:fill markers stroke" d="m279.05 247.437 25.745 81.278 24.48-81.278" id="path1816-9-9"/><path style="fill:#fcdb00;fill-rule:evenodd;stroke:#000;stroke-width:12;stroke-linecap:round;stroke-linejoin:miter;stroke-miterlimit:1000;stroke-dasharray:none;paint-order:fill markers stroke" d="m342.527 247.437 25.743 81.278 24.481-81.278" id="path1816-2-7"/><path style="fill:#fcdb00;fill-rule:evenodd;stroke:#000;stroke-width:12;stroke-linecap:round;stroke-linejoin:miter;stroke-miterlimit:1000;stroke-dasharray:none;paint-order:fill markers stroke" d="m402.418 255.437 25.744 81.278 24.48-81.278" id="path1816-33-1"/><path style="fill:#fcdb00;fill-rule:evenodd;stroke:#000;stroke-width:12;stroke-linecap:round;stroke-linejoin:miter;stroke-miterlimit:1000;stroke-dasharray:none;paint-order:fill markers stroke" d="m175.311 140.687 25.744 81.278 24.481-81.278" id="path1816-3-4-2"/><path style="fill:#fcdb00;fill-rule:evenodd;stroke:#000;stroke-width:12;stroke-linecap:round;stroke-linejoin:miter;stroke-miterlimit:1000;stroke-dasharray:none;paint-order:fill markers stroke" d="m241.887 140.687 25.744 81.278 24.48-81.278" id="path1816-9-2-7"/><path style="fill:#fcdb00;fill-rule:evenodd;stroke:#000;stroke-width:12;stroke-linecap:round;stroke-linejoin:miter;stroke-miterlimit:1000;stroke-dasharray:none;paint-order:fill markers stroke" d="m317.515 140.687 25.744 81.278 24.481-81.278" id="path1816-2-9-0"/><path style="fill:#fcdb00;fill-rule:evenodd;stroke:#000;stroke-width:12;stroke-linecap:round;stroke-linejoin:miter;stroke-miterlimit:1000;stroke-dasharray:none;paint-order:fill markers stroke" d="m383.012 140.687 25.744 81.278 24.48-81.278" id="path1816-33-6-3"/></g><g id="g2454" style="display:inline;stroke-width:12;stroke-dasharray:none"><path style="fill:#fcdb00;fill-rule:evenodd;stroke:#000;stroke-width:12;stroke-linecap:round;stroke-linejoin:round;stroke-miterlimit:1000;stroke-dasharray:none;paint-order:fill markers stroke" d="M492.52 451.928H108.774l-6.676 40.52h397.099Z" id="path1736"/><path style="fill:#fcdb00;fill-rule:evenodd;stroke:#000;stroke-width:12;stroke-linecap:round;stroke-linejoin:round;stroke-miterlimit:1000;stroke-dasharray:none;paint-order:fill markers stroke" d="M126.734 342.918H474.56l5.76 34.964H120.975Z" id="path1756"/><path style="fill:#fcdb00;fill-rule:evenodd;stroke:#000;stroke-width:12;stroke-linecap:round;stroke-linejoin:round;stroke-miterlimit:1000;stroke-dasharray:none;paint-order:fill markers stroke" d="M144.687 233.953h311.92l5.277 32.028H139.41Z" id="path1776"/><path style="display:inline;fill:#fcdb00;fill-rule:evenodd;stroke:#000;stroke-width:12;stroke-linecap:round;stroke-linejoin:round;stroke-miterlimit:1000;stroke-dasharray:none;paint-order:fill markers stroke" d="M161.039 134.71h279.217l5.613 34.067H155.426Z" id="path1796"/></g><path style="fill:#fff;fill-rule:evenodd;stroke:#000;stroke-width:12;stroke-linecap:round;stroke-linejoin:round;stroke-miterlimit:1000;stroke-dasharray:none;paint-order:fill markers stroke" d="M281.504 134.71v34.067h42.575V134.71z" id="path2474"/><path id="path858" clip-path="url(#SVGID_5_)" style="clip-rule:evenodd;fill-rule:evenodd;stroke-width:4.82431058;image-rendering:optimizeQuality;shape-rendering:geometricPrecision;text-rendering:geometricPrecision;fill:#fff;stroke:#000;stroke-opacity:1;stroke-dasharray:none;stroke-linejoin:round;stroke-linecap:round;stroke-miterlimit:16.34;clip-path:url(#SVGID_5_)" d="M662.632-102.778c-22.329 0-40.192 19.077-40.192 42.243s17.224 42.245 39.552 42.245c22.329 0 40.192-19.079 40.192-42.245 0-23.166-17.862-42.243-39.552-42.243zm-.64 19.76c11.484 0 20.415 9.539 20.415 21.803 0 12.264-8.931 21.803-20.415 21.803-11.483 0-20.414-9.539-20.414-21.803 0-12.264 8.931-21.804 20.414-21.804z" transform="matrix(1.30164 0 0 1.18834 -557.765 159.045)"/><path d="M10.995 10.998v404.62a289.01 289.01 0 0 0 578.01 0V10.998z" fill="#fff" stroke="#000" stroke-width="22" id="path2" style="fill:none"/></svg>