<?xml version="1.0" encoding="UTF-8" standalone="no"?>
<svg
   xmlns:dc="http://purl.org/dc/elements/1.1/"
   xmlns:cc="http://creativecommons.org/ns#"
   xmlns:rdf="http://www.w3.org/1999/02/22-rdf-syntax-ns#"
   xmlns:svg="http://www.w3.org/2000/svg"
   xmlns="http://www.w3.org/2000/svg"
   viewBox="0 0 226.77333 264.57333"
   height="264.57333"
   width="226.77333"
   xml:space="preserve"
   id="svg2"
   version="1.1"><metadata
     id="metadata8"><rdf:RDF><cc:Work
         rdf:about=""><dc:format>image/svg+xml</dc:format><dc:type
           rdf:resource="http://purl.org/dc/dcmitype/StillImage" /></cc:Work></rdf:RDF></metadata><defs
     id="defs6" /><g
     transform="matrix(1.3333333,0,0,-1.3333333,0,264.57333)"
     id="g10"><g
       transform="scale(0.1)"
       id="g12"><path
         id="path14"
         style="fill:#ffffff;fill-opacity:1;fill-rule:evenodd;stroke:none"
         d="M 850.391,17.5 C 391.137,17.5 17.5,391.129 17.5,850.391 V 1966.75 H 1683.29 V 850.391 C 1683.29,391.129 1309.66,17.5 850.391,17.5" /><path
         id="path16"
         style="fill:#231f20;fill-opacity:1;fill-rule:nonzero;stroke:none"
         d="M 1700.79,1984.25 H 0 V 850.391 C 0,380.73 380.734,0 850.391,0 1320.06,0 1700.79,380.73 1700.79,850.391 V 1984.25 Z m -35,-35 V 850.391 C 1665.79,400.781 1300.01,35 850.391,35 400.781,35 35,400.781 35,850.391 V 1949.25 h 1630.79" /><path
         id="path18"
         style="fill:#231f20;fill-opacity:1;fill-rule:nonzero;stroke:none"
         d="M 1685.49,1963.2 H 20.3711 V 993.902 H 1685.49 V 1963.2" /><path
         id="path20"
         style="fill:none;stroke:#231f20;stroke-width:10;stroke-linecap:butt;stroke-linejoin:miter;stroke-miterlimit:10;stroke-dasharray:none;stroke-opacity:1"
         d="M 1685.49,1963.2 H 20.3711 V 993.902 H 1685.49 Z" /><path
         id="path22"
         style="fill:#ffffff;fill-opacity:1;fill-rule:nonzero;stroke:none"
         d="m 762.52,1640.52 87.871,224.82 87.879,-224.82 238.62,36.31 -150.75,-188.51 150.75,-188.5 -238.62,36.3 -87.879,-224.8 -87.871,224.8 -238.625,-36.3 150.75,188.5 -150.75,188.51 238.625,-36.31" /><path
         id="path24"
         style="fill:#231f20;fill-opacity:1;fill-rule:nonzero;stroke:none"
         d="m 716.984,598.27 v -23.821 c 0,-9.301 7.571,-16.859 16.871,-16.859 H 972 c 9.305,0 16.875,7.558 16.875,16.859 v 23.821 c 0,9.3 -7.57,16.859 -16.875,16.859 H 733.855 c -9.3,0 -16.871,-7.559 -16.871,-16.859 z m 31.11,65.5 -8.274,-34.739 h 226.211 l -8.269,34.739 z M 639.09,205.949 c 136.254,-61.828 291.426,-61.828 427.67,0 L 998.172,494.082 H 707.688 Z m 355.769,302.02 -9.265,38.929 C 981.48,544.859 976.883,543.691 972,543.691 H 733.855 c -4.882,0 -9.484,1.168 -13.589,3.207 l -9.27,-38.929 z m 82.411,-312.508 c -71.32,-33.223 -147.829,-49.832 -224.336,-49.832 -76.52,0 -153.032,16.609 -224.344,49.832 -6.449,-2.492 -12,-7.332 -15.164,-14.09 -6.5,-13.902 -0.504,-30.441 13.398,-36.941 71.844,-33.598 148.973,-50.3987 226.102,-50.3987 77.129,0 154.254,16.8007 226.104,50.3987 13.91,6.5 19.9,23.039 13.4,36.941 -3.16,6.75 -8.71,11.598 -15.16,14.09 z M 852.887,880.539 c 0,0 137.031,114.59 240.833,19.551 93.69,-88.301 25.85,-190.75 25.85,-190.75 0,36.851 -35.97,66.73 -80.33,66.73 -44.361,0 -75.15,-22.922 -80.326,-66.73 L 957.34,676.988 H 852.758 748.172 l -1.578,32.352 c -5.176,43.808 -35.961,66.73 -80.324,66.73 -44.36,0 -80.321,-29.879 -80.321,-66.73 0,0 -67.851,102.449 25.84,190.75 103.801,95.039 240.836,-19.551 240.836,-19.551 h 0.262" /></g></g></svg>