<?xml version="1.0" encoding="UTF-8"?>
<!-- Created with Inkscape (http://www.inkscape.org/) -->
<svg id="a" width="213.16" height="249.68" version="1.0" xmlns="http://www.w3.org/2000/svg">
 <path d="m1 1 3.8392 161.28c2.7423 115.2 200.74 115.2 203.48 0l3.8392-161.28z" fill="#2969ca" stroke="#000" stroke-width="2"/>
 <rect x="32.844" y="108.21" width="145.77" height="56.316" color="#000000" fill="#fff"/>
 <rect transform="rotate(25.5)" x="197.8" y="24.765" width="2.9903" height="11.712" color="#000000" fill="#d63d27" stroke="#000" stroke-width="1px"/>
 <rect transform="rotate(25.5)" x="109.75" y="66.764" width="2.9903" height="11.712" color="#000000" fill="#d63d27" stroke="#000" stroke-width="1px"/>
 <rect transform="rotate(25.5)" x="153.5" y="45.897" width="2.9903" height="11.712" color="#000000" fill="#d63d27" stroke="#000" stroke-width="1px"/>
 <rect transform="rotate(-25.5)" x="75.728" y="156.66" width="2.9903" height="11.712" color="#000000" fill="#d63d27" stroke="#000" stroke-width="1px"/>
 <rect transform="rotate(-25.5)" x="33.447" y="136.49" width="2.9903" height="11.712" color="#000000" fill="#d63d27" stroke="#000" stroke-width="1px"/>
 <rect transform="rotate(-25.5)" x="-10.301" y="115.63" width="2.9903" height="11.712" color="#000000" fill="#d63d27" stroke="#000" stroke-width="1px"/>
 <rect transform="rotate(30.6)" x="158.75" y="74.415" width="2.9903" height="22.053" color="#000000" fill="#d63d27" stroke="#000" stroke-width="1px"/>
 <rect transform="rotate(-30.6)" x="-22.44" y="156.8" width="2.9903" height="22.053" color="#000000" fill="#d63d27" stroke="#000" stroke-width="1px"/>
 <rect x="32.72" y="133" width="147.52" height="2.7411" color="#000000" fill="#d63d27" stroke="#000" stroke-width="1px"/>
 <rect x="56.719" y="118.93" width="25.308" height="29.55" color="#000000" fill="#fff"/>
 <rect x="55.191" y="105.22" width="2.9903" height="61.549" color="#000000" fill="#d63d27" stroke="#000" stroke-width="1px"/>
 <rect x="81.475" y="118.93" width="25.308" height="29.55" color="#000000" fill="#fff"/>
 <rect x="104.7" y="105.22" width="2.9903" height="61.549" color="#000000" fill="#d63d27" stroke="#000" stroke-width="1px"/>
 <rect x="32.72" y="147.12" width="147.52" height="2.7411" color="#000000" fill="#d63d27" stroke="#000" stroke-width="1px"/>
 <rect x="128.53" y="119.42" width="25.417" height="45.103" color="#000000"/>
 <rect transform="rotate(10.3)" x="139.19" y="95.5" width="2.9902" height="45.878" color="#000000" fill="#d63d27" stroke="#000" stroke-width="1px"/>
 <rect transform="rotate(10.3)" x="67.382" y="108.55" width="2.9902" height="45.878" color="#000000" fill="#d63d27" stroke="#000" stroke-width="1px"/>
 <rect x="80.564" y="105.22" width="2.9903" height="61.549" color="#000000" fill="#d63d27" stroke="#000" stroke-width="1px"/>
 <rect transform="rotate(-12)" x="132.6" y="150.15" width="2.9902" height="45.878" color="#000000" fill="#d63d27" stroke="#000" stroke-width="1px"/>
 <rect x="32.72" y="163.15" width="147.52" height="2.7411" color="#000000" fill="#d63d27" stroke="#000" stroke-width="1px"/>
 <rect x="177.25" y="105.22" width="2.9903" height="60.67" color="#000000" fill="#d63d27" stroke="#000" stroke-width="1px"/>
 <rect x="31.598" y="105.22" width="2.9903" height="60.67" color="#000000" fill="#d63d27" stroke="#000" stroke-width="1px"/>
 <rect x="126.79" y="105.22" width="2.9903" height="61.549" color="#000000" fill="#d63d27" stroke="#000" stroke-width="1px"/>
 <rect x="152.58" y="105.22" width="2.9903" height="61.549" color="#000000" fill="#d63d27" stroke="#000" stroke-width="1px"/>
 <path d="m24.569 41.134h162.7l3 69.868h-168.7z" color="#000000" fill="#d63d27" stroke="#000" stroke-width="1px"/>
 <rect x="30.726" y="117.55" width="149.51" height="2.7411" color="#000000" fill="#d63d27" stroke="#000" stroke-width="1px"/>
 <path d="m64.945 22.449h10.863l1 28.534h-12.863z" color="#000000" fill="#fff" stroke="#000" stroke-width="1px"/>
 <rect x="62.007" y="21.997" width="16.651" height="3.8765" rx="1.2334" ry="1.2334" color="#000000" fill="#fff" stroke="#000" stroke-width="1px"/>
 <path d="m64.759 33.186h10.97" fill="none" stroke="#000" stroke-width="1px"/>
 <path d="m68.35 25.962v7.0481" fill="none" stroke="#000" stroke-width="1px"/>
 <path d="m72.403 25.962v7.0481" fill="none" stroke="#000" stroke-width="1px"/>
 <rect x="27.773" y="169.21" width="156.29" height="31.716" color="#000000" fill="#fff" stroke="#000" stroke-width="1px"/>
 <path d="m85.102 200.53v-5.5311h8.2979v-5.5311h8.298v-5.5311h8.298v-5.5311h8.298v-5.5311h8.298" fill="none" stroke="#000" stroke-width="1px"/>
 <rect x="130.83" y="173.24" width="22.178" height="27.66" color="#000000"/>
 <rect x="126.59" y="169.13" width="30.65" height="3.7378" color="#000000" fill="#fff" stroke="#000" stroke-width="1px"/>
 <rect x="126.59" y="169.13" width="30.65" height="3.7378" color="#000000" fill="#fff" stroke="#000" stroke-width="1px"/>
 <path d="m27.773 169.21h156.29l-3.8257-3.322h-148.64z" color="#000000" fill="#fff" stroke="#000" stroke-linejoin="bevel" stroke-width="1px"/>
 <path d="m85.102 200.53v-5.5311h8.2979v-5.5311h8.298v-5.5311h8.298v-5.5311h8.298v-5.5311h8.298" fill="none" stroke="#000" stroke-width="1px"/>
 <rect x="130.83" y="173.24" width="22.178" height="27.66" color="#000000"/>
 <rect x="61.199" y="122.66" width="7.1273" height="6.629" color="#000000"/>
 <rect x="61.199" y="130.39" width="7.1273" height="6.629" color="#000000"/>
 <rect x="61.199" y="138.11" width="7.1273" height="6.629" color="#000000"/>
 <rect x="70.419" y="122.66" width="7.1273" height="6.629" color="#000000"/>
 <rect x="70.419" y="130.39" width="7.1273" height="6.629" color="#000000"/>
 <rect x="70.419" y="138.11" width="7.1273" height="6.629" color="#000000"/>
 <rect x="85.955" y="122.66" width="7.1273" height="6.629" color="#000000"/>
 <rect x="85.955" y="130.39" width="7.1273" height="6.629" color="#000000"/>
 <rect x="85.955" y="138.11" width="7.1273" height="6.629" color="#000000"/>
 <rect x="95.175" y="122.66" width="7.1273" height="6.629" color="#000000"/>
 <rect x="95.175" y="130.39" width="7.1273" height="6.629" color="#000000"/>
 <rect x="95.175" y="138.11" width="7.1273" height="6.629" color="#000000"/>
</svg>
