<?xml version="1.0" encoding="iso-8859-1"?>
<!-- Generator: Adobe Illustrator 10.0, SVG Export Plug-In . SVG Version: 3.0.0 Build 77)  -->

<svg  xmlns="http://www.w3.org/2000/svg" xmlns:xlink="http://www.w3.org/1999/xlink" xmlns:a="http://ns.adobe.com/AdobeSVGViewerExtensions/3.0/"
	 width="283.465" height="318.897" viewBox="0 0 283.465 318.897"
	 style="overflow:visible;enable-background:new 0 0 283.465 318.897" xml:space="preserve">
	<g id="Wappenrand">
	</g>
	<g id="CMYK_Wappen">
		<path style="fill-rule:evenodd;clip-rule:evenodd;" d="M0,0h283.465v177.165c0,78.278-63.455,141.732-141.732,141.732
			S0,255.443,0,177.165V0z"/>
		
			<path style="fill-rule:evenodd;clip-rule:evenodd;fill:#F00000;stroke:#F00000;stroke-width:0.2835;stroke-miterlimit:3.8637;" d="
			M245.584,101.609h0.358c-2.732-9.596-5.166-19.298-7.735-28.938c-0.115-0.293-0.115-0.518-0.1-0.656
			c0.039-0.294,0-0.224,0.259-0.441c1.998-1.069,4.939-3.558,6.858-5.006c4.669-3.521,8.665-6.529,13.976-10.61
			c0.253-0.194,0.555-0.407,0.908-0.668c0.844-0.625,3.409-1.734,3.239-2.243c-0.106-0.318-1.052-0.194-2.113-0.22
			c-2.907,0.04-5.777-0.346-8.673-0.499c-2.555-0.134-5.156-0.08-7.716-0.1c-4.281-0.033-8.579-0.099-12.859-0.2
			c-0.862-1.771-1.55-3.642-2.292-5.464c-1.865-4.578-3.601-9.156-5.284-13.801c-1.313-3.626-2.929-7.284-3.987-10.989
			c-0.109-0.383-0.182-0.613-0.159-1.097c-0.337-0.228-0.386-0.187-0.777-0.12c-0.974,1.909-1.659,3.942-2.413,5.943
			c-1.435,3.812-2.779,7.606-4.066,11.468c-1.18,3.539-2.295,7.125-3.569,10.63c-0.396,1.089-0.915,2.167-1.256,3.271
			c-2.277,0.398-5.486,0.162-7.795,0.186c-5.709,0.059-11.417,0.05-17.126,0.133c-1.968,0.028-3.973,0.445-5.941,0.578
			c0.061,0.106,0.105,0.237,0.12,0.359c1.348,1.034,2.713,2.07,4.007,3.171c0.504,0.429,0.946,0.937,1.455,1.356
			c4.74,3.901,9.532,7.758,14.315,11.607c1.367,1.101,2.624,2.497,3.927,3.689c-1.89,6.667-4.289,13.232-6.479,19.804
			c-0.146,0.437-0.514,0.861-0.658,1.297c-0.219,0.654-0.3,1.384-0.499,2.054c-0.181,0.611-0.468,1.206-0.638,1.815
			c-0.225,0.806-0.24,1.676-0.458,2.493c8.646-5.03,17.257-10.546,25.878-15.696c3.074,0.955,6.13,3.285,8.813,4.986l10.526,6.661
			C240.292,98.057,243.061,99.7,245.584,101.609z M122.233,223.606c9.603-0.189,19.231-0.12,28.836-0.119
			c3.602,0,7.222-0.4,10.818-0.239c-0.229-0.384-0.797-1.244-0.757-1.755c-0.624-0.625-1.086-1.505-1.236-2.374
			c-0.254-0.161-0.403-0.427-0.618-0.558c-0.282-1.418-0.846-2.754-1.275-4.128c-0.599-1.909-1.125-4.331-1.217-6.342
			c-0.148-3.268-0.053-6.587-0.066-9.859c-0.032-7.552-0.033-15.105-0.033-22.656l0.02-22.171c0-5.338-0.072-10.699,0.08-16.035
			c4.852-0.104,9.723-0.319,14.574-0.319c2.63,0,5.265,0.097,7.895,0.12l6.799,0.06c1.084,0.009,2.322-0.088,3.39,0.04
			c0.956,0.114,6.487,1.786,7.316,2.134c0.566,0.238,2.554,1.632,3.19,1.596c-0.038-1.819,0.06-3.589,0.06-5.398
			c0-5.328-0.007-10.655-0.12-15.982c-0.064-3.062-0.075-6.159-0.239-9.214c-0.044-0.821-0.31-1.729-0.438-2.553h-0.498
			c-3.19,2.225-5.637,2.982-9.351,3.969c-0.594,0.158-1.314,0.451-1.914,0.518c-1.104,0.125-2.308,0.054-3.423,0.067
			c-2.888,0.034-5.777,0.02-8.666,0.046c-6.129,0.056-12.329,0.115-18.454-0.113c-0.639-1.525-0.391-9.15-0.405-11.062
			c-0.031-4.011-0.073-8.021-0.073-12.033c0-2.52-0.221-5.75,0.079-8.217c0.124-1.02,0.583-2.127,0.838-3.131
			c0.149-0.59,0.236-1.27,0.458-1.835c0.85-2.154,2.081-4.368,3.131-6.442c-0.15-0.08-0.431-0.188-0.599-0.199
			c-0.844-0.061-1.942,0.162-2.811,0.179l-8.766,0.18c-8.13,0.171-16.261,0.222-24.39,0.399c1.212,1.299,3.388,5.352,3.867,7.021
			c0.119,0.414,0.878,6.401,0.878,6.88l-0.021,17.052c0,3.638,0.146,7.418-0.199,11.049c-1.184,0.11-2.401,0.283-3.589,0.299
			c-5.337,0.073-10.673,0.119-16.01,0.16c-2.738,0.021-5.475,0.016-8.214,0c-1.239-0.008-2.536,0.087-3.768,0
			c-0.632-0.045-1.346-0.269-1.974-0.399c-3.502-0.728-4.533-1.274-7.437-3.251c-0.105,0.041-0.244,0.079-0.359,0.06
			c0.124,1.104,0.18,2.28,0.18,3.391c0,9.686-0.271,19.375-0.22,29.058c1.409-0.224,2.447-1.052,3.729-1.595
			c1.765-0.748,8.65-2.632,10.208-2.632c7.27,0,14.542-0.047,21.811,0.02c1.626,0.015,3.65-0.146,5.244,0.12
			c0.217,0.037,0.616,0.558,0.618,0.758c0.11,14.8,0.152,29.603,0.093,44.401l-0.047,15.437c-0.014,2.897,0.073,5.836-0.046,8.729
			c-0.057,1.355-0.959,5.345-1.376,6.641c-0.203,0.629-0.604,1.319-0.884,1.928c-0.574,1.25-1.123,2.619-1.788,3.815
			C124.213,220.653,123.114,222.078,122.233,223.606z M87.843,101.609c0.021-0.078,0.266,0.055,0.06-0.897
			c-0.794-3.666-1.629-7.322-2.492-10.969c-0.884-3.73-1.807-7.456-2.691-11.188c-0.315-1.328-0.738-2.708-0.957-4.049
			c0,0-0.344-1.362,0.14-1.954c1.082-1.325,2.546-2.203,3.801-3.324c0.367-0.328,0.712-0.787,1.084-1.083
			c0.451-0.36,10.311-7.886,16.607-13.283c0.624-0.534,1.383-1.243,1.595-1.376c-0.073-0.197-0.13-0.409-0.159-0.618
			c-4.854-0.418-9.749-0.379-14.614-0.379l-14.674-0.02c-0.09-0.074-0.398-0.748-0.62-1.241c-0.281-0.63-0.525-1.222-0.636-1.651
			c-0.303-1.183-0.836-2.417-1.256-3.57c-2.184-5.995-4.414-11.941-7.018-17.77c-0.637-1.424-1.688-4.549-2.452-5.764
			c0,0-0.201-0.37-0.479,0c-0.634,1.448-0.908,2.894-1.396,4.428c-0.267,0.839-0.685,1.646-0.957,2.493
			c-1.477,4.591-2.978,9.16-4.545,13.721c-1.034,3.009-1.921,6.188-3.27,9.075c-0.305,0.601-1.112,0.313-1.596,0.319L34.684,52.72
			c-2.77,0.036-5.584-0.035-8.347,0.106c-2.025,0.104-4.242,0.51-6.261,0.798c-0.155,0.29,0.907,1.29,0.907,1.29
			c0.522,0.41,1.275,0.985,1.346,1.043c0.414,0.342,2.758,1.979,3.43,2.533c0.71,0.586,1.132,0.787,1.85,1.361
			c0.364,0.292,0.985,1.001,1.34,1.292c2.086,1.708,4.331,3.274,6.479,4.906c3.583,2.721,7.138,5.5,10.767,8.157
			c-0.119,0.514-0.197,1.148-0.359,1.636c-2.563,7.692-5.072,15.403-7.636,23.095c-0.171,0.514-0.294,1.986-0.398,2.533
			c3.361-2.088,6.606-4.301,9.929-6.442c4.759-3.068,9.571-6.082,14.354-9.115c0,0,0.837-0.437,1.296,0
			c2.006,1.33,3.922,2.809,5.921,4.148C75.307,94.085,81.599,97.97,87.843,101.609z M201.14,298.891
			c1.662-2.209,3.023-4.057,3.354-4.623c1.176-2.016,1.942-4.266,2.546-6.502c0.391-1.45,0.946-3.101,1.083-4.607
			c0.079-0.867,0-1.822,0-2.699c0-1.066,0.054-2.162,0-3.224c-0.21-4.136-2.542-9.242-4.984-12.485
			c-1.416-1.88-2.648-3.506-4.727-5.367c-0.709-0.564-1.119-0.915-1.793-1.354c-0.729-0.476-1.588-0.721-2.346-1.084
			c-1.511-0.724-3.047-1.474-4.632-2.027c-3.356-1.173-8.296-1.66-11.803-1.217c-3.288,0.416-6.533,1.958-9.63,3.091
			c-0.228-1.388-0.26-2.934-0.598-4.288c-0.38-1.52-1.345-4.486-1.994-5.884c-0.694-1.496-1.665-2.793-2.632-4.108
			c-0.596-0.812-1.161-1.785-1.854-2.513c-1.122-1.181-2.607-2.582-3.888-3.55c-2.514-1.899-7.357-4.201-10.507-4.667
			c-1.151-0.17-2.335-0.253-3.496-0.352c-0.973-0.083-1.943-0.218-2.924-0.167c-2.354,0.124-4.733,0.676-6.978,1.336
			c-1.081,0.318-2.316,0.584-3.35,1.017c-0.23,0.096-0.565,0.469-0.798,0.618c-1.343,0.862-2.565,1.55-3.788,2.573
			c-0.788,0.66-1.717,1.303-2.432,2.034c-1.111,1.136-3.873,4.551-4.526,5.963c-1.317,2.85-2.105,6.199-3.011,9.194
			c-0.282,0.936-0.234,2.288-0.398,3.291c-1.893-0.804-3.756-1.899-5.682-2.593c-2.113-0.761-4.777-1.19-6.979-1.496
			c-1.771-0.246-4.254,0.027-6.001,0.339c-4.611,0.823-7.515,1.708-11.424,4.547c-1.018,0.739-2.255,1.632-3.09,2.573
			c-0.851,0.959-1.648,2.025-2.439,3.039c-1.419,1.818-2.933,3.907-3.841,6.036c-0.809,1.896-1.37,6.197-1.635,8.177
			c-0.172,1.282-0.072,3.591,0,4.926c0.139,2.552,1.486,7.185,2.473,9.513c0.271,0.643,1.123,2.527,2.032,4.576
			c-42.96-22.837-72.232-68.208-72.232-120.452V6.26h270.99v170.218C277.209,230.263,246.185,276.763,201.14,298.891z"/>
		<g>
			<path style="fill-rule:evenodd;clip-rule:evenodd;fill:#FFFFFF;" d="M128.479,219.403h26.915
				c-0.209-1.411-0.943-2.723-1.436-4.048c-0.724-1.945-1.26-5.389-1.376-7.479c-0.146-2.614-0.069-5.295-0.113-7.917
				c-0.108-6.55-0.166-13.094-0.166-19.645v-43.019c0-1.152,0.25-2.333,0.279-3.49c1.433-0.212,3.176-0.598,4.605-0.598l23.246,0.02
				c0.753,0,7.905-0.092,8.573,0.12c0.742,0.235,6.67,2.328,7.277,2.354c0.029-1.022-0.288-1.838-0.339-2.792
				c-0.104-1.918,0.117-18.62-0.359-19.884c-1.172,0.459-2.512,1.121-3.729,1.396c-5.994,1.357-15.523,0.909-21.711,0.877
				c-5.81-0.029-11.64,0.029-17.444-0.179c-0.57-2.802-0.3-9.185-0.3-12.066c0-3.769-0.035-7.54-0.06-11.309
				c-0.01-1.538-0.101-3.113-0.04-4.646c0.079-2.006,0.721-5.648,0.997-7.818c0.256-0.311,0.336-0.86,0.419-1.177
				c0.469-1.795,1.358-3.354,1.834-5.105c-0.884-0.052-1.766-0.243-2.651-0.26c-7.905-0.147-15.855,0.06-23.766,0.06
				c0.627,1.135,1.385,2.458,1.734,3.69c0.173,0.607,0.178,1.38,0.26,2.014c0.255,1.965,0.625,3.987,0.737,5.963
				c0.11,1.936,0.027,3.922,0.04,5.863c0.057,8.244-0.265,16.642,0.519,24.851c-7.007,0.058-14.014,0.089-21.021,0.133
				c-3.121,0.02-6.242,0.046-9.363,0.046c-1.637,0-3.521,0.15-5.144-0.1c-1.876-0.289-3.021-0.681-4.845-1.164
				c-0.828-0.382-1.432-0.875-1.695-0.611c0.184,2.026,0.447,4.194,0.459,6.223c0.031,5.405-0.299,10.814-0.299,16.214
				c0.261,0.454,0.498,0.084,0.737,0.14c1.854-1.39,6.741-2.467,9.131-2.712c1.623-0.167,3.388-0.083,5.024-0.1
				c2.899-0.03,5.8-0.04,8.699-0.04h13.83c0.64,0,1.681,0.11,2.329,0.137c0.598,0.025,0.892,0.148,1.498,0.162
				c0.049,0.141,0.26,0.679,0.26,0.798c-0.106,24.027-0.054,48.053-0.16,72.078c-0.003,0.665-0.673,5.981-0.837,6.622
				C130.597,214.692,129.183,217.642,128.479,219.403z"/>
			<path style="fill-rule:evenodd;clip-rule:evenodd;fill:#FFFFFF;" d="M83.018,94.15h0.339c-1.62-5.018-3.081-10.104-4.586-15.157
				c-0.075-0.256-0.519-2.156-0.697-2.853c-0.377-1.468-1.715-5.789-1.455-6.422c1.914-1.216,3.886-2.344,5.781-3.59
				c1.018-0.669,2.002-1.555,3.004-2.267c3.842-2.732,7.648-5.517,11.45-8.304c-5.852-0.196-11.71-0.205-17.564-0.266
				c-1.954-0.021-6.167,0.21-7.954-0.133c-2.597-8.267-5.156-16.584-7.557-24.91l-0.299,0.14c-1.611,4.606-3.103,9.258-4.665,13.881
				c-1.248,3.691-2.565,7.298-3.47,11.089c-0.14,0.04-0.556,0.3-0.638,0.299c-9.05-0.106-18.105-0.097-27.154-0.259
				c0.052,0.069-0.319,0.015,0.399,0.558c4.222,3.195,8.653,6.102,12.979,9.154c3.09,2.18,6.076,4.477,9.351,6.362
				c0.028,0.049,0.098,0.226,0.079,0.279c-1.533,4.602-3.094,9.212-4.665,13.802c-0.929,2.715-1.976,5.42-2.552,8.236
				c6.457-4.347,12.944-8.732,18.94-13.701c0,0,0.274-0.301,0.638,0C69.558,84.661,76.28,89.432,83.018,94.15z"/>
			<path style="fill-rule:evenodd;clip-rule:evenodd;fill:#FFFFFF;" d="M239.622,93.153c0.008-0.163,0.12-0.569,0.08-0.698
				c-2.229-7.222-4.569-14.344-6.711-21.591l-0.238-0.359c-0.111-0.475,0.143-0.589,0.238-0.657c2.494-1.667,4.679-3.254,7.17-4.915
				c0.797-0.532,1.738-0.87,2.531-1.396c4.157-2.761,8.318-5.519,12.381-8.416l-16.328-0.22c-2.455-0.033-4.947,0.048-7.396-0.08
				c-1.15-0.06-2.323-0.452-3.489-0.539c-2.505-8.88-5.268-17.705-8.094-26.485c-0.134-0.109-0.52,0.343-0.539,0.398
				c-2.246,6.448-4.483,12.905-6.672,19.373c-0.575,1.699-1.375,5.333-1.94,6.655c-0.129,0.301-0.549,0.667-0.758,0.937
				c-0.875-0.012-1.765-0.16-2.632-0.16c-7.274,0-14.601-0.126-21.87,0.22c4.25,3.031,8.481,6.087,12.719,9.134
				c1.321,0.95,6.423,4.31,7.397,5.524c-0.267,0.446-0.204,0.956-0.339,1.436c-0.174,0.617-0.516,1.292-0.758,1.895
				c-2.48,6.155-4.318,12.501-6.42,18.787c3.656-1.705,7.168-4.013,10.58-6.149c3.369-2.109,6.771-4.168,10.154-6.255h0.459
				c0.039,0.075,0.234,0.46,0.279,0.499c1.432,1.228,5.053,3.63,6.738,4.687c2.09,1.31,4.412,2.3,6.479,3.63
				c0.468,0.301,0.913,0.748,1.389,1.07C235.878,90.729,237.751,91.942,239.622,93.153z"/>
		</g>
		<g>
			
				<path style="fill-rule:evenodd;clip-rule:evenodd;fill:#009944;stroke:#009944;stroke-width:0.2835;stroke-miterlimit:3.8637;" d="
				M92.959,303.571c-0.449-0.45-0.942-0.529-1.062-0.6c-3.615-2.17-5.684-4.107-8.262-7.546c-0.806-1.074-1.46-2.005-2.233-3.386
				c-0.692-1.656-1.048-2.851-1.495-4.353c-0.633-2.125-0.992-4.377-1.137-6.581l0.3-0.579c-0.07-0.093-0.153-0.18-0.239-0.259
				c0-1.204-0.196-2.66-0.061-3.829c0.235-2.016,1.674-5.804,2.692-7.599c0.986-1.74,2.37-3.111,3.628-4.627
				c0.134-0.003,0.273-0.036,0.398-0.08v-0.359c1.727-1.353,3.499-2.628,5.483-3.59c5.598-2.712,13.164-2.809,18.78,0
				c1.893,0.946,3.67,2.296,5.503,3.371c0.839,1.741,2.827,2.554,4.027,4.009c0.998,1.21,1.773,2.742,2.691,4.028h0.339
				c-0.81-2.402-1.728-4.88-2.393-7.319c-0.542-1.988-0.696-5.989-0.498-7.998c0.118-1.205,0.493-2.522,0.757-3.709
				c0.088-0.396,0.107-0.881,0.239-1.257c0.794-2.258,1.931-4.493,3.39-6.382c0.55-0.711,1.708-2.222,3.051-3.387
				c1.045-0.906,1.906-1.501,2.891-2.058c6.052-3.422,12.753-4.196,19.259-1.755c0.707,0.265,1.622,0.502,2.273,0.858
				c1.589,0.869,3.12,2.017,4.565,3.111c0.492,0.373,0.847,0.897,1.396,1.137l0.339,0.339c0.344,1.005,2.745,3.895,3.409,5.146
				c1.457,2.744,1.958,5.537,2.272,8.576c0.058,0.554,0.22,1.188,0.22,1.735c0,0.716-0.354,4.54-0.519,5.146
				c-0.362,1.329-0.874,2.737-1.376,4.029c-0.118,0.304-0.273,0.703-0.458,0.957c-0.355,0.49,0.041,0.476,0.06,0.579
				c0.718-0.917,1.502-2.027,2.333-2.832c2.8-2.714,6.855-5.882,10.666-6.98c0.602-0.173,1.713-0.508,2.331-0.634
				c1.046-0.212,1.739-0.248,2.793-0.363c3.212-0.351,6.695,0.313,9.689,1.437c0.518,0.194,1.152,0.298,1.635,0.558
				c1.161,0.625,3.706,2.239,4.744,3.032c0.868,0.663,1.661,1.609,2.373,2.433c3.755,4.345,5.722,9.129,5.722,14.898
				c0,2.102-0.425,5.766-1.336,7.639c-0.659,1.355-1.509,2.674-2.272,3.976c-0.638,1.086-1.203,2.406-1.954,3.404
				c-0.406,0.541-3.436,4.069-4.087,4.607c-0.287,0.238-0.417,0.698-0.733,0.931c-0.82,0.603-1.31,1.066-2.167,1.593
				c-0.204,0.126-1.324,0.543-1.94,1.102c-14.718,5.507-30.646,8.517-47.272,8.517C124.526,312.652,108.087,309.437,92.959,303.571z
				"/>
		</g>
	</g>
</svg>
