<?xml version="1.0" encoding="UTF-8" standalone="no"?>
<!-- Created with Inkscape (http://www.inkscape.org/) -->
<svg
   xmlns:svg="http://www.w3.org/2000/svg"
   xmlns="http://www.w3.org/2000/svg"
   version="1.0"
   width="366.07001"
   height="419.29001"
   id="svg2">
  <defs
     id="defs4">
    <clipPath
       id="clipPath3148">
      <path
         d="M 418.2,412.68 L 421.44,412.68 L 421.44,400.32 L 418.2,400.32 L 418.2,412.68 z"
         id="path3150" />
    </clipPath>
    <clipPath
       id="clipPath3096">
      <path
         d="M 354.48,410.28 L 418.19,410.28 L 418.19,338.65 L 354.48,338.65 L 354.48,410.28 z"
         id="path3098" />
    </clipPath>
    <clipPath
       id="clipPath3084">
      <path
         d="M 354.48,410.28 L 418.19,410.28 L 418.19,338.65 L 354.48,338.65 L 354.48,410.28 z"
         id="path3086" />
    </clipPath>
    <clipPath
       id="clipPath3010">
      <path
         d="M 418.2,312.72 L 421.44,312.72 L 421.44,300.36 L 418.2,300.36 L 418.2,312.72 z"
         id="path3012" />
    </clipPath>
    <clipPath
       id="clipPath2926">
      <path
         d="M 354.48,310.32 L 418.19,310.32 L 418.19,238.69 L 354.48,238.69 L 354.48,310.32 z"
         id="path2928" />
    </clipPath>
    <clipPath
       id="clipPath2914">
      <path
         d="M 354.48,310.32 L 418.19,310.32 L 418.19,238.69 L 354.48,238.69 L 354.48,310.32 z"
         id="path2916" />
    </clipPath>
    <clipPath
       id="clipPath2824">
      <path
         d="M 418.2,212.64 L 421.44,212.64 L 421.44,200.29 L 418.2,200.29 L 418.2,212.64 z"
         id="path2826" />
    </clipPath>
    <clipPath
       id="clipPath2792">
      <path
         d="M 354.48,210.24 L 418.19,210.24 L 418.19,138.6 L 354.48,138.6 L 354.48,210.24 z"
         id="path2794" />
    </clipPath>
    <clipPath
       id="clipPath2780">
      <path
         d="M 354.48,210.24 L 418.19,210.24 L 418.19,138.6 L 354.48,138.6 L 354.48,210.24 z"
         id="path2782" />
    </clipPath>
    <clipPath
       id="clipPath2710">
      <path
         d="M 422.04,110.76 L 422.04,135.12 L 549.12,135.12 L 549.12,110.76 L 545.88,110.76 L 545.88,125.88 L 425.28,125.88 L 425.28,110.76 L 422.04,110.76 z"
         id="path2712" />
    </clipPath>
    <clipPath
       id="clipPath2688">
      <path
         d="M 351.12,110.76 L 351.12,135.12 L 354.48,135.12 L 354.48,110.76 L 351.12,110.76 z M 418.32,110.76 L 418.32,135.12 L 421.56,135.12 L 421.56,110.76 L 418.32,110.76 z"
         id="path2690" />
    </clipPath>
    <clipPath
       id="clipPath2666">
      <path
         d="M 288.84,110.76 L 288.84,135.12 L 350.64,135.12 L 350.64,110.76 L 347.4,110.76 L 347.4,132.84 L 292.08,132.84 L 292.08,110.76 L 288.84,110.76 z"
         id="path2668" />
    </clipPath>
    <clipPath
       id="clipPath2650">
      <path
         d="M 147.12,110.76 L 147.12,135.12 L 288.36,135.12 L 288.36,110.76 L 285.12,110.76 L 285.12,125.88 L 150.36,125.88 L 150.36,110.76 L 147.12,110.76 z"
         id="path2652" />
    </clipPath>
    <clipPath
       id="clipPath2634">
      <path
         d="M 67.68,110.76 L 67.68,135.12 L 146.64,135.12 L 146.64,110.76 L 143.28,110.76 L 143.28,125.88 L 70.92,125.88 L 70.92,110.76 L 67.68,110.76 z"
         id="path2636" />
    </clipPath>
    <clipPath
       id="clipPath2502">
      <path
         d="M 70.92,803.76 L 574.44,803.76 L 574.44,774.97 L 70.92,774.97 L 70.92,803.76 z"
         id="path2504" />
    </clipPath>
    <clipPath
       id="clipPath2480">
      <path
         d="M 70.92,803.76 L 574.44,803.76 L 574.44,801.97 L 70.92,801.97 L 70.92,803.76 z"
         id="path2482" />
    </clipPath>
    <clipPath
       id="clipPath2470">
      <path
         d="M 70.92,776.76 L 574.44,776.76 L 574.44,774.97 L 70.92,774.97 L 70.92,776.76 z"
         id="path2472" />
    </clipPath>
    <clipPath
       id="clipPath6014">
      <path
         d="M 418.2,712.68 L 421.56,712.68 L 421.56,700.33 L 418.2,700.33 L 418.2,712.68 z"
         id="path6016" />
    </clipPath>
    <clipPath
       id="clipPath5986">
      <path
         d="M 354.48,710.28 L 418.19,710.28 L 418.19,638.65 L 354.48,638.65 L 354.48,710.28 z"
         id="path5988" />
    </clipPath>
    <clipPath
       id="clipPath5974">
      <path
         d="M 354.48,710.28 L 418.19,710.28 L 418.19,638.65 L 354.48,638.65 L 354.48,710.28 z"
         id="path5976" />
    </clipPath>
    <clipPath
       id="clipPath5900">
      <path
         d="M 418.2,612.72 L 421.56,612.72 L 421.56,600.36 L 418.2,600.36 L 418.2,612.72 z"
         id="path5902" />
    </clipPath>
    <clipPath
       id="clipPath5870">
      <path
         d="M 354.48,610.32 L 418.19,610.32 L 418.19,538.68 L 354.48,538.68 L 354.48,610.32 z"
         id="path5872" />
    </clipPath>
    <clipPath
       id="clipPath5858">
      <path
         d="M 354.48,610.32 L 418.19,610.32 L 418.19,538.68 L 354.48,538.68 L 354.48,610.32 z"
         id="path5860" />
    </clipPath>
    <clipPath
       id="clipPath5784">
      <path
         d="M 418.2,512.64 L 421.56,512.64 L 421.56,500.28 L 418.2,500.28 L 418.2,512.64 z"
         id="path5786" />
    </clipPath>
    <clipPath
       id="clipPath5768">
      <path
         d="M 354.48,510.24 L 418.19,510.24 L 418.19,438.61 L 354.48,438.61 L 354.48,510.24 z"
         id="path5770" />
    </clipPath>
    <clipPath
       id="clipPath5756">
      <path
         d="M 354.48,510.24 L 418.19,510.24 L 418.19,438.61 L 354.48,438.61 L 354.48,510.24 z"
         id="path5758" />
    </clipPath>
    <clipPath
       id="clipPath5686">
      <path
         d="M 418.2,412.68 L 421.56,412.68 L 421.56,400.32 L 418.2,400.32 L 418.2,412.68 z"
         id="path5688" />
    </clipPath>
    <clipPath
       id="clipPath5654">
      <path
         d="M 354.48,410.28 L 418.19,410.28 L 418.19,338.65 L 354.48,338.65 L 354.48,410.28 z"
         id="path5656" />
    </clipPath>
    <clipPath
       id="clipPath5642">
      <path
         d="M 354.48,410.28 L 418.19,410.28 L 418.19,338.65 L 354.48,338.65 L 354.48,410.28 z"
         id="path5644" />
    </clipPath>
    <clipPath
       id="clipPath5564">
      <path
         d="M 418.2,312.72 L 421.56,312.72 L 421.56,300.36 L 418.2,300.36 L 418.2,312.72 z"
         id="path5566" />
    </clipPath>
    <clipPath
       id="clipPath5408">
      <path
         d="M 354.48,310.32 L 418.19,310.32 L 418.19,238.69 L 354.48,238.69 L 354.48,310.32 z"
         id="path5410" />
    </clipPath>
    <clipPath
       id="clipPath5396">
      <path
         d="M 354.48,310.32 L 418.19,310.32 L 418.19,238.69 L 354.48,238.69 L 354.48,310.32 z"
         id="path5398" />
    </clipPath>
    <clipPath
       id="clipPath5320">
      <path
         d="M 418.2,212.64 L 421.56,212.64 L 421.56,200.29 L 418.2,200.29 L 418.2,212.64 z"
         id="path5322" />
    </clipPath>
    <clipPath
       id="clipPath5222">
      <path
         d="M 354.48,210.24 L 418.19,210.24 L 418.19,138.6 L 354.48,138.6 L 354.48,210.24 z"
         id="path5224" />
    </clipPath>
    <clipPath
       id="clipPath5210">
      <path
         d="M 354.48,210.24 L 418.19,210.24 L 418.19,138.6 L 354.48,138.6 L 354.48,210.24 z"
         id="path5212" />
    </clipPath>
    <clipPath
       id="clipPath5136">
      <path
         d="M 422.04,110.76 L 422.04,135.12 L 549.12,135.12 L 549.12,110.76 L 545.88,110.76 L 545.88,125.88 L 425.28,125.88 L 425.28,110.76 L 422.04,110.76 z"
         id="path5138" />
    </clipPath>
    <clipPath
       id="clipPath5114">
      <path
         d="M 351.12,110.76 L 351.12,135.12 L 354.48,135.12 L 354.48,110.76 L 351.12,110.76 z M 418.32,110.76 L 418.32,135.12 L 421.56,135.12 L 421.56,110.76 L 418.32,110.76 z"
         id="path5116" />
    </clipPath>
    <clipPath
       id="clipPath5092">
      <path
         d="M 288.84,110.76 L 288.84,135.12 L 350.64,135.12 L 350.64,110.76 L 347.4,110.76 L 347.4,132.84 L 292.08,132.84 L 292.08,110.76 L 288.84,110.76 z"
         id="path5094" />
    </clipPath>
    <clipPath
       id="clipPath5076">
      <path
         d="M 147.12,110.76 L 147.12,135.12 L 288.36,135.12 L 288.36,110.76 L 285.12,110.76 L 285.12,125.88 L 150.36,125.88 L 150.36,110.76 L 147.12,110.76 z"
         id="path5078" />
    </clipPath>
    <clipPath
       id="clipPath5060">
      <path
         d="M 67.68,110.76 L 67.68,135.12 L 146.64,135.12 L 146.64,110.76 L 143.28,110.76 L 143.28,125.88 L 70.92,125.88 L 70.92,110.76 L 67.68,110.76 z"
         id="path5062" />
    </clipPath>
    <clipPath
       id="clipPath4928">
      <path
         d="M 70.92,803.76 L 574.44,803.76 L 574.44,774.97 L 70.92,774.97 L 70.92,803.76 z"
         id="path4930" />
    </clipPath>
    <clipPath
       id="clipPath4906">
      <path
         d="M 70.92,803.76 L 574.44,803.76 L 574.44,801.97 L 70.92,801.97 L 70.92,803.76 z"
         id="path4908" />
    </clipPath>
    <clipPath
       id="clipPath4896">
      <path
         d="M 70.92,776.76 L 574.44,776.76 L 574.44,774.97 L 70.92,774.97 L 70.92,776.76 z"
         id="path4898" />
    </clipPath>
  </defs>
  <g
     transform="translate(-153.1696,-432.00417)"
     id="layer1">
    <g
       transform="matrix(4.3599328,0,0,4.3599328,-1050.4999,-4209.9144)"
       id="g8632">
      <g
         transform="matrix(1.25,0,0,1.25,-164.8686,394.64235)"
         clip-path="url(#clipPath5858)"
         id="g5856">
        <g
           id="g5862">
          <path
             d="M 354.59,538.78 L 418.09,538.78 L 418.09,578.47 L 418.09,578.47 L 418.09,580.09 L 417.92,581.72 L 417.75,583.28 L 417.47,584.85 L 417.08,586.42 L 416.68,587.93 L 416.18,589.39 L 415.62,590.84 L 414.95,592.24 L 414.28,593.58 L 413.5,594.92 L 412.71,596.21 L 411.82,597.44 L 410.86,598.67 L 409.85,599.8 L 408.8,600.91 L 407.73,601.98 L 406.55,602.93 L 405.38,603.88 L 404.09,604.78 L 402.8,605.62 L 401.51,606.34 L 400.11,607.07 L 398.71,607.69 L 397.26,608.24 L 395.8,608.75 L 394.29,609.2 L 392.77,609.53 L 391.21,609.81 L 389.59,610.03 L 388.02,610.15 L 386.34,610.21 L 386.34,610.21 L 384.71,610.15 L 383.09,610.03 L 381.52,609.81 L 379.96,609.53 L 378.44,609.2 L 376.93,608.75 L 375.42,608.24 L 374.02,607.69 L 372.62,607.07 L 371.22,606.34 L 369.88,605.62 L 368.59,604.78 L 367.36,603.88 L 366.18,602.93 L 365,601.98 L 363.95,600.91 L 362.88,599.8 L 361.87,598.67 L 360.92,597.44 L 360.02,596.21 L 359.23,594.92 L 358.45,593.58 L 357.73,592.24 L 357.11,590.84 L 356.55,589.39 L 356.05,587.93 L 355.6,586.42 L 355.26,584.85 L 354.98,583.28 L 354.76,581.72 L 354.64,580.09 L 354.59,578.47 L 354.59,538.78 z"
             id="path5864"
             style="fill:#000000;fill-opacity:1;fill-rule:evenodd;stroke:none" />
        </g>
      </g>
      <g
         transform="matrix(1.25,0,0,1.25,-164.8686,394.64235)"
         clip-path="url(#clipPath5870)"
         id="g5868">
        <path
           d="M 416.68,554.74 L 355.99,554.74 L 355.99,540.19 L 416.68,540.19 L 416.68,554.74 z"
           id="path5874"
           style="fill:#f00000;fill-opacity:1;fill-rule:nonzero;stroke:#f00000;stroke-width:0.12;stroke-linecap:round;stroke-linejoin:round;stroke-miterlimit:10;stroke-dasharray:none;stroke-opacity:1" />
        <path
           d="M 367.81,597.44 L 366.63,597.44 L 366.74,571.03 L 365.11,571.03 L 365.11,570.02 L 370.49,570.02 L 370.49,571.03 L 369.04,571.03 L 368.98,596.83 L 367.81,596.83 L 367.81,597.44 z"
           id="path5876"
           style="fill:#0093dd;fill-opacity:1;fill-rule:evenodd;stroke:#0093dd;stroke-width:0.12;stroke-linecap:round;stroke-linejoin:round;stroke-miterlimit:10;stroke-dasharray:none;stroke-opacity:1" />
        <path
           d="M 373.46,594.98 L 372.56,594.98 L 372.56,593.58 L 369.6,593.58 L 369.6,587.71 L 372.56,587.71 L 372.51,586.19 L 373.52,586.19 L 373.52,588.83 L 372.06,588.83 L 372.06,592.69 L 373.46,592.69 L 373.46,594.98 z"
           id="path5878"
           style="fill:#0093dd;fill-opacity:1;fill-rule:evenodd;stroke:#0093dd;stroke-width:0.12;stroke-linecap:round;stroke-linejoin:round;stroke-miterlimit:10;stroke-dasharray:none;stroke-opacity:1" />
        <path
           d="M 367.75,566.33 L 367.75,566.33 L 368.03,566.55 L 368.36,566.78 L 368.7,566.94 L 369.15,567.05 L 369.15,567.05 L 369.43,567.05 L 369.71,567 L 369.99,566.94 L 370.21,566.83 L 370.44,566.72 L 370.61,566.55 L 370.77,566.33 L 370.94,566.05 L 370.94,566.05 L 371.05,565.71 L 371.05,565.26 L 371.05,565.26 L 370.94,564.87 L 370.72,564.53 L 370.72,564.53 L 370.55,564.37 L 370.38,564.2 L 370.04,563.98 L 370.04,563.98 L 370.55,563.53 L 370.77,563.25 L 370.94,562.97 L 370.94,562.97 L 371.05,562.58 L 371.05,562.24 L 370.99,561.91 L 370.88,561.62 L 370.72,561.4 L 370.49,561.17 L 370.27,561.01 L 369.99,560.84 L 369.71,560.73 L 369.38,560.73 L 369.09,560.73 L 368.76,560.78 L 368.48,560.9 L 368.2,561.07 L 367.97,561.34 L 367.81,561.62 L 367.81,561.62 L 367.52,561.4 L 367.36,561.17 L 367.13,560.96 L 366.74,560.78 L 366.74,560.78 L 366.46,560.73 L 366.18,560.73 L 365.9,560.78 L 365.57,560.84 L 365.29,560.96 L 365.06,561.17 L 364.84,561.34 L 364.67,561.62 L 364.67,561.62 L 364.5,562.01 L 364.45,562.35 L 364.45,562.74 L 364.56,563.14 L 364.56,563.14 L 364.73,563.36 L 364.89,563.58 L 365.11,563.75 L 365.34,563.86 L 365.34,563.98 L 365.34,563.98 L 365.06,564.26 L 364.84,564.53 L 364.67,564.87 L 364.61,565.15 L 364.56,565.48 L 364.61,565.76 L 364.67,566.05 L 364.79,566.33 L 364.95,566.55 L 365.17,566.78 L 365.4,566.94 L 365.68,567.05 L 366.02,567.11 L 366.29,567.16 L 366.63,567.11 L 367.02,567 L 367.02,567 L 367.24,566.89 L 367.41,566.72 L 367.75,566.33 L 367.75,566.33 z M 362.88,563.98 L 362.88,563.98 L 362.93,563.47 L 362.99,562.97 L 363.11,562.52 L 363.27,562.07 L 363.49,561.62 L 363.72,561.23 L 364,560.84 L 364.33,560.45 L 364.67,560.17 L 365.06,559.83 L 365.51,559.61 L 365.9,559.39 L 366.4,559.22 L 366.86,559.1 L 367.36,559.05 L 367.86,558.99 L 367.86,558.99 L 368.36,559.05 L 368.87,559.1 L 369.32,559.22 L 369.82,559.39 L 370.21,559.61 L 370.66,559.83 L 371.05,560.17 L 371.39,560.45 L 371.72,560.84 L 372.01,561.23 L 372.23,561.62 L 372.45,562.07 L 372.62,562.52 L 372.73,562.97 L 372.79,563.47 L 372.85,563.98 L 372.85,563.98 L 372.79,564.48 L 372.73,564.98 L 372.62,565.48 L 372.45,565.93 L 372.23,566.39 L 372.01,566.78 L 371.72,567.16 L 371.39,567.5 L 371.05,567.84 L 370.66,568.12 L 370.21,568.34 L 369.82,568.57 L 369.32,568.73 L 368.87,568.84 L 368.36,568.96 L 367.86,568.96 L 367.86,568.96 L 367.36,568.96 L 366.86,568.84 L 366.4,568.73 L 365.9,568.57 L 365.51,568.34 L 365.06,568.12 L 364.67,567.84 L 364.33,567.5 L 364,567.16 L 363.72,566.78 L 363.49,566.39 L 363.27,565.93 L 363.11,565.48 L 362.99,564.98 L 362.93,564.48 L 362.88,563.98 L 362.88,563.98 z"
           id="path5880"
           style="fill:#0093dd;fill-opacity:1;fill-rule:nonzero;stroke:#0093dd;stroke-width:0.12;stroke-linecap:round;stroke-linejoin:round;stroke-miterlimit:10;stroke-dasharray:none;stroke-opacity:1" />
        <path
           d="M 405.26,597.44 L 406.39,597.44 L 406.33,571.03 L 407.89,571.08 L 407.89,570.02 L 402.52,570.02 L 402.52,571.03 L 404.03,571.03 L 404.03,596.83 L 405.26,596.83 L 405.26,597.44 z"
           id="path5882"
           style="fill:#0093dd;fill-opacity:1;fill-rule:evenodd;stroke:#0093dd;stroke-width:0.12;stroke-linecap:round;stroke-linejoin:round;stroke-miterlimit:10;stroke-dasharray:none;stroke-opacity:1" />
        <path
           d="M 399.61,594.98 L 400.51,594.98 L 400.51,593.58 L 403.47,593.58 L 403.47,587.71 L 400.51,587.71 L 400.51,586.19 L 399.49,586.19 L 399.49,588.83 L 401.01,588.83 L 401.01,592.69 L 399.61,592.69 L 399.61,594.98 z"
           id="path5884"
           style="fill:#0093dd;fill-opacity:1;fill-rule:evenodd;stroke:#0093dd;stroke-width:0.12;stroke-linecap:round;stroke-linejoin:round;stroke-miterlimit:10;stroke-dasharray:none;stroke-opacity:1" />
        <path
           d="M 405.26,566.33 L 405.26,566.33 L 405.6,566.72 L 405.83,566.89 L 406.05,567 L 406.05,567 L 406.39,567.11 L 406.72,567.16 L 407.05,567.11 L 407.34,567.05 L 407.62,566.94 L 407.89,566.78 L 408.07,566.55 L 408.23,566.33 L 408.35,566.05 L 408.46,565.76 L 408.46,565.48 L 408.46,565.15 L 408.35,564.87 L 408.23,564.53 L 408.01,564.26 L 407.67,563.98 L 407.67,563.86 L 407.67,563.86 L 407.95,563.75 L 408.12,563.58 L 408.35,563.36 L 408.46,563.14 L 408.46,563.14 L 408.62,562.74 L 408.62,562.35 L 408.57,562.01 L 408.4,561.62 L 408.4,561.62 L 408.23,561.34 L 408.01,561.17 L 407.73,560.96 L 407.45,560.84 L 407.17,560.78 L 406.89,560.73 L 406.55,560.73 L 406.27,560.78 L 406.27,560.78 L 405.94,560.96 L 405.71,561.17 L 405.49,561.4 L 405.26,561.62 L 405.26,561.62 L 405.04,561.34 L 404.82,561.07 L 404.54,560.9 L 404.26,560.78 L 403.98,560.73 L 403.64,560.73 L 403.36,560.73 L 403.08,560.84 L 402.8,561.01 L 402.52,561.17 L 402.35,561.4 L 402.19,561.62 L 402.08,561.91 L 402.02,562.24 L 402.02,562.58 L 402.13,562.97 L 402.13,562.97 L 402.3,563.25 L 402.52,563.53 L 403.03,563.98 L 403.03,563.98 L 402.63,564.2 L 402.46,564.37 L 402.3,564.53 L 402.3,564.53 L 402.08,564.87 L 402.02,565.26 L 402.02,565.26 L 402.02,565.71 L 402.13,566.05 L 402.13,566.05 L 402.24,566.33 L 402.41,566.55 L 402.63,566.72 L 402.86,566.83 L 403.08,566.94 L 403.36,567 L 403.64,567.05 L 403.92,567.05 L 403.92,567.05 L 404.31,566.94 L 404.71,566.78 L 405.04,566.55 L 405.26,566.33 L 405.26,566.33 z M 400.22,563.98 L 400.22,563.98 L 400.22,563.47 L 400.28,562.97 L 400.45,562.52 L 400.62,562.07 L 400.79,561.62 L 401.06,561.23 L 401.35,560.84 L 401.68,560.45 L 402.02,560.17 L 402.41,559.83 L 402.8,559.61 L 403.25,559.39 L 403.7,559.22 L 404.2,559.1 L 404.65,559.05 L 405.21,558.99 L 405.21,558.99 L 405.71,559.05 L 406.16,559.1 L 406.67,559.22 L 407.11,559.39 L 407.56,559.61 L 407.95,559.83 L 408.35,560.17 L 408.68,560.45 L 409.01,560.84 L 409.3,561.23 L 409.58,561.62 L 409.8,562.07 L 409.96,562.52 L 410.08,562.97 L 410.14,563.47 L 410.19,563.98 L 410.19,563.98 L 410.14,564.48 L 410.08,564.98 L 409.96,565.48 L 409.8,565.93 L 409.58,566.39 L 409.3,566.78 L 409.01,567.16 L 408.68,567.5 L 408.35,567.84 L 407.95,568.12 L 407.56,568.34 L 407.11,568.57 L 406.67,568.73 L 406.16,568.84 L 405.71,568.96 L 405.21,568.96 L 405.21,568.96 L 404.65,568.96 L 404.2,568.84 L 403.7,568.73 L 403.25,568.57 L 402.8,568.34 L 402.41,568.12 L 402.02,567.84 L 401.68,567.5 L 401.35,567.16 L 401.06,566.78 L 400.79,566.39 L 400.62,565.93 L 400.45,565.48 L 400.28,564.98 L 400.22,564.48 L 400.22,563.98 L 400.22,563.98 z"
           id="path5886"
           style="fill:#0093dd;fill-opacity:1;fill-rule:nonzero;stroke:#0093dd;stroke-width:0.12;stroke-linecap:round;stroke-linejoin:round;stroke-miterlimit:10;stroke-dasharray:none;stroke-opacity:1" />
        <path
           d="M 404.48,598.06 L 407.17,598.06 L 407.23,571.87 L 408.8,571.87 L 408.8,569.29 L 408.8,569.29 L 407.89,569.29 L 407.89,569.29 L 408.46,568.96 L 408.91,568.62 L 409.3,568.23 L 409.69,567.78 L 409.69,567.78 L 410.02,567.33 L 410.3,566.89 L 410.48,566.44 L 410.69,565.88 L 410.69,565.88 L 410.86,565.15 L 410.92,564.37 L 410.92,564.37 L 410.92,563.75 L 410.92,563.19 L 410.8,562.69 L 410.64,562.07 L 410.64,562.07 L 410.42,561.57 L 410.19,561.07 L 410.19,561.07 L 409.85,560.56 L 409.46,560.11 L 409.07,559.72 L 408.57,559.33 L 408.57,559.33 L 408.12,559.05 L 407.67,558.83 L 407.28,558.6 L 406.83,558.43 L 406.39,558.32 L 405.94,558.26 L 405.43,558.21 L 404.87,558.21 L 404.87,558.21 L 404.03,558.32 L 403.3,558.49 L 402.63,558.77 L 401.9,559.22 L 401.9,559.22 L 401.35,559.61 L 400.84,560 L 400.45,560.45 L 400.11,560.96 L 399.83,561.46 L 399.61,562.01 L 399.44,562.64 L 399.33,563.25 L 399.33,563.25 L 399.27,563.75 L 399.27,564.2 L 399.33,564.59 L 399.38,565.09 L 399.38,565.09 L 399.61,565.93 L 400.01,566.72 L 400.01,566.72 L 400.28,567.16 L 400.51,567.55 L 400.84,567.95 L 401.23,568.34 L 401.23,568.34 L 401.63,568.62 L 402.02,568.9 L 402.69,569.29 L 401.79,569.29 L 401.74,571.92 L 403.42,571.92 L 403.47,587.15 L 401.17,587.09 L 401.17,585.58 L 398.94,585.64 L 398.94,589.83 L 400.45,589.83 L 400.45,592.01 L 398.99,591.96 L 398.99,596.05 L 401.29,596.05 L 401.29,594.53 L 403.47,594.53 L 403.47,597.5 L 404.48,597.5 L 404.48,598.06 z M 394.13,607.8 L 394.13,555.69 L 416.68,555.69 L 416.68,578.3 L 416.68,578.3 L 416.68,579.65 L 416.57,580.93 L 416.46,582.22 L 416.24,583.51 L 416.02,584.74 L 415.73,585.97 L 415.4,587.21 L 415.01,588.43 L 414.56,589.6 L 414.05,590.73 L 413.55,591.85 L 412.99,592.97 L 412.37,594.03 L 411.7,595.09 L 411.03,596.1 L 410.3,597.05 L 409.52,598.01 L 408.68,598.96 L 407.84,599.85 L 406.94,600.69 L 406.05,601.53 L 405.1,602.31 L 404.14,603.04 L 403.14,603.71 L 402.08,604.39 L 401.01,605 L 399.95,605.62 L 398.83,606.12 L 397.65,606.62 L 396.47,607.07 L 395.3,607.46 L 394.13,607.8 L 394.13,607.8 z"
           id="path5888"
           style="fill:#ffffff;fill-opacity:1;fill-rule:nonzero;stroke:none" />
        <path
           d="M 368.59,598.06 L 368.59,597.5 L 369.6,597.5 L 369.54,594.53 L 371.78,594.53 L 371.78,595.99 L 374.02,595.99 L 374.02,592.01 L 372.62,592.01 L 372.62,589.83 L 374.13,589.83 L 374.13,585.64 L 371.89,585.58 L 371.89,587.15 L 369.6,587.15 L 369.6,571.92 L 371.33,571.92 L 371.33,569.29 L 371.33,569.29 L 370.88,569.23 L 370.55,569.23 L 370.33,569.29 L 370.33,569.29 L 371.05,568.9 L 371.45,568.62 L 371.83,568.34 L 371.83,568.34 L 372.23,567.95 L 372.51,567.55 L 372.79,567.16 L 373.07,566.72 L 373.07,566.72 L 373.4,565.93 L 373.63,565.09 L 373.63,565.09 L 373.74,564.59 L 373.74,564.2 L 373.74,563.75 L 373.74,563.25 L 373.74,563.25 L 373.63,562.64 L 373.46,562.01 L 373.24,561.46 L 372.96,560.96 L 372.62,560.45 L 372.17,560 L 371.72,559.61 L 371.17,559.22 L 371.17,559.22 L 370.44,558.77 L 369.71,558.49 L 368.98,558.32 L 368.14,558.21 L 368.14,558.21 L 367.64,558.21 L 367.13,558.26 L 366.63,558.32 L 366.24,558.43 L 365.79,558.6 L 365.34,558.83 L 364.95,559.05 L 364.5,559.33 L 364.5,559.33 L 364,559.72 L 363.55,560.11 L 363.22,560.56 L 362.88,561.07 L 362.88,561.07 L 362.6,561.57 L 362.43,562.07 L 362.43,562.07 L 362.27,562.69 L 362.15,563.19 L 362.09,563.75 L 362.15,564.37 L 362.15,564.37 L 362.2,565.15 L 362.38,565.88 L 362.38,565.88 L 362.54,566.44 L 362.77,566.89 L 362.99,567.33 L 363.32,567.78 L 363.32,567.78 L 363.72,568.23 L 364.16,568.62 L 364.61,568.96 L 365.17,569.29 L 364.27,569.29 L 364.27,571.87 L 365.84,571.87 L 365.84,598.12 L 368.59,598.06 z M 378.55,555.69 L 378.55,607.8 L 378.55,607.8 L 377.38,607.46 L 376.21,607.07 L 375.03,606.62 L 373.85,606.12 L 372.79,605.56 L 371.67,605 L 370.61,604.39 L 369.6,603.71 L 368.59,603.04 L 367.58,602.26 L 366.63,601.47 L 365.73,600.69 L 364.84,599.8 L 364,598.96 L 363.22,598.01 L 362.43,597.05 L 361.7,596.1 L 360.98,595.03 L 360.36,594.03 L 359.74,592.97 L 359.18,591.85 L 358.62,590.73 L 358.12,589.55 L 357.73,588.38 L 357.34,587.21 L 357,585.97 L 356.66,584.74 L 356.44,583.51 L 356.27,582.22 L 356.1,580.93 L 356.05,579.65 L 355.99,578.3 L 355.99,555.69 L 378.55,555.69 z"
           id="path5890"
           style="fill:#ffffff;fill-opacity:1;fill-rule:nonzero;stroke:none" />
        <path
           d="M 405.15,565.09 L 405.43,565.15 L 405.43,565.15 L 405.6,565.6 L 405.71,565.88 L 405.88,566.1 L 406.05,566.27 L 406.27,566.44 L 406.5,566.49 L 406.78,566.55 L 406.78,566.55 L 407.17,566.49 L 407.51,566.33 L 407.51,566.33 L 407.67,566.16 L 407.84,565.88 L 407.89,565.6 L 407.84,565.32 L 407.78,565.03 L 407.62,564.76 L 407.39,564.53 L 407.11,564.37 L 407.11,564.37 L 406.78,564.26 L 406.5,564.26 L 406.5,563.86 L 406.5,563.86 L 407.11,563.64 L 407.39,563.47 L 407.62,563.3 L 407.78,563.08 L 407.84,562.85 L 407.89,562.64 L 407.84,562.35 L 407.84,562.35 L 407.73,562.07 L 407.51,561.85 L 407.51,561.85 L 407.28,561.68 L 406.94,561.57 L 406.94,561.57 L 406.67,561.57 L 406.44,561.62 L 406.44,561.62 L 406.21,561.73 L 405.99,561.85 L 405.88,561.96 L 405.71,562.13 L 405.55,562.46 L 405.38,562.91 L 405.1,562.91 L 405.1,562.91 L 404.98,562.3 L 404.87,562.01 L 404.82,561.85 L 404.65,561.73 L 404.65,561.73 L 404.42,561.57 L 404.14,561.51 L 403.81,561.51 L 403.53,561.57 L 403.25,561.68 L 403.03,561.85 L 402.86,562.07 L 402.74,562.35 L 402.74,562.35 L 402.74,562.64 L 402.8,562.85 L 402.92,563.14 L 403.08,563.36 L 403.08,563.36 L 403.36,563.58 L 403.64,563.69 L 404.14,563.86 L 404.14,564.2 L 404.14,564.2 L 403.58,564.31 L 403.36,564.37 L 403.19,564.48 L 403.03,564.59 L 402.92,564.76 L 402.86,564.98 L 402.8,565.21 L 402.8,565.21 L 402.8,565.43 L 402.86,565.65 L 402.97,565.88 L 403.08,566.05 L 403.25,566.21 L 403.42,566.33 L 403.64,566.44 L 403.87,566.49 L 403.87,566.49 L 404.14,566.44 L 404.37,566.39 L 404.54,566.27 L 404.71,566.1 L 404.87,565.88 L 404.98,565.65 L 405.15,565.09 L 405.15,565.09 z"
           id="path5892"
           style="fill:#ffffff;fill-opacity:1;fill-rule:evenodd;stroke:none" />
        <path
           d="M 367.92,565.09 L 367.64,565.15 L 367.64,565.15 L 367.47,565.6 L 367.36,565.88 L 367.19,566.1 L 366.97,566.27 L 366.8,566.44 L 366.52,566.49 L 366.24,566.55 L 366.24,566.55 L 365.9,566.49 L 365.57,566.33 L 365.57,566.33 L 365.34,566.16 L 365.23,565.88 L 365.17,565.6 L 365.17,565.32 L 365.29,565.03 L 365.45,564.76 L 365.68,564.53 L 365.95,564.37 L 365.95,564.37 L 366.24,564.26 L 366.57,564.26 L 366.52,563.86 L 366.52,563.86 L 365.9,563.64 L 365.68,563.47 L 365.45,563.3 L 365.29,563.08 L 365.17,562.85 L 365.17,562.64 L 365.23,562.35 L 365.23,562.35 L 365.34,562.07 L 365.51,561.85 L 365.51,561.85 L 365.79,561.68 L 366.07,561.57 L 366.07,561.57 L 366.35,561.57 L 366.63,561.62 L 366.63,561.62 L 366.86,561.73 L 367.02,561.85 L 367.19,561.96 L 367.3,562.13 L 367.52,562.46 L 367.64,562.91 L 367.97,562.91 L 367.97,562.91 L 368.03,562.3 L 368.14,562.01 L 368.25,561.85 L 368.36,561.73 L 368.36,561.73 L 368.65,561.57 L 368.92,561.51 L 369.2,561.51 L 369.49,561.57 L 369.77,561.68 L 370.04,561.85 L 370.21,562.07 L 370.27,562.35 L 370.27,562.35 L 370.33,562.64 L 370.27,562.85 L 370.1,563.14 L 369.93,563.36 L 369.93,563.36 L 369.71,563.58 L 369.38,563.69 L 368.87,563.86 L 368.87,564.2 L 368.87,564.2 L 369.43,564.31 L 369.65,564.37 L 369.82,564.48 L 369.99,564.59 L 370.1,564.76 L 370.21,564.98 L 370.21,565.21 L 370.21,565.21 L 370.21,565.43 L 370.15,565.65 L 370.1,565.88 L 369.99,566.05 L 369.82,566.21 L 369.6,566.33 L 369.38,566.44 L 369.15,566.49 L 369.15,566.49 L 368.92,566.44 L 368.7,566.39 L 368.48,566.27 L 368.31,566.1 L 368.2,565.88 L 368.08,565.65 L 367.92,565.09 L 367.92,565.09 z"
           id="path5894"
           style="fill:#ffffff;fill-opacity:1;fill-rule:evenodd;stroke:none" />
      </g>
    </g>
  </g>
</svg>
