<?xml version="1.0" encoding="UTF-8" ?>
<!DOCTYPE svg PUBLIC "-//W3C//DTD SVG 1.1//EN" "http://www.w3.org/Graphics/SVG/1.1/DTD/svg11.dtd">
<svg width="534pt" height="600pt" viewBox="0 0 534 600" version="1.1" xmlns="http://www.w3.org/2000/svg">
<path fill="#000000" stroke="#000000" stroke-width="0.09375" opacity="1.00" d=" M 0.0 0.0 L 534.0 0.0 L 534.0 347.4 C 533.7 362.2 530.8 376.8 528.2 391.4 C 517.6 438.8 494.0 483.2 460.2 518.2 C 427.5 552.5 385.5 577.8 339.9 590.7 C 332.7 592.3 325.7 594.9 318.3 595.6 C 308.4 597.6 298.4 599.2 288.3 600.0 L 248.6 600.0 C 237.5 599.6 226.6 597.6 215.7 595.6 C 208.4 594.8 201.5 592.2 194.3 590.6 C 167.2 582.8 141.3 570.9 118.0 555.1 C 69.7 522.7 32.5 474.1 14.1 419.0 C 12.8 414.2 10.7 409.6 9.6 404.7 C 8.0 396.5 5.0 388.6 4.3 380.3 C 2.0 368.1 0.7 355.7 0.0 343.4 L 0.0 0.0 Z" />
<path fill="#fcdb00" stroke="#fcdb00" stroke-width="0.09375" opacity="1.00" d=" M 11.6 11.7 C 182.0 11.7 352.4 11.8 522.8 11.7 C 522.8 118.8 522.9 225.9 522.8 333.0 C 522.9 348.3 521.0 363.5 518.8 378.6 C 516.6 387.8 515.2 397.2 512.0 406.1 C 494.1 467.8 451.6 521.8 396.1 554.1 C 393.1 555.9 390.2 557.7 387.0 559.0 C 388.2 554.1 390.9 549.6 391.6 544.5 C 393.3 534.5 390.7 524.4 386.6 515.3 C 377.5 497.4 357.0 486.7 337.2 488.2 C 329.4 489.1 321.7 491.6 314.7 495.4 C 315.0 488.0 315.5 480.3 312.8 473.3 C 308.1 453.1 288.4 438.4 268.0 437.5 C 259.9 436.7 251.9 438.8 244.3 441.3 C 231.5 446.9 222.2 458.7 217.7 471.7 C 215.9 478.6 214.9 485.6 215.2 492.7 C 210.5 490.9 206.1 488.0 200.9 487.4 C 191.0 485.8 180.4 485.8 171.0 490.1 C 164.8 493.2 158.3 496.4 153.5 501.6 C 149.5 505.7 146.5 510.7 143.8 515.8 C 141.5 520.2 141.1 525.2 140.1 530.0 C 138.1 539.4 141.2 548.9 144.2 557.8 C 132.7 550.7 121.2 543.8 110.7 535.3 C 64.9 499.9 31.8 448.5 18.6 392.1 C 17.0 383.8 14.5 375.6 14.1 367.0 C 12.7 355.7 11.6 344.4 11.6 333.0 C 11.6 225.9 11.6 118.8 11.6 11.7 Z" />
<path fill="#000000" stroke="#000000" stroke-width="0.09375" opacity="1.00" d=" M 242.6 41.9 C 258.9 39.4 275.5 38.7 291.7 41.7 C 290.1 52.6 288.4 63.5 287.3 74.5 C 296.3 75.5 304.8 78.4 313.6 80.5 C 330.7 86.1 347.1 94.4 361.2 105.7 C 368.2 96.9 375.1 88.0 382.1 79.2 C 394.6 88.1 405.0 99.6 415.1 111.1 C 405.9 117.9 397.0 125.3 387.9 132.3 C 400.4 148.7 410.1 167.3 415.5 187.2 C 417.0 194.2 418.7 201.1 420.1 208.0 C 431.2 206.5 442.3 205.8 453.5 204.2 C 453.7 211.1 454.8 218.0 454.7 224.9 C 454.9 233.6 454.1 242.1 453.6 250.7 C 442.5 248.9 431.2 248.3 420.1 246.8 C 417.0 265.7 411.4 284.3 402.0 301.0 C 398.4 308.0 393.8 314.4 389.4 320.9 C 398.3 327.8 407.1 334.8 415.9 341.9 C 406.7 354.3 395.6 365.1 383.7 374.9 C 376.4 366.2 369.4 357.3 362.2 348.5 C 351.5 356.9 340.0 364.3 327.4 369.6 C 314.3 374.5 300.7 378.8 286.6 380.3 C 288.2 391.4 289.3 402.6 291.0 413.7 C 275.0 415.8 258.8 416.0 242.7 414.3 C 243.9 402.9 245.7 391.6 246.3 380.1 C 236.4 379.4 226.8 376.5 217.3 373.7 C 201.2 367.5 186.0 359.1 171.8 349.4 C 164.6 358.1 157.0 366.5 149.8 375.2 C 138.1 365.1 127.6 353.7 118.6 341.2 C 127.1 334.8 135.4 328.3 143.9 321.8 C 133.5 306.5 123.6 290.4 118.5 272.4 C 116.3 263.6 113.7 254.8 113.1 245.7 C 101.7 247.1 90.2 248.3 78.7 248.9 C 77.7 232.9 77.7 216.9 80.2 201.0 C 91.2 201.7 102.0 203.7 112.9 205.3 C 115.9 195.1 117.4 184.4 121.6 174.5 C 126.7 159.4 135.6 146.1 144.4 132.9 C 135.7 125.7 126.7 119.0 118.0 112.0 C 122.6 106.3 127.2 100.5 132.3 95.2 C 138.4 89.1 145.1 83.6 152.1 78.4 C 159.2 86.9 166.1 95.9 173.0 104.7 C 188.0 94.0 204.4 85.2 222.1 80.0 C 230.2 78.1 238.2 75.6 246.5 74.5 C 245.7 63.6 244.0 52.7 242.6 41.9 Z" />
<path fill="#fcdb00" stroke="#fcdb00" stroke-width="0.09375" opacity="1.00" d=" M 188.5 163.5 C 202.7 146.3 222.7 133.8 244.6 129.2 C 244.6 142.7 244.6 156.1 244.6 169.6 C 234.0 169.4 223.3 169.6 212.7 169.6 C 212.7 181.4 212.6 193.2 212.7 205.0 C 197.9 204.9 183.2 205.3 168.5 205.1 C 172.4 190.2 178.4 175.4 188.5 163.5 Z" />
<path fill="#fcdb00" stroke="#fcdb00" stroke-width="0.09375" opacity="1.00" d=" M 290.3 129.7 C 303.1 132.7 315.2 138.6 326.0 146.1 C 341.0 157.6 354.0 172.7 360.4 190.8 C 362.4 195.4 363.9 200.2 364.6 205.1 C 351.1 205.2 337.7 205.2 324.2 205.2 C 324.2 193.5 324.2 181.8 323.9 170.0 C 312.7 169.8 301.5 170.2 290.3 170.0 C 290.3 156.5 290.2 143.1 290.3 129.7 Z" />
<path fill="#fcdb00" stroke="#fcdb00" stroke-width="0.09375" opacity="1.00" d=" M 246.8 206.5 C 260.8 206.5 274.8 206.5 288.7 206.7 C 288.7 220.5 288.7 234.2 288.7 248.0 C 274.8 248.0 260.8 247.7 246.8 247.8 C 246.8 234.0 246.8 220.2 246.8 206.5 Z" />
<path fill="#fcdb00" stroke="#fcdb00" stroke-width="0.09375" opacity="1.00" d=" M 167.8 249.4 C 182.8 249.4 197.7 249.5 212.7 249.4 C 212.7 259.7 212.7 270.1 212.7 280.5 C 223.2 280.4 233.7 280.8 244.2 280.7 C 244.3 296.0 244.3 311.3 244.2 326.5 C 237.6 324.3 230.8 322.8 224.5 319.5 C 209.8 313.5 197.2 303.1 187.0 290.9 C 177.4 278.9 171.6 264.3 167.8 249.4 Z" />
<path fill="#fcdb00" stroke="#fcdb00" stroke-width="0.09375" opacity="1.00" d=" M 324.2 249.0 C 337.8 248.9 351.5 248.9 365.1 249.0 C 364.6 256.4 365.0 264.0 363.2 271.2 C 361.0 277.5 357.6 283.3 353.0 288.0 C 346.2 294.8 339.5 302.0 331.4 307.4 C 318.8 315.8 304.6 321.3 290.2 325.8 C 290.1 310.8 290.4 295.7 290.2 280.6 C 301.5 280.6 312.8 280.6 324.1 280.6 C 324.2 270.1 324.2 259.6 324.2 249.0 Z" />
<path fill="#ffffff" stroke="#ffffff" stroke-width="0.09375" opacity="1.00" d=" M 0.0 343.4 C 0.7 355.7 2.0 368.1 4.3 380.3 C 5.0 388.6 8.0 396.5 9.6 404.7 C 10.7 409.6 12.8 414.2 14.1 419.0 C 32.5 474.1 69.7 522.7 118.0 555.1 C 141.3 570.9 167.2 582.8 194.3 590.6 C 201.5 592.2 208.4 594.8 215.7 595.6 C 226.6 597.6 237.5 599.6 248.6 600.0 L 0.0 600.0 L 0.0 343.4 Z" />
<path fill="#ffffff" stroke="#ffffff" stroke-width="0.09375" opacity="1.00" d=" M 528.2 391.4 C 530.8 376.8 533.7 362.2 534.0 347.4 L 534.0 600.0 L 288.3 600.0 C 298.4 599.2 308.4 597.6 318.3 595.6 C 325.7 594.9 332.7 592.3 339.9 590.7 C 385.5 577.8 427.5 552.5 460.2 518.2 C 494.0 483.2 517.6 438.8 528.2 391.4 Z" />
<path fill="#009946" stroke="#009946" stroke-width="0.09375" opacity="1.00" d=" M 240.0 452.0 C 249.5 446.4 261.0 443.6 272.0 446.0 C 279.5 447.9 286.9 451.0 292.4 456.6 C 299.4 462.7 303.5 471.2 306.0 480.0 C 307.3 485.5 306.7 491.3 306.3 497.0 C 306.2 503.0 302.9 508.3 300.9 513.9 C 309.3 507.7 316.8 499.7 327.1 497.0 C 336.2 495.3 345.7 494.9 354.6 497.3 C 371.9 503.4 384.4 521.6 383.0 540.0 C 383.3 547.6 380.1 554.5 377.5 561.4 C 376.8 563.3 375.7 565.1 373.8 565.8 C 352.9 575.4 330.7 582.3 308.0 585.8 C 285.1 589.3 261.6 590.5 238.6 587.4 C 229.4 586.1 220.1 585.4 211.2 582.8 C 192.7 579.0 174.8 572.4 157.6 564.4 C 153.8 562.9 153.0 558.6 151.8 555.2 C 148.8 543.9 146.3 531.7 150.3 520.3 C 153.3 511.1 159.6 502.8 168.2 498.2 C 173.8 495.5 179.9 494.0 186.0 493.0 C 193.2 491.8 200.3 494.3 206.8 497.2 C 214.3 500.7 219.7 507.2 225.1 513.2 C 221.9 502.6 221.1 491.2 222.4 480.2 C 224.5 469.1 230.4 458.2 240.0 452.0 Z" />
</svg>
