<?xml version="1.0" encoding="UTF-8"?>
<svg version="1.1" viewBox="0 0 300 350" xmlns="http://www.w3.org/2000/svg">
 <g stroke="#000">
  <path d="m4 4v196a146 146 0 0 0 292 0v-196z" fill="#0093dd" stroke-width="6"/>
  <path d="m147.95 252.5c-22.087 0.52327-33.566 17.837-40.295 29.216 0 0-32.189-31.337-58.497 2.5418-3.5281 4.544-6.0826 9.2698-7.8776 14.084 27.18 28.816 65.693 46.823 108.45 46.823 42.842 0 81.422-18.075 108.61-46.986-1.7905-4.7571-4.3108-9.4263-7.8008-13.921-26.305-33.878-58.51-2.5418-58.51-2.5418-6.0975-12.35-18.398-28.598-41.91-29.2a44.273 44.272 0 0 0-2.1736-0.0157z" fill="#094" stroke-width="3"/>
  <path d="m119.7 342.65c-5.339-10.769-9.7697-23.341-11.67-34.239-1.3644-8.6189-1.5432-17.664-0.77867-25.85m72.6 60.088c5.339-10.769 9.7697-23.341 11.67-34.239 1.3644-8.6189 1.5432-17.664 0.77866-25.85" fill="none" stroke-linecap="round" stroke-linejoin="round" stroke-width="3"/>
 </g>
 <g transform="matrix(1.0401 0 0 1.0617 -6.0202 -16.424)" stroke="#000">
  <g fill-rule="evenodd">
   <path d="m128.62 82.814h12.9v10.902h-12.9z" stroke-linecap="round" stroke-linejoin="round" stroke-width="1.836"/>
   <g fill="#fff">
    <path d="m34.11 198.4h233.21v59.687h-233.21z" stroke-linecap="round" stroke-linejoin="round" stroke-width="2.8548"/>
    <path d="m58.9 198.4v60.6m-11.017-45.91v29.383m22.036-29.383v29.383" stroke-width="1.836"/>
   </g>
   <path d="m59.159 200.11 8.146-60.15-25.203 42.676-16.465 17.474h249.67l-15.457-60.149h-192.54" fill="#f00000" stroke-width="2.8548"/>
   <path d="m80.053 103.86h60.377v153.86h-60.377z" fill="#fff" stroke-linecap="round" stroke-linejoin="round" stroke-width="1.8949"/>
  </g>
  <path d="m67.312 121.72v18.219" fill="none" stroke-width="1.836"/>
  <g fill-rule="evenodd">
   <g fill="#fff" stroke-width="1.836">
    <path d="m110.32 175.99v13.215m111.25 56.053h14.68v-23.389c-0.565-7.397-2.945-9.982-6.924-15.003-4.477 4.525-7.81 9.296-7.875 14.765zm-66.109 0h14.681v-23.389c-0.566-7.397-3.926-10.951-6.925-15.003-4.477 4.525-7.809 9.296-7.874 14.765zm-51.454-101.03h14.68v-19.94c-3e-3 -6.008-3.777-9.115-6.805-12.292-3.4 3.1-8.098 6.284-7.993 12.053zm0 113.86h12.832v-19.941c-1.602-3.353-2.462-4.376-6.805-8.26-4.477 4.526-4.904 5.24-6.145 8.022z"/>
    <path d="m191.32 232.72c-3.806-0.276-7.596 4.112-7.372 7.909l-0.172 17.445h14.92v-17.445c0.138-3.982-3.452-7.624-7.376-7.91z" stroke-linecap="round" stroke-linejoin="round"/>
   </g>
   <path d="m80.88 82.814h12.9v10.902h-12.9z" stroke-linecap="round" stroke-linejoin="round" stroke-width="1.836"/>
   <g fill="#f00000" stroke-width="2.8548">
    <path d="m128.59 76.774 7.514-20.703 6.36 17.68 7.155 11.87-21.018 0.168zm-33.954 0.772-7.513-20.703-6.361 17.68-9.17 11.701h23.873z"/>
    <path d="m91.167 82.486-20.833 23.52h81.318l-18.483-23.69-11.042-21.48-20.824 0.168z"/>
   </g>
   <path d="m102.04 51.469h19.897v9.696h-19.897z" stroke-linecap="round" stroke-linejoin="round" stroke-width="1.7994"/>
   <path d="m91.957 54.28h40.4l-14.69-11.97-6.182-24.544-6.673 24.545z" fill="#f00000" stroke-width="2.8548"/>
   <path d="m105.66 84.469h12.476v10.193h-12.476z" stroke-linecap="round" stroke-linejoin="round" stroke-width="1.6839"/>
   <path d="m99.3 86.377 26.034 0.168-8.354-11.198-4.813-21.81-5.017 21.823z" fill="#f00000" stroke-width="2.8548"/>
   <path d="m80.165 198.4h60.08m-59.843-45.909h59.843" fill="#fff" stroke-width="1.836"/>
  </g>
 </g>
 <path d="m60.719 120.52h6.751v7.242h-6.751z"/>
 <path d="M4 4v196a146 146 0 0 0 292 0V4z" fill="none" stroke="#000" stroke-width="6"/>
</svg>
