<?xml version="1.0" encoding="iso-8859-1"?>
<!-- Generator: Adobe Illustrator 10.0, SVG Export Plug-In . SVG Version: 3.0.0 Build 77)  -->

<svg  xmlns="http://www.w3.org/2000/svg" xmlns:xlink="http://www.w3.org/1999/xlink" xmlns:a="http://ns.adobe.com/AdobeSVGViewerExtensions/3.0/"
	 width="283.465" height="318.897" viewBox="0 0 283.465 318.897"
	 style="overflow:visible;enable-background:new 0 0 283.465 318.897" xml:space="preserve">
	<g id="CMYK_Wappen">
		<path style="fill-rule:evenodd;clip-rule:evenodd;" d="M0,0h283.465v177.165c0,78.278-63.455,141.732-141.732,141.732
			S0,255.443,0,177.165V0z"/>
		
			<path style="fill-rule:evenodd;clip-rule:evenodd;fill:#0093DD;stroke:#0093DD;stroke-width:0.2835;stroke-miterlimit:3.8637;" d="
			M255.481,102.733l-8.795-29.558l24.488-18.744l-30.898,0.043L230.087,24.58l-10.27,29.896l-30.818-0.044l24.489,18.744
			l-8.794,29.558l25.393-17.498L255.481,102.733z M82.209,102.733l-8.795-29.558l24.488-18.744l-30.754,0.043L56.814,24.58
			L46.566,54.476l-30.84-0.044l24.489,18.744l-8.794,29.558l25.393-17.498L82.209,102.733z M152.55,222.715
			c1.247-0.147,2.678-0.166,3.891-0.439c1.613-0.364,4.395-1.19,5.925-1.796c4.296-1.698,9.378-4.938,12.169-8.678
			c0.405-0.542,0.706-1.282,1.031-1.882c0.481-0.886,1.008-1.992,1.164-3.006c0.104-0.683,0-1.565,0-2.268
			c0-0.576,0.104-1.37,0-1.922c-2.244-11.968-4.22-23.989-6.385-35.971c2.459,0.131,4.979-0.006,7.422,0.2
			c1.826,0.154,3.684,0.491,5.506,0.718c1.09,0.136,2.89,0.2,3.811,0.858c1.058,0.755,3.695,9.513,3.99,10.394
			c1.11,3.313,7.006,21.104,7.92,23.901c4.909-0.337,9.874-2.666,13.746-5.626c0.384-0.294,0.739-0.723,1.137-1.037
			c0.748-0.592,3.195-3.143,3.472-3.591c0.593-0.961,1.406-1.978,1.875-2.993c0.823-1.783,2.886-8.164,1.058-12.349
			c-6.585-15.076-13.608-29.974-20.629-44.849c-5.827-12.348-11.862-24.608-17.655-36.969c-5.363-11.443-26.022-55.24-28.149-59.831
			c-1.148-2.479-2.283-5.364-4.263-8.499c-1.133-1.794-1.611-2.978-3.159-4.429c-0.963-0.903-1.463-1.639-2.732-1.995
			c-0.536-0.151-0.86-0.158-1.417-0.18c-1.848-0.072-3.061,0.154-4.589,1.197c-0.831,0.567-1.583,1.47-1.828,1.822
			c-1.346,1.935-6.242,13.205-7.827,16.852c-1.667,3.835-3.511,7.562-5.267,11.352c-0.897,1.937-1.674,3.966-2.534,5.925
			c-1.484,3.385-3.055,6.734-4.548,10.115c-7.492,16.959-15.016,33.904-22.564,50.833c-5.342,11.982-10.588,24.005-15.92,35.991
			c-1.668,3.749-2.673,7.101-5.066,11.292c-0.655,1.146-1.103,1.747-1.756,2.893c-1.711,2.999-3.059,5.188-3.831,7.98
			c-0.554,2.003-0.622,4.188-0.519,6.231c0.062,1.199,0.078,2.295,0.379,3.724c1.167,5.535,3.922,8.472,8.559,11.711
			c1.869,1.306,3.086,1.812,5.188,2.693c2.296,0.963,4.711,1.644,6.085,1.936c0.667,0.141,2.515-0.086,2.533-0.14
			c3.812-10.959,7.159-22.112,10.314-33.277c5.444-0.999,16.744-1.291,16.798-1.197c0,3.372-3.631,25.77-3.631,25.77
			c-0.436,2.869-1.272,5.668-1.656,8.545c-0.076,0.575-0.208,2.484,0,4.05c0.227,1.699,0.512,2.658,1.197,4.229
			c1.225,2.807,3.213,4.862,4.788,6.224c0.447,0.388,1.194,0.735,1.716,1.038c4.387,2.55,7.595,3.552,12.748,3.97
			c0.945,0.077,3.089,0.12,3.371,0.12c0.09-0.621,0.918-26.335,0.958-26.555c3.15-1.184,11.55-1.443,14.883-0.499
			C151.161,204.422,151.811,213.582,152.55,222.715z M202.722,298.101c2.132-4.662,3.938-9.082,4.371-11.385
			c0.164-0.871,0.637-4.087,0.479-6.704c-0.418-6.957-2.396-11.314-7.214-16.349c-5.06-5.286-9.684-7.299-16.966-8.011
			c-4.114-0.402-7.872,0.259-10.554,0.998c-1.729,0.476-3.49,1.318-5.187,1.935c-0.09-2.411-0.101-5.315-0.898-7.621
			c-1.146-3.313-2.379-6.337-5.027-9.656c-1.905-2.387-3.183-3.635-5.686-5.387c-8.846-6.191-18.018-6.672-27.631-1.755
			c-4.038,2.065-6.174,3.829-8.978,7.395c-1.729,2.198-2.927,4.362-3.65,6.172c-0.324,0.811-0.517,1.767-0.752,2.613
			c-0.729,2.622-0.766,6.581-0.797,6.567c-2.685-1.205-6.436-2.72-9.344-3.256c-7.223-1.331-15.538,0.745-21.287,5.327
			c-1.703,1.357-2.915,2.765-4.449,4.808c-1.852,2.467-2.942,3.941-3.93,6.863c-0.457,1.352-0.588,2.389-0.857,3.558
			c-0.758,3.28-1.02,7.416-0.279,10.747c0.718,3.233,2.301,7.174,3.97,10.015c0.076,0.13,0.831,1.188,1.983,2.785
			C36.214,275.206,6.219,229.363,6.219,176.478V6.26h270.99v170.218C277.209,229.631,246.909,275.669,202.722,298.101z"/>
		<g>
			<g>
				<g>
					<path style="fill:#FFFFFF;" d="M250.271,96.414l-20.638-14.22l-20.636,14.221l7.146-24.021L196.242,57.16l24.91-0.04
						l8.48-24.22l8.169,24.22l25.223,0.04l-19.902,15.232L250.271,96.414z"/>
				</g>
				<g>
					<path style="fill:#FFFFFF;" d="M76.997,96.414L56.36,82.193L35.724,96.414l7.146-24.021L22.97,57.16l24.934-0.04L56.36,32.9
						l8.322,24.22l25.068,0.04L69.85,72.393L76.997,96.414z"/>
				</g>
			</g>
			<g>
				<path style="fill-rule:evenodd;clip-rule:evenodd;fill:#FFFFFF;" d="M129.487,218.725l0.3-5.327
					c-0.282-0.066-0.636-0.027-0.898-0.1c-0.14-0.039-3.902-1.617-3.93-1.636c-0.638-0.443-1.453-1.227-2.135-2.214
					c-1.604-2.325-2.123-4.322-1.522-7.083c0.238-1.096,0.539-1.957,1.063-2.673c0.377-0.514,1.35-1.95,2.435-2.993
					c2.525-2.428,4.654-3.024,7.979-4.129c2.393-0.795,3.818-1.06,6.324-1.337c5.26-0.583,8.521-0.473,13.505,1.306
					c5.647,2.015,10.917,3.462,12.49,8.969c0.916,3.207-0.178,6.497-2.475,8.858c-0.559,0.575-3.77,2.32-4.488,2.633
					c-1.079,0.47-2.574,0.565-3.73,0.898c0.134,1.495,0.339,2.995,0.499,4.488c2.182-0.28,4.971-0.784,7.86-2.095
					c2.527-1.146,4.037-1.872,5.991-3.844c2.557-2.579,4.216-4.579,4.402-8.206c0.083-1.608-0.143-2.538-0.572-4.09
					c-0.612-2.215-1.302-3.391-2.6-5.287c-2.835-4.14-5.715-5.601-10.215-7.82c-5.838-2.88-10.745-3.214-16.346-3.378
					c-0.81-0.024-3.316,0.125-5.42,0.386c-4.384,0.544-7.014,0.756-11.022,2.613c-4.725,2.188-7.828,3.805-10.457,8.3
					c-1.9,3.25-2.7,5.615-2.52,9.317c0.024,0.514,0,1.002,0.079,1.636c0.171,1.353,0.467,2.096,0.998,3.352
					c0.628,1.487,1.083,2.313,2.095,3.571c1.758,2.188,3.236,3.107,5.785,4.283C125.343,218.22,129.32,218.745,129.487,218.725z"/>
				<path style="fill-rule:evenodd;clip-rule:evenodd;fill:#FFFFFF;" d="M129.787,210.605c0.295-4.43,0.488-8.873,0.698-13.307
					c-0.266,0.128-0.736,0.241-0.958,0.399c-0.632,0.449-1.379,0.992-2.095,1.796c-1.209,1.356-1.943,2.296-2.234,4.09
					c-0.226,1.389-0.231,2.313,0.359,3.591c0.495,1.072,1.032,1.584,1.975,2.294C128.319,210.061,129.546,210.502,129.787,210.605z"
					/>
				<path style="fill-rule:evenodd;clip-rule:evenodd;fill:#FFFFFF;" d="M154.206,210.605c0.232-0.026,1.055,0.068,1.695-0.1
					c0.715-0.188,1.063-0.47,1.683-0.872c2.354-1.524,4.07-3.049,4.183-5.852c0.133-3.293-2.295-5.084-5.181-6.677
					c-1.153-0.637-1.989-1.019-3.179-1.144C153.307,200.79,153.878,205.8,154.206,210.605z"/>
				<path style="fill-rule:evenodd;clip-rule:evenodd;fill:#FFFFFF;" d="M84.64,198.954c0.283,0.099,0.413,0.161,0.764,0.174
					c0.627-1.128,1.397-3.096,1.631-4.324c0.08-0.426,0.28-0.983,0.292-1.45c-0.911-0.291-2.311-0.629-3.185-0.984
					c-1.615-0.655-4.833-2.992-6.025-4.33c-0.956-1.072-1.647-2.211-2.194-3.85c-0.726-2.174-0.892-3.636-0.359-5.866
					c0.609-2.55,2.812-4.861,3.651-5.646c0.642-0.6,2.919-2.256,3.69-2.674c1.202-0.65,2.312-1.093,3.83-1.695
					c5.05-2.004,8.128-2.643,13.507-3.412c2.313-0.331,5.262-0.535,5.965-0.579c3.492-0.221,7.033-0.355,10.514-0.698
					c0.565-2.23,0.777-4.551,1.098-6.823c-3.862,0.111-7.071,0.299-11.571,0.738c-5.049,0.493-7.946,0.608-12.888,1.752
					c-5.059,1.171-8.123,1.635-12.629,4.213c-3.526,2.019-5.732,3.23-8.14,6.504c-1.694,2.305-2.413,3.852-3.191,6.604
					c-0.631,2.229-0.836,4.051-0.798,5.886c0.012,0.611,0.517,2.832,0.638,3.092c0.747,1.606,1.444,3.479,2.454,4.948
					c0.49,0.712,1.261,1.316,1.889,1.915c0.637,0.608,1.26,1.304,1.941,1.855C78.033,196.338,81.667,197.787,84.64,198.954z"/>
				<path style="fill-rule:evenodd;clip-rule:evenodd;fill:#FFFFFF;" d="M200.39,198.655c1.126-0.583,5.228-1.363,8.08-3.192
					c3.67-2.354,6.043-4.115,7.621-8.18c1.378-3.55,1.213-6.036,0.398-9.756c-0.946-4.322-2.438-6.765-5.586-9.875
					c-4.92-4.863-10.345-6.135-17.596-8.459c-7.338-2.352-11.778-2.913-19.471-3.352c-2.152-0.123-3.699-0.085-5.526-0.14
					c-0.202,0.218,1.156,6.694,1.236,7.123c1.811,0.051,3.733-0.039,5.526,0.14c4.561,0.452,8.535,0.649,13.806,1.995
					c4.827,1.232,7.631,1.974,12.01,4.349c2.256,1.224,3.693,1.775,5.526,3.571c1.588,1.556,2.37,2.624,3.318,4.635
					c0.611,1.297,1.053,2.33,1.17,3.485c0.03,0.299,0.189,2.348-0.14,3.79c-0.848,3.719-3.246,5.306-6.483,7.322
					c-1.926,1.199-3.629,1.64-5.387,2.194C199.33,195.771,199.922,197.198,200.39,198.655z"/>
				<path style="fill-rule:evenodd;clip-rule:evenodd;fill:#FFFFFF;" d="M115.683,191.174c0.819-0.857,1.764-1.862,2.732-2.534
					c3.238-2.246,7.848-4.631,11.571-5.885c4.203-1.417,10.72-2.639,17.596-1.995c2.831,0.265,4.418,0.598,7.176,1.29
					c4.146,1.04,7.058,2.098,10.301,3.737c1.59,0.804,2.965,1.828,4.289,2.992c-0.041-1.734-0.355-3.454-0.552-5.174
					c-0.688-6.014-1.694-11.987-2.66-17.962c-2.188-13.529-6.504-41.445-6.504-41.783c0.348,0.027,1.128-0.072,1.477-0.072
					c0.488,2.028,6.563,28.601,6.743,28.92c7.914,0.383,14.74,0.598,23.721,3.132c3.161,0.892,4.892,1.574,7.979,2.693
					c1.359,0.493,2.141,0.734,3.472,1.296c2.42,1.023,4.021,2.07,5.985,3.093c-1.582-4.15-52.987-114.271-63.022-135.384
					c-0.366-0.77-1.376-2.345-2.853-2.993c-1.043-0.458-1.787-0.672-2.894-0.399c-1.079,0.266-2.107,1.385-2.334,1.636
					c-0.113,0.126-1.74,2.782-1.835,2.993c-15.979,35.643-53.028,119.21-55.681,125.309c-1.15,2.645-2.601,5.392-3.472,8.14
					c0.829-0.466,1.67-1.004,2.534-1.396c6.562-2.983,19.438-5.247,26.613-5.985c4.063-0.418,8.177-0.547,12.249-0.897l4.848-29.048
					h1.496C124.214,128.38,117.302,179.194,115.683,191.174z"/>
				<path style="fill-rule:evenodd;clip-rule:evenodd;fill:#FFFFFF;" d="M190.39,169.172l7.367,21.164
					c3.147,0.375,5.535-0.592,7.534-3.053c1.532-1.886,2.394-3.422,1.862-5.945c-1.332-6.328-9.445-9.231-14.584-11.531
					C192.356,169.711,191.249,169.384,190.39,169.172z"/>
				<path style="fill-rule:evenodd;clip-rule:evenodd;fill:#FFFFFF;" d="M87.134,189.179c0.471,0.152,0.86,0.392,1.307,0.38
					c0.123-0.619,0.422-1.33,0.528-1.677c1.755-5.703,3.407-11.433,5.147-17.138c-2.598,0.288-6.051,1.626-8.339,2.833
					c-0.732,0.386-1.372,0.843-2.168,1.49c-1.126,0.916-1.897,1.391-2.601,2.66c-0.691,1.248-0.729,2.272-0.878,3.551
					c-0.147,1.277-0.13,2.954,0.778,3.97C82.754,187.31,84.69,188.084,87.134,189.179z"/>
			</g>
		</g>
		<g>
			
				<path style="fill-rule:evenodd;clip-rule:evenodd;fill:#009944;stroke:#009944;stroke-width:0.2835;stroke-miterlimit:3.8637;" d="
				M158.495,271.594c4.226-4.56,9.331-8.88,15.48-10.454c11.078-2.834,22.147,1.917,26.813,12.549
				c2.046,4.661,2.607,8.153,1.496,13.167c-1.162,5.245-4.177,9.848-6.603,14.566c-17.004,7.43-35.417,11.23-53.969,11.23
				c-15.796,0-31.563-2.76-46.397-8.193c-0.896-0.328-5.832-2.164-6.356-2.514c-0.494-0.33-6.883-8.482-7.412-9.624
				c-0.885-1.903-1.748-3.95-2.334-5.965c-1.189-4.087-1.321-6.896-0.48-11.068c1.695-8.409,6.905-13.862,15.184-16.145
				c1.213-0.334,2.578-0.68,3.83-0.798c0.93-0.088,1.862,0,2.793,0c4.155,0,8.576,1.138,11.91,3.691
				c2.859,2.189,4.957,5.188,7.122,8.02c-0.17-2.515-0.784-4.972-0.997-7.481c-0.374-4.398,0.474-11.229,2.633-15.103
				c1.076-1.93,2.223-3.752,3.791-5.327c2.463-2.473,4.683-3.644,7.96-4.749c9.434-3.18,18.043-0.814,24.459,6.816
				c2.148,2.557,3.537,5.314,4.349,8.546c1.173,4.668,0.998,8.234-0.499,12.808C160.788,267.035,158.608,270.773,158.495,271.594z"
				/>
		</g>
	</g>
</svg>
