<?xml version="1.0" encoding="iso-8859-1"?>
<!-- Generator: Adobe Illustrator 10.0, SVG Export Plug-In . SVG Version: 3.0.0 Build 77)  -->

<svg  xmlns="http://www.w3.org/2000/svg" xmlns:xlink="http://www.w3.org/1999/xlink" xmlns:a="http://ns.adobe.com/AdobeSVGViewerExtensions/3.0/"
	 width="283.465" height="318.897" viewBox="0 0 283.465 318.897"
	 style="overflow:visible;enable-background:new 0 0 283.465 318.897" xml:space="preserve">
	<g id="CMYK_Wappen">
		<path style="fill-rule:evenodd;clip-rule:evenodd;" d="M0,0h283.465v177.165c0,78.278-63.455,141.732-141.732,141.732
			S0,255.443,0,177.165V0z"/>
		<g>
			<path style="fill-rule:evenodd;clip-rule:evenodd;fill:#FFFFFF;" d="M206.943,285.919c0.915-0.161,2.247-0.384,3.094-0.738
				c2.093-0.876,1.86-1.412,4.23-0.659c0.29-0.077,3.923-1.728,4.356-2.022c1.906-1.293,9.002-5.991,9.652-8.535
				c0.688-2.687,0.526-5.597,1.197-8.262c0.484-0.211,1.16-0.326,1.597-0.599c0.36-0.225,1.333-1.277,1.397-1.756
				c0.279-2.098-2.007-7.357-2.694-9.659c-0.965-3.229-2.338-10.442-1.996-13.751c0.059-0.563,0.265-1.167,0.373-1.729
				c0.498-2.592,0.591-4.073,0.126-6.692c-2.032-0.98-4.052-1.962-6.119-2.867c-1.367-0.598-2.801-1.109-4.138-1.763
				c-0.435-0.212-0.876-0.618-1.277-0.898c-1.913-1.336-3.203-2.797-4.81-4.43c-1.993-2.026-4.063-3.983-6.073-5.994
				c-1.048-1.048-9.7-9.333-10.271-10.65c-1.538-3.548-1.555-15.037-1.996-18.979c-0.272-2.435-0.775-4.761-0.938-7.225
				c1.52,3.04,3.193,6.066,4.59,9.16c0.27,0.597,1.668,4.486,3.377,6.982c1.144,1.67,1.888,2.563,3.345,3.969
				c2.398,2.311,5.735,3.992,7.067,4.795c0.771,0.464,1.959,0.716,2.635,1.257c0.805,0.644,1.474,1.807,2.195,2.575
				c1.499,1.596,3.979,4.118,5.627,5.488c1.818,1.51,6.079,4.001,8.521,4.49c0.888,0.178,2.221,0,3.153,0
				c0.27,0.215,1.024,0.747,1.138,1.138c0.358,0.141,3.773,3.874,6.925,4.833c2.438,0.742,4.399,0.672,6.525,0.355
				c2.35,1.199,5.078,1.943,7.723,2.135c0.509,0.037,1.832-0.005,2.515,0.017c1.176,0.037,3.313-0.316,3.313-0.316
				c-0.723-0.152-1.521-0.195-2.43-0.533c-1.683-0.625-3.267-2.196-3.757-2.66c-0.5-0.473-0.856-1.013-1.402-1.663
				c-0.755-0.898-1.369-1.513-1.93-2.309c-1.927-2.733-3.46-5.785-5.429-8.482c-0.885-1.213-5.121-6.057-5.288-6.227
				c-1.792-1.819-3.471-3.75-5.281-5.562c-0.837-0.837-5.215-4.923-6.532-6.153c-1.271-1.186-6.713-5.983-8.162-7.164
				c-3.122-2.543-6.182-5.169-9.26-7.764c-0.419-0.353-8.445-6.603-9.12-7.125c-3.75-2.896-7.881-5.452-11.854-8.023
				c-0.229-0.147-0.688-0.679-0.898-0.897c-0.056-0.281-0.111-0.985-0.199-1.198c-3.933-9.504-19.19-21.621-26.602-29.257
				c-2.438-2.511-4.749-5.135-7.085-7.723c-2.949-3.269-5.84-6.604-8.761-9.899c-0.529-0.597-3.323-3.78-3.323-3.78
				c0.521-3.127,1.679-6.316,1.582-10.429c-0.044-1.877-0.419-3.203-0.493-4.789c0.096-0.077,0.187-0.188,0.239-0.3
				c0.237,0.147,2.598,2.189,3.093,2.854l-0.538-15.806c0.13,0.055,2.17,2.375,3.771,3.293c-0.152-3.081-2.495-15.718-2.495-16.844
				c0.285,0.035,3.352,2.192,4.351,2.754c-0.129-0.775-4.59-15.746-4.59-15.746c0.572,0.334,2.947,1.946,3.947,1.813
				c0.133-0.934-3.313-9.292-4.646-13.288c-0.839-2.516-1.989-5.024-2.953-7.504c-0.655-1.684-1.337-3.434-2.275-4.989
				c-0.415-0.688-1.278-1.473-1.557-2.195c-0.492-1.28-0.591-2.87-0.978-4.191c-0.999-3.407-2.058-7.023-3.492-10.258
				c-0.11-0.249-0.423-0.448-0.586-0.798c-1.047-2.243-3.381-4.71-3.381-4.71c-1.076,2.414-2.08,5.711-3.118,8.143
				c-0.767-1.032-1.362-2.209-2.135-3.233c-0.889-1.177-5.585-4.789-5.688-4.789c0,0-0.18,3.115-0.2,3.452
				c-0.061,1.02-0.333,7.849-0.698,8.761c-2.688,0.965-5.552,1.569-8.302,2.355c-0.913,0.261-2.218,0.46-3.053,0.878
				c-0.242,0.121-2.412,2.142-2.734,2.495c-0.53,0.581-1.021,1.515-1.437,2.195c-2.164,0.941-4.885,1.268-7.165,1.776
				c-2.216,0.495-4.412,1.055-6.625,1.557c-2.687,0.609-5.414,1.076-8.082,1.757c-0.194,0.049-0.574,0.486-0.691,0.632
				c-1.027,1.264-0.354,2.304,0.093,3.698c0.394,0.33,1.076,0.748,1.377,1.138c0.097,0.125,1.892,2.605,1.855,2.854
				c-5.2-0.231-7.38-0.761-12.532-2.076c-0.947-0.242-1.8-0.358-2.914-0.718c-2.242-0.724-3.457-1.363-5.428-2.655
				c-2.209-1.448-5.089-4.47-5.089-4.47c-0.024,0.888-0.116,1.851-0.04,2.734c0.213,2.449,1.176,7.959,2.595,10.018
				c0.638,0.926,1.364,1.905,2.411,2.966c1.074,1.088,1.682,1.758,3.017,2.503c1.755,0.979,4.292,1.269,4.97,1.357
				c0.981,0.128,5.891-0.198,6.725-0.359c2.057-0.399,7.544-2.302,9.32-2.335c0.969,1.022,4.184,4.154,4.33,4.331
				c0.523,0,5.419-0.08,5.887,0.16c3.347,1.712,9.659,5.967,9.659,5.967c-1.388,1.47-2.837,3.278-4.471,4.49
				c-3.534,2.623-7.637,5.232-11.874,6.526v0.938c1.296,0.305,4.904,1.223,4.904,1.223c-0.714,0.123-3.352,0.993-5.243,2.131
				c-3.132,1.883-6.539,6.541-6.525,6.725c0.809,0.065,2.024,0.051,2.835,0.078c0,0-5.283,3.27-7.425,4.852
				c-1.267,0.935-2.59,2.201-3.732,3.293c-1.327-1.892-2.586-3.834-3.891-5.728c-3.27-4.745-6.595-9.452-9.958-14.13
				c-1.758-2.444-3.748-4.888-5.329-7.444c-0.536-0.868-1.075-1.922-1.496-2.854c-0.291-0.643-3.619-6.578-3.632-6.625
				c-0.213-0.773-0.18-1.823-0.26-2.634c-0.178-1.805-0.449-6.396-0.799-7.863c-0.006-0.026-0.684-1.76-1.296-2.793
				c-0.797-1.346-2.002-2.669-2.476-3.154c-1.577-1.615-3.765-2.887-5.946-3.433c-0.179-0.456-2.344-2.469-2.535-2.634
				c-0.338-0.292-0.993-0.51-1.396-0.759c0.135,0.807-0.286,4.158-0.26,4.49c-0.242,0.122-2.029-0.264-3.232-0.738
				c-2.006-0.791-2.386-2.684-4.471-3.253c0.18,1.588,0.417,3.072,0.772,4.637c0.1,0.44,0.354,0.93,0.426,1.351
				c0.179,1.045,0.039,2.36,0.039,3.433c-0.429,0.098-2.011,0.005-2.295-0.2c-1.219-0.88-2.478-2.478-4.131-2.395
				c0.16,0.701,0.21,1.472,0.399,2.155c0.309,1.117,1.165,2.318,1.357,3.433c0.287,1.671,0.129,3.354,0.638,5.029
				c0.248,0.813,1.681,4.194,3.333,6.526c2.18,3.077,4.719,4.381,6.984,6.686c0.064,0.776,0.083,1.557,0.14,2.335
				c-0.727-0.501-1.505-1.151-2.295-1.537c-0.338-0.166-0.93-0.119-1.236-0.299c-0.74-0.433-1.377-1.177-2.096-1.657
				c-0.738-0.491-2.794-1.936-2.794-1.936c-0.309-0.154-0.666-0.302-0.998-0.399c0,0.807,0.733,2.079,0.998,2.834
				c0.116,0.333,0.158,1.29,0.199,1.696c-0.527-0.056-0.81-0.25-1.297-0.399c-0.945-0.288-1.871-0.348-3.073-0.525
				c-0.312-0.046-0.761-0.097-0.798-0.113c-0.911-0.393-1.564-1.131-2.655-1.697c-1.097-0.568-1.979-0.794-2.933-1.197
				c0.336,1.116,1.603,3.563,2.395,5.926c0.532,1.591,1.056,3.588,1.197,4.132c-0.492-0.113-0.896-0.222-1.457-0.398
				c-2.135-0.672-3.657-1.936-5.168-2.495c-0.27,0.991,0.664,2.391,0.938,3.951c0.182,1.037,0.151,1.825,0.359,2.675
				c0.977,3.987,2.111,5.822,4.483,8.9c0.534,0.693,0.82,1.102,1.443,1.716c0.873,0.863,1.71,1.292,2.508,1.903
				c1.134,0.866,2.671,2.247,4.018,2.627c0.333,0.507,0.493,1.318,0.679,1.896c0.459,1.431,1.261,2.994,2.255,4.131
				c1.695,1.938,3.899,3.524,5.688,5.389c0.33,0.343,6.311,8.688,6.626,9.26c1.618,2.932,7.986,15.003,9.658,18.041
				c1.099,1.996,6.344,11.906,8.262,14.608c2.118,0.127,4.226,0.431,6.347,0.539c5.825,0.296,11.654,0.492,17.481,0.798l0.798,0.299
				c3.703,3.438,7.467,6.809,11.195,10.218c4.588,0.383,34.377,3.926,36.181,5.069c0.698,0.443,1.457,1.118,2.095,1.656
				c-1.51,0.455-2.818,0.7-4.465,0.671c-0.189,1.265-0.399,0.987-0.399,2.267c2.777,0.521,6.24,2.867,8.936,3.729
				c0.038,0.012,0.183,0.166,0.22,0.199c0.427,0.384,1.229,3.365,1.457,4.091c1.363,4.339,2.656,8.732,3.871,13.112
				c1.866,6.726,3.196,13.658,4.67,20.476l0.173,0.226c0.233,0.306,0.553,0.826,0.825,1.071c3.561,3.205,7.098,6.523,10.855,9.5
				c2.661,2.107,5.429,4.092,8.103,6.187c2.603,2.038,15.64,12.137,16.265,12.712c0.629,0.581,1.231,1.38,1.796,2.036
				c0.172,1.857,1.433,6.181,1.496,6.486c0.919,4.428,1.758,8.828,2.495,13.291c0.004,0.024-0.178,1.201-0.501,1.892
				c-0.502,1.076-1.139,1.478-1.998,2.296c-1.829,1.739-4.162,2.42-5.483,3.435c-0.185,0.142-2.312,1.9-3.475,3.396
				c-1.305,1.68-2.359,3.98-2.652,4.767c-0.339,0.909-1.179,3.525-1.337,3.792v0.658c0.257,0.223,0.581,0.382,0.938,0.339
				c1.075-0.129,2.838-0.395,3.852-0.838c0.131,1.75-0.504,3.481,0.14,5.229c2.89-0.348,4.972-1.526,7.484-2.255
				c0.328,0.369,0.342,1.422,0.379,1.856l0.499,0.14c0.961-0.468,4.152-1.864,4.749-2.136c1.039-0.472,3.75-1.961,4.57-2.734
				c1.291-1.217,4.76-7.627,5.787-9.479c-0.688-3.341-0.847-5.509-0.938-8.9c-0.02-0.693-0.131-1.514-0.061-2.195
				c0.045-0.43,1.507-1.981,1.696-2.195c0.043-0.048,0.116-0.433,0.14-0.519c0.686-2.45-0.813-4.492-1.496-6.766
				c-0.972-3.231-2.172-6.505-2.834-9.819c0.196-0.046,0.398-0.08,0.599-0.1c0.733,0.685,12.606,8.991,13.151,10.178
				c0.279,0.61,0.365,1.603,0.519,2.275c1.313,5.76,1.536,10.664,1.536,16.505c-0.128,0.182-0.325,0.61-0.459,0.738
				c-2.105,2.015-5.906,2.896-8.461,4.351c-0.138,0.078-2.987,2.45-3.054,2.534c-0.937,1.202-2.724,4.648-3.033,6.227
				c-0.337,1.725-0.095,4.403,0.16,6.127c1.295-0.314,1.722-0.782,3.173-0.898c-0.174,0.788-0.499,1.903-0.499,2.694
				C206.844,285.356,206.958,285.628,206.943,285.919z M6.219,6.26h270.99v170.218c0,75.208-60.662,136.174-135.495,136.174
				S6.219,251.686,6.219,176.478V6.26z"/>
			<path style="fill-rule:evenodd;clip-rule:evenodd;fill:#FFFFFF;" d="M69.307,113.731c-2.494-1.919-17.442-23.711-22.63-31.133
				c-1.222-1.747-2.201-3.694-3.393-5.468c-0.025-1.641-0.041-3.645-0.34-5.249c-0.256-1.372-0.775-2.931-1.197-4.271
				c1.816,1.489,3.496,2.953,5.528,4.171c3.491,6.675,7.071,13.308,10.536,19.997c1.725,3.329,9.703,17.705,10.118,18.38
				c0.519,0.845,1,1.726,1.477,2.594C69.375,113.075,69.317,113.409,69.307,113.731z"/>
		</g>
		<g>
			
				<path style="fill-rule:evenodd;clip-rule:evenodd;fill:#F00000;stroke:#F00000;stroke-width:0.2835;stroke-miterlimit:3.8637;" d="
				M113.789,37.017c2.36-0.118,4.677-1.32,6.565-2.694c0.685-0.498,1.293-1.19,1.955-1.736c-0.068-0.185-0.105-0.401-0.1-0.599
				c-0.212-0.303-5.556-1.203-5.927-1.257c-1.671-0.245-3.802-0.089-5.528-0.14c0.067,1.739,1.411,2.731,2.096,4.231
				c0.281,0.616,0.407,1.354,0.639,1.996C113.567,36.902,113.68,36.978,113.789,37.017z M210.795,282.147l-0.259-0.499
				c0.086-1.151,0.015-3.388,0.299-4.39c0.461-1.627,1.03-3.13,2.023-4.486l-1.125-0.543c-2.152,2.013-3.737,3.97-3.932,7.065
				h-0.858c0.287-2.867,0.591-4.305,2.654-6.446c3.171-3.291,7.274-3.325,10.63-6.16c0.491-0.415,1.082-0.822,1.424-1.384
				c0-3.135,0.223-7.244,0-10.258c-0.268-3.622-1.748-11.817-2.994-15.347c-0.223-0.631-2.213-1.341-2.833-1.756
				c-4.376-2.931-8.504-6.285-12.812-9.32c-2.722-1.917-5.591-3.626-8.322-5.528c-1.475-1.027-2.755-2.35-4.23-3.373
				c-3.19-2.212-6.608-4.106-9.818-6.287c-3.684-2.502-7.471-5.027-10.963-7.783c-1.157-0.914-3.971-2.921-4.822-3.872
				c-0.117-0.13-1.191-1.331-1.793-2.293c-1.699-2.716-1.575-5.697-2.112-7.938c-1.968-8.22-3.84-16.679-6.585-24.673
				c-0.798-2.323-1.529-5.019-2.661-7.205c-1.25-2.414-6.021-7.089-8.281-8.861c-0.024-0.162-2.434-4.568-2.575-5.189
				c-0.245-0.046-0.554-0.515-0.79-0.583l-0.268,0.843c0.397,1.483,1.852,5.279,2.635,6.526c0.24,0.382,2.571,3.446,2.494,3.872
				l-0.798,0.359c-2.329-1.165-4.364-2.98-6.726-4.131c-1.093-0.533-16.316-3.074-18.479-3.353
				c-2.304-0.297-11.418-1.357-13.649-1.636c-1.159-0.145-2.364-0.065-3.532-0.2c-1.961-1.66-3.611-3.542-5.628-5.129
				c-0.01-0.134-0.032-0.268-0.06-0.399c0.408,0,3.746,0.07,3.791,0.06c1.39-0.309,3.386-1.488,4.83-1.996
				c2.441-0.859,5.053-1.147,7.583-1.597l0.14-0.359c-0.066-0.121-4.441,0.27-6.426,0.16c-4.656-0.259-9.321-1.051-13.982-1.384
				c-8.615-0.616-17.244-1.016-25.87-1.47c-0.114-0.006-0.614-0.312-0.758-0.379c-2.195-4.325-4.4-8.644-6.665-12.932
				c-0.818-1.548-4.587-7.94-5.628-9.56c-2.422-3.767-9.609-13.52-10.417-14.489c-1.271-1.525-6.091-6.425-7.324-7.43
				c-0.313-0.255-1.465-1.587-1.637-1.93c-0.255-0.51-0.388-1.32-0.358-1.896c0.34-0.242,0.685-0.521,0.997-0.799
				c0.061-0.317,0.121-0.624,0.2-0.938c-1.638-0.728-3.472-1.538-4.93-2.595c-0.771-0.559-1.619-0.842-2.535-1.553
				c-1.249-0.969-1.847-2.012-2.793-2.938c-1.007-0.985-2.426-4.385-2.754-5.728c-0.104-0.424-0.089-0.992-0.14-1.437
				c0.039-0.109,0.114-0.221,0.199-0.299c0.335,0,0.82-0.065,1.138,0c1.411,0.291,3.116,1.328,4.291,2.136
				c0.351-0.068,0.396-0.207,0.559-0.499c-0.883-1.648-1.886-4.565-2.195-6.387c-0.087-0.512,0-1.206,0-1.736
				c0.541-0.271,1.366-0.287,1.936-0.2c0.392,0.06,2.756,1.259,3.033,1.537c0.368,0.368,1.992,2.5,2.495,2.654l0.559-0.16
				c-0.673-2.132-0.559-1.591-0.559-3.972c1.25-0.041,2.379,0.581,3.293,1.397c0.439,0.394,1.066,0.792,1.437,1.237
				c1.415,1.705,2.472,5.862,2.395,8.063c-0.024,0.691-0.205,1.513-0.339,2.195c0.93,1.781,1.925,3.75,3.033,5.428
				c0.883,1.337,1.938,2.625,2.873,3.932c2.184,3.048,4.399,6.069,6.605,9.1c1.181,1.621,2.303,3.282,3.473,4.91
				c1,1.391,4.709,6.751,5.628,7.962c2.739,3.614,5.594,7.17,8.421,10.717c4.638,0,11.146-3.735,15.586-5.369
				c0.598-0.22,1.279-0.292,1.896-0.459c0.005-0.113-0.041-0.244-0.1-0.339c-0.105-0.052-0.764-0.315-0.838-0.3
				c-3.589,0.739-11.155,2.136-11.155,2.136c-0.121-2.545,3.174-6.805,4.869-8.662c0.559-0.612,1.231-1.139,1.796-1.756
				c-0.31-0.059-0.645-0.076-0.938-0.199c-1.353,0.332-2.761,0.661-4.131,0.898c0.045-0.528,0.894-1.684,1.171-2.109
				c0.652-1.003,4.65-5.761,5.454-6.453c1.448-1.246,3.044-2.348,4.53-3.552c-0.021-0.147-0.055-0.297-0.1-0.439
				c-2.105-0.465-7.161-1.112-7.161-1.112c4.683-4.181,10.62-7.497,15.981-10.703c-0.004-0.1,0.044-0.218,0.1-0.299
				c-0.194-0.156-3.538-1.148-4.989-1.537c2.516-1.711,5.304-3.566,8.122-4.729c1.535-0.634,3.271-0.855,4.89-1.158
				c-0.015-0.238,0.056-0.467,0.1-0.699c-1.247-1.122-3.157-1.381-4.789-1.676v-0.659c5.427-2.116,8.773-5.556,12.651-9.818
				c1.754-0.133,3.592-0.06,5.329-0.3c1.014-0.14,3.846-0.48,5.827-1.796c0.882-0.586,1.466-0.896,2.055-1.776
				c0.37-0.553,0.527-1.029,0.699-1.557c0.512-1.576,0.752-4.03,0.778-5.667c-1.442,1.89-1.611,4.469-3.972,5.967
				c-1.451,0.92-2.862,1.076-4.19,1.357c-0.929,0.197-4.812,0.097-5.488-0.299c-1.963-1.151-3.928-2.301-5.867-3.492
				c-1.607-0.989-6.416-2.863-6.903-2.892c-2.282-0.137-4.506-0.324-6.807-0.401c0.014-0.144-0.002-0.301-0.039-0.439
				c-0.409-0.24-0.662-0.49-0.898-0.898c2.512-2.202,10.835,0.928,13.89,1.437c0.583,0.097,2.489,0.111,3.353,0.22l0.639,0.08
				c0.477,0,0.973-0.127,1.457-0.14l0.479-0.359c0.114-1.717-0.268-4.572-1.237-6.027c-0.857-1.287-2.002-2.28-3.193-3.233
				c-3.697,0.249-7.407,0.425-11.108,0.639c-1.816,0.105-3.408,0.593-5.574,0.359c-0.849-0.091-1.502-0.26-2.155-0.379l-0.439-0.08
				c-0.998-0.359-0.999-1.151-1.138-1.996c0.24-0.076,0.463-0.209,0.699-0.299c0.118-0.525,0.173-0.613,0.1-1.098
				c-0.607-0.577-0.652-0.841-0.559-1.637c0.973,0.01,2.023,0.162,2.993,0c2.952-0.492,12.544-2.759,14.208-3.333
				c0.217-0.075,2.596-0.974,2.774-1.357c2.148-4.605,3.606-4.224,8.262-5.408l7.982-2.056c1.156-0.294,2.5-0.348,3.692-0.559
				c-0.535,1.733-0.399,4.391-0.399,4.391c1.253-1.37,2.625-3.265,3.293-5.029c0.153-0.406,0.145-0.918,0.299-1.337
				c0.59-1.595,1.354-3.257,2.096-4.79c0.938,2.473,0.343,8.832-0.399,11.355c-0.086,0.291-0.181,0.862-0.001,1.174
				c0.165-0.005,2.844-5.468,3.334-8.598c0.171,0.724,0.557,1.578,0.639,2.295c0.255,2.235-0.709,5.422,0.259,7.424
				c1.141,0.716,1.924,2.423,2.481,3.579c1.583,3.278,2.281,5.248,3.326,8.874c0.451,1.566,3.213,8.222,3.213,8.222
				c-0.594-0.04-1.322-0.093-1.896-0.24c-0.937-0.239-1.346-0.831-2.395-0.599c1.789,3.007,4.049,6.138,5.188,9.46
				c0.289,0.84,1.808,4.551,1.577,5.288c0,0-5.143-2.86-5.269-2.894c0.963,3.324,4.154,13.02,3.632,15.646
				c-0.109-0.013-3.393-2.295-3.393-2.295s0.764,5.266,1.098,7.663c0.305,2.18,0.805,7.695,0.405,7.839
				c-1.315-1.106-1.232-2.5-2.54-3.748l-0.2,0.1c-0.143,5.683,0.185,12.208-0.998,17.781c-0.17,0.806-1.685,5-1.437,6.287
				c3.869,3.125,7.432,7.806,10.856,11.495c0.51,0.549,1.896,2.038,2.035,2.195c1.523,1.73,6.854,7.351,7.284,7.823
				c1.035,1.134,2.083,2.116,3.173,3.153c2.402,2.286,8.981,8.596,9.818,9.46c4.54,4.687,10.588,10.42,13.45,16.285
				c0.265,0.541,0.335,1.453,0.499,2.056c1.818,1.521,3.865,2.883,5.808,4.231c1.757,1.218,3.438,2.549,5.148,3.832
				c3.2,2.4,6.527,4.791,9.619,7.324c3.845,3.151,14.538,11.808,16.005,13.012c2.001,1.643,10.214,9.769,12.253,11.954
				c2.036,2.182,4.156,4.326,6.126,6.565c1.853,2.106,4.891,7.416,6.167,9.979c-0.201-0.076-1.69-0.619-1.736-0.658
				c-1.656-1.426-3.791-3.092-5.328-4.63c-2.22-2.22-4.073-4.97-5.888-7.524c0.128,1.22,0.174,2.545,0.499,3.732
				c0.766,2.789,4.315,6.372,6.187,8.521c-0.115-0.019-1.997-0.787-2.694-1.297c-4.166-3.048-11.058-11.549-13.989-15.986
				c-0.736-1.115-1.995-3.932-1.995-3.932c0.116,1.775,0.255,3.586,0.897,5.269c0.99,2.588,5.313,9.653,5.313,9.653
				c-0.12,0-1.345-0.458-1.382-0.474c-4.854-2.03-12.212-10.139-14.348-14.908c-0.842-1.877-2.483-5.738-2.895-7.863
				c-0.459,3.215-0.62,6.237,0.26,9.399c-2.53-0.863-3.766-1.948-5.588-3.852c-0.58-0.606-5.114-9.037-9.463-17.597
				c-0.793-1.559-1.662-2.55-2.451-3.757c-0.738-1.131-1.349-2.127-2.308-3.086c-0.271-0.271-0.914-0.958-1.521-1.547
				c-2.956-2.873-7.614-6.456-8.364-6.462c0.3,1.283,2.896,4.827,3.672,6.327c0.632,1.224,1.528,3.85,1.995,5.229
				c1.256,3.702,1.903,9.382,2.355,13.251c0.507,4.34,0.908,13.885,2.634,17.682c0.23,0.508,0.532,0.926,0.868,1.519
				c0.247,0.434,0.571,1.057,0.629,1.116c0.559,0.568,14.827,15.035,16.443,16.544c0.271,0.253,1.412,1.518,1.736,1.796
				c0.726,0.624,4.061,3.633,4.989,3.991c2.661,1.028,5.563,1.929,8.062,3.333c0.047,0.425,0.209,1.203,0.16,1.596
				c-0.085,0.676-0.356,1.427-0.519,2.096c-0.551,2.267-1.131,4.604-0.839,6.965c0.368,2.972,0.563,6.219,1.357,9.121
				c0.438,1.601,0.979,3.191,1.477,4.776c0.132,0.42,0.914,2.692,0.799,3.146c-0.645,0.531-1.45,0.971-2.036,1.557
				c-0.15,0.151-0.251,0.543-0.399,0.738c-0.165,2.81-0.269,5.556-0.838,8.322c-0.568,0.637-1.086,1.411-1.696,1.996
				c-1.024,0.982-6.179,5.052-7.084,4.969c0.947-3.283,0.694-4.211,3.192-7.125c-2.91,0.903-5.053,2.257-5.727,5.428
				c-0.311,1.458-0.269,3.065-0.499,4.55C211.807,281.585,211.297,281.866,210.795,282.147z"/>
			
				<path style="fill-rule:evenodd;clip-rule:evenodd;fill:#F00000;stroke:#F00000;stroke-width:0.2835;stroke-miterlimit:3.8637;" d="
				M186.029,275.322c0.071-1.326,0.298-2.95,0.898-4.151c1.402-2.805,3.394-5.45,5.368-7.863c-0.345-0.101-1.274,0.361-1.537,0.472
				c-2.721,1.149-4.014,2.766-5.547,5.195c-0.355,0.562-0.685,1.2-1.238,1.597c-0.221-0.023-0.27-0.62-0.285-0.739
				c-0.167-1.251,0.427-1.829,0.997-2.927c0.156-0.299,2.124-2.096,2.841-2.661c1.649-1.3,3.673-2.237,5.328-3.532
				c1.405-1.1,3.308-2.912,3.731-4.729c0.313-1.34-1.165-9.188-1.656-11.276c-0.209-0.89-2.727-12.418-3.173-13.131
				c-1.176-1.882-15.723-12.829-18.639-15.248c-3.626-3.006-13.441-10.798-14.66-11.891c-0.16-0.144-1.802-1.883-2.422-2.358
				c0.03-0.147-0.618-0.664-0.645-0.775c-2.6-10.949-4.335-22.065-7.678-32.813c1.255,0.166,2.231,1.423,3.193,2.235
				c1.047,3.974,2.297,7.899,3.332,11.875c0.295,1.131,3.589,16.846,4.131,17.781c0.166,0.285,1.151,1.347,1.288,1.522
				c0.687,0.875,21.445,16.624,25.374,19.194c1.775,1.162,6.989,4.895,7.842,5.528c1.566,1.163,5.349,3.592,5.353,3.588
				c0.382-0.37,0.156,1.105,0.231,1.49c0.73,3.719,1.499,7.348,2.419,11.026c0.238,0.953,0.901,2.601,1.337,3.493
				c0.283,0.58,0.827,1.094,1.058,1.697c0.022,0.057-0.034,0.897-0.06,0.978c-0.238,0.733-0.631,1.429-0.898,2.155
				c-0.143-0.013-0.301,0.002-0.438,0.04c-0.05,1.143,0.13,2.368,0.18,3.513c0.118,2.713,0.223,5.428,0.319,8.142
				c-0.7,1.218-1.411,2.44-2.155,3.632c-0.3,0.479-1.547,2.928-1.996,3.492c-0.61,0.768-4.164,3.565-5.368,3.592
				c-0.596-0.76-0.118-1.902,0.04-2.694c0.15-0.753,1.684-4.056,2.056-4.67c0.411-0.68,1.127-1.368,1.636-1.996l-0.239-0.359
				c-0.302-0.011-2.658,0.826-3.253,1.397c-0.339,0.326-0.677,0.934-0.951,1.33c-2.118,3.071-1.665,4.009-2.381,7.391
				C188.56,274.571,187.38,275.022,186.029,275.322z"/>
			
				<path style="fill-rule:evenodd;clip-rule:evenodd;fill:#F00000;stroke:#F00000;stroke-width:0.2835;stroke-miterlimit:3.8637;" d="
				M148.651,164.701c0,0-8.191-2.763-8.8-2.934c-0.956-0.269-1.927-0.322-2.894-0.639v-0.3c1.834-0.75,7.34,0.246,9.618,0.499
				C146.743,161.746,148.456,164.21,148.651,164.701z"/>
			
				<path style="fill-rule:evenodd;clip-rule:evenodd;fill:#F00000;stroke:#F00000;stroke-width:0.2835;stroke-miterlimit:3.8637;" d="
				M39.552,53.102l0.399-0.1c0.239-0.987,0.242-2.063,0.499-3.033c0.339-1.279,1.799-2.53,3.093-2.794
				c0.927-0.189,2.043-0.15,2.994-0.2c-0.057-0.242-0.114-0.489-0.101-0.738c-0.884-0.477-1.9-1.037-2.894-1.198
				c-0.1-0.016-2.257-0.037-2.534,0.14c-1.85,1.182-1.789,1.332-2.854,3.054C38.155,50.621,38.255,51.122,39.552,53.102z
				 M71.442,109.76l-0.56-1.656c-0.928-2.752-3.017-5.994-4.37-8.702c-1.442-2.885-6.268-12.114-7.204-13.85
				c-2.148-3.982-4.253-7.995-6.346-12.007c-0.548-1.048-1.358-2.311-2.155-3.2c-0.652-0.728-3.325-2.668-4.071-3.193
				c-1.676-1.179-4.091-2.193-4.091-4.616c0-0.323-0.079-0.813,0.199-1.051c0.368,0,0.73,0.016,1.098,0.04v-0.798
				c-0.499-0.736-0.978-1.563-1.557-2.235c-0.327-0.38-2.924-2.611-4.649-4.424c-1.97-2.069-3.469-3.033-4.743-5.581
				c-1.104-2.209-1.668-3.052-1.668-5.513c-0.298,0.155,0.563-0.456,0.667-0.534l1.493,0.445c1.06,0.53,2.633,2.03,3.672,2.355
				c0.039-0.109,0.114-0.221,0.199-0.299c-0.37-0.469-0.934-1.03-1.197-1.557c-0.229-0.458-0.925-2.725-0.997-3.233
				c-0.155-1.083-1.148-2.768-0.103-3.844c1.214-1.25,2.537,0.06,4.393,0.81c0.055,0.733,0.121,1.464,0.199,2.195
				c0.585,0.747,1.054,1.611,1.657,2.335c0.046,0.055,0.703,0.455,0.838,0.559c0.236,0,0.464,0.014,0.698,0.04
				c0.054-0.297-0.215-0.735-0.199-1.038c-0.095-0.072-1.041-3.175-0.499-4.79c0.217-0.088,0.445-0.267,0.639-0.399
				c0.855,0.393,2.119,0.876,2.854,1.437c0.788,0.602,2.938,2.663,3.293,3.752c1.046,3.207,0.924,6.814,1.138,10.158
				c-0.118,0.112-0.3,1.896-0.3,1.896c0.851,0.971,1.454,2.015,2.222,3.044c1.761,2.358,2.832,5.642,4.604,8.251
				c1.95,2.875,4.207,5.555,6.227,8.382c4.467,6.254,8.734,12.662,13.25,18.879c-0.112,0.778-0.277,1.479-0.599,2.195l0.399,0.339
				c1.312-0.068,3.144-0.26,4.453-0.18c0.142,0.328-1.159,1.224-1.32,1.438c-2.426,3.235-3.583,5.325-5.308,9.08
				C73.374,105.394,72.452,109.131,71.442,109.76z"/>
			
				<path style="fill-rule:evenodd;clip-rule:evenodd;fill:#F00000;stroke:#F00000;stroke-width:0.2835;stroke-miterlimit:3.8637;" d="
				M106.505,45.139c-3.289-0.833-8.042-2.012-11.455-1.457c-1.133,0.185-2.271,0.559-3.393,0.818
				c-0.922,0.212-1.853,0.341-2.773,0.539c-1.56,0.334-3.071,0.991-4.63,1.337c-2.663,0.592-5.325,0.97-8.042,1.098
				c-0.807,0.038-1.786,0.235-2.575,0.16c-1.536-0.146-4.512-1.399-5.787-2.355c-0.925-0.694-1.561-1.745-2.168-2.701
				c-0.404-0.635-1.045-1.388-1.324-2.069c-0.149-0.363-0.078-0.947-0.199-1.357c0.365,0.05,0.924,0.061,1.257,0.2
				c0.334,0.139,0.688,0.424,1.018,0.599c1.012,0.536,2.15,1.048,3.213,1.457c2.658,1.022,8.892,2.725,11.755,2.974
				c1.368,0.119,4.967,0.152,6.266-0.06c1.165-0.19,2.346-0.496,3.513-0.639c1.425-0.174,2.885-0.156,4.311-0.359
				c1.157-0.166,2.337-0.523,3.492-0.639c2.203-0.221,4.729,0.412,6.885,0.858C106.099,44.049,106.321,44.613,106.505,45.139z"/>
			
				<path style="fill-rule:evenodd;clip-rule:evenodd;fill:#F00000;stroke:#F00000;stroke-width:0.2835;stroke-miterlimit:3.8637;" d="
				M124.604,19.874c-0.028-2.019-0.153-4.05-0.259-6.067l0.299-0.16c0.792,1.028,1.543,2.5,1.996,3.692
				c0.245,0.645,0.312,1.546,0.459,2.235C126.27,19.682,125.432,19.752,124.604,19.874z"/>
			
				<path style="fill-rule:evenodd;clip-rule:evenodd;fill:#F00000;stroke:#F00000;stroke-width:0.2835;stroke-miterlimit:3.8637;" d="
				M115.645,34.223c-0.221-0.378-0.521-0.76-0.798-1.098c0.267-0.225,0.655-0.283,0.897-0.499c0.773,0,0.94-0.077,1.597,0.399
				c-0.061,0.39-0.145,0.64-0.399,0.938C116.5,33.94,116.022,33.968,115.645,34.223z"/>
		</g>
	</g>
</svg>
