<?xml version="1.0" encoding="UTF-8"?>
<svg version="1.1" viewBox="0 0 294 329" xml:space="preserve" xmlns="http://www.w3.org/2000/svg">
	
<path d="m8.2584 7.6331v174.3c0 77.01 62.117 139.44 138.74 139.44 76.626 0 138.74-62.427 138.74-139.44v-174.3z" clip-rule="evenodd" fill="#fff" fill-rule="evenodd"/><g fill-opacity=".98522"><path d="m206.42 24.512c-2.7527 0.07122-5.7044 0.9697-8.1894 3-0.1574-0.65765-0.22461-1.9727-0.22461-1.9727-0.88461 0.13463-1.9484 0.62669-2.4785 0.83594-2.3695 1.0773-4.0136 3.1813-5.459 5.4199-0.59964 0.92874-0.97672 1.8057-1.4902 2.7578-0.27444-0.6248-0.64973-1.4952-1.0527-2.041-3.0247 1.2626-4.9152 4.2603-5.9844 6.8984-1.0396-0.41248-2.0964-0.77338-3.1621-1.1113-1.5115 2.1486-2.7678 4.932-2.9609 7.1074-0.34804 2.9714-0.18609 6.1493 1.3848 9.1016 0.96967 1.8224 2.6541 3.4182 4.7109 4.8867-1.7512 0.62706-3.5675 1.2317-5.6797 1.4395-4.6734-0.04663-10.432-0.96279-14.615-4.6016-0.0349-0.02981-0.0707-0.05848-0.10742-0.08594-4.4202-3.3646-6.1012-5.4811-7.9961-10.061l-1.4141-4.8887c0.78248-5.6513 1.4265-8.7829 3.3066-14.273-6.2698 1.8871-10.83 5.3177-16.631 7.7617 0.21421 0.75589 0.309 0.95445 0.33203 1.373 0.13544 2.4685-0.16666 6.7766-0.14062 8.5332 8.2e-4 0.02672 2e-3 0.05342 4e-3 0.08008 0.14196 2.6619 0.32192 5.6481 0.77148 8.3906-0.34934 1.4152-0.79441 2.3609-1.4258 3.6621 0 0 1.643-4.2816 0 0.0039-1.643 4.2855-10.116 13.544-17.729 18.561-6.6082 3.8743-13.99 4.6805-21.49 3.584l-1.3535-0.18945 1.4688-1.3477c6.6228-7.1785 10.497-17.151 9.9413-26.961-0.54094-7.8217-2.879-15.32-8.9609-20.598-3.8798-3.4174-8.7135-5.3486-13.65-5.2344-2.2441 0.05192-4.5101 0.52626-6.7168 1.4766-6.0673 2.4269-9.7373 8.1575-11.229 14.312-3.6258 14.576 1.9015 30.353 14.021 39.213l0.81445 0.49609-1.1797 0.54102c-15.336 5.8042-35.629-2.9964-40-19.254-1.6521-5.9942-3.1588-13.941-0.96875-19.752 0.61404-1.9006 0.97732-2.8405 1.4785-5.5703-5.3802 4.5907-7.0024 11.958-6.7246 18.756 0.02924 9.1814 3.6986 18.101 10.395 24.432 7.8363 7.7632 19.593 10.628 30.295 8.7715 5.1609-0.42398 9.6911-2.6745 14.545-4.0488 12.602 4.7223 26.053 2.0588 36.975-5.3828 5.6086-4.3276 10.315-8.3192 14.447-12.943 0.99752 4.5166 1.1458 9.9376 0.33398 13.846-1.103 3.4121-3.4714 6.7538-3.4714 6.7538-0.58851 1.4311-0.9836 2.1476-1.5616 3.5959l0.32009 3.91c0.27494 0.23016 0.60675 0.40059 0.99219 0.46484l4.5469 0.75586c0.91875 0.15234 1.8279-0.31935 2.2324-1.1582l2.0469-4.2461c0.041-0.08475 0.0762-0.17224 0.10547-0.26172l1.4238-4.377c0.44541-1.6653 0.88701-3.3579 1.3281-5.0332 0.67369-4.1446 1.3469-8.0594 1.6368-12.215 0.0329-0.26808 0.0137-0.53999-0.0566-0.80078l-1.916-7.125-0.70117-5.2734 0.30664-0.5293 2.543 3.5547c0.0642 0.09012 0.13534 0.17502 0.21289 0.25391l2.7793 2.8105c5.5447 3.7708 12.618 6.9083 18.979 7.1094 2.1406 0.15288 4.2252-0.27663 6.2422-0.84375-0.0874 0.11065-0.18788 0.19483-0.27344 0.30664-3.3368 6.0885-5.8712 9.3691-5.3105 16.359 1.4374 0.05333 2.8742 0.05803 4.3125 0.07031-0.24793 1.7832-0.30386 3.605 0.26172 5.3926 2.124 4.2915 4.1719 5.7468 8.6797 6.6973 0 0 0.0617-0.86146 0.0937-1.4492 0.54093 0.636 1.1651 1.189 1.8652 1.6699 1.2298 0.8447 2.6588 1.5402 4.1211 2.0938 0.73365 0.27745 2.5977 0.59375 2.5977 0.59375 0.191-1.1644 0.27077-2.4785 0.1289-3.5273 1.0381 1.3425 2.1304 2.431 3.3359 3.291 3.4922 1.7665 5.9938 3.3273 15.326 1.8633-0.0362-0.0544-0.86276-2.4989-0.91015-2.8359-0.0262-0.18615-0.10824-0.57028-0.14063-0.8457l0.13672-1.5449-0.01 0.08594c0.5102-3.9348-1.5752-8.0657-2.5918-10.75-0.14202-0.37499-0.38634-0.66089-0.56836-1.002 2.7239 3.4281 6.1863 6.5422 11.26 7.6133 1e-3 2.85e-4 3e-3 -2.83e-4 4e-3 0 1.9884 0.42696 3.9669 0.09723 5.5664-0.24219 1.6052-0.34995 3.1563-0.89118 4.748-1.293 0 0-0.46184-1.4007-0.58007-1.918 5.1114 1.353 8.5738 2.1166 13.334 1.0078-0.3412-1.2727-0.81333-2.402-1.457-3.5352-0.0187-0.03242-0.0382-0.06433-0.0586-0.0957l-0.20898-0.32617c3.65 0.42251 6.4369 0.46105 9.623-1.0293-0.37436-1.1504-0.77346-2.0828-1.502-3.0078 2.875 0.10477 4.2734-0.17519 5.9648-0.64844 0.52513-0.28054 1.0992-0.62684 1.6582-0.97656 0.77716-0.47949 1.5762-1.0141 2.3144-1.5254 1.0466-0.20988 3.2564-0.8373 4.5918-0.87695 0.0916-1.1071-0.79146-3.1311-1.1777-3.8223-0.33263-0.59522-0.64734-1.4725-0.68164-1.4297 0.0815-3.5083-1.1232-6.4441-3.0449-8.7129-0.72016-0.85022-1.5965-1.5622-2.4551-2.291 0.4745-0.1655 1.7969-0.63672 1.7969-0.63672-0.55819-3.429-2.8691-6.4566-5.291-8.3359-1.1823-0.90711-2.4401-1.6929-3.6738-2.3652 1.6044-0.55559 3.224-1.0283 4.8828-1.3848 0 0-0.52488-1.7884-0.77734-2.3594-2.9122-6.5812-9.638-10.572-16.764-12.309l2.752-2.0234c-4.8591-4.5992-15.23-4.7307-20.529-2.4199-1.3212 0.60345-2.566 1.3632-3.7578 2.2441-0.0223-0.10302-0.0523-0.20422-0.0898-0.30273-1.465-2.9102-4.9649-5.4658-9.9316-5.7129-0.58268-0.02898-1.1732-0.03887-1.7695-0.02344zm-118.93 6.9395c4.606 0.12268 8.9565 2.7588 11.336 6.8926 4.1082 7.1053 3.6844 16.198 1.082 23.742-1.6521 4.8392-4.7067 10.398-9.0488 13.234-4.7515-1.6521-9.5179-5.3813-12.223-9.6504-4.0059-7.0176-4.7962-16.068-2.9395-23.846 1.1696-4.079 3.1143-7.8209 7.1641-9.6191 1.5278-0.55556 3.0936-0.7948 4.6289-0.75391zm125.82 3.8945c-1.3818 1.6546-2.2522 4.0111-3.9629 5.4785-1.4425 1.2374-3.3068 3.9977-5.0742 2.5996-1.0731-0.84888 0.43909-2.3897 1.7871-3.6992 0.28146-0.27343 1.3504-0.991 2.2422-1.5039 0.88762-0.51052 1.6258-0.8832 1.6328-0.88672l8e-3 -0.0039c1.1743-0.58565 2.2449-1.337 3.3672-1.9844zm32.402 14.715c0.0678 0.0279 0.10456 0.03548 0.16211 0.05664-4e-3 -0.0011-0.0141-0.0028-0.0176-0.0039-0.0956-0.02996-0.1243-0.04441-0.14453-0.05273zm-44.572 22.088c0.79664 0.12611 2.1014 0.98857 2.9121 1.4844 2.3796 1.8357 4.0481 4.6201 5.5332 6.8633-1.5777-1.4958-3.4497-2.6453-5.1328-3.6543-0.96988-0.66239-1.8364-1.0859-2.7558-2.082-0.9617-1.0418-1.609-1.8014-1.1465-2.4512 0.11563-0.16245 0.32431-0.20219 0.58984-0.16016zm-155.62 3.5234c0.69835 0.78232 1.3698 1.4782 1.9766 2.0742-0.59852-0.33165-1.2714-1.0778-1.9766-2.0742z"/><path d="m206.48 26.607c-3.7607 0.0977-7.4628 1.3486-9.7754 6-0.27-1.7632-0.46486-2.5458-0.30273-4.3223-3.3635 1.5292-6.1296 7.1733-8.0293 11.076l-1.7012-3.9707c-2.1599 1.6891-3.0137 4.2742-3.9766 6.6875l-3.4609-1.2949c-1.0778 1.98-1.6029 3.1308-1.7266 4.8184-0.65407 5.4858 0.65963 10.818 9.2168 14.459-2.8588 0.39624-6.1314 2.4484-10.758 2.8789-4.944-0.03207-11.316-0.94841-16.117-5.125-4.5987-3.5005-6.6929-6.1277-8.6934-10.98l-1.6094-5.5645c0.42652-1.4743 1.2323-4.5841 2.5254-11.229l-4.6094 2.7969-6.6524 3.1055c0.15084 2.7492-0.15711 7.241-0.13671 8.6172 0.15489 2.9046 0.29675 6.1392 0.80468 8.832-0.9319 3.0907-2.0634 5.4939-3.5586 7.875v0.02148c-4.5492 7.254-11.788 12.91-19.176 16.924-7.5284 2.959-14.358 3.6138-23.043 2.1562-0.72896 0.85092-2.4785 2.0566-2.4785 2.0566 2.817 1.0561 5.7553 1.204 6.457 1.3867 14.137 2.171 28.713-6.3463 38.24-17.066 2.0376-1.9106 4.2743-4.2207 5.3496-5.709 0.18247 0.60992 0.39816 1.0438 0.53128 1.6504 1.4727 5.6501 1.9286 12.503 0.86328 17.375-0.89686 2.6066-3.1191 6.2969-3.1191 6.2969l-2.2871 5.7324 4.5469 0.75586 2.0469-4.2461 1.4238-4.377c1.1167-3.3443 1.5657-6.795 2.0664-10.266 0 0 0.96567-4.3821 0.81055-6.5898-0.17696-2.5185-1.9668-7.3145-1.9668-7.3145-0.45749-3.3134-0.3999-6.6025-0.27929-9.9277l0.51172-3.0781c0.60701 1.4987 1.4037 2.9643 2.3945 4.5645l3.3027 4.6172c5.5003 5.5228 13.745 9.0999 20.377 9.3047 4.1166 0.31001 8.8921-2.1528 13.342-3.1406-1.3253 1.1345-3.9122 3.4804-5.8164 5.9688-2.4002 3.7412-4.8656 7.8833-4.9336 13.037l4.7539 0.03906c-1.3237 4.5245-0.91813 9.8448 4.9453 11.592-1.2583-2.8619-0.68897-8.5266 3.1309-9.7969-1.0093 3.3293-0.59331 6.2991-0.57031 8.5723 0.56329 1.5877 3.1034 3.1435 5.7734 4.1543-0.30554-2.6833-1.2687-4.8852 0.80469-6.873 3.7632 7.4074 7.1925 9.2592 13.004 9.8711l4.3398 0.08594c-0.73217-1.4002-0.63954-2.7969-0.50586-4.3125 0.36342-2.8028-1.4232-6.9676-2.4726-9.7383-1.0493-2.7707-4.0733-4.6552-6.9062-6.3535 0 0-2.7536-1.9384-3.2402-2.4824-1.6085-1.7984-2.2574-4.5302-1.2793-5.5039 1.1484-1.1433 4.8948-0.06582 6.5742 1.3965 1.6794 1.4623 3.8047 3.9707 3.8047 3.9707 3.1168 5.1896 6.9912 11.286 14.143 12.791 2.8168 0.60626 7.2734-0.94141 7.2734-0.94141-1.8978-1.4791-2.9593-2.966-3.3984-5.5098 5.8979 3.6307 8.8466 4.7158 15.988 4.4609l-0.51367-0.9043-3.5742-5.5781c2.9477 1.8602 7.7847 2.9108 12.062 1.9492l-3.8555-4.748c3.1052 0.93689 5.9665 0.95795 9.1191 0.73047 0.76672-0.26902 4.5274-2.6152 4.5274-2.6152 0.99264-0.81861 3.7305-0.67969 3.7305-0.67969s-1.5886-2.537-1.7402-3.4199c0.40817-6.5253-4.058-9.7185-9.6074-13.422 2.2145-0.10057 4.6504 0.13153 5.502 0.08203-0.66189-3.8159-6.7462-7.5492-10.492-8.9844 0 0-2.2523-1.2618-1.8867-1.1113 0.36562 0.15047 3.7949-0.85156 3.7949-0.85156l4.2852-1.3613c-3.1803-7.1866-12.071-11.387-20.389-12.039l2.3125-1.4785 2.7012-1.8086c-12.995-4.9557-19.839 0.78174-28.283 11.639-2.0483 2.1969-6.739 3.9814-8.0176 3.1504-1.2785-0.83097-0.80474-2.5459-0.26172-3.8887 0 0 0.76107-2.135 1.9609-3.2773 1.1999-1.1424 4.3848-2.748 4.3848-2.748 2.541-1.2669 4.9068-2.6414 7.248-4.2656-1.0654-2.1163-3.8756-4.3493-8.1621-4.5625-0.53517-0.02662-1.0727-0.03532-1.6094-0.02148zm-119.07 0.25195c-6.6535 6e-3 -13.481 3.8579-15.602 10.301-4.7223 12.749-1.4741 28.992 8.8477 38.145 2.1638 1.5497 2.0046 1.443 5.3301 3.6367 1.0011-0.41929 2.4626-1.165 3.3281-1.8086-4.9643-2.4432-10.088-6.5647-12.051-10.133-4.5615-8.5966-6.3178-19.767-3.0137-29.08 2.7924-6.4621 10.016-10.468 16.932-8.4062 6.8714 2.3831 10.773 9.1373 12.104 15.965 3.3772 15.146-5.5243 31.244-20.057 36.58-16.55 6.7983-37.576-1.7547-42.766-19.27-0.67252-1.3158-2.2689-12.462-1.5684-18.959-5.1984 17.476 3.66 29.062 8.6016 33.916 12.412 11.784 32.587 11.256 46.066 1.5625 8.0118-6.2135 12.823-15.832 12.838-26.008 0.45322-9.0791-2.3975-18.918-10.482-23.947-2.4945-1.7041-5.4835-2.4969-8.5078-2.4941z" fill="#094"/></g><g stroke="#00000f"><path d="m83 246.63a45.416 45.416 0 0 0-41.049 26.332c19.767 23.02 46.873 39.486 77.689 45.682a45.416 45.416 0 0 0 8.7754-26.598 45.416 45.416 0 0 0-45.416-45.416zm128 0a45.416 45.416 0 0 0-45.416 45.416 45.416 45.416 0 0 0 8.7754 26.598c30.817-6.1949 57.922-22.661 77.689-45.682a45.416 45.416 0 0 0-41.049-26.332z" fill="#094" stroke-linecap="square" stroke-miterlimit="10" stroke-width="2"/><path d="m147 266.89a45.416 45.416 0 0 0-45.416 45.416 45.416 45.416 0 0 0 0.10157 1.4082c14.206 4.9331 29.442 7.6484 45.316 7.6484s31.107-2.7157 45.312-7.6484a45.416 45.416 0 0 0 0.10157-1.4082 45.416 45.416 0 0 0-45.416-45.416z" fill="#094" stroke-linecap="square" stroke-miterlimit="10" stroke-width="2"/><path d="m8.2584 7.6331v174.3c0 77.01 62.117 139.44 138.74 139.44 76.626 0 138.74-62.427 138.74-139.44v-174.3z" clip-rule="evenodd" fill="none" stroke-miterlimit="3.8637" stroke-width="6"/></g><g transform="translate(.15526)"><path d="m47.845 104.22-6.2031 19.018-20.004 0.0234 16.17 11.775-6.1582 19.031 16.195-11.738 16.197 11.738-6.1602-19.031 16.17-11.775-20.004-0.0234c-2.0669-6.3392-4.1371-12.68-6.2025-19.018zm198 0-6.2031 19.018-20.004 0.0234 16.17 11.775-6.1582 19.031 16.195-11.738 16.197 11.738-6.1602-19.031 16.17-11.775-20.004-0.0234c-2.0669-6.3392-4.1371-12.68-6.2025-19.018zm-195.16 76-6.2031 19.018-20.002 0.0234 16.168 11.775-6.1582 19.031 16.195-11.738 16.197 11.738-6.1582-19.031 16.168-11.775-20.002-0.0234c-2.0676-6.3392-4.1384-12.68-6.2045-19.018zm192.31 0-6.2031 19.018-20.004 0.0234 16.17 11.775-6.1582 19.031 16.195-11.738 16.197 11.738-6.1582-19.031 16.168-11.775-20.002-0.0234c-2.0676-6.3392-4.1384-12.68-6.2045-19.018z" fill="#f00000" stroke="#00000f" stroke-miterlimit="200" stroke-width="2"/></g><g fill="#0093dd" stroke="#00000f" stroke-linecap="square" stroke-miterlimit="10" stroke-width="2"><circle cx="191.1" cy="136.82" r="15.186"/><circle cx="147.86" cy="238.4" r="15.186"/><circle cx="162.71" cy="215.19" r="15.186"/><circle cx="172.05" cy="189.04" r="15.186"/><circle cx="179.76" cy="162.27" r="15.186"/><circle cx="134.34" cy="219.01" r="15.186"/><circle cx="120.61" cy="194.79" r="15.186"/><circle cx="146.95" cy="195.97" r="15.186"/><circle cx="155.6" cy="168.27" r="15.186"/><circle cx="167.36" cy="141.26" r="15.186"/><circle cx="174.31" cy="114" r="15.186"/><circle cx="107.6" cy="168.11" r="15.186"/><circle cx="133.6" cy="172.11" r="15.186"/><circle cx="111.36" cy="107.26" r="15.186"/><circle cx="101.98" cy="137.72" r="15.186"/><circle cx="125.36" cy="149.26" r="15.186"/><circle cx="143.06" cy="146.65" r="15.186"/><circle cx="124.59" cy="123.54" r="15.186"/><circle cx="158.38" cy="99.495" r="15.186"/><circle cx="148.75" cy="124.65" r="15.186"/><circle cx="134.76" cy="101.31" r="15.186"/></g><circle cx="73.857" cy="-87.965" r=".13349" fill="#094" stroke="#000"/><circle cx="97.392" cy="-36.79" r=".13349" fill="#094" stroke="#000"/></svg>
