<?xml version="1.0" encoding="UTF-8"?>
<svg version="1.1" viewBox="0 0 283.46 318.9" xml:space="preserve" xmlns="http://www.w3.org/2000/svg">
	
<path d="m4.2761 4.0347v172.68c0 76.297 61.541 138.14 137.46 138.14 75.916 0 137.46-61.848 137.46-138.14v-172.68z" clip-rule="evenodd" fill="#fcdb00" fill-rule="evenodd"/><path d="m147.37 169.31c-3.1393 0.0362-5.2013 0.0768-7.8593 1.749-1.6433 1.0339-2.5708 1.8038-3.5706 3.4677-1.0225 1.7006-1.3202 2.9124-1.3889 4.8959-0.0289 0.83197 0.0607 1.8106 0.1402 2.1302 0.36512 1.4604 1.305 3.3837 1.2689 3.4405-5.4044 0.78497-9.1675 1.6151-14.551 3.9922-2.5067 1.1067-3.8877 1.8286-6.2152 3.273-1.3308 0.82576-2.7239 1.9367-3.3245 2.2533-0.38266 0.20192-1.6693 0.85114-2.8302 1.0298-0.65535 0.10071-1.0376 0.12894-1.6975 0.0716-1.8514-0.16061-2.8796-0.86911-4.2807-2.0889-1.556-1.3551-2.4251-2.4514-2.8202-4.4763-0.095-0.48699-0.11762-0.76956-0.13415-1.2658-0.0708-2.1204 1.4672-4.8859 1.5029-5.2278-0.98998 0.62643-2.5506 1.8557-3.2932 2.7677-1.384 1.7006-3.776 4.6374-4.1374 8.2023-0.12446 1.2301-0.17165 1.9571 0.07263 3.1692 0.32173 1.5983 0.7094 2.5421 1.75 3.7975 1.3236 1.5973 2.5091 2.3713 4.548 2.7576 0.69201 0.13117 1.2344 0.0977 1.8014 0.12305-1.086 1.5395-2.2671 3.0424-3.2932 4.6206-2.0136 3.0985-3.8527 6.5636-5.135 10.034-0.82628 2.2351-1.544 4.5838-2.0687 6.9052-0.26337 1.163-0.31143 2.1751-0.73025 3.5091-0.3238 1.0313-0.50517 1.6265-1.0288 2.572-0.31812 0.5753-0.50089 0.90864-0.92694 1.4101-1.0607 1.2477-2.0632 1.5643-3.5666 2.213-0.50506 0.21793-0.78785 0.35841-1.3213 0.49423-2.0807 0.52985-3.5946 0.11922-5.4093-1.0298-1.6903-1.0711-3.0167-3.2902-3.1318-4.0648-0.09192-0.61764-0.1755-1.3151-0.1755-1.9447-0.09136 0.0222-0.7595 3.4999-0.56584 5.7422 0.03923 0.45549 0.07402 0.7111 0.14423 1.163 0.30572 1.9629 0.43738 3.1777 1.4646 4.8778 0.74985 1.2404 1.302 1.919 2.4692 2.7788 1.195 0.88049 2.0282 1.2259 3.4758 1.5533 2.059 0.46582 3.4109 0.37045 5.4023-0.32982 1.212-0.42657 2.1716-0.94914 2.8817-1.5947 0.33567 1.6536 0.57476 3.3312 0.92594 4.9807 0.59646 2.8047 2.1999 7.8499 3.4475 10.363 0.3083 0.62074 2.5002 4.5143 2.7889 4.9383 0.77155 1.133 1.5642 1.9844 2.3048 3.4072 0.83041 1.5958 1.4368 2.5391 1.5856 4.3321 0.11413 1.3778-0.12544 2.1708-0.43271 3.5192-0.20967 0.91975-0.26361 1.4792-0.69999 2.3158-0.69717 1.336-1.3955 2.03-2.7264 2.7364-0.90168 0.47874-1.4952 0.63343-2.5105 0.74136-1.3076 0.13892-2.475-0.11668-3.3457-0.4317-0.51953-0.1885-1.0232-0.45231-1.5432-0.64856 0.05315 0.2985 1.3922 1.9734 1.5755 2.212 0.08367 0.11 1.322 1.2214 1.6148 1.4615 0.42812 0.35013 1.4096 1.0588 2.4187 1.5432 1.336 0.64139 2.1693 0.92222 3.6432 1.0802 1.4315 0.15338 2.2974 0.13218 3.6845-0.2572 2.1442-0.60216 3.3118-1.4774 4.7366-3.1893 1.3019-1.5648 1.6757-2.3203 2.1988-4.7346 1.7409 1.3365 3.684 2.5091 5.5778 3.6029 6.9857 4.0348 11.184 5.1558 19.038 6.6369 0.82163 0.15493 1.9388 0.89897 2.9432 1.7914 1.2255 1.0876 2.0372 1.8228 2.4591 3.4062 0.17197 0.64554 0.18277 1.0338 0.19568 1.7016 0.0165 0.91975-0.0483 1.4497-0.2673 2.3431-0.37595 1.5364-0.77752 2.4236-1.7944 3.6351-0.76637 0.91356-1.3079 1.3775-2.3532 1.9517-0.80717 0.44361-2.213 0.82305-2.213 0.82305 1.3608 0.47356 2.852 0.32548 4.2676 0.29553 0.41985-8e-3 0.78161 0.0208 1.28-7e-3 1.1635-0.0646 1.8236-0.19268 2.9432-0.51441 0.93887-0.27009 1.4741-0.44356 2.335-0.90576 1.6629-0.89238 2.5819-1.6437 3.6029-3.2307 0.64863-1.0091 0.89809-1.6704 1.2033-2.8302 0.40848-1.5513 0.54794-2.5285 0.2572-4.1062-0.31966-1.7342-1.5194-3.4171-1.9759-4.0719 0.35995-0.15441 0.76714-0.17429 1.1519-0.22593 5.8201-0.78342 11.897-2.7707 17.073-5.5264 1.7553-0.93524 5.485-3.2932 5.485-3.2932 0.7168-0.30727 1.5732-0.81315 2.3148-0.99855 0.49577-0.12394 2.0326-0.22589 2.562-0.18458 0.48027 0.0377 1.2331 0.12418 1.984 0.35605 1.4346 0.44361 2.2996 0.85312 3.3164 1.9588 0.46376 0.50507 0.67401 0.84129 1.0086 1.4403 0.91924 1.6443 1.1944 3.4014 1.1014 4.7033-0.0981 1.3799-1.273 3.7347-1.2245 3.7249 0.93008-0.61764 1.7827-1.1083 2.799-1.9759 0.28765-0.2453 0.45163-0.38159 0.72017-0.64755 0.84797-0.84022 1.2112-1.4345 1.8216-2.4601 0.33205-0.5567 0.50771-0.87978 0.7716-1.4716 0.60628-1.3587 0.88216-2.1929 1.0288-3.6735 0.0837-0.8428 0.1038-1.3309 0-2.1716-0.22929-1.8529-0.73946-2.9166-1.8529-4.4158-1.1728-1.5787-2.619-2.6457-3.9307-3.1591-0.64243-0.2515-2.061-0.69777-2.0677-0.77162 0.69407-0.89805 1.4767-1.7629 2.1192-2.6971 2.6632-3.869 5.085-8.4496 6.5733-12.915 0.27938-0.83971 0.57172-1.6164 0.88054-2.6679 0.72196-2.4582 0.9466-4.2714 1.3556-6.4291 0.0124-0.0672 0.26731-0.60573 0.37421-0.84122-0.0537 0.10793 0.16374-0.48648 0.42867-1.0107 0.58046-1.1501 1.0979-1.7434 2.1091-2.5418 0.5722-0.45187 0.93981-0.65719 1.5957-0.97738 1.2539-0.61247 2.0547-0.87196 3.4475-0.9582 1.4269-0.0883 2.3201-0.0325 3.623 0.55576 2.0089 0.90735 2.9554 2.8142 3.7249 4.2504 0.0233-0.0418 0.38023-2.8552 0.12306-4.6518-0.15596-1.085-0.32301-1.6899-0.67883-2.7264-0.4622-1.3448-0.70765-2.1586-1.5644-3.2932-1.5012-1.9898-2.9771-2.8515-5.4063-3.4102-1.0117-0.23239-1.6168-0.31252-2.6517-0.23299-2.0471 0.157-3.519 1.1064-4.8364 2.0788-0.12808-0.0449-0.52763-2.633-0.56585-2.8504-0.84384-4.8771-2.5199-9.8661-4.7648-14.274-0.9714-1.9066-2.0023-3.7667-3.1802-5.5566-0.42915-0.65276-1.8157-2.3697-2.0475-2.912-0.0537-0.12497-0.11653-0.73877-0.15835-1.2144-0.076-0.86347-0.13311-1.3627-0.0273-2.223 0.15545-1.259 0.46544-1.9498 1.0268-3.0874 0.42399-0.85881 0.68592-1.3496 1.3082-2.0778 1.2058-1.4104 2.1777-2.1752 3.9831-2.6043 1.2301-0.2923 2.0111-0.28765 3.2418 0 1.1222 0.26234 1.9783 0.92422 2.6749 1.2558-0.10173-0.19158-0.16971-0.466-0.28746-0.63745-0.78444-1.1439-1.7924-1.8471-3.0602-2.8888-0.52778-0.4338-0.81884-0.69154-1.3859-1.0742-0.94042-0.63469-1.5149-0.94757-2.572-1.3586-2.4287-0.94248-4.1103-1.2819-6.6449-0.68184-2.0554 0.48646-3.2872 1.0813-4.7477 2.6073-1.0545 1.102-1.7299 2.6144-2.0274 3.3446-0.18592 0.45756-0.38025 1.6774-0.38026 1.6774-0.0754-0.0186-0.31389-0.23316-0.39135-0.22593-4.5936-3.4022-8.1374-5.5053-13.982-7.585-2.5542-0.90943-4.435-1.3905-6.6923-1.8831-0.97604-0.21277-1.9876-0.35019-2.9735-0.51441-0.30677-0.0511-0.61762-0.0386-0.9915-0.15432-0.76586-0.23652-1.1146-0.60988-1.6945-1.163-1.2193-1.163-1.5516-2.2204-1.9457-3.8591-0.36769-1.5302-0.41324-2.4961-0.0817-4.0346 0.42553-1.9764 1.1144-3.0862 2.5418-4.5177 0.92749-0.9306 2.7643-1.7807 2.7576-1.9346-0.23187-0.17868-1.732-0.18689-2.8434-0.17449zm-0.52953 28.094c0.63468 0.0981 1.3646 0.0516 2.2271 0.17349 1.2466 0.17661 2.1178 0.47381 3.1419 0.74235 4.1665 1.0897 9.6964 3.9568 13.019 6.6701-6.0948 6.0943-12.191 13.322-18.412 19.293zm-10.365 0.32075c0.17714 8.7668 0.10122 17.535 0 26.303-3.5334-3.49-7.0718-6.9915-10.548-10.537-1.5457-1.5777-7.8606-7.7822-7.8936-7.8674 1.4672-1.0644 2.8042-2.0737 4.7356-3.1742 4.9127-2.799 8.5535-4.7617 13.706-4.7245zm36.213 14.449c0.52624 0.7674 1.0352 1.3576 1.6451 2.2634 3.9217 5.8273 5.3906 10.773 6.3 16.873l-27.262-0.0877zm-61.518 0.61627s12.21 11.962 13.073 12.826c1.8824 1.8818 3.7677 3.7614 5.6867 5.606l-26.283 0.10287c0.75346-5.2138 1.7841-9.0478 4.6115-14.092 1.0132-1.807 1.7371-3.1128 2.9119-4.4431zm26.581 19.702h7.9158v7.6828h-7.9158zm42.799 8.6289c0 1.6128-0.24016 3.4419-0.75245 5.5748-1.037 3.8608-1.9768 5.6114-3.856 8.8478-1.1258 1.824-2.2169 2.9225-3.2529 4.43-0.0682-9.3e-4 -12.842-12.466-19.059-18.821 8.9703 0 17.951 0.0782 26.921-0.0313zm-76.8 0.0515h25.264c9.3e-4 0.0398-17.915 17.999-17.915 17.999-1.1511-1.7538-2.209-3.162-3.3457-5.3408-1.7925-3.4363-2.6642-5.5222-3.4677-9.3138-0.2737-1.2921-0.38789-2.2426-0.53559-3.3446zm32.955 6.8719c-0.0129 1.5534-0.10608 10.968-0.18458 14.118-0.10226 4.0586-0.0838 8.3492-0.23198 12.407-0.0625 8e-3 -3.691-0.62254-5.954-1.3667-4.5104-1.4837-6.9222-2.9475-10.67-5.8632-0.63055-0.4906-1.4767-1.0719-1.5826-1.3001 0.50093-0.50041 4.4625-4.418 5.958-5.8552 1.8359-1.7646 6.2322-6.0486 6.6066-6.3998 2.0285-1.9046 4.0247-3.8423 6.0589-5.7402zm10.287 0.35201 18.359 18.699c-1.1 0.74261-1.9893 1.4337-3.3346 2.2331-4.102 2.4391-6.7451 3.4009-11.402 4.4451-1.4207 0.31863-2.4604 0.39241-3.6745 0.64856 0-5.8929 0.0411-23.243 0.0515-26.026z"/><path d="m9.5605 8.8867v152.58h264.9c0.01382-50.859 0.00435-101.72 0.00977-152.58h-264.91z"/><path d="m142.33 16.269c-0.73125-0.0036-1.4682 0.01125-2.2317 0.04396 0 0 2.8033 1.9125 4.192 3.4333 1.0281 1.1267 1.4392 2.3213 2.2538 3.1052 0.62986 0.60601 1.5813 1.1456 2.3051 1.6753 0.27548 0.20148 0.59446 0.48083 0.90126 0.63678 0.72815 0.37051 2.4425 0.72485 3.336 1.0446 2.9533 1.0576 4.2251 1.6932 6.8566 3.237 0.14901 0.0874 1.0041 0.52653 1.1568 0.62962 0.51901 0.3501 1.0745 0.66331 1.6117 0.99248-0.28674-0.76091-0.37745-1.6001-0.52459-2.3866-0.37568-2.0049-0.66119-4.0068-1.3036-5.9651-0.21039-0.64055-0.36347-1.3079-0.82179-2.0657-0.39255-0.64997-0.57981-1.0818-1.2498-1.5465-0.58292-0.40401-1.0556-0.45-1.7499-0.70015-2.8475-1.0236-4.6577-1.1729-7.7175-1.5853-2.6761-0.3607-4.8206-0.53796-7.0144-0.54887zm-5.9187 0.21567c-0.92185-0.01089-2.7171 0.17643-3.4644 0.22589 0.23038 0.37627 1.7053 1.0538 2.2012 1.3175 1.472 0.78289 2.7834 1.7926 4.1088 2.7372 1.6404 1.1686 3.2793 2.3379 4.9673 3.4588 0.58479 0.38778 1.7472 0.32332 2.4616 0.39658-0.3813-0.35377-0.82924-0.67671-1.1886-1.0446-0.9905-1.0189-1.6199-2.0068-2.837-3.1665-0.94983-0.90535-1.4753-1.4414-2.5998-2.1945-1.1859-0.79388-2.6572-1.6361-3.3128-1.7131-0.0904-0.01067-0.20459-0.0158-0.33629-0.01737zm-7.7994 0.84427c-0.2254 0.0026-0.46004 0.01785-0.78875 0.02962-3.3597 0.12089-9.462 3.2134-11.962 4.7017 3.0191 0.50396 5.8227 1.5289 8.6921 2.4306 1.107 0.34749 2.4216 0.84432 3.583 1.0385 0.37379 0.06227 0.7741 0.25111 1.295 0.28722 0.59354 0.04134 1.0536-0.112 1.5176-0.1523 1.6648-0.14444 3.3289-0.62574 4.9881-0.83507 1.9221-0.2423 3.8732-0.36708 5.8123-0.47018-0.96231-0.59868-4.2838-3.0733-5.0871-3.605-2.0148-1.3329-3.3084-2.1521-5.7377-2.957-0.43576-0.14496-0.93886-0.33942-1.5775-0.42316-0.29363-0.0382-0.50954-0.04768-0.73493-0.04496zm33.101 2.82c1.333 2.8254 1.6787 5.9325 2.2134 8.9129 0.10261 0.5767 0.16595 1.1754 0.31183 1.7448 0.19033 0.74312 0.5511 1.6081 0.88169 2.3376 0.36127 0.11827 0.63071 0.28544 0.9306 0.53559-0.24543-1.6286-0.37092-3.2489-0.56251-4.8786-0.12336-1.0493-0.34743-2.102-0.52461-3.1461-0.16969-1.0032-0.24999-1.8853-0.72395-3.0193-0.34184-0.819-0.68806-1.3525-1.1226-2.0166-0.31995-0.12298-1.3131-0.49163-1.4039-0.47018zm4.2128 1.7233c0 0.90221 0.49876 1.7556 0.63713 2.6432 0.1991 1.2769 0.416 2.5646 0.56252 3.8462 0.22978 2.0012 0.058 4.1915 0.66525 6.1429 0.10515 0.33754 0.12283 0.68315 0.33383 1.0814 0.20662 0.38935 0.52762 0.62906 0.71293 0.9148 0.22915 0.35272 0.56316 0.59737 0.90127 0.99248 1.1771 1.3748 1.7045 2.2351 2.5998 3.7512 0.98925 1.6757 1.5218 3.0967 2.1498 4.4411 0.51655-0.87761 1.1625-1.7619 1.5995-2.6647 0.93789-1.9363 2.7471-3.8987 3.1134-6.6765 0.17595-1.3366 0.16555-2.8395-0.0623-3.4476-0.29428-0.78342-1.9157-2.4731-2.5387-3.1461-0.61545-0.66567-2.8441-2.512-4.7618-4.0333-0.66618-0.52856-1.0286-0.83768-1.7255-1.3369-1.5258-1.0922-3.69-2.2874-4.1871-2.5083zm-51.884 1.6293c-0.56196 0.0032-1.0396 0.06183-1.3684 0.19931-0.28112 0.11722-0.60132 0.4033-0.84991 0.57443 0.88032 0.11147 2.0268 0.20921 3.3128 0.3976 4.2794 0.62851 9.884 2.3945 10.712 2.5604 0.29365-0.14339 0.89899-0.28021 1.2045-0.40476-9e-3 -0.06071-4.5283-1.5948-6.6927-2.2599-1.2288-0.37777-4.3116-1.0784-6.3186-1.0671zm-2.1633 2.3039c-0.87219-0.0097-1.7463 0.0616-2.6182 0.24633-0.75195 0.6149-1.64 1.176-2.3381 1.8286-1.8502 1.7312-4.7443 5.7284-5.6496 7.8887 0.68121 0 1.1478-0.34172 1.9003-0.50186 0.90221-0.19101 1.5809-0.23065 2.3491-0.35468 2.3204-0.37575 4.7369-0.62966 7.0254-1.108 0.75821-0.15804 1.5865-0.45076 2.3259-0.66846 0.54847-0.16223 1.1185-0.33219 1.7621-0.65927 1.1145-0.56519 1.5662-1.3404 2.4127-1.9318 1.338-0.93466 2.7775-1.6229 4.2751-2.3509-1.1777-0.42965-2.5313-0.6555-3.7591-0.96897-2.4704-0.62995-5.0692-1.3905-7.6857-1.4197zm2.3198 8.9405c-0.56225-1e-3 -0.83167 0.24241-1.3745 0.36592-0.95043 0.21561-1.656 0.26986-2.48 0.39965-2.5652 0.40348-5.1434 0.73866-7.6209 1.4289-0.29176 0.08111-0.59328 0.12981-0.95015 0.26064-0.7363 0.27003-1.2418 0.43252-1.6876 0.99248-0.35247 0.44378-0.30667 0.87296-0.47446 1.3063 0.59293 0 3.0252-1.2505 3.7872-1.5148 0.3312-0.11513 0.73901-0.17636 1.0871-0.26166 2.6966-0.66096 5.5255-0.99745 8.1883-1.7448 0.56036-0.157 1.5213-0.80379 1.9382-1.201-0.1202 0.0063-0.25178-0.03116-0.41333-0.03169zm66.941 0.78396c-0.24168 0.88651-0.51306 1.9238-0.90126 2.7689-0.42638 0.92733-0.94102 1.8309-1.3831 2.7546-0.37126 0.77557-0.67688 1.6105-1.092 2.3652-0.99863 1.8128-2.1972 3.0983-2.2366 5.224 1.075-2.0441 2.8159-3.7361 4.2128-5.6217 0.73317-0.9896 2-3.2736 2.3124-4.4615 0.11151-0.42232 0.1245-0.87767 0.21276-1.3063-0.38442-0.5699-0.73121-1.1576-1.125-1.7233zm-68.591 1.8275c-2.6184 0.59554-4.9774 0.73814-7.9388 1.756-1.7425 0.59868-2.8436 0.83086-4.3118 1.8173-0.60483 0.4061-0.97604 0.62918-1.4381 1.1499-1.3893 1.5637-0.6049 3.3103-0.64934 4.9624-0.0482 1.7934 0.29655 4.4594 0.68724 6.2073 0.037 0.16432 0.254 1.2687 0.39989 1.3901 1.5984-2.2001 3.7923-3.8421 6.0263-5.59 1.0575-0.82738 2.1039-1.4565 3.0988-2.633 0.6812-0.80592 1.0243-1.2991 1.4626-2.2149 0.49399-1.033 0.50202-1.8834 0.8132-2.7699 0.2085-0.59606 0.49258-1.1979 0.73739-1.7867 0.12021-0.29045 1.2061-2.0614 1.1128-2.2885zm71.09 2.3826s-3.9104 6.2429-5.4381 7.6485c-1.5327 1.4104-2.0888 3.6691-2.2134 5.5797-0.0237 0.36947 0.093 0.86977 0.15041 1.2429 0.15464 1.01 0.82011 1.7756 0.91592 2.9682 0.094 1.1749-0.45771 2.2987-0.41579 2.9989 0.0808 0.03611 1.5458-0.60046 2.4836-1.0599 1.9522-0.95454 3.0962-1.5326 4.6163-2.9325 1.2046-1.1084 2.411-2.5203 2.5631-3.187 0.13524-0.58874 0.0295-1.3318 0-2.1832-0.10011-2.9191-0.31112-5.0346-1.125-7.4288-0.4145-1.2214-1.0175-2.4516-1.5371-3.6469zm-74.377 7.7221c-0.51216 0.47779-0.98517 1.0105-1.5261 1.4627-2.1626 1.8076-5.5907 3.4327-7.0633 6.6867-0.27925 0.61752-0.56381 0.96015-0.58699 1.6201-0.025 0.71591 0.43356 1.4698 0.56254 1.7764 0.73568-1.2167 1.6109-2.9251 2.5876-4.0231 1.05-1.1796 2.3121-2.2403 3.4216-3.3822 0.6449-0.66357 1.4439-1.3476 1.9786-2.0718 0.21038-0.28416 0.57344-0.73502 0.76064-1.0354 0.0213-0.03402 0.0434-1.0177-0.13452-1.0334zm-0.0257 3.5519c-0.48398 0.36633-0.8873 0.90646-1.2999 1.3277-0.82521 0.84255-1.7179 1.6427-2.5387 2.4868-1.1495 1.1822-3.9729 4.2028-3.5365 7.0005 0.1102 0.70282 0.41952 1.079 0.93793 1.6405 0.27738 0.30091 0.45574 0.46308 0.81198 0.70015 0.58731 0.3904 1.008 0.52407 1.7243 0.71037 1.1608 0.30196 1.9633 0.45437 3.1134 0.12572 1.4326-0.40872 2.3598-1.351 2.6866-2.3407 0.16403-0.49506-0.26016-1.7798-0.58697-2.2252-1.1458 0-2.1978 0.40557-3.4375-0.02146-0.15966-0.05495-0.25586-0.07789-0.39989-0.15638-0.39631-0.21613-0.66592-0.44098-0.68846-0.83609-0.13338-2.3832 2.1248-4.9043 3.4265-6.7705-0.0213-0.47465 0.0151-1.1962-0.2128-1.6415zm5.7756 0.70117c-0.61045 0.09891-0.99055 0.05707-1.5628 0.26064-0.51091 0.18212-0.75353 0.3678-1.1874 0.65824-1.7662 1.1817-2.5732 3.1726-2.9006 4.1999-0.0814 0.2559-0.0235 0.66142-0.0624 0.94035l65.047-0.03375c-0.0182-0.3679 0.0741-0.9392-7e-3 -1.5332-0.25546-1.8902-1.7145-3.1594-2.6255-4.3573zm71.79 3.4793c-0.27175 0.36057-1.318 1.5168-1.5371 1.6926-0.67307 0.54269-1.224 1.0657-2.0874 1.6712-1.0988 0.77086-1.9928 1.2207-3.0046 1.7734-0.89971 0.49087-2.4941 1.2357-3.221 1.7591l-0.85356 0.53457c-0.77637 0.7405-0.45096 0.88451-0.67136 1.7846 0 0 2.3478-1.4686 3.4999-2.1107 1.1752-0.65468 2.5662-1.1533 3.6869-1.8592 0.86904-0.54688 2.4772-1.5296 3.3763-2.9253 0.43704-0.67928 0.80762-1.0792 0.83767-1.85 8e-3 -0.18316-0.0138-0.36656-0.0257-0.47018zm0.58698 3.468c-0.0803-0.0099-2.1282 1.8493-3.6258 2.9049-2.6303 1.8541-6.2114 3.4279-7.3372 4.0956 0 0-0.59297 0.55924-0.62491 0.59692-1.194 1.4255 0.38491 3.2767 1.3378 4.4401 0.87843 0.47255 2.6294 0.90789 4.313 0.65722 1.2322-0.18263 2.0007-0.40939 2.9116-1.1274 0.68558-0.53955 1.0072-1.1327 1.3134-1.6926 1.457-2.6674 1.4309-7.0362 1.712-9.8747zm1.7903 1.0456c-0.26485 2.4083-0.52221 4.8158-0.93794 7.21 1.5484 0.61857 2.9904 1.5881 4.2751 3.0827 0.58854 0.68503 0.8904 1.102 1.2754 1.8807 0.37942 0.77033 0.49524 1.2401 0.67871 2.0585 0.1828 0.81325 0.25737 1.2833 0.25801 2.1107 3e-3 3.1928-0.94413 5.4321-3.8104 7.5432-2.1413 1.5773-3.925 2.09-6.7637 2.3376-1.0362 0.09054-1.7992 0.17217-2.6707 0-2.2959-0.45318-5.066-5.3786-6.5949-7.396h-69.33c-0.23605 0.53379-1.829 2.4068-2.003 2.4418 0 0 0.58444-1.4206 0.71903-2.3662 0.12023-0.84988 0-1.5074 0-2.1945-0.34935-0.2402-4.054-1.1692-6.3137-2.4173-1.8019-0.99535-3.9198-2.8088-4.2115-3.006 0 0-4.6162 5.0405-7.1 7.3562 0.37504 0.32394 7.5113 6.9046 7.5964 6.9187 1.2084 1.2628 2.4233 2.7794 3.3042 4.2295 0.36816-0.0785 1.6863-1.5884 1.6863-1.5884 0.35313-0.41133 1.431-1.1368 1.6007-1.1489-0.22101 0.38255-0.4549 0.76055-0.66279 1.1489-0.0758 0.03454-1.4237 2.7973-1.7499 4.1794-0.2542 1.0791-0.32049 2.0302-0.52585 3.328-0.07273 0.46262-0.15578 0.79735-0.18709 1.1857-0.16592 2.0865-0.16352 4.3328-0.12597 6.423l88.966-0.0797c-0.0326-1.3188 9.7e-4 -2.6784-0.12473-3.9914-0.12397-1.2863-0.15748-3.7281-1.4992-5.7157-0.21161-0.3145-0.36405-0.47625-0.58819-0.78396-0.57414-0.78813-1.4379-1.9345-1.3953-2.0586 0.25106 0.05495 1.061 0.69588 1.7585 1.1182 0.52841 0.32028 0.74782 0.64225 1.372 0.80134 0.4915 0.12508 0.917 0.04474 1.3158 0.0552 1.1677 0.02983 3.8413-1.0878 4.8205-1.5557 1.1527-0.55054 2.5419-1.2612 3.5794-1.9645 2.2314-1.5135 3.978-3.396 5.4882-5.4234 0.20036-0.26899 1.0494-1.8683 1.2498-2.3519 0.20725-0.4982 0.47868-1.0174 0.63834-1.525 0.9141-2.9029 0.65519-5.9649-0.29962-8.8291-0.13647-0.40924-0.21546-0.78684-0.41333-1.2746-0.39506-0.97128-0.76582-1.4761-1.3782-2.3652-1.2873-1.8693-2.1037-2.9724-4.0966-4.343-1.363-0.93832-2.2699-1.3452-3.8789-1.9533-1.467-0.5542-3.1961-1.0459-3.9205-1.0773zm-75.567 0.33423c0.23479 1.1016 0.13442 3.3563-0.25314 5.4642-0.64176 3.4885-0.0294 3.6554-3.6282 8.5265 0.54908 0.02094 62.758-0.01429 62.758-0.01429-0.35313-1.1539-0.83747-2.1274-1.1862-3.5273-0.22914-0.92158-0.30387-1.4505-0.45977-2.3826-0.24606-1.4773-0.3692-2.3145-0.47814-3.8033-0.12084-1.6553-0.0386-2.8354-0.0636-4.253-10.514 0-56.688-0.0102-56.688-0.0102zm-15.563 0.08279c-0.12334 0.07065-0.58923 0.29728-0.93672 0.5223-2.177 1.413-3.1681 4.1738-3.0511 5.3293 0.0061 0.06174 0.57748 1.071 0.64323 1.2531 0.26421 0.72793 0.25569 1.2902 0.38153 2.0391 0.50027 0.4532 3.7081 2.9286 4.8389 3.5723-0.25921-1.8541-0.72338-3.1106-0.25193-5.037 0.24858-1.0126 1.0492-2.3126 1.026-2.5073-0.047-0.39563-2.3926-4.6287-2.65-5.1719zm-7.7958 5.7075c-0.56174-0.0026-1.0856 0.20703-1.6301 0.53048-0.99551 0.59188-4.9802 5.1584-8.5246 8.9865-0.54095 0.58403-0.45399 1.3047 0.08076 1.893 0.35939 0.39511 0.73723 0.53109 1.3182 0.63576 0.86403 0.1549 1.6254 0.07824 2.1889-0.49062 1.6241-1.6401 4.1087-4.2387 5.5494-5.7893 0.68183-0.73475 1.3418-1.4532 1.9541-2.2282 1.0318-1.3083 1.5731-1.8663 0.79609-2.7659-0.27361-0.31766-0.50717-0.47374-0.93794-0.62656-0.27704-0.09828-0.53952-0.14396-0.79486-0.14514zm18.352 9.3514s-1.5625 1.7561-1.8368 2.0586l67.384 0.0603c-0.3268-0.56205-0.75784-1.5095-1.059-2.0841-0.0433-0.01884-28.302-0.0053-42.33-0.0053h-11.887c-3.4899 0-10.271-0.02962-10.271-0.02962zm77.804 29.132s-33.344 0.16244-88.741 0.0348c0.06831 0.41081 0.11998 1.1695 0.37543 1.6395 0 0 87.89-5e-3 88.072-0.0348 0.13523-0.43436 0.27157-1.1868 0.2935-1.6395zm-0.58576 2.6861s-79.55-6e-3 -87.462 0.049c0.0438 0.0534 0.11809 0.55257 0.14188 0.61327l87.071 0.0358zm-24.792 1.8204c-27.835-0.0155-62.131 0.047-62.131 0.047-0.062 0.61018 0.48107 2.5988 0.98196 3.2268l83.773 0.10423c0.48522-0.97444 1.3008-2.2834 1.5494-3.3311-6.3334-0.0276-14.894-0.0419-24.172-0.047zm-26.561 4.5157c-18.12 5e-3 -33.796 0.0245-33.796 0.0245 0.55662 1.0529 3.9908 5.9141 4.7998 7.1068 0.54096 0.79859 2.589 4.0978 3.3396 5.3375 0.83273 1.3748 3.3696 5.791 4.2568 6.8727l56.92 0.0337c0.51528-1.0357 1.0135-2.1384 1.6252-3.1348 1.6341-2.6642 3.3322-4.7228 5.4491-7.7497 2.2972-3.2849 5.8386-8.3858 5.8636-8.4355-9.7735-0.0526-30.337-0.0605-48.457-0.0552zm34.992 20.563s-37.178 0.0348-55.7 0.0348c0.16717 0.42127 0.41393 1.5548 0.72761 1.9185l54.162 0.0981c0.13462-0.32237 0.83519-1.7034 0.81076-2.0514zm-1.3488 3.4312-52.697 0.0951c1.1677 2.7568 1.2145 4.1369 1.8844 6.8012 0.44704 1.7772 1.0712 4.5699 1.0712 4.5699 0.17908 0.0293 47.25 5.1e-4 47.249 1e-3 0.48334-2.423 0.53961-4.6952 1.3085-7.6332 0.39445-1.5087 1.0886-3.2813 1.1837-3.834z" clip-rule="evenodd" fill="#fcdb00" fill-rule="evenodd"/><path d="m4.5598 3.8863v172.68c0 76.297 61.541 138.14 137.46 138.14 75.916 0 137.46-61.848 137.46-138.14v-172.68z" clip-rule="evenodd" fill="none" stroke="#00000f" stroke-miterlimit="3.8637" stroke-width="6"/></svg>
