<?xml version="1.0" encoding="iso-8859-1"?>
<!-- Generator: Adobe Illustrator 10.0, SVG Export Plug-In . SVG Version: 3.0.0 Build 77)  -->

<svg  xmlns="http://www.w3.org/2000/svg" xmlns:xlink="http://www.w3.org/1999/xlink" xmlns:a="http://ns.adobe.com/AdobeSVGViewerExtensions/3.0/"
	 width="283.465" height="318.897" viewBox="0 0 283.465 318.897"
	 style="overflow:visible;enable-background:new 0 0 283.465 318.897" xml:space="preserve">
	<g id="CMYK_Wappen">
		<path style="fill-rule:evenodd;clip-rule:evenodd;" d="M0,0h283.465v177.165c0,78.278-63.455,141.732-141.732,141.732
			S0,255.443,0,177.165V0z"/>
		
			<path style="fill-rule:evenodd;clip-rule:evenodd;fill:#F00000;stroke:#F00000;stroke-width:0.2835;stroke-miterlimit:3.8637;" d="
			M6.219,6.26h270.99v170.218c0,75.208-60.662,136.174-135.495,136.174S6.219,251.686,6.219,176.478V6.26z M232.88,207.907
			c-0.921-0.721-3.604-3.044-3.808-3.23c-1.528-1.389-25.536-24.778-32.756-31.838c-0.306-0.298-6.041-5.842-6.34-6.439
			c-0.258-0.047-5.953-5.913-6.261-6.22c-2.059-2.059-3.167-4.533-4.346-7.815c-0.727-2.021-0.903-3.239-1.336-5.343
			c-0.76-3.696-0.563-5.884-1.242-9.596c-0.489-2.669-0.696-4.203-1.509-6.792c-0.646-2.054-1.09-3.195-2.007-5.144
			c-1.246-3.39-2.303-5.708-3.615-8.526c-0.676-1.45-1.377-3.033-2.253-4.373c-0.554-0.846-2.549-3.762-2.991-4.286
			c-0.474-0.563-1.05-1.082-1.562-1.615c-1.873-1.95-3.794-3.839-5.755-5.702c-0.349-0.332-3.022-2.823-3.928-3.589
			c-1.557-1.317-11.491-7.829-11.662-9.011c-0.609-0.281-3.504-3.011-3.729-3.23c-1.018-0.989-2.102-2.071-3.011-3.15
			c-1.274-1.514-6.979-9.16-8.015-11.324c-0.551-1.152-1.04-2.346-1.574-3.509c-1.266-2.753-6.456-15.563-7.118-17.005
			c-0.659-1.438-1.259-2.938-1.974-4.346c-0.201-0.397-1.771-3.19-2.313-4.187c-4.111-7.567-10.229-14.047-17.863-18.042
			c-18.896-11.502-39.528-4.815-51.117,2.452c-2.748,1.723-5.217,3.823-7.676,5.921c-0.737,0.63-3.089,2.811-3.509,3.25
			c-2.073,2.17-3.984,4.467-5.802,6.858c-1.391,1.831-3.371,4.332-5.044,7.396c-1.608,2.948-2.371,4.716-3.389,7.915
			c-0.888,2.789-1.086,4.448-1.669,7.316c-0.257,1.265-0.424,1.975-0.624,3.25c-0.776,4.947-0.925,8.779-0.279,12.839
			c0.11,0.693,0.111,1.48,0.279,2.153c0.618,2.474,1.276,4.91,2.054,7.336c0.125,0.392,0.505,0.936,0.678,1.336
			c0.481,1.118,0.901,2.309,1.455,3.389c0.419,0.818,2.414,3.889,2.99,4.625c0.652,0.832,1.37,1.625,2.054,2.432
			c2.469,2.915,5.142,5.935,8.254,8.194c1.453,1.055,2.994,2.022,4.479,3.037c1.932,1.319,4.85,3.269,6.944,4.28
			c3.03,1.463,6.227,2.609,9.271,4.047c5.882,2.779,11.733,5.713,17.245,9.171c1.325,0.832,2.692,1.668,3.968,2.571
			c1.912,1.356,3.725,2.946,5.568,4.399c1.672,1.318,3.26,2.655,4.857,4.054c0.59,0.516,1.247,1.02,1.795,1.575
			c1.314,1.333,2.561,2.752,3.841,4.12c1.065,1.138,2.22,2.262,3.217,3.456c1.064,1.275,1.985,2.674,3.03,3.967
			c0.259,0.32,0.614,0.603,0.857,0.917c2.278,2.941,4.543,6.108,7.217,8.712c1.785,1.738,5.012,4.377,7.237,5.622
			c1.529,0.856,3.143,1.622,4.712,2.406c1.11,0.555,2.221,1.197,3.362,1.681c1.219,0.518,2.551,0.893,3.808,1.316
			c1.252,0.422,2.504,0.895,3.769,1.276c2.662,0.802,6.623,1.532,9.35,1.894c3.419,0.454,6.874,0.645,10.288,1.096
			c1.13,0.15,2.513,0.658,3.602,1.03c0.958,0.327,1.985,0.582,2.917,0.964c2.263,0.925,5.029,2.851,6.898,4.346
			c0.232,0.187,0.405,0.465,0.618,0.638c1.881,1.528,3.468,3.308,5.184,5.024c3.19,3.191,6.422,6.342,9.629,9.516
			c3.305,3.27,6.723,6.436,10.009,9.722c0.68,0.681,1.289,1.463,1.934,2.153c0.495,0.53,1.16,1.041,1.694,1.548
			c1.281,1.215,2.55,2.45,3.809,3.688c4.064,4,8.055,8.071,12.102,12.088c-1.327,7.036-0.302,16.213,6.379,22.329
			c5.328,4.876,19.21,9.755,32.477-2.632c6.352-5.93,12.602-13.117,13.598-20.235c0.534-3.818,0.475-10.802-3.409-15.81
			c-7.159-9.231-17.753-7.98-23.187-6.319C233.601,207.918,232.972,207.907,232.88,207.907z"/>
		<g>
			<path style="fill-rule:evenodd;clip-rule:evenodd;fill:#FFFFFF;" d="M216.492,222.321c1.093-1.016,2.127-2.107,3.249-3.09v-0.458
				c-1.084-1.417-2.546-2.621-3.82-3.848c-1.949-1.876-3.879-3.768-5.849-5.622c-0.182-0.172-0.336-0.416-0.519-0.599
				c-1.844-1.844-3.702-3.674-5.562-5.502c-5.909-5.807-11.758-11.675-17.645-17.504c-1.644-1.628-3.351-3.209-5.004-4.831
				c-2.421-2.376-4.806-4.792-7.297-7.091c-0.254-0.234-0.474-0.598-0.718-0.857c-0.725-0.77-1.471-1.541-2.232-2.272
				c-0.47-0.45-1.101-0.885-1.535-1.356c-1.403-1.52-2.941-2.919-4.426-4.366c-1.688-1.643-3.362-3.297-5.045-4.944
				c-0.224-0.22-0.44-0.59-0.657-0.837c-0.539-0.616-1.681-1.601-2.3-2.219c-2.047-2.047-4.113-4.074-6.16-6.121
				c-6.285-6.285-12.609-12.528-18.934-18.773c-0.207-0.205-0.656-0.402-0.857-0.598c-3.128-3.054-6.267-6.095-9.449-9.091
				c-1.477-1.39-3.013-2.733-4.446-4.167c-3.034-3.034-6.022-6.131-9.011-9.21c-0.33-0.34-0.734-0.643-1.077-0.977
				c-1.144-1.116-2.246-2.271-3.409-3.37h-0.458c-0.965,1.018-1.974,2.026-2.991,2.991v0.658c2.386,2.312,4.756,4.636,7.104,6.984
				c0.697,0.698,1.498,1.372,2.166,2.087c3.19,3.41,6.612,6.623,9.929,9.908c6.818,6.753,13.661,13.479,20.475,20.235
				c0.682,0.675,1.923,1.637,2.532,2.292c3.14,3.381,6.619,6.529,9.929,9.749c0.249,0.243,0.444,0.663,0.697,0.897
				c3.321,3.075,6.377,6.488,9.81,9.43c0.229,0.196,0.458,0.518,0.678,0.738l2.465,2.446c1.866,1.865,3.775,3.69,5.649,5.549
				c5.847,5.796,11.704,11.581,17.564,17.364c0.494,0.488,1.054,0.925,1.555,1.416c4.849,4.748,9.693,9.5,14.594,14.194
				c0.229,0.22,0.421,0.566,0.638,0.797c0.73,0.779,1.647,1.527,2.419,2.286C211.17,217.223,213.837,219.768,216.492,222.321z"/>
			<path style="fill-rule:evenodd;clip-rule:evenodd;fill:#FFFFFF;" d="M221.316,217.177l0.499-0.1
				c1.058-1.006,2.043-2.129,3.05-3.19v-0.438c-1.821-1.847-3.629-3.729-5.502-5.522c-0.552-0.527-1.169-0.99-1.715-1.515
				c-0.676-0.65-1.593-1.823-2.253-2.433c-0.248-0.229-0.578-0.431-0.837-0.658c-0.612-0.535-1.205-1.273-1.795-1.854l-4.047-3.974
				c-4.305-4.247-8.61-8.491-12.899-12.752c-0.47-0.467-0.881-1.086-1.355-1.535c-2.951-2.796-5.793-5.716-8.812-8.433
				c-0.113-0.102-0.194-0.282-0.3-0.399c-0.546-0.606-1.154-1.18-1.734-1.754c-2.42-2.398-4.827-4.808-7.236-7.217
				c-2.681-2.681-5.5-5.262-8.214-7.915c-4.479-4.379-8.927-8.792-13.418-13.158c-1.358-1.32-2.79-2.59-4.127-3.927l-5.629-5.629
				c-0.662-0.663-1.312-1.405-1.986-2.047c-0.396-0.375-7.55-7.36-7.835-7.476c-0.387-0.799-18.503-18.085-20.376-19.876
				c-0.334-0.32-0.638-0.724-0.977-1.057c-1.636-1.607-3.289-3.196-4.904-4.824c-0.159,0.036-0.335,0.053-0.499,0.04
				c-0.968,1.046-2.03,2.139-3.09,3.09c-0.036,0.146-0.053,0.309-0.04,0.458c0.215,0.159,0.953,0.672,1.037,0.997
				c0.529,0.238,20.289,19.909,22.927,22.768c0.354,0.382,0.873,0.741,1.256,1.116l4.984,4.884
				c4.021,3.92,8.021,7.863,12.042,11.782c0.309,0.301,0.579,0.684,0.897,0.997c2.473,2.433,4.935,4.874,7.376,7.337
				c0.21,0.212,0.516,0.383,0.738,0.598c1.187,1.15,2.354,2.325,3.528,3.489c5.429,5.384,10.871,10.754,16.309,16.128
				c0.364,0.361,1.008,1.048,1.495,1.295c0.073,0.271,22.336,21.854,23.126,22.628c0.736,0.722,1.438,1.567,2.134,2.333
				c0.212,0.234,0.578,0.471,0.817,0.698c1.334,1.265,2.637,2.577,3.947,3.868C212.366,208.398,216.844,212.785,221.316,217.177z"/>
			<path style="fill-rule:evenodd;clip-rule:evenodd;fill:#FFFFFF;" d="M97.61,105.574c0.91-0.457,2.863-2.76,3.528-3.488
				c-0.51-0.507-10.47-10.564-10.806-10.706c-0.142-0.348-8.308-8.173-8.813-8.672h-0.757c-0.829,0.842-1.677,1.676-2.532,2.492
				v0.738C82.153,90.018,95.431,103.414,97.61,105.574z"/>
			<path style="fill-rule:evenodd;clip-rule:evenodd;fill:#FFFFFF;" d="M102.594,100.391c1.25-0.666,3.529-3.25,3.529-3.25v-0.438
				c-0.784-0.66-19.718-19.139-19.718-19.139h-0.498l-2.852,2.851c0.031,0.164,0.053,0.332,0.061,0.498
				C83.552,81.358,100.837,98.599,102.594,100.391z"/>
			<path style="fill-rule:evenodd;clip-rule:evenodd;fill:#FFFFFF;" d="M108.55,83.154c0,0,0.563-1.806,0.723-2.999
				c0.252-1.889-0.156-4.873-0.159-4.884c-0.205-0.782-1.414-3.652-1.993-4.426c-1.03-1.373-2.283-2.593-3.449-3.848
				c-0.521-0.562-0.996-1.195-1.535-1.734c-2.144-2.144-4.434-4.174-6.579-6.32c-1.269-1.268-2.506-2.63-3.729-3.947
				c-0.103-0.11-1.353-1.64-1.535-1.694c-1.18-1.522-2.661-3.219-3.389-5.024c-0.328-0.813-0.548-1.835-0.758-2.691
				c-0.226,0.636-0.533,1.252-0.737,1.894c-0.408,1.278-0.376,2.498-0.479,4.106c-0.055,0.847-0.163,1.524-0.08,2.173
				c0.043,0.341,0.521,1.899,1.057,3.03c0.752,1.591,1.659,2.612,2.512,3.748c0.604,0.804,2.18,1.794,2.572,2.691
				c0.754,0.329,3.227,3.064,3.761,3.575c0.792,0.757,1.701,1.471,2.459,2.246c0.208,0.212,3.19,3.529,3.19,3.529
				C102.972,75.408,107.032,79.712,108.55,83.154z M226.161,211.994c-1.622-1.987-3.664-3.75-5.522-5.522
				c-2.892-2.759-5.744-5.604-8.572-8.433c-0.813-0.812-3.234-2.776-3.589-3.588c-0.305-0.074-17.167-16.717-17.644-17.185
				c-2.538-2.49-5.188-4.887-7.735-7.376c-1.939-1.896-3.865-3.805-5.782-5.722c-0.47-0.47-0.903-0.997-1.376-1.455
				c-16.12-15.66-32.078-31.492-48.187-47.169c-0.248-0.241-0.458-0.604-0.697-0.857c-0.218-0.23-0.547-0.41-0.798-0.599
				c-0.299-0.224-0.679-0.812-0.957-1.096c-1.154-1.181-2.345-2.336-3.522-3.496c-3.884-3.824-7.796-7.62-11.669-11.457
				c0.026-0.089,0.161-0.49,0.199-0.539c0.358-0.46,3.788-3.827,3.788-3.827l-2.492-1.994c0,0-3.551,3.04-3.828,3.629h-0.458
				c-2.049-2.032-17.504-17.702-19.279-19.478v-0.399c0.682-0.721,3.185-2.819,3.648-3.149v-0.638
				c-7.608-4.645-15.196-9.279-22.728-14.055c-1.892-1.199-3.463-2.68-5.104-4.187c-0.317-0.291-0.699-0.569-0.978-0.897
				c-0.89-1.052-1.692-2.214-2.531-3.31c-1.424-1.858-2.861-3.706-4.287-5.562c-0.631,0.618-1.223,1.275-1.854,1.894
				c-0.23,0.029-0.475,0.035-0.698,0.1c-2.502-1.756-5.012-3.514-7.476-5.323v-0.359c1.384-1.007,2.756-2.113,4.146-3.09
				c0.512-0.36,1.133-0.638,1.675-0.957c0.931-0.549,1.854-1.179,2.811-1.675c0.539-0.278,1.137-0.497,1.695-0.737
				c0.962-0.415,1.914-0.95,2.891-1.316c2.336-0.876,4.946-1.431,7.376-1.954c3.643-0.784,5.479-1.027,9.171-0.891
				c0.657,0.024,1.389-0.017,2.034,0.073c1.536,0.214,3.096,0.68,4.585,1.109c1.963,0.567,4.271,1.275,6.121,2.22
				c0.544,0.278,1.071,0.657,1.595,0.977c0.88,0.538,1.86,1.052,2.691,1.655c2.582,1.873,6.282,5.537,8.313,7.975
				c0.4,0.48,0.726,1.072,1.116,1.575c0.411,0.528,0.894,1.03,1.276,1.575c3.165,4.503,6.116,10.162,8.273,15.251
				c1.198,2.825,2.107,5.782,3.29,8.612c1.188,2.844,3.185,5.467,4.943,7.955c1.487,2.103,2.926,4.283,4.526,6.3
				c1.07,1.35,2.349,2.597,3.495,3.888c1.702,1.915,3.428,3.752,5.276,5.522c0.461,0.44,0.901,0.956,1.396,1.355
				c4.273,3.455,8.517,6.931,12.899,10.247c0.372,0.281,0.784,0.838,1.137,1.176c1.114,1.072,2.24,2.131,3.349,3.209
				c0.087,0.085,0.261,0.146,0.359,0.239c0.906,0.856,1.878,1.752,2.731,2.652c1.014,1.07,1.953,2.253,2.903,3.382
				c4.706,5.587,7.779,10.279,10.627,16.979c0.514,1.209,1.154,2.456,1.562,3.701c0.416,1.27,0.71,2.61,1.063,3.901
				c0.934,3.409,1.821,6.83,3.023,10.154c0.164,0.453,0.297,0.961,0.498,1.396c0.572,1.235,2.054,3.888,2.792,5.044
				c1.41,2.211,3.424,4.003,5.263,5.842c0.783,0.783,1.574,1.564,2.346,2.359c0.284,0.292,0.564,0.683,0.864,0.95
				c1.141,1.014,13.644,13.104,13.796,13.257c4.564,4.603,9.267,9.052,13.717,13.756c1.448,1.531,3.051,2.991,4.545,4.486
				c3.642,3.641,7.282,7.285,10.945,10.905c-0.013,0.15,0.004,0.313,0.04,0.458c-0.759,0.828-1.552,1.625-2.332,2.433
				C226.628,211.925,226.388,211.931,226.161,211.994z"/>
			<path style="fill-rule:evenodd;clip-rule:evenodd;fill:#FFFFFF;" d="M247.533,242.337c3.526-3.957,9.704-11.808,9.211-17.385
				c-1.365-15.45-16.632-17.61-23.964-14.055c-0.797,0.387-1.474,1.151-2.133,1.748c-0.545,0.493-1.441,1.035-1.456,1.84
				c0.422,0.604,5.816,6.239,6.878,6.739c-0.207-2.258,4.918-5.57,7.936-2.851c4.76,4.29-1.018,11.468-6.098,7.407
				c-0.444-0.297-8.324-7.507-10.51-9.54c-0.248,0.17-2.528,2.222-3.329,3.09v0.399c1.813,1.656,12.679,12.79,14.294,13.362
				c7-1.625,7.938,4.563,5.543,7.55c-2.423,3.022-9.605,1.95-8.074-5.781c-1.361-1.203-12.705-12.887-13.657-13.497
				c-1.029,0.953-2.079,1.959-3.03,2.99v0.438c1.314,1.372,9.029,8.446,9.219,8.861c5.563,12.25-13.938,8.563-5.989,0.07
				c0.442-0.473,1.176-0.624,1.734-0.957c-0.741-0.778-6.857-6.52-6.857-6.52l-1.755,1.396c-5.258,5.386-4.391,14.014,1.495,20.076
				C219.112,249.904,233.55,258.029,247.533,242.337z"/>
			<path style="fill-rule:evenodd;clip-rule:evenodd;fill:#FFFFFF;" d="M84.353,107.309c-0.582-0.015-2.236,0.066-3.609-0.259
				c-3.016-0.713-5.268-3.369-6.599-4.426c-1.316-1.045-2.474-2.38-3.748-3.489c-4.086-3.555-8.172-7.063-12.4-10.446
				c-0.442-0.354-3.119-1.354-5.224-1.355c-1.282-0.001-2.007,0.182-3.25,0.498c-1.637,0.417-2.689,1.14-4.027,1.595
				c0.389,0.211,1.681,0.507,2.731,0.897c1.01,0.375,1.601,0.553,2.552,1.057c1.514,0.801,2.369,1.756,3.529,2.611
				c1.937,1.429,3.962,2.809,5.842,4.307c2.222,1.771,4.251,3.871,6.319,5.821c0.069,0.065,0.838,0.484,0.837,0.598
				c0.381,0.43,3.889,3.349,3.889,3.349c1.315,0.379,2.606,1.653,4.485,1.794c0.776,0.058,1.49-0.019,1.993-0.1
				c0.685-0.109,3.223-0.33,4.984-1.295C83.359,108.081,84.298,107.458,84.353,107.309z M211.368,227.285
				c-2.468-2.288-4.965-4.593-7.376-6.918c-4.631-4.465-9.285-8.912-13.863-13.431c-1.415-1.396-2.841-2.78-4.26-4.173
				c-0.339-0.333-1.044-0.827-1.315-1.177c-0.212-0.272-0.412-0.603-0.639-0.857c-0.446-0.502-1.215-0.997-1.721-1.502
				c-1.759-1.759-3.537-3.498-5.297-5.256c-2.731-2.731-5.378-5.592-8.193-8.234c-0.967-0.907-2.164-1.688-3.21-2.512
				c-1.782-1.403-3.552-2.899-5.403-4.207c-1.323-0.936-3.519-2.07-5.023-2.651c-1.233-0.478-3.261-0.816-4.646-1.296
				c-3.752-1.301-7.432-2.728-11.064-4.326c-0.758-0.333-1.553-0.627-2.293-0.997c-1.646-0.823-3.251-1.766-4.864-2.651
				c-3.046-1.673-6.187-3.31-9.031-5.323c-1.602-1.133-3.133-2.375-4.705-3.548c-2.103-1.57-4.467-3.448-6.36-5.263
				c-1.118-1.072-6.384-6.119-7.575-7.476l-3.39-3.848c-0.828-0.932-1.54-2.087-2.293-3.09c-0.679-0.906-1.412-1.757-2.146-2.618
				c-1.093-1.282-2.126-2.676-3.276-3.901c-0.789-0.841-4.305-4.472-5.682-5.821c-0.648-0.635-2.724-2.323-4.586-3.648
				c-1.766-1.257-2.79-1.937-4.685-2.991c-3.073-1.709-5.075-2.125-8.273-3.588c-4.627-2.116-7.18-3.435-11.703-5.762
				c-1.834-0.943-2.894-1.431-4.685-2.452c-1.674-0.955-2.804-1.732-4.207-2.592c-1.752-1.073-3.348-1.875-5.264-3.389
				c-0.93-0.735-1.541-1.331-2.293-1.994c-0.786-0.694-1.618-1.35-2.392-2.054c-1.469-1.335-2.755-2.927-4.048-4.426
				c-1.794-2.082-3.871-4.209-5.203-7.516c-1.182-2.936-1.346-4.813-1.495-7.975c-0.069-1.481,0.038-2.545,0.066-3.801
				c0.109-4.822,0.501-7.795,2.014-12.44c2.249-5.803,5.124-11.428,8.366-15.059h0.658c1.867,2.488,3.843,4.896,5.722,7.376
				c0.015,0.238-0.048,0.467-0.1,0.698c-0.224,0.189-2.347,2.196-2.412,2.393c-0.033,0.099-0.025,0.295-0.02,0.398
				c0.86,0.655,3.978,2.667,4.625,3.17c1.479,1.15,2.924,2.232,4.499,3.256c1.529,0.994,5.104,3.173,6.267,4.439
				c0.86,0.937,3.305,5.08,3.968,6.28c0.216,0.392,0.961,1.404,1.057,1.595c0.91,1.821,1.678,3.733,2.651,5.522
				c1.048,1.926,2.147,3.823,3.21,5.741c0.325,0.587,0.656,1.174,0.957,1.774c0.277,0.555,0.486,1.239,0.817,1.754
				c0.052,0.082,0.346,0.296,0.438,0.399h0.797c0.293-0.336,3.002-3.367,3.648-3.788h0.399c1.272,1.191,2.676,2.297,3.888,3.549
				c1.453,1.501,2.952,2.989,4.426,4.485c0.512,0.52,1.142,0.986,1.675,1.495c1.141,1.09,2.264,2.203,3.389,3.31
				c1.855,1.825,3.645,3.724,5.503,5.542c0.26,0.254,0.616,0.458,0.896,0.698v0.498c-1.433,1.457-2.73,3.052-4.126,4.546v0.697
				c0.675,0.49,1.21,0.986,1.734,1.635c1.719-1.477,3.236-3.172,4.884-4.725c2.248,1.992,4.4,4.133,6.5,6.28
				c0.384,0.393,0.728,0.859,1.116,1.236c3.334,3.236,6.61,6.539,9.968,9.749c0.334,0.319,0.734,0.603,1.057,0.917
				c1.302,1.268,2.536,2.669,3.788,3.987c0.502,0.528,1.143,1.006,1.675,1.515c1.75,1.671,3.482,3.363,5.204,5.064
				c3.883,3.838,7.708,7.73,11.603,11.563c0.897,0.883,1.873,1.73,2.791,2.591c0.511,0.479,0.977,1.056,1.476,1.556
				c2.589,2.589,5.188,5.187,7.795,7.755c21.01,20.688,42.017,41.385,63.08,62.021c0,0.238,0.014,0.461,0.04,0.698
				C214.511,224.385,211.896,226.854,211.368,227.285z"/>
			<path style="fill-rule:evenodd;clip-rule:evenodd;fill:#FFFFFF;" d="M143.843,175.471c-1.401-0.534-3.173-1.063-5.123-1.934
				c-2.906-1.297-4.748-2.675-7.131-3.968c-3.875-2.101-7.697-4.229-11.311-6.758c-3.059-2.141-5.872-4.598-8.693-7.031
				c-1.225-1.057-2.533-2.066-3.708-3.176c-0.505-0.477-0.955-1.073-1.436-1.582c-1.473-1.563-2.94-3.13-4.386-4.718
				c-2.634-2.894-4.727-6.283-7.237-9.291c-1.058-1.267-2.279-2.592-3.488-3.728c-0.28-0.264-0.634-0.485-0.897-0.758
				c-0.18-0.187-0.315-0.428-0.498-0.618c-1.868-1.942-4.062-3.743-6.221-5.363c-2.328-1.746-4.784-3.33-7.276-4.825
				c-0.716-0.429-1.443-0.935-2.193-1.296c-1.771-0.853-3.609-1.586-5.403-2.392c-5.041-2.267-10.074-4.595-15.031-7.038
				c-2.559-1.26-5.038-2.795-7.437-4.326c-0.617-0.394-1.155-0.711-1.874-1.196c-1.774-1.197-2.885-2.252-4.347-3.349
				c-0.489-0.367-2.244-1.972-2.611-2.373c-1.111-1.21-3.663-3.698-3.708-3.708c-0.602-0.924-1.228-1.481-1.954-2.472
				c-1.271-1.734-2.008-2.722-2.971-4.645c-1.292-2.581-1.849-4.176-2.353-7.018c-0.338-1.904-0.312-3.471-0.379-4.944
				c-0.042-0.927-0.119-1.864-0.119-2.791c0-0.609,0.111-3.051,0.358-4.984c0.491-3.84,1.398-7.368,2.333-9.649
				c0.485-1.187,1.037-2.355,1.555-3.529c0.743-1.685,1.488-3.418,2.433-5.004c1.381-2.32,3.688-4.979,4.784-6.678
				c0.169-0.261,0-0.797,0-0.797c-0.175-0.071-1.703-1.98-2.353-2.691c-0.205,0.132-0.848,0.321-0.896,0.358
				c-1.004,0.77-1.393,1.486-2.492,3.084c-1.22,1.562-2.038,2.731-2.871,4.193c-1.003,1.76-2.325,4.476-3.489,7.476
				c-1.784,4.601-2.559,7.33-3.349,12.201c-0.354,2.178-0.534,3.418-0.639,5.622c-0.154,3.266,0.34,7.984,0.419,8.373
				c0.642,3.152,1.805,6.213,2.911,9.23l0.106,0.12c0.171,0.193,1.151,2.04,1.548,2.711c0.313,0.529,1.193,1.459,1.608,2.04
				c3.123,4.371,7.032,8.153,11.33,11.357c0.854,0.636,1.844,1.176,2.745,1.748c1.275,0.809,2.533,1.676,3.835,2.439
				c1.231,0.723,2.513,1.371,3.768,2.053c2.057,1.119,4.138,2.416,6.26,3.39c3.993,1.832,8.097,3.365,12.042,5.323
				c1.471,0.729,3.981,2.108,5.343,2.991c1.568,1.017,3.08,2.137,4.626,3.189c1.531,1.043,3.164,2.022,4.645,3.13
				c2.481,1.856,5.894,4.658,8.075,6.838c2.545,2.545,4.646,5.53,6.957,8.273c0.646,0.766,1.401,1.476,2.067,2.233
				c2.474,2.814,4.468,5.193,7.303,8.533c1.114,1.312,1.56,2.232,2.852,3.369c0.734,0.646,1.369,1.019,2.014,1.495
				c0.658,0.487,1.182,0.943,1.974,1.496c1.589,1.108,2.613,1.535,4.286,2.512c0.987,0.576,1.521,0.942,2.532,1.476
				c2.446,1.29,4.752,2.006,6.579,2.651c1.591,0.562,2.965,0.882,4.845,1.495c3.066,1.001,5.117,2.041,7.795,2.771
				c0.691,0.189,1.318,0.56,2.213,0.618C142.786,175.674,143.339,175.52,143.843,175.471z"/>
			<path style="fill-rule:evenodd;clip-rule:evenodd;fill:#FFFFFF;" d="M173.488,137.253c0.336-1.218-0.821-4.087-1.555-6.646
				c-0.771-2.692-1.471-4.568-2.333-6.791c-2.044-5.273-5.332-10.992-9.17-15.172c-0.697-0.758-1.916-2.357-2.632-2.931
				c-3.693-2.954-7.424-5.873-11.065-8.892c-0.435-0.36-0.805-0.806-1.235-1.156c-1.397-1.137-3.053-2.001-4.486-3.09
				c-0.755-0.573-1.465-1.292-2.18-1.921c-4.413-3.884-8.799-8.503-12.035-13.43c-0.535-0.815-0.988-1.697-1.495-2.532
				c-1.92-3.162-3.721-6.342-5.224-9.729c-1.855-4.184-3.359-8.552-5.283-12.699c-0.81-1.747-1.737-3.567-2.731-5.223
				c-0.229-0.383-3.036-5.496-4.087-6.938c-0.631-0.866-1.367-1.682-2.033-2.525c-0.923-1.17-1.837-2.392-2.812-3.516
				c-2.161-2.494-6.196-5.579-10.805-8.154c-2.269-1.267-3.576-1.972-6.021-2.851c-3.788-1.362-6.107-1.788-10.128-1.994
				c-4.403-0.225-6.936,0.255-11.244,1.196c-4.021,0.879-6.239,1.681-10.028,3.29c-2.186,0.928-3.405,1.499-5.482,2.651
				c-3.637,2.017-7.061,4.327-8.771,6.061c-0.342,0.346-0.516,0.674-0.798,0.957v0.398c0.938,0.667,2.442,2.054,3.35,2.532
				c0.094,0.049,0.484,0.071,0.598,0.06c2.265-1.734,4.031-3.334,6.918-4.984c0.713-0.408,1.125-0.62,1.854-0.997
				c3.923-2.03,6.215-3.127,10.467-4.326c2.478-0.699,3.901-1.063,6.459-1.356c3.173-0.363,5.007-0.273,8.188,0.013
				c2.188,0.197,3.411,0.433,5.569,0.844c2.294,0.438,8.794,3.75,11.024,5.463c1.56,1.197,2.333,2.005,3.769,3.349
				c1.271,1.192,2.4,2.353,3.189,3.13c0.668,0.657,2.454,2.623,2.99,3.349c2.243,3.032,4.332,6.242,6.28,9.469
				c1.143,1.893,2.259,4.039,3.15,6.061c0.598,1.358,1.119,2.759,1.734,4.107c1.131,2.476,2.304,4.934,3.436,7.409
				c0.828,1.813,1.618,3.765,2.605,5.489c0.731,1.279,1.802,2.522,2.651,3.741c1.205,1.73,2.379,3.568,3.668,5.23
				c0.466,0.601,1.08,1.167,1.595,1.734c1.652,1.817,3.313,3.546,5.104,5.223c0.618,0.58,1.216,1.22,1.874,1.754
				c2.803,2.273,5.641,4.508,8.413,6.818c0.376,0.313,0.692,0.676,1.057,0.997c1.687,1.485,3.431,2.929,5.144,4.386
				c0.933,0.793,1.866,1.593,2.811,2.372c0.49,0.403,1.057,0.782,1.516,1.216c0.636,0.602,1.219,1.335,1.808,1.987
				c1.32,1.462,2.628,2.925,3.895,4.433c1.56,1.856,2.956,3.705,4.346,5.682c0.44,0.627,0.845,1.155,1.356,1.914
				c2.695,4.003,3.808,7.361,5.582,11.044C172.757,134.811,173.135,136.139,173.488,137.253z"/>
			<path style="fill-rule:evenodd;clip-rule:evenodd;fill:#FFFFFF;" d="M47.788,51.567c0.621-0.425,3.949-3.476,3.949-3.476
				c-0.891-0.723-2.001-1.709-2.912-2.406c-3.527-2.695-7.006-5.603-10.766-7.974h-0.499c-0.099,0.122-0.213,0.243-0.339,0.339
				v0.558c2.061,2.706,6.848,8.652,7.117,9.011C45.366,48.989,46.651,50.279,47.788,51.567z"/>
		</g>
	</g>
</svg>
