<?xml version="1.0" encoding="utf-8" standalone="no"?>
<!DOCTYPE svg PUBLIC "-//W3C//DTD SVG 1.1//EN" "http://www.w3.org/Graphics/SVG/1.1/DTD/svg11.dtd">
<svg version="1.1"
   xmlns="http://www.w3.org/2000/svg"
   width="520" height="585" viewBox="0 0 100 112.5">
  <title>Wappen von Wallbach</title>
  <desc>Wappen der Schweizer Gemeinde Wallbach, Kanton Aargau</desc>
  <path d="M 1,1 H 99 V 62.5 A 49 49 0 0 1 1,62.5 z" stroke="black" stroke-width="2" fill="#f00000" />
  <g stroke="black" stroke-width="1" fill="white">
    <path d="M 50,5 l 3.3,6.4 7.2,-0.5 -3.9,6.1 3.9,6.1 -7.2,-0.5 -3.3,6.4 -3.3,-6.4 -7.2,0.5 3.9,-6.1 -3.9,-6.1 7.2,0.5 z" />
    <path d="M 55.5,31.5 c -1,2 -1,4 -1,6 V 43 H 65 c 2,0 4,0 6,-1 V 51.5 c -2,-1 -4,-1 -6,-1 H 54.5 V 61 H 73 c 2,0 4,0 6,-1 V 69.5 c -2,-1 -4,-1 -6,-1 H 54.5 V 96 c 0,2 0,4 1,6 h -11 c 1,-2 1,-4 1,-6 V 68.5 H 27 c -2,0 -4,0 -6,1 V 60 c 2,1 4,1 6,1 H 45.5 V 50.5 H 35 c -2,0 -4,0 -6,1 V 42 c 2,1 4,1 6,1 H 45.5 V 37.5 c 0,-2 0,-4 -1,-6 z" />
  </g>
</svg>
