<?xml version="1.0" encoding="UTF-8" standalone="no"?>
<!-- Created with Inkscape (http://www.inkscape.org/) -->
<svg
   xmlns:svg="http://www.w3.org/2000/svg"
   xmlns="http://www.w3.org/2000/svg"
   version="1.0"
   width="359.07999"
   height="401.42999"
   id="svg2">
  <defs
     id="defs4">
    <clipPath
       id="clipPath3474">
      <path
         d="M 418.2,712.68 L 421.56,712.68 L 421.56,700.33 L 418.2,700.33 L 418.2,712.68 z"
         id="path3476" />
    </clipPath>
    <clipPath
       id="clipPath3438">
      <path
         d="M 354.48,710.28 L 418.19,710.28 L 418.19,638.65 L 354.48,638.65 L 354.48,710.28 z"
         id="path3440" />
    </clipPath>
    <clipPath
       id="clipPath3426">
      <path
         d="M 354.48,710.28 L 418.19,710.28 L 418.19,638.65 L 354.48,638.65 L 354.48,710.28 z"
         id="path3428" />
    </clipPath>
    <clipPath
       id="clipPath3356">
      <path
         d="M 418.2,612.72 L 421.56,612.72 L 421.56,600.36 L 418.2,600.36 L 418.2,612.72 z"
         id="path3358" />
    </clipPath>
    <clipPath
       id="clipPath3342">
      <path
         d="M 354.48,610.32 L 418.19,610.32 L 418.19,538.68 L 354.48,538.68 L 354.48,610.32 z"
         id="path3344" />
    </clipPath>
    <clipPath
       id="clipPath3330">
      <path
         d="M 354.48,610.32 L 418.19,610.32 L 418.19,538.68 L 354.48,538.68 L 354.48,610.32 z"
         id="path3332" />
    </clipPath>
    <clipPath
       id="clipPath3260">
      <path
         d="M 418.2,512.64 L 421.56,512.64 L 421.56,500.28 L 418.2,500.28 L 418.2,512.64 z"
         id="path3262" />
    </clipPath>
    <clipPath
       id="clipPath3176">
      <path
         d="M 354.48,510.24 L 418.19,510.24 L 418.19,438.61 L 354.48,438.61 L 354.48,510.24 z"
         id="path3178" />
    </clipPath>
    <clipPath
       id="clipPath3164">
      <path
         d="M 354.48,510.24 L 418.19,510.24 L 418.19,438.61 L 354.48,438.61 L 354.48,510.24 z"
         id="path3166" />
    </clipPath>
    <clipPath
       id="clipPath3088">
      <path
         d="M 418.2,412.68 L 421.56,412.68 L 421.56,400.32 L 418.2,400.32 L 418.2,412.68 z"
         id="path3090" />
    </clipPath>
    <clipPath
       id="clipPath3072">
      <path
         d="M 354.48,410.28 L 418.19,410.28 L 418.19,338.65 L 354.48,338.65 L 354.48,410.28 z"
         id="path3074" />
    </clipPath>
    <clipPath
       id="clipPath3060">
      <path
         d="M 354.48,410.28 L 418.19,410.28 L 418.19,338.65 L 354.48,338.65 L 354.48,410.28 z"
         id="path3062" />
    </clipPath>
    <clipPath
       id="clipPath2986">
      <path
         d="M 418.2,312.72 L 421.56,312.72 L 421.56,300.36 L 418.2,300.36 L 418.2,312.72 z"
         id="path2988" />
    </clipPath>
    <clipPath
       id="clipPath2966">
      <path
         d="M 354.48,310.32 L 418.19,310.32 L 418.19,238.69 L 354.48,238.69 L 354.48,310.32 z"
         id="path2968" />
    </clipPath>
    <clipPath
       id="clipPath2954">
      <path
         d="M 354.48,310.32 L 418.19,310.32 L 418.19,238.69 L 354.48,238.69 L 354.48,310.32 z"
         id="path2956" />
    </clipPath>
    <clipPath
       id="clipPath2882">
      <path
         d="M 418.2,212.64 L 421.56,212.64 L 421.56,200.29 L 418.2,200.29 L 418.2,212.64 z"
         id="path2884" />
    </clipPath>
    <clipPath
       id="clipPath2794">
      <path
         d="M 354.48,210.24 L 418.19,210.24 L 418.19,138.6 L 354.48,138.6 L 354.48,210.24 z"
         id="path2796" />
    </clipPath>
    <clipPath
       id="clipPath2782">
      <path
         d="M 354.48,210.24 L 418.19,210.24 L 418.19,138.6 L 354.48,138.6 L 354.48,210.24 z"
         id="path2784" />
    </clipPath>
    <clipPath
       id="clipPath2710">
      <path
         d="M 422.04,110.76 L 422.04,135.12 L 549.12,135.12 L 549.12,110.76 L 545.88,110.76 L 545.88,125.88 L 425.28,125.88 L 425.28,110.76 L 422.04,110.76 z"
         id="path2712" />
    </clipPath>
    <clipPath
       id="clipPath2688">
      <path
         d="M 351.12,110.76 L 351.12,135.12 L 354.48,135.12 L 354.48,110.76 L 351.12,110.76 z M 418.32,110.76 L 418.32,135.12 L 421.56,135.12 L 421.56,110.76 L 418.32,110.76 z"
         id="path2690" />
    </clipPath>
    <clipPath
       id="clipPath2666">
      <path
         d="M 288.84,110.76 L 288.84,135.12 L 350.64,135.12 L 350.64,110.76 L 347.4,110.76 L 347.4,132.84 L 292.08,132.84 L 292.08,110.76 L 288.84,110.76 z"
         id="path2668" />
    </clipPath>
    <clipPath
       id="clipPath2650">
      <path
         d="M 147.12,110.76 L 147.12,135.12 L 288.36,135.12 L 288.36,110.76 L 285.12,110.76 L 285.12,125.88 L 150.36,125.88 L 150.36,110.76 L 147.12,110.76 z"
         id="path2652" />
    </clipPath>
    <clipPath
       id="clipPath2634">
      <path
         d="M 67.68,110.76 L 67.68,135.12 L 146.64,135.12 L 146.64,110.76 L 143.28,110.76 L 143.28,125.88 L 70.92,125.88 L 70.92,110.76 L 67.68,110.76 z"
         id="path2636" />
    </clipPath>
    <clipPath
       id="clipPath2502">
      <path
         d="M 70.92,803.76 L 574.44,803.76 L 574.44,774.97 L 70.92,774.97 L 70.92,803.76 z"
         id="path2504" />
    </clipPath>
    <clipPath
       id="clipPath2480">
      <path
         d="M 70.92,803.76 L 574.44,803.76 L 574.44,801.97 L 70.92,801.97 L 70.92,803.76 z"
         id="path2482" />
    </clipPath>
    <clipPath
       id="clipPath2470">
      <path
         d="M 70.92,776.76 L 574.44,776.76 L 574.44,774.97 L 70.92,774.97 L 70.92,776.76 z"
         id="path2472" />
    </clipPath>
  </defs>
  <g
     transform="translate(-236.31697,-544.86134)"
     id="layer1">
    <g
       transform="matrix(4.2719346,0,0,4.2719346,-1506.5136,-2318.948)"
       id="g5807">
      <g
         transform="matrix(1.25,0,0,1.25,-32.925,-125.70657)"
         clip-path="url(#clipPath3426)"
         id="g3424">
        <g
           id="g3430">
          <path
             d="M 354.59,638.74 L 418.09,638.74 L 418.09,678.43 L 418.09,678.43 L 418.09,680.05 L 417.92,681.67 L 417.75,683.24 L 417.47,684.81 L 417.08,686.38 L 416.68,687.89 L 416.18,689.35 L 415.62,690.8 L 414.95,692.2 L 414.28,693.54 L 413.5,694.88 L 412.71,696.17 L 411.82,697.4 L 410.86,698.63 L 409.85,699.76 L 408.8,700.88 L 407.73,701.94 L 406.55,702.89 L 405.38,703.84 L 404.09,704.74 L 402.8,705.58 L 401.51,706.3 L 400.11,707.03 L 398.71,707.65 L 397.26,708.2 L 395.8,708.71 L 394.29,709.16 L 392.77,709.49 L 391.21,709.77 L 389.59,709.99 L 388.02,710.11 L 386.34,710.17 L 386.34,710.17 L 384.71,710.11 L 383.09,709.99 L 381.52,709.77 L 379.96,709.49 L 378.44,709.16 L 376.93,708.71 L 375.42,708.2 L 374.02,707.65 L 372.62,707.03 L 371.22,706.3 L 369.88,705.58 L 368.59,704.74 L 367.36,703.84 L 366.18,702.89 L 365,701.94 L 363.95,700.88 L 362.88,699.76 L 361.87,698.63 L 360.92,697.4 L 360.02,696.17 L 359.23,694.88 L 358.45,693.54 L 357.73,692.2 L 357.11,690.8 L 356.55,689.35 L 356.05,687.89 L 355.6,686.38 L 355.26,684.81 L 354.98,683.24 L 354.76,681.67 L 354.64,680.05 L 354.59,678.43 L 354.59,638.74 z"
             id="path3432"
             style="fill:#000000;fill-opacity:1;fill-rule:evenodd;stroke:none" />
        </g>
      </g>
      <g
         transform="matrix(1.25,0,0,1.25,-32.925,-125.70657)"
         clip-path="url(#clipPath3438)"
         id="g3436">
        <path
           d="M 372.67,705.47 L 372.67,705.47 L 374.24,706.19 L 375.87,706.86 L 377.55,707.42 L 379.23,707.87 L 380.96,708.26 L 382.7,708.54 L 384.49,708.71 L 386.23,708.77 L 386.34,708.77 L 386.39,708.77 L 386.39,708.77 L 387.63,708.71 L 388.86,708.65 L 390.09,708.49 L 391.32,708.32 L 392.56,708.1 L 393.73,707.76 L 394.96,707.42 L 396.14,707.03 L 397.26,706.64 L 398.43,706.13 L 399.55,705.63 L 400.67,705.08 L 401.74,704.51 L 402.8,703.84 L 403.81,703.17 L 404.82,702.49 L 404.87,702.44 L 404.87,702.44 L 405.77,701.72 L 406.72,700.88 L 407.62,700.03 L 408.46,699.2 L 409.3,698.24 L 410.08,697.35 L 410.8,696.4 L 411.53,695.45 L 361.2,695.45 L 361.2,695.45 L 362.32,696.95 L 363.55,698.41 L 364.89,699.81 L 366.29,701.15 L 367.75,702.38 L 369.32,703.51 L 370.94,704.51 L 372.62,705.47 L 372.67,705.47 z"
           id="path3442"
           style="fill:#009944;fill-opacity:1;fill-rule:evenodd;stroke:#009944;stroke-width:0.12;stroke-linecap:round;stroke-linejoin:round;stroke-miterlimit:10;stroke-dasharray:none;stroke-opacity:1" />
        <path
           d="M 360.64,694.44 L 360.64,694.44 L 360.08,693.54 L 359.57,692.65 L 359.13,691.75 L 358.68,690.8 L 358.29,689.85 L 357.89,688.84 L 357.55,687.83 L 357.23,686.83 L 356.94,685.82 L 356.71,684.76 L 356.5,683.69 L 356.33,682.63 L 356.16,681.56 L 356.1,680.51 L 356.05,679.38 L 355.99,678.26 L 355.99,640.15 L 416.68,640.15 L 416.68,678.26 L 416.68,678.32 L 416.68,678.32 L 416.68,679.44 L 416.63,680.56 L 416.52,681.62 L 416.41,682.69 L 416.24,683.74 L 416.02,684.81 L 415.73,685.82 L 415.45,686.88 L 415.18,687.89 L 414.84,688.84 L 414.45,689.85 L 414.05,690.8 L 413.61,691.75 L 413.1,692.65 L 412.6,693.54 L 412.1,694.44 L 411.53,694.44 L 411.76,678.6 L 411.76,678.6 L 412.43,678.6 L 412.43,678.38 L 412.43,678.38 L 404.2,666.85 L 401.51,666.85 L 401.51,666.85 L 401.46,650.67 L 401.46,650.67 L 402.69,650.45 L 402.69,650.45 L 396.7,640.54 L 396.7,640.54 L 393.67,645.24 L 390.65,650.05 L 390.65,650.05 L 391.93,650.39 L 391.93,650.39 L 391.88,666.85 L 391.88,666.85 L 369.38,666.73 L 369.38,666.73 L 365,672.44 L 360.25,678.6 L 360.25,678.6 L 360.3,678.71 L 360.3,678.71 L 361.09,678.71 L 361.09,678.71 L 361.14,678.77 L 361.2,678.88 L 361.2,678.88 L 361.14,694.44 L 360.64,694.44 z"
           id="path3444"
           style="fill:#0093dd;fill-opacity:1;fill-rule:evenodd;stroke:#0093dd;stroke-width:0.12;stroke-linecap:round;stroke-linejoin:round;stroke-miterlimit:10;stroke-dasharray:none;stroke-opacity:1" />
        <path
           d="M 404.98,677.59 L 404.98,677.59 L 403.14,667.4 L 403.14,667.4 L 390.26,667.4 L 369.54,667.4 L 369.54,667.4 L 361.82,677.59 L 361.82,677.59 L 378.11,677.65 L 404.98,677.59 L 404.98,677.59 z"
           id="path3446"
           style="fill:#f00000;fill-opacity:1;fill-rule:evenodd;stroke:#f00000;stroke-width:0.12;stroke-linecap:round;stroke-linejoin:round;stroke-miterlimit:10;stroke-dasharray:none;stroke-opacity:1" />
        <path
           d="M 411.09,677.59 L 411.09,677.59 L 403.76,667.35 L 403.76,667.35 L 404.26,669.81 L 404.92,673.22 L 405.71,677.59 L 411.09,677.59 z"
           id="path3448"
           style="fill:#f00000;fill-opacity:1;fill-rule:evenodd;stroke:#f00000;stroke-width:0.12;stroke-linecap:round;stroke-linejoin:round;stroke-miterlimit:10;stroke-dasharray:none;stroke-opacity:1" />
        <path
           d="M 396.31,650.33 L 396.31,650.33 L 396.58,650.33 L 396.81,650.28 L 397.04,650.17 L 397.26,650.05 L 397.42,649.83 L 397.54,649.6 L 397.65,649.38 L 397.65,649.1 L 397.65,649.1 L 397.65,648.88 L 397.59,648.65 L 397.42,648.43 L 397.26,648.26 L 397.09,648.1 L 396.86,647.98 L 396.64,647.92 L 396.36,647.92 L 396.36,647.92 L 396.14,647.92 L 395.92,648.04 L 395.74,648.15 L 395.58,648.26 L 395.47,648.43 L 395.36,648.65 L 395.3,648.88 L 395.24,649.1 L 395.24,649.1 L 395.24,649.33 L 395.3,649.55 L 395.41,649.72 L 395.52,649.94 L 395.69,650.05 L 395.86,650.22 L 396.08,650.28 L 396.31,650.33 L 396.31,650.33 z"
           id="path3450"
           style="fill:#ffffff;fill-opacity:1;fill-rule:evenodd;stroke:none" />
        <path
           d="M 366.52,684.92 L 366.52,684.92 L 366.02,684.87 L 365.63,684.65 L 365.23,684.42 L 364.89,684.08 L 364.61,683.69 L 364.45,683.3 L 364.33,682.85 L 364.33,682.35 L 364.33,682.35 L 364.39,681.9 L 364.56,681.45 L 364.84,681.06 L 365.11,680.72 L 365.51,680.45 L 365.9,680.22 L 366.35,680.11 L 366.86,680.11 L 366.86,680.11 L 367.36,680.17 L 367.86,680.33 L 368.25,680.61 L 368.65,681.01 L 368.87,681.4 L 369.09,681.9 L 369.15,682.4 L 369.15,682.91 L 369.15,682.91 L 369.04,683.35 L 368.81,683.8 L 368.59,684.14 L 368.25,684.47 L 367.86,684.7 L 367.41,684.87 L 366.97,684.92 L 366.52,684.92 L 366.52,684.92 z M 372.4,684.81 L 372.4,684.81 L 371.95,684.7 L 371.56,684.53 L 371.22,684.26 L 370.88,683.97 L 370.66,683.63 L 370.49,683.24 L 370.38,682.79 L 370.38,682.35 L 370.38,682.35 L 370.44,681.85 L 370.55,681.4 L 370.83,681.01 L 371.11,680.61 L 371.5,680.33 L 371.95,680.11 L 372.4,679.99 L 372.9,679.99 L 372.9,679.99 L 373.35,680.05 L 373.8,680.22 L 374.19,680.45 L 374.53,680.78 L 374.74,681.12 L 374.97,681.56 L 375.08,682.01 L 375.08,682.46 L 375.08,682.46 L 375.03,682.97 L 374.86,683.47 L 374.58,683.86 L 374.24,684.26 L 373.85,684.53 L 373.4,684.7 L 372.9,684.81 L 372.4,684.81 L 372.4,684.81 z M 380.35,691.64 L 380.35,683.13 L 380.35,683.13 L 380.41,682.74 L 380.51,682.4 L 380.63,682.13 L 380.8,681.9 L 380.96,681.73 L 381.19,681.56 L 381.35,681.51 L 381.58,681.51 L 381.8,681.51 L 382.03,681.56 L 382.19,681.67 L 382.36,681.85 L 382.53,682.07 L 382.64,682.35 L 382.7,682.69 L 382.76,683.08 L 382.76,691.64 L 380.35,691.64 z M 394.79,691.58 L 394.79,682.58 L 394.79,682.58 L 394.85,682.29 L 394.96,682.07 L 395.08,681.9 L 395.18,681.73 L 395.36,681.62 L 395.52,681.51 L 395.74,681.45 L 395.92,681.45 L 396.08,681.45 L 396.31,681.51 L 396.47,681.62 L 396.64,681.73 L 396.81,681.9 L 396.92,682.07 L 397.04,682.29 L 397.09,682.58 L 397.09,691.58 L 394.79,691.58 z M 400.67,691.58 L 400.67,682.52 L 400.67,682.52 L 400.73,682.24 L 400.79,682.01 L 400.9,681.85 L 401.06,681.67 L 401.17,681.56 L 401.4,681.45 L 401.57,681.4 L 401.79,681.34 L 401.96,681.34 L 402.19,681.4 L 402.35,681.51 L 402.52,681.62 L 402.63,681.79 L 402.8,682.01 L 402.86,682.24 L 402.92,682.52 L 402.92,691.58 L 400.67,691.58 z M 361.98,678.77 L 362.04,694.49 L 366.57,694.49 L 366.57,692.53 L 366.57,692.53 L 370.27,692.53 L 370.27,694.49 L 386.68,694.49 L 386.68,688.28 L 386.68,688.28 L 389.53,685.71 L 392.05,688.22 L 392.05,694.49 L 405.1,694.49 L 405.1,694.49 L 405.1,678.65 L 405.1,678.65 L 361.98,678.77 L 361.98,678.77 z"
           id="path3452"
           style="fill:#ffffff;fill-opacity:1;fill-rule:evenodd;stroke:none" />
        <path
           d="M 387.8,694.49 L 387.8,689.23 L 390.88,689.23 L 390.88,694.49 L 391.38,694.49 L 391.43,688.67 L 387.29,688.67 L 387.29,694.44 L 387.8,694.49 z"
           id="path3454"
           style="fill:#ffffff;fill-opacity:1;fill-rule:evenodd;stroke:none" />
        <path
           d="M 407.56,691.47 L 407.56,682.46 L 407.56,682.46 L 407.62,682.18 L 407.67,681.96 L 407.78,681.79 L 407.84,681.62 L 408.01,681.51 L 408.12,681.45 L 408.29,681.4 L 408.4,681.34 L 408.57,681.4 L 408.68,681.45 L 408.85,681.51 L 408.96,681.67 L 409.07,681.85 L 409.13,682.01 L 409.18,682.24 L 409.24,682.52 L 409.24,691.47 L 407.56,691.47 z M 410.75,694.49 L 410.8,678.65 L 405.71,678.65 L 405.71,678.65 L 405.71,694.49 L 410.75,694.49 z"
           id="path3456"
           style="fill:#ffffff;fill-opacity:1;fill-rule:evenodd;stroke:none" />
        <path
           d="M 387.74,688.06 L 391.15,688.11 L 389.53,686.44 L 387.74,688.06 L 387.74,688.06 z"
           id="path3458"
           style="fill:#ffffff;fill-opacity:1;fill-rule:evenodd;stroke:none" />
        <path
           d="M 367.92,682.18 L 367.92,682.18 L 367.97,682.52 L 367.92,682.85 L 367.75,683.13 L 367.58,683.35 L 367.3,683.58 L 367.02,683.69 L 366.68,683.8 L 366.4,683.74 L 366.4,683.74 L 366.13,683.69 L 365.95,683.58 L 365.73,683.41 L 365.57,683.3 L 365.45,683.08 L 365.4,682.85 L 365.34,682.63 L 365.34,682.4 L 365.34,682.4 L 365.45,682.07 L 365.45,682.07 L 365.57,681.96 L 365.73,681.67 L 365.9,681.51 L 366.13,681.4 L 366.35,681.34 L 366.68,681.28 L 366.68,681.28 L 366.91,681.28 L 367.13,681.34 L 367.3,681.4 L 367.47,681.51 L 367.75,681.79 L 367.92,682.18 L 367.92,682.18 z M 366.4,684.36 L 366.4,684.36 L 366.86,684.36 L 367.19,684.26 L 367.58,684.14 L 367.86,683.92 L 368.14,683.63 L 368.36,683.3 L 368.48,682.91 L 368.54,682.52 L 368.54,682.52 L 368.48,682.18 L 368.36,681.79 L 368.2,681.51 L 367.97,681.23 L 367.75,681.01 L 367.41,680.84 L 367.08,680.72 L 366.68,680.67 L 366.68,680.67 L 366.29,680.72 L 365.95,680.9 L 365.63,681.06 L 365.34,681.34 L 365.11,681.67 L 364.95,682.01 L 364.89,682.4 L 364.89,682.79 L 364.89,682.79 L 364.95,683.08 L 365.06,683.35 L 365.23,683.63 L 365.4,683.86 L 365.63,684.03 L 365.84,684.14 L 366.13,684.26 L 366.4,684.36 L 366.4,684.36 z"
           id="path3460"
           style="fill:#ffffff;fill-opacity:1;fill-rule:evenodd;stroke:none" />
        <path
           d="M 372.62,683.63 L 372.62,683.63 L 372.34,683.58 L 372.12,683.52 L 371.89,683.35 L 371.72,683.19 L 371.56,682.97 L 371.45,682.74 L 371.45,682.52 L 371.45,682.24 L 371.45,682.24 L 371.45,682.01 L 371.56,681.79 L 371.67,681.62 L 371.83,681.45 L 372.01,681.34 L 372.17,681.23 L 372.4,681.17 L 372.62,681.12 L 372.62,681.12 L 372.85,681.17 L 373.07,681.23 L 373.29,681.28 L 373.46,681.4 L 373.63,681.56 L 373.74,681.73 L 373.85,681.96 L 373.9,682.18 L 373.9,682.18 L 373.9,682.46 L 373.85,682.74 L 373.74,682.97 L 373.58,683.19 L 373.4,683.35 L 373.18,683.52 L 372.9,683.58 L 372.62,683.63 L 372.62,683.63 z M 372.51,684.31 L 372.51,684.31 L 372.9,684.31 L 373.24,684.26 L 373.58,684.14 L 373.85,683.92 L 374.08,683.69 L 374.3,683.41 L 374.47,683.08 L 374.53,682.74 L 374.53,682.74 L 374.53,682.35 L 374.47,681.96 L 374.3,681.56 L 374.08,681.28 L 373.85,681.01 L 373.52,680.78 L 373.13,680.67 L 372.73,680.61 L 372.73,680.61 L 372.4,680.61 L 372.06,680.72 L 371.72,680.9 L 371.45,681.12 L 371.22,681.34 L 371.05,681.67 L 370.94,682.01 L 370.88,682.35 L 370.88,682.35 L 370.88,682.74 L 370.94,683.08 L 371.11,683.41 L 371.28,683.69 L 371.56,683.92 L 371.83,684.08 L 372.17,684.26 L 372.51,684.31 L 372.51,684.31 z"
           id="path3462"
           style="fill:#ffffff;fill-opacity:1;fill-rule:evenodd;stroke:none" />
        <path
           d="M 392.61,666.85 L 392.61,666.85 L 400.84,666.85 L 400.84,660.02 L 400.84,660.02 L 392.61,660.02 L 392.61,660.02 L 392.61,666.85 L 392.61,666.85 z"
           id="path3464"
           style="fill:#ffffff;fill-opacity:1;fill-rule:evenodd;stroke:none" />
        <path
           d="M 400.84,659.29 L 400.84,659.17 L 392.56,659.12 L 392.56,659.12 L 392.56,659.35 L 392.56,659.35 L 400.84,659.29 L 400.84,659.29 z"
           id="path3466"
           style="fill:#ffffff;fill-opacity:1;fill-rule:evenodd;stroke:none" />
        <path
           d="M 396.53,651.51 L 396.53,651.51 L 396.02,651.45 L 395.58,651.34 L 395.13,651.12 L 394.74,650.84 L 394.45,650.45 L 394.24,649.99 L 394.07,649.49 L 394.01,648.94 L 394.01,648.94 L 394.13,648.49 L 394.24,648.04 L 394.52,647.59 L 394.79,647.26 L 395.18,646.97 L 395.63,646.76 L 396.14,646.64 L 396.64,646.7 L 396.64,646.7 L 397.09,646.81 L 397.54,646.97 L 397.93,647.26 L 398.27,647.59 L 398.54,647.92 L 398.77,648.32 L 398.88,648.77 L 398.94,649.16 L 398.94,649.16 L 398.88,649.66 L 398.77,650.05 L 398.54,650.45 L 398.33,650.78 L 397.99,651.06 L 397.59,651.28 L 397.09,651.45 L 396.53,651.51 L 396.53,651.51 z M 395.02,658.51 L 395.02,658.51 L 395.02,653.64 L 395.02,653.64 L 395.08,653.35 L 395.24,653.19 L 395.41,653.08 L 395.58,653.02 L 395.8,653.08 L 395.97,653.19 L 396.08,653.35 L 396.14,653.53 L 396.14,653.53 L 396.2,656.21 L 396.2,658.51 L 396.92,658.51 L 396.92,658.51 L 396.92,656.15 L 396.92,653.53 L 396.92,653.53 L 396.98,653.3 L 397.09,653.13 L 397.26,653.02 L 397.48,652.97 L 397.65,653.02 L 397.82,653.13 L 397.99,653.3 L 398.04,653.53 L 398.04,653.53 L 398.04,658.51 L 398.04,658.51 L 400.79,658.51 L 400.79,658.51 L 400.79,654.2 L 400.79,649.89 L 400.79,649.89 L 401.17,649.6 L 401.17,649.6 L 400.39,648.49 L 398.88,645.91 L 396.7,642.22 L 392.05,649.72 L 392.05,649.72 L 392.61,649.94 L 392.61,649.94 L 392.61,658.51 L 392.61,658.51 L 395.02,658.51 L 395.02,658.51 z"
           id="path3468"
           style="fill:#ffffff;fill-opacity:1;fill-rule:evenodd;stroke:none" />
      </g>
    </g>
  </g>
</svg>
