<?xml version="1.0" encoding="iso-8859-1"?>
<!-- Generator: Adobe Illustrator 10.0, SVG Export Plug-In . SVG Version: 3.0.0 Build 77)  -->

<svg  xmlns="http://www.w3.org/2000/svg" xmlns:xlink="http://www.w3.org/1999/xlink" xmlns:a="http://ns.adobe.com/AdobeSVGViewerExtensions/3.0/"
	 width="283.465" height="318.897" viewBox="0 0 283.465 318.897"
	 style="overflow:visible;enable-background:new 0 0 283.465 318.897" xml:space="preserve">
	<g id="CMYK_Wappen">
		<path style="fill-rule:evenodd;clip-rule:evenodd;" d="M0,0h283.465v177.165c0,78.278-63.455,141.732-141.732,141.732
			S0,255.443,0,177.165V0z"/>
		
			<path style="fill-rule:evenodd;clip-rule:evenodd;fill:#009944;stroke:#009944;stroke-width:0.2835;stroke-miterlimit:3.8637;" d="
			M36.324,262.071h210.779c-24.84,30.854-62.822,50.581-105.39,50.581S61.164,292.925,36.324,262.071z"/>
		<g>
			
				<path style="fill-rule:evenodd;clip-rule:evenodd;fill:#F00000;stroke:#F00000;stroke-width:0.2835;stroke-miterlimit:3.8637;" d="
				M170.177,257.774c0.262-0.273,0.682-0.543,0.896-0.837c2.625-3.6,5.234-7.234,7.966-10.755c0.868-1.119,1.709-2.315,2.629-3.386
				c0.321-0.374,0.819-0.528,1.096-0.976c0.554-0.897,1.011-1.881,1.514-2.808c0.899-1.659,1.876-3.299,2.729-4.979
				c0.347-0.684,0.558-1.514,0.856-2.23c0.388-0.931,0.882-1.819,1.274-2.749c1.589-3.76,3.015-7.624,4.487-11.432
				c2.769-7.161,5.788-14.338,7.96-21.709c-0.747-2.507-1.455-5.061-2.49-7.469c-1.901-4.426-4.641-9.212-6.891-13.523
				c-1.329-2.548-2.511-5.221-3.903-7.728c-0.579-1.043-1.354-2.064-2.012-3.067c-0.383-0.584-0.733-1.277-1.175-1.813
				c-0.488-0.592-0.942-1.007-1.593-1.354c-3.846,0.448-7.73,0.801-11.591,1.096c-0.262-1.047-0.452-2.136-0.757-3.167
				c-2.696,0.481-2.297,0.592-4.68,1.573c-1.508,0.621-3.232,1.026-4.78,1.573l-12.407,4.382c-2.782,0.985-5.634,2.236-8.484,2.968
				c-2,0.514-4.131,0.825-6.174,1.135c-2.88,0.438-5.927,0.335-8.842,0.398c-5.589,0.121-11.139,0.15-16.729,0.021
				c-1.756-0.041-8.182-0.442-9.52-0.219c-0.092,0.015-1.813,0.749-2.092,0.856c-2.717,3.702-3.069,16.947-3.545,21.849
				c-0.221,2.276-0.596,4.563-0.896,6.832c-0.386,2.909-0.665,5.841-1.095,8.743c-0.185,1.243-0.619,3.849-0.996,4.979
				c-0.567,1.701-0.787,0.909-0.896,3.146H89.54c-0.265,3.455,0.131,7.003,0.332,10.456c0.272,4.705,0.446,9.417,0.723,14.121
				c0.003,0.045,0.336,0.742,0.339,0.797c0.038,0.693-0.071,1.488-0.1,2.19c-0.44,0.117-0.742,0.413-1.095,0.697
				c-0.315,0.254-0.713,0.513-0.996,0.797c-0.916,0.916-0.882,4.629-0.93,5.649l-0.266,5.942c1.821,0.052,3.656,0.159,5.477,0.159
				C118.738,257.934,144.466,257.986,170.177,257.774z"/>
			
				<path style="fill-rule:evenodd;clip-rule:evenodd;fill:#F00000;stroke:#F00000;stroke-width:0.2835;stroke-miterlimit:3.8637;" d="
				M186.906,257.934c13.171,0,26.342-0.1,39.512-0.1c0.114-0.074,0.234-0.144,0.358-0.199c1.662-3.765,3.396-7.487,5.019-11.273
				c0.485-1.131,1.129-2.341,1.494-3.505c0.03-0.099,0.141-2.504,0.159-2.828c0.254-4.503-0.172-8.819-0.558-13.317
				c-0.31-3.618-0.573-7.287-1.096-10.881c-0.727-5.005-1.638-9.972-2.589-14.938h-0.299c-0.021-0.571-0.86-1.63-1.135-2.051
				c-0.296-0.454-1.032-1.052-1.395-1.474c-1.29-1.505-7.789-9.632-9.261-9.918c-0.362,5.085,0,9.522,0.04,14.579
				c-0.145,0.241-0.561,1.066-0.697,1.195c-0.564,0.531-1.468,0.812-2.031,1.354c-0.252,0.243-2.023,1.998-2.33,2.39
				c-3.566,4.566-5.904,10.04-8.457,15.209c-2.943,5.958-5.728,11.971-8.451,18.031c-0.771,1.715-1.375,3.608-2.21,5.278
				c-0.17,0.34-0.563,0.617-0.757,0.996c-0.441,0.865-0.833,1.765-1.235,2.648c-0.764,0.238-1.54,0.516-2.29,0.797l-0.08,0.279
				l-0.378,0.259C187.842,252.961,187.305,255.437,186.906,257.934z"/>
			
				<path style="fill-rule:evenodd;clip-rule:evenodd;fill:#F00000;stroke:#F00000;stroke-width:0.2835;stroke-miterlimit:3.8637;" d="
				M250.378,257.837c-2.869,0.022-6.274-0.034-8.426-0.202c-0.089-0.432-0.354-0.94-0.398-1.354
				c-0.271-2.479,0.068-7.256,0.398-9.898c0.76-0.871,1.607-1.658,2.549-2.33c-0.846-16.479-1.441-32.992-1.593-49.493
				c-0.016-1.727-4.777-8.415-5.796-10.297c-0.666-1.232-1.233-2.905-1.533-4.282c-0.662-3.04-1.146-6.209-1.633-9.281
				c-0.027-0.174-0.601-5.685-0.856-5.855c-0.35-1.646-0.801-3.457-0.996-5.119c-0.186-1.577-0.167-3.243-0.259-4.833
				c-0.063-1.101-0.311-2.388-0.239-3.472c0.053-0.793,0.338-1.715,0.485-2.51c0.637-3.438,1.285-5.925,1.367-9.44
				c0.091-3.906,0.303-7.758-0.498-11.611c-0.527-2.54-1.396-5.063-1.852-7.608c-0.326-1.821-1.115-4.987-1.893-6.672
				c1.281-0.152,2.633-0.454,3.844-0.896c1.384-0.505,2.988-1.614,4.322-1.991c0.977-0.276,2.837,0.234,3.484,1.056
				c0.689,0.872,1.257,1.741,1.554,2.828c1.251,4.589,1.406,13.106,1.666,17.858c0.59,10.75,0.981,21.516,1.461,32.271
				c0.103,2.298,0.691,4.885,1.016,7.19c0.86,6.126,2.361,13.158,4.959,18.841c0.838,1.834,1.947,3.541,3.026,5.238
				c0.569,0.894,1.169,2.036,1.853,2.828c0.623,0.722,1.334,1.396,1.991,2.091c0.522,0.553,2.38,2.037,2.529,2.629
				c2.039,1.359,3.505,2.429,5.836,3.346c-0.902-2.387-1.974-4.759-2.788-7.17c-0.343-1.014-0.874-3.099-0.996-4.143
				c-0.152-1.301-0.146-2.624-0.339-3.923c-0.021-0.149-0.146-0.29-0.159-0.398c-0.316-2.481-0.658-4.979-0.896-7.469
				c2.046,0.728,3.302,0.868,5.478,0.697c-0.856-1.375-2.078-3.118-2.59-4.681c-0.795-2.435-1.665-5.412-1.991-7.967
				c-0.343-2.686-0.558-5.41-0.837-8.106c-0.206-1.994-0.909-6.355-0.816-8.305c0.22,0.261,0.464,0.682,0.598,0.996
				c0.949,0.416,1.731,0.957,2.55,1.593l0.298-0.259c-0.887-2.497-1.286-3.317-1.719-6.021c-0.063-0.397-0.221-0.898-0.232-1.288
				l-0.578-19.943c-0.124-4.326-0.095-8.747-0.418-13.059c-0.158-2.111-0.899-7.015-1.334-9.122
				c-0.397-1.926-1.967-6.949-3.146-8.564c-1.524-2.088-2.359-2.655-4.401-4.063c-0.72-0.496-1.538-1.215-2.311-1.593
				c-0.102-0.05-2.911-0.645-3.126-0.657c-0.756-0.043-1.901,0.035-2.649,0.16c-0.509,0.084-1.077,0.339-1.573,0.498
				c-0.844,0.271-1.801,0.49-2.609,0.836c-3.904,1.674-8.078,4.998-11.59,7.469c-0.191,0.134-1.467,0.1-1.687,0.093
				c-0.796-0.025-1.674,0.008-2.456-0.093c-1.117-0.145-3.973-1.196-5.078-1.653c-0.735-0.304-1.484-0.749-2.231-0.996
				c-3.274-1.086-6.638-2.034-9.964-2.961c-1.214-0.339-2.585-0.844-3.817-1.022c-0.805-0.117-2.028,0.126-2.868,0.179
				c-3.586,0.225-7.082,0.637-10.647,1.083c-12.023,1.502-23.945,3.444-35.914,5.331l-11.186,1.786
				c-1.812,0.284-3.766,0.769-5.583,0.883c-1.645,0.104-7.085-0.262-8.962-0.637c-1.022-0.205-3.899-1.404-4.641-2.052
				c-0.243-0.212-0.414-0.546-0.657-0.757c-0.529-0.459-1.418-0.856-2.031-1.235c0.005-0.408-2.394-1.911-2.629-2.091
				c3.953,0.185,7.925,0.244,11.883,0.312c1.866,0.032,4.043-0.121,5.882,0.186c1.649,0.275,3.295,0.85,4.938,1.195
				c-0.636-1.03-1.438-1.996-2.157-2.968c-0.498-0.672-0.96-1.407-1.487-2.052c-2.203-2.692-6.21-3.521-9.439-3.983
				c-1.616-0.23-3.355-0.304-4.939-0.637c-1.671-0.351-3.258-1.238-4.979-1.394c-0.003-0.132,0.043-0.281,0.1-0.398
				c3.197,0,6.395,0.025,9.593,0.066c2.344,0.03,5.051-0.041,7.375,0.372c2.138,0.379,4.181,1.332,6.134,2.25
				c-0.043-0.201-0.191-1.037-0.259-1.155c-0.564-1-1.489-2.004-2.19-2.928c-5.614-7.388-9.533-5.726-17.765-7.27
				c-1.776-0.333-3.501-1.042-5.178-1.693c-0.25-0.394-0.376-0.484-0.757-0.757c1.956,0,3.95,0.565,5.935,0.757
				c4.158,0.401,8.295,0.696,12.447,1.195c1.268,0.152,2.516,0.564,3.784,0.737c-0.91-1.466-1.801-3.306-2.888-4.621
				c-3.787-4.58-10.556-4.915-15.693-6.931c-0.871-0.342-1.722-0.813-2.569-1.215c-0.866-0.411-1.744-0.792-2.51-1.374
				c1.738,0.013,3.481-0.079,5.219,0.02c1.514,0.086,2.998,0.415,4.5,0.638c1.722,0.255,3.473,0.452,5.179,0.797
				c1.319,0.267,3.042,0.776,4.281,1.294c0.636,0.266,1.156,0.639,1.832,0.797c-0.293-3.32-2.96-4.465-3.624-6.313
				c-0.765-0.416-1.425-1.123-2.131-1.633c-1.139-0.823-2.419-1.52-3.665-2.171c-1.42-0.743-2.872-1.048-4.361-1.593
				c-1.601-0.586-3.19-1.215-4.779-1.832c-0.031-0.012-0.17-0.17-0.199-0.199c2.813-0.036,8.896-0.422,11.65,0
				c1.537,0.235,3.047,0.956,4.62,0.956c-0.283-1.404-2.239-2.282-2.629-3.645c-1.287-0.958-3.685-2.884-5.178-3.426
				c-2.562-0.929-5.125-1.856-7.681-2.801c-1.455-0.539-3.004-1.025-4.368-1.779c3.268,0.237,6.656,0.192,9.898,0.598
				c2.549,0.318,5.127,1.053,7.627,1.633c0.144,0.033,0.539-0.025,0.697-0.04c0-0.226,0.017-0.433,0.04-0.657
				c-0.257-0.296-1.548-1.885-2.031-1.991v-0.339c-1.436-0.957-2.933-2.256-4.441-3.047c-1.462-0.767-3.581-1.657-5.218-2.032
				c-1.873-0.429-3.792-0.569-5.637-1.155c5.15,0.191,9.97,0.438,15.097-0.239v-0.498c-1.634-0.448-3.383-0.694-4.979-1.255
				c-2.216-0.779-4.627-1.876-6.731-2.928c-1.115-0.558-2.139-1.407-3.226-2.031c-2.166-1.244-4.838-2.643-7.27-3.187
				c-1.57-0.351-4.66-0.544-6.373-0.697c-0.963-1.568-2.12-3.046-3.166-4.561c-1.223-1.772-2.387-3.583-3.605-5.358
				c-1.172-1.707-2.657-3.379-3.982-4.979l-0.498,0.1c0.17,2.168,0.657,4.362,0.657,6.533c-1.271-1.711-2.448-3.435-3.585-5.238
				l-0.797-0.637c-0.199-0.006-0.4-0.027-0.597-0.06c0.162,4.076,0.725,8.126,0.836,12.209c-0.705,0.051-1.619,0.009-2.29,0.199
				c-2.502,0.711-5.492,1.782-7.807,2.988c-2.115,1.102-4.141,2.746-6.174,4.023c-0.066,0.122-0.113,0.263-0.14,0.398
				c1.097,0,1.936,0.017,2.968,0.398c-0.955,0.503-1.976,1.078-2.968,1.494c-0.627,0.263-1.365,0.356-1.991,0.637
				c-7.801,3.511-15.582,7.063-23.381,10.576c-1.026,0.186-3.594,1.264-3.505,1.972c-0.606,2.168-3.547,10.619-3.247,11.95
				c0.08,0.353,1.368,2.097,1.395,2.19c0.428,0.163,0.841,0.362,1.255,0.558c3.276-1.061,3.015,0.744,5.477,2.529
				c0.141,0.103,3.553,0.781,4.083,0.937c0.12-0.065,3.208-1.654,3.266-1.713c0.054-0.212,0.147-0.411,0.219-0.617
				c0.89-0.555,1.78-1.112,2.689-1.634c7.01,0,13.381,0.145,20.393,0.837c0.779,0.609,1.912,1.299,2.55,2.031
				c0.674,0.774,1.245,1.974,1.832,2.848c-0.099,2.216-0.175,4.533-0.837,6.672c-1.875,6.066-3.795,12.123-5.603,18.21
				c-0.993,3.345-1.855,7.066-3.001,10.31c-0.394,1.117-2.319,4.667-2.986,5.815c-0.591,1.017-1.461,1.955-1.992,2.988
				c-1.009,1.964-1.853,4.07-2.762,6.088c-1.165,2.586-2.473,5.197-3.412,8.013c-0.115,2.059,0.226,4.364,0.358,6.433
				c0.345,5.372,1.025,10.762,1.634,16.113c0.008,0.073-0.17,0.594-0.199,0.697c-0.434,0.391-3.357,3.387-3.545,3.426
				c-0.427,0.942-3.366,2.82-4.123,3.685c-0.159,0.182-0.261,0.414-0.418,0.597c-0.408,0.479-1.168,0.786-1.573,1.255
				c-0.429,0.496-0.871,0.767-1.295,1.195c-3.039,3.076-6.052,6.175-9.062,9.281c-1.201,1.239-2.384,2.504-3.604,3.724
				c-0.501,0.501-1.113,0.981-1.573,1.514c-0.154,0.179-0.25,0.493-0.398,0.697c-1.636,0.662-2.136,1.105-3.279,2.457
				c-0.168,0.198-0.486,0.472-0.604,0.69c-0.276,0.514-0.458,1.473-0.591,2.071c-0.095,0.429-0.279,0.974-0.245,1.414
				c0.696,8.919,1.432,17.826,2.33,26.728c0.128,1.265,0.541,2.53,0.657,3.784c0.142,1.526-0.08,3.167,0.14,4.68
				c0.112,0.777,0.413,1.897,0.696,2.629c0.602,1.553,1.786,2.966,2.49,4.481c1.048,2.256,1.76,4.699,2.788,6.971
				c0.727,1.608,1.499,3.197,2.237,4.8c0.307,0.667,0.993,2.626,1.348,3.167c0.173,0.265,0.428,0.501,0.617,0.757
				c0.413,0.56,0.636,1.311,1.075,1.872c0.401,0.514,0.893,0.813,1.194,1.435c0.326,0.67,0.601,1.386,0.896,2.071
				c0.014,0.031,0,0.197,0,0.239c0.346-0.08,1.055-0.971,1.096-1.056c2.255-4.723,4.887-9.613,5.975-14.778
				c-0.167-0.207-0.477-0.854-0.598-0.956c-0.635-0.533-1.436-0.957-2.111-1.454c-1.747-1.286-3.354-2.704-4.919-4.202
				c-0.053-1.947-0.135-3.891-0.239-5.836c-0.996-0.52-1.998-2.048-2.688-2.928c-0.267-8.759-0.198-17.528-0.198-26.29
				c0-0.138,0.465-1.762,0.537-2.031c1.084-0.732,2.127-1.624,3.246-2.291c2.372-1.413,4.854-2.683,7.27-4.022
				c1.455-0.808,2.896-1.703,4.381-2.45c2.574-1.295,5.253-2.472,7.86-3.711c0.941-0.448,1.896-0.876,2.835-1.328
				c0.535-0.258,1.019-0.7,1.553-0.936c1.039-0.458,2.418-0.825,3.565-0.896c0.252,0.102,0.571,0.462,0.597,0.737
				c1.172,12.679,2.323,25.36,3.485,38.041c0.116,1.259-0.476,2.713-0.497,3.983c-0.037,2.139,0.471,4.404,0.537,6.566
				c0.21,6.772,0.259,13.526,0.259,20.302c0,0.542-0.434,1.125-0.498,1.653c-0.151,1.261,0.322,2.941-0.298,4.123
				c-2.238,4.262-4.464,8.53-6.712,12.787c-11.498,0-26.206-0.112-38.374-0.136c-16.766-22.665-26.685-50.748-26.685-81.161V6.26
				h270.99v170.218C277.209,206.979,267.231,235.137,250.378,257.837z"/>
		</g>
		<g>
			<path style="fill-rule:evenodd;clip-rule:evenodd;fill:#FFFFFF;" d="M73.408,45.243c0.635-0.132,2.98-0.762,3.545-1.096
				c1.469-0.869,1.729-1.715,3.525-1.992l0.159-0.956c-0.416-0.01-0.839-0.071-1.255-0.1c-0.06-0.328-2.74-1.203-2.987-1.295
				c-1.041-0.388-4.307,0.029-5.517,0.299l-0.352,0.666c0.489,0.351,1.248,0.007,1.728,0.37c0.095,0.69,0.135,2.065,0.316,2.708
				C72.694,44.285,73.2,44.805,73.408,45.243z M83.565,257.436c-2.385,0.768-6.337,0.446-8.963,0.339
				c1.951-3.715,4.187-7.326,5.855-11.174c0.353-0.812,0.952-1.773,1.175-2.609c0.236-0.885-0.121-2.183,0-3.127
				c0.043-0.328,0.282-0.672,0.339-0.996c0.476-2.717-0.023-8.683-0.106-11.671c-0.123-4.454-0.206-8.912-0.392-13.364
				c-0.02-0.467-0.293-0.91-0.338-1.354c-0.247-2.416,0.453-5.563,0.338-8.066c-0.088-1.916-0.387-3.865-0.577-5.776
				c-0.353-3.537-0.69-7.074-1.056-10.609c-1.032-9.979-2.015-19.962-3.047-29.941c-0.058-0.559-2.392-3.062-2.729-3.446
				l-0.259,0.259c0,2.933,0.396,5.729,0.598,8.644c-1.714-1.315-3.436-2.637-5.118-3.983c-0.602-0.48-1.279-0.951-1.833-1.474
				c-0.355-0.336-0.727-0.995-0.995-1.421c-0.574-0.909-1.174-1.938-1.594-2.921c-0.794-1.861-1.736-7.951-1.991-10.098
				c-0.329-2.771-0.374-5.655-0.558-8.445l-0.438-6.354c-0.044-0.675-0.199-1.465-0.159-2.131c0.041-0.688,0.484-1.7,0.678-2.39
				c1.188-4.268,7.045-14.75,7.149-15.037c0.362-0.999,2.323-4.434,2.589-5.251c0.907-2.799,1.762-5.617,2.642-8.425
				c2.755-8.785,5.414-17.611,8.352-26.336c-0.515-2.362-1.262-4.558-2.251-6.771c0,0,1.188-0.618,1.574-0.678
				c0.832-0.128,1.809-0.176,2.608-0.418c0.168-0.051,0.362-0.231,0.558-0.299c1.449-0.498,2.951-0.863,4.421-1.294
				c0.069-0.147,0.233-0.653,0.299-0.737c1.476-1.872,4.727-5.472,5.079-7.728c0.129-0.827,0.143-1.711,0.219-2.55
				c0.047-0.518,0.243-1.089,0.279-1.573c0.063-0.863-0.05-1.785-0.1-2.649c-0.228,0.085-0.484,0.147-0.697,0.259
				c-0.17,0.748-1.381,5.916-1.533,6.214c-0.097,0.187-0.738,1.064-0.937,1.255c-1.502,1.443-2.767,3.364-4.441,4.62
				c-0.609,0.458-5.196,1.942-5.835,1.992c-1.183,0.092-2.484-0.036-3.678-0.054c-2.46-0.035-4.961,0.004-7.415-0.146
				c-2.512-0.153-18.481-2.273-19.855-0.598c-0.795,0.969-1.523,2.04-2.39,2.947c-0.628,0.126-1.293,0.272-1.893,0.498
				c-0.782-0.274-1.592-0.53-2.39-0.757c-0.055-0.383-0.126-0.755-0.199-1.135c2.355-0.801,5.31-2.512,7.707-3.545
				c-0.07-0.137-0.152-0.271-0.239-0.398c-0.943-0.304-3.867-0.484-4.779-0.299c-2.319,0.472-4.375,1.855-6.971,2.151l-0.558-0.398
				c0-1.266-0.189-2.288,0.498-3.386c0.952-0.053,1.898-0.121,2.849-0.199l1.334-0.896c1.353-1.579,1.476-2.434,1.652-4.342
				c-0.234-0.142-0.451-0.315-0.696-0.438c-0.365,0.6-1.032,1.163-1.295,1.792c-1.31,0.613-1.438,0.802-2.848,0.996
				c0.013-0.116-0.007-0.247-0.04-0.358l0.896-1.633c4.267-2.054,8.551-4.064,12.839-6.075c2.005-0.94,4.039-1.995,6.081-2.848
				c3.801-1.589,7.545-3.259,11.291-4.979c0.244-0.111,0.533-0.054,0.797-0.1c-0.149,0.409-0.343,0.816-0.558,1.195
				c0.043,0.221,0.035,0.47,0.06,0.697c0.246-0.012,0.603-0.004,0.837,0.06c0.84-0.441,1.607-1.04,2.489-1.395
				c1.238-0.497,2.559-0.872,3.817-1.334c2.393-0.879,4.761-1.826,7.136-2.749c0.909-0.353,2.217-0.562,3.187-0.736
				c0.019,0.193,0.052,0.389,0.1,0.577c0.396,0.287,1.746,1.468,2.391,1.255c0-1.992,0.204-4.143,0.06-6.114
				c-0.054-0.729-0.864-6.312-0.757-6.772c2.933,5.174,5.033,6.277,2.629,12.289c-0.328,0.819-0.581,1.668-1.036,2.43
				c0.107,0.428,0.178,0.873,0.299,1.295l0.558,0.558c0.204-0.041,0.41-0.111,0.598-0.199c1.577-2.162,3.31-4.2,4.879-6.373
				c6.723-0.187,6.546,0.118,12.872,3.326c0.443,0.224,3.198,1.514,3.499,1.852c-1.438,0.274-8.04-0.443-9.52-0.558
				c-0.705-0.054-1.86-1.017-2.629-1.234l-0.339-0.558c-0.227,0.014-0.438-0.054-0.657-0.1c0.127,0.915,1.452,3.262,2.091,3.884
				c0.087,0.084,0.934,0.514,1.115,0.617c3.231,1.834,6.615,2.64,10.21,3.539c1.839,0.459,3.662,0.975,5.504,1.42v0.299
				c-2.456-0.149-12.164-0.642-13.94-1.394c-0.919-0.389-2.664-2.046-3.387-2.729c-0.059,0.253-0.116,0.489-0.198,0.737
				c0.656,1.575,1.369,3.288,2.19,4.78c0.718,1.305,4.948,3.603,6.373,4.183c2.465,1.003,5.076,1.707,7.614,2.496
				c2.035,0.633,2.857,0.03,4.833,1.686l0.139,0.558c-1.588-0.116-3.061-0.564-4.62-0.757c-2.763-0.342-5.716,0.077-8.464-0.339
				c-0.711-0.107-3.376-1.249-3.983-1.653c-0.655-0.437-1.781-2.217-2.131-2.788c-0.119,0.003-0.255-0.044-0.358-0.1l-0.1,0.398
				c0.639,1.89,1.762,6.383,3.725,7.369c0.293,0.563,0.869,0.931,1.154,1.494c1.138,0.583,2.306,1.437,3.485,1.892
				c3.806,1.467,7.904,2.388,11.651,3.983c0.958,0.408,1.978,1.192,2.887,1.732c-0.007,0.099,0.035,0.225,0.1,0.299
				c-1.636-0.422-3.324-1.033-4.979-1.334c-4.099-0.745-8.639-1.058-12.646-1.992c-0.068-0.016-1.768-0.872-1.792-0.896
				c-0.716-0.7-1.337-1.87-1.952-2.689c0.014-0.163-0.006-0.338-0.039-0.498c-0.114,0.063-0.236,0.116-0.359,0.159
				c0.215,0.718,0.316,1.483,0.559,2.191c0.157,0.462,0.538,0.876,0.696,1.334c0.506,1.466,0.691,3.115,1.395,4.521
				c1.995,3.99,9.741,6.424,13.762,7.429c2.988,0.747,5.414,1.148,7.847,3.187c-2.57-0.355-5.086-1.132-7.668-1.493
				c-1.228-0.172-2.54-0.07-3.783-0.199c-0.064-0.114-0.116-0.236-0.16-0.358c-1.227-0.134-8.105-0.646-9.2-1.793
				c-0.528-0.553-0.988-1.49-1.295-2.19h-0.299c0.38,1.392,0.296,2.848,0.598,4.242c0.076,0.354,0.538,0.989,0.697,1.361
				c0.354,0.826,0.769,2.055,1.294,2.762c1.096,1.472,5.797,3.096,7.508,3.346c5.806,0.849,11.619,0.948,16.49,4.521
				c-0.228,0.204-4.332-1.149-4.68-1.235c-2.204-0.546-4.756-0.283-7.011-0.358c-2.595-0.087-5.194-0.289-7.786-0.438
				c-0.642-0.037-2.86-0.862-3.625-1.095c-0.166-0.331-1.639-1.646-1.853-1.354c3.123,7.912,2.808,8.718,11.153,10.755l0.259,0.358
				c2.927,0.401,6.746,0.59,9.499,1.294c0.871,0.223,1.782,0.724,2.55,1.195c-0.054,0.132-0.225,0.433-0.398,0.438
				c-0.645,0.021-1.332-0.08-1.985-0.08c-2.878,0-5.751-0.019-8.63-0.079c-1.621-0.034-7.098-0.781-8.404-1.435
				c-0.084-0.042-0.861-0.723-0.995-0.836l-0.559-0.1c-0.059-0.252-1.135-1.295-1.135-1.295c-0.116-0.013-0.247,0.007-0.358,0.04
				c0.993,2.461,1.688,5.055,3.346,7.21c0.406,0.527,2.302,1.951,2.888,2.449c0.4,0.34,0.723,0.817,1.135,1.136
				c1.24,0.958,4.969,3.392,6.434,3.784c6.949,1.861,17.849,0.165,24.787-0.97c8.747-1.43,17.479-2.979,26.235-4.348v-0.199
				c0.106,0.051,0.209,0.124,0.299,0.199c2.065-0.22,4.161-0.338,6.214-0.657c3.998-0.621,17.123-2.68,20.911-1.833
				c4.458,0.998,9.09,2.53,13.423,3.983c2.93,0.982,5.697,2.476,8.822,2.828c0.995,0.112,3.024,0.055,3.983-0.338
				c2.151-0.882,4.05-2.431,5.835-3.877c0.408-0.33,0.812-0.772,1.235-1.062c0.561-0.383,1.3-0.675,1.905-1.002
				c1.099-0.594,3.096-1.621,4.309-1.886c3.191-0.696,6.764,0.073,9.16,2.391c0.959,0.927,2.838,4.872,3.326,6.174
				c0.566,1.509,1.206,4.139,1.434,5.736c0.293,2.05,0.729,4.159,0.916,6.214c0.119,1.294,0.11,2.624,0.16,3.923
				c0.082,2.175,0.294,4.358,0.338,6.533c0.137,6.748-0.004,13.502,0.14,20.255c0.003,0.128,0.153,0.521,0.199,0.657
				c-0.063-0.013-0.144,0.013-0.199,0.04c-0.455-0.695-0.882-1.438-1.394-2.091h-0.538c-0.013,0.657-0.003,1.402,0.1,2.051
				c0.049,0.307,0.323,0.702,0.339,0.996c0.451,8.581,0.695,18.106,3.346,26.37c0.344,1.073,0.941,2.149,1.394,3.187
				c-0.862-0.534-1.857-1.067-2.648-1.693c-0.344-0.272-2.729-3.484-2.928-3.784c-0.439-0.664-0.776-1.484-1.155-2.191
				c0.176,1.586,0.363,3.323,0.856,4.84c0.47,1.443,2.38,4.267,2.629,5.477c0.167,0.812,0.109,1.849,0.159,2.689
				c0.159,2.681,0.189,5.441,0.498,8.106c0.124,1.067,0.957,3.244,0.737,4.182c-1.868-2.952-4.238-5.891-5.517-9.161
				c-0.489-1.252-0.838-2.598-1.235-3.884c-0.303-0.983-0.746-2.09-0.956-3.087c-0.556-2.642-1.251-5.297-1.652-7.966
				c-0.271-1.806-0.433-3.645-0.657-5.458c-0.226-1.818-0.554-3.672-0.678-5.497c-0.228-3.383-0.215-6.806-0.378-10.197
				c-0.238-4.964-0.668-9.918-0.916-14.877c-0.327-6.541-0.214-17.643-1.992-24.199c-0.346-1.277-1.372-3.543-2.23-4.481
				c-0.343-0.375-0.93-0.587-1.254-1.035c-3.17-1.041-5.889-1.457-9.062-0.259c-1.048,0.396-2.217,1.259-3.286,1.494
				c-0.029,0.007-3.22,0.015-3.326,0c-1.312-0.176-4.734-1.533-5.735-1.234c0.271,0.386,0.485,0.808,0.757,1.195
				c1.115,0.271,4.223,6.664,4.381,7.11c0.363,1.023,0.502,2.355,0.744,3.433c0.759,3.388,1.419,6.803,2.084,10.211
				c1.14,5.837,0.461,10.864-0.338,16.729c-0.251,1.836-0.739,3.645-0.996,5.478c-0.104,0.735-0.117,1.491-0.199,2.23
				c-0.047,0.424-0.17,0.935-0.159,1.354c0.023,0.982,0.549,2.099,0.696,3.087c0.162,1.074,0.124,2.2,0.299,3.267
				c0.513,3.114,1.188,6.207,1.693,9.321c0.497,3.062,0.642,6.277,1.294,9.301c0.049,0.227,1.709,4.381,1.853,4.641
				c0.416,0.751,5.71,9.205,5.716,9.5c0.029,1.425,0,2.839,0,4.262c0,2.529,0.208,5.032,0.02,7.568
				c-0.056,0.749,0.29,4.522,0.339,5.557c0,1.14-0.15,2.402-0.06,3.525c0.034,0.417,0.265,0.868,0.299,1.294
				c0.245,3.064,0.083,6.174,0.298,9.241c0.288,4.11,0.781,8.189,0.996,12.309c0.061,1.148,0,2.334,0,3.485
				c-0.543,0.878-2.51,3.468-2.629,4.322c-0.535,3.837-1.146,7.732-1.394,11.592c-2.188,0-4.387,0.04-6.572-0.04
				c1.766-4.32,3.606-8.588,5.517-12.847c0.17-0.379,0.757-0.701,0.797-1.195c0.092-1.142,0-2.374,0-3.525
				c0-1.955,0.119-3.989,0-5.936c-0.133-2.162-0.373-4.333-0.558-6.493c-0.415-4.844-0.739-9.783-1.435-14.599
				c-0.664-4.606-1.479-9.169-2.33-13.742c-0.019-0.102-0.318-0.945-0.358-0.996c-1.452-1.845-4.301-5.756-5.895-7.329
				c-0.304-0.3-0.676-0.533-0.976-0.837c-0.849-0.859-1.497-1.998-2.33-2.888c-1.396-1.491-3.154-2.849-4.681-4.223
				c-0.497-0.447-1.207-1.374-1.753-1.892c-0.52-0.494-1.424-1.046-1.832-1.454c-0.107-0.108-0.18-0.297-0.278-0.418
				c-0.522-0.642-2.138-1.771-2.809-2.41c-1.188-1.135-2.236-2.385-3.485-3.485c-1.297-1.143-2.741-2.078-3.923-3.307
				c-1.438-1.494-4.024-3.328-5.676-4.607c-1.393-1.079-2.619-2.305-3.983-3.399c-2.484-1.994-5.207-3.732-7.667-5.756
				c-0.561-0.46-1.039-1.138-1.554-1.653c-0.892-0.892-1.899-1.543-2.629-2.629c-0.128-0.063-0.263-0.115-0.398-0.16
				c-1.124-1.766-2.319-3.518-3.386-5.318c-2.089-3.524-3.865-9.603-5.118-13.304c-0.066-0.196-0.386-0.391-0.458-0.597
				c-0.851-2.438-0.188-6.586-0.1-9.202h-0.338c-0.238,0.816-0.35,1.681-0.598,2.49c-0.258,0.841-0.765,1.648-0.996,2.489
				c-0.365,1.326-0.918,3.261-0.856,4.681c0.399,0.665,0.333,1.552,0.498,2.29c0.321,1.439,0.993,2.958,1.474,4.362
				c0.516,1.505,1.298,2.761,1.912,4.203c0.756,1.775,1.422,3.607,2.15,5.397c0.341,0.837,0.937,1.917,1.076,2.808
				c-0.986,0.639-5.103,1.781-6.254,2.171c-5.174,1.754-10.334,3.542-15.494,5.337c-1.197,0.417-3.823,1.454-3.823,1.454
				c-1.499,0.506-2.873,1.414-4.342,1.892c-1.531,0.499-3.146,0.86-4.7,1.294c-1.555,0.435-3.16,1.027-4.74,1.335
				c-0.938,0.182-1.973,0.19-2.927,0.299c-1.605,0.182-3.23,0.438-4.84,0.558c-4.506,0.332-9.171,0.109-13.682,0
				c-4.568-0.111-9.135-0.214-13.702-0.359c-0.157,0.116-0.307,0.253-0.438,0.398c-0.202-0.01-0.607,0.002-0.796,0.06
				c-0.284-1.124,2.376-3.816,2.788-4.84c0.019-0.046,0.312-1.942,0.352-2.178c0.248-1.45,0.655-2.978,0.783-4.435
				c0.011-0.118-0.069-0.471-0.1-0.598c-0.896,1.346-1.68,3.003-2.688,4.242c-1.762,2.164-3.479,4.392-5.317,6.493
				c-0.161,0.185-0.428,0.307-0.558,0.458c-1.187,1.376-4.554,4.697-4.919,6.333c-0.461,2.065-0.648,4.277-0.976,6.374
				c-0.333,2.13-0.747,4.275-1.016,6.413c-0.278,2.206-0.339,4.457-0.558,6.672c-0.446,4.513-0.886,9.042-1.435,13.543
				c-0.088,0.728-1.066,7.272-1.155,7.469c-0.556,1.234-1.934,2.303-1.832,3.824c0.029,0.444,0.308,0.922,0.339,1.354
				c0.226,3.167,1.798,21.768,0.896,24.079c-0.108,0.277-0.377,0.55-0.524,0.816c-0.638,1.148-1.902,3.355-2.204,4.462
				c-0.017,0.06,0.048,2.283,0.053,2.549C83.73,252.249,83.944,254.935,83.565,257.436z"/>
			<path style="fill-rule:evenodd;clip-rule:evenodd;fill:#FFFFFF;" d="M174.16,257.934c2.274-3.228,4.482-6.559,6.871-9.7
				c0.891-1.172,3.192-3.204,3.724-3.983c0.516-0.756,0.922-1.679,1.374-2.483c2.732-4.857,4.815-9.952,6.911-15.104
				c0.585-1.438,1.135-2.908,1.772-4.322c0.374-0.83,0.924-1.6,1.294-2.43c1.648-3.693,3.082-7.528,4.621-11.272
				c1.172-2.854,2.06-5.772,3.306-8.604c0.028-0.065,0.328-0.359,0.398-0.458c0.591-0.827,0.587-2.043,0.498-3.027
				c-0.083-0.912-0.39-2.366-0.697-3.226c-1.022-2.855-2.665-6.849-3.943-9.6c-1.073-2.31-2.29-4.551-3.346-6.871
				c-1.872-4.112-3.675-8.347-6.154-12.149c-0.013-0.116,0.008-0.247,0.04-0.358c0.184,0.013,0.378-0.004,0.558-0.04
				c1.354,1.189,2.702,2.482,4.123,3.585c3.596,2.793,7.22,5.503,10.654,8.505c2.318,2.027,4.544,4.339,6.712,6.532l0.159,0.937
				c-0.764,1.181-0.471,4.688-0.339,6.134c0.036,0.397,0.322,0.833,0.339,1.195c0.033,0.757,0.463,8.63,0.199,9.341
				c-0.801,2.155-5.139,4.396-6.373,6.334c-1.306,2.048-2.266,4.629-3.326,6.831c-1.992,4.136-3.97,8.279-5.935,12.428
				c-0.206,0.435-0.652,0.883-0.837,1.294c-2.85,6.385-5.783,12.731-8.623,19.12c-0.162,0.365-1.884,0.888-2.131,0.996
				c-0.086,0.037-0.882,0.695-0.996,0.796c-0.255,0.746-2.902,8.808-3.346,9.341C179.172,257.811,176.66,257.831,174.16,257.934z"/>
			<path style="fill-rule:evenodd;clip-rule:evenodd;fill:#FFFFFF;" d="M47.04,237.22c-1.419-2.155-2.551-4.485-3.744-6.771
				c-0.533-1.022-0.764-2.291-1.334-3.286c-0.764-1.332-5.15-8.832-5.277-10.337c-0.119-1.409,0.11-2.871-0.08-4.282
				c-0.09-0.665-0.327-1.159-0.478-1.792c-0.262-1.1-0.469-2.271-0.638-3.386c-0.454-2.999-3.102-26.397-1.792-28.183
				c1.238-1.688,3.09-2.131,3.783-2.888c3.65-3.985,7.39-7.881,11.054-11.851c1.813-1.965,4.968-4.696,6.891-6.433
				c1.924-1.738,3.902-3.79,6.054-5.258c0.038,0.378,0.538,3.692,0.598,3.844c0.593,1.497,4.386,5.953,5.576,7.409
				c0.017,0.02,0.258,0.094,0.319,0.139c0.489,0.368,0.942,0.864,1.374,1.295v0.796c-0.584,0.422-1.177,1-1.793,1.354
				c-1.854,1.068-4.038,1.678-5.935,2.689c-2.947,1.569-5.731,3.476-8.663,5.079c-1.062,0.58-2.279,0.926-3.326,1.534
				c-3.281,1.904-6.576,3.658-9.957,5.377c-0.099,0.209-0.222,0.413-0.358,0.598c-0.027,2.292-0.319,4.586-0.339,6.871
				c-0.042,4.834,0.354,9.743,0.518,14.579c0.139,4.068,0.072,8.272,0.677,12.309l2.291,2.092c0.544,2.041,0.47,4.118,0.697,6.214
				c1.98,1.342,4.918,4.038,6.611,5.875l0.159,0.837c-0.946,1.755-1.751,3.585-2.489,5.437
				C47.317,237.147,47.176,237.193,47.04,237.22z"/>
			<path style="fill-rule:evenodd;clip-rule:evenodd;fill:#FFFFFF;" d="M174.459,158.589c-0.057-0.327-0.128-0.663-0.14-0.996
				c2.876-0.958,4.014-1.55,7.149-1.593c0.393,0.281,0.815,0.653,1.155,0.996c0.059,0.195,0.105,0.396,0.14,0.597
				C179.985,157.854,177.2,158.043,174.459,158.589z"/>
			<path style="fill-rule:evenodd;clip-rule:evenodd;fill:#FFFFFF;" d="M75.599,34.289c0.342-1.128,0.777-2.149,1.594-3.027
				c-0.862-0.027-1.728-0.088-2.59-0.1l0.199-0.458c0.565-0.314,1.306-0.895,1.893-1.096c2.86-0.981,6.183-1.533,9.161-2.091
				c0.813,0.371,1.582-0.008,2.35,0.558c-0.336,0.025-0.492,0.4-0.657,0.637C83.542,30.537,79.449,32.138,75.599,34.289z"/>
			<path style="fill-rule:evenodd;clip-rule:evenodd;fill:#FFFFFF;" d="M89.54,26.481l-0.519-0.199l-0.537-0.179l-0.538-0.219
				l-0.537-0.199l0.198-0.259l-0.02-1.454l-0.02-1.095V22.08l0.02-0.538v-0.318l0.04-0.199l0.299,0.577l0.238,0.578l0.22,0.538
				l0.239,0.518l0.238,0.518l0.239,0.538l0.259,0.538l0.239,0.598v0.259l-0.021,0.259v0.259L89.54,26.481z"/>
		</g>
	</g>
	<g id="Stanzkontur_innen">
	</g>
</svg>
