<?xml version="1.0" encoding="iso-8859-1"?>
<!-- Generator: Adobe Illustrator 10.0, SVG Export Plug-In . SVG Version: 3.0.0 Build 77)  -->

<svg  xmlns="http://www.w3.org/2000/svg" xmlns:xlink="http://www.w3.org/1999/xlink" xmlns:a="http://ns.adobe.com/AdobeSVGViewerExtensions/3.0/"
	 width="283.465" height="318.897" viewBox="0 0 283.465 318.897"
	 style="overflow:visible;enable-background:new 0 0 283.465 318.897" xml:space="preserve">
	<g id="CMYK_Wappen">
		<path style="fill-rule:evenodd;clip-rule:evenodd;" d="M0,0h283.465v177.165c0,78.278-63.455,141.732-141.732,141.732
			S0,255.443,0,177.165V0z"/>
		
			<path style="fill-rule:evenodd;clip-rule:evenodd;fill:#F00000;stroke:#F00000;stroke-width:0.2835;stroke-miterlimit:3.8637;" d="
			M122.764,289.165c0.479-0.031,0.984,0.002,1.456-0.1c1.3-0.282,7.945-3.193,9.745-3.896l-0.035-22.006
			c3.178-2.536,12.601-3.231,15.473-0.239l-0.027,21.366c0.383,0.386,8.255,3.986,8.939,4.117c0.505,0.097,0.567-0.092,1.137,0.199
			c0.347-0.033,0.748,0.017,1.077-0.1c12.973-4.593,20.973-16.361,19.985-30.129c0,0-0.505-28.076-0.395-28.329
			c7.636-2.021,15.8-4.217,23.417-6.306c5.929-1.625,11.887-3.144,17.806-4.805c0.396-3.563,0.854-7.121,1.269-10.682
			c0.139-1.183,0.439-2.409,0.466-3.596c0.174-7.898-0.224-17.097-1.137-24.944c-0.261-2.245-0.686-4.465-1.017-6.7
			c-0.666-4.487-1.27-8.937-2.313-13.36c-0.528-2.243-1.192-4.451-1.774-6.68c-0.74-2.837-1.398-5.696-2.213-8.514
			c-2.258-7.816-5.404-15.322-8.494-22.831c-2.432-5.911-5.021-11.748-7.796-17.507c-0.618-1.283-1.312-2.528-1.974-3.788
			c-1.932-3.672-3.864-7.342-5.883-10.967c-2.592-4.658-5.195-9.314-8.015-13.839c-2.171-3.481-4.53-6.839-6.779-10.269
			c-2.536-3.866-5.122-7.698-7.696-11.539c-0.961-1.433-3.227-4.972-3.449-5.271l-10.668-14.237
			c-1.531-2.043-3.023-4.178-4.626-6.161c-2.211-2.737-4.668-5.28-7.019-7.896h-0.617c-1.459,1.354-1.399,1.718-2.473,3.15
			c-1.587,2.116-3.611,3.959-5.284,6.021c-2.842,3.504-5.493,7.161-8.255,10.728c-8.205,10.597-16.071,21.543-23.309,32.821
			c-2.728,4.251-5.521,8.462-8.075,12.821c-1.798,3.067-3.459,6.214-5.204,9.312c-11.742,20.846-21.226,42.61-26.777,65.94
			c-1.632,6.857-2.647,13.86-3.449,20.857c-0.841,7.328-1.177,13.501-1.177,20.877c0,1.655-0.075,3.311,0,4.965
			c0.08,1.772,0.301,3.536,0.438,5.304c0.143,1.822,0.248,3.653,0.817,5.404c3.041,1.173,6.188,2.012,9.325,2.878
			c2.519,0.695,5.025,1.433,7.543,2.133l26.061,7.271c0.197,3.165-0.105,22.37-0.04,28.793
			C101.842,268.701,108.119,284.165,122.764,289.165z M6.219,6.26h270.99v170.218c0,75.208-60.662,136.174-135.495,136.174
			S6.219,251.686,6.219,176.478V6.26z"/>
		<g>
			<path style="fill-rule:evenodd;clip-rule:evenodd;fill:#FFFFFF;" d="M122.486,284.667c0-7.682-0.046-15.929-0.087-23.61
				l-0.031-7.681c-0.002-1.08,0.065-2.219-0.003-3.293c-0.003-0.034-0.323-0.72-0.359-0.797c-4.091-2.083-7.556-4.61-10.906-7.737
				c-0.859-0.802-1.756-1.567-2.553-2.433c-1.306-1.418-2.4-3.18-3.567-4.71c-0.212,0.084-0.81,22.309,0.238,28.159
				C107.188,273.572,113.681,281.28,122.486,284.667z"/>
			<path style="fill-rule:evenodd;clip-rule:evenodd;fill:#FFFFFF;" d="M124.917,284.18c1.515-0.444,3.011-0.989,4.506-1.496
				v-35.353c0,0-4.551,1.521-4.551,1.693C124.872,260.264,124.917,272.941,124.917,284.18z"/>
			<path style="fill-rule:evenodd;clip-rule:evenodd;fill:#FFFFFF;" d="M157.617,283.682l0.26-37.005c0,0-3.814-1.347-5.305-1.778
				c-0.024,1.388-0.04,25.782-0.04,36.589C152.616,281.608,157.486,283.682,157.617,283.682z"/>
			<path style="fill-rule:evenodd;clip-rule:evenodd;fill:#FFFFFF;" d="M160.269,283.682c9.841-2.908,16.711-12.503,15.991-21.196
				l0.217-25.567c-0.879,2.261-11.98,10.387-16.088,10.832C160.389,259.728,160.269,271.705,160.269,283.682z"/>
			<path style="fill-rule:evenodd;clip-rule:evenodd;fill:#FFFFFF;" d="M171.753,223.723c1.119-7.79-15.257-37.065-28.651-50.786
				c-0.337-21.029-0.339-42.061-0.339-63.09c0-2.389-0.184-4.771-0.26-7.158c-0.075-2.37,0.047-4.782-0.239-7.139
				c-0.138-1.138-0.563-2.732-0.638-3.888c0,0-0.203,2.696-0.339,3.888c-0.074,0.653-0.604,11.194-0.718,15.792
				c-0.087,3.489-0.059,6.979-0.094,10.468c-0.096,9.732-0.231,19.462-0.445,29.192l-0.318,14.476
				c-0.051,2.207,0.044,4.429-0.279,6.62c-6.435,6.057-19.675,27.991-22.451,33.559c-1.992,3.996-5.483,15.274-5.483,15.274
				s6.249-12.583,9.624-18.471c1.43-2.493,2.811-5.092,4.354-7.511c1.564-2.455,3.386-4.755,5.084-7.119
				c2.092-2.909,8.431-11.898,9.75-12.781c5.298,3.356,23.433,29.24,28.852,42.452C170.015,219.581,170.874,221.656,171.753,223.723
				z M133.69,257.581c0.082-3.09,0.199-15.476,0.199-15.476s-2.957-0.26-3.905-0.703c-6.778-3.166-12.399-6.39-16.014-12.833
				c-2.597-0.429-5.22-0.709-7.796-1.256c-2.499-0.531-41.943-11.202-44.384-12.821c-0.635-3.898-1.011-7.859-1.177-11.804
				c-0.086-2.042,0.04-4.08,0.066-6.122c0.022-1.735-0.044-3.471,0.073-5.205c0.13-1.93,0.432-3.843,0.658-5.763
				c0.834-7.066,1.507-14.166,2.99-21.136c0.552-2.59,1.281-5.137,1.954-7.697c1.805-6.863,3.828-13.678,6.341-20.319
				c1.236-3.268,3.057-6.432,4.008-9.79c0.151-0.534,1.154-3.238,1.535-4.048l2.852-6.062c1.88-3.998,3.615-8.065,5.662-11.984
				c3.106-5.945,6.437-11.789,9.91-17.527c0.847-1.4,1.761-2.756,2.651-4.128c3.613-5.56,7.334-11.048,11.066-16.53
				c1.793-2.633,3.66-5.216,5.443-7.856c0.53-0.786,1.033-1.588,1.595-2.353c2.758-3.759,21.506-28.069,23.309-29.271
				c0.113-0.287,0.314-0.536,0.578-0.698h0.419c10.271,12.732,19.74,26.085,28.832,39.68c2.904,4.344,5.824,8.682,8.553,13.14
				c3.869,6.321,7.469,12.792,11.007,19.302c0.781,1.437,1.609,2.849,2.353,4.307c0.937,1.835,1.76,3.726,2.652,5.583
				c2.624,5.458,5.098,10.974,7.417,16.57c0.873,2.105,1.822,4.181,2.612,6.321c0.522,1.416,0.963,2.86,1.455,4.287
				c0.827,2.398,1.765,4.759,2.532,7.179c0.747,2.354,1.313,4.76,1.974,7.138c0.665,2.388,1.432,4.748,2.015,7.158
				c0.928,3.835,1.614,7.723,2.313,11.605c0.34,1.888,0.752,3.763,1.017,5.663c0.346,2.475,0.518,4.971,0.758,7.457
				c0.363,3.75,0.808,7.497,0.897,11.266c0.055,2.295,0,4.59,0,6.886c0,1.639,0.082,3.279,0,4.918
				c-0.081,1.605-0.317,3.196-0.492,4.792c-0.205,1.883-0.298,4.346-0.515,6.229c-0.271,0.19-41.654,10.94-42.46,11.152
				c-1.601,0.421-3.245,0.688-4.785,1.316c-2.388,5.378-12.234,10.661-16.39,12.104c-1.172,0.407-2.434,0.429-3.649,0.618
				c0.053,5.503-0.119,11.006-0.119,16.51c-1.594-0.358-3.094-1.033-4.686-1.396c-2.53-0.576-6.146-0.265-8.614,0.519
				C135.474,256.798,134.592,257.217,133.69,257.581z"/>
			<path style="fill-rule:evenodd;clip-rule:evenodd;fill:#FFFFFF;" d="M122.943,246.634c0.828-0.224,5.046-1.759,5.91-2.092
				c-2.994-0.263-12.014-5.099-17.296-12.245c-1.012-0.158-4.846-0.715-5.448-0.867
				C108.898,235.488,115.985,242.998,122.943,246.634z"/>
			<path style="fill-rule:evenodd;clip-rule:evenodd;fill:#FFFFFF;" d="M177.217,230.044c-0.91,0.061-4.495,0.359-5.384,0.398
				c-3.732,5.346-9.975,9.703-17.849,12.215c2.049,1.093,4.86,1.633,4.86,1.633C165.542,242.703,175.724,233.904,177.217,230.044z"
				/>
		</g>
	</g>
</svg>
