<?xml version="1.0" encoding="utf-8"?>
<!DOCTYPE svg PUBLIC "-//W3C//DTD SVG 1.1//EN" "http://www.w3.org/Graphics/SVG/1.1/DTD/svg11.dtd">
<svg version="1.1" id="Zurzach_Wappen_ab_2022" xmlns="http://www.w3.org/2000/svg" xmlns:xlink="http://www.w3.org/1999/xlink"
	 x="0px" y="0px" width="500px" height="561px" viewBox="0 0 500 561" enable-background="new 0 0 500 561" xml:space="preserve">
<g>
	<path fill="#FFFFFF" d="M500,0v310.999C500,449.07,388.07,561,250,561C111.93,561,0.001,449.07,0.001,310.999V0H500z"/>
</g>
<path fill="#0093DD" d="M437.5,194.5c-30,0-32.5-18-62.5-18s-32.5,18-62.5,18s-32.5-18-62.5-18s-32.5,18-62.5,18s-32.5-18-62.5-18
	s-32.5,17.182-62.5,17.182c-30.166,0-32.5-17.181-62.499-17.182v134.499c0,17.009,1.706,33.618,4.94,49.673
	c25.412,1.771,29.143,17.01,57.559,17.01c30,0,32.5-17.182,62.5-17.182s32.5,18,62.5,18s32.5-18,62.5-18s32.5,18,62.5,18
	s32.5-18,62.5-18s32.5,18,62.5,18c28.261,0,32.128-15.967,57.557-17.818c3.229-16.033,4.938-32.621,4.943-49.604V176.5
	C470,176.5,467.5,194.5,437.5,194.5z"/>
<g>
	<path fill="none" stroke="#000000" stroke-width="4" d="M0,176.5c30,0,32.333,17.182,62.5,17.182c30,0,32.5-17.182,62.5-17.182
		s32.5,18,62.5,18s32.5-18,62.5-18s32.5,18,62.5,18s32.5-18,62.5-18s32.5,18,62.5,18s32.5-18,62.5-18"/>
	<g>
		<path fill="none" stroke="#FFFFFF" stroke-width="4" d="M0,199.5c30,0,32.333,17.182,62.5,17.182c30,0,32.5-17.182,62.5-17.182
			s32.5,18,62.5,18s32.5-18,62.5-18s32.5,18,62.5,18s32.5-18,62.5-18s32.5,18,62.5,18s32.5-18,62.5-18"/>
		<path fill="none" stroke="#FFFFFF" stroke-width="4" d="M0,222.5c30,0,32.333,17.182,62.5,17.182c30,0,32.5-17.182,62.5-17.182
			s32.5,18,62.5,18s32.5-18,62.5-18s32.5,18,62.5,18s32.5-18,62.5-18s32.5,18,62.5,18s32.5-18,62.5-18"/>
		<path fill="none" stroke="#FFFFFF" stroke-width="4" d="M0,245.5c30,0,32.333,17.182,62.5,17.182c30,0,32.5-17.182,62.5-17.182
			s32.5,18,62.5,18s32.5-18,62.5-18s32.5,18,62.5,18s32.5-18,62.5-18s32.5,18,62.5,18s32.5-18,62.5-18"/>
		<path fill="none" stroke="#FFFFFF" stroke-width="4" d="M0,268.5c30,0,32.333,17.182,62.5,17.182c30,0,32.5-17.182,62.5-17.182
			s32.5,18,62.5,18s32.5-18,62.5-18s32.5,18,62.5,18s32.5-18,62.5-18s32.5,18,62.5,18s32.5-18,62.5-18"/>
		<path fill="none" stroke="#FFFFFF" stroke-width="4" d="M0,291.5c30,0,32.333,17.182,62.5,17.182c30,0,32.5-17.182,62.5-17.182
			s32.5,18,62.5,18s32.5-18,62.5-18s32.5,18,62.5,18s32.5-18,62.5-18s32.5,18,62.5,18s32.5-18,62.5-18"/>
		<path fill="none" stroke="#FFFFFF" stroke-width="4" d="M0,314.5c30,0,32.333,17.182,62.5,17.182c30,0,32.5-17.182,62.5-17.182
			s32.5,18,62.5,18s32.5-18,62.5-18s32.5,18,62.5,18s32.5-18,62.5-18s32.5,18,62.5,18s32.5-18,62.5-18"/>
		<path fill="none" stroke="#FFFFFF" stroke-width="4" d="M5.001,337.67c25.368,1.785,29.101,17.012,57.499,17.012
			c30,0,32.5-17.182,62.5-17.182s32.5,18,62.5,18s32.5-18,62.5-18s32.5,18,62.5,18s32.5-18,62.5-18s32.5,18,62.5,18
			c28.27,0,32.117-15.982,57.567-17.827"/>
	</g>
	<path fill="none" stroke="#000000" stroke-width="4" d="M9.975,361.225c21.029,3.269,26.093,16.457,52.525,16.457
		c30,0,32.5-17.182,62.5-17.182s32.5,18,62.5,18s32.5-18,62.5-18s32.5,18,62.5,18s32.5-18,62.5-18s32.5,18,62.5,18
		c26.25,0,31.443-13.781,52.432-17.227"/>
</g>
<path d="M492,8v302.999c0,32.674-6.396,64.364-19.017,94.194c-12.188,28.814-29.638,54.695-51.865,76.926
	c-22.227,22.228-48.106,39.678-76.925,51.866C314.364,546.602,282.674,553,250,553c-32.673,0-64.364-6.396-94.194-19.015
	c-28.814-12.188-54.698-29.642-76.925-51.866c-22.229-22.229-39.678-48.108-51.866-76.926
	c-12.617-29.83-19.014-61.521-19.014-94.194V8H492 M500,0H0.001v310.999C0.001,449.07,111.93,561,250,561
	c138.069,0,250-111.93,250-250.001V0L500,0z"/>
</svg>
