<?xml version="1.0" encoding="UTF-8" standalone="no"?>
<!-- Created with Inkscape (http://www.inkscape.org/) -->

<svg
   xmlns:dc="http://purl.org/dc/elements/1.1/"
   xmlns:cc="http://creativecommons.org/ns#"
   xmlns:rdf="http://www.w3.org/1999/02/22-rdf-syntax-ns#"
   xmlns:svg="http://www.w3.org/2000/svg"
   xmlns="http://www.w3.org/2000/svg"
   xmlns:sodipodi="http://sodipodi.sourceforge.net/DTD/sodipodi-0.dtd"
   xmlns:inkscape="http://www.inkscape.org/namespaces/inkscape"
   version="1.0"
   width="208.86046"
   height="244.65999"
   id="svg2780"
   inkscape:version="0.92.4 (5da689c313, 2019-01-14)"
   sodipodi:docname="Arbon-blazon.svg">
  <metadata
     id="metadata27">
    <rdf:RDF>
      <cc:Work
         rdf:about="">
        <dc:format>image/svg+xml</dc:format>
        <dc:type
           rdf:resource="http://purl.org/dc/dcmitype/StillImage" />
        <dc:title></dc:title>
      </cc:Work>
    </rdf:RDF>
  </metadata>
  <sodipodi:namedview
     pagecolor="#ffffff"
     bordercolor="#666666"
     borderopacity="1"
     objecttolerance="10"
     gridtolerance="10"
     guidetolerance="10"
     inkscape:pageopacity="0"
     inkscape:pageshadow="2"
     inkscape:window-width="3236"
     inkscape:window-height="1417"
     id="namedview25"
     showgrid="false"
     inkscape:zoom="2.0000001"
     inkscape:cx="-13.01393"
     inkscape:cy="75.842688"
     inkscape:window-x="-8"
     inkscape:window-y="-8"
     inkscape:window-maximized="1"
     inkscape:current-layer="svg2780"
     inkscape:measure-start="104.255,149.787"
     inkscape:measure-end="104.255,126.383"
     showguides="true"
     inkscape:object-paths="true"
     inkscape:snap-intersection-paths="true"
     inkscape:snap-global="false"
     inkscape:snap-object-midpoints="true" />
  <defs
     id="defs2782" />
  <path
     inkscape:connector-curvature="0"
     style="fill:#ffffff;fill-opacity:1;fill-rule:evenodd;stroke:#000000;stroke-width:1.99999988;stroke-linecap:butt;stroke-miterlimit:4;stroke-dashoffset:0;stroke-opacity:1"
     id="path4212"
     d="m 1,1 3.761095,158.00304 c 2.686489,112.85918 196.651755,112.85918 199.338255,0 L 207.86045,1 Z" />
  <g
     id="g1274">
    <path
       sodipodi:nodetypes="scccsccs"
       inkscape:connector-curvature="0"
       id="path1031-7"
       d="m 86.206478,73.92974 c -4.05359,-4.170547 -3.062607,-9.061913 -2.773639,-11.47347 2.546102,2.337678 4.705696,4.228718 7.648519,6.114327 3.633097,-1.583006 5.312623,-2.906188 7.270297,-4.685396 0.85236,6.214096 -1.518295,6.723695 -2.899715,9.960484 -0.507583,1.18931 -0.747135,2.45937 -0.966571,3.740435 l -7.690543,-0.504328 c 0,0 0.156586,-2.385626 -0.588348,-3.152052 z"
       style="opacity:1;fill:#000000;fill-opacity:1;stroke:#000000;stroke-width:1;stroke-miterlimit:20;stroke-dasharray:none;stroke-dashoffset:4.57999992;stroke-opacity:1" />
    <circle
       r="2.2097087"
       cy="70.503746"
       cx="87.875"
       id="path1048-1"
       style="opacity:1;fill:#ffffff;fill-opacity:1;stroke:#000000;stroke-width:1;stroke-miterlimit:20;stroke-dasharray:none;stroke-dashoffset:4.57999992;stroke-opacity:1" />
    <circle
       r="0.27377027"
       cy="70.503746"
       cx="87.875"
       id="path1053-6"
       style="opacity:1;fill:#000000;fill-opacity:1;stroke:#000000;stroke-width:1;stroke-miterlimit:20;stroke-dasharray:none;stroke-dashoffset:4.57999992;stroke-opacity:1" />
  </g>
  <g
     id="g1263">
    <path
       sodipodi:nodetypes="scccsccs"
       inkscape:connector-curvature="0"
       id="path1031"
       d="m 66.777395,72.170132 c -4.262839,-4.385568 -3.220701,-9.529119 -2.916816,-12.065009 2.677533,2.458202 4.948607,4.911466 8.04334,6.894291 3.82064,-1.664621 5.586868,-3.52075 7.645592,-5.391689 0.896364,6.534478 -1.596664,7.07035 -3.049398,10.474019 -0.533785,1.250627 -0.785703,2.586168 -1.016466,3.933281 l -8.087534,-0.53033 c 0,0 0.164669,-2.508622 -0.618718,-3.314563 z"
       style="opacity:1;fill:#000000;fill-opacity:1;stroke:#000000;stroke-width:1;stroke-miterlimit:20;stroke-dasharray:none;stroke-dashoffset:4.57999992;stroke-opacity:1" />
    <circle
       r="2.2097087"
       cy="69.651062"
       cx="67.882248"
       id="path1048"
       style="opacity:1;fill:#ffffff;fill-opacity:1;stroke:#000000;stroke-width:1;stroke-miterlimit:20;stroke-dasharray:none;stroke-dashoffset:4.57999992;stroke-opacity:1" />
    <circle
       r="0.32143033"
       cy="69.651047"
       cx="67.882233"
       id="path1053"
       style="opacity:1;fill:#000000;fill-opacity:1;stroke:#000000;stroke-width:1;stroke-miterlimit:20;stroke-dasharray:none;stroke-dashoffset:4.57999992;stroke-opacity:1" />
  </g>
  <g
     id="g1228">
    <path
       sodipodi:nodetypes="ccccccc"
       inkscape:connector-curvature="0"
       d="m 151.14289,73.540145 c -3.28781,14.13091 -11.20587,17.457905 -17.76606,23.953241 -8.40024,2.630384 -19.67649,2.121324 -28.94659,2.121326 -9.270101,2e-6 -20.546353,0.509068 -28.946593,-2.121319 -6.560195,-6.495336 -14.478251,-9.822331 -17.766057,-23.953241 15.46763,1.474205 30.744265,1.944543 46.71265,1.944539 15.96838,-3e-6 31.24502,-0.470341 46.71265,-1.944546 z"
       style="opacity:1;fill:#cc2918;fill-opacity:1;stroke:#000000;stroke-width:1;stroke-miterlimit:20;stroke-dasharray:none;stroke-dashoffset:4.57999992;stroke-opacity:1"
       id="path1017-6" />
    <path
       sodipodi:nodetypes="cc"
       inkscape:connector-curvature="0"
       id="path1029"
       d="M 104.43024,91.571384 C 91.846129,91.01535 79.012385,91.33303 66.724013,89.741911"
       style="opacity:1;fill:none;fill-opacity:1;stroke:#000000;stroke-width:1;stroke-miterlimit:20;stroke-dasharray:none;stroke-dashoffset:4.57999992;stroke-opacity:1" />
    <path
       sodipodi:nodetypes="cc"
       inkscape:connector-curvature="0"
       id="path1027"
       d="m 104.43024,83.528034 c -15.034868,0 -32.175296,-0.580505 -44.426786,-3.113886"
       style="opacity:1;fill:none;fill-opacity:1;stroke:#000000;stroke-width:1;stroke-miterlimit:20;stroke-dasharray:none;stroke-dashoffset:4.57999992;stroke-opacity:1" />
    <path
       sodipodi:nodetypes="cc"
       inkscape:connector-curvature="0"
       id="path1029-1"
       d="m 104.43024,91.571377 c 12.58411,-0.556034 25.41785,-0.238354 37.70622,-1.829473"
       style="opacity:1;fill:none;fill-opacity:1;stroke:#000000;stroke-width:1;stroke-miterlimit:20;stroke-dasharray:none;stroke-dashoffset:4.57999992;stroke-opacity:1" />
    <path
       sodipodi:nodetypes="cc"
       inkscape:connector-curvature="0"
       id="path1027-9"
       d="m 104.43024,83.528027 c 15.03486,0 32.17529,-0.580505 44.42678,-3.113886"
       style="opacity:1;fill:none;fill-opacity:1;stroke:#000000;stroke-width:1;stroke-miterlimit:20;stroke-dasharray:none;stroke-dashoffset:4.57999992;stroke-opacity:1" />
  </g>
  <path
     style="opacity:1;fill:#009645;fill-opacity:1;stroke:#000000;stroke-width:1;stroke-miterlimit:20;stroke-dasharray:none;stroke-dashoffset:4.57999992;stroke-opacity:1"
     d="m 50.765519,157.93187 c 0.987226,-6.60038 -0.902062,-15.54588 -7.539801,-16.80455 -10.106451,-1.91643 -21.521181,8.18487 -26.381381,11.05345 6.696642,6.86456 12.306347,19.30421 21.430534,19.10532 8.551162,-0.1864 11.293532,-5.35058 12.490648,-13.35422 z"
     id="path881-8"
     inkscape:connector-curvature="0"
     sodipodi:nodetypes="sscss" />
  <path
     style="opacity:1;fill:none;fill-opacity:1;stroke:#000000;stroke-width:1;stroke-miterlimit:20;stroke-dasharray:none;stroke-dashoffset:4.57999992;stroke-opacity:1"
     d="m 16.844337,152.18077 11.496473,1.23232"
     id="path883-6"
     inkscape:connector-curvature="0" />
  <path
     style="opacity:1;fill:#009645;fill-opacity:1;stroke:#000000;stroke-width:1;stroke-miterlimit:20;stroke-dasharray:none;stroke-dashoffset:4.57999992;stroke-opacity:1"
     d="m 60.90744,183.44799 c -5.292917,-4.06506 -15.206815,-7.01161 -19.527368,-1.81771 -6.578365,7.90811 -1.469769,23.41492 -1.318918,29.05651 9.251284,-2.52607 22.867797,-1.38818 27.102632,-9.47252 2.402547,-4.58648 0.16185,-12.83698 -6.256346,-17.76628 z"
     id="path881-8-4"
     inkscape:connector-curvature="0"
     sodipodi:nodetypes="sscss" />
  <path
     style="opacity:1;fill:none;fill-opacity:1;stroke:#000000;stroke-width:1;stroke-miterlimit:20;stroke-dasharray:none;stroke-dashoffset:4.57999992;stroke-opacity:1"
     d="M 40.061154,210.68679 46.71557,201.2313"
     id="path883-6-4"
     inkscape:connector-curvature="0" />
  <path
     style="opacity:1;fill:#009645;fill-opacity:1;stroke:#000000;stroke-width:1;stroke-miterlimit:20;stroke-dasharray:none;stroke-dashoffset:4.57999992;stroke-opacity:1"
     d="m 72.914802,140.25323 c -6.141483,2.61187 -14.170217,4.54922 -17.054228,-1.56031 -4.391121,-9.30221 2.522697,-22.88644 4.079929,-28.31095 8.325321,4.75985 21.793598,7.06415 23.87161,15.95078 1.178917,5.04164 -3.450144,10.75332 -10.897311,13.92048 z"
     id="path881"
     inkscape:connector-curvature="0"
     sodipodi:nodetypes="sscss" />
  <path
     style="opacity:1;fill:none;fill-opacity:1;stroke:#000000;stroke-width:1;stroke-miterlimit:20;stroke-dasharray:none;stroke-dashoffset:4.57999992;stroke-opacity:1"
     d="M 59.940503,110.38197 64.0182,121.20138"
     id="path883"
     inkscape:connector-curvature="0" />
  <path
     style="opacity:1;fill:#009645;fill-opacity:1;stroke:#000000;stroke-width:1;stroke-miterlimit:20;stroke-dasharray:none;stroke-dashoffset:4.57999992;stroke-opacity:1"
     d="m 47.756157,43.41936 c -6.521066,1.419643 -14.145316,0.574355 -15.838277,-5.966113 -2.577663,-9.958349 6.750195,-22.013365 9.292562,-27.051882 7.290567,6.230162 15.967046,10.88286 18.72482,19.626171 1.557469,4.937854 -4.271654,11.670361 -12.179105,13.391824 z"
     id="path881-7"
     inkscape:connector-curvature="0"
     sodipodi:nodetypes="sscss" />
  <path
     style="opacity:1;fill:none;fill-opacity:1;stroke:#000000;stroke-width:1;stroke-miterlimit:20;stroke-dasharray:none;stroke-dashoffset:4.57999992;stroke-opacity:1"
     d="m 41.210442,10.401365 1.986553,11.390396"
     id="path883-2"
     inkscape:connector-curvature="0" />
  <path
     style="opacity:1;fill:#009645;fill-opacity:1;stroke:#000000;stroke-width:1;stroke-miterlimit:20;stroke-dasharray:none;stroke-dashoffset:4.57999992;stroke-opacity:1"
     d="M 48.307687,101.99939 C 46.842811,95.48833 42.567583,88.705255 35.92131,89.918059 25.801863,91.76464 18.783847,105.29534 15.280537,109.71994 c 8.71739,3.9968 16.495579,12.79209 26.55528,8.43196 4.75062,-2.05903 7.545861,-11.37888 6.47187,-16.15251 z"
     id="path881-8-0"
     inkscape:connector-curvature="0"
     sodipodi:nodetypes="sscss" />
  <path
     style="opacity:1;fill:none;fill-opacity:1;stroke:#000000;stroke-width:1;stroke-miterlimit:20;stroke-dasharray:none;stroke-dashoffset:4.57999992;stroke-opacity:1"
     d="M 15.280537,109.71994 26.450955,106.7351"
     id="path883-6-40"
     inkscape:connector-curvature="0" />
  <path
     style="opacity:1;fill:#009645;fill-opacity:1;stroke:#000000;stroke-width:1;stroke-miterlimit:20;stroke-dasharray:none;stroke-dashoffset:4.57999992;stroke-opacity:1"
     d="m 38.999271,70.351214 c 3.096406,-4.980749 5.86118,-11.691303 0.942667,-15.019751 -7.488801,-5.067812 -20.220585,-0.896385 -25.142504,-0.275818 3.01289,7.871444 3.5747,18.127633 10.76419,21.505766 4.119469,1.935619 9.68094,-0.170536 13.435647,-6.210197 z"
     id="path881-8-9"
     inkscape:connector-curvature="0"
     sodipodi:nodetypes="sscss" />
  <path
     style="opacity:1;fill:none;fill-opacity:1;stroke:#000000;stroke-width:1;stroke-miterlimit:20;stroke-dasharray:none;stroke-dashoffset:4.57999992;stroke-opacity:1"
     d="m 14.799434,55.055645 8.848984,5.000291"
     id="path883-6-3"
     inkscape:connector-curvature="0" />
  <path
     style="opacity:1;fill:#009645;fill-opacity:1;stroke:#000000;stroke-width:1;stroke-miterlimit:20;stroke-dasharray:none;stroke-dashoffset:4.57999992;stroke-opacity:1"
     d="m 158.09497,157.93189 c -0.98723,-6.60038 0.90206,-15.54588 7.5398,-16.80455 10.10645,-1.91643 21.52118,8.18487 26.38138,11.05345 -6.69664,6.86456 -12.30635,19.30421 -21.43053,19.10532 -8.55117,-0.1864 -11.29354,-5.35059 -12.49065,-13.35422 z"
     id="path881-8-46"
     inkscape:connector-curvature="0"
     sodipodi:nodetypes="sscss" />
  <path
     style="opacity:1;fill:none;fill-opacity:1;stroke:#000000;stroke-width:1;stroke-miterlimit:20;stroke-dasharray:none;stroke-dashoffset:4.57999992;stroke-opacity:1"
     d="m 192.01615,152.18079 -11.49647,1.23232"
     id="path883-6-5"
     inkscape:connector-curvature="0" />
  <path
     style="opacity:1;fill:#009645;fill-opacity:1;stroke:#000000;stroke-width:1;stroke-miterlimit:20;stroke-dasharray:none;stroke-dashoffset:4.57999992;stroke-opacity:1"
     d="m 147.95304,183.44799 c 5.29291,-4.06506 15.20681,-7.01162 19.52736,-1.81771 6.57837,7.90811 1.46977,23.41491 1.31892,29.0565 -9.25128,-2.52606 -22.8678,-1.38817 -27.10263,-9.47251 -2.40255,-4.58648 -0.16185,-12.83698 6.25635,-17.76628 z"
     id="path881-8-4-7"
     inkscape:connector-curvature="0"
     sodipodi:nodetypes="sscss" />
  <path
     style="opacity:1;fill:none;fill-opacity:1;stroke:#000000;stroke-width:1;stroke-miterlimit:20;stroke-dasharray:none;stroke-dashoffset:4.57999992;stroke-opacity:1"
     d="m 168.79932,210.68678 -6.65441,-9.45548"
     id="path883-6-4-2"
     inkscape:connector-curvature="0" />
  <path
     style="opacity:1;fill:#009645;fill-opacity:1;stroke:#000000;stroke-width:1;stroke-miterlimit:20;stroke-dasharray:none;stroke-dashoffset:4.57999992;stroke-opacity:1"
     d="m 135.94568,140.25322 c 6.14148,2.61187 14.17022,4.54922 17.05423,-1.56031 4.39112,-9.30221 -2.5227,-22.88644 -4.07993,-28.31095 -8.32532,4.75986 -21.7936,7.06415 -23.87161,15.95078 -1.17892,5.04164 3.45014,10.75332 10.89731,13.92048 z"
     id="path881-85"
     inkscape:connector-curvature="0"
     sodipodi:nodetypes="sscss" />
  <path
     style="opacity:1;fill:none;fill-opacity:1;stroke:#000000;stroke-width:1;stroke-miterlimit:20;stroke-dasharray:none;stroke-dashoffset:4.57999992;stroke-opacity:1"
     d="m 148.91998,110.38196 -4.0777,10.81942"
     id="path883-4"
     inkscape:connector-curvature="0" />
  <path
     style="opacity:1;fill:#009645;fill-opacity:1;stroke:#000000;stroke-width:1;stroke-miterlimit:20;stroke-dasharray:none;stroke-dashoffset:4.57999992;stroke-opacity:1"
     d="m 161.10432,43.419349 c 6.52107,1.419642 14.14532,0.574355 15.83828,-5.966114 2.57766,-9.958349 -6.75019,-22.013364 -9.29256,-27.051881 -7.29057,6.230162 -15.96705,10.88286 -18.72482,19.626171 -1.55747,4.937854 4.27165,11.670361 12.1791,13.391824 z"
     id="path881-7-5"
     inkscape:connector-curvature="0"
     sodipodi:nodetypes="sscss" />
  <path
     style="opacity:1;fill:none;fill-opacity:1;stroke:#000000;stroke-width:1;stroke-miterlimit:20;stroke-dasharray:none;stroke-dashoffset:4.57999992;stroke-opacity:1"
     d="M 167.65004,10.401354 165.66349,21.79175"
     id="path883-2-5"
     inkscape:connector-curvature="0" />
  <path
     style="opacity:1;fill:#009645;fill-opacity:1;stroke:#000000;stroke-width:1;stroke-miterlimit:20;stroke-dasharray:none;stroke-dashoffset:4.57999992;stroke-opacity:1"
     d="m 160.55279,101.9994 c 1.46488,-6.511051 5.74011,-13.294125 12.38638,-12.081321 10.11945,1.846582 17.13746,15.377281 20.64077,19.801881 -8.71739,3.9968 -16.49558,12.79209 -26.55528,8.43196 -4.75062,-2.05903 -7.54586,-11.37889 -6.47187,-16.15252 z"
     id="path881-8-0-6"
     inkscape:connector-curvature="0"
     sodipodi:nodetypes="sscss" />
  <path
     style="opacity:1;fill:none;fill-opacity:1;stroke:#000000;stroke-width:1;stroke-miterlimit:20;stroke-dasharray:none;stroke-dashoffset:4.57999992;stroke-opacity:1"
     d="m 193.57994,109.71996 -11.17041,-2.98484"
     id="path883-6-40-4"
     inkscape:connector-curvature="0" />
  <path
     style="opacity:1;fill:#009645;fill-opacity:1;stroke:#000000;stroke-width:1;stroke-miterlimit:20;stroke-dasharray:none;stroke-dashoffset:4.57999992;stroke-opacity:1"
     d="m 169.86121,70.351207 c -3.09641,-4.980749 -5.86118,-11.691303 -0.94267,-15.019751 7.4888,-5.067812 20.22058,-0.896385 25.1425,-0.275818 -3.01289,7.871444 -3.5747,18.127633 -10.76419,21.505766 -4.11947,1.935619 -9.68094,-0.170536 -13.43564,-6.210197 z"
     id="path881-8-9-5"
     inkscape:connector-curvature="0"
     sodipodi:nodetypes="sscss" />
  <path
     style="opacity:1;fill:none;fill-opacity:1;stroke:#000000;stroke-width:1;stroke-miterlimit:20;stroke-dasharray:none;stroke-dashoffset:4.57999992;stroke-opacity:1"
     d="m 194.06104,55.055638 -8.84898,5.000291"
     id="path883-6-3-0"
     inkscape:connector-curvature="0" />
  <path
     id="path879-1"
     style="opacity:1;fill:#cc2918;fill-opacity:1;stroke:#000000;stroke-width:1;stroke-miterlimit:20;stroke-dasharray:none;stroke-dashoffset:4.57999992;stroke-opacity:1"
     d="M 90.124998,107.65999 C 79.09315,99.293282 64.820111,87.3768 61.999998,81.159993 52.982886,61.282194 48.506401,42.759746 42.935659,20.107139 c 2.716809,20.904499 4.976325,38.258419 13.43934,58.177854 -10.588278,-7.445863 -23.258933,-14.256367 -34,-19 16.30649,11.385618 33.020988,21.343207 47.749999,38.249999 -17.162027,1.466897 -32.878979,4.576668 -48.249999,10.374998 17.455684,-2.91694 45.915346,-12.286481 58.249999,0.25 8.8491,8.9939 17.107827,8.66269 16.792893,56.5 -22.562366,-9.37859 -25.61681,-29.21406 -33.917893,-46.17021 4.739141,16.2589 9.847346,32.16104 19.5,43.67021 -22.454527,-5.97726 -39.12283,-8.5268 -57.499999,-9.125 19.808184,4.20945 40.202225,7.49372 59.124999,14.875 -3.911598,0.75979 -8.51662,1.45579 -14.25,5.375 -13.183564,9.01198 -19.224436,21.28457 -25.499999,31.25 9.588073,-11.51935 19.334255,-23.91672 31.749999,-29.75 8.136724,-3.82287 19.54591,-1.83016 20.241117,10 0.685245,11.66065 0.327989,26.99349 0.280774,40 h 15.566701 c -0.0472,-13.00651 -0.40447,-28.33935 0.28077,-40 0.6952,-11.83016 12.10439,-13.82287 20.24112,-10 12.41574,5.83328 22.16192,18.23065 31.75,29.75 -6.27557,-9.96543 -12.31644,-22.23802 -25.5,-31.25 -5.73338,-3.91921 -10.3384,-4.61521 -14.25,-5.375 18.92277,-7.38128 39.31681,-10.66555 59.125,-14.875 -18.37717,0.5982 -35.04548,3.14774 -57.5,9.125 9.65265,-11.50917 14.76086,-27.41131 19.5,-43.67021 -8.30109,16.95615 -11.35553,36.79162 -33.91789,46.17021 -0.31494,-47.83731 7.94379,-47.5061 16.79289,-56.50001 12.33465,-12.536478 40.79431,-3.16694 58.25,-0.25 -15.37102,-5.79833 -31.08798,-8.9081 -48.25,-10.374995 14.72901,-16.906792 31.44351,-26.864381 47.75,-38.249999 -10.74107,4.743633 -23.41173,11.554137 -34,19 8.46301,-19.919435 10.72253,-37.273355 13.43934,-58.177854 -5.57075,22.652607 -10.04723,41.175055 -19.06434,61.052854 -2.82012,6.216807 -17.09315,18.133284 -28.125,26.499994 -3.73534,2.83294 -7.40327,5.12383 -14.30524,5.12501 -6.901978,-10e-4 -10.569905,-2.29207 -14.305242,-5.125 z"
     inkscape:connector-curvature="0"
     sodipodi:nodetypes="sscccccscccccscssccsscscccccscccccsscs" />
  <path
     id="path861-2"
     style="opacity:1;fill:#009645;fill-opacity:1;stroke:#000000;stroke-width:1;stroke-miterlimit:4;stroke-dasharray:none;stroke-dashoffset:4.57999992;stroke-opacity:1"
     d="m 155.36603,232.64398 c -15.69128,-7.29738 -30.92614,-11.23399 -50.93579,-11.23399 -20.009645,0 -35.244507,3.93661 -50.935783,11.23399 14.6479,6.66537 31.093126,11.01916 50.935783,11.00344 19.84266,0.0157 36.28789,-4.33807 50.93579,-11.00344 z"
     inkscape:connector-curvature="0"
     sodipodi:nodetypes="ccccc" />
  <g
     id="g1269">
    <path
       sodipodi:nodetypes="cscsscsscccccccscsscscccssc"
       inkscape:connector-curvature="0"
       id="path1091"
       d="m 84.852812,31.202134 c -0.995719,-1.644128 -1.020018,-3.135617 -0.793196,-4.30468 0.273695,-1.410653 0.662386,-2.180512 1.942244,-3.561883 -0.500595,-1.866632 -0.394118,-5.099673 2.740039,-7.424621 1.929209,-1.431106 4.497957,-2.419531 8.308504,-2.12132 2.544087,0.199098 4.001917,1.786491 6.275577,4.861359 4.63792,1.137271 11.06444,2.737526 17.05895,5.656854 4.05345,1.974031 8.80798,7.065277 16.26345,19.003494 7.12612,11.410834 14.24603,22.978977 20.15254,34.294679 -3.76031,-1.63464 -7.89287,-3.216103 -12.81631,-4.684583 4.17567,6.21582 8.0922,12.894359 11.84404,19.975766 -3.16571,-0.321501 -6.25032,-0.679044 -10.87176,-0.353553 -4.12953,-9.548222 -9.63451,-19.188139 -16.26346,-28.902989 l -5.10442,-1.37002 c -3.3293,4.284842 -6.5923,6.164693 -9.9216,8.971418 3.76497,0.245189 7.89518,-0.523351 9.47965,1.59099 0.87852,1.1723 0.85363,3.40206 0.41986,4.24264 -1.12283,-1.222347 -2.2752,-2.718926 -3.18198,-2.740038 -6.96821,-0.162238 -14.13197,-0.323641 -21.920313,0.353553 -1.104106,0.096 -1.990151,1.406678 -2.916816,2.474874 -0.179803,-1.462982 -0.511704,-2.881516 0.662913,-4.552 0.738589,-1.050387 6.288126,-1.059021 11.446286,-1.193243 3.04326,-2.188071 7.22668,-4.939745 8.3748,-7.314135 -1.51198,-2.007037 -2.76094,-4.579806 -3.69021,-7.181553 -2.88881,1.298906 -5.04214,-0.906772 -7.24785,-4.331029 -5.319651,-8.258488 -7.747254,-19.147817 -12.904696,-23.334523 -3.449993,-2.800634 -5.943676,-0.207707 -7.336242,1.944543 z"
       style="opacity:1;fill:#000000;fill-opacity:1;stroke:#000000;stroke-width:1;stroke-miterlimit:20;stroke-dasharray:none;stroke-dashoffset:4.57999992;stroke-opacity:1" />
    <circle
       r="2.7097087"
       cy="21.784994"
       cx="90.3125"
       id="path1048-1-2"
       style="opacity:1;fill:#ffffff;fill-opacity:1;stroke:#000000;stroke-width:1;stroke-miterlimit:20;stroke-dasharray:none;stroke-dashoffset:4.57999992;stroke-opacity:1" />
    <path
       sodipodi:nodetypes="cc"
       inkscape:connector-curvature="0"
       id="path1093"
       d="M 123.94256,63.265006 C 119.95143,52.808129 113.61554,46.057745 108.375,37.472494"
       style="opacity:1;fill:none;fill-opacity:1;stroke:#ffffff;stroke-width:1;stroke-miterlimit:20;stroke-dasharray:none;stroke-dashoffset:4.57999992;stroke-opacity:1" />
    <circle
       r="0.36966884"
       cy="21.784994"
       cx="90.3125"
       id="path1053-6-7"
       style="opacity:1;fill:#000000;fill-opacity:1;stroke:#000000;stroke-width:1;stroke-miterlimit:20;stroke-dasharray:none;stroke-dashoffset:4.57999992;stroke-opacity:1" />
  </g>
  <path
     inkscape:connector-curvature="0"
     style="fill:none;fill-opacity:1;fill-rule:evenodd;stroke:#000000;stroke-width:1.99999988;stroke-linecap:butt;stroke-miterlimit:4;stroke-dashoffset:0;stroke-opacity:1"
     id="path4212-2"
     d="M 1,0.99999834 4.761095,159.00304 c 2.686489,112.85918 196.651755,112.85918 199.338255,0 l 3.7611,-158.00304166 z" />
</svg>
