<?xml version="1.0" encoding="UTF-8" standalone="no"?>
<!-- Created with Inkscape (http://www.inkscape.org/) -->
<svg xmlns:svg="http://www.w3.org/2000/svg" xmlns="http://www.w3.org/2000/svg" version="1.0" width="434.28571" height="488.57144" id="svg3158">
  <defs id="defs3160">
    <clipPath id="clipPath91">
      <path d="M 34.147,746.677 L 354.852,746.677 L 354.852,809.473 L 34.147,809.473 L 34.147,746.677 z" id="path93"/>
    </clipPath>
  </defs>
  <g transform="translate(45.7143, -89.505)" id="layer1">
    <path d="M 171.42351,559.36091 C 257.73356,559.36091 326.74522,498.05875 336.83931,412.33475 L 373.58827,99.902905 L -30.731058,99.902905 L 6.0279271,412.33475 C 16.111915,498.05875 85.133679,559.36091 171.42351,559.36091" id="path85" style="fill: rgb(255, 242, 0); fill-opacity: 1; fill-rule: nonzero; stroke: none;"/>
    <g transform="matrix(10.1042, 0, 0, -10.1042, -1514.93, 8277.36)" id="g87">
      <g clip-path="url(#clipPath91)" id="g89">
        <path d="M 166.896,763.841 C 175.438,763.841 182.268,769.908 183.267,778.392 L 186.904,809.313 L 146.889,809.313 L 150.527,778.392 C 151.525,769.908 158.356,763.841 166.896,763.841 z" id="path95" style="fill: none; stroke: rgb(35, 31, 32); stroke-width: 0.321; stroke-linecap: butt; stroke-linejoin: miter; stroke-miterlimit: 3.864; stroke-dasharray: none; stroke-opacity: 1;"/>
      </g>
    </g>
    <path d="M 333.77774,138.58177 C 337.69817,138.49083 340.59815,138.20791 343.58891,138.24833 C 343.58891,138.24833 355.70384,139.29917 355.76447,141.39073 C 355.86551,144.02793 346.39788,145.69512 330.24127,152.56597 C 329.3926,152.90952 313.92299,163.15517 307.25422,173.03708 C 297.23094,187.92056 299.03959,201.30862 291.66345,225.44754 C 280.40737,262.03484 269.3837,261.25681 259.7544,272.14914 C 244.52737,289.35658 234.93849,304.20975 235.63576,323.95335 L 236.94923,361.45002 C 237.44441,375.69694 241.72851,383.37613 244.01214,397.42096 C 244.41623,400.04805 246.73009,419.53905 245.28519,433.59398 C 243.09258,454.8229 241.97101,469.15065 228.51222,485.72153 C 215.39698,501.85793 202.83754,508.5267 182.43709,512.54817 C 172.49456,514.50839 165.69444,514.02338 156.47941,513.45755 C 141.30291,512.51786 131.04715,510.51723 117.00231,504.70732 C 94.722642,495.49229 81.890232,484.33726 68.239544,465.70512 C 61.762754,456.85384 59.287145,449.96278 57.225889,445.45631 C 54.810986,440.20213 54.224943,437.99941 52.143478,431.49231 C 50.375244,425.95521 46.303253,413.68872 48.647427,402.564 C 49.566908,398.24951 50.223762,393.4096 52.012205,389.26687 C 55.3263,381.58769 60.742149,375.65652 66.228809,375.46454 L 72.028537,375.26246 C 82.738984,374.8886 90.852654,386.6701 98.349968,386.41749 L 101.91675,386.28614 C 114.94106,385.83145 128.5717,368.59369 143.16208,312.87915 C 147.89084,294.74212 160.43015,273.56372 160.97578,272.47247 C 170.41309,253.40585 180.92146,253.2745 196.21921,244.8577 C 203.51452,240.84634 220.42887,236.50153 234.30193,221.62816 C 251.53969,203.14758 253.65154,189.39577 258.42064,182.34304 C 266.65556,170.07655 274.88038,161.02319 282.93342,155.11223 C 288.44021,151.12107 315.72154,138.9051 333.77774,138.58177" id="path97" style="fill: rgb(35, 31, 32); fill-opacity: 1; fill-rule: nonzero; stroke: none;"/>
    <path d="M 333.77774,138.58177 C 337.69817,138.49083 340.59815,138.20791 343.58891,138.24833 C 343.58891,138.24833 355.70384,139.29917 355.76447,141.39073 C 355.86551,144.02793 346.39788,145.69512 330.24127,152.56597 C 329.3926,152.90952 313.92299,163.15517 307.25422,173.03708 C 297.23094,187.92056 299.03959,201.30862 291.66345,225.44754 C 280.40737,262.03484 269.3837,261.25681 259.7544,272.14914 C 244.52737,289.35658 234.93849,304.20975 235.63576,323.95335 L 236.94923,361.45002 C 237.44441,375.69694 241.72851,383.37613 244.01214,397.42096 C 244.41623,400.04805 246.73009,419.53905 245.28519,433.59398 C 243.09258,454.8229 241.97101,469.15065 228.51222,485.72153 C 215.39698,501.85793 202.83754,508.5267 182.43709,512.54817 C 172.49456,514.50839 165.69444,514.02338 156.47941,513.45755 C 141.30291,512.51786 131.04715,510.51723 117.00231,504.70732 C 94.722642,495.49229 81.890232,484.33726 68.239544,465.70512 C 61.762754,456.85384 59.287145,449.96278 57.225889,445.45631 C 54.810986,440.20213 54.224943,437.99941 52.143478,431.49231 C 50.375244,425.95521 46.303253,413.68872 48.647427,402.564 C 49.566908,398.24951 50.223762,393.4096 52.012205,389.26687 C 55.3263,381.58769 60.742149,375.65652 66.228809,375.46454 L 72.028537,375.26246 C 82.738984,374.8886 90.852654,386.6701 98.349968,386.41749 L 101.91675,386.28614 C 114.94106,385.83145 128.5717,368.59369 143.16208,312.87915 C 147.89084,294.74212 160.43015,273.56372 160.97578,272.47247 C 170.41309,253.40585 180.92146,253.2745 196.21921,244.8577 C 203.51452,240.84634 220.42887,236.50153 234.30193,221.62816 C 251.53969,203.14758 253.65154,189.39577 258.42064,182.34304 C 266.65556,170.07655 274.88038,161.02319 282.93342,155.11223 C 288.44021,151.12107 315.72154,138.9051 333.77774,138.58177 z" id="path99" style="fill: none; stroke: rgb(35, 31, 32); stroke-width: 7.13356; stroke-linecap: butt; stroke-linejoin: miter; stroke-miterlimit: 3.864; stroke-dasharray: none; stroke-opacity: 1;"/>
    <path d="M 212.99218,249.31365 C 219.43865,251.85991 224.09669,255.60857 224.94552,262.50973 C 225.29917,265.40964 224.02596,269.94642 224.02596,269.94642 C 224.02596,269.94642 218.77178,260.90317 213.63893,256.93222 C 208.06133,252.60762 196.95682,249.86938 196.95682,249.86938 C 196.95682,249.86938 207.17224,247.0099 212.99218,249.31365" id="path101" style="fill: rgb(255, 255, 255); fill-opacity: 1; fill-rule: nonzero; stroke: none;"/>
    <path d="M 213.26499,299.88516 C 215.73041,299.67297 217.29656,300.49141 219.22647,302.02724 C 220.86335,303.32058 221.87385,306.70549 221.87385,306.70549 C 221.87385,306.70549 219.09511,303.92683 216.79136,303.44183 C 212.40613,302.54256 205.32317,303.27006 205.32317,303.27006 C 205.32317,303.27006 209.9205,300.18828 213.26499,299.88516" id="path103" style="fill: rgb(255, 255, 255); fill-opacity: 1; fill-rule: nonzero; stroke: none;"/>
    <path d="M 214.99281,306.75601 C 217.69063,307.24101 221.54033,313.59655 221.54033,313.59655 C 221.54033,313.59655 215.205,308.98904 208.60696,309.84789 L 200.75608,310.86842 C 200.75608,310.86842 203.1709,308.72633 206.61643,307.43299 C 209.53662,306.32153 214.30572,306.63476 214.99281,306.75601" id="path105" style="fill: rgb(255, 255, 255); fill-opacity: 1; fill-rule: nonzero; stroke: none;"/>
    <path d="M 208.39485,314.62718 C 210.60759,313.9603 212.3354,313.40457 214.31583,314.61707 C 217.65021,316.65812 220.83303,322.22553 220.83303,322.22553 C 220.83303,322.22553 214.4977,318.79011 210.04175,318.20406 C 205.07057,317.55739 197.29026,319.80053 197.29026,319.80053 C 197.29026,319.80053 203.81757,316.02156 208.39485,314.62718" id="path107" style="fill: rgb(255, 255, 255); fill-opacity: 1; fill-rule: nonzero; stroke: none;"/>
    <path d="M 206.93976,321.82137 C 209.96092,321.72032 211.82009,321.71022 214.58872,322.89241 C 218.54949,324.60002 222.31835,330.76358 222.31835,330.76358 C 222.31835,330.76358 213.49739,327.51003 207.58643,327.16648 C 201.0491,326.79263 190.9449,329.57128 190.9449,329.57128 C 190.9449,329.57128 200.01847,322.07397 206.93976,321.82137" id="path109" style="fill: rgb(255, 255, 255); fill-opacity: 1; fill-rule: nonzero; stroke: none;"/>
    <path d="M 207.74818,331.63254 C 215.42737,332.64296 223.18731,344.12133 223.18731,344.12133 C 223.18731,344.12133 215.24541,338.21037 209.28394,337.39193 C 206.00015,336.93724 204.06015,337.11912 200.79641,337.68495 C 196.04744,338.5135 188.86344,340.9183 188.86344,340.9183 C 188.86344,340.9183 199.61422,330.56149 207.74818,331.63254" id="path111" style="fill: rgb(255, 255, 255); fill-opacity: 1; fill-rule: nonzero; stroke: none;"/>
    <path d="M 207.24289,342.82799 C 215.77083,344.49518 224.3999,357.0648 224.3999,357.0648 C 224.3999,357.0648 213.80051,350.3152 206.14153,349.56749 C 202.66569,349.23405 200.62464,349.19363 197.20942,349.88072 C 191.30857,351.06291 182.44719,354.32656 182.44719,354.32656 C 182.44719,354.32656 196.78505,340.78694 207.24289,342.82799" id="path113" style="fill: rgb(255, 255, 255); fill-opacity: 1; fill-rule: nonzero; stroke: none;"/>
    <path d="M 207.2732,356.68084 C 215.59906,359.10585 223.56117,371.80682 223.56117,371.80682 C 223.56117,371.80682 212.10301,365.19868 203.96913,364.40045 C 199.81631,363.98618 197.37109,364.05691 193.24858,364.7642 C 187.39825,365.78472 178.56726,368.79577 178.56726,368.79577 C 178.56726,368.79577 195.60286,353.29594 207.2732,356.68084" id="path115" style="fill: rgb(255, 255, 255); fill-opacity: 1; fill-rule: nonzero; stroke: none;"/>
    <path d="M 70.442178,380.78945 C 87.32629,380.62779 102.2906,403.43296 125.82328,405.13046 C 133.30038,405.65588 137.56435,405.17088 145.02125,404.45348 C 159.48035,403.049 166.91704,397.53211 181.39636,396.48127 C 185.22585,396.19835 187.39825,395.87502 191.21763,396.13773 C 213.84093,397.69377 230.68462,412.51663 234.58484,434.85701 C 235.46399,439.82827 235.38316,442.75849 235.04972,447.80048 C 233.79672,466.69533 228.06764,479.04266 213.7702,491.46071 C 202.62535,501.14053 193.99637,504.50523 178.97135,506.3644 C 163.02693,508.33472 153.49875,508.2741 137.79683,504.83867 C 116.54762,500.20084 103.9578,494.73447 87.760851,480.20464 C 71.472806,465.61418 64.551431,452.84248 57.731099,432.82606 C 54.245232,422.58041 52.456789,412.94101 53.416607,405.42348 C 54.89182,393.83397 58.125163,380.9006 70.442178,380.78945" id="path117" style="fill: rgb(255, 255, 255); fill-opacity: 1; fill-rule: nonzero; stroke: none;"/>
    <path d="M 190.82357,375.05027 C 197.36099,373.26183 201.84733,371.19047 208.16245,373.6862 C 212.00197,375.20183 213.7702,377.03069 216.58935,380.05185 C 220.51988,384.2754 223.74312,393.01553 223.74312,393.01553 C 223.74312,393.01553 210.04175,384.43707 200.13964,382.86081 C 188.58044,381.01175 170.40299,386.85197 170.40299,386.85197 C 174.17194,382.20404 181.95209,377.48538 190.82357,375.05027" id="path119" style="fill: rgb(255, 255, 255); fill-opacity: 1; fill-rule: nonzero; stroke: none;"/>
    <path d="M 67.481648,389.10521 C 69.280195,388.08468 70.54322,387.93312 72.604557,387.78156 C 79.434912,387.27635 81.657835,393.52074 87.44754,397.19867 C 92.307658,400.29055 94.793291,402.47306 99.89591,405.13046 C 110.98021,410.92017 118.12388,413.83018 130.61275,414.34549 C 134.44216,414.50716 136.61456,414.28486 140.43394,414.00195 C 154.75159,412.95111 162.06703,407.24224 176.36447,406.03984 C 181.57831,405.60536 184.56915,404.92838 189.76263,405.57505 C 209.45571,407.98995 223.98554,420.84249 226.74399,440.48505 C 227.19868,443.76891 227.22899,445.6685 227.03701,448.97257 C 226.25899,462.51219 221.30793,470.44399 212.05249,480.3461 C 201.64517,491.44051 192.26847,495.20937 177.34465,498.08907 C 168.96819,499.72595 164.21922,499.80678 155.46899,498.85699 C 130.72381,496.16927 115.0522,491.58197 96.096732,475.45567 C 76.908863,459.13739 66.986543,444.73891 63.298511,419.82196 C 62.207258,412.40548 61.247359,407.66662 62.631634,400.62399 C 63.763385,394.83429 63.24799,391.4999 67.481648,389.10521" id="path121" style="fill: rgb(35, 31, 32); fill-opacity: 1; fill-rule: nonzero; stroke: none;"/>
    <path d="M 223.71273,242.50343 C 229.54285,244.06958 233.7664,246.60573 235.65589,252.33481 C 236.75725,255.73992 235.58516,261.50942 235.58516,261.50942 C 235.58516,261.50942 229.98744,253.38564 224.86461,250.04116 C 219.35782,246.44406 208.85964,244.75666 208.85964,244.75666 C 208.85964,244.75666 218.06448,240.97769 223.71273,242.50343" id="path123" style="fill: rgb(255, 255, 255); fill-opacity: 1; fill-rule: nonzero; stroke: none;"/>
    <path d="M 234.60505,235.9458 C 239.75819,237.34018 243.51695,239.59342 245.18415,244.67583 C 246.16433,247.69698 245.13363,252.81981 245.13363,252.81981 C 245.13363,252.81981 240.17247,245.60541 235.61547,242.63478 C 230.73515,239.44185 221.40897,237.94643 221.40897,237.94643 C 221.40897,237.94643 229.57324,234.59184 234.60505,235.9458" id="path125" style="fill: rgb(255, 255, 255); fill-opacity: 1; fill-rule: nonzero; stroke: none;"/>
    <path d="M 243.09258,230.97454 C 247.4778,232.16683 250.66062,234.07653 252.0651,238.38091 C 252.90375,240.93727 252.01466,245.29218 252.01466,245.29218 C 252.01466,245.29218 247.82134,239.16904 243.95152,236.6531 C 239.81882,233.95528 231.90731,232.68215 231.90731,232.68215 C 231.90731,232.68215 238.83879,229.83276 243.09258,230.97454" id="path127" style="fill: rgb(255, 255, 255); fill-opacity: 1; fill-rule: nonzero; stroke: none;"/>
    <path d="M 249.69062,225.53848 C 253.4898,226.559 256.24824,228.20599 257.46074,231.94454 C 258.18825,234.16746 257.42041,237.92622 257.42041,237.92622 C 257.42041,237.92622 253.77271,232.63163 250.43833,230.44912 C 246.85134,228.10495 240.01088,227.00359 240.01088,227.00359 C 240.01088,227.00359 246.00259,224.53816 249.69062,225.53848" id="path129" style="fill: rgb(255, 255, 255); fill-opacity: 1; fill-rule: nonzero; stroke: none;"/>
    <path d="M 253.45948,219.20315 C 256.78376,219.85992 258.51158,221.54732 260.4819,224.30577 C 261.65399,225.95275 260.80523,229.49932 260.80523,229.49932 C 260.80523,229.49932 257.41022,225.07369 254.38915,223.4267 C 251.15573,221.67868 245.26498,221.07243 245.26498,221.07243 C 245.26498,221.07243 250.23624,218.57669 253.45948,219.20315" id="path131" style="fill: rgb(255, 255, 255); fill-opacity: 1; fill-rule: nonzero; stroke: none;"/>
    <path d="M 255.93501,214.35313 C 258.8552,214.5148 260.55263,215.75762 262.55326,217.8896 C 263.79608,219.21325 263.54347,222.4466 263.54347,222.4466 C 263.54347,222.4466 260.09794,219.00106 257.29916,217.96033 C 254.34873,216.86908 249.28645,217.13179 249.28645,217.13179 C 249.28645,217.13179 253.13615,214.20157 255.93501,214.35313" id="path133" style="fill: rgb(255, 255, 255); fill-opacity: 1; fill-rule: nonzero; stroke: none;"/>
    <path d="M 283.70134,164.74153 C 287.28833,165.92372 289.00605,167.99508 290.84501,171.29915 C 291.93626,173.26947 290.50147,177.03834 290.50147,177.03834 C 290.50147,177.03834 287.2581,171.77405 284.16614,169.51071 C 280.84185,167.0756 274.31454,165.67112 274.31454,165.67112 C 274.31454,165.67112 280.20529,163.60986 283.70134,164.74153" id="path135" style="fill: rgb(255, 255, 255); fill-opacity: 1; fill-rule: nonzero; stroke: none;"/>
    <path d="M 294.24002,155.65786 C 296.41242,156.7087 297.37232,158.13339 298.27159,160.37652 C 298.80712,161.71027 297.60472,163.99382 297.60472,163.99382 C 297.60472,163.99382 295.98804,160.36641 294.16929,158.71943 C 292.20908,156.9512 288.20781,155.5164 288.20781,155.5164 C 288.20781,155.5164 292.12824,154.63734 294.24002,155.65786" id="path137" style="fill: rgb(255, 255, 255); fill-opacity: 1; fill-rule: nonzero; stroke: none;"/>
    <path d="M 288.59177,160.04308 C 291.45126,161.01308 292.84564,162.63986 294.31075,165.28716 C 295.1696,166.86341 294.03793,169.88457 294.03793,169.88457 C 294.03793,169.88457 291.48157,165.6206 288.96563,163.85236 C 286.26781,161.95277 281.09446,160.78069 281.09446,160.78069 C 281.09446,160.78069 285.80302,159.09329 288.59177,160.04308" id="path139" style="fill: rgb(255, 255, 255); fill-opacity: 1; fill-rule: nonzero; stroke: none;"/>
    <path d="M 299.16076,152.3942 C 300.83806,153.3541 301.52514,154.5464 302.11127,156.38536 C 302.46483,157.47661 301.38369,159.23474 301.38369,159.23474 C 301.38369,159.23474 300.29243,156.2439 298.92837,154.82931 C 297.46326,153.31369 294.35117,151.93951 294.35117,151.93951 C 294.35117,151.93951 297.53399,151.45451 299.16076,152.3942" id="path141" style="fill: rgb(255, 255, 255); fill-opacity: 1; fill-rule: nonzero; stroke: none;"/>
    <path d="M 303.52578,151.1716 C 304.7989,152.05066 305.25359,153.05098 305.60724,154.5565 C 305.80932,155.45578 304.80909,156.77942 304.80909,156.77942 C 304.80909,156.77942 304.15232,154.32411 303.17213,153.09139 C 302.11127,151.77785 299.71649,150.47441 299.71649,150.47441 C 299.71649,150.47441 302.28304,150.31274 303.52578,151.1716" id="path143" style="fill: rgb(255, 255, 255); fill-opacity: 1; fill-rule: nonzero; stroke: none;"/>
    <path d="M 276.1232,171.79426 C 279.87185,172.25905 281.95332,173.95656 284.37832,176.86657 C 285.81312,178.58428 285.14632,182.56533 285.14632,182.56533 C 285.14632,182.56533 280.953,177.99824 277.48726,176.37146 C 273.75881,174.62344 267.07994,174.49208 267.07994,174.49208 C 267.07994,174.49208 272.47558,171.33957 276.1232,171.79426" id="path145" style="fill: rgb(255, 255, 255); fill-opacity: 1; fill-rule: nonzero; stroke: none;"/>
    <path d="M 306.73891,149.70649 C 307.74933,150.41378 308.11316,151.21201 308.38589,152.41441 C 308.55766,153.13181 307.75951,154.19275 307.75951,154.19275 C 307.75951,154.19275 307.24412,152.23254 306.44589,151.25243 C 305.60724,150.19149 303.68744,149.15076 303.68744,149.15076 C 303.68744,149.15076 305.73859,149.0194 306.73891,149.70649" id="path147" style="fill: rgb(255, 255, 255); fill-opacity: 1; fill-rule: nonzero; stroke: none;"/>
  </g>
</svg>