<?xml version="1.0" encoding="UTF-8" standalone="no"?>
<!-- Created with Inkscape (http://www.inkscape.org/) -->

<svg
   xmlns:dc="http://purl.org/dc/elements/1.1/"
   xmlns:cc="http://creativecommons.org/ns#"
   xmlns:rdf="http://www.w3.org/1999/02/22-rdf-syntax-ns#"
   xmlns:svg="http://www.w3.org/2000/svg"
   xmlns="http://www.w3.org/2000/svg"
   xmlns:sodipodi="http://sodipodi.sourceforge.net/DTD/sodipodi-0.dtd"
   xmlns:inkscape="http://www.inkscape.org/namespaces/inkscape"
   width="210mm"
   height="297mm"
   viewBox="0 0 744.09448819 1052.3622047"
   id="svg2"
   version="1.1"
   inkscape:version="0.91 r13725"
   sodipodi:docname="Tramelan-coat_of_arms.svg">
  <defs
     id="defs4">
    <linearGradient
       id="linearGradient2893">
      <stop
         id="stop2895"
         offset="0"
         style="stop-color:#ffffff;stop-opacity:0.3137255;" />
      <stop
         style="stop-color:#ffffff;stop-opacity:0.25098041;"
         offset="0.19"
         id="stop2897" />
      <stop
         id="stop2901"
         offset="0.60000002"
         style="stop-color:#6b6b6b;stop-opacity:0.1254902;" />
      <stop
         id="stop2899"
         offset="1"
         style="stop-color:#000000;stop-opacity:0.1254902;" />
    </linearGradient>
    <linearGradient
       id="linearGradient2955">
      <stop
         id="stop2965"
         offset="0"
         style="stop-color:white;stop-opacity:0;" />
      <stop
         id="stop2959"
         offset="1"
         style="stop-color:black;stop-opacity:0.64583331;" />
    </linearGradient>
  </defs>
  <sodipodi:namedview
     id="base"
     pagecolor="#ffffff"
     bordercolor="#666666"
     borderopacity="1.0"
     inkscape:pageopacity="0.0"
     inkscape:pageshadow="2"
     inkscape:zoom="0.32789861"
     inkscape:cx="262.29884"
     inkscape:cy="527.77482"
     inkscape:document-units="px"
     inkscape:current-layer="layer1"
     showgrid="false"
     inkscape:window-width="1280"
     inkscape:window-height="657"
     inkscape:window-x="-8"
     inkscape:window-y="-8"
     inkscape:window-maximized="1" />
  <metadata
     id="metadata7">
    <rdf:RDF>
      <cc:Work
         rdf:about="">
        <dc:format>image/svg+xml</dc:format>
        <dc:type
           rdf:resource="http://purl.org/dc/dcmitype/StillImage" />
        <dc:title></dc:title>
      </cc:Work>
    </rdf:RDF>
  </metadata>
  <g
     inkscape:label="Ebene 1"
     inkscape:groupmode="layer"
     id="layer1">
    <g
       id="g3400">
      <g
         transform="translate(86.736619,105.24509)"
         inkscape:label="Fond écu"
         id="layer1-7">
        <path
           style="fill:#e20909;fill-opacity:1"
           d="m 1.5,1.49998 0,458.86792 C 1.5,626.6785 135.81456,761.5 301.49999,761.5 467.18543,761.5 601.5,626.6785 601.5,460.3679 l 0,-458.86792 -600,0 z"
           id="path1899"
           inkscape:connector-curvature="0" />
      </g>
      <g
         transform="translate(86.736619,105.24509)"
         inkscape:label="Meubles"
         id="layer2">
        <path
           sodipodi:nodetypes="cccccc"
           id="path18126"
           d="m 435.17937,1.7165503 166.52543,0 -0.38497,179.5363197 -493.8557,508.19072 C 37.986777,632.37445 -2.5224366,538.01867 1.9740194,453.76944 L 435.17937,1.7165503 Z"
           style="fill:#ffffff;fill-opacity:1;fill-rule:evenodd;stroke:#000000;stroke-width:3.94803882px;stroke-linecap:butt;stroke-linejoin:miter;stroke-opacity:1"
           inkscape:connector-curvature="0" />
        <g
           style="fill:#e20909;fill-opacity:1;stroke:#000000;stroke-opacity:1"
           transform="matrix(4.188567,0,0,4.188567,-2615.619,-2406.065)"
           id="g20797">
          <path
             style="fill:#e20909;fill-opacity:1;fill-rule:evenodd;stroke:#000000;stroke-width:1px;stroke-linecap:butt;stroke-linejoin:miter;stroke-opacity:1"
             d="m 732.8041,598.73197 c -15.61335,-8.70495 -32.78756,4.18157 -20.56209,22.6125 6.55745,9.8859 16.18316,11.36833 22.75799,21.65553 4.29783,-13.80926 28.93685,-22.80585 26.00298,-39.98432 -2.90373,-17.00198 -19.11554,-18.58467 -28.19888,-4.28371 z"
             id="path19906"
             sodipodi:nodetypes="cscsc"
             inkscape:connector-curvature="0" />
          <path
             sodipodi:nodetypes="cscsc"
             id="path20793"
             d="m 693.74859,637.5 c -15.61335,-8.70495 -27.17783,2.75612 -23.48995,17.85472 3.54602,14.51784 20.20897,16.85808 23.85593,29.34118 6.85971,-14.17524 30.0348,-22.43987 27.10093,-39.61834 -2.90373,-17.00198 -18.38357,-21.87852 -27.46691,-7.57756 z"
             style="fill:#e20909;fill-opacity:1;fill-rule:evenodd;stroke:#000000;stroke-width:1px;stroke-linecap:butt;stroke-linejoin:miter;stroke-opacity:1"
             inkscape:connector-curvature="0" />
          <path
             style="fill:#e20909;fill-opacity:1;fill-rule:evenodd;stroke:#000000;stroke-width:1px;stroke-linecap:butt;stroke-linejoin:miter;stroke-opacity:1"
             d="m 653.58202,678.23196 c -15.61335,-8.70495 -25.25174,2.2847 -22.02602,17.48874 3.54602,16.71374 17.28111,17.22406 22.75798,29.34118 6.85971,-14.17524 30.76677,-18.41406 27.8329,-42.18022 -2.1132,-17.11822 -19.48152,-18.95066 -28.56486,-4.6497 z"
             id="path20795"
             sodipodi:nodetypes="cscsc"
             inkscape:connector-curvature="0" />
        </g>
        <path
           sodipodi:nodetypes="ccccccccccccc"
           id="rect19013"
           d="m 1.21875,2.71875 c -2.4510718,73.870085 2.9336464,544.41628 0.75,451.0625 l 67.912189,-70.86788 c 76.643751,18.13109 43.466691,158.89185 54.967731,243.59047 9.4877,-103.80339 44.48906,-263.04168 -24.49298,-275.39155 L 225.6574,220.35716 c 90.47542,7.14416 51.04679,163.02467 66.06748,235.53361 10.26977,-72.53666 40.29221,-269.08861 -35.68316,-267.24032 L 369.3885,70.370562 c 109.46454,3.354982 74.62802,138.855808 94.02,215.333668 3.21977,-83.14073 34.65514,-242.067968 -59.3294,-251.534079 l 30.13965,-31.451401 -433,0 z"
           style="opacity:1;fill:#e20909;fill-opacity:1;fill-rule:evenodd;stroke:#000000;stroke-width:3;stroke-miterlimit:4;stroke-dasharray:none;stroke-opacity:1"
           inkscape:connector-curvature="0" />
      </g>
      <g
         transform="translate(86.736619,105.24509)"
         style="display:inline"
         inkscape:label="Contour final"
         id="layer4">
        <path
           id="path3239"
           d="m 1.5,1.5 0,458.86794 C 1.5,626.67854 135.81454,761.5 301.49993,761.5 467.1854,761.5 601.5,626.67854 601.5,460.36794 L 601.5,1.5 1.5,1.5 Z"
           style="fill:none;fill-opacity:1;stroke:#000000;stroke-width:3;stroke-miterlimit:4;stroke-dasharray:none;stroke-opacity:1"
           inkscape:connector-curvature="0" />
      </g>
    </g>
  </g>
</svg>
