<?xml version="1.0" encoding="UTF-8"?>
<!-- Created with Inkscape (http://www.inkscape.org/) -->
<svg id="d" width="209.39" height="245.27" version="1.0" xmlns="http://www.w3.org/2000/svg" xmlns:xlink="http://www.w3.org/1999/xlink">
 <path d="m1 1 3.7707 158.41c2.6934 113.15 197.15 113.15 199.85 0l3.7707-158.41z" fill="#fff" stroke="#000" stroke-width="2"/>
 <g id="a" fill="#1c5ab7" stroke="#000" stroke-linejoin="round" stroke-width=".99921">
  <path d="m87.556 44.194c-6.306-4.3595-10.944-5.6488-21.747-4.5847-4.5785 0.451-9.2875-1.7029-11.991-4.5847 1.3785 3.3039 2.0899 12.438 15.694 9.2575 5.4299-1.2696 10.56-1.5442 18.044-0.08817z"/>
  <path d="m62.653 21.638c-4.0097 2.4622-7.46 5.1361-2.928 10.83 6.4221-8.5917 16.46 3.9816 24.863 10.58-4.2613-0.91007-8.2107 2.5467-12.255 4.6728 5.5511 0.30663 11.682-1.9948 15.47 6.2445-3.359-12.878-2.5795-25.1-25.15-32.328z"/>
 </g>
 <g id="c" stroke="#000" stroke-linejoin="round" stroke-width=".99921">
  <path d="m68.693 180.59c5.3541-0.0339 3.2206 6.0988-1.4741 11.814 0.3369-3.0834 1.4987-6.9092-0.35267-8.0232z" fill="#b30f18"/>
  <path d="m43.062 164.54c0.35308-10.762-9.458-5.38-13.313-0.61717 5.5227-1.6736 8.3182-1.529 8.9048 0.0882z" fill="#b30f18"/>
  <path d="m52.319 173.36c-4.743-1.923-9.1873-4.1246-9.2575-7.1415-0.0412-1.7716 0.90564-3.6808-0.88166-4.1438-4.4563-1.1545-6.4428 1.8919-7.5823 4.1438-0.44271 0.8749-0.02242 2.7671 2.645 3.3503 2.5267 0.55247 5.819 4.5847 10.051 6.0835z" fill="#b30f18"/>
  <path d="m26.839 171.59c-4.0945-0.12374-7.8926 3.199-4.4083 11.991 0.27129-3.5919 0.6734-6.4644 3.8793-7.0533z" fill="#b30f18"/>
  <path d="m32.217 185.97c-2.6817 1.7414-5.5996 6.7741 0 13.578 0.40461-3.2678-1.285-8.2603 2.7332-8.5522z" fill="#b30f18"/>
  <path d="m76.124 161.1c-5.3908 4.1606-10.962 8.1413-16.223 12.431-1.8936 1.5442-0.66552 3.5469 0.35267 4.0557 2.3492 1.1738 8.4393 1.0638 9.9628 3.4385 0.88047 1.3723-0.4831 3.7173-1.9397 4.232-2.3013 0.81312-6.2001 2.6084-6.6125-1.2343-0.13023-1.2134 0.46435-2.0526-2.9095-2.2923-2.1442-0.15237-2.6981-1.8999-4.9373-3.703-1.8507 5.1442-5.8968 3.0066-6.5243 6.1717-0.61432 3.0986-4.9711 0.97741-4.8492 3.6148 0.04997 1.0811-2.8693 0.57146-2.9095 2.9095-0.03643 2.1197-2.2963 2.9801-3.8793 2.3805-2.1234-0.80426-4.3023-2.1853-4.5847-4.4965-0.22486-1.8408 0.38278-2.8028 3.4385-3.4385 5.7343-1.193 9.9519-4.9776 14.459-7.935-6.0253 4.1663-10.899 2.6935-14.812 1.9594-1.6254-0.30488-3.0004-1.3058-3.703 0-0.99866 1.8562-2.6538 1.7601-4.232-0.28427-1.0918-1.4143-1.7054-3.004-1.8515-4.3202-0.33929-3.0573 3.4224-3.5718 4.4083-2.8213 3.3478 2.5484 11.92 6.5117 20.543 1.4988 8.6749-5.043 16.266-12.294 24.158-19.044z" fill="#b30f18"/>
  <path d="m95.256 136.24c-6.0703 10.832-11.774 22.107-19.22 32.71-1.7267-5.1498-3.2466-10.427-7.935-13.754 8.0314-13.444 13.752-24.947 19.22-39.322z" fill="#1c5ab7"/>
  <path d="m60.533 69.143c-16.9-8.3748-39.716-17.652-46.259-28.678-0.3238-0.54568-1.1063-0.6115-1.3716 0-8.2148 18.935 16.438 27.373 40.536 33.817-12.627-0.0624-35.355-2.0021-40.751-9.9241-0.35721-0.52441-1.2454-0.65452-1.3716 0-4.6 23.961 19.7 17.586 39.172 20.971-9.6068 1.9938-34.303 7.8304-38.637 1.9784-0.76205-1.0288-1.0299 0.2562-1.058 1.058-0.78111 22.202 28.705 7.8569 42.232 3.2622-11.217 7.3576-25.301 18.973-39.058 20.19-1.508 0.13341-1.6058 1.0687-1.2343 2.0278 7.5575 19.516 29.814-1.7782 45.67-16.311-9.3817 14.845-27.363 39.583-36.413 37.559-1.6037-0.35867-1.34 1.2133-0.88167 2.2042 9.7881 21.163 29.869-7.063 44.789-35.796-2.2962 11.755-10.732 39.285-22.306 46.728-1.912 1.2296-2.7139 2.1629-1.1462 3.2622 20.286 14.223 31.034-33.83 34.473-45.494-14.846-7.144-28.076-15.173-16.384-36.856z" fill="#1c5ab7"/>
  <path d="m84.598 108.92c-43.792 12.578-60.527-42.26-20.698-42.019-28.4-14.904-51.839-32.445-43.89-46.383 0.42907-0.75231 1.2258-1.9514 2.7431 0 15.928 20.487 35.871 26.012 51.246 41.271 7.5301 7.4729 3.3585 18.63-6.8577 19.202-12.994 0.72752-8.2728 9.6861-4.6134 12.095 7.3362 4.8285 11.065-4.4027 18.828-3.0922z" fill="#1c5ab7"/>
 </g>
 <use transform="matrix(-1 0 0 1 209.39 0)" xlink:href="#a"/>
 <use transform="matrix(-1 0 0 1 209.39 0)" xlink:href="#c"/>
 <path d="m104.69 68.52c-5e-3 -12.227 4.3309-23.511 9.6234-34.413-2.7218 0.66332-5.0789 2.0559-7.4812 3.3583 3.0449-4.8094 6.3335-9.4157 11.346-12.585-2.4106-0.38372-4.8212-0.14321-7.2318 0.12469 12.153-9.5901 28.656-15.548 35.785-3.3665-17.997 8.3678-26.816 31.102-31.66 57.584-0.31029 1.6966-0.60427 3.4086-0.8833 5.1331 0.27903-1.7246 0.57301-3.4365 0.8833-5.1331 24.327-1.4272 12.405 33.022 2.459 53.513-1.6969 3.496-1.9492 7.5733-3.0929 10.472-7.4398 18.857-3.779 38.802 7.7875 32.119 0.76681-0.44304 2.095-0.78823 2.3121-0.0743 0.95065 3.1253 2.7958 13.335-11.222 9.7255 11.771 15.47 47.72 18.526 27.376 43.141 4.5524-8.7462-1.5094-17.022-4.184-11.72-0.77044 1.5272-4.1195 2.351-5.8603 1.3715-10.744-6.0453-17.377-14.692-23.192-28.802 0.67449 15.991 11.493 24.497-2.7656 47.879-14.258-23.382-3.4401-31.889-2.7656-47.879-5.8147 14.111-12.448 22.757-23.192 28.802-1.7407 0.9795-5.0898 0.1557-5.8603-1.3715-2.6745-5.3016-8.7364 2.9743-4.184 11.72-20.345-24.615 15.605-27.671 27.376-43.141-14.018 3.6095-12.172-6.6003-11.222-9.7255 0.21715-0.71389 1.5453-0.3687 2.3121 0.0743 11.566 6.6828 15.227-13.261 7.7875-32.119-1.1437-2.8988-1.396-6.9762-3.0929-10.472-9.9463-20.491-21.868-54.94 2.459-53.513 0.31029 1.6966 0.60427 3.4086 0.8833 5.1331-0.27903-1.7246-0.57301-3.4365-0.8833-5.1331-4.8434-26.482-13.663-49.216-31.66-57.584 7.129-12.181 23.632-6.2236 35.785 3.3665-2.4106-0.2679-4.8212-0.50841-7.2318-0.12469 5.0129 3.1694 8.3015 7.7757 11.346 12.585-2.4022-1.3024-4.7594-2.695-7.4812-3.3583 5.2925 10.903 9.6283 22.186 9.6234 34.413z" fill="#1c5ab7" stroke="#000" stroke-linejoin="round" stroke-width=".99921"/>
 <g id="b">
  <path d="m82.648 18.45c-4.7473 0.12503-9.8562 0.82864-16.928 4.6728" fill="none" stroke="#000" stroke-linecap="round" stroke-width="1px"/>
  <ellipse cx="76.08" cy="22.153" rx="3.6589" ry="2.9095" fill="#fff" stroke="#000" stroke-width="1px"/>
  <circle cx="75.948" cy="20.918" r="1.5228"/>
 </g>
 <use transform="matrix(-1 0 0 1 209.39 0)" xlink:href="#b"/>
</svg>
