<?xml version="1.0" encoding="UTF-8"?>
<svg width="500" height="571" xmlns="http://www.w3.org/2000/svg">
<path d="m0 0h500v254.94c-0.46 6.0839-0.51 12.168-0.93 18.262-3.31 49.272-17.99 97.773-42.51 140.63-17.53 30.8-40.16 58.868-66.53 82.533-38.94 35.153-86.3 60.789-137.02 74.128-2.23 0.64041-3.81 0.69044-6.03 0.02-51.43-13.479-99.39-39.666-138.65-75.519-43.21-39.245-75.78-90.038-93.2-145.78a329.25 329.46 0 0 1-13.77-69.045c-0.67-7.2947-0.85-14.609-1.36-21.914z" stroke-width="1"/>
<path d="m335.19 8.572c-2.725-5e-3 -5.45 0.028-8.19 0.018h-299c-6.45 0.01-12.89-0.07-19.34 0.09-0.08 2.77-0.15 5.55-0.17 8.32 0.02 80 0 160 0.02 240-0.1 4.37 0.7 8.64 0.88 12.98 0.2 9.68 1.5 19.36 2.92 28.93 3.55 23.65 9.91 46.761 18.62 69.02 9.65-4.42 18.73-9.15 26.66-16.33 8.27-7.52 15.69-15.91 21.63-25.4 0.87-1.44 1.29-2.99 1.77-4.58-2.96-1.85-7.13-3.62-8.47-7.06-4.1-9.79-7.56-19.95-11.19-29.93-2.32-6.49-2.87-13.98-0.13-20.44 3.98-9.8 9.62-17.94 14.83-27.06 1.23-2.14 2.87-3.91 5.27-4.71 5.4-1.89 11.95-0.28 17.53 0.27 6.52 0.95 13.03 1.13 19.61 1.01-6.42-10.21-15.91-20.33-21.66-31.43-1.93-3.54-2.7-9.6-6.13-11.919-2.4-0.29-5.07 1.12-7.19 2.13-3.44 1.79-7.5 4.31-8.62 8.27-0.8 3.9-0.27 8.19-0.17 12.15-3.69 0.04-6.96-0.3-10.43-1.59 0.94 2.43 2 4.96 2.47 7.53-3.03 2.56-8.58 0.76-12.22 0.52 1.34 1.75 2.9 2.74 4.87 3.69 1.09 4.24 1.629 8.46 0.729 12.8-1.61 2.13-4.83 3.18-7.15 4.38-5.32 2.23-9.58 5.09-15.379 5.81-1.89-7.25-0.97-15.3 1.09-22.41 0.93-3.18 2.98-5.47 5.23-7.78-0.29-3.77-0.88-7.47-1.63-11.17 3.88-4.11 9.11-5.53 13.43-8.99 6.89-5.24 13.4-10.431 21.35-14.041 6.42-2.54 6.52-9.63 13.14-11.71 4.82-1.09 9.68 2.86 13.15 5.75 10.57 9.12 20.781 18.69 30.781 28.42 9.7-9.72 20.82-17.46 29.95-27.9 11.33-12.08 18.06-29.69 15.86-46.26-5.1 1.31-9.55 3.01-14.95 2.26-4.57-0.37-10.03-2.74-14.5-1.68-4.45 2.88-6.98 7.2-12.41 8.88-5.55 2.11-10.24 0.32-15.53-1.42-2.13 4.91-3.989 10.15-6.879 14.67-3.47 4.8-10.31 7.08-15.79 8.54-4.42 1.1-8.47 3-12.53 5.01 0.72-2.7 1.49-5.39 2.39-8.04a90.912 90.912 0 0 1-14.59 14.03c-4.94 3.85-11.89 6.18-18.1 4.58-1.33-0.26-2.651-0.57-3.971-0.88 4.28-3.22 7.79-6.43 9.96-11.46-6.04 3.61-11.8 6.77-19 7.27-4.51 0.44-8.81-0.42-13.11-1.72 3.92-1.83 7.63-3.28 10.96-6.13 4.04-3.32 5.902-7.82 9.632-11.35 2.53-2.43 5.4-4.25 8.4-6.03-3.67-0.87-7.42-1.68-10.66-3.69-2.17-1.33-3.972-3.34-5.752-5.16 3.18-0.07 6.15 0 9.24-0.91 3.56-0.99 6.74-2.97 10.26-3.98 5.12-1.21 10.11-0.13 15.12 0.96-1.22-4.38-3.85-7.73-6.46-11.34 3.64-0.09 7.141-0.13 10.582 1.22 7.81 2.52 14.02 8.3 22.54 7.66-0.73-3.19-0.98-6-0.5-9.27-0.89-1.56-1.92-3.19-2.53-4.88-0.13-1.81 0.41-3.69 0.73-5.47 3.75-1.82 7.44-3.07 10.56-5.77 4.44-3.86 9.07-7.48 13.74-11.05 4.31-3.24 8.73-6.22 12.57-10.05 0.33-2.29 0.7-4.569 1.13-6.839-2.99-2.45-6.18-4.57-8.97-7.26-2.15-0.08-4.39-0.04-6.5-0.48-1.96-0.83-3.67-2.49-5.32-3.83-2.23-0.12-4.85 0.05-6.94-0.8-2.18-0.93-4.2-2.581-6.09-4.011-2.45-0.05-5.15 0.201-7.51-0.479-2.34-0.95-4.37-3.02-6.27-4.65-2.66-0.12-5.46 0.06-7.95-0.98-1.97-0.86-3.76-2.43-5.44-3.75-2.61-0.13-5.58-0.04-8.02-0.98-2.83-1.05-4.85-2.87-7.15-4.73-3.54-0.27-6.75-0.3-9.82-2.35-3.14-1.83-4.71-4.7-8.47-4.9-4.2-0.3-8.16-3.25-11.65-5.48-0.67-1.72 1.52-1.75 2.62-2.3 3.49-0.9 6.46 0.16 9.66 1.44 3.26 1.54 6.84 0.329 10.42 1.179 1.59 0.76 3.079 1.871 4.539 2.881 2.12 0.1 4.32 0.09 6.41 0.5 2.64 0.62 4.88 2.33 7.33 3.17 2.55 0.32 5.17-0.01 7.72 0.34 2.46 0.52 4.67 2.31 7.04 3.08 2.71 0.46 5.69 0.31 8.34 1.06 2 0.69 3.9 1.94 5.71 3.03 2.29-0.01 4.66-0.14 6.93 0.18 2.71 0.55 5.32 2.38 7.71 3.73 2.11 0.04 4.34-0.12 6.42 0.3 2.02 0.57 3.79 2.4 5.38 3.72 2.63-0.05 5.38-0.29 7.99 0.1 1.82 0.42 3.48 1.75 5.07 2.7 4.62-0.05 8.63 2.06 13.23 2.16 2.16-0.12 3.12 1.85 4.51 3.2 1.93-6.19 5.47-11.55 7.63-17.61 3.45 2.18 6.94 4.65 10.73 6.2 2.54 1.15 5.97-0.36 8.56-0.9 14.58-4 31.26-0.63 42.45 9.73-3.29 0.32-5.27 0.95-7.94 2.85 9.84 1.61 19.83 5.3 27.82 11.35 7.12 5.3 11.39 14.35 12.19 23.06-4.62-3.15-9.27-5.96-14.26-8.48 4.57 4.62 8.61 9.881 12.29 15.24 1.92 2.78 3.1 5.86 4.23 9.02 4.24-1.95 7.56-4.98 10.96-8.09 8.8-8.29 17.3-17.84 22.97-28.58 6.02-11.12 8.12-22.92 14.58-33.87 5.36-9.71 12.481-17.92 20.341-25.69 3.11-3.16 6.7-5.609 9.44-9.149-2.74-0.16-5.466-0.203-8.19-0.208zm156.13 154c-4.1 2.33-6.41 5.91-9.33 9.44-4.11 5.19-7.88 10.88-10.6 16.92-3.66 7.81-5.79 16.16-9.52 23.96-4.47 9.69-10.75 18.208-17.87 26.108-5.52 5.89-11.12 11.59-17.77 16.22-10.4 7.78-22.52 11.22-32.9 19.1-5.26 4.08-10.23 8.39-14.53 13.48-6.67 7.35-12.62 15.28-16.64 24.4-1.76 3.73-0.58 6.99-0.04 10.83 1.16 6.29 1.92 12.62 2.72 18.96 0.85 7.08 4 14.06 9.58 18.62 1.42 1.23 3.88 1.6 5.2 0.04 3.53-2.96 2.43-9.16 0.19-12.61-5.28-9.04-11.9-18.06-11.71-29.04-0.39-7.2 2.23-14.36 7.81-19.05 0.81 3.52 1.83 6.93 3.25 10.26 1.94-5.72 3.23-11.07 7.34-15.728 3.82-4.44 9.44-8.821 15.49-9.211 3.48-0.38 6.599 0.52 9.909 1.44-3.52 4.95-6.68 9.8-7.77 15.89-0.9 3.94-0.21 7.661 0.67 11.5 3.72-2.8 7.48-5.28 11.95-6.73-1.89 8.15-3.46 16.18-3.56 24.58 2.73-2.29 5.21-3.76 8.56-4.99-0.44 4.78-1.38 9.24-0.48 14.05 0.53 6.08 4.17 10.91 4.48 16.92 0.44 7.36 0.141 14.739-1.399 21.959 3.96-1.65 7.779-3.52 11.549-5.56-2.22 8.11-6.34 15.33-12.829 20.76-12.23 10.53-29.24 14.02-45.01 13.83 4.34 4.6 10.08 6.281 15 9.951a40.133 40.133 0 0 1-20.971 3.52c-9.65-1.16-18.39-7.391-22.27-16.37-3.58-8.71-1.87-19.74-6.28-28.06-4.8 2.03-6.419 6.74-8.839 10.99-2.71-8.83-1.051-19.14 1.099-27.94-4.39 4.59-8.78 9.08-13.79 13.02-3.92 3.22-8.209 5.81-12.35 8.73-1.69 8.22-1.06 16.25 1.52 24.2 2.05 5.23 6.11 9.87 10.06 13.79 3.8 3.71 8.261 6.58 13.75 6.56 4.94-0.18 10.07-1.79 14.77-3.21-0.61 3.56-1.559 6.94-3.879 9.81-2.76 3.69-6.57 5.73-10.75 7.44 3.35 0.14 6.7 0.36 10.03 0.66-2.61 5.99-7.89 8.56-13.91 10.14 0.05 1.12 0.101 2.24 0.161 3.37 3.49 1.2 7.03 2.04 10.66 2.72-1.83 2.85-3.55 5.52-6.42 7.44-3.69 2.47-8.35 3.74-12.59 4.89-4.06 1.14-7.79 1.4-10.89 4.6-2.68 2.9-5.6 5.89-7.63 9.29-0.95 3.78 0.8 7.57 1.76 11.16 1.13 4.16 0.68 8.32-0.88 12.31-11.32-2.53-23.47-0.55-34.88-2.49-0.26-1.73-0.82-3.64-0.36-5.35 1.84-7.26 5.33-13.91 11.45-18.45 6.62-5.37 14.18-5.74 20.07-11.93 6.53-6.52 8.21-14.9 10.37-23.53 0.38-2.78 1.59-6.2-0.9-8.32-6.12-6.34-12.65-11.99-19.21-17.8-5.56-5.27-11.53-9.98-18.22-13.77-3.61 3.53-7.2 7.28-10.03 11.48-0.41 0.61-0.551 1.28-0.421 2.01 2.37 3.59 6.72 6.33 6.51 11.109-4.7 1.42-10.16 0.68-15.04 0.8-4.82 9.18-6.92 19.14-11.71 28.35-6.21 12.45-15.31 23.15-25.48 32.55-7.36 7.06-16.13 12.25-25.25 16.7-9.56 4.56-18.37 9.9-25.59 17.77 12.13 7.73 25.31 14.03 38.49 19.76 13.29 5.6 26.91 10.4 40.81 14.22 1.88 0.49 3.72 0.85 5.66 0.5 76.42-20.06 144.2-69.42 187.23-135.62 29.85-45.42 47.861-98.688 51.541-152.92-0.03-6.04 1.16-11.95 0.99-18-0.08-30.8 0.18-61.63-0.13-92.43zm-400.82 88.805c-2.4-0.13-4.505 2.57-5.977 4.146-3.55 4.46-7.35 10.56-7.02 16.46 0.09 3.48 2.29 6.49 5.07 8.41 2.73 1.88 6.38 2.58 9.55 3.4-0.54 2.6-1.48 4.76-2.82 7.04 1.4 0.69 2.791 1.369 4.191 2.059 3.47-6.7 7.63-13.12 12.44-18.93 3.02-3.75 6.43-7.14 9.41-10.91-5.18-2.58-10.34-5.19-15.42-7.96-2.79-1.41-5.82-3.159-8.94-3.649a3.086 3.086 0 0 0-0.484-0.066zm-4.87 49.928c-0.852 4e-3 -1.703 0.025-2.546 0.078 0.54 3.7 1.09 4.55 4.64 5.79 0.72-1.93 1.44-3.86 2.16-5.8-1.407-0.032-2.832-0.074-4.253-0.068z" fill="#f00000"/>
<path d="m359.58 9.72c2.06-1.21 4.13-0.95 6.42-1.01 9.03 0.07 18.06 0 27.09 0.05-3.83 2.72-7.75 5.33-11.87 7.6-8.95 5.02-17.79 8.33-25.76 15.09-7.11 6.07-13.65 13.39-18.75 21.23-5.81 8.99-7.87 18.41-12.08 28.09-2.15 4.94-4.57 9.83-7.49 14.36-1.1 1.82-2.81 2.46-4.59 3.43-5.68 2.85-11.5 6.46-15.84 11.15-4.66 4.97-7.19 11.25-8.08 17.94-8.09 6.94-17.28 11.95-26.78 16.67-1.05-5.67-3.15-10.56-5.97-15.54 4.61 2.11 7.39 5.14 10.14 9.3 1.24-4.71 1.24-9.42 0.76-14.24 6.06-3.85 11.81-8.07 16.99-13.08 9.3-9.06 17.99-19.49 23.87-31.13 4.83-9.44 7.1-19.65 11.96-29.03 4.63-9.1 11.29-17.32 18.4-24.6 6.32-6.5 13.53-12.08 21.58-16.28z" fill="#fff"/>
<path d="m449.11 8.615c-14.099-3e-3 -28.197 0.01-42.267 0.055-3.6 2.8-6.93 5.91-10.72 8.48-7.19 5.22-14.99 9.09-22.9 13.08-5.18 2.61-10.08 5.66-14.3 9.67-8.08 7.65-15.521 16.08-19.591 26.59-2.5 6.55-4.8 13.18-7.54 19.64 7.17-5.72 13.07-12.37 19.2-19.14 3.64-4.1 7.22-8.14 10.28-12.7 3.64-5.18 6.84-10.65 10.63-15.7 2.44 6.89 3.2 14.239 1.7 21.439-1.12 5.97-3.83 10.83-6.24 16.31 3.16-1.4 6.1-3.12 8.95-5.05 7.62-5.12 15.46-9.609 22.77-15.189 9.27-7.03 18.34-14.331 27.27-21.791 3.12-2.7 6.27-5.37 9.61-7.81 3.23 7.5 4.33 15.79 2.42 23.79-2.31 11.85-10.53 21.03-19.11 29-10.64 9.33-20.25 19.47-30.04 29.69 15.17-10.22 29.97-20.771 45.73-30.081 5.85-3.38 11.56-7.19 17.7-10.02 3.08 8.03 5.44 15.79 2.54 24.31-2.75 7.2-7.24 13.91-12.37 19.63-8.79 9.02-20.28 16.36-30.84 23.18-5.55 3.64-11.04 6.46-15.88 11.09 5.12-0.63 9.55-2.75 14.25-4.7 17.63-7.62 34.94-15.87 52.27-24.12 1.02 7.95-1.168 16.65-4.468 23.89-5.24 11.08-14.461 18.32-25.091 23.92-9.12 5.01-18.5 8.88-28.52 11.7-3.9 1.17-8.22 2.24-11.74 4.31l0.5 1.401c2.73 0.91 5.84 0.91 8.69 1.15 11.64 0.91 23.39 1.12 35.06 0.86 3.14-9.29 7.78-18.12 13.16-26.3 11.04-15.88 24.751-29.75 41.231-39.98-0.03-36.85 0.09-73.711-0.07-110.57-14.075-0.015-28.175-0.033-42.274-0.035zm-160.04 130.25c-2.64 1.37-5.149 2.93-7.619 4.59-5.4 3.44-11.25 6.27-16.98 9.11-1.54 0.89-3.05 1.4-3.6 3.26-1.19 3.17-2.31 6.32-3.91 9.31-1.05-1.85-2.1-3.7-3.15-5.56-0.95 0.73-2.47 1.3-2.97 2.44-0.41 4.26 0.2 8.53-0.48 12.81-0.97 6.07-3.79 11.99-6.64 17.39-1.48-1.38-2.95-2.76-4.42-4.14-2.71 9.15-5.69 18.22-8.36 27.39 8.02 0.25 16.04 0.03 24.06-0.06 6.74-0.11 13.59-1.11 19.73-3.99 6.72-3.04 12.01-7.43 17.72-11.98 2.63-2.14 4.99-4.31 6.49-7.42 2.51-5.74 2.75-11.93 1.57-18.03-0.95-6.39-4.02-11.26-6.24-17.21-2.3-5.83-4.111-11.73-5.201-17.91zm134.88 72.57c-6.33 0.84-12.571 2.02-18.961 2.3-6.06 0.59-12.149 0.4-18.209 1.07 8.71 3.55 18.17 5.36 27.27 7.65 3.43-3.56 6.77-7.19 9.9-11.02zm-65.941 48.28-6.44-2.79c2.84 2.916 2.285 3.365 5.942 5.938l2.26-2.188zm-35.06 3.6c3.34 8.19 9.42 15.41 13.301 23.03-11.28 1.13-20.631-2.96-30.731-7.23 0.37 1.52 0.75 3.04 1.13 4.56-5.42 1.4-10.56 2.48-16.2 1.64-5.81-1.2-8.71-5.2-14.15-7.79-0.08 2.12-0.14 4.25-0.18 6.37-3.47-0.07-6.919-0.3-10.37-0.6 4.42 2.53 9 4.53 14.1 5.12 6.65 0.74 13.52 0.4 20.16-0.37 3.62-0.37 7.25-0.15 10.58 1.43 2.59 1.14 4.41 2.72 7.42 2.05 6.07-0.99 11.79-1.37 17.94-0.94 2.77-5.07 6.13-9.73 9.26-14.57-3.77-1.52-7.56-2.94-11.07-5.02-3.95-2.3-7.29-5.3-11.19-7.68zm-180.84 20.84c-2.27 1.71-4.28 3.7-6.17 5.8-4.95 5.42-9.851 11.39-12.91 18.1-3.28 7.06-5.25 14.6-8.48 21.71-4.73 10.88-11.17 20.91-18.84 29.95-9.39 11.12-20.409 21.56-32.969 29.04-5.79 3.51-11.76 6.31-17.76 9.46 4.55 9.58 10.3 18.7 16 27.63 13.15 20.31 28.92 39.07 46.22 55.96 10 9.21 20.16 18.71 31.45 26.34 8.89-9.77 19.368-18.06 30.948-24.42 0.25-3.46 0.161-6.85 1.831-10 2.39-4.62 6.72-8.41 10.87-11.46 4.97-3.75 11.09-5.25 17.12-6.36 2.02 0.43 2.7-0.05 4.43-1.14 5.66-2.82 8.84-8.81 11.65-14.21 2.98-7.41 5.2-15.06 8.82-22.23 1.53-3.37 3.66-6.42 5.21-9.76-0.37-1.86-1.94-3.55-3.13-4.97-5.51-5.98-13.92-10.68-18.61-17.41-2.31-3.25-1.901-7.03 0.049-10.32 4.08-6.83 11.63-12.26 17.31-17.71 5.36-5.06 7.47-12.98 7.05-20.15-0.26-2.89-0.73-6.42-2.52-8.81-2.34-2.62-5.9-4.41-9.06-5.85-10.63-4.71-21.448-6.569-32.628-9.019-10.21-2.18-20.07-6.01-29.15-11.15-7.62-4.44-12.86-11.22-16.73-19.02zm181.23 23.66c0.15 2.92 0.801 5.69 1.491 8.52 1.19-2.62 2.25-5.27 3.14-8-1.54-0.2-3.071-0.42-4.631-0.52z" fill="#0093dd"/>
<path d="m434.87 32.6c-11.45 11.35-24.129 20.63-37.129 30.17-12.97 9.88-28.4 17.06-42.04 25.97-3.08 1.97-6.17 5.29-9.76 6.07-1.83-0.45-2.341-1.55-1.141-2.96 6.91-5.82 13.48-12.041 18.27-19.811 4.74-7.65 7.41-16.46 7.3-25.48-4.45 8.25-10.07 15.54-16.39 22.43-7.66 8.27-15.37 17.92-24.56 24.4-6.87 4.91-14.29 8.661-20.82 14.09-5.43 4.49-11.62 9.05-13.92 16.03-1.65 5.42-1.71 11.452-1.17 17.052 1.96 12.4 11.21 24.02 13.32 36.41 1.54 7.71-1.71 15.569-6.05 21.809-4.65 6.5-10.81 12.62-18.29 15.72-17.82 7.71-36.46 7.94-55.49 6.16-3.76-0.45-7.59 0.501-10.75 2.561-2.24 1.74-3.46 4.37-5.96 5.88 0.31-4.3 2.95-6.53 5.78-9.31-5.39-0.99-8.89-0.21-13.8 1.85 2.24-3.49 5.83-4.92 9.69-5.89 4.53-1.15 8.8 0.61 13.42-0.22 1.5-10.73 7.77-20.82 9.96-31.5 0.5-2.53 0.32-5.21 0.98-7.68 0.69-1.15 1.59-1.65 2.72-1.5 3.4 1.27 3.95 5.06 5.09 8.05 3.49-10.64 3.28-21.93-0.69-32.41-0.3-1.63-2.171-4.11-0.181-5.21 1.95-1.1 3.671 0.07 5.351 1.07 3.37 2.35 5.73 6.25 8.06 9.58 0.28-6.02 0.18-11.8-2.23-17.43-1.96-4.97-5.33-8.3-8.32-12.61 1.53-1.5 2.46-3.15 4.86-3.17 4.3-0.25 7.83 2.48 11.13 4.84 0.23-14.24-7.87-26.52-19.4-34.26-2.09-1.46-4.669-2.74-6.319-4.7-1.83-1.94 0.58-4.29 2.58-4.69 7.83-1.59 14.029 2.01 19.649 7-4.2-7.42-10.77-12.66-18.54-15.99-7.31-3.07-15.09-5.64-23.12-4.83-2.19 0.2-3.86-0.51-3.71-2.95 1.01-4.17 5.54-6.34 9.02-8.11-11.4-4.92-24.49-5.95-36.3-1.77 0.78 1.77 1.57 3.54 2.39 5.3 2.09 0.97 3.6 1.99 5.15 3.7l-3.12 0.99c0.38 1.94 0.5 3.7 0.34 5.68-2.23-1.66-4.68-3.06-6.81-4.83-1.24-2.44-1.62-5.42-3.16-7.84-2.05-3.22-5.34-5.91-8.21-8.39 0.92 5.26-0.12 10.03-1.15 15.16-0.78 3.45 0.26 6.19 1.72 9.24-1.95 1.99-4.7 2.68-5.96-0.39-1.68-6.93 2.01-14.84 2.13-22.07-1.7 3.95-3.1 7.95-4.04 12.16-0.26 1.38-0.99 2.59-2.19 3.64-0.67-1.11-1.32-2.22-1.97-3.33-4.26 2.65-8.61 5.19-12.74 8.04-1.69 1.2-3.58 2.62-4.49 4.53-0.73 2.22-0.06 4.86-0.9 7.02-1.81 2.72-4.6 4.89-7.06 6.99-6.85 5.52-13.72 11-20.66 16.41-2.97 2.41-6.4 3.71-9.93 5.06l0.03 2.08c0.95 1.17 1.9 2.34 2.84 3.52-0.07 2.83-0.06 5.67-0.04 8.5 9.06-0.89 17.59-8.32 26.87-8.86 2.02-0.06 4.45-0.2 5.63 1.8 1.03 2.96-0.88 5.44-3.12 7.14-3.51 2.48-7.67 4.121-11.49 6.051 2.37 1.07 5.29 3.42 7.99 2.57 6.16-1.23 9.5-8.03 15.06-10.08 4.78-1.59 10.11 0.839 14.94 0.789 3.53-0.14 7.104-0.50507 11.39-1.8686 5.554-1.641 9.9999-4.2454 14.012-8.3794 1.0163-1.0471 2.2596-5.7055 2.2237-7.9247-0.10147-6.5016-2.0534-8.6412-4.1457-13.117 3.728 1.536 7.72 4.94 9.61 9.6 2.06 5.09 1.46 10.85-1.5 15.45-1.82 3.04-4.48 5.071-7.33 7.071 0.24 12.26-3.159 23.92-8.949 34.66-3.13 6-6.71 11.66-11.2 16.75-7.65 8.76-17.84 16.02-24.87 25.17-4.04 5.19-6.9 11.21-7.88 17.75-0.87 4.63-0.4 9.41-1.36 13.99-1.67 1.29-3.96 1.48-6 1.75-8.61 0.95-17.61 0.179-26.24-0.491-7.71-0.51-13.38-4.32-21.07-0.86 0.07 5.53-3.47 8.72-6.24 13.09-4.11 6.24-8.82 13.16-10.61 20.48-1.41 6.05 2.84 13.04 4.54 18.81 2.49 8.35 5.19 16.58 8.38 24.69 0.56 2.03 3.2 2.17 4.87 2.97 3.55 1.18 6.4 3.35 9.26 5.69 3.44 2.84 7.23 5.08 11.04 7.38-0.81-7.25-0.6-14.35 0.29-21.58-3.74-0.25-7.3-0.959-10.88 0.511-2.65 0.82-4.54 2.39-7.27 0.67-3.8-2.35-6.7-8.37-4.53-12.61 1.06-2.36 3.731-1.16 5.681-0.99 2.72 0.66 5.09 0.28 7.73-0.43-3.04-0.91-6.07-1.34-8.45-3.61-1.33-1.11-1.611-3.17-2.211-4.74 1.54-0.7 3.08-1.4 4.63-2.06-3.11-0.52-6.25-0.6-8.7-2.84-3.47-3.19-5.42-8.16-5.41-12.84 0.23-4.34 3.95-8.46 5.88-12.26 1.8-3.33 3.491-8.32 6.991-10.21 3.35-1.57 7.899-0.49 11.319 0.44 5.51 1.68 11.191 3.82 16.021 7.01 5.65 3.76 12.05 5.55 17.89 8.98 4.14 2.33 9.09 5.64 14.06 5.08 5.96-0.79 8.2-8.35 13.989-9.44 3.07-0.79 7.381-0.18 8.641-3.89 1.3-6.11-1.31-13.14-3.03-18.99 5.24 4.46 8.95 10.321 9.63 17.27 0.31 3.12-0.5 6.23-2.85 8.4-2.13 1.9-5.5 2.59-7.92 4.09-1.71 2.31-1.36 6.39-3.52 8.5-2.27 2.29-5.92 3.38-8.88 4.48 7.13 12.75 19.9 21.91 33.47 26.81 15.89 6.12 32.67 8.3 48.33 14.74 10.21 3.93 21.64 8.739 28.57 17.58 5.64 6.82 6.05 16.99 5.92 25.43-0.14 9.14-2.011 18.02-2.901 27.05-0.28 3.08 1.69 4.88 3.95 6.57 6.6 4.63 14.4 8.17 20.69 13.26 8.32 6.92 15.88 14.85 23.39 22.63 2.25 2.48 4.81 4.83 4.69 8.46-0.05 7.98-3.42 16.06-7.24 22.95-2.21 3.83-4.63 8.14-8.42 10.6-5.56 3.7-12.29 6.29-17.5 10.48-4.29 3.52-6.91 8.18-8.92 13.26 9.09-0.93 18.06 0.03 27.05 1.39-0.2-5-1.869-9.7-2.299-14.66-0.37-3.96 2.63-7.31 5.13-10.02 3.48-3.48 7.33-7.061 11.77-9.261 4.34-2.09 8.69-1.83 13.22-2.91 2.58-0.61 4.94-1.77 7.37-2.79-2.7-0.01-6.41 0.32-8.31-2.02-2-3.13-2.22-6.679-1.42-10.239 3.77-0.73 7.34-1.87 10.91-3.28-2.32-0.22-4.85-0.24-7.09-0.94-1.68-0.56-3-2.33-4.23-3.53 2.91-4.51 7.24-3.97 11.56-6.26 2.68-1.24 4.5-3.32 6.36-5.52-5.78 2.86-12.06 3.67-18.01 0.74-8.42-4.71-15.28-11.96-19.36-20.71-2.61-5.67-5.029-11.97-5.399-18.25-0.4-7.15 2.32-14.02 4.98-20.53 3.75-9.29 8.06-17.66 10.24-27.47 2.06-9.03 2.85-18.95 0.88-28.05-0.63-3.26-2.36-5.92-3.48-8.97-0.93-2.36 0.59-4.57 2.79-5.41 4.83-1.95 10.84-1.25 15.29 1.37 4.79 3.09 8.24 8.5 10.29 13.72 3.79 9.75 3.9 21.14 2.46 31.37-0.87 6.37-3.19 12.09-5.59 17.99-1.85 4.51-2.718 9.21-3.468 14 1.44-1.83 2.999-4.449 5.219-5.339 3.89-0.87 6.83 3.42 7.43 6.76 1.21 6.87 1.5 13.59 3.97 20.24 2.01 5.38 4.72 11 9.79 14.14 6.04 3.8 13.35 3.54 20.1 2.25-3.21-1.57-6.25-2.87-8.73-5.55-2.07-2.14-3.1-4.7-4.29-7.38 12.26 2.28 25.41-0.21 36.71-5.19 8.34-3.75 15.27-9.57 21.16-16.49-4.34 2.53-8.22 3.31-13.26 3.35 4.05-6.11 7.29-12.24 7.03-19.81 0.02-6.56-3.4-11.57-4.08-17.95-0.7-5.25-0.11-10.36 0.66-15.56-2.58 2.75-4.681 5.768-6.591 9.018-1.67-3-3.11-5.999-3.38-9.479-0.78-7.4 1.521-13.72 4.231-20.43-3.57 2.65-6.381 5.9-8.981 9.49-2.53-3.7-4.53-7.47-4.61-12.08-0.31-8.1 3.401-14.52 8.121-20.74-9.23 1.58-15.82 6.38-20.52 14.41-4.56 7.5-4.181 15.22-3.821 23.65-2.91-3.57-3.57-6.7-3.75-11.24-1.76-1.9-3.04-3.86-4.19-6.19-1.32 4.92-2.47 9.48-1.14 14.57 2.49 9.31 8.201 17.95 12.53 26.19 3.01 5.67 0.55 13.62-5.28 16.42-3.23 1.67-6.92 2.14-10.02-0.1-4.47-3.23-6.99-9.4-8.76-14.45-3.62-9.94-2.74-20.1-5.73-30.3-2-6.61-4.52-14.23-9.84-18.94-5.3-4.99-13.68-6.54-20.71-6.68-4.56-0.21-8.58 1.931-12.99 2.221-4.23-0.67-7.49-2.8-11.99-1.92-12.09 2.03-24.54-0.78-35.13-6.77-5.79-3.19-10.83-7.35-15.61-11.89 0.41 1.74 0.84 3.47 1.25 5.21-6.75-1.07-12.42-3.87-17.16-8.81-4.7-4.7-7.76-10.37-10.39-16.4-5.59-1.65-10.22-5.31-11.27-11.3 0.06-1.77 1.75-2.51 3.28-2.74 3.33 1.76 4.151 6.8 8.051 7.88 3.02 1.53 5.12-2.15 7.2-3.74 3.68 2.37 3.13 6.55 6.03 9.42 1.23 1.26 3.57 1.45 5.03 0.54 0.89-0.83 1.66-1.8 2.45-2.73-5.56 0.45-9.98-3.38-11.39-8.54-0.45-1.94 0.49-4.05 2.79-3.75 1.8 1.71 2.29 4.81 4.22 6.39 1.66 1.34 3.69 0.54 5.61 0.41-1.57-2.1-5.15-4.39-3.22-7.34 3.86-2.59 5.18 4.59 9.09 3.86 2.06-0.32 3.2-3.03 4.42-4.47 0.64 1.99 0.85 3.41 0.41 5.47 1.83 1.66 4.25 5.43 6.93 2.99 0.67-1.71 0.9-3.62 1.3-5.4 0.75 1.46 2.04 3.08 1.79 4.78-0.25 1.3-0.73 2.59-1.15 3.85 1.93 2.23 3.56 4.88 5.78 6.83 2.45 1.06 5.74 0.64 8.16-0.36 2.44-1.34 1.979-3.52 2.319-5.9-2.16-0.11-4.289-0.32-6.419-0.72 0.6 2.23 0.94 3.6-0.12 5.84-1.84-3.16-4.22-6.82-4.61-10.529 0.2-0.87 0.62-1.68 1.27-2.41 2.95 0.04 5.7 5.04 8.82 3.13 1.78-1.51 0.539-5.69 0.949-7.77 3.44 2.45 2.76 5.42 3.54 9.05 1.67 2.96 4.921 5.3 7.991 6.67 2.3 1.07 5.35 0.8 6.59-1.67 1.25-2.5 0.15-5.32-0.49-7.83-2.31 0.08-4.56-0.02-6.84-0.4 1.46 2.23 2.429 4.339 3.109 6.949-3.86-2.74-7.24-6.77-9.6-10.85-1.02-1.85-0.239-2.81 0.941-4.25 2.48-0.73 5 2.26 7.07 3.36 1.63 1.19 4.63 1.38 5.42-0.89 0.12-2.34-0.22-4.71-0.35-7.05 1.15 1.12 2.57 2.25 3.18 3.75 0.87 1.97 0.5 4.5 0.46 6.6 2.98 2.68 5.96 5.42 10.25 5.31 2.28-0.09 4.33-1.11 4.51-3.63 0.2-3.18-0.56-6.85-1.84-9.77-1.33-1-3.13-1.51-4.65-2.19 1.39 3.86 2.9 7.58 3.28 11.72-3.13-3.99-4.89-9.09-6.81-13.74-0.68-1.73-1.21-4.869 1.5-4.869 1.84 0.92 3.45 2.33 5.28 3.26 1.71 0.75 4.05 0.71 5.26-0.91 0.74-2.5-1-6.15 0.43-8.7 2.66-1.69 5.98 0.35 8.74 0.98 1.25-3.34-0.26-5.73-1.32-8.79 1.73 0.88 3.37 1.46 4.47 3.18 1.44 2.02 1.33 4.51 1.58 6.88 4.14 2.51 8.46 4.43 13.421 4.15 1.94-0.13 4.17-1.09 4.54-3.21 0.61-4.5-2.27-9.21-4.48-12.95-2.66 1.02-5.29 1.55-8.13 1.86 2.76 3.09 5.64 5.89 8.01 9.3-4.32-2.03-8.39-4.85-11.71-8.28-1.77-1.84-1.8-4.48-0.14-6.39 3.19-0.09 6.26 0.35 9.4-0.46-1.1-2.57-2.47-4.97-3.79-7.43 3.65 0.55 4.81 3.14 7.23 5.43 3.49 1.51 7.489 2.06 11.26 2.35 3.01 0.12 7.02-0.01 9.46-2.02 2.07-1.73 1.83-5.17 0.31-7.19-2.44-3.5-6.16-5.06-9.9-6.79l-3.9 2.13c3.19 1.93 6.31 3.7 8.65 6.7-5.17-0.66-10.14-3.65-14.46-6.43-1.42-1.35-4.56-2.81-1.62-4.59 2.82-0.16 5.63-0.08 8.43-0.51-0.85-3.08-2.99-5.03-4.99-7.37 1.92 0.3 3.66 0.13 5.28 1.35 1.56 1.12 2.6 3.16 3.62 4.76 6.43 0 15.11 0.63 20.76-2.84 2.57-1.78 1.71-4.24-0.23-6.08-4.15-3.37-9.44-5.37-14.84-4.96-0.75 1.76-1.539 3.51-2.369 5.25 3.55 0.66 7 1.42 10.17 3.24-5.77 0.18-11.59-0.96-17.19-2.21-1.97-0.37-2.94-1.76-4.32-3.06 2.8-2.44 6.85-0.69 9.41-2.72 0.72-4.09-4.67-5.03-7.1-7.17 1.79-0.11 3.95-0.57 5.69 0 2.09 0.63 3.43 2.34 4.92 3.83 5.22-0.66 10.44-1.84 15.38-3.67 2.16-0.9 5.27-2.39 5.28-5.12-0.26-2.57-2.65-4.55-4.9-5.48-5.52-2.08-11.44-2.15-17.15-0.75-0.37 1.78-0.759 3.56-1.169 5.34 3.38-0.24 7.979-1.69 11.03 0.16-6.97 1.65-14.11 3.53-21.31 3.16-1.96 0.03-2.65-1.31-3.97-2.48 2.69-3.28 6.31-2.5 9.7-4.34 1.56-1.07 0.389-2.68-0.581-3.69-1.86-1.51-4.939-1.63-7.169-2.28 4.13-2.92 7.39-2.27 11.42 0.29 4.32-1.07 8.74-2.13 12.85-3.84 2.43-0.92 4.3-3.46 3.84-6.1-0.42-2.27-2.22-3.76-4.2-4.72-4.39-1.97-8.97-2.35-13.72-2.15-1.09 2.53-2.42 4.61-4.19 6.71 4.49-0.37 8.96-0.58 13.45 0.05-5.23 1.85-10.87 2.67-16.35 3.4-2.62 0.17-5.201 0.34-6.661-2.26 0.3-2.73 3.22-3.26 5.19-4.55 2.15-0.93 3.09-2.66 4.28-4.55-3.35-4.36-7.629-4.49-12.65-5.23 3.3-1.68 7.28-1.94 10.89-1.32 1.94 0.73 3.54 2.64 5.02 4.06 3.33-1.24 6.96-2.54 9.92-4.53 2.53-1.56 3.46-5.28 1.96-7.84-0.94-1.54-2.44-2.33-4.07-2.96-4.42-1.55-9.07-1.94-13.709-1.48 0.1 4.58-0.39 6.11-3.34 9.49 4.21-0.69 8.21-1.45 12.48-1.42-4.82 2.1-11.2 3.7-16.42 4.24-2.5 0.27-3.21-1.45-4.72-3 2.32-1.61 5.01-2.8 7.14-4.65 1.6-1.75 0.89-4.52-1.42-5.15-3.46-0.88-7.47 0.6-11.01 0.04l-0.82-2.24c2.06-2.39 5.11-3.51 7.2-5.71 0.87-1.08 1.56-2.51 0.23-3.56-2.59-0.84-5.88 0.18-8.52 0.5 2.42-3.1 8.75-5.01 11.76-1.87 2.03 2.16 1.12 4.23 0.81 6.81 2.55-1.23 5.139-2.35 7.879-3.09-3.39 3.09-7.329 4.54-11.499 6.27 2.22 0.01 4.42 0.09 6.64 0.28 3.1-1.59 6.42-2.81 9.4-4.59 1.32-0.89 3.07-2.07 2.88-3.88-0.31-2.14-2.87-3.49-4.86-3.63-3.07-0.24-6.221 0.33-9.311 0.4 1.93-2.54 4.59-3.44 7.29-4.9 6.43-3.29 12.55-7.44 18.74-11.229 13.77-8.82 28.25-16.96 41.19-26.89 3.87-2.84 7.16-5.84 11.43-8.08-2.53 4.07-6.99 6.859-10.73 9.879-7.66 5.68-15.31 11.411-23.25 16.701-11.11 7.15-22.43 14.02-33.7 20.93 3.26 1.4 7.33 2.6 7.98 6.66 0.37 4.79-2.8 7.08-6.35 9.42 3.26 0.12 6.281 0.62 9.411 1.49 4.74-4.92 10.43-8.27 15.74-12.48 11.72-9.08 23.38-18.56 33.81-29.12 6.39-6.49 11.871-13.31 14.741-22.1 1.92-5.74 2.149-11.65 0.879-17.55zm-384.31 4.53c2.11 1.62 4.61 3.46 7.26 3.97 1.93 0.25 3.95 0 5.87 0.25 2.56 1.51 4.56 3.51 7.43 4.56 2.66 1.09 6.06 0.33 8.91 0.5 1.37 0.41 1.819 2.41 2.509 3.52 3.84 2.03 7.49 2.04 11.72 1.8l0.57 2.97c3.89 1.92 6.92 2.24 11.23 2.06 1.34-0.35 1.98 1.81 2.75 2.62 1.52 0.7 3.09 1.45 4.7 1.92 2.38 0.71 5.15-0.81 7.45-0.1 0.51 1.01 0.97 2.04 1.37 3.1 3.19 2.03 6.13 1.46 9.7 1.4 0.73 0.99 1.31 2.12 1.74 3.36 2.16 0.96 4.19 1.51 6.53 1.84 0.79-0.66 1.58-1.33 2.38-1.99 1.05 0.83 1.54 2.2 3.08 1.77 1.91-0.83 5.13-2.21 5.75-4.39-2.74 0.8-5.22 2.05-8.11 2.29 1.37-1.74 2.88-3.36 4.39-4.98-2.37-0.99-4.16-0.9-6.65-0.66-3.33-1.88-6.31-3.59-10.2-4.09-0.93 0.52-1.86 1.03-2.79 1.53-2.86-3.06-4.71-4.34-8.87-5.25-1.84 0.5-3.04 1.97-4.76 0.4-3.33-2.51-5.82-3.66-9.95-4.45-0.83 0.53-1.67 1.05-2.51 1.58-4.71-3.32-9.16-5.3-15.06-4.07-3.45-2.44-6.93-3.82-10.99-4.9-1.01 0.55-2.01 1.1-3.02 1.64-2.64-1.65-5.45-3.82-8.47-4.7-1.78-0.3-3.65-0.13-5.45-0.28-2.92-0.82-5.61-2.31-8.51-3.22zm399.37 37.21c-12.74 9.69-25.34 19.15-38.93 27.69-11.07 6.86-22.511 13.13-34.121 19.03-0.2 1.82-0.41 3.64-0.62 5.45 16.19-7.73 31.701-17.03 47.221-26.02 5.649-3.624 11.081-7.714 17.34-10.23-6.217 6.066-9.81 8.123-15.26 11.36-17.95 11.36-36.59 22.27-56.01 30.84 4.45 0.94 8.57 1.72 11.12 5.91 1.92 3.12 1.12 6.08 0.43 9.4 17.14-10.02 35.09-20.581 50.56-33.101 8.36-6.86 16.03-14.3 18.74-25.16 1.41-5.14 0.89-10.09-0.47-15.17zm-311.69 48.9c-5.09 0.48-9.21 2.57-14.01 4.19-7.03 2.45-14.77 6.38-22.22 6.88-5.63 0.34-10.831-3.13-15.491-5.85-3.23-1.95-6.71-2.71-10.299-3.69 4.11 4.27 3.45 9.42 8.6 11.34 5.69 2.51 11.32 2.21 17.34 1.74l0.049 2.23c-4.94 2.37-11.16 1.78-16.28 0.3-6.25-1.63-11.33-4.48-17.94-4.34-3.21-0.05-6.04 0.97-9.07 1.86-3.33 1-6.69 1.41-10.11 1.92 5.92 2.51 12.22 3.66 18.65 3.14 4.36-0.36 8.69 0 12.81 1.51 1.53 0.52 2.22 1.7 3.28 2.82-4.37 0.68-8.05-1.94-12.54-0.92-6.11 1.17-11.73 6.37-16.29 10.36-4.88 4.42-8.76 9.38-14.79 12.4 5.69-0.7 10.87-2.29 15.58-5.63 6.49-4.29 13.69-8.87 21.82-6.55-2.23 2.49-5.411 1.79-7.931 3.42-2.56 2.53-2.98 6.91-5.34 9.7-1.36 1.6-3.12 2.95-4.73 4.29 4.83-0.72 9.37-1.62 13.35-4.64 5.34-3.75 8.069-9.01 12.68-13.37 2.72-2.58 5.82-3.96 8.81-6.17 2.88-2.08 5.56-4.07 9.18-4.62l0.5 1.44c-2.22 2.26-5.23 3.26-7.56 5.3-2.07 2-2.83 5.46-3.78 8.09 6.23-2.95 14.87-5.14 19-10.89 3.55-4.36 6.07-9.24 8.77-14.13 2.78-4.84 9.66-6.561 14.43-8.701 1.73-0.64 2.55-1.99 3.53-3.43zm319.5 1.95c-22.07 13.1-46.081 23.719-71.041 29.859 1.39 1.38 2.77 2.79 4.12 4.21 18.11-5.6 35.98-11.479 53.36-19.119-16.46 9.61-34.65 16.57-52.78 22.34-0.88 2.17-1.6 4.92-3.53 6.4-2.71 2.14-6.72 2.869-10.02 3.599 3.23 1.48 5.83 3.19 8.27 5.78 13.11-4.24 26.66-8.089 39.1-14.039 10.62-5.76 22.79-13.36 28.88-24.11 2.8-4.66 3.77-9.51 3.64-14.92zm-365.13 49.308c-1.007 0.022-2.033 0.368-3.03 1.122-2.08 2.23-3.44 5.11-5.71 7.26-2.38 2.27-5.85 3.66-8.71 5.32-7.98 4.57-15.49 9.89-23.43 14.54-1.8 1.17-4.47 2.59-5.23 4.7 0.09 2.47 2.26 4.99 2 7.59-0.27 4.89-5.48 6.32-6.34 11.03-0.77 4.39-0.47 9.03-0.57 13.48 4.68-2.88 9.76-4.7 14.88-6.62l0.03-7.38c-1.36-0.61-2.79-1.191-4.06-1.991-2.97-2.78-0.9-9.88 3.62-9.54 2.77 1.42 4.38 3.64 7.73 3.98-1.72-2.62-3.67-4.56-2.9-8 0.51-2.6 2.28-6.97 5.69-5.57 1.72 2.17 2.99 4.55 5.15 6.38-0.61-3.04-1.58-5.67-0.73-8.8 0.91-4.23 3.57-7.52 7.26-9.71 3.36-1.97 6.86-4.93 10.7-5.75 2.72-0.47 4.98 0.82 6.41 3.07 1.95 3.26 2.571 7.05 4.811 10.2 7.13 10.67 16.119 20.22 24.309 30.1 0.19-7.96 2.83-14.93 7.32-21.41-11.32-10.82-23.28-20.9-34.53-31.8-1.362-1.374-2.99-2.238-4.67-2.201zm294.37 13.091c-0.422 7e-3 -0.84 0.03-1.254 0.07-2.26 1.43-4.38 3.021-6.82 4.181 10.57 1.12 21.05 3.17 31.63 4.16 5.62 0.64 11.21 0.75 16.78 1.75-5.47 1.35-10.75 0.989-16.32 0.799-10.67-0.5-21.401-1.82-31.991-3.16-3.93-0.46-7.69-1.52-11.41-2.81 2.18 1.91 5.02 3.92 6.37 6.52 1.19 2.33 0.58 5.54 0.35 8.07 14.37 1.93 29.33 2.43 43.69 0.15 8.77-1.49 18.47-4.1 25.47-9.85 2.67-2.08 4.331-4.83 5.851-7.8-17.62 1.6-35.74 0.08-53.34-1.31-2.923-0.14-6.053-0.822-9.007-0.77zm-20.385 25.642c-2.438-0.03-4.996 0.498-7.509 0.498 9.79 4.08 19.88 7.35 29.61 11.561 3.97 1.68 7.98 2.68 11.64 5.06-7.55-0.45-15.29-3.66-22.34-6.27-8.32-3.26-16.46-5.84-24.37-9.78 1.03 2.46 2.22 5.06 2.73 7.68 0.47 2.18-0.77 4.22-1.5 6.21 13.94 5.8 27.84 10.23 43.14 9.7 9.9 0.19 19.14-3.34 26.9-9.38-17.83-4.89-37.171-7.27-54.081-14.39-1.34-0.652-2.758-0.87-4.22-0.888zm-42.16 12.819c2.19 3.69 4.63 7.16 6.37 11.109-3.07-1.4-4.86-3.82-6.77-6.45-1.194 1.7219-2.5574 3.3199-4.07 4.77 2.23 2.25 4.43 4.9 7.13 6.59 2.13 1.17 6.141 0.45 6.961-2.14 0.19-4.54-1.44-9.4-3.21-13.54-2.14-0.06-4.271-0.22-6.411-0.34zm10.311 3.03c1.7 4.83 3.65 8.97 2.19 14.23 11.69 8.23 26.159 13.09 39.899 16.64 7.67 2.16 15.9 1.81 23.09-1.75-12.16-6.87-24.781-13.11-36.721-20.38-3.82-2.34-7.71-4.29-11.06-7.32-2.55 0.84-5.09 1.48-7.74 1.91 8.52 4.77 16.69 10.15 25.13 15.04 4.31 2.68 8.9 4.901 12.69 8.091-5.76-1.01-9.61-4.28-15.06-6.69-7.18-3.23-14.12-6.93-20.74-11.2-4.04-2.72-7.38-6.2-11.68-8.57zm-13.371 15.21c-0.13 3.15-0.54 5.22-2.23 7.87 7.1 7.01 15.522 12.71 24.312 17.38 6.85 3.62 14.449 5.38 22.179 4.11-11.75-7.66-22.53-16.681-31.4-27.601-1.96 0.56-3.92 1.11-5.89 1.61 4.51 4.14 8.77 8.56 13.25 12.73 2.79 2.59 5.78 4.84 8.34 7.68-5.06-1.9-9.55-5.94-13.81-9.23-5.4-4.38-10.08-9.43-14.75-14.55zm-68.399 5.16c-1.36 0.17-2.72 0.32-4.07 0.53-0.33 0.58-0.65 1.16-0.96 1.76 3.43 4.98 7.68 9.13 14.09 9.32 0.42-2.27 0.39-4.1-0.08-6.35-2.14-0.38-3.92-0.97-5.78-2.09 0.14 1.59 0.25 3.18 0.33 4.77-1.68-2.44-2.62-5.15-3.53-7.94zm-23.31 4.43c-0.82 2.4-0.07 4.25 1.03 6.41 3.79 7.02 8.56 13.3 15.52 17.44-2.17-4.9-2.53-10.04-3.9-15.13-0.98 0.29-1.97 0.58-2.96 0.86 0.62 2.35 1.24 4.7 1.71 7.08-2.17-2.08-3.02-4.66-3.98-7.42-4.09-2.32-5.68-4.99-7.42-9.24zm73.98 0.93c-0.69 1.63-1.13 4.09-2.63 5.18-1.7 1.14-3.98 1.52-5.91 2.1 5.8 6.91 12.83 12.58 20.77 16.86 4.55 2.41 9.43 3.43 14.459 4.27-6.9-8.74-13.28-17.62-17.55-27.99-1.84-0.14-3.69-0.32-5.53-0.4 2.56 4.64 5.32 9.2 8.43 13.5 1.47 2.04 2.57 4.24 3.44 6.59-5.76-6.14-11.33-12.75-15.48-20.11zm-18.211 4.4c-0.79 0.96-1.519 1.96-2.259 2.96 2.6 5.19 5.39 9.98 8.96 14.58-5.38-2.61-8.391-7.39-11.38-12.33-2.3 0.74-4.63 1.41-6.98 2.02 4.08 4.3 8.17 9.44 13.23 12.58 4.9 2.85 10.08 2.82 15.56 2.84-3.94-3.96-7.72-7.99-10.77-12.69-2.45-3.5-3.441-6.98-6.361-9.96zm-36.85 2c3.22 6.34 8.14 11.25 14.051 15.11 3.35 2.03 7.259 2.95 10.969 4.15-3.43-5.31-5.61-11.2-9.34-16.31-0.5 0.5-1.02 0.99-1.54 1.47 1.44 3.4 3.01 6.71 4.27 10.17-3.4-2.43-4.97-5.88-6.98-9.39-4.57-0.4-7.88-2.52-11.43-5.2zm-6.3 71.4c0.12 9.9-2.85 19.65-9.7 26.96-4.54 4.8-9.48 9.18-13.85 14.17-2.29 2.7-5.37 5.12-7.06 8.23 2.27 3.86 6.04 6.99 9.4 9.89 5.97 4.65 10.98 10.63 15.16 16.9 2.77 4.32 5.14 10.1 4.32 15.29-0.87 4.27-5.11 7.68-8.46 10.12-4.28 3.1-8.45 6.01-11.77 10.19-4.22 4.92-5.93 10.12-10.9 14.04-4.53 3.63-9.91 4.72-15.42 5.92-2.82 0.67-6.26 1.25-8.6 3.05-4.3 3.41-7.78 7.68-10.21 12.61 7.36-0.31 14.7 0.34 21.94 1.63 1.55-5.77 4.12-10.93 9.39-14.12 4.51-2.74 9.26-2.59 14.32-2.03-1.47-6.14 0.04-12.672 4.22-17.392 1.41-1.27 3.66-3.41 5.47-1.66 1.51 1.05 2.74 2.661 3.93 4.071-0.76-4.26-2.531-7.96 1.179-11.39 3.53 2.26 6.03 2.87 10.191 3.08-0.61-4.4-2.45-11.04 0.51-14.84 1.32-1.92 3.73-0.8 5.55-0.45 4.18 1.28 8.36 1.08 12.67 0.82-4.39-4.55-8.721-8.95-11.89-14.48-4.09-6.53-5.42-14.69-4.44-22.26 1.16-7.78 6.06-14.02 11.77-19.11 0.64-7.33 0.369-15.5-2.501-22.38-3.19-7.18-9.11-12.2-15.22-16.86z" fill="#fcdb00"/>
<path d="m209.69 59.26c-4.08 0.45-7.66 0.13-11.43 1.21-3.05 0.88-6.07 1.62-9.22 1.99-0.5-0.9-1-1.79-1.5-2.68 6.69-3.23 15.47-4.31 22.15-0.52zm-32.89-0.6c3.34 2.81 4.23 8.2 4.25 12.32l-2 0.19c-0.61-4.22-1.32-8.34-2.25-12.51zm7.35 10.87c1.63 1.54 1.97 2.23 0.76 4.25-1.48 2.47-3.75 2.82-6.32 3.52 1.66-2.31 2.51-7.16 5.56-7.77zm26.96 3.68c7.65-1.47 15.95-0.24 23.21 2.45 1.99 0.67 3.45 1.96 4.89 3.42-7.39-1.49-14.61-2.93-22.22-2.61-2.7 0.2-5.33 0.93-8.03 1.12-2.82-1.9 0-3.94 2.15-4.38zm-52.94 7.62c0.52 2.67-0.84 2.61-2.58 3.96 0.59 1.37 1.18 2.71 1.61 4.15-0.98 3.14-4.66 3.28-7.28 4.4-1.6 2.84-3.69 3.87-6.61 5.06 1.19-1.74 2.78-3.39 3.6-5.33 0.9-3.61 0.14-8.15 3.46-10.69 2.11-1.41 5.42-3.32 7.8-1.55z"/>
<path d="m152.53 84.57c0.34 1.38 0.65 2.77 0.95 4.16-1.01 0.24-2.02 0.47-3.03 0.7 0.61-1.66 1.25-3.29 2.08-4.86z" fill="#fff"/>
<path d="m159.18 86.36c1.43 1.41 3.04 2.13 2.62 4.47-0.91 2.41-4.43 4.57-6.88 3.17 0.61-1.86 2.39-2.7 3.8-4.06 0.17-1.19 0.32-2.39 0.46-3.58zm67.79 4.09c8.16 1.71 16.64 6.08 22.25 12.34 3.48 4.41 7.09 9.91 7.51 15.64-2.68-3.2-4.44-6.79-7.39-9.77-3.95-3.95-7.74-7.6-12.91-9.93-3.68-1.85-7.89-2.69-11.44-4.73-2.11-1.6-0.24-3.95 1.98-3.55zm-112.96 24.53c2.31 3.54 0.2 6.63-3.67 7.19-0.23-1.27-0.46-2.53-0.68-3.8l-2.55-1.68c2.24-1.38 4.21-3.86 6.9-1.71zm32.72 3.27c1.1 2.56-0.21 4.32-1.48 6.42-0.8-0.54-1.61-1.07-2.43-1.6 0.04-1.28 0.07-2.55 0.1-3.83-1.12-0.47-2.24-0.95-3.36-1.43 1.62-3.39 5.75-2.48 7.17 0.44zm87.09 2.8c4.81 2.11 9.1 5.65 12.72 9.42 3.44 3.57 4.73 8 5.65 12.74-3.41-3.2-5.16-7.52-8.95-10.45-3.62-3.62-8.09-5.91-12.04-9.03-1.81-1.71 0.88-3.77 2.62-2.68z"/>
<path d="m491.38 129.51c-0.02 6.64-0.06 13.28 0.03 19.91-10.24 9.31-19.92 20.34-26.3 32.69-5.26 10.09-7.58 21-12.98 31.01-5.26 9.83-12.68 18.63-20.6 26.42-7.18 7.12-15.66 12.83-24.83 17.07-1.36 0.75-2.37-0.17-3.62-0.69-4.79-2.59-9.57-5.21-14.32-7.87 2.92-1.5 6.804-3.838 9.774-5.248 4.87-0.42 15.234-0.043 24.336-6.932 3.5-2.57 6.02-5.79 8.66-9.18-2.57-0.65-5.15-1.26-7.73-1.86 4.49-4.99 8.84-9.98 12.28-15.77 1.07-1.82 2.08-3.02 3.97-4.03 7.73-4.32 13.81-10.91 16.89-19.28-3.63-0.02-7.27 0.03-10.9 0.01 3.41-8.67 7.76-16.9 13.26-24.44 8.32-11.36 18.3-21.96 29.8-30.16z" fill="#fff"/>
<path d="m230.82 149.88c2.92-1.71 4.5 1.21 6.36 3.01 4.21 5 7.53 10.43 5.95 17.25-1.28-2.56-2.2-5.27-3.46-7.84-1.7-3.29-4.11-5.72-6.63-8.36-1.09-1.24-2.23-2.28-2.22-4.06zm-8.62 59.94c1.47 1.38 0.64 1.87-0.06 3.35-1.82 0.93-2.77-0.15-4.33-0.95-2.51-1.54-5.21-2.03-7.9-3.22 4.21-1.67 8.6-2.37 12.29 0.82z"/>
<path d="m368.97 263.06c7.17 1.47 14.15 3.01 21.55 2.7a98.646 98.646 0 0 0-14.97 12.78c-7.48 7.84-14.18 16.21-19.17 25.87-3.37-4.55-7.49-7.98-12.3-10.91 3.38-5.53 6.98-10.89 11.12-15.88 6.13 0.25 11.87-0.5 17.77-2.12-2.97-2.64-6.03-5.18-9.06-7.75 1.62-1.59 3.17-3.42 5.06-4.69zm-245.01 4.18c4.97 2.51 9.89 5.17 14.6 8.15-8.04 7.2-15.82 15.55-21.21 24.95-4.25 7.41-6.23 15.21-9.48 22.99 0.702-5.12 0.95-13.13-0.57-18.04-3.64-0.758-6.02-0.61-9.34-1.07 5.5-14.46 14.91-26.4 26-36.98z" fill="#fff"/>
<path d="m390.98 301.27c-1.05 3.99-2.52 7.5-2.46 11.73 0.05 5.24 0.96 10.65 3.12 15.46 2.31 5.03 4.38 10.84 4.44 16.43l-1.99-0.1c-2.4-3.97-3.01-8.95-4.9-13.21-2.74-6.2-4.21-12.81-3.57-19.61 0.48-4.12 2.54-7.73 5.36-10.7z"/>
<path d="m334.94 314.46c3.53 7.23 4.97 15.57 5.39 23.55 0.29 2.23-0.62 3.71-1.83 5.45-6.85 9.71-15.01 18.49-24.3 25.9 1.71-4.57 3.66-9.02 5.8-13.4 3.58-7.38 4.67-15.02 6.47-22.7 2.57-5.12 5.44-9.97 7.22-15.47 0.41-1.11 0.83-2.22 1.25-3.33zm-246.6 13.16c4.38 3.56 8.54 5.98 13.84 7.94-8.95 15.21-20.9 28.94-34.88 39.73-8.15 6.28-17.21 10.61-26.33 15.25-2.24-4.82-4.52-9.62-6.58-14.52 9.84-4.83 19.4-9.58 27.7-16.9 10.29-8.96 19.45-19.64 26.25-31.5z" fill="#fff"/>
<path d="m383.31 328.33c2.84 0.33 3.64 3.51 4.18 5.85-0.72 0.47-1.53 0.76-2.44 0.89-1.88-1.92-1.83-4.23-1.74-6.74zm20.09 2.23c0.96 5.46 1.99 10.74 4.25 15.84 2.16 4.66 2.65 9.68 1.3 14.65-1.55 1.04-2.54 0.68-2.97-1.09-0.37-4.06 0.28-7.82-1.2-11.76-1.96-5.6-3.44-11.86-1.38-17.64zm10.53 27.7c1.25 2.47 2.33 4.89 2.4 7.7 1.01 8.69-6.77 17.11-15.37 17.36-1.8 0.02-2.76-0.71-3.57-2.27 0.56-3.5 6.24-3.02 8.67-4.94 3.95-3.28 6.15-8.93 7.06-13.85 0.26-1.34 0.53-2.67 0.81-4zm-55.14 16.93c2.78 1.37 0.53 5.92 0.37 8.29-2.13 8.87 2.04 15.09 5.29 22.83-2.37-0.9-4.3-1.97-5.71-4.15-4.63-6.92-6.87-15.97-4.73-24.14 0.71-2.29 2.19-4.17 4.78-2.83z"/>
<path d="m257.85 384.54v0.02l0.08 0.29c0.78 3.59 0.46 6.95 1.98 10.18 1.25 2.98 3.45 4.93 5.76 7.08-3.16 3.27-6.05 6.74-8.86 10.3-2.54-6.18-3.72-12.79-2.77-19.46 0.15-2.36 2.21-3.89 3.58-5.66 0.05-0.92 0.12-1.83 0.23-2.75z" fill="#fff"/>
<path d="m377.63 384.3c3.35 3.7 5.87 7.42 10.82 9.2 5.89 2.6 10.89 0.76 16.84-0.18-0.81 0.91-1.69 1.72-2.66 2.41-10.05 4.29-23.24 1.53-28.96-8.32-1.42-2.54 1.75-5.4 3.96-3.11z"/>
<g fill="#fff">
<path d="m234.79 417.02c0.48 1.83 1.34 4.38 0.39 6.14-1.26 2.42-4.06 4.2-6.22 5.78 1.74-4.03 3.56-8.16 5.83-11.92zm5.45 27.52c-0.86 2.58-1.85 5.1-2.9 7.6-0.13-2.44-0.18-4.88-0.1-7.33 1-0.13 2-0.21 3-0.27zm-11.07 7.21c2.71 0.35 4.68 1.74 6.94 3.1-3.29 6.57-7.23 12.65-11.95 18.29-6.55 7.92-14.12 15.61-22.78 21.23-8.12 5.35-16.88 8.63-25.15 13.85-6.39 3.96-12.07 8.81-17.38 14.1-4.52-2.92-8.99-5.9-13.4-8.98 10.5-11.04 22.63-20.13 36.66-26.18 5.29-0.15 10.59 1.52 15.92 1.42 1.56-0.23 3.23 0.21 3.62-1.76 0.84-5.03 1.04-9.53 4.64-13.53 4.55-4.99 11.29-5.03 17.53-4.49 0.72-4.43 1.35-8.77 2.85-13.02 0.56-1.45 1.19-3.09 2.5-4.03z"/>
</g>
</svg>
