<svg width="445pt" height="539pt" viewBox="0 0 445 539" xmlns="http://www.w3.org/2000/svg"><g fill-rule="evenodd"><path d="m9.922 9.957-.391 338.64c41.716 229.425 370.058 257.835 427.23 0L434.16 9.957z" fill="#fd2"/><g stroke="#000"><path d="m5.896 221.502 3.04 129.203 181.844 9.663zM174.344 9.957h95.4l-47.7 373.612zM437.452 221.502l-183.773 138.03 179.985.832zM6.394 77.057l215.647 306.51L71.764 9.955H9.924z" stroke-width=".75"/><path d="M372.322 9.957 222.044 383.569 436.957 76.317l-2.792-66.364z" stroke-width=".75"/></g><path d="M17.8 396.822c8.452-3.966 15.413-6.892 25.126-7.15 32.05-.854 60.306 31.278 92.355 31.324 32.003-.852 54.075-30.398 85.935-31.246 32.05-.853 60.306 31.279 92.355 31.325 32.003-.852 54.075-30.398 85.935-31.246 9.57-.255 16.592 2.431 25.688 6.326 7.347-26.395 11.22-39.045 11.996-63.886-12.069-6.033-25.936-10.749-38.731-10.408-31.863.848-53.935 30.394-85.935 31.246-32.052-.047-60.307-32.178-92.355-31.325-31.863.848-53.935 30.394-85.935 31.246-32.052-.047-60.165-32.226-92.213-31.373-12.27.327-23.086 4.909-33.579 10.469.982 24.478 1.982 37.857 9.359 64.697z" fill="#0093dd" stroke="#fff" stroke-width="4.35"/></g><path d="M444.08.036H0v316.92c0 122.63 99.406 222.05 222.04 222.05 122.63 0 222.04-99.416 222.04-222.05zm-9.921 9.921v307c0 28.641-5.608 56.42-16.666 82.566-10.683 25.258-25.979 47.944-45.463 67.43-19.484 19.484-42.17 34.781-67.428 45.464-26.145 11.059-53.923 16.666-82.563 16.666-28.642 0-56.421-5.607-82.566-16.666-25.258-10.683-47.945-25.98-67.428-45.464-19.483-19.485-34.779-42.172-45.462-67.43-11.058-26.146-16.664-53.925-16.664-82.566v-307z"/></svg>