<?xml version="1.0" encoding="UTF-8" standalone="no"?>
<!-- Created with Inkscape (http://www.inkscape.org/) -->

<svg
   xmlns:dc="http://purl.org/dc/elements/1.1/"
   xmlns:cc="http://creativecommons.org/ns#"
   xmlns:rdf="http://www.w3.org/1999/02/22-rdf-syntax-ns#"
   xmlns:svg="http://www.w3.org/2000/svg"
   xmlns="http://www.w3.org/2000/svg"
   xmlns:sodipodi="http://sodipodi.sourceforge.net/DTD/sodipodi-0.dtd"
   xmlns:inkscape="http://www.inkscape.org/namespaces/inkscape"
   version="1.0"
   width="208.86046"
   height="244.65999"
   id="svg2780"
   inkscape:version="0.92.3 (2405546, 2018-03-11)"
   sodipodi:docname="Lengwil-blazon.svg">
  <metadata
     id="metadata27">
    <rdf:RDF>
      <cc:Work
         rdf:about="">
        <dc:format>image/svg+xml</dc:format>
        <dc:type
           rdf:resource="http://purl.org/dc/dcmitype/StillImage" />
        <dc:title></dc:title>
      </cc:Work>
    </rdf:RDF>
  </metadata>
  <sodipodi:namedview
     pagecolor="#ffffff"
     bordercolor="#666666"
     borderopacity="1"
     objecttolerance="10"
     gridtolerance="10"
     guidetolerance="10"
     inkscape:pageopacity="0"
     inkscape:pageshadow="2"
     inkscape:window-width="1752"
     inkscape:window-height="1281"
     id="namedview25"
     showgrid="false"
     inkscape:zoom="1.4142136"
     inkscape:cx="76.390194"
     inkscape:cy="112.4206"
     inkscape:window-x="490"
     inkscape:window-y="74"
     inkscape:window-maximized="0"
     inkscape:current-layer="svg2780"
     inkscape:measure-start="104.255,149.787"
     inkscape:measure-end="104.255,126.383"
     inkscape:snap-nodes="true"
     inkscape:snap-others="true" />
  <defs
     id="defs2782" />
  <path
     inkscape:connector-curvature="0"
     style="fill:#ffffff;fill-opacity:1;fill-rule:evenodd;stroke:#000000;stroke-width:1.99999988;stroke-linecap:butt;stroke-miterlimit:4;stroke-dashoffset:0;stroke-opacity:1"
     id="path4212"
     d="m 1,1 3.761095,158.00304 c 2.686489,112.85918 196.651755,112.85918 199.338255,0 L 207.86045,1 Z" />
  <path
     style="fill:#cc2918;fill-opacity:1;fill-rule:evenodd;stroke:#000000;stroke-width:1px;stroke-linecap:butt;stroke-linejoin:miter;stroke-opacity:1"
     d="m 104.43024,95.909987 c 0,53.133093 -52.2647,75.875003 -98.4447602,75.875003 C 3.542761,156.2155 2.6618266,57.928342 1,1.0000184 h 103.43024 z"
     id="path33435-9"
     inkscape:connector-curvature="0"
     sodipodi:nodetypes="scccs" />
  <path
     style="fill:#ffffff;fill-opacity:1;fill-rule:evenodd;stroke:#000000;stroke-width:0.99999988px;stroke-linecap:butt;stroke-linejoin:miter;stroke-opacity:1"
     d="M 87.541577,136.14935 70.64763,69.089876 87.541577,2.0304271 104.43553,69.089876 Z"
     id="path33541"
     inkscape:connector-curvature="0" />
  <path
     style="fill:#ffffff;fill-opacity:1;fill-rule:evenodd;stroke:#000000;stroke-width:0.99999988px;stroke-linecap:butt;stroke-linejoin:miter;stroke-opacity:1"
     d="M 53.75368,136.14935 36.859733,69.089876 53.75368,2.0304279 70.64763,69.089876 Z"
     id="path33541-8"
     inkscape:connector-curvature="0" />
  <path
     style="fill:#ffffff;fill-opacity:1;fill-rule:evenodd;stroke:#000000;stroke-width:0.99999988px;stroke-linecap:butt;stroke-linejoin:miter;stroke-opacity:1"
     d="M 19.965783,136.14935 3.0718361,69.089876 19.965783,2.0304278 36.859733,69.089876 Z"
     id="path33541-4"
     inkscape:connector-curvature="0" />
  <path
     style="fill:none;fill-rule:evenodd;stroke:#000000;stroke-width:1px;stroke-linecap:butt;stroke-linejoin:miter;stroke-opacity:1"
     d="M 104.43024,95.909987 V 2.1599862"
     id="path33418"
     inkscape:connector-curvature="0" />
  <path
     style="fill:none;fill-rule:evenodd;stroke:#000000;stroke-width:1px;stroke-linecap:butt;stroke-linejoin:miter;stroke-opacity:1"
     d="m 104.43024,95.909987 c 0,53.133093 52.7647,75.875003 98.94476,75.875003"
     id="path33435"
     inkscape:connector-curvature="0"
     sodipodi:nodetypes="cc" />
  <path
     id="path33443"
     style="fill:#cc2918;fill-rule:evenodd;stroke:#000000;stroke-width:1px;stroke-linecap:butt;stroke-linejoin:miter;stroke-opacity:1;fill-opacity:1"
     d="m 136.82516,239.53346 c 7.03404,-2.13644 13.99204,-4.42497 20.32932,-7.95495 -27.29881,-27.01438 -52.72424,-83.99166 -52.72424,-135.668523 0,28.701943 4.49011,100.105803 32.39492,143.623473 z"
     inkscape:connector-curvature="0"
     sodipodi:nodetypes="cccc" />
  <path
     id="path33445"
     style="fill:#cc2918;fill-rule:evenodd;stroke:#000000;stroke-width:1px;stroke-linecap:butt;stroke-linejoin:miter;stroke-opacity:1;fill-opacity:1"
     d="m 194.45437,196.57673 c -3.93976,7.55402 -8.89105,13.69191 -14.49569,18.9151 -35.88758,-13.29154 -75.52844,-58.80526 -75.52844,-119.581843 0,36.031333 29.04205,91.986743 90.02413,100.666743 z"
     inkscape:connector-curvature="0"
     sodipodi:nodetypes="cccc" />
  <path
     id="path33443-4"
     style="fill:#cc2918;fill-opacity:1;fill-rule:evenodd;stroke:#000000;stroke-width:1px;stroke-linecap:butt;stroke-linejoin:miter;stroke-opacity:1"
     d="m 72.035316,239.53346 c -7.03404,-2.13644 -13.99204,-4.42497 -20.32932,-7.95495 27.29881,-27.01438 52.724244,-83.99166 52.724244,-135.668523 0,28.701943 -4.49011,100.105803 -32.394924,143.623473 z"
     inkscape:connector-curvature="0"
     sodipodi:nodetypes="cccc" />
  <path
     id="path33445-1"
     style="fill:#cc2918;fill-opacity:1;fill-rule:evenodd;stroke:#000000;stroke-width:1px;stroke-linecap:butt;stroke-linejoin:miter;stroke-opacity:1"
     d="m 14.406109,196.57673 c 3.93976,7.55402 8.89105,13.69191 14.495687,18.9151 35.88758,-13.29154 75.528444,-58.80526 75.528444,-119.581843 0,36.031333 -29.042054,91.986743 -90.024131,100.666743 z"
     inkscape:connector-curvature="0"
     sodipodi:nodetypes="cccc" />
  <g
     id="g33651"
     transform="matrix(0.95752245,0,0,0.99944781,4.8977013,-3.6207344)"
     style="stroke-width:1.02222252">
    <path
       sodipodi:nodetypes="cssssssscccccccccccccssssccc"
       inkscape:connector-curvature="0"
       id="path33564"
       d="m 126.13017,29.43436 c 0.5288,-2.002213 -0.57489,-6.614396 4.68459,-7.424621 3.41617,-0.526263 9.14966,0.393483 14.49569,-2.916816 2.85185,-1.765882 20.02123,-0.718844 30.36269,5.407728 7.61809,4.513172 10.93762,13.611136 3.01853,23.190065 -8.67283,10.490653 -25.74023,18.651965 -32.27951,26.727549 -1.53371,1.894036 1.06756,7.690635 6.85324,5.309065 8.07675,-3.324646 18.95476,-8.39912 25.80939,-5.745242 5.01692,1.942377 12.83097,12.973539 22.62742,15.114407 -0.12421,1.092515 -2.20616,0.868979 -3.79442,1.543195 -0.007,1.068033 -2.59881,2.061153 -3.89537,2.699446 2.43978,1.663427 5.94778,0.763153 9.54595,-0.353554 0.0791,1.149049 -0.95243,2.298097 -1.76777,3.447146 1.31711,3.905152 -2.0394,5.139662 -3.71231,7.336232 -1.75962,7.83694 -10.1033,7.87054 -18.03122,8.39689 l -1.32583,3.97748 -5.65685,-0.53033 -1.14905,1.32582 c -3.84125,-4.70646 -8.00294,-7.49028 -12.55115,-7.95495 1.17828,3.21715 2.67317,6.68759 2.74004,9.01561 l -5.56846,1.591 c -6.38586,-5.80417 -16.21847,-11.19394 -29.96365,-17.41251 -6.10257,-2.760913 -20.12119,-16.679366 1.23743,-32.350135 12.8207,-9.406513 37.90434,-18.956502 45.25484,-29.749588 3.22506,-4.735508 -0.73994,-11.199213 -8.22012,-9.583227 -2.233,0.482408 -5.83317,2.562692 -8.92722,4.065864 -4.92617,7.488614 -16.90143,5.914102 -28.19589,5.214913 1.18686,-4.441546 0.75543,-7.784308 -1.59099,-10.341437 z"
       style="fill:#000000;fill-opacity:1;fill-rule:evenodd;stroke:#000000;stroke-width:1.02222252px;stroke-linecap:butt;stroke-linejoin:miter;stroke-opacity:1" />
    <path
       sodipodi:nodetypes="cccc"
       inkscape:connector-curvature="0"
       id="path33572"
       d="m 136.6875,134.97249 c 5.75537,0.27507 10.26522,2.32945 13.6875,5.9375 l 2.1875,-14.625 z"
       style="fill:#cc2918;fill-opacity:1;fill-rule:evenodd;stroke:#000000;stroke-width:1.02222252px;stroke-linecap:butt;stroke-linejoin:miter;stroke-opacity:1" />
    <path
       sodipodi:nodetypes="cccc"
       inkscape:connector-curvature="0"
       id="path33574"
       d="m 135.5625,134.34749 c -0.0625,-3.8125 1.20267,-7.625 -3.25,-11.4375 1.13554,-2.30548 11.49999,2.20832 17.25,3.3125 z"
       style="fill:#cc2918;fill-opacity:1;fill-rule:evenodd;stroke:#000000;stroke-width:1.02222252px;stroke-linecap:butt;stroke-linejoin:miter;stroke-opacity:1" />
    <path
       sodipodi:nodetypes="cccc"
       inkscape:connector-curvature="0"
       id="path33572-0"
       d="m 165.71736,138.24187 c 4.65294,-2.11025 8.8411,-3.85027 13.51848,-2.11011 l -2.14204,-10.49331 z"
       style="fill:#cc2918;fill-opacity:1;fill-rule:evenodd;stroke:#000000;stroke-width:1.02222252px;stroke-linecap:butt;stroke-linejoin:miter;stroke-opacity:1" />
    <path
       sodipodi:nodetypes="cccc"
       inkscape:connector-curvature="0"
       id="path33574-0"
       d="m 164.52757,138.03606 c -0.79216,-4.02069 -2.04342,-6.24215 -5.17769,-9.74523 0.29308,-2.39326 9.63226,-0.98059 15.06713,-1.78024 z"
       style="fill:#cc2918;fill-opacity:1;fill-rule:evenodd;stroke:#000000;stroke-width:1.02222252px;stroke-linecap:butt;stroke-linejoin:miter;stroke-opacity:1" />
    <path
       sodipodi:nodetypes="csc"
       inkscape:connector-curvature="0"
       id="path33597"
       d="m 149.19953,85.295796 c -5.9381,4.440997 0.78418,10.481025 6.27558,10.518214 2.30698,0.01562 7.84678,6.13611 12.37436,2.032932"
       style="fill:none;fill-rule:evenodd;stroke:#ffffff;stroke-width:1.02222252px;stroke-linecap:butt;stroke-linejoin:miter;stroke-opacity:1" />
    <path
       sodipodi:nodetypes="cc"
       inkscape:connector-curvature="0"
       id="path33599"
       d="m 183.67099,85.295796 c 4.35078,3.217243 11.21078,6.519153 14.98681,6.187644"
       style="fill:none;fill-rule:evenodd;stroke:#ffffff;stroke-width:1.02222252px;stroke-linecap:butt;stroke-linejoin:miter;stroke-opacity:1" />
    <path
       sodipodi:nodetypes="cc"
       inkscape:connector-curvature="0"
       id="path33601"
       d="m 180.93095,89.096495 c 3.81649,3.14604 11.12963,4.086524 15.92522,4.133266"
       style="fill:none;fill-rule:evenodd;stroke:#ffffff;stroke-width:1.02222252px;stroke-linecap:butt;stroke-linejoin:miter;stroke-opacity:1" />
    <path
       sodipodi:nodetypes="cc"
       inkscape:connector-curvature="0"
       id="path33603"
       d="m 177.26283,93.162359 c 6.74424,4.908613 14.15294,4.190235 18.03529,0.04327"
       style="fill:none;fill-rule:evenodd;stroke:#ffffff;stroke-width:1.02222252px;stroke-linecap:butt;stroke-linejoin:miter;stroke-opacity:1" />
    <path
       sodipodi:nodetypes="cc"
       inkscape:connector-curvature="0"
       id="path33605"
       d="m 172.46875,96.003737 c 5.43696,3.606339 11.10462,5.700893 15.96561,0.503141"
       style="fill:none;fill-rule:evenodd;stroke:#ffffff;stroke-width:1.02222252px;stroke-linecap:butt;stroke-linejoin:miter;stroke-opacity:1" />
    <path
       sodipodi:nodetypes="cc"
       inkscape:connector-curvature="0"
       id="path33607"
       d="m 192.625,100.09749 c 3.0862,-0.81858 7.13392,-1.423418 10.13787,-3.311209"
       style="fill:none;fill-rule:evenodd;stroke:#ffffff;stroke-width:1.02222252px;stroke-linecap:butt;stroke-linejoin:miter;stroke-opacity:1" />
    <path
       sodipodi:nodetypes="cc"
       inkscape:connector-curvature="0"
       id="path33609"
       d="m 192.67364,105.86331 c 1.71841,-0.23272 4.68937,-0.5899 6.17805,-1.51983"
       style="fill:none;fill-rule:evenodd;stroke:#ffffff;stroke-width:1.02222252px;stroke-linecap:butt;stroke-linejoin:miter;stroke-opacity:1" />
    <path
       sodipodi:nodetypes="cc"
       inkscape:connector-curvature="0"
       id="path33611"
       d="m 157.01903,30.671797 c 0.155,1.718092 0.0497,3.65405 -0.38323,4.607837"
       style="fill:none;fill-rule:evenodd;stroke:#ffffff;stroke-width:1.02222252px;stroke-linecap:butt;stroke-linejoin:miter;stroke-opacity:1" />
    <path
       sodipodi:nodetypes="cccc"
       inkscape:connector-curvature="0"
       id="path33566"
       d="m 110.13188,32.969894 c 2.20169,-6.793038 13.68188,-2.273728 21.9645,-6.761708 -1.20093,3.611753 -1.13771,6.71879 -0.21783,9.623607 -7.65409,-2.080788 -14.55684,-3.798777 -21.74667,-2.861899 z"
       style="fill:#cc2918;fill-opacity:1;fill-rule:evenodd;stroke:#000000;stroke-width:1.02222252px;stroke-linecap:butt;stroke-linejoin:miter;stroke-opacity:1" />
    <path
       sodipodi:nodetypes="cccc"
       inkscape:connector-curvature="0"
       id="path33568"
       d="m 109.86672,38.53836 c 0.42133,3.266872 14.04341,0.868306 19.21336,1.24816 0.49695,-1.59649 1.80149,-3.476612 2.99892,-4.253364 -6.85982,1.16803 -13.79005,2.506779 -22.21228,3.005204 z"
       style="fill:#cc2918;fill-opacity:1;fill-rule:evenodd;stroke:#000000;stroke-width:1.02222252px;stroke-linecap:butt;stroke-linejoin:miter;stroke-opacity:1" />
    <path
       sodipodi:nodetypes="cccccccccccccccccc"
       inkscape:connector-curvature="0"
       id="path33570"
       d="m 135.5625,137.72249 c -1.5483,-1.29327 -0.83964,-5.7114 2.375,-5.4375 l 8.6875,-4.9375 -12.30936,-3.78217 c -1.125,0.89547 -2.44508,1.21916 -3.57008,-0.52275 -0.79246,-0.35616 -1.47099,6.8e-4 -2.18306,0.42992 0.2023,-1.61338 2.82385,-5.0809 5.8125,-1.875 l 15.125,3.25 c 1.96448,0.19296 4.70779,-4.37365 7.0625,-6.5625 0.0329,-2.42763 -0.34467,-3.41866 -0.625,-4.75 2.37083,1.04698 9.31741,3.60155 4.75,6.9375 -3.36373,-0.13237 -6.5541,4.98163 -7.0625,6.375 -0.22985,0.73821 0.54948,2.73758 0.45895,3.81694 -0.29064,3.04516 -4.294,9.16927 -1.4277,11.99556 -1.46094,0.16459 -3.87772,0.67101 -3.03125,-3.5 0.89075,-4.04502 0.06,-5.71714 1.07322,-9.96783 l -11.79863,4.97227 c -0.86914,2.11264 -2.37449,0.66273 -3.33709,3.55806 z"
       style="fill:#cc2918;fill-opacity:1;fill-rule:evenodd;stroke:#000000;stroke-width:1.02222252px;stroke-linecap:butt;stroke-linejoin:miter;stroke-opacity:1" />
    <path
       sodipodi:nodetypes="cccccccccccccccccc"
       inkscape:connector-curvature="0"
       id="path33570-4"
       d="m 165.57105,141.02562 c -1.77137,-0.66688 -2.50962,-4.79955 0.42267,-5.55078 l 6.16902,-7.05954 -10.83582,-0.16328 c -0.71969,1.14101 -1.78897,1.83586 -3.32409,0.6407 -0.81209,-0.0705 -1.30282,0.45538 -1.80087,1.05575 -0.31962,-1.49167 0.93052,-5.37368 4.56912,-3.45791 l 13.16545,-1.17862 c 1.79984,-0.43642 3.52514,-6.16935 -0.0155,-9.89689 -1.16337,-1.27668 -0.69938,-2.61233 -0.7848,-3.79335 2.42384,0.19444 4.19637,0.97251 5.11513,4.45571 -0.32474,3.61854 -0.15548,6.7926 1.4601,8.40499 0.55503,0.63656 0.007,6.58609 1.49831,8.18888 -0.0673,1.90337 -1.36651,2.64379 0.58792,4.30533 -1.24325,0.59747 -3.22751,1.79325 -3.76727,-2.16312 -0.46161,-3.85846 -1.27252,-1.94499 -1.6892,-6.0235 l -8.91419,8.0522 c -0.11671,2.14008 -1.89846,1.32116 -1.85598,4.18343 z"
       style="fill:#cc2918;fill-opacity:1;fill-rule:evenodd;stroke:#000000;stroke-width:1.02222252px;stroke-linecap:butt;stroke-linejoin:miter;stroke-opacity:1" />
    <path
       sodipodi:nodetypes="ccc"
       inkscape:connector-curvature="0"
       id="path33628"
       d="m 137.1875,23.143455 c -0.16711,1.114363 -0.85635,1.920784 -1.34375,2.21875 3.76798,-0.595226 8.00639,-1.111598 11.59375,-0.53125"
       style="fill:none;fill-rule:evenodd;stroke:#ffffff;stroke-width:1.02222252px;stroke-linecap:butt;stroke-linejoin:miter;stroke-opacity:1" />
    <path
       sodipodi:nodetypes="cc"
       inkscape:connector-curvature="0"
       id="path33630"
       d="m 137.03125,26.268455 c -0.0833,2.665847 3.95833,1.792856 3.9375,-0.4375"
       style="fill:none;fill-rule:evenodd;stroke:#ffffff;stroke-width:1.02222252px;stroke-linecap:butt;stroke-linejoin:miter;stroke-opacity:1" />
  </g>
  <path
     inkscape:connector-curvature="0"
     style="fill:#ffffff;fill-opacity:0;fill-rule:evenodd;stroke:#000000;stroke-width:1.99999988;stroke-linecap:butt;stroke-miterlimit:4;stroke-dashoffset:0;stroke-opacity:1"
     id="path4212-8"
     d="M 1,0.99999834 4.761095,159.00304 c 2.686489,112.85918 196.651755,112.85918 199.338255,0 l 3.7611,-158.00304166 z" />
</svg>
