<?xml version="1.0" encoding="iso-8859-1"?>
<!-- Generator: Adobe Illustrator 10.0, SVG Export Plug-In . SVG Version: 3.0.0 Build 77)  -->

<svg  xmlns="http://www.w3.org/2000/svg" xmlns:xlink="http://www.w3.org/1999/xlink" xmlns:a="http://ns.adobe.com/AdobeSVGViewerExtensions/3.0/"
	 width="283.465" height="318.897" viewBox="0 0 283.465 318.897"
	 style="overflow:visible;enable-background:new 0 0 283.465 318.897" xml:space="preserve">
	<g id="CMYK_Wappen">
		<path style="fill-rule:evenodd;clip-rule:evenodd;" d="M0,0h283.465v177.165c0,78.278-63.455,141.732-141.732,141.732
			S0,255.443,0,177.165V0z"/>
		
			<path style="fill-rule:evenodd;clip-rule:evenodd;fill:#0093DD;stroke:#0093DD;stroke-width:0.2835;stroke-miterlimit:3.8637;" d="
			M158.509,290.632c4.555-0.311,9.173-0.706,13.683-1.481c2.289-0.394,19.098-4.187,21.723-5c3.189-0.989,6.941-1.92,9.476-3.077
			c0.573-0.262,0.426-0.911,0.499-1.537c0.068-0.581-0.004-0.919-0.1-1.497c-0.229-1.375-0.736-2.064-1.397-3.292
			c-0.544-1.014-1.07-1.702-1.589-2.486c-0.18-0.08-1.375,0.415-2.003,0.49c-1.727-3.743-2.695-7.754-3.892-11.694
			c-0.068-0.226,0.114-0.464,0.101-0.699c0.641-0.498,1.479-0.467,2.255-0.539c0.077-0.194,0.228-0.325,0.297-0.563
			c0.124-0.426-0.022-0.809-0.098-1.133c-0.364-1.566-1.141-3.148-1.397-4.729c-4.094-25.27-8.053-50.554-11.953-75.853
			c-0.508-3.295-1.905-11.983-1.996-13.091l0.16-1.038c1.551-3.954,3.079-7.917,4.656-11.86c0.563-1.406,1.014-3.056,1.71-4.383
			c0.198-0.378,0.902-1.557,0.997-1.696c0.528-0.778,1.642-1.197,1.797-2.335c0.041-0.309,0.112-0.508,0-0.798
			c-0.194-0.5-0.975-0.476-1.189-0.69c-0.027-0.121,1.914-9.028,1.914-9.028c0.214-1.098,0.344-2.251,0.612-3.333
			c0.218-0.878,0.922-2.01,0.918-3.373c-0.003-1.227-0.759-1.908-0.759-3.053c0.643,1.148,2.674,4.385,3.572,5.029
			c0.614,0.44,2.854,1.287,3.605,1.363c0.24,0.024,0.934,0.334,1.525,0.228c1.833-0.331-1.226-2.711-1.398-4.564
			c-0.135-1.437,0.203-3.242,0.239-3.692c0.31-3.902,0.853-7.8,1.257-11.694c0.478-4.595,1.036-9.104,0.998-14.947
			c-0.014-2.118-0.102-3.312-0.18-5.428c-0.202-5.481-0.656-9.379-0.658-14.049c-0.201-0.211-0.514-0.532-0.659-0.778
			c-0.863-1.47-3.472-5.191-3.472-6.984c0.383-0.656,0.742-1.274,1.343-1.995c0.623-0.747,1.255-0.925,1.79-1.737
			c0.473-0.717,0.703-1.188,0.838-2.036c0.163-1.022,0.057-1.672-0.326-2.634c-0.885-2.229-2.701-2.819-5.182-3.313
			c-1.217-0.242-17.074-3.331-18.141-3.612c-2.55-0.672-12.425-3.914-14.348-3.852c-0.643,0.021-1.567,0.428-2.235,0.559
			c-0.292-1.431-0.703-2.848-0.938-4.29c1.033-0.84,2.13-1.85,2.974-2.874c0.807-0.979,0.726-1.59,1.197-2.395
			c0.158-0.27,0.576-0.61,0.799-0.858c0.897-0.145,6.206,0.934,7.184,1.098c1.045,0.176,2.502,0.55,3.769-0.199
			c1.957-1.159,2.641-3.779,1.375-5.669c-0.728-1.086-2.736-1.686-2.868-1.734c-3.267-1.206-6.723-1.749-9.958-3.093
			c-0.125-2.692-0.178-4.25-1.317-6.625c-0.702-1.464-1.241-2.251-2.354-3.433c-1.827-1.939-3.317-2.633-5.787-3.632
			c-3.256-1.316-5.462-2.066-8.9-1.357c-1.883,0.388-3.525,1.237-4.551,1.896c-1.149,0.739-1.89,1.503-3.173,2.095
			c-3.49-1.163-7.3-3.788-10.337-5.827c-2.668-0.108-6.171,4.615-5.423,6.321c4.021,3.216,7.556,4.942,12.128,7.229
			c-0.021,0.115-0.126,0.779-0.16,0.838c-1.203,2.134-4.796,6.531-6.525,8.461c0.092,2.053,0.392,2.298,2.056,3.492
			c-0.011,0.471-0.182,0.906-0.359,1.337c0.063,0.174,0.104,0.374,0.1,0.559c0.349,0.295,0.709,0.581,1.038,0.898v0.339
			c-0.355,0.178-0.725,0.321-1.078,0.499c-0.615,0.308-0.241,1.359-0.358,2.036c-0.063,0.362,0.705,0.262,1.058,0.359
			c-0.045,0.697,0.06,1.795-0.1,2.435c-0.378,1.508-2.012,3.669-2.495,5.289c-0.148,0.497-0.321,1.135-0.159,1.835
			c0.508,2.2,3.998,0.655,5.787,0.101c0.076-0.132,0.182-0.262,0.299-0.359c0,0,2.326,0.785,3.572,0.16
			c0.462-0.232,0.741-0.426,1.058-0.799c0.624-0.026,1.327,0.034,1.937-0.04c0.09-0.011,0.504-0.25,0.658-0.299
			c0.078,0.091,0.176,0.178,0.279,0.239c0.584,1.88,1.09,3.663,1.257,5.627c-3.831,1.898-10.364,5.573-14.747,5.827
			c0.479,1.048,0.572,1.935,0.897,2.994c0.33,1.071,1.116,8.622,0.858,9.459c-0.319,1.037-1.549,3.054-2.096,4.124
			c-2.229,4.365-17.302,26.51-19.218,28.982c-0.58,0.13-1.164,0.165-1.756,0.1c-0.278-0.291-0.431-0.767-0.898-0.798
			c-1.364-0.091-4.899,2.356-7.004,3.033c-4.069,1.309-8.346,2.257-12.493,3.313c-1.665,0.424-3.429,0.76-5.049,1.337
			c-2.165-1.037-3.975-2.627-6.026-3.852c-0.168-0.1-1.833-0.561-2.136-0.639c-3.395-10.09-6.61-20.237-9.925-30.353
			c-1.222-3.728-7.058-23.148-7.058-23.148c-3.359-13.313-21.402-12.546-23.854,1.55c-0.454,2.611-0.097,5.779,1.124,8.069
			c0.751,1.408,1.786,2.478,3.373,2.315c0.697-0.072,1.18-0.318,1.663-0.686c3.516-2.672-0.134-12.441,5.122-12.465
			c0.954-0.004,1.598-0.095,2.414,0.399c0.874,0.529,1.19,1.327,1.517,2.135c0.654,1.618,1.01,3.418,1.544,5.082l4.443,13.916
			c3.919,12.253,7.958,24.475,11.714,36.778c0.053,0.172-0.053,0.359-0.04,0.539c-1.661,0.759-4.293,0.519-5.229,2.595
			c-0.206,0.458-0.32,0.736-0.358,1.237c-0.139,1.796,1.023,2.05,3.133,3.393c0.179,0.713,0.162,1.501,0.359,2.195
			c0.612,2.16,0.902,6.474,3.792,8.9c0.49,0.413,0.778,0.642,1.337,0.958c1.363,0.771,2.931,0.807,3.892,0.998
			c0.532,1.438,1.101,2.873,1.576,4.33c9.64,29.563,29.074,89.484,29.236,89.781c-1.405,7.095-3.004,14.14-4.504,21.213
			c-0.258,1.213-0.441,2.56-0.825,3.732c-0.12,0.368-0.967,2.949-0.997,3.892c0.351,0.325,4.916,1.223,5.428,1.337
			c-0.089,0.188-0.158,0.395-0.199,0.599c-0.601,0.365-1.142,0.905-1.677,1.357c-1.979,1.672-4.521,4.144-6.586,5.508
			c-0.763,0.504-8.692,0.425-9.958,0.359c-2.379-0.124-4.969-0.322-7.324-0.659c-0.428-0.061-0.863-0.27-1.297-0.339
			c-0.712-0.113-3.105-0.172-3.731,0l-1.337,0.838c-0.106,0.796,0.316,1.687-0.301,2.4c-0.393,0.455-0.901,0.492-1.355,0.733
			c-0.651,1.447-2.256,3.188-1.906,5.39c0.122,0.771,0.219,1.238,0.639,1.896c0.882,1.382,3.188,1.67,3.742,1.914l31.425,7.697
			c2.937,0.406,5.762,1.383,8.727,1.383c0.583-0.651,1.087-1.385,1.357-2.235c0.229-0.719,0.786-4.448,0.538-5.128
			c-0.274-0.755-1.123-1.674-1.896-1.936c0.104-0.135,0.766-1.059,0.798-1.157c0.496-1.488,0.543-3.316,0.858-4.869
			c0.477-2.345,1.09-4.734,2.036-6.925c1.87,5.986,3.994,11.904,5.767,17.92c0.186,0.149,0.39,0.287,0.599,0.399
			c0.391-0.022,0.83,0.003,1.357-0.04c1.965-0.159,3.303-0.523,4.869-1.357c0.272-0.146,0.48-0.187,0.658-0.439
			c0.164-0.231,0.292-0.43,0.2-0.698c-1.092-3.195-4.48-12.75-4.48-12.75c0.766-0.051,3.76-0.357,4.121-0.4
			c4.68-0.554,9.351-1.175,14.029-1.736c3.319-0.398,6.672-0.714,9.979-1.197c9.458-1.385,18.892-3.053,28.337-4.53
			c-0.241,1.108-0.326,2.252-0.498,3.373c-0.267-0.014-1.499-0.246-1.696-0.2c-2.373,0.559-8.957,5.983-10.697,8.082
			c-0.053,0.398-0.112,0.794-0.1,1.197c0.171,0.095-3.383,2.073-3.651,2.175c-0.954,0.362-2.06,0.409-3.033,0.699
			c-0.472,0.14-0.935,0.421-1.397,0.599c-0.11,0.235-0.349,0.426-0.439,0.658c-0.436,1.127-0.493,2.565-0.997,3.632
			c-0.167,0.353-0.602,0.673-0.799,1.038c-0.395,0.732-0.339,1.511-0.339,2.315C156.732,288.64,156.787,289.504,158.509,290.632z
			 M6.219,6.26h270.99v170.218c0,75.208-60.662,136.174-135.495,136.174S6.219,251.686,6.219,176.478V6.26z M80.191,134.261
			c0,0,4.296-0.238,4.778-0.243c1.301,6.522,2.539,13.208,4.47,19.577c1.098,0,2.286-0.687,3.363-1.001
			c3.535-1.033,6.883-2.355,10.387-3.489c3.333-1.078,11.578-3.913,12.453-4.271c-0.378-1.941-1.147-3.874-1.397-5.827
			c1.786-0.901,6.653-4.268,7.502-5.08c0.013,0.771,0.107,1.932-0.038,2.686c-3.345,17.337-6.702,34.672-10.078,52.004
			l-3.199,16.563c-0.563,2.946-1.962,9.747-1.962,9.747S80.238,134.609,80.191,134.261z"/>
		<g>
			<path style="fill-rule:evenodd;clip-rule:evenodd;fill:#FFFFFF;" d="M160.454,190.482c-0.516,2.356,4.093-0.766,5.583-2.662
				c0.809-1.028,1.021-2.048,1.378-3.057c0.273-0.773,3.374-8.193,4.313-11.227c0.178-0.575,0.179-1.259,0.303-1.854
				c-2.877-0.235-5.696-0.567-8.546-0.907c-0.98-0.116-2.127,0-3.124,0c-0.627,2.398-2.754,9.81-2.754,11.806
				c0,0.86,1.461-0.65,2.209-0.941c0.753-2.259,1.441-4.544,2.218-6.792c0.267-0.2,0.388-0.207,0.645-0.041
				c0.101,0.316,0.869,3.366,0.847,3.467C162.602,182.378,161.013,187.932,160.454,190.482z"/>
			<path style="fill-rule:evenodd;clip-rule:evenodd;fill:#FFFFFF;" d="M72.178,132.283c0.768,0.08,1.233,0.11,1.976-0.1
				c1.016-0.287,1.723-0.585,2.255-1.497c0.608-1.042,0.201-1.904,0-3.093c-0.219-1.299-0.361-2.124-1.157-3.173
				c-0.533-0.703-1.146-0.986-1.696-1.497c-0.095-0.017-1.682,0.469-2.235,0.639c-1.58,0.484-3.133,0.722-4.77,0.898l0.04,0.998
				c0.641,1.694,0.438,3.97,2.195,5.428C69.887,131.799,70.755,132.136,72.178,132.283z"/>
			<path style="fill-rule:evenodd;clip-rule:evenodd;fill:#FFFFFF;" d="M83.972,129.149c-0.575-3.017-0.879-5.955-1.995-8.86
				c-2.562-1.563-5.154-3.078-7.724-4.63c-1.007-0.608-8.88,3.718-10.058,4.171v0.659c1.416,0.259,3.043,0.673,4.49,0.399
				c0.316-0.06,1.665-0.622,1.995-0.798c0.215-0.114,0.407-0.262,0.684-0.398c0.764-0.375,1.259-0.619,2.107-0.562
				c0.792,0.053,1.74,0.138,1.897,0.738c0.069,0.268,1.155,1.767,1.379,1.918c1.019,0.688,1.956,1.066,2.968,1.691
				c0.34,0.21,0.669,0.627,0.737,1.159c0.062,0.472,0.015,0.834-0.313,1.181c-0.26,0.274-0.677,0.297-0.882,0.4
				c0.151,1.084,0.646,2.143,0.722,3.232C81.883,129.682,82.104,129.758,83.972,129.149z"/>
			<path style="fill-rule:evenodd;clip-rule:evenodd;fill:#FFFFFF;" d="M161.502,281.672c0.981-0.115,2.027-0.088,2.993-0.24
				c2.716-0.427,5.466-1.22,8.162-1.796c-0.589-0.795-1.353-1.396-2.135-1.996c-0.079-0.013-0.503-0.078-0.56-0.06
				c-2.028,0.649-3.937,1.958-5.967,2.654c-0.746,0.256-1.573,0.364-2.335,0.599L161.502,281.672z"/>
			<path style="fill-rule:evenodd;clip-rule:evenodd;fill:#FFFFFF;" d="M103.416,275.301c1.45-0.202,1.573-0.101,2.964-0.889
				c1.124-2.65,2.189-5.326,3.299-7.981c-1.003,0.294-1.453,1.015-2.706,1.225c-0.941,1.368-1.571,3.004-2.41,4.445
				c-0.731,0.22-0.95,0.278-1.132,0.395c-0.182,0.115-0.326,0.288-0.903,0.731c-0.023,0.319-0.04,0.627-0.04,0.948
				C102.726,274.574,102.972,275.086,103.416,275.301z M108.079,280.175c-0.164,0.02-1.295,0.172-1.357,0.16
				c-4.606-0.893-9.22-1.721-13.789-2.793c-0.04-0.614-0.083-1.407-0.24-1.996c-0.283-1.064-0.957-3.332-0.957-3.332
				c0.546,0.243,0.752,0.255,1.356,0.239c1.73-1.298,12.375-10.673,12.593-10.896c2.549,0.448,5.124,0.79,7.663,1.297
				c-0.02,0.174,0.006,0.372,0.06,0.539c-0.978,2.305-1.984,4.774-2.654,7.184c-0.536,1.93-1.469,7.218-1.637,7.763
				C108.928,278.956,108.57,279.718,108.079,280.175z"/>
			<path style="fill-rule:evenodd;clip-rule:evenodd;fill:#FFFFFF;" d="M190.048,270.676c0.259-0.059,0.555-0.002,0.89-0.099
				c0.941-0.273,1.507-0.835,1.778-1.778c0.139-0.481,0.117-0.931,0.039-1.284c-0.33-1.486-1.074-3.013-1.521-4.484
				c-0.139-0.125-0.294-0.24-0.454-0.336h-0.83c0.296,1.529,1.171,3.577-0.102,5.111c-0.237,0.286-0.471,0.426-0.688,0.657
				c-0.026,0.525-0.021,1.057-0.059,1.581C189.41,270.262,189.726,270.476,190.048,270.676z M188.702,276.204
				c-1.039-1.17-3.731-4.295-4.051-4.65c-0.672-0.744-1.464-1.423-2.176-2.135c0.005-1.676,0.771-5.376,0.998-7.264
				c1.853-0.322,7.482-1.385,8.385-1.449c0.257,0.906,3.081,11.834,3.549,12.444v1.098
				C193.193,275.024,190.993,275.7,188.702,276.204z"/>
			<path style="fill-rule:evenodd;clip-rule:evenodd;fill:#FFFFFF;" d="M78.504,274.049c-0.216-0.951-0.418-1.916-0.599-2.874
				c-0.439-0.356-4.474-0.558-5.029-0.599c0.086,0.548,0.156,1.123,0.2,1.676C73.724,272.539,77.87,274.049,78.504,274.049z"/>
			<path style="fill-rule:evenodd;clip-rule:evenodd;fill:#FFFFFF;" d="M148.025,57.872c0.274-0.024,7.438-3.589,9.046-4.574
				c0.695-0.426,2.564-1.926,2.564-1.926c-0.33-0.08-1.156-0.126-1.427-0.35c-0.808-0.665-1.596-5.226-1.836-6.326
				c-0.642-0.161-1.866-0.125-1.836-0.998c2.797-1.365,5.378-2.713,6.466-5.887c-0.15,0.064-0.334,0.105-0.499,0.1
				c-2.059,2.49-3.853,3.367-6.965,3.692c0.05-0.271,0.063-0.579,0.14-0.838c2.064-1.096,2.768-1.75,4.191-3.553
				c0,0-0.362-0.691-0.539-0.678c-0.507,1.629-2.079,2.04-3.393,2.874c-0.089,0.057-0.538,0.715-0.658,0.858
				c0.028,1.881,0.14,3.953-1.038,6.026c-0.7,1.232-1.312,1.82-2.395,2.734c-1.327,1.119-2.774,0.946-3.872,2.195
				C146.136,52.916,147.363,56.249,148.025,57.872z"/>
			<path style="fill-rule:evenodd;clip-rule:evenodd;fill:#FFFFFF;" d="M132.266,50.963c0.542-0.197,0.621-0.222,0.989-0.422
				c1.191-0.647,1.659-1.378,2.403-2.511c0.73-1.11,1.06-2.49,1.337-3.133c0.295,0.06,0.488,0.265,0.659,0.499
				c-0.05,0.815,0.012,1.999-0.185,3.255c-0.131,0.834-0.422,1.432-0.475,2.113c0.22,0.126,0.451,0.014,0.659-0.1
				c0.832-0.455,1.69-2.293,1.995-3.133c0.414-1.138,0.446-2.63,0.738-3.831l0.399,0.398c0.423,1.735,0.359,3.293,0.359,5.069
				c1.337-0.287,1.954-2.477,2.329-4.371c0.25-1.26,0.006-2.313,0.006-3.292c0.124,0.119,0.915,0.764,0.938,0.798
				c0.493,0.728,1.014,2.816,1.058,3.692c0.019,0.36-0.113,0.756-0.1,1.137c0.256,0.042,0.474-0.717,0.525-0.852
				c1.109-2.842,0.214-5.117-0.286-7.969c0.298-0.015,1.309,0.208,1.797,0.799c0.331,0.4,0.318,0.749,0.498,1.237
				c0.729,1.973,1,2.873,1.238,5.249c0.575-0.786,1.313-2.512,1.297-3.433c-0.013-0.676-0.998-6.439-0.938-6.585
				c0.422-0.229,0.853-0.458,1.298-0.639c0.752,0.828,1.13,1.822,1.636,2.833c0,0,0.208,0.075,0.346,0.1
				c1.245,0.23,1.71-0.918,1.949-2.595c-1.419-0.604-2.664-1.229-4.19-1.536c-1.474,0.83-2.818,1.271-4.471,1.696
				c0,0-0.325-0.244-0.459-0.459c-0.307-0.496-0.076-0.918,0-1.497c0.141-1.053,0.998-1.382,0.998-2.534
				c-1.674-0.628-3.372-1.228-5.029-1.896c-0.06,0.563-0.125,1.192-0.1,1.756c-0.559,0.762-0.996,1.484-1.936,1.437
				c-0.898-0.046-1.693-0.599-1.756-1.497c-0.025-0.358,0.153-0.82,0.199-0.898c0.282-0.481,1.728-1.695,1.796-1.896
				c-0.371-0.229-1.464-0.895-1.653-0.915c-0.866,2.33-3.855,5.915-5.61,7.739v0.459c0.899,0.479,1.68,0.58,2.694,0.739v2.495
				c-0.687-0.073-1.368-0.144-2.056-0.2c-0.085,0.243-0.144,0.488-0.2,0.738c0.074,0.114,0.145,0.235,0.2,0.359
				c1.411,0.235,2.836,0.577,4.23,0.898c0.107,0.149,0.203,0.323,0.26,0.499c-0.521,2.345-0.082,1.784-2.595,2.435
				c-0.161,0.287-0.392,0.543-0.599,0.798C134.277,47.772,133.466,47.728,132.266,50.963z"/>
			<g>
				<path style="fill-rule:evenodd;clip-rule:evenodd;fill:#FFFFFF;" d="M123.476,282.734l0.982-0.362l-6.6-19
					c-0.256-0.072-0.87,0.45-1.133,0.4L123.476,282.734z"/>
				<path style="fill-rule:evenodd;clip-rule:evenodd;fill:#FFFFFF;" d="M104.247,225.257c0.279-0.644,0.89-2.401,0.778-3.106
					c-0.427-2.701-6.521-20.073-8.295-25.816c-6.293-20.374-13.092-40.595-19.724-60.858c-0.529,0.239-1.426,0.451-1.981,0.619
					c0.303,1.088,20.368,62.049,20.368,62.049c1.954,6,3.935,11.992,5.907,17.986C102.207,218.884,103.624,222.454,104.247,225.257z
					"/>
				<path style="fill-rule:evenodd;clip-rule:evenodd;fill:#FFFFFF;" d="M70.042,112.467c-0.646,0.189-1.655,0.556-2.351,0.628
					c-0.105-0.15-10.655-35.008-16.089-52.054c-0.889-2.79-2.331-4.535-5.133-5.613c-1.201-0.462-2.761-0.516-3.945,0.027
					c-5.308,2.433-3.159,10.38-5.11,12.032c-0.748,0.633-1.759-0.426-1.856-1.178c-0.391-3.009-0.437-6.1,0.858-8.92
					c3.057-6.656,11.646-7.428,15.965-1.597c2.065,2.788,3.469,9.889,4.59,13.49C61.439,83.631,65.992,97.992,70.042,112.467z"/>
			</g>
		</g>
		<g>
			
				<path style="fill-rule:evenodd;clip-rule:evenodd;fill:#744223;stroke:#744223;stroke-width:0.2835;stroke-miterlimit:3.8637;" d="
				M200.358,277.817c0.007-0.371-0.063-0.721-0.261-1.127c-0.159-0.327-0.229-0.587-0.553-0.751
				c-0.329-0.166-0.944,0.006-0.944,0.006c-0.219,0.321-17.107,4.923-20.854,5.728l-12.812,2.733
				c-1.428,0.303-2.926,0.445-4.371,0.659c-0.212,0.031-0.253,0.352-0.359,0.539c-0.192,0.341,0.371,0.654,0.759,0.898
				c0.356,0.225,0.618,0.329,1.038,0.299c1.357-0.094,2.417-0.498,3.572-0.718c2.753-0.526,16.659-3.362,20.834-4.351
				C187.77,281.409,200.16,277.724,200.358,277.817z"/>
			
				<path style="fill-rule:evenodd;clip-rule:evenodd;fill:#744223;stroke:#744223;stroke-width:0.2835;stroke-miterlimit:3.8637;" d="
				M109.525,285.206c0.489-0.452,0.556-1.237,0.19-1.698c-0.635-0.802-19.737-4.436-23.413-5.302
				c-2.106-0.497-14.556-4.834-15.682-3.897c-0.394,0.327-1.1,1.138-0.818,1.563c0.732,1.109,15.299,4.91,18.46,5.72
				c4.387,1.124,9,2.193,13.49,2.813c1.049,0.146,3.85,0.854,4.272,0.912C107.04,285.454,108.803,285.872,109.525,285.206z"/>
			
				<path style="fill-rule:evenodd;clip-rule:evenodd;fill:#744223;stroke:#744223;stroke-width:0.2835;stroke-miterlimit:3.8637;" d="
				M176.748,279.037c2.444-0.617,7.634-1.762,7.703-1.855c-1.626-2.144-3.544-4.386-5.667-6.066
				c-0.565-0.447-1.29-0.794-1.896-1.197c-0.609,0.394-1.304,0.69-1.896,1.097c-1.352,0.929-2.692,2.06-3.972,3.093
				C171.021,274.108,174.93,277.543,176.748,279.037z"/>
			
				<path style="fill-rule:evenodd;clip-rule:evenodd;fill:#744223;stroke:#744223;stroke-width:0.2835;stroke-miterlimit:3.8637;" d="
				M89.799,276.842c-0.384-1.719-0.909-3.418-1.337-5.128c-2.371-0.058-4.981,0.124-7.324-0.359
				c0.124,1.227,0.329,2.469,0.499,3.692C84.269,275.674,87.103,276.842,89.799,276.842z"/>
			
				<path style="fill-rule:evenodd;clip-rule:evenodd;fill:#744223;stroke:#744223;stroke-width:0.2835;stroke-miterlimit:3.8637;" d="
				M127.796,265.088c7.625-0.847,15.301-1.476,22.909-2.435c2.204-0.278,4.41-0.678,6.606-1.018
				c3.644-0.563,15.439-2.475,17.681-2.894l8.022-1.496c2.205-0.412,4.486-0.705,6.665-1.218c0.486-0.114,1.313-0.201,1.79-0.378
				c-0.184-1.363-0.479-2.999-0.692-4.352c-1.808-11.488-3.36-23.045-5.328-34.503c-0.88-5.122-4.032-26.132-4.391-28.836
				c-0.72-5.434-1.798-10.823-2.614-16.244c-0.839-0.186-1.802-0.326-2.554,0.2c-0.824,2.91-1.529,5.975-2.535,8.82
				c-1.149,3.254-1.516,6.474-4.386,9.248c-0.25,0.241-0.397,0.371-0.659,0.599c-2.932,2.56-5.709,3.328-8.805,4.701
				c-0.034,0.015-1.066,0-1.197,0c-0.866-0.653-2.12-0.717-2.672-1.861c-0.722-1.494,0.655-2.761,1.036-4.125
				c0.275-0.991,0.732-2.066,0.838-3.093c-1.03,0.165-2.675,0.662-4.028-0.137c-1.457-0.86,4.075-15.082,4.099-15.583
				c-0.783-0.3-2.144-0.771-2.951-1c-1.322-0.375,2.057-15.791,2.781-21.116c0.451-3.322,1.131-6.667,0.857-10.018
				c0.383-0.254,2.307-0.224,2.734-0.24c0.418-3.278,0.499-6.514,0.499-9.818c-0.222,0.062-3.758,1.381-5.328,1.896
				c-1.594,0.522-3.337,0.966-4.97,1.356c-5.797,1.389-12.608,2.35-18.579,2.275c-2.222-0.028-4.461-0.321-6.686-0.399
				C126.67,177.312,126.721,221.207,127.796,265.088z"/>
			
				<path style="fill-rule:evenodd;clip-rule:evenodd;fill:#744223;stroke:#744223;stroke-width:0.2835;stroke-miterlimit:3.8637;" d="
				M124.136,259.706c-0.212-12.33,0.066-24.954-0.072-37.283c-0.288-25.73-0.624-51.462-0.997-77.189
				c-0.451,1.672-0.863,3.429-1.197,5.128l-12.593,64.098c-2.679,13.646-5.426,27.282-7.883,40.969
				c4.611,0.935,9.203,1.906,13.83,2.774C117.364,258.605,123.359,259.706,124.136,259.706z"/>
			
				<path style="fill-rule:evenodd;clip-rule:evenodd;fill:#744223;stroke:#744223;stroke-width:0.2835;stroke-miterlimit:3.8637;" d="
				M176.09,166.846c2.854-7.427,5.902-14.794,8.621-22.271c-7.839-0.417-15.45-1.943-23.209-2.973
				c-0.524,4.639-1.006,9.299-1.597,13.929c-0.444,3.481-1.503,7.105-1.437,10.616c0.146,0.096,0.966,0.722,1.037,0.738
				c1.277,0.299,6.574,0.851,7.982,0.898c0.981,0.033,5.402-0.102,6.267-0.24C174.483,167.428,175.363,167.058,176.09,166.846z"/>
			
				<path style="fill-rule:evenodd;clip-rule:evenodd;fill:#744223;stroke:#744223;stroke-width:0.2835;stroke-miterlimit:3.8637;" d="
				M91.097,148.067c1.758-0.571,3.529-1.151,5.308-1.656c1.038-0.294,2.128-0.465,3.153-0.778c3.264-0.997,6.463-2.292,9.719-3.333
				c0.011-0.496,0.188-1.124,0.14-1.596c-0.251-2.419-0.89-4.906-1.304-7.311c-0.636-3.687-1.165-7.484-1.989-11.129
				c-0.637-2.819-1.36-5.554-1.876-8.401c-2.96,0.575-5.908,1.474-8.82,2.255c-3.435,0.922-6.877,1.813-10.317,2.714
				c0.936,4.952,1.838,9.912,2.754,14.867c0.361,1.955,0.584,3.969,0.998,5.907C88.964,140.087,90.744,147.775,91.097,148.067z"/>
			
				<path style="fill-rule:evenodd;clip-rule:evenodd;fill:#744223;stroke:#744223;stroke-width:0.2835;stroke-miterlimit:3.8637;" d="
				M185.803,141.539c0.221-0.515,0.41-1.763,0.505-2.292c0.782-4.396,1.675-8.731,2.634-13.091v-1.337
				c-1.481-5.062-8.135-33.286-10.457-42.187c-0.479-1.84-2.235-7.721-2.634-8.761c-1.103-2.872-1.307-5.614-3.391-8.521
				c-0.48-0.67-0.721-1.084-1.324-1.646c-0.974-0.908-1.662-1.316-2.969-1.688c-4.031-1.146-8.586-0.438-12.832-0.399
				c-1.281,0.012-5.678,0.125-6.525,0.26c-2.371,0.374-4.853,1.398-7.124,2.135c-2.444,3.858-3.2,8.888-4.69,13.151
				c-0.634,1.815-1.671,3.519-2.334,5.328c-3.412,9.304-6.687,21.057-6.965,31.011c-0.092,3.26,0.126,6.553,0.1,9.818
				c3.382,0.08,6.924,0.219,10.297,0.04c2.819-0.149,11.206-1.435,13.95-2.275c2.284-0.699,4.655-1.748,6.824-2.754
				c0.153-0.667-3.586-20.835-5.049-28.237c-0.411-2.08-1.516-5.501-1.576-7.962c-0.013-0.491,0.114-0.762,0.239-1.237
				c0.854-3.238,4.484-4.886,5.71-6.413c0.295-0.094-1.696,4.155-1.958,4.876c-0.272,0.75-0.511,3.539-0.499,4.271
				c0.005,0.309,1.214,6.343,1.696,8.96c1.018,5.515,4.481,24.933,5.309,29.095c1.265-0.019,7.923-0.359,7.923-0.359
				c1.397,0.539,4.134,2.143,4.15,2.314c-3.444,0.272-6.928,0.62-10.317,1.317c-0.105,4.548-0.232,9.101-0.26,13.649
				c2.467,0.894,15.612,2.423,18.181,2.634C183.384,141.322,184.82,141.592,185.803,141.539z"/>
			
				<path style="fill-rule:evenodd;clip-rule:evenodd;fill:#744223;stroke:#744223;stroke-width:0.2835;stroke-miterlimit:3.8637;" d="
				M120.072,129.788c-0.116-0.215-0.61-1.155-0.638-1.337c-0.011-0.066-0.082-1.307,0-2.135c0.13-1.337,0.059-2.261,0.868-3.333
				c0.78-1.031,1.42-1.826,2.833-1.722c0.984,0.073,1.452,1.144,1.826,1.961c0.155-1.757-0.064-3.656-0.086-5.421
				c-0.039-3.076,0.064-6.999,0.485-10.064c0.373-2.718,1.076-6.472,1.676-9.16c1.246-5.583,3.099-10.063,3.253-15.944
				c-1.84,3.789-4.766,8.641-7.084,12.153c-1.479,2.24-5.684,8.069-6.167,8.821c-1.442,2.24-2.983,4.428-4.49,6.625
				c-0.023,0.035-0.11,0.708-0.1,0.738c0.778,2.127,2.646,8.556,2.595,8.621c-3.371-3.37-3.399-1.359-4.83-6.984
				c-0.582,0.022-1.034,0.092-1.596,0.259c0,2.443,0.698,4.66,1.237,7.038c0.803,3.548,2.514,12.037,2.594,12.679
				c0.11,0.879,0.482,1.898,0.759,2.714l0.639-0.379C115.474,133.95,118.979,131.209,120.072,129.788z"/>
			
				<path style="fill-rule:evenodd;clip-rule:evenodd;fill:#744223;stroke:#744223;stroke-width:0.2835;stroke-miterlimit:3.8637;" d="
				M149.803,129.039c2.98-0.764,6.491-2.143,7.488-2.484c1.103-0.377,2.623-0.738,3.173-1.497c0-0.776-1.378-3.409-2.354-3.572
				c-1.159-0.193-7.492,3.07-12.532,4.071c-3.702,0.735-5.85,0.885-9.619,1.058c-5.183,0.237-11.872-0.447-13.291-0.559
				c-0.255,0.121-0.494,0.259-0.758,0.359c-0.104,0.938,0.393,3.1,0.949,3.401c1.944,1.055,6.55,0.922,10.765,0.969
				C139.97,130.856,143.654,130.615,149.803,129.039z"/>
			
				<path style="fill-rule:evenodd;clip-rule:evenodd;fill:#744223;stroke:#744223;stroke-width:0.2835;stroke-miterlimit:3.8637;" d="
				M195.866,122.464c0.48-9.729,1.279-19.454,1.896-29.175c0.072-1.149-0.137-2.49-0.2-3.652c-0.159-2.937-0.26-11.876-0.299-15.306
				c-0.006-0.487-0.193-0.739-0.359-1.197c-0.919-2.532-2.735-3.765-4.271-5.428c0-2.2,3.266-2.626,3.532-5.288
				c-5.935-0.127-11.964-0.754-17.881-0.24c0.964,1.233,2.738,2.133,3.931,3.133c2.66,2.23,5.198,4.625,7.863,6.865v0.26
				c-1.327-0.427-3.542-1.151-4.869-1.357c-0.066-0.01-6.812-4.578-6.925-4.57c1.251,1.33,2.696,2.607,3.831,4.031
				c2.086,2.615,3.837,5.497,5.987,8.063c0.027,0.234,0.04,0.463,0.04,0.698c-0.996-0.398-4.597-1.96-5.174-2.594
				c-0.708-0.777-2.944-3.056-2.944-3.056c0.542,1.816,1.417,4.131,1.951,5.949c1.742,5.921,3.604,21.828,8.661,35.002
				c0.65,1.693,1.139,2.616,2.136,4.131C193.813,120.312,195.866,122.464,195.866,122.464z"/>
			
				<path style="fill-rule:evenodd;clip-rule:evenodd;fill:#744223;stroke:#744223;stroke-width:0.2835;stroke-miterlimit:3.8637;" d="
				M133.423,77.364c0.647-1.074,0.961-2.742,1.364-3.925c1.048-3.071,2.074-6.15,3.106-9.226c-1.872,0.759-3.777,1.423-5.668,2.135
				C132.119,67.003,133.078,74.338,133.423,77.364z"/>
			
				<path style="fill-rule:evenodd;clip-rule:evenodd;fill:#744223;stroke:#744223;stroke-width:0.2835;stroke-miterlimit:3.8637;" d="
				M197.358,59.706c0,0,0.089-0.395,0.005-0.621c-0.15-0.406-0.569-0.37-0.958-0.559c-1.352-0.659-2.542-0.493-3.785-0.732
				c0,0-17.585-3.7-20.029-4.317c-1.424-0.36-2.983-0.889-4.464-0.958c1.208,0.697,5.731,5.614,6.127,6.405
				c-0.598-0.012-1.198-0.074-1.796-0.1c-1.108-0.784-7.548-4.596-9.719-5.527c-0.725,0.737-6.212,5.636-6.207,5.787
				c3.248,0.107,6.511,0.239,9.759,0.239C168.177,59.324,195.229,60.297,197.358,59.706z"/>
			
				<path style="fill-rule:evenodd;clip-rule:evenodd;fill:#744223;stroke:#744223;stroke-width:0.2835;stroke-miterlimit:3.8637;" d="
				M174.303,36.261c0.249-0.747-0.423-1.232-0.947-1.782c-1.922-0.468-10.44-3.156-12.692-4.131
				c-0.012-0.751,0.229-0.974,0.399-1.637c0.4-1.545,0.657-3.239,0-5.128c-0.658-1.894-1.658-2.74-3.192-4.031
				c-1.881-1.583-3.268-2.228-5.668-2.753c-2.288-0.501-3.748-0.563-6.007,0.06c-2.815,0.776-4.218,3.196-6.206,4.19
				c-0.04,0.021-0.559,0.107-0.599,0.1c-0.407-0.077-0.933-0.355-1.337-0.499c-0.719-0.255-1.848-0.949-2.528-1.278
				c-2.329-1.123-6.333-3.811-6.333-3.811c-0.527-0.043-0.887-0.245-1.356,0c-0.641,0.333-1.265,0.804-0.738,1.696
				c0.428,0.726,4.216,2.748,6.485,3.978c5.657,3.063,11.45,5.574,17.382,8.056c2.6,1.087,5.198,2.333,7.843,3.292
				c3.122,1.132,5.799,2.26,9.606,3.4c1.551,0.465,2.777,1.278,4,1.111C173.56,36.938,174.049,37.025,174.303,36.261z"/>
		</g>
	</g>
</svg>
