<?xml version="1.0" encoding="UTF-8" standalone="no"?>
<!-- Created with Inkscape (http://www.inkscape.org/) -->

<svg
   xmlns:dc="http://purl.org/dc/elements/1.1/"
   xmlns:cc="http://creativecommons.org/ns#"
   xmlns:rdf="http://www.w3.org/1999/02/22-rdf-syntax-ns#"
   xmlns:svg="http://www.w3.org/2000/svg"
   xmlns="http://www.w3.org/2000/svg"
   xmlns:sodipodi="http://sodipodi.sourceforge.net/DTD/sodipodi-0.dtd"
   xmlns:inkscape="http://www.inkscape.org/namespaces/inkscape"
   version="1.1"
   id="svg2"
   width="652"
   height="818"
   viewBox="0 0 652 818"
   sodipodi:docname="CHE Raperswilen COA.svg"
   inkscape:version="0.92.3 (2405546, 2018-03-11)">
  <metadata
     id="metadata8">
    <rdf:RDF>
      <cc:Work
         rdf:about="">
        <dc:format>image/svg+xml</dc:format>
        <dc:type
           rdf:resource="http://purl.org/dc/dcmitype/StillImage" />
        <dc:title></dc:title>
      </cc:Work>
    </rdf:RDF>
  </metadata>
  <defs
     id="defs6">
    <clipPath
       id="clip-path-6"
       transform="translate(6.57 -13.07)">
      <rect
         class="cls-1"
         x="17.43"
         y="23.07"
         width="150"
         height="181"
         id="rect16" />
    </clipPath>
    <clipPath
       id="clip-path-7"
       transform="translate(6.57 -13.07)">
      <path
         inkscape:connector-curvature="0"
         class="cls-2"
         d="m 34.13,38.78 116.8,-0.21 -0.2,77.58 c 0.0346,19.50218 -7.61835,38.23221 -21.3,52.13 C 118.14,179.73 43.221399,200.05506 27.721399,203.68506 5.7213987,198.80506 59.75,174.72 47.43,155.58 38.93,142.37 34.91,132.44 33.93,115.95 Z"
         id="path19"
         sodipodi:nodetypes="cccccccc" />
    </clipPath>
    <clipPath
       id="clip-path-8"
       transform="translate(6.57 -13.07)">
      <rect
         class="cls-1"
         x="-16.57"
         y="-10.93"
         width="298"
         height="272"
         id="rect22" />
    </clipPath>
    <clipPath
       id="clip-path-9"
       transform="translate(6.57 -13.07)">
      <polygon
         class="cls-2"
         points="126.08,109.31 106.28,109.31 124.88,154.31 61.88,154.31 78.88,108.91 59.08,108.91 92.48,53.71 "
         id="polygon25" />
    </clipPath>
    <clipPath
       id="clipPath910"
       transform="translate(6.57 -13.07)">
      <rect
         class="cls-1"
         x="-16.57"
         y="-10.93"
         width="298"
         height="272"
         id="rect908" />
    </clipPath>
    <clipPath
       id="clip-path-11"
       transform="translate(6.57 -13.07)">
      <polygon
         class="cls-2"
         points="92.48,65.31 70.28,102.71 87.48,102.71 70.28,148.11 115.68,148.31 97.68,102.91 114.48,102.91 "
         id="polygon28" />
    </clipPath>
    <clipPath
       id="clipPath916"
       transform="translate(6.57 -13.07)">
      <rect
         class="cls-1"
         x="-16.57"
         y="-10.93"
         width="298"
         height="272"
         id="rect914" />
    </clipPath>
    <clipPath
       id="clipPath920"
       transform="translate(6.57 -13.07)">
      <rect
         class="cls-1"
         x="-16.57"
         y="-10.93"
         width="298"
         height="272"
         id="rect918" />
    </clipPath>
  </defs>
  <sodipodi:namedview
     pagecolor="#ffffff"
     bordercolor="#666666"
     borderopacity="1"
     objecttolerance="10"
     gridtolerance="10"
     guidetolerance="10"
     inkscape:pageopacity="0"
     inkscape:pageshadow="2"
     inkscape:window-width="1920"
     inkscape:window-height="1017"
     id="namedview4"
     showgrid="false"
     inkscape:zoom="0.22358955"
     inkscape:cx="641.23713"
     inkscape:cy="386.60936"
     inkscape:window-x="-8"
     inkscape:window-y="-8"
     inkscape:window-maximized="1"
     inkscape:current-layer="svg2" />
  <path
     class="cls-17"
     d="m 6.053194,6.0539205 639.896736,0.024832 0.0413,425.4493375 c 0,54.75426 -33.48608,319.56809 -311.35116,379.6904 C 43.851012,746.80173 4.0600405,473.39901 6.2140297,429.38087 Z"
     id="path71-6"
     inkscape:connector-curvature="0"
     style="isolation:isolate;fill:#f00000;stroke:#000000;stroke-width:12.00100136;stroke-miterlimit:10;stroke-dasharray:none;fill-opacity:1"
     sodipodi:nodetypes="cccccc" />
  <polygon
     transform="matrix(5.4019463,0,0,5.3278632,-208.78546,-126.16955)"
     class="cls-16"
     points="112.86,96.24 131.46,141.24 68.46,141.24 85.46,95.84 65.66,95.84 99.06,40.64 132.66,96.24 "
     id="polygon67-5"
     style="display:inline;isolation:isolate;fill:#ffffff;stroke:#000000;stroke-width:2.02077365;stroke-miterlimit:10;stroke-dasharray:none" />
  <polygon
     transform="matrix(5.3500948,0,0,5.3374059,-204.03016,-126.66412)"
     class="cls-16"
     points="76.86,89.64 94.06,89.64 76.86,135.04 122.25,135.24 104.25,89.84 121.06,89.84 99.06,52.24 "
     id="polygon69-2"
     style="isolation:isolate;fill:#f00000;fill-opacity:1;stroke:#000000;stroke-width:2.02872634;stroke-miterlimit:10;stroke-dasharray:none" />
</svg>
