<svg width="410" height="487" xmlns="http://www.w3.org/2000/svg"><g stroke-width="1.564"><path d="M6.947 7.698v284.146c0 102.984 88.667 186.469 198.051 186.469 109.384 0 198.051-83.485 198.051-186.469V7.698z" fill="#0093dd"/><g stroke-linecap="square"><path d="M8.94 273.966v17.876c0 102.984 87.773 186.469 196.053 186.469s196.052-83.485 196.052-186.47v-17.875z" fill="#fcdb00" stroke-width="4.716"/><g stroke-width="1.597"><g stroke="#000"><path d="M301.17 480.01c-80.266 0-145.33 65.068-145.33 145.33v98.31c43.135 24.097 92.797 37.842 145.67 37.842 52.596 0 102.02-13.602 145-37.469v-98.684c0-80.265-65.068-145.33-145.33-145.33z" fill="#0093dd" stroke-width="4.79" transform="matrix(.63355 0 0 .61923 14.64 6.768)"/><g stroke-width="3.193"><path d="M185.67 629.12c11.55 0 11.55 8.388 23.099 8.388 11.55 0 11.55-8.388 23.1-8.388s11.55 8.388 23.1 8.388 11.55-8.388 23.1-8.388 11.55 8.388 23.1 8.388c11.549 0 11.549-8.388 23.099-8.388s11.55 8.388 23.1 8.388 11.55-8.388 23.1-8.388 11.55 8.388 23.099 8.388c11.55 0 11.55-8.388 23.1-8.388s11.55 8.388 23.1 8.388c2.817 0 4.944-.501 6.723-1.256a153.623 153.623 0 0 0-.367-9.564c-1.704.671-3.729 1.106-6.355 1.106-11.55 0-11.55-8.387-23.1-8.387s-11.55 8.387-23.1 8.387c-11.549 0-11.549-8.387-23.099-8.387s-11.55 8.387-23.1 8.387-11.55-8.387-23.1-8.387-11.55 8.387-23.099 8.387c-11.55 0-11.55-8.387-23.1-8.387s-11.55 8.387-23.1 8.387-11.55-8.387-23.1-8.387-11.55 8.387-23.1 8.387c-11.549 0-11.549-8.387-23.099-8.387s-11.55 8.387-23.1 8.387c-2.626 0-4.651-.436-6.354-1.106a153.651 153.651 0 0 0-.368 9.564c1.778.755 3.905 1.256 6.722 1.256 11.549 0 11.549-8.388 23.099-8.388zm254.09 42.048c-11.55 0-11.55-8.387-23.1-8.387s-11.55 8.387-23.1 8.387c-11.549 0-11.549-8.387-23.099-8.387s-11.55 8.387-23.1 8.387-11.55-8.387-23.1-8.387-11.55 8.387-23.099 8.387c-11.55 0-11.55-8.387-23.1-8.387s-11.55 8.387-23.1 8.387-11.55-8.387-23.1-8.387-11.55 8.387-23.1 8.387c-11.549 0-11.549-8.387-23.099-8.387s-11.55 8.387-23.1 8.387c-2.824 0-4.956-.504-6.736-1.262v9.712c1.781.758 3.912 1.262 6.736 1.262 11.55 0 11.55-8.387 23.1-8.387s11.55 8.387 23.099 8.387c11.55 0 11.55-8.387 23.1-8.387s11.55 8.387 23.1 8.387 11.55-8.387 23.1-8.387 11.55 8.387 23.1 8.387c11.549 0 11.549-8.387 23.099-8.387s11.55 8.387 23.1 8.387 11.55-8.387 23.1-8.387 11.55 8.387 23.099 8.387c11.55 0 11.55-8.387 23.1-8.387s11.55 8.387 23.1 8.387c2.825 0 4.956-.504 6.737-1.262v-9.712c-1.781.758-3.912 1.262-6.737 1.262zm-23.1 34.985c-11.55 0-11.55 8.387-23.1 8.387-11.549 0-11.549-8.387-23.099-8.387s-11.55 8.387-23.1 8.387-11.55-8.387-23.1-8.387-11.55 8.387-23.099 8.387c-11.55 0-11.55-8.387-23.1-8.387s-11.55 8.387-23.1 8.387-11.55-8.387-23.1-8.387-11.55 8.387-23.1 8.387c-11.549 0-11.549-8.387-23.099-8.387s-11.55 8.387-23.1 8.387c-2.824 0-4.956-.504-6.736-1.261v9.713c1.781.758 3.912 1.262 6.736 1.262 11.55 0 11.55-8.387 23.1-8.387s11.55 8.387 23.099 8.387c11.55 0 11.55-8.387 23.1-8.387s11.55 8.387 23.1 8.387 11.55-8.387 23.1-8.387 11.55 8.387 23.1 8.387c11.549 0 11.549-8.387 23.099-8.387s11.55 8.387 23.1 8.387 11.55-8.387 23.1-8.387 11.55 8.387 23.099 8.387c11.55 0 11.55-8.387 23.1-8.387s11.55 8.387 23.1 8.387c2.825 0 4.956-.504 6.737-1.262v-9.713c-1.781.757-3.912 1.261-6.737 1.261-11.55 0-11.55-8.387-23.1-8.387z" fill="#fff" transform="matrix(.63355 0 0 .61923 14.64 6.768)"/><path d="m405.97 467.66-24.302 36.682a146.12 146.12 0 0 1 30.103 26.743l33.444-28.59a190.364 190.364 0 0 0-39.245-34.835zm-130.75-29.866 6.105 43.576a146.504 146.504 0 0 1 19.837-1.354c6.957 0 13.795.5 20.492 1.445l6.104-43.577a190.897 190.897 0 0 0-26.596-1.868c-8.802.001-17.459.615-25.942 1.778zm-117.83 64.37 33.444 28.589a146.104 146.104 0 0 1 30.288-26.717l-24.303-36.682a190.37 190.37 0 0 0-39.429 34.81zm-45.562 123.19h44c0-13.908 1.957-27.359 5.605-40.096l-42.311-12.112c-4.747 16.584-7.294 34.098-7.294 52.208zm371.42-52.033-42.311 12.112c3.615 12.685 5.553 26.076 5.553 39.92h44c0-18.044-2.526-35.499-7.242-52.032z" fill="none" transform="matrix(.63355 0 0 .61923 14.64 6.768)"/><path d="m208.98 485.69 12.151 18.341a144.44 144.44 0 0 1 60.202-22.666l-3.052-21.788c-25.351 3.468-48.891 12.612-69.301 26.113zm112.68-4.233a144.456 144.456 0 0 1 60.013 22.88l12.151-18.341c-20.342-13.553-43.818-22.766-69.111-26.328zm-181.38 97.736 21.155 6.057c5.828-20.348 15.982-38.865 29.401-54.502l-16.722-14.294c-15.443 18.001-27.128 39.317-33.834 62.739zm288.21-62.408-16.723 14.295c13.318 15.611 23.395 34.071 29.174 54.346l21.155-6.056c-6.657-23.35-18.264-44.608-33.606-62.585z" fill="none" transform="matrix(.63355 0 0 .61923 14.64 6.768)"/></g></g><path fill="none" stroke="#000" stroke-width="4.79" d="M-8.995 431.5H609.9" transform="matrix(.63355 0 0 .61923 14.64 6.768)"/><g stroke="#000" stroke-width="3.193"><g fill="#fff"><path d="M340.8 419.1s8.867.86 11.32 11.319c0 0-7.485-5.423-13.943-3.229l-4.326-4.326zM296.21 416.7s-10.566-2.347-11.878 12.566c0 0 8.393-8.909 17.904-4.132l7.058-7.747zM295.35 410.5s-5.838-4.666-13.671 3.168c0 0 1.275-15.736 16.77-14.186l5.767 5.767zM311.7 398.62s-2.583-7.747-11.707-7.747c0 0 7.403-8.951 18.765.689l-1.205 5.68z" transform="matrix(.63355 0 0 .61923 14.64 6.768)"/><path d="M402.6 352.65c-7.92-1.033-24.891 4.973-30.645 17.388-3.271 7.059.603 15.063 3.615 18.076 3.014 3.013 10.331 3.442 10.331 10.329s-7.566 10.011-12.053 11.88c-6.197 2.582-23.241 7.402-33.054 8.779 0 0 2.821 9.297-8.091 9.297-6.025 0-15.149 1.894-16.871-3.788-.215-.71-.296-1.348-.272-1.92 0 0-4.72 11.045-13.328 2.437 0 0 1.787-8.024-6.026-8.435 0 0-.603-4.047 3.959-4.993l-4.82-1.205s5.767-8.35 3.099-11.018c0 0 6.025-3.787 13.256-.861 0 0-.272-7.058 7.059-7.058 4.477 0 7.461 2.428 8.607 4.992 1.691 3.787-2.41 7.058-2.41 7.058s9.469 3.271 15.667-.688c6.197-3.959 10.304-10.354 6.197-13.6-3.702-2.927-11.535-5.682-11.535-20.487 0-9.296 7.06-24.102 31.677-32.193 0 0 17.56-4.304 25.135-.689S402.6 352.65 402.6 352.65zM480.24 418.59s7.92 2.066 9.297 12.912c0 0 8.837-11.995.345-20.487l-8.092-1.894-3.271 3.271zM438.92 421.34s-6.652 1.815-9.845 10.158c0 0 8.467-3.959 14.493-2.582l2.755-5.509s-5.337-4.134-7.403-2.067z" transform="matrix(.63355 0 0 .61923 14.64 6.768)"/><path d="M433.07 411.36s-11.795 1.542-11.795 17.036c0 0 7.489-10.151 17.647-7.052l2.755-6.541zM441.85 393.2s-11.362-4.05-17.903 9.034c0 0 9.932-3.942 14.589.715l3.71 3.711 2.531-7.352z" transform="matrix(.63355 0 0 .61923 14.64 6.768)"/><path d="M434.1 317.96c19.367 0 29.696-1.033 29.696-9.813 0-7.747-13.944-13.945-29.955-13.945s-29.955 4.39-52.421 4.39c-28.147 0-58.103-11.362-58.103-28.277 0-16.914 20.933-17.931 20.933-17.931-1.694-1.468-2.47-3.309-1.437-5.826 2.066-5.036 9.167-4.261 20.529-1.679 11.362 2.583 24.791 0 24.791 0-5.423 5.423-13.944 7.231-13.944 7.231 17.56 2.582 32.537-2.583 32.537-2.583s-1.499 25.823-33.829 25.823c-16.269 0-18.076-8.005-27.372-8.005-5.596 0-7.747 2.582-7.747 4.734 0 5.682 17.731 13.944 43.125 13.944s30.299-4.304 53.023-4.304c33.054 0 44.244 16.871 44.244 27.545 0 12.567-6.369 18.248-18.593 20.142-7.123 1.104-13.019 1.389-16.698 1.435 0 0 5.164 12.166 29.954 18.191 0 0-3.79 12.388.517 21.003 2.927 5.854 4.303 11.535 4.303 11.535s4.821-1.033 7.92 3.615 2.732 11.083-6.369 14.117c-2.066.688-2.066 3.959-2.066 3.959s11.019-4.304 12.74 7.747c0 0-8.093-2.409-9.642 7.575 0 0-6.369-3.1-11.19 1.722-4.82 4.82-5.164 11.19-16.01 11.19-6.887 0-9.469-2.582-9.469-2.582s1.032-7.576-4.648-7.576c0 0-.43-8.692-5.853-9.984 0 0 1.463-10.017 8.779-8.608 0 0-4.907-4.905-1.378-8.435 3.53-3.53 9.769-3.828 12.74 5.681.861 2.754.346 6.715 2.841 4.734 2.496-1.98 11.447-14.03-2.152-29.353-13.6-15.322-28.848-19.795-51.302-22.725 0 0-7.921-1.033-12.74-7.23s-26.685-17.559-52.68-4.82-37.185 14.116-56.639 11.534c-19.454-2.583-26.598-9.727-26.598-9.727l20.745-43.297s30.644 13.601 52.335 13.601c32.71 0 40.113-4.821 69.38-4.821 23.413.002 37.703 10.073 37.703 10.073zM265.39 258.48s-4.476-6.714-2.238-10.846c2.238-4.131 11.19-6.37 16.527-1.033 3.185 3.185 3.271 9.813-.517 13.6s-13.772-1.721-13.772-1.721zM244.56 295.84s-18.025-4.071-29.955 1.894c-13.772 6.886-20.831 1.033-19.281-6.714 0 0-12.503 5.4-4.734 15.924 4.529 6.135 16.056 3.631 25.91-1.636 9.985-5.336 16.354-3.099 26.512-3.099zM183.44 421.09s5.859 1.112 7.753 9.893c0 0-5.337-3.873-11.535-2.541l-.394-3.091zM149.1 408.26s-12.74 4.863-9.383 18.937c0 0 4.433-11.662 10.372-7.66l3.96-6.025zM156.95 397.44s-13.554-4.594-19.558 8.749c0 0 13.041-6.112 16.958-.689l4.217-3.615zM146.82 392.72s13.326-10.432 20.104.258v5.422l-4.313.438c0 .001-2.621-7.022-15.791-6.118z" transform="matrix(.63355 0 0 .61923 14.64 6.768)"/><path d="M162.7 400.98s-1.42-8.909 6.198-8.005 8.679 10.815 16.67 8.506l.89 3.372-16.914 2.583z" transform="matrix(.63355 0 0 .61923 14.64 6.768)"/><path d="M226.77 362.41s-34.791 38.351-44.626 40.637c-6.355 1.478-16.208 1.971-17.439-1.478-1.231-3.448-7.989-7.455-11.083-.739-.645 1.4-.574 3.363.732 4.67 0 0-3.529-2.926-5.251 2.755-1.721 5.682.172 14.892 6.542 14.892s12.481-6.972 12.481-6.972-5.966 5.621-4.131 9.812c1.977 4.516 25.344 5.423 18.998-5.792-2.844-5.025 7.083-5.398 6.222-1.438-.86 3.96 2.17 10.279 7.508 10.279 4.648 0 10.827-4.426 7.211-12.689 0 0 30.73-30.041 42.609-30.041 0 0 1.932-11.03 9.555-15.752v-16.527l-10.932-10.932zM165.73 348.07s-15.246 5.768-23.292-2.278c-5.19-5.19-5.316-8.861-13.545-13.545l2.152-15.824 9.115-6.836 12.406 8.355 17.976 23.292z" transform="matrix(.63355 0 0 .61923 14.64 6.768)"/></g><g fill="#094"><path d="M150.7 296.96s25.57 3.698 47.602-27.5l-19.298-1.447z" transform="matrix(.63355 0 0 .61923 14.64 6.768)"/><path d="M188.83 253.72a359.087 359.087 0 0 0-19.614 17.238s30.76 8.735 52.708-18.398v-7.164z" transform="matrix(.63355 0 0 .61923 14.64 6.768)"/><path d="M215.63 234.02c-9.459 6.231-18.39 12.852-26.795 19.706 0 0 40.951 7.86 65.212-19.686l-6.979-6.979z" transform="matrix(.63355 0 0 .61923 14.64 6.768)"/><path d="M252.43 213.32c-13.054 6.135-25.321 13.127-36.808 20.693 0 0 51.693 10.066 77.672-20.608V205.8z" transform="matrix(.63355 0 0 .61923 14.64 6.768)"/><path d="M252.43 213.32c25.466-11.969 53.927-20.681 85.436-24.047-.001 0-16.62 32.6-85.436 24.047zM169.22 270.96c-56.124 53.027-83.384 111.82-83.384 111.82s1.65 5.787 8.572 5.787c0 0 44.796-101.21 158.03-175.24-13.054 6.135-25.321 13.127-36.808 20.693-9.459 6.231-18.39 12.852-26.795 19.706a358.251 358.251 0 0 0-19.613 17.237" transform="matrix(.63355 0 0 .61923 14.64 6.768)"/></g><g fill="#fff" transform="matrix(.63355 0 0 .61923 14.64 6.768)"><ellipse transform="rotate(33.895 121.89 328.322)" cx="121.9" cy="328.36" rx="5.806" ry="5.429"/><ellipse transform="rotate(33.891 124.06 319.498)" cx="124.05" cy="319.47" rx="5.805" ry="5.429"/><ellipse transform="rotate(33.895 129.093 310.724)" cx="129.1" cy="310.73" rx="5.806" ry="5.429"/><path d="M220.92 337.94s-32.075 8.284-54.181-18.735c-9.114-11.141-13.039-4.938-17.216-9.115-5.19-5.19-12.962-10.18-14.178-5.317-1.013 4.051 2.462 10.606 7.596 12.66 6.329 2.532-.76 6.329 7.089 12.153 7.849 5.823-1.519 14.431 5.57 21.521 7.089 7.089 17.597-.127 23.04 5.316s7.089 9.622 5.443 14.685c0 0 6.456-4.305 18.103 2.785l22.534-13.925 9.367-16.71z"/><path d="M212.54 282.07c1.352 7.234 9.554 9.296 13.041 9.296s6.843-4.907 11.104-.646 2.453 13.945-1.42 16.398-9.425 1.162-9.425 1.162c-3.486 10.587 6.198 11.491 6.198 11.491-1.485-5.746 3.615-3.354 8.457-4.712 4.588-1.288 9.706-2.819 12.159-5.272 3.499-3.499 4.304-5.165 4.304-5.165-7.316 15.581-20.659 23.456-34.431 23.456-13.773 0-19.54-4.82-19.54-4.82-3.615 17.043 11.037 20.342 11.037 20.342-11.772 3.09-11.252 19.856-11.252 19.856 4.734-3.874 8.634-4.521 8.634-4.521-2.65 1.038-5.411 2.502-8.333 5.425-8.521 8.521-3.099 22.38-3.099 22.38 8.952-17.215 22.174-11.868 22.174-11.868-2.522 6.262.894 14.622.894 14.622s3.443-8.78 14.117-11.19 15.321-10.846 15.321-10.846c-11.707 14.461 3.443 25.135 3.443 25.135-1.894-12.396 9.955-20.11 9.955-20.11 3.213 7.063 7.95 10.297 7.95 10.297-4.102-17.216 4.102-26.184 4.102-26.184 4.365 7.253 10.875 8.107 10.875 8.107-6.714-21.52.769-33.988.769-33.988 4.253 2.572 8.355 1.967 8.355 1.967-10.673-18.593-2.927-35.464-2.927-45.794 0-10.329-6.025-12.567-6.025-12.567s5.337-1.722 5.337-8.436-7.059-12.051-12.912-12.051-7.145 4.993-7.145 4.993-2.841-7.23-20.917-7.23c-12.05 0-16.871 12.396-28.062 14.633-11.19 2.238-12.567-.344-15.15 2.238-2.582 2.582.689 7.23 2.927 7.919.001.002-1.032 2.919-.515 5.683z"/></g></g><g fill="none" stroke="#000"><path d="M344.26 252.39c1.694 1.469 4.31 2.566 6.956 3.6 5.294 2.065 12.396 1.937 17.561.646M442.88 330.85c-2.635.033-4.133-.057-4.133-.057" stroke-width="3.193" transform="matrix(.63355 0 0 .61923 14.64 6.768)"/><path d="M315.56 422.69c.165-4.003 5.438-4.794 5.438-4.794" stroke-width="4.79" transform="matrix(.63355 0 0 .61923 14.64 6.768)"/><path d="M438.92 421.34s1.895-5.163 13.429-3.614M450.89 407.18s-2.597-2.821-9.039-4.434" stroke-width="3.193" transform="matrix(.63355 0 0 .61923 14.64 6.768)"/><path d="M310.5 412.05s-7.174-1.895-10.33-.345" stroke-width="4.79" transform="matrix(.63355 0 0 .61923 14.64 6.768)"/><g stroke-width="3.193"><path d="M311.7 398.62c2.628 1.189 9.082 4.023 13.256 4.992M289.57 330.72c-2.552-1.543-5.159-4.23-6.966-8.879M277.93 356.6c-1.179-1.959-2.201-4.385-2.897-7.387M265.88 372.48c-1.648-3.624-2.896-8.256-2.896-13.977M222.15 374.87c.968-2.404 2.811-4.498 6.059-5.692 11.707-4.304 13.944-12.912 13.944-12.912M211.4 358.93c5.079-1.988 9.753-2.411 14.391-8.52M214.02 343.6c1.434-.376 3.055-.587 4.887-.587M241.76 262.35c1.142 1.142 4.049 1.766 7.966 1.382 6.585-.646 10.652 1.227 13.041 3.616M154.35 405.5c1.635 1.636 4.132 2.669 8.521.861" transform="matrix(.63355 0 0 .61923 14.64 6.768)"/></g></g><path d="M173.338 170.078c-1.513.027-2.66-.246-3.502-.587-.253.288-.419.62-.47.988-.198 1.433 1.415 2.83 3.603 3.12 2.187.29 4.122-.637 4.322-2.071a1.844 1.844 0 0 0-.154-1.006c-1.054-.302-2.308-.472-3.8-.444z"/><g fill="#fcdb00" stroke="#000" stroke-width="3.193"><path d="M246.5 70.96 275.44 103l-28.94 32.04 42.22-9.04L302 167.08 315.28 126l42.22 9.04L328.56 103l28.94-32.04L315.28 80 302 38.92 288.72 80zM457.5 162.96 486.44 195l-28.94 32.04 42.22-9.04L513 259.08 526.28 218l42.22 9.04L539.56 195l28.94-32.04-42.22 9.04L513 130.92 499.72 172zM116.56 195l28.94-32.04-42.22 9.04L90 130.92 76.721 172l-42.216-9.04L63.441 195l-28.936 32.04L76.721 218 90 259.08 103.28 218l42.22 9.04z" transform="matrix(.63355 0 0 .61923 14.64 6.768)"/></g></g></g></g><path d="M6.951 7.698v273.55c0 109.38 88.67 198.05 198.05 198.05s198.05-88.669 198.05-198.05V7.698z" fill="none" stroke="#000" stroke-linecap="square" stroke-width="10"/></svg>