<?xml version="1.0" encoding="UTF-8"?>
<svg width="600" height="772" version="1.1" xmlns="http://www.w3.org/2000/svg">

  <path d="m595.97 4.032-591.94 0.012v468.05a299.22 299.22 0 0 0 3.445 45.096 294.58 294.58 0 0 0 14.565 56.683 293.89 293.89 0 0 0 11.224 26.533 294.69 294.69 0 0 0 6.532 12.752 295.19 295.19 0 0 0 14.817 24.376 296.37 296.37 0 0 0 17.026 22.754 296.51 296.51 0 0 0 40.092 40.053 296.49 296.49 0 0 0 34.773 24.687 295.16 295.16 0 0 0 38.254 19.544 294.01 294.01 0 0 0 55.56 17.199 297.57 297.57 0 0 0 44.437 5.61 302.21 302.21 0 0 0 45.522-1.14 297.06 297.06 0 0 0 29.4-4.47 294.56 294.56 0 0 0 55.56-17.201 294.6 294.6 0 0 0 50.256-27.226 295.79 295.79 0 0 0 22.77-17.007 296.55 296.55 0 0 0 30.798-29.333 296.39 296.39 0 0 0 34.014-45.477 295.15 295.15 0 0 0 13.655-25.134 294.36 294.36 0 0 0 19.87-54.328 294.62 294.62 0 0 0 5.918-28.898 297.18 297.18 0 0 0 3.045-29.858c0.26-5.048 0.395-10.13 0.4-15.242z" fill="#f00000" stroke="#000" stroke-width="8"/>
  <path d="m110.42 25.08-.003.001c-2.647-.215-5.518 1.044-6.803 3.337-1.424 2.715-1.733 6.182-.913 9.125 2.392 5.2 8.131 8.568 12.277 12.205-1.436 3.94-2.469 13.449-3.248 18.944-1.008 5.321 1.368 16.242 3.53 21.135-1.051 7.767-.613 9.762.1 13.47 3.38-4.725 4.367-7.036 5.985-8.21 1.89 3.626 3.678 5.932 6.771 7.503 1.868 3.695 2.35 5.223 4.46 8.838 1.437-2.056 2.819-4.139 4.204-6.222 3.4 1.048 7.284 1.8 10.294 3.736 2.03 2.056 2.192 7.15 3.818 9.514 3.454-2.728 7.12-8.278 11.947-8.224 8.681-.35 18.4.054 26.476 3.548 5.698 2.647 10.28 10.858 4.917 16.019-8.453 7.552-21.312 9.541-32.117 7.042-4.099-.551-5.778-5.147-8.144-8.117-3.467 2.634-8.358 7.203-13.049 5.295-4.797-1.774-5.536-7.566-6.692-11.853 8.775.873 16.65 4.448 25.211 6.06-7.942-9.998-21.972-14.89-34.362-15.683-16.26-1.128-33.099-2.553-48.526-8.318-4.73-1.908-10.092-4.421-12.12-9.46-.887-2.205-1.747-5.443-.255-7.553 2.782-4.166 6.652-7.485 9.434-11.693-7.015-.93-17.74 3.75-21.918 11.114-4.274 8.466-2.231 20.383 5.039 26.647 4.005 3.52 8.977 6.088 14.19 7.27 13.359 2.715 25.6 1.116 38.958 1.008-2.406 6.316-6.813 10.469-11.853 14.715.712 4.112 2.177 8.44 2.043 12.632-1.062 2.782-3.87 5.2-6.545 6.424-7.485 2.459-16.637 0-23.88 2.983-5.281 2.217-4.529 9.596-5.86 14.3-.456 3.95-4.084 5.805-6.597 8.574 3.332 1.545 6.06 3.05 9.783 1.559 5.617-1.479 6.168-10.9 10.858-13.495 4.112-1.734 9.393-1.086 13.8-1.422 6.182-.175 12.444-2.984 18.558-2.554 5.886 1.076 11.759 2.5 17.443 4.355 5.55 1.76 11.087 1.222 16.596 2.795 5.483 1.545 10.12 3.869 15.939 4.137 7.512.283 15.427.336 22.792-1.25 2.741 1.963 5.51 3.884 8.345 5.725-7.835 1.17-15.159-.803-22.993-.629-8.614.095-17.537.377-25.99 2.15-5.43.82-11.221 1.115-16.638.2-3.95-1.827-7.069-5.563-10.509-8.21-.658 4.61-1.477 9.34-1.437 14.003.121 4.69 2.566 9.308 4.111 13.662-10.599 3.377-21.149 9.185-27.453 18.579-5.227 6.195-7.176 14.003-11.759 20.494-4.367 6.155-11.104 7.173-17.689 11.541 4.442 5.09 7.871 7.223 14.18 9.716-.7 3.172-1.439 6.195-1.17 9.474.296 8.023 4.435 14.621 4.757 22.577.256 7.028.229 14.231-.9 21.18-.954 5.698-6.002 13.71-8.676 18.642 7.028 1.465 16.175.774 23.134-1.172 2.818 4.3 5.362 9.81 9.635 12.887 11.638 12.245 36.495 20.948 42.56 23.751 4.408 3.723 11.437 13.744 13.264 18.998 4.1-6.396 8.655-12.377 12.11-19.19 5.71 2.42 10.857 5.416 17.214 5.577 9.22.188 18.747.403 27.683-1.868 11.611-3.05 25.29-3.706 38.922-5.96 3.653 2.911 6.822 4.846 9.698 7.198.466-1.717.524-4.744.258-8.266 12.436-2.06 24.149-1.048 36.324-1.236 6.894-.08 16.109.05 23.446-.36 5.168 4.763 11.732 5.48 16.34 6.824-.806-2.58-2.367-6.932-3.227-9.499 14.968-3.799 33.932-2.748 45.89-1.814 4.593 2.526 10.92 7.282 14.047 12.928 1.803-2.262 4.015-10.258 4.13-14.135 7.97.538 13.196 4.241 18.815 9.724 3.306 2.903 2.472 8.922.766 12.455-3.225 2.97-8.184.484-11.974.054 5.167 8.01 10.83 12.771 18.313 11.968-8.587 5.778-26.251 14.987-43.081 9.55-10.287-5.201-16.177-11.643-22.988-13.114-8.05-2.445-19.268-1.244-27.64-1.365 2.634 2.822 8.923 10.537 11.53 13.4-13.248-2.312-27.66-4.012-36.077-7.822-6.384-2.957-12.646-5.644-19.5-7.338-5.12-1.303-10.454-1.947-15.494-3.452-4.327-1.29-8.265-4.031-12.431-5.913 2.016 4.475 4.461 8.708 6.302 13.264-6.625.108-13.113.04-19.55-1.666-5.603-1.263-10.834-3.669-16.398-5.013-10.979-2.257-28.494-1.901-39.634-.719-5.036-2.214-9.404-2.713-13.072-3.408 2.097 4.3 4.309 8.426 7.158 12.242-30.156 6.775-49.19 31.986-61.461 38.703-6.478 3.629-13.533 2.339-20.695 2.742-1.223 10.193 8.305 13.15 15.133 17.84-.7 4.274-2.325 5.111-3.44 9.318-3.01 10.186-1.573 22.026.241 32.333 1.815 9.904 9.555 20.186 8.722 30.196-1.223 6.087-1.69 10.577-5.765 16.693 7.658.228 13.707-1.59 18.282-6.11 1.064 1.468 1.69 1.929 3.61 4.133 3.643 4.972 7.954 9.084 13.208 12.336 6.746 4.569 14.636 6.235 21.355 10.83 5.711 3.83 12.186 6.613 16.7 11.545 3.36 3.575 7.727 8.536 11.113 12.084 3.054-3.575 9.272-11.7 10.317-17.78 7.074 1.923 12.947 2.299 19.843 1.744 4.797-.255 9.151-1.868 13.774-2.903 5.9-.793 10.743-2.75 18.339-4.246 8.12-.444 34.466-1.942 45.91-2.218 4.999.312 14.694 3.627 19.714 9.058 1.68-4.623 2.446-9.407 3.171-14.245 5.886.793 11.584 1.236 17.483.336 9.246-1.264 18.263-.121 27.361 1.64 1.237 4.756 2.486 9.272 5.55 13.236 3.293-4.824 6.195-9.796 10.334-13.989.672 2.298 2.486 4.717 1.17 7.096-1.56 3.4-2.984 6.598-6.773 7.955-7.042 3.48-14.473 3.44-19.85 8.6 3.44.901 7.015 1.345 10.402 2.406 2.083.632 3.36 3.306 4.703 4.879-5.886 1.169-11.945 3.941-17.897 3.068-10.32-1.465-19.029-8.31-29.082-10.5-7.378-1.827-7.636-1.733-15.106-3.037.323 2.231 3.357 4.825 3.872 6.693-14.831.035-26.09-1.034-33.381-2.079-11.952-1.347-21.461-.749-37.302-13.515-4.805 4.324-1.137 11.1.788 13.188-16.77-.53-31.419-1.046-46.605 4.367-6.57 2.191-13.936 5.886-20.91 5.954-3.601.322-7.861-4.22-10.15-7.39-.282 3.534-1.485 6.374.691 12.767 1.593 6.046 4.126 6.571 6.45 9.38-15.731 14.605-16.624 33.063-17.765 43.769-2.97 3.574-9.542 3.976-13.721 5.481 4.81 5.833 14.809 6.639 21.784 8.117 2.351 6.733 2.956 13.21 8.291 18.343 5.752 6.437 12.941 10.348 20.064 14.957 4.77 2.93 5.913 7.418 8.225 12.148 1.988-3.252 3.924-6.53 5.966-9.743 7.512 2.204 14.796 4.381 22.698 4.596 5.738.323 12.552-.86 17.887 1.277 3.776 1.236 5.86 5.67 8.144 8.681 4.959-3.991 7.273-8.748 9.37-14.606 4.286-.228 8.637-.578 12.924-.296 3.924.121 7.647 3.185 10.925 5.147 2.661-1.25 5.335-2.513 8.063-3.641-2.015 3.252-3.628 6.195-7.539 7.431-5.872 2.93-11.02 1.21-17.107.39-1.102 3.776-2.526 7-1.317 10.99 1.546 4.933 2.312 11.639 7.996 13.52 5.9 2.27 11.786 4.905 17.86 6.638 4.352-.586 11.201-2.491 16.445-7.181 9.684 1.489 17.006-3.892 18.322-10.186 11.607-1.607 14.558-17.994 5.819-23.422 2.037-2.427 4.126-3.448 4.247-7.319-.507-7.23.6-14.019-9.743-15.986.591-4.524-.672-10.016-3.978-12.906-5-4.663-10.846-5.133-16.934-7.337-3.548-1.263-5.672-3.83-8.038-6.585 3.105-.497 6.52-1.303 9.677-.954 5.134.94 9.812 4.677 14.972 5.348 5.886-.255 13.38-2.79 17.17-8.288 4.768 5.872 11.252 8.383 17.823 7.872 6.41.148 11.974-4.956 15.688-8.698 5.75 4.043 16.595 5.59 23.746 3.722 5.619-2.54 10.564-7.603 12.19-14.26 6.443 1.78 14.924.876 19.788-3.908 4.328-3.951 7.842-11.114 7.293-20.043 7.013.94 12.461.693 16.387-4.642 3.938-5.013 3.683-12.801 3.095-19.148 4.926-2.516 9.08-5.404 10.49-11.773 1.774-6.625-1.021-20.097-9.916-22.638 8.466-9.388 5.822-17.336-2.056-25.42-4.112-3.87-6.692-4.838-15.418-4.561.198-10.749-5.507-20.715-14.376-23.47-7.23-2.809-15.513-.192-21.319 3.155-5.672-13.273-21.668-21.054-35.698-6.797-5.667-4.83-12.124-8.197-19.273-7.431-5 .242-9.83 1.858-13.476 5.098-7.164-3.586-15.848-4.87-23.83-3.19-4.61 1.17-7.31 4.314-11.329 6.437-3.978-.578-7.806-2.715-11.502-4.22 1.102-4.045 3.638-7.82 4.37-13.404 9.207 6.393 19.577 5.002 27.507 2.664 3.91-.726 3.359-1.606 6.933-5.452 8.466 9.305 26.663 11.518 39.24.809 14.256 7.387 28.698 6.44 38.188-4.59 12.166 9.246 32.404-1.632 37.99-10.821 5.908 1.995 10.232 2.601 14.64.021 4.556-2.594 9.555-6.007 12.256-10.616 2.218-3.4 4.17-5.565 3.068-10.544 5.755-.708 12.76-4.871 15.703-9.803 3.158-4.825 3.887-14.054 3.006-20.142 11.971-5.278 14.578-23.196 5.532-32.384 3.877-4.221 4.62-7.516 5.359-11.358 1.348-15.118-6.403-23.125-18.774-29.132 2.143-10.925-2.427-18.866-11.423-23.777-5.268-2.634-15.916-4.745-21.637-2.325-5.066-15.356-25.447-18.817-35.73-10.698-1.07-5.366-12.713-12.48-18.664-13.868 5.15-1.431 18.763-4.485 20.408-9.681 7.985 5.843 21.262 5.008 29.699 2.304 6.235-2.257 9.455-5.926 11.733-10.724 8.26 2.37 17.403.928 23.49-2.365 7.203-3.736 10.983-11.62 13.102-19.507 6.703-.007 15-6.548 18.333-10.525 4.085-5.235 5.99-17 3.713-21.585 4.018-.864 7.425-3.561 10.059-7.996 2.083-3.628 3.548-7.752 4.462-11.838 1.115-5.442.189-13.895-4.96-18.614 4.788-2.752 9.072-7.35 9.865-13.933 1.303-8.64-1.842-24.209-13.28-27.186 5.418-14.8-2.702-28.36-12.455-34.362-4.771-3.077-12.2-3.488-17.39-2.634-5.33-16.864-14.752-26.236-33.402-26.093-5.12.014-10.477 1.929-14.874 4.423-13.21-17.498-26.361-14.836-45.368-4.685-16.06-9.025-30.125-8.514-42.596-1.451-2.997 1.693-4.673 4.062-6.423 7.758-5.46-5.168-19.062-5.526-26.853-3.404-5.801 1.582-11.192 4.444-15.766 9.944-7.865-4.763-17.842-4.878-25.813-3.184-7.297 1.72-10.47 7.955-18.654 6.732 5.829-14.114 9.386-26.597 5.873-42.627-5.483 8.16-7.126 11.826-17.295 17.934-1.183-7.982-3.4-18.688-8.83-24.963-5.735 13.054-10.47 13.163-18.611 20.295-2.728 2.271-4.3 5.093-6.262 7.996-11.235-1.68-22.321-3.79-33.072-7.566-6.088-1.962-11.635-3.816-17.911-1.223-5.577 1.95-6.948 7.136-10.31 11.382-1.452 2.473-4.664 1.64-6.881.887-5.9-2.177-8.426-10.134-14.124-12.849-4.26-2.015-9.326-2.365-13.559-3.883-1.037-3.789-3.417-7.534-5.79-8.977-3.17-1.246-7.401-1.513-10.08-1.26-2.875-3.6-4.743-9.8-7.633-13.468-1.038-1.285-2.547-1.944-4.136-2.073zm10.35 95.561c3.862-.03 7.67.305 11.577.933-1.451 2.5-2.346 5.706-5.443 6.8-4.38 1.55-7.904 1.073-11.034-1.666-1.459-1.278-.282-3.856-.416-5.792a60.511 60.511 0 0 1 5.316-.275zm279.62 18.016c3.91.043 7.882.325 12.054.8 3.369-.178 6.613.982 10.024 1.618 2.271.577 5.308.927 7.095 2.553 1.438 3.104 2.591 10.049 1.42 13.72 6.318-3.773 14.716-12.145 15.88-18.39 4.837.019 15.728 10.936 17.009 21.563.47 5.026-2.433 10.455-5.846 14.003-3.548 3.709-8.666 4.261-13.412 5.417-10.912 2.298-22.62 6.453-32.702 11.579 5.1 2.026 9.262 3.823 13.963 5.403-5.053 5.47-13.739 6.495-20.889 7.033-11.503-.793-23.115-9.112-35.06-9.071-3.844-.296-4.176.45-5.918 1.177-3.668-2.016-12.682-7.964-15.853-10.692-.174 4.488.644 10.546 1.425 16.779-15.521-1.384-25.197-10.196-39.67-15.356-8.386-2.285-27.748-10.426-39.17-11.502-1.787-.49-2.234 3.467-2.387 6.49-6.276-1.14-17.04-3.715-23.688-3.108 1.908-.778 5.915-4.894 7.3-7.215 1.349 2.89 3.09 3.736 4.747 5.752 2.49-2.013 5.654-6.761 7.093-9.035.56 2.39 1.048 4.48 1.644 7.59 6.431-3.45 13.589-8.135 11.714-10.792 0 0 3.846 5.556 4.575 7.055 3.967-4.664 7.5-11.686 7.902-13.316 19.441-9.092 37.536-11.1 51.038-11.964 3.346 1.102 16.332 9.728 19.222 11.717 1.014-3.877 3.447-8.348 3.291-12.374 14.301-5.517 25.47-7.56 37.2-7.432zm-180.17 37.399c1.407-.032 2.688 1.152 1.713 2.794-1.599 1.653-4.582.08-3.292-2.152.46-.43 1.03-.629 1.58-.642zm-31.61 75.562c6.44 6.155 13.659 7.552 18.987 8.953.538 5.577 1.868 10.83 3.642 16.126-7.623 5.253-11.874 9.134-13.312 13.363-2.361-3.672-15.043-7.795-20.871-3.498.324-3.893-4.27-11.123-9.376-13.64 3.468-3.749 4.096-9.374 2.217-14.298 9.223 1.084 14.096-1.98 18.713-7.007zM296.08 269.6c7.633 3.145 14.124 6.867 22.724 6.84 7.485.35 15.302-1.727 20.772-4.25 8.735 5.878 18.588 11.695 27.659 10.688 5.456-.377 14.604-3.462 18.784-6.614 6.915 3.888 13.42 6.561 20.378 7.38-7.005 1.523-18.693 4.858-22.341 9.783-11.933-10.3-30.798-7.671-39.606-1.835 0 0-8.856-5.26-16.477-5.179-5.698-.35-15.64 1.707-18.819 7.843-1.103-3.6-6.747-7.495-11.936-9.228 2.002-3.158 6.105-4.509 9.713-6.776-5.755-2.764-9.045-3.704-11.388-3.413.162-.41.27-2.716.535-5.239zm-91.368 191.84c3.352 6.574 22.325 9.888 28.871 5.17v.003c-3.222 7.154-4.079 15.23 1.242 20.389-5.46-2.258-23.012 2.022-25.344 8.01-.672-5.327-9.306-10.388-11.987-10.73 2.997-5.844 2.216-10.415-2.42-16.357 4.374.04 7.235-1.84 9.635-6.484zm70.016 179.5c3.104.336 6.074 1.519 9.205 1.8 3.71.39 7.19-.711 10.724-1.706 3.763 2.62 7.58 5.026 11.745 6.961-3.346.672-6.922 1.747-10.35 1.56-3.897-.512-7.699-2.312-11.583-3.119-5.173-1.048-10.345-.282-15.142 1.801-4.743 2.137-9.717.393-14.594-.333 3.226-.753 6.517-1.25 9.728-2.096 3.804-.995 6.76-3.578 10.267-4.868z"/>
  <path d="M126.89 47.372a7.544 7.544 0 0 0-2.557.411v.002c-3.246.322-3.521 7.103-4.193 10.598-1.021 8.748-1.185 17.22 2.026 25.714 2.204 7.055 7.11 12.928 14.218 15.347 7.19 2.432 15.012 3.28 22.526 4.22 10.684.417 21.192 1.76 31.392 5.107 4.084 1.411 8.748 4.581 9.984 8.935 1.478 7.11-1.386 14.742-7.877 18.317-8.56 4.865-19.955 5.497-29.59 6.209-4.717.443-7.511-3.333-11.987-3.252a120.824 120.824 0 0 1-10.764-1.141c-4.26-.659-7.365-6.141-11.975-4.824-4.69 1.02-8.667.403-13.29-.202-3.75 1.787-7.365 3.964-10.94 6.074.457 3.642 1.746 7.889.94 11.517-1.492 3.964-3.83 8.332-8.345 9.3-8.279 1.962-18.008.483-26.017 3.48-2.473 3.131-1.801 7.687-1.653 11.41 2.66-3.011 3.749-8.171 7.713-9.3 5.322-1.935 11.678-.229 17.215-1.667 5.577-1.236 12.095-3.83 15.777-8.372 2.258-4.421 2.917-9.178 6.25-13.102.644 5.86-1.304 10.791-2.783 16.301 3.387-2.392 6.169-5.321 10.012-7.068-.712 3.776-2.19 7.256-3.36 10.897 4.462-1.33 7.23-4.489 10.886-7.096-.605 3.642-1.787 7.096-2.93 10.59 4.18-1.492 7.432-2.23 11.88-1.707 1.949-2.513 3.978-4.851 6.424-6.907.363 4.112-1.438 7.028-3.158 10.549 2.634-1.183 5.174-2.512 7.74-3.815-.12 2.284-.282 4.554-.39 6.839 2.42-1.264 4.65-2.754 6.84-4.367.807 1.613 1.64 3.226 2.5 4.811 3.118-2.123 5.47-4.933 8.104-7.58-.282 3.01-.793 5.993-1.357 8.963 4.058-2.956 7.606-6.49 11.786-9.259-.484 2.997-1.21 5.926-1.935 8.87 2.378-.686 5.058-.926 7.188-2.258 2.564-1.6 4.018-4.542 6.235-6.585.148 3.024.096 6.034.028 9.057 5.577-1.034 8.413-4.582 12.283-8.224-.403 2.957-.86 5.913-1.169 8.896 3.857-1.357 6.303-4.031 9.179-6.746.794 5.761-.17 7.066-1.54 9.542 5.153-1.41 9.386-4.001 10.906-10.428 4.608 3.22 6.37 6.527 9.35 12.25 2.608-5.692 6.898-10.345 11.088-14.468.242 3.803.283 7.606.47 11.396 3.132-.928 5.994-1.68 8.212-4.26 1.962-2.486 3.332-5.47 4.958-8.184 1.049 3.588 1.252 6.92 3.777 9.89 4.004-3.628 5.147-8.143 6.88-13.022 2.054 4.193 2.567 6.37 3.252 10.012 7.765-5.949 7.038-10.465 5.913-20.358 5.228 2.943 5.281 7.659 7.472 12.66 2.8-3.554 3.021-7.085 2.553-11.773-.766-4.172-3.534-6.88-5.08-10.213 5.698 2.481 7.19 4.73 10.59 8.52 5-5.931-3.01-14.23-7.826-19.419 4.138-.866 9.483 3.246 12.776 7.17.202-2.5.605-4.77-.47-7.163-1.17-4.099-7.273-6.23-10.552-8.528.59-.658 1.196-1.33 1.787-2.002 2.943.363 6.135-.577 9.091-.402-2.271-6.115-9.266-6.666-14.225-12.444 4.709.304 7.337-.352 11.369-.204-4.878-3.562-10.858-1.694-15.454-6.276 3.669-1.465 7.445-2.553 11.181-3.79-5.174-3.48-11.073-5.36-16.368-8.64 1.586-7.014 7.364-11.166 9.326-17.912.726-2.245 2.786-9.77 3.068-12.081-3.584 2.728-9.466 9.554-13.71 10.845-5.322 1.76-12.657 1.292-15.67 6.007-2.392 3.746-1.726 7.102-1.599 11.599-2.831-2.298-4.246-5.878-3.306-8.589 1.9-8.564 6.761-12.648 12.283-13.979.256-3.857.618-10.388-.215-14.218C254.255 53 247.603 57.95 243.047 64.4c2.164.78 4.327 1.543 6.477 2.336-3.198 1.68-6.275 3.065-8.708 5.86-4.26-2.298-8.426-1.397-13.089-2.432-9.326-1.384-17.712-5.55-27.037-6.72-4.999-.644-10.75-1.948-15.683-.779-5.832 2.527-7.803 9.359-3.61 13.766 8.103 4.233 18.642 3.063 26.496 6.069-.577 1.22-.745 2.69-2.412 3.201-.974-.013-2.826-1.277-5.819-1.845-2.948 4.97-2.054 7.517-7.903 11.217-1.223.107-5.633-.938-7.539-1.626-4.36-.883-5.557-15.235-11.093-18.823-1.21-.954-3.36.12-4.784.215.887 2.755 2.177 6.622 1.766 10.307-3.366-6.956-5.69-10.307-8.593-14.38-1.342-.77-2.16-1.188-2.642-1.113.202 4.005-.542 9.66-2.195 13.41-.893-6.874-2.003-13.64-3.774-17.161-1.895-3.736-6.708-5.806-10.31-6.934-2.23 5.375-1.196 10.83-2.54 16.408-2.338-8.112-1.207-7.29-3.212-15.226-1.693-5.302-4.402-12.644-9.953-12.775zm310.32 20.116c-10.233-.172-13.215 3.747-17.168 8.825-1.897 2.438-1.304 6.088-2.083 9.03-4.045-4.206-6.625-9.823-11.544-12.604-16.713-9.911-35.815 4.589-35.706 15.87-9.364-9.121-12.995-11.94-26.151-11.502-15.779 3.303-14.868 9.36-17.322 17.403-5.013-5.779-9.931-9.753-16.693-10.916-6.957-.578-19.045 2.363-24.478 6.517 1.606 1.58 5.336 4.282 5.336 4.282s-5.102 3.652-7.826 4.633c2.577-.062 8.578 3.05 12.74 6.263 0 0-7.522 1.814-10.69 1.975 1.82.554 3.346 1.122 4.692 1.75 10.545-2.591 42.41-10.13 50.894-8.735-10.04 1.653-37.425 10.545-45.005 13.035a39.505 39.505 0 0 1 3.803 4.674l-3.065 4.59c40.143-14.196 77.677-22.534 109.18-23.536 12.39-.403 24.602.393 36.347 3.033 10.638 2.383 20.265 6.261 28.375 11.83 8.673 5.966 14.694 13.521 18.382 20.874 8.532 17.074 6.512 29.722 6.512 29.722s.686-12.789-8.676-28.545c-3.999-6.755-10.126-13.448-18.485-18.573-7.848-4.827-17.028-8.006-27.225-9.983-11.275-2.173-22.982-2.688-35.039-2.314-31.248.992-68.872 9.404-109.43 23.92 1.304 4.744-.205 7.818-1.885 11.342l-4.441-3.57c2.49 4.035 3.674 5.954 4.12 10.084-.453 1.905-5.855 3.643-6.187 4.448 15.993-3.252 33.884-10.653 48.44-11.765-.586-2.203-.26-3.579-.621-5.568 6.665 1.882 14.71 10.643 20.58 15.18.769-9.99-8.74-19.697-14.961-27.15 5.468.656 14.872 8.823 16.549 13.397 14.58-1.579 33.989-6.513 45.493-5.56 10.939.76 15.707 5.696 20.827 6.69 5.563 1.17 8.586 6.099 8.618 12.107 5.682-7.771-3.142-14.285-4.07-15.52-7-4.73-16.421-4.758-19.174-14.232 5.358 5.443 19.662 7.246 23.426 10.925 1.72 1.922 4.764 6.51 5.609 13.264 7.284-12.097-6.27-21.043-13.418-26.27 7.512.456 18.982 7.067 22.677 13.49 13.882 7.738 31.562 29.922 18.095 44.671-6.158 6.16-10.528 7.865-16.007 9.206-6.006.96-17.573 2.54-24.912 5.096 9.445-.64 35.334-.684 38.156 2.572-6.571 1.29-30.727-1.406-39.665-.375 5.925.916 12.97 2.05 15.266 5.42 1.505 2.082 2.553 4.663 4.367 6.49 3.199 1.841 7.39 2.11 10.95 2.916-.693 3.078-6.738 2.938-11.002 2.35-3.977-1.99-7.622-4.97-12.057-5.857-4.784.564-8.802 4.555-13.492 5.846-11.503 3.279-21.596.255-32.319-3.83-5.039-2.258-11.482-5.188-17.582-5.454 2.769 2.244 5.627 3.497 7.722 6.353 1.089 1.483 3.424 4.502 3.505 6.356-8.712-6.016-17.336-11.212-25.891-17.368-.242 3.642 5.906 16.51 7.72 19.83 1.922 2.876 4.556 5.214 6.652 7.97-8.372-.708-13.619-8.537-16.973-15.039-4.918-1.626-10.106-1.505-14.903-3.816-9.219-2.675-16.247-8.709-25.533-10.991-6.49-.7-23.894-8.026-29.844-9.902 3.46 3.166 7.089 10.331 12.142 23.752-4.959-4.502-15.554-22.329-21.569-29.12-.6 10.077 13.23 24.996 15.098 30.653-2.432-.578-4.65-.295-6.477-2.258-3.239-3.426-9.53-10.34-10.89-16.455-9.917-3.182-20.904-4.51-25.488-4.1-11.292-.284-16.137 1.454-31.123-.354-3.857-.417-6.84-2.164-10.536-3.481 2.298 5.967 6.29 10.039 10.845 14.312-3.507-.322-6.477-1.021-8.963-3.669-2.191-2.7-3.656-5.845-6.142-8.345 1.142 6.907 5 12.187 7.324 18.612-1.935-.443-4.125-.645-5.886-1.572-3.897-2.728-4.745-9.152-8.561-11.557-7.136-1.801-14.862-3.87-22.2-3.252-7.753.564-15.426.846-23.033 2.62-6.198 1.06-13.758 5.104-26.42-6.298 9.037 15.668 19.62 10.747 26.904 12.722 2.365.47 2.943 2.405 4.327 4.125-7.956.282-32.013-1.278-33.491-17.559-3.445 14.75 16.57 22.328 21.07 25.876-10.852-2.16-12.99-.89-17.766-.777-5.94.793-9.77 4.446-14.648 7.443-13.09 6.45-16.473 35.469-38.281 39.07 13.129.407 26.216-9.659 34.963-14.785-2.66 8.364-18.501 17.07-29.86 18.283 9.615 4.909 25.38-.127 33.474-4.939-.319 3.763-2.593 7.095-6.302 8.937-5.962 1.619-14.718 3.152-18.155 3.19-.588 1.53-1.377 6.574-1.464 8.059-.296 8.708 3.574 15.212 5.106 23.423 1.519 6.679-1.182 23.356-9.116 35.296 11.436-8.964 15.156-24.603 20.042-30.204-.9 9.313-5.326 25.665-16.6 31.168 11.178-2.199 23.115-10.478 30.173-17.556-.524 3.588-.363 7.042-3.105 9.783-2.634 2.526-5.724 4.542-8.439 7.001 6.475 9.656 16.449 15.697 26.378 21.557 12.905 6.362 22.437 7.388 30.872 23.715.89-12.053-15.808-24.66-16.45-32.65 6.397 5.971 18.829 15.46 20.377 34.672 6.94-11.53 4.928-18.855 5.237-21.557-.148-2.54.464-6.943.222-9.483 4.48 5.694 6.42 9.143 7.023 14.575 6.558 2.325 12.574 3.96 19.822 4.354 6.43.023 41.013-6.21 44.895-7.057-.598-.423-6.193-4.544-7.773-8.345 9.1 2.746 20.976 13.524 29.398 15.508-7.745-9.693-12.515-14.836-15.715-17.59-1.53-1.119-2.832-2.576-4.81-4.883 7.639 4.005 18.181 16.873 22.348 21.467-1.626-10.159-8.023-26.267-15.265-32.344.847-1.263 3.643-2.862 4.49-4.112 2.307 2.087 4.16 4.774 5.128 6.204 15.47-15.755 18.616-20.662 24.883-28.66l14.227-18.438-11.306 10.154-8.17 5.892c3.279-7.163 17.117-18.276 25.829-24.474-15.938 2.58-22.931 14.634-29.355 17.188 2.177-3.427 5.93-6.389 8.618-9.44 2.62-2.54 5.3-5.861 8.23-8.025 1.256-2.502.507-4.569.41-7.833-9.392 2.892-21.192-.749-25.937-4.008-.49 2.78-.762 4.5-1.07 5.873-3.278 27.898-20.851 50.42-46.54 60.529-18.19 7.082-36.594 5.72-50.436 2.276-13.586-3.382-21.555-8.012-21.555-8.012s8.634 3.208 22.128 5.026c13.855 1.866 31.017 1.703 47.646-4.918 23.85-9.385 40.094-30.394 42.853-56.447a78.997 78.997 0 0 1-.026-5.035c-6.753.64-11.06.28-17.028-1.135-5.026-1.712-8.997-4.733-12.56-9.439-2.647 2.446-7.714 4.757-11.202 4.666.233 7.16 2.221 15.269 3.46 17.711-5.19 2.145-11.214 5.281-14.508 11.652-2.27 4.838 1.035 9.501-2.634 13.788-1.236-2.5-1.169-5.994-3.425-7.633-4.766-3.454-11.5-3.91-17.56-1.865-3.703 1.25-5.865 5.198-8.943 7.697.256-3.668 1.452-7.418 1.21-11.073-.994-4.233-3.037-8.72-7.284-10.509-5.335-1.182-8.466-1.87-15.306-2.538 3.199-2.15 6.854-4.086 9.703-6.68 3.104-2.996 3.399-5.345 3.575-9.558.178-4.244-3.683-7.734-6.16-10.065 7.692.47 15.272.85 21.387-1.85 2.89-1.371 5.58-1.895 7.36-4.594 1.001-1.517 1.736-4.007 1.951-5.808 3.426 6.488 5.79 9.339 9.512 10.62 8.449 1.324 14.518 3.044 22.121-.917 1.922-1.976 2.864-4.986 4.14-7.392 3.682 4.556 6.182 9.192 11.853 11.584 4.717 1.909 9.501 4.825 14.73 3.938 6.608-.452 8.408-4.187 11.207-9.045 2.155 3.154 7.295 8.576 12.357 10.426 6.045 2.206 14.102 2.736 19.303-.011 2.946-1.554 3.635-5.19 5.323-8.265 4.328 5.228 6.935 10.456 13.707 12.956-.009-.016-.023-.03-.033-.047 3.683 1.212 7.69 2.657 11.159 3.219 4.34.269 9.745.308 13.21-2.54 1.74-1.43 1.665-4.18 2.538-6.262 5.738 4.999 10.025 10.428 17.39 13.264 8.694 3.749 20.28 2.685 26.24-1.295 1.462-.976 1.765-4.806 1.67-6.433 6.881 4.045 12.89 8.426 21.02 9.797 7.782.712 15.142 1.29 22.197-2.647.215-2.728.39-5.456.578-8.184 4.354 2.822 8.533 5.563 13.694 6.719 8.291 2.123 17.873.228 23.988-5.98 2.93-2.688 2.217-6.209 2.916-9.85 10.774 6.504 22.305 6.21 31.26-1.762 1.533-1.492 3.172-3.627 2.661-5.899-.604-2.943-2.835-5.644-4.3-8.237 7.338-.188 14.03-.74 20.453-4.625 4.556-4.22 7.526-10.684 8.265-16.825-.288-3.49-1.757-4.876-5.174-7.874 4.73-.998 7.39-2.58 10.399-4.825 4.34-4.394 7.714-9.581 8.17-15.91.672-3.508.11-7.62-2.725-10.066-2.378-1.478-5.362-2.081-7.982-3.062 7.583-3.074 13.137-5.595 15.078-13.56 1.469-7.986.361-18.814-7.391-22.12-3.558-1.448-5.671.955-8.184 1.56 2.025-3.142 2.588-5.242 3.211-8.144 3.24-7.647 1.277-17.254-3.749-23.692-6.582-8.94-17.51-7.163-26.11 2.177.053-2.368.14-4.677.017-6.979h.012c.303-8.102-1.79-18.256-11.695-23.215-7.66-2.584-18.745-2.186-25.022 1.519-2.433 2.07-3.427 5.845-5.026 8.547-3.118-12.824-8.122-23.21-22.1-22.402zm-165.03 2.365c.67-.01 1.35 0 2.04.023-2.043 4.14-5.752 4.892-9.514 6.854-.659 2.795-1.237 5.603-1.976 8.372-2.513.107-5.012.215-7.512.309.47-4.287 1.196-8.036 4.61-10.98 3.515-3.55 7.669-4.518 12.353-4.579zm124.7 2.7c2.514-.038 4.986.269 7.02 1.728 6.885 5.385 5.922 15.15-.758 17.712-1.16-8.217-5.089-14.258-12.022-19.109 1.823-.064 3.803-.302 5.76-.33zm44.919.872c3.15-.076 6.172 2.09 8.08 4.13 4.53 6.832 2.262 11.208-1.787 14.226-1.427-4.4-3.167-8.745-8.949-17.712a6.407 6.407 0 0 1 2.656-.644zm-374.58 5.21c-13.928 4.15-14.071 14.743-13.87 19.486.806 5.86 6.042 13.022 11.189 15.884 15.099 9.4 62.725 1.134 82.773 7.616-4.894-6.874-47.623-8.187-54.329-9.558-9.205-1.464-23.287-3.55-29.402-10.968-3.655-3.99-8.575-12.24 3.64-22.458zm283.68 2.005c3.612.003 6.247 1.15 8.129 2.836 2.374 2.584 4.408 8.055.873 12.115-5.06-4.7-9.45-10.536-14.55-14.188 2.065-.53 3.907-.764 5.55-.762zm-163.04 1.22c-2.396 0-4.34 2.054-4.34 4.587s1.944 4.586 4.34 4.586c2.397 0 4.34-2.053 4.34-4.586 0-2.535-1.943-4.588-4.34-4.587zm301.85 3.498c7.095 5.56 8.48 8.862 7.706 14.898-1.184 3.4-5.075 7.113-7.52 6.912 1.675-6.49 2.479-17.211-.185-21.811zm-176.32 2.995c3.147.46 5.44 1.408 6.8 3.695.49 1.696.107 3.2-2.794 5.268-2.897-5.999-2.477-3.454-7.102-8.923a9.325 9.325 0 0 1 3.096-.04zm-44.708 9.932a90.881 90.881 0 0 1 2.46 4.3 213.73 213.73 0 0 1-5.9-.591 40.106 40.106 0 0 1-.054-3.36 61.488 61.488 0 0 1 3.494-.349zm202.58 2.697s14.097 5.482 27.908 22.972c5.507 6.977 10.611 16.271 12.552 27.294 1.582 9.109.87 19.021-2.432 28.578-3.406 9.83-9.214 18.804-16.51 26.468-31.956 33.657-99.648 53.59-189.56 30.853-126.4-31.963-174.6-2.7-179.81 29.26-2.082 12.237 2.139 24.856 8.43 34.544 6.64 10.18 15.387 17.09 22.061 21.246 6.693 4.167 11.231 5.819 11.231 5.819s-4.725-.961-12.003-4.399c-7.23-3.413-17.04-9.554-25.022-20.023-7.6-9.933-12.929-23.744-10.663-38.16h-.004c6.101-37.392 59.581-66.437 187.26-34.149 88.594 22.402 153.59 2.55 183.69-29.155 6.783-7.165 12.294-15.323 15.618-24.203 3.23-8.595 4.27-17.607 3.21-26.003-1.261-10.178-5.537-19.238-10.354-26.279-12.146-17.764-25.606-24.664-25.606-24.664zm-208.4 3.39c3.48.619 6.84 2.352 10.065 3.763 3.669 1.64 6.477 5.712 5.63 9.81a84.635 84.635 0 0 1-4.34 1.653c2.688 4.865 3.575 7.405 2.11 12.941-1.949-.672-3.884-1.384-5.846-2.056 1.196 1.384 2.392 2.755 3.575 4.126-.807 2.338-1.613 4.69-2.433 7.015-2.405-.457-4.864-.726-7.243-1.29-1.881-1.358-3.548-3.037-5.228-4.637 4.166-.188 7.822 1.17 11.92 1.774-1.962-4.891-2.996-5.845-7.78-7.915.59-1.37 1.196-2.741 1.8-4.099 3.4 1.371 6.626 2.3 10.267 2.85-1.76-5.066-5.9-8.452-7.982-13.384 3.266.443 6.504 1.008 9.783 1.397-1.854-2.486-3.171-5.12-6.222-6.249-3.601-1.384-7.418-2.177-11.087-3.426a70.582 70.582 0 0 1 3.01-2.272zm-63.537 1.4c8.207.153 12.237 8.955 11.235 16.274-1.949 8.397-6.988 14.433-13.21 20.104l-2.46-3.79c4.06-4.327 8.05-8.117 10.443-13.694 1.733-3.709 1.76-8.333-.054-12.002-1.868-2.58-4.61-4.515-6.76-6.88.273-.014.542-.017.807-.011zm323.52 6.754c6.625 1.736 6.796 13.28 4.935 15.926-1.902 3.898-6.118 4.823-8.644 4.742 1.841-2.903 2.325-7.766 3.467-11.02.645-3.104.161-6.49.242-9.649zm-302.8 7.986c.538 3.212 1.158 6.666.607 9.918-2.593 4.421-5.645 7.525-10.899 8.399 5.47-4.838 8.426-12.91 10.293-18.317zm32.139 2.578c1.246-.043 2.471 1.357 1.403 2.717-1.52 1.528-3.989-.681-2.403-2.311a1.559 1.559 0 0 1 1-.406zm-24.169 2.314c.47 1.29.887 2.593 1.25 3.924-.067 1.841-3.32 2.419-4.623 3.346.027-1.424.08-2.835.148-4.247a171.68 171.68 0 0 1 3.225-3.023zm37.184 16.462c-.04 5.24-.323 13.828-5.698 16.61-1.102-6.464 2.419-11.37 5.698-16.61zm-135.85.255c1.828 2.03 3.548 4.112 5.107 6.357-2.137-.592-4.26-1.237-6.33-2.057a97.56 97.56 0 0 1 1.223-4.3zm21.663 2.379c.161 2.607.175 5.2.108 7.807-1.6.242-3.199.457-4.798.686 1.586-2.822 3.09-5.685 4.69-8.493zm7.861 3.131c.162 2.392.256 4.784.31 7.176-1.855.551-3.696 1.102-5.564 1.626 1.814-2.903 3.507-5.873 5.254-8.802zm19.365.175c.538 4.596 1.56 7.297-3.386 9.568a62.23 62.23 0 0 1 .86-5.711 90.525 90.525 0 0 1 2.526-3.857zm78.567.088c1.554 0 2.36 2.771 1.272 3.997-2.285 1.344-3.44-2.123-2.204-3.682.33-.218.645-.315.933-.315zm-86.83.973c-.363 2.003-.27 4.516-1.33 6.303-1.17 1.169-2.621 2.123-3.965 3.104 1.25-3.117 1.33-8.748 5.295-9.407zm369.65 2.618c1.644 5.703.322 9.856-2.582 11.937-7.229 3.102-9.708-.025-10.716-1.1 4.77-1.911 10.623-5.287 13.296-10.837zm-299.6 1.833c1.405-.033 2.687 1.15 1.711 2.793-1.599 1.653-4.582.08-3.292-2.15a2.38 2.38 0 0 1 1.58-.643zm-10.335 2.653c1.358-.043 2.534 1.107 1.551 2.76-1.612 1.626-4.65.323-3.213-2.016a2.442 2.442 0 0 1 1.664-.744zm303.28 35.37c.073 7.337-9.937 13.062-14.273 7.112 4.361-2.742 10-3.039 14.273-7.11zm-18.042 34.492c-2.069 4.435-5.67 6.733-10.495 6.988-2.916-.618-4.528-2.553-6.396-4.663 6.45.482 11.276-.21 16.892-2.325zm-318.47 9.952c2.594 4.88 6.27 7.406 13.035 9.945-7.131 4.104-12.37 1.271-13.938-.108-3.292-3.038-.68-6.497.904-9.837zm34.951 2.945c4.377 3.991 7.142 7.391 14.77 9.583-1.522 5.856-8.711 3.76-11.163 1.897-3.456-2.741-3.942-6.105-3.606-11.48zm-73.132.295c4.656 3.54 7.893 6.84 13.156 8.766-3.558 3.47-8.448.686-11.68-1.377-1.858-1.576-3.33-5.093-1.476-7.389zm111.8 4.22c2.823 4.474 7.209 7.956 11.248 10.701-3.507 2.055-6.934 3.055-12.048-2.267-2.076-2.162-1.221-4.761.8-8.435zm35.504 2.381c2.364 4.052 8.13 7.514 15.926 12.49-3.569 2.896-8.56 3.161-12.979.346-3.679-3.096-5.996-5.979-2.947-12.834zm166.73.73c5.658 1.25 13.393 2.44 18.778 1.774-1.23 2.168-3.95 5.781-7.014 5.97-4.685.288-9.64-2.476-11.763-7.744zm-124.51 9.86c3.75 4.435 13.05 8.942 18.638 11.333-6.216 2.32-7.55 2.776-11.208 1.807-2.556-.675-4.729-2.835-6.18-4.972-.914-2.566-1.129-5.453-1.25-8.168zm50.824 1.021c5.305 4.905 9.15 7.668 15.556 11.991-4.867 1.406-9.406 2.083-13.416-1.313-3.758-3.273-3.104-8.16-2.142-10.68zm35.254.434c6.128 2.714 19.63 4.607 25.483 2.822 0 0-6.08 6.628-10.204 7.212-4.136.585-8.616-1.452-11.839-4.11-1.761-1.451-2.566-4.486-3.44-5.924zm-210.35 3.097c4.341-.04 5.385 2.498 6.14 5.157-5.808.153-8.025-.566-14.012.14.377-1.093 1.983-3.803 6.959-5.256.32-.027.625-.039.914-.04zm-67.81.89c1.518 10.132-11.874 14.722-17.662 6.52 3.593-1.385 11.937-3.274 17.664-6.52zm4.907 24.081c4.831.688 5.546 5.324 5.637 10.133-.178 4.872-2.502 6.565-9.25 8.84 1.448-7.243 3.24-14.336 3.613-18.972zm56.36.148c5.571.353 6.37 3.433 6.79 6.608-6.277-.752-8.552-1.875-15.11-2.06.578-1.115 2.735-3.773 8.321-4.548zm76.247 3.579c-8.17 15.642-14.015 24.829-19.12 28.987 11.29-2.62 46.623-8.484 61.588-6.288-6.659 1.473-13.76 2.792-20.795 4.11-7.037 1.318-14.01 2.632-20.413 4.086-6.402 1.457-21.598 4.639-27.206 6.168-2.308 4.5-4.382 6.875-6.486 9.482 0 0 6.304-1.913 14.406-4.257l-.039-.13c56.244-17.117 108.94-17.708 144.48-5.368 15.277 5.225 28.221 13.672 36.288 25.341 4.153 6.052 6.374 12.351 7.28 17.967 2.017 12.617-1.325 20.283-1.325 20.283s2.11-8.086-1.076-19.768c-1.407-5.184-4.03-10.766-8.245-15.98-8.169-10.197-20.409-17.013-34.908-22.13-34.174-11.869-85.208-11.455-140.72 5.443l-.063-.206c-6.238 1.9-12.32 3.498-17.735 5.636 1.438 6.126 2.381 9.206 3.268 15.477 9.356-1.077 17.89-1.128 26.033-.47 7.123.578 19.48-.825 26.601-.771-3.064-1.774-7.988-7.812-10.662-10.177 10.254-1.277 18.525 13.245 26.534 17.88-.613-9.627-9.438-18.51-12.585-25.931 6.477 2.553 9.98 6.793 15.347 15.189 12.072-4.302 30.578-4.783 41.62-2.867 4.514 1.13 10.713 9.41 15.094 11.064-4.737-6.125-13.225-13.758-19.392-21.022 11.296 2.7 18.231 13.963 23.665 23.047 3.763-6.786-3.947-23.372-3.884-28.597 2.285 3.172 8.99 9.53 9.366 14.52 8.162 1.536 15.492 5.712 22.456 14.131 3.346 4.26 3.523 17.986-4.779 21.827 9.971 1.272 13.756-14.715 15.073-18.573.874 1.976 2.701 4.207 2.701 6.397-.591 3.05-6.512 16.601-15.99 15.504 8.641 4.343 18.25-10.103 20.682-11.89.269 2.258 1.13 4.085.027 6.262-1.465 4.22-4.824 5.604-8.144 8.077-2.324 1.559-3.185 4.959-4.972 7.122-10.186 10.173-25.439 12.632-39.039 9.192-10.603-1.25-30.474-15.786-36.385-14.985 3.701 3.086 13.928 13.79 17.141 16.678 4.274 3.71 9.971 2.648 12.256 8.466-4.797-.12-9.877-1.315-13.72-4.312-4.758-3.803-6.825-8.62-10.655-13.672-3.983-3.424-12.37-8.38-15.715-8.605-.05 2.208 15.79 17.841 18.171 21.066 2.379 3.454 5.779 5.712 7.553 9.622-4.328-.295-8.279-1.465-11.812-4.004-2.379-2.85-3.656-7.015-6.343-9.703-3.373-1.062-6.975-.134-10.334-1.707-6.747-2.567-14.003-2.498-20.736-4.863-6.45-2.85-13.277-3.91-19.432-7.54-4.73-2.808-13.824-4.8-20.25-7.206 2.62 3.507 10.334 11.037 12.995 14.518 2.566 3.534 7.295 4.918 10.979 7.364-5.913 3.145-11.166-.216-14.93-4.785-3.372-4.57-14.496-15.796-18.595-19.718 2.691 6.52 7.36 15.258 12.588 22.97 1.894 2.002 3.683 4.031 5.148 6.37-2.58-.323-5.9-.484-8.09-2.03-4.314-3.306-4.717-10.882-8.87-13.972-6.437-1.491-13.223-1.924-19.74-3.254-5.067-.78-9.703-2.874-14.73-3.868-6.477-1.828-11.814-3.043-19.716-3.28-5.456-.617-14.217-3.537-19.458-1.63 8.61 5.856 16.513 9.893 24.12 12.192-2.325 1.102-3.87 3.424-6.559 2.174a475.678 475.678 0 0 1-9.823-3.667c-4.327-1.976-11.702-7.637-20.609-13.717 2.014 3.714 7.281 10.897 8.894 13.236 3.332 3.95 8.33 6.504 12.283 9.823-.565 1.478-1.156 2.957-1.734 4.435-4.892-2.392-9.69-4.636-13.761-8.332-2.54-2.741-7.216-.55-10.185.296-8.507 3.252-16.771 3.924-23.8 9.756-5.953 5.147-12.792 9.764-17.602 16.015-3.602 4.515-20.628 10.334-28.483 8.501 14.457 8.751 29.596-4.318 37.605-6.44 3.386-1.371 7.767 1.168 11.073 2.136-6.02.766-11.517.981-16.502 4.878-8.513 3.989-20.762 7.484-28.648 5.087 13.606 9 25.583 5.785 30.327 5.973-1.758 4.101-3.23 6.265-7.376 6.034-2.782 0-6.169-.806-8.655.591-3.736 6.29-3.669 15.306-3.548 22.388-.013 6.128 1.613 11.517 2.648 17.578.739 4.69 3.332 8.668 4.125 13.304.47 2.688-1.53 22.136-2.605 25.5 4.17-6.545 8.135-24.954 9.311-37.084 2.571 8.448.949 28.023-5.48 37.567 7.719-4.398 13.866-23.203 14.497-31.024 3.534 2.943 3.978 7.069 3.05 11.342-1.343 4.126-3.244 10.262-5.824 14.281 1.68 4.704 5.273 7.999 9.883 10.35 8.103 4.502 16.672 7.117 23.747 12.62 9.455 7.355 18.58 18.411 25.514 26.702-3.448-10.52-8.442-21.007-18.937-33.47 16.048 8.784 20.94 18.693 23.33 30.075 3.686-8.056 1.629-10.688.88-16.45-1.182-6.129-4.97-13.065-9.37-19.152 7.502 3.447 15.969 9.693 16.387 18.392 11.006 2.312 26.646 1.981 37.087-2.239 9.885-3.917 18.792-10.133 26.097-16.677-7.889.175-14.753 5.967-22.211 1.076 6.638-2.043 13.424-3.266 19.902-5.873-3.158-1.572-6.384-2.997-9.515-4.623.08-1.21.173-2.432.268-3.642 4.448-.739 9.527-.107 13.102-3.064 6.45-4.945 10.858-12.054 14.31-19.298 2.997-6.437 8.551-23.132 9.143-30.106-11.385 2.163-19.984 2.753-30.841-6.163-.31 3.468-.762 6.407-1.143 9.122-1.575 17.083-8.577 32.29-19.112 43.555-9.578 10.258-21.979 16.435-34.2 18.29-12.208 1.81-22.79-.864-29.693-3.526-6.998-2.698-10.647-5.29-10.647-5.29s4.016 1.998 11.127 3.785c7.045 1.769 17.34 3.169 28.382.608 11.077-2.527 21.945-8.74 30.613-17.995 9.969-10.66 16.56-25.287 17.664-41.823a31.649 31.649 0 0 0-.78-5.213c-11.1.516-16.294 2.739-24.904-2.007-2.257 9.997.129 16.153 2.831 24.875-4.865-.255-7.453-.763-12.259-.768-5.475-.008-11.503 3.668-16.166 6.544-1.169 2.446-1.41 5.374-2.11 7.995-2.648-4.135-4.56-9.2-8.853-11.416l.004-.023c-1.946-1.36-4.276-2.158-6.339-2.3l-.076.053c-3.688-.254-7.375.091-11.063-.53 3.453-3.696 6.168-7.916 8.91-12.15 2.23-3.495-1.224-8.884-5.054-9.462-3.695-.766-7.243-1.626-10.67-3.292 4.032-1.196 8.79-1.652 12.377-3.775 3.306-1.908 6.357-4.38 9.327-6.76-1.143-2.848-2.083-5.482-1.909-8.613 3.926 4.618 5.701 6.486 8.905 8.69 5.08 2.607 9.747 4.432 14.546 3.713 3.413-.242 8.6-.484 10.925-3.386.672-3.091.927-6.264 1.612-9.368 2.836 2.137 3.94 5.24 6.116 7.861 5.013 4.825 9.082 8.28 18.962 7.768 3.266-.282 6.409-2.567 9.365-3.924.148-2.769.27-5.536.484-8.304 4.045 4.33 7.526 6.666 11.584 9.756 4.346 3.321 15.892 4.166 24.646 1.613.591-2.741 1.267-4.02 1.993-6.735 5.512 12.216 13.172 16.357 21.87 15.457 8.395-.868 13.452-3.494 13.725-12.336 4.488 4.837 7.606 12.955 15.038 13.33 6.786 1.398 13.022-.282 19.378-2.553 1.236-2.217.812-4.067.914-8.13 10.743 7.88 23.71 12.265 38.03 4.529.297-2.406.579-4.825.901-7.23 4.811 3.118 9.206 7.888 15.441 7.284 7.042-.565 15.59-3.172 20.171-8.87.403-2.07.162-4.3.229-6.41 5.42 2.685 11.638 3.763 17.376 1.962 6.638-1.68 9.877-7.969 12.886-13.506-2.379-1.949-4.811-3.816-7.176-5.765 4.206-1.17 8.506-.173 12.646-1.154 5.28-2.003 11.8-3.864 12.952-8.793 1.652-7.707 1.12-11.292-3.821-14.997 7.813-2.965 13.734-8.286 15.152-16.243 1.357-5.16-2.62-10.198-6.007-14.014-2.164-.94-4.556-1.37-6.813-2.083 4.31-2.712 9.796-5.002 11.196-10.228 1.424-5.362.067-12.27-3.884-16.395-2.338-2.607-4.932-5.308-8.023-7.029-3.158-.12-6.41 1.089-9.528 1.586 3.347-4.58 4.489-10.805 3.736-15.925-1.76-5.321-6.33-10.698-12.014-11.896-3.91-.873-8.033-1.64-11.064.468-2.22 1.543-2.362 4.707-3.142 7.476-2.518-7.241-4.925-16.451-14.863-21.918-8.876-4.285-17.045-4.333-21.34 6.45-1.088-2.486-1.854-4.972-3.655-7.069-5.641-7.032-9.021-9.894-17.86-10.979h-.003c-10.385 1.07-21.258 4.876-25.197 14.765-2.728-4.918-7.097-9.095-12.056-11.743-8.195-3.135-15.638-2.93-21.999 2.755-1.693 2.366-2.607 5.335-3.857 7.942-5.069-6.504-7.021-9.363-14.047-10.673-8.095-.266-17.357 2.214-23.224 8.948-3.518-6.534-12.86-10.047-15.224-12.546zm70.259 5.147c4.813.009 9.219 1.37 11.959 4.702 1.994 2.424 1.904 7.248 1.165 9.347-4.354-5.855-10.86-9.822-15.208-13.975a28.645 28.645 0 0 1 2.083-.076zm48.024.57c1.903-.057 3.937.443 6.558 1.711 5.429 3.642 9.719 12.014 3.828 16.564-.526-9.987-11.253-14.45-13.766-17.618 1.144-.39 2.24-.623 3.38-.658zm-113.81 1.666c1.66.074 3.135.493 3.695 1.082 1.25 1.311 3.378 5.765 1.461 7.724-1.448-3.215-7.17-7.352-9.955-7.797 1.296-.806 3.14-1.08 4.799-1.008zm37.246.04c1.293.044 2.378.446 3.296 1.648 2.58 2.835 2.262 5.58.444 7.9-3.068-3.937-4.464-5.872-8.269-9.053 1.74-.226 3.237-.54 4.529-.495zM188.61 298c2.354.03 4.797.835 6.574 2.887 2.115 2.894 1.566 5.978.65 8.463-4.367-4.823-8.352-6.684-11.685-10.473a11.096 11.096 0 0 1 4.462-.877zm259.82 10.133c5.24 1.008 10.245 2.982 10.157 8.877-.062 4.18.111 7.912-5.134 10.232.694-4.178.358-8.197-1.142-12.07-.833-2.513-2.806-4.596-3.88-7.04zm36.612 13.817c5.711 6.065 4.846 15.185 3.187 17.33-1.958 2.337-6.818 2.95-8.807 2.466 2.163-4.099 5.687-14.406 5.62-19.798zm20.512 30.81c1.088 2.23 3.17 8.66 1.067 12.132-2.289 3.783-6.456 5.838-12.248 5.099 3.052-4.39 9.151-11.876 11.18-17.231zm-35.362 4.335s6.034 12.691 3.691 33.247c-.939 8.161-3.83 17.487-9.953 25.852-5.395 7.32-12.82 13.438-21.565 18.091-9.479 5.05-19.884 8.3-30.63 10.352-34.464 6.623-79.507 3.138-125.99-7.494-21.73-4.971-42.52-6.41-60.994-5.075-15.868 1.17-31.176 4.112-44.968 10.258-5.735 2.556-11.033 5.587-15.636 9.327-4.107 3.343-7.581 7.147-9.981 11.448-2.334 4.163-3.603 8.748-3.715 13.218-.155 5.325 1.3 10.54 3.347 15.042 3.04 6.673 7.583 12.33 11.638 16.685 11.659 12.509 20.999 17.823 20.999 17.823s-9.699-4.58-22.268-16.57c-4.39-4.182-9.38-9.74-12.987-16.658-2.445-4.684-4.291-10.278-4.42-16.328-.089-5.096 1.11-10.373 3.601-15.241 2.558-4.975 6.254-9.386 10.641-13.166 4.895-4.228 10.498-7.674 16.513-10.514 14.43-6.816 30.425-10.192 46.798-11.355h.001c19.095-1.38 40.501.116 62.78 5.214 46.067 10.537 90.038 13.875 123.5 7.447 10.341-2 20.237-4.864 29.237-9.335 8.266-4.115 15.356-9.394 20.617-15.86 5.995-7.32 9.273-15.871 10.716-23.568 3.686-19.566-.97-32.838-.97-32.838zm35.086 28.342c1.9 5.259-.356 10.63-4.16 13.293-3.35 2.348-11.103.398-12.26-.556 8.827-2.914 13.218-4.748 16.42-12.737zm-12.142 35.378c-3.205 7.81-9.179 12.427-16.113 3.13 5.876.708 11.38-.312 16.113-3.131zm-40.302 17.846c7.817 6.41 13.076 5.48 19.483 4.704-3.078 2.835-8.472 6.403-13.094 5.476-5.45-1.777-5.18-6.793-6.389-10.18zm-243.11 4.861c4.754 6.038 5.459 8.126 9.219 12.464-7.812.077-9.058-1.8-10.663-3.553-2.148-4.032-.889-5.768 1.444-8.913zm69.27.107H279c4.076 7.136 9.627 9.999 14.726 13.116-5.416 2.487-14.3-.114-16.435-6.328-.911-2.647.766-4.61 1.707-6.786zm-36.72 2.137c2.07 3.784 6.257 7.839 12.94 10.55-2.432 1.397-4.326 2.862-7.296 2.297-5.335-1.707-9.004-7.566-5.644-12.847zm183.87 3.039c3.36 6.133 9.873 7.579 14.742 10.805-4.623 2.943-10.548 2.956-14.325-1.264-2.258-3.117-1.667-6.168-.417-9.54zm-109.86 2.338c1.182 2.607 1.438 5.893 3.455 7.969 2.416 2.486 6.343 2.822 9.42 4.408-4.502 3.52-8.789 2.136-13.156-.713-2.756-2.961-3.728-7.638.281-11.665zm-125.75 4.056c-.196 3.115-1.035 5.536-3.897 7.055-3.629 2.177-10.55-.574-12.33-4.959 4.301.546 11.49.414 16.227-2.096zm198.01.719c6.698 4.276 11.949 4.84 19.526 4.274-3.145 3.817-8.754 5.448-13.041 4.239-3.615-1.734-5.896-5.073-6.487-8.513zm-36.956.576c3.831 5.171 5.714 7.372 12.573 9.606-4.381 4.072-10.724.966-13.391-2.727-1.352-1.872-.296-4.62.82-6.88zm-106.94 15.14c3.572-.058 8.122 2.3 9.692 5.765-4.915.423-10.47-.631-15.43 2.185-.102-4.301.789-7.656 5.395-7.94a7.34 7.34 0 0 1 .343-.01zm-60.296 3.077c3.252 4.596 2.964 9.52-.395 13.097-1.888 2.01-5.664 3.216-8.319 1.776 2.411-3.88 5.86-11.55 8.714-14.872zm215.11 17.221v.004c-7.961.193-12.24 4.293-15.256 10.444-7.65-6.736-11.792-12.746-24.844-8.761-2.836 1.155-5.376 3.184-7.956 4.824-9.47-6.115-13.866-7.929-24.135-3.239-3.897 2.312-8.645 5.613-9.397 9.484-5.257-4.377-6.362-4.106-13.375-7.91-2.42 10.205-11.85 22.035-19.588 27.527 3.4-1.08 14.892-5.527 22.015-7.519 10.73-3 39.197-8.824 47.774-5.59-21.948 4.847-48.49 8.162-66.684 18.584.383.21.682.432 1.028.666l2.214 2.951s.189.367.26.461c37.97-16.727 82.328-19.42 111.22-9.09 6.33 2.246 12.334 5.375 17.473 9.64 4.778 3.958 8.447 8.842 10.553 14.199 2.425 6.288 2.442 12.643 1.46 17.84-2.576 13.533-9.038 20.306-9.038 20.306s5.235-7.777 6.188-20.684c.363-4.867-.232-10.548-2.744-15.672-2.123-4.416-5.582-8.345-9.89-11.628-4.688-3.564-10.175-6.192-16.037-8.305-27.818-9.945-71.549-7.235-108.95 9.918-1.43 3.498-5.49 8.014-16.103 13.086 6.236-.142 9.72 1.198 17.658 1.542 22.691-6.175 27.81 3.238 35.615 9.246.143-7.405-12.126-15.723-17.384-18.921l1.285-2.827c1.773.951 3.627 1.796 5.56 2.633 3.749 1.532 8.544 9.668 11.85 12.382-.278-4.6-4.93-10.207-7.053-11.792-2.89-2.351-3.715-3.816-6.787-6.893 6.68.362 10.177 5.173 16.063 7.23 7.284 1.518 14.218-1.156 21.3-1.412 8.803-.577 17.913 1.32 26.286 3.927-2.136-2.446-4.569-4.572-6.907-6.801 2.89.255 5.886 0 8.01 2.352 1.894 2.459 3.157 13.518 4.528 16.3 5.472-4.041 2.05-10.895 1.586-12.94-1.72-3.534-4.583-6.29-6.02-10.04 3.681 1.761 6.544 3.737 9.191 6.84 3.239 4.006 8.144 4.852 11.557 8.561 1.868 2.916 1.828 7.203 1.99 10.59-.753 5.066-13.21 11.308-19.734 13.632 4.206.014 21.601.895 25.807 1.03.403 1.317.805 2.647 1.195 3.964-7.136-1.048-20.35-1.572-27.445-1.935 2.795 3.319 11.079 8.748 15.728 9.111 3.897.887 7.378-.927 8.789 4.005-5.39.457-10.482-.605-15.777-1.317-4.26-.82-7.916 4.125-12.216 4.354-5.779.269-11.691.35-17.443-.43-4.932-.605-17.508-9.566-22.305-11.124 2.07 3.494 12.252 12.819 11.74 17.199-4.274-3.561-16.763-18.561-23.492-20.63 4.403 5.175 11.45 18.694 11.799 22.47-5.013-3.373-7.487-9.824-11.53-14.07-6.962-1.129-41.183-4.794-48.051-6.81-9.028-2.596-13.455-4.156-20.413-7.757 3.676 4.945 12.35 7.447 16.2 9.689-8.91.415-16.716-6.167-21.956-12.14 1.849 7.728 15.136 16.74 21.528 23.213-9.878-3.666-15.718-8.37-19.191-11.408-18.666-.514-31.05.087-46.363 6.638-6.747 2.339-20.037 6.256-29.288-1.666 7.91 8.797 16.768 10.623 25.337 12.285-14.05 2.123-17.954-.656-24.922-7.88 4.707 8.18 14.187 12.8 19.94 14.363-6.252.77-8.405.65-12.1.432-2.822 3.561-6.262 6.814-8.64 10.697-2.406 6.061-2.137 13.52-2.742 19.983-.363 2.89.854 3.113 1.861 5.733-1.867 2.285-9.869 8.966-16.783 10.426 7.531 3.262 19.814-3.3 23.993-3.944-1.518 3.75-4.407 7.942-3.83 12.108.39 4.421 2.07 9.235 4.543 12.914 3.346 3.131 7.445 5.523 11.167 8.197.027-2.257.067-4.515.12-6.773 4.704 5.214 10.878 13.447 13.18 22.563 1.7-3.605 2.807-9.93 1.79-17.027 3.305 2.124 4.718 5.241 6.935 8.292 2.11 1.68 5.456 1.99 8.023 2.595 8.09 1.8 16.072 1.586 24.283 2.07-3.28-4.032-5.56-7.64-6.81-12.84 4.07 4.649 4.794 7.14 9.538 9.304 3.601 1.666 9.483 8.243 10.676 12.866 3.924-8.727-4.264-15.566-6.75-19.705 3.843.483 6.287 2.27 9.244 4.502 4.582 3.574 10.43 1.64 15.696 1.612 5.483-.39 10.24 1.277 15.562 2.11-.551-4.69-2.755-9.488 1.693-12.968.968 1.962 1.787 4.007 2.863 5.916 2.472 2.687 6.537 2.81 7.754 8.21 2.345 10.242-4.614 20.257-12.054 23.908-2.589 1.23-6.32.399-8.386-.995-1.922-1.72-3.024-4.007-6.48-7.92-.841 7.21 4.592 13.846 7.762 15.18 5.698 3.104 10.513 4.015 16.243 5.098 4.773.134 9.036-2.809 13.074-4.311 3.843-.927 8.238.82 11.705-1.64 3.145-1.76 2.741-4.73 3.507-7.82 4.099-1.909 10.872-4.073 10.24-9.77.283-4.771-4.488-7.029-7.498-9.838 2.311-1.733 4.959-3.4 6.907-5.51.887-2.848.74-6.705-.228-9.527-3.024-2.648-8.346-1.947-12.095-3.359.564-3.937 4.366-9.568 1.477-13.077-2.527-3.816-6.585-4.206-10.563-5.71-2.106 1.954-4.368 2.888-6.704 3.632l-1.952-3.664c.009 0 .019.003.027.004-.088-.154-.175-.287-.26-.44-3.663-7.136-11.42-8.38-16.537-3.564-1.21 1.773-2.137 3.735-3.225 5.577-1.935-2.285-3.494-5.416-6.007-7.096-5.026-2.674-10.407-5.383-15.642-2.336-6.875 4.005-8.843 6.666-10.657 13.463-1.411-1.68-2.701-3.467-4.166-5.093-2.755-.578-5.59-.739-8.359-1.21 3.87-2.647 8.144-3.05 12.605-4.017-2.298-.766-4.866-2.043-7.325-1.962-6.06 2.163-10.025 6.45-14.325 10.952-.228-.784-.449-1.558-.672-2.333l.418-3.31.027.013c.35-1.68.778-3.413.832-5.121-.7-2.567-2.822-4.851-4.327-7.002 2.714-2.378 5.442-4.716 8.17-7.068-1.733-2.97-3.346-5.953-4.406-9.232 5.039 2.513 9.958 4.636 15.589 5.483 3.883.43 7.041-1.022 10.657-2.15a379.771 379.771 0 0 1-3.763-6.854c.685-.672 1.37-1.332 2.056-1.99 3.763 3.346 7.78 6.316 12.375 8.439 2.983 1.357 6.867 1.048 10.106 1.263.457-2.688.927-5.36 1.532-8.008 2.66 3.158 4.314 6.45 8.076 8.465 5.483 3.642 12.23 3.521 18.545 3.413.968-2.015.917-4.391 1.143-6.934 3.548 2.016 8.278 5.268 12.229 6.612 6.02 2.258 12.04 1.841 18.249.753.887-2.836 1.76-5.671 2.943-8.4 2.526 3.333 3.318 6.84 7.51 8.386 7.163 3.36 13.896 3.01 20.656-1.088 1.437-1.438.994-4.556 1.518-6.478 5.093 2.231 10.373 6.612 15.937 6.854 4.206.242 8.8.216 12.82-1.128 2.822-1.357 4.663-4.098 6.693-6.396-1.398-2.916-2.903-5.752-4.18-8.722 7.593 1.478 11.975 6.948 20.254 4.34 4.919-2.673 10.681-9.137 12.588-14.418 1.33-2.352-1.303-5.59-1.908-7.944 10.435-.201 20.987.618 19.687-9.541-.565-7.763-1.075-10.603-6.409-15.24 8.052.512 14.199-.92 15.766-8.475l.054-.004c-.135-4.945 1.983-9.108-2.795-13.632-2.47-2.284-6.075-3.117-7.187-3.287l4.621-7.34c1.64-2.37 1.758-5.503.911-8.354-.631-3.884-1.532-7.46-4.569-10.201-7.6-5.403-13.064.162-17.59 1.773-.016-10.23-2.244-25.684-13.305-27.319-7.122-1.236-13.022 1.909-18.653 5.886-3.685-8.82-6.41-16.306-17.009-16.238zm-168.03 1.425c1.286.021 2.666.456 4.185 1.432 2.935 1.887 3.434 7.658 3.287 10.6-4.182-5.34-8.472-7.559-15.055-7.602 2.38-2.54 4.753-4.481 7.582-4.432zm104.05.873c2.028.445 6.477.417 9.643 4.536 2.11 2.948 1.544 8.26-1.701 9.657-1.183-5.593-5.011-9.662-7.942-14.192zm-137.89.87h.003c1.672-.003 3.318.69 5.16 2.182 2.043 2.112 2.679 5.233-.072 10.63-1.92-5.37-6.287-9.236-10.41-10.813 1.95-1.295 3.648-1.995 5.32-2zm170.14 3.16c2.028.447 6.477.419 9.643 4.536 2.11 2.95 1.544 8.262-1.701 9.658-1.183-5.593-5.011-9.662-7.942-14.194zm36.64.13c5.325.741 7.8 4.13 7.662 9.029.128 3.663-4.101 6.55-5.983 6.195.326-4.156-.473-10.951-1.678-15.224zm-91.312 6.627c1.03 2.637-.108 4.293-1.2 6.522-1.298-3.566-6.535-7.974-6.535-7.974 2.052.048 6.857-.4 7.735 1.451zm124.25 5.736c3.669 1.398 6.356 6.038 6.356 9.662 0 4.615-3.292 5.712-7.592 5.873 2.509-5.126 1.115-10.603 1.236-15.535zm27.543 27.377c2.11 2.263 1.776 8.637.161 11.56-3.128 3.303-6.695 2.896-12.245 1.732 5.324-4.846 9.223-8.306 12.085-13.292zm-25.26 27.797s1.253 13.256-10.348 28.793c-5.088 6.773-12.726 12.917-22.72 17.022-9.544 3.921-20.16 5.878-31.591 6.417-12.26.591-24.677-.407-37.173-2.426a286.991 286.991 0 0 1-13.241-2.459c-8.513-1.785-17.69-3.064-27.01-3.767-13.073-.98-25.83-1.01-38.272.262-11.78 1.231-22.163 3.282-31.423 7.601-4.088 1.908-7.66 4.134-10.55 6.92-2.841 2.734-4.87 5.902-5.917 9.194-1.354 4.17-1.136 8.526-.453 12.02 1.998 10.193 6.267 15.34 6.267 15.34s-4.745-4.673-7.646-15.012c-1.005-3.588-1.587-8.199-.427-12.982.932-3.767 2.94-7.496 5.94-10.745 3.02-3.272 6.78-5.972 11.041-8.228 9.58-5.08 20.483-7.836 32.53-9.44 12.781-1.73 25.971-1.974 39.364-.96l.001-.001c9.565.72 19.002 2.036 27.791 3.878 4.368.914 8.695 1.72 12.963 2.408 12.242 1.966 24.203 3.168 36.03 2.957 11.033-.211 21.121-1.573 30.301-4.822 9.551-3.382 17.06-8.606 22.302-14.698 12.108-13.979 12.238-27.273 12.238-27.273zm30.514.82c-1.001 5.268-2.129 7.02-5.122 8.26-3.987 1.653-8.721.22-12.609-2.95 5.337-2.035 12.283-2.973 17.731-5.309zm-9.335 27.296c-.075 1.667-1.046 5.977-5.277 7.067-5.045.493-10.993-1.317-12.156-4.29 6.123-.165 13.253-2.48 17.434-2.777zm-39.079 20.332c3.787 4.766 8.918 6.74 11.998 8.024-2.95 1.946-6.036 3.937-9.96.309-2.338-1.908-1.876-5.685-2.037-8.332zm-145.93 7.46c2.64 2.854 4.512 4.4 8.252 8.502-1.774.21-5.36-.027-7.705-1.427-2.244-1.479-1.174-4.892-.547-7.076zm115.43 1.437c1.855 2.486 3.42 5.373 6.131 6.814 3.197 1.7 6.194 2.11 9.782 2.647-3.915 5.668-11.19 2.89-14.538-.103-2.62-2.972-2.57-6.308-1.375-9.359zm-138.21.067c2.786 3.204 4.453 6.462 6.98 9.56-3.839.014-6.253-.683-7.987-2.664-1.445-1.65.075-5.691 1.007-6.897zm48.74 1.156c1.733 3.025 5.759 7.77 8.632 10.814-4.18.051-7.52-.236-9.173-3.744-.712-1.868-.953-5.227.541-7.068zM329.65 626c2.164 3.643 5.153 7.14 8.749 10.455-2.392.004-5.43-.188-7.432-1.948-2.432-2.177-3.064-5.671-1.317-8.507zm30.868 3.01c1.734 1.56 3.04 3.589 4.946 4.919 1.998 1.395 4.435 2.03 6.625 3.09-1.783 1.694-4.367 3.105-7.364 1.882-4.637-1.277-5.846-5.725-4.206-9.89zm-118.8 10.858c.71 1.778-1.627 4.131-3.862 4.963-6.306.717-7.306-1.01-8.345-2.49 5.241-.982 8.23-1.397 12.207-2.473zm-38.65 10.177s1.215 2.859 3.875 7.213c2.544 4.166 6.863 10.227 13.237 13.652 5.926 3.362 13.197 4.077 21.12 3.857 12.64-.472 27.496-4.287 43.824-5.991 21.153-2.208 37.665 7.271 43.777 20.83a25.381 25.381 0 0 1 .82 18.666c-2.161 6.004-5.986 10.005-8.9 12.443-2.916 2.44-4.938 3.444-4.938 3.444s1.6-1.6 3.73-4.57c2.089-2.916 4.717-7.342 5.645-12.546.903-4.809.3-10.153-1.868-14.95-4.85-10.755-18.59-19.29-37.637-17.302-16.048 1.675-31.075 5.531-44.226 6.021-8.647.4-17.153-1.317-23.844-5.973-6.98-5.066-10.454-12.156-12.242-16.844-1.867-4.892-2.372-7.949-2.372-7.949zm82.862 5.083c3.756.43 6.694.248 8.213 5.14.275 2.692-1.969 5.953-3.89 5.792-.945-4.4-1.765-7.786-4.323-10.932zm-44.794 3.738s-1.23 4.076-2.99 4.829c-1.71.73-4.36-.272-6.138-2.532 1.881-.443 6.156-1.646 9.128-2.298zm75.027 1.035s2.92 4.757 2.042 6.404c-.833 1.559-4.507 2.392-6.374 1.5 1.424-2.389 3.19-5.235 4.332-7.902zm17.474 7.812c1.217 1.481 1.988 4.54.801 6.29-1.243 1.834-4.945 1.623-6.437 1.663 1.586-2.576 5.2-6.92 5.637-7.953zm12.7 17.282c-.162 1.922.46 4.27-.834 5.685-1.913 2.092-5.867 2.033-8.275 1.974 2.66-2.957 6.176-5.217 9.109-7.66zm-238.02-657.09c2.19-1.41 4.26 2.298 1.33 2.741-1.559-.51-2.002-1.424-1.33-2.74z" fill="#fff"/>
</svg>
