<?xml version="1.0" encoding="UTF-8"?>
<svg width="500" height="600"  xmlns="http://www.w3.org/2000/svg">
 <path d="M4.742 352.18v-351h490.51v351c0 121.92-122.63 224.13-245.25 224.13S4.742 474.11 4.742 352.18z" fill="none"/>
 <path d="M3 157.6V3h206.86v154.6c0 51.445-51.715 94.568-103.43 94.568S3 209.046 3 157.6z" fill="none"/>
 <path d="M484.62 432.83H15.39c32.268 92.914 133.41 162.59 234.62 162.59s202.35-69.674 234.62-162.59z" fill="#094"/>
 <path d="M4.742 4.59v366.59c0 21.307 3.814 41.989 10.643 61.652h469.23c6.83-19.663 10.643-40.345 10.643-61.652V4.59H4.738z" fill="#1c63b7"/>
 <g stroke="#000">
  <path d="m67.711 400.49c-28.284 0-40.05 10.089-57.018 16.928 3.378 13.128 8.143 25.854 14.1 38.074 12.458-4.447 27.212-8.227 42.918-8.227 42.779 0 47.763 23.09 90.129 23.09s47.351-23.09 90.131-23.09 47.763 23.09 90.129 23.09 47.351-23.09 90.131-23.09c17.124 0 32.554 5.782 45.322 11.6 6.54-12.837 11.72-26.269 15.395-40.14-19.017-6.765-30.479-18.235-60.717-18.235-42.779 0-47.765 23.09-90.131 23.09s-47.349-23.09-90.129-23.09-47.765 23.09-90.131 23.09-47.349-23.09-90.129-23.09z" fill="#f00000" stroke-width="3"/>
  <path d="M241.64 41.053v87.587h11.367V41.053zM153.195 74.59l-8.748 7.26 55.926 67.407 8.745-7.26zm193.61 1.34-55.929 67.406 8.75 7.26 55.927-67.413zm-97.566 69.733a58.462 57.702 0 0 0-58.464 57.702 58.462 57.702 0 0 0 58.464 57.708 58.462 57.702 0 0 0 58.458-57.708 58.462 57.702 0 0 0-58.458-57.703zm156.42 23.213-86.468 13.944 1.805 11.222L407.47 180.1zm-311.32 1.34-1.811 11.218 86.468 13.948 1.811-11.224zm220.54 64.458-5.931 9.694 74.734 45.679 5.926-9.694zm-130.44.665-74.735 45.68 5.929 9.7 74.729-45.679zm95.593 34.761-10.671 3.911 30.154 82.235 10.671-3.913zm-60.752 1.34-30.148 82.234 10.667 3.91 30.154-82.233z" fill="#fcdb00" stroke-width="3"/>
  <path d="M4.742 371.18V4.59h490.52v366.59c0 121.99-122.63 224.24-245.26 224.24S4.742 493.17 4.742 371.18z" fill="none" stroke-width="9.4"/>
 </g>
</svg>
