<?xml version="1.0" encoding="UTF-8"?>
<svg width="500" height="600" xmlns="http://www.w3.org/2000/svg">
 <path d="M3.524 3.538v358.45c0 129.92 110.36 235.25 246.47 235.25 136.13 0 246.47-105.32 246.47-235.25V3.538z" fill="#f00000"/>
 <path d="M267.3 595.81s.65 1.708.552-32.008c-.099-33.716 33.118-40.91 33.02-74.625-.099-33.716-33.64-54.217-33.738-87.933-.099-33.713 33.914-50.361 33.816-84.074-.099-33.713-34.808-55.614-34.906-89.327-.099-33.716 34.37-58.12 34.273-91.836-.099-33.713-34.153-47.49-34.251-81.203-.084-28.676 17.47-48.993 17.47-48.993l-57.093-.16c-11.91 21.152-17.854 38.27-17.825 48.147.098 33.714 34.403 50.11 34.5 83.824.099 33.716-33.89 54.596-33.791 88.312.098 33.713 34.135 57.388 34.233 91.1.098 33.714-34.26 51.049-34.161 84.76.098 33.717 34.57 53.554 34.668 87.27.098 33.714-33.22 38.059-32.634 71.77.127 7.293-1.225 31.812-1.225 31.812 9.702 3.32 57.092 3.164 57.092 3.164z" fill="#1c63b7" stroke="#000" stroke-width="3.5"/>
 <g stroke="#000">
  <path d="M322.75 19.412a37.946 36.938 0 0 0-37.947 36.938 37.946 36.938 0 0 0 37.947 36.938 37.946 36.938 0 0 0 37.945-36.938 37.946 36.938 0 0 0-37.945-36.938zM192.46 99.906a37.946 36.938 0 0 0-37.947 36.938 37.946 36.938 0 0 0 37.947 36.938 37.946 36.938 0 0 0 37.945-36.938 37.946 36.938 0 0 0-37.945-36.938zm153.85 142.14a37.946 36.938 0 0 0-37.945 36.938 37.946 36.938 0 0 0 37.945 36.938 37.946 36.938 0 0 0 37.947-36.938 37.946 36.938 0 0 0-37.947-36.938zm-30.104 119.4a37.946 36.938 0 0 0-37.947 36.938 37.946 36.938 0 0 0 37.947 36.938 37.946 36.938 0 0 0 37.945-36.938 37.946 36.938 0 0 0-37.945-36.938zm32.723 84.574a37.946 36.938 0 0 0-37.947 36.938 37.946 36.938 0 0 0 37.947 36.938 37.946 36.938 0 0 0 37.945-36.938 37.946 36.938 0 0 0-37.945-36.938z" fill="#fcdb00" stroke-width="3.5"/>
  <path d="M3.525 3.528v358.01c0 129.76 110.35 234.94 246.47 234.94s246.47-105.19 246.47-234.94V3.528z" fill="none" stroke-width="7"/>
 </g>
</svg>
