<?xml version="1.0" encoding="utf-8"?>
<svg version="1.1" width="603px" height="763px" xmlns="http://www.w3.org/2000/svg" xmlns:xlink="http://www.w3.org/1999/xlink">
  <clipPath id="m">
    <path id="s" d="m1.5,1.5v460c0,165.686 134.314,300 300,300c165.685,0 300-134.314 300-300v-460z"/>
  </clipPath>
  <radialGradient id="a" cx="0" cy="0" r="300" gradientTransform="matrix(1.215 0 0 1.2667 203.3286 244.107331)" gradientUnits="userSpaceOnUse">
    <stop stop-color="#fff" stop-opacity=".31373" offset="0"/>
    <stop stop-color="#fff" stop-opacity=".251" offset=".19"/>
    <stop stop-color="#6b6b6b" stop-opacity=".1255" offset=".6"/>
    <stop stop-opacity=".1255" offset="1"/>
  </radialGradient>
  <path id="t1" d="M136.887,420.898C136.887,420.898 140.955,619.256 128.473,706.387C147.918,720.192 169.068,731.738 191.55,740.632C169.11,696.328 174.758,420.898 174.758,420.898 L 136.887,420.898 L 136.887,420.898 z"/>
  <path id="t2" stroke-linejoin="round" d="M152.982,57C149.248,72.282 133.066,104.121 145.513,128.319C145.513,128.319 131.823,127.045 125.597,113.037C125.597,113.037 118.13,133.413 138.045,152.517C138.045,152.517 121.863,156.337 109.417,142.329C109.417,142.329 109.417,170.348 133.065,176.716C133.065,176.716 118.13,185.63 103.192,177.988C103.192,177.988 106.928,204.734 133.065,207.281C133.065,207.281 113.149,223.836 93.234,211.101C93.234,211.101 98.212,240.392 128.087,239.12C128.087,239.12 118.13,254.402 89.5,246.762C89.5,246.762 91.989,278.602 129.332,269.686C129.332,269.686 113.15,297.706 78.297,286.243C78.297,286.243 79.542,326.997 125.596,309.167C125.596,309.167 104.437,344.827 73.318,326.997C73.318,326.997 80.786,369.025 119.373,353.743C119.373,353.743 100.703,386.855 62.116,365.204C62.116,365.204 70.83,412.325 114.394,393.224C114.394,393.224 95.724,427.609 48.425,408.506C48.425,408.506 55.894,453.082 96.969,439.071C96.969,439.071 64.606,465.816 30.998,439.071C30.998,439.071 34.731,488.739 85.767,488.739C115.64,488.739 136.802,456.901 136.802,456.901C136.802,456.901 136.802,488.739 155.473,498.928C155.473,498.928 180.368,481.097 171.653,453.08C171.653,453.08 199.458,505.255 243.848,488.738C271.233,478.55 273.722,447.984 273.722,447.984C273.722,447.984 230.156,464.541 202.771,433.974C202.771,433.974 241.358,455.624 260.029,405.955C260.029,405.955 218.954,421.237 196.549,393.221C196.549,393.221 238.869,412.324 248.827,366.475C248.827,366.475 210.241,379.211 190.324,353.74C190.324,353.74 223.932,370.297 241.358,324.449C241.358,324.449 202.77,334.637 182.854,311.715C182.854,311.715 216.463,324.449 232.644,286.242C232.644,286.242 192.813,293.885 177.875,270.959C177.875,270.959 211.482,284.969 218.951,241.668C218.951,241.668 190.323,258.224 172.897,234.027C172.897,234.027 206.503,234.027 210.24,204.736C210.24,204.736 187.834,218.745 170.407,204.736C170.407,204.736 194.058,197.092 199.036,172.896C199.036,172.896 185.344,180.537 169.162,172.896C169.162,172.896 192.812,169.076 187.834,139.783C187.834,139.783 175.387,151.244 166.672,151.244C166.672,151.244 180.365,146.151 175.387,115.585C175.387,115.585 167.917,125.774 160.45,127.046C160.451,127.045 172.899,93.933 152.982,57z"/>
  <use xlink:href="#s" fill="#fff"/>
  <g clip-path="url(#m)" fill="#5ab532" stroke="#000" stroke-width="3">
    <path d="m0,0h301.5v763H0z"/>
    <use xlink:href="#t1" fill="#fff"/>
    <use xlink:href="#t1" transform="scale(-1 1) translate(-603)"/>
    <use xlink:href="#t2" fill="#fff"/>
    <use xlink:href="#t2" transform="scale(-1 1) translate(-603)"/>
  </g>
  <use xlink:href="#s" fill="url(#a)" stroke="#000" stroke-width="3"/>
</svg>
