<?xml version="1.0" encoding="UTF-8"?>
<svg width="520" height="658" version="1.1" xmlns="http://www.w3.org/2000/svg">
<g stroke-width="1.3333">
<path d="m0.0053334 0.012c173.32-0.0066667 346.67 0.017333 519.98-0.012-5e-3 132.1 0 264.2 0 396.3 0.18 13.432-0.97334 26.889-2.84 40.184-0.43733 2.3867-0.86267 4.7747-1.192 7.18-0.43067 1.98-0.83068 3.9734-1.196 5.9654-3.888 19.464-10.147 38.402-18.396 56.447-1.9734 4.0147-3.584 8.1494-5.8987 11.991-4.2174 8.1427-8.848 16.101-14.027 23.676-6.9654 10.697-14.861 20.792-23.427 30.258-1.8493 2.3813-4.2254 4.2667-6.0974 6.6414-2.5 2.704-5.1147 5.3907-7.92 7.7787a258 258 0 0 1-55.254 40.304c-4.2667 2.1654-8.3334 4.6307-12.773 6.4614-21.663 10.285-44.676 17.531-68.347 21.373-11.404 1.932-22.877 2.8947-34.412 3.4214-7.5614-0.18-15.219 0.37067-22.733-0.41867-10.039-0.36-20.093-1.7173-30.014-3.2907-23.212-4.1054-45.814-11.213-67.067-21.427a80 80 0 0 1-7.2334-3.5787c-22.135-11.44-42.708-26.099-60.631-43.41a62.667 62.667 0 0 1-7.784-7.8014c-16.187-16.717-30.032-35.854-41.176-56.274-6.2147-11.824-11.899-23.856-16.279-36.494-3.864-10.38-6.7174-21.253-9.2187-32.034-0.88-3.98-1.5493-8-2.356-11.991-1.544-9.98-2.8067-19.92-3.28-30.007 0.15067-2.6334-0.328-5.1707-0.42934-7.7787 0.012-134.48 0.0053334-268.99 0.0053334-403.47z"/>
<path d="m3.5067 3.512c0.010667 63.488 0.00533 126.98 0 190.47 171.03-5e-3 342.06-5e-3 513.07 0 0-63.488-0.02-126.98 0.0107-190.47-171.03 0.00667-342.06 0.013333-513.08 0zm173.68 13.608a70.667 70.667 0 0 1 3.072 0.048c4.2414-0.19733 8.3934 0.39467 12.576 1.024 11.025 1.956 21.853 6.156 31.047 12.595 9.3574 6.1267 16.895 14.312 22.991 23.633 1.8667 2.8667 3.1894 5.8747 4.7747 8.9734 2.7587 5.572 4.4574 11.471 5.8627 17.503 3.4934 17.787 1.2733 36.714-7.24 52.803-2.936 6.3774-7.3094 12.063-11.868 17.369-2.5907 2.992-5.5934 5.4867-8.4827 8.168 2.92 1.4533 5.7254 1.896 8.9667 1.7227 3.0694 0.22133 6.2107-0.68801 9.2014-0.10667 0.024 1.1413 0.0293 1.9067-0.74667 2.7814-4.876 6.048-11.355 10.776-19.144 12.104-6.3774 1.0533-12.575-0.99334-17.679-4.7987-9.8707 4.14-20.728 6.5467-31.454 6.228-11.595 0.38933-23.357-2.4467-33.88-7.2334-14.621-6.7547-27.047-17.968-35.195-31.862-5.952-9.8187-9.5-21.173-10.756-32.555-0.012-2.8173-0.556-5.5707-0.50267-8.3827-0.06667-2.6267 0.46-5.1867 0.47867-7.808 1.6027-16.664 8.4587-32.723 19.64-45.21 4.3494-5.1694 9.4694-9.3041 14.915-13.259 12.703-8.5774 28.052-13.641 43.422-13.737zm118.69 5.9174c10.637 10.04 23.768 18.052 36.242 25.627-0.448 5.732-1.424 11.577-1.2867 17.357-0.14267 2.788-0.58667 5.4627-0.10667 8.264 0.19734 13.461 2.4534 27.001 6.7414 39.776 2.98 8.4667 6.6707 17.107 11.983 24.381 11.337-17.315 17.109-38.43 18.331-58.964 0.38933-4.4587 0.10133-8.9814 0.192-13.456-0.25734-5.7734-0.81334-11.649-1.484-17.387 12.671-7.4494 25.401-15.605 36.319-25.483l1.6387-0.01867c5.6534 8.244 11.713 16.227 17.445 24.424-1.8134 2.716-4.0867 5.0547-5.976 7.7174a186.67 186.67 0 0 0-15.56 25.059c-2.4054 3.968-4.032 8.2454-6.1027 12.373-8.3814 18.477-14.627 37.96-18.893 57.787-0.92668 3.9614-1.6267 7.9534-2.3867 11.949-0.58001 2.6574-0.67601 5.5774-1.6934 8.1067-0.76 0.36534-1.7587 0.264-2.584 0.312-12.36-0.036-24.725-0.0187-37.084-7e-3 -1.52 5e-3 -3.0267-0.168-4.5294-0.34667-4.3134-27.176-11.581-53.647-23.08-78.694-6.5507-14.167-14.387-28.061-24.181-40.26-1.0347-1.4427-3.3974-2.8774-2.356-4.924 4.8814-7.0427 10.152-14.007 15.057-21.085 1.0893-1.2573 1.4413-2.52 3.356-2.508zm-117.69 13.88a25.2 25.2 0 0 0-9.8147 2.2453c-6.324 2.8-11.725 8.3294-13.884 14.952-2.656 7.456-1.3107 16.107 3.5947 22.341-0.26267 0.92134 0.29866 2.3467-1.0653 2.316-4.7254 0.68134-9.2134 1.8-13.184 4.5774-8.436 5.3-13.24 15.508-12.42 25.387 2.0107 14.643 11.157 28.176 23.941 35.572 5.8027 3.26 12.223 5.3374 18.875 5.852 5.2534 0.036 10.391 0.328 15.553-0.88a478.67 478.67 0 0 1-6.2934-6.2894l-0.53333-0.19067c-6.1427-5.2294-13.741-5.4267-21.315-3.872-0.49067-0.24-0.976-0.472-1.4533-0.71734l-0.144-1.3293c4.984-7.156 13.209-12.857 22.02-13.719 6.9467-0.38267 13.192 2.5853 18.307 7.096 3.1774 2.9987 6.1627 6.152 9.0694 9.4067 5.0134-4.7094 9.4107-9.7894 12.353-16.072 2.5374-4.8827 4.2134-10.165 4.804-15.64 0.384-6.8214-1.956-13.923-6.3707-19.147-3.6614-4.5467-8.6507-7.4614-14.196-9.1307-2.0267-0.41867-4.7374-0.36-6.3894-1.6813 0.31067-2.0587 1.7534-3.488 2.6747-5.4507 4.4507-8.9094 2.644-20.169-4.2707-27.308-5.0387-5.5867-12.472-8.5134-19.859-8.3187zm-21.583 198.33c-26.035 0.0533-52.071 5e-3 -78.106 0.024q0.62534 0.64801 1.2507 1.2867c59.04 59.05 118.08 118.14 177.15 177.16 0.0413-26.045-0.024-52.096 0.0293-78.142a114795 114795 0 0 0-100.32-100.33zm246.27 16.623a6.76 6.76 0 0 0-3.2107 0.63334c-4.32 1.6933-4.7254 6.4014-8.86 7.9334-3.1827 1.436-5.9707 0.48533-9.6134 1.1133-4.1334 0.072-7.9987 0.89734-12.133 0.37067-1.04-0.204-1.8893 0-2.9 0.29333 0.736 0.35867 1.4773 0.71201 2.224 1.0467q0.54667 0.80001 1.084 1.5974c-1.1253 0.83733-2.5 1.4893-3.44 2.5373-1.1907 1.4054-1.5854 3.4574-2.0694 5.1867 0.44267 1.5987 0.65734 3.3334 1.7333 4.6614 1.1907 1.4533 2.824 2.0227 4.5067 2.716 1.9253 0.18667 3.8334 0.46134 5.7774 0.50401 3.0867-0.77334 5.092-3.2014 8.28-3.584 1.16 0.28667 2.5427 0.32267 3.572 0.944 2.1413 1.1067 3.4627 3.6214 4.5814 5.6734a41.334 41.334 0 0 0 4.0507 6.88c1.9627 1.2987 3.8774 2.2133 4.984 4.4214 2.1414 3.0094-0.204 8.0787-3.9907 7.9347-3.4587 0.24-6.336-1.1427-9.5307-2.292-4.2294-1.5067-8.7747-3.1174-13.232-3.6854-2.16-0.24-4.476 0.46667-6.0667 1.956-0.70667 0.80267-1.2133 1.796-1.776 2.6987 4.7787-0.95067 9.48-1.4293 14.352-1 4.0267 0.6 7.4587 4.4467 7.4467 8.5574-0.37067 4.3494-1.4467 8.5494-3.152 12.565 7.568 2.5427 15.392 3.6494 23.188 5.2054 5.36 1.184 10.853 1.7827 16.284 2.512 1.7707 0.18 2.34 1.508 3.1174 2.884 1.1253 2.2987 2.4107 4.512 3.452 6.8507 0.65867-1.7053 1.1667-3.452 1.668-5.2054 1.1253-5.0614 0.0547-10.045-2.0147-14.707l0.69868-1.256c0.64 0.0133 1.28 0.0187 1.92 0.0307q1.1507 1.9387 2.328 3.8587c-0.73601-4.1467-1.0173-9.2387 1.1133-13.027 1.028-1.9267 1.56-3.996 2.1653-6.0787-2.4467 1.5374-4.9294 2.76-6.8734 4.9667-2.5667 2.4-4.7747 6.5334-8.316 7.3947a58.667 58.667 0 0 0-2.488-0.40667c-0.93334-0.93334-2.0533-1.8667-2.376-3.2067-0.67601-2.9134-0.62134-5.9947-1.04-8.9334-1.1733-3.3027-4.912-5.7627-7.0054-8.58-2.764-3.2134-4.8227-6.8454-4.3027-11.243 0.67067-5.2414 3.9734-9.6027 7.3227-13.492 2.6867-3.1534 5.48-5.8227 6.784-9.8841-0.772-1.7173-2.0333-3.0454-2.9787-4.6374 0.24534-0.592 0.51467-1.1787 0.79601-1.7533 0.51467 0.0533 1.0227 0.11467 1.5373 0.168 1.1307 1.2267 2.3267 2.1067 2.8774 3.7387 0.93867 2.6627 0.20933 5.2187-1.208 7.54-2.3867 3.7694-5.8334 7.2334-8.52 10.673-1.6387 2.0827-2.8774 4.4214-3.4574 7.0187-1.0227 2.8534 0.66934 6.0427 2.3334 8.316 2.8107 4.1107 6.8134 6.3854 8.7934 11.112 0.57334 2.86 0.13867 5.8214 0.79067 8.6227 0.20933 1.1547 1.112 1.4893 1.9493 2.1467 3.608-3.1294 5.4934-7.1667 9.5241-9.5667 3.488-2.1653 6.7547-4.14 9.4534-7.336 2.344-2.8054 3.5107-6.5094 2.7387-10.141-0.61601-5.0974-2.9974-9.4054-4.224-14.293-1.004-3.7707 0.204-6.9414-2.1413-10.388-1.076-2.076-2.7467-2.7534-4.8334-3.5067a110.67 110.67 0 0 1-2.016 0.52001c0.168 3.8174-1.1547 7.1694-3.38 10.208-3.04 4.1654-5.264 8.4667-6.324 13.552q-1.104-0.016-2.2187-0.0227c-0.156-0.46133-0.31733-0.92134-0.47333-1.3827 0.79067-3.28 1.6093-6.3907 3.4534-9.2627 1.632-2.8414 3.864-5.444 5.2094-8.424 1.3587-3.2907 0.0787-7.336-3.2067-8.8667-3.116-1.5507-6.1854-1.2267-9.5534-1.024-2.5734 0.39467-5.24 0.324-7.8667 0.28133-1.948-0.0267-3.592-0.576-5.296-0.63867zm0.088 8.192c3.3 7e-3 6.5134 0.78667 9.4614 2.768q0.46534 0.816 0.94001 1.6333c-0.336 0.604-0.67734 1.2027-1.012 1.8-2.6667-1.0827-4.9107-2.7334-7.8067-3.2787-0.0347 1.2867 0.0427 2.6214-0.17867 3.8894-0.40666 0.688-1.1907 0.84934-1.9093 0.59867-2.536-1.0467-4.88-2.6027-7.34-3.8414q-9e-3 -0.91334-0.0293-1.836 0.52-0.39733 1.04-0.80267c2.28-0.57867 4.5774-0.93467 6.836-0.93067zm-50.656 1.332c-3.8347 0.57333-6.5147 3.644-7.8134 7.12-0.53734 1.76-1.1707 3.3147-0.56001 5.1574 0.85334 4.6854 4.8987 7.4014 8.8934 9.328 4.8894 2.0227 9.9974 3.4107 15.292 3.7867 1.7107 0.10267 3.3974 0.432 5.1094 0.56267-6.108-1.944-13.556-3.4107-18.893-7.1134-2.6507-1.92-5.42-4.8654-5.14-8.3894-0.0773-4.2427 2.22-7.556 5.5347-9.9854q-1.2133-0.24267-2.4227-0.46667zm-348.78 7.904c-0.053334 26.075 0.013333 52.151-0.034667 78.226 68.312 68.299 136.6 136.63 204.91 204.92 1.4 1.4 2.5467 3.0214 3.9654 4.4094 14.86 14.844 29.71 29.714 44.563 44.564-0.0173-26.087 0-52.175-0.012-78.256-4.9227-4.8294-9.7334-9.7827-14.669-14.6l-0.12-0.63334c-79.094-79.04-158.12-158.13-237.19-237.2-0.472-0.48-0.93734-0.952-1.404-1.4307zm401.9 24.192c0.41334 5e-3 0.85867 0.10933 1.224 0.23733 1.7533 2.8414 2.32 6.8867 0.26267 9.7347-1.5254 2.4347-4.0734 3.3867-6.7 4.1654-0.37067-0.91601-1.184-1.5387-0.61067-2.5494 1.2627-1.0827 2.9014-1.7533 4.3067-2.6454q0.55734-0.836 1.132-1.6627c0.25734-2.22-0.6-4.004-0.868-6.1094-0.0267-0.90934 0.568-1.1787 1.2533-1.1707m-131.03 43.867c-1.5093 0.0133-3.0294 0.22133-4.608 0.78534-1.5613 0.90934-2.364 2.2973-3.2134 3.8347 0.92801 1.0293 1.9267 2.436 3.272 2.9027 2.836 1.1307 6.0974 1.3867 9.124 1.3147 2.2854 0.024 4.344-0.23867 6.5334 0.46134 4.3974 1.2333 8.076 4.3334 9.4401 8.7774 3.2-0.45334 6.0947-1.0587 8.8947 1.0293 3.5654 3.2067 6.6227 6.9467 10.397 9.9627 2.1427 2.0694 4.284 4.0934 6.6174 5.9534 7.3814 5.9947 15.189 12.032 24.552 14.485 0.45334-6.4027 2.3627-12.528 5.5574-18.093-12.515-5.36-24.875-11.232-36.69-18.011-10.231-5.576-20.76-10.213-32.227-12.571-2.6587-0.33333-5.1374-0.85467-7.6507-0.83333zm98.713 10.012c-0.376 0.47866-0.75333 0.95067-1.136 1.4293-1.04 1.232-2.16 2.3747-3.1054 3.6854-2.9667 2.5374-5.7187 5.2174-8.4347 8.024-7.6694 8.2454-12.329 19.093-12.453 30.407-0.0373 2.98 0.59734 5.696 0.968 8.7227 1.7414-1.196 3.332-2.5547 4.976-3.8707 6.9587-6.324 11.833-14.413 14.776-23.311q1.212 0.072 2.424 0.16c-0.192 3.292-1.5733 5.9427-2.8427 8.9227-2.8054 5.6307-6.5987 10.805-11.049 15.257-3.04 2.9974-6.7707 5.1574-9.768 8.1734-19.688 17.585-37.72 37.347-52.831 59.026-2.4053 3.584-4.864 7.5867-7.9747 10.596-2.3813 2.3934-5.228 4.2414-7.232 7.1374-0.95734 1.364-1.424 2.8614-2.004 4.4054 0.06 2.4467 0.68134 4.4454 1.824 6.5814 0.4-2.9627 0.69334-5.6614 2.716-8.0134q1.096 0.0213 2.184 0.0307 0.348 0.672 0.688 1.352c-1.7533 2.0827-2.232 4.3734-2.6694 6.9947 5.3067-0.95067 10.601-4.996 12.12-10.296 1.3533-3.6747 3.076-7.564 5.636-10.56 1.5253-1.748 3.5187-2.328 5.7067-2.7947 1.9627-2.9734 2.848-6.4147 4.8827-9.3347 2.2493-3.6507 5.408-6.1387 8.5014-9.3867 9.4094-8.6054 19.287-16.76 29.768-24.031 4.1694-2.8 8.3867-5.5107 12.42-8.508 6.8614-5.26 13.741-10.524 20.663-15.712q0.968 0.73734 1.9373 1.4827c-0.91467 1.604-2.3387 2.5853-3.7734 3.6734-6.1867 4.62-12.248 9.4-18.445 13.995 3.296 4.0094 7.0827 7.4974 10.733 11.171 4.976 4.368 10.343 8.832 16.2 11.932 6.2454 3.2667 13.884 5.1507 18.893 10.411 2.6134 2.4227 4.2 5.7867 5.072 9.196 1.0053 4.6974 1.208 9.3694-0.24533 13.995-1.752 4.572-4.7374 7.964-6.7534 12.356-2.1413 4.48-2.8374 9.6094-1.4493 14.425 1.7067 5.8267 5.3374 10.8 9.3094 15.293 2.256 2.3507 4.2 4.936 6.6467 7.1134 2.752 2.388 5.6 4.8654 7.8907 7.7067 1.2027 1.3773 1.1667 3.0694 0.68267 4.7454-1.048 3.392-2.3693 6.6707-3.7867 9.92-2.8534 6.684-6.0547 13.271-9.8601 19.464-2.2614 3.4227-4.7494 7.444-8.136 9.8494-5.3067 3.1827-11.743 7.06-14.352 12.936 1.1733-1.2933 2.3574-2.4827 3.728-3.5734q1.236 0.10933 2.4107 0.44934c0.51333 2.136-1.496 2.4347-2.5907 3.8707-1.0773 1.436-2.0933 3.2974-2.5307 5.0334 0.75334 0.62801 1.5854 1.1067 2.4467 1.5734 0.46001-2.0467 0.84934-4.1347 1.9147-5.972 0.85467-1.3333 2.2614-2.416 3.5054-3.368 0.70667 0.14401 1.4187 0.30001 2.124 0.45467l-0.072 1.9147c-2.632 1.7947-3.5894 3.1654-4.1814 6.3307 5.952-2.1 10.517-8.096 12.987-13.691 0.93334-1.8613 1.2747-4.128 2.4534-5.8267 1.376-1.6827 3.16-1.5573 5.1387-1.7 1.0893-0.62934 2.2014-1.072 2.9787-2.0773 1.9027-2.4227 3.1894-5.3667 4.7094-8.04 5.5214-9.4667 11.672-18.879 16.96-28.476 1.34-2.5307 2.8054-5.3067 3.3547-8.1374-0.328-2.2547-1.8893-3.536-3.3907-5.044-3.632-3.6494-6.2227-8.8307-5.9174-14.067 0.0787-4.0134-0.19733-7.976 0.4-11.96 0.0187-4.7747 0.28801-9.6267-0.328-14.371-0.29867-4.32-1.3827-8.516-3.632-12.249l0.75467-1.5013c2.524 0.192 3.1227 2.5067 5.0494 4.0094 4.9707 3.9547 11.528 5.456 17.78 5.432 4.2894-0.35334 8.3867-0.72401 12.425-2.3267 7.9027-3.088 15.004-8.568 19.693-15.676 7.4054-10.129 8.9974-23.969 4.24-35.56-2.0147-4.6894-5.256-9.1414-9.528-12-5.0067-3.6094-11.104-5.6014-17.295-5.38-4.0507-0.144-8.352 1.316-11.42 3.984-3.416 3.1774-4.864 7.3774-5.528 11.895 4.4454-4.2067 10.2-6.8974 16.313-7.3947 4.864-0.43067 9.9067 1.5613 13.305 5.032 3.0387 3.2614 5.1507 7.4374 6.1307 11.775 1.46 5.8227 0.276 11.968-2.5174 17.203-3.728 7.42-10.517 13.605-18.773 15.364-3.624 0.96401-7.0467 0.74934-10.689 0.12-4.32-1.2613-8.3334-3.3147-11.756-6.2587-3.9787-3.7027-6.8267-8.232-7.896-13.612-1.604-6.2694-5.1694-12.433-8.2867-18.069-5.156-9.3334-10.708-17.927-13.407-28.391-1.2613-5.3307-1.9013-10.213-1.632-15.712-0.508-10.428 2.656-20.229 7.1854-29.486-11.816-1.2267-23.627-3.8654-35.195-6.5094-3.596-0.82667-7.1067-2.1-10.739-2.764zm2.4067 92.201c-9.0267 5.1587-17.44 11.597-24.965 18.765a44.4 44.4 0 0 0-5.6774 5.6534c-5.5094 5.72-10.632 12.241-14.149 19.392-1.9027 4.0147-3.3267 8.8134-2.244 13.253 1.328 6.7134 4.7867 12.337 9.1 17.543 4.8334 5.54 10.356 10.363 16.601 14.259 0.0893 1.2387 0.0427 1.7467-0.92668 2.584-5.612 4.8227-11.205 9.6214-17.133 14.061-5.3907 4.0574-10.607 7.8627-16.893 10.472-2.304 0.97467-4.5774 0.872-7.0534 1.4293-5.0374 0.98667-10.625 2.0933-15.141 4.6067-2.776 1.484-4.5947 4.08-5.6067 7.0067q0.34133 1.14 0.78934 2.244c0.6-1.3467 1.0227-2.788 1.7173-4.0867 0.77734-1.1787 1.92-2.1413 2.896-3.16q1.2187 0.012 2.4467 0.0307c0.56267 2.16-0.95734 2.6387-2.0814 4.116-0.928 1.04-1.3947 2.5907-1.8973 3.8774 1.328 0.048 2.6574 0.0667 3.9854 0.072 0.34-3.536 1.9014-5.9774 4.504-8.28 0.568 0.28667 2.28 0.208 2.0267 1.1 0.30666 1.46-0.88401 1.968-1.6494 3.004-1.1973 1.2133-1.4533 2.68-1.9027 4.2534 3.756-0.73467 7.4-1.52 10.272-4.2667 2.2427-2.1773 4.0854-4.5467 7.3574-5.168 4.3067-0.808 9.0534-0.40133 12.319-3.896 2.8414-3.296 6.46-4.9774 10.085-7.2454 8.352-4.8534 16.805-9.4427 25-14.552a47.334 47.334 0 0 0 8.5254-6.396c-2.3453-3.272-5.6054-5.8987-8.3574-8.8374-4.0747-4.4507-7.7654-9.16-10.703-14.444-0.99334-1.836-1.824-3.864-2.1894-5.9294-0.472-3.2534 0.59201-6.5627 2.6614-9.0827 2.956-3.7094 7.072-6.6827 10.811-9.5667 4.104-2.896 7.9147-6.0907 12.139-8.796 7.1014-4.6787 14.752-7.8854 22.697-10.823-2.5787-1.8613-5.0134-3.9014-7.5614-5.7987 0.22133-1.8534 0.52-3.704 0.88-5.54-5.4747-2.316-10.913-4.7334-15.76-8.2094-1.6933-1.1547-3.2174-2.52-4.9227-3.644zm23.68 13.756q-0.30001 3e-3 -0.61867 8e-3 -0.0533 1.0933-0.0907 2.1893c3.488 2.9254 7.1974 5.5947 10.823 8.3414-1.3214-4.4107-4.5347-7.7427-8.4-10.083-0.54667-0.39067-1.108-0.45333-1.712-0.456zm-386.24 12.643c5.5467 19.111 12.725 37.522 22.424 54.934 7.1547 13.072 15.464 25.565 24.813 37.174 1.9693 2.412 3.8587 4.9014 5.9827 7.1694 2.0453 2.596 4.3014 4.996 6.6107 7.3534 5.0067 5.8627 11.037 11.229 16.541 16.352 5.336 4.7147 10.809 9.3214 16.517 13.583 25.527 19.433 54.739 33.902 85.638 42.542a73.334 73.334 0 0 0-2.4894-2.6214c-14.471-14.444-28.907-28.924-43.384-43.367-1.764-1.6453-3.1867-3.5774-4.8627-5.3067-42.607-42.59-85.191-85.208-127.79-127.81z" fill="#fff"/>
<path d="m3.5174 196.95c171-0.50134 513-0.0133 513-0.0133s5e-3 23.696 0.072 35.292c-171.03 0-342.06-7e-3 -513.1 4e-3 0.017333-11.763-0.012-23.52 0.017333-35.284z" fill="#fcdb00"/>
<path d="m178.47 20.217c-10.027-0.26267-20.239 2.124-29.452 6.0067-12.497 5.32-23.535 13.887-31.623 24.813-8.44 11.032-13.664 24.495-15.064 38.304-0.23333 3.2374-0.748 6.3254-0.53333 9.5867 0.37733 4.4267 0.68267 8.8187 1.604 13.181 3.9067 20.289 16.445 38.491 33.747 49.703 10.929 7.0414 23.523 11.409 36.511 12.26 5.408-0.0133 11.044 0.33334 16.32-0.58667 6.0067-0.89733 11.875-2.5133 17.523-4.7267-3.56-3.668-6.94-7.5107-10.404-11.273-1.6387-1.7467-3.0867-3.8227-4.9774-5.3067-2.9374-0.084-5.8667 1.0707-8.8534 1.04-4.816-0.0173-9.2481 0.30667-13.789-0.616-8.2267-1.2973-16.057-4.936-22.519-10.16-7.908-6.4854-13.693-15.28-16.827-24.992-1.712-5.684-2.484-11.48-1.192-17.345 1.6987-8.64 7.316-16.503 15.171-20.572 3.0214-1.6933 6.264-2.7213 9.6627-3.344-2.9134-5.804-4.416-12.08-3.3454-18.584 1.5493-10.512 9.6494-19.488 19.777-22.48 6.4187-1.944 13.688-1.6747 19.921 0.82667 8.752 3.4627 15.428 11.361 17.223 20.624 0.44267 3.1534 0.46 6.54 0.16133 9.7107-0.37733 3.5774-2.0213 6.4867-3.2174 9.7774 2.74 0.86134 5.504 1.352 8.0814 2.704 3.1894 1.4533 5.8867 3.548 8.4654 5.8814 4.36 4.6427 7.436 10.327 8.4 16.669 1.2373 6.348-0.228 13.044-2.46 19.009-2.004 5.1867-4.7374 10.165-8.256 14.485-2.0934 2.6214-4.5467 4.888-6.9694 7.252 4.888 5.3374 9.3281 10.92 15 15.497 8.3734-6.1934 15.147-14.844 20.227-23.879 8.7814-16.395 11.653-35.792 7.2014-53.928-4.9-21.509-19.58-40.562-39.172-50.715-11.049-5.8694-23.804-9.2267-36.343-8.8254zm116.83 6.916c-4.744 6.9294-9.9014 13.577-14.591 20.536 7.76 8.9574 14.041 19.427 19.712 29.796 14.891 27.936 24.329 59.2 29.313 90.391 10.996-5e-3 21.997-0.0173 32.994 7e-3 2.0214-0.036 4.284 0.22666 6.2347-0.34667 5.4134-32.747 15.112-64.423 31.199-93.562 5.276-9.1907 10.977-18.381 17.917-26.411-3.6374-4.8774-7.168-9.8427-10.709-14.791-1.3573-1.8613-2.632-3.92-4.2654-5.5534-10.379 8.9334-21.603 16.256-33.395 23.187 0.71201 4.9774 1.1067 10.009 1.268 15.035 0.0427 7.0187 0.156 13.977-0.68134 20.96-1.496 14.976-5.5574 29.798-12.139 43.338-2.1174 3.9614-4.2534 8.0054-6.892 11.644-0.75334 1.1787-1.7933 1-3.0134 1.28-2.4174-3.752-4.8934-7.448-6.976-11.404-9.0694-17.949-13.556-38.306-13.58-58.374-0.0667-7.5334 0.168-15.024 1.316-22.48-8.4534-4.8107-16.595-10.243-24.468-15.952-3.2134-2.28-6.0774-4.9667-9.2427-7.3zm-111.31 99.05a14 14 0 0 0-4.236 0.44667c-5.6054 1.2693-10.075 4.4934-14.143 8.4254 3.9787 5e-3 7.8-0.14933 11.647 1.0707 5.6894 1.496 9.8947 5.912 13.867 9.98 6.096 6.5587 11.888 13.72 18.384 19.912 3.308 3.064 7.508 5.7387 11.977 6.6294 4.7867 0.90401 9.4987-0.28 13.68-2.632 2.956-1.652 5.296-3.8174 7.844-6.008-5.1627 0.024-9.9427 0.3-14.747-1.9867-4.864-2.4227-9.0694-6.4667-12.557-10.584-3.768-4.2-7.5374-8.4187-11.3-12.631-4.2534-4.332-7.8667-8.4907-13.58-10.98-2.22-0.90401-4.5067-1.54-6.836-1.6427zm-180.49 109.03c-0.012 9.8494 0 19.697-0.00667 29.547 36.648 36.606 73.243 73.271 109.88 109.88 3.1707 3.0267 5.9174 6.4334 9.1067 9.4427 42.378 42.374 84.739 84.766 127.12 127.14 2.4334 2.4227 4.8147 4.888 7.3214 7.2334 0.084-33.347 0.0133-66.702 0.036-100.05a359422 359422 0 0 1-183.15-183.17c-23.439-0.0107-46.878 0.0187-70.311-0.0173zm253.47 7e-3c-31.916 0.024-63.832-5e-3 -95.749 0.0187 17.085 17.213 34.291 34.314 51.424 51.486 3.7027 3.4934 6.88 7.4614 10.588 10.949 11.241 11.243 22.488 22.493 33.73 33.74 0-32.064-0.0173-64.13 7e-3 -96.195zm-253.44 117c-0.096001 14.893 0.00533 29.787-0.053334 44.678-0.037334 2.4054 0.196 4.7867 0.38134 7.18 0.19867 18.04 2.944 36.324 7.024 53.874 0.46667 2.2373 2.004 3.3867 3.5174 4.9174 1.9627 1.8373 3.6374 3.932 5.5227 5.8467 57.934 57.931 115.86 115.87 173.79 173.81 1.3867 1.34 2.656 2.932 4.2347 4.0454 1.1853 0.58 2.548 0.84267 3.8227 1.16 15.596 3.536 31.3 5.9174 47.298 6.396 2.6387 0.22667 5.264 0.38934 7.9147 0.39467-0.0307-16.299-0.0173-32.603-5e-3 -48.902-82.366-82.378-164.72-164.76-247.1-247.13-2.0933-2.112-4.188-4.2294-6.3534-6.2707z" fill="#f00000"/>
<path d="m259.99 235.2c-0.024 139.76 0.012 279.53-0.0173 419.3 4.5334 0.06 9.08-0.0667 13.616-0.22667 4.1867-0.36 8.3627-0.844 12.569-1.0653 15.088-1.6987 30.158-4.4934 44.747-8.7294 28.603-8.3227 55.794-21.576 79.8-39.24 11.755-8.5427 22.816-18.253 33.023-28.592 2.1774-2.2134 4.104-4.6547 6.3067-6.8627 17.12-18.949 31.4-40.502 42.254-63.627 12.036-25.747 19.729-53.486 22.733-81.751 0.448-5.1934 1.28-10.291 1.1467-15.533-0.13067-3.4147 0.34134-6.7654 0.46667-10.171-5e-3 -54.49-0.0173-109 7e-3 -163.49-85.547 0.024-171.11 0.0187-256.65 0zm143.68 13.771c2.6 0.148 5.2587 0.74267 7.9574 0.54667 5.1334-0.0893 9.7694-1.2853 14.62 0.664 2.22 0.84401 3.7094 2.4534 5.2054 4.2187 2.04-0.24 3.8934-0.56133 5.856 0.28134 2.9067 1.0533 4.5894 3.5067 5.792 6.2227 1.56 3.5067 0.35201 7.1267 1.7827 10.752 2.3387 6.396 4.768 12.044 3.7267 19.068-0.64 3.8054-2.9254 6.4507-5.576 9.0654-0.52001 2.196-0.92001 4.4214-1.5253 6.5934-0.90268 3.2907-2.956 5.56-3.064 9.1254-0.35867 4.32 1.7787 7.9694 1.8613 12.147 3.3507-1.2573 6.88-1.2587 10.373-0.72 6.7907 1.3107 12.605 6.6427 14.64 13.236 1.608 5.804 0.83067 12.277-2.8067 17.184-2.776 3.5894-6.616 6.492-11.127 7.4254-5.6414 1.52-12.013 0.15467-16.589-3.4587-1.5733-1.2213-2.8174-2.644-4.164-4.0987-2.7933 0.144-5.5694 0.048-8.3574-0.15467-3.1294 5.8267-5.6054 11.883-6.82 18.416-2.076 10.129-1.0107 20.653 2.2613 30.407 3.392 9.2614 9.3147 18.027 13.885 26.793 2.4294 4.8107 4.912 9.3334 6.24 14.617 0.93867 3.8227 2.6374 7.3894 5.2267 10.38 4.9427 5.5774 13.127 9.328 20.623 7.904 11.396-2.3027 20.065-12.989 21.035-24.405-0.0907-5.8454-2.52-11.871-6.72-15.973-2.6253-2.484-5.8507-3.4187-9.356-3.8907-5.1147 0.56267-9.7387 2.2867-13.843 5.4094-2.1774 1.5614-3.3307 3.584-6.2507 3.7574-0.0413-2.4467-0.22667-4.996 0.14266-7.4254 0.56934-2.9867 1.7174-5.9894 3.56-8.424 2.884-4.0574 7.8667-6.6067 12.755-7.144 4.5947-0.73601 9.3627 0.10133 13.753 1.484 8.7827 2.824 15.961 9.7641 19.12 18.427 2.3693 6.5107 3.3027 13.792 1.9747 20.632-2.8 17.2-16.984 31.867-34.1 35.159-8.62 1.5547-17.511 0.81867-25.132-3.7574 1.3333 7.58 0.76001 15.12 0.89068 22.772 0.0427 3.0507-0.75201 5.9467-0.56001 8.98 0.292 3.4587 0.93201 6.7734 3.092 9.592 1.9067 2.716 5.0307 5.008 6.1614 8.0774 0.928 2.8894-0.62801 6.18-1.8787 8.7534-5.444 11.308-13.077 21.852-19.179 32.886-1.4774 2.824-2.9787 6.1027-5.42 8.2507-1.776 1.5613-4.5774 1.6867-6.82 2.1427-1.34 3.7694-2.6027 7.4-4.9 10.72-3.1227 4.536-6.964 8.42-12.329 10.136-2.4174 0.73067-5.8747 0.64133-7.7534-1.2907-2.112-1.856-3.116-4.9014-2.608-7.648 0.42533-2.076 1.3333-4.02 2.656-5.6774 2.9134-3.5907 6.504-6.3427 10.464-8.6827 2.5067-1.4667 4.7974-3.1534 6.5254-5.5227 2.1067-2.9254 3.9907-6.0427 5.7867-9.172 3.744-7.252 7.352-14.432 10.24-22.084 0.42667-1.244 0.98267-2.6387 0.97067-3.9667-2.148-3.2254-5.6067-5.696-8.3334-8.4374-6.4267-6.42-12.623-13.049-15.877-21.693-1.208-3.136-1.148-6.26-1.0773-9.5627 0.036-3.1707 1.1787-6.408 2.4587-9.28 1.8533-4.2 5.3427-8.0294 6.808-12.337 0.62267-2.5374 0.24666-5.36 0.336-7.964a514.67 514.67 0 0 0-4.5414-3.536c-10.133 3.416-19.772 7.82-28.368 14.245-5.312 3.9067-10.577 7.6294-15.471 12.075-2.0814 1.9694-4.0854 4.6134-4.684 7.46-0.096 2.9027 1.52 6.02 2.9854 8.456 3.44 5.468 7.52 10.841 12.413 15.084 1.884 1.6627 3.8587 3.5467 5.0187 5.8094 0.84934 1.7413 0.83867 3.7814-0.70534 5.1387-3.9307 3.7947-9.1827 6.624-13.837 9.4534-8.22 5.0027-16.817 9.4067-24.929 14.577-2.9974 1.8667-4.3667 4.6134-7.6574 6-3.176 1.3947-6.3414 1.3707-9.704 1.7653-2.2907 0.156-3.2947 2.16-4.8147 3.596-4.7627 4.6267-11.337 6.4027-17.857 5.996-2.992-0.24-5.9827-0.18-8.22-2.5014-1.5013-1.2507-1.2867-3.644-0.89733-5.3427 1.16-3.5307 4.164-6.504 7.472-8.1027 5.9107-2.9307 11.965-3.8827 18.389-4.8934 4.1467-0.61067 7.232-2.7334 10.715-4.864 7.148-4.5534 13.92-10.059 20.419-15.491a60 60 0 0 0 4.3-3.9494c-3.2667-2.2133-6.3947-4.5774-9.1934-7.372-2.92-2.9374-5.8934-5.624-8.268-9.0534-3.5787-5.0374-6.6894-11.123-7.3947-17.327-0.93334-8.4427 4.0867-17.059 8.824-23.695 4.912-6.5334 10.421-12.733 16.648-18.045 5.7734-5.2894 12.049-10.076 18.749-14.133 1.2133-0.76 2.376-1.5907 3.5307-2.4347-3.4587-2.5734-6.204-5.744-9.2854-8.7174-1.7174-1.6694-3.2427-3.5014-4.768-5.344-7.1667 4.7267-14.261 9.5134-20.939 14.923-7.944 6.3187-15.752 12.96-22.775 20.301-2.0347 2.124-3.4587 4.6374-4.6427 7.3054-0.916 1.944-1.7053 4.2187-3.2787 5.732-0.89201 0.93867-2.4774 1.036-3.6734 1.2933-4.0627 3.26-5.6347 7.6227-7.4067 12.325-1.184 3.2667-3.4867 5.8747-6.3707 7.7534-2.764 1.8-5.9587 3.2854-9.3387 2.92-2.3267-0.20267-4.3307-1.6574-5.1094-3.8827-1.076-2.9867-1.0107-6.8747 0.216-9.8067 1.7347-3.7934 5.0667-6.3907 8.136-9.0467 3.524-3.052 5.492-6.7614 8.088-10.531 8.6454-12.476 18.228-24.275 28.574-35.379 4.192-4.7507 8.8827-9.0654 13.309-13.607 4.02-4.1227 8.436-7.8627 12.605-11.835-1.0893-3.9974-0.91467-8.0134-1.34-12.087-4.0387-0.88534-7.88-2.4467-11.475-4.4814-8.1654-4.56-15.452-10.8-22.224-17.208-3.116-2.6747-5.8134-5.7627-8.7867-8.5814-2.352-2.488-6.6587-1.0587-9.7574-1.68-1.2213-1.9027-1.568-3.9974-3.4054-5.5174-1.9614-1.6213-4.408-2.932-6.944-3.3027-4.2427-0.40667-8.0414 0.49067-12.24-0.808-2.6747-0.69334-5.4027-2.3267-6.1627-5.1507-0.80134-3.752 2.7867-7.552 6.4-7.9467 3.428-0.37733 6.976-0.25067 10.392 0.17334 8.9734 1.5027 17.373 4.632 25.617 8.3947 5.1627 2.184 9.8054 5.2774 14.836 7.8747 4.2774 2.124 8.304 4.6427 12.743 6.456 6 2.944 12.036 5.7907 18.253 8.268 4.904-8.2454 12.491-13.229 18.335-20.533-0.58001-1.8494-1.148-3.824-0.44267-5.7267 0.56267-1.4 2.1-2.364 3.236-3.2854-0.11334-1.6453-0.37734-3.1534 0.22133-4.7507 0.53867-1.088 1.616-1.968 2.4707-2.8134-0.16-2.272-0.58-4.216 0.96934-6.1547 1.3587-1.8733 3.2187-1.9027 5.2934-2.412 1.18-3.0934 2.5014-6.432 2.9027-9.7334 0.13733-1.4853 0.14933-3.3107-0.74134-4.5854-1.4667-2.0333-3.92-3.08-6.3894-3.08-3.8294-0.0533-7.8547 0.90934-11.629 1.4347-1.1733 0.252-1.9147-0.41734-2.944-0.84267 0.26267-1.7294 0.43601-3.584 1.208-5.1814 0.89201-1.664 2.8427-2.7947 3.812-4.3747 0.87334-1.3707 1.3627-2.7333 2.8174-3.6267 0.22134 0.94 0.39467 1.8973 0.57334 2.8427a80 80 0 0 1 3.0094-2.8587c-3.7814-0.41334-7.5867-0.64001-11.355-1.1253-4.9414-0.83734-9.6974-2.1-14.124-4.512-3.7507-1.9147-6.9694-4.7987-8.34-8.88-1.7587-5.648 0.88534-12.313 5.6054-15.699 3.16-2.268 7.544-2.5254 10.643-0.0187 0.93334 0.67734 1.1427 1.944 0.65867 2.944-1.2627 1.4293-3.356 2.3213-4.4747 3.8774-0.94667 1.3947-1.3333 3.2667-1.8533 4.8587 0.84267 1.932 1.5547 3.752 3.2827 5.092 2.7827 2.124 6.1147 3.632 9.5067 4.4747-1.7413-2.7574-3.632-4.9547-3.56-8.4307-0.18-3.1347 1.1307-5.672 2.7334-8.244-0.10133-1.1907-0.47733-2.6027 0.036-3.7334 0.57467-1.22 1.5267-2.2493 2.9867-2.1773 4.2-0.12667 8.3627 0.21333 12.556-0.26401 3.6667-0.38933 8.22 0.50801 11.379-1.76 2.4-2.4294 3.5414-5.312 6.8854-6.856a9.4667 9.4667 0 0 1 3.372-0.99868c0.85333-0.0947 1.7133-0.0947 2.58-0.0453zm-18.161 30.823c-2.896 0.37067-4.8507 2.3574-7.544 3.1467-2.3334 0.41334-4.768 0.26401-7.1307 0.53867 4.056 1.0173 8.2027 1.6107 12.271 2.58 3.1334 0.724 5.8267 2.076 8.8054 3.2427-1.8067-3.5427-3.1894-6.9774-6.4014-9.508m-9.404 10.848c-0.22134 1.04-0.44267 2.088-0.676 3.1294 3.116 0.63334 6.2094 1.304 9.2374 2.2667 4.4627 1.384 8.3454 3.4774 13.053 4.052-6.276-4.776-13.472-7.976-21.237-9.3707zm60.314 35.972 0.036 2.8307q1.2133-0.68267 2.436-1.3653c-0.82667-0.484-1.6467-0.97467-2.472-1.4653m10.28 11.004a6.6667 6.6667 0 0 0-1.2707 0.13067c-4.7014 0.85601-8.22 5.8934-6.6227 10.536 1.12 3.5734 4.4814 6.1574 8.28 5.936 4.6067-0.036 8.2134-4.296 7.9267-8.8134-0.14667-4.1867-4.2134-7.8214-8.3134-7.7894" fill="#0093dd"/>
</g>
<g transform="scale(1.3333)" fill="#fff">
<path d="m274.99 211.49a2.3 2.3 0 0 1-0.65 0.906q-0.748-0.499-0.66-1.274c0.283-0.7 1.122-0.09 1.31 0.368m2.03 0.68q0.579-0.334 1.077 0.14l-0.35 0.749c-0.736 0.605-1.283-0.274-0.727-0.889m4.27 6.59q-0.196 0.87-0.386 1.741c-0.381-0.022-0.767-0.05-1.153-0.072q0.78-0.828 1.539-1.669m-2.92 0.45c0.18 0.646 0.085 1.83-0.861 1.58-0.552-0.525 0.376-1.374 0.861-1.58"/>
</g>
<path d="m381.59 323.75c-1.26-0.0373-2.896 1.1293-2.5533 2.5427 0 1.7293 0.85467 2.4 2.428 2.8174 15.148 4.0507 30.475 7.2174 46.088 8.7787a62.667 62.667 0 0 0-3.0334-5.6134c-5.88-0.944-11.683-1.4773-17.523-2.764-4.5947-0.98134-9.2254-1.7587-13.825-2.6854-3.8467-0.71201-7.5014-2.3334-11.336-3.0534a1.7333 1.7333 0 0 0-0.24534-0.0227zm65.122 5.4974a8.4 8.4 0 0 0-1.916 0.16267c-2.8787 0.51467-6.1574 1.6693-8.2987 3.716-0.76001 2.028-1.1067 4.2294-1.7414 6.3067 0.51467 0.70534 1.0173 1.4227 1.52 2.1347 1.68-3.1414 4.224-5.5934 7.7467-6.4614 2.8427-0.27466 5.552-0.35333 8.1134 1.1013 5.3534 2.704 7.2667 9.9614 4.3667 15.113-2.3693 4.888-8.86 7.1027-13.795 4.9787-3.8467-1.3294-6.1387-4.62-7.036-8.4734-1.6933 1.1547-3.0627 1.688-5.0907 2.0534 1.2133 3.5294 2.86 6.8734 5.9827 9.1067 3.7867 2.9494 8.752 4.2227 13.484 3.2667 4.9414-1.216 9.5174-4.6987 11.695-9.3294 1.2987-3.076 2.0534-6.5454 1.3053-9.8534-1.1667-5.6667-5.02-10.68-10.571-12.608-1.7774-0.57334-3.8094-1.172-5.7654-1.2147zm-68.038 2.2747c-2.0694 0.0707-2.196 2.1827-2.6774 3.7934 3.2427 2.436 6.7534 3.0267 10.54 4.404 1.2867 0.48401 2.2933 0.33467 3.5787-0.0293q0.60267-1.0787 1.2133-2.1547c-0.752-1.0773-1.016-2.3147-2.4107-2.668-3.392-0.98668-6.6587-2.3694-10.039-3.3454q-0.10667-3e-3 -0.20533 0m15.18 4.6427c-0.024 2.0467-0.38933 3.548-1.1733 5.4027 7.144 1.28 14.36 1.904 21.52 3.0587 0.048-1.76 0.13734-3.5 0.41867-5.236a74.667 74.667 0 0 0-0.904-0.56801c-4.176-0.13733-8.256-0.856-12.389-1.4067-2.5307-0.21467-5.0014-0.65734-7.472-1.2507zm-18.767 3.0107c-1.1667 0.712-1.932 1.6267-2.7094 2.7334 0.51467 0.77867 0.97467 1.652 1.6213 2.3333 1.4707 0.73601 3.152 1.1133 4.7374 1.544 16.385 4.2067 33.424 7.9107 50.343 8.8374-0.53867-1.7534-1.0773-3.5-1.5067-5.2827-9.304-0.86801-18.529-2.6747-27.808-3.7694-3.8534-0.55601-7.5667-0.90401-11.139-2.58-4.804-0.424-8.7707-2.7934-13.539-3.816zm43.711 0.976q-0.24667 0-0.49333 4e-3c-0.72534 1.2507-2.1907 2.4174-0.92134 3.8534 0.92667 1.556 2.3453 1.4307 3.9414 1.724 3.4467 0.38267 6.76 1.0587 10.224 0.76534 0.81334-0.06 1.5613-0.71734 2.2667-1.1a113.33 113.33 0 0 0-0.376-3.2027q-0.73601 0.96133-1.472 1.9333-0.84534-9e-3 -1.6987-0.0173c-0.39467-0.91601-0.73067-1.9147-1.28-2.7534-0.87468-0.37067-1.8974-0.41867-2.8307-0.52-2.5347-0.21867-4.896-0.68001-7.36-0.68668z" fill="#fcdb00" stroke-width="1.3333"/>
</svg>
