<?xml version="1.0" encoding="UTF-8"?>
<svg width="500" height="600" version="1.1" xmlns="http://www.w3.org/2000/svg">
 <g stroke="#000">
  <path d="M6.026 5.731v354.9c0 128.63 109.23 232.9 243.97 232.9s243.97-104.27 243.97-232.9V5.731z" fill="#0093dd" stroke-width="11.7"/>
  <g fill="#fff" stroke-width="3.7">
   <path d="m26.314 216.36-7.24-6.998 23.365-22.578 17.042 16.464 6.328-6.116-13.145-12.7s-4.043-3.62-.85-6.704c3.189-3.08 6.933.823 6.933.823l23.37 22.58 7.304-7.057-27.262-26.34 13.135-12.694 39.678 38.338-26.527 25.63-16.308-15.759-6.33 6.114 16.31 15.758-13.876 13.405 8.275 7.997 13.878-13.405 16.308 15.756 6.327-6.114-16.308-15.758 26.524-25.629 39.676 38.336-13.138 12.693-27.26-26.341-7.3 7.057 23.364 22.578s4.043 3.62.856 6.701c-3.192 3.084-6.939-.823-6.939-.823l-13.145-12.7-6.328 6.117 17.037 16.464-23.365 22.578-7.242-6.998 14.604-14.111-7.24-6.998-14.607 14.113-7.24-6.997 14.604-14.111-7.24-6.998-14.606 14.113-29.697-28.694 14.607-14.113-7.243-6.998L40.8 230.354l-7.242-6.998 14.604-14.11-7.24-6.998z"/>
   <path d="m349.03 380.93a2.926 2.825 0 0 1 0 3.998l-15.834 15.298a2.926 2.828 0 0 1-4.142 0l-275.98-266.65a2.926 2.828 0 0 1 0-3.996l15.834-15.302a2.926 2.828 0 0 1 4.14 0z"/>
   <path d="M313.63 463.95c17.282 16.699 55.068 29.225 83.442 28.033 27.171-1.14 32.072-9.938 34.349-12.138 2.275-2.2 11.384-6.937 12.564-33.19 1.232-27.415-11.732-63.925-29.013-80.626-11.866-11.464-41.556-26.287-60.001-8.462-17.592 16.995-11.415 25.605-17.505 31.493-6.093 5.888-15.006-.085-32.596 16.913-18.45 17.825-3.105 46.51 8.76 57.975zm16.466-15.556c-10.954-10.582-14.51-25.02-6.083-33.162 8.427-8.14 29.965-4.494 32.927-7.353 2.959-2.86-.818-23.675 7.61-31.818 8.428-8.14 23.368-4.703 34.324 5.88 2.922 2.822 12.799 11.15 19.557 42.662 4.057 18.918 1.84 38.305-1.347 41.387-3.187 3.08-23.257 5.223-42.833 1.302-32.617-6.53-41.234-16.076-44.156-18.899z"/>
   <ellipse cx="423.87" cy="472.55" rx="14.802" ry="14.301"/>
   <path d="M338.19 370.44c1.373-1.328.618-4.215-1.69-6.443-2.308-2.23-5.291-2.962-6.669-1.634l-19.975 19.298c-1.375 1.33-.618 4.217 1.69 6.448 2.309 2.23 5.294 2.962 6.671 1.629z"/>
   <ellipse cx="46.482" cy="107.9" rx="22.547" ry="21.785"/>
   <path d="m467.71 216.36 7.24-6.998-23.365-22.578-17.04 16.464-6.328-6.116 13.145-12.7s4.043-3.62.85-6.704c-3.189-3.08-6.933.823-6.933.823l-23.37 22.58-7.304-7.057 27.262-26.34-13.138-12.694-39.676 38.338 26.524 25.63 16.311-15.759 6.328 6.114-16.308 15.758 13.876 13.405-8.276 7.997-13.876-13.405-16.308 15.756-6.328-6.114 16.308-15.758-26.524-25.629-39.678 38.336 13.14 12.693 27.26-26.341 7.303 7.057-23.37 22.578s-4.043 3.62-.85 6.701c3.189 3.084 6.936-.823 6.936-.823l13.145-12.7 6.33 6.117-17.04 16.464 23.367 22.578 7.242-6.998-14.604-14.111 7.24-6.998 14.607 14.113 7.24-6.997-14.604-14.111 7.24-6.998 14.607 14.113 29.695-28.694-14.604-14.113 7.24-6.998 14.608 14.115 7.243-6.998-14.604-14.11 7.24-6.998z"/>
   <path d="m145.01 380.93a2.926 2.828 0 0 0 0 3.998l15.834 15.298a2.926 2.825 0 0 0 4.142 0l275.98-266.65a2.924 2.825 0 0 0 0-3.996l-15.834-15.302a2.926 2.828 0 0 0-4.137 0z"/>
   <path d="M189.17 405.96c-17.592-16.997-26.503-11.024-32.596-16.913-6.093-5.886.087-14.498-17.505-31.498-18.448-17.822-48.136-2.997-60.001 8.47-17.284 16.695-30.248 53.207-29.016 80.622 1.18 26.254 10.289 30.99 12.564 33.19 2.278 2.2 7.179 10.998 34.349 12.138 28.374 1.19 66.16-11.337 83.446-28.033 11.863-11.466 27.204-40.153 8.758-57.975zm-69.383 61.318c-19.576 3.92-39.645 1.78-42.833-1.302-3.19-3.08-5.406-22.472-1.35-41.387 6.761-31.512 16.64-39.84 19.563-42.663 10.954-10.582 25.897-14.02 34.323-5.877 8.424 8.143 4.65 28.955 7.611 31.815 2.96 2.859 24.5-.787 32.925 7.353 8.427 8.142 4.87 22.58-6.083 33.162-2.922 2.82-11.541 12.367-44.156 18.899z"/>
   <ellipse cx="70.162" cy="472.55" rx="14.802" ry="14.301"/>
   <path d="M155.84 370.44c-1.373-1.328-.618-4.215 1.69-6.443 2.308-2.23 5.294-2.962 6.671-1.634l19.973 19.298c1.375 1.33.618 4.217-1.69 6.448s-5.294 2.962-6.671 1.629z"/>
   <ellipse cx="447.54" cy="107.9" rx="22.549" ry="21.861"/>
   <path d="M247.01 555.65c-2.983 0-20.225.27-32.643-6.843 3.33 8.991 7.562 14.416 14.924 17.246 4.541 1.747 10.272 2.506 17.719 2.506s13.18-.76 17.724-2.506c7.36-2.832 11.588-8.255 14.922-17.246-12.421 7.113-29.662 6.843-32.645 6.843zm0-34.171c-4.753 0-21.804.552-40.962-5.757 1.57 7.233 2.924 13.57 4.26 19.103 13.785 3.14 27.026 4.22 36.7 4.22s22.913-1.082 36.7-4.22c1.337-5.53 2.688-11.87 4.259-19.1-19.157 6.306-36.206 5.754-40.96 5.754zm-50.808 9.402c-2.43-3.855-4.685-8.311-6.68-13.46a566.49 547.36 0 0 1-4.568-12.263c-24.604-18.088-41.906-53.26-41.906-53.26-13.94 6.323-18.72 14.426-18.72 14.426s24.232 36.916 46.26 52.096c7.776 5.357 16.591 9.42 25.614 12.458zm101.61 0c2.428-3.855 4.682-8.311 6.68-13.46a571.6 552.27 0 0 0 4.568-12.263c24.6-18.088 41.906-53.26 41.906-53.26 13.94 6.323 18.723 14.426 18.723 14.426s-24.235 36.916-46.262 52.096c-7.776 5.357-16.593 9.42-25.614 12.458z"/>
   <path d="M214.37 548.81c-4.541-12.251-7.411-31.124-14.259-59.078-3.662-14.94-8.958-24.82-14.849-31.247-1.622 2.083-3.27 3.925-4.856 5.458-2.816 2.72-6.178 5.331-9.953 7.79 7.007 9.574 11.19 25.382 19.07 45.689 1.998 5.148 4.25 9.602 6.68 13.455 5.37 10.493 15.367 29.897 33.088 35.179-7.36-2.833-11.588-8.255-14.922-17.246zm65.288 0c4.541-12.251 7.411-31.124 14.259-59.078 3.66-14.94 8.956-24.82 14.846-31.247 1.622 2.083 3.272 3.925 4.859 5.458 2.816 2.72 6.177 5.331 9.952 7.79-7.01 9.574-11.189 25.382-19.07 45.689-1.998 5.148-4.254 9.602-6.683 13.455-5.366 10.493-15.366 29.897-33.085 35.179 7.362-2.833 11.591-8.255 14.924-17.246zm-132.59-89.513c-2.59-4.52-4.003-7.395-4.003-7.395s9.778-5.416 21.57-4.189c-.222.228-.453.454-.683.68-1.843 1.777-5.945 6.224-16.884 10.907zm199.91 0a146.68 146.68 0 0 0 4.005-7.395s-9.783-5.416-21.574-4.189c.226.228.454.454.687.68 1.84 1.777 5.942 6.224 16.882 10.907zm-31.611-266.32c-9.266-81.888-59.165-132.9-68.344-132.9-9.18 0-59.08 51.006-68.344 132.9 0 5.397 30.598 9.774 68.344 9.774 37.746 0 68.344-4.377 68.344-9.774z"/>
  </g>
  <g transform="matrix(.96998 0 0 .93721 -45.109 -38.003)" fill="none" stroke-width="3.9">
   <path d="m230.71 246.44c0-5.759 31.546-10.429 70.459-10.429 38.914 0 70.46 4.669 70.46 10.429m-138.53-16.74c0-5.759 31.054-10.429 68.067-10.429s68.065 4.669 68.065 10.429m-131.21-22.05c0-5.275 28.134-9.552 63.146-9.552 35.011 0 63.146 4.277 63.146 9.552m-118.08-25.07c0-5.275 24.34-9.552 54.937-9.552 30.596 0 54.937 4.277 54.937 9.552m-100.94-20.32c0-4.307 21.03-7.799 46.011-7.799s46.011 3.492 46.011 7.799m-78.972-23.01c0-3.103 15.07-5.619 33.068-5.619 17.999 0 32.849 2.516 32.849 5.619"/>
   <path d="M302.39 173.53a1.726 1.726 0 0 0-2.441 0l-10.621 10.62a1.727 1.727 0 0 0 0 2.442l10.62 10.62a1.727 1.727 0 0 0 2.442 0l10.619-10.621a1.724 1.724 0 0 0 0-2.441zm-.44 46.61a1.107 1.107 0 0 0-1.565 0l-6.808 6.808a1.105 1.105 0 0 0 0 1.565l6.807 6.807a1.107 1.107 0 0 0 1.565 0l6.807-6.808a1.106 1.106 0 0 0 0-1.564zm.2-85.8a1.394 1.394 0 0 0-1.972 0l-8.581 8.581a1.396 1.396 0 0 0 0 1.974l8.58 8.58a1.395 1.395 0 0 0 1.973 0l8.58-8.581a1.395 1.395 0 0 0 0-1.973z"/>
   <circle cx="265.06" cy="188.24" r="5.608"/>
   <circle cx="273.65" cy="145.83" r="4.907"/>
   <circle cx="337.27" cy="188.24" r="5.608"/>
   <circle cx="328.68" cy="145.83" r="4.907"/>
   <path d="m242.48 232.48 4.02-5.24 5.24 4.019-4.02 5.24zm22.466-3.284 4.938-5.476 5.476 4.938-4.938 5.476zm89.692 7.294-4.02-5.24 5.24-4.02 4.02 5.24zm-22.71-2.372-4.936-5.475 5.476-4.937 4.937 5.475z"/>
  </g>
  <path d="m249.9 23.975v-6.899h-5.782v6.899h-6.295v5.912h6.297v11.499h5.78v-11.5h6.285v-5.911z" fill="#fff" stroke-width="3.7"/>
  <ellipse cx="247.01" cy="51.853" rx="11.222" ry="10.841" fill="#fff" stroke-width="3.761"/>
 </g>
</svg>
