<?xml version="1.0" encoding="UTF-8"?>
<svg width="500" height="615" version="1.1" viewBox="0 0 500 615" xmlns="http://www.w3.org/2000/svg">
<path d="M5.854 5.854v370.21c0 128.73 109.31 233.08 244.15 233.08s244.15-104.35 244.15-233.08V5.854z" fill="#0093dd" stroke="#000" stroke-width="11.5"/>
<path d="M298.26 60.712a14 14 0 0 0-2.128.026c-.946.08-1.885.248-2.789.48-4.126 1-7.008 3.563-10.117 6.219-2.034.186-4.359.412-6.358-.035-3.521-1.738-6.688-3.87-10.518-4.969-7.316-2.342-15.597-.482-21.983 3.522-3.725 2.626-7.026 5.8-10.832 8.339-8.048 5.63-16.649 8.583-25.708 12.053-3.463 1.493-7.235 2.661-10.449 4.654-1.87 1.15-2.196 3.318-2.382 5.335-.04 2.18 1.163 4.48 2.11 6.398-1.732 5.63 1.295 12.686 6.525 15.359.36 2.295.553 4.492 1.616 6.601.645 1.598 2.011 2.661 2.691 4.213a33 33 0 0 0-5.492 1.005c-3.324.907-6.77 1.453-10.175 1.924-3.644.418-7.206.244-10.251-2.017-2.487-2.237-2.546-5.706-.698-8.38 1.58-2.347 4.498-3.8 6.828-5.34-3.51-1.336-6.549-2.864-10.425-2.83-4.027-.092-7.816.965-11.053 3.383-7.066 4.881-9.495 15.213-4.253 22.314 2.987 4.556 7.775 7.002 12.976 8.147 2.684.75 5.381.68 8.118 1.023 11.076.023 21.304-3.4 32.048-4.114.012 1.72.081 3.44.192 5.16-2.488 2.22-4.992 3.917-5.167 7.584-.453 5.125 3.372 9.663 8.38 10.465 5.655.976 12.146-1.052 17.446-2.975 3.736-1.238 7.584-3.412 11.477-3.702-.57 2.964-1.047 5.742-3.069 8.113-1.76 2.493-4.399 3.928-7.34 4.567-4.311.65-8.722.215-12.963-.685-6.753-1.261-13.43-2.04-20.3-1.279-6.514.854-12.928 3.045-18.588 6.381-15.667-4.33-29.405-15.527-37.802-29.335-2.214-4.004-4.689-7.845-6.74-11.936-2.86-5.45-6.422-10.431-10.27-15.225-1.952-2.464-4.381-4.527-6.549-6.84 1.058-2.382 2.488-4.335 3.098-6.91 1.168-4.073.918-8.448-.616-12.394-1.099-2.36-.442-4.585-.983-7.084-1.278-5.26-4.596-9.49-8.873-12.68-2.563-1.82-5.76-3.226-8.961-2.83-2.917.482-5.003 2.336-6.683 4.66 2.156 1.11 4.44 1.767 5.88 3.842.692.86.67 1.778.617 2.818-3.016-.058-5.457 1.302-7.886 2.917-1.766-1.906-3.503-3.655-5.88-4.8-5.213-2.91-13.197-.523-15.37.395-12.175-.043-11.61.903-16.905 3.249-2.795 1.232-3.568 5.358-3.592 8.072 3.063.22 6.062.127 8.98 1.278 1.167.557 2.475 1.807 2.37 3.219-.07 2.226-.244 4.312.506 6.474-3.9.255-5.684 3.022-7.944 5.735-4.684 1.994-8.793 4.97-11.576 9.298-2.203 3.005-3.318 6.52-2.644 10.251.616 1.622 2.342 2.976 3.661 4.034 1.604-1.75 3.23-4.056 5.642-4.655a11.6 11.6 0 0 1 4.004.058c1.244.872 1.575 2.94 2.191 4.27 1.877 4.557 6.13 7.916 11.244 7.387.024 1.69-.621 3.155-.372 4.823.059 1.383.78 2.54-.249 3.72-1.662 2.324-3.47 4.387-4.486 7.112-.93 2.313-1.435 5.584.302 7.642 1.197 1.627 2.841 2.232 4.63 2.976.541-1.32 1.094-2.529 2.262-3.412 1.505-1.261 3.295-1.301 5.16-1.522 1.9 3.376 4.794 7.357 8.624 8.612 2.353.976 5.19.924 7.688.697 2.621-.32 4.585-1.563 6.939-2.61.593 4.551 3.19 8.253 6.304 11.478a50 50 0 0 1 5.022-.343c2.202 9.617 5.73 18.758 9.675 27.77 3.05 6.143 6.34 12.449 10.698 17.778 3.835 5.038 9.146 9.106 14.615 12.22.418.43-.692 1.116-.936 1.436-2.231 1.883-4.666 3.58-7.234 4.974-1.006.558-1.994 1.046-2.761 1.936 5.59 2.992 11.803 4.579 18.12 4.892 3.347-.139 6.816-.563 9.99-1.685-.756 2.04-1.977 3.563-1.454 5.846-8.42 5.271-16.94 9.838-26.528 12.633-7.113 2.29-14.649 3.341-22.105 3.504-4.736-.14-9.49-.842-14.133-1.754-1.365-4.934-2.818-9.433-6.747-12.965a16.82 16.82 0 0 0-12.825-5.021c-3.237-.076-6.09 1.413-9.315 1.395-6.45.32-12.692 2.8-17.62 6.956-1.982 1.702-2.661 3.945-3.77 6.223 4.98.936 9.564-.156 13.9 2.738a8 8 0 0 1-.553 1.127c-2.527.767-4.95 1.319-7.275 2.684-1.767 1.099-3.29 2.54-4.823 3.888-1.482 1.366-3.353 1.802-5.16 2.93-5.724 3.742-10.153 9.349-11.762 16.072-1.012 3.708-.436 7.073-.256 10.821 3.097-2.615 6.55-4.998 10.303-6.567 1.406-.634 2.83-.61 4.335-.645 1.203 2.087 2.708 4.294 4.794 5.579 1.906 1.121 3.865 1.127 6.015 1.255-2.65 4.853-4.23 10.78-3.36 16.3.239 1.755.698 3.458 1.18 5.16 4.446-3.196 8.032-6.531 13.413-8.118 2.44 2.237 4.44 4.44 7.746 5.41 4.108 1.319 8.432.012 12.146-1.86-.07 5.73 1.83 11.153 4.88 15.94 2.472 3.717 7.041 3.234 10.85 2.057-.488-1.586-1.209-3.144-1.54-4.77.215-2.604 1.872-5.138 3.702-6.933.89-.71 1.685-1.76 2.934-1.15 2.639 1.034 5.341 1.719 8.194 1.51 5.666-.2 12.584-5.382 13.302-11.32.25-1.726.006-3.365-.128-5.074a87 87 0 0 0 3.702-.406c1.232 2.354 2.25 4.579 4.451 6.206 3.237 2.627 7.16 3.156 11.192 3.243 4.103-.064 8.037-.11 11.93-1.558-1.685-2.394-3.015-4.875-2.998-7.89 4.295-2.29 8.943-2.814 13.731-2.895 9.74-.046 19.142 1.994 28.817 2.093-.435-2.226-.865-4.452-1.365-6.66 1.72.615 3.457.581 5.253.552 2.894 2.324 5.475 4.992 8.305 7.38 5.55 4.393 11.5 8.252 17.956 11.186 5.834 2.912 11.919 5.125 17.98 7.502-8.967-2.295-18.282-3.684-27.55-3.573a111.8 111.8 0 0 0-42.672 7.641c-8.055 3.348-16.311 7.88-22.471 14.144-6.422 5.957-11.181 14.255-12.35 22.995-1.377 10.855 2.534 21.763 8.781 30.52 1.377-2.004 3.185-3.533 4.905-5.23 1.825 6.427 5.805 12.662 11.593 16.178 2.662 1.744 5.666 3.353 6.927 6.468a9.83 9.83 0 0 1-1.4 8.52c-3.516 5.857-10.037 9.43-16.359 11.47-5.171 1.39-10.669 2.14-16.015 1.616-1.772-.25-3.538-.453-5.322-.546-2.302-5.544-5.66-10.402-10.95-13.453-3.899-2.284-8.803-4.37-13.25-2.324-1.841.621-3.021 2.05-4.654 2.963-3.922-.07-7.49.558-11.024 2.296-5.637 2.504-11.204 7.432-12.94 13.493 2.742.18 5.467.54 8.204.802 2.156.244 3.912 1.18 5.824 2.109-2.342 1.226-4.62 2.482-6.172 4.701-.877 1.15-1.349 2.464-2.028 3.713-1.622 1.337-3.58 2.215-5.16 3.639-4.034 3.544-6.608 8.583-7.346 13.889-.331 3.039.122 5.956 1.784 8.559l.372.128c4.3-1.83 7.479-6.532 12.586-6.253 1.79 2.226 3.987 5.021 6.73 6.05 2.394 1.046 5.235.633 7.821.668-1.18 5.962-1.342 11.796 1.447 17.346.86 1.534 2.08 2.68 3.347 3.865 2.029-.058 4.057-.198 6.085-.25.023-2.104-.436-4.701.71-6.555.83-1.662 2.248-2.534 3.741-3.534 5.108 5.039 13.831 4.917 19.334.594 1.883-1.453 3.312-3.319 4.463-5.388 1.412.924 2.83 1.802 4.393 2.442.267 3.492-1.557 6.38-1.917 9.884 3.016-.25 5.805-.198 8.717-1.128 4.643-1.394 8.576-4.503 10.936-8.745 2.62-.669 5.038-1.627 6.892-3.679 1.871-1.935 2.51-4.48 2.377-7.124 2.696-.593 5.294-1.772 7.676-3.155 2.4-1.366 4.167-3.65 6.503-5.01 1.93-.412 4.073.006 6.055-.145 5.392-.041 10.64-1.842 14.877-5.178 2.086-1.685 3.393-4.132 3.765-6.781-3.11-.587-6.009-.814-8.833-2.32 4.591-1.963 8.659-4.462 12.238-7.972 1.674 2.075 3.853 3.358 5.985 4.881 1.505-1.418 3.22-2.853 4.353-4.596 1.121-2.098 1.453-4.638 2.61-6.724a9.6 9.6 0 0 1 3.561-3.359c3.284-1.703 5.62-4.87 6.457-8.455 1-4.027.505-8.043.953-12.087.133-1.482.145-2.97.145-4.463-4.974.104-10.396-.018-14.94-2.325-4.382-2.214-7.74-7.06-7.212-12.1.785-5.212 5.224-9.599 9.768-11.894 5.347-3.045 11.303-4.562 17.41-4.992 5.684-.157 11.227.29 16.498 2.574-.784 4.062-1.267 8.13-.982 12.28.424 4.09 1.627 8.141 3.254 11.912 2.092 4.614 5.097 8.874 8.078 12.958 3.376 4.022 7.095 7.566 10.972 11.093 3.812 3.19 8.025 5.9 11.907 9.002 5.317 4.144 9.832 9.123 12.343 15.463 4.37-3.899 7.89-8.321 8.826-14.278 3.841 2.278 7.828 4.742 10.943 7.979 2.673 2.731 4.097 6.55 3.923 10.361 0 5.95-2.871 10.896-6.305 15.528-4.446 5.69-10.78 9.496-17.718 11.344-2.563.657-5.458 1.61-8.108 1.453-2.074-1.784-3.695-4.062-5.828-5.805-4.527-3.958-11.041-6.027-16.992-5.01-2.487.39-4.376 1.703-6.515 2.888-8.769.221-18.194 4.87-22.57 12.703a7.3 7.3 0 0 0-1.005 2.51c5.393.123 10.25.152 14.527 3.923-.872.878-1.935 1.191-3.004 1.772-2.679 1.32-4.702 3.94-5.486 6.805-.419 1.11-.43 2.4-1.446 3.11-2.615 2.237-5.068 4.247-6.445 7.519-3.034 6.624-1.43 14.877 3.992 19.764.814.68 1.958 2.196 3.109 1.318 1.197-2.173 1.766-4.73 3.08-6.874 1.086-1.546 2.61-2.504 4.312-3.254 1.912 1.83 3.643 3.54 6.304 4.19 3.028.692 6.265.314 9.223-.552-.07 2.824-.47 5.794.285 8.496 1 3.894 3.126 8.025 6.601 10.239 1.871 1.261 4.283.756 6.41.686.064-2.406-1.244-5.533.058-7.63.936-1.413 2.226-2.993 4.132-2.365 4.515 1.5 9.64 2.12 13.953-.337 3.754-2.005 6.24-5.254 8.17-8.961 1.61 1.662 4.237 1.813 5.637 3.475 1.22 2.871-.54 7.02-.918 10 6.014-.058 12.349-2.672 16.196-7.397 1.952-2.301 2.929-4.934 3.835-7.764 3.528-1.098 6.718-2.54 8.909-5.66 2.556-3.341 2.812-7.49 1.708-11.448 3.655-.622 7.456-1.598 10.704-3.429 2.58-1.772 5.061-3.986 6.706-6.677 1.883-3.057 2.168-6.973 2.046-10.477 5.59-.052 10.849-2.517 14.952-6.224 1.725-1.918 3.87-4.44 4.079-7.107-2.946-.11-5.84-.575-8.752-1.01 1.33-3.203 3.185-5.713 3.48-9.287.594-2.853-.133-5.457-.26-8.293 4.311-.133 8.833-4.53 8.833-4.53s3.77-4.457 2.486-9.806c0 0-3.05 1.877-5.09 1.447-1.371-.053-2.464-1.499-2.772-2.725-.372-2.79.924-5.788 1.156-8.636.802-5.468-.476-10.675-2.272-15.806-.685-1.993-1.551-3.888-2.754-5.626-3.713 2.01-7.711 3.841-12.046 3.557-7.99-.773-14.517-7.81-14.83-15.806-.297-4.609.778-8.903 1.365-13.418 6.55 6.101 15.667 9.565 24.512 10.36 5.335.698 10.85.233 16.144-.627 8.618-1.79 17.625-5.718 23.64-12.326 6.782-7.223 10.198-17.305 10-27.138 2.58-3.016 5.26-5.613 7.195-9.152 2.446-4.411 4.782-9.46 5.2-14.545.936-6.892-.702-13.89-4.328-19.787-1.628 3.33-3.39 6.816-5.83 9.629-2.388 2.917-6.223 4.282-9.547 6.049-.587-2.528-1.11-4.986-.977-7.607.947-1.325 1.912-2.499 3.423-3.213 3.847-1.982 7.718-3.563 11.088-6.37 11.21-9.762 15.201-26.498 9.698-40.293-1.075-2.458-2.422-4.888-4.102-6.992-.97 3.929-2.917 8.357-5.108 11.768-5.817 7.781-15.348 10.96-23.013 16.347 4.788-11.959 14.8-22.518 21.536-33.519 2.266-3.422 4.399-6.898 6.276-10.554 2.877-5.95 5.846-12.389 7.066-18.904 2.214-10.268 2.087-21.298-.964-31.38-2.842-9.449-8.2-17.968-15.365-24.732-5.788-4.98-12.261-8.943-19.136-12.244-5.044-2.615-10.263-5.45-13.72-10.1-1.778-2.72-2.877-6.02-2.749-9.286.012-6.113 3.278-12.278 6.66-17.206-7.392.238-14.79 2.894-20.584 7.508-3.341 3.29-6.374 6.7-8.053 11.151-.884 2.487-1.692 5.195-1.733 7.845.03 5.416 1.581 10.414 4.841 14.755-2.225 1.22-4.69 1.93-6.903 3.214-6.212 3.417-12.302 7.938-16.492 13.72-5.881 7.264-9.374 16.544-10.27 25.807-.737 7.67.733 15.603 3.452 22.774 3.144 7.35 8.316 14.173 13.406 20.298 2.424 2.98 4.231 6.241 6.178 9.53 1.964 3.208 3.342 6.991 3.47 10.768.244 4.33-1.762 8.763-4.609 11.947-2.336 2.4-5.125 4.515-7.979 6.27 2.935.628 5.834.994 8.804.343 4.562-1.115 8.839-2.4 12.546-5.398 5.98-4.527 10.187-11.477 11.024-18.967.279-3.83.262-7.926-.755-11.651-.54-2.121-1.372-4.138-1.854-6.276 4.09-.425 7.955-1.354 11.262-3.917 3.498-2.429 5.776-6.166 6.869-10.228 1.464-6.526.25-13.726-2.423-19.793-3.975 3.11-7.584 6.625-12.814 7.351-5.858 1.017-11.925-2.98-12.89-8.926-1.83-8.769 5.875-17.323 14.621-17.329 4.649-.313 9.002 1.32 12.779 3.929 3.684 2.528 6.81 5.805 8.758 9.861 3.881 6.939 3.69 15.463 1.97 23.006-1.907 7.224-5.12 14.174-9.095 20.49-4.527 8.246-10.356 16.167-14.255 24.686-4.486 8.775-6.915 18.44-6.282 28.33.494 4.079 1.354 8.065 2.97 11.853 1.964 4.66 4.178 9.206 6.798 13.53 3.65 6.17 6.963 12.754 8.096 19.902.412 4.196-.39 9.298-3.347 12.5-1.349 1.622-3.127 2.645-5.062 3.406-5.032 1.82-10.513 1.29-15.295-1.017-6.13-3.028-11.437-7.392-15.865-12.587-2.528-3.08-4.335-6.497-6.427-9.856-4.137-6.392-9.24-12.156-13.563-18.415-7.403-10.082-14.325-20.798-19.625-32.147-4.265-9.158-8.27-18.735-10.978-28.475-1.255-4.91-2.655-10.013-2.847-15.092-.372-3.423-.424-6.84-.459-10.28 5.096 3.772 12.767 4.335 18.096.709 2.051-1.343 3.958-3.237 4.969-5.492-2.888-1.673-6.816-2.056-8.473-4.974-1.702-2.347-2.034-5.015-1.83-7.845.04-2.806 1.232-4.934 2.069-7.56.93-2.546 1.498-5.184 2.248-7.782 2.284 1.395 5.09 1.913 7.73 1.523 1.586-.32 3.154-.912 4.683-1.44-1.813-1.965-3.8-3.505-4.98-5.998-1.79-3.446-1.36-7.078-.494-10.71 1.337-5.457 2.144-10.989 2.213-16.614 2.365.262 4.615.43 6.969-.076 1.87-.447 3.713-1.22 5.52-1.889-.134-1.069-1.558-1.667-2.255-2.411-1.534-1.482-3.149-3.498-3.428-5.677-.331-1.714-.308-3.412-.273-5.15 1.214.134 2.417.344 3.626.512 4.51.204 8.53-1.807 11.581-5.044-2.894-1.133-6.038-2.609-7.479-5.543-1.174-2.203-.999-4.493-1.051-6.916.035-3.074-.25-6.171-.896-9.176-.79-3.451-2.47-6.415-4.317-9.39 3.295-.436 5.851-2.988 7.56-5.672 1.423-2.156 1.882-4.445 2.65-6.857-2.604-.099-5.48-.123-7.967-.96-.901-.371-1.087-1.167-1.482-1.975-1.697-4.248-3.132-8.914-6.224-12.395-2.411-2.958-5.433-5.143-8.664-7.119 1.022-1.4 2.696-2.406 4.097-3.4-1.174-3.818-4.29-7.13-7.55-9.32-4.788-3.307-10.145-4.771-15.625-6.474-1.691-.395-2.638-1.982-3.853-3.11-3.225-2.882-7.124-4.195-11.332-4.892-1.267-1.465-1.702-3.574-3.242-4.934-1.651-1.445-3.695-2.11-5.811-2.25zm-65.925 55.469q.273-.01.596.029c2.754-.29 3.922 2.25 4.829 4.37.941 2.824 1.621 6.346.668 9.24-3.26-.837-6.555-1.604-9.879-2.15.169-3.034.198-6.56 1.354-9.403.6-1.225 1.151-2.041 2.432-2.086m-15.275 4.416c1.016 2.542 2.727 4.625 4.382 6.765 0 0-3.667.08-5.503.08.107-2.333.42-4.62 1.121-6.845"/>
<path d="M297.17 66.708c-1.164-.016-2.395.306-3.367.712-2.406 1.168-5.126 2.893-6.16 5.485 4.143-2.016 8.13-3.87 12.76-4.475-.678-1.253-1.913-1.704-3.233-1.722m-38.451 2.548a14.5 14.5 0 0 0-2.538.36c-6.444 1.226-11.33 5.067-15.968 9.455-6.525 5.671-15.44 8.193-23.535 10.692-4.468 1.447-8.693 1.842-12.866 4.05-1.284.668-2.196 1.697-3.161 2.743.215 1.214.697 2.25 1.947 2.673 2.098.233 4.329-.32 6.467-.453-.895 1.574-1.476 3.115-3.016 4.178-1.545 1.105-3.103 1.906-4.108 3.603.79 2.37 1.366 4.521 3.4 6.171 1.26 1.023 2.858.883 4.38.761 6.567-.993 13.012-4.666 19.724-4.387 4.718-.256 9.844 1.198 12.982 4.917 1.976 2.034 2.957 4.538 3.777 7.2 1.86 6.91 1.308 14.429-1.528 20.996-1.784 3.068-3.894 5.816-7.195 7.344-5.015 2.505-10.89 2.238-16.317 3.44-1.94.489-3.853 1.46-4.672 3.406-.576 1.912.232 4.428 1.958 5.497 2.168 1.255 5.15.825 7.491.331 4.905-.784 9.257-3.742 13.748-5.694 7.985-3.87 16.405-6.2 25.348-5.149 4.41.622 18.367 2.367 20.462-1.438 5.415-9.834 5.47-16.312.9-27.432 1.273.25 3.917-.22 4.59 1.129 5.591 9.397 1.255 25.592-.528 31.385-1.784 5.793-16.65 2.584-16.65 2.584-5.784.012-11.508-.622-17.24.455-.134 3.905-1.221 7.833-2.57 11.482-1.76 4.027-4.903 7.787-8.93 9.693-5.108 2.487-10.96 3.313-16.51 1.953-4.458-1.192-9.053-2.488-13.65-2.941-5.963-1.192-12.46-.006-18.103 2.08-4.527 2.19-8.99 4.8-12.755 8.165-5.864 4.672-10.495 9.868-17.096 13.68-1.935 1.11-3.999 1.771-6.108 2.463 4.876 2.475 11.129 2.964 16.132.593 4.09-1.935 7.7-5.102 11.344-7.758 5.956-4.422 13.302-7.473 20.78-7.677 2.802-.186 5.661.11 8.45.39q.097.967-.807 1.395c-4.934 1.168-10.204 2.109-14.75 4.387-7.682 3.179-14.272 8.356-20.141 14.167-2.412 2.661-4.76 5.358-6.758 8.35a338 338 0 0 0-10.687 15.506c-2.877 4.085-6.259 8.21-10.286 11.209 6.398.61 12.895-.918 18.258-4.475 5.235-3.393 8.792-8.804 12.157-13.918 4.707-7.333 9.99-13.94 17.509-18.555 5.828-3.44 12.709-6.008 19.52-6.176l-.222 1.499c-10.547 3.498-20.344 10.07-26.969 19.066-1.819 3.045-3.992 5.817-5.52 9.037-2.121 3.771-3.912 7.995-6.625 11.349-1.558 2.016-3.748 3.556-5.648 5.334 6.392-.145 12.54-2.08 17.433-6.287 6.851-5.544 9.518-13.226 15.684-19.752 2.952-2.958 6.293-5.463 9.925-7.526 4.062-2.132 8.932-3.992 13.581-3.707-.064 1.058.424 2.034-.762 2.586-3.132 1.505-6.27 2.72-9.082 4.84-3.377 2.598-6.823 5.19-9.391 8.63-1.854 2.499-3.888 4.748-5.387 7.415a223 223 0 0 0-5.817 10.326c-.732 1.325-.412 2.714-.209 4.132.802 4.311 1.354 8.612.872 13 1.301-.924 2.62-1.633 3.527-2.987 1.47-2.023 1.895-4.196 2.784-6.48 1.325-3.661 2.98-7.287 5.101-10.56 3.824-5.537 9.055-10.145 14.715-13.736 2.517-1.412 5.416-3.22 8.345-3.353a5.2 5.2 0 0 1 0 2.121c-1.656 1.517-3.446 2.912-5.254 4.26-4.451 3.626-8.431 7.49-11.15 12.62-2.697 4.33-4.04 9.304-3.964 14.407.087 7.432 1.5 14.499.651 22.083-.511 2.934-1.447 6.008-3.15 8.49 3.51-1.186 6.566-2.917 8.862-5.904 2.615-3.208 3.162-6.823 4.045-10.727.703-3.51.407-6.945.738-10.466.383-3.162.883-6.213 2.103-9.17 1.674-4.249 3.969-8.641 7.293-11.82 1.854-1.825 4.004-3.435 6.137-4.923.854-.616 2.278-1.115 2.836.128.197 1.377-.814 1.93-1.628 2.836-3.428 3.358-5.822 7.444-8.018 11.675-2.86 6.287-4.005 13.115-3.772 20.002-.169 5.98 1.47 11.919 5.381 16.527.244-2.238.465-4.503.86-6.718 1.226-4.474 3.33-8.676 6.363-12.203 3.917-4.881 7.764-10.088 10.129-15.917 1.464-3.812 1.615-7.682 1.778-11.704 2.586 3.336 2.592 8.595 2.208 12.598-.592 2.94-1.174 5.759-2.615 8.438-1.092 2.028-2.4 3.917-3.382 6.003-1.284 2.638-3.342 5.312-3.975 8.165-.75 3.341-.546 6.891 1.052 9.966 1 1.865 2.499 3.033 4.021 4.434-.372-4.568-.383-8.903 2.11-12.918 2.992-4.66 6.95-8.752 9.757-13.546 2.795-4.498 4.27-9.455 5.195-14.632.529-3.464.134-6.684.058-10.141q.574-.001 1.156-.011c3.615 4.155 3.522 10.256 2.569 15.364-.872 5.34-3.72 9.635-5.527 14.586-.836 3.515-1.191 7.49.831 10.692.883 1.662 2.296 2.533 3.68 3.719-1.337-4.707-.385-9.989 2.19-14.12 4.149-7.148 9.541-14.063 11.297-22.31.976-4.503 1.307-9.43.14-13.934-.24-1.058-.216-1.692.209-2.703q.993.002 1.987-.006c3.963 5.532 3.592 11.861 2.888 18.305-.43 4.08-2.411 7.549-3.219 11.57-1.005 4.126-1.238 9.182 1.546 12.703 1.087 1.61 2.626 2.592 4.265 3.568-1.662-6.223-.953-12.878 1.778-18.689a385 385 0 0 0 4.858-10.419c2.016-5.328 3.23-11.059 3.225-16.765.023-3.492-.006-7.03-.343-10.5q.122-.853.314-1.697.505.08 1.011.152c3.754 11.157 4.65 23.076.628 34.286 1.319-1.43 2.76-2.644 3.94-4.213 2.162-2.795 3.55-6.003 4.503-9.385-.279-1.93-1.028-3.76-1.231-5.719-.686-7.293.83-13.808 2.04-20.932 1.127-7.049 1.208-14.493-.17-21.507-.226-2.214-.755-4.375-.97-6.59 1.877 3.575 3.801 6.81 4.946 10.705.657 2.37 1.597 4.532 1.888 6.91.854 6.357-.116 12.313-1.209 18.542-.494 4.823-1.139 9.31-.07 14.133 1.081 3.737 3.737 7.543 7.59 8.763 1.418.302 2.894.36 4.335.575-3.719-2.859-6.113-7.066-6.305-11.78-.255-3.823.477-7.595 1.813-11.169 2.174-5.38 2.94-10.814 2.87-16.596-1.127-3.545-2.48-6.799-2.561-10.594-.337-7.455.028-14.8-2.261-22.065-1.209-3.23-2.32-6.77-4.103-9.722 1.772 1.598 3.58 3.324 4.968 5.276 2.807 4.208 5.271 8.415 6.451 13.39 1.342 5.357 1.162 10.453 1.517 15.962.017.913.865 1.621 1.382 2.307.913-4.26 2.168-8.333 2.563-12.697.39-4.323.535-8.757.023-13.075-1.755-9.832-6.218-19.718-13.285-26.877.134-.65.401-1.174.739-1.737 3.387.645 5.759 3.58 8.031 5.95 2.075 2.14 3.47 4.667 5.062 7.143 2.725 4.561 3.248 9.879 6.066 14.319.93 1.447 2.203 2.376 3.557 3.387-2.278-3.435-3.29-7.072-3.19-11.192.098-6.404-1.407-12.697-4.522-18.3-3.283-5.253-7.7-9.303-12.535-13.097.157-.442.308-.883.471-1.33 1.308.278 2.568.493 3.783 1.097 4.504 2.145 8.792 5.201 11.739 9.287 2.737 3.986 4.381 8.339 5.747 12.947 1.01 2.9 2.998 5.543 6.305 5.77-2.26-3.069-3.365-6.573-3.83-10.32-.32-4.458-.697-9.39-2.673-13.453-3.347-7.124-9.321-12.558-16.196-16.225-2.37-1.313-5.003-1.924-7.35-3.3q-.062-.75-.134-1.5c4.765-.906 9.455 1.058 13.563 3.283 3.528 1.906 6.34 5.742 10.704 5.527 2.325.14 3.672-.588 5.346-2.093-2.725.314-5.027-.848-7.206-2.336-3.126-2.562-5.8-6.06-9.251-8.182-5.399-3.237-11.558-2.667-16.712-5.945-3.063-1.795-5.654-4.95-6.404-8.45-3.609 2.494-7.253 4.72-11.582 5.731 4.294-4.375 8.415-9.839 10.07-15.819.774-3.312 1.244-7.356-1.29-10.053-1.598-1.458-3.835-2.58-5.933-3.073-6.834-1.779-14.51-.053-20.269 3.922-2.231 1.819-4.457 3.754-6.2 6.06-.61.896-1.372.477-2.261.43-.262-1.632-.441-3.137.413-4.636 1.307-2.37 3.405-4.353 5.654-5.823-2.743.36-5.34-.14-8.072.221-1.208.21-2.389.604-3.568.947-2.882-1.79-5.277-3.882-8.59-5.114-2.47-.745-4.96-1.235-7.486-1.098zm-150.29 8.496s3.16 3.608 4.032 6.48c.872 2.87-.928 6.153-.08 8.193 1.831 1.563 5.056 2.178 7.16.848 1.604-1.5 1.214-4.597.802-6.526-1.613-4.357-5.014-11.247-11.914-8.995m214.75 6.24c-.017 1.779-.372 3.301.837 4.795 1.313 1.824 3.249 2.202 5.352 2.382 2.854.146 5.753.256 8.496-.604-1.964-1.14-3.55-2.72-5.631-3.69-2.912-1.337-5.846-2.51-9.054-2.882m-250.92 3.016c-2.57.025-8.04.615-9.201 3.521 0 0 10.674 1.977 13.097 5.545.755 1.372 2.632 1.424 3.684.401 1.604-1.435 2.046-4.038 2.092-6.096.018-1.632-1.516-2.458-2.94-2.644-3.276-.44-5.19-.741-6.732-.727m181.86.64c4.234.11 8.485 2.2 11.956 4.45 1.871 1.1 3.045 2.896 5.033 3.785-3.61.494-6.892-.006-10.43-.64-.628 1.035-1.203 2.092-1.779 3.155-2.696 4.707-8.78 7.206-13.854 4.841-2.772-1.063-4.074-3.626-6.584-4.94-2.255-.54-6.148-1.127-7.188-3.55 2.26.093 4.98.494 7.072-.517 2.319-.93 4.01-2.54 5.968-4.015 2.61-1.958 5.747-2.621 8.96-2.563q.423-.017.847-.005zm-165.67.028c-.74-.015-1.486.013-2.198.019.703 4.34.29 8.989-3.016 12.214-1.952 1.894-4.376 1.784-6.91 1.935.547 1.14.942 2.888 2.104 3.557 3.62 2.388 7.55 1.656 11.251 3.887 2.476 1.407 4.062 3.562 5.695 5.846.953 1.522 1.372 3.098.012 4.539-2.755-.006-5.004-.9-7.142-2.569-3.806-2.609-8.13-5.607-12.727-6.473-2.667-.506-5.457.133-7.142 2.376 1.406 1.296 3.243 2.447 4.103 4.155 1.278 2.435 1.836 5.33.906 7.98-.732 2.312-2.505 3.846-4.277 5.363 1.86 2.063 4.399 2.958 7.107 3.22 4.649-.477 7.875-3.43 12.593-3.738 3.103-.186 6.137.43 8.618 2.383 1.209.935 2.795 2.284 2.876 3.922-.046 1.453-.918 2.26-2.29 2.54-2.917.238-5.723-.076-8.606-.349-2.847-.081-6.003.314-7.659 2.929-1.098 1.319-.935 2.732-.708 4.318 2.324.157 4.41.018 6.537 1.11 2.737 1.308 4.76 3.824 5.12 6.875-.024 2.748-1.28 5.24-3.301 7.06 1.458 3.73 5.689 4.73 9.216 3.4 3.306-1.39 5.312-4.045 8.212-5.824 2.946-1.551 6.52-1.999 9.786-1.418 2.516.587 4.846 1.907 5.66 4.516-2.79-.343-6.492-.575-8.903 1.116-3.417 2.661-2.632 7.914.43 10.547 2.336-1.098 4.539-2.046 7.107-.988 1.83 1.377 2.028 4.492 2.708 6.572 2.447 9.943 6.404 19.444 11.018 28.568 4.254 7.27 8.978 14.534 15.812 19.636 2.33 1.807 4.882 3.196 7.538 4.445 4.056-5.921 7.38-12.51 12.342-18.06-5.253-.291-10.361-1.866-14.69-4.9-3.225-2.138-6.067-5.02-8.834-7.723 5.684.552 11.46-.918 16.138-4.196 5.771-3.76 9.943-8.751 15.18-12.999-2.104-.877-4.196-1.917-6.2-3.004-5.196-3.074-10.699-6.322-15.122-10.46-3.289-3.15-6.677-6.061-9.455-9.705-5.939-6.979-9.693-14.615-14.127-22.512-4.288-8.507-10.599-15.946-18.595-21.182-.058-1.005-.279-2.266.128-3.201 2.127-3.33 5.143-4.824 6.497-8.63.819-2.296 1.435-4.486-.465-6.45-1.743-.023-3.451.546-5.235.366-3.069.012-6.021-1.54-7.538-4.23-.494-1.198-.627-2.558-.924-3.819-2.068.802-3.846 1.912-4.654 4.086-1.412 3.201-.558 6.467 1.197 9.32 2.196 3.365 4.98 6.346 7.2 9.688.621.808.47 1.587.39 2.528-.803.058-1.43.255-2.15-.227-5.202-2.912-10.089-7.403-12.245-13.063-1.307-3.208-.599-6.538-1.523-9.757-.744-2.243-2.498-4.335-4.671-5.3-.695-.166-1.432-.224-2.173-.24zm232.65 4.632c.628 3.54 2.423 7.625 5.654 9.508 3.196 1.83 6.416 1.79 9.926 2.47 3.858 1.15 7.502 2.516 10.513 5.3-3.197-5.684-8.09-10.159-14.354-12.158-2.325-.662-4.795-.772-7.015-1.795-1.795-.808-3.265-2.023-4.724-3.324zm-72.601 1.29c-1.458.041-2.962 1.104-2.52 2.668.796.604 1.628 1.476 2.72 1.307 1.482-.337 2.336-1.645 1.766-3.126-.451-.614-1.202-.872-1.966-.85zm-24.329 20.726c-1.141.016-2.299.227-3.243.736-.424 3.515 1.54 6.81 3.992 9.181.064-3.335.116-6.566 1.238-9.757a11 11 0 0 0-1.987-.16m-160.26 1.903c-5.615-.117-12.941 8.178-12.297 12.084 6.914-7.891 9.228-1.517 15.688-3.507 2.987-2.156 1.505-7.2-1.714-8.258a4.9 4.9 0 0 0-1.676-.32zm147.88 1.637a9.6 9.6 0 0 0-3.543.722c.535 3.231 1.314 5.37 3.563 7.805.278-2.853.83-5.672 1.626-8.426a10.5 10.5 0 0 0-1.646-.101m10.72 23.167s-2.054 4.42-1.408 7.099c1.906.023 5-.647 6.715-1.548-1.227-2.115-5.307-5.551-5.307-5.551m179.89 1.346q-1.133.665-2.249 1.337c-4.713 3.08-8.478 7.676-9.135 13.412-.726 5.416 1.732 10.14 4.957 14.284 2.255 2.748 5.12 4.73 8.182 6.467-.023.326-.053.651-.082.977-9.57 1.04-18.92 4.875-26.452 10.884-6.415 4.742-11.157 11.936-13.674 19.467-1.86 5.462-1.975 11.47-1.476 17.172.913 6.113 3.22 12.15 6.462 17.41 4.591 7.118 10.321 13.505 14.726 20.682 3.905 6.648 6.131 14.046 3.9 21.705 3.475-3.3 6.136-7.922 6.642-12.74.157-3.05.006-6.304-1.005-9.204-1.273-3.138-2.883-6.247-5.05-8.862-2.081-2.592-4.498-4.77-6.759-7.206-3.237-3.742-5.585-8.1-6.387-13.022 4.045 6.637 10.594 12.366 18.451 13.696 3.26.715 6.857-.07 9.885-1.336 4.794-2.226 7.705-8.176 7.613-13.307-4.243 2.423-9.28 3.603-14.15 2.987-6.584-.982-12.325-5.475-14.818-11.652-.942-3.086-1.383-6.462-.918-9.675.476-3.865 2.243-7.602 4.289-10.873 3.167-4.243 7.566-8.17 12.674-9.832 6.078-2.313 13.11-2.012 19.1.44 11.228 4.975 20.079 16.01 21.067 28.44.947 9.176-1.25 18.033-5.173 26.285-3.73 8.496-8.81 15.847-13.465 23.808-2.109 3.155-4.166 6.322-6.026 9.64-1.952 3.614-4.125 6.95-5.444 10.879-1.22 3.65-2.743 6.886-2.883 10.75-.255 4.405-.43 9.193.773 13.476 2.283 7.467 6.235 14.627 9.925 21.485 2.168 4.748 4.922 9.78 5.84 14.917a33 33 0 0 1 .14 11.912c-1.29 5.346-4.73 10.228-9.467 13.075-5.195 3.028-11.302 4.12-17.24 3.318-5.8-.959-11.588-3.208-16.29-6.776-2.568-1.9-5.184-3.655-7.363-6.026-6.253-6.09-10.414-13.005-15.365-20.07-5.45-7.613-10.889-15.162-15.794-23.14-6.16-9.92-12.18-20.142-16.812-30.876-3.858-7.984-6.724-16.504-9.025-25.058-.93-4.498-1.946-9.17-1.935-13.754-3.283 2.354-6.717 4.475-10.024 6.764-1.819 5.701.058 12.43 2.278 17.788-5.09 1.133-10.216.326-14.662-2.387-3.359-2.029-5.467-6.067-5.874-9.897-2.086 3.324-3.481 6.85-3.452 10.843-.116 3.068.685 5.858 1.382 8.804-2.894.053-5.601.268-8.344-.871-4.742-1.447-9.495-5.713-9.31-11.03-1.446 2.045-2.98 3.701-3.463 6.264-1.18 4.695.087 9.13 1.75 13.517-6.091-.012-12.518-2.952-15.854-8.176-.918-1.284-1.36-2.738-2.098-4.115-.605 3.243-.087 6.34.523 9.525-3.405-.18-6.182-1.709-9.042-3.405-2.324-1.343-4.19-3.685-5.8-5.794a25.4 25.4 0 0 1-2.858 2.946c.732 2.028 2.202 3.562 2.69 5.718.855 3.463.761 7.218.796 10.768-2.615-.442-5.253-.72-7.874-1.104 3.504 3.719 7.723 6.13 11.982 8.862 9.693 5.457 20.427 9.123 31.16 11.924 7.305 2.144 14.714 4.073 21.885 6.625 3.993 1.702 7.95 3.26 11.494 5.823 3.778 2.36 7.177 5.578 8.764 9.826 1.325 3.463.662 7.415-1.552 10.36-1.923 2.906-4.666 4.656-7.647 6.318-7.503 4.788-13.586 11.54-16.695 19.956-1.523 3.975-2.139 8.071-2.011 12.319-.192 4.655 1.476 9.234 3.29 13.453 2.498 5.108 5.955 9.786 10.052 13.73 4.69 4.627 10.425 8.334 15.458 12.443 3.905 3.237 7.165 7.137 9.49 11.652 1.365-4.724 1.336-9.089-.884-13.54 7.346 3.132 14.773 5.59 21.246 10.378 4.887 3.429 9.751 8.49 10.687 14.62 1.116 6.201-.691 12.187-3.777 17.533-1.993 3.66-4.498 7.055-7.16 10.25-2.812 3.185-5.898 6.446-9.808 8.265-7.067 3.225-14.842 5.753-22.698 5.335-2.058-.117-3.499-1.465-4.3-3.278-1.64-3.586-3.952-6.643-7.776-8.043-2.278-.645-4.574-.958-6.922-.44 1.488 2.138 3.197 3.886 2.506 6.728-1.157 3.638-3.214 7.363-6.805 9.077 2.15.535 4.323 1.14 6.525 1.424a62 62 0 0 0 6.892-.163c2.662-.215 4.841-1.116 7.462-.198-.523 1.04-1.087 1.762-2.121 2.337-3.923 2.185-8.327 2.986-12.79 2.8-4.893.105-8.967-1.661-13.953-.923-2.836.122-6.097 2.26-6.69 5.142 2.616.634 5.719 1.627 7.439 3.824 2.824 2.923 2.569 8.565-.186 11.425 3.748 1.43 8.031.68 11.064-1.923 1.395-1.72 2.26-3.847 3.777-5.515 2.656-3.202 7.224-4.898 11.03-6.316 5.277-1.587 11.512-2.715 16.97-1.733q-.426.708-.93 1.355c-5.399 2.9-12.081 3.48-17.602 6.206-2.586 1.337-4.888 2.923-6.073 5.689 2.766.4 5.282.308 7.804 1.697 2.22 1.128 4.19 3.132 4.987 5.515.343 1.929.162 4.027.046 5.974 3.434.075 6.66-.291 9.088-2.958 2.389-2.615 2.325-5.498 2.912-8.74 1.29-6.166 7.345-9.862 13.017-11.38.273 1.669-1.552 2.779-2.499 3.923-1.743 1.912-3.975 4.714-2.987 7.456.546 2.005 2.04 2.842 3.574 4.039 2.708-5.66 9.931-7.927 15.493-5.155 1.656.97 3.51-.116 4.916-1.046 1.813-1.174 2.58-3.306 2.127-5.398-.72-2.383-3.19-3.766-4.346-5.98-.721-1.226-.71-2.87-.477-4.23.738-.779 1.313-1.273 2.446-.907 4.184 1.093 8.996 1.877 13.145.28 3.26-1.047 6.608-3.238 7.648-6.678 1.017-3.144.72-7.206-2.168-9.275-1.709-1.395-3.975-1.43-5.654-2.772.157-1.266.372-1.522 1.51-2.016 1.733-.407 3.586-.366 5.347-.227 3.347.297 5.805 2.192 9.304 1.826 2.702-.047 4.893-1.175 7.34-2.122-2.046-.837-4.272-1.575-6.103-2.83-1.836-1.412-3.515-3.446-4.079-5.736-.447-1.976.07-4.201.936-6.003.36-.796 1.162-.848 1.883-1.22.685 2.615 1.11 5.038 3.544 6.63 3.156-3.085 3.737-7.635 2.691-11.767-.959-3.284-2.999-5.498-4.8-8.252-1.83-2.93-1.802-6.189-1.192-9.478l.366-.553c1.906 3.324 4.097 8.015 8.223 8.91 2.412.825 4.673.365 7.05-.286-4.173-1.005-6.486-5.317-6.474-9.367-.285-4.155 1.214-8.118.877-12.21-.377-2.155-.5-4.323-1.895-6.078-4.887.825-9.698 1.034-14.475-.506-6.45-2.237-12.145-6.154-14.91-12.616-2.197-5.898-1.64-12.099-1.088-18.24.988-9.345 1.82-19.206-1.784-28.132-1.348-2.993-2.434-6.113-3.94-9.025 1.54 1.546 3.18 2.615 4.458 4.394 3.916 5.288 6.898 11.024 11.436 15.882 3.103 3.23 6.526 6.508 10.524 8.595 7.211 4.218 15.77 5.938 24.07 5.02 6.95-.587 14.29-3.01 19.555-7.73 4.736-3.87 7.833-9.686 9.518-15.491 1.052-3.737 1.72-7.543 1.5-11.436 2.173-2.214 4.945-3.725 7.014-6.108 3.021-3.487 5.415-7.642 6.618-12.117.83-2.731 1.023-5.503 1.348-8.322-2.946 3.423-6.624 5.835-10.559 7.974-3.248 2.086-5.747 5.253-6.525 9.089-1.709-.918-1.343-2.546-1.663-4.18-1.313-6.595-4.09-12.11-3.358-19.06.163-3.27 2.15-6.473 4.37-8.786 3.44-3.754 8.229-5.91 11.983-9.53 7.083-5.928 11.564-15.121 11.116-24.42-1.75 2.575-3.266 5.167-5.672 7.213-4.47 4.428-10.303 7.577-15.736 10.93-4.701 2.604-9.374 5.905-12.134 10.642-1.168 1.981-2.093 4.085-2.83 6.264-1.593-5.381-2.185-10.902-.727-16.393 1.854-9.095 7.055-16.853 11.866-24.616 3.574-5.503 7.24-10.948 10.89-16.404 3.917-6.2 7.345-12.657 10.152-19.44 1.441-4.241 2.784-8.635 3.382-13.08.256-4.016.936-7.502.384-11.35-.459-8.733-3.365-17.27-8.217-24.534-3.504-4.655-7.351-8.88-12.203-12.17-6.595-4.997-14.836-7.595-21.315-12.453-4.166-2.923-7.56-6.764-9.333-11.587-1.825-5.463-1.673-11.942.942-17.125zm-319.73 7.691a3.75 3.75 0 0 0-2.464.903c-2.662 2-6.87 7.443-7.096 10.953 5-2.617 6.08-3.145 12.417-4.057 1.925-.278 2.436-4.373 1.111-6.018-1.017-1.057-2.513-1.789-3.968-1.78zm113.02 100.7c-2.766.343-5.463 2.068-8.055 3.097-3.887 1.517-7.24 3.882-10.989 5.707-2.928 1.766-5.933 3.347-8.943 4.962-5.706 3.499-11.646 6.544-17.998 8.711-7.188 2.819-14.649 4.795-22.332 5.678-7.688 1.244-15.865.209-23.39-1.587-2.196-.557-5.991-.232-7.211-2.487-1.564-3.556-.628-7.676-2.702-11.302-1.668-3.283-5.335-4.83-8.897-4.493.964 4.26-1.139 7.41-3.603 10.612-1.418 1.72-3.336 2.638-5.474 3.144 3.58 3.248 8.008 4.265 12.715 4.498 2.063.174 4.637.203 6.433 1.348.697.57.412 1.162.435 1.935-5.352 1.97-11.39 2.063-16.817.36-2.94-1.052-5.578-3.417-8.623-4.056-4.225-.39-7.311 1.686-10.45 4.173 3.26 1.807 6.23 5.358 6.33 9.216-.117 3.231-2.11 6.473-4.749 8.298 1.564 1.174 3.231 1.378 5.126.965 2.975-.459 5.004-3.359 7.299-5.166 4.662-3.989 15.994-6.774 22.291.18-3.173 1.121-6.154.517-9.606.872-3.847.424-7.566 1.383-10.401 4.19 1.197 1.086 2.632 1.353 4.056 2.213 2.876 1.755 5.02 4.777 5.2 8.212.116 2.44-1.505 4.974-2.766 6.956 2.755 1.313 6.306 1.644 8.793-.413 3.455-3.558 5.59-10.958 12.22-9.443 0 0-2.486 4.568-.958 6.486 2.255 2.475 5.857 2.039 8.832 2.893 2.976.634 5.405 2.255 6.364 5.26 2.307.726 4.498 1.318 6.92.633 2.604-.57 4.731-2.626 4.725-5.404.285-2.133-1.9-4.074-2.934-5.77-1.005-1.297-.314-3.592 1.267-4.098 1.464-.523 3.062-.749 4.596-.888 5.213-.506 10.385-1.227 15.562-1.947-1.153 8.156 2.187 11.376 10.332 12.313-.61-2.83-.802-5.73.96-8.205 2.033-2.952 6.013-4.237 9.268-5.306 6.258-1.854 13.273-1.772 19.682-.784 3.312.419 6.514 1.336 9.832 1.685-1.668-3.4-2.626-6.875-1.906-10.686 4.917 4.044 11.24 6.352 17.643 5.381 3.65-.61 7.281-.883 10.977-.552-.912-1.953-1.958-3.487-3.44-5.039-5.421 1.261-10.222 2.604-15.778.75.582-1.307 1.854-2.12 2.72-3.306 1.325-1.825 2.54-3.795 3.371-5.898 1.697-5.294 1.418-10.414 1.232-15.882-.07-2.418-.657-4.76-.668-7.177-.337.552-.657 1.076-1.186 1.471-2.226 1.737-4.712 3.463-7.386 4.422-2.3.866-4.672 1.301-7.078 1.76 1.564-5.642 2.54-13.324-.842-18.49zm-121.87 8.225c-3.412-.014-6.891 1.064-9.685 2.915 2.771.43 5.41 1.284 7.746 2.859 1.25.97 2.365 2.104 3.573 3.133 2.424-.994 3.905-3.11 4.795-5.493.511-1.307-1.447-2.55-2.499-2.876a14.7 14.7 0 0 0-3.93-.538M54.954 284.63a4.6 4.6 0 0 0-.902.094c-3.051.645-5.102 2.708-7.003 5.032-1.313 1.79-2.58 4.004-2.748 6.258 2.063-1.01 4.416-1.958 6.74-1.975 2.366-.157 4.76.226 7.108-.035 1.412-.697 2.324-2.08 2.457-3.643.49-3.07-2.705-5.745-5.652-5.731m19.535 20.461c-2.246.012-3.982 1.478-5.37 3.237-1.975 2.824-3.131 6.131-3.131 9.595 2.423-1.976 5.247-3.372 8.367-3.75 2.209-.447 4.318-.267 5.399-2.65 1.61-2.893-1.43-6.042-4.272-6.344a5.5 5.5 0 0 0-.993-.088m27.568 14.348c-2.242 3.025-1.545 9.292 1.353 14.987.599-5.47 4.237-8.822 7.224-12.93-2.847-.72-5.735-1.29-8.577-2.057m169.13 14.813c5.038 3.19 10.152 6.2 14.964 9.745 2.301 1.982 4.77 3.725 6.927 5.857 1.725 1.593 3.271 3.354 4.962 4.981 2.017-1.029 4.672-2.807 4.777-5.294-.75-2.783-3.347-5.109-5.585-6.77-3.283-1.982-6.752-3.87-10.483-4.765-5.096-1.714-10.228-3.074-15.562-3.754m-45.727 2.399c-13.835.036-27.551 2.647-40.121 8.845-7.485 3.894-14.284 8.7-19.322 15.574-6.241 8.083-8.147 19.52-5.3 29.247 1.83-3.173 3.226-6.259 5.91-8.85 1.5-1.726 3.435-2.813 5.132-4.3-1.203 4.648-2.284 9.879-1.384 14.644.78 5.004 3.231 9.873 7.235 13.057 1.755 1.656 3.777 2.819 5.823 4.056 4.02 3.115 7.624 7.49 8.885 12.5.976 4.545-.366 8.834-2.784 12.663-4.23 6.253-10.384 10.536-17.323 13.313-8.89 3.534-18.979 4.962-28.434 3.225-2.557-.465-5.619-.598-6.868-3.294-1.64-2.552-.942-5.51-2.575-7.997-2.498-3.615-6.764-5.555-11.11-5.526.365 2.11 1.621 3.597 1.255 5.857-.662 4.178-3.29 7.688-6.486 10.332 3.958 1.865 8.299 2.784 12.668 2.79 2.453.011 4.324.383 6.59 1.307a6 6 0 0 1-.394 1.61c-3.231 1.883-6.62 2.033-10.27 2.138-4.317-.017-7.798-1.598-11.738-3.01-2.673-1.017-5.567-.912-8.17.273-1.075.581-1.89 1.738-2.72 2.61 1.842 1.783 4.091 2.597 5.41 5.003 2.441 4.074 1.61 9.065-1.691 12.377 3.487 1.656 8.35 1.436 11.285-1.249 2.173-2.615 4.12-5.154 7.322-6.607 6.945-3.249 15.307-3.126 22.768-2.243-.035.697-.063 1.389-.092 2.086-6.096 1.935-13.406 1.569-19.148 4.312-1.767.964-4.11 2.406-4.864 4.352 2.812.32 5.45.78 7.798 2.465 1.86 1.296 3.41 3.33 3.922 5.56.436 2.244-.534 4.44-1.162 6.55 3.028.639 6.026.785 8.577-1.25 2.656-2.126 3.435-5.038 4.225-8.187 2.217-6.994 7.918-11.115 16.04-8.957.451.216-6.643 3.203-7.741 6.521-.872 2.47-.129 4.778 1.882 6.399 4.416-3.684 11.919-4.394 15.87.377.884-.587 2.204-1.377 2.122-2.597-.203-1.627-.947-2.999-.756-4.707 2.063-2.185 4.522-1.75 7.224-2.447 3.626-.9 7.09-2.545 8.996-5.933 1.546-2.115.028-4.719-.094-7.014 1.255-.122 1.988.669 3.005 1.232 5.033 3.208 11.837 3.114 17.26.982-3.18-1.465-6.899-4.039-7.741-7.653-.134-1.476.395-3.417 1.953-3.952 2.074-.714 4.247-1 6.264-1.923 3.8-1.616 7.845-3.696 10.193-7.218 2.336-2.97 3.266-7.24 2.11-10.849-.5-1.598-1.651-2.57-1.587-4.214 3.58-.273 6.549 2.802 7.374 6.062.994 3.028.169 5.724.384 8.752.337.871.865 1.702 1.33 2.516.093-3.463 1.477-7.119 4.336-9.222 1.615-1.267 3.881-2.57 4.747-4.498 1.354-3.098 1.11-6.247.302-9.45-1.668-.499-3.382-.673-5.073-1.068-6.73-1.994-12.842-6.207-16.038-12.593-1.871-3.138-2.685-6.84-2.18-10.472.239-4.864 2.952-8.886 6.31-12.203 2.732-2.755 6.028-4.678 9.584-6.177 13.034-5.247 27.742-6.044 41.131-1.61 1.691-2.83 3.411-5.991 5.555-8.566 2.935-3.667 6.294-6.997 9.583-10.332-7.898-7.572-17.76-13.243-27.963-17.09-7.56-2.435-15.481-4.718-23.396-5.543-4.6-.523-9.224-.798-13.835-.786m-112.82 98.662c-4.23.157-8.804 1.888-11.698 5.05 2.435.505 4.788 1.035 6.955 2.313 1.784.97 2.988 2.534 4.673 3.585 2.01.384 3.411-.86 4.469-2.394 1.116-1.72 2.44-3.922 2.383-6.026-1.535-1.906-4.452-2.575-6.782-2.528m-12.442 27.213c-1.606-.017-3.223.526-4.318 1.61-2.487 2.26-4.59 5.504-4.956 8.898 2.696-1.116 5.422-1.68 8.35-1.5 1.575-.034 3.702.349 4.986-.75 1.563-1.452 2.08-4.317.576-6.008-1.013-1.491-2.818-2.23-4.638-2.25m25.406 18.179a7.5 7.5 0 0 0-3.318.65c-1.912 1.081-2.755 3.225-3.29 5.241-.633 3.144-.342 6.3.588 9.351 1.441-2.4 3.213-4.498 5.759-5.776 2.557-1.407 4.975-2.185 6.154-5.126-.145-1.272-.64-2.423-1.726-3.173-1.314-.7-2.735-1.125-4.167-1.167m37.4 6.926c.541 2.801-1.224 7.52-2.235 10.28 3.434-1.07 8.57-6.38 8.401-10.111-2.235-1.58-3.747-1.056-6.165-.169m114.596 2.25c-4.306.063-8.592 1.936-11.628 4.961 3.08.349 6.004 1.337 8.444 3.278 1.122.884 2.046 1.982 3.249 2.68 1.87.11 3.794-.687 4.933-2.215 1.308-1.76 2.162-3.899 2.324-6.096-1.61-1.342-3.346-2.365-5.479-2.522a15 15 0 0 0-1.843-.086m-10.715 29.574a9.2 9.2 0 0 0-2.516.428c-4.091 1.726-5.747 7.537-5.224 11.575.261.57.029 2.517 1.04 2.058.622-.663 1.144-1.418 1.801-2.058 2.202-2.208 4.865-2.84 7.735-3.742 2.633-.738 3.998-4.103 2.301-6.346-1.33-1.406-3.243-1.967-5.137-1.915m73.17 12.38c-1.984-.023-4.174 1.424-5.156 2.995.982 2.79 1.493 5.601 1.342 8.57 3.736-2.335 6.933-6.072 5.963-10.784-.628-.54-1.373-.773-2.149-.782zm-43.709.819a9.7 9.7 0 0 0-3.108.426c-2.121.494-2.626 2.947-2.998 4.772-.378 3.719-.442 7.339 1.94 10.442 1.326-4.237 4.783-6.241 7.933-8.932 1.47-1.266 2.214-2.946.941-4.695-1.104-1.384-2.903-1.964-4.708-2.013" fill="#fff"/>
<path d="M308.56 81.104c.814.39.947 1.104 1.348 1.836-.447 2.464-2.028 3.347-4.323 3.783-3.074.396-6.393.89-8.42 3.516-1.424 2.133-.82 5.34-1.03 7.828-1.807-2.156-3.184-4.65-3.08-7.549-.139-2.284 1.175-4.196 2.709-5.736 3.347-3.12 8.339-4.323 12.796-3.678"/>
<path d="M177.36 118.16c-.732 1.703-1.662 3.394-2.144 5.184-.384 2.179-.395 4.527.511 6.584 1.046 2.806 3.905 4.817 6.55 5.98 3.8 1.266 7.67 1.33 11.604.737 7.787-1.272 15.952-3.446 23.942-3.591 4.719-.087 9.327-.064 13.947 1.04 2.47.523 4.504 1.691 6.834 2.592.099 3.161-2.911 6.294-5.642 7.549-3.198-3.199-6.69-5.916-10.483-8.328l-2.948 3s-19.303 2.44-28.496 3.09c-3.411.169-6.852.163-10.262.059-4.521-.338-9.275-2.18-12.337-5.626-4.01-4.608-3.667-12.366 1.342-16.097 2.168-1.842 4.823-2.225 7.584-2.173z" fill="#fff"/>
</svg>
