<?xml version="1.0" encoding="UTF-8"?>
<svg width="600" height="748" version="1.1" xmlns="http://www.w3.org/2000/svg">
 <path d="m5.724 5.5-.223 429.59c0 174.81 119.34 307.21 294.17 307.21 174.82 0 294.4-135.87 294.87-308.23V5.5z" fill="#fff" stroke="#000" stroke-width="10.9"/>
 <path d="M127.24 52.855v91.305l58.676.159-81.036 474.99h390.38l-78.261-475.15h56.834v-91.31h-66.151v52.177h-71.739V52.85h-70.812v52.176h-71.739V52.85z" fill="#0093dd" stroke="#000" stroke-width="8"/>
  <path d="M365.49 151.85c-2.62.057-5.27.337-7.827.718-3.013 1.43-6.283 2.17-9.656 2.53a1.785 1.785 0 0 1-.438-.012c-6.568-.937-12.261-3.315-18.103-2.503a1.785 1.785 0 0 1-.783-.064c-4.265-1.342-7.524-.189-10.908 2.064-3.38 2.254-6.624 5.664-10.193 8.386a1.788 1.788 0 0 1-.397.227c-3.63 1.513-7.169 1.392-10.462 1.093-3.29-.299-6.386-.745-9.445-.265a1.785 1.785 0 0 1-.34.023c-2.458-.09-4.851-.227-6.689.148-1.784.362-2.971 1.04-3.886 2.843-1.842 7.357.635 15.226 2.106 23.226 2.858 4.015 6.87 4.836 11.762 5.32 4.813.476 10.284.529 14.916 3.55l5.78.832a1.788 1.788 0 0 1 1.517 1.97s-1.376 12.113-1.577 14.84c-6.36-.012-5.286.646-7.864.88-2.798-1.15-5.74-2.688-7.683-3.724-4.212.37-8.56 2.458-12.96 4.299-.681.987-.708 2.072-.455 3.785.227 1.527.526 3.418.295 5.437 1.263 1.289 3.048 1.856 5.452 2.128 2.492.28 5.37.314 8.091 1.21 10.004-.283 16.893 6.155 24.35 8.477 1.436.446 1.708 2.36.453 3.191l-1.607 1.07a1.785 1.785 0 0 1-.597.257c-10.41 2.333-21.188 4.31-32.16 5.57h-.011c-1.482.215-3.052.404-3.365.612a1.785 1.785 0 0 1-2.484-.51c-4.103-6.277-11.116-10.958-17.774-16.259-6.58-5.232-12.825-11.244-14.92-20.326-3.39-6.975-1.417-13.789.34-19.888 1.767-6.128 3.29-11.5.432-16.817a1.785 1.785 0 0 1 .019-1.724c1.512-2.68 2.62-5.671 1.671-8.476-1.75-3.978-6.065-6.258-10.537-7.948-.53 1.823-1.248 3.49-1.977 4.953-1.021 2.042-1.842 3.826-1.913 5.792a1.785 1.785 0 0 1-3.263.938c.15.227.73.442.502.397-.226-.045-1.259-.36-1.765-1.123a1.785 1.785 0 0 1-.133-1.743c.908-1.943.405-4.635-.688-6.836-2.457-4.575-8.019-7.24-13.615-7.943-.877.264-1.777.453-2.325.586-.333.083-.272.136-.386.189 1.335 3.168.738 6.374.34 8.95-.226 1.474-.355 2.786-.166 3.893.186 1.104.605 2.042 1.77 3.1 1.334 1.207.246 3.403-1.52 3.078-1.497-.276-2.586-1.047-3.577-1.626-.99-.586-1.841-.986-2.495-1.04a1.853 1.853 0 0 1-.254-.037c-3.5-.775-6.544.783-9.78 2.5 1.965 4.192 2.067 8.733 3.156 12.162.938.533 1.724 1.199 2.02 2.144.396 1.263-.016 2.344-.383 3.146-.366.801-.77 1.474-.983 1.98-.215.515-.204.72-.177.806.068.204.098.416.09.628-.174 4.975.537 9.936 4.273 12.62.2.148.374.337.499.557 1.244 2.147 1.274 4.427 1.028 6.408-.242 1.981-.718 3.781-.79 5.305a1.785 1.785 0 0 1-3.1 1.123c-.738-.802-1.74-1.199-3.123-1.777a14.239 14.239 0 0 1-2.307-1.172c-1.966 5.425-1.512 11.823.68 17.279 1.37 2.813 5.048 4.298 8.667 4.99.74-.128 1.463-.215 1.894-.325.544-.14.73-.227.998-.627a1.785 1.785 0 0 1 2.749-.265l.355.36a1.785 1.785 0 0 1 .333.46c.151.303.522.515 1.573.605 1.024.083 2.382-.06 3.595-.155.091-.015.893-.408 1.974-.767.544-.182 1.221-.34 2.015-.227.794.113 1.618.567 2.208 1.229a1.785 1.785 0 0 1 .386.707c.351 1.259 1.172 2.609 2.094 4.064.84 1.335 1.728 2.798 2.227 4.507 7.1 10.806 10.518 22.659 15.781 33.71.072.151.121.31.152.476.15.938 1.194 2.44 2.11 4.246.46.908.88 1.936.93 3.139a5.633 5.633 0 0 1-1.252 3.67l.159-.237c-3.524 6.34-4.348 14.303-5.815 22.073l.351-.242c1.543-1.097 3.509.642 2.605 2.306-4.575 8.386-12.779 13.989-17.906 20.145l.152-.212c-3.72 6.076-9.748 9.037-14.583 12.658a1.785 1.785 0 0 1-.984.356c-1.327.064-2.484.756-3.97 1.678-1.33.825-3.01 1.725-5.077 1.929-2.609 1.83-5.596 1.746-8.091 1.436-2.586-.317-4.81-.676-6.394-.143-5.64 4.435-11.789 7.138-16.553 11.358-1.444 1.758-1.91 4.234-3.342 6.934-.083 2.548-.764 5.047-1.013 7.206-.182 1.558 0 2.715.442 3.747l2.873-2.416a1.785 1.785 0 0 1 .348-.227c.635-.317 1.467-.87 2.662-1.096a3.577 3.577 0 0 1 2.064.196c.719.31 1.309.897 1.72 1.58a1.785 1.785 0 0 1-.264 2.175l-.718.718a1.785 1.785 0 0 1-.78.462c-2.35.657-3.87 2.162-5.032 4.227-1.111 1.98-1.777 4.45-2.208 6.767.787 4.541 2.307 8.81 5.195 12.023 3.418-2.794 6.999-5.013 9.052-7.89a1.785 1.785 0 0 1 1.233-.734c1.966-.246 3.535.378 4.726.632 1.198.253 1.867.328 2.93-.36a1.785 1.785 0 0 1 2.23.235c.991.987.89 2.238.806 2.949a23.366 23.366 0 0 0-.121 1.229c1.626 8.439 7.35 17.937 15.044 21.09.934-.862 1.516-1.842 1.887-3.169.453-1.637.631-3.66 1.232-5.762a1.785 1.785 0 0 1 .454-.771c.805-.802.81-2.609.983-5.014.08-1.198.242-2.533.972-3.796.612-1.066 1.754-1.89 3.142-2.412 1.618-1.792 1.814-3.977 1.338-6.658-.484-2.76-1.732-5.766-2.579-8.394a1.785 1.785 0 0 1-.015-1.043c.492-1.702 1.815-3.664 4.174-3.959a1.777 1.777 0 0 1 .806.083c4.85 1.675 9.531 5.173 12.93 8.802.522.19.844.182 1.4-.045.597-.246 1.353-.775 2.287-1.297a1.785 1.785 0 0 1 1.74.004c4.472 2.503 5.569 7.036 6.362 10.738l.719-.382c3.905-4.48 6.378-10.069 7.236-16.2-.189-3.581-1.588-6.55-4.798-7.525a1.785 1.785 0 0 1-1.145-2.348c.665-1.739.215-2.533-.764-3.883-.975-1.35-2.647-2.809-3.384-5.138a1.785 1.785 0 0 1 .71-2.023c2.258-1.504 5.498-3.346 8.372-4.166a1.785 1.785 0 0 1 2.268 1.8c-.113 2.616-.552 4.915-.93 7.081 5.71-4.442 11.645-8.397 18.035-11.445 1.04-.518 2.223-.628 3.191-.329.972.303 1.664.892 2.205 1.46 1.077 1.134 1.898 2.351 2.011 2.434.182.14.34.31.454.507 5.962 9.815 13.69 19.812 21.69 27.336a81.675 81.675 0 0 1 16.955 8.598 1.785 1.785 0 0 1-.204 3.085c-5.158 2.53-10.836 2.908-16.197 3.44-5.358.53-10.36 1.21-14.394 3.797l.045-.03c-3.97 2.71-8.394 2.888-11.222 4.971a1.777 1.777 0 0 1-.19.121c-7.599 4.239-13.41 8.356-18.593 15.093a1.777 1.777 0 0 1-.14.16c-7.997 8.17-13.921 18.745-12.734 30.957a1.732 1.732 0 0 1 .008.265c-.503 9.52 4.462 17.022 11.191 22.886.314.272.522.643.59 1.05.832 4.98-1.323 8.867-1.974 12.425a1.78 1.78 0 0 1-.064.25c-4.601 13.637-8.012 29.694-20.644 39.31a1.785 1.785 0 0 1-.492.264c-6.325 2.23-14.82 2.945-20.776-1.444-2.805-.598-5.83-1.649-8.518-1.981-2.798-.344-4.9-.06-6.59 1.985a1.785 1.785 0 0 1-2.926-.254c-.522-.915-.707-1.694-.897-2.102-.189-.408-.147-.39-.442-.491a2.178 2.178 0 0 1-.09-.03c-2.035-.795-4.091-.64-6.209.094-2.064.714-4.106 1.996-5.868 3.327-2.416 2.56-4.4 5.422-5.172 8.14.786-.336 1.754-.631 2.9-.253a1.785 1.785 0 0 1 .582 3.07c-.85.707-1.724 1.047-2.495 1.444-.764.394-1.395.794-1.762 1.21-2.02 2.45-3.758 5.339-4.579 8.265-.631 2.235-.51 4.45.121 6.655 3.025-1.604 6.696-1.49 9.441-1.052 3.403.152 6.45-1.38 10.292-1.777 1.845-.192 2.722 2.208 1.187 3.252-4.008 2.722-6.7 7.35-8.05 12.05-1.22 4.635.583 8.96 3.2 12.711 2.442-2.106 5.308-3.153 7.826-4.136 3.1-1.21 5.592-2.33 7.165-5.1a1.785 1.785 0 0 1 2.816-.379l.47.47c1.3 1.145 2.154 1.345 2.971 1.266.817-.076 1.773-.567 2.836-1.418 2.102-1.69 4.212-4.64 7.16-6.148 2.065-1.232 4.36-1.323 6.398-1.02 2.06.298 3.97.96 5.497 1.387a1.785 1.785 0 0 1 .318.121c4.503 2.246 6.583 6.556 8.847 9.547 4.084 2.922 8.659 2.26 13.471.469-.075.022.246-.378.715-1.154.242-.408.54-.903 1.142-1.35a3.206 3.206 0 0 1 2.435-.502 1.785 1.785 0 0 1 1.206.945c.93 1.864 2.302 2.2 4.518 2.7 1.618.363 3.649.737 5.433 1.928.987-1.728 1.505-3.577 1.384-5.671-.163-2.738-1.115-5.706-2.238-8.386a1.78 1.78 0 0 1-.068-.197c-.817-2.847-4.186-5.135-7.305-5.913a1.785 1.785 0 0 1-1.293-2.193c.234-.885.11-2.242.212-3.88.105-1.637.703-3.724 2.59-5.141l-.541.669c.91-1.932 2.416-3.225 4.083-3.403 1.675-.17 3.051.533 4.28 1.267 1.229.733 2.367 1.595 3.365 2.208.469.287.647.264 1.006.408l5.943-21.131a1.785 1.785 0 0 1 .454-.779l.719-.71a1.785 1.785 0 0 1 1.966-.379l8.072 3.479 1.07-14.492a1.785 1.785 0 0 1 2.39-1.55c1.406.514 2.42 1.398 3.364 2.105.424.318.738.397 1.116.628.669-1.883 1.047-3.974 1.198-6.314.197-3.01.227-6.239 1.112-9.328 2.404-11.634 10.912-19.963 15.037-28.977-4.575-1.312-9.694-2.42-13.868-5.648a1.785 1.785 0 0 1-.405-.435c-3.3-5.063-1.308-11.645.356-16.088a1.78 1.78 0 0 1 .136-.287c2.998-5.048 7.078-9.49 11.694-13.184a1.788 1.788 0 0 1 .404-.242c4.076-1.77 8.367-3.883 13.158-4.084a1.785 1.785 0 0 1 1.664 2.598c-3.562 6.957-4.995 15.487-6.065 23.646-.476 10.62 4.545 18.984 5.445 29.91 2.382 2.402 3.043 5.993 5.028 8.319l.016.019c4.786 5.633 12.129 10.897 19.377 14a1.667 1.667 0 0 1 .071.03c4.783 2.307 9.868 4.424 14.61 3.948a1.785 1.785 0 0 1 .9.144c5.258 2.325 11.833.287 16.484-3.036 1.4-.594 4.61-.764 5.675 1.187a1.785 1.785 0 0 1 .14.378 20.515 20.515 0 0 1-5.1 19.192 1.785 1.785 0 0 1-.409.317c-2.684 1.513-4.563 5.763-7.02 9.816-1.233 2.022-2.659 4-4.712 5.38-1.92 1.29-4.442 1.845-7.335 1.463-7.308 1.664-13.233-.7-19.604-.87a1.766 1.766 0 0 1-.385-.052c-1.494-.37-4.046-.072-6.556-1.161-2.239.17-4.48.31-6.337.817-1.951.533-3.433 1.36-4.496 2.986a1.785 1.785 0 0 1-2.287.624c-1.07-.529-2.295-.695-3.857-.533a1.826 1.826 0 0 1-.241.008c-2.103-.075-3.252.756-4.575 2.254-1.248 1.421-2.447 3.444-4.02 5.278a12.197 12.197 0 0 0-1.459 4.82c-.075 1.108.136 2.072.484 2.95.968-.386 2.023-.575 3.221-.178 1.26.416 1.637 2.015.7 2.953-3.993 3.992-6.02 10.647-4.16 16.182.213-.095.55-.06.818-.114 2.423-1.46 5.153-1.852 7.75-2.049 2.685-.204 5.267-.28 7.335-.877.522-.238 1.24-.934 2.662-1.286a1.785 1.785 0 0 1 2.012 2.556c-2.212 4.261-4.197 8.643-4.004 12.92 1.281-.114 2.351-.213 2.937-.666a1.785 1.785 0 0 1 1.23-.37c6.585.506 13.092-1.188 18.798-3.782a1.785 1.785 0 0 1 1.887.257c1.387 1.165 2.484 1.475 3.626 1.449 1.138-.027 2.397-.477 3.766-1.222 2.658-1.448 5.505-3.947 8.904-5.074 1.686-1.421 3.538-2.09 5.22-1.86 1.82.246 3.253 1.206 4.542 2.133 1.293.93 2.48 1.879 3.584 2.45 1.074.552 1.962.76 3.04.514.718-.39 1.425-.704 1.868-.93.544-.284.782-.458 1.02-.893a1.785 1.785 0 0 1 2.042-.85c4.73 1.323 8.016 5.32 10.534 8.915 4.9-1.679 8.038-6.514 8.44-11.853-.799-3.168-4.746-5.996-8.103-7.27a1.785 1.785 0 0 1-.73-2.821c4.964-5.887 10.333-10.186 14.462-15.35a1.785 1.785 0 0 1 .302-.295c2.065-1.607 4.485-1.89 6.625-1.981 2.14-.095 4.113-.046 5.603-.473.764-.299 1.474-.484 1.879-.67.09-.037.038-.037.09-.064-2.563-4.181-2.903-9.33-2.903-13.827a1.782 1.782 0 0 1 2.507-1.63l1.236.545c1.713-.192 3.403-.177 4.859-.25.933-.048 1.735-.18 2.461-.385-1.44-2.677-3.395-5.376-5.433-8.216-2.424-3.376-4.798-6.972-5.6-11.19a1.785 1.785 0 0 1 2.133-2.08l6.283 1.353c-2.722-4.896-5.36-9.928-6.786-15.634a1.796 1.796 0 0 1-.046-.268c-1.788-19.332 4.602-35.51 4.277-54.301l-.069.026c-9.384 9.574-20.368 21.317-35.605 21.544-8.53.757-14.708-5.04-18.122-11.297a1.758 1.758 0 0 1-.06-.117c-1.898-4.178-3.074-9.187-2.93-14.14.143-4.954 1.64-9.9 5.244-13.6a1.785 1.785 0 0 1 2.507-.054c3.569 3.38 7.115 7.94 10.889 10.56v.004c6.919 4.851 15.135 8.17 24.357 6.16a1.512 1.512 0 0 1 .12-.023c4.303-.635 7.09-2.923 9.396-6.084 2.306-3.157 3.978-7.16 5.71-10.802 7.44-15.729.45-34.179-1.04-51.696-3.69-11.929.071-24.98-1.793-36.512l.034.159c-1.588-6.125-.321-12.73-1.614-17.899l.026.09c-.797-2.59-1.017-5.259-1.55-7.459a9.619 9.619 0 0 0-1.353-3.18c-.379.836-.828 1.736-1.475 2.598-1.134 1.505-3.528.454-3.184-1.4.507-2.71.783-6.49.042-9.005a1.788 1.788 0 0 1-.076-.503c0-10.621-2.457-21.967-4.257-33.106-1.244-2.416-1.61-4.995-1.92-7.335a30.928 30.928 0 0 0-.658-3.633l-1.006 1.444a1.785 1.785 0 0 1-3.252-1.051c.19-9.736 2.45-20.152.923-29.892-2.117-6.95-2.874-13.917-6.552-19.237 1.08 4.911.756 8.995.25 13.58l.01-.196c0 6.825-2.627 12.443-5.293 17.79-1.248 5.455-3.044 10.96-5.898 15.88-4.673 15.092-10.424 30.05-9.384 45.994a1.74 1.74 0 0 1-.008.314c-1.361 12.25 3.607 24.103 7.57 35.786 8.366 17.26 17.516 33.76 23.826 52.343a1.796 1.796 0 0 1 .05.166c1.587 6.727 4.43 15.971.17 23.476a1.785 1.785 0 0 1-.288.378c-.813.813-1.505 1.921-2.609 2.965a6.2 6.2 0 0 1-4.93 1.663 1.788 1.788 0 0 1-.386-.087c-3.384-1.164-5.41-3.697-6.768-6.265-1.357-2.57-2.211-5.244-3.334-7.252a1.785 1.785 0 0 1-.205-.57c-2.306-13.483-5.49-26.568-10.246-39.098-4.775-9.18-9.754-17.025-14.432-25.84a1.785 1.785 0 0 1-.185-.555c-.624-3.895-3.535-7.842-3.95-12.832-.148-1.77 2.101-2.647 3.19-1.24.288.366.583.537.877.779a2514 2514 0 0 1-3.478-12.443 1.785 1.785 0 0 1-.057-.337c-.718-9.014-1.123-20.235 1.305-29.57 2.677-10.953 8.204-20.704 12.908-30.595 4.7-9.887 8.571-19.86 8.318-31.32-1.07-9.756-1.3-20.834-4.537-29.87l.068.166c-2.023-4.234-2.208-8.67-4.47-11.687a1.788 1.788 0 0 1-.18-.302c-1.24-2.59-.7-5.097.03-6.995.733-1.905 1.52-3.433 1.584-4.771a1.811 1.811 0 0 1 .068-.405c1.97-6.904.514-14.67-2.363-21.165-4.133-6.48-11.471-8.242-19.396-8.076z" fill="#fff"/>
  <path d="M259.05 174.21c-2.306 5.059-4.964 10.587-6.367 16.235-1.52 6.125-1.558 12.273 1.917 18.008 3.074 4.775 9.49 7.577 15.918 7.233a.601.601 0 0 1 .045 0c8.016.151 14.201-3.981 21.578-6.326v-7.815c-.733-.166-1.474-.329-2.22-.487-5.727-1.222-11.644-2.345-16.597-5.883l-.05-.03-.037-.023c-8.477-4.212-11.354-13.34-14.186-20.912z" fill="#f00000"/>
  <path d="M365.46 150.06c-2.752.06-5.513.352-8.152.756-2.858 1.43-4.397 1.214-7.66 3.668-17.27-5.377-31.63-7.676-42.293 8.374-7.91-.616-13.64-.896-20.345-.597-5.81 1.123-10.968 1.72-12.34 4.121-2.152 8.224.71 16.628 2.143 24.682 6.798 10.02 20.568 3.395 28.8 10.55.536 1.61 2.147 3.761.355 5.368-8.942-7.868-22.716-5.369-32.376-12.34-8.765-4.296-11.45-14.138-14.485-22.006-4.832 10.73-12.167 24.33-5.014 36.134 3.221 5.01 9.842 7.872 16.462 7.516 9.301.174 16.099-5.19 24.685-7.157 2.862.182 6.08 0 7.69 2.862-.536.715-1.606.356-2.506.537-6.798-1.788-13.237 1.789-19.32 4.292-2.681 3.217-1.777 6.854-.715 11.445 12.553 4.85 27.185 8.752 39.178 12.704l-1.61 1.07c-10.376 2.329-21.114 4.295-32.025 5.546-1.247.182-3.036.182-4.11.896-8.767-13.415-28.798-18.96-32.553-36.316-6.262-12.7 7.15-24.859.71-36.845 1.611-2.866 3.044-6.439 1.789-10.019-2.322-5.369-8.231-7.868-13.415-9.656-.537 4.828-4.295 8.227-4.47 13.055-.362-.533-.899-.178-1.254-.715 1.255-2.684.536-5.902-.719-8.408-2.813-5.006-17.407-12.537-20.03-6.799 3.754 5.902-2.863 12.522 2.861 17.714-1.966-.362-3.932-2.506-6.26-2.684-4.833-1.074-8.765 1.43-12.523 3.4 2.684 4.113 2.325 9.655 3.936 14.128 4.65 1.788-.537 4.828.36 7.513-.182 5.187.532 10.915 5.009 14.133 1.966 3.399.174 7.153 0 10.73-2.148-2.326-5.37-1.966-7.517-4.829-3.402 6.443-2.862 14.492-.181 21.11 1.792 3.758 6.265 5.365 10.197 6.083 1.61-.36 3.403-.182 4.477-1.788l.355.355c1.07 2.148 4.65 1.607 6.976 1.433 1.433-.182 3.221-1.966 4.65-.355.896 3.217 3.755 5.898 4.473 8.938 6.972 10.556 10.375 22.36 15.74 33.63.537 3.222 4.832 6.262 2.148 9.66-4.473 8.05-10.292 14.72-12.44 23.484 3.267.008 5.634.064 10.28-.185-4.294 7.871-13.043 14.269-18.412 20.708-5.044 4.211-17.638 11.883-24.22 17.857-6.107-1.456-9.589-2.295-14.061-.681-6.776 3.21-11.985 7.153-17.173 11.804-1.966 2.325-2.326 5.184-3.755 7.69 0 4.65-3.043 10.552.715 14.133l4.469-3.758c1.433-.714 3.043-1.788 4.117 0l-.714.719c-5.725 1.606-7.69 7.69-8.583 12.696.892 5.368 2.68 10.738 6.794 14.488 3.577-3.214 8.05-5.543 10.73-9.301 2.866-.356 5.37 1.966 8.41 0 .717.714 0 2.147.177 3.22 1.792 9.302 8.053 19.858 17.173 22.898 3.758-2.503 3.403-6.798 4.476-10.556 3.04-3.04-.718-9.657 5.006-11.09 4.473-4.65.896-11.984-.718-16.994.363-1.248 1.251-2.5 2.684-2.685 4.65 1.611 9.483 5.188 12.704 8.768 2.144.896 3.758-.537 5.365-1.429 4.47 2.503 5.188 7.872 6.084 11.804l3.04-1.607c4.291-4.832 6.975-10.912 7.871-17.532-.181-4.113-1.97-8.053-6.087-9.3 1.789-4.651-3.036-6.799-4.11-10.198 2.144-1.433 5.362-3.221 7.868-3.932-.177 3.932-1.429 7.513-1.429 11.09 6.617-5.547 13.596-10.198 21.11-13.775 2.861-1.437 4.113 2.325 5.542 3.395 11.607 21.933 20.576 26.95 39.178 36.493-24.79 2.155-47.178 10.061-61.179 27.903-8.227 8.409-14.488 19.502-13.233 32.38-.54 10.193 4.824 18.247 11.804 24.326.718 4.295-1.251 7.872-1.97 11.808-4.65 13.774-8.05 29.34-20.035 38.46-6.083 2.143-14.31 2.684-19.494-1.434-5.369-1.073-12.878-4.65-17.173.537-.714-1.247-1.89-2.283-3.5-2.824-5.007-1.966-9.026.325-12.78 3.183-3.399 3.58-8.772 7.343-8.59 11.638 1.607 0 5.369-1.262 6.98-.73-1.074.897-3.214 1.437-4.47 2.867-4.295 5.187-7.512 12.34-4.113 18.96 5.35-2.744 15.184-3.258 20.927-3.931-4.47 3.04-7.335 8.045-8.764 13.055-1.615 6.08 1.247 11.63 4.65 15.918 4.65-5.721 13.055-4.47 16.814-11.09l.537.537c6.265 5.547 10.375-3.754 15.025-6.08 3.221-1.965 7.335-.358 10.556.538 3.936 1.966 4.696 4.302 7.199 7.524 6.409 3.554 16.25 6.484 19.683 1.739 3.883 3.58 9.898 4.336 15.229 7.38 5.444-8.722-3.539-27.132-11.018-28.87 1.16-14.009 6.012-5.026 14.163-4.769l6.439-22.897.718-.714 10.375 4.469 1.248-16.991c1.974.714 3.758 3.04 6.087 3.576 2.859-5.187 1.43-12.163 3.04-17.706 2.325-11.449 11.445-19.857 15.562-29.877l-1.074-1.073c-4.828-1.426-10.019-2.503-13.952-5.543-2.684-4.118-1.074-10.193.53-14.488 2.873-4.832 6.805-9.123 11.274-12.7 4.122-1.789 8.228-3.755 12.522-3.936-3.754 7.335-5.187 16.099-6.26 24.326.665 11.721 4.533 31.922 10.914 39.533 5.006 5.902 12.52 11.271 20.031 14.488 4.832 2.325 10.193 4.65 15.562 4.114 6.087 2.684 13.237.359 18.25-3.214.889-.9 2.5-.54 3.036.53a18.681 18.681 0 0 1-4.65 17.531c-6.976 3.94-7.335 18.424-18.424 16.454-10.29 2.07-32.52-6.246-38.633 2.507-1.437-.711-3.044-.896-4.832-.711-5.369-.185-7.157 5.002-10.197 8.401-1.789 3.222-2.685 8.054-.178 11.093.892-.714 2.325-1.251 3.403-.896-4.84 4.832-7.339 13.063-4.121 19.68.896.71 1.607-.896 2.684-.714 4.114-2.685 10.197-1.43 15.025-2.863.896-.359 1.792-1.077 2.507-1.251-2.507 4.828-5.191 10.193-4.118 15.74 1.967-.36 4.118 0 5.729-1.255 6.975.536 13.77-1.248 19.672-3.933 6.62 5.543 12.348-2.862 18.25-4.65 6.083-5.728 9.66 5.01 16.099 3.395 1.429-.892 3.04-1.07 3.932-2.684 4.476 1.255 8.053 5.728 10.556 9.482 6.23-3.38 10.273-8.374 10.734-14.307-.9-4.295-5.55-7.338-9.301-8.768 4.824-5.724 10.193-10.019 14.488-15.388 3.213-2.499 7.868-1.07 11.626-2.143 1.255-.537 3.217-.711 3.573-2.326-2.859-3.754-3.214-9.12-3.214-13.952l1.607.711c3.395-.53 7.335.363 10.197-1.607-3.044-6.972-10.38-13.055-11.804-20.568l9.12 1.966.532-.533c-3.217-5.728-6.439-11.452-8.045-17.89-1.789-19.32 5.01-35.776 4.295-55.633l-.36-.359c-.892-.537-1.788.182-2.506.36-9.479 9.66-20.213 21.108-34.701 21.285-7.694.719-13.233-4.469-16.458-10.375-3.577-7.864-4.473-19.139 1.966-25.756 3.399 3.218 6.976 7.865 11.093 10.73 7.153 5.01 15.918 8.587 25.759 6.44 9.66-1.43 13.059-10.73 16.458-17.888 7.872-16.636.53-35.597-.896-52.77-3.206-12.405 3.225-40.996-5.762-67.962-.719 1.43-4.076 3.57-5.146 4.995.771-20.83-3.49-43.495-6.533-58.623l-3.785 7.044c1.055-16.628.246-39.957-8.11-54.135-1.777 17.483-4.401 35.26-12.704 49.549-4.65 15.025-10.55 30.228-9.479 46.687-1.43 12.878 3.755 25.04 7.69 36.667 8.41 17.354 17.533 33.809 23.794 52.237 1.606 6.794 4.113 15.562.355 22.183-1.966 1.966-2.858 4.469-6.08 4.113-5.724-1.97-6.616-8.23-9.123-12.704-2.33-13.592-5.543-26.829-10.371-39.529-4.84-9.3-9.842-17.173-14.492-25.94-.715-4.474-3.577-8.406-3.932-12.7 1.248 1.61 3.036 2.684 4.828 2.147-1.433-5.01-2.862-10.193-4.295-15.381-.715-8.946-1.078-20.04 1.248-28.984 5.195-21.286 21.827-38.637 21.29-62.423.831-15.532-4.046-31.253-10.492-47.348 4.677-8.545 4.941-18.254.476-28.5-4.56-7.248-12.745-9.158-21.007-8.98zm4.367 7.743c3.285-.102 6.083.473 7.694 1.955 6.28 6.386 3.044 19.317-1.43 26.829 4.992 10.776 9.76 23.952 11.094 34.883 2.503 20.568-4.477 40.425-14.848 57.061-1.433 4.65-5.01 8.946-6.261 13.955-2.148 6.439-.186 14.133-1.793 20.931-3.213-5.479-6.552-15.415-11.089-18.247-5.709 13.195-11.539 26.773-19.854 37.563-1.251-6.617-1.251-12.7-3.58-18.961-3.758 2.862-7.69 9.301-11.09 12.522-6.975 4.295-12.877 9.838-20.75 11.808 1.264-12.22.371-33.155-10.911-37.922-7.69-3.044-16.995-2.507-24.863-.537-3.04.715-5.01 2.685-7.335 4.47 2.325-3.396-.718-8.406 1.788-11.805 4.295-10.738 12.163-21.823 23.434-27.366.178-.537-.359-.718-.537-1.074l-8.05-.896c4.651-4.473 13.136-6.563 19.042-7.993 9.479-1.701 28.705-7.66 37.813-12.072 18.232-2.7 33.01-9.157 38.667-26.088-.533-.896-.579-3.402-1.252-2.684-7.731 8.303-21.959 17.6-35.238 19.146-13.509 1.57-29.427-5.86-39.355-10.738-.181-.715-.502-3.214.394-3.391 7.554 1.096 15.54-.242 21.249-1.796l1.429-1.789c.896-8.942 1.614-19.139-6.258-24.149-7.985-1.334-13.592-2.862-21.286-2.684-3.04-4.65-3.932-10.193-3.04-15.918 7.691-3.755 18.425-3.932 27.549-2.685 1.417-4.064 3.293-8.174 8.227-10.375 6.48-3.924 26.512 1.052 29.158 5.902 4.484-4.159 14.057-7.633 21.283-7.856zm-149.54.526c2.325 1.788 7.512 3.754 6.794 8.053-1.429.889-3.036 1.248-4.65.885-1.607-2.144-.711-6.258-2.144-8.938zm21.464 4.287c1.966 2.685 4.832 5.906 3.403 9.483-.541.714-.896 1.607-1.615 2.147-1.788.178-3.217-.896-4.113-1.966-.537-3.402 3.58-6.083 2.325-9.664zm80.677 7.335-.718.896 3.758 10.908c5.546-2.143 10.73-5.18 16.099-7.69zm-118.06 5.014c3.04 1.248 7.509 1.248 8.582 5.18-.71 2.147-3.036 2.684-5.005 3.047-1.967-2.325-1.967-5.547-3.577-8.227zm24.432.975c.338.014.669.107.964.273 1.61 1.788 2.151 3.932 3.403 6.08.892 3.402-.54 8.59 3.036 10.378 2.507-3.04 1.97-7.69 4.295-10.552 1.433-.718 1.97.715 2.684 1.43 1.074 5.19-2.325 9.66-3.576 14.67-3.04 11.984 3.221 23.433 9.838 31.842 8.586 6.258 14.848 15.562 20.39 24.682-6.258 4.65-11.267 8.41-16.454 13.778l.537.537 10.375.711c-2.326 3.577-6.799 6.261-9.48 9.123-5.546-7.69-8.23-15.918-13.954-23.608-.36-1.792-1.61-3.58-2.503-5.368-4.114-5.725-5.37-13.06-10.38-18.07-1.788-1.61-3.931-4.113-6.257-2.147-1.614.537-3.402 1.788-5.01.718-2.143-3.576-.536-8.23-4.113-10.738 1.07-8.582-1.074-16.99-1.43-25.578.716-3.217 1.967-5.542 5.188-6.794 2.863 0 5.184.715 7.335 2.148 1.43-.541 1.966-2.33 2.144-3.759 0-3.04-4.295-7.512 0-9.304.938 0 1.978-.503 2.968-.454zm30.126 14.05c3.592 12.21 21.192 16.057 30.41 15.562-7.872 3.396-20.04 6.976-27.73.719-2.502-3.403-4.472-6.98-4.113-11.456zm-57.421 33.09c1.61 3.759 8.053 1.789 6.616 6.798l1.074 1.967c-2.858-1.252-6.08-2.148-7.335-5.543zm205.71 55.636c-1.789 7.51-2.325 14.844-2.325 23.253-.36 3.04-.537 6.798.181 9.838 3.577-7.868 5.49-20.198 11.392-27.177 3.61 15.434 3.456 34.54 2.382 48.104-1.792 8.587-3.403 17.706-1.437 26.474.182.182.545.182.719.182 3.221-6.443 4.295-14.133 8.053-20.04 6.08 19.144-5.191 37.927 2.144 57.066 1.61 15.025 9.3 35.064-2.862 47.586-4.65 3.214-11.09 5.898-16.991 3.395-13.033-5.274-16.825-12.227-22.005-23.075-11.985 11.445-20.572 30.054-13.233 46.868 3.399 8.409 10.549 14.129 18.78 16.81 12.148-1.2 28.61-2.97 35.593-12.341-1.961 11.852-8.468 28.925 0 44.365-1.966-.36-3.4-1.763-5.543-2.144-.715 8.046.359 18.776 6.802 24.86-3.508-.31-5.728.895-8.768-.175-1.074 1.607 0 3.395 0 5.006.714 3.395 4.832 6.08 1.966 9.656-8.764 2.326-13.955 9.483-21.286 14.137-2.862 1.789-7.513 4.47-6.258 9.12-2.325 3.04-4.476 9.123-9.66 8.405-4.473-2.859-6.439-7.509-10.738-10.73-2.144 4.828-4.65 9.838-9.834 12.167-2.684.537-5.187 3.214-8.05 2.325-2.684-4.65-6.26-11.985-13.417-11.456-2.685-1.425-2.862-4.643-3.396-7.687 2.677-3.04-.718-9.66 3.933-11.093 11.449-1.966 22.876 4.528 33.09.363 5.311-2.165 7.694-8.767 12.17-12.167 11.733-11.679 13.31-29.419 6.617-44.36-5.906 2.143-10.912 6.616-17.169 8.045-10.379.896-19.582-1.697-27.018-7.335-8.522-6.461-13.952-16.636-16.454-27.544-2.147-6.798-.896-14.67-1.248-21.646 1.43-11.267 6.791-21.109 15.558-28.977 1.789-3.043 6.262-3.758 5.902-7.512l-3.754-11.093c-6.798-7.154-14.133-13.233-23.253-16.991-4.65-2.862-10.2-5.192-15.207-7.694-7.153-4.651-15.025-9.301-18.602-16.991-3.58-3.403-5.547-7.335-8.227-11.45-.182-1.247-.896-2.862 0-3.932 3.217-4.476 8.764-4.295 13.233-5.905 11.07-4.7 18.16-5.785 26.833-12.704.892 4.117 3.085 8.23 3.932 11.985 6.617-3.218 10.197-9.838 14.488-15.918 3.403-5.01 6.98-9.838 9.838-15.384 6.087 16.28 12.17 32.554 20.576 47.76 11.449 16.995 15.562 37.745 18.78 58.49 5.191 8.07 10.17 17.609 19.502 19.862 4.828-.178 9.66-3.58 11.985-7.694 3.395-9.838 3.233-20.21-.9-32.017-6.012-16.288-6.734-21.457-11.086-31.306-5.013-7.872-10.738-16.814-13.063-26.115-4.828-9.66-4.65-21.286-5.906-32.38-.355-17.528 5.55-32.913 10.915-48.297 1.607-2.685 3.382-7.225 4.456-9.91-.128 8.912-.536 17.872-2.13 25.117zm-133.92 26.05c.62.03 1.255.106 1.902.242l8.405 5.006c5.187 5.01 4.832 12.348 6.083 18.965 1.607 9.479-5.724 13.952-11.626 19.32-5.01 1.966-9.3 5.543-14.133 7.868.182-2.325.892-5.006 0-7.157-6.439 3.758-12.878 8.053-20.03 10.38-3.581 3.039-8.054 4.468-11.63 7.69.536 2.862 4.472 2.862 5.727 5.19 1.248 1.07 1.248 3.396 1.785 5.007-.36 2.143-2.503 4.113-4.114 5.369-4.65 0-6.976-4.3-10.019-7.335-.892-.897-2.325-1.256-3.399-.719-4.65 1.966-9.478 6.798-10.193 12.163-.896 4.473 3.403 13.418-3.576 15.562-2.148.537-4.832 1.433-6.976.356-3.403-2.144-2.33-6.976-3.94-10.19-3.754.355-8.764 4.469-11.808 0-1.788-3.403-1.248-8.41 1.437-11.093 8.405-3.933-1.792-17.173 7.686-19.498l10.915-1.252c24.504-11.267 37.741-33.631 56.347-51.337 3.13-2.507 6.81-4.734 11.154-4.537zm-90.76 62.85.537 1.252c-.537 1.788 1.074 4.113-.537 5.728-1.252 1.788-2.862 0-4.295-.182l-6.08 1.967c1.966-4.473 5.72-7.868 10.375-8.765zm65.292 16.458c.714.719 1.966.893 2.144 2.144.537 2.862-.893 5.547-1.43 8.227 0-2.499-1.61-4.824-3.932-6.076.534-1.97 1.966-3.043 3.214-4.295zm-70.84 7.868c1.434 1.252 1.434 3.759 3.222 4.829-2.144 1.077-4.65 2.865-6.08 4.832-.536-3.044.534-6.976 2.859-9.66zm156.15 15.54c6.542.378 10.693 6.715 14.153 11.116-2.685 5.184-5.902 9.838-10.738 12.163-18.243 3.4-40.425 10.375-46.505 29.695-1.966 8.583 2.862 15.558 8.945 20.035 1.426 1.248 3.755 1.248 4.47 3.04-.893 5.365-4.114 9.66-5.543 14.848-2.866 3.218-2.685 8.764-3.4 12.522-2.328-1.255-3.754-3.94-6.26-5.01-3.759 4.829-1.078 13.055-2.503 18.247-3.044-.363-6.976-4.65-8.231.715-2.863 6.261-3.04 13.596-6.262 19.68-2.143.178-4.828-3.403-7.335-1.792-4.828 3.758-7.512 8.764-11.985 13.059-4.113 5.724 2.507 13.237-3.932 17.887a3.002 3.002 0 0 1-3.403 1.437c-7.334-2.689-13.415-10.556-22.712-7.517-4.113 1.074-9.123 0-12.704 2.325-4.113-.177-5.902-4.472-9.482-5.546-4.47-6.617-1.61-16.458 2.503-22.538 5.728-5.191 9.127 4.469 14.67 4.113 9.66 7.69 17.354-4.113 26.833-3.932 5.365-9.664 8.586-20.576 13.955-30.414 3.577-8.227 6.972-16.636 9.3-25.396.893-5.546-5.013-7.698-7.334-11.985-5.724-8.408-3.577-20.039-.896-28.98 7.694-16.459 27.907-27.193 46.15-32.025 7.872-3.04 16.458-4.469 25.404-5.539a10.89 10.89 0 0 1 2.843-.204zm-130.75 3.422h6.799c-1.433 2.325-1.252 5.01-1.97 7.694-2.684-.718-3.754-3.758-5.01-6.261zm-11.882 126.13c1.834.185 2.181.601 2.405 1.943.15.904.4 4.48-.31 5.021-2.98-1.07-11.305-1.07-14.64-.582 1.202-1.852 6.873-6.129 12.54-6.378zm-4.575 11.936c1.357.004 5.513.904 6.617 3.07.748 1.46.6 3.392-.942 4.828-4.291.356-13.063 3.456-16.817 4.17.174-5.085 7.067-12.075 11.142-12.068zm142.52 13.243c1.664.44 2.188 1.942 2.635 3.73.163 1.25.293 2.496-1.143 2.852-2.685 1.248-8.03 1.43-14.374 3.56.304-5.215 5.797-9.254 7.457-9.766 2.052-.539 4.276-.64 5.424-.376zm-133.39 8.07c2.325.718 5.04 4.416 5.755 6.745-1.607 4.291-8.076 6.05-11.297 8.904-.893-4.65 1.606-12.787 5.542-15.65zm66.09.17c3.773 1.777 8.552 10.356 7.932 14.734l-9.754-5.611c.786-2.805 1.391-6.299 1.822-9.123zm67.89 6.631s2.492 2.822 3.841 5.69c-3.04 2.324-11.137 1.935-14.536 3.902 1.248-3.396 3.715-9.725 10.695-9.591zm73.289 9.218c5.274 3.002 7.017 8.988 3.16 13.576 0 0-5.81-5.307-8.676-7.439 2.815-1.957 4.132-4.65 5.52-6.136zm-57.908 3.301c2.507.718 3.58 2.684 4.477 4.832-3.933 1.966-4.911 5.07-14.05 7.314.063-7.96 5.072-10.53 9.573-12.146z"/>

</svg>
