<?xml version="1.0" encoding="utf-8"?>
<svg version="1.1" width="603px" height="763px" viewBox="0 0 603 763" xmlns="http://www.w3.org/2000/svg" xmlns:xlink="http://www.w3.org/1999/xlink">
  <clipPath id="m">
    <path id="s" d="M1.5,1.5v460c0,165.686 134.314,300 300,300c165.685,0 300-134.314 300-300V1.5H1.5z"/>
  </clipPath>
  <g id="fdl">
    <path d="m312.71 685.25c14.274 3.064 18.221-10.729 18.221-10.729-20.042 7.053-19.131-15.637-15.791-27.594 3.341-11.959 17.578-22.781 25.509-13.797 7.93 8.982-0.609 19.011-0.609 19.011s29.456-7.053 29.456-30.968-25.265-32.308-43.422-18.396c-8.808 6.742-20.348 19.313-20.348 52.428-1e-3 10.425 0.608 28.205 6.984 30.045z"/>
    <path d="m290.28 685.25c-14.274 3.064-18.219-10.729-18.219-10.729 20.041 7.053 19.13-15.637 15.792-27.594-3.341-11.959-17.579-22.781-25.509-13.797-7.929 8.982 0.608 19.011 0.608 19.011s-29.455-7.053-29.455-30.968 25.262-32.308 43.423-18.396c8.806 6.742 20.346 19.313 20.346 52.428 0 10.425-0.608 28.205-6.986 30.045z"/>
    <path d="m284.22 591.36c0-17.675 12.457-26.563 17.275-48.46 4.819 21.897 17.274 30.784 17.274 48.46 0 26.577-12.913 33.385-12.913 62.794 0 22.447 6.264 22.131 6.264 30.669 0 9.169-6.89 8.853-10.625 21.55-3.737-12.697-10.626-12.383-10.626-21.55 0-8.538 6.263-8.224 6.263-30.669 1e-3 -29.406-12.912-36.217-12.912-62.794z"/>
    <path d="m322.13 654.15c0-2.64-2.118-4.778-4.734-4.778h-31.789c-2.612 0-4.732 2.14-4.732 4.778v0c0 2.639 2.119 4.778 4.732 4.778h31.789c2.616 0 4.734-2.14 4.734-4.778v0z"/>
  </g>
  <radialGradient id="a" cx="858.04" cy="579.93" r="300" gradientTransform="matrix(1.215 0 0 1.2667 -839.19 -490.49)" gradientUnits="userSpaceOnUse">
    <stop stop-color="#fff" stop-opacity=".31373" offset="0"/>
    <stop stop-color="#fff" stop-opacity=".251" offset=".19"/>
    <stop stop-color="#6b6b6b" stop-opacity=".1255" offset=".6"/>
    <stop stop-opacity=".1255" offset="1"/>
  </radialGradient>
  <use xlink:href="#s" fill="#fff"/>
  <path clip-path="url(#m)" fill="#e20909" stroke="#000" stroke-width="3" d="m0,504.17h603v259H0z"/>
  <g fill="#e20909" stroke="#000" stroke-width="3" stroke-linecap="round" stroke-linejoin="round">
    <use xlink:href="#fdl" fill="#fff"/>
    <use xlink:href="#fdl" y="-490.64"/>
    <use xlink:href="#fdl" x="-200.56" y="-245.36"/>
    <use xlink:href="#fdl" x="200.56" y="-245.36"/>
    <path d="m314.83 377.29v-25.524h-26.58v25.524h-26.58v108.01h24.034v-28.483c0-9.193 7.071-16.646 15.793-16.646s15.793 7.453 15.793 16.646v28.483h24.034v-108.01h-26.494z"/>
    <path d="m248.63 316.99h-24.033v-27.743h-13.046v196.05h50.126v-196.05h-13.047v27.743zm129.78-27.743v27.743h-24.033v-27.743h-13.047v196.05h50.126v-196.05h-13.046z"/>
    <path d="m198.5 504.17h87.207v-18.864h-87.207z m118.79-18.864v18.864h87.207v-18.864z"/>
    <path d="m256.87 274.45h-13.047v-19.975h-14.42v19.975h-13.046v-19.975h-14.42v34.771h69.353v-34.771h-14.42v19.975z m129.78-19.975v19.975h-13.046v-19.975h-14.42v19.975h-13.047v-19.975h-14.42v34.771h69.354v-34.771h-14.421z"/>
  </g>
  <use xlink:href="#s" fill="url(#a)" stroke="#000" stroke-width="3"/>
</svg>
