<?xml version="1.0" encoding="utf-8"?>
<!-- Generator: Adobe Illustrator 27.1.1, SVG Export Plug-In . SVG Version: 6.00 Build 0)  -->
<svg version="1.1" id="Layer_1" xmlns="http://www.w3.org/2000/svg" xmlns:xlink="http://www.w3.org/1999/xlink" x="0px" y="0px"
	 viewBox="0 0 750 900" style="enable-background:new 0 0 750 900;" xml:space="preserve">
<style type="text/css">
	.st0{fill:#009944;}
	.st1{fill:#0093DD;stroke:#231F20;stroke-width:2;stroke-linecap:round;stroke-miterlimit:10;}
	.st2{fill:#FCDB00;stroke:#231F20;stroke-width:2;stroke-linecap:round;stroke-miterlimit:10;}
</style>
<g>
	<path class="st0" d="M6.5,6.3l0,532.9c0,94,38.8,184.2,107.9,250.7c69.1,66.5,162.8,103.9,260.6,103.9
		c97.7,0,191.5-37.4,260.6-103.9c69.1-66.5,107.9-156.7,107.9-250.7l0-532.9H6.5z"/>
	<path d="M375,900c-49.5,0-97.8-9.2-143.5-27.5c-45.7-18.2-86.7-44.5-121.7-78.2c-35-33.7-62.3-73.1-81.3-117.1
		C9.6,633.3,0,586.8,0,539.2L0,0h750v539.2c0,47.6-9.6,94.1-28.5,138.1c-18.9,44-46.3,83.4-81.3,117.1c-35,33.7-75.9,60-121.7,78.2
		C472.8,890.8,424.5,900,375,900z M13,12.5l0,526.6c0,93,37.7,180.5,106,246.3c68.4,65.8,159.3,102,256,102
		c96.7,0,187.6-36.2,256-102c68.4-65.8,106-153.3,106-246.3V12.5H13z"/>
</g>
<g>
	<ellipse class="st1" cx="375" cy="95.9" rx="50" ry="48.4"/>
	<g>
		<ellipse class="st1" cx="325" cy="192.8" rx="50" ry="48.4"/>
		<ellipse class="st1" cx="425" cy="192.8" rx="50" ry="48.4"/>
	</g>
	<g>
		<ellipse class="st1" cx="275" cy="289.7" rx="50" ry="48.4"/>
		<ellipse class="st1" cx="375" cy="289.7" rx="50" ry="48.4"/>
		<ellipse class="st1" cx="475" cy="289.7" rx="50" ry="48.4"/>
	</g>
	<g>
		<ellipse class="st1" cx="225" cy="386.6" rx="50" ry="48.4"/>
		<ellipse class="st1" cx="325" cy="386.6" rx="50" ry="48.4"/>
		<ellipse class="st2" cx="425" cy="386.6" rx="50" ry="48.4"/>
		<ellipse class="st1" cx="525" cy="386.6" rx="50" ry="48.4"/>
	</g>
	<g>
		<ellipse class="st2" cx="225" cy="483.4" rx="50" ry="48.4"/>
		<ellipse class="st2" cx="325" cy="483.4" rx="50" ry="48.4"/>
		<ellipse class="st1" cx="425" cy="483.4" rx="50" ry="48.4"/>
		<ellipse class="st2" cx="525" cy="483.4" rx="50" ry="48.4"/>
	</g>
	<g>
		<ellipse class="st2" cx="275" cy="580.3" rx="50" ry="48.4"/>
		<ellipse class="st2" cx="375" cy="580.3" rx="50" ry="48.4"/>
		<ellipse class="st2" cx="475" cy="580.3" rx="50" ry="48.4"/>
	</g>
	<g>
		<ellipse class="st2" cx="325" cy="677.2" rx="50" ry="48.4"/>
		<ellipse class="st2" cx="425" cy="677.2" rx="50" ry="48.4"/>
	</g>
	<ellipse class="st2" cx="375" cy="774.1" rx="50" ry="48.4"/>
</g>
</svg>
