<svg width="410" height="487" xmlns="http://www.w3.org/2000/svg"><g stroke-width="1.562"><path d="M6.812 7.698v284.71c0 103.19 88.699 186.84 198.12 186.84 109.422 0 198.12-83.65 198.12-186.84V7.698z" fill="#fff"/><path fill="red" d="M6.812 7.698h396.24v226.778H6.812z"/><g stroke-linecap="square"><g fill="red"><g stroke="#000" stroke-width="3.905"><path d="M306.35 421.7s9.162 4.138 14.634 11.389c5.472 7.254 16.226 21.768 20.252 24.253 4.025 2.486 10.184 7.114 5.42 12.466-4.762 5.355-16.645 12.522-22.863 19.924-6.22 7.398-32.4-5.656-67.277-5.022l1.224-3.643 7.223-12.24s10.388-20.955 41.388-47.126zM378.66 501.61s10.164-5.49 21.405-11.301c11.241-5.811 26.157-5.965 25.18 8.48 0 0-6.964 3.375-12.513 9.016zM334.71 594.29s-1.227 4.938-.533 10.682c.694 5.748-.66 16.162-2.67 22.278-2.009 6.112-.69 11.809-.69 11.809s-27.734-9.362-58.614-41.471z" transform="matrix(.6604 0 0 .62046 5.822 6.767)"/><path d="M265.34 598.97s-.482 18.303 24.777 45.374c0 0-3.176-7.945 2.01-11.014 5.186-3.07 12.018-2.724 13.901-7.191 0 0-27.142-19.687-31.356-27.681zM393.73 562.05s22.546 3.142 28.35 4.298c5.803 1.152 14.182 5.381 6.348 16.058-7.83 10.68-23.325 26.556-16.244 46.739 0 0-26.226-.715-47.998-45.494z" transform="matrix(.6604 0 0 .62046 5.822 6.767)"/></g><path d="m59.884 346.879-3.585-2.765s-9.713-3.516-15.411-8.8c-4.18-3.877-2.186-6.63 2.809-8.672 4.4-1.8 12.69-5.395 20.739-7.678 9.215-2.61 22.333-3.548 25.889-4.144 9.574-1.608 27.73-7.264 61.71-8.211 13.475-.377 20.85-.098 22.573-1.917 1.722-1.821 15.498-26.31 34.705-37.06 0 0-20.18 16.224-30.78 35.998-.518.966-2.93 2.532 3.208 2.498 6.137-.036 32.21.6 54.996 5.55 22.782 4.948 40.384 10.724 67.803 9.96 1.773-.05 9.458-3.26 15.127-5.462 5.669-2.201 27.767-16.845 48.954-15.392 0 0-1.89 15.473-8.899 28.169-1.298 2.351-3.092 6.488-3.058 7.712.034 1.224 6.103 13.316 7.603 37.79 0 0-22.492-4.278-39.104-12.94-16.612-8.661-22.98-7.123-32.387-6.86-9.405.26-17.462-.06-42.924 16.312 0 0 9.173 20.721 28.974 26.299 0 0-15.702 2.489-29.789-21.236-.713-1.205-2.146-3.617-5.118-2.58-2.972 1.036-7.371 4.564-49.768 5.746-1.636.046-4.635.128-1.985 2.234 2.651 2.105 23.434 18.415 32.125 21.85 0 0-11.82-1.804-34.37-19.199-3.066-2.366-5.858-4.606-14.968-3.533-9.11 1.072-29.375 3.27-53.81-2.178-24.434-5.448-41.149-7.98-66.984-19.519-25.833-11.537-23.223-20.89-18-24.15 1.116-.697.583 2.813 1.465 3.638 1.272 1.178 4.74 8.446 22.258 8.539z"/></g><g fill="none" stroke="#000" transform="matrix(.6604 0 0 .62046 5.822 6.767)"><path d="M61.615 530.81s3.256-4.714 8.71.769c5.454 5.48 19.98 7.104 27.83 11.999 7.851 4.897 12.932 14.49 10.118 17.653-2.814 3.16-11.576.347-16.065-5.164-4.489-5.513-10.344-7.903-10.344-7.903l-5.428-4.456s-14.708-5.666-23.336-14.183c-6.33-6.249-3.31-10.686 4.253-13.977 6.664-2.901 19.217-8.695 31.404-12.374 13.954-4.208 33.818-5.718 39.202-6.68 14.498-2.59 41.99-11.706 93.443-13.233 20.403-.608 31.57-.158 34.179-3.09 2.608-2.935 23.468-42.404 52.552-59.73 0 0-30.558 26.148-46.607 58.02-.785 1.555-4.438 4.08 4.856 4.025 9.294-.058 48.774.967 83.277 8.944 34.497 7.976 61.15 17.285 102.67 16.052 2.685-.078 14.322-5.253 22.906-8.8 8.583-3.55 42.045-27.15 74.127-24.81 0 0-2.861 24.94-13.474 45.401-1.966 3.79-4.682 10.457-4.632 12.43.052 1.972 9.241 21.461 11.513 60.906 0 0-34.058-6.894-59.213-20.856-25.155-13.959-34.796-11.48-49.04-11.056-14.243.42-26.443-.096-64.998 26.292 0 0 13.89 33.397 43.872 42.385 0 0-23.776 4.012-45.107-34.225-1.08-1.942-3.25-5.83-7.75-4.16-4.5 1.671-11.161 7.357-75.36 9.262-2.477.074-7.017.207-3.004 3.602 4.014 3.392 35.484 29.679 48.644 35.216 0 0-17.898-2.908-52.043-30.943-4.645-3.814-8.872-7.424-22.666-5.695-13.795 1.728-44.481 5.272-81.48-3.51-37-8.781-62.31-12.862-101.43-31.459-39.117-18.595-35.166-33.669-27.257-38.924 1.69-1.123.883 4.535 2.219 5.864 1.923 1.903 7.175 13.617 33.7 13.765" stroke-width="3.905"/><g stroke-width="3.124"><path d="M76.95 529.42s13.149 5.948 26.74 2.38c9.095-2.386 10.704-11.798 14.762-13.975 3.338-1.792 8.351-.46 11.097 5.595 2.748 6.055 10.33 26.313.933 35.517-6.016 5.889-15.063 2.561-15.063 2.561"/><path d="M51.269 552.19s34.24 22.893 56.13 22.242c6.963-.206 10.454-3.694 17.351-6.437 6.894-2.743 18.997-4.373 29.587-18.018 10.592-13.64 2.178-27.988-8.673-34.648-5.262-3.23-10.456-3.921-10.456-3.921"/><path d="M145.66 515.33c9.744 5.8 18.455 16.713 18.44 22.766-.018 6.782-1.08 14.051-7.284 20.763l.201 8.668M47.436 532.53s-8.08 2.93-4.035 10.094M52.36 544.67s18.578 8.788 28.137 8.503c6.972-.204 11.573 7.624 17.829 9.636M108.89 515.13s4.233 12.942-10.616 17.083"/><path d="M161.78 539.01s1.855 15.375-17.867 29.368c-23.093 16.387-33.718 14.359-47.827 8.971"/></g><ellipse cx="95.282" cy="521.58" rx="9.575" ry="10.175" stroke-width="4.036"/><g stroke-width="3.124"><path d="M158.46 520.1s3.919 11.42 41.768 15.788c37.849 4.373 103.36-1.14 245.6 2.053M285.63 603.38s20.397 16.02 44.851 26.728M293.43 602.41s14.671 10.702 38.827 20.824M302.77 601.84s18.471 11.773 30.846 14.82M313.23 600.93s10.359 6.226 21.171 8.278M325.35 599.68s2.708 2 8.296 1.982"/></g><path d="M144.32 572.74s1.743-2.322 5.01-2.942c10.942-2.066 70.243-27.024 79.858-21.028 4.004 2.5 2.658 13.7-4.169 22.448-6.827 8.746-19.824 26.222-47.532 20.938-27.709-5.281-22.818-12.753-22.818-12.753s-5.294.046-4.177-2.84c.615-1.586 2.215-3.202 7.585-4.931 5.367-1.73 33.01-15.388 65.809-22.443 2.863-.615 5.301-.418 5.301-.418" stroke-width="3.905"/><g stroke-width="3.124"><path d="M159.98 581.21s32.821 3.145 47.552 6.37M160.04 583.5s23.789 3.644 34.903 8.58M160.03 579.44s36.037-1.82 55.527 2.179M160.01 578.56s45.785-8.403 62.879-4.941M159.36 577.48s50.019-12.934 68.704-11.796M158.56 576.22s56.217-19.319 71.94-16.327"/><path d="M158.56 576.22s51.331-23.799 72.412-22.979M373.48 586.81s15.789 26.703 36.994 36.096M377.82 584.67s11.198 19.491 32.6 28.432M381.75 582.78s8.974 14.431 31.391 22.232M385.25 580.22s10.189 13.058 31.482 17.773M389.17 577.88s16.883 12.417 31.39 14.214M393.3 575.75s18.51 10.587 30.894 11.333M397.65 573.62s14.616 8.939 30.79 8.785M401.78 571.49s13.209 8.294 28.473 6.949M405.91 568.92s11.705 6.777 25.52 6.145M410.24 566.34s11.448 5.004 20.034 4.752M263.98 479.42s17.531-30.265 46.539-55.029M268.96 478.75s22.549-35.903 46.317-50.772M274.12 478.77s23.401-35.22 45.939-46.157M279.78 478.42s23.471-32.565 44.242-40.973M285.62 478.96s16.845-24.759 41.685-36.826M291.14 479.51s17.088-21.755 40.121-32.886M297.32 480.38s18.112-20.899 37.562-28.91M303.66 480.37s15.386-16.744 34.993-25.117M309.84 481.07s12.657-12.942 32.898-22.574M316.68 481.4s14.167-12.461 29.642-19.649M322.87 482.64s16.316-13.234 25.03-17.563M483.87 500.11s26.604-20.36 64.902-24.682M488.16 505.18s37.476-18.358 59.456-21.617M493.43 572.06s21.944 11.476 49.106 18.778M494.81 566.59s31.208 10.524 46.765 15.037M491.03 511.72s35.396-13.574 54.522-18.568M491.79 517.1s43.143-12.385 50.576-13.346M491.5 521.96s41.416-7.965 46.965-8.131M490.65 526.06l42.38-1.2M489.21 530.38l42.81 4.23M487.21 535.13l47.72 9.22M495.07 560.11l45.61 12.3M491.99 550.48l47.36 12.71M487.4 541.37l50.09 12.32"/></g></g><path d="M68.833 327.446a3.107 3.107 0 0 0-3.023 3.193 3.108 3.108 0 0 0 3.197 3.016 3.107 3.107 0 0 0 3.024-3.191 3.11 3.11 0 0 0-3.198-3.018z"/><path d="M1.5 367h600" fill="none" stroke="#000" stroke-width="4.687" transform="matrix(.6604 0 0 .62046 5.822 6.767)"/><path transform="matrix(.6604 0 0 .62046 5.82 6.767)" fill="#fff" stroke="#000" stroke-width="4.374" d="M1.501 218.89H266.86V367h69.28V218.89H601.5v-69.28H336.14V1.5h-69.28v148.11H1.501z"/></g></g><path d="M6.951 7.698v273.55c0 109.38 88.67 198.05 198.05 198.05s198.05-88.669 198.05-198.05V7.698z" fill="none" stroke="#000" stroke-linecap="square" stroke-width="10"/></svg>