<svg width="410" height="487" xmlns="http://www.w3.org/2000/svg"><g stroke-width="1.563"><path d="M6.951 7.698v284.527c0 103.122 88.667 186.719 198.051 186.719 109.384 0 198.051-83.597 198.051-186.72V7.699z" fill="#f00000"/><path d="M205.002 478.944c109.384 0 198.051-83.597 198.051-186.72V7.699h-198.05z" fill="#1c63b7"/><g><g fill="#fcdb00" stroke="#000" stroke-linecap="square" stroke-width="4.689"><path d="M459.02 340.04c7.146-25.569 25.96-40.746 65.18-69.064l-3.784-5.537c-26.061 17.934-47.655 32.515-58.67 47.788a83.326 83.326 0 0 0-3.392 5.107c-1.106-36.56-2.145-73.279-2.939-104.64 1.403-17.377 7.748-35.566 32.023-47.285l-2.403-4.978c-15.743 7.601-24.919 17.446-30.211 27.946-.577-24.851-.925-44.317-.925-54.551h-4.791c0 10.234-.349 29.7-.925 54.551-5.293-10.5-14.469-20.346-30.212-27.946l-2.402 4.978c24.274 11.719 30.619 29.907 32.022 47.285-.795 31.364-1.833 68.083-2.939 104.64a82.868 82.868 0 0 0-3.392-5.107c-11.014-15.273-32.609-29.854-58.67-47.788l-3.784 5.537c39.221 28.319 58.034 43.496 65.18 69.064-2.104 67.734-4.33 131.09-5.548 154.16-1.451 27.484-4.063 40.549-14.806 60.582 0 0 7.229 8.589 27.871 8.589s27.87-8.589 27.87-8.589c-10.743-20.033-13.354-33.098-14.806-60.582-1.216-23.072-3.443-86.429-5.547-154.16z" transform="matrix(.66017 0 0 .62006 5.96 6.768)"/><path d="M334.02 331.7s-11.687-61.393 49.537-63.001c.001 0 7.368 56.65-49.537 63.001zM383.56 268.7s-6.859-52.332 47.251-57.159c-.001 0 4.064 60.715-47.251 57.159z" transform="matrix(.66017 0 0 .62006 5.96 6.768)"/><path d="M316.24 216.12s-2.032 58.937 67.32 52.586c.001 0 6.732-58.81-67.32-52.586zM422.94 166.07c.058 2.693-64.018 9.907-69.353-50.3.001 0 68.083-8.891 69.353 50.3zM568.98 331.7s11.686-61.393-49.537-63.001c0 0-7.368 56.65 49.537 63.001zM519.44 268.7s6.858-52.332-47.252-57.159c0 0-4.065 60.715 47.252 57.159z" transform="matrix(.66017 0 0 .62006 5.96 6.768)"/><path d="M586.76 216.12s2.032 58.937-67.319 52.586c0 0-6.733-58.81 67.319-52.586zM480.06 166.07c-.058 2.693 64.018 9.907 69.352-50.3-.001 0-68.083-8.891-69.352 50.3zM451.5 145.24c-4.683 0-25.768-17.275-25.768-42.425 0-25.149 16.767-42.424 22.355-51.315 0 0 22.863 16.513 22.863 44.457.001 27.944-14.514 49.283-19.45 49.283zM136.36 163.17c-6.962 0-41.462 21.5-41.462 139s36.424 160.5 41.462 211.5c5.038-51 41.462-94 41.462-211.5s-34.5-139-41.462-139zM163.06 59.504c0-12.887-11.956-23.333-26.705-23.333S109.65 46.618 109.65 59.504c0 7.756 4.335 14.625 11 18.868v66.466h31.409V78.372c6.666-4.243 11.001-11.111 11.001-18.868z" transform="matrix(.66017 0 0 .62006 5.96 6.768)"/><path d="M217.57 137.17H55.146c-13.669 0-24.75 10.409-24.75 23.25s11.081 23.25 24.75 23.25c10.619 0 19.676-6.282 23.189-15.106h25.167c23.356 0 32.856 32.856 32.856 32.856s9.5-32.856 32.856-32.856h25.167c3.513 8.824 12.57 15.106 23.189 15.106 13.669 0 24.75-10.409 24.75-23.25s-11.081-23.25-24.75-23.25z" transform="matrix(.66017 0 0 .62006 5.96 6.768)"/></g><g fill="none" stroke="#000" stroke-width="4.689"><g stroke-linecap="square"><path d="M133.93 137.17c8.572-5.095 18.134-10.183 18.134-15.333M120.65 127.9c0-9.333 31.409-18.465 31.409-27.799M120.65 106.17c0-9.333 31.409-18.465 31.409-27.799M75.701 147.46c2.65 3.702 4.196 8.159 4.196 12.956a21.96 21.96 0 0 1-1.561 8.144M197.02 147.46c-2.65 3.702-4.196 8.159-4.196 12.956 0 2.865.552 5.609 1.561 8.144M136.36 439.17V201.42" transform="matrix(.66017 0 0 .62006 5.96 6.768)"/></g><path d="M301.5 761.5V1.5" transform="matrix(.66017 0 0 .62006 5.96 6.768)"/></g><path d="M370.348 344.676c-14.697 0-18.371-8.968-33.068-8.968s-18.372 8.968-33.069 8.968c-14.699 0-18.372-8.968-33.07-8.968s-18.372 8.968-33.07 8.968-18.372-8.968-33.07-8.968c-14.699 0-18.372 8.968-33.07 8.968s-18.372-8.968-33.07-8.968-18.37 8.968-33.068 8.968c-14.699 0-18.372-8.968-33.07-8.968s-18.372 8.968-33.07 8.968c-12.501 0-17.031-6.485-27.15-8.424 3.756 14.65 9.339 28.626 16.519 41.7 2.969 1.088 6.326 1.86 10.631 1.86 14.698 0 18.372-8.967 33.07-8.967s18.371 8.967 33.07 8.967c14.697 0 18.371-8.967 33.069-8.967s18.37 8.967 33.068 8.967c14.699 0 18.372-8.967 33.07-8.967 14.699 0 18.372 8.967 33.07 8.967s18.373-8.967 33.07-8.967c14.7 0 18.372 8.967 33.071 8.967 14.697 0 18.371-8.967 33.069-8.967s18.37 8.967 33.068 8.967c4.307 0 7.663-.772 10.632-1.86 7.18-13.074 12.762-27.05 16.518-41.7-10.117 1.94-14.647 8.424-27.15 8.424z" fill="#fff"/><g stroke="#000" stroke-linecap="square" stroke-width="4.689"><path d="M34.934 598.63c4.497 1.755 9.582 3.001 16.104 3.001 22.264 0 27.829-14.462 50.092-14.462 22.265 0 27.829 14.462 50.094 14.462 22.263 0 27.828-14.462 50.091-14.462s27.828 14.462 50.091 14.462c22.265 0 27.829-14.462 50.094-14.462 22.264 0 27.828 14.462 50.093 14.462s27.829-14.462 50.093-14.462c22.265 0 27.829 14.462 50.094 14.462 22.263 0 27.828-14.462 50.091-14.462s27.828 14.462 50.091 14.462c6.523 0 11.608-1.245 16.104-3.001M593.09 531.38c-15.327 3.127-22.188 13.585-41.127 13.585-22.263 0-27.828-14.462-50.091-14.462s-27.828 14.462-50.091 14.462c-22.265 0-27.829-14.462-50.094-14.462-22.264 0-27.828 14.462-50.093 14.462s-27.829-14.462-50.093-14.462c-22.265 0-27.829 14.462-50.094 14.462-22.263 0-27.828-14.462-50.091-14.462s-27.828 14.462-50.091 14.462c-22.265 0-27.829-14.462-50.094-14.462-22.263 0-27.829 14.462-50.092 14.462-18.937 0-25.799-10.458-41.126-13.585" fill="none" transform="matrix(.66017 0 0 .62006 5.96 6.768)"/><path d="M217.24 467.7c-59.666 0-66 86-66 86 31.334-35.334 95.123-44.822 98.667 17.333 3.497 61.334-52 72.667-52 72.667 48 34.667 91.181-26 91.181-74.667s-33.264-101.33-71.848-101.33zm234.52 86s-6.334-86-66-86c-38.584 0-71.848 52.666-71.848 101.33s43.18 109.33 91.18 74.667c0 0-55.496-11.333-52-72.667 3.545-62.155 67.334-52.667 98.668-17.333z" fill="#fff" transform="matrix(.66017 0 0 .62006 5.96 6.768)"/><path d="M358.58 423.04c0-49.334-48.82-99.334-57.076-152-8.256 52.667-57.077 102.67-57.077 152 0 55.999 44.667 85.999 44.667 146 0 39.333-18.667 58.667-18.667 97.334s31.077 51.333 31.077 51.333 31.076-12.666 31.076-51.333-18.666-58.001-18.666-97.334c0-60 44.666-90 44.666-146z" fill="#fff" transform="matrix(.66017 0 0 .62006 5.96 6.768)"/><path d="M364.74 552.5H238.26c-8.939 0-16.185 8.507-16.185 19s7.246 19 16.185 19h126.48c8.938 0 16.186-8.507 16.186-19s-7.249-19-16.187-19z" fill="#fcdb00" transform="matrix(.66017 0 0 .62006 5.96 6.768)"/></g></g></g><path d="M6.951 7.698v273.55c0 109.38 88.67 198.05 198.05 198.05s198.05-88.669 198.05-198.05V7.698z" fill="none" stroke="#000" stroke-width="10"/></svg>