<?xml version="1.0" encoding="UTF-8"?>
<svg viewBox="0 0 507 551.84" xml:space="preserve" xmlns="http://www.w3.org/2000/svg"><g fill-rule="evenodd">
<path d="M135.965 42.253c-.148-.156-.156-.15 0 0 .168.175.176.167 0 0M169.885 57.932c.153.152-.152-.153 0 0"/></g>
<path d="M2.5 2.5v295.84c0 138.62 112.38 251 251 251s251-112.38 251-251V2.5z" fill="#fff" stroke="#000" stroke-width="5"/><g fill-rule="evenodd">
<path d="m151.01 70.735 3.519 2.56z" fill="#0093dd"/>
<path d="M370.426 42.253c.148-.156.156-.15 0 0-.168.175-.176.167 0 0M336.507 57.932c-.153.152.152-.153 0 0"/>
<path d="m355.39 70.735-3.52 2.56z" fill="#0093dd"/>
<path d="M224.205 84.028c3.445-1.29 6.427-4.865 4.619-8.753-.192-.413-.027-.93.422-1.324.449-.393 1.18-.663 2.12-.581 7.248.629 15.496 9.7 11.212 17.856-3.626 6.905-14.262 6.529-20.509 6.383-11.054-.302-23.723-2.657-32.739-2.862-5.156-.167-28.997-.236-32.57 2.344l-1.27.74c6.946 8.402 34.423 6.194 39.13 4.46-6.026 12.622-19.625 11.304-28.988 10.184-12.545-1.503-22.786.764-32.442.4-8.771-.33-16.662-2.448-26.041-8.618-1.72-1.13-2.323-2.462-4.482-4.576-1.983.621-3.173 1.213-5.328 2.733-1.658 1.17-1.433.928-3.669 3.273-.263-.78-.457-1.428-.692-2.056-3.44.623-10.317 4.907-8.43 13.231-1.695.059-2.018.092-2.018.092.815 4.297 8.689 8.944 12.84 10.394-.806.872-1.558 1.389-1.739 1.833 2.662 1.433 12.584 1.946 18.95.214-.267 1.252-.35 1.635-.493 2.253 3.283.457 6.353.902 10.793.23 11.936-2.675 12.32-3.463 12.513-2.992-.063.36-.244 1.887-.307 2.551 5.998.067 21.427-1.054 25.516-1.517-.339.409-.624 1.061-.698 1.267 11.293 4.472 23.731.608 27.988-.222-.484 1.007-.852 1.71-.948 2.322 7.01 4.443 15.622 6.954 22.65 9.515-.84.59-1.843.925-2.13 1.208.485 8.68 4.448 15.86 7.585 23.067a8.328 8.328 0 0 0-1.402-.135c-2.133 5.389-3.466 14.216-2.87 18.683-.57-.177-.774-.271-1.026-.409-3.902 1.436-9.743 14.67-12.865 20.18-.266-.404-.585-1.163-1.158-1.662-4.965 2.559-5.566 3.04-7.12 4.166-2.398 1.659-8.477 8.22-10.303 10.335-.36-1.002-.487-1.931-.992-3.067-6.115.772-9.91 1.7-15.401 5.226-.2-.63-.453-1.56-.542-1.746-6.256-.211-15.804 2.935-20.184 4.878-.065-.425-.147-.701-.106-1.074-4.695.139-8.996.509-13.84 2.92-1.671.878-3.144 2.65-3.664 1.76-1.177-2.015-2.544-4.082-4.102-4.334-2.819-.454-5.75.787-10.036 2.062-3.439 1.024-5.153 2.76-5.266-.638-.01-2.536-6.837-3.002-5.687 2.616.69 3.379-.134 2.293-2.08 2.9-2.582.808-1.805 3.47-.607 4.279 1.831 1.236 6.535.728 7.18.69 2.41-.137 2.413-1.172 3.834-1.37.922-.13.826 2.649 1.642 3.404 2.632 2.432 9.862-1.713 14.232-3.078 1.784-1.126 9.02-2.935 9.02-2.935s-.558 1.623-.495 2.593c6.202.772 16.29-1.042 20.033-.864-.59 1.189-.498 1.353-.524 1.937 6.064 1.286 11.392 1.043 17.178.42-.223 1.109-.56 2.285-.601 2.568 7.688 4.206 16.504 4.42 25.228 5.73.44.436-1.55 1.445-1.87 2.177 2.442 7.93 11.044 12.725 14.924 16.114-1.511.482-2.172.609-2.627.98-.673 3.017-.777 4.693-.19 8.318.587 3.626 3.142 13.174 4.207 15.468-.897.011-1.013.04-1.802-.139-4.053 8.62 1 18.957-2.782 27.456-.96-.807-1.708-1.869-2.588-2.574-2.648 3.321-12.815 11.864-14.557 14.208-.47-.478-.333-1.173-.753-2.527-1.814-.02-6.462 1.055-11.65 3.518-3.066 1.172-8.808 4.37-11.329 5.865-.028-.703-.133-1.08-.17-1.766-7.995-3.096-15.428-1.895-21.858-.914-.097-.214.028-1.84.028-1.84-6.22-1.403-12.74-1.458-18.57.221-.04-.621-.189-1.837-.32-2.299-4.411-.378-9.696-.554-13.308 1.458-2.2 1.206-3.294 1.264-5.86 2.398-.673-9.303-10.59-5.567-9.163-2.127.307.739 1.098 1.157 2.013 1.481-.445.435-1.26.907-1.483 1.021 1.813 1.3 3.861 4.073 13.77 4.056-.31.69-.534.978-.749 1.312 6.894.81 9.058.876 15.626.444-.248.793-.511 1.772-.547 2.171 2.374-.201 10.281.858 16.283-.223-.189.859-.352.658-.582 1.777 7.385 2.158 14.688 2.724 22.67 2.023 0 0-.223.334-.628 1.254 8.812 3.39 15.434 1.449 24.696 1.53-.5.59-1.066 1.407-1.168 1.81 1.623 2.448 4.955 5.425 8.172 6.573 3.724 1.441 7.027 2.142 14.558 5.691-.767.421-2.428 1.037-3.294 1.633.265 1.495.761 2.851 1.744 7.572.65 4.296 3.655 8.613 5.285 11.847-.85.088-1.732.06-3.03.22-2.925 4.522-2.256 8.848-1.833 13.385.11 1.186.212 2.436.272 3.745a46.33 46.33 0 0 1 .018 4.099c-1.64-.47-4.002-1.71-5.102-1.708-4.84 2.362-11.178 13.674-11.178 13.674-.542-.87-1.205-2.004-1.68-2.683-6.629 1.713-12.814 4.322-18.468 7.755-.157-.69-.245-.972-.383-1.578-5.415-1.763-19.507 2.447-21.779 3.018.072-.81.11-1.58.223-3.034-9.213-2.614-18.152 2.405-20.505 2.154-.244-2.04-.812-3.125-1.524-3.903-2.95-4.02-9.854-2.741-11.467 1.898-.387 2.444 1.135 4.317 3.598 5.389 1.3.566 3.351.644 5.205.337-.245.385-.869.883-1.11 1.393 2.452 1.006 8.436 1.405 10.456 1.053.167-.029 5.37-1.442 7.529-1.85-.357.617-.827 1.225-.838 1.673 5.198 3.002 18.597-.66 21.324-1.56-.362.934-.768 1.73-.908 2.189 5.108 1.526 11.189 2.44 12.805 2.432 2.29-.054 4.56.264 8.46.319-.357.466-.703.976-1.165 1.686 4.559 4.775 8.684 5.145 13.864 6.1-.71 1.349-1.581 1.935-1.975 2.722.214.184.598 1.748 1.413 3.298 2.032 3.911 5.21 7.464 7.46 9.774-.43.207-1.389.506-1.743.488-1.332 5.835-2.738 12.471-4.955 17.569-.04.143-10.904 19.502-14.4 18.24-.398-1.256-.161-.899.962-1.6 3.06-1.847 4.06-17.089 2.558-18.88-1.912-1.703-3.358-1.157-4.944-3.026-2.04-2.724-1.241-3.807-1.256-6.913.011-1.274-2.884-2.16-3.717-.3-1.556 2.01-4.962 2.192-8.281 1.409-4.945-1.657-3.97-6.436-7.836-5.537-6.566 1.004-2.736 2.85-8.61 6.088-9.6 4.676-9.23-6.337-16.956-5.308-1.247.465-6.288 5.864-11.507 4.283-1.432-.454-3.946-1.507-6.365-4.823-.787-1.08-.935-8.97-9.177-3.972-3.508 1.91-8.091.267-9.997-.657-4.056-1.714-2.862-6.303-3.322-9.808-.393-2.994-1.46-5.115-7.524-4.425-4.061.75-9.04-8.654-1.673-13.99 1.49-1.942.13-5.299-1.153-5.924-3.358-1.007-7.373-7.76.732-11.937 2.662-.506 3.865-.142 4.928-3.319l.02-.64-.639-.318-.002-.001c-1.628-4.887.807-11.47 7.46-9.26l2.82.1c.805-.492.695-.946 1.35-1.63 1.626-1.7 1.584-4.345 4.131-5.807 2.917-1.674 7.053-.388 9.042 2.312.74 2.57 6.354 1.174 7.517 1.165.98-2.919 7.852-5.588 11.6-2.44 2.135 1.412 1.453 3.723 5.28 3.021 1.895-.348 2.91-1.876 4.967-2.73 8.443-3.055 8.03 5.005 12.22 4.302 3.86-.648 5.171-5.274 8.797-4.917 3.485.344 6.52 4.528 7.437 3.696.303-.37-1.101-2.072-1.556-2.524-1.547-1.539-1.635-4.157-1.32-4.977.516-1.341 1.81-1.655 1.141-2.504-.486-.615-4.076-1.825-4.572-.868-1.93 3.719-8.785 5.918-12.228 2.193-1.91-2.068-3.388-5.498-7.269-4.258-2.052.648-2.845 5.824-8.43 5.464-7.322-.471-3.193-5.436-10.71-6.75-4.415-.772-3.617 6.614-10.476 6.606-8.03-.008-4.857-7.266-11.713-7.364-5.729-.083-5.249 7.697-11.264 7.128-7.036-.664-9.5-5.96-10.357-8.844-2.595-4.467-11.072 2.79-17.545-2.032-6.071-3.044-.807-13.994-5.44-17.08-7.948 0-14.567-11.53-4.082-15.617 3.16-2.443 3.554-6.703 2.025-8.895-2.148-3.08-7.756-7.955-.503-13.568 3.62-1.448 9.874-2.903 8.703-6.743-.57-1.867.168-6.495 1.53-7.976 2.345-2.535 8.478-3.716 11.847-1.6 2.169 1.805 5.456-2.83 6.718-5.121.628-2.496 5.435-5.338 7.934-5.052 5.79.662 6.415 5.682 9.686 5.266 1.156-.146 2.059-.181 2.542-2.453.646-.005.091.11.32-.64l.638-.96c1.95-1.896 4.37-3.587 7.263-3.103 5.813.974 3.815 6.738 7.698 7.267 3.227.44 3.49-2.76 4.947-4.05 3.24-2.863 8.319-2.806 11.566-.547 3.52 2.446.67 3.876 5.044 3.888 4.873.013 2.47-3.339 9.12-4.018 7.687-.785 7.4 11.434 10.04 3.442.69-2.256 3.802-4.51 7.388-3.43 1.208.304 2.49 2.1 3.925 1.9.215-1.14-.52-1.549-1.709-2.31-1.64-1.49-2.628-3.556-1.69-6.516.833-2.62 2.575-1.773 2.391-2.93l-2.593-1.422c-1.775 3.463-7.876 6.793-11.614 3.573-1.956-1.925-1.861-5.073-3.639-6.07-.563-.315-3.586-.047-4.46.54-.834.561-.497 1.829-1.02 2.458-2.293 2.754-2.283 5.76-7.111 5.546-1.884-.083-8.152-2.247-7.435-4.607-.007-1.685-3.989-.75-5.072-.81-1.926 4.65-5.189 5.663-9.607 6.146-4.684.196-9.147-3.917-10.82-7.352 0-.48-1.036-.077-1.972-.076-2.972.003-5.962-1.163-7.76 1.201-2.056 2.875-9.18 5.579-12.463 3.341-5.041-3.682-2.107-7.114-7.615-8.7-.886-.886-4.475-5.52-5.76-3.52-3.17.394-8.315 1.994-11.782-3.26-2.315-3.382-3.6-4.378-1.381-9.69 1.745-3.314-1.213-7.717-4.089-9.531-1.603-1.03-5.642-4.912-5.785-8.28-.162-3.81 5.442-6.613 5.692-10.341.298-4.437-5.248-6.543-3.858-12.678.416-1.836 1.474-3.468 4.882-4.777 3.578-1.026 3.882.37 7.191-2.48 5.753-4.392-.199-7.136 3.088-12.54 2.567-3.61 7.44-6.348 11.48-3.22 2.783 1.628 3.845 2.428 5.015 2.322 1.28-.116 2.632-1.36 5.065-4.762 4.51-6.312 9.72-2.423 14.12.77 5.168 3.747 6.884-5.875 14.21-4.302 3.13.899 3.45 5.087 6.662 5.74 3.39.69 3.017-5.69 8.039-5.975 3.688-.209 6.868 3.063 10.907 2.939 3.147-.097 5.364-3.88 7.021-6.332 2.519-2.394 9.785-1.212 12.73 1.072 1.783.226 4.4-5.2 4.92-5.622 2.642-2.07 4.242-1.596 7.31-2.49.65-.036 1.297-.523 1.41-.72.392-.513-.282-2.901-.756-2.636-1.69.731-5.933 1.463-8.929.964-1.278-.213-2.439-.945-3.093-1.553-.103.446-.125 1.236-.333 1.745-.21.51-2.12 5.414-6.528 5.412-3.435-.003-5.51-.69-6.385-2.006-1.887-2.834-7.928-2.43-10.122-.004-1.311 1.45-1.69 2.881-2.79 3.726-1.716 1.319-4.044 1.643-5.595 1.688-7.504.22-4.116-6.794-13.176-5.592-3.973.528-1.937 1.686-6.21 5.498-5.068 4.52-12.731.666-15.717-4.816-1.135-2.083-3.575-2.016-5.863-1.924-2.621.106-5.034-.939-5.905-.646-2.395.804-2.865 2.911-6.466 3.494-6.576 1.065-12.468-.175-13.019-11.36-1.463-4.847-7.16-5.228-10.804-3.786-5.877.76-10.605-4.937-9.9-9.766.527-5.354 4.16-6.758.085-12.158-10.72-.599-12.643-5.828-12.318-10.785.305-4.64 4.962-6.541 7.208-7.836.427-2.412.813-4.28-1.572-5.764-.943-.585-2.554-.764-3.437-1.378-8.895-5.39-4.043-17.36 6.018-18.634.305-.76 1.065-3.31 1.384-3.56l.642-2.224c-3.164-6.008-3.868-9.874-.882-14.076 4.918-4.55 10.305-4.143 16.009-3.428 2.292-1.653 2.337-1.897 3.801-3.257-.662-1.174-1.052-2.174-1.35-3.626-1.561-7.627 7.71-12 12.194-10.348 2.629 2.087 3.546 2.428 4.95 2.31 1.408-.12 3.302-.709 3.68-3.28.46-1.871.506-4.027 1.774-6.212 1.533-2.646 5.052-2.976 7.83-2.99 3.057-.014 1.447 1.092 3.008-3.782.945-1.652 1.555-2.01 3.077-3.006.168.175.176.168 0 0 2.08-3.189-4.728-5.148-4.735-6.655 1.66-1.11 7.868.112 10.303-.576.34-5.436-1.13-7.286-1.536-11.776 2.929-.496 6.68 4.066 8.24 6.211.812 1.118 2.038 2.543 5.082 4.892 1.095.87 5.74 4.497 6.704 4.472-.14-4.084-.253-8.1-.057-11.288.596-3.593.295-6.098 3.812-1.998 8.78 8.074 18.893 19.098 17.628 31.178l3.379 1.698c7.549 3.957 9.965 1.19 15.206-1.018 4.677-2.673 14.087 1.143 14.473 8.094 6.202.01 13.806-1.353 20.873-2.915 4.484-.992 8.813-2.542 12.24-2.342 5.162.3 7.654 2.821 8.733 9.737-.412 3.5-4.698 1.736-6.782 6.17-.966 1.379-1.513 3.431-2.133 4.94-11.154 16.786-28.569 6.103-37.859 5.78-1.758-.061-4.72-.201-7.46.57-5.54 1.56-10.648 5.457-6.36 11.545 7.231-3.535 18.578-4.11 28.995-4.098 6.358.007 12.245.359 17.082-.053 9.469-.805 18.24-1.745 26.257-5.044"/>
<path d="m169.945 80.018 2.563 1.6zm-6.494 1.035a25.91 25.91 0 0 0-1.094.026c.238.896.479 1.798.752 2.671.048.155.094.328.135.512-1.017-1-2.245-2.007-3.453-2.922-.461.079-.923.179-1.379.303 1.027.764 2.968 2.252 4.207 3.49 1.75 1.75 2.1 2.051 2.1 2.051s-.35-2.95-.6-3.75c-.133-.43-.425-1.489-.668-2.38zm3.2.11c2.217 1.416 4.519 6.171 4.519 6.171.556-1.84.395-3.564-.045-5.355-.357-.085-.71-.164-1.055-.24-.045.458.393 2.208.362 2.681-.433-.615-1.38-2.47-1.87-2.986a23.607 23.607 0 0 0-1.912-.271zm29.118 1.515c-.341.176-.688.34-1.033.49.033.63.052 1.26.025 1.87-.003.05-.004.102-.008.154-.468-.516-.918-1.062-1.234-1.545-.344.12-.692.233-1.039.332.896 1.49 3.04 3.506 3.04 3.506s.249-1.3.298-2.4c.03-.657-.01-1.684-.049-2.407zm-18.805.74 1.805 2.967 1.6 2.1c.465-1.56.825-2.679.642-4.242a47.593 47.593 0 0 1-1.172-.21c.19.487.279 1.043.19 1.5-.039.202-.08.399-.123.596l-.262-.341-1.244-2.047a84.565 84.565 0 0 1-1.436-.323zm12.426 1.17c-.413.05-.827.088-1.242.114-.23.484-.354 1.424-.482 1.852-.434-.465-.984-1.381-1.45-1.81a29.21 29.21 0 0 1-1.744-.076c1.619 1.191 3.696 3.717 3.696 3.717.612-1.226 1.07-2.538 1.222-3.797zm-24.572 12.295c-.959 1.259-.992 3.593-2.478 4.963.357.115.771.182 1.142.285.612-.904.97-1.932 1.233-2.87.221.949.295 2.299.412 3.284.44.1.836.235 1.289.323a24.745 24.745 0 0 0-1.598-5.985zm.309 5.662c-.561-.127-1.11-.265-1.645-.414-.01.015-.013.033-.023.047.545.152 1.104.293 1.676.422l-.008-.055zm26.67-4.183c-.81 1.282-1.17 1.776-1.38 2.22-.559 1.326-1.018 2.21-1.331 2.758.513-.06.908-.13 1.371-.195.23-.488.68-1.999.847-2.38-.04.406-.343 1.877-.423 2.32.385-.058.842-.11 1.183-.17.13-1.649.463-3.156-.267-4.553zm-.916 4.723-.424.06c-.003.007.21.001.207.008l.213-.047c.415.371.003-.015.004-.021zm-11.463-4.102s-2 2.1-2.1 3.6c-.036.552-.087.983-.136 1.306.367.007.725 0 1.09.002.039-.433.087-1.018.103-1.238.03-.476.544-1.543.988-2.165.15 1.01-.041 2.456-.142 3.405.345-.001.697.007 1.039.002.12-.884.246-2.234.058-3.111-.3-1.4-.9-1.801-.9-1.801zm-.197 4.91c-.316.001-.632 0-.95-.002v.012c.318.003.635.003.95.002v-.012zm-6.956-4.416c-.693-.045-2.072 2.736-2.87 3.863.473.062.963.093 1.443.143.35-.716.74-1.71 1.043-2.176.088.528.085 1.561.105 2.29.402.034.794.089 1.198.116-.165-1.477-.197-3.102-.918-4.236zm-.279 4.12a62.95 62.95 0 0 1-1.148-.114l-.012.025c.385.04.773.077 1.162.112l-.002-.024zm13.53-3.97c-.856 1.492-1.352 2.887-2.114 4.17.464-.022.875-.061 1.324-.09.314-.868.562-1.758.8-2.644.19.54.386 1.899.563 2.55.323-.024.682-.04.993-.068-.356-1.44-.81-2.354-1.567-3.918zm.573 3.987a90.15 90.15 0 0 1-1.363.093c-.002.006-.129.012-.13.018.466-.03 1.051-.061 1.5-.096l-.007-.015z" fill="#0093dd"/>
<path d="M218.405 95.468c-12.658-.301-26.146-3.435-38.446-2.836-4.333.212-21.856 1.807-25.399 3.932-.764-.89-1.427-1.577-1.828-2.397 6.993-3.282 21.703-3.046 24.014-3.139 6.761-.273 15.387-.23 22.127-.512 8.403-.352 19.133-2.233 27.037-4.87 6.876-2.295 5.304-8.74 5.459-9.718.074-.469.597-.548 1.377-.315.78.233 1.818.777 2.924 1.554a20.288 20.288 0 0 1 3.329 2.948c1.05 1.163 1.977 2.479 2.592 3.87 2.553 5.772-3.74 13.811-23.186 11.483zM98.785 20.249c.463 3.997 1.149 4.8 1.934 7.973 1.211 4.897 4.296 8.984 8.086 12.164 5.035 4.228 8.358 4.636 8.904 12.52.113 1.64.118 3.107-1.736 6.622.04-2.899-.216-8.52-2.178-9.95-1.476-.44-7 7.17-8.613 9.172-4.283 5.315-12.203 6.864-7.356 3.504 3.899-2.7 5.627-6.26 7.69-10.04 1.138-2.091 3.816-3.775 3.064-4.423-.732-.631-1.77.226-2.812 1.245-3.837 3.745-8.503 10.232-13.277 12.123-1.749.69-5.071 2.551-6.608.869.148-.255.812-.626 1.47-.813 3.703-1.046 6.247-3.946 9.044-6.804.685-.7 5.441-5.994 5.469-6.31-1.1-.776-1.342-.565-2.368-.15-1.038.422-5.054 1.256-8.238 2.62-.761.397-1.137.541-1.53-.356.315-.837.546-.185 1.165-1.826.87-2.305 6.969-5.01 6.445-6.53-.868-1.098-3.431-.937-4.62-.298-3.496 1.876-2.584 2.709-3.522 3.107-1.982.33-4.279-.105-6.123.344-.784.279-1.993.708-2.823 1.35-1.867 1.442-.573 7.556-2.431 8.69-.105.164-1.369 2.849-5.746 3.185-1.838-.126-3.288-1.669-4.174-2.545-3.424-1.322-13.826 1.702-8.768 11.52l-2.28 2.502c-1.234 1.042-1.657 1.686-2.59 3.377-2.069.004-8.76-1.07-11.45-.24-4.291 1.32-7.164 5.918-4.713 11.802.408.978 1.722 2.233 2.445 3.348-.635.985-.485 1.11-1.095 2.274-2.242 4.278-.546 5.266-4.739 6.027-7.037 1.698-10.639 7.936-4.994 13.252 2.981 3.054 2.33 1.642 5.297 2.976 1.667.75 1.63 1.573 1.908 2.942.21 1.571.53 2.866.131 4.64-.33 1.235-8 2.864-7.4 7.932.352 2.477.806 4.314 1.707 5.494 3.317 4.344 8.397.776 10.477 3.899.512.693 2.556 4.936 2.602 5.9.115 2.485-5.264 5.518-.584 12.377 1.442 2.112 3.752 2.492 6.123 2.383 6.109-1.286 8.472-.712 12.562 4.01 1.213 1.194-.01 1.38.082 3.263 1.558 12.36 12.469 8.04 13.939 6.918.605-.892 1.937-1.937 2.982-2.23 3.22-.907 4.765.665 6.644.574 2.553-.123 5.786-.552 6.856 2.371.144 1.325 5.276 6.166 8.4 6.154 2.98-.01 5.253-.401 6.452-3.13 1.9-2.856 3.006-4.133 6.834-4.333 8.907-.467 5.665 5.867 11.986 5.745 4.165-.08 5.1-1.636 7.453-4.842.333-.743 2.074-1.978 4.09-2.426 3.75-.833 6.158-1.14 8.289 1.73.716.966 1.965 1.9 5.205 1.58 2.912-.285 1.954-.558 3.826-2.273.264-.991.788-1.606 1.498-3.615-.745-1.576-.369-2.329 1.703-2.783.721.382 1.195 1.598 1.918 2.238.26.57.987.871 1.531 1.602 1.616.606 2.867-.128 3.35-.116 2.237-.66 3.642-1.08 5.68-1.293l-.194-.94 1.998.085c.157 2.102.684 4.583.969 6.03.058.241.168.63.336 1.96-2.351.283-3.555.82-7.489 1.227-.846-.004-1.42.405-2.04 1.004-1.835 1.252-2.437 5.33-5.618 6.32-2.196.619-3.718-1.2-5.81-1.725-8.959-2.249-8.37 4.486-11.953 5.887-8.561 3.35-9.398-3.783-14.273-2.06-3.223 1.137-2.66 2.957-3.946 4.673-1.38 1.844-4.753 1.737-6.488.399-1.552-1.199-2.565-3.903-5.199-4.461-2.42-.514-3.832 1.008-5.193 2.693-2.148 2.844-7.681 2.793-9.875.563-2.579-3.124-6.552-5.357-9.961-1.987-1.238 1.223-4.274 9.236-10.621 5.739-4.04-2.399-8.704-3.525-11.393 1.459-2.534 4.694 2.052 6.306-3.4 12.562-3.037 3.484-9.21.919-10.894 6.144-1.931 5.997 3.51 5.494 2.774 12.904-.588 5.928-6.356 5.114-4.54 12.078 1.096 4.203 6.183 4.245 8.442 8.74 3.638 7.243-.836 7.344.898 12.49 1.91 5.668 8.069 7.01 12.67 4.34 1.345.515.52.45 1.395 1.113.813.616.39-.027 1.352.637.914.632 1.786 2.014 2.435 2.557 1.706 1.426 4.786 1.075 4.1 4.652 1.01.102.8.097.959.96 2.205 2.468 1.995 3.386 5.894 3.525 2.731.096 5.655-1.594 6.98-3.934 1.435-2.532 6.519-1.387 9.133-1.416 4.183-.048 3.408.688 5.508 4.068 1.467 2.36 3.56 2.926 6.1 3.77 2.317.77 4.386-.97 6.322-2.342 3.018-2.137 1.851-4.665 7.68-3.936 2.05.258 2.545.86 3.633 2.461 1.46 2.148 4.606 3.691 7.058 2.623a62.088 62.088 0 0 0 1.725-1.105c2.058-1.626 1.915-5.216 4.515-6.178 1.258-.428 4.94-1.196 6.163-.947.049.01.92.324 1.523 2.598 1.721 4.587 2.614 4.475 4.469 4.834 2.058.396 3.872-1.669 5.976-3.912.575-.615.255-1.37.832-1.377.956-.011 2.728 1.074 2.948 1.205 8.874 5.26 2.834 3.915.746 6.459-2.836 3.457 4.788 3.65 3.197 8.988-1.692 5.682-5.565-1.383-7.898-1.022-5.118.794-3.928 6.366-7.44 6.149-5.89-.366-2.8-5.135-7.808-5.93-5.424-.86-.203 4.597-11.348 4.283-3.223-.07-3.47-4.723-6.442-5.265-8.795-1.606-5.4 3.615-10.625 5.115-5.858 1.681-6.156-2.863-7.549-4.258-1.635-1.637-3.563-2.387-5.814-1.43-2.209.94-2.63 1.582-3.035 4.077-.443 2.72-3.121 2.146-5.258 2.164-2.832.021-3.83-1.428-5.346-3.588-2.059-.624-6.294-3.978-9.506 2.41-1.178 2.344-2.303 3.496-4.392 5.068-2.561 1.926-3.536 1.43-6.184.413-5.024-1.928-10.34.233-9.78 6.293 1 10.789-11.763 6.62-11.6 15.395.06 3.174 2.206 3.81 3.169 6.304 2.53 6.555.25 8.885-4.086 11.846-4.976 3.397-3.062 9.106 2.32 10.484 2.74.702 3.886.666 5.246 3.416 1.506 3.046 1.496 3.977.574 7.17 0 4.117 2.238 9.38 7.092 8.69 4.764-.678 12.545-4.213 15.131 2.62 1.424 3.763 3.397 5.731 7.412 5.715 6.617-.026 3.563-6.857 11.828-6.724 6.66.106 3.865 6.598 10.832 7.767 4.91.823 4.32-6.85 10.47-6.601 8.177.332 4.12 6.49 11.306 6.723 3.69.12 4.268-4.796 8.586-5.897 5.64-1.437 5.785 3.602 10.338 6.441 4.027 2.512 6.654-5.15 9.694-4.334 6.811 1.83 6.761 2.956 5.802 4.159-1.253 1.572-1.71 1.718-1.29 3.814.451 2.255 2.507 2.913 2.956 4.998.366 1.696-.852 2.984-2.033 3.088-1.565.139-5.213-4.264-8.912-3.701-2.613.398-3 3.642-6.34 4.37-5.128 1.12-4.563-.526-6.758-3.29-.658-.83-1.629-1.393-2.7-1.692-3.347-.93-3.54 2.27-8.329 3.315-1.761.384-3.564.319-4.838-.662-1.367-1.25-1.352-3.133-3.94-3.598-1.245-.224-4.618.047-5.652.82-1.627 1.215-1.554 3.358-4.158 3.303-2.051-.044-5.42.456-7.058-.682-.818-.566-2.72-3.092-3.791-3.494-2.01-.75-4.46.525-5.649 2.051-.014.74-.733 3.147-1.023 3.649l-.897-.13c-2.31 4.283-3.798.842-8.238 1.465-4.488.63-2.83 4.298-3.344 6.727l.703.45c.77-1.395 2.43 1.352.043 3.241-3.572 2.832-1.781 2.85-3.705 3.067-3.138.353-1.974-.323-4.308 1.717-2.341 2.048-1.63 2.021-1.63 4.773l5.548 4.162c1.8 2.744.614 6.362-1.96 8.387-.728.573-2.214 3.542-2.081 4.47.29 2.037 1.436 3.086 2.963 4.112 2.577 1.732 3.408.655 6.123.88 2.324.194 4.042 2.344 4.568 4.712.614 2.766-1.243 4.47.428 7.562 3.211 6.713 9.83 2.097 14.947 1.172 2.1-.38 5.221 1.5 6.27 4.455 2.247 6.343 8.722 6.828 13.591 3.055 6.278-4.866 11.225 3.109 13.531 4.053 2.107.86 5.203-.15 6.9-1.487 3.051-2.403 1.89-3.615 7.174-4.437 8.728-1.358 5.63 7.5 14.006 5.14 2.602-.732 3.502-3.488 6.625-1.888 3.019 1.546 1.281 5.21 2.057 7.459 1.716 4.075 8.968-.76 5.87 16.352l-.905 4.373c4.04-5.568 9.172-12.953 9.635-19.223 1.37-4.603 2-8.721 2.054-11.678-2.355-.204-5.023.723-7.187.857 1.449-1.95 5.28-2.536 6.96-3.2.502-1.414-2.177-3.614-3.214-5.263-1.296-2.061-1.323-3.274-1.748-4.605-.997.344-1.714 1.675-3.715 3.775.856-3.317 2.584-5.198 3.059-5.889-3.05-1.327-7.213-1.225-10.863-6.181-1.326 2.32-2.642 5.211-4.143 7.619-.511-5.261.476-6.473 1.082-8.569-6.015-.455-12.097-1.943-16.824-3.337-1.297 1.907-2.19 5.49-2.775 7.671-.91-2.874-1.123-6.509.396-8.56-7.619 1.272-12.923 2.312-18.135-.143-.776 1.575-1.485 3.304-2.853 8.338-.658-3.643.062-5.397.369-9.023-6.258 1.729-9.795 1.627-14.732-.594-1.59 1.745-2.67 3.5-3.385 6.565-1.057-3.147-.762-6.496.455-7.606-1.654-.12-4.523-.272-5.16-3.937-1.783-7.56 4.08-9.962 9.74-10.061 1.517.04 2.859.73 4.219 1.947.415-1.831.16-4.246.36-9.658 1.838 3.138 3.315 10.812 2.997 12.82 5.753-1.812 11.734-3.008 17.59-1.397.07-1.712.106-6.667.24-10.82 2.117 4.891 2.968 10.58 2.655 12.543 8.248-2.265 11.559-2.366 17.967-1.707.009-1.138-.167-3.593-1.941-9.752 3.612 5.043 5.707 9.315 5.867 9.739 5.02-2.115 10.439-5.103 14.814-5.819-1.254-3.264-1.22-2.607-3.008-5.191 2.898.718 5.04 3.244 6 4.658l2.45-3.57c1.64-1.916 3.594-4.212 6.384-5.346-3.172-1.6-5.455-2.331-6.781-2.984 4.425-.166 9.356.734 10.953 1.289 0-3.146.128-6.461.08-9.56-.077-5.009 1.26-6.873 1.693-7.268-2.736-.622-8.064-.305-9.96-.249 2.734-1.529 6.7-2.025 11.544-2.414-2.452-5.341-4.686-10.554-5.44-16.38-2.165.243-4.594 1.724-8.845 3.011 1.903-2.758 6.257-4.646 9.114-5.818-5.931-1.965-12.777-3.33-16.42-7.46-1.21-1.615-1.602-1.715-1.846-2.433-.764.96-2.892 2.976-4.58 7-.21-2.5.828-6.304 2.75-8.17-4.244.499-16.274.202-21.316-2.265-1.662 2.333-2.373 4.204-3.496 9.154-1.281-2.983-1.196-6.874.89-9.836-7.465 1.007-13.803-.604-19.943-2.209-.816 1.49-2.023 5.669-2.943 10.803-1.105-3.778.004-9.723.98-11.469-4.33.243-9.209.555-13.38-.502-.686 1.682-1.638 4.048-2.27 7.813-1.067-5.587-1.184-7.242-.563-8.682-3.195-.076-6.623-.51-8.64-1.084-2.266-.645-3.476-.378-4.412-.963-.116.159-2.238 2.412-5.526 8.498.992-4.242.833-5.93 2.791-9.205-4.467.383-9.502-3.708-10.553-5.877-1.541.797-3.382 1.8-7.332 6.13 1.233-4.427 3.62-6.66 5.867-8.683.502-5.117 3.087-6.488 5.165-7.111 1.617-.485 3.598-.772 5.066.076.463-2.784 1.032-5.355.621-9.127 2.11 3.985 3.468 10.992 3.627 14.201 7.164-3.726 10.586-3.783 16.674-3.916.044-2.45-.132-8.284-.443-10.479 3.442 5.115 3.756 8.623 4.396 13.303 2.052-.991 10.346-.342 15.01.143.759-4.141 1.251-6.654 1.897-11.174 2.473 5.2 1.205 9.314.74 12.89 6.442-2.322 13.729-.853 18.688.194.734-4.992.745-8.257.31-13.037 3.6 4.255 2.901 12.394 2.83 13.795 5.2-3.997 13.35-7.319 19.958-7.408-.487-4.366-.723-5.706-2.46-10.984 2.849 2.418 5.134 7.398 5.62 9.504 3.238-3.275 8.878-8.27 10.54-9.79-2.03-3.963-3.369-5.104-6.05-7.183 4.257.883 6.997 3.112 9.195 4.91-.051-8.094-1.217-14.043 2.264-21.389-.74-.538-6.085-1.445-9.393-2.14 1.578-1.096 8.195-.742 9.744-.828-1.712-9.067-4.151-12.271-2.357-20.43-3.435-.523-6.116.109-8.455.267 2.263-2.384 5.113-2.657 8.252-2.808-5.266-3.505-9.98-7.472-11.82-13.004-.788.205-3.114 1.47-6.287 5.492 1.087-3.487 2.59-6.306 5.539-7.815-3.621-.089-5.137-.208-7.65-.699-4.936-.965-11.64-2.358-14.435-4.385-1.424.733-2.848 4.98-4.808 9.448-.631-4.24.607-8.13 2.674-11.12-2.04-.083-6.682 2.584-14.961-1.154-1.265 2.14-3.286 8.52-3.897 10.535-.934-3.493-.059-9.5-.047-11.363-6.637.936-10.91.555-14.904.6-.299.645-1.563 1.555-3.636 9.307-.878-3.571-.868-8.109-.221-10.684-5.731 2.681-13.1 5.625-18.891 4.365 0 0-1.511 3.57-2.17 10.295-2.15-2.281-2.504-7.625-.6-11.395-.034-.415-.352-1.8-.947-1.672-2.03.437-2.36.396-4.861.289-2.285-.099-5.778-.078-6.213-3.787-.303-2.58.956-4.6 3.496-5.147-.334-2.706-.035-4.539 1.602-5.87 2.194-1.787 4.035-1.559 5.726-1.112.147-1.736-1.219-4.487-2.63-8.342 4.427 2.982 5.964 7.502 7.03 10.773 4.66-2.53 11.12-4.988 14.561-2.443.174-4.281-.177-8.094-.234-9.56 2.983 4.743 3.434 7.948 4.346 11.972 4.07-1.854 10.077-2.624 14.438-3.146.617-3.69.625-6.585.254-10.131 2.95 2.937 3.39 6.616 3.449 10.096 4.823-2.232 10.71-3.569 15.77-3.993-.809-3.043-1.132-5.207-2.059-8.804a26.142 26.142 0 0 1 5.373 9.623c4.304-2.848 8.465-3.241 12.928-4.334-.466-4.65-1.954-10.125-1.838-10.354 3.507 3.896 4.3 7.454 5.112 10.896 3.033-4.809 7.947-8.973 14.908-11.277-.858-2.828-3.122-6.069-5.54-11.102 4.347 2.507 6.882 7.989 8.083 10.332 2.221-6.316 5.194-12.717 10.402-16.527-1.594-1.374-9.105-3.417-11.246-4.65 1.482-.585 8.63 1.42 10.11 1.591 1.518.336 1.797.336 2.067.385-.133-3.397 1.427-10.927 2.887-15.041-2.825-.772-6.943-.792-12.324-.961 3.066-1.296 7.713-1.89 12.273-1.686-2.066-4.296-6.217-13.462-6.27-18.645-3.667 1.19-6.108 3.025-9.26 4.94 1.364-3.766 5.43-5.976 8.176-7.276-5.68-1.47-15.402-5.239-19.008-7.794-1.727 2.566-3.69 5.811-4.287 8.05-1.216-2.446.78-8.524 1.92-9.152-8.6 1.023-17.375 2.797-24.215-.906-.628.258-2.904 3.728-4.15 7.713-.902-5.264 1.342-7.992 1.705-8.795-6.835 1.761-14.764 1.533-21.781 1.224-.895 1.044-3.136 9.384-3.912 10.635-.498-5.265-.216-6.723-.125-7.066.131-1.613.562-3.049.507-4.043-9.143 2.677-15.665 1.973-20.039 1.225-1.534 2.756-2.98 5.937-4.566 10.053-.445-4.916 2.036-9.86 3.012-11.822-7.563 1.01-13.475 1.784-18.811-1.118-3.431 1.203-5.447 3.577-7.934 5.64 1.172-3.73 3.863-7.657 7.29-9.362-3.829-2.018-4.325-2.186-7.51-4.614-2.69-2.557-1.857-3.84-2.225-6.156-1.159-.408-5.574-.565-12.381.149 1.456-2.84 12.178-4.699 13.584-4.664.568-4.732 4.338-10.05 11.416-10.996 0 0-2.57-8.022-4.18-11.607 2.317-.056 7.295 10.19 7.295 10.19s3.09-1.5 5.26-2.818c-.945-4.933-1.546-8.07 4.025-12.45 1.64-1.05 3.032-1.555 6.137-1.735-1.995 1.035-4.223 2.49-5.293 3.552-2.572 2.528-3.126 9.02-.867 11.934 2.126 1.908 2.727 2.78 3.79 3.594 5.325-2.422 9.515-6.87 14.735-5.808 1.629.33-.157.559 1.244.937 1.03-.204 2.167-.647 2.674.082l-.364 1.764c2.151.539.83.356 1.598.842.843.533 1.575-.537 2.371.892-.684 1.375-4.743.522-6.228.559-2.278.056-14.283 3.932-7.752 5.758 2.48.692 5.222 1.967 7.773 2.728 11.698 3.488 25.68-1.086 38.031.535 3.661.822 5.652.542 9.295.612 6.427.485 15.169-.597 19.049-6.327-7.85 2.6-28.109 1.695-35.678-3.517-4.207-2.896-7.564-7.106-7.576-12.55-.024-10.344 18.452-10.043 26.924-7.673 5.412 1.979 22.027 6.038 27.057-7.328.51-4.212 4.742-7.103 7.752-8.4 1.602-.692-.404-5.657-2.582-7.415-1.19-.96-4.808-1.727-7.672-.947-7.824 2.263-6.097 8.453-6.215 11.162-2.432-4.24-.59-8.18.133-9.32-.808-.228-6.88 1.451-7.326 1.75-1.208 1.023-1.552 5.996-2.614 9.369-.855-5.219.008-7.539.407-8.998-2.45.473-5.765.83-8.34 1.144-1.9 1.484-2.152 4.773-3.223 8.317-.442-2.867-.216-6.567 1.092-8.414-.695-.066-1.418-.038-2.834-.139-.262 5.852-4.974 7.337-8.379 7.453-.103 3.886-.826 6.044-2.361 6.682.435.784.579 1.067-.037 2.133-.976-1.586-10.61-10.875-24.338-12.775-1.646-.007-2.309-.188-5.946-.8 1.545-1.96 8.467-3.801 12.293-3.3 5.437.87 9.824 2.494 15.643 5.158 3.467.892 9.143.296 10.412-2.365.597-1.322.536-1.856.545-3.736.067-4.43-5.497-6.93-9.107-7.452-1.16-.155-3.367.995-3.367.995-3.657 3.503-8.215 3.395-13.377 2.814-1.945-1.041-4.778-2.78-5.184-3.008-.485.714.18 1.019-.96.832-.76 3.835-4.254 6.477-7.014 7.293 1.165-1.5 5.047-6.917 5.095-8.798.059-2.272-.235-1.193 1.057-2.49-.206-11.124-9.761-22.94-17.682-28.517-.99.166-.803 9.118.146 12.174 1.972 6.344 5.307 6.3 6.631 13.078.482 2.467 1.71 9.735-1.353 11.248.45-2.135.5-4.962-.145-7.314-1.592-5.806-5.705-12.524-8.906-15.713-2.183-1.176-4.098-2.416-6.498-4.684-1.951-1.846-7.733-8.916-9.244-10.119zm-8.039 10.484c-.39-.005-.73.008-1.002.037 2.327 1.428 4.038 1.863 4.873 2.586.884.765.631.991 1.678 1.535l2.777-.887c-.479-2.315-5.6-3.233-8.326-3.271zm7.822 6.074c-1.65.006-2.63.089-4.777.645l-.264 1.01 2.569.845 1.164-.953c1.006.639 3.475 2.224 4.531 2.297.465-.861.914-.951.768-1.984-.783-.454-.759-.03-1.286-.57-.817-.84.555-.409-.761-1.286-.768 0-1.393-.006-1.944-.004zm6.471 5.701c-1.562.04-3.407.68-3.816 1.344.773.478 1.948.561 2.683.201 2.453-1.2 1.513-.005 3.268-.841-.361-.533-1.197-.727-2.135-.704zm26.275 40.922c.364-.016.817.192 1.367.815.05-.028.07-.014.05.055l-.05-.055c-.555.317-5.22 6.372-6.222 7.926-.958-.34-1.057-.345-1.473-1.28.661-.641 4.654-5.004 5.135-6.256 0 0 .368-1.168 1.193-1.205zm11.604.118c.56-.021 1.118.262 1.588 1.007-1.996 1.267-1.14.4-2.88 2.303l-.073-.012c-2.362 3.928-3.083 4.872-5.873 8.141-1.043 1.221-.547 2.185-2.547 1.389-.487-1.004.081-1.751 1.168-2.8.921-.887 3.839-6.474 6.236-8.116v-.01c.515-.99 1.448-1.868 2.381-1.903zm-6.256 1.767c.054.001.11.004.164.008 1.267 1.713-.218 1.277-.76 1.842-2.54 2.117-3.19 6.483-6.537 6.414-.327-1.612.318-.625 1.301-1.865.939-1.185 2.438-6.46 5.832-6.399zm-18.836 4.664c.684.006 1.302.135 1.858.39.888.409-1.277 1.363.392 2.356 1.24.738 2.066-.011 3.274.864.11 2.968-3.071.515-4.067 1.047-1.584.846-.228.474-2.074.558-2.526.116-5.306 2.481-8.285 3.951.58-3.434 6.626-5.44 9.344-6.207l.011-1.605c-4.642.858-8.725 3.564-11.469 5.765-.333-1.262.097-1.851 1.088-2.687 4.212-2.912 7.486-4.454 9.928-4.432zm4.692 8.184c-1.455.02-3.81.365-4.877 1.058-1.71 1.108-5.75 3.55-6.1 3.95-.35.4 1.201 1.2 1.201 1.2s5.65-3.599 7.1-3.948c1.45-.351 3.85-1.4 4.15-1.5-.236-.691-.795-.699-1.474-.76z" fill="#0093dd"/>
<path d="M150.875 66.398c-.266.003-.547.016-.846.037 1.198 2.15 3.642 4.267 5.02 4.695-.222-1.05-.033-2.701.615-3.277-1.775-1.039-2.927-1.477-4.789-1.455zm7.363 2.37c.359 1.154.426 3.132-.578 4.114 1.84-.334 3.624-.825 3.502-3.07-1.062-.435-1.903-.853-2.923-1.045zm-56.514 2.093c-3.733-.099-7.458.213-10.455 1.14-5.624 1.742-10.818 3.847-15.748 7.133-6.905 4.603-12.09 10.751-15.69 18.22-.254.525-.031 1.16.494 1.413a1.06 1.06 0 0 0 1.412-.494c3.438-7.128 8.37-12.986 14.96-17.379 4.756-3.169 9.774-5.189 15.2-6.869 5.622-1.741 14.169-1.112 19.844.219a1.058 1.058 0 0 0 .484-2.06c-3.026-.714-6.767-1.224-10.5-1.323zm-41.838 30.805a1.059 1.059 0 0 0-1.39.547c-.528 1.202-.917 2.764-.986 4.066a1.06 1.06 0 0 0 1 1.113 1.06 1.06 0 0 0 1.113-1c.056-1.069.387-2.345.814-3.335a1.06 1.06 0 0 0-.55-1.391zm-1.865 9.488a1.06 1.06 0 0 0-1.1 1.016c-.26 6.486.437 14.219 3.749 19.93 6.703 11.56 18.225 20.999 31.393 23.934a1.062 1.062 0 0 0 1.263-.803 1.06 1.06 0 0 0-.802-1.264c-12.587-2.805-23.617-11.88-30.023-22.93-3.088-5.324-3.705-12.734-3.463-18.783a1.062 1.062 0 0 0-1.016-1.1zm96.615 37.125c-5.732.12-12.007 1.198-17.645 2.244a295.457 295.457 0 0 0-19.094 4.19 1.058 1.058 0 1 0 .523 2.049 292.959 292.959 0 0 1 18.958-4.157c5.518-1.024 11.694-2.091 17.303-2.209 3.789-.078 8.031-.296 11.775.319 2.821.464 5.495 1.448 8.13 2.529 5.23 2.145 9.118 9.419 10.552 14.576a1.06 1.06 0 0 0 2.04-.564c-1.131-4.095-3.735-9.126-6.59-12.211-1.465-1.584-3.194-2.936-5.2-3.758-2.791-1.146-5.602-2.17-8.59-2.66-3.896-.64-8.222-.43-12.162-.348zm-53.137 7.057a1.059 1.059 0 0 0-.27 2.1c1.487.193 3.195.337 4.692.255a1.059 1.059 0 0 0-.113-2.113c-1.375.073-2.943-.069-4.309-.242zm85.303 21.156a1.055 1.055 0 0 0-1.19.902c-.248 1.79-1.15 4.068-1.984 5.639-2.092 3.941-5.295 6.872-9.459 8.521-6.074 2.407-12.389 4.862-18.816 6.147-4.729.945-9.506 1.791-14.256 2.633-2.766.49-5.534.973-8.306 1.425-1.856.304-3.768.632-5.639.827-6.9.718-13.936 1.75-20.764 2.95-4.209.74-8.473 1.571-12.602 2.68a1.06 1.06 0 0 0 .549 2.045c4.067-1.093 8.27-1.91 12.418-2.64 6.778-1.19 13.768-2.217 20.617-2.93 1.912-.2 3.864-.532 5.762-.842 2.781-.454 5.56-.939 8.334-1.43 4.764-.845 9.557-1.694 14.3-2.642 6.563-1.313 12.982-3.797 19.185-6.254 4.645-1.84 8.24-5.132 10.566-9.535.941-1.78 1.912-4.278 2.191-6.305a1.059 1.059 0 0 0-.906-1.191zm-102.82 35.26c-2.159.842-4.63 2.52-6.345 4.027-4.078 3.584-6.57 8.227-6.928 13.69-.294 4.49.065 9.33 1.902 13.495.9 2.042 1.816 3.265 3.27 4.881 4.007 4.455 10.68 7.711 16.537 8.54a1.059 1.059 0 0 0 .297-2.097c-5.363-.757-11.587-3.775-15.262-7.859-1.301-1.445-2.096-2.484-2.905-4.318-1.693-3.839-1.997-8.37-1.726-12.504.321-4.902 2.556-9.025 6.213-12.236 1.527-1.343 3.793-2.898 5.716-3.647a1.059 1.059 0 0 0-.77-1.973zm68.781 40.928a1.059 1.059 0 0 0 0 2.117c6.776 0 20.995 1.332 25.953 6.29 6.579 6.578 8.692 13.235 8.692 22.452 0 4.067-.96 8.089-2.7 11.758-.704 1.487-2.225 4.23-3.459 5.361-1.736 1.591-2.889 2.677-5.025 3.868-4.045 2.257-8.696 3.208-13.293 3.353a1.058 1.058 0 0 0 .066 2.115c4.943-.156 9.912-1.196 14.258-3.62 2.287-1.277 3.562-2.45 5.424-4.157 1.47-1.347 3.102-4.243 3.942-6.014 1.873-3.953 2.902-8.284 2.902-12.664 0-9.78-2.33-16.967-9.31-23.949-5.477-5.476-19.964-6.91-27.45-6.91zm-11.604.705c-4.717.472-9.45.935-14.176 1.299-4.001.308-8.134.383-12.148.486-2.754.07-5.51.127-8.265.152-1.589.015-3.348.075-4.928-.039a1.063 1.063 0 0 0-1.133.98 1.06 1.06 0 0 0 .983 1.13c1.64.117 3.45.061 5.097.047 2.766-.027 5.534-.084 8.3-.155 4.05-.102 8.218-.181 12.257-.492 4.74-.365 9.493-.83 14.225-1.303a1.06 1.06 0 0 0 .947-1.158 1.06 1.06 0 0 0-1.158-.947zm-39.14 49.596c-5.667-.279-14.574.565-19.253 3.785-6.314 4.348-10.748 9.329-10.959 17.346-.18 6.884-.434 13.475 5.043 18.506 4.136 3.799 9.347 6.54 14.715 8.135a1.058 1.058 0 0 0 .602-2.03c-5.059-1.503-9.988-4.085-13.885-7.664-4.904-4.503-4.519-10.75-4.358-16.893.193-7.297 4.309-11.708 10.041-15.656 4.238-2.917 12.801-3.667 17.947-3.414a1.063 1.063 0 0 0 1.112-1.005 1.063 1.063 0 0 0-1.006-1.11zm13.645 1a1.058 1.058 0 0 0 0 2.115c1.462 0 3.074.201 4.526.373 2.194.259 4.388.571 6.572.908 2.174.336 4.347.698 6.51 1.102 4.697.875 10.082 1.263 14.859 1.418a1.062 1.062 0 0 0 1.092-1.023 1.06 1.06 0 0 0-1.024-1.094c-4.677-.154-9.94-.524-14.54-1.381a215.206 215.206 0 0 0-6.573-1.113c-2.21-.342-4.426-.658-6.647-.92-1.54-.18-3.226-.385-4.775-.385zm-15.56 46.607a1.06 1.06 0 0 0-1.188.91c-.076.577.332 1.11.91 1.188 3.903.516 7.818.998 11.729 1.457 2.997.352 6.018.706 9.025.949 2.776.224 5.556.41 8.334.61 2.456.175 4.914.35 7.366.566 1.232.108 3.045.2 4.228.496a1.061 1.061 0 0 0 1.283-.772 1.061 1.061 0 0 0-.77-1.283c-1.315-.33-3.195-.432-4.558-.55a457.376 457.376 0 0 0-7.398-.57c-2.772-.198-5.545-.384-8.315-.607-2.982-.24-5.977-.593-8.949-.941-3.9-.459-7.805-.937-11.697-1.453zm50.712 5.3a1.059 1.059 0 0 0-.305 2.094c4.19.61 8.525 1.463 12.624 2.489 2.8.701 6.074 1.602 8.65 2.91 6.297 3.196 11.454 7.132 11.922 14.721.452 7.313-.66 16.409-9.174 18.301-2.117.47-4.249.956-6.38 1.367-.733.14-1.462.272-2.206.319-.522.032-1.043.051-1.564.091-1.104.086-2.396 0-3.504-.058a198.276 198.276 0 0 1-5.34-.362 492.14 492.14 0 0 1-7.674-.677c-1.289-.123-3.068-.21-4.334-.471a1.058 1.058 0 0 0-.601 2.027c.246.083.63.118.886.149 1.278.16 2.567.28 3.848.402 2.568.245 5.137.476 7.71.68 1.796.142 3.596.273 5.396.365 1.205.063 2.574.149 3.777.057.512-.04 1.021-.058 1.533-.09.839-.052 1.65-.195 2.473-.354 2.152-.413 4.303-.904 6.441-1.379 9.693-2.153 11.347-12.048 10.826-20.498-.518-8.409-6.073-12.92-13.078-16.479-2.73-1.385-6.127-2.331-9.094-3.074a131.217 131.217 0 0 0-12.832-2.53zm-24.229 38.864c-15.096-1.066-31.309 4.886-30.08 22.855.484 7.06 5.193 13.753 11.891 16.22 9.791 3.609 22.036 5.439 32.373 5.366a1.061 1.061 0 0 0 1.051-1.067 1.061 1.061 0 0 0-1.066-1.05c-10.092.065-22.067-1.713-31.625-5.235-5.914-2.179-10.082-8.147-10.51-14.379-1.132-16.54 14.088-21.568 27.818-20.6 2.55.179 5.142.459 7.675.819a1.06 1.06 0 0 0 1.198-.899 1.06 1.06 0 0 0-.899-1.195 111.775 111.775 0 0 0-7.826-.836zm27.576 42.924a1.06 1.06 0 0 0-1.058 1.056c0 .583.476 1.059 1.058 1.059 3.835 0 10.164.343 13.74 1.637 2.548.92 4.922 1.676 7.215 3.189 3.121 2.061 5.305 5.011 7.006 8.303a1.058 1.058 0 0 0 1.879-.973c-1.873-3.622-4.286-6.831-7.719-9.098-2.46-1.623-4.932-2.423-7.66-3.41-3.841-1.389-10.344-1.764-14.461-1.764z" fill="#fff"/>
<path d="M282.8 84.028c-3.446-1.29-6.427-4.865-4.619-8.753.192-.413.026-.93-.422-1.324-.449-.393-1.18-.663-2.12-.581-7.248.629-15.497 9.7-11.213 17.856 3.627 6.905 14.262 6.529 20.51 6.383 11.053-.302 23.722-2.657 32.738-2.862 5.156-.167 28.997-.236 32.57 2.344l1.271.74c-6.946 8.402-34.423 6.194-39.131 4.46 6.027 12.622 19.626 11.304 28.989 10.184 12.545-1.503 22.786.764 32.442.4 8.771-.33 16.662-2.448 26.041-8.618 1.72-1.13 2.323-2.462 4.482-4.576 1.983.621 3.173 1.213 5.328 2.733 1.658 1.17 1.433.928 3.668 3.273.264-.78.457-1.428.693-2.056 3.44.623 10.317 4.907 8.43 13.231 1.695.059 2.018.092 2.018.092-.815 4.297-8.689 8.944-12.84 10.394.806.872 1.558 1.389 1.738 1.833-2.662 1.433-12.584 1.946-18.95.214.268 1.252.35 1.635.494 2.253-3.283.457-6.353.902-10.793.23-11.936-2.675-12.321-3.463-12.513-2.992.063.36.244 1.887.307 2.551-5.998.067-21.427-1.054-25.516-1.517.339.409.624 1.061.698 1.267-11.293 4.472-23.731.608-27.988-.222.483 1.007.852 1.71.948 2.322-7.01 4.443-15.622 6.954-22.65 9.515.84.59 1.843.925 2.13 1.208-.485 8.68-4.448 15.86-7.586 23.067a8.328 8.328 0 0 1 1.403-.135c2.133 5.389 3.466 14.216 2.87 18.683.57-.177.774-.271 1.026-.409 3.902 1.436 9.743 14.67 12.865 20.18.265-.404.584-1.163 1.158-1.662 4.964 2.559 5.566 3.04 7.12 4.166 2.398 1.659 8.477 8.22 10.303 10.335.359-1.002.487-1.931.992-3.067 6.115.772 9.91 1.7 15.4 5.226.2-.63.454-1.56.543-1.746 6.256-.211 15.804 2.935 20.184 4.878.065-.425.147-.701.106-1.074 4.695.139 8.996.509 13.84 2.92 1.67.878 3.144 2.65 3.664 1.76 1.177-2.015 2.544-4.082 4.102-4.334 2.819-.454 5.749.787 10.036 2.062 3.439 1.024 5.153 2.76 5.266-.638.01-2.536 6.837-3.002 5.687 2.616-.69 3.379.134 2.293 2.08 2.9 2.582.808 1.805 3.47.606 4.279-1.83 1.236-6.534.728-7.18.69-2.409-.137-2.412-1.172-3.833-1.37-.922-.13-.826 2.649-1.642 3.404-2.632 2.432-9.863-1.713-14.232-3.078-1.784-1.126-9.02-2.935-9.02-2.935s.558 1.623.495 2.593c-6.202.772-16.29-1.042-20.033-.864.59 1.189.498 1.353.524 1.937-6.064 1.286-11.392 1.043-17.178.42.223 1.109.56 2.285.601 2.568-7.688 4.206-16.504 4.42-25.228 5.73-.44.436 1.55 1.445 1.87 2.177-2.442 7.93-11.045 12.725-14.925 16.114 1.512.482 2.173.609 2.627.98.673 3.017.778 4.693.191 8.318-.587 3.626-3.143 13.174-4.208 15.468.898.011 1.014.04 1.802-.139 4.054 8.62-.999 18.957 2.782 27.456.96-.807 1.709-1.869 2.59-2.574 2.647 3.321 12.814 11.864 14.556 14.208.47-.478.333-1.173.752-2.527 1.815-.02 6.463 1.055 11.65 3.518 3.066 1.172 8.81 4.37 11.33 5.865.028-.703.133-1.08.17-1.766 7.995-3.096 15.428-1.895 21.858-.914.096-.214-.028-1.84-.028-1.84 6.22-1.403 12.74-1.458 18.57.221.04-.621.188-1.837.32-2.299 4.411-.378 9.696-.554 13.308 1.458 2.2 1.206 3.294 1.264 5.86 2.398.673-9.303 10.59-5.567 9.163-2.127-.307.739-1.099 1.157-2.013 1.481.445.435 1.259.907 1.483 1.021-1.814 1.3-3.862 4.073-13.77 4.056.31.69.534.978.748 1.312-6.893.81-9.057.876-15.626.444.249.793.512 1.772.547 2.171-2.374-.201-10.28.858-16.283-.223.19.859.353.658.583 1.777-7.385 2.158-14.688 2.724-22.67 2.023 0 0 .223.334.627 1.254-8.81 3.39-15.434 1.449-24.696 1.53.5.59 1.067 1.407 1.169 1.81-1.623 2.448-4.955 5.425-8.172 6.573-3.724 1.441-7.027 2.142-14.558 5.691.767.421 2.428 1.037 3.294 1.633-.266 1.495-.761 2.851-1.745 7.572-.649 4.296-3.654 8.613-5.284 11.847.85.088 1.732.06 3.03.22 2.925 4.522 2.256 8.848 1.833 13.385a80.201 80.201 0 0 0-.273 3.745 46.33 46.33 0 0 0-.017 4.099c1.64-.47 4.002-1.71 5.102-1.708 4.84 2.362 11.178 13.674 11.178 13.674.542-.87 1.205-2.004 1.68-2.683 6.629 1.713 12.814 4.322 18.468 7.755.157-.69.245-.972.382-1.578 5.416-1.763 19.507 2.447 21.78 3.018-.073-.81-.11-1.58-.224-3.034 9.214-2.614 18.152 2.405 20.505 2.154.245-2.04.813-3.125 1.525-3.903 2.949-4.02 9.853-2.741 11.467 1.898.387 2.444-1.135 4.317-3.598 5.389-1.3.566-3.351.644-5.206.337.246.385.87.883 1.11 1.393-2.451 1.006-8.435 1.405-10.455 1.053-.167-.029-5.37-1.442-7.529-1.85.357.617.827 1.225.838 1.673-5.199 3.002-18.597-.66-21.324-1.56.362.934.768 1.73.908 2.189-5.108 1.526-11.189 2.44-12.805 2.432-2.29-.054-4.561.264-8.46.319.357.466.703.976 1.165 1.686-4.559 4.775-8.684 5.145-13.864 6.1.71 1.349 1.581 1.935 1.974 2.722-.213.184-.598 1.748-1.412 3.298-2.032 3.911-5.21 7.464-7.46 9.774.43.207 1.388.506 1.743.488 1.332 5.835 2.738 12.471 4.955 17.569.04.143 10.904 19.502 14.4 18.24.398-1.256.16-.899-.962-1.6-3.061-1.847-4.06-17.089-2.558-18.88 1.912-1.703 3.358-1.157 4.944-3.026 2.04-2.724 1.24-3.807 1.256-6.913-.011-1.274 2.883-2.16 3.717-.3 1.556 2.01 4.962 2.192 8.28 1.409 4.946-1.657 3.97-6.436 7.837-5.537 6.566 1.004 2.736 2.85 8.61 6.088 9.6 4.676 9.23-6.337 16.956-5.308 1.247.465 6.287 5.864 11.507 4.283 1.432-.454 3.946-1.507 6.364-4.823.787-1.08.936-8.97 9.178-3.972 3.508 1.91 8.091.267 9.997-.657 4.056-1.714 2.861-6.303 3.322-9.808.393-2.994 1.46-5.115 7.524-4.425 4.06.75 9.04-8.654 1.673-13.99-1.49-1.942-.13-5.299 1.152-5.924 3.36-1.007 7.374-7.76-.731-11.937-2.662-.506-3.865-.142-4.928-3.319l-.02-.64.638-.318.003-.001c1.628-4.887-.807-11.47-7.46-9.26l-2.82.1c-.805-.492-.695-.946-1.35-1.63-1.626-1.7-1.584-4.345-4.131-5.807-2.917-1.674-7.053-.388-9.042 2.312-.74 2.57-6.354 1.174-7.517 1.165-.98-2.919-7.852-5.588-11.6-2.44-2.135 1.412-1.454 3.723-5.28 3.021-1.895-.348-2.91-1.876-4.967-2.73-8.444-3.055-8.03 5.005-12.22 4.302-3.861-.648-5.172-5.274-8.797-4.917-3.485.344-6.52 4.528-7.437 3.696-.303-.37 1.101-2.072 1.556-2.524 1.547-1.539 1.635-4.157 1.32-4.977-.516-1.341-1.81-1.655-1.141-2.504.486-.615 4.076-1.825 4.572-.868 1.93 3.719 8.785 5.918 12.228 2.193 1.91-2.068 3.387-5.498 7.269-4.258 2.052.648 2.845 5.824 8.43 5.464 7.322-.471 3.193-5.436 10.71-6.75 4.415-.772 3.617 6.614 10.476 6.606 8.03-.008 4.857-7.266 11.713-7.364 5.729-.083 5.249 7.697 11.264 7.128 7.036-.664 9.5-5.96 10.357-8.844 2.595-4.467 11.072 2.79 17.545-2.032 6.07-3.044.807-13.994 5.44-17.08 7.948 0 14.567-11.53 4.082-15.617-3.16-2.443-3.554-6.703-2.025-8.895 2.148-3.08 7.756-7.955.502-13.568-3.62-1.448-9.873-2.903-8.702-6.743.57-1.867-.168-6.495-1.53-7.976-2.345-2.535-8.478-3.716-11.848-1.6-2.168 1.805-5.455-2.83-6.717-5.121-.628-2.496-5.436-5.338-7.934-5.052-5.79.662-6.415 5.682-9.686 5.266-1.156-.146-2.059-.181-2.542-2.453-.647-.005-.091.11-.32-.64l-.638-.96c-1.95-1.896-4.37-3.587-7.263-3.103-5.814.974-3.815 6.738-7.699 7.267-3.227.44-3.489-2.76-4.946-4.05-3.24-2.863-8.319-2.806-11.566-.547-3.52 2.446-.67 3.876-5.044 3.888-4.873.013-2.47-3.339-9.12-4.018-7.687-.785-7.4 11.434-10.04 3.442-.69-2.256-3.802-4.51-7.388-3.43-1.208.304-2.49 2.1-3.926 1.9-.214-1.14.522-1.549 1.71-2.31 1.64-1.49 2.628-3.556 1.689-6.516-.832-2.62-2.575-1.773-2.39-2.93l2.593-1.422c1.774 3.463 7.876 6.793 11.614 3.573 1.956-1.925 1.861-5.073 3.638-6.07.564-.315 3.587-.047 4.46.54.835.561.498 1.829 1.022 2.458 2.292 2.754 2.282 5.76 7.11 5.546 1.884-.083 8.152-2.247 7.435-4.607.007-1.685 3.988-.75 5.072-.81 1.926 4.65 5.189 5.663 9.607 6.146 4.683.196 9.147-3.917 10.82-7.352 0-.48 1.036-.077 1.972-.076 2.972.003 5.962-1.163 7.76 1.201 2.055 2.875 9.18 5.579 12.463 3.341 5.041-3.682 2.107-7.114 7.615-8.7.886-.886 4.475-5.52 5.76-3.52 3.17.394 8.315 1.994 11.782-3.26 2.314-3.382 3.6-4.378 1.381-9.69-1.745-3.314 1.213-7.717 4.088-9.531 1.604-1.03 5.643-4.912 5.786-8.28.162-3.81-5.442-6.613-5.692-10.341-.298-4.437 5.248-6.543 3.858-12.678-.416-1.836-1.475-3.468-4.882-4.777-3.578-1.026-3.882.37-7.191-2.48-5.753-4.392.199-7.136-3.088-12.54-2.567-3.61-7.44-6.348-11.48-3.22-2.783 1.628-3.845 2.428-5.015 2.322-1.28-.116-2.632-1.36-5.065-4.762-4.51-6.312-9.72-2.423-14.12.77-5.168 3.747-6.884-5.875-14.21-4.302-3.131.899-3.45 5.087-6.662 5.74-3.39.69-3.017-5.69-8.04-5.975-3.687-.209-6.867 3.063-10.906 2.939-3.147-.097-5.364-3.88-7.021-6.332-2.519-2.394-9.785-1.212-12.73 1.072-1.783.226-4.401-5.2-4.92-5.622-2.642-2.07-4.242-1.596-7.31-2.49-.65-.036-1.297-.523-1.41-.72-.392-.513.282-2.901.756-2.636 1.69.731 5.933 1.463 8.929.964 1.278-.213 2.438-.945 3.093-1.553.102.446.125 1.236.333 1.745.21.51 2.12 5.414 6.528 5.412 3.435-.003 5.51-.69 6.385-2.006 1.887-2.834 7.928-2.43 10.122-.004 1.31 1.45 1.69 2.881 2.79 3.726 1.716 1.319 4.044 1.643 5.595 1.688 7.504.22 4.116-6.794 13.176-5.592 3.973.528 1.937 1.686 6.21 5.498 5.067 4.52 12.731.666 15.717-4.816 1.135-2.083 3.575-2.016 5.863-1.924 2.621.106 5.034-.939 5.905-.646 2.394.804 2.865 2.911 6.466 3.494 6.576 1.065 12.468-.175 13.019-11.36 1.463-4.847 7.16-5.228 10.804-3.786 5.877.76 10.605-4.937 9.899-9.766-.526-5.354-4.16-6.758-.084-12.158 10.72-.599 12.643-5.828 12.318-10.785-.305-4.64-4.963-6.541-7.208-7.836-.427-2.412-.813-4.28 1.572-5.764.943-.585 2.554-.764 3.436-1.378 8.896-5.39 4.043-17.36-6.017-18.634-.305-.76-1.065-3.31-1.384-3.56l-.642-2.224c3.163-6.008 3.867-9.874.882-14.076-4.919-4.55-10.305-4.143-16.009-3.428-2.293-1.653-2.337-1.897-3.801-3.257.662-1.174 1.052-2.174 1.349-3.626 1.562-7.627-7.709-12-12.193-10.348-2.63 2.087-3.546 2.428-4.95 2.31-1.408-.12-3.302-.709-3.68-3.28-.46-1.871-.506-4.027-1.774-6.212-1.533-2.646-5.053-2.976-7.83-2.99-3.057-.014-1.447 1.092-3.008-3.782-.945-1.652-1.555-2.01-3.077-3.006-.168.175-.176.168 0 0-2.08-3.189 4.728-5.148 4.735-6.655-1.66-1.11-7.868.112-10.303-.576-.34-5.436 1.13-7.286 1.536-11.776-2.929-.496-6.68 4.066-8.24 6.211-.812 1.118-2.038 2.543-5.082 4.892-1.096.87-5.74 4.497-6.704 4.472.14-4.084.253-8.1.056-11.288-.595-3.593-.294-6.098-3.811-1.998-8.78 8.074-18.893 19.098-17.628 31.178l-3.379 1.698c-7.55 3.957-9.965 1.19-15.206-1.018-4.677-2.673-14.087 1.143-14.473 8.094-6.203.01-13.806-1.353-20.873-2.915-4.484-.992-8.813-2.542-12.241-2.342-5.161.3-7.653 2.821-8.732 9.737.412 3.5 4.697 1.736 6.781 6.17.967 1.379 1.514 3.431 2.134 4.94 11.154 16.786 28.569 6.103 37.859 5.78 1.758-.061 4.72-.201 7.46.57 5.54 1.56 10.647 5.457 6.36 11.545-7.231-3.535-18.578-4.11-28.995-4.098-6.358.007-12.245.359-17.082-.053-9.469-.805-18.24-1.745-26.257-5.044"/>
<path d="m337.06 80.018-2.563 1.6zm6.494 1.035c.352.002.716.008 1.094.026a62.974 62.974 0 0 1-.752 2.671 6.716 6.716 0 0 0-.135.512c1.017-1 2.245-2.007 3.453-2.922.461.079.923.179 1.379.303-1.027.764-2.969 2.252-4.207 3.49-1.75 1.75-2.1 2.051-2.1 2.051s.35-2.95.6-3.75c.133-.43.425-1.489.668-2.38zm-3.2.11c-2.217 1.416-4.519 6.171-4.519 6.171-.556-1.84-.395-3.564.045-5.355.357-.085.71-.164 1.055-.24.045.458-.393 2.208-.363 2.681.434-.615 1.381-2.47 1.87-2.986.666-.12 1.305-.213 1.913-.271zm-29.118 1.515c.34.176.687.34 1.033.49-.034.63-.052 1.26-.026 1.87.003.05.004.102.008.154.468-.516.919-1.062 1.235-1.545.344.12.692.233 1.039.332-.896 1.49-3.04 3.506-3.04 3.506s-.249-1.3-.298-2.4c-.03-.657.01-1.684.049-2.407zm18.805.74-1.805 2.967-1.6 2.1c-.465-1.56-.825-2.679-.642-4.242.393-.066.782-.135 1.172-.21-.191.487-.28 1.043-.19 1.5.039.202.08.399.123.596l.262-.341 1.244-2.047c.483-.104.962-.212 1.436-.323zm-12.426 1.17c.413.05.827.088 1.242.114.23.484.353 1.424.481 1.852.435-.465.985-1.381 1.45-1.81a29.21 29.21 0 0 0 1.745-.076c-1.62 1.191-3.696 3.717-3.696 3.717-.612-1.226-1.07-2.538-1.222-3.797zm24.572 12.295c.958 1.259.991 3.593 2.478 4.963-.357.115-.771.182-1.143.285-.611-.904-.969-1.932-1.232-2.87-.222.949-.295 2.299-.412 3.284-.44.1-.836.235-1.29.323a24.745 24.745 0 0 1 1.598-5.985zm-.309 5.662c.56-.127 1.11-.265 1.644-.414.01.015.014.033.024.047-.545.152-1.104.293-1.676.422l.008-.055zm-26.67-4.183c.81 1.282 1.17 1.776 1.379 2.22.56 1.326 1.019 2.21 1.332 2.758-.513-.06-.908-.13-1.371-.195-.23-.488-.68-1.999-.847-2.38.04.406.343 1.877.423 2.32-.385-.058-.842-.11-1.184-.17-.128-1.649-.463-3.156.268-4.553zm.916 4.723.424.06c.003.007-.21.001-.207.008l-.213-.047c-.415.371-.003-.015-.004-.021zm11.463-4.102s2 2.1 2.1 3.6c.036.552.087.983.136 1.306-.367.007-.725 0-1.09.002a83.472 83.472 0 0 1-.103-1.238c-.03-.476-.544-1.543-.988-2.165-.15 1.01.041 2.456.142 3.405-.345-.001-.698.007-1.039.002-.12-.884-.246-2.234-.058-3.111.3-1.4.9-1.801.9-1.801zm.197 4.91c.315.001.632 0 .95-.002v.012c-.318.003-.635.003-.95.002v-.012zm6.955-4.416c.694-.045 2.072 2.736 2.871 3.863-.473.062-.963.093-1.443.143-.35-.716-.74-1.71-1.043-2.176-.088.528-.085 1.561-.105 2.29-.402.034-.794.089-1.198.116.165-1.477.197-3.102.918-4.236zm.28 4.12a62.95 62.95 0 0 0 1.148-.114l.012.025c-.386.04-.773.077-1.162.112l.002-.024zm-13.53-3.97c.856 1.492 1.352 2.887 2.114 4.17-.464-.022-.875-.061-1.324-.09-.314-.868-.562-1.758-.8-2.644-.191.54-.386 1.899-.564 2.55-.322-.024-.68-.04-.992-.068.356-1.44.81-2.354 1.567-3.918zm-.574 3.987c.443.034.901.064 1.364.093.002.006.129.012.13.018-.466-.03-1.051-.061-1.5-.096l.007-.015z" fill="#0093dd"/>
<path d="M288.6 95.468c12.658-.301 26.146-3.435 38.446-2.836 4.333.212 21.856 1.807 25.399 3.932.764-.89 1.426-1.577 1.828-2.397-6.993-3.282-21.703-3.046-24.014-3.139-6.762-.273-15.387-.23-22.127-.512-8.403-.352-19.133-2.233-27.037-4.87-6.876-2.295-5.304-8.74-5.459-9.718-.075-.469-.597-.548-1.377-.315-.78.233-1.819.777-2.924 1.554a20.288 20.288 0 0 0-3.329 2.948c-1.05 1.163-1.978 2.479-2.592 3.87-2.554 5.772 3.74 13.811 23.186 11.483zm119.62-75.219c-.464 3.997-1.149 4.8-1.934 7.973-1.211 4.897-4.296 8.984-8.086 12.164-5.035 4.228-8.358 4.636-8.904 12.52-.114 1.64-.118 3.107 1.736 6.622-.04-2.899.216-8.52 2.178-9.95 1.476-.44 7 7.17 8.613 9.172 4.282 5.315 12.203 6.864 7.356 3.504-3.9-2.7-5.627-6.26-7.69-10.04-1.138-2.091-3.816-3.775-3.064-4.423.732-.631 1.77.226 2.812 1.245 3.837 3.745 8.503 10.232 13.277 12.123 1.749.69 5.071 2.551 6.608.869-.148-.255-.813-.626-1.471-.813-3.702-1.046-6.247-3.946-9.043-6.804-.685-.7-5.442-5.994-5.469-6.31 1.1-.776 1.341-.565 2.367-.15 1.038.422 5.055 1.256 8.239 2.62.761.397 1.137.541 1.53-.356-.315-.837-.546-.185-1.165-1.826-.871-2.305-6.969-5.01-6.445-6.53.867-1.098 3.431-.937 4.62-.298 3.496 1.876 2.584 2.709 3.522 3.107 1.982.33 4.279-.105 6.123.344.784.279 1.993.708 2.823 1.35 1.867 1.442.573 7.556 2.431 8.69.105.164 1.369 2.849 5.746 3.185 1.838-.126 3.287-1.669 4.174-2.545 3.424-1.322 13.826 1.702 8.768 11.52l2.279 2.502c1.235 1.042 1.658 1.686 2.592 3.377 2.067.004 8.758-1.07 11.449-.24 4.291 1.32 7.164 5.918 4.713 11.802-.408.978-1.722 2.233-2.446 3.348.636.985.486 1.11 1.096 2.274 2.242 4.278.546 5.266 4.738 6.027 7.038 1.698 10.64 7.936 4.994 13.252-2.98 3.054-2.33 1.642-5.296 2.976-1.667.75-1.63 1.573-1.909 2.942-.208 1.571-.53 2.866-.13 4.64.33 1.235 8 2.864 7.4 7.932-.352 2.477-.806 4.314-1.707 5.494-3.317 4.344-8.398.776-10.477 3.899-.513.693-2.556 4.936-2.602 5.9-.115 2.485 5.263 5.518.584 12.377-1.442 2.112-3.752 2.492-6.123 2.383-6.109-1.286-8.472-.712-12.562 4.01-1.213 1.194.01 1.38-.082 3.263-1.558 12.36-12.469 8.04-13.939 6.918-.605-.892-1.937-1.937-2.982-2.23-3.22-.907-4.766.665-6.645.574-2.553-.123-5.785-.552-6.855 2.371-.144 1.325-5.276 6.166-8.4 6.154-2.98-.01-5.253-.401-6.452-3.13-1.9-2.856-3.006-4.133-6.834-4.333-8.907-.467-5.665 5.867-11.986 5.745-4.165-.08-5.101-1.636-7.453-4.842-.333-.743-2.074-1.978-4.09-2.426-3.75-.833-6.158-1.14-8.289 1.73-.716.966-1.965 1.9-5.205 1.58-2.912-.285-1.954-.558-3.826-2.273-.265-.991-.788-1.606-1.498-3.615.745-1.576.369-2.329-1.703-2.783-.721.382-1.195 1.598-1.918 2.238-.26.57-.987.871-1.531 1.602-1.616.606-2.867-.128-3.35-.116-2.237-.66-3.642-1.08-5.68-1.293l.194-.94-1.998.085c-.157 2.102-.684 4.583-.969 6.03-.058.241-.169.63-.336 1.96 2.35.283 3.555.82 7.488 1.227.847-.004 1.42.405 2.041 1.004 1.835 1.252 2.437 5.33 5.618 6.32 2.195.619 3.718-1.2 5.81-1.725 8.958-2.249 8.37 4.486 11.953 5.887 8.561 3.35 9.398-3.783 14.273-2.06 3.222 1.137 2.66 2.957 3.945 4.673 1.382 1.844 4.754 1.737 6.489.399 1.552-1.199 2.565-3.903 5.199-4.461 2.42-.514 3.832 1.008 5.193 2.693 2.148 2.844 7.681 2.793 9.875.563 2.578-3.124 6.551-5.357 9.961-1.987 1.238 1.223 4.274 9.236 10.621 5.739 4.04-2.399 8.704-3.525 11.393 1.459 2.533 4.694-2.052 6.306 3.4 12.562 3.037 3.484 9.21.919 10.894 6.144 1.93 5.997-3.51 5.494-2.774 12.904.588 5.928 6.355 5.114 4.54 12.078-1.097 4.203-6.183 4.245-8.442 8.74-3.638 7.243.836 7.344-.899 12.49-1.91 5.668-8.068 7.01-12.67 4.34-1.344.515-.52.45-1.394 1.113-.814.616-.39-.027-1.352.637-.914.632-1.786 2.014-2.435 2.557-1.706 1.426-4.786 1.075-4.1 4.652-1.01.102-.8.097-.959.96-2.206 2.468-1.996 3.386-5.894 3.525-2.732.096-5.655-1.594-6.98-3.934-1.435-2.532-6.519-1.387-9.134-1.416-4.182-.048-3.407.688-5.507 4.068-1.468 2.36-3.56 2.926-6.1 3.77-2.318.77-4.386-.97-6.322-2.342-3.018-2.137-1.852-4.665-7.68-3.936-2.05.258-2.545.86-3.633 2.461-1.461 2.148-4.606 3.691-7.058 2.623a62.088 62.088 0 0 1-1.725-1.105c-2.058-1.626-1.915-5.216-4.516-6.178-1.257-.428-4.94-1.196-6.162-.947-.049.01-.92.324-1.523 2.598-1.722 4.587-2.614 4.475-4.469 4.834-2.059.396-3.873-1.669-5.977-3.912-.574-.615-.254-1.37-.832-1.377-.956-.011-2.727 1.074-2.947 1.205-8.874 5.26-2.834 3.915-.746 6.459 2.836 3.457-4.788 3.65-3.197 8.988 1.692 5.682 5.565-1.383 7.898-1.022 5.117.794 3.928 6.366 7.44 6.149 5.89-.366 2.8-5.135 7.808-5.93 5.424-.86.203 4.597 11.348 4.283 3.223-.07 3.47-4.723 6.442-5.265 8.795-1.606 5.4 3.615 10.625 5.115 5.857 1.681 6.155-2.863 7.548-4.258 1.636-1.637 3.564-2.387 5.815-1.43 2.209.94 2.63 1.582 3.035 4.077.442 2.72 3.121 2.146 5.258 2.164 2.832.021 3.83-1.428 5.346-3.588 2.058-.624 6.294-3.978 9.506 2.41 1.178 2.344 2.303 3.496 4.392 5.068 2.561 1.926 3.536 1.43 6.184.413 5.024-1.928 10.34.233 9.78 6.293-1 10.789 11.763 6.62 11.6 15.395-.06 3.174-2.207 3.81-3.169 6.304-2.53 6.555-.25 8.885 4.086 11.846 4.975 3.397 3.062 9.106-2.32 10.484-2.74.702-3.886.666-5.246 3.416-1.507 3.046-1.496 3.977-.575 7.17 0 4.117-2.237 9.38-7.091 8.69-4.764-.678-12.545-4.213-15.131 2.62-1.424 3.763-3.398 5.731-7.413 5.715-6.616-.026-3.562-6.857-11.828-6.724-6.66.106-3.865 6.598-10.832 7.767-4.91.823-4.319-6.85-10.469-6.601-8.177.332-4.12 6.49-11.307 6.723-3.689.12-4.267-4.796-8.585-5.897-5.64-1.437-5.785 3.602-10.338 6.441-4.027 2.512-6.654-5.15-9.694-4.334-6.812 1.83-6.761 2.956-5.803 4.159 1.254 1.572 1.711 1.718 1.291 3.814-.452 2.255-2.507 2.913-2.957 4.998-.365 1.696.852 2.984 2.034 3.088 1.565.139 5.213-4.264 8.912-3.701 2.613.398 3 3.642 6.34 4.37 5.127 1.12 4.563-.526 6.757-3.29.659-.83 1.63-1.393 2.702-1.692 3.346-.93 3.54 2.27 8.328 3.315 1.76.384 3.564.319 4.838-.662 1.367-1.25 1.352-3.133 3.939-3.598 1.245-.224 4.619.047 5.652.82 1.627 1.215 1.555 3.358 4.159 3.303 2.051-.044 5.42.456 7.058-.682.818-.566 2.72-3.092 3.791-3.494 2.009-.75 4.46.525 5.649 2.051.014.74.732 3.147 1.023 3.649l.896-.13c2.311 4.283 3.799.842 8.239 1.465 4.488.63 2.829 4.298 3.344 6.727l-.704.45c-.77-1.395-2.429 1.352-.043 3.241 3.573 2.832 1.782 2.85 3.706 3.067 3.138.353 1.974-.323 4.308 1.717 2.341 2.048 1.629 2.021 1.629 4.773l-5.547 4.162c-1.8 2.744-.614 6.362 1.96 8.387.728.573 2.214 3.542 2.081 4.47-.29 2.037-1.436 3.086-2.963 4.112-2.577 1.732-3.408.655-6.123.88-2.325.194-4.043 2.344-4.568 4.712-.614 2.766 1.242 4.47-.428 7.562-3.211 6.713-9.83 2.097-14.947 1.172-2.1-.38-5.222 1.5-6.27 4.455-2.247 6.343-8.722 6.828-13.591 3.055-6.278-4.866-11.225 3.109-13.531 4.053-2.107.86-5.203-.15-6.9-1.487-3.051-2.403-1.89-3.615-7.175-4.437-8.727-1.358-5.63 7.5-14.006 5.14-2.6-.732-3.5-3.488-6.625-1.888-3.018 1.546-1.28 5.21-2.056 7.459-1.716 4.075-8.968-.76-5.87 16.352l.905 4.373c-4.04-5.568-9.172-12.953-9.635-19.223-1.371-4.603-2-8.721-2.055-11.678 2.356-.204 5.024.723 7.188.857-1.449-1.95-5.28-2.536-6.961-3.2-.501-1.414 2.178-3.614 3.215-5.263 1.296-2.061 1.323-3.274 1.748-4.605.997.344 1.713 1.675 3.715 3.775-.856-3.317-2.585-5.198-3.059-5.889 3.05-1.327 7.213-1.225 10.863-6.181 1.326 2.32 2.642 5.211 4.143 7.619.511-5.261-.476-6.473-1.082-8.569 6.015-.455 12.097-1.943 16.824-3.337 1.297 1.907 2.19 5.49 2.775 7.671.91-2.874 1.123-6.509-.396-8.56 7.618 1.272 12.923 2.312 18.135-.143.776 1.575 1.485 3.304 2.853 8.338.657-3.643-.062-5.397-.37-9.023 6.259 1.729 9.796 1.627 14.733-.594 1.59 1.745 2.67 3.5 3.385 6.565 1.057-3.147.761-6.496-.455-7.606 1.654-.12 4.523-.272 5.16-3.937 1.783-7.56-4.08-9.962-9.74-10.061-1.518.04-2.859.73-4.22 1.947-.414-1.831-.159-4.246-.359-9.658-1.838 3.138-3.315 10.812-2.998 12.82-5.752-1.812-11.734-3.008-17.59-1.397-.07-1.712-.105-6.667-.24-10.82-2.117 4.891-2.967 10.58-2.654 12.543-8.248-2.265-11.56-2.366-17.967-1.707-.01-1.138.167-3.593 1.941-9.752-3.612 5.043-5.707 9.315-5.867 9.739-5.02-2.115-10.439-5.103-14.814-5.819 1.253-3.264 1.22-2.607 3.008-5.191-2.898.718-5.04 3.244-6 4.658l-2.45-3.57c-1.64-1.916-3.595-4.212-6.384-5.346 3.172-1.6 5.454-2.331 6.781-2.984-4.425-.166-9.356.734-10.953 1.289 0-3.146-.128-6.461-.08-9.56.077-5.009-1.26-6.873-1.693-7.268 2.736-.622 8.064-.305 9.96-.249-2.734-1.529-6.701-2.025-11.545-2.414 2.453-5.341 4.687-10.554 5.44-16.38 2.166.243 4.595 1.724 8.846 3.011-1.903-2.758-6.257-4.646-9.114-5.818 5.931-1.965 12.777-3.33 16.42-7.46 1.21-1.615 1.601-1.715 1.846-2.433.764.96 2.892 2.976 4.58 7 .21-2.5-.828-6.304-2.75-8.17 4.244.499 16.274.202 21.316-2.265 1.662 2.333 2.373 4.204 3.496 9.154 1.28-2.983 1.196-6.874-.89-9.836 7.465 1.007 13.803-.604 19.943-2.209.816 1.49 2.023 5.669 2.943 10.803 1.105-3.778-.004-9.723-.98-11.469 4.33.243 9.208.555 13.38-.502.686 1.682 1.638 4.048 2.27 7.813 1.067-5.587 1.184-7.242.563-8.682 3.195-.076 6.623-.51 8.64-1.084 2.266-.645 3.476-.378 4.412-.963.116.159 2.238 2.412 5.526 8.498-.992-4.242-.833-5.93-2.791-9.205 4.467.383 9.502-3.708 10.553-5.877 1.54.797 3.381 1.8 7.332 6.13-1.233-4.427-3.62-6.66-5.868-8.683-.5-5.117-3.087-6.488-5.164-7.111-1.618-.485-3.598-.772-5.066.076-.464-2.784-1.032-5.355-.621-9.127-2.11 3.985-3.468 10.992-3.627 14.201-7.164-3.726-10.586-3.783-16.674-3.916-.044-2.45.131-8.284.443-10.479-3.442 5.115-3.756 8.623-4.396 13.303-2.052-.991-10.346-.342-15.01.143-.759-4.141-1.252-6.654-1.897-11.174-2.473 5.2-1.205 9.314-.74 12.89-6.442-2.322-13.73-.853-18.688.194-.734-4.992-.745-8.257-.31-13.037-3.6 4.255-2.901 12.394-2.83 13.795-5.2-3.997-13.35-7.319-19.958-7.408.487-4.366.723-5.706 2.46-10.984-2.849 2.418-5.134 7.398-5.62 9.504-3.238-3.275-8.878-8.27-10.54-9.79 2.03-3.963 3.369-5.104 6.05-7.183-4.257.883-6.997 3.112-9.195 4.91.051-8.094 1.217-14.043-2.264-21.389.74-.538 6.085-1.445 9.393-2.14-1.578-1.096-8.195-.742-9.745-.828 1.712-9.067 4.152-12.271 2.358-20.43 3.435-.523 6.116.109 8.455.267-2.263-2.384-5.113-2.657-8.252-2.808 5.265-3.505 9.98-7.472 11.82-13.004.788.205 3.114 1.47 6.287 5.492-1.087-3.487-2.59-6.306-5.539-7.815 3.621-.089 5.137-.208 7.65-.699 4.935-.965 11.64-2.358 14.434-4.385 1.424.733 2.849 4.98 4.809 9.448.631-4.24-.607-8.13-2.674-11.12 2.04-.083 6.682 2.584 14.961-1.154 1.265 2.14 3.286 8.52 3.897 10.535.933-3.493.059-9.5.047-11.363 6.637.936 10.91.555 14.904.6.299.645 1.563 1.555 3.636 9.307.877-3.571.867-8.109.221-10.684 5.731 2.681 13.1 5.625 18.891 4.365 0 0 1.51 3.57 2.17 10.295 2.15-2.281 2.504-7.625.6-11.395.033-.415.352-1.8.947-1.672 2.03.437 2.36.396 4.861.289 2.284-.099 5.778-.078 6.213-3.787.303-2.58-.956-4.6-3.496-5.147.334-2.706.035-4.539-1.602-5.87-2.194-1.787-4.036-1.559-5.726-1.112-.147-1.736 1.219-4.487 2.63-8.342-4.427 2.982-5.964 7.502-7.03 10.773-4.66-2.53-11.12-4.988-14.562-2.443-.173-4.281.178-8.094.235-9.56-2.984 4.743-3.434 7.948-4.346 11.972-4.07-1.854-10.077-2.624-14.438-3.146-.617-3.69-.625-6.585-.254-10.131-2.95 2.937-3.39 6.616-3.449 10.096-4.823-2.232-10.71-3.569-15.77-3.993.809-3.043 1.132-5.207 2.059-8.804a26.142 26.142 0 0 0-5.373 9.623c-4.304-2.848-8.465-3.241-12.928-4.334.466-4.65 1.954-10.125 1.837-10.354-3.506 3.896-4.3 7.454-5.11 10.896-3.034-4.809-7.948-8.973-14.909-11.277.858-2.828 3.122-6.069 5.54-11.102-4.347 2.507-6.882 7.989-8.083 10.332-2.221-6.316-5.194-12.717-10.402-16.527 1.594-1.374 9.104-3.417 11.246-4.65-1.482-.585-8.63 1.42-10.11 1.591-1.518.336-1.797.336-2.067.385.133-3.397-1.427-10.927-2.887-15.041 2.825-.772 6.943-.792 12.324-.961-3.067-1.296-7.713-1.89-12.273-1.686 2.065-4.296 6.217-13.462 6.27-18.645 3.667 1.19 6.108 3.025 9.26 4.94-1.364-3.766-5.43-5.976-8.176-7.276 5.68-1.47 15.402-5.239 19.008-7.794 1.727 2.566 3.69 5.811 4.287 8.05 1.216-2.446-.78-8.524-1.92-9.152 8.6 1.023 17.375 2.797 24.215-.906.628.258 2.904 3.728 4.15 7.713.902-5.264-1.342-7.992-1.705-8.795 6.835 1.761 14.764 1.533 21.781 1.224.895 1.044 3.136 9.384 3.912 10.635.498-5.265.216-6.723.125-7.066-.131-1.613-.562-3.049-.508-4.043 9.144 2.677 15.665 1.973 20.04 1.225 1.534 2.756 2.98 5.937 4.566 10.053.445-4.916-2.036-9.86-3.012-11.822 7.563 1.01 13.475 1.784 18.811-1.118 3.431 1.203 5.447 3.577 7.934 5.64-1.172-3.73-3.864-7.657-7.29-9.362 3.828-2.018 4.325-2.186 7.51-4.614 2.69-2.557 1.857-3.84 2.225-6.156 1.159-.408 5.573-.565 12.381.149-1.457-2.84-12.178-4.699-13.584-4.664-.568-4.732-4.338-10.05-11.416-10.996 0 0 2.57-8.022 4.18-11.607-2.317-.056-7.295 10.19-7.295 10.19s-3.09-1.5-5.26-2.818c.945-4.933 1.546-8.07-4.025-12.45-1.641-1.05-3.032-1.555-6.137-1.735 1.995 1.035 4.223 2.49 5.293 3.552 2.572 2.528 3.126 9.02.867 11.934-2.126 1.908-2.727 2.78-3.79 3.594-5.325-2.422-9.516-6.87-14.735-5.808-1.63.33.156.559-1.244.937-1.03-.204-2.167-.647-2.674.082l.363 1.764c-2.15.539-.83.356-1.597.842-.843.533-1.575-.537-2.371.892.684 1.375 4.743.522 6.228.559 2.278.056 14.283 3.932 7.752 5.758-2.48.692-5.222 1.967-7.773 2.728-11.698 3.488-25.68-1.086-38.031.535-3.661.822-5.653.542-9.295.612-6.428.485-15.17-.597-19.05-6.327 7.851 2.6 28.11 1.695 35.679-3.517 4.206-2.896 7.564-7.106 7.576-12.55.024-10.344-18.452-10.043-26.924-7.673-5.412 1.979-22.027 6.038-27.057-7.328-.51-4.212-4.743-7.103-7.752-8.4-1.603-.692.403-5.657 2.582-7.415 1.19-.96 4.807-1.727 7.672-.947 7.824 2.263 6.097 8.453 6.215 11.162 2.432-4.24.59-8.18-.133-9.32.808-.228 6.88 1.451 7.326 1.75 1.208 1.023 1.552 5.996 2.613 9.369.856-5.219-.008-7.539-.406-8.998 2.45.473 5.764.83 8.34 1.144 1.9 1.484 2.152 4.773 3.223 8.317.442-2.867.216-6.567-1.092-8.414.695-.066 1.418-.038 2.834-.139.262 5.852 4.974 7.337 8.379 7.453.103 3.886.825 6.044 2.361 6.682-.435.784-.579 1.067.037 2.133.976-1.586 10.61-10.875 24.338-12.775 1.645-.007 2.309-.188 5.945-.8-1.544-1.96-8.466-3.801-12.293-3.3-5.436.87-9.823 2.494-15.643 5.158-3.466.892-9.142.296-10.412-2.365-.596-1.322-.535-1.856-.545-3.736-.066-4.43 5.498-6.93 9.108-7.452 1.16-.155 3.367.995 3.367.995 3.656 3.503 8.215 3.395 13.377 2.814 1.945-1.041 4.778-2.78 5.184-3.008.485.714-.18 1.019.96.832.76 3.835 4.254 6.477 7.014 7.293-1.165-1.5-5.047-6.917-5.095-8.798-.06-2.272.235-1.193-1.057-2.49.205-11.124 9.761-22.94 17.682-28.517.99.166.803 9.118-.147 12.174-1.97 6.344-5.307 6.3-6.63 13.078-.482 2.467-1.71 9.735 1.353 11.248-.45-2.135-.5-4.962.145-7.314 1.592-5.806 5.704-12.524 8.906-15.713 2.183-1.176 4.098-2.416 6.498-4.684 1.95-1.846 7.733-8.916 9.244-10.119zm8.039 10.484c.39-.005.73.008 1.002.037-2.327 1.428-4.038 1.863-4.873 2.586-.885.765-.631.991-1.678 1.535l-2.777-.887c.479-2.315 5.6-3.233 8.326-3.271zm-7.823 6.074c1.652.006 2.631.089 4.778.645l.263 1.01-2.568.845-1.164-.953c-1.006.639-3.476 2.224-4.531 2.297-.465-.861-.914-.951-.768-1.984.783-.454.759-.03 1.285-.57.818-.84-.554-.409.762-1.286.768 0 1.393-.006 1.943-.004zm-6.47 5.701c1.562.04 3.407.68 3.816 1.344-.773.478-1.949.561-2.683.201-2.454-1.2-1.513-.005-3.268-.841.361-.533 1.197-.727 2.135-.704zM375.69 83.43c-.364-.016-.817.192-1.367.815-.05-.028-.07-.014-.05.055l.05-.055c.554.317 5.22 6.372 6.222 7.926.957-.34 1.057-.345 1.473-1.28-.662-.641-4.654-5.004-5.135-6.256 0 0-.369-1.168-1.193-1.205zm-11.604.118c-.56-.021-1.118.262-1.588 1.007 1.996 1.267 1.14.4 2.88 2.303l.073-.012c2.361 3.928 3.082 4.872 5.873 8.141 1.043 1.221.547 2.185 2.547 1.389.487-1.004-.081-1.751-1.168-2.8-.921-.887-3.84-6.474-6.236-8.116v-.01c-.515-.99-1.449-1.868-2.381-1.903zm6.256 1.767c-.054.001-.11.004-.164.008-1.267 1.713.218 1.277.76 1.842 2.54 2.117 3.19 6.483 6.536 6.414.328-1.612-.317-.625-1.3-1.865-.939-1.185-2.438-6.46-5.832-6.399zm18.836 4.664c-.684.006-1.302.135-1.858.39-.888.409 1.277 1.363-.392 2.356-1.24.738-2.066-.011-3.274.864-.11 2.968 3.07.515 4.067 1.047 1.584.846.228.474 2.074.558 2.526.116 5.306 2.481 8.285 3.951-.58-3.434-6.626-5.44-9.344-6.207l-.011-1.605c4.642.858 8.725 3.564 11.469 5.765.333-1.262-.097-1.851-1.088-2.687-4.212-2.912-7.486-4.454-9.928-4.432zm-4.692 8.184c1.455.02 3.81.365 4.877 1.058 1.71 1.108 5.75 3.55 6.1 3.95.35.4-1.201 1.2-1.201 1.2s-5.65-3.599-7.1-3.948c-1.45-.351-3.85-1.4-4.15-1.5.236-.691.795-.699 1.474-.76z" fill="#0093dd"/>
<path d="M356.13 66.398c.266.003.547.016.845.037-1.197 2.15-3.642 4.267-5.02 4.695.223-1.05.034-2.701-.614-3.277 1.775-1.039 2.927-1.477 4.789-1.455zm-7.364 2.37c-.358 1.154-.426 3.132.578 4.114-1.84-.334-3.623-.825-3.502-3.07 1.063-.435 1.904-.853 2.924-1.045zm56.514 2.093c3.734-.099 7.459.213 10.455 1.14 5.625 1.742 10.818 3.847 15.748 7.133 6.905 4.603 12.09 10.751 15.691 18.22.253.525.031 1.16-.494 1.413a1.06 1.06 0 0 1-1.412-.494c-3.438-7.128-8.37-12.986-14.96-17.379-4.756-3.169-9.775-5.189-15.2-6.869-5.623-1.741-14.169-1.112-19.844.219a1.058 1.058 0 0 1-.484-2.06c3.026-.714 6.767-1.224 10.5-1.323zm41.838 30.805a1.059 1.059 0 0 1 1.391.547c.528 1.202.917 2.764.986 4.066a1.06 1.06 0 0 1-1 1.113 1.06 1.06 0 0 1-1.113-1c-.056-1.069-.387-2.345-.814-3.335a1.06 1.06 0 0 1 .55-1.391zm1.866 9.488a1.06 1.06 0 0 1 1.1 1.016c.26 6.486-.437 14.219-3.749 19.93-6.703 11.56-18.225 20.999-31.393 23.934a1.062 1.062 0 0 1-1.264-.803 1.06 1.06 0 0 1 .803-1.264c12.587-2.805 23.617-11.88 30.023-22.93 3.088-5.324 3.705-12.734 3.463-18.783a1.062 1.062 0 0 1 1.016-1.1zm-96.615 37.125c5.731.12 12.007 1.198 17.645 2.244a295.457 295.457 0 0 1 19.094 4.19 1.058 1.058 0 1 1-.523 2.049 292.959 292.959 0 0 0-18.958-4.157c-5.518-1.024-11.694-2.091-17.303-2.209-3.79-.078-8.031-.296-11.775.319-2.821.464-5.495 1.448-8.13 2.529-5.23 2.145-9.118 9.419-10.552 14.576a1.06 1.06 0 0 1-2.04-.564c1.131-4.095 3.734-9.126 6.59-12.211 1.464-1.584 3.194-2.936 5.2-3.758 2.79-1.146 5.602-2.17 8.59-2.66 3.896-.64 8.222-.43 12.162-.348zm53.137 7.057a1.059 1.059 0 0 1 .27 2.1c-1.487.193-3.195.337-4.692.255a1.059 1.059 0 0 1 .113-2.113c1.375.073 2.942-.069 4.309-.242zm-85.303 21.156c.577-.08 1.11.325 1.189.902.25 1.79 1.151 4.068 1.984 5.639 2.092 3.941 5.295 6.872 9.46 8.521 6.074 2.407 12.388 4.862 18.815 6.147 4.73.945 9.507 1.791 14.256 2.633 2.767.49 5.535.973 8.307 1.425 1.856.304 3.768.632 5.639.827 6.9.718 13.936 1.75 20.764 2.95 4.208.74 8.473 1.571 12.602 2.68a1.06 1.06 0 0 1-.55 2.045c-4.066-1.093-8.27-1.91-12.417-2.64-6.779-1.19-13.768-2.217-20.617-2.93-1.912-.2-3.865-.532-5.762-.842-2.781-.454-5.56-.939-8.334-1.43-4.764-.845-9.557-1.694-14.3-2.642-6.563-1.313-12.982-3.797-19.185-6.254-4.645-1.84-8.24-5.132-10.566-9.535-.941-1.78-1.913-4.278-2.191-6.305a1.059 1.059 0 0 1 .906-1.191zm102.82 35.26c2.158.842 4.63 2.52 6.345 4.027 4.078 3.584 6.57 8.227 6.928 13.69.294 4.49-.065 9.33-1.902 13.495-.9 2.042-1.816 3.265-3.27 4.881-4.008 4.455-10.68 7.711-16.537 8.54a1.059 1.059 0 0 1-.297-2.097c5.363-.757 11.587-3.775 15.262-7.859 1.3-1.445 2.096-2.484 2.905-4.318 1.693-3.839 1.997-8.37 1.726-12.504-.322-4.902-2.556-9.025-6.213-12.236-1.527-1.343-3.794-2.898-5.716-3.647a1.059 1.059 0 0 1 .769-1.973zm-68.781 40.928a1.059 1.059 0 0 1 0 2.117c-6.776 0-20.995 1.332-25.953 6.29-6.579 6.578-8.692 13.235-8.692 22.452 0 4.067.96 8.089 2.7 11.758.703 1.487 2.225 4.23 3.458 5.361 1.736 1.591 2.89 2.677 5.026 3.868 4.045 2.257 8.696 3.208 13.293 3.353a1.058 1.058 0 0 1-.066 2.115c-4.943-.156-9.912-1.196-14.259-3.62-2.286-1.277-3.56-2.45-5.423-4.157-1.471-1.347-3.102-4.243-3.942-6.014-1.873-3.953-2.902-8.284-2.902-12.664 0-9.78 2.33-16.967 9.31-23.949 5.476-5.476 19.963-6.91 27.45-6.91zm11.604.705c4.717.472 9.45.935 14.176 1.299 4.001.308 8.133.383 12.148.486 2.754.07 5.51.127 8.265.152 1.589.015 3.348.075 4.928-.039.581-.041 1.091.4 1.133.98a1.06 1.06 0 0 1-.983 1.13c-1.64.117-3.45.061-5.097.047a522.008 522.008 0 0 1-8.3-.155c-4.05-.102-8.219-.181-12.257-.492-4.74-.365-9.493-.83-14.225-1.303a1.06 1.06 0 0 1-.948-1.158 1.06 1.06 0 0 1 1.159-.947zm39.14 49.596c5.667-.279 14.574.565 19.253 3.785 6.314 4.348 10.748 9.329 10.959 17.346.18 6.884.434 13.475-5.043 18.506-4.136 3.799-9.348 6.54-14.715 8.135a1.058 1.058 0 0 1-.602-2.03c5.059-1.503 9.988-4.085 13.885-7.664 4.904-4.503 4.519-10.75 4.357-16.893-.192-7.297-4.308-11.708-10.04-15.656-4.239-2.917-12.802-3.667-17.948-3.414a1.063 1.063 0 0 1-1.11-1.005 1.063 1.063 0 0 1 1.005-1.11zm-13.645 1a1.058 1.058 0 0 1 0 2.115c-1.462 0-3.074.201-4.526.373-2.195.259-4.388.571-6.572.908-2.174.336-4.347.698-6.51 1.102-4.697.875-10.082 1.263-14.859 1.418a1.062 1.062 0 0 1-1.092-1.023 1.06 1.06 0 0 1 1.024-1.094c4.677-.154 9.94-.524 14.54-1.381 2.185-.407 4.378-.775 6.573-1.113 2.21-.342 4.426-.658 6.646-.92 1.54-.18 3.227-.385 4.776-.385zm15.56 46.607a1.06 1.06 0 0 1 1.188.91 1.061 1.061 0 0 1-.91 1.188 804.62 804.62 0 0 1-11.73 1.457c-2.996.352-6.017.706-9.025.949-2.775.224-5.555.41-8.334.61-2.455.175-4.913.35-7.365.566-1.232.108-3.046.2-4.228.496a1.061 1.061 0 0 1-1.283-.772 1.061 1.061 0 0 1 .77-1.283c1.315-.33 3.195-.432 4.558-.55 2.464-.217 4.931-.393 7.398-.57 2.772-.198 5.545-.384 8.315-.607 2.982-.24 5.977-.593 8.949-.941 3.9-.459 7.804-.937 11.697-1.453zm-50.712 5.3a1.059 1.059 0 0 1 .305 2.094c-4.19.61-8.525 1.463-12.624 2.489-2.801.701-6.074 1.602-8.65 2.91-6.297 3.196-11.454 7.132-11.922 14.721-.452 7.313.66 16.409 9.174 18.301 2.117.47 4.249.956 6.38 1.367.732.14 1.462.272 2.206.319.522.032 1.043.051 1.564.091 1.104.086 2.396 0 3.504-.058 1.781-.092 3.563-.222 5.34-.362a492.14 492.14 0 0 0 7.674-.677c1.289-.123 3.068-.21 4.334-.471a1.058 1.058 0 0 1 .601 2.027c-.247.083-.63.118-.887.149-1.277.16-2.566.28-3.847.402a480.59 480.59 0 0 1-7.71.68c-1.797.142-3.596.273-5.396.365-1.205.063-2.575.149-3.777.057-.512-.04-1.021-.058-1.533-.09-.839-.052-1.65-.195-2.473-.354-2.152-.413-4.303-.904-6.441-1.379-9.693-2.153-11.347-12.048-10.826-20.498.518-8.409 6.073-12.92 13.078-16.479 2.729-1.385 6.127-2.331 9.093-3.074 4.17-1.044 8.573-1.91 12.832-2.53zm24.229 38.864c15.096-1.066 31.309 4.886 30.08 22.855-.484 7.06-5.193 13.753-11.891 16.22-9.791 3.609-22.036 5.439-32.373 5.366a1.061 1.061 0 0 1-1.051-1.067 1.061 1.061 0 0 1 1.066-1.05c10.092.065 22.067-1.713 31.625-5.235 5.914-2.179 10.082-8.147 10.51-14.379 1.132-16.54-14.088-21.568-27.818-20.6-2.55.179-5.142.459-7.676.819a1.06 1.06 0 0 1-1.197-.899 1.06 1.06 0 0 1 .898-1.195c2.583-.367 5.227-.653 7.827-.836zm-27.576 42.924a1.06 1.06 0 0 1 1.058 1.056c0 .583-.476 1.059-1.058 1.059-3.835 0-10.164.343-13.74 1.637-2.548.92-4.922 1.676-7.215 3.189-3.121 2.061-5.305 5.011-7.006 8.303a1.058 1.058 0 0 1-1.879-.973c1.873-3.622 4.285-6.831 7.719-9.098 2.46-1.623 4.932-2.423 7.66-3.41 3.841-1.389 10.344-1.764 14.461-1.764z" fill="#fff"/></g></svg>
