<?xml version="1.0" encoding="UTF-8"?>
<svg width="500" height="600" xmlns="http://www.w3.org/2000/svg">
 <path d="M3.524 3.538v358.45c0 129.92 110.36 235.25 246.47 235.25 136.13 0 246.47-105.32 246.47-235.25V3.538z" fill="#1c63b7"/>
 <path d="m276.95 456.09v25.31h-97.302l16.623-25.31z" fill="#f00000" stroke="#000" stroke-width="2.5"/>
 <path d="M276.95 434.55v46.853h-92.794v45.893h92.794v.037h38.886V434.55" fill="#fff" stroke="#000" stroke-width="2.5"/>
 <path d="m292.31 461.45h8.192v-14.912h-8.192zm0 41.396h8.192v-14.94h-8.192z"/>
 <g stroke="#000" stroke-width="2.5">
  <path class="st2" d="m315.84 433.52h-38.886l19.354-34.587z" fill="#f00000"/>
  <path d="m475.64 3.538-225.63 214.54L24.38 3.538H3.54v94.96l186.09 176.99-172.42 163.95a254.63 236.71 0 0 0 43.671 73.39l189.2-179.88 189.11 179.82a254.77 236.83 0 0 0 43.601-73.332l-172.35-163.91 186.04-176.86V3.537z" fill="#fcdb00"/>
  <path class="st6" d="m249.99 597.24a240.15 223.25 0 0 0 95.349-18.25l-29.517-51.674h-131.68l-29.503 51.674a240.03 223.14 0 0 0 95.346 18.25" fill="#094"/>
 </g>
 <path d="M3.525 3.528v358.01c0 129.76 110.35 234.94 246.47 234.94s246.47-105.19 246.47-234.94V3.528z" fill="none" stroke="#000" stroke-width="7"/>
</svg>
