<?xml version="1.0" encoding="UTF-8"?>
<svg width="720" height="870" version="1.1" xmlns="http://www.w3.org/2000/svg">
<path d="M7 7v503.05C7 704.98 165.04 863 360 863s353-158.02 353-352.95V7z"/>
<path d="M128.62 51.392c-.855.022-1.684.147-2.457.418-3.325 1.512-3.282 6.005-3.316 9.09.962 3.368 1.78 6.608 3.584 9.658 3.394 5.851 8.042 9.949 12.51 14.924 5.963 6.642 12.406 12.828 18.283 19.547 5.576 5.61 10.535 11.755 16.197 17.297a584 584 0 0 0 23.697 24.436c-4.623 4.047-9.014 8.575-14.178 11.926-.344-3.488 1.752-5.345 2.74-8.344-.37-1.512-1.813-2.808-2.844-3.908-6.152-5.929-11.608-12.494-17.734-18.336-1.409-1.366-3.05-2.354-4.777-3.256-1.787.962-3.548 2.122-5.455 2.826a11.8 11.8 0 0 1-2.467-1.185c1.572-2.165 3.283-4.21 4.967-6.282-2.853-5.224-7.68-9.563-11.66-13.988-4.312-4.227-7.99-9.355-12.733-13.033-1.238-.859-3.059-2.328-4.631-1.744-2.827 1.41-4.708 3.505-8.12 3.471-.06-1.134-.112-2.276-.146-3.41 1.779-1.504 3.79-2.991 5.268-4.787-.026-.8-.337-1.537-.93-2.233-3.342-4.27-7.603-7.854-11.357-11.78-5.06-5.225-11.05-9.374-18.096-11.419-3.772-1.1-8.069-1.022-11.317 1.418-2.2 1.848-2.285 5.052-2.113 7.69.679 7.063 3.643 13.463 8.008 18.996 5.19 6.53 10.587 12.905 15.785 19.435 3.505 4.236 6.701 8.74 10.336 12.838 12.544 12.639 23.852 26.618 35.93 39.696 3.833 4.133 7.64 8.995 12.005 12.904 1.898 1.882 4.226 1.263 6.7 1.658-2.68 4.691-6.358 8.763-9.245 13.351-.79.138-1.58.284-2.362.422-.171-2.698.025-5.362.188-8.05-8.403-8.945-17.225-17.537-25.328-26.8-3.196.035-5.363 1.693-7.846 3.463q-1.226-.567-2.465-1.135c.8-2.363 2.234-3.934 3.883-5.713 1.1-1.082.894-2.122.06-3.273-1.692-2.63-3.925-4.649-6.03-7.08-4.537-5.319-9.125-10.715-14.254-15.467-2.492.326-5.638 1.77-8.061.902-.25-.996-.344-2.01-.447-3.033a431 431 0 0 1 4.675-1.658c.12-.516.232-1.03.352-1.555-5.782-6.856-10.988-14.279-17.14-20.8-3.626-3.713-8.353-7.39-13.894-6.128-4.03 1.057-5.55 4.898-5.318 8.756.36 6.642 4.588 13.411 7.94 18.996 3.754 6.479 7.87 12.733 11.692 19.178 2.294 3.781 4.34 7.45 7.295 10.766 10.706 12.192 21.49 24.317 32.522 36.217 4.313 5.139 9.168 9.718 13.773 14.572a92 92 0 0 0 6.322 6.092c-.54 4.855-.669 9.4-2.722 13.918a368 368 0 0 1-3.059.293c-1.581-4.055-.44-9.107-3.885-11.779-3.78-3.677-7.576-7.355-11.512-10.869-1.151-.859-2.175-2.208-3.773-1.744-2.45.997-4.51 2.492-7.217 2.887-.086-1.1-.18-2.2-.266-3.299.954-1.375 2.036-2.732 2.758-4.244-.137-2.268-2.492-4.434-3.935-6.049-3.377-3.514-6.72-7.03-10.26-10.38-1.985-1.848-3.874-4.434-6.34-5.62-3.076-.559-5.68 2.328-8.928 2.457q.038-1.343.078-2.672c1.228-1.151 2.456-2.303 3.693-3.445-.335-2.716-2.044-4.39-3.84-6.272-5-4.88-9.942-9.468-16.592-12.012-3.205-.722-7.422-1.924-10.43-.111-2.646 1.469-3.05 4.914-2.603 7.62 1.1 6.857 5.97 13.437 10 18.936 4.399 6.16 9.668 11.472 14.71 17.074 11.214 11.728 21.893 23.98 32.624 36.147 8.755 9.477 17.467 20.387 27.322 29.375 14.632 12.252 27.676 26.919 41.277 40.34 10.199 8.97 20.552 17.478 32.229 24.48 8.369 4.976 17.812 9.719 27.504 11.239a25.63 25.63 0 0 0 18.903-4.444c4.768-3.41 7.794-8.033 11.96-11.995 1.522 1.109 3.9 2.14 4.056 4.288.824 4.803-2.982 8.557-6.247 11.453-2.792 2.629-6.092 4.434-9.16 6.66-1.04.833-.334 2.474.336 3.316 10.242 11.814 20.475 23.56 31.215 34.935 2.836 3.102 5.525 6.323 8.48 9.312 17.03-.009 34.05-.007 51.072-.015 0-30.132.018-60.274-.033-90.406-6.419-6.04-12.355-12.923-19.504-18.096-4.649 4.433-10.053 7.897-15.818 10.689-1.727.91-3.481.859-5.371.798.317-1.855.465-3.78 1.925-5.138 2.174-1.899 4.905-3.084 7.157-4.897 3.041-2.388 6.048-5.576 7.406-9.253.636-2.466.216-5.293-.05-7.793-3.137-19.272-5.25-38.811-8.66-58.05-1.135-5.524-2.364-11.391-4.735-16.538-2.904-6.556-7.579-12.597-11.213-18.87-5.362-8.884-9.934-18.153-14.72-27.347-1.924-3.798-4.914-6.377-7.86-9.375-5.99-5.791-11.893-11.488-17.47-17.734-2.895-3.403-6.031-6.572-9.064-9.854-3.033-3.153-5.559-6.547-9.047-9.253-3.256 5.138-4.235 8.746-3.771 14.924 1.108 4.846 1.985 9.53 4.365 13.963 3.574 6.65 8.402 12.725 13.85 17.932 3.755 3.926 7.672 8.634 9.33 13.875 1.933 5.318 2.235 11.23 1.22 16.772-1.108 4.27-2.792 8.361-3.702 12.709-2.56 10.396-1.469 21.359 1.392 31.567 1.521 5.576 4.75 10.44 5.283 16.008-.446.532-.893 1.074-1.332 1.615-1.443-.284-2.843.138-3.728-1.254-6.599-8.644-9.907-20.081-10.637-30.83-.404-9.855-.362-19.195 3.582-28.414-3.17-2.698-7.259-6.313-11.47-6.95-2.99.662-5.318 4.39-6.864 6.821-6.771 11.453-9.907 25.21-9.28 38.467.344 10.68 3.05 21.404 6.77 31.38 1.64 4.553 4.004 8.746 5.464 13.368-.54.438-1.091.867-1.632 1.297-3.944-3.445-5.586-7.775-7.897-12.32-3.102-6.47-6.477-12.432-8.6-19.34-2.68-8.395-3.075-17.683-2.5-26.422.567-8.128 3.067-15.483 5.73-23.096 2.621-7.372 7.2-14.323 13.438-19.117-2.724-3.806-6.144-6.848-9.168-10.396-4.777-5.258-9.793-10.284-14.588-15.525-1.366-1.323-2.871-3.256-4.719-3.832-3.565-.077-6.142 4.142-9.717 2.578-.988-3.488 5.284-4.607 5.448-7.846-1.487-2.14-3.523-3.935-5.319-5.808-4.914-4.83-9.768-9.718-14.752-14.47-1.538-1.305-3.316-3.247-5.533-2.826-2.036.379-3.884 2.064-5.611 3.112-.284-.765-1.46-1.995-.86-2.803 1.109-1.701 2.647-3.152 4.004-4.664-3.909-4.201-8.042-8.18-11.943-12.39-2.388-2.424-4.793-5.18-7.697-6.985-3.334-1.444-6.196 2.749-9.375 3.642.103-1.95-.473-3.72 1.04-5.25 1.262-1.967 4.099-3.11 1.84-5.593-6.711-6.754-13.647-14.478-22.806-17.562-2.268-.735-5.073-1.609-7.639-1.543zm236.62 349.11s.059 60.282-.027 90.432c112.75.152 338.25.07 338.25.07l-.008-90.655-338.22.155z" fill="#fff"/>
<path d="M16.818 7c.038 121.64.007 243.27.023 364.91-.008 5.293-.11 10.578.147 15.87 90.13-.12 180.26.053 270.38-.11-7.475-8.404-15.018-16.747-22.46-25.184-4.312-4.553-8.247-9.538-12.792-13.85-3.076-3.343-8.731-2.877-12.941-4.235-13.13-3.798-25.568-10.466-36.824-18.156-7.57-5.379-15.345-11.032-21.953-17.562-11.273-11.067-22.305-22.372-33.647-33.361-7.621-7.888-16.17-14.686-23.422-22.977-17.133-19.959-34.102-40.41-52.506-59.192-5.404-5.911-10.14-12.362-14.4-19.133-3.566-5.774-6.797-11.729-7.424-18.611-.36-3.884.404-8.067 2.887-11.16 2.638-3.196 7.123-4.709 11.153-4.795 4.726-.12 9.675 1.864 14.246 3.084-3.12-7.149-7.733-13.214-11.41-20.053-3.291-5.98-7.012-12.58-7.545-19.496-.404-5.293.92-10.663 5.19-14.125 4.003-3.188 8.531-3.61 13.411-4.254-1.855-4.734-3.711-9.124-4.072-14.279-.498-5.404 1.074-11.29 5.336-14.899 4.76-3.78 11.54-4.64 17.28-2.879 6.77 1.976 12.922 6.428 18.824 10.156.224-5.55-.103-11.102 3.635-15.664 2.775-3.565 6.977-4.493 11.299-4.459 7.252.327 13.679 3.214 19.539 7.32 12.562 9.228 22.124 20.476 32.709 31.706 4.812 5.198 10.277 9.813 15.467 14.633 17.347 16.11 32.992 33.43 49.437 50.229 2.595 2.835 5.165 5.695 7.914 8.402 3.712 3.652 6.917 7.553 11.059 10.758-1.203-6.788-6.152-13.009-10.715-17.967-6.453-6.35-12.107-12.956-15.467-21.488-3.162-8.05-4.674-17.218-3.127-25.801.619-4.064 1.95-8.92 5.147-11.72 1.847-1.761 4.58-2.285 6.95-1.383 1.582.8 2.94 2.174 4.186 3.403 10.594 11.17 21.282 22.27 32.297 33.01 4.34 4.373 10.207 8.318 12.785 13.869 4.33 8.471 8.557 16.943 13.704 24.959 3.772 6.426 8.086 12.493 12.004 18.817 4.83 7.844 7.398 16.575 8.739 25.63 2.938 18.904 5.824 37.806 8.874 56.7.602 2.981.542 6.77 2.905 8.928 3.247 3.316 6.908 6.22 10.268 9.416.092-91.643.046-183.34.03-275zm348.77 499.41c-.71 118.81-.339 237.64-.39 356.46 164.24-2.379 301.26-116.85 338.02-270.36.293-5.661.536-11.328.536-16.974.018-23.113 3.967-69.338 3.967-69.338z" fill="#f00000"/>
<path d="M7 7v503.05C7 704.98 165.04 863 360 863s353-158.02 353-352.95V7z" fill="none" stroke="#000" stroke-width="14"/>
</svg>
