<?xml version="1.0" encoding="UTF-8" standalone="no"?>
<svg
   xmlns:dc="http://purl.org/dc/elements/1.1/"
   xmlns:cc="http://creativecommons.org/ns#"
   xmlns:rdf="http://www.w3.org/1999/02/22-rdf-syntax-ns#"
   xmlns:svg="http://www.w3.org/2000/svg"
   xmlns="http://www.w3.org/2000/svg"
   xmlns:sodipodi="http://sodipodi.sourceforge.net/DTD/sodipodi-0.dtd"
   xmlns:inkscape="http://www.inkscape.org/namespaces/inkscape"
   width="410"
   height="487"
   version="1.1"
   id="svg26"
   sodipodi:docname="CHE_Mezzovico-Vira_COA.svg"
   inkscape:version="1.0.2-2 (e86c870879, 2021-01-15)">
  <metadata
     id="metadata32">
    <rdf:RDF>
      <cc:Work
         rdf:about="">
        <dc:format>image/svg+xml</dc:format>
        <dc:type
           rdf:resource="http://purl.org/dc/dcmitype/StillImage" />
      </cc:Work>
    </rdf:RDF>
  </metadata>
  <defs
     id="defs30" />
  <sodipodi:namedview
     pagecolor="#ffffff"
     bordercolor="#666666"
     borderopacity="1"
     objecttolerance="10"
     gridtolerance="10"
     guidetolerance="10"
     inkscape:pageopacity="0"
     inkscape:pageshadow="2"
     inkscape:window-width="1920"
     inkscape:window-height="986"
     id="namedview28"
     showgrid="false"
     inkscape:zoom="0.56975924"
     inkscape:cx="-91.923384"
     inkscape:cy="579.95974"
     inkscape:window-x="-11"
     inkscape:window-y="-11"
     inkscape:window-maximized="1"
     inkscape:current-layer="svg26" />
  <path
     d="m6.951 7.698h396.1c1.462 297.07-41.075 471.44-199.44 471.47-143 2.583-188.46-133.89-194.75-185.36z"
     fill="#fff"
     id="path2" />
  <path
     d="M203.05 7.698h200l-2.776 318.21c-.479 54.823-69.501 145.3-196.66 153.26z"
     fill="#0093dd"
     id="path4" />
  <rect
     style="fill:#fcdb00;fill-opacity:1;stroke-width:6.8;stroke-linecap:round;stroke-linejoin:round;paint-order:markers fill stroke"
     id="rect857"
     width="24.074711"
     height="65.997475"
     x="287.35068"
     y="382.0163" />
  <path
     d="M345.58 32.938c11.081 8.085 20.284 19.984 23.099 33.533 1.372 18.519-1.063 33.93-13.688 48.37-9.24 9.635-21.257 15.776-34.719 17.276h-6.246v29.007h63.241c.488 24.552.488 24.552.6 33.703l.025 1.955c.255 21.329.275 42.661.296 63.991.004 4.014.012 8.028.022 12.042.012 4.978.018 9.955.017 14.933 0 2.584.002 5.168.01 7.753.07 26.167.07 26.167-4.19 37.42l-.722 1.95c-7.022 18.307-21.287 34.325-39.585 42.515-1.103.436-2.21.865-3.318 1.288l-1.778.776a96.75 96.75 0 0 1-16.08 3.78c-8.215 1.21-16.578 1.388-24.41.416a75.99 75.99 0 0 1-2.125-.293c-3.567-.546-7.01-1.338-10.259-2.388l-1.502-.484c-11.237-3.693-20.46-9.778-28.947-17.837l-1.446-1.27c-13.297-12.05-21.422-31.37-22.188-48.879-.103-4.009-.08-8.016-.055-12.026l-.001-4.585c0-4.111.013-8.222.03-12.332.014-4.31.015-8.621.018-12.931.007-8.145.027-16.29.05-24.435.026-9.28.04-18.56.051-27.84.024-19.074.067-38.148.118-57.222h62.46V103.11c16.98-.096 16.98-.096 22.28-.09 10.805-.09 17.64-1.383 26.126-8.307 4.77-5.54 6.538-12.383 6.246-19.513-.82-7.116-3.549-12.283-9.275-16.77-6.421-4.347-11.839-5.09-19.516-5.129l-2.32-.047c-5.423-.03-8.717.79-13.1 4.055-2.619 3.235-3.725 6.781-4.977 10.687l1.623-.74c4.813-1.66 10.569-1.79 15.35.024 3.988 2.412 7.27 5.473 8.792 9.876.74 5.152.705 10.166-2.083 14.72-2.972 3.742-6.36 6.49-11.19 7.416-7.616.856-14.803-1.096-20.983-5.534-6.416-5.331-10.79-12.175-11.809-20.419-.126-2.609-.144-5.212-.146-7.824l-.029-2.06c-.026-11.738 3.726-20.931 12.121-29.445 3.305-2.965 6.708-5.236 10.696-7.234l1.995-1.002c15.584-6.36 37.933-1.847 51.419 7.162zM122.72 24.992a20.034 20.034 0 0 1 7.762 9.262c.546 4.945.569 9.304-2.318 13.51l2.318-.188c3.61.028 6.374 1.126 9.275 3.19 3.888 4.135 5.525 7.045 5.556 12.666l.033 2.809c-.165 2.344-.447 3.59-1.724 5.54l2.367.188c5.444.79 8.786 3.586 12.19 7.556 2.696 3.785 2.138 8.9 1.673 13.272-1.787 5.003-4.76 8.279-9.613 10.695-2.283.649-4.251.67-6.618.563l.752 1.184c1.838 4.208 1.678 9.948.09 14.216-2.746 4.486-6.548 7.685-11.663 9.367-1.992.279-1.992.279-4.057.329l-2.041.09c-2.404-.419-2.404-.419-9.36-4.171l-.773 32.274c10.116-.06 10.116-.06 20.231-.136 1.282-.005 2.565-.009 3.847-.01.649-.009 1.297-.016 1.965-.024 13.52-.004 25.36 6.058 35.113 14.853 10.73 10.845 14.36 24.217 14.155 38.859-.032 1.417-.064 2.834-.098 4.251-.019 1.464-.037 2.928-.053 4.392-.042 3.54-.108 7.08-.188 10.619-5.21.077-10.42.129-15.63.165-1.768.015-3.536.035-5.304.061-18.849.272-18.849.272-26.987-3.228l-2.853-1.152c-9.274-4.791-19.972-12.805-23.426-22.865l-.773 27.02 6.214-.08c2.023-.017 4.047-.031 6.07-.044 1.388-.011 2.777-.027 4.165-.046 10.79-.15 21.117.107 30.892 5.142l1.565.786c4.69 2.455 8.47 5.515 12.154 9.253l1.651 1.56c11.617 11.602 12.617 25.721 12.406 41.033a2976.76 2976.76 0 0 0-.031 4.433c-.026 3.589-.065 7.177-.113 10.766-5.334.077-10.667.13-16.002.165-1.812.015-3.623.036-5.433.062a870.69 870.69 0 0 1-7.852.066l-2.416.047c-12.668.004-24.418-6.155-33.32-14.67-3.87-4.043-6.114-7.732-9.178-12.69l-.773 27.02 6.356-.105c2.072-.024 4.144-.042 6.217-.06 1.42-.014 2.84-.035 4.26-.061 17.403-.314 31.603 3.49 44.614 15.284 12.974 13.033 14.442 28.533 14.347 45.784l-.01 3.704c-.01 3.003-.022 6.006-.038 9.008-4.727.076-9.453.13-14.181.165a681.73 681.73 0 0 0-4.807.062c-17.514.28-32.77-2.252-45.923-14.32-4.21-4.065-7.415-8.538-10.061-13.677l.085 43.532h-5.474l-.022-42.781-5.41 8.256c-7.849 9.387-19.332 16.1-31.689 18.013-2.878.185-5.742.176-8.626.147l-2.413-.007c-2.52-.01-5.04-.028-7.56-.047-1.717-.008-3.436-.014-5.154-.02-4.192-.017-8.383-.042-12.573-.074-.078-4.51-.133-9.02-.17-13.532-.016-1.53-.037-3.06-.064-4.59-.283-16.475 2.562-28.606 14.602-40.96 13.098-12.038 27.291-14.091 44.566-13.861l4.454.03c3.604.023 7.207.067 10.812.11l-.773-27.02-3.865 6.755c-2.137 2.68-4.515 5.086-6.956 7.506l-1.217 1.263c-2.977 2.8-6.526 4.562-10.184 6.383l-1.507.758c-7.247 3.462-14.285 4.697-22.318 4.575l-2.458-.01c-2.56-.012-5.118-.04-7.677-.07-1.749-.01-3.497-.021-5.246-.03-4.257-.025-8.515-.062-12.773-.11-.058-3.856-.1-7.711-.127-11.567a580.524 580.524 0 0 0-.048-3.92c-.158-10.44.018-20.977 5.2-30.437l.797-1.497c6.231-11.105 17.256-20.056 29.69-23.82 8.246-1.889 16.25-1.82 24.679-1.703 1.44.011 2.88.022 4.32.03 3.488.023 6.974.068 10.46.11v-27.77h-1.545l-.561 1.956c-4.135 10.703-14.594 17.624-24.655 22.596-10.19 3.78-19.836 3.485-30.627 3.36l-5.124-.03c-4.154-.025-8.307-.063-12.46-.11-.077-4.404-.133-8.808-.17-13.212a577.992 577.992 0 0 0-.063-4.481c-.312-17.701 3.822-29.793 16.304-43.076 9.597-9.073 22.917-12.192 35.862-12.109l1.728.003c2.096.004 4.192.014 6.288.024l14.25.047v-33.024l-7.728 4.503c-5.4.519-9.22.392-13.912-2.251-3.676-3.072-6.704-6.274-7.313-11.053l.067-2.926.03-2.938c.233-2.332.533-3.652 1.805-5.6l-1.932.235c-4.656-.404-8.126-2.913-11.111-6.333-3.802-4.995-3.753-8.786-3.188-14.917 1.408-4.75 5.773-8.255 10.084-10.628 1.867-.78 3.363-.739 5.374-.63L83.332 70c-1.289-4.536-1.598-8.98.386-13.369 3.176-5.345 7.731-8.405 13.767-10.059l1.305-.308-.773-1.876c-1.498-5.092-1.226-8.699 1.386-13.27 5.61-8.217 14.262-10.496 23.314-6.124z"
     id="path6" />
  <path
     d="M276.55 165.7h46.064v69.463h50.749v45.8h-50.749v96.18c-9.132 2.26-15.446 3.454-22.56 3.36-7.334-.188-16.886-.888-23.504-4.123V280.2h-50.749v-45.037h50.749z"
     fill="#f00000"
     id="path8" />
  <path
     d="m310.7 28.018 2.836-.027c13.83.044 26.34 4.621 36.396 14.053 10.304 10.473 15.304 22.968 15.325 37.405-.394 11.253-4.597 22.096-12.202 30.532l-1.226 1.613c-7.13 9.021-18.89 13.771-30.004 15.944h-11.71v33.587h-21.08v-53.433c14.443-.238 14.443-.238 18.964-.296l3.604-.076 1.844-.015c4.308-.109 7.535-1.01 11.502-2.666l2.126-.844c7.778-3.517 11.83-9.063 15.05-16.713 2.135-7.39 1.812-15.679-1.512-22.614-4.718-7.996-11.41-12.809-20.519-15.255-3.26-.448-6.495-.5-9.784-.537l-2.025-.067c-6.114-.059-10.473 1.741-15.542 4.981-4.245 4.339-6.28 8.658-6.392 14.694.066 2.883.398 4.855 1.903 7.348l1.113-.976 1.473-1.267 1.455-1.261c2.717-2.054 5.59-2.188 8.905-2.156 4.185.7 7.011 3.627 9.695 6.661 1.594 4.188 1.371 8.139-.487 12.213-1.475 2.938-3.632 4.317-6.54 5.868-6.25.985-12.287.593-17.788-2.585-6.789-4.834-11.034-10.672-12.66-18.788-.237-2.754-.254-5.49-.244-8.253l-.038-2.16c-.007-9.895 3.804-18.38 10.569-25.723 8.175-7.274 16.258-9.287 26.994-9.187z"
     fill="#fcdb00"
     id="path10" />
  <path
     d="M327.3 284.78h46.064l.049 15.601.021 4.883.006 3.892.012 1.992c.003 19.347-8.881 35.556-22.193 49.483-5.29 5.067-15.898 14.223-23.959 14.223V284.78zM226.58 284.78h46.064v90.073c-10.159-3.31-17.492-8.793-24.984-16.03-11.472-10.588-19.121-28.815-21.08-41.983-.102-2.487-.091-4.971-.076-7.46l.002-1.896c.004-2.32.015-4.64.025-6.96zM327.3 165.7h46.064v65.647H327.3V165.7zM225.8 165.7h46.064v65.647H225.8V165.7z"
     fill="#fff"
     id="path12" />
  <g
     fill="#094"
     id="g18">
    <path
       d="m90.583 307.36 2.17.02c1.757.018 3.513.043 5.27.074l-2.03 2.064c-7.694 8.998-7.905 17.267-7.825 28.474a982.888 982.888 0 0 1-.024 6.516c-.008 1.342-.007 2.683.005 4.025-.004 6.648-.864 12.25-5.422 17.399-9.269 6.697-15.612 6.397-28.173 6.364 0 0 3.277-2.547 5.064-4.235 5.277-5.244 6.036-10.434 6.132-17.55l.077-3.853c.037-2.005.071-4.011.102-6.017.336-21.078.336-21.078 6.626-27.233 5.82-5.308 10.216-6.189 18.028-6.048zM131.26 234.65c17.521-.805 17.521-.805 23.187 3.753 5.13 4.761 8.28 8.8 8.567 15.848.021 1.865.021 3.73.016 5.596.01 1.415.022 2.83.035 4.245a537.8 537.8 0 0 1 .02 6.624c-.153 13.446-.153 13.446 6.775 24.731 2.003 1.685 3.487 2.822 5.895 3.834l-1.985-.083a424.21 424.21 0 0 1-7.295.187l-2.057.077c-6.037.086-10.833-1.443-15.623-5.05-4.664-4.422-7.516-9.729-7.773-16.083a248.497 248.497 0 0 1-.001-3.967l-.04-4.364c-.009-2.266-.011-4.532-.01-6.798a740.8 740.8 0 0 0-.046-6.617l.019-2.026c-.074-6.11-1.942-11.265-6.35-15.732-2.519-2.592-2.519-2.592-3.334-4.175zM131.26 161.85c2.56-.11 5.12-.176 7.68-.235l2.17-.095c6.395-.109 10.563 1.681 15.315 5.795l1.452 1.665 1.495 1.666c3.037 4.13 3.031 7.883 3.043 12.792l.06 4.375c.021 2.284.04 4.568.054 6.853.017 2.215.048 4.43.08 6.644v2.036c.116 7.31 1.945 12.78 6.524 18.549l3.865 4.503c-17.535.534-17.535.534-24.202-4.55-3.763-3.469-7.22-8.983-7.59-14.124l-.008-1.606-.016-1.832-.01-1.975-.056-4.175c-.027-2.186-.05-4.37-.06-6.556.197-14.16.197-14.16-6.898-26.07-2.898-2.886-2.898-2.886-2.898-3.659zM89.569 161.61l2.25.051c1.812.044 3.62.105 5.43.184l-.953 1.04c-3.089 3.402-3.089 3.402-5.423 7.31l-.688 1.413-.664 1.495-.805 1.48c-1.095 3.358-.925 6.592-.898 10.092l-.027 4.683c-.008 2.448-.01 4.895.006 7.342.012 2.372-.006 4.742-.027 7.114l.036 2.185c-.08 5.502-1.765 9.297-5.242 13.638-6.522 6.141-13.228 6.992-21.96 6.87-1.44-.03-5.686-.072-7.126-.115l2.807-1.501 2.126-1.642c4.18-3.264 6.08-7.572 7.15-12.619.212-2.5.214-4.991.21-7.5l.049-4.371c.017-2.274.03-4.548.035-6.823.007-2.21.033-4.42.062-6.631l-.012-2.034c.102-6.416 2.287-11.779 6.813-16.505 5.186-4.512 10.05-5.455 16.851-5.157zM132.03 307.45c16.216-.577 16.216-.577 21.642 3.002l2.077 1.22c4.362 4.35 7.304 9.47 7.283 15.589l.001 1.96-.005 2.106c.01 1.489.022 2.977.035 4.466.017 2.333.028 4.666.019 7 .632 15.095 2.1 24.666 13.479 29.399-12.457-.254-19.311.698-25.208-3.196l-2.512-1.689c-3.663-3.556-6.558-7.507-6.854-12.653l.006-1.716-.001-1.96.005-2.106c-.01-1.489-.022-2.977-.035-4.465a600.513 600.513 0 0 1-.019-7c.128-12.671.128-12.671-5.275-23.951l-1.33-1.859a82.446 82.446 0 0 0-3.307-4.146zM89.762 234.56l2.181.02c1.77.018 3.538.043 5.307.074l-.938 1.181c-2.173 2.768-4.253 5.46-5.874 8.576l-.933 1.736c-1.763 4.694-1.64 9.806-1.666 14.747l-.056 3.84c-.027 1.988-.05 3.975-.06 5.963-.1 15.945-.1 15.945-5.22 22.215l-1.678 1.363-1.654 1.405c-5.183 3.262-9.839 3.839-15.93 3.661l-2.037-.03c-1.64-.026-3.28-.067-4.919-.11l.955-1.077a32318.108 32318.108 0 0 1 2.503-2.826c8.19-9.379 6.929-20.896 6.869-32.482-.053-16.83-.053-16.83 6.122-23.236l1.715-1.173 1.715-1.22c4.59-2.686 8.344-2.72 13.598-2.626z"
       id="path14" />
    <path
       d="M116.57 307.45c1.093.095 2.186.197 3.279.302l1.844.17c5.336.811 8.747 3.662 12.234 7.49 3.269 4.919 3.835 9.406 3.771 15.103l.03 4.22c.003 2.185 0 4.37-.01 6.555-.032 9.71.167 17.848 5.904 26.204-11.8-2.85-20.87-16.512-20.87-16.512-5.861-9.961-6.629-19.919-6.376-31.1.016-1.215.03-2.43.043-3.644.033-2.93.086-5.858.15-8.788zM112.71 307.45c1.013 36.276 1.013 36.276-10.821 49.536-4.16 4.197-8.618 7.754-13.912 10.508l-2.836 1.46 2.108-3.773 1.066-2.05 1.06-2.031c1.268-2.565 1.79-4.549 1.803-7.363l.017-1.982.01-2.14c.017-1.5.036-3.002.055-4.503.027-2.361.05-4.723.06-7.085.012-2.282.044-4.564.078-6.847l-.005-2.112c.123-6.454 2.221-11.896 6.761-16.684 4.53-3.78 8.667-5.025 14.556-4.934zM116.57 161.85c6.582-.111 10.466 1.363 15.38 5.84 5.115 5.525 5.58 11.485 5.68 18.641a1835.252 1835.252 0 0 1 .178 9.662c.03 1.909.07 3.817.11 5.725.008.578.014 1.157.02 1.753.117 5.015.94 9.725 3.414 14.201l.8 1.472.697 1.25.773 1.5c-3.712-1-6.547-2.559-9.565-4.831l-1.325-.995c-4.167-3.258-7.138-7.043-9.978-11.436l-.951-1.32c-5.804-8.593-5.64-18.78-5.426-28.609.016-1.253.03-2.507.042-3.761.034-3.031.087-6.061.151-9.092zM112.71 234.65c.078 3.321.133 6.642.17 9.964.015 1.124.036 2.248.063 3.373.328 13.933-2.94 26.522-12.382 37.454-4.048 4.012-8.669 7.342-14.13 9.253a152.36 152.36 0 0 1 2.754-6.38c1.907-4.509 1.996-8.571 2.02-13.378.017-1.39.036-2.78.055-4.17.027-2.176.05-4.351.06-6.527.101-17.615.101-17.615 6.077-24.242 4.71-4.142 9.042-5.419 15.313-5.347zM160.63 238.4c12.999 6.06 20.359 14.535 25.548 27.518 2.057 7.05 1.596 14.43 1.552 21.69l-.01 3.379c-.01 2.736-.022 5.472-.038 8.208-7.813-.822-11.904-2.826-17.188-8.623-3.498-4.843-4.009-8.842-3.968-14.612l-.04-4.361c-.008-2.268-.01-4.535-.01-6.803-.002-2.205-.023-4.41-.046-6.615l.02-2.021c-.066-5.449-1.331-10.47-4.765-14.88-1.055-1.378-1.055-1.378-1.055-2.88zM161.4 311.96c10.824 4.084 18.442 12.382 23.187 22.517 2.386 5.778 3.212 11.217 3.167 17.444 0 .577-.002 1.153-.004 1.748-.005 1.827-.014 3.654-.024 5.482-.004 1.245-.008 2.49-.01 3.735-.01 3.04-.022 6.079-.038 9.118-5.63.098-9.648-1.494-13.958-5.075-5.548-5.711-7.38-12.108-7.219-19.802l-.012-4.308c.011-2.223.03-4.446.057-6.669.088-9.117-.027-16.24-5.147-24.19zM116.57 234.65c6.736-.08 10.837 1.905 15.814 6.274 4.96 5.135 5.158 10.737 5.19 17.4.018 1.424.036 2.849.056 4.273.027 2.23.05 4.46.06 6.69.012 2.162.043 4.325.077 6.487 0 .656-.003 1.311-.004 1.987.127 6.287 2.27 11.706 5.859 16.933-10.23-2.82-17.186-11.84-22.593-20.241-4.883-8.576-4.769-18.16-4.604-27.653.011-1.185.022-2.37.031-3.555.026-2.865.065-5.73.114-8.595zM66.333 239.15l1.546.75-2.265 3.519c-2.326 4.881-2.605 9.753-2.638 15.037l-.035 2.057c-.047 2.878-.078 5.756-.11 8.634-.027 2.112-.062 4.225-.097 6.337l-.012 1.95c-.113 6.643-1.611 11.615-6.437 16.506-4.566 3.395-8.111 4.61-13.912 4.503-.058-3.683-.1-7.365-.127-11.049a536.722 536.722 0 0 0-.048-3.746c-.23-14.62 2.71-26.022 13.314-36.992 6.868-5.997 6.868-5.997 10.821-7.506zM160.63 165.6c12.968 6.106 20.296 14.839 25.178 27.883 1.211 3.58 1.403 6.795 1.327 10.539l-.01 1.89c-.013 1.964-.042 3.93-.072 5.894-.011 1.343-.022 2.687-.031 4.03-.026 3.27-.066 6.539-.114 9.808-1.117.02-2.235.034-3.352.045-.622.01-1.245.017-1.886.026-3.649-.15-6.084-2.247-8.674-4.574-3.401-3.99-6.258-7.61-6.305-12.925l-.024-1.93-.017-2.082-.067-4.39c-.032-2.3-.06-4.601-.08-6.902-.022-2.225-.058-4.45-.095-6.674l-.008-2.05c-.126-6.436-1.216-12.205-5.771-17.086V165.6zM68.652 311.21c-.767 1.5-1.542 2.995-2.346 4.477l-.794 1.48-.8 1.475c-1.787 4.034-1.585 8.206-1.606 12.516l-.056 4.284c-.027 2.236-.05 4.472-.06 6.709a640.275 640.275 0 0 1-.077 6.504l.004 1.998c-.129 6.414-2.367 11.738-6.867 16.47-4.168 3.59-8.311 4.267-13.677 4.882-.038-3.845-.066-7.69-.085-11.535a889.85 889.85 0 0 0-.032-3.918 880.06 880.06 0 0 1-.034-5.657l-.024-1.746c-.003-10.98 5.119-20.857 12.542-28.932 2.451-2.195 5.007-4.138 7.729-6.005l1.464-1.032c2.896-1.97 2.896-1.97 4.72-1.97zM111.93 161.85c.097 3.87.166 7.738.212 11.608.02 1.312.046 2.623.08 3.934.36 14.362-3.352 25.54-13.514 36.41-3.852 3.16-6.711 5.568-11.512 8.091l-4.125 1.902 3.37-3.728 1.045-1.504 1.033-1.451c2.49-4.934 2.771-10.31 2.808-15.718l.034-1.942c.035-2.027.062-4.053.086-6.08.032-2.674.074-5.348.121-8.021l.013-1.82c.116-6.493.874-11.8 5.621-16.58 4.87-4.136 8.396-5.183 14.728-5.102zM67.106 165.6c0 2.738-.875 3.686-2.319 6.004-1.715 3.95-1.774 7.528-1.784 11.74l-.059 4.265c-.022 2.222-.04 4.443-.055 6.665a943.245 943.245 0 0 1-.08 6.473v1.979c-.114 6.988-1.621 12.788-6.648 17.896-4.332 3.867-7.85 5.13-13.789 5.022-.096-3.856-.166-7.71-.212-11.567-.019-1.306-.045-2.613-.079-3.92-.364-14.418 2.826-25.67 13.286-36.535 3.51-3.246 7.576-5.644 11.739-8.022z"
       id="path16" />
  </g>
  <path
     d="M105.08 101.47c3.226 1.755 5.472 3.706 6.86 7.083.675 3.99.53 7.165-1.256 10.836-3.497 3.664-6.587 5.413-11.7 5.747-3.318-.135-5.895-1.173-8.305-3.398-3.133-3.486-3.71-6.268-3.635-10.725.349-3.658 2.032-5.977 4.8-8.324 4.23-2.994 8.458-3.272 13.236-1.22zM132.8 100.3c3.68 1.796 7.043 4.45 8.502 8.256.758 4.847-.152 8.77-3.092 12.76-2.952 2.94-5.581 3.248-9.661 3.423-3.084-.095-5.367-.168-7.826-2.063-3.654-4.203-4.708-7.12-4.583-12.605.704-3.719 2.845-5.965 5.84-8.27 3.452-2.042 6.888-2.16 10.82-1.501zM88.748 76.284c3.373 1.109 5.926 2.99 7.73 6.004 1.119 3.262 1.177 6.35.772 9.758-1.4 2.58-1.4 2.58-3.092 4.503l-1.11 1.313c-3.23 2.51-6.45 2.777-10.484 2.44-5.186-1.622-7.12-3.993-10.048-8.256-.606-3.504-.729-6.868.957-10.08 4.316-5.679 8.165-6.415 15.274-5.682zM118.12 76.284c3.866 1.843 6.569 4.501 8.502 8.256.628 4.156.507 7.368-2.077 10.836-3.07 3.424-5.412 5.018-10.144 5.348-4.487-.13-7.083-1.912-10.193-4.926-2.795-2.968-2.71-6.15-2.588-10.015.518-3.839 2.519-5.74 5.341-8.28 3.762-1.726 7.067-1.805 11.16-1.219zM103.43 51.516c3.44 1.64 5.556 3.707 7.73 6.755 1.282 3.738 1.235 6.982-.097 10.648-2.002 2.916-4.366 5.028-7.633 6.614-4.902.62-8.604.195-12.653-2.641-2.89-2.552-3.516-4.865-3.82-8.57.191-3.6.444-6.79 2.969-9.631 4.14-3.511 8.15-4.107 13.505-3.176zM147.49 76.284c3.866 1.843 6.569 4.501 8.502 8.256.417 4.693-.112 8.186-3.092 12.01-2.901 2.626-5.782 3.972-9.758 4.174-4.257-.249-6.703-2.285-9.806-4.972-2.7-3.01-2.424-6.636-2.4-10.443.492-3.46 2.15-5.433 4.96-7.523 3.62-2.177 7.47-1.972 11.594-1.502zM132.8 51.516c3.68 1.796 7.043 4.45 8.502 8.256.572 4.267.23 7.628-2.319 11.258-3.217 3.075-5.668 4.627-10.193 4.785-3.737-.038-6.005-.552-8.843-2.932-3.36-3.496-3.925-7.147-3.807-11.789.739-3.574 2.982-5.827 5.839-8.077 3.448-2.045 6.892-2.159 10.82-1.501zM118.12 27.499c3.54 1.711 5.392 3.73 7.73 6.755 1.09 3.177 1.48 5.915.072 9.077-2.029 3.383-4.053 5.787-7.802 7.435-4.593.633-8.466.364-12.367-2.252-3.46-3.723-4.1-5.95-4.028-10.857.319-3.716 1.94-5.784 4.366-8.563 3.414-2.583 7.943-2.236 12.028-1.595z"
     fill="#fcdb00"
     id="path20" />
  <path
     d="m203.05 7.698.555 471.47"
     fill="none"
     stroke="#000"
     stroke-width="5"
     id="path22" />
  <rect
     style="fill:#fcdb00;fill-opacity:1;stroke-width:6.8;stroke-linecap:round;stroke-linejoin:round;paint-order:markers fill stroke"
     id="rect863"
     width="16.36651"
     height="16.444077"
     x="287.38351"
     y="441.27527" />
  <path
     d="M6.951 7.698v273.55c0 109.38 88.67 198.05 198.05 198.05s198.05-88.669 198.05-198.05V7.698z"
     fill="none"
     stroke="#000"
     stroke-width="10"
     id="path24" />
  <rect
     style="fill:#000000;fill-opacity:1;stroke-width:6.79999;stroke-linecap:round;stroke-linejoin:round;paint-order:markers fill stroke"
     id="rect859"
     width="4.6740155"
     height="78.89444"
     x="284.37094"
     y="380.65192" />
  <rect
     style="fill:#000000;fill-opacity:1;stroke-width:6.80001;stroke-linecap:round;stroke-linejoin:round;paint-order:markers fill stroke"
     id="rect861"
     width="3.9216127"
     height="64.411179"
     x="310.10907"
     y="381.68338" />
</svg>
