<?xml version="1.0" encoding="UTF-8"?>
<svg width="720" height="870" version="1.1" xmlns="http://www.w3.org/2000/svg">
<path d="M7.001 7.001v390.45h705.98V7.001z" fill="#f00000"/>
<path d="M712.98 397.45H7V510.1c0 194.95 158.04 352.99 352.99 352.99S712.98 705.05 712.98 510.1z" fill="#094" stroke="#000" stroke-width="7"/>
<path d="M7 7v503.05C7 704.98 165.04 863 360 863s353-158.02 353-352.95V7z" fill="none" stroke="#000" stroke-width="14"/>
<path d="M366.948 19.278a63 63 0 0 0-4.73.382c-6.074 1.16-12.029 3.784-15.721 8.957-4.4 5.812-5.88 12.238-7.537 19.177-1.388 5.619-2.06 10.985-5.148 16.006-3.087 5.013-6.391 9.396-8.166 15.14-2.078 5.964-1.523 11.793-1.918 17.941-.42 3.676-1.893 8.723-5.148 10.86-2.473-1.405-4.718-3.491-6.913-5.308-9.093-7.377-17.286-15.854-26.193-23.466-5.779-5.156-11.566-10.287-17.268-15.527-3.735-3.432-8.184-6.629-11.279-10.65-1.144-1.412-1.614-2.976-1.152-4.785 1.548-2.212 4.12-1.44 6.316-.91 3.205.791 7.234 2.945 10.497 1.65 2.49-1.355 4.736-3.97 4.567-6.964.118-2.793-1.472-4.794-3.415-6.577-7.284-6.19-18.075-7.89-26.63-3.306-5.82 3.045-9.765 9.143-9.714 15.77-.06 4.846 2.28 9.042 5.442 12.55 5.332 5.744 11.86 10.74 17.57 16.073 5.274 5.114 10.994 9.715 16.167 14.946 7.191 6.544 14.323 13.18 21.708 19.506 3.449 2.902 6.923 5.72 9.959 9.075-3.34 4.946-6.435 10.102-9.034 15.477-1.859 3.86-2.455 7.898-3.313 12.044-.934 4.627-4.996 7.3-6.106 12.044-1.33 6.376-.59 12.332.336 18.665.362 8.672-.673 17.773 2.834 26.218 1.463 3.642 4.265 5.71 6.772 8.52-1.11 3.112-3.139 5.795-4.064 9.025-1.59 4.827-1.177 9.386-1.05 14.357-5.695-1.068-10.33-3.709-15.477-6.198-7.074-3.626-13.904-6.763-20.473-11.44-2.515-1.648-2.263-4.643-3.112-7.284-.934-4.003-4.004-7.016-7.175-9.404-5.29-3.886-11.069-7.434-16.107-11.649-5.375-4.407-10.64-8.933-15.67-13.727-6.897-5.754-14.063-10.993-20.49-17.377-5.862-5.593-10.883-11.599-17.478-16.402-.799 1.338-1.707 2.717-2.288 4.155 1.161 1.825 2.868 3.381 4.408 4.887 6.106 5.728 12.634 11.936 17.117 19.043 1.16 2.019 2.91 4.996 2.321 7.368-1.48 1.279-4.457.404-6.013-.437-6.258-3.306-11.878-8.386-17.64-12.508-2.7-1.917-5.458-4.424-8.561-5.585-.892.95-1.624 1.993-2.398 3.036a163 163 0 0 0 14.181 11.078c5.308 4.029 10.943 7.611 13.458 14.096-2.826-.042-5.291.362-7.79-1.236-4.449-2.818-8.932-5.627-13.247-8.63-3.482-2.338-7.049-5.232-11.027-6.62-1.463.303-1.85 2.305-2.506 3.466 6.679 3.777 13.046 8.125 19.371 12.457 3.718 2.59 7.04 5.249 8.806 9.572-3.962.16-7.822-.11-11.472-1.8-6.931-3.18-13.23-8.008-20.28-10.968-1.48-.766-2.161.765-3.356 1.438 7.015 5.576 15.114 9.926 22.785 14.526 2.927 1.826 5.636 3.668 7.445 6.704-1.405 1.127-3.625.521-5.232.176-6.064-1.673-10.742-5.669-16.764-8.402-3.71-1.632-7.25-3.996-11.136-5.14-.79.858-1.446 1.776-2.145 2.701 9.547 7.722 21.213 9.925 29.22 19.152l-1.203 1.068c-4.786-.68-9.42-3.734-13.719-5.87-4.97-2.473-9.815-5.847-15.114-7.537-1.9-.43-2.784-.034-3.02 1.976.615 1.312 2.473 2.128 3.667 2.91 6.56 3.55 13.097 7.16 19.624 10.767 2.952 1.582 4.61 3.347 6.199 6.266-3.297.033-6.494-.1-9.622-1.27-5.99-2.178-11.76-5.013-17.655-7.444-2.128-.866-4.273-1.598-6.577-1.833-.825.992-1.346 2.313-1.86 3.49 6.284 2.498 12.533 5.19 18.547 8.276 5.333 2.835 10.169 5.889 12.92 11.49-3.474.085-6.763.16-10.094-1a143 143 0 0 1-14.872-6.023c-2.708-1.254-5.559-2.675-8.478-3.33-1.648-.699-2.515 1.353-3.668 2.16 8.89 6.738 19.556 8.395 28.539 14.342 1.32 1.068 3.424 2.06 3.24 4.029-5.224 1.37-11.037 1.026-16.05-1.018-6.653-2.229-12.07-5.307-18.848-6.35-.345 1.253-.69 2.497-1.018 3.75 7.04 3.609 14.676 5.417 21.902 8.68 4.062 1.918 7.948 3.08 10.253 7.252-7.402 1.8-13.576-.631-20.54-2.768-4.534-1.446-9.95-3.743-14.745-3.162-.555.858-1 1.749-1.48 2.657 9.522 3.777 19.506 6.343 29.052 10.036 2.23.824 4.08 2.17 5.847 3.734-6.637 3.095-12.609 1.37-19.523.58-5.997-.85-11.7-3.314-17.689-4.029-1.64.101-2.052 1.355-2.28 2.768 1.775 1.976 4.056 2.421 6.537 2.935 6.796 1.22 13.751 2.372 20.345 4.45 3.937 1.211 7.16 3.54 10.128 6.316-1.69.942-3.214 1.875-5.232 1.758-4.206-.042-8.454-.555-12.617-1.135-6.073-1.17-13.012-3.652-19.455-3.828-1.32.496-1.194 2.196-1.631 3.365 5.265 1.783 10.75 2.212 16.083 3.692 4.693 1.254 9.403 2.481 14.105 3.726 2.313.58 4.34 1.674 6.308 3.003-2.018 1.118-3.742 2.221-6.156 1.927-7.032-.547-14.022-1.7-21.045-2.38-3.802-.32-7.78-1.415-11.565-1.103a19 19 0 0 0-.033 2.279c3.986 1.783 8.655 2.078 12.86 3.281 6.216 1.733 12.658 2.599 18.756 4.651 2.111.833 4.198 1.388 5.207 3.616-4.5 1.464-9.606 1.154-14.291.969-8.563-.328-16.368-1.498-24.847-.699-.076 1.195-.142 2.389-.21 3.583 4.677 1.01 9.37 1.162 14.13 1.338 6.999.58 14.123.867 21.062 1.985 1.817.21 2.953 1.32 4.332 2.397-4.525 2.986-9.303 2.145-14.459 2.094-5.61-.429-11.237-.756-16.83-1.429-3.02-.286-6.25-.531-9.245.05-2.246 1.496-1.253 4.315 1.187 4.735 10.934.934 22.844.16 33.484 2.902 2.153.454 3.684 1.741 5.282 3.154-12.818 1.573-25.654-.647-38.287-.193-2.044-.084-3.213 2.01-2.726 3.861 1.102 1.607 2.717 1.126 4.425 1.311 9.647.008 18.916-.193 28.446 1.716 2.523.547 4.66 1.742 6.856 3.037-12.365 3.365-26.95 1.345-39.618 2.624.27 1.085.311 2.397.908 3.356 2.827.446 5.728.43 8.58.657 10.27.799 19.606-.64 29.657 2.389-.942.883-1.64 1.782-3.02 1.925-11.279 1.918-23.071.564-34.35 1.842-2.902.16-1.952 2.49-2.482 4.56 10.093 1.219 20.575.091 30.71.705 4.23.572 8.142.328 10.817 4.222-5.106 2.044-10.784 2.768-16.184 3.643-6.46.622-13.071.782-19.506 1.808-2.195.37-4.28.984-6.064 2.363.135 1.06.304 2.12.514 3.163 9.168-1.102 18.361-1.589 27.555-2.346 11.96-1.993 24.012-3.012 36.066-4.349 9.782-.64 19.581-1.875 29.28-3.271 3.776-.589 7.284-.993 10.69-2.844 3.196-1.581 5.887-4.003 9.638-3.86 12.617.597 25.242.446 37.85 1.17 4.265.268 8.571.015 12.81.444 3.592.227 5.981 4.458 9.194 5.543 2.768.429 5.938-.588 8.622-1.244-.883 4.29-2.843 9.78-.53 13.86 2.835 4.786 8.37 6.721 13.651 7.159 6.477.807 11.801-.64 17.857 1.547 6.317 2.162 13.046 2.793 19.59 1.304 7.494-1.7 14.71-5.652 22.137-7.89 2.078-.571 4.357-1.001 6.426-.177 2.826 1.153 5.383 2.936 8.159 4.223 7.923 3.743 16.3 5.913 25.09 4.29 4.037-.774 6.09-4.374 10.069-3.987 5.652.193 11.204.227 16.822-.488 10.077-1.068 19.085 1.051 29 1.993 15.275 1.674 30.701 4.013 46.001 5.157 10.893 1.051 21.777 2.027 32.678 2.868 4.895.328 15.292.588 15.292.588 3.246-14.72 9.546-77.379 4.626-42.669 2.12 1.464 4.147 3.044 6.014 4.827 5.307 5.08 10.774 10.01 16.325 14.822 2.22 1.657 4.088 3.7 7.09 2.371 3.44-1.236 7.495-6.115 5.452-9.857-3.205-5.098-8.672-8.975-13.054-13.063-5.476-5.19-11.348-9.942-16.866-15.08-1.69-1.717-4.086-4.538-4.086-4.538s.86-24.884 1.614-36.458c0 0-46.06-6.749-50.789-6.728-18.29-15.551-34.751-33.131-52.65-49.08-9.993-8.765-19.608-17.957-29.34-27.007-1.337-1.313-3.019-2.752-3.767-4.501-.21-1.952.185-4.004.547-5.922 1.312-6.14 3.02-12.196 4.332-18.336 1.413-6.51 3.305-12.718 4.365-19.362 1.035-4.29-2.633-8.235-3.205-12.625-1.076-7.419-1.539-14.441-5.475-21.128-2.902-4.534-8.213-12.855-12.805-15.853 0 0 .5-7.195 1.046-11.795.993-11.634-2.463-25.137-7.016-35.763-3.894-7.882-5.324-16.419-8.68-24.376-3.129-7.09-7.93-13.635-15.4-16.52-4.472-1.912-9.074-2.394-13.773-2.207zM410.001 211.1c3.288 2.01 6.208 5.03 9.11 7.586 7.494 6.519 14.415 13.627 21.708 20.364 8.377 8.462 17.217 16.41 25.679 24.788 4.256 4.222 8.975 7.67 12.71 12.415-7.933.126-16.183-2.077-24.047-3.473-1.977-.446-4.249-.665-6.04-1.65-1.211-1.025-1.994-2.657-2.734-4.028-3.844-7.654-7.301-15.334-11.793-22.652-2.901-5.089-6.24-9.866-10.522-13.912-4.66-4.281-9.008-8.983-13.062-13.845-.926-1.53-3.079-4.17-1.01-5.592z"/>
<path d="M368.412 24.7c-4.542.14-9.045 1.295-13.05 3.497-4.425 2.692-7.798 6.804-9.463 11.716-3.432 8.344-3.037 16.99-7.175 24.703-2.935 5.787-6.821 10.187-8.79 16.445-2.287 6.283-.117 13.828-1.673 20.464-.647 4.071-3.314 7.175-4.483 10.926-.396 1.75 1.463 2.44 2.91 2.027 8.316-3.915 11.06-10.527 12.088-17.517l-.176-2.713.513-9.59c.26-4.912.377-9.174 4.162-12.943a52 52 0 0 0-.791 4.46 81 81 0 0 0-.473 4.553c-.238 3.055-.353 6.144-.515 9.209v.01a147 147 0 0 1-.303 4.578 73 73 0 0 1-.508 4.497 47 47 0 0 1-.844 4.375 34.5 34.5 0 0 1-1.31 4.207c-.74 1.952-1.673 3.82-2.464 5.745 5.173-1.295 8.79-5.391 10.682-10.202 1.758-5.602 1.59-11.817 1.464-17.629-.295-9.934-2.851-18.496-.58-28.446 1.135-6.317 5.197-10.918 10.218-14.61 2.06-1.422 4.331-2.053 6.821-1.548l-.167 1.253c-4.248 2.111-8.294 3.625-10.944 7.865-3.684 5.988-5.063 14.198-3.507 21.027 1.968 4.138 3.473 8.453 5.879 12.365 1.539 2.615 3.247 5.996 6.073 7.392 7.595 2.978 17 .21 21.272-6.88 1.842-2.902 1.388-6.072 1.464-9.353-.118-5.038.202-10.119-.185-15.148-.378-4.92-3.205-9.008-6.746-12.254-2.716-2.406-5.838-3.45-8.824-5.359l1.523-1.43c7.932 1.767 13.77 8.924 16.15 16.376 1.867 6.46 1.346 13.694 1.034 20.339-1.413 8.966-1.186 17.99 3.045 26.2 3.213 5.341 8.293 9.127 14.173 11.087-2.086-3.196-4.348-5.914-5.753-9.53-2.565-6.41-1.96-12.626-2.945-19.372-.85-7.14-3.23-13.877-4.214-20.984-1.085-6.292-1.085-12.44-3.204-18.539 1.825 3.491 3.213 7.133 4.02 10.993 2.33 10.455 4.643 20.977 6.4 31.533.388 7.822 2.927 20.208 7.998 20.425 0 0 .586-13.247-.393-19.246-.513-3.365-.353-6.713-1.06-10.052-1.236-6.922-5.123-13.28-7.369-20.169-2.716-8.2-4.844-16.048-9.192-23.677-2.776-4.744-7.284-8.798-12.667-10.236a30.7 30.7 0 0 0-8.12-.84zm-110.463 9.79c-3.149.091-6.251.764-8.959 2.488-5.089 3.163-7.115 9.732-5.24 15.342 1.363 4.424 4.55 7.074 7.906 9.992 8.9 7.31 17.286 15.283 26.075 22.702 4.222 3.617 8.092 7.612 12.247 11.313 16.797 14.602 33.165 29.733 50.324 43.906 2.81 2.54 5.88 4.744 8.689 7.284 2.767 2.406 5.517 5.384 8.638 7.301 1.791 1.001 4.322-.985 2.968-2.902-4.273-5.064-10.11-9.025-14.947-13.693-7.452-6.872-15.215-13.365-22.734-20.144-10.018-9.707-20.767-18.405-31.087-27.783a2538 2538 0 0 1-28.967-25.704c-3.626-3.13-7.175-6.259-10.49-9.733-1.58-1.648-3.086-4.012-3.145-6.35.665-4.904 5.442-8.671 10.371-8.083 3.609.404 7.14 2.919 10.371 4.5 1.253-1.32 2.894-1.893 2.54-4.038-1.37-3.38-5.61-5.214-8.916-6.038-1.848-.262-3.754-.416-5.643-.361zm118.815 17.617a8 8 0 0 1 1.317.121c1.968.11 2.574 1.926 3.625 3.288-2.296-.26-4.707-1.262-6.972-.79-2.26.47-3.23 3.953-4.273 5.837-.328-1.211-1.136-2.759-.816-3.987 1.376-2.797 4.085-4.498 7.12-4.469m-16.85.86c1.48-.01 2.933.292 3.995 1.422 1.657 1.438 1.262 3.44 1.573 5.434-1.792-1.279-3.61-3.308-5.888-3.895-2.1-.54-4.315.48-6.485.522 1.262-1.354 2.287-2.801 4.188-3.239.83-.12 1.729-.238 2.617-.244m-1.167 5.75a5.8 5.8 0 0 1 2.117.365c.824.984 1.48 2.146 2.178 3.23-1.337.581-2.767 1.296-4.222 1.524-2.002-.303-3.945-1.18-5.862-1.793.252-.42.504-.841.765-1.262 1.348-1.24 3.191-2.048 5.024-2.065m18.738.023q.324-.001.622.023c1.783.303 2.918 1.86 4.062 3.112-1.54.539-3.187 1.388-4.836 1.506-1.38-.151-2.742-.606-4.097-.976-.008-.673-.05-1.362.018-2.027.868-1.2 2.722-1.633 4.23-1.638m-10.64 5.028c1.245.429 1.253 1.388 1.404 2.523.177 2.885.059 5.795.025 8.689.765.488 1.522.976 2.27 1.472-1.547.925-2.925 1.287-4.717 1.548.85-4.803-.168-9.53 1.018-14.232zm3.714 16.48q.094 0 .183.012c2.793.535 3.126 1.753 3.126 1.753-2.426.14-4.313.51-6.26 1.838-1.893-1.199-4.125-.928-6.28-1.155 0 0 .87-1.364 3.757-2.351.935-.169 1.358 1.043 2.303 1.029.886-.014 2.232-1.107 3.171-1.125zm-2.384 4.607c1.039 0 1.964.477 2.323 1.754-2.133-.592-4.01-.192-6.051.102.671-.962 2.305-1.856 3.728-1.856M353.69 87.9c-.06 1.11-.119 2.211-.17 3.321.085 1.451-1.166 15.26-2.511 19.074 2.177 5.17 18.7 15.998 18.7 15.998 1.38-.89 14.444-13.902 17.401-20.91-2.962-4.826-2.392-10.704-3.081-16.28-2.784 1.951-4.998 4.079-8.379 4.937-4.264 1.11-8.906 1.648-13.272.958-3.7-.824-6.064-4.6-8.688-7.098zm36.445 20.396c-3.499 4.365-6.359 9.151-10.48 13.188-5.889 5.804-8.982 8.925-10.697 10.715-14.012-13.735-15.975-11.305-22.535-21.287-2.86 1.85-5.586 4.164-8.673 5.61-2.414.917-5.113 1.22-7.637 1.716 2.944 3.617 6.535 6.452 9.782 9.774 5.13 5.14 10.243 10.195 16.333 14.223 1.43.043 2.87.093 4.299.143 4.685 6.906 13.542 9.135 18.378 16.46 1.052 1.835 1.53 4.03 2.506 5.905.732 1.354 2.154 2.43 3.323 3.398 3.558 2.784 6.637 5.77 10.69 7.882.018-3.39-2.65-4.113-4.39-6.561-2.213-2.464-1.733-6.821-1.775-9.934-.1-4.373 2.658-8.277 6.46-10.228 4.332-2.33 9.487-2.59 14.248-1.783 3.061.589 5.316 2.33 7.67 4.24-5.71-.362-12.111-1.456-17.705.193-3.002.959-5.753 2.658-6.283 6.022-.404 3.794-.588 8.445 2.692 11.112 2.607-.48 5.02-2.171 7.493-3.13 4.383-1.9 9.279-2.305 13.72-.336 2.372 1.068 4.634 2.018 7.25 2.27 1.009-2.557 2.296-5.407 1.775-8.216-.715-2.364-2.524-4.417-3.222-6.814-.379-1.985-.463-4.03-.723-6.031-.783-7.772-3.433-15.603-7.975-21.978-3.785-5.366-10.9-7.233-16.435-10.547-3.07-1.564-5.315-4.055-8.091-6.006zm-77.057 15.389c-.422-.03-.84.121-1.243.584-4.685 5.013-8.562 11.708-10.043 18.437-.572 2.128-.344 4.214.035 6.35 3.827.85 7.687 1.043 11.59 1.354 5.35.32 10.64.792 15.998.287-4.895 4.307-12.54 3.212-18.52 2.674-4.694-.606-9.33.093-12.997 3.264-3.566 3.65-5.215 8.958-3.39 13.878 6.78-1.859 11.684-7.107 18.91-5.71 3.742.31 8.663 2.53 12.187 1 4.668-2.347 4.987-9.092 7.477-13.323.252 5.308-.605 10.708-4.542 14.602-2.532 2.456-4.896 4.558-5.939 8.083 4.643-1.582 8.9-3.81 13.366-5.795 5.022-2.27 10.061-5.105 12.248-10.472.589-1.842 2.338-4.282.37-5.846-2.76-2.86-6.1-5.206-9.144-7.746-8.041-6.494-15.426-13.896-23.669-20.129-.821-.474-1.765-1.425-2.693-1.492zm50.554 25.615c-.093 1.96.336 4.316-.363 6.191-1.177 1.607-3.02 2.775-4.853 3.524-1.606.723-3.465-.799-4.904-1.447-1.875 2.784-3.019 5.896-5.374 8.083-3.81 3.592-8.58 5.493-13.306 7.554-4.668 1.96-9.437 4.054-13.853 6.544-3.734 2.11-6.19 5.349-10.328 6.871 3.078-5.408 9.907-9.53 9.73-16.124-5.18-3.053-12.44-2.413-17.713.144-2.608 1.144-6.3 2.919-7.149 5.871-1.102 8.091-1.405 17.806 2.337 25.3.858 1.85 1.775 3.508 3.693 4.442 2.128.437 4.433.243 6.486-.472 7.258-2.776 13.12-6.914 19.672-10.9 3.104-1.901 5.93-4.139 8.84-6.326 6.763-4.92 11.38-10.891 19.32-14.281 5.274-2.313 10.733-2.011 16.074-3.433 3.609-1.715 7.41-5.256 5.155-9.597-1.993 2.33-3.019 4.937-5.996 6.3.925-1.884 2.128-3.617 3.02-5.517.79-1.531.285-3.743.21-5.383-3.592 2.96-3.525 7.317-8.151 9.243 1.404-3.079 4.92-6.292 4.912-9.74-.033-1.944-.27-1.85-1.91-2.498-1.202 2.17-1.908 4.928-3.523 6.804-1.245 1.396-2.877 1.741-4.576 2.338 1.951-4.13 6.94-6.594 4.879-11.742a153 153 0 0 0-2.33-1.75zm46.204 19.563a22.7 22.7 0 0 0-4.78.608c-2.153.647-4.895 1.934-5.946 4.045-.547 1.69-.506 3.625-.413 5.383.008 1.892 1.53 3.222 2.717 4.5 3.692 3.609 7.562 7.015 11.246 10.64 1.489 1.48 3.196 2.625 5.038 3.617 2.238-8.327 5.988-17.168 5.795-25.739-4.517-1.816-8.967-3.15-13.656-3.054zm-30.9.14c-1.012.055-1.678 1.403-2.334 2.292.589 1.035 1.32 1.944 2.12 2.827 5.98 6.392 12.64 12.01 18.806 18.218 3.55 3.49 7.46 6.51 10.875 10.152 3.911 4.23 8.269 8.083 12.492 12.012 9.958 9.336 19.984 18.63 29.649 28.286 9.908 9.143 19.665 18.462 29.371 27.815 7.419 7.452 15.282 14.45 23.08 21.499 5.08 5.038 10.79 9.362 15.922 14.358 17.242 15.51 34.208 30.717 51.728 45.916 4.483 3.65 8.57 7.756 12.92 11.54 1.488-.723 4.381-2.44 2.556-4.307-3.945-4.416-8.638-8.294-13.054-12.238-10.17-8.605-19.918-17.663-30.053-26.293-4.71-3.987-9.041-8.369-13.76-12.347-6.384-6.275-13.542-11.667-19.834-18.026-9.891-8.857-19.522-18.025-29.11-27.21-9.043-8.057-17.243-17.007-26.344-24.989-9.278-8.377-18.126-17.21-27.311-25.688-7.654-7.2-15.342-14.349-22.937-21.624-8.092-6.973-15.233-15.2-23.644-21.752-.427-.334-.802-.459-1.14-.44zm-7.362 4.572c-1.118-.041-2.35.464-3.476.622-4.903 1.304-10.27 2.406-14.509 5.216-3.028 1.858-5.72 4.138-8.227 6.653 12.49.757 24.806-.75 37.522-1.776-3.01-3.398-6.132-6.787-9.47-9.857-.54-.612-1.17-.833-1.84-.858zm-164.647 4.618c.47 4.331 1.16 8.883 3.97 12.39 1.463 1.9 3.44 2.648 5.543 3.598-.009-3.566.142-6.846-1.616-10.075-1.144-2.213-3.036-3.659-5.18-4.836-.9-.37-1.8-.732-2.717-1.077m-4.584 4.996a61 61 0 0 0-2.077.42c.084 1.792-.252 3.466.967 4.93 1.548.874 3.23 1.202 4.946 1.572-.555-1.573-1.12-3.129-2.028-4.542-.547-.84-1.16-1.615-1.808-2.38m180.191 4.64c-5.62-.043-11.208.34-16.808.936-4.743.564-9.766 1.707-14.493 1.337-2.843-.176-5.61-1.06-8.418-1.404-.892-.101-1.834.623-2.608 1.01-3.574 2.22-6.864 4.92-10.32 7.326-3.02 2.288-6.511 4.416-8.059 8.04-.723 1.464-.328 3.416-.294 4.997 3.204-4.4 5.181-8.933 11.027-10.194-2.019 1.774-4.466 3.482-5.845 5.811-1.287 2.07-1.591 4.644-1.885 7.025 1.774-2.255 3.104-5.03 5.164-7.007 2.002-1.868 4.4-2.524 6.957-3.264-2.608 2.557-4.804 5.4-7.159 8.167 2.39-2.245 5.241-3.196 8.379-3.928 5.374-1.236 10.008-3.945 15.458-4.87 7.638-1.438 14.501-.109 22.03.942 10.235 1.17 20.472 2.928 30.75 3.643-4.44-5.131-9.555-9.716-14.467-14.393-1.9-1.623-4.348-4.163-6.997-4.13q-1.206-.035-2.411-.044zm-162.191.103c.017 2.978-.396 6.334 1.102 9.042 1.514 2.826 4.475 4.71 7.15 6.325-.017-2.549.218-5.568-.732-7.973-.976-2.481-2.819-4.223-4.87-5.847-.876-.53-1.758-1.042-2.65-1.547zm-18.22 4.558c-1.072.013-2.143.099-3.17.195.236 2.48 3.062 4.407 4.946 5.728 2.81 2.144 6.485.31 9.437-.58-2.187-1.767-4.542-3.802-7.166-4.896-1.287-.36-2.668-.464-4.046-.447m-8.671 4.922c.277.993.572 1.968.883 2.944 1.565 5.4 6.056 9.068 11.279 10.7-1.11-3.803-2.338-7.865-5.56-10.439-1.95-1.682-4.214-2.363-6.602-3.205zm38.942.513c.295 2.885.522 6.106 1.81 8.739.95 2.069 3.566 2.775 5.459 3.675-.042-2.456.352-5.643-1.288-7.687-1.581-1.96-3.836-3.44-5.98-4.728zm-16.082 3.882c-1.693.006-3.451.296-5.013.474 2.448 3.154 5.594 5.553 9.555 6.394 2.65.412 4.51-.876 6.772-1.97-2.616-1.749-5.417-3.456-8.394-4.516-.912-.287-1.905-.386-2.92-.382m-27.008 1.854c-1.009.724-1.144 2.574 0 3.23 1.363.235 2.793.185 4.172.219-1.186-1.371-2.086-3.466-4.172-3.449m172.319 1.715a38 38 0 0 0-5.637.262c-4.374.815-8.579 2.371-12.936 3.297-2.733.706-5.854.908-8.394 2.127-3.306 1.657-5.19 5.14-7.882 7.57-1.917-.58-3.213-2.59-4.416-4.095-1.9-2.414-3.33-5.148-5.172-7.596-1.96-.799-4.239.977-5.803 1.978-5.518 3.591-9.152 9.849-11.095 15.998-1.556 5.18-.11 9.925 1.934 14.702 3.314 7.393 7.89 14.206 11.465 21.523 2.262 4.694 5.072 9.01 7.15 13.779 3.44 7.746 6.257 15.904 7.864 24.231.698 6.493-1.464 13.559-4.315 19.354-3.49 7.578-9.193 14.383-14.265 21.053-5.593 7.04-13.282 14.804-15.225 23.787-.395 2.153-.95 4.845.766 6.56 2.423 2.684 6.796 3.726 10.186 4.55 5.324 1.49 10.96-.116 15.872-2.253 7.545-3.406 15.417-7.923 23.484-10.152 5.358-1.54 11.463-1.27 17.006-1.102 4.315.16 7.764 2.002 11.768 3.221 5.728.79 11.826-.908 17.663-.336 4.324.446 8.697.244 12.996.866 9 1.38 17.554 3.02 26.73 2.061 5.232-.572 10.303-1.977 15.164-3.987 6.107-2.582 12.577-4.592 19.12-5.702 3.978-.563 7.93-.943 11.816-2.028-.958-5.265-3.658-9.57-6.728-13.844-7.225-10.11-12.97-21.38-17.782-32.811-6.047-14.484-7.292-29.196-14.491-43.31-4.055-8.882-8.672-17.46-14.308-25.451-3.953-5.77-8.335-11.474-14.669-14.78-4.415-2.245-9.092-3.96-13.6-6.03-.513-.024-1.035-.05-1.557-.076l.58-1.437c1.408.279 2.8.617 4.192.957 1.544.377 3.088.756 4.649 1.06q.437.108.861.133h.003a4.1 4.1 0 0 0 1.65-.24q.4-.147.792-.38c-2.271-2.877-4.938-5.845-8.075-7.788-2.431-1.54-5.374-1.952-8.175-2.39-4.273-.58-8.361-1.446-12.634-1.665-5.728-.366-11.02-1.484-16.552-1.615zm-118.025.539h-.392c-.168 2.044-.344 4.584.699 6.435 1.716 3.137 4.617 4.752 7.897 5.88-.815-4.198-2.581-8.615-5.811-11.533-.707-.692-1.497-.778-2.393-.783zm-36.508.186c0 6.518 5.307 12.918 11.59 14.483 1.253-1.33.849-3.036.605-4.684-.681-3.256-2.985-5.307-5.56-7.166-2.085-1.371-4.036-2.675-6.635-2.633zm24.719 4.18c-2.683.185-5.34 1.606-7.821 2.582 1.951.984 3.986 2.221 6.122 2.709 2.734.252 5.67-.741 8.344-1.254-1.994-1.464-4.206-3.431-6.645-4.037m-38.64 1.305c-2.358-.01-4.765.285-7.015.511 2.262 2.717 4.81 5.897 8.638 6.115 3.844.438 6.83-1.093 10.313-2.38-2.389-1.514-4.997-3.23-7.79-3.818-1.334-.306-2.73-.422-4.145-.428zm28.95 5.382c.236 2.633.925 5.526 2.893 7.427 1.413 1.388 3.34 2.036 5.132 2.776-.286-2.027-.303-4.618-1.582-6.308-1.573-1.91-4.146-3.096-6.443-3.895m-38.127.134c1.438 6.19 7.04 10.951 12.776 13.189-.152-1.825-.11-3.852-.698-5.601-.63-1.523-2.01-2.431-3.339-3.297-2.742-1.683-5.669-3.306-8.739-4.29zm57.534.19c-.502-.005-1.028.065-1.618.197-1.523.328-3.087.664-4.55 1.211.134 1.304 1.48 1.657 2.44 2.288 2.75 1.472 6.114 2.313 8.797.202.572-2.069-1.211-2.255-2.582-3.188-.883-.484-1.652-.701-2.488-.71zm-34.492 3.112c-2.387.054-4.722.75-7.07 1.375 3.011 2.355 6.308 4.996 9.958 6.224 3.163.395 6.46-1.514 9.194-2.91-2.977-1.321-5.753-3.138-8.79-4.298a11.3 11.3 0 0 0-3.291-.39zm44.96 1.644c-1.9.496-3.556 2.137-4.523 3.81 2.632 2.33 5.861 4.114 8.847 5.964 12.743 7.452 26.193 13.642 40.206 18.319 1.632.53 3.313.74 5.012.925-1.917-3.617-4.323-6.737-8.192-8.386-7.402-3.272-15.476-5.87-22.692-10.043-4.601-2.7-9.177-5.45-13.744-8.21-1.54-.9-3.196-1.858-4.912-2.38zm-72.38.817q-.362.004-.778.04c.95 2.608 3.17 2.364 5.475 2.818-1.585-1.905-2.362-2.885-4.698-2.858m171.266.873c4.256-.202 8.192 1.338 11.826 3.407 10.37 6.09 17.41 15.056 23.778 25.04 7.864 12.726 12.045 26.125 16.41 40.28 3.289 11.675 7.856 23.131 13.971 33.62 3.07 5.324 7.914 8.832 11.421 13.71-6.409-1.757-10.958-6.88-14.525-12.213-4.844-7.503-8.074-16.553-11.001-24.947-3.037-8.277-5.266-16.688-8.564-24.847-4.424-12.297-10.506-23.928-18.312-34.417-4.525-5.476-9.647-10.716-15.577-14.67-2.969-2.035-6.476-2.952-9.428-4.962zm-117.655.136.143 1.269c.295 1.623.328 3.525 1.069 5.022 1.438 2.237 4.28 3.751 6.493 5.139 0-2.086.345-4.836-.79-6.678-1.565-2.532-4.274-3.692-6.915-4.752m86.483 1.093c-2.321 6.51-2.952 13.323.16 19.707 3.92 7.755 10.472 14.491 16.477 20.64 5.089 5.585 10.918 10.346 15.914 16.007 2.38 2.692 4.904 5.24 7.25 7.957 5.056 5.753 9.353 11.977 13.651 18.294 3.751 5.602 6.158 12.129 7.167 18.782-2.43-3.852-4.055-8.134-6.486-12.003-4.76-8.664-11.682-16.234-18.116-23.779-7.68-8.915-16.84-16.283-24.359-25.308-5.24-5.534-10.16-10.791-13.491-17.764-2.641-5.29-3.23-11.457-1.725-17.16.597-2.254 2.07-3.692 3.558-5.374zm-119.622 1.556c.303 2.935.193 5.567 2.237 7.93 1.775 2.196 4.148 3.046 6.67 4.089-.487-2.49-.967-5.39-2.313-7.586-1.413-2.237-4.29-3.356-6.594-4.433m176.6.681c5.433 2.574 10.185 6.915 14.155 11.372 4.92 5.787 8.158 13.305 10.758 20.388 4.189 12.658 6.932 25.823 11.103 38.498 1.397 3.936 3.221 7.83 5.652 11.246 3.011 3.961 8.04 6.847 12.028 9.765-7.764-.749-13.5-5.501-17.579-11.86-6.198-9.488-7.51-23.004-10.783-33.753-3.465-11.036-6.603-23.316-13.66-32.66-3.449-4.803-8.032-8.403-11.674-12.996zm-191.942 1.7c-3.062.638-5.989 1.925-8.975 2.85.025.42.06.833.085 1.253 2.793 1.33 5.787 3.012 8.866 3.517 2.767.134 5.643-.8 8.234-1.683v-1.102c-2.288-2.103-5.173-4.079-8.21-4.836zm60.467.445c-.437 2.288-.697 4.617-1.05 6.922 8.562 4.382 16.795 9.303 25.5 13.382 7.899 3.953 16.084 7.983 24.596 10.396 3.129 1.439 4.13-2.7 5.56-4.65-11.045-4.417-22.038-7.344-32.316-13.686-7.654-3.734-14.805-8.36-22.29-12.364zm-21.793.403c-2.616-.025-5.298 1.018-7.729 1.893 2.885 1.488 6.047 3.583 9.395 3.272 2.321-.05 4.206-.985 6.283-1.868-2.237-2.11-4.888-3.087-7.95-3.297zm-10.833 4.745c.026 2.086.05 4.205 1.463 5.895 1.884 2.246 4.189 3.853 6.704 5.308-.278-2.279-.37-5.09-1.556-7.116-1.464-2.296-4.054-3.456-6.61-4.087m21.465 1.976c-1.667.01-3.295.24-4.904.976-.227.437-.454.883-.673 1.32 1.598.421 3.264.976 4.913 1.085 1.556-.177 2.825-2.051 3.708-3.22-1.031-.092-2.044-.166-3.044-.16m-59.996.59c2.97 5.76 6.04 10.983 12.129 13.902-.244-3.28-.824-6.804-2.288-9.781-2.532-2.372-6.41-3.802-9.841-4.122zm26.026 1.743q-.102.001-.205.005c-3.078.16-6.173 1.035-9.067 2.078.412 1.38 2.944 1.876 4.172 2.296 4.08 1.127 7-.74 10.666-2.12-1.768-.97-3.473-2.271-5.566-2.26zm42.457.232c-1.784 1.237-2.91 2.86-3.979 4.72 10.9 4.97 20.389 11.497 31.584 15.408 7.082 2.75 14.199 5.206 21.424 7.528 1.514.942 2.396-1.758 3.137-2.708-10.514-4.054-20.842-8.639-31.07-13.382-7.267-3.44-14.022-7.781-21.096-11.566zm-18.74 1.12c.261 3.43.681 6.569 3.516 8.849 1.379 1.009 3.86 3.161 5.593 2.43.505-6.074-3.927-9.462-9.109-11.28zm-50.997 2.397c-1.186 0-2.346.092-3.515.31.244 1.523.53 3.037.883 4.534 2.086.194 4.155.134 6.25.067-1.094-1.741-2.138-3.448-3.618-4.911m36.255 2.33c-2.203-.011-4.46.42-6.681 1.244 2.035 1.808 4.668 3.44 7.183 4.483 3.137 1.06 6.821-.386 9.656-1.749-2.96-2.712-6.485-3.96-10.158-3.978zm-19.86.504c1.244 6.064 4.937 10.464 10.622 12.878-.344-3.364-.538-6.452-2.952-9.06-2.06-2.035-4.693-3.717-7.67-3.818zm47.874 1.976c-.959 1.825-1.093 4.055-.655 6.031 2.044 2.43 5.643 3.735 8.46 5.055 14.661 5.955 28.809 12.12 44.21 16.007.731-1.228 1.463-2.448 2.186-3.676-6.123-2.262-12.28-3.97-18.294-6.611-4.374-1.935-8.84-3.658-13.205-5.61-7.511-3.793-14.98-7.882-22.702-11.196zm-34.443 3.928c.572 2.582.807 5.165 2.455 7.301 1.397 2.002 3.382 2.877 5.484 3.937-.656-4.315-.723-8.041-5.13-10.144a114 114 0 0 0-2.81-1.094m-25.127.076c-1.888-.016-3.83.362-5.902 1.035-1.262.673-4.155.816-3.482 2.81 2.17 1.278 4.82 2.464 7.368 2.422 3.297-.413 6.52-2.146 9.194-4.047-2.413-1.528-4.751-2.199-7.178-2.22zm45.918 1.708c-1.8-.025-3.347.815-5.012 1.43l.37.269c2.313 1.632 4.87 3.5 7.864 2.919 1.262-.673 2.356-1.683 3.466-2.583-2.212-.975-4.19-2.069-6.688-2.035m-9.091 3.456c.336 2.784.302 5.964 2.422 8.092 2.364 2.137 5.18 2.944 8.234 3.533-.252-2.263.202-4.265-1.547-5.998-2.465-2.994-5.694-4.105-9.11-5.627zm19.076.859c-1.262.975-1.918 2.245-2.751 3.557 6.527 3.717 13.516 6.687 20.388 9.706 11.986 4.416 24.006 9.514 36.463 12.416q.315-2.072.555-4.156c-2.986-1.16-5.93-2.38-9.008-3.306-11.758-3.406-22.626-8.31-33.603-13.634-3.86-1.531-7.88-4.255-12.044-4.584zm-68.736.05c1.657 6.99 6.855 13.433 14.434 13.98-1.16-2.928-2.162-6.292-4.121-8.79-1.893-2.086-4.904-3.305-7.478-4.306-.942-.303-1.884-.598-2.835-.884zm22.834.76a15 15 0 0 0-7.905 2.192c3.196 1.876 6.367 3.432 10.186 3.297 2.91.009 5.182-1.295 7.765-2.43-3.128-1.907-6.588-3.047-10.046-3.058m116.065.493c.1 2.953.832 5.585 1.387 8.52.724-1.455 1.438-2.919 2.17-4.374-.942-1.337-1.698-4.037-3.557-4.146zm-2.886 1.91c-4.222 5.493-1.547 11.683.119 17.554.942-2.187 2.094-4.298 1.976-6.746-.118-3.658-.984-7.325-2.095-10.808m-121.599 2.69c1.068 3.887 2.045 7.454 5.216 10.204 2.313 2.102 5.013 2.304 7.956 2.893-1.118-2.81-2.246-5.997-4.138-8.386-2.044-2.59-6.048-3.634-9.034-4.71zm49.895.716c-.564 1.968-.632 3.962-.606 5.997 17.032 5.83 33.29 13.677 50.374 19.262 1.892.521 4.062 1.253 6.022.95.32-1.052.538-2.12.774-3.196-7.545-3.306-15.603-5.392-23.24-8.487a720 720 0 0 1-26.664-11.961c-2.229-1.035-4.171-2.49-6.66-2.566zm-25.962.023c-2.527-.03-5.082.607-7.692 1.55 3.465 2.834 7.21 5.089 11.768 3.171 1.001-.664 3.087-1.321 2.565-2.843-2.204-1.31-4.411-1.852-6.64-1.878zm-39.641 2.231c-.39.007-.806.065-1.25.185.185.85.43 1.682.732 2.481 1.783 1.54 3.593.775 5.62.312-1.59-1.533-2.995-3.013-5.102-2.978m159.634 1.312c5.51 1.8 10.943 4.509 15.325 8.344 3.045 2.818 6.04 5.828 8.479 9.193 7.259 10.715 10.758 22.702 13.828 35.108 1.732 6.982 4.053 13.702 6.14 20.582 1.16 3.794 3.423 6.637 5.358 10.01-2.978-2.095-4.988-4.686-6.662-7.89-7.3-12.66-8.571-26.109-13.29-39.684-2.674-7.267-5.736-15.225-10.522-21.374-4.92-6.165-11.28-9.756-18.236-13.17-.151-.37-.286-.74-.42-1.12zm-107.973 1.5c-.569.002-1.15.046-1.749.14-1.791.766-3.414 1.969-4.827 3.297 3.17 1.767 7.149 3.08 10.808 2.583 2.019-.337 2.994-1.842 4.256-3.255-2.74-1.519-5.419-2.774-8.488-2.765zm94.423.166c-.75 1.195-1.414 2.455-2.095 3.7 1.362-.193 2.725-.395 4.08-.605-.64-1.043-1.27-2.102-1.985-3.095m-115.233.034c-.69 5.526 4.265 10.294 9.362 11.421-.698-2.675-1.346-6.048-3.163-8.2-1.699-1.557-4.003-2.574-6.198-3.222zm100.934 2.734c-1.725 3.356-3.869 6.19-3.087 10.185.875 3.045 2.641 5.88 4.02 8.713 3.71-6.325 1.75-12.657-.933-18.898m-125.309 1.312c-3.021-.033-6.162.615-9.088 1.277 2.868 2.49 6.695 4.61 10.539 4.829 2.263-.395 4.366-2.103 6.334-3.222-2.237-1.295-4.517-2.767-7.183-2.868a19 19 0 0 0-.602-.016zm57.646.436c-1.631.614-2.758 2.658-3.893 3.945 4.66 2.027 9.538 3.314 14.299 5.089 13.197 4.29 25.72 9.337 39.33 12.693 2.287.597 4.568.807 6.931.807-.892-1.497-1.44-2.237-3.096-2.81-5.038-1.892-10.06-3.851-15.174-5.559-8.705-2.885-16.966-6.838-25.637-9.825-4.222-1.404-8.386-3.524-12.76-4.34zm-20.749 1.809c.664 2.397 1.396 4.845 3.449 6.426 2.91 2.23 6.156 2.49 9.69 2.708-.413-1.808-.144-3.38-1.893-4.508-3.314-2.212-7.284-4.012-11.246-4.626m99.966.1c-1.253 1.557-1.86 3.483-2.55 5.333 4.375 1.195 8.874 2.272 13.391 2.7-1.177-2.211-2.186-4.778-4.49-6.056-1.935-1.085-4.156-1.74-6.351-1.976m143.174 2.07c1.53 7.57 4.71 14.29 7.066 21.583 1.186 3.558 2.716 6.964 4.356 10.329 3.197-.866 5.779-.925 9.026-.328 6.686.892 13.062 2.977 19.69 4.138 7.276 1.286 14.534 2.497 21.894 3.196 3.962.496 7.924.749 11.911.421-3.474-4.34-7.907-7.403-11.818-11.289-2.566-2.456-5.316-4.608-8.092-6.812-7.334-.437-14.635-1.733-21.877-2.936-9.185-1.808-18.168-3.179-26.848-6.871 1.262-.917 1.984-1.893 3.717-1.455 9.866 1.497 19.683 3.65 29.524 5.332 3.381.715 6.636.984 10.093.925-2.767-3.053-6.056-5.762-9.26-8.37-1.262-1.05-2.609-1.774-4.257-1.984-5.022-.858-10.093-1.43-15.114-2.313-6.72-1.102-13.223-2.843-20.011-3.567zm-266.985 1.13c-.76.005-1.504.081-2.22.25-1.707.403-3.086 1.337-4.457 2.397 2.565 2.254 7.031 2.363 10.236 1.842 1.312-.64 3.137-1.548 3.188-3.222-2.07-.662-4.47-1.282-6.747-1.267m-23.138 2.125c-.025.731-.05 1.463-.059 2.187 3.592 4.979 9.135 9.748 15.687 9.041-1.489-2.75-2.91-5.71-5.484-7.629-2.885-2.11-6.738-2.776-10.144-3.6zm64.101.698a192 192 0 0 0-1.11 4.332c4.694 3.171 9.723 4.122 15.09 5.636 7.494 1.884 14.99 3.776 22.441 5.803 7.41 1.985 14.197 4.509 21.608 4.921v-2.591c-4.635-2.397-9.538-3.17-14.568-4.256-14.525-4.508-28.775-9.824-43.46-13.844zm-27.499 1.044c-.51 0-1.034.05-1.578.159-1.85.58-4.07 1.506-5.063 3.272 2.717.833 5.636 1.43 8.495 1.354 1.96-.202 3.096-1.8 4.416-3.07-2.125-.827-4.062-1.72-6.27-1.715m106.745 1.748a129 129 0 0 0-1.523 3.29l.96.268c5.93 1.371 12.045 2.81 18.135 3.13-1.212-1.817-2.448-3.188-4.601-3.836-4.206-1.337-8.638-2.045-12.97-2.852zm-127.89 1.026c1.11 2.49 2.328 5.174 4.179 7.2 2.27 1.792 5.787 2.154 8.546 2.777-2.221-2.927-4.105-8.125-7.957-8.933-1.556-.462-3.162-.783-4.769-1.043zm35.02 2.033a19.3 19.3 0 0 0-4.017.44l-.665 1.128c2.54 1.564 5.694 2.16 8.656 1.976 1.337-.286 2.489-1.471 3.624-2.195a21.7 21.7 0 0 0-7.597-1.349zm80.071.578a.8.8 0 0 0-.373.14c-1.094-.05-1.228 1.717-1.53 2.482-.926 3.592-.27 7.62 1.505 10.85.917 1.329 1.38 2.725 3.289 2.523.975-4.39 1.093-9.774-1.102-13.828-.47-.56-.968-2.227-1.789-2.167zm-132.786 1.072a5.8 5.8 0 0 0-1.765.263c.109 1.404.285 2.59 1.521 3.473 1.666.336 3.618.11 4.736-1.304-.87-1.602-2.687-2.423-4.492-2.432m31.508.111c.26 2.254.95 4.517 2.893 5.88 2.515 1.623 5.342 1.792 8.235 2.103-1.009-2.103-1.9-4.913-4.08-6.073-2.178-1.127-4.609-1.725-7.048-1.91m324.837-.491 7.22 5.437s12.979 1.43 19.447 2.263c4.946.782 14.33 1.805 14.33 1.805l.489-3.866zM222.49 290.27c-.774.017-1.508.206-2.142.723l-.017 1.229c3.524 2.229 8.024 3.23 11.985 4.449 10.91 3.398 22.063 5.106 33.182 7.831 5.106.8 10.363 2.936 15.527 2.532-1.194-.782-2.38-1.489-3.743-1.934-6.56-2.238-13.24-3.87-19.985-5.418-10.488-2.439-20.531-5.971-30.91-8.763-1.21-.221-2.607-.676-3.896-.648zm79.016 1.103c-1.186.21-1.582 2.708-2.154 3.708 5.039.724 10.018 1.522 14.947 2.843 2.683.723 5.434 1.068 8.21 1.17-.447-1.027-.623-2.65-1.548-3.348-2.423-1.069-5.4-1.237-7.982-1.842-3.785-.766-7.63-2.279-11.473-2.531zm-99.116 1.614c.984 2.759 3.053 5.25 5.677 6.578 2.28 1.16 5.332.808 7.83.833-1.102-1.918-1.548-4.03-3.886-4.728-3.137-1.034-6.408-1.91-9.621-2.683m-35.958 2.34c-1.955-.018-3.912.254-5.921 1.016-1.716.522-2.802 1.657-3.904 2.994 4.585 1.38 9.993 3.003 14.543.682 1.59-.774 2.103-2.17 2.91-3.608-2.606-.558-5.114-1.061-7.627-1.084zm52.36 1.353c.008 1.48.024 2.96.032 4.441 7.074 2.01 14.308 3.222 21.407 5.089 5.904 1.413 11.69 3.196 17.679 4.281 6.41 1.212 13.912 3.667 20.389 2.447l.227-2.052c-2.523-1.06-5.35-1.615-8.016-2.179-9.883-2.12-19.783-3.97-29.422-7.106-7.342-1.775-14.743-4.4-22.297-4.921zm80.232 1.177a24 24 0 0 0-.429 1.91c4.012 1.766 8.05 2.153 12.298 3.036 4.07.774 7.805 2.061 12.028 1.96-1.59-2.792-4.332-2.305-7.09-3.096-5.636-1.035-11.138-3.086-16.806-3.81zm-117.798.642c-1.604.013-3.14.36-4.244 1.326-1.228.883-2.398 1.893-3.55 2.894 2.826.311 5.965.774 8.774.277 1.96-.328 3.473-1.875 4.205-3.666-1.461-.43-3.367-.845-5.185-.83zm345.79.232c-.368-.004-1.101 0-1.101 0s4.155 4.58 6.708 6.382c0 0 14.63 1.836 20.998 2.29.084-1.631.58-5.088.58-5.088-15.327-3.036-26.437-3.575-27.186-3.584zm-61.555 1.557c7.539-.076 15.462 1.777 22.89 2.691 7.351 1.018 14.5 1.843 21.642 3.853-.093.942-.178 1.892-.27 2.842-9.496.026-18.765-2.177-28.093-3.7-6.628-1.076-13.172-2.574-19.648-4.349.672-.664.882-1.379 1.976-1.295q.749-.034 1.503-.042m-272.074.17a11.6 11.6 0 0 0-2.274.191c-1.708 1.035-3.12 2.65-4.542 4.055 3.054.732 5.996 1.254 9.134.59 2.237-.489 3.903-1.708 5.787-2.92-2.438-1.018-5.342-1.889-8.105-1.916zm92.034 1.824c-.639 2.035-1.295 3.97-1.118 6.148.227 4.23 2.497 7.637 4.979 10.9.858-2.675 2.162-5.652 1.329-8.478-.892-3.44-2.96-5.913-5.19-8.57zm-77.536 1.263c-.954-.012-1.897.04-2.815.192-1.32.723-2.346 2.06-3.398 3.137 3.188.63 6.847 1.565 10.076.984 1.951-.63 1.867-2.095 2.414-3.76-2.03-.202-4.18-.528-6.278-.553zm89.267.284c.479 2.54 3.372 2.254 5.315 2.902 6.367 1.093 12.381 3.087 18.731 3.188.017-.598.034-1.203.06-1.8-4.517-.976-9.076-1.699-13.576-2.725-3.449-.69-7.015-1.548-10.53-1.565zm-140.861.101c4.693 4.458 9.656 8.15 16.502 7.562-1.648-2.094-3.515-5.03-6.114-5.947-3.29-1.161-6.931-1.455-10.388-1.615m63.828.434c-.71-.019-1.378.079-1.914.407-.875 1.245-1.489 2.717-2.179 4.063 20.128 4.652 40.643 8.058 61.073 11.12-.06-1.161-.11-2.314-.168-3.475-4.626-.942-9.336-1.354-13.98-2.195-13.255-2.313-26.276-6.283-39.363-9.386-.989-.148-2.286-.502-3.469-.534m-44.13 2.527q-.66 0-1.353.084c.538 2.406 1.731 4.634 4.086 5.669 1.952.816 4.072 1.195 6.192.993-1.449-4.116-4.665-6.74-8.924-6.746zm13.879 1.746c-.91.002-1.821.072-2.642.105 1.094 1.976 2.507 4.029 4.374 5.341 1.943 1.253 4.55 1.312 6.78 1.455-1.38-2.22-2.978-4.896-5.199-6.343-.975-.45-2.143-.56-3.313-.558m346.697.314s10.01 10.245 15.922 14.038c.16-3.894.506-11.691.506-11.691zm-241.02.093a20 20 0 0 0-.64 1.531c7.705 1.556 15.418 3.011 23.207 4.163.303-.412.605-.816.908-1.228-7.78-1.262-15.62-4.113-23.475-4.466zm-92.682 1.791c-.992.013-1.995.132-3.028.422 1.194 1.472 2.338 4.028 4.23 4.701 2.667.69 5.637.445 8.37.454a136 136 0 0 0-3.002-4.836c-2.261-.29-4.388-.77-6.57-.74m12.348 1.153q.43 2.612.959 5.199c17.192 2.86 34.528 4.953 51.812 7.166 3.171.538 6.334.823 9.547.52a8.2 8.2 0 0 0-2.069-2.068c-3.499-1.06-7.36-1.043-10.943-1.783-6.098-1.236-12.247-2.07-18.387-3.054-10.228-1.968-20.548-4.87-30.918-5.98m248.91.083q-.903 0-1.826.069c4.012 8.798 9.707 16.93 14.543 25.308 11.262.875 22.104 3.003 33.24 4.794 11.23 1.632 22.45 2.02 33.662 4.492 1.152.303 2.203.85 3.145 1.572-.487.95-1.11 1.801-1.723 2.693-5.846-.177-11.465-1.515-17.268-2.12-14.425-1.734-28.489-5.257-42.888-7.2-1.75-.168-3.5-.193-5.258-.244.984 1.506 1.868 3.894 3.541 4.794 1.582.656 3.373.908 5.056 1.203 11.38 1.699 22.264 4.727 33.779 5.644 7.712.925 15.619.975 23.189 2.666a46 46 0 0 1-.312 2.827c-13.533 1.244-25.77-1.75-38.976-3.895-6.947-1.598-13.71-3.558-20.868-4.13.597 1.489 1.093 3.095 1.926 4.475 3.684 1.404 7.999 1.017 11.876 1.765 9.656 1.599 19.212 3.996 28.935 5.25 5.744.865 11.346.908 16.99 2.531-1.388 1.43-2.086 2.893-4.332 2.8-14.417-.496-29.052-5.029-42.93-7.106-4.517-.698-8.909-1.623-13.434-1.875.471 2.01.38 3.608 2.591 4.407 4.845 1.522 10.06 2.043 15.056 2.943 8.874 1.228 17.613 3.39 26.529 4.122 4.803.555 9.564.21 14.342 1.05l.024 2.449c-9.454.757-19.361-.9-28.655-2.583a234 234 0 0 0-27.119-4.163c.917 1.447 1.187 3.962 3.23 4.19 5.72.79 11.39 1.757 17.092 2.615 5.804.42 11.481 1.573 17.26 2.187 5.097.732 10.547.942 15.476 2.456.488.63.959 1.287 1.396 1.96-3.97.79-7.855.445-11.808-.22-10.144-1.312-20.247-2.716-30.298-4.617-3.314-.648-6.527-.968-9.908-.926 2.759 3.382 6.611 3.718 10.59 4.568 7.603 1.522 15.24 2.818 22.885 4.055 8.403 1.135 16.874 1.496 25.268 2.69.564-2.994.942-5.996 1.211-9.04 2.538-11 4.238-23.565 2.515-34.865-1.422-1.12-3.727-.716-5.46-.842-5.643.101-11.203-.673-16.83-.824-6.813-.253-13.417-1.329-20.153-2.304-9.53-1.178-18.942-2.894-28.38-4.66.051-.589.11-1.186.161-1.774 10.581-.572 20.665 2.186 31.566 2.943 11.204 1.43 22.493 2.49 33.771 3.087-3.187-3.424-6.923-6.224-10.22-9.538-2.372-2.38-4.953-4.508-7.544-6.636-10.867.64-20.448-2.111-31.139-3.558-7.132-.883-14.113-2.38-21.178-3.625-4.166-.787-8.119-1.859-12.338-1.86zm-306.61.047c-1.269-.013-2.37.337-2.816 1.788 2.548 1.278 4.415-.278 6.636-1.405-1.115.004-2.55-.37-3.82-.383m124.712 1.67c-1.497 2.76-2.584 5.332-1.936 8.554 1.077 4.542 4.374 8.613 8.394 10.926.438-3.137.951-5.98-.428-8.983-1.691-3.55-4.054-6.755-5.887-10.245zm14.006 1.042c-.706.03-.93.673-1.541 1.137 7.258 1.43 14.962 3.953 22.38 3.499-1.497-.8-2.985-1.363-4.642-1.716-5.223-1.127-10.539-2.355-15.863-2.893a1.5 1.5 0 0 0-.334-.027m-127.142.676c-4.58.023-8.877 1.576-12.844 3.967a4.4 4.4 0 0 0-1.085 1.43c3.271.96 7.056 1.187 10.379.388 2.986-.808 4.744-3.02 6.123-5.636a21 21 0 0 0-2.574-.149zm11.303 1.61a18 18 0 0 0-3.077.255c-2.162.522-3.769 2.944-5.081 4.584 5.038.917 10.068.27 13.298-4.062-1.593-.52-3.383-.772-5.14-.777m14.43 1.911c-1.615.023-3.205.25-4.589.927-1.488.875-2.759 2.203-4.029 3.38 5.198 1.187 10.077.513 13.357-4.003-1.484-.143-3.125-.326-4.74-.304zm279.458.46c1.475-.054 3.042.269 4.43.483 8.798 1.724 17.68 3.011 26.495 4.668 6.922 1.313 13.997 1.976 20.91 3.18a22 22 0 0 1 1.691 1.749c-6.838.9-13.206-.167-19.96-1.025-12.128-1.775-24.198-4.181-36.243-6.486.412-.808.773-1.606 1.245-2.372.46-.12.941-.179 1.432-.197m-179.56.394c-.879-.002-1.11.934-1.75 1.502 4.728 1.245 9.682 1.758 14.56 2.405 2.431.303 4.686.278 7.117-.084-3.365-1.934-6.764-2.009-10.473-2.682-3.053-.437-6.182-1.136-9.269-1.127a1.4 1.4 0 0 0-.185-.014m-87.282.815c-2.58.012-5.118.412-7.01 2.16l-.353 1.227c3.6.336 7.19.218 10.782-.194a66 66 0 0 0 1.75-2.985c-1.616-.044-3.403-.217-5.169-.208zm8.314.654c-.168 1.203-.328 2.406-.487 3.6 11.775 1.607 23.711 2.211 35.504 3.793 8.42.571 16.805 1.716 25.183 2.75.134-.798.269-1.59.395-2.388-10.59-1.615-21.288-2.372-31.895-3.886-9.622-1.16-19.027-3.12-28.7-3.869zm-60.685 3.616c1.809 2.162 3.592 4.156 6.275 5.216 3.541 1.64 7.066 1.194 10.867 1.152-1.648-2.364-2.919-4.685-5.947-5.434-3.684-.572-7.477-.774-11.195-.934zm138.127.542a37 37 0 0 0-1.217.005c.32.841-.746 1.88-.426 2.72 5.72.337 12.715 1.293 18.468 1.713.521-.85 1.043-1.708 1.547-2.566-6.158-.316-12.28-1.798-18.371-1.872zm-116.376.81c-1.073.01-2.147.086-3.162.145 1 2.288 2.422 4.265 4.996 4.88 2.178.386 4.508.201 6.712.16-1.287-1.624-2.675-3.735-4.525-4.72-1.259-.383-2.64-.479-4.02-.465m14.088.926a34 34 0 0 0-3.524.204c.27 1.362.505 2.59 1.767 3.398 2.835 1.766 6.308 1.472 9.505 1.455-1.144-1.54-2.348-4.038-4.249-4.72-1.135-.243-2.315-.335-3.499-.337m24.528.826c.042 1.43.1 2.851.185 4.273 1.446.47 2.919.74 4.433.883 18.647 1.876 37.354 3.517 56.06 4.585-.026-.9-.06-1.792-.094-2.692-6.552-1.691-13.18-2.154-19.892-2.734-13.618-.909-27.11-3.197-40.692-4.315m-9.163.074a72 72 0 0 0-4.43.128c.05.959.118 1.918.211 2.868 3.667 1.06 6.443 1.203 10.186.404a92 92 0 0 0-1.532-3.34c-1.48-.034-2.958-.062-4.435-.06zm73.995 2.996c-1.127 6.552 1.927 12.281 7.823 15.208.63-3.743.201-7.376-2.162-10.438-1.455-1.817-3.33-4.13-5.66-4.77zm14.46.213c-.817.005-1.595.048-2.322.14l-.362 1.775 14.609 2.953s2.308-3.016 1.905-3.748c-3.96-.078-9.426-1.146-13.83-1.12zm-137.977.695c-1.196-.016-2.468.254-3.45.497 1.042.816 2.111 1.683 3.28 2.305 1.102.429 2.608-.278 3.651-.648-.525-1.637-1.942-2.133-3.48-2.154m25.308 3.422c-1.25-.002-2.49.088-3.676.339-2.136.462-3.197 2.044-4.643 3.507 2.422.05 5.071.269 7.46-.278 2.035-.606 3.912-2.027 5.62-3.264-1.533-.151-3.154-.303-4.761-.304m-12.614.098c-4.313-.023-8.192.978-11.249 4.362 2.532.219 5.374.572 7.872-.042 2.103-.63 3.424-2.65 4.728-4.281a30 30 0 0 0-1.352-.039zm38.475.326c-2.24.021-4.474.377-5.775 1.924-.64.749-1.187 1.556-1.767 2.339 3.44-.118 6.797-.564 10.17-1.262.614-.942 1.211-1.892 1.8-2.851-1.142-.013-2.55-.138-3.981-.15q-.224-.002-.447 0zm7.446.108c.328 1.035-.016 3.28 1.363 3.524 4.988.748 10.094.312 15.116 1.035 10.379.58 20.724 1.859 31.12 2.094 4.34.421 8.63.699 12.996.682l.227-2.448c-6.645-.547-13.307-.95-19.952-1.506-13.65-.614-27.226-2.767-40.87-3.38zm-21.451.555c-.973.01-1.936.084-2.856.294-1.733.64-3.212 2.086-4.668 3.205 2.54-.093 5.232-.025 7.713-.597 1.657-.269 2.43-1.648 3.533-2.776-1.207-.047-2.472-.14-3.722-.126m98.3.2q-.407 0-.814.01c-.42 1.052-.395 1.809-.067 2.869 3.609.571 7.3.833 10.951 1.127a113 113 0 0 0 2.154-3.088c-4.077-.181-8.154-.916-12.224-.918zm-1.058 5.848c.033 1.06.06 2.119.093 3.17 2.524.168 5.03.236 7.562.21-.025-.815-.06-1.632-.085-2.447-2.54-.236-5.047-.538-7.57-.933m-75.615.572c.9 1.194 1.597 4.566 3.607 4.196 10.716.034 21.331-.402 32.03.775 8.293.185 16.435 1.505 24.745 1.42l.077-2.884c-6.948-1.244-13.618-.53-20.616-1.278-6.838-.69-13.769-.11-20.523-.994-6.451-.454-12.835-1.252-19.32-1.235m-6.76.013c-2.445-.014-4.78.609-7.178 1.34 3.457 3.382 7.638 3.062 12.079 2.263-.707-1.068-1.304-2.674-2.414-3.355a13.3 13.3 0 0 0-2.487-.248zm-17.087.088c-1.468.01-2.993.192-4.474.31.396 1.363.808 2.961 2.112 3.743 2.793.631 6.745.405 9.446-.605-1.684-2.864-4.28-3.469-7.084-3.448zm-34.717.356a29 29 0 0 0-.978.005c1.026 2.33 3.457 3.667 5.636 4.752 3.187 1.53 7.006.993 10.379.455-.976-1.245-1.977-2.666-3.23-3.625-1.54-.993-3.18-1.019-4.946-1.187-2.282-.11-4.576-.375-6.86-.4zm20.71.35c-1.485.002-2.99.143-4.327.16.967 1.312 1.926 3.22 3.398 4.053 2.515.774 5.61.143 8.183-.143-.824-1.404-1.438-2.725-3.044-3.39-1.258-.542-2.724-.68-4.21-.68m101.733.573c-.412 4.256.523 8.722 4.114 11.388 1.943.623 3.297-.42 4.247-2.044.11-2.103-1.312-3.18-2.658-4.517-1.842-1.648-3.66-3.422-5.703-4.827zm11.843 3.985c-.151.841-.26 1.692-.336 2.55 2.649.16 3.103.21 4.76-1.818-1.446-.302-2.944-.622-4.424-.732m-133.501 2.224a5.43 5.43 0 0 0-2.888.83c-.227 1.017 1.304 1.094 1.943 1.498 1.876.95 3.633-.834 5.256-1.633-1.518-.285-2.917-.709-4.311-.695m54.702.25c-2.262.05-4.988-.101-7.099.799-1.38.933-2.505 2.279-3.65 3.473 4.72.143 7.36-1.127 10.75-4.273zm-12.355.361c-2.683.169-5.678.312-8.218 1.313-1.842.748-2.977 2.767-4.121 4.306 2.607-.05 5.829.311 8.1-1.16 1.758-1.01 3.028-2.877 4.24-4.459m-16.356 1.038c-1.52.005-3.045.078-4.512.367-2.515.807-4.273 3.886-5.77 5.93 1.901-.05 3.944.059 5.795-.404 3.087-1.102 5.156-3.423 7.2-5.862-.892-.013-1.801-.034-2.713-.031m-11.745.695c-5.156-.026-9.723 2.507-13.054 6.325 2.708.009 6.122.43 8.511-1.101 1.876-1.211 3.29-3.407 4.543-5.224m296.987 9.652c-4.33-.088-8.85 1.142-12.818 2.41 5.03 3.306 10.572 5.18 16.367 6.66 4.534 1.094 9.042 2.062 13.735 2.02-1.093-2.11-1.96-4.113-3.978-5.492-2.725-1.868-5.787-4.341-9.067-5.022-1.373-.37-2.795-.546-4.239-.576m-111.16 1.635c-7.506.052-14.888 2.377-21.722 5.418-4.576 2.069-9.514 3.995-13.711 6.745 7.401 1.817 13.836 1.707 21.12-.555 8.36-2.835 16.696-5.837 24.83-9.277-1.691-.908-3.364-1.74-5.307-1.985a35 35 0 0 0-5.21-.346zm29.142 2.699c-5.028.039-10.225 1.095-14.597 3.56 4.483 2.549 9.472 4.289 14.35 5.93 5.24 1.135 11.313 1.95 16.52.344-3.07-5.215-7.9-9.303-14.131-9.79a38 38 0 0 0-2.142-.045zm67.386 6.495a28.6 28.6 0 0 0-4.878.345l.817.286c3.036.984 6.341 1.28 9.487 1.826 11.834 1.699 23.501 4.197 35.292 6.106 6.334.942 12.12 2.835 18.631 2.372-3.516-.984-7.1-1.548-10.64-2.38-5.4-1.346-10.876-2.692-16.393-3.458-6.107-.84-12.188-1.43-18.21-2.826-4.832-1.06-9.338-2.21-14.106-2.27" fill="#fff"/>
<path d="M491.315 458.526a135.8 135.8 0 0 0-33.71 4.223c-10.741 2.322-21.247 5.526-31.348 9.841-5.215 2.22-10.21 5.148-15.501 7.133-5.829 2.195-12.147 2.179-18.278 2.734-17.117 1.665-34.217 3.053-51.3 5.148-15.055 2.027-29.917 5.063-44.603 8.966-10.177 2.548-20.388 5.155-30.322 8.57-8.503 2.338-17.445 3.162-26.05 5.088-14.71 3.701-28.816 6.419-42.753 12.777-5.577 2.65-10.96 5.72-16.115 9.11-5.257 3.389-9.925 8.142-14.366 12.558-11.406 11.473-20.011 25.191-26.345 40.028-3.432 8.554-6.425 18.008-10.833 26.251a642 642 0 0 1-4.457 8.167c-4.08 7.401-9.867 14.013-14.199 21.138-5.627 9.386-10.312 18.782-11.506 29.834-.572 6.224-.698 13.424 1.951 19.22 2.036 4.423 4.685 8.46 8.723 11.304.538-7.225-.437-13.56 1.094-20.608 2.153-10 7.418-19.489 13.76-27.437 1.673-2.137 3.415-4.265 5.61-5.889 2.238 3.567 3.381 7.941 4.895 11.87 2.566 7.216 5.307 14.677 3.557 22.448-1.21 4.962-6.248 7.881-7.788 12.187-.9 4.282.084 9.051 2.22 12.836 2.81 4.946 7.302 8.293 10.742 12.827 4.449 5.643 6.812 13.255 8.528 20.153 1.254 4.92 1.623 10.707 4.054 15.198 3.221 4.324 11.02 3.717 14.602 8.066 2.498 2.464 4.113 6.15 8.066 6.25 5.644.396 12.028.311 17.276-2.035 3.466-1.438 8.463-3.012 10.355-6.52.236-2.228-1.32-4.61-2.818-6.14-3.717-3.642-8.529-6.813-11.724-10.951-1.463-2.263-3.34-4.736-1.068-7.192 2.532 2.448 3.524 5.62 6.064 8.042 2.456 2.321 5.643 3.885 8.31 6.005 4.5 3.6 8.983 7.342 13.778 10.555 2.59 1.75 6.426 1.237 8.192-1.404.37-1.742.362-3.575.488-5.342 1.993.757 3.86 1.078 5.247 2.844 2.061 2.204 4.224 6.14 7.462 6.544 4.029.437 8.276.698 12.296.092 3.836-.891 7.562-2.313 11.347-3.415-1.262-2.742-2.993-4.39-5.483-6.03-5.686-3.777-10.808-8.226-16.166-12.423-4.77-3.743-9.21-8.749-10.682-14.771 5.66.883 10.732 4.467 13.28 9.614 1.834 3.718 3.592 7.266 6.746 10.067 2.02 1.716 4.155 4.971 7.023 4.862 2.91.143 6.057-1.127 8.867-1.884 4.525-1.278 9.395-1.884 13.423-4.49 3.675-2.39 5.29-6.402 8.85-8.85 3.448-2.355 7.275-3.667 11.312-4.6-.412 1.614-.597 3.675-1.607 5.046-4.39 5.711-12.483 7.157-16.293 13.18-.917 1.48-2.152 3.508-1.379 5.274 1.868 1.951 5.274 2.287 7.773 1.757 2.48-1.228 4.498-3.272 6.946-4.61 5.476-3.028 10.354-6.737 16.217-9.067 3.953-1.547 8.075-3.515 12.288-4.146 1.876.48 4.568 2.709 5.097 4.61-2.355 1.791-5.383 2.22-8.218 2.741-5.231.858-10.824 1.708-15.778 3.701-2.977 1.186-5.787 3.306-6.99 6.368.009 2.06 3.457 2.674 5.013 3.103 10.648 2.019 21.019-5.896 32.273-4.281-2.532 2.027-5.467 2.455-8.537 3.128-4.374.959-8.882 2.407-12.59 4.989-2.289 1.648-4.224 3.582-4.83 6.434 2.112 1.96 5.022 3.238 7.924 3.213 2.633-.277 4.987-2.347 7.586-2.97 2.229-.504 4.593-.58 6.847-1 3.406-.639 6.418-1.993 9.926-2.288 3.036-.269 6.148-.168 9.2-.168 1.918-3.18 3.912-6.165 7.024-8.318 5.114-3.575 10.514-6.73 15.434-10.632 3.356-2.675 4.947-6.662 8.673-9.025-.286 1.817-.346 3.818-1.338 5.399-2.246 3.751-5.997 6.68-8.05 10.523-.984 1.632.666 3.431 2.112 4.054 2.927 1.06 6.527.656 9.606.63-.177 1.977-.363 3.954-.523 5.94 2.709.706 5.443 1.714 8.227 2.05 2.372-1.824 4.365-4.095 6.83-5.836 3.75-2.574 3.945-6.476 6.905-9.891 3.34-3.911 8.251-7.638 12.936-9.757 3.322-1.548 6.998-.37 10.43.126 5.702 1.085 11.389 1.119 17.15 1.514-5.458 5.29-14.912 4.735-21.044 9.067-1.211.942-2.162 1.976-1.725 3.625 2.372 2.044 6.729 3.802 9.841 3.928 4.567-.698 8.454-3.66 13.072-4.517-.968 1.69-2.852 3.803-2.743 5.813.404 1.833 3.08 2.985 4.795 3.036 3.6.202 7.444-.218 10.942-1.102 3.81-.967 6.561-3.432 10.144-5.114 5.316-2.507 12.34-3.777 17.059-7.377 5.004-3.583 1.858-10.614 6.72-14.938 2.54.37 5.619 2.321 8.024 1.093 4.349-1.993 8.083-5.551 10.522-9.647 1.85-2.953 3.869-6.367 6.67-8.512 1.236-.959 2.448-1.295 4.021-1.186.791 3.356.11 6.518-1.707 9.412-3.011 5.181-7.537 7.873-8.538 14.122 2.515.48 5.358 1.312 7.83.345 2.843-1.127 5.46-2.936 7.882-4.77 2.708-1.833 2.768-5.096 3.844-7.948 1.632-5.248 5.072-9.193 8.437-13.39 1.244-1.48 2.548-3.171 4.18-4.231 2.43-.244 5.02.472 7.452.707 5.03.782 9.673-1.144 15.014-1.615-.235 3.087-.336 5.913-2.246 8.504-3.709 5.282-9.42 9.252-13.643 14.13-.588.724-1.109 1.506-1.47 2.372 1.497 2.666 5.525 3.221 8.284 3.339 1.53.168 2.465-1.296 3.55-2.145 2.91-2.826 6.089-4.206 8.428-7.478 3.339-4.66 7.031-11.64 12.38-14.164 2.162.858 2.473 3.448 2.59 5.467-.025 3.953-2.95 7.082-5.297 9.959-1.321 1.682-3.239 3.76-2.717 6.072 1.287 2.162 4.6 3.937 7.09 3.684 2.918-1.379 5.577-3.717 7.604-6.215 3.221-4.542 3.432-11.39 6.805-15.931 1.127-1.775 3.145-3.768 3.154-5.955.16-4.399-3.13-8.024-3.154-12.634-.186-3.827 1.85-6.51 2.455-10.085.143-3.39-1.186-7.225-.437-10.522 3.196-2.7 6.88-3.752 9.353-7.47 1.75-2.279 1.868-4.802 2.07-7.56q-1.389 1.74-2.752 3.507c-2.001-.404-4.557-.858-6.525-.169-1.892 1.615-1.389 4.853-2.92 6.678-2.161 1.296-4.315-.428-5.98-1.723-4.82-4.13-8.916-8.495-14.711-11.38-9.185-4.735-19.38-4.896-29.456-4.114-5.593.303-11.237 1.212-16.83 1.044-7.091-.143-14.056-4.635-21.012-4.77-5.98.228-11.522 2.011-16.956 4.383-3.801 1.657-7.47 2.347-11.633 1.952-2.044.092-4.937-1.002-6.005 1.412-.79 2.346-.908 6.325-.042 8.664 1.834 2.27 5.123 3.482 7.528 5.088 3.213 1.85 5.5 4.525 7.906 7.267 2.877 3.255 6.51 5.014 9.11 8.522 1.623 2.195 3.339 4.836 3.743 7.578-.118 1.27-.724 2.523-1.16 3.717-1.877.27-5.435-.277-6.52 1.616-1.48 1.682.876 3.969 1.397 5.744-.454 1.009-1.312 2.27-2.532 2.338-2.01-.513-3.608-2.725-4.996-4.172-2.632-3.078-5.568-5.787-9.185-7.67-4.6-2.415-9.202-4.878-13.904-7.107-3.34-1.624-7.098-2.23-10.395-3.886-1.178-.564-1.153-2.053-1.262-3.172-.11-5.34.891-10.774 1.934-16.006 1.725-8.47 5.425-15.469 8.53-23.418 1.328-3.33 2.65-6.46 5.257-9.025 3.658-3.776 8.116-5.45 12.902-7.308 7.15-2.684 14.542-5.88 20.834-10.254 7.427-4.996 12.895-13.423 17.992-20.69 3.625-5.846 8.083-10.986 13.828-14.83 1.816-1.261 3.944-.697 6.005-.52 3.776.596 7.545.908 11.363.487 8.479-.597 17.042-4.248 25.006-7.2 5.972-2.212 12.272-5.518 18.724-5.29 4.07-.119 9.318.614 12.826-1.826 3.818-2.464 5.307-6.897 6.156-11.137 1.136-5.618.883-11.43-1.455-16.712-.816-1.791-1.942-2.918-3.717-3.767-3.692-1.758-7.687-2.794-11.337-4.703-4.895-2.456-8.908-6.224-12.028-10.69-.967-1.506-2.061-3.096-1.901-4.971 2.994-2.457 6.787-3.768 9.883-6.14 4.197-3.188 8.377-6.897 11.994-10.733 4.348-4.668 7.242-12.272 4.988-18.513-7.974 2.262-16.469 1.548-24.039-1.792-7.712-2.91-13.879-8.318-21.541-11.254-7.427-3.087-15.662-4.18-23.66-3.49-4.424.345-8.2 2.347-12.616 2.38-3.239.059-6.578-.16-9.725-.984-3.23-.917-6.257-2.708-9.412-3.902-4.113-1.565-8.453-2.659-12.818-3.13-3.783-.309-7.571-.463-11.356-.463zM249.857 648.053q.662 0 1.326.03c2.078.235 5.813.722 6.57 3.077-4.096 1.355-8.479 1.254-12.617 2.684-4.483 1.539-8.663 4.155-12.28 7.192-3.264 2.75-4.643 6.4-7.225 9.605-1.17 1.506-3.676 1.918-5.216.774-1.194-2.38-1.152-5.476-.958-8.067.092-1.917 2.035-3.557 3.255-4.895 2.759-2.658 5.148-5.576 7.385-8.68 6.695.276 13.145-1.725 19.76-1.72m154.967 7.086c1.766 2.346 2.707 4.878 3.38 7.713-5.761.067-11.48-.589-17.133-1.64 2.792-2.339 6.158-1.825 9.21-3.524 1.532-.807 3.003-1.742 4.542-2.55m-124.636.54c.933.02 1.86.145 2.754.385 4.802 1.178 10.253 3.726 12.33 8.529 1.48 3.97.588 8.874.941 13.072.673 9.555 1.843 19.075 2.726 28.605.437 3.961-1.935 6.207-4.315 8.933-5.164 5.433-11.094 10.698-17.697 14.324-1.278.563-2.675 1.48-3.912.311-4.861-3.953-7.309-10.792-8.234-16.814-.614-3.903-1.969-7.57-2.927-11.38-.875-3.734.21-6.906.916-10.514.682-3.07.868-6.19 1.448-9.269.63-3.608 3.297-6.755 4.247-10.38.942-3.457.168-7.334 1.16-10.706 2.33-3.267 6.517-5.179 10.562-5.095zm39.292 6.48c1.824-.05 3.725.319 5.635.609 4.239.706 7.796 3.087 11.876 4.138 2.01-.285 3.995-1.076 5.955-1.615 4.045-1.186 8.336-1.455 12.532-1.547 4.19-.042 8.202.117 12.105 1.816 4.214 1.842 8.208 4.651 11.043 8.302 3.54 4.844 4.13 11.674 7.68 16.738 1.707 2.557 4.323 4.862 5.543 7.67 1.244 3.6 1.589 7.57 1.64 11.356.042 6.073-2.937 11.465-4.922 17.109-1.093 3.12-2.447 5.728-4.592 8.251-2.725-4.634-2.801-10.017-5.551-14.669-4.013-7.88-10.531-12.852-17.807-17.52-5.702-3.735-12.262-6.729-17.494-11.094-5.14-4.306-5.45-12.096-10.253-16.68-5.77-5.256-13.307-4.945-18.564-10.968 1.602-1.38 3.35-1.845 5.175-1.895zm288.434 6.264c.69.71.5 2.114-.343 2.95-1.43.84-3.062-1.777-2.003-2.743.21-.191 1.798-.77 2.346-.207m-422.759 17.139c1.489 1.43 2.885 2.953 4.306 4.441-5.568 5.148-12.751 9.8-16.351 16.444-.765.993-1.034 2.144-2.464 2.203-.589-.757-1.607-1.892-1.363-2.926.597-2.347 2.019-4.568 3.34-6.587 3.464-5.089 7.654-9.79 12.532-13.575zm324.534 17.731c.58 5.535-2.54 9.605-4.929 14.332-1.253 2.447-2.767 3.76-5.147 5.055-.244-2.338-.664-4.836-.378-7.174.84-1.565 2.345-2.802 3.456-4.18 2.565-2.903 3.238-6.267 6.998-8.033m-338.766 10.573c1.228 4.104 2.642 8.31 3.062 12.583.042 2.262.068 4.945-1.816 6.535-2.498-2.044-3.079-4.778-3.903-7.73-.8-3.239-1.523-6.99-.833-10.295.824-.842 2.389-.858 3.49-1.093zm82.775 9.959c1.53.58 2.514 1.185 3.271 2.682 2.153 4.189 4.13 8.588 5.29 13.163-1.858-1-3.456-1.926-4.373-3.936-1.741-3.66-4.087-7.788-4.188-11.91zm-42.67 8.596c2.12-.025 3.062.344 4.383 2 3.297 4.484 6.089 9.606 7.922 14.863-3.961-1.413-7.653-3.13-10.412-6.426-2.187-2.801-2.414-7.065-1.892-10.438zm187.534 11.582c-1.564 5.433-6.603 9.891-11.22 12.852 2.498-4.752 6.788-9.816 11.22-12.852"/>
<path d="m481.51 462.45c-3.717 0.105-7.4144 0.40444-10.943 1.1484-8.865 1.859-17.655 3.7022-26.125 6.9902-12.583 4.946-24.888 9.3389-36.924 15.336-11.161 4.979-23.231 10.625-35.453 12.08 6.923-3.785 14.636-6.0087 21.424-10.18-19.186 0.656-38.515 3.2991-57.566 5.6211-8.697 0.975-17.192 2.8684-25.746 4.6094-17.343 4.012-34.209 8.8556-50.678 15.686-13.727 6.056-27.034 12.684-41.029 18.211-3.592 1.202-6.9721 2.9027-10.539 4.1387 1.69-1.766 3.6493-3.197 5.7363-4.459 11.556-7.309 24.863-12.103 36.789-18.588-6.838 0.85799-13.6 2.6332-20.27 4.3242-13.794 3.894-26.9 7.1995-39.717 13.854-6.266 3.347-11.7 8.5786-16.83 13.432-5.03 5.047-9.9776 10.48-13.932 16.418-5.475 8.032-9.7728 16.714-13.508 25.68-2.65 6.729-5.0546 13.576-7.9316 20.211-4.054 8.47-7.7976 16.579-13.686 23.99-6.72 8.167-14.24 17.216-17.344 27.486-1.892 6.03-4.2705 12.869-3.6055 19.236 0.218 3.457 1.4619 6.6039 3.0859 9.6309 0.445-5.584 0.77505-10.926 2.373-16.342 2.683-9.295 7.8445-17.345 14.02-24.688 3.052-3.818 6.7974-7.7289 8.8164-12.17 1.522-3.204 2.4047-6.5962 4.1797-9.6992 8e-3 3.474-0.61489 6.8715-0.46289 10.354 0.353 8.655 2.977 16.411 6.123 24.377 2.927 7.898 5.1398 15.987 3.3398 24.439-1.27 4.98-5.5517 7.1605-7.8477 11.062-0.597 3.34-0.20995 7.3765 1.623 10.312 2.607 3.524 6.0141 6.4004 8.5371 10.025 6.519 9.151 8.9731 19.204 11.412 29.961 0.64 2.339 1.0101 5.2833 3.1641 6.7383 2.574 1.75 6.5422 1.5207 9.4102 2.3867 2.91 1.96 4.5848 6.0498 6.3008 9.0098 3.726 0.699 7.4789 0.85878 11.256 0.92578-1.833-3.154-3.38-6.4271-5.416-9.4551 4.879 0.67299 6.6667 4.6679 10.889 6.6699 1.43 0.539 3.2669 0.11759 4.7559 0.05859-6.258-5.551-13.626-9.5798-19.623-15.383-3.701-3.331-8.5303-6.4343-11.195-10.656-2.499-4.214-4.1135-9.0019-4.8535-13.838-0.362-2.153-0.57955-4.222-1.3106-6.291-2.608-1.438-6.5797 0.06716-9.2617-1.5898-3.07-1.665-4.8715-4.2731-5.8555-7.5781 1.463 1.556 2.7178 3.6167 4.5098 4.8027 1.143 0.32 2.364 0.44586 3.541 0.63086-0.81599-1.867-2.3393-3.9464-1.8613-6.0234 0.405-1.657 1.8861-3.7836 3.7871-3.7246 2.498 0.034 5.0211 0.72298 7.4941 1.084 4.23-5.82 8.1181-11.723 12.996-17.064 4.214-4.399 8.7397-8.8075 13.803-12.23 7.578-4.61 15.982-8.8669 23.316-14.586 6.712-5.67 12.346-12.464 13.322-21.531 0.916-8.899-2.7998-16.075-5.4668-24.242-1.253-3.97-2.19-8.6787 0.16602-12.43 0.328 3.036 0.25992 5.9377 1.2949 8.8477 2.027 5.98 6.0153 10.823 7.6133 17.039 2.027 6.064 1.488 11.975 1.707 18.242 5.762 0.16 11.211-1.7147 17.023-1.3027 4.315 0.193 8.7998 1.64 12.215 4.332 2.372 1.892 3.0925 4.4155 4.2695 7.0645 3.65-1.21 7.4129-2.9353 11.256-3.0703 2.801-0.11 5.6785-0.10909 8.4375 0.37891 3.927 0.934 7.4779 3.0609 10.338 5.8789 2.414 2.195 4.3967 4.7874 7.8867 5.1484 1.413-1.455 2.2718-2.8341 4.3828-3.3301 6.855-3.213 14.483-2.7591 21.498-0.32813 2.372 0.715 4.66 1.9423 7.082 2.4043 3.995-1.295 7.5802-2.9931 11.869-3.3301 9.168-0.572 18.393-0.01667 25.98 5.7363 1.716 1.085 3.6677 3.3235 5.8047 3.1465 0.1-2.229-0.51345-4.3486-0.56445-6.5605 0.85799-1.514 2.9438-2.3143 4.5078-2.8613 4.45-1.396 9.632-2.3306 14.123-4.3906 1.64-0.833 3.2553-1.5877 3.7773-3.5137 0.883-3.078 0.79066-6.3782 1.5977-9.4902 1.371-6.998 5.2996-12.437 7.3516-19.182 2.7-8.26 2.3888-16.597 1.0508-25.059 1.708 2.195 2.3895 4.7367 3.0625 7.3867 1.96 7.603 1.7329 15.703-1.4551 22.945-2.767 6.41-6.1484 11.65-6.2324 18.934-0.387 5.324 1.1946 10.244 3.4316 14.988 0.64 1.287 1.4036 2.4233 2.7246 3.0703 3.877 2.044 8.3268 3.1021 11.717 5.9961 3.717 3.263 6.9062 7.1335 10.658 10.355 4.164 3.415 9.8479 5.635 15.256 5.5 2.187-1.194 1.8853-3.2626 2.0273-5.3906 0.017-6.3 1.2535-12.392 3.1035-18.389 1.573-4.794 3.9798-9.3773 5.9648-14.029 4.533-9.84 6.8792-20.683 5.7012-31.533-0.74-5.686-3.6586-10.386-4.8516-16.004 4.836 3.961 7.1403 9.7139 8.4453 15.67 0.9 4.264 0.77367 8.5022 0.63867 12.826 4.988-2.355 10.034-4.518 15.24-6.334 7.512-2.566 14.822-6.7019 20.424-12.379 6.25-5.989 11.328-13.736 16.525-20.541 3.55-4.6 7.8827-7.9054 12.098-11.816a244 244 0 0 0-0.08398-4.9609c3.171 2.986 6.9387 4.8585 11.303 5.2715 10.161 0.858 20.112-2.1617 29.516-5.6777 4.87-1.917 9.4276-2.9623 13.852-5.7383-4.054-0.547-8.0576-0.11547-12.061-0.85547 5.5-2.776 12.482-2.8433 18.336-1.1953 4.046 1.026 8.137 2.043 11.998 0.04102 1.953-1.528 4.9614-4.0472 4.6934-5.4941-1.351-1.638-1.1491-2.4063-0.86914-3.6133 0.263-1.136 2.2324-2.6934 2.2324-2.6934 1.095-4.974-1.3411-9.6041-1.7871-11.369-10.413 4.13-13.224 19.282-13.414 20.379-0.9-2.55-1.2039-5.1137-0.29492-7.7207 1.833-5.24 5.98-9.8396 8.873-14.643-6.544-2.54-12.618-5.2589-17.85-10.086-5.122-4.912-9.746-10.521-14.002-16.199-4.214-5.92-8.0666-12.011-12.643-17.697-4.34-5.467-9.3045-10.329-14.604-14.854-5.257-4.542-11.815-7.772-18.662-9-7.116-1.035-14.697 0.04188-21.729-0.32812 2.019-1.708 4.4334-2.2967 6.8984-3.0957-2.986-1.859-6.2514-2.8423-9.6914-3.4473-5.215-0.934-9.95-2.1467-15.123-2.2227-3.608-0.038-7.3426-0.12453-11.059-0.01953v-0.00977zm71.33 7.8242c-2.234 0.028-4.4399 0.26274-6.5469 0.80274 1.951 2.11 4.5997 3.6334 6.8457 5.5254 3.221 2.658 6.4003 5.3764 9.4883 8.1934 5.938 5.476 10.656 11.75 15.324 18.303 2.641 3.507 4.5425 7.1069 7.6465 10.211 7.376-3.743 14.433-7.4189 20.539-13.129 3.684-3.542 5.5846-8.2013 6.3086-13.197-5.543 0.429-10.824 0.8429-16.291-0.6211-11.582-3.036-20.891-12.501-32.271-14.924-3.523-0.678-7.32-1.2101-11.043-1.1641zm-28.609 11.51c-0.218 3.339-0.67316 6.4002-0.16016 9.7402 1.295 6.897 4.7857 13.551 5.8457 20.414 0.572 4.18 0.37722 8.4868-0.05078 12.676-0.69 5.299-3.6999 9.4462-6.8379 13.576-4.55 6.2-8.3096 12.507-7.5606 20.531-0.463-0.05-0.91709-0.09958-1.3711-0.14258-1.287-3.97-1.5322-8.1185-0.03516-12.062 2.692-8.319 10.186-13.045 12.121-21.91 0.916-5.45 0.45412-11.271-0.54688-16.688-1.018-5.475-3.8601-9.8508-4.3301-15.301-0.286-2.818 0.0643-5.6002 0.7793-8.3262a87 87 0 0 1 2.1465-2.5078zm-5.7617 0.18555c-0.21 0.538-0.42944 1.0772-0.64844 1.6152-2.077 3.138-4.8606 5.7852-4.6836 9.8652 0.201 5.946 4.5155 11.921 6.0215 17.715 1.447 5.333 1.6646 10.958-2.5234 15.139 0.462-3.785 1.3214-7.148 0.56446-11-1.203-5.913-4.2302-10.514-6.4512-15.914-1.53-3.6-1.7579-8.327 0.41211-11.709 1.783-2.766 4.5246-4.1809 7.3086-5.7109zm-72.059 13.932c4.6505 2.7595 7.133 8.4004 8.0078 13.521 1.934 9.244-2.9864 19.092-2.7344 28.605-0.235 6.46 2.574 12.51 7.082 17.043a65.6 65.6 0 0 0 19.035 12.859c7.115 3.204 15.301 6.1404 23.182 6.0234 5.947 0 11.683 0.22778 17.436-0.94922-0.118 0.47-0.22771 0.94892-0.34571 1.4199-5.669 2.43-11.773 3.5742-17.939 3.4062-9.478-0.614-18.613-3.3739-27.066-7.6719-6.813-3.314-13.215-7.124-18.43-12.709-5.021-4.87-7.612-11.599-7.25-18.58-0.16-10.648 4.5326-19.615 3.4726-30.297-0.17697-4.8604-2.5314-8.3986-4.4492-12.672zm92.338 6.1894c2.5227 1.3873 5.3911 4.2891 8.4766 3.3633 3.886-0.874 8.3446-1.8675 11.936 0.4375 3.356 2.128 4.5999 6.6426 5.9199 10.143 1.278 3.844 4.8887 5.5104 7.3867 9.0254-2.506-0.833-5.0902-1.7164-7.1172-3.4824-1.867-1.683-3.1768-4.1377-4.8848-6.0137-1.37 0.53-2.6759 1.304-3.9629 2.002 0.598 0.832 1.1936 1.6666 1.7656 2.5156-2.633-0.72299-5.5171-1.3047-7.6621-3.0957-3.221-2.54-3.3973-6.7962-6.7363-9.2012-2.2193-1.6315-4.2376-2.9102-5.1211-5.6934zm13.135 3.8965-5.8691 1.5488c-4e-3 0.147 0.95084 1.3191 2.4648 4.0781 0 0 2.2343-4.5 3.4043-5.627zm-218.14 13.947c4.255 2e-3 8.5054 0.12744 12.734 0.39844-1.775 0.833-3.3126 1.1441-5.3066 1.1191-14.046-9e-3 -27.564 2.3541-41.316 4.9531-20.414 3.987-39.9 10.859-58.809 19.438-8.394 3.852-15.848 9.1023-23.695 13.863 3.062-3.734 7.1341-6.1896 11.037-9.1855 3.255-2.472 6.6943-4.6258 10.277-6.5938 8.2-4.56 16.748-8.8001 25.604-11.912 15.502-5.619 31.786-9.7484 48.238-11.152 7.039-0.59 14.144-0.92973 21.236-0.92773zm200.07 3.8477h0.00195c2.313 1.387 4.5747 3.2288 6.0547 5.5078 1.405 2.137 1.286 4.6092 1.252 7.0742-0.1 4.508-2.6329 7.9334-2.0449 12.609 0.227 4.029 3.7115 7.2238 5.6035 10.715-3.381-1.455-6.368-3.3993-7.873-6.9062-1.32-6.426 0.67414-11.92 0.99414-18.135 0.193-4.466-3.7703-6.4912-3.9883-10.865zm-5.5078 22.887c1.11 0.56299 1.9869 1.1515 2.1719 2.4805 0.437 4.248 0.05008 8.3679 1.4551 12.506 1.91 3.835 5.12 5.686 8.543 7.957-4.138 0.47-8.1904-1.9-10.15-5.5-2.4397-4.9294-3.163-12.103-2.0195-17.443zm79.527 7.0195c1.1484 0.17158 2.4451 1.1626 3.7246 3.6602 0 0 0.8797 3.5136-2.9043 4.6836-3.785 1.17-5.5274-2.1426-4.5684-5.5566 0.33063-1.0831 1.8341-3.0731 3.748-2.7871zm-186.34 70.865c4.121 3.818 4.3406 11.381 4.2656 16.588-0.622 5.838-4.2918 11.816-1.5078 17.418 1.657 1.977 3.7512 2.584 6.1152 3.375-4.155 0.95-7.4679-0.80802-9.5449-4.416-1.439-9.984 3.8943-18.868 1.4043-28.162-0.336-1.59-0.65742-3.1697-0.73242-4.8027zm-23.23 5.6953c-3.171 4.71-7.0498 8.8572-11.801 11.994-11.272 7.663-24.26 10.767-37.725 11.541-8.731 0.311-17.352 0.38569-26.082-0.32031-19.716-2.658-38.018-10.204-56.664-17.008l-0.02735-1.2285c6.855 1.969 13.485 4.5264 20.391 6.3184 13.82 3.659 27.946 6.4843 42.186 7.7793 12.407 0.681 24.807 0.20111 37.02-2.2129 5.08-1.093 10.033-2.8827 14.76-5.0527 6.645-3.154 11.937-7.7906 17.943-11.811zm-136.98 24.24c-6.224 1.077-12.81 1.6568-18.463 4.6348-5.484 2.532-9.7497 7.8078-13.055 12.719 0.21 0.968 0.52083 1.925 0.79883 2.875-4.357 1.026-8.6118 2.0947-12.59 4.2227-6.283 3.373-12.374 7.0749-18.186 11.213-5.99 4.138-13.324 7.5869-18.328 12.836-2.96 3.423-6.0227 6.838-5.8457 11.666-0.362 3.684 1.1619 6.636 1.9609 10.084 0.547 4.113-0.0099 8.4874-0.33789 12.609 2.179 1.05 4.5354 1.9678 6.3184 3.6328 3.66 3.365 5.9902 7.5203 9.1172 11.152 0.816 0.993 1.8001 1.5241 2.9941 1.9531 2.625 0.958 5.1405 2.1945 7.7305 3.2285-1.715-3.86-5.0148-5.148-7.9668-7.957-2.927-2.692-6.2923-6.0388-7.4863-9.9238-0.808-3.12 0.59709-5.8311 2.2461-8.3711 2.397-3.474 5.2996-6.2895 6.5606-10.479 0.766-3.053 0.30153-6.52 0.39453-9.666 1.758 2.153 3.3315 4.1386 3.2305 7.0996 0.337 3.145-2.0446 5.9556-1.8926 8.8906 2.187 0.925 4.9128 0.93495 7.2598 1.002 4.012-8e-3 7.7545 0.24247 11.564-1.1445 3.575-1.287 7.5795-2.7 10.48-5.207 2.296-1.791 1.7493-5.8719 2.1953-8.5039 1.37 2.018 2.5752 4.131 3.7012 6.293 2.81 6.19 10.842 7.258 14.375 13.457 3.062 5.35 4.375 11.338 10.666 13.979 2.036 0.984 3.4655-0.76478 4.8105-2.0508-2.396-2.01-4.9443-3.5993-6.9453-6.0723-3.062-3.743-4.9234-8.6298-6.0254-13.299-1.278-5.13-0.07639-11.063-0.90039-16.285-0.572-2.742-2.3712-5.3817-3.5742-7.9297 1.531 1.018 3.0198 2.1025 4.5078 3.1875 2.473-1.809 5.4692-4.0466 6.7812-6.8906 2.035-5.677 2.1604-11.225 2.7324-17.088 1.236-2.59 3.2304-4.7848 4.3574-7.4688 1.85-4.104 1.447-8.6215 1.498-13.021-2.843-1.059-3.4575-2.843-4.6855-5.375v-0.00195zm250.51 2.2949c-1.364 0.04-2.7334 0.17406-4.1094 0.41406-3.414 0.64-6.1361 2.4228-9.2891 3.6758-3.743 1.186-8.1185 1.0933-12.021 1.2363-0.454 1.86-1.1168 3.726-1.3438 5.627 1.379 2.212 5.304 1.8665 7.457 3.1875 0.312 1 0.58255 2.0004 0.81055 3.0274 3.81 4.037 7.8038 7.6215 12.674 10.355 2.532-1.775 4.8923-3.7599 7.2812-5.7109 0.137-0.433 0.19141-0.84414 0.19141-1.2441-1e-3 -0.4-0.05753-0.78978-0.14453-1.1758-0.173-0.773-0.46402-1.538-0.66602-2.375-0.24-0.845-0.40656-1.7103-0.47656-2.5723a10.6 10.6 0 0 1 0.09375-2.5527c0.137-0.833 0.38663-1.6404 0.76563-2.4004s0.88697-1.4723 1.543-2.1133c0.732-0.346 1.4708-0.67934 2.2188-1-0.492 1.88-0.94345 3.7229-1.1894 5.5859a21 21 0 0 0-0.18945 2.8164c1e-3 0.948 0.07514 1.9068 0.24414 2.8848 1.06 1.64 2.2858 3.0541 3.4688 4.4961a39 39 0 0 1 1.7148 2.2168 19 19 0 0 1 1.4883 2.4551c-1.43-0.647-2.7798-1.4095-4.0918-2.2305-1.312-0.82099-2.588-1.7028-3.875-2.5898l-1.5156 1.3887c-0.715 3.566-3.5653 3.7755-5.9453 5.9375 0.723 3.667 4.0027 6.8806 6.8457 9.1016 2.725 2.086 5.7032 3.3642 7.8652 6.1562-1.523 0.151-3.079 0.20051-4.584 0.47851-1.834 1.682-2.8692 4.0136-3.7852 6.2676-1.809 4.534-3.5245 9.235-6.0645 13.457-2.262 3.726-5.4745 5.862-8.5195 9.252 1.052 0.682 2.1042 1.3641 3.1562 2.0371 2.069-1.673 4.4736-3.2472 6.1816-5.2832 2.414-2.893 4.4409-6.2389 7.0059-9.0059 2.734-2.91 6.913-5.2766 9-8.6836 1.009-3.373-0.50597-7.6446 0.95703-10.85 2.07-2.397 5.1058-3.7676 7.2168-6.1816 1.994-2.238 3.6787-3.3318 6.4707-4.3828-2.599 3.575-5.5945 6.9245-6.7305 11.314-0.462 2.28-0.38593 4.6929-0.46093 7.0059-0.387-0.033-0.77297-0.0588-1.168-0.0918a114 114 0 0 0-2.625-2.707c0.025 5.955 1.6048 13.026 0.38476 18.939-1.606 6.132-5.7873 9.3792-9.3203 14.24 3.49 0.404 5.3859-1.7809 8.2109-3.3789 1.986-1.06 2.1694-2.9554 2.9004-4.8984 1.22-3.962 2.7616-7.8977 5.3516-11.178 3.137-3.885 6.5316-7.6675 9.3066-11.814 1.64-2.507 1.22-5.4176 1.666-8.3106 1.775 2.884 1.455 5.7006 1.875 8.9316 4.593 0.715 8.8746 1.4379 13.518 0.50391 4.937-1.077 9.781-2.3308 14.416-4.3828-0.58-2.96-0.98343-6.2076 0.10156-9.1016 0.656-2.052 1.9934-3.4489 3.3984-5.0039-0.724 3.692-1.7902 7.8981-0.0332 11.455 2.65 5.787 8.8394 8.4282 10.9 14.24 0.648 3.609 0.40973 7.6727-1.3223 10.971-1.54 3.07-4.1946 5.4739-6.4746 8.0059a155 155 0 0 0 3.1465 3.0703c1.127-3.07 3.7084-4.3597 5.6504-6.7227 1.708-3.096 2.1966-6.8032 3.6856-10.033 1.27-3.205 3.5054-5.8794 4.7754-9.0664-0.563-3.625-4.2468-6.9902-3.6328-10.783 0.656-5.543 3.9304-10.373 2.4414-16.176-1.438-6.796-7.1323-11.38-12.238-15.543-4.92-3.675-11-7.7106-17.242-8.3496-9.126-0.934-17.891 0.12222-26.932 1.1992-6.232 0.757-12.373-0.2242-18.303-2.1582-3.955-1.268-7.991-1.9989-12.082-1.8789l-0.00391-0.00195zm-250.51 4.6289c-1.556 4.895-4.8878 7.2159-9.8848 7.7969 0.8-2.061 1.2205-4.4852 2.9785-5.9902 1.741-1.742 4.6182-1.4956 6.9062-1.8066zm235.68 0.47851h0.00196c3.473 0.48 6.6751 1.7317 9.8281 3.2207 1.178 0.614 2.6512 0.98647 3.3242 2.2305-2.65 0.968-5.7289 0.22685-8.4629-0.16015-1.22-0.185-2.4136-0.4726-3.5996-0.8086-0.445-1.48-0.7808-2.9764-1.0918-4.4824zm-109.99 2.3086a78 78 0 0 1-0.04297 3.125c-0.454 1.472-0.97533 2.8772-1.2363 4.4082-0.017 6.586 1.4714 12.843 5.4414 18.176 3.55 3.743 7.8315 3.004 11.979 5.418-2.137 0.513-4.2894 0.97587-6.4434 1.4219 9e-3 4.954 1.0182 9.621 2.0352 14.541 0.867 3.937 4.0381 6.4285 4.8711 10.439-2.524-1.068-4.4753-2.8184-6.5273-4.5684-4.29 8.647-6.6627 18.27-11.305 26.832-1.842 3.155-4.7121 5.7698-5.8301 9.2598 1.068 0.774 3.2808 1.3799 4.2988 0.29492 2.885-2.8 5.9307-5.2307 8.3867-8.4277 3.255-4.088 6.9543-7.1576 9.4453-11.768 2.969-5.358 2.8341-11.121 6.9141-15.932-1.237 6.695-3.2979 13.148-4.0039 19.961-0.42 5.215-3.0699 9.1169-5.9219 13.297-2.683 3.86-6.6358 6.2245-9.1328 10.229 1.101 0.37 2.2027 0.73132 3.3047 1.1113 2.07-2.726 4.9201-3.602 7.7031-5.293 1.548-2.447 2.3504-5.287 4.0664-7.668 3.726-5.829 11.789-9.0672 16.432-13.869 2.7-3.55 4.2817-7.5947 7.7637-10.598-0.723 4.087-2.597 7.6086-4.582 11.184 5.77 2.103 11.296 3.8714 17.537 3.5274 5.67-0.345 11.35-1.911 16.842-3.291-1.043-3.086-2.5083-6.2901-1.8613-9.6211 0.455-1.54 2.1052-2.7176 3.1992-3.8106-0.488 2.943-1.1368 5.5992-0.05078 8.5352 1.64 5.005 7.3307 8.7932 9.6777 13.074 1.48 2.876-1.6884 5.6757-3.9004 7.0137-6.183 4.003-13.318 3.6704-17.549 9.3984 3.255-0.277 6.3173-1.1706 9.6133-0.97657 3.457 0.201 5.8978-1.7743 8.8008-3.3223 4.617-2.75 9.569-4.5506 14.582-6.3926 1.85-0.782 4.5516-1.7736 5.4766-3.6836 1.329-3.373 1.8921-7.0079 3.2461-10.381 1.38-3.794 3.5754-6.5502 4.4414-10.369 0.64-3.053 1.1522-5.955 0.11719-9-1.051-3.574-4.2047-6.4354-6.7617-9.0254-7.671-7.25-17.329-10.421-27.203-13.424-6.452-2.06-12.548-2.8106-18.545-5.5606-6.174-2.709-11.463-7.7374-16.105-12.523-3.028-3.087-6.2932-5.7039-10.533-6.8809-5.476-1.44-10.908-2.733-16.586-2.834-4.02-0.622-8.0147-1.4384-12.053-2.0274zm-78.084 0.34376c-2.7983 0.51356-5.3558 1.8388-7.3398 3.8828-0.589 6.047 1.3872 12.542 1.6152 18.547-2.028 4.029-1.5654 8.1996-0.94336 12.516 0.917 4.424 2.7685 8.7907 5.6875 12.264 1.64 1.943 3.0281 3.9772 3.9531 6.3652-2.549-2.498-5.0637-4.987-7.7637-7.334-1.573 2.196-3.1548 4.3334-5.1738 6.1504-5.004 4.424-9.3623 9.1168-14.947 12.885-3.827 2.548-7.4421 5.3907-10.705 8.6387-1.791 1.808-2.8268 4.0202-3.7187 6.3672 2.692-0.43699 4.2134-1.6736 6.0644-3.5156 1.421 0.303 2.8196 0.63181 4.2656 0.75781 2.532-2.077 4.0276-5.1484 6.5176-7.3184 3.777-3.499 8.3436-4.5601 12.809-6.7461 1.136-0.539 1.8262-1.2115 2.4902-2.2715 1.708-2.674 3.0295-5.5764 4.7695-8.2344-0.067 6.165 0.74976 14.14-2.6152 19.557-2.288 4.146-6.41 5.7848-10.127 8.4688-2.826 1.8-5.2474 3.7528-7.3594 6.3848 1.144 0.446 2.2192 0.9267 3.4062 1.2207 1.413-0.95 2.5063-2.4214 3.8613-3.4394 2.413-1.05 4.9956-1.3468 7.3086-2.8438 2.498-1.674 4.4827-3.9806 7.0977-5.5606 5.064-3.012 11.667-3.0952 16.637-6.1152 3.406-2.548 6.0154-6.3329 8.8164-9.5039-1.01 3.415-2.1873 6.7633-3.1543 10.195 4.256 4.037 7.7204 5.591 13.566 6.248 4.222-4.097 7.622-5.3742 13.543-5.3242-3.5 2.33-8.3359 4.232-10.338 8.168-1.346 3.49-0.53932 7.6197-2.9453 10.723-1.867 2.708-4.7253 3.9604-7.8633 4.6094-4.861 0.941-10.246 1.6322-14.906 3.7012-1.977 0.85-3.0604 2.5414-3.7754 4.4844 2.531 1.202 3.7253 0.77298 5.8613-0.79102 2.65-2.22 5.534-1.1533 8.873-2.1543 4.617-1.362 8.9578-3.0033 13.844-3.2383 1.842-0.26 4.5601 0.13628 5.8711-1.3867 2.044-2.22 3.5774-4.7269 6.0254-6.5859 5.862-4.836 14.979-8.329 18.932-15.418 2.97-8.201-1.4299-16.856-6.5449-23.164-8.057-9.438-22.474-13.13-30.986-22.104-3.146-3.289-4.6941-7.2425-6.4941-11.314-2.145-4.483-6.0467-6.8559-10.514-8.5879-5.341-2.078-9.7136-4.9596-13.6-9.1816zm224.27 0.27539c3.398 1.926 5.4754 5.3506 4.3574 9.3105-1.968 5.173-6.4017 7.882-11.305 9.875 0.463-4.946 6.9137-6.6314 8.6797-11.316 0.462-2.758-1.0004-5.2962-1.7324-7.8691zm-318.98 1.0508c-7.234 3.306-14.054 7.7305-20.607 12.23-1.615 1.11-3.3308 2.3376-4.5918 3.8516a7.06 7.06 0 0 0 2.6328 3.1465c1.599 8e-3 2.7995-0.80905 4.1875-1.498 4.542-2.473 9.2037-4.7268 13.762-7.1738 2.061-1.203 4.4815-2.5496 5.8945-4.5176 0.168-2.178-0.55435-4.0371-1.2774-6.0391zm184.88 0.48047h0.00195c2.624 3.718 6.0617 6.6688 8.8887 10.219-3.205 0.016-6.7876 0.45349-9.1426-2.1875 0.134-0.9 0.30877-1.7896 0.50977-2.6816-1.16-1.085-2.3202-2.1698-3.4062-3.3398a133 133 0 0 1 3.1484-2.0098zm-89.807 2.7832c3.473 1.345 6.7389 3.6425 6.4609 7.8144 2.49 0.942 4.3392 0.90793 4.7012 4.0449-0.16 5.635-7.6861 8.6298-7.7871 14.342-0.463 1.59 0.14007 2.4548-1.9199 2.5898-0.20199-2.238-0.34324-4.5927 0.09376-6.8047 0.90899-4.214 5.8373-6.528 7.4863-10.541-2.002-0.9-4.5348-1.0753-6.3008-2.3613-1.632-0.934-0.15983-2.9602 0.07617-4.2812-0.942-1.606-1.9525-3.1627-2.8105-4.8027zm-59.238 0.69336c3.2643 2.2794 2.7751 6.0535 2.0605 9.4844-0.993 3.524-2.4803 7.4883-5.1133 10.111l-1.2383-0.37109c-0.53-3.449 2.484-7.0149 3.375-10.338 0.00234-0.00759 0.00546-0.01391 0.00781-0.02149-5.9e-4 0.00837-0.00136 0.01703-0.00195 0.02539 0.02847-0.09242 0.05933-0.18455 0.08984-0.27539 0.03047-0.09046 0.05992-0.17261 0.0918-0.26172 0.01306-0.03651 0.02388-0.07111 0.03711-0.10742 0.53577-1.4746 1.1987-2.7836 0.63086-4.4023-0.04244-0.70975-0.42288-1.4498-0.58203-2.1309-0.07184-0.30716-0.09697-0.60209-0.02735-0.87695 0.00449-0.01759 0.00839-0.03533 0.01368-0.05274 0.08473-0.28081 0.27765-0.54008 0.63086-0.76758 0.00856-0.00549 0.01663-0.01016 0.02539-0.01562zm-20.211 7.8691c-0.076 1.935-0.52256 4.0541-0.10156 5.9551 2.49 3.97 8.2606 5.1148 11.936 7.9238-4.374 0.379-7.8662-0.61454-11.533-2.9355-1.8-1.22-4.1195-2.6332-4.0195-5.1152-0.067-2.666 2.0278-4.1041 3.7188-5.8281zm102.1 14.555c1.4544 2.6753 2.4682 7.2235-0.83593 8.9551-5.071 2.868-11.808 3.0602-17.434 2.1602 1.01-0.833 1.9941-1.6993 3.1211-2.3633 3.693-1.085 8.117-0.31741 11.582-1.9414 2.7154-1.4037 2.7-4.2041 3.5664-6.8105zm218.96 6.0957c3.684 0.151 6.984 1.4625 10.668 1.6055 3.524 0.219 6.828-0.48897 10.293-0.91797-0.606 0.656-1.2094 1.3052-1.8574 1.9102-3.507 1.59-7.073 2.7174-10.959 1.9434-3.297-0.69799-6.6395-1.05-8.1445-4.541zm-293.52 4.7676c-1.8 1.556-4.3995 2.877-4.2305 5.627-0.034 3.365 0.34452 6.9833 1.3535 10.195 1.59 1.767 3.8681 2.8765 5.1211 4.9375 2.179 3.583 3.0862 7.9817 5.3652 11.473 0.84199 1.278 2.0708 1.7981 3.3828 2.4551-0.067-1.48-0.13456-2.9604-0.22656-4.4414 1.16 0.46333 2.3291 0.90923 3.5078 1.3379-1.657-2.81-3.9119-5.0629-5.9219-7.5859-2.002-2.565-2.246-5.3663-2.834-8.4453-0.917-5.432-2.3896-10.944-5.5176-15.553zm319.32 0.875c-1.2535 0.79973-2.4799 1.6251-3.6484 2.5508-0.825 4.97-0.57166 9.4192-3.3477 13.826-3.163 5.24-8.4197 8.2002-12.096 12.783a107 107 0 0 0 2.2695 1.541c0.883-1.06 1.7341-2.2045 2.7441-3.1465 1.58-1.203 3.7247-1.724 5.2637-3.002 1.22-1.346 1.9857-3.1471 2.9277-4.7031 2.683-4.728 7.3001-8.7471 10.412-13.037 0.437-0.639 0.46493-1.1603 0.08593-1.5723-1.312-1.91-2.9613-3.6082-4.6113-5.2402zm-417.95 1.6836c-0.396 0.00333-0.79207 0.01768-1.1914 0.04102-0.43699 1.767-0.77979 3.5586-1.0918 5.3496 3.23-0.664 6.0046-1.186 7.3086-4.584-1.627-0.622-3.3104-0.82164-5.0254-0.80664zm68.209 20.43c-3.272 1.48-6.6274 2.7427-9.8984 4.2226 2.742 3.264 5.4502 6.3747 7.1992 10.303 1.54 3.003 2.474 6.4699 4.375 9.2539 1.648 1.489 4.5406 1.5722 6.4746 2.6992 2.154 1.59 3.3579 4.5079 5.5859 5.9629 3.264 1.413 6.7201 1.2613 10.203 1.3203-2.414-3.558-5.5685-6.2916-8.5625-9.3106 4.702 1.085 6.5695 4.709 10.312 7.207 1.96 1.253 4.0177 1.0009 6.1797 0.54688-0.454-1.926-2.0251-2.8419-3.4551-4.0449-3.516-2.641-7.0908-5.1992-10.59-7.8652-3.33-2.54-6.7353-4.2052-9.4023-7.5352-3.154-3.987-5.9059-8.3358-8.4199-12.76h-0.00195zm-31.582 3.8008c0.345 4.483 1.0176 8.5544 4.4746 11.734 3.819 3.263 8.6021 5.2659 12.539 8.4199 2.969 2.144 5.4103 5.0212 8.4883 6.9902 2.22 0.815 3.1454-0.45541 4.6934-1.6914-5.98-4.096-12.02-6.0639-16.309-12.213-1.943-3.129-1.2543-7.8971-1.3633-11.455-4.163-0.85-8.2325-1.8192-12.521-1.7852h-0.00196zm265.36 9.5977c-3.836 0.177-5.6518 2.5232-7.9648 5.1562-5.047 5.685-15.241 4.4571-20.17 9.6641 3.095-0.412 5.7029-0.78828 8.7559 0.13672 3.322-0.934 6.2301-2.9889 9.6211-3.8379 5.215-1.355 10.465-1.8498 15.553-3.7598-1.514-2.532-3.1789-5.8364-5.7949-7.3594zm-120.83 5.668c-1.859-0.012-3.6996 0.11178-5.4766 0.80078-3.246 1.17-6.426 2.4221-9.832 3.0781-4.777 1.077-10.068 0.85864-14.652 2.4316-1.783 0.58-2.9339 1.79-4.2969 3.002 0.84099 0.52099 1.691 1.0436 2.541 1.5566 3.095-0.874 6.1144-0.68999 9.2774-0.83399 4.315-1.135 8.2252-3.0441 12.783-3.3301 3.675-0.58 7.6539 0.15196 11.211-0.74804 1.43-1.657 1.4827-3.8129 1.8027-5.8809-1.12-0.013-2.2414-0.06918-3.3574-0.07617z" fill="#fff"/>
</svg>
