<svg width="410" height="487" xmlns="http://www.w3.org/2000/svg"><g stroke-width="1.565"><path d="M6.951 7.698V291.33c0 102.798 88.667 186.132 198.051 186.132s198.051-83.334 198.051-186.132V7.698z" fill="#fcdb00"/><path d="M6.951 291.33c0 .432.014.86.017 1.291l66-100.109 66.017 100.134 66.017-100.134 66.017 100.134 66.017-100.134 66 100.11c.003-.431.017-.86.017-1.292V7.698H6.951z" fill="#0093dd"/><g stroke-linecap="square"><path d="M1.5 460.37c0 .698.021 1.392.026 2.089l99.974-161.96 100 162 100-162 100 162 100-162 99.974 161.96c.005-.697.026-1.391.026-2.089" fill="none" stroke="#000" stroke-width="4.696" transform="matrix(.66017 0 0 .61811 5.96 6.77)"/><g stroke-width="1.538"><g fill="#fcdb00" stroke="#000" stroke-width="4.614" transform="matrix(.64464 0 0 .65588 10.527 -4.437)"><path d="M232.5 35.431s17.856-2.555 27.245 11.93c5.643 8.706 1.128 15.154 9.673 19.991 8.544 4.836 12.639 13.37 12.639 22.564l-5.062 10.323-11.927-3.344s.803-11.327-9.999-16.164-4.03-23.376-7.416-31.437c-3.384-8.06-10.639-11.445-15.153-13.863zm138 252.139s-17.856 2.555-27.245-11.93c-5.643-8.706-1.129-15.154-9.673-19.991-8.545-4.836-12.64-13.37-12.64-22.564l5.063-10.323 11.928 3.344s-.804 11.327 9.997 16.164c10.802 4.836 4.031 23.376 7.417 31.437 3.384 8.06 10.638 11.445 15.153 13.863zM350.12 32.119s13.717 11.268 9.098 27.186c-2.777 9.568-10.582 10.384-8.548 19.602 2.035 9.217-1.636 17.56-8.509 23.365l-11.065 2.868-5.387-10.715s8.998-6.574 5.472-17.42c-3.527-10.844 14.809-17.668 18.597-25.2 3.786-7.532 1.519-14.902.342-19.686zM252.88 290.88s-13.718-11.267-9.098-27.185c2.776-9.569 10.582-10.385 8.548-19.602-2.035-9.218 1.637-17.561 8.51-23.366l11.064-2.867 5.388 10.715s-8.998 6.573-5.473 17.419c3.528 10.845-14.81 17.668-18.595 25.2-3.788 7.532-1.522 14.903-.344 19.686zM92.5 69.501s22.685-10.573 43.5 4.5c29 21 47.271 3.021 72.5 28.25 12.375 12.375 28.744 17.419 28.744 17.419l5.006 12.581-15.783 13.439s-18.842-8.314-29.717-19.189-21-15.75-38.75-15.75c-11.75 0-26.25-16-32.75-25.75s-21.5-15.5-32.75-15.5zm418 183.999s-22.685 10.573-43.5-4.5c-29-21-47.271-3.021-72.5-28.25-12.375-12.375-28.743-17.419-28.743-17.419l-5.007-12.581 15.783-13.439s18.842 8.314 29.717 19.189 21 15.75 38.75 15.75c11.75 0 26.25 16 32.75 25.75s21.5 15.5 32.75 15.5zm-417.657.78s7.435-23.898 32.589-29.163c35.046-7.334 34.03-32.948 69.669-34.647 17.481-.833 32.224-9.554 32.224-9.554l12.677 4.758-.67 20.718s-18.826 8.351-34.189 9.083c-15.362.732-25.779 4.946-37.718 18.081-7.904 8.695-29.497 8.663-41.083 6.914-11.588-1.747-25.932 5.485-33.499 13.81zM510.16 68.725s-7.434 23.898-32.588 29.163c-35.046 7.334-34.031 32.948-69.67 34.648-17.481.833-32.224 9.553-32.224 9.553l-12.677-4.757.671-20.719s18.825-8.35 34.188-9.083c15.361-.732 25.78-4.946 37.719-18.081 7.903-8.695 29.496-8.663 41.084-6.915 11.586 1.748 25.93-5.484 33.497-13.809zM301.5 29.168s-6.289 37.919-13.145 56.793L301.5 99.105l13.145-13.145C307.789 67.087 301.5 29.168 301.5 29.168zm0 264.662s-6.289-37.919-13.145-56.793l13.145-13.145 13.145 13.145c-6.856 18.874-13.145 56.793-13.145 56.793zM180.67 40.668s49.625 58.52 58.124 76.713h18.589V98.792c-18.193-8.499-76.713-58.124-76.713-58.124z"/><path d="M180.67 282.33s58.52-49.625 76.713-58.124v-18.589h-18.589c-8.499 18.193-58.124 76.713-58.124 76.713zM422.33 40.668s-49.626 58.52-58.124 76.713h-18.589V98.792c18.193-8.499 76.713-58.124 76.713-58.124zm0 241.662s-58.52-49.625-76.713-58.124v-18.589h18.589c8.498 18.193 58.124 76.713 58.124 76.713zM88.37 161.5s118.72 6.289 137.59 13.145l13.145-13.145-13.145-13.145C207.086 155.211 88.37 161.5 88.37 161.5zm426.26 0s-118.72 6.289-137.59 13.145L363.894 161.5l13.146-13.145c18.873 6.856 137.59 13.145 137.59 13.145z"/><circle cx="301.5" cy="161.5" r="76.667"/></g><path d="M301.5 195.25s-19.768.018-21.82-2.034c2.311 2.516 4.095 6.06 6.32 8.285 3.75 3.75 8.125 5.75 15.5 5.75s11.75-2 15.5-5.75c2.225-2.225 4.009-5.769 6.319-8.285-2.051 2.053-21.819 2.034-21.819 2.034z" fill="#fff" stroke="#000" stroke-width="4.614" transform="matrix(.64464 0 0 .65588 10.527 -4.437)"/><path d="M266.5 193.5s1.5-3.25 7.375-3.25c2.39 0 4.221 1.241 5.805 2.965m56.82.285s-1.5-3.25-7.375-3.25c-2.39 0-4.221 1.241-5.806 2.965M319.5 170.5s-5-4.167-9.167 0-5.833 5.5-8.833 5.5-4.666-1.333-8.833-5.5-9.167 0-9.167 0m12.33-38.33s0 19-2.667 24.667" transform="matrix(.64464 0 0 .65588 10.527 -4.437)" fill="none" stroke="#000" stroke-width="4.614"/><path d="M225.726 78.747c-3.086 0-5.587 2.545-5.587 5.685s2.501 5.684 5.587 5.684 5.586-2.544 5.586-5.684-2.501-5.685-5.586-5.685zm-41.688 0c-3.085 0-5.586 2.545-5.586 5.685s2.501 5.684 5.586 5.684 5.587-2.544 5.587-5.684-2.502-5.685-5.587-5.685z"/><path d="M318.17 126.17s17.667-11.333 26.667-2.333m-60.007 2.333s-17.667-11.333-26.667-2.333" fill="none" stroke="#000" stroke-width="4.614" transform="matrix(.64464 0 0 .65588 10.527 -4.437)"/></g></g></g><path d="M6.951 7.698v273.55c0 109.38 88.67 198.05 198.05 198.05s198.05-88.669 198.05-198.05V7.698z" fill="none" stroke="#000" stroke-width="10"/></svg>