<?xml version="1.0" encoding="UTF-8"?>
<svg width="500" height="600" xmlns="http://www.w3.org/2000/svg">
 <defs>
  <style>.cls-4{fill:#fff}.cls-3,.cls-4,.cls-5,.cls-6{stroke:#000;stroke-width:3px}
    </style>
 </defs>
 <path d="M5.85 5.85v354.9c0 128.63 109.23 232.9 243.97 232.9s243.97-104.27 243.97-232.9V5.85z" fill="#0093dd" stroke-width="11.7"/>
 <path transform="translate(.007)" d="M5.85 191.16v169.59c0 13.115 1.192 25.958 3.375 38.482h481.19c2.182-12.524 3.375-25.367 3.375-38.482V191.16H5.85z" fill="#fff" stroke-width=".833"/>
 <path class="cls-3" d="m340.42 191.16h28.541v208.07h-28.541z" fill="#0093dd"/>
 <path class="cls-4" d="M358.334 62.375h-17.916c-15.417 0-30.834.925-46.667-6.666v35.2c15.833-7.609 31.25-6.667 46.667-6.667v106.916h28.541V74.142c0-8.767-3.125-11.767-10.625-11.767zM340.418 488.5l14.266 40.974L368.96 488.5v-89.267h-28.541zM287.501 52.459c-3.233 0-6.042 3.225-6.042 3.225v35.2s2.809 3.233 6.042 3.233 6.25-3.234 6.25-3.234v-35.2s-3.025-3.224-6.25-3.224z"/>
 <path class="cls-4" d="m372.5 164.54a3.542 3.542 0 0 1-3.54 3.542h-28.542a3.542 3.542 0 0 1-3.542-3.542v-3.125a3.542 3.542 0 0 1 3.542-3.541h28.541a3.542 3.542 0 0 1 3.542 3.541zm0-49.166a3.542 3.542 0 0 1-3.54 3.542h-28.542a3.542 3.542 0 0 1-3.542-3.542v-3.125a3.542 3.542 0 0 1 3.542-3.542h28.541a3.542 3.542 0 0 1 3.542 3.542zm-259.72 42.291v-105.21l34.066 27.708 4.059 6.041v105.21l-4.059-6.041z"/>
 <path class="cls-5" d="m150.9 178.27-4.059-6.041-34.066-27.708m38.125 20.599-4.059-6.041-34.066-27.708m38.125 20.6-4.059-6.042-34.066-27.708m38.125 20.6-4.059-6.042-34.066-27.708m38.125 20.591-4.059-6.041-34.066-27.709m38.125 20.6-4.059-6.041-34.066-27.709m38.125 20.6-4.059-6.041-34.066-27.708"/>
 <path class="cls-4" d="m202.15 157.67v-105.21l-34.058 27.708-4.066 6.041v105.21l4.066-6.041z"/>
 <path class="cls-5" d="m164.03 178.27 4.066-6.041 34.058-27.708m-38.124 20.599 4.066-6.041 34.058-27.708m-38.124 20.6 4.066-6.042 34.058-27.708m-38.124 20.6 4.066-6.042 34.058-27.708m-38.124 20.591 4.066-6.041 34.058-27.709m-38.124 20.6 4.066-6.041 34.058-27.709m-38.124 20.6 4.066-6.041 34.058-27.708"/>
 <path class="cls-3" d="m147.78 191.16h19.375v208.07h-19.375z" fill="#0093dd"/>
 <path class="cls-4" d="m167.15 455.57v-56.342h-19.409v56.342c-6.908-4.692-22.258-12.942-44.716-12.942 0 0 41.108 34.45 54.408 86.841 13.325-52.391 54.475-86.808 54.475-86.808-22.5 0-37.842 8.217-44.758 12.909zm0-390.83c0-4.775-4.334-8.65-9.684-8.65s-9.725 3.883-9.725 8.658v126.41h19.375z"/>
 <path class="cls-6" d="m4.586 191.16h491.09m-487.68 208.07h483.24"/>
 <path d="M5.85 5.85v354.9c0 128.63 109.23 232.9 243.97 232.9s243.97-104.27 243.97-232.9V5.85z" fill="none" stroke="#000" stroke-width="11.7"/>
</svg>
