<?xml version="1.0" encoding="UTF-8"?>
<svg width="500" height="633" version="1.1" xmlns="http://www.w3.org/2000/svg">
 <path d="M3.086 5.332v377.68c.007 136.36 110.55 246.9 246.91 246.9s246.91-110.54 246.91-246.9V5.332z" fill="#fcdb00" stroke="#0f0" stroke-width="8"/>
 <path d="M8.543 466.72C4.15 453.738 1.22 440.752 0 427.157l52.001-19.781 46.385 8.656 52.491 14.832 53.953-15.453 45.896-6.8 37.845 6.8 43.944 11.745 34.913-1.854 46.874-13.6 37.597-4.946 22.46 5.562 25.392 14.836c-.976 14.215-3.908 27.199-8.545 40.18l-20.752-6.181-61.034-.617-50.05 17.308-54.199-3.707-60.058-12.364-55.907 11.745-40.284 6.181-61.28-18.543-40.772 1.854-35.403 8.038-2.926-4.33" fill="#fff"/>
 <path d="m118.65 414.17c13.915 4.945 25.878 8.652 36.621 8.652 11.717 0 26.122-4.324 41.262-9.269 17.576-6.181 35.889-11.749 53.465-11.749s35.887 5.565 53.465 11.75c15.137 4.944 29.539 9.268 41.26 9.268 10.743 0 22.706-3.707 36.623-8.652 17.818-6.182 37.84-12.982 61.276-12.982 12.209 0 30.519 4.328 43.944 8.037-7.08-103.85-110.6-186.68-236.57-186.68-125.98 0-229.5 82.833-236.57 186.68 13.427-3.707 31.737-8.037 43.944-8.037 23.436 0 43.456 6.8 61.28 12.986" fill="#094"/>
 <path d="m97.655 186.68-20.75 21.016 149.17 152.07s2.932 3.094 3.176 3.094l20.75 21.018 20.752-21.018 3.174-3.092 149.17-152.07-20.752-21.02-149.17 152.07-3.174 3.093-3.17-3.092-149.17-152.07zm118.4 107.56 33.939 34.616 33.93-34.616h-67.87z" fill="#f00000"/>
 <path d="m376.72 529.14c-13.677 4.322-26.126 9.27-38.33 9.27-12.941 0-27.346-4.946-42.484-10.507-15.38-4.949-31.491-10.51-45.896-10.51s-30.519 5.561-45.896 10.508c-15.139 5.563-29.544 10.51-42.482 10.51-12.205 0-24.658-4.947-38.087-9.273-15.625-5.563-33.447-12.362-53.223-12.362-5.126 0-11.963 1.237-19.042 3.091 8.055 10.508 16.844 21.016 26.855 30.91 45.896 44.505 106.93 69.232 171.88 69.232 64.938 0 125.98-24.727 171.87-69.233 10.007-9.893 18.796-20.4 26.855-30.909-7.08-1.854-13.915-3.093-19.044-3.093-19.772 0-37.594 6.8-52.973 12.364" fill="#1c63b7"/>
 <path d="M479.25 462.39c-13.183-4.324-33.451-9.893-46.388-9.893-22.216 0-41.504 6.802-58.349 12.984-13.181 4.945-24.416 8.652-34.665 8.652-10.991 0-24.66-4.324-38.819-9.269-16.846-5.565-34.179-11.749-51.025-11.749-16.847 0-34.179 6.182-51.027 11.75-14.159 4.944-27.831 9.268-38.818 9.268-10.255 0-21.484-3.707-34.667-8.652-16.846-6.182-36.131-12.982-58.349-12.982-12.939 0-33.201 5.563-46.386 9.891-6.105 1.858-10.743 3.093-12.451 3.711 1.71 4.323 3.172 8.654 4.884 12.362 4.881 11.745 10.5 22.255 17.09 32.763a120.63 120.69 0 0 0 7.569 11.747c9.035 13.601 19.532 25.964 31.251 37.09 48.339 46.98 112.55 72.94 180.91 72.94s132.57-25.964 180.9-72.94c11.719-11.126 22.216-23.488 31.251-37.09 2.684-3.707 5.369-7.415 7.569-11.747 6.59-10.508 12.205-21.016 17.09-32.763 1.71-3.707 3.174-8.037 4.884-12.362-1.712-.618-6.352-1.853-12.455-3.71zm-57.375 88.398c-45.9 44.506-106.94 69.233-171.87 69.233-64.942 0-125.98-24.727-171.87-69.233-10.011-9.893-18.8-20.401-26.856-30.909 7.082-1.856 13.915-3.093 19.042-3.093 19.776 0 37.599 6.8 53.225 12.364 13.427 4.325 25.878 9.273 38.087 9.273 12.939 0 27.344-4.948 42.48-10.508 15.38-4.948 31.491-10.51 45.896-10.51s30.519 5.561 45.896 10.508c15.139 5.561 29.544 10.508 42.485 10.508 12.202 0 24.656-4.947 38.328-9.27 15.381-5.564 33.203-12.363 52.977-12.363 5.126 0 11.963 1.235 19.044 3.09-8.062 10.51-16.851 21.018-26.858 30.908zm34.667-42.652c-9.517-2.472-19.288-4.328-26.856-4.328-21.97 0-40.772 6.8-57.373 12.365-12.939 4.945-23.923 8.652-33.93 8.652-10.745 0-24.172-4.324-38.333-9.269-16.358-5.565-33.447-11.128-50.047-11.128s-33.691 5.563-50.049 11.128c-14.161 4.945-27.346 9.27-38.331 9.27-10.009 0-20.998-3.708-33.935-8.653-16.602-5.565-35.401-12.365-57.373-12.365-7.569 0-17.335 1.856-26.855 4.328-6.837-11.126-12.943-22.255-17.824-33.381 12.451-3.71 30.519-8.654 41.504-8.654 20.02 0 38.087 6.18 53.953 11.745 13.673 4.945 26.611 9.893 39.063 9.893 12.939 0 27.585-4.948 42.968-10.51 15.868-5.565 32.225-11.126 46.873-11.126s31.005 5.561 46.876 11.126c15.38 5.561 30.029 10.508 42.968 10.508 12.449 0 25.39-4.947 39.06-9.893 15.871-5.563 33.935-11.743 53.955-11.743 10.989 0 29.054 4.945 41.504 8.654-4.88 11.126-10.983 22.251-17.818 33.381M493.664.006H.004v427.15c5.615-1.854 39.794-12.978 57.373-12.978 21.24 0 40.284 6.799 57.127 12.362 14.403 4.945 27.831 9.893 40.772 9.893 13.673 0 29.053-4.948 45.164-10.508 16.603-5.567 33.939-11.128 49.562-11.128s32.957 5.561 49.562 11.126c16.112 5.561 31.493 10.508 45.166 10.508 12.939 0 26.368-4.946 40.774-9.891 16.842-5.563 35.886-12.362 57.126-12.362 17.576 0 51.755 11.125 57.373 12.978V.006h-6.35zm-203.61 112.51c0 22.253-17.82 40.798-40.036 40.798s-40.04-18.545-40.04-40.798c0-22.873 17.824-40.8 40.04-40.8s40.036 17.927 40.036 40.8zm87.648 141.56-103.76 105.7-3.172 3.093-20.752 21.019-20.752-21.018c-.248 0-3.175-3.093-3.175-3.093l-103.76-105.71-9.519-9.893-35.889-36.47 20.752-21.016 43.212 43.887 10.01 10.508 95.95 97.669 3.17 3.093 3.172-3.093 95.947-97.667 10.011-10.508 43.21-43.891 20.754 21.018-35.889 36.472zm-161.62 40.181h67.87l-33.933 34.616zm76.905-9.274h-85.94l-46.63-47.597c27.588-9.273 57.861-14.838 89.602-14.838 31.737 0 62.012 5.565 89.597 14.838zm-280.03-126.11V12.993h232.42v49.454c-5.616.618-10.985 1.855-15.869 4.326l-26.366-46.361-8.055 4.326 26.61 46.98c-4.636 3.093-8.544 7.419-11.718 11.747l-45.896-27.201-4.64 8.039 45.896 27.199a51.027 51.053 0 0 0-4.149 16.073h-52.979v9.273h52.98c.487 6.18 1.952 11.125 4.15 16.69l-45.896 26.579 4.638 8.037 45.896-26.581c3.173 4.328 7.083 8.037 11.72 11.745l-26.612 46.363 8.055 4.945 26.366-46.983c4.886 2.472 10.257 4.326 15.871 4.326v47.598c-33.203.618-65.43 6.8-95.217 17.308l-49.317-50.07-3.172-3.088-3.175 3.089-27.343 27.816-3.174 3.093 3.174 3.089 37.353 38.328c-10.743 6.181-21.24 13.6-30.763 22.255-28.075 23.488-48.584 51.308-60.79 82.217zm429.68 242.32c-23.436 0-43.456 6.8-61.278 12.982-13.915 4.944-25.878 8.652-36.621 8.652-11.721 0-26.122-4.324-41.26-9.27-17.578-6.18-35.887-11.748-53.465-11.748s-35.889 5.563-53.465 11.749c-15.139 4.945-29.541 9.269-41.262 9.269-10.743 0-22.704-3.708-36.623-8.652-17.82-6.182-37.84-12.982-61.28-12.982-12.205 0-30.517 4.326-43.944 8.037 4.149-61.818 42.968-116.83 100.58-150.21l102.54 103.85 3.172 3.09 27.104 27.819 3.171 3.093 3.172-3.093 27.097-27.818 3.177-3.091 102.54-103.85c57.615 33.379 96.435 88.398 100.58 150.21-13.422-3.708-31.73-8.037-43.941-8.037zm44.436-242.32v194.72c-12.205-30.91-32.715-58.725-60.792-82.217-9.52-8.654-20.018-16.073-30.761-22.253l37.352-38.328 3.174-3.093-3.174-3.09-27.341-27.813-3.174-3.09-3.173 3.09-49.313 50.07c-29.79-10.507-62.014-16.69-95.217-17.307v-47.597c5.617 0 10.985-1.854 15.868-4.324l26.611 46.98 7.811-4.945-26.609-46.363c4.639-3.71 8.543-7.417 11.717-11.745l45.9 26.58 4.639-8.037-45.9-26.58c2.2-5.566 3.662-10.51 4.15-16.692h52.98v-9.27h-52.98a51.045 51.071 0 0 0-4.15-16.073l45.9-27.201-4.639-8.038-45.9 27.201c-3.172-4.328-7.078-8.654-11.719-11.747l26.611-46.98-7.809-4.328-26.612 46.363c-4.884-2.47-10.253-3.707-15.868-4.328v-49.45h232.42v145.89"/>
</svg>
