<?xml version="1.0" encoding="UTF-8"?>
<svg height="675" width="600" viewBox="0 0 600 675" xml:space="preserve" xmlns="http://www.w3.org/2000/svg">

<path d="m13.163 7.057a6.1919 6.1919 0 0 0-6.1929 6.1929v360.3c0 162.52 131.23 294.43 292.99 294.43s292.99-131.91 292.99-294.43v-360.3a6.1919 6.1919 0 0 0-6.1929-6.1929z"  fill="#fcdb00"/>
<path d="m14.477 400.82c13.679 146.39 136.25 260.96 285.49 260.96s271.8-114.57 285.48-260.96z"  fill="#0093dd" stroke="#0093dd" stroke-miterlimit="3.8637" stroke-width=".60007"/>
<path d="m7.152 400.34c3.0738 34.285 11.982 66.884 25.702 96.8a54.522 54.522 0 0 1 53.752-48.646 54.522 54.522 0 0 1 54.521 54.521v47.319h33.222v-47.319a54.522 54.522 0 0 1 54.521-54.521 54.522 54.522 0 0 1 54.521 54.521v47.319h33.222v-47.319a54.522 54.522 0 0 1 54.521-54.521 54.522 54.522 0 0 1 54.525 54.521v47.319h33.222v-47.319a54.522 54.522 0 0 1 54.521-54.521 54.522 54.522 0 0 1 53.731 48.506c13.684-29.878 22.571-62.428 25.64-96.66z" fill="#fff" stroke="#00000c"  stroke-miterlimit="30" stroke-width="6"/>
<path d="m0 0v375c0 165.69 134.31 300 300 300s300-134.31 300-300v-375zm13.204 13.233h573.6v360.3c0 159.19-128.4 288.23-286.8 288.23s-286.8-129.04-286.8-288.23z"  stroke-width="2.1167"/>
<g transform="matrix(3.1864 0 0 3.1864 -.4174 -22.842)">
<path d="m86.66 15c-4.43 0.74-8.3205 1.7199-10.98 5.6499-1.29-1.26-3.2731-2.518-4.6131-3.728-2.08 2.15-2.4571 5.6059-3.3571 8.4159-1.14 0.11-2.2802 0.22863-3.4102 0.34863 0.82 5.01 1.521 8.8836 6.561 11.414 2.74 1.2 3.3202 3.1597 4.4502 5.6997-5.4-0.99-10.751-1.6894-16.261-1.5894 3.94-4.71 3.88-9.8799 2.77-15.63-1.3267 0.52501-3.2327 1.4585-3.2327 1.4585s-3.3655-6.0514-6.2355-6.8714c-0.68 1.57-2.1409 3.5927-2.7809 5.1727-4.11-3.13-8.2804-2.7298-13.17-2.5898-0.58 4.67-1.4493 8.4389 1.2407 12.649-1.79 0.57-3.8 1.5755-5.56 2.8045 0.55207 1.591 4.517 4.3795 6.567 6.4095-0.36 1.02-0.59506 2.3548-0.55032 3.4785 2.1743 0.60416 4.7474 1.2092 6.5942 1.1925 0 0 1.4258 0.76923 2.9608 2.6793-3.4023 2.2355-6.3019 4.4669-6.9619 8.6869 2.28 0.72 4.5694 1.3398 6.8994 1.8398-1.16 1.43-2.8098 2.9991-3.2798 4.8091-0.28 3.34 0.32053 6.7906 0.54053 10.121 3.34 0.08 6.8297 0.36033 10.14-0.15967 1.83-0.32 3.4695-1.9408 4.9395-3.0308 0.72 2.13 1.5104 4.22 2.3804 6.29 4.11-0.85 6.0106-3.5497 8.3906-6.6797 1.1643 1.0349 2.4582 1.5511 3.6423 2.5463 1.7903-3.119 1.8711-5.7844 1.602-10.152-0.65-4.03-2.0722-7.0323-5.5574-9.4961 0.6125-0.0125 2.74-0.03829 3.3498-0.09204 4.0802-0.35964 7.6513 0.01482 12.665 1.1168 1.4982 2.069 3.1785 3.9386 4.3885 6.1686 0.95363 2.5609 1.6809 5.1755 2.179 6.278l5.2652-5.5639c-1.887-1.226-2.8864-2.5681-4.1679-5.0815 2.93 0.2 5.583 0.49611 8.473 1.0561 1.39 1.48 2.4594 3.3 3.6094 4.96-0.0274 0.0091-0.0546 0.01877-0.082 0.02783 2.6332 1.8361 4.8153 1.2637 6.2022 1.7227 3.69 0.55 6.5422 0.57358 10.202-0.18642-0.55-1.23-1.4449-2.2993-2.0149-3.5293 3.65-1.51 6.5628-3.1646 8.6628-6.5646-2.19-1.34-4.4005-2.4595-6.7705-3.4395 1.57-1.32 3.8804-2.8397 4.4604-4.8896 0.74-2.96 0.79928-6.1211 1.0093-9.1611-3.24-0.72-6.5294-1.6902-9.8394-1.9702-2-0.08-3.6113 1.611-5.2413 2.671-0.21-2.42-1.2074-5.3716-1.6374-7.7716-4 0.17-6.1017 2.9514-8.8317 5.5914-1.08-0.79-2.1693-1.5706-3.2593-2.3306-2.12 4.2-4.0813 8.5827-3.7213 13.403 0.33 2.07 1.5715 4.0384 2.4015 5.9684-3.61-1.14-7.8498-1.5007-10.55-4.2407-3.27-2.67-5.7708-5.8204-8.0508-9.3604 2.24 0.02 4.6599 0.19072 6.8599-0.25928 2.9-0.68 5.5207-2.4298 7.9907-4.0298-0.93538-0.78842-1.6527-1.1094-2.71-1.7247 1.3062-1.5217 3.4544-6.68 3.8994-8.535-1.9-0.23-3.7897-0.39072-5.6997-0.49072 1.08-4.43-0.82005-7.67-2.77-11.48zm-32.903 29.853c1.6743 0.37703 5.4978 0.83156 7.2028 0.71656 6.84 0.12 13.14 0.68078 18.57 5.2808-4.43 0.48-8.9196 0.94928-13.37 1.0093-2-1.02-3.78-3.3405-6-4.0005-2.77-0.76-6.9662-0.44315-9.8123-0.37356 1.0478-0.61739 2.4132-1.7102 3.4093-2.6326z"/>
<path d="m85.87 16.71c2.61 4.02 2.22 7.21 1.28 11.67 2.13-0.02 4.25-0.03 6.37 0.01-1.33 2.63-2.82 4.88-4.77 7.09 0.82 0.7 1.64 1.4 2.45 2.1-2.75 1.15-6.09 2.89-9.11 2.61-2.4-0.37-4.76-2.87-3.19-5.3 2.31-4.03 5.42-7.18 6.59-11.86-2.34 2.84-4.5 5.84-6.54 8.91-1.35 2.16-2.5 4.25-1.95 6.9 1 5.17 5.35 9.65 9.11 13.07 4.19 3.96 10.55 4.55 16.04 4.45-1.58-1.83-3.65-3.64-4.68-5.85-1-3.6 0.54-8.09 1.48-11.6 1.01 1.05 2 2.11 2.99 3.17 2.2-3.4 4.28-5.54 7.77-7.62 0.75 2.8 1.41 5.62 2.09 8.44 2.35-1.54 4.8-4.17 7.83-3.64 1.96 0.31 4.96 0.54 6.35 2.06 0.23 2.5 0.03 5.29-1 7.6-1.32 1.87-3.56 3.19-5.33 4.6 2.47 1.38 4.98 2.7 7.45 4.09-2.78 2.97-5.94 4.09-9.8 5.06 0.86 1.23 1.72 2.46 2.56 3.69-3.47-0.14-7.46-0.18-10.72-1.5-2.18-0.81-3.25-2.69-4.65-4.41 5.95-4.28 10.99-9.92 15.44-15.71-5.9095 3.5979-8.5 8.75-13.82 12.37-4.06 2.97-9.88 1.08-14.52 0.67 0.375 1.06 4.2049 6.8399 4.2049 6.8399s-1.3576 1.7721-2.2968 1.9773c-1.7608-2.9656-3.8284-7.6342-6.4384-9.9742-6.26-1.78-13.81-1.783-20.13-0.40299 2.09 1.6 5.1 3.11 6.37 5.46 1.42 3.59 0.71 7.78 0.2 11.49-1.16-1.09-2.32-2.19-3.47-3.29-1.54 3.75-2.78 6.92-6.58 8.92-0.98-2.57-1.89-5.16-2.83-7.75-1.82 1.63-3.66 3.69-5.88 4.73-2.68 0.73-5.76 0.32-8.52 0.25-0.1-2.79-0.79-6-0.03-8.71 1.06-1.65 2.815-3.5081 4.015-5.0681-1.75-1.6852-5.745-1.7919-7.745-2.7519 2.05-3.91 5.2471-5.2891 8.835-7.2091-1.33-1-2.8102-2.2728-4.1402-3.2828 3.94-0.72 8.6351-0.9381 12.575 0.2519 1.71 0.58 3.11 2.27 4.43 3.47-3.16 5.92-6.9 11.44-10.34 17.19 3.46-2.8 5.82-6.33 7.85-10.24 1.46-2.37 2.76-5.59 5.86-6.06 5.17-0.98 10.52-0.82 15.73-1.63-3.32-3.18-6.96-5.78-11.54-6.73-6.22-1.3-12.67-1.04-18.95-2.12-1.5 1.52-3.18 3.95-5.43 4.16-2.59 0.36-5.36-0.07-7.95-0.28 0.48-1.02 0.96-2.03 1.43-3.04-2.35-1.61-4.57-3.34-6.74-5.21 2.23-1 4.48-1.94 6.74-2.87-1.15-1.62-2.67-3.28-3.3-5.19-0.21-2.13 0.26-4.38 0.5-6.5 2.39 0.13 5-0.03 7.31 0.62 1.67 1 3.06 2.54 4.47 3.86 1.1-2.18 2.22-4.35 3.41-6.49 1.87 2.38 3.4 4.82 4.76 7.52l3.12-1.47c-0.46 3.77 0.47 10.49-4.31 11.73-2.08 0.85-2.95-1.32-4.29-2.5-2.52-3.08-5.2349-5.0174-8.83-7.43 2.81 3.58 6 6.9 9.16 10.17 1.78 1.9 3.63 2.41 6.18 2.46 6.47 0.06 12.4 0.72 18.63 2.46-0.92-2.8-1.82-5.59-2.66-8.41-1.92-0.74-4.46-1.32-5.92-2.83-1.22-1.81-1.84-4.1-2.56-6.15 0.96-0.22 1.91-0.43 2.87-0.64 0.51-2.7 1.17-5.34 2.03-7.95 1.69 1.49 3.36 3.02 5.03 4.54 1.03-1.67 1.98-3.57 3.38-4.96 1.72-1.17 4.07-1.55 6.07-2.03z" fill="#094"/></g>
<g transform="matrix(2.1454 0 0 2.1454 -2.5479 -5.2759)" fill="#0093dd" stroke="#000" stroke-miterlimit="30" stroke-width="2.5"><circle cx="143.17" cy="168.41" r="11.761"/><circle cx="153.12" cy="156.93" r="11.761"/><circle cx="134.96" cy="156.07" r="11.761"/><circle cx="119.09" cy="141.32" r="11.761"/><circle cx="125.36" cy="101.62" r="11.761"/><circle cx="162.16" cy="101.89" r="11.761"/><circle cx="166.71" cy="139.11" r="11.761"/><circle cx="150.81" cy="138.07" r="11.761"/><circle cx="136.07" cy="136.97" r="11.761" fill="#0093dd"/><circle cx="114.48" cy="120.64" r="11.761"/><circle cx="128.48" cy="118.64" r="11.761"/><circle cx="173.07" cy="120.64" r="11.761"/><circle cx="144.48" cy="98.638" r="11.761"/><circle cx="158.48" cy="118.64" r="11.761"/><circle cx="142.48" cy="118.64" r="11.761"/></g></svg>
