<?xml version="1.0" encoding="UTF-8"?>
<svg width="203mm" height="253mm" version="1.1" viewBox="0 0 203 253" xmlns="http://www.w3.org/2000/svg">
 <title>Wappen von  Val Mara TI</title>
 <g transform="translate(-332.674 152.928)">
  <path d="m334.174-151.428 3.87e-4 150.117c6.82916e-5 26.4903 10.5358 51.8959 29.2894 70.6275 18.7535 18.7316 44.1887 29.255 70.7103 29.2551 26.5216 8e-5 51.957-10.5233 70.7107-29.2549 18.7536-18.7316 29.2894-44.1373 29.2894-70.6277l-6e-5 -150.117z" fill="#fff"/>
  <path d="m350.173-23.7281c-7.91162 0-10.1061 5.30516-15.9995 7.48533v14.9324c2.22286e-6 0.862247 0.0123765 1.72303 0.0346232 2.58279 5.82561-2.2028 8.3828-7.70031 15.9649-7.70031 9.45411 0 10.9792 8.59999 21.0003 8.59999 10.0211 0 10.6007-8.59999 20.9998-8.59999 10.3991 0 11.1682 8.59999 21.0003 8.59999 9.83209 0 10.9787-8.59999 20.9998-8.59999 10.0211 0 11.3572 8.59999 21.0003 8.59999 9.6431 0 10.6007-8.59999 20.9998-8.59999 10.3991 0 10.4122 8.59999 21.0003 8.59999s10.4117-8.59999 20.9998-8.59999c8.39892 0 10.5748 5.5088 15.9654 7.70806 0.0223784-0.862341 0.0346236-1.72569 0.0346232-2.59054v-14.9324c-5.37191-2.17458-7.29748-7.48533-16.0001-7.48533-10.941 0-10.0587 8.4-20.9998 8.4-10.941 0-10.6262-8.4-21.0003-8.4-10.374 0-11.7596 8.4-20.9998 8.4-9.24011 0-11.0042-8.4-21.0003-8.4s-11.1927 8.4-20.9998 8.4c-9.80708 0-11.3822-8.4-21.0003-8.4-9.61809 0-11.0037 8.4-20.9998 8.4s-11.1932-8.4-21.0003-8.4z" fill="#0093dd" stroke="#000" stroke-linecap="round" stroke-miterlimit="8" stroke-width="2.5"/>
  <g fill="#094" stroke="#000" stroke-linecap="round">
   <g stroke-miterlimit="8" stroke-width="2.71027">
    <path transform="matrix(.922416 0 0 .922416 337.32 -119.551)" d="m105 175 7.15716 15.149 16.6193 2.12556-12.1959 11.4882 3.1141 16.4627-14.6946-8.04894-14.6946 8.04894 3.1141-16.4627-12.1959-11.4882 16.6193-2.12556z"/>
    <path transform="matrix(.922416 0 0 .922416 283.08 -149.714)" d="m105 175 7.15716 15.149 16.6193 2.12556-12.1959 11.4882 3.1141 16.4627-14.6946-8.04894-14.6946 8.04894 3.1141-16.4627-12.1959-11.4882 16.6193-2.12556z"/>
    <path transform="matrix(.922416 0 0 .922416 391.56 -149.714)" d="m105 175 7.15716 15.149 16.6193 2.12556-12.1959 11.4882 3.1141 16.4627-14.6946-8.04894-14.6946 8.04894 3.1141-16.4627-12.1959-11.4882 16.6193-2.12556z"/>
   </g>
   <g stroke-linejoin="round" stroke-width="2.5">
    <path d="m368.111-92.2165c8.83985-2.60437 20.2465-0.816298 33.2751 4.00904 4.05525 1.50193 3.19565 4.40221-0.801809 4.47676-13.5913 0.253493-24.2679-2.68294-32.4732-8.48581z"/>
    <path d="m369.936-71.4698c9.06365 1.66608 20.2209-1.30451 32.6737-7.46527 3.87604-1.91759 2.71798-4.71213-1.26537-4.36843-13.5433 1.16857-23.8545 5.20493-31.4083 11.8337z"/>
    <path d="m389.162-62.5219c8.92535 2.29427 20.2626 0.109209 33.1149-5.16788 4.00037-1.64254 3.04006-4.51105-0.957557-4.44605-13.5919 0.22099-24.1595 3.52825-32.1573 9.61394z"/>
    <path d="m392.749-40.6908c8.95772-2.16448 17.9421-9.4163 26.8125-20.1095 2.76099-3.32833 0.566406-5.41025-2.93277-3.47609-11.8971 6.57611-19.6751 14.4574-23.8798 23.5855z"/>
    <path d="m414.491-33.8643c6.56347-6.46888 10.5296-17.3122 12.6257-31.0466 0.652411-4.27495-2.30098-4.92921-4.30419-1.4691-6.8109 11.7643-9.41874 22.5259-8.32149 32.5157z"/>
    <path d="m500.237-92.2165c-8.83985-2.60437-20.2465-0.816298-33.2751 4.00904-4.05525 1.50193-3.19565 4.40221 0.801809 4.47676 13.5913 0.253493 24.2679-2.68294 32.4732-8.48581z"/>
    <path d="m498.412-71.4698c-9.06365 1.66608-20.2209-1.30451-32.6737-7.46527-3.87604-1.91759-2.71798-4.71213 1.26537-4.36843 13.5433 1.16857 23.8545 5.20493 31.4083 11.8337z"/>
    <path d="m479.185-62.5219c-8.92535 2.29427-20.2626 0.109209-33.1149-5.16788-4.00037-1.64254-3.04006-4.51105 0.957557-4.44605 13.5919 0.22099 24.1595 3.52825 32.1573 9.61394z"/>
    <path d="m475.599-40.6908c-8.95772-2.16448-17.9421-9.4163-26.8125-20.1095-2.76099-3.32833-0.566406-5.41025 2.93277-3.47609 11.8971 6.57611 19.6751 14.4574 23.8798 23.5855z"/>
    <path d="m453.856-33.8643c-6.56347-6.46888-10.5296-17.3122-12.6257-31.0466-0.652411-4.27495 2.30098-4.92921 4.30419-1.4691 6.8109 11.7643 9.41874 22.5259 8.32149 32.5157z"/>
   </g>
  </g>
  <path d="m434.174-31.428-3.9e-12 -50" fill="none" stroke="#000" stroke-linecap="round" stroke-linejoin="round" stroke-width="2.5"/>
  <g stroke="#000" stroke-linecap="round" stroke-linejoin="round" stroke-width="2.5">
   <path d="m430.145-118.943c-11.8611 0-22.3836 9.1834-22.3836 19.9807 0 10.1218 11.3953 20.2096 26.4118 20.2096 15.0165 0 26.4118-10.0878 26.4118-20.2096 0-10.7973-10.5225-19.9807-22.3836-19.9807-1.75419 2.84329-2.74172 5.50447-4.02818 8.19588-1.28645-2.69142-2.27398-5.35259-4.02818-8.19588z" fill="#ce007f"/>
   <path d="m420.762-137.209c-8.31979 2.47224-16.6036 11.1856-16.6036 20.9806 0 3.94231 1.72883 7.87892 4.72684 11.2169 2.00742-5.30788 6.53419-9.72688 12.1589-12.0856-0.837473-5.56366 0.697456-8.56671 3.81217-9.86451 1.70657 0.0964236 3.36369 0.760996 4.9444 2.30477 1.45767-2.30921 2.9992-3.70778 4.37286-3.70778v-5.19658c-0.96885-1.0938-3.18145-2.72989-5.84357-3.56102-1.94431 1.0346-2.87321 2.57058-3.91552 4.18424-0.979215-1.51101-2.04552-3.45485-3.65249-4.27106zm9.38341 18.2656c0.118793 0.192546 0.23366 0.384235 0.345715 0.575159-0.112078-0.190917-0.226938-0.382638-0.345715-0.575159zm-0.545186 0.0072347c-0.0499907 0.00118643-0.0999247 0.00262351-0.149862 0.00413411 0.0499491-0.00150958 0.0998588-0.00294865 0.149862-0.00413411zm-0.555522 0.0201538c-0.0456337 0.00218472-0.0913583 0.0042644-0.136943 0.00671794 0.0456193-0.00245434 0.0912738-0.00453266 0.136943-0.00671794zm-1.2144 0.089917c-0.048825 0.00491965-0.0974883 0.0102783-0.146244 0.0155029 0.0487557-0.0052222 0.0974196-0.0105856 0.146244-0.0155029zm-0.555005 0.0630452c-0.044959 0.00562333-0.08998 0.0106553-0.134875 0.0165365 0.0448613-0.0058734 0.0899508-0.0109204 0.134875-0.0165365zm-1.21956 0.184485c-0.0243295 0.004355-0.0485562 0.00900563-0.0728638 0.0134359 0.0242991-0.00442676 0.0485427-0.00908429 0.0728638-0.0134359zm-0.532267 0.102319c-0.0366924 0.00744411-0.0734322 0.0146059-0.110071 0.0222209 0.0366456-0.00761349 0.0733714-0.0147783 0.110071-0.0222209zm-1.16117 0.265617c-0.0347126 0.00888246-0.0692129 0.018353-0.10387 0.0273885 0.0346664-0.00903539 0.0691473-0.0185063 0.10387-0.0273885zm6.24665 0.0470256c0.0714873 0.123943 0.142388 0.247713 0.211357 0.371037-0.0689914-0.123308-0.139859-0.247115-0.211357-0.371037zm-6.77323 0.0945679c-0.0399686 0.0112108-0.0799998 0.0221758-0.119889 0.0335897 0.0398738-0.0114064 0.0799365-0.0223863 0.119889-0.0335897zm-1.12138 0.344165c-0.0467785 0.0156373-0.093389 0.0316253-0.140043 0.0475423 0.0466163-0.0159031 0.0933025-0.0319187 0.140043-0.0475423zm8.20105 0.10387c0.0840248 0.152357 0.166917 0.304804 0.24753 0.456303-0.0807503-0.15167-0.163372-0.303779-0.24753-0.456303zm-8.75916 0.0904338c-0.0207979 0.00752779-0.0417568 0.0146375-0.0625285 0.0222209 0.0207765-0.00758517 0.0417257-0.0146914 0.0625285-0.0222209zm9.05733 0.460954c0.0841428 0.159279 0.166685 0.31803 0.24753 0.476457-0.0808458-0.158317-0.163397-0.317291-0.24753-0.476457zm0.304891 0.589628c0.0922484 0.182187 0.183227 0.363984 0.271818 0.545186-0.0886842-0.181266-0.17947-0.362933-0.271818-0.545186zm0.271818 0.545186c0.26941 0.551044 0.52269 1.09743 0.769979 1.64176-0.247314-0.544336-0.500323-1.0906-0.769979-1.64176z" fill="#ee5ba1"/>
   <path d="m447.585-137.209c-1.60697 0.816207-2.67328 2.76004-3.65249 4.27106-1.04231-1.61366-1.97121-3.14964-3.91552-4.18424-2.66212 0.831133-4.87472 2.46723-5.84357 3.56102v5.19658c1.37366-1e-13 2.91571 1.39858 4.37338 3.70778 1.58071-1.54377 3.23783-2.20835 4.9444-2.30477 3.11482 1.29785 4.64932 4.301 3.81165 9.86503 5.62467 2.35871 10.1515 6.77723 12.1589 12.0851 2.99801-3.33796 4.72684-7.27458 4.72684-11.2169 0-9.79502-8.28385-18.5084-16.6036-20.9806zm-9.38341 18.2656c-0.122868 0.199151-0.241372 0.397359-0.357084 0.594796 0.115661-0.197397 0.234229-0.395665 0.357084-0.594796zm0.545186 0.0072347c0.0500028 0.00118547 0.0999126 0.00262453 0.149862 0.00413411-0.0499376-0.0015116-0.0998701-0.00294689-0.149862-0.00413411zm0.557072 0.0201538c0.0447567 0.00214417 0.0896495 0.00431533 0.134359 0.00671794-0.0447269-0.00240687-0.0895841-0.00457-0.134359-0.00671794zm1.21595 0.0904338c0.0460577 0.00464393 0.0919798 0.00955418 0.137976 0.0144694-0.0459976-0.00492133-0.091917-0.0098196-0.137976-0.0144694zm0.555522 0.0625285c0.0436177 0.00545896 0.0871835 0.0108349 0.130741 0.0165365-0.04354-0.00570556-0.0871416-0.0110735-0.130741-0.0165365zm1.21595 0.184485c0.0229557 0.00410729 0.0457936 0.00874484 0.0687297 0.0129191-0.022941-0.00417881-0.045769-0.00880732-0.0687297-0.0129191zm-4.50722 0.334863c-0.0882935 0.152003-0.174913 0.303677-0.259416 0.454753 0.0844993-0.15114 0.171104-0.302677 0.259416-0.454753zm6.20272 0.0335897c0.0322898 0.00826306 0.0643934 0.0169259 0.0966349 0.0253215-0.0322292-0.00839739-0.0643575-0.0170564-0.0966349-0.0253215zm-6.55516 0.589111c-0.084158 0.152524-0.16678 0.304633-0.24753 0.456303 0.0806135-0.151499 0.163505-0.303946 0.24753-0.456303zm-0.295589 0.547253c-0.0949857 0.179639-0.188226 0.358871-0.279053 0.537435 0.0908007-0.178636 0.184083-0.35772 0.279053-0.537435zm-0.285771 0.551388c-0.381568 0.750866-0.728552 1.4921-1.0635 2.22932 0.33493-0.737243 0.682268-1.47859 1.0635-2.22932z" fill="#ee5ba1"/>
   <path d="m406.341-124.951c-4.19579 3.9378-6.25249 11.3223-6.03219 17.1871 0.264391 7.03853 4.63599 13.8056 9.47436 16.2409-1.3069-2.37237-2.02158-4.90487-2.02158-7.43934 0-2.09567 0.397789-4.13 1.12345-6.04873-2.99801-3.33796-4.72684-7.27458-4.72684-11.2169 0-3.06649 0.812087-6.02684 2.18281-8.72298z" fill="#ce007f"/>
   <path d="m462.005-124.952c1.37104 2.69642 2.18333 5.65714 2.18333 8.72402 0 3.94231-1.72883 7.87892-4.72684 11.2169 0.725657 1.91873 1.12345 3.95306 1.12345 6.04873-1e-13 2.53469-0.714985 5.06731-2.0221 7.43986 4.83877-2.43481 9.21098-9.20236 9.47539-16.2414 0.220319-5.86525-1.83656-13.2505-6.03322-17.1881z" fill="#ce007f"/>
  </g>
  <path d="m434.173-128.365c-1.37366 0-2.91519 1.39857-4.37286 3.70778-1.58072-1.54377-3.23783-2.20835-4.9444-2.30477-3.11472 1.29781-4.64964 4.30085-3.81217 9.86451 2.8179-1.18146 5.91096-1.8464 9.10125-1.8464 1.75419 2.84329 2.74173 5.50447 4.02818 8.19588 1.28645-2.69141 2.27398-5.35259 4.02818-8.19588 3.19036 0 6.2833 0.66541 9.10125 1.84692 0.83767-5.56404-0.696827-8.56718-3.81165-9.86503-1.70657 0.0964237-3.36369 0.760995-4.9444 2.30477-1.45767-2.30921-2.99971-3.70778-4.37338-3.70778z" fill="#fcdd09" stroke="#000" stroke-linecap="round" stroke-linejoin="round" stroke-width="2.5"/>
  <path d="m334.174-151.428 3.87e-4 150.117c6.82916e-5 26.4903 10.5358 51.8959 29.2894 70.6275 18.7535 18.7316 44.1887 29.255 70.7103 29.2551 26.5216 8e-5 51.957-10.5233 70.7107-29.2549 18.7536-18.7316 29.2894-44.1373 29.2894-70.6277l-6e-5 -150.117z" fill="none" stroke="#000" stroke-linecap="square" stroke-miterlimit="8" stroke-width="3.00011"/>
 </g>
</svg>
