<svg width="410" height="487" xmlns="http://www.w3.org/2000/svg"><g stroke-width="1.561"><path d="M6.951 7.698v285.39c0 103.434 88.667 187.284 198.051 187.284 109.384 0 198.051-83.85 198.051-187.284V7.698z"/><path d="M6.951 7.698v231.436h396.102V7.698z" fill="#fcdb00"/><path d="M6.951 239.134v53.954c0 103.434 88.667 187.278 198.051 187.278V239.128z" fill="#fff"/><g fill="red" stroke="#000" stroke-linecap="square"><path transform="matrix(2.15407 0 0 2.10881 3.876 23.372)" d="M53.337 27.35V1.49l-4.442 5.87-4.442-5.87v49.657h27.922V1.49l-4.443 5.87-4.442-5.87v25.86zm78.073 0V1.49l4.44 5.87 4.45-5.87v49.657h-27.92V1.49l4.44 5.87 4.44-5.87v25.86zm-46.502 9.74-3.649-4.822v18.879h7.298V32.268zm14.933 0 3.649-4.822v18.879h-7.298V32.268z" stroke-width="1.29"/><g stroke-width="4.292"><path d="M129.46 77.478h115.96v23.131H129.46zm221.62 0h115.96v23.131H351.08zM109.79 196.9H486.7v22.674H109.79z" transform="matrix(.66017 0 0 .62194 5.96 6.765)"/><path d="M273.18 273.99c0-12.871 11.28-23.304 25.062-23.369 13.786.064 25.062 10.498 25.062 23.369v79.437h223.04l-76.808-133.86h-342.58l-76.821 133.86h223.05z" transform="matrix(.66017 0 0 .62194 5.96 6.765)"/><path d="M275.22 353.44v-76.986c0-11.823 10.36-21.409 23.026-21.47 12.663.058 23.026 9.643 23.026 21.47v76.986h9.789v-76.986c0-17.364-14.702-31.557-32.77-31.642h-.084c-18.07.081-32.77 14.275-32.77 31.642v76.986h9.783z" transform="matrix(.66017 0 0 .62194 5.96 6.765)"/></g></g><path d="M272.32 219.57v31.12m-51.86-31.12v31.12m-51.87-31.12v31.12m-25.93 0v31.12m51.86-31.12v31.12m51.87-31.12v31.12m-25.93 0v31.12m-51.87-31.12v31.12m-51.86-31.12v31.12m-.07-75.45.07 13.21M90.8 312.93v40.51m51.86 0v-40.51m51.86 40.51v-40.51m51.87 40.51v-40.51m77.79-93.36v31.12m51.86-31.12v31.12m51.86-31.12v31.12m25.93 0v31.12m-51.86-31.12v31.12m-51.86-31.12v31.12m25.93 0v31.12m51.86-31.12v31.12m51.86-31.12v31.12m.08-75.45-.08 13.21m25.94 62.24v40.51m-51.87 0v-40.51m-51.86 40.51v-40.51m-51.86 40.51v-40.51m-70.76-62.28H109.12m378.25 0H317.08m-51.65 31.15H91.227m414.043 0H331.06m-65.62 31.12H73.438m449.622 0h-192" transform="matrix(.66017 0 0 .62194 5.96 6.765)" fill="none" stroke="#000" stroke-width="4.292"/><path d="M49.162 405.77c-13.826 17.28.495 53.326.495 53.326l43.45 1.976 8.887-4.446 4.938-40.982c-17.283-16.29-39.009-17.28-57.77-9.874zm202.44-6.417c-30.613-9.382-59.251 19.258-59.251 19.258-10.368 17.774 14.317 45.917 14.317 45.917s40.982-.492 46.907-7.9c5.925-7.41 16.791-37.03-1.973-57.275z" fill="#fcdb00" stroke="#000" stroke-linecap="square" stroke-width="4.292" transform="matrix(.66017 0 0 .62194 5.96 6.765)"/><path d="m278.27 529.7-5.433.495s5.928-17.774 7.9-20.74l-7.9 4.935 1.976-16.788s-4.938 4.938-6.42 4.938l-2.467-5.43s-10.863 8.396-14.812 8.396c0 0-2.963-2.96.986-9.382 0 0-9.382.986-24.689 9.382 0 0-.986-4.45 1.481-7.904 0 0-13.826-1.475-22.713 16.296l-3.949-6.914s-10.863 31.105-2.962 50.858c.447 1.117.898 2.165 1.348 3.213-7.417 2.534-16.324 3.97-21.468-.906-.003-.503-.008-.995-.008-1.498 0-43.803 13.478-70.723 16.457-76.136 15.799 7.909 43.19 7.022 50.775-11.925 3.788-9.468 17.519-20.831 24.147-25.092l-26.517 1.892s6.28-5.185 18.044-4.61c0 0-27.984-20.96-35.088-10.068-7.103 10.89-10.416 15.15-10.416 15.15s9.068-13.116 10.646-16.701c1.578-3.585-3.154-18.361-17.07-25.82 0 0 1.58 6.6-.285 10.474 0 0-1.079-9.596-12.23-22.871 0 0 3.312 13.73.472 17.519-2.84 3.788-14.676 6.625-19.884 26.512-4.933 18.828-.934 32.978 12.361 42.469-2.448 4.671-14.918 28.499-16.624 32.339-1.892 4.26-6.155 5.68-9.468-.475-3.193-5.934-19.609-26.795-41.568-36.772 6.272-8.626 8.682-16.2 8.234-27.784-.494-12.836-8.887-24.197-19.75-31.108-10.863-6.912-12.344-19.748-12.344-19.748-4.938 7.9-4.938 26.17-4.938 26.17-1.481-3.95-1.973-10.863-1.973-10.863-24.194 15.307-6.42 38.51-6.42 38.51-19.75-20.244-40.982-.494-40.982-.494 12.84 0 18.761 6.422 18.761 6.422-18.764-8.884-28.143 2.96-28.143 2.96 15.307 0 21.726 24.194 37.033 33.08 13.895 8.068 35.882-2.167 45.737-11.512 4.925 1.123 43.62 12.19 47.032 83.414-2.54 3.026-7.161 5.847-15.515 6.411 6.99-32.197-7.636-57.078-7.636-57.078l-4.444 3.454c-2.468-5.927-13.331-12.836-13.331-12.836l-.495 6.42c-5.613-2.593-16.504-5.558-19.158-6.261 2.035.984 2.863 6.755 2.863 6.755-12.84-4.443-19.75-2.962-19.75-2.962l.986 8.395c-11.358-5.927-21.232-5.924-21.232-5.924l-.986 6.42-12.84-8.888c0 7.406-.494 25.675-.494 25.675l-4.443-4.444c0 8.888 12.344 26.17 12.344 26.17l-9.382-4.446c1.48 11.355 20.737 26.664 20.737 26.664l-7.901-1.976c3.949 8.887 16.788 16.293 16.788 16.293l-9.874.495c9.877 8.887 22.218 12.344 22.218 12.344l-5.925 2.96c39.995 9.378 41.477-13.332 41.477-13.332l1.482 6.912 6.419-14.317-.495 9.876s7.587-3.84 12.54-23.999c5.21 2.104 11.096 5.553 16.217 11.238-.65 37.344-4.64 80.363-4.64 98.627 0 0 10.887-26.514 27.933-35.982 0 0-5.65-22.904-8.22-56.027 2.398-6.93 8.051-17.997 20.912-27.584 8.924 19.937 19.261 26.64 45.862 24.347l-3.952-4.938s5.433.99 15.307-2.96l-6.419-1.975s11.358.494 19.258-8.396l-10.863-.495c.006-.008 21.732-6.422 17.783-38.52zm-173.71-26.011c-.38-.103-.592-.158-.592-.158.208 0 .403.066.592.158z" fill="#094" stroke="#000" stroke-linecap="square" stroke-width="4.292" transform="matrix(.66017 0 0 .62194 5.96 6.765)"/><g fill="#fcdb00"><path d="M300.133 250.23c-29.42 0-59.457 5.765-57.11 30.401.615 6.436 1.95 12.522 2.472 17.255a48.248 48.248 0 0 0 9.947 7.811c2.151-7.479-3.187-17.808-3.187-26.491 0-11.645 15.865-22.798 47.88-22.798s47.879 11.154 47.879 22.798c0 8.027-5.425 17.468-4.921 24.757a87.882 87.882 0 0 0 10.63-7.124c.918-4.205 2.343-9.398 2.943-15.02 2.304-21.622-27.111-31.59-56.533-31.59zm-74.99 51.55c-3.748-3.564-6.92 2.854-2.884 6.18 2.663 2.193 8.308 6.981 15.757 7.453a22.201 22.201 0 0 0-1.57-7.855c-3.81-.67-8.053-2.688-11.302-5.778zm138.445 0c-1.615 1.637-3.01 2.983-4.289 3.903-1.55 2.816-3.027 5.876-4.201 8.434 5.96.096 10.783-4.075 13.105-6.87 3.751-4.515-1.005-9.129-4.615-5.468z"/><path d="M359.772 303.574c4.206-7.62-1.259-8.977-2.093-6.831-5.608 14.438-34.55 23.163-57.544 23.163-24.412 0-54.593-9.058-62.313-25.254-1.007-2.113-5.47 1.303-1.007 8.922 4.464 7.619 11.48 12.084 11.48 18.653 0 9.196-14.032 18.13-14.032 39.41 0 25.485 21.08 49.175 65.87 49.175 42.186 0 60.735-23.688 60.735-49.175 0-15.24-11.162-19.966-11.162-37.571.002-4.728 5.862-12.875 10.066-20.492z"/><path d="M260.905 304.276c0-5.315 17.563-9.624 39.228-9.624 21.665 0 39.228 3.238 39.228 8.554 0 5.316-17.563 10.692-39.228 10.692-21.665 0-39.228-4.305-39.228-9.622z"/></g><path d="M1.5 373.63h600" fill="none" stroke="#000" stroke-width="4.292" transform="matrix(.66017 0 0 .62194 5.96 6.765)"/><path d="M301.5 762.16V374.63" fill="none" stroke="#000" stroke-width="3.065" transform="matrix(.66017 0 0 .62194 5.96 6.765)"/></g><path d="M6.951 7.698v273.55c0 109.38 88.67 198.05 198.05 198.05s198.05-88.669 198.05-198.05V7.698z" fill="none" stroke="#000" stroke-width="10"/></svg>