<?xml version="1.0" encoding="UTF-8" ?>
<svg viewBox="0 0 727.29 858.81" xmlns="http://www.w3.org/2000/svg"><g transform="translate(-1030 -408.51)"><path d="M1034.3 412.79v752.14c0 38.028 19.014 57.042 57.042 57.042h231.02c38.028 0 61.796 11.408 71.303 34.225 9.507-22.817 33.275-34.225 71.303-34.225h231.02c38.028 0 57.042-19.014 57.042-57.042V412.79z" fill="#f00000" stroke="#000" stroke-width="8.556"/><path d="M1458.2 412.79v461.75h-423.95v8h423.95v339.7c2.242-.087 4.372-.266 6.723-.266h1.277v-339.43h286.79v-8H1466.2v-461.75h-8z" color="#000"/><path d="M1332.8 412.79v336.29h-298.53v121.67h298.53v351.63c31.564 1.965 51.789 13.001 60.527 33.227h.617c8.738-20.226 28.962-31.261 60.525-33.227V870.75H1753V749.08h-298.53V412.79H1332.8z" fill="#fff" stroke="#000" stroke-linecap="round" stroke-width="8"/><path d="M1034.3 412.79v752.14c0 38.028 19.014 57.042 57.042 57.042h231.02c38.028 0 61.796 11.408 71.303 34.225 9.507-22.817 33.275-34.225 71.303-34.225h231.02c38.028 0 57.042-19.014 57.042-57.042V412.79z" fill="none" stroke="#000" stroke-width="10"/></g></svg>
