<?xml version="1.0" encoding="UTF-8"?>
<svg height="766" width="606" xmlns="http://www.w3.org/2000/svg"><g transform="translate(1.5 1.5)"><g><path d="m1.5 1.49998v458.86792c0 166.3106 134.31456 301.1321 299.99999 301.1321 165.68544 0 300.00001-134.8215 300.00001-301.1321v-458.86792z" fill="#e20909"/><path d="m1.5 254.827v205.541c0 166.311 134.314 301.132 300 301.132v-506.673z" fill="#fff"/><path d="m301.5 254.827v506.673c165.686 0 300-134.821 300-301.132v-205.541z" fill="#fcef3c"/></g><g><g fill="#fff" stroke="#000" stroke-linecap="round" stroke-linejoin="round" stroke-width="2.75" transform="translate(0 -2)"><ellipse cx="150.218" cy="29.671" rx="8.999" ry="6.74" transform="matrix(-.4827 .8758 -.8758 -.4827 250.2146 -86.0644)"/><path d="m136.313 78.976 6.679-12.106 24.214 13.357 6.679-12.106-24.212-13.358 11.716-21.236 42.374 23.376 42.372 23.377-11.717 21.237-24.212-13.359-6.682 12.108 24.215 13.358-6.679 12.107-36.32-20.038 13.358-24.214-6.053-3.339-6.052-3.34-13.36 24.214z" transform="translate(1.5 1.5)"/><path d="m384.084 168.337c1.083.598 2.444.204 3.042-.879l5.504-9.985c.597-1.083.203-2.444-.88-3.042l-230.406-127.02c-1.083-.596-2.443-.203-3.041.88l-5.503 9.985c-.599 1.083-.204 2.444.879 3.042z"/><path d="m402.131 169.312c12.872-23.596 40.837-33.16 62.46-21.364 18.087 9.866 25.999 31.552 20.574 52.19 4.729 1.883 8.077 6.492 8.077 11.893 0 7.071-5.732 12.804-12.805 12.804-2.776 0-5.339-.894-7.438-2.396-14.416 15.735-36.935 20.822-55.022 10.955-21.623-11.797-28.718-40.489-15.846-64.082z"/><path d="m430.884 162.229-12.764 4.893 18.99 23.844 1.818 30.428 12.762-4.894 12.764-4.894-18.99-23.842-1.818-30.428z" transform="translate(1.5 1.5)"/><path d="m395.623 152.334c-1.98-1.092-4.471-.372-5.563 1.608l-7.293 13.227c-1.091 1.98-.37 4.471 1.61 5.563 1.98 1.092 4.472.371 5.563-1.609l7.292-13.227c1.091-1.979.371-4.47-1.609-5.562z"/><path d="m406.646 153.171c-2.761-1.521-6.232-.518-7.753 2.242l-10.164 18.439c-1.522 2.76-.519 6.23 2.242 7.752 2.761 1.522 6.232.518 7.754-2.242l10.164-18.438c1.521-2.759.517-6.231-2.243-7.753z"/><ellipse cx="449.78201" cy="29.671" rx="8.999" ry="6.74" transform="matrix(.4827 .8758 -.8758 .4827 260.153 -377.0619)"/><path d="m463.687 78.976-6.679-12.106-24.214 13.357-6.679-12.106 24.212-13.358-11.716-21.236-42.374 23.376-42.372 23.377 11.717 21.237 24.212-13.359 6.682 12.108-24.215 13.358 6.679 12.107 36.32-20.038-13.358-24.214 6.053-3.339 6.052-3.34 13.36 24.214z" transform="translate(1.5 1.5)"/><path d="m218.916 168.337c-1.084.598-2.445.204-3.042-.879l-5.504-9.985c-.597-1.083-.204-2.444.88-3.042l230.406-127.02c1.083-.596 2.443-.203 3.041.88l5.503 9.985c.599 1.083.204 2.444-.879 3.042z"/><path d="m200.869 169.312c-12.872-23.596-40.837-33.16-62.461-21.364-18.086 9.866-25.998 31.552-20.574 52.19-4.729 1.883-8.076 6.492-8.076 11.893 0 7.071 5.732 12.804 12.805 12.804 2.776 0 5.339-.894 7.438-2.396 14.416 15.735 36.934 20.822 55.022 10.955 21.623-11.797 28.718-40.489 15.846-64.082z"/><path d="m169.116 162.229 12.764 4.893-18.99 23.844-1.818 30.428-12.762-4.894-12.764-4.894 18.99-23.842 1.818-30.428z" transform="translate(1.5 1.5)"/><path d="m207.377 152.334c1.98-1.092 4.471-.372 5.563 1.608l7.293 13.227c1.09 1.98.369 4.471-1.61 5.563-1.98 1.092-4.472.371-5.563-1.609l-7.291-13.227c-1.093-1.979-.373-4.47 1.608-5.562z"/><path d="m196.354 153.171c2.762-1.521 6.232-.518 7.754 2.242l10.164 18.439c1.522 2.76.518 6.23-2.242 7.752-2.761 1.522-6.232.518-7.754-2.242l-10.164-18.438c-1.522-2.759-.518-6.231 2.242-7.753z"/><path d="m321.654 187.428c0-25.278-12.888-35.269-20.154-35.269s-20.154 9.99-20.154 35.269c0-9.468 11.99-13.651 20.154-13.651s20.154 4.183 20.154 13.651z"/><path d="m41.919 190.132c-.696 7.404 2.551 12.514 7.276 16.039 9.972 7.438 26.529 7.82 26.529 7.82s-.451 15.297-20.058 15.676c-13.885.268-15.584-15.591-13.747-39.535z"/><path d="m561.081 190.132c.695 7.404-2.551 12.514-7.276 16.039-9.972 7.438-26.529 7.82-26.529 7.82s.45 15.297 20.058 15.676c13.884.268 15.583-15.591 13.747-39.535z"/><path d="m301.5 152.159c-7.267 0-20.154 9.99-20.154 35.269 0 12.528 7.332 24.097 20.139 30.322 16.1 7.827 41.126 9.354 70.453-8.898 29.35-18.267 60.637-29.849 85.784-36.682 5.95 6.636 5.09 14.067 4.517 16.741-1.617.42-3.246.85-4.9 1.299-67.274 18.288-85.236 51.599-131.283 51.599-22.533 0-60.089-13.063-60.089-51.272s35.533-38.378 35.533-38.378z"/><path d="m553.805 206.171c.294-.191.545-.398.777-.609-.255.207-.513.412-.777.609zm-71.618-39.636c2.528 5.207 4.054 10.95 4.509 16.902 27.798-5.063 47.764-4.079 58.164 3.833 5.17 3.934 14.941 13.539 9.723 18.291 4.298-3.498 7.155-8.439 6.499-15.43-2.338-24.865-39.228-27.195-59.092-26.227-4.452.218-11.282 1.047-19.803 2.631z"/><path d="m301.5 152.159c7.267 0 20.154 9.99 20.154 35.269 0 12.528-7.332 24.097-20.139 30.322-16.1 7.827-41.126 9.354-70.453-8.898-29.35-18.267-60.637-29.849-85.784-36.682-5.95 6.636-5.091 14.067-4.517 16.741 1.617.42 3.246.85 4.9 1.299 67.274 18.288 85.236 51.599 131.283 51.599 22.533 0 60.089-13.063 60.089-51.272s-35.533-38.378-35.533-38.378z"/><path d="m48.418 205.562c.232.211.483.418.777.609-.264-.197-.523-.402-.777-.609zm52.592-41.657c-19.863-.969-56.754 1.361-59.091 26.227-.657 6.99 2.201 11.932 6.499 15.43-5.219-4.752 4.553-14.357 9.723-18.291 10.4-7.912 30.365-8.896 58.164-3.833.455-5.952 1.98-11.695 4.509-16.902-8.522-1.585-15.352-2.414-19.804-2.631z"/></g><path d="m393.923 539.483c0 1.55-10.482 25.931-19.19 33.732-2.967 2.658-8.877 3.379-9.165-.657s-7.495-10.666-12.252-5.766-7.929 15.855-2.739 20.612 11.1-.288 11.1-.288.422 10.67-3.604 12.252c-4.036 1.586-15.999 4.902-9.369 20.613 0 0 5.313 1.036 11.387.864 0 0 10.009 1.034 7.784-20.468-.433-4.181.864-11.389 6.054-9.803s4.325 8.217 11.532 10.379 12.972-6.054 12.828-12.252-2.883-16.576-12.973-9.802c0 0 10.09-15.279 16-29.982s-7.393-9.434-7.393-9.434z" fill="#e20909" stroke="#000" stroke-linecap="round" stroke-linejoin="round" stroke-width="2.75"/><path d="m468.816 537.728s14.996 24.929 20.834 45.364c1.344 4.704-8.065-7.058-13.105 4.368s1.344 17.811 10.081 17.811 7.057-12.435 13.441-7.729-1.68 15.794 9.409 22.515 17.473-5.376 15.457-13.777-7.729-6.385-12.77-12.77c0 0-.02-6.791 15.794-3.024 7.057 1.681 11.426-13.105 1.681-19.826s-17.475 2.017-17.475 6.049-6.383 6.05-10.08-2.016-13.441-33.603-19.826-41.332-13.441 4.367-13.441 4.367z" fill="#e20909" stroke="#000" stroke-linecap="round" stroke-linejoin="round" stroke-width="2.75"/><path d="m435.313 349.569s-8.105-5.001-21.386 1.381c-13.28 6.381-23.284.861-26.389-6.037s1.553-13.28 1.553-13.28 1.725 11.384 13.625 10.693 17.075-5.691 33.632 2.242z" fill="#e20909" stroke="#000" stroke-linecap="round" stroke-linejoin="round" stroke-width="2.75"/><path d="m392.886 329.218s-4.393-18.63 12.072-23.283c7.934-2.242 13.979-.797 18.632 2.965s11.724 4.451 11.724 4.451l17.419 47.084-8.106 7.416-9.519-1.367s-14.455 3.955-24.803-3.634c0 0 19.655-.505 22.938-10.349.69-2.069-.658-21.695-21.214-29.492-10.003-3.794-16.901 1.724-19.143 6.209z" fill="#e20909" stroke="#000" stroke-linecap="round" stroke-linejoin="round" stroke-width="2.75"/><path d="m491.748 548.248 5.967.231c-21.238-44.678-32.82-64.029-31.677-66.42 3.452-7.163 6.899-27.998 6.899-33.368 0-5.364 7.458-4.166 7.458-.595 0 3.567-.577 16.677-.577 35.143 0 18.467 24.103 39.937 24.103 39.937s-6.315-19.072-8.607-33.973c-2.292-14.889-.583-51.833-.583-57.786 0-5.964 6.898-4.172 6.898 0 0 4.179 1.138 35.159 1.138 52.428 0 48.256 31.573 61.357 31.573 61.357s-10.346-25.599-12.066-44.677c-1.72-19.061.589-74.467.589-79.237 0-4.765 6.87-4.171 6.87 0 0 4.165-1.72 34.56.577 78.632 2.31 44.095 34.447 66.728 34.447 66.728s-14.923-67.316-14.923-94.725c0-27.397 6.882-110.806 6.882-122.728 0-11.907.565-57.195-26.406-57.195-26.961 0-18.347 21.448-18.347 53.042 0 31.568-21.245 64.931-26.978 64.931-5.744 0-8.03-11.917-12.62-11.917-4.584 0-16.133 10.903-17.787 3.579-2.466-10.917 16.177-13.763 16.177-13.763-5.484-12.065 1.646-22.484 1.646-22.484 1.098 7.678 14.259 7.129 14.259 7.129-9.872-12.613-6.581-27.97-6.581-27.97 1.646 7.13 14.259 5.484 14.259 5.484s-8.774-3.839-9.323-15.356c-.549-11.516-9.871-17.549-9.871-17.549 13.163 0 9.323-18.099 9.323-18.099-14.807 11.517-19.195-.548-36.745-.548s-24.131 10.42-24.131 10.42c25.775 19.194 24.68 49.906 24.68 49.906-4.936 7.678-13.162 7.678-13.162 7.678s3.839 10.42 2.742 14.809c-1.097 4.388-19.744 9.322-19.744 9.322 6.581-1.098 13.711 7.13 10.072 11.021-5.136 5.491-13.209-3.579-17.798-3.579-4.584 0-6.87 11.917-12.614 11.917-5.749 0-26.978-33.362-26.978-64.931 0-31.594 8.602-53.042-18.358-53.042-26.972 0-26.389 45.288-26.389 57.195 0 11.922 6.888 95.33 6.888 122.728 0 27.408-14.929 94.725-14.929 94.725s32.138-22.633 34.43-66.728c2.297-44.072.577-74.467.577-78.632 0-4.171 6.882-4.765 6.882 0 0 4.771 2.291 60.177.565 79.237-1.715 19.078-12.049 44.677-12.049 44.677s31.563-13.102 31.563-61.357c0-17.269 1.148-48.249 1.148-52.428 0-4.172 6.881-5.964 6.881 0 0 5.953 1.727 42.897-.57 57.786-2.287 14.9-8.608 33.973-8.608 33.973s24.102-21.47 24.102-39.937c0-18.466-.576-31.575-.576-35.143 0-3.571 7.465-4.77 7.465.595 0 5.37 3.447 26.205 6.887 33.368 1.148 2.391-14.912 21.45-36.151 66.128l5.968-.231s6.581-.247 9.203-1.081c0 0 .642 5.576 2.108 8.51 1.24 2.92 3.058 6.06 5.687 8.297 0 0 12.048-32.763 14.912-39.325 2.858-6.558 7.459-1.181 8.596 7.744 1.16 8.925 6.895 60.177-.565 70.898-7.464 10.724-59.682 6.546-45.336 43.485 0 0 4.023-14.889 12.626-14.889 8.602 0 12.054 4.759 32.71 0 0 0 0 19.66 6.305 33.961 6.321 14.294 8.613 32.293 8.613 32.293s2.286-17.999 8.613-32.293c6.292-14.301 6.292-33.961 6.292-33.961 20.68 4.759 24.12 0 32.722 0 8.608 0 12.632 14.889 12.632 14.889 14.341-36.939-37.871-32.762-45.354-43.485-7.453-10.722-1.697-61.974-.554-70.898 1.138-8.925 3.517-14.373 6.374-7.815 2.875 6.563 6.721 40.66 6.721 40.66 2.612-2.226 4.43-5.359 5.67-8.278 1.051-3.482 2.73-15.244 2.73-15.244s8.561 6.593 14.528 6.824z" stroke="#000" stroke-linecap="round" stroke-linejoin="round" stroke-width="2.75"/><path d="m451.18 314.214c-7.947-6.953-16.901 3.276-16.901 3.276l-.8.706c4.027 4.77 6.963 9.783 9.099 14.604l1.014-.132c6.207-3.276 13.107-13.626 7.588-18.454z" fill="#fff" stroke="#000" stroke-linecap="round" stroke-linejoin="round" stroke-width="2.75"/><path d="m441.586 312.438c-4.188 1.491-7.308 5.052-7.308 5.052l-.746.658c-.005.033-.007.067-.011.101 2.575 3.057 4.699 6.214 6.456 9.355 2.908-.467 5.166-3.811 5.166-7.872.001-3.273-1.465-6.082-3.557-7.294zm-2.72 8.329c-.952 0-1.725-.771-1.725-1.725 0-.952.772-1.725 1.725-1.725s1.725.772 1.725 1.725-.773 1.725-1.725 1.725z"/><g stroke="#000"><path d="m347.74 580.479s-9.154-9.938-15.17-1.046c0 0 3.179-12.652 11.77-11.508 3.923.522 6.8 2.877 6.8 2.877s-.785 5.493-3.4 9.677z" fill="#e20909" stroke-linecap="round" stroke-linejoin="round" stroke-width="2.75"/><path d="m350.355 617.356s-5.23 11.769 6.277 19.877c0 0-1.047-12.815 2.354-18.569 0 0-3.923-4.185-8.631-1.308z" fill="#e20909" stroke-linecap="round" stroke-linejoin="round" stroke-width="2.75"/><path d="m393.51 597.218s8.631 0 6.538 11.508c0 0 6.039-7.465 4.708-14.123-1.046-5.23-7.062-4.97-7.062-4.97s-2.615 1.831-4.184 7.585z" fill="#e20909" stroke-linecap="round" stroke-linejoin="round" stroke-width="2.75"/><path d="m528.988 571.326s19.354-6.539 19.354 15.169c0 0-7.322-10.2-13.338-3.923 0 0-5.492-4.446-6.016-11.246z" fill="#e20909" stroke-linecap="round" stroke-linejoin="round" stroke-width="2.75"/><path d="m516.695 620.757s4.708 7.323-.784 15.954c0 0 10.723-3.126 10.723-13.339 0-4.185-2.877-8.107-2.877-8.107s-4.708.26-7.062 5.492z" fill="#e20909" stroke-linecap="round" stroke-linejoin="round" stroke-width="2.75"/><path d="m475.896 590.418s-11.77-.785-9.416 14.385c0 0 6.538-8.892 9.938-6.015 0 0 .785-4.971-.522-8.37z" fill="#e20909" stroke-linecap="round" stroke-linejoin="round" stroke-width="2.75"/><path d="m188.291 323.667s34.216.449 53.35 5.402c19.134 4.951 26.563-10.13 26.563-10.13s-10.797 2.927-23.186 2.927c-19.81 0-38.268-3.377-56.502-2.252z" fill="#e20909" stroke-linecap="round" stroke-linejoin="round" stroke-width="2.75"/><path d="m265.15 415.586c2.273-2.265 5.415-3.116 5.415-3.116s-2.871-2.553-5.297-6.17c-.867-8.594-4.485-17.423-11.465-25.964-.345-3.431 1.384-6.481 1.384-6.481s-4.686-.105-9.335-1.793c-1.763-1.581-3.65-3.145-5.677-4.688-2.869-2.187-7.486-4.37-14.003-6.099-2.378-2.42-2.972-5.446-2.972-5.446s-3.651 2.15-8.343 3.243c-5.713-.776-12.326-1.24-19.897-1.254-3.386-1.783-4.848-5.094-4.848-5.094s-3.648 3.41-8.573 5.507c-5.335.327-11.053.861-17.147 1.624-4.842-.963-7.203-5.631-7.203-5.631s-4.801 5.711-11.039 8.076c-7.375.818-13.627 1.148-18.916 1.078-4.496-2.59-4.828-9.016-4.828-9.016s-7.559 5.406-14.728 5.58c-6.464-3.086-8.232-7.866-8.232-12.734 0-5.064 4.488-8.764 10.597-11.278 4.487 1.765 6.732 8.493 6.732 8.493s4.269-8.252 10.029-12.375c5.512-.541 10.557-.405 13.639.327 8.948 2.126 7.657 11.667 7.657 11.667 10.392-2.553 14.767-10.938 14.767-10.938 7.656 13.126 40.471 16.59 53.049 16.59s17.318-4.193 18.412-7.109c2.662-7.1 0-9.662-7.291-7.84-7.292 1.823-14.768 5.287-22.971 2.734-8.203-2.552-14.766-6.38-13.308-12.213 2.601-10.404 18.595-11.668 33.726-6.928s19.871-3.1 23.517-8.386-1.286-6.831-1.286-6.831c4.588 1.311 12.452-5.242 8.52-8.52-3.932-3.277-9.83 1.311-16.385 1.311-25.303 0-32.777-4.372-36.605-10.389-3.287-5.163-16.954-3.099-23.334-2.369-10.419 1.191-11.498 9.48-11.498 9.48-1.967-4.588-7.209-6.553-16.385-7.864s-24.905-8.521-24.905-8.521c0 4.588 1.475 9.176 3.851 13.026 0 0-1.451-.013-3.932.083-.005-.07-.001-.141-.008-.211-.439-4.256-5.189-7.251-10.611-6.691-5.422.559-9.46 4.462-9.021 8.717.009.081.029.158.041.238-4.455.766-9.197 1.807-13.906 3.219-.066-.17-.129-.34-.21-.506-2.021-4.156-7.632-5.591-12.533-3.206-4.836 2.353-7.165 7.542-5.284 11.671-3.003 1.932-5.741 4.145-8.085 6.677-.097-.043-.187-.095-.284-.136-5.206-2.137-11.289.678-13.589 6.284-2.201 5.366-.131 11.335 4.614 13.712-.963 4.479-1.578 9.459-1.649 14.652-.062.012-.122.016-.185.028-6.826 1.413-11.167 8.31-9.697 15.399 1.449 6.99 8.004 11.549 14.729 10.324 1.504 3.438 3.406 6.754 5.761 9.864-2.765 4.84-1.438 11.43 3.421 15.535 5.201 4.392 12.534 4.314 16.759-.033 4.412 1.917 8.888 3.449 13.386 4.668.211 5.034 3.929 9.468 9.197 10.468 5.44 1.03 10.682-1.954 12.578-6.837 3.707.272 7.389.391 11.02.378 0 0-1.713 9.173-.426 14.321-1.256-.019-2.504-.025-3.747-.023-.939-3.305-3.978-5.731-7.595-5.742-3.842-.01-7.051 2.713-7.786 6.33-3.813.297-7.487.705-10.972 1.227-1.476-4.316-5.98-6.896-10.471-5.839-4.494 1.06-7.372 5.392-6.758 9.918-2.698.964-5.104 2.046-7.164 3.245-1.215.706-2.389 1.521-3.523 2.423-.205-.166-.412-.33-.633-.481-4.425-3.026-10.487-1.859-13.543 2.604-3.023 4.423-1.953 10.42 2.365 13.476-1.889 4.028-3.348 8.413-4.288 12.968-.136-.005-.269-.019-.406-.017-5.349.061-9.636 4.495-9.576 9.903.06 5.242 4.187 9.462 9.31 9.666.714 4.926 2.145 9.732 4.392 14.192-3.411 3.563-3.597 9.234-.282 13.094 3.312 3.853 8.936 4.522 12.971 1.704 2.142 1.531 4.491 2.921 7.076 4.134 1.125.527 2.25 1.025 3.376 1.51-1.552 4.727 1.15 9.948 6.147 11.756 5.087 1.839 10.617-.559 12.353-5.352.035-.098.058-.196.089-.294 7.436 1.729 14.858 2.65 22.234 2.919 0 0-2.672 3.855-2.062 8.249 0 0-9.132 1.331-19.253 9.99-3.445-2.262-8.206-1.377-10.89 2.12-2.669 3.485-2.304 8.29.735 11.038-2.192 4.55-3.75 9.976-4.324 16.401-4.102.729-7.076 4.647-6.787 9.164.295 4.541 3.785 8.065 7.977 8.23 1.504 5.766 4.121 10.506 7.563 14.382-1.807 3.515-.839 7.951 2.483 10.453 3.436 2.581 8.166 2.184 11.021-.776 6.783 3.095 14.556 4.86 22.535 5.741.125 4.299 3.949 7.849 8.812 8.05 4.89.195 9.017-3.071 9.455-7.381 1.802-.048 3.585-.124 5.335-.224 4.402-.252 8.455-.671 12.205-1.142 1.125 3.581 4.84 5.837 8.733 5.136 3.683-.669 6.3-3.762 6.405-7.267 7.822-1.014 13.701-1.146 18.27 1.842-2.382 2.397-2.914 6.244-1.063 9.363 1.843 3.092 5.438 4.468 8.664 3.565-.023 6.805-6.613 13.574-17.604 10.384-.203-.06-.414-.112-.621-.169.168-3.832-2.949-7.146-7.076-7.463-4.037-.304-7.557 2.373-8.102 6.056-3.785.288-7.583 1.081-11.11 2.496-2.448-2.895-6.791-3.361-9.882-.997-3.063 2.35-3.762 6.62-1.669 9.732-1.245 1.704-2.313 3.626-3.157 5.791-.131.335-.239.673-.355 1.009-.009 0-.018-.001-.027-.001-3.951.024-7.125 3.298-7.099 7.311.032 3.892 3.07 7.04 6.858 7.195 1.217 3.937 3.49 7.654 6.762 10.9-1.833 3.269-.797 7.46 2.443 9.555 3.246 2.092 7.504 1.308 9.727-1.715 5.563 2.271 12.217 3.692 19.877 3.932 13.729.429 17.591-7.294 17.591-7.294s-17.155-2.311-26.917-8.709c-.738-3.267.297-6.004.297-6.004s-2.984-.275-6.588-1.492c-.263-.982-.373-2.012-.258-3.103.42-3.994 5.052-5.941 11.588-6.53 2.906 1.736 4.172 4.422 4.172 4.422s2.895-2.482 7-4.354c4.191.329 8.588.942 12.852 1.742 1.516.284 3.016.395 4.493.362 2.272 2.068 3.569 4.731 3.569 4.731s1.3-2.875 3.52-6.08c9.59-3.501 17.125-13.393 18.935-25.21 2.756-2.045 6.117-2.747 6.117-2.747s-3.043-2.552-5.875-6.226c-.704-7.217-3.626-14.706-9.466-21.607-.137-3.789 2.018-7.354 2.018-7.354s-5.352.45-10.711-.77c-2.131-1.602-4.461-3.144-7.021-4.607-6.705-3.831-14.52-5.435-22.634-5.998-3.853-2.545-5.187-7.403-5.187-7.403s-4.715 4.714-10.705 7.299c-10.033.358-19.727 1.124-27.602.132-2.568-4.038-1.574-9.041-1.574-9.041s-7.582 2.08-14.615.684c-5.452-7.433-.4-14.848 8.518-14.848 0 0 3.889 4.639 22.945 7.204 2.598 2.802 3.284 6.477 3.284 6.477s4.195-3.301 9.575-5.27c7.859.468 17.391.611 28.924.23 3.939 2.098 5.766 6.547 5.766 6.547s3.701-4.729 8.887-8c8.879-1.647 16.504-4.665 22.532-8.887 3.341.296 6.062 1.883 6.062 1.883s-.115-3.524.642-7.798c6.335-7.123 9.384-16.382 8.261-27.362 2.281-3.402 6.291-5.319 6.291-5.319s-4.645-2.35-8.844-6.116c-2.788-7.925-7.489-14.69-13.653-20.214-.884-3.64.358-7.201.358-7.201s-4.738.857-9.969.256c-7.689-4.489-16.709-7.613-26.564-9.284-3.034-2.208-4.098-5.363-4.098-5.363s-3.772 2.569-8.77 4.03c-3.697-.152-7.467-.13-11.297.093-.539.031-1.08.069-1.621.104-3.951-1.466-5.806-4.696-5.806-4.696s-4.323 3.921-10.116 6c-2.357.221-4.696.444-7.01.662-4.598-1.258-6.75-4.991-6.75-4.991s-4.875 4.432-11.214 6.37c-4.644.217-9.018.25-13.012-.014-4.143-3.523-4.321-8.764-4.321-8.764s-7.711 2.654-15.288 1.424c-1.827-2.215-3.007-5.006-3.38-8.537-.701-6.665 5.906-10.456 17.373-9.511 4.723 2.559 6.02 7.807 6.02 7.807s5.247-3.591 11.658-5.03c12.88 1.263 28.45.728 28.45.728s.362.173 1.017.449c2.496 3.199 2.641 7.225 2.641 7.225s4.715-2.481 10.36-3.394c6.925 1.362 15.999 2.181 26.304.738 4.115 1.388 6.471 5.149 6.471 5.149s3.07-4.861 7.804-8.533c3.335-1.124 6.738-2.504 10.19-4.209 6.876-3.396 12.984-7.712 18.042-12.694 3.979-1.046 7.921.479 7.921.479s-.667-5.121.308-10.625c3.639-5.768 6.022-12.059 6.852-18.616zm-103.082 102.282c1.049-.214 2.09-.459 3.128-.717 1.811 2.773 5.382 4.191 8.915 3.26 3.574-.941 5.996-3.995 6.154-7.349 1.088-.249 2.178-.48 3.275-.669 4.412-.759 8.062-.374 10.855.674-1.618 1.886-2.311 4.628-1.604 7.368.688 2.668 2.53 4.7 4.773 5.609-1.906 1.352-4.686 2.346-8.447 2.652-8.723.711-23.599 1.287-26.173-3.002-2.25-3.751-.876-7.826-.876-7.826zm45.899-95.843c-.5-4.024-4.078-7.145-8.433-7.157-4.358-.009-7.954 3.099-8.474 7.124-2.619-.169-5.44-.47-8.412-1.042-6.402-1.232-15.334-2.481-14.047-20.931 1.735-.297 3.428-.598 5.071-.896 1.952-.355 3.827-.699 5.641-1.031 1.21 4.76 6.15 7.95 11.57 7.26 5.565-.71 9.606-5.259 9.363-10.333 8.095-.481 13.856.781 18.048 5.392.071.079.143.171.213.258-2.934 1.238-4.87 4.213-4.582 7.497.301 3.418 2.919 6.078 6.207 6.653-1.68 3.425-5.329 6.306-12.165 7.206z" fill="#2b5df2" stroke-linecap="round" stroke-linejoin="round" stroke-width="2.75"/><path d="m151.683 307.71s-5.243-6.554-12.452-9.83c-3.605-1.639-6.883-4.752-9.258-8.603" fill="none" stroke-linecap="round" stroke-linejoin="round" stroke-width="2.75"/><path d="m132.482 403.575c1.529-.006 3.05-.034 4.56-.082 1.482 5.426 7.38 9.051 13.921 8.295 6.368-.738 11.215-5.359 11.648-10.796 2.048-.313 4.047-.641 5.99-.973" fill="none" stroke-linecap="round" stroke-linejoin="round" stroke-width="2.75"/><path d="m125.625 521.216c.156.006.313.012.468.017 1.036 4.571 5.702 7.836 11.107 7.527 5.316-.307 9.538-3.946 10.165-8.501 4.943-.586 9.848-1.4 14.703-2.391" fill="none" stroke-linecap="round" stroke-linejoin="round" stroke-width="2.75"/><path d="m132.057 417.896c.373 2.051 1.395 6.111 3.623 11.046-.668 4.238-4.015 7.304-4.015 7.304s5.636 1.219 10.79 4.125c5.331 7.07 13.217 14.248 24.782 19.249" fill="none" stroke-linecap="round" stroke-linejoin="round" stroke-width="2.75"/><path d="m123.563 529.465c.728 3.743 1.411 8.03 3.21 12.722-1.048 3.085-3.221 5.228-3.221 5.228s3.61.949 7.567 3.115c2.507 3.723 5.958 7.619 10.802 11.635" fill="none" stroke-linecap="round" stroke-linejoin="round" stroke-width="2.75"/><path d="m135 307s-49.287-.738-57 44c-5 29 30 34 58 31s85.543-16.712 104 12c9 14-4 51-49 51-29 0-38-30-38-30" fill="none" stroke-dasharray="12" stroke-linecap="round" stroke-linejoin="round" stroke-width="2.75"/><path d="m127 434s-48 1-48 29 23 39 68 34 76 0 76 28-39 32-62 18c-6.672-4.061-10-15-10-15" fill="none" stroke-dasharray="12" stroke-linecap="round" stroke-linejoin="round" stroke-width="2.75"/><path d="m122 550s-22 25 1 42 55 0 82 10c11.331 4.196 23 20 15 37s-43 1-54 16" fill="none" stroke-dasharray="12" stroke-linecap="round" stroke-linejoin="round" stroke-width="2.75"/><circle cx="190.093" cy="301.83099" r="3.602" stroke-linecap="round" stroke-linejoin="round" stroke-width="2.75"/><path d="m175.236 296.429s5.178 4.277 11.93 2.025c6.754-2.25 10.805 2.252 10.805 2.252" fill="none" stroke-linecap="round" stroke-linejoin="round" stroke-width="2.75"/><path d="m1.5 254.82422h600" fill="none" stroke-width="3"/><path d="m301.50081 761.5v-506.67578" fill="none" stroke-width="3"/></g></g><path d="m1.5 1.5v458.86794c0 166.3106 134.31454 301.13206 299.99993 301.13206 165.68547 0 300.00007-134.82146 300.00007-301.13206v-458.86794z" fill="none" stroke="#000" stroke-width="6"/></g></svg>
