<?xml version="1.0" encoding="UTF-8"?>
<svg width="439" height="530" xmlns="http://www.w3.org/2000/svg">
<path d="M432.87 5.989v314.85a213.39 201.71 0 0 1-426.78 0V5.949z" fill="#1c63b7"/>
<path d="M5 5.955v316.71c.952 111.99 96.703 202.29 214.49 202.29 117.79 0 213.54-90.306 214.49-202.29V5.005H5z" fill="#1c63b7"/>
<path d="M6.067 199.99 112.737 8.08l106.67 191.91L326.157 8.08l106.66 191.91v87.284l-106.66-191.87-106.7 191.87-106.66-191.87-106.67 191.87z" fill="#fcdb00"/>
<path d="M325.23 7.582s-103.86 186.76-105.77 190.14c-1.853-3.37-106.67-191.87-106.67-191.87L4.96 199.672v87.562l2.077.49s103.86-186.76 105.76-190.17c1.853 3.422 106.67 191.95 106.67 191.95s104.85-188.52 106.75-191.95c1.867 3.422 105.71 190.17 105.71 190.17l2.035-.491v-87.562L326.212 5.851zM112.8 10.235c1.853 3.423 106.67 191.87 106.67 191.87s104.86-188.39 106.75-191.87c1.867 3.423 105.35 189.51 105.57 189.96v82.932c-3.943-7.071-105.57-189.92-105.57-189.92s-104.84 188.5-106.75 191.87c-1.853-3.37-106.67-191.87-106.67-191.87S11.12 276.057 7.14 283.127v-82.919c.239-.45 103.76-186.53 105.66-189.96" stroke="#000" stroke-width="2"/>
<path d="m27.147 407.72a111.09 105.01 0 0 0 55.847-28.446c12.238-10.229 16.66-13.466 28.771-13.466a39.705 37.532 0 0 1 30.105 13.678 108.07 102.16 0 0 0 152.59 0 38.92 36.79 0 0 1 60.645 0 113.42 107.21 0 0 0 56.631 28.22 210.38 198.87 0 0 0 19.72-64.226 39.93 37.745 0 0 1-30.274-13.586 108.15 102.24 0 0 0-152.69 0 40.154 37.957 0 0 1-30.414 13.652 39.565 37.4 0 0 1-30.077-13.599 108.07 102.16 0 0 0-76.225-29.863 105.73 99.94 0 0 0-75.508 30.077c-12.238 10.175-16.674 13.386-28.814 13.386a205.26 194.03 0 0 0 19.65 64.173" fill="#fff"/>
<path d="M247.72 329.15c-7.34 8.356-18.181 13.257-29.67 13.413-12.996 0-18.119-4.166-29.36-13.373-20.395-19.297-48.07-30.137-76.927-30.13-28.646.021-56.076 10.949-76.097 30.316-12.042 10.043-16.38 13.2-28.07 13.2h-1.11v1.022c2.584 22.452 9.235 44.317 19.664 64.637l.379.663.856-.132c21.33-4.117 40.902-14.09 56.266-28.67 12.28-10.23 16.351-13.201 28.07-13.201 13.039 0 18.162 4.219 29.39 13.373 42.54 40.148 111.43 40.189 154.02.093 11.41-9.274 16.533-13.52 29.656-13.52s18.245 4.22 29.473 13.414c15.728 14.522 35.576 24.417 57.137 28.484l.842.133.336-.664c10.396-20.307 17.109-42.121 19.86-64.53l.098-1.115c-6.756 0-20.34-1.637-30.652-13.413-42.617-40.122-111.53-40.122-154.15 0m1.404 1.513c41.824-39.404 109.49-39.404 151.31 0 7.437 8.355 18.229 13.391 29.768 13.89-2.72 21.55-9.184 42.529-19.13 62.09-20.849-4.136-40.02-13.799-55.27-27.86-16.038-18.541-46.024-18.541-62.062 0-41.752 39.431-109.4 39.431-151.16 0-7.63-8.695-18.927-13.767-30.877-13.865-12.519 0-17.066 3.29-29.473 13.692-14.906 14.092-33.802 23.813-54.415 27.992-9.87-19.543-16.335-40.465-19.144-61.957 11.607-.225 16.295-3.635 28.379-13.652 19.658-19.017 46.581-29.76 74.708-29.81 28.322.03 55.476 10.674 75.509 29.598 7.602 8.657 18.862 13.698 30.764 13.771 12.025-.087 23.398-5.178 31.088-13.917" stroke="#000" stroke-width="2"/>
<path d="M5 5.955v316.71c.952 111.99 96.703 202.29 214.49 202.29 117.79 0 213.54-90.306 214.49-202.29V5.005H5z" fill="none" stroke="#000" stroke-width="10"/>
</svg>
