<?xml version="1.0" encoding="UTF-8" standalone="no"?>
<!-- Created with Inkscape (http://www.inkscape.org/) -->

<svg
   xmlns:dc="http://purl.org/dc/elements/1.1/"
   xmlns:cc="http://creativecommons.org/ns#"
   xmlns:rdf="http://www.w3.org/1999/02/22-rdf-syntax-ns#"
   xmlns:svg="http://www.w3.org/2000/svg"
   xmlns="http://www.w3.org/2000/svg"
   xmlns:sodipodi="http://sodipodi.sourceforge.net/DTD/sodipodi-0.dtd"
   xmlns:inkscape="http://www.inkscape.org/namespaces/inkscape"
   version="1.0"
   width="208.86046"
   height="244.65999"
   id="svg2780"
   inkscape:version="0.92.5 (2060ec1f9f, 2020-04-08)"
   sodipodi:docname="TerreDiPedemonte-blazon.svg">
  <metadata
     id="metadata27">
    <rdf:RDF>
      <cc:Work
         rdf:about="">
        <dc:format>image/svg+xml</dc:format>
        <dc:type
           rdf:resource="http://purl.org/dc/dcmitype/StillImage" />
        <dc:title></dc:title>
      </cc:Work>
    </rdf:RDF>
  </metadata>
  <sodipodi:namedview
     pagecolor="#ffffff"
     bordercolor="#666666"
     borderopacity="1"
     objecttolerance="10"
     gridtolerance="10"
     guidetolerance="10"
     inkscape:pageopacity="0"
     inkscape:pageshadow="2"
     inkscape:window-width="3287"
     inkscape:window-height="1417"
     id="namedview25"
     showgrid="false"
     inkscape:zoom="11.313709"
     inkscape:cx="190.76393"
     inkscape:cy="200.54773"
     inkscape:window-x="-8"
     inkscape:window-y="-8"
     inkscape:window-maximized="1"
     inkscape:current-layer="svg2780"
     inkscape:measure-start="104.255,149.787"
     inkscape:measure-end="104.255,126.383"
     showguides="true"
     inkscape:object-paths="true"
     inkscape:snap-intersection-paths="true" />
  <defs
     id="defs2782" />
  <path
     id="path4212-6"
     style="fill:#ffffff;fill-opacity:1;fill-rule:evenodd;stroke:#000000;stroke-width:1.99999988;stroke-linecap:butt;stroke-miterlimit:4;stroke-dashoffset:0;stroke-opacity:1"
     d="M 1.000033,149.10355 V 0.99999834 c 68.953472,0 137.906947,0 206.860417,0 V 149.10355 c 0,51.44535 -51.71515,94.56785 -103.43021,94.56785 -51.71506,0 -103.430207,-43.1225 -103.430207,-94.56785 z"
     inkscape:connector-curvature="0"
     sodipodi:nodetypes="sccscs" />
  <path
     id="path20337-7"
     style="opacity:1;fill:#1b63c6;fill-opacity:1;stroke:#000000;stroke-width:1;stroke-miterlimit:14;stroke-dasharray:none;stroke-dashoffset:4.57999992;stroke-opacity:1"
     d="m 44.715136,50.408163 c -17.294957,0 -33.249575,7.244856 -43.715104,21 v -33.875 H 88.43024 v 33.875 c -10.465529,-13.755144 -26.420147,-21 -43.715104,-21 z"
     inkscape:connector-curvature="0"
     sodipodi:nodetypes="cccccc" />
  <path
     style="opacity:1;fill:#cc2918;fill-opacity:1;stroke:#000000;stroke-width:1;stroke-miterlimit:14;stroke-dasharray:none;stroke-dashoffset:4.57999992;stroke-opacity:1"
     d="M 88.43024,0.99999834 V 102.48978 H 1.000033 v 32 H 88.43024 V 242.3242 c 10.916189,1.86502 21.56431,1.7264 32,0 V 134.48978 h 87.43021 v -32 H 120.43024 V 0.99999834 Z"
     id="path20355"
     inkscape:connector-curvature="0"
     sodipodi:nodetypes="ccccccccccccc" />
  <path
     id="path4212-6-0"
     style="fill:none;fill-opacity:1;fill-rule:evenodd;stroke:#000000;stroke-width:1.99999988;stroke-linecap:butt;stroke-miterlimit:4;stroke-dashoffset:0;stroke-opacity:1"
     d="M 1.000033,149.10355 V 0.99999834 c 68.953472,0 137.906947,0 206.860417,0 V 149.10355 c 0,51.44535 -51.71515,94.56785 -103.43021,94.56785 -51.71506,0 -103.430207,-43.1225 -103.430207,-94.56785 z"
     inkscape:connector-curvature="0"
     sodipodi:nodetypes="sccscs" />
  <g
     id="g20452"
     transform="translate(-1.25,-0.24999999)">
    <path
       sodipodi:nodetypes="cssccccccccccscccccsscccccssccccccccccc"
       inkscape:connector-curvature="0"
       d="m 156.41165,38.447232 c 0.83014,-1.479582 1.8819,-2.446846 3.17668,-3.59529 1.31048,-1.162372 4.46749,-1.441626 5.50538,0.683051 0.77481,1.586124 1.73658,2.16894 4,3.34375 -1.12852,-6.0015 -0.65537,-11.48217 -0.32832,-16.767841 -4.47432,2.642006 -9.09108,4.545016 -13.82803,5.824608 0.75049,3.563217 1.1335,6.943056 1.47429,10.511722 z m -22.59169,-8.515467 c -0.69767,-1.903065 -1.18672,-3.931308 -1.591,-6.010407 17.05718,1.609586 31.50816,-3.260419 43.39868,-14.3189123 1.44497,1.4138903 2.7682,2.8582153 3.97748,4.3310293 -2.12952,1.991729 -4.29999,3.771069 -6.50854,5.352848 -1.19757,6.243103 -2.48705,12.48698 -0.84658,18.81117 3.9301,-3.340355 1.19112,-7.591134 5.28921,-9.81813 6.75275,-3.669599 14.4737,-0.656149 19.15901,4.643956 -1.7524,0.170471 -3.45224,0.485508 -4.875,1.5625 4.84305,0.764974 6.72776,2.661754 8.48928,5.049174 -1.76442,1.642107 -4.11658,1.716909 -6.625,1.375 0.40818,1.270833 1.34486,2.541667 2.5,3.8125 -2.95428,-0.03138 -5.87909,-0.596146 -8.75,-2.125 -3.20964,-1.709235 -3.9854,3.73168 -0.9375,3.75 3.91562,0.02354 10.36216,1.53075 15,5.5625 -1.58817,0.03372 -3.11301,-0.101406 -4.9375,0.5625 5.69891,5.823923 2.48357,10.202291 2.625,15.125 -2.87988,-1.056314 -5.1201,-2.922872 -6.75,-5.5625 -0.18217,1.155804 -0.19163,2.368213 0.125,3.6875 -4.52998,-1.311173 -7.74374,-3.578546 -10.15089,-6.793544 -1.7688,-2.362417 -3.68867,1.161264 -1.53661,2.356044 2.59491,1.440641 5.88793,5.395002 7.8125,8.75 -1.62597,-0.622575 -3.18192,-1.420198 -5.125,-1.25 3.51319,3.938173 1.55955,7.468374 -0.375,10.999999 -0.87666,-1.230302 -1.89864,-2.144456 -3.0625,-2.75 0.13274,3.25338 -0.30546,6.117491 -2,8.125 -3.11947,-1.673099 -4.29846,-4.432863 -5.375,-7.25 -0.71762,1.01653 -1.40002,1.819527 -1.53569,2.919194 -3.07423,-1.670534 -5.51608,-5.240061 -6.80806,-7.169193 L 152.9273,48.34436 c -0.29496,-6.750605 -0.51413,-13.252117 -1.92181,-19.492795 -5.58583,1.100211 -11.32603,1.399615 -17.18553,1.0802 z"
       style="opacity:1;fill:#009645;fill-opacity:1;stroke:#000000;stroke-width:1;stroke-miterlimit:14;stroke-dasharray:none;stroke-dashoffset:4.57999992;stroke-opacity:1"
       id="path20361" />
    <path
       sodipodi:nodetypes="cc"
       inkscape:connector-curvature="0"
       id="path20363"
       d="m 156.42723,38.639798 c 0.32486,3.681839 0.49422,7.347397 0.68361,11.083558"
       style="opacity:1;fill:none;fill-opacity:1;stroke:#000000;stroke-width:1;stroke-miterlimit:14;stroke-dasharray:none;stroke-dashoffset:4.57999992;stroke-opacity:1" />
    <ellipse
       ry="7.823761"
       rx="7.823956"
       cy="51.405598"
       cx="172.69789"
       id="path20266-5"
       style="opacity:1;fill:#1b63c6;fill-opacity:1;stroke:#000000;stroke-width:0.99999976;stroke-miterlimit:14;stroke-dasharray:none;stroke-dashoffset:4.57999992;stroke-opacity:1" />
    <ellipse
       ry="8.6375084"
       rx="8.6377211"
       cy="51.386963"
       cx="161.92943"
       id="path20266-4"
       style="opacity:1;fill:#1b63c6;fill-opacity:1;stroke:#000000;stroke-width:0.99999982;stroke-miterlimit:14;stroke-dasharray:none;stroke-dashoffset:4.57999992;stroke-opacity:1" />
    <ellipse
       ry="8.2717342"
       rx="8.2719393"
       cy="63.499809"
       cx="141.13983"
       id="path20266-6"
       style="opacity:1;fill:#1b63c6;fill-opacity:1;stroke:#000000;stroke-width:0.99999982;stroke-miterlimit:14;stroke-dasharray:none;stroke-dashoffset:4.57999992;stroke-opacity:1" />
    <ellipse
       ry="8.4546213"
       rx="8.4548302"
       cy="49.702995"
       cx="136.47141"
       id="path20266-3"
       style="opacity:1;fill:#1b63c6;fill-opacity:1;stroke:#000000;stroke-width:0.99999988;stroke-miterlimit:14;stroke-dasharray:none;stroke-dashoffset:4.57999992;stroke-opacity:1" />
    <ellipse
       ry="8.0888481"
       rx="8.0890484"
       cy="51.112766"
       cx="148.11024"
       id="path20266"
       style="opacity:1;fill:#1b63c6;fill-opacity:1;stroke:#000000;stroke-width:0.99999982;stroke-miterlimit:14;stroke-dasharray:none;stroke-dashoffset:4.57999992;stroke-opacity:1" />
    <ellipse
       ry="8.0888481"
       rx="8.0890484"
       cy="63.454285"
       cx="168.65956"
       id="path20266-68"
       style="opacity:1;fill:#1b63c6;fill-opacity:1;stroke:#000000;stroke-width:0.99999982;stroke-miterlimit:14;stroke-dasharray:none;stroke-dashoffset:4.57999992;stroke-opacity:1" />
    <ellipse
       ry="7.5402026"
       rx="7.54039"
       cy="86.464478"
       cx="154.35248"
       id="path20266-56"
       style="opacity:1;fill:#1b63c6;fill-opacity:1;stroke:#000000;stroke-width:0.99999982;stroke-miterlimit:14;stroke-dasharray:none;stroke-dashoffset:4.57999992;stroke-opacity:1" />
    <ellipse
       ry="8.0888481"
       rx="8.0890484"
       cy="75.122093"
       cx="147.6655"
       id="path20266-9"
       style="opacity:1;fill:#1b63c6;fill-opacity:1;stroke:#000000;stroke-width:0.99999982;stroke-miterlimit:14;stroke-dasharray:none;stroke-dashoffset:4.57999992;stroke-opacity:1" />
    <ellipse
       ry="7.905961"
       rx="7.906157"
       cy="75.304451"
       cx="162.05443"
       id="path20266-42"
       style="opacity:1;fill:#1b63c6;fill-opacity:1;stroke:#000000;stroke-width:0.99999976;stroke-miterlimit:14;stroke-dasharray:none;stroke-dashoffset:4.57999992;stroke-opacity:1" />
    <ellipse
       ry="8.4546213"
       rx="8.4548302"
       cy="64.094391"
       cx="154.5809"
       id="path20266-69"
       style="opacity:1;fill:#1b63c6;fill-opacity:1;stroke:#000000;stroke-width:0.99999988;stroke-miterlimit:14;stroke-dasharray:none;stroke-dashoffset:4.57999992;stroke-opacity:1" />
  </g>
</svg>
