<?xml version="1.0" encoding="UTF-8" standalone="no"?>
<svg
   xmlns:dc="http://purl.org/dc/elements/1.1/"
   xmlns:cc="http://creativecommons.org/ns#"
   xmlns:rdf="http://www.w3.org/1999/02/22-rdf-syntax-ns#"
   xmlns:svg="http://www.w3.org/2000/svg"
   xmlns="http://www.w3.org/2000/svg"
   xmlns:sodipodi="http://sodipodi.sourceforge.net/DTD/sodipodi-0.dtd"
   xmlns:inkscape="http://www.inkscape.org/namespaces/inkscape"
   version="1.0"
   width="1093"
   height="1368"
   viewBox="0 0 819.75002 1026"
   preserveAspectRatio="xMidYMid meet"
   id="svg8"
   sodipodi:docname="CHE Centovalli COA.svg"
   inkscape:version="1.0.2-2 (e86c870879, 2021-01-15)">
  <metadata
     id="metadata14">
    <rdf:RDF>
      <cc:Work
         rdf:about="">
        <dc:format>image/svg+xml</dc:format>
        <dc:type
           rdf:resource="http://purl.org/dc/dcmitype/StillImage" />
        <dc:title />
      </cc:Work>
    </rdf:RDF>
  </metadata>
  <defs
     id="defs12">
    <marker
       style="overflow:visible"
       id="marker1211"
       refX="0.0"
       refY="0.0"
       orient="auto"
       inkscape:stockid="Arrow1Lstart"
       inkscape:isstock="true">
      <path
         transform="scale(0.8) translate(12.5,0)"
         style="fill-rule:evenodd;stroke:#008000;stroke-width:1pt;stroke-opacity:1;fill:#008000;fill-opacity:1"
         d="M 0.0,0.0 L 5.0,-5.0 L -12.5,0.0 L 5.0,5.0 L 0.0,0.0 z "
         id="path1209" />
    </marker>
    <marker
       style="overflow:visible"
       id="marker1177"
       refX="0.0"
       refY="0.0"
       orient="auto"
       inkscape:stockid="Arrow1Lstart"
       inkscape:isstock="true">
      <path
         transform="scale(0.8) translate(12.5,0)"
         style="fill-rule:evenodd;stroke:#ffcc00;stroke-width:1pt;stroke-opacity:1;fill:#008000;fill-opacity:1"
         d="M 0.0,0.0 L 5.0,-5.0 L -12.5,0.0 L 5.0,5.0 L 0.0,0.0 z "
         id="path1175" />
    </marker>
    <marker
       style="overflow:visible"
       id="marker1149"
       refX="0.0"
       refY="0.0"
       orient="auto"
       inkscape:stockid="Arrow1Lstart"
       inkscape:isstock="true">
      <path
         transform="scale(0.8) translate(12.5,0)"
         style="fill-rule:evenodd;stroke:#ffcc00;stroke-width:1pt;stroke-opacity:1;fill:#008000;fill-opacity:1"
         d="M 0.0,0.0 L 5.0,-5.0 L -12.5,0.0 L 5.0,5.0 L 0.0,0.0 z "
         id="path1147" />
    </marker>
    <marker
       style="overflow:visible"
       id="marker1127"
       refX="0.0"
       refY="0.0"
       orient="auto"
       inkscape:stockid="Arrow1Lstart"
       inkscape:isstock="true">
      <path
         transform="scale(0.8) translate(12.5,0)"
         style="fill-rule:evenodd;stroke:#ffcc00;stroke-width:1pt;stroke-opacity:1;fill:#008000;fill-opacity:1"
         d="M 0.0,0.0 L 5.0,-5.0 L -12.5,0.0 L 5.0,5.0 L 0.0,0.0 z "
         id="path1125" />
    </marker>
    <marker
       style="overflow:visible"
       id="Arrow1Lstart"
       refX="0.0"
       refY="0.0"
       orient="auto"
       inkscape:stockid="Arrow1Lstart"
       inkscape:isstock="true">
      <path
         transform="scale(0.8) translate(12.5,0)"
         style="fill-rule:evenodd;stroke:#ffcc00;stroke-width:1pt;stroke-opacity:1;fill:#008000;fill-opacity:1"
         d="M 0.0,0.0 L 5.0,-5.0 L -12.5,0.0 L 5.0,5.0 L 0.0,0.0 z "
         id="path843" />
    </marker>
  </defs>
  <sodipodi:namedview
     pagecolor="#ffffff"
     bordercolor="#666666"
     borderopacity="1"
     objecttolerance="10"
     gridtolerance="10"
     guidetolerance="10"
     inkscape:pageopacity="0"
     inkscape:pageshadow="2"
     inkscape:window-width="1920"
     inkscape:window-height="986"
     id="namedview10"
     showgrid="false"
     units="px"
     inkscape:zoom="0.25997549"
     inkscape:cx="-928.55578"
     inkscape:cy="699.21465"
     inkscape:window-x="-11"
     inkscape:window-y="-11"
     inkscape:window-maximized="1"
     inkscape:current-layer="svg8"
     inkscape:document-rotation="0" />
  <rect
     style="fill:#ffffff;stroke:none;stroke-width:6.225;stroke-linecap:round;stroke-linejoin:round;stroke-miterlimit:4;stroke-dasharray:none;stroke-opacity:1;paint-order:markers fill stroke"
     id="rect1265-0"
     width="71.963821"
     height="256.02515"
     x="374.35025"
     y="749.39252" />
  <rect
     style="fill:#ffffff;stroke:none;stroke-width:6.225;stroke-linecap:round;stroke-linejoin:round;stroke-miterlimit:4;stroke-dasharray:none;stroke-opacity:1;paint-order:markers fill stroke"
     id="rect1265-8"
     width="373.65829"
     height="651.82617"
     x="220.7352"
     y="301.00253" />
  <rect
     style="fill:#ffffff;stroke:none;stroke-width:6.225;stroke-linecap:round;stroke-linejoin:round;stroke-miterlimit:4;stroke-dasharray:none;stroke-opacity:1;paint-order:markers fill stroke"
     id="rect1265"
     width="809.59302"
     height="571.55884"
     x="5.5356812"
     y="77.499504" />
  <path
     style="fill:#0066ff;stroke:#0066ff;stroke-width:8.3;stroke-linecap:round;stroke-linejoin:round;stroke-miterlimit:4;stroke-dasharray:none;stroke-opacity:1;paint-order:markers fill stroke"
     d="m 545.0992,1209.0138 c -7.32068,-13.648 -41.80919,-80.408 -73.28127,-141.8518 C 425.6307,976.98943 352.99121,838.24397 343.87001,822.77438 c -1.52998,-2.59485 -2.64031,-4.7179 -2.46741,-4.7179 0.1729,0 8.36185,3.68454 18.19767,8.18787 36.31146,16.6252 64.1087,25.22084 101.73275,31.45844 38.59925,6.39927 58.68664,7.83475 99.75057,7.12831 68.86068,-1.18462 125.63574,-11.5294 183.85695,-33.49991 7.24544,-2.73416 13.41703,-4.9712 13.71466,-4.9712 0.29761,0 -0.15618,1.06423 -1.00845,2.36494 -2.54373,3.88223 -32.62396,60.35881 -88.17462,165.55065 -61.47571,116.41162 -88.64595,167.68592 -97.28965,183.60002 -11.04034,20.3266 -21.85979,39.6724 -22.18748,39.6724 -0.17497,0 -2.37809,-3.8404 -4.8958,-8.5342 z"
     id="path1263"
     transform="scale(0.75000001)" />
  <path
     style="fill:#008000;stroke:#008000;stroke-width:8.29999;stroke-linecap:round;stroke-linejoin:round;stroke-miterlimit:4;stroke-dasharray:none;stroke-opacity:1;marker-end:url(#marker1211);paint-order:markers fill stroke"
     d="m 522.52999,1354.2379 c -47.33393,4.7767 -69.66062,-6.183 -104.09996,-14.9888 -75.13331,-19.2107 -144.78395,-55.0668 -208.39293,-107.2805 -17.51883,-14.3804 -59.44927,-57.2617 -74.86747,-76.5652 C 74.566546,1079.5286 36.397792,993.67459 20.315341,897.05854 14.988561,865.05768 14.32784,847.87682 14.324475,741.27689 l -0.0032,-100.32884 10.581193,0.88243 c 14.06204,1.17273 42.711764,6.48623 60.753337,11.26755 42.981085,11.39074 81.166395,30.04965 111.375565,54.42264 14.3715,11.59504 42.3786,40.97155 54.23697,56.88888 33.16199,44.51291 61.28501,95.98698 193.30398,353.80785 83.64919,163.3592 94.76094,185.852 101.39965,205.2576 1.54985,4.5303 3.33199,8.3468 3.96033,8.481 0.62834,0.1342 3.55881,-6.5082 6.51216,-14.7609 6.74952,-18.8605 12.23692,-29.7005 78.92943,-155.9202 29.95534,-56.6924 71.64701,-135.6637 92.64816,-175.49186 42.77263,-81.11727 67.61179,-127.70809 102.17646,-191.6525 22.19562,-41.06174 23.40687,-43.663 21.1123,-45.34083 -1.78042,-1.30188 -7.31941,-1.77994 -20.62264,-1.77994 h -18.18841 l -15.94304,9.11931 c -57.62987,32.96389 -111.75286,51.07432 -182.04033,60.91364 -20.86608,2.92098 -96.10927,3.3416 -117.42948,0.65645 -47.82749,-6.0236 -85.27618,-16.84561 -123.79876,-35.77573 -50.4038,-24.76856 -91.84992,-61.13706 -122.90669,-107.8492 -38.33231,-57.65523 -57.25962,-132.83881 -52.20475,-207.36921 1.8,-26.53961 3.76072,-38.90328 9.87526,-62.26982 16.78327,-64.13688 50.43659,-117.62969 100.21652,-159.29669 54.33924,-45.48324 125.85331,-71.15668 208.84935,-74.97659 68.76361,-3.16486 133.28714,5.27013 196.98839,25.75179 17.52735,5.6355 52.24009,19.12285 57.48733,22.33622 l 3.76644,2.30654 -0.26099,22.14395 c -0.14355,12.17918 -0.37662,22.25958 -0.51794,22.4009 -0.14132,0.14133 -4.36094,-1.74904 -9.37694,-4.2008 -102.9242,-50.30833 -204.23257,-61.95266 -283.1221,-32.54193 -70.95437,26.45244 -122.66211,79.05233 -150.07325,152.66262 -11.73337,31.50897 -16.42047,57.79761 -17.24737,96.73575 -0.72253,34.02379 0.70225,53.2926 5.62495,76.0725 24.7298,114.4375 107.94222,199.55235 216.20996,221.15298 25.21271,5.03022 40.06888,6.40926 69.43905,6.44577 81.43269,0.10125 154.95173,-19.81068 298.1404,-80.74823 67.76626,-28.83964 107.60563,-43.79518 135.04393,-50.695 13.2847,-3.34067 34.5292,-7.34527 39.0068,-7.35282 2.4138,-0.004 2.4544,2.5136 1.6911,104.70379 -0.8251,110.46233 -1.1445,117.0023 -7.5672,154.94167 -12.8429,75.86451 -39.4848,143.92447 -81.60673,208.47477 -53.42781,81.876 -123.21849,144.4368 -210.52124,188.7127 -55.1896,27.9896 -107.99446,44.004 -172.20626,52.2258 -28.43935,1.5425 -97.82677,9.1978 -85.48618,2.547 z"
     id="path841"
     transform="scale(0.75000001)"
     sodipodi:nodetypes="cssssscssssssssssssscssssssssssscsscssssssssssssscc" />
  <path
     style="fill:#ffcc00;stroke:#ffcc00;stroke-width:8.29999999;stroke-linecap:round;stroke-linejoin:round;paint-order:markers fill stroke;stroke-opacity:1;stroke-miterlimit:4;stroke-dasharray:none"
     d="M 567.00377,732.40621 C 444.64773,717.43223 357.75088,609.53852 362.71178,478.75119 c 1.51661,-39.98368 9.45397,-72.69638 25.39916,-104.67913 14.00786,-28.09691 29.12287,-47.65718 51.12688,-66.16305 27.45813,-23.09291 55.77119,-36.54751 93.1677,-44.27406 26.22148,-5.41764 75.14701,-4.19813 105.90597,2.63984 53.24354,11.83646 102.8566,32.89374 162.68756,69.04954 12.49427,7.55028 23.11879,13.32588 23.61001,12.83464 0.49123,-0.49123 0.3097,-36.63649 -0.40341,-80.32281 -1.14793,-70.32541 -1.63336,-79.53326 -4.23512,-80.3336 -1.61624,-0.49718 -13.03048,-5.48277 -25.36498,-11.07909 -81.90554,-37.16156 -181.72724,-57.14632 -270.04198,-54.06362 -104.46674,3.64649 -187.64663,33.99275 -256.14777,93.44961 -53.88105,46.76705 -96.06094,119.77186 -111.04971,192.20444 -4.76036,23.0042 -9.22867,61.33671 -9.22867,79.17032 0,34.72539 8.21348,85.89595 19.51714,121.5932 3.60987,11.40006 6.22362,21.06718 5.80832,21.48249 -0.4153,0.41528 -6.49101,-1.84947 -13.50158,-5.0328 C 127.24843,610.37295 76.884578,597.51235 36.146795,593.6106 L 13.435904,591.43543 V 302.13349 12.831562 H 546.70629 1079.9767 V 302.36536 591.89917 l -13.3779,2.11166 c -23.1517,3.65441 -64.3403,14.46489 -87.26145,22.90285 -25.999,9.57104 -42.49887,16.40921 -99.56773,41.26476 -95.97712,41.80148 -152.40207,60.60946 -212.20102,70.73243 -25.40289,4.3003 -78.81723,6.15682 -100.56483,3.49534 z"
     id="path839"
     transform="scale(0.75000001)" />
  <path
     style="fill:#ffffff;stroke-width:8.29997;stroke-linecap:round;stroke-linejoin:round;paint-order:markers fill stroke;stroke:#ffffff;stroke-opacity:1;fill-opacity:1"
     d="m 531.87243,1258.9637 c -9.8544,-19.3444 -32.05624,-62.7106 -49.33743,-96.3694 -17.28119,-33.6587 -44.65784,-87.0537 -60.83699,-118.6555 C 300.07416,806.37789 273.83925,762.16156 227.8241,717.18377 214.2185,703.88488 197.613,690.09781 188.17759,684.26641 c -1.3393,-0.82773 -2.43509,-1.63301 -2.43509,-1.7895 0,-0.15649 12.81096,-0.28453 28.46879,-0.28453 h 28.46878 l 6.7199,9.27521 c 31.53856,43.53143 71.25856,76.85329 120.27563,100.9015 31.82665,15.61444 62.97818,25.50647 100.49551,31.91191 26.55618,4.53401 48.94708,6.21897 82.54186,6.21147 41.61319,-0.009 67.53961,-2.43792 103.23187,-9.67014 50.82778,-10.29907 94.2401,-26.54094 143.55478,-53.70821 16.84093,-9.2776 17.77316,-9.63762 25.73823,-9.93965 3.75121,-0.14224 7.22871,0.0215 7.72777,0.36384 1.12632,0.77265 0.98676,1.05471 -17.56038,35.48991 -34.13607,63.37812 -61.35433,114.51618 -100.97476,189.71288 -14.87725,28.2359 -37.36975,70.7683 -49.98334,94.5164 -31.99326,60.235 -43.39625,81.8011 -81.25461,153.6743 -18.22184,34.5937 -33.1919,62.9665 -33.26681,63.0506 -0.0749,0.084 -8.19888,-15.6743 -18.05329,-35.0187 z m 23.64458,-26.332 c 4.33403,-8.8064 18.18387,-35.0361 47.39354,-89.7566 21.40003,-40.0902 72.21122,-136.1843 103.01012,-194.8127 37.59998,-71.57484 71.23397,-133.43624 77.84919,-143.1843 1.8653,-2.74869 2.11165,-3.69018 0.96554,-3.69018 -0.40951,0 -7.06476,3.02827 -14.78944,6.72949 -30.48898,14.60857 -50.76246,21.74558 -87.8221,30.91661 -38.92613,9.63293 -66.21278,13.57899 -106.416,15.38933 -26.29568,1.18409 -47.61311,0.67458 -72.41728,-1.73084 -64.13733,-6.21983 -124.24471,-25.33208 -175.09343,-55.67419 -10.88896,-6.49758 -12.57952,-7.25698 -12.57952,-5.65072 0,0.4726 5.38048,10.79972 11.95663,22.94914 19.76198,36.51024 33.02262,61.50114 55.01813,103.6868 11.50474,22.06517 25.73465,49.29814 31.62203,60.51772 5.88738,11.21958 23.48016,45.33734 39.09507,75.81714 63.31896,123.5968 96.57243,187.2263 97.64766,186.8456 0.29928,-0.1059 2.35121,-3.8645 4.55986,-8.3523 z"
     id="path878"
     transform="scale(0.75000001)" />
  <g
     transform="matrix(0.1,0,0,-0.1,-102.13116,1336.553)"
     fill="#000000"
     stroke="none"
     id="g6">
    <path
       d="m 1024,13355 c -3,-6 -3,-1441 -2,-3190 l 3,-3180 28,-202 c 56,-419 144,-754 290,-1110 294,-713 760,-1311 1392,-1785 332,-248 746,-461 1155,-592 274,-89 560,-149 845,-178 150,-15 645,-15 785,1 1125,126 2096,667 2809,1566 495,624 819,1454 881,2257 8,102 10,1051 8,3282 l -3,3140 H 5121 c -2790,1 -4095,-2 -4097,-9 z M 9130,11095 V 8920 l -23,-4 c -12,-3 -58,-10 -102,-16 -124,-17 -333,-66 -473,-111 -238,-78 -413,-149 -957,-389 -916,-404 -1518,-562 -2090,-547 -311,8 -502,50 -750,167 -539,253 -905,781 -990,1425 -77,584 112,1189 482,1546 429,413 1001,534 1698,359 378,-96 780,-279 1190,-542 l 90,-58 3,63 c 2,34 -1,168 -7,297 -6,129 -11,369 -11,532 v 297 l -87,42 c -886,422 -1899,566 -2763,393 -1067,-214 -1858,-959 -2114,-1989 -50,-203 -86,-486 -86,-679 1,-328 72,-722 184,-1020 15,-38 24,-71 22,-73 -2,-2 -31,9 -64,26 -265,134 -674,243 -1022,273 l -140,12 v 2173 2173 h 4005 4005 z m -3699,1245 c 270,-21 586,-76 839,-145 235,-65 618,-208 793,-296 l 37,-19 v -263 c 0,-144 3,-360 7,-480 l 6,-218 -129,77 c -256,151 -536,282 -783,366 -526,177 -1004,203 -1401,76 -201,-64 -362,-151 -528,-286 -181,-146 -318,-318 -432,-546 -123,-245 -186,-488 -200,-776 -18,-385 47,-715 203,-1035 151,-309 364,-556 628,-731 228,-151 482,-248 754,-288 551,-80 1230,54 2101,418 157,65 274,116 644,280 143,64 465,188 585,227 143,45 337,92 455,109 47,6 93,14 103,17 16,4 18,-3 15,-89 l -3,-93 -55,-8 C 8745,8590 8447,8490 7905,8245 7229,7940 6862,7804 6413,7691 5966,7579 5601,7548 5255,7591 c -438,54 -850,244 -1146,526 -597,571 -816,1502 -543,2312 166,491 483,860 936,1087 456,229 1055,244 1687,42 204,-65 567,-221 678,-291 24,-15 45,-27 47,-27 3,0 4,119 3,264 l -2,265 -115,50 c -423,183 -874,297 -1350,340 -279,26 -686,11 -960,-35 -587,-98 -1122,-387 -1472,-794 -469,-545 -668,-1238 -572,-1995 103,-811 562,-1489 1264,-1868 410,-221 898,-332 1450,-330 342,1 567,26 870,94 348,79 643,194 983,382 132,74 140,77 203,77 59,0 65,-2 59,-17 -3,-10 -56,-110 -117,-223 -61,-113 -126,-232 -143,-265 -18,-33 -82,-152 -142,-265 -100,-186 -402,-756 -685,-1295 -61,-115 -144,-271 -183,-345 -70,-129 -647,-1222 -791,-1497 l -69,-131 -128,251 c -70,139 -215,423 -323,632 -200,389 -361,702 -582,1135 -836,1635 -1056,2001 -1400,2332 -281,269 -610,452 -992,552 -193,51 -466,96 -581,96 -17,0 -19,8 -19,90 v 90 h 44 c 24,0 108,-9 187,-19 417,-56 767,-172 1108,-365 35,-20 65,-35 67,-33 2,2 -14,43 -35,93 -186,432 -261,820 -248,1284 11,412 92,743 272,1115 139,288 391,608 645,820 426,354 1012,577 1630,618 116,8 520,6 641,-3 z m -12,-250 c 421,-32 820,-124 1226,-283 165,-65 207,-86 201,-103 -3,-9 -6,-90 -6,-181 v -165 l -32,20 c -18,11 -100,50 -183,87 -643,287 -1217,369 -1754,254 -200,-44 -449,-150 -621,-264 -471,-316 -779,-837 -855,-1450 -21,-168 -16,-509 10,-669 99,-622 437,-1161 933,-1487 349,-231 752,-343 1232,-343 574,0 1205,168 2140,571 691,298 983,403 1254,453 61,11 123,20 139,20 h 29 l -5,-802 c -5,-845 -5,-837 -58,-1158 -167,-1007 -721,-1933 -1534,-2564 -55,-43 -163,-120 -240,-170 -556,-368 -1125,-572 -1785,-642 -219,-23 -678,-15 -910,15 -1334,175 -2517,1060 -3100,2320 -156,337 -262,675 -325,1040 -50,294 -55,384 -55,1209 v 762 h 33 c 113,0 400,-52 582,-106 404,-119 695,-291 965,-571 329,-339 536,-697 1541,-2668 95,-187 256,-500 356,-695 393,-761 515,-1013 538,-1120 4,-18 9,-29 12,-26 3,3 22,56 43,119 39,120 53,149 415,832 122,231 290,548 373,705 82,157 187,355 232,440 45,85 112,211 147,280 54,103 255,482 468,885 158,299 520,970 568,1055 39,66 32,70 -143,70 -117,0 -150,-3 -160,-15 -12,-15 -226,-134 -365,-202 -208,-104 -521,-206 -801,-262 -406,-82 -825,-97 -1234,-45 -769,98 -1403,475 -1797,1069 -317,479 -449,1079 -378,1725 28,251 132,587 252,810 383,715 1050,1143 1938,1244 146,17 531,20 714,6 z"
       id="path2" />
    <path
       d="m 3394,7424 c 4,-10 65,-125 136,-254 127,-233 223,-416 472,-895 72,-137 159,-304 194,-370 34,-66 129,-251 211,-411 345,-677 739,-1434 746,-1434 4,0 7,5 7,12 0,6 80,160 177,342 97,182 192,360 211,396 19,36 49,92 67,125 29,54 142,267 278,525 27,52 107,203 177,335 70,132 183,346 250,475 226,434 530,992 571,1052 11,14 19,29 19,32 0,3 -48,-18 -107,-48 -222,-111 -425,-180 -753,-256 -267,-62 -459,-86 -775,-96 -671,-23 -1318,137 -1825,451 -66,41 -64,40 -56,19 z m 317,-248 c 267,-127 511,-201 829,-250 236,-37 364,-46 626,-46 519,0 1015,88 1454,259 92,37 114,40 91,16 -5,-6 -66,-117 -135,-248 -69,-130 -140,-263 -157,-294 -17,-31 -120,-226 -228,-432 -405,-769 -584,-1107 -611,-1156 -15,-27 -56,-104 -90,-170 -126,-242 -342,-637 -345,-633 -8,9 -525,1009 -655,1268 -35,69 -111,217 -170,330 -59,113 -147,282 -195,375 -82,159 -137,264 -355,675 -141,267 -161,303 -182,338 -11,17 -18,32 -15,32 2,0 64,-29 138,-64 z"
       id="path4" />
  </g>
</svg>
