<?xml version="1.0" encoding="UTF-8"?>
<svg width="977.18" height="1170.3" viewBox="0 0 732.89 877.75" xmlns="http://www.w3.org/2000/svg">
<path d="M4.035 4.035v462.37c.055 200.11 162.29 407.31 362.41 407.31 200.11 0 362.35-207.2 362.41-407.31V4.035z" fill="#fff" stroke="#000" stroke-width="8.07"/>
<path d="M33.871 41.082c17.975 33.308 35.116 62.563 51.792 92.853 14.317 25.11 39.558 70.731 39.558 70.731s38.358-21.248 57.341-33.576c0 0 66.562 103.55 94.908 148.13-5.73-1.357-10.314-4.192-15.833-6.383-5.951-2.634-12.124-4.524-18.477-5.962-7.268-1.608-14.707-3.74-22.056-4.383-7.61-.975-15.391-.834-23.051-.523-14.365 1.549-28.952 4.464-42.413 9.842-10.344 4.051-21.081 6.756-31.556 10.435-14.647 3.93-30.5 4.755-45.609 4.534-11.49.201-23.011-1.226-34.2-3.78-3.77-.784-7.067-2.503-10.405-4.343-.211-4.805-.15-9.6-.12-14.406-.061-78.412-.01-156.82-.01-235.23-.01-8.394.13-27.932.13-27.932zM697.25 42.852c-1.73 89.752 0 273.09-.8 273.57-23.432 9.879-46.222 9.059-69.72 7.44-6.18-.78-12.63-1.6-18.53-3.59-15.611-3.388-30.693-10.153-44.79-14.21-11.412-3.657-22.615-4.15-33.48-5.41-19.457-.902-40.536 3.476-57.26 9.69-6.35 2.35-12.15 5.64-18.62 7.47 3.378-4.405 94.7-146.08 94.7-146.08l56.64 34.68s64.145-114.08 91.86-163.56z" fill="#078930"/>
<path d="M297.82 47.018c3.95-.26 7.87 1.27 10.99 3.64 6.67 5.4 11.83 12.89 14.21 21.16 1.82 6.38 1.44 12.2 4.5 18.17 2.34 5.11 6.24 9 10.78 12.21 12.68 8.39 26.85 14.59 39.31 23.29-.2 2.03.07 3.72-1.59 5.21-3.25 3.46-8.1 7.16-13.09 6.75-5.9.58-11.22-1.86-17.05-1.44-6.48.11-12.87 3.72-16.96 8.63-6.36 7.59-7.37 18.95-2.61 27.61 2.92 5.01 7.25 8.63 12.17 11.59 5.07 2.83 11.16 3.93 16.78 5.24 5.66 1.12 11.21 2.65 16.85 3.86 7.34 1.2 14.43 3.45 21.76 4.75 5.4.94 10.54 2.66 15.07 5.83 7.99 5.26 13.03 14.16 14.79 23.44 1.11 5.73 2.66 11.82 2.67 17.65.22 14.7-.61 29.34.1 44.05 1.583 14.854 3.17 28.241 2.96 42.05-3.91 1.77-7.25 3.09-11.63 2.65-.58-5.64-2.23-10.9-3.56-16.39-1.56-5.98-4.21-11.4-6.85-16.95-1.72-3.61-2.97-7.32-2.93-11.37-.18-2.85.33-6.38-.96-8.98-1.78-4.32-5.97-7.69-10.56-8.48-4.52-.58-7.64 1.59-11.75 2.89-7.3 2.23-14.69 3.48-22.35 3.19-1.69-.09-3.12.54-4.196 1.581s-1.799 2.494-2.074 4.049c-2.738 20.474-3.958 40.756-5.54 60.25-3.88.07-7.6.13-11.3-1.22-2.94-19.815-4.56-40.324-7.06-59.26a18.63 18.63 0 0 0-1.298-4.865 19.895 19.895 0 0 0-2.46-4.278c-1.98-2.637-4.592-4.827-7.552-6.457-8.58-4.59-16.65-9.43-23.53-16.43-9.88-9.2-16.83-21.67-19.33-34.94-.66-7.99-.48-16.08-.24-24.08.03-3.25.74-6.36 1.55-9.48 2.18-8.33 4.63-17.11 8.69-24.75 8.84-17.21 20.36-31.32 24.24-50.71 1.63-6.48.45-12.45-.9-18.82 2.26.12 4.51.28 6.77.41.353-3.75-.004-6.677-1.02-11.57-1.015-4.893-4.138-14.117-9.68-18.16-2.203-1.607-5.413-2.156-8.05-1.46-2.28.601-3.66 3-5.43 4.53-.19-2.84-.51-5.84-.14-8.66.56-3.5 4.07-5.95 7.5-5.93z"/>
<path d="M276.27 245.87c.82.7 1.62 1.41 2.4 2.14 7.608 9.77 16.978 17.9 26.35 24.48 3.3 2.28 5.33 5.84 6.14 9.72.98 5.758 2.55 36.837 2.45 54.33-2.9-.34-8.73-.74-9.97-4.02-.51-11.27-1.27-22.26-4.52-33.16-.79-2.7-2.19-5.05-3.72-7.39-7.7-11.72-13.71-24.53-17.74-37.98-.78-2.68-1.27-5.32-1.39-8.12zM396.39 283.04c.02 2.83-.03 5.78.37 8.57 1.14 6.73.05 13.34 1.28 20.1.8 7.26 2.34 14.29 3.9 21.41.51 2.25.58 4.52.65 6.82-2.92.26-5.82.4-8.75.31-1.71-8.4-3.9-16.82-6.72-24.92-4.34-9.84-8.77-18.71-7.85-29.87 5.84-2.3 10.73-4.87 17.12-2.42z"/>
<path d="m9.67 492.8.2.53z" fill="#1e3674"/>
<path d="m205.96 332.37c-28.786 0-52.921 11.588-79.89 19.354-29.06 8.368-57.062 6.08-90.72-0.44v87.48l0.167 36.157h31.716c20.103-56.135 73.199-103.38 135.73-103.38s115.63 47.245 135.73 103.38h55.54c20.104-56.135 73.2-103.38 135.73-103.38s115.63 47.245 135.73 103.38h31.673s0.204-24.11 0.208-36.157v-89.527c-33.383 5.821-62.113 6.267-92.16-0.13-27.571-5.871-50.845-16.735-79.89-16.735-28.787 0-54.663 9.958-79.89 19.917-25.229 9.958-50.845 19.917-79.89 19.917-28.787 0-54.403-9.959-79.89-19.917-25.229-9.959-51.105-19.917-79.89-19.917z" fill="#da121a"/>
<path d="m37.358 500.84c2.638 24.844 7.943 49.546 15.485 73.652 27.192 3.855 52.732 3.944 73.211-2.499 25.228-9.958 51.103-19.354 79.89-19.354 28.786 0 54.663 9.958 79.89 19.917 25.487 9.958 51.104 19.917 79.89 19.917 29.045 0 54.662-9.959 79.89-19.917 25.228-9.959 51.105-19.917 79.89-19.917 29.045 0 54.662 6.777 79.89 16.734 21.83 6.183 48.015 6.162 75.398 2.668 7.136-23.331 12.187-47.198 14.736-71.202zm168.58 102.8c-28.786 0-53.503 14.248-79.89 19.354-17.226 3.333-33.134 5.858-52.434 4.62a416.05 416.05 0 0 0 38.162 64.692c4.97-0.822 9.756-1.891 14.272-3.312 25.229-9.958 51.104-19.353 79.89-19.353 28.787 0 54.663 9.957 79.89 19.916 25.487 9.958 51.104 19.918 79.89 19.918 29.045 0 54.662-9.96 79.89-19.918 25.229-9.959 51.105-19.916 79.89-19.916 29.045 0 54.662 6.776 79.89 16.734 5.532 1.566 11.414 2.628 17.451 3.452 14.44-20.39 27.148-42.156 37.733-64.914-19.934 1.162-37.581 1.013-55.183-4.539-28.523-8.995-50.845-16.734-79.89-16.734-28.786 0-54.663 9.958-79.89 19.917-25.228 9.958-50.845 19.917-79.89 19.917-28.786 0-54.403-9.959-79.89-19.917-25.228-9.959-51.105-19.917-79.89-19.917zm0 117c-21.619 0-41.594 5.302-60.888 12.159 58.649 62.32 136.26 103.36 221.38 103.36 85.71 0 163.78-41.62 222.57-104.66-20.044-6.612-40.711-10.872-63.511-10.872-28.787 0-54.663 9.957-79.89 19.916-25.229 9.959-50.845 19.917-79.89 19.918-28.787 0-54.403-9.96-79.89-19.918-25.229-9.959-51.105-19.916-79.89-19.916z" fill="#0f47af"/></svg>
