<svg xmlns="http://www.w3.org/2000/svg" xml:space="preserve" viewBox="0 0 520 640.63"><path fill="#1c63b7" d="m508.6 277.2 1.43-264.88H10.01l1.43 264.88c3.463 141.47 77.663 277.1 248.57 351.14 170.93-74.049 245.11-209.67 248.57-351.14z"/><path fill="none" stroke="#000" stroke-linecap="square" stroke-miterlimit="30" stroke-width="8" d="m508.6 277.2 1.43-264.88H10.01l1.43 264.88c3.463 141.47 77.663 277.1 248.57 351.14 170.93-74.049 245.11-209.67 248.57-351.14z"/><path fill="#fcdb00" stroke="#000" stroke-linecap="round" stroke-linejoin="round" stroke-width="2" d="m156.72 45.743 7.763 27.843 25.177-14.198-14.198 25.177 27.843 7.763-27.843 7.764 14.198 25.177-25.177-14.198-7.763 27.843-7.763-27.843-25.177 14.198 14.198-25.177-27.843-7.764 27.843-7.763-14.198-25.177 25.177 14.198z" style="paint-order:markers fill stroke" transform="translate(-79.119 -15.507) scale(1.2213)"/><path fill="#fff" fill-rule="evenodd" d="M341.43 46.053c-3.478.555-6.273 3.192-9.445 4.385-.91 2.047-.361 3.261-2.426 1.14-4.923-3.363-8.712 3.134-11.152 6.506-2.39 2.48-2.493 7.157-6.578 7.522-12.483 2.994-23.335 10.277-35.631 13.8-5.556 1.92-9.851 8.926-7.217 14.446 2.064 1.176-2.857.859-3.691 1.863-5.238 1.885-4.303 9.233.191 11.406 6.012 3.066 13.094-.523 19.477 1.43 5.465 1.09 10.768 3.34 15.373 6.076-6.662 7.197-17.131 8.63-25.969 11.805-4.922.709-2.154 6.225.125 8.373 5.57 5.467 13.335-.041 19.871 1.564 3.435.336 8.984 2.26 10.334 4.256-6.336 1.422-14.502 3.54-16.293 10.807-3.016-1.782-7.474-.095-6.518 3.877-.495 1.536 2.66 4.775-.408 3.504-5.45-.59-12.915-5.361-17.107.373-2.254 1.639.63 6.53-2.904 5.405-4.506-.288-10.4-.879-12.55 4.207-1.272 1.674-.315 3.925.661 5.298-3.611.365-10.442-.945-11.006 4.131.07 1.467-3.291-1.504-4.787-.492-2.94.913-4.59 4.194-4.606 7.049-5.306-1.941-12-5.558-16.916-.707-2.623 1.655-5.225 6.33-8.64 3.566-3.46-2.573-8.804-2.969-11.162 1.301-2.772 2.969-8.02-.033-10.684 3.643-5.239 6.194-12.044 11.156-20.23 12.484-12.174 2.775-24.304 7.224-35.981 10.816-7.883 1.033-16.624.304-23.656 5.02-6.206 3.62-13.342 4.199-19.811 6.823-3.813 3.558 2.313 6.99 5.267 8.186 3.013.662 1.217.806-.867 1.586-4.268 1.474-1.13 6.164 1.563 7.492 7.953 7.195 20.446 5.097 28.773-.291 3.74-1.565 4.467-7.041 8.1-7.832 5.762-1.001 12.11-.404 17.585-2.41.627-4.233 1.325-9.19 5.836-11.154 12.187-6.531 26.251-6.516 39.73-5.897 3.331 3.689 7.652 6.914 12.914 5.955 2.83-.064 5.71-.008 8.48-.658-10.477 9.73-21.402 20.28-35.927 23.311-9.608 2.235-17.272 8.913-26.72 11.596-6.47 2.16-3.66 11.71-9.818 14.445-9.148 4.406-18.257 9.984-24.033 18.56-1.578 4.372 4.526 4.62 7.272 3.697 3.447-.622 7.146-1.007 10.369-2.168-1.619 3.474-6.889 7.805-3.72 11.666 6.19 2.966 13.484-.532 19.02-3.608 8.881-4.713 10.868-15.255 11.818-24.332.036-3.97 3.962-4.525 7.026-4.455 2.747-1.058 2.297-.508 2.257 1.79 2.86 4.538 9.863 3.018 14.104 1.505 5.48-2.39 3.559-9.807 7.84-13.426 5.284-7.84 14.424-12.567 23.92-11.854 4.23-.437 8.518.086 11.445 3.457 3.206 3.051 7.774.1 10.398-1.656.536 2.02 4.163 2.728 4.475 3.535-4.062 4.903-.643 13.634 5.584 14.357-.351 5.604-2.244 13.969 4.008 16.967 2.32.938 5.676-.996 4.783 2.691.725 5.03 1.966 12.372 7.666 13.838 1.3.038 2.586-1.518 2.01.891.326 14.507 6.12 28.933 16.945 38.801 4.593 4.579 9.13 9.327 13.906 13.785-2.237.358-4.382 2.484-6.92 1.662-7.208-.88-14.058-3.951-21.348-4.224-4.102-.228-7.647 3.336-8.127 7.24-6.903-.605-14.847-3.512-20.967 1.232-2.126.35-5.495-.737-6.184 2.305-.642 1.906 1.196 4.538.996 5.697-5.327-2.384-12.13-.233-14.369 5.358-1.275 1.99-1.312 4.9-2.992 6.527-2.773.125-7.554 2.346-5.428 5.756.881 1.58 3.605 2.236 4.381 2.85-5.484 3.298-4.572 10.573-3.916 15.983-.254 1.361 2.282 4.097-.062 3.746-3.464 2.144-1.99 7.245-1.174 10.49 1.027 4.031 3.008 7.696 4.85 11.387-3.079 1.152-2.575 6.531 1.083 5.909 2.196-.702 3.696-.69 3.217 2.039.34 7.145 5.934 12.455 11.873 15.564-.246 6.186 3.535 11.978 8.893 14.883-7.534 8.792-10.816 20.38-18.736 28.916-3.888 5.204-8.936 9.985-15.621 11.006-6.555 1.455-14.556 2.58-17.83 9.377-2.78 5.693-6.399 10.945-9.262 16.568-1.297 3.527 3 4.98 5.74 4.521 5.258.266 10.396-2.724 14.002-5.916-2.168 4.295-4.443 9.688-2.418 14.406 2.831 2.547 5.343-2.011 7.518-3.435 4.219-3.715 8.563-7.665 10.295-13.201.671-2.151 3.147-4.06 4.734-1.412 1.512 2.784 5.015 4.374 6.637.668 3.442-2.983 1.314-7.704 1.381-11.393 5.62-8.16 11.987-15.817 17.438-24.115 4.78-7.21 14.379-7.52 22.082-7.327 2.475-1.606 3.686-5.235 4.082-8.218-.008-5.046-5.35-7.865-6.262-12.69-1.482-5.268-1.453-11.181.25-16.36 2.236-1.29 5.231-2.361 5.653-5.385.325-2.17.183-4.363 3.02-3.639 5.183-.08 9.54-4.786 9.526-9.719 4.879 1.062 8.8-3.908 7.86-8.507-.208-1.168-.676-2.2-1.235-3.188.241.115.484.227.735.33 7.325 3.553 17.185-.135 20.71-7.353.347.948.758 1.877 1.31 2.744.554 3.306-1.777 6.608-1.157 10.092-.765 6.444 3.6 11.96 2.674 18.408-.901 5.19 4.37 7.601 6.582 11.252.183 4.47 3.752 11.194 9.084 8.627 6.26 2.594 11.199 10.667 18.699 8.949 1.673-.736 3.31-2.311 2.094.715-3.787 15.266-18.185 24.228-25.908 37.264-2.397 3.4-5.777 6.506-6.766 10.582-11.179 3.74-14 16.487-16.05 26.664-.772 5.56-3.035 11.074-3.083 16.607 3.469 2.043 6.953-2.484 9.758-4.48 3.3-3.139 5.343-7.303 7.041-11.464 1.209 6.752.885 13.85 2.88 20.461 3.677 2.651 5.871-3.334 7.894-5.556 4.215-5.374 6.543-12.105 5.103-18.941-.192-4.658-1.245-9.538-.879-13.971 3.797 3.29 11.69 2.96 12.301-3.108 2.493-12.548 11.35-22.542 18.865-32.459 6.225-8.256 15.83-12.407 24.48-17.467 2.942-1.239 7.205-6.099 2.885-8.36-3.585-.238-7.442-1.533-8.178-5.655-1.347-6.231-2.57-13.752.848-19.506 2.753-1.904 6.37-3.803 5.998-7.82-.12-4.57 4.203-6.54 6.047-10.02.315-4.865 1.705-9.505 3.65-13.98 1.508-4.532-.32-9.915 3.295-13.677 1.629-7.885-.37-16.187-1.674-24.035-1.19-2.758-.992-5.096 2.522-4.974 4.584-1.396 10.193-2.136 13.654 2.123 3.355 2.164 5.78 7.448 9.826 7.199 1.653-3.118 1.915 1.966 3.525 3.006 4.506 5.197 11.226 9.095 18.102 9.654 4.007-.862-.278-6.279.42-7.047 6.096 3.357 15.47 1.523 18.543-5.023-.564-4.573-6.575-1.702-9.494-3.447-13.124-6.522-20.1-21.245-33.35-27.635-8.43-3.489-17.8-.182-24.365 5.544-2.769 1.491-5.738 5.115-9.045 4.344-2.294-5.762-6.044-10.74-10.428-15.13-3.832-3.608-4.22-8.806-4.757-13.644-.804-4.09-3.788-7.4-5.622-10.838 2.078-3.03 2.128-6.735.112-9.74-1.131-7.302 2.488-15.555-2.836-21.926-.83-1.585-2.816-4.957.619-3.762 4.316-.655 1.212-5.339 1.586-8.033-.311-5.643.159-11.816-2.084-16.996 3.105.464 8.632-.654 7.28-4.955-.903-2.113-3.203-5.217.675-6.008 5.288-2.562 8.585-8.32 8.135-14.178 1.76 3.26 6.5 1.288 5.904-2.24.099-2.63-1.451-7.3 2.781-7.293 6.847-2.18 10.514-10.588 7.82-17.184 2.925.813 6.565-1.638 4.63-4.762-.908-1.858-.966-3.231 1.347-3.205 6.981-1.45 9.87-10.546 5.326-15.867 4.3.838 5.661-3.683 5.64-7.074 1.416-5.971 6.81-11.676 3.647-18.096-.532-2.117-2.285-4.412-4.35-5.605.707-.054 1.406-.137 2.06-.397.888-.664 1.131-1.95.48-2.855 1.443.241 3.432-.023 3.615-1.81.027-2.057.25-4.425 2.15-5.663 1.896-1.615 5.02-2.487 5.338-5.346-.093-1.72-1.053-3.333-2.047-4.7-.016-.016-.035-.022-.052-.038.12-.051.243-.095.363-.149 3.784-1.542 7.07-4.389 8.707-8.181.856-1.259 1.24-3.345-.432-4.127-1.982-.48-4.002-.238-5.972-.688-2.312-.316-4.527-.973-6.645-1.87 3.838-.412 8.022-2.625 6.277-6.825-1.337-3.067-.203-7.126-.521-9.314.88-2.717 2.955-5.04-.936-7.036-4.336-3.522 1.339-11.558-4.609-13.756-1.809.298-2.1.23-2.371-1.654-3.642-3.577-4.096-9.04-7.41-12.744-1.587-2.174-4.349.911-4.824.666-1.939-3.973-5.979-7.104-9.61-9.306-2.763 3.287-2.624-3.296-7.674-2.045-4.098-.644-6.843-8.264-11.172-4.504-1.54-5.036-7.272.546-10.578-1.996-1.673-.717-4.245-1.586-5.582-.395-1.805-3.969-6.683.134-9.957-.21-1.768-.176-4.036 1.93-4.662 2.132-.13-2.296-1.683-4.848-4.273-4.65zm-227.42 183.74c-1.246 1.339-.539-.176 0 0z" style="paint-order:fill markers stroke"/><g stroke="#000" stroke-linecap="round" stroke-linejoin="round" stroke-miterlimit="1000" stroke-width="2.498"><path fill="none" d="M210.48 408.95a7.707 7.707 0 0 0-2.282 3.038c-.62 1.493-.754 3.156-.588 4.764.167 1.608.622 3.172 1.145 4.702a53.676 53.676 0 0 0 5.112 10.832 4.582 4.582 0 0 0-2.176 1.873 4.6 4.6 0 0 0-.507 3.442 18.231 18.231 0 0 0 6.783-1.063 11.65 11.65 0 0 0-.405 3.645c.185 3.858 2.302 7.42 5.062 10.124a23.258 23.258 0 0 0 6.884 4.656c-.08 1.74.125 3.491.608 5.164 1.3 4.51 4.7 8.367 9.01 10.225a37.61 37.61 0 0 0-5.754 7.27c-2.26 3.723-3.858 7.812-6.013 11.597-2.301 4.042-5.214 7.697-8.143 11.311-2.49 3.072-5.08 6.195-8.51 8.16-2.95 1.69-6.342 2.417-9.69 3.007-2.009.354-4.03.67-5.987 1.247-1.955.579-3.86 1.436-5.408 2.762-2.464 2.11-3.821 5.194-5.265 8.1a88.162 88.162 0 0 1-8.807 14.172 10.964 10.964 0 0 0 5.77 2.531c1.828.22 3.694-.029 5.451-.577 1.757-.548 3.412-1.39 4.977-2.358a33.12 33.12 0 0 0 8.909-8.1 32.751 32.751 0 0 0-5.806 9.754c-.457 1.206-.843 2.443-1.079 3.711a16.247 16.247 0 0 0 .608 8.2 481.598 481.598 0 0 1 7.526-6.512c2.987-2.532 6.106-5.157 7.7-8.734.716-1.605 1.102-3.36 2.005-4.868.233-.388.5-.759.832-1.066.332-.307.732-.549 1.173-.652.387-.09.796-.07 1.18.032.385.103.745.287 1.069.518.648.461 1.145 1.1 1.616 1.741a44.839 44.839 0 0 1 1.575 2.29 6.76 6.76 0 0 0 3.078-1.646c.887-.832 1.539-1.903 1.927-3.057.388-1.153.517-2.386.436-3.6a10.756 10.756 0 0 0-1.504-4.796 1100.92 1100.92 0 0 1 5.25-6.703c3.027-3.834 6.084-7.654 8.758-11.744 2.34-3.58 4.471-7.459 7.896-10.022 2.767-2.07 6.19-3.114 9.618-3.543a30.862 30.862 0 0 1 9.01.203 15.004 15.004 0 0 0 3.34-5.366c.335-.933.577-1.907.612-2.897.035-.99-.144-2-.611-2.874-.518-.967-1.355-1.717-2.092-2.53-2.906-3.208-4.325-7.539-4.756-11.845a30.91 30.91 0 0 1 1.28-12.351 7.25 7.25 0 0 0 3.24-1.25 7.27 7.27 0 0 0 2.637-3.434 7.27 7.27 0 0 0 .197-4.327 10.1 10.1 0 0 0 5.163 0 9.565 9.565 0 0 0 3.826-2.015 8.673 8.673 0 0 0 2.45-3.553 8.293 8.293 0 0 0 .304-4.555 5.424 5.424 0 0 0 3.048.703 5.425 5.425 0 0 0 2.925-1.108c.792-.61 1.404-1.438 1.806-2.353.402-.914.597-1.913.624-2.912a9.178 9.178 0 0 0-2.508-6.51m9.494-64.178a7.695 7.695 0 0 1-3.785 2.592c-1.951.594-4.054.385-6.056 0-5.094-.978-9.943-3.043-15.067-3.842-1.688-.264-3.417-.387-5.1-.092s-3.323 1.035-4.478 2.294a6.351 6.351 0 0 0-1.59 5.076c-2.625-.4-5.25-.805-7.874-1.217-1.856-.29-3.721-.585-5.6-.592-1.879-.006-3.788.288-5.473 1.12a9.155 9.155 0 0 0-2.784 2.126 9.343 9.343 0 0 0-2.885-.354c-.482.017-.968.072-1.423.233-.455.162-.879.437-1.159.83-.184.26-.301.564-.358.877a3.045 3.045 0 0 0-.01.95c.087.631.33 1.228.57 1.818l1.62 3.948a13.156 13.156 0 0 0-4.656-1.62c-2.32-.34-4.79-.022-6.783 1.215-1.152.715-2.111 1.712-2.886 2.824-.776 1.112-1.373 2.338-1.89 3.59a33.012 33.012 0 0 0-1.646 5.155 7.108 7.108 0 0 0-4.152.788 7.091 7.091 0 0 0-2.577 2.362 6.575 6.575 0 0 0 2.577 3.221 6.583 6.583 0 0 0 4.295 1.002 9.384 9.384 0 0 0-4.2 3.229c-1.037 1.431-1.65 3.142-1.924 4.888-.273 1.747-.216 3.532.001 5.286a29.236 29.236 0 0 0 2.615 8.96M239.53 254.03a9.673 9.673 0 0 0 5.292.736c.965-.14 1.903-.424 2.838-.702 1.508-.446 3.022-.874 4.54-1.283a6.242 6.242 0 0 1 2.435 2.499c.255.481.445.994.665 1.493.22.498.475.99.838 1.396.472.529 1.115.892 1.8 1.077.684.185 1.409.197 2.11.088 1.486-.23 2.837-.98 4.108-1.787a41.763 41.763 0 0 0 4.126-2.986c.3.82.722 1.595 1.25 2.29.595.787 1.328 1.475 2.18 1.973.851.497 1.823.8 2.81.82 1.649.032 3.206-.708 4.666-1.475 1.259-.66 2.5-1.353 3.723-2.077.922.8 1.932 1.498 3.006 2.077.8.431 1.643.798 2.532.987.89.19 1.83.194 2.694-.088.891-.29 1.665-.872 2.31-1.552s1.172-1.461 1.699-2.236a433.905 433.905 0 0 1 2.577-3.748" style="paint-order:fill markers stroke"/><path fill="#fff" fill-rule="evenodd" d="M296.58 119.12a38.207 38.207 0 0 0-10.881-5.154c-6.047-1.764-12.547-1.996-18.684-.573-4.165.966-8.131 2.673-11.883 4.725-4.091 2.237-7.942 4.883-11.812 7.485-4.039 2.715-8.132 5.402-12.599 7.333-2.303.996-4.76 1.796-7.267 1.702-1.253-.047-2.506-.322-3.63-.879-1.124-.557-2.116-1.403-2.776-2.47-.228-.367-.416-.76-.666-1.113s-.573-.674-.98-.82c-.407-.145-.87-.1-1.263.08-.392.181-.717.491-.957.851-.509.766-.632 1.731-.572 2.649.09 1.402.576 2.76 1.285 3.973.71 1.212 1.639 2.284 2.652 3.257 2.417 2.322 5.351 4.11 8.54 5.144 3.188 1.033 6.628 1.304 9.93.726 5.664-.99 10.61-4.358 15.104-7.946 4.39-3.504 8.548-7.303 13.1-10.595 3.598-2.602 7.481-4.899 11.74-6.156 2.87-.848 5.906-1.21 8.877-.843a18.59 18.59 0 0 1 5.444 1.54" style="paint-order:fill markers stroke"/><path fill="none" d="M323.76 145.58a3.215 3.215 0 0 1-.925 1.534c-.446.41-1.01.689-1.606.794-.672.12-1.372.019-2.01-.225-.637-.243-1.215-.624-1.736-1.065-.754-.639-1.4-1.408-2.227-1.95-1.373-.898-3.078-1.07-4.657-1.518a12.652 12.652 0 0 1-4.758-2.53c-1.04-.89-1.943-1.967-3.138-2.633-1.236-.688-2.676-.879-4.05-1.215-1.902-.465-3.733-1.228-5.67-1.518-2.44-.366-4.937.039-7.312.708-1.52.43-3.035.97-4.614 1.013-2.023.054-4.022-.742-5.587-2.025-2.373-1.945-3.763-5.033-3.645-8.099a19.63 19.63 0 0 0 5.93-.573c3.194-.812 6.126-2.413 9.235-3.508 3.238-1.14 6.727-1.76 9.592-3.65a12.507 12.507 0 0 0 4.367-5.012m-17.55 45.894a50.167 50.167 0 0 1-.944-4.567c-.107-.675-.2-1.363-.112-2.04.045-.34.135-.674.287-.98s.365-.585.635-.795c.34-.264.763-.413 1.19-.468a4.432 4.432 0 0 1 1.29.047c1.19.196 2.33.687 3.29 1.417a7.7 7.7 0 0 1 .506-2.742c.795-2.078 2.466-3.725 4.354-4.901 1.515-.945 3.18-1.622 4.859-2.227a67.664 67.664 0 0 1 7.087-2.126m-41.507 25.512a6.88 6.88 0 0 1-.709-3.949 6.514 6.514 0 0 1 1.118-2.951 5.916 5.916 0 0 1 2.425-2.01c1.4-.618 3.001-.64 4.507-.373s2.949.807 4.402 1.285a55.707 55.707 0 0 0 9.516 2.227m-46.495 19.248a3.575 3.575 0 0 1-.073-1.894 3.574 3.574 0 0 1 .91-1.662c.556-.573 1.293-.944 2.06-1.164.766-.221 1.566-.3 2.361-.355a41.495 41.495 0 0 1 6.918.101 4.07 4.07 0 0 1-1.626-1.25 4.07 4.07 0 0 1-.804-1.888c-.163-1.102.144-2.245.735-3.19.59-.943 1.451-1.699 2.403-2.277 1.98-1.202 4.391-1.658 6.682-1.316 1.928.288 3.744 1.112 5.67 1.417 1.444.23 2.935.16 4.353-.202m-175.48 70.448a13.563 13.563 0 0 1-7.087-1.575 13.599 13.599 0 0 1-5.942-6.371 72.281 72.281 0 0 1 7.803-2.005c2.872-.569 5.807-.971 8.518-2.076 3.346-1.362 6.2-3.732 9.521-5.154 4.537-1.942 9.623-1.995 14.555-2.142 2.397-.072 4.794-.173 7.188-.304a7.582 7.582 0 0 1 2.025-1.7c1.422-.82 3.062-1.153 4.657-1.54 6.558-1.587 12.814-4.243 19.336-5.972 4.307-1.143 8.722-1.879 12.963-3.245 4.24-1.367 8.383-3.44 11.334-6.778.972-1.1 1.8-2.32 2.74-3.449s2.015-2.183 3.334-2.828c1.062-.518 2.288-.753 3.443-.506.42.09.825.241 1.235.37s.833.238 1.263.238c.627 0 1.24-.235 1.756-.59.516-.356.943-.828 1.313-1.334.422-.575.777-1.198 1.195-1.776.419-.578.913-1.12 1.539-1.463.79-.434 1.74-.516 2.626-.355.886.161 1.716.552 2.487 1.018.967.584 1.858 1.292 2.86 1.813.501.26 1.03.473 1.583.589.553.116 1.13.132 1.68.005.864-.2 1.614-.74 2.235-1.37.621-.631 1.136-1.358 1.7-2.04 1.353-1.63 3.075-3.04 5.123-3.579 1.482-.39 3.058-.302 4.551.04 1.494.34 2.919.927 4.326 1.535 1.588.686 3.163 1.402 4.724 2.147-.215-1.6.037-3.26.716-4.724.369-.796.867-1.54 1.522-2.123.654-.582 1.473-.997 2.344-1.099.839-.097 1.69.097 2.474.413.783.316 1.512.752 2.25 1.162a39.749 39.749 0 0 0 4.51 2.148m63.78 185.33a1945.22 1945.22 0 0 0-6.583-5.866c-5.661-5.022-11.355-10.014-16.751-15.319-6.963-6.845-13.565-14.444-16.894-23.623-1.075-2.964-1.79-6.05-2.29-9.163a69.167 69.167 0 0 1-.86-12.456c-.323.485-.78.88-1.305 1.131-.527.25-1.121.356-1.701.301-.925-.088-1.778-.574-2.446-1.218-.669-.644-1.17-1.44-1.618-2.253-1.569-2.846-2.564-6.026-2.737-9.271a19.45 19.45 0 0 1 .286-4.51 4.106 4.106 0 0 1-2.434 1.503c-.923.181-1.895.033-2.757-.341-.863-.375-1.62-.968-2.254-1.663-1.253-1.375-2.03-3.143-2.377-4.97-.347-1.828-.278-3.717.019-5.553.289-1.794.794-3.552 1.5-5.226a7.025 7.025 0 0 1-4.582-1.25c-1.235-.87-2.165-2.14-2.727-3.541-.563-1.403-.769-2.934-.71-4.444.074-1.844.54-3.673 1.36-5.327a4.638 4.638 0 0 1-3.22-1.249 4.636 4.636 0 0 1-1.432-3.088 8.68 8.68 0 0 1-3.651 3.088c-1.241.556-2.624.813-3.976.673s-2.67-.685-3.684-1.592c-.95-.85-1.633-2.004-2.72-2.67-.608-.372-1.31-.568-2.017-.662-.707-.094-1.422-.09-2.135-.086-3.76.02-7.55.016-11.24.748-3.15.626-6.21 1.797-8.876 3.59-2.957 1.987-5.362 4.68-7.665 7.4-1.456 1.721-2.921 3.53-3.543 5.697-.466 1.625-.436 3.386-1.114 4.934-.402.918-1.041 1.723-1.8 2.378s-1.636 1.165-2.553 1.57c-3.302 1.456-7.207 1.512-10.529.101a13.007 13.007 0 0 1-2.227-1.215 6.003 6.003 0 0 1 .153-2.048 6.04 6.04 0 0 1 2.076-3.222 5.44 5.44 0 0 1-3.507 2.635c-1.146.26-2.341.139-3.509 0-.739-.087-1.497-.18-2.219 0-.56.14-1.075.442-1.497.836a4.722 4.722 0 0 0-1.009 1.397c-.81 1.666-.777 3.595-.93 5.44-.18 2.167-.639 4.3-1.002 6.443a74.683 74.683 0 0 0-.603 4.312 323.951 323.951 0 0 1-2.784 3.847c-1.463 1.99-2.972 3.988-4.91 5.518-2.225 1.755-4.906 2.81-7.543 3.847-3.024 1.19-6.173 2.407-9.415 2.176a10.928 10.928 0 0 1-5.062-1.67c.37-1.27.837-2.513 1.396-3.713a28.638 28.638 0 0 1 2.649-4.51c1.096-1.537 2.333-2.986 3.221-4.653a13.006 13.006 0 0 0 1.217-3.293 4.927 4.927 0 0 1-1.217 3.293c-.817.928-1.965 1.515-3.15 1.865-1.187.35-2.424.485-3.65.64-3.071.392-6.12.934-9.163 1.504-1.362.255-2.722.516-4.08.783a9.715 9.715 0 0 1 .787-4.042c1.185-2.751 3.552-4.78 5.798-6.763 3.597-3.174 7.157-6.537 11.525-8.519 2.339-1.06 4.886-1.713 7.015-3.15 2.179-1.469 3.812-3.747 4.439-6.299.405-1.65.412-3.424 1.18-4.94.429-.843 1.076-1.562 1.819-2.148.742-.585 1.58-1.041 2.441-1.43 3.689-1.667 7.893-2.163 11.311-4.331 1.708-1.084 3.153-2.548 4.882-3.596 2.387-1.445 5.18-2.024 7.897-2.663 4.399-1.034 8.77-2.293 12.857-4.22 5.828-2.749 10.946-6.79 15.793-11.036a193.437 193.437 0 0 0 9.468-8.874 2.75 2.75 0 0 1-1.275.61c-.47.088-.96.05-1.41-.109-.483-.17-.906-.47-1.337-.744-.43-.275-.89-.533-1.397-.602-.375-.05-.758.006-1.124.103-.365.097-.72.234-1.08.349-2.093.663-4.393.542-6.479-.144a12.684 12.684 0 0 1-6.872-5.512 68.057 68.057 0 0 0-4.08-.465c-5.05-.422-10.135-.278-15.177.215-5.724.56-11.439 1.58-16.823 3.603-2.21.83-4.37 1.836-6.299 3.197-.806.57-1.572 1.202-2.216 1.95s-1.164 1.612-1.435 2.56c-.27.949-.287 1.949-.286 2.935 0 .5.004 1.002-.077 1.495-.081.493-.252.981-.567 1.369-.362.443-.892.728-1.445.872-.554.144-1.134.156-1.705.13-1.387-.064-2.78-.353-4.152-.143-1.197.182-2.313.736-3.508.93-1.025.167-2.071.065-3.11.02-.864-.035-1.735-.03-2.587.124-.851.155-1.686.465-2.373.99-.73.56-1.263 1.336-1.712 2.138-.45.802-.83 1.643-1.325 2.418-.95 1.49-2.305 2.695-3.803 3.634-1.499.938-3.143 1.62-4.81 2.207-5.32 1.87-11.198 2.782-16.595 1.145-4.425-1.343-8.303-4.408-10.63-8.403a9.95 9.95 0 0 1 4.637-2.77c1.453-.388 2.976-.442 4.439-.787 2.068-.488 3.953-1.54 5.941-2.29a21.303 21.303 0 0 1 8.59-1.342m200.63 180.71a17.878 17.878 0 0 1-4.555 5.553c-2.038 1.65-4.454 2.846-7.02 3.386s-5.28.415-7.76-.435c-2.268-.776-4.32-2.148-5.96-3.894-1.64-1.747-2.874-3.864-3.658-6.128-1.624-4.685-1.249-10.073 1.214-14.376 1.982-3.462 5.14-6.073 8.302-8.504 4.486-3.449 9.18-6.751 12.756-11.136a30.92 30.92 0 0 0 5.698-10.832m4.426 33.51a8.597 8.597 0 0 1-2.007-6.682c.19-1.433.744-2.792 1.374-4.093.63-1.301 1.342-2.564 1.883-3.905 1.197-2.965 1.518-6.217 1.483-9.415-.017-1.579-.12-3.175-.592-4.682-.472-1.507-1.344-2.93-2.648-3.822a5.603 5.603 0 0 0-3.92-.91m4.427 33.51a12.471 12.471 0 0 0-3.594 5.926 12.472 12.472 0 0 0 .152 6.93 12.432 12.432 0 0 0 2.379 4.303 29.23 29.23 0 0 0-1.823 6.682c-.593 3.996-.326 8.19 1.284 11.895.444 1.02.986 1.999 1.618 2.916a45.855 45.855 0 0 0-.358 4.796c-.039 1.751.028 3.532.567 5.199.539 1.666 1.604 3.223 3.155 4.036.542.283 1.138.477 1.616.859.366.293.644.686.85 1.108.207.421.346.873.47 1.326.533 1.973.786 4.05 1.717 5.87.45.88 1.06 1.688 1.845 2.29.784.602 1.748.989 2.737 1.003a4.06 4.06 0 0 0 2.863-1.146 126.608 126.608 0 0 0 4.009 3.15c1.233.93 2.484 1.837 3.722 2.759 1.463 1.09 2.923 2.208 4.57 2.99s3.524 1.211 5.31.837a6.314 6.314 0 0 0 3.865-2.577 29.243 29.243 0 0 1-2.434 9.592c-2.443 5.485-6.502 10.068-10.595 14.46-4.543 4.876-9.255 9.7-12.6 15.462-1.126 1.942-2.116 4.015-3.722 5.584-.851.832-1.86 1.507-2.608 2.434a5.893 5.893 0 0 0-1.25 4.317 18.173 18.173 0 0 0-4.894 2.329c-4.021 2.715-6.818 6.979-8.47 11.541-2.02 5.583-2.44 11.598-3.644 17.413a65.454 65.454 0 0 1-3.948 12.553 25.866 25.866 0 0 0 13.566-9.516 25.745 25.745 0 0 0 4.454-10.225 247.002 247.002 0 0 1 2.835 25.714 60.878 60.878 0 0 0 6.277-6.884c1.877-2.406 3.58-4.967 4.832-7.75s2.043-5.801 2.052-8.853c.015-4.915-1.975-9.664-2.025-14.578-.014-1.36.122-2.72.405-4.05a9.919 9.919 0 0 0 5.67 2.633c.995.111 2.017.067 2.976-.22.96-.287 1.856-.827 2.49-1.603.63-.771.978-1.738 1.184-2.713s.283-1.971.436-2.956c.952-6.111 4.767-11.325 8.301-16.4 6.281-9.02 12.37-18.763 21.867-24.297 5.161-3.007 11.19-4.669 15.591-8.706.754-.691 1.467-1.472 1.823-2.43.252-.68.312-1.43.17-2.14a3.955 3.955 0 0 0-.98-1.91c-.614.377-1.31.62-2.025.71-1.153.142-2.34-.122-3.369-.662-1.029-.54-1.905-1.346-2.604-2.275-1.34-1.78-2.028-3.978-2.341-6.184-.312-2.206-.272-4.445-.291-6.673-.015-1.769-.068-3.548.197-5.297.265-1.748.873-3.489 2.03-4.826.378-.437.814-.829 1.316-1.114.514-.292 1.085-.467 1.645-.657s1.123-.404 1.595-.76c.498-.377.875-.9 1.13-1.47.255-.57.392-1.187.464-1.807.132-1.133.052-2.28.116-3.42.064-1.139.29-2.312.958-3.237.587-.815 1.46-1.367 2.29-1.933.657-.448 1.302-.92 1.853-1.492.55-.572 1.007-1.252 1.226-2.016.202-.704.196-1.45.132-2.18-.063-.73-.183-1.455-.204-2.186-.037-1.326.254-2.652.788-3.866.804-1.83 2.143-3.406 2.791-5.297.782-2.277.486-4.76.287-7.159-.06-.728-.111-1.463-.03-2.189.083-.726.306-1.45.746-2.035.32-.426.744-.761 1.158-1.097.415-.335.831-.682 1.132-1.122.417-.608.585-1.357.61-2.094.024-.737-.085-1.47-.18-2.201-.667-5.135-.615-10.35-1.449-15.46a45.131 45.131 0 0 0-2.43-8.96 13.871 13.871 0 0 0 4.961-.759c1.32-.458 2.572-1.117 3.929-1.45 2.58-.635 5.4-.004 7.588 1.503 2.688 1.851 4.375 4.841 6.872 6.944a13.37 13.37 0 0 0 6.8 3.006m-1.431-7.158c-.15 1.312-.077 2.649.215 3.937a12.832 12.832 0 0 0 1.217 3.221c1.716 3.203 4.608 5.617 7.66 7.588 3.62 2.34 7.661 4.199 11.954 4.582.453.04.907.064 1.36.072a32.35 32.35 0 0 0-3.006-8.805 12.075 12.075 0 0 0 5.369 3.078c3.82 1.016 8.043.034 11.239-2.291a15.133 15.133 0 0 0 5.583-7.95 11.702 11.702 0 0 1-5.512 2.152c-2.508.29-5.069-.25-7.378-1.274-2.309-1.023-4.384-2.515-6.294-4.167-5.292-4.573-9.381-10.364-14.317-15.319-4.064-4.078-8.901-7.677-14.532-8.876-5.384-1.148-11.171.059-15.82 3.006-3.473 2.202-6.345 5.319-10.022 7.159a16.8 16.8 0 0 1-4.94 1.575 17.759 17.759 0 0 0-1.87-6.123c-1.872-3.61-4.909-6.45-7.796-9.313-1.515-1.504-3.04-3.086-3.847-5.062-1.047-2.565-.757-5.453-1.113-8.2-.565-4.36-2.861-8.471-6.277-11.238.13-.989.44-1.954.911-2.834a8.368 8.368 0 0 1 2.936-3.139 9.769 9.769 0 0 1-3.644-4.758c-.604-1.709-.716-3.565-.507-5.365.198-1.7.675-3.353 1.003-5.032s.508-3.428.111-5.092c-.402-1.682-1.364-3.17-2.338-4.599-.973-1.43-1.989-2.867-2.521-4.513a8.533 8.533 0 0 1-.405-2.227c1.288.596 2.81.67 4.15.203a5.568 5.568 0 0 0 2.228-1.453 5.453 5.453 0 0 1-2.228-2.698c-.385-1.022-.452-2.138-.385-3.228.066-1.09.261-2.167.385-3.251a25.077 25.077 0 0 0-2.733-14.477 10.1 10.1 0 0 0 4.05.303 10.136 10.136 0 0 0 5.365-2.43 10.75 10.75 0 0 1-2.126-2.935 10.759 10.759 0 0 1-1.078-4.05 16.952 16.952 0 0 0 4.454-2.126c2.855-1.918 5.127-4.782 6.039-8.099a12.79 12.79 0 0 0-.101-7.086c.245.965.837 1.838 1.642 2.423s1.819.88 2.812.816a4.355 4.355 0 0 0 2.734-1.215 11.256 11.256 0 0 1-1.418-4.758c-.092-1.399.08-2.815.507-4.15 1.437-.2 2.842-.623 4.15-1.25 3.358-1.61 6.049-4.663 6.986-8.267a11.97 11.97 0 0 0-1.215-8.909 8.236 8.236 0 0 0 4.353.507 8.2 8.2 0 0 0 1.822-.507 24.944 24.944 0 0 0-2.328-7.188c1.82.012 3.643-.42 5.264-1.25 1.435-.733 2.719-1.784 3.645-3.103 1.303-1.855 1.852-4.224 1.497-6.463s-1.608-4.323-3.42-5.685c.615.377 1.327.597 2.049.632s1.451-.114 2.101-.43a4.04 4.04 0 0 0 1.398-1.109c.373-.47.632-1.032.728-1.624.115-.704 0-1.424-.123-2.127-.124-.702-.257-1.416-.18-2.125.078-.73.377-1.42.755-2.049.379-.629.837-1.205 1.27-1.798 1.58-2.17 2.84-4.634 3.239-7.29a12.436 12.436 0 0 0-1.195-7.408 12.437 12.437 0 0 0-5.265-5.347" style="paint-order:fill markers stroke"/></g><g stroke="#000" stroke-linecap="round" stroke-linejoin="round" stroke-miterlimit="1000" stroke-width="2.498"><path fill="none" d="M307.17 119.33a33.418 33.418 0 0 0-6.228-5.226c-2.295-1.49-4.766-2.694-7.302-3.722-5.176-2.1-10.75-3.488-16.322-3.078-2.796.205-5.595.86-8.375.5-2.126-.274-4.232-1.2-5.584-2.863a6.172 6.172 0 0 1-1.287-2.731c-.188-1-.1-2.054.285-2.995.528-1.29 1.585-2.311 2.792-3.007 1.98-1.142 4.314-1.463 6.586-1.718 2-.225 4.005-.416 6.013-.573" style="paint-order:fill markers stroke"/><path fill-rule="evenodd" d="M277.75 93.92a57.498 57.498 0 0 1 4.51-.43c.908-.05 1.845-.085 2.672-.465.413-.19.792-.468 1.062-.834.27-.366.425-.824.388-1.278-.038-.472-.281-.912-.615-1.248-.334-.336-.755-.574-1.192-.756a6.164 6.164 0 0 0-3.284-.384 6.692 6.692 0 0 0-3.04 1.315 7.033 7.033 0 0 0-2.6 4.257" style="paint-order:fill markers stroke"/><path fill="none" d="M269.72 94.756a12.061 12.061 0 0 1-.844-3.481c-.219-2.466.354-5.011 1.698-7.09 1.176-1.82 2.917-3.252 4.888-4.152 2.705-1.236 5.751-1.475 8.59-2.362 3.143-.983 5.975-2.739 8.877-4.295a78.123 78.123 0 0 1 14.603-6.014 79.136 79.136 0 0 1 7.23-1.79" style="paint-order:fill markers stroke"/><path fill="none" d="M337.31 112.86c-1.292-.132-2.534-.714-3.461-1.623s-1.535-2.138-1.693-3.427c-.222-1.816.421-3.618 1.145-5.298 2.12-4.915 5.105-9.568 9.306-12.885 3.436-2.712 7.59-4.446 11.883-5.297 6.654-1.318 13.555-.56 20.187.859 1.283.274 2.565.574 3.873.673 1.307.099 2.654-.012 3.859-.53a6.056 6.056 0 0 0 2.863-2.577 23.498 23.498 0 0 1-.716 6.3c-.383 1.51-.922 2.99-1.715 4.333-.793 1.341-1.849 2.544-3.153 3.398-1.21.794-2.605 1.27-4.018 1.588-1.413.317-2.854.483-4.286.703-3.042.467-6.06 1.187-8.893 2.39-2.833 1.203-5.481 2.903-7.571 5.162-2.164 2.338-3.683 5.225-4.662 8.256-.979 3.031-1.434 6.21-1.638 9.39-.23 3.578-.142 7.207.7 10.69.842 3.486 2.476 6.834 5.027 9.353 2.11 2.085 4.797 3.548 7.647 4.373 2.85.826 5.86 1.028 8.818.782 5.42-.452 10.843-2.513 14.603-6.443 3.335-3.486 5.186-8.35 5.01-13.172M314.76 65.574a48.276 48.276 0 0 1 2.004-3.866c1.258-2.179 2.684-4.256 4.152-6.3.589-.819 1.187-1.637 1.893-2.358s1.526-1.349 2.464-1.721c.857-.34 1.785-.458 2.705-.506.92-.047 1.844-.026 2.762-.102a14.659 14.659 0 0 0 4.455-1.113 16.408 16.408 0 0 0 5.365-3.645c1.33.683 2.68 1.324 4.05 1.924 2.117.927 4.384 1.77 6.681 1.518 2.26-.247 4.256-1.517 6.378-2.328.937-.358 1.959-.63 2.936-.405.751.173 1.407.627 1.992 1.128.586.5 1.125 1.06 1.754 1.504 1.062.75 2.352 1.146 3.65 1.231 1.297.086 2.602-.13 3.842-.522 1.244-.394 2.448-.967 3.745-1.114a5.736 5.736 0 0 1 3.949 1.013c1.188.851 1.984 2.129 2.936 3.24 1.39 1.623 3.215 2.945 5.304 3.402 1.502.329 3.068.2 4.582-.071.441-.08.882-.17 1.33-.196.447-.026.907.017 1.318.196.434.188.792.52 1.086.89.293.37.528.783.776 1.186a19.76 19.76 0 0 0 3.006 3.794c1.603 1.568 3.543 2.857 5.727 3.364.669.155 1.353.236 2.024.377s1.342.348 1.913.73c.642.427 1.129 1.057 1.485 1.74s.59 1.424.806 2.164c.351 1.208.658 2.432 1.109 3.607.45 1.174 1.056 2.309 1.93 3.214 1.349 1.398 3.226 2.146 4.758 3.341 1.007.786 1.883 1.807 2.227 3.037.252.902.204 1.86.078 2.787-.126.928-.329 1.847-.382 2.781-.06 1.048.074 2.114.456 3.09s1.023 1.863 1.873 2.478c.616.446 1.328.744 1.946 1.186.31.222.596.48.814.792s.363.68.378 1.06c.02.509-.195 1.001-.479 1.425-.283.424-.635.797-.938 1.207-.763 1.032-1.194 2.28-1.418 3.543-.36 2.038-.199 4.175.533 6.11.31.82.719 1.598 1.146 2.363.205.366.415.732.56 1.126.146.394.224.822.156 1.236-.07.423-.289.808-.546 1.152-.257.344-.555.655-.814.996-.762 1-1.17 2.217-1.54 3.418-.687 2.219-1.296 4.482-1.452 6.8-.156 2.317.164 4.711 1.249 6.765.281.534.613 1.04.863 1.59.25.548.42 1.152.352 1.751-.076.666-.443 1.273-.914 1.75-.47.477-1.043.84-1.617 1.186-.91.548-1.842 1.069-2.666 1.739-.824.67-1.544 1.509-1.89 2.513-.38 1.1-.284 2.297-.28 3.461.002.582-.02 1.167-.139 1.737-.118.57-.336 1.126-.695 1.585-.477.611-1.186 1.019-1.938 1.211-.732.188-1.5.182-2.255.145-.755-.038-1.513-.107-2.266-.04-1.074.095-2.12.468-3.026 1.05s-1.677 1.374-2.26 2.281c-.753 1.173-1.188 2.515-1.752 3.789-.565 1.274-1.306 2.535-2.471 3.298-.861.564-1.907.815-2.935.788-1.445-.038-2.854-.6-4.296-.501-.83.057-1.636.334-2.366.734-.73.4-1.387.921-2 1.485-1.302 1.197-2.42 2.596-3.818 3.679-1.025.793-2.248 1.42-3.543 1.417-.71-.002-1.405-.192-2.07-.436-.666-.245-1.31-.545-1.98-.779-1.802-.63-3.75-.77-5.651-.599s-3.763.642-5.586 1.207c-1.226.379-2.464.805-3.746.81-1.714.006-3.333-.74-4.86-1.52-1.59-.81-3.159-1.674-4.816-2.34-1.657-.666-3.42-1.131-5.206-1.101-.682.011-1.36.095-2.043.108-.681.013-1.377-.047-2.007-.31-.772-.324-1.396-.935-1.872-1.625s-.818-1.46-1.165-2.223c-.58-1.275-1.184-2.548-2.004-3.683-.82-1.135-1.875-2.134-3.159-2.695-.592-.258-1.222-.42-1.835-.626-.612-.207-1.22-.468-1.708-.892-.576-.501-.948-1.2-1.191-1.924s-.369-1.48-.53-2.227c-.572-2.642-1.605-5.164-2.227-7.795-.364-1.537-.609-3.163-1.519-4.454-.306-.435-.68-.818-1.03-1.217-.351-.4-.685-.825-.893-1.314-.245-.574-.305-1.214-.245-1.835.06-.62.235-1.224.447-1.81.41-1.134.96-2.213 1.376-3.344.416-1.132.7-2.344.548-3.54-.12-.935-.498-1.815-.71-2.734-.373-1.628-.207-3.34.203-4.96a16.988 16.988 0 0 1 6.072-9.223" style="paint-order:fill markers stroke"/></g><path fill-rule="evenodd" d="M329.44 80.677a33.326 33.326 0 0 0-6.3-2.506c-1.063-.301-2.147-.55-3.25-.627-1.102-.075-2.228.027-3.264.413-.972.361-1.841.962-2.61 1.658s-1.446 1.486-2.115 2.279c-1.412 1.677-2.808 3.387-3.865 5.309-.35.637-.667 1.31-.763 2.03-.048.36-.038.73.049 1.084s.254.689.5.957c.346.38.832.607 1.332.724s1.017.128 1.53.133c1.459.012 2.92-.036 4.367-.215.268-.033.539-.072.792-.166.253-.094.491-.25.64-.476.09-.137.145-.296.163-.46a1.197 1.197 0 0 0-.05-.486 1.556 1.556 0 0 0-.582-.774c-.296-.215-.646-.341-.996-.446-.35-.105-.707-.192-1.04-.342a2.963 2.963 0 0 1-1.197-.98 2.866 2.866 0 0 1-.522-1.454c-.047-.696.169-1.392.51-2s.803-1.141 1.28-1.65c.98-1.047 2.083-2.043 3.436-2.518 1.095-.384 2.279-.4 3.436-.49.68-.051 1.371-.13 2.037.015.333.072.657.2.932.402s.499.479.61.8c.092.264.107.549.082.826-.026.278-.09.55-.153.821-.207.885-.412 1.786-.859 2.577-.138.244-.3.478-.517.655-.216.177-.492.294-.772.276a1.066 1.066 0 0 1-.447-.139 1.713 1.713 0 0 1-.372-.288c-.222-.223-.4-.486-.612-.719-.532-.583-1.26-.955-2.005-1.217-.33-.115-.67-.212-1.02-.222-.35-.009-.71.077-.984.294a1.335 1.335 0 0 0-.38.5 1.808 1.808 0 0 0-.147.613c-.03.42.062.84.169 1.25.151.576.336 1.15.63 1.669.294.519.706.983 1.231 1.265.377.202.8.305 1.225.349.425.043.854.03 1.28.01.752-.036 1.507-.09 2.24-.253.735-.164 1.453-.443 2.056-.893.803-.6 1.379-1.513 1.526-2.505.056-.385.05-.777.105-1.162.054-.385.176-.777.445-1.058.23-.24.552-.38.882-.418.33-.04.667.019.98.132.636.231 1.165.68 1.717 1.074.582.414 1.209.777 1.893.982.684.205 1.43.245 2.109.02.728-.241 1.323-.761 1.94-1.217.31-.23.634-.448.889-.737a1.74 1.74 0 0 0 .31-.487 1.2 1.2 0 0 0 .09-.566c-.025-.248-.14-.484-.31-.668s-.387-.32-.621-.405c-.588-.216-1.238-.128-1.861-.072a16.692 16.692 0 0 1-5.799-.501z" style="paint-order:fill markers stroke"/><g stroke="#000" stroke-linecap="round" stroke-linejoin="round" stroke-miterlimit="1000" stroke-width="2.498"><path fill="#fff" fill-rule="evenodd" d="M363.94 118.26a4.736 4.736 0 0 1 2.577-2.099 4.726 4.726 0 0 1 2.957 0 50.642 50.642 0 0 0 6.135 4.422c2.81 1.722 5.789 3.17 8.518 5.019 2.1 1.422 4.051 3.081 6.3 4.255 3.3 1.722 7.057 2.308 10.738 2.863 3.588.541 7.189 1.078 10.817 1.15 3.628.074 7.305-.33 10.698-1.616 2.393-.908 4.641-2.265 6.403-4.123a14.315 14.315 0 0 0 3.722-7.548c-1.51.114-3.027.114-4.537 0-4.812-.365-9.525-1.909-13.646-4.421-5.9-3.6-10.52-9.087-16.608-12.362-4.945-2.662-10.593-3.713-16.178-4.296a109.15 109.15 0 0 0-7.855-.534" style="paint-order:fill markers stroke"/><path fill="none" d="M375.61 108.53a9.362 9.362 0 0 1 2.648 0c1.558.223 3.04.838 4.402 1.625 1.363.786 2.618 1.745 3.863 2.707 3.156 2.439 6.314 4.94 9.918 6.65a26.269 26.269 0 0 0 8.734 2.409" style="paint-order:fill markers stroke"/></g><g fill-rule="evenodd"><path d="M284.3 364.76a8.5 8.5 0 0 1 2.012-.936c.402-.127.821-.224 1.242-.199.21.013.42.056.614.139.194.082.372.205.51.363.203.233.314.533.374.835.06.303.074.613.107.92.037.335.096.669.107 1.006.011.337-.03.684-.183.985-.179.352-.516.623-.902.709-.379.084-.775-.005-1.14-.137-.366-.131-.718-.304-1.096-.395-.428-.102-.885-.098-1.286-.278a1.598 1.598 0 0 1-.65-.546 1.816 1.816 0 0 1-.304-.796c-.08-.608.148-1.25.595-1.67zM285.26 371.74c.402.235.787.503 1.12.828.332.326.61.712.778 1.146.241.624.247 1.33.557 1.924.08.155.181.299.268.45.088.151.163.313.188.486a.923.923 0 0 1-.045.437c-.049.14-.13.267-.234.373a1.23 1.23 0 0 1-.883.347 1.704 1.704 0 0 1-.914-.296c-.349-.23-.624-.56-.832-.922-.209-.362-.355-.756-.484-1.154-.125-.387-.236-.781-.408-1.15-.172-.37-.411-.718-.745-.95-.27-.188-.589-.292-.905-.383s-.637-.174-.928-.326c-.172-.09-.332-.205-.454-.355s-.203-.338-.204-.531a.816.816 0 0 1 .207-.536c.129-.147.303-.251.489-.312.372-.12.778-.068 1.16.017a7.939 7.939 0 0 1 2.269.907zM283.16 377.97c.51.18.988.457 1.382.827s.702.834.87 1.348c.267.823.165 1.721.354 2.566.044.197.104.392.126.593.023.2.003.414-.1.587a.736.736 0 0 1-.352.295.94.94 0 0 1-.459.06 1.212 1.212 0 0 1-.509-.183 1.56 1.56 0 0 1-.398-.367c-.223-.287-.355-.634-.449-.986-.11-.412-.172-.837-.283-1.25-.111-.412-.277-.82-.563-1.138-.174-.193-.387-.347-.595-.504s-.415-.323-.569-.533a1.174 1.174 0 0 1-.192-.391.839.839 0 0 1-.003-.433.814.814 0 0 1 .282-.414c.133-.105.294-.171.46-.203.333-.063.678.013.998.126zM312.08 358.79c.792.32 1.62.565 2.47.644.67.063 1.358.024 2.004.215.676.2 1.263.643 1.718 1.181.225.266.42.555.638.827.218.272.461.53.758.712.199.122.425.21.658.215a.9.9 0 0 0 .343-.057.744.744 0 0 0 .288-.193c.08-.09.137-.201.168-.318.03-.117.037-.24.025-.36-.024-.24-.12-.467-.23-.683-.673-1.324-1.893-2.303-3.22-2.97-1.652-.83-3.493-1.228-5.334-1.396-.278-.026-.56-.046-.838-.013s-.554.124-.772.299a.929.929 0 0 0-.241.284.672.672 0 0 0-.082.36.759.759 0 0 0 .21.447c.114.124.255.219.399.305.33.198.681.357 1.038.501zM303.59 350.05a9.738 9.738 0 0 1 3.114 1.181c.923.547 1.756 1.247 2.72 1.718 1.387.678 2.97.846 4.403 1.42.5.2.982.449 1.503.585.152.04.31.07.465.05a.625.625 0 0 0 .223-.07.468.468 0 0 0 .171-.16c.07-.11.082-.25.06-.38s-.076-.252-.132-.37a3.627 3.627 0 0 0-.5-.824c-.21-.245-.478-.448-.788-.537-.157-.045-.322-.06-.473-.122a.6.6 0 0 1-.205-.13.38.38 0 0 1-.11-.213.372.372 0 0 1 .028-.191.576.576 0 0 1 .106-.163c.087-.097.196-.17.296-.255.21-.176.375-.401.501-.644.077-.148.14-.306.152-.471a.677.677 0 0 0-.027-.247.52.52 0 0 0-.125-.213.644.644 0 0 0-.409-.168c-.15-.012-.3.009-.45.025-1.697.18-3.374-.377-5.011-.859-1.408-.414-2.83-.779-4.252-1.145-.366-.095-.736-.19-1.113-.19-.189.001-.379.026-.558.085-.179.059-.348.153-.484.284a1.136 1.136 0 0 0-.301.494 1.171 1.171 0 0 0-.021.58c.059.27.217.52.437.688s.503.256.78.242zM302.7 341.93c1.327.526 2.745.767 4.15 1.012 1.016.177 2.075.377 2.886 1.013.232.182.44.4.576.662.135.262.191.571.118.856-.048.188-.151.36-.286.498a1.442 1.442 0 0 1-.48.32c-.358.15-.756.17-1.143.144-1.573-.107-2.987-.942-4.454-1.518-1.267-.499-2.602-.81-3.948-1.013-.461-.07-.933-.128-1.353-.329-.21-.1-.405-.236-.558-.413a1.197 1.197 0 0 1-.29-.625 1.19 1.19 0 0 1 .23-.835c.175-.239.425-.417.697-.531.402-.169.852-.202 1.285-.149.433.053.851.19 1.257.351.441.176.87.382 1.313.557zM299.11 336.82c1.765.298 3.547.626 5.334.506.447-.03.898-.088 1.343-.035.223.027.444.081.647.178.202.096.387.235.522.414.173.229.26.529.202.81a.985.985 0 0 1-.183.394c-.089.117-.2.215-.322.296-.243.161-.527.25-.81.322-1.831.461-3.76.225-5.62-.101-1.936-.34-3.854-.776-5.77-1.215-.414-.095-.834-.192-1.204-.401-.185-.105-.356-.237-.492-.4s-.237-.357-.278-.566a1.189 1.189 0 0 1 .146-.818c.143-.244.37-.436.63-.548.408-.177.878-.156 1.31-.048.432.108.838.297 1.255.453 1.056.394 2.178.572 3.29.759zM293.64 329.93c1.248.458 2.57.715 3.898.76.758.024 1.52-.02 2.276.05.305.028.617.077.883.229.134.076.253.177.341.303a.776.776 0 0 1 .144.43c.003.214-.096.419-.232.584-.136.165-.308.297-.477.428-.493.384-.986.787-1.569 1.012-.554.215-1.165.256-1.756.195-.592-.06-1.169-.22-1.736-.397-1.64-.512-3.23-1.173-4.86-1.721-.291-.098-.586-.194-.852-.349s-.502-.378-.616-.663a1.166 1.166 0 0 1 .014-.852c.107-.27.305-.5.543-.667.345-.242.77-.355 1.19-.364.422-.01.84.08 1.24.212.56.187 1.092.461 1.569.81zM291.26 323.4c.57.266 1.128.563 1.712.798.584.235 1.202.41 1.831.417.38.004.758-.052 1.136-.034.19.009.38.036.558.097.18.061.35.157.483.291.222.223.333.548.304.86-.03.306-.187.59-.401.81-.215.22-.484.38-.764.507-.876.394-1.872.472-2.824.342-.951-.13-1.866-.458-2.744-.848-1.464-.651-2.845-1.476-4.201-2.329-.416-.262-.832-.528-1.2-.854s-.69-.715-.876-1.17a1.572 1.572 0 0 1-.13-.689.927.927 0 0 1 .282-.628.881.881 0 0 1 .455-.209c.167-.026.34-.01.503.03.328.083.621.265.915.432 1.572.893 3.324 1.412 4.96 2.177zM288.17 315.25c.935.483 1.894.966 2.936 1.114.23.032.461.048.69.086.229.038.456.1.656.217.204.12.374.296.485.505.11.208.161.448.143.683-.029.366-.223.708-.495.954a2.254 2.254 0 0 1-.973.49c-.76.19-1.567.083-2.312-.158-.745-.24-1.44-.609-2.142-.955-1.443-.712-2.956-1.353-4.151-2.43a6.856 6.856 0 0 1-2.025-3.24 2.948 2.948 0 0 1-.117-.66 1.417 1.417 0 0 1 .117-.655c.096-.206.257-.382.456-.491a1.03 1.03 0 0 1 .658-.117c.297.048.558.23.766.448.208.218.371.474.55.716 1.179 1.599 2.993 2.582 4.758 3.493zM279.86 302.56c.594 1.252 1.658 2.228 2.828 2.97 1.001.637 2.1 1.128 3.257 1.397.276.064.557.116.816.23.13.057.253.13.36.222a.974.974 0 0 1 .256.335c.102.23.095.5.012.738s-.237.446-.417.622c-.47.459-1.123.708-1.779.752-.825.055-1.649-.2-2.371-.602-.723-.402-1.355-.947-1.96-1.51-.996-.927-1.945-1.928-2.613-3.114-.208-.37-.39-.76-.486-1.174-.097-.414-.108-.855.021-1.26.07-.217.18-.426.346-.582s.393-.255.62-.241a.828.828 0 0 1 .405.143c.12.08.222.187.307.304.17.234.274.508.398.77zM280.58 296.69c.148.264.276.54.44.794.164.254.37.49.634.638.343.191.757.218 1.11.393.186.094.352.229.478.395.125.167.21.365.237.572.042.313-.047.635-.217.901-.17.266-.415.478-.687.638-.375.22-.81.346-1.243.32-.497-.029-.969-.256-1.347-.579s-.67-.736-.908-1.173a4.646 4.646 0 0 1-.513-1.373 2.896 2.896 0 0 1 .083-1.454c.075-.219.183-.43.347-.593a.868.868 0 0 1 .62-.266c.217.006.423.114.582.262s.278.335.384.525zM271.52 269.19c.373.416.871.693 1.357.969.485.276.977.569 1.326 1.005.103.129.192.27.25.425a.948.948 0 0 1 .054.486.892.892 0 0 1-.25.47c-.125.127-.285.22-.455.28-.34.118-.71.103-1.067.06-1.356-.163-2.691-.747-3.594-1.772a3.714 3.714 0 0 1-.636-.982 2.658 2.658 0 0 1-.224-1.144c.01-.272.07-.546.196-.788.126-.243.32-.453.563-.578.342-.177.768-.17 1.113 0 .315.155.553.43.755.715s.378.593.612.854zM261.9 266.46c.283.001.569-.018.845.04.138.03.274.08.392.156.119.077.22.183.282.31a.823.823 0 0 1 .05.528 1.19 1.19 0 0 1-.23.48 1.63 1.63 0 0 1-.399.357c-.3.196-.647.306-.99.407-.543.159-1.097.298-1.661.321-.565.023-1.147-.078-1.63-.372-.544-.331-.925-.885-1.157-1.479-.232-.593-.328-1.23-.412-1.862-.034-.26-.067-.522-.048-.784s.092-.525.25-.734a.994.994 0 0 1 .453-.334.923.923 0 0 1 .56-.02c.2.057.376.185.516.34.14.154.247.335.344.52.278.53.493 1.115.934 1.519.251.23.564.386.891.48.327.093.67.126 1.01.127zM251.63 262.69c.172.228.412.393.639.567.226.173.451.366.576.623.096.199.126.427.098.646-.027.22-.11.43-.225.619-.133.219-.314.41-.533.544a1.273 1.273 0 0 1-.732.19c-.33-.02-.638-.185-.886-.403-.248-.219-.444-.49-.633-.761-.168-.241-.334-.486-.443-.759-.11-.272-.16-.576-.088-.861.045-.182.139-.35.26-.494.12-.144.266-.264.423-.367.162-.106.34-.194.53-.228a.766.766 0 0 1 .558.102c.103.07.182.168.251.271.07.103.13.212.205.311zM244.82 254.76a.67.67 0 0 0-.123.29.834.834 0 0 0 .009.315c.045.207.16.394.299.554.277.32.654.548.903.891.247.341.347.766.406 1.183.058.418.082.843.201 1.247.221.748.79 1.393 1.519 1.67.33.126.69.177 1.04.133.35-.044.69-.184.96-.411.216-.183.387-.424.464-.696a1.09 1.09 0 0 0-.085-.823 1.382 1.382 0 0 0-.466-.462c-.186-.12-.387-.214-.58-.322-.592-.332-1.121-.817-1.384-1.443a2.526 2.526 0 0 1-.126-1.493c.059-.275.16-.55.13-.829a.678.678 0 0 0-.16-.383.491.491 0 0 0-.17-.123.416.416 0 0 0-.205-.032.617.617 0 0 0-.295.134c-.087.065-.168.14-.262.195a1.091 1.091 0 0 1-.525.134c-.182.006-.364-.016-.546-.029a1.841 1.841 0 0 0-.545.024.792.792 0 0 0-.46.276zM262.93 258.17a2.54 2.54 0 0 0 1.647 1.432c.717.194 1.476.06 2.219.071.106.001.212.006.316.026s.206.057.292.117c.158.11.252.292.306.476.055.184.077.376.124.562.142.57.525 1.07 1.027 1.373s1.115.408 1.693.31c.274-.047.54-.137.817-.156.139-.01.28 0 .413.04a.725.725 0 0 1 .345.223.749.749 0 0 1 .155.515c-.009.183-.072.36-.155.523-.304.594-.88 1.017-1.503 1.253-.59.223-1.247.294-1.857.133-.61-.162-1.163-.57-1.436-1.139-.07-.143-.12-.294-.187-.438a1.03 1.03 0 0 0-.279-.382.95.95 0 0 0-.5-.18c-.178-.017-.358-.004-.538.001a5.838 5.838 0 0 1-2.577-.537c-.83-.38-1.565-.94-2.255-1.539-.312-.27-.623-.56-.806-.93a1.383 1.383 0 0 1-.152-.596 1.01 1.01 0 0 1 .172-.585c.137-.198.352-.332.579-.41.227-.08.469-.107.708-.127.476-.04.955-.052 1.432-.036zM210.83 197.77c.192-.13.431-.177.662-.162.23.015.454.089.665.184.421.19.806.472 1.255.585.273.07.558.074.836.124.139.026.276.063.403.124a.906.906 0 0 1 .33.259c.13.17.182.396.15.608a.963.963 0 0 1-.302.556c-.221.204-.522.305-.82.337-.3.031-.602-.001-.901-.033-.464-.05-.932-.1-1.374-.252s-.859-.416-1.106-.811a1.297 1.297 0 0 1-.205-.807.98.98 0 0 1 .407-.712zM207.79 205.61a6.444 6.444 0 0 0 2.624.202c.8-.103 1.57-.356 2.362-.506.496-.093 1.026-.143 1.493.05.317.133.592.383.714.704.06.16.082.337.057.507a.893.893 0 0 1-.214.46c-.168.188-.415.291-.663.333-.248.043-.502.03-.754.022a36.083 36.083 0 0 0-2.329 0c-.813.023-1.628.066-2.43.202-.41.07-.818.165-1.234.181-.416.017-.849-.052-1.195-.282a1.38 1.38 0 0 1-.522-.643 1.278 1.278 0 0 1-.035-.825 1.228 1.228 0 0 1 .94-.846 1.228 1.228 0 0 1 1.186.441zM204.45 209.46c.249.429.68.748 1.163.86.306.072.628.064.928.158a.98.98 0 0 1 .405.232c.111.112.186.263.187.42 0 .14-.057.275-.143.385-.085.11-.196.198-.313.273-.394.256-.863.391-1.332.396-.47.005-.939-.119-1.35-.345-.318-.174-.607-.414-.79-.727a1.374 1.374 0 0 1-.177-.51 1.135 1.135 0 0 1 .055-.535c.096-.26.3-.48.555-.593s.554-.118.812-.014z" style="paint-order:fill markers stroke"/><path d="M219.89 194.68c.148.164.346.283.561.337.215.054.446.042.654-.033.21-.076.393-.213.575-.343.182-.131.372-.26.59-.315a1.3 1.3 0 0 1 .484-.021c.161.02.32.06.477.1.158.04.316.08.477.099s.328.016.485-.026c.244-.067.45-.227.662-.365.106-.07.215-.134.333-.18a.85.85 0 0 1 .371-.063.732.732 0 0 1 .341.118.907.907 0 0 1 .256.256c.136.202.196.447.213.69.042.587-.153 1.17-.427 1.69-.275.522-.63.997-.94 1.498-1.058 1.708-1.585 3.682-2.277 5.568-.335.912-.718 1.847-.652 2.816.032.485.183.969.48 1.353.298.384.75.659 1.235.69.383.026.762-.098 1.11-.26.347-.163.676-.367 1.029-.518.837-.36 1.795-.42 2.577-.888.587-.351 1.035-.91 1.646-1.217.588-.296 1.268-.33 1.924-.386.327-.028.656-.064.975-.144.32-.08.63-.205.895-.4.306-.227.54-.54.72-.876s.304-.697.426-1.058c.402-1.192.788-2.443 1.646-3.364.926-.994 2.272-1.466 3.58-1.835a34.11 34.11 0 0 1 4.074-.898c1.382-.213 2.78-.328 4.15-.608 2.705-.552 5.257-1.741 7.542-3.29 1.114-.755 2.188-1.615 2.936-2.733.098-.146.19-.297.302-.432.112-.136.246-.257.407-.328.153-.067.327-.086.49-.05s.314.125.421.253a.926.926 0 0 1 .193.433c.028.157.025.319.01.478-.058.6-.288 1.172-.595 1.69-.306.518-.688.987-1.076 1.448-1.762 2.098-3.774 4.158-6.378 5.011-2.325.763-4.842.473-7.289.422-.506-.01-1.016-.01-1.514.082-.497.091-.987.28-1.37.61-.374.32-.63.758-.81 1.215-.534 1.353-.44 2.888-.963 4.245a4.627 4.627 0 0 1-1.043 1.618 4.08 4.08 0 0 1-1.64 1.002c-.764.24-1.581.236-2.378.323-1.32.143-2.598.54-3.898.81-.432.09-.87.166-1.275.343-.202.088-.394.2-.56.346s-.305.323-.392.525c-.093.214-.126.45-.118.682.007.232.054.462.118.685.101.358.246.708.278 1.08.016.185.003.374-.058.55a.897.897 0 0 1-.321.446c-.2.14-.46.177-.7.136a1.747 1.747 0 0 1-.667-.288c-.288-.193-.541-.432-.805-.657-.264-.225-.544-.439-.866-.567a1.65 1.65 0 0 0-.583-.122c-.2-.003-.4.036-.58.122-.288.137-.509.385-.671.659s-.273.574-.393.868c-.454 1.12-1.052 2.173-1.62 3.24-.23.432-.455.868-.751 1.258-.296.389-.67.732-1.121.919-.603.248-1.281.197-1.924.303-.804.134-1.542.511-2.278.86-1.193.568-2.42 1.076-3.543 1.772-.707.439-1.367.95-1.974 1.52-.573.536-1.102 1.128-1.743 1.581-.32.227-.669.418-1.043.538-.374.12-.774.167-1.162.107-.515-.08-.99-.344-1.375-.693-.387-.35-.69-.78-.954-1.23a3.635 3.635 0 0 1-.369-.8 1.649 1.649 0 0 1-.036-.87 1.2 1.2 0 0 1 .443-.667c.22-.16.502-.236.77-.194.28.043.523.204.758.36.236.155.483.313.763.348.242.031.487-.033.711-.129.225-.096.434-.222.655-.326.192-.09.393-.163.572-.277.09-.057.173-.124.242-.205a.702.702 0 0 0 .148-.277.685.685 0 0 0 .004-.307.956.956 0 0 0-.113-.286c-.103-.178-.251-.325-.397-.47-.556-.552-1.126-1.11-1.822-1.468-.346-.178-.715-.304-1.072-.456-.357-.152-.71-.335-.986-.607-.226-.223-.4-.513-.422-.83-.01-.158.018-.32.09-.461s.189-.261.332-.33a.767.767 0 0 1 .36-.067c.124.006.246.037.36.083.23.093.429.245.629.39.43.312.878.604 1.367.81.81.342 1.704.437 2.54.708.683.222 1.349.565 2.066.557.243-.002.488-.047.71-.147.223-.1.421-.257.555-.46.176-.266.232-.593.253-.911a3.945 3.945 0 0 0-.114-1.288 2.872 2.872 0 0 0-.594-1.142c-.493-.565-1.21-.88-1.924-1.114-.484-.159-.984-.29-1.424-.548a2.148 2.148 0 0 1-.585-.487 1.468 1.468 0 0 1-.32-.686 1.275 1.275 0 0 1 .558-1.265 1.6 1.6 0 0 1 .795-.249c.28-.016.562.026.836.091.547.13 1.074.355 1.633.41.38.039.761-.002 1.141-.026.38-.023.768-.029 1.134.078.23.066.45.18.613.355.08.088.146.191.186.304.04.112.056.234.04.353-.031.225-.171.419-.322.588-.151.17-.32.327-.43.525a1.02 1.02 0 0 0-.13.482.9.9 0 0 0 .13.48c.083.135.203.245.338.327.135.083.285.139.438.178.307.079.626.094.937.153.214.041.423.103.64.124.215.02.445-.004.626-.124a.986.986 0 0 0 .3-.346c.076-.134.134-.277.206-.413.098-.187.22-.362.303-.556.042-.098.073-.2.085-.305s.003-.213-.034-.312a.732.732 0 0 0-.24-.316 1.464 1.464 0 0 0-.35-.195c-.249-.102-.516-.173-.726-.34-.188-.15-.312-.365-.418-.581-.106-.216-.198-.441-.341-.635-.209-.283-.511-.482-.76-.732a1.482 1.482 0 0 1-.384-.6.916.916 0 0 1-.038-.356.734.734 0 0 1 .119-.336.783.783 0 0 1 .321-.265c.128-.06.267-.09.407-.101.28-.023.56.026.841.043.557.032 1.117-.066 1.67 0 .314.037.623.127.939.13.158.002.318-.02.465-.078s.28-.155.368-.286a.705.705 0 0 0 .115-.348.813.813 0 0 0-.064-.36c-.112-.265-.35-.457-.603-.592-.254-.135-.53-.222-.79-.345-.57-.27-1.048-.704-1.457-1.185-.41-.48-.756-1.01-1.124-1.523-.213-.298-.437-.594-.572-.934a1.595 1.595 0 0 1-.118-.533 1.12 1.12 0 0 1 .108-.533c.082-.166.212-.306.363-.415.15-.108.321-.186.498-.243a2.453 2.453 0 0 1 1.873.152c.651.342 1.11.97 1.746 1.341.13.077.268.142.415.175a.778.778 0 0 0 .445-.023.675.675 0 0 0 .367-.351.772.772 0 0 0 .038-.51c-.043-.165-.138-.315-.258-.437s-.265-.218-.417-.297c-.304-.158-.638-.25-.944-.404-.483-.243-.878-.63-1.217-1.05-.34-.42-.631-.876-.96-1.304-.232-.301-.483-.59-.686-.91-.204-.322-.36-.684-.377-1.064a1.566 1.566 0 0 1 .233-.891c.165-.265.41-.478.696-.603s.61-.161.916-.103.593.211.813.433z" style="paint-order:fill markers stroke"/></g><g fill="none" stroke="#000" stroke-linecap="round" stroke-linejoin="round" stroke-miterlimit="1000" stroke-width="2.5"><path d="M289.64 370.63a27.37 27.37 0 0 1 2.936 5.77 27.394 27.394 0 0 1 1.663 8.58M292.68 364.15a26.103 26.103 0 0 1 4.252 7.694 26.117 26.117 0 0 1 1.429 9.617M303.19 375.91a53.985 53.985 0 0 0-8.69-20.293" style="paint-order:fill markers stroke"/></g><path fill-rule="evenodd" d="M304.8 364.78a.658.658 0 0 1-.34.327.886.886 0 0 1-.475.057c-.319-.045-.6-.23-.855-.427-.256-.196-.504-.412-.801-.536-.149-.062-.31-.1-.47-.096a.792.792 0 0 0-.452.148.792.792 0 0 0-.257.344c-.053.134-.075.28-.075.425 0 .29.082.571.148.853.065.282.114.578.046.859a.881.881 0 0 1-.195.383.654.654 0 0 1-.37.21.633.633 0 0 1-.34-.04.771.771 0 0 1-.278-.198 1.17 1.17 0 0 1-.269-.625c-.064-.456.05-.925-.028-1.38-.06-.355-.238-.682-.452-.972-.214-.291-.466-.552-.7-.826-.234-.275-.454-.569-.59-.903-.135-.335-.181-.716-.065-1.058.092-.27.282-.503.522-.658.24-.155.526-.232.81-.232.414 0 .816.158 1.159.39.342.232.63.535.899.848.269.314.523.642.811.938s.616.562.996.725c.377.161.798.219 1.153.424.177.103.337.245.432.426.048.091.079.191.086.294a.618.618 0 0 1-.05.3z" style="paint-order:fill markers stroke"/><path fill="none" stroke="#000" stroke-linecap="round" stroke-linejoin="round" stroke-miterlimit="1000" stroke-width="2.5" d="M301.81 370.52c.161.366.416.69.733.933s.697.405 1.092.466a2.42 2.42 0 0 0 1.707-.384 2.42 2.42 0 0 0 .99-1.443" style="paint-order:fill markers stroke"/><g fill-rule="evenodd"><path d="M206.71 514.27a4.71 4.71 0 0 0 .62 2.9c.617 1.043 1.62 1.81 2.698 2.365.313.16.638.31.9.542.132.117.247.254.325.412a.944.944 0 0 1 .1.51.635.635 0 0 1-.18.394.59.59 0 0 1-.337.154.808.808 0 0 1-.37-.048c-.238-.086-.432-.257-.617-.428-.59-.549-1.155-1.146-1.86-1.536-.606-.334-1.308-.512-1.826-.97a2.153 2.153 0 0 1-.716-1.646c.008-.308.083-.61.145-.91.063-.302.112-.611.07-.916-.024-.168-.076-.332-.104-.5-.03-.167-.034-.345.032-.502a.59.59 0 0 1 .63-.349.59.59 0 0 1 .49.528zM316.09 530.13c.22.17.371.414.498.662.127.248.236.507.397.734.227.32.55.564.899.744.35.179.727.297 1.105.401.168.046.339.091.485.186a.644.644 0 0 1 .187.179.457.457 0 0 1 .08.244.49.49 0 0 1-.145.34.862.862 0 0 1-.32.197c-.348.13-.739.118-1.095.013-.356-.104-.682-.295-.981-.514-.683-.5-1.245-1.144-1.79-1.79-.169-.2-.34-.407-.427-.655a.88.88 0 0 1-.05-.386.633.633 0 0 1 .155-.355.591.591 0 0 1 .226-.153.685.685 0 0 1 .27-.042.9.9 0 0 1 .506.195zM371.31 127.21c.162.123.287.287.416.445s.266.314.443.414c.21.118.456.145.693.182.119.019.238.04.352.078a.926.926 0 0 1 .315.17.89.89 0 0 1 .285.571c.027.216-.01.436-.07.645-.11.381-.304.743-.588 1.02a1.675 1.675 0 0 1-1.059.484c-.44.024-.874-.157-1.222-.429-.347-.272-.616-.631-.854-1.003-.236-.37-.448-.767-.521-1.2-.037-.216-.037-.44.011-.654s.148-.418.296-.58a1.14 1.14 0 0 1 .724-.363c.275-.026.559.053.779.22zM371.65 133.15a1.035 1.035 0 0 0 .62.856 1.035 1.035 0 0 0 1.046-.14c.192-.153.322-.367.47-.562.075-.098.155-.192.25-.27a.805.805 0 0 1 .322-.17c.159-.039.33-.014.478.056s.274.183.37.316c.194.264.271.594.33.916.102.573.154 1.183-.072 1.718-.137.323-.37.602-.66.8-.288.198-.63.315-.98.346-.663.057-1.322-.197-1.875-.568-.553-.372-1.019-.856-1.496-1.32-.242-.235-.49-.467-.68-.746-.19-.278-.32-.61-.298-.946a1.13 1.13 0 0 1 .301-.689 1.13 1.13 0 0 1 .67-.343 1.13 1.13 0 0 1 .735.158c.217.135.386.346.469.588zM379.26 131.61c.733.009 1.438.255 2.138.473s1.431.411 2.157.312c.465-.063.914-.248 1.281-.54s.65-.692.795-1.138a2.333 2.333 0 0 0-.573-2.363c-.458-.46-1.093-.715-1.735-.812-.643-.097-1.298-.047-1.943.032-.645.078-1.289.184-1.938.198-.65.014-1.314-.068-1.9-.348-.57-.273-1.041-.72-1.432-1.217-.797-1.015-1.28-2.234-1.75-3.436-.14-.36-.282-.725-.316-1.11a1.646 1.646 0 0 1 .043-.574 1.18 1.18 0 0 1 .273-.503c.22-.233.545-.353.865-.357.32-.004.636.1.914.26.555.32.955.845 1.403 1.303.891.912 2.002 1.579 3.142 2.15 1.14.57 2.323 1.055 3.444 1.663 1.744.945 3.318 2.176 4.796 3.5.48.428.957.877 1.271 1.439.157.28.271.588.312.907.042.318.008.65-.115.946-.176.42-.524.75-.916.979s-.83.367-1.268.493c-1.54.44-3.125.74-4.724.843-1.144.073-2.291.046-3.436 0-.598-.024-1.213-.057-1.754-.313a1.84 1.84 0 0 1-.696-.553 1.326 1.326 0 0 1-.27-.836c.01-.22.083-.436.202-.621.118-.185.282-.34.467-.46.371-.236.823-.322 1.263-.317zM362.01 138.87a1.604 1.604 0 0 1 .684 1.58c-.045.294-.17.57-.332.82-.162.248-.36.47-.567.684-.21.217-.431.43-.7.566a1.26 1.26 0 0 1-.43.133.928.928 0 0 1-.445-.055.925.925 0 0 1-.342-.244 1.24 1.24 0 0 1-.22-.359c-.107-.261-.138-.547-.154-.829-.023-.422-.015-.852.1-1.26.113-.407.341-.794.688-1.036a1.5 1.5 0 0 1 .858-.267c.305.001.608.097.86.267zM366.66 135.13c.324.094.623.28.842.537s.357.584.375.92c.02.378-.11.76-.346 1.054a1.783 1.783 0 0 1-2.237.423 1.632 1.632 0 0 1-.782-1.039 1.59 1.59 0 0 1 .123-1.038c.155-.32.42-.585.736-.745.394-.2.865-.235 1.289-.112zM366.18 141.02c.286.333.436.775.43 1.213a2.09 2.09 0 0 1-.43 1.22 1.784 1.784 0 0 1-.754.595c-.302.118-.65.132-.948.006a1.213 1.213 0 0 1-.44-.325 1.524 1.524 0 0 1-.275-.475c-.126-.345-.14-.722-.106-1.088.028-.302.09-.603.22-.876a1.45 1.45 0 0 1 .6-.661 1.29 1.29 0 0 1 .917-.105c.306.077.58.258.786.496z" style="paint-order:fill markers stroke"/><path d="M358.75 148.83c-.238-.238-.398-.554-.45-.887s.003-.682.157-.981c.154-.3.405-.55.706-.701.3-.152.65-.206.983-.151.453.074.848.335 1.252.554.201.11.41.21.63.27.222.062.457.084.681.035.346-.076.634-.31.899-.544.265-.234.533-.483.867-.602.36-.128.762-.089 1.123.036s.688.33 1.01.537c.348.225.696.456 1.072.633.375.177.784.3 1.2.298.392-.003.78-.12 1.121-.312.342-.192.64-.459.889-.762.483-.59.79-1.342.761-2.103-.025-.674-.314-1.326-.761-1.83a3.319 3.319 0 0 0-1.416-.935c-.3-.1-.613-.159-.905-.28a1.567 1.567 0 0 1-.407-.24.99.99 0 0 1-.283-.374.876.876 0 0 1 .028-.713c.11-.22.31-.39.543-.469.165-.056.343-.066.516-.047.173.019.342.066.506.125.328.117.642.279.982.352.638.137 1.296-.049 1.948-.07.326-.011.66.02.959.15.15.065.29.154.407.267.117.113.211.252.267.405.055.153.072.319.066.482a3.143 3.143 0 0 1-.066.484c-.087.446-.198.888-.258 1.339-.06.45-.069.915.05 1.354.17.638.59 1.174.922 1.745.45.773.75 1.633.875 2.519M379.1 147.4a26.109 26.109 0 0 0-.622-1.65c-.143-.344-.294-.686-.397-1.044-.104-.358-.158-.735-.104-1.104.057-.388.231-.75.436-1.085.204-.336.44-.651.637-.99.152-.262.281-.54.335-.838.054-.297.026-.616-.12-.88a1.207 1.207 0 0 0-.687-.549 1.583 1.583 0 0 0-.888-.009c-.351.094-.667.286-1 .43-.167.072-.34.132-.52.16a1.17 1.17 0 0 1-.54-.032 1.103 1.103 0 0 1-.583-.475 1.592 1.592 0 0 1-.22-.728 1.671 1.671 0 0 1 .241-1.021c.097-.15.223-.28.372-.379a1.13 1.13 0 0 1 .496-.181c.234-.025.47.028.69.113.22.085.425.202.635.308.465.237.956.429 1.467.537 1.335.283 2.716-.012 4.045-.322.66-.154 1.326-.314 1.941-.6.615-.288 1.184-.713 1.53-1.297.336-.565.442-1.233.684-1.844.121-.305.28-.6.504-.84s.523-.419.848-.462c.285-.038.579.03.828.174.248.143.452.358.6.604.295.492.363 1.089.346 1.662-.038 1.303-.485 2.571-1.14 3.698-.655 1.126-1.515 2.121-2.427 3.052a31.601 31.601 0 0 1-7.387 5.592z" style="paint-order:fill markers stroke"/></g><path fill="none" stroke="#000" stroke-linecap="round" stroke-linejoin="round" stroke-miterlimit="1000" stroke-width="2.498" d="M389.8 100.76a11.283 11.283 0 0 0-1.5-4.283 11.32 11.32 0 0 0-4.757-4.346" style="paint-order:fill markers stroke"/><path fill-rule="evenodd" d="M307.24 109.64c.219-.085.46-.11.692-.084.234.026.46.1.67.207.419.212.764.544 1.081.89 1.152 1.253 2.016 2.737 2.886 4.2.297.501.601 1.013.71 1.585.055.286.059.584-.013.866a1.428 1.428 0 0 1-.444.735 1.37 1.37 0 0 1-.783.312 1.692 1.692 0 0 1-.832-.16c-.518-.241-.905-.705-1.17-1.211-.427-.819-.581-1.774-1.11-2.531-.402-.578-.99-.995-1.511-1.47-.26-.237-.508-.493-.702-.786s-.336-.628-.371-.979a1.624 1.624 0 0 1 .184-.94c.157-.285.41-.517.713-.634z" style="paint-order:fill markers stroke"/><g fill-rule="evenodd"><path d="M426.5 112.52a18.789 18.789 0 0 1-4.427 2.655c-1.74.74-3.652 1.22-5.521.936-.471-.071-.936-.19-1.412-.212-.238-.01-.478.004-.71.061s-.453.157-.638.306c-.297.24-.486.602-.534.98a1.8 1.8 0 0 0 .227 1.102c.187.332.47.606.797.803.327.196.697.316 1.074.373.754.112 1.524-.027 2.26-.227.736-.2 1.457-.462 2.207-.601a6.997 6.997 0 0 1 4.325.593M325.71 119.25a7.454 7.454 0 0 0 3.157 1.869c1.23.36 2.526.395 3.794.573.417.058.848.138 1.193.38.172.121.32.282.407.474.087.192.11.416.047.617a.917.917 0 0 1-.31.431c-.141.112-.307.19-.478.245-.389.127-.805.145-1.213.122-.409-.024-.813-.088-1.22-.122a8.413 8.413 0 0 0-4.493.881M324.09 131.51a8.683 8.683 0 0 0 3.49 2.215c1.387.465 2.944.563 4.295 0 .339-.142.66-.322 1.001-.46.341-.136.71-.23 1.075-.185.228.029.452.113.626.263.174.15.295.367.304.596a.847.847 0 0 1-.1.425c-.068.13-.166.244-.277.34-.223.192-.497.311-.768.426-.958.407-1.925.793-2.863 1.243a22.78 22.78 0 0 0-4.44 2.804M330.02 151.05c.886.094 1.79.008 2.642-.253 1.378-.422 2.595-1.294 3.543-2.38.797-.911 1.434-1.993 2.43-2.682.272-.188.576-.347.906-.375.164-.014.333.006.486.068.153.062.29.168.38.307a.819.819 0 0 1 .12.342c.016.12.007.244-.019.363-.052.239-.171.457-.304.662-.675 1.044-1.702 1.805-2.53 2.733a9.05 9.05 0 0 0-2.279 5.872M341.73 164.3c.477.15.994.168 1.481.053a2.828 2.828 0 0 0 1.303-.707c.346-.331.602-.746.816-1.175.214-.428.39-.875.601-1.305.392-.8.9-1.536 1.338-2.311s.81-1.61.89-2.498c.03-.337.018-.68.102-1.009a1.31 1.31 0 0 1 .208-.459.86.86 0 0 1 .398-.303c.187-.066.396-.052.58.017s.348.192.483.337c.275.294.44.68.512 1.075.071.397.053.805-.006 1.203-.168 1.131-.656 2.19-1.215 3.189-.403.72-.85 1.43-1.063 2.227a4.118 4.118 0 0 0 .733 3.548M358.75 170.1a4.295 4.295 0 0 0 2.109-1.642c.454-.678.704-1.473.86-2.273.332-1.695.249-3.513-.506-5.067-.237-.49-.543-.962-.624-1.5-.04-.269-.02-.552.092-.8s.322-.456.583-.534c.202-.061.424-.04.623.03s.378.19.541.324c.461.38.804.892 1.03 1.445s.34 1.148.387 1.744c.117 1.449-.145 2.907-.05 4.358.054.834.237 1.684.709 2.374.317.465.76.844 1.268 1.085s1.081.346 1.642.299M377.51 169.67a4.63 4.63 0 0 0 1.46-2.235 5.04 5.04 0 0 0 .143-2.076c-.138-1.032-.58-2.029-1.288-2.792-.298-.32-.642-.602-.885-.965a1.623 1.623 0 0 1-.258-.598 1.06 1.06 0 0 1 .07-.641 1.01 1.01 0 0 1 .478-.471c.205-.1.439-.134.667-.117.478.037.918.298 1.248.646s.56.778.756 1.216c.653 1.465.95 3.067 1.575 4.545.315.746.719 1.466 1.288 2.04a4.506 4.506 0 0 0 2.339 1.246M393.29 163.57a5.444 5.444 0 0 0 .286-3.207c-.285-1.316-1.046-2.471-1.79-3.594-.837-1.264-1.693-2.582-1.932-4.08-.047-.295-.069-.6.006-.89a1.16 1.16 0 0 1 .188-.404c.09-.12.207-.22.343-.28.18-.082.39-.091.582-.044.192.047.368.15.517.28.298.26.483.624.655.98.479.99.917 2.004 1.503 2.935 1.008 1.6 2.425 2.909 3.436 4.506.426.672.78 1.396 1.289 2.008a5.003 5.003 0 0 0 2.147 1.504M414.55 152.76a2917.61 2917.61 0 0 1-4.592-3.388c-1.28-.947-2.58-1.914-3.537-3.189-.24-.321-.464-.677-.51-1.076-.022-.2.002-.407.088-.589a.816.816 0 0 1 .422-.41.833.833 0 0 1 .49-.032c.163.036.314.114.448.212.269.197.466.472.676.73a8.67 8.67 0 0 0 2.986 2.33c.88.42 1.822.703 2.784.86 1.162.19 2.353.196 3.517.019M426.61 95.639a20.915 20.915 0 0 1-4.69 3.364 22.546 22.546 0 0 1-3.843 1.574c-2.394.738-4.893 1.105-7.395 1.217-.5.023-1.013.038-1.48.22a1.715 1.715 0 0 0-.625.407 1.214 1.214 0 0 0-.33.662c-.04.302.055.613.23.862.176.249.427.438.702.57.394.19.835.266 1.273.273.437.007.873-.055 1.304-.13 2.894-.505 5.732-1.645 8.662-1.432a9.546 9.546 0 0 1 4.326 1.408M416.85 79.085a9.562 9.562 0 0 1-2.008 2.952c-1.359 1.358-3.109 2.28-4.94 2.863-1.137.363-2.31.6-3.475.86-.422.093-.857.195-1.206.451a1.284 1.284 0 0 0-.414.49.925.925 0 0 0-.059.633c.046.16.142.304.265.417.122.113.27.196.427.252.314.113.654.12.987.119 2.643-.017 5.3-.609 7.628-1.862a14.46 14.46 0 0 0 5.577-5.372M403.74 65.075a6.974 6.974 0 0 1-.422 3.075c-.554 1.466-1.595 2.71-2.791 3.723-1.093.925-2.322 1.677-3.437 2.577-.287.232-.574.482-.742.81-.085.165-.137.347-.138.532s.054.371.165.519a.855.855 0 0 0 .33.26c.13.058.27.088.411.096.283.015.563-.056.833-.141 1.682-.53 3.15-1.59 4.439-2.792a21.527 21.527 0 0 0 5.246-7.64M392.36 56.481a27.372 27.372 0 0 1-1.718 3.508 35.26 35.26 0 0 1-2.362 3.507c-.653.864-1.335 1.708-1.895 2.634-.56.926-.999 1.946-1.112 3.022-.022.214-.032.432.006.644.038.213.127.42.28.573.104.104.236.18.376.225.14.044.29.06.437.05.295-.02.576-.132.834-.275.645-.358 1.17-.901 1.61-1.494.439-.593.798-1.24 1.181-1.87 1.161-1.912 2.542-3.682 4.01-5.37a62.915 62.915 0 0 1 2.863-3.078M375.59 48.898a122.835 122.835 0 0 1-1.266 5.112c-.727 2.692-1.547 5.358-2.277 8.049-.167.615-.33 1.234-.389 1.869-.059.634-.009 1.289.237 1.877.102.243.24.477.438.652.1.087.213.16.337.205a.871.871 0 0 0 .39.054c.242-.024.463-.162.629-.341.165-.18.281-.399.382-.62.688-1.51.761-3.214.962-4.86.303-2.483.928-4.94 2.025-7.188.665-1.362 1.5-2.64 2.48-3.797M357.67 47.075a21.356 21.356 0 0 1 1.012 5.264c.128 1.99-.024 3.984-.151 5.973-.124 1.926-.223 3.878.151 5.77.084.424.197.856.454 1.203.129.173.293.322.487.419.193.096.416.137.629.1.15-.027.293-.092.417-.182s.229-.206.314-.333c.171-.254.264-.553.332-.852.41-1.823-.045-3.711-.254-5.568-.265-2.36-.125-4.76.355-7.087.28-1.358.676-2.693 1.182-3.984M344.61 47.885a19.226 19.226 0 0 0-.607 3.898c-.125 2.402.202 4.801.506 7.187.075.59.157 1.205.489 1.7.165.247.393.457.668.572.274.115.596.128.868.006.146-.065.274-.167.376-.29.103-.123.179-.267.23-.418.155-.45.09-.947-.05-1.4-.142-.454-.356-.881-.506-1.332-.276-.83-.329-1.722-.252-2.593.077-.872.28-1.727.505-2.572a48.236 48.236 0 0 1 1.164-3.746M327.98 50.822c.02.88.306 1.753.812 2.474.498.71 1.189 1.258 1.892 1.765.702.507 1.432.988 2.045 1.6.267.265.519.56.856.728.169.083.358.132.545.118a.728.728 0 0 0 .496-.238.772.772 0 0 0 .172-.488c.004-.176-.04-.35-.1-.515-.221-.607-.665-1.104-1.002-1.656a5.276 5.276 0 0 1-.507-4.317M328.36 60.705c.907.214 1.654.854 2.277 1.547.623.694 1.167 1.465 1.875 2.072.86.738 1.926 1.199 3.01 1.532s2.2.55 3.29.864c.4.115.803.245 1.162.458.36.213.678.516.842.9.118.277.151.589.09.883-.062.294-.22.568-.448.764-.246.212-.565.329-.888.36-.323.03-.65-.024-.959-.124-.617-.2-1.158-.578-1.732-.88-.884-.467-1.849-.757-2.795-1.08-.946-.322-1.894-.687-2.698-1.281-1.3-.961-2.13-2.448-3.409-3.438-.329-.255-.69-.478-.96-.794a1.506 1.506 0 0 1-.306-.54 1.01 1.01 0 0 1 .002-.613.943.943 0 0 1 .27-.395c.121-.107.267-.184.42-.232.308-.097.643-.077.957-.003z" style="paint-order:fill markers stroke"/></g><path fill-rule="evenodd" d="M113.43 228.57c.095.31.269.597.501.823.202.197.445.348.666.524.22.176.427.39.515.657a.9.9 0 0 1-.009.592.847.847 0 0 1-.385.446.89.89 0 0 1-.444.103 1.084 1.084 0 0 1-.444-.111c-.276-.135-.493-.372-.65-.636-.265-.44-.384-.968-.717-1.36-.153-.181-.35-.33-.467-.536a.622.622 0 0 1-.087-.34.442.442 0 0 1 .045-.171.366.366 0 0 1 .319-.201.65.65 0 0 1 .214.024c.139.038.268.107.406.15.173.054.358.067.537.036zM141.28 275.87c.914.444 1.86.859 2.632 1.519.513.437.935.971 1.32 1.525.084.12.167.242.224.377a.776.776 0 0 1 .063.428.583.583 0 0 1-.376.447.732.732 0 0 1-.54-.044 1.598 1.598 0 0 1-.444-.331c-.318-.316-.582-.683-.913-.985-.323-.295-.702-.52-1.068-.76-.365-.24-.726-.502-.99-.85-.187-.247-.321-.531-.519-.77-.053-.064-.11-.124-.153-.194a.365.365 0 0 1-.062-.235.3.3 0 0 1 .129-.201.418.418 0 0 1 .232-.07c.164-.002.318.072.465.144z" style="paint-order:fill markers stroke"/><path fill="none" stroke="#000" stroke-linecap="round" stroke-linejoin="round" stroke-miterlimit="1000" stroke-width="2.498" d="M368.5 99.604a33.876 33.876 0 0 1 11.868-.243" style="paint-order:fill markers stroke"/><path fill-rule="evenodd" stroke="#000" stroke-linecap="round" stroke-linejoin="round" stroke-miterlimit="1000" stroke-width=".089" d="M383.64 91.906c-.691.132-1.222.657-1.543 1.26-.788 1.29-1.865 2.412-3.152 3.21-.847.537-1.143 1.746-.644 2.615.345.665 1.077 1.03 1.805 1.077 1.685.18 3.413.362 5.065.604.872.116 1.776.289 2.66.439.994.126 2.025-.569 2.226-1.561.214-.806-.22-1.57-.524-2.29-.962-2.107-2.548-3.939-4.528-5.147a2.118 2.118 0 0 0-1.365-.207z" style="paint-order:fill markers stroke"/></svg>