<?xml version="1.0" encoding="UTF-8"?>
<svg width="137.58mm" height="169.5mm" version="1.1" viewBox="0 0 137.58 169.5" xml:space="preserve" xmlns="http://www.w3.org/2000/svg"><g transform="translate(35.954 -7.1959)"><path d="m98.609 80.486 0.37816-70.082h-132.3l0.37838 70.082c0.91638 37.43 20.549 73.315 65.769 92.906 45.224-19.592 64.853-55.476 65.769-92.906z" fill="#fcdb00" stroke-width="2.205"/><g fill="#fff" fill-rule="evenodd" stroke="#000" stroke-linecap="round" stroke-linejoin="round" stroke-width=".52917"><path d="m2.6153 54.27c-0.20334 0.63184-0.25899 1.3107-0.16125 1.9672 0.14894 1.0004 0.66084 1.9428 1.419 2.6122 0.00138-0.45879 0.11595-0.91683 0.33073-1.3222 0.37164-0.70152 1.0134-1.2113 1.6043-1.7415 0.37786-0.33907 0.74128-0.69425 1.0889-1.0642" style="paint-order:markers fill stroke"/><path d="m9.0893 55.136c-0.38966 0.60266-0.57024 1.3378-0.50418 2.0524 0.058021 0.6277 0.30463 1.2367 0.69967 1.728 0.39504 0.49124 0.937 0.86277 1.5376 1.0541-0.06191-0.47596-0.06958-0.95896-0.02281-1.4367 0.12403-1.2667 0.64006-2.4923 1.4595-3.4662" style="paint-order:markers fill stroke"/></g><g><path transform="scale(.26458)" d="m197.66 72.512c-5.9198 5.2579-12.128 13.761-13.494 22.012-0.18929-0.64641-0.3208-1.1803-0.35351-1.5215-0.12139-0.47102-1.5018 7.2789-1.9453 7.4824-0.9975 1.5085-1.6451 3.2527-2.5234 4.8457-1.4931 3.0177-3.3279 5.8595-5.0391 8.7637-0.0762 0.21468-0.47195 0.89291-0.96875 1.7227-10.476-0.3423-21.046 1.8023-30.834 5.5605-21.305 7.5858-44.144 14.846-66.861 9.5176-3.5708 4e-3 -3.293 5.2552-3.4355 7.7754 0.39356 4.0977-6.7331 3.3159-9.6133 5.2891-16.827 5.3256-32.602 13.504-49.551 18.4-8.3671 2.7277-17.649-0.2754-25.744 3.4336-7.428 3.8612-9.444 14.979-3.4023 20.947 5.0911 3.8737 0.44468 10.421 3.2734 15.248 3.117 6.4923 11.627 4.818 17.465 5.2266 14.559 0.50128 29.152 3.002 43.76 1.0742 16.084-1.3195 32.773-3.7565 48.541 0.90234 7.8742 2.5821 16.145 9.0014 15.734 18.086-2.7969-0.0359-5.8337-2.8528-8.7402-3.7285-9.8365-3.7202-21.189-4.3487-31.238-1.0606-14.452 5.9008-26.577 16.213-40.375 23.295-8.5461 4.9876-16.993 12.017-18.871 22.289-2.4158 6.941 2.7788 14.887 10.15 15.369 12.641 1.0053 23.292-7.4975 34.723-11.475 8.4216-3.798 18.077-4.6432 26.441-0.22461 6.4305 2.7662 12.417 7.4215 19.674 7.4082-4.4669 11.007-10.283 21.758-16.494 31.963-4.7664 7.907-12.471 17.545-28.463 15.197-2.0261 2e-3 2.265 5.7596 3.848 9.0958 5.5455 4.2393 6.7538 4.8767 12.983 6.3521 5.4349 0.63276 11.174-0.37966 16.453 0.6914-5.9049 12.425-16.643 21.88-28.264 28.871-18.826 11.654-39.419 24.049-48.998 45.006-9.1787 21.738-12.958 45.179-18.07 68.059-1.5362 7.3842-7.2401 12.985-13.25 16.834 3.0401 1.7018 7.7345 0.96222 11.459 1.3164 25.804 0.27434 48.829-14.412 67.035-31.471 12.019-11.067 23.142-23.362 30.762-37.926 1.3127-2.4433 1.1272 1.9121 1.1387 3.0293-0.09862 11.577-6.9322 21.871-7.625 33.342-4.185 7.0951 2.3735 17.156 7.1569 23.653 0.44292-17.745 12.082-31.162 22.699-41.495 3.1009-2.701 6.1626-5.7156 10.008-7.3164-4.7548 13.942-10.356 27.979-10.494 42.949-0.45899 16.752 1.9974 36.675 7.801 52.424 1.8917-1.9241 3.5641-4.7376 4.3318-6.1738 4.1491-8.6209 3.827-19.012 10.359-26.502 10.506-13.163 26.831-19.144 40.641-28.029 20.121-11.267 37.773-28.972 44.576-51.455 4.7073-14.324 4.5298-29.802 1.2832-44.41-0.85347-2.8844 2.963-3e-3 4.1348 0.16602 10.197 4.3178 19.093 13.293 30.92 12.357 15.704 0.13081 33.395-4.5616 42.672-18.213 1.2032-2.5038 5.0102-7.1206 4.1467-9.9569-4.1724 0.36882-10.057 1.621-13.899-0.80094-10.475-5.9402-15.322-17.899-18.699-28.859-2.6075-8.7246-4.8345-17.674-7.2207-26.389 8.2154 8.3654 14.071 20.002 25.371 24.783 1.3631 0.7359 7.3919 2.0093 5.9345-0.72348-9.9907-12.373-18.524-27.896-21.364-43.585-2.1448-13.218-4.1887-26.892-4.793-40.033 2.9317 3.3875 9.8017 8.08 14.299 8.8202-2.3623-3.8618-4.3323-6.2884-4.717-8.6503-3.7368-11.717-4.2024-24.591-10.91-35.268-4.5035-8.0175-11.098-14.744-18.221-20.334 8.6526-8.1711 16.634-17.924 18.773-29.977 3.0713-11.561 0.2977-23.494-3.6133-34.471-4.4599-12.932-8.7643-26.209-8.7676-40.014-0.61374-4.8983 0.81093-9.9815-0.24218-14.775-2.711-0.76274-5.2076 2.6366-7.6016 3.6914-12.255 7.5784-20.184 19.946-26.801 32.391-2.9273 4.7739-5.832 10.388-9.377 14.305-2.2891-4.2128-0.60205-9.5678-1.0625-14.195 0.71289-6.6722-1.7642-13.112-6.0879-18.135-5.848-9.3749-10.043-13.184-10.521-22.777zm-9.3623 39.911s4.767 1.0675 4.4497 0.51828c3.2905 1.7036 1.9422 1.0741 1.7912 0.78145 1.511 0.70339 1.1568 2.3172 2.9241 2.3752 3.316 0.33266 7.9378 3.672 5.6367 7.1953-4.8267-0.21246-8.8865-3.9679-13.678-4.8144-2.6808-0.85695-5.4085-1.4286-8.1504-1.877 0.22638-1.423 2.1933-2.5116 2.4989-2.7405 2.168-0.84643 2.6097-1.1003 4.5275-1.4383z" fill-rule="evenodd" style="paint-order:markers fill stroke"/><path d="m45.764 30.514c0.65186-0.82013 1.2179-1.7084 1.6859-2.6457 0.51779-1.037 0.91541-2.134 1.1824-3.262m2.838 5.4825c-0.75382-0.41679-1.6985-0.46988-2.4943-0.14019-0.41067 0.17014-0.78091 0.43695-1.0722 0.77269m33.369 66.515c-0.23691 1.3013-0.80752 2.5405-1.6423 3.5665-0.97316 1.1961-2.2864 2.0877-3.702 2.6992-1.4156 0.61142-2.9346 0.95328-4.4615 1.1685-1.7334 0.24429-3.5378 0.32313-5.1993-0.22804-1.6951-0.56231-3.1112-1.7339-4.6976-2.5541-0.64285-0.33235-1.3153-0.60743-2.0068-0.82094m11.256-18.702c0.32565 1.1391 0.63525 2.2829 0.92866 3.4307 0.78521 3.0718 1.495 6.2648 3.3444 8.8401 0.47355 0.65942 1.0201 1.2722 1.6649 1.7654 0.64482 0.49326 1.3915 0.86481 2.189 1.0167 0.7731 0.14723 1.5853 0.08352 2.326-0.18243m-1.9069-8.098c-0.53968 0.11854-1.1051 0.11854-1.6447 0-0.68668-0.15083-1.3219-0.48937-1.8843-0.91122s-1.0571-0.92657-1.5342-1.443c-1.2738-1.379-2.4395-2.8577-3.483-4.4182m1.1932-15.706c0.1288 0.8607 0.24707 1.723 0.35475 2.5866 0.52288 4.1934 0.8097 8.4771 2.2897 12.435 1.0368 2.7728 2.6506 5.3283 4.7085 7.4563m-3.483-20.156c-0.47498-0.0577-0.9424-0.17728-1.3867-0.35475-0.99456-0.39724-1.869-1.0899-2.4832-1.9672m-5.0955-14.706c1.3235 0.89214 2.5126 1.9831 3.5152 3.225 1.5078 1.8676 2.5888 4.0788 3.1282 6.4177 0.34798 1.5088 0.47413 3.0691 0.93524 4.5472 0.31476 1.009 0.78415 1.9696 1.3867 2.838m-7.0155-49.006c-0.09325 0.81811-0.15412 1.6399-0.18243 2.4628-0.09616 2.7951 0.18726 5.6122 0.95777 8.3007 0.80301 2.8019 2.1312 5.4645 2.5637 8.3469 0.44426 2.9605-0.11099 6.0669-1.5802 8.6752-0.92256 1.6378-2.1957 3.077-3.7087 4.1925m-9.9652-18.221c0.44171-0.56732 0.85659-1.1555 1.2428-1.762 1.2751-2.0023 2.2351-4.1991 3.603-6.1392 1.784-2.5302 4.2512-4.5739 7.0693-5.8557m-16.462-1.0135c-0.04874 0.6941 0.02812 1.3968 0.22575 2.064 0.46471 1.5687 1.5564 2.8586 2.5477 4.1602 0.62501 0.8206 1.2305 1.6854 1.5157 2.6767 0.3175 1.1034 0.21495 2.2802 0.0645 3.4185-0.05377 0.40678-0.11346 0.81551-0.09675 1.2255 0.0172 0.42203 0.11633 0.84058 0.29025 1.2255m-3.3862-1.032c0.14406-0.10791 0.25077-0.26474 0.29825-0.43836 0.04748-0.17362 0.03543-0.36293-0.03367-0.52913-0.0688-0.16549-0.19078-0.30454-0.32974-0.41772-0.13895-0.11319-0.29533-0.20269-0.45084-0.29177-0.53116-0.30426-1.0617-0.61002-1.5802-0.93524-0.92755-0.58168-1.8412-1.2515-2.4088-2.1877-0.59104-0.97486-0.75077-2.201-0.42922-3.2947m0 0c0.25493-1.3357 0.94277-2.5853 1.935-3.5152 0.32775-0.30716 0.68735-0.58023 0.99974-0.903 0.34588-0.35736 0.63071-0.77365 0.83849-1.2255m-32.766 15.48c1.2982 0.32649 2.6294 0.52131 3.9667 0.5805 3.9782 0.17606 7.9157-0.84581 11.674-2.1607 2.1395-0.74848 4.2574-1.598 6.4822-2.0317 2.4676-0.48109 5.0397-0.43519 7.482 0.16125 1.5096 0.36866 2.9681 0.94555 4.3215 1.7092m-34.443 4.4827c-0.07649-0.2509-0.11998-0.51185-0.129-0.774-0.02422-0.70407 0.20861-1.4142 0.645-1.9672m10.051 25.76c0.06725-0.45564 0.03592-0.92557-0.09122-1.3682-0.26818-0.93375-0.94664-1.7048-1.7292-2.2804-1.3201-0.97095-2.943-1.4518-4.5647-1.6875-3.5317-0.51332-7.1168 0.05716-10.672 0.36486-2.002 0.17326-4.0181 0.2629-6.0203 0.09122-1.5519-0.13308-3.0944-0.42292-4.652-0.41048-0.97377 0.007776-1.9491 0.1338-2.9189 0.045609-0.41352-0.037604-0.826-0.11487-1.2126-0.26648s-0.74737-0.38007-1.0222-0.6913c-0.26275-0.29749-0.44161-0.66552-0.53031-1.0524-0.088697-0.38687-0.088583-0.79201-0.01699-1.1824 0.039508-0.21544 0.10041-0.4266 0.13718-0.64253 0.036764-0.21592 0.048718-0.44053-0.00929-0.65174-0.059608-0.21703-0.18993-0.40837-0.33825-0.57766-0.14832-0.16929-0.31612-0.32048-0.46799-0.48658-0.46615-0.50983-0.77505-1.1604-0.88118-1.8431-0.10613-0.68262-0.00986-1.3946 0.26843-2.0269 0.46379-1.0537 1.4366-1.8594 2.5477-2.1607 1.1566-0.31366 2.3816-0.10412 3.5797-0.129 2.1852-0.04538 4.2699-0.87182 6.2887-1.7092 2.7774-1.1521 5.5397-2.349 8.3849-3.3217 1.107-0.37847 2.2257-0.72268 3.354-1.032m-15.577 33.379c0.24936-0.99302 0.70618-1.9334 1.3326-2.7433 0.85645-1.1073 2.0081-1.9516 3.2114-2.667 1.2033-0.71535 2.4717-1.3161 3.6754-2.0307 2.3384-1.3881 4.4436-3.2103 6.978-4.1959 3.5628-1.3856 7.7978-0.89153 10.946 1.277m-2.085 13.682c-0.46352 0.04012-0.93328 0.0073-1.3867-0.09675-0.76164-0.17484-1.463-0.54533-2.1371-0.94068-0.67406-0.39535-1.3346-0.8213-2.0554-1.1233-1.0731-0.44962-2.2589-0.61053-3.4185-0.516-2.1383 0.17431-4.1059 1.1809-6.0307 2.1285-1.4391 0.70848-2.9086 1.4007-4.4827 1.7092-0.92108 0.18052-1.9026 0.22098-2.7735-0.129-0.8112-0.32598-1.4797-0.99132-1.8096-1.8009-0.32985-0.80963-0.31661-1.7527 0.035833-2.5528m12.187 15.774c1.1855 0.31578 2.4763 0.22099 3.603-0.26458 0.95016-0.40949 1.7703-1.0816 2.4579-1.8547s1.2504-1.648 1.7836-2.5347c0.63365-1.0537 1.2297-2.1297 1.8012-3.2184 0.78893-1.503 1.5312-3.0304 2.2252-4.5795m-3.0687 16.602c-1.2133 0.244-2.4662 0.2904-3.6943 0.13682-0.9078-0.11353-1.81-0.33891-2.6227-0.75892-0.81277-0.42-1.5343-1.0439-1.9837-1.8407-0.29071-0.51547-0.46358-1.0969-0.50169-1.6875m-20.797 46.383c1.3877-0.39988 2.6233-1.3069 3.4206-2.511 1.084-1.6371 1.3191-3.6704 1.6419-5.6072 0.45908-2.7549 1.1512-5.465 1.8699-8.1638 0.70641-2.6527 1.453-5.3317 2.8277-7.7078 2.2545-3.8968 6.0155-6.6737 9.8514-9.0304 2.1846-1.3422 4.4486-2.6012 6.3395-4.3328 1.5067-1.3798 2.7515-3.0446 3.6486-4.8801m0.35968 23.904c-0.86769 1.6963-1.8833 3.3169-3.0315 4.8375-2.0434 2.706-4.4974 5.0833-7.1272 7.224-2.975 2.4216-6.2415 4.5794-9.9037 5.7208-3.1866 0.99323-6.6202 1.1831-9.897 0.54729m29.959-2.2369c-1.0164-1.0258-1.7214-2.3562-1.9995-3.7732-0.26331-1.3418-0.1477-2.7394 0.1935-4.0635 0.41482-1.6098 1.1552-3.1235 1.5401-4.7407 0.27321-1.1479 0.36331-2.3393 0.26586-3.5152m8.6429 3.225c-0.51738 0.27552-1.0149 0.58834-1.4874 0.93524-1.7106 1.2559-3.0625 2.9328-4.3176 4.644-0.83202 1.1344-1.6379 2.3059-2.1607 3.612-0.46621 1.1645-0.69791 2.4223-0.67725 3.6765m7.941 12.319c-0.34598-1.0654-0.66042-2.141-0.94278-3.225-1.0622-4.0779-1.6693-8.3338-1.1287-12.513 0.34069-2.6342 1.1308-5.1915 2.0715-7.6754 0.22521-0.59467 0.45923-1.186 0.70196-1.7737m26.024-16.547c0.92642 3.2501 1.0528 6.725 0.36487 10.034-0.98337 4.7299-3.6375 9.0695-7.2973 12.223-3.0796 2.6535-6.782 4.4525-10.307 6.4764-1.5357 0.88162-3.0565 1.8195-4.3468 3.0322s-2.3482 2.7272-2.768 4.4475c-0.18747 0.76805-0.24572 1.5637-0.44417 2.329-0.31644 1.2203-0.995 2.3443-1.9274 3.1927" fill="none" stroke="#000" stroke-linecap="round" stroke-width=".52917" style="paint-order:markers fill stroke"/></g><path d="m23.035 59.892c-2.4295 0.35709-4.7497 1.3277-6.798 2.6821-3.655 2.4168-6.4599 6.0215-10.307 8.1182-3.5777 1.9497-7.7865 2.4334-11.858 2.2804-2.0094-0.07552-4.0284-0.29995-5.9446-0.90923-1.9163-0.60929-3.734-1.6218-5.0925-3.1043-0.30808-0.33621-0.59146-0.69494-0.91015-1.0211s-0.67796-0.62243-1.0966-0.80321c-0.66495-0.28715-1.4605-0.25256-2.098 0.09122 0.15649-1.0345 0.56716-2.0296 1.1858-2.8733 0.69352-0.94586 1.6427-1.6953 2.7046-2.1931s2.2342-0.74704 3.4068-0.77141c3.051-0.06341 5.9083 1.3471 8.7111 2.5541 1.624 0.69933 3.3014 1.3469 5.0625 1.5051 2.0414 0.18333 4.1022-0.30662 5.9747-1.1402 3.2305-1.4382 5.9434-3.8626 9.1672-5.3156 3.1064-1.4002 6.5855-1.8415 9.9882-1.6624 1.5744 0.08287 3.1813 0.30694 4.5723 1.049 0.17165 0.09157 0.34053 0.19158 0.48563 0.32117 0.1451 0.1296 0.26625 0.29114 0.32384 0.47697 0.08156 0.26319 0.02567 0.56097-0.13014 0.78822-0.18748 0.27342-0.51736 0.44307-0.84881 0.43652-2.0917-0.65227-4.3306-0.82765-6.4983-0.50904z" fill="#f00000" fill-rule="evenodd" stroke="#000" stroke-linecap="round" stroke-linejoin="round" stroke-width=".52917" style="paint-order:markers fill stroke"/><path d="m8.3578 66.223c0.4245 0.62319 0.9647 1.1673 1.5848 1.5963-0.090618 0.44295-0.32297 0.85578-0.65462 1.1631-0.34429 0.31901-0.79398 0.5223-1.2609 0.57004-0.36907-0.67941-0.61733-1.4242-0.72973-2.1892-0.14306-0.97368-0.064499-1.9793 0.22804-2.9189 0.18007 0.63229 0.4623 1.2354 0.83242 1.7787z" fill="#fff" fill-rule="evenodd" stroke="#000" stroke-linecap="round" stroke-linejoin="round" stroke-width=".52917" style="paint-order:markers fill stroke"/><g stroke-linecap="round"><g fill-rule="evenodd" stroke="#000"><path d="m31.242 43.761c-0.03084 0.22191-0.12235 0.43187-0.23909 0.62309-0.11674 0.19122-0.25867 0.36561-0.39942 0.53992-0.81541 1.0098-1.6354 2.0645-2.7593 2.7137-0.44094 0.2547-0.92563 0.44217-1.431 0.50488-0.50534 0.06271-1.0323-0.0038-1.4879-0.23123-0.54741-0.27327-0.96525-0.76483-1.2339-1.3146s-0.39858-1.1571-0.47645-1.764c-0.1261-0.9827-0.12128-1.9812 0-2.9645 0.01974-0.16005 0.04255-0.31971 0.06841-0.47888 0.76928 0.128 1.5371 0.26483 2.3032 0.41047 1.8502 0.35172 3.6907 0.7548 5.5186 1.2086 0.12382 0.22783 0.17252 0.4957 0.13682 0.75253z" fill="#fcdb00" stroke-width=".52917" style="paint-order:markers fill stroke"/><g stroke-linejoin="round" stroke-width=".66146"><path d="m25.841 43.382c-0.31497 0.10489-0.59195 0.32021-0.77128 0.59958-0.18077 0.28161-0.26082 0.62287-0.24511 0.95714 0.02497 0.53132 0.29617 1.046 0.7203 1.367" fill="#fff" style="paint-order:markers fill stroke"/><path d="m25.816 45.198c0.1221-0.26855 0.15144-0.57825 0.08193-0.86496-0.0695-0.2867-0.2374-0.54859-0.46893-0.73141 0.2637-0.18878 0.57964-0.30378 0.903-0.3287 0.37882-0.02919 0.76499 0.06587 1.0914 0.26038 0.32638 0.19452 0.59234 0.48672 0.76299 0.82619 0.1458 0.29003 0.22306 0.61653 0.20589 0.94069-0.01717 0.32416-0.13092 0.64502-0.33489 0.89755-0.18257 0.22604-0.43406 0.39364-0.70961 0.48584-0.27555 0.0922-0.57418 0.11002-0.86082 0.06241-0.54223-0.09007-1.0398-0.42135-1.3321-0.88687 0.28988-0.1318 0.52932-0.37124 0.66112-0.66112z" style="paint-order:markers fill stroke"/><path d="m30.054 41.489c-0.87059-0.21415-1.7165-0.52863-2.5155-0.93524-0.66323-0.3375-1.2925-0.7372-1.935-1.1126-0.29657-0.17328-0.60882-0.34548-0.95137-0.37087-0.21313-0.0158-0.43288 0.0289-0.61458 0.14141-0.1817 0.11251-0.32236 0.29504-0.36904 0.50359-0.0275 0.12285-0.02256 0.25215 0.0088 0.37408 0.03134 0.12193 0.08866 0.23656 0.16286 0.33826 0.1484 0.20341 0.36089 0.35243 0.58623 0.46477 0.38088 0.18989 0.80118 0.28266 1.2094 0.40312 0.56147 0.16569 1.1058 0.38598 1.6683 0.54825 0.632 0.18232 1.293 0.24155 1.9506 0.22575l0.67036-0.01611c0.05937 0.03268 0.12999 0.04448 0.19676 0.03286 0.06677-0.01161 0.12926-0.04655 0.17411-0.09736 0.03898-0.04416 0.06457-0.09999 0.07257-0.15834 8e-3 -0.05836-0.0016-0.11901-0.02727-0.17203-0.02566-0.05302-0.06725-0.0982-0.11798-0.12814-0.05073-0.02994-0.11038-0.04452-0.1692-0.04136z" fill="#fcdb00" style="paint-order:markers fill stroke"/></g></g><path d="m-2.4994 45.005c0.26732 0.07955 0.50469 0.26626 0.62887 0.516 0.083516 0.16796 0.11495 0.35883 0.10855 0.5463-0.0064 0.18747-0.049448 0.37217-0.10855 0.55019-0.084524 0.2546-0.20345 0.49989-0.37087 0.7095-0.12325 0.1543-0.27484 0.2899-0.45522 0.37029-0.18038 0.08039-0.39164 0.10158-0.57678 0.03283-0.19126-0.07102-0.33908-0.23063-0.43733-0.40943-0.098256-0.17879-0.15285-0.37768-0.20766-0.57419-0.071985-0.25808-0.14651-0.5243-0.11287-0.79012 0.022343-0.17658 0.092857-0.3461 0.19765-0.48998 0.10479-0.14387 0.2433-0.26223 0.39897-0.34852 0.28202-0.15633 0.62619-0.20485 0.93524-0.11287z" fill="#fcdb00" fill-rule="evenodd" stroke="#000" stroke-linejoin="round" stroke-width=".13229" style="paint-order:markers fill stroke"/><g fill="none" stroke="#fcdb00" stroke-linejoin="round" stroke-width=".79375"><path d="m61.149 36.371c0.49357-1.1892 0.97734-2.3825 1.4512-3.5797 0.29813-0.75314 0.59628-1.5153 1.0549-2.183 0.45859-0.66768 1.1-1.2425 1.8799-1.4612 0.24091-0.06757 0.49156-0.10027 0.74174-0.09675" style="paint-order:markers fill stroke"/><path d="m66.673 30.953c0.06806 0.869 0.20508 1.7326 0.40937 2.58 0.42815 1.776 1.1511 3.4819 1.419 5.289 0.32202 2.1719-0.03235 4.4043-0.74175 6.4822-0.80143 2.3474-2.0569 4.539-3.6765 6.4177" style="paint-order:markers fill stroke"/><path d="m60.181 53.85c0.07259 0.63456 0.14784 1.2688 0.22575 1.9027 0.26769 2.178 0.56705 4.3551 0.67725 6.5467 0.10131 2.0149 0.05335 4.0945 0.80625 5.9662 0.45823 1.1391 1.2078 2.1605 2.1607 2.9347 0.74004 0.60128 1.6006 1.0536 2.5155 1.3222" style="paint-order:markers fill stroke"/><path d="m63.632 73.233c-0.11855 1.9635 0.10062 3.947 0.645 5.8372 0.59278 2.0583 1.5715 4.0048 2.8702 5.7082-1.1686-0.11449-2.3079-0.51661-3.2895-1.161-1.1-0.72216-1.9983-1.7482-2.5687-2.9341-0.57035-1.1859-0.81114-2.5282-0.68856-3.8384" style="paint-order:markers fill stroke"/><path d="m61.181 84.456c-0.15216 1.0778-0.18467 2.1723-0.09675 3.2572 0.1466 1.8089 0.63033 3.5899 1.419 5.2245-1.1812-0.66917-2.1814-1.6544-2.8683-2.8255-0.68686-1.171-1.0586-2.5249-1.0662-3.8825-0.0064-1.1546 0.24908-2.3098 0.74175-3.354" style="paint-order:markers fill stroke"/><path d="m24.491 54.463c0.62974 0.09186 1.2487 0.2577 1.84 0.49302 1.5562 0.61932 2.9123 1.7307 3.8252 3.135" style="paint-order:markers fill stroke"/></g></g><path d="m98.609 80.486 0.37816-70.082h-132.3l0.37838 70.082c0.91638 37.43 20.549 73.315 65.769 92.906 45.224-19.592 64.853-55.476 65.769-92.906z" fill="none" stroke="#000" stroke-linecap="square" stroke-miterlimit="30" stroke-width="2.1168"/></g></svg>
