<?xml version="1.0" encoding="UTF-8"?>
<svg viewBox="0 0 620 764" xml:space="preserve" xmlns="http://www.w3.org/2000/svg"><path d="M608.285 330.11 610 12.27H10l1.716 317.84c4.156 169.749 93.192 332.501 298.283 421.35 205.097-88.854 294.125-251.601 298.284-421.35z" fill="#f00000" stroke="#000" stroke-linecap="square" stroke-miterlimit="30" stroke-width="10.0003938"/><path d="M451.33 212.27c-1.59-12.226-12.047-21.707-24.7-21.707-13.623 0-24.712 10.985-24.914 24.561h-70.077v-70.077c13.576-.202 24.56-11.291 24.56-24.914 0-12.653-9.48-23.11-21.707-24.699-2.165-11.558-12.313-20.338-24.49-20.338-12.177 0-22.326 8.78-24.49 20.338-12.226 1.59-21.707 12.047-21.707 24.699 0 13.623 10.985 24.712 24.561 24.914v70.077h-70.078c-.202-13.576-11.291-24.561-24.914-24.561-12.653 0-23.11 9.48-24.699 21.707-11.558 2.164-20.338 12.313-20.338 24.49s8.78 22.326 20.338 24.49c1.59 12.226 12.047 21.707 24.699 21.707 13.623 0 24.712-10.985 24.914-24.56h70.077v70.077c-13.575.202-24.561 11.291-24.561 24.914 0 12.653 9.48 23.11 21.707 24.7 2.164 11.558 12.313 20.338 24.49 20.338 12.177 0 22.326-8.78 24.49-20.338 12.226-1.59 21.707-12.047 21.707-24.7 0-13.623-10.985-24.712-24.56-24.914v-70.077h70.077c.202 13.576 11.291 24.56 24.914 24.56 12.653 0 23.11-9.48 24.7-21.707 11.558-2.164 20.338-12.313 20.338-24.49s-8.78-22.326-20.337-24.49z" fill="#fff" stroke="#000" stroke-width="5"/><g stroke="#000" stroke-width="4.729"><path d="m136.894 400.496 27.425-36.982 77.289 53.188s5.817 19.946 29.502 33.658c23.686 13.712 226.051 98.896 231.867 117.181-1.662 7.064-10.538 22.757-20.361 28.256-121.601-83.425-122.3-65.398-191.147-99.312-99.315-48.92-154.58-95.988-154.58-95.988z" fill="#fcdb00" stroke-width="5.0004446"/><path d="M79.13 468.233c4.987 22.231 36.983 55.68 69.81 50.28 4.571-49.033 13.998-48.946 34.49-82.276 17.88-29.08 31.164-45.708 31.164-45.708l-37.398-25.347s-48.617 68.979-55.266 75.626c-6.648 6.649-20.361 19.738-42.8 27.425z" fill="#fff" stroke-width="5.0004446"/><path d="m483.13 400.496-27.425-36.982-77.289 53.188s-5.817 19.946-29.502 33.658c-23.686 13.712-226.051 98.896-231.867 117.181 1.662 7.064 10.538 22.757 20.361 28.256 121.601-83.425 122.3-65.398 191.147-99.312 99.315-48.92 154.58-95.988 154.58-95.988z" fill="#fcdb00" stroke-width="5.0004446"/><path d="M540.895 468.233c-4.986 22.231-36.982 55.68-69.81 50.28-4.57-49.033-13.997-48.946-34.488-82.276-17.88-29.08-31.165-45.708-31.165-45.708l37.398-25.347s48.617 68.979 55.266 75.626c6.648 6.649 20.361 19.738 42.8 27.425z" fill="#fff" stroke-width="5.0004446"/></g></svg>
