<?xml version="1.0" encoding="UTF-8"?>
<svg width="137.58mm" height="169.5mm" version="1.1" viewBox="0 0 137.58 169.5" xml:space="preserve" xmlns="http://www.w3.org/2000/svg"><g transform="translate(-65.164 -10.291)"><path d="m199.73 83.582 0.37816-70.082h-132.3l0.37838 70.082c0.91638 37.43 20.549 73.315 65.769 92.906 45.224-19.592 64.853-55.476 65.769-92.906z" fill="#094" stroke-width="2.205"/><g transform="matrix(2.5044 0 0 2.5044 -100.73 -239.83)"><path transform="matrix(.10565 0 0 .10565 40.221 95.765)" d="m439.16 108.73c-7.9389-0.062-17.473 3.5083-19.51 12.034-1.8968 8.5332 2.742 16.422 6.7226 23.573 6.0462 11.85 13.212 24.618 11.481 38.333-2.1503 14.78-13.765 25.998-25.735 33.777-15.244 9.8851-32.16 17.436-45.824 29.599-10.598 9.5099-19.607 22.391-20.05 37.045 0.28676 3.1344 4.1372 2.4133 5.6497 0.57845 0.75024-0.3873 3.4584-2.2536 3.0877-1.4841-10.713 14.893-16.036 33.391-15.664 51.667-0.0296 3.1015 3.8657 3.8727 5.7637 1.8291 1.7835-1.5463 3.531-2.367 2.3789 0.75391-3.4538 17.734-5.5938 37.266 2.8379 53.987 1.5382 2.5044 2.5734 5.7925 5.3018 7.2236 4.0273 0.38014 3.8065-4.6088 5.0303-7.2383 0.57485-2.1344 0.85039 2.0804 1.3535 2.8555 4.8962 17.66 17.653 32.243 33.109 41.669 20.436 12.669 44.092 20.852 68.314 20.731 18.06 0.49658 36.857-1.6303 53.619 6.5373 8.0055 3.5309 14.831 9.1837 21.23 14.973 3.0976 1.7055 4.369-2.5278 3.882-4.9076 0.20175-4.6982-0.80767-9.3214-1.4934-13.941 4.7262-2e-3 8.8403 2.6692 13.043 4.248 3.6654 0.063 2.7816-4.3042 1.9171-6.54-0.68309-2.423-1.4568-4.821-2.3398-7.1787 3.8782 1.6039 8.3599 3.6507 12.571 2.4609 3.1152-2.2018-0.20326-5.6137-1.9719-7.4386-9.2948-10.256-16.862-24.068-14.459-38.316 0.89906-4.669 3.4493-9.6995 7.411-12.192 1.0389 12.896 7.9603 26.581 20.713 31.253 3.523 1.1239 7.3347 2.4353 11.029 1.7715 3.0883-2.9524-1.5363-5.9258-2.8951-8.5774-4.0407-5.9973-5.1099-13.445-5.6401-20.509 7.131 8.4884 16.211 17.214 27.985 17.587 4.1691-0.0145 8.9324 0.31593 12.378-2.3972 1.1483-3.633-3.3341-5.5281-4.9414-8.3457-6.5254-8.3074-9.6136-18.98-10.534-28.804 4.799 10.942 16.421 18.562 28.465 17.92 2.5845 0.57315 6.6378-0.99552 5.125-4.2256-4.2872-9.0906-8.6519-18.336-10.045-28.405-1.4832-9.0738-1.5128-18.234-1.1292-27.338 3.2902 7.4956 11.459 12.145 19.581 11.422 4.3622-0.3393 9.1296-0.88231 12.826-3.2852 1.7962-2.936-1.0551-6.2382-1.8958-9.0947-4.0423-9.6294-9.0274-19.602-8.1762-30.35 0.28839-0.89162-0.46651-6.147 0.58049-3.8341 4.3571 6.9839 11.562 11.914 19.107 14.904 3.26 0.57007 3.6701-3.2662 3.1063-5.5573-2.3086-21.265-2.6295-42.659-4.1078-64.003-1.116-15.948-6.8599-32.301-19.201-43.024-3.4149-3.3366-8.0441-6.8945-11.605-9.0802 9.6201 1.253 20.08-1.2962 26.881-8.5332 2.014-1.3458 4.2308-4.7229 1.3779-6.4248-15.377-7.9459-30.875-15.826-47.087-21.949-11.286-4.1178-23.174-7.086-35.279-6.4855-18.989-0.40513-37.598 8.1161-50.482 21.931-11.822 11.662-19.417 26.803-25.749 41.958-4.8959 11.605-6.9074 24.305-5.7998 36.853 1.2218 17.981 9.2946 34.783 13.296 51.916 1.5469 7.9873 0.35945 17.446-6.5098 22.716-3.9546 3.9953-10.398 3.8133-14.664 0.42286-6.9581-5.7589-13.849-12.026-18.547-19.834-4.7909-9.1435-7.8077-19.164-13.406-27.91-2.2695-2.6173 2.2002-0.54371 3.5026-0.0808 2.0661 1.2496 6.0761 3.1172 6.9728-0.39694 0.66348-8.7051-2.0298-18.172 2.7256-26.16 5.5421-9.6602 10.141-20.235 10.35-31.552 0.20149-5.8141 0.14079-11.677-0.81374-17.429 2.519 1.9421 5.4217 4.9033 8.7035 4.5212 2.9497-1.8538 1.322-6.2438 2.0016-9.2243-9e-3 -14.366-8e-3 -29.052-4.0576-42.962-5.4686-19.562-20.398-37.157-40.408-42.557-3.7072-0.99542-7.5474-1.542-11.39-1.487z" fill="#fff" style="paint-order:markers fill stroke"/><g><path transform="matrix(.10565 0 0 .10565 40.221 95.765)" d="m480.26 81.112c-5.1954 0.54416-10.191 2.9278-13.803 6.7201-0.54215 0.54704-1.0601 1.1182-1.5492 1.7133-0.0592-2.1157 0.0392-4.2763-0.43994-6.3494-0.51139-1.689-2.6362-2.2875-4.1155-1.4917-4.5095 1.8117-8.3858 5.1707-10.735 9.4338-0.12845-2.1962-0.0188-4.4533-0.5905-6.5919-0.55353-1.6684-2.8718-2.2168-4.1402-1.0134-5.0161 4.7436-8.1467 11.44-8.6301 18.323-0.0628 2.1866-0.0851 4.4007 0.2262 6.5678 0.24114 1.4421 1.7018 2.3418 3.1092 2.1387 8.699-0.0225 17.259 3.1093 24.419 7.7714 9.6123 6.2411 17.031 15.508 21.837 25.852 0.40693 1.105 1.1966 2.0075 2.2868 2.4755 4.8926 2.8704 10.516 4.5472 16.188 4.7273 3.9797 8e-3 8.0762-0.16228 11.835-1.5777 1.4783-0.57161 1.8695-2.5049 1.0841-3.7912-1.0162-2.4693-2.4182-4.7677-4.0406-6.8837 2.2249 0.40831 4.6519 0.32451 6.7209-0.64917 1.4973-0.81847 1.64-2.8483 0.83155-4.2053-1.8321-3.8279-4.6271-7.1841-8.0505-9.6904 3.0785 0.0154 6.1512-0.85103 8.8025-2.4006 1.3059-0.80649 1.5414-2.7165 0.53981-3.8577-2.4875-3.9271-6.1289-7.0754-10.348-9.0192 2.2917-1.0182 4.6792-1.8034 6.9912-2.7639 1.5347-0.76131 1.8284-3.0801 0.48415-4.1664-4.7832-3.3323-10.797-4.7969-16.588-4.3013-1.1594 0.11002-2.3105 0.30044-3.4465 0.55591 1.5548-3.547 2.4687-7.4118 2.541-11.282-0.0206-1.5582-1.6892-2.604-3.1471-2.2869-6.0721 0.47397-11.947 2.9598-16.573 6.9124-0.15512-2.7205 0.35835-5.407 0.95149-8.0449 0.17574-1.5053-1.1432-2.8887-2.6517-2.8237z" fill="#f00000" style="paint-order:markers fill stroke"/><path d="m91.7 111.08c0.30301 0.19776 0.63624 0.34913 0.98452 0.44725 0.70728 0.19925 1.4762 0.17333 2.1684-0.0731m-0.92356-1.3851c0.25681 0.22422 0.47719 0.49008 0.64991 0.78401 0.11174 0.19016 0.20362 0.39199 0.27365 0.60114m0.38767-1.22c-0.19666 0.11909-0.43264 0.17197-0.66132 0.14822-0.24405-0.0254-0.4781-0.1382-0.64992-0.31336m-0.0114-1.3004c0.32686 0.15544 0.62036 0.38059 0.85515 0.65603 0.20327 0.23846 0.36256 0.5143 0.46748 0.80955m0.14822-1.7302c-0.17233 0.12108-0.36638 0.21114-0.5701 0.26458-0.29364 0.077-0.60712 0.077-0.90076 0m0.08968-1.4533c0.34589 0.11748 0.66468 0.31394 0.9251 0.5701 0.18341 0.18042 0.33799 0.39009 0.45608 0.61866m-0.13957-1.661c-0.253 0.0791-0.50315 0.1674-0.74979 0.26458-0.16559 0.0652-0.32959 0.1345-0.49183 0.20769m-1.2416-0.97216c0.49378-0.15753 1.0349-0.16322 1.5319-0.0161 0.34846 0.10315 0.67486 0.28018 0.95137 0.51599m-2.1285-1.9995c0.0039 0.25465-0.02327 0.50976-0.08076 0.75787-0.05966 0.25745-0.15196 0.50732-0.27398 0.74174m-1.7254-0.62887c0.27614-0.27553 0.60694-0.49606 0.96748-0.645 0.35191-0.14537 0.73188-0.22246 1.1126-0.22574m-1.9189-0.41925c-0.06788 0.18791-0.11658 0.38274-0.14512 0.58049-0.03387 0.2347-0.0393 0.4735-0.01611 0.7095m-1.8221-0.129c0.2163-0.38247 0.54541-0.70023 0.93523-0.90299 0.32224-0.16761 0.68489-0.25688 1.0481-0.258m-2.0317-0.0161c0.04103 0.24696 0.06262 0.49715 0.0645 0.74749 0.0011 0.14335-0.0043 0.28676-0.01611 0.42963m-1.5964 0.31787c0.14736-0.52873 0.50839-0.99459 0.98362-1.2692 0.17603-0.10173 0.36674-0.17802 0.56437-0.22575m-1.6447 0.0484c0.05123 0.2823 0.08358 0.56802 0.09676 0.85462 0.0091 0.19719 0.0091 0.3948 0 0.59199m-1.1583 1.4466c-0.08962-0.43236-0.07945-0.88509 0.02952-1.313 0.1581-0.62082 0.52712-1.1859 1.032-1.5802" fill="none" stroke="#000" stroke-linecap="round" stroke-linejoin="round" stroke-width=".31695" style="paint-order:markers fill stroke"/><path transform="matrix(.10565 0 0 .10565 40.221 95.765)" d="m540.47 456.29c-1.5921 0.49298-2.1209 2.3404-1.5731 3.7963 2.7349 13.431 2.0333 27.818-3.5068 40.473-4.0042 9.2353-9.935 17.479-16.631 24.901-0.41238 0.71368-1.0426 0.79596-1.7611 0.47157-5.662-1.5012-11.529-3.6882-15.504-8.1878-2.5328-3.2187-3.9837-7.613-7.9038-9.4986-2.1165-1.1493-4.7166-1.1628-7.0006-0.58178-3.16 1.296-5.6515 3.9163-9.0561 4.6851-2.8634 0.81222-5.9756 2.2638-7.0075 5.2987-0.51949 1.6108-0.68531 3.5173 0.0497 5.0837 0.90045 1.6315 3.0716 1.6072 4.4902 0.71885 3.7712-1.5312 8.2357-0.6569 11.317 1.952 3.595 2.9781 7.0731 6.1467 11.118 8.5237-6.4663 2.2341-12.974 4.4008-19.619 6.0408-2.7639 0.72076-4.8276-1.6082-7.116-2.652-3.4684-1.4593-7.3579 0.18164-10.024 2.5086-3.8125 3.249-7.6852 7.0288-8.8304 12.097-0.34839 1.7901-0.66103 3.7735-0.0237 5.506 0.85286 1.6608 3.2555 1.5999 4.3455 0.21421 4.1206-3.9975 9.5565-6.6482 15.306-7.1003 5.6151-0.62181 11.391-0.97003 16.943-2.3651 4.9635-1.1204 9.8724-2.4682 14.758-3.8863-6.1663 4.7149-11.577 10.299-17.237 15.584-1.2542 1.248-2.9347 2.0311-4.7337 1.8779-2.6132 0.19673-5.4104-0.43873-7.8688 0.69137-4.1267 2.1056-5.9117 6.7457-7.4142 10.843-1.155 2.669-1.3031 5.6449-0.88599 8.4903 0.23251 2.0655 3.0357 3.085 4.4733 1.533 1.7679-2.1847 3.2194-4.8398 5.7497-6.2528 2.9466-1.167 6.0318 0.55622 9.0632 0.16956 2.8732-0.1037 5.5337-1.8227 6.8458-4.3758 1.5053-2.7477 3.1532-5.5808 5.9141-7.2489 4.3106-2.864 9.377-4.5972 13.125-8.2848 4.4423-3.9899 8.3698-8.6586 13.588-11.694 5.3435 7.3932 13.575 12.927 22.705 14.126 4.1722 0.45852 8.4982 0.16546 12.369-1.5705 4.1438-1.6114 7.9714-4.1354 12.373-5.0176 2.5802-0.4413 5.1334 0.42034 7.321 1.7464 1.6226 0.83023 3.7651-0.50969 3.5986-2.3547-0.15462-3.3104-3.0211-5.5206-5.63-7.0932-3.5736-2.0813-6.6514-5.3495-10.865-6.095-3.8462-0.59088-7.7078 1.131-10.345 3.889-1.7026 1.5172-2.9433 3.6382-5.2156 4.425-3.7504 1.0872-7.401-1.0991-10.351-3.1917-2.8478-2.2496-5.4439-4.8348-7.806-7.5868-0.77867-0.91662 0.0695-2.2246 0.26546-3.2385 1.6549-4.2519 5.4748-7.0701 8.0721-10.703 0.97381-1.2451 1.7863-2.6025 2.6571-3.9181 4.0808 0.51235 8.3747 1.4737 12.44 0.30729 3.103-0.98242 5.7697-3.7529 6.1136-7.0466 8e-3 -2.0638-2.4969-3.2229-4.1943-2.2114-2.6815 1.6168-6.3627 4e-3 -7.3538-2.8747-1.3582-3.6834 0.0696-7.582 1.2519-11.1 1.6184-4.3583 2.4042-9.0406 4.657-13.145 1.6343-2.5002 4.1305-4.324 6.8035-5.5747 1.6581-1.1221 1.3379-3.405 0.41983-4.9013-2.9966-7.0781-9.0822-12.816-16.454-15.095-2.0114-0.57959-4.1094-1.2845-6.2217-1.1066z" fill="#f00000" style="paint-order:markers fill stroke"/><path d="m94.992 151.48c0.36971-0.39417 0.71161-0.81441 1.0223-1.2566 0.41824-0.59514 0.78146-1.2334 1.0255-1.9186 0.25735-0.72253 0.37916-1.4905 0.387-2.2575 0.0068-0.66978-0.07261-1.3404-0.23578-1.99m-7.0849 7.0532c-0.09426-0.1337-0.13641-0.30317-0.11576-0.46545 0.02065-0.16228 0.10389-0.31579 0.22864-0.42163 0.11082-0.094 0.24914-0.14894 0.38744-0.1936 0.13829-0.0446 0.28017-0.081 0.41074-0.14481 0.23044-0.1126 0.41871-0.30728 0.66248-0.387 0.16212-0.053 0.34074-0.0504 0.5036 2.9e-4 0.16286 0.0507 0.3098 0.14833 0.42531 0.27383 0.1786 0.19405 0.27908 0.44636 0.43214 0.66112 0.27587 0.38709 0.70884 0.63331 1.1516 0.80625 0.25955 0.10138 0.52725 0.18188 0.79966 0.24048m-1.9513 0.72735c-0.36855-0.20477-0.71512-0.44907-1.0318-0.72735-0.17548-0.15418-0.34412-0.32042-0.54825-0.43398-0.20803-0.11572-0.44866-0.17208-0.68644-0.16075-0.23778 0.0113-0.47196 0.0903-0.66805 0.22525m-1.9995 3.7894c-0.10634-0.30369-0.10634-0.64346 0-0.94715 0.13178-0.37634 0.41338-0.68013 0.70949-0.94719 0.15188-0.13698 0.31244-0.26931 0.50007-0.35072 0.09382-0.0407 0.1939-0.0682 0.29593-0.0751 0.10203-7e-3 0.20608 7e-3 0.30049 0.0465 0.08364 0.0348 0.1579 0.0883 0.23206 0.14035 0.07416 0.052 0.15014 0.10361 0.23556 0.13377 0.10215 0.0361 0.21351 0.0397 0.32098 0.0261 0.10747-0.0136 0.21203-0.0439 0.31596-0.0745 0.67923-0.19966 1.354-0.41461 2.0235-0.64463m0.88701 0.79822c-0.43741 0.13404-0.87722 0.26026-1.3192 0.37856-0.60037 0.16072-1.207 0.30725-1.8252 0.37087-0.39902 0.0411-0.80409 0.0478-1.1932 0.14513-0.59034 0.1476-1.1251 0.50797-1.4835 0.99974m1.5157 2.7089c-0.15663-0.25232-0.22064-0.56076-0.17737-0.85457 0.02706-0.18377 0.09396-0.35899 0.16125-0.53212 0.08308-0.21375 0.16888-0.42956 0.30369-0.61508 0.13481-0.18551 0.32591-0.34042 0.55093-0.38466 0.13784-0.0271 0.27998-0.0117 0.4199 7.6e-4 0.13992 0.0125 0.28353 0.0217 0.4186-0.0169 0.09935-0.0284 0.19013-0.0818 0.27179-0.14512 0.08165-0.0633 0.15492-0.13665 0.22808-0.20962 0.37161-0.37062 0.74726-0.7378 1.1449-1.0804 0.3149-0.27131 0.64331-0.52693 0.98362-0.76559m1.667 0.26455c-0.26838 0.15654-0.52092 0.34021-0.75254 0.54729-0.39788 0.35574-0.73721 0.78263-1.1858 1.0718-0.31487 0.20296-0.67433 0.33154-0.98058 0.5473-0.19036 0.13412-0.35879 0.30219-0.47888 0.50169-0.05378 0.0893-0.09755 0.18427-0.14793 0.27555-0.05038 0.0913-0.10826 0.17998-0.18529 0.25025-0.09699 0.0885-0.22118 0.14409-0.34981 0.17033-0.12862 0.0262-0.26179 0.0242-0.39194 7e-3 -0.11048-0.0146-0.21939-0.0398-0.33005-0.0529s-0.225-0.0135-0.33107 0.0206c-0.14811 0.0477-0.26713 0.15816-0.37087 0.27412-0.19265 0.21534-0.3511 0.46122-0.46762 0.72562m11.947-3.1301c-0.22083-0.26685-0.57606-0.41632-0.92124-0.38766-0.15378 0.0128-0.30309 0.0584-0.44701 0.11402-0.42211 0.16327-0.80934 0.41523-1.2449 0.53822-0.68074 0.19222-1.4265 0.0462-2.0503-0.28737-0.52486-0.28068-0.97937-0.69172-1.3112-1.1858m0.68412-0.79815c0.23106 0.30498 0.4998 0.58139 0.79814 0.82095 0.16311 0.13097 0.33593 0.25149 0.52449 0.34206 0.14063 0.0676 0.29094 0.11838 0.44634 0.13221 0.1554 0.0138 0.3165-0.011 0.45294-0.0866 0.18347-0.10172 0.30604-0.28286 0.45225-0.43328 0.13638-0.14031 0.29866-0.2574 0.48065-0.32929 0.18199-0.0719 0.38419-0.0972 0.57597-0.0584 0.17289 0.035 0.33178 0.12006 0.47846 0.21804 0.14669 0.098 0.28383 0.20976 0.43136 0.30646 0.12009 0.0787 0.24686 0.14729 0.36302 0.23167 0.11617 0.0844 0.22312 0.18698 0.28691 0.31562 0.084 0.16936 0.084 0.37794 0 0.5473m-4.0363-3.9907c-0.13525 0.24387-0.29604 0.47356-0.47889 0.68411-0.23531 0.27096-0.51191 0.51746-0.66132 0.84375-0.06561 0.14329-0.10448 0.29877-0.11402 0.45608m3.147-3.0101c0.06588 0.19998 0.05406 0.42446-0.03245 0.61641s-0.24687 0.34949-0.44033 0.43258c-0.23302 0.10008-0.49701 0.0914-0.74957 0.0684-0.22466-0.0205-0.44842-0.0509-0.67038-0.0912m2.212-4.4012c-0.34812 0.0913-0.65975 0.31502-0.85749 0.61571-0.2234 0.33971-0.29606 0.75282-0.41954 1.1402-0.08737 0.27409-0.20221 0.54012-0.26458 0.82095-0.04139 0.18636-0.05907 0.38089-0.02199 0.56816s0.13307 0.36733 0.28658 0.48082c0.1521 0.11246 0.35593 0.15171 0.53891 0.10379 0.18299-0.0479 0.34141-0.18205 0.41886-0.35463m-2.2348-5.4046c0.67598 0.0199 1.3408 0.3025 1.8243 0.77534 0.35003 0.34232 0.60512 0.78075 0.72973 1.2542" fill="none" stroke="#000" stroke-linecap="round" stroke-linejoin="round" stroke-width=".31695" style="paint-order:markers fill stroke"/><path transform="matrix(.10565 0 0 .10565 40.221 95.765)" d="m479.29 453.57c-3.6846 0.0404-7.3806 0.0402-11.056 0.21209-1.5205 0.11562-2.4486 1.7398-2.1824 3.1628 0.0116 3.4663 0.47633 6.9303 1.5374 10.236 0.56205 2.1297 1.7449 4.5338 0.59386 6.6766-0.95627 1.7494-3.1733 1.8211-4.9246 1.759-4.4092 0.0411-8.8894-0.98165-13.205-1.9571-6.5618-1.4547-13.317-3.1998-20.079-2.1725-5.0444 0.66811-9.9376 2.6854-13.786 6.0498-0.51956 0.27544-1.2111-0.1256-1.7963-0.1319-5.1595-0.94978-10.378-1.7755-15.476-2.8585-3.1833-0.67971-6.3032-2.0122-8.6211-4.3567-3.0916-2.8576-5.9646-6.1936-9.9818-7.7777-4.4493-1.9437-10.151-1.7093-13.862 1.6675-4.0525 3.6453-6.7155 8.583-8.5779 13.644-0.64054 1.5833 0.65332 3.5734 2.3984 3.4539 1.4779-0.0862 2.6102-1.2326 3.8589-1.9144 2.0224-1.179 4.0264-3.0045 6.5286-2.7822 1.9423 0.29933 3.465 1.6962 5.1657 2.5728 4.6139 2.5631 9.7929 3.8202 14.77 5.4696 1.3918 0.43696 2.7844 0.87192 4.1756 1.3109-4.3372 0.85644-8.3234 2.8171-12.32 4.6245-2.9119 1.3483-6.3668 1.5851-9.361 0.35636-1.8904-0.7575-4.0403-1.2036-5.9966-0.40045-2.6122 0.93875-4.6077 3.1763-5.7998 5.6271-0.94279 2.0033-1.4003 4.2124-1.2723 6.4263-0.10793 2.2436 0.31032 4.5051 1.2361 6.5486 0.67461 1.5706 2.9572 1.8986 4.0866 0.63763 2.1907-2.2668 4.1422-4.8273 6.7217-6.6765 2.134-1.384 4.7845-0.99302 7.1924-1.1584 4.7933-0.0165 9.5789-0.55203 14.243-1.6628 4.0434-0.93481 7.9793-2.312 11.752-4.037-3.5535 3.629-7.2395 7.3068-11.755 9.7954-1.3958 0.82197-2.9917 1.1489-4.5982 1.1526-1.7196-0.0121-3.5817 0.35459-4.7221 1.7637-1.8148 2.2112-2.7922 4.9589-3.99 7.5239-1.767 4.1408-3.2993 8.7496-2.2692 13.28 0.3757 1.49 1.0306 3.3828 2.8176 3.567 1.4076 0.20701 2.6967-0.91072 2.9521-2.2626 1.3856-3.3209 4.4269-5.6823 7.6873-7.02 4.828-2.0412 10.244-3.0537 14.354-6.5078 5.7714-4.6858 10.04-11.016 13.055-17.761 0.17104-0.81674 0.46426-0.69321 0.84965-0.0609 2.4116 2.7746 5.1895 5.2071 8.2155 7.2905 2.5983 1.8697 5.1626 4.1412 6.1299 7.3034 0.92736 2.8106 0.6794 5.9783-0.72242 8.5908-0.84485 1.4929 0.12113 3.5719 1.8298 3.8286 3.6815 0.4169 7.5478-0.95872 10.062-3.7048 2.7229-2.6546 3.6658-6.8865 2.5237-10.491-1.1788-4.1114-4.0109-7.5047-6.9569-10.501-3.3091-3.3249-7.2576-5.8834-11-8.6736-1.7877-1.3813-3.3363-3.5223-3.163-5.8717 0.80489-1.9866 3.0214-3.2292 5.1387-2.8728 2.8004 0.20474 5.1386 1.9664 7.5664 3.2008 3.589 1.932 7.3336 4.4207 8.7752 8.4311 0.33761 1.3792 1.6182 2.6488 3.1248 2.3212 1.6845-0.33209 2.5644-2.0734 3.1841-3.5129 0.83888-2.5732 0.19239-5.2983 0.11646-7.9312 5.7706 1.5668 11.707 2.8109 17.711 2.7859 2.7226-0.1321 5.8803-0.22717 7.8542-2.3987 1.9153-2.144 1.6364-5.1888 1.7384-7.8547 0.14222-5.0983-0.0799-10.23 0.9618-15.278 0.4835-2.625 1.1305-5.2227 1.9372-7.7628 0.23313-1.5567-1.1525-2.9998-2.7084-2.8962-0.88749-0.0291-1.7758-0.0225-2.6637-0.0225z" fill="#f00000" style="paint-order:markers fill stroke"/><path d="m88.126 147.07c0.33508 0.10019 0.67591 0.18116 1.0203 0.24235 0.40162 0.0714 0.81198 0.11587 1.2174 0.0711 0.09389-0.0104 0.18796-0.0257 0.27652-0.0586 0.08856-0.0329 0.17188-0.0843 0.23141-0.15766 0.08176-0.10072 0.11219-0.23317 0.129-0.36181 0.04013-0.30712 0.01635-0.61845 0.01611-0.92818-5.48e-4 -0.71071 0.12456-1.4214 0.3678-2.0891m-3.6569 4.6248c0.18561-0.0643 0.33751-0.21894 0.39842-0.40568 0.06497-0.19921 0.02878-0.41495 0.0114-0.62376-0.0087-0.10422-0.01248-0.20885-0.0114-0.31343m-2.9531 0.17103c0.06382-0.18479 0.22222-0.33404 0.41047-0.38677 0.15655-0.0439 0.32544-0.023 0.47967 0.0284s0.29677 0.13201 0.43936 0.21011c0.34501 0.18896 0.7076 0.37501 0.9509 0.68412 0.1444 0.18346 0.23996 0.40501 0.27431 0.63595m-1.7794 2.8303c0.27815 0.0878 0.58792 0.0713 0.85515-0.0456 0.16701-0.0731 0.31769-0.18465 0.43222-0.32648 0.11453-0.14182 0.19225-0.31396 0.2177-0.49447 0.0273-0.19363-0.0055-0.39274-0.07453-0.57569s-0.17327-0.35087-0.29033-0.5075c-0.33656-0.45034-0.77889-0.81124-1.2428-1.1288-0.20831-0.14259-0.42929-0.28495-0.5587-0.50169-0.07562-0.12666-0.11555-0.27437-0.11402-0.42188m-0.70432 1.0308c0.22656 0.2998 0.49518 0.56776 0.79554 0.79357 0.20146 0.15146 0.41863 0.2854 0.5929 0.46748 0.20974 0.21914 0.3501 0.50734 0.37627 0.80955 0.02788 0.32197-0.07701 0.65345-0.28505 0.90076m-5.3723 0.98729c0.0023-0.19701 0.05558-0.39321 0.15318-0.56436 0.16921-0.29673 0.46196-0.50604 0.774-0.645 0.35137-0.15647 0.73447-0.23491 1.0804-0.40312 0.47854-0.23271 0.86195-0.62635 1.1756-1.0562 0.29008-0.39748 0.52915-0.83215 0.7095-1.29m-0.97408-0.44344c-0.26289 0.3112-0.5464 0.605-0.84804 0.87881-0.22739 0.20642-0.46643 0.40243-0.7322 0.55631-0.14239 0.0824-0.29578 0.15355-0.45956 0.16931-0.06961 7e-3 -0.13974 3e-3 -0.20965 5e-3 -0.06991 2e-3 -0.14088 9e-3 -0.20557 0.0354-0.07709 0.0317-0.1412 0.0896-0.1919 0.15571-0.0507 0.0661-0.08912 0.14071-0.12657 0.21517-0.13199 0.26249-0.25555 0.52973-0.35478 0.80627-0.06263 0.17453-0.11568 0.35347-0.13968 0.53733-0.024 0.18387-0.01824 0.37342 0.0349 0.55107 0.05649 0.18884 0.16674 0.36128 0.31444 0.49181m-1.9914-2.5235c0.17064-0.18936 0.34265-0.37749 0.516-0.56437 0.14833-0.15991 0.30475-0.32383 0.50793-0.40312 0.1951-0.0761 0.41139-0.0658 0.62081-0.0645 0.40252 2e-3 0.80521-0.0331 1.2013-0.10481 0.7227-0.13078 1.4234-0.38258 2.064-0.74175m-1.1126-0.70949c-0.44254 0.0491-0.87711 0.16936-1.2819 0.35475-0.22089 0.10116-0.43481 0.22224-0.66918 0.28622-0.2259 0.0617-0.46914 0.0675-0.69337 0-0.13499-0.0406-0.26327-0.1073-0.40312-0.12498-0.13067-0.0165-0.26512 0.0117-0.3831 0.0702s-0.21999 0.14649-0.30368 0.24819c-0.19951 0.24243-0.29402 0.5609-0.29683 0.87486-0.0028 0.3068 0.07896 0.61393 0.23381 0.8788m-0.58856-2.9877c0.25831-0.1673 0.51631-0.33508 0.774-0.50335 0.09303-0.0607 0.18658-0.12186 0.28852-0.16605 0.10194-0.0442 0.2137-0.071 0.32423-0.0597 0.08937 9e-3 0.17466 0.0428 0.25391 0.0851 0.07924 0.0423 0.15341 0.0934 0.22984 0.14062 0.37888 0.23403 0.80862 0.37014 1.2336 0.50335 0.4271 0.13388 0.85441 0.2671 1.2819 0.39965m1.8221-0.77625c-0.47255-0.0877-0.94556-0.17296-1.419-0.25575-0.39127-0.0684-0.7948-0.13968-1.1287-0.35474-0.28038-0.18056-0.49066-0.44939-0.74174-0.66887-0.23063-0.20161-0.50116-0.36361-0.79861-0.43681-0.29746-0.0732-0.62321-0.0525-0.8945 0.0898-0.2365 0.12403-0.4189 0.33078-0.57391 0.54824-0.31043 0.4355-0.53333 0.93314-0.65158 1.4547m11.577-2.916c-0.03324 0.4325 0.01686 0.87126 0.14676 1.2851 0.04571 0.14564 0.10154 0.28983 0.11773 0.44161 0.0081 0.0759 6e-3 0.15337-0.01225 0.22748-0.01826 0.0741-0.05316 0.14481-0.10548 0.20038-0.06371 0.0677-0.1506 0.11028-0.24066 0.13324-0.09005 0.023-0.18374 0.0275-0.27668 0.028-0.97659 6e-3 -1.9113-0.41297-2.8864-0.46762-0.57322-0.0321-1.1635 0.068-1.6609 0.35475-0.16297 0.094-0.31485 0.2071-0.4515 0.33637" fill="none" stroke="#000" stroke-linecap="round" stroke-linejoin="round" stroke-width=".31695" style="paint-order:markers fill stroke"/><path transform="matrix(.10565 0 0 .10565 40.221 95.765)" d="m436.15 167.76c-1.717 0.49546-2.6519 2.194-3.8977 3.3479-4.9801 5.1873-10.887 9.4758-17.357 12.666-7.2717 3.5729-15.223 6.1124-21.533 11.367-4.3982 3.7159-8.1364 8.3169-10.43 13.624-1.6391 3.9753-1.8886 8.8791 0.58677 12.575 2.4881 3.8488 6.8237 6.3279 11.313 6.9828 1.7716 0.17364 3.1546-1.1929 4.6562-1.8991 8.5961-5.015 17.356-9.9605 24.762-16.688 6.4192-5.7996 11.916-12.972 14.419-21.352 1.1022-3.3717 1.5796-6.9185 1.4941-10.462-3e-3 -2.8715-0.37149-5.754-1.1014-8.529-0.4309-1.1617-1.6914-1.8815-2.9116-1.6333z" fill="#f00000" style="paint-order:markers fill stroke"/><path d="m82.006 119.79c-0.24184-0.0281-0.47759-0.1076-0.68704-0.23173-0.30075-0.17824-0.55106-0.45966-0.63851-0.79814-0.05712-0.2211-0.04304-0.45675 0.01604-0.67733s0.16175-0.42739 0.28041-0.6225c0.28994-0.47675 0.68036-0.89254 1.1402-1.2086 0.6508-0.44731 1.4195-0.68591 2.1208-1.049 0.85123-0.44072 1.6044-1.0696 2.19-1.8285" fill="none" stroke="#000" stroke-linecap="round" stroke-linejoin="round" stroke-width=".31695" style="paint-order:markers fill stroke"/></g><path d="m90.065 125.29c-0.19157-0.20472-0.4262-0.36896-0.68412-0.47888-0.21998-0.0937-0.45668-0.14808-0.69553-0.15963m2.5451-7.9978c0.13084 0.64208 0.18373 1.3 0.15714 1.9547-0.03699 0.91077-0.23168 1.824-0.64992 2.6339-0.25602 0.49578-0.5976 0.9603-0.71832 1.5051-0.07266 0.32788-0.06084 0.66789-0.04561 1.0034 0.0233 0.51348 0.05371 1.0266 0.09122 1.5393m2.3146-7.8446c-0.30507-0.12196-0.59089-0.29191-0.84374-0.50169-0.30516-0.25318-0.56196-0.56445-0.75253-0.91216m-13.888 9.9882c-0.01-0.34483 0.02069-0.69082 0.09122-1.0285 0.2849-1.364 1.2051-2.5224 2.2835-3.4049 1.0746-0.87933 2.314-1.5288 3.5152-2.2252 0.7702-0.44659 1.5328-0.91838 2.193-1.5157 0.44609-0.40366 0.84427-0.86537 1.1392-1.3898 0.29489-0.52438 0.48428-1.1135 0.50558-1.7148 0.02334-0.65897-0.15361-1.3098-0.387-1.9264-0.25651-0.67777-0.58227-1.3276-0.93741-1.9593-0.14587-0.25947-0.29701-0.51653-0.42187-0.78674-0.14448-0.31266-0.25389-0.64613-0.27399-0.98996-0.0201-0.34384 0.05445-0.69989 0.25118-0.9826 0.1336-0.19199 0.31924-0.34469 0.52499-0.45594 0.20576-0.11125 0.43146-0.18229 0.66082-0.22818 0.88296-0.17667 1.8112 0.0198 2.6225 0.41048 1.5365 0.73995 2.6946 2.169 3.2382 3.7855 0.35416 1.0533 0.46171 2.1733 0.50169 3.2838 0.03064 0.85112 0.02302 1.7036-0.02281 2.5541m-14.275 7.8104c-0.30034 0.11249-0.58512 0.26643-0.84375 0.45608-0.12842 0.0942-0.25042 0.19711-0.36487 0.30785m-0.64061 5.7897c-0.18006-1.3654-0.02657-2.7735 0.44343-4.068 0.32636-0.89888 0.80363-1.7428 1.4058-2.4856m-0.96236 5.6184c-0.22717 0.0485-0.43855 0.16842-0.59662 0.33862-0.15272 0.16443-0.25514 0.37497-0.29025 0.59662m1.7254 6.1436c-0.41997-0.48196-0.74507-1.0463-0.95136-1.6513-0.28383-0.83249-0.34049-1.7268-0.30637-2.6057 0.03696-0.9521 0.17781-1.9001 0.41925-2.8218m1.2416 5.6921c-0.10719 0.22882-0.19577 0.46636-0.26458 0.70949-0.06281 0.22192-0.10916 0.44849-0.13854 0.67725m19.431 8.5108c-0.86723-1.0872-2.0712-1.9019-3.4029-2.3028-0.96539-0.29056-1.983-0.36601-2.9912-0.36799-0.85211-2e-3 -1.705 0.0478-2.5558 0-1.7042-0.0958-3.3732-0.58329-4.9181-1.309-1.525-0.71633-2.9691-1.6944-3.9506-3.0637-0.60688-0.84668-1.0232-1.8292-1.2094-2.8541m20.085 6.3968c0.17305 0.40597 0.31349 0.82584 0.41954 1.2542 0.05038 0.20352 0.09301 0.40895 0.12776 0.61571m1.3682-1.4823c-0.37795 0.0675-0.77053 0.0518-1.1419-0.0456-0.2739-0.0719-0.53617-0.18781-0.77363-0.34206m0.68412-5.8378c-0.28746 0.16475-0.53285 0.40222-0.70692 0.68413-0.27439 0.44436-0.36479 0.98332-0.34206 1.5051 0.03286 0.75402 0.29004 1.4865 0.66132 2.1436 0.41098 0.72737 0.96416 1.374 1.6191 1.8927m2.3032-2.6453c-0.59929 0.0829-1.2242-0.0307-1.7559-0.31925-0.68163-0.36991-1.1926-1.0137-1.4823-1.7331-0.19495-0.48419-0.29618-1.0059-0.29645-1.5279m2.5313-10.969c0.35487 0.50696 0.61875 1.0774 0.77533 1.6761 0.21615 0.82642 0.22646 1.6992 0.0912 2.5427-0.18814 1.1732-0.64996 2.2846-0.91216 3.4434-0.26424 1.1678-0.32321 2.3748-0.27365 3.5712 0.0197 0.47657 0.0568 0.95457 0.16325 1.4195 0.1064 0.46496 0.28448 0.91853 0.56648 1.3032 0.16589 0.2263 0.3666 0.42701 0.5929 0.5929m3.1698-1.4366c-0.72079 0.31967-1.5703 0.33649-2.3032 0.0456-0.72138-0.28632-1.3022-0.84248-1.8015-1.4367-0.13366-0.15906-0.26295-0.32179-0.38767-0.48795m2.0296-15.201c0.65027 0.81836 1.1127 1.7851 1.3418 2.8049 0.28499 1.2686 0.20915 2.5934 0 3.8767-0.13569 0.83261-0.32651 1.6553-0.47528 2.4856-0.17938 1.0012-0.29766 2.0158-0.29645 3.0329 1e-3 1.2116 0.18319 2.4528 0.77173 3.5118 0.28794 0.51814 0.66962 0.98401 1.121 1.3682m1.8927-2.1436c-0.46056 0.11949-0.94966 0.12738-1.4138 0.0228-0.78594-0.17707-1.4904-0.68389-1.9155-1.3682-0.25994-0.41849-0.41778-0.89989-0.45608-1.391m-0.72973-15.849c1.237 0.54096 2.2847 1.5039 2.928 2.6909 0.57507 1.0612 0.82549 2.2821 0.81018 3.489-8e-3 0.61823-0.0832 1.2334-0.15792 1.8471-0.14874 1.2217-0.29545 2.4442-0.38767 3.6714-0.0931 1.2393-0.12985 2.4941 0.0912 3.7171 0.20285 1.1223 0.6234 2.2049 1.2314 3.1698m2.2542-5.3818c-0.26391 0.1123-0.53787 0.20096-0.81754 0.26458-0.46489 0.10575-0.95829 0.14061-1.4138 0-0.37788-0.11663-0.71748-0.35401-0.95682-0.66883-0.23935-0.31481-0.37728-0.70552-0.38862-1.1008m-2.4856-13.91c1.361 0.61148 2.5398 1.6219 3.3522 2.8733 1.0896 1.6784 1.4968 3.723 1.5279 5.7238 6e-3 0.38018-9.3e-4 0.7606-0.0228 1.1402-0.0385 0.66889-0.12373 1.339-0.0684 2.0068 0.0826 0.99711 0.47398 1.9403 0.88936 2.8505 0.12544 0.27488 0.25353 0.54854 0.38424 0.82095m1.2348-2.8733c-0.4877-0.17648-0.94999-0.42303-1.3682-0.72973-0.24921-0.18274-0.4842-0.38816-0.67528-0.63104-0.19108-0.24289-0.33744-0.52508-0.39651-0.82842-0.0395-0.2027-0.0395-0.41301 0-0.61571m-3.7981-11.06c0.42346 0.11277 0.83938 0.25382 1.2441 0.42188 0.729 0.30273 1.4231 0.69454 2.041 1.1858 0.75998 0.60428 1.4051 1.365 1.8129 2.2462 0.35386 0.76464 0.52315 1.6026 0.61571 2.44 0.0862 0.77971 0.10828 1.5649 0.13683 2.3488 0.0327 0.89761 0.0739 1.795 0.13915 2.6909 0.0615 0.84566 0.14442 1.6898 0.24851 2.5312m-0.51309-14.287c-0.22309 0.32915-0.5116 0.61376-0.84375 0.83235-0.69897 0.46-1.5818 0.61266-2.4058 0.46748-0.43343-0.0764-0.85282-0.23169-1.2314-0.45608m-17.559 9.2242c0.40466 0.61029 0.74894 1.2606 1.0262 1.9383 0.18191 0.4447 0.33595 0.90309 0.5701 1.3226 0.38505 0.68993 0.96883 1.2442 1.5507 1.7787 0.17398 0.15983 0.3497 0.31978 0.54868 0.44714 0.19898 0.12736 0.42418 0.22169 0.65994 0.23699 0.31845 0.0207 0.63369-0.1055 0.88936-0.29646 0.39116-0.29216 0.6587-0.73452 0.77534-1.2086 0.11166-0.45384 0.09075-0.93216 0.0033-1.3913-0.08749-0.45911-0.23983-0.90295-0.39093-1.3452-0.58773-1.7203-1.1717-3.4996-1.049-5.3133 0.09755-1.442 0.6395-2.819 1.2998-4.1047 0.38894-0.75727 0.82258-1.4946 1.3454-2.1664 0.74883-0.96216 1.6875-1.7891 2.7821-2.326 1.2416-0.60904 2.6588-0.82913 4.0363-0.70693 2.0534 0.18215 3.963 1.0899 5.815 1.9954 0.72686 0.35536 1.4528 0.71262 2.1778 1.0718" fill="none" stroke="#000" stroke-linecap="round" stroke-linejoin="round" stroke-width=".31695" style="paint-order:markers fill stroke"/><g transform="translate(-.022804 .20524)"><path transform="rotate(14.352 84.899 110.3)" d="m81.661 109.74c0.65535-0.12795 1.7946-0.14737 2.1295-0.0936-0.39307 0.42128-0.83005 1.1794-0.94323 1.57 0.43169-0.14268 1.1256-0.32011 1.5882-0.45167-0.05792 0.57317-0.57055 0.97736-0.85756 1.2424 0.07561 0.053 0.82701-0.0155 0.91028-0.0275 0.40673-0.0929 0.85111-0.35123 1.1387-0.65637 0.14377-0.15409 0.38506-0.43162 0.39092-0.65912-0.17646-0.42094-0.51073-0.76192-1.027-0.62982-0.10823-0.20632-0.17274-0.23079-0.13292-0.28971 0.16583-0.29736 0.23199-1.0443-0.04564-1.2414-1.4176-0.59609-2.6309-0.14067-3.1513 1.2368z" fill="#f00000" style="paint-order:markers fill stroke"/><g fill="none" stroke="#000" stroke-linecap="round" stroke-linejoin="round"><path transform="rotate(14.352 84.899 110.3)" d="m82.847 111.21c0.05765-0.32271 0.1871-0.6324 0.37627-0.90013 0.18438-0.26096 0.42525-0.4818 0.7012-0.6429m0.51073 1.0914-1.5882 0.45167" stroke-width=".26458" style="paint-order:markers fill stroke"/><path d="m84.848 110.11c0.17127-0.0863 0.37818-0.099 0.5587-0.0342 0.12886 0.0463 0.24371 0.13076 0.32622 0.24001 0.08251 0.10925 0.13237 0.24284 0.14161 0.37943 0.0092 0.1366-0.02217 0.27569-0.08921 0.39505-0.06704 0.11937-0.16947 0.21858-0.29092 0.28177m-2.2997 0.2544c0.34159 0.15303 0.72122 0.22026 1.0946 0.19384 0.43338-0.0307 0.85702-0.18825 1.2051-0.44825m-0.64641-1.262c-0.19654 0.31457-0.43494 0.60295-0.70692 0.85515-0.28309 0.26249-0.60254 0.48572-0.94637 0.66131" stroke-width=".31695" style="paint-order:markers fill stroke"/><path d="m84.792 109.85c0.22271-0.0722 0.41367-0.23733 0.51723-0.4473 0.10175-0.20629 0.11797-0.45319 0.0441-0.67102-0.07387-0.21784-0.23694-0.40393-0.44318-0.50578m-3.0101 0.72974c0.25557-0.44511 0.67715-0.7923 1.163-0.95777 0.60766-0.20695 1.308-0.12049 1.8471 0.22803m-0.11815 1.6241c-0.41427-0.28932-0.87297-0.51488-1.355-0.66632-0.49615-0.15587-1.0169-0.23313-1.5369-0.22804" stroke-width=".31695" style="paint-order:markers fill stroke"/></g></g><g stroke="#000" stroke-linecap="round" stroke-linejoin="round"><path d="m87.002 108.8c0.21842-0.0136 0.44095 0.0614 0.60713 0.20375 0.16618 0.1424 0.27425 0.35055 0.29579 0.56833 0.01678 0.16969-0.01817 0.34421-0.0994 0.49414-0.08123 0.14992-0.20844 0.2746-0.36016 0.35241-0.2427 0.12446-0.54609 0.12194-0.78711-6e-3 -0.24101-0.12769-0.41335-0.37685-0.44868-0.6473-0.03024-0.23147 0.03876-0.47437 0.18668-0.65496 0.14792-0.18059 0.37276-0.29613 0.60575-0.31061z" fill="none" stroke-width=".31695" style="paint-order:markers fill stroke"/><path transform="scale(.26458)" d="m326.93 412.01c-0.35047 0.35923-0.85195 1.455-0.96051 1.9374 0.28139 0.26442 0.65222 0.44412 1.0269 0.4594 1.4303 0.0583 2.9295-0.95026 2.9453-2.1062 4e-3 -0.31035-0.0347-0.94673-0.0347-0.94673-1.4822-0.18115-2.2668-0.20534-2.9771 0.65614z" stroke-width=".060944" style="paint-order:markers fill stroke"/></g><path d="m96.858 133.42c-0.292-0.39765-0.69415-0.71354-1.1496-0.90307-0.72383-0.30118-1.5374-0.27719-2.3032-0.44484-0.94278-0.20638-1.817-0.71468-2.4628-1.4319m4.3489 4.4046c0.29412-0.13351 0.5669-0.31391 0.80486-0.53232 0.32972-0.30262 0.59185-0.67848 0.7619-1.0925m0.1502 1.8334c-0.42715 0.0293-0.85838-1e-3 -1.277-0.0912-0.31201-0.0669-0.61701-0.16643-0.90842-0.29646m-2.1854 2.8435c0.87022-0.12181 1.7165-0.41225 2.4782-0.85047 0.721-0.41485 1.3658-0.96172 1.8927-1.6054m-2.4037 3.3911c-0.3997-0.15461-0.79258-0.32683-1.1771-0.516-0.26757-0.13163-0.53111-0.27146-0.79012-0.41924m-3.7249 1.3545c0.53798 0.37587 1.1496 0.64588 1.7899 0.79012 0.83868 0.18895 1.7395 0.15672 2.5316-0.17738 0.53231-0.22451 1.0077-0.58247 1.3706-1.032m-4.9503 2.8687c0.03614-0.31589 0.02524-0.63711-0.03225-0.94982-0.10112-0.55006-0.34834-1.0726-0.7095-1.4996m-6.5145-8.456c0.22493 0.34361 0.3646 0.74258 0.40312 1.1514 0.05391 0.57221-0.08744 1.1442-0.258 1.6931-0.16232 0.52235-0.35299 1.0395-0.43537 1.5802-0.13457 0.88328 0.03289 1.8068 0.4515 2.5961 0.44794 0.84465 1.1896 1.5387 2.0801 1.8866 0.83206 0.32509 1.7508 0.34417 2.6122 0.5805 0.90733 0.24891 1.7459 0.74366 2.4026 1.4174" fill="none" stroke="#000" stroke-linecap="round" stroke-linejoin="round" stroke-width=".31695" style="paint-order:markers fill stroke"/></g><path d="m199.73 83.582 0.37816-70.082h-132.3l0.37838 70.082c0.91638 37.43 20.549 73.315 65.769 92.906 45.224-19.592 64.853-55.476 65.769-92.906z" fill="none" stroke="#000" stroke-linecap="square" stroke-miterlimit="30" stroke-width="2.1168"/></g></svg>
