<?xml version="1.0" encoding="UTF-8"?>
<svg width="137.58mm" height="169.5mm" version="1.1" viewBox="0 0 137.58 169.5" xml:space="preserve" xmlns="http://www.w3.org/2000/svg" xmlns:xlink="http://www.w3.org/1999/xlink"><g transform="translate(605.2 19.725)"><g transform="matrix(3.8972 0 0 -3.4912 -930.39 344.38)" stroke-width=".09052"><g><path d="m118.06 82.198-33.945-0.04465-1e-6 21.219h33.947z"/><path d="m115.19 70.888-27.172-2.2376-2.4176 5.7784-1.4811 7.7245 33.945 0.04465-1.1172-6.4744z" fill="#fcdb00"/><path d="m103.06 70.993-6e-3 0.0087 0.1486 0.11563zm12.125-0.10492-0.36177 0.16186-1.1422 0.01861-3.1596 1.6561-1.7284 1.4091-1.4883-0.89485-2.2273-2.3029-0.93294 1.0086-0.94243-0.82692-0.15697-0.1039-0.11876 0.16921v4.5447c1.4788-0.72914 2.5317-0.20417 2.5317-0.20417 2.2083-1.2946 4.0354 0.45679 4.0354 0.45679-0.91383 0.38062-1.2179 0.98963-1.2179 0.98963 2.7411 0.22827 2.7411 2.7409 2.7411 2.7409-3.731-1.0659-5.0253 0.99013-5.0253 0.99013 1.751-0.2284 2.8016 0.83778 2.8016 0.83778-1.8129 0.45704-2.1924 1.3071-2.1924 1.3071 1.0662-0.07605 1.7974 0.74812 1.7974 0.74812-2.4831 0.83816-3.3206 2.8937-3.3206 2.8937 1.6162-0.68506 3.0457 0 3.0457 0-2.2845 1.9035-3.6551 4.4924-3.6551 4.4924 0.91396-0.53297 1.9038 0 1.9038 0-2.9695 1.9794-3.4643 3.7311-3.4643 3.7311 1.0278-0.45692 1.8651 0 1.8651 0-1.751 0.98976-2.9694 2.4364-2.3219 2.1316 0.64698-0.30457 1.4082 0 1.4082 0-1.294 0.45679-2.8172 2.8174-2.8172 2.8174s-1.523-2.3606-2.8174-2.8174c0 0 0.76161-0.30457 1.4088 0 0.64697 0.30482-0.57118-1.1419-2.3224-2.1316 0 0 0.83779-0.45692 1.8658 0 0 0-0.49538-1.7517-3.4647-3.7311 0 0 0.98988-0.53297 1.9035 0 0 0-1.3704-2.5889-3.6546-4.4924 0 0 1.4293-0.68506 3.0457 0 0 0-0.83791-2.0556-3.3205-2.8937 0 0 0.73127-0.82417 1.7974-0.74812 0 0-0.3795-0.85002-2.1924-1.3071 0 0 1.0503-1.0662 2.8018-0.83778 0 0-1.2945-2.0561-5.0252-0.99013 0 0 0-2.5126 2.741-2.7409 0 0-0.3047-0.60902-1.2185-0.98963 0 0 1.8274-1.7514 4.0355-0.45679 0 0 1.1563-0.57642 2.7477 0.31831 0.01-1.6073 0.01074-3.9615-0.06369-4.2585 0 0-0.15222-0.3243-0.24738-0.40035l-0.66646 0.495-1.3705-0.01898-2.1129 2.2079-2.0745-2.1128-0.51411-0.01898-2.6267-1.5609-0.70442-0.32343 0.2284-0.24775 0.36189-0.11376-1.5694-0.8388 2.2104-3.288 3.4374-3.7239c2.8984-2.3759 3.1467-2.5405 7.4264-4.952l5.322 3.2193 4.6025 4.2977c1.5667 1.9238 1.9738 2.6006 4.1729 6.6845z" fill="#094" stroke="#000" stroke-width=".25659"/></g><g fill="none" stroke="#000" stroke-linecap="round" stroke-linejoin="round" stroke-width=".25659"><path d="m101.05 75.01c0.64735 0.58991 0.64735 1.5798 0.64735 1.5798 2.0939-1.9037 3.7688-1.0658 3.7688-1.0658 2.2083-1.2946 4.0356 0.45679 4.0356 0.45679-0.91396 0.38062-1.218 0.98963-1.218 0.98963 2.7411 0.22827 2.7411 2.7408 2.7411 2.7408-3.731-1.0658-5.0252 0.99026-5.0252 0.99026 1.7509-0.2284 2.8014 0.83779 2.8014 0.83779-1.8129 0.45704-2.1923 1.3071-2.1923 1.3071 1.066-0.07605 1.7973 0.74812 1.7973 0.74812-2.4831 0.83816-3.3206 2.8937-3.3206 2.8937 1.6163-0.68506 3.0457 0 3.0457 0-2.2845 1.9035-3.6551 4.4924-3.6551 4.4924 0.91396-0.53297 1.904 0 1.904 0-2.9696 1.9794-3.4644 3.731-3.4644 3.731 1.0278-0.45679 1.8651 0 1.8651 0-1.751 0.98988-2.9693 2.4366-2.3219 2.1317 0.64698-0.30457 1.4083 0 1.4083 0-1.2941 0.45679-2.8173 2.8174-2.8173 2.8174s-1.5228-2.3606-2.8174-2.8174c0 0 0.76161-0.30457 1.409 0 0.64685 0.30482-0.5713-1.1419-2.3225-2.1317 0 0 0.83778-0.45679 1.8658 0 0 0-0.49525-1.7516-3.4647-3.731 0 0 0.98988-0.53297 1.9036 0 0 0-1.3705-2.5889-3.6547-4.4924 0 0 1.4293-0.68506 3.0458 0 0 0-0.83791-2.0556-3.3207-2.8937 0 0 0.73127-0.82417 1.7974-0.74812 0 0-0.37949-0.85002-2.1923-1.3071 0 0 1.0502-1.0662 2.8017-0.83779 0 0-1.2945-2.0561-5.0252-0.99026 0 0 0-2.5125 2.741-2.7408 0 0-0.30469-0.60902-1.2185-0.98963 0 0 1.8274-1.7514 4.0355-0.45679 0 0 1.6754-0.83791 3.7688 1.0658 0 0 0-0.98988 0.64748-1.5798z"/><path d="m100.4 91.285s-0.87537-1.7158-2.0935-1.6753l0.22827 0.83766s-0.69368-0.97802-1.7935-0.86975"/><path d="m99.598 87.782s-0.49475-1.1799-1.0296-1.3706c-0.23914-0.08479-0.41671 0.68544-0.41671 0.68544s-0.3047-0.5452-0.60939-0.76748c-0.30457-0.2224 0 0.72627 0 0.72627s-0.48876-0.62138-0.98152-0.72627"/><path d="m99.598 84.127s-0.8755-1.2183-1.5185-1.2565c-0.21329-0.01224-0.23252 0.6285-0.23252 0.6285s-0.91383-0.93257-1.1081-0.62937c-0.08329 0.12924 0 0.61888 0 0.61888s-0.91558-0.88998-1.8151-0.60177"/><path d="m99.674 81.615s-1.2554-1.3494-1.6751-1.1993c-0.26636 0.09515-0.17145 0.85652-0.17145 0.85652s-1.1997-0.62412-2.3413-0.60689"/><path d="m100.13 78.645s-0.82742-1.1582-1.123-1.1608c-0.1536-0.0014-0.30457 0.2284-0.30457 0.2284s-0.57105-0.66646-1.0089-0.66646c-0.26648 0-0.28559 0.7997-0.28559 0.7997s-0.61164-0.7997-0.8484-0.7997c-0.23664 0-0.36988 0.26686-0.36988 0.26686s-0.8444-0.66646-2.8967-0.26686"/><path d="m101.69 91.285s0.876-1.7158 2.094-1.6753l-0.22852 0.83766s0.69355-0.97802 1.7936-0.86975"/><path d="m102.49 87.782s0.49475-1.1799 1.0302-1.3706c0.23876-0.08479 0.41658 0.68544 0.41658 0.68544s0.3042-0.5452 0.60914-0.76748c0.30482-0.2224 0 0.72627 0 0.72627s0.48876-0.62138 0.98152-0.72627"/><path d="m102.49 84.127s0.87575-1.2183 1.519-1.2565c0.21291-0.01224 0.23202 0.6285 0.23202 0.6285s0.91383-0.93257 1.1085-0.62937c0.083 0.12924 0 0.61888 0 0.61888s0.91533-0.88998 1.8153-0.60177"/><path d="m102.42 81.615s1.2555-1.3494 1.6753-1.1993c0.26623 0.09515 0.17108 0.85652 0.17108 0.85652s1.1998-0.62412 2.3418-0.60689"/><path d="m101.96 78.645s0.8278-1.1582 1.1234-1.1608c0.15373-0.0014 0.3042 0.2284 0.3042 0.2284s0.57168-0.66646 1.0092-0.66646c0.26636 0 0.28546 0.7997 0.28546 0.7997s0.61152-0.7997 0.84828-0.7997 0.36963 0.26686 0.36963 0.26686 0.8444-0.66646 2.8972-0.26686"/><path d="m98.803 71.379 2.1095-2.0416-1.5517-1.5516 0.02835-0.80894-0.43756-0.45704-0.01911-0.91346-0.85664-0.79957"/><path d="m105.65 71.526-0.57081-0.59028v-0.51424l-0.57105-0.60939-0.11413-0.74213-1.0664-0.97802"/><path d="m95.182 65.815 1.1041 0.11438 1.8273 1.0849 0.60926 0.13349 0.26623 0.26636 1.9229 1.9228 2.2932 1.7807"/></g></g><path d="m-470.64 53.566 0.37816-70.082h-132.3l0.37837 70.082c0.91638 37.43 20.549 73.315 65.769 92.906 45.224-19.592 64.853-55.476 65.769-92.906z" fill="none" stroke="#000" stroke-linecap="square" stroke-miterlimit="30" stroke-width="2.1168"/></g></svg>
