<?xml version="1.0" encoding="UTF-8"?>
<svg width="400" height="500" xmlns="http://www.w3.org/2000/svg">
<path d="M397.57 2.032H2.43v201.44c5.04 151.08 80.64 241.73 197.57 294.1 117.94-54.39 193.54-145.03 197.57-294.1z" fill="#fff" stroke="#000" stroke-width="8"/>
<path d="M199.14 25.846c-1.603 2.188-2.884 3.128-4.17 4.691-2.09 2.56-3.935 5.17-6.363 7.428-2.11 1.995-4.074 4.02-5.492 6.584-2.511 4.753-3.293 10.006-2.998 15.336-.08 3.78.409 7.341 1.238 11.02.78 4.53 2.024 9.348 5.515 12.586 1.772 1.724 4.622 3.161 4.899 5.865.589 3.755 1.1 7.576 1.027 11.381-.174 5.731 2.556 18.811-.565 25.383-1.03-4.595-1.195-10.716-1.796-11.863-2.692-5.047-4.068-10.643-5.631-16.104-1.291-3.834-1.226-7.645-.998-11.62-1.171-.236-2.38-.389-3.522-.737-1.052-.86-1.535-2.473-2.064-3.68-6.524-12.359-9.186-14.319-10.554-17.598 1.795-5.615 1.94-9.839.14-15.865-1.226-2.72-2.367-5.495-4.404-7.724-2.614-2.794-5.119-5.384-8.61-7.078-10.405-5.193-29.645.81-34.288.257 1.572 2.96 3.374 15.965 6.072 23.163 3.29 7.834 12.986 10.499 20.852 10.762 4.788.12 12.319.228 17.16-.816.644.609 7.658 11.456 12.113 19.137-3.233-1.244-5.36-3.93-8.762-4.89.09 1.533.218 3.063.338 4.595-2.35-1.321-6.351-2.832-9.372-3.318-5.964-7.017-14.67-10.106-23.624-7.634-2.364-1.839-4.86-3.066-6.931-3.962-1.815-.865-3.884-1.53-5.15-3.182-2.056-2.554-3.238-5.303-5.972-7.315-3.263-2.404-7.03-4.751-11.23-4.673-5.696.06-10.55 2.445-15.088 5.683.847 2.073 1.92 3.984 3.131 5.858 1.576 2.434 2.886 5.199 4.748 7.404 2.103 1.106 4.229 2.102 6.65 2.12 8.438.486 10.369.58 16.665-4.677 2.945 1.007 4.964 1.645 8.685 4.155-8.76 5.734-20.863 10.753-24.354 21.568 3.726 6.12 19.285 10.129 24.38 9.718 5.605-1.07 9.432-3.528 14.27-6.406 3.947-2.452 5.936-5.944 9.427-9.201 1.958-1.784 2.736-4.37 4.25-6.244 4.384 1.283 8.509 3.224 10.914 5.175 3.052 5.156 4.928 10.581 7.157 16.145 1.473 3.671 2.644 7.472 3.587 11.312.45 1.747.372 3.49.258 5.276-.865-.296-1.776-.322-2.435-.697-1.139-9.63-5.347-14.557-11.14-16.445-5.656-1.996-17.007-.644-23.09 4.537 1.249 17.744 14.65 19.605 16.9 19.793 5.433.733 11.47-1.358 15.859-4.224 2.584 1.226 3.522 1.67 5.048 4.288 2.644 3.893 2.902 8.062 4.278 12.441.997 3.756.475 7.369-.36 11.094-1.424 1.37-3.756 2.734-3.756 4.945-.408 2.974 1.022 5.095 1.653 7.848.244 1.833-.683 22.93-.647 23.623-.523-3.028-3.264-6.475-5.21-8.897l-4.147-4.885c-.68 2.74-1.394 5.342-1.244 8.202.222 4.477.437 10.88 1.648 15.746-4.473-6.122-7.2-10.093-12.1-13.742.07-1.388-.425-3.293-.619-6.463 5.565-5.9 9.404-10.786 9.353-19.002-.012-4.458-1.324-9.068-3.87-12.738-3.558-4.7-9.61-10.165-13.833-14.244-2.28-2.762-3.32-3.358-4.035-5.16-.632 2.304-2.717 3.94-4.273 5.267-2.277 1.995-4.568 3.827-6.274 6.379-2.932 3.763-5.112 8.784-3.916 13.607.895 3.527 2.486 6.962 4.463 10.016 2.922 4.644 11.758 13.604 18.637 17.287-.118 1.195.116 2.432-.045 3.066-7.057-3.109-16.808-5.544-21.428-6.716-4.807-1.154-9.24-3.31-14.018-4.543-1.88-.57-3.983-1.002-5.341-2.547-1.562-1.76-2.764-4.067-3.233-6.38-.48-1.671 1.02-2.884 1.988-4.019 1.574-1.803 3.612-2.667 5.805-3.484l-.504-2.941c1.255-.396 2.504-.786 3.748-1.19-.5-.858-.998-1.71-1.49-2.564 1.4-.78 2.807-1.56 4.207-2.35-1.08-.84-2.169-1.67-3.25-2.52 1.165-.81 2.328-1.612 3.482-2.435-.73-.778-1.458-1.557-2.185-2.338.234-1.743.444-3.492.582-5.252-5.98.936-8.297 1.542-10.629 2.817-2.075-4.473-1.56-7.424-6.539-12.67-1.01-1.153-3.532-.853-5.137-.606-.937 2.806-2.251 5.412-3.658 8.008-1.35 2.475-1.307 4.969-1.494 7.709-4.957-.907-9.38-1.193-15.107-.152-1.157 5.267 2.5 10.814 7 13.49-.83 1.13-3.716 3.94-4.508 5.088 1.327 1.285 4.747 1.437 6.435 2.17 4.706 2.354 13.693-1.411 15.022 2.115.955 2 1.5 4.23 2.09 6.367.59-.168 1.263-.535 1.932-.752-.668.218-1.342.587-1.93.754-2.83-.023-5.737-1.165-8.512-1.742-4.717-.973-8.805-3.005-13.27-4.705-6.44-2.404-12.507-6.634-17.116-11.717-.81-1.05-3.964-2.279-3.983-3.667 1.58-.43 4.322-1.72 5.535-2.711 4.596-2.117 10.1-4.61 13.884-8.664 2.806-3.004 4.788-8.348 4.992-12.568.397-5.91-1.521-11.755-2.91-17.439-.973-4.05-2.2-8.017-3.543-11.945-2.602 1.85-4.977 3.974-7.711 5.47-3.154 1.76-6.24 3.05-8.975 5.507-2.193 2.02-4.424 4.408-5.385 7.285-1.364 4.17-.901 8.298-1.183 12.576-2.632-2.45-4.176-5.596-4.17-9.236-1.69-9.356 1.659-16.972 4.162-25.514 2.526-1.24 9.406-3.525 18.352-13.02 1.695-1.893 3.36-3.86 3.414-6.545.145-3.79.207-7.666-.226-11.44-.865-4.817-3.263-9.565-5.24-14.022-1.359-2.434-2.356-4.077-4.403-6.467-4.343 1.342-7.946 3.376-11.48 6.137-2.666 2.133-4.71 5.142-6.41 8.074-2.32 3.912-2.777 9.058-2.82 13.518.734 6.093 1.824 12.203 3.603 18.086.68 2.217.789 3.473 1.932 5.115-.625 3.683-2.032 9.045-2.692 12.73-.475 2.674-1.045 7.184-1.189 9.894-.878-1.052-1.339-3.916-2.096-5.057-1.67-2.35-3.986-9.113-4.683-11.869 1.733-6.82 2.3-12.083 1.103-19.288-1.063-4.547-3.01-9.56-6.453-12.846-2.41-2.332-5.402-3.43-8.346-4.92-4.314-2.235-8.985-3.546-13.42-5.553.216 2.247.494 4.418.051 6.659-.698 3.73-1.16 7.479-1.469 11.266-.27 3.235 4.755 23.264 25.306 26.088 1.25.858 3.115 6.138 3.638 7.478 1.04 3.046 2.363 5.968 3.48 8.984-1.442.438-3.111.823-4.367 1.67-.132.926-.385 1.79.414 2.494 2.042 2.05 5.742 2.549 7.941 4.135 1.184 1.322 1.406 3.59 1.862 5.26 1.574 7.517 5.351 13.633 6.607 21.18-2.445-.871-5.347-2.38-6.964-2.972-1.255-4.901-3.288-10.878-6.366-14.993-2.77-3.894-7.436-6.375-12.164-6.795-3.636-.24-6.337 1.327-9.527 2.703-3.142 1.418-6.38 1.965-9.674 2.871 2.103 6.905 4.603 13.63 7.463 20.25 1.94 4.272 6.682 6.224 10.666 8.13 3.136.588 6.478.418 9.656.323 4.176-.493 5.872-4.478 8.786-7.134 1.95.775 4.402.879 6.144 1.324 2.944.83 4.068 3.303 5.828 5.539 2.296 3.28 5.372 5.623 7.925 8.687-2.56 1.364-5.174 2.73-7.908 3.715-1.25.432-2.452.75-3.75.27-2.169-.776-4.183-1.917-6.365-2.662-3.148-1.213-6.918-1.058-10.217-.66-5.16 1.062-9.945 4.17-12.547 8.82-1.634 2.8-2.162 5.744-2.715 8.886-.469 2.926-1.286 5.594-1.094 8.598-.042 3.125-.283 6.273-.45 9.398a83.947 83.947 0 0 0-1.298 2.252c1.602-.843 4.5-2.096 6.754-2.732 6.244-.378 11.14-1.57 16.197-3.894.78-.72 1.566-1.425 2.3-2.194 1.333-1.244 1.91-2.387 3.233-4.26 2.074-2.112 4.647-10.707 8.184-17.46 1.91-.536 3.335-1.256 4.897-2.481l11.41-1.606c2.24.84 4.427 1.84 6.644 2.74.56 2.837 1.07 5.347 3.863 6.795 3.25 1.124 5.824.066 8.907-.769 4.283-.703 9.18 1.015 13.135 2.566 2.2.883 4.631 1.478 6.681 2.674l.121.602c-2.44 1.202-5.068 1.946-7.441 3.322-2.884 1.665-5.875 3.305-7.906 6.027-2.758 3.965-5.19 8.015-6.014 12.857 4.482 1.262 9.175 1.555 13.7 2.733-.27 2-.925 3.815-2.614 5.047-3.197.703-6.964-1.658-9.608.252.403 3.275 2.884 6.495 4.537 9.29-1.485.72-2.97 1.43-4.44 2.17-.05 1.316-.098 2.637-.194 3.952 5.816 2.86 12.367 4.105 18.705 2.236a72.612 72.612 0 0 1 1.767 4.44c-9.857-1.943-20.84-2.609-31.152-2.45l-.853-.494c.397-6.483 3.45-10.992 2.566-17.27-.69-4.2-1.834-8.632-4.154-12.242-2.457-3.593-5.678-6.962-9.145-9.594-4.44-3.118-8.975-6-14.139-7.802-.414 4.494-1.11 8.966-1.959 13.395-.565 3.034-.925 6.001-.63 9.095.287 2.806 1.688 5.523 3.148 7.903 2.14 3.388 4.759 6.495 7.643 9.277 2.6 2.572 8.699 6.326 10.725 9.492-6.753-.708-12.106-1.359-16.371-.663-5-5.17-9.878-8.6-17.291-10.679-6.31-1.785-12.81.853-17.03 5.617-1.856 2.157-3.189 4.961-4.619 7.43-1.178 2.121-2.626 4.44-2.76 6.922 3.594 1.573 6.035 4.724 9.19 6.883 2.512 1.597 5.187 3.021 7.969 4.08 3.01 1.14 5.939.952 9.094.832 5.657-1.6 9.512-5.605 14.497-16.297 1.26-.925 5.47-1.726 8.75-1.726 3.06-.06 5.98-.26 8.946.66-.256 2.764-1.391 5.442-2.68 7.834-8.332 4.212-15.287 9.159-21.853 15.707-1.802 3.862-3.03 7.452-2.653 11.609 1.916 4.565 4.453 9.549 5.787 13.31 12.214-2.386 20.944-2.564 26.203-14.821 2.67-7.875-.057-18.74-3.736-26.152 1.047-3.209 1.442-5.255 2.518-7.223 1.458-.34 22.599 1.29 30.15 3.77 3.756 1.328 7.613 1.527 11.268 3.15 2.944 1.19 5.401 3.071 7.48 5.457-2.577 1.22-5.265 2.658-8.148 3.687-7.12-1.115-13.585 1.214-19.612 4.971-2.967 2.614-5.52 6.28-6.242 10.215-.414 3.683-.012 7.22.703 10.826.65 3.118 1.557 5.149 1.948 9.354 8.05-2.74 12.646-3.236 16.596-4.614 2.974-1.28 6.621-2.614 8.568-5.33 1.328-1.953 2.218-4.29 2.72-6.586.603-4.993-.075-10.158-1.809-15.07 1.686-1.31 5.899-4.36 7.828-4.565 5.497 1.19 9.246 4.272 13.505 7.666 3.48 2.74 6.27 6.124 8.807 9.729 1.322 1.94 2.385 3.971 3.84 5.828 1.152 1.556 2.56 3.045 3.48 4.752-2.723 3.43-4.825 4.997-6.984 6.26-4.317-1.74-14.27-1.849-18.975-1.026-3.779.685-7.535 1.232-10.562 3.811-4.164 3.49-5.892 9.143-5.766 14.438.126 4.789-.36 9.65.27 14.385 1.862-.654 3.45-1.597 5.455-1.531 7.003.17 21.06-.526 26.182-8.334 3.082-5.186 5.359-12.034 5.43-18.217 2.113-1.68 4.502-3.842 6.473-5.579.774 1.244 1.935 2.686 1.953 4.207.24 3.37-1.136 6.801-1.1 10.25.583 10.043.731 20.637.547 30.65-.362 7.878.618 20.51-.817 26.994-.715 1.75-1.995 4.48-4.01 5.563-1.87 1.005-4.32.822-6.365.252-4.31-.782-6.13-3.1-6.785-7.23l-.781-7.805c-9.57-.005-9.637 6.203-10.281 12.729-4.34-2.406-16.888-5.888-26.424-2.055-2.307.805-4.544 1.87-6.875 2.584-2.06.643-4.061.563-6.242.799 2.259 4.475 6.67 6.338 10.238 9.36.126 1.586-1.87 2.748-2.957 3.6-3.226 2.068-5.844 5.407-9.559 5.997-6.162.978-12.29-1.165-18.156-4.549-3.987-2.18-7.94-1.952-11.803-.66 1.826 2.98 4.495 4.76 7.073 7 5.51 4.777 12.036 9.552 19.582 9.96.072 3.504.071 6.737 1.843 9.886 1.454 2.817 3.968 4.162 6.696 5.502 2.908 1.364 5.003 1.567 8.103.552-.99-1.857-2.138-3.633-2.744-5.652-.607-1.923-.54-4.152-.457-6.147.24-4.675 1.24-8.253 6.213-12.049 1.995-1.797 4.776-2.763 7.209-3.851.66 2.764 1.226 5.33 3.293 7.433 1.844-1.112 3.702-2.103 5.738-2.812 3.684-1.14 5.764-4.32 9.387-5.647 3.569-1.635 7.261-1.647 11.096-1.238-1.231 2.277-2.685 4.063-4.572 5.817-3.473 3.215-5.684 7.77-6.453 12.408-.65 5.18.36 10.333-.614 15.549-.468 3.772-2.408 6.555-3.965 9.902 7.312 1.79 12.277-.42 15.19-4.186 1.997-2.42 4.06-7.91 4.494-12.225.355-5.365 3.9-10.503 7.613-14.19 3.065-2.399 6.89-4.79 10.867-5.053.204 3.743-.114 7.373-1.658 10.834-1.424 3.695-4.001 6.248-6.584 9.13 2.319 1.37 4.606 2.488 7.363 2.518 3.305.14 6.401-1.664 9.273-3.094.817 2.15 1.719 4.267 2.53 6.418.162.583.576 1.46.234 2.03-1.07 2.187-3.258 3.978-4.922 5.738-2.716 2.842-5.774 6.063-7.252 9.752-1.448 3.623-2.275 7.427-1.728 11.338.343 3.175.624 3.574 4.697 7.416 1.375-1.592 2.276-3.57 3.574-5.24 1.827-2.343 11.911-12.13 15.238-13.682.583 3.04 1.105 5.984.678 9.097-.322 8.834-2.167 15.386-7.73 22.482 7.103 3.362 14.61-3.78 18.52-9.222 3.126-4.447 7.45-23.045-1.457-40.545 8.097-6.402 8.164-11.357 6.498-21.104.384-.42.763-.846 1.14-1.268 1.798.823 3.489 1.491 4.93 2.91 3.04 2.944 4.896 7.292 6.981 10.97 2.62 4.897 5.402 9.593 9.41 13.532 3.148 2.89 7.24 5.1 11.488 5.744 1.964.33 3.432-.51 5.116-1.375-2.265-2.33-5.398-4.454-6.936-7.314-2.776-5.066-3.119-11.792-4.686-16.984-1.917-5.42-6.305-9.399-10.492-13.105-1.316-1.058-3.577-3.205-6.904-3.9 5.265-1.014 12.278 2.087 16.153 3.373 6.133 1.778 7.774 8.44 10.209 13.656 5.49-2.425 7.16-7.67 8.066-10.785 2.812 2.08 5.412 4.422 8.17 6.58 1.472 1.16 2.6 2.559 3.508 4.201 1.436 2.6 2.649 2.169 2.655 5.197-.114 5.418 1.792 8.893 5.148 12.143 5.952-4.016 6.932-8.785 6.097-14.133 2.512-.835 4.982-1.64 7.399-2.74 4.639-2.097 8.788-4.98 13.52-6.902 1.706-.673 3.01-1.731 4.273-3.041-5.632-5.641-12.581-1.748-19.084-.12-3.388.734-7 1.72-10.473 1.49-3.75-.424-7.295-3.467-10.25-5.648-1.815-1.28-4.117-4.363-4.898-6.406 4.6.434 6.932.085 11.217-3.313-5.194-2.75-10.158-5.939-15.188-9.105-3.06-1.905-6.436-2.577-9.97-3.03-3.16-.352-9.012 2.12-11.677 4.303 4.631-13.05-3.207-13.505-7.041-13.816-1.358 4.236-.997 7.015-2.727 10.937-1.443 2.68-4.23 5.055-7.271 5.596-2.476.15-5.304-.776-7.065-2.572-2.53-2.325-3.515-6.273-3.275-9.608-1.436-17.589-.744-36.33.806-53.75 4.548-3.547 5.45-6.908 7.311-11.166 1.202-1.658 3.161-2.866 4.791-4.068 1.927 1.34 4.12 2.597 5.73 4.316.122 2.498.022 5.06.907 8.645.698 2.908 1.995 5.69 2.94 8.531.87 2.566 2.006 4.957 3.99 6.856 2.895 2.752 6.386 4.946 10.241 6.064 6.165 1.874 12.614 2.843 18.938 2.936 3.345.814 4.622 1.007 6.235 1.32-1.094-1.787-1.854-4.534-2.473-5.826-.734-6.183 1.451-12.63-8.633-24.58-7.972-7.416-17.596-8.257-27.074-6.29-3.46-1.303-6.414-4.47-9.1-6.95 3.953-8.64 11.738-12.4 21.6-18.749l2.753 1.477c-.954 7.123 12.549 17.24 12.549 17.24 3.942 2.902 8.846 4.75 13.496 6.193 4.35 1.4 8.875.908 13.363.66-.943-5.502-3.33-10.843-6.057-15.687-2.33-4.098-5.262-7.664-9.59-9.737-7.499-3.914-14.544-4.301-22.463-1.816-.745.006-.62-.624-1.281-.93 6.018-1.997 11.607-5.28 17.85-6.556 3.635-.643 7.096-1.89 10.75-2.438 2.992-1.158 8.488-2.396 18.969-4.963-.877 5.083-2.049 10.34-1.887 15.512.445 5.113 2.421 10.413 5.996 14.18 2.992 3.227 6.613 5.84 10.744 7.408 5.262 1.652 8.478 4.567 12.912 6.801.95-5.91 5.001-13.446 5.264-15.736.403-5.25-.59-11.746-4.826-15.357-5.6-5.19-13.23-7.929-19.311-12.623.09-.93.457-1.791 1.328-2.236 2.277-.883 5.06-.738 7.475-.738 2.836.048 6.283-.085 8.933 1.05 3.01 1.502 4.394 5.024 5.926 7.805 1.778 3.407 4.32 5.943 7.041 8.586 1.713 1.647 3.647 3.025 5.895 3.848 3.653 1.298 7.335 2.294 11.254 2.209 6.135.247 12.37-2.456 18.564-3.39-2.085-5.091-3.356-12.997-6.221-17.128-3.183-3.785-7.532-6.627-12.123-8.412-3.87-1.532-8.177-1.366-12.273-1.114-5.684.74-11.284 3.174-16.836 4.586-5.457.874-12.768-.623-19.125.844 1.05-2.735 6.437-8.727 10.58-13.076 2.809.21 10.963 3.375 20.484-3.082 2.565-1.712 4.914-3.473 6.451-6.224 2.164-3.936 3.612-8.4 4.063-12.87.317-4.453.926-8.888 1.683-13.28.282-1.862 1.125-3.443 1.858-5.149-3.655.97-6.395 2.699-7.897 3.272-6.92.916-16.338 3.332-21.156 7.226-2.848 2.866-6.198 6.092-7.695 9.9-2.05 5.898-2.144 12.2-.102 17.872-2.223 2.578-7.489 9.328-9.537 11.979-4.074 3.575-9.769 3.438-14.82 4.05-4.098.788-8.142 1.324-12.324 1.061.258-1.28.515-2.559.809-3.834 3.528.318 7.758 1.725 11.215.414 1.88-.672 2.175-2.477 2.41-4.232.053-.456-.578-.902-.813-1.256-1.267-1.316-2.144-2.589-2.955-4.223 1.07-.012 2.138-.006 3.201-.006-.57-.956-1.151-1.906-1.716-2.867a47.913 47.913 0 0 1 3.664-1.148c-1.022-2.86.51-6.23.486-9.26-1.599.007-3.197-.04-4.79-.01-2.505.024-4.962 1.047-7.06 2.363-2.589 1.526-2.475 3.878-3.832 6.246-1.178 1.172-2.926 1.85-4.386 2.608v-.004c1.459-.756 3.207-1.436 4.383-2.606 1.358-2.368 1.244-4.722 3.834-6.248-.5.036-.992.072-1.485.102-.223-.548-.443-1.098-.658-1.649v-.002l-.002-.002c-1.02-2.709-2.24-5.134-4.793-6.695-2.037 1.94-3.81 3.249-6.572 3.969-.27 1.136-.475 2.392-1.01 3.443-.745.535-1.58.787-2.457.998-1.862-1.052-3.66-2.2-5.492-3.293.565 1.376 1.04 2.721 1.177 4.211-.65.169-1.292.342-1.935.53 1.04 1.483 1.455 2.65 1.683 4.435.69.655 1.382 1.315 2.067 1.982-.757.492-1.527.968-2.285 1.471 1.19.296 2.398.51 3.582.848-.367.817-.74 1.636-1.125 2.453a269.98 269.98 0 0 1-3.1-.2c.69 2.266.405 4.459.129 6.772 1.917.878 3.737 1.948 5.654 2.813 1.334.3 2.842.183 4.188.006 2.073-1.154 3.845-2.872 5.767-4.254-.498 2.29-1.347 5.201-3.474 6.511-5.594 2.728-12.535 2.77-18.123 5.342-5.796 1.592-10.777 4.6-15.95 7.409.157-1.04.42-1.633.805-2.612 1.52-.591 3.63-1.96 5.295-3.186 3.364-2.386 6.853-5.491 8.728-9.216 1.196-2.83 1.612-6.015 2.399-8.983 1.76-6.928-.086-14.067-1.858-20.797-.775-3.16-2.295-5.93-3.797-8.785-4.47 2.187-7.804 5.6-11.686 8.617-3.335 2.62-6.165 5.948-8.51 9.463-2.703 4.218-3.194 10.012-2.876 14.891.065 1.448 1.205 12.55 8.842 18.673-.1 1.08-.254 2.314-.372 2.827-6.252 3.697-10.452 5.269-13.549 8.012-2.643 1.94-4.518 4.479-6.38 7.129 5.58-8.231 4.483-18.43-.472-26.586-2.565 1.89-2.594 6.974-4.421 8.267-.576-3.33-1.243-7.034.861-9.978 2.655-3.684 1.514-9.429 1.797-13.78-.126-1.85 1.37-2.521 2.445-3.753 1.207-1.16 1.724-2.645 2.457-4.129 2.115-.174 4.056.174 5.678-1.521 3.55-3.88 6.242-8.7 9.264-12.994 1.646-2.254 4.291-3.883 6.443-5.643 2.3-1.706 3.903-3.995 6.055-5.857a46.298 46.298 0 0 0 6.133-6.569c.872-1.094 1.43-1.345 2.826-1.394a72.243 72.243 0 0 0 4.992 9.03c2.037 2.65 5.15 4.507 7.678 6.688 1.637 1.45 10.743 8.63 28 6.01 4.55-.374 7.035-2.14 11.53-2.836-2.442-3.255-4.816-6.519-6.843-10.06-1.49-2.596-3.515-4.777-5.258-7.264-1.742-2.296-3.279-4.525-6.289-5.168-5.864-1.07-11.904-1.934-17.852-1.682-2.92-.114-9.638.942-12.54 1.026 6.646-3.708 26.175-5.651 37.703-10.766 7.835-3.025 13.512-7.736 21.043-9.872 6.65-1.774 13.176-3.238 19.895-5.011 1.588.981 5.884 3.66 14.422 3.719 3.328-.006 6.926.268 10.17-.532 3.575-.858 6.533-3.479 8.557-6.453 1.713-2.884 2.38-6.337 3.845-9.377 1.874-3.834 3.762-7.477 6.688-10.625-2.097-.703-4.213-1.326-6.334-1.945-3.815-1.105-6.5-4-10.357-5.227-3.15-1.004-6.868-1.909-10.143-1.111-5.217 1-12.636 6.575-15.562 10.74-2.47 4.417-3.736 10.998-4.184 16.736-7.378 1.682-7.72 2.557-14.287 3.111.072-2.56.933-11.004 1.149-13.557 2.5-.5 5.916-3.48 7.636-5.029 2.812-2.578 5.301-5.244 6.555-8.934.77-1.934 1.335-5.185 3.408-6.146 1.995-.397 4.14-.018 6.14-.432 1.593-.974 1.953-1.82 1.64-3.66-1.267-1.112-2.913-1.387-4.487-1.861 1.712-1.748 4.55-4.548 6.182-6.364 16.267 1.34 26.275-12.497 27.248-28.364.757-4.422.115-8.84 1.022-13.23-4.02.378-6.88 2.505-10.412 4.175-2.208 1.2-14.786 8.24-18.35 14.713-1.082 1.965-2.136 3.938-3.428 5.782-.42-2.39-1.205-5.452-1.416-8.193 8.586-18.493-1.523-39.49-15.95-47.855a46.432 46.432 0 0 0-4.943-3.138c-1.19 1.832-2.17 3.738-2.722 5.865-1.364 5.06-2.656 10.135-4.164 15.164-1.207 4.104-.253 7.921 1.123 11.826 1.178 3.136 3.214 5.629 5.593 7.935 3.15 3.028 6.616 5.77 10.63 7.567 2.18 1.027 2.359 2.468 6.67 3.412 1.31 3.131 2.721 7.113 3.437 10.546-.632 2.737.018 8.575 2.016 11.507-2.82 4.949-5.434 6.412-8.35 9.304-.93-2.493-1.825-4.92-3.375-7.12-4.4-6.45-11.395-8.95-14.322-15.847-1.4 1.74-2.238 3.136-3.176 3.88-3.44 1.585-4.857 2.334-7.639 4.581-2.77 2.806-5.33 5.81-6.135 9.79-.595 3.741-.017 7.576 1.305 11.114 1.166 3.065 3.495 5.84 5.238 8.647 2.333 3.764 6.16 7.843 9.323 9.986-.514 4.109-1.025 10.547-2.57 14.115-4.995 1.802-10.322 3.273-14.774 4.918-4.308.92-8.268 2.485-12.643 3.067 1.244-3.063 2.7-5.324 4.91-7.764.397-1.172-.101-2.92-.095-4.188l2.494-.306c-.216-.757-.435-1.515-.639-2.272 2.776-.9 4.67-2.595 6.485-4.818.943-1.268 2.066-1.952 3.484-2.57-.877-1.64-.99-2.59-.72-4.44l2.277-1.234c-1.034-.06-2.075-.114-3.108-.174-.138-1.286-.238-2.57-.4-3.856-1.454 1.184-2.892 2.33-4.598 3.141-.367-.913-.722-1.826-1.082-2.74-.847.81-1.654 1.888-2.71 2.435-1.449.012-3.397.113-4.239-1.298-1.07-1.394-1.95-2.939-2.78-4.483-1.446-2.632-1.915-5.745-2.745-8.701-1.23-.03-2.457-.071-3.69-.125-2.498 4.747-4.425 9.63-4.984 15.014l-1.328.2c-.307-.998-.608-1.99-.92-2.98-.69.564-1.347 1.219-2.11 1.689-.997.34-2.199-.224-3.25-.15-1.94.071-3.928-.048-5.851.21-.228 1.575-.086 3.212-.104 4.799-.186 2.763 2.279 4.959 4.682 5.848.03.925.046 1.856.07 2.78 1.593.39 2.748.92 4.1 1.835 1.286.89 2.637.816 4.133 1.008.613 4.026-.225 7.793-1.198 11.67-.45 1.586-.851 3.856-2.142 4.992-2.21 1.123-5.068 1.141-7.477 1.658-13.074 3.994-16.025 5.627-24.816 12.979-3.437 2.733-8.538 6.787-11.89 9.647.228-1.91 2.493-9.218 3.935-10.679 5.023-1.227 7.163-2.212 11.37-5.798 5.382-4.73 9.112-11.39 10.681-18.352.931-7.133-.93-14.024-4.338-20.266-1.424-2.464-2.874-4.644-4.283-7.498-3.751.745-12.176 5.408-14.799 8.164-5.458 5.31-10.33 11.765-10.678 19.66.144 7.997-.272 18.06 6.96 23.184-1.372 5.747-3.121 10.694-3.476 16.349-.187 3.047-2.75 5.746-4.326 8.28-1.016.8-2.181 1.107-3.4 1.444l.951-2.777c.54-1.803 1.23-3.727 1.326-5.62-.102-2.403-.83-4.774-1-7.183-.186-2.644-.147-5.31-.152-7.96a86.395 86.395 0 0 1-4.076 1.902c-.534-2.56-1.128-5.173-1.254-7.793-.132-2.05.636-3.954.594-5.973-.186-2.025-1.545-3.953-1.791-5.984-.3-3.226.3-6.188.96-9.307.487-1.952-.166-3.557-.587-5.432-.486-1.887-.553-3.815-.397-5.756.193-2.265 1.201-4.207 1.201-6.521-.042-4.307.369-9.503 2.694-13.252 1.226-1.653 3.29-3.942 5.449-4.08 3.857 2.662 7.27 5.322 12.09 6.043 5.51.523 10.922-1.087 15.693-3.785 2.806-1.604 5.804-2.87 8.562-4.559-.849-1.121-10.002-13.08-16.428-16.297 1.96-3.575 5.397-5.329 8.844-7.203 1.99 2.596 3.492 5.144 6.268 7.012 3.22 2.133 6.056 4.302 10.088 4.5 6.706.325 14.702.503 20.404-3.582-1.93-3.6-11.445-19.372-14.47-22.977l7.84-3.283c1.788 2.335 6.005 6.311 10.267 7.603 5.089 1.556 11.585.44 15.14-3.76 2.73-3.077 4.873-6.683 7.301-10.006-1.653-1.328-3.346-2.359-5.257-3.279-6.131-3.81-12.717-7.167-20.207-6.057-2.637.39-4.415 2.924-5.93 4.9-1.495 2.489-2.435 4.544-2.758 6.811-3.782 1.204-6.308 2.565-8.684 4.188-2.453-1.711-5.136-3.192-8.43-3.512-7.01-.622-16.806 2.416-18.354 8.393-3.983 1.712-12.75 5.44-16.301 8.115-.656-.8-1.286-1.605-1.815-2.488-.144-1.31.63-2.691 1.19-3.84 2.295-4.181 5.713-9.304 9.45-12.386 5.334.25 9.036-.352 13.989-1.692 7.052-1.53 12.794-5.283 15.316-12.223 2.09-5.63 1.591-10.938 2.86-16.773.641-4.35 1.945-8.558 2.558-12.9-6.776.705-13.511 2.069-20.332 2.933-10.563 1.62-15.921 12.257-16.344 13.535-1.01 3.016-1.477 6.264-2.049 9.383-1.123 6.098-.825 9.793.424 15.371-.932 3.323-6.168 7.917-7.772 10.91-.956 1.634-1.664 3.506-2.83 5.002-1.358 1.466-3.046 2.526-4.254 4.166-2.854 3.773-4.885 8.58-7 12.756-1.526 2.638-3.714 10.021-4.395 16.066.446-11.559-.87-23.053-.636-34.607 10.224-4.908 14.738-13.25 16.291-23.88.427-6.357-.988-13.42-3.758-19.23-2.578-5.27-8.046-9.887-11.693-14.429zm-47.084 55.15.002.002c-.666.545-1.35.98-2.047 1.336.697-.357 1.38-.793 2.045-1.338zm1.158 5.508h.004c-.017.042-.046.07-.064.111.012-.028.05-.084.06-.111zm87.83 5.513c-.18 1.522 2.58 6.76 4.229 7.727a90.815 90.815 0 0 0-10.148 5.738c-2.872 1.904-5.942 1.84-9.037 3.108a33.998 33.998 0 0 0-4.786 2.36 298.51 298.51 0 0 1-3.767 2.18c1.22-4.235 3.774-7.534 6.543-10.862 5.395-4.275 12.266-8.823 16.967-10.25zm-23.018 4.18c.634.454 1.37.792 1.92 1.254-.55-.462-1.286-.798-1.92-1.252zm-6.584 17.461c-.611 1.777-.822 3.51-.924 5.246.102-1.736.311-3.468.922-5.244zm-8.232 15.203c-.766.36-1.691.58-2.283.903v-.002c.59-.32 1.517-.542 2.283-.9zm-98.951 1.033h.002c-.576 2.073-.76 4.183-1.008 6.315-.192 1.712-.685 3.467-.648 5.185.276.757.76 1.456 1.236 2.112h-.002c-.475-.656-.962-1.354-1.238-2.112-.037-1.718.456-3.472.648-5.185.247-2.133.433-4.243 1.01-6.315zm19.652 8.3h.002c-.12 5.767-.879 12.611-4.358 17.4-1.27 1.991-1.283 2.01-.002-.003 3.478-4.788 4.238-11.63 4.358-17.398zm173.7 4.78.01.006.08.194c-.978.358-2.03.705-3.078 1.094 1.046-.389 2.095-.736 3.072-1.094zm-7.914 3.887c-2.27 1.965-3.85 5.012-5.51 7.512h-.004c1.658-2.5 3.238-5.545 5.51-7.51zm-9.725 8.188c-.41.207-.772.495-1.06.904-.436.558-.904 1.239-1.16 1.957-.257.718-.302 1.474.107 2.183 1.417 2.63 4.733 3.911 7.297 5.131-2.565-1.22-5.883-2.499-7.3-5.129-.409-.709-.36-1.466-.105-2.185.257-.718.722-1.4 1.157-1.957a2.81 2.81 0 0 1 1.064-.904zm-90.643 5.576h.004c-.74.89-1.433 1.835-2.148 2.676.715-.84 1.404-1.785 2.144-2.676zm89.63 5.074c3.021.57 5.23 1.474 6.968 4.14-2.98 1.203-5.96 2.175-9.205 2.247.48-2.235 1.101-4.386 2.236-6.387zm-86.103 5.602a71.277 71.277 0 0 0-4.05 3.046v-.002a71.203 71.203 0 0 1 4.05-3.044zm11.057 3.068c.401 1.647.905 3.278 1.229 5.062.475 2.523 1.002 5.045 1.34 7.592.413 3.083-.156 5.853-.403 8.924-.333 3.443-.185 6.652-.654 9.936.468-3.283.318-6.493.652-9.936.246-3.07.816-5.842.402-8.924-.337-2.548-.864-5.069-1.34-7.592-.323-1.785-.825-3.415-1.226-5.062zm-14.85 5.137c.4 1.188.713 2.408.986 3.656l-.002.002a34.69 34.69 0 0 0-.984-3.658zm-65.396 2.677c2.064.406 4.12.824 6.1 1.774 1.652.787 3.177 1.65 4.763 2.35-1.586-.7-3.111-1.56-4.763-2.346-1.98-.95-4.036-1.372-6.1-1.778zm26.84 4.373.023.01c1.049.43 1.96 1.009 2.836 1.64-.875-.63-1.787-1.208-2.836-1.638zm99.79 2.09h.001c-1.22.805-1.863 2.218-2.674 3.406a9.722 9.722 0 0 1-1.203 1.565c.45-.483.855-.999 1.2-1.565.81-1.19 1.456-2.6 2.675-3.406zm-63.616 4.143c-.15.93-.317 1.856-.492 2.783-.207 1.094-.53 2.078-.83 3.08.299-1 .622-1.985.828-3.078.175-.927.343-1.854.494-2.785zm-41.02.097c.748-.035 1.48.09 2.147.5 2.704 1.537 5.4 3.473 7.287 5.973 8.547 9.215 10.9 20.143 15.275 30.426 1.333 2.8 2.973 5.197 3.574 8.328.637 3.54.06 7.434.336 11.04.48 4.998.955 10.321-.024 15.272a27.06 27.06 0 0 1-2.601-5.21c-1.574-4.143-2.018-4.922-2.711-6.077a20.16 20.16 0 0 0-2.879-3.746 43.528 43.528 0 0 0-.877 2.72c-.396 3.468-1.015 6.113.086 9.872-4.388-6.07-10.657-9.26-16.934-13.416.11-.577-.044-2.171.14-2.957 5.087-.516 11.674-7.103 11.403-15.1.108-4.884-2.066-8.483-3.713-12.904-1.17-3.053-2.962-5.72-4.89-8.34-1.509-2.038-2.26-4.291-3.294-6.574-3.64 2.187-5.816 5.348-8.334 8.652-2.21 2.992-3.43 6.297-4.65 9.77-.536.078-1.063.173-1.586.275-.095-2.12-.111-4.24-.043-6.361-.757.15-1.51.3-2.266.457-.38-.553-.75-1.113-1.129-1.666-1.58 1.418-3.46 3.18-5.515 3.81a7.68 7.68 0 0 1-5.604-2.359v-.002c-.564-.702-1.1-1.422-1.646-2.137l-.002-.002c-.54-.703-1.088-1.406-1.63-2.115 3.408-.036 6.813.078 10.228.09 5.786.3 11.56-3.38 14.186-8.475 1.587-2.842 1.635-5.711 1.99-8.841 1.134-.345 2.43-.845 3.676-.903zm12.78 3.295c.5.65 1.052 1.224 1.71 1.637 1.004.547 2.156.873 3.238 1.234-.162.895-.322 1.799-.49 2.702h-.002c.168-.902.33-1.806.492-2.702-1.082-.36-2.235-.685-3.238-1.232-.66-.414-1.21-.987-1.711-1.639zm83.442 1.412h.002c-1.142.995-2.155 2.083-3.121 3.213.966-1.13 1.977-2.218 3.12-3.213zm-76.715 8.692c.8.553 1.594 1.111 2.393 1.664l-.276 1.33.274-1.328c-.8-.553-1.593-1.111-2.39-1.664zm9.557 1.752h.004c.7.834 1.268 1.758 1.832 2.681-.565-.924-1.136-1.846-1.836-2.681zm1.838 2.683c.564.925 1.121 1.848 1.794 2.686h-.002c-.672-.837-1.229-1.762-1.793-2.686zm27.62.485c-.166.694-.27 1.39-.148 2.027.757 1.736 2.096 3.27 3.238 4.778.424.475.886 1.106 1.42 1.613-.535-.507-1-1.138-1.423-1.613-1.14-1.508-2.48-3.042-3.237-4.778-.123-.637-.016-1.333.15-2.027zm71.64 8.08c.664.727 1.33 1.442 2.04 2.102-.71-.66-1.377-1.371-2.04-2.098zm-66.271.969c.307.155.637.244.992.23l-.002.002a2 2 0 0 1-.99-.232zm-75.18 2.142c-.178 7.282.548 11.743 4.998 17.63 1.604 2.887 2.997 3.783 5.914 4.874l.033 3.065-3.44-2.266-4.152-2.273.014.1c-4.197-2.006-8.68-3.698-13.014-5.485.12-.878-1.02-4.915-.762-5.762 1.905-2.18 5.386-2.74 7.482-4.812.974-1.736 1.514-3.575 2.926-5.07zm48.383 6.49h.002c-.166 2.099-.17 3.362-.141 4.44a41.847 41.847 0 0 1 .139-4.44zm-4.524.01c.44 1.336.9 2.67 1.346 4.003-.337.283-.673.565-1.016.847l-.002-.002c.343-.282.682-.563 1.018-.846-.445-1.333-.909-2.667-1.348-4zm25.934 2.823c-.096.934-.067 1.884.006 2.887.108 1.424.074 2.833-.039 4.24s-.304 2.81-.514 4.219h-.002c.21-1.41.404-2.812.516-4.22s.145-2.816.037-4.24c-.072-1.001-.1-1.953-.004-2.886zm1.76.965c-.042 1.232-.367 2.481-.691 3.863h-.002c.325-1.382.651-2.632.693-3.863zm-78.902 9.744c.594.05 1.183.138 1.768.28-.734-.178-1.48-.233-2.229-.27.152.008.31-.022.461-.01zm-3.533.07c-.03.003-.058 0-.088.004l-.004-.002c.031-.003.06 0 .092-.002zm83.654 2.416c-.08 1.59-.237 3.168-.594 4.664-.397 1.73-1.214 3.404-1.467 5.15-.132 1.534.096 3.1.078 4.643.018-1.544-.212-3.11-.08-4.642.252-1.75 1.07-3.42 1.467-5.15.357-1.498.517-3.075.596-4.665zm-2.092 19.201c.048.542.152 1.077.309 1.598.3 1.18.852 2.539 1.242 3.908-.39-1.368-.944-2.728-1.244-3.908a8.003 8.003 0 0 1-.307-1.598zm-.746 11.62c-.568.393-1.117.804-1.553 1.302a2.547 2.547 0 0 0-.002-.002c.438-.498.986-.907 1.555-1.3zm-27.506 6.812h.002c-.225.805-.51 1.637-.738 2.478.228-.84.511-1.673.736-2.478zm-1.152 5.005c.15 2.02 1.023 3.966 1.101 6.022.033 1.2-.088 2.41-.234 3.619.146-1.21.265-2.42.232-3.621-.078-2.055-.95-4-1.1-6.02zm26.088 26.154c.088.112.142.224.222.336-.082-.05-.41-.23-.41-.23s.172-.1.188-.106zm-24.84 1.426c.032 1.054.023 2.1-.051 3.137-.111 1.76-.505 3.344-.772 4.933.266-1.59.658-3.173.77-4.933.074-1.037.085-2.083.053-3.137zm5.007 16.646c.526.472 1.228.887 1.78 1.393-.552-.505-1.254-.92-1.78-1.39zm1.319 9.2c-.782 1.77-1.76 3.466-2.526 5.41.343.546.77 1.053 1.229 1.535-.458-.483-.889-.988-1.23-1.535.764-1.944 1.745-3.64 2.527-5.41zm-4.451 1.253a42.349 42.349 0 0 1-1.332 3.405v-.004c.5-1.121.936-2.257 1.332-3.4zm-1.448 4.635.002.002c-.402.814-.833 1.574-1.138 2.371.305-.797.734-1.559 1.136-2.373zm2.946 9.865c.623.067 1.316.016 1.814.116v.002c-.499-.1-1.192-.05-1.814-.118zm53.775.838h.002c-.396 2.642-.5 5.315-.903 7.947l-.002.002c.403-2.633.506-5.305.903-7.949zm-33.281 10.471c.43.19.843.438 1.232.729a6.334 6.334 0 0 0-1.232-.725c-1.051-.247-2.283.16-3.34.316v-.002c1.057-.156 2.289-.562 3.34-.316zm-89.693 1.238-.018.016c.636.494 1.285 1.047 1.977 1.523-.693-.477-1.344-1.028-1.98-1.523l.02-.016zm131.18.936c-.895.467-1.806.909-2.795 1.228h-.004c.989-.32 1.902-.76 2.799-1.228zm-106.69.937c-1.267-.332-2.637-.37-4.368-.177l.004-.002c.9-.124 2.664-.266 4.364.18zm-22.428-.283c.664.447 1.36.836 2.129 1.014h-.004c-.766-.177-1.461-.568-2.125-1.014zm129.11.945h.002c1.113-.015 2.246.148 3.377.35-1.132-.201-2.267-.363-3.381-.348-.712.008-1.404.166-2.002.483.599-.318 1.29-.476 2.004-.485zm10.422 1.19c1.227.053 2.446.127 3.62.379 1.278.281 2.516.77 3.739 1.32-1.223-.55-2.464-1.036-3.742-1.318-1.174-.253-2.392-.328-3.617-.381zm11 3.39c.805.353 1.61.67 2.423.907.417.125.824.185 1.227.197 1.21.037 2.377-.345 3.602-.606l.002.002c-1.226.261-2.394.641-3.604.604a4.737 4.737 0 0 1-1.226-.195 20.159 20.159 0 0 1-2.424-.909zm-127.71.364c-1.262 1.046-2.5 2.112-3.555 3.355-1.777 2.102-2.442 4.562-3.066 7.18l-.006.002c.626-2.62 1.29-5.079 3.068-7.182 1.055-1.244 2.296-2.308 3.559-3.355zm95.477 1.84a12.404 12.404 0 0 1 0 .001c-2.103.2-4.17.25-6.22.43 2.05-.18 4.117-.233 6.22-.432zm-11.123 1.314c-.404.102-.808.176-1.211.316v-.002c.403-.14.807-.213 1.21-.314zm24.193 3.744c.708.555 1.452 1.05 2.324 1.377.403.207.893.372 1.357.57s.903.43 1.203.776v.002c-.3-.345-.739-.58-1.203-.778s-.955-.36-1.357-.568c-.872-.326-1.616-.823-2.324-1.379zm-32.156 1.445c.404-.074.828-.06 1.273.077.369.122.716.32 1.045.56-.317-.24-.67-.43-1.047-.559a2.653 2.653 0 0 0-1.273-.076zm-38.451.934c-1.34.718-2.667 1.478-4.073 1.986-2.243 1.018-4.906 1.621-7.187 2.711 2.28-1.09 4.943-1.695 7.187-2.713 1.406-.508 2.735-1.266 4.073-1.984zm41.707.547c.594.62 1.132 1.319 1.646 1.883l1.86-.194-1.862.196c-.514-.565-1.05-1.265-1.644-1.885zm-34.854.332c.094.453.138.94.148 1.435-.007 1.963-.081 4.048-.316 6.13.234-2.082.308-4.166.314-6.128a7.907 7.907 0 0 0-.146-1.437zm69.467 2.627h.002c.18 1.097.34 2.202.709 3.207.189.327.515.577.87.799-.354-.221-.681-.47-.87-.797v-.002c-.37-1.006-.531-2.11-.711-3.207zm-25.732 5.105a527.9 527.9 0 0 1 3.086.295v.002c-1.027-.102-2.06-.2-3.086-.295zm-76.438 4.31c-.153.555-.336 1.1-.457 1.663h-.002c.12-.55.306-1.106.459-1.662zm31.258 1.63c-.432 1.298-.974 2.54-1.657 3.687-.937 1.664-1.978 3.268-2.945 4.914h-.002c.967-1.646 2.008-3.249 2.945-4.914a18.715 18.715 0 0 0 1.659-3.687zm25.736 2.654c-.355.988-.77 1.982-1.045 3.047a2.61 2.61 0 0 0-.002 0c.275-1.066.692-2.06 1.047-3.047zm-13.453.084h.002c0 2.607.298 5.079.814 7.631.173.82.14 1.585.012 2.34.13-.755.16-1.521-.014-2.34-.517-2.554-.814-5.024-.814-7.63zm41.379 2.53.002.001c.138 1.231.225 2.474.345 3.711-.12-1.237-.21-2.482-.347-3.713zm-85.812 8.564c-.114 2.42-.377 4.835-.569 7.25v.002h-.002c.193-2.415.456-4.831.57-7.252zm48.012 2.869c.32.259.612.553.857.902 1.25 1.712 1.882 4.043 2.56 6.031.96 3.024 2.217 5.694 3.11 8.602.297.969.555 1.964.748 3.008.019.1.018.198.035.299a24.322 24.322 0 0 0-.783-3.307c-.894-2.907-2.153-5.578-3.113-8.602-.68-1.989-1.309-4.319-2.559-6.03a4.404 4.404 0 0 0-.855-.903zm6.884 29.014c-.006.033-.008.065-.013.098-.01.056-.04.145-.051.203.012-.07.037-.134.049-.203l.015-.098z"/>
<path d="M199.5 31.014c-1.136 2.188-3.64 5.472-4.877 6.992-2.566 3.33-5.884 5.12-7.764 9.026-2.638 5.516-2.81 12.289-2.3 18.27.67 7.814 5.317 14.809 11.542 19.399.113-10.126.797-29.314 3.875-45.107.711 13.064-1.27 34.724.745 44.42 2.12-.62 4.074-1.468 5.72-2.98 2.878-2.538 6.123-5.828 7.168-9.614a33.419 33.419 0 0 0 .909-13.537c-.523-3.786-1.034-7.599-3.084-10.9-1.874-3.034-4.273-5.78-6.448-8.604-1.35-1.68-2.883-2.968-5.486-7.365zm-58.631 3.928c-1.916.039-3.811.19-5.695.595-2.865.517-5.57 1.49-8.196 2.727.222 5.114 1.286 10.072 2.457 15.035.721 2.788 1.635 5.528 3.918 7.432 2.608 2.15 6.1 3.34 9.416 3.802 6.195.8 14 .829 20.045-1.15-7.088-9.95-18.225-15.244-27.438-19.252 6.923-.28 20.837 4.505 30.127 17.119.217-6.17-1.986-13.158-5.435-18.205-1.971-2.872-4.94-4.824-7.914-6.524-1.772-1.003-3.43-1.46-5.467-1.507h-.002c-1.964-.04-3.902-.11-5.817-.073zm120.21 3.845c-3.293.078-6.503.576-9.736 1.123-2.884.48-6.026.625-8.448 2.463-2.223 1.737-4.193 3.872-5.959 6.065-2.103 2.62-2.274 6.117-2.84 9.295-.62 3.58-2.002 10.386-1.744 14.027 2.97-5 20.957-24.533 22.74-24.943-4.876 6.652-13.922 18.738-17.477 22.133a23.782 23.782 0 0 0-3.92 4.85c4.099.173 7.429-1.329 11.306-2.345 3.72-1.033 7.469-2.528 10.229-5.322 1.55-1.604 2.146-3.6 2.656-5.715 1.015-4.416 1.393-8.939 2.312-13.393.57-2.722.825-5.456.885-8.238h-.002zm-188.78 6.52c-3.383 1.509-6.447 3.417-8.857 6.271-2.445 2.88-5.425 6.322-5.942 10.18-.63 4.134-.283 8.517.162 12.654.391 3.653 1.285 7.064 2.907 10.37 1.856-3.19 2.536-6.576 3.636-10.058.865-2.848 3.04-11.236 3.87-14.096-.03 9.141-2.173 17.271-5.01 25.441 2.734-1.034 9.545-5.618 11.535-7.703 2.349-2.625 4.86-6.238 4.595-9.926-.763-8.176-2.56-16.062-6.896-23.134zm251.33.58c-.025.033-9.292 19.835-2.29 29.371 2.819 3.81 6.437 6.87 10.407 9.41 1.647 1.004 4.731 3.61 6.738 3.256-1.67-8.7-10.455-28.013-12.072-34.717 1.29 1.1 9.119 15.838 9.846 17.406 1.844 3.804 3.362 12.482 5.152 16.31 1.575-6.67.454-19.133-2.316-25.364-3.54-5.545-9.432-12.62-15.465-15.672zm-218.75 13.439c-3.343.125-6.577 1.091-9.168 3.416 1.616 3.016 3.196 6.55 5.648 8.97 2.042 1.975 4.932 2.1 7.612 2.08 3.329-.195 6.363-.006 8.935-2.488-4.327-2.487-9.242-2.384-13.418-5.232 4.597.156 8.527 1.922 13.166 1.213-2.056-3.341-5.432-6.992-9.416-7.822a22.511 22.511 0 0 0-3.36-.137zm-79.377.787v.004c-1.298 1.707-1.442 3.72-1.658 5.773-.198 2.602-.465 5.216-.483 7.83-.054 3.48 1.25 6.97 3.03 9.915 2.7 4.504 3.196 7.42 13.16 10.773 1.483.66 2.978.546 4.558.546-1.154-3.22-2.583-6.243-4.392-9.158-1.394-2.234-8.706-14.503-9.536-17.02 3.833 2.53 12.757 19.15 15.203 24.04.547-2.037.386-8.577-.132-10.673-.99-4.327-2.651-8.7-4.963-12.498-1.538-2.566-3.883-4.12-6.485-5.472-2.692-1.376-5.388-3.231-8.302-4.06zM289.492 70.5a16.614 16.614 0 0 0-3.246.067c-2.837.437-6.15 4.173-6.723 7.396 3.746-.927 17.607-2.004 21.08-.346l-15.367 1.758c-1.31.168-3.312.816-4.388 1.537 1.458 2.568 5.29 5.163 8.078 6.41 2.968 1.27 6.538-.124 8.906-2.029 2.055-1.718 3.698-4.112 5.513-5.99.328-.553 1.427-1.26 2.086-1.84-2.758-1.782-5.667-3.264-8.585-4.77-1.706-.911-4.27-1.955-7.354-2.193zm-147.47 7.258-.002.002h-.002a15.792 15.792 0 0 0-4.838.687c-4.584 1.514-8.947 3.576-13.002 6.213-4.007 2.517-9.275 7.586-13.248 12.23 3.991 4.572 17.704 9.781 24 6.22 8.485-3.36 15.005-9.424 18.826-17.85-5.886.84-9.588 1.232-13.414 2.59-2.65.96-16.164 6.46-19.012 6.224 4.015-3.839 13.863-10.245 31.99-12.096-2.502-3.166-7.475-3.993-11.299-4.22zm230.07 2.29c-3.581 1.24-31.353 16.582-25.012 31.206 2.703-2.17 6.855-6.381 8.916-9.205 1.304-1.796 8.4-10.9 11.99-12.984-2.922 5.22-6.72 11.567-10.107 16.11-.967 1.179-4.476 6.055-7.074 7.784 10.38-.475 15.484-8.296 17.365-11.531 3.195-5.747 3.789-14.96 3.922-21.375v-.002zm-116.3 4.276a18.13 18.13 0 0 0-2.606.022c-2.097.18-6.365 2.395-7.843 3.699 4.076.628 10.852 1.711 14.482 4.314 3.04 2.35 10.144 7.202 11.309 11.145-7.803-6.07-15.435-11.31-25.475-12.582-.205 4.518 5.204 8.939 7.834 12.527 2.656 2.878 6.498 5.636 10.527 5.881 4.656.488 8.994.158 13.492-1.146-.553-4.193-2.818-7.226-4.567-10.951-2.073-4.236-5.176-8.803-9.513-10.96-2.404-1.14-5.002-1.725-7.641-1.948zm-57.486 4.711c-2.775 6.652-1.72 20.374-1.482 26.824-.288 3.7-.053 7.3-1.297 10.771-1.057 3.12-2.397 5.79-2.373 9.174.03 3.197-.233 6.563.326 9.705.126.92.36 1.922.24 2.854-1.8 2.463-2.668 4.842-2.982 7.83-1.358.967-2.902 1.89-4.02 3.129-.125 1.296.239 2.7.479 3.98 0 0 1.255 6.048 1.13 7.846l-.755 4.885c-.893 6.466-1.003 12.96-1.362 19.467l-.011.07c-1.922 6.696-2.446 13.736-2.69 20.697-4.506-3.791-6.156-4.778-8.767-8.23-5.22-10.15-14.235-16.578-24.195-21.47-10.735-3.789-20.174-5.94-27.73-8.757-3.441-1.71-9.709-3.295-13.427-4.196a642.3 642.3 0 0 0-11.656-2.633s-7.974-2.44-15.152-6.656c-7.178-4.215-13.56-10.206-16.488-12.589-2.19-1.467-4.593-1.78-4.593-1.78l-5.133-1.244-3.823-.665c3.564 1.451 6.34 2.51 9.7 3.327 4.525 2.06 5.514 3.585 7.533 7.248l3.219 3.596a86.23 86.23 0 0 0 9.36 5.242c.282.16.525.377.823.522 1.724.893 3.503 1.51 5.301 2.062a55.683 55.683 0 0 0 5.123 1.594c.853.34 2.044.76 2.32 1.68.313 1.58-.198 3.389-.449 4.957.311.192.624.386.93.578 2.777-.913 5.377-1.96 8.363-1.834 4.572.246 8.604 1.711 12.77 3.478 9.085 4.003 13.101 5.451 22.135 7.188 5.215 1.634 8.785 2.83 13.387 4.361 2.79 1.334 4.657 4.498 6.065 6.5 1.049.106 4.28.506 4.28.506l-.49 2.701 3.22 1.301-.95 3.23 3.14 1.495-1.362 3.17 3.67.761s-.78 1.404-1.319 3.04c2.553 2.871 8.475 8.654 8.475 8.654s-1.615 3.303-1.748 5.015c.161 1.36.918 2.665 1.685 3.909l-.004.068.028-.018-.004-.02c.003.006-.566-1.674.008.016l-.004.004 1.013 6.34c1.194 15.04 1.217 16.647.764 20.342.264 4.584-.78 8.963-.27 13.5.14 1.411.336 2.811.534 4.217-1.466.433-3.36 1.588-4.801.656-5.87-3.322-8.25-8.396-12.502-13.26-1.394-1.288-15.937-12.545-23.781-17.08-2.728-1.24-5.414-2.58-8.154-3.795-2.3-1.033-33.845-8.345-40.561-4.86 8.545.29 26.124 2.631 43.578 8.929 4.115 2.415 8.242 4.922 12.09 7.746 3.334 2.433 7.004 4.686 10.062 7.414 3.654 3.256 6.506 7 10.059 10.336 1.448 1.37 2.846 2.714 3.843 4.457.77 1.183 1.407 2.669 2.477 3.606l5.553 4.855c.15 2.02-.961 5.737-.883 7.793.066 2.403-.482 4.836-.621 7.246-.444 5.774 1.125 11.764.717 17.45-1.128 22.305 2.874 43.04-8.227 50.68-2.23 1.015-4.276 1.328-6.54.896-11.955-2.383-11.054-12.137-10.79-16.713-6.317-.922-7.247 12.702-6.857 15.297-2.776-2.178-8.79-4.963-12.215-5.276-10.212-.79-19.48 4.545-23.502 3.899 1.274.99 4.938 4.458 6.548 4.832 5.6 1.08 10.49-.08 15.94-.91 3.63-.404 5.714.109 8.44 2.535-2.282 2.344-5.132 4.115-7.241 6.603-1.778 2.103-3.936 4.562-3.07 7.182 2.757-1.803 4.847-3.697 6.878-6.293 2.984-3.23 6.416-3.547 10.633-3.781 1.39-.939 3.095-2.47 4.315-3.178l3.337 3.437c1.052-.946 1.625-3.307 2.67-4.261l3.344 4.357c2.3-.096 4.063.464 5.86-.492-.198 1.238-.314 2.58-.784 3.744-.75 1.52-2.52 2.553-3.963 3.316-2.674 1.358-5.28 2.44-7.578 4.434-3.557 2.927-5.502 7.644-6.463 12.04-1.02 4.76-.191 9.058-.437 13.8-.114 2.422-1.404 5.9-2.52 8.24 5.726-.314 6.747-4.882 7.8-7.826 1.1-3.304.905-6.832 1.933-10.174 1.243-4.272 2.691-9.602 6.146-12.637 2.584-2.025 6.32-2.646 9.313-4.004 2.812-1.015 6.801-1.858 9.685-2.553.895 6.919.87 14.218-1.863 18.81-.937 1.663-1.974 3.267-2.941 4.913 1.868-.583 3.919-1.002 5.379-2.408 1.9-1.85 3.347-4.22 4.957-6.322 2.176 1.718 3.778 2.536 6.548 2.867 0 2.607.296 5.078.813 7.631.348 1.647-.13 3.07-.563 4.64 1.496.649 3.2 1.2 4.18 2.594 1.25 1.712 1.884 4.043 2.56 6.032 1.28 4.032 3.09 7.43 3.858 11.607.673 3.585.232 7.023-.398 10.568-.65 3.66-3.928 13.279-6.514 16.139 3.654-.83 9.365-7.895 10.436-10.213 2.41-5.203 2.933-10.688 2.332-16.523-.57-5.233-.678-11.372-3.201-16.035-1.016-2.007-2.057-4.003-3.09-6.004-1.472-2.86-3.298-5.245-4.188-8.399-1.045-3.81-2.389-7.427-2.004-11.395.414-6.333 3.244-11.152 5.239-17.082 1.006-3.398-1.655-5.418-3.617-8.527 3.462-1.05 5.686.734 7.214 3.846.595 2 .026 4.454-.28 6.47-.824 5.236-2.848 9.915-4.278 14.98 2.175 1.13 4.566 1.774 5.293 4.418 1.075 3.034-.65 5.37-1.383 8.213-.65 1.718.87 3.589 1.627 5.067 4.498-2.566 5.9-10.007 5.16-14.908-1.196-1.538-2.743-3.136-3.435-4.97-.522-1.573.873-3.213 1.87-4.294 1.166-1.13 2.623-2.55 4.401-2.002 1.48.486 2.601 2.157 3.631 3.287l2.037-.506.748 3.301 3.262-.684.476 4.737 3.793-.373-.873 4.8 4.198 1.006-.582 4.182 2.656.926s.226 2.475.346 3.71c.865 2.373 2.4 4.017 4.07 6.839 1.89 2.904 4.455 4.4 7.324 6.16 1.442.363 2.457 1.065 4.324 1.076l-2.088-1.793-3.129-3.703c-1.083-2.087-2.712-3.913-3.632-6.082-.26-1.72-.86-3.462-1.26-5.104-.774-2.77-1.067-5.652-1.9-8.398-.759-2.446-2.324-4.23-3.97-6.123-4.605-3.568-7.242-5.415-12.214-8.785-1.028-.71-1.302-2.32-1.74-3.424 7.068-1.938 15.011-2.722 21.714.672 2.277 1.184 3.694 3.262 6.02 4.133.805.415 1.955.656 2.555 1.347.896 1.946.8 4.354 1.54 6.37.378.652 1.31 1 1.91 1.431.494-2.698 1.384-6.195-.286-8.66-1.532-2.132-3.962-3.721-6.067-5.26-2.29-1.68-4.924-2.744-7.27-4.324-.7-.36-.796-1.575-.411-2.194.685-1.304 2.026-1.911 3.449-1.93 2.23-.03 4.538.651 6.756.932 2.41.342 4.938.136 7.287.641 3.407.75 6.547 2.967 9.803 3.916 1.665.5 3.196-.06 4.83-.408-1.646-1.34-3.531-2.175-5.408-3.125-2.77-1.436-4.046-3.907-7.092-4.826-3.317-1.01-6.964-1.585-10.42-1.104-3.305.498-5.55 2.637-8.543 3.604-1.394.42-2.861-.06-3.221-1.6-.354-3.057 1.826-6.275 1.598-9.322-.294-2.024-2.231-2.221-3.787-2.953-.397 2.643-.5 5.32-.903 7.95-.39 2.868-2.805 5.36-5.052 6.981-3.72 2.626-8.596 2.289-12.44.114-5.032-2.17-7.21-4.418-8.093-9.625-.57-3.953-1.497-27.745-1.028-31.787-2.478-1.04-5.062-2.725-5.062-2.725l3.943-5.227-3.699-3.173 4.262-2.883-4.69-4.541 5.043-2.862s-2.925-3.147-3.021-5.07c5.483-2.918 8.518-4.034 12.326-12.652 1.107-1.407 2.82-2.347 3.937-3.74 1.13-1.79 1.547-3.97 2.743-5.756 4.557-6.794 15.509-14.559 17.475-15.5 14.135-6.996 26.88-12.95 45.13-15.727 1.7-.463 9.332-2.308 10.702-3.377-34.794 2.74-57.13 14.385-70.48 24.795-4.275 3.39-8.863 5.786-13.226 11.781-1.43-.86-2.522-2.298-3.916-3.205-1.352-.782-3-1.096-4.352-1.889-.86-.51-1.104-1.48-.894-2.416 1.166-1.328 3.13-2.033 4.123-3.459.697-2.42-.915-5.502-1.516-7.863-.66-2.175-.185-4.125-.197-6.342.018-1.544-.212-3.11-.08-4.642.252-1.75 1.07-3.42 1.466-5.15.82-4.203.737-8.535.766-12.804.22-2.423.266-4.993.97-7.312.326-1.22 1.611-1.875 2.567-2.578 1.357-.877 2.555-1.954 3.834-2.934 2.206-1.688 5.328-1.555 7.12-3.736 2.143-2.5 3.75-5.43 5.93-7.912 2.483-2.992 5.71-5.044 8.179-8.036 1.916-2.32 3.681-4.685 5.964-6.673 1.96-1.82 4.363-3.277 5.739-5.54.81-1.19 1.454-2.603 2.673-3.408 3.816-2.572 7.962-4.218 12.336-5.588 3.13-.985 6.335-1.184 9.489-2.056 6.827-1.562 14.242-3.008 20.963-5.334 10.89-4.589 34.816-12.372 36.28-13.736-3.87.317-39.226 11.458-43.054 12.13-4.26.75-8.266 2.218-12.473 3.155-5.077 1.172-9.93 1.267-14.852 3.232-3.37 1.37-6.773 2.741-10.023 4.393-3.78 1.94-5.586 5.1-9.04 7.78-4.873 3.661-8.505 8.182-12.548 12.692-2.013 2.284-3.437 4.963-5.311 7.336-1.876 2.404-5.33 2.278-7.223 4.711-1.262 1.232-2.211 3.44-4.296 3.121-1.418.053-2.424-1.525-3.272-2.474-1.14-1.508-2.48-3.044-3.236-4.78-.247-1.273.416-2.79.674-4.033 1.334-4.488.925-8.662 1.37-13.252.246-3.07.815-5.842.401-8.924-.337-2.548-.864-5.068-1.34-7.591-.65-3.57-2.012-6.523-1.844-10.23.024-3.905 1.021-7.55 1.934-11.31.787-3.237.28-6.235.262-9.486 0-3.215 1.12-6.036 1.332-9.2.156-1.98.018-4.03.318-5.972.48-3.095 2.794-5.342 3.106-8.496.337-3.804-.098-7.343 1.189-11.08 1.19-3.395 2.825-7.03 5.373-9.633 1.28-1.418 3.19-2.787 3.936-4.572.223-1.91-1.456-2.348-2.723-3.256a143.45 143.45 0 0 0-4.867 9.532c-2.422 5.292-5.818 9.58-7.782 15.182-.715 2.097-.56 4.075-.847 6.22.102 1.743-2.42 1.99-3.604 2.633-.492-3.996.403-7.914-.072-11.896-2.103-10.399-.398-19.532-2.563-28.826zm-21.979 1.258c-.643.962-1.286 1.736-1.016 2.96.493 2.71 1.865 5.35 2.946 7.86 2.368 5.222 3.958 10.586 5.773 15.994.86 2.608 2.182 4.993 3.192 7.535 1.224 3.016.6 6.49.99 9.758.177 2.032.92 3.864 1.802 5.672 1.99-5.905 2.067-12.02.463-18.023-1.16-3.58-3.719-6.448-4.914-10.06-1.599-4.759-3.595-9.356-5.205-14.105-1.009-2.805-1.822-5.459-4.031-7.592zM83.69 102.461c-5.546 2.067-11.718 5.084-15.461 9.812-1.159 1.388-2.056 2.92-2.26 4.752-3.353 8.476-3.116 18.225-.303 26.312 4.042-4.236 8.568-9.098 10.896-15.37.66-1.749 2.663-15.21 3.733-16.749.61 11.323-3.391 26.165-13.125 34.63 13.955-7.205 20.963-9.046 20.623-24.677-.07-4.22-1.658-7.707-2.48-11.764-.476-2.336-.975-4.657-1.624-6.947zm233.66 4.76c-4.254 1.592-7.654 5.474-10.051 9.205-2.47 3.803-3.311 8.922-1.082 13.02 1.622 2.74 3.736 5.157 5.309 7.933 1.442 2.51 3.21 4.445 5.482 6.229a29.05 29.05 0 0 0 .746-6.795c-.024-4.248-.343-18.68.27-22.875 3.511 5.577 5.11 24.76 3.75 29.166 1.43-.637 2.775-1.159 3.73-2.475 2.512-3.286 4.753-6.802 5.27-11.002.595-4.435-.343-8.987-3.221-12.49-2.97-3.66-6.532-6.97-10.203-9.914zm-159.63 1.935c-3.901.347-7.512 1.773-11.129 3.498.445 3.527 4.448 8.403 6.918 10.873 2.464 2.536 6.195 3.24 9.584 3.438 3.04.192 6.867-.35 10.014-2.608-5.794-4.62-12.691-5.267-18.387-9.32 2.031-.895 7.845 1.765 9.875 2.293 3.13.95 6.183 2.112 9.385 2.838-.576-2.054-1.032-3.965-2.504-5.594-2.572-2.854-5.768-5.192-9.746-5.373v-.002a20.028 20.028 0 0 0-4.01-.043zm76.41 1.537v.002c-1.14.09-2.288.46-3.484.864-4.932 1.442-8.904 5.67-11.584 9.888 7.032-.11 14.052-1.824 21.342.342-4.717 2.103-13.5 1.27-18.168 3.408 2.673 1.977 5.52 3.362 8.884 3.602 6.513.743 13.051-1.498 18.002-5.728-3.143-4.338-6.939-8.749-11.555-11.561zM38.09 128.347l-.002.002c-4.547.193-9.182 2.584-13.297 4.399.289 2.655.79 5.234 1.854 7.691 1.82 4.272 3.423 9.018 7.113 12.074 3.263 2.65 7.86 4.344 11.979 2.752 2.09-.745 3.226-2.305 4.596-3.93-2.746-2.251-5.912-3.893-8.676-6.105-1.766-1.387-11.036-7.439-12.082-9.379l17.736 8.51c1.64.92 3.365 1.046 5.191 1.178-.853-4.05-2.446-7.14-5.035-10.342-2.416-2.998-5.076-6.866-9.377-6.85zm66.182 1.547c-.576 2.073-.76 4.182-1.008 6.315-.192 1.712-.685 3.467-.648 5.185.276.757.761 1.455 1.236 2.11.565.18 1.131.358 1.695.527l.534.133c2.885-2.878 2.164-6.368 4.199-9.654-.66-1.394-1.398-2.736-2.106-4.1-1.304-.162-2.596-.366-3.9-.516zm176.76 2.266c-.932 1.46-1.911 2.83-2.248 4.566-.433 2.193.087 4.15.63 6.254.14.535.284 1.063.446 1.592a17.078 17.078 0 0 0 2.205 2.217c1.328-1.256 1.157-3.76 1.4-5.467.89.156 1.772.305 2.655.455-1.22-3.489-3.23-6.457-5.088-9.617zm74.912 3.41-.002.002c-2.59.08-4.91 1.13-6.87 2.776-5.66 4.626-10.703 11.857-11.118 19.379 7.41-2.77 15.777-7.7 26.537-13.215-7.641 8.018-20.537 13.545-23.895 15.54 6.135 2.953 17.524 2.665 23.238-1.583 2.229-1.78 3.095-4.687 4.111-7.247.823-2.3 4.906-6.564 5.47-8.943-3.145-.799-4.182-.995-5.325-1.969-3.502-2.522-7.66-5.05-12.146-4.74zm-206.04.576-.002.002c-3.17 3.652-5.47 5.774-7.59 8.784-2.71 4.067-4.054 8.856-2.138 13.56 1.84 4.14 4.698 8.12 8.062 11.153 2.643 2.398 6.026 5.483 8.92 7.58-1.032-10.291-2.494-21.793-5.436-31.857 2.724 1.905 5.426 15.014 8.618 32.023 3.017-3.305 5.929-9.034 6.109-13.732.115-5.21-.91-11.5-4.521-15.496-1.845-2.163-3.754-4.283-5.63-6.422-1.483-1.622-3.662-3.376-6.392-5.594zm93.143 2.832c-3.863 1.568-9.853 6.636-12.543 9.381-2.836 2.968-5.456 6.116-6.748 10.082-1.027 3.13-.57 6.904-.414 10.166.325 4.927.672 9.487 3.797 13.555 1.826-4.134 2.62-8.477 4.074-12.73 1.592-4.435 5.695-15.817 8.135-19.969-2.712 11.315-5.917 22.477-8.598 33.861 4.813-2.723 10.235-6.478 13.457-11.105 3.118-4.47 5.175-10.16 4.49-15.664-.426-3.612-1.436-7.262-2.812-10.629-.805-1.904-1.248-3.877-2.836-6.947zm-120.24.317c-5.781 3.13-11.523 7.703-14.32 13.793-1.532.066-3.147.052-4.643.394-1.87.505-3.532 1.895-5.369 2.465-1.377.336-4.55.027-5.957.045-.43.445-.881 1.165-1.308 1.615 3.415 2.772 7.456 1.582 11.475 2.096 1.358.217 5.52.96 6.273 3.142.967 2 2.321 5.76 2.799 7.903.434.372 1.279.532 1.879.44-1.268-2.483-1.578-5.381-1.338-8.24.22-1.22 12.447-19.014 10.51-23.653zm174.81 3.677.084.202c-2.643.969-5.84 1.85-8.004 3.687-2.27 1.965-3.85 5.012-5.51 7.512-1.76.234-4.122-.06-5.275 1.58-.871 1.117-1.87 2.725-1.053 4.14 1.418 2.635 4.736 3.912 7.301 5.131 1.918-2.39 3.143-4.679 3.473-7.78-1.208-.656-2.312-1.376-3.328-2.307 1.4-.86 2.729-1.707 4.363-2.05 1.995-.57 3.995-.42 5.473-2.013 2.03-2.163 4.354-3.464 5.941-5.793zm-207.11.131c-1.801.035-3.617.385-5.248.87 1.646 3.051 4.073 6.38 7.184 8.05 1.88.535 4.292-.254 5.884-1.29 1.262-2.25-.678-5.42-2.66-6.593-1.57-.786-3.359-1.07-5.16-1.037zm178.4.66c-1.393.038-2.798.209-4.066.323 1.148 3.87 3.996 6.56 7.336 8.615 2.157 1.275 4.396 1.425 6.818 1.695-1.202-2.602-2.403-5.217-3.785-7.728-.59-.938-1.16-2.065-2.295-2.414-1.232-.43-2.615-.528-4.008-.49zm-76.334 14.254c.832.075 1.752.967 2.416 1.31-1.045 1.37-2.295 2.783-2.998 4.37.86 1.285 2.019 2.396 2.836 3.705-.673 1.262-1.855 2.675-3.28 3.078-.8 0-1.801-1.941-1.898-2.734l-.828-8.11c.993-.879 2.066-1.508 3.752-1.619zm.295 13.281c.21 2.77-.472 5.453-.436 8.229.102 1.797-1.283 2.475-2.37 3.635a31.86 31.86 0 0 0-1.345-4.487l.612-4.714a71.045 71.045 0 0 1 3.539-2.662zm-141.19.973c-2.462-.017-4.962.565-7.332 1.496-3.052 1.226-5.125 4.405-6.537 7.235-2.223 4.7-1.743 10.93-1.508 15.977 3.863-.366 7.845-.716 11.596-1.737 2.86-.74 4.994-3.66 6.586-5.984 1.46-2.085 5.319-8.652 5.662-11.134 0 0-18.47 13.059-22.328 16.81 1.833-5.265 8.934-10.064 12.047-12.666 3.094-2.547 6.302-4.83 8.922-7.9-2.22-1.46-4.646-2.076-7.108-2.092v-.002zm122.66 9.442c.435 2.675.436 5.438.598 8.148.83 4.335.961 8.639.912 13.023l4.959 5.723s.812-8.305.265-11.637c-.547-3.332-2.941-8.102-2.941-8.102zm14.846 4.017c.948 1.611 1.366 2.962 2.078 4.645.331 1.556-1.103 3.286-1.818 4.578-.448-1.814-.505-3.512-1.233-5.221zm-63.16 4.352c-2.338-.086-4.686.177-6.813.793-3.653 1.363-7.745 4.23-10.203 7.27-1.748 2.084-2.589 4.544-3.328 7.12 5.06 2.38 9.798 1.64 15.232 2.043 4.681.204 9.154-.44 12.607-3.888 2.577-2.45 3.59-5.409 3.819-8.899-5.438.678-21.071 7.305-26.533 7.828l21.973-10.988c-2.088-.766-4.417-1.195-6.754-1.279zm138.07 1.318c-.808.04-1.61.185-2.514.447 2.484 2.08 26.98 12.964 28.12 14.592-2.779-.92-15.598-5.477-17.983-7.11-2.813-1.918-9.59-4.133-12.883-4.853.727 4.608 7.334 8.986 10.822 11.78 1.736 1.291 3.807 1.982 5.819 2.697 3.612 1.214 7.012 2.451 10.863 2.517 4.134.067 8.351-.703 12.42-1.363-1.22-3.017-2.704-5.847-4.83-8.334-2.002-2.356-3.798-5.005-6.1-7.072-1.916-1.7-4.574-1.869-7.014-2.055-6.723-1.378-11.162-1.302-16.72-1.246zm-50.547.598-.201.105-.012.094-3.2 3-1.364 8.01-1.422 6.756-.211 2.158c.946 1.236 1.124 3.775 2.67 3.795 1.295.018 2.318-3.117 2.318-3.117l1.229-4.797-.391-4.754-.16-6.323.533-4.728zm-146.08 1.914c-2.04 7-4.8 15.335 3.205 26.232 3.13 3.876 6.303 8.442 12.123 11.264-1.284-6.306-6.528-20.362-9.254-27.852 6.473 9.353 10.483 20.47 12.492 29.926 1.814-3.917 2.561-14.25 1.78-18.457-1.509-5.762-5.82-11.135-9.61-15.621-2.08-2.477-7.4-5.575-10.736-5.492zm277.29 5.523c-4.9.554-9.8 1.754-14.318 3.744-5.18 2.133-9.307 6.74-11.766 11.68-1.496 4.272-2.73 8.645-1.756 13.078 7.676-6.39 13.545-14.332 21.725-20.83-6.105 8.37-11.214 15.798-18.791 22.832 2.32.13 6.567.687 8.7-.273 5.263-2.158 10.534-5.178 12.757-10.723 2.452-6.14 3.52-12.912 3.45-19.508zm-197.22 9.752c-4.82 4.314-8.43 9.712-8.916 16.32-.865 6.658 2.242 11.371 6.707 16.111 1.382-6.158 1.154-19.296 2.578-25.424 1.432 11.471 1.028 18.868.451 25.791 2.938-2.342 6.456-4.974 7.201-8.73.847-4.182-.839-8.264-2.066-12.19-1.514-4.353-2.343-8.693-5.955-11.878zm-30.32 3.948c-.795 1.255-1.542 2.537-2.316 3.798.633.689 1.27 1.373 1.91 2.055.69-1.24 1.37-2.479 2.049-3.719-.564-.699-1.098-1.421-1.643-2.135zm131.07.921c-3.42 2.386-6.641 5.066-9.723 7.866-4.465 4.193-7.27 10.038-6.957 16.238.33 5.396 1.944 12.083 5.207 16.506 2.042-3.948 2.279-9.436 3.403-13.69.81-3.153.645-14.462 4.224-17.616.066 7.939-.087 10.474-3.75 29.143 2.53-1.864 6.838-6.625 8.088-9.557 1.941-4.657 2.854-9.853 2.367-14.891-.395-4.774-1.465-9.42-2.86-13.998zm-117.46 4.385c-2.075.913-4.22 1.92-6.033 3.281-1.97 1.48-2.92 3.941-4.59 5.545-1.904-.27-3.902-1.49-5.76-.859-2.992.86-5.787 1.425-8.527 2.83 2.53 1.857 5.462 2.644 8.58 2.26 2-.343 3.707-1.292 5.762-1.496 1.629-.223 3.089-.097 4.54-.987 1.823-1.11 3.658-2.475 4.938-4.205 1.321-1.893 1.22-4.174 1.09-6.369zm145 .842c-.128 1.22-.238 2.44-.346 3.66-.222.908-.468 1.8-.666 2.713-.505 2.242-.46 4.496-.28 6.774 1.46-.757 3.21-1.437 4.388-2.608 1.358-2.368 1.244-4.722 3.834-6.248-.5.036-.996.072-1.489.102-.222-.547-.445-1.1-.66-1.653l-.422 1.135c-1.7-1.022-3.032-2.42-4.36-3.875zm12.639 3.022c-1.22 1.617-1.49 3.395-1.676 5.347-1.406.613-2.806 1.243-4.23 1.832.03.595.064 1.198.093 1.791 1.628-.035 3.595.15 5.08-.625 1.796-.926 3.28-2.853 3.4-4.902-.401-1.34-1.711-2.477-2.667-3.444zm-17.441.367c-.742.227-1.473.485-2.193.773-.04.865-.041 1.732-.008 2.598a44.437 44.437 0 0 0 2.2-3.37zm-4.531 3.959v.002c.168 2.03.882 3.867 1.664 5.724.937-.012 1.874-.028 2.818-.048-.848-2.647-1.442-4.926-4.482-5.678zm-87.033.943c1.106.433 2.211.872 3.318 1.31-.76 9.63 1.097 5.9.262 12.864-.174 1.538.374 2.976.308 4.478-.679.45-1.454.797-2.193 1.139-.229-1.028-.453-2.058-.676-3.088.19-3.849-.254-7.473-1.119-11.182l-1.11-4.197c.404-.445.808-.886 1.21-1.325zm-129.97 1.17v.002c-4.373.018-8.753 2.59-11.752 5.654-2.914 3.226-4.91 7.425-6.381 11.48 4.326 3.227 9.195 6.975 14.69 7.721 3.234.42 6.869-.247 9.68-1.9 3.065-2.03 4.95-6.126 6.46-9.36-2.59-.25-5.115-.192-7.663.39l-19.289.377c9.515-3.896 26.415-5.67 27.917-6.187-1.825-2.943-10.595-8.236-13.664-8.177zm155.45.186c1.61 2.614 1.128 3.768 1.09 6.298.328.095-.122 1.505.205 1.598a95.965 95.965 0 0 0-.832 6.73c-.59-.17-1.179-.33-1.768-.494.42-2.818.77-5.61.553-8.459-.144-2.007-.12-3.817.752-5.674zm72.09 4.119c-1.76-.054-3.579.42-5.28.845-2.192.463-3.646 2.59-4.98 4.237-.595.962-1.8 2.036-1.066 3.238.913 2 4.494 1.612 5.912.434 1.184-1.652 1.553-3.972 2.173-5.89 2.427.3 4.64.835 6.916 1.743-.264 1.345-.53 2.685-.777 4.031a80.817 80.817 0 0 0 5.414-2.799c-.295 1.4-.602 2.794-.89 4.194 1.676-.198 3.49-.336 5.082-.9 1.117-1.425-.812-4.23-1.66-5.487-1.226-1.923-3.235-1.393-5.2-1.818-2.03-.206-3.704-1.461-5.644-1.828zm71.713 11.385v.002c-4.886-.03-9.694.732-13.98 3.191 2.97 1.681 6.129 2.714 9.42 3.55l9.807 5.755c-5.4-1.118-10.729-2.656-16.029-4.188-1.803-.523-3.655-.71-5.523-.77 1.55 4.02 4.152 7.476 7.289 10.392 2.475 2.276 6.014 3.117 9.234 3.705 5.78.92 12.041-.279 17.557-2.057-.69-3.84-.806-7.746-2.94-11.086-1.363-2.132-3.008-4.841-5.35-5.976-2.915-1.466-6.21-2.47-9.485-2.518zm-267.23 7.091c-5.874 1.593-16.256 9.508-19.756 16.402-.908 2.92-1.066 6.322.058 9.206.961 2.548 2.246 6.225 3.7 8.515 6.838-2.191 13.96-3.905 18.143-10.133 2.63-4.086 3.896-8.207 3.388-14.197.145-2.036-2.067-7.447-2.97-9.213-1.036 4.227-2.209 10.313-4.145 13.635-2.222 3.744-3.736 7.397-7.22 10.201 2.246-6.214 3.881-8.041 6.134-16.029.426-1.412 2.89-6.944 2.668-8.386zm224.44 1.952c2.337 6.609 6.405 12.408 9.043 18.826-4.58-3.07-7.463-8.576-9.656-13.49-.835-1.911-2.036-3.576-3.37-5.162-1.634 5.612-2.418 11.242-.47 16.896 1.1 3.287 3.262 5.72 5.75 8.044 4.182 4.158 10.205 6.626 15.396 9.622 1.05-2.774 2.294-5.476 3.297-8.27 1.286-3.43.873-7.515-.239-10.939-1.556-4.164-5.636-7.45-9.355-9.662-3.425-1.99-6.78-4.267-10.396-5.865zm-138.71 1.293-.13 4.843-.044 5.487 3.535 4.703 3.658 3.014.084-4.528zm48.199 1.254c-1.418 3.623-3.72 10.146-4.153 14.016-.3 2.265.607 4.07 1.592 6.033 2.193-2.235 2.88-3.62 3.053-6.77.308-2.137.617-8.294-.492-13.279zm-25.721 1.029c-.601 4.236-.735 8.154-.405 12.42-.47-.06-.93-.128-1.392-.188-.306-1.37-.589-2.745-.895-4.115-.998.475-2.002.95-3.011 1.41-.553-3.07-.294-5.9.433-8.916 3.393-.333 4.123-.548 5.27-.611zm-65.535 3.244c-4.014.17-7.548 1.84-10.84 4.02-3.245 2.253-5.883 5.677-6.688 9.595-.78 4.38.157 8.491 1.75 12.561 3.587-.24 7.05-.855 10.357-2.32 3.78-1.677 7.79-3.23 9.537-7.305 2.044-4.64 1.237-10.67-.24-15.375-3.612 1.718-10.017 10.434-14.184 14.498.643-3.545 8.222-13.015 10.301-15.67l.002-.002zm135.25 6.543v.002c-1.264.088-2.454.439-3.729.768 3.342 2.703 19.823 9.378 21.383 14.953-2.649-1.102-9.852-5.275-11.336-6.315-3.743-2.373-8.316-4.589-13.34-7.32.727 1.574 3.072 4.9 4.213 6.217 3.677 4.15 7.704 7.775 12.834 10.027 4.615 1.928 11.39 4.898 16.521 4.226-2.103-6.872-6.648-14.305-11.912-18.83-4.132-3.184-9.355-3.846-14.635-3.728zm-77.004 3.076c.896.697 1.598 1.407 1.814 2.56.793 3.52-.613 6.724-1.713 9.993-.558.102-1.122.209-1.687.305-.24-4.29.775-8.663 1.586-12.855zm-2.104 21.674c1.1.89 2.488 1.202 2.494 2.842.12 2.253.824 4.357 1.123 6.56-.402 2.418-2.3 4.586-4.007 6.231-1.412-5.046-.469-10.556.39-15.633zm-28.059.7c-1.98.075-3.99.439-6.062.617-4.002.564-8.574 1.058-11.367 4.351-4.038 5.175-4.59 11.998-4.444 19.494 4.188.017 8.175-.375 10.986-.904 4.573-.979 9.464-2.357 12.77-5.877 3.077-3.46 5.02-7.727 5.89-12.266-6.08 3.047-11.848 7.757-18.872 8.527 4.468-3.86 10.099-5.352 16.967-12.834-1.937-.973-3.881-1.185-5.86-1.11h-.003zm91.59 2.996c-2.24.003-5.065.45-6.215 1.293.877 2.193 3.736 3.643 5.43 5.343 2.127 2.15 15.254 13.005 17.02 15.48-5.58-2.18-19.37-16.212-25.115-17.99.06 4.542 1.748 8.463 3.418 12.592 1.85 4.656 6.383 8.181 11.19 9.383 5.845 1.49 11.295 3.348 17.448 2.975-.66-3.611-1.27-7.235-1.931-10.846-.727-4.368-3.412-8.444-6.26-11.74-3.382-3.852-8.111-5.47-13.021-6.34-.534-.1-1.217-.151-1.963-.15zm-61.94 36.494c1.051.944 2.803 1.66 2.66 3.33.047 4.5-2.336 7.392-3.868 11.28.685 1.093 1.718 2.02 2.625 2.928-.186 2.554-.637 5.044-1.238 7.532-.998-.2-2.768.202-3.213-.946-.192-1.856.148-3.774-.057-5.625-.127-1.995-.609-4.34-.609-6.603 1.487-3.892 2.424-7.91 3.7-11.896zm60.21 42.215c-.389.012-.468.163-.295.584l1.29.662 11.927 6.953 7.676 6.826 6.654 5.1c2.835 2.52 4.494 4.99 5.674 8.453l1.438 7.527 1.83 4.16c2.58-3.112 2.304-6.81 2.377-9.297l-.174-3.912 6.697-2.053c3.196-1.19 4.83-2.026 8.243-3.918l6.884-3.402 3.582-1.195s-3.556-.956-7.76-.092c-4.202.864-10.864 3.84-10.864 3.84l-5.795 1.164c-4.16-.162-5.39-.66-8.366-3.158l-7.048-4.729c-2.381-2.015-3.77-4.098-4.885-6.896l-3.71-2.899c-2.834-1.423-5.7-2.594-8.8-2.8l-4.42-.657c-1.066-.14-1.766-.273-2.154-.262zm-108.64.017c-4.045 0-15.059 2.057-17.193 1.063-.442 2.334-7.052 7.62-7.052 7.62-4.224 2.376-7.697 4.756-11.891 4.544-5.312.135-8.425-.844-12.457-3.842l-3.563-2.45s-4.013-2.102-6.91-.745l8.402 6.894 5.682 3.977 6.601 1.82 5.389 1.14c.134 5.689.076 9.09 4.547 13.198 1.097.875 5.557 2.025 5.557 2.025-3.96-4.746-3.585-12.038-1.504-17.633 2.949-3.977 7.651-6.277 11.74-8.904l4.441-1.737 2.133.76c1.392-3.127 3.566-5.009 7.338-7.59-.248-.098-.682-.14-1.26-.14zm58.336 45.96c-3.938 3.589-7.478 7.508-10.89 11.585-2.148 4.333-4.75 10.21-2.497 14.875l7.477-8.945c3.38-3.073 6.466-5.84 10.88-7.408 0 0-1.052-4.435-2.36-6.444z" fill="#094"/>
</svg>
