<?xml version="1.0" encoding="UTF-8"?>
<!DOCTYPE svg PUBLIC "-//W3C//DTD SVG 1.1//EN" "http://www.w3.org/Graphics/SVG/1.1/DTD/svg11.dtd">
<svg width="400" height="500"  xmlns="http://www.w3.org/2000/svg">
<path d="M396 131.48H4v72.355c5 149.88 80 239.81 196 291.77 117-53.957 192-143.88 196-291.77V131.48z" fill="#f00000"/>
<path d="M192.72 143c-3.097 1.523-6.183 3.893-7.415 7.995-9.849-8.75-25.157-8.943-36.908.455-6.337 7.265-7.154 21.145-.04 28.151 5.583 4.376 14.292 4.098 19.918 8.15 6.101 6.532 8.405 16.403 13.19 24.035-7.846 4.44-16.482 6.264-23.3 13.733-11.55-7.98-19.12-7.588-30.977-4.914 4.074 22.031.388 42.791 7.092 63.399 1.746 6.877 5.28 14.011 5.538 21.103-3.126 13.775-13.73 25.718-17.2 39.32-.302 7.653 9.528 10.002 15.025 12.438.604 5.023 1.206 10.047 1.81 15.091 7.113.453 14.207.839 21.299 1.292-6.166.991-12.353 1.79-18.561 2.523 1.444 8.407.884 13.495-1.854 21.536-2.867 8.083.345 15.629 7.352 20.156 9.83 6.251 22.462 4.697 33.607 4.913-.216 11.274.215 22.268 1.357 33.478 6.748 2.846 13.193 5.539 20.652 5.668 22.83.733 46.024-5.066 65.188-17.655 3.816-2.932 8.256-5.885 7.933-11.317-.388-9.916-1.445-19.679-.626-29.639 4.592-1.638 9.12-2.072 12.331-6.06 4.355-5.389 9.958-8.923 15.24-13.277 4.634-3.428 4.27-12.331-.926-15.047-4.678-2.48-10.542-3.081-15.694-4.16-2.673-27.57 1.422-54.691-1.036-82.521-1.272-10.326-3.986-20.327-4.417-30.805 3.363.927 6.704 1.831 10.089 2.693 2.22-3.6 4.87-9.86 7.673-13.05 8.053 2.932 13.749 2.158 19.66-.68 11.663-5.597 10.152-26.388-.457-28.763-3.993-.893-4.943 4.158-5.698 5.287 4.824-11.046-3.15-17.018-8.61-15.781 1.236-3.354.021-10.513-7.147-10.238 2.475-2.8.322-7.365-.77-8.647-2.563-2.839-5.995-4.645-9.627-4.38.676-3.231-2.089-8.808-5.876-11.236-5.16-3.308-6.374-.491-8.482.225.728-2.418-.453-7.253-5.93-9.473-2.512-1.018-7.892-.566-9.235 2.277.558-3.925-2.558-7.9-4.936-9.648-2.377-1.747-9.036-2.275-10.603-.255.409-2.998-4.507-4.905-8.13-5.272-3.624-.367-8.056 2.946-9.498 4.192-2.474-4.594-7.649-6.774-10.436-7.178-2.787-.403-8.232 1.434-7.544 4.08-.838-5.566-9.098-3.42-13.021-2.195z"/>
<path d="M200.18 145.18c-2.02-.008-4.557.662-6.098 2.41-7.372 7.287-2.758 22.291 7.827 23.562 5.885.668 15.8-.045 17.633-7.03 2.522-6.358 1.661-13.393-2.65-16.835-1.349-1.301-3.476-1.579-6.665-1.137-2.006.278-4.285 1.935-6.707 4.694-.38-2.581-.815-4.11-.592-5.006-.511-.405-1.536-.654-2.748-.659zm-31.125 1.764c-3.212 2.242-7.026 4.051-8.492 7.931-2.738 5.778-.131 12.827.472 18.95-7.178-6.468-5.775-13.259-6.335-22.032-3.19 6.403-7.934 13.775-4.032 20.953 4.958 8.278 19.1 8.171 21.621-2.004 1.035-7.717-3.148-15.866-3.234-23.799zm64.348 2.838c-2.767-.028-4.523.738-5.258 1.078-5.438 2.516-4.227 11.41-2.394 15.7 4.98 5.993 14.119 10.627 21.578 6.272 7.135-2.802 8.166-14.729 1.025-18.797-2.166-1.016-3.46-2.014-6.213-1.27-1.568.797-2.722 2.173-3.582 3.686-1.008-3.301-.837-4.474-.758-6.027-1.674-.454-3.14-.63-4.398-.643zm-57.211 3.736c.216 7.437 2.672 14.229-.13 21.19-1.682 5.412-4.203 8.515.151 13.517 3.751 6.122 8.708 4.655 14.938 5.474-.732-12.999-2.693-32.615-14.959-40.182zm85.891 8.896c-1.398-.01-2.75.32-3.846 1.106-2.05 2.952-3.816 9.68-2.695 14.1 2.587 5.842 9.96 11.877 16.621 10.217 6.941-1.401 12.499-10.572 7.184-15.633-1.473-1.3-2.828-2.672-4.387-2.742-1.305-.06-4.705.584-5.701 2.627-.005-2.944.245-3.679.982-4.865-.706-2.533-4.585-4.783-8.158-4.81zm-67.008 11.992c.474 6.403 1.704 12.762 2.674 19.1 5.885.56 11.79.97 17.676 1.38 1.423-6.748 2.502-13.452 3.105-20.35-8.256 1.034-15.242 1.034-23.455-.13zm29.059 1.036c-1.207 6.92-1.919 13.947-2.824 20.91 4.742.883 9.486 1.832 14.229 2.824 5.023-5.756 7.652-10.498 9.549-17.957-7.093-1.552-13.947-3.88-20.953-5.778zm63.324 7.107c-.112-.002-.223 0-.334.006-7.506.833-8.094 6.052-8.945 9.937-.912 7.847 2.974 11.555 8.17 13.172 4.893 2.22 8.58 2.461 12.826-2.07 1.502-2.761.613-6.604-1.938-8.775-1.538-1.31-3.893.554-6.601 2.332.478-2.23 1.92-4.759 3.584-6.414.3-4.123-3.296-8.116-6.762-8.188zm-36.312.588c-2.802 6.38-5.281 12.89-8.234 19.229 3.837.862 8.039 2.608 11.984 2.242 5.346-1.401 8.882-6.207 12.375-10.152-5.54-3.557-10.78-7.503-16.125-11.318zm-55.348 16.729c-3.56-.027-7.135.038-10.725.172 1.983 3.492 3.987 6.941 5.97 10.434 13.905-.755 27.055-1.552 40.679 2.242 10.649 3.126 21.278 8.15 29.729 15.457 4.828 4.117 8.233 9.874 13.17 13.775 5.066 1.919 10.543 2.952 15.76 4.482-10.584-18.776-29.405-31.752-49.475-38.693-14.573-5.867-29.685-7.75-45.107-7.869zm75.244.95c-3.643 3.039-7.027 6.4-10.605 9.505 4.527 2.652 9.16 6.122 14.227 7.61 3.665-.583 7.244-2.005 10.758-3.126-4.893-4.548-9.442-9.484-14.379-13.99zm33.312 6.638c-9.799.661-9.082 10.13-6.883 16.943 1.25 8.04 12.735 11.839 18.69 8.473 4.202-2.377 7.046-9.591.587-14.615-1.974.522-5.431 3.314-7.435 4.882-.212-1.485-.01-5.87.736-8.656.54-3.105-2.336-6.822-5.695-7.027zm-98.486 9.008c-15.117.001-29.805 3.403-42.18 13.54 3.988 5.929 7.005 14.077 12.373 18.733 8.02 1.487 16.126 1.94 24.08 4.052 14.379 3.902 26.213 11.34 38.264 19.79 2.716-5.045 5.065-12.115 11.252-13.71 10.455-2.974 22.829 7.804 21.299 18.604.065 6.575-5.713 12.395-10.908 15.672-5.476 3.579-12.976 2.07-18.861.41-9.98-3.19-19.682-7.33-29.297-11.469-21.083-8.773-43.998-10.865-66.547-8.019-3.083.302-5.518 1.833-8.191 3.256 11.943 1.66 24.404 1.25 36.13 2.025 9.874.647 20.005 5.044 25.739 13.387 3.815 6.08 5.195 13.947 4.527 21.018-1.466 3.967-4.549 7.373-6.834 10.908 2.371 2.954 4.806 5.887 7.22 8.819-2.5 3.233-5.409 6.38-7.349 9.98-.97 2.953-.389 6.488-.432 9.549.776 21.708.949 42.404-7.523 62.818 10.541-4.247 20.263-8.752 26.859-18.475 9.765-13.107 11.016-28.564 11.943-44.322.647-7.825-.303-16.231 1.982-23.604 2.372-7.48.368-16.405 5.412-22.613 5.627-7.286 15.392-9.206 23.238-4.205 5.217 3.923 9.572 11.167 8.58 17.87-1.961 8.645-9.075 14.444-9.14 23.843-.172 9.506-.452 18.453 6.23 26.02 6.705 8.3 15.864 10.95 25.953 12.762-3.535-5.67-7.63-10.477-8.923-17.203-3.622-15.672-.41-29.467-.432-45.182-.022-22.872 1.898-43.611-7.242-65.275-7.567-20.177-26.236-32.421-46.521-37.186-6.871-1.091-13.83-1.794-20.701-1.793zm83.348 2.547c-2.953 1.487-5.908 3.018-8.84 4.527 4.527 5.734 8.903 10.283 15.736 13.215-2.07-6.015-4.482-11.857-6.896-17.742zm-154.26 5.69c-.754 14.595.735 28.563 1.813 43.093 20.026-1.832 39.406-3.276 59.13 2.049 17.72 4.03 33.544 14.226 51.048 18.387 9.161 2.306 19.27-4.633 18.3-14.377-2.37-8.235-9.678-11.037-17.46-8.17-1.25 3.018-1.552 6.573-2.047 9.785 4.85-1.617 9.592-3.449 14.55-4.785-1.508 5.174-1.961 9.572-7.544 11.814-10.153 1.164-19.057-4.356-26.926-10.047-15.35-11.361-35.546-15.671-54.301-16.555-4.786-9.119-8.753-17.678-17.311-23.994-5.691-4.398-12.267-6.035-19.252-7.2zm160.06 144.73c.288 1.302.594 2.598.906 3.892 1.12.213 2.055.641 2.492 1.42.702 1.248.037 3.088-.959 4.794.337 1.365.67 2.73.987 4.1 2.92-2.934 4.847-6.07 3.572-9.951-.661-2.013-3.461-3.3-6.998-4.254z" fill="#fcdb00"/>
<g fill="#fff">
<path d="M161.51 282.86c-7.802-.094-15.623.7-22.441 1.512 1.681 7.415 4.526 14.29 7.695 21.168-5.712 14.27-15.37 28.176-18.689 43.072 4.247-1.294 8.408-3.299 12.762-4.031 5.002 1.142 9.57 4.159 14.291 6.12-2.392-6.574-4.762-7.652-10.842-10.411 2.587-1.854 5.195-3.707 7.803-5.54 2.889 5.54 5.777 11.08 8.299 16.794-2.997 1.12-6.058 2.413-9.184 3.125-2.845-.432-5.54-2.157-8.148-3.32 1.293 5.238 1.854 10.498 2.242 15.866 7.092.13 14.164.302 21.234.56 3.126 5.929 6.25 11.77 8.342 18.15-3.73-1.788-7.221-4.332-11.145-5.712-4.98-1.078-10.37-.732-15.457-.861a621.009 621.009 0 0 0 4.334 8.427c-3.32 3.945-6.618 7.87-9.83 11.9 3.513-.797 7.027-1.638 10.562-2.37-2.954 4.397-5.496 8.579-6.66 13.86 4.72-3.341 9.075-7.114 13.968-10.219-1.487 3.924-3.213 7.74-4.83 11.598 1.66.776 3.321 1.574 4.98 2.371 1.294-5.712 2.76-10.26 6.878-14.615-.474 3.73-1.185 7.394-1.897 11.08 1.488 2.113 2.995 4.247 4.483 6.36-1.056-7.48-2.046-11.211 2.998-17.635 2.285 6.38.818 12.245 8.32 14.896-.754-4.226-1.79-8.363-2.867-12.502 2.565.582 5.108 1.185 7.652 1.767 6.316-19.983 2.91-39.04 3.967-59.887.237-3.966 3.277-7.803 5.217-11.188a305.642 305.642 0 0 1-4.592-10.152c2.651-5.626 8.796-11.039 6.877-17.484-.905-6.64-2.2-12.588-8.494-16.08-7.797-4.91-17.797-6.5-27.828-6.62zm-6.326 4.332c3.446-.04 6.841.468 10.355 2.225 10.52 5.087 21.88 12.502 27.7 22.936-14.334-6.618-23.475-17.914-40.462-19.617-2.285 2.5-4.549 5.001-6.877 7.437-1.315-4.096-1.94-7.608-1.38-11.92 3.72-.431 7.217-1.02 10.663-1.06zm-6.242 16.473c11.425 2.608 22.354 6.792 33.93 8.969-7.696 5.26-15.671 9.98-24.531 13.062-3.234-7.287-6.338-14.66-9.399-22.031zm101.14 1.014c-3.319.06-6.802 1.586-9.76 3.271-4.182 1.79-7.657 10.464-6.727 11.275 2.393-.23 7.175-13.124 19.057-10.176 5.193 2.552 7.576 13.13 2.635 19.314-2.257.108-4.514.195-6.793.26 1.81-4.635 3.75-9.205 5.064-14.012a83.714 83.714 0 0 0-2.119-.025 75.949 75.949 0 0 0-6.33.263c-1.681 1.66-3.128 3.511-4.53 5.408 2.35 3.644 4.961 7.137 7.397 10.715-4.613 7.2-6.103 11.231-5.672 19.918 3.19.388 6.38.755 9.57 1.1-1.735-10.624 1.242-17.898 7.384-25.943 4.201-5.504 2.63-12.407-2.055-18.227-2.056-2.348-4.54-3.189-7.121-3.143zm-85.23 7.38c-.814-.003-1.64.263-2.27.876-1.962 3.513 2.284 5.39 4.85 3.148 1.503-2.247-.501-4.015-2.58-4.023zm74.969 16.29c-2.954 3.492-7.91 6.66-7.243 11.834-.84 22.57-.065 46.692-16.168 64.52-7.652 9.657-18.064 13.862-29.08 18.432-.388 8.903-1.122 17.698-.863 26.623 26.235 10.843 57.924 4.463 80.58-11.791 2.587-1.984 4.722-3.406 4.291-7.028-1.207-9.205-1.423-18.41-2.178-27.615-.107-2.436-2.953-4.354-4.548-5.949-5.907-4.635-12.158-9.226-17.354-14.615-2.846-5.368-5.41-10.5-9.42-15.156 2.436-9.291.022-17.073-1.4-26.213-.97-4.29 2.197-8.902 3.382-13.041zm10.93 29.252a707.97 707.97 0 0 0-7.264 10.562 598.93 598.93 0 0 0 8.945-1.94c-.453-2.888-.927-5.777-1.681-8.623zm3.687 11.814c-.345 4.268-.282 8.6-.174 12.89 1.25-2.715 5.735-6.79 3.428-9.786-.84-1.208-1.917-2.242-3.254-3.104zm7.717 9.484c0 4.613.582 9.053 1.164 13.645 2.048-4.742 6.984-11.855-1.164-13.645zm12.05 5.56c-3.405 2.652-4.42 6.232-5.907 10.069 2.845-.108 5.67-.28 8.494-.518-.776-3.212-1.595-6.403-2.586-9.55zm8.616 4.428c-.472.01-.984.167-1.523.51-2.027 2.522-.388 7.89 3.363 5.627 2.073-1.983.709-6.19-1.84-6.137zM169.55 323.45c1.055.97 1.055.97 0 0z"/>
<path d="M4 3.998v127.48h392V3.998H4z" stroke="#000" stroke-width="4"/>
</g>
<path d="M396 3.998H4v199.84c5 149.88 80 239.81 196 291.77 117-53.957 192-143.88 196-291.77z" fill="none" stroke="#000" stroke-width="8"/>
</svg>
