<?xml version="1.0" encoding="UTF-8"?>
<svg width="400" height="500" xmlns="http://www.w3.org/2000/svg">
<path d="M396 3.998H4v199.84c5 149.88 80 239.81 196 291.77 117-53.957 192-143.88 196-291.77z" fill="#fff" />
<path d="M70.666 3.998v395.96c18.312 22.737 40.017 42.47 64.668 59.537V3.995H70.666zm129.33 0v491.61c23.31-10.75 44.92-22.956 64.666-36.734V3.994h-64.666zm129.33 0v395.41c35.292-43.482 57.911-97.522 64.666-164.54V4.008h-64.666z" fill="#1c63b7" stroke="#000" stroke-width="4"/>
<path d="M67.313 20.503c-1.132-.044-2.036-.036-2.878.846-1.356 1.16-1.298 2.65-1.38 4.293.005 3.81-.595 7.525-.375 11.344.514 1.692 1.477 3.232 2.072 4.906.766 2.14 1.397 4.307 2.31 6.393.69 1.652 1.594 3.205 2.288 4.857.157.38.268.773.378 1.165 2.486 3.378 7.83 12.2 9.077 13.644.6.636.765 1.401.953 2.22 0 0-5.568-.046-9.597-.8-1.75-.18-3.448-.592-5.18-.883-1.661-.349-3.667.461-4.517 1.952-.206 1.593-.461 3.94.877 5.126 2.176 2.234 5.453 3.25 8.44 3.827l4.574.703c2.126-.063 4.244.094 6.37.004 1.112-.033 2.25-.137 3.374-.134.374.001.747.014 1.116.045 1.401.108 2.722 1.048 3.81 1.885 2.256 1.755 3.751 3.894 5.582 6.052 1.522 1.786 2.695 3.729 3.859 5.757.205.746.339 1.5.437 2.264l-4.206-4.1c-3.035-2.592-6.68-4.467-10.744-4.543-3.156-.054-6.182.013-9.217-1.008l-4.943-.711c-.998-.117-1.987-.14-2.91-.556-1.244-.523-2.327-1.432-3.585-1.893-1.267-.17-2.888.359-3.823 1.218-.31 1.02.085 2.225.64 3.098 1.468 2.408 3.697 4.315 5.537 6.554 1.401 1.71 3.042 2.52 4.296 4.337 2.045 2.472 5.253 6.456 5.253 6.456 1.83 1.056 3.863 2.578 5.967 2.931 2.068.278 4.284-.21 6.37-.308.237 2.61 0 5.493 1.348 7.82.649 1.326 1.813 2.516 1.57 4.083-.281 2.632-.97 5.292-2.34 7.58-1.097 1.83-1.98 3.724-2.754 5.707-.658 1.683-1.585 3.245-2.22 4.928-.436 4.125-.2 8.593.076 12.517.05 1.124 1.039 1.818 1.786 2.52 1.383 1.156 2.673 2.413 4.038 3.586 1.666 1.473 4.383 1.724 6.51 2.02 1.71.13 3.72.483 5.116-.78 1.455-1.298 2.721-2.627 4.58-3.38.724 3.16.151 6.17-.543 9.272-1.168 5.152-2.157 10.484-3.693 15.542-1.432 4.593-4.145 8.421-6.92 12.307-2.66 3.393-5.288 7.436-6.205 11.702-.68 3.545-.909 7.202-1.047 10.806-.09 2.251-.582 4.436-.614 6.692-.053 1.836.166 3.649.175 5.48.036 2.69-.842 4.987-.421 7.717.52 3.071 1.885 5.963 2.498 9.039.667 2.883.667 6.02 1.611 8.805.896 2.43 2.968 4.57 4.589 6.563 2.556 3.106 5.569 5.77 8.22 8.796.997 1.2 1.355 2.112 3.063 3.867-1.966 2.426-3.525 4.813-5.302 6.313-3.143 2.502-6.178 5.162-8.972 8.045-2.113 2.274-3.594 5.242-4.292 8.259-.564 2.789.425 5.05 1.011 7.709.783 3.326.367 6.518.864 9.862.591 3.832.157 7.445.278 11.312.206 4.987-1.75 9.07-.703 14.146.658 3.049 2.65 4.898 4.427 7.284 1.267 1.63 1.921 3.46 2.772 5.304 1.266 2.753 3.115 5.068 4.69 7.763.788 1.249 1.545 2.776 2.687 3.725.617.541 1.535.272 2.22.017 1.795-.752 3.397-2.05 5.05-3.088 1.172.273 2.69 1.307 3.67.111 1.115-1.168 1.007-3.437 1.088-4.946-.05-3.693.47-7.856-1.576-11.124-1.28-2.26-3.474-3.286-5.058-5.17-.712-1.375-.112-3.774-1.214-5.14-1.119-1.62-3.294-1.822-5.058-2.252-.296-2.605-.25-5.125.054-7.722.56-5.31.232-10.757.21-16.084.027-.878.085-1.706.582-2.463 1.213-1.902 2.856-3.406 3.867-5.47.757-1.334 1.335-3.183 2.71-3.98 1.503-.917 3.088-1.688 4.539-2.695 1.132-.81 2.381-1.222 3.724-1.527 1.361 5.7 1.388 11.524 2.068 17.397.448 3.398-.663 6.59-.228 9.974.577 4.356 1.258 8.72 1.643 13.098.166 4.754.756 9.356.465 14.12-.55 6.531-1.875 12.744-5.998 18.013-2.077 2.408-1.03 5.368-2.937 7.812-1.848 2.306-3.805 4.548-5.744 6.782-1.445 1.58-2.87 3.594-2.766 5.833.412.703 1.258 1.182 1.911 1.638 1.79 1.12 3.613 2.39 5.708 2.807 2.86.595 5.936.345 8.63-.783 2.723-1.195 5.328-3.08 7.324-5.283 1.133-1.338 2.252-2.574 2.104-4.454-.33-3.706.497-7.266.506-10.963.913 1.396 1.668 1.981 2.392 2.744 0 0 2.129.268 2.814-.386.914-.871 1.258-4.827 1.428-7.542.596-3.21.247-6.598.386-9.87-.054-4.656.3-9.724-.824-14.227-.435-2.05-1.146-3.81-1.088-5.923-.076-2.471 1.227-4.48 1.92-6.911.864-3.116 2.086-5.874 1.88-9.2.144-5.067-1.946-10.542-.653-15.368 1.124-5.645 1.8-11.321 2.408-17.033.421-2.274.251-4.549.43-6.836 3.16-.01 6.362-.004 9.522.036 2.708.009 5.059.797 7.691 1.25 8.818.844 17.201 1.684 25.898 1.445 14.4-.15 22.897-3.686 34.626-14.36l2.06 1.02 1.933-.233c.998-.215 1.992-.42 2.986-.636.506.766 1.016 1.531 1.53 2.297a37.228 37.228 0 0 0 2.969-3.488c.604.753 1.19 1.46 1.464 2.41 1.285 4.167 1.437 8.464 2.628 12.65.635 2.292.46 4.651 1.06 6.948.64 2.542 1.447 5.04 2.517 7.435 1.164 2.592 1.517 5.412 2.686 8.009 1.754 3.935 2.099 8.402 2.542 12.65.376 3.35.376 6.698.21 10.055-.165 3.188-1.056 6.276-1.965 9.32-1.298 4.611-4.526 8.882-7.31 12.727-1.849 2.615-2.847 5.686-4.629 8.363-1.849 3.057-4.593 5.269-6.5 8.264-1.124 1.75-2.046 3.635-3.089 5.44-1.262 2.175-2.404 4.659-2.64 7.193-.073.922.268 2.363 1.235 2.73 2.878 1.12 6.145.909 9.028 1.468 2.167.466 4.253.708 6.41.019 1.756-.56 4.397-1.142 5.471-2.754 1.066-2.417.874-5.42 1.366-8.017 1.576.072 3.348.403 4.884.013 1.37-.806 2.297-2.659 2.26-4.226-.2-2.453-1.41-4.601-1.351-7.158-.027-2.399 1.048-4.288 2.006-6.406.926-1.965 1.696-3.997 2.524-6.007 1.16-2.86 2.923-5.318 4.253-8.103 1.352-2.775 3.292-7.075 5.414-9.335l4.609-4.748c.148-2.292.13-4.356 1.482-6.325 1.132.215 2.489.617 3.63.304 1.222-1.356 2.444-3.375 3.093-5.09.73-1.84-.12-3.5.01-5.336.425-1.302 1.222-2.422 1.66-3.743.448-1.32.578-2.757 1.075-4.05l.541-.39c2.104.6 3.94 1.656 5.722 2.905 1.992 1.397 4.185 2.32 6.267 3.586 3.17 1.96 6.42 2.995 9.226 5.546 1.97 1.612 2.878 3.89 4.66 5.641 1.41 1.415 2.753 2.937 3.872 4.593.931 1.406 1.21 2.946 1.84 4.517.896 2.19 1.813 4.455 2.404 6.747.958 3.89 1.37 7.843 2.588 11.576.658 1.925.487 4.083.344 6.088-.264 3.071.103 4.635-.649 7.661-.372 1.263-2.368 3.934-3.044 5.07-.743.972-1.876 1.684-2.784 2.498-2.265 1.916-3.684 4.218-5.65 6.447-1.652 2.073-3.24 4.226-4.816 6.361-.886 1.173-1.088 2.346-1.151 3.783 1.527.278 3.084.443 4.593.788 1.204.752 2.09 2.368 3.42 2.865 1.464.219 2.99.121 4.463.152 3.174-.049 5.874.55 8.587-1.53.578-.394.968-.843 1.368-1.29v-.396c0-.523.42-.944.944-.944h.046c.972-1.665 1.466-3.53 2.54-5.442l4.441-6.811c-1.674-2.055-1.16-3.968-.52-6.035 2.118-.146 5.439-2.733 5.68-4.166.327-1.84-.693-3.505-1.257-5.183-.672-1.791-.672-3.537-.757-5.409-.3-6.858-.39-18.928-1.424-25.72-.546-4.243 2.713-3.53 1.438-7.612l-5.722-6.263c-1.517-.596-2.927-1.164-4.073-2.377-1.375-1.486-2.516-3.215-3.537-4.96-1.11-1.903-1.227-4.047-1.822-6.209-.797-3.008-1.858-5.681-1.71-8.873-.84-5.798-1.243-8.228-1.638-13.215-.421-.958-.699-2.014-1.003-3.012 1.03-.238 2.055-.489 3.075-.757-3.93-4.907-4.596-11.587-6.406-17.463-1.104-4.416-2.721-8.182-4.87-12.159-.87-1.625-1.066-3.51-1.227-5.318 3.102 2.588 19.406 9.833 22.691-7.19.426-2.413.197-4.825-.394-7.193-2.177 2.346-5.18 3.34-8.169 4.28-3.424.433-6.657.111-9.804-1.366.268-1.285.698-2.512 1.137-3.743-8.83-9.037-13.99-13.384-16.585-15.1-7.993-6.316-13.301-9.759-22.446-12.525l-5.695-1.213c-7.333-1.145-10.528-1.41-22.27-.846-4.52.029-8.905.995-13.359 1.585-3.438.38-6.8 1.195-10.233 1.589-3.725.452-7.32 1.567-11.022 2.104-12.371 2.164-18.889 3.647-24.062 3.098-3.369-.298-17.099-4.966-18.009-5.184-.067-.48-.13-.959-.197-1.438.725-.622 1.446-1.248 2.163-1.88-1.527-2.184-3.698-2.534-5.905-3.773-1.469-.793-3.138-1.303-4.508-2.243-1.652-1.415-3.089-3.053-3.908-5.095 1.8 0 3.228.014 4.785-.993-3.084-4.038-5-10.008-3.518-17.012 1.284.44 2.583.833 3.903 1.142-1.93-5.279-2.561-10.257-3.425-15.851-.246-1.2.018-2.306.242-3.483 1.2-.197 4.092-1.254 4.092-1.254s-1.039-3.33-1.54-4.924c-.918-2.52-.685-4.916-1.218-7.561-.086-3.867-1.045-8.95-1.901-12.73 5.456-.357 10.878-3.947 18.219-10.1-.26-1.089-1.115-1.581-1.876-2.311 4.476-2.981 8.72-6.084 12.557-9.884 1.7-1.737 3.487-4.039 3.415-6.594-.747-.784-1.285-.737-2.355-.853-1.795.362-3.916 1.005-5.881 1.058-3.89.14-7.803-.125-11.698-.044-2.538.018-5.206.989-7.682 1.517-1.544.376-3.151-.044-4.763.13-1.343.528-2.682 1.379-4.096 1.657-.739-.148-1.567-.842-1.478-1.665.121-1.272.56-2.722 1.42-3.694 1.356-1.226 3.38-1.844 5.05-2.525 1.535-.671 3.25-.9 4.745-1.63 1.495-.975 2.677-2.35 4.27-3.218 2.293-1.396 4.831-1.5 7.445-1.28 5.35.01 8.386.646 12.709.054 3.04-.255 6.572.416 9.513-.587 1.249-.385 2.082-1.544 2.83-2.547.894-1.334 1.915-2.583 1.718-4.293-.005-.918-.824-1.79-1.661-2.06-1.697-.326-3.277.05-4.929.368-2.628.47-5-.242-7.632-.35-1.11-.089-2.43-.125-3.2-1.06-.565-.882.035-1.607.473-2.373 1.424-2.144 2.937-4.23 4.419-6.338 1.746-2.49 2.49-5.265 4.445-7.65 1.63-1.93 3.613-3.542 5.211-5.517 1.455-1.736 4.124-4.26 5.503-6.047l5.074-9.284c-.671-3.43-3.821-4.02-3.821-4.02-3.541.873-7.091 2.636-9.602 5.326-2.655 2.731-6.012 7.347-8.586 10.154-1.432-2.07-1.282-5.037-1.33-7.44.08-3.054-.528-6.022-1.5-8.905-1.428.161-2.471.542-3.555 1.504-2.35 1.858-3.254 4.423-4.051 7.203-1.77 5.739 1.458 14.333.86 18.578-.708 2.816-2.364 5.314-4.58 7.18-3.16 2.848-6.433 5.497-10.077 7.704-.993.533-2.229 1.075-3.375.963-.716-.246-1.316-.85-1.536-1.576-.367-2.072.094-3.903.547-5.904 2.34-.022 4.41-.313 6.63-1.07l-.027-1.826a25.907 25.907 0 0 0-6.621.622c-.197-1.437.098-3.371-.775-4.58-1.141-.152-2.44-.223-3.545.157-1.32.584-2.192 1.57-2.983 2.653l-1.903 8.684-3.088 7.258c-2.377 4.85-4.998 6.228-7.89 8.05-3.86 2.796-5.716 5.79-10.347 6.714-.17-2.735-.062-5.474-.272-8.21-.499-4.504-.386-9.02-.224-13.532 4.567-.343 9.14-.612 13.71-.91l-.182-10.913-.035-.143-13.468.005-.688-15.735c-3.942-.204-7.884-.176-11.827-.106l-.161 15.94s-9.302-.123-12.092.2c-.722.074.284 11.344.284 11.344l12.12-.233s-.02 18.44.018 20.515c0 0-3.406-1.738-4.754-2.723-2.16-2.988-3.729-4.253-4.737-6.767-2.87-5.176-4.235-10.903-6.001-16.51-.007.017-.017.02-.023.037-1.813.82-4.132 1.496-5.113 3.38-.89 1.737-1.262 3.76-1.884 5.61a14.708 14.708 0 0 1-4.053-6.453c-.538-.175-1.665-3.055-1.665-3.055l1.44-4.24 1.92-3.547c.511-2.465 1.246-4.903 1.983-7.291.674-2.742.118-5.36-.248-8.103-.349-1.75-1.888-3.089-3.115-4.28a544.49 544.49 0 0 0-1.683-1.58c-1.218 1.298-1.84 2.49-2.158 4.253-.65 3.568-1.33 7.127-2.234 10.64-.376.87-.882 1.662-1.437 2.432-.223-.332-.447-.667-.671-.998-1.057-1.661-1.343-3.096-2.055-5.238-1.13-3.632-2.507-7.28-3.734-10.913-.006.018-.007.035-.013.052-.918-1.786-1.531-3.684-2.346-5.514zm20.964 16.48c-.064.731-.145 1.55-.234 2.282 1.249.362 2.445.816 3.56 1.535 2.467 1.544 7.839 3.59 7.839 3.59l.521-.96s-8.56-4.883-11.686-6.447zm62.892 1.441s-14.041 5.244-20.873 7.703l1.278 1.336 21.626-6.94zM88.331 50.441a66.571 66.571 0 0 1-3.199.038c-.336.874-.965 2.078-.965 2.078l8.892-.087s-.537-1.33-.89-1.938c-1.268-.15-2.551-.132-3.838-.091zm53.397 3.882c-1.54.02-3.412.154-4.68.25v2.002c2.1-.35 6.48-.353 7.131-.188l.245-1.624c.055-.363-1.155-.459-2.696-.44zm-13.279 8.18c3.172 3.196 5.65 4.659 8.872 7.396l.965-1.177c-1.747-1.37-6.507-5.046-7.568-6.16zm-22.433.344c-2.227 1.903-3.673 4.387-5.898 6.258l.983.957c2.044-1.718 3.465-3.169 5.663-5.487-.197-.591-.484-1.164-.748-1.728zm19.613 6.491c1.375 3.126 1.917 4.033 3.425 8.353l1.494-1.02-3.012-6.912s-1.325-.345-1.907-.42zm-17.884 3.823-.902.107-2 3.937 1.78.546zm-10.47 22.835c.155.003.376.046.595.086l-.846.089c-.044-.136.065-.179.25-.175z"/>
<path d="M121.064 113.053c.132 0 .273.008.423.024.69 1.123-.935 2.704-1.544 3.585-.363.251-.73.493-1.096.73-.117-.855-.22-1.71-.314-2.569.767-1.067 1.25-1.774 2.53-1.77zM126.328 111.217c.56.175 1.137.336 1.67.569-.014.6-.045 1.2-.076 1.8-.555-.184-1.11-.363-1.67-.542.027-.609.05-1.218.076-1.827zM89.186 109.015c.662 1.57 1.23 3.16 1.652 4.816-1.052-1.477-1.433-3.048-1.652-4.816zM140.94 56.79c-.087-.003-.168.007-.255.005.132.002.26.018.39.026-.048-.003-.087-.028-.135-.03zM62.926 22.916c-.396 1.18-.556 2.478-.624 3.79.068-1.312.228-2.61.624-3.79zM125.352 39.738s-.03.655.825.95c6.528-3.024 12.36-7.183 18.237-11.268l-1.464-1.725c-5.768 4.161-11.51 8.352-17.598 12.043z"/>
<g fill="#000">
<path d="m118.969 19.174-1.684 10.222-1.45.136 1.334-10.257zM103.721 19.877l5.71 8.458-1.185.955s-1.718-1.978-2.886-3.652c-.739-1.191-2.992-4.963-2.992-4.963zM130.505 21.954l-5.224 7.667-1.128.039 4.22-7.973zM99.916 35.367c1.679 1.446 3.982 2.852 5.813 4.047l-.863 1.323c-1.643-1.155-4.01-2.327-5.6-3.559-4.96-3.68-10.746-8.44-15.241-11.487.025-.441-.054-.644.132-1.224 5.446 3.237 10.862 7.026 15.76 10.9z"/>
</g>
<path d="M177.08 24.496c-2.543 1.657-3.296 5.077-3.676 7.889-.031 3.174.631 6.401 1.164 9.526.38 2.346 1.352 4.982.46 7.274-1.49 4.325-5.013 7.463-8.37 10.377-2.709 2.216-5.659 4.688-8.936 5.981-1.925.73-4.131 1.034-5.792-.443-1.737-1.562-1.567-4.194-1.495-6.321 0-1.764.546-3.734.157-5.462-.448-.331-.968-.59-1.46-.864-1.365 2.198-2.131 4.19-2.516 6.755-.99 5.574-2.57 10.735-6.665 14.845-1.782 2.019-4.043 3.152-6.303 4.513-2.427 1.508-3.515 4.49-2.906 7.247.828 1.513 3.411 1.979 4.933 2.462l-.107 1.226c-2.436.144-4.194-1.115-6.437-1.688-2.901.04-6.134 1.045-8.592 2.701-.465.314-1.274.308-1.73.63l.017-2.341c-.063.801.07 2.315-.77 2.749l-5.565-1.084c-.022.614.054 1.269.018 1.882 2.767.492 6.118-1.275 8.741-2.25.614.868-.267 3.3.342 4.173-1.755 1.468-3.385.708-5.448.69-1.46-.107-3.085.098-4.495-.296-2.153-2.596-1.916-7.328-2.059-10.52-2.493-.877-4.82-1.602-6.625-3.666-2.919-3.268-5.148-7.216-7.288-11.026-1.683-2.928-2.229-6.164-3.482-9.24-1.017.224-1.703 1.782-1.748 2.574-.09 2.82 2.602 5.57 2.182 8.278-.748.967-2.082 1.293-3.049.425-1.495-1.33-2.704-2.981-4.092-4.427-1.862-1.983-2.726-4.307-4.185-6.545-.976-1.585-2.024-2.937-2.113-4.88-.099-2.086-.125-4.432.6-6.419 1.065-3.084 3.017-5.516 3.76-8.748.72-3.348 1.898-6.42.376-9.754-.526-.509-.695-.664-1.098-.637-.94 1.943-1.664 4.568-1.96 6.712-.505 2.619-.59 5.363-2.752 7.234-.905.766-2.453 2.086-3.711 1.858-.954-.694-1.33-2.216-1.782-3.26-.994-2.757-2.211-5.416-3.357-8.11-1.155-2.696-1.68-5.56-2.955-8.211-1.831 4.038-.73 7.762.125 11.85.748 3.348 2.83 5.82 3.751 9.052.323 1.19.842 2.184 1.527 3.2.95 1.393.935 2.955 1.714 4.517.636 1.245 1.536 2.382 2.288 3.56 1.742 2.595 2.614 5.452 4.66 7.873.815 1.106 2.247 2.476 2.041 3.958-.036 1.097-1.195 1.674-2.135 1.875-1.979.376-4.186-.102-6.2-.196-4.154-.17-7.346-2.082-11.572-1.075.157 1.093-.179 2.82.877 3.505.945.81 2.485.824 3.671 1.061 1.473.206 2.802 1.07 4.248 1.29 1.495-.099 2.897-.591 4.428-.461 1.16.004 1.957.6 2.932 1.141.645-.38 1.285-.765 1.925-1.146 2.619 1.32 5.251.125 7.897 1.285 1.884.738 3.075 2.189 4.732 3.196.989.362 2.265-.067 3.24.362 1.026.533 1.957 1.285 2.888 1.97-.13.573-.26 1.142-.385 1.715.614.233 1.302.425 1.84.805.241.936.255 1.93.484 2.866.47.69 1.49 1.003 2.291.9 1.585-.734 2.852-2.252 4.204-3.35.013.663.058 1.353-.022 2.015-.654 1.115-1.952 1.917-2.915 2.754 1.531 1.298 3.241 2.238 5.05 3.093-.748.627-1.504 1.356-2.382 1.795-1.204.318-2.56-.018-3.796.183-1.244.591-2.26 1.707-3.415 2.476-1.796 1.267-3.855 1.755-5.7 2.834-1.07.604-1.647 1.737-2.305 2.73 1.034 1.344 2.332 2.758 2.928 4.36.573 2.078.009 4.54-.408 6.608-.35 5.39-2.038 10.368-4.686 15.073-1.536 2.579-3.085 5.283-4.029 8.139-.77 1.884 1.213 3.263 2.82 3.585 2.372.354 4.763-.045 7.14.475-.42 2.457-2.153 3.478-3.67 5.202-1.196 1.119-.905 3.259.456 4.092 1.186.349 2.53.255 3.76.309.068 1.123.126 2.247.193 3.375 2.636-.144 5.21-1.652 6.947-3.586.497-1.988-.37-3.895 1.21-5.493 2.412-2.507 5.04-4.83 7.57-7.225 2.202-2.104 4.96-2.422 7.833-2.915-1.53 3.12-4.463 3.228-7.02 5.681 1.532.134 2.978.251 4.49-.094 5.954-1.257 13.954-7.034 18.082-10.273-5.702 9.576-8.908 11.196-15.803 14.383.753 1.468 1.612 2.833 2.718 4.064.725.909 1.741 1.93 2.037 3.076a75.5 75.5 0 0 0-3.094 7.378l-2.126-.404c-.233.663-.502 1.357-.627 2.046-.18 1.75.524 3.59.363 5.331-.314 1.608-1.334 3.144-2.086 4.59.532.711 1.056 1.428 1.575 2.148-1.32.358-3.245.497-4.154 1.634-1.047 1.217-1.858 2.628-2.852 3.895-1.544 1.92-2.713 3.823-5.072 4.839.161-1.124.296-2.193.945-3.16 1.867-2.924 4.029-5.39 5.323-8.672a28.668 28.668 0 0 0-5.404-.05c-.367 2.472-.564 5.185-1.616 7.459-.958 2.14-2.373 3.792-3.814 5.6-1.549 1.916-2.784 4.034-4.387 5.91-1.016 1.213-1.96 2.39-2.395 3.948-.868 3.142-1.782 6.267-2.825 9.356-.832 2.279-1.822 4.284-1.826 6.787-.022 7.547.157 15.104-.05 22.651-.089 3.434 1.51 6.944 2.351 10.26 1.16 3.148 1.397 6.957 3.456 9.517 2.743 3.905 7.33 9.304 12.426 13.954l4.804-5.986c1.625-2.708 3.684-5.215 5.94-7.422 1.742-1.674 3.887-2.56 6.259-2.887-3.066 4.875-6.898 9.217-9.79 14.186-1.782 2.91-3.833 5.605-6.273 7.996-2.694 2.883-5.85 5.143-8.787 7.749-2.068 1.826-4.333 3.433-6.325 5.335-1.728 1.59-2.355 4.334-2.964 6.532-1.083 3.474.555 7.346.712 11.022.13 2.166-.363 4.26-.076 6.436.327 2.731.309 5.4.018 8.13-.354 3.156-.184 6.223-.224 9.388.022 2.368-.076 4.97.523 7.27.784 2.771 2.897 4.84 4.446 7.176 1.262 1.871 1.374 3.953 2.77 5.721 1.778 2.22 3.668 4.392 5.772 6.317.447-.497.899-.994 1.347-1.491-2.53-2.86-5.44-4.57-6.63-8.443 1.208.371 2.363.775 3.353 1.585 2.596 2.037 4.727 4.53 7.471 6.397 1.016-2.534 2.185-5.381.927-8.054-1.388-2.999-4.508-4.494-6.804-6.675-1.554-1.316-1.433-4.11-1.585-5.99-1.025-.272-2.203-.438-3.13-.975-1.154-.99-1.781-2.664-1.826-4.159-.094-1.96.018-3.94.224-5.891.398-3.622.39-7.296-.067-10.909-.345-2.937-.193-5.981-1.272-8.72-.416-1.227-.976-2.476-.649-3.797 1.075-1.374 4.248-.376 5.162-2.041 1.325-1.863 2.355-3.944 3.447-5.945 1.683-.076 3.532.022 5.076-.712 1.809-.864 3.42-2.279 4.979-3.523 3.912-3.107 7.314-6.742 11.325-9.733 3.599-2.878 7.83-4.928 12.346-5.882 1.88-.416 3.636-.855 5.1-2.189 3.321-2.86 4.61-6.845 5.505-10.986 3.018 1.903 4.486 3.35 7.078 5.05 7.22.702 10.953.89 15.135 1.227 2.522.386 5.287.556 9.58-.121 5.54-1.157 13.39-3.19 18.448-3.22.878-.021 1.617.718 2.337 1.16-5.175.708-10.026 3.022-14.674 4.455-3.727.385-5.49.252-8.268.582-4.092.615-6.866.829-10.709.649-1.423-.278-2.869-.17-4.288-.416-1.285.31-4.675-1.205-7.341-1.617-1.366-.496-2.642-1.262-3.985-1.83-1.732 1.956-3.384 3.953-4.713 6.21 2.843 1.602 5.945 2.604 9.164 3.115 7.241.716 13.586 1.309 20.99 1.195 9.54 0 15.01-.564 24.358-4.07 2.175-.868 4.284-1.36 6.141-2.86 3.103-2.502 5.596-5.833 8.748-8.295 1.101-.954 3-.39 4.087-1.262 1.365-1.012 2.575-2.261 4.2-2.915.975-.389 2.143-.366 3.182-.43-1.146 1.384-2.713 2.328-3.845 3.698-.403 1.142.062 1.97.546 2.964l4.92-2.852c2.01-.712 3.948-2.068 5.774-3.134 2.19-1.4 4.63-.55 6.63-2.475-3.062-2.082-6.495-2.954-9.781-4.552.877-.542 1.598-1.187 2.695-1.129 3.595.161 7.274 1.706 10.497 3.215 3.286 1.472 6.742 3.335 9.29 5.918.998.976 1.078 2.591 1.436 3.89.466 2.202 1.643 3.831 2.726 5.752 1.339 2.3 2.373 4.75 3.747 7.033.64 1.114 1.415 2.23 1.85 3.442.358 1.12-1.143 2.435-.23 3.425 1.366 1.884 3.139 3.465 4.63 5.256 1.427 1.687 3.008 3.016 4.996 4.006 4.812 2.462 9.047 5.694 13.17 9.16a629.525 629.525 0 0 1 15.27 11.638c1.826 1.518 3.294 3.6 4.825 5.422 1.688 2.005 3.053 4.185 4.07 6.607 1.423 3.37 2.95 6.554 3.84 10.023.833 3.214 1.41 6.519 1.607 9.831.126 3.577-.017 7.154.063 10.735-.022 1.4.13 3.084-.42 4.396-.784 1.79-2.118 3.084-3.523 4.382-2.14 1.948-3.631 4.388-5.7 6.416-2.538 2.6-5.286 5.69-5.514 9.494 1.638-1.647 2.717-3.67 4.18-5.443.73-.91 1.715-1.236 2.758-1.661-.738 4.194-3.926 6.934-4.982 11.066 2.484.703 4.915.626 7.48.523 1.598-.12 2.906-.84 3.868-2.121 1.513-2.005 1.75-4.186 2.462-6.505.541-2.01 2.314-3.478 3.612-5.063-1.956-.367-3.863-.072-5.823-.152-1.245-.022-1.899-.976-2.727-1.746 1.294-.42 2.606-.926 3.989-.841 1.415.094 2.816.367 4.23.506.067-2.087.202-4.146.632-6.196 1.441-.296 3.012-.524 4.35-1.155.721-1.141.542-2.802.435-4.092-.61-3.765-.86-7.44-.99-11.24-.366-4.289.059-8.649-.398-12.924-.394-3.25-2.118-5.542-3.053-8.613-.591-1.804-.797-3.649-.94-5.529 1.25.027 2.498.058 3.747.085-.125-1.213-.005-2.283-.922-3.237-2.892-3.165-6.625-5.658-9.46-8.899-1.727-1.942-2.493-4.857-3.41-7.265-1.42-3.662-2.038-7.445-3.013-11.232-2.937-13.34-4.84-26.698-8.46-39.72-.65-2.405-1.223-4.952-2.15-7.257-1.204-3.026-2.99-5.574-3.993-8.712-1.437-4.848-2.681-10.229-5.614-14.383a20.96 20.96 0 0 1 1.46-.994c1.253.068 2.26 1.12 2.995 2.042 3.16 4.15 4.978 8.671 9.038 12.028 1.93 1.536 3.527 4.08 5.958 4.504 4.574 1.102 9.873-2.203 10.507-2.704 1.719-1.307 1.96-3.129 2.1-5.152-2.19.631-4.275 1.903-6.5 1.862-2.077.054-4.1-.17-5.994-1.075-1.867-.895-3.573-2.336-5.243-3.563-.98-.765-2.162-1.598-2.807-2.681-.255-1.048.099-2.293.274-3.345-2.35-1.486-4.49-3.254-6.81-4.785-7.305-6.32-15.08-12.695-24.5-15.52-11.176-4.175-22.153-3.214-33.74-3.098-18.48 1.764-27.266 3.287-34.399 4.996-4.892 1.083-9.834 1.54-14.826 1.862-3.272.363-6.554.407-9.84.304-2.77-.094-5.447-.895-8.12-1.584-4.843-1.097-8.613-4.567-13.6-5.668-1.642-.34-3.366-.036-5.076.027.501-1.383 1.093-3.04 2.337-3.921.998-.564 2.224-.762 3.312-1.093-3.156-3.536-7.22-7.462-8.192-12.266-.617-2.57-1.383-5.098-1.916-7.686.918-.17 1.83-.344 2.749-.51a32.82 32.82 0 0 0-.175-5.856c-.233-1.992-.05-3.997-.264-5.985-.287-2.01-1.208-3.984-1.849-5.913 1.285-.444 2.306-.331 3.613-.04.188-3.568.322-6.957-.627-10.44-.631-2.238-1.472-4.405-2.05-6.661l1.244-1.061c.748 1.016 1.496 2.032 2.243 3.053.215-1.562.546-3.188.48-4.768-.328-4.553-1.492-10.805-3.072-15.071-1.266.033-1.482-.28-2.646-1.116-.998.962-2.023 1.893-3.142 2.717-.497-1.76-.399-2.977.098-4.705 4.23-.09 8.175.045 12.32-1.079 3.133-.93 5.882-2.583 8.474-4.54-.73-.693-1.464-1.392-2.189-2.09 1.218-.756 2.503-1.455 3.64-2.328 2.48-1.769 4.507-4.13 8.998-6.719 2.162-1.428 4.042-3.394 5.846-5.238-.582-.39-1.075-1.105-1.84-.966-1.831.138-3.447.783-5.345.595-1.71-.188-3.308-.609-5.045-.394-4.427.56-9.445-.331-13.788.605-2.851.671-4.624 3.191-6.388 5.318-2.176 2.784-5.247 5.917-8.801 6.75-2.95.35-6.308-.994-9.034-2.032-1.36-.537-2.794-.47-4.177-.85-.78-.162-.654-.954-.676-1.581.394-2.534 2.09-3.926 4.038-5.345 1.146 1.065 2.578 2.816 4.262 2.82 1.97.085 3.944.005 5.913.072-.962.609-1.858 1.285-2.654 2.1.734.017 1.459.013 2.184.13-.59.787-1.24 1.54-1.862 2.3.55.059 1.115.144 1.67.135.72-.314 1.338-.923 1.943-1.41l.492-.413c1.334-1.078 2.632-2.04 3.68-3.429.908-1.181 1.463-2.489 2.027-3.854-1.535.367-3.003.94-4.52 1.36-.981.345-2.235-.088-2.794-.961.17-.91.542-1.791.698-2.7.05-.837-.202-1.688-.246-2.525 1.987-1.208 4.374-1.66 6.388-2.865 1.562-.801 2.574-2.144 3.957-3.142.967-.492 2.113-.672 3.16-.927.506-.864.999-1.737 1.487-2.61 1.204-.071 2.462-.067 3.644-.318.416-.725.541-1.674.707-2.484 2.104.05 3.684-.238 5.645-.99 3.17-1.2 6.026-.653 9.32-.801 2.691 0 5.7-.21 8.296.51.86.207 1.727.556 2.609.632.774-.39 1.437-1.043 2.109-1.59.815.444 1.656 1.008 2.556 1.25 1.33-.233 2.713-.954 3.747-1.818.474-1.33-.815-2.614-2.154-2.39-3.769.344-7.542.47-11.32.112-1.693-.197-3.622-.43-5.144-1.236-1.137-.6-1.827-1.746-2.56-2.753 2.251-2.413 4.762-4.593 6.643-7.292 1.759-2.525 2.945-5.359 4.838-7.803 1.209-1.522 2.02-3.282 3.12-4.867 3.282-4.033 7.011-7.552 10.704-11.209 1.196-1.19 2.62-2.404 3.488-3.858-.126-1.522-1.42-1.473-2.601-1.778-.98-.317-1.813.806-2.516 1.347-1.813 1.782-3.895 2.794-5.457 4.804a831.624 831.624 0 0 0-6.433 8.393c-.654.954-1.584 1.29-2.614 1.693-1.2-2.78-2.592-5.726-3.04-8.734-.237-2.91.403-5.717-.273-8.626zM62.374 86.22c2.377 2.968 5.395 5.309 7.732 8.335 3.134 3.228 5.435 7.056 8.8 10.006.677.573 1.496 1.262 2.414 1.347 1.894.144 3.855-.197 5.74-.403.706-.139 1.592-.156 2.04-.805 1.276-1.665 1.872-3.55 3.51-5.01 1.817-1.58 4.159-2.637 6.294-3.716l-2.664-.478c-2.086-1.133-3.523-2.896-5.788-3.76-4.875-2.283-9.915-1.894-15.484-2.682-4.485-.242-8.076-2.843-12.593-2.834zm103.182 5.049c.307-.001.614.005.923.018-3.183 2.086-6.562 1.276-10 2.838 1.074.18 2.157.305 3.24.403-.058 1.92-1.584 2.261-2.914 3.268.058.64.135 1.29.112 1.93-.967.658-2.292.908-3.425 1.141-2.157.385-4.324.707-6.468 1.182-.21-.658-.846-1.357-.318-2.015 1.074-1.638 2.682-2.967 4.033-4.377-.756-.01-1.509-.018-2.26-.023.084-.546.165-1.092.246-1.643 3.304-1.925 6.728-1.96 10.426-2.274 2.146-.126 4.256-.443 6.405-.448zm-35.084 3.101c-.081 0-.164.004-.25.01-.286.34-.559.699-.818 1.066 1.37.434 2.543.635 3.989.425-.86-.84-1.702-1.51-2.921-1.501zm-44.24 49.287c-.228.896-1.185 2.634-1.043 4.007.109 1.05 1.02 2.146 1.41 2.835.42-.855 2.493-1.991 2.197-2.985-.43-.712-2.013-3.234-2.564-3.857zm25.086 21.575c-.358 1.343-.384 2.686-.425 4.065.985.165 1.97.322 2.955.47-.64-1.733-.958-3.37-2.53-4.535zm2.61 17.186c-1.32 2.73-3.093 5.143-4.991 7.493-1.186 1.455-.788 3.232-1.866 4.777-1.146 1.723-2.48 3.004-2.892 5.126-.529 2.243.313 4.208-.014 6.464-.233 1.415-.25 2.851-.483 4.266-1.724.282-3.013.327-4.316 1.656-.116-.962-.304-1.947-.286-2.914.33-.712.958-1.316 1.477-1.898-.076-1.316-.21-2.547-.01-3.863.274-1.876 1.111-3.635 1.572-5.515.479-1.728.757-3.734 1.612-5.31.913-1.602 2.435-2.958 3.626-4.373 1.2-1.356 2.211-2.879 3.451-4.195.869-.944 1.957-1.267 3.12-1.715zm120.282 67.005c-.103.734-.045 1.62-.376 2.288-.734.8-1.934 1.23-2.888 1.71.278-.77.56-1.62 1.021-2.297.547-.725 1.487-1.222 2.243-1.7zm7.883 7.395c-.881-.034-1.997.53-2.605.882-1.593.927-1.714 2.709-1.911 4.347-.412 3.295-.113 6.527.236 9.808.51 4.298 2.28 7.785 3.354 11.935.712 2.583.908 5.028 2 7.396.847 1.813 1.827 3.559 2.669 5.372.537 1.052 1.043 2.26 1.853 3.124.698.403 1.772.25 2.57.331.228 1.5.479 2.906-.01 4.392-1.132 3.698-1.916 7.445-1.822 11.33-.017 2.758.672 5.323.488 8.04-.08 1.487-.935 2.763-1.606 4.043-.85 1.504-1.464 3.102-2.069 4.713-.846 2.243-1.92 4.37-2.695 6.64-.322.868-.586 1.794-1.047 2.595-.765.976-2.127 1.47-2.879 2.472-.608.918-1.016 2-1.441 3.012-1.397 3.465-3.228 6.809-4.88 10.166 1.124 1.25 2.279 2.467 3.43 3.69-.587.326-1.227.913-1.908.97-1.275-.084-2.516-.662-3.783-.778-1.844.73-3.697 2.58-4.686 4.21-4.684 5.66-4.262 6.396-.887 7.78 1.343-2.43 2.58-6.847 4.656-8.83.166 1.025.461 1.903.005 2.905-.833 2.037-1.746 4.016-2.315 6.156 2.83.989 5.637 1.714 8.542.501 1.119-.434 1.235-1.423 1.473-2.462.532-3.165.56-6.41.98-9.589.004-.877.989-1.096 1.584-1.54a767.04 767.04 0 0 0 2.234 3.054c.403.022.802.049 1.204.076.48-1.791.708-3.46.708-5.319-.027-3.053 1.06-6.2 1.983-9.096 1.03-2.923 1.67-5.695 3.112-8.43 1.907-3.707 3.84-7.39 5.371-11.281 1.576-3.796 4.213-6.531 6.728-9.678 1.979-2.906 3.73-6.218 4.338-9.715.403-1.611.533-3.223 1.934-4.324 1.038.671 1.083 2.422 1.397 3.523.993.108 1.988.215 2.986.318.448-2.646.394-5.148-.085-7.78-.461-3.407-1.849-6.286-3.273-9.388-.617-1.383-1.97-1.697-3.2-2.377-2.369-1.061-4.038-3.362-5.717-5.274-1.76-2.153-3.949-3.804-5.57-6.083 1.37.663 2.678 1.42 3.81 2.449 3.067 2.681 4.696 5.954 8.174 8.165.305-2.408-.988-4.19-2.25-6.102-.829-1.378-2.405-.913-3.596-1.705-.89-.73-1.612-1.706-2.39-2.547-1.764-1.988-4.079-3.29-5.91-5.23 1.885.695 3.658 1.442 5.117 2.875 1.536 1.513 2.861 3.152 4.688 4.347-.26-1.007-.35-2.176-1.16-2.923-.896-.887-1.993-1.603-2.995-2.36-1.988-1.464-3.774-3.116-5.708-4.651-2.176-1.768-4.454-3.143-6.258-5.345 1.339.358 2.6.797 3.684 1.692 2.601 2.1 5.099 4.307 7.843 6.218.09-.779.408-1.714.184-2.48-.452-.846-1.388-1.495-2.135-2.073-3.398-2.39-6.272-5.398-9.643-7.833-1.518-1.043-1.195-2.664-2.126-4.07-.214-.174-.482-.252-.775-.264zm5.278 3.828c1.957 2.543 4.11 5.162 7.154 6.415-.322-1.195-.439-2.34-1.424-3.196-1.638-1.419-3.76-2.355-5.73-3.219zm-114.207 15.83c.524 1.212 1.035 2.354 1.926 3.348.975 1.133 2.345 2.081 3.133 3.344.255 1.02-.201 2.251-.362 3.276l-2.131-.053c-.13-1.759.134-3.487-.932-4.987-1.132-1.54-2.332-3.348-3.952-4.4-1.205.183-2.637 1.15-3.228 2.22-.434 1.137.716 1.55 1.612 1.688.99-.224 1.924-.81 2.824-1.25.613.914 1.438 1.93 1.67 3.022-.103 1.375-.676 2.722-.747 4.096.94.882 2.135 1.527 3.223 2.208l-.578 2.157c-2.314-.99-3.997-2.663-5.953-4.172-1.925-1.526-3.56-3.313-5.148-5.166-.918.703-2.266 1.486-2.633 2.641-.434 1.885.256 4.15.654 6.021 1.097 4.576 1.486 9.204 2.247 13.842.542 3.595-1.62 7.077-1.289 10.448.48 1.96 2.278 3.604 2.668 5.658-.01 1.666-1.052 3.13-.837 4.907.685 4.982.712 10.081.277 15.09-.586 3.841-.873 7.687-1.137 11.564-.232 4.32-3.155 8.545-4.924 12.346-.752 1.468.492 3.076 1.074 4.4a85.702 85.702 0 0 1 4.15-.438c-.045.945.17 1.696-.86 2.184-1.58.564-3.625-.474-5.188-.22-1.557.856-2.337 2.983-2.959 4.545-.757 2.149-1.867 4.248-2.36 6.473-.219.787.288 1.678 1.107 1.799 3.577.479 7.368-1.056 9.938-3.527.927-.9 2.238-2.064 2.27-3.452.16-3.255-.269-6.536-.121-9.795-.13-1.907 1.943-3.832 3.608-4.185 1.222-.26 2.524.609 3.715.985.05-2.834-.187-5.708.063-8.52.757-5.855-.502-12.247-1.366-18.058-.443-3.178-.156-6.245-.084-9.42.035-1.973-.972-3.544-.972-5.514.009-1.119.327-2.202.6-3.277a64.93 64.93 0 0 0 2.619.278c-.215-2.771-.65-5.457-.502-8.242.094-1.768.667-3.451 1.093-5.161 1.07-4.181 1.495-8.34 2.252-12.565.617-3.139.706-6.3.832-9.486-.014-.806.04-1.54-.466-2.22-1.285-1.751-3.062-3.189-4.826-4.433zM257.36 287c3.11 1.822 5.501 4.705 6.424 8.219-1.075-.712-1.98-1.513-2.66-2.619-1.204-1.903-2.542-3.711-3.764-5.6zm-154.51 48.795c-.018 1.03.296 1.997-.501 2.816-.524.765-1.858.56-2.673.694.197-.685.255-1.621.734-2.172.68-.595 1.63-.953 2.44-1.338zm12.442 34.46s-6.151 8.346-6.495 10.328c.135 1.369 2.235 1.53 2.235 1.53.076-3.16 2.239-6.692 4.943-11.365z" fill="#f00000"/>
<path d="M112.334 36.113c1.939-.43 6.14-.38 6.14-.38s.199 4.552.203 6.934c-.098 3.134-.002 9.155-.002 9.155l14.718.031.093 6.267-15.301.537s.82 22.158.64 33.24c-1.6.881-4.21.822-6.27.468-.076-.456.003-1.44-.064-1.897-.153-6.531-.072-13.067-.166-19.603.094-4.007-.439-11.966-.439-11.966l-12.825.002-.055-7.234s12.759-.102 12.821-.096c0 0 .042-4.723.109-6.662.076-2.891-.197-5.971.398-8.796z" fill="#fcdb00"/>
<path d="M128.768 104.05c-.363 1.088-.416 2.364-1.656 2.825-1.312.327-2.92-.452-4.195-.77-1.45-.461-2.713-.036-4.14.246.259-.546.505-1.115.827-1.625.766-.492 1.92-.443 2.798-.52 2.153-.062 4.213-.411 6.366-.156z" fill="#000"/>
<path d="m119.228 112.086-2.269 3.27.02 2.032.343 1.06s1.678.819 2.948.455c1.27-.364 2.41-.364 2.41-.364l3.313-1.979 4.346-2.993-.866-3.124-5.325.04-3.006.522-2.058 1.19" fill="#fff"/>
<path d="M132.403 108.464c.192.528.707 1.168.501 1.737-.519 1.63-2.09 2.9-3.317 4.006-.515-.81-1.02-1.642-1.59-2.421-.532-.233-1.11-.394-1.669-.569-.027.609-.05 1.218-.076 1.827-.076 1.325-.206 2.905-1.012 4.01-.819 1.093-2.207 1.81-3.559 1.299-.676-.412-1.217-1.11-1.737-1.692.61-.882 2.234-2.462 1.545-3.586-1.607-.17-2.109.568-2.955 1.746-.367 1.32-.667 2.659-1.079 3.97-1.383-1.414-1.504-3.473-.76-5.233.989-1.656 2.65-3.003 4.387-3.823 2.01-.908 3.952-.51 6.056-.326 1.876.219 3.479-.493 5.265-.945z" fill="#000"/>
<path d="M68.36 91.354c1.402 1.558 3.246 1.997 5.108 2.834 1.791.792 3.712 1.307 5.457 2.184 1.75.891 2.619 2.928 4.065 3.93 1.37.77 3.165.945 4.696 1.187 1.048-2.144.55-4.736-1.056-6.433-1.339-.488-2.987-.116-4.334-.68-1.558-.626-2.994-1.656-4.705-1.83-1.32-.095-2.798.303-4.123.013-1.719-.377-3.34-1.025-5.108-1.204zm45.125 27.025c-1.692 1.155-1.129 3.26-2.722 4.396-1.854 1.55-3.371 3.778-3.747 6.192l1.16.148c1.324-1.8 2.6-3.658 4.046-5.36.582-.711 1.263-1.49 1.522-2.39.215-.944-.085-2.05-.26-2.986z"/>
<path d="M396 3.998H4v199.84c5 149.88 80 239.81 196 291.77 117-53.957 192-143.88 196-291.77z" fill="none" stroke="#000" stroke-width="8"/>
</svg>
