<?xml version="1.0" encoding="UTF-8"?>
<svg width="600" height="747" xmlns="http://www.w3.org/2000/svg">
  <path d="M594.35 242.1c0 272.77-100.46 424.31-294.35 498.4C107.12 666.134 5.65 514.85 5.65 242.1V5.66h588.69z" fill="#f00000" />
   <g stroke="#000">
  <g fill="#fcdb00">
   <path d="M250.149 36.496a39.827 39.827 0 0 0-7.965 25.854 38.659 38.659 0 0 0 14.178 22.828v-.004a39.573 39.573 0 0 0 7.969-25.77 39.32 39.32 0 0 0-14.182-22.908zm99.821.084a38.976 38.976 0 0 0-14.262 22.746 39.324 39.324 0 0 0 7.97 25.852 38.976 38.976 0 0 0 14.255-22.746 39.324 39.324 0 0 0-7.963-25.852zM154.321 63.006a39.838 39.838 0 0 0-1.357 27.082 38.508 38.508 0 0 0 19.117 18.331v-.004a40.324 40.324 0 0 0 1.357-27.081 38.508 38.508 0 0 0-19.117-18.328zm292.109.084a38.617 38.617 0 0 0-19.598 18.166 39.94 39.94 0 0 0 1.115 27.08 38.213 38.213 0 0 0 19.598-18.164 39.945 39.945 0 0 0-1.115-27.082zm-129.69 5.314a39.929 39.929 0 0 0-1.115 27.082 38.152 38.152 0 0 0 19.516 18.244 39.929 39.929 0 0 0 1.115-27.082 38.152 38.152 0 0 0-19.516-18.244zm-33.374.242a38.61 38.61 0 0 0-19.676 18.082 39.929 39.929 0 0 0 .955 27.082 38.205 38.205 0 0 0 19.678-18.082 39.929 39.929 0 0 0-.957-27.082zm-57.355 7.53a39.876 39.876 0 0 0 5.736 26.423 37.744 37.744 0 0 0 23.578 12.436 39.64 39.64 0 0 0-5.416-26.423 37.578 37.578 0 0 0-23.898-12.436zm148.32.248a37.714 37.714 0 0 0-23.976 12.19 39.868 39.868 0 0 0-5.896 26.426 37.408 37.408 0 0 0 23.898-12.27 39.445 39.445 0 0 0 5.972-26.346zm31.87 8.584a39.744 39.744 0 0 0-7.969 25.856 38.976 38.976 0 0 0 14.262 22.746 39.407 39.407 0 0 0 7.963-25.773 39.309 39.309 0 0 0-14.256-22.83zm-212.059.254a38.96 38.96 0 0 0-14.416 22.661 39.997 39.997 0 0 0 7.963 25.938 39.286 39.286 0 0 0 14.42-22.664 39.83 39.83 0 0 0-7.967-25.935zm94.072 22.083a38.303 38.303 0 0 0-19.674 18.332 39.846 39.846 0 0 0 .953 27.078 38.28 38.28 0 0 0 19.678-17.998 39.842 39.842 0 0 0-.957-27.412zm23.348 0a39.929 39.929 0 0 0-1.116 27.082 38.474 38.474 0 0 0 19.516 18.244h.004a40.265 40.265 0 0 0 1.194-27.08 38.545 38.545 0 0 0-19.598-18.246zm-166.46.108a36.954 36.954 0 0 0-4.486.388 39.793 39.793 0 0 0 12.189 24.055 37.419 37.419 0 0 0 25.807 5.725 39.13 39.13 0 0 0-12.186-24.053 36.954 36.954 0 0 0-21.324-6.115zm308.929.037a37.408 37.408 0 0 0-20.504 5.916 39.61 39.61 0 0 0-12.344 23.975 37.408 37.408 0 0 0 25.89-5.483v-.002a39.61 39.61 0 0 0 12.345-23.972 37.408 37.408 0 0 0-5.387-.434zm-386.458 6.734a39.634 39.634 0 0 0 5.578 26.512 37.29 37.29 0 0 0 23.34 12.518c1.307-9.23-.643-18.633-5.5-26.51a38.077 38.077 0 0 0-23.418-12.52zm465.207.076a37.57 37.57 0 0 0-23.9 12.352 40.129 40.129 0 0 0-5.736 26.512 37.729 37.729 0 0 0 23.898-12.355 40.129 40.129 0 0 0 5.738-26.508zm-301.748 1.225a39.8 39.8 0 0 0 5.654 26.508 37.714 37.714 0 0 0 23.502 11.943 39.876 39.876 0 0 0-5.738-26.424 37.72 37.72 0 0 0-23.418-12.027zm137.73.012a37.245 37.245 0 0 0-23.899 12.189 39.702 39.702 0 0 0-5.896 26.344 37.245 37.245 0 0 0 23.9-12.19 39.702 39.702 0 0 0 5.894-26.343zm22.626 5.715a39.827 39.827 0 0 0-7.969 25.853 38.969 38.969 0 0 0 14.338 22.744 39.407 39.407 0 0 0 7.967-25.768 38.972 38.972 0 0 0-14.336-22.83zm6.37 48.597a39.407 39.407 0 0 0-.003.002h.004a38.969 38.969 0 0 0-.002-.002zm-189.12-48.185a38.95 38.95 0 0 0-14.498 22.661 39.66 39.66 0 0 0 7.967 25.854 39.282 39.282 0 0 0 14.496-22.662 39.494 39.494 0 0 0-7.965-25.853zm280.249 3.193a38.99 38.99 0 0 0-14.178 22.83 39.744 39.744 0 0 0 7.965 25.77 38.99 38.99 0 0 0 14.182-22.826 39.744 39.744 0 0 0-7.97-25.773zm-377.368.246a39.657 39.657 0 0 0-7.963 25.688 38.68 38.68 0 0 0 14.018 22.992 39.573 39.573 0 0 0 7.964-25.775 39.007 39.007 0 0 0-14.02-22.904zm48.075 18.61a37.419 37.419 0 0 0-4.484.372 39.793 39.793 0 0 0 12.189 24.053 37.419 37.419 0 0 0 25.809 5.727 39.294 39.294 0 0 0-12.19-24.055 37.419 37.419 0 0 0-21.323-6.096zm279.619.019a37.177 37.177 0 0 0-20.439 5.916 39.61 39.61 0 0 0-12.344 23.974 36.95 36.95 0 0 0 25.807-5.562 39.279 39.279 0 0 0 12.35-23.889v-.004a37.177 37.177 0 0 0-5.373-.436zm-132.76 2.56a40.269 40.269 0 0 0-.792 27.082 38.247 38.247 0 0 0 19.197 18.164 39.762 39.762 0 0 0 1.115-27.002 38.152 38.152 0 0 0-19.52-18.244zm-12.99.246a38.205 38.205 0 0 0-19.677 18.078 39.929 39.929 0 0 0 .957 27.08 38.61 38.61 0 0 0 19.678-18.078 39.929 39.929 0 0 0-.957-27.08zm-57.583 7.615a39.61 39.61 0 0 0 6.05 26.836 37.57 37.57 0 0 0 23.103 11.943 39.876 39.876 0 0 0-5.733-26.428 37.43 37.43 0 0 0-23.42-12.352zm128.17.077a37.563 37.563 0 0 0-23.976 12.27 39.702 39.702 0 0 0-5.896 26.346 37.555 37.555 0 0 0 23.9-12.189 40.118 40.118 0 0 0 5.97-26.427zm100.929 1.718a38.99 38.99 0 0 0-14.182 22.83c-.397 9.298 2.457 18.441 8.047 25.77a38.999 38.999 0 0 0 14.098-22.83 39.744 39.744 0 0 0-7.963-25.77zm-329.959.489a39.494 39.494 0 0 0-7.962 25.688 39.033 39.033 0 0 0 13.7 22.91 39.573 39.573 0 0 0 7.963-25.773 39.029 39.029 0 0 0-13.7-22.825zm241.62 1.062a39.744 39.744 0 0 0-7.964 25.852 38.976 38.976 0 0 0 14.256 22.748 39.498 39.498 0 0 0 7.97-25.854 38.976 38.976 0 0 0-14.263-22.746zm-294.93.399a37.064 37.064 0 0 0-15.761 3.115 38.738 38.738 0 0 0 17.844 19.965 36.833 36.833 0 0 0 26.289-1.307 38.417 38.417 0 0 0-17.766-19.965 37.064 37.064 0 0 0-10.605-1.808zm436.589.01a36.992 36.992 0 0 0-10.627 1.714 38.629 38.629 0 0 0-18.002 19.881 37.068 37.068 0 0 0 26.367 1.475 38.545 38.545 0 0 0 18.002-19.797 36.992 36.992 0 0 0-15.74-3.273zm-295.479.085a38.99 38.99 0 0 0-14.26 22.992 40.008 40.008 0 0 0 7.725 25.607l.004-.004a39.61 39.61 0 0 0 14.496-22.658 39.83 39.83 0 0 0-7.965-25.938zm201.32 21.982a37.408 37.408 0 0 0-20.505 5.916 39.634 39.634 0 0 0-12.025 23.971 37.185 37.185 0 0 0 25.568-5.564 39.279 39.279 0 0 0 12.35-23.887 37.408 37.408 0 0 0-5.389-.436zm-250.05.069a37.192 37.192 0 0 0-4.49.367 39.626 39.626 0 0 0 12.188 24.055 36.954 36.954 0 0 0 25.81 5.724 38.96 38.96 0 0 0-12.188-23.97 37.192 37.192 0 0 0-21.318-6.176zm267.549 6.918a38.999 38.999 0 0 0-14.182 22.904 39.744 39.744 0 0 0 7.969 25.776 38.99 38.99 0 0 0 14.18-22.83 39.577 39.577 0 0 0-7.967-25.851zm-283.749.648a39.494 39.494 0 0 0-7.966 25.691 39.01 39.01 0 0 0 14.02 22.992 39.494 39.494 0 0 0 7.965-25.691 39.01 39.01 0 0 0-14.02-22.992zm336.989 1.31a36.913 36.913 0 0 0-10.627 1.721 38.545 38.545 0 0 0-18.002 19.8 36.992 36.992 0 0 0 26.363 1.552 38.545 38.545 0 0 0 18.004-19.797 36.913 36.913 0 0 0-15.738-3.275zm-389.988.145a36.988 36.988 0 0 0-15.762 3.123 38.337 38.337 0 0 0 17.844 20.043 36.678 36.678 0 0 0 26.286-1.39 38.417 38.417 0 0 0-17.763-19.965 36.988 36.988 0 0 0-10.605-1.81zm366.548 31.02a37.064 37.064 0 0 0-10.605 1.809 38.715 38.715 0 0 0-17.924 19.797 36.758 36.758 0 0 0 26.289 1.392A38.629 38.629 0 0 0 487.2 223.2a37.064 37.064 0 0 0-15.762-3.115z" stroke-width="2.6"/>
   <path d="m130.41 243.59a37.068 37.068 0 0 0 26.367-1.312 38.311 38.311 0 0 0-18.4-20.289 36.833 36.833 0 0 0-26.288 1.308 38.398 38.398 0 0 0 18.32 20.293z" stroke-width="3"/>
   <g stroke-width="3">
    <path d="m332.5 192.59-7.632-1.066-38.333 266.18 7.642 1.156z"/>
    <path d="m272.64 191.65-7.597 1.266 40.976 266.06 7.639-1.179z"/>
    <path d="m214.48 206.7-6.872 3.478 117.38 243.07 6.936-3.409z"/>
    <path d="m164.43 236.37-5.624 5.265 187.47 205.74 5.703-5.216z"/>
    <path d="m434.16 235.86 5.624 5.265-187.46 205.74-5.708-5.216z"/>
    <path d="m382.95 206.09 6.875 3.481-115.28 243.69-6.936-3.413z"/>
    <path d="m278.17 382.99h41.789v12.182h-41.789z"/>
   </g>
  </g>
  <path d="M299.87 474.12c-33.488 0-53.551 18.774-67.139 29.213l-.015.008-.008.008c-10.13 7.794-16.718 10.98-18.403 12.103-1.693-1.119-8.206-4.294-18.354-12.103-13.63-10.489-33.673-29.225-67.17-29.225-33.491 0-53.554 18.774-67.142 29.21l-.008.008-.015.008a142.303 142.303 0 0 1-9.63 6.819c10.956 25.78 23.822 49.529 38.575 71.36 7.926-5.094 14.408-10.582 19.843-14.77 10.167-7.806 16.668-10.98 18.358-12.095 1.686 1.118 8.278 4.308 18.4 12.095 13.6 10.466 33.67 29.228 67.165 29.228 33.481 0 53.505-18.721 67.14-29.21l.022-.02c10.167-7.804 16.668-10.98 18.358-12.094 1.686 1.118 8.266 4.305 18.396 12.095l.015.011.015.008c13.588 10.436 33.651 29.21 67.14 29.21s53.565-18.762 67.164-29.228c10.194-7.824 16.714-10.999 18.384-12.106 1.679 1.111 8.206 4.286 18.37 12.106l.014.008.016.011c5.5 4.222 12.084 9.801 20.16 14.96 14.734-21.839 27.57-45.602 38.486-71.402a145.74 145.74 0 0 1-9.91-7c-13.6-10.47-33.663-29.213-67.14-29.213-33.488 0-53.555 18.774-67.143 29.213l-.03.015c-10.167 7.824-16.695 11-18.369 12.11-1.678-1.11-8.202-4.286-18.407-12.125-13.63-10.492-33.658-29.213-67.143-29.213z" fill="#fff" stroke-width="3"/>
  <path d="M128.78 494.15c-24.53 0-41.346 14.612-54.949 25.059l-.008.011-.007.008c-4.895 3.765-9.366 6.974-13.41 9.563 5.945 12.397 12.36 24.3 19.258 35.707 6.917-4.37 13.01-9.31 18.555-13.573 13.626-10.47 23.956-16.771 30.566-16.771 6.546 0 16.994 6.32 30.578 16.77 13.599 10.463 30.434 25.079 54.968 25.079 24.51 0 41.35-14.605 54.964-25.078l-.008.015c13.64-10.477 23.97-16.786 30.585-16.786 6.546 0 16.997 6.32 30.578 16.771l.008.008v.008C344.065 561.392 360.885 576 385.415 576c24.534 0 41.373-14.609 54.968-25.071 13.63-10.47 23.97-16.774 30.578-16.774 6.614 0 16.97 6.312 30.57 16.774l.008.008.008.004c5.628 4.324 11.819 9.347 18.86 13.766 6.887-11.415 13.283-23.321 19.213-35.726-4.109-2.623-8.678-5.904-13.705-9.767-13.596-10.462-30.427-25.059-54.953-25.059-24.53 0-41.354 14.61-54.957 25.06l-.012.007v.008c-13.599 10.462-23.963 16.771-30.578 16.771-6.614 0-16.952-6.312-30.589-16.782-13.614-10.477-30.449-25.067-54.953-25.067-24.53 0-41.354 14.612-54.957 25.063v.008l-.01.008c-13.58 10.451-24.029 16.771-30.579 16.771-6.614 0-16.975-6.304-30.578-16.77-13.614-10.475-30.449-25.079-54.964-25.079z" fill="#1c63b7" stroke-width="3"/>
  <path d="M594.35 242.09c0 272.77-100.46 424.31-294.34 498.39C107.13 666.114 5.66 514.83 5.66 242.09V5.65h588.69z" fill="none" stroke-width="11.3"/>
 </g>
</svg>
