<?xml version="1.0" encoding="UTF-8" standalone="no"?>
<svg width="620" height="765.21" viewBox="0 0 465 573.91" xmlns="http://www.w3.org/2000/svg"><path d="m3.38 3.373-.007 240.454C6.585 375.041 75.056 500.88 232.508 570.241c157.467-69.357 225.916-195.2 229.134-326.414V3.373z" fill="#fcdb00" stroke="#000" stroke-width="6.7462901"/><path d="M264.054 40.804c-4.651.157-8.337 1.617-13.507 3.548-8.003.148-16.018-.087-24.02.048-.172 4.208.224 8.58-.068 12.784 3.144-2.49 8.461-5.14 11.079-7.184a221.731 221.731 0 0 1-.308 4.895c-2.411.718-7.712 2.073-10.857 3.07-3.503 8.204-2.859 15.341.116 21.813-6.153 1.578-12.428 3.514-18.754 4.143-2.416.013-5.512.592-6.696-2.109-.74-3.157.426-6.777-.776-9.84-1.598-4.069-3.454-8.496-8.139-10.283-4.476-1.961-8.756-1.184-13.318-.098a72.576 72.576 0 0 0 2.59 6.831c4.896 8.471-2.503 14.784.445 23.81 1.997 6.548 7.41 11.406 14.463 11.357 12.494-.361 19.65-7.168 29.396-10.383.296 2.071.839 4.243.161 6.301-.716 2.233-1.837 4.242-1.689 6.671.308 3.674.746 6.506.968 10.193 1.17 2.837 2.233 7.643 9.7 3.81 7.467-3.834 19.299 5.322 24.42 6.261-4.705.182-15.998-3.48-19.726-2.64-5.572 1.255-10.085 5.656-15.166 3.904-7.595-2.885-12.725-12.046-20.876-14.648-6.498-1.887-12.178-5.3-21.437-3.191 2.578 6.455 12.95 14.2 17.812 17.137-10.58-4.267-21.38-3.081-32.06.038.519 4.6 1.702 8.237 4.786 11.739 1.85 1.874 3.834 3.612 5.72 5.462-2.38-.086-5.115.668-6.863 1.54-8.456-11.843-25.837-21.441-31.09-39.038-1.911-4.352-2.01-8.976-1.504-13.637.962-5.277 5.006-10.666 5.117-16.14.48-5.673-.74-12.583-4.65-16.943-5.027-5.607-13.39-8.134-21.01-8.31 5.014 6.298 5.338 14.075 5.794 21.257-9.568-4.789-18.722-5.415-26.855-11.21-.493 8.417.564 12.425 5.761 18.794-.259 1.098-.212 1.06-.483 2.157-3.612.432-7.465 1.709-11.087.912-3.455-.76-6.3-3.453-9.235-5.229-2.034 4.525-1.948 8.99 1.011 13.108 3.625 4.612 7.386 9.137 11.086 13.687-1.579 1.9-4.16 4.823-5.307 7.019-5.745.8-10.478.123-14.046 2.242 4.232 7.654 15.606 10.05 16.37 10.717 3.623 3.44 5.734 4.696 11.209 4.4 6.03.69 11.713-6.388 17.077-3.415 4.784 4.883 7.2 11.85 11.566 17.2 4.18 6.302 11.886 13.33 12.589 21.05-4.849 5.47-7.103 7.222-7.398 14.118 7.842 1.875 14.64.631 21.615 2.195-2.947 5.438-5.461 8.224-10.91 11.294 2.515 1.418 4.82 2.849 7.79 3.132 5.044.9 10.297.185 15.254 1.356 2.898.691 5.24 3.306 7.436 5.204-10.321 8.09-22.369 14.143-33.922 20.259-7.768 4.267-16.08 5.932-24.538 8.175-6.288 1.554-12.54 2.726-19.05 1.776-3.453-.518-5.86-3.144-7.302-6.165-2.737-6.3-.714-14.623-3.821-20.665-5.945-6.992-18.311-4.894-25.637-3.306-4.183 1.138-7.307 6.19-7.306 9.653 2.109.197 6.76.37 8.881.555-.27 4.513.966 6.798 1.41 11.298-3.158-.05-6.116-.271-9.063 1.085-9.153 2.557-13.2 1.952-14.575 10.506 2.158.333 4.39.541 6.51 1.109 3.342 1.097 5.142 5.339 8.25 6.904 2.922 1.197 6.388 1.431 9.507 1.998-4.809.543-11.333-.37-14.847 3.613-2.158 3.256-2.588 7.83-3.575 11.555l-6.375.444c.77 3.643 2.182 6.325 5.327 7.608 4.29 1.702 9.815.308 13.958-1.295 5.068-1.85 8.57-6.658 12.232-10.432-1.546 8.936-10.512 15.041-17.743 18.224 7.405 8.785 24.033 12.938 31.75 2.406 3.49-5.29 3.072-10.656 3.11-16.71 10.147-2.392 21.12-.653 31.527-1.195 14.932.888 28.176-3.847 41.876-9.198-.148 8.576-4.189 14.11-9.656 19.754 5.758.492 11.85-.014 16.919-3.023 5.475-3.637 8.976-9.53 11.294-15.56 2.522 8.456 2.26 18.811 1.258 25.34 14.544-4.064 11.126-16.099 12.315-20.532.789-4.821 3.347-11.334 7.93-15.899-3.34 7.963-6.162 18.562-4.388 24.482 4.008 11.278 10.518 21.813 20.654 27.547 10.386 5.2 17.784 9.815 27.152 13.419 4.643 1.806 8.747 4.638 11.098 8.988l.063.115c1.714 4.352 1.951 7.907-.349 13.477 1.602-10.34-3.241-16.49-12.763-20.243-26.796-6.285-59.509-4.71-81.946 7.03-3.885 2.034-7.164 5.204-11.11 7.04-7.308-.773-15.155-1.355-21.64 1.086-6.092 2.048-8.278 11.335-14.575 12.651-1.78.372-3.228-.754-5.204-1.627 2.095 6.82 10.875 7.886 16.955 8.804-.166 5.123-1.366 10.486-4.65 14.255-1.94 2.227-5.564 3.503-7.97 3.876 3.482 5.04 12.727 5.212 17.35 4.231 5.282 5.834.236 14.451-4.586 18.177 9.641.074 16.516-4.666 19.929-12.154l.679 2.023c1.886 6.3 3.255 12.158 7.682 17.275 4.118 5.203 11.553 9.396 13.908 15.598 2.33 6.363-.764 12.281-3.377 17.965-2.553 5.068-5.081 11.482-9.483 15.193-2.085 1.788-4.859 2.317-7.128.542-4.057-3.354-6.472-9.877-11.256-12.208-5.549-2.478-12.311-3.074-16.832.966-6.675 1.184-17.735 5.926-18.93 12.133 4.797.494 11.729 2.5 16.402 3.707 2.997.752 3.445 3.874-.085 4.017-3.94-.138-9.9 3.78-11.79 5.81-1.948 2.095-.838 5.575-.53 8.437 3.613-.494 7.411-1.518 11.036-1.383 3.284 1.174 2.812 4.558 7.4 6.059 4.179-5.429 11.005-7.447 15.842-7.329-4.735 3.374-11.495 2.852-12.076 8.409-2.108 2.244-4.89 5.096-5.469 8.19-.454 2.425.116 7.358.56 9.788 2.33-1.443 7.75-5.348 10.326-6.31 7.12 2.777 14.11.263 17.277-4.676 4.39 7.386 6.3 15.007 7.46 23.441 6.159-3.166 6.88-10.728 10.185-15.118 2.578-3.329 5.241-6.188 6.35-10.405 1.95-6.339-.961-11.408-1.479-17.549 1.826-4.66 5.745-8.74 8.618-12.822 5.364-7.164 9.36-15.093 14.464-22.417-.884 8.554 1.18 15.57 5.439 22.392.997-6.205 4.896-10.26 7.546-15.29 3.333 3.61 6.67 4.86 10.58 5.893-1.512-5.588-.617-9.592.925-14.4 1.246-4.304 2.503-8.078.444-12.406-1.813-4.883-5.982-6.006-9.73-9.002-2.515-9.95 1.455-22.48 10.592-27.954 6.695-4.279 12.17-5.835 20.714-7.817.324-14.076 4.088-22.21 9.715-27.941-3.69 7.486-5.921 18.437-5.095 24.836 1.82 8.73 3.033 14.505 6.521 21.859l-.007-.002c-6.463 3.324-7.975 5.717-7.926 10.756.024 6.88 5.092 8.977 8.188 14.156-1.011 3.929-1.742 7.893.086 11.282.801 3.23 3.789 5.11 8.076 6.177-.074-2.91-.432-6.227.419-9.039 1.024-3.329 2.737-6.496 4.23-9.629l1.628.147c1.43 6.57 2.661 8.569 9.383 8.522-1.27-5.475-2.072-9.853.554-15.118 7.67.875 15.033 1.097 22.752.567 7.275-.296 14.192.407 19.063 6.473 1.517 9.741.851 19.964.641 29.816-.123 4.488-1.32 6.794-4.427 9.95-.472-3.615.01-6.325-2.506-10.123-1.863-3.021-5.056-5.928-9.971-6.483-5.7-.644-10.844 1.426-11.27 4.562-9.089.96-19.764-.37-20.002 12.032 4.124-.185 11.562-.848 14.658-.591-.067-.487.937 2.277.31 2.19-9.574 1.67-21.324 4.018-21.06 14.012 2.983-.345 9.131.537 12.09-.043 2.257 2.38 1.314 3.84 4.063 5.653 3.058 1.567 6.671 1.357 10.037 1.64-5.23 11.641-15.15 7.543-12.38 18.497 3.01-.506 6.093-1.196 9.15-1.332 3.922-.11 8.028 1.356 11.936 1.393 2.935-.111 5.931-1.085 8.755-1.862a165.835 165.835 0 0 0-6.363 7.436c7.817 3.083 14.514-.394 21.592-3.626 3.884-1.85 6.645-4.82 8.778-8.496.962-1.762 1.566-3.636 2.059-5.585.827-3.687-1.318-7.905-.455-11.579 1.332-3.712 3.44-7.102 4.87-10.764 2.946-7.35 4.414-15.352 4.759-23.232.309-7.497 3.096-14.043 6.672-20.504.292 3.986 2.058 7.583 3.785 10.998 3.218 4.23 5.858 5.388 11.086 5.55-2.52-4.649-3.395-8.46-2.805-13.268.483-3.933 4.032-8.202 3.834-12.232-.197-4.03-1.77-7.894-4.766-10.321 6.46-1.73 11.754-5.138 10.854-12.841-9.45 5.813-10.025-3.7-16.323-3.836-6.298-.137-6.344 4.592-12.483 3.063-5.487-1.674-11.73-4.827-16.052-7.69-5.142-3.823-10.237-8.61-11.791-15.343-.95-5.142 2.704-7.747 3.243-12.922.399-3.823-2.355-10.593-2.158-14.428 3.369 7.287 9.417 14.196 14.932 17.497 13.306 8.742 32.417 6.683 43.712-4.427 5.092-5.907 8.705-13.637 9.026-21.504.37-7.62.137-15.043-1.997-22.405-3.452-12.663-9.95-24.943-15.031-36.683 4.315-11.389 7.903-17.902 2.663-29.482-2.047-4.02-4.439-8.078-5.425-12.555-.925-5.29 1.99-12.446 4.503-18.706-5.708 2.17-11.75 7.098-14.289 13.023-2.618 6.109-1.557 13.013.438 19.935 1.716 4.673 2.763 7.109 4.576 12.075-1.914-.6-6.963-16.34-7.546-18.483-5.738-19.498-6.318-40.803 2.133-57.856 3.749-7.62 10.36-14.622 18.335-15.721 4.197-.58 9.732 1.514 11.53 5.35.906 1.939.29 5.307-1.654 6.203-2.907 1.341-6.119-1.044-8.668-4.143.493 3.847.666 7.213 3.97 9.815 4.267 2.984 11.074 5.193 15.661 1.678 4.624-2.651 5.475-9.285 6.178-14.058 1.295 4.21 1.775 11.11-1.948 14.784-3.564 4.057-7.56 7.066-9.964 12.122-1.812 3.736-1.701 8.483.864 11.861 3.021 4.254 8.755 5.447 11.01 9.816 2.288 4.427 2.712 9.764 1.651 14.858 6.604-4.437 5.475-19.496 3.319-24.945-.986-3.033-1.874-5.893-.184-8.89 3.119-5.635 7.953-9.346 9.235-16.066 1.317-19.812-6.667-31.994-25.4-36.241.011-.407.022-.825.035-1.232 5.956-3.243 10.784-3.9 15.102-9.819 3.942-5.403 4.804-11.868 4.306-18.026-.568-7.037-6.19-13.66-8.162-19.541-.74-2.848-.675-7.964 1.056-11.6-4.032-.223-8.471 4.558-10.243 8.665-2.565 5.944 1.148 12.81 1.05 19.395-.543 8.903-4.551 17.546-11.358 23.403-6.746 5.697-14.809 9.828-21.541 15.55-9.495 8.286-16.586 19.21-19.804 31.418-2.936 12.18-1.944 23.654-1.357 35.08.74 10.15 3.898 19.595 7.954 28.83 4.76 10.68 7.719 21.393 14.057 31.319 3.034 4.698 4.834 9.853 6.98 14.97-3.75-5.178-9.001-8.964-15.056-11.01-4.784-1.123-10.9-.446-14.526 3.155-3.594 4.37-6.214 14.893 1.545 20.72 1.447-7.332 6.298-8.18 8.665-9.054 10.802-2.028 19.78 8.739 23.403 16.461 5.315 10.235 2.848 25.13-6.387 32.368-4.587 3.724-9.507 3.096-15.042 3.096-7.868.061-14.97-4.97-19.137-11.381-4.772-6.474-7.806-14.143-13.095-20.062-4.674-5.315-10.963-7.511-15.081-13.43-5.228-7.336-11.937-12.835-16.475-20.505-5.623-8.866-7.966-20.16-9.248-30.444-.518-6.77-5.054-12.158-6.584-18.928 3.153 5.213 7.176 9.457 12.022 11.702 5.636 1.688 10.235-.16 15.352-2.33-5.919-3.45-9.344-4.787-11.024-11.407-.764-5.253 1.776-10.21 1.27-15.673-.382-3.91-1.528-7.693-1.886-11.614 3.318 5.141 5.252 12.072 9.63 16.227 2.503 2.503 6.498 2.822 9.827 3.23-.64-4.514-1.886-8.496-1.8-13.083-.012-5.66 2.761-10.37 2.552-16.08-.025-2.687-.74-5.164-1.492-7.717-1.924-3.712-3.982-7.362-6.078-10.975.654-.592 1.32-1.196 1.985-1.788l.21-.185c.376 1.165.782 2.3 1.231 3.4a34.222 34.222 0 0 0 1.496 3.204 27.803 27.803 0 0 0 1.853 3.004 25.592 25.592 0 0 0 2.3 2.796c1.923 1.69 3.823 3.503 5.944 4.92 2.49 1.529 5.746 2.047 8.545 2.836-1-6.19-4.39-11.985-3.12-17.964.79-4.686.777-9.36.555-14.094 4.883-.531 9.617-1.394 14.315-2.837-2.06-3.884-4.943-7.473-6.485-11.567-.912-6.412.025-13.07-.702-19.518-.53-3.897-1.543-7.535-2.455-11.346 2.898-2.071 6.313-4.032 8.668-6.744-3.772-4.306-6.043-7.414-7.853-10.53-2.873-5.328-3.515-11.528-6.586-16.892-.518-1.146-1.211-2.135-1.788-3.15-4.134 2.785-7.78 7.188-17.361 5.641 3.02-.679 7.458-1.219 9.912-3.08 1.779-1.189 4.033-2.97 6.506-5.174 4.17-4.205 3.36-10.083 4.161-14.46-12.975-3.454-27.797-.024-30.58 8.545-1.083-6.414 5.04-8.563 10.91-9.99-8.882-6.292-18.462-6.782-28.238-5.3-3.516-.98-7.172-2.205-10.855-2.08zM125.431 56.719s8.994 4.318 13.001 11.874l-11.079 4.513zm-24.454 10.978 20.674 8.953-12.268 7.849c-6.875-4.756-8.406-16.802-8.406-16.802zm138.213 8.16c3.79 2.999 5.265 4.538 6.279 11.184-2.343-.79-7.415-3.02-9.757-3.822.912-2.59 1.96-5.069 3.477-7.362zM84.465 83.44c1.393 1.701 10.19 5.449 15.008 6.5-.734 2.88-3.266 10.133-4.425 10.121-5.748-5.542-9.772-9.335-10.583-16.621zm149.02 8.334c2.688 1.579 8.356 5.044 10.945 6.77-5.007 2.318-5.435 2.412-10.256-.006-.006-3.04-.35-4.24-.69-6.764zM82.955 114.967c2.447-.018 4.961.29 6.248.228.705.795 3.67 3.478 3.877 7.666-5.919-.795-9.495-3.75-14.176-7.357 1.141-.398 2.584-.526 4.051-.537zm-12.623 88.41c.682.01 1.374.073 2.064.193-.197 1.602.443 7.562.443 7.562s-10.326-1.732-12.682-2.805c1.003-2.64 5.395-5.032 10.175-4.95zM54.5 227.25c-.456 1.43.038 5.874-.418 7.305-2.836-.777-6.746-.9-8.751-1.783 1.206-3.72 6.52-5.51 9.17-5.521zm1.295 32.509c1.245 1.382 2.055 5.062.346 6.416-3.354.081-8.768-1.262-10.332-3.288 3.335-.872 7.354-2.173 9.985-3.128zm16.739 10.785c1.006 2.257 3.484 7.082 2.99 9.054-5.791 1.153-13.044-3.237-14.856-3.89 4.795-.788 9.694-3.76 11.867-5.164zM302.606 433.65l-2.589 10.897-20.72-3.123c5.984-5.25 15.81-6.104 23.309-7.774zm-185.771 1.548a44.492 44.492 0 0 1 2.095 2.478l.616 2.28a139.506 139.506 0 0 1-7.693-2.465c1.652-.789 3.305-1.59 4.982-2.293zm173.544 13.548c3.625.308 4.75 8.335 4.707 10.805-2.774.715-18.851-3.699-21.662-3.132.295-1.948 13.368-6.838 16.955-7.673zm17.197 18.725 7.325 12.834-25.992 1.087zm13.347 13.865 4.53 4.341-14.022 4.147z"/><path d="M308.767 54.203c-2.639-.059-5.43 1.327-7.872 3.158-2.427 1.44-3.67 4.454-3.218 7.054 2.244-2.158 4.616-6.135 7.609-7.027 3.023-.902 5.98.331 9.124.048-1.63-2.266-3.59-3.187-5.642-3.233zm-47.203 3.451a16.95 16.95 0 0 0-3.749.465c-1.897 3.988.229 9.644 2.645 11.011 1.762-.099 4.114-.592 5.771-1.202 2.791-1.025 5.187-3.428 6.56-5.757-1.315-1.676-2.44-2.299-3.945-2.997-2.036-.945-4.366-1.474-6.746-1.518a17.376 17.376 0 0 0-.536-.001zm-.606 1.893c1.307-.004 2.734 1.052 3.22 3.234.098 1.528-.008 4.39-1.589 4.559-1.972.105-4.412-1.28-4.123-5.033.14-1.818 1.264-2.757 2.492-2.76zm-27.633 14.896c-.35 0-.682.032-.983.118-.291 3.389-2.592 7.91.49 10.084.05-3.206 3.557-6.896 2.99-10.028-.86-.03-1.726-.176-2.498-.174zm12.931.02c2.685 8.6 5.56 16.52 8.264 24.65.826-7.66-3.712-19.764-8.264-24.65zm-15.318 15.462c-.964 2.332-3.297 10.14-3.297 10.14s3.907-.804 4.93-1.963c.671-.813-1.11-7.355-1.633-8.177zm-59.84 55.374c-10.223 3.73-11.61 8.196-15.608 18.01 3.082 1.813 5.624 3.859 9.224 4.623 4.365 1.38 8.006-.047 12.544-.12-4.626 7.867-3.024 15.668-5.145 23.104 4.38.823 6.834.799 11.77.117 3.786-.247 6.865-2.674 9.341-3.555-.001.156.003.324-.001.477-.37 5.98.824 12.11-.803 17.72-.777 3.022-.628 5.909-.702 9.016 3.613-.247 6.092-.77 10.037-1.654 3.435-1.684 8.706-4.795 10.863-9.657 2.721 7.235 6.359 13.932 9.692 20.89 1.208 5.08.456 10.914.603 16.168 2.813-.35 4.565-.522 6.904-1.17 2.916-1.287 5.375-3.733 6.85-6.066 2.898-3.984 6.37-11.475 5.635-21.443 1.45 9.795 5.275 19.639 8.912 24.965 2.343 3.478 5.08 7.079 8.472 9.594 3.872 2.59 9.149 3.528 13.612 4.712-2.996-7.374-2.565-14.624-2.54-22.405.122-2.433 3.082-4.391 2.353-7.728l-.585-.248c-.21 3.963-2.713 5.819-2.902 8.049-.444 6.499-.037 12.947 0 19.433-8.319-3.125-10.962-4.908-14.87-10.16-6.684-8.755-9.21-21.505-11.58-32.109-.9.21-1.801.418-2.689.652.306.877.45 1.941.764 3.019-.323 4.522-.843 8.88-1.541 12.53-1.461 3.97-1.968 7.43-4.14 10.503-1.575 2.232-4.007 4.948-6.18 5.382-1.82.365-3.136.534-4.948.516.242-5.99.743-12.296-1.464-17.29-3.59-5.78-7.108-12.84-9.401-18.563-.444-2.563-.247-4.376.529-9.003-1.109.642-1.477.777-1.616.847.128.37-.39 7.5-.256 7.866-3.078 4.557-6.844 7.545-11.42 9.346-2.471.971-4.154 1.221-6.88 1.172-.007-2.244-.02-5.116.485-7.348 2.183-7.102.383-13.628 1.357-20.817.71-3.022 1.097-4.52 2.682-6.857-1.649.377-2.301.12-3.076.608-.353 1.021-2.116 5.34-2.142 6.467-5.382 3.737-11.566 4.99-17.452 5.174.345-7.682.266-16.573 4.482-23.49 3.497-1.858 6.145-3.228 8.587-5.998-.82-.28-1.324-.378-2.259-.756-2.057 2.061-6.282 5.028-9.278 6.162-4.451.408-9.875 1.371-13.938-.508l-5.227-2.416c2.594-10.125 7.965-13.76 13.286-17.27-.001-.053-.32-.48-.342-.492z" fill="#fff"/><path d="M245.305 318.424c4.747 2.996 9.843 5.309 10.964 8.239-.55.74-1.652 2.936-3.323 4.825-5.948-4.072-26.251-17.08-24.984-19.076 1.257-2.278 15.148 4.52 17.343 6.012zm-123.085 114.2c2.277 1.507 3.276 6.307 2.216 9.537-2.589-.752-12.493-2.76-15.033-3.66 1.652-.79 11.14-5.174 12.818-5.877zm.857 18.959c.098 1.517-.275 6.001-.164 7.505-3.255-.16-9.926.836-13.182.712 2.53-5.607 7.33-9.22 13.346-8.217zm8.849 18.528c3.082.631 2.792 4.808 2.706 6.917-3.941.926-4.837 1.94-8.09 4.13.256-4.672 3.202-10.147 5.384-11.047z" fill="#fdda03"/><path d="M185.66 64.717c-.319.012-.756.15-1.09.183.233.577.417 1.174.663 1.748 2.91 5.312 2.117 10.58 1.23 14.422-.906 3.922-1.669 6.606-.609 9.852l.025.078c1.545 5.063 5.287 8.39 10.377 8.363 7.242-.138 13.855-5.064 20.871-7.332 8.317-2.687 16.225-2.905 22.669-.87 0 0 3.276 1.05 5.822 1.942v-2.83c-5.367-2.923-11.215-5.303-17.253-5.58-2.799-.082-5.594.44-8.326 1.114-3.823.983-7.743 1.904-11.887 2.316-1.772.03-3.497.138-4.88-.066-2.03-.319-4.92-1.86-6.1-4.55-.777-2.132-.634-4.649-.567-6.773.095-4.27-2.88-9.821-5.986-11.101a4.234 4.234 0 0 1-.19-.078c-1.596-.699-3.055-.903-4.77-.838zm-.426 1.931c-.063-.113-.116-.226-.182-.34l.21.414-.028-.074z" fill="#f00000"/><path d="M160.256 479.576s1.374 14.538 1.374 13.901c0-.636 6.37-12.594 6.37-12.594.906-1.999-1.331-5.423-3.186-5.575-1.505-.123-4.61 2.602-4.558 4.268z" fill="#fcdb00"/></svg>
