<?xml version="1.0" encoding="UTF-8" standalone="no"?>
<svg
   xmlns:dc="http://purl.org/dc/elements/1.1/"
   xmlns:cc="http://creativecommons.org/ns#"
   xmlns:rdf="http://www.w3.org/1999/02/22-rdf-syntax-ns#"
   xmlns:svg="http://www.w3.org/2000/svg"
   xmlns="http://www.w3.org/2000/svg"
   xmlns:sodipodi="http://sodipodi.sourceforge.net/DTD/sodipodi-0.dtd"
   xmlns:inkscape="http://www.inkscape.org/namespaces/inkscape"
   width="600"
   height="738"
   version="1.1"
   id="svg30"
   sodipodi:docname="CHE Sergey COA.svg"
   inkscape:version="0.92.3 (2405546, 2018-03-11)">
  <metadata
     id="metadata36">
    <rdf:RDF>
      <cc:Work
         rdf:about="">
        <dc:format>image/svg+xml</dc:format>
        <dc:type
           rdf:resource="http://purl.org/dc/dcmitype/StillImage" />
      </cc:Work>
    </rdf:RDF>
  </metadata>
  <defs
     id="defs34" />
  <sodipodi:namedview
     pagecolor="#ffffff"
     bordercolor="#666666"
     borderopacity="1"
     objecttolerance="10"
     gridtolerance="10"
     guidetolerance="10"
     inkscape:pageopacity="0"
     inkscape:pageshadow="2"
     inkscape:window-width="1920"
     inkscape:window-height="1017"
     id="namedview32"
     showgrid="false"
     inkscape:zoom="0.99130759"
     inkscape:cx="-1.1103487"
     inkscape:cy="369"
     inkscape:window-x="-8"
     inkscape:window-y="-8"
     inkscape:window-maximized="1"
     inkscape:current-layer="svg30" />
  <path
     d="m594.17 317.57 1.692-313.46h-591.73l1.692 313.46c4.099 167.41 91.908 327.92 294.17 415.54 202.27-87.628 290.07-248.13 294.17-415.54z"
     fill="#fff"
     stroke="#000"
     stroke-width="8.2276"
     id="path2" />
  <path
     d="m102.76 4.114v583.95c26.82 33.177 59.536 63.732 98.62 90.731v-674.68zm197.24 0v729c36.573-15.845 69.35-34.102 98.62-54.323v-674.68zm197.24 0v583.95c64.177-79.387 94.558-173.77 96.928-270.49h2e-3l1.69-313.46z"
     fill="#1c63b7"
     stroke="#000"
     stroke-width="2.8"
     id="path4" />
  <g
     id="g872"
     transform="translate(-693.41877,-69.920187)">
    <path
       style="fill:#ffffff;stroke:#000000;stroke-width:4.9000001;stroke-linecap:butt;stroke-linejoin:miter;stroke-miterlimit:4;stroke-dasharray:none;stroke-opacity:1"
       d="m 699.25977,398.20719 589.20203,1.172 0.817,-325.345003 -591.72903,-0.004 z"
       id="path874"
       inkscape:connector-curvature="0" />
    <path
       id="path845"
       d="m 1127.6748,80.986187 c -6.583,-0.012 -14.206,2.946 -22.03,11.677 2.656,1.656 4.773,3.056 8.487,6.431 -28.354,-9.222 -56.119,-2.75 -82.28,9.546003 -6.902,3.434 -14.52,8.502 -22.204,9.385 -8.111,0 -15.10603,-2.159 -22.53003,2.29 1.93,3.76 4.085,6.738 7.225,9.647 -6.117,6.18 -5.433,12.705 -1.83,19.953 12.25603,2.288 12.00103,5.754 15.86003,15.727 -23.52003,2.445 -24.02503,12.533 -59.57003,5.47 -0.412,5.415 6.348,11.983 8.57,14.274 15.697,12.754 41.897,4.817 49.55003,1.55 3.203,8.111 7.76,17.199 10.802,25.376 14.613,0.287 28.7,4.942 43.354,4.915 23.973,-3.595 48.49,-8.577 61.505,-20.323 7.147,-6.956 14.736,-16.492 17.706,-26.68 3.431,-11.781 3.252,-24.955 -0.672,-36.791 -2.156,-6.382 -2.723,-14.074 1.92,-18.715 4.822,-4.814 12.146,-7.588 19.924,-4.932 0.422,0.145 0.829,0.302 1.226,0.468 4.864,2.144 7.601,6.395 9.06,9.846 1.455,3.44 1.735,5.854 1.735,5.854 0,0 -0.9,-2.251 -2.833,-5.273 -1.955,-3.066 -4.825,-6.515 -8.918,-8.168 a 15.82,15.82 0 0 0 -1.065,-0.404 c -6.782,-2.316 -13.147,0.103 -17.395,4.346 -3.73,3.728 -3.36,10.188 -1.331,16.2 4.08,12.308 4.272,26.016 0.703,38.258 -3.122,10.718 -11.09,20.69 -18.385,27.784 l -0.02,0.015 -0.015,0.015 c -17.73,16.004 -55.676,19.837 -85.153,24.115 a 127.1,127.1 0 0 0 -14.506,2.936 c -1.43,0.377 -2.783,0.785 -4.15,1.177 -15.074,4.587 -30.47003,12.663 -43.01803,26.521 -11.403,12.583 -18.778,28.116 -18.778,28.116 0,0 5.02,-16.568 16.958,-29.759 a 89.753,89.753 0 0 1 11.219,-10.429 c -4.015,-7.77 -11.54,-10.189 -18.714,-15.094 -20.177,-12.852 -46.504,-15.604 -65.996,-29.01 -11.609,-10.663 -12.752,-23.743 -14.974,-38.393 -2.482,-9.105 -6.227,-17.04 -10.473,-24.68 a 140.732,140.732 0 0 1 -0.049,-0.08 c -6.08,-10.336 -14.873,-20.388 -22.092,-25.036 2.301,6.47 3.667,11.185 3.63,16.095 -0.054,5.391 -3.016,9.696 -3.016,9.696 0,0 0.22,-2.684 0.387,-5.767 -7.027,1.744 -6.24,11.21 -5.901,16.618 l 0.005,0.02 v 0.034 c 0.998,9.384 7.98,21.836 10.024,26.227 0.196,0.417 0.444,0.932 0.743,1.523 0.27,0.532 0.572,1.123 0.9,1.758 a 369.06,369.06 0 0 0 1.98,3.736 c 2.482,4.628 -0.278,-0.31 6.05,11.057 a 32.842,32.842 0 0 1 3.017,7.48 c 1.764,6.628 1.19,13.118 0.211,18.053 -0.961,4.856 -2.14,7.897 -2.14,7.897 0,0 0.578,-3.208 0.919,-8.06 0.35,-4.976 0.324,-11.1 -1.357,-17.25 a 30.37,30.37 0 0 0 -2.796,-6.928 c -6.333,-11.376 -3.57,-6.439 -6.065,-11.09 a 387.934,387.934 0 0 1 -1.992,-3.76 192.65,192.65 0 0 1 -0.915,-1.787 59.837,59.837 0 0 1 -0.775,-1.59 c -1.972,-4.228 -9.217,-17.193 -10.247,-27.068 l -0.005,-0.024 v -0.025 c -0.339,-5.433 -1.425,-17.571 8.46,-19.357 0.012,-0.498 0.058,-0.917 0.06,-1.412 0.04,-5.193 -1.635,-10.211 -4.598,-18.322 -0.307,-0.842 -0.613,-1.683 -0.925,-2.522 0.888,0.268 1.756,0.596 2.598,0.986 2.369,1.102 4.956,2.89 7.615,5.16 l 4.327,-4.24 c -0.905,-5.413 -2.745,-9.333003 -5.997,-14.074003 -4.611,-7.37 -14.55,-8.523 -27.034,-3.703 5.658,3.227 9.801,11.378 10.517,15.756003 l -0.078,0.044 0.078,0.13 c -5.766,3.527 -8.741,9.414 -8.825,14.06 -0.049,2.739 1.07,5.805 3.047,8.444 2.636,3.495 6.404,6.348 6.404,6.348 0,0 -1.227,-0.037 -2.966,-0.729 a 12.641,12.641 0 0 1 -5.403,-4.147 c -2.222,-2.968 -3.596,-6.608 -3.534,-9.966 0.056,-3.09 1.175,-6.536 3.272,-9.661 -5.293,-5.708 -9.505,-10.277003 -14.913,-10.719003 -8.361,-0.674 -18.46,1.055 -22.491,11.639003 7.689,-0.314 15.96,0.956 20.129,5.935 -0.044,0.36 -0.064,0.726 -0.105,1.087 a 0.557,0.557 0 0 1 -0.01,0.375 l -0.057,0.334 a 410.12,410.12 0 0 0 -1.236,12.935 c 0.025,1.398 0.142,2.698 0.388,3.765 0,0 0.225,1.491 2.744,4.805 0.395,0.48 0.834,0.964 1.317,1.437 2.53,2.355 4.722,4.158 7.106,5.102 2.16,0.858 3.89,0.69 3.89,0.69 0,0 -1.557,0.796 -4.18,0.48 -2.754,-0.334 -5.93,-1.85 -8.53,-4.518 a 20.625,20.625 0 0 1 -1.499,-1.633 l -0.03,-0.04 c -2.842,-3.728 -3.21,-5.771 -3.21,-5.771 -0.819,-3.556 -0.392,-9.06 0.16,-13.294 -4.71,-0.36 -9.534,-2.278 -13.49,-0.13 -8.062,4.376 -13.736,12.593 -14.717,23.252 5.669,-3.807 10.878,-3.397 14.52,-1.83 6.147,2.814 4.347,12.492 9.154,17.071 2.715,2.615 6.74,4.055 10.108,5.69 0.85,6.736 1.143,12.855 5.067,18.644 0.066,7.098 4.153,14.059 7.326,20.24 1.528,-12.747 2.747,-23.936 13.898,-32.178 -6.444,9.91 -12.166,23.775 -10.434,35.646 4.285,11.282 10.755,21.017 19.656,30.578 6.083,7.586 12.362,19.46 21.976,22.501 0.329,2.159 0.658,4.347 0.981,6.505 2.325,1.015 4.646,1.994 6.966,3.01 1.408,2.123 2.779,4.25 4.184,6.376 2.338,0.555 6.032,1.627 6.032,1.627 0,0 1.785,3.74 3.257,5.506 10.171,7.137 17.858,11.79 28.981,17.392 l 20.284,-9.666 c 23.878,-11.984 47.674,-20.878 72.59603,-26.828 14.417,-3.441 29.153,-4.304 29.153,-4.304 0,0 -14.341,3.291 -28.584,6.69 -24.72003,5.902 -48.34303,14.727 -72.08603,26.645 -15.437,6.843 -31.507,15.93 -46.714,21.037 -24.135,5.361 -48.856,2.55 -71.975,-5.266 6.735,0.718 13.372,1.93 20.075,2.813 -1.11,-7.849 -6.44,-8.207 -12.425,-11.182 -8.928,-3.76 -15.011,-10.829 -20.667,-18.415 -6.083,-8.21 -1.506,-23.22 -8.896,-30.414 -7.554,-7.326 -18.248,-5.2 -27.078,-1.702 5.29,2.215 10.4,7.196 12.264,11.94 -3.63,2.975 -7.653,5.234 -11.675,7.652 3.007,3.697 5.886,7.324 7.978,11.609 -10.203,-13.31 -30.08,-15.187 -41.917,-5.93 -3.041,2.386 -9.065,10.127 -8.442,16.347 8.683,-5.217 19.715,-7.211 29.168,-5.642 -9.914,2.505 -17.133,1.977 -12.433,22.671 5.116,-3.63 15.997,-7.594 24.37,-2.296 -8.766,-0.164 -18.253,0.986 -24.858,6.429 -7.866,6.48 -11.778,16.11 -13.179,27.583 8.825,-7.105 19.39,-12.582 32.187,-7.046 -2.386,0.556 -12.51,-1.227 -15.869,0.826 1.241,3.76 4.94,9.225 8.668,11.744 5.298,-2.323 10.596,-3.858 16.419,-3.99 -13.735,2.977 -31.204,14.156 -28.07,31.495 5.046,-4.27 15.539,-11.67 21.666,-13.157 2.54,3.336 5.028,5.175 10.36,6.093 18.28,3.598 36.793,8.928 55.368,10.463 12.33,-1.275 24.363,0.228 36.563,1.734 8.893,-6.149 8.697,4.967 18.476,1.303 2.612,2.88 6.819,6.9 6.819,6.9 l 5.148,-5.318 7.971,8.461 5.408,-5.47 6.564,6.334 6.84,-5.997 6.831,6.117 c 1.864,-1.307 4.028,-6.343 4.028,-6.343 l 10.137,5.688 c 0,0 1.962,-4.057 2.975,-6.05 1.766,1.667 3.566,3.303 5.332,4.97 15.394,1.35 24.594,1.576 37.34303,1.002 12.426,-1.918 20.72,-7.547 24.412,-16.355 1.481,-3.532 3.554,-7.18 3.554,-7.18 0,0 0.338,4.227 -1.293,8.13 -3.73,8.9 -10.122,14.514 -22.574,17.153 -9.09003,1.416 -34.00803,3.277 -40.94903,3.336 -3.904,0.77 32.992,4.12 32.992,4.12 h 147.76203 c -4.5,-14.686 -9.203,-30.087 -11.55,-43.106 4.58,-4.513 4.547,-10.755 8.668,-15.692 -1.212,-1.899 -2.423,-3.83 -3.63,-5.725 l 5.982,-1.538 c 2.517,-16.188 2.777,-37.38 -6.838,-51.441 3.5,-5.396 7.23,-10.63 10.792,-15.962 -2.06,-1.864 -4.118,-3.692 -6.179,-5.556 2.912,0.719 5.826,1.435 8.769,2.188 a 41.202,41.202 0 0 0 1.614,-2.874 c 0.245,-0.479 -6.2,-5.264 -6.2,-5.264 0,0 7.647,1.665 7.848,1.182 0.402,-0.964 0.736,-1.177 1.062,-2.15 0.164,-0.487 -6.05,-3.354 -6.05,-3.354 l 6.99,0.066 c 0,0 0.419,-1.697 0.632,-2.698 0.052,-0.247 -5.116,-2.119 -5.116,-2.119 0,0 5.163,-0.29 5.212,-0.542 0.096,-0.505 0.55,-1.555 0.638,-2.065 0.041,-0.255 -6.338,-2.281 -6.338,-2.281 l 6.666,-1.243 0.84,-1.94 -3.646,-5.946 6.569,-3.451 -6.076,-6.26 6.404,-3.362 -6.202,-3.93 6.74,-1.275 0.326,-2.347 -4.79,-3.193 5.045,-1.72 -4.9,-3.627 5.55,-1.644 c 0,0 -3.571,-4.542 -4.229,-5.337 4.906,-6.016 3.635,-8.658 0.43,-15.557 4.164,-0.457 6.875,-0.793 6.875,-0.793 l -8.438,-6.892 7.162,-2.232 -10.757,-6.254 10.993,-1.133 c 0,0 -9.134,-5.195 -12.666,-5.85 8.437,-3.893 20.958,-7.869 24.33,-18.023 3.763,-11.32 0.393,-20.897 -6.93,-29.138 -4.521,-4.292 -12.657,-6.745 -18.828,-6.593 -0.637,0.015 -1.221,0.09 -1.81,0.164 -2.529,0.29 -4.905,0.815 -7.056,1.57 -3.36,1.204 -6.014,2.556 -8.173,4.26 -1.991,1.57 -3.036,3.047 -3.036,3.047 0,0 0.473,-1.75 2.173,-3.905 1.773,-2.247 4.57,-4.457 8.226,-5.715 2.164,-0.76 4.51,-1.3 6.99,-1.619 -0.448,-4.447003 -2.386,-8.165003 -5.074,-11.344003 -3.262,-3.86 -10.012,-8.78 -18.477,-8.795 z m -255.40203,11.376 c 0.36,6.391 -1.493,10.694003 -5.835,14.932003 -1.665,1.351 -5.028,3.654 -5.396,3.784 5.715,5.139 10.326,10.905 14.498,16.85 3.623,-3.754 7.147,-10.86 7.636,-15.133 0.937,-8.197 -5.18,-15.462003 -10.903,-20.430003 z m 219.01603,20.600003 a 77.76,77.76 0 0 1 3.444,0.052 59.405,59.405 0 0 1 18.751,3.823 32.616,32.616 0 0 1 1.518,0.633 l -0.436,-0.08 a 43.426,43.426 0 0 0 -1.178,-0.212 104.896,104.896 0 0 0 -4.297,-0.618 c -4.272,-0.534 -8.759,-0.9 -14.444,-1.099 a 74.548,74.548 0 0 0 -14.133,0.815 c -7.792,1.226 -14.73,3.326 -20.261,5.406 a 103.365,103.365 0 0 0 -9.802,4.257 c -1.488,0.746 -2.195,1.085 -3.546,1.896 -0.604,0.363 -1.2,0.739 -1.786,1.129 l -0.105,-3.316 c -0.162,-4.992 0.905,-10.017 0.905,-10.017 0,0 1.221,4.41 1.496,9.1 2.828,-1.541 5.8,-2.839 8.013,-3.768 6.11,-2.57 14.726,-5.54 24.709,-7.11 a 75.299,75.299 0 0 1 11.152,-0.89 z m 3.814,9.087 c 1.35,0.062 2.632,0.233 3.846,0.538 0.991,5.224 0.694,9.14 -0.547,12.832 -2.747,7.653 -11.582,12.86 -19.693,10.866 -10.497,-1.8 -12.592,-10.498 -22.337,-16.188 5.926,-3.493 13.382,-5.347 19.083,-5.872 -3.312,1.626 -6.709,3.083 -6.25,6.868 0.785,6.48 8.795,12.32 14.998,10.286 1.815,-0.564 3.182,-1.66 4.332,-2.985 1.896,-2.182 3.022,-5.055 3.875,-7.765 1.121,-3.213 0.285,-6 -1.552,-8.462 a 31.626,31.626 0 0 1 4.243,-0.118 z m -70.72,25.568 c 1.31,-0.25 2.733,0.122 4.023,1.25 2.973,2.534 -5.518,16.493 -5.518,16.493 0,0 -4.793,-12.355 -1.87,-15.276 0.85,-1.349 2.054,-2.217 3.366,-2.467 z m 9.461,1.216 c 10.748,-0.122 15.854,13.75 16.004,21.599 -6.652,-2.686 -20.8,-4.425 -20.8,-4.425 0,0 2.866,-10.47 4.796,-17.174 z m -22.305,3.012 c 0.61,-0.073 1.221,0 1.93,0.27 3.444,1.17 0.196,12.987 0.196,12.987 0,0 -7.034,-10.726 -4.032,-12.6 0.692,-0.353 1.298,-0.58 1.906,-0.657 z m 15.81,31.346 c 5.722,0.294 16.115,1.91 21.542,3.579 0.113,3.524 0.447,5.945 -1.672,7.179 -4.268,3.666 -12.303,3.2 -15.852,0.782 -1.879,-3.066 -2.615,-6.794 -4.018,-11.54 z m -4.834,0.841 c 3.635,2.281 4.694,5.394 6.448,10.876 -2.96,1.282 -5.474,1.408 -7.226,0.713 -0.284,-1.258 -1.741,-4.915 0.778,-11.589 z"
       inkscape:connector-curvature="0" />
    <path
       id="path847"
       d="m 1034.5948,170.05219 c -15.845,-2.848 -25.958,-1.604 -43.77003,4.626 -9.957,2.705 -24.428,4.194 -36.282,1.177 9.47,15.55 35.858,12.072 44.163,7.952 0,0 9.36503,-5.053 14.46203,-6.39 10.87,-2.183 25.209,1.183 35.814,3.922 0.557,-2.33 0.653,-5.077 0.358,-8.089 z"
       inkscape:connector-curvature="0"
       style="fill:#f00000" />
  </g>
  <path
     d="m594.17 317.57 1.691-313.46h-591.73l1.692 313.46c4.1 167.41 91.908 327.92 294.17 415.54 202.27-87.628 290.06-248.13 294.17-415.54z"
     id="path28"
     stroke-width="5.9173"
     stroke="#000"
     fill="none" />
</svg>
