<?xml version="1.0" encoding="UTF-8"?>
<svg width="400" height="500" xmlns="http://www.w3.org/2000/svg">
<path d="M396 3.999H4v199.84c5 149.88 80 239.81 196 291.77 117-53.957 192-143.88 196-291.77z" fill="#fff"/>
<path d="M254.17 19.738v.003c-3.352 1.618-5.719 4.077-8.44 6.529a26.893 26.893 0 0 0-6.743-3.656c-2.96 2.385-4.657 4.75-6.189 8.219-5.585.824-8.43 3.256-11.083 8.104-4.08-2.032-8.572-2.672-12.959-1.235-3.64 1.293-7.1 3.755-10.299 5.91-8.037 5.585-15.585 11.886-23.383 17.767-2.932 1.524-8.528-.084-11.776 2.627-2.155 2.003-2.69 5.748-3.379 8.44-.334 1.533-1.933 2.75-2.949 3.88.444 3.499 1.987 6.45 3.755 9.419-2.008 1.42-4.134 3.156-6.622 5.277-.51.373-1.002.756-1.525 1.11-1.596 1.034-4.421 2.551-8.235 3.382-2.36.452-4.088.241-5.902-.304-1.819-.547-3.723-1.463-6.215-2.379-1.4-.705-3.984-1.741-6.72-2.377-2.784-.648-5.715-1.012-7.697.45-3.07 2.26-4.062 6.354-3.444 9.92l.398 2.3 1.332-1.92c.552-.795 1.008-1.334 1.487-1.649.477-.314 1.007-.478 1.968-.43 1.439.069 2.655.957 4.168 1.973l7.84 5.275.081.034c5.576 2.414 10.797 3.538 16.151 2.272 6.818-1.613 12.837-5.449 17.332-11.98l3.618-4.577c1.732.737 3.533 1.633 5.384 1.924 1.82.01 3.737-.977 5.432-1.58 2.193 5.623-4.846 8.82-3.236 13.677.43.55.812 2.367 4.517 2.475-.91-2.06 1.747-5.002 3.912-5.874 3.583-1.36 6.64-2.36 8.143-6.257 1.485-3.841-.93-6.013-2.932-8.887 1.006-.086 2.033-.224 3.05-.221.338.001.675.019 1.011.057 2.624 1.447 4.827 3.17 7.893 3.658 4.138.91 7.864-.218 11.715-1.664-2.28 3.468-4.75 6.464-9.07 7.212-5 .938-10.511 1.233-12.973 6.453 1.982.336 3.916.165 5.534 1.448 2.04 1.572 3.948 2.73 6.372 3.64-4.406 2.435-7.653-.115-12.099-.747-9.12-.664-10.833 4.534-10.909 4.782 1.954.258 4.09-.232 5.2 1.808 1.496 2.95 2.863 4.885 5.402 7.02-3.496-.64-6.368-2.344-9.424-4.04-3.027-1.848-6.61-.363-9.618.758-2.777 1.274-5.69 1.534-8.689 1.83.9 2.424 1.83 4.634 4.31 5.822 2.329 1.36 5.443-.056 7.685.874 2.193 1.849 4.024 3.984 6.457 5.564-3.17.68-6.179.613-9.033-1.054-3.976-2.26-7.224-4.972-12.08-4.981-3.056.03-4.275 2.299-6.794 3.496-1.877.71-4.29.021-6.253-.113.632 1.437 1.09 3.248 2.345 4.264 2.375 2.03 6.286 1.98 9.026 3.312 2.433 1.945 4.541 4.265 7.07 6.122-7.74 1.36-11.479-5.221-18.797-5.106-2.873-.067-4.693 1.485-7.097 2.73-2.099 1.168-4.32 1.81-6.581 2.567 2.845 3.343 6.436 3.516 10.449 4.244 2.07.325 2.856 1.764 3.89 3.373-3.687-1.036-6.283-3.184-10.228-3.23-3.316-.366-5.843.981-8.424 2.813-4.222 3.55-6.71 9.61-7.24 12.496 3.256-1.227 6.225-1.23 9.55-.796l-1.153 1.07c-7.903-1.04-10.4 2.611-10.4 2.611.844-3.965 1.708-7.75 3.73-11.209.568-.865 2.08-3.748 4.266-5.29-6.952-12.301-17.221-22.808-26.243-33.613-1.792-2.223-2.835-4.72-4.473-7.048-2.807-4.034-6.236-6.966-9.512-10.587-1.954-2.012-4.148-4.542-6.783-5.634-4.952-2.049-9.799-2.592-14.195-5.954-3.91-2.988-8.459-5.703-11.62-9.496-3.533-4.856-6.476-11.236-11.2-15.623-1.072-1.131-2.422-1.447-3.848-1.916-2.99-5.48-5.76-11.072-8.911-16.475-2.893 3.514-1.944 9.26-1.83 13.513-3.227-2.731-5.411-6.438-8.763-8.967.258 8.363 2.03 17.089 5.929 24.533 1.437 2.701 4.359 4.379 7.404 4.303 1.408-.364 2.77-.846 4.139-1.306-.307 2.376-1.342 4.36-2.223 6.534 1.696 3.612 4.896 5.453 8.67 6.314 4.56 1.035 8.89 2.451 12.654 5.334 4.33 3.382 8.81 6.533 13.264 9.742.872 2.692 1.985 5.259 3.212 7.807-2.262.268-4.618.901-6.888.757-1.934-.756-3.567-2.374-5.28-3.514.286 4.31 1.792 8.305 5.249 11.044 4.09 3.296 8.612 2.54 13.42 4.973.24.661.49 1.32.728 1.973-2.853-.354-5.479-1.534-8.304-1.985-2.873.067-4.252 1.59-5.43 4.053 1.457.335 3.295.432 4.52 1.342 2.53 1.753 4.271 4.876 6.6 6.81 1.771 1.38 4.07 1.57 6.197 2.022-1.187 3.152-2.49 6.006-1.34 9.426 1.206 3.027 3.84 4.387 6.84 5.182a84.132 84.132 0 0 1-.47-5.374c2.166 1.12 3.718 1.57 6.198 1.388.04 1.802-.038 3.69.297 5.462.595 2.749 2.339 5.266 3.047 7.969.494 2.563-.344 6.507-.344 6.507.426-.236 1.042-.382 1.436-.644 3.142-1.006 5.248-3.344 6.465-6.352.24-1.198.461-2.404.672-3.6.383.84.765 1.693 1.168 2.536 1.312 2.816 3.025 5.376 4.95 7.809-1.493 1.417-2.86 2.901-4.097 4.557 1.772.432 3.782.26 4.968 1.86 1.356 1.81 2.359 3.912 3.387 5.93 7.003 3.105 12.287 3.354 19.069.545l-.403 1.458c-4.042 2.463-9.032 2.776-13.563 1.675-10.524-2.59-17.339-10.288-25.55-15.544 0 0-2.283-2.328-2.686-2.644h-.295l.244-.035a.293.293 0 0 1 .051.035h.072c-1.333-1.252-2.535-2.716-4.072-4.055-2.413-2.136-5.21-5.097-8.448-5.797-4.33-1.14-9.27-.306-13.601.566-4.187.996-6.313 4.389-8.66 7.646-3.85 5.316-8.268 10.26-13 14.808-2.827 2.635-3.61 6.246-6.303 8.986-1.982 2.184-4.304 3.342-5.433 6.197-1.333 3.208-3.688 5.921-3.21 9.552.489 4.857 2.1 9.504 2.618 14.369.623 3.544.508 7.336 1.552 10.775 3.18-1.685 5.24-5.821 6.8-8.907 1.6 3.593 2.912 7.29 4.359 10.95 4.8-4.78 6.17-13.078 6.39-19.562-.786-3.239-2.518-6.084-2.94-9.485 2.376-.756 4.846-1.207 5.496-4.023.355-3.267-.26-6.772.42-9.99 1.026-2.471 3.298-4.542 5.127-6.447 3.66-3.516 6.841-7.204 10.827-10.327a80.464 80.464 0 0 1 4.819 2.981c-2.165 1.656-4.647 1.867-7.156 2.661 3.601 4.235 7.481 7.507 13.096 8.656-2.865 1.447-4.973 1.774-8.192 1.602 1.648 3.392 4.293 6.237 7.98 7.348 3.795 1.265 7.52.496 11.696.668-.222 4.98-5.221 4.264-8.727 5.642 3.64 5.882 9.139 8.307 15.901 8.654-2.557 5.334-1.62 10.44 2.94 14.243 1.523-3.851 3.152-4.282 7.04-4.742-.373 2.366-1.148 4.56-.009 6.85.747 1.542 2.503 2.517 3.824 3.524 1.38-2.07 1.667-4.11 4.73-3.64 5.328 1.198 9.553 6.36 15.36 6.272 8.788-.5 11.716-10.285 16.818-16.053 2.853-2.894 7.623-6.1 11.74-6.78.47.094.929.314 1.388.64-3.927 1.186-6.931 2.808-9.9 5.653-1.643 1.328-4.766 6.037-7.72 10.16-1.164 1.727 1.46 11.29 4.64 16.613 1.928 3.223 5.405 6.072 8.902 7.624 8.123 3.764 16.41 7.213 24.58 10.863 7.356 3.352 14.467 8.181 19.611 14.475-12.903 3.66-25.339 2.453-38.453 1.343-8.716-.834-16.187 3.417-22.615 8.84-4.435-2.214-8.823-3.843-13.88-2.914-5.604 1.236-11.103 3.89-13.64 9.34-2.502 4.024-1.036 7.999-2.406 12.223-.824 2.587-3.957 3.363-6.064 4.599 3.927 1.763 8.16 1.916 12.059.019 3.027-1.418 4.885-3.784 6.897-6.342.507.824 1.005 1.65 1.513 2.474.967-.796 1.918-1.6 2.866-2.415-2.568 7.404.036 13.843 3.724 20.213 3.324 5.383 6.026 10.889 5.768 17.404-.25 4.607-5.614 7.06-8.928 9.388-11.41 8.104-23.853 12.271-36.871 16.936-1.323 1.897-2.078 4.205-3.267 6.197-2.47 4.522-5.9 8.218-8.707 12.48 4.56.824 8.44.519 12.903-.65-.354 3.534-1.446 6.677-2.701 9.964.383 1.005 2.508.22 3.352.286 5.268-.728 10.269-3.336 13.497-7.617 1.533-2.347 1.993-5.44 2.96-8.055 1.39 1.111 2.616 2.366 3.795 3.698 6.12-2.72 9.865-8.382 11.397-14.743 7.386-5.623 17.24-8.68 26.025-11.38-.728 5.862 3.066 8.392 5.337 13.056-.92 2.433-2.827 3.534-4.723 5.106 3.823 2.95 8.564 2.492 11.936-.822 2.147-3.334 1.142-6.878-.64-10.087 1.782-2.596 4.116-4.494 4.672-7.646.47-2.558 1.142-5.737.214-8.246-1.42-3.134-4.38-5.019-7.235-6.686a96.307 96.307 0 0 1 1.228-13.488c.613-5.546 5.901-10 10.873-11.773 6.101-2.06 12.484-3.237 18.565-5.392 5.78-1.893 11.2-4.52 16.715-7.04a13.152 13.152 0 0 1-1.397 3.004c-.239.323-2.02 2.698-4.094 4.646-2.358 2.21-4.85 4.342-5.589 7.71-.375 1.711-.712 4.476.28 7.35s3.272 6.465 7.73 7.598c4.458 1.134 7.92-.601 10.506-3.87.168-.254.316-.52.466-.783.373.82.744 1.641 1.12 2.459-2.798 2.72-5.758 6.14-5.259 10.336.584 4.837 6.267 6.8 6.87 11.484-.145 4.368-3.297 9.688-1.237 13.873 1.878 3.946 7.395 5.025 11.303 5.398-1.57-2.912-3.17-5.26-2.106-8.746 1.56-4.579 4.628-8.122 5.136-13.16 6.12 5.91 13.973 10.672 22.375 12.387a1238.8 1238.8 0 0 0 17.664 4.044c1.638.44 3.764.784 5.066 1.952 2.299 2.424 3.172 5.862 2.77 9.14-.547 5.813-1.467 11.657-3.056 17.28-.872 3.276-2.73 6.073-5.048 8.506-1.292 1.37-2.766 2.218-3.722 3.628-.32.587-.578 1.19-.81 1.811-.027.003-.056.003-.084.007l-.075.15-5.787.582c-.226.361-2.296 3.668-5.18 7.865-2.568 3.736-5.433 7.543-7.89 10.16 1.218.083 2.32.087 3.417-.177 1.65-.399 3.573-1.348 6.583-3.373l2.916-1.963-3.507 7.757c-.02.054-.032.111-.052.163v.001c-.012.019-.035.041-.05.061l-2.146 4.752c.907-.188 1.75-.39 2.561-.6a1.741 1.741 0 0 1-.03-.036 42.933 42.933 0 0 0 2.911-.808c3.611-1.213 6.111-2.68 7.902-4.294.32-.287.622-.603.926-.92a14.334 14.334 0 0 0 2.3-3.328c1.086-2.158 1.676-4.44 2.48-6.654 1.795-1.954 2.38-5.361 4.716-6.741a8.39 8.39 0 0 1 1.827-.573c1.005-.2 2.267-.29 3.12.221 1.367.817-.757.24 2.928 2.133 3.024-3.009 5.672-6.3 6.253-10.688.422-2.74-.518-5.066-1.869-7.374 2.664-8.326 3.02-16.688 3.192-25.376 1.264 2.778 1.953 5.777 5.067 7.032 3.257 1.245 6.639-1.39 9.139-3.19-1.955-1.322-4.1-1.974-4.32-4.686-.058-2.94 2.288-5.287 1.54-8.526-1.044-3.677-4.454-7.106-8.371-7.46-2.701-.162-4.712 1.024-7.001 2.24-3.574-2.653-6.856-5.449-9.088-9.368-3.64-5.785-4.168-11.936-5.126-18.536-.93-8.152-2.11-16.277-3.277-24.4-1.264-7.893-6.267-14.463-13.135-18.419 4.31-.096 10.21-.202 13.047 3.735 2.624 4.004 2.11 7.853 1.667 12.28 3.348.424 5.106-.048 7.95-2.05 1.859-1.235 2.894-3.015 3.91-4.94 7.697 7.415 14.607 3.013 14.752 2.373-3.41-2.691-4.32-4.234-5.642-8.363 3.534 2.73 6.915 5.137 11.533 5.54 6.484.584 12.431-2.577 16.56-7.435-2.222-.296-4.406-.65-6.553-1.293 3.161-.22 6.163.067 8.95-1.707 3.458-2.202 6.035-6.233 6.045-10.4-.058-1.848 1.117-3.314 2.957-3.573 1.935-.393 3.507 1.35 5.117 2.203.507-2.174-1.017-4.675-2.56-6.14-2.546-2.328-6.741-1.867-9.546-.306-3.01 1.907-5.242 4.435-8.68 5.71-3.42 1.504-7.242 1.177-10.556-.432-6.571-3.075-12.452-6.427-19.895-6.992-9.896-.259-17.1 9.349-26.853 8.601-6.638-.497-13.21-5.441-18.276-9.475-7.07-6.16-14.117-13.496-18.19-22.03-4.893-9.79-9.05-20.732-11.991-31.268-.747-4.08-1.26-8.216-1.687-12.363-.039-.137-.063-.197-.102-.34-.946-3.484-1.908-8.012-2.074-12.853-.71-20.985 10.22-27.153 18.82-39.107 10.929-15.187 13.52-20.732 16.8-28.48l.002-.004.003-.005c4.23-9.69 6.224-20.048 7.32-30.533.87-8.313 2.186-16.685 2.186-16.685s.683 8.46-.198 16.893c-1.107 10.59-3.136 21.176-7.472 31.115l-.004.011c-3.3 7.793-6.017 13.576-17.013 28.856-8.939 12.424-19.127 17.756-18.444 37.871.053 1.608.152 3.203.266 4.77 2.623 2.39 3.24 5.497 4.92 8.669 2.987-4.971 4.092-12.063 4.234-16.064 3.727.312 1.676 9.773 3.516 11.445.957 1.906 2.643 2.09 4.492 2.733-1.112-3.41.977-4.752 2.317-7.51 1.16-3.066-.956-7.129-.754-10.29.469-2.624 2.564-4.607 3.694-6.935.488-1.618.307-3.448.403-5.142 1.236 3.486-.459 7.882 1.15 11.13 1.658 3 4.52 3.975 7.702 4.589-2.357-5.364.776-9.054 1.216-14.39.623-3.477-2.067-6.955-2.23-10.538.038-2.174 1.463-3.61 2.507-5.41 1.418-2.078 1.686-4.312 2.203-6.716 3 .844 5.576 1.752 8.584.26 3.181-1.658 3.057-4.858 3.737-8.038-3.456-.507-5.306-3.438-5.741-4.97-.805-3.785 1.64-5.165 2.359-7.77 3.074.497 6.285 1.168 9.216-.298 3.113-1.762 4.453-4.78 5.122-8.152-6.172-.73-7.026-6-8.38-11.256 3.907.987 7.684 2.071 11.4-.18 3.524-2.173 4.512-6.14 5.346-9.925-7.435 1.077-10.1-3.36-10.847-9.876 3.306-.584 6.322-1.333 8.612-3.987 2.538-2.834 2.645-6.445 1.954-10.009-5.308 3.707-10.953.688-14.55-2.833 6.217-3.487 11.752-8.353 12.5-15.884a160.604 160.604 0 0 0-10.116-3.976c18.67-1.676 38.404 1.85 54.545 11.667 11.072 6.8 16.515 12.143 19.424 15.636l.156-.139c1.352 1.523 12.224 14.633 8.698 37.457-.343 2.448-1.778 6.342-3.554 10.717s-3.901 9.156-5.61 13.02l-.116-.05a104.92 104.92 0 0 1-3.662 7.1c-3.074 5.25-5.776 10.32-10.23 14.543-8.68 8.42-18.837 13.319-29.594 18.396 7.251 3.782 16.947 2.661 22.98-2.962 1.791-1.897 3.747-1.44 6.123-1.612 2.263-6.246 5.035-6.658 10.529-7.718-.443-5.362 4.088-7.867 9.117-9.926 1.072-5.009 2.546-9.37 7.367-11.953-.393-4.849.736-9.102 5.307-12.769-1.035-5.508 1.744-8.917 5.432-12.48-2.252-5.354-.891-10.193.958-15.365-3.88-4.597-3.669-9.512-1.256-14.78-1.964-1.782-3.89-3.267-4.877-5.825-1.379-3.18-.93-6.186-.652-9.512-2.136-.872-4.128-1.562-5.584-3.468-2.01-2.622-2.15-5.554-1.98-8.62-3.893-.285-8.267-1.053-11.667-2.917-2.57-1.41-4.77-3.51-6.461-5.483-.054-.062-2.163-2.504-3.707-5.18-4.041.384-6.45-.117-6.45-.117-.778-.133-1.551-.341-2.193-.67 0 0-1.997-.994-4.344-4.94-3.664.27-6.046-.213-6.046-.213-.734-.134-1.458-.338-2.063-.652-.583-.3-1.147-.757-1.657-1.256 0 0-1.667-1.582-3.43-4.464-4.04 1.108-5.913 1.19-5.913 1.19-.795.093-1.592.15-2.313.134a8.12 8.12 0 0 1-1.167-.1c-.717-.12-1.488-.377-2.236-.689 0 0-2.088-.716-5.524-3.13-2.565 2.186-5.695 3.117-5.695 3.117-.929.266-1.936.44-2.988.444a11.289 11.289 0 0 1-3.225-.464s-3.124-.944-5.427-3.208c-3.305 3.274-5.568 3.656-5.568 3.656s-2.234.626-7.332-1.898c-2.29 2.294-4.086 3.042-4.086 3.042a4.207 4.207 0 0 1-.428.154c-1.564.44-3.047.144-4.083-.12-1.347-.392-2.252-.765-2.252-.765s.96-.204 2.33-.35c1.04-.16 2.427-.295 3.397-.662a3.72 3.72 0 0 0 .253-.101c.005-.002 1.733-.728 3.927-3.088.176-.19.349-.382.517-.578.225.128.453.254.681.374 3.03 1.593 5.34 1.964 5.34 1.964.574.097 1.043.116 1.398.054.946-.162 2.148-1.022 3.273-1.978.112-.095.863-.68 1.921-1.824.299-.32.587-.651.867-.988.173.373.392.722.65 1.042 1.05 1.314 3 2.424 3 2.424 1.283.726 2.922 1.32 4.84 1.312 2.133-.005 4.085-.868 5.565-1.773.229-.139 1.424-.853 2.356-1.77a7.813 7.813 0 0 0 .573-.627c.239.18.477.358.717.534 3.74 2.734 5.77 3.36 5.77 3.36.669.28 1.28.478 1.797.564.25.042.542.066.877.072.3.007.624-.002.968-.024.621-.037 1.29-.114 1.967-.218 0 0 1.973-.195 5.443-1.198.253-.073.506-.148.76-.226.125.232.253.461.384.688 1.785 3.103 3.486 4.685 3.486 4.685.435.423.836.733 1.183.912.37.19.883.347 1.51.463 0 0 2.233.513 6.127.145.218-.021.435-.045.654-.07.101.193.205.386.312.575.717 1.28 1.213 1.907 1.333 2.075.801 1.123 1.7 2.2 2.512 2.615.397.204.947.364 1.619.48 0 0 2.229.535 6.545.039.228-.027.457-.054.685-.084.1.202.203.405.311.605 1.445 2.697 3.797 5.404 3.797 5.404 1.603 1.87 3.608 3.772 5.904 5.03 1.646.903 3.542 1.525 5.492 1.957-2.31-4.475-4.002-9.16-5.768-13.87-2.882.26-5.498.671-8.266-.487-4.111-1.61-6.723-4.81-8.878-8.516-8.572-.122-11.39-1.927-15.623-8.602-7.005 5.178-13.472 2.678-18.653-3.737-6.082 4.903-12.035 4.255-18.203-.095-2.289 2.136-4.049 4.263-7.373 4.656-4.463.451-8.696-2.826-11.952-5.488zm2.31 31.54c2.547-.021 5.58.479 8.02 1l.034.008c2.441.613 4.608 2.164 4.664 2.204v.003c-.07.008-2.724.333-5.117-.26-3.203-.684-7.094-1.276-9.556-.782-2.094.42-5.059 2.308-7.234 3.862l-.022.017c-1.287.963-3.155 1.143-3.155 1.143s.681-1.774 1.97-2.752c2.482-1.746 5.075-3.471 8.047-4.231a12.629 12.629 0 0 1 2.348-.213zm88.768 27.187c.107 12.529-2.925 24.8-9.185 35.677-7.308 12.817-17.961 22.969-30.337 30.844 6.11 2.51 13.133 2.387 18.813-1.159 1.213-1.957 2.795-5.39 5.045-7.04 2.99-2.24 6.958-2.913 10.215-4.733-.096-2.864-.401-5.307 2.042-7.337 3.084-2.572 5.792-5.206 8.23-8.372.698-2.006 1.202-3.704 1.35-4.764l.004-.016c2.618-16.928-2.93-28.183-6.176-33.101zm-145.25 302.86c-17.728.03-32.85 12.843-35.79 30.327a40.853 40.853 0 0 0-23.21-7.239 40.856 40.856 0 0 0-38.85 28.857c27.786 25.15 60.702 45.707 97.85 62.347 37.157-17.137 70.06-37.92 97.816-63.019-2.761-7.464-6.884-13.583-12.91-18.783-2.658.366-4.562 5.414-4.76 5.956-.758 2.087-1.369 4.475-2.574 6.872-2.412 4.794-7.307 9.376-19.947 11.533l-1.853.318 4.373-9.686c-.55.174-1.107.364-1.645.484-.914.444-1.771.792-2.56.983-2.007.484-3.794.327-6.063.06l-2.2-.259 1.65-1.48c2.274-2.037 5.958-7 8.967-11.38s5.407-8.209 5.407-8.209l.261-.417 5.644-.567c.328-.563.534-1.17.751-1.779a40.853 40.853 0 0 0-11.357-1.832 40.856 40.856 0 0 0-23.152 7.199c-2.961-17.488-18.109-30.287-35.848-30.287z"/>
<path d="M396 3.997H4v199.84c5 149.88 80 239.81 196 291.77 117-53.958 192-143.88 196-291.77z" fill="none" stroke="#000" stroke-width="8"/>
<g stroke-width="1.333">
<path d="M215.31 53.103c1.325-.103 3.021-.76 4.833-.573.022 6.026-5.284 10.507-8.79 11.733-5.04 2.002-11.293-.91-15.125-3.027 2.386-2.308 4.674-4.693 6.638-7.387.2 3.364 1.591 5.547 4.924 6.372 5.19 1.283 7.667-2.584 7.52-7.117z" fill="#fff"/>
<path d="M174.93 82.579c-7.885.707-11.765 3.23-19.6 9.915 0 0-3.979 3.458-10.587 4.896l-.01.001-.013.003c-2.658.51-4.806.258-6.829-.35s-3.93-1.536-6.325-2.416l-.054-.02-.049-.026c-1.184-.604-3.8-1.66-6.387-2.263-2.588-.601-5.133-.61-6.13.125-1.099.81-1.867 1.998-2.32 3.336l-.04.12a9.517 9.517 0 0 0-.443 2.444l.027-.004c.125-.12.21-.286.36-.384.826-.546 1.868-.805 3.116-.744 1.096.054 2.036.399 2.889.854.28.13.563.3.848.501.487.31.955.637 1.408.941l6.733 4.532c.603.348 1.214.68 1.831.992 4.985 2.034 9.45 2.856 13.999 1.782 6.424-1.52 11.983-5.054 16.229-11.25l.017-.026 4.73-5.99.004-.002c2.125-2.655 3.598-4.89 6.596-6.967z" fill="#f00000"/>
<path d="M216.12 291.04c-.38 2.675-.663 5.501-1.207 8.25a61.113 61.113 0 0 1-.696 4.334l-.007.032-.008.03c-1.16 4.23-3.83 6.88-6.218 9.12s-4.431 4.073-5.003 6.68c-.33 1.506-.597 3.909.217 6.267.802 2.323 3.819 5.327 6.73 6.324 1.493.512 3.205.024 4.712-.442.626-.195 1.162-.564 1.718-.955 2.424-2.701 2.664-6.075 1.639-9.465-1.35-5.211.661-9.376 1.005-14.56.44-5.106.04-11.226-2.882-15.614z" fill="#fff"/>
</g>
</svg>
