<?xml version="1.0" encoding="UTF-8" standalone="no"?>
<!-- Created with Inkscape (http://www.inkscape.org/) -->

<svg
   xmlns:dc="http://purl.org/dc/elements/1.1/"
   xmlns:cc="http://creativecommons.org/ns#"
   xmlns:rdf="http://www.w3.org/1999/02/22-rdf-syntax-ns#"
   xmlns:svg="http://www.w3.org/2000/svg"
   xmlns="http://www.w3.org/2000/svg"
   xmlns:sodipodi="http://sodipodi.sourceforge.net/DTD/sodipodi-0.dtd"
   xmlns:inkscape="http://www.inkscape.org/namespaces/inkscape"
   version="1.1"
   id="svg2"
   width="595"
   height="736"
   viewBox="0 0 595 736"
   sodipodi:docname="CHE Valbroye COA.svg"
   inkscape:version="0.92.3 (2405546, 2018-03-11)">
  <metadata
     id="metadata8">
    <rdf:RDF>
      <cc:Work
         rdf:about="">
        <dc:format>image/svg+xml</dc:format>
        <dc:type
           rdf:resource="http://purl.org/dc/dcmitype/StillImage" />
        <dc:title />
      </cc:Work>
    </rdf:RDF>
  </metadata>
  <defs
     id="defs6">
    <style
       id="style2">.cls-1,.cls-11,.cls-2,.cls-5,.cls-6,.cls-8{fill:none;}.cls-14,.cls-15,.cls-2,.cls-4,.cls-5,.cls-6,.cls-7{stroke:#1d1d1b;}.cls-11,.cls-12,.cls-14,.cls-15,.cls-2,.cls-4,.cls-5,.cls-6,.cls-7,.cls-8{stroke-miterlimit:3.86;}.cls-2{stroke-width:3.64px;}.cls-3{fill:#fe2002;}.cls-14,.cls-4{fill:#fff;}.cls-4,.cls-5,.cls-7{stroke-width:1.91px;}.cls-6{stroke-width:1.83px;}.cls-7{fill:#e63a13;}.cls-11,.cls-12,.cls-8{stroke:#fff;}.cls-8{stroke-width:1.94px;}.cls-9{clip-path:url(#clip-path);}.cls-10,.cls-12,.cls-16{fill:#1d1d1b;}.cls-10{fill-rule:evenodd;}.cls-11,.cls-12{stroke-width:2.67px;}.cls-13{clip-path:url(#clip-path-2);}.cls-14,.cls-15{stroke-width:2.31px;}.cls-15{fill:#0076b9;}</style>
    <clipPath
       id="clip-path">
      <polygon
         id="polygon4"
         points="2.58 120.44 135.71 115.3 248.34 119.86 274.84 119.86 284.17 119.64 284.17 146.12 282.6 172.6 279.29 192.83 273.5 212.73 267.38 215.15 256.35 202.74 227.17 170.47 171.65 153.07 118.14 153.29 82.99 162.32 37.68 176.26 14.58 218.06 6.39 190.33 2.42 156.44 1.6 120.47 2.58 120.44"
         class="cls-1" />
    </clipPath>
    <clipPath
       id="clip-path-2">
      <path
         id="path7"
         d="M285.14,1.82l-1.62,146.57s5.82,141.37-139.36,202.66C-1,289.76,3.19,149.19,3.19,149.19L1.57,1.82Z"
         class="cls-1" />
    </clipPath>
  </defs>
  <sodipodi:namedview
     pagecolor="#ffffff"
     bordercolor="#666666"
     borderopacity="1"
     objecttolerance="10"
     gridtolerance="10"
     guidetolerance="10"
     inkscape:pageopacity="0"
     inkscape:pageshadow="2"
     inkscape:window-width="1920"
     inkscape:window-height="1017"
     id="namedview4"
     showgrid="false"
     inkscape:zoom="0.84257146"
     inkscape:cx="-47.151029"
     inkscape:cy="250.56721"
     inkscape:window-x="-8"
     inkscape:window-y="-8"
     inkscape:window-maximized="1"
     inkscape:current-layer="g928" />
  <g
     id="g928"
     transform="matrix(2.0764929,0,0,2.0912424,2.9088113,-3.8060611)"
     style="stroke-width:0.47987995">
    <path
       style="fill:#ffffff;fill-opacity:1;stroke:#1d1d1b;stroke-width:1.74676299px;stroke-miterlimit:3.8599999"
       id="path72-3"
       d="M 282.08748,4.1462761 280.48141,149.53846 c 0,0 5.76993,140.23398 -138.16076,201.03146 C -1.5901947,289.77244 2.5637489,150.33204 2.5637489,150.33204 L 0.95768957,4.1462761 Z"
       class="cls-2"
       inkscape:connector-curvature="0" />
    <path
       id="path14"
       d="M 282.9726,4.1462761 281.36149,149.74693 c 0,0 5.78808,140.43504 -138.59575,201.31969 C -1.5982166,290.18197 2.5688056,150.54163 2.5688056,150.54163 L 0.95768957,4.1462761 Z"
       class="cls-2"
       inkscape:connector-curvature="0"
       style="fill:none;stroke:#1d1d1b;stroke-width:1.74676299px;stroke-miterlimit:3.8599999" />
    <polygon
       id="polygon16"
       points="48.96,1.32 95.99,1.32 95.99,154.62 48.79,154.62 "
       class="cls-3"
       style="fill:#f00000;fill-opacity:1;stroke-width:0.48280039"
       transform="matrix(0.99451601,0,0,0.99338638,-0.60370058,2.3383127)" />
    <polygon
       id="polygon18"
       points="143.19,1.32 190.65,1.32 190.65,154.62 143.46,154.62 "
       class="cls-3"
       style="fill:#f00000;fill-opacity:1;stroke-width:0.48280039"
       transform="matrix(0.99451601,0,0,0.99338638,-0.60370058,2.3383127)" />
    <polygon
       id="polygon20"
       points="282.64,154.89 237.85,154.89 237.59,1.32 284.25,1.32 283.71,154.16 "
       class="cls-3"
       style="fill:#f00000;fill-opacity:1;stroke-width:0.48280039"
       transform="matrix(0.99451601,0,0,0.99338638,-0.60370058,2.3383127)" />
    <path
       id="path22"
       d="m 3.0163377,155.93572 44.6338793,-0.26821 0.26852,123.65674 c 0,0 -20.536757,-25.41082 -32.18254,-56.88131 C 4.0904151,190.97246 3.0163377,155.93572 3.0163377,155.93572 Z"
       class="cls-3"
       inkscape:connector-curvature="0"
       style="fill:#f00000;fill-opacity:1;stroke-width:0.47987995" />
    <polygon
       id="polygon24"
       points="143.19,350.89 116.37,337.34 95.72,324.06 96.26,154.35 143.19,154.62 "
       class="cls-3"
       style="fill:#f00000;fill-opacity:1;stroke-width:0.48280039"
       transform="matrix(0.99451601,0,0,0.99338638,-0.60370058,2.3383127)" />
    <path
       id="path26"
       d="M 189.00078,325.59619 V 155.66751 l 46.41407,0.26821 0.79561,124.89847 c 0,0 -15.7233,18.27832 -21.87935,24.60618 -6.15606,6.32788 -25.34027,20.15582 -25.34027,20.15582 z"
       class="cls-3"
       inkscape:connector-curvature="0"
       style="fill:#f00000;fill-opacity:1;stroke-width:0.47987995" />
    <line
       id="line28"
       y2="281.47989"
       x2="48.137527"
       y1="4.1363425"
       x1="48.137527"
       class="cls-4"
       style="fill:#ffffff;stroke:#1d1d1b;stroke-width:1.39645076;stroke-miterlimit:3.8599999;stroke-dasharray:none" />
    <path
       id="path30"
       d="M 95.078687,4.1363422 V 325.11936 M 142.02979,4.1363422 V 156.01519 M 188.98089,4.1363422 V 156.01519 M 235.932,4.1363422 V 156.01519"
       class="cls-5"
       inkscape:connector-curvature="0"
       style="fill:none;stroke:#1d1d1b;stroke-width:1.39645076;stroke-miterlimit:3.8599999;stroke-dasharray:none" />
    <path
       id="path32"
       d="M 282.9726,4.1462761 281.36149,149.74693 c 0,0 5.78808,140.43504 -138.59575,201.31969 C -1.5982166,290.18197 2.5688056,150.54163 2.5688056,150.54163 L 0.95768957,4.1462761 Z"
       class="cls-2"
       inkscape:connector-curvature="0"
       style="fill:none;stroke:#1d1d1b;stroke-width:1.74676299px;stroke-miterlimit:3.8599999" />
    <line
       id="line34"
       y2="156.0152"
       x2="281.0134"
       y1="156.0152"
       x1="3.7025537"
       class="cls-6"
       style="fill:none;stroke:#1d1d1b;stroke-width:0.87818033px;stroke-miterlimit:3.8599999" />
    <path
       id="path36"
       d="m 48.127585,156.01519 z m 46.941156,0 z m 46.951109,0 v 195.11103 m 46.96104,-195.11103 v 170.42537"
       class="cls-5"
       inkscape:connector-curvature="0"
       style="fill:none;stroke:#1d1d1b;stroke-width:1.39645076;stroke-miterlimit:3.8599999;stroke-dasharray:none" />
    <line
       id="line38"
       y2="281.43024"
       x2="235.93199"
       y1="78.769463"
       x1="235.93199"
       class="cls-7"
       style="fill:#e63a13;stroke:#1d1d1b;stroke-width:1.39645076;stroke-miterlimit:3.8599999;stroke-dasharray:none" />
    <path
       id="path40"
       d="M 282.9726,4.1462761 281.36149,149.74693 c 0,0 5.78808,140.43504 -138.59575,201.31969 C -1.5982166,290.18197 2.5688056,150.54163 2.5688056,150.54163 L 0.95768957,4.1462761 Z m 0,0 -1.61111,145.6006539 c 0,0 5.78808,140.43504 -138.59575,201.31969 C -1.5982166,290.18197 2.5688056,150.54163 2.5688056,150.54163 L 0.95768957,4.1462761 Z m 0,0 -1.61111,145.6006539 c 0,0 5.78808,140.43504 -138.59575,201.31969 C -1.5982166,290.18197 2.5688056,150.54163 2.5688056,150.54163 L 0.95768957,4.1462761 Z"
       class="cls-2"
       inkscape:connector-curvature="0"
       style="fill:none;stroke:#1d1d1b;stroke-width:1.74676299px;stroke-miterlimit:3.8599999" />
    <path
       id="path42"
       d="m 141.89056,160.85298 v -14.3147 m -120.972934,47.35473 12.212657,8.40406 m 39.41267,-45.69578 4.594665,13.7882 m 184.303712,23.48366 -12.20272,8.40404 m -39.4226,-45.69577 -4.55489,13.82794"
       class="cls-8"
       inkscape:connector-curvature="0"
       style="fill:none;stroke:#ffffff;stroke-width:0.93096721px;stroke-miterlimit:3.8599999" />
    <g
       id="g50"
       clip-path="url(#clip-path)"
       class="cls-9"
       style="stroke-width:0.48280039"
       transform="matrix(0.99451601,0,0,0.99338638,-0.60370058,2.3383127)">
      <path
         id="path44"
         d="m -88.22,172.79 v 3.62 h 35.52 v -3.62 z m 35.53,0 v 3.62 h 35.53 v -3.62 z m 35.54,0 v 3.62 h 35.53 v -3.62 z m 35.53,0 v 3.62 h 35.53 v -3.62 z m 35.54,0 v 3.62 h 35.53 v -3.62 z m 35.53,0 v 3.62 H 125 v -3.62 h 35.38 v 3.62 h -35.54 v -3.62 z m 70.92,0 v 3.62 h 35.53 v -3.62 z m 35.54,0 v 3.62 h 35.52 v -3.62 z m 35.53,0 v 3.62 H 267 v -3.62 z m 35.54,0 v 3.62 h 35.52 v -3.62 z m 35.53,0 v 3.62 H 338 v -3.62 z m -390.73,48 v -1.56 h 35.52 v 1.56 z m 35.53,0 v -1.56 h 35.53 v 1.56 z m 35.54,0 v -1.56 h 35.53 v 1.56 z m 35.53,0 v -1.56 h 35.53 v 1.56 z m 35.54,0 v -1.56 h 35.53 v 1.56 z m 35.53,0 v -1.56 H 125 v 1.56 h 35.38 v -1.56 h -35.54 v 1.56 z m 70.92,0 v -1.56 h 35.53 v 1.56 z m 35.54,0 v -1.56 h 35.52 v 1.56 z m 35.53,0 v -1.56 H 267 v 1.56 z m 35.54,0 v -1.56 h 35.52 v 1.56 z m 35.53,0 v -1.56 H 338 v 1.56 z M 321,205.09 h 35.5 v 14.23 H 321 Z m -35.54,0 H 321 v 14.23 h -35.57 v -14.23 z m -35.53,0 h 35.52 v 14.23 H 249.9 v -14.23 z m -35.54,0 h 35.53 v 14.23 h -35.56 v -14.23 z m -35.53,0 h 35.52 v 14.23 h -35.55 v -14.23 z m -35.54,0 h 35.53 v 14.23 H 143.29 V 205.09 Z M 302.51,191 H 338 v 14.23 H 302.51 Z M 267,191 h 35.5 v 14.23 H 267 Z m -35.54,0 H 267 v 14.23 H 231.44 V 191 Z m -35.53,0 h 35.52 v 14.23 H 195.91 V 191 Z m -35.54,0 h 35.51 v 14.23 H 160.37 V 191 Z m -35.53,0 h 35.52 v 14.23 H 124.84 V 191 Z m -16.93,14.14 h 35.53 v 14.23 h -35.55 v -14.28 z m -35.54,0 h 35.51 v 14.23 H 72.37 v -14.28 z m -35.53,0 h 35.51 v 14.23 H 36.84 v -14.28 z m -35.54,0 h 35.51 v 14.23 H 1.3 v -14.28 z m -35.53,0 H 1.3 v 14.23 h -35.53 v -14.28 z m -35.54,0 h 35.53 v 14.23 H -69.77 V 205.09 Z M 89.45,191 H 125 v 14.23 H 89.45 Z m -35.53,0 h 35.53 v 14.23 H 53.92 Z m -35.54,0 h 35.53 v 14.23 H 18.38 Z m -35.53,0 h 35.53 v 14.23 h -35.53 z m -35.54,0 h 35.53 v 14.23 h -35.53 z m -35.53,0 h 35.52 v 14.23 h -35.52 z m 267,-14.62 h -35.49 v 14.23 h 35.53 v -14.28 z m 35.53,0 h -35.48 v 14.23 h 35.52 v -14.28 z m 35.54,0 h -35.49 v 14.23 h 35.53 v -14.28 z m 35.53,0 H 249.9 v 14.23 h 35.52 v -14.28 z m 35.54,0 h -35.49 v 14.23 H 321 v -14.28 z m 35.54,0 H 321 v 14.23 h 35.5 v -14.28 z m -390.74,0 h -35.49 v 14.23 h 35.53 v -14.28 z m 35.54,0 h -35.49 v 14.23 H 1.3 v -14.28 z m 35.53,0 H 1.3 v 14.23 h 35.53 v -14.28 z m 35.54,0 H 36.84 v 14.23 h 35.53 v -14.28 z m 35.53,0 H 72.37 v 14.23 h 35.53 v -14.28 z m 35.54,0 h -35.49 v 14.23 h 35.53 v -14.28 z"
         class="cls-10"
         inkscape:connector-curvature="0"
         style="fill:#1d1d1b;fill-rule:evenodd;stroke-width:0.48280039" />
      <path
         id="path46"
         d="m -52.7,172.79 v -10.61 h -35.52 v 10.61 z m 35.54,0 v -10.61 h -35.53 v 10.61 z m 35.54,0 v -10.61 h -35.53 v 10.61 z m 35.53,0 V 162.18 H 18.38 v 10.61 z m 35.54,0 V 162.18 H 53.92 v 10.61 z m 35.53,0 V 162.18 H 89.45 v 10.61 h 35.39 v -10.61 h 35.52 v 10.61 z m 70.92,0 v -10.61 h -35.53 v 10.61 z m 35.53,0 v -10.61 h -35.52 v 10.61 z m 35.54,0 v -10.61 h -35.53 v 10.61 z m 35.53,0 V 162.18 H 267 v 10.61 z m 35.54,0 v -10.61 h -35.53 v 10.61 z M 178.82,148 h -35.53 v 14.23 h 35.53 z m 35.53,0 h -35.52 v 14.23 h 35.52 z m 35.54,0 h -35.53 v 14.23 h 35.53 z m 35.53,0 H 249.9 v 14.23 h 35.52 z m 35.58,0 h -35.57 v 14.23 H 321 Z m 35.54,0 H 321 v 14.23 h 35.5 V 148 Z M 160.36,133.9 h -35.52 v 14.23 h 35.52 z m 35.54,0 h -35.53 v 14.23 h 35.53 z m 35.53,0 h -35.52 v 14.23 h 35.52 z m 35.54,0 h -35.53 v 14.23 H 267 V 133.9 Z m 35.53,0 H 267 v 14.23 h 35.5 z m 35.54,0 h -35.53 v 14.23 H 338 V 133.9 Z M 178.82,119.75 H 143.29 V 134 h 35.53 z m 35.53,0 H 178.83 V 134 h 35.52 z m 35.54,0 H 214.36 V 134 h 35.53 z m 35.53,0 H 249.9 V 134 h 35.52 z m 35.54,0 H 285.43 V 134 H 321 v -14.25 z m 35.54,0 H 321 V 134 h 35.5 z m -54,-14.47 H 338 v 14.24 h -35.49 v -14.24 z m -35.53,0 h 35.53 v 14.24 H 267 v -14.24 z m -35.54,0 H 267 v 14.24 h -35.56 v -14.24 z m -35.53,0 h 35.52 v 14.24 h -35.51 v -14.24 z m -35.54,0 h 35.54 v 14.24 h -35.53 v -14.24 z m -35.53,0 h 35.52 v 14.24 H 124.84 V 105.28 Z M 321,91.14 h 35.5 v 14.23 H 321 Z m -35.54,0 H 321 v 14.23 H 285.43 V 91.14 Z m -35.53,0 h 35.52 v 14.23 H 249.9 V 91.14 Z m -35.54,0 h 35.53 v 14.23 H 214.36 V 91.14 Z m -35.53,0 h 35.52 v 14.23 H 178.83 V 91.14 Z m -35.54,0 h 35.53 v 14.23 H 143.29 V 91.14 Z M 302.51,77 H 338 V 91.23 H 302.51 Z M 267,77 h 35.5 V 91.23 H 267 Z m -35.54,0 H 267 V 91.23 H 231.44 V 77 Z m -35.53,0 h 35.52 V 91.23 H 195.91 V 77 Z m -35.54,0 H 195.9 V 91.23 H 160.37 V 77 Z m -35.53,0 h 35.52 V 91.23 H 124.84 V 77 Z M 321,62.86 h 35.5 V 77.09 H 321 Z m -35.54,0 H 321 V 77.09 H 285.43 V 62.86 Z m -35.53,0 h 35.52 V 77.09 H 249.9 V 62.86 Z m -35.54,0 h 35.53 V 77.09 H 214.36 V 62.86 Z m -35.53,0 h 35.52 V 77.09 H 178.83 V 62.86 Z m -35.54,0 h 35.53 V 77.09 H 143.29 V 62.86 Z M 302.51,48.71 H 338 v 14.23 h -35.49 z m -35.53,0 H 302.5 V 62.94 H 267 V 48.71 Z m -35.54,0 H 267 v 14.23 h -35.56 z m -35.53,0 h 35.52 v 14.23 h -35.52 z m -35.54,0 h 35.53 v 14.23 h -35.53 z m -35.53,0 h 35.52 V 62.94 H 124.84 Z M -34.24,148 h -35.53 v 14.23 h 35.53 V 148 Z m 35.54,0 h -35.53 v 14.23 H 1.3 Z m 35.53,0 H 1.3 v 14.23 h 35.53 z m 35.54,0 H 36.84 v 14.23 h 35.53 z m 35.53,0 H 72.37 v 14.23 h 35.53 z m 35.54,0 h -35.53 v 14.23 h 35.53 z M -52.7,133.9 h -35.52 v 14.23 h 35.52 z m 35.54,0 h -35.53 v 14.23 h 35.53 z m 35.54,0 h -35.53 v 14.23 h 35.53 z m 35.53,0 H 18.38 v 14.23 h 35.53 z m 35.54,0 H 53.92 v 14.23 h 35.53 z m 35.53,0 H 89.45 v 14.23 H 125 V 133.9 Z M -34.24,119.75 H -69.77 V 134 h 35.53 z m 35.54,0 H -34.23 V 134 H 1.3 Z m 35.53,0 H 1.3 V 134 h 35.53 z m 35.54,0 H 36.84 V 134 h 35.53 z m 35.53,0 H 72.37 V 134 h 35.53 z m 35.54,0 H 107.91 V 134 h 35.53 z m -54,-14.47 H 125 v 14.24 H 89.45 v -14.24 z m -35.53,0 h 35.54 v 14.24 H 53.92 v -14.24 z m -35.54,0 h 35.54 v 14.24 H 18.38 v -14.24 z m -35.53,0 h 35.54 v 14.24 h -35.53 v -14.24 z m -35.54,0 h 35.53 v 14.24 h -35.52 v -14.24 z m -35.53,0 h 35.53 v 14.24 H -88.22 V 105.28 Z M 107.91,91.14 h 35.53 v 14.23 h -35.53 z m -35.54,0 h 35.53 v 14.23 H 72.37 Z m -35.53,0 h 35.53 v 14.23 H 36.84 Z m -35.54,0 h 35.53 v 14.23 H 1.3 Z m -35.53,0 H 1.3 v 14.23 h -35.53 z m -35.54,0 h 35.53 v 14.23 H -69.77 Z M 89.45,77 H 125 V 91.23 H 89.45 Z M 53.92,77 H 89.45 V 91.23 H 53.92 Z M 18.38,77 H 53.91 V 91.23 H 18.38 Z m -35.53,0 h 35.53 v 14.23 h -35.53 z m -35.54,0 h 35.53 v 14.23 h -35.53 z m -35.53,0 H -52.7 V 91.23 H -88.22 Z M 107.91,62.86 h 35.53 v 14.23 h -35.53 z m -35.54,0 H 107.9 V 77.09 H 72.37 Z m -35.53,0 H 72.37 V 77.09 H 36.84 Z m -35.54,0 H 36.83 V 77.09 H 1.3 Z m -35.53,0 H 1.3 v 14.23 h -35.53 z m -35.54,0 h 35.53 V 77.09 H -69.77 Z M 89.45,48.71 H 125 V 62.94 H 89.45 Z m -35.53,0 H 89.45 V 62.94 H 53.92 Z m -35.54,0 H 53.91 V 62.94 H 18.38 Z m -35.53,0 h 35.53 v 14.23 h -35.53 z m -35.54,0 h 35.53 v 14.23 h -35.53 z m -35.53,0 h 35.52 v 14.23 h -35.52 z"
         class="cls-10"
         inkscape:connector-curvature="0"
         style="fill:#1d1d1b;fill-rule:evenodd;stroke-width:0.48280039" />
      <path
         id="path48"
         d="m 267,219.23 h 35.5 v 14.23 H 267 Z m -35.54,0 H 267 v 14.23 h -35.56 v -14.23 z m -35.53,0 h 35.52 v 14.23 h -35.54 v -14.23 z m -35.54,0 h 35.51 v 14.23 h -35.53 v -14.23 z m -35.53,0 h 35.52 v 14.23 H 124.84 V 219.23 Z M 285.45,205.09 H 321 v 14.23 h -35.57 v -14.23 z m -35.53,0 h 35.52 v 14.23 H 249.9 v -14.23 z m -35.54,0 h 35.53 v 14.23 h -35.55 v -14.23 z m -35.53,0 h 35.52 v 14.23 h -35.54 v -14.23 z m -35.54,0 h 35.53 v 14.23 H 143.29 V 205.09 Z M 267,191 h 35.5 v 14.23 H 267 Z m -35.54,0 H 267 v 14.23 H 231.44 V 191 Z m -35.53,0 h 35.52 v 14.23 H 195.91 V 191 Z m -35.54,0 h 35.51 v 14.23 H 160.37 V 191 Z m -35.53,0 h 35.52 v 14.23 H 124.84 V 191 Z M 89.45,219.23 H 125 v 14.23 H 89.45 Z m -35.53,0 h 35.53 v 14.23 H 53.92 Z m -35.54,0 h 35.53 v 14.23 H 18.38 Z m -35.53,0 h 35.53 v 14.23 h -35.53 z m 125.06,-14.14 h 35.53 v 14.23 h -35.53 z m -35.54,0 h 35.53 v 14.23 H 72.37 Z m -35.53,0 h 35.53 v 14.23 H 36.84 Z m -35.54,0 h 35.53 v 14.23 H 1.3 Z m -35.53,0 H 1.3 v 14.23 H -34.23 Z M 89.45,191 H 125 v 14.23 H 89.45 Z m -35.53,0 h 35.53 v 14.23 H 53.92 Z m -35.54,0 h 35.53 v 14.23 H 18.38 Z m -35.53,0 h 35.53 v 14.23 h -35.53 z m 196,-14.62 h -35.56 v 14.23 h 35.53 v -14.28 z m 35.53,0 h -35.55 v 14.23 h 35.52 v -14.28 z m 35.54,0 h -35.56 v 14.23 h 35.53 v -14.28 z m 35.53,0 H 249.9 v 14.23 h 35.52 v -14.28 z m 35.54,0 h -35.56 v 14.23 H 321 v -14.28 z m -160.6,-14.15 h -35.55 v 14.23 h 35.52 v -14.28 z m 35.54,0 h -35.56 v 14.23 h 35.53 v -14.28 z m 35.53,0 h -35.55 v 14.23 h 35.52 v -14.28 z m 35.54,0 h -35.56 v 14.23 H 267 v -14.28 z m 35.53,0 H 267 v 14.23 h 35.5 V 162.18 Z M 178.82,148 h -35.53 v 14.23 h 35.53 z m 35.53,0 h -35.52 v 14.23 h 35.52 z m 35.54,0 h -35.53 v 14.23 h 35.53 z m 35.53,0 H 249.9 v 14.23 h 35.52 z m 35.58,0 h -35.57 v 14.23 H 321 Z M 160.36,133.9 h -35.52 v 14.23 h 35.52 z m 35.54,0 h -35.53 v 14.23 h 35.53 z m 35.53,0 h -35.52 v 14.23 h 35.52 z m 35.54,0 h -35.53 v 14.23 H 267 V 133.9 Z m 35.53,0 H 267 v 14.23 h 35.5 z M 178.82,119.75 H 143.29 V 134 h 35.53 z m 35.53,0 H 178.83 V 134 h 35.52 z m 35.54,0 H 214.36 V 134 h 35.53 z m 35.53,0 H 249.9 V 134 h 35.52 z m 35.54,0 H 285.43 V 134 H 321 v -14.25 z m -54,-14.47 h 35.54 v 14.24 H 267 v -14.24 z m -35.54,0 H 267 v 14.24 h -35.56 v -14.24 z m -35.53,0 h 35.52 v 14.24 h -35.5 v -14.24 z m -35.54,0 h 35.55 v 14.24 h -35.53 v -14.24 z m -35.53,0 h 35.52 v 14.24 h -35.5 V 105.28 Z M 1.3,176.33 h -35.53 v 14.23 H 1.3 Z m 35.53,0 H 1.3 v 14.23 h 35.53 z m 35.54,0 H 36.84 v 14.23 h 35.53 z m 35.53,0 H 72.37 v 14.23 h 35.53 z m 35.54,0 h -35.53 v 14.23 h 35.53 z M 18.38,162.18 h -35.53 v 14.23 h 35.53 z m 35.53,0 H 18.38 v 14.23 h 35.53 z m 35.54,0 H 53.92 v 14.23 h 35.53 z m 35.53,0 H 89.45 v 14.23 H 125 V 162.18 Z M 1.3,148 h -35.53 v 14.23 H 1.3 Z m 35.53,0 H 1.3 v 14.23 h 35.53 z m 35.54,0 H 36.84 v 14.23 h 35.53 z m 35.53,0 H 72.37 v 14.23 h 35.53 z m 35.54,0 h -35.53 v 14.23 h 35.53 z M 18.38,133.9 h -35.53 v 14.23 h 35.53 z m 35.53,0 H 18.38 v 14.23 h 35.53 z m 35.54,0 H 53.92 v 14.23 h 35.53 z m 35.53,0 H 89.45 v 14.23 H 125 V 133.9 Z M 1.3,119.75 H -34.23 V 134 H 1.3 Z m 35.53,0 H 1.3 V 134 h 35.53 z m 35.54,0 H 36.84 V 134 h 35.53 z m 35.53,0 H 72.37 V 134 h 35.53 z m 35.54,0 H 107.91 V 134 h 35.53 z m -54,-14.47 H 125 v 14.24 H 89.45 v -14.24 z m -35.53,0 h 35.54 v 14.24 H 53.92 v -14.24 z m -35.54,0 h 35.54 v 14.24 H 18.38 v -14.24 z m -35.53,0 h 35.54 v 14.24 h -35.53 v -14.24 z"
         class="cls-11"
         inkscape:connector-curvature="0"
         style="fill:none;stroke:#ffffff;stroke-width:1.77187741;stroke-miterlimit:3.8599999;stroke-dasharray:none" />
    </g>
    <polygon
       id="polygon52"
       points="283.87,119.99 0,119.32 1.07,110.75 284.23,111.53 "
       class="cls-12"
       style="fill:#1d1d1b;stroke:#ffffff;stroke-width:1.29494166px;stroke-miterlimit:3.8599999"
       transform="matrix(0.98552839,0,0,0.99338638,1.9508507,2.3383127)" />
    <path
       id="path54"
       d="m 262.21705,236.58877 -1.17353,-0.0497 a 49.576625,49.520313 0 0 0 -1.31276,-11.00673 C 248.30377,173.62794 187.13109,161.55829 141.51264,161.38942 95.864355,161.55829 34.671783,173.60806 23.264684,225.53237 A 49.576625,49.520313 0 0 0 21.951923,236.5391 L 11.429943,213.00577 C 20.688888,186.39295 50.017165,147.333 141.4828,146.99525 c 89.0987,0.32781 119.84913,38.35464 129.89375,64.89793 l -5.55935,16.78823 -4.7339,8.94047"
       class="cls-12"
       inkscape:connector-curvature="0"
       style="fill:#1d1d1b;stroke:#ffffff;stroke-width:1.28127944px;stroke-miterlimit:3.8599999" />
    <path
       id="path56"
       d="m 16.969398,200.4593 11.864576,7.51 m 26.96133,-44.50371 6.961611,13.41072 m 48.731285,-28.22211 1.98903,14.53324 m 151.972,37.27186 -11.85463,7.51 m -26.96133,-44.50371 -6.96162,13.41072 m -48.73128,-28.22211 -1.98903,14.53324"
       class="cls-11"
       inkscape:connector-curvature="0"
       style="fill:none;stroke:#ffffff;stroke-width:1.28127944px;stroke-miterlimit:3.8599999" />
    <g
       id="g70"
       clip-path="url(#clip-path-2)"
       class="cls-13"
       style="stroke-width:0.48280039"
       transform="matrix(0.99451601,0,0,0.99338638,-0.60370058,2.3383127)">
      <path
         id="path58"
         d="m 310.17,247.27 v 14.88 c -18.24,0 -24.93,29.9 -52.82,5.7 -3.69,-3.2 -6.73,-5.7 -13.51,-5.7 -13.7,0 -16.5,14.4 -33.1,14.46 -15,0 -18.5,-14.46 -33.13,-14.46 -18.67,0 -23.68,29.74 -52,5.94 -3.93,-3.3 -7.39,-5.94 -14.22,-5.94 -19.9,0 -23.56,30 -52.14,5.7 -3.69,-3.13 -7,-5.7 -14.1,-5.7 -18,0 -24.8,29.9 -52.69,5.7 -3.69,-3.2 -6.73,-5.7 -13.51,-5.7 v -14.88 c 20.45,0 25.54,25.06 45,8.69 4.69,-4 10.67,-8.69 21.24,-8.69 22.76,0 25.48,25.24 44.52,8.79 4.72,-4.08 10.74,-8.79 21.72,-8.79 22.29,0 25.43,25.54 45.34,8.54 4.6,-3.92 10.34,-8.54 20.89,-8.54 19.64,0 23.13,14.49 33.11,14.46 12.42,0 13.6,-14.46 33.13,-14.46 20.46,0 25.54,25.06 45,8.69 4.69,-4 10.8,-8.69 21.37,-8.69 z"
         class="cls-14"
         inkscape:connector-curvature="0"
         style="fill:#ffffff;stroke:#1d1d1b;stroke-width:1.59806931;stroke-miterlimit:3.8599999;stroke-dasharray:none" />
      <path
         id="path60"
         d="m 310.17,262.24 v 14.88 c -18.24,0 -24.93,29.9 -52.82,5.7 -3.69,-3.2 -6.73,-5.7 -13.51,-5.7 -13.7,0 -16.5,14.4 -33.1,14.45 -15,0.05 -18.5,-14.45 -33.13,-14.45 -18.67,0 -23.68,29.74 -52,5.94 -3.93,-3.3 -7.39,-5.94 -14.22,-5.94 -19.9,0 -23.56,30 -52.14,5.7 -3.69,-3.13 -7,-5.7 -14.1,-5.7 -18,0 -24.8,29.9 -52.69,5.7 -3.69,-3.2 -6.73,-5.7 -13.51,-5.7 v -14.88 c 20.45,0 25.54,25.06 45,8.69 4.69,-4 10.67,-8.69 21.24,-8.69 22.76,0 25.48,25.24 44.52,8.78 4.72,-4.07 10.74,-8.78 21.72,-8.78 22.29,0 25.43,25.54 45.34,8.54 4.6,-3.92 10.34,-8.54 20.89,-8.54 19.64,0 23.13,14.49 33.11,14.46 12.42,0 13.6,-14.46 33.13,-14.46 20.46,0 25.54,25.06 45,8.69 4.69,-4 10.8,-8.69 21.37,-8.69 z"
         class="cls-15"
         inkscape:connector-curvature="0"
         style="fill:#1c63b7;fill-opacity:1;stroke:#1d1d1b;stroke-width:1.59806931;stroke-miterlimit:3.8599999;stroke-dasharray:none" />
      <path
         id="path62"
         d="m 310.17,277.21 v 14.88 c -18.24,0 -24.93,29.9 -52.82,5.7 -3.69,-3.2 -6.73,-5.7 -13.51,-5.7 -13.7,0 -16.5,14.4 -33.1,14.45 -15,0 -18.5,-14.45 -33.13,-14.45 -18.67,0 -23.68,29.74 -52,5.94 -3.93,-3.3 -7.39,-5.94 -14.22,-5.94 -19.9,0 -23.56,30 -52.14,5.7 -3.69,-3.13 -7,-5.7 -14.1,-5.7 -18,0 -24.8,29.9 -52.69,5.7 -3.69,-3.2 -6.73,-5.7 -13.51,-5.7 v -14.88 c 20.45,0 25.54,25.06 45,8.69 4.69,-4 10.67,-8.69 21.24,-8.69 22.76,0 25.48,25.24 44.52,8.78 4.72,-4.07 10.74,-8.78 21.72,-8.78 22.29,0 25.43,25.54 45.34,8.54 4.6,-3.92 10.34,-8.54 20.89,-8.54 19.64,0 23.13,14.49 33.11,14.46 12.42,0 13.6,-14.46 33.13,-14.46 20.46,0 25.54,25.06 45,8.69 4.69,-4 10.8,-8.69 21.37,-8.69 z"
         class="cls-14"
         inkscape:connector-curvature="0"
         style="fill:#ffffff;stroke:#1d1d1b;stroke-width:1.59806931;stroke-miterlimit:3.8599999;stroke-dasharray:none" />
      <path
         id="path64"
         d="m 310.17,292.18 v 14.88 c -18.25,0 -24.93,29.9 -52.82,5.7 -3.69,-3.2 -6.73,-5.7 -13.51,-5.7 -13.7,0 -16.5,14.4 -33.1,14.45 -15,0.05 -18.5,-14.45 -33.13,-14.45 -18.67,0 -23.68,29.74 -52,5.94 -3.93,-3.3 -7.39,-5.94 -14.22,-5.94 -19.9,0 -23.56,30 -52.14,5.7 -3.69,-3.13 -7,-5.7 -14.1,-5.7 -18,0 -24.8,29.9 -52.69,5.7 -3.69,-3.2 -6.73,-5.7 -13.51,-5.7 v -14.88 c 20.45,0 25.54,25.06 45,8.69 4.69,-4 10.67,-8.69 21.24,-8.69 22.76,0 25.48,25.24 44.52,8.78 4.72,-4.07 10.74,-8.78 21.72,-8.78 22.29,0 25.43,25.53 45.34,8.54 4.6,-3.92 10.34,-8.54 20.89,-8.54 19.64,0 23.13,14.49 33.11,14.46 12.42,0 13.6,-14.46 33.13,-14.46 20.46,0 25.54,25.06 45,8.69 4.69,-4 10.8,-8.69 21.37,-8.69 z"
         class="cls-15"
         inkscape:connector-curvature="0"
         style="fill:#1c63b7;fill-opacity:1;stroke:#1d1d1b;stroke-width:1.59806931;stroke-miterlimit:3.8599999;stroke-dasharray:none" />
      <path
         id="path66"
         d="M 310.17,307.15 V 322 c -18.26,0 -24.93,29.9 -52.82,5.7 -3.69,-3.2 -6.73,-5.7 -13.51,-5.7 -13.7,0 -16.5,14.4 -33.1,14.45 -15,0 -18.5,-14.45 -33.13,-14.45 -18.67,0 -23.68,29.74 -52,5.94 -3.93,-3.3 -7.39,-5.94 -14.22,-5.94 -19.9,0 -23.56,30 -52.14,5.7 -3.69,-3.14 -7,-5.7 -14.1,-5.7 -18,0 -24.8,29.9 -52.69,5.7 -3.69,-3.2 -6.73,-5.7 -13.51,-5.7 v -14.85 c 20.45,0 25.54,25.06 45,8.69 4.69,-4 10.67,-8.69 21.24,-8.69 22.76,0 25.48,25.24 44.52,8.78 4.72,-4.07 10.74,-8.78 21.72,-8.78 22.29,0 25.43,25.53 45.34,8.54 4.6,-3.93 10.34,-8.54 20.89,-8.54 19.64,0 23.13,14.49 33.11,14.46 12.42,0 13.6,-14.46 33.13,-14.46 20.46,0 25.54,25.06 45,8.69 4.69,-4 10.8,-8.69 21.37,-8.69 z"
         class="cls-14"
         inkscape:connector-curvature="0"
         style="fill:#ffffff;stroke:#1d1d1b;stroke-width:1.59806931;stroke-miterlimit:3.8599999;stroke-dasharray:none" />
      <path
         id="path68"
         d="M 310.17,322.12 V 337 c -18.27,0 -24.93,29.9 -52.82,5.7 -3.69,-3.2 -6.73,-5.7 -13.51,-5.7 -13.7,0 -16.5,14.4 -33.1,14.45 -15,0.05 -18.5,-14.45 -33.13,-14.45 -18.67,0 -23.68,29.74 -52,5.94 -3.93,-3.3 -7.39,-5.94 -14.22,-5.94 -19.9,0 -23.56,30 -52.14,5.7 -3.69,-3.14 -7,-5.7 -14.1,-5.7 -18,0 -24.8,29.9 -52.69,5.7 -3.69,-3.2 -6.73,-5.7 -13.51,-5.7 v -14.88 c 20.45,0 25.54,25.06 45,8.68 4.69,-3.95 10.67,-8.68 21.24,-8.68 22.76,0 25.48,25.23 44.52,8.78 4.72,-4.07 10.74,-8.78 21.72,-8.78 22.29,0 25.43,25.53 45.34,8.54 4.6,-3.93 10.34,-8.54 20.89,-8.54 19.64,0 23.13,14.49 33.11,14.45 12.42,0 13.6,-14.45 33.13,-14.45 20.46,0 25.54,25.06 45,8.68 4.69,-3.95 10.8,-8.68 21.37,-8.68 z"
         class="cls-15"
         inkscape:connector-curvature="0"
         style="fill:#1c63b7;fill-opacity:1;stroke:#1d1d1b;stroke-width:1.59806931;stroke-miterlimit:3.8599999;stroke-dasharray:none" />
    </g>
    <path
       id="path72"
       d="M 282.9726,4.1462761 281.36149,149.74693 c 0,0 5.78808,140.43504 -138.59575,201.31969 C -1.5982166,290.18197 2.5688056,150.54163 2.5688056,150.54163 L 0.95768957,4.1462761 Z"
       class="cls-2"
       inkscape:connector-curvature="0"
       style="fill:none;stroke:#1d1d1b;stroke-width:4.62604284;stroke-miterlimit:3.8599999;stroke-dasharray:none" />
  </g>
</svg>
