<?xml version="1.0" encoding="UTF-8"?>
<svg width="600" height="741"  xmlns="http://www.w3.org/2000/svg">
 <path d="m4.359 4.588-.007 310.25c4.145 169.31 92.492 331.68 295.65 421.17 203.17-89.492 291.5-251.87 295.65-421.17V4.587z" fill="#f00000"/>
 <path d="M286.1 183.58c.544.556.544.556 0 0z" fill="#fff"/>
 <path d="m4.359 4.588-.007 310.25c4.145 169.31 92.492 331.68 295.65 421.17 203.17-89.492 291.5-251.87 295.65-421.17V4.587z" fill="none" stroke="#000" stroke-width="8.7"/>
 <path d="m290.64 79.398-.157 10.078-2.717.16s-1.39 21.631-.856 32.144l-16.804.033-.206-19.965-59.709.12.153 26.085 20.393.155.085 15.743-21.76.273s-.326 20.258-.224 29.934c7.3.12 14.616.153 21.916.238 0 5.163.035 15.522.035 15.522l-20.548.428s.051 18.052.086 26.633c20 .12 40 .17 59.985-.017-.052-6.787-.069-13.575-.103-20.361a899.156 899.156 0 0 1 16.632-.153c-.137 30.052.223 60.122-.17 90.156-10.188-6.513-19.095-14.257-28.72-21.608-44.513-34.702-89.113-69.267-133.64-103.97-13.88-11.094-29.846-22.035-47.128-26.821 6.051 13.453 16.462 23.231 27.147 33.111 53.437 45.078 107.01 90.413 161.35 134.41 3.11 2.752 7.984 5.37 9.71 9.233-4.7 5.025-10.77 8.94-16.053 13.384-5.658 4.735-11.384 9.299-17.708 13.112-.974-3.214-1.965-6.445-2.957-9.676-2.188.154-4.427.223-6.58.633-10.65 6.992-17.728 15.76-25.968 25.161 4.36.958 8.736 1.883 13.13 2.737-6.514 4.753-13.096 9.402-19.848 13.812.633 5.385 1.454 10.736 2.377 16.086-4.462 4.342-9.334 8.068-14.513 11.486 4.564.599 9.112 1.265 13.643 2.171-3.641 8.086-7.968 16.512-16.532 20.272-5.607 1.983-9.52-1.007-14.323-3.297-5.42 8.598-12 16.085-20.804 21.349-13.094 7.795-26.958 12.413-39.061 22.567-4.496 3.948-9.25 8.085-12.686 13.026-1.693 2.205.375 4.63 1.264 6.716 4.086 7.077 7.848 14.189 10.02 22.103 3.094 9.88 2.375 19.574 2.529 29.796 14.445-2.94 27.147-10.838 35.848-22.77 10.855-15.061 18.974-31.984 29.64-47.232 12.6-18.838 28.02-35.71 45.78-49.796 3.436-2.65 7.145-4.874 10.94-6.96-7.351 8.155-16.512 14.992-23.128 23.677-4.069 5.111-5.06 11.984-3.368 18.19 1.401 3.436 6.255 5.145 9.315 6.888 1.624-8.837 2.633-16.889 9.01-23.744 8.017-8.513 17.64-15.574 26.477-23.215a695.847 695.847 0 0 0-6.325-9.417c1.641-7.18 3.438-14.138 7.062-20.634 8.77-15.453 20.583-26.906 33.079-39.214.803 5.487 1.35 10.974 1.282 16.53-.24 22.445.05 44.872-.156 67.317-2.718.205-5.435.393-8.153.598-.068 7.282-.052 14.584-.017 21.866l10.838.205c-.565 5.043-.206 9.59-3.864 13.59-8.308.599-16.565-3.504-25.026-3.162-12.017.7-23.711 4.102-33.387 11.436-19.881 14.086-28.837 40.908-21.315 64.139 5.128 17.658 18.613 30.787 35.418 37.677-.137 9.727-.58 18.906 2.549 28.29 4.855 16.19 16.889 29.813 32.428 36.498 20.684 8.957 46.05 5.092 62.376-10.635 8.975-8.086 15.095-18.734 17.71-30.512 1.488-7.539.871-15.813.735-23.488 10.65-4.479 20.189-10.685 27.026-20.156 13.026-17.163 15.112-41.505 5.521-60.754-9.88-20.138-31.538-32.974-53.88-32.478-7.487.24-15.249 3.896-22.634 2.99-3.282-3.898-3.642-8.546-4.565-13.35 3.71-.068 7.421-.137 11.131-.222.068-7.334.085-14.667-.018-22.001-2.393-.086-4.803-.188-7.196-.29 0-27.284-.188-54.567.12-81.849 29.078 23.658 58.257 47.232 87.214 71.028.479 4.394.634 9.452 2.429 13.538 1.504 3.009 4.101 5.659 6.272 8.206 2.582-2.855 5.147-5.709 7.728-8.546 1.487 1.812 3.213 3.607 4.41 5.624-2.376 8.086-7.848 14.443-6.463 23.606 1.572 9.846 7.675 16.599 15.009 22.804 8.598 7.197 17.984 15.334 28.41 19.625 7.556 2.991 16.686 3.794 24.48 1.367 4.667-1.504 6.752-6.323 9.248-10.084 4.958-1.111 9.419-1.3 12.89-5.471 4.273-4.206 4.01-10.605 1.78-15.19-1.976-4.063-7.695-8.161-11.564-7.068 0 0 .672-5.597-.21-6.31-.884-.714-3.235-2.795-4.065-3.628a24.589 24.589 0 0 1-2.37-2.747c-3.47-4.752-6.77-6.7-12.256-8.684-3.966-6.137-7.537-10.1-14.221-13.314-1.898-2.547-3.761-5.113-5.642-7.66 4.496-5.778 9.024-10.307 7.913-18.307-.41-10.82-15.435-15.797-21.743-6.668-1.983 5.248-.839 11.932-1.728 17.556-2.154-1.453-4.46-2.94-6.358-4.718.188-3.59 3.163-7.163 4.735-10.377-4.53-1.76-8.803-3.555-13.795-3.333-4.53-.376-8.993 1.077-12.583-2.17-22.889-18.77-45.965-37.06-68.992-55.76-8.393-6.958-17.129-13.164-24.838-20.925 48.104-38.292 96.105-76.72 144.21-115.01 17.522-14.29 35.692-27.865 52.821-42.617a2526.055 2526.055 0 0 1-5.078-7.111c10-8.171 20.035-16.29 30.121-24.342a548.173 548.173 0 0 0-11.266-14.497c-68.583 54.89-137.14 109.78-205.7 164.71-3.504 2.769-7.129 5.35-10.788 7.898-.376-63.677-.27-192.72-.27-192.72l-3.403.005-.143-9.607zm144.48 367.48c5.624 2.906 10.033 6.684 14.444 11.163 6.82 5.898 13.59 11.899 20.634 17.524l-.205 5.572c-12.53-4.274-23.061-12.307-31.847-22.051-3.317-3.402-2.461-7.763-3.025-12.207zm-98.44 28.238c16.694-.236 32.798 10.947 37.431 27.337 6.445 19.231-5.488 41.146-24.565 47.129-8.205-11.795-17.062-19.436-30.362-25.061.205-6.41.617-13.129-.135-19.504-.94-7.47-3.864-13.966-6.821-20.786 6.051-3.932 12.035-7.453 19.266-8.667a36.134 36.134 0 0 1 5.186-.448zm-75.462.018a36.371 36.371 0 0 1 4.445.19c7.555.923 14 4.598 20.513 8.256-2.787 8.41-5.915 16.103-6.924 25.026-.616 5.419.206 10.412.924 15.729-6.564 3.248-12.854 6.238-18.512 11.008-5.026 4.188-8.53 9.18-12.428 14.344-6.479-2.547-12.43-5.624-16.822-11.213-9.932-11.282-11.846-28.105-5.504-41.575 6.305-12.952 20.022-21.507 34.309-21.763zm38.328 83.782c5.419 2.29 10.068 6.12 15.556 8.376 6.889 3.128 14.07 3.864 21.522 4.274 5.71 20.206-9.54 42.343-29.898 45.677-7.949.77-16.53.888-23.744-2.992-10.291-5.231-18.771-15.247-21.079-26.666-.94-4.872-.631-10.104-.649-15.044 8.736-1.556 17.486-2.291 25.401-6.616 4.325-2.188 8.344-5.368 12.891-7.009z"/>
 <g fill="#fffefa">
  <path d="m293.686 82.667 11.68-.06-.042 6.534-11.517-.068zM291.31 93.812c5.35-.034 10.683-.034 16.034.017-.086 105.539.051 211.077-.052 316.598-5.333.069-10.683.069-16.017.035 0-105.556-.068-211.111.035-316.65zM214.968 106.257c16.991-.017 33.966-.034 50.94.017 0 6.923-.017 13.829-.017 20.752 7.008.034 14.017.051 21.025.65-.068 21.299 0 42.615-.034 63.914-7.025.017-14.051 0-21.094.068.12 6.804.103 13.607.069 20.428-17.009-.052-34.035.017-51.043-.035.102-5.726.12-11.435.137-17.162 6.957.017 13.931.017 20.889.051-.086-8.495-.12-16.991-.018-25.504-7.247 0-14.495.034-21.726-.051.051-6.82 0-13.641.068-20.479 7.214-.034 14.428-.034 21.641-.034-.051-8.461-.051-16.94.017-25.419-6.974-.017-13.948-.017-20.923-.034.017-5.726.017-11.436.069-17.162zM528.557 115.83c1.76 2.256 3.556 4.495 5.35 6.734-10.12 7.898-19.965 16.137-30.034 24.103 2 2.29 4.018 4.581 6.052 6.855-2.103 1.965-4.205 3.897-6.308 5.829a348.211 348.211 0 0 0-6.547-7.607c-14.855 12.342-30.154 24.137-45.162 36.29a1229.29 1229.29 0 0 0 5.88 7.35c-2.034 1.744-4.068 3.488-6.085 5.214a386.316 386.316 0 0 1-6.308-7.692C419.908 214 393.617 234.12 368.01 255.06c2.052 2.41 4.069 4.82 6.069 7.265-2.103 1.538-4.188 3.23-6.445 4.53-2.803.478-4.837-4.786-6.65-6.308-16.546 12.616-32.478 26.051-48.974 38.735.035-3.47.086-6.923.137-10.393 72.24-57.538 144.12-115.607 216.41-173.06zM84.028 139.864c17.008 7.709 32.7 21.435 47.487 32.735 51.812 40.239 103.419 80.803 155.333 120.888 0 2.581-.017 5.18-.051 7.761-23.522-18.684-46.872-37.846-71.522-55.026 22.291 20.171 46.274 38.564 68.94 58.342-1.59 1.18-3.196 2.376-4.786 3.556-22-18.94-44.547-37.282-66.786-55.966-32.923-27.453-65.778-54.974-98.752-82.359-10.855-9.367-21.556-18.051-29.863-29.931z"/>
  <path d="M497.002 157.693c1.23 1.179 2.444 2.376 3.658 3.59-12.992 10.632-26.36 20.82-39.197 31.64a300.799 300.799 0 0 1-4.188-3.829c13.35-10.325 26.36-21.094 39.727-31.401zM445.138 199.094a141.29 141.29 0 0 1 3.556 3.607c-24.017 19.009-48.103 37.983-71.863 57.3-1.043-1.47-2.069-2.924-3.111-4.394 23.948-18.615 47.418-37.949 71.418-56.513zM360.284 265.812l3.59 4.308c-10.513 8.273-20.787 16.837-31.3 25.077-7.042 5.555-13.76 11.692-21.213 16.512.906-3.247.12-6.837 3.18-8.837 15.196-12.41 30.649-24.53 45.743-37.06zM286.694 307.966c.257 6.957.393 13.983.137 20.957.12 2.718-1.983 3.983-3.675 5.778-10.872 9.555-20.804 20.342-29.248 32.102-5.898 8.171-9.692 16.684-11.949 26.53-14.752 9.146-28.496 19.607-40.513 32.171-17.812 16.957-31.265 37.76-43.64 58.838-5.231 8.718-10.36 18.12-17.043 25.812-4.582 5.316-10.034 9.094-15.744 13.042-1.829-19.162-6.718-37.675-17.743-53.692 10.12-10.564 22.683-16.102 35.538-22.496 10.872-5.384 21.829-13.247 28.444-23.59 5.71 1.761 10.855 3.522 16.564.497 8.855-5.129 15.18-14.684 17.146-24.667 2-9.077.718-17.607-.735-26.633 10.564-7.743 21.624-14.735 32.034-22.7-.103 2.085.667 5.18-1.128 6.683-4.257 4.65-10.188 6.89-14.684 10.975-4.65 5.367-3.59 15.71 2.889 19.213 5.265 3.436 13.88.582 15.624-5.572 1.333-3.35-.41-7.282-1.214-10.633 5.573-4.854 10.325-9.88 11.607-17.453.752-4.29-1.265-8.65-2.547-12.7 13.128-10.992 26.359-21.983 39.88-32.462zM313.258 315.3c33.18 26.136 65.453 53.486 98.445 79.88-3.659 3.606-6.82 7.401-9.795 11.59a22559.079 22559.079 0 0 1-77.402-62.787c-4.034-3.333-8.581-6.393-12.085-10.308a68.63 68.63 0 0 1-.513-7.025c24.769 19.846 49.367 40 74.17 59.846 2.325 1.897 4.924 2.53 7.813 3.248-3.983-5.659-9.385-9.18-14.616-13.522-18.82-15.384-37.555-30.906-56.444-46.205-3.59-2.974-7.915-5.76-10.701-9.538a70.123 70.123 0 0 1 1.128-5.18zM237.822 334.462c-2.547.495-5.213-.171-6.974-2.137 2.564-3.487 6.598-2.051 6.974 2.137z"/>
  <path d="M229.634 336.53c7.607 1.214 14.53 4.632 15.915 12.906.051 9.197-6.564 15.692-13.983 20.068 1.419 2.428 2.872 4.804 3.949 7.42-.513 4.683-5.693 10.05-10.222 6.153-3.966-2.427-4.086-6.393-3.146-10.53 4.137-6.803 16.906-9.675 18.787-17.795.12-5.384-4.633-13.453-11.112-11.76-4.752.29-8.136 6.324-10.769 9.743-2.034-.444-4.085-.889-6.137-1.333 4.906-6.393 8.394-12.53 16.718-14.872zM456.113 394.7c2.356 1.964 3.11 5.574 1.76 8.702-3.008 6.547-8.837 11.897-12.957 17.812-5.265 7.436-11.846 15.538-14.342 24.41-2.41 9.111 3.676 17.214 9.983 23.06 9.778 8.461 19.88 17.401 33.71 16.632.307-2.359.7-4.684 1.196-6.991.872-2.787 5.402-1.317 7.641-1.59 1.231 4.444 3.641 8.342 1.163 12.872-2.701 5.47-10 5.145-15.146 4.632-13.743-1.675-24.427-10.974-34.735-19.419-5.453-4.786-12.735-10.376-14.769-17.606-2.29-7.47.325-14.582 4.804-20.599 7.846-10.17 15.965-20.153 23.743-30.393-1.573-3.419-4.479-8.444-.564-11.401 3.009-2.377 5.936-2.267 8.513-.12zM431.754 396.735c-7.83 10.103-15.71 20.29-24.24 29.812-1.23-4.12-2.923-7.71-2.341-12.103 2.7-12.153 13.675-21.572 26.58-17.709zM241.207 399.23c1.897 2.36 3.675 4.77 5.487 7.18-7.726 6.804-16.137 13.009-23.419 20.274-6.068 6.256-8.341 13.914-10.7 22.051-3.18-5.385-3.778-8.906-.633-14.496 6.496-10.17 17.487-17.846 26.427-25.846l-3.23-5.743c2.017-1.163 4-2.342 6.068-3.42zM428.694 408.24c2.393 1.828 4.786 3.657 7.197 5.47-3.453 4.478-6.958 8.905-10.633 13.213-2.308-1.966-4.632-3.914-6.957-5.863 3.419-4.308 6.82-8.633 10.393-12.82zM291.446 414.752c1.898.12 3.795.222 5.693.325-.017 2.427-.017 4.838-.035 7.265-1.965.051-3.931.085-5.897.12.085-2.565.154-5.129.24-7.71zM301.412 414.94c1.983-.017 3.949-.017 5.932-.034-.034 2.479-.052 4.957-.086 7.419-1.88.051-3.778.102-5.658.137-.068-2.513-.137-5.009-.188-7.522z"/>
  <path d="M451.77 421.453c2.052 1.744 4.103 3.487 6.138 5.23-2.035 3.334-4.41 6.377-6.855 9.402 3.18-1.572 6.325-3.572 9.71-4.683 4.751 1.316 7.606 5.692 10.598 9.265a147.416 147.416 0 0 1-3.864 7.709c2.513-1.949 5.094-3.829 7.676-5.692 3.401 2.154 6.495 4.632 9.521 7.299-.94 3.18-1.949 6.342-3.009 9.487a196.24 196.24 0 0 1 9.368-4.513 45.156 45.156 0 0 1-.513 4.82c-5.536 2.12-9.255 5.6-10.017 11.47-6.82.924-10.872-2.512-16.017-6.221l7.026-4.718c-3.334-.171-6.89.085-10.137-.701-4.889-1.35-8.598-4.975-12.376-8.137 2.547-2.222 5.077-4.444 7.624-6.65-3.778.582-7.812 1.641-11.641 1.368-2.992-.838-5.42-2.376-8.103-3.897 3.966-7.693 8.36-14.992 14.872-20.838zM283.72 427.009c10.461-.565 20.991.034 31.47-.206l.102 13.385c-10.598.085-21.196.051-31.794.068 0-4.393-.154-8.854.222-13.247zM295.292 444.564c2.718.034 5.42.051 8.137.086.992 6.923 2.65 11.863 6.393 17.726a262.408 262.408 0 0 0-10.359 7.026c-3.487-2.496-6.974-4.94-10.564-7.231 2.342-3.795 4.462-7.607 5.47-12 .325-1.863.633-3.727.923-5.607zM296.164 472.598a364.444 364.444 0 0 0-6.684 7.932c-5.606-4.017-11.435-7.47-18.273-8.923-16.513-4.052-34.65 2.889-44.598 16.598-10 13.59-10.752 33.128-1.932 47.487 5.145 9.043 13.316 14.581 22.633 18.701a689.12 689.12 0 0 0-4.137 9.71c-6.205-2.924-12.188-6.018-17.3-10.684-11.777-10.342-18.495-25.778-17.811-41.47.307-23.35 17.538-44.667 40.136-50.257 16.872-4.513 34.513.069 47.966 10.906zM330.557 460.444c23.077-3.299 46.342 10.274 55.795 31.385 6.479 14.581 6 32.718-1.795 46.735-6.53 12.564-18.239 22.085-31.76 26.205-6.958 2.29-14.94 2.034-22.188 1.624-10.718-.838-19.282-5.812-27.915-11.76 2.205-2.736 4.462-5.437 6.735-8.155 10.29 8.069 23.658 12.12 36.598 9.163 16.462-3.06 30.445-16.974 33.42-33.453 1.384-10.137.956-20.188-4.24-29.248-8.633-16.205-27.863-25.385-45.897-21.624-16.274 2.838-29.693 15.778-33.693 31.71-2.222 8.683-1.265 17.435 1.436 25.897-2.102 3.47-4.29 6.855-6.786 10.068-5.35-11.162-8.017-23.248-5.385-35.555 4.12-22.205 23.265-40.222 45.675-42.992zM494.677 464.65c3.88.358 8.085 3.931 8.085 8.017.325 4.393-3.572 8.718-8.051 8.58-2.872.308-6.594-1.234-8.154-3.794-1.593-2.615-1.32-6.63.376-9.18 1.579-2.372 5.009-3.743 7.744-3.623zM104.985 472.479c10.154 15.76 14.29 33.47 16.17 51.914-1.64.65-3.281 1.3-4.905 1.949-.65-18.29-5.316-34.975-15.47-50.274a211.419 211.419 0 0 1 4.205-3.59z"/>
  <path d="m308.51 487.8c5.983 11.71 8.154 24.957 5.009 37.846-5.488 22.991-26.496 41.299-50.547 41.128 1.726-3.658 3.658-7.145 5.76-10.581 4.445-1.3 8.701-2.427 12.838-4.53 14.479-7.402 23.76-23.47 22.77-39.744 0-4.906-1.71-9.572-1.967-14.393 1.453-3.487 3.95-6.666 6.137-9.726z"/>
  <path d="m281.26 529.13a463.24 463.24 0 0 0 3.864 9.539c-10.257 4.461-19.009 11.47-24.137 21.572-8.581 16.923-4.77 38.513 9.436 51.162 15.025 14.206 39.743 14.906 55.794 2.018 12.992-10.069 18.018-26.069 15.659-42.069 3.504-0.376 7.008-0.769 10.512-1.145 2.291 18.273-3.145 36.564-17.145 48.94-17.402 16.65-45.692 18.598-65.47 5.009-19.692-12.872-28.872-38.547-21.128-60.923 5.145-16 17.214-27.778 32.615-34.103zm36.65 0.325c11.248 4.12 20.718 11.983 26.991 22.188-4 0.188-8 0.325-12 0.41-5.538-6.034-11.931-10.017-19.265-13.487 1.368-3.06 2.667-6.171 4.274-9.111z"/>
 </g>
</svg>
