<?xml version="1.0" encoding="UTF-8"?>
<!-- Created with Inkscape (http://www.inkscape.org/) -->
<svg id="b" width="215.99" height="253" version="1.0" xmlns="http://www.w3.org/2000/svg" xmlns:xlink="http://www.w3.org/1999/xlink">
 <path d="m1 1 3.8907 163.44c2.7791 116.74 203.43 116.74 206.21 0l3.8907-163.44z"/>
 <path d="m0.99623 0.99938 0.875 37.25 170.16 196.09c13.448-8.6238 24.496-20.403 31.375-35.344l-169.97-195.88-1.8438-2.125z" fill="#ce3121"/>
 <path d="m0.99623 1.5306 0.71875 29.156 14.031-12.188zm14.75 16.969 15.375 17.719 17.688-15.375-15.375-17.719zm15.375 17.719-17.688 15.344 15.375 17.719 17.688-15.344zm15.375 17.719 15.375 17.719 17.688-15.375-15.375-17.719zm15.375 17.719-17.688 15.344 15.375 17.719 17.688-15.344zm15.375 17.719 15.375 17.719 17.687-15.375-15.375-17.719zm15.375 17.719-17.688 15.344 15.375 17.719 17.687-15.344zm15.375 17.719 15.375 17.719 17.688-15.375-15.375-17.719zm15.375 17.719-17.688 15.344 15.375 17.719 17.688-15.344zm15.375 17.719 15.375 17.719 17.688-15.375-15.375-17.719zm15.375 17.719-17.688 15.344 15.375 17.719 17.688-15.344zm15.375 17.719 15.375 17.719 17.688-15.344-15.375-17.75zm15.375 17.719-17.688 15.344 4.8438 5.5938c6.6336-4.2538 12.685-9.2717 17.938-15.062z" fill="#fff" stroke="#000" stroke-width="1px"/>
 <path d="m108 0.99938v123.81h104.03l2.9688-123.81z" fill="#fbe334" stroke="#000" stroke-width="1px"/>
 <path d="m146.34 15.643c-1.2133 0.0546-2.4474 0.4583-3.6346 1.3517-2.4665 1.8562-2.3951 5.0111-0.81102 6.8486 1.3179 1.5288 2.7488 1.9758 3.4844 0.90114 0.52689-0.76969-1.2458-1.5915-1.2015-2.5232 0.13137-2.7619 3.8818-3.3143 5.2566 0 2.0889 5.0357-4.0073 15.563-0.90113 27.214 0.97973 3.6749 3.7456 7.1928 8.9513 7.9v5.7973h-5.8274c-0.71036-5.1991-4.1974-7.9722-7.8699-8.9513-11.651-3.1062-22.179 2.9901-27.214 0.90113-3.3143-1.3748-2.7619-5.0952 0-5.2266 0.93169-0.0443 1.7535 1.6984 2.5232 1.1715 1.0747-0.73566 0.62764-2.1365-0.90113-3.4544-1.8376-1.5841-4.9924-1.6855-6.8487 0.78099-2.8589 3.7989-0.76122 8.1658 2.0126 10.273 6.2674 4.7612 21.717-1.955 28.536 0.72091 2.1193 0.83166 4.4456 3.9148 4.4456 5.7372 0 1.8224-2.3263 4.9056-4.4456 5.7372-6.8191 2.6759-22.269-4.0403-28.536 0.72091-2.7738 2.1072-4.8715 6.4741-2.0126 10.273 1.8562 2.4665 5.0111 2.3651 6.8487 0.78099 1.5288-1.3179 1.9758-2.7187 0.90113-3.4544-0.76968-0.52689-1.5915 1.2158-2.5232 1.1715-2.7619-0.13137-3.3143-3.8518 0-5.2266 5.0357-2.0889 15.563 4.0073 27.214 0.90114 3.6725-0.9791 7.1596-3.7522 7.8699-8.9513h5.8274v5.7973c-5.2056 0.70714-7.9716 4.225-8.9513 7.9-3.1062 11.651 2.9901 22.179 0.90113 27.214-1.3748 3.3143-5.1253 2.7619-5.2566 0-0.0443-0.93168 1.7284-1.7535 1.2015-2.5232-0.73566-1.0747-2.1665-0.62762-3.4844 0.90114-1.5841 1.8376-1.6555 4.9624 0.81102 6.8186 3.7989 2.8589 8.1658 0.76122 10.273-2.0126 4.7612-6.2674-1.955-21.687 0.72091-28.506 0.83167-2.1193 3.9148-4.4756 5.7372-4.4756 1.8224 0 4.9056 2.3563 5.7372 4.4756 2.6759 6.8191-4.0703 22.239 0.69087 28.506 2.1072 2.7738 6.5041 4.8715 10.303 2.0126 2.4665-1.8562 2.3651-4.981 0.78099-6.8186-1.3179-1.5288-2.7187-1.9758-3.4544-0.90114-0.52689 0.76969 1.2158 1.5915 1.1715 2.5232-0.13137 2.7619-3.8818 3.3143-5.2566 0-2.0889-5.0357 4.0073-15.563 0.90114-27.214-0.97919-3.6728-3.7214-7.19-8.9213-7.9v-5.7973h5.7973c0.71037 5.199 4.2274 7.9722 7.9 8.9513 11.651 3.1062 22.149-2.9901 27.184-0.90114 3.3143 1.3748 2.7619 5.0952 0 5.2266-0.93169 0.0443-1.7535-1.6984-2.5232-1.1715-1.0747 0.73566-0.62762 2.1365 0.90114 3.4544 1.8376 1.5841 4.9924 1.6855 6.8486-0.78099 2.8589-3.7989 0.76124-8.1658-2.0125-10.273-6.2674-4.7612-21.717 1.955-28.536-0.72091-2.1193-0.83166-4.4456-3.9148-4.4456-5.7372 0-1.8224 2.3263-4.9056 4.4456-5.7372 6.8191-2.6759 22.269 4.0403 28.536-0.72091 2.7738-2.1072 4.8715-6.4741 2.0125-10.273-1.8562-2.4665-5.0111-2.3651-6.8486-0.78099-1.5288 1.3179-1.9758 2.7187-0.90114 3.4544 0.76969 0.52689 1.5915-1.2158 2.5232-1.1715 2.7619 0.13137 3.3143 3.8518 0 5.2266-5.0357 2.0889-15.533-4.0073-27.184-0.90113-3.6725 0.97909-7.1896 3.7522-7.9 8.9513h-5.7973v-5.7973c5.1999-0.70995 7.9421-4.2271 8.9213-7.9 3.1062-11.651-2.9901-22.179-0.90114-27.214 1.3748-3.3143 5.1253-2.7619 5.2566 0 0.0443 0.93169-1.6984 1.7535-1.1715 2.5232 0.73567 1.0747 2.1365 0.62762 3.4544-0.90114 1.5841-1.8376 1.6855-4.9924-0.78099-6.8486-3.7989-2.8589-8.1958-0.73119-10.303 2.0426-4.7612 6.2674 1.985 21.687-0.69087 28.506-0.83166 2.1194-3.9148 4.4757-5.7372 4.4757s-4.9056-2.3563-5.7372-4.4757c-2.6759-6.8191 4.0403-22.239-0.72091-28.506-1.4487-1.907-3.9692-3.5143-6.6384-3.3943z"/>
 <path d="m3.965 124.81 0.9375 39.625c1.3895 58.372 52.236 87.562 103.09 87.562v-127.19z" fill="#2163bd" stroke="#000" stroke-width="1px"/>
 <rect x="28.871" y="182.79" width="73.489" height="30.718" fill="#fff" stroke="#000" stroke-width="1px"/>
 <rect x="28.871" y="164.29" width="73.489" height="18.628" fill="#ce3121" stroke="#000" stroke-width="1px"/>
 <path d="m34.218 197.63 9.8013-9.1479v25.042h-9.8013z" fill="none" stroke="#000" stroke-width="1px"/>
 <rect x="43.337" y="154.03" width="9.6146" height="24.278" fill="#fff" stroke="#000" stroke-width="1px"/>
 <rect x="43.337" y="144.18" width="9.6146" height="9.9912" fill="#ce3121" stroke="#000" stroke-width="1px"/>
 <path d="m48.144 128.68-4.8073 25.442h9.6146z" fill="#ce3121" stroke="#000" stroke-width="1px"/>
 <rect x="55.164" y="192.58" width="47.195" height="4.1154" fill="#ce3121" stroke="#000" stroke-width="1px"/>
 <path d="m40.355 213.51h15.577l2e-6 -30.887-7.7886-18.309-7.7886 18.309z" fill="#fff" stroke="#000" stroke-width=".99921"/>
 <path id="a" d="m62.968 200.9c0.66992 0 1.2093 0.53933 1.2093 1.2092v5.885h-2.4185v-5.885c0-0.66986 0.53932-1.2092 1.2092-1.2092z"/>
 <use x="8.0445269" width="248.03149" height="248.03149" fill="#000000" xlink:href="#a"/>
 <use x="16.089052" width="248.03149" height="248.03149" fill="#000000" xlink:href="#a"/>
 <use x="24.133576" width="248.03149" height="248.03149" fill="#000000" xlink:href="#a"/>
 <use x="32.178099" width="248.03149" height="248.03149" fill="#000000" xlink:href="#a"/>
 <use y="-15.511254" width="248.03149" height="248.03149" xlink:href="#a"/>
 <use x="8.0445257" y="-15.511254" width="248.03149" height="248.03149" xlink:href="#a"/>
 <use x="16.08905" y="-15.511254" width="248.03149" height="248.03149" xlink:href="#a"/>
 <use x="24.133573" y="-15.511254" width="248.03149" height="248.03149" xlink:href="#a"/>
 <use x="32.178099" y="-15.511254" width="248.03149" height="248.03149" xlink:href="#a"/>
 <path d="m48.144 200.78c1.0604 0 1.9142 0.85366 1.9142 1.9141v10.809h-3.8283v-10.809c0-1.0604 0.85371-1.9141 1.9142-1.9141z"/>
 <path d="m48.144 185.73c0.63992 0 1.1551 0.51518 1.1551 1.1552v5.9404h-2.3102v-5.9404c0-0.64001 0.51517-1.1552 1.1551-1.1552z"/>
 <rect x="47.319" y="154.97" width="1.6501" height="4.2903" ry="0"/>
 <path d="m1 1 3.8907 163.44c2.7791 116.74 203.43 116.74 206.21 0l3.8907-163.44z" fill="none" stroke="#000" stroke-width="2"/>
</svg>
