<svg width="500" height="600" version="1.0" xmlns="http://www.w3.org/2000/svg"><path d="M4 4v280c20 260 236 310 246 312 10-2 226-52 246-312V4z" fill="#fcdb00" stroke="#000" stroke-width="8"/><g stroke-dashoffset="4.58"><g stroke="#fcdb00"><path transform="matrix(.997 0 0 1 549.2 148.117)" d="M-509-109c-.208 31 16.4 60.9 57 78.6-20.9 5.7-47.9-10.7-66.3-40-4.87 35.6 23.6 60.5 59.5 78.7C-474.3 12-505-.96-519.9-17c-2.65 40.2 33.2 56.7 67.7 61.6-15.9 11.7-53.3 6.59-70.5-7.9 3.78 40.9 38 44 77.7 37.9-10.8 16.1-44.3 27.1-74.5 20.1 15.4 32.4 59.8 19.5 83.3 13.6-9.06 23.8-40.2 35-69.6 41.7 22.6 26.8 71 13 98.3-28.9-1.53 19.5-16.9 45.9-50.6 71.4 35.3 12.2 70-20.1 82.7-64.8.884 16-.071 29-8.68 46.2 16-7.39 25.5-25.2 34.4-41.2-2.45 21.1-6 39.9-20.3 59.9-5.08 7.1 3.52 8.82 6.18 7.75 9.94-3.99 11-.844 14.3 3.74 3.74 5.19 1.43 14.6 4.49 21.3 2.77 6.07 10.5 3.12 10.5-2.82-1.55-20 4.09-28.4 9.78-43.3h.848c4.54 33.4 22 59.5 28 79.2l31.8-6.25c-2.79-7.33-10-22.4-10.4-26.1-.163-1.55 4.61-3.9 5.45-8.09-2.6-10.2-7.77-12-8.47-17.9-.716-6.06.634-12.4.094-20.9h4.76c5.69 14.8 11.3 23.3 9.78 43.3-.048 5.94 7.7 8.89 10.5 2.82 3.06-6.7.753-16.2 4.49-21.3 3.31-4.59 4.31-7.73 14.3-3.74 2.66 1.07 11.3-.646 6.18-7.75-14.3-20-17.9-38.8-20.3-59.9 8.92 16 18.5 33.8 34.4 41.2-8.61-17.2-9.57-30.2-8.68-46.2 12.7 44.7 47.4 77 82.7 64.8-33.8-25.5-49.1-51.9-50.6-71.4 27.3 41.9 75.7 55.8 98.3 28.9-29.4-6.73-60.5-18-69.6-41.7 23.5 5.94 67.9 18.7 83.3-13.6-30.2 7-63.7-3.97-74.5-20.1 39.7 6.07 73.9 3 77.7-37.9-17.2 14.5-54.6 19.6-70.5 7.9 34.5-4.92 70.4-21.5 67.7-61.6-14.9 16-45.6 29-61.1 25.3 35.9-18.2 64.3-43.1 59.5-78.7-18.4 29.3-45.4 45.7-66.3 40 40.6-17.7 57.2-47.6 57-78.6-22.8 25-56.7 43.1-104 53-26.1 5.38-40.7 23-43.7 47.8-2.58 21.1 21.3 41.5 39.3 23.9 3.5-3.43 8.19-3.07 10.1-.355 5.11 7.42 1.43 17.4-4.88 23.2-7.78 7.23-18.7-1.41-25-6.92-9.58-8.41-28.4-9.55-34.6-5.11-2.7 1.96-6.43 1.83-7.81-.314-2.57-4-7.11-6.93-11.5-9.92 3.07-.786 6.65-.925 10.4-.832-3.85-3.78-9.84-6.65-13.7-10.6 3.42-.156 6.37-.088 9.16.209-2.9-8.63-7.54-14.5-9.99-22.3 2.96.869 4.71 1.26 7.29 2.91-9.7-16.3 2.63-16-.076-35.6 13.2-1.7 13.6-7.04 14.4-14.6-6.03 6.01-11.5 6.72-12.7 2.13-1.59-5.87-4.33-12-7.18-18h-50.4c-2.84 6.06-5.59 12.1-7.18 18 15.5 2.9 15.3 11.6 1.66 12.5-2.71 19.6 9.63 19.3-.077 35.6 2.57-1.65 4.32-2.04 7.28-2.91-2.46 7.75-7.09 13.6-9.99 22.3 2.79-.297 5.74-.365 9.16-.209-3.9 3.96-9.89 6.83-13.7 10.6 3.76-.093 7.33.046 10.4.832-4.42 2.99-8.96 5.91-11.5 9.92-1.38 2.15-5.11 2.27-7.81.314-6.13-4.44-25.33-3.761-34.93 4.639-6.28 5.51-16.87 14.67-24.67 7.391-6.32-5.87-10-15.8-4.88-23.2 1.87-2.71 6.56-3.08 10.1.355 17.9 17.6 41.9-2.8 39.3-23.9-3.03-24.8-17.6-42.4-43.7-47.8-47.7-9.84-81.7-28-104-53z" stroke-miterlimit="11" stroke-width="2.35"/><path d="M205.068 393.592c3.522-1.346 8.597 1.051 9.891-.38 2.04-2.196 4.635-11.368 12.197-16.91 2.977 2.08 4.816 6.19 6.447 5.879 6.06-.295 12.17-8.52 20.223-9.866 2.059 3.548 1.373 8.442 2.797 8.623 4.195.699 16.494-2.357 22.916-.1.154 2.294-1.655 6.862-.28 7.768 3.626 2.447 12.455 6.5 17.375 13.335-1.628 1.88-4.868 3.755-4.402 5.645.536 3.444 6.008 10.358 6.759 15.925-1.334 1.833-4.894 2.874-5.18 4.17-1.04 4.764 2.797 11.548 1.648 20.041-2.745 1.318-6.293.984-7.018 2.874-2.133 5.671-4.816 11.212-7.949 16.34-13.258 21.776-25.376 42.983-24.573 67.583l-13.155-.686c-2.822-26.671 8.183-47.128 20.483-73.54-7.898 7.147-16.236 9.763-26.412 9.193-24.962-1.419-40.654-31.59-32.368-55.672 2.377-6.707-.528-14.035.572-20.25z" stroke-miterlimit="5" stroke-width="2.3485858"/><g stroke-miterlimit="11" stroke-width=".907"><path d="M236.918 437.612c6.214-.764 12.066-1.44 15.562-6.629 3.081-4.557 2.641-11.549-.5-21.337-9.97-3.08-18.695 3.34-20.042 9.996-1.137 5.696.235 11.522 4.972 17.97z" fill="#fcdb00" stroke-width="2.3485858"/><path d="M263.33 460.399c5.486-10.107 14.435-42.622-11.267-50.649M218.792 396.958c-3.724 12.808-8.846 45.393 18.12 40.758" fill="none" stroke-linecap="round" stroke-width="2.3485858"/></g></g><g stroke-miterlimit="11"><path d="M228.028 70.741c-.058-15.643-9.536-21.111-19.4-25.295 4.036-3.837 10.291-3.493 15.173 1.169 3.365-1.49 5.49-3.301 5.233-7.781 4.954 2.229 5.16 7.18 4.81 12.968-.248 4.115 2.755 6.666 6.935 6.023 3.706-.57 5.006-4.459 4.386-6.913-.928-3.698-2.766-8.735-7.462-12.434 3.85-.51 6.698.184 10.01 2.39.49-2.882 2.282-5.433 4.273-7.94 1.982 2.497 3.777 5.048 4.273 7.94 3.323-2.207 6.16-2.903 10.01-2.39-4.695 3.645-6.542 8.692-7.461 12.434-.616 2.454.678 6.334 4.386 6.913 4.179.642 7.182-1.908 6.935-6.023-.346-5.755-.139-10.71 4.81-12.968-.252 4.49 1.868 6.291 5.232 7.78 4.861-4.661 11.15-5.005 15.173-1.168-9.856 4.169-19.303 9.636-19.4 25.295h-47.892z" fill="#f00000" stroke="#000" stroke-width="3.00028"/><path d="M228.028 65.915h48.61" fill="none" stroke="#000" stroke-width="3.00028"/><path d="M239.839 87.04c.817 1.212 1.752 2.253 3.245 1.778 14.946-4.757 9.291-12.874-4.17-13.125-1.56-.03-3.08.727-2.574 3.1.507 2.371 1.229 4.89 3.496 8.248z" fill="#fcdb00" stroke="#fcdb00" stroke-width="2.3433"/><path d="M235.855 80.268c2.648-.356 7.358.387 7.592 1.828.209 1.401-4.03 4.007-5.811 4.359z" stroke="#000" stroke-width="2.3433"/></g></g><g stroke="#000"><path d="M172.352 181.265h154.657c5.109 88.108-15.301 142.707-77.328 180.668-62.098-37.961-82.485-92.56-77.33-180.668z" fill="#fcdb00" stroke-dashoffset="10.732314" stroke-miterlimit="11" stroke-width="2.3433"/><path d="M321.385 186.889c4.078 81.78-15.606 132.162-71.939 168.248-56.239-36.32-75.923-86.467-71.94-168.248z" fill="#f00000" stroke-dashoffset="10.732314" stroke-miterlimit="11" stroke-width="2.3433"/><g fill="#fcdb00" fill-rule="evenodd"><path d="m233.512 206.104 12.63 3.116 3.656-12.607 3.655 12.607 12.63-3.116-8.974 9.49 8.975 9.49-12.63-3.116-3.656 12.607-3.656-12.607-12.63 3.116 8.975-9.49zM233.512 259.297l12.63 3.116 3.656-12.607 3.655 12.607 12.63-3.116-8.974 9.49 8.975 9.49-12.63-3.116-3.656 12.607-3.656-12.607-12.63 3.116 8.975-9.49zM233.512 313.192l12.63 3.117 3.656-12.607 3.655 12.607 12.63-3.117-8.974 9.49 8.975 9.491-12.63-3.116-3.656 12.606-3.656-12.606-12.63 3.116 8.975-9.49z" stroke-width="2.3433"/></g></g><g fill="#f00000" stroke="#000" stroke-dashoffset="4.58" stroke-miterlimit="11"><g stroke-width="2.19"><path d="M181.59 97.887c11.77 2.204 29.211 1.188 43.656.99l.056-9.126c-12.198.616-24.717 2.429-36.38 1.701-9.181-.57-10.7-13.321-11.556-16.146-4.098 3.365-7.983 20.33 4.226 22.577z" stroke-width="2.3433"/><path d="M221.287 76.915c2.13.113 4.965.44 6.249 1.241 6.751 4.205 10.154 22.042 2 26.75-4.172 2.386-16.05.686-20.757-2.343 3.702-1.295 9.32-3.071 13.696-4.259 2.878-.777 2.685-5.8-1.69-8.581-8.154-5.19-15.441-7.03-28.495-1.894-.727-11.877 16.371-11.556 28.997-10.914zM205.13 494.75c19.474 6.591 36.38 41.837 44.405 70.62 8.046-28.783 24.931-64.093 44.405-70.62-17.12-5.468-37.45 7.929-44.405 26.215-6.923-18.297-27.285-31.672-44.405-26.215z" stroke-width="2.3433"/></g><g stroke-width=".906"><path d="M378.334 386.731c8.238-8.947 19.926-12.598 27.253-3.648-7.462-.549-16.44 3.83-18.972 12.003zM370.855 439.659c12.22 7.373 15.94 16.498 5.084 28.666.067-6.916 3.253-12.848-12.196-19.7zM325.122 426.21c-15.086 9.275-14.942 18.098-5.234 26.881-.757-8.94 2.534-15.595 12.72-18.15zM389.048 414.285c16.446-4.274 22.279 1.624 22.7 14.824-7.325-7.939-16.139-7.952-22.782-4.178z" stroke-width="2.3491402200000002"/><path d="M296.912 356.172c-1.919-4.1-1.838-19.777 1.922-23.666 2.962-3.074 5.979-2.403 6.686.112 4.792 16.834 13.347 33.013 26.442 51.713 4.73 6.803 9.126 16.9 16.088 15.909 8.374-1.187 20.024-5.7 23.966-13.1 3.11-5.88 8.518-3.789 11.998-.447 2.955 2.818 9.32 9.06 1.115 10.624-7.155 1.377-12.459 4.254-18.083 5.81-3.192.892-4.084 3.817-1.377 4.941 6.27 2.6 12.545 1.285 18.62 1.539 5.891.24 6.012 4.374 6.527 7.788 1.79 12.222-4.618 9.4-10.16 7.271-3.94-1.51-7.28-4.528-11.984-6.615-1.72-.76-3.48-.618-4.834.14-2.207 1.232-1.833 3.894-.036 5.87 3.593 3.924 9.003 6.537 11.367 11.92 1.94 4.437-3.213 3.91-5.193 6.411-3.546 4.466-5.158 7.737-7.736 5.531-7.34-6.347-2.86-16.02-14.8-24.517-4.229-3.024-7.667-1.258-8.65 1.56-1.131 3.325-.735 7.142-3.23 9.463-6.06 5.59-7.247-2.237-10.125-4.073-4.61-2.931-6.006-7.295-3.116-8.72 7.757-3.838 8.536-12.81 2.789-23.104-8.408-15.021-20.745-26.5-28.229-42.4z" stroke-width="2.3491402200000002"/></g><g stroke-width=".906"><path d="M123.507 386.731c-8.238-8.947-19.925-12.598-27.252-3.648 7.462-.549 16.44 3.83 18.97 12.003zM130.986 439.659c-12.219 7.373-15.94 16.498-5.084 28.666-.067-6.916-3.358-12.843 12.092-19.695zM176.72 426.21c15.086 9.275 14.941 18.098 5.233 26.881.757-8.94-2.534-15.595-12.72-18.15zM112.793 414.285c-16.445-4.274-22.279 1.624-22.7 14.824 7.325-7.939 16.139-7.952 22.782-4.178z" stroke-width="2.3491402200000002"/><path d="M204.929 356.172c1.919-4.1 1.838-19.777-1.922-23.666-2.962-3.074-5.979-2.403-6.686.112-4.791 16.834-13.346 33.013-26.442 51.713-4.73 6.803-9.126 16.9-16.087 15.909-8.375-1.187-20.024-5.7-23.966-13.1-3.111-5.88-8.519-3.789-11.998-.447-2.955 2.818-9.32 9.06-1.116 10.624 7.156 1.377 12.459 4.254 18.084 5.81 3.19.892 4.083 3.817 1.376 4.941-6.27 2.6-12.545 1.285-18.62 1.539-5.89.24-6.012 4.374-6.527 7.788-1.789 12.222 4.618 9.4 10.16 7.271 3.94-1.51 7.28-4.528 11.984-6.615 1.72-.76 3.48-.618 4.834.14 2.207 1.232 1.834 3.894.036 5.87-3.593 3.924-9.003 6.537-11.367 11.92-1.939 4.437 3.213 3.91 5.193 6.411 3.546 4.466 5.158 7.737 7.736 5.531 7.34-6.347 2.86-16.02 14.801-24.517 4.228-3.024 7.667-1.258 8.649 1.56 1.131 3.325.736 7.142 3.23 9.463 6.06 5.59 7.248-2.237 10.126-4.073 4.61-2.931 6.006-7.295 3.115-8.72-7.757-3.838-8.536-12.81-2.788-23.104 8.407-15.021 20.745-26.5 28.228-42.4z" stroke-width="2.3491402200000002"/></g></g></svg>