<?xml version="1.0" encoding="UTF-8"?>
<svg width="600" height="687.35" viewBox="0 0 600 687.35" xml:space="preserve" xmlns="http://www.w3.org/2000/svg"><g stroke="#231f20" stroke-miterlimit="3.864"><path d="m253.18 468.01h94.514m-71.677-36.483h-16.84l-5.617 14.983v21.482l6.564 17.35-11.243 138.03 106.66-0.223-10.704-137.8 3.259-17.35v-21.483l-5.171-14.983h-16.348v26.671h-13.888v-26.67h-22.92v27.144h-14.213z" fill="none" stroke-width="1.9217"/><path d="m289.2 496.98h7.483v27.6h-7.483zm19.588 0h7.482v27.6h-7.482z" fill="#231f20" stroke-width="1.4018"/><path d="m259.675 485.37 85.964.056" fill="none" stroke-width="1.9217"/></g><path d="m286.41 581.73h33.105v41.181h-33.106z" fill="#231f20"/><path d="m286.32 583.12c0-10.11 7.408-18.306 16.571-18.306 9.135 0 16.57 8.197 16.57 18.306 0 10.073-7.435 18.28-16.57 18.28-9.163 0-16.57-8.207-16.57-18.28" fill="#231f20"/><path d="m600 152.47c0 234.92-94.328 429.49-300.73 534.94-206.24-105.38-299.25-300.78-299.25-534.94 0-51.383 2.21-101.3 7.557-152.39h584.87c5.348 51.086 7.557 101 7.557 152.39"/><path d="m587.66 152.47c0-51.616-2.181-98.134-6.34-140.01h-562.55c-4.168 41.878-6.35 88.396-6.35 140.01 0 315.84 167.32 459.07 286.88 521.05 119.61-61.985 288.36-205.23 288.36-521.05" fill="#cc2918"/><g stroke="#000" stroke-dashoffset="4.58" stroke-miterlimit="11"><g fill="#feeb00" stroke="#000"><path d="m207.08 561.958 225.553-397.557c14.61-25.75 40.348-41.48 67.484-26.084 16.046 9.104 27.895 28.902 15.784 50.248-5.985 10.55-17.985 15.627-30.043 8.786-8.675-4.922-14.904-13.8-8.994-24.874 3.473-6.508 7.871-8.308 15.423-9.163-9.207-5.97-24.55-4.485-33.293 10.926-10.745 18.939 9.98 36.157 15.165 38.194-5.654 8.71-7.458 19.227 2.124 29.467.52-10.086 7.103-21.611 17.015-21.227 21.57.838 33.448-10.985 42.154-26.33 14.45-25.47 3.81-59.334-27.454-77.072-32.177-18.255-70.325-1.081-87.527 29.239L190.205 552.377c-2.669 4.704-.832 10.682 3.65 13.225s10.557 1.053 13.225-3.65z" stroke-width="2.5751"/><path d="M389.89 195.28c-3.36-1.907-8.95-.739-11.111 3.07s-.296 9.208 3.063 11.114l21.296 12.083c3.36 1.905 8.95.737 11.11-3.072s.297-9.208-3.062-11.113z" stroke-width="2.5751"/><path d="m393 561.96-225.55-397.56c-14.61-25.75-40.348-41.48-67.484-26.085-16.046 9.104-27.895 28.902-15.784 50.248 5.985 10.55 17.984 15.627 30.043 8.786 8.675-4.922 14.904-13.8 8.994-24.873-3.474-6.508-7.871-8.309-15.423-9.163 9.207-5.97 24.55-4.486 33.293 10.926 10.744 18.938-9.98 36.156-15.166 38.193 5.654 8.711 7.458 19.227-2.123 29.467-0.52-10.086-7.104-21.611-17.015-21.226-21.57 0.837-33.449-10.986-42.154-26.33-14.45-25.471-3.81-59.335 27.454-77.073 32.177-18.255 70.325-1.08 87.527 29.24l230.26 405.87c2.669 4.704 0.832 10.682-3.65 13.225s-10.557 1.053-13.225-3.651z" stroke-width="2.5751"/><path d="M210.191 195.284c3.36-1.906 8.95-.738 11.11 3.072s.297 9.207-3.062 11.113l-21.297 12.082c-3.359 1.906-8.949.738-11.11-3.072s-.297-9.207 3.062-11.113zM338.845 230.294V214.84l33.316-51.02c-16.272-33.526-40.722-64.335-66.399-92.303V55.914h14.556V44.468h-14.556V29.912h-11.446v14.556H279.76v11.446h14.556v15.602c-25.676 27.968-50.127 58.777-66.4 92.302l33.318 51.021v15.455c0 6.307 17.374 11.423 38.807 11.423 21.432 0 38.807-5.116 38.807-11.423z" stroke-width="2.5751"/></g><g fill="none" stroke-width="2.5751"><path d="M261.23 230.29c0-6.312 17.375-11.428 38.808-11.428 21.432 0 38.807 5.116 38.807 11.427M321.72 205.36c-2.649-5.86-5.636-17.576-6.21-20.992 2.479.55 4.835 1.527 7.414 2.681-2.127-4.191-6.18-10.636-7.411-17.275 3.022-.25 5.813-.098 8.731.483-4.768-6.49-7.88-12.18-9.536-18.025a45.32 45.32 0 0 1 9.335 1.126c-5.945-8.302-9.8-20.154-8.61-26.395 7.56 1.335 13.12 14.941 15.209 24.947 2.23-2.103 4.217-3.214 7.081-3.702 1.652 7.403 1.789 14.522.654 21.926 3.024-.733 6.022-1.005 9.647-1.003-2.068 6.655-5.283 13.195-9.496 19.635 2.491-.572 4.991-1.139 8.369-1.288-4.345 8.279-9.98 14.405-15.577 20.595" fill="none" stroke="#000"/><path d="m326.54 206.49c5.135-14.428 7.46-31.056 3.177-47.59"/><path d="m261.23 214.84c0-6.31 17.375-11.427 38.808-11.427 21.432 0 38.807 5.116 38.807 11.427" fill="none" stroke="#000"/><path d="M364.673 175.323c-15.826-28.05-36.278-53.451-58.275-77.413v106.267M278.363 205.36c2.649-5.86 5.636-17.576 6.21-20.992-2.479.55-4.835 1.527-7.414 2.681 2.127-4.191 6.18-10.636 7.41-17.275-3.021-.25-5.812-.098-8.73.483 4.768-6.49 7.88-12.18 9.536-18.025a45.32 45.32 0 0 0-9.335 1.126c5.945-8.302 9.8-20.154 8.61-26.395-7.56 1.335-13.12 14.941-15.209 24.947-2.23-2.103-4.217-3.214-7.081-3.702-1.652 7.403-1.789 14.522-.654 21.926-3.024-.733-6.022-1.005-9.647-1.003 2.068 6.655 5.283 13.195 9.496 19.635-2.491-.572-4.991-1.139-8.369-1.288 4.344 8.279 9.98 14.405 15.577 20.595" fill="none" stroke="#000"/><path d="m273.54 206.49c-5.136-14.428-7.46-31.056-3.178-47.59"/><path d="m235.4 175.32c15.826-28.05 36.278-53.451 58.275-77.413v106.27"/></g></g></svg>
