<?xml version="1.0" encoding="UTF-8"?>
<svg version="1.1" viewBox="0 0 410 490" xmlns="http://www.w3.org/2000/svg"><g stroke="#000"><path d="m5,5v280a200,200 0 0,0 400,0V5z" fill="#0093dd" stroke-width="8"/><path d="m5 248.88v36.125a200 200 0 0 0 400 0v-36.125h-400z" fill="#fcdb00" stroke-width="3"/><path d="m5,5v280a200,200 0 0,0 400,0V5z" fill="none" stroke-width="8"/><g stroke-linejoin="round" stroke-width="3"><path d="m78.196 263.95c-7.2501 16.773-11.268 35.26-11.268 54.686 0 76.216 61.856 138.07 138.07 138.07 76.216 0 138.07-61.856 138.07-138.07 0-19.425-4.0184-37.912-11.268-54.686-10.91 60.701-64.348 106.53-128.08 105.9-62.853-0.61649-114.8-46.222-125.53-105.9z" fill="#0093dd" fill-rule="evenodd"/><g stroke-linecap="round"><path d="m340.32 89.004c-10.695-22.125-39.993-23.227-64.175-15.586-24.181 7.6406-46.503 32.701-46.503 32.701 17.149-30.249 10.696-44.926 1.8606-56.234-8.8356-11.308-24.647-20.782-26.507-25.366-1.8606 4.5844-17.672 14.058-26.507 25.366-8.8356 11.308-15.288 25.984 1.8599 56.234 0 0-22.32-25.061-46.502-32.701-24.182-7.6406-53.48-6.5387-64.175 15.586-7.4551 15.421 2.3246 24.755 20.462 35.758 18.136 11.002 31.622 17.115 26.972 29.34 0 0 22.201-6.7236 21.271-20.782-0.92996-14.058-9.45-16.147-1.2744-22.616 7.5104-5.9427 21.856-0.91654 30.227 7.6406 8.3709 8.5576 13.486 16.504 13.486 32.396s3.982 35.758-27.437 35.758c-22.787 0-14.882-21.394-10.231-25.978 0 0-17.399 0.75731-27.902 20.171-7.4403 13.753 4.7417 26.756 19.996 29.339 16.71 2.8303 41.415-9.654 50.689-19.254 0 0-11.754 18.163 0 29.645 8.4705 8.2737 13.973 9.8534 19.067 14.058 5.0932-4.2051 10.596-5.7847 19.066-14.058 11.754-11.482 0-29.645 0-29.645 9.2739 9.5995 33.979 22.084 50.689 19.254 15.255-2.5836 27.437-15.586 19.996-29.339-10.503-19.414-27.901-20.171-27.901-20.171 4.6498 4.5844 12.556 25.978-10.231 25.978-31.419 0-27.437-19.866-27.437-35.758s5.1157-23.838 13.485-32.396c8.3709-8.5571 22.718-13.583 30.227-7.6406 8.1762 6.4698-0.34383 8.558-1.2738 22.616-0.92996 14.058 21.271 20.782 21.271 20.782-4.6504-12.225 8.8356-18.337 26.972-29.34 18.134-11.002 27.913-20.336 20.459-35.758z" fill="#fcdb00"/><path d="m180.35 106.12s18.671 22.643 18.671 47.062c0 24.232-13.09 37.595-13.09 37.595" fill="none"/><path d="m229.65 106.12s-18.67 22.643-18.67 47.062c0 24.232 13.09 37.595 13.09 37.595" fill="none"/><path d="m229.82 149.94h-49.641c-5.9962 0-10.858 3.1944-10.858 7.1355s4.8612 7.1359 10.858 7.1359h49.641c5.9962 0 10.858-3.1948 10.858-7.1359s-4.8619-7.1355-10.858-7.1355z" fill="#fcdd09"/></g></g></g><path d="m206.5 79.398c0-16.899-1.5-33.798-1.5-33.798s-1.5 16.899-1.5 33.798v101.39c0 16.899 1.5 33.798 1.5 33.798s1.5-16.899 1.5-33.798z"/><path d="m229.82 149.94h-49.641c-5.9962 0-10.858 3.1944-10.858 7.1355s4.8612 7.1359 10.858 7.1359h49.641c5.9962 0 10.858-3.1948 10.858-7.1359s-4.8619-7.1355-10.858-7.1355z" fill="#fcdd09" stroke="#000" stroke-linecap="round" stroke-linejoin="round" stroke-width="3"/></svg>
