<svg width="500" height="600.1" version="1.0" xml:space="preserve" xmlns="http://www.w3.org/2000/svg" xmlns:cc="http://creativecommons.org/ns#" xmlns:dc="http://purl.org/dc/elements/1.1/" xmlns:rdf="http://www.w3.org/1999/02/22-rdf-syntax-ns#"><metadata><rdf:RDF><cc:Work rdf:about=""><dc:format>image/svg+xml</dc:format><dc:type rdf:resource="http://purl.org/dc/dcmitype/StillImage"/><dc:title/></cc:Work></rdf:RDF></metadata><path d="m4 4v280c20 260 236 310 246 312 10-2 226-52 246-312v-280z" fill="#f00000"/><g transform="matrix(.4062 0 0 .4062 2.113 1.453)" stroke="#000" stroke-width="9.846"><rect x="5.93" y="6.27" width="1210" height="452" fill="#1c63b7" fill-rule="evenodd"/><path transform="translate(0,-14.5)" d="m206 104 27.5 116 119-9.7-102 62.1 46 110-90.6-77.8-90.6 77.8 46-110-102-62.1 119 9.7zm809 0-27.5 116-119-9.7 102 62.1-46 110 90.6-77.8 90.6 77.8-46-110 102-62.1-119 9.7z" fill="#fcdb00" fill-rule="evenodd" stroke-linecap="round" stroke-linejoin="round"/><path d="m715 213c13.4-19.9 29-19.7 38.3-20.2 18.2-0.975 36.7 19.5 36.7 39.9-0.0409 23.6-22 39-38.7 38.9-21.7-0.117-30.3-10.9-36.3-19.6l-71.8 13.7-13.7 71.8c19.9 13.4 19.7 29 20.2 38.3 0.975 18.2-19.5 36.7-39.9 36.7-23.6-0.0409-39-22-38.9-38.7 0.117-21.7 10.9-30.3 19.6-36.3l-13.7-71.8-71.8-13.7c-13.4 19.9-29 19.7-38.3 20.2-18.2 0.975-36.7-19.5-36.7-39.9 0.0409-23.6 22-39 38.7-38.9 14.8 0.0798 23.3 2.64 36.3 19.6l71.8-13.7 13.7-71.8c-19.9-13.4-20.2-26-20.2-38.3 0-19.6 19.5-36.7 39.9-36.7 23.6 0.0409 38.9 22 38.9 38.7 0 16.8-6.09 27-19.6 36.3l13.7 71.8z" fill="#fcdb00"/></g><g transform="matrix(.4062 0 0 .4062 -8.606 7.953)" stroke="#000"><g stroke-linecap="round" stroke-linejoin="round" stroke-width="9.846"><path d="m951 788c-1.45-4.63-1.6-9.63-0.789-14.4 0.81-4.79 2.55-9.39 4.78-13.7 4.03-7.81 9.71-14.9 12-23.4 0.986-3.7 1.28-7.54 1.83-11.3 0.547-3.79 1.38-7.61 3.3-10.9 1.63-2.8 3.98-5.1 6.35-7.31 2.38-2.2 4.83-4.35 6.77-6.95 3.23-4.35 4.83-9.74 5.39-15.1 0.565-5.39 0.16-10.8-0.258-16.2-0.291-3.77-0.605-7.6-2.05-11.1-0.487-1.18-1.1-2.32-1.94-3.28s-1.89-1.76-3.1-2.16c-1.3-0.432-2.72-0.401-4.04-0.0417-1.32 0.359-2.53 1.03-3.62 1.86-2.47 1.86-4.31 4.46-5.7 7.23s-2.36 5.72-3.38 8.64c-2.42 6.9-5.14 13.8-6.4 21-1.29 7.39-1.01 15-0.106 22.4 0.606 5.02 1.49 10.1 0.683 15.1-0.681 4.22-2.54 8.14-4.42 12-2.26 4.6-4.59 9.16-6.99 13.7-0.428 0.615-1.07 1.08-1.79 1.28-0.72 0.206-1.51 0.155-2.2-0.141-0.942-0.406-1.65-1.23-2.13-2.14s-0.786-1.89-1.15-2.85c-0.85-2.26-2.06-4.39-3.57-6.27-0.345 5.01-1.21 9.99-2.57 14.8-2.33 8.29-6.28 16.4-12.7 22.1-5.23 4.62-12 7.48-18.9 8.04-6-5.09-12.3-9.79-19-14.1-8.82-5.68-18.1-10.6-26.8-16.4-10.3-6.88-19.9-15.5-24.8-26.8-2.95-6.9-3.97-14.5-3.84-22 0.222-12.4 3.59-24.8 9.7-35.7-2.26 2.14-5.36 3.36-8.48 3.33-3.54-0.0331-7.03-1.7-9.28-4.44-0.0703-4.31 0.616-8.63 2.02-12.7 2.94-8.56 8.87-15.7 14.5-22.8 5.45-6.81 11-14 18.8-17.9 7.46-3.84 16.6-4.29 24.4-1.21-0.405-2.01-1.48-3.88-3.03-5.24-1.31-1.15-2.9-1.92-4.41-2.8s-2.99-1.94-3.86-3.45c-0.874-1.52-1.02-3.45-0.396-5.09 0.627-1.64 2.02-2.97 3.69-3.53 9.47-6.18 21.5-8.29 32.5-5.7 11.1 2.62 20.6 9.61 31.1 14.3 11.1 4.93 23.8 7.17 35.4 3.42 5.89-1.92 11.3-5.37 15.5-9.94 4.18-4.57 7.15-10.2 8.49-16.3 1.55-7.02 0.928-14.3-0.17-21.4-1.1-7.1-2.66-14.2-2.97-21.3-0.395-9.25 1.43-18.8 6.56-26.5 3-4.51 7.12-8.32 12-10.6 4.92-2.25 10.6-2.87 15.8-1.31 3.86 1.16 7.35 3.52 9.88 6.66 1.8-5.61 4.86-10.8 8.87-15.1 8.66-9.29 21.6-14 34.3-13.9 8.77 0.0872 17.5 2.38 25.2 6.6 0.346 1.83 0.537 3.7 0.57 5.56 0.093 5.26-1.09 10.5-3.42 15.3 2.65-4.38 6.78-7.84 11.6-9.7 3.77-1.47 7.9-1.94 11.9-1.63 4.04 0.311 7.99 1.39 11.7 2.91 6.19 2.52 11.8 6.25 16.8 10.7 3.88 3.46 7.42 7.39 11.8 10.1 7.02 4.35 16.1 5.27 23.8 2.42 2.39 5.99 3.38 12.5 2.85 19-0.83 10.2-5.65 20.1-13.7 26.4-6.52 5.08-15 7.58-23.2 6.84 1.19 1.99 2.28 4.04 3.28 6.13 1.89 3.99 3.42 8.14 4.56 12.4-1.61 5.03-4.52 9.64-8.37 13.3-5.76 5.41-13.5 8.5-21.4 8.99-11.5 0.712-22.8-3.91-32.2-10.6-5.61-3.96-10.9-8.73-17.4-10.8-4.12-1.32-8.63-1.49-12.8-0.281-4.15 1.21-7.91 3.83-10.3 7.41-2.3 3.41-3.34 7.65-2.87 11.7 0.466 4.09 2.43 7.99 5.44 10.8 3.75 3.5 8.89 5.2 14 5.77 5.1 0.578 10.3 0.141 15.4-0.0695 12.9-0.528 26.3 0.505 37.6 6.56 8.63 4.59 15.7 12 20 20.8-1.64 1.12-3.33 2.16-5.08 3.1-3.64 1.97-7.51 3.53-11.5 4.64 3.16 3.43 6.32 6.86 9.48 10.3 8.73 9.47 17.6 19.3 22.2 31.3 3.67 9.66 4.3 20.4 2.28 30.5-0.998 5.03-2.63 9.93-4.85 14.5-3.19-0.336-6.25-1.77-8.56-3.99-1.78-1.72-3.09-3.87-4.1-6.13s-1.73-4.63-2.46-6.99c-0.587-1.91-1.19-3.84-2.25-5.52-0.531-0.844-1.18-1.62-1.95-2.25-0.772-0.632-1.67-1.11-2.64-1.35-1.67-0.399-3.49-0.018-4.9 0.954s-2.41 2.51-2.8 4.18c-0.365 1.58-0.204 3.25 0.314 4.78s1.38 2.93 2.4 4.19c2.04 2.51 4.67 4.46 6.99 6.72 4.81 4.7 8.19 10.8 10.2 17.2 2.05 6.41 2.82 13.2 2.88 19.9 0.112 11.5-1.83 23.1-5.7 33.9-2.52-0.657-4.94-1.72-7.13-3.14-4.2-2.72-7.54-6.76-9.41-11.4-1.68 1.02-3.15 2.38-4.28 3.99-1.56 2.23-2.46 4.87-2.95 7.55-0.496 2.68-0.615 5.41-0.754 8.13-0.739 14.4-2.16 29.1-7.57 42.5-6.24 15.4-17.8 28.7-32.3 36.9-5.84-2.02-11.5-4.53-16.9-7.5-4.26-2.34-8.38-4.97-12-8.2s-6.77-7.07-8.81-11.5c-0.53-1.14-0.989-2.33-1.68-3.38s-1.67-1.98-2.88-2.32c-0.928-0.264-1.92-0.168-2.87 0.0189-0.946 0.186-1.88 0.461-2.84 0.551-1.31 0.123-2.64-0.105-3.87-0.59-1.22-0.485-2.34-1.22-3.32-2.11-1.95-1.77-3.33-4.07-4.51-6.43-5.14-10.3-6.87-22.3-4.85-33.7-1.09 2.77-2.43 5.45-3.99 7.99-3.77 6.11-8.86 11.4-14.8 15.4-3.44-0.0823-6.86-1.19-9.7-3.14-4.02-2.76-6.76-7.08-8.43-11.7-1.67-4.58-2.36-9.45-2.98-14.3-0.911-7.11-1.7-14.2-2-21.4-0.177-4.28-0.177-8.56 0-12.8-1.52 3.37-3.91 6.33-6.87 8.54-4.62 3.43-10.6 4.92-16.3 4.03-2.96-2.98-5.2-6.68-6.45-10.7z" fill="#094"/><path d="m886 708c0.129-0.539 0.264-1.08 0.403-1.61 2.38-9.12 6.29-17.8 11.3-25.8 4.12-6.58 9.06-12.8 15.3-17.3 5.87-4.29 12.7-7.03 19.4-9.77s13.5-5.57 19.3-10c6.82-5.24 11.8-12.4 16.9-19.4 9.59-13 20-25.4 32.1-36.1 10.6-9.41 22.3-17.5 34.9-24 19.2-10 40.5-16.5 62.1-17.7 12.2-0.681 24.5 0.305 36.4 2.92" fill="none"/><path d="m992 744c4.15-9.87 9.74-19.1 16.5-27.4 8.16-9.95 18.1-18.5 29.4-24.6 15.8-8.5 34.6-12.1 52-7.66 11.8 2.97 22.6 9.52 30.7 18.6" fill="none"/><path d="m1019 797c3.18-9.45 8.45-18.2 15.3-25.4 8.74-9.17 20.1-15.9 32.5-18.6s25.7-1.34 37.1 4.25c6.45 3.17 12.3 7.66 16.9 13.1" fill="none"/></g><g stroke-linecap="round" stroke-linejoin="round" stroke-width="9.846"><path d="m480 785c-4.6-3.64-7.71-9.11-8.47-14.9-1.99 10.4-5.03 20.6-9.08 30.5-2.76 6.69-6.01 13.2-10.4 19-4.44 5.72-10.1 10.6-16.8 13.3-4.42 1.76-9.22 2.55-14 2.28-1.67-3.16-2.97-6.52-3.85-9.98-1.45-5.66-1.79-11.6-0.998-17.4-0.33 4.75-1.76 9.42-4.14 13.5-4.85 8.41-13.2 14.1-21.1 19.7-5.28 3.73-10.5 7.59-15.1 12.1-5.97 5.81-10.9 12.7-14.5 20.2-4.6-1.1-8.96-3.17-12.7-6.05-5.66-4.34-9.85-10.4-12.4-17.1-2.6-6.64-3.68-13.8-3.77-20.9-0.085-6.32 0.587-12.7 2-18.8-1.34 2.57-3.08 4.94-5.13 6.99-3.43 3.42-7.74 5.95-12.4 7.27-1.08-8.65-1.42-17.4-0.998-26.1 0.537-11.1 2.4-22.5 7.99-32.1 2.5-4.31 5.69-8.18 8.56-12.3 3.18-4.52 6.01-9.42 7.13-14.8 0.784-3.77 0.704-7.75-0.434-11.4s-3.35-7.05-6.41-9.39c-2.73-2.1-6.13-3.34-9.58-3.39-3.45-0.0425-6.91 1.14-9.53 3.39-3.02 2.59-4.78 6.43-5.45 10.4-0.665 3.93-0.317 7.95 0.314 11.9 0.778 4.85 1.98 9.64 2.28 14.5 0.306 5.04-0.358 10.1-0.856 15.1-1.42 14.3-1.49 28.7-2.85 43.1-0.473 4.98-1.11 9.98-2.58 14.8-1.48 4.78-3.84 9.37-7.4 12.9-2.96 2.93-6.71 5.07-10.7 6.11-4.03 1.05-8.35 1-12.4-0.123-1.2-1.27-2.21-2.72-2.99-4.28-1.8-3.58-2.36-7.77-1.57-11.7-1.14 1.55-2.01 3.29-2.57 5.13-0.997 3.33-0.935 6.88-0.558 10.3s1.06 6.87 1.27 10.3c0.537 8.7-1.99 17.6-7.03 24.7-5.04 7.11-12.6 12.4-21 14.8-3.81-0.94-7.31-3.08-9.88-6.05-3.24-3.74-4.94-8.77-4.64-13.7-1.18 2.41-2.2 4.91-3.03 7.46-1.65 5.08-2.58 10.4-4.64 15.3-3.95 9.43-11.7 16.7-19.8 23-5.26 4.13-10.8 8.01-15.5 12.7-7.61 7.48-13.2 17-16.1 27.2-7-2.95-13.4-7.37-18.6-12.9-10.5-11.1-16.1-26.1-19.1-41.1-2.31-11.3-3.36-22.9-3.14-34.5-1.02 2.94-2.47 5.74-4.28 8.27-3.3 4.61-7.82 8.34-13 10.7-5.08-8.21-8.77-17.3-10.9-26.7-4.22-19-1.75-39.4 6.86-56.9-1.92 3.28-4.33 6.28-7.12 8.86-4.66 4.33-10.4 7.49-16.5 9.13-0.661-5.2-0.995-10.4-0.998-15.7-0.0106-17.4 3.63-34.7 9.33-51.1 3.71-10.7 8.31-21.1 13.7-31.1-2.25 2.23-5.16 3.79-8.27 4.44-4.93 1.02-10.3-0.357-14.1-3.63-1.39-10.4 0.391-21.2 5.04-30.7 5.21-10.6 13.9-19.2 24.2-25 6.86-3.85 14.4-6.46 22.2-7.66-4.07-0.986-7.89-2.98-11-5.76-3.43-3.05-6.02-7.03-7.42-11.4 2.54-7.34 7.64-13.8 14.2-17.9 6.59-4.17 14.4-6.01 22.2-6.65s15.6-0.14 23.4-6e-3c15.9 0.273 32.4-0.849 47 5.45 7.6 3.28 14.3 8.44 22 11.5 10.6 4.2 22.4 4.14 33.7 3.03 3.38-0.333 6.79-0.76 10-1.86 3.22-1.1 6.27-2.91 8.35-5.61 1.92-2.49 2.91-5.64 2.93-8.78 0.0167-3.14-0.92-6.26-2.52-8.96-1.8-3.02-4.42-5.53-7.48-7.26s-6.55-2.68-10.1-2.82c-4.06-0.164-8.1 0.73-12 1.92-3.89 1.19-7.69 2.67-11.6 3.73-12.7 3.44-26.9 2.15-38.1-4.84-6.31-3.95-11.5-9.62-14.9-16.2 1.13-0.842 2.21-1.75 3.24-2.72 2.44-2.31 4.55-4.97 6.25-7.87-6.78-1.6-13.2-4.73-18.6-9.09-9.26-7.45-15.4-18.3-18.8-29.7-2.22-7.39-3.38-15.1-3.42-22.8 5.48 0.999 11.2 0.528 16.5-1.35 8.99-3.22 16-10.2 23.8-15.7 11-7.74 23.9-12.6 37.1-14.9 20.4-3.55 42.4-0.782 59.9 10.3 7.73 4.88 14.5 11.3 19.8 18.8-0.54-2.44-0.609-4.99-0.202-7.46 0.639-3.88 2.47-7.55 5.17-10.4 18.6 1.89 36.1 13 45.6 29.1 4.97 8.36 7.88 17.9 8.3 27.7 0.423 9.72-1.65 19.5-6.02 28.2-5.61 11.1-14.9 20.3-19.4 31.9-3.72 9.57-3.96 20.2-2.31 30.4 1.65 10.1 5.09 19.9 8.59 29.5 1.81 5 3.67 10.1 6.71 14.4 1.52 2.18 3.34 4.16 5.47 5.74 2.14 1.58 4.6 2.75 7.21 3.24 3.98 0.747 8.11-0.0996 11.9-1.56 3.78-1.46 7.29-3.51 10.9-5.29 8.39-4.12 17.5-6.84 26.8-7.49 9.32-0.654 18.8 0.793 27.4 4.64 11.4 5.17 20.8 14.6 26.6 25.7 5.86 11.1 8.35 23.8 8.02 36.4-0.318 12.1-3.23 24.2-8.47 35.1-2.85-0.816-5.54-2.19-7.87-4.03z" fill="#094"/><path d="m151 777c14.5-9.8 31.4-16.1 48.8-18.3 7.12-0.88 14.5-1.06 21.4 0.927 3.45 0.991 6.76 2.52 9.64 4.66s5.32 4.9 6.94 8.1c1.57 3.11 2.34 6.58 2.6 10.1 0.266 3.47 0.0453 6.97-0.276 10.4-1.06 11.5-3.23 22.8-6.45 33.9" fill="none"/><path d="m154 710c21.5-7.25 44.1-11.1 66.7-11.4 11.9-0.156 24 0.696 35.3 4.41 11.3 3.72 21.9 10.5 28.6 20.4 7.65 11.4 9.41 26.5 4.56 39.4" fill="none"/><path d="m234 545c21.3 2.48 42 9.75 60.2 21.1 23.3 14.6 42.3 35.8 54.5 60.5 2.44 4.92 4.61 9.98 6.56 15.1 3.8 10 6.78 20.4 7.42 31.1 0.68 11.4-1.32 23.1 1.43 34.2 2.39 9.69 8.19 18.1 12.5 27.1 8.94 18.4 11.8 39.8 7.99 59.9" fill="none"/></g><path transform="matrix(1.97,0,0,2.28,-596,-1305)" d="m622 1104c-19.4 5.23-40.9 1.16-57.5-10.1-16-10.8-27.6-28.4-30-47.6-1.44-11.2 0.153-22.7 4.71-33 4.56-10.3 12.1-19.3 21.5-25.5 8.9-5.83 19.3-9.1 29.9-10.4 10.6-1.26 21.3-0.561 31.8 1.08 8.69 1.35 17.3 3.37 25.4 6.99s15.4 8.91 20.6 16c5.49 7.47 8.35 16.7 8.86 26 0.501 9.26-1.28 18.6-4.42 27.3-4.15 11.5-10.7 22.2-19.4 30.9-8.71 8.63-19.6 15.1-31.4 18.3z" fill="#fcdb00" stroke-width="4.646"/><path d="m539 975c-9.09 6.22-19.3 10.8-30.2 12.9-10.8 2.07-22.2 1.55-32.6-2.07-13-4.55-24.2-13.9-31.8-25.5-7.58-11.6-11.7-25.2-12.7-39-0.968-12.8 0.663-25.8 5.5-37.7 4.84-11.9 13-22.5 23.6-29.6 16.1-10.8 37.4-12.9 55.9-6.84 18.4 6.03 33.8 19.7 43.4 36.5 4.8 8.51 8.18 17.9 9.49 27.5 1.31 9.68 0.539 19.7-2.64 28.9-4.93 14.3-15.5 26.2-27.9 34.8z" fill="#fcdb00" stroke-width="9.846"/><g fill="#fcdb00" stroke-width="9.846"><path d="m770 902c-1.46-8.93-1.02-18.1 0.403-27 2.79-17.6 9.67-35 22.2-47.6 9.05-9.14 20.9-15.5 33.5-18.1s25.9-1.46 37.9 3.2c17.2 6.69 31.5 20.7 38.3 37.9 4.33 10.8 5.77 22.8 4.53 34.4s-5.13 22.9-11 33c-9.71 16.8-25.3 30.5-44 35.9-17.5 5.04-37.1 2.29-52.5-7.42s-26.4-26.2-29.3-44.2z"/><path d="m847 929c11.4-3.89 21.4-11.6 27.9-21.7 5.87-8.92 9.03-19.6 8.98-30.3-0.0504-10.7-3.32-21.3-9.27-30.2" stroke-linecap="round"/></g><g fill="#fcdb00" stroke-width="9.846"><path d="m751 1054c7.39 15.8 21.1 28.6 37.5 34.3 14.3 4.94 30.3 4.37 44.6-0.784s26.7-14.7 36.1-26.6c9.19-11.7 15.5-25.8 17.1-40.6 1.56-14.8-1.79-30.2-10.2-42.5-5.86-8.54-14-15.4-23.3-20s-19.6-7.05-29.9-7.39c-12.6-0.412-25.3 2.24-36.6 7.76-11.3 5.51-21.2 13.9-28.5 24.2-7.26 10.3-11.8 22.5-13 35-1.21 12.5 0.96 25.4 6.3 36.8z"/><path d="m803 1066c14.6 1.58 29.9-3.39 40.7-13.3 8.02-7.32 13.7-17.2 15.9-27.8 2.23-10.6 1.02-21.9-3.39-31.9" stroke-linecap="round"/></g><g fill="#fcdb00" stroke-width="9.846"><path d="m717 883c16.9-2.66 34.9-0.102 49.6 8.56 8.16 4.79 15.3 11.4 20.6 19.2 5.27 7.86 8.67 17 9.68 26.4 1.79 16.7-4.15 33.8-14.8 46.8-11.8 14.3-29.1 23.7-47.4 26.3-18.3 2.67-37.4-1.26-53.5-10.4-7.57-4.28-14.6-9.73-20-16.5-6.07-7.65-10-17-11.3-26.6s0.0691-19.7 3.91-28.7c12.6-23.7 36.8-40.9 63.3-45.1z"/><path d="m733 989c13.8-2.68 26.3-11.4 33.7-23.4 5.05-8.28 7.66-18 7.4-27.7-0.251-9.7-3.36-19.3-8.83-27.3" stroke-linecap="round"/></g><g fill="#fcdb00" stroke-width="9.846"><path d="m641 980c-10.9 1.9-22.3 1.64-33-1.26s-20.8-8.48-28.6-16.4c-7.18-7.34-12.3-16.6-15.1-26.5-2.75-9.9-3.14-20.4-1.47-30.5 3.03-18.4 13.1-35.6 27.9-46.8 12.5-9.43 28.2-14.5 43.9-14.3 20.5 0.259 40.8 9.71 53.6 25.7 7.52 9.35 12.4 20.8 14 32.7s-0.105 24.2-4.92 35.2c-4.91 11.2-13 21-22.9 28.2-9.88 7.22-21.5 11.9-33.6 14z"/><path d="m664 878c6.11 7.26 10.1 16.3 11.4 25.7 1.95 14.1-2.37 28.9-11.4 39.9-6.24 7.6-14.6 13.4-24 16.5" stroke-linecap="round"/></g><path d="m369 1049c-16.5-10.2-27.5-28.4-29.8-47.6-2.44-20.3 4.71-41.5 19-56.1 8.04-8.24 18.2-14.4 29.2-17.8s22.8-4.05 34.1-1.98c16.7 3.06 32.2 12.2 42.8 25.4 12.5 15.7 17.7 37.3 12.9 56.9-4.46 18.3-17.3 34.2-33.9 43-16.6 8.88-36.6 10.8-54.8 6.17-6.8-1.74-13.4-4.38-19.4-8.07z" fill="#fcdb00" stroke-width="9.846"/><path d="m448 1137c-17.6-6.03-32.8-19-41.6-35.4-7.22-13.3-10.3-29-7.91-44 2.42-15 10.5-29.1 22.7-38.1 9.78-7.21 21.9-11 34-11.6 12.1-0.581 24.3 1.95 35.6 6.45 16.8 6.69 32.1 18.2 40.5 34.2 5.14 9.84 7.47 21.1 6.74 32.2s-4.51 21.9-10.7 31.1c-8.36 12.3-21.1 21.5-35.3 25.9-14.2 4.39-29.9 3.98-43.9-0.84z" fill="#fcdb00" stroke-width="9.846"/><g fill="#fcdb00" stroke-width="9.846"><path d="m704 1118c-5.05 15.3-5.09 32.7 2.02 47.2 6.05 12.3 17.1 22 29.8 27 12.8 5 27.2 5.43 40.4 1.8s25.2-11.2 34.7-21.2c7.65-8.07 13.7-17.8 17-28.4s3.92-22.2 1.13-32.9c-4.15-16-15.8-29.8-30.7-37.1-17.6-8.72-39.2-8.35-56.9 0.15s-31.3 24.8-37.5 43.4z"/><path d="m766 1172c12-2.2 23-9.94 29-20.6 6.66-11.7 7.28-26.6 1.61-38.7" stroke-linecap="round"/></g><path d="m622 1104c-19.4 5.23-40.9 1.16-57.5-10.1-16-10.8-27.6-28.4-30-47.6-1.44-11.2 0.153-22.7 4.71-33 4.56-10.3 12.1-19.3 21.5-25.5 8.9-5.83 19.3-9.1 29.9-10.4 10.6-1.26 21.3-0.561 31.8 1.08 8.69 1.35 17.3 3.37 25.4 6.99s15.4 8.91 20.6 16c5.49 7.47 8.35 16.7 8.86 26 0.501 9.26-1.28 18.6-4.42 27.3-4.15 11.5-10.7 22.2-19.4 30.9-8.71 8.63-19.6 15.1-31.4 18.3z" fill="#fcdb00" stroke-width="9.846"/><path d="m629 1101c6.06 10.6 14.6 19.8 25.1 26 11.5 6.71 25.3 9.43 38.6 8.11s26.1-6.61 36.7-14.7c18.2-13.7 29.9-36 29.9-58.8 0.044-15.2-4.97-30.3-14-42.5-12.3-16.6-32.1-27.5-52.7-28.9s-41.7 7.06-55.7 22.3c-10.7 11.7-17.2 27-18.4 42.8s2.56 31.9 10.4 45.6z" fill="#fcdb00" stroke-width="9.846"/><path d="m663 1250c-11.8 0.213-23.6-3.1-33.4-9.54s-17.7-16-21.9-27c-4.97-13-4.83-27.6-0.477-40.8 4.35-13.2 12.8-24.9 23.3-33.9 8.09-6.94 17.5-12.4 27.8-15.3s21.4-2.95 31.5 0.45c11.4 3.83 21.1 12 27.5 22.2 6.37 10.2 9.47 22.3 9.59 34.3 0.172 17.5-6.07 35-17.7 48.1-11.7 13-28.7 21.2-46.2 21.5z" fill="#fcdb00" stroke-width="9.846"/><path d="m493 1125c-6.4 12.4-9.49 26.8-6.84 40.5 2.06 10.7 7.56 20.6 15.2 28.3 7.61 7.76 17.3 13.4 27.6 16.7 12.6 4.04 26.3 4.67 39.2 1.7s25-9.53 34.4-18.8c8.42-8.28 14.7-18.7 17.9-30.1 3.18-11.4 3.19-23.6-0.241-34.9-3.94-13-12.4-24.5-23.5-32.4-11.1-7.87-24.6-12.1-38.2-12.1-13.6-0.058-27.1 4-38.5 11.3-11.4 7.28-20.8 17.7-27 29.8z" fill="#fcdb00" stroke-width="9.846"/><path d="m547 1320c-11.5-1.81-22.5-6.57-31.6-13.8-9.1-7.24-16.2-16.9-20.3-27.8-6.09-16.3-5.06-35 2.53-50.6s21.6-28 38-33.8c19.9-7.07 43.1-4.2 60.6 7.74 17.4 11.9 28.5 32.7 28.4 53.9-0.0861 19.1-9.19 37.9-23.9 50-14.7 12.1-34.8 17.4-53.6 14.5z" fill="#fcdb00" stroke-width="9.846"/><path d="m678 1308c6.19 8.89 9.08 20 7.99 30.8-1.46 14.4-10.2 27.9-22.7 35.1s-28.6 7.98-41.7 2.01" fill="#fcdb00" stroke-width="9.846"/><path transform="translate(-.403 -25.4)" d="m608 1400c-9.63-4.82-18-12.1-24.2-21s-10.2-19.1-11.8-29.8c-2.87-19.2 2.37-39.5 14.1-54.9 11.8-15.5 29.9-25.9 49.2-28.3 15.6-1.98 31.9 1.22 45.1 9.7 15.7 10.1 26.4 27.5 29.1 46 2.69 18.5-2.38 37.9-13.1 53.2-9.57 13.7-23.7 24.3-39.7 29-16 4.76-33.8 3.55-48.7-3.93z" fill="#fcdb00" stroke-width="9.846"/><g transform="translate(0 2.3)" fill="none" stroke-linecap="round" stroke-width="4.923"><path d="m515.2 855.4c-2.66 1.464-3.474 4.153-4.664 6.943-1.15 2.67-0.969 5.76-0.143 8.56 1.41 4.76 4.67 8.93 8.92 11.5s9.44 3.5 14.3 2.62c3.43-0.615 6.7-0.7945 9.41-2.975"/><path d="m598.4 872.5c0.892 3.65 4.248 5.635 7.338 7.775 2.24 1.54 4.89 2.48 7.59 2.71s5.47-0.272 7.94-1.41c2.47-1.14 4.64-2.92 6.25-5.11s2.65-4.79 3.02-7.48c0.451-3.29 1.621-6.71 0.1306-9.68"/><path d="m717 890c1.62 3.37 4.45 6.14 7.84 7.7 3.54 1.63 7.69 1.92 11.4 0.805 3.74-1.12 7.04-3.63 9.11-6.94"/><path d="m794 864c3.65-0.586 7.07-2.55 9.41-5.42 2.03-2.48 3.25-5.62 3.42-8.82 0.178-3.2-0.685-6.45-2.43-9.15"/></g><path d="m796 853c1.47-1.83 2.11-4.29 1.73-6.6-0.379-2.31-1.78-4.44-3.75-5.7-4.46-2.75-9.2-5.05-14.1-6.86-12-4.42-24.9-5.83-37.5-8.07-12.9-2.3-25.8-5.52-37.9-10.5-15.1-6.16-29.5-15.5-37.9-29.4-4.12-6.85-6.65-14.7-6.9-22.7s1.84-16.1 6.25-22.8c3.72-5.61 9.03-10.1 15-13.1 6.02-3.02 12.7-4.59 19.5-4.82 4.3-0.15 8.62 0.234 12.8 1.14 3.38-15.9 10.5-30.9 20.5-43.6 3.87-4.9 8.2-9.47 11.4-14.8 2.97-4.96 4.92-10.5 5.7-16.3-4.69 2.78-9.67 5.08-14.8 6.84-11.5 3.93-23.8 5.17-35.9 4.85-9.97-0.261-20.3-1.68-28.7-6.98-6.54-4.1-11.6-10.4-14.8-17.4-3.19-7.03-4.55-14.8-4.57-22.5-0.0359-16 5.77-31.9 15.7-44.4 10.4-13.1 25-22.3 40.6-28.2s32.3-8.58 48.9-10.1c45.7-4.08 92.6 0.827 135 18.2 34.5 14.1 65.4 36 92.8 61.3 17 15.7 32.8 32.9 45.2 52.4 14.7 23.3 24.2 49.4 34.2 75.1 4.01 10.4 8.11 20.7 11.5 31.3 4.98 15.7 8.34 31.8 9.98 48.2-1.32-13.8-3.16-27.6-5.52-41.3-6-34.8-15.4-69.3-30.7-101-16.3-34.1-39.3-65-67.1-90.6-29.7-27.4-64.9-48.8-103-62.5-38.9-14-80.8-19.8-122-17.1-21.4 1.4-42.8 5.09-62.8 12.7s-38.8 19.1-53.4 34.9c-11.9 12.8-21 28.9-22.4 46.4-1.06 13.2 2.37 26.5 8.07 38.5 2.97 6.25 6.56 12.2 10.7 17.7-8.06-9.89-16.8-19.2-26.2-27.8-5.7-5.24-11.6-10.2-17.9-14.7-3.55-2.52-7.3-4.9-11.5-6.01-2.1-0.555-4.31-0.779-6.46-0.52-2.16 0.26-4.27 1.01-6.03 2.29-2.66 1.94-4.36 4.96-5.45 8.07-1.3 3.72-1.83 7.71-1.42 11.6 0.409 3.92 1.77 7.74 4.04 11 1.55 2.2 3.49 4.08 5.33 6.04s3.62 4.03 4.75 6.47c0.997 2.15 1.46 4.55 1.33 6.91-34.1-13.6-70.4-21.9-107-24.5-50.8-3.55-103 4.15-149 26.2-29.4 14.1-56 34-77.4 58.5-14 16-25.7 33.8-36.3 52.1-10.6 18.4-20.1 37.4-27.4 57.3-5.09 14-9.05 28.3-11.8 42.9 6.63-27 17.1-53.1 30.9-77.1 27.8-48.3 69.9-88.8 120-112 39.1-18.2 82.7-26.2 126-25.4 45.8 0.878 91.3 11.6 133 30.3 15 6.68 29.6 14.4 45.6 18.2 8.31 1.94 16.9 2.76 25.4 2.42-10.3 2.63-19.8 8.31-27 16.1-10 10.9-15.3 25.2-21.4 38.7-8.91 19.7-20.2 38.2-33.5 55.3-14.3 18.3-30.8 34.7-49.2 48.8 0.912 4.11 3.61 7.78 7.26 9.88 3.32 1.91 7.37 2.5 11.1 1.61 7.86-6.4 15.3-13.3 22.2-20.8 6.35-6.83 12.3-14.1 19.6-20 3.21-2.59 6.66-4.89 10.3-6.86 0.538 2.65 1.42 5.24 2.62 7.66 1.62 3.28 3.8 6.24 5.85 9.28 2.48 3.67 4.8 7.51 6.25 11.7 1.28 3.7 1.86 7.64 1.71 11.6 1.06 1.27 2.49 2.24 4.07 2.77 1.58 0.521 3.3 0.592 4.91 0.203 1.93-0.466 3.69-1.59 4.93-3.15 1.23-1.56 1.92-3.53 1.93-5.52 0.239-6.77-1.29-13.6-4.4-19.6-3.64-7.06-9.4-13-12-20.5-2.25-6.56-1.86-13.8-0.285-20.5 1.5-6.43 4.03-12.6 6.84-18.5 0.768-1.63 1.57-3.26 2.65-4.69 1.09-1.43 2.5-2.68 4.19-3.29 1.61-0.586 3.4-0.574 5.06-0.162 1.66 0.413 3.21 1.21 4.64 2.16 3.59 2.39 6.49 5.75 8.6 9.51s3.44 7.93 4.24 12.2c1.54 8.24 1.05 16.7 1.14 25.1 0.066 6.31 0.462 12.6 1.19 18.9l15.2 5.09c-0.475-4.54-0.947-9.08-1.42-13.6-0.41-3.97-0.798-8.11 0.619-11.8 0.332-0.875 0.765-1.72 1.36-2.44s1.38-1.31 2.27-1.6c1.22-0.395 2.57-0.204 3.76 0.271s2.25 1.22 3.3 1.95c9.64 6.72 19.3 13.3 29 20 7.11 4.87 14.4 9.91 19.4 16.9 5.15 7.24 7.56 16.4 6.66 25.2 0.759 2.17 2.39 4.01 4.44 5.04 1.7 0.851 3.67 1.14 5.54 0.819 1.87-0.324 3.63-1.26 4.94-2.63 1.2-6.34 0.85-13-1.01-19.2-1.36-4.53-3.51-8.79-5.85-12.9-2.69-4.74-5.66-9.32-8.87-13.7 5.71 0.244 11.4 0.311 17.1 0.202 9.22-0.177 18.6-0.797 27.5 1.52 7.94 2.06 15.3 6.46 20.8 12.5 2.62 0.119 5.27-1.08 6.91-3.13z" fill="#094" stroke-linecap="round" stroke-linejoin="round" stroke-width="9.846"/></g><path d="m4 4v280c20 260 236 310 246 312 10-2 226-52 246-312v-280z" fill="none" stroke="#000" stroke-width="8"/></svg>
