<svg xmlns="http://www.w3.org/2000/svg" width="500" height="600" version="1.0"><defs><clipPath id="id0"><path d="M14200000 5150000s192520 531420 470000 807850c276950 276430 478730 433880 662120 497520 183380 63600 243430 71380 468350 106740 224910 35370 538010 235520 538010 235520s-93220-443930-285140-653670c-191920-210000-342300-390000-783210-603570-440870-213570-539180-210000-748800-250000-210000-39660-320850-140000-320850-140000z"/></clipPath><clipPath id="id1"><path d="M14200000 5150000s192520 531420 470000 807850c276950 276430 478730 433880 662120 497520 183380 63600 243430 71380 468350 106740 224910 35370 538010 235520 538010 235520s-93220-443930-285140-653670c-191920-210000-342300-390000-783210-603570-440870-213570-539180-210000-748800-250000-210000-39660-320850-140000-320850-140000z"/></clipPath><clipPath id="id2"><path d="M17900000 7710000c168520 651560 60740 1650000-524010 2080000-361860 267500-703730 314770-1000000 391560-300000 76830-496090 173470-496090 173470s-54450-75370-20210-332640c34250-257270 476240-795050 890000-1200000 413430-405860 836590-748460 955830-881240 119200-132780 199070-230000 199070-230000z"/></clipPath><clipPath id="id3"><path d="M17900000 7710000c168520 651560 60740 1650000-524010 2080000-361860 267500-703730 314770-1000000 391560-300000 76830-496090 173470-496090 173470s-54450-75370-20210-332640c34250-257270 476240-795050 890000-1200000 413430-405860 836590-748460 955830-881240 119200-132780 199070-230000 199070-230000z"/></clipPath><clipPath id="id4"><path d="M13600000 896020s-73750 109400-60270 321510c13530 212190-380 450000-126300 653580-125920 203430-215530 317730-431820 471310-216340 153580-349200 298600-349200 298600s14650-73730-13140-307410c-27780-233680 38260-565710 187390-810950 149100-245230 300000-352700 451900-460000 151460-107550 341440-166420 341440-166420z"/></clipPath><style>.str1{stroke:#2b2828;stroke-width:5}.str0{stroke:#454646;stroke-width:50}.fil5{fill:#95979a}.fil2{fill:#131516;fill-opacity:.568627}.fil6{fill:url(#id0)}.fil4{fill:url(#id1)}.fil1{fill:url(#id2)}.fil3{fill:url(#id3)}.fil0{fill:url(#id4)}</style></defs><path fill="#fff" stroke="#000" stroke-linejoin="round" stroke-width="8" d="M4 4v280c20 260 236 310 246 312 10-2 226-52 246-312V4z"/><g stroke="#000"><path stroke-linecap="round" stroke-linejoin="round" d="M262 31.5c-.375.009-.75.03-1.12.063-1.4.124-2.84.444-3.91 1.35-.858.728-1.39 1.77-2.19 2.56-.504.502-1.11.9-1.77 1.16-3.4-.947-6.91-1.48-10.4-1.58-4.12-.122-8.23.339-12.3.777-4.17.446-8.4.882-12.3 2.37-2.15.814-4.21 1.97-5.73 3.69-.709.801-1.29 1.72-1.71 2.7-4.77-.29-9.53-.577-14.3-.858-1.49-.087-2.99-.174-4.48-.13-2.55.075-5.09.535-7.64.527-3.27-.01-6.49-.782-9.62-1.71-1.43-.425-2.86-.888-4.35-1.05a11.156 11.156 0 0 0-3.95.264c-.013 1.15.07 2.3.246 3.44.387 2.49 1.26 4.95 2.89 6.87 1.06 1.24 2.39 2.22 3.49 3.42 1.75 1.93 2.8 4.38 3.72 6.82.418 1.11.828 2.25 1.58 3.16.287.348.62.66.988.921 2.61.487 5.2 1.06 7.77 1.71 4.96 1.27 9.86 2.85 14.6 4.88 2.96 1.28 5.88 2.75 8.37 4.81 3.31 2.75 5.8 6.63 6.33 10.9.227 1.86.07 3.81-.791 5.47a7.052 7.052 0 0 1-1.68 2.11c.27.421.459.892.559 1.38a4.105 4.105 0 0 1-.66 3.14c-.658.818-1.26 1.68-1.79 2.59-.3.507-.581 1.02-.84 1.55a41.435 41.435 0 0 0-2.63-.264c-5.8-.39-11.6.46-17.4.791-3.76.214-7.54.212-11.3.725-1.74.24-3.47.593-5.17 1.05a8.472 8.472 0 0 0 1.52 5.67c.249.35.525.681.824.988 5.01.501 10 1 15 1.51 4.64.472 9.28.95 13.9 1.58 2.33.318 4.69.69 6.79 1.75a11.51 11.51 0 0 1 3.26 2.47c.509.555.967 1.16 1.3 1.84.33.677.531 1.42.516 2.18-.017.839-.3 1.66-.719 2.38-.419.726-.97 1.37-1.55 1.97-2.42 2.49-5.43 4.33-8.46 6.03-1.11.619-2.23 1.22-3.39 1.71-2.17.917-4.49 1.43-6.82 1.84-1.36.24-2.75.446-4.12.265a7.464 7.464 0 0 1-3.95-1.81c.575 1.62 1.19 3.22 1.85 4.81.52 1.26 1.07 2.52 1.88 3.62 1.1 1.5 2.63 2.63 4.22 3.59.628.38 1.27.74 1.92 1.08-1.93 1.64-3.86 3.29-5.78 4.94-.545.469-1.1.948-1.77 1.21-.832.33-1.77.298-2.65.115s-1.71-.51-2.57-.768c-2.68-.805-5.51-.916-8.29-1.21-2.92-.312-5.88-.855-8.48-2.23-2.59-1.38-4.7-3.52-7.27-4.94-3.34-1.85-7.22-2.37-10.9-3.35-2.73-.73-5.41-1.75-7.73-3.35-3.22-2.23-5.58-5.48-8.21-8.38-.898-.988-1.85-1.96-2.44-3.16-.916-1.87-.847-4.05-.66-6.13.174-1.93.432-3.87.264-5.8-.266-3.05-1.6-5.95-3.49-8.37-2.48-3.17-5.89-5.54-9.62-7.05-3.38-1.37-7.03-2.04-10.7-2.04-2.46-.001-4.94.305-7.26 1.13-2.32.824-4.47 2.18-6.05 4.07-1.43 1.72-2.34 3.81-3.23 5.86-.937 2.17-1.89 4.38-2.17 6.72-.27 2.2.058 4.45.658 6.59 1.09 3.9 3.06 7.48 4.94 11.1 1.18 2.25 2.34 4.55 2.77 7.05.516 3.02-.076 6.1-.264 9.16-.215 3.51.116 7.08 1.25 10.4.644 1.89 1.57 3.72 2.96 5.14.732.743 1.59 1.37 2.55 1.78s2.01.615 3.05.523c.927-.082 1.84-.393 2.77-.33.637.043 1.25.264 1.81.584.552.32 1.04.739 1.49 1.2.671.687 1.25 1.47 1.71 2.31a8.332 8.332 0 0 0-3.43 2.11c-.738.758-1.33 1.66-2.11 2.37a6.335 6.335 0 0 1-2.64 1.45c1.56.132 3.12.197 4.68.197 1.9 0 3.79-.1 5.67-.396 2.19-.35 4.33-.968 6.52-1.32 1.29-.204 2.59-.315 3.89-.33a6.83 6.83 0 0 1-2.17 4.15c-1.38 1.24-3.2 1.86-4.94 2.5-1.06.394-2.12.812-3.16 1.25.888.218 1.79.372 2.7.46 2.52.248 5.06-.007 7.58-.33 2.92-.373 5.83-.841 8.76-1.05 1.1-.079 2.19-.122 3.29-.13a4.38 4.38 0 0 1-.33 2.37c-.363.822-.972 1.52-1.65 2.11-1.57 1.39-3.51 2.29-5.27 3.43a22.3 22.3 0 0 0-2.31 1.71c1.21.234 2.47.234 3.69 0 1.11-.215 2.18-.623 3.29-.857 2.74-.578 5.57-.083 8.37 0 4.35.129 8.65-.743 13-1.19 1.16-.12 2.33-.207 3.49-.264a7.722 7.722 0 0 1-1.45 4.08c-1.06 1.47-2.59 2.51-4.02 3.62-1.23.959-2.39 1.99-3.49 3.1 2.81-1.44 5.89-2.39 9.03-2.77 3.78-.46 7.59-.113 11.4 0 3.58.107 7.19.008 10.7.527 1.45.213 2.89.529 4.3.945-.586 1.5-1.02 3.07-1.3 4.66-.148.839-.264 1.72-.744 2.42-.434.636-1.12 1.06-1.58 1.68-.3.402-.494.87-.746 1.3-.559.96-1.4 1.73-2.32 2.36-.918.627-1.92 1.12-2.9 1.65-3.21 1.73-6.24 3.79-9.5 5.4-5.42 2.68-11.4 4.07-17 6.15-3.96 1.45-7.84 3.25-12 3.82-1.11.15-2.25.21-3.35 0-1.17-.225-2.27-.751-3.28-1.39-1.01-.643-1.93-1.4-2.87-2.14-3.09-2.44-6.34-4.68-9.6-6.89-1.52-1.03-3.05-2.06-4.7-2.88-1.65-.812-3.43-1.4-5.27-1.5-1.74-.096-3.51.263-5.06 1.07a8.92 8.92 0 0 0-3.7 3.59c-.815 1.49-1.16 3.19-1.25 4.89s.074 3.39.23 5.08c.637 6.87 1.18 13.8 1.16 20.7-.004 1.54-.035 3.07.117 4.6.152 1.53.496 3.06 1.2 4.42 1.02 1.97 2.78 3.53 4.81 4.41 2.3 1.01 4.87 1.17 7.38 1.38 3.06.258 6.17.622 8.96 1.91 3.51 1.62 6.2 4.57 9.22 6.98 2.53 2.02 5.47 3.75 8.7 4.02 3.52.294 6.95-1.17 9.95-3.03 1.52-.947 2.98-2 4.35-3.16.543 1.25.878 2.59.988 3.95.144 1.78-.096 3.56-.264 5.34a66.683 66.683 0 0 0-.264 4.15c.549-1.14 1.21-2.22 1.98-3.23 1.49-1.96 3.33-3.6 5.07-5.34 2.51-2.5 4.82-5.21 7.51-7.51 1.34-1.14 2.77-2.18 4.28-3.1a9.483 9.483 0 0 1 1.38 3.62c.334 2.07-.019 4.17-.197 6.26a37.58 37.58 0 0 0-.131 2.63c.35-.601.747-1.17 1.19-1.71 1.2-1.47 2.69-2.67 4.08-3.95 2.17-2 4.14-4.25 5.54-6.85.432-.807.806-1.64 1.12-2.5.694-.192 1.4-.346 2.11-.461 1.13-.184 2.3-.272 3.36-.725a5.22 5.22 0 0 0 1.65-1.12c.568.905.889 1.96.922 3.03.047 1.53-.485 3.02-.594 4.55a8.262 8.262 0 0 0 .133 2.17c.405-.924.938-1.79 1.58-2.57.96-1.16 2.15-2.11 3.29-3.1 2.32-1.98 4.51-4.13 6.32-6.59 1.63-2.21 2.97-4.68 5.01-6.52 2.36-2.12 5.44-4.06 8.61-3.85 1.1 2.82 2.67 6.34 4.37 8.86 3.16 4.67 7.24 8.63 11.1 12.8 2.42 2.62 4.74 5.33 6.97 8.12a19.414 19.414 0 0 1-3.35 4.01c-2.17 1.97-4.78 3.42-7.55 4.38-3.5 1.22-7.22 1.66-10.9 2.17s-7.39 1.08-10.8 2.54a22.323 22.323 0 0 0-9.03 7.12c-2.57 3.44-4.11 7.58-4.94 11.8-.563 2.84-.822 5.73-.922 8.63-.169 4.89.112 9.79.855 14.6.485 3.15 1.17 6.3 1.12 9.49-.08 5.43-2.31 10.7-5.6 15-.518.68-1.07 1.35-1.7 1.92s-1.37 1.05-2.18 1.31a4.86 4.86 0 0 1-2.11.197c.195.54.541 1.02.988 1.38.555.446 1.25.693 1.96.795.704.102 1.42.066 2.13-.004 1.78-.176 3.53-.57 5.27-.988 1.63-.393 3.26-.811 4.88-1.25.981 1.79 1.51 3.82 1.52 5.86.013 3.13-1.16 6.14-2.37 9.03-.693 1.65-1.43 3.35-2.7 4.61-1.54 1.54-3.69 2.29-5.8 2.83a45.02 45.02 0 0 1-8.89 1.38c1.85.615 3.68 1.32 5.47 2.11 2.27 1 4.49 2.15 6.85 2.9 2.69.857 5.55 1.19 8.37.988 1.18-.085 2.34-.261 3.49-.527.223.699.268 1.45.131 2.17-.175.923-.641 1.77-1.21 2.52s-1.24 1.41-1.89 2.09c-2.8 2.95-5.29 6.36-8.9 8.24-2.4 1.25-5.19 1.72-7.87 1.4a14.204 14.204 0 0 1-4.96-1.56c1.69 2.01 3.68 3.77 5.87 5.22 1.93 1.27 4.01 2.3 6.15 3.17 2 .816 4.06 1.5 6.15 2.05a8.068 8.068 0 0 1-2.14 4.1c-1.04 1.06-2.36 1.81-3.76 2.3-1.4.493-2.87.735-4.35.865-2.85.25-5.77.082-8.48-.838a15.938 15.938 0 0 1-5.22-2.98c.027 1.87.476 3.73 1.3 5.4 1.18 2.39 3.09 4.34 5.12 6.06 1.71 1.44 3.6 2.77 5.78 3.26a8.37 8.37 0 0 0 2.33.188 7.414 7.414 0 0 1-1.49 4.84c-.917 1.2-2.19 2.1-3.57 2.73-1.38.628-2.86.996-4.35 1.27-2.67.498-5.39.71-8.11.559-6.14-.346-12.1-2.6-17.1-6.15-1.68-1.19-3.29-2.53-5.22-3.26-2.27-.853-4.78-.766-7.17-.373-2.44.4-4.89 1.14-6.8 2.7-1.92 1.56-3.15 3.86-3.69 6.28-.533 2.42-.399 4.94.098 7.37.993 4.85 3.38 9.29 4.8 14 1.44 4.83 1.9 10 4.35 14.4 1.57 2.83 3.89 5.19 6.39 7.25 1.99 1.65 4.15 3.15 6.59 4.02 2.85 1.02 5.93 1.12 8.96 1.25 3.79.165 7.59.393 11.3.988 2.45.39 4.92.948 7.11 2.11 1.91 1.01 3.59 2.45 5.6 3.23 2.36.914 5.05.826 7.45 0 2.61-.898 4.84-2.6 7.25-3.95 1.67-.937 3.42-1.71 5.24-2.3.224 2 .566 4 1.02 5.96.33 1.43.733 2.87 1.55 4.09.268.4.586.78.992 1.04.203.13.426.228.662.279.236.05.485.054.719-.004.283-.07.545-.231.725-.461.152-.195.24-.435.275-.68.035-.245.019-.495-.028-.738-.093-.486-.3-.941-.445-1.41-.372-1.22-.316-2.55.08-3.76s1.12-2.3 2.03-3.19c1.06-1.05 2.37-1.84 3.36-2.96 1.13-1.29 1.76-2.93 2.44-4.51.375-.876.77-1.74 1.19-2.6 1.34.28 2.61.923 3.62 1.84 1.3 1.18 2.17 2.77 3.29 4.12.554.665 1.18 1.28 1.92 1.73.738.452 1.6.735 2.46.705a3.66 3.66 0 0 0 1.32-.297 16.56 16.56 0 0 1-4.02-6.92c-.792-2.75-.857-5.66-.527-8.5.333-2.87 1.06-5.69 1.98-8.43a61.29 61.29 0 0 1 1.71-4.54c1.38 4.46 3.95 8.55 7.38 11.7 1.37 1.27 2.88 2.4 4.48 3.36-1.3-2.4-2.12-5.06-2.37-7.77-.384-4.05.452-8.1 1.38-12.1.728-3.09 1.52-6.16 2.37-9.22 2.65 2.51 5.6 4.7 8.76 6.52 1.1.633 2.23 1.22 3.38 1.76a17.747 17.747 0 0 0-1.02-2.7c-1.2-2.51-2.99-4.72-4.1-7.27-1.97-4.54-1.63-9.71-1.03-14.6.361-2.95.803-5.91 1.68-8.76 1.8-5.86 5.35-11 8.85-16 .956-1.38 1.92-2.76 2.61-4.29.673-1.49 1.08-3.08 1.49-4.66.41-1.56.84-3.17.561-4.75-.247-1.4-1.02-2.65-1.68-3.91-1.46-2.84-2.34-5.93-3.07-9.04-.843-3.57-1.5-7.18-2.05-10.8-.868-5.77-1.45-11.6-1.58-17.4-.054-2.29-.03-4.64.746-6.8.681-1.89 1.91-3.54 3.26-5.03 3.01-3.31 6.74-6 10.9-7.64 5.15-2.03 10.9-2.43 16.3-1.12 1.38.722 2.61 1.75 3.56 2.98 2.03 2.63 2.75 6 3.56 9.22.797 3.16 1.75 6.37 1.51 9.62-.097 1.35-.406 2.7-1.02 3.91-.616 1.21-1.55 2.28-2.73 2.94a6.013 6.013 0 0 1-3.56.725c2.05.66 4.18 1.08 6.33 1.25 4.14.327 8.41-.313 12.1-2.3 1.61-.883 3.09-2.02 4.35-3.36.644 2.75.576 5.65-.197 8.37-.59 2.07-1.6 4.05-3.1 5.6-.778.809-1.73 1.52-2.83 1.71a3.537 3.537 0 0 1-1.91-.197 7.64 7.64 0 0 0 4.28 1.78c1.4.117 2.8-.154 4.15-.528 2.59-.717 5.08-1.83 7.25-3.43 1.74-1.28 3.25-2.87 4.46-4.66.925.123 1.83.407 2.65.838a7.758 7.758 0 0 1 3.36 3.4c.621 1.27.858 2.69.977 4.1.125 1.49.111 3.05-.559 4.38-.619 1.23-1.75 2.15-3 2.73-1.25.58-2.62.85-3.98 1.05a41.69 41.69 0 0 1-5.08.42c.556.357 1.13.684 1.72.98 3.14 1.56 6.66 2.2 10.2 2.42 1.37.086 2.75.113 4.1-.075 1.36-.187 2.7-.596 3.86-1.32 1.37-.857 2.43-2.12 3.4-3.4a54.74 54.74 0 0 0 3.07-4.49 8.097 8.097 0 0 1 2.8 4.41c.501 2.1.142 4.29-.166 6.42-.23 1.6-.445 3.24-1.19 4.68a7.086 7.086 0 0 1-3.72 3.33c-1.46.562-3.11.62-4.61.164 1.91.756 3.87 1.39 5.86 1.91 1.71.444 3.53.798 5.24.33 1.35-.37 2.51-1.22 3.59-2.11.596-.489 1.18-.995 1.75-1.52a33.72 33.72 0 0 1 4.89 11.1c.926 3.93 1.14 7.98 1.3 12 .132 3.17.24 6.37-.279 9.5-.617 3.72-2.15 7.33-4.66 10.2-1.12 1.26-2.44 2.37-4.01 2.98-1.41.556-2.96.682-4.48.684-1.52.001-3.04-.117-4.56-.03-2.63.147-5.23.925-7.45 2.33-2.99 1.89-5.24 4.87-6.43 8.2-1.61 4.5-1.31 9.56.271 14.1s4.38 8.52 7.65 12c1.95 2.08 4.2 4.07 6.97 4.75 1.67.408 3.43.312 5.12-.013s3.32-.873 4.96-1.37c3.79-1.15 7.69-2.05 11.2-3.93 1.22-.66 2.4-1.45 3.73-1.86 2.12-.667 4.4-.342 6.61-.465 3.33-.184 6.54-1.39 9.41-3.08 2.33-1.37 4.49-3.06 6.24-5.12 2.02-2.39 3.49-5.27 4.07-8.34.398-2.09.39-4.25.1-6.36-.239-1.73-.669-3.47-.43-5.2.08-.573.234-1.14.508-1.65.273-.51.672-.96 1.17-1.25a2.965 2.965 0 0 1 1.76-.354 3.88 3.88 0 0 1 1.7.617c1.15.74 1.9 1.94 2.77 3 .612.745 1.3 1.43 2.04 2.04a9.597 9.597 0 0 0 2.04-3.95c.486-1.98.33-4.05 0-6.06-.287-1.75-.699-3.47-1.05-5.21a67.83 67.83 0 0 1-1.19-8.37c-.06-.81-.106-1.62-.133-2.44a5.44 5.44 0 0 1 4.22.857c.781.551 1.4 1.31 1.87 2.14.47.833.788 1.74 1.03 2.67.261 1.02.427 2.06.594 3.1l.328 2.04a8.476 8.476 0 0 0 1.58-3.36c.59-2.65-.12-5.4-.33-8.1-.118-1.52-.082-3.08-.527-4.54-.467-1.53-1.45-2.88-2.63-3.95-.354-.32-.728-.62-1.07-.957-.34-.336-.648-.713-.842-1.15-.23-.519-.288-1.1-.266-1.67.023-.568.123-1.13.2-1.69.18-1.33.225-2.68.132-4.02a4.396 4.396 0 0 1 4.08-.527c1.12.432 2.01 1.32 2.64 2.34.626 1.02 1.01 2.17 1.32 3.33.42 1.56.727 3.14.922 4.74.87-3.05 1.14-6.27.791-9.42-.396-3.57-1.61-7.08-3.69-10a18.78 18.78 0 0 0-5.4-5.07c-.3-4.6-1.01-9.17-2.11-13.6-.93-3.78-2.14-7.48-3.29-11.2-1.07-3.44-2.11-6.95-4.02-10-2.11-3.39-5.16-6.06-7.97-8.89a62.496 62.496 0 0 1-2.77-2.96c-.58-.672-1.14-1.36-1.78-1.98s-1.35-1.17-2.18-1.51c-.947-.389-1.99-.48-2.96-.79-1.37-.435-2.57-1.29-3.61-2.27s-1.94-2.11-2.88-3.19a55.993 55.993 0 0 0-5.88-5.85c-4.29-3.68-9.1-6.72-13.3-10.5-3.85-3.43-7.16-7.43-10.1-11.7-1.34-1.97-2.61-4.03-3.21-6.34a12.006 12.006 0 0 1-.232-4.98c1.41.34 2.84.574 4.29.698 2.32.2 4.66.116 6.99-.046 2.87-.2 5.81-.545 8.34-1.91 2.58-1.39 4.51-3.73 6.29-6.05 1.31-1.71 2.59-3.46 3.49-5.4 1.1-2.35 1.62-4.95 1.72-7.55.075-1.98-.096-3.97-.465-5.92-.058-.305-.12-.61-.24-.896-.119-.286-.3-.555-.553-.734a1.207 1.207 0 0 0-.592-.22 1.106 1.106 0 0 0-.619.126c-.254.138-.442.377-.574.635-.132.257-.216.537-.31.81-.944 2.72-3.04 4.93-5.5 6.43-3.63 2.21-8.01 2.97-12.3 2.7-5.06-.32-10.1-2.09-14-5.31-2.32-1.91-4.22-4.29-5.64-6.94-1.5-2.81-2.44-5.89-4.01-8.66-1.7-3-4.11-5.58-6.94-7.55a25.08 25.08 0 0 0-3.36-1.96c-.407-3.7-.7-7.41-.886-11.1-.144-2.91-.225-5.85-.979-8.67-.74-2.76-2.1-5.31-3.17-7.96-1.41-3.52-2.29-7.22-3.21-10.9-.755-3-1.55-5.98-2.42-8.95-.957-3.24-2.06-6.52-4.15-9.18-1.18-1.5-2.65-2.76-3.91-4.19-1.92-2.19-3.36-4.85-3.77-7.73-.465-3.24.381-6.52 1.21-9.69.94-3.58 1.87-7.17 2.4-10.8.303-2.08.477-4.19.461-6.29-.021-2.84-.39-5.68-1.22-8.4-.599-1.96-1.44-3.85-2.57-5.57-.68-1.03-1.47-2.02-1.84-3.2-.322-1.03-.297-2.13-.43-3.2-.238-1.91-.992-3.73-2.04-5.34-.796-1.22-1.76-2.33-2.54-3.56-.6-.948-1.09-1.97-1.45-3.03a6.368 6.368 0 0 1 2.54-1.29c.756-.186 1.55-.234 2.27-.526.175-.071.345-.157.492-.275.147-.118.271-.271.332-.45a.74.74 0 0 0 .023-.411.623.623 0 0 0-.22-.346.836.836 0 0 0-.48-.146c-.17-.007-.339.014-.509.015-.66.004-1.3-.305-1.79-.736-.5-.43-.882-.98-1.24-1.54-1.24-1.95-2.2-4.06-3.23-6.13-.323-.65-.652-1.3-.988-1.94 1.24.257 2.53.222 3.76-.1 1.04-.272 2.01-.746 2.9-1.35.44-.298.86-.63 1.25-.987a29.28 29.28 0 0 1-2.5-2.87c-1.25-1.62-2.32-3.37-3.29-5.17-.935-1.73-1.79-3.57-1.88-5.54-.019-.451.003-.903.067-1.35l-1.91.428a5.724 5.724 0 0 1 .46-3.69c.669-1.35 1.84-2.38 2.7-3.62.996-1.43 1.55-3.12 2.23-4.72.687-1.63 1.51-3.19 2.42-4.71.567-.937 1.18-1.87 1.45-2.94.262-1.04.175-2.14-.122-3.17-.297-1.03-.8-1.98-1.37-2.89a19.866 19.866 0 0 0-4.43-4.98c-1.39-1.11-2.96-2.05-4.7-2.42-1.43-.307-2.92-.222-4.38-.373-2.6-.27-5.13-1.29-7.73-1.07-.817.068-1.65.26-2.45.07a2.547 2.547 0 0 1-1.61-1.19c-.204-.357-.312-.761-.371-1.17-.06-.407-.071-.82-.094-1.23a23.15 23.15 0 0 0-.14-1.56 9.02 9.02 0 0 0 2.89-4.38c.453-1.55.474-3.24-.095-4.75-.448-1.19-1.24-2.22-2.14-3.12-1.88-1.87-4.3-3.23-6.89-3.77-1.1-.232-2.23-.321-3.35-.295zm-2.52 5.53c.475 0 .953.028 1.43.041.938.027 1.88-.002 2.81.088.934.09 1.87.307 2.68.785.707.419 1.29 1.03 1.74 1.72.451.688.773 1.45 1.02 2.24.09.28.172.567.189.86.018.296-.033.602-.189.853-.175.279-.48.47-.807.51-.258.03-.521-.03-.756-.141a2.916 2.916 0 0 1-.645-.436c-.85-.722-1.5-1.66-2.36-2.37-.85-.712-1.87-1.18-2.91-1.56-.63-.23-1.27-.43-1.93-.55-.72-.13-1.46-.167-2.18-.06-.261.039-.525.095-.785.051a.799.799 0 0 1-.361-.152.55.55 0 0 1-.205-.328.585.585 0 0 1 .064-.365c.057-.112.14-.209.23-.297.417-.407.98-.636 1.55-.754a6.978 6.978 0 0 1 1.41-.123zm-90.7 4.92c1.17-.015 2.34.232 3.45.607.726.245 1.43.545 2.13.867.492.228.98.467 1.46.717.719 1.04 1.32 2.15 1.78 3.33.388.986.679 2.01.822 3.06.119.874.136 1.77-.031 2.64a6.361 6.361 0 0 1-.924 2.27 5.424 5.424 0 0 1-2.5-.064c-.716-.19-1.39-.525-2.02-.914a12.892 12.892 0 0 1-3.52-3.2 12.688 12.688 0 0 1-2.27-4.81c-.322-1.39-.4-2.83-.23-4.25a7.86 7.86 0 0 1 1.86-.248zm65.6 6.47c1.24-.031 2.48.134 3.71.336 2.19.361 4.39.843 6.38 1.82 1.43.697 2.73 1.64 3.91 2.7.475.428.945.897 1.17 1.49.114.299.165.626.115.941a1.35 1.35 0 0 1-.449.824 1.398 1.398 0 0 1-.938.303 2.087 2.087 0 0 1-.953-.287c-.583-.331-1.02-.86-1.51-1.32-1.91-1.8-4.54-2.57-7.08-3.21-1.46-.366-2.93-.711-4.43-.793-.349-.02-.713-.02-1.02.141a1.086 1.086 0 0 0-.561.744 14.421 14.421 0 0 1-3.03 4.47c-.724.726-1.55 1.39-2.52 1.72a2.16 2.16 0 0 1-.771.143c-.263-.009-.532-.097-.719-.283a.966.966 0 0 1-.266-.555 1.32 1.32 0 0 1 .074-.613c.14-.393.42-.716.703-1.02.508-.548 1.04-1.07 1.54-1.63.893-.997 1.68-2.09 2.33-3.26.21-.377.408-.763.648-1.12.241-.358.53-.692.89-.93.453-.3.997-.432 1.54-.512.408-.06.82-.093 1.23-.104zm3.88 4.28c.436.022.869.138 1.24.361.455.271.812.692 1.04 1.17.232.476.346 1 .373 1.53.052 1.01-.212 2.04-.791 2.87-.394.563-.925 1.02-1.51 1.38-.418.255-.866.46-1.33.604-.466.143-.958.225-1.44.16a2.142 2.142 0 0 1-.967-.373 2.333 2.333 0 0 1-.678-.807 4.294 4.294 0 0 1-.359-.998 5.464 5.464 0 0 1-.166-1.15c-.026-1.06.355-2.11 1.01-2.95a4.82 4.82 0 0 1 2.29-1.62 3.674 3.674 0 0 1 1.29-.18zm33.5 2.59c.241.007.481.03.719.068.951.154 1.86.564 2.61 1.17-.898.603-1.89 1.06-2.94 1.35-1.71.476-3.55.492-5.26.047a5.527 5.527 0 0 1 4.87-2.637zm11.1 1.76a2.63 2.63 0 0 1 .402.022c.267.036.535.135.725.326.212.214.306.529.277.828a1.395 1.395 0 0 1-.377.803c-.254.274-.591.455-.934.604-.343.148-.699.268-1.03.449-.456.253-.847.616-1.32.84-.386.184-.813.267-1.24.326-.424.06-.852.098-1.27.2-.892.222-1.68.728-2.49 1.17-1.02.564-2.1 1.03-3.11 1.61-.969.554-1.89 1.21-2.6 2.08-.151.184-.291.376-.459.544a1.412 1.412 0 0 1-.596.379c-.216.06-.444.047-.668.035s-.452-.023-.666.045c-.241.075-.441.243-.664.36-.158.084-.33.144-.508.165s-.36.003-.527-.061a1.002 1.002 0 0 1-.572-.57 2.517 2.517 0 0 1 .047-1.63c.28-.741.889-1.3 1.49-1.82 1.11-.946 2.26-1.84 3.49-2.61 1.96-1.22 4.11-2.11 6.29-2.89 1.44-.514 2.91-.988 4.43-1.12.487-.042.977-.048 1.46-.074.135-.007.269-.016.404-.018zm-37.9 3.31a1.75 1.75 0 0 1 .479.055c.156.042.304.112.43.213a.914.914 0 0 1 .285.385c.06.159.068.334.035.5s-.105.324-.199.465c-.188.282-.457.499-.72.713-.612.495-1.21 1-1.86 1.44-1.39.938-2.99 1.54-4.62 1.93-1.5.363-3.12.55-4.56 0-.61-.232-1.17-.588-1.67-.998-.718-.582-1.34-1.27-2.05-1.86-.175-.145-.358-.287-.48-.477a.79.79 0 0 1-.126-.311.562.562 0 0 1 .045-.332.607.607 0 0 1 .22-.236c.09-.06.191-.1.294-.135.822-.282 1.72-.178 2.57.01.848.188 1.69.457 2.55.502.608.031 1.21-.05 1.82-.141 1.7-.258 3.39-.61 5.03-1.12.677-.21 1.35-.446 2.05-.56.16-.025.321-.044.482-.046zm49 5.43a.983.983 0 0 1 .494.193c.145.106.265.242.367.389.379.544.518 1.23.525 1.89.007.663-.11 1.32-.199 1.98-.196 1.45-.269 2.94-.84 4.29-.503 1.18-1.36 2.18-2.23 3.12-1.22 1.33-2.5 2.6-3.72 3.94-.826.905-1.62 1.83-2.43 2.76-.648.739-1.3 1.47-2.05 2.11-.939.8-2.01 1.43-3.07 2.05-.179.103-.36.207-.557.27a.963.963 0 0 1-.609.01c-.214-.077-.377-.251-.525-.424s-.297-.354-.498-.461c-.227-.121-.495-.131-.746-.188a2.038 2.038 0 0 1-1.29-.936 2.03 2.03 0 0 1-.201-1.58c.176-.608.632-1.1 1.15-1.46.522-.36 1.11-.6 1.69-.867 2.08-.966 3.99-2.28 5.68-3.82 2.14-1.94 3.94-4.24 5.36-6.75.748-1.33 1.39-2.73 1.84-4.19.128-.412.241-.83.432-1.22.191-.387.468-.745.848-.95.178-.095.382-.154.584-.138zm-67.3 17.7a2.12 2.12 0 0 1 .574.082c1.37.348 2.56 1.18 3.73 1.98 1.07.733 2.18 1.47 2.98 2.49 1.07 1.37 1.49 3.13 1.72 4.85.213 1.57.284 3.21-.232 4.71-.495 1.44-1.5 2.64-2.56 3.73-.604.613-1.24 1.2-1.96 1.68-.339.225-.697.426-1.08.559s-.798.194-1.2.141a1.709 1.709 0 0 1-.846-.34 1.214 1.214 0 0 1-.457-.777 1.37 1.37 0 0 1 .125-.721c.1-.226.242-.431.387-.631.662-.911 1.42-1.76 1.96-2.75.857-1.59 1.07-3.45 1.07-5.26.003-1.33-.109-2.7-.744-3.87-.543-.996-1.43-1.76-2.33-2.45-.675-.512-1.4-1.02-1.79-1.77-.125-.236-.216-.498-.211-.766a.994.994 0 0 1 .084-.389.811.811 0 0 1 .244-.314.934.934 0 0 1 .543-.174zm-1.46 46a.885.885 0 0 1 .604.246.946.946 0 0 1 .244.564c.022.208-.006.416-.045.621-.272 1.41-1.05 2.67-1.88 3.85-.807 1.15-1.67 2.26-2.5 3.39-.817 1.12-1.61 2.27-2.64 3.19-.937.847-2.05 1.49-3.23 1.94-.9.35-1.84.598-2.8.727-.807.108-1.62.131-2.44.164-.2.008-.403.015-.6-.021s-.39-.123-.52-.276a.892.892 0 0 1-.189-.508 1.41 1.41 0 0 1 .287-.975c1.15-1.15 2.44-2.17 3.82-3.03 1.32-.818 2.73-1.49 3.98-2.41 1.2-.875 2.24-1.95 3.23-3.06.888-.993 1.74-2.01 2.6-3.03.41-.486.84-.987 1.42-1.25.203-.093.423-.153.646-.146zm-94.9 13c.116-.01.234-.004.35.016.231.039.45.134.645.264.323.216.577.523.771.859s.334.7.463 1.07c.642 1.82 1.05 3.72 1.3 5.64.304 2.32.377 4.68 0 6.99-.321 1.96-.963 3.86-1.77 5.68-.839 1.89-1.87 3.73-3.31 5.22-1.07 1.12-2.36 2.02-3.73 2.75-1.45.77-3.06 1.35-4.71 1.3a3.539 3.539 0 0 1-1.04-.166c-.334-.114-.649-.305-.869-.58a1.665 1.665 0 0 1-.334-.764 2.052 2.052 0 0 1 .04-.834c.134-.545.462-1.03.853-1.43.664-.687 1.5-1.17 2.28-1.72 1.15-.813 2.21-1.78 3.03-2.93 1.12-1.57 1.79-3.44 2.05-5.36.16-1.18.173-2.37.373-3.54.323-1.89 1.12-3.65 1.63-5.5.505-1.84.717-3.74.887-5.64.019-.208.037-.42.113-.613.111-.282.343-.512.625-.625a1.21 1.21 0 0 1 .34-.082zm76.2 8.2c.141.008.281.03.414.08s.257.125.355.227c.099.101.171.23.197.37a.788.788 0 0 1-.035.395 1.45 1.45 0 0 1-.186.354c-.313.458-.764.8-1.19 1.15-1.55 1.27-2.9 2.77-4.29 4.22-.886.925-1.8 1.84-2.43 2.96-.46.816-.753 1.71-1.15 2.56-.452.964-1.04 1.86-1.44 2.85a4.16 4.16 0 0 0-.256.852c-.05.293-.053.595.021.883.071.274.211.527.39.746.177.22.393.406.626.566.361.25.765.438 1.19.555.112.448.17.908.176 1.37.013 1.05-.249 2.1-.13 3.14.088.784.396 1.54.882 2.16-.403.575-.847 1.12-1.33 1.64-1.03 1.1-2.25 2.07-2.96 3.4-.623 1.16-.812 2.49-.973 3.8-.084.685-.162 1.37-.14 2.06.02.69.145 1.39.45 2 .281.568.711 1.06 1.24 1.41a42.105 42.105 0 0 1-2.39 3.8c-.914 1.3-1.9 2.55-2.87 3.8-.297.384-.594.768-.938 1.11-.343.343-.736.645-1.18.832a2.502 2.502 0 0 1-.93.2 2.082 2.082 0 0 1-.928-.2 2.076 2.076 0 0 1-.809-.713 2.5 2.5 0 0 1-.385-1.01c-.105-.682.051-1.38.324-2.02.273-.634.662-1.21 1.05-1.78.404-.6.815-1.23.928-1.95.096-.613-.037-1.24-.229-1.83-.192-.59-.442-1.16-.59-1.76-.263-1.07-.189-2.21.073-3.28.26-1.07.704-2.09 1.18-3.09.785-1.65 1.68-3.29 3-4.56.724-.7 1.58-1.3 2.06-2.19.284-.527.416-1.13.43-1.73a6.223 6.223 0 0 0-.242-1.77c-.3-1.11-.8-2.15-1.12-3.25-.352-1.19-.492-2.44-.5-3.69-.006-.98.068-1.96.125-2.94.106-1.83.147-3.67.125-5.5a8.739 8.739 0 0 1 4.57-2.856 5.003 5.003 0 0 1-.2 3.157c1.06-1.27 2.25-2.44 3.54-3.49 1.15-.938 2.4-1.78 3.76-2.39.732-.327 1.5-.587 2.3-.664.142-.013.285-.02.427-.012zm73 1.92c1.13.223 2.23.637 3.23 1.22 1.98 1.15 3.51 2.91 5.17 4.48.827.78 1.7 1.53 2.35 2.46a5.2 5.2 0 0 1 .752 1.52c.158.546.203 1.13.09 1.69-.162.799-.632 1.5-.89 2.27-.065.2-.12.403-.19.602s-.164.392-.303.551a1.166 1.166 0 0 1-1.252.33c-.438-.802-.878-1.61-1.32-2.41-.826-1.5-1.66-3.01-2.73-4.35-.578-.721-1.22-1.39-1.87-2.05-.444-.456-.89-.912-1.33-1.38-.411-.436-.813-.88-1.22-1.32-.388-.418-.79-.85-.988-1.38a2.128 2.128 0 0 1 .494-2.24zm-2.96 11.4c.127.008.254.032.377.065.438.117.834.363 1.17.666.338.302.622.662.887 1.03 1.67 2.33 2.66 5.09 3.23 7.9.659 3.29.759 6.67.594 10-.201 4.06-.797 8.13-2.12 12-.132.383-.279.776-.561 1.07a1.19 1.19 0 0 1-.51.32.86.86 0 0 1-.594-.03.85.85 0 0 1-.322-.26 1.17 1.17 0 0 1-.186-.37c-.08-.267-.08-.55-.068-.829.027-.662.112-1.32.186-1.98.252-2.25.365-4.51.35-6.78-.02-2.73-.227-5.48-.791-8.15a31.46 31.46 0 0 0-1.16-4.1c-.527-1.46-1.17-2.89-1.52-4.4-.324-1.42-.377-2.9-.371-4.36a3.84 3.84 0 0 1 .052-.748 1.37 1.37 0 0 1 .318-.672c.174-.186.416-.303.666-.348.125-.022.252-.028.38-.02zm-56.6 6.29c.235.016.468.069.678.176.21.107.394.269.512.473.16.276.189.618.109.928-.08.309-.262.587-.49.811-.457.446-1.08.674-1.67.916-1.65.675-3.22 1.54-4.91 2.07-1.01.315-2.08.52-2.94 1.14-.615.447-1.08 1.08-1.7 1.51-.382.264-.826.449-1.29.479-.463.03-.944-.104-1.29-.408-.32-.277-.513-.673-.652-1.07-.131-.376-.222-.775-.172-1.17a1.44 1.44 0 0 1 .189-.562c.103-.17.248-.317.424-.41.285-.15.626-.153.947-.119s.641.101.963.074c.506-.042.967-.314 1.35-.645.385-.33.71-.724 1.07-1.08 1.01-.994 2.3-1.67 3.66-2.09 1.25-.386 2.54-.565 3.82-.846.46-.1.927-.216 1.4-.184zm50.1 5.4c.335-.003.67.092.943.285.369.262.601.678.738 1.11.138.431.193.885.283 1.33.317 1.56 1.07 3.01 1.29 4.58.142 1.04.045 2.09-.066 3.13-.24 2.24-.552 4.47-.922 6.69-.228 1.37-.482 2.74-1.02 4.02a3.514 3.514 0 0 1-.3.586c-.12.183-.273.35-.458.469a1.241 1.241 0 0 1-1.877-.758c.198-1.13.34-2.28.428-3.43.185-2.45.117-4.91-.131-7.35-.202-1.99-.522-3.96-.857-5.93-.117-.689-.238-1.39-.203-2.08.034-.698.238-1.41.697-1.94.293-.337.69-.588 1.13-.678.109-.022.222-.034.334-.035zm-12.4.203c.229-.01.459.008.684.053.449.088.877.284 1.24.557.519.386.913.918 1.22 1.49.309.568.541 1.18.787 1.77.995 2.42 2.27 4.8 2.47 7.41.128 1.67-.2 3.34-.396 5.01-.205 1.73-.271 3.48-.527 5.21-.191 1.28-.486 2.55-.756 3.82-.12.565-.24 1.14-.533 1.64a2.087 2.087 0 0 1-.572.643 1.486 1.486 0 0 1-.807.285 1.367 1.367 0 0 1-.777-.22 1.564 1.564 0 0 1-.539-.604c-.227-.446-.241-.972-.166-1.47.075-.495.23-.974.33-1.46.29-1.43.09-2.9 0-4.35-.104-1.69-.055-3.39-.197-5.07-.221-2.62-.897-5.18-1.52-7.74-.312-1.29-.619-2.61-1.29-3.76-.153-.265-.325-.52-.457-.795-.132-.276-.223-.58-.201-.885.024-.342.191-.665.434-.908.242-.243.556-.41.885-.508.219-.067.445-.105.674-.115zm-49.2 12.5c.788-.049 1.57-.005 2.34.188.525.132 1.05.348 1.41.752.205.23.348.516.404.818a1.59 1.59 0 0 1-.096.906c-.177.417-.533.736-.932.953-.398.217-.84.342-1.28.461-1.72.47-3.46.898-5.17 1.41-2.09.63-4.15 1.4-5.96 2.61-.974.648-1.86 1.41-2.83 2.08-.57.394-1.17.753-1.81 1.02a7 7 0 0 1-2.56.529c.305-1.28.83-2.51 1.54-3.62 1.25-1.94 3.07-3.48 5.04-4.69 2.32-1.43 4.9-2.44 7.56-3.05.77-.175 1.56-.317 2.35-.365zm31.9 37.2c.08 0 .161.009.24.025.315.065.599.248.812.488.26.293.421.664.512 1.04.091.381.116.775.129 1.17.073 2.21-.208 4.43-.84 6.54a21.417 21.417 0 0 1-2.87 5.96c-1.64 2.39-3.71 4.44-5.75 6.5-1.94 1.96-3.91 3.98-6.37 5.24-.709.362-.954.374-1.72.594-.229-.552-.646-1.23-.875-1.78-.354-.854-.427-1.49-.781-2.34 2.25-1.46 3.76-2.97 5.66-4.88 2.47-2.47 4.58-5.27 6.5-8.19 1.2-1.83 2.33-3.71 3.29-5.68.402-.828.779-1.69.863-2.61.03-.33.022-.665.08-.992.029-.163.074-.325.146-.475.073-.149.174-.286.303-.39.125-.102.276-.17.434-.204.079-.016.158-.023.238-.023zm41 36.9a5.938 5.938 0 0 1 3.29.988c.286.991.392 2.03.312 3.06-.123 1.6-.686 3.12-1.25 4.62-.872 2.32-1.76 4.63-2.81 6.88-1.1 2.36-2.38 4.63-3.69 6.88-1.42 2.45-2.89 4.89-4 7.5-.749 1.76-1.34 3.6-1.5 5.5-.245 2.89.262 5.57 1.44 8.22 1.25 2.81 3.22 5.62 5.12 8.03.78.985 1.59 1.94 2.44 2.88a6.793 6.793 0 0 1-3.69-.688c-1.66-.834-3.23-1.97-4.41-3.41-3.42-4.16-5.35-10.1-4.97-14.8.293-3.66 1.51-7.19 3.11-10.5 1.54-3.19 3.45-6.19 5.24-9.24 1.87-3.19 3.62-6.52 4.34-10.1.37-1.87.454-3.79.25-5.69.255-.034.512-.05.77-.05zm11.6 27.2c.148 0 .295.018.439.049.289.061.566.172.84.283.447.182.897.37 1.3.64.4.27.752.633.938 1.08.22.532.186 1.13.188 1.7.003 1.54.285 3.06.484 4.58.248 1.89.373 3.82.969 5.64.318.97.767 1.89 1.3 2.77 1 1.65 2.3 3.13 3.02 4.92.51 1.28.701 2.66.75 4.03.006.174.01.35-.02.52a.903.903 0 0 1-.215.466.808.808 0 0 1-.437.232 1.254 1.254 0 0 1-.5-.014 2.223 2.223 0 0 1-.922-.467c-.27-.219-.5-.482-.72-.752a15.094 15.094 0 0 1-1.37-2.02c-.768-1.35-1.34-2.81-1.94-4.24-1.43-3.41-3.02-6.77-3.98-10.3-.577-2.16-.913-4.38-1.34-6.57-.069-.358-.14-.718-.128-1.08.012-.364.117-.737.36-1.01.148-.163.342-.285.553-.35.141-.044.29-.062.438-.062zm-9.39.588c.531 1.2.917 2.46 1.15 3.76.426 2.38.323 4.84.84 7.21.584 2.67 1.94 5.12 3.54 7.34 1.48 2.05 3.17 3.94 4.95 5.74 1.16 1.17 2.35 2.31 3.58 3.4a16.317 16.317 0 0 1-4.99-1.64c-2.81-1.45-5.16-3.7-7.07-6.23-1.71-2.26-3.11-4.79-3.9-7.52-.629-2.18-.862-4.49-.465-6.72.345-1.94 1.17-3.79 2.38-5.34zm-62.9 11c.393.013.781.071 1.15.193.416.136.818.358 1.08.707.109.144.193.308.232.484a.933.933 0 0 1-.033.533c-.05.131-.134.247-.236.344s-.223.172-.35.232c-.254.12-.533.179-.807.242-.51.118-1.01.263-1.5.441-2.14.779-4.02 2.18-5.61 3.82-1.5 1.55-2.77 3.33-3.88 5.19-.865 1.45-1.65 2.98-1.98 4.64-.118.576-.187 1.18-.484 1.69a1.516 1.516 0 0 1-.35.42 1.005 1.005 0 0 1-.494.221c-.22.029-.447-.033-.635-.15s-.336-.291-.443-.484c-.215-.387-.262-.843-.29-1.29-.145-2.37.164-4.77.84-7.05.714-2.4 1.89-4.75 3.8-6.36 1.85-1.57 4.24-2.32 6.54-3.09.746-.249 1.49-.504 2.27-.637.388-.066.784-.1 1.18-.088z"/><path fill="#f00000" stroke-linejoin="round" stroke-width="2" d="M146 56c-3.16 1.63-5.94 4.2-7.25 7.51-1.39 3.51-.973 7.6.791 10.9 1.83 3.47 5.01 6.1 8.56 7.77 4.19 1.97 8.85 2.67 13.4 3.29 7.77 1.06 15.5 2 23.3 3.03 5.98.792 12 1.65 17.7 3.82 4.26 1.64 8.23 4.01 11.7 6.98a8.091 8.091 0 0 0 2.7-2.75c.876-1.47 1.27-3.26.932-4.94a6.27 6.27 0 0 0-1.62-3.09c-3.7-1.5-7.48-2.79-11.3-3.85-10.8-2.99-22-4.21-32.9-6.92-3.14-.78-6.26-1.69-9.13-3.18s-5.48-3.6-7.14-6.37a13.813 13.813 0 0 1-1.95-7.28c.046-2.55.821-5.07 2.21-7.21-3.46-.125-6.94.654-10 2.24z"/><g stroke-linejoin="round"><path fill="none" stroke-width="3" d="M202.7 70.94c.143 2.27.542 4.53 1.19 6.72.577 1.96 1.35 3.86 2.31 5.67a19.704 19.704 0 0 0 6.39-9.82M192.1 66.27c.143 2.27.542 4.53 1.19 6.72.577 1.96 1.35 3.86 2.31 5.67a19.704 19.704 0 0 0 6.39-9.82M180.856 63.875c.143 2.27.542 4.53 1.19 6.72.577 1.96 1.35 3.86 2.31 5.67a19.704 19.704 0 0 0 6.39-9.82"/><path fill="#fff" stroke-width="2.5" d="M179.527 107.56a51.524 51.524 0 0 1-3.06-.56 37.289 37.289 0 0 1 2.87-7.97 15.57 15.57 0 0 1 3.46 8.92c-1.09-.098-2.18-.23-3.26-.395zM191 101c.77.786 1.5 1.63 2.01 2.6.462.876.745 1.85.823 2.83a19.83 19.83 0 0 1-8.73.264c.264-1.26.651-2.5 1.15-3.69a20.11 20.11 0 0 1 2.37-4.15 25.47 25.47 0 0 1 2.37 2.14zM200 106a19.882 19.882 0 0 1-3.33-.329c.341-1.07.649-2.14.922-3.23.354-1.4.651-2.82.889-4.25.982 1.12 1.83 2.36 2.5 3.69.648 1.27 1.15 2.61 1.48 4-.819.09-1.64.13-2.47.119z"/></g><g fill="#f00000" stroke-linejoin="round" stroke-width="2"><path d="M106.2 221a9.969 9.969 0 0 0 4.09-4.96 27.503 27.503 0 0 0-12.4-7.86c-2.47-.746-5.09-1.14-7.65-.815-2.56.324-5.08 1.41-6.85 3.29a9.434 9.434 0 0 0-2.47 5.21c1.63-1.12 3.59-1.78 5.57-1.86 2.77-.112 5.48.87 7.95 2.12 3.16 1.6 6.09 3.66 8.66 6.1a9.826 9.826 0 0 0 3.09-1.24zM103.1 231c.473-1.12.644-2.36.489-3.57s-.633-2.37-1.37-3.33a32.866 32.866 0 0 0-8.75-4.51c-1.8-.605-3.67-1.05-5.57-1.1-1.9-.047-3.84.327-5.48 1.28-2.26 1.31-3.79 3.6-4.77 6.01a19.8 19.8 0 0 0-1.41 8.57c1.47-1.19 2.97-2.34 4.51-3.45 1.9-1.37 3.95-2.72 6.28-3.01 2.18-.265 4.36.437 6.36 1.33a33.28 33.28 0 0 1 7.51 4.6 6.893 6.893 0 0 0 2.21-2.83z"/><path d="M104.4 238c.237-1.07.135-2.2-.287-3.21s-1.16-1.88-2.09-2.46a25.577 25.577 0 0 0-4.64-.791c-3.73-.288-7.58.273-10.9 1.95-3.33 1.67-6.15 4.52-7.34 8.04-.774 2.3-.836 4.83-.177 7.16 1.51-1.46 3.17-2.76 4.95-3.89 2.97-1.88 6.27-3.25 9.72-3.89a24.95 24.95 0 0 1 9.02 0 5.373 5.373 0 0 0 1.77-2.92z"/><path d="M91.6 245c-1.99 1.58-3.48 3.74-4.42 6.1a16.806 16.806 0 0 0-1.15 7.07c1.27-1.47 2.85-2.68 4.6-3.54 2.61-1.28 5.62-1.75 8.49-1.24 1.73.307 3.4.966 4.88 1.93.564-1.51.83-3.14.778-4.75-.099-3.08-1.39-6.1-3.54-8.31-3.4-.404-6.95.605-9.63 2.74z"/></g><g fill="#f00000" stroke-width="2"><path d="M95.6 106c1.03-.779 2.17-1.41 3.38-1.88a20.973 20.973 0 0 0-3.75-8.56c-.974-1.31-2.12-2.52-3.49-3.4-1.38-.882-3-1.42-4.63-1.35a6.64 6.64 0 0 0-3.16.982 6.62 6.62 0 0 0-2.28 2.39 2.05 2.05 0 0 0 .438 1.5c.241.298.564.522.912.682.348.16.721.259 1.1.332.752.148 1.53.201 2.24.485.641.256 1.2.69 1.67 1.2.468.507.851 1.09 1.21 1.68 1.69 2.82 2.81 5.99 3.25 9.25.848-1.27 1.91-2.39 3.12-3.31z"/><path stroke-linecap="round" stroke-linejoin="round" d="M99.675 95.938c-.314-2.44-.855-4.85-1.44-7.25-.223-.919-.452-1.83-.688-2.75a5.27 5.27 0 0 1 3.38.437c1.1.546 1.97 1.47 2.63 2.5.66 1.03 1.12 2.17 1.56 3.32 1.14 2.99 2.12 6.03 2.94 9.12a12.043 12.043 0 0 1-8.19 2.94c.229-2.77.166-5.56-.188-8.31zM110.125 93.65a23.171 23.171 0 0 0-3.56-8 5.386 5.386 0 0 1 2.56-.75c1.2-.04 2.4.328 3.43.936 1.04.608 1.92 1.45 2.69 2.38a14.88 14.88 0 0 1 3.31 7.94c.211 2.09-.028 4.22-.695 6.21a7.955 7.955 0 0 1-2.93.293 7.958 7.958 0 0 1-4.31-1.75 23.06 23.06 0 0 0-.5-7.25z"/><path stroke-linejoin="round" d="M121 104c-.933-.696-1.8-1.49-2.57-2.36 1.44-1.68 2.61-3.59 3.45-5.64.965-2.38 1.48-4.94 1.5-7.5 1.61 1 3.01 2.36 4.06 3.94.999 1.5 1.69 3.21 1.96 4.99.268 1.78.106 3.63-.522 5.32a10.091 10.091 0 0 1-2.64 3.91 17.532 17.532 0 0 1-5.23-2.66z"/></g><g fill="#f00000" stroke-width="2"><path stroke-linejoin="round" d="M321 472c2.68-2.39 5.48-4.72 8.75-6.19a19.48 19.48 0 0 1 5.83-1.59 6.234 6.234 0 0 0 1.77-3.71 6.186 6.186 0 0 0-.583-3.32 6.106 6.106 0 0 0-2.25-2.51c-3.57-.465-7.29.435-10.3 2.47-2.11 1.45-3.81 3.44-5.05 5.68-1.24 2.23-2.03 4.71-2.46 7.23a27.705 27.705 0 0 0-.354 6.19c1.51-1.44 3.04-2.86 4.6-4.24zM342 470a6.634 6.634 0 0 0-2.13-3.92 6.61 6.61 0 0 0-4.15-1.65 21.497 21.497 0 0 0-6.54 7.78c-2.32 4.69-2.84 10.3-1.41 15.3 1.23-1.41 2.38-2.89 3.45-4.42 1.58-2.26 3-4.68 5.04-6.54a13.79 13.79 0 0 1 5.3-3.01 6.61 6.61 0 0 0 .442-3.54z"/><path d="M346 489c.776-2.98 2.1-5.81 3.89-8.31a7.717 7.717 0 0 0-1.24-3.45c-1.37-2.07-3.79-3.4-6.28-3.45-1.98 2.89-3.04 6.4-3.01 9.9.051 4.81 2.23 9.55 5.83 12.7-.104-2.5.165-5.01.796-7.42z"/><path stroke-linejoin="round" d="M338 449.38a8.701 8.701 0 0 0 1.21-3.93c-4.65-1.81-9.8-2.31-14.7-1.44-2.46.437-4.87 1.22-7 2.54-2.12 1.31-3.94 3.18-4.98 5.44a10.883 10.883 0 0 0-.884 6.01c2.78-1.66 5.75-3 8.84-3.98 3.51-1.11 7.19-1.76 10.9-1.68 1.09.024 2.19.113 3.27.265a8.687 8.687 0 0 0 3.38-3.23z"/></g><g fill="#f00000" stroke-linejoin="round" stroke-width="2"><path d="M141 441c2.37-1.22 4.08-3.64 4.44-6.28a28.649 28.649 0 0 0-10.6-5.83c-2.48-.73-5.09-1.12-7.65-.799-2.56.321-5.08 1.4-6.85 3.27a9.434 9.434 0 0 0-2.47 5.21c1.64-1.11 3.59-1.76 5.57-1.86 2.77-.13 5.5.814 7.95 2.12 2.48 1.32 4.75 3.03 6.72 5.04a8.376 8.376 0 0 0 2.92-.884zM141.903 452.298c.473-1.12.644-2.36.489-3.57s-.633-2.37-1.37-3.33a32.866 32.866 0 0 0-8.75-4.51c-1.8-.605-3.67-1.05-5.57-1.1-1.9-.047-3.84.327-5.48 1.28-2.26 1.31-3.79 3.6-4.77 6.01a19.8 19.8 0 0 0-1.41 8.57c1.47-1.19 2.97-2.34 4.51-3.45 1.9-1.37 3.95-2.72 6.28-3.01 2.18-.265 4.36.437 6.36 1.33a33.28 33.28 0 0 1 7.51 4.6 6.893 6.893 0 0 0 2.21-2.83z"/><path d="M143 460c.237-1.07.135-2.2-.287-3.21s-1.16-1.88-2.09-2.46a25.577 25.577 0 0 0-4.64-.791c-3.73-.288-7.58.273-10.9 1.95-3.33 1.67-6.15 4.52-7.34 8.04-.774 2.3-.836 4.83-.177 7.16 1.51-1.46 3.17-2.76 4.95-3.89 2.97-1.88 6.27-3.25 9.72-3.89a24.95 24.95 0 0 1 9.02 0 5.373 5.373 0 0 0 1.77-2.92z"/><path d="M132 467c-1.99 1.58-3.48 3.74-4.42 6.1a16.806 16.806 0 0 0-1.15 7.07c1.27-1.47 2.85-2.68 4.6-3.54 2.61-1.28 5.62-1.75 8.49-1.24 1.73.307 3.4.966 4.88 1.93.564-1.51.83-3.14.778-4.75-.099-3.08-1.39-6.1-3.54-8.31-3.4-.404-6.95.605-9.63 2.74z"/></g><path fill="#f00000" stroke-width="2" d="M265 296a11.84 11.84 0 0 1 1.22-5.25c-3.88-3.22-7.96-6.2-12.2-8.93-5.59-3.59-11.6-6.77-18.1-7.99-1.54-.286-3.1-.462-4.66-.401-.61.024-1.23.086-1.79.311-.567.225-1.08.631-1.33 1.19-.171.388-.202.83-.116 1.24.086.415.287.801.553 1.13.379.468.885.82 1.43 1.08s1.12.441 1.7.605c1.86.53 3.76.937 5.56 1.62 1.64.625 3.18 1.47 4.69 2.38 2.45 1.47 4.82 3.09 7.19 4.69 1.87 1.26 3.75 2.52 5.5 3.94 1.8 1.45 3.48 3.08 5.44 4.31a16.45 16.45 0 0 0 5.12 2.12 11.77 11.77 0 0 1-.188-2.06z"/></g></svg>