<svg width="500" height="599.8" viewBox="0 0 375 449.8" xmlns="http://www.w3.org/2000/svg"><path d="M2.998 3v209.9c15.02 195 177.1 232.4 184.5 233.9 7.47-1.502 169.6-38.99 184.5-233.9V3z" fill="#1c63b7" stroke="#000" stroke-width="5.999"/><path d="M267.3 209c1.134-.213 2.166.078 3.292.127 1.253-.103 2.42-.385 3.689-.197 1.478.066 2.518.844 3.869 1.273 1.572.508 3.062 1.175 4.34 2.24 1.159 1.014 2.551 1.375 3.517 2.644.946.922.852 2.268 1.687 3.201 1.736 1.896 1.969 4.843 2.01 7.287-.057 2.772-.373 5.691-1.417 8.278-1.744 3.922-4.401 7.291-7.615 10.12-.598 2.645-.225 5.2-.004 7.856 1.081 1.584 2.89 2.686 4.266 4.024 1.74 1.687 3.947 2.501 5.826 4.008 1.81 1.437 3.66 3.177 4.417 5.416.93 2.35.66 4.855.65 7.377-.31 5.023-1.74 10.28-2.807 15.18 2.886 2.964 5.044 6.333 5.142 10.6.082 3.611-1.498 6.51-3.488 9.383-.626 2.591-1.38 5.2-1.863 7.815.373 3.247.47 6.358-.95 9.387-.61 1.502-1.703 2.665-2.477 4.05-.54 2.197-1.109 4.412-1.654 6.611-.164.692-.344 1.347-.221 2.063.307 2.677.348 5.54-.336 8.163-.667 2.8-2.108 5.183-3.807 7.463-.65 2.38-1.187 4.814-1.793 7.21-.683 2.607-2.018 4.895-3.672 7-3.144 3.824-7.02 6.694-11.26 9.191-9.35 5.38-20.18 8.77-30.65 11.17-12.52 2.825-25.33 4.274-38.14 4.847-10.11.197-20.4.307-30.45-.614-10.87-.872-21.82-2.526-32.41-5.183-9.134-2.334-18.49-5.49-26.68-10.22-3.529-2.067-6.923-4.467-9.73-7.459-2.433-2.526-4.447-5.62-5.29-9.052-.438-1.945-.954-3.873-1.404-5.813-.208-1.638-1.748-2.739-2.42-4.27-2.272-3.992-2.575-8.45-1.98-12.92-.394-2.735-1.319-5.474-1.917-8.184-.777-1.38-1.867-2.546-2.477-4.049-1.425-3.03-1.322-6.14-.95-9.387-.474-2.616-1.235-5.228-1.862-7.819-.553-.95-1.257-1.8-1.756-2.784-1.748-3.214-1.945-7.234-.832-10.68.872-2.837 2.694-5.064 4.888-6.992-.225-1.805-.945-3.558-1.425-5.31-.962-3.066-1.642-6.17-1.719-9.396-.016-2.702-.118-5.26.672-7.885.708-1.224 2.039-2.059 2.899-3.185-.557-2.862.078-5.584 1.126-8.245.913-1.949-.565-3.472-.561-5.646-.23-3.079.99-5.482 2.104-8.233-.528-1.51-1.61-2.702-2.067-4.258-1.945-5.842-1.02-12.68 2.252-17.88 3.099-3.529 7.562-6.026 12.14-7.02 1.936-.246 3.938-.226 5.879-.046 4.65.696 9.1 3.484 11.59 7.496 1.294 2.08.307 4 .745 6.186.2 1.11.07 2.178-.09 3.28.168 1.501.577 3 .864 4.486.708 3.136.155 6.202-1.032 9.138-.962 2.297-1.445 4.991-2.755 7.087-.72 1.15-1.801 1.486-2.952 2.043.168 1.314.135 2.62.123 3.938 1.286.9 2.964 1.437 4.336 2.268 2.698 1.486 4.295 3.693 6.403 5.863 1.613 1.797 3.238 3.574 5.01 5.216 1.786 1.507 3.755 2.821 5.737 4.05 3.877-.324 7.725-1.139 11.61-1.385 7.533-.99 15.19-1.322 22.66-1.9 1.629-.618 3.16-1.71 4.937-2.104.814-.04 1.666.176 2.465.02 1.37-.286 2.677-.654 4.106-.585 2.497.025 4.712.921 6.87 2.096.687.164 1.965.221 2.612-.012.479-.847.958-1.482 1.883-1.871 1.617-.504 3.34-.782 5.015-1.04 1.568-.393 3.296-.864 4.92-.598 1.29.156 2.31.696 3.567 1.077 2.493.864 4.88.93 7.279 2.067.83.344 1.588.897 2.428 1.2 8.925.549 17.65 1.29 26.52 2.506 2.3-2.342 4.528-4.839 6.68-7.324 1.348-1.478 2.036-3.255 3.202-4.974 1.498-2.17 3.242-4.127 5.437-5.609 2.44-1.617 5.695-2.096 8.495-2.84-.864-.414-1.715-.693-2.53-1.205-1.711-1.109-2.624-2.866-3.08-4.806-.523-2.432-1.47-4.765-2.062-7.177-.615-3.852.802-8.127.753-11.73-.692-1.56-1.154-3.05-.807-4.782.414-1.564.516-2.984 1.27-4.327.577-1.22 1.6-2.239 2.664-3.054 1.281-.974 2.808-1.19 4.168-1.986 1.326-.72 2.858-1.715 4.36-1.965z" fill="#181815"/><path d="M191.2 284.5c10.66.25 21.43.52 32.04 1.56 3.161 1.31 6.243 2.563 9.715 2.727 1.953-.143 3.852-.516 5.732-1.06 2.485.405 5.117.606 7.545 1.216a267.694 267.694 0 0 0-1.531 6.677c-.32 2.387.794 4.643 2.379 6.354 2.383 2.551 5.703 4.196 8.949 5.351-4.868 1.015-10.44 1.425-15.13 3.206-4.356 1.957-8.753 3.799-13.13 5.703-2.125.692-3.357 3.398-4.778 5.011-7.914.868-16.06 1.163-24.02 1.392-9.973.332-19.92.164-29.89-.23-6.751-.204-13.38-.835-20.1-1.313-2.415-2.424-4.774-4.72-8.057-5.981-4.184-1.507-9.293-1.462-13.24-3.463-4.233-1.945-8.614-3.46-12.91-5.216l-.009-.262c2.682-1.036 5.187-2.411 7.418-4.233 1.838-1.576 3.795-3.631 4.569-5.973.401-2.117-1.023-4.393-1.306-6.522 3.201-.61 6.444-1.097 9.674-1.535 1.953.237 4.331 1.47 6.346.958 2.084-.434 4.119-1.261 6.08-2.076.966-.492 2.022-.578 3.095-.68 13.42-1.163 27.09-1.65 40.55-1.609z" fill="#1c63b7"/><g stroke-width="1.333"><path d="M273.314 210.514a5.408 5.408 0 0 0-1.548.22c-1.322.556-2.276-.237-3.607-.151-1.715-.123-2.768 1.056-4.216 1.764-.93.57-1.945.835-2.96 1.191-2.146 1.093-4.119 3.419-4.205 5.908-.487 1.085-.479 2.198-.364 3.357l.384.225c.07-1.24.336-2.444.619-3.647.86-.344 1.527-.926 2.255-1.475a9.286 9.286 0 0 0 5.212 1.24c1.355.148 2.764-.613 4.033-.466 1.167.622 2.358 1.208 3.545 1.793.364 2.1 1.793 3.976 3.832 4.68-.18 2.047.18 4.241 1.028 6.12.4 1.048-.934 2.293-.676 3.345 1.531.741 2.236-.577 3.173-1.49.585-.798 1.396-.88 2.276-1.159.426.152.84.324 1.245.516 1.027 1.51.143 3.304-.753 4.634-.57.95-1.433 1.54-2.195 2.297a39.107 39.107 0 0 0-.307 2.841c3.742-3.844 7.01-7.91 7.689-13.42.405-3.373.647-7.688-2.096-10.206-.3-.913-.402-1.826-1.04-2.583-.754-1.114-1.863-1.188-2.846-2.072-1.568-1.22-3.357-1.957-5.24-2.55-1.019-.56-2.113-.908-3.238-.912zm-171.785 1.178c-4.773-.127-9.506 2.272-13.068 5.31-1.748 1.29-2.53 3.492-3.148 5.494-1.31 4.188-1.523 8.851.176 12.958.667 1.482 2.06 2.902 1.576 4.65-.86 2.273-1.916 4.23-1.953 6.74-.106 2.312 1.233 3.86.713 6.16-.324 1.388-1.04 2.728-1.257 4.152-.143 1.33-.246 2.673 0 4 1.036-.54 1.79-1.736 2.747-2.46-.164-2.342 1.024-3.919 1.605-6.1.315-2.2-1.662-3.964-1.568-6.146-.098-1.453.446-2.866 1.036-4.168.614-1.38.618-2.996-.336-4.225 1.048.635 1.687 1.945 1.245 3.136-.504 1.646-1.568 3.517-1.442 5.261.107 1.9 1.327 3.21 1.63 4.97.258 2.412-1.523 4.066-1.458 6.49 1.499-1.425 3.902-3.088 3.96-5.323.27-2.702-1.343-4.753-1.208-7.398.262-1.63.704-3.177 1.597-4.59-2.268-.953-3.599-3.184-3.423-5.632-.074-.963.762-1.888 1.724-1.896 1.183 1.224 2.554 1.297 3.918.315 1.96-1.638 2.538-4.65 2.759-7.062.831-2.813 3.484-4.99 5.977-6.338 2.444-1.322 5.298-1.891 8.037-1.244 1.506.237 2.534.884 3.488 2.047.053-1.409-.819-2.571-1.7-3.595-2.914-3.287-7.16-5.584-11.626-5.506z" fill="#fcdb00"/><path d="M259.599 218.825c-.549.528-1.265.778-1.81 1.294-.364 2.067-.814 4.327-.83 6.452 1.78-.364 3.852.74 4.724 2.284.676 3.075-1.306 5.216-1.9 8.242 1.003 1.539 3.734-.23 4.29 1.465-1.89-.274-3.733.729-4.986-1.105-.053-1.867 1.225-4.147 1.896-5.9.086-.99.536-2.595-.549-3.168-1.06-.72-2.198-1.416-3.5-.847-.311 2.194-.729 4.818-.761 7.062-.185 2.833 1.437 5.862 2.043 8.601.344 1.535.843 3.108 2.166 4.082 1.744 1.24 4.192 1.936 6.292 1.318 2.223-1.359 4.368-2.616 6.812-3.557-.07.253-.143.503-.22.757-.918.639-1.986.995-2.911 1.633-1.372.741-2.694 1.9-4.241 2.113.315 1.654.863 2.964.327 4.68-.205 1.784-.95 3.414-1.089 5.211l-.655.197c-.213-1.806.757-3.6.86-5.38.204-1.163.47-2.317-.193-3.39-2.616.72-5.367 1.257-7.962 2.03-2.879.975-4.983 3.178-6.735 5.569-1.236 1.67-2.207 3.5-3.349 5.232-2.899 3.238-5.867 6.427-8.765 9.666-1.482 1.764-3.149 3.328-5.191 4.421-2.784-.99-5.728-1.78-8.61-2.42-2.62-.536-5.27-1.223-7.726-2.308-2.747-1.294-4.945-3.333-7.627-4.614-1.813-.864-3.713-1.024-5.572-1.58-1.51-.291-2.943-.918-4.425-1.307-2.117-.425-3.73.242-5.76.557-1.212.2-2.404.516-3.62.676-.814.164-1.322.786-1.522 1.576 1.74.061 3.475.131 5.215.102 1.703.713 3.32 1.65 4.974 2.46.922.61 1.835 1.466 1.233 2.65-1.499.958-4.074 1.408-4.762 3.222l.463.573c1.584-.099 2.514-1.441 4.16-1.437 2.554-.135 4.896-.442 6.955-2.092 4.262 2.518 8.11 5.596 12.217 8.323 4.098 2.448 8.794 4.708 13.56 5.342 5.628-.446 11.266-2.69 15.912-5.89.385-1.847.365-3.755.987-5.58.958-3.55 1.748-7.182 2.751-10.71l.59.208c-.917 4-1.527 8.29-2.874 12.192.99.65 1.036 1.27.688 2.35-.328.205-.655.41-.983.61-.303 3.934-1.846 7.783-2.612 11.668-.503 2.182-1.281 3.987-.188 6.161 1.985 3.722 6.513 5.957 10.317 7.34 1.715.468 3.45 1.479 5.248.992 2.342-.647 4.99-1.298 7.03-2.653.83-.54 1.052-1.347 1.371-2.227a82.016 82.016 0 0 1 4.364-14.555c1.372-3.455 2.477-6.882 2.412-10.648.073-.491-.164-1.261.151-1.666.7 1.482.524 2.947.5 4.536-.25 3.385-1.867 6.816-2.924 10.038-1.482 4.098-2.677 8.188-3.475 12.47-.291 1.2-.717 2.776-1.99 3.276-5.269 2.6-11.91 3.312-17.662 4.098-3.63.643-7.815 1.13-11.217 2.591-4.348 2.174-8.966 3.791-13.302 5.978-1.51 1.51-3.03 3.464-4.15 5.285-.996 2.194-1.986 4.855-1.798 7.291 1.036.103 1.863-.97 2.452-1.686.975-2.53 1.364-4.84 3.574-6.71.328.036.614.13.868.29 0 2.076-1.203 4.401-.782 6.485.651 1.736 3.972 1.544 3.964-.56.851 1.698 3.618 1.232 3.88-.615.537.725.852 1.257 1.884 1.15 1.355-.957 1.683-3.127 2.223-4.577 1.584-1.482 2.956-3.12 3.865-5.109 1.093-.417 2.55-.07 3.688-.467 6.69-.454 14.112-1.265 20.839-1.903 1.187-.332 2.448-.21 3.644-.553 2.399-.5 5.465-.872 7.459-2.395 3.3-5.302 5.641-11.27 7.856-17.088 1.31-4.086 3.87-7.238 4.573-11.562.68-4.093 2.19-8.175 2.203-12.294.372-2.481.18-4.692-.189-7.156-.413-1.347-1.277-2.404-2.28-3.361-1.85-1.855-3.975-3.128-6.206-4.454-2.023-1.732-3.984-3.3-5.748-5.335-.5-2.141-.291-4.507-.397-6.698-.09-2.137.45-4.18.499-6.296-.671.528-1.159 1.154-1.662 1.834-.23-.508-.11-1.003.352-1.478.888-1.06 2.49-1.556 3.353-2.751.843-1.04 1.638-2.301 1.478-3.697-.197-.38-.516-.672-.962-.864-1.085.303-1.617.671-2.317 1.543-1.02 1.184-2.563 1.79-3.882.631-.253-.95.692-2.272.73-3.238-.64-1.601-1.143-3.202-1.033-4.95a2.263 2.263 0 0 0-.192-1.089c-1.814-.835-3.05-2.407-3.439-4.364-.99-.725-2.256-1.2-3.316-1.867-2.612.778-6.387 1.162-8.683-.619l-.357-.037zm-1.806 11.005c.79.008 1.432.425 1.708 1.267-.967.536-.856 1.33-2.183.827-.258-.545-.086-1.42-.094-2.034a2.622 2.622 0 0 1 .57-.06zm0 .58a.628.628 0 0 0-.34.106c-.093.356.054.7.443 1.036.704-.176.459-1.137-.102-1.143zm-7.778 48.432a.339.339 0 0 0-.176.049c-.11.07-.163.225-.167.356-.005.13.031.29.139.36.098.066.252.051.352-.011a.457.457 0 0 0 .188-.36c.004-.128-.052-.28-.16-.349a.325.325 0 0 0-.175-.045zm18.66 5.965c1.1-.026 1.709 1.286 1.14 2.222-.349.762-1.135.864-1.843.553-.868-.635-.704-2.395.414-2.74.1-.022.196-.033.29-.035zm.058.695c-.179 0-.388.073-.618.254-.348.573.132 1.727.815 1.24.75-.349.505-1.493-.197-1.494zm-159.584-66.119c-1.436.036-2.875.387-4.25.966-2.51 1.06-4.823 2.817-6.35 5.09-.83 1.264-.49 2.578-.868 4.032-.348 2.493-2.227 5.76-5.146 5.461-.99.082-1.637-1.085-2.489-.897-.843 1.126-.356 2.551.148 3.714.736 1.576 2.19 2.395 3.884 2.575-.09.241-.176.479-.258.72 1.527 1.736 2.08 3.542 1.716 5.85-.57 2.846-1.368 5.826-2.85 8.344-3.238 3.55-7.266 6.412-10.689 9.79-.954 1.24-.622 2.48-1.003 3.852-.115 3.214-.057 6.313.74 9.445.775 3.598 2.26 7.148 2.846 10.726 1.43 6.686 3.583 14.19 8.172 19.438 3.971 3.132 8.917 5.208 13.698 6.768 2.137.618 4.34 1.253 6.555 1.519 3.455.737 7.152.475 10.624 1.052 2.522.024 4.925.643 7.41.95 4.97.794 11.263 1.576 16.294 2.055-1.998-1.752-4.213-3.48-6.64-4.581-4.082-1.257-8.528-1.548-12.59-2.903-4.343-2.125-8.978-3.803-13.53-5.416-4.102-1.548-8.32-3.493-11.815-6.166-1.572-1.232-2.993-2.465-3.886-4.299-1.211-2.558-1.613-5.633-2.03-8.417-.496-4.29-1.552-8.708-1.626-13.019.725.934.683 1.521 1.073 3.525s1.2 5.78 1.446 8.688c.63 3.488 1.072 6.742 3.017 9.792 2.768 3.554 6.907 6.068 11.017 7.759 3.513-1.139 6.96-2.965 9.834-5.298 1.6-1.458 3.627-3.451 3.86-5.711-.642-2.272-1.375-4.614-1.62-6.964.011-2.522.748-5.298.392-7.86-.368-.009-.836.11-1.052-.173-.518-.675-.913-1.981.254-2.539-1.429-2.01-3.39-3.63-5.007-5.494-1.986-2.206-3.943-4.86-4.745-7.754 1.216 1.7 2.125 3.656 3.529 5.265 2.162 2.727 5.064 4.868 7.083 7.689 1.04 1.412.974 3.09 1.044 4.765 4.409 2.604 9.256 4.81 14.267 5.924 1.6.274 3.116-.368 4.61-.855a80.484 80.484 0 0 0 12.098-5.658c3.283-1.871 6.472-4.348 9.993-5.711.643-.123 1.323-.406 1.978-.336 1.293.352 2.227 1.22 3.668 1.1 1.445-.155 2.812-.196 4.184.349l.716-.033c-.95-1.642-2.898-1.494-4.237-2.948l-.065-.548c.982-1.253 2.296-1.777 3.524-2.747.635-.508 1.31-.942 1.994-1.376 1.773-.258 3.578-.344 5.36-.524-2.453-1.105-5.327-2.096-8.025-1.437-1.371.405-2.444.66-3.873.336-2.55.647-4.417 2.1-6.763 3.144a37.939 37.939 0 0 0-3.824 1.924c-5.658 2.87-11.55 3.677-17.547 5.498-1.126.254-2.206.893-3.353.958-4.266-3.7-9.17-6.329-13.707-9.625-3.512-2.992-6.562-6.562-9.743-9.899-3.058-2.952-7.611-3.725-10.694-6.202a5.227 5.227 0 0 0 .008 2.063c.467.606 1.024 1.097 1.388 1.781-1.47-.823-2.591-2.08-2.084-3.881.127-1.27.623-2.469.672-3.73-.917-.25-2.137-.614-2.714-1.433 1.428.414 3.025 1.18 4.515 1.06 1.286-.073 2.567-.56 3.68-1.19.713-.61 1.077-1.409 1.384-2.273.934-3.173 2.506-5.875 2.956-9.203.27-1.658-.004-3.243-.13-4.88-.627-.418-1.135-.193-1.83-.127-.246.38-.226.806.069 1.27l.95-1.127c.102 1.36-.087 1.58-1.319 1.482-.352-.393-.66-.786-1.105-1.077.5-.753 1.363-1.592 2.251-.872.275-.151.533-.327.783-.528-.393-.9-.512-1.69-.557-2.665-2.137-.148-4.151 1.359-4.102 3.603-.311 2.542 1.191 4.253 1.699 6.562-.336.725-.979 1.49-1.855 1.409-.946-.168-1.736.122-2.62.376l-.266-.336c.847-.36 1.535-.68 2.485-.544.962.053 1.92-.872 1.347-1.85-1.183-2.445-1.998-5.253-.712-7.836.765-1.626 2.386-2.023 4.02-2.256.053-1.986.14-4.172-.766-6.002a2.028 2.028 0 0 0-.671-.549 8.889 8.889 0 0 0-4.23-.92zm-5.122 12.065c.3.002.606.057.905.174.426.463.078 1.253.025 1.822-.549.758-1.347.713-1.92.008a41.39 41.39 0 0 1-.094-1.244c-.496.413-.946.868-1.433 1.285a2.58 2.58 0 0 1 2.518-2.045zm.366.762c-.685.007-.965.138-.717 1.062.38.09.691.05.937-.127a3.53 3.53 0 0 0 .098-.933 11.279 11.279 0 0 0-.318-.002zm19.062 45.812a.411.411 0 0 0-.21.075c-.414.491.114 1.584.77 1.158.262-.3-.086-1.257-.56-1.233zm-17.768 8.761c1.692-.1 1.892 2.77.292 2.95-1.13.156-1.735-.756-1.72-1.522.013-.67.527-1.424 1.428-1.428zm.04.651c-.243.002-.495.09-.645.244-.243.252-.267.782-.04 1.049.276.327.965.454 1.277.16.313-.298.236-1.012-.09-1.294-.127-.11-.312-.16-.502-.159z" fill="#fb9"/><path d="M270.144 227.337c1.172.119 2.76 1.602 2.224 2.83-1.126-1.326-2.416-2.22-4.21-2.253-1.38.09-2.321.954-3.456 1.499.676-1.933 3.657-2.613 5.442-2.077zm-165.627 1.056c.737.27 1.916.426 2.269 1.229-1.97-.373-3.616-1.097-5.724-.45-.778.298-1.037.966-1.56 1.564.069-1.11.47-1.569 1.224-2.298 1.114-.598 2.608-.286 3.791-.045zm162.927 2.208c1.257-.127 2.837.512 2.903 1.957a22.321 22.321 0 0 1-1.118-1.019c.029.549-.155 1.064-.565 1.552-1.09.176-1.326.082-1.773-.95.442.189.888.373 1.335.557.52-.786.253-1.467-.442-1.556-.48-.05-.975.43-1.462.639.31-.377.59-1.09 1.122-1.18z" fill="#181815"/><path d="M110.946 241.383a7.7 7.7 0 0 1 1.162.544c-2.104 1.073-4.11.619-6.505.75 1.126-.586 2.432-1.183 3.726-1.003.614.155 1.052-.131 1.617-.291zm149.103-.278c1.191-.619 1.928.188 3.169-.221 1.15.348 2.57.524 3.553 1.2-1.465-.066-2.927-.034-4.392-.042-.778-.241-1.556-.311-2.363-.377zm1.343 1.772a11.691 11.691 0 0 1 2.48.09l.083.496c-.9.086-1.957.25-2.563-.586zm-150.823.545c-.422 1.191-2.084.782-2.956.38.97-.331 1.953-.286 2.956-.38zM250.633 288.546c1.945.364 3.71.11 5.576.696 2.088.74 3.836 2.022 5.662 3.23.573.389 1.216.745 1.666 1.286-2.747-.811-5.338-2.99-8.016-4.045-1.191-.12-2.338-.377-3.525-.561-.43-.168-1.093-.205-1.363-.606zm-138.418 3.844c-2.35 4.311-8.765 5.314-12.389 2.158 2.903 1.175 6.313 1.26 9.18-.07 1.166-.483 2.153-1.363 3.209-2.088zm74.879 3.5c4.483.377 9.003.778 13.502.68 1.78.057 3.533-.311 5.306-.262-1.883 1.105-4.397 1.187-6.534 1.413-4.082.22-8.205.081-12.278-.21-4.999-.347-9.846.074-14.783.304a.937.937 0 0 1 .507-.369c4.524-1.38 9.576-1.646 14.28-1.555zm-50.438 4.295a90.09 90.09 0 0 0 11.848.09c-.745.917-2.432 1.138-3.558 1.306-2.771.5-5.87.11-8.29-1.396zm25.89 2.997c3.403.13 6.911 1.183 10.305 1.535 2.854.176 5.597-.483 8.319-.892-.815.802-2.092 1.166-3.156 1.53-2.518.787-5.097.807-7.701.607-2.49-.32-4.889-.987-7.353-1.413-3.558-.77-7.566-.057-11.095.676l.303-.307c3.202-1.4 6.907-1.855 10.378-1.736zm54.041.692c2.35.033 4.635.47 6.964.716 4.364.504 8.557-.086 12.855-.765-1.08 1.035-2.538 1.519-3.938 1.94-4.397 1.18-8.593.704-13.01.017-5.196-.598-10.396-.553-15.607-.213 2.542-1.282 5.817-1.642 8.638-1.773 1.38-.237 2.723-.086 4.098.078z"/></g><path d="M92.92 240.7c-.217.373-.41.753-.577 1.146-.713 1.621-1.294 3.68-.754 5.42.516 1.789 1.045 3.533 1.188 5.404.79-2.534 1.907-4.7 1.993-7.447-.135-1.707-.896-3.14-1.85-4.524zm15.77 8.737c-.66.07-1.326.086-2.002.05-.04.982-.45 1.825-.577 2.791.59.88 1.863 1.466 2.788 1.981.192-1.58.18-3.275-.209-4.823zm77.49 20.48c-2.583-.007-5.165.007-7.742.097-1.507.982-2.825 2.182-4.405 3.07 1.216.794 2.882 1.089 3.627 2.456.47.83.43 1.527-.332 2.162-.626.028-1.22.057-1.8-.217-1.106-.357-2.44-.201-3.579-.099-2.117.193-3.103-1.584-5.249-.839-4.892 1.977-9.007 5.629-13.9 7.742 1.306-.07 2.706.061 3.983-.27 7.602-.373 16.01-.979 23.71-.95 13.47-.184 25.62.053 39.04 1.126-4.086-2.628-7.926-5.592-11.97-8.27a2.417 2.417 0 0 0-.753-.364c-2.546 1.662-5.154 1.37-7.983 1.912-1.298.712-2.427 1.408-3.987 1.064-1.302-.63-1.35-2.166-.548-3.226 1.01-1.204 2.763-1.867 4.139-2.53l-.004-.43c-1.396-.954-2.98-1.687-4.5-2.411-2.578.01-5.161-.017-7.745-.023zm-25.33.849c-2.717-.019-5.023.404-7.741.484-6.276.59-11.96 1.162-18.21 2.042.434.614 1.265.93 1.838 1.412 1.294.836 2.452 1.928 3.726 2.747 7.128-2.473 14.19-2.964 20.94-6.677a20.438 20.438 0 0 0-.55-.01zm56.17.116a13.98 13.98 0 0 0-1.021.045c3.91 2.264 8.024 2.84 12.36 3.84 1.642.376 3.226 1.06 4.851 1.445 1.351-.954 2.751-2.035 3.832-3.296-4.221-.672-9.199-1.04-13.51-1.523-1.605-.189-3.23-.21-4.839-.32a6.46 6.46 0 0 0-1.673-.192zm-91.36 12.85c-.094 1.42-.602 2.759-.533 4.176 2.358-.484 4.823-.709 7.156-1.245a34.71 34.71 0 0 1-5.91-2.837l-.713-.095zm121.6.253c-1.633 1.077-3.484 1.912-5.326 2.563 1.515.332 3.148.598 4.688.737.295-1.097.618-2.149.639-3.3zm-164 5.916c-1.543 1.662-3.222 3.676-3.259 6.06-.2 2.357 1.146 4.506 2.702 6.156 1.138 1.212 2.473 2.154 3.791 3.153.307-.745.667-1.479.93-2.24-2.073-4.192-3.05-8.638-4.165-13.13zm208.9.394c-1.781 3.738-3.655 8.33-4.966 12.23.622.847.933 1.81 1.343 2.763 2.768-2.063 5.883-4.442 6.452-8.086.393-2.808-1.048-4.925-2.829-6.911zm3.64 9.73c-2.743 4.476-6.894 6.993-11.45 9.327-.753 1.195-1.322 2.599-1.941 3.885 4.012-1.818 8.434-4.295 11.12-7.877a15.181 15.181 0 0 0 2.272-5.334zm-216.3.259c.066.41.14.819.217 1.224.569 2.018 1.633 3.909 3.12 5.395 2.71 2.8 6.444 4.798 9.948 6.432 11.04 4.966 23.49 7.586 35.37 9.645a322.064 322.064 0 0 0 18.93 2.489c5.122.438 9.903 1.003 15.05 1.146.815.233 1.617.13 2.452.188 11.34.675 22.64.692 33.99.504 7.287-.254 14.97-.545 22.21-1.22.303-1.122.823-2.15 1.175-3.251-10.3.83-21.67 1.4-32 1.298-1.568.274-3.32.27-4.888 0-10.8.09-22.41-.484-33.17-1.404-7.128-.64-14.57-1.466-21.64-2.6-2.673-.353-5.248-.987-7.93-1.216-3.398-.398-6.763-.471-10.16-1.044-4.466-.786-8.892-2.121-13.08-3.881-2.387-1.044-4.778-2.174-6.792-3.86-4.696-2.293-10.14-5.13-12.8-9.846zm212.3 8.994c-2.903 2.583-6.604 4.405-10.13 5.969-.958.364-1.764.941-2.649 1.449-.847 4.29-1.539 8.855-2.374 13.16 4.552-2.17 9.858-5.191 12.53-9.617.66-2.501 1.331-5.293 1.965-7.803.237-1.07.639-2.047.663-3.156zm-208.5.024c.61 3.668 1.756 7.312 2.608 10.94 2.677 4.421 7.975 7.447 12.53 9.613-.831-4.36-1.601-9.154-2.432-13.54-4.405-1.769-9.097-3.877-12.7-7.013zm14.37 7.652c.63 3.726 1.302 7.668 2.014 11.37.119.807.102 1.59.475 2.338 3.042 1.351 6.644 2.628 9.829 3.623 1.06.27 2.108.79 3.2.88-.662-4.397-1.37-9.679-2.025-14.07-4.102-1.187-8.16-2.194-12.21-3.68-.426-.16-.856-.31-1.286-.462zm179.8.364c-2.53.365-4.696 1.34-7.169 1.99-2.063.696-4.262 1.101-6.309 1.79-.704 4.523-1.294 9.547-2.043 14.02.663.081 1.355-.28 1.998-.455 3.746-1.146 7.463-2.432 11.05-3.996.368-.831.373-1.687.504-2.563.737-3.6 1.245-7.14 1.969-10.79zm-13.27 2.178c-6.403.528-12.81.925-19.22 1.388-.577.95-1.281 1.801-1.936 2.698 7.14-1.032 14.13-2.46 21.16-4.086zm-179.7 1.326c.045.43.102.856.164 1.277 1.273 4.814 5.375 7.996 9.46 10.42 8.84 5.113 19.49 7.963 29.37 10.26 27 5.695 55.41 6.87 82.93 5.691 1.905-.295 3.805-.22 5.733-.356 17.01-1.265 34.12-3.427 50.56-8.15 7.512-2.265 15.68-5.143 22-9.9 2.899-2.264 5.637-5.429 5.949-9.24-1.314 2.19-3.107 4.016-5.126 5.563-6.055 4.57-13.8 7.418-20.99 9.666-11.79 3.541-24.21 5.703-36.42 7.152-7.905.852-16.24 1.67-24.18 1.822-1.048.295-2.19.135-3.271.197-9.432.348-18.82.229-28.25-.029-2.186-.311-4.323-.188-6.542-.344-13.22-.852-25.8-2.178-38.81-4.753-10.16-2.047-20.66-4.76-30.05-9.23-4.741-2.404-9.71-5.368-12.52-10.04zm28.3.598c.577 4.716 1.277 9.539 2.01 14.24 4.311 1.236 8.741 2.248 13.15 3.062-.667-5.24-1.015-9.485-1.662-14.56-4.643-.802-8.913-1.654-13.5-2.743zm149.6 0a215.8 215.8 0 0 1-13.5 2.743c-.655 5.109-1.019 9.379-1.666 14.55a137.718 137.718 0 0 0 13.15-3.058c.577-3.193.917-6.538 1.429-9.789.16-1.498.545-2.935.581-4.45zm-15.11 2.989c-1.977.303-3.942.72-5.94.921-.798 1.68-.933 3.746-2.653 4.954-.888.614-1.703.323-2.673.18-.815.602-1.74.725-2.71.91a611.47 611.47 0 0 0-.753 9.78 281.5 281.5 0 0 0 12.94-2.056l.331-.47c.295-4.619 1.175-9.6 1.462-14.22zm-119.3.009c.29 4.692 1.171 9.539 1.449 14.22.377.737.95.467 1.625.688 3.967.72 7.656 1.273 11.64 1.826-.323-5.228-.774-9.572-1.163-14.65-.56-.39-1.147-.279-1.785-.377-4.057-.536-7.717-1.003-11.77-1.707zm15.14 2.067c.02 1.687.16 3.439.332 5.113.319 3.128.384 6.637.908 9.715 1.371.454 2.964.188 4.36.606 2.338.151 4.667.516 7.01.643.785-.086 1.174.614 1.776-.144-.335-4.86-.63-9.764-.835-14.63-3.93-.315-8.417-.646-12.29-1.17a22.047 22.047 0 0 0-1.265-.132zm77.4 1.195c-.622 0-1.24.029-1.863.09-.23 4.872-.508 9.789-.852 14.65 5.72-.109 9.961-.84 12.24-.896a2.78 2.78 0 0 0 .905-.209c.487-3.07.66-6.575.856-9.711-2.272.524-5.203.262-5.617-2.551-.491.66-.713 1.482-1.326 2.08-1.183 1.007-2.825 1.699-4.18.548-.925-1.236-.336-2.612-.164-3.999zm-62.33.287c.18 5.482.598 9.306.72 14.85 4.34.413 8.9.66 13.27.847.116-2.293-.212-4.467-.191-6.744-.082-2.763-.111-5.534-.168-8.294-4.557-.086-9.08-.515-13.63-.659zm58.94.004c-4.548.14-9.076.56-13.63.66-.012 5.084-.29 10.11-.356 15.03 4.389-.197 8.9-.423 13.26-.857.119-5.306.544-9.584.724-14.84zm-43.54.65c-.622.562-.258 1.802-.258 2.564.119 4.086.234 8.409.348 12.54 1.76.123 3.62-.123 5.343.241 2.637-.02 5.273.09 7.914.016.037-5.002.016-10.01.012-15.02-3.59-.139-7.18-.086-10.78-.135-.856-.282-1.703-.147-2.583-.205zm28.13 0c-4.309.25-8.531.225-13.37.353.012 4.999-.02 10.01.02 15 4.734.164 8.652-.209 13.26-.258.127-4.27.23-8.446.349-12.53 0-.766.364-2.006-.258-2.567zm-113.1 1.77c.93 4.307 2.072 8.597 3.156 12.87 1.204 2.448 3.435 4.54 5.474 6.317 1.715 1.343 3.509 2.645 5.424 3.689-.847-5.13-1.998-11.22-2.829-16.21-4.02-1.855-7.832-3.762-11.23-6.665zm198.2 0c-3.398 2.907-7.201 4.807-11.23 6.665-.868 5.183-1.936 10.93-2.833 16.2 4.159-2.383 8.581-5.715 10.9-9.997 1.089-4.27 2.219-8.565 3.156-12.87zm-185.3 7.34c.93 5.35 1.949 11.22 2.927 16.53 3.91 2.162 8.163 3.885 12.37 5.388-.802-5.793-1.617-11.87-2.522-17.63-3.869-1.138-7.701-2.304-11.47-3.774a29.75 29.75 0 0 0-1.306-.512zm172.4.012c-4.184 1.662-8.442 3.025-12.76 4.274-.905 5.744-1.732 11.86-2.526 17.63 4.217-1.51 8.47-3.206 12.38-5.4.97-5.302 1.994-11.18 2.907-16.5zm-14.39 4.671c-.405.11-.81.23-1.212.352-4.127 1.028-7.639 1.736-11.72 2.628-.622 6.022-1.498 12.36-1.957 18.34 4.11-.999 8.167-2.137 12.19-3.45l.192-.165c.802-5.69 1.764-12.08 2.506-17.7zm-143.6.004c.786 5.904 1.67 11.79 2.505 17.7 3.701 1.462 8.479 2.608 12.38 3.615-.467-5.998-1.343-12.31-1.961-18.35-4.356-.941-8.585-1.756-12.93-2.96zm169.4.61c-1.142 3.165-4.008 5.867-6.55 7.983-6.227 4.888-14.05 8.176-21.51 10.68-12.39 4.127-25.51 6.477-38.46 7.963-7.369.762-15.94 1.445-23.33 1.523-1.515.094-3.025-.119-4.479.193-2.198.004-4.397.004-6.595 0-1.376-.295-2.657-.123-4.069-.176-13.96-.27-28.35-1.695-42.09-4.3-11-2.206-22.41-5.268-32.52-10.23-5.519-2.8-11.39-6.496-14.8-11.8-.418-.556-.573-1.203-.847-1.83-.144 1.606.438 3.047 1.015 4.529 1.294 3.087 3.484 5.359 5.969 7.52 5.424 4.422 12.23 7.505 18.77 9.896 13.37 4.786 27.9 7.415 41.98 8.953 7 .691 14.18 1.326 21.22 1.367.585-.033 1.105.245 1.69.188 4.799.053 9.593.04 14.39 0 .537-.135 1.037-.217 1.594-.192 4.524.009 9.01-.373 13.52-.66 1.74-.356 3.57-.13 5.29-.524 5.764-.495 11.98-1.392 17.69-2.362 10.77-1.936 21.84-4.643 31.92-8.974 5.977-2.624 12.43-6.088 16.69-11.15 1.87-2.329 3.599-5.543 3.5-8.597zm-154.9 2.612c.102 2.858.536 5.621.872 8.462.258 3.013.745 6.83 1.064 9.924 3.197.921 6.599 1.43 9.875 2.06.856.175 1.711.302 2.587.282-.364-5.88-1.048-12.45-1.49-18.71-4.405-.614-8.524-1.228-12.91-2.022zm114.5.01c-4.372.773-8.532 1.403-12.92 2.013-.467 6.42-1.101 12.59-1.494 18.71 1.159.037 2.26-.22 3.39-.454 2.305-.336 4.679-.864 6.96-1.355.741-.066 1.425-.266 2.112-.537.352-3.304.827-7.078 1.114-10.33.34-2.682.716-5.339.843-8.045zm-100.1 2.173c.156 2.65.475 5.293.618 7.95.385 1.867.155 3.832.512 5.703.167 1.728.176 3.517.503 5.22l.184.184c4.07.48 8.114 1.138 12.22 1.482-.196-5.809-.777-13-.966-18.92l-.442-.319c-4.164-.278-7.349-.732-11.19-1.08a35.427 35.427 0 0 0-1.437-.218zm85.7.004c-4.078.516-8.52.983-12.63 1.294l-.442.32c-.188 5.94-.774 13.11-.962 18.93 4.106-.357 8.143-1.008 12.22-1.487l.188-.188c.377-1.973.299-4.037.635-6.022.163-4.143.749-8.63.99-12.84zm-71.18 1.494c.356 5.965.667 13.37 1.052 19.24 4.336.397 8.127.63 12.46.905-.045-6.485-.32-12.89-.443-19.34-4.462-.241-8.704-.553-13.07-.798zm56.65.004c-4.348.238-8.626.557-13.06.794-.119 6.44-.4 12.86-.434 19.34 4.548-.294 7.881-.487 12.45-.904.401-6.415.676-12.81 1.044-19.23zm-14.58.803c-4.217.192-8.442.212-12.66.163l-.2.193-.197.196c.057 6.378-.004 12.76.033 19.14a170.8 170.8 0 0 0 12.54-.327c.299-6.242.337-12.65.487-19.37zm-27.47.004c-.02 3.373.135 6.755.131 10.13.38 3.009.11 6.194.356 9.24 4.033.253 8.5.372 12.54.323.037-6.382-.024-12.76.033-19.14l-.397-.389c-4.217.053-8.446.025-12.66-.16zm-79.18 4.982c.045.466.127.92.237 1.367.213.696.344 1.409.508 2.12 1.105 5.92 5.756 10.48 10.53 13.76-.577-3.483-1.306-7.045-1.805-10.53-.332-.577-.884-.732-1.425-1.06a44.74 44.74 0 0 1-8.045-5.665zm185.8 0a44.74 44.74 0 0 1-8.045 5.666c-.54.327-1.093.483-1.425 1.06-.5 3.48-1.228 7.042-1.805 10.53 4.266-2.915 8.585-7.046 10.12-12.12.352-1.711.905-3.398 1.151-5.13zm-11.07 7.279c-3.893 1.9-7.918 3.513-12.02 4.893-.544 4.016-1.24 8.204-1.695 12.2 4.082-1.662 8.172-3.57 11.84-6.022.524-3.648 1.351-7.398 1.875-11.07zm-163.7.012c.549 3.63 1.351 7.488 1.904 11.08 3.68 2.428 7.721 4.356 11.81 5.985-.426-4.016-1.146-8.151-1.679-12.18a105.3 105.3 0 0 1-12.03-4.88zm13.68 5.367c.397 4.073 1.159 8.274 1.683 12.36 3.877 1.494 7.844 2.808 11.87 3.832-.418-4.217-.978-8.605-1.38-12.77-4.033-1.073-8.233-2.031-12.17-3.418zm136.3 0c-3.947 1.392-8.139 2.338-12.18 3.423-.405 4.18-.974 8.515-1.376 12.76 4.024-1.015 7.996-2.338 11.87-3.828.463-3.3.987-6.8 1.412-10.07.221-.745.258-1.515.27-2.29zm-122.6 3.726c.479 4.47.897 8.42 1.441 12.88 3.873 1.138 7.934 1.924 11.9 2.677-.287-4.413-.806-8.462-.987-12.94l-.126-.242c-4.041-.835-8.155-1.429-12.23-2.374zm108.9 0c-4.073.942-8.163 1.543-12.21 2.362-.438 1.658-.147 3.88-.54 5.629-.14 2.526-.45 5.04-.59 7.562 3.918-.762 8.106-1.52 11.9-2.702.536-4.282.987-8.565 1.441-12.85zm-13.78 2.534a269.995 269.995 0 0 1-12.3 1.555c-.168 3.214-.393 6.428-.458 9.65-.307 1.232-.185 2.57-.238 3.836 4.045-.442 7.85-1.056 11.85-1.682.442-2.452.34-4.937.68-7.406.098-1.99.433-3.967.466-5.953zm-81.37.151c.246 3.791.757 7.578.888 11.38.103.61.222 1.204.275 1.826 3.996.619 7.807 1.245 11.85 1.68-.033-1.4.045-2.855-.25-4.218-.05-3.095-.295-6.178-.438-9.269-3.783-.327-7.443-.933-11.13-1.326a28.16 28.16 0 0 0-1.191-.073zm14.03 1.52-.18.175c.102 1.871-.004 3.807.315 5.637.094 2.567.152 5.18.434 7.73 1.654.409 3.504.16 5.183.552 2.232.11 4.458.364 6.694.438-.057-4.442-.27-8.94-.34-13.41l-.458-.311c-3.885-.04-7.783-.393-11.65-.814zm53.52.155c-3.791.02-7.553.692-11.36.65-.344-.057-.66.05-.95.32-.07 4.467-.278 8.97-.34 13.41 2.235-.074 4.462-.328 6.694-.438 1.683-.385 3.513-.156 5.183-.549.381-3.054.246-6.297.627-9.33.028-1.355.082-2.706.147-4.06zm-13.8.831a345.35 345.35 0 0 1-12.35.287c-.012 4.56-.025 9.125.009 13.68 2.096.082 4.18-.05 6.276-.013 1.625-.462 4.254.062 5.777-.462-.029-4.5.228-8.99.286-13.49zm-26.11.008c.05 4.528.307 8.991.278 13.48 1.16.405 3.28.192 4.598.274 2.415.32 5.003.205 7.455.205.033-4.557.02-9.121.01-13.68a375.557 375.557 0 0 1-12.34-.279z" fill="#fcdb00"/><path d="M189.5 311.4c4.34-.27 8.352-.442 12.45 1.245-2.104.086-4.196-.242-6.305-.16-4.25-.04-8.061 1.064-12.27 1.457-4.471.43-9.649.115-13.7-1.973 1.597-.02 3.087.508 4.671.561 2.845.23 5.687.176 8.528-.094 2.198-.385 4.409-.75 6.62-1.036z" fill="#181815"/><g fill-rule="evenodd" stroke="#000" stroke-linecap="round" stroke-miterlimit="1000"><path transform="translate(707.1 -300.6) scale(.8562)" d="m-736.9 421.9 11.19 33.21 35.04.382-28.12 20.91 10.46 33.44-28.57-20.29-28.57 20.29 10.46-33.44-28.12-20.91 35.04-.382z" fill="#fff" stroke-width="3.504" style="paint-order:fill markers stroke"/><path transform="translate(929.8 -300.6) scale(.8562)" d="m-736.9 421.9 11.19 33.21 35.04.382-28.12 20.91 10.46 33.44-28.57-20.29-28.57 20.29 10.46-33.44-28.12-20.91 35.04-.382z" fill="#fff" stroke-width="3.504" style="paint-order:fill markers stroke"/><g stroke-linejoin="round" stroke-width="2.25"><path d="M-439.6 297.4a70973.654 70973.654 0 0 0 3.686 170.37c-.039.452.043.914.234 1.325.315.677.91 1.191 1.559 1.559.952.54 2.03.803 3.093 1.066 3.235.8 6.458 1.655 9.719 2.339 2.394.502 4.819.915 7.12 1.741.943.338 1.9.774 2.52 1.559.44.558.677 1.255.784 1.958s.091 1.418.075 2.129c-.016.76-.04 1.552-.39 2.227-.216.42-.554.775-.96 1.014a1.785 1.785 0 0 1-.677-.78c-.218-.491-.203-1.05-.26-1.585a5.704 5.704 0 0 0-.597-2 12.461 12.461 0 0 0-2.365-.858c-1.626-.41-3.315-.487-4.99-.572-2.528-.129-5.06-.28-7.588-.156-1.561.077-3.116.26-4.652.546.2.543.472 1.06.805 1.533.464.658 1.042 1.229 1.663 1.74.75.62 1.562 1.158 2.313 1.776.52.427 1.017.903 1.325 1.5.366.706.438 1.522.52 2.313.066.633.144 1.266.286 1.887.146.638.36 1.26.468 1.907.207 1.246 0 2.55-.546 3.69-.434.908-1.069 1.702-1.689 2.495-.45.576-.9 1.162-1.22 1.819-.227.462-.387.954-.584 1.429a9.728 9.728 0 0 1-1.125 2.003 6.222 6.222 0 0 1-1.727-2.242c-.493-1.085-.664-2.305-.551-3.491.103-1.075.432-2.12.514-3.197.12-1.575-.328-3.216-1.36-4.413-1.092-1.267-2.702-1.935-4.19-2.7-1.749-.9-3.407-1.99-4.85-3.325a18.019 18.019 0 0 1-3.419-4.3 30.776 30.776 0 0 1-3.896.845c-2.187.328-4.406.42-6.615.331-1.32-.053-2.68-.165-3.932.257-.864.292-1.632.828-2.279 1.47-1.16 1.153-1.938 2.631-2.977 3.896a13.004 13.004 0 0 1-3.418 2.903c-.646.384-1.332.72-2.069.87s-1.532.103-2.197-.248a2.625 2.625 0 0 1-.916-.805 1.59 1.59 0 0 1 .367-1.323c.215-.243.5-.413.794-.548.294-.135.602-.238.897-.371a5.278 5.278 0 0 0 1.838-1.397c.829-.975 1.3-2.2 1.69-3.418.24-.752.459-1.518.846-2.205.468-.83 1.168-1.511 1.948-2.058 1.604-1.125 3.521-1.697 5.403-2.242 3.231-.936 6.474-1.846 9.629-3.014 1.231-.456 2.474-.966 3.455-1.838.49-.436.91-.966 1.139-1.58.156-.421.22-.876.184-1.323a7679.3 7679.3 0 0 1 4.07-169.4" fill="#7a3f28" style="paint-order:fill markers stroke" transform="translate(628.8 -254.2)"/><g fill="#fcdb00"><path d="M-444.6 449.8c-2.004 2.84-4.739 5.087-7.61 7.048a60.044 60.044 0 0 1-10.19 5.596 156.662 156.662 0 0 0-5.977-5.64 21.817 21.817 0 0 1-6.757 4.236 21.827 21.827 0 0 1-9.423 1.467c-4.327-1.347-8.14-4.283-10.55-8.122a19.197 19.197 0 0 1-2.352-5.513 35.65 35.65 0 0 0-6.395 1.03 21.184 21.184 0 0 1 .309-10.84 21.114 21.114 0 0 1 2.603-5.593 33.334 33.334 0 0 0 11.2 8.753c7.779 3.734 16.83 4.295 25.31 2.733 5.133-.944 10.14-2.644 14.71-5.159 1.665-.916 3.28-1.945 4.675-3.235.705-.652 1.38-1.387 2.274-1.74.838-.333 1.792-.287 2.65-.014.858.273 1.634.759 2.346 1.31s1.369 1.167 2.06 1.744c3.7 3.086 8.3 4.913 12.97 6.107 7.118 1.821 14.65 2.268 21.83.717 4.845-1.046 9.513-3.007 13.52-5.917a32.31 32.31 0 0 0 5.705-5.298 21.127 21.127 0 0 1 2.603 5.592 21.184 21.184 0 0 1 .309 10.84 35.686 35.686 0 0 0-6.395-1.03 19.217 19.217 0 0 1-2.352 5.514 19.37 19.37 0 0 1-10.55 8.122 21.84 21.84 0 0 1-9.423-1.467 21.81 21.81 0 0 1-6.757-4.236 156.595 156.595 0 0 0-5.977 5.64 60.43 60.43 0 0 1-10.19-5.596c-2.871-1.96-5.606-4.208-7.61-7.048a19.362 19.362 0 0 1-3.295-8.131 19.368 19.368 0 0 1-3.295 8.13z" style="paint-order:fill markers stroke" transform="translate(628.8 -254.2)"/><path d="M-429.9 437.2c1.449.866 2.941 1.688 4.554 2.186 1.466.453 3.017.63 4.548.52a7.975 7.975 0 0 0-.858-4.184 20.381 20.381 0 0 0 3.404 2.306c1.376.741 2.842 1.324 4.366 1.67a15.09 15.09 0 0 0 5.873.156 14.443 14.443 0 0 0 4.73-4.444c1.482.542 3.016.943 4.574 1.195 2.802.452 5.703.417 8.446-.312.851-.226 1.688-.52 2.46-.943.771-.424 1.477-.981 2.01-1.682a5.247 5.247 0 0 0 1.06-3.065 79.196 79.196 0 0 1-3.602.312c-2.763.177-5.577.203-8.25-.514-.416-.112-.837-.246-1.177-.51a1.837 1.837 0 0 1-.698-1.401c1.868.192 3.747.284 5.626.276 2.083-.01 4.232-.16 6.098-1.084.408-.203.8-.442 1.144-.742.343-.3.636-.662.823-1.078.21-.468.28-1.016.11-1.5a1.67 1.67 0 0 0-.974-.999 16.59 16.59 0 0 1-6.983 1.176l-.436-.356a21.872 21.872 0 0 0 7.577-4.678 13.199 13.199 0 0 0-1.125-4.782 13.78 13.78 0 0 1-2.677.676 9.956 9.956 0 0 0-.104-4.314 3.267 3.267 0 0 0-2.547.234 19.087 19.087 0 0 1-6.549 11.1c-3.393 2.798-7.728 4.344-12.11 4.696-6.588.529-13.07-1.516-19.57-2.721a77.66 77.66 0 0 0-11.25-1.247c-3.775.141-7.54.559-11.25 1.247-6.498 1.205-12.98 3.249-19.57 2.721-4.384-.352-8.719-1.898-12.11-4.696a19.068 19.068 0 0 1-6.549-11.1 3.263 3.263 0 0 0-2.547-.234 9.952 9.952 0 0 0-.104 4.314 13.78 13.78 0 0 1-2.677-.676 13.191 13.191 0 0 0-1.125 4.782 21.926 21.926 0 0 0 7.577 4.678l-.436.356a16.59 16.59 0 0 1-6.983-1.176c-.45.17-.816.545-.974.998-.17.486-.1 1.032.11 1.501.187.416.48.779.823 1.078.343.3.735.54 1.144.742 1.867.924 4.015 1.075 6.098 1.084a52.576 52.576 0 0 0 5.626-.276 1.836 1.836 0 0 1-.698 1.401c-.34.264-.76.398-1.176.51-2.674.717-5.488.69-8.251.514a79.196 79.196 0 0 1-3.602-.312 5.25 5.25 0 0 0 1.06 3.065c.533.7 1.24 1.258 2.01 1.682.772.423 1.61.717 2.46.943 2.743.729 5.644.764 8.446.312a24.866 24.866 0 0 0 4.574-1.195 14.431 14.431 0 0 0 4.73 4.444 15.09 15.09 0 0 0 5.873-.156c1.524-.346 2.99-.93 4.366-1.67a20.334 20.334 0 0 0 3.404-2.306 7.99 7.99 0 0 0-.858 4.184c1.531.11 3.082-.067 4.548-.52 1.613-.498 3.105-1.319 4.554-2.186a72.424 72.424 0 0 0 11.51-8.536 72.243 72.243 0 0 0 11.51 8.536z" style="paint-order:fill markers stroke" transform="translate(628.8 -254.2)"/><path d="M-469.5 421.7a12.792 12.792 0 0 0 1.58-1.213 17.543 17.543 0 0 0 4.815 2.519 17.53 17.53 0 0 0 5.476.921 14.961 14.961 0 0 0 4.263-1.72c1.945-1.16 3.598-2.747 5.182-4.366 1.902-1.944 3.749-3.98 5.078-6.354a17.995 17.995 0 0 0 1.858-4.855 18.923 18.923 0 0 0-4.694.846c-2.773.872-5.331 2.379-8.159 3.05-2.277.54-4.651.52-6.983.328-5.715-.471-11.42-1.994-16.28-5.032a28.849 28.849 0 0 1-9.372-9.52 19.53 19.53 0 0 0 .551 7.976 239.39 239.39 0 0 0-5.292.294 30.375 30.375 0 0 0 1.691 3.785 31.037 31.037 0 0 0 3.528 5.256c2.485 2.993 5.547 5.53 9.041 7.24a24.555 24.555 0 0 0 5.623 1.948c.73-.302 1.433-.672 2.095-1.103z" style="paint-order:fill markers stroke" transform="translate(628.8 -254.2)"/><path d="M-413 421.7a12.792 12.792 0 0 1-1.58-1.213 17.543 17.543 0 0 1-4.815 2.519 17.53 17.53 0 0 1-5.476.921 14.961 14.961 0 0 1-4.263-1.72c-1.945-1.16-3.598-2.747-5.182-4.366-1.902-1.944-3.749-3.98-5.078-6.354a17.995 17.995 0 0 1-1.858-4.855c1.592.083 3.173.367 4.694.846 2.773.872 5.331 2.379 8.159 3.05 2.277.54 4.651.52 6.983.328 5.715-.471 11.42-1.994 16.28-5.032a28.849 28.849 0 0 0 9.372-9.52 19.53 19.53 0 0 1-.551 7.976 239.39 239.39 0 0 1 5.292.294 30.375 30.375 0 0 1-1.691 3.785 31.037 31.037 0 0 1-3.528 5.256c-2.485 2.993-5.547 5.53-9.041 7.24a24.555 24.555 0 0 1-5.623 1.948 12.798 12.798 0 0 1-2.095-1.103z" style="paint-order:fill markers stroke" transform="translate(628.8 -254.2)"/><path d="M-440.1 390.4c1.331 3.544 3.645 6.678 6.464 9.205a28.117 28.117 0 0 0 7.828 4.962 14.17 14.17 0 0 0 3.391-3.458 12.522 12.522 0 0 0 2.079 2.443 12.531 12.531 0 0 0 4.444 2.599 64.075 64.075 0 0 0 6.734-2.906c3.39-1.699 6.674-3.737 9.225-6.542a20.388 20.388 0 0 0 3.308-4.925c.11-.368.084-.775-.073-1.125a1.626 1.626 0 0 0-.846-.823 6.109 6.109 0 0 0-2.954 1.268 16.14 16.14 0 0 0 2.853-8.25 1.316 1.316 0 0 0-1.756-.404c-.25.148-.443.379-.592.628-.15.25-.261.52-.382.786-.755 1.664-1.897 3.127-3.16 4.447-1.89 1.973-4.103 3.673-6.615 4.748-3.476 1.488-7.393 1.72-11.14 1.22-3.374-.449-6.716-1.497-9.519-3.43-2.69-1.853-4.787-4.445-6.627-7.146a63.033 63.033 0 0 1-2.39-3.794c-.194-.335-.388-.675-.65-.962a2.632 2.632 0 0 0-.892-.639 2.632 2.632 0 0 0-.893.64c-.261.286-.455.625-.65.96a62.226 62.226 0 0 1-2.39 3.795c-1.84 2.7-3.936 5.292-6.627 7.147-2.803 1.932-6.145 2.98-9.519 3.43-3.748.499-7.665.266-11.14-1.221-2.512-1.075-4.724-2.775-6.614-4.748-1.264-1.32-2.405-2.783-3.16-4.447-.121-.265-.232-.536-.382-.786s-.343-.48-.593-.63a1.316 1.316 0 0 0-1.756.405 16.148 16.148 0 0 0 2.853 8.251 6.098 6.098 0 0 0-2.954-1.268c-.371.156-.68.456-.845.823-.158.35-.184.757-.073 1.125a20.387 20.387 0 0 0 3.308 4.925c2.55 2.805 5.835 4.843 9.225 6.542a64.193 64.193 0 0 0 6.734 2.906 12.494 12.494 0 0 0 6.523-5.042 14.144 14.144 0 0 0 3.39 3.458 28.094 28.094 0 0 0 7.829-4.962c2.819-2.527 5.133-5.661 6.464-9.205a20.465 20.465 0 0 0 1.27-6.011 20.465 20.465 0 0 0 1.27 6.011z" style="paint-order:fill markers stroke" transform="translate(628.8 -254.2)"/><path d="M-443.3 374c-1.679 2.003-3.199 4.133-4.668 6.294-1.137 1.673-2.256 3.379-3.697 4.799a14.298 14.298 0 0 1-7.277 3.826 4.307 4.307 0 0 1-.26-3.462 17.075 17.075 0 0 1-5.769 4.366 17.447 17.447 0 0 1-6.08-.904 17.453 17.453 0 0 1-5.978-3.462 12.57 12.57 0 0 1 1.924-1.923 7.53 7.53 0 0 1-3.326-.286 7.62 7.62 0 0 1-4.73-4.496 4.621 4.621 0 0 1 2.95-.234 8.184 8.184 0 0 1-2.051-2.807 8.188 8.188 0 0 1-.692-3.586 2.801 2.801 0 0 1 1.56.468c.64.428 1.072 1.096 1.532 1.715a16.207 16.207 0 0 0 4.444 4.08c2.835 1.76 6.243 2.628 9.563 2.287 2.008-.207 3.956-.841 5.788-1.69 2.378-1.1 4.572-2.556 6.715-4.064 1.801-1.267 3.594-2.585 5.623-3.438.757-.319 1.546-.57 2.36-.678.814-.106 1.655-.063 2.434.195.56.186 1.082.481 1.53.865A50.302 50.302 0 0 0-443.3 374zM-439.5 374c1.679 2.003 3.199 4.133 4.668 6.294 1.137 1.673 2.256 3.379 3.697 4.799a14.298 14.298 0 0 0 7.277 3.826 4.307 4.307 0 0 0 .26-3.462 17.075 17.075 0 0 0 5.769 4.366 17.447 17.447 0 0 0 6.08-.904 17.453 17.453 0 0 0 5.978-3.462 12.57 12.57 0 0 0-1.924-1.923 7.53 7.53 0 0 0 3.326-.286 7.62 7.62 0 0 0 4.73-4.496 4.621 4.621 0 0 0-2.95-.234 8.184 8.184 0 0 0 2.051-2.807 8.188 8.188 0 0 0 .692-3.586 2.801 2.801 0 0 0-1.56.468c-.64.428-1.072 1.096-1.532 1.715a16.207 16.207 0 0 1-4.444 4.08c-2.835 1.76-6.243 2.628-9.563 2.287-2.008-.207-3.956-.841-5.788-1.69-2.378-1.1-4.572-2.556-6.715-4.064-1.801-1.267-3.594-2.585-5.623-3.438-.757-.319-1.546-.57-2.36-.678-.814-.106-1.655-.063-2.434.195a4.568 4.568 0 0 0-1.53.865A50.302 50.302 0 0 1-439.5 374z" style="paint-order:fill markers stroke" transform="translate(628.8 -254.2)"/><path d="M-445.4 353.7c-1.03.767-1.869 1.756-2.705 2.73-1.469 1.712-2.969 3.418-4.741 4.815-2.136 1.683-4.625 2.878-7.203 3.745-1.795.603-3.657 1.055-5.55 1.125-2.11.078-4.213-.319-6.248-.882-1.969-.545-3.926-1.264-5.568-2.481-.507-.376-.992-.802-1.58-1.029a2.65 2.65 0 0 0-1.188-.165c-.202.29-.32.639-.332.992-.018.488.156.96.332 1.415.133.343.269.684.407 1.025a3.248 3.248 0 0 0-1.479 1.125c.194.728.427 1.447.698 2.15.158.41.336.826.644 1.139.292.298.68.481 1.047.68.193.104.383.214.57.33a9.214 9.214 0 0 1 .66 2.959 7.22 7.22 0 0 0 1.673.716c1.335.382 2.754.369 4.135.22.878-.093 1.75-.24 2.609-.44a4.567 4.567 0 0 0 1.268 1.635c2.405.301 4.869.12 7.203-.53 2.636-.734 5.087-2.055 7.277-3.696a27.638 27.638 0 0 0 3.185-2.791 3.34 3.34 0 0 0 1.56 1.19 22.12 22.12 0 0 0 4.573-4.907 22.119 22.119 0 0 0 2.776-5.69 22.098 22.098 0 0 0 7.35 10.598 3.34 3.34 0 0 0 1.56-1.191 27.756 27.756 0 0 0 3.185 2.79c2.19 1.642 4.64 2.963 7.277 3.697 2.335.65 4.799.831 7.203.53a4.568 4.568 0 0 0 1.268-1.635c.86.2 1.732.347 2.609.44 1.38.149 2.799.162 4.135-.22a7.202 7.202 0 0 0 1.672-.716 9.176 9.176 0 0 1 .661-2.958c.187-.116.377-.227.57-.331.368-.199.755-.382 1.047-.68.307-.314.485-.73.643-1.14a21.12 21.12 0 0 0 .698-2.15 3.257 3.257 0 0 0-1.479-1.124c.139-.34.275-.682.407-1.025.177-.455.35-.927.333-1.415a1.864 1.864 0 0 0-.333-.992 2.648 2.648 0 0 0-1.188.165c-.588.227-1.073.654-1.58 1.029-1.642 1.216-3.598 1.935-5.568 2.481-2.035.564-4.138.96-6.248.882-1.893-.07-3.754-.522-5.55-1.125-2.578-.866-5.067-2.061-7.203-3.745-1.772-1.396-3.272-3.102-4.74-4.815-.837-.974-1.677-1.963-2.706-2.73-1.16-.865-2.575-1.429-4.023-1.429s-2.862.564-4.023 1.429z" style="paint-order:fill markers stroke" transform="translate(628.8 -254.2)"/><path d="M-463.9 336.6c1.675 2.363 4.421 3.913 7.303 4.21 2.436.25 4.869-.345 7.303-.624a28.29 28.29 0 0 1 7.895.208 19.81 19.81 0 0 1-4.777 9.987c-1.307 1.456-2.824 2.711-4.418 3.846a41.188 41.188 0 0 1-6.198 3.644 1.93 1.93 0 0 1-.603-.155 1.962 1.962 0 0 1-1.125-1.443 51.06 51.06 0 0 1-.54 3.586 15.936 15.936 0 0 1-9.076 1.663c-2.556-.294-5.1-1.265-6.913-3.093a8.998 8.998 0 0 1-2.287-3.976 14.38 14.38 0 0 0 4.08-1.351 11.276 11.276 0 0 1-2.703-6.445 3.893 3.893 0 0 1 .003-.821c.037-.272.123-.541.283-.764a1.35 1.35 0 0 1 .585-.46c.233-.094.492-.123.74-.086.465.07.871.366 1.17.728.596.723.806 1.68 1.22 2.52.791 1.602 2.33 2.742 4.002 3.372 2.221.836 4.71.85 6.998.223a13.18 13.18 0 0 0 2.8-1.125 11.269 11.269 0 0 0-1.274-4.418 17.53 17.53 0 0 0-2.65 3.43 5.305 5.305 0 0 1-1.508-.884c-.773-.646-1.347-1.5-1.82-2.39a14.903 14.903 0 0 1-1.125-2.756 8.9 8.9 0 0 1-3.838-1.87c-.763-.64-1.43-1.429-1.767-2.366a4.166 4.166 0 0 1-.233-1.715c.497.036.992.106 1.48.208.517.108 1.025.252 1.534.39.647.175 1.297.34 1.949.494a8.566 8.566 0 0 1-.104-1.95c.057-.947.287-1.911.85-2.676a3.509 3.509 0 0 1 1.125-.988 9.872 9.872 0 0 0 1.637 3.846z" style="paint-order:fill markers stroke" transform="translate(628.8 -254.2)"/><path d="M-418.9 336.6c-1.675 2.363-4.421 3.913-7.303 4.21-2.436.25-4.869-.345-7.303-.624a28.29 28.29 0 0 0-7.895.208 19.81 19.81 0 0 0 4.777 9.987c1.307 1.456 2.824 2.711 4.418 3.846a41.188 41.188 0 0 0 6.198 3.644 1.93 1.93 0 0 0 .603-.155 1.962 1.962 0 0 0 1.125-1.443 51.06 51.06 0 0 0 .54 3.586 15.936 15.936 0 0 0 9.076 1.663c2.556-.294 5.1-1.265 6.913-3.093a8.998 8.998 0 0 0 2.287-3.976 14.38 14.38 0 0 1-4.08-1.351 11.276 11.276 0 0 0 2.703-6.445c.021-.273.033-.55-.003-.821a1.691 1.691 0 0 0-.283-.764 1.35 1.35 0 0 0-.585-.46 1.415 1.415 0 0 0-.74-.086c-.465.07-.871.366-1.17.728-.596.723-.806 1.68-1.22 2.52-.791 1.602-2.33 2.742-4.002 3.372-2.221.836-4.71.85-6.998.223a13.18 13.18 0 0 1-2.8-1.125 11.269 11.269 0 0 1 1.274-4.418 17.53 17.53 0 0 1 2.65 3.43 5.305 5.305 0 0 0 1.508-.884c.773-.646 1.347-1.5 1.82-2.39.465-.878.843-1.803 1.125-2.756a8.9 8.9 0 0 0 3.838-1.87c.763-.64 1.43-1.429 1.767-2.366a4.166 4.166 0 0 0 .233-1.715c-.497.036-.992.106-1.48.208-.517.108-1.025.252-1.534.39-.647.175-1.297.34-1.949.494a8.566 8.566 0 0 0 .104-1.95c-.057-.947-.287-1.911-.85-2.676a3.509 3.509 0 0 0-1.125-.988 9.872 9.872 0 0 1-1.637 3.846zM-447 330.8c-3.97.214-8.005-.273-11.72-1.689a24.424 24.424 0 0 1-7.017-4.132 9.207 9.207 0 0 0 .676 3.638 9.31 9.31 0 0 0 5.379 5.172 97.491 97.491 0 0 0-1.612 2.287 12.8 12.8 0 0 0 3.742 1.481c2.332.519 4.766.375 7.121-.026 2.021-.344 4.041-.888 5.795-1.949 1.113-.673 2.123-1.573 2.721-2.729.449-.867.65-1.86.575-2.833a34.478 34.478 0 0 1-5.66.78z" style="paint-order:fill markers stroke" transform="translate(628.8 -254.2)"/><path d="M-435.7 330.8c3.97.214 8.005-.273 11.72-1.689a24.424 24.424 0 0 0 7.017-4.132 9.207 9.207 0 0 1-.676 3.638 9.31 9.31 0 0 1-5.379 5.172 97.491 97.491 0 0 1 1.612 2.287 12.8 12.8 0 0 1-3.742 1.481c-2.332.519-4.766.375-7.121-.026-2.021-.344-4.041-.888-5.795-1.949-1.113-.673-2.123-1.573-2.721-2.729a5.312 5.312 0 0 1-.575-2.833c1.861.416 3.756.677 5.66.78z" style="paint-order:fill markers stroke" transform="translate(628.8 -254.2)"/><path d="M-442.7 321.4c-.376.739-.63 1.533-.992 2.279-.96 1.976-2.655 3.541-4.594 4.574-.756.402-1.551.73-2.371.976a6.443 6.443 0 0 1-.699-2.609 12.311 12.311 0 0 1-8.299-2.776 12.204 12.204 0 0 1-2.84-3.384 5.525 5.525 0 0 1 1.716-1.598 6.748 6.748 0 0 0-1.585-1.014c-.408-.186-.849-.341-1.156-.667-.258-.274-.394-.643-.456-1.013-.06-.371-.053-.75-.059-1.125-.01-.58-.052-1.172.11-1.73.1-.342.278-.661.515-.928a20.208 20.208 0 0 0 3.234 2.032c2.127 1.071 4.496 1.77 6.873 1.617 1.689-.107 3.32-.636 4.925-1.176a273.262 273.262 0 0 0 7.034-2.473c2.333.857 4.678 1.681 7.034 2.473 1.605.54 3.235 1.068 4.925 1.176 2.377.152 4.746-.546 6.873-1.617a20.271 20.271 0 0 0 3.234-2.032c.237.267.414.586.514.929.163.556.12 1.149.11 1.729-.005.375.003.753-.059 1.125-.06.37-.197.74-.455 1.013-.307.326-.748.48-1.156.667a6.7 6.7 0 0 0-1.585 1.014 5.523 5.523 0 0 1 1.715 1.598 12.216 12.216 0 0 1-2.84 3.384 12.31 12.31 0 0 1-8.299 2.776 6.44 6.44 0 0 1-.698 2.609 13.058 13.058 0 0 1-2.371-.976c-1.94-1.032-3.635-2.597-4.594-4.574-.362-.746-.617-1.54-.992-2.279a7.755 7.755 0 0 0-1.356-1.893 7.728 7.728 0 0 0-1.356 1.893z" style="paint-order:fill markers stroke" transform="translate(628.8 -254.2)"/><path d="M-443.9 307.2c-1.171-.073-2.335.176-3.489.39-1.203.223-2.453.406-3.638.104-1.304-.333-2.434-1.267-3.041-2.47-.339-.671-.527-1.427-.987-2.022a2.689 2.689 0 0 0-.65-.602 6.963 6.963 0 0 0-.962 2.053c-.37 1.314-.339 2.746.13 4.028.69 1.888 2.326 3.374 4.236 4.002 1.72.565 3.605.465 5.353 0 1.752-.466 3.417-1.299 4.78-2.496.225-.198.444-.409.606-.661a1.92 1.92 0 0 0 .198-1.624 6.41 6.41 0 0 0-2.536-.702z" style="paint-order:fill markers stroke" transform="translate(628.8 -254.2)"/><path d="M-438.8 308c1.163.132 2.326.262 3.489.39 1.209.132 2.432.262 3.638.104a5.569 5.569 0 0 0 1.53-.408c.484-.214.933-.52 1.279-.92.562-.652.821-1.504 1.209-2.272a7.255 7.255 0 0 1 2.534-2.816 4.898 4.898 0 0 1 1.256 3.416c-.03.928-.33 1.833-.77 2.651s-1.016 1.553-1.631 2.25c-1.152 1.302-2.493 2.51-4.133 3.088-1.71.604-3.603.47-5.353 0-1.752-.47-3.433-1.279-4.78-2.496a3.856 3.856 0 0 1-.606-.661 2.428 2.428 0 0 1-.415-1.162 2.43 2.43 0 0 1 .212-1.216l2.54.052z" style="paint-order:fill markers stroke" transform="translate(628.8 -254.2)"/><path d="M-437 292.8a9.616 9.616 0 0 0 3.94-6.081 3.25 3.25 0 0 1 2.09 1.366c.374.556.566 1.221.617 1.889.051.668-.032 1.34-.175 1.994a11.157 11.157 0 0 1-1.3 3.3 34.018 34.018 0 0 0 6.108-.676 4.457 4.457 0 0 1-.52 2.703c-.448.808-1.147 1.462-1.945 1.927-.798.465-1.693.748-2.603.906a10.472 10.472 0 0 1-3.976-.078 9.902 9.902 0 0 0 5.287 2.806 3.375 3.375 0 0 1-1.363 1.74c-.926.594-2.084.696-3.181.624-2.102-.136-4.208-.886-5.734-2.339a7.483 7.483 0 0 1-1.384-1.793 8.856 8.856 0 0 1-1.554 1.793c-1.576 1.39-3.638 2.187-5.734 2.34-1.097.079-2.256-.029-3.181-.624a3.398 3.398 0 0 1-1.363-1.741 9.937 9.937 0 0 0 5.287-2.806c-1.304.28-2.662.306-3.976.078-.91-.158-1.805-.44-2.603-.906-.798-.465-1.496-1.119-1.945-1.927a4.456 4.456 0 0 1-.52-2.703 33.99 33.99 0 0 0 6.107.676c-.49-1.108-.79-2.3-.883-3.508-.055-.712-.037-1.433.112-2.131.149-.698.433-1.374.875-1.934a3.96 3.96 0 0 1 2.09-1.366c-.116 2.465 1.03 4.956 2.978 6.471a7.785 7.785 0 0 0 4.225 1.611 9.549 9.549 0 0 0 4.225-1.611z" style="paint-order:fill markers stroke" transform="translate(628.8 -254.2)"/><path d="M-436.5 284.5c.416.002.831.11 1.195.312a6.852 6.852 0 0 1-1.578 3.846c-.57.676-1.266 1.236-2.009 1.715-.74.477-1.529.879-2.35 1.195a8.073 8.073 0 0 1-2.12-1.021c-1.211-.822-2.2-1.996-2.703-3.371a6.284 6.284 0 0 1-.338-2.885 5.518 5.518 0 0 1 2.936.727 12.537 12.537 0 0 1-.182-5.016 12.547 12.547 0 0 1 2.405-5.535 7.57 7.57 0 0 1 1.934 2.677c.62 1.444.773 3.037.936 4.6.113 1.084.234 2.167.364 3.248.432-.32.969-.496 1.507-.493z" style="paint-order:fill markers stroke" transform="translate(628.8 -254.2)"/></g></g></g><path d="M2.998 3v209.9c15.02 195 177.1 232.4 184.5 233.9 7.47-1.502 169.6-38.99 184.5-233.9V3z" fill="none" stroke="#000" stroke-width="6"/></svg>