<svg width="500" height="600.1" version="1.0" xml:space="preserve" xmlns="http://www.w3.org/2000/svg" xmlns:cc="http://creativecommons.org/ns#" xmlns:dc="http://purl.org/dc/elements/1.1/" xmlns:rdf="http://www.w3.org/1999/02/22-rdf-syntax-ns#"><metadata><rdf:RDF><cc:Work rdf:about=""><dc:format>image/svg+xml</dc:format><dc:type rdf:resource="http://purl.org/dc/dcmitype/StillImage"/><dc:title/></cc:Work></rdf:RDF></metadata><path d="m4 4v280c20 260 236 310 246 312 10-2 226-52 246-312v-280z" fill="#1c63b7" stroke="#000" stroke-width="8"/><g stroke="#000" stroke-linecap="round" stroke-linejoin="round" stroke-width="2"><path d="m170.7 323.8c-0.4596 0.0145-0.9125 0.1565-1.305 0.3965-0.605 0.3702-1.051 0.9612-1.355 1.602s-0.4796 1.334-0.6445 2.023c-0.902 3.773-1.536 7.761-0.5 11.5 0.8733 3.153 2.916 5.926 5.521 7.904 0.6683 0.5074 1.452 0.8228 2.184 1.23l2.295-5.525c-0.1901-0.1281-0.4161-0.198-0.5996-0.3359-1.216-0.9142-2.279-2.072-2.9-3.461-0.8901-1.991-0.8102-4.271-0.5625-6.438 0.1433-1.253 0.337-2.5 0.5-3.75 0.1142-0.8759 0.2121-1.77 0.0547-2.639-0.0787-0.4346-0.2204-0.8613-0.4473-1.24-0.2268-0.379-0.5398-0.7088-0.9199-0.9336-0.3958-0.234-0.8608-0.3484-1.32-0.334z" fill="#fff"/><path d="m172 324.1c-0.1524-4.042 0.2667-8.106 1.241-12.03 0.7304-2.943 1.77-5.804 3.005-8.574 1.425-3.195 3.112-6.273 5.038-9.192-1.86 1.923-3.495 4.064-4.861 6.364-2.797 4.709-4.441 10.05-5.215 15.47-0.361 2.528-0.5376 5.083-0.5281 7.637"/></g><g stroke="#000"><path d="m250 440.6c-64.76 0-129.5 4.408-193.7 13.18 23.33 37.25 54.29 69.7 90.41 94.75 31.29 21.7 66.42 37.86 103.3 47.48 36.84-9.628 71.97-25.78 103.3-47.48 36.12-25.05 67.08-57.5 90.41-94.75-64.16-8.775-128.9-13.18-193.7-13.18z" fill="#094" stroke-linecap="round" stroke-linejoin="round" stroke-width="4"/><g><path d="m355.7 278.7 42.95 49.26c0.2791 2.87 0.1949 5.776-0.25 8.625-0.2228 1.427-0.5447 2.864-1.25 4.125-0.6252 1.117-1.534 2.059-2.556 2.83-1.022 0.7708-2.159 1.378-3.318 1.92-4.039 1.89-8.388 3.024-12.5 4.75-4.556 1.912-8.775 4.53-13.12 6.875-3.318 1.788-6.816 3.497-9.25 6.375-1.044 1.235-1.87 2.678-2.25 4.25-0.389 1.608-0.3106 3.32-0.875 4.875-0.3311 0.9119-0.8844 1.748-1.625 2.375-0.668 0.5653-1.474 0.9509-2.308 1.214-0.8345 0.2634-1.701 0.4093-2.567 0.5356-2.839 0.4142-5.707 0.627-8.576 0.6364-0.4218 2.387-1.955 4.554-4.066 5.745-1.311 0.74-2.827 1.111-4.331 1.061 0.8666-0.2073 1.761-0.2968 2.652-0.2652 0.5857 0.0208 1.174 0.0949 1.728 0.286s1.074 0.5047 1.454 0.9514c0.42 0.4945 0.6491 1.129 0.7489 1.77s0.0781 1.294 0.0466 1.942c-0.1189 2.446-0.405 4.98-1.679 7.071-1.142 1.875-2.982 3.222-4.907 4.278-1.925 1.056-3.977 1.87-5.877 2.969-1.889 1.093-3.652 2.479-5.745 3.094-0.4051 0.119-0.8191 0.2077-1.237 0.2652 0.4276-4.885 0.7812-9.777 1.061-14.67 0.216-3.784 0.4106-7.671 1.945-11.14 1.487-3.36 4.126-6.069 6.894-8.485 1.889-1.649 3.893-3.23 5.303-5.303 0.9667-1.422 1.627-3.039 2.652-4.419 1.77-2.386 4.467-3.874 7.071-5.303 5.318-2.92 10.6-5.9 15.91-8.839 5.792-3.208 11.77-6.499 15.91-11.67 1.178-1.471 2.188-3.075 3.005-4.773-0.1947-2.038-0.9204-4.022-2.086-5.705-1.275-1.841-3.049-3.297-4.983-4.428-1.933-1.131-4.03-1.952-6.142-2.697-8.205-2.897-16.79-4.734-24.75-8.25-8.133-3.592-15.55-8.975-21-16-2.823-3.639-5.106-7.697-6.75-12" fill="#fff" stroke-linecap="round" stroke-linejoin="round" stroke-width="4"/><path d="m217.2 228.3 93 4.5 23.48 49.67c-2.82 0.5592-5.641 1.178-8.463 1.769-2.822 0.5907-9.512-0.96-14.27-1.438s-7.221 1.429-10.83 2.146c-3.612 0.7162-15.32 4.949-22.98 7.425-7.661 2.476-18.12 5.092-27.19 7.64-9.063 2.548-14.76-1.264-22.13-1.895s-26.08-2.545-39.12-3.815z" fill="#fff" stroke-linecap="round" stroke-linejoin="round" stroke-width="4"/><path d="m421.9 248.7c3.403 8.248 5.757 16.93 6.985 25.77 0.8245 5.93 1.157 11.98 3.005 17.68 2.889 8.902 9.572 16.5 18.03 20.51-1.975-2.812-3.693-5.804-5.127-8.927-3.09-6.734-4.84-14.08-5.119-21.48" fill="#fff" stroke-linecap="round" stroke-linejoin="round" stroke-width="3"/><path d="m311.2 264.1c5.041 2.208 9.709 5.264 13.75 9 4.678 4.325 8.479 9.512 13 14 6.005 5.961 13.24 10.63 21 14 4.865 2.113 9.997 3.756 14.38 6.75 4.829 3.302 8.446 8.041 12.38 12.38 4.609 5.085 9.746 9.7 15.38 13.62 3.811 2.658 7.896 5.043 11 8.5 1.472 1.64 2.698 3.5 3.625 5.5 1.232 7.51 1.401 15.19 0.5 22.75-0.7501 6.293-2.234 12.48-3.125 18.75-0.5552 3.909-0.8795 7.85-1.5 11.75-0.5102 3.207-1.22 6.382-2.125 9.5-5.11 4.933-10.23 9.849-15.38 14.75-4.357 4.154-8.747 8.321-12.38 13.12-1.847 2.445-3.487 5.046-4.899 7.766 4.707 0.4193 9.412 0.862 14.11 1.328 3.667 0.3634 7.332 0.7409 11 1.133-0.3159-2.182 0.408-4.491 1.913-6.102 1.09-1.167 2.535-1.958 3.625-3.125 0.7538-0.8074 1.325-1.792 1.604-2.861 0.2788-1.069 0.2588-2.221-0.104-3.264-0.5362-1.542-1.792-2.766-3.25-3.5-1.12-0.5641-2.371-0.866-3.625-0.875 1.197 0.3347 2.407 0.6266 3.625 0.875 0.9437 0.1924 1.9 0.3594 2.863 0.3457 0.963-0.0137 1.941-0.2174 2.762-0.7207 0.8074-0.4948 1.419-1.247 1.993-2.001 0.5734-0.7537 1.135-1.534 1.881-2.118 1.054-0.8251 2.391-1.192 3.705-1.448 1.314-0.257 2.659-0.4281 3.897-0.938 1.258-0.5181 2.37-1.383 3.182-2.475-0.3068-4.707-0.3068-9.435 0-14.14 0.3747-5.749 1.206-11.46 2.121-17.15 1.135-7.053 2.403-14.09 4.066-21.04 1.13-4.722 2.453-9.432 4.596-13.79 1.468-2.985 3.314-5.784 5.48-8.309-0.7484-2.681-1.756-5.29-3.005-7.778-4.172-8.312-10.87-15.02-16.79-22.19-4.38-5.307-8.424-11.02-10.75-17.5-2.525-7.03-2.912-14.61-4-22-1.292-8.77-3.613-17.41-7.25-25.5-3.619-8.044-8.535-15.5-14.5-22 8.158 3.11 15.84 7.458 22.71 12.85 10.32 8.106 18.72 18.51 25.28 29.88 5.285 9.157 9.496 19.07 16.44 27.05 2.39 2.744 5.098 5.237 8.188 7.159 3.09 1.922 6.576 3.26 10.2 3.624 2.791 0.2808 5.639-0.0223 8.308-0.8839-3.198-0.5745-6.28-1.783-9.016-3.536-6.087-3.899-10.18-10.25-13.26-16.79-2.559-5.444-4.55-11.16-7.425-16.44-1.486-2.731-3.203-5.336-5.127-7.778 1.446 1.803 2.762 3.709 3.936 5.7 1.973 3.345 3.536 6.912 5.115 10.46 1.652 3.712 3.325 7.414 5.022 11.11 0.5367-2.894 0.7089-5.856 0.511-8.793-0.4153-6.165-2.459-12.15-5.392-17.59-5.051-9.366-12.81-17.25-22.1-22.45 2.651 1.759 5.283 3.546 7.897 5.359 3.041 2.109 6.062 4.261 8.838 6.709 5.825 5.138 10.51 11.58 13.5 18.75 1.207 2.894 2.139 5.896 3.345 8.79 1.207 2.894 2.717 5.714 4.905 7.96 2.138 2.194 4.897 3.78 7.875 4.5 1.754 0.4241 3.579 0.5515 5.375 0.375-2.022-0.9712-3.828-2.39-5.25-4.125-2.679-3.268-3.892-7.458-5.125-11.5-1.723-5.648-3.622-11.28-6.375-16.5-2.649-5.026-6.077-9.639-10.12-13.62 2.445 2.42 4.67 5.063 6.638 7.885 2.952 4.233 5.323 8.87 7.027 13.74 1.088-3.075 1.545-6.371 1.335-9.626-0.4296-6.669-3.638-12.94-8-18-7.505-8.711-18.55-14.19-30-15.25-5.744-0.5305-11.59-5e-3 -17.25-1.125-4.036-0.7991-7.863-2.416-11.57-4.205-8.034-3.879-15.63-8.599-23.35-13.07-7.3-4.229-14.73-8.242-22.26-12.03" fill="#fff" stroke-linecap="round" stroke-linejoin="round" stroke-width="4"/><path d="m117.9 280.7c-4.44 1.273-8.912 2.438-13.41 3.493-6.553 1.538-13.27 2.85-19.98 2.298-3.761-0.3093-7.473-1.207-10.96-2.652-2.701 1.536-5.301 3.25-7.778 5.127-2.595 1.966-5.143 4.23-6.364 7.248-0.6608 1.633-0.8969 3.415-0.8877 5.177 0.0091 1.762 0.2569 3.513 0.5342 5.253 0.8999 5.648 2.117 11.26 2.475 16.97 0.3651 5.829-0.1716 11.67-0.5303 17.5-0.1936 3.146-0.3349 6.31 0.0041 9.443 0.339 3.133 1.178 6.255 2.824 8.942 1.43 2.334 3.457 4.299 5.834 5.657 0.5319 2.662 1.491 5.239 2.828 7.601 1.201 2.12 2.699 4.061 3.889 6.187 0.7537 1.347 1.38 2.762 2.155 4.097 0.775 1.334 1.718 2.605 2.971 3.505 0.4851 0.3483 1.017 0.6392 1.589 0.8086 0.5726 0.1694 1.189 0.2136 1.77 0.0753 0.5684-0.1354 1.09-0.443 1.509-0.8495 0.4196-0.4066 0.7399-0.9096 0.9656-1.449 0.4594-1.097 0.5267-2.317 0.5064-3.506-0.02037-1.189-0.1218-2.384 0.02397-3.565 0.2017-1.633 0.8673-3.17 1.237-4.773 0.6522-2.825 0.3726-5.769 0.1768-8.662-0.07825-1.156-0.1448-2.326-0.4854-3.434s-0.9908-2.166-1.989-2.753c-0.9084-0.5346-2.026-0.6311-3.064-0.4486s-2.012 0.6241-2.947 1.112c-1.487 0.7758-2.908 1.679-4.243 2.696 0.9481-0.5108 1.721-1.34 2.164-2.321 0.4433-0.9815 0.5542-2.11 0.3105-3.159-0.3178-1.368-1.192-2.526-1.945-3.712-0.4054-0.6394-0.785-1.309-0.9641-2.045-0.08954-0.3678-0.1275-0.7499-0.09062-1.127 0.03687-0.3768 0.1499-0.7482 0.3476-1.071 0.2421-0.3954 0.6013-0.7056 0.9785-0.9752 0.3772-0.2696 0.7783-0.5059 1.143-0.7925 0.6314-0.4967 1.146-1.146 1.463-1.884 0.3167-0.7383 0.4321-1.565 0.305-2.359-0.1441-0.8992-0.5885-1.725-1.119-2.465s-1.152-1.411-1.709-2.131c-2.89-3.732-3.924-8.564-4.419-13.26-0.8402-7.961-0.3603-16.06 1.414-23.86 1.922-0.3454 3.884-0.4643 5.834-0.3536 4.863 0.2763 9.526 1.962 14.32 2.828 4.799 0.8679 9.728 0.9139 14.5 1.945 4.465 0.9653 8.699 2.775 13.08 4.066 8.358 2.462 17.28 3.009 25.87 1.586" fill="#fff" stroke-linecap="round" stroke-linejoin="round" stroke-width="4"/><path d="m125.7 149.7c1.031 7.251 0.7297 14.69-0.8839 21.83-1.054 4.666-2.657 9.187-4.243 13.7-2.958 8.416-5.879 16.88-7.601 25.63-2.464 12.52-2.426 25.42-1.398 38.14 0.4915 6.078 1.246 12.28 3.938 17.75 0.4931 1.003 1.052 1.98 1.763 2.842s1.579 1.61 2.592 2.081c0.5593 0.2601 1.159 0.434 1.77 0.5136-0.2232-0.0291-0.4448-0.0706-0.6634-0.1244-0.3804-0.0935-0.7517-0.2241-1.107-0.3892-1.115 1.432-1.853 3.155-2.121 4.95-0.4865 3.254 0.5816 6.6 2.373 9.36s4.265 5.006 6.819 7.081c4.128 3.353 8.546 6.349 13.19 8.943-0.9794-1.263-1.806-2.644-2.456-4.103-0.889-1.996-1.449-4.165-1.4-6.35 0.0331-1.482 0.3473-2.957 0.921-4.323-1.019 2.504-1.207 5.338-0.5303 7.955 1.023 3.954 3.852 7.139 6.01 10.61 1.677 2.695 2.975 5.622 3.889 8.662 2.734 9.088 1.988 18.8 1.768 28.28-0.0837 3.599-0.0875 7.211 0.3536 10.78 0.4702 3.809 1.441 7.537 2.121 11.31 1.572 8.73 1.578 17.65 1.945 26.52 0.127 3.067 0.2966 6.159-0.1768 9.192-0.3094 1.983-0.902 3.942-1.945 5.657-1.337 2.198-3.366 3.928-4.596 6.187-1.205 2.214-1.567 4.796-2.652 7.071-0.8735 1.832-2.219 3.442-3.889 4.596-1.131 0.7818-2.397 1.351-3.536 2.121-1.845 1.247-3.312 2.993-4.462 4.9-1.15 1.906-2 3.977-2.786 6.06-1.103 2.926-2.089 5.896-2.954 8.901 3.771-0.329 7.544-0.6431 11.32-0.9422 2.863-0.2269 5.727-0.4452 8.591-0.6549 0.1697-1.735 0.9197-3.409 2.102-4.691 0.7198-0.7803 1.592-1.417 2.25-2.25 0.6609-0.8362 1.081-1.84 1.367-2.867s0.4446-2.084 0.633-3.133c0.1053-0.5864 0.2206-1.178 0.1848-1.773-0.0179-0.2973-0.0743-0.5938-0.1853-0.8703-0.111-0.2764-0.2779-0.5325-0.4995-0.7316-0.4078-0.3665-0.963-0.514-1.5-0.625-1.091-0.2255-2.203-0.3492-3.317-0.3691 0.7225-0.0189 1.447 0.0377 2.158 0.1684 0.3859 0.071 0.7688 0.1639 1.159 0.2007 0.7235 0.0682 1.462-0.0607 2.129-0.3488 0.6671-0.2882 1.263-0.7334 1.746-1.276 0.7175-0.8061 1.181-1.815 1.456-2.858s0.3703-2.126 0.4193-3.204c0.0221-0.4865 0.0352-0.9752 0.1158-1.456 0.0806-0.4803 0.2323-0.9563 0.5092-1.357 0.2471-0.3575 0.5876-0.6448 0.9651-0.8602 0.3774-0.2154 0.7916-0.3609 1.213-0.4649 0.8439-0.208 1.72-0.2525 2.571-0.4249 0.8065-0.1632 1.594-0.4437 2.293-0.8785 0.6985-0.4348 1.306-1.028 1.707-1.746 0.3644-0.6524 0.5519-1.392 0.6286-2.136 0.0767-0.7434 0.046-1.493-4e-3 -2.239-0.3368-5.071-1.539-10.05-1.875-15.12-0.3261-4.916 0.165-9.845 0.625-14.75 1.212-12.93 2.227-25.96 5.643-38.49 1.698-6.229 3.978-12.28 6.4-18.27 13.4-33.09 31.31-64.35 53.09-92.64" fill="#fff" stroke-linecap="round" stroke-linejoin="round" stroke-width="4"/><path d="m245 243.7c-20.64-40.93-50.23-77.33-86.09-105.9-6.011-4.788-12.19-9.358-18.21-14.14-6.329-5.034-12.63-10.4-20.21-13.21-3.597-1.334-7.417-2.056-11.25-2.168-2.89-0.0838-5.789 0.1778-8.617 0.7776 1.271 2.365 2.308 4.855 3.093 7.422 0.8543 2.795 1.409 5.681 1.651 8.594-0.7643-9.524-5.007-18.73-11.75-25.5-2.117-2.125-4.469-4.015-7-5.625-2.992 5.884-3.632 12.92-1.75 19.25 0.9735 3.272 2.598 6.35 4.75 9-4.355 1.439-8.471 3.603-12.12 6.375-4.968 3.769-9.127 8.761-11.25 14.62-1.518 4.194-1.963 8.694-3.125 13-0.4953 1.835-1.121 3.637-1.5 5.5-0.2696 1.327-0.412 2.692-0.252 4.036 0.16 1.344 0.637 2.672 1.502 3.714 0.6577 0.7919 1.531 1.403 2.5 1.75-0.1707 11.54-0.129 23.09 0.125 34.62 0.04091 1.858 0.07662 3.779-0.625 5.5-0.5728 1.405-1.596 2.573-2.375 3.875-0.6701 1.12-1.163 2.355-1.364 3.645s-0.1024 2.636 0.3639 3.855c0.584 1.527 1.7 2.777 2.625 4.125 0.9424 1.373 1.697 2.867 2.625 4.25 0.9465 1.41 2.111 2.731 3.625 3.5 1.392 0.7071 3.037 0.9018 4.555 0.5392 1.518-0.3626 2.898-1.28 3.82-2.539-0.5779-2.87-0.423-5.885 0.446-8.681 0.3949-1.271 0.9391-2.504 1.71-3.588s1.776-2.018 2.969-2.606c0.7659-0.3774 1.611-0.6105 2.465-0.611 0.8538-5.8e-4 1.716 0.2393 2.41 0.736 0.9774 0.6992 1.556 1.857 1.762 3.041 0.2063 1.184 0.07523 2.401-0.1374 3.584-0.4774 2.656-1.366 5.238-2.625 7.625 2.456 0.0495 4.919-0.8626 6.75-2.5 2.117-1.893 3.318-4.619 4-7.375 1.149-4.642 0.9839-9.496 1.5-14.25 0.5601-5.159 1.975-10.32 4.875-14.62 2.561-3.801 6.169-6.779 9.941-9.382 1.83-1.263 3.721-2.459 5.349-3.974 2.588-2.41 4.414-5.547 5.7-8.842 1.863-4.776 2.648-10.03 1.81-15.09-0.3658-2.208-1.037-4.365-1.987-6.39" fill="#fff" stroke-linecap="round" stroke-linejoin="round" stroke-width="3"/><path d="m97.88 123.7c-0.6812-2.231-1.432-4.441-2.25-6.625-1.225-3.27-2.602-6.483-4.125-9.625" fill="none" stroke-linecap="round" stroke-linejoin="round" stroke-width="2"/><path d="m73.62 119.3c-2.153-1.745-3.849-4.05-4.875-6.625-1.083-2.719-1.416-5.712-1.125-8.625 0.144-1.442 0.4377-2.869 0.875-4.25 2.574 1.741 4.897 3.853 6.875 6.25 2.042 2.476 3.716 5.255 4.948 8.218" fill="#fff" stroke-linecap="round" stroke-linejoin="round" stroke-width="3"/><path d="m73.62 119.3c-2.236 1.581-4.524 3.105-6.559 4.938-2.034 1.833-3.825 4.01-4.816 6.562-1.447 3.725-1.016 8.126 1.125 11.5 0.6652-1.845 1.548-3.611 2.625-5.25 1.463-2.228 3.286-4.22 5.375-5.875-1.897 1.488-3.155 3.764-3.404 6.162-0.284 2.727 0.7447 5.543 2.652 7.513 1.83 1.89 4.44 3 7.071 3.005-1.421-2.374-2.08-5.197-1.856-7.955 0.3052-3.764 2.198-7.247 4.596-10.16 2.535-3.084 5.677-5.668 9.192-7.561-1.109-1.367-2.079-2.846-2.891-4.408-1.113-2.143-1.927-4.441-2.41-6.808-3.434 2.945-7.005 5.729-10.7 8.34z" fill="#fff" stroke-linecap="round" stroke-linejoin="round" stroke-width="3"/><g stroke-width="1px"><path d="m78.49 169.3c-0.448-1.169-0.9344-2.327-1.267-3.534-0.3329-1.207-0.5096-2.476-0.3236-3.714 0.2343-1.56 1.031-2.985 1.993-4.235 0.9621-1.25 2.096-2.355 3.134-3.543 1.682-1.925 3.112-4.071 4.243-6.364-0.104 1.837 0.3311 3.702 1.237 5.303 0.7411 1.309 1.778 2.429 2.563 3.712 0.865 1.413 1.417 3.034 1.472 4.69 0.0557 1.656-0.4019 3.344-1.384 4.679-1.042 1.416-2.631 2.38-4.331 2.828-0.5908 0.156-1.197 0.2538-1.781 0.4331-0.5842 0.1794-1.157 0.4496-1.578 0.8927-0.3323 0.3498-0.5544 0.7916-0.7097 1.248-0.1553 0.4568-0.2476 0.932-0.351 1.403-0.2159 0.9848-0.4815 1.959-0.7955 2.917-0.5718-2.279-1.281-4.524-2.121-6.718z" stroke-linecap="round" stroke-linejoin="round"/><path d="m85.83 169.1c1.676-0.516 3.283-1.423 4.331-2.828 0.9904-1.328 1.417-3.023 1.384-4.679-0.03257-1.663-0.5186-3.328-1.472-4.69-0.6014-0.8588-1.386-1.593-2.299-2.108-0.9133-0.5148-1.956-0.8068-3.004-0.8091-1.282-3e-3 -2.557 0.4331-3.584 1.2-0.9318 0.6958-1.648 1.639-2.29 2.608-0.8666 1.307-1.633 2.708-1.993 4.235-0.2023 0.8586-0.2726 1.753-0.1579 2.627 0.1147 0.8746 0.4179 1.73 0.9205 2.454 0.8544 1.232 2.254 2.028 3.725 2.32 1.471 0.2918 3.007 0.1105 4.44-0.3308z" fill="#fff"/><path d="m88.01 168.1c-1.905 1.328-4.383 1.879-6.627 1.281-1.132-0.3018-2.192-0.889-3.019-1.719-0.8269-0.8298-1.414-1.904-1.626-3.056-0.1601-0.8713-0.1055-1.781 0.1579-2.627 1.404-1.158 3.143-1.903 4.95-2.121 2.237-0.2702 4.56 0.2786 6.452 1.503 1.139 0.7369 2.124 1.711 2.873 2.842-0.6613 1.561-1.771 2.928-3.161 3.897z"/></g><path d="m70.62 215.6c0.7183 0.1888 1.347 0.6641 1.772 1.273 0.425 0.609 0.6523 1.345 0.7026 2.086 0.04731 0.6963-0.06094 1.411-0.3726 2.035-0.3117 0.6245-0.8354 1.153-1.484 1.412-0.5898 0.2357-1.261 0.2402-1.868 0.0537-0.6071-0.1866-1.15-0.5574-1.579-1.026-0.4707-0.5144-0.8097-1.151-0.9555-1.833-0.1457-0.6819-0.09549-1.407 0.16-2.056 0.2747-0.6976 0.7898-1.302 1.447-1.663 0.6569-0.3613 1.452-0.472 2.177-0.2814z" stroke-width="1px"/><g fill="#fff" stroke-linecap="round" stroke-linejoin="round" stroke-width="3"><path d="m124.2 109.3c2.48-0.0869 4.924 1.068 6.625 2.875 1.902 2.02 2.884 4.71 4.25 7.125 1.133 2.004 2.547 3.841 3.625 5.875 2.495 4.705 3.048 10.4 1.5 15.5-0.6971 2.294-1.803 4.463-3.25 6.375-0.3416-1.881-1.271-3.651-2.625-5-1.621-1.615-3.787-2.603-5.375-4.25-1.189-1.233-2.005-2.794-2.504-4.432s-0.6932-3.356-0.7461-5.068c-0.0682-2.209 0.094-4.426-0.125-6.625-0.4159-4.175-2.248-8.196-5.125-11.25 1.126-0.6873 2.431-1.079 3.75-1.125z"/><path d="m152.6 121.3c1.511-0.3311 3.112-0.2468 4.58 0.2412 1.468 0.488 2.8 1.378 3.813 2.548 1.518 1.755 2.263 4.025 3.25 6.125 1.544 3.285 3.77 6.319 4.5 9.875 0.6469 3.152 0.0534 6.438 0.5 9.625 0.2483 1.772 0.8143 3.484 1.115 5.248 0.3003 1.763 0.3141 3.654-0.4896 5.252-0.4358 0.8665-1.095 1.608-1.848 2.219s-1.601 1.096-2.471 1.525c-1.74 0.8583-3.597 1.511-5.181 2.631-2.054 1.453-3.551 3.675-4.125 6.125-0.4602-2.005-0.1896-4.17 0.75-6 0.9092-1.771 2.399-3.201 3.25-5 0.7618-1.61 0.9691-3.436 0.8873-5.216-0.0819-1.779-0.4402-3.533-0.7623-5.284-0.4437-2.413-0.8455-4.907-2.125-7-0.9799-1.603-2.456-2.898-4.173-3.661-1.717-0.7627-3.667-0.9898-5.514-0.6421"/><path d="m134.4 111.8c0.8299-0.5124 1.738-0.9007 2.688-1.125 1.673-0.3953 3.447-0.2714 5.093 0.2247 1.646 0.4962 3.168 1.355 4.532 2.4 4.151 3.181 6.856 8.27 6.875 13.5 0.0139 3.754-1.339 7.498-3.75 10.38-0.6453-1.061-1.12-2.226-1.402-3.436-0.4977-2.141-0.3843-4.373-0.619-6.558-0.2122-1.977-0.7123-3.922-1.479-5.756 0.6939 1.502 1.159 3.11 1.375 4.75 0.2836 2.156 0.1382 4.356 0.5 6.5 0.2669 1.581 0.8114 3.118 1.625 4.5 0.6406 1.088 1.441 2.073 2.126 3.135 0.6842 1.061 1.261 2.233 1.374 3.49 0.0806 0.8903-0.0759 1.792-0.3777 2.634-0.3018 0.8415-0.7461 1.626-1.247 2.366-1.281 1.892-2.951 3.519-4.875 4.75 0.7581-1.892 0.8916-4.028 0.375-6-0.5287-2.018-1.719-3.833-3.25-5.25-1.893-1.752-4.314-2.947-5.875-5-1.041-1.369-1.627-3.04-1.924-4.733-0.2968-1.694-0.3184-3.422-0.3263-5.142-8e-3 -1.667-3e-3 -3.334-0.0625-5-0.0311-0.871-0.0824-1.755-0.3694-2.578-0.2664-0.7639-0.7247-1.443-1.156-2.128-0.7989-1.269-1.519-2.587-2.155-3.945 0.6602-0.7721 1.441-1.441 2.305-1.974z"/><path d="m177.9 151.4c3.036 0.573 5.843 2.282 7.746 4.716 1.607 2.056 2.555 4.56 3.132 7.105 0.5768 2.545 0.8036 5.153 1.111 7.745 0.5409 4.562 1.33 9.231 0.2652 13.7-0.6831 2.867-2.131 5.547-4.154 7.69-0.2816-0.492-0.5469-0.9932-0.7955-1.503-1.377-2.822-2.232-5.893-2.563-9.016-0.2653-2.503-0.1988-5.048-0.7071-7.513-0.5899-2.861-1.963-5.557-3.93-7.717"/><path d="m176.2 147.2c1.705 3.152 2.353 6.791 2.375 10.38 0.0278 4.512-0.8938 8.988-0.875 13.5 7e-3 1.789 0.163 3.576 0.1439 5.365s-0.2199 3.603-0.8939 5.26c-0.6908 1.699-1.877 3.192-3.375 4.25 1.709-3.435 1.756-7.652 0.125-11.12-1.145-2.436-3.044-4.484-4-7-0.9246-2.434-0.8789-5.222 0.125-7.625 0.4472-1.04 0.6794-2.172 0.6779-3.305-2e-3 -1.613-0.4694-3.183-0.8112-4.76-0.4102-1.892-0.6432-3.822-0.6762-5.758-0.0215-1.265 0.0421-2.531-0.0211-3.795-0.0421-0.8414-0.1406-1.68-0.2944-2.508 3.165 1.508 5.832 4.041 7.5 7.125z"/></g></g><g stroke-width="3"><path d="m217 107.6c-6.196 15.53-12.03 31.2-17.5 47-1.504 4.347-2.982 8.704-4.625 13-0.7782 2.034-1.597 4.064-2.09 6.186-0.493 2.122-0.65 4.362-0.0989 6.47 0.5692 2.176 1.902 4.144 3.712 5.48-0.5808 1.449-1.356 2.821-2.298 4.066-1.551 2.05-3.558 3.753-5.834 4.95 0.8423 3.17 2.501 6.119 4.773 8.485 2.149 2.238 4.841 3.951 7.778 4.95 0.8164 3.011 2.559 5.763 4.932 7.789 2.317 1.979 5.225 3.256 8.25 3.625 5.95-1.342 11.81-3.098 17.51-5.251 5.633-2.125 11.17-4.664 16-8.255 3.2-2.378 6.067-5.204 8.491-8.369-1.772 2.325-3.787 4.465-6 6.375-3.768 3.251-8.093 5.819-12.62 7.875-3.208 1.456-6.525 2.661-9.875 3.75-4.453 1.447-8.97 2.69-13.5 3.875-4.135 1.081-8.299 2.12-12.25 3.75-6.941 2.864-13.26 7.728-16.75 14.38-1.765 3.357-2.78 7.156-2.566 10.94 0.0987 1.749 0.4574 3.482 1.061 5.127 4.699 2.737 9.452 5.382 14.26 7.931 9.324 4.948 18.95 9.575 29.25 11.88 6.702 1.496 13.58 1.982 20.38 2.999 4.052 0.6063 8.086 1.403 12.18 1.649 4.09 0.2458 8.288-0.0823 12.07-1.649 4.898-2.027 8.738-5.95 12.21-9.953 3.43-3.951 6.662-8.095 9.346-12.59 3.157-5.282 5.539-11.03 7.046-16.99l-12.48-127.2" fill="#fcdb00" stroke-linecap="round" stroke-linejoin="round"/><path d="m218.4 249.2c-2.431-2.345-4.993-4.589-7.895-6.318s-6.177-2.93-9.553-3.05c-3.745-0.1332-7.504 1.099-10.52 3.318-2.462 1.81-4.445 4.265-5.697 7.053-0.2832 2.264-0.3876 4.551-0.3119 6.831 0.1007 3.033 0.5204 6.055 1.25 9-1.762 3.324-3.133 6.856-4.075 10.5-1.977 7.644-2.045 15.63-2.475 23.51-0.3218 5.897-0.8533 11.79-1.825 17.62-0.9266 5.556-2.251 11.04-3.625 16.5-1.254 4.984-2.592 10.05-5.375 14.38-0.9679 1.503-2.099 2.894-3.086 4.384s-1.84 3.108-2.164 4.866c-0.2949 1.599-0.1343 3.279 0.4582 4.794s1.615 2.857 2.917 3.831c3.169-1.031 5.958-3.19 7.75-6 1.768-2.772 2.544-6.053 4-9 0.9565-1.936 2.265-3.778 4.125-4.875 1.837-1.083 4.072-1.36 5.875-2.5 1.457-0.9209 2.547-2.376 3.125-4 0.4996-1.405 0.6273-2.917 0.6091-4.408-0.0182-1.491-0.1778-2.977-0.2341-4.467-0.245-6.479 1.471-12.9 4-18.88 2.567-6.06 5.969-11.74 9.75-17.12 3.028-4.313 6.352-8.537 8.125-13.5 0.9283-2.598 1.409-5.371 1.25-8.125-0.17-2.95-1.081-5.855-2.625-8.375 2.325 0.3171 4.704 0.2321 7-0.25 3.406-0.7151 6.622-2.313 9.25-4.594-3.075-3.933-6.426-7.65-10.02-11.12z" fill="#ff9581"/><g stroke-linecap="round" stroke-linejoin="round"><path d="m196.4 185.7c3.041-0.4488 5.996-1.474 8.662-3.005 2.952-1.696 5.546-4.012 7.564-6.755" fill="none"/><path d="m200.8 208.2c1.645-2.644 3.065-5.426 4.243-8.308 1.555-3.807 2.684-7.788 3.359-11.84" fill="none"/><path d="m210.1 218.6c2.007-2.56 3.926-5.189 5.751-7.881 1.988-2.932 3.895-5.974 6.5-8.375 1.717-1.583 3.716-2.859 5.875-3.75" fill="none"/><path d="m183.5 253.8c0.4881-2.135 1.361-4.181 2.563-6.01 2.267-3.45 5.754-6.111 9.723-7.248 2.807-0.8042 5.821-0.8487 8.662-0.1768 4.348 1.028 8.153 3.658 11.49 6.629 4.862 4.328 8.94 9.448 13.26 14.32 2.495 2.815 5.146 5.606 8.485 7.336 2.798 1.449 5.979 2.084 9.13 2.062 3.151-0.0215 6.275-0.6828 9.255-1.709 7.146-2.461 13.53-7.073 18.12-13.08" fill="none"/><path d="m289.4 236.4c0.7494 4.64 0.8686 9.382 0.3536 14.05-0.4794 4.348-1.508 8.635-3.053 12.73" fill="none"/><path d="m199.2 239.9c2.13-0.9905 4.385-1.713 6.695-2.144 3.998-0.7471 8.117-0.6211 12.12-1.312 3.825-0.6599 7.52-2.069 10.81-4.125" fill="none"/><path d="m290.5 179.2c-1.413 1.498-2.677 3.137-3.766 4.885-1.462 2.346-2.607 4.883-3.5 7.5-1.825 5.351-2.591 10.99-3.875 16.5-1.332 5.712-3.26 11.36-6.5 16.25-2.874 4.337-6.756 8.003-11.25 10.62 3.073-1.687 5.837-3.934 8.118-6.595 1.538-1.794 2.851-3.767 4.183-5.719 2.064-3.023 4.202-6.042 5.574-9.436 1.248-3.086 1.826-6.393 2.625-9.625 0.7569-3.059 1.718-6.068 2.875-9 0.9506 2.839 1.649 5.763 2.085 8.725 1.172 7.962 0.4212 16.17-1.945 23.86-1.318 4.284-3.131 8.416-5.392 12.29 1.268-2.604 2.539-5.207 3.812-7.809 0.6905-1.411 1.382-2.821 2.021-4.256 1.372-3.08 2.501-6.265 3.447-9.502 0.6699-2.292 1.249-4.61 1.945-6.894 0.9761-3.203 2.183-6.336 3.607-9.367"/></g><path d="m195.1 163.4c5.34 4.828 11.23 9.051 17.51 12.56 5.828 3.256 12 5.9 18.38 7.875l8.375-10.62c-5.1-5.168-10.49-10.05-16.12-14.62-3.789-3.072-7.692-6.003-11.7-8.784" fill="#fcdb00" stroke-linecap="round" stroke-linejoin="round"/><path d="m225.6 87.95c-6.465-4.678-11.17-11.73-13-19.5-1.599-6.78-1.021-14.06 1.625-20.5 2.887-7.031 8.171-12.98 14.58-17.06 6.411-4.082 13.91-6.337 21.48-6.929 8.942-0.6978 18.31 1.01 25.63 6.187 3.185 2.252 5.947 5.144 7.838 8.556 1.89 3.412 2.883 7.353 2.592 11.24-0.2155 2.882-1.133 5.71-2.652 8.169l-46.85 35.85z" fill="#fcdb00"/><path d="m389 184.1c0.4364-8.008 1.452-15.98 1.625-24 0.1661-7.699-0.4477-15.41-1.75-23-1.127-6.567-2.849-13.22-6.75-18.62-1.838-2.545-4.248-4.829-7.25-5.75-1.725-0.5293-3.595-0.5808-5.347-0.1472-1.752 0.4335-3.382 1.351-4.661 2.624-2.318 0.47-4.493 1.62-6.187 3.27-1.808 1.762-3.043 4.049-3.83 6.448s-1.146 4.916-1.385 7.429c-0.3743 3.935-0.463 7.897-0.2652 11.84-0.3362-4.664-0.1662-9.364 0.506-13.99 0.41-2.822 1.022-5.66 2.363-8.177 0.6934-1.301 1.576-2.502 2.611-3.552-0.3864-0.7577-1.014-1.39-1.768-1.783-0.7544-0.3929-1.632-0.5442-2.475-0.4264-0.779 0.1089-1.515 0.4403-2.171 0.8732-0.6568 0.4329-1.241 0.9662-1.806 1.513-1.568 1.518-3.022 3.172-4.154 5.038-1.494 2.461-2.397 5.236-3.056 8.038-0.9544 4.062-1.418 8.224-1.704 12.39-0.3648 5.316-0.455 10.73-2.041 15.81-0.9509 3.05-2.448 5.955-4.573 8.34-1.719 1.929-3.837 3.5-6.182 4.584 3.657-1.726 6.758-4.606 8.75-8.125 2.267-4.006 3.064-8.668 3.5-13.25 0.6292-6.605 0.598-13.32 2.25-19.75 0.7152-2.782 1.742-5.484 3.056-8.038-4.492 3.744-9.154 7.284-13.97 10.61-2.542 1.755-5.245 3.496-8.309 3.889-2.883 0.3704-5.839-0.5214-8.28-2.099-2.441-1.578-4.406-3.804-6.039-6.209-0.8912-1.313-1.692-2.686-2.475-4.066-2.538-4.473-4.984-9.147-8.839-12.55-2.198-1.941-4.812-3.428-6.718-5.657-2.363-2.765-3.442-6.452-5.834-9.192-1.442-1.652-3.31-2.892-5.293-3.827-1.983-0.9354-4.089-1.581-6.198-2.183-13.65-3.902-27.98-6.161-42.07-4.419-2.719 0.336-5.452 0.8293-7.955 1.945-4.312 1.922-7.608 5.522-10.78 9.016-4.132 4.547-8.321 9.13-11.31 14.5-1.919 3.441-3.345 7.199-5.834 10.25-2.953 3.625-7.218 6.022-10.08 9.723-2.147 2.78-3.394 6.18-3.976 9.644s-0.5255 7.006-0.2664 10.51c0.6477 8.756 2.559 17.42 5.657 25.63 2.219-3.961 4.601-7.83 7.138-11.59 3.15-4.674 6.607-9.255 11.12-12.62 4.804-3.583 10.56-5.614 15.88-8.375 8.808-4.572 16.5-11.22 22.5-19.12 3.319-4.368 6.135-9.117 8.375-14.12l3.488 0.2605c0.5922 2.438 1.361 4.832 2.298 7.159 5.53 13.73 16.59 24.45 23.78 37.39 6.029 10.86 9.208 23.09 11.14 35.36 1.754 11.16 2.524 22.45 4.419 33.59 1.143 6.71 2.812 13.61 7.071 18.92 3.343 4.168 8.191 7.103 13.44 8.132 8.167-4.102 15.61-9.646 21.88-16.3 7.977-8.468 14-18.67 18.25-29.5 3.556-9.072 5.89-18.6 7.25-28.25 2.001-14.19 1.89-28.76-1.25-42.75-0.8231-3.666-1.859-7.417-1.25-11.12 0.4994-3.041 2.139-5.882 4.522-7.836-2.397 1.941-4.041 4.789-4.522 7.836-0.5263 3.331 0.2947 6.708 0.9948 10.01 1.776 8.369 2.803 16.91 2.842 25.46 0.0282 6.157-0.4548 12.31-1.337 18.41-1.052 7.27-2.673 14.46-4.843 21.48 6.953 2.828 13.57 6.478 19.67 10.85 3.724 2.669 7.255 5.606 10.56 8.78-2.095-12.24-2.813-24.71-2.138-37.11z" fill="#f00000" stroke-linecap="round" stroke-linejoin="round"/><g transform="rotate(42.26 118.3 670.2)" fill="#fff" stroke-linecap="round" stroke-linejoin="round"><path d="m-119.3 202.3 2.989-133.9 1.944-3.366 1.944 3.366 2.989 133.9" stroke-width="3"/><path transform="translate(7.873)" d="m-118.4 205.1v30.87c-0.9992 1.058-2.44 1.685-3.895 1.697-1.483 0.0114-2.96-0.6185-3.978-1.697v-30.87" stroke-width="3"/><path transform="matrix(-1.446 0 0 1.446 -279.8 -86.86)" d="m-119.3 202.3c1.614 0.4474 3.258 0.872 4.933 0.8726 1.675 5.8e-4 3.319-0.4229 4.933-0.8726 2.454-0.6837 4.888-1.435 7.301-2.252 0.1935-0.1537 0.3407-0.365 0.4179-0.5998 0.0772-0.2348 0.0841-0.4922 0.0196-0.7307-0.0679-0.251-0.2147-0.48-0.4144-0.6465s-0.4515-0.2696-0.7106-0.291c-2.191 0.7002-4.396 1.357-6.613 1.971-1.614 0.447-3.258 0.8739-4.933 0.8726-1.675-1e-3 -3.317-0.4309-4.933-0.8726-2.223-0.6076-4.438-1.244-6.644-1.909-0.2603 0.0176-0.5142 0.1193-0.7146 0.2863s-0.3462 0.3984-0.4104 0.6512c-0.0598 0.2354-0.0488 0.4884 0.0312 0.7178s0.2287 0.4343 0.4219 0.5815c2.42 0.7997 4.86 1.54 7.316 2.221z" stroke-width="2.075"/></g><path transform="translate(-1.503 .2652)" d="m242.9 173.3c4.031-1.04 7.869-2.974 12.02-3.27 1.6-0.1143 3.229 0.0232 4.754 0.5201 1.525 0.4969 2.944 1.363 3.997 2.574 0.8579 0.9863 1.463 2.194 1.717 3.477 0.2545 1.282 0.1556 2.636-0.303 3.86-0.6412 1.712-1.931 3.092-2.828 4.685-0.5116 0.9084-0.8978 1.891-1.503 2.74-0.5441 0.764-1.267 1.41-2.117 1.805s-1.831 0.5306-2.744 0.3162c-0.7151-0.1679-1.374-0.5446-1.913-1.044s-0.9603-1.118-1.269-1.785c-0.4334-0.9359-0.6556-1.977-1.237-2.828-0.53-0.7756-1.333-1.342-2.21-1.679-1.459-0.5612-3.116-0.5027-4.596 0-1.424 0.4835-2.685 1.35-4.066 1.945-0.8498 0.3658-1.755 0.6292-2.68 0.6542-0.9248 0.0249-1.873-0.2018-2.623-0.7426-0.4332-0.312-0.795-0.7256-1.032-1.204s-0.3485-1.021-0.3019-1.552c0.0411-0.4698 0.2023-0.9228 0.4157-1.343 0.2134-0.4206 0.4788-0.8123 0.742-1.204 0.6533-0.9714 1.3-1.952 2.069-2.835 0.7691-0.8826 1.67-1.67 2.728-2.173 0.9406-0.4468 1.973-0.6546 2.981-0.9148z" fill="#ff9581"/><g><path d="m240.8 87.37c9.59-0.1679 19.16 1.294 28.46 3.623 1.01 0.2528 2.017 0.5158 3.022 0.7889-0.3666 2.545-1.243 5.014-2.563 7.22-1.806 3.018-4.566 5.598-7.955 6.541-1.945 0.5409-4.008 0.525-6.01 0.2652-2.358-0.306-4.664-0.943-6.894-1.768-4.233-1.566-8.353-3.945-10.87-7.69-1.715-2.55-2.594-5.652-2.473-8.723 1.758-0.1407 3.52-0.2265 5.284-0.2574z" fill="#fff"/><path d="m252.6 105.2c-0.6669 0.6222-1.09 1.476-1.295 2.365s-0.2018 1.814-0.109 2.722c0.1047 1.025 0.326 2.048 0.7641 2.98 0.4381 0.9328 1.103 1.775 1.976 2.323 0.8207 0.5158 1.832 0.7559 2.782 0.5614 0.4748-0.0973 0.929-0.3014 1.309-0.6027 0.3796-0.3014 0.6831-0.7005 0.8595-1.152 0.25-0.6398 0.2385-1.346 0.2652-2.033 0.0426-1.094 0.191-2.185 0.1686-3.28-0.0224-1.095-0.2301-2.219-0.8355-3.132-0.6216-0.9373-1.657-1.593-2.772-1.74s-2.29 0.221-3.113 0.9882z"/></g><g><path d="m239.4 77.88c-0.4388 1.443-1.311 2.752-2.475 3.712-1.329 1.097-3.023 1.728-4.744 1.831-1.72 0.1035-3.46-0.3115-4.979-1.124-2.758-1.474-4.761-4.319-5.127-7.425-0.1174-0.9968-0.0749-2.007-0.1768-3.005-0.1755-1.72-0.778-3.4-0.7071-5.127 0.0541-1.318 0.5124-2.615 1.295-3.677s1.885-1.883 3.125-2.333c1.752-0.6358 3.694-0.5269 5.48-1.061 0.6843-0.2045 1.34-0.5028 1.945-0.8839-0.3851-0.6237-0.7172-1.28-0.9917-1.96-0.7962-1.972-1.096-4.176-0.625-6.25 0.5446-2.398 2.063-4.461 3.75-6.25 4.035-4.281 9.246-7.416 14.88-9.125 5.215-1.583 10.87-1.946 16.12-0.5 4.185 1.152 8.049 3.446 11.06 6.567 3.016 3.122 5.174 7.063 6.181 11.28l0.3702 11.68c0.0571 1.951-0.0235 3.906-0.241 5.846-0.2848 2.541-0.8048 5.069-0.75 7.625 0.0183 0.8538 0.1009 1.708 0.0574 2.561-0.0435 0.8529-0.2221 1.72-0.6824 2.439-0.5047 0.7888-1.326 1.349-2.22 1.627-0.8944 0.2777-1.858 0.2861-2.78 0.1232-1.582-0.2796-3.07-1.067-4.191-2.219z" fill="#7a3f28"/><path d="m278.7 74.52c1.629-1.909 2.95-4.091 3.801-6.452 1.255-3.485 1.459-7.257 1.397-10.96-0.0208-1.251-0.0711-2.507-0.3168-3.734-0.2456-1.226-0.6953-2.429-1.451-3.426-0.9758-1.287-2.402-2.159-3.872-2.828-3.707-1.689-7.811-2.253-11.84-2.828-2.701-0.3856-5.415-0.7858-8.143-0.7297-2.728 0.05615-5.498 0.5926-7.855 1.967-2.481 1.447-4.377 3.75-5.745 6.276-2.3 4.247-3.193 9.098-3.889 13.88-0.5899 4.051-1.062 8.119-1.414 12.2-0.4446 3.887 0.3722 7.908 2.298 11.31 2.564 4.533 7.11 7.901 12.2 9.016 2.354 0.5157 4.83 0.5628 7.166-0.0318 2.336-0.5946 4.524-1.85 6.093-3.681 1.724-2.013 2.62-4.584 3.536-7.071 1.166-3.169 2.45-6.356 4.544-9.005 1.084-1.37 2.365-2.571 3.499-3.9z" fill="#ff9581" stroke-linecap="round" stroke-linejoin="round"/><g fill="none" stroke-linecap="round" stroke-linejoin="round"><path d="m250 61.33c0.3551 0.8067 0.9358 1.513 1.659 2.017 0.7231 0.504 1.586 0.8045 2.466 0.8584 1.156 0.07087 2.334-0.2915 3.25-1"/><path d="m250.5 54.7c1.906-0.5339 3.948-0.5773 5.875-0.125 2.058 0.4829 3.98 1.531 5.5 3"/><path d="m256.8 77.88c1.143 0.8728 2.451 1.529 3.835 1.923 0.5173 0.1475 1.049 0.2591 1.587 0.2687 0.5378 0.0096 1.085-0.08653 1.561-0.3356 0.5586-0.2918 0.9995-0.7852 1.277-1.351s0.3978-1.201 0.4023-1.831c9e-3 -1.252-0.4235-2.465-0.5303-3.712-0.0694-0.8107 5e-3 -1.651 0.3536-2.386 0.3643-0.7692 1.002-1.377 1.414-2.121 0.335-0.6055 0.5136-1.297 0.5136-1.989 0-0.692-0.1785-1.383-0.5136-1.989"/><path d="m270.8 66.33c0.2488 0.6538 0.6754 1.239 1.222 1.676 0.5463 0.437 1.211 0.7247 1.903 0.8239 0.9516 0.1364 1.951-0.09072 2.75-0.625"/><path d="m272.5 58.83c1.271-0.31 2.627-0.2662 3.875 0.125 1.308 0.4098 2.494 1.2 3.375 2.25"/><path d="m253.7 86.1c1.661 0.8316 3.536 1.231 5.392 1.149 0.9903-0.04381 1.974-0.2228 2.917-0.5303"/></g><path d="m223 78.05c-0.7727-0.8456-1.142-2.045-0.9791-3.179 0.1286-0.8943 0.5713-1.727 1.177-2.397s1.369-1.185 2.182-1.58c1.21-0.5886 2.544-0.922 3.889-0.9723" fill="none" stroke-linecap="round" stroke-linejoin="round"/></g><g stroke-linecap="round" stroke-linejoin="round"><path d="m292.8 189.9c2.089 4.797 5.133 9.175 8.903 12.8 7.091 6.825 16.79 10.88 26.62 11.12" fill="none"/><path d="m294.4 160.3c4.532 7.222 11.17 13.11 18.88 16.75 4.943 2.335 10.43 3.767 15.88 3.25 3.971-0.3774 7.839-1.801 11.11-4.089 3.268-2.288 5.929-5.434 7.643-9.036" fill="none"/><path d="m207.1 127.3c-0.8118 1.449-1.149 3.16-0.9485 4.809s0.938 3.229 2.074 4.441c0.9543 1.019 2.177 1.775 3.497 2.229 1.32 0.4547 2.735 0.6127 4.128 0.5205 2.303-0.1525 4.521-0.9778 6.542-2.092s3.868-2.515 5.708-3.908c3.203-2.424 6.411-4.841 9.625-7.25" fill="none"/><path d="m259.3 110.9c2.295 1.826 4.276 4.046 5.83 6.534 0.3559 0.57 0.6896 1.154 1 1.75 2.813-2.092 5.782-3.974 8.875-5.625 3.359-1.793 6.878-3.321 10-5.5 1.613-1.125 3.109-2.418 4.456-3.851" fill="none"/><path d="m213.5 98.92c3.31 2.71 6.904 5.072 10.7 7.037 3.844 1.988 7.914 3.578 11.5 6 1.67 1.128 3.223 2.428 4.625 3.875 1.805-1.036 3.422-2.398 4.75-4 1.851-2.234 3.132-4.938 3.688-7.785" fill="none"/><path d="m330.1 158.8c-0.1876-5.485-1.203-10.94-3-16.12-1.215-3.505-2.786-6.887-4.682-10.08-1.007-1.052-2.32-1.81-3.735-2.155-2.461-0.601-5.203 0.1108-7.06 1.833 1.733 0.6042 3.245 1.82 4.208 3.382 1.257 2.04 1.541 4.513 1.812 6.894 0.5244 4.604 1.114 9.201 1.768 13.79" fill="#f00000"/><path d="m285.4 164.3c1.711 1.626 3.465 3.208 5.259 4.744 4.237 3.627 8.697 6.995 13.35 10.08" fill="none"/></g><g stroke-linecap="round" stroke-linejoin="round"><path d="m364.2 123.3c0.8608-0.1033 1.686-0.485 2.322-1.074s1.08-1.383 1.248-2.233c0.1036-0.522 0.1051-1.066-0.0115-1.585-0.1166-0.5193-0.3525-1.013-0.6956-1.42-0.6095-0.7229-1.51-1.132-2.21-1.768-0.8949-0.8135-1.429-1.996-1.505-3.203-0.0767-1.207 0.2919-2.428 0.975-3.426 0.7525-1.099 1.877-1.928 3.131-2.378 1.254-0.4493 2.632-0.5251 3.94-0.2738 2.078 0.399 3.961 1.617 5.302 3.253 1.341 1.636 2.156 3.671 2.476 5.763 0.6607 4.325-0.8366 8.891-3.801 12.11-2.054 2.23-4.849 3.856-7.867 4.154-1.471 0.1451-2.972-0.0253-4.373-0.4964" fill="#ff9581"/><path d="m363.2 126.2c0.2022-1.015 0.5265-2.005 0.9635-2.943 0.3138-0.0384 0.6232-0.1126 0.9204-0.2207 0.3348-0.1218 0.6538-0.2866 0.9469-0.4891 1.12 1.274 1.924 2.824 2.322 4.474 0.3141 1.303 0.3756 2.667 0.18 3.993-0.8717 0.1774-1.766 0.2434-2.654 0.1958-0.9456-0.0506-1.884-0.2298-2.782-0.5313-0.2248-1.484-0.1895-3.007 0.1038-4.478z" fill="#fcdb00"/></g></g><g stroke-width="2"><path d="m259.4 358.4c1.482-7.202 4.076-14.17 7.663-20.59 1.242-2.224 2.603-4.382 4.074-6.461 0.8964-0.1048 1.76-0.4773 2.451-1.057s1.208-1.366 1.467-2.23c0.3953-1.32 0.1883-2.738 0.3286-4.109 0.1208-1.18 0.505-2.333 1.118-3.349 0.5441-0.9016 1.261-1.689 1.814-2.585 0.1828-0.2957 0.3513-0.6148 0.3761-0.9616 0.0124-0.1734-0.0127-0.3512-0.0867-0.5085-0.0739-0.1573-0.1984-0.293-0.3557-0.3671-0.1067-0.0503-0.2261-0.0717-0.344-0.0679-0.1179 4e-3 -0.2344 0.0323-0.3435 0.0773-0.2181 0.0901-0.4038 0.2438-0.5734 0.4079-0.5874 0.5687-1.016 1.279-1.544 1.903-0.3966 0.4685-0.8501 0.8888-1.347 1.249 0.0956-0.6647 0.3009-1.313 0.605-1.912 0.5894-1.16 1.528-2.102 2.256-3.18 0.183-0.2711 0.3564-0.5599 0.4125-0.8822 0.0281-0.1611 0.0255-0.3289-0.0199-0.4861-0.0454-0.1571-0.1352-0.3031-0.263-0.405-0.1374-0.1096-0.3143-0.1646-0.49-0.1677-0.1758-3e-3 -0.3503 0.0435-0.5086 0.1198-0.3167 0.1526-0.5638 0.4159-0.804 0.6726-0.4464 0.4771-0.8958 0.9515-1.333 1.437-0.9728 1.08-1.886 2.213-2.733 3.394 0.0333-0.6077 0.1477-1.211 0.3392-1.789 0.5041-1.521 1.521-2.817 2.615-3.988 0.3724-0.3984 0.756-0.7863 1.15-1.163 0.1924-0.1907 0.3168-0.4486 0.3464-0.7178 0.0295-0.2692-0.036-0.548-0.1824-0.7758-0.1916-0.2981-0.522-0.5027-0.8742-0.5414-0.3522-0.0387-0.7192 0.0894-0.9708 0.3389-0.2416 0.2318-0.482 0.4648-0.7214 0.6989-0.8264 0.8086-1.64 1.633-2.374 2.526-1.16 1.412-2.113 2.993-2.82 4.678 0.0327-0.8678 0.1804-1.731 0.4378-2.561 0.3232-1.041 0.8172-2.024 1.395-2.948 0.5385-0.8611 1.151-1.676 1.83-2.432 0.173-0.2223 0.2577-0.5113 0.2322-0.7918-0.0255-0.2805-0.161-0.5495-0.3712-0.7369-0.1901-0.1695-0.4393-0.2714-0.6937-0.2836-0.2544-0.0122-0.5122 0.0653-0.7178 0.2157-0.8223 0.6558-1.552 1.427-2.162 2.284-0.6615 0.93-1.178 1.955-1.649 2.994-0.6941 1.533-1.294 3.11-1.761 4.727-0.1894 0.6569-0.3566 1.32-0.5012 1.988-0.2345-0.8584-0.4224-1.729-0.5625-2.608-0.0872-0.5468-0.1561-1.098-0.1569-1.652-8.4e-4 -0.543 0.0627-1.096-0.0726-1.622-0.0923-0.3585-0.2826-0.6994-0.5741-0.9276-0.1946-0.1524-0.4308-0.2511-0.6759-0.2825-0.2451-0.0314-0.4986 4e-3 -0.7253 0.1027-0.2268 0.0983-0.4262 0.2587-0.5709 0.4591-0.1446 0.2004-0.2341 0.4402-0.2559 0.6864-0.0136 0.6634-0.0159 1.327-7e-3 1.99 0.0241 1.791 0.1306 3.584 0.3924 5.356 0.2923 1.979 0.7783 3.929 1.449 5.814-2.233 3.072-4.351 6.227-6.346 9.458-3.451 5.588-6.537 11.4-9.233 17.39" fill="#ff9581" stroke-linecap="round" stroke-linejoin="round"/><path d="m189.7 421.3c-1.616-6.677-1.658-13.73-0.1206-20.42 1.706-7.428 5.28-14.28 7.757-21.48 0.9878-2.875 1.801-5.807 2.563-8.75 1.311-5.058 2.481-10.17 4.419-15.03 1.311-3.282 2.962-6.415 4.419-9.634 0.4435-0.9801 0.8706-1.971 1.422-2.895 0.5516-0.9236 1.237-1.785 2.113-2.408 0.9483-0.675 2.106-1.051 3.27-1.061-0.0457-2.566-0.1637-5.131-0.3536-7.69-0.2667-3.595-0.6755-7.181-0.7955-10.78-0.1401-4.206 0.1269-8.486 1.503-12.46 1.043-3.016 2.715-5.807 4.832-8.196 1.82-2.052 4.024-3.842 6.618-4.734 1.297-0.4459 2.68-0.6595 4.048-0.5604s2.719 0.5162 3.871 1.26c1.505 0.9722 2.618 2.461 3.426 4.06 0.8083 1.599 1.338 3.321 1.897 5.024 0.6761 2.06 1.402 4.109 2.344 6.062 0.6354 1.318 1.369 2.59 2.219 3.781 0.5022 0.7034 1.059 1.407 1.25 2.25 0.0357 0.1574 0.0581 0.3191 0.0481 0.4802-0.01 0.1611-0.0537 0.3222-0.1419 0.4573-0.1058 0.1621-0.2719 0.2799-0.4538 0.3459-0.182 0.066-0.3792 0.0825-0.5722 0.0689-0.3861-0.0272-0.7532-0.1708-1.13-0.2586-0.6992-0.1627-1.443-0.1299-2.125 0.0938 0.2848-0.0929 0.5801-0.1534 0.8784-0.18 0.4166-0.0371 0.839-8e-3 1.247 0.0862 0.8593 1.837 1.631 3.715 2.312 5.625 0.6133 1.72 1.157 3.489 1.25 5.312 0.0253 0.4981 0.0163 1.002-0.0913 1.489-0.1076 0.487-0.3186 0.9588-0.6587 1.324-0.2901 0.3112-0.6652 0.5353-1.062 0.6875-0.6282 0.2406-1.31 0.3073-1.982 0.3174-0.6726 0.0101-1.346-0.034-2.018-5e-3 -1.325 0.0573-2.621 0.3977-3.938 0.5625-2.45 0.3068-4.959-3e-3 -7.312-0.75-1.2-0.3812-2.391-0.8919-3.312-1.75-1.247-1.161-1.894-2.934-1.688-4.625-0.1804 1.246 0.123 2.555 0.833 3.595 0.8698 1.274 2.274 2.087 3.717 2.63 1.681 0.6335 3.473 0.9576 5.269 1.007 0.8323 0.0227 1.666-0.013 2.493-0.1069-0.8575 2.721-1.424 5.534-1.688 8.375-0.2305 2.487-0.2285 4.996 6e-3 7.483 2.464 1.197 4.982 2.28 7.545 3.247 4.542 1.713 9.215 3.056 13.79 4.685 2.803 0.9982 5.708 2.122 8.662 1.768 0.5722-0.0687 1.138-0.1929 1.686-0.3703 2.912-6.833 6.797-13.25 11.5-19 2.078-2.541 4.316-4.951 6.695-7.213-0.572-1.426-0.3806-3.133 0.4929-4.397 0.7836-1.134 2.019-1.86 3-2.828 0.845-0.8331 1.504-1.854 1.913-2.968 0.3629-0.9886 0.5287-2.04 0.8808-3.033 0.1162-0.3276 0.2598-0.6587 0.5147-0.8951 0.1275-0.1182 0.2819-0.2098 0.4509-0.2506 0.169-0.0408 0.3527-0.0285 0.5089 0.0477 0.106 0.0517 0.1974 0.1315 0.2682 0.2259 0.0708 0.0944 0.1215 0.2031 0.1546 0.3163 0.0662 0.2265 0.0625 0.4675 0.0406 0.7025-0.076 0.8141-0.3615 1.593-0.5177 2.395-0.1173 0.6025-0.1614 1.219-0.131 1.832 0.4586-0.4905 0.8362-1.057 1.113-1.668 0.5363-1.186 0.6835-2.507 1.069-3.749 0.0969-0.3124 0.2138-0.6283 0.43-0.8738 0.1081-0.1227 0.2406-0.2257 0.3916-0.2886 0.151-0.0629 0.321-0.0842 0.4805-0.0483 0.1715 0.0386 0.325 0.1422 0.4374 0.2773 0.1124 0.1351 0.1853 0.3004 0.2248 0.4717 0.0791 0.3425 0.0283 0.7-0.0216 1.048-0.0928 0.6468-0.1817 1.294-0.2866 1.939-0.2334 1.434-0.5465 2.856-0.9374 4.255 0.4532-0.4063 0.8522-0.873 1.183-1.384 0.871-1.345 1.246-2.949 1.474-4.535 0.0777-0.5398 0.1402-1.082 0.1875-1.625 0.0284-0.2694 0.1516-0.5278 0.3432-0.7193s0.45-0.3148 0.7193-0.3432c0.3524-0.0371 0.7188 0.0926 0.9693 0.3432 0.2506 0.2506 0.3803 0.6169 0.3432 0.9693-0.0296 0.3335-0.0609 0.6668-0.0938 1-0.1136 1.151-0.247 2.301-0.4848 3.433-0.3758 1.788-1.013 3.521-1.884 5.127 0.6565-0.5686 1.238-1.224 1.723-1.944 0.61-0.9036 1.067-1.904 1.427-2.933 0.3348-0.9589 0.5866-1.947 0.7518-2.949 0.0652-0.274 0.2376-0.521 0.4723-0.6766 0.2347-0.1556 0.5294-0.2182 0.8071-0.1715 0.2512 0.0422 0.4866 0.1729 0.6553 0.3636 0.1687 0.1908 0.2696 0.4404 0.2809 0.6948 3e-3 1.052-0.1419 2.104-0.429 3.116-0.3115 1.098-0.7874 2.142-1.304 3.16-0.7614 1.501-1.616 2.956-2.585 4.331-0.3939 0.5588-0.8067 1.104-1.237 1.635 0.8116-0.3643 1.608-0.7625 2.386-1.193 0.5216-0.2886 1.048-0.6028 1.416-1.071 0.1623-0.2064 0.2897-0.4377 0.4351-0.6563 0.1454-0.2186 0.3136-0.429 0.535-0.5704 0.3162-0.202 0.724-0.2424 1.083-0.1326 0.2305 0.0705 0.4427 0.2002 0.6106 0.3732s0.2912 0.3889 0.3548 0.6215c0.0636 0.2325 0.0674 0.4812 0.011 0.7155s-0.173 0.454-0.3355 0.6321c-0.3575 0.5976-0.7725 1.161-1.237 1.679-1.206 1.345-2.745 2.379-4.423 3.045-1.836 0.7289-3.843 1.022-5.811 0.8482-3.621 4.427-6.733 9.27-9.256 14.4-2.25 4.579-4.036 9.395-6.629 13.79-2.954 5.005-6.938 9.399-11.63 12.83-3.446-0.6084-6.866-1.359-10.25-2.25-3.946-1.039-7.84-2.267-11.79-3.304-5.906-1.551-11.92-2.672-17.99-3.35-1.474-0.7879-2.805-1.842-3.909-3.097-1.712-1.944-2.868-4.371-3.299-6.925 0.4523 1.66 1.149 3.253 2.061 4.711 1.316 2.106 3.083 3.929 5.147 5.31 2.562 0.304 5.115 0.6809 7.655 1.13 2.53 0.4473 5.048 0.9663 7.549 1.556-0.7357 2.759-1.401 5.536-1.994 8.329-2.053 9.665-3.245 19.51-3.556 29.39" fill="#ff9581" stroke-linecap="round" stroke-linejoin="round"/><path d="m246.5 324.3c-0.7675-0.0831-1.542-0.1041-2.312-0.0625-0.6714 0.0362-1.34 0.1198-2 0.25" fill="none"/><g><path d="m235.4 313.9c-0.0343-1.405 0.5008-2.816 1.458-3.845 0.9143-0.9824 2.164-1.596 3.447-1.989 0.3748-0.1148 0.7548-0.2127 1.138-0.2932" fill="none"/><path d="m237.1 309.7c5e-3 0.487 0.1842 0.9704 0.4977 1.343 0.3134 0.3728 0.7589 0.6322 1.238 0.7208 0.388 0.0718 0.7962 0.0324 1.162-0.1147s0.6887-0.4016 0.9148-0.725c0.3215-0.4601 0.4385-1.058 0.3141-1.605-0.1244-0.5473-0.4882-1.036-0.977-1.312"/></g><path d="m236.2 300.3c-0.8435-0.2223-1.668-0.5207-2.524-0.6877-0.8562-0.167-1.765-0.1961-2.58 0.1132-0.6985 0.2648-1.292 0.7668-1.741 1.364s-0.7611 1.287-0.9993 1.995c-0.7156 2.127-0.8001 4.472-1.856 6.452-0.3082 0.578-0.7044 1.123-1.237 1.504-0.2664 0.1905-0.5654 0.3377-0.8829 0.4182-0.3175 0.0805-0.6537 0.0932-0.9734 0.0222-0.4923-0.1094-0.9187-0.4067-1.329-0.6997-0.4104-0.293-0.8327-0.5945-1.322-0.7145-0.3939-0.0965-0.8164-0.0673-1.197 0.0741-0.3802 0.1413-0.7172 0.3932-0.9677 0.7122s-0.4147 0.7037-0.4808 1.104c-0.0661 0.4002-0.0348 0.815 0.0817 1.203 0.187 0.6234 0.5869 1.167 1.064 1.61 0.4768 0.4431 1.03 0.7942 1.588 1.13 0.6532 0.3934 1.319 0.771 1.926 1.232 0.6072 0.4612 1.16 1.013 1.521 1.685 0.3858 0.7158 0.5396 1.551 0.4548 2.36-0.0848 0.8088-0.4052 1.589-0.8968 2.236-0.5314 0.7001-1.269 1.25-2.106 1.517-0.8371 0.2678-1.771 0.2449-2.579-0.1032-0.5478-0.2362-1.028-0.6144-1.423-1.062s-0.7066-0.963-0.9636-1.501c-0.5393-1.13-0.8423-2.372-0.8839-3.624 0.3332 1.445 0.4232 2.945 0.2652 4.419-0.0816 0.7613-0.2346 1.531-0.6142 2.196-0.1898 0.3325-0.4357 0.6352-0.7366 0.8719-0.3009 0.2367-0.6579 0.406-1.036 0.4674-0.6206 0.1009-1.269-0.0976-1.777-0.4684-0.5078-0.3708-0.8832-0.9022-1.14-1.476-0.6671-1.49-0.5296-3.312 0.3536-4.685-0.3815 0.8245-0.6424 1.705-0.772 2.604-0.109 0.7566-0.1254 1.524-0.2271 2.282-0.1017 0.7576-0.2962 1.521-0.7231 2.155-0.3253 0.4832-0.7803 0.8775-1.303 1.134-0.5228 0.2569-1.112 0.3762-1.694 0.3467-0.5817-0.0294-1.155-0.2071-1.653-0.5084-0.4985-0.3014-0.9215-0.7255-1.225-1.223-0.3247-0.5321-0.5112-1.143-0.5788-1.762-0.0677-0.6197-0.0189-1.249 0.1041-1.86 0.246-1.222 0.7814-2.363 1.287-3.503 0.8654-1.95 1.669-3.992 1.688-6.125 0.0213-2.438-0.9872-4.818-0.8125-7.25 0.1256-1.748 0.8609-3.404 1.812-4.875 2.098-3.244 5.24-5.701 8.625-7.562 2.643-1.453 5.546-2.595 8.562-2.625 3.312-0.033 6.479 1.267 9.5 2.625 1.869 0.84 3.794 1.766 5.062 3.375 0.8048 1.021 1.298 2.285 1.399 3.581-1.367 0.0335-2.738-0.127-4.06-0.4754z" fill="#fcdb00" stroke-linecap="round" stroke-linejoin="round"/><path d="m236.3 349.9c-0.9669-0.3096-1.845-0.8903-2.509-1.658-0.4689-0.5425-0.8313-1.177-1.061-1.856" fill="none" stroke-linecap="round" stroke-linejoin="round"/><path d="m232.4 407.7c-0.068 4.188 1.44 8.383 4.159 11.57 2.719 3.186 6.625 5.335 10.77 5.927 3.818 0.5446 7.685-0.1894 11.5-0.75 2.035-0.299 4.078-0.5491 6.125-0.75-2.058 0.0699-4.111 0.3212-6.125 0.75-3.151 0.6708-6.2 1.774-9.125 3.125-3.936 1.819-7.649 4.085-11.25 6.5-4.447 2.982-8.738 6.198-13.29 9.022-1.545 0.959-3.16 1.888-4.95 2.21-1.335 0.24-2.705 0.1299-4.06 0.1964-0.6775 0.0333-1.356 0.1116-2.008 0.2975-0.6523 0.1859-1.28 0.4827-1.798 0.9204-0.6888 0.5818-1.163 1.402-1.367 2.28-0.2042 0.8782-0.1436 1.81 0.1299 2.669 0.4787 1.504 1.583 2.747 2.869 3.662 1.286 0.9142 2.755 1.532 4.221 2.117 1.327 0.5297 2.666 1.04 3.924 1.719s2.44 1.535 3.326 2.656c1.132 1.433 1.751 3.257 3.072 4.518 0.6793 0.6485 1.517 1.116 2.396 1.445 0.8796 0.3292 1.804 0.5245 2.73 0.6761 2.617 0.428 5.357 0.5048 7.867-0.3536 0.5918-0.2024 1.169-0.4571 1.69-0.8032s0.9854-0.7867 1.315-1.318c0.4839-0.7799 0.6575-1.731 0.566-2.645-0.0915-0.9133-0.437-1.79-0.9196-2.57-1.083-1.752-2.804-2.998-4.508-4.154-3.23-2.19-6.564-4.226-9.988-6.099 3.58-0.0493 7.156-0.3449 10.69-0.8839 6.766-1.03 13.36-2.943 20.06-4.331 5.859-1.214 11.85-2.04 17.41-4.243 1.591-0.6298 3.15-1.377 4.515-2.409 1.364-1.033 2.532-2.369 3.175-3.955 0.7752-1.91 0.7492-4.042 0.6187-6.099-0.572-9.022-2.947-17.93-6.945-26.03" fill="#ff9581" stroke-linecap="round" stroke-linejoin="round"/><path d="m243.5 391.2c3.646-2.574 7.618-4.685 11.79-6.266 2.823-1.07 5.751-1.9 8.75-2.25 4.58-0.5345 9.359 0.0992 13.44 2.25 3.771 1.989 6.765 5.144 9.812 8.125 5.056 4.947 10.44 9.559 15.25 14.75 4.43 4.785 8.34 10.04 12.85 14.75 4.507 4.712 9.737 8.946 15.9 11.06 2.547 0.8748 5.208 1.374 7.772 2.193 2.565 0.8198 5.095 2.009 6.915 3.994 0.941 1.026 1.669 2.247 2.125 3.562-2.021 0.4033-4.093 0.5495-6.15 0.4339-2.38-0.1337-4.725-0.6143-7.082-0.9682-2.357-0.3539-4.765-0.581-7.119-0.2067-1.986 0.3159-3.91 1.056-5.921 1.115-1.005 0.0294-2.03-0.1196-2.935-0.5588-0.9047-0.4392-1.68-1.188-2.034-2.129-0.2279-0.6061-0.2772-1.268-0.5079-1.873-0.3892-1.021-1.264-1.79-2.221-2.317s-2.011-0.8471-3.029-1.246c-4.047-1.585-7.483-4.384-11.27-6.517-4.013-2.26-8.415-3.767-12.42-6.046-5.57-3.171-10.21-7.742-14.5-12.5-1.82-2.016-3.628-4.107-5.942-5.529-0.9919-0.6094-2.065-1.086-3.182-1.414-1.114 1.674-2.325 3.283-3.624 4.817-2.592 3.06-5.537 5.82-8.75 8.22-4.358 3.255-9.21 5.848-14.34 7.66" fill="#ff9581" stroke-linecap="round" stroke-linejoin="round"/><path d="m229.7 450.5c-1.926-1.225-3.936-2.318-6.01-3.27-1.477-0.6782-2.987-1.285-4.523-1.817" fill="none"/><path d="m225.2 443.1c4.277-3.223 8.713-6.235 13.29-9.022 4.736-2.886 9.619-5.53 14.62-7.918l-0.3052-0.8286c-1.622 0.232-3.28 0.2176-4.898-0.0423-2.376-0.3816-4.664-1.297-6.648-2.659-0.867 0.3312-1.723 0.6917-2.565 1.081-2.44 1.126-4.776 2.496-6.866 4.187-2.988 2.418-5.448 5.485-7.159 8.927"/><g stroke-linecap="round" stroke-linejoin="round"><path d="m239.6 411.8c-1.219 5.752-1.971 11.65-4.125 17.12-1.279 3.248-3.057 6.323-5.43 8.883-2.373 2.56-5.359 4.591-8.695 5.617-3.698 1.138-7.677 1.014-11.5 0.4167-3.823-0.5978-7.56-1.654-11.36-2.363-4.54-0.846-9.225-1.21-13.51-2.928-4.373-1.753-8.218-4.974-10.34-9.178-2.17-4.29-2.452-9.403-1.237-14.05 0.4817-1.845 1.222-3.683 2.563-5.038 0.8618-0.8709 1.945-1.509 3.103-1.91 1.158-0.4007 2.389-0.5684 3.615-0.5648 1.327 4e-3 2.655 0.2055 3.977 0.0884 0.5998-0.0531 1.194-0.1719 1.768-0.3536l0.8599 6.353c3.701 1.329 7.68 1.878 11.6 1.602 5.517-0.3884 10.8-2.374 15.82-4.685 5.228-2.404 10.28-5.183 15.11-8.308 0.4954-1.894 1.116-3.756 1.856-5.568 1.751-4.288 4.176-8.3 7.159-11.84 1.296 0.0866 2.583 0.3148 3.829 0.6792 1.19 0.348 2.345 0.8201 3.438 1.406-3.833 7.816-6.696 16.11-8.5 24.62z" fill="#fff"/><path d="m186.7 407.9c-0.7374 2.273-1.039 4.686-0.8839 7.071 0.202 3.103 1.189 6.164 2.917 8.75 1.689 2.528 4.077 4.584 6.829 5.877 2.752 1.293 5.859 1.82 8.883 1.506-4.242-0.9088-8.148-3.314-10.87-6.693-1.679-2.085-2.907-4.513-3.75-7.055-1.045-3.151-1.508-6.494-1.358-9.81"/><path d="m226.4 405.9c0.5688 3.666-0.3542 7.542-2.514 10.56-1.742 2.433-4.206 4.264-6.806 5.745-1.754 0.9991-3.589 1.857-5.48 2.563 0.3305 0.3077 0.7406 0.5292 1.179 0.637 0.4385 0.1077 0.9046 0.1014 1.34-0.0182 0.5259-0.1444 0.9948-0.4468 1.424-0.783s0.8289-0.7105 1.272-1.029c0.6951-0.5 1.533-0.8637 2.386-0.7955 0.7023 0.0561 1.368 0.4098 1.843 0.9304s0.7623 1.199 0.8533 1.898c0.0915 0.7023-0.0124 1.431-0.3075 2.075-0.2642 0.5763-0.6741 1.076-1.138 1.509-0.4638 0.4321-0.9826 0.8005-1.502 1.164-2.229 1.558-4.506 3.047-6.826 4.463 2.665-1.109 5.258-2.395 7.754-3.845 1.145-0.6648 2.284-1.376 3.19-2.341 1.704-1.816 2.406-4.322 3.181-6.689 1.058-3.231 2.351-6.383 3.375-9.625 1.003-3.177 1.746-6.437 2.218-9.735"/></g></g><g stroke-linecap="round" stroke-linejoin="round" stroke-width="2"><path d="m181.5 327c-1.33-1.678-2.41-3.553-3.195-5.545-1.283-3.26-1.761-6.794-1.768-10.3-7e-3 -3.972 0.5815-7.946 1.741-11.75-0.7778 0.5145-1.42 1.232-1.847 2.061-0.5738 1.116-0.7473 2.398-0.7438 3.653 4e-3 1.255 0.1746 2.502 0.2497 3.755 0.2194 3.66-0.3802 7.37 0.2461 10.98 0.502 2.896 1.801 5.65 3.717 7.879"/><path d="m182.7 346.6-3.939 3.708c1.606 0.5543 2.445 0.606 4.877 0.6523 1.573 0.0299 4.745-0.458 6.024-1.049 1.049-0.4842 2.139-1.252 2.838-2.172 0.6992-0.9198 1.188-2.001 1.381-3.141 0.3544-2.09-0.3007-4.248-1.377-6.074-1.076-1.826-2.553-3.376-3.998-4.926-1.821-1.953-3.613-3.932-5.375-5.938-0.4474-0.398-1.052-0.6148-1.65-0.5918-0.5984 0.023-1.184 0.2856-1.6 0.7168-0.3905 0.4052-0.6268 0.9461-0.7012 1.504-0.0744 0.5578 8e-3 1.13 0.1914 1.662 0.3664 1.064 1.118 1.948 1.885 2.771 0.9982 1.072 2.053 2.095 2.973 3.234 1.517 1.951 2.527 3.982 2.365 6.164-0.1605 2.171-2.217 3.114-3.894 3.478z" fill="#fff"/></g><path d="m142.9 282.9c-2.655-3.183-4.47-7.06-5.215-11.14-0.6866-3.761-0.4596-7.703 0.7955-11.31 1.012-2.912 2.687-5.592 4.861-7.778" fill="none" stroke-linecap="round" stroke-linejoin="round" stroke-width="3"/><path d="m239.3 168.7c-0.476 8e-3 -0.9514 0.1072-1.391 0.291-3.925 4.319-8.056 8.45-12.38 12.38-5.432 4.936-11.26 9.605-18 12.5-15.36 4.469-39.59 12.97-53.26 15.22-20.91 3.443-17.23 4.051-33.77 5.481-5.663 0.4896-21.5-4.821-26.25-6.111l-1.131 3.686c3.957 1.469 7.654 2.819 11.21 4.725 5.021 2.702 8.475 4.904 13.18 5.84 5.561 1.107 8.288 0.1983 11.68-3.342 3.436-0.1756 7.031 1.645 10.38 0.8723 3.529-0.8131 6.453-2.484 9.772-3.931 3.076 0.1688 6.889 0.8466 9.832-0.0643 3.984-1.233 7.309-2.379 10.27-5.314 3.473 1.018 7.296 0.7933 10.62-0.625 2.078-0.8854 3.961-2.222 5.482-3.893 1.616 0.6932 3.424 0.9359 5.166 0.6934 2.405-0.3348 4.666-1.611 6.197-3.496 3.005 0.2486 6.047 0.0421 8.99-0.6133 5.203-1.159 10.03-3.698 14.31-6.869 4.285-3.171 8.065-6.969 11.69-10.88 3.895-4.208 7.628-8.567 11.19-13.06-0.0795-1.095-0.6683-2.143-1.562-2.781-0.5169-0.3687-1.129-0.6031-1.76-0.6738-0.1577-0.0177-0.3159-0.026-0.4746-0.0234z" stroke-width="1px"/><path d="m109.8 153.1c-1.144-0.0702-2.26-0.4586-3.225-1.076-0.9648-0.6177-1.779-1.461-2.4-2.424-0.7014-1.087-1.162-2.338-1.27-3.627-0.1083-1.289 0.1429-2.616 0.77-3.748 0.6321-1.141 1.638-2.065 2.814-2.629s2.516-0.7707 3.811-0.6209c1.553 0.1795 3.042 0.8727 4.181 1.945 1.138 1.072 1.919 2.516 2.194 4.055 0.3591 2.009-0.1736 4.174-1.476 5.746-1.302 1.572-3.362 2.504-5.399 2.379z" fill="none" stroke-linecap="round" stroke-linejoin="round" stroke-width="3"/><path d="m78.25 131.8c3.983 1.459 7.904 3.086 11.75 4.875 4.465 2.076 8.828 4.371 13.07 6.872 0.2314-0.8388 0.64-1.628 1.191-2.302 0.5881-0.7185 1.338-1.304 2.178-1.699-4.893-3.727-10.11-7.034-15.56-9.871-2.614-1.359-5.283-2.61-8-3.75" stroke-width="1px"/><path d="m105.1 150.9c-1.027 4.721-2.16 9.418-3.398 14.09-3.58 13.51-8.035 26.79-13.33 39.72 0.8059-0.1923 1.661-0.1728 2.458 0.056 0.7935 0.228 1.527 0.6634 2.106 1.251 6.224-12.65 11.16-25.93 14.72-39.58 1.148-4.409 2.153-8.855 3.01-13.33" stroke-width="1px"/><path d="m87.86 213.1c-0.7616-0.3272-1.44-0.8504-1.939-1.513s-0.8151-1.463-0.8897-2.288c-0.1134-1.255 0.3526-2.55 1.237-3.447 0.5819-0.59 1.333-1.008 2.138-1.205 0.805-0.1967 1.661-0.1727 2.458 0.056 1.192 0.3422 2.247 1.156 2.851 2.239s0.739 2.424 0.3309 3.595c-0.4122 1.182-1.367 2.156-2.528 2.624-1.161 0.4682-2.509 0.4336-3.659-0.0606z" fill="none" stroke-width="3"/><path d="m75.56 203.8c3.613 0.4247 7.196 1.108 10.71 2.044-0.4909 0.5033-0.8586 1.126-1.063 1.799-0.2266 0.7477-0.2494 1.557-0.06141 2.315 0.05949 0.24 0.1396 0.4748 0.2393 0.7011-2.872-0.7583-5.803-1.295-8.757-1.603-3.717-0.3875-7.472-0.4133-11.19-0.0768 0.04794-1.057 0.07091-2.115 0.06888-3.173-0.0016-0.8395-0.01896-1.679-0.05204-2.518 3.375-0.0532 6.754 0.118 10.11 0.5121z" stroke-width="1px"/><path d="m116.7 132.3c-0.4642 2.921-1.216 5.796-2.242 8.571-0.7698-0.7237-1.698-1.278-2.7-1.613-0.8725-0.2914-1.8-0.4166-2.719-0.3669 0.9553-3.413 1.51-6.938 1.651-10.48 0.2275-5.751-0.6474-11.54-2.563-16.97 1.257-0.6006 2.635-0.9476 4.026-1.014 0.9016-0.0431 1.809 0.0306 2.691 0.2187 2.361 6.925 3.004 14.43 1.856 21.66z" stroke-width="1px"/><path d="m113.3 152.2c1.014 2.64 1.852 5.348 2.506 8.099 1.234 5.193 1.808 10.52 2.386 15.82 0.2054 1.886 0.4117 3.771 0.6187 5.657 1.231-1.551 2.327-3.209 3.27-4.95 0.6664-1.229 1.257-2.499 1.768-3.801-0.4397-4.928-1.574-9.793-3.359-14.41-1.226-3.17-2.759-6.222-4.569-9.1" stroke-width="1px"/></g><path d="m4 4v280c20 260 236 310 246 312 10-2 226-52 246-312v-280z" fill="none" stroke="#000" stroke-width="8"/></svg>
