<svg width="132.3mm" height="158.8mm" version="1.1" viewBox="0 0 132.3 158.8" xml:space="preserve" xmlns="http://www.w3.org/2000/svg" xmlns:cc="http://creativecommons.org/ns#" xmlns:dc="http://purl.org/dc/elements/1.1/" xmlns:rdf="http://www.w3.org/1999/02/22-rdf-syntax-ns#" xmlns:xlink="http://www.w3.org/1999/xlink"><metadata><rdf:RDF><cc:Work rdf:about=""><dc:format>image/svg+xml</dc:format><dc:type rdf:resource="http://purl.org/dc/dcmitype/StillImage"/><dc:title/></cc:Work></rdf:RDF></metadata><path d="m1.058 1.058v74.08c5.292 68.79 62.44 82.02 65.09 82.55 2.646-0.5292 59.8-13.76 65.09-82.55v-74.08z" fill="#1c63b7" stroke="#000" stroke-width="2.117"/><g transform="matrix(.6765 0 0 .6765 184.9 -30.39)" stroke-width="1.564"><path d="m-122.8 243.2h-104.1v-37.31l31.38-8.301v-7.024l18.95-10.94 18.18 10.49v9.431h15.25v-24.99l10.21-10.21 10.14 10.14v68.71" fill="#fcdb00" stroke="#000" stroke-linecap="round" stroke-linejoin="round" style="paint-order:markers fill stroke"/><path d="m-136.9 158.1h7.776m-3.889 6.213v-10.14" fill="none" stroke="#000" stroke-linecap="square" style="paint-order:markers fill stroke"/><g id="g25290"><path transform="scale(-1)" d="m209.2-224.8a5.891 3.115 0 0 1-2.946 2.698 5.891 3.115 0 0 1-5.891 0 5.891 3.115 0 0 1-2.946-2.698h5.891z" stroke="#000" stroke-linecap="square" stroke-width="1.564" style="paint-order:markers fill stroke"/><rect x="-209.7" y="224.8" width="12.92" height="18.32" stroke-width="1.564" style="paint-order:markers fill stroke"/></g><use transform="translate(25.81)" width="100%" height="100%" xlink:href="#g25290"/><use transform="translate(51.63)" width="100%" height="100%" xlink:href="#g25290"/><g fill="none" stroke="#000" stroke-linecap="round"><path d="m-144.8 176.2 11.85-11.85 11.85 11.85" style="paint-order:markers fill stroke"/><path d="m-198.7 192.3 22.04-12.73 22.04 12.73" style="paint-order:markers fill stroke"/><path d="m-195.6 197.6-34.3 9.192" style="paint-order:markers fill stroke"/></g></g><rect x="1.058" y="1.058" width="130" height="70.26" fill="#f00000" stroke="#000" stroke-width="1.058" style="paint-order:markers fill stroke"/><g transform="matrix(.9274 0 0 .9274 -29.95 -92.3)" stroke-width="1.141"><use transform="matrix(-1,0,0,1,207.3,0)" width="100%" height="100%" stroke-width="1.141" xlink:href="#g25482"/><g id="g25482" transform="translate(0,-2.646)"><path transform="scale(.2646)" d="m310.4 420.9c-23.3 0.0877-46.69 8.498-63.91 24.36-10.37 9.071-20.07 19.04-31.76 26.47-7.843 5.404-16.3 9.788-24.49 14.6-1.754 0.8599 0.1082 2.931 0.2161 4.255 0.2271 0.9005 0.5616 2.493 1.83 1.733 12.41-5.59 23.5-13.64 34.28-21.84 1.057 0.5781 0.2664 2.393 0.3932 3.402-0.5405 7.022-1.598 14.04-4.136 20.65-0.5861 1.494 1.907 1.362 2.708 1.995 1.679 0.425 3.394 1.771 5.07 1.613 1.135-8.569 0.8858-17.35 2.859-25.78 0.9352-3.921 5.124-5.536 8.556-6.606 2.493-0.482 3.996 2.262 5.615 3.68 4.854 5.804 8.9 12.7 10.11 20.27 0.4446 2.848 0.1665 5.665-0.0419 8.535 1.54 0.7403 3.688 0.6501 5.484 0.6053 0.7908-1.117-0.0781-2.914 0.0741-4.243-0.0767-2.767-0.9033-5.967-0.4269-8.514 6.422 2.406 12.14 6.445 18.24 9.431 0.4222-1.661 1.849-3.695 0.971-5.435-2.656-2.003-6.009-2.95-8.724-4.905-8.018-5.035-15.88-12.03-17.85-21.74-0.3431-1.921-0.8603-4.07-0.4601-5.895 11.96-14.1 30.35-21.3 48.45-22.95 39.7-3.548 80.35 17.83 100.3 52.31 11.44 19.83 18.9 41.92 22.25 64.54 2.408 17.06 2.124 35.21-5.577 50.98-0.6852 1.376-1.47 3.232 0.2432 4.266 7.827 8.993 15.39 18.25 23.67 26.83 1.152-0.1766 0.7009-2.208 1.092-3.123 5.968-40.12 2.795-82.08-12.23-120-8.982-22.56-22.63-43.58-41.36-59.24-20.65-17.61-47.11-28.44-74.22-30.12-2.402-0.1356-4.809-0.1917-7.216-0.1693z" fill="#094" stroke-width="4.313" style="paint-order:markers fill stroke"/><path d="m117.8 168.2c1.221-6.934 1.309-14.06 0.258-21.03-1.558-10.32-5.858-20.56-13.69-27.46-3.504-3.089-7.646-5.449-12.09-6.902-4.102-1.342-8.477-1.913-12.77-1.466-4.293 0.4471-8.499 1.929-12.01 4.435-2.789 1.99-5.097 4.575-7.758 6.734-1.426 1.158-2.951 2.189-4.511 3.159-1.729 1.074-3.505 2.074-5.321 2.995" fill="none" stroke="#000" stroke-linecap="round" stroke-linejoin="round" stroke-width="1.141" style="paint-order:markers fill stroke"/><path d="m74.95 129.6c-1.232-0.4908-2.404-1.131-3.483-1.903-1.34-0.9584-2.558-2.152-3.257-3.644-0.4147-0.8853-0.6363-1.86-0.645-2.838" fill="none" stroke="#000" stroke-linecap="round" stroke-linejoin="round" stroke-width="1.141" style="paint-order:markers fill stroke"/><path d="m69.95 132.2c-0.0519-0.5484-0.1056-1.097-0.1612-1.645-0.06219-0.613-0.1267-1.226-0.1935-1.838" fill="none" stroke="#000" stroke-linecap="round" stroke-linejoin="round" stroke-width="1.141" style="paint-order:markers fill stroke"/><path d="m74.53 131.4c-0.5441-0.3244-1.092-0.6418-1.645-0.9521-1.082-0.6076-2.178-1.188-3.29-1.74" fill="none" stroke="#000" stroke-linecap="round" stroke-linejoin="round" stroke-width="1.141" style="paint-order:markers fill stroke"/><path d="m67.95 132c0.2286-0.9261 0.2508-1.902 0.0645-2.838-0.259-1.301-0.9066-2.489-1.612-3.612-0.4658-0.7408-0.9746-1.478-1.677-2-0.1437-0.1068-0.2947-0.2038-0.4515-0.2902" fill="none" stroke="#000" stroke-linecap="round" stroke-linejoin="round" stroke-width="1.141" style="paint-order:markers fill stroke"/><path d="m61.18 132.1c0.1179-1.775 0.2576-3.549 0.4192-5.321 0.05357-0.5873 0.1106-1.18 0.2902-1.742 0.06913-0.2162 0.1573-0.4288 0.2902-0.6127 0.251-0.3475 0.6408-0.5664 1.032-0.7418 0.3448-0.1546 0.7008-0.284 1.064-0.387" fill="none" stroke="#000" stroke-linecap="round" stroke-linejoin="round" stroke-width="1.141" style="paint-order:markers fill stroke"/><path d="m58.65 131.1c0.4305-0.9419 0.7453-1.937 0.935-2.955 0.1194-0.6407 0.1892-1.29 0.2508-1.938 0.05122-0.5392 0.09683-1.079 0.1368-1.619" fill="none" stroke="#000" stroke-linecap="round" stroke-linejoin="round" stroke-width="1.141" style="paint-order:markers fill stroke"/><path d="m50.5 130.6c1.168-0.5338 2.31-1.126 3.418-1.774 1.208-0.7055 2.377-1.476 3.515-2.29 0.8639-0.6172 1.71-1.259 2.538-1.924" fill="none" stroke="#000" stroke-linecap="round" stroke-linejoin="round" stroke-width="1.141" style="paint-order:markers fill stroke"/><path d="m67.56 121.2c0.5383-0.6391 1.13-1.233 1.767-1.774 1.97-1.672 4.356-2.815 6.844-3.515 5.213-1.468 10.88-1.005 15.95 0.8832 4.947 1.84 9.401 5.034 12.63 9.213 2.466 3.196 4.191 6.908 5.526 10.72 1.277 3.643 2.219 7.419 2.554 11.26 0.223 2.559 0.1739 5.161-0.4105 7.662-0.3634 1.555-0.9324 3.062-1.688 4.47" fill="none" stroke="#000" stroke-linecap="round" stroke-linejoin="round" stroke-width="1.141" style="paint-order:markers fill stroke"/><path d="m110.7 160.1 7.04 8.13" fill="none" stroke="#000" stroke-linecap="round" stroke-linejoin="round" stroke-width="1.141" style="paint-order:markers fill stroke"/><use transform="translate(15.21,21.58)" width="100%" height="100%" stroke-width="1.141" xlink:href="#path25379"/><use transform="translate(8.707,15.91)" width="100%" height="100%" stroke-width="1.141" xlink:href="#path25379"/><use transform="translate(25.84,18.38)" width="100%" height="100%" stroke-width="1.141" xlink:href="#path25379"/><use transform="translate(20.44,28.13)" width="100%" height="100%" stroke-width="1.141" xlink:href="#path25379"/><use transform="translate(2.207,6.5)" width="100%" height="100%" stroke-width="1.141" xlink:href="#path25379"/><use transform="matrix(.9286 0 0 .9286 20.56 43.9)" width="100%" height="100%" stroke-width="1.229" xlink:href="#path25379"/><use transform="matrix(1.088 0 0 1.088 -.5613 2.111)" width="100%" height="100%" stroke-width="1.049" xlink:href="#path25379"/><use transform="translate(32.12,7.185)" width="100%" height="100%" stroke-width="1.141" xlink:href="#path25379"/><use transform="translate(24.5,25.28)" width="100%" height="100%" stroke-width="1.141" xlink:href="#path25379"/><use transform="translate(19.94,7.742)" width="100%" height="100%" stroke-width="1.141" xlink:href="#path25379"/><use transform="matrix(1.016,0,0,1.016,17.18,13.82)" width="100%" height="100%" stroke-width="1.123" xlink:href="#path25379"/><use transform="translate(31.49,14.32)" width="100%" height="100%" stroke-width="1.141" xlink:href="#path25379"/><circle id="path25379" cx="44.83" cy="129.8" r="6.241" fill="#fcdb00" stroke="#000" stroke-linecap="round" stroke-linejoin="round" stroke-width="1.141" style="paint-order:markers fill stroke"/><use transform="translate(12.4,5.382)" width="100%" height="100%" stroke-width="1.141" xlink:href="#path25379"/><use transform="translate(24.99,7.48)" width="100%" height="100%" stroke-width="1.141" xlink:href="#path25379"/><use transform="translate(35.94,1.551)" width="100%" height="100%" stroke-width="1.141" xlink:href="#path25379"/><use transform="translate(10.41,25.28)" width="100%" height="100%" stroke-width="1.141" xlink:href="#path25379"/></g></g><path d="m1.058 1.058v74.08c5.292 68.79 62.44 82.02 65.09 82.55 2.646-0.5292 59.8-13.76 65.09-82.55v-74.08z" fill="none" stroke="#000" stroke-width="2.117"/></svg>
