<svg width="500" height="599.8" version="1.0" xml:space="preserve" xmlns="http://www.w3.org/2000/svg"><path d="M4 4v279.9c20.02 260 236.1 309.8 246 311.8 9.96-2.002 226.1-51.99 246-311.8V4z" stroke="#000" stroke-width="8"/><path d="M496 4v279.9c-4.566 26.78-8.212 64.7-13.7 80.34s-10.98 31.28-16.47 46.91c-153.9-135.7-307.9-271.4-461.8-407.1z" fill="#1c63b7" fill-rule="evenodd" stroke="#000" stroke-linecap="round" stroke-linejoin="round" stroke-miterlimit="1000" stroke-width="4" style="paint-order:fill markers stroke"/><g stroke-linejoin="round" stroke-miterlimit="1000"><g stroke="#000" stroke-linecap="round" fill="#fcdb00" fill-rule="evenodd" stroke-width="4"><path d="M255.4 108.6a25.334 25.334 0 0 1 10.05-8.113 25.299 25.299 0 0 1 12.74-2.058 36.718 36.718 0 0 1 1.078 8.037c.116 5.112-.86 10.27-3.038 14.9-3.523 7.485-10.25 13.39-18.13 15.92" style="paint-order:fill markers stroke"/><path d="M262.5 168.7a35.067 35.067 0 0 0 12.9-11.9c2.413-3.754 4.091-7.961 5.096-12.31a44.197 44.197 0 0 0 .842-15 21.625 21.625 0 0 0-6.82-.49c-2.447.214-4.84.845-7.155 1.666-12.7 4.506-23.09 15.1-27.34 27.89M236.1 135.2a62.03 62.03 0 0 1-5.88-12.84c-1.764-5.405-2.781-11.07-2.744-16.76.025-3.798.52-7.593 1.47-11.27a6.2 6.2 0 0 1 4.508-.196c1.076.373 2.031 1.04 2.871 1.81.84.77 1.575 1.644 2.324 2.503 2.27 2.602 4.689 5.08 6.762 7.841 5.197 6.918 8.064 15.56 8.037 24.21" style="paint-order:fill markers stroke"/><path d="M245.5 115.8a311.437 311.437 0 0 1-2.716-19.6c-.561-5.276-.969-10.74.686-15.78a20.192 20.192 0 0 1 8.331-10.68 16.355 16.355 0 0 1 6.566 4.998c2.322 2.969 3.547 6.669 4.156 10.39.918 5.605.516 11.42-1.118 16.86a38.353 38.353 0 0 1-6.958 13.13M238.6 169.5a234.934 234.934 0 0 1-10.74-16.07c-2.429-3.983-4.779-8.146-5.586-12.74-.488-2.779-.393-5.635 0-8.429a40.08 40.08 0 0 1 1.372-6.174 11.687 11.687 0 0 1 5.88.588c1.571.585 3 1.505 4.312 2.548 2.01 1.597 3.766 3.486 5.488 5.39a288.145 288.145 0 0 1 21.17 26.36" style="paint-order:fill markers stroke"/><path d="M237.9 201.6a66.075 66.075 0 0 1-11.82-15.88c-2.642-4.96-4.658-10.31-5.39-15.88a36.563 36.563 0 0 1 .294-11.37c3.11.052 6.21.652 9.115 1.764 3.768 1.442 7.166 3.72 10.29 6.272 10.2 8.332 17.76 19.85 21.34 32.52M262.3 291.4a68.394 68.394 0 0 0 18.58-17.37c2.269-3.103 4.302-6.456 5.292-10.17.629-2.356.824-4.818.686-7.252a26.936 26.936 0 0 0-.45-3.605 9.898 9.898 0 0 0-4.255-2c-1.8-.363-3.664-.215-5.488 0-6.134.722-12.29 2.235-17.53 5.512-2.618 1.639-4.978 3.711-6.822 6.189-1.844 2.477-3.162 5.365-3.678 8.409-.751 4.435.264 9.145 2.776 12.88 2.512 3.731 6.494 6.443 10.89 7.415" style="paint-order:fill markers stroke"/><path d="M234.1 243.3a169.558 169.558 0 0 0-10.3-22.46c-2.339-4.257-4.892-8.492-6.011-13.22a23.469 23.469 0 0 1 1.077-14.11 10.64 10.64 0 0 1 4.938-1.468c2.92-.126 5.774.965 8.291 2.45 2.766 1.632 5.217 3.742 7.586 5.911a160.928 160.928 0 0 1 28.42 34.43M244.5 300.4c-.094-1.058-.22-2.161-.804-3.048-.341-.518-.821-.932-1.34-1.272-.519-.34-1.078-.611-1.631-.892-3.211-1.633-6.226-3.632-9.425-5.29-2.083-1.078-4.26-2.016-6.558-2.486a17.119 17.119 0 0 0-8 .285 9.06 9.06 0 0 0-1.657 4.814c-.133 2.962 1.2 5.8 2.84 8.27 2.173 3.272 4.935 6.137 8.039 8.544 2.702 2.096 5.656 3.845 8.663 5.475 1.018.552 2.05 1.094 3.158 1.431 1.108.337 2.306.46 3.425.164 1.032-.274 1.972-.913 2.564-1.802.761-1.144.904-2.58.976-3.952.178-3.413.051-6.837-.25-10.24zM248.9 151.7a35.781 35.781 0 0 1-5.238-11.38c-1.346-5.159-1.518-10.58-.87-15.88.297-2.422.766-4.834 1.612-7.122.846-2.288 2.079-4.456 3.778-6.207a14.445 14.445 0 0 1 3.633-2.718 9.676 9.676 0 0 1 4.143 2.876c1.662 1.978 2.455 4.523 3.2 6.996 1.696 5.626 3.364 11.37 3.234 17.25-.141 6.391-2.494 12.71-6.566 17.64M259.3 200.4a55.238 55.238 0 0 0 18.25-13.39c2.658-2.967 5.024-6.284 6.293-10.06 1.555-4.627 1.341-9.825-.588-14.31a15.064 15.064 0 0 0-7.84-2.058c-3.804.066-7.436 1.573-10.78 3.381a59.08 59.08 0 0 0-18.99 16.32" style="paint-order:fill markers stroke"/><path d="M250 193.6a197.937 197.937 0 0 1-5.082-9.801c-1.945-4.021-3.778-8.198-4.214-12.64-.377-3.842.328-7.779 1.974-11.27 1.097-2.328 2.598-4.451 4.312-6.37.572-.64 1.174-1.264 1.88-1.755.706-.49 1.526-.844 2.383-.892.88-.049 1.756.227 2.518.67s1.419 1.043 2.025 1.682c2.092 2.206 3.631 4.898 4.704 7.743 1.561 4.138 2.155 8.622 1.862 13.03-.487 7.335-3.465 14.48-8.331 19.99M249 212.7a67.188 67.188 0 0 1 10.29-12.32c2.608-2.453 5.462-4.727 8.767-6.107 2.807-1.172 5.879-1.666 8.919-1.568 2.159.07 4.309.433 6.37 1.078.282 2.014.446 4.044.49 6.076.095 4.366-.37 8.767-1.666 12.94a33.49 33.49 0 0 1-9.664 14.99 33.489 33.489 0 0 1-16.01 7.847" style="paint-order:fill markers stroke"/><path d="M259.8 260.4c1.671.132 3.37-.091 4.95-.65 3.284-1.162 5.877-3.666 8.527-5.928 1.755-1.5 3.581-2.92 5.223-4.543 1.642-1.622 3.109-3.47 3.99-5.602.619-1.498.935-3.102 1.176-4.704.589-3.921.744-7.894.784-11.86.013-1.372.013-2.744 0-4.116a45.444 45.444 0 0 0-4.802-.98c-8.768-1.302-17.91.033-25.94 3.788-8.03 3.755-14.91 9.915-19.54 17.48" style="paint-order:fill markers stroke"/><path d="M247.7 222.4c-1-2.061-1.993-4.124-2.98-6.191-1.058-2.217-2.114-4.452-2.756-6.823-.641-2.371-.851-4.91-.205-7.28.615-2.258 1.963-4.236 2.91-6.376.754-1.701 1.289-3.566 2.565-4.92.733-.779 1.688-1.346 2.72-1.623s2.142-.265 3.17.029c1.022.292 1.952.853 2.77 1.531.82.677 1.533 1.471 2.22 2.281 1.535 1.807 2.983 3.762 3.674 6.029.836 2.745.493 5.694.139 8.542-.461 3.698-.937 7.432-2.218 10.93a24.896 24.896 0 0 1-4.143 7.241" style="paint-order:fill markers stroke"/><path d="M238.4 260.5a25.453 25.453 0 0 1-1.752-13.71c.685-4.541 2.585-8.794 4.41-13.01.867-2 1.721-4.005 2.646-5.978.955-2.037 2.06-4.124 3.92-5.39 1.074-.731 2.369-1.145 3.668-1.125 1.299.02 2.595.48 3.585 1.321.935.794 1.565 1.877 2.254 2.891 1.005 1.479 2.171 2.853 3.044 4.413.466.832.847 1.716 1.072 2.643.511 2.106.2 4.311 0 6.468-.188 2.023-.277 4.061-.644 6.06a22.108 22.108 0 0 1-5.749 11.23" style="paint-order:fill markers stroke"/><path d="M246.4 258.1a48.789 48.789 0 0 1-2.242-7.063c-.868-3.687-1.333-7.548-3.136-10.88-1.573-2.906-4.051-5.193-6.37-7.546-2.097-2.127-4.116-4.368-6.566-6.076-1.156-.806-2.412-1.491-3.771-1.867-1.358-.376-2.827-.43-4.168.005-1.004.325-1.917.92-2.634 1.694s-1.236 1.727-1.516 2.745c-.49 1.778-.246 3.661-.12 5.5.176 2.556.12 5.136.546 7.662.455 2.699 1.45 5.275 2.548 7.782a94.825 94.825 0 0 0 17.45 26.56M259.7 295.3c.4-1.556 1.433-2.883 2.633-3.95 1.908-1.696 4.256-2.826 6.225-4.45 1.274-1.052 2.384-2.305 3.747-3.24a10.09 10.09 0 0 1 5.137-1.744 10.09 10.09 0 0 1 5.294 1.185 8.91 8.91 0 0 1 1.057 4.095c.034 2.938-1.37 5.668-2.469 8.393-1.316 3.262-2.278 6.769-4.518 9.48-2.486 3.008-6.218 4.644-9.808 6.174-.643.274-1.294.55-1.983.67-.69.12-1.431.07-2.037-.278a2.665 2.665 0 0 1-.953-.972 3.997 3.997 0 0 1-.46-1.29c-.169-.902-.102-1.83-.116-2.747a20.011 20.011 0 0 0-.294-2.975 28.678 28.678 0 0 0-1.212-4.73 5.841 5.841 0 0 1-.243-3.621z" style="paint-order:fill markers stroke"/><path d="M222.9 256.5c2.127.719 4.385.979 6.522 1.666 3.296 1.06 6.246 3.15 8.375 5.88a17.86 17.86 0 0 1 2.842 5.292c-.2 2.153-.133 4.331.197 6.468.354 2.295 1.008 4.532 1.653 6.763.712 2.462 1.473 5.03 3.246 6.88a7.947 7.947 0 0 0 3.55 2.136 7.562 7.562 0 0 1-3.62 3.296 7.56 7.56 0 0 1-4.881.357c-1.2-.318-2.298-.928-3.374-1.546-2.057-1.18-4.086-2.413-6.051-3.743-1.743-1.18-3.437-2.438-4.99-3.859-3.631-3.322-6.431-7.488-8.506-11.95a48.64 48.64 0 0 1-3.197-9.213c-.348-1.458-.632-2.958-.483-4.45.117-1.178.516-2.342 1.248-3.273.731-.93 1.81-1.608 2.986-1.745.769-.09 1.548.05 2.29.27.743.22 1.458.522 2.192.77z" style="paint-order:fill markers stroke"/><path d="M245.7 289.4c-1.774-1.849-2.541-4.417-3.246-6.88-1.234-4.315-2.469-8.786-1.85-13.23.416-2.987 1.664-5.818 3.332-8.331 1.111-1.673 2.455-3.255 4.219-4.214a8.256 8.256 0 0 1 4.49-.968 8.552 8.552 0 0 1 4.326 1.556c1.983 1.408 3.282 3.58 4.312 5.782 1.309 2.798 2.292 5.832 2.164 8.919-.102 2.47-.907 4.847-1.478 7.252-.465 1.958-.78 3.955-1.396 5.871s-1.565 3.782-3.081 5.105a7.847 7.847 0 0 1-3.936 1.832 7.844 7.844 0 0 1-4.305-.558 7.98 7.98 0 0 1-3.551-2.136zM243.8 314.6a192.03 192.03 0 0 1-1.345 36.36l15.77-.636a214.25 214.25 0 0 1 .958-32.4" style="paint-order:fill markers stroke"/><path d="M250 323.9c-1.163-.277-2.219-.93-3.07-1.77s-1.506-1.863-2.02-2.943c-.769-1.616-1.231-3.363-1.525-5.128-.64-3.837-.5-7.759-.277-11.64.095-1.648.206-3.308.633-4.903s1.19-3.138 2.416-4.245c.879-.794 1.975-1.34 3.132-1.595s2.373-.22 3.52.07c2.497.63 4.589 2.44 5.942 4.631 1.352 2.19 2.026 4.738 2.376 7.289.661 4.827.182 9.89-1.94 14.28-.86 1.778-2.011 3.46-3.601 4.633a7.7 7.7 0 0 1-2.651 1.282 6.164 6.164 0 0 1-2.934.045z" style="paint-order:fill markers stroke"/></g><g fill="none" stroke-width="2"><path d="M300.1 265a72.923 72.923 0 0 0 12.912-16.263" stroke="#000" stroke-linecap="round" style="paint-order:fill markers stroke"/><path d="M278.3 288.1a383.62 383.62 0 0 1 12.15-13.38 381.413 381.413 0 0 1 9.629-9.746" stroke="#fcdb00" style="paint-order:fill markers stroke"/><g stroke="#000" stroke-linecap="round"><path d="M286.4 253c4.8-4.871 9.245-10.09 13.29-15.6a141.17 141.17 0 0 0 12.64-20.78M284.4 223a192.176 192.176 0 0 0 25.97-33.61M283.3 193.8a139.55 139.55 0 0 0 14.6-14.7 139.639 139.639 0 0 0 14.45-20.29M218.9 193.5a342.884 342.884 0 0 1-24.73-47.79M221 158.5a252.896 252.896 0 0 1-8.943-14.81 254.151 254.151 0 0 1-14.83-31.4M223.7 126a201.806 201.806 0 0 1-9.372-17.47 201.086 201.086 0 0 1-9.702-24.44M228.9 94.38a7258.492 7258.492 0 0 1-17.439-46.28M251.8 69.78a530.873 530.873 0 0 1-.493-48.02M278.2 98.4a229.125 229.125 0 0 0 16.012-52.63M281.3 129.5a117.173 117.173 0 0 0 12.68-17.54 117.553 117.553 0 0 0 11.96-28.03M283.2 162.6a111.176 111.176 0 0 0 12.15-13.23 111.548 111.548 0 0 0 14.9-25.47" style="paint-order:fill markers stroke"/></g><g stroke="#fcdb00" stroke-linecap="round"><path d="M218.8 290.6a192.413 192.413 0 0 1-10.19-15.19 192.482 192.482 0 0 1-15.19-31.17M217.8 258.8a325.158 325.158 0 0 1-14.35-23.49 323.661 323.661 0 0 1-14.14-28.83M220.8 229.4a334.616 334.616 0 0 1-11.42-18.3 338.306 338.306 0 0 1-13.31-25.36" style="paint-order:fill markers stroke"/></g></g></g><g stroke="#000"><path d="M426.3 433.5c-5.512-11.24-13.97-21.05-24.36-28.03-10.4-6.98-22.72-11.1-35.24-11.61-16.26-.663-32.79 4.945-44.91 15.8-4.68 4.192-8.669 9.084-12.75 13.86a403.049 403.049 0 0 1-30.31 31.77 817.208 817.208 0 0 0 20.78-21.02c3.304-3.468 6.583-6.971 9.526-10.75 7.634-9.805 12.99-21.87 12.62-34.29-.22-7.344-2.46-14.61-6.343-20.84-3.884-6.237-9.395-11.44-15.81-15.03-8.761-4.905-18.97-6.739-29.01-6.86-6.826-.083-13.64.588-20.47.588s-13.64-.67-20.47-.588c-10.04.122-20.25 1.955-29.01 6.86-6.411 3.589-11.92 8.79-15.81 15.03-3.884 6.237-6.124 13.5-6.343 20.84-.372 12.42 4.988 24.48 12.62 34.29 2.943 3.78 6.221 7.283 9.526 10.75a813.997 813.997 0 0 0 20.78 21.02 402.193 402.193 0 0 1-30.3-31.77c-4.082-4.776-8.072-9.668-12.75-13.86-12.12-10.86-28.65-16.46-44.91-15.8-12.51.51-24.84 4.627-35.23 11.61-10.4 6.98-18.85 16.79-24.36 28.03a73.96 73.96 0 0 0-7.463 35.13c22.68 32 51.18 59.85 83.69 81.79 30.48 20.57 64.46 35.93 100 45.23 35.57-9.297 69.56-24.66 100-45.23 32.51-21.94 61.01-49.79 83.69-81.79a73.931 73.931 0 0 0-7.46-35.13z" fill="#094" fill-rule="evenodd" stroke-linecap="round" stroke-linejoin="round" stroke-miterlimit="1000" stroke-width="4" style="paint-order:fill markers stroke"/><path d="M350 550.5c-30.48 20.56-64.46 35.93-100 45.23-35.57-9.3-69.55-24.66-100-45.23a327.435 327.435 0 0 1-80.89-77.86 146.733 146.733 0 0 0 56.77 5.565c19.68-1.946 39-7.878 58.77-7.497 8.661.167 17.25 1.548 25.78 3.062 13.12 2.329 26.28 4.99 39.6 4.99s26.48-2.661 39.6-4.99c8.53-1.514 17.12-2.895 25.78-3.062 19.77-.38 39.09 5.552 58.77 7.497 19.04 1.883 38.46-.02 56.77-5.565a327.435 327.435 0 0 1-80.89 77.86z" fill="#fff" fill-rule="evenodd" stroke-linecap="round" stroke-linejoin="round" stroke-miterlimit="1000" stroke-width="4" style="paint-order:fill markers stroke"/><g fill="none" stroke-linecap="round"><g stroke-linejoin="round" stroke-miterlimit="1000"><g stroke-width="4"><path d="M121.9 413.1a27.99 27.99 0 0 1 9.017-3.286c7.906-1.413 16.17.688 23.13 4.704 6.45 3.724 11.85 8.981 17.25 14.11a867.753 867.753 0 0 0 25.09 22.93M301.1 374.4a29.315 29.315 0 0 1 5.684 14.11c.7 5.862-.396 11.81-2.156 17.45-2.893 9.264-7.598 17.95-13.72 25.48a78.221 78.221 0 0 1-12.29 12.1M373.7 416.2a29.948 29.948 0 0 1 15.29 2.352c7.511 3.313 13.52 9.871 16.17 17.64" style="paint-order:fill markers stroke"/></g><path d="M163.6 512.6a45.228 45.228 0 0 1 21.62-8.039c9.185-.89 18.38 1.053 27.44 2.772a586.756 586.756 0 0 0 26.75 4.435" stroke-width="3" style="paint-order:fill markers stroke"/></g><path d="M270 513c8.003.576 16.08.156 23.98-1.247 8.354-1.484 16.51-4.063 24.95-4.99 6.832-.751 13.78-.401 20.51.97a68.709 68.709 0 0 1 13.31 4.158M174.5 540.2c10.64-6.38 23.45-9.066 35.76-7.497 6.731.858 13.24 2.931 19.77 4.758s13.23 3.425 20.01 3.294c8.225-.16 16.16-2.843 24.1-4.99 5.149-1.392 10.37-2.569 15.69-3.062 12.31-1.143 24.94 1.506 35.76 7.497" stroke-width="3" style="paint-order:fill markers stroke"/></g><path d="M4 4v279.9c20.02 260 236.1 309.8 246 311.8 9.96-2.002 226.1-51.99 246-311.8V4z" fill="none" stroke-width="8"/></g></svg>