<svg width="500" height="599.8" version="1.0" xml:space="preserve" xmlns="http://www.w3.org/2000/svg"><path d="M4 4v279.9c20.02 260 236.1 309.8 246 311.8 9.96-2.002 226.1-51.99 246-311.8V4z" fill="#1c63b7" stroke="#000" stroke-width="7.998"/><g class="UnoptimicedTransforms" fill-rule="evenodd" stroke="#000" stroke-linecap="round" stroke-linejoin="round" stroke-miterlimit="1000" stroke-width="4"><path transform="translate(.472 .136)" d="M167.3 65.15c-3.5.809-7.034 1.47-10.59 1.982-6.816.98-13.7 1.41-20.58 1.614-3.433.102-6.885.148-10.29-.336-3.401-.484-6.77-1.52-9.625-3.431a17.664 17.664 0 0 1-6.189-7.265 8.567 8.567 0 0 0-2 5.55c.016 1.713.56 3.404 1.45 4.868.89 1.464 2.12 2.707 3.51 3.709 2.267 1.634 4.945 2.632 7.679 3.206 2.735.574 5.538.74 8.33.83 8.419.273 16.86-.127 25.23-1.076a192.966 192.966 0 0 0 17.23-2.747m160.3-6.903c3.5.809 7.034 1.47 10.59 1.982 6.816.98 13.7 1.41 20.58 1.614 3.433.102 6.885.148 10.29-.336 3.401-.484 6.77-1.52 9.625-3.431a17.664 17.664 0 0 0 6.189-7.265 8.567 8.567 0 0 1 2 5.55c-.016 1.713-.56 3.404-1.45 4.868-.89 1.464-2.12 2.707-3.51 3.709-2.267 1.634-4.945 2.632-7.679 3.206-2.735.574-5.538.74-8.33.83-8.419.273-16.86-.127-25.23-1.076a192.966 192.966 0 0 1-17.23-2.747" fill="#f00000" style="paint-order:fill markers stroke"/><path d="M250 286.3V103.9a49.772 49.772 0 0 0-16.142-23.306 15.898 15.898 0 0 0 6.722-4.376 15.889 15.889 0 0 0 3.615-6.722 79.108 79.108 0 0 1-19.054-.287 16.242 16.242 0 0 1 3.7-4.507c2.052-1.737 4.498-2.934 6.727-4.44a28.748 28.748 0 0 0 4.843-4.12 419.487 419.487 0 0 0-11.57-1.272c-3.313-.318-6.63-.596-9.956-.728-3.003-.12-6.011-.12-9.014 0a43.723 43.723 0 0 1 7.265-6.71c2.182-1.6 4.525-3.006 6.458-4.898a17.33 17.33 0 0 0 4.305-6.898 85.009 85.009 0 0 1-22.2 3.035c-5.568.02-11.12-.51-16.68-.808-5.289-.283-10.59-.36-15.88-.227a20.538 20.538 0 0 0-9.608 9.796 143.428 143.428 0 0 0-35.77 2 48.174 48.174 0 0 0 .285 16.077 9.337 9.337 0 0 1 2-5.985c1.612-2.032 4.02-3.304 6.507-4.036 2.964-.873 6.231-1.032 9.092.134 2.7 1.101 4.858 3.29 7.59 4.305 2.646.983 5.6.779 8.294 1.614 3.187.989 5.771 3.357 7.85 5.967.714.897 1.391 1.845 1.78 2.924.193.54.312 1.108.32 1.681.006.573-.1 1.15-.341 1.67-.386.834-1.098 1.484-1.893 1.944s-1.677.748-2.556 1.016c-4.134 1.264-8.371 2.182-12.65 2.825-2.78.419-5.605.721-8.398.404a19.168 19.168 0 0 1-8.657-3.238 7.173 7.173 0 0 0 1.616 4.852c1.364 1.65 3.421 2.607 5.518 3.044 3.62.754 7.36.102 11.04-.286 7.421-.781 14.91-.466 22.36.096 4.893.369 9.778.845 14.65 1.427a83.106 83.106 0 0 1 5.327 10.84c2.59 6.414 4.374 13.18 4.947 20.07.324 3.894.26 7.82-.19 11.7a53.88 53.88 0 0 0 5.137-10.46 53.833 53.833 0 0 0 2.947-12.94 13.58 13.58 0 0 1 3.712 5.708c.731 2.19.89 4.537.756 6.842-.133 2.305-.55 4.582-.946 6.857a390.812 390.812 0 0 0-1.522 9.418 63.833 63.833 0 0 0 10.845-13.413 14.59 14.59 0 0 1 3.805 5.898c1.439 4.217.873 8.818.38 13.25a323.48 323.48 0 0 0-.76 7.68 69.685 69.685 0 0 0-13.32-4.755c-2.057-.507-4.153-.92-6.27-.925-2.119-.005-4.274.42-6.098 1.496-1.867 1.1-3.288 2.815-4.566 4.566a56.131 56.131 0 0 0-3.965 6.265 22.645 22.645 0 0 0-7.534-11.84c-3.694-3.025-8.41-4.832-13.18-4.843-5.622-.013-11.02 2.402-15.61 5.65-4.112 2.91-7.782 6.545-12.38 8.61-2.05.921-4.27 1.51-6.519 1.53-2.248.019-4.525-.554-6.397-1.8-2.252-1.497-3.81-3.902-4.597-6.49-.785-2.588-.841-5.354-.515-8.04.604-4.972 2.532-9.801 5.65-13.72 2.895-3.638 6.776-6.493 9.148-10.49.6-1.012 1.1-2.1 1.334-3.253.234-1.154.191-2.384-.258-3.473-.356-.861-.95-1.605-1.62-2.252-.67-.647-1.417-1.205-2.146-1.784-3.392-2.694-6.4-5.87-9.956-8.341-3.322-2.31-7.262-4.003-11.3-3.767-4.07.238-7.777 2.39-11.03 4.843-4.262 3.213-8.034 7.019-11.84 10.76-4.746 4.67-9.66 9.386-12.65 15.34-2.344 4.67-3.381 9.884-4.036 15.07-1.913 15.15-.755 30.49 0 45.74 1.075 21.72 1.323 43.47 1.614 65.21.238 17.78.503 35.59-.807 53.33a300.917 300.917 0 0 1-4.843 35.91 35.548 35.548 0 0 0 9.655-6.267c6.043-5.503 9.986-12.89 13.7-20.17a804.875 804.875 0 0 0 16.55-34.44 88.52 88.52 0 0 1 2 13.89 88.716 88.716 0 0 1-3.712 31.58c3.602-7.555 7.154-15.13 10.65-22.74 5.334-11.58 10.55-23.22 15.64-34.91zm0 0V103.9a49.772 49.772 0 0 1 16.142-23.306 15.898 15.898 0 0 1-6.722-4.376 15.889 15.889 0 0 1-3.615-6.722 79.108 79.108 0 0 0 19.054-.287 16.242 16.242 0 0 0-3.7-4.507c-2.052-1.737-4.498-2.934-6.727-4.44a28.748 28.748 0 0 1-4.843-4.12c3.851-.478 7.708-.902 11.57-1.272 3.313-.318 6.63-.596 9.956-.728 3.003-.12 6.011-.12 9.014 0a43.723 43.723 0 0 0-7.265-6.71c-2.182-1.6-4.525-3.006-6.458-4.898a17.33 17.33 0 0 1-4.305-6.898 85.009 85.009 0 0 0 22.2 3.035c5.568.02 11.12-.51 16.68-.808 5.289-.283 10.59-.36 15.88-.227a20.538 20.538 0 0 1 9.608 9.796 143.428 143.428 0 0 1 35.77 2 48.174 48.174 0 0 1-.285 16.077 9.337 9.337 0 0 0-2-5.985c-1.612-2.032-4.02-3.304-6.507-4.036-2.964-.873-6.231-1.032-9.092.134-2.7 1.101-4.858 3.29-7.59 4.305-2.646.983-5.6.779-8.294 1.614-3.187.989-5.771 3.357-7.85 5.967-.714.897-1.391 1.845-1.78 2.924a5.175 5.175 0 0 0-.32 1.681c-.006.573.1 1.15.342 1.67.386.834 1.098 1.484 1.893 1.944s1.677.748 2.556 1.016c4.134 1.264 8.37 2.182 12.65 2.825 2.779.419 5.605.721 8.398.404a19.168 19.168 0 0 0 8.657-3.238 7.173 7.173 0 0 1-1.617 4.852c-1.364 1.65-3.421 2.607-5.518 3.044-3.62.754-7.36.102-11.04-.286-7.421-.781-14.91-.466-22.36.096-4.894.369-9.779.845-14.65 1.427a83.106 83.106 0 0 0-5.327 10.84c-2.59 6.414-4.374 13.18-4.947 20.07-.324 3.894-.26 7.82.19 11.7a53.88 53.88 0 0 1-5.137-10.46 53.833 53.833 0 0 1-2.947-12.94 13.58 13.58 0 0 0-3.712 5.708c-.731 2.19-.89 4.537-.756 6.842.133 2.305.55 4.582.946 6.857a390.812 390.812 0 0 1 1.522 9.418 63.833 63.833 0 0 1-10.845-13.413 14.59 14.59 0 0 0-3.805 5.898c-1.439 4.217-.873 8.818-.38 13.25.284 2.557.537 5.118.76 7.68a69.685 69.685 0 0 1 13.32-4.755c2.057-.507 4.153-.92 6.27-.925 2.119-.005 4.274.42 6.098 1.496 1.867 1.1 3.288 2.815 4.566 4.566a56.131 56.131 0 0 1 3.965 6.265 22.645 22.645 0 0 1 7.534-11.84c3.694-3.025 8.41-4.832 13.18-4.843 5.622-.013 11.02 2.402 15.61 5.65 4.112 2.91 7.782 6.545 12.38 8.61 2.05.921 4.27 1.51 6.519 1.53 2.248.019 4.525-.554 6.397-1.8 2.252-1.497 3.81-3.902 4.597-6.49.785-2.588.841-5.354.515-8.04-.604-4.972-2.532-9.801-5.65-13.72-2.895-3.638-6.776-6.493-9.148-10.49-.6-1.012-1.1-2.1-1.334-3.253-.234-1.154-.191-2.384.258-3.473.355-.861.95-1.605 1.62-2.252.67-.647 1.417-1.205 2.146-1.784 3.392-2.694 6.4-5.87 9.956-8.341 3.322-2.31 7.262-4.003 11.3-3.767 4.07.238 7.777 2.39 11.03 4.843 4.262 3.213 8.034 7.019 11.84 10.76 4.746 4.67 9.66 9.386 12.65 15.34 2.344 4.67 3.381 9.884 4.036 15.07 1.913 15.15.755 30.49 0 45.74-1.075 21.72-1.323 43.47-1.614 65.21-.238 17.78-.503 35.59.807 53.33.891 12.05 2.51 24.05 4.843 35.91a35.548 35.548 0 0 1-9.655-6.267c-6.043-5.503-9.986-12.89-13.7-20.17a804.875 804.875 0 0 1-16.55-34.44 88.52 88.52 0 0 0-2 13.89 88.716 88.716 0 0 0 3.712 31.58 1761.463 1761.463 0 0 1-10.65-22.74 1822.489 1822.489 0 0 1-15.64-34.91z" style="paint-order:fill markers stroke" transform="translate(.001 .001)"/><path d="M173.5 53.81c-.089-1.387.24-2.846 1.144-3.901.787-.92 1.924-1.451 3.027-1.951 1.856-.84 3.72-1.664 5.583-2.489 1.143-.506 2.296-1.016 3.519-1.273 1.223-.257 2.538-.247 3.678.264 1.244.557 2.158 1.641 3.027 2.691 1.577 1.905 3.15 3.813 4.641 5.785.602.797 1.194 1.61 1.639 2.503.445.894.74 1.88.715 2.88a5.232 5.232 0 0 1-.654 2.352 6.672 6.672 0 0 1-1.566 1.885c-1.724 1.456-4.008 2.091-6.256 2.287-3.622.316-7.3-.42-10.63-1.883-1.938-.852-3.79-1.968-5.245-3.506-1.455-1.538-2.49-3.53-2.626-5.643zm152.9 0c.089-1.387-.24-2.846-1.144-3.901-.787-.92-1.924-1.451-3.027-1.951-1.856-.84-3.72-1.664-5.583-2.489-1.143-.506-2.296-1.016-3.519-1.273-1.223-.257-2.538-.247-3.678.264-1.244.557-2.158 1.641-3.027 2.691-1.577 1.905-3.15 3.813-4.641 5.785-.602.797-1.194 1.61-1.639 2.503-.445.894-.74 1.88-.715 2.88.021.82.26 1.63.654 2.352a6.672 6.672 0 0 0 1.566 1.885c1.724 1.456 4.008 2.091 6.256 2.287 3.622.316 7.3-.42 10.63-1.883 1.938-.852 3.79-1.968 5.245-3.506 1.455-1.538 2.49-3.53 2.626-5.643z" fill="#fff" style="paint-order:fill markers stroke" transform="translate(.001 .001)"/><path d="M174.6 54.47a17.356 17.356 0 0 0 5.583-.728c2.11-.636 4.076-1.668 6.121-2.489a32.492 32.492 0 0 1 8.793-2.167m130.2 5.384a17.356 17.356 0 0 1-5.583-.727c-2.11-.637-4.076-1.668-6.121-2.49a32.492 32.492 0 0 0-8.793-2.166" fill="#fff" style="paint-order:fill markers stroke" transform="translate(.001 .001)"/><path d="M180.2 53.75a6.925 6.925 0 0 0 3.565 2.738c.805.268 1.665.384 2.508.29.843-.093 1.667-.402 2.336-.924a4.191 4.191 0 0 0 1.548-2.665 4.192 4.192 0 0 0-.72-2.997m130.3 3.559a6.925 6.925 0 0 1-3.565 2.738c-.805.268-1.665.384-2.508.29-.843-.093-1.667-.402-2.336-.924a4.191 4.191 0 0 1-1.548-2.665 4.192 4.192 0 0 1 .72-2.997" style="paint-order:fill markers stroke" transform="translate(.001 .001)"/><path transform="translate(.472 .136)" d="M81.66 211.4c-.53-3.744-.773-7.523-.942-11.3l-1.21-27.04c-.288-6.411-.371-12.84.134-19.24.53-6.72 1.575-13.45 3.9-19.78 2.209-6.004 5.547-11.56 9.553-16.55 2.685-3.343 5.666-6.435 8.61-9.552 1.68-1.778 3.354-3.571 5.238-5.131s3.996-2.889 6.332-3.614c2.668-.828 5.634-.822 8.207.27.532.225 1.049.497 1.49.87.442.373.807.851.98 1.402a2.469 2.469 0 0 1-.078 1.683 2.398 2.398 0 0 1-1.159 1.22c-.599.286-1.286.305-1.95.332-1.486.061-2.988.197-4.39.69-1.492.522-2.82 1.432-4.029 2.45-3.567 3.001-6.184 6.947-9.132 10.56-2.295 2.81-4.816 5.448-6.856 8.45-2.335 3.435-3.996 7.29-5.327 11.23-1.452 4.293-2.53 8.727-2.965 13.24-.469 4.863-.188 9.764-.072 14.65.13 5.455.056 10.92.26 16.37.281 7.563 1.095 15.16.269 22.68a52.45 52.45 0 0 1-4.44 16.07l-2.422-9.957zm335.7 0c.53-3.744.773-7.523.942-11.3l1.21-27.04c.288-6.411.372-12.84-.134-19.24-.53-6.72-1.575-13.45-3.9-19.78-2.209-6.004-5.547-11.56-9.553-16.55-2.685-3.343-5.666-6.435-8.61-9.552-1.68-1.778-3.354-3.571-5.238-5.131s-3.996-2.889-6.332-3.614c-2.668-.828-5.634-.822-8.207.27-.532.225-1.049.497-1.49.87-.442.373-.807.851-.98 1.402a2.469 2.469 0 0 0 .078 1.683c.223.528.642.972 1.159 1.22.599.286 1.286.305 1.95.332 1.486.061 2.988.197 4.39.69 1.492.522 2.82 1.432 4.029 2.45 3.567 3.001 6.184 6.947 9.132 10.56 2.295 2.81 4.816 5.448 6.856 8.45 2.335 3.435 3.996 7.29 5.327 11.23 1.452 4.293 2.53 8.727 2.965 13.24.469 4.863.188 9.764.072 14.65-.13 5.455-.056 10.92-.26 16.37-.281 7.563-1.096 15.16-.269 22.68a52.45 52.45 0 0 0 4.44 16.07l2.422-9.957z" fill="#fff" style="paint-order:fill markers stroke"/><path d="M171.9 69.02c-1.65-2.968-3.982-5.725-7.13-6.996-1.987-.802-4.165-.963-6.3-1.146-1.452-.125-2.916-.266-4.307-.701-1.376-.43-2.647-1.136-3.899-1.853a181.176 181.176 0 0 1-4.654-2.758 29.15 29.15 0 0 1 5.034-1.088c2.721-.34 5.474-.296 8.207-.526 2.089-.175 4.222-.508 6.256 0 2.292.572 4.195 2.15 5.852 3.834 2.277 2.313 4.249 4.903 6.323 7.4 3.247 3.908 6.799 7.668 9.014 12.24a24.717 24.717 0 0 1 1.749 4.842 65.217 65.217 0 0 1-9.35.942c-2.242.063-4.487.01-6.727.134-3.529.195-7.028.825-10.56.924a35.188 35.188 0 0 1-7.803-.655 9.498 9.498 0 0 1 1.951-2.825c1.235-1.233 2.796-2.107 4.44-2.692 2.321-.826 4.797-1.093 7.211-1.584a39.165 39.165 0 0 0 6.982-2.114 27.724 27.724 0 0 0-2.287-5.38zm156.1 0c1.65-2.968 3.982-5.725 7.13-6.996 1.987-.802 4.165-.963 6.3-1.146 1.452-.125 2.916-.266 4.307-.701 1.376-.43 2.647-1.136 3.899-1.853a181.176 181.176 0 0 0 4.654-2.758 29.15 29.15 0 0 0-5.034-1.088c-2.721-.34-5.474-.296-8.207-.526-2.089-.175-4.222-.508-6.256 0-2.292.572-4.195 2.15-5.852 3.834-2.277 2.313-4.249 4.903-6.323 7.4-3.247 3.908-6.799 7.668-9.014 12.24a24.717 24.717 0 0 0-1.749 4.842c3.089.538 6.216.853 9.35.942 2.242.063 4.487.01 6.727.134 3.529.195 7.028.825 10.56.924a35.188 35.188 0 0 0 7.803-.655 9.498 9.498 0 0 0-1.951-2.825c-1.235-1.233-2.796-2.107-4.44-2.692-2.321-.826-4.797-1.093-7.211-1.584a39.165 39.165 0 0 1-6.982-2.114 27.724 27.724 0 0 1 2.287-5.38z" fill="#fff" style="paint-order:fill markers stroke" transform="translate(.001 .001)"/></g><path d="m213.7 427.3 24.29-130.5-100.6 26.95v-77.91l100.6 26.95-31.69-106h87.38l-31.69 106 100.6-26.95v77.91l-100.6-26.95 24.29 130.5" fill="#fcdb00" fill-rule="evenodd" stroke="#000" stroke-linecap="round" stroke-linejoin="round" stroke-miterlimit="1000" stroke-width="4" style="paint-order:fill markers stroke"/><path d="M176.9 566.9a327.7 327.7 0 0 0 73.06 28.85 327.796 327.796 0 0 0 73.06-28.85c22.2-12.02 43-26.62 61.85-43.4a21.53 21.53 0 0 0-5.913-12.41 21.463 21.463 0 0 0-10.27-5.844 21.456 21.456 0 0 0-11.8.517 41.21 41.21 0 0 0-6.849-12.94c-3.253-4.14-7.481-7.735-12.56-9.132-3.705-1.02-7.66-.813-11.42 0a36.675 36.675 0 0 0-13.13 5.708 21.843 21.843 0 0 0 .951-8.4c-.39-4.724-2.395-9.327-5.708-12.72-3.378-3.456-8.106-5.591-12.94-5.707-4.55-.11-9.046 1.537-12.75 4.186a25.78 25.78 0 0 0-9.513 13.13 36.625 36.625 0 0 0-3.805-9.894c-4.214-7.485-11.15-13.39-19.21-16.36-8.06 2.968-15 8.878-19.21 16.36a36.567 36.567 0 0 0-3.805 9.894 25.797 25.797 0 0 0-9.513-13.13c-3.7-2.65-8.198-4.294-12.75-4.186-4.832.115-9.56 2.25-12.94 5.708-3.313 3.39-5.317 7.995-5.708 12.72a21.84 21.84 0 0 0 .952 8.399 36.644 36.644 0 0 0-13.13-5.708c-3.756-.813-7.711-1.02-11.42 0-5.076 1.397-9.304 4.993-12.56 9.132a41.126 41.126 0 0 0-6.85 12.94 21.452 21.452 0 0 0-11.8-.517 21.483 21.483 0 0 0-10.27 5.844 21.51 21.51 0 0 0-5.912 12.41 327.572 327.572 0 0 0 61.85 43.4z" fill="#094" fill-rule="evenodd" stroke="#000" stroke-linecap="round" stroke-linejoin="round" stroke-miterlimit="1000" stroke-width="4" style="paint-order:fill markers stroke"/><g fill="#fff" fill-rule="evenodd" stroke="#000" stroke-linecap="round" stroke-linejoin="round" stroke-miterlimit="1000" stroke-width="3.825"><path transform="translate(-11.439 -20.499) scale(1.046)" d="m250 397.6 9.241 28.85 30.29-.127-24.58 17.7 9.482 28.77-24.43-17.91-24.43 17.91 9.482-28.77-24.58-17.7 30.29.127z" style="paint-order:fill markers stroke"/><path class="UnoptimicedTransforms" transform="translate(-94.079 -91.829) scale(1.046)" d="m250 397.6 9.241 28.85 30.29-.127-24.58 17.7 9.482 28.77-24.43-17.91-24.43 17.91 9.482-28.77-24.58-17.7 30.29.127zm158 0-9.241 28.85-30.29-.127 24.58 17.7-9.482 28.77 24.43-17.91 24.43 17.91-9.482-28.77 24.58-17.7-30.29.127z" style="paint-order:fill markers stroke"/><path class="UnoptimicedTransforms" transform="translate(-94.079 -249.799) scale(1.046)" d="m250 397.6 9.241 28.85 30.29-.127-24.58 17.7 9.482 28.77-24.43-17.91-24.43 17.91 9.482-28.77-24.58-17.7 30.29.127zm158 0-9.241 28.85-30.29-.127 24.58 17.7-9.482 28.77 24.43-17.91 24.43 17.91-9.482-28.77 24.58-17.7-30.29.127z" style="paint-order:fill markers stroke"/></g><path d="M4 4v279.9c20.02 260 236.1 309.8 246 311.8 9.96-2.002 226.1-51.99 246-311.8V4z" fill="none" stroke="#000" stroke-width="8"/></svg>