<svg width="500" height="599.8" version="1.0" xml:space="preserve" xmlns="http://www.w3.org/2000/svg"><path d="M4 4v279.9c20.02 260 236.1 309.8 246 311.8 9.96-2.002 226.1-51.99 246-311.8V4z" fill="#1c63b7" stroke="#000" stroke-width="8"/><path d="M232.9 438.5c-7.488 3.811-14.64 8.236-21.9 12.47-7.832 4.576-16.16 9.05-25.23 9.425-6.919.286-13.74-1.872-19.97-4.891s-12-6.899-18-10.36c-14.89-8.579-31.98-14.65-49.07-12.75-16.12 1.793-31.26 10.98-40.29 24.45 21.94 35.86 52.43 60.6 81.62 86.62 30.42 27.11 71.91 41.38 110 52.19-.001-54.87-.003-109.7-.007-164.6a152.686 152.686 0 0 0-17.14 7.44z" fill="#fff" fill-rule="evenodd" stroke="#000" stroke-linecap="round" stroke-linejoin="round" stroke-miterlimit="1000" stroke-width="4" style="paint-order:fill markers stroke"/><path d="M19.56 277.4V168.6H6.12l58.65-67.28 58.65 67.28h-13.44v108.8" fill="#fff" fill-rule="evenodd" stroke="#000" stroke-miterlimit="1000" stroke-width="4" style="paint-order:fill markers stroke" transform="translate(16)"/><g fill="none" stroke="#000" stroke-miterlimit="1000"><path d="m110 168.7-45.21-51.86-45.21 51.86" stroke-width="4" style="paint-order:fill markers stroke" transform="translate(16)"/><path d="M64.77 103.1V78.22M74.06 89.78H55.49" stroke-width="6" style="paint-order:fill markers stroke" transform="translate(16)"/><path d="m64.77 165.7-.085 22.16" stroke-width="8" style="paint-order:fill markers stroke" transform="translate(16)"/></g><path d="M64.7 229.3a9.321 9.115 0 0 0-9.32 9.115v38.91h18.64v-38.91a9.321 9.115 0 0 0-9.322-9.115z" fill-rule="evenodd" style="paint-order:fill markers stroke" transform="translate(16)"/><path d="M50.89 277.4v-35.62c0-7.289 0-7.736.317-8.55.317-.814.953-1.997 1.977-3.142 1.024-1.145 2.438-2.252 3.823-3.002s2.741-1.143 4.02-1.34c1.277-.196 2.477-.196 3.675-.196s2.398 0 3.676.196 2.634.59 4.02 1.34 2.797 1.858 3.822 3.002c1.024 1.145 1.661 2.329 1.977 3.142.317.813.317 1.261.317 8.55v35.62" fill="none" stroke="#000" stroke-miterlimit="1000" stroke-width="1.932" style="paint-order:fill markers stroke" transform="translate(16)"/><g stroke="#000" stroke-miterlimit="1000" stroke-width="4"><path d="M12.12 341.2c-4.472-21-7.191-42.38-8.121-63.84h248.2v146.2c-11.66-24.51-29.63-45.99-51.71-61.78-8.85-6.331-18.4-11.79-28.69-15.33-10.23-3.526-21.08-5.118-31.9-5.165-22.14-.096-44.13 6.299-63.3 17.36-18.46 10.65-34.42 25.63-46.21 43.39a386.906 386.906 0 0 1-18.28-60.83z" fill="#fff" fill-rule="evenodd" stroke-linejoin="round" style="paint-order:fill markers stroke"/><path d="M5.622 297.5h244.4" fill="#094" fill-rule="evenodd" stroke-linejoin="round" style="paint-order:fill markers stroke"/><g fill="none"><path d="m17.89 364.9 6.218-5.168 22.31 22.5M46.42 382.2l-15.31-15.44 24.37-19.27 12.96 16.28" style="paint-order:fill markers stroke"/><path d="m68.44 363.8-18.47-23.21 32.23-19.06 14.17 27.82M96.36 349.3l-8.735-17.15 28.97-8.993 5.062 19.49M121.7 342.7l-7.87-30.31h46.36l-7.998 29.67" style="paint-order:fill markers stroke"/><path d="m152.1 342 5.287-19.61 31.28 9.445-8.649 17.9M180.1 349.8l12.82-26.53 34.11 20.88-20.73 21.99" style="paint-order:fill markers stroke"/><path d="m206.3 366.1 15.77-16.73 25.98 28.32-16.33 14.54M23.28 277.4v20.17M231.7 277.4v20.17M174.8 277.4v20.17M124.1 277.4v20.17M69.51 277.4v20.17" style="paint-order:fill markers stroke"/></g></g><g stroke="#000" stroke-width="4"><path d="M496 4v279.9c-19.9 259.8-236 309.8-246 311.8V4z" fill="#f00000"/><g stroke-miterlimit="1000"><g fill="#fff" fill-rule="evenodd"><path d="M310.8 429.6v-20.68h-23.42v14.02M317.1 400h-35.97v8.919h35.97zM447.3 429.6v-20.68h-23.42v14.5M453.5 400h-35.97v8.919h35.97zM296.2 386.1v13.82h5.683V386.1zM432.7 386.1v13.82h5.683V386.1z" style="paint-order:fill markers stroke"/><path d="M446.3 364.2v21.95H288.4V364.2z" style="paint-order:fill markers stroke"/><path d="M309.6 340.2H425v24.01H309.6zM446.3 318.2v21.95H288.4V318.2z" style="paint-order:fill markers stroke"/><path d="M309.6 294.2H425v24.01H309.6z" style="paint-order:fill markers stroke"/><path d="M446.3 272.3v21.95H288.4V272.3zM309.6 247H425v25.29H309.6zM309.6 336.1h-6.37v31.17h6.37zM425 336.1h6.37v31.17H425z" style="paint-order:fill markers stroke"/><path d="M309.6 290.1h-6.37v31.17h6.37zM425 290.1h6.37v31.17H425zM309.6 247h-6.37v28.32h6.37zM425 247h6.37v28.32H425zM394.7 386.1v-74.43H343v74.43z" style="paint-order:fill markers stroke"/></g><path d="M383.1 386.1v-63.55h-28.41v63.55z" fill="none" style="paint-order:fill markers stroke"/><g fill="#fff" fill-rule="evenodd"><path d="m291.4 245.3-5.267-5.267 14.48-14.48 5.267 5.267M333.2 212.7l-5.267-5.267 14.48-14.48 5.267 5.267M401.4 212.7l5.267-5.267-14.48-14.48-5.267 5.267M443.2 245.3l5.267-5.267-14.48-14.48-5.267 5.267" style="paint-order:fill markers stroke"/></g><path d="m473.7 266-106.4-83.11L260.9 266v11.37l106.4-83.11 106.4 83.11z" fill="#fff" fill-rule="evenodd" style="paint-order:fill markers stroke"/><path d="m367.3 194.2-67.51 52.73h135l-67.51-52.73" fill="#fff" fill-rule="evenodd" style="paint-order:fill markers stroke"/><g fill="none"><path d="M324.4 227.7h85.77M362.8 197.7v30h8.956v-30M362.8 209h-14.47M386.3 209h-14.47" style="paint-order:fill markers stroke"/></g></g><path d="M250 595.7c47.95-12.42 92.97-36.02 130.5-68.39 29.98-25.88 55.15-57.31 73.85-92.21-8.123-8.016-19.73-12.37-31.12-11.69-12.56.758-24.61 7.702-31.56 18.19-7.673-10.95-20.74-17.92-34.11-18.19-13.95-.287-27.85 6.765-35.86 18.19-4.139-7.504-11.08-13.42-19.14-16.33-9.28-3.344-19.53-2.703-29.22-.889a127.69 127.69 0 0 0-23.31 6.705l.007 164.6z" fill="#094" fill-rule="evenodd" stroke-linecap="round" stroke-linejoin="round" stroke-miterlimit="1000" style="paint-order:fill markers stroke"/><path d="m367.3 40.71 12.14 36.02 38.01.414-30.51 22.68 11.35 36.28-30.99-22.01-30.99 22.01 11.35-36.28-30.51-22.68 38.01-.414z" fill="#fcdb00" fill-rule="evenodd" stroke-miterlimit="1000" style="paint-order:fill markers stroke"/></g><path d="M4 4v279.9c20.02 260 236.1 309.8 246 311.8 9.96-2.002 226.1-51.99 246-311.8V4z" fill="none" stroke="#000" stroke-width="8"/></svg>