<svg xmlns="http://www.w3.org/2000/svg" width="500" height="600" version="1.0"><defs><clipPath id="id0"><path d="M14200000 5150000s192520 531420 470000 807850c276950 276430 478730 433880 662120 497520 183380 63600 243430 71380 468350 106740 224910 35370 538010 235520 538010 235520s-93220-443930-285140-653670c-191920-210000-342300-390000-783210-603570-440870-213570-539180-210000-748800-250000-210000-39660-320850-140000-320850-140000z"/></clipPath><clipPath id="id1"><path d="M14200000 5150000s192520 531420 470000 807850c276950 276430 478730 433880 662120 497520 183380 63600 243430 71380 468350 106740 224910 35370 538010 235520 538010 235520s-93220-443930-285140-653670c-191920-210000-342300-390000-783210-603570-440870-213570-539180-210000-748800-250000-210000-39660-320850-140000-320850-140000z"/></clipPath><clipPath id="id2"><path d="M17900000 7710000c168520 651560 60740 1650000-524010 2080000-361860 267500-703730 314770-1000000 391560-300000 76830-496090 173470-496090 173470s-54450-75370-20210-332640c34250-257270 476240-795050 890000-1200000 413430-405860 836590-748460 955830-881240 119200-132780 199070-230000 199070-230000z"/></clipPath><clipPath id="id3"><path d="M17900000 7710000c168520 651560 60740 1650000-524010 2080000-361860 267500-703730 314770-1000000 391560-300000 76830-496090 173470-496090 173470s-54450-75370-20210-332640c34250-257270 476240-795050 890000-1200000 413430-405860 836590-748460 955830-881240 119200-132780 199070-230000 199070-230000z"/></clipPath><clipPath id="id4"><path d="M13600000 896020s-73750 109400-60270 321510c13530 212190-380 450000-126300 653580-125920 203430-215530 317730-431820 471310-216340 153580-349200 298600-349200 298600s14650-73730-13140-307410c-27780-233680 38260-565710 187390-810950 149100-245230 300000-352700 451900-460000 151460-107550 341440-166420 341440-166420z"/></clipPath><style>.str1{stroke:#2b2828;stroke-width:5}.str0{stroke:#454646;stroke-width:50}.fil5{fill:#95979a}.fil2{fill:#131516;fill-opacity:.568627}.fil6{fill:url(#id0)}.fil4{fill:url(#id1)}.fil1{fill:url(#id2)}.fil3{fill:url(#id3)}.fil0{fill:url(#id4)}</style></defs><path fill="#1c63b7" d="M4 4v280c20 260 236 310 246 312 10-2 226-52 246-312V4z"/><path fill="#094" stroke="#000" stroke-linejoin="round" stroke-width="4" d="M353 549c-31.1 21.4-66 37.4-103 47-36.5-9.59-71.4-25.6-103-47-23.2-16-44.3-34.9-62.7-56.3 5.16-11.5 12.6-22 21.9-30.6 9.82-9.17 22.1-16.4 35.5-17.2 13.9-.823 27.3 5.29 38.7 13.3 20.1 14.1 35.6 34.6 43.8 57.8-2.72-7.71-6.24-15.1-10.5-22.1-3.53-5.83-7.56-11.3-12-16.5a58.702 58.702 0 0 1-2.67-26c1.06-8.57 4.05-16.9 8.88-24.1s11.5-13.1 19.3-16.8c13.7-6.6 30.5-5.91 44.2.829 14 6.9 24.9 20.1 28.4 35.4 2.39 10.3 1.45 21.3-2.64 31.1-3.73 4.32-7.14 8.9-10.2 13.7-4.92 7.69-8.95 15.9-12 24.6 8.14-23.2 23.7-43.7 43.8-57.8 11.4-7.99 24.8-14.1 38.7-13.3 13.4.796 25.7 8.02 35.5 17.2 9.22 8.61 16.7 19.1 21.9 30.6-18.4 21.3-39.5 40.3-62.7 56.3z"/><path fill="#fff" stroke="#000" stroke-linecap="round" stroke-linejoin="round" stroke-width="4" d="M218 102a7.05 7.05 0 0 0 3.95.307c2.14-.454 3.96-1.88 5.47-3.47 2.22-2.33 3.99-5.1 5.16-8.1"/><path fill="#fff" stroke="#000" stroke-width="4" d="M217 68.2a40.84 40.84 0 0 1-19.79-4.932c-2.1-1.14-4.14-2.5-5.56-4.42-.42-.569-.784-1.19-1.28-1.69a4.405 4.405 0 0 0-2.28-1.24c-.156.934-.214 1.88-.173 2.83.054 1.23.274 2.44.587 3.63.493 1.86 1.22 3.68 2.27 5.29 1.05 1.62 2.43 3.04 4.08 4.03 2.3 1.38 5.03 1.87 7.7 2.11 1.96.17 3.93.213 5.9.242 1.9.028 3.8.042 5.71.043"/><g stroke="#000" stroke-linecap="round" stroke-linejoin="round" stroke-width="4"><path fill="#fff" d="M276 46.1c3.38-2.94 7.32-5.24 11.6-6.72 2.18-.766 4.51-1.32 6.8-1.04 2.15.269 4.16 1.26 5.97 2.45a28.936 28.936 0 0 1 4.85 3.99c-1.15-1.17-2.4-2.25-3.73-3.21 1.98-1.17 4.1-2.1 6.3-2.76 1.91-.567 3.9-.928 5.89-.888 1.99.04 4 .493 5.73 1.47 1.97 1.11 3.52 2.86 4.79 4.74a26.671 26.671 0 0 1 1.625 2.76 27.27 27.27 0 0 0-1.62-2.75c1.5-.871 3.14-1.5 4.83-1.86 3.44-.723 7.2-.257 10.2 1.66 2.22 1.44 3.89 3.62 5.03 6.01a19.572 19.572 0 0 1 .365.81c1.84-.797 3.9-1.09 5.89-.85 2.68.329 5.16 1.6 7.42 3.08 1.86 1.21 3.67 2.62 4.79 4.54.591 1.01.97 2.14 1.27 3.27a26.41 26.41 0 0 1 .639 3.224 5.414 5.414 0 0 1 3.27-.006c1.7.541 3.03 1.89 4.1 3.32 1.21 1.61 2.22 3.43 2.49 5.42a8.01 8.01 0 0 1-.503 4.03c1.35.703 2.54 1.7 3.48 2.9 1.14 1.46 1.88 3.2 2.27 5a14.7 14.7 0 0 1 .242 4.75 6.543 6.543 0 0 1 3.37.77c1.07.574 1.97 1.45 2.66 2.45s1.19 2.13 1.55 3.29c1.12 3.54 1.07 7.39.138 11a23.642 23.642 0 0 1-2.69 6.35 8.025 8.025 0 0 1 4.97 1.31c1.97 1.31 3.27 3.46 3.94 5.73.918 3.14.697 6.56-.345 9.67a19.32 19.32 0 0 1-4.76 7.6 8.814 8.814 0 0 1 4.21 2.9c1.52 1.91 2.18 4.4 2.21 6.84.04 3.46-1.12 6.86-2.83 9.87a28.775 28.775 0 0 1-2.14 3.25c.973 1.29 1.68 2.78 2.07 4.35.396 1.59.46 3.27.133 4.88s-1.05 3.14-2.14 4.37a8.943 8.943 0 0 1-3.45 2.42c.305 1.38.352 2.82.138 4.21-.32 2.09-1.25 4.11-2.76 5.59a8.698 8.698 0 0 1-5.18 2.42 10.27 10.27 0 0 1-.276 4.7c-.61 2.03-1.87 3.87-3.59 5.11a9.39 9.39 0 0 1-4.01 1.66c.117.332.187.682.207 1.04.051.885-.212 1.77-.621 2.55-.817 1.57-2.21 2.8-3.8 3.59-1.89.938-4.06 1.28-6.15.966 1.31-2.5 2.65-4.99 4.01-7.46 4.61-8.38 9.53-16.7 12.7-25.7 4.5-12.8 5.33-26.7 3.04-40.1-1.87-10.9-5.82-21.4-11.9-30.6-3.14-4.69-6.85-9.02-11.2-12.6-9.03-7.52-20.4-11.6-31.9-14.2-5.93-1.31-12-2.23-18.1-1.71-6.15.531-12.2 2.58-17.4 5.9"/><path fill="none" d="M296 56.8c1.2-.748 2.54-1.26 3.93-1.48 1.83-.3 3.77-.103 5.42.732 2.22 1.12 3.73 3.24 5.22 5.22.735.975 1.49 1.94 2.05 3.03a9.622 9.622 0 0 1 1.07 4.25 9.152 9.152 0 0 0-.206-1.8c-.228-1.05-.642-2.06-1.17-3-.639-1.12-1.44-2.14-2.25-3.15-.607-.757-1.22-1.51-1.83-2.26 1.5-1.21 3.14-2.25 4.88-3.07 3.54-1.67 7.62-2.45 11.4-1.51 3.14.774 5.91 2.66 8.3 4.83 4.24 3.85 7.53 8.73 9.53 14.1-.65-1.74-1.43-3.44-2.35-5.06a37.891 37.891 0 0 0-1.93-3.07c1.74-1.23 3.72-2.12 5.79-2.61 2.8-.666 5.79-.596 8.49.38 3.62 1.31 6.56 4.19 8.36 7.6 1.04 1.98 1.74 4.14 2.04 6.35 2.24-.749 4.63-1.03 6.97-.829 1.64.142 3.27.526 4.73 1.28 2.35 1.22 4.15 3.38 5.15 5.83.878 2.15 1.17 4.53.841 6.83a13.16 13.16 0 0 1-1.81 4.99"/><path fill="#fff" d="M357 91c3.69 2.94 7.01 6.36 9.84 10.1a5.195 5.195 0 0 1-.554 3.53c.726 1.96 1.04 4.07.928 6.15-.139 2.5-.949 5.04-2.69 6.84a8.104 8.104 0 0 1-2.98 1.95c.678 1.95.978 4.04.879 6.1-.064 1.32-.291 2.64-.777 3.87-.486 1.23-1.24 2.36-2.25 3.21a6.874 6.874 0 0 1-4.2 1.59c.01 1.69-.272 3.38-.829 4.97-.912 2.61-2.63 5-5.04 6.35a9.3 9.3 0 0 1-4.07 1.17c.018 1.68-.339 3.37-1.04 4.9-1.04 2.29-2.9 4.26-5.25 5.18-1.55.61-3.27.756-4.9.414a7.33 7.33 0 0 1-1.66 3.87c-1.47 1.75-3.73 2.73-6.01 2.9-1.37.104-2.76-.064-4.07-.492a4.644 4.644 0 0 1-1.37 2.54c-.663.63-1.5 1.05-2.38 1.31-.875.263-1.79.375-2.7.443-1.82.136-3.65.103-5.47-.098a7.57 7.57 0 0 1-5.27 1.37 7.592 7.592 0 0 1-4.79-2.54c2.93-.937 5.8-2.05 8.59-3.32 7.25-3.3 14-7.73 19.8-13.2 6.55-6.14 11.9-13.6 15.7-21.7 3.51-7.37 5.84-15.4 6.05-23.5.102-3.86-.276-7.76-1.46-11.4a27.018 27.018 0 0 0-6.86-11c5.32 2.04 10.3 4.9 14.8 8.44z"/></g><g fill="#fff" stroke="#000" stroke-linecap="round" stroke-linejoin="round" stroke-width="4"><path d="M276 305a59.998 59.998 0 0 1-8.11 5.47c-4 2.25-8.24 4.04-12.4 5.96-3.74 1.72-7.43 3.56-11.3 4.88a46.78 46.78 0 0 1-10.4 2.25 5.695 5.695 0 0 1-.977 2.64c-.539.778-1.26 1.41-1.95 2.05-2.7 2.52-5.01 5.43-6.98 8.54-1.4 2.21-2.64 4.59-3.03 7.18-.291 1.95-.081 3.94.098 5.91.134 1.47.25 2.95.586 4.39.663 2.86 2.15 5.45 3.03 8.25.536 1.72.836 3.52.887 5.32a8.865 8.865 0 0 1-1.83 1.9c-1.45 1.11-3.21 1.72-4.83 2.55-1.95.996-3.72 2.31-5.39 3.73-.726.621-1.44 1.27-1.97 2.07-.342.518-.6 1.09-.76 1.69a56.123 56.123 0 0 0-13.1 10.2c-2.96 3.09-5.56 6.51-7.95 10.1-2.11 3.14-4.05 6.39-5.94 9.67-1.79 3.12-3.55 6.33-4.23 9.87-.374 1.96-.405 3.98-.928 5.91-.26.953-.637 1.87-1.12 2.73a6.416 6.416 0 0 1-.977-.684c-1.13-.958-1.89-2.27-2.69-3.52a49.766 49.766 0 0 0-2.05-2.98 16.73 16.73 0 0 1-1.42 3.61c-.99 1.86-2.32 3.53-3.81 5.03-1.09 1.1-2.32 2.14-3.81 2.54-.714.19-1.47.224-2.2.098.199.712.249 1.47.146 2.2-.172 1.22-.771 2.37-1.61 3.27a7.029 7.029 0 0 1-2.59 1.76c-.085 1.2-.331 2.38-.732 3.52a13.119 13.119 0 0 1-1.62 3.15 45.362 45.362 0 0 0-6.09-.827 44.207 44.207 0 0 0-8.46.239c-2.41.303-4.8.81-7.13 1.52.564-3.46 2.11-6.76 4.42-9.4 1.74-1.99 3.86-3.59 5.8-5.39 1.77-1.64 3.38-3.44 5.25-4.97 1.84-1.51 3.89-2.73 5.8-4.14 3.68-2.73 6.81-6.17 10.6-8.7 2.57-1.7 5.43-2.97 8.42-3.73a6.797 6.797 0 0 1 .276-3.11c.463-1.39 1.36-2.58 2.23-3.76 2.21-2.99 4.35-6.04 6.35-9.18 3.26-5.11 6.16-10.4 9.28-15.6 1.27-2.13 2.59-4.24 3.52-6.54 1.2-2.98 1.72-6.18 2.05-9.38.588-5.71.588-11.5 0-17.2a22.076 22.076 0 0 1-5.37-4.2 22.005 22.005 0 0 1-4.3-6.74c-.975-5.4-1.27-10.9-.88-16.4.3-4.19 1-8.36 2.15-12.4 1.5-5.3 3.86-10.5 7.81-14.4 2.46-2.39 5.46-4.16 8.59-5.57 6.12-2.75 12.7-4.13 19.2-5.76 5.51-1.38 11-2.96 16.1-5.47 1.64-.808 3.24-1.71 4.69-2.83 2-1.54 3.71-3.52 4.64-5.86.979-2.46 1.05-5.26.196-7.76" opacity=".99"/><path d="M188 141a30.732 30.732 0 0 1-8.61-4.89 31.242 31.242 0 0 1-5.66-5.94c-1.94-2.65-3.46-5.58-5.11-8.42-1.91-3.28-4.1-6.56-7.32-8.56-3.3-2.05-7.31-2.53-11.2-2.76a108.15 108.15 0 0 0-9.53-.138 46.446 46.446 0 0 1-4.63 4.35c-3.5 2.87-7.39 5.22-11.3 7.46-4.73 2.69-9.55 5.22-14.2 8.01-4.32 2.58-8.53 5.38-12.4 8.56-1.62 1.32-3.19 2.7-4.7 4.14-.022 1.02.094 2.05.345 3.04.17.671.401 1.33.552 2a8.69 8.69 0 0 1 .207 2.14c-.66.924-1.44 1.76-2.31 2.49-1.28 1.06-2.77 1.89-3.83 3.18a6.647 6.647 0 0 0-1.48 4.73 9.086 9.086 0 0 0-2.51 1.43c-1.02.829-1.85 1.87-2.64 2.93-2.29 3.09-4.32 6.43-5.47 10.1a23.769 23.769 0 0 0-.928 4.44c2.9-.719 5.78-1.52 8.64-2.39 3.62-1.11 7.32-2.42 10.1-5.03 1.44-1.38 2.57-3.08 3.32-4.93.991-2.43 1.35-5.11 1.03-7.71a8.245 8.245 0 0 1 1.44-2.53c.912-1.1 2.09-1.94 3.29-2.71 1.2-.773 2.44-1.49 3.55-2.4 2.4-1.97 4.08-4.81 4.63-7.87a11.118 11.118 0 0 0 3.38 7.74c.944-1.69 1.82-3.42 2.62-5.18.859-1.88 1.65-3.82 1.93-5.87.105-.742.143-1.49.258-2.23.115-.74.313-1.48.708-2.12.546-.879 1.42-1.49 2.28-2.07 3.09-2.09 6.27-4.04 9.39-6.08 2.22-1.45 4.5-2.97 7.11-3.38 1.8-.282 3.64-.009 5.46.207 1.6.191 3.2.338 4.77.688s3.11.915 4.41 1.87c1.99 1.46 3.24 3.7 4.28 5.94 1.5 3.21 2.69 6.56 3.73 9.94 1.19 3.9 2.19 7.91 4.07 11.5 1.73 3.33 4.15 6.23 6.63 9.05 2.24 2.54 4.54 5.03 6.91 7.46"/><path d="M335 100c-3.65.783-7.49.666-11.1-.337-4.03-1.12-7.68-3.32-11-5.8-3.44-2.54-6.71-5.44-10.7-6.97-4.04-1.56-8.66-1.56-12.7 0 1.92-.41 3.76-1.19 5.39-2.28a16.06 16.06 0 0 0 2.49-2.07 8.64 8.64 0 0 0-4.91-1.863 37.27 37.27 0 0 0 3.18-1.31 35.55 35.55 0 0 0 4.35-2.42 30.675 30.675 0 0 0-3.52-1.24c-2.02-.58-4.11-.964-6.01-1.86a11.894 11.894 0 0 1-3.66-2.69c1.54-.129 3.06-.503 4.49-1.1 1.87-.79 3.58-1.97 4.97-3.45-.87-.34-1.77-.595-2.69-.76-1.47-.263-2.98-.298-4.42-.691a9.247 9.247 0 0 1-4.63-2.97 6.898 6.898 0 0 1 1.93-1.17c1.47-.592 3.1-.663 4.63-1.1a9.919 9.919 0 0 0 5.11-3.52 7.23 7.23 0 0 0-1.73-.967c-1.89-.742-3.98-.667-6.01-.691a55.984 55.984 0 0 1-5.59-.345 35.3 35.3 0 0 0 3.94-2.35c2.16-1.48 4.15-3.2 5.94-5.11-1.74-.843-3.6-1.43-5.51-1.74a20 20 0 0 0-11.7 1.66c.704-.73 1.45-1.42 2.25-2.05.938-.752 1.94-1.44 2.73-2.34.534-.606.965-1.3 1.27-2.05a37.222 37.222 0 0 0-5.86 0c-3.63.288-7.2 1.11-10.7 2.15-3.97 1.18-7.84 2.64-11.8 3.96-1.75.587-3.51 1.15-5.32 1.52-4.16.857-8.46.702-12.7.76-3.98.054-7.97.3-11.9 0-1.6-.121-3.25-.323-4.76.207-.448.157-.877.378-1.23.69-.358.312-.641.717-.768 1.17-.11.399-.097.831.038 1.22a2.089 2.089 0 0 0 .234.472 2.087 2.087 0 0 1-.345-1.11 49.394 49.394 0 0 0-4.69-.896c-1.02-.145-2.05-.258-3.08-.216-1.03.042-2.07.243-2.99.7-1.27.629-2.28 1.71-3 2.93-.992 1.67-1.5 3.62-1.45 5.56 1.36.215 2.72.434 4.07.656 2.45.401 4.91.818 7.25 1.66.722.26 1.44.561 2.08.983.642.421 1.21.969 1.58 1.64.44.803.575 1.74.552 2.66-.055 2.27-1.04 4.47-2.55 6.15-1.1 1.22-2.49 2.18-4.04 2.73a9.07 9.07 0 0 1-3.69.483 7.945 7.945 0 0 0-.173 2.45c.143 1.66.838 3.29 2 4.49.83.854 1.88 1.48 3 1.89 1.12.412 2.3.617 3.49.698 2.13.146 4.28-.101 6.32-.725a18.359 18.359 0 0 1-.656 3.49c-.638 2.19-1.68 4.24-2.69 6.28-.993 2-1.99 4.04-3.52 5.66a11.071 11.071 0 0 1-5.94 3.25c1.9.411 3.9.296 5.74-.331 2.31-.789 4.31-2.37 5.81-4.3 1.04-1.34 1.86-2.86 3.08-4.05 1.13-1.11 2.56-1.88 3.66-3.03.39-.406.733-.854 1.12-1.27s.813-.794 1.33-1.03a3.592 3.592 0 0 1 1.37-.298c.47-.016.943.035 1.41.103 4.37.632 8.4 2.67 12.2 4.98 1.51.926 2.99 1.9 4.49 2.83 2.03 1.25 4.13 2.44 6.45 3.03 1.58.398 3.23.505 4.83.244 1.32-.216 2.61-.682 3.76-1.37a9.995 9.995 0 0 1-3.76 1.37c-2.57.375-5.19-.279-7.6-1.24a30.574 30.574 0 0 1-8.17-4.86 44.466 44.466 0 0 1-1.46 5.42c-.586 1.72-1.29 3.42-2.29 4.93-1.43 2.14-3.43 3.84-5.47 5.42-5.89 4.57-12.5 8.48-19.8 9.86-2.88.544-5.86.692-8.64 1.61-1.7.561-3.31 1.41-4.74 2.49 3.7-.598 7.63.357 10.6 2.59.742.549 1.43 1.17 2.05 1.86-6.86.01-13.7 2.04-19.5 5.77-3.67 2.37-6.88 5.41-9.67 8.77a52.972 52.972 0 0 0-4.97 7.11 21.642 21.642 0 0 1 9.8-2.551 27.26 27.26 0 0 0-5.8 6.77c-2.88 4.75-4.24 10.3-5.11 15.7-.744 4.68-1.16 9.42-1.24 14.2.974.797 2.2 1.29 3.45 1.38 1.53.115 3.12-.377 4.25-1.41 1.22-1.11 1.84-2.71 2.83-4.02.884-1.18 2.05-2.12 3.27-2.96 2.26-1.56 4.75-2.83 7.4-3.55 1.31-.354 2.65-.574 4.01-.656-1.36-.049-2.73.176-4.01.656-1.31.494-2.51 1.25-3.76 1.86-1 .49-2.04.893-3.04 1.38-1 .488-1.97 1.07-2.76 1.86-1.28 1.3-1.96 3.07-3.08 4.5a7.095 7.095 0 0 1-1.67 1.57c-.642.42-1.38.712-2.14.798-.834.093-1.68-.06-2.47-.338-.792-.277-1.54-.673-2.27-1.08-1.93-1.07-3.83-2.21-5.87-3.04-2.4-.979-4.97-1.53-7.25-2.76-2.41-1.31-4.35-3.31-6.63-4.83-1.71-1.14-3.59-2-5.52-2.69-1.05-.377-2.13-.71-3.11-1.24-.99-.538-1.87-1.27-2.9-1.73-1.13-.498-2.4-.633-3.63-.544-1.23.09-2.44.396-3.62.751-1.57.471-3.14 1.05-4.42 2.07-1.04.83-1.83 1.92-2.49 3.07s-1.2 2.37-1.79 3.56c-2.08 4.17-4.86 7.95-7.66 11.7-2.46 3.26-4.99 6.53-8.15 9.12-2.4 1.97-5.15 3.52-7.39 5.66-.99.947-1.88 2.02-2.49 3.25-.973 1.98-1.15 4.24-1.45 6.42-.444 3.19-1.2 6.33-1.52 9.53-.227 2.28-.233 4.57-.552 6.84-.421 2.98-1.38 5.86-2.14 8.77-.807 3.09-1.4 6.23-1.8 9.39a80.176 80.176 0 0 0-.621 8.77 36.24 36.24 0 0 0 7.77-4.66c2.86-2.25 5.38-4.93 7.53-7.87.778-1.07 1.53-2.22 1.72-3.53a4.86 4.86 0 0 0-.342-2.59c-.225-.532-.538-1.02-.804-1.53-.266-.512-.49-1.06-.514-1.64-.012-.293.027-.586.049-.879.104-1.42-.217-2.84-.635-4.2a30.023 30.023 0 0 0-.928-2.59c.485-.83.94-1.68 1.37-2.54.966-1.95 1.78-3.98 2.44-6.05.374-1.17.7-2.36.928-3.56.26-1.38.392-2.79.39-4.2.61.659 1.23 1.31 1.86 1.95a87.04 87.04 0 0 0 5.32 5.03c.147-1.53.277-3.06.392-4.59.183-2.46.325-4.93.635-7.37.147-1.16.342-2.35.928-3.37.735-1.28 2.02-2.16 2.78-3.42.839-1.38.988-3.08 1.76-4.49.649-1.19 1.7-2.11 2.54-3.17 1.3-1.65 2.12-3.65 3.52-5.22a9.304 9.304 0 0 1 4.45-2.73 9.176 9.176 0 0 1 2.59-.311c2.47.06 4.79 1.13 7.15 1.9.953.312 1.92.577 2.9.794.576.92 1.15 1.84 1.73 2.76 1.38 2.21 2.76 4.42 4.42 6.42 3.34 4.01 7.81 7.09 12.8 8.7 2.01.654 4.1 1.07 6.21 1.24 1.54 1.57 3.08 3.13 4.63 4.7 2.54 2.57 5.09 5.15 7.24 8.06 1.22 1.65 2.33 3.43 3.88 4.78 1.61 1.41 3.66 2.31 5.79 2.49 3.18.263 6.26-1.05 9.18-2.34 2.54-1.12 5.08-2.26 7.61-3.39-2.54 1.13-5.07 2.26-7.61 3.39-1.83.813-3.67 1.63-5.62 2.05-1.69.366-3.46.427-5.14.024a9.727 9.727 0 0 1-4.21-2.22c-.652 4.23.646 8.72 3.45 11.9 1.78 2.04 4.09 3.57 6.54 4.73 2.45 1.16 5.04 1.98 7.62 2.8 7.79 2.47 15.6 4.96 23.2 7.94 5.28 2.07 10.5 4.42 15 7.94 3.32 2.63 6.15 5.91 8.01 9.72 1.15 2.35 1.91 4.86 2.78 7.32.79 2.23 1.68 4.44 2.95 6.43 1.06 1.67 2.37 3.18 3.88 4.46a32.689 32.689 0 0 1-2.29-2.49c-1.39-1.67-2.65-3.49-4.39-4.79-1.64-1.21-3.61-1.88-5.57-2.44a69.951 69.951 0 0 0-4.64-1.17c.452 2.15 1.41 4.19 2.78 5.91 1.59 2 3.7 3.53 5.42 5.42 1.33 1.47 2.42 3.14 3.71 4.64 2.17 2.53 4.91 4.56 7.96 5.91 1.77.78 3.64 1.33 5.56 1.63a83.379 83.379 0 0 1-.312-4.64c-.102-2.58-.086-5.16-.22-7.74a65.13 65.13 0 0 0-1.62-11.5c-1.19-5.11-3.04-10.1-5.92-14.5a35.35 35.35 0 0 0-4.9-5.94c1.86 1.78 3.51 3.77 4.9 5.94 1.93 3 3.35 6.29 4.49 9.67 1.35 3.99 2.32 8.11 2.76 12.3.526 5 .288 10 .692 15.1.193 2.4.533 4.79.77 7.18.429 4.34.53 8.76 1.85 12.9 1.17 3.68 3.28 7.02 5.8 9.94 4.12 4.77 9.31 8.46 14.5 12 6.49 4.43 13.1 8.71 19.9 12.6 2.53 1.47 5.1 2.89 7.46 4.63 1.31.964 2.57 2.05 3.38 3.45.76 1.3 1.1 2.8 1.38 4.28.583 3.04.984 6.11 1.31 9.18.44 4.14.75 8.29 1.24 12.4.456 3.82 1.07 7.63 1.45 11.5.204 2.04.342 4.09.414 6.15-.411.322-.804.668-1.17 1.04-1.06 1.05-1.93 2.28-2.62 3.59-.564 1.07-1.02 2.2-1.73 3.18-.548.754-1.23 1.39-1.88 2.06-.65.667-1.28 1.38-1.67 2.23-.57 1.23-.591 2.65-.488 4 .135 1.77.463 3.52.78 5.27.224 1.22.442 2.45.733 3.66.15.623.32 1.24.38 1.88.06.638.003 1.3-.282 1.88-.325.655-.91 1.13-1.42 1.66-1.02 1.07-1.75 2.38-2.49 3.66-1.11 1.91-2.27 3.79-3.37 5.71-1.01 1.76-1.96 3.56-2.64 5.47-1.3 3.66-1.53 7.7-.661 11.5 3.02-2.34 6.2-4.49 9.51-6.41 3.97-2.31 8.13-4.31 12.4-5.96a4.6 4.6 0 0 1 .062-2.29 4.678 4.678 0 0 1 2.54-2.93c.213-.846.328-1.72.342-2.59.035-2.21-.574-4.38-.586-6.59-.004-.737.057-1.49-.146-2.2a3.064 3.064 0 0 0-.888-1.42 3.057 3.057 0 0 0 .354.373 10.25 10.25 0 0 1 2.88-3.64c.523-.415 1.09-.777 1.61-1.19.527-.41 1.02-.876 1.37-1.45.336-.561.514-1.21.586-1.86.206-1.86-.417-3.69-.781-5.52-.122-.612-.216-1.23-.181-1.86.035-.623.205-1.25.57-1.76.392-.54.985-.91 1.61-1.14.629-.226 1.29-.318 1.96-.391 2.04-.227 4.09-.291 6.15-.38 1.34-.058 2.67-.127 4.01-.207a5.323 5.323 0 0 0-1.1-1.59c-.774-.758-1.78-1.26-2.83-1.52-1.23-.306-2.52-.303-3.73-.691-1.24-.398-2.32-1.2-3.14-2.21-.926-1.14-1.51-2.53-1.93-3.94-.992-3.32-1.14-6.83-1-10.3.155-3.85.65-7.68 1.21-11.5.559-3.81 1.18-7.62 1.52-11.5.275-3.09.367-6.19.277-9.29.832-.755 1.65-1.53 2.45-2.31.943-.925 1.88-1.9 2.42-3.11.518-1.17.614-2.52.31-3.76a6.188 6.188 0 0 0-1.66-2.93 6.647 6.647 0 0 1-2.04-.173c-1.35-.33-2.56-1.08-3.73-1.83-2.49-1.61-4.93-3.31-7.39-4.97-3.42-2.31-6.91-4.56-9.81-7.49-3.44-3.49-5.96-7.99-6.63-12.8-.27-1.96-.24-3.96-.206-5.94.076-4.51.162-9.08-.898-13.5-.648-2.68-1.71-5.24-2.9-7.73a81.547 81.547 0 0 0-6.06-10.6c2.52.567 5.09.878 7.67.928 5.93.114 12-1.23 16.9-4.59 2.81-1.93 5.2-4.53 6.64-7.62 1.9-4.07 2.04-8.91.39-13.1a24.124 24.124 0 0 1-2.83 5.18c-2.12 2.94-4.96 5.41-8.3 6.84-4.91 2.09-10.7 1.77-15.5-.488a21.152 21.152 0 0 1-5.37-3.61c.322-1.6.453-3.25.392-4.88-.107-2.85-.8-5.65-1.86-8.3-2.61-6.54-7.33-12-11.8-17.4-2.1-2.54-4.18-5.12-6.54-7.42-2.24-2.18-4.73-4.1-7.32-5.86-2.6-1.76-5.36-3.41-7.32-5.86-1.84-2.29-2.86-5.13-3.81-7.91-.942-2.76-1.85-5.52-2.73-8.3.897.494 1.87.842 2.88 1.03a9.573 9.573 0 0 0 6.93-1.42 22.365 22.365 0 0 0-1.42-4.15c-.623-1.37-1.38-2.69-1.9-4.1-1.07-2.91-1.08-6.08-1.07-9.18.002-5.53-.02-11.1.183-16.6.092-2.51.23-5.02.414-7.53.854-.808 1.65-1.68 2.38-2.6 1.16-1.46 2.16-3.08 2.64-4.88.378-1.43.412-2.95.097-4.39a57.6 57.6 0 0 0 7.42-7.23c4.25-4.95 7.69-10.7 9.08-17.1.705-3.23.871-6.58.488-9.86a32.292 32.292 0 0 1-4.98-1.44 31.413 31.413 0 0 1-5.67-2.85c3.24 2.07 6.87 3.53 10.6 4.3 3.66.74 7.45.82 11.1.195 4.01-.68 7.82-2.17 11.6-3.61 2.77-1.05 5.57-2.08 8.11-3.61 1.67-1.01 3.22-2.22 4.59-3.61"/></g><g fill="none" stroke="#000" stroke-linecap="round" stroke-width="2"><path d="M239 311c3.47-1.82 7.04-3.44 10.7-4.83 3.63-1.38 7.37-2.57 10.7-4.56 2.34-1.4 4.45-3.18 6.21-5.25"/><path stroke-linejoin="round" d="M213 142a4.24 4.24 0 0 1-1.97 3.24c-.648.398-1.39.61-2.13.776-.742.166-1.5.292-2.22.536-2 .679-3.58 2.22-4.97 3.8a46.573 46.573 0 0 0-5.66 7.94c.874-1.19 2.02-2.17 3.31-2.87 1.92-1.03 4.14-1.39 6.32-1.45 1.91-.05 3.83.123 5.7.518M236 125c1.04-.659 2.08-1.31 3.12-1.95 1.07-.659 2.17-1.33 2.98-2.29a5.599 5.599 0 0 0 1.07-2"/><path d="M286 131a18.08 18.08 0 0 1 1.899 8.34"/><path stroke-linejoin="round" d="M306 287c.935 1.19 1.71 2.51 2.31 3.9.481 1.12.846 2.29 1.07 3.49.303 1.61.349 3.27.138 4.9"/><path d="M225 64.2c.462 1.61.604 3.31.414 4.97-.222 1.94-.893 3.83-1.86 5.52a16.651 16.651 0 0 1-2.76 3.59"/><path stroke-linejoin="round" d="M293 98a6.767 6.767 0 0 1 4.28-1.66c1.5-.03 2.97.445 4.34 1.07s2.66 1.4 4.02 2.04c3.39 1.57 7.2 2.2 10.9 1.8"/></g><g stroke="#000"><path fill="none" stroke-linejoin="round" stroke-width="2" d="M254 66.6a4.551 4.551 0 0 0-.537-1.03 4.403 4.403 0 0 0-1.76-1.46c.641.382 1.47.42 2.15.098a2.293 2.293 0 0 0 1.17-1.32"/><path fill="none" stroke-linecap="round" stroke-linejoin="round" stroke-width="2" d="M279 76.3a6.849 6.849 0 0 1-4.25-1.95c-1.38-1.38-2.1-3.27-2.83-5.08-1.04-2.55-2.23-5.11-4.15-7.08-1-1.03-2.2-1.88-3.53-2.41-1.33-.534-2.81-.742-4.23-.515-2.16.345-4.11 1.71-5.27 3.56-.694 1.11-1.13 2.41-1.03 3.71.093 1.19.623 2.31 1.27 3.32 1.67 2.61 4.26 4.69 7.28 5.42 1.9.461 3.9.382 5.81-.049 1.97-.444 3.85-1.26 5.52-2.39"/><path stroke-linejoin="bevel" d="M261 59.2a7.774 7.774 0 0 0-3.8 1.12 5.434 5.434 0 0 0-.844 3.27c.075 1.13.505 2.21.732 3.32a9.447 9.447 0 0 1-.417 5.2c1.39-1 2.78-2 4.18-3 1.57-1.13 3.19-2.32 4.05-4.05.731-1.47.814-3.25.223-4.79a7.767 7.767 0 0 0-4.13-1.06z"/></g><path fill="none" stroke="#000" stroke-width="8" d="M4 4v280c20 260 236 310 246 312 10-2 226-52 246-312V4z"/></svg>