<svg width="500" height="599.8" version="1.0" xml:space="preserve" xmlns="http://www.w3.org/2000/svg"><path d="M4 4v279.9c20.02 260 236.1 309.8 246 311.8 9.96-2.002 226.1-51.99 246-311.8V4z" fill="#fcdb00"/><g stroke-linecap="round" stroke-linejoin="round" stroke-miterlimit="1000"><path d="M262.9 96.93a7.408 7.408 0 0 0-2.842-3.136c-.96-.58-2.042-.932-3.136-1.176-3.281-.731-6.689-.515-10.05-.343-3.644.187-7.293.319-10.93.637-6.771.592-13.68 1.821-20.29.245-6.246-1.489-11.84-5.548-15.19-11.03-1.931-3.156-3.137-6.788-3.234-10.49-.11-4.182 1.285-8.48 4.214-11.47 1.176-1.199 2.589-2.18 4.161-2.772s3.305-.786 4.954-.462a8.317 8.317 0 0 1 5.39 3.724 14.395 14.395 0 0 0-3.234 1.568c-1.093.71-2.094 1.578-2.878 2.62s-1.346 2.264-1.532 3.555c-.225 1.565.11 3.178.777 4.612.667 1.433 1.653 2.699 2.751 3.837 1.796 1.86 3.92 3.417 6.272 4.489 3.032 1.38 6.38 1.935 9.703 2.156 5.872.39 11.79-.22 17.64.392 4.122.43 8.154 1.46 12.2 2.352 2.723.6 5.496 1.15 7.988 2.4a15.541 15.541 0 0 1 6.86 6.86" fill="#f00000" fill-rule="evenodd" stroke="#000" stroke-width="2" style="paint-order:fill markers stroke" transform="translate(-2)"/><path d="M327.6 162.8c-1.799 4.696-1.999 9.956-.762 14.83a26.655 26.655 0 0 0 6.999 12.27 6.452 6.452 0 0 1-4.366.07c-.666-.23-1.288-.569-1.94-.832-2.048-.827-4.31-.893-6.514-1.04-1.713-.114-3.475-.3-4.99-1.11a6.603 6.603 0 0 1-2.596-2.517 6.607 6.607 0 0 1-.87-3.511 4.436 4.436 0 0 0-3.118.138 4.686 4.686 0 0 0-2.08 1.802c-.6.952-.858 2.077-1.04 3.188-.598 3.678-.453 7.431-.415 11.16.035 3.48-.021 6.99.693 10.4a23.336 23.336 0 0 0 2.426 6.514 11.117 11.117 0 0 1-5.198-.831c-2.036-.858-3.764-2.301-5.683-3.396a18.49 18.49 0 0 0-7.294-2.33 33.84 33.84 0 0 0 2.027 15.98c2.611 6.779 7.316 12.5 11.09 18.71 4.785 7.874 8.081 16.56 10.81 25.36a226.145 226.145 0 0 1 4.834 18.24 51.406 51.406 0 0 0 20.09 8.135c5.672.982 11.51.998 17.18.004 4.659-.817 9.205-2.316 13.39-4.513a43.133 43.133 0 0 0 4.292-2.58c.621-3.825.18-7.817-1.262-11.41a21.556 21.556 0 0 0-6.973-9.124c-2.719-2.054-5.877-3.426-8.94-4.92-5.125-2.5-10.1-5.414-14.35-9.217-6.068-5.431-10.62-12.94-11.09-21.07-.194-3.392.349-6.89 2.01-9.854a14.149 14.149 0 0 1 2.426-3.175 10.686 10.686 0 0 1 1.317 3.175c.457 1.943.36 3.97.619 5.949.619 4.728 3.277 9.016 6.7 12.34 5.133 4.977 11.89 7.952 18.74 10 5.326 1.595 10.93 2.754 15.52 5.89 3.928 2.685 6.852 6.69 8.663 11.09a30.034 30.034 0 0 1 1.947 7.105c4.553-2.5 7.974-6.978 9.188-12.03 1.173-4.88.322-10.09-1.666-14.7-2.32-5.374-6.151-10.04-10.78-13.62-5.305-4.104-11.55-6.77-17.43-9.997-3.52-1.932-6.938-4.087-9.944-6.748-3.005-2.661-5.595-5.852-7.223-9.521-1.614-3.637-2.246-7.673-2.064-11.65.182-3.974 1.164-7.89 2.652-11.58a43.646 43.646 0 0 1 9.997-14.9 37.76 37.76 0 0 0-2.156 15.19c.367 5.704 2.075 11.36 5.234 16.13 2.837 4.279 6.942 7.852 11.85 9.356 2.759.845 5.67 1.019 8.524 1.455 3.59.548 7.21 1.564 10.12 3.742 2.54 1.903 4.417 4.63 5.475 7.623.163.462.309.934.527 1.374.219.44.518.851.928 1.12.327.216.718.333 1.11.333.39 0 .781-.117 1.108-.332a15.29 15.29 0 0 0 .797-3.95c.076-1.13.025-2.264 0-3.396-.038-1.71-.018-3.418 0-5.127.03-2.777.058-5.557-.098-8.331-.128-2.278-.38-4.561-.98-6.762-1.381-5.073-4.537-9.494-8.135-13.33-4.333-4.618-9.362-8.54-13.72-13.13-4.605-4.853-8.481-10.54-10.39-16.96-1.95-6.553-1.768-13.54-1.294-20.36a253.348 253.348 0 0 1 2.495-21.97c.496 4.157.981 8.315 1.455 12.47.745 6.54 1.487 13.18 4.008 19.27 2.919 7.04 8.163 13.02 14.5 17.25a43.902 43.902 0 0 0 7.056 3.822 4.396 4.396 0 0 0 .294-4.116c-.35-.77-.917-1.418-1.47-2.058-4.275-4.951-8.224-10.23-11.17-16.07-3.497-6.925-5.546-14.7-4.998-22.44.513-7.241 3.43-14.44 8.723-19.41a25.032 25.032 0 0 1 9.213-5.488 24.962 24.962 0 0 0-7.448 10.31c-1.864 4.856-2.155 10.24-1.274 15.37.71 4.136 2.184 8.167 4.526 11.65 2.343 3.482 5.575 6.4 9.391 8.149a20.613 20.613 0 0 0 5.684 1.666c.638-2.124.672-4.425.098-6.566-.801-2.987-2.708-5.531-4.214-8.233-3.25-5.827-4.688-12.74-3.528-19.31 1.138-6.444 4.79-12.4 9.997-16.37 2.537-1.931 5.439-3.404 8.533-4.177 3.094-.773 6.38-.833 9.468-.038 4.483 1.153 8.463 4.147 10.81 8.135a14.572 14.572 0 0 0-7.841-4.41c-1.929-.383-3.949-.365-5.843.164s-3.656 1.579-4.938 3.07c-1.39 1.616-2.173 3.683-2.555 5.78-.383 2.097-.39 4.242-.385 6.373.012 5.464.088 10.93.228 16.39a55.089 55.089 0 0 1 5.87-5.914c3.235-2.8 6.98-5.293 11.23-5.821a13.637 13.637 0 0 1 6.784.896 13.634 13.634 0 0 1 5.483 4.094 13.585 13.585 0 0 0-6.03-1.247c-1.893.048-3.78.501-5.473 1.352s-3.19 2.1-4.297 3.637c-1.333 1.849-2.083 4.064-2.495 6.306-.326 1.773-.45 3.594-.216 5.38.234 1.788.838 3.544 1.879 5.015a9.488 9.488 0 0 0 3.604 3.049 30.664 30.664 0 0 1 3.712-3.812c1.82-1.57 3.903-2.958 6.267-3.396a8.804 8.804 0 0 1 3.534.069 19.059 19.059 0 0 0-4.09 4.851c-2.318 3.933-3.15 8.601-3.118 13.17.026 3.838.631 7.646 1.247 11.43.79 4.862 1.606 9.791 1.109 14.69-.464 4.573-2.12 9.078-5.06 12.61-2.646 3.184-6.215 5.474-9.91 7.346a62.958 62.958 0 0 1-9.077 3.742c.06 5.92-.17 11.84-.693 17.74-1.345 15.18-4.67 30.32-11.23 44.08a99.545 99.545 0 0 1-17.74 25.78c-5.674 5.954-12.24 11.28-19.96 14.14-6.203 2.294-12.98 2.901-19.54 2.079-4.473-.56-8.844-1.767-13.1-3.257-2.63-.921-5.332-1.968-8.108-1.733a9.13 9.13 0 0 0-6.03 3.049 45.008 45.008 0 0 1 5.938 9.704c1.865 4.152 3.09 8.565 4.9 12.74 2.515 5.802 6.28 11.23 11.56 14.7 4.65 3.057 10.32 4.456 15.88 4.214 3.739-.162 7.548-1.031 11.17-.098 3.038.782 5.607 2.749 8.135 4.606 4.084 3.001 8.35 5.883 11.56 9.801a26.043 26.043 0 0 1 3.724 6.076 12.88 12.88 0 0 0-2.695-1.764c-.845-.412-1.741-.733-2.672-.857s-1.9-.044-2.767.318a4.537 4.537 0 0 0-2.548 2.793 365.099 365.099 0 0 1 6.223 3.724c2.059 1.26 4.177 2.61 5.459 4.655.551.88.93 1.868 1.107 2.89a19.813 19.813 0 0 0-3.038-.98c-1.055-.248-2.137-.41-3.22-.364-1.081.045-2.168.305-3.101.855a5.482 5.482 0 0 0-2.5 3.332 34.841 34.841 0 0 1 7.218 3.764c3.533 2.406 6.692 5.582 8.247 9.564a15.442 15.442 0 0 1 1.04 4.92 5.44 5.44 0 0 0-2.703-.485 5.505 5.505 0 0 0-4.227 2.633 47.01 47.01 0 0 1 5.128 5.613c1.554 2.006 2.949 4.145 4.019 6.445a26.821 26.821 0 0 1 2.495 11.16 24.296 24.296 0 0 0-2.495-4.09c-.718-.95-1.511-1.853-2.456-2.58s-2.048-1.27-3.227-1.438a5.726 5.726 0 0 0-4.787 1.594 37.37 37.37 0 0 1 4.3 8.247c1.432 3.85 2.223 7.95 2.182 12.06a30.72 30.72 0 0 1-.864 6.93 19.185 19.185 0 0 0-1.247-3.95c-.987-2.244-2.432-4.32-4.371-5.821-.958-.741-2.035-1.34-3.2-1.67s-2.42-.384-3.587-.063a5.867 5.867 0 0 0-3.326 2.426 53.84 53.84 0 0 1 3.119 7.623c.466 1.449.873 2.925 1.03 4.439.156 1.514.053 3.073-.475 4.501a7.92 7.92 0 0 1-3.307 3.997 7.926 7.926 0 0 1-5.078 1.062c.405 1.095.684 2.237.831 3.396a15.462 15.462 0 0 1-1.363 8.522 42.071 42.071 0 0 1-8.537 2.627c-.392.076-.795.147-1.188.078-.54-.096-1.003-.447-1.36-.863s-.625-.898-.926-1.355c-.544-.823-1.202-1.571-1.686-2.431a4.97 4.97 0 0 1-.544-1.37 3.139 3.139 0 0 1 .012-1.466c.18-.681.623-1.257.97-1.871a7.255 7.255 0 0 0 .9-4.201 6.54 6.54 0 0 0-3.533-.511 5.559 5.559 0 0 0-1.955.63 4.287 4.287 0 0 0-1.51 1.38c-.648.99-.807 2.226-1.386 3.257a4.528 4.528 0 0 1-2.218 1.96c.299 2.016.507 4.044.624 6.079.069 1.205.106 2.417-.025 3.617-.131 1.2-.435 2.393-1.015 3.452-.56 1.02-1.358 1.89-2.2 2.695-5.054 4.827-12.02 7.597-19.01 7.56-1.793-5.227-.915-11.3 2.287-15.8a17.563 17.563 0 0 1 6.306-5.444 10.254 10.254 0 0 1-1.109-4.812 31.852 31.852 0 0 1-7.277.138 128.54 128.54 0 0 0-2.633 2.515c-1.584 1.555-3.162 3.177-5.128 4.207-2.232 1.17-4.832 1.493-7.346 1.317-5.241-.367-10.3-2.907-13.72-6.894 1.834-5.262 6.001-9.66 11.16-11.78 2.322-.953 4.942-1.454 7.346-.733 1.886.566 3.505 1.84 5.405 2.356 1.269.346 2.606.336 3.92.277 1.928-.086 3.852-.275 5.782-.277a29.946 29.946 0 0 1 4.089.277 13.496 13.496 0 0 1 1-5.89 277.741 277.741 0 0 0-4.257-1c-3.53-.8-7.217-1.595-10.05-3.85-2.673-2.13-4.319-5.496-4.358-8.914.297-2.186 1.591-4.216 3.446-5.409s4.239-1.527 6.351-.89c1.367.411 2.601 1.204 3.639 2.184 1.614 1.523 2.754 3.467 3.95 5.336a80.28 80.28 0 0 0 4.643 6.514 31.753 31.753 0 0 1 1.871-5.821c.905-2.098 2.065-4.132 3.742-5.683a11.183 11.183 0 0 1 6.653-2.911 274.03 274.03 0 0 0 1-7.594c.43-3.667.784-7.416 0-11.02-.882-4.06-3.177-7.72-6.071-10.7-3.647-3.756-8.224-6.502-13-8.636-4.374-1.952-8.944-3.421-13.43-5.105a148.466 148.466 0 0 1-19.9-9.213 36.365 36.365 0 0 0-.392 6.567c.049 1.568.199 3.133.184 4.7-.014 1.569-.198 3.159-.792 4.61-.44 1.075-1.091 2.047-1.657 3.06a23.066 23.066 0 0 0-1.663 3.742 25.122 25.122 0 0 0-1.317 6.584 16.607 16.607 0 0 1-2.079-3.128 16.686 16.686 0 0 1-1.802-8.376 6.5 6.5 0 0 0-1.871.346c-1.51.518-2.82 1.622-3.534 3.05-.457.912-.669 1.927-.82 2.937s-.249 2.031-.497 3.022c-.598 2.388-2.04 4.473-3.604 6.376-1.862 2.268-3.934 4.365-5.683 6.722-1.505 2.029-2.774 4.274-3.396 6.722a14.255 14.255 0 0 0 .139 7.485 51.697 51.697 0 0 1-4.435-6.93c-2.04-3.826-3.616-8.002-3.742-12.34a19.545 19.545 0 0 1 3.188-11.23c1.96-2.976 4.704-5.358 6.792-8.247a22.954 22.954 0 0 0 2.356-4.089 47.033 47.033 0 0 0-.07-13.029 411.643 411.643 0 0 1-6.101-7.831c-3.23-4.249-6.412-8.622-8.381-13.58-1.938-4.882-2.635-10.22-2.26-15.46.17-2.384.558-4.752 1.159-7.065a28.324 28.324 0 0 1-4.59 5.635 29.106 29.106 0 0 1-7.955 5.342c-3.103 1.412-6.437 2.285-9.815 2.744a42.436 42.436 0 0 1-8.512.294 11.91 11.91 0 0 0-.182 7.055c.686 2.409 2.11 4.527 3.416 6.665 3.113 5.097 5.65 10.53 8.838 15.58 2.303 3.649 4.946 7.101 6.843 10.98.92 1.881 1.663 3.862 2.036 5.923s.37 4.207-.174 6.23c-.897 3.335-3.168 6.098-5.292 8.821-1.887 2.418-3.707 4.896-5.782 7.154a41.955 41.955 0 0 1-8.919 7.35 37.63 37.63 0 0 1-.196 9.017 37.698 37.698 0 0 1-4.802 13.72 40.831 40.831 0 0 0-4.41-10.486 15.398 15.398 0 0 0-3.626 4.704c-1.343 2.698-1.859 5.716-2.646 8.625a46.504 46.504 0 0 1-7.939 16.07c.418-1.728.533-3.529.339-5.296a15.44 15.44 0 0 0-1.94-5.96 16.737 16.737 0 0 0-7.762 6.93c-.99 1.716-1.666 3.597-2.633 5.326a18 18 0 0 1-8.108 7.495c.291-.755.479-1.55.554-2.356a8.931 8.931 0 0 0-1.554-5.89 103.655 103.655 0 0 0-5.306 4.122c-2.628 2.182-5.16 4.502-8.039 6.341a29.525 29.525 0 0 1-8.663 3.742 12.055 12.055 0 0 0 2.08-3.326c.385-.925.655-1.905.709-2.906.053-1-.117-2.023-.571-2.916-.54-1.06-1.469-1.904-2.547-2.408s-2.297-.678-3.482-.572a7.864 7.864 0 0 0-4.448 1.9 7.863 7.863 0 0 0-2.473 4.157l-12.76.595a4.568 4.568 0 0 0-1-2.495c-.857-1.055-2.134-1.669-3.158-2.564-.918-.802-1.623-1.826-2.176-2.913s-.963-2.24-1.358-3.394c-1.288-3.758-2.523-7.694-5.227-10.6-2.666-2.869-6.589-4.434-10.5-4.539-2.004-.054-4.033.259-5.87 1.063-.59.258-1.158.566-1.764.784a6.48 6.48 0 0 1-5.603-.633l-3.881-10.33a6.357 6.357 0 0 1 1.153-2.761c1.239-1.685 3.35-2.683 5.439-2.597a6.531 6.531 0 0 1 2.45.588 3.74 3.74 0 0 0 1-1.593c.325-1.031.18-2.175-.265-3.16-.676-1.496-1.984-2.617-3.381-3.48-.54-.333-1.1-.635-1.618-1.001s-.998-.805-1.322-1.35a3.215 3.215 0 0 1-.437-1.884 3.216 3.216 0 0 1 .731-1.791l5.88-7.645c.224-.435.563-.809.973-1.073s.891-.42 1.38-.446c.746-.039 1.493.229 2.088.682.596.453 1.043 1.082 1.341 1.768.695 1.6.579 3.419.834 5.145.315 2.137 1.222 4.176 2.548 5.88a13.459 13.459 0 0 0 5.733 4.263 10.963 10.963 0 0 0 2.89-2.401c.79-.927 1.429-2.003 1.716-3.185.206-.851.227-1.75.032-2.603a4.993 4.993 0 0 0-1.208-2.298c-.451-.48-.996-.858-1.508-1.272-.512-.414-1.003-.881-1.291-1.472-.302-.618-.36-1.334-.262-2.014.099-.68.346-1.33.63-1.955a16.272 16.272 0 0 1 2.193-3.531c.995-1.746 2.686-3.082 4.615-3.644s4.073-.344 5.85.594c1.494.79 2.705 2.054 3.592 3.493.686 1.111 1.192 2.338 1.43 3.621.239 1.283.205 2.623-.156 3.877-.666 2.315-2.37 4.172-4.116 5.831-1.35 1.285-2.775 2.525-3.822 4.067a10.862 10.862 0 0 0-1.862 6.125 5.579 5.579 0 0 0 3.687 3.063c1.598.394 3.282.055 4.92.208 2.365.222 4.524 1.462 6.376 2.95a24.078 24.078 0 0 1 4.435 4.673 41.204 41.204 0 0 0 9.286-1.663c6.61-1.987 12.66-5.637 17.81-10.23 4.317-3.85 8.06-8.418 10.52-13.65 1.621-3.44 2.673-7.132 3.332-10.88.884-5.025 1.06-10.25-.196-15.19-.932-3.67-2.627-7.102-4.508-10.39-2.698-4.713-5.798-9.182-8.625-13.82-1.898-3.114-3.685-6.329-4.802-9.8a27.898 27.898 0 0 1-1.274-10.39 6.701 6.701 0 0 0-4.018.587c-1.119.548-2.065 1.403-2.854 2.367-.788.964-1.428 2.04-2.047 3.121-2.29 4.005-4.335 8.162-6.958 11.96-3.357 4.855-7.835 9.184-13.43 11.07-5.255 1.776-11.26 1.19-16.07-1.568a12.313 12.313 0 0 0 9.311-.196c2.49-1.093 4.548-2.994 6.272-5.096 2.247-2.74 4.041-5.982 4.41-9.507.277-2.645-.25-5.384.49-7.939.693-2.393 2.416-4.337 3.528-6.566a13.8 13.8 0 0 0 1.372-4.704 135.432 135.432 0 0 0-7.448 3.43c-4.592 2.285-9.055 4.83-13.72 6.958-5.567 2.54-11.7 4.504-17.74 3.528-4.292-.693-8.214-2.825-11.86-5.194-7.893-5.132-14.96-11.57-20.57-19.13a73.123 73.123 0 0 1-9.84-18.16 93.883 93.883 0 0 0 14.14 11.37 92.763 92.763 0 0 0 26.45 11.92c7.315 1.988 15.08 3.055 22.47 1.386 5.148-1.162 9.92-3.606 14.41-6.376 4.411-2.719 8.68-5.806 13.58-7.485a26.103 26.103 0 0 1 9.394-1.386 45.447 45.447 0 0 1 2.525-9.286c1.88-4.82 4.67-9.407 8.732-12.61 5.125-4.045 11.8-5.555 18.3-6.208 5.155-.518 10.34-.568 15.52-.722 5.622-.168 11.41-.499 16.49-2.911a21.66 21.66 0 0 0 8.376-7.06 21.66 21.66 0 0 0 3.821-10.27 19.366 19.366 0 0 0-3.465-6.93c-2.518-3.205-5.984-5.532-9.564-7.484-5.019-2.736-10.36-4.832-15.52-7.288-5.162-2.456-10.22-5.325-14.28-9.344a32.326 32.326 0 0 1-4.574-5.683 327.164 327.164 0 0 1-19.058-.139 27.657 27.657 0 0 0-10.672 12.89 54.33 54.33 0 0 0-1-12.782 34.078 34.078 0 0 0-7.87 4.327 34.204 34.204 0 0 0-10.88 13.51 13.408 13.408 0 0 0-1-3.326c-.511-1.137-1.178-2.197-1.704-3.326a14.93 14.93 0 0 1-1.317-4.797 9.688 9.688 0 0 0-4.574.985c-2.224 1.095-3.928 2.988-5.683 4.74-1.888 1.885-3.944 3.717-5.059 6.141a9.673 9.673 0 0 0-.416 6.93 15.202 15.202 0 0 1-3.742-3.049c-1.09-1.224-1.989-2.648-2.426-4.227a8.413 8.413 0 0 1 .901-6.514 27.1 27.1 0 0 0-5.405 1.594c-1.54.635-3.02 1.41-4.574 2.01a21.793 21.793 0 0 1-7.9 1.455 7.974 7.974 0 0 0 .07 4.643c.412 1.275 1.145 2.44 1.455 3.742a6.08 6.08 0 0 1-.16 3.35 6.079 6.079 0 0 1-1.92 2.748l-7.93.624a6.286 6.286 0 0 1-1.771-2.564c-.43-1.17-.5-2.479-.139-3.673.32-1.06.96-2 1.317-3.049.627-1.838.307-3.97-.831-5.544a122.262 122.262 0 0 1-11.612-.264 3.671 3.671 0 0 0-1.421 2.92c.006.456.098.906.155 1.358.057.453.077.92-.057 1.357-.106.342-.303.65-.545.914s-.528.483-.828.68c-1.092.716-2.367 1.128-3.43 1.886a6.36 6.36 0 0 0-2.352 3.229l-13.82-8.424a6.632 6.632 0 0 1 .09-2.933c.38-1.461 1.308-2.807 2.633-3.53.79-.43 1.681-.629 2.566-.785.885-.156 1.782-.276 2.632-.567 2.091-.716 3.78-2.512 4.366-4.643a11.466 11.466 0 0 0-2.167-2.545c-.684-.598-1.448-1.119-2.298-1.443-.85-.323-1.79-.442-2.678-.24-.887.203-1.672.708-2.41 1.24-.74.53-1.463 1.1-2.297 1.463-1.314.572-2.796.584-4.227.525a50.18 50.18 0 0 1-4.99-.455l2.01-16.36a6.295 6.295 0 0 1 4.09-1.178c2.055.14 3.888 1.272 5.682 2.287 1.89 1.07 3.88 2.057 6.03 2.356a10.05 10.05 0 0 0 5.266-.693c.431-.973.506-2.098.208-3.12-.343-1.175-1.14-2.16-1.686-3.256a8.202 8.202 0 0 1-.323-6.458l7.007-7.252a3.521 3.521 0 0 1 1.893-.166c.63.12 1.226.416 1.701.848.493.447.85 1.028 1.113 1.639.264.61.441 1.255.62 1.896.643 2.308 1.325 4.619 1.594 6.999a20.67 20.67 0 0 1-.762 8.316 7.832 7.832 0 0 1 4.712 3.326 12.49 12.49 0 0 0 3.396-.985c.953-.431 1.849-.98 2.783-1.451.934-.47 1.927-.867 2.969-.96.898-.08 1.803.068 2.675.295.872.227 1.723.532 2.592.774 1.889.526 3.862.751 5.82.663 5.346-4.682 11-9.008 16.92-12.94 5.564-3.699 11.35-7.048 17.15-10.36 3.978-2.27 7.963-4.524 11.96-6.762a6.151 6.151 0 0 0-1.273-3.528c-.603-.779-1.383-1.398-2.144-2.023-.762-.625-1.522-1.274-2.07-2.093-.866-1.294-1.124-2.893-1.764-4.312-.59-1.307-1.506-2.455-2.596-3.387-1.09-.932-2.351-1.652-3.676-2.199a16.967 16.967 0 0 0-5.978-1.274 47.1 47.1 0 0 0 1.225-2.499c.472-1.04.915-2.14.882-3.283-.023-.75-.261-1.5-.728-2.088s-1.17-.995-1.918-1.048c-.632-.045-1.258.158-1.826.437-.569.28-1.094.638-1.653.935a8.832 8.832 0 0 1-6.321.735 6.408 6.408 0 0 0 3.724-2.4c1.229-1.646 1.587-3.78 1.666-5.832.046-1.21.008-2.433-.243-3.619-.25-1.186-.72-2.339-1.472-3.29a6.43 6.43 0 0 0-2.5-1.91 22.882 22.882 0 0 1-6.663 3.135 23.01 23.01 0 0 1-13.48-.294c.982.142 2 .032 2.929-.318a5.944 5.944 0 0 0 2.412-1.69c.6-.701 1.03-1.537 1.666-2.206.798-.84 1.888-1.385 2.597-2.303a3.814 3.814 0 0 0 .776-2.599 3.813 3.813 0 0 0-1.168-2.448 14.16 14.16 0 0 0-4.017-.049c-1.854.243-3.67.855-5.54.833-.952-.01-1.894-.187-2.841-.302-.946-.116-1.917-.17-2.843.057-1.243.306-2.327 1.101-3.577 1.372a4.539 4.539 0 0 1-4.018-1.127 18.029 18.029 0 0 0 5.526-3.446c2.228-2.033 3.972-4.757 4.227-7.762a9.216 9.216 0 0 0-1.165-5.3 9.213 9.213 0 0 0-3.963-3.709 22.711 22.711 0 0 1-6.584 8.04c-3.868 2.956-8.66 4.605-13.51 4.99-1.13.088-2.264.112-3.396.069l.277 2.148a11.68 11.68 0 0 1-5.752-1.074c-2.856-1.342-5.116-3.897-6.098-6.895l10.57-4.297a9.422 9.422 0 0 0 5.643.124c1.545-.452 2.98-1.321 4.019-2.55 1.273-1.506 1.889-3.441 2.633-5.267a34.834 34.834 0 0 1 4.297-7.623 13.622 13.622 0 0 0-3.05-3.812c-2.738-2.38-6.286-3.558-9.701-4.782a185.205 185.205 0 0 1-11.37-4.505 6.912 6.912 0 0 1-3.29-1.731 6.916 6.916 0 0 1-1.907-3.19 6.938 6.938 0 0 1 .306-4.492 6.94 6.94 0 0 1 3.02-3.34 6.511 6.511 0 0 1 2.426-1.963 5.478 5.478 0 0 1 2.19-.537c.756-.016 1.522.157 2.176.537.57.33 1.04.807 1.48 1.297.44.49.861 1.002 1.362 1.429 1.324 1.13 3.111 1.585 4.851 1.663a13.43 13.43 0 0 0 4.366-.526 5.424 5.424 0 0 0 1-3.863c-.132-1.029-.563-2.004-1.144-2.864-.58-.86-1.308-1.61-2.074-2.31-1.905-1.74-4.064-3.18-6.029-4.852a32.893 32.893 0 0 1-3.742-3.742c-.954-1.647-1.009-3.78-.138-5.475.701-1.365 1.977-2.424 3.448-2.863s3.118-.251 4.453.507a4.293 4.293 0 0 1 3.326-.07c.76.306 1.418.828 1.985 1.42.567.591 1.052 1.255 1.549 1.907 1.26 1.651 2.629 3.267 3.396 5.198.266.67.456 1.371.756 2.027.3.656.73 1.281 1.352 1.646.61.358 1.343.434 2.05.416a8.88 8.88 0 0 0 3.533-.831 9.873 9.873 0 0 0 .485-2.781c.036-1.232-.16-2.46-.416-3.664-.151-.714-.325-1.424-.415-2.148a9.477 9.477 0 0 1 .277-3.715 5.623 5.623 0 0 1 .941-3.051 5.624 5.624 0 0 1 2.46-2.036 5.652 5.652 0 0 1 4.385.01 5.653 5.653 0 0 1 3.024 3.177 7.612 7.612 0 0 1 3.673 3.11c1.11 1.835 1.388 4.1 1.04 6.216-.61 3.704-2.964 6.851-5.267 9.816a741.099 741.099 0 0 1-3.88 4.952 20.004 20.004 0 0 1 5.266 3.863 20.713 20.713 0 0 1 4.297 6.555 21.544 21.544 0 0 1 1.247 12.13 264.77 264.77 0 0 1 14.95 8.467c6.724 4.1 13.26 8.497 19.7 13.03a537.67 537.67 0 0 1 9.507 6.86c2.19-.479 4.49-.445 6.664.098 2.204.551 4.3 1.618 6.566 1.764 2.341.151 4.614-.693 6.86-1.372.931-.28 1.901-.551 2.646-1.176.59-.494 1-1.19 1.18-1.938s.132-1.544-.101-2.276c-.382-1.2-1.273-2.228-2.406-2.777s-2.493-.609-3.67-.163a23.26 23.26 0 0 1 5.978-4.018c4.547-2.12 9.7-2.713 14.7-2.322a39.8 39.8 0 0 1 16.47 5.042 7.11 7.11 0 0 1 .472-4.046 7.113 7.113 0 0 1 2.98-3.326c.274 1.94.99 3.816 2.079 5.445 2.072 3.1 5.34 5.157 8.524 7.099 4.025 2.455 8.22 4.929 12.9 5.536 4.466.58 8.969-.602 13.23-2.058 2.263-.774 4.526-1.642 6.483-3.017 1.957-1.375 3.604-3.316 4.2-5.632a7.882 7.882 0 0 0-.392-5.042c-4.488.315-8.966.767-13.43 1.356-2.872.379-5.842.808-8.625 0-1.821-.53-3.466-1.572-4.86-2.858s-2.544-2.813-3.57-4.408c-1.83-2.848-3.286-5.965-4.017-9.271-.187-.845-.327-1.711-.26-2.573.069-.863.36-1.73.946-2.367.545-.594 1.308-.952 2.092-1.137.784-.186 1.596-.213 2.4-.235 5.056-.136 10.13-.09 15.15-.727a56.223 56.223 0 0 0 14.21-3.742 28.001 28.001 0 0 0-1.246-5.544c-1.276-3.81-3.505-7.462-6.93-9.564-3.325-2.04-7.365-2.413-11.16-3.326-3.221-.776-6.384-1.999-9.01-4.019-3.167-2.438-5.475-6.13-5.751-10.12a12.194 12.194 0 0 1 2.356-8.039 8.517 8.517 0 0 1-.97-2.633 8.566 8.566 0 0 1 .693-5.267c4.15-.423 8.31-.757 12.47-1 5.078-.296 10.18-.458 15.25 0 .802.073 1.606.161 2.387.359.78.197 1.542.506 2.187.988.792.59 1.402 1.432 2.287 1.87.81.403 1.796.414 2.633.07.61-.25 1.136-.673 1.608-1.135.471-.462.898-.968 1.372-1.429 1.273-1.238 2.872-2.124 4.574-2.633 2.058-.617 4.249-.691 6.386-.469 2.137.223 4.232.737 6.31 1.28 5.064 1.322 10.13 2.848 14.7 5.39 2.919 1.62 5.649 3.658 8.82 4.703 2.886.951 5.983 1.027 9.018.906a73.354 73.354 0 0 0 6.958-.612 5.539 5.539 0 0 1-.784 2.401c-.48.79-1.162 1.454-1.963 1.914s-1.72.715-2.643.732a3.699 3.699 0 0 0 .147 2.891c.339.688.888 1.253 1.489 1.73.6.476 1.26.873 1.892 1.308 1.33.916 2.552 2.011 3.479 3.332 1.75 2.496 2.338 5.62 2.6 8.657.276 3.188.241 6.418-.346 9.564-.33 1.77-.833 3.501-1.178 5.267-.353 1.804-.54 3.652-.375 5.482.165 1.83.694 3.647 1.692 5.191.94 1.454 2.279 2.635 3.798 3.467 1.519.832 3.214 1.322 4.934 1.523 3.05.356 6.2-.206 8.94-1.594a113.534 113.534 0 0 1-4.92 5.96c-1.91 2.16-3.954 4.287-6.514 5.613a13.134 13.134 0 0 1-6.514 1.455 3.933 3.933 0 0 0 .138 3.604 3.911 3.911 0 0 0 2.356 1.802 23.91 23.91 0 0 1-.623 6.722 24.015 24.015 0 0 1-6.03 11.02 14.635 14.635 0 0 0 2.782 4.712 14.667 14.667 0 0 0 6.167 4.143 14.673 14.673 0 0 0 7.407.57 22.146 22.146 0 0 1-5.336 4.366c-4.451 2.602-9.924 3.568-14.9 2.218-.882-.24-1.745-.549-2.633-.763a12.82 12.82 0 0 0-5.336-.138 22.968 22.968 0 0 0-4.435 7.207z" fill-rule="evenodd" stroke="#000" stroke-width="2" style="paint-order:fill markers stroke" transform="translate(-2)"/><g fill="#f00000" fill-rule="evenodd" stroke="#000" stroke-width="2"><path d="M379.1 466a10.897 10.897 0 0 1 4.998-1.704 9.148 9.148 0 0 1 3.333 4.154c.834 2.097.857 4.447.438 6.664a17.658 17.658 0 0 1-2.47 6.223 8.771 8.771 0 0 1-1.497-1.568c-1.076-1.452-1.674-3.199-2.596-4.753a13.098 13.098 0 0 0-5.782-5.194A10.891 10.891 0 0 1 379.1 466zM342.8 480c2.267.785 4.739.542 7.138.554 1.53.008 3.06.124 4.574.347.086 1.176.132 2.355.139 3.534.004.746-.01 1.503-.21 2.22-.201.72-.61 1.407-1.246 1.799-.424.262-.923.378-1.419.435-.495.058-.996.061-1.492.12-1.295.15-2.584.712-3.396 1.732a3.975 3.975 0 0 0-.856 2.507c.012.9.345 1.794.926 2.482a18.337 18.337 0 0 1-6.792-3.188c-1.88-1.416-3.502-3.229-4.452-5.383s-1.187-4.665-.4-6.883a8.09 8.09 0 0 1 3.05-3.95 8.296 8.296 0 0 0 4.435 3.673zM308.5 468.2c-.771 1.008-1.598 2.041-1.862 3.283-.145.68-.108 1.399.106 2.062s.604 1.267 1.12 1.735c-2.338-.313-4.473-1.866-5.489-3.993-.93-1.946-.93-4.236-.407-6.329.522-2.093 1.529-4.029 2.564-5.921.745-1.363 1.514-2.722 2.472-3.945.958-1.223 2.12-2.312 3.506-3.014 1.447-.732 3.084-1.015 4.704-1.078 1.179-.046 2.362.02 3.528.196a16.504 16.504 0 0 0-.49 3.528c-.05 1.697.167 3.417.784 4.998.588 1.509 1.54 2.904 1.764 4.508a5.247 5.247 0 0 1-1.058 3.92 28.32 28.32 0 0 1-3.352-.098c-1.547-.137-3.106-.41-4.508-1.078a8.52 8.52 0 0 1-1.704-1.078c-.541.78-1.1 1.549-1.677 2.303zM329.1 422.1c-3.556-.826-7.396.018-10.49 1.96a16.243 16.243 0 0 0-6.762 8.723 4.584 4.584 0 0 1 3.332-1.666c1.097-.043 2.178.317 3.146.834.968.518 1.843 1.191 2.734 1.832 1.393 1.002 2.863 1.945 4.508 2.43a9.067 9.067 0 0 0 5.096 0 10.847 10.847 0 0 1 .294-3.626 10.932 10.932 0 0 1 4.704-6.468 12.293 12.293 0 0 0-6.566-4.018zM146.2 476.5c3.134-1.549 5.414-4.714 5.891-8.178a12.539 12.539 0 0 0 5.267 1.455c2.63.13 5.295-.6 7.493-2.051a8.761 8.761 0 0 1 .823 6.001c-.49 2.193-1.844 4.146-3.604 5.544-2.373 1.885-5.428 2.776-8.455 2.911-4.85.215-9.76-1.481-13.44-4.643a10.825 10.825 0 0 0 6.03-1.04zM102.7 436.9c-2.107 1.638-3.98 3.74-4.712 6.306-.742 2.602-.186 5.541 1.455 7.692a5.32 5.32 0 0 1 2.426-2.218c1.442-.65 3.086-.621 4.643-.9 1.98-.356 3.839-1.22 5.544-2.288a24.712 24.712 0 0 0 3.326-2.495 14.054 14.054 0 0 1-.07-2.426c.05-.837.173-1.669.213-2.506.041-.837-.004-1.692-.282-2.484a4.41 4.41 0 0 0-1.443-2.006 4.408 4.408 0 0 0-2.299-.905 23.162 23.162 0 0 0-8.8 4.227zM117.1 410.6a26.969 26.969 0 0 1 4.018-4.557 12.976 12.976 0 0 0-4.508-5.586c-.972-.68-2.046-1.226-3.194-1.526-1.148-.3-2.372-.344-3.519-.043-1.062.28-2.03.846-2.899 1.517-.87.671-1.649 1.45-2.442 2.208a79.64 79.64 0 0 1-4.116 3.675 5.22 5.22 0 0 1 3.92-.098 4.984 4.984 0 0 1 1.909 1.296c.522.575.9 1.28 1.08 2.036.129.544.154 1.106.261 1.654.107.549.31 1.102.72 1.482.363.338.859.505 1.352.568.493.063.992.03 1.49.02a16.137 16.137 0 0 1 4.066.442 26.918 26.918 0 0 1 1.862-3.087zM146.3 398.9a23.483 23.483 0 0 0-7.069 2.633 5.795 5.795 0 0 1-1.525-3.326c-.187-1.768.446-3.507.693-5.267.257-1.83.09-3.718-.485-5.475 1.962-.015 3.927.44 5.683 1.317 2.399 1.198 4.415 3.225 5.405 5.717a9.913 9.913 0 0 1 .693 3.985c-1.14.056-2.276.195-3.396.416zM113.4 258.9c1.7-.391 3.56-.03 4.99.97a6.321 6.321 0 0 1 2.564 2.911c.607 1.404.68 2.975.678 4.505 0 1.476-.065 2.968-.467 4.388s-1.171 2.776-2.36 3.651c-.808.596-1.78.946-2.771 1.11a8.384 8.384 0 0 1-4.92-.694 5.327 5.327 0 0 0 1.733-2.079c.61-1.307.658-2.837.277-4.227-.324-1.182-.94-2.267-1.663-3.257-.488-.669-1.034-1.312-1.347-2.079a3.966 3.966 0 0 1 .347-3.604 6.297 6.297 0 0 1 2.94-1.594zM79.97 268.1a8.703 8.703 0 0 0 2.646 5.018 13.236 13.236 0 0 1-8.527-5.018c-2.58-3.388-3.357-7.994-2.352-12.13a16.015 16.015 0 0 1 3.43-6.664 42.295 42.295 0 0 1 5.292 3.308c1.591 1.167 3.105 2.448 4.802 3.454a17.706 17.706 0 0 0 3.724 1.661 3.91 3.91 0 0 1-.007 3.127c-.282.632-.733 1.182-1.265 1.624-.533.443-1.145.782-1.784 1.049a9.668 9.668 0 0 1-5.613.554 8.661 8.661 0 0 0-.347 4.02zM62.02 217.7c-2.38.368-4.544 1.684-6.237 3.396-3.213 3.248-4.819 8.014-4.227 12.54a4.28 4.28 0 0 1 1.871-2.564 4.283 4.283 0 0 1 2.742-.608 4.312 4.312 0 0 1 2.525 1.232c.544.548.93 1.23 1.32 1.897.39.666.801 1.338 1.383 1.846.683.597 1.587.936 2.495.936s1.811-.34 2.495-.936a58.992 58.992 0 0 0-.416-4.02c-.151-1.093-.333-2.191-.287-3.294.047-1.103.344-2.231 1.05-3.08.438-.528 1.015-.928 1.454-1.455a3.77 3.77 0 0 0 .86-2.217 3.769 3.769 0 0 0-.652-2.287 9.177 9.177 0 0 0-6.376-1.386zM91 196.7c-2.511-1.732-5.795-2.136-8.772-1.47a13.716 13.716 0 0 0-6.321 3.332 3.09 3.09 0 0 1 2.076-.494 3.087 3.087 0 0 1 1.893.984c.451.499.726 1.134.914 1.78.188.645.295 1.311.458 1.964.31 1.244.828 2.448 1.617 3.46a7.548 7.548 0 0 0 4.802 2.792 14.783 14.783 0 0 0 7.007-7.252A9.452 9.452 0 0 0 91 196.7zM87.11 128.3c-1.117.945-2.496 1.602-3.95 1.762-1.44.159-2.905-.17-4.227-.762-1.786-.801-3.35-2.09-4.477-3.69a11.032 11.032 0 0 1-1.968-5.458 7.369 7.369 0 0 0 3.673 3.326c.838.344 1.753.53 2.654.441.901-.09 1.788-.47 2.405-1.134.51-.548.824-1.267 1.386-1.762a2.651 2.651 0 0 1 1.764-.646 2.89 2.89 0 0 1 1.771.646c.688.557 1.091 1.381 1.594 2.11.49.709 1.09 1.342 1.772 1.87a8.616 8.616 0 0 1-2.396 3.297zM63.13 94.46c.346-2.611 1.307-5.174 2.98-7.207a12.064 12.064 0 0 1 6.41-4.019 12.153 12.153 0 0 1 7.588.624 7.274 7.274 0 0 0-.762 3.326c.026 2.094.947 4.055 1.648 6.029.394 1.11.724 2.246.985 3.396-1.623.368-3.24.76-4.851 1.178-.894.231-1.797.472-2.72.477a4.307 4.307 0 0 1-1.364-.197 3.062 3.062 0 0 1-1.183-.696c-.368-.357-.625-.81-.902-1.241s-.596-.857-1.038-1.115c-.51-.296-1.137-.336-1.713-.214-.576.123-1.108.397-1.613.699a14.324 14.324 0 0 0-3.534 2.98 17.609 17.609 0 0 1 .069-4.019zM88.77 55.58c-3.306-1.245-7.197-.98-10.19.9a10.735 10.735 0 0 0-4.297 5.268 13.455 13.455 0 0 1 4.574-1.04c.54-.026 1.09-.018 1.61.13.52.149 1.013.45 1.3.91.257.41.33.908.341 1.391.01.484-.036.968.005 1.45a4.036 4.036 0 0 0 1.62 2.873 4.033 4.033 0 0 0 3.231.662 17.362 17.362 0 0 1 7.762-7.83 12.595 12.595 0 0 0-5.96-4.713zM119.9 57.38c-1.17.416-2.082 1.345-3.188 1.911a5.675 5.675 0 0 1-4.089.404 4.664 4.664 0 0 1-1-3.544c.144-1.053.648-2.025.861-3.067a5.754 5.754 0 0 0-.748-4.158 5.753 5.753 0 0 0-3.41-2.495 19.194 19.194 0 0 1 7.347.554c1.47.405 2.9.992 4.162 1.848 1.262.856 2.352 1.991 3.045 3.349a7.824 7.824 0 0 1 .554 5.613 4.083 4.083 0 0 0-3.534-.416z" style="paint-order:fill markers stroke" transform="translate(-2)"/></g><path d="M260.8 73.87c-.205 1.527-.736 3.017-1.594 4.297a9.348 9.348 0 0 1-3.257 2.98 6.622 6.622 0 0 1-2.841-4.295c-.158-.867-.139-1.757-.07-2.635.136-1.715.462-3.415.97-5.059a12.507 12.507 0 0 1 6.446.139c.432 1.478.55 3.047.346 4.574zM263.9 74.67c-.226 1.825.127 3.703.9 5.371a11.19 11.19 0 0 0 2.669 3.604 17.762 17.762 0 0 0 2.668-2.495c.941-1.082 1.76-2.296 2.218-3.656a8.065 8.065 0 0 0-.277-5.804 19.207 19.207 0 0 0-7.068-.347 8.925 8.925 0 0 0-1.11 3.326z" fill="#fff" fill-rule="evenodd" stroke="#000" stroke-width="2" style="paint-order:fill markers stroke" transform="translate(-2)"/><g fill="none" stroke="#fff"><g stroke-width="3"><path d="M181.7 136.6a21.552 21.552 0 0 0-5.292 4.9c-2.385 3.103-3.891 6.834-4.606 10.68a29.616 29.616 0 0 0-.196 9.605 67.245 67.245 0 0 0 6.566-3.136c1.976-1.079 3.904-2.26 5.978-3.136a22.518 22.518 0 0 1 6.566-1.666 41.59 41.59 0 0 1-3.234 7.154c-1.451 2.539-3.164 4.915-4.782 7.35-2.049 3.083-3.974 6.32-4.92 9.899a19.89 19.89 0 0 0-.588 6.762 24.652 24.652 0 0 0 6.727-3.234c2.585-1.771 4.877-4.061 7.798-5.194a11.224 11.224 0 0 1 6.448-.49c.33 2.302.396 4.642.196 6.958-.181 2.099-.58 4.173-.794 6.269-.216 2.095-.244 4.242.304 6.276a11.397 11.397 0 0 0 2.156 4.214 45.398 45.398 0 0 0 6.86-5.096c3.29-2.964 6.19-6.441 9.997-8.703 2.863-1.701 6.177-2.644 9.507-2.666 4.72-.03 9.425 1.837 12.84 5.096M242.4 166.7a58.404 58.404 0 0 0-2.646 10.58c-.564 3.693-.772 7.448-.49 11.17a42.848 42.848 0 0 0 3.724 14.5 228.29 228.29 0 0 1 1.666-5.586c.622-1.991 1.28-3.993 2.352-5.783a14.022 14.022 0 0 1 1.862-2.45 47.675 47.675 0 0 0 2.94 9.311 47.616 47.616 0 0 0 9.311 14.01c.345-1.369.679-2.741 1-4.116.865-3.703 1.642-7.43 2.724-11.07a68.987 68.987 0 0 1 2.94-8.037M277 180.4a31.278 31.278 0 0 0 2.352 7.805 31.421 31.421 0 0 0 9.507 11.98" style="paint-order:fill markers stroke" transform="translate(-2)"/></g><path d="M224.6 228a12.042 12.042 0 0 0 3.724-2.94 12.076 12.076 0 0 0 2.744-6.174" stroke-width="4" style="paint-order:fill markers stroke" transform="translate(-2)"/><path d="M218.5 334.7c.188.383.481.714.84.947.357.233.778.368 1.204.385.433.018.86-.081 1.291-.135.43-.054.886-.059 1.273.135.352.177.607.495.845.808.238.314.48.64.818.84.41.242.91.27 1.385.236s.948-.125 1.422-.098a2.878 2.878 0 0 1 1.706.695c.473.41.804.98.927 1.592M255.3 274.7a3.963 3.963 0 0 1 2.287 1.871c.493.906.611 1.972 1.04 2.911.47 1.029 1.295 1.868 1.733 2.911.365.87.44 1.858.208 2.772" style="paint-order:fill markers stroke" transform="translate(-2)"/><path d="M311 73.04a17.946 17.946 0 0 1 5.475-6.584c2.606-1.92 5.87-3.126 9.078-2.703 2.141.282 4.16 1.28 5.791 2.695 1.631 1.416 2.885 3.236 3.773 5.205a18.228 18.228 0 0 1 1.525 5.749" stroke-width="2.5" style="paint-order:fill markers stroke" transform="translate(-2)"/><path d="M285.6 57.59a6.809 6.809 0 0 1 .485-4.99c.925-1.783 2.651-3.092 4.574-3.673 2.455-.742 5.093-.351 7.623.07 3.983.66 7.984 1.388 11.75 2.84a32.15 32.15 0 0 1 5.643 2.841" stroke-width="2" style="paint-order:fill markers stroke" transform="translate(-2)"/></g><path d="M290 54.73a117.014 117.014 0 0 0-.468 13.076c2.054.548 4.252.548 6.306 0 2.663-.711 4.996-2.292 7.277-3.841 1.611-1.094 3.282-2.248 4.227-3.95.31-.557.535-1.175.546-1.812a2.507 2.507 0 0 0-.156-.937 2.03 2.03 0 0 0-.528-.786c-.315-.283-.719-.452-1.131-.546-.413-.094-.838-.119-1.26-.149a53.958 53.958 0 0 1-2.841-.275 12.11 12.11 0 0 1-1.247 3.638c-.305.572-.659 1.121-1.098 1.597-.44.476-.97.877-1.57 1.118a3.833 3.833 0 0 1-1.864.239 4.32 4.32 0 0 1-1.774-.633c-.985-.615-1.71-1.594-2.148-2.668a7.121 7.121 0 0 1-.416-3.916z" fill="#fff" fill-rule="evenodd" stroke="#fff" stroke-width="2" style="paint-order:fill markers stroke" transform="translate(-2)"/><path d="M269 332.4a54.603 54.603 0 0 1 .816-16.27c.1-.495.209-.992.245-1.496.036-.504-.001-1.022-.184-1.493-.18-.468-.498-.874-.864-1.218-.366-.343-.782-.629-1.197-.91a100.063 100.063 0 0 0-9.507-5.684" fill="none" stroke="#fff" stroke-width="3" style="paint-order:fill markers stroke" transform="translate(-2)"/></g><path d="M4 4v279.9c20.02 260 236.1 309.8 246 311.8 9.96-2.002 226.1-51.99 246-311.8V4z" fill="none" stroke="#000" stroke-width="8"/></svg>