<svg width="500" height="599.8" version="1.0" xml:space="preserve" xmlns="http://www.w3.org/2000/svg"><path d="M4 4v279.9c20.02 260 236.1 309.8 246 311.8 9.96-2.002 226.1-51.99 246-311.8V4z" fill="#094" stroke="#000" stroke-width="8"/><g fill="#fff" fill-rule="evenodd" stroke="#000" stroke-linecap="round" stroke-linejoin="round" stroke-miterlimit="1000"><path d="M167.2 300.5a46.464 46.464 0 0 0-4.365 6.843 46.45 46.45 0 0 0-3.095 7.468 55.812 55.812 0 0 0-12.65-.202c-2.434.239-4.849.637-7.266 1.01-2.911.447-5.902.882-8.477 2.312-1.836 1.021-3.378 2.51-4.688 4.153-2.336 2.93-4.017 6.53-3.996 10.28.018 3.245 1.287 6.331 2.284 9.42 1.212 3.756 2.041 7.625 3.14 11.42 1.033 3.562 2.318 7.136 2.284 10.85-.014 1.56-.264 3.11-.42 4.662-.157 1.554-.22 3.14.134 4.661a8.728 8.728 0 0 0 1.808 3.616 17.286 17.286 0 0 0-1.522 3.806c-.595 2.224-.74 4.555-.57 6.85a25.465 25.465 0 0 0 1.808 7.707c.96-.267 1.89-.652 2.759-1.142 2.069-1.166 3.768-2.912 5.138-4.852 1.208-1.71 2.184-3.599 2.759-5.614.641-2.248.772-4.64.38-6.946a12.028 12.028 0 0 0-5.408-2.569c1.424-1.012 2.846-2.027 4.266-3.045 1.474-1.056 3.003-2.18 3.806-3.806a5.59 5.59 0 0 0 .571-2.664 25.602 25.602 0 0 0-1.735-3.71c-1.234-2.168-2.776-4.14-4.204-6.185a69.283 69.283 0 0 1-2.704-4.186 46.698 46.698 0 0 0 0-17.409 11.73 11.73 0 0 1 2.32-2.093c1.367-.938 2.944-1.583 4.588-1.808 1.612-.22 3.248-.037 4.875 0 5.092.115 10.27-1.2 15.22 0 1.527.37 2.985.972 4.456 1.522a59.864 59.864 0 0 0 5.63 1.808c2.272.602 4.595 1.051 6.945 1.142 2.174.084 4.36-.14 6.472-.666" stroke-width="3" style="paint-order:fill markers stroke"/><path d="M296.3 319.3a24.42 24.42 0 0 0-2.451 7.843c-.714 5.319.39 10.86 3.045 15.52 2.126 3.736 5.186 6.874 8.563 9.533 3.728 2.935 7.914 5.371 11.04 8.944a21.655 21.655 0 0 1 2.664 3.806 212.235 212.235 0 0 0-8.428 10.16c-4.157 5.346-8.057 10.9-11.57 16.69a151.848 151.848 0 0 0-7.522 13.99 30.946 30.946 0 0 0-10.24 4.709 30.978 30.978 0 0 0-9.957 11.73h15.61a8.096 8.096 0 0 0 .807-5.133 27.103 27.103 0 0 1 17.54-6.929 32.976 32.976 0 0 1 1-7.333c.992-3.914 2.702-7.629 4.871-11.03 2.716-4.263 6.143-8.043 9.89-11.44 3.88-3.514 8.106-6.627 12.45-9.554a189.084 189.084 0 0 1 6.795-4.373 13.317 13.317 0 0 0-.403-5.786c-.825-.973-1.632-1.96-2.422-2.96-1.266-1.603-2.504-3.27-3.23-5.18-.927-2.444-.957-5.123-.941-7.737.05-8.291.452-16.58 1.204-24.84" stroke-width="4" style="paint-order:fill markers stroke"/><path d="M176.9 240.3c1.102 0 2.207-.044 3.297-.208.637-.096 1.286-.24 1.817-.605.345-.238.629-.563.816-.938a2.5 2.5 0 0 0 0 0c-.187.374-.47.7-.816.938-.53.364-1.18.509-1.817.605-2.335.353-4.712.156-7.073.127-2.338-.029-4.704.105-6.988-.396-3.885-.852-7.143-3.448-10.02-6.19-2.707-2.575-5.275-5.39-8.544-7.199-2.66-1.472-5.706-2.212-8.746-2.22-1.058-.003-2.118.081-3.173.01s-2.127-.307-3.008-.894c-.957-.637-1.626-1.657-1.95-2.759a6.009 6.009 0 0 1 .38-4.329 28.917 28.917 0 0 1 3.33-.285c1.587-.044 3.173.043 4.758.095 2.473.082 4.948.082 7.42 0-2.472.055-4.947.055-7.42 0-1.586-.035-3.171-.092-4.757-.095-1.117-.002-2.244.025-3.33.285-.748.18-1.464.467-2.2.686-.737.219-1.51.37-2.272.266-1.101-.15-2.103-.854-2.653-1.82-.55-.966-.647-2.168-.297-3.223.396-1.196 1.309-2.15 2.284-2.95 2.946-2.416 6.685-3.817 9.324-6.565.603-.628 1.14-1.318 1.738-1.951.598-.633 1.272-1.216 2.068-1.57.965-.427 2.053-.494 3.045-.855.897-.327 1.69-.883 2.474-1.427 2.305-1.601 4.675-3.172 7.326-4.091 2.106-.73 4.339-1.03 6.565-1.142 2.794-.141 5.616.004 8.373-.476 2.455-.428 4.793-1.341 7.136-2.188 3.16-1.144 6.379-2.182 9.705-2.664 5.494-.796 11.22-.02 16.27 2.284 3.088 1.407 5.915 3.369 8.373 5.709 3.238 3.083 5.867 6.835 9.515 9.419.845.599 1.742 1.132 2.52 1.816s1.446 1.549 1.666 2.56c.162.748.073 1.524 0 2.285-.21 2.185-.266 4.482.666 6.47.836 1.784 2.372 3.12 3.806 4.472 1.61 1.518 3.18 3.176 3.996 5.233.526 1.329.714 2.764.856 4.186.069.687.13 1.383.358 2.035.113.326.27.639.478.914s.474.51.782.666c.523.268 1.13.294 1.713.381 2.147.323 4.063 1.534 5.709 2.95a23.364 23.364 0 0 1 5.138 6.28 12.046 12.046 0 0 1 4.428.4c2.902.824 5.39 2.704 8.214 3.769 2.204.83 4.575 1.148 6.93 1.21 4.152.111 8.33-.55 12.45 0 2.37.318 4.67 1.03 6.93 1.818 1.864.649 3.718 1.353 5.65 1.749 2.417.496 4.95.497 7.334-.135 1.862-.494 3.658-1.372 5.584-1.413 1.939-.04 3.779.772 5.65 1.278 3.096.837 6.35.842 9.555.74 3.436-.109 6.898-.332 10.29.202a22.65 22.65 0 0 1 7.939 2.826c2.28 1.341 4.31 3.09 6.66 4.306 1.758.91 3.682 1.508 5.652 1.682 1.057.093 2.122.065 3.18.138 1.06.073 2.13.254 3.077.737 1.31.668 2.267 1.849 3.229 2.96 2.619 3.022 5.583 5.78 7.737 9.15 1.666 2.605 2.807 5.515 4.44 8.14 2.719 4.372 6.696 7.796 10.7 11.03 3.404 2.757 6.878 5.437 10.56 7.805a76.398 76.398 0 0 0 5.517 3.229 2.674 2.674 0 0 1-.942-2.153c.034-.676.331-1.32.753-1.848.422-.529.964-.95 1.534-1.314 1.297-.83 2.775-1.391 4.306-1.547 1.317-.135 2.673.034 3.89.557 1.217.522 2.287 1.405 2.972 2.538.856 1.416 1.074 3.176.716 4.79s-1.268 3.084-2.465 4.226c-2.044 1.949-4.913 2.943-7.737 2.893-3.77-.068-7.28-1.865-10.5-3.835-5.392-3.303-10.39-7.201-15.36-11.11a1933.42 1933.42 0 0 1-16.3-12.97c6.042 4.148 10.27 10.85 11.4 18.09.814 5.195.097 10.5-.666 15.7-.528 3.595-1.08 7.227-.761 10.85.268 3.058 1.178 6.087 2.854 8.658 2.03 3.115 5.065 5.413 7.992 7.707a273.894 273.894 0 0 1 6.926 5.609 9.834 9.834 0 0 1-.59 5.794 21.927 21.927 0 0 0-3.229 2.537c-2.62 2.489-4.605 5.623-5.853 9.015a25.785 25.785 0 0 0-1.06 13.96l-2.504 1.075a30.236 30.236 0 0 0-.472 7.03 30.265 30.265 0 0 0 2.086 9.622 5.53 5.53 0 0 1-1.211 3.229c-.555.688-1.265 1.23-1.915 1.83-.65.601-1.258 1.293-1.516 2.139-.225.735-.166 1.525-.068 2.287.214 1.657.602 3.34.27 4.979-.246 1.21-.902 2.347-1.884 3.095-.75.57-1.677.904-2.618.942a13.214 13.214 0 0 0-2.966 6.324 8735.763 8735.763 0 0 0-14.802.336 46.334 46.334 0 0 1 8.41-10.227 42.655 42.655 0 0 1 6.727-18.099 62.809 62.809 0 0 1-.874-12.24c.149-5.591 1.044-11.14 2.153-16.62.413-2.042.859-4.11.721-6.19-.123-1.868-.718-3.685-1.576-5.348s-1.976-3.181-3.184-4.611c-6.18-7.318-14.6-12.3-22.64-17.51-7.203-4.659-14.4-9.773-19.12-16.94-4.678-7.096-6.56-15.69-7.23-24.17a96.54 96.54 0 0 1-.286-9.324c-.05 3.11.046 6.223.285 9.324.432 5.588 1.343 11.18 3.347 16.42a41.154 41.154 0 0 0 6.442 11.17 336.677 336.677 0 0 0-10.93-1.897c-5.863-.92-11.89-1.68-17.7-.476-4.23.877-8.17 2.76-12.18 4.373-2.778 1.118-5.62 2.115-8.563 2.668-4.938.927-10.01.581-15.03.761-5.578.2-11.12 1.054-16.54 2.385-2.942.723-5.866 1.588-8.88 1.884a23.95 23.95 0 0 1-10.9-1.48 13.612 13.612 0 0 1-2 6.324 13.597 13.597 0 0 1-3.652 3.902v27.18c-.362 1.024-.86 2-1.48 2.893a12.283 12.283 0 0 1-3.835 3.566 52.04 52.04 0 0 0 .202 5.72c.312 3.446.968 6.853 1.346 10.29.305 2.768.429 5.561.27 8.342-.109 1.884-.347 3.766-.27 5.651a17 17 0 0 0 1.11 5.382l-3.33 3.7c-.973 1.08-1.95 2.165-2.766 3.368-.816 1.203-1.474 2.536-1.74 3.966-.221 1.176-.174 2.391-.404 3.566-.398 2.028-1.601 3.82-3.028 5.315a18.87 18.87 0 0 1-2.086 1.884 26.072 26.072 0 0 1-11.706-1.144 136.7 136.7 0 0 1 2.422-5.382c1.297-2.723 2.7-5.429 4.642-7.737.82-.974 1.73-1.87 2.642-2.758a352.964 352.964 0 0 1 4-3.835c.127-1.816.245-3.632.354-5.45.275-4.557.49-9.167-.336-13.66-.386-2.098-.997-4.152-1.346-6.257-.43-2.596-.457-5.24-.404-7.872.035-1.699.102-3.398.202-5.095a9.256 9.256 0 0 1-2.222-3.248c-.792-1.952-.892-4.103-1.06-6.202-.266-3.324-.725-6.635-1.427-9.895-.78-3.62-1.865-7.242-1.713-10.94.031-.757.114-1.513.1-2.27-.015-.757-.133-1.528-.48-2.2-.311-.603-.79-1.1-1.302-1.546-.51-.445-1.059-.846-1.553-1.309-1.913-1.794-2.872-4.383-3.425-6.946-.545-2.527-.759-5.137-.475-7.707a20.258 20.258 0 0 1 2.379-7.517 21.374 21.374 0 0 0-2.38 7.517 21.375 21.375 0 0 0 .476 7.707 68.222 68.222 0 0 1-6.8-7.535c-1.292-1.664-2.518-3.408-3.306-5.36-.726-1.8-1.07-3.753-1.978-5.468-1.215-2.3-3.33-3.98-4.852-6.089-1.328-1.84-2.185-3.988-2.759-6.184-.825-3.158-1.086-6.442-1.047-9.705.036-2.998.323-5.993.857-8.944l-3.564-.027c-.13-3.745-.084-7.495.134-11.24.279-4.764.85-9.556 2.422-14.06a32.884 32.884 0 0 1 8.334-12.92c1.258.04 2.517.081 3.776.081h0z" stroke-width="4" style="paint-order:fill markers stroke"/></g><g stroke="#000" stroke-linecap="round" stroke-linejoin="round" stroke-miterlimit="1000"><g fill="none"><path d="M356 416.4c1.66-.128 3.347.104 4.911.673 1.676.61 3.21 1.608 4.446 2.893" stroke-width="3" style="paint-order:fill markers stroke"/><g stroke-width="4"><path d="M303.3 278.3a30.148 30.148 0 0 1 7.326 7.041M212.1 313.7a26.382 26.382 0 0 0 1.615 3.603c1.306 2.412 2.981 4.608 4.324 6.999 1.077 1.918 1.951 4.019 2 6.217.05 2.244-.772 4.445-2 6.324a15.555 15.555 0 0 1-3.651 3.902M185.7 327.8a52.07 52.07 0 0 1-5.994-6.47c-2.761-3.541-5.091-7.516-6.089-11.89a21.99 21.99 0 0 1 .856-12.56" style="paint-order:fill markers stroke"/></g><path d="M131.9 205.4c1.932.09 3.862.229 5.787.418.603.06 1.21.124 1.814.071.604-.052 1.212-.23 1.685-.609.542-.434.861-1.089 1.076-1.749a8.141 8.141 0 0 0-.078-5.233" stroke-width="3" style="paint-order:fill markers stroke"/><path d="M189.7 196.3a10.63 10.63 0 0 1 2.284 3.998c.755 2.444.6 5.066.38 7.614-.204 2.374-.46 4.752-.38 7.133.04 1.212.168 2.421.38 3.616l1.57-.904a66.243 66.243 0 0 0 0 4.662c.09 2.551.352 5.18 1.57 7.421.403.74.909 1.43 1.54 1.988s1.395.979 2.219 1.152c.7.148 1.433.114 2.125-.067a5.716 5.716 0 0 0 1.919-.932c1.48-1.087 2.43-2.758 3.092-4.472.897-2.323 1.345-4.799 1.57-7.279a42.792 42.792 0 0 0-1.19-14.56" stroke-width="4" style="paint-order:fill markers stroke"/><path d="M164.6 208.4a15.982 15.982 0 0 0 9.486 1.682" stroke-width="3" style="paint-order:fill markers stroke"/><path d="M180.9 203.4a6.995 6.995 0 0 0-3.297-5.046c-1.005-.601-2.159-.94-3.327-1.026-1.168-.087-2.349.074-3.468.42a10.795 10.795 0 0 0-6.19 5.047" stroke-width="4" style="paint-order:fill markers stroke"/><path d="M165.4 201.6a24.9 24.9 0 0 1 2.275 1.665c.692.57 1.367 1.186 2.187 1.547.994.438 2.134.464 3.196.235.378-.081.75-.194 1.11-.336" stroke-width="3" style="paint-order:fill markers stroke"/></g><path d="M169.9 204.8a8.493 8.493 0 0 0 1.884-1.417 8.587 8.587 0 0 0 2.492-6.001 10.36 10.36 0 0 0-3.468.42 10.421 10.421 0 0 0-5.37 3.785" fill-rule="evenodd" stroke-width="2" style="paint-order:fill markers stroke"/><path d="M183.1 244.6a13.189 13.189 0 0 0 4.589-.135" fill="#fff" fill-rule="evenodd" stroke-width="2" style="paint-order:fill markers stroke"/><g fill="none"><g stroke-width="3"><path d="M201.4 250.9a23.164 23.164 0 0 1 2.624 4.373c.438.956.811 1.943 1.076 2.96.747 2.867.604 5.96-.404 8.746M221.7 235.1a16.272 16.272 0 0 1 1.951 7.548c.042 4.339-1.748 8.666-4.844 11.71M230.9 240.1a6.421 6.421 0 0 1-.336-2.624 6.454 6.454 0 0 1 1.668-3.815M233.2 246.8a8.97 8.97 0 0 1 1.974 4.373 9.037 9.037 0 0 1-1.974 7.064M228.3 260.2a12.083 12.083 0 0 1 3.111 6.391c.544 3.549-.609 7.32-3.044 9.957a41.416 41.416 0 0 1 .27 9.688M216.2 262.9a13.368 13.368 0 0 1 2.96 7.535 13.38 13.38 0 0 1-2.153 8.141M213.7 287.3a12.438 12.438 0 0 1 1.884 4.584c.464 2.43.179 4.997-.807 7.266" style="paint-order:fill markers stroke"/></g><path d="M357.8 294.6a11.87 11.87 0 0 1 2.826 4.642c.718 2.208.766 4.628.135 6.862M360.6 314.9a15.442 15.442 0 0 1-.202 7.603" stroke-width="2" style="paint-order:fill markers stroke"/><path d="M193.7 417.3a9.9 9.9 0 0 1 6.185.459 9.873 9.873 0 0 1 3.974 3.04M287.8 417.1a12.78 12.78 0 0 1-3.759-2 12.788 12.788 0 0 1-3.441-4.053" stroke-width="3" style="paint-order:fill markers stroke"/></g></g><g stroke="#000"><path d="M208.7 464.7c-3.424 3.56-7.218 6.759-11.27 9.586a81.387 81.387 0 0 1-8.179 5.019 79.669 79.669 0 0 0 14.01-9.515c4.254-3.608 8.131-7.672 11.42-12.18 2.551-3.498 4.741-7.256 7.421-10.66 4.929-6.253 11.36-11.11 17.51-16.17 4.147-3.413 8.361-7.039 13.51-8.562 3.708-1.097 7.654-1.021 11.51-.762 3.617.242 7.224.638 10.85.762 2.593.089 5.192.038 7.778.244 2.586.205 5.182.676 7.541 1.756 3.489 1.597 6.243 4.41 9.039 7.038 2.425 2.279 4.966 4.489 6.851 7.231 2.016 2.934 3.191 6.347 4.44 9.681a187.17 187.17 0 0 0 11.03 24.09 186.185 186.185 0 0 1-11.034-24.08 26.068 26.068 0 0 1 4.789-9.586c2.59-3.261 5.937-5.859 9.515-7.992 3.817-2.276 7.978-4.07 12.37-4.757 6.758-1.058 13.63.54 20.47.493 3.169-.021 6.351-.396 9.497-.017 4.079.49 7.902 2.226 11.51 4.186 5.874 3.189 11.48 7.128 15.51 12.46 3.97 5.264 6.193 11.6 8.658 17.71a204.755 204.755 0 0 0 14.35 28.82 328.416 328.416 0 0 1-68.83 61.66 328.722 328.722 0 0 1-98.94 44.51c-37.3-9.77-72.85-26.19-104.5-48.26a328.105 328.105 0 0 1-61.8-56.11 43.707 43.707 0 0 0 13.12-10.46c2.885-3.396 5.229-7.208 7.802-10.85 5.175-7.318 11.33-13.98 18.46-19.41 5.782-4.401 12.16-7.96 18.65-11.23 8.764-4.413 18-8.383 27.78-9.134 5.679-.436 11.38.227 17.08.13 1.978-.035 3.957-.16 5.933-.07s3.968.405 5.774 1.213c2.91 1.302 5.122 3.775 7.017 6.338a55.929 55.929 0 0 1 9.296 19.79 71.157 71.157 0 0 1-5.976 7.088z" fill="#fcdb00" fill-rule="evenodd" stroke-linecap="round" stroke-linejoin="round" stroke-miterlimit="1000" stroke-width="4" style="paint-order:fill markers stroke"/><path fill="#1c63b7" fill-rule="evenodd" stroke-linecap="round" stroke-linejoin="round" stroke-miterlimit="1000" stroke-width="4" style="paint-order:fill markers stroke" d="M4 4h492v163.9H4z"/><path d="M4 4v279.9c20.02 260 236.1 309.8 246 311.8 9.96-2.002 226.1-51.99 246-311.8V4z" fill="none" stroke-width="8"/></g></svg>