<svg width="500" height="600.1" version="1.0" xml:space="preserve" xmlns="http://www.w3.org/2000/svg"><path d="M4 4v280c20 260 236 310 246 312 10-2 226-52 246-312V4z" fill="#1c63b7" stroke="#000" stroke-width="8"/><g stroke="#000" stroke-linecap="round" stroke-linejoin="round" stroke-width="4"><path d="M250 596c-51.57-13.33-99.72-39.65-138.8-75.84-30.93-28.65-56.17-63.42-73.83-101.7a109.449 109.449 0 0 1 21.13-8.242c6.376-1.75 12.97-2.943 18.93-5.808 5.24-2.52 9.823-6.269 13.77-10.54 3.495-3.785 6.649-8.1 11.19-10.54 3.545-1.906 7.704-2.498 11.71-2.116 4.007.382 7.878 1.695 11.52 3.407a52.798 52.798 0 0 1 13.3 8.911c1.083.998 2.124 2.044 3.284 2.952 1.159.908 2.453 1.68 3.879 2.045.38.097.766.165 1.14.28.374.116.74.284 1.025.553.275.26.461.603.575.964.113.36.156.74.175 1.118.023.478.009.957.038 1.435.028.477.103.959.295 1.397.218.498.583.924 1.008 1.264s.91.598 1.407.818c1.774.784 3.726 1.091 5.663 1.166 3.015.116 6.09-.308 9.018.422 2.856.712 5.35 2.482 7.439 4.556a28.12 28.12 0 0 1 5.94 8.708c.806 1.852 1.413 3.782 2.018 5.709.55 1.75 1.127 3.552 2.307 4.959a7.103 7.103 0 0 0 3.69 2.307c.772.193 1.57.254 2.365.288.483.02.97.03 1.45-.028.48-.059.957-.189 1.375-.433.602-.354 1.05-.928 1.369-1.55.318-.623.517-1.297.724-1.964 1.445-4.67 3.308-9.205 5.428-13.61 6.52-13.55 15.54-25.93 26.71-35.99 4.589-4.13 9.624-7.917 15.41-10.09 5.78-2.17 12.42-2.582 18.06-.067 5.262 2.348 9.124 6.916 13.28 10.9 4.366 4.187 9.303 7.943 12.49 13.08 1.654 2.668 2.78 5.627 3.742 8.615 1.064 3.305 1.943 6.682 3.36 9.852 3.14 7.015 8.958 12.79 15.99 15.88-.159-2.522.076-5.068.693-7.518.917-3.641 2.698-7.08 5.25-9.835 2.789-3.011 6.494-5.172 10.5-6.063 2.612-.581 5.31-.63 7.986-.666 2.366-.032 4.732-.056 7.099-.074a43.92 43.92 0 0 1-.181-4.91c.028-1.51.142-3.05.714-4.448.807-1.97 2.497-3.512 4.447-4.368 2.184-.959 4.635-1.106 6.91-1.827 2.682-.85 5.047-2.472 7.287-4.176 2.24-1.704 4.415-3.523 6.894-4.856 5.078-2.732 11.19-3.229 16.82-1.972 5.628 1.256 10.79 4.173 15.24 7.851 3.002 2.486 5.7 5.321 8.677 7.838 2.478 2.094 5.143 3.962 7.92 5.642 6.617 4.006 13.82 6.925 20.79 10.29a175.767 175.767 0 0 1 23.53 13.73c-16.77 34.7-39.8 66.36-67.66 92.99-39.72 37.97-89.28 65.55-142.5 79.3" fill="#fcdb00"/><path d="M309.6 429.1c1.647.842 3.308 1.656 4.981 2.444 3.574 1.682 7.205 3.239 10.76 4.965 4.68 2.273 9.313 4.91 12.76 8.81 3.547 4.018 5.649 9.285 5.842 14.64M193 434a35.874 35.874 0 0 1 7.216 6.463c1.511 1.776 2.862 3.728 3.645 5.924.825 2.314.996 4.83 1.914 7.109.87 2.16 2.37 4.002 3.919 5.742 1.815 2.039 3.728 3.99 5.559 6.015 2.742 3.032 5.3 6.229 7.655 9.569" fill="none"/></g><g stroke="#000" stroke-linecap="round" stroke-linejoin="round" stroke-width="4"><path d="M95.82 268.9a816.848 816.848 0 0 0-.464 47.3c.203 10.6.613 21.19.85 31.79.221 9.854.293 19.71.217 29.57a93.554 93.554 0 0 0-12.68 15.38 93.751 93.751 0 0 0-7.016 12.68c.582.305 1.243.46 1.901.444a3.91 3.91 0 0 0 1.877-.534c.754-.442 1.335-1.123 1.89-1.799 1.173-1.432 2.325-2.932 3.867-3.958 1.701-1.132 3.75-1.603 5.577-2.519 2.223-1.114 4.063-2.858 5.757-4.677a62.47 62.47 0 0 0 3.598-4.228 40.808 40.808 0 0 0 .689 11.32c.559 2.753 1.409 5.461 2.713 7.95a23.606 23.606 0 0 0 5.06 6.531 90.33 90.33 0 0 1-1.373-14.17c-.065-3.615.13-7.389 1.879-10.55a11.837 11.837 0 0 1 6.072-5.277 57.675 57.675 0 0 1 18.51 11.19l3.568.51c.723.103 1.449.276 2.077.65.627.375 1.146.907 1.746 1.324a5.21 5.21 0 0 0 4.205.765 73.926 73.926 0 0 0-13.95-14.21 73.773 73.773 0 0 0-14.15-8.601 463.796 463.796 0 0 1-1.796-26.44c-.505-12.85-.473-25.72-.34-38.59.145-14.13.413-28.25.803-42.37" fill="#7a3f28"/><g fill="#094"><path d="M86.2 218.5a68.079 68.079 0 0 1-9.144 29.46c-3.754 6.4-8.637 12.24-14.79 16.39-7.16 4.827-15.94 7.201-24.56 6.639a10.72 10.72 0 0 0 4.778 4.399 10.727 10.727 0 0 0 6.98.683 20.416 20.416 0 0 0-4.325 8.574c1.933.454 3.948.557 5.918.303a16.691 16.691 0 0 0 7.208-2.73 9.764 9.764 0 0 0-.076 4.427 9.763 9.763 0 0 0 2.076 4.221 17.776 17.776 0 0 0 7.408-7.215v5.623c0 .732.016 1.468.176 2.182.16.714.459 1.397.886 1.991a35.529 35.529 0 0 0 10.318-11.229 10.731 10.731 0 0 0 3.298 5.614 26.333 26.333 0 0 0 4.162-4.18 26.315 26.315 0 0 0 3.531-5.9 12.883 12.883 0 0 0 5.65 6.375 10.032 10.032 0 0 0 3.425-3.188 10.067 10.067 0 0 0 1.66-5.75l5.048 4.3 4.87-4.6a11.951 11.951 0 0 0 2 6.05 11.9 11.9 0 0 0 3.286 3.273 14.442 14.442 0 0 0 5.72-5.892 27.374 27.374 0 0 0 8.366 9.512 8.256 8.256 0 0 0 2.362-5.284 28.3 28.3 0 0 0 10.367 10.667c.502-.909.902-1.874 1.192-2.87.552-1.903.696-3.923.42-5.884a13.337 13.337 0 0 0 3.852 4.377 13.313 13.313 0 0 0 4.062 1.996 10.069 10.069 0 0 0 1.357-3.715 10.086 10.086 0 0 0-.387-4.658 18.634 18.634 0 0 0 6.342 2.335c2.45.421 4.986.343 7.406-.226a27.141 27.141 0 0 0-4.761-7.934c2.334.052 4.68-.482 6.76-1.541a14.245 14.245 0 0 0 4.576-3.697c-9.776.105-19.55-3.367-27.07-9.615-5.084-4.225-9.116-9.638-12.11-15.53a59.087 59.087 0 0 1-6.362-28.55"/><path d="M84.83 165.6c2.429 15.33-2.657 31.66-13.36 42.9-3.287 3.453-7.099 6.46-11.43 8.448-5.912 2.713-12.72 3.427-19.07 2a9.584 9.584 0 0 0 1.549 3.873 9.578 9.578 0 0 0 2.479 2.479 18.313 18.313 0 0 1-8.365 7.281 19.957 19.957 0 0 0 11.636.969 12.095 12.095 0 0 0-2.357 6.488 8.658 8.658 0 0 0 4.357 2 8.723 8.723 0 0 0 6.755-1.882l.647 4.292c.076.508.161 1.016.32 1.505.157.488.385.955.68 1.376a26.47 26.47 0 0 0 8.297-3.198 26.526 26.526 0 0 0 7.981-7.337 5.622 5.622 0 0 0 2 3.12c.892.696 2 1.11 3.13 1.17a9.63 9.63 0 0 0 2-3.775 9.645 9.645 0 0 0 0-4.981 13.51 13.51 0 0 0 4.748 4.078 29.28 29.28 0 0 0 7.293-11.91 21.49 21.49 0 0 0 6.663 5.404 25.012 25.012 0 0 1 5.162-7.201 52.44 52.44 0 0 1 5.514 7.752 24.452 24.452 0 0 0 6.214-5.955 19.376 19.376 0 0 0 2.81 7.098 19.35 19.35 0 0 0 4.572 4.905 14.23 14.23 0 0 0 4.095-4.23 8.58 8.58 0 0 0 .8 6.553 8.522 8.522 0 0 0 2.492 2.723 9.378 9.378 0 0 0 2.677-2.446 9.351 9.351 0 0 0 1.384-2.723 23.424 23.424 0 0 0 7.332 7.169 23.41 23.41 0 0 0 9.631 3.323l.558-2.937c.244-1.285.401-2.602.21-3.896a9.483 9.483 0 0 0 5.152 2.178 9.509 9.509 0 0 0 6.41-1.718 10.615 10.615 0 0 0-.277-3.262 10.613 10.613 0 0 0-1.57-3.498 13.03 13.03 0 0 0 6.258.64 13.007 13.007 0 0 0 4.855-1.735 26.78 26.78 0 0 1-8.3-6.944 10.303 10.303 0 0 0 2.744-2.936 10.28 10.28 0 0 0 1.407-3.783c-7.284 2.371-15.6 1.328-22.07-2.769-3.813-2.413-6.941-5.775-9.678-9.362-9.155-12-14.3-27-14.44-42.1"/><path d="M87.64 135.6a35.106 35.106 0 0 1-3.593 19.97 35.074 35.074 0 0 1-14.11 14.58c-6.531 3.625-14.25 5.07-21.65 4.054a11.712 11.712 0 0 0 4.679 6.368 11.172 11.172 0 0 1-4.122 2.824 11.208 11.208 0 0 1-6.831.42 8.072 8.072 0 0 0 3.854 4.618 8.073 8.073 0 0 0 5.992.61 19.512 19.512 0 0 0-3.37 8.353c1.943-.112 3.864-.6 5.626-1.428a15.365 15.365 0 0 0 4.027-2.749 28.177 28.177 0 0 0 .293 9.205 19.815 19.815 0 0 0 6.159-2.135 19.879 19.879 0 0 0 7.419-7.07 14.538 14.538 0 0 0 .555 5.72 14.523 14.523 0 0 0 2.208 4.384 23.543 23.543 0 0 1 3.574-6.477 23.563 23.563 0 0 1 5.08-4.819 6.5 6.5 0 0 0 2.207 4.172 27.59 27.59 0 0 0 5.492-7.893 27.579 27.579 0 0 0 2.4-8.828 16.446 16.446 0 0 1 5.83 7.784 18.438 18.438 0 0 0 3.281-6.503c.6-2.188.801-4.504 1.758-6.562a9.661 9.661 0 0 1 1.29-2.05 51.834 51.834 0 0 0 7.03 14.821 9.404 9.404 0 0 1 1.64-4.51 9.407 9.407 0 0 1 3.924-3.223 21.44 21.44 0 0 0 2.52 9.733 21.429 21.429 0 0 0 5.8 6.847 12.884 12.884 0 0 0 1.74-4.072l4.916 5.025c1.842 1.883 3.56 3.95 4.538 6.395a20.916 20.916 0 0 0 2-10.212 16.74 16.74 0 0 0 6.562 7.014 16.699 16.699 0 0 0 7.426 2.218 35.37 35.37 0 0 0 0-9.335l4.848 2.888c.751.448 1.52.882 2.357 1.136s1.729.333 2.594.206a18.615 18.615 0 0 0-3.61-8.097c1.675.72 3.63.766 5.337.125a7.252 7.252 0 0 0 4.273-4.454 12.5 12.5 0 0 1-6.591-.955 12.477 12.477 0 0 1-4.172-3 17.905 17.905 0 0 0 4.853-6.136c-7.792 1.366-16.07-.237-22.79-4.414-5.701-3.544-10.26-8.899-12.84-15.09s-3.19-13.2-1.7-19.75"/><path d="M80.02 108.5c-2.492 10.09-10.08 18.79-19.74 22.62a32.975 32.975 0 0 1-16.63 2 14.415 14.415 0 0 0 4.348 3.856 14.408 14.408 0 0 0 4.84 1.723 28.694 28.694 0 0 1-6.691 7.799c2.057.54 4.236.608 6.323.198a14.192 14.192 0 0 0 4.989-2.025 19.656 19.656 0 0 1-1.087 5.78 19.676 19.676 0 0 1-2.816 5.286 44.965 44.965 0 0 0 17.986-6.373l-1.285 5.165c-.379 1.522-.802 3.036-1.396 4.487a19.362 19.362 0 0 0 7.024-2.99 19.323 19.323 0 0 0 4.08-3.768 9.751 9.751 0 0 0 4.531 2.784 47.272 47.272 0 0 0 3.167-7.239 14.655 14.655 0 0 0 2 2.926 14.524 14.524 0 0 0 1.826 1.745 13.425 13.425 0 0 1 2-5.476 13.414 13.414 0 0 1 4.092-4.072 10.823 10.823 0 0 0 .54 4.389 10.8 10.8 0 0 0 1.46 2.823l3.424-4.335c1.022-1.294 2.027-2.603 2.96-3.963a18.035 18.035 0 0 0 3.502 5.574 18.03 18.03 0 0 0 3.354 2.844 90.161 90.161 0 0 0 2-7.924 30.385 30.385 0 0 1 5.701 9.924 41.607 41.607 0 0 0 3.847-4.962 13.543 13.543 0 0 1 2 3.377c.622 1.518.964 3.15 1.004 4.79a38.175 38.175 0 0 0 4.667-3.205 14.252 14.252 0 0 0 4.285 4.014 14.276 14.276 0 0 0 6.565 2.031 21.013 21.013 0 0 0-2.692-8.526 41.596 41.596 0 0 0 8.17 3.708 41.6 41.6 0 0 0 9.94 1.969 21.88 21.88 0 0 1-2.687-5.196 21.838 21.838 0 0 1-1.21-5.722 13.187 13.187 0 0 0 5.898 2.217c1.747.206 3.535.057 5.223-.437a91.772 91.772 0 0 1-6.114-6.92 10.673 10.673 0 0 0 5.889-2.35 10.625 10.625 0 0 0 2.833-3.577c-6.074.97-12.42.132-18.04-2.38-9.642-4.313-16.83-13.71-18.47-24.14"/><path d="M94.92 84.28c-5.051 9.197-14.49 15.85-24.85 17.52-5.687.917-11.6.385-17.03-1.531a19.695 19.695 0 0 0 3.855 7.889 19.65 19.65 0 0 0 5.011 4.394 53.564 53.564 0 0 1-4.009 7.015c1.793.226 3.62.174 5.397-.154a17.625 17.625 0 0 0 4.78-1.62 11.022 11.022 0 0 0 5.474 6.09 19.37 19.37 0 0 0 7.015-6.166 10.806 10.806 0 0 0 3.161 6.707 15.438 15.438 0 0 0 5.011-3.354 15.428 15.428 0 0 0 3.084-4.433 15.078 15.078 0 0 0 5.105 6.375 70.018 70.018 0 0 0 8.752-9.94 31.698 31.698 0 0 0 9.508 9.779 46.231 46.231 0 0 0 4.656-6.203 13.112 13.112 0 0 0 3.984 5.333 13.087 13.087 0 0 0 4.536 2.329 59.59 59.59 0 0 0 2-6.681 16.04 16.04 0 0 0 3.762 3.678 16.038 16.038 0 0 0 4.78 2.268 11.99 11.99 0 0 0 4.781-6.007 12.69 12.69 0 0 0 5.15 2.182 12.68 12.68 0 0 0 4.475 0 92.663 92.663 0 0 0-3.126-6.963 22.344 22.344 0 0 0 8.582-11.892 39.944 39.944 0 0 1-15.25.955c-11.38-1.493-21.98-8.177-28.22-17.8"/><path d="M129.5 83.48a13.07 13.07 0 0 0 4.585-3.262 35.774 35.774 0 0 1-17.16-7.185 35.817 35.817 0 0 1-10.97-14.32 41.376 41.376 0 0 1-12.32 14.3 41.422 41.422 0 0 1-16.18 7.096 14.068 14.068 0 0 0 5.148 3.211c2.087.738 4.35.972 6.544.677a24.658 24.658 0 0 1-4.287 5.528 24.673 24.673 0 0 1-6.261 4.4 7.63 7.63 0 0 0 2.99 2.595c1.442.699 3.12.923 4.682.564 1.848-.425 3.418-1.609 4.877-2.82a70.85 70.85 0 0 0 5.051-4.626 27.859 27.859 0 0 0 .96 9.618 41.673 41.673 0 0 0 8.745-7.819 23.8 23.8 0 0 0 8.747 7.819l.426-4.286c.174-1.76.285-3.532.141-5.294a52.28 52.28 0 0 0 6.145 5.671c.94.737 1.91 1.445 2.981 1.97 1.072.525 2.255.863 3.448.82a5.713 5.713 0 0 0 3.293-1.201 5.703 5.703 0 0 0 1.954-2.91 22.025 22.025 0 0 1-6.476-4.35 22.023 22.023 0 0 1-4.018-5.293c2.34.338 4.771.024 6.95-.899z"/></g></g><g stroke="#000" stroke-linecap="round" stroke-linejoin="round" stroke-width="4"><path d="M235.4 260.4c.153 9.564.153 19.13 0 28.69-.18 11.34-.223 22.68.266 34.01l1.718 39.85a29.678 29.678 0 0 1-5.181 7.354c-2.898 3.012-6.395 5.374-9.544 8.122-3.2 2.792-6.034 5.981-8.63 9.341-2.315 2.996-4.477 6.2-5.571 9.825a18.836 18.836 0 0 0-.319 9.631l4.935-7.004c1.163-1.651 2.37-3.29 3.86-4.655a15.5 15.5 0 0 1 5.134-3.145l-.636 7.004c-.116 1.266-.194 2.552.061 3.797a7.17 7.17 0 0 0 1.69 3.367 26.441 26.441 0 0 0 3.581-5.253c1.264-2.442 2.14-5.068 2.865-7.721.89-3.255 1.584-6.624 3.263-9.551 2.404-4.193 6.83-7.163 11.62-7.8.348 1.939.656 3.884.923 5.836.595 4.346.988 8.745.631 13.12-.256 3.138-.897 6.252-.841 9.399.039 2.234.429 4.446.7 6.664.672 5.469.624 11.03-.14 16.48a12.491 12.491 0 0 0 4.217-4.489c1.732-3.144 2.023-6.863 2.097-10.45.07-3.439-.023-6.881-.281-10.31l4.183 3.419c1.932 1.579 3.827 3.211 5.544 5.022.343-1.981.393-4.012.148-6.007-.357-2.905-1.336-5.711-2.66-8.321-1.364-2.693-3.101-5.207-4.184-8.026a19.085 19.085 0 0 1-.591-11.77 5.006 5.006 0 0 1 3.462-2 67.884 67.884 0 0 0 16.074 11.5 92.733 92.733 0 0 1 17.147 21.651c.508-2.605.693-5.274.546-7.924-.226-4.117-1.28-8.245-3.484-11.73-3.24-5.125-8.61-8.425-13.53-11.97-3.842-2.774-7.52-5.814-10.63-9.387a43.435 43.435 0 0 1-4.737-6.589l-1.128-35.69c-.397-12.58-.68-25.16-1.053-37.74-.24-8.12-.549-16.24-.926-24.35" fill="#7a3f28"/><g fill="#094"><path d="M228.7 214.223a68.079 68.079 0 0 1-9.144 29.46c-3.754 6.4-8.637 12.24-14.79 16.39-7.16 4.827-15.94 7.201-24.56 6.639a10.72 10.72 0 0 0 4.778 4.399 10.727 10.727 0 0 0 6.98.683 20.416 20.416 0 0 0-4.325 8.574c1.933.454 3.948.557 5.918.303a16.691 16.691 0 0 0 7.208-2.73 9.764 9.764 0 0 0-.076 4.427 9.763 9.763 0 0 0 2.076 4.221 17.776 17.776 0 0 0 7.408-7.215v5.623c0 .732.016 1.468.176 2.182.16.714.459 1.397.886 1.991a35.529 35.529 0 0 0 10.318-11.229 10.731 10.731 0 0 0 3.298 5.614 26.333 26.333 0 0 0 4.162-4.18 26.315 26.315 0 0 0 3.531-5.9 12.883 12.883 0 0 0 5.65 6.375 10.032 10.032 0 0 0 3.425-3.188 10.067 10.067 0 0 0 1.66-5.75l5.048 4.3 4.87-4.6a11.951 11.951 0 0 0 2 6.05 11.9 11.9 0 0 0 3.286 3.273 14.442 14.442 0 0 0 5.72-5.892 27.374 27.374 0 0 0 8.366 9.512 8.256 8.256 0 0 0 2.362-5.284 28.3 28.3 0 0 0 10.367 10.667c.502-.909.902-1.874 1.192-2.87.552-1.903.696-3.923.42-5.884a13.337 13.337 0 0 0 3.852 4.377 13.313 13.313 0 0 0 4.062 1.996 10.069 10.069 0 0 0 1.357-3.715 10.086 10.086 0 0 0-.387-4.658 18.634 18.634 0 0 0 6.342 2.335c2.45.421 4.986.343 7.406-.226a27.141 27.141 0 0 0-4.761-7.934c2.334.053 4.68-.482 6.76-1.541a14.245 14.245 0 0 0 4.576-3.697c-9.776.105-19.55-3.367-27.07-9.615-5.084-4.225-9.116-9.638-12.11-15.53a59.087 59.087 0 0 1-6.362-28.55"/><path d="M228.63 155.924c2.429 15.33-2.657 31.66-13.36 42.9-3.287 3.453-7.099 6.46-11.43 8.448-5.912 2.713-12.72 3.427-19.07 2a9.584 9.584 0 0 0 1.549 3.873 9.578 9.578 0 0 0 2.479 2.479 18.313 18.313 0 0 1-8.365 7.281 19.957 19.957 0 0 0 11.636.969 12.095 12.095 0 0 0-2.357 6.488 8.658 8.658 0 0 0 4.357 2 8.723 8.723 0 0 0 6.755-1.882l.647 4.292c.076.508.161 1.016.32 1.505.157.488.385.955.68 1.376a26.47 26.47 0 0 0 8.297-3.198 26.526 26.526 0 0 0 7.981-7.337 5.622 5.622 0 0 0 2 3.12c.892.696 2 1.11 3.13 1.17a9.63 9.63 0 0 0 2-3.775 9.645 9.645 0 0 0 0-4.981 13.51 13.51 0 0 0 4.748 4.078 29.28 29.28 0 0 0 7.293-11.91 21.49 21.49 0 0 0 6.663 5.404 25.012 25.012 0 0 1 5.162-7.201 52.44 52.44 0 0 1 5.514 7.752 24.452 24.452 0 0 0 6.214-5.955 19.376 19.376 0 0 0 2.81 7.098 19.35 19.35 0 0 0 4.572 4.905 14.23 14.23 0 0 0 4.095-4.23 8.58 8.58 0 0 0 .8 6.553 8.522 8.522 0 0 0 2.492 2.723 9.378 9.378 0 0 0 2.677-2.446 9.351 9.351 0 0 0 1.384-2.723 23.424 23.424 0 0 0 7.332 7.169 23.41 23.41 0 0 0 9.631 3.323l.558-2.937c.244-1.285.401-2.602.21-3.896a9.483 9.483 0 0 0 5.152 2.178 9.509 9.509 0 0 0 6.41-1.718 10.615 10.615 0 0 0-.277-3.262 10.613 10.613 0 0 0-1.57-3.498 13.03 13.03 0 0 0 6.258.64 13.007 13.007 0 0 0 4.855-1.735 26.78 26.78 0 0 1-8.3-6.944 10.303 10.303 0 0 0 2.744-2.936 10.28 10.28 0 0 0 1.407-3.783c-7.284 2.371-15.6 1.328-22.07-2.769-3.813-2.413-6.941-5.775-9.678-9.362-9.155-12-14.3-27-14.44-42.1"/><path d="M229.64 121.87a35.106 35.106 0 0 1-3.593 19.97 35.074 35.074 0 0 1-14.11 14.58c-6.531 3.625-14.25 5.07-21.65 4.054a11.712 11.712 0 0 0 4.679 6.368 11.172 11.172 0 0 1-4.122 2.824 11.208 11.208 0 0 1-6.831.42 8.072 8.072 0 0 0 3.854 4.618 8.073 8.073 0 0 0 5.992.61 19.512 19.512 0 0 0-3.37 8.353c1.944-.112 3.865-.6 5.627-1.428a15.365 15.365 0 0 0 4.027-2.749 28.177 28.177 0 0 0 .292 9.205 19.815 19.815 0 0 0 6.159-2.135 19.879 19.879 0 0 0 7.419-7.07 14.538 14.538 0 0 0 .555 5.72 14.523 14.523 0 0 0 2.208 4.384 23.543 23.543 0 0 1 3.574-6.477 23.563 23.563 0 0 1 5.08-4.819 6.5 6.5 0 0 0 2.207 4.172 27.59 27.59 0 0 0 5.492-7.893 27.579 27.579 0 0 0 2.4-8.828 16.446 16.446 0 0 1 5.83 7.784 18.438 18.438 0 0 0 3.281-6.503c.6-2.188.801-4.504 1.758-6.562a9.661 9.661 0 0 1 1.29-2.05 51.834 51.834 0 0 0 7.03 14.821 9.404 9.404 0 0 1 1.64-4.51 9.407 9.407 0 0 1 3.924-3.223 21.44 21.44 0 0 0 2.52 9.733 21.429 21.429 0 0 0 5.8 6.847 12.884 12.884 0 0 0 1.74-4.072l4.916 5.025c1.842 1.883 3.56 3.95 4.538 6.395a20.916 20.916 0 0 0 2-10.212 16.74 16.74 0 0 0 6.562 7.014 16.699 16.699 0 0 0 7.426 2.218 35.37 35.37 0 0 0 0-9.335l4.848 2.888c.751.448 1.52.882 2.357 1.136s1.729.333 2.594.206a18.615 18.615 0 0 0-3.61-8.097c1.675.72 3.63.766 5.337.125a7.252 7.252 0 0 0 4.273-4.454 12.5 12.5 0 0 1-6.591-.955 12.477 12.477 0 0 1-4.172-3 17.905 17.905 0 0 0 4.853-6.136c-7.792 1.366-16.07-.237-22.79-4.414-5.701-3.544-10.26-8.899-12.84-15.09s-3.19-13.2-1.7-19.75"/><path d="M223.52 92.19c-2.492 10.09-10.08 18.79-19.74 22.62a32.975 32.975 0 0 1-16.63 2 14.415 14.415 0 0 0 4.348 3.856 14.408 14.408 0 0 0 4.84 1.723 28.694 28.694 0 0 1-6.691 7.799c2.057.54 4.236.608 6.323.198a14.192 14.192 0 0 0 4.989-2.025 19.656 19.656 0 0 1-1.087 5.78 19.676 19.676 0 0 1-2.816 5.286 44.965 44.965 0 0 0 17.986-6.373l-1.285 5.165c-.379 1.522-.802 3.036-1.396 4.487a19.362 19.362 0 0 0 7.024-2.99 19.323 19.323 0 0 0 4.08-3.768 9.751 9.751 0 0 0 4.531 2.784 47.272 47.272 0 0 0 3.167-7.239 14.655 14.655 0 0 0 2 2.926 14.524 14.524 0 0 0 1.826 1.745 13.425 13.425 0 0 1 2-5.476 13.414 13.414 0 0 1 4.092-4.072 10.823 10.823 0 0 0 .54 4.389 10.8 10.8 0 0 0 1.46 2.823l3.424-4.335c1.022-1.294 2.027-2.603 2.96-3.963a18.035 18.035 0 0 0 3.502 5.574 18.03 18.03 0 0 0 3.354 2.844 90.161 90.161 0 0 0 2-7.924 30.385 30.385 0 0 1 5.701 9.924 41.607 41.607 0 0 0 3.847-4.962 13.543 13.543 0 0 1 2 3.377c.622 1.518.964 3.15 1.004 4.79a38.175 38.175 0 0 0 4.667-3.205 14.252 14.252 0 0 0 4.285 4.014 14.276 14.276 0 0 0 6.565 2.031 21.013 21.013 0 0 0-2.692-8.526 41.596 41.596 0 0 0 8.17 3.708 41.6 41.6 0 0 0 9.94 1.969 21.88 21.88 0 0 1-2.687-5.196 21.838 21.838 0 0 1-1.21-5.722 13.187 13.187 0 0 0 5.898 2.217c1.747.206 3.535.057 5.223-.437a91.772 91.772 0 0 1-6.114-6.92 10.673 10.673 0 0 0 5.889-2.35 10.625 10.625 0 0 0 2.833-3.577c-6.074.97-12.42.132-18.04-2.38-9.642-4.313-16.83-13.71-18.47-24.14"/><path d="M237.22 64.38c-5.051 9.197-14.49 15.85-24.85 17.52-5.687.917-11.6.385-17.03-1.531a19.695 19.695 0 0 0 3.855 7.889 19.65 19.65 0 0 0 5.011 4.394 53.564 53.564 0 0 1-4.009 7.015c1.793.226 3.62.174 5.397-.154a17.625 17.625 0 0 0 4.78-1.62 11.022 11.022 0 0 0 5.474 6.09 19.37 19.37 0 0 0 7.015-6.166 10.806 10.806 0 0 0 3.161 6.707 15.438 15.438 0 0 0 5.011-3.354 15.428 15.428 0 0 0 3.084-4.433 15.078 15.078 0 0 0 5.105 6.375 70.018 70.018 0 0 0 8.752-9.94 31.698 31.698 0 0 0 9.508 9.779 46.231 46.231 0 0 0 4.656-6.203 13.112 13.112 0 0 0 3.984 5.333 13.087 13.087 0 0 0 4.536 2.329 59.59 59.59 0 0 0 2-6.681 16.04 16.04 0 0 0 3.762 3.678 16.038 16.038 0 0 0 4.78 2.268 11.99 11.99 0 0 0 4.781-6.007 12.69 12.69 0 0 0 5.15 2.182 12.68 12.68 0 0 0 4.475 0 92.663 92.663 0 0 0-3.126-6.963 22.344 22.344 0 0 0 8.582-11.892 39.944 39.944 0 0 1-15.25.955c-11.38-1.493-21.98-8.177-28.22-17.8"/><path d="M273.6 60.98a13.07 13.07 0 0 0 4.585-3.262 35.774 35.774 0 0 1-17.16-7.185 35.817 35.817 0 0 1-10.97-14.32 41.376 41.376 0 0 1-12.32 14.3 41.422 41.422 0 0 1-16.18 7.096 14.068 14.068 0 0 0 5.148 3.211c2.087.738 4.35.972 6.544.677a24.658 24.658 0 0 1-4.287 5.528 24.673 24.673 0 0 1-6.261 4.4 7.63 7.63 0 0 0 2.99 2.595c1.442.699 3.12.923 4.682.564 1.848-.425 3.418-1.609 4.877-2.82a70.85 70.85 0 0 0 5.051-4.626 27.859 27.859 0 0 0 .96 9.618 41.673 41.673 0 0 0 8.745-7.819 23.8 23.8 0 0 0 8.747 7.819l.426-4.286c.174-1.76.285-3.532.141-5.294a52.28 52.28 0 0 0 6.145 5.671c.94.737 1.91 1.445 2.981 1.97 1.072.525 2.255.863 3.448.82a5.713 5.713 0 0 0 3.293-1.201 5.703 5.703 0 0 0 1.954-2.91 22.025 22.025 0 0 1-6.476-4.35 22.023 22.023 0 0 1-4.018-5.293c2.34.338 4.771.024 6.95-.899z"/></g></g><g stroke="#000" stroke-linecap="round" stroke-linejoin="round" stroke-width="4"><path d="M373.4 258.4a471.85 471.85 0 0 0 .471 31.4c.52 10.77 1.41 21.52 2.12 32.27.705 10.67.73 21.37 0 32.04l-1.16 16.98a79.663 79.663 0 0 0-16.35 11.09 79.634 79.634 0 0 0-11.55 12.58 31.668 31.668 0 0 1 11.3-3.618 108.945 108.945 0 0 1 18.167-11.195c3.216 1.2 5.88 3.808 7.145 6.999 1.338 3.371 1.127 7.129.888 10.75-.257 3.909-.524 7.817-.799 11.72a28.477 28.477 0 0 0 6.04-8.616 28.6 28.6 0 0 0 2.132-16.43 82.07 82.07 0 0 0 3.819 4.264c1.912 1.989 3.975 3.916 6.484 5.063 1.607.735 3.392 1.148 4.796 2.221 1.369 1.045 2.246 2.621 3.574 3.718a6.839 6.839 0 0 0 5.059 1.504 84.6 84.6 0 0 0-9.64-16.89 84.415 84.415 0 0 0-10.19-11.49l-.396-34.67c-.173-15.16-.272-30.31-.471-45.47-.15-11.41-.386-22.82-.707-34.22" fill="#7a3f28"/><g fill="#094"><path d="M369.4 213.567a68.079 68.079 0 0 1-9.144 29.46c-3.754 6.4-8.637 12.24-14.79 16.39-7.16 4.827-15.94 7.201-24.56 6.639a10.72 10.72 0 0 0 4.778 4.399 10.727 10.727 0 0 0 6.98.683 20.416 20.416 0 0 0-4.325 8.574c1.933.454 3.948.557 5.918.303a16.691 16.691 0 0 0 7.208-2.73 9.764 9.764 0 0 0-.076 4.427 9.763 9.763 0 0 0 2.076 4.221 17.776 17.776 0 0 0 7.408-7.215v5.623c0 .732.016 1.468.176 2.182.16.714.459 1.397.886 1.991a35.529 35.529 0 0 0 10.318-11.229 10.731 10.731 0 0 0 3.298 5.614 26.333 26.333 0 0 0 4.162-4.18 26.315 26.315 0 0 0 3.531-5.9 12.883 12.883 0 0 0 5.65 6.375 10.032 10.032 0 0 0 3.425-3.188 10.067 10.067 0 0 0 1.66-5.75l5.048 4.3 4.87-4.6a11.951 11.951 0 0 0 2 6.05 11.9 11.9 0 0 0 3.286 3.273 14.442 14.442 0 0 0 5.72-5.892 27.374 27.374 0 0 0 8.366 9.512 8.256 8.256 0 0 0 2.362-5.284 28.3 28.3 0 0 0 10.367 10.667c.502-.909.902-1.874 1.192-2.87.552-1.903.696-3.923.42-5.884a13.337 13.337 0 0 0 3.852 4.377 13.313 13.313 0 0 0 4.062 1.996 10.069 10.069 0 0 0 1.357-3.715 10.086 10.086 0 0 0-.387-4.658 18.634 18.634 0 0 0 6.342 2.335c2.45.421 4.986.343 7.406-.226a27.141 27.141 0 0 0-4.761-7.934c2.334.053 4.68-.482 6.76-1.541a14.245 14.245 0 0 0 4.576-3.697c-9.776.105-19.55-3.367-27.07-9.615-5.084-4.225-9.116-9.638-12.11-15.53a59.087 59.087 0 0 1-6.362-28.55"/><path d="M368.03 160.667c2.429 15.33-2.657 31.66-13.36 42.9-3.287 3.453-7.099 6.46-11.43 8.448-5.912 2.713-12.72 3.427-19.07 2a9.584 9.584 0 0 0 1.549 3.873 9.578 9.578 0 0 0 2.479 2.479 18.313 18.313 0 0 1-8.365 7.281 19.957 19.957 0 0 0 11.636.969 12.095 12.095 0 0 0-2.357 6.488 8.658 8.658 0 0 0 4.357 2 8.723 8.723 0 0 0 6.755-1.882l.647 4.292c.076.508.161 1.016.32 1.505.157.488.385.955.68 1.376a26.47 26.47 0 0 0 8.297-3.198 26.526 26.526 0 0 0 7.981-7.337 5.622 5.622 0 0 0 2 3.12c.892.696 2 1.11 3.13 1.17a9.63 9.63 0 0 0 2-3.775 9.645 9.645 0 0 0 0-4.981 13.51 13.51 0 0 0 4.748 4.078 29.28 29.28 0 0 0 7.293-11.91 21.49 21.49 0 0 0 6.663 5.404 25.012 25.012 0 0 1 5.162-7.201 52.44 52.44 0 0 1 5.514 7.752 24.452 24.452 0 0 0 6.214-5.955 19.376 19.376 0 0 0 2.81 7.098 19.35 19.35 0 0 0 4.572 4.905 14.23 14.23 0 0 0 4.095-4.23 8.58 8.58 0 0 0 .8 6.553 8.522 8.522 0 0 0 2.492 2.723 9.378 9.378 0 0 0 2.677-2.446 9.351 9.351 0 0 0 1.384-2.723 23.424 23.424 0 0 0 7.332 7.169 23.41 23.41 0 0 0 9.631 3.323l.558-2.937c.244-1.285.401-2.602.21-3.896a9.483 9.483 0 0 0 5.152 2.178 9.509 9.509 0 0 0 6.41-1.718 10.615 10.615 0 0 0-.277-3.262 10.613 10.613 0 0 0-1.57-3.498 13.03 13.03 0 0 0 6.258.64 13.007 13.007 0 0 0 4.855-1.735 26.78 26.78 0 0 1-8.3-6.944 10.303 10.303 0 0 0 2.744-2.936 10.28 10.28 0 0 0 1.407-3.783c-7.284 2.371-15.6 1.328-22.07-2.769-3.813-2.413-6.941-5.775-9.678-9.362-9.155-12-14.3-27-14.44-42.1"/><path d="M370.84 130.667a35.106 35.106 0 0 1-3.593 19.97 35.074 35.074 0 0 1-14.11 14.58c-6.531 3.625-14.25 5.07-21.65 4.054a11.712 11.712 0 0 0 4.679 6.368 11.172 11.172 0 0 1-4.122 2.824 11.208 11.208 0 0 1-6.831.42 8.072 8.072 0 0 0 3.854 4.618 8.073 8.073 0 0 0 5.992.61 19.512 19.512 0 0 0-3.37 8.353c1.943-.112 3.864-.6 5.626-1.428a15.365 15.365 0 0 0 4.027-2.749 28.177 28.177 0 0 0 .293 9.205 19.815 19.815 0 0 0 6.159-2.135 19.879 19.879 0 0 0 7.419-7.07 14.538 14.538 0 0 0 .555 5.72 14.523 14.523 0 0 0 2.208 4.384 23.543 23.543 0 0 1 3.574-6.477 23.563 23.563 0 0 1 5.08-4.819 6.5 6.5 0 0 0 2.207 4.172 27.59 27.59 0 0 0 5.492-7.893 27.579 27.579 0 0 0 2.4-8.828 16.446 16.446 0 0 1 5.83 7.784 18.438 18.438 0 0 0 3.281-6.503c.6-2.188.801-4.504 1.758-6.562a9.661 9.661 0 0 1 1.29-2.05 51.834 51.834 0 0 0 7.03 14.821 9.404 9.404 0 0 1 1.64-4.51 9.407 9.407 0 0 1 3.924-3.223 21.44 21.44 0 0 0 2.52 9.733 21.429 21.429 0 0 0 5.8 6.847 12.884 12.884 0 0 0 1.74-4.072l4.916 5.025c1.842 1.883 3.56 3.95 4.538 6.395a20.916 20.916 0 0 0 2-10.212 16.74 16.74 0 0 0 6.562 7.014 16.699 16.699 0 0 0 7.426 2.218 35.37 35.37 0 0 0 0-9.335l4.848 2.888c.751.448 1.52.882 2.357 1.136s1.729.333 2.594.206a18.615 18.615 0 0 0-3.61-8.097c1.675.72 3.63.766 5.337.125a7.252 7.252 0 0 0 4.273-4.454 12.5 12.5 0 0 1-6.591-.955 12.477 12.477 0 0 1-4.172-3 17.905 17.905 0 0 0 4.853-6.136c-7.792 1.366-16.07-.237-22.79-4.414-5.701-3.544-10.26-8.899-12.84-15.09s-3.19-13.2-1.7-19.75"/><path d="M363.22 103.567c-2.492 10.09-10.08 18.79-19.74 22.62a32.975 32.975 0 0 1-16.63 2 14.415 14.415 0 0 0 4.348 3.856 14.408 14.408 0 0 0 4.84 1.723 28.694 28.694 0 0 1-6.691 7.799c2.057.54 4.236.608 6.323.198a14.192 14.192 0 0 0 4.989-2.025 19.656 19.656 0 0 1-1.087 5.78 19.676 19.676 0 0 1-2.816 5.286 44.965 44.965 0 0 0 17.986-6.373l-1.285 5.165c-.379 1.522-.803 3.036-1.396 4.487a19.362 19.362 0 0 0 7.024-2.99 19.323 19.323 0 0 0 4.08-3.768 9.751 9.751 0 0 0 4.531 2.784 47.272 47.272 0 0 0 3.167-7.239 14.655 14.655 0 0 0 2 2.926 14.524 14.524 0 0 0 1.826 1.745 13.425 13.425 0 0 1 2-5.476 13.414 13.414 0 0 1 4.092-4.072 10.823 10.823 0 0 0 .54 4.389 10.8 10.8 0 0 0 1.46 2.823l3.424-4.335c1.022-1.294 2.027-2.603 2.96-3.963a18.035 18.035 0 0 0 3.502 5.574 18.03 18.03 0 0 0 3.354 2.844 90.161 90.161 0 0 0 2-7.924 30.385 30.385 0 0 1 5.701 9.924 41.607 41.607 0 0 0 3.847-4.962 13.543 13.543 0 0 1 2 3.377c.622 1.518.964 3.15 1.004 4.79a38.175 38.175 0 0 0 4.667-3.205 14.252 14.252 0 0 0 4.285 4.014 14.276 14.276 0 0 0 6.565 2.031 21.013 21.013 0 0 0-2.692-8.526 41.596 41.596 0 0 0 8.17 3.708 41.6 41.6 0 0 0 9.94 1.969 21.88 21.88 0 0 1-2.687-5.196 21.838 21.838 0 0 1-1.21-5.722 13.187 13.187 0 0 0 5.898 2.217c1.747.206 3.535.057 5.223-.437a91.772 91.772 0 0 1-6.114-6.92 10.673 10.673 0 0 0 5.889-2.35 10.625 10.625 0 0 0 2.833-3.577c-6.074.97-12.42.132-18.04-2.38-9.642-4.313-16.83-13.71-18.47-24.14"/><path d="M378.12 79.347c-5.051 9.197-14.49 15.85-24.85 17.52-5.687.917-11.6.385-17.03-1.531a19.695 19.695 0 0 0 3.855 7.889 19.65 19.65 0 0 0 5.011 4.394 53.564 53.564 0 0 1-4.009 7.015c1.793.226 3.62.174 5.397-.154a17.625 17.625 0 0 0 4.78-1.62 11.022 11.022 0 0 0 5.474 6.09 19.37 19.37 0 0 0 7.015-6.166 10.806 10.806 0 0 0 3.161 6.707 15.438 15.438 0 0 0 5.011-3.354 15.428 15.428 0 0 0 3.084-4.433 15.078 15.078 0 0 0 5.105 6.375 70.018 70.018 0 0 0 8.752-9.94 31.698 31.698 0 0 0 9.508 9.779 46.231 46.231 0 0 0 4.656-6.203 13.112 13.112 0 0 0 3.984 5.333 13.087 13.087 0 0 0 4.536 2.329 59.59 59.59 0 0 0 2-6.681 16.04 16.04 0 0 0 3.762 3.678 16.038 16.038 0 0 0 4.78 2.268 11.99 11.99 0 0 0 4.781-6.007 12.69 12.69 0 0 0 5.15 2.182 12.68 12.68 0 0 0 4.475 0 92.663 92.663 0 0 0-3.126-6.963 22.344 22.344 0 0 0 8.582-11.892 39.944 39.944 0 0 1-15.25.955c-11.38-1.493-21.98-8.177-28.22-17.8"/><path d="M412.7 78.547a13.07 13.07 0 0 0 4.585-3.262 35.774 35.774 0 0 1-17.16-7.185 35.817 35.817 0 0 1-10.97-14.32 41.376 41.376 0 0 1-12.32 14.3 41.422 41.422 0 0 1-16.18 7.096 14.068 14.068 0 0 0 5.148 3.211c2.087.738 4.35.972 6.544.677a24.658 24.658 0 0 1-4.287 5.528 24.673 24.673 0 0 1-6.261 4.4 7.63 7.63 0 0 0 2.99 2.595c1.442.699 3.12.923 4.682.564 1.848-.425 3.418-1.609 4.877-2.82a70.85 70.85 0 0 0 5.051-4.626 27.859 27.859 0 0 0 .96 9.618 41.673 41.673 0 0 0 8.745-7.819 23.8 23.8 0 0 0 8.747 7.819l.426-4.286c.174-1.76.285-3.532.141-5.294a52.28 52.28 0 0 0 6.145 5.671c.94.737 1.91 1.445 2.981 1.97 1.072.525 2.255.863 3.448.82a5.713 5.713 0 0 0 3.293-1.201 5.703 5.703 0 0 0 1.954-2.91 22.025 22.025 0 0 1-6.476-4.35 22.023 22.023 0 0 1-4.018-5.293c2.34.338 4.771.024 6.95-.899z"/></g></g><path d="M4 4v280c20 260 236 310 246 312 10-2 226-52 246-312V4z" fill="none" stroke="#000" stroke-width="8"/></svg>