<svg width="500" height="599.7" version="1.0" xml:space="preserve" xmlns="http://www.w3.org/2000/svg"><path d="M3.999 3.999v279.9c20.02 260 236.1 309.8 246 311.8 9.96-2.002 226.1-51.99 246-311.8V3.999z" fill="#f00000" stroke="#000" stroke-width="7.998"/><g fill-rule="evenodd" stroke="#000" stroke-linecap="round" stroke-miterlimit="1000" stroke-width="4"><path d="M275.2 441V306.8h82.13v-50.32H275.2v-64.54h-50.32v64.54h-82.13v50.32h82.13V441" fill="#fff" style="paint-order:fill markers stroke"/><path d="M390.6 468.2c-7.354-9.244-15.76-18.07-26.45-23.1-6.549-3.08-13.82-4.628-21.06-4.397-7.234.23-14.41 2.247-20.67 5.887-6.797 3.956-12.37 9.699-17.51 15.65-10.14 11.73-19.01 24.58-26.08 38.37a178.213 178.213 0 0 0-12.67 32.04 179.78 179.78 0 0 1 12.67-32.04 180.555 180.555 0 0 1 15.98-25.69 36.699 36.699 0 0 0-4.395-18.65c-4.283-7.895-11.49-14.05-19.75-17.6-6.478-2.782-13.57-4.012-20.62-4.012s-14.14 1.23-20.62 4.012c-8.253 3.545-15.46 9.701-19.75 17.6a36.716 36.716 0 0 0-4.395 18.65 180.316 180.316 0 0 1 15.94 25.69 181.148 181.148 0 0 1 12.67 32.04 177.77 177.77 0 0 0-12.67-32.04c-7.069-13.8-15.94-26.65-26.08-38.37-5.144-5.949-10.71-11.69-17.51-15.65-6.255-3.641-13.44-5.657-20.67-5.887-7.234-.23-14.51 1.317-21.06 4.397-10.69 5.026-19.1 13.85-26.45 23.1a210.118 210.118 0 0 0-19.82 29.83 328.164 328.164 0 0 0 64.14 54.9 328.46 328.46 0 0 0 96.26 42.69 328.497 328.497 0 0 0 96.26-42.69 328.446 328.446 0 0 0 64.13-54.9 210.447 210.447 0 0 0-19.84-29.83z" fill="#094" stroke-linejoin="round" style="paint-order:fill markers stroke"/><path class="UnoptimicedTransforms" d="m87.62 120.7 13.43 46.04 46.58-11.39L114.48 190l33.15 34.65-46.58-11.39-13.43 46.04-13.43-46.04-46.58 11.39L60.76 190l-33.15-34.65 46.58 11.39zm324.8 0-13.43 46.04-46.58-11.39L385.56 190l-33.15 34.65 46.58-11.39 13.43 46.04 13.43-46.04 46.58 11.39L439.28 190l33.15-34.65-46.58 11.39z" fill="#fcdb00" style="paint-order:fill markers stroke"/><path class="UnoptimicedTransforms" transform="translate(162.4 -93.01)" d="m87.62 120.7 13.43 46.04 46.58-11.39L114.48 190l33.15 34.65-46.58-11.39-13.43 46.04-13.43-46.04-46.58 11.39L60.76 190l-33.15-34.65 46.58 11.39z" fill="#fcdb00" style="paint-order:fill markers stroke"/></g><path d="M3.999 3.999v279.9c20.02 260 236.1 309.8 246 311.8 9.96-2.002 226.1-51.99 246-311.8V3.999z" fill="none" stroke="#000" stroke-width="8"/></svg>