<svg width="500" height="599.8" version="1.0" xml:space="preserve" xmlns="http://www.w3.org/2000/svg"><path d="M4 4v279.9c20.02 260 236.1 309.8 246 311.8 9.96-2.002 226.1-51.99 246-311.8V4z" fill="#fff" stroke="#000" stroke-width="8"/><g stroke="#000" stroke-linecap="round" stroke-linejoin="round" stroke-miterlimit="1000" stroke-width="3"><g fill="#f00000" fill-rule="evenodd"><path d="M59.69 307.7a11.828 11.828 0 0 0-6.076.784c-3.141 1.298-5.658 4.022-6.713 7.252-1.065 3.26-.623 6.979 1.176 9.899a5.537 5.537 0 0 1 1.617-2.499c1.026-.905 2.343-1.393 3.628-1.862 2.645-.965 5.291-1.929 7.937-2.891M26.13 240.1c-3.918 1.881-6.882 5.638-7.799 9.886a14.378 14.378 0 0 0 .098 6.468 43.538 43.538 0 0 1 11.762-8.822M139.2 410.4a11.535 11.535 0 0 0-2.582 5.179c-.742 3.522.261 7.312 2.426 10.19 2.205 2.928 5.591 4.94 9.217 5.475a6.47 6.47 0 0 1-1.663-2.841c-.321-1.157-.312-2.391-.076-3.568s.694-2.301 1.254-3.363a18.35 18.35 0 0 1 5.545-6.343M88.58 370.3c-2.757.587-5.187 2.542-6.351 5.109-1.1 2.425-1.076 5.223-.588 7.841a23.833 23.833 0 0 0 5.292 11.07 5.125 5.125 0 0 1 .18-4.67c.749-1.306 2.036-2.205 3.326-2.98a37.462 37.462 0 0 1 4.782-2.426" style="paint-order:fill markers stroke"/><path d="M207.1 339.1a34.217 34.217 0 0 0-13.44-9.601c-4.234-1.668-8.865-2.476-13.38-1.866-2.839.384-5.574 1.315-8.385 1.866-2.197.431-4.502.624-6.653 0-1.69-.49-3.213-1.47-4.487-2.684s-2.308-2.659-3.206-4.172c-1.817-3.064-3.116-6.562-2.911-10.12.123-2.125.776-4.186 1.567-6.162.792-1.976 1.726-3.895 2.452-5.896.453-1.249.83-2.541 1.525-3.673a7.49 7.49 0 0 1 3.187-2.846 7.481 7.481 0 0 1 4.228-.62 8.512 8.512 0 0 0-.416 4.09 8.43 8.43 0 0 0 1.663 3.93 8.25 8.25 0 0 0 3.396 2.584c1.307.532 2.746.715 4.151.588 1.405-.127 2.776-.56 4.027-1.212a12.33 12.33 0 0 0 5.405-5.613 21.15 21.15 0 0 1 5.613 1.25 21.148 21.148 0 0 1 4.851 2.561 7.393 7.393 0 0 0 .485-3.534c-.219-2.012-1.262-3.856-2.564-5.405a17.125 17.125 0 0 0-4.92-4.019 14.95 14.95 0 0 0 .07-5.267c-.379-2.28-1.35-4.542-3.12-6.029-1.861-1.566-4.371-2.1-6.791-2.356a38.785 38.785 0 0 0-4.712-.208 306.232 306.232 0 0 0-15.04-14.48c-3.762-3.386-7.687-6.73-12.34-8.732-3.301-1.422-6.861-2.119-10.4-2.772-13.68-2.528-27.46-4.545-41.03-7.623-11.06-2.51-22.01-5.733-33.29-6.99a96.87 96.87 0 0 0-14.06-.539 22.305 22.305 0 0 1-3.43-3.724c-.845-1.157-1.595-2.414-2.695-3.332-.723-.603-1.586-1.042-2.504-1.246s-1.893-.171-2.788.12c-1.553.502-2.753 1.711-4.018 2.743-1.265 1.032-2.645 1.918-3.894 2.97-1.248 1.052-2.383 2.306-2.967 3.83-.638 1.666-.568 3.535-.139 5.267.867 3.503 3.098 6.501 5.475 9.217 1.671 1.91 3.522 3.788 5.891 4.696 2.399.92 5.059.743 7.623.57 3.232-.217 6.467-.407 9.702-.57a18.816 18.816 0 0 1 2.564 4.867c.767 2.185 1.123 4.491 1.386 6.792.309 2.701.52 5.503 1.802 7.9 1.348 2.521 3.718 4.3 5.683 6.376 1.264 1.336 2.377 2.82 3.257 4.435.605 1.11 1.101 2.288 1.355 3.526.253 1.238.257 2.541-.107 3.751-.545 1.814-1.867 3.297-3.326 4.505-1.19.984-2.49 1.826-3.687 2.801-1.197.975-2.306 2.11-2.966 3.505-.767 1.621-.87 3.462-1.091 5.241-.232 1.866-.605 3.73-.524 5.608.04.94.197 1.88.532 2.757.336.878.856 1.694 1.56 2.317.759.672 1.698 1.097 2.596 1.568.907.475 1.787 1.007 2.736 1.392s1.985.621 2.998.47c.822-.122 1.584-.49 2.315-.885s1.452-.82 2.243-1.075c1.638-.528 3.474-.26 4.998.54 2.13 1.117 3.613 3.144 4.95 5.144 2.726 4.083 5.173 8.353 8.036 12.34 2.726 3.8 5.906 7.505 6.958 12.06.407 1.763.474 3.603.196 5.39a14.713 14.713 0 0 0-5.863 2.776c-2.745 2.155-4.699 5.393-4.99 8.871-.303 3.631 1.147 7.15 2.495 10.53.497 1.246.986 2.502 1.653 3.665.668 1.163 1.53 2.241 2.643 2.988.98.657 2.134 1.038 3.31 1.142a8.46 8.46 0 0 0 3.482-.45c2.307-.793 4.231-2.473 5.683-4.434a17.392 17.392 0 0 0 2.22-4.02 445.843 445.843 0 0 0 13.67 6.37c3.525 1.57 7.075 3.097 10.49 4.9a72.04 72.04 0 0 1 4.9 2.842 65.133 65.133 0 0 0-2.009 4.802c-1.022 2.746-1.869 5.68-1.42 8.576.467 3.017 2.37 5.735 4.93 7.399 2.447 1.59 5.368 2.238 8.202 2.94 2.026.502 4.12 1.05 6.174.686a6.3 6.3 0 0 0 2.397-.94 5.079 5.079 0 0 0 1.72-1.903c.669-1.315.67-2.852.882-4.312.182-1.265.537-2.519 1.176-3.626a7.782 7.782 0 0 1 2.842-2.842c2 1.26 3.998 2.524 5.99 3.797 5.372 3.433 10.85 6.977 17.05 8.455 5.985 1.426 12.28.825 18.3-.485 2.93-.638 5.9-1.478 8.316-3.257a12.422 12.422 0 0 0 3.502-3.994" style="paint-order:fill markers stroke"/></g><g fill="none" stroke-width="2"><path d="M85.66 296a563.447 563.447 0 0 1 55.17-6.162M111.6 353.7a581.151 581.151 0 0 1 16.77-15.79 574.864 574.864 0 0 1 18.3-15.87M148.1 381.4a360.686 360.686 0 0 1 9.311-21.62c3.33-7.089 6.89-14.07 10.67-20.93" style="paint-order:fill markers stroke"/></g><g fill="#f00000" fill-rule="evenodd"><path d="M59.69 307.7a11.828 11.828 0 0 0-6.076.784c-3.141 1.298-5.658 4.022-6.713 7.252-1.065 3.26-.623 6.979 1.176 9.899a5.537 5.537 0 0 1 1.617-2.499c1.026-.905 2.343-1.393 3.628-1.862 2.645-.965 5.291-1.929 7.937-2.891M26.13 240.1c-3.918 1.881-6.882 5.638-7.799 9.886a14.378 14.378 0 0 0 .098 6.468 43.538 43.538 0 0 1 11.762-8.822M139.2 410.4a11.535 11.535 0 0 0-2.582 5.179c-.742 3.522.261 7.312 2.426 10.19 2.205 2.928 5.591 4.94 9.217 5.475a6.47 6.47 0 0 1-1.663-2.841c-.321-1.157-.312-2.391-.076-3.568s.694-2.301 1.254-3.363a18.35 18.35 0 0 1 5.545-6.343M88.58 370.3c-2.757.587-5.187 2.542-6.351 5.109-1.1 2.425-1.076 5.223-.588 7.841a23.833 23.833 0 0 0 5.292 11.07 5.125 5.125 0 0 1 .18-4.67c.749-1.306 2.036-2.205 3.326-2.98a37.462 37.462 0 0 1 4.782-2.426" style="paint-order:fill markers stroke" transform="matrix(-1 0 0 1 500 0)"/><path d="M214.5 338.1a35.408 35.408 0 0 0-17.97-10.74c-5.345-1.289-11.02-1.296-16.32.192-2.894.813-5.768 2.077-8.766 1.866-2.246-.158-4.383-1.157-6.133-2.574-1.75-1.417-3.139-3.236-4.304-5.164-1.848-3.061-3.175-6.47-3.597-10.02-.449-3.777.132-7.617 1.177-11.27.366-1.28.796-2.56 1.525-3.673a7.82 7.82 0 0 1 3.215-2.787 7.822 7.822 0 0 1 4.2-.678 8.512 8.512 0 0 0-.416 4.089 8.43 8.43 0 0 0 1.663 3.93 8.25 8.25 0 0 0 3.396 2.584c1.307.532 2.746.716 4.151.588 1.405-.127 2.776-.56 4.027-1.212a12.33 12.33 0 0 0 5.405-5.613 21.15 21.15 0 0 1 5.613 1.25 21.148 21.148 0 0 1 4.851 2.561 7.393 7.393 0 0 0 .485-3.534c-.219-2.012-1.262-3.856-2.564-5.405a17.125 17.125 0 0 0-4.92-4.019 14.95 14.95 0 0 0 .07-5.267c-.379-2.28-1.35-4.542-3.12-6.029-1.861-1.566-4.371-2.1-6.791-2.356a38.785 38.785 0 0 0-4.712-.207 306.232 306.232 0 0 0-15.04-14.48c-3.762-3.386-7.687-6.73-12.34-8.732-3.301-1.422-6.861-2.12-10.4-2.772-13.68-2.528-27.46-4.545-41.03-7.623-11.06-2.511-22.01-5.733-33.29-6.99a96.87 96.87 0 0 0-14.06-.54 22.305 22.305 0 0 1-3.43-3.723c-.845-1.157-1.595-2.414-2.695-3.332-.723-.603-1.586-1.042-2.504-1.246s-1.893-.172-2.788.118c-1.553.504-2.753 1.712-4.018 2.744-1.265 1.032-2.645 1.918-3.894 2.97-1.248 1.052-2.383 2.306-2.967 3.83-.638 1.666-.568 3.535-.139 5.267.867 3.503 3.098 6.501 5.475 9.217 1.671 1.91 3.522 3.788 5.891 4.696 2.399.92 5.059.743 7.623.57 3.232-.217 6.467-.407 9.702-.57a18.816 18.816 0 0 1 2.564 4.867c.767 2.185 1.123 4.491 1.386 6.792.309 2.701.52 5.503 1.802 7.9 1.348 2.521 3.718 4.3 5.683 6.376 1.264 1.336 2.377 2.82 3.257 4.435.605 1.11 1.101 2.288 1.355 3.526.253 1.238.257 2.541-.107 3.751-.545 1.814-1.867 3.297-3.326 4.505-1.19.984-2.49 1.826-3.687 2.801-1.197.975-2.306 2.11-2.966 3.505-.767 1.621-.87 3.462-1.091 5.241-.232 1.866-.605 3.73-.524 5.608.04.94.197 1.88.532 2.757.336.879.856 1.694 1.56 2.317.759.673 1.698 1.097 2.596 1.568.907.475 1.787 1.007 2.736 1.392s1.985.621 2.998.47c.822-.122 1.584-.49 2.315-.884s1.452-.82 2.243-1.075c1.638-.529 3.474-.26 4.998.539 2.13 1.118 3.613 3.145 4.95 5.145 2.726 4.083 5.173 8.353 8.036 12.34 2.726 3.8 5.906 7.505 6.958 12.06.407 1.763.474 3.603.196 5.39a14.713 14.713 0 0 0-5.863 2.776c-2.745 2.155-4.699 5.393-4.99 8.87-.303 3.631 1.147 7.15 2.495 10.53.497 1.246.986 2.502 1.653 3.665.668 1.163 1.53 2.241 2.643 2.988.98.657 2.134 1.038 3.31 1.142a8.46 8.46 0 0 0 3.482-.449c2.307-.793 4.231-2.474 5.683-4.435a17.392 17.392 0 0 0 2.22-4.02 445.843 445.843 0 0 0 13.67 6.37c3.525 1.57 7.075 3.097 10.49 4.9a72.04 72.04 0 0 1 4.9 2.842 65.133 65.133 0 0 0-2.009 4.802c-1.022 2.746-1.869 5.68-1.42 8.576.467 3.017 2.37 5.735 4.93 7.4 2.447 1.59 5.368 2.237 8.202 2.94 2.026.501 4.12 1.05 6.174.685a6.3 6.3 0 0 0 2.397-.94 5.079 5.079 0 0 0 1.72-1.902c.669-1.315.67-2.852.882-4.312.182-1.265.537-2.52 1.176-3.626a7.782 7.782 0 0 1 2.842-2.842 59.456 59.456 0 0 0 9.616 3.405c7.077 1.84 14.44 2.36 21.75 2.373 5.922.009 11.86-.312 17.71-1.22a88.81 88.81 0 0 0 11.23-2.497" style="paint-order:fill markers stroke" transform="matrix(-1 0 0 1 500 0)"/></g><g fill="none" stroke-width="2"><path d="M85.66 296a563.447 563.447 0 0 1 55.17-6.162M111.6 353.7a581.151 581.151 0 0 1 16.77-15.79 574.864 574.864 0 0 1 18.3-15.87M148.1 381.4a360.686 360.686 0 0 1 9.311-21.62c3.33-7.089 6.89-14.07 10.67-20.93" style="paint-order:fill markers stroke" transform="matrix(-1 0 0 1 500 0)"/></g><path d="M296.2 472.8a169.43 169.43 0 0 0 34.59-3.906c-5.9-1.363-11.29-4.856-14.94-9.688-3.611-4.78-5.5-10.83-5.248-16.82a93.19 93.19 0 0 0 34.72 12.11 93.25 93.25 0 0 0 39.02-2.96 848.347 848.347 0 0 0-20.99 21.26c-6.859 7.193-13.67 14.62-18.3 23.41a57.502 57.502 0 0 0-6.19 19.91 26.41 26.41 0 0 1-7.535-10.23c-1.753-4.25-2.364-8.965-1.753-13.52s2.442-8.944 5.252-12.58a365.822 365.822 0 0 1-35.85 4.269" fill="#f00000" fill-rule="evenodd" style="paint-order:fill markers stroke"/><path d="M334.8 479.8a47.13 47.13 0 0 0 21.161-8.667" fill="none" style="paint-order:fill markers stroke"/><path d="M283.2 385.3c-1.89 11.17.044 22.94 5.405 32.92a51.687 51.687 0 0 0 11.01 13.99 22.07 22.07 0 0 0-5.943 9.575 22.07 22.07 0 0 0-.41 11.26 22.118 22.118 0 0 0 5.329 10.09c-2.512 4.923-3.1 10.8-1.615 16.12a22.415 22.415 0 0 0 6.087 10.14 31.788 31.788 0 0 0-2.854 17.13c.292 2.567.9 5.098 1.808 7.517-4.55 2.821-7.933 7.461-9.23 12.65a20.895 20.895 0 0 0-.285 8.753 22.56 22.56 0 0 0-7.897 7.231 22.5 22.5 0 0 0-2.854 6.089c-1.15.413-2.265.923-3.33 1.522-4.024 2.265-7.243 5.764-9.8 9.61a44.828 44.828 0 0 0-2.854 4.948 64.293 64.293 0 0 0-8.087 2.188c-2.117.724-4.202 1.56-6.375 2.093a23.943 23.943 0 0 1-12.85-.423 9.69 9.69 0 0 0 2.976-2.802 9.654 9.654 0 0 1-2.976 2.802 9.657 9.657 0 0 1-7.263 1.04c-2.79-.72-5.204-2.776-6.358-5.416-.47.601-1 1.154-1.58 1.648-1.569 1.333-3.518 2.226-5.56 2.475s-4.17-.156-5.946-1.197a9.07 9.07 0 0 1-3.835-4.508 15.067 15.067 0 0 0 0 0c-1.9.407-3.893.437-5.78-.03-1.887-.466-3.66-1.44-4.985-2.863a9.202 9.202 0 0 1-2.393-6.99 12.028 12.028 0 0 0 0 0 12 12 0 0 1-5.967-3.236 11.468 11.468 0 0 1-2.706-4.266 10.581 10.581 0 0 1-.505-5.02 10.197 10.197 0 0 1 2.43-5.245 8.47 8.47 0 0 0 3.145 1.198 8.445 8.445 0 0 0-3.144-1.197 8.432 8.432 0 0 1-3.45-4.457c-.647-1.993-.524-4.15-.287-6.232a61.36 61.36 0 0 1 .668-4.424 10.288 10.288 0 0 1 6.137.856 14.517 14.517 0 0 1-4.805-5.947 29.73 29.73 0 0 1 4.856-12.293l3.431-.202 2.422-7.165a39.042 39.042 0 0 1 4.467-4.507c7.98-6.839 18.36-10.18 28.64-12.37a166.102 166.102 0 0 1 29.71-3.578 10.884 10.884 0 0 0-.353 3.85c.168 1.91.852 3.77 1.95 5.342a11.23 11.23 0 0 0 3.43 3.195c-2.657 3.202-6.64 5.267-10.79 5.593a15.693 15.693 0 0 1-8.06-1.53 14.486 14.486 0 0 0-.805.557c-3.217 2.067-7.279 2.772-11 1.91a13.852 13.852 0 0 0 4.011-6.303 13.833 13.833 0 0 1-5.043 7.138 13.863 13.863 0 0 1-9.463 2.578 10.722 10.722 0 0 0 .662-3.323 10.762 10.762 0 0 1-2.153 6.055c-1.915 2.533-5.01 4.135-8.183 4.235a9.744 9.744 0 0 0-1.462-3.646c1.73 2.593 2.113 6.033 1 8.944a9.936 9.936 0 0 1-5.543 5.61 10.742 10.742 0 0 0-1.969-3.088c2.123 2.316 3.16 5.59 2.755 8.706a10.92 10.92 0 0 1-3.036 6.218 9.74 9.74 0 0 0 1.217.906 9.724 9.724 0 0 1 2.977 4.814 9.706 9.706 0 0 1-.013 4.945 16.46 16.46 0 0 1 6.087 1.91c1.695.925 3.279 2.223 4.044 3.996a6.012 6.012 0 0 1 .095 4.472 6.208 6.208 0 0 0-.095-4.472 17.181 17.181 0 0 0 6.434 3.376c2.48.685 5.117.8 7.648.335a7.074 7.074 0 0 0-1.311 3.389 7.035 7.035 0 0 1 1.311-3.388 7.004 7.004 0 0 1 4.256-2.681 7.005 7.005 0 0 1 4.948.902 13.986 13.986 0 0 0 .519 4.928 13.99 13.99 0 0 0 2.678 5.03 14.36 14.36 0 0 1-3.162-7.333c-.17-1.371-.137-2.784.27-4.104.624-2.031 2.14-3.752 4.036-4.71a8.488 8.488 0 0 1 5.765-.666c-.59 3.298.597 6.86 3.048 9.144a10.114 10.114 0 0 0 0 0 10.165 10.165 0 0 1-2.949-5.148 10.324 10.324 0 0 1 .426-5.92 10.383 10.383 0 0 1 2.872-4.112 15.284 15.284 0 0 0 2.873 4.54c2.626 2.87 6.408 4.675 10.29 4.814a14.405 14.405 0 0 1-3.964-.7c-3.33-1.088-6.212-3.424-8.073-6.391-.64-1.02-1.167-2.122-1.44-3.295-.272-1.173-.28-2.423.094-3.567.571-1.744 2.063-3.157 3.835-3.633a15.954 15.954 0 0 0 4.981 3.354 16.007 16.007 0 0 0 8.654 1.087c-3.521.4-7.154-.239-10.33-1.817-1.274-.634-2.508-1.447-3.308-2.624-.556-.819-.88-1.783-1.004-2.764-.125-.982-.058-1.981.121-2.954a13.156 13.156 0 0 1 4.046-7.285 13.018 13.018 0 0 0 5.668 4.063c2.816 1.025 5.954 1.037 8.846.249a16.862 16.862 0 0 0 5.043-2.324 16.169 16.169 0 0 1-8.664 2.856c-3.312.1-6.709-.89-9.224-3.047-2.318-1.988-3.806-4.993-3.71-8.045.084-2.727 1.451-5.387 3.618-7.044a10.762 10.762 0 0 0 5.226 4.07c1.432.517 2.957.722 4.475.838 2.693.205 5.407.141 8.087-.19a37.157 37.157 0 0 1-8.087.19c-1.516-.13-3.032-.356-4.475-.837s-2.816-1.228-3.892-2.303c-1.34-1.34-2.173-3.16-2.384-5.043a9.103 9.103 0 0 1 1.987-6.705c1.9.84 3.936 1.372 6.005 1.567a19.481 19.481 0 0 0 10.75-2.095 20.47 20.47 0 0 1-10.75 2.095c-2.074-.166-4.134-.657-6.005-1.567-1.87-.91-3.55-2.25-4.747-3.951a10.988 10.988 0 0 1-1.95-5.343 10.991 10.991 0 0 1 .999-5.6 18.528 18.528 0 0 0 10.66.762 18.5 18.5 0 0 0 8.753-4.757 21.357 21.357 0 0 1-8.753 4.757c-3.521.941-7.424.923-10.66-.761-1.9-.99-3.497-2.52-4.664-4.316-1.167-1.796-1.912-3.85-2.281-5.96a18.547 18.547 0 0 1 .527-8.568c3.025.696 6.224.627 9.216-.2a18.862 18.862 0 0 0 7.383-3.982c-3.546 3.126-8.311 4.831-13.04 4.662-2.787-.1-5.557-.835-7.996-2.189-2.44-1.353-4.54-3.326-5.99-5.709a15.572 15.572 0 0 1-2.255-8.176 31.99 31.99 0 0 0 9.854 1.414c3.635-.05 7.26-.727 10.67-1.992a25.188 25.188 0 0 1-13.7 1.903c-6.895-.985-13.32-5.012-17.13-10.84-3.194-4.89-4.523-10.97-3.663-16.74l-17.89-29.83-.498-38.2" fill="#f00000" fill-rule="evenodd" style="paint-order:fill markers stroke"/><path d="M226.4 562.7a13.913 13.913 0 0 1-3.162 3.296" fill="none" style="paint-order:fill markers stroke"/><path d="M276.1 400.6a330.402 330.402 0 0 0-9.514 23.79 36.734 36.734 0 0 1-5.518-6.66 36.891 36.891 0 0 1-5.709-16.37 86.101 86.101 0 0 0-4.186 25.02 41.743 41.743 0 0 1-10.09-8.851 41.74 41.74 0 0 1-8.373-16.94 42.186 42.186 0 0 1-6.184 21.024 25.752 25.752 0 0 1-5.466-6.753c-2.183-3.898-3.333-8.335-5.761-12.09-1.608-2.484-3.76-4.638-4.948-7.348-.783-1.786-1.11-3.741-1.237-5.687-.186-2.835.039-5.697.666-8.468" fill="#f00000" fill-rule="evenodd" style="paint-order:fill markers stroke"/><path d="M221.9 334.7a27.023 27.023 0 0 0-6.375 3.235 27.034 27.034 0 0 0-6.539 6.372 60.431 60.431 0 0 1-3.768 15.881 8.082 8.082 0 0 0 4.709 1.548 37.324 37.324 0 0 0-2.841 9.015 37.354 37.354 0 0 0 0 13.19 73.097 73.097 0 0 0 10.107-13.658 26.12 26.12 0 0 0 5.18 12.648 147.299 147.299 0 0 0 8.141-18.234 39.02 39.02 0 0 0 3.566 16.82 38.998 38.998 0 0 0 8.529 11.91 102.719 102.719 0 0 0 4.884-11.15 102.816 102.816 0 0 0 3.901-13.23 49.285 49.285 0 0 0 4.852 16.89 49.15 49.15 0 0 0 3.616 6.139 55.813 55.813 0 0 0 10.181-19.788 61.151 61.151 0 0 0 10.847 17.22 72.2 72.2 0 0 0 5.614-11.42c1.783-4.615 3.093-9.433 3.616-14.35 1.205-11.34-1.954-23.09-8.683-32.3" fill="#f00000" fill-rule="evenodd" style="paint-order:fill markers stroke"/><path d="M227.8 371.5a192.488 192.488 0 0 0 7.693-22.061" fill="none" style="paint-order:fill markers stroke"/><path d="M226.4 257a12.8 12.8 0 0 1 3.996-3.14 12.796 12.796 0 0 1 4.191-1.265l2.279 18.11" fill="#f00000" fill-rule="evenodd" style="paint-order:fill markers stroke"/><path d="M238.2 334.8a36.284 36.284 0 0 0-5.043 6.99c-1.568 2.832-2.758 5.877-4.567 8.561a21.95 21.95 0 0 1-3.52 4.049 47.52 47.52 0 0 1-3.235-19.695 21.243 21.243 0 0 0-6.375 3.235c-2.446 1.819-4.466 4.137-6.539 6.372a143.24 143.24 0 0 1-12.01 11.52 39.871 39.871 0 0 1 1.713-11.27c1.756-5.796 4.902-11.24 9.419-15.27 4.534-4.048 10.22-6.525 15.8-8.944 3.648-1.582 7.295-3.168 10.94-4.757a39.253 39.253 0 0 1-17.222-3.831 36.133 36.133 0 0 0 11.62-6.732c6.016-5.2 10.23-12.45 11.77-20.25a16.81 16.81 0 0 1-6.257 6.19 16.807 16.807 0 0 1-8.525 2.153 49.889 49.889 0 0 0 3.546-7.804c.676-1.907 1.238-3.868 1.433-5.881.195-2.013.011-4.09-.76-5.96-1.212-2.933-3.729-5.098-6.22-7.064-1.685-1.33-3.402-2.625-5.218-3.768-2.593-1.632-5.466-3.019-7.332-5.45a9.703 9.703 0 0 1-1.682-3.431 14.106 14.106 0 0 0 8.996 3.406c2.499.026 5.014-.617 7.476-.19 2.25.39 4.263 1.65 5.994 3.14a23.523 23.523 0 0 1 6.184 8.373 21.505 21.505 0 0 0 4.365-7.364c1.513-4.362 1.574-9.154.582-13.66-1.687-7.673-6.469-14.62-13.03-18.93 4.77.14 9.561-.54 14.1-2 2.726-.876 5.368-2.032 8.16-2.662a22.569 22.569 0 0 1 10.66.19 2.73 2.73 0 0 0-1.208.769c-.324.358-.55.804-.647 1.277-.095.463-.067.95.082 1.398.149.448.417.856.77 1.17a8.518 8.518 0 0 1 4.38-3.33c2.022-.665 4.214-.544 6.327-.284a54.154 54.154 0 0 1 10.89 2.52c4.173 1.425 8.19 3.338 11.85 5.804a44.607 44.607 0 0 1 12.18 12.27 140.132 140.132 0 0 1-24.73 2 19.536 19.536 0 0 1 8.753 7.326 22.596 22.596 0 0 1-10.37 3.427 22.581 22.581 0 0 1-9.705-1.427 32.459 32.459 0 0 0 5.376 9.99 32.453 32.453 0 0 0 8.801 7.707 24.822 24.822 0 0 1-5.423.951 24.855 24.855 0 0 1-8.183-.856 50.08 50.08 0 0 0 9.61 23.494 13.66 13.66 0 0 1-4.948 0 13.747 13.747 0 0 1-7.897-4.563 57.357 57.357 0 0 0 17.887 25.402c-5.215.65-10.65-.623-15.03-3.52a22.403 22.403 0 0 1-7.612-8.563 25.85 25.85 0 0 0 3.711 10.85c3.264 5.271 8.288 9.163 13.13 13.03 2.565 2.051 5.154 4.181 6.913 6.954 1.535 2.42 2.367 5.234 2.758 8.073.327 2.373.354 4.819-.269 7.132a13.154 13.154 0 0 1-5.382 7.468 35.917 35.917 0 0 1-5.046-15.676A46.45 46.45 0 0 1 270 359.832a92.427 92.427 0 0 1-8.182-15.699 50.074 50.074 0 0 1-7.897 15.603 51.966 51.966 0 0 1-5.328-19.222" fill="#f00000" fill-rule="evenodd" style="paint-order:fill markers stroke"/><path d="M260.4 348.4a87.084 87.084 0 0 0 3.845-13.122" fill="none" style="paint-order:fill markers stroke"/><path d="M219.9 227c-1.97-.57-3.893-1.296-5.873-1.828-1.98-.533-4.043-.871-6.081-.643-1.436.16-2.848.607-4.08 1.363-1.232.756-2.279 1.827-2.948 3.108-.664 1.274-.943 2.745-.792 4.173s.732 2.808 1.648 3.915a4.54 4.54 0 0 1 .761-3.33c.756-1.07 1.97-1.77 3.252-2.04 1.282-.27 2.626-.136 3.884.231 3.45 1.008 6.151 3.638 9.27 5.423 2.837 1.624 6.057 2.566 8.713 4.472 2.35 1.686 4.15 4.064 5.423 6.66a23.05 23.05 0 0 1 1.951 14.25 23.462 23.462 0 0 1 3.568 5.728 21.505 21.505 0 0 0 4.365-7.364c1.513-4.362 1.574-9.154.583-13.66-1.687-7.673-6.469-14.62-13.03-18.93a38.8 38.8 0 0 1-10.61-1.524z" fill="#f00000" fill-rule="evenodd" style="paint-order:fill markers stroke"/><path d="M283.3 247.7a130.81 130.81 0 0 1-6.644-.373c-2.305-.189-4.617-.44-6.847-1.053-5.053-1.388-9.56-4.68-12.42-9.07" fill="none" style="paint-order:fill markers stroke"/><g fill="#f00000" fill-rule="evenodd"><path d="M222.2 247.3c-4.591-1.769-9.464-2.654-14.24-3.853-5.182-1.302-10.3-2.998-14.99-5.566-1.608-.881-3.173-1.872-4.491-3.146-1.319-1.274-2.386-2.851-2.844-4.627-.253-.981-.318-2.011-.673-2.96a5.152 5.152 0 0 0-1.615-2.22 13.182 13.182 0 0 0-2 3.162c-.866 1.933-1.252 4.147-.69 6.19.41 1.496 1.306 2.826 2.394 3.934 1.087 1.107 2.364 2.009 3.66 2.862 3.42 2.248 7.06 4.213 10.97 5.428 4.062 1.263 8.327 1.693 12.51 2.443 2.68.48 5.334 1.093 7.998 1.654 4.692.99 9.418 1.822 14.17 2.496a39.166 39.166 0 0 0-10.16-5.796zM265.3 233.1a26.716 26.716 0 0 0 9.15-5.315 26.677 26.677 0 0 0 4.306-4.893 51.768 51.768 0 0 0-16.279 5.771M246.2 236c2.157-.438 4.382-.498 6.572-.277 1.671.169 3.326.5 4.933.99a10.449 10.449 0 0 1-5.21 3.861c-2.198.728-4.598.698-6.861.208a17.578 17.578 0 0 1-5.663-2.318A19.122 19.122 0 0 1 246.2 236z" style="paint-order:fill markers stroke"/></g><path d="M245.2 240.7a3.762 3.762 0 0 0 1.306-1.92 3.775 3.775 0 0 0-.272-2.753l-5.062 1.799" fill-rule="evenodd" style="paint-order:fill markers stroke"/></g><path d="M4 4v201.5h492V4H4zm225.9 35.16h40.34v45.43h45.43v40.34h-45.43v45.43H229.9v-45.43h-45.43V84.59h45.43V39.16z" fill="#f00000" fill-rule="evenodd" stroke="#000" stroke-linecap="round" stroke-miterlimit="1000" stroke-width="4" style="paint-order:fill markers stroke"/><path d="M4 4v279.9c20.02 260 236.1 309.8 246 311.8 9.96-2.002 226.1-51.99 246-311.8V4z" fill="none" stroke="#000" stroke-width="8"/></svg>