<svg xmlns="http://www.w3.org/2000/svg" width="500" height="600" viewBox="-2.5 -2.5 502 523"><path fill="#1c63b7" d="M1.51-38v281c20.1 261 237 311 247 313 10-2.01 227-52.2 247-313V-38z"/><g stroke="#000" stroke-width="4.01"><path fill="#094" d="M373 492c53.8-44.3 92.8-106 109-174a26286.403 26286.403 0 0 0-467.4 3.965c11.4 44.4 32.3 86.3 61 122 43.5 54.4 105 94.2 172 112 45.6-11.9 88.6-33.8 125-63.8z"/><path fill="#fff" d="M183 337c-21 15.1-41.1 31.5-60.2 48.9-9.24 8.39-18.3 17-26.3 26.6-8.12 9.65-15.2 20.2-21 31.4 13 16.2 27.6 31.2 43.5 44.6 22.1 18.7 46.7 34.5 72.9 46.8-1.02-18.2.155-36.5 3.5-54.4 5.05-27 15-53 26.3-78 9.71-21.4 20.5-42.4 34.4-61.5 5.76-7.93 12-15.5 18.7-22.6l-66 .575c-8.73 5.63-17.3 11.5-25.8 17.5z"/></g><g stroke="#000" stroke-linecap="round"><path fill="none" stroke-width="3.51" d="M257 57.8c4 6.41 7.28 13.3 9.76 20.4 2.88 8.29 4.67 17 5.32 25.7"/><path fill="#fff" stroke-linejoin="round" stroke-width="4.01" d="M394 318c-15.9-34.7-37.3-66.8-63-95-2.96-3.25-5.97-6.44-9.05-9.58-1.43-6.79-3.09-13.5-4.97-20.2-2.51-8.95-5.42-17.8-7.8-26.8-1.1-4.16-2.13-8.43-4.43-12.1a19.549 19.549 0 0 0-7.98-7.1c-3.43-1.08-7.33-.54-10.3 1.44-1.08.714-2.05 1.6-3.15 2.29-1.54.962-3.33 1.52-5.14 1.6a109.007 109.007 0 0 1-6.92-17.95c.827 2.86 1.77 5.7 2.83 8.48 1.22 3.21 2.58 6.35 4.09 9.43 1.11-.08 2.22-.306 3.27-.672 1.89-.657 3.63-1.77 5.02-3.21-.111-19.8-2.56-39.5-7.27-58.7-2.45-9.95-5.51-19.8-9.78-29.1-2.73-5.96-5.95-11.7-8.47-17.7-.739-1.78-1.42-3.6-2.38-5.27-1.55-2.68-3.78-4.91-6.21-6.84a40.427 40.427 0 0 0-4.89-3.32c-4.19 1.62-7.87 4.51-10.4 8.19-1.12 1.6-2.03 3.35-2.7 5.19a52.06 52.06 0 0 0-10.69-.532 71.346 71.346 0 0 0-1.51 4.35c-3.19 10.3-3.91 21.2-6.12 31.8-2.01 9.6-5.25 18.9-7.36 28.5a123.92 123.92 0 0 0-1.85 10.5c3.8-.538 7.45-2.14 10.4-4.58 2.19-1.8 4.02-4.06 5.11-6.67.915-2.18 1.3-4.57 1.13-6.92.262 3.94-1.03 7.96-3.55 11-2.09 2.53-4.94 4.35-7.98 5.59-3.8 1.55-7.89 2.23-12 2.66-2.32.248-4.67.423-6.92 1.06-2.23.636-4.32 1.73-6.12 3.19-4.35 10.1-8.25 20.4-11.7 30.8-1.71 5.16-3.31 10.4-4.8 15.6 2-.57 4.01-1.09 6.04-1.55a116.89 116.89 0 0 0-8.75 2.37c-2.09.652-4.16 1.36-6.21 2.13-3.87 9.23-7.36 18.6-10.5 28.1-12.7 39.2-18.7 80.6-17.6 122z"/><path fill="#fff" stroke-linejoin="round" stroke-width="4.01" d="M16.1 291c1.81-3.55 3.95-6.92 6.27-10.2 1.05-1.47 2.13-2.91 3.25-4.32a31.14 31.14 0 0 0 .763 5.45 31.467 31.467 0 0 1-.502-11.4c.537-3.84 1.78-7.54 3.14-11.2 2.22-5.93 4.77-11.7 7.78-17.3 1.48-2.74 3.07-5.42 4.77-8.03 2.97.563 6.02.69 9.03.376 4.03-.42 7.94-1.62 11.8-2.88 2.22-.729 4.44-1.48 6.65-2.26-2.92 1.12-5.88 2.11-8.88 2.98-2.48.715-4.98 1.34-7.5 1.89.914-5 2.15-9.93 3.71-14.8 2.66-8.28 6.22-16.2 9.03-24.5 2.74-8.03 4.76-16.3 6.02-24.7 1.07-2.01 2.38-3.89 3.9-5.58 1.93-2.14 4.18-3.97 6.56-5.59 1.21-.821 2.45-1.59 3.72-2.31 2.57 1.6 5 3.41 7.27 5.41 4.34 3.81 8.09 8.31 11 13.3s4.96 10.4 7.1 15.8c1.74 4.37 3.54 8.72 5.41 13a29.866 29.866 0 0 1-3.46 3.19c-.514.403-1.06.798-1.69.976-.517.146-1.07.137-1.6.014s-1.02-.36-1.46-.656c-.897-.592-1.61-1.41-2.35-2.2a38.917 38.917 0 0 0 0 0c.738.782 1.45 1.6 2.35 2.2.449.296.941.532 1.46.656s1.08.132 1.6-.015c.628-.179 1.17-.573 1.69-.976 1.24-.967 2.41-2.02 3.46-3.19.917-1.02 1.75-2.13 2.79-3.02a9.076 9.076 0 0 1 5.06-2.08c2.5 4.43 4.97 8.88 7.41 13.3 6.37 11.7 12.5 23.4 20 34.4 4.63 6.77 9.86 13.4 11.9 21.4.333 1.28.579 2.58.753 3.89.445 3.36.407 6.77.627 10.2.157 2.42.452 4.86 1.25 7.15 1.25 3.57 3.66 6.6 5.89 9.66 4.63 6.33 8.67 13.1 12 20.2l-169 2.4-4.04-16.3c1.13-5 2.89-9.87 5.22-14.4z"/><path fill="none" stroke-linejoin="round" stroke-width="4.01" d="M143 261c1.54 3.65 3 7.33 4.39 11 1.27 3.41 2.49 6.85 3.26 10.4.619 2.84.956 5.75 1 8.65 3.35 3.41 6.45 7.06 9.28 10.9 1.91 2.59 3.69 5.28 5.14 8.15 1.53 3.02 2.67 6.24 3.4 9.55M300 205l.355 11.7c3.96 2.18 7.93 4.37 11.9 6.56 4.47 2.48 9.03 5.03 12.4 8.87 4.04 4.59 6.05 10.6 7.63 16.5 1.87 6.99 3.29 14.1 4.26 21.3"/><path fill="#fff" stroke-linejoin="round" stroke-width="4.01" d="m483 318 5.76-25.6c-1.83-8.89-5.18-17.5-9.88-25.2-3.03-5-6.59-9.65-9.93-14.4-2.7-3.87-5.26-7.85-7.65-11.9-.974-1.66-1.97-3.38-3.51-4.52-1.61-1.19-3.67-1.61-5.67-1.65-2-.034-3.99.293-5.98.463-1.63.14-3.29.174-4.91-.072-3.17-.482-6.09-2.02-8.72-3.86s-5.02-4-7.58-5.92c-2.85-2.13-5.96-4-9.41-4.89a18.42 18.42 0 0 0-10.4.376c2.6-.897 5.42-1.18 8.14-.807 3.82.516 7.38 2.27 10.5 4.49 4.66 3.28 8.68 7.67 14 9.68 2.65.995 5.54 1.34 8.35 1.01-2.36-8.97-5.05-17.8-8.07-26.6-2.72-7.89-5.71-15.7-8.25-23.6-1.49-4.67-2.84-9.39-3.89-14.2-.344-1.57-.659-3.15-1.27-4.63-.607-1.48-1.54-2.88-2.87-3.77-.758-.502-1.62-.823-2.47-1.15-.847-.33-1.7-.68-2.43-1.23-1.08-.82-1.8-2.02-2.46-3.2s-1.31-2.41-2.31-3.32a6.172 6.172 0 0 0-3.74-1.58 6.43 6.43 0 0 0-3.92 1.07 6.56 6.56 0 0 0-2.13 2.38 28.21 28.21 0 0 0-10.16 1.129c-2.89 5.15-5.65 10.4-8.28 15.7-3.47 6.99-6.7 14.1-9.66 21.3-1.5 3.67-2.94 7.37-4.3 11.1.881.499 1.85.85 2.84 1.04.853.158 1.74.194 2.59.033.948-.18 1.84-.596 2.65-1.12.808-.527 1.54-1.16 2.25-1.81 1.63-1.5 3.2-3.1 5.07-4.29 1.72-1.1 3.73-1.84 5.78-1.76 1.18.045 2.34.359 3.52.322.612-.02 1.24-.14 1.76-.463.505-.314.884-.802 1.15-1.33.27-.53.439-1.1.601-1.68.217-.766.424-1.53.621-2.31-.183.775-.39 1.54-.621 2.31-.229.755-.486 1.52-.936 2.16-.225.324-.498.617-.819.846s-.693.392-1.08.449c-.498.074-1-.024-1.5-.102-1.75-.276-3.56-.32-5.27.125-2.78.722-5.07 2.65-7.15 4.64-.884.847-1.75 1.72-2.73 2.45s-2.09 1.33-3.29 1.56c-1.23.233-2.51.07-3.69-.322-1.18-.392-2.28-1.01-3.33-1.68a29.158 29.158 0 0 1-3.76-2.88c-3.69.558-7.18 2.35-9.78 5.02-3.43 3.52-5.21 8.31-6.52 13-2.03 7.29-3.21 14.8-5.77 21.9-1.38 3.83-3.17 7.6-3.51 11.7a16.8 16.8 0 0 0 .878 6.9c-2.25.307-4.45.943-6.52 1.88-1.5.683-2.94 1.53-4.26 2.51-.31 3.04-.813 6.06-1.51 9.03-1.37 5.88-3.47 11.6-6.02 17.1-2.22 4.78-4.78 9.4-7.27 14-2.67 4.97-5.26 9.98-7.78 15z"/><path fill="none" stroke-linejoin="round" stroke-width="2.51" d="M217 227c.683-2.24.821-4.65.399-6.96-.714-3.9-3.08-7.48-6.39-9.67"/><path fill="none" stroke-linejoin="round" stroke-width="4.01" d="M268 217a22.85 22.85 0 0 0 1.33 6.39c.681 1.87 1.61 3.65 2.69 5.32 2.17 3.35 4.95 6.26 7.15 9.58 1.1 1.66 2.05 3.41 2.84 5.23a24.972 24.972 0 0 0-3.19 3.55c-.939 1.27-1.76 2.63-2.32 4.11-.564 1.47-.865 3.06-.756 4.64.127 1.83.805 3.59 1.78 5.14 2.17 3.44 5.69 5.76 8.48 8.73 2.48 2.64 4.36 5.78 6.74 8.51 1.11 1.28 2.33 2.47 3.64 3.55a46.934 46.934 0 0 0-6.56-1.06c-2.05-.187-4.12-.24-6.18-.159-.36 1.85-.375 3.76-.044 5.61.582 3.26 2.21 6.25 4.06 9 1.81 2.69 3.87 5.23 6.13 7.56"/><path fill="none" stroke-linejoin="round" stroke-width="3.01" d="M455 260a7.978 7.978 0 0 0-.829 5.19 7.98 7.98 0 0 0 2.6 4.57c1.64 1.43 3.79 2.11 5.68 3.19 2.96 1.7 5.24 4.36 7.27 7.1 1.26 1.7 2.46 3.46 3.28 5.41 1.41 3.34 1.67 7.03 1.95 10.6.272 3.53.586 7.08 1.6 10.5 1.23 4.13 3.5 7.94 6.53 11"/><path stroke-linejoin="round" stroke-width="3.01" d="M285 319c-.295-3.57-.146-7.18.441-10.7.29-1.75.7-3.51 1.63-5.02a8.078 8.078 0 0 1 1.95-2.16 56.392 56.392 0 0 0-1.17-3 52.274 52.274 0 0 0-1.21-2.65 6.833 6.833 0 0 1-1.39 2.85c-.711.867-1.64 1.56-2.7 1.94a5.96 5.96 0 0 1-4.64-.251c-1.12-1.92-1.99-4-2.57-6.15-.377-1.4-.633-2.84-.608-4.29.025-1.45.339-2.91 1.05-4.18a7.271 7.271 0 0 1 3.06-2.93c1.28-.646 2.76-.9 4.18-.718a56.07 56.07 0 0 0-3.67-5.25c-2.18-2.77-4.62-5.33-6.96-7.96-1.37-1.55-2.73-3.16-3.51-5.08-1.01-2.49-.951-5.29-.627-7.96.197-1.63.487-3.25.941-4.83.538-1.87 1.31-3.7 1.44-5.64.169-2.47-.738-4.95-2.26-6.9-.815-1.05-1.81-1.97-2.45-3.14a6.198 6.198 0 0 1-.69-3.83c1.24-.481 2.49-.92 3.76-1.32.84-.263 1.69-.507 2.54-.732a25.294 25.294 0 0 1-3.016-6.29 63.352 63.352 0 0 1-7.61 3.07 63.26 63.26 0 0 1-8.28 2.13 48.308 48.308 0 0 0-10.2-11.8 49.072 49.072 0 0 0-2.38-1.88 62.257 62.257 0 0 0-10.2 5.77 59.695 59.695 0 0 0-5.52 4.39 29.943 29.943 0 0 1-11.29.752 6.465 6.465 0 0 0 .028 2.29c.37 1.93 1.58 3.57 2.75 5.14 1.3 1.76 2.59 3.54 3.86 5.32-.436 1.04-.94 2.04-1.51 3.02-3.41 5.83-8.93 10.1-14.6 13.8-1.57 1.02-3.16 2-4.77 2.95a18.97 18.97 0 0 1-1.505-2.76c.5 1.17 1.12 2.29 1.83 3.34 1.54 2.24 3.54 4.15 5 6.44 1.73 2.71 2.64 5.89 2.88 9.09.195 2.59-.04 5.2-.69 7.71a6.418 6.418 0 0 1-2.67-.658 6.4 6.4 0 0 1-3.07-3.32c.826 1.83 1.35 3.8 1.54 5.8.282 2.98-.175 6.01-1.13 8.84-.522 1.55-1.2 3.08-1.38 4.7-.16 1.42.062 2.85.408 4.23.345 1.38.813 2.73 1.16 4.11.61 2.43.838 4.95.878 7.46a50.86 50.86 0 0 1-.371 6.99"/></g><path fill="none" stroke="#000" stroke-width="8.03" d="M1.51-38v281c20.1 261 237 311 247 313 10-2.01 227-52.2 247-313V-38z"/></svg>