<svg width="500" height="599.7" version="1.0" xml:space="preserve" xmlns="http://www.w3.org/2000/svg"><path d="M3.999 3.999v279.9c20.02 260 236.1 309.8 246 311.8 9.96-2.002 226.1-51.99 246-311.8V3.999z" fill="#094" stroke="#000" stroke-width="7.998"/><path d="M457.5 429a334.618 334.618 0 0 0 26.39-70.53 393.53 393.53 0 0 1-12.77-27.1c-4.821-11.33-9.124-22.93-15.05-33.72-9.209-16.77-22.3-31.38-37.94-42.41-12.36-8.717-26.18-15.16-40.31-20.55-15.99-6.093-32.6-10.94-47.42-19.49-23.53-13.59-41.21-35.99-52.16-60.85-6.418-14.57-10.7-30.06-17.91-44.26-8.6-16.92-21.28-31.67-36.35-43.2-15.97-12.22-34.42-20.79-53.21-27.92-12.08-4.587-24.44-8.646-35.83-14.75a110.973 110.973 0 0 1-26.87-20.19h-104v57.65a137.496 137.496 0 0 0 15.5 25.82c11.02 14.48 25.01 26.78 41.1 35.3 11.42 6.049 23.75 10.15 35.83 14.75 18.78 7.164 37.24 15.71 53.21 27.92 15.08 11.53 27.76 26.28 36.35 43.2 7.213 14.19 11.49 29.69 17.91 44.26 10.95 24.86 28.64 47.26 52.16 60.85 14.82 8.561 31.42 13.41 47.42 19.49 14.13 5.373 27.97 11.8 40.31 20.55 15.6 11.06 28.55 25.75 37.94 42.41 6.046 10.73 10.61 22.23 15.05 33.72 3.029 7.84 6.022 15.73 10.06 23.1 5.156 9.414 12 17.9 20.1 24.95a333.965 333.965 0 0 0 30.54-48.99z" fill="#fff" fill-rule="evenodd" stroke="#000" stroke-linecap="round" stroke-linejoin="round" stroke-miterlimit="1000" stroke-width="4" style="paint-order:fill markers stroke"/><g fill="#fcdb00" fill-rule="evenodd" stroke="#000" stroke-linecap="round" stroke-linejoin="round" stroke-miterlimit="1000" stroke-width="4"><path d="M367.8 119.6h-47.16v62.43h47.16zM463.4 119.6h-47.16v62.43h47.16zM415.6 24.17h-47.16V86.6h47.16zM109.6 214.7H62.44v62.43h47.16z" style="paint-order:fill markers stroke"/></g><path d="M108.4 374.2h11.96l2-2h9.146v94.26h116.5V372.2h9.146l2 2h11.96l-81.36-83.22z" fill="#fff" fill-rule="evenodd" stroke="#000" stroke-linecap="round" stroke-linejoin="round" stroke-miterlimit="1000" stroke-width="4" style="paint-order:fill markers stroke" transform="translate(-10 20)"/><g fill="none" stroke="#000" stroke-linecap="round" stroke-linejoin="round" stroke-miterlimit="1000" stroke-width="4"><path d="m189.8 303.2-69.4 70.98 2-2M189.8 303.2l69.4 70.98-2-2M216.2 466.4v-49.92h11.36l-37.77-39.68-37.77 39.68h11.36v49.92" style="paint-order:fill markers stroke" transform="translate(-10 20)"/><path d="m216.2 416.5-26.4-27.74-26.4 27.74" style="paint-order:fill markers stroke" transform="translate(-10 20)"/></g><g fill-rule="evenodd"><path d="M153.8 364.9h6.454v23.05H153.8z" style="paint-order:fill markers stroke" transform="translate(-10 20)"/><path transform="matrix(-1 0 0 1 -10 20)" d="M-225.7 364.9h6.454v23.05h-6.454z" style="paint-order:fill markers stroke"/><path d="M189.8 418.5a9.577 11.41 0 0 0-9.578 11.41v36.51h19.16v-36.51a9.577 11.41 0 0 0-9.578-11.41z" style="paint-order:fill markers stroke" transform="translate(-10 20)"/></g><path d="M189.8 291v-29.06M183.2 269.2h13.1" fill="none" stroke="#000" stroke-linecap="round" stroke-linejoin="round" stroke-miterlimit="1000" stroke-width="4" style="paint-order:fill markers stroke" transform="translate(-10 20)"/><path d="M3.999 3.999v279.9c20.02 260 236.1 309.8 246 311.8 9.96-2.002 226.1-51.99 246-311.8V3.999z" fill="none" stroke="#000" stroke-width="8"/></svg>