<svg width="500" height="599.7" version="1.0" xml:space="preserve" xmlns="http://www.w3.org/2000/svg"><path d="M3.999 3.999v279.9c20.02 260 236.1 309.8 246 311.8 9.96-2.002 226.1-51.99 246-311.8V3.999z" fill="#fcdb00" stroke="#000" stroke-width="7.998"/><g fill-rule="evenodd" stroke="#000" stroke-linecap="round" stroke-linejoin="round" stroke-miterlimit="1000"><path d="M229.4 410.7a1296.347 1296.347 0 0 0-42.392.807c-1.371 2.507-3.732 5.018-4.115 7.518s-.768 5-1.154 7.498c15.92-2.085 40.64-4.068 48.66-4.518" fill="#094" stroke-width="4" style="paint-order:fill markers stroke"/><path d="M270.3 281.9a22.69 22.69 0 0 0-6.34.676c-4.781 1.218-9.093 3.999-13.95 4.875-2.237.403-4.594.379-6.73-.397-2.144-.778-3.961-2.264-6.059-3.16-2.229-.953-4.691-1.206-7.113-1.318-2.99-.138-6.002-.079-8.947.455-2.945.534-5.828 1.557-8.307 3.234-4.007 2.71-6.756 7.007-8.299 11.59-1.041 3.094-1.581 6.375-1.377 9.633.204 3.258 1.17 6.491 2.957 9.223 2.865 4.378 7.561 7.157 12.12 9.727 3.814 2.15 7.66 4.268 11.2 6.85 1.673 1.222 3.324 2.608 4.215 4.48.772 1.62.907 3.477.791 5.27a20.378 20.378 0 0 1-.922 4.872 7.18 7.18 0 0 1-3.953.528c-1.873-.285-3.568-1.312-4.955-2.602-1.387-1.29-2.502-2.842-3.605-4.381-4.568-6.37-9.386-12.97-16.33-16.6-2.979-1.556-6.305-2.51-9.666-2.504-3.36.006-6.753 1.005-9.434 3.03-3.614 2.733-5.695 7.125-6.453 11.59-.91 5.363-.093 10.86.922 16.2.449 2.363.937 4.723 1.186 7.114.483 4.647.049 9.368-1.055 13.91-.84 3.453-2.073 6.926-1.711 10.46.381 3.724 2.519 7.07 5.137 9.746 2.089 2.136 4.525 3.95 7.24 5.195s5.713 1.914 8.697 1.787c3.131-.133 6.179-1.132 8.977-2.543s5.366-3.231 7.883-5.098c4.538-3.367 9.019-7 12.12-11.72 1.367-2.082 2.501-4.414 4.479-5.928 2.06-1.577 4.926-2.037 7.377-1.186a380.276 380.276 0 0 0-4.479 10.67c-2.328 5.794-4.524 11.68-5.664 17.82-1.769 9.526-.848 19.72 3.688 28.28 2.193 4.139 5.344 7.962 9.605 9.906.025.011.053.018.078.03-4.919.45-9.788 1.414-14.43 3.101-10.27 3.736-19.16 10.76-26.08 19.23-5.415 6.631-9.748 14.3-11.59 22.66a42.944 42.944 0 0 0-.754 13.86c.62.443 1.203.934 1.816 1.387a153.018 153.018 0 0 1 4.523 3.457c.93.741 1.844 1.497 2.756 2.26a151.25 151.25 0 0 1 4.172 3.627c.522.47 1.075.904 1.59 1.381.446.412.867.85 1.307 1.268a152.998 152.998 0 0 1 5.432 5.43c.708.742 1.415 1.483 2.107 2.24a151.508 151.508 0 0 1 3.16 3.59c.633.737 1.28 1.462 1.898 2.212a151.66 151.66 0 0 1 0 0c-.618-.75-1.265-1.475-1.898-2.213a149.545 149.545 0 0 0-3.16-3.59c-.692-.757-1.4-1.498-2.107-2.24a151.89 151.89 0 0 0-5.432-5.429c-.95-.9-1.924-1.773-2.896-2.648a152.964 152.964 0 0 0-4.172-3.627 151.71 151.71 0 0 0-2.756-2.26 151.315 151.315 0 0 0-4.523-3.457c-5.627-4.154-11.51-7.963-17.66-11.29-16.34-8.856-34.3-14.65-52.69-17.39a169.866 169.866 0 0 0-52.46.406 327.038 327.038 0 0 0 75.3 73.53c31.73 22.25 67.45 38.78 104.9 48.56 37.49-9.785 73.21-26.31 104.9-48.56a327.038 327.038 0 0 0 75.3-73.53 169.876 169.876 0 0 0-52.46-.406c-18.39 2.734-36.34 8.531-52.69 17.39-6.136 3.325-12.01 7.125-17.62 11.27a151.568 151.568 0 0 0-4.566 3.488 152.336 152.336 0 0 0-6.953 5.908c-.954.86-1.91 1.716-2.842 2.6a150.886 150.886 0 0 0-5.457 5.454c-.705.741-1.413 1.48-2.104 2.234a153.07 153.07 0 0 0-3.219 3.66c-.607.708-1.228 1.404-1.822 2.123a149.631 149.631 0 0 0 0 0c.594-.72 1.215-1.415 1.822-2.123a151.14 151.14 0 0 1 3.22-3.66c.69-.755 1.396-1.493 2.103-2.234a153.084 153.084 0 0 1 5.457-5.454c.433-.41.846-.84 1.283-1.244.505-.468 1.047-.894 1.56-1.355a150.664 150.664 0 0 1 4.206-3.658c.908-.76 1.82-1.512 2.746-2.25a151.178 151.178 0 0 1 4.566-3.488c.6-.443 1.172-.925 1.78-1.359a42.97 42.97 0 0 0-.757-13.86c-1.844-8.36-6.176-16.03-11.59-22.66-6.915-8.468-15.81-15.5-26.08-19.23-3.932-1.43-8.034-2.315-12.19-2.842.043-.013.087-.022.13-.035 4.18-1.264 8.152-3.284 11.51-6.078 4.515-3.76 7.83-8.92 9.423-14.57l27.19 1.139a15.03 15.03 0 0 0 3.715-4.47 15.043 15.043 0 0 0 1.816-6.858c-11.24.047-22.48.047-33.72 0-10.8-.046-25.86-.137-36.67-.27-.082.576-.19 1.15-.25 1.727l-.021.18c-.063.645-.11 1.291-.14 1.938-.027.697-.06 1.393-.036 2.09.055 1.605.245 3.204.564 4.777-.388-1.56-.544-3.17-.566-4.777-.01-.698.005-1.395.037-2.09.024-.648.073-1.292.14-1.938.007-.06.016-.12.022-.18.064-.576.109-1.155.207-1.727h.043c.49-3.442 1.322-6.849 2.287-10.2 2.14-7.42 4.744-14.73 8.256-21.61.505-.989 1.033-1.978 1.75-2.826.718-.847 1.645-1.554 2.721-1.832.814-.21 1.676-.165 2.494.028.818.193 1.595.53 2.348.904 5.515 2.74 9.788 7.402 13.97 11.92 2.32 2.507 4.667 5.015 7.38 7.092 2.711 2.076 5.83 3.719 9.2 4.271 3.585.588 7.344-.105 10.56-1.801 3.213-1.696 5.88-4.37 7.7-7.514 2.135-3.689 3.117-8.061 2.606-12.29-.447-3.707-2-7.257-2.049-10.99-.056-4.373 1.941-8.469 3.164-12.67 2.257-7.746 1.826-16.3-1.488-23.66-1.718-3.813-4.32-7.406-8.043-9.312-2.53-1.296-5.458-1.736-8.289-1.465-2.83.271-5.568 1.23-8.07 2.582-5.42 2.928-9.687 7.624-13.23 12.67-2.373 3.381-4.496 6.987-7.45 9.873-.429.418-.877.824-1.397 1.119-1.166.66-2.573.709-3.912.65a29.448 29.448 0 0 1-4.564-.558 14.49 14.49 0 0 1 1.096-6.037c1.706-4.11 5.214-7.21 8.957-9.615 4.558-2.93 9.623-5.056 13.96-8.3 3.21-2.397 5.995-5.41 7.875-8.948 1.88-3.538 2.823-7.614 2.398-11.6-.366-3.436-1.743-6.742-3.816-9.506-2.074-2.764-4.83-4.992-7.906-6.564a24.4 24.4 0 0 0-10.26-2.652zm-9.699 139.2h.002c-.03 1.519-.464 3.026-1.244 4.33s-1.904 2.4-3.229 3.145c-1.905 1.072-4.211 1.394-6.348.93s-4.088-1.704-5.447-3.416c-1.033-1.3-1.725-2.852-2.143-4.46-.01-.037-.012-.075-.022-.113z" fill="#094" stroke-width="4" style="paint-order:fill markers stroke"/><path d="M246.1 359.3a390.33 390.33 0 0 1 50.5 1.941c-3.903-.38-7.807-.737-11.71-1.071-8.243-.706-16.5-1.31-24.77-1.615a271.8 271.8 0 0 0-12.56-.192c-.522.005-1.044.011-1.566.023-5.35.123-10.67.8-15.99 1.414-2.422.28-4.845.548-7.271.78-1.124.109-2.248.209-3.372.316-2.643.252-5.283.542-7.92.855-1.784.213-3.566.436-5.347.67a390.32 390.32 0 0 1 40-3.12z" style="paint-order:fill markers stroke"/><path d="M246.4 361.8c.092.598.225 1.189.396 1.77.14-.653.245-1.314.314-1.979.093-.915.118-1.836.132-2.755.185-12.22-1.468-24.4-1.472-36.62-.002-5.58.34-11.16 1.026-16.7a198.245 198.245 0 0 0-1.118 19.19c-.104 10.76.668 21.51.535 32.27-.02 1.61-.059 3.229.187 4.82z" style="paint-order:fill markers stroke"/></g><g fill-rule="evenodd" stroke="#000" stroke-linecap="round" stroke-miterlimit="1000"><path fill="#1c63b7" stroke-linejoin="round" stroke-width="4" style="paint-order:fill markers stroke" d="M3.999 3.999h492v256.8h-492z"/><g fill="#fcdb00"><path class="UnoptimicedTransforms" d="m100.6 25.09 12.53 37.75 39.78.25-32.03 23.58 12.06 37.91-32.33-23.18-32.33 23.18 12.05-37.91L48.3 63.09l39.78-.25zm298.8 0-12.53 37.75-39.78.25 32.03 23.58-12.06 37.91 32.33-23.18 32.33 23.18-12.05-37.91 32.03-23.58-39.78-.25z" stroke-width="4" style="paint-order:fill markers stroke"/><path transform="translate(149.4)" d="m100.6 25.09 12.53 37.75 39.78.25-32.03 23.58 12.06 37.91-32.33-23.18-32.33 23.18 12.05-37.91L48.3 63.09l39.78-.25z" stroke-width="4" style="paint-order:fill markers stroke"/><path transform="matrix(1.18 0 0 1.18 131.2 96.54)" d="m100.6 25.09 12.53 37.75 39.78.25-32.03 23.58 12.06 37.91-32.33-23.18-32.33 23.18 12.05-37.91L48.3 63.09l39.78-.25z" stroke-width="3.389" style="paint-order:fill markers stroke"/></g></g><path d="M3.999 3.999v279.9c20.02 260 236.1 309.8 246 311.8 9.96-2.002 226.1-51.99 246-311.8V3.999z" fill="none" stroke="#000" stroke-width="8"/></svg>