<?xml version="1.0" encoding="UTF-8"?>
<svg width="500" height="600" xmlns="http://www.w3.org/2000/svg">
<path d="M4 4v280c20 260 236 310 246 312 10-2 226-52 246-312V4H4z" fill="#f00000"/>
<path d="M250.063 17.123c-9.215 5.718-11.9 12.742-12.083 23.828-2.145 42.05-1.26 84.175-2.08 126.262-1.748 18.17-1.621 61.597-1.586 67.978-16.372-1.722-24.873-5.827-25.885 4.45-4.816-1.124-10.451-2.411-14.431-5.495-3.031-2.464-5.331-5.957-7.413-9.232-.81-1.541-2.082-3.258-1.341-5.07 1.69-5.609 5.33-9.954 5.591-16.181.323-3.92.573-7.464-.539-11.829 2.154-.886 12.561-11.361 13.83-13.273l-2.996-7.506 13.152-8.633s-2.796-5.65-3.545-8.185c.802-2.012 2.465-3.799 3.815-5.47 3.362-3.92 5.87-8.597 7.447-13.5 1.559-4.895.845-9.632 2.125-14.667.95-3.492 3.5-6.627 4.328-10.146.645-2.744.182-5.783.2-8.596-.305-4.015 4.152-11.378 5.862-16.075-12.4-5.167-16.546 4.026-21.8 7.47-3.52-5.112-1.07-10.1.68-13.684-2.88-1.695-5.026-1.783-7.325-1.722-3.545.139-6.403 2.394-7.953 5.486-1.655 3.405-3.173 6.588-3.506 12.67-2.186-3.327-4.331-10.737-6.935-13.62-3.153.802-6.882 2.883-7.787 6.245-.715 3.065-.348 6.444-.444 9.58.035 3.562-.628 7.578.408 10.975 1.028 3.449 2.562 6.488 2.953 10.129.358 3.458.496 7.003.33 10.478-.095 3.258-1.95 5.627-3.552 8.309-2.57 4.006-4.328 8.144-7.438 11.811-5.164 6.813-8.931 11.942-17.875 19.15-3.152-4.871-9.769-5.874-15.3-5.826-8.945.166-16.852 2.466-25.823-.138 2.63-1.368 5.495-2.535 7.916-4.25 3.014-2.169 4.077-6.08 3.52-9.625-.436-2.247-1.952-4.434-3.024-6.445-.278-1.01-.547-2.02-.808-3.04 2.334-.505 4.685-1.028 7.037-1.455 8.387-1.576 16.365-.87 24.613-4.006 8.864-3.443 9.05-15.307 8.924-16.312-.55-3.606-3.75-7.038-7.33-8.23-3.415-1.194-6.342-.184-9.59.87.87 2.613 2.578 6.01 1.89 8.797-.862 2.883-3.441 3.97-6.002 4.98-6.41 2.273-12.724 4.234-19.613 4.13 1.56-6.298 2.281-12.594 2.342-19.082 0-3.475-1.036-6.646-1.201-10.122-.2-2.343.008-5.051-.81-7.281-.532-1.002-2.23-1.315-3.231-1.672-6.227-1.49-17.356-3.683-23.74-4.18-.045-.084-4.735-8.856-30.956 1.793-6.419 2.674-12.847 3.72-19.605 5.166.244 2.927 1.368 6.349.775 9.223-6.406 3.05-6.506 5.983-7.804 10.965-1.96 6.41-1.432 13.374 1.68 19.666-1.182 2.377-2.533 6.464-3.09 10.897-.488 4.067-.306 8.238.216 12.297.82 6.28 3.406 12.001 4.381 18.263 1.766 10.63 4.219 14.259 21.262 26.408 2.935 2.126 4.946 4.878 7.35 7.508 2.386 2.691 5.322 4.458 8.318 6.366 5.609 3.422 10.007 9.153 13.465 14.658 4.398 6.993 6.627 14.405 9.353 22.113 2.082 5.975 5.165 10.878 6.219 17.219.731 4.511 1.645 9.014 2.203 13.56.636 9.05-3.16 16.959-5.565 25.215-1.924 6.436-1.41 14.031-5.652 19.327-4.694 4.616-9.712 8.378-16.453 9.24-3.754.783-7.316-.844-9.406-3.997-2.387-3.536-2.247-8.335-1.707-12.394 1.358-7.063 3.744-13.961 9.353-18.795 5.504-5.06 12.194-6.48 19.396-7.299-.279-2.447-.226-5.453-2.037-7.334-2.692-2.979-6.93-5.177-11.148-5.6 3.328-6.06 5.768-13.883 5.75-21.033 0-6.114.437-12.533-1.488-18.342-1.81-6.44-6.268-11.526-12.458-14.075 2.15 8.364 1.412 36.332-2.1 43.117 2.846-26.99-3.712-39.264-20.18-57.41-6.531-7.037-14.319-10.81-20.154-18.22-2.665-3.484-5.113-7.299-7.107-11.21-1.986-3.953-2.16-7.882-2.83-12.15a40.572 40.572 0 0 0-2.274-.295c-6.674 11.839-2.751 22.791.697 34.89-1.842-.407-2.578-.87-4.019-1.83-.157 6.506-.082 15.007 3.314 20.807l.649 1.967c-3.258 5.74-2.261 14.13.918 19.476 4.772 7.839 12.725 13.029 19.98 18.324 4.337 3.083 6.724 7.657 8.518 12.543 2.186 6.079 1.533 13.376 1.02 19.716-.941 7.813-.237 15.625-1.09 23.437-.628 5.958.67 12.178 2.84 17.717 3.327 8.297 16.711 15.333 26.79 13.621 6.445-.444 11.08-3.727 16.837-6.088.418 3.728.469 7.394-.654 11.008-1.36 4.503-3.092 9.424-6.07 13.108-3.763 4.712-8.04 8.814-12.116 13.177-4.276 4.547-6.14 10.715-6.219 16.864-.043 5.252.29 10.484-.085 15.736-.497 5.922.034 11.828-.55 17.75-.4 4.503 1.915 7.438 3.387 11.436.845 2.064.664 4.076.577 6.254-2.664 2.588-6.285 8.196-5.768 11.797 6.569 12.91 8.794 11.403 21.31 10.751l13.275-.39c-11.278 5.012-16.181 9.607-22.574 16.281 2.203 2.66 5.09 6.092 7.274 8.72l17.019-12.987-1.072 1.228 72.322 18.887 86.6-1.342 125.008-15.965 14.459-13.513 18.156 9.81c2.586-2.712 2.212-5.724 4.386-8.666l-11.957-8.238c5.58-5.54 5.808-7.53 5.38-13.516 2.544-3.962 1.821-7.803 2.222-12.236.174-3.013 2.43-5.757 3.222-8.7.506-3.554-1.297-7.718.28-10.958 1.332-3.04 2.796-5.958 3.484-9.25-.488-3.728-1.604-7.534-3.607-10.738-1.568-2.666-3.632-5.07-4.059-8.23-.653-4.234-.452-8.258-2.568-12.152-1.516-2.83-3.981-4.544-6.446-6.478-4.79-3.588-9.04-8.023-12.331-13.031-3.38-5.426-3.58-11.513-2.526-17.645 6.523 2.613 11.53 7.343 18.201 8.85 5.722 1.422 22.103.694 33.367-13.78 9.629-13.85 5.882-31.676 4.12-47.44-1.22-7.343-.95-14.78 1.454-21.86 1.542-4.154 5.383-7.62 8.213-10.983 3.702-4.363 8.674-7.134 11.8-11.767 3.261-4.992 6.314-10.922 2.788-16.27-2.439 2.204-7.93 5.15-11.135 6.039 8.403-10.149 12.412-18.16 14.994-33.403.148-2.97-.082-5.138-2.988-7.856 1.866-6.832 6.204-26.965-5.486-32.904-.035 6.959-3.684 11.548-6.262 17.775-2.961 6.567-7.142 12.23-11.566 17.855-5.993 6.726-14.138 11.148-21.34 16.452-5.687 4.198-9.336 10.53-11.496 17.158-2.142 6.637-1.262 13.7 1.734 19.928 3.197 6.863 9.206 9.904 14.596 37.966-3.69-7.33-13.407-16.255-16.438-23.18-2.604-5.878-7.67-23.687-9.167-29.862-7.784 6.805-7.498 16.173-7.498 16.173.488 7.229 1.767 14.763 4.728 21.408 1.986 4.486 5.13 7.924 8.178 11.695 3.719 4.668 8.066 8.397 10.818 13.814-8.785-1.673-16.697-1.26-22.906 5.366 3.37 1.977 6.855 3.535 10.521 4.877 5.391 1.968 10.147 5.469 13.752 9.92 2.03 2.595 3.58 6.192 2.43 9.484-1.568 4.26-5.93 7.778-10.607 7.586-3.179-.113-6.28-1.725-8.946-3.353-4.555-2.84-9.076-6.027-12.925-9.771-1.333-1.35-5.454-4.004-5.898-5.894-2.775-17.205-2.91-30.91-1.81-46.538 1.307-10.94 3.23-21.662 7.159-32.008 1.95-5.904 5.47-10.512 9.224-15.363 4.592-4.428 32.926-27.238 33.375-27.653 3.963-3.484 6.75-8.456 9.675-12.899 8.015-17.94 15.375-34.87 6.941-53.67 1.433-5.404 1.282-14.116-.556-19.35-1.742-4.565-7.036-8.118-11.566-9.876 1.132-3.588 1.84-7.004 1.646-12.246-10.196-.733-20.296-5.211-30.51-4.799-6.601.366-9.28 1.385-14.184 4.209-6.384-1.115-16.134-.952-22.352.938-1.236.435-2.925 1.001-3.457 2.333-1.019 2.622-1.098 5.714-1.412 8.493-.487 5.66-2.029 10.556-1.367 16.286.366 3.162.201 6.183-.312 9.319-6.167-1.942-14.172-3.257-19.11-7.63-3.797-3.361-2.77-8.517-4.756-12.741-3.797-.767-8.405-.418-11.662 1.838-4.773 3.414-6.06 10.477-2.795 15.363 3.946 6.14 11.74 9.806 18.621 11.479 6.558 1.506 13.1 3.067 19.613 4.748-.34 4.65-1.358 9.212-1.715 13.855-.322 4.555 1.594 8.414 3.075 12.586-3.136-.174-6.211-.462-9.19-1.516-13.2-5.971-27.618-6.136-39.889 2.291-4.729-4.476-8.761-13.64-11.13-19.623-2.874-6.741-6.08-14.23-6.385-21.669.105-6.863 2.57-14.04 4.965-20.423 1.315-3.798 2.569-7.77 1.35-11.768-.828-3.04-5.078-6.634-8.196-7.435-1.085 2.74-3.016 7.4-3.902 10.456-2.056-2.517-4.05-4.91-5.557-7.81-2.473-4.782-3.63-9.407-8.83-12.055-3.64-2.108-7.873-.636-10.373 2.465.619 3.745 1.986 7.272 2.221 11.113-5.35-2.85-13.062-6.554-17.928-1.142 1.263 1.907 4.254 7.44 4.942 9.634-.166 3.806-1.62 7.42-1.533 11.313-.018 5.356 3.134 9.319 2.603 14.771-.444 4.651-1.096 9.016.29 13.605.591 2.63 2.795 3.814 4.59 5.608 1.599 1.38 10.916 16.514 11.364 18.238-.766 1.768-2.152 3.371-3.328 4.887 2.073 4.686 5.575 7.968 8.998 11.635-1.176 2.369-4.748 5.826-2.762 8.518 2.116 4.18 4.716 7.119 8.797 10.919-1.914 4.434-1.742 8.609-1.742 11.997-.314 4.755 1.743 9.528 4.826 13.064 2.534 2.883 7.299 3.614 10.826 4.598-.19 8.045-4.447 16.647-9.52 22.818-7.28 8.035-20.809 21.36-32.444 23.734-.206-.936-3.74 1.31-3.793-.383-.052-1.694-.046-3.652-.02-5.65.026-1.999-.855-5.476.108-7.057 1.19-1.955 3.887-4.36 3.413-7.271 5.049-.664 13.74-3.92 17.894-6.176 1.272-.74 2.413-1.585 2.656-3.144.41-3.092.418-6.227-2.177-8.405-2.204-1.872-5.533-1.86-8.537-1.65-3.208.428-9.003 1.466-14.483 2.242-.33-4.259.036-8.545-.408-12.813.299-9.11-1.045-30.645-1.629-51.394-1.822-65.964-.617-119.277-1.949-132.393-.464-9.987-3.596-16.41-10.842-22.078zm-40.668 259.012c7.162 3.163 11.45 5.827 22.311 7.64-2.106 4.815.526 3.341.238 6.024-.644 4.79.026 9.449.854 14.17.723 4.058.65 6.114 2.914 9.679.104 3.84-1.452 9.55-1.295 13.322 1.838 2.456 3.55 4.744 6.875 6.524-1.313 3.702-.49 9.348 2.646 11.03 11.004 5.827 17.988-4.583 14.65-11.76 3.176-1.2 6.058-3.35 7.034-5.572-.33-2.939-3.405-12.682-2.885-13.202 4.92-1.3 13.05-5.26 19.182-8.27 5.861-4.05 12.386-6.393 18.77-9.895 7.812-3.788 14.467-9.127 22.524-12.463 3.701-1.559 9.83-2.65 14.257-4.448.794 6.623 3.57 14.752 2.908 21.188-3.631.95-6.367 2.168-9.44 4.293-9.36 4.454-20.42 6.233-30.659 7.909-4.947.827-9.493 1.288-13.64 4.406-4.162 3.187-9.579 6.689-11.634 11.662-1.873 4.337-3.006 9.25-3.059 13.97.174 7.099 4.469 12.186 5 19.093.357 4.328.88 8.448 3.162 12.236 5.33 9.24 11.07 18.352 17.723 26.713 3.615 4.738 5.017 11.086 6.942 16.712 1.07 3.606 2.666 8.395 1.447 12.088-.915 2.657-4.756 1.246-6.881 1.403-.697-3.075-1.089-6.584-2.596-9.38-2.35-3.492-10.423-14.053-20.285-10.914-2.177.776-5.34 4.824-6.115 6.723 5.174 1.207 10.27 3.748 6.7 10.166-1.499 2.247-4.878 2.23-7.282 2.805-3.501.566-6.69 1.575-8.666 4.754 2.643 3.72 6.223 6.786 9.642 8.744-13.928-1.857-24.12-1.265-36.11 1.979a193.392 193.392 0 0 1-2.91-6.777c3.37.182 6.723.54 10.076.906 1.211-3.319 1.934-6.358.131-9.658-2.534-4.573-9.488-9.464-12.803-9.412 1.483-2.961 3.583-6.353 7.698-7.207-2.788-6.65-8.234-7.99-15.274-5.748-12.522 5.251-13.134 9.081-24.351 19.582-.462-6.95.313-19.825 2.795-26.33 2.238-5.251 5.853-9.904 8.44-15.008 2.473-4.564 4.145-9.397 5.808-14.291.958-3.014 3.058-5.001 5.375-7.004 5.27-4.555 9.701-10.137 11.348-17.035.931-4.076 1.89-8.823.931-12.969-1.62-7.847-7.028-14.806-14.013-18.638-7.386-3.78-14.77-3.5-22.705-5.182-6.715-1.445-13.57-.932-20.293-2.386-8.292-1.568-14.885-5.382-22.488-8.692.096-3.004.026-5.783 1.463-8.527 2.264-4.329 5.096-8.335 7.256-12.742 2.064-3.728 2.897-8.104 3.054-12.566 19.417 7.278 28.719 7.454 45.23 10.355zm-52.805 75.453c4.951 2.872 20.553 1.982 20.553 1.982-2.124 6.971-7.043 12.405-11.47 18.012-2.761 3.64-6.174 6.618-9.205 10.006-2.857 3.092-2.387 8.222-2.387 12.133.017 5.478 2.291 10.121 1.682 15.408-.375 3.91-1.238 8.342-.541 12.226.897 2.935 3.492 5.358 4.38 8.336 1.133 4.18.027 8.823 2.256 12.612 1.977 3.422 4.555 6.505 6.75 9.79 2.1 3.17 4.73 5.825 7.604 8.29 2.081-.749 4.72-2.498 6.906-1.34 2.247.976 4.8 2.543 5.375 5.104-.94 2.055-3.889 6.724-6.545 11.902-7.477-9.983-22.888-16.813-33.598-16.318-.47-1.576-.078-2.186 1.063-3.24 2.203-1.681 5.218-2.473 7.787-3.397-.514-2.621-.402-5.147-2.875-6.793-3.684-2.43-9.136-1.68-13.047-3.927-.226-1.63-.313-3.145.758-4.512 1.794-2.578 3.727-4.982 5.033-7.873-3.795-2.179-5.896-2.7-8.857-2.56-3.206.426-6.33 1.889-9.004 3.665-3.127 2.056-5.15 5.513-8.293 7.42-2.387 1.115-6.132 1.525-8.44.07-2.621-2.578-2.969-7.376-2.437-10.816 1.367-8.884 5.19-17.69 9.406-25.59 2.909-5.47 6.88-9.86 10.782-14.606 3.919-4.781 6.732-10.015 9.99-15.215 2.508-3.997 6.375-6.194 9.154-10 2.273-2.865 5.28-6.12 7.22-10.77zm180.479-.017c.691 2.907 4.08 6.99 6.535 9.018 2.3 2.117 5.453 3.92 6.629 6.899 1.82 4.346 2.395 8.745 5.182 12.795 2.612 3.64 6.096 6.644 8.953 10.101 3.92 4.8 8.588 8.875 12.455 13.709 3.998 5.078 7.82 9.816 10.381 15.826 2.36 5.705 4.564 11.235 4.834 17.489-3.5-.035-8.813 1.464-11.46-1.428-4.068-3.728-8.145-7.064-13.362-9.084-3.396-1.324-7.481-.34-10.146 2.055-1.15 1.106-1.959 2.429-1.471 4.066 2.03 1.559 4.59 2.553 6.549 4.2.531 1.175.428 2.43.105 3.64-4.833 2.76-9.824 2.708-13.674 7.42-2.551 2.726-1.838 5.522-1.455 8.867 3.275-.75 6.994-2.265 10.356-1.838 1.75.383 1.953.629 3.822 2.923-4.26 3.603-3.552 8.021-2.88 10.5-7.604 1.619-17.33 6.028-20.501 9.17-2.867-4.9-7.668-9.677-10.174-11.745 1.132-2.282 3.856-6.816 5.424-8.836 1.986-2.36 5.634-3.145 7.725-5.34 1.637-2.578 2.073-6.051 3.031-8.942.775-2.779 2.23-5.28 3.12-8.014.905-3.362.138-7.186 1.157-10.6.897-3.31 2.439-5.966 1.916-9.537-1.08-7.202-5.617-12.697-5.896-20.3-.436-4.52.313-11.115-3.676-14.25-5.348-4.46-10.485-8.483-14.631-14.24-1.812-2.474-2.603-4.946-3.387-8.498 4.75-.668 9.832-3.025 14.54-6.025z"/>
<path d="M245.395 45.043c-.017 20.598-2.463 39.76-2.577 60.367-1.698 19.709-3.062 64.878-1.818 128.43 5.658 1.63 11.45.692 16.66-.138-1.632-58.84-.668-78.504-4.524-189.231-.165-4.068-.755-15.318-3.307-18.418-3.832 2.888-4.304 12.758-4.434 18.986zm-26.394 192.166c-.715-.19-1.499.083-2.285.26-2.151 1.62.435 5.361 1.75 6.25 5.069 2.064 10.773 2.91 16.19 3.502-.14-.532.835-4.948.696-5.48-5.75-.929-10.251-2.9-16.35-4.532zm30.234 1.606c-2.191-.018-4.392.092-6.504.527-2.099 1.507-2.817 7.835.623 8.14 4.825 1.376 10.63.176 15.612.255 1.854-1 1.21-6.238.009-8.137zm32.652.082c-7.235 1.662-10.925 1.684-17.109 2.307-.009.836.34 5.001.33 5.837 6.15-.757 12.528-.482 18.04-3.426 1.815-.753 2.185-5.78-1.261-4.718zM242.947 314c-.06 1.289-.077 2.568-.103 3.857 4.573.148 9.642 1.477 14.118.536-.07-.862-.888-3.453-.958-4.315a222.934 222.934 0 0 0-9.345-.131c-1.038-.021-1.684-.03-3.71.053z" fill="#fff"/>
<g fill="#fcdb00">
<path d="M281.827 79.987c8.524-5.154 13.107 8.284 12.514 11.062.357 2.622 2.686 4.338 4.001 6.576-.348 3.963-6.331 7.536-5.765 12.117.095 1.75.827 2.447 2.334 3.187 2.473-1.088 3.588-4.572 5.4-6.523 2.77-2.987 8.097-11.404 9.517-15.77 5.287 7.388-.265 13.68-1.25 16.214-1.114 3.832-3.172 7.029-5.167 10.617-1.262 2.648-3.928 5.757-3.762 8.762 1.559 3.196 4.46 4.86 5.208 8.579a91.506 91.506 0 0 0 10.007 26.46c2.291 4.127 2.854 5.917 6.602 9.188-7.94 3.132-9.688 10.447-15.285 15.712-4.39-2.683-6.837-8.58-9.459-12.89a249.404 249.404 0 0 0 5.374-1.986c-3.37-4.277-7.647-6.515-9.127-12.098a565.154 565.154 0 0 0 5.373-1.986c-1.019-2.02-1.933-3.954-3.492-5.635-2.23-2.5-7.511-5.561-9.81-7.922 1.536-.324 3.451-.979 4.235-2.006 4.235-4.159 5.163-7.542 3.023-12.978-1.786 2.674-3.084 5.836-5.2 8.248-2.648 2.073-8.588 2.02-9.485-2.064-1.663-5.922 1.899-12.855.81-18.952-1.21-4.772-4.59-7.847-3.98-13.09.296-2.082-2.847-8.167-5.893-13.37 9.096-1.963 10.37 8.057 10.892 9.433 1.56 3.998 2.605 8.222 3.702 12.368 1.237-.018 2.465-.026 3.701-.035 1.15-4.546-.479-8.283-.931-12.699.992-2.752.54-3.615 1.255-6.42.868-2.473-.51-8.466-5.343-12.1zM77.206 89.062c-3.894.011-7.538 1.71-11.058 3.67-4.651 2.735-9.545 3.275-14.701 4.416-.035.802-.061 1.596-.096 2.397 2.996.383 6.022.864 9.631 2.34-1.774 4.28-.573 6.595-.19 10.505a16.536 16.536 0 0 1-1.978 1.455c-2.317-1.61-3.78-4.042-5.922-5.793-1.594-.505-1.524-.513-3.179-.705l.078 1.742c1.228.14 1.22.287 2.449.444-.349 5.504-.516 10.991 1.226 16.252.514 1.977 1.516 5.243-.609 6.601-2.7 1.315-6.227 1.299-9.18 1.586-1.263 3.205-2.535 6.21-2.709 9.711-.191 4.947-.103 9.938.576 14.85 2.491-.836 4.981-1.68 7.516-2.394-2.28 8.382-2.57 16.783-.549 25.247 1.803 4.451 6.672 7.858 10.88 9.87 0 0 .274-6.671 3.308-8.833 1.236 5.722 1.976 12.237 6.13 16.687 3.197 3.37 6.778 6.664 10.567 9.346 9.023 5.434 18.647 7.576 27.975 11.478 4.102 1.611 7.61 4.564 11.748 5.931 1.733.645 3.092-.783 4.225-1.898 3.449-4.163 3.98-10.078 2.5-15.13-1.098-3.422-4.39-5.984-5.575-9.32.027-1.532.584-3.108.95-4.59 1.977 1.403 3.902 2.703 5.478 4.575 2.125 2.43 3.44 4.973 6.4 6.549 4.6 2.552 9.05 4.38 12.76 8.309 2.143 2.377 4.339 5.113 5.375 8.17.845 2.97 1.027 6.192 1.314 9.258 1.037-.264 20.03-12.092 3.39-33.27 7.639-1.17 12.61 5.774 13.384 10.494 1.271 6.019.088 11.462-.39 17.446 12.2-7.721 12.007-19.742-1.684-35.763 6.85-.696 12.776 9.762 16.358 18.6 4.268-17.16-9.482-26.339-17.54-28.955l-19.842-5.164 4.87-4.297c-6.888-1.367-14.763-1.712-21.704-.807-7.255.41-15.285 1.115-22.34-.906-4.302-1.306-6.428-4.703-8.91-8.135-2.36-3.536-6.305-4.442-8.44-8.17-4.093-6.828-3.631-15.458-3.353-23.122 1.49-.148 2.997-.236 4.47-.489 2.673-4.006 2.742-8.63 6.888-11.957 3.91-3.318 8.647-2.29 13.36-2.709 3.318-.017 5.39-2.866 6.296-5.758.314-1.541.786-3.222-.756-4.25-1.637-.792-3.484-1.21-5.226-1.715.392-2.09.836-4.182 1.21-6.28-7.828-3.835-16.892-4.134-24.102-3.242l-2.488-4.603c-2.98-.307-5.852-.093-8.79.325zm14.129 9.432c-.189.802-.375 1.605-.557 2.408-.27 2.979.365 5.889.191 8.85-.23 2.02-1.897 9.905-13.917 9.266-4.451.183-6.817-2.788-10.94-6.941.427-6.106 4.652-9.458 9.477-12.428 2.927-1.594 5.948-1.611 9.17-1.898 0-.019-.002-.037-.003-.055 2.265-.244 4.384.336 6.58.799zM411.006 89.515s-2.16.983-5.395 3.521c-8.038-.443-13.747.59-20.417 2.077-.2.61-.375 1.23-.532 1.848 1.594.47 3.196.887 4.807 1.297.017.818.045 1.629.062 2.439-2.064.984-5.083.867-6.236 2.838-1.448 2.475-1.447 5.748.73 8.57 2.98 4.817 11.254 1.977 14.808 5.2 2.647 3.335 4.076 7.752 5.818 11.619 1.733 7.29-1.22 15.46-6.332 20.755-1.855 1.969-4.19 2.368-6.733 2.82-3.945.61-7.916 1.072-11.896 1.42.27 1.342.505 2.744 1.088 3.981 3.153 1.637 7.394 1.35 10.851 1.219 4.163-.14 7.256-3.458 9.477-6.637 2.352-3.536 6.045-7.907 6.132-12.244.113-3.44.6-6.882.704-10.322 1.367-.218.75-.427 2.117-.627.497 7.655 1.132 15.365-2.9 22.27-3.275 5.166-6.402 11.061-11.21 14.858-3.257 2.674-7.088 4.13-11.33 4.121-5.678.035-11.776.156-17.306-1.203-8.718-2.345-18.078-4.414-27.131-2.847-2.961.627-7.272 1.35-9.545 3.187 5.104 2.432 12.176 3.649 17.01 5.033l-.21 3.467c-7.62-1.263-14.918-.984-22.495.358-1.637.496-3.214 1.567-4.678 2.447a171.878 171.878 0 0 0 5.391 3.98c-.226.828-.452 1.655-.688 2.483-9.135-.024-14.398 2.4-18.532 10.557-2.535 4.947-3.31 10.642-1.813 16.033.505 1.942 1.759 3.328 3.248 4.6 2.073-3.293 2.11-7.473 3.895-11 2.534-5.087 5.503-10.052 10.555-12.987 2.691-1.368 5.2-3.31 8.17-1.42-6.193 3.604-13.902 9.85-13.674 20.119-.044 3.623-.226 7.952 2.021 11.017 1.533 2.204 4.32 2.943 6.697 3.875-.121-9.58-.385-19.346 15.38-22.23 2.723-4.752 4.95-8.059 13.275-10.49-10.416 13.032-7.788 31.78-5.74 32.6 7.181-11.33 12.832-14.825 25.122-16.22 2.942-6.643 10.242-13.608 17.145-12.045-3.658 3.928-7.646 7.31-9.98 12.274-2.073 4.79-3.294 9.832-1.848 15.005 4.686-2.325 9.47-4.746 14.477-6.357 7.83-2.413 16.216-5.035 23.184-9.424 4.93-3.492 9.546-8.188 12.752-13.326 2.752-4.399 2.647-8.893 4.04-13.674 3.967 1.506 3.423 8.107 3.423 8.107 2.098-1.106 4.085-2.116 5.435-4.154 3.57-5.156 6.393-11.253 7.168-17.524.81-6.732-1.813-12.829-3.633-19.195 4.719.33 9.317 9.9 9.317 9.9 2.432-7.766 2.036-15.785.386-23-2.586 1.07-5.365 2.823-8.17 3.006-3.335-.21-7.394-1.952-8.152-5.592-.287-1.986-.409-4.721 1.856-5.575 2.438 1.751 4.44 3.458 7.533 3.946-1.594-5.74-4.058-11.235-5.94-16.897-2.369-.052-4.903.088-7.21-.46-1.62-.584-2.082-3.198-2.848-4.565-4.024 1.576-7.865 4.26-12.176 4.146-3.275.105-7.752-.201-10.008-2.927-1.385-2.256-.907-5.652-1.09-8.239-1.446-.992-3.466-1.908-4.424-3.423-.897-2.213-.87-4.859-1.262-7.202 8.43-.199 17.119-1.189 25.327 1.29 2.255 1.123 3.476 3.029 4.79 5.076-1.454.34-2.9.663-4.345.994-1.733 2.909-3.651 5.679-5.541 8.474 3.257-.775 6.49-1.664 9.756-2.439 1.219-3.04 2.282-5.922 4.851-8.117 2.204-1.969 3.048-3.328 3.858-6.176-10.333-.226-20.96-6.526-31.234-4.29zm32.325 16.135c-.65 0-1.29.101-1.9.332-1.847.514-3.044 2.082-3.458 3.85 2.64-.724 5.949-1.381 8.601.136 2.57 1.47 3.742 4.463 4.874 7.399l1.117 12.98c4.032-5.852 2.705-16.368-1.52-21.002-1.875-1.769-4.899-3.694-7.714-3.695z"/>
<path d="M228.638 88.819c-9.46.543-11.32 6.998-12.644 10.87l-6.94 13.447c-.99 1.138-2.942.907-3.73-.532-.087-4.79 2.58-8.124 3.807-12.453 0-3.31-4.36-12.137-.95-18.603-10.603.27-8.9 15.128-9.345 17.907-.505 4.215.183 8.665-.549 12.845-1.315 2.509-3.866 1.699-4.877-.53-.723-3.572.609-8.335-1.412-11.504-1.315-1.385-4.617-12.448-5.573-13.895-7.925 3.872-1.063 18.266-.636 21.488 1.193 4.26 4.702 6.532 4.276 11.419-.323 5.434.48 9.693 2.222 14.788-2.787 1.951-5.46 3.799-7.299 6.742-4.494 7.073-9.493 13.796-14.257 20.694-3.022 4.26-6.847 7.743-10.06 11.836 4.372.784 8.587 1.717 12.437 4.034 3.814 1.985 7.246 5.225 11.287 6.636 1.48.087 3.241-1.516 4.582-2.17.018-2.22-.373-4.763.297-6.906 1.594-2.543 4.398-4.354 5.887-6.941.845-2.117.504-4.704 1.219-6.856 1.158-2.334 3.205-4.31 4.912-6.27-.601-1.697-1.21-3.396-1.81-5.095 1.793-1.907 3.919-3.84 5.19-6.13-3.026-2.662-6.202-4.93-7.29-8.989-1.246-3.249-.304-5.26 1.586-7.969 2.351 3.423 4.423 9.433 8.69 10.809 3.032 1.306 7.886-.905 9-3.378 2.465-4.825.975-9.338 1.393-14.407.218-3.797 4.485-7.945 5.356-11.63.727-2.156.68-6.743 2.018-10.797z"/>
</g>
<path d="M419.742 99.854c1.568 0 3.144.017 4.712.034-.357 1.699-.75 3.388-1.132 5.078-1.09.035-2.178.078-3.258.13-.13-1.75-.235-3.492-.322-5.242zM75.08 111.56c1.098.008 3.293.034 3.293.034s2.033-4.91 2.007-6.269c-1.08-.008-4.524-.225-5.604-.225 0 1.35.296 5.1.305 6.46z" fill="#fff"/>
<path d="M50.048 102.484c-10.342 1.515-10.045 11.08-10.135 11.823-.151.743-.23 1.436-.293 1.973-.057.67-.326 3.595.67 6.5 1.318 3.498 4.8 6.599 8.613 7.578-9.13-17.178-4.548-24.241 7.187-27.284-.43-.074-3.885-.906-6.042-.59z" fill="#fcdb00"/>
<g fill="#fff">
<path d="M345.624 110.48c-5.164.761-4.895 6.672-2.76 10.512 2.29 4.46 8.579 5.957 13.012 7.246 6.506 1.856 13.144 2.996 19.528 5.313 5.574 1.69 11.209 3.937 16.992 4.686-3.31-2.37-6.968-3.98-10.843-5.182-9.11-3.083-18.5-4.8-27.383-8.57-2.682-1.533-5.608-3.076-7.193-5.854-1.437-2.386-1.125-5.435-1.352-8.152zM112.575 120.643c-1.263.052-2.516.097-3.779.201-.122.984 1.447 6.047 1.447 6.047s.352.374 1.719.383l.613-6.631zm-8.527 3.863-3.506 1.086 2.567 6.78 1.886-.85-.947-7.016zm1.5 17.499c-1.071.235-2.186.418-3.223.775-.383.732-1.347 4.17-1.347 4.17l5.08 1.873s-.466-5.738-.51-6.818zm5.27 1.218c-.671 1.437-2.141 6.508-2.141 6.508l4.44-.547s-1.463-5.107-2.3-5.96zM148.85 112.273c17.8 2.7 5.998 18.472-5.23 19.893-7.091 1.116-29.103 4.691-33.87 5.19-.372-.476-.746-1.042-.855-1.5 2.266-.68 27.39-5.67 32.73-7.251 1.873-.601 5.218-2.724 6.594-4.187 1.385-1.55 2.642-8.764.632-12.145zM383.72 122.699c1.646 2.369 2.133 4.145 2.264 7.046-1.49-.628-3.127-1.124-4.311-2.239-.27-1.75 1.193-3.388 2.046-4.807z"/>
</g>
<path d="m419.1 125.05c13.424 0.422 16.82 12.571 14.798 18.795-4.377-6.97-9.414-12.06-14.798-18.795z"/>
<path d="M394.632 126.818c.053 1.777.079 3.554.088 5.322a328.186 328.186 0 0 1-5-.331c1.254-3.04 1.699-3.85 4.912-4.99z" fill="#fff"/>
<path d="m80.132 130.4c-4.036 5.22-8.667 9.3-10.504 14.076-3.684-3.709 1.325-11.272 1.325-11.272 2.517-2.665 5.696-2.926 9.18-2.804z"/>
<path d="M384.216 140.649c-.889.94-1.838 1.803-2.7 2.76-.157-1.07-.357-2.124-.505-3.187 1.071.14 2.134.314 3.205.427z" fill="#fff"/>
<path d="M93.066 142.809c1.838 2.952 2.996 5.792 6.27 7.42 5.166 2.9 11.062 1.55 16.784 1.655-.096.88-.89 2.624-.986 3.504-5.905 1.132-11.775 1.89-17.367-.958-3.44-2.43-6.295-7.066-4.701-11.621z" fill="#fcdb00"/>
<path d="M121.563 142.774c1.072 2.012 2.587 4.198 3.023 6.445.557 3.545-.505 7.455-3.519 9.624-2.421 1.716-5.287 2.883-7.917 4.25 8.97 2.604 16.88.305 25.824.14l-.854 1.471c-7.56.453-14.823 1.499-22.592.628-2.813-.34-4.965-1.69-7.351-3.075 4.241-1.855 10.347-2.665 13.543-6.14 3.501-3.824.523-9.023-.157-13.343z"/>
<path d="M390.217 142.208c.775.531 1.559 1.062 2.334 1.594-.183.731-.357 1.463-.54 2.194-.505.41-1.01.81-1.516 1.22-.827-.47-1.654-.95-2.473-1.437a27.265 27.265 0 0 1 2.195-3.571z" fill="#fff"/>
<path d="M77.641 144.368s-6.915 14.444-6 18.473c-6.411-6.49-3.44-14.006 1.219-18.177 1.672-.906 2.892-1.682 4.781-.296zM431.186 151.875s2.244 8.934-1.152 12.104c-1.088-2.595-3.917-9.84-5.824-11.956-1.881-1.933-4.393-4.83-6.51-6.493 2.893-3.339 11.31-.266 13.487 6.345zM81.796 156.883c-1.972 5.37-2.152 12.536-.845 19.109-2.166-.808-4.47-2.65-5.34-4.575-1.882-4.033-1.546-8.344 1.334-12.121 1.26-1.654 3.022-1.786 4.85-2.413zM412.879 159.6c2.926-.196 6.784-.105 9.047 3.555 5.086 8.95-.642 19.795-3.364 19.239 1.313-8.22-2.62-17.754-5.683-22.793zM86.36 165.41c.732-1.317 2.17-2.07 4.15-2.27-.865 7.995.437 13.66 1.87 20.673-6.75-2.142-9.087-12.884-6.02-18.403zM407.853 178.1c.938 2.805 2.098 9.71-7.498 13.047 2.294-6.345 1.684-14.476.121-19.074 3.316.08 6.248 2.145 7.377 6.027zM100.225 171.193c2.46 9.479 8.734 17.888 9.99 19.169-5.643.432-9.087-3.018-12.238-7.342-3.137-5.053-1.431-10.878 2.248-11.827zM115.641 175.487c3.837 7.039 6.206 10.155 10.309 14.21-6.204.242-10.234-1.947-12.086-6.825-.479-1.55-.679-7.263 1.777-7.385zM392.377 176.297c-.114 3.51-.128 6.92-2.653 9.471-1.49 1.873-4.445 1.937-7.206 1.311 3.239-2.001 7.446-7.29 9.859-10.782zM128.226 177.76c1.864 1.88 7.149 8.682 11.005 10.743-9.035 4.946-13.653-6.331-11.005-10.743z"/>
<g fill="#fcdb00">
<path d="M464.1 196.172c-8.236 10.196-20.24 16.433-29.151 25.754-4.146 4.46-6.185 11.017-7.065 16.914-.444 5.016 3.11 10.522 5.305 14.876 8.344 15.417 9.025 39.996 7.646 44.33-3.792-7.084-5.345-9.209-11.836-15.824-11.004-14.843-13.48-20.937-17.336-39.437-4.367 12.058-.607 18.375 2.702 26.678 5.655 14.193 23.465 24.121 28.752 43.25.81 2.849.393 5.531-.016 8.405-5.916-13.998-13.596-19.98-27.64-16.315 9.77 3.7 18.738 8.843 22.187 14.13 3.074 4.677 3.58 11.652-.27 16.068-2.639 3.196-6.175 7.124-10.312 8.195-9.122 1.203-16.895-2.706-23.508-8.545-5.34-4.65-9.825-10.068-15.46-14.396-1.92-23.04-3.524-26.998-2.673-37.983.949-11.104 1.89-21.928 4.748-32.746a108.904 108.904 0 0 1 7.802-19.623c.514-1.524 4.332-5.195 6.455-7.087-8.1 2.482-21.523 8.054-26.591 15.222-5.272-4.295-5.777-10.793-7.22-17.01-10.779.907-15.6 8.13-21.992 15.583-4.886-3.806-7.446-9.539-8.1-15.592-.278-3.536.088-7.193.192-10.746-12.568 3.35-9.8 15.31-7.873 24.465-7.742.447-11.333-1.598-15.02-4.539-.134.69-3.915 19.57-15.882 27.87-4.686 3.032-9.083 6.524-13.603 9.79-5.714 4.085-9.982 9.25-15.243 13.875-2.421-1.34-4.85-2.978-7.48-3.867-1.028-.41-2.144.358-3.041.793-3.493 1.969-6.314 4.173-10.477 4.565-5.025.348-9.93-1.29-15.008-1.002 2.43 3.083 5.375 5.581 9.207 6.687 3.562 1.098 7.254-.008 10.799-.592.165 1.107.322 2.214.392 3.329-2.63 1.698-5.8 2.673-8.9 3.021-3.545.244-7.394-1.559-10.774-2.543 1.063 2.256 1.636 4.39 3.996 5.627 4.015 2.36 9.556 1.263 13.954.854l.418 2.925c-1.228.95-2.465 1.917-3.736 2.805-1.995.54-4.007.836-6.045 1.14l.027 1.778c1.812.157 3.815.565 5.61.217 4.415-.923 8.081-3.536 12.576-4.46 9.014-3.773 16.38-6.626 24.508-10.66 7.655-3.475 14.893-7.7 22-12.168 4.169-1.64 9.239-3.316 23.568-8.638 2.574-6.605 5.252-11.986 9.72-16.393 1.655-1.733 3.727-1.785 5.948-2.316-5.39 13.188-8.075 19.852-3.72 36.693 1.16 4.485.977 8.875.811 13.448.61.287-.318.02.292.308 2.856-6.303 3.626-13.858 2.513-21.515 10.213 11.251 4.367 21.743 4.367 21.743-.619 2.43-3 5.97-4.717 7.651-2.943 2.718-5.459 5.626-6.556 9.562-2.03 7.29-3.79 14.86-2.1 22.41 1.159 5.043 3.05 10.182 6.916 13.788 2.204 2.3 5.277 4.223 6.914 6.95 1.385 3.126 1.665 6.662 3.31 9.78 1.926 3.99 4.59 7.517 7.76 10.6 5.34 5.121 10.165 10.722 15.47 15.887 8.857 10.112 15.031 22.61 15.536 36.24-.026 2.187.087 4.416-1.42 6.184-3.631.366-7.394-.383-11.078-.287-2.16-.035-4.476.287-6.584-.166-3.267-6.072-12.462-15.846-19.302-10.842 2.564 2.27 7.534 4.657 8.71 7.645.818 1.898 1.577 3.832 3.484 4.894 2.996 1.672 6.775 2.248 10.093 2.988-.278 1.002-.565 2.004-.843 3.014-2.84.009-5.435.201-8.135-.879-9.929-4.695-18.3-4.922-21.86 4.004 4.145-1.713 12.559-.147 15.094 2.51 4.2-.21 7.67-.653 11.197-1.045.584.792 1.177 1.585 1.76 2.37-3.431 1.863-7.019 2.43-10.816 3.013-3.022.165-7.403 6.635-6.837 9.213 3.53-2.899 14.15.758 19.796-4.555 2.77-2.56 5.296-5.171 8.666-6.974-.575 2.386-1.673 4.85-1.76 7.314-.31 3.417.607 8.066 1.591 10.322 1.128-3.596 6.458-7.116 9.61-7.482 2.648-.47 5.801-.19 8.266-1.297 2.891-1.663 5.19-4.8 5.408-8.187.575-5.557-1.507-10.843-2.744-16.199 1.95-.165 4.037.285 6.228-.88 1.493-2.89-4.876-16.67-4.876-16.67a265.06 265.06 0 0 0 6.966-.104c-.4-6.245-2.352-11.244-5.627-16.496 2.787.113 5.567.288 8.354.41-.976-3.466-2.57-6.56-4.33-9.678-2.378-4.05-.331-8.622-2.656-12.959-2.247-3.902-6.767-6.881-10.112-9.834-4.65-3.971-8.177-8.683-11.653-13.674-1.219-1.863-2.404-3.675-2.552-5.957-.227-3.414.244-6.89.244-10.312.122-6.254-.957-12.14-2.055-18.255.54-.487 1.088-.975 1.637-1.463 4.912 4.494 8.927 9.302 14.257 13.256 7.358 5.419 20.01 12.595 29.926 7.098 18.09-9.79 15.47-37.512 14.893-41.588-1.481-9.86-2.57-20.328-1.637-30.283.688-7.803 5.879-14.074 11.226-19.379 4.12-4.284 16.296-13.09 18.935-18.7-7.052 3.005-20.07 8.472-26.74 20.46-2.781 3.344-6.873 6.332-6.122 1.062.6-3.85 1.934-7.534 4.433-10.582 8.338-9.394 15.899-12.71 21.054-21.243 4.309-7.134 8.472-21.168 7.529-23.842-8.686 19.452-23.51 27.094-32.361 40.99-3.275-4.45-1.604-9.51.425-14.074 3.127-5.565 9.474-10.425 13.985-14.919 7.208-7.26 22.107-29.245 16.389-43.59-4.582 14.396-9.137 23.217-11.116 25.44zM21.926 179.023c.245 5.709.61 11.344 2.195 16.848 8.961 22.761 42.591 41.494 38.738 57.495-10.995-16.084-29.072-26.275-41.814-44.105-4.267 23.386 29.58 31.68 37.408 50.102-4.318-4.614-7.538-4.757-11.307-7.135-3.99-2.004-5.519-2.237-9.272-4.807-3.476-2.369-9.499-7.792-13.313-15.22-.455 11 9.41 16.458 13.635 20.125 5.06 4.259 10.46 7.046 14.771 12.271 4.808 5.566 6.28 13.065 6.324 20.233.227 7.56-.419 15.042-1.586 22.506-.74 4.738-1.88 9.98-1.445 14.771.444 6.053.818 13.534 5.904 17.705 7.256 6.079 17.918 9.913 31.407.627 4.459-3.083 8.003-5.514 11.393-10.512 1.437 16.318 1.465 34.233-10.39 47.198-3.101 1.916-6.124 3.492-8.641 6.209-2.57 2.787-4.738 6.08-6.036 9.642-1.088 2.927-.172 6.096.35 9.057 1.977-.357 3.962-.686 5.947-1-1.985 2.352-4.595 4.176-5.92 6.902-1.176 2.42-1.291 5.447-1.57 7.92 1.725.148 3.46.306 5.184.446-3.755 5.087-4.827 10.48-4.948 16.635 1.882-.41 3.753-.837 5.626-1.281-2.996 6.22-4.64 11.918-1.123 18.004a495.767 495.767 0 0 1 5.591-6.576c-.845 5.278-5.554 13.474-3.881 18.743 1.114 3.64 6.425 4.954 10.518 5.747 4.503.61 9.501-1.506 14.309-.408 6.797.756 10.5 4.983 15.5 9.578 3.999-11.13-3.093-14.264-10.893-18.541 3.025-1.244 8.12-.19 11.42 1.603 2.892 1.516 4.24 5.495 6.758 7.254 3.318 1.524 10.038 1.207 14.987 3.984.985-6.148-6.435-10.915-9.144-12.587-2.813-1.585-6.923-1.195-10.041-1.256 1.089-1.367 1.933-3.326 3.85-3.648 3.614-.619 15.623-1.15 19.271-1.847-1.102-5.68-9.265-4.302-14.884-2.839-2.717.923-5.66 2.107-8.552 2.107-1.525.114-2.64-1.114-3.85-1.88 3.257-1.777 7.993-1.41 10.156-5.758 2.221-2.3 4.193-8.862 7.15-12.061-4.553-.806-9.712 2.184-11.672 4.867-2.456 2.752-3.204 9.128-7.611 9.197-4.032.244-8.38.767-12.377.036-1.927-1.113-9.85-6.815-6.219-23.735 1.376-5.74 2.649-11.26 5.549-16.451 2.526-4.529 4.747-8.938 8.152-12.865 4.72-5.435 9.893-10.825 12.62-17.61 1.219-2.717 2.117-6.061 4.085-8.326 2.744-2.569 6.235-3.868 8.735-6.89 2.509-3.023 4.634-6.776 5.897-10.494 1.48-4.399 1.09-8.972.088-13.423-1.159-4.894-2.256-9.66-5.121-13.857-8.012-10.056-9.51-20.24-6.795-32.328 1.019-4.059 2.344-9.146 5.523-12.073-1.644 6.659-.003 29.347-.003 29.347 1.001-.009 1.413-1.09 2.936-3.104-.2-4.312-1.305-8.518-.808-12.655 1.154-7.006 7.554-10.501 11.957-18.648 1.559-2.953 1.873-6.01 2.082-9.276-3.022-1.663-7.341-3.457-8.56-6.967-1.29-5.103.633-11.192 1.722-16.209-1.533-.732-3.073-1.454-4.605-2.186 0-5.095.982-10.442-1.805-14.997-2.456-4.834-6.863-7.543-11.896-9.137-.881 11.02-9.439 22.69-18.194 23.245-.318-2.59.292-4.244-2.539-6.509-4.65-3.814-11.375-4.983-17.193-5.428 1.498 6.088 2.748 8.645 5.344 14.236 3.274 8.318 7.124 16.287 8.988 24.787 1.935 7.78 3.334 15.63 3.152 23.675-.157 4.023-1.593 7.394-2.926 11.113-2.038 5.626-3.98 11.452-5.113 17.34-.714 3.553-1.271 6.907-3.266 10.025-3.544 5.557-8.317 10.712-14.187 13.83-4.233 2.369-9.381 3.71-14.198 2.717-4.285-.993-8.482-3.919-10.285-8.012-2.116-4.851-3.004-10.12-1.576-15.303 1.951-7.568 4.8-16.383 10.426-22.044 3.075-3.231 11.615-7.006 21.717-6.239-4.13-7.231-9.996-6.372-11.735-6.358-2.647.677-5.031 1.555-8.415 4.82 12.977-18.806 15.768-46.843 6.27-56.553 3.277 29.934-1.43 41.615-7.802 50.882-1.175 2.22-2.58 4.181-4.217 6.088-2.36 1.29-4.65-.208-4.773-3.195 4.756-7.452 5.584-12.959 7.117-20.65.566-5.286.077-13.25-1.673-18.327-6.012-18.036-23.694-33.948-25.795-35.793 0 0-18.108-18.865-20.783-32.814z"/>
<path d="M181.015 228.754a1.401 1.401 0 0 0-.405.014c-2.552.374-5.042 1.61-7.498 2.394-2.804.967-5.705 1.403-8.545 2.196-2.787.775-5.182 2.456-7.62 3.963.217 4.215-.026 8.413.009 12.628.078 2.204.374 4.346 2.568 5.408 5.07 2.483 11.236 2.153 16.584 4.26 8.457 3.197 16.94 6.237 25.772 8.283 11.663 2.966 17.079 4.605 27.712 6 4.869 2.872 7.734 2.57 12.272 3.371 3.397.506 7.028.122 10.434-.261-3.493-1.803-7.412-1.899-8.022-6.584 3.11.07 7.188 2.538 10.114 1.614 3.405-.932 6.349-.969 7.76-6.849-4.425.976-9.765 3.354-14.25 2.405-3.319-1.202-7.586-3.938-6.227-8.092 4.558 5.582 25.174 2.795 23.803-7.42-4.799 1.236-11.931 5.102-16.852 5.947-2.714-.557-8.725-7.467-14.013-5.277-2.857 1.158-5.505 2.847-8.284 4.18-1.48-1.925-2.76-4.294-4.955-5.444-3.283-1.76-6.716-3.195-10-4.963-4.799-2.569-9.902-4.033-15.101-5.566-2.474-.784-5.453-1.602-7.448-3.326-2.56-2.343-4.057-5.914-6.627-8.213-.385-.399-.78-.622-1.181-.668zM151.132 306.53c-2.247.47-4.154 2.908-5.783 4.424 7.456 11.324 9.934 19.53 11.008 32.25 3.048 1.594 6.864 1.89 10.217 2.535 6.053 1.089 11.766 1.005 17.714-.023 3.92-.705 7.45-2.348 11.506-3.852-5.498 6.659-9.361 9.676-12.094 11.192-1.306 3.15-1.886 4.78-3.367 7.742-3.632 8.43-9.354 14.727-15.268 21.546-3.588 4.172-5.094 9.155-4.215 14.616 2.343-.871 3.165-1.98 5.622-2.43 1.672-.305 2.591.383 3.218.74-3.448 5.172-6.94 10.559-6.027 16.922 1.942-.357 3.952-2.309 6.994-.574-1.393 3.205-3.71 6.236-4.728 9.537-.819 2.734-.531 5.947-.27 8.77 0 0 2.444-4.386 10.678-1.358-1.603 3.092-3.528 6.034-3.771 9.605-.314 3.362.549 6.428 1.533 9.598 1.865-5.274 4.992-8.679 10.05-8.168-.34 4.52-.662 8.78 1.01 13.108 1.96-1.82 5.736-3.037 8.482-3.15-.248 2.897-.269 5.563.184 7.81 2.709 2.117 4.407 4.215 6.053 7.229.383.017.758.034 1.133.043 1.803-2.805 3.92-5.53 5.348-8.543 1.08-2.265.827-4.921.966-7.395 2.43 1.22 4.913 2.952 7.586 3.553 2.796.157 5.644-.82 8.475-.602 2.038.28 4.032 1.09 5.975 1.743-.706-3.563-1.456-7.116-2.528-10.6-3.658.592-7.812 1.613-11.514.994-1.271-.949-2.055-2.63-2.943-3.937 7.35-1.777 14.473-3.651 24.792-4.726-.748-6.012-6.31-6.85-7.241-7.782-5.757-.94-12.403 2.849-17.559 5.096-.348-1.585-.724-3.083-.69-4.711 2.5-1.742 5.62-2.648 8.503-3.545.444-2.535 8.43-10.486 11.743-13.106-16.076-4.703-25.867 14.59-28.59 17.669-3.274 1.567-5.346 4.12-7.88 6.636-6.747-6.418-5.82-11.791-5.68-19.91.027-5.521 1.185-10.99 2.196-16.52 2.038-5.696 4.032-11.156 7.603-16.086 4.094-5.722 6.654-12.584 8.71-19.256.94-4.12 5.426-5.418 8.335-8.092 3.188-2.552 5.33-5.931 6.924-9.65 1.045-2.639 2.264-5.19 1.707-8.1-.862-5.094-2.534-10.634-6.68-14.03-4.128-3.458-9.033-4.365-14.268-4.696-8.178-.505-16.077-2.281-24.16-3.57-6.915-1.498-14.491-2.446-20.754-5.564-2.656-1.194-5.399-2.778-8.255-3.38zM337.83 307.48c-4.32 1.053-8.326 2.82-12.34 4.675-9.72 4.355-19.92 3.476-29.752 7.822-4.102 1.873-9.372 3.753-12.307 7.29-3.275 4.345-5.845 9.405-5.549 14.988-.043 4.546 1.586 8.57 3.868 12.42 2.822 4.702 2.403 9.667 4.494 14.675 2.238 5.374 4.546 11.497 8.404 15.887 4.311 5.025 8.58 9.763 11.393 15.851 2.709 5.896 5.643 12.368 6.531 18.813.74 6.122 1.455 11.983.967 18.176-.14 1.42-.608 3.485-2.045 4.12-3.214-.74-6.192-2.247-9.406-3.013-2.988-.845-4.192-1.471-6.935-2.908.207-7.987-6.168-26.349-19.862-20.626 7.243 5.573 10.462 14.047 13.907 21.364-.34 1.307-.679 2.604-1.01 3.91l-.793-.626c-1.801-3.556-4.134-6.876-7.596-7.63-2.758-.6-10.307 1.11-12.668 2.617 1.36 1.951 7.984 6.05 9.935 7.444 2.848 1.777 6.628 2.082 9.536 3.737 1.481 1.193 1.298 3.212-.548 3.918-11.858-.402-15.364 4.617-14.622 9.241 7.234-3.43 12.835-2.952 18.27-3.526 2.552-.218 5.044-.706 7.578-1.116.967 1.516 1.812 3.327 3.127 4.573 1.812 1.437 4.164 2.221 5.95 3.693 1.402 1.542 2.588 8.187 3.59 9.99 1.75-2.465 4.326-9.782 3.62-13.057l-2.09-7.168c5.315 1.367 9.505 5.383 10.722 9.728 8.444-7.976 8.178-13.932 6.14-24.612 3.24.906 6.087 2.36 8.883 4.19-.009-3.023.113-6.168-.358-9.155-.688-3.815-2.283-6.61-4.205-10.119 2.8-1.414 5.433-.347 7.307.66-.54-4.685-3.232-7.802-5.95-11.426 2.518-1.794 4.958-1.864 7.936-1.916-1.271-2.787-2.274-5.556-4.748-7.533-3.083-2.622-8.16-4.687-9.796-8.545 3.551.282 6.155.002 10.997 2.34 1.507-2.264-.956-6.162-1.644-8.531-1.446-4.642-5.243-6.368-8.613-9.416-10.297-8.716-11.674-20.7-11.727-20.715-5.917-.912-15.635-4.144-18.435-8.793 4.587 1.823 20.62 1.487 23.412.95 4.982-1.028 9.432-3.065 13.9-5.434-.043-4.573-.254-9.182.069-13.737.357-4.694-.073-8.218 2.396-13.56 1.558-3.836 1.42-7.077.069-9.911zm-53.31 50.824zm29.405 63.865zm-25.45 12.148zm25.642 4.46a18.634 18.634 0 0 0 0 0z"/>
</g>
<path d="M242.138 324.21c-.298-2.91 7.836-2.548 11.816-2.295 1.14.043 3.69 1.176 3.654 2.688-.02.807-3.538 7.214-13.696 2.294-1.76-.671-1.356-1.154-1.774-2.687zM254.88 338.32c.352 4.207-8.448 6.892-9.111-.72-.526-5.098 8.644-4.85 9.11.72z" fill="#fff"/>
<path d="M250.194 450.968a39.95 39.95 0 0 0-5.844.485c-2.177.383-5.303.644-6.949 2.256-1.524 2.517-1.97 5.8-2.736 8.613-4.095-2.584-6.122-3.118-9.623-4.537-5.566-.714-12.865-.27-16.872 4.25-2.15 2.639-2.204 7.323-2.185 10.423-3.406.279-6.767-1.514-9.884-2.742-4.625 5.679-9.416 10.973-12.865 17.514-6.68-5.766-10.32-12.663-18.846-16.373-3.771-1.446-8.57-3.476-12.646-2.63.649 3.122 1.845 3.864-1.883 8.778-6.722-5.388-17.566-3.91-17.566-3.91-2.288 4.327-2.962 8.955-8.03 10.703-1.912-3.765-4.033-4.929-6.288-7.002-8.25 1.944-17.03 8.57-29.25 20.443 68.922 77.618 155.046 97.512 161.273 98.757 6.55-1.31 101.457-23.228 171.795-111.229-6.772-6.923-10.873-8.857-12.405-9.449-2.734-.949-9.484-3.446-12.358-2.392-2.683 2.282-3.867 6.357-6.21 8.978-7.482-4.272-7.572-9.393-8.351-13.925-1.925 1.202-4.016 2.604-6.193 3.24-3.702 1.028-8.143.887-11.67 2.472-10.602 4.424-22.113 6.992-29.997 15.826-2.543-4.947-5.182-10.087-8.91-14.267-2.255-2.544-4.86-4.415-7.568-6.436-2.29 2.935-4.65 8.314-9.996 10.793-1.414-5.112-2.726-8.059-4.488-11.777-4.093-3.118-9.233-5.025-14.389-5.277-8.475-1.297-16.477.647-22.33 5.015-1.864-5.349-.43-10.433.705-15.738-6.114-.013-11.69-.936-17.445-.857z" fill="#094"/>
<path d="M4 4v280c20 260 236 310 246 312 10-2 226-52 246-312V4z" fill="none" stroke="#000" stroke-width="8"/>
</svg>
