<svg width="500" height="599.8" version="1.0" xml:space="preserve" xmlns="http://www.w3.org/2000/svg"><path d="M4 4v279.9c20.02 260 236.1 309.8 246 311.8 9.96-2.002 226.1-51.99 246-311.8V4z" fill="#1c63b7" stroke="#000" stroke-width="8"/><g stroke="#000" stroke-linecap="round" stroke-linejoin="round" stroke-miterlimit="1000"><g fill="#fff" fill-rule="evenodd" stroke-width="4"><path d="M-497.2 130.8v-11.49h21.57v11.49M-457.9 130.8v-11.49h17.5l4.066 11.49M-514.1 133.6h56.27v7.178h-56.27" style="paint-order:fill markers stroke" transform="translate(620.5 128.7)"/><path d="M-514.1 152.4h77.84v-21.57h-21.57v9.988h-17.81v-9.988h-21.57v9.988h-16.9" style="paint-order:fill markers stroke" transform="translate(620.5 128.7)"/><path d="M-448.3 287.2V152.3h-65.82v133.9" style="paint-order:fill markers stroke" transform="translate(620.5 128.7)"/></g><g fill-rule="evenodd"><g fill="#fff" stroke-width="2"><path d="M-448.3 213.5h-20.69M-461.6 213.5v16.75M-473.5 230.2v16.75M-458.9 247v16.75M-448.3 230.2h-30.82M-448.3 247h-49.57M-479.5 247v20.62M-448.3 263.7h-31.19" style="paint-order:fill markers stroke" transform="translate(620.5 128.7)"/></g><g stroke-width="4"><path d="M-504.8 163.3h6.596v21.57h-6.596zM-487.9 163.3h6.596v21.57h-6.596zM-471 163.3h6.596v21.57H-471z" style="paint-order:fill markers stroke" transform="translate(620.5 128.7)"/></g></g><g fill="#fff" fill-rule="evenodd" stroke-width="4"><path d="m-574.9 237.4 7.122-166h53.68v161.9M-580.5 46.85l6.329-5.922h11.49v5.922M-501.4 46.85l-6.329-5.922h-11.49v5.922M-532.9 46.85v-5.922h-16.07v5.922" style="paint-order:fill markers stroke" transform="translate(620.5 128.7)"/><path d="M-541 71.42h39.53V46.85h-17.82v11.31h-13.68V46.85h-16.07v11.31h-13.68V46.85h-17.82v24.57h39.53" style="paint-order:fill markers stroke" transform="translate(620.5 128.7)"/></g><path d="M-514.1 199.8h-31.5M-524.7 199.8v-15.56" fill-rule="evenodd" stroke-width="2" style="paint-order:fill markers stroke" transform="translate(620.5 128.7)"/><g fill="none" stroke-width="2"><path d="M-514.1 184.2h-16.65l.899-8.22M-514.1 173.1h-14.26M-524.7 173.1l1-7.071h9.548" style="paint-order:fill markers stroke" transform="translate(620.5 128.7)"/></g><path d="M-544.3 87.11h6.596v21.57h-6.596z" fill-rule="evenodd" stroke-width="4" style="paint-order:fill markers stroke" transform="translate(620.5 128.7)"/><path d="M-556.2 160.6h11.72v25.38h-11.72z" fill-rule="evenodd" stroke-width="2" style="paint-order:fill markers stroke" transform="translate(620.5 128.7)"/><path d="M-530.5 216.2c1.184-1.008 2.486-1.895 3.924-2.489s3.018-.885 4.562-.693c1.767.219 3.413 1.06 4.81 2.164 1.396 1.104 2.565 2.466 3.676 3.858 1.799 2.254 3.508 4.646 5.834 6.353 1.267.93 2.686 1.632 4.001 2.493 1.315.861 2.56 1.927 3.246 3.34.476.982.659 2.076.803 3.157.143 1.08.257 2.176.611 3.208.528 1.538 1.56 2.844 2.59 4.1 1.031 1.258 2.096 2.527 2.713 4.03.98 2.39.719 5.122 0 7.602-.286.987-.642 1.958-.839 2.967-.196 1.009-.226 2.079.132 3.043.419 1.127 1.367 2.033 2.496 2.447s2.417.342 3.514-.15c.748-.334 1.4-.846 2.102-1.266.351-.21.718-.398 1.108-.525.39-.127.803-.192 1.21-.152.606.059 1.172.345 1.66.71.487.365.909.809 1.345 1.234 1.56 1.52 3.364 2.868 4.42 4.773.98 1.772 1.21 3.844 1.59 5.834.193 1.01.43 2.014.707 3.005a9.756 9.756 0 0 1 4.167.5 9.836 9.836 0 0 1 5.625 5.134 41.982 41.982 0 0 0 5.125-5.134c1.347-1.606 2.582-3.322 4.125-4.741a15.448 15.448 0 0 1 5.125-3.125c1.37.15 2.72.487 4 1 3.583 1.436 6.565 4.277 8.25 7.75 1.735 3.578 2.096 7.652 2.25 11.62.19 4.916.107 9.843-.25 14.75a172.934 172.934 0 0 0 7.25 4.375c1.185.676 2.382 1.34 3.477 2.154 1.095.814 2.093 1.788 2.773 2.97 1.031 1.793 1.266 3.933 1.25 6-.009 1.144-.087 2.289.02 3.427.109 1.138.418 2.286 1.106 3.199.448.595 1.04 1.068 1.653 1.49.613.424 1.256.807 1.847 1.26 2.11 1.616 3.44 4.013 4.875 6.25 2.712 4.23 5.968 8.078 9.104 12a267.606 267.606 0 0 1 32.02 50.91v69.99c-45.06-11.7-87.54-33.23-123.6-62.66-53.52-43.66-92.51-104.8-109.5-171.8a32.77 32.77 0 0 1 10.5-7.904c4.453-2.11 9.338-3.19 13.79-5.303a32.346 32.346 0 0 0 9.016-6.364c1.266-1.27 2.424-2.644 3.716-3.887 1.292-1.243 2.742-2.364 4.415-3.007 1.643-.631 3.458-.775 5.196-.5 1.739.274 3.4.96 4.88 1.914 3.72 2.401 6.152 6.35 9.546 9.192a20.107 20.107 0 0 0 7.955 4.066 21.874 21.874 0 0 1 4.066-4.596z" fill="#094" fill-rule="evenodd" stroke-width="4" style="paint-order:fill markers stroke" transform="translate(620.5 128.7)"/><g fill="none" stroke-width="4"><path d="M-534.6 220.8a49.11 49.11 0 0 0-7.177 11.08 49.103 49.103 0 0 0-3.5 10.25" style="paint-order:fill markers stroke" transform="translate(620.5 128.7)"/><path d="M-560.6 233.1c2.924.14 5.813.96 8.375 2.375a19.329 19.329 0 0 1 7 6.625M-545.2 242.1a22.414 22.414 0 0 0 .5 10c1.478 5.214 4.927 9.843 9.5 12.75M-535.2 264.9l8.375 13.88M-526.9 278.7l13.25-13.05-.442-12.9 15.03-15.2M-526.9 278.7a22.55 22.55 0 0 0 12.01-1.918c4.875-2.253 8.882-6.224 13.97-7.955 2.214-.754 4.577-1.06 6.718-2.002a12.27 12.27 0 0 0 5.745-5.245M-464.5 280.9a11.093 11.093 0 0 0-1.125 4.75c-.017 1.678.376 3.402 1.375 4.75.937 1.264 2.342 2.115 3.814 2.672 1.472.558 3.027.85 4.561 1.203a58.82 58.82 0 0 1 10.25 3.375 59.344 59.344 0 0 1 9.75 5.375M-503.6 344.4a15.287 15.287 0 0 1 5.127-9.723c3.451-2.988 8.125-4.314 11.47-7.425 1.059-.986 1.958-2.129 2.923-3.209s2.016-2.112 3.289-2.802c1.588-.861 3.453-1.14 5.253-.98 1.8.16 3.542.74 5.177 1.51 5.11 2.405 9.16 6.578 13.97 9.546 4.678 2.89 10.07 4.603 15.56 4.98 4.646.32 9.318-.302 13.97 0 4.757.31 9.424 1.588 13.79 3.505a49.218 49.218 0 0 1 10.61 6.364" style="paint-order:fill markers stroke" transform="translate(620.5 128.7)"/><path d="M-428.2 363.6a58.179 58.179 0 0 0-12.728-27.37" style="paint-order:fill markers stroke" transform="translate(620.5 128.7)"/></g></g><path d="M4 4h492v98.5H4z" fill="#fff" fill-rule="evenodd" stroke="#000" stroke-linecap="round" stroke-linejoin="round" stroke-miterlimit="1000" stroke-width="4" style="paint-order:fill markers stroke"/><g stroke-linecap="round" stroke-linejoin="round" stroke-miterlimit="1000"><path transform="translate(620.5 128.7)" d="M-143 251.5c-20.2 59.79-56.63 114.3-105.6 154.2-35.56 28.96-77.5 50.06-122 61.34v-493.2h246v181.4a361.266 361.266 0 0 1-18.49 96.28z" fill="#fcdb00" fill-rule="evenodd" stroke="#000" stroke-width="4" style="paint-order:fill markers stroke"/><path d="m-255.4 204.5-72.38-33.28 72.38-20.47 75.92 19.06z" fill="#fff" fill-rule="evenodd" stroke="#000" stroke-width="8" style="paint-order:fill markers stroke" transform="translate(634.5 144.7)"/><g stroke="#000" stroke-width="2"><path d="M-310.2 179a83.52 83.52 0 0 1 .707-20.96c1.558-9.673 4.86-19.11 10.08-27.4a65.414 65.414 0 0 1 18.38-19.09l2.828 4.596a71.072 71.072 0 0 0-9.016 15.38c-4.13 9.65-6.073 20.12-6.894 30.58-.643 8.195-.616 16.44.081 24.63" fill="#fff" fill-rule="evenodd" style="paint-order:fill markers stroke" transform="translate(630.5 144.7)"/><path d="M-296.5 139.7a42.278 42.278 0 0 0-3.359 14.319" fill="none" style="paint-order:fill markers stroke" transform="translate(630.5 144.7)"/></g><g stroke="#000" stroke-width="2"><path d="M-211.2 184.2c.283-3.057.532-6.117.745-9.179.852-12.22 1.103-24.79-2.875-36.38a52.04 52.04 0 0 0-15.26-22.48l2.828-4.596a46.348 46.348 0 0 1 16.72 13.08c6.512 8.137 10.09 18.27 12.09 28.5a109.367 109.367 0 0 1 2.002 23.58" fill="#fff" fill-rule="evenodd" style="paint-order:fill markers stroke" transform="translate(634.5 144.7)"/><path d="M-206.7 142.4a50.64 50.64 0 0 1 4 17.625" fill="none" style="paint-order:fill markers stroke" transform="translate(634.5 144.7)"/></g><g stroke="#000"><path d="m-255.4 204.5 71.49-32.87v41.64l10.85 6.265-82.34 47.54-80.79-46.64 12.41-7.163v-40.21z" fill="#fff" fill-rule="evenodd" stroke-width="8" style="paint-order:fill markers stroke" transform="translate(634.5 144.7)"/><g stroke-width="2"><path d="M-255.4 204.5v62.58" fill="none" style="paint-order:fill markers stroke" transform="translate(634.5 144.7)"/><path d="M-261.4 211.1v38.98l-54.75-31.61v-32.5zM-247.9 213.5v38.98l54.75-31.61v-32.5z" fill-rule="evenodd" style="paint-order:fill markers stroke" transform="translate(634.5 144.7)"/></g></g><g fill-rule="evenodd"><g stroke="#000" stroke-width="2"><path d="M-239.4 60.5a7.82 7.82 0 0 0 2.106-5.75 7.797 7.797 0 0 0-2.106-4.875V42.25a19.157 19.157 0 0 0 2.357-10.374h2.688a15.116 15.116 0 0 0 2.187-3.688 15.153 15.153 0 0 0 1.125-6.625h-48.88a15.097 15.097 0 0 0 3.313 10.313h2.688a19.167 19.167 0 0 0 2.356 10.374v7.625a7.79 7.79 0 0 0-2.105 4.875 7.82 7.82 0 0 0 2.106 5.75v108.9a18.313 18.313 0 0 0 6.698 7.069c2.816 1.694 6.097 2.605 9.383 2.605s6.568-.911 9.383-2.605a18.313 18.313 0 0 0 6.698-7.069z" style="paint-order:fill markers stroke" transform="translate(634.5 144.7)"/><path d="M-282.2 116.1h10.72v-4.596h-13.55M-228.6 116.1h-10.72v-4.596h13.55" style="paint-order:fill markers stroke" transform="translate(634.5 144.7)"/></g><g stroke="#fff"><path d="M-269.5 62.23h28.26M-269.5 48.13h28.26" stroke-width="1.967" style="paint-order:fill markers stroke" transform="translate(634.5 144.7)"/><path d="M-271.5 34.44h32.16" stroke-width="2.893" style="paint-order:fill markers stroke" transform="translate(634.5 144.7)"/></g></g><g fill="none" stroke="#000"><path d="M-261.2 185a18.186 18.186 0 0 0 7.75 1.125 18.188 18.188 0 0 0 7.5-2.25M-285.8 172.4a7.336 7.336 0 0 0 3.25 1.25c1.41.179 2.862-.054 4.25.25.642.14 1.259.396 1.812.75M-271.2 176.9a7.198 7.198 0 0 1 3.25 4.313M-280 169.6a3.95 3.95 0 0 1 3.438.063c.507.261.95.63 1.392.99.443.36.898.716 1.42.947.542.24 1.148.335 1.738.273a3.438 3.438 0 0 0 1.644-.627M-242.9 177.6a5.603 5.603 0 0 0 3.062 1.375c1.119.13 2.252-.082 3.375 0a6.552 6.552 0 0 1 4.5 2.312M-233.6 169.5c.477.444 1.09.742 1.735.841.645.1 1.319.001 1.908-.278.397-.19.752-.455 1.128-.683.376-.228.79-.422 1.229-.443.404-.018.813.118 1.125.375" style="paint-order:fill markers stroke" transform="translate(634.5 144.7)"/></g></g><path d="M223.4 507.6c-2.409 9.445-7.215 18.14-12.98 26a114.822 114.822 0 0 1-9.665 11.5 137.186 137.186 0 0 1 26.46-7.25 137.327 137.327 0 0 1 45.58 0l26.46 7.25a103.731 103.731 0 0 1-9.665-11.5c-5.674-7.839-10.27-16.55-12.72-25.91a62.846 62.846 0 0 1-2.03-14.84v-365.5h154.7c4.95.05 9.894.702 14.69 1.938 9.43 2.43 18.18 7.091 26.06 12.81a106.216 106.216 0 0 1 11.5 9.665l-7.25-26.46a137.327 137.327 0 0 1 0-45.58 137.166 137.166 0 0 1 7.25-26.46 104.652 104.652 0 0 1-11.5 9.665c-7.916 5.736-16.72 10.39-26.19 12.81a62.228 62.228 0 0 1-14.56 1.938h-359a61.686 61.686 0 0 1-14.62-1.938c-9.45-2.428-18.23-7.083-26.12-12.81a105.493 105.493 0 0 1-11.5-9.665 137.186 137.186 0 0 1 7.25 26.46 137.327 137.327 0 0 1 0 45.58l-7.25 26.46a106.102 106.102 0 0 1 11.5-9.665c7.875-5.718 16.62-10.38 26.04-12.81a61.43 61.43 0 0 1 14.71-1.942h154.7v365.5a57.107 57.107 0 0 1-1.765 14.75z" fill="#f00000" fill-rule="evenodd" stroke="#000" stroke-linecap="round" stroke-linejoin="round" stroke-miterlimit="1000" stroke-width="4" style="paint-order:fill markers stroke"/><path d="M4 4v279.9c20.02 260 236.1 309.8 246 311.8 9.96-2.002 226.1-51.99 246-311.8V4z" fill="none" stroke="#000" stroke-width="8"/></svg>