<?xml version="1.0" encoding="UTF-8" standalone="no"?>
<!-- Created with Inkscape (http://www.inkscape.org/) -->
<svg
   xmlns:svg="http://www.w3.org/2000/svg"
   xmlns="http://www.w3.org/2000/svg"
   version="1.0"
   width="216.09383"
   height="253.12025"
   id="svg2780">
  <defs
     id="defs2782" />
  <g
     transform="translate(-15.272659,-802.02062)"
     id="layer1">
    <path
       d="M 16.272659,803.02062 L 20.16527,966.54079 C 22.945699,1083.3409 223.69343,1083.3409 226.47387,966.54079 L 230.36648,803.02062 L 16.272659,803.02062 z"
       id="path3282"
       style="fill:#feec41;fill-opacity:1;fill-rule:evenodd;stroke:none;stroke-width:2;stroke-linecap:butt;stroke-miterlimit:4;stroke-dashoffset:0;stroke-opacity:1" />
    <g
       transform="translate(-0.6961793,0)"
       id="g4531">
      <path
         d="M 136.04828,915.63917 C 141.17314,921.40974 144.45851,923.63136 147.78754,924.89984 C 147.81431,922.78215 148.61307,917.82658 149.08097,915.74675 C 150.54468,919.85411 154.62381,927.68124 157.42752,930.18453 C 158.77923,927.94868 160.34369,924.81151 161.2275,920.85981 C 161.73,925.30469 164.06951,932.18734 166.25305,935.56713 C 168.69653,932.13533 170.86593,925.809 171.46457,920.40286 C 172.50435,923.5747 174.44536,927.47284 175.97196,929.48807 C 177.74743,925.27166 179.13851,922.14243 179.84114,915.96272 C 180.95182,917.33513 182.0436,918.61611 183.07076,919.76004 C 183.32594,914.03884 183.43622,908.41697 183.00616,901.05242 C 163.21894,923.19019 144.52226,902.56312 135.0182,887.10666 C 137.86939,889.27285 140.70416,891.99194 144.10726,894.22642 C 144.79726,892.10088 144.92799,889.95641 145.15009,886.2253 C 146.97602,891.00112 149.64639,897.00134 151.94022,899.82959 C 153.83229,896.94933 155.8914,892.27751 156.82089,889.51863 C 157.86068,892.69042 160.24281,898.79463 161.76941,900.80987 C 164.31688,897.58609 164.60512,894.45694 165.74887,889.04932 C 166.52872,890.97319 168.17192,893.68808 169.41965,894.832 C 170.22625,888.22846 170.33653,880.73145 170.01675,872.81539 C 149.67811,882.48916 140.5702,870.93433 132.81856,859.61416 C 134.6702,861.69887 137.88696,864.62321 141.57337,865.52602 C 142.25229,863.41786 143.20855,861.39326 143.91748,859.8477 C 144.95726,863.01948 146.78797,867.24858 149.19686,868.71231 C 149.86948,865.48854 150.70913,863.24179 151.30146,860.8123 C 152.08131,862.73617 155.2685,865.45105 156.51624,866.59498 C 157.32284,859.99143 157.54341,858.00947 157.22363,850.09341 C 141.18612,854.80363 136.6275,846.07475 130.08834,837.92433 C 132.85647,839.98614 135.01686,841.79226 137.94355,842.3697 C 138.48918,841.05532 138.81205,839.38057 139.74684,838.02876 C 140.25157,839.27392 143.30696,842.02377 144.11453,842.76413 C 144.63658,838.49019 145.33076,834.89109 145.12379,829.76765 C 130.3773,829.79305 128.65256,821.14427 125.06311,810.81929 C 120.5393,823.27982 113.52086,830.88288 104.76256,830.09855 C 104.55559,835.22199 104.5945,836.95241 105.11655,841.22635 C 106.28101,840.62877 108.57083,838.38508 110.28869,836.91931 C 110.2634,839.35484 109.50915,841.36691 110.80103,843.45341 C 114.94334,842.16758 117.92966,839.38071 119.81286,837.42797 C 115.59035,844.55671 109.06615,855.02424 92.477218,850.09341 C 92.157451,858.00947 92.047161,859.66053 92.853758,866.26408 C 94.65293,865.34076 97.509269,863.06708 98.289108,861.14321 C 99.102009,864.56541 98.618243,866.48125 100.61429,869.70502 C 102.14089,867.68978 104.41272,863.90189 106.33481,860.7301 C 106.4923,863.37868 106.78684,865.62388 107.13491,867.51144 C 111.01815,865.45189 113.8881,863.07979 115.65022,861.12215 C 108.53271,870.35988 96.934745,883.59217 79.132666,872.81539 C 78.812894,880.73145 78.92318,888.22846 79.729776,894.832 C 80.977514,893.68808 82.620714,890.97319 83.400547,889.04932 C 84.544308,894.45694 85.053118,896.92429 87.600582,900.14806 C 89.127189,898.13282 91.288752,892.69042 92.328537,889.51863 C 93.258034,892.27751 94.43486,896.50813 96.326922,899.38839 C 98.951605,897.11164 103.7174,891.77323 105.54332,886.99741 C 105.76543,890.72851 105.78587,893.31419 106.47587,895.43973 C 109.32755,893.97736 112.51468,891.60348 114.17422,889.91932 C 105.90478,901.22519 85.575328,921.31503 65.016111,901.93482 C 63.92434,909.63028 63.92434,915.14189 65.172078,921.74543 C 66.419817,920.6015 67.511589,918.98966 68.291427,917.06578 C 69.435187,922.47338 71.046849,927.25705 73.594315,930.4808 C 74.790065,928.24495 75.517913,925.22914 76.557695,922.05739 C 77.597478,926.58111 79.105162,930.4808 81.548651,933.91259 C 83.732192,930.53281 86.071702,927.62102 87.787341,923.61731 C 88.671157,927.56901 89.243043,929.4929 90.59476,931.72875 C 93.398466,929.22546 97.808453,923.05278 100.15446,919.16604 C 100.62236,921.24595 101.20054,924.65722 101.66845,926.11312 C 106.32749,923.17349 109.57263,921.36841 114.58502,916.49641 C 101.85614,933.54306 76.315142,954.87818 55.346134,928.14102 C 54.566298,936.46041 53.942429,943.53185 54.410331,951.22731 C 55.658071,949.45945 57.061775,948.31552 58.153547,945.92373 C 58.51747,951.48736 59.349297,957.20692 61.584829,962.14662 C 63.24848,959.44278 64.912132,956.73893 66.575784,954.03518 C 67.615567,958.5588 69.123251,961.83456 71.566741,965.26636 C 74.062219,962.66653 76.245762,958.35086 77.181566,953.72321 C 78.221347,958.76684 79.417097,963.0305 81.236717,966.5143 C 84.040418,964.01101 86.533124,959.79379 87.787341,955.28303 C 89.191051,957.83085 89.814921,959.91077 90.28282,963.5505 C 93.974047,960.48269 97.665284,956.635 100.26474,951.85133 C 100.36872,954.65911 100.47269,957.46687 100.57667,960.27474 C 109.75747,952.15417 116.29054,940.11183 124.42472,928.94251 C 129.36369,938.14588 140.23916,955.90705 147.82958,961.21063 C 147.93355,958.40286 148.50543,953.25522 148.60941,950.44745 C 151.20886,955.23102 153.65236,960.95068 157.34358,964.01849 C 157.81148,960.37867 160.151,957.83085 161.5547,955.28303 C 162.80892,959.79379 163.58599,963.38709 166.38969,965.89028 C 168.20931,962.40657 168.93716,960.95068 169.97695,955.90705 C 170.91275,960.5347 173.72015,963.29055 176.21564,965.89028 C 178.65913,962.45858 179.69892,958.24684 180.7387,953.72321 C 182.40235,956.42696 184.68987,959.5988 186.35352,962.30255 C 188.58906,957.36295 189.10894,952.26731 190.09674,946.39172 C 191.1885,948.78351 191.96834,951.01936 193.21608,952.78723 C 194.46382,945.71569 193.37205,939.11225 192.59221,930.79277 C 169.10606,956.57897 149.35773,930.83209 136.04828,915.63917 z"
         id="path2417"
         style="fill:#396b21;fill-opacity:1;fill-rule:evenodd;stroke:#000000;stroke-width:0.99999994px;stroke-linecap:butt;stroke-linejoin:miter;stroke-opacity:1" />
      <path
         d="M 117.15625,941.08069 L 114.75,1005.2994 L 134.3125,1005.2994 L 131.875,941.08069 L 117.15625,941.08069 z"
         id="path6358"
         style="fill:#bd3118;fill-opacity:1;fill-rule:evenodd;stroke:#000000;stroke-width:0.99999994px;stroke-linecap:butt;stroke-linejoin:miter;stroke-opacity:1" />
      <path
         d="M 123.5081,964.83158 C 120.898,962.00054 118.28791,956.19128 117.11153,952.25728 C 116.22924,953.58087 115.12638,954.90446 114.02354,955.67657 C 113.10449,951.11745 112.5163,946.00685 114.79553,941.55805 C 113.58239,943.10227 112.25897,943.76407 110.82525,944.20533 C 111.37668,932.10897 117.99382,922.10831 123.28753,917.18157 C 129.61056,923.54231 137.69817,936.74163 136.08066,945.30829 C 134.9778,945.27152 133.98522,944.79358 132.77209,943.54353 C 132.80885,948.28642 132.84561,952.58813 132.22066,956.88994 C 131.00751,956.22805 129.46351,955.01478 128.36065,953.24993 C 126.9637,958.13999 125.56676,961.48574 123.5081,964.83158 z"
         id="path3441"
         style="color:#000000;fill:#396b21;fill-opacity:1;fill-rule:evenodd;stroke:#000000;stroke-width:0.99999994px;stroke-linecap:butt;stroke-linejoin:miter;marker:none;marker-start:none;marker-mid:none;marker-end:none;stroke-miterlimit:4;stroke-dasharray:none;stroke-dashoffset:0;stroke-opacity:1;visibility:visible;display:inline;overflow:visible;enable-background:accumulate" />
      <path
         d="M 124.05952,934.38853 C 121.44944,931.55748 118.83934,925.52769 118.32467,921.37297 C 117.44239,922.69665 116.5601,925.45414 115.45725,926.22626 C 114.75878,922.77019 114.06031,919.75529 114.90582,914.97556 C 113.69269,916.51977 113.14126,918.17431 111.70754,918.61547 C 111.15611,905.52645 116.22925,897.62155 123.61839,888.61364 C 130.60314,894.53313 136.70561,903.32043 136.41152,916.07861 C 135.08809,914.82847 133.65437,913.79904 132.44123,912.54891 C 132.478,917.29188 132.1839,922.58633 131.55895,926.88805 C 130.3458,926.22626 129.68409,925.56447 129.13265,924.68204 C 127.62543,927.91757 126.11819,931.04268 124.05952,934.38853 z"
         id="path3443"
         style="color:#000000;fill:#396b21;fill-opacity:1;fill-rule:evenodd;stroke:#000000;stroke-width:0.99999994px;stroke-linecap:butt;stroke-linejoin:miter;marker:none;marker-start:none;marker-mid:none;marker-end:none;stroke-miterlimit:4;stroke-dasharray:none;stroke-dashoffset:0;stroke-opacity:1;visibility:visible;display:inline;overflow:visible;enable-background:accumulate" />
      <path
         d="M 123.72866,905.04848 C 118.90223,899.76894 117.37121,895.24018 119.31724,885.41492 C 118.32467,887.95184 117.00126,892.14327 115.56754,892.58448 C 112.70011,879.71603 117.33211,875.00986 124.72124,866.00196 C 131.70599,871.92144 138.02904,882.47357 131.66924,894.0184 C 130.34581,892.76832 129.57381,887.2165 129.24295,885.63552 C 131.34271,896.57495 128.59636,900.67555 123.72866,905.04848 z"
         id="path6352"
         style="color:#000000;fill:#396b21;fill-opacity:1;fill-rule:evenodd;stroke:#000000;stroke-width:0.99999994px;stroke-linecap:butt;stroke-linejoin:miter;marker:none;marker-start:none;marker-mid:none;marker-end:none;stroke-miterlimit:4;stroke-dasharray:none;stroke-dashoffset:0;stroke-opacity:1;visibility:visible;display:inline;overflow:visible;enable-background:accumulate" />
      <path
         d="M 123.45099,874.49513 C 119.64461,869.97621 118.43719,866.0999 119.97191,857.69015 C 119.18912,859.86157 116.93228,864.11097 115.80156,864.4886 C 115.85616,854.2462 117.74463,848.34291 123.57207,840.63277 C 129.08061,845.69944 133.40557,856.71675 129.60305,864.61293 C 128.55932,863.54295 128.06078,859.23216 127.79985,857.87895 C 129.45582,867.24238 127.28991,870.7522 123.45099,874.49513 z"
         id="path6354"
         style="color:#000000;fill:#396b21;fill-opacity:1;fill-rule:evenodd;stroke:#000000;stroke-width:0.99999994px;stroke-linecap:butt;stroke-linejoin:miter;marker:none;marker-start:none;marker-mid:none;marker-end:none;stroke-miterlimit:4;stroke-dasharray:none;stroke-dashoffset:0;stroke-opacity:1;visibility:visible;display:inline;overflow:visible;enable-background:accumulate" />
      <path
         d="M 123.67156,845.70661 C 119.4416,838.98536 116.91281,831.91415 124.56465,820.55799 C 133.99659,831.26363 129.31781,841.82902 123.67156,845.70661 z"
         id="path6356"
         style="color:#000000;fill:#396b21;fill-opacity:1;fill-rule:evenodd;stroke:#000000;stroke-width:0.99999994px;stroke-linecap:butt;stroke-linejoin:miter;marker:none;marker-start:none;marker-mid:none;marker-end:none;stroke-miterlimit:4;stroke-dasharray:none;stroke-dashoffset:0;stroke-opacity:1;visibility:visible;display:inline;overflow:visible;enable-background:accumulate" />
    </g>
    <path
       d="M 177.28125,198.875 C 172.85499,198.95966 168.4321,200.51914 164.8125,203.625 C 157.94228,209.52002 139.28189,235.63413 137.21875,249.0625 C 158.99029,246.7628 179.91407,239.04225 196.03125,225.875 C 198.62097,219.28497 197.58533,211.49447 192.65625,205.75 C 188.66304,201.09622 182.97216,198.76615 177.28125,198.875 z"
       transform="translate(0,804.33069)"
       id="path4490"
       style="color:#000000;fill:#396b21;fill-opacity:1;fill-rule:evenodd;stroke:#000000;stroke-width:1pt;stroke-linecap:butt;stroke-linejoin:miter;marker:none;marker-start:none;marker-mid:none;marker-end:none;stroke-miterlimit:4;stroke-dashoffset:0;stroke-opacity:1;visibility:visible;display:inline;overflow:visible;enable-background:accumulate" />
    <path
       d="M 69.375,198.875 C 63.684094,198.76615 57.961968,201.09622 53.96875,205.75 C 49.039387,211.4948 48.03472,219.28473 50.625,225.875 C 66.735116,239.03648 87.644983,246.75905 109.40625,249.0625 C 107.34311,235.63413 88.713965,209.52002 81.84375,203.625 C 78.224147,200.51914 73.801261,198.95966 69.375,198.875 z"
       transform="translate(0,804.33069)"
       id="path4487"
       style="color:#000000;fill:#396b21;fill-opacity:1;fill-rule:evenodd;stroke:#000000;stroke-width:1pt;stroke-linecap:butt;stroke-linejoin:miter;marker:none;marker-start:none;marker-mid:none;marker-end:none;stroke-miterlimit:4;stroke-dashoffset:0;stroke-opacity:1;visibility:visible;display:inline;overflow:visible;enable-background:accumulate" />
    <path
       d="M 123.3125,196.40625 C 107.47633,196.40625 94.624996,210.36362 94.625,227.5625 C 94.625,235.36844 97.283873,242.5311 101.65625,248 C 115.91584,250.38626 130.74088,250.38821 145,248 C 149.37238,242.5311 152,235.36844 152,227.5625 C 152,210.36362 139.14867,196.40624 123.3125,196.40625 z"
       transform="translate(0,804.33069)"
       id="path4485"
       style="color:#000000;fill:#396b21;fill-opacity:1;fill-rule:evenodd;stroke:#000000;stroke-width:1pt;stroke-linecap:butt;stroke-linejoin:miter;marker:none;marker-start:none;marker-mid:none;marker-end:none;stroke-miterlimit:4;stroke-dasharray:none;stroke-dashoffset:0;stroke-opacity:1;visibility:visible;display:inline;overflow:visible;enable-background:accumulate" />
    <path
       d="M 16.272659,803.02062 L 20.16527,966.54079 C 22.945699,1083.3409 223.69343,1083.3409 226.47387,966.54079 L 230.36648,803.02062 L 16.272659,803.02062 z"
       id="path4552"
       style="fill:none;fill-opacity:1;fill-rule:evenodd;stroke:#000000;stroke-width:2;stroke-linecap:butt;stroke-miterlimit:4;stroke-dashoffset:0;stroke-opacity:1" />
  </g>
</svg>
