<?xml version="1.0" encoding="UTF-8"?>
<svg width="406.1" height="481.6"  xmlns="http://www.w3.org/2000/svg">
<path d="M4.729 4.902v284.71c0 103.27 88.705 187.22 198.13 187.22s198.13-83.946 198.13-187.22V4.902z" fill="#fff"/>
<path d="M4.999 5.002v273.55c0 15.947 1.935 31.435 5.494 46.291a193.61 274.29 0 0 0 131.21-79.986 193.61 274.29 0 0 0 56.611-190.55h.149a202.66 274.29 0 0 0 59.137 190.55 202.66 274.29 0 0 0 138 80.035c3.566-14.871 5.505-30.375 5.505-46.34v-59.406l-.115-164.84h.115V4.997z"/>
<path d="M5 5v273.55C5 387.93 93.67 476.6 203.05 476.6S401.1 387.931 401.1 278.55V5z" fill="none" stroke="#000" stroke-width="10"/>
</svg>
