<?xml version="1.0" encoding="UTF-8" standalone="no"?>
<svg
   xmlns:dc="http://purl.org/dc/elements/1.1/"
   xmlns:cc="http://creativecommons.org/ns#"
   xmlns:rdf="http://www.w3.org/1999/02/22-rdf-syntax-ns#"
   xmlns:svg="http://www.w3.org/2000/svg"
   xmlns="http://www.w3.org/2000/svg"
   xmlns:sodipodi="http://sodipodi.sourceforge.net/DTD/sodipodi-0.dtd"
   xmlns:inkscape="http://www.inkscape.org/namespaces/inkscape"
   width="500"
   height="564"
   version="1.1"
   id="svg48"
   sodipodi:docname="CHE Val-de-Ruz COA.svg"
   inkscape:version="0.92.3 (2405546, 2018-03-11)">
  <metadata
     id="metadata54">
    <rdf:RDF>
      <cc:Work
         rdf:about="">
        <dc:format>image/svg+xml</dc:format>
        <dc:type
           rdf:resource="http://purl.org/dc/dcmitype/StillImage" />
      </cc:Work>
    </rdf:RDF>
  </metadata>
  <defs
     id="defs52" />
  <sodipodi:namedview
     pagecolor="#ffffff"
     bordercolor="#666666"
     borderopacity="1"
     objecttolerance="10"
     gridtolerance="10"
     guidetolerance="10"
     inkscape:pageopacity="0"
     inkscape:pageshadow="2"
     inkscape:window-width="1920"
     inkscape:window-height="1017"
     id="namedview50"
     showgrid="false"
     inkscape:zoom="1.0995259"
     inkscape:cx="369.84818"
     inkscape:cy="262.47117"
     inkscape:window-x="-8"
     inkscape:window-y="-8"
     inkscape:window-maximized="1"
     inkscape:current-layer="svg48" />
  <path
     d="M5.276 5.276v307.47c0 135.85 109.57 245.98 244.73 245.98s244.72-110.12 244.72-245.98V5.276z"
     id="path2"
     style="fill:#009944;fill-opacity:1"
     fill-rule="evenodd"
     fill="#f00000" />
  <g
     id="g10"
     style="stroke:#000000">
    <g
       id="g844"
       style="stroke:none"
       transform="matrix(0.9972067,0,0,0.9972067,-423.2168,-337.61903)">
      <path
         id="path842-0"
         d="M 920.51407,343.85552 H 429.69306 l 244.03142,556.89926 z"
         style="fill:#f00000;fill-opacity:1;stroke:#000000;stroke-width:4.00819588;stroke-miterlimit:4;stroke-dasharray:none;stroke-opacity:1"
         inkscape:connector-curvature="0"
         sodipodi:nodetypes="cccc" />
      <path
         id="path842"
         d="m 674.14912,808.51135 c -4.74187,-19.27265 -7.85593,-30.16589 -10.19148,-36.10131 -3.68026,-9.28719 -7.21896,-15.71141 -8.56367,-15.71141 -2.90174,0 -3.53871,20.11061 -1.06162,32.81939 2.194,11.38203 3.11407,18.85367 2.4771,19.48213 -0.42464,0.41897 -0.84929,0.13965 -1.13239,-0.69829 -0.28309,-0.69828 -2.61864,-6.84319 -5.30806,-13.54671 -7.14819,-18.1554 -7.78516,-20.80888 -8.2098,-33.65733 -0.42465,-12.77861 0.70774,-24.37014 2.54787,-25.90637 2.76019,-2.444 10.04993,-2.72331 14.15483,-0.4888 1.34471,0.62846 6.65277,13.12776 11.18232,26.18568 1.13239,3.07246 2.33555,5.58628 2.68942,5.58628 0.77852,0 1.41548,-38.12635 0.70774,-42.03674 -0.21232,-1.32675 -1.69858,-3.63109 -3.60948,-5.58629 -1.69858,-1.81554 -3.82181,-4.95782 -4.74187,-6.84319 -0.84929,-1.9552 -2.54787,-5.51645 -3.82181,-7.96045 -1.27393,-2.444 -2.194,-4.60868 -2.05245,-4.74833 0.14155,-0.13966 1.20316,0.55862 2.40632,1.53622 1.13239,0.9776 2.33555,1.74571 2.54787,1.74571 1.06162,0 0.21233,-2.86296 -2.33554,-8.03027 -1.55704,-3.07245 -2.61865,-5.72594 -2.4771,-5.8656 0.14155,-0.20948 0.99084,0.34915 1.9109,1.18709 0.92007,0.83794 2.05245,1.53623 2.54787,1.53623 1.13239,0 0.5662,-1.88537 -2.47709,-7.96045 -1.27394,-2.65349 -2.194,-5.02766 -2.05245,-5.23714 0.21232,-0.13966 1.06161,0.34914 1.98167,1.18708 1.84013,1.74571 3.32639,2.02503 3.32639,0.62846 0,-0.4888 -1.27394,-3.35177 -2.83097,-6.42422 -1.55703,-3.00263 -2.68942,-5.65611 -2.47709,-5.79576 0.14154,-0.13966 1.20316,0.41897 2.26477,1.25691 1.69858,1.32674 1.98168,1.39657 2.194,0.34914 0.14155,-0.62845 -0.92006,-3.49142 -2.26477,-6.42422 -1.41549,-2.9328 -2.40633,-5.44662 -2.194,-5.65611 0.21232,-0.20949 1.06161,0.27931 1.98167,1.11726 2.194,2.02502 3.53871,2.02502 2.97252,0 -0.2831,-0.90777 -1.69858,-4.05006 -3.18484,-6.98286 -1.48626,-3.00262 -2.54787,-5.44662 -2.33555,-5.44662 0.21233,0 1.55703,0.9776 3.04329,2.09486 1.48626,1.11725 3.18484,2.09485 3.82181,2.09485 1.06161,0 1.06161,-0.20948 0.14155,-2.37417 -0.5662,-1.32674 -1.20316,-4.25954 -1.48626,-6.49405 -0.21232,-2.2345 -0.56619,-5.72593 -0.77852,-7.68113 -0.49542,-4.53885 0.49542,-4.81817 2.12323,-0.62846 1.48626,3.77074 2.76019,5.02766 3.8218,3.70092 0.84929,-0.9776 3.32639,-9.98548 4.03413,-14.66399 0.5662,-3.56126 1.48626,-2.72331 1.98168,1.74571 0.56619,4.60868 3.46793,13.26742 4.60032,13.68639 0.49542,0.13966 1.69858,-1.4664 2.68942,-3.63108 1.84013,-3.9104 3.39716,-5.23714 2.83097,-2.30434 -0.21233,0.83794 -0.5662,4.18971 -0.77852,7.33199 -0.2831,3.21211 -0.92006,7.05267 -1.41548,8.5889 -0.5662,1.4664 -0.70775,2.86297 -0.35387,3.07245 0.28309,0.20949 2.05245,-0.76811 3.8218,-2.09485 1.84013,-1.32674 3.39716,-2.444 3.60948,-2.444 0.14155,0 -0.77851,2.09486 -2.12322,4.74834 -2.54787,4.95782 -3.82181,9.21736 -2.68942,9.21736 0.35387,0 1.34471,-0.62845 2.194,-1.39657 2.33555,-2.16468 3.25561,-1.67588 1.69858,0.90777 -1.84013,2.86297 -4.6711,10.26479 -4.17568,10.75359 0.21233,0.20949 1.34471,-0.27931 2.4771,-1.11725 3.04329,-2.09486 3.32639,-1.81554 1.41548,1.53622 -2.194,3.70091 -4.31722,9.28719 -3.96335,10.33462 0.14155,0.4888 1.20316,0 2.54787,-1.11726 2.90174,-2.37417 3.60948,-1.88537 1.69858,1.18709 -1.13239,1.81554 -4.388,9.35702 -4.388,10.19496 0,0.69828 1.98168,-0.13966 3.32639,-1.39657 2.05245,-1.88537 2.83096,-1.25691 1.34471,1.04743 -1.20316,1.67588 -4.6711,10.0553 -4.6711,11.10272 0,1.04743 1.27394,0.55863 3.46794,-1.25691 1.6278,-1.32674 2.194,-1.53622 2.194,-0.69828 0,0.55862 -0.2831,1.18708 -0.63697,1.39657 -0.35387,0.20948 -1.98168,3.49142 -3.60949,7.33199 -2.05245,4.81817 -3.89258,7.96045 -6.08657,10.19496 l -3.11407,3.28194 v 16.89849 c 0,9.21737 0.2831,17.24764 0.63697,17.73644 0.42464,0.62846 1.06161,-0.83794 2.12322,-4.53885 0.77852,-3.07245 1.48626,-5.86559 1.48626,-6.28456 0,-2.23452 6.8651,-20.87872 9.69606,-26.25552 3.75104,-7.19233 4.45878,-7.6113 12.24394,-7.68113 5.59116,-0.0699 9.27141,1.18708 10.54535,3.56125 1.76935,3.35177 2.90174,11.73119 2.90174,21.29769 0,10.68376 -1.13239,18.57438 -4.81264,32.95905 -2.7602,10.89325 -10.26226,32.8892 -11.11155,32.47023 -0.84929,-0.41897 -0.77852,-1.25691 1.55703,-17.4571 2.33555,-16.06056 2.61865,-30.51505 0.70774,-38.33584 -1.20316,-4.74834 -2.90174,-9.14754 -3.68025,-9.14754 -1.27394,0 -10.82845,22.62443 -14.15484,33.37802 -1.13238,3.49143 -2.12322,6.28457 -2.26477,6.14491 0.43489,-1.95301 -0.86241,3.90766 -1.27394,5.8656 -0.21232,0.9776 -0.63696,3.91039 -0.99084,6.6337 -1.98167,15.43207 -2.54787,18.29504 -3.46793,19.34247 -1.48626,1.74571 -2.90174,1.53623 -3.32639,-0.34914 z m -0.56619,-223.03219 c -0.2831,-0.20949 -0.2831,-2.02503 -0.0708,-3.98022 0.63696,-5.51646 -1.27394,-13.12776 -4.88342,-19.27267 -3.75103,-6.35439 -5.30807,-10.61393 -5.87426,-16.54935 -0.2831,-2.444 -0.70774,-4.60868 -0.99084,-4.74834 -0.77851,-0.4888 -4.03413,3.49142 -6.0158,7.33199 -0.92007,1.81554 -2.54787,6.21474 -3.53871,9.84581 -2.40632,8.37943 -4.74187,12.63897 -9.41297,17.24765 -5.73271,5.51645 -8.4929,4.67851 -5.44961,-1.74571 2.83097,-5.79577 3.32639,-9.35703 2.76019,-20.80889 -0.49541,-10.33462 -0.14154,-13.40708 2.26478,-19.55199 0.70774,-1.67588 -1.9109,-1.25691 -5.44961,0.90777 -1.69858,1.11726 -4.6711,3.77074 -6.65278,6.00525 -11.46541,13.12776 -16.27806,16.75884 -22.86006,17.66661 -4.45877,0.55863 -4.24645,-0.76811 0.77852,-6.00524 4.88342,-5.09748 7.57284,-9.91565 8.98832,-16.13039 1.27394,-5.3768 3.89258,-10.68376 7.50206,-15.08295 1.69858,-2.09486 3.11407,-3.9104 3.11407,-4.11988 0,-0.76812 -5.59116,-0.27932 -9.27142,0.76811 -2.12322,0.55863 -6.51122,2.58366 -9.83761,4.3992 -8.2098,4.60867 -12.5978,5.93541 -19.32135,5.93541 -8.4929,-0.0699 -9.41297,-2.58365 -1.9109,-5.37678 5.37883,-1.9552 9.20064,-4.67852 13.23477,-9.35703 6.15735,-7.26216 10.6869,-11.31222 15.00412,-13.4769 2.40633,-1.11725 4.31723,-2.44399 4.31723,-2.79313 0,-1.11726 -7.07742,-2.79314 -11.67774,-2.79314 -2.33555,0 -6.8651,0.34914 -10.04993,0.69828 -4.10491,0.4888 -7.21897,0.4888 -10.61613,0 -5.94503,-0.9776 -12.5978,-4.11988 -12.5978,-6.00525 0,-1.18708 0.77851,-1.39657 7.07741,-1.74571 8.42213,-0.55863 9.97916,-0.9776 17.552,-5.02766 6.582,-3.56125 12.10238,-5.37679 16.34883,-5.37679 1.62781,0 3.39716,-0.34914 3.96336,-0.69829 0.92006,-0.62845 0.63697,-1.11725 -1.41549,-2.86297 -3.46793,-3.00262 -6.72354,-4.53884 -13.94251,-6.56387 -11.32387,-3.28194 -17.19812,-6.63371 -21.0907,-12.21999 -1.55703,-2.16468 -1.76936,-3.07245 -1.13239,-3.70091 0.63697,-0.62846 1.34471,-0.55863 3.11406,0.13966 8.49291,3.49142 10.04994,3.84057 16.41961,3.63108 15.71187,-0.55863 18.40129,-0.41897 22.86006,0.90777 2.40632,0.76812 4.60032,1.11726 4.81265,0.90777 0.28309,-0.20948 -0.21233,-1.81554 -1.06162,-3.49142 -1.41548,-2.9328 -3.32638,-4.81817 -15.57032,-15.78124 -5.37883,-4.74834 -9.27141,-11.17256 -9.48373,-15.50193 -0.21233,-3.63108 1.48625,-3.21211 6.2989,1.39657 5.09574,4.888 8.06825,6.49405 15.64109,8.51908 6.8651,1.88537 11.60696,4.11988 15.99496,7.75096 4.45878,3.63108 5.23729,3.00262 4.10491,-3.07245 -0.5662,-2.79314 -2.40633,-7.19234 -5.09574,-12.15016 -5.59116,-10.54411 -7.21897,-17.11497 -5.87426,-23.93721 0.56619,-2.82107 2.83097,-2.96771 3.96335,-0.25837 3.18484,7.84174 5.02497,10.71868 9.48374,14.62907 8.98832,7.75097 12.66858,11.73119 14.79181,15.71142 1.20316,2.23451 2.47709,4.05005 2.97251,4.05005 2.33555,0 3.18484,-9.28719 1.98168,-23.39255 -0.42465,-5.78878 -0.35387,-7.77191 0.70774,-11.1935 1.76935,-6.04715 3.82181,-9.51064 5.66193,-9.25926 1.27394,0.18854 1.41549,0.73319 1.55704,6.48706 0.0708,7.15742 1.3447,11.38205 4.95419,17.31747 3.18484,5.23714 5.16651,10.75359 5.66193,16.27004 0.49542,5.3768 1.41549,5.65611 4.52955,1.53623 2.83097,-3.84057 4.17568,-6.98285 6.582,-15.08296 0.99084,-3.63108 2.68942,-7.96044 3.75103,-9.69918 2.61864,-4.46902 8.63445,-10.10418 10.4038,-9.8528 1.91091,0.27233 1.76936,1.82951 -0.70774,7.54148 -2.12322,4.81817 -2.194,5.79577 -1.76935,23.39255 0.14155,5.44662 -0.14155,7.89062 -1.20316,11.0329 -1.13239,3.35176 -1.20316,4.11988 -0.42465,4.46902 1.69858,0.62846 7.07742,-3.14228 11.39464,-7.89061 10.12071,-11.38205 11.74852,-12.91828 16.84426,-15.36228 4.95419,-2.444 8.776,-2.9328 9.34219,-1.32674 0.14155,0.41897 -1.69858,2.65348 -3.96335,5.02765 -4.9542,5.02766 -7.21897,9.14754 -9.27142,16.75884 -1.69858,6.14491 -4.1049,10.82342 -7.57284,14.80364 -3.46793,3.98023 -3.18484,4.53886 2.12323,3.98023 3.53871,-0.34914 6.36967,-1.39657 14.36715,-5.3768 10.54536,-5.23714 14.50871,-6.21473 21.86922,-5.51645 2.90175,0.27931 3.60949,0.62846 3.75104,1.81554 0.14154,1.18709 -0.49542,1.74572 -3.89258,2.9328 -5.80349,2.09486 -9.97916,4.888 -13.65942,9.14754 -7.71438,9.00787 -10.19148,11.24238 -14.57948,13.47689 -2.76019,1.39657 -4.45877,2.72331 -4.388,3.28194 0.49542,2.58366 10.89922,3.63108 21.23225,2.02503 4.24645,-0.62846 6.582,-0.62846 10.26226,0.0699 6.0158,1.04742 12.5978,4.25954 12.5978,6.07508 0,1.18708 -0.77851,1.39657 -6.72354,1.74571 -7.99749,0.4888 -10.47458,1.18709 -18.25974,5.30697 -6.582,3.49142 -11.67774,5.09748 -16.56116,5.09748 -4.388,0 -4.95419,1.11725 -1.9109,3.70091 3.53871,2.93279 6.65277,4.32936 14.65025,6.70353 9.48374,2.79314 13.80097,5.09748 18.40129,9.63633 6.0158,6.14491 4.1049,7.75097 -4.81264,4.05006 -4.17568,-1.74571 -5.23729,-1.9552 -11.67774,-1.74571 -15.49955,0.4888 -18.40129,0.34914 -22.86006,-0.9776 -2.40633,-0.76812 -4.60032,-1.18709 -4.81265,-0.90777 -0.99084,0.97759 3.89258,7.96045 8.13903,11.59152 13.30555,11.52171 16.91503,15.99073 18.11819,22.55461 0.84929,4.3992 -1.06161,4.18971 -6.36967,-0.76811 -5.44962,-5.02766 -8.56368,-6.70354 -16.20729,-8.7984 -6.8651,-1.81554 -10.26226,-3.49142 -15.21645,-7.33199 -2.26477,-1.74571 -4.03413,-2.65348 -4.388,-2.30434 -1.48625,1.4664 0.92007,9.07771 5.94503,18.92353 l 5.09574,10.05529 v 6.91303 c 0,5.44662 -0.21232,7.12251 -1.06161,7.61131 -1.41548,0.83794 -2.194,-0.0699 -4.45877,-5.58629 -2.40632,-5.72593 -5.94503,-10.0553 -11.67774,-14.24501 -4.81264,-3.63108 -9.41297,-8.86822 -11.67774,-13.4769 -0.84929,-1.67588 -1.76935,-3.00262 -2.12322,-3.00262 -0.2831,0 -1.06162,1.18708 -1.69859,2.65348 -0.92006,1.9552 -1.13238,4.25954 -0.99083,9.56651 0.63696,21.50717 0.63696,21.99597 -1.91091,27.09345 -2.194,4.3992 -3.8218,5.65611 -5.30806,4.18971 z m 4.31723,-25.90638 -0.21233,-14.52432 2.68942,-5.37679 c 1.84013,-3.70092 3.11407,-5.3768 3.82181,-5.23714 0.56619,0.13965 1.76935,2.09485 2.61864,4.46902 2.40632,6.56388 4.95419,10.33462 9.76684,14.38467 6.0158,5.09748 11.39464,10.33462 12.73935,12.42947 0.63697,0.9776 1.34471,1.53623 1.55703,1.32674 0.77852,-0.76811 -1.6278,-7.26216 -4.60032,-12.15015 -5.16651,-8.65873 -5.87426,-10.96308 -5.87426,-19.3425 -0.0708,-9.98547 0.49542,-10.47427 5.59116,-4.95782 5.23729,5.72594 9.62529,8.30959 17.97664,10.75359 3.82181,1.04743 8.70523,2.9328 10.68691,4.11988 7.50206,4.32937 4.52954,-0.0699 -5.37884,-8.03028 -8.20981,-6.63371 -12.24394,-12.0105 -14.08406,-18.78386 -0.70775,-2.51383 -1.06162,-4.81817 -0.84929,-5.09748 0.28309,-0.20949 2.61864,0.55863 5.23729,1.67588 2.68941,1.18709 5.44961,2.37417 6.22812,2.72332 1.76936,0.69828 31.49451,0.83794 30.99909,0.0699 -0.70774,-1.11725 -5.94503,-3.28194 -12.24393,-5.02765 -7.92671,-2.16468 -12.52703,-4.3992 -16.41961,-7.89062 -3.39716,-3.00263 -7.07742,-7.75096 -6.582,-8.51908 0.14155,-0.27931 3.75103,-0.4888 7.92671,-0.4888 8.42213,-0.0699 11.96084,-0.97759 18.54283,-4.95782 2.90175,-1.81554 8.91755,-4.11988 14.22561,-5.51645 0.84929,-0.27931 0.77852,-0.41897 -0.28309,-1.04743 -1.27394,-0.69828 -3.32639,-0.62845 -18.47206,0.55863 -4.17568,0.34914 -6.8651,0.13966 -10.26226,-0.69828 -4.88342,-1.25692 -12.17316,-5.16731 -11.81929,-6.28457 0.14155,-0.41897 2.12323,-1.39657 4.45878,-2.16468 8.2098,-2.86297 11.96083,-5.58629 17.90586,-13.12776 2.33555,-2.79314 5.80349,-6.35439 7.85594,-7.82079 6.93587,-5.02765 1.06161,-3.77074 -10.26226,2.16468 -8.70522,4.53886 -14.65025,6.21474 -20.52451,5.65611 -4.6711,-0.41897 -6.72355,-1.04742 -6.72355,-1.95519 0,-0.27932 1.76936,-2.23452 3.96336,-4.25954 5.37884,-4.95783 7.71438,-8.51908 9.55451,-14.24502 2.68942,-8.79839 3.60948,-11.10273 5.73271,-14.52432 1.13239,-1.81555 1.9109,-3.49143 1.76935,-3.63109 -0.70774,-0.69828 -6.36967,4.46903 -10.04993,9.14754 -5.02497,6.49404 -8.91755,9.98547 -14.08406,12.42947 -4.24645,2.09485 -10.33303,3.28194 -10.33303,2.02502 0,-0.34914 0.92006,-2.65348 2.05245,-5.02765 3.11406,-6.56387 3.96336,-12.35964 2.97252,-20.45975 -0.77852,-6.00525 -0.63697,-10.96307 0.42464,-14.66398 0.14155,-0.63544 -0.0708,-1.18708 -0.49542,-1.18708 -1.06161,0 -4.45877,7.6113 -6.0158,13.61655 -1.41549,5.51645 -3.11407,9.14754 -6.2989,13.4769 -2.12323,2.9328 -7.99749,7.82079 -9.48374,7.82079 -0.42465,0 -0.77852,-3.35176 -0.92007,-8.37941 l -0.2831,-8.3096 -3.96335,-7.54148 c -3.75103,-7.19233 -4.88342,-9.91564 -5.87426,-14.37768 -0.28309,-1.07536 -0.77851,-1.75968 -1.13238,-1.52925 -0.92007,0.5307 -0.92007,10.46031 0,16.39573 1.13238,7.54148 -1.13239,17.17782 -5.30807,22.62443 -1.34471,1.74572 -2.97251,0.9776 -3.5387,-1.81553 -0.77852,-3.49142 -4.388,-10.40445 -6.79433,-12.91828 -1.13238,-1.25691 -4.31722,-4.05005 -7.07741,-6.21473 -2.68942,-2.09486 -6.08658,-5.44663 -7.57284,-7.332 -2.26477,-3.00262 -2.61864,-3.28193 -2.83097,-2.02502 -0.35387,2.02502 0.77852,4.67851 4.88342,11.87084 4.52955,7.89063 5.80348,12.56914 5.44961,19.90112 -0.0708,3.21211 -0.56619,6.21474 -1.06161,6.70354 -0.56619,0.55863 -1.9109,-0.34914 -5.44961,-4.05005 -5.30807,-5.58628 -9.20064,-7.89062 -17.05658,-9.98547 -3.11406,-0.76812 -7.71438,-2.58366 -10.19148,-3.9104 -2.4771,-1.32674 -4.6711,-2.30434 -4.81264,-2.09486 -0.84929,0.76812 3.18483,4.95783 9.41296,9.91565 9.0591,7.1225 13.65942,13.61656 14.86258,21.08821 0.56619,3.49142 0.14155,3.63108 -4.52955,1.25691 -7.21896,-3.56125 -9.41296,-3.9104 -24.34632,-3.70091 -7.64361,0.0699 -13.73019,0.34914 -13.51786,0.69828 0.70774,1.11726 5.94503,3.28194 12.24393,5.02766 8.63445,2.37417 13.87174,5.09747 17.97664,9.21735 2.90174,2.86297 5.87426,7.05268 5.23729,7.26217 -0.14155,0.0699 -3.53871,0.13965 -7.64361,0.20948 -8.42213,0.20949 -11.96084,1.18709 -19.10903,5.30697 -2.54787,1.4664 -6.36968,3.21211 -8.4929,3.84057 -2.12323,0.62846 -4.388,1.32674 -4.95419,1.4664 -0.92007,0.34914 -0.92007,0.41897 0,0.9776 1.41548,0.90777 5.30806,0.83794 13.87174,-0.13966 5.37883,-0.55863 8.42212,-0.62846 12.03161,0 5.37883,0.83794 14.08406,4.81816 14.08406,6.42422 0,0.55862 -1.84013,1.60605 -4.52955,2.58365 -6.79432,2.37417 -10.12071,4.60868 -14.72103,9.70616 -5.37884,6.07508 -9.97916,10.68377 -12.5978,12.70879 l -2.12323,1.60606 2.76019,-0.41897 c 1.55704,-0.27932 6.79433,-2.51383 11.67774,-4.95783 5.23729,-2.65348 10.54536,-4.81816 12.81013,-5.23714 4.81264,-0.83794 13.37632,-0.13965 13.94251,1.18709 0.21233,0.4888 -1.55703,2.65348 -4.24645,5.09748 -5.23729,4.88799 -8.2098,9.91564 -10.4038,17.87609 -0.77852,3.07246 -2.4771,7.26217 -3.60948,9.35702 -1.20317,2.02503 -1.98168,3.84057 -1.76936,4.05006 0.77852,0.83794 5.52039,-3.56126 9.62529,-8.86822 6.51122,-8.37943 13.80096,-13.47691 20.87838,-14.45451 2.90174,-0.34914 3.18484,-0.27931 3.18484,1.04743 0,0.76811 -0.2831,1.60606 -0.63697,1.88537 -0.92006,0.55863 -3.53871,7.61131 -4.388,11.87085 -0.49542,2.37417 -0.42464,6.00525 0.14155,11.5217 0.56619,5.51645 0.56619,9.14753 0.14155,11.73119 -0.42465,1.95519 -0.42465,3.63108 -0.14155,3.63108 1.06161,0 4.1049,-6.70354 5.59116,-12.35965 2.61865,-9.77598 6.44045,-15.85106 13.09322,-20.87872 3.60949,-2.72331 4.10491,-2.16468 3.96336,4.67851 -0.21233,7.8208 0.77851,11.24239 5.59116,20.59941 2.194,4.25954 4.24645,9.00788 4.52954,10.68376 0.21233,1.67589 0.77852,2.72331 1.13239,2.51383 0.49542,-0.27932 0.63697,-5.8656 0.5662,-14.87348 z"
         style="fill:#000000;fill-opacity:1;stroke-width:0.99999994"
         inkscape:connector-curvature="0"
         sodipodi:nodetypes="ccscsccccccscccsscsccsscccscccccscccsssccccccccccccccscsccscccccsccscsscccsccscccscsccscccccccccccccccccccccccsccccccssccsccsccccsccccccccccccccccsccccscccccccsccccccscccsccccccsccsccccccccccccsccsccccscccccccccccsccccccccccccccccccccccccccscccsccscccsccsccccccccccccccsccscccccccccccsccccsccccccccccccccsccscsccccccc" />
      <path
         id="path840-1"
         d="m 652.63377,789.65767 c -2.194,-11.801 -2.194,-26.7443 -0.0708,-32.33059 0.99084,-2.58365 0.84929,-4.81816 -0.49542,-7.61129 -2.194,-4.53885 -2.97251,-2.86298 -3.68026,7.89061 -0.21232,3.77073 -0.70774,6.77337 -1.13238,6.77337 -1.13239,0 -1.20316,-8.03028 -0.14155,-14.73381 0.92006,-5.44662 0.92006,-6.49405 0,-8.23976 -1.62781,-3.07246 -2.40632,-1.39658 -3.18484,6.35439 -1.13239,11.59152 0.14155,25.69689 3.18484,34.0763 2.33555,6.56388 5.73271,13.82604 6.0158,13.05792 0.14162,-0.48879 -0.0708,-2.86296 -0.49542,-5.23714 z m 56.1947,-13.82602 c 4.52955,-15.50194 6.15735,-24.92878 6.22813,-36.93928 0.14155,-11.59154 -0.49535,-17.94593 -1.9109,-19.90113 -0.77845,-1.04743 -1.06162,-0.90776 -2.8309,1.39658 l -2.05252,2.58365 1.13238,6.77336 c 0.63697,3.70091 1.34471,9.14754 1.55704,12.08033 0.42471,4.67852 0.28309,5.44663 -0.6369,5.44663 -0.84936,0 -1.13246,-0.69828 -1.13246,-3.00263 0,-3.21211 -1.9109,-16.54935 -2.47709,-17.10798 -0.5662,-0.62846 -2.05246,1.04742 -3.89258,4.32936 l -1.69858,3.14228 1.6278,4.60869 c 3.75103,10.40445 4.52955,21.99597 2.54787,37.70739 -0.56619,4.53885 -1.06161,9.14753 -0.99084,10.12513 0.0708,1.60605 0.14155,1.60605 1.13239,-0.62846 0.56619,-1.32674 2.12323,-6.07508 3.39716,-10.61392 z m -39.56276,1.2569 c -0.99084,-3.63107 -2.90175,-9.35702 -4.24646,-12.77861 -2.61864,-6.28457 -3.04328,-7.96045 -1.9109,-7.96045 0.99084,0 4.81265,9.14753 7.50206,17.94593 1.41549,4.53885 2.68949,8.30958 2.90175,8.51907 0.14154,0.20948 0.14154,-1.53623 -0.14148,-3.84056 -0.84936,-7.47165 -12.31478,-39.52293 -15.14575,-42.45574 -2.33554,-2.37416 -11.32379,-2.37416 -11.32379,0 0,0.55864 0.91999,2.37418 2.05238,3.98023 5.3789,7.8208 15.78264,28.42019 18.75515,37.14877 2.61865,7.75095 2.68942,7.82078 3.04329,6.84318 0.14155,-0.4888 -0.49542,-3.77073 -1.48625,-7.40182 z m 14.43793,-3.63107 c 3.32645,-16.06057 13.87174,-39.31345 24.20477,-53.20932 3.11406,-4.18971 3.32638,-5.44663 1.13238,-6.07508 -2.76019,-0.69829 -10.04993,-0.41898 -11.81928,0.48879 -5.02497,2.51384 -13.4471,25.76673 -17.76432,49.15926 -2.54787,13.47691 -1.34471,16.75885 1.34471,3.84057 2.54787,-11.73118 8.91754,-29.46762 10.61612,-29.46762 1.20316,0 0.92014,1.04743 -1.41548,6.49405 -4.24645,9.91565 -9.20064,29.32796 -9.12987,36.03151 0.0708,3.91039 0.99084,1.39657 2.83097,-7.26216 z m -9.90839,-56.07229 c 0,-1.04742 -0.63696,-3.14228 -1.34471,-4.67851 -2.12322,-4.67851 -8.77599,-9.14753 -7.43129,-5.09748 1.41549,4.53886 6.44045,11.73119 8.20981,11.73119 0.2831,0 0.56619,-0.83794 0.56619,-1.9552 z m 6.65278,-0.83795 c 1.41548,-1.53621 2.54787,-2.93279 2.54787,-3.14228 0,-0.13965 0.63696,-1.88537 1.41548,-3.84057 1.62788,-4.11988 0.77852,-4.60867 -2.90174,-1.60605 -2.54787,2.16469 -4.81265,6.56388 -4.88342,9.42685 0,2.65348 0.77852,2.44399 3.82181,-0.83795 z m -7.71439,-13.68638 c -1.06161,-2.72331 -6.0158,-7.96045 -7.57284,-7.96045 -1.9109,0 2.7602,9.56651 6.01588,12.28981 l 2.2647,1.88538 0.21232,-1.60606 c 0.14155,-0.83794 -0.28302,-2.93279 -0.92006,-4.60868 z m 6.65277,3.98023 c 2.4064,-2.23451 6.01581,-9.21737 5.59123,-10.89325 -0.35394,-1.67588 -4.60039,1.39657 -6.51129,4.81817 -1.84013,3.14228 -3.04322,8.10011 -1.98161,8.10011 0.42458,0 1.69851,-0.90778 2.90167,-2.02503 z m 4.03413,-16.68902 c 1.62781,-3.56126 2.12323,-5.72594 1.27394,-5.72594 -1.13239,0 -4.60033,3.07245 -5.94503,5.30696 -1.69859,2.6535 -2.97252,7.12252 -2.33555,8.16995 0.70774,1.11725 5.30806,-3.98024 7.00664,-7.75097 z m -9.97916,5.23714 c -0.84929,-3.77075 -2.54787,-6.70354 -5.23729,-8.86823 -4.03413,-3.35176 -4.67109,-2.51382 -2.12322,3.07246 2.90174,6.49406 8.42212,10.82342 7.36051,5.79577 z m -0.0707,-10.7536 c -0.63704,-3.77073 -1.98175,-5.93541 -4.88349,-8.51907 -4.45877,-3.84057 -5.09574,-2.444 -1.76935,4.05005 1.9109,3.77075 4.95419,7.05269 6.51122,7.05269 0.35387,0 0.42464,-1.18709 0.14162,-2.58367 z m 6.22806,0.69829 c 1.06161,-1.11725 2.68941,-3.70091 3.68025,-5.79576 2.90174,-6.14491 2.26478,-7.12251 -2.05245,-3.4216 -2.97251,2.58366 -4.24645,4.888 -4.95419,8.51907 -0.63697,3.21212 0.63697,3.49144 3.32639,0.69829 z m -6.8651,-13.19758 c -0.49535,-2.72331 -5.80348,-8.65874 -7.64361,-8.65874 -1.55703,0 -1.55703,0.13966 0.92006,5.23714 2.40633,4.95782 6.51123,9.14753 6.93587,6.98285 0.14155,-0.62846 0.0708,-2.23451 -0.21232,-3.56125 z m 6.8651,2.72331 c 1.06161,-1.11726 2.68941,-3.70091 3.68025,-5.79577 2.90174,-6.14491 2.26478,-7.12251 -2.05245,-3.4216 -2.97251,2.58366 -4.24645,4.88801 -4.95419,8.51908 -0.63697,3.21211 0.63697,3.49142 3.32639,0.69829 z m 0,-11.24239 c 2.47709,-2.65349 6.08657,-10.33462 5.23728,-11.10274 -0.84929,-0.83793 -5.7327,3.70091 -7.28967,6.77337 -1.62787,3.07245 -2.19407,6.98286 -0.9909,6.98286 0.35387,0 1.69858,-1.18709 3.04329,-2.65349 z m -6.51123,0.0699 c 0,-3.07246 -2.68942,-7.61131 -5.73271,-9.63634 -1.48626,-1.11725 -2.97251,-1.74571 -3.18484,-1.53622 -0.77851,0.69828 3.68026,9.28719 5.80349,11.17256 2.54787,2.37417 3.11406,2.37417 3.11406,0 z m 7.85593,-15.08295 c 1.55704,-2.9328 2.68942,-9.56651 1.55704,-9.56651 -0.35387,0 -1.91091,1.60605 -3.39716,3.56125 -2.4771,3.21212 -2.83097,4.11989 -3.04329,8.23977 l -0.21233,4.60867 1.84013,-2.09485 c 0.99084,-1.11726 2.4771,-3.28194 3.25561,-4.74833 z m -7.99748,1.67588 c -0.21232,-3.4216 -0.70767,-4.6785 -3.04329,-7.68114 -1.55703,-1.9552 -3.04329,-3.56125 -3.32638,-3.56125 -0.77852,0 -0.70775,3.35178 0.14155,6.28457 0.77851,2.65348 4.95419,9.07769 5.94503,9.07769 0.28309,0 0.42464,-1.81553 0.28309,-4.11987 z m 3.25561,-7.19234 c 0.63697,-0.83793 1.13239,-2.51382 1.13239,-3.7009 0,-2.23451 -1.91083,-8.58891 -2.90167,-9.70617 -0.42471,-0.4888 -3.468,7.68113 -3.468,9.49668 0,1.11726 2.83096,5.44662 3.5387,5.44662 0.35388,0 1.13239,-0.69828 1.69858,-1.53623 z"
         style="fill:#fcdb00;fill-opacity:1;stroke:none;stroke-width:0.99999994"
         inkscape:connector-curvature="0"
         sodipodi:nodetypes="ccccscccccccccccccssccccccccscsccccscccsccccccscccsccsscscccccscccccccsccsccccccccccscccccccscccccccccccscscccscscccccccscsccscssc" />
      <path
         id="path840-1-3"
         d="m 545.69388,688.61581 c 9.05909,-4.25954 9.83761,-4.46902 15.71194,-4.74834 8.91993,-0.0407 18.1816,3.30459 18.1816,3.30459 l -25.53296,-57.56133 c -5.23729,0 -18.33974,0.27933 -23.57696,2.93281 -13.87181,6.98284 -20.17071,6.84319 -35.81173,-0.90777 -11.45841,-5.65611 -15.40761,-6.77337 -22.44256,-6.42422 -5.47793,0.2793 -6.37676,0.55862 -13.09323,4.05005 -7.09865,3.70091 -7.32512,3.77074 -14.28927,4.05005 -5.06036,0.20949 -8.34428,-0.0698 -11.52912,-0.83794 -2.44171,-0.62846 -4.7631,-0.9776 -5.15024,-0.76812 l 6.15275,54.77832 c 2.9442,1.9552 20.72514,4.36641 26.01197,4.0871 4.28891,-0.20949 6.19981,-0.76811 12.82428,-3.84056 14.02744,-6.49406 16.66024,-6.49406 31.4945,-0.20949 5.37884,2.23451 11.46542,4.60868 13.58865,5.23714 2.05245,0.69828 4.1049,1.32674 4.45877,1.46639 0.42472,0.13966 3.60956,0.13966 7.07742,0.0699 6.2282,-0.20947 6.65277,-0.34914 15.92419,-4.67851 z m 316.85613,3.14229 c 1.98168,-0.55863 7.28974,-2.79314 11.81929,-4.88799 4.52955,-2.09486 9.83761,-4.25954 11.89006,-4.88801 4.74187,-1.32674 12.38548,-1.32674 16.56116,0.0699 1.76935,0.55864 7.73058,2.77265 14.4627,5.00312 l 2.16923,-58.77105 c -2.33555,-2.79315 -12.73935,-4.11988 -18.82593,-2.44399 -1.55703,0.41896 -7.28974,2.58365 -12.73935,4.88798 -11.39465,4.67852 -16.77348,5.72595 -23.07239,4.74835 -5.37883,-0.83794 -8.06825,-1.9552 -13.94251,-5.58628 -9.27142,-5.79577 -14.5087,-6.21474 -27.46055,-2.23452 -11.72301,4.23559 -27.59431,-1.01049 -27.59431,-1.01049 -0.5662,0.55863 -25.90335,58.47934 -25.90335,58.47934 0,0 8.55606,2.44399 17.47368,2.44399 9.97908,0 9.34212,0.13966 23.3554,-5.65611 10.54536,-4.32936 15.85342,-3.63107 27.10668,3.70092 10.97,7.05268 16.70271,8.51908 24.70019,6.14491 z"
         style="fill:#ffffff;fill-opacity:1;stroke:#000000;stroke-width:2.00259376;stroke-miterlimit:4;stroke-dasharray:none;stroke-opacity:1"
         inkscape:connector-curvature="0"
         sodipodi:nodetypes="cccccccccccccccccccccccccccccccccccccc" />
      <path
         id="path840-1-8"
         d="m 677.90016,559.57275 -0.21233,-14.52432 2.68942,-5.3768 c 1.84013,-3.70091 3.11407,-5.3768 3.8218,-5.23714 0.5662,0.13966 1.76943,2.09486 2.61865,4.46903 2.40632,6.56388 4.95419,10.33462 9.76691,14.38467 6.01573,5.09747 11.39457,10.33461 12.73928,12.42947 0.63697,0.9776 1.34471,1.53623 1.55703,1.32674 0.77852,-0.76811 -1.62773,-7.26217 -4.60032,-12.15016 -5.16652,-8.65874 -5.87426,-10.96307 -5.87426,-19.34249 -0.0708,-9.98548 0.49542,-10.47428 5.59116,-4.95783 5.23729,5.72594 9.62536,8.3096 17.97664,10.7536 3.82181,1.04742 8.70523,2.93279 10.68691,4.11988 7.50206,4.32937 4.52954,-0.0699 -5.37877,-8.03028 -8.20988,-6.63371 -12.24401,-12.01051 -14.08413,-18.78386 -0.70767,-2.51383 -1.06162,-4.81817 -0.84929,-5.09749 0.28309,-0.20948 2.61863,0.55863 5.23729,1.67589 2.68941,1.18708 5.44961,2.37417 6.22812,2.72331 1.76936,0.69829 31.49451,0.83794 30.99916,0.0699 -0.70781,-1.11726 -5.9451,-3.28194 -12.244,-5.02765 -7.92671,-2.1647 -12.52703,-4.3992 -16.41961,-7.89063 -3.39716,-3.00262 -7.07742,-7.75096 -6.582,-8.51906 0.14155,-0.27933 3.75103,-0.4888 7.92671,-0.4888 8.42213,-0.0699 11.96084,-0.9776 18.54283,-4.95783 2.90175,-1.81554 8.91755,-4.11988 14.22561,-5.51645 0.84936,-0.27932 0.77852,-0.41897 -0.28309,-1.04743 -1.27394,-0.69829 -3.32639,-0.62846 -18.47206,0.55864 -4.17568,0.34913 -6.8651,0.13964 -10.26226,-0.6983 -4.88342,-1.25691 -12.17316,-5.16731 -11.81929,-6.28456 0.14155,-0.41898 2.12323,-1.39657 4.45878,-2.16469 8.2098,-2.86297 11.96083,-5.58627 17.90586,-13.12775 2.33555,-2.79313 5.80349,-6.3544 7.85594,-7.82079 6.93587,-5.02766 1.06161,-3.77074 -10.26226,2.16468 -8.70522,4.53885 -14.65025,6.21474 -20.52444,5.65611 -4.67117,-0.41897 -6.72362,-1.04743 -6.72362,-1.95519 0,-0.27932 1.76935,-2.23452 3.96336,-4.25955 5.37884,-4.95781 7.71438,-8.51908 9.55451,-14.24501 2.68949,-8.7984 3.60948,-11.10274 5.73271,-14.52434 1.13239,-1.81554 1.9109,-3.49142 1.76935,-3.63108 -0.70774,-0.69828 -6.36967,4.46903 -10.04986,9.14754 -5.02504,6.49405 -8.91762,9.98548 -14.08413,12.42947 -4.24645,2.09486 -10.33303,3.28194 -10.33303,2.02503 0,-0.34914 0.92006,-2.65348 2.05245,-5.02765 3.11406,-6.56388 3.96336,-12.35965 2.97252,-20.45975 -0.77852,-6.00525 -0.63697,-10.96308 0.42464,-14.66399 0.14155,-0.63544 -0.0708,-1.18708 -0.49542,-1.18708 -1.06161,0 -4.45877,7.61131 -6.0158,13.61655 -1.41549,5.51646 -3.11407,9.14753 -6.2989,13.4769 -2.12323,2.9328 -7.99749,7.8208 -9.48374,7.8208 -0.42465,0 -0.77852,-3.35176 -0.92007,-8.37943 l -0.2831,-8.30959 -3.96335,-7.54147 c -3.75103,-7.1923 -4.88342,-9.91562 -5.87426,-14.37766 -0.28309,-1.07537 -0.77851,-1.75968 -1.13238,-1.52925 -0.92007,0.5307 -0.92007,10.46031 0,16.39573 1.13238,7.54148 -1.13239,17.17782 -5.30807,22.62444 -1.34471,1.74572 -2.97251,0.9776 -3.5387,-1.81555 -0.77853,-3.49141 -4.388,-10.40444 -6.79433,-12.91826 -1.13238,-1.25692 -4.31722,-4.05005 -7.07741,-6.21473 -2.68942,-2.09486 -6.08658,-5.44664 -7.57284,-7.332 -2.26477,-3.00262 -2.61864,-3.28195 -2.83097,-2.02502 -0.35387,2.02502 0.77852,4.6785 4.88342,11.87084 4.52962,7.89062 5.80348,12.56912 5.44961,19.90111 -0.0708,3.21212 -0.5662,6.21475 -1.06161,6.70355 -0.5662,0.55863 -1.91083,-0.34914 -5.44961,-4.05005 -5.30807,-5.58629 -9.20057,-7.89064 -17.05658,-9.98549 -3.11406,-0.76811 -7.71438,-2.58365 -10.19148,-3.9104 -2.4771,-1.32674 -4.6711,-2.30434 -4.81264,-2.09485 -0.84929,0.76811 3.18483,4.95782 9.41296,9.91565 9.0591,7.12252 13.65942,13.61656 14.86257,21.08821 0.5662,3.49142 0.14156,3.63109 -4.52947,1.25691 -7.21903,-3.56125 -9.41303,-3.91039 -24.34631,-3.7009 -7.64369,0.0699 -13.73019,0.34913 -13.51794,0.69827 0.70775,1.11727 5.94503,3.28195 12.24393,5.02766 8.63445,2.37418 13.87174,5.09748 17.97664,9.21736 2.90174,2.86297 5.87426,7.05268 5.23729,7.26216 -0.14155,0.0699 -3.53871,0.13966 -7.64361,0.20949 -8.42213,0.20948 -11.96084,1.18708 -19.10903,5.30696 -2.5478,1.46641 -6.36967,3.2121 -8.49289,3.84057 -2.12323,0.62846 -4.388,1.32674 -4.9542,1.46639 -0.92006,0.34915 -0.92006,0.41898 0,0.9776 1.41556,0.90778 5.30807,0.83795 13.87174,-0.13965 5.37883,-0.55863 8.42212,-0.62846 12.03161,0 5.37883,0.83794 14.08406,4.81817 14.08406,6.42422 0,0.55863 -1.84013,1.60606 -4.52955,2.58366 -6.79432,2.37417 -10.12071,4.60868 -14.72103,9.70616 -5.37884,6.07508 -9.97916,10.68375 -12.5978,12.70878 l -2.12322,1.60606 2.76026,-0.41897 c 1.55696,-0.27931 6.79425,-2.51383 11.67766,-4.95783 5.23736,-2.65348 10.54536,-4.81816 12.81013,-5.23713 4.81264,-0.83795 13.37632,-0.13966 13.94251,1.18708 0.21233,0.48879 -1.55703,2.65348 -4.24645,5.09748 -5.23729,4.88799 -8.2098,9.91565 -10.4038,17.8761 -0.77852,3.07245 -2.4771,7.26216 -3.60948,9.35702 -1.20309,2.02502 -1.98168,3.84056 -1.76936,4.05005 0.77852,0.83794 5.52039,-3.56126 9.62529,-8.86822 6.51122,-8.37941 13.80096,-13.47691 20.87837,-14.4545 2.90175,-0.34914 3.18484,-0.27931 3.18484,1.04742 0,0.76813 -0.28309,1.60607 -0.63696,1.88538 -0.92006,0.55863 -3.53871,7.6113 -4.388,11.87084 -0.49542,2.37417 -0.42464,6.00524 0.14155,11.52171 0.56619,5.51645 0.56619,9.14752 0.14155,11.73118 -0.42465,1.9552 -0.42465,3.63108 -0.14155,3.63108 1.06161,0 4.1049,-6.70353 5.59123,-12.35964 2.61858,-9.77599 6.44038,-15.85107 13.09315,-20.87872 3.60949,-2.72331 4.10491,-2.16469 3.96336,4.67851 -0.21233,7.82079 0.77851,11.24239 5.59116,20.59941 2.194,4.25953 4.24645,9.00786 4.52954,10.68375 0.21233,1.67589 0.77852,2.72331 1.13239,2.51382 0.49542,-0.27931 0.63697,-5.86559 0.5662,-14.87346 z"
         style="fill:#fcdb00;fill-opacity:1;stroke:none;stroke-width:0.99999994"
         inkscape:connector-curvature="0"
         sodipodi:nodetypes="ccccccccccccccccccccccccccccccccccsccccccscccsccsccccccccccccccccccccccccccccccccccsccccccccccccccsccscscccccccc" />
    </g>
    <path
       d="m 5.276,5.276 v 307.47 c 0,135.85 109.57,245.98 244.73,245.98 135.16,0 244.72,-110.12 244.72,-245.98 V 5.276 Z"
       stroke-miterlimit="3.864"
       id="path6"
       inkscape:connector-curvature="0"
       style="clip-rule:evenodd;fill:none;stroke-width:10;stroke-miterlimit:3.86400008" />
  </g>
</svg>
