<svg width="412" height="500" viewBox="0 0 412 500" fill="none" xmlns="http://www.w3.org/2000/svg">
<path d="M205.877 1.54688H410.458V302.578C410.458 410.757 318.94 498.454 206.008 498.454C93.0959 498.454 1.54688 410.757 1.54688 302.578V1.54688H205.877Z" fill="#105DB9"/>
<path d="M404.034 281.777C405.364 332.539 398.224 393.119 334.688 446.445L8.5 120.257V8.5H130.757L404.034 281.777Z" fill="white" stroke="black" stroke-width="6"/>
<path d="M205.877 6.54688H405.458V302.578C405.458 407.796 316.382 493.454 206.008 493.454C95.6529 493.454 6.54688 407.795 6.54688 302.578V6.54688H205.877Z" stroke="black" stroke-width="10"/>
<path d="M257.675 236.786L217.51 227.074L205.838 266.714L194.166 227.074L154 236.786L182.493 206.857L154 176.929L194.166 186.64L205.838 147L217.51 186.64L257.675 176.929L229.182 206.857L257.675 236.786Z" fill="#105DB9" stroke="black" stroke-width="4"/>
<path d="M377.675 356.785L337.51 347.074L325.838 386.714L314.166 347.074L274 356.785L302.493 326.857L274 296.928L314.166 306.64L325.838 267L337.51 306.64L377.675 296.928L349.182 326.857L377.675 356.785Z" fill="#105DB9" stroke="black" stroke-width="4"/>
<path d="M137.675 116.785L97.5098 107.074L85.8377 146.714L74.1656 107.074L34 116.785L62.4935 86.857L34 56.9285L74.1656 66.6403L85.8377 27L97.5098 66.6403L137.675 56.9285L109.182 86.857L137.675 116.785Z" fill="#105DB9" stroke="black" stroke-width="4"/>
</svg>
