<?xml version="1.0" encoding="UTF-8"?>
<svg width="600" height="736" version="1.1" xmlns="http://www.w3.org/2000/svg">
 <path transform="matrix(.64645 0 0 .64668 -10.687 -12.164)" d="m21.462 23.728-.01 588.79c6.436 216.75 143.64 424.61 459.16 539.17 315.54-114.56 452.72-322.45 459.16-539.17V23.728z" fill="#fff" stroke="#000" stroke-width="12.476"/>
 <path d="m3.187 3.18-6e-3 294.11h399.04a242.27 193.6 0 0 1-0.057-0.652 242.27 193.6 0 0 1 194.66-189.35v-104.11z" fill="#fcdb00"/>
 <g stroke="#000">
  <path transform="matrix(.64645 0 0 .64668 -2.283 -1.8)" d="M924.23 175.51c-16.921 9.476-32.762 20.881-46.699 34.389-53.482 47.032-77.496 120.02-100.06 185-23.159 72.278-53.2 145.56-110.15 198.07-62.612 61.536-149.55 84.303-226.48 121.43-85.858 39.925-160.97 101.18-218.88 175.98-16.142 21.556-35.269 42.642-47.955 65.684 7.347 7.878 13.14 15.074 18.355 21.973 62.343 55.483 141.59 104.38 239.39 143.82 10.892 2.757 21.59 5.493 33.752 8.406v4.61c.277.1.541.207.818.308l1.182-4.459c4.554-.019 9.844-.409 14.777-.61 305.04-115.63 438.16-320.31 444.49-533.62v-6.075c-.386-13.454-.987-27.14-1.984-41.25-1.285-39.787.248-85.513 1.984-132.19v-219.27c-.718-7.58-1.545-15.01-2.54-22.205z" fill="#1c63b7" stroke-width="5"/>
  <path transform="matrix(.64645 0 0 .64668 -10.687 -12.164)" d="M702.56 301.66c-57.463 51.658-121.03 101.99-198.46 118.27-93.627 24.529-188.53-7.53-282.59-10.495C154.595 407.1 87.04 413.608 23 433.871c-.88 3.1-1.689 6.288-2.55 9.415l-.004 169.41c2.705 91.101 28.57 180.6 80.892 262.33 24.473-20.42 50.594-57.329 74.917-78.827 78.724-75.678 180.28-123.04 285.2-149.96 67.866-18.323 137.46-41.044 190.03-89.875 72.556-61.361 102.01-154.35 145.74-235.45 28.076-56.755 86.084-109.8 144.16-135.79-97.853 3.18-174.64 61.217-238.83 116.54z" fill="#094" stroke-width="5"/>
  <path transform="matrix(.64645 0 0 .64668 -10.687 -12.164)" d="m21.462 23.728-.01 588.79c6.436 216.75 143.64 424.61 459.16 539.17 315.54-114.56 452.72-322.45 459.16-539.17V23.728z" fill="none" stroke-width="9.837"/>
 </g>
</svg>
