<?xml version="1.0" encoding="UTF-8"?>
<!DOCTYPE svg PUBLIC "-//W3C//DTD SVG 1.1//EN" "http://www.w3.org/Graphics/SVG/1.1/DTD/svg11.dtd">
<svg width="720" height="822" version="1.1" xmlns="http://www.w3.org/2000/svg">
 <path d="M714.95 373.14c.095 67.772-15.821 135.54-45.261 196.76a455.53 455.69 0 0 1-126.26 158.42c-53.403 42.512-116.82 72.929-183.54 88.543-66.67-15.544-130.01-45.855-183.37-88.288a454.1 454.26 0 0 1-126.22-158.21c-29.455-61.212-45.303-129.11-45.303-196.96V5.005l709.99.067z" fill="555" />
 <path d="M714.95 373.14c.095 67.772-15.821 135.53-45.261 196.76a455.65 455.67 0 0 1-126.26 158.41c-53.402 42.512-116.82 72.929-183.54 88.542-66.67-15.542-130.01-45.855-183.37-88.287a454.22 454.24 0 0 1-126.22-158.2c-29.455-61.212-45.304-129.11-45.304-196.96V5.005l709.99.067z" fill="#0093dd"/>
 <g stroke="#000">
  <g stroke-width="3">
   <path d="M7.775 422.44c5.704 51.202 20.172 101.5 42.52 147.94a454.25 454.27 0 0 0 126.22 158.21c10.48 8.334 21.444 16.055 32.644 23.435v-101.56c0-81.27 67.532-147.15 150.84-147.15 83.304 0 150.84 65.884 150.84 147.15v101.31c11.184-7.382 22.132-15.103 32.597-23.435a455.65 455.67 0 0 0 126.26-158.42c22.289-46.356 36.785-96.464 42.49-147.48H7.797z" fill="#fff"/>
   <g fill="none">
    <path d="m17.892 468.04h684.5m-8.152 45.61h-278.15m257.93 45.6h-196.45m171.17 45.62h-145.33m116.06 45.6h-108.65m67.03 45.61h-68.268m20.598 45.6h-19.719m-484.43-228.03h277.86m-257.15 45.6h195.67m-175.58 45.62h149.74m-117.17 45.6h109.76m-69.658 45.61h70.898m-20.608 45.6h19.719m110.7-319.24v45.601m-79.568-45.601v45.601m-79.568-45.601v45.601m-79.563-45.601v45.601m159.14 45.611v45.601m-79.568-45.601v45.601m-79.57-44.903v44.901m79.567 46.829v43.731m-79.567-45.741v22.631m79.567 68.539v21.301m119.34-248.5v45.611m-79.57-44.701v44.701m-79.55-45.611v45.611m-79.569-45.611v45.611m159.13 45.601v45.611m-79.561-44.723v43.461m0.1 46.769v29.981m278.37-257.91v45.601m79.568-45.601v45.601m79.568-45.601v45.601m79.568-45.601v45.601m-159.14 45.611v45.601m79.566-45.633v44.841m79.57-44.851v44.591m-79.57 47.949v42.821m79.57-43.251v23.151m-79.57 67.699v21.511m-119.34-250.04v45.611m79.568-45.611v45.611m79.558-45.611v45.611m79.568-45.611v45.611m-159.13 45.601v45.611m79.556-44.173v42.601m0 47.919v24.831"/>
   </g>
   <path d="m359.99 483.5c-93.996 0-170.19 75.324-170.19 168.23v86.814a456.65 456.67 0 0 0 43.694 28.472v-115.28c0-69.372 56.637-125.61 126.51-125.61 69.869 0 126.51 56.238 126.51 125.61v115.06a457.73 457.75 0 0 0 43.694-28.524v-86.535c0-92.914-76.199-168.23-170.19-168.23z" fill="#fff"/>
   <path d="M189.79 741.68h43.689m296.7 0H486.49M236.13 626.06l-42.619-8.84m52.608-20.27-39.199-18.86m55.608-6.44-33.419-27.471m55.338 6.8-25.799-34.411m53.158 19-16.39-39.531m188.42 130.02 42.619-8.84m-52.608-20.27 39.199-18.86m-55.608-6.44 33.419-27.472m-55.338 6.8 25.799-34.41m-53.158 19 16.39-39.531" fill="none"/>
   <path d="M182.03 696.08h62.919v-45.606H182.03zm292.98-45.607v45.606h62.919v-45.606zm-132.3-123.17.001.004a128.914 128.914 0 0 1 17.269-1.17c5.859 0 11.621.407 17.267 1.17l.002-.004 8.223-59.248h-50.986zM3.62 356.753h712.71v65.691H3.62z" fill="#fff"/>
   <path d="M3.633 408.72h712.72m0-3.23H3.633m0-31.791h712.72m0-3.24H3.633m38.095 51.98v-65.691m79.569 65.692v-65.692m79.558 65.692v-65.692m79.568 65.692v-65.692m79.568 65.692v-65.692m79.568 65.692v-65.692m79.568 65.692v-65.692m79.558 65.692v-65.692m79.568 65.692v-65.692" fill="none"/>
   <path d="M3.633 174.32h157.45v182.42H3.633z" fill="#fff"/>
   <path d="M3.633 219.93h157.45M3.633 265.541h157.45M3.633 311.152h157.45m-39.779 45.601v-45.601m-79.569 45.601v-45.601m39.785 0v-45.611m39.784 0V219.93m-79.569 45.611V219.93m39.785 0v-45.601" fill="none"/>
   <path d="M128.61 120.31h32.469v54.01H128.61zm-124.98 0h32.468v54.01H3.63zm58.529 0h38.697v54.01H62.159zm496.75 54.011h157.45v182.42h-157.45z" fill="#fff"/>
   <path d="M716.35 219.93H558.9m157.45 45.611H558.9m157.45 45.611H558.9m39.779 45.601v-45.601m79.568 45.601v-45.601m-39.779 0v-45.611m-39.789 0V219.93m79.568 45.611V219.93m-39.779 0v-45.601" fill="none"/>
   <path d="M558.9 120.31h32.468v54.01H558.9zm124.98 0h32.468v54.01H683.88zm-64.758 0h38.697v54.01h-38.697z" fill="#fff"/>
  </g>
  <g fill="#fcdb00">
   <g stroke-width="3">
    <path d="M400.02 236.3c0 2.153-2.627 11.073-11.493 11.073-16.418 0-15.761-23.686-15.761-23.686l-12.775-.773-12.775.773s.658 23.686-15.762 23.686c-8.866 0-11.491-8.92-11.491-11.073 0 0-6.897 3.997-6.897 15.994 0 8.304 10.837 13.534 19.701 13.534 8.866 0 15.105-6.46 15.105-6.46l12.118-7.847 12.118 7.847s6.24 6.46 15.105 6.46 19.701-5.23 19.701-13.534c.001-11.996-6.895-15.994-6.895-15.994z"/>
    <path d="M368.16 250.45c-4.267-7.69-3.94-25.532-3.94-28.607l-4.237-.158-4.237.158c0 3.075.33 20.918-3.94 28.607-4.266 7.69-9.521 24.608-2.3 35.68 7.226 11.074 9.461 15.682 10.479 19.838 1.017-4.156 3.251-8.764 10.476-19.838 7.223-11.073 1.97-27.992-2.3-35.68zm-78.748-115.27c-26.211 0-36.389 20.529-36.389 33.508 0 18.701 14.495 32.933 29.296 32.933 8.019 0 14.803-5.49 17.269-9.243 0 0-17.886.287-17.886-12.71 0-6.934 4.008-13.577 15.727-13.577s34.23 14.733 34.23 49.685l15.112 1.444c0-22.821-5.242-82.04-57.358-82.04zm141.16 0c-52.116 0-57.359 59.218-57.359 82.039l15.113-1.444c0-34.953 22.512-49.685 34.23-49.685 11.719 0 15.725 6.644 15.725 13.576 0 12.998-17.885 12.71-17.885 12.71 2.468 3.754 9.25 9.243 17.269 9.243 14.803 0 29.296-14.23 29.296-32.933 0-12.979-10.177-33.508-36.388-33.508z"/>
    <path d="M359.99 34.743c-5.613 18.944-31.679 30.965-31.679 65.15 0 28.549 24.059 58.225 24.059 105.18v12.395l7.62-.912 7.62.912v-12.395c0-46.957 24.059-76.633 24.059-105.18 0-34.185-26.065-46.205-31.68-65.15z"/>
   </g>
   <path d="m359.99 34.743v271.22" stroke-width="3"/>
  </g>
  <g stroke-width="3">
   <path d="m340.49 215.87s-1.208-63.36-45.093-63.36c-18.418 0-26.572 12.87-26.572 23.005 0 5.837 4.692 25.532 30.758 16.865m79.896 23.49s1.21-63.36 45.093-63.36c18.417 0 26.572 12.87 26.572 23.005 0 5.837-4.693 25.532-30.758 16.865m-67.976 30.74c0 4.975-1.992 33.168-21.466 33.168-19.472 0-10.982-19.984-10.982-19.984m47.608-13.184c0 4.975 1.992 33.168 21.465 33.168 19.474 0 10.983-19.984 10.983-19.984" fill="none"/>
   <path d="M398.2 212.02h-76.429c-3.896 0-7.053 3.36-7.053 7.51s3.157 7.51 7.053 7.51H398.2c3.897 0 7.056-3.362 7.056-7.51 0-4.15-3.158-7.51-7.056-7.51z" fill="#fcdb00"/>
   <path d="m321.77 219.53h76.428" fill="#fff"/>
  </g>
   <path d="M714.9 372.98c.095 67.743-15.82 135.48-45.258 196.68a455.5 455.5 0 0 1-126.25 158.35c-53.399 42.494-116.81 72.898-183.53 88.505-66.665-15.537-130-45.836-183.36-88.25a454.07 454.07 0 0 1-126.21-158.14c-29.453-61.186-45.3-129.06-45.3-196.88V5.005l709.94.067z" fill="none" stroke-width="10" />
 </g>
</svg>
