<?xml version="1.0" encoding="UTF-8"?>
<!DOCTYPE svg PUBLIC "-//W3C//DTD SVG 1.1//EN" "http://www.w3.org/Graphics/SVG/1.1/DTD/svg11.dtd">
<svg width="720" height="822" xmlns="http://www.w3.org/2000/svg">
 <path d="m714.28 5.133 0.63 367.91c0.095 67.743-15.82 135.48-45.258 196.68a455.5 455.5 0 0 1-126.25 158.35c-53.399 42.494-116.81 72.898-183.53 88.505-66.665-15.537-130-45.836-183.36-88.25a454.08 454.08 0 0 1-126.21-158.14c-29.453-61.186-45.3-129.06-45.3-196.88v-368.24l709.29 0.068"/>
 <path d="m160.25 5.082v187.87h-155.25v160.89h709.88l-0.275-160.89h-154.94v-187.83l-131.4-0.014v187.84h-136.6v-187.85l-131.4-0.013zm86.266 479.43-190.01 96.906a454.08 454.08 0 0 0 120 146.91c11.981 9.523 24.53 18.338 37.441 26.609l87.957-135.97-55.391-134.46zm226.87 0-55.391 134.46 87.859 135.82c12.948-8.304 25.53-17.157 37.541-26.715a455.5 455.5 0 0 0 119.83-146.74l-189.84-96.82z" fill="#fcdb00"/>
 <path d="m115 113.66v258.23c0 50.682 12.061 102.73 34.411 149.16l4e-3 0.01a344.13 344.13 0 0 0 95.592 119.78c33.495 26.614 73.085 47.24 114.82 60.262 41.795-13.078 81.478-33.788 115.03-60.477a345.47 345.47 0 0 0 95.668-120c2e-3 -4e-3 4e-3 -0.013 6e-3 -0.013 22.398-46.57 34.446-98.4 34.381-148.79l-0.441-258.11z" fill="#fff"/>
 <g stroke="#000">
  <path d="m176.24 113.67v453.36c17.288 25.064 37.876 47.734 61.237 67.463v-520.81zm122.48 0.012v562.05a364.73 364.73 0 0 0 61.106 25.371c0.044-0.014 0.087-0.03 0.131-0.045v-587.37zm122.48 0.014v561.85c19.053-10.058 37.107-21.752 53.66-34.918 2.589-2.068 5.052-4.27 7.577-6.408v-520.52zm122.48 0.012v452.94c10.067-14.606 19.104-29.95 26.851-46.023 2e-3 -4e-3 4e-3 -0.014 6e-3 -0.014 22.398-46.57 34.446-98.4 34.381-148.79l-0.441-258.11z" fill="#f00000" stroke-width="5"/>
  <path d="m115 113.66v258.23c0 50.682 12.061 102.73 34.411 149.16l4e-3 0.01a344.13 344.13 0 0 0 95.592 119.78c33.495 26.614 73.085 47.24 114.82 60.262 41.795-13.078 81.478-33.788 115.03-60.477a345.47 345.47 0 0 0 95.668-120c2e-3 -4e-3 4e-3 -0.013 6e-3 -0.013 22.398-46.57 34.446-98.4 34.381-148.79l-0.441-258.11z" fill="none" stroke-width="5"/>
  <path d="m714.28 5.066 0.63 367.91c0.095 67.743-15.82 135.48-45.258 196.68a455.5 455.5 0 0 1-126.25 158.35c-53.399 42.494-116.81 72.898-183.53 88.505-66.665-15.537-130-45.836-183.36-88.25a454.08 454.08 0 0 1-126.21-158.14c-29.453-61.186-45.3-129.06-45.3-196.88v-368.24l709.29 0.068" fill="none" stroke-width="10"/>
 </g>
</svg>
