<?xml version="1.0" encoding="UTF-8"?>
<!DOCTYPE svg PUBLIC "-//W3C//DTD SVG 1.1//EN" "http://www.w3.org/Graphics/SVG/1.1/DTD/svg11.dtd">
<svg width="720" height="822" xmlns="http://www.w3.org/2000/svg">
 <path d="m714.27 5.067.63 367.91c.095 67.743-15.82 135.48-45.258 196.68a455.5 455.5 0 0 1-126.25 158.35c-53.399 42.494-116.81 72.898-183.53 88.505-66.665-15.537-130-45.836-183.36-88.25a454.08 454.08 0 0 1-126.21-158.14c-29.453-61.186-45.3-129.06-45.3-196.88V5.002l709.29.068" fill="#0093dd"/>
 <g stroke="#000">
  <path d="M105.42 59.068v49.656H4.99v74.26h709.58l-.127-74.26h-99.955V59.068h-101.81v49.656h-101.81V59.068h-101.82v49.656h-101.81V59.068zM4.99 243.648v129.6c0 15.048.907 30.088 2.443 45.068h248.65v-174.67H4.983zm251.1 174.67v182.9h207.73v-182.9zm207.73 0h248.65c1.55-15.066 2.449-30.195 2.428-45.334l-.221-129.33h-250.86v174.67zm0 182.9v177.42c28.188-14.178 54.979-31.05 79.574-50.623a455.503 455.503 0 0 0 108.81-126.8h-188.38zm-207.73 0H67.48a454.09 454.09 0 0 0 109.02 127.05c24.602 19.555 51.393 36.402 79.584 50.547v-177.6z" fill="#fcdb00" stroke-width="5"/>
  <path d="m714.9 372.98c0.095 67.743-15.82 135.48-45.258 196.68-29.668 61.588-72.817 115.71-126.25 158.35-53.399 42.494-116.81 72.898-183.53 88.505-66.665-15.537-130-45.836-183.36-88.25-53.428-42.55-96.569-96.605-126.21-158.14-29.453-61.186-45.3-129.06-45.3-196.88v-368.24l709.94 0.0665z" fill="none" stroke-width="10"/>
  <path d="m3.593 243.65h712.72" fill="none" stroke-width="5"/>
 </g>
</svg>
