<?xml version="1.0" encoding="UTF-8"?>
<!DOCTYPE svg PUBLIC "-//W3C//DTD SVG 1.1//EN" "http://www.w3.org/Graphics/SVG/1.1/DTD/svg11.dtd">
<svg width="600" height="685" xmlns="http://www.w3.org/2000/svg">
 <path d="m595.34 4.2474 0.525 306.63c0.08 56.46-13.185 112.92-37.72 163.92a379.63 379.63 0 0 1-105.22 131.98c-44.505 35.416-97.354 60.756-152.96 73.763-55.562-12.949-108.35-38.201-152.82-73.55a378.45 378.45 0 0 1-105.19-131.8c-24.549-50.997-37.756-107.57-37.756-164.09v-306.9l591.15 0.056" fill="#fcdb00"/>
 <g transform="translate(.040998 .025364)" stroke="#000" stroke-width="4.2">
  <path d="m4.166 4.167v133.79l474.57 445.69a379.64 379.64 0 0 0 79.374-108.86c12.943-26.908 22.65-55.35 29.016-84.495l-411.18-386.1z" fill="#fff"/>
  <path d="m3.692 4.167 0.474 7.726v126.11l15.486 14.534 73.626-78.429-74.462-69.94zm89.586 69.941 78.43 73.666 73.63-78.427-69.378-65.164-16.968-2e-3zm78.43 73.666-73.626 78.43 78.43 73.628 73.626-78.43zm78.43 73.629 78.43 73.626 73.63-78.39-78.43-73.665zm78.43 73.626-73.668 78.432 78.43 73.666 73.627-78.43zm78.39 73.67 78.43 73.626 73.628-78.427-78.43-73.628zm78.43 73.626-73.667 78.432 67.005 62.9a379.61 379.61 0 0 0 66.344-85.27z" fill="#f00000"/>
 </g>
 <path d="m595.8 310.94c0.08 56.472-13.184 112.94-37.716 163.96-24.722 51.343-60.68 96.461-105.21 132.01-44.5 35.424-97.343 60.769-152.94 73.779-55.556-12.952-108.34-38.209-152.8-73.566-44.525-35.471-80.476-80.532-105.18-131.83-24.546-51.008-37.752-107.59-37.752-164.13v-306.97l591.55 0.051511z" fill="none" stroke="#000" stroke-width="8.4"/>
</svg>
