<?xml version="1.0" encoding="UTF-8"?>
<svg width="520" height="619"  xmlns="http://www.w3.org/2000/svg">
<path d="M514.998 5v364.97c0 134.775-114.165 244.04-255.012 244.04C119.163 614.01 5 504.736 5 369.97V5Z" fill="#fff"/>
<path d="m188.523 29.25c-4.32.091-8.673.967-12.535 2.834-3.775 1.806-7.355 4.49-8.93 8.504-1.417 3.317-1.342 6.736-.859 10.248-12.517.408-25.618 2.433-37.101 7.639-3.688 1.636-6.773 4.233-7.977 8.209-1.524 5.173-.855 11.067 1.453 15.921.903 1.882 1.833 3.895 3.752 4.93 1.97-.157 3.43-2.733 4.61-4.113 3.994-5.456 10.716-8.204 17.351-8.197 3.832.012 7.268 1.41 10.768 2.834 6.064 2.64 11.784 6.24 17.384 9.74 2.904 1.743 5.733 3.594 8.354 5.758-7.18 1.718-14.757 1.071-22.082 1.14-4.472.094-8.986-.144-13.445.244-.032.778-.413 1.807-.05 2.522.722.947 2.039 1.411 3.124 1.812 4.96 1.706 9.82 3.82 14.48 6.235 4.522 2.621 8.911 4.978 12.229 9.142 2.634 3.249 4.232 7.05 3.699 11.301-.307 2.885-2.47 4.93-4.094 7.168-2.903 3.951-6.353 7.439-9.295 11.371-2.81 3.85-5.963 7.432-8.754 11.301-1.674 2.289-3.688 4.516-4.867 7.062-4.333 9.489-8.07 19.396-10.53 29.55-1.16 5.957-2.245 12.111-2.151 18.2.457 8.812 2.14 17.472 6.072 25.43 5.512 11.978 13.232 21.824 21.115 32.266 5.914 7.15 11.62 14.787 17.899 21.617 5.794 6.528 11.826 12.832 17.646 19.342 5.839 6.096 11.163 12.674 16.883 18.877 1.285 1.473 3.204 2.947 3.75 4.853 2.207 6.93 5.274 13.497 7.25 20.508 2.301 8.153 4.716 16.073 8.058 23.887 1.719 3.963 4.14 7.878 5.268 12.049.765 4.132 1.55 8.272 2.014 12.455 1.285 10.09 2.817 20.261 3.256 30.433-2.371.126-4.554.139-6.655 1.393.32 5.293 2.075 10.491 3.16 15.678 1.857.407 4.56.108 6.172.748.144 2.514.05 5.041.12 7.556-.101 1.255.28 2.821-.993 3.586-3.374 2.245-7.72 3.23-11.426 4.88-3.568 1.416-6.903 3.304-10.421 4.816-2.139-.646-4.033-2.282-6.272-2.903-6.34-2.107-13.385.082-17.549 5.23-1.618 2.346-1.705 5.789-2.088 8.536-3.367 1.267-6.722 2.552-8.904 5.588-3.506 4.935-4.566 11.94-2.484 17.634.395.941 1.091 2.616 2.257 2.698 2.791-1.393 4.341-4.422 7.125-5.977-.219 1.618.338 4.176-.898 5.418-2.383 2.697-4.902 5.154-6.803 8.252-2.64 4.352-5.15 8.87-7 13.623-1.7-3.681-4.094-6.956-6.853-9.91-12.21-12.355-29.13-19.064-46.377-19.78-11.59-.093-23.493 2.183-33.621 8.003-9.62 5.268-17.78 13.126-21.957 23.398l-2.854 8.791c1.993 2.006 1.262.957 3.543 2.486 2.992 2.082 5.695 4.821 8.26 7.399 3.38 3.368 7.012 6.454 10.812 9.326 5.086 3.794 10.537 6.925 15.754 10.512 3.312 2.138 6.642 4.251 9.96 6.37 14.022 8.492 29.054 15.372 44.482 20.878 14.386 5.35 29.505 9.157 44.613 11.822 13.79 2.534 28.033 3.386 42.037 3.693 13.785.026 27.79-.739 41.399-3.015 13.83869-1.98272 27.47805-5.16879 40.763-9.522 8.855-2.979 17.899-6.196 26.403-10.052 9.84-4.209 19.272-9.489 28.648-14.631 13.502-7.564 26.182-15.83 37.44-26.541 3.041-2.829 6.303-5.394 9.326-8.235.723-.684 1.306-.175 2.021-.868-4.43-8.021-7.735-16.417-14.457-22.888-3.938-4.252-8.731-7.36-13.799-10.095-10.592-5.33-22.4-7.37-34.197-6.78-13.076.653-25.643 5.357-36.248 12.957-4.377 3.004-7.664 6.91-10.813 11.137-1.06 1.405-1.767 2.979-2.457 4.584-1.323-3.424-3.118-6.458-4.83-9.707-1.097-2.082-2.308-4.084-3.738-5.959 2.515-4.396 4.874-9.432 3.97-14.625-.582-3.995-3.392-7.212-6.183-9.933-2.17-1.982-2.729-4.973-4.717-7.206-2.609-3.298-6.679-5.048-10.88-4.333-3.33.42-5.645 2.716-8.743 3.437-2.596-.54-5.73-1.956-7.336-4.139-.972-2.972-.928-6.554-.087-9.564 2.088-.866 3.642-2.34 5.46-3.6 1.38-.182 3.042-.295 4.346.244 1.28 1.781.178 2.697 3.563 5.3s11.994 7.86 18.502 7.08c4.032-.49 7.781-2.735 10.064-6.102 3.437-4.641 4.014-11.464 1.662-16.688-1.536-3.455-4.227-5.582-7.187-7.752.464-3.311.546-6.56-.639-9.746-1.794-4.578-5.845-8.44-10.787-9.287-5.858-1.097-12.23 1.355-15.008 6.81-2.026-3.06-4.64-5.776-7.701-7.808-1.236-.916-2.83-1.869-3.62-3.21-1.341-2.792-.82-6.384-.794-9.413.389-7.739.155-15.472.256-23.217.05-2.96 1.067-5.738 2.158-8.447 2.44-6.115 5.958-11.785 8.416-17.88 2.201-5.576 1.944-11.05 3.299-16.833 3.405 2.496 6.353 5.638 8.761 9.1 4.133 6.208 7.368 13.094 11.018 19.71 2.596 4.591 4.754 9.409 7.375 13.987 2.772 5.368 5.889 10.535 8.623 15.922 4.371 7.613 8.148 15.548 12.443 23.205 3.418 6.51 7.286 12.788 10.93 19.172 5.832 9.758 11.804 19.409 18.27 28.765 2.239 3.3 5.035 6.273 7.795 9.14 3.098 3.034 6.629 5.493 11.175 5.292 4.077-.232 7.138-2.811 9.477-5.953 2.521.709 4.765 1.562 7.443 1.117 3.424-.596 6.73-2.013 9.746-3.713 1.694-.928 3.11-2.288 4.791-3.222 3.193-.088 6.196.33 9.313-.754 4.967-1.405 8.585-4.54 12.191-8.065.772-.865 1.783-.552 2.836-.646 3.5.169 7.061-.965 10.09-2.664 3.186-2.095 5.544-6.229 4.309-10.067-.822-1.693-2.44-3.072-3.694-4.465-3.65-3.875-7.117-7.934-10.623-11.935-3.361-3.845-5.199-8.421-8.234-12.504-3.92-5.462-8.029-10.782-11.692-16.426-2.188-2.828-6.578-8.149-8.328-11.26 15.577 9.45 21.837 10.961 36.06 18.612-1.645-8.791-10.008-22.992-12.9-29.592 4.027 3.16 8.36 5.948 13.088 8.017 3.142 1.5 15.382 5.632 20.34 1.649.54-1.656.49-3.693.207-5.393-1.223-2.282-3.438-4.057-5.037-6.095-3.355-4.158-7.024-8.04-10.517-12.092-7.827-8.68-15.464-17.584-22.977-26.54-7.193-8.277-14.438-16.544-21.361-25.042-4.61-5.237-9.1-10.585-13.627-15.89-2.904-3.412-5.175-7.264-8.223-10.57-16.35-20.011-32.717-40.028-49.066-60.04-3.493-4.026-5.212-9.018-7.602-13.735-7.689-15.07-15.665-29.445-26.383-42.62-6.572-8.492-12.995-17.059-19.699-25.45-3.223-4.396-6.987-8.397-9.445-13.139-4.353-7.789-7.719-15.928-10.754-24.306-3.713-11.138-7.188-22.402-9.828-33.854-2.421-9.363-3.594-18.436-6.862-27.605-1.762-5.136-4.54-10.568-8.654-14.205-4.133-3.142-9.13-5.439-14.31-6.047-3.92-.351-7.978.15-11.922.113-4.698.057-9.27-.738-13.867-1.685-6.51-1.349-11.99-3.971-18.745-4.354-1.42566-.136985-2.85807-.191076-4.29-.162m103.198 418.143c2.157.119 4.32.231 6.47.42 1.625.137 3.256 1.11 4.743 1.755-.44.646-.56 1.976-1.594 1.819-1.963.062-4.076.088-5.983-.457-1.367-.935-2.457-2.377-3.636-3.537"/>
<path d="m188.908 33.018c-3.65.024-7.288.54-10.819 1.68-3.418 1.224-6.095 3.689-7.368 7.12-.81 2.025-1.65 5.248.156 6.98 1.7 1.58 4.34 2.282 6.547 2.815 4.252.972 8.147-1.36 12.167-2.377 5.255-1.386 10.943-2.79 16.393-2.577 8.83.677 17.328 2.602 25.8 5.105.502.194.96.476 1.387.852-4.315.195-8.517-.928-12.857-.985.402 2.986.872 5.702-.414 8.568-1.612 3.355-4.37 6.315-7.713 7.983-5.406 2.477-12.487.715-14.889-5.036-.57-3.017.019-6.277-.188-9.357-2.985.54-5.99 1.01-8.974 1.574-3.086.746-5.97 1.97-9.162 2.29 1.022 3.267 2.307 6.095 2.445 9.526-1.762-3.243-2.15-6.541-4.703-9.181-2.252-2.133-5.237-3.43-8.36-3.443-10.298-.358-20.796 1.598-30.642 4.533-3.957 1.11-8.102 2.74-10.85 5.94-1.699 1.968-2.263 4.427-2.207 6.98.044 3.292.013 7.13 2.05 9.89 3.168-3.977 6.987-7.225 11.829-8.962 5.794-2.364 11.997-2.076 17.917-.326 6.108 1.73 11.878 5.117 17.221 8.497 4.622 3.055 9.47 6.002 13.84 9.35 2.089 1.681 4.109 3.425 6.385 4.848.214-5.098-.483-10.12-.583-15.2 3.223 3.449 4.604 8.622 4.905 13.225.213 3.913.194 8.166-1.085 11.91-2.133 6.271-4.848 12.147-7.306 18.286-2.176 5.613-6.316 10.411-10.305 14.845-5.255 6.184-10.43 12.122-14.876 18.952-2.377 3.719-4.791 7.457-6.835 11.37-3.67 7.344-6.535 15.09-8.391 23.092-2.942 11.558-3.029 23.962.427 35.42 2.734 8.015 6.672 15.49 11.426 22.477 6.566 9.413 13.458 18.638 20.958 27.33 10.304 13.007 22.289 25.092 33.828 37.027 6.56 6.817 12.28 14.292 18.507 21.385-1.38-5.35-1.486-10.963-2.49-16.406-.928-5.431-2.195-10.8-3.13-16.224-.432-3.154.378-6.548.967-9.652 4.434 9.332 4.615 18.413 5.938 28.378 2.296 13.854 5.42 28.183 12.562 40.444 3.054 5.368 6.353 10.662 10.148 15.547 3.085 3.951 6.647 6.409 8.792 10.648 1.994 3.694 2.766 7.702 3.148 11.848.76 8.554 1.424 17.12 1.782 25.705.501 7.03.225 14.161.972 21.141 3.706.038 7.406-.006 11.113-.037.696-3.914.319-7.871 1.467-11.515.138-.72.476-1.135 1.016-1.235 1.33.564 2.395 1.763 3.718 2.277 1.932.721 3.933 1.035 5.952 1.33.358-2.973-1.618-4.849-3.462-6.843-1.925-1.963-4.201-3.361-6.534-4.772-2.49-1.374-3.261-4.628-3.537-7.231-.289-4.164.012-8.379-.038-12.555.031-6.617-.897-13.546.37-20.075 2.031-11.025 10.786-20.803 11.627-31.978.433-6.121 2.496-11.64 4.766-17.271 1.191-2.935 2.847-5.57 4.246-8.435-5.262-4.453-11.006-8.317-16.38-12.65-6.347-4.942-12.745-9.757-18.834-15.02-13.12-10.635-25.556-22.03-37.34-34.122a253 253 0 00-6.867-7.557c-6.585-7.663-12.812-15.484-17.61-24.427-4.521-8.353-7.97-17.353-9.965-26.647-1.392-7.106-1.687-14.242.496-21.229 2.245-8.177 7.531-15.29 15.145-19.184 12.549-6.867 28.735-4.195 39.14 5.337 5.255 5.1 8.911 11.621 9.162 19.065-3.28-5.261-6.403-11.17-10.718-15.654-4.791-5.104-11.633-8.02-18.488-8.948-6.447-.897-13.314.056-18.927 3.493-5.287 3.004-8.943 8.453-11.138 13.997-2.665 6.566-2.697 14.01-1.744 20.935 1.506 10.617 6.53 21.077 11.854 30.296a153 153 0 0018.532 25.368c9.558 10.147 19.861 19.416 30.353 28.578 3.907 3.192 7.52 6.755 11.527 9.815 11.062 9.05 22.401 17.785 33.84 26.358 17.04 12.913 34.957 23.205 53.508 33.685 12.762 6.98 25.612 13.783 38.606 20.337 7.175 3.437 14.104 7.325 21.329 10.649 10.109 4.722 20.783 9.545 30.096 15.697 1.254.797 2.553 1.512 3.864 2.208-2.32-5.594-5.915-10.718-8.963-15.948-3.349-4.873-6.133-10.072-9.47-14.951-6.478-10.555-13.401-20.809-20.538-30.93-6.867-10.292-14.531-20.163-21.944-30.116-3.305-4.603-7.049-8.842-10.416-13.401-4.867-6.171-9.928-12.211-15.077-18.15-6.484-7.733-13.515-14.888-20.344-22.307-2.44-2.584-5.224-4.773-7.764-7.275-2.753-2.722-5.976-4.86-8.786-7.52-3.562-3.336-7.212-6.22-10.166-10.196 4.227 1.937 8.203 4.496 12.09 7.024 9.02 6.24 19.237 17.708 27.139 25.29-1.411-7.739-7.094-18.737-9.929-26.056-4.685-11.175-9.764-22.238-15.553-32.887-2.816-4.546-5.174-9.313-8.31-13.66-10.806-16.687-23.574-32.485-35.929-48.075-3.449-3.857-6.126-8.253-8.49-12.838-4.058-8.78-7.08-17.722-10.078-26.91-3.099-10.924-6.09-21.893-8.63-32.969-2.195-8.453-3.807-18.1-7.814-25.857-2.496-4.428-6.09-9.168-11.089-10.836-5.01-1.794-10.78-1.85-16.035-1.48-4.12.257-8.41-.252-12.543-.697-5.293-.59-9.67-2.634-14.957-3.863-3.584-.824-7.248-1.292-10.899-1.267m-1.254 64.411a8 8 0 00-.484.003c-4.81.056-9.607.432-14.424.526-4.283.207-8.46.012-12.712.564 6.416 2.992 13.258 6.222 18.79 10.669 3.405 2.74 6.05 6.07 7.719 10.128 3.493-5.613 7.175-12.248 7.946-18.883-1.605-1.776-4.39-2.945-6.835-3.007zm167.124 150.296c2.634 6.98 5.194 14.004 7.514 21.09.84 2.691.954 6.543.954 6.543s25.32 30.416 40.625 51.562c9.828 13.302 19.328 26.828 28.202 40.788 1.612 2.484 3.054 5.3 5.318 7.206 2.145 1.844 4.46 3.475 6.541 5.394 6.786 6.14 13.867 11.433 22.64 14.38 3.036 1.054 6.654 1.712 9.827 1.035 1.449-.408 1.01-2.208.427-3.18-1.487-2.37-3.681-4.289-5.381-6.528-3.43-4.49-7.406-8.486-10.962-12.876-3.738-4.42-7.683-8.647-11.233-13.225-6.246-7.144-12.322-14.431-18.53-21.612-4.077-5.092-8.562-9.833-12.657-14.907-8.423-9.576-16.418-19.517-24.803-29.13-7.23-8.85-14.593-17.598-22.025-26.283-5.525-6.723-10.963-13.509-16.457-20.257m-48.458 83.146c-1.129 3.01-2.565 5.901-3.663 8.918-.426 1.204-.464 1.686.383 2.671 2.282 2.71 5.111 4.942 7.407 7.658 3.13 3.55 4.847 7.896 7.506 11.91 2.885 5.474 5.82 10.91 8.736 16.36 1.543 2.54 2.86 5.13 4.12 7.821 3.444 6.378 6.993 12.712 10.28 19.178 8.39 15.547 16.95 30.993 25.894 46.226 5.544 9.144 11.35 18.194 17.835 26.698 2.866 3.349 6.598 7.143 11.182 7.708 3.28.05 6.955-2.917 6.83-6.372.094-1.687-1.148-3.431-1.988-4.823-8.705-12.7-17.045-25.67-25.374-38.613-14.656-23.041-29.432-46-43.536-69.38-2.916-5.092-6.234-9.802-8.654-15.195 1.88 1.787 3.23 3.925 4.621 6.095 10.687 16.907 21.8 33.903 32.556 50.848 3.894 5.582 7.343 11.452 11.093 17.128 3.688 5.343 6.924 11.012 10.75 16.255 1.505 2.1 2.69 4.384 4.126 6.522 5.732 8.285 11.126 16.814 16.977 25.004 1.875 2.728 3.782 5.462 6.804 7.018 2.114.928 4.685.865 6.836.062 2.766-.978 5.35-2.508 7.777-4.145 1.116-.74 1.88-1.662 2.057-3.035-.026-1.436-.81-2.421-1.644-3.5-15.453-18.42-30.09-37.509-43.75-57.295-9.011-13.377-17.941-26.798-26.734-40.319-3.167-4.923-6.948-9.645-9.5-14.919 1.222 1.091 2.314 2.27 3.26 3.612 3.914 5.488 7.921 10.906 11.684 16.494 6.49 8.642 12.248 17.848 18.506 26.672 8.003 11.408 15.767 22.965 24.396 33.922 3.631 4.546 6.837 9.388 10.693 13.753 4.742 5.914 9.62 11.72 14.556 17.472 2.207 2.502 4.954 4.233 8.435 3.782 4.12-.753 8.177-3.055 10.554-6.567-1.555-2.941-4.252-5.293-6.434-7.89-6.497-7.142-12.48-14.699-18.726-22.049-2.916-3.775-6.108-7.306-9.006-11.094-4.233-5.557-8.755-10.881-12.994-16.432-10.304-12.517-19.955-25.636-30.027-38.36-1.938-2.484-4.503-3.25-7.124-4.786-16.362-9.1-32.349-18.877-48.04-29.093-2.979-1.856-5.612-4.195-8.66-5.92m-73.206 10.166c1.637 3.888 2.923 7.902 4.466 11.828 2.314 7.224 4.22 14.63 6.992 21.749 1.881 4.754 5.03 8.573 6.127 13.352.627 2.583.978 5.298 1.298 7.932 1.637 12.192 3.06 24.422 4.478 36.638 4.101.44 8.284.263 12.41.27-.344-9.734-1.14-19.43-2.012-29.125-.483-3.763-.533-7.952-1.762-11.514-1.029-3.017-3.53-5.136-5.538-7.513-5.01-5.57-9.144-11.922-13-18.337-2.804-4.854-5.262-10.029-7.325-15.246-1.242-3.638-3.845-6.961-6.134-10.034m142.467 31.783c1.932 3.625 4.891 6.848 7.431 10.072 5.193 6.88 10.499 13.697 16.043 20.294 12.022 15.083 24.527 30.535 36.806 45.405 4.202 4.71 8.103 9.94 12.763 14.204 3.58 3.11 8.284 2.358 12.034.02 1.675-1.004 2.766-2.603 3.23-4.485.044-1.28-.89-2.534-1.655-3.493-1.813-2.17-3.739-4.214-5.708-6.24-14.813-16.726-29.75-33.37-44.438-50.234-2.722-3.136-5.287-6.372-8.31-9.27-2.32-2.295-5.5-3.856-8.34-5.48-6.605-3.612-13.183-7.313-19.856-10.793m32.812 17.372c1.837 2.659 4.409 4.76 6.478 7.262 7.05 7.55 13.552 15.892 20.959 23.21-4.14-5.631-7.708-11.601-12.072-17.064-2.051-2.464-3.6-5.174-5.28-7.877-3.187-2.076-6.686-3.826-10.085-5.531m-146.161 59.761a187 187 0 00-3.506.024c.157 3.882.358 8.008-.432 11.828-.546 2.402-3.518 3.512-5.519 4.421-4.804 1.831-9.52 3.856-14.286 5.77-1.982.777-4.045 2.15-6.165 2.37-2.364-.163-4.64-1.995-6.905-2.735-3.254-1.14-7.462-1.235-10.448.697-3.511 2.383-5.211 6.566-4.754 10.749 2.96-3.173 6.29-6.265 10.812-6.804 4.817-.465 8.485 2.17 13.176 2.05 2.177-.025 4.158-.551 6.266-1.028 7.632-1.781 15.484-3.506 22.871-6.115 1.694-.608 3.95-1.035 5.262-2.333.633-1.047.658-2.502.934-3.681-1.568-.803-3.098-1.035-3.386-3.067-.515-3.988-.364-8.09-.415-12.104q-1.754-.037-3.505-.042m14.146 15.502c-.94.01-1.88.042-2.814.106-.702 2.552-.238 6.497-3.492 7.337-8.85 2.942-17.924 5.293-26.986 7.495-4.27.934-8.241 2.15-12.65 1.222-3.198-.595-6.816-2.17-10.033-1.31-3.312.683-6.172 3.06-7.796 5.97-.772 1.367-.665 2.872.125 4.202 2.395.583 4.629.521 6.748 1.982 3.544 2.082 5.513 5.337 7.213 8.955 1.956-.602 4.076-1.129 5.882-2.107.846-.464 1.254-1.248 1.398-2.17.351-2.195.089-4.61-.119-6.804 3.443 2.088 6.14.307 9.445-.915 7.313-2.81 15.001-6.171 22.828-7.093-5.807 4.835-13.81 7.469-20.74 10.272-1.467.659-3.349 1.392-4.346 2.703-1.185 2.044-.627 5.048-1.819 6.973-4.108.402-7.845.283-11.118 3.274-1.606 1.725-1.318 3.894-.39 5.876 2.935-.508 5.608-1.053 8.499.032 2.627 1.066 4.865 3.21 6.333 5.612.658.972 1.286 2.259 2.277 2.917 2.873.364 5.964-1.091 7.112-3.838 1.486-3.525.633-7.363-.772-10.756-.822-1.981-2.458-3.18-3.92-4.697 2.804-.533 5.513.006 8.273-1.078 6.283-2.365 11.652-7.093 17.886-9.552 4.333-1.68 8.541-1.097 12.957-.175 3.016.69 6.245 1.662 8.835 3.399 2.684 1.769 3.299 4.778 6.228 6.315 4.095 2.659 10.31.608 12.505-3.612 1.857-3.249 2.483-7.827.3-11.076-1.416-2.301-3.718-4.992-6.634-5.111-3.913-.57-6.804 3.945-10.674 3.87-3.022-.22-6.02-1.437-8.636-2.923-1.499-.916-3.405-2.44-3.606-4.308-.495-3.5-.075-7.325.176-10.843-2.813-.014-5.653-.174-8.475-.144m-68.632 19.949c-4.076.57-7.92 3.511-9.287 7.431-1.217 3.16-1.01 6.309-.496 9.589 2.64-1.787 4.59-4.246 7.4-5.833 1.167-.809 3.167-1.517 3.33-3.117.057-2.652-.113-5.536-.947-8.07m111.148 6.703c-1.681 2.547-2.897 5.306-4.866 7.677 2.477 2.991 4.577 5.92 5.63 9.733 4.566-4.716 5.162-13.528-.764-17.41m-104.148 2.93c-1.483.07-2.615 1.297-3.537 2.395-1.449 1.894-3.08 4.202-3.174 6.66-.32 4.46.175 8.956 2.853 12.681 1.135-3.512 2.61-6.748 5.431-9.231 1.957-1.944 4.522-2.948 6.598-4.679 1.104-.884.157-2.383-.502-3.242-1.724-2.082-4.277-4.133-7.01-4.54a3 3 0 00-.659-.045m16.759 19.221c-.727.002-1.398.216-1.947.878-.922 1.23-.972 3.168-1.072 4.641-.019 4.572.49 9.257 3.38 12.982 1.844 2.508 4.346 3.568 7.005 4.979-.89-3.33-1.906-6.296-1.229-9.802.452-2.766 2.064-4.64 3.55-6.905-1.781-3.236-4.742-5.657-8.335-6.597-.461-.102-.917-.177-1.352-.176" fill="#0093dd"/>
<path d="m212.883 51.695c1.668.413 3.462.307 4.108 2.226 1.191 6.905-7.733 14.343-14.174 10.58-1.856-.872-2.408-2.402-2.778-4.284 2.12 2.904 5.519 4.346 8.98 2.866 3.092-1.317 4.585-5.174 2.083-7.833-1.349.697-2.753 2.07-4.384 1.58-1.737-.764-1.543-3.317-.138-4.308 1.863-1.567 4.076-1.11 6.303-.827" fill="#fff"/>
<path d="m108.602 77.156c3.556 3.236 6.14 7.181 10.21 9.922 4.334 3.28 9.99 3.217 14.725.821 6.824-3.361 13.101-6.949 21.053-5.933 6.422 1.167 12.55 4.635 17.491 8.824-5.054-.401-8.78-3.148-13.765-2.89-3.073.463-6.046 2.131-8.805 3.499-4.064 1.988-6.755 5.324-10.593 7.644-2.734 1.637-5.581 3.211-8.811 3.512-6.19.559-12.543-.608-17.855-3.926-3.204-2.019-5.305-5.06-8.44-7.268-2.077-1.455-4.353-2.69-6.968-1.994-3.343.765-5.375 3.342-8.147 4.935-1.047 0-1.768-1.28-2.007-2.176-.495-2.76-.483-5.933 1.311-8.253 2.458-3.368 6.284-5.832 10.01-7.595 3.16-1.473 7.957-1.812 10.591.878" fill="#161613"/>
<path d="m103.27148 78.443359a4.5 4.5 0 00-.76953.048829c-4.309993.457999-8.329172 3.686909-11.201169 6.753906-1.416998 1.441998-1.699922 3.085439-1.919922 5.023437 3.637997-2.069998 6.717817-4.815139 11.257811-3.86914 4.24 1.166998 7.93215 4.922143 11.24414 7.61914 5.349 4.307996 12.33549 6.440469 19.14649 5.105469 3.61899-.752999 7.02306-3.411143 9.91406-5.619141 4.49699-3.623996 9.40121-6.635517 15.0332-8.103515-4.91699-1.391999-10.01472-.544857-14.51172 1.74414-4.90999 2.519998-10.04691 5.474828-15.7539 5.173828-3.575.112-6.66685-1.30408-9.58985-3.205078-3.41799-2.319997-5.68759-5.587096-8.55859-8.371093-1.296-1.174999-2.56202-2.258782-4.29102-2.300782zm207.92774 350.416021c-4.71-.086-9.18347 3.09437-10.85547 7.60937-.721 2.295-.35716 5.55785.71484 7.71484 1.047 1.141 3.01624 2.43203 4.61524 2.20703 2.076-.90999 3.9245-2.42703 5.6875-3.83203.627-1.154.52715-1.77509-.58985-2.49609-1.35399-.935-2.43261-.29628-3.8496.01172l-.95899-.34375c-.2-1.198-.40119-2.27136.38281-3.31836.777-1.054 1.87508-1.19797 3.08008-1.41797 1.435.835 2.43758 1.97175 3.64258 3.09375-.74-1.091-1.53031-2.17164-2.19531-3.30664l-.07422-1.66211c1.9-.069 3.66173.60192 4.80273 2.16992 1.694 1.844.13807 5.12485.28906 7.46485 1.9.25 3.79351.52531 5.6875.82031 2.151-5.638-1.54933-12.24738-7.11132-14.10938a10.1 10.1 0 00-3.26758-.60546zm-42.19336 6.58007c-6.35399.203-19.12109.42774-19.12109.42774s.88357 6.81595 1.64257 10.12695l.26954.33398c5.51199.514 11.81559.47036 17.30859-.18164.239-3.56799-.14361-7.12603-.09961-10.70703zm20.79687 4.3086c-1.09799 1.367-.77268 2.88001-.92968 4.54101 2.92199.17 5.83272.22511 8.76172.03711-.445-1.003-.83961-2.57562-1.84961-3.14062-1.875-.777-3.99443-1.0615-5.98243-1.4375zm26.94922 6.27148c.577 3.098.93835 6.22857 1.40235 9.35156 1.662.1 2.615-.24565 4-1.09765 1.8 1.367 2.17128 3.07294 1.48828 5.21094-.84 2.80299-3.19952 4.15922-4.35352 6.69921-.546 1.035-1.00392 2.41288-1.91992 3.17188-1.078.514-2.21902.55775-3.29102-.03125 1.455-2.91 2.70921-5.56897 2.53321-8.91797-1.512.095-3.05332.29556-4.57031.22656-.929-.3-2.15789-1.65655-1.7129-2.68554 1.806-1.48 4.58435-1.71696 4.40235-4.62696-.32-2.05-.21155-5.16691-1.68555-6.7539-3.44999.533-6.67427 3.58716-7.94726 6.78515-1.53 3.249-.33226 6.64852-1.78125 9.97852.577 1.103.947 2.16287 2 2.92187 3.12399 2.396 6.55962 2.82835 10.01562 4.40235 4.503 2.35199 10.54896.28157 13.12695-3.98242 1.97-3.105 1.97533-7.21734 1.48633-10.73633-1.254-5.964-7.24236-10.02202-13.19336-9.91602zm-47.5 4.27149c-.176 3.73799-.34656 7.42053.14844 11.14453 4.095.496 8.32975.23661 12.46875.34961 2.37-.012 4.88561.27156 7.22461-.14844 1.637-.772 1.87606-3.61936 2.03906-5.19336.044-1.756.50635-4.55356-.72265-5.97656-7.012-.364-14.11621.06922-21.15821-.17578zm25.625 4.29492a132 132 0 00-.00586 3.85742c1.755.289 3.90586.89703 5.63086.33203.395-1.022.43647-2.20144.60547-3.27344-2.075-.345-4.14847-.64601-6.23047-.91601z" fill="#f00000"/>
<path d="m279.74 493.523a20.6 20.6 0 00-3.43.247c-5.606 1.291-10.258 4.452-15.068 7.318-1.793 1.116-3.77 2.013-5.451 3.293-.533 1.267.2 3.33.295 4.748.727 4.396.139 10.29-3.611 13.27-2.484 2.088-5.187 2.03-8.204 2.57-1.555.113-2.451 1.712-2.828 3.054-.765 3.462.652 7.262.338 10.592-.188.96-.05 1.869-1.254 2.082-2.32.132-4.754-.644-6.892-1.504-3.23-1.33-5.2-4.083-6.567-7.181-1.655-4.026-2.314-8.516-2.2-12.856.005-1.762.188-3.775-.339-5.469-.64-2.025-1.624-3.844-2.728-5.65-1.788 1.135-3.5 2.213-4.754 3.969-1.97 2.527-2.759 5.508-4.383 8.185-.596.822-1.442 2.087-2.496 1.059-2.885-2.615-3.907-5.901-5.287-9.363-.94-.025-1.713 1.343-2.303 1.97-3.813 4.955-6.828 10.11-9.236 15.885-1.355 3.06-2.666 6.108-3.557 9.344-1.65-6.19-4.772-11.877-9.049-16.637-8.02-8.14-18.237-13.734-29.312-16.5-12.524-3.393-25.957-2.86-38.237 1.297-7.28 2.609-14.481 6.524-20.019 11.992-4.07 3.995-7.633 8.962-9.332 14.455-1.084 3.656-1.884 7.06-2.553 10.295 46.014 43.288 109.087 70.022 178.703 70.022 70.507 0 134.325-27.384 180.485-71.639-.512-2.227-3.095-6-4.46-8.377-3.822-6.663-7.62-13.903-13.734-18.506-4.227-3.505-9.06-5.776-14.078-7.902-11.163-4.177-23.694-4.866-35.39-2.916-12.574 2.364-25.305 8.578-33.778 18.336-3.694 4.158-5.475 9.064-8.29 13.742-2.647-6.723-5.349-13.992-9.563-19.887-1.004-1.505-3.105-.457-3.801-2.408-1.417-3.53-2.284-7.055-4.705-10.11-4.309.69-8.134 1.775-12.135-.708-4.459-2.346-5.926-6.886-10.555-8.266-3.226-1.025-6.773-1.818-10.242-1.846" fill="#094"/>
<path d="M514.998 5v364.97c0 134.775-114.165 244.04-255.012 244.04C119.163 614.01 5 504.736 5 369.97V5Z" fill="none" stroke="#000f00" stroke-width="10"/>
</svg>
