<?xml version="1.0" encoding="UTF-8"?>
<svg width="600" height="746.33" version="1.1" xmlns="http://www.w3.org/2000/svg">
 <g stroke-width="17.5">
  <path d="M9.708 5.571v440.53c0 10.18.557 20.186 1.521 30.108 18.407-17.892 41.807-30.171 66.987-33.386-4.65-19.457-7.265-38.143-7.265-52.736 0-64.544 56.53-123.23 118.61-123.23 2.057 0 4.35.064 6.771.279-7.114-28.908-10.5-54.493-10.5-66.537 0-63 51.215-114.26 114.17-114.26s114.19 51.257 114.19 114.26c0 12.043-3.386 37.65-10.5 66.537a76.468 76.468 0 0 1 6.771-.279c62.058 0 118.61 58.715 118.61 123.23 0 14.593-2.614 33.28-7.264 52.736 25.2 3.215 48.6 15.472 66.986 33.386.943-9.9 1.5-19.928 1.5-30.108V5.581z" fill="#f00000"/>
  <path d="M287.98 466.56c8.486-1.093 15.536-1.093 24.043 0-6.129-20.443-9.879-38.508-12.021-51.578-2.143 13.114-5.893 31.264-12.022 51.578zm-131.2 90.369c-13.757-35.83-26.7-69.75-63.836-71.101l-1.028-.15c-.493-.043-.858-.043-1.35-.043-27.537 0-54.579 21.108-67.33 48.257 26.186 82.201 87.88 148.69 167.12 181.08-7.221-51.88-19.243-108.54-28.029-140.21-2.142-7.864-4.071-13.822-5.55-17.828zm352.66-71.291c-.472 0-.857 0-1.222.043l-1.157.15c-37.136 1.328-50.1 35.272-63.835 71.1-1.479 4.008-3.429 9.965-5.572 17.83-8.786 31.67-20.786 88.328-28.029 140.2 79.265-32.378 140.94-98.851 167.14-181.08-12.73-27.15-39.772-48.257-67.33-48.257zM332.9 519.067c-10.008-6.386-21.108-9.643-32.915-9.643-11.786 0-22.886 3.236-32.872 9.643-14.057 9.021-25.157 24.086-32.143 43.672-5.935 16.928-9.043 36.9-9.043 59.486 0 48.708 8.143 85.972 23.1 109.89 16.607 2.936 33.623 4.5 50.958 4.5 17.357 0 34.372-1.564 50.978-4.5 14.979-23.936 23.122-61.178 23.122-109.89 0-22.586-3.13-42.558-9.043-59.486-6.986-19.607-18.086-34.672-32.144-43.672zm-100.78-28.225c13.843-31.898 23.476-65.814 27.365-100.4 3.716-27.602-10.204-56.687-34.638-70.326-20.46-12.145-47.423-12.973-67.793-.132-27.777 16.279-46.347 49.008-41.843 81.484 1.449 15.637 4.62 31.075 9.059 46.132 28.341 10.417 47.976 35.73 60.298 62.331 4.713 9.831 8.672 20.012 12.582 30.177 7.417-18.869 19.715-35.958 34.971-49.265zm179.57 27.208c11.92-27.736 36.854-56.533 65.386-69.202 10.178-3.3 1.397-16.271 4.514-25.17 3.934-20.749 6.78-43.2-2.618-62.988-12.2-27.686-39.935-51.156-71.371-50.098-31.09.842-59.706 24.637-65.88 55.176-4.227 20.276.881 40.967 5.043 60.81 5 22.005 12.008 43.58 21.103 64.236 15.366 13.128 27.64 30.992 35.035 49.093 2.881-7.307 5.705-14.632 8.786-21.858zM230.21 211.11c2.467 24.21 8.676 47.905 16.2 70.994 26.396 15.234 46.417 41.375 53.594 71.058 7.23-29.643 27.195-55.796 53.594-71.015 8.414-26.437 15.796-53.65 16.8-81.515.625-32.514-24.247-63.092-56.202-69.107-30.156-6.743-63.276 9.321-76.865 37.021-6.773 13.016-8.9 28.078-7.12 42.564z" fill="#094"/>
  <g fill="#fcdb00">
   <path d="M189.602 562.097c.514-1.779 1.114-3.45 1.671-5.186.943-3.3 1.864-6.729 3.043-9.922-.086-.385-.15-.728-.343-1.178-.064-.322-.257-.686-.3-.964-.257-.793-.386-1.372-.578-1.715l-.965-2.657c-11.314-29.4-28.35-73.886-70.586-88.63-9.814-3.428-19.864-5.12-30.965-5.12-3.236 0-6.472.278-9.172.556-26.357 2.615-50.7 15.815-69.365 35.08 1.971 15.3 5.014 30.257 9.3 44.829 14.336-26.508 41.615-46.436 69.236-46.436.557 0 1.135.15 1.692.172l.922.043c40.35 1.521 54.472 38.486 68.165 74.272 1.522 4.093 3.493 10.221 5.658 18.3a144.196 144.196 0 0 1 1.692 6.214c.258.836.408 1.693.643 2.4.343 1.457.793 2.872 1.136 4.372.257.921.536 2.035.707 3.128.45 1.307.793 2.765 1.114 4.265.258 1.135.536 2.271.836 3.407.322 1.457.664 2.957 1.093 4.457.3 1.179.6 2.507.771 3.729a60.17 60.17 0 0 1 1.093 4.692c.3 1.308.622 2.68.922 4.072.3 1.5.728 2.979 1.05 4.5.321 1.479.643 2.979.943 4.564.3 1.522.621 3.022.943 4.543a70.06 70.06 0 0 1 1.05 4.715c.3 1.585.6 3.064.9 4.564.257.964.385 2.036.664 3-.022-.407-.022-.964-.043-1.479-.236-5.335-.3-10.864-.3-16.479 0-15 1.2-29.315 3.771-43.607.986-5.636 2.165-11.186 3.6-16.5zM518.6 447.25c-2.678-.278-5.914-.556-9.171-.556-11.079 0-21.129 1.693-30.943 5.121-42.236 14.743-59.251 59.23-70.587 88.63l-.985 2.635c-.193.365-.322.943-.579 1.736-.043.3-.236.643-.321.964-.15.45-.236.836-.322 1.179a414.57 414.57 0 0 1 3.043 9.921c.514 1.736 1.157 3.408 1.65 5.186a171.976 171.976 0 0 1 3.6 16.521c2.572 14.292 3.793 28.607 3.793 43.607 0 5.593-.086 11.143-.321 16.48v1.478c.235-1.114.385-2.079.643-3.193.278-1.436.6-2.743.878-4.2.322-1.671.643-3.257 1.072-4.907.3-1.522.642-3.022.942-4.522.3-1.585.622-3.085.922-4.564.321-1.521.771-3 1.071-4.5.3-1.414.622-2.786.9-4.072.365-1.65.686-3.15 1.136-4.692.171-1.222.45-2.55.729-3.729.45-1.5.792-3.021 1.135-4.457l.836-3.407c.321-1.479.664-2.958.986-4.265.278-1.093.557-2.207.814-3.128.343-1.479.814-2.893 1.136-4.372.257-.728.385-1.585.643-2.4.557-2.25 1.114-4.328 1.714-6.214 2.143-8.079 4.114-14.229 5.657-18.3 13.692-35.765 27.815-72.75 68.186-74.272l.9-.043c.536-.022 1.136-.172 1.693-.172 27.643 0 55.03 19.95 69.258 46.436 4.243-14.572 7.307-29.508 9.279-44.83-18.686-19.285-43.03-32.485-69.387-35.1zM400.803 547.966c-1.221-3.429-2.592-6.729-3.921-9.922-8.122-17.85-19.029-32.593-32.657-43.908-14.165-11.807-31.179-19.628-49.223-22.308-5.614-.9-10.564-1.242-15.022-1.242-4.436 0-9.386.364-15 1.242-18.022 2.679-35.036 10.48-49.223 22.308-10.178 8.486-18.92 18.965-25.993 31.072a164.638 164.638 0 0 0-6.643 12.835c-1.329 3.193-2.679 6.493-3.922 9.922-3.578 9.707-6.428 20.292-8.443 31.457-2.421 14.08-3.621 28.093-3.621 42.794 0 38.121 4.264 70.394 12.92 96.709 13.758 5.035 27.922 9.107 42.558 12.043-12.385-21.6-21.471-55.436-21.471-108.75 0-23.144 3.064-43.693 9.257-61.18 7.329-20.57 19.2-36.45 34.137-46.05 10.821-6.836 22.692-10.35 35.508-10.35 12.835 0 24.708 3.514 35.508 10.35 14.957 9.6 26.806 25.48 34.136 46.05 6.172 17.487 9.258 38.036 9.258 61.18 0 53.314-9.108 87.15-21.472 108.75 14.614-2.936 28.8-7.008 42.557-12.043 8.636-26.315 12.9-58.566 12.9-96.709 0-14.7-1.2-28.715-3.621-42.794-2.079-11.164-4.95-21.75-8.507-31.457zM211.606 269.013c9.886 2.098 19.517 5.4 28.586 9.857-7.781-26.072-15.025-52.829-15.425-80.201.235-34.737 27.667-66.67 61.941-72.222 33.008-6.53 68.611 12.339 81.957 43.175 11.168 23.292 5.75 49.672.73 73.779a418.04 418.04 0 0 1-9.565 35.469c12.156-5.873 25.259-9.996 38.721-11.379 5.641-24.208 11.412-48.908 10.514-73.916-2.189-42.804-32.249-82.323-72.77-96.145-38.69-14.1-84.782-3.633-113.532 25.864-24.555 24.13-36.113 60.198-30.828 94.152 2.011 16.87 5.298 33.572 9.43 50.045 3.436.34 6.855.849 10.242 1.522z"/>
   <path d="M189.515 271.667c-59.508 0-113.702 56.508-113.702 118.461 0 14.337 2.466 32.807 7.116 52.157a2.63 2.63 0 0 1 .556-.043 68.597 68.597 0 0 1 7.073-.342c4.436 0 8.785.342 13.092.899.664.043 1.435.086 2.1.279 4.05.579 7.994 1.458 11.809 2.443.428.193.77.192 1.092.256-.622-2.314-1.156-4.52-1.756-6.834-.558-2.228-1.158-4.308-1.565-6.408-.793-3.15-1.33-6.15-1.908-9.13-.343-2.013-.856-4.05-1.156-6.042-.579-3.236-.901-6.256-1.223-9.407-.107-1.52-.514-3.236-.6-4.779-.364-4.607-.642-8.977-.642-13.07 0-42.58 39.515-84.431 79.737-84.431 8.164 0 16.307 1.372 24.107 4.05 30.644 10.458 51.17 39.001 51.17 71.295 0 1.478-.04 3.149-.212 4.885-.086 2.935-.386 6.192-.75 9.771-.193 1.157-.451 2.529-.537 3.75-.322 2.422-.75 4.95-1.113 7.586-.279 1.564-.6 3.257-.9 4.95-.494 2.464-.9 4.971-1.458 7.628-.364 1.822-.835 3.644-1.22 5.616-.58 2.614-1.159 5.057-1.78 7.715-.514 2.035-1.072 4.048-1.629 6.084-.643 2.657-1.414 5.272-2.121 7.972-.6 2.058-1.22 4.094-1.928 6.194-.728 2.743-1.586 5.421-2.465 8.078-.664 2.1-1.413 4.156-2.1 6.256-1.028 2.657-1.95 5.294-2.894 7.93-.835 2.079-1.648 4.115-2.377 6.172-.514 1.329-1.071 2.485-1.607 3.664 1.05-.75 1.928-1.416 2.871-2.059a159.14 159.14 0 0 1 4.05-2.527c2.572-1.5 5.078-2.915 7.714-4.18 1.393-.6 2.786-1.349 4.094-1.97a215.503 215.503 0 0 1 9.62-3.579c.9-.278 1.779-.621 2.7-.9 3.965-1.136 7.864-2.078 11.936-2.828 6.614-21.62 10.454-40.832 12.672-54.218.627-3.317 1.142-6.73 1.543-10.213.199-1.439.499-3.405.637-4.484.829-4.577.314-9.249.338-13.145.2-7.176.116-12.942-.338-19.835-.337-1.753-.495-3.641-.814-5.164a108.663 108.663 0 0 0-4.81-17.094l-.015-.041-.008-.02c-3.202-10.148-7.507-18.37-12.52-23.918a110.157 110.157 0 0 0-36.241-33.156c-10.221-5.807-21.065-9.88-32.444-12.043-3.707-.815-7.627-1.372-11.484-1.715-3.857-.322-6.835-.514-9.707-.514zm220.913-.06c-2.872 0-5.85.192-9.686.514-15.514 1.457-30.342 5.979-43.907 13.779a110.316 110.316 0 0 0-35.652 32.314c-6.466 6.595-11.814 17.54-15.273 31.259a108.937 108.937 0 0 0-2.668 10.656 41.244 41.244 0 0 0-.643 4.328l-.172.857c.304 6.648-.725 13.967-.744 19.856.026 12.868 1.575 25.499 4.492 36.648 2.35 12.476 5.85 28.152 11.124 45.39 4.028.75 7.95 1.692 11.936 2.828.9.278 1.78.643 2.68.9a185.126 185.126 0 0 1 9.642 3.578c1.286.622 2.68 1.35 3.965 1.97 2.743 1.265 5.27 2.68 7.842 4.18 1.393.836 2.68 1.651 4.03 2.53.942.643 1.82 1.307 2.87 2.057-.535-1.179-1.071-2.336-1.607-3.665-.729-2.057-1.543-4.093-2.379-6.171a494.818 494.818 0 0 1-2.764-7.93c-.814-2.1-1.457-4.135-2.228-6.256a601.17 601.17 0 0 1-2.573-8.078c-.6-2.1-1.22-4.137-1.82-6.194-.686-2.7-1.457-5.337-2.121-7.973-.557-2.035-1.115-4.048-1.629-6.084-.643-2.657-1.244-5.1-1.822-7.736-.365-1.95-.857-3.772-1.178-5.594-.579-2.657-.964-5.184-1.478-7.627-.3-1.693-.622-3.408-.9-4.951-.365-2.657-.814-5.165-1.114-7.586-.107-1.222-.344-2.593-.537-3.75-.386-3.579-.665-6.815-.75-9.793a56.104 56.104 0 0 1-.192-4.864c0-32.271 20.528-60.837 51.17-71.294a74.23 74.23 0 0 1 24.108-4.05c40.2 0 79.716 41.85 79.716 84.43 0 4.093-.257 8.485-.62 13.07-.087 1.522-.495 3.259-.602 4.78-.365 3.15-.793 6.192-1.221 9.406-.322 1.972-.814 4.029-1.156 6.043-.579 2.979-1.158 5.98-1.801 9.13-.536 2.1-1.115 4.2-1.672 6.408-.579 2.314-1.113 4.498-1.756 6.834.321-.065.685-.063 1.092-.256 3.836-.986 7.756-1.865 11.807-2.444.643-.192 1.459-.236 2.102-.279 4.307-.536 8.677-.898 13.092-.898 2.443 0 4.78.106 7.072.342h.535c4.65-19.35 7.116-37.822 7.116-52.157 0-61.95-54.217-118.462-113.722-118.462z"/>
  </g>
  <path d="M0 .001v446.1c0 13.393.922 26.528 2.657 39.429.193 1.178.279 2.228.493 3.407.086 1.05.15 2.164.364 3.107 2.593 16.692 6.643 32.892 11.786 48.664.472 1.286.879 2.636 1.372 3.879.407 1.371.878 2.678 1.307 4.071 29.7 81.236 93.365 146.23 173.85 177.43.879.321 1.779.793 2.657 1.114.9.3 1.78.643 2.658.943.364.236.857.322 1.221.493.043 0 .086 0 .214.022.922.342 1.886.6 2.786.92 1.05.344 1.993.772 2.936 1.094 14.85 4.993 30.15 8.871 45.943 11.464 1.136.236 2.229.386 3.279.6 1.35.236 2.635.364 3.985.579 13.823 2.014 28.093 3.021 42.493 3.021 14.422 0 28.672-1.007 42.537-3.021 1.35-.215 2.657-.343 3.985-.579 1.03-.214 2.165-.364 3.28-.6a295.171 295.171 0 0 0 45.942-11.464c.943-.322 1.886-.75 2.807-1.093 1.05-.321 1.972-.579 2.915-.921.15-.022.193-.022.214-.022.386-.193.857-.278 1.222-.493.9-.321 1.757-.664 2.657-.943.9-.321 1.757-.793 2.678-1.114 80.465-31.2 144.15-96.194 173.86-177.43.407-1.371.771-2.679 1.307-4.071.471-1.243.9-2.593 1.393-3.88 5.1-15.749 9.171-31.949 11.764-48.663.214-.943.279-2.057.364-3.107.236-1.179.3-2.229.472-3.407 1.693-12.88 2.614-26.036 2.614-39.43V0zm9.707 446.1V9.711h580.58v436.39c0 10.178-.557 20.186-1.5 30.108-18.407-17.893-41.807-30.172-66.987-33.386 4.65-19.458 7.265-38.144 7.265-52.737 0-64.544-56.53-123.23-118.61-123.23-2.078 0-4.35.064-6.771.279 7.114-28.908 10.5-54.493 10.5-66.537 0-63-51.236-114.26-114.2-114.26-62.936 0-114.17 51.257-114.17 114.26 0 12.043 3.386 37.65 10.5 66.537a76.793 76.793 0 0 0-6.771-.279c-62.08 0-118.61 58.715-118.61 123.23 0 14.593 2.614 33.28 7.265 52.737-25.179 3.214-48.579 15.471-66.987 33.386-.964-9.9-1.521-19.93-1.521-30.108zm499.72 34.606c-.536 0-1.136.15-1.693.172l-.9.043c-40.372 1.521-54.493 38.486-68.186 74.272-1.543 4.093-3.515 10.221-5.658 18.3-.947 3.124-1.562 5.718-2.357 8.614-.343 1.457-.814 2.872-1.135 4.372-1.03 3.857-1.704 7.004-2.636 10.8-.364 1.457-.686 2.957-1.136 4.457-.524 2.883-1.322 5.822-1.864 8.422-1.365 6.327-2.747 11.849-3.836 17.657a234.086 234.086 0 0 0-1.95 9.107c-.279 1.157-.407 2.336-.686 3.536 0-.643.043-1.222.043-1.822.236-5.335.322-10.864.322-16.479 0-15-1.222-29.315-3.793-43.607a173.343 173.343 0 0 0-3.6-16.52c-.493-1.78-1.136-3.45-1.65-5.187-.943-3.3-2.015-6.6-3.065-9.793l.022-.15c.082-.399.19-.792.321-1.178.086-.322.279-.686.322-.964.278-.793.407-1.372.578-1.736l.986-2.636c11.336-29.4 28.35-73.886 70.586-88.63 9.815-3.428 19.864-5.12 30.943-5.12 3.236 0 6.472.278 9.172.556 26.357 2.615 50.7 15.815 69.365 35.08-1.971 15.3-5.014 30.257-9.278 44.829-14.207-26.443-41.594-46.394-69.236-46.394zm-268.09.879c.75-2.057 1.564-4.093 2.378-6.171.943-2.636 1.865-5.272 2.893-7.93 1.623-4.852 3.34-9.761 4.565-14.335a120.527 120.527 0 0 0 1.928-6.193c1.274-4.886 2.6-9.518 3.75-14.057.622-2.636 1.222-5.1 1.779-7.714.385-1.972.878-3.815 1.221-5.615.895-4.4 1.552-8.436 2.357-12.578.682-4.005 1.026-7.576 1.65-11.336.42-5.133.96-9.826.965-14.658 0-32.271-20.53-60.835-51.172-71.292a74.227 74.227 0 0 0-24.108-4.05c-40.2 0-79.737 41.85-79.737 84.429 0 4.093.278 8.486.643 13.071.064 1.522.471 3.258.6 4.779.321 3.15.643 6.193 1.221 9.407.3 1.972.814 4.029 1.157 6.043.579 2.979 1.136 5.979 1.907 9.129.408 2.1 1.008 4.2 1.565 6.407.6 2.357 1.2 4.671 1.843 7.007-.365-.15-.729-.236-1.179-.428-3.836-.986-7.757-1.865-11.807-2.443-.664-.193-1.414-.236-2.1-.279-4.307-.536-8.679-.9-13.093-.9-2.421 0-4.8.107-7.071.343h-.536c-4.65-19.35-7.114-37.822-7.114-52.158 0-61.95 54.194-118.46 113.7-118.46 2.872 0 5.85.193 9.708.515 3.857.342 7.779.9 11.486 1.714 11.336 2.164 22.2 6.214 32.4 12.021 0 0 .022 0 .043.022 0 0 .021 0 .021.021 28.007 15.858 47.444 42.88 53.572 74.207.425 1.883.465 3.414.815 5.165.511 6.629.55 10.907.55 15.686 0 4.328-.055 7.671-.55 17.292-1.308 10.222-5.143 37.115-14.851 68.915a127.03 127.03 0 0 0-11.936 2.828c-4.167 1.377-8.664 3.011-12.321 4.48-1.308.62-2.68 1.37-4.093 1.97-2.636 1.265-5.143 2.68-7.715 4.18-1.414.835-2.678 1.65-4.05 2.528-.943.643-1.821 1.307-2.871 2.057.514-1.157 1.05-2.314 1.586-3.622zm-3.643-4.136c-.75 2.229-1.65 4.115-2.507 6.193-1.072 2.486-1.993 4.886-2.957 7.179-.108 0-.108.021-.129.021 0 .022 0 .022-.021.043-1.78 1.5-3.365 3.236-5.1 4.907-1.608 1.457-3.15 2.722-4.608 4.265-2.963 3.869-6.332 7.046-8.893 10.778-1.993 2.657-3.771 5.572-5.55 8.443-.814 1.222-1.671 2.357-2.357 3.557a123.907 123.907 0 0 0-6.878 13.223c-.579 1.371-1.008 2.678-1.565 4.071l-.021-.193-.514-1.2c-.665-1.778-1.415-3.578-2.1-5.529-.322-.9-.772-1.821-1.115-2.7-.386-1.092-.836-2.057-1.2-3.15-.514-1.028-.943-2.357-1.457-3.535-.343-.9-.686-1.757-1.136-2.657a76.624 76.624 0 0 0-1.435-3.236c-.386-.986-.879-2.1-1.308-3.193a57.386 57.386 0 0 1-1.478-3.086c-.962-2.35-2.29-4.477-3.193-6.643-.579-1.157-1.157-2.314-1.757-3.471a771.005 771.005 0 0 1-3.75-6.579c-1.377-2.262-2.833-4.592-4.093-6.621-.6-.943-1.372-1.886-2.036-2.936-.836-1.179-1.543-2.336-2.4-3.407-.771-1.007-1.457-1.929-2.228-2.807-.9-1.158-1.779-2.315-2.679-3.472-.814-.9-1.521-1.757-2.357-2.614-1.762-2.131-3.76-3.944-5.572-5.7-1.093-1.05-2.078-2.057-3.214-2.979-.9-.836-1.821-1.628-2.85-2.314-1.157-.9-2.207-1.972-3.386-2.85-1.071-.664-2.057-1.414-3.128-2.079-1.222-.857-2.4-1.714-3.772-2.421-1.007-.75-2.164-1.2-3.3-1.907-1.371-.686-2.636-1.479-4.071-2.122-1.157-.557-2.379-.943-3.557-1.5-1.2-.536-2.38-1.093-3.73-1.478v-.172h-.02c-.815-2.657-1.415-5.143-2.08-7.778-.6-2.486-1.37-4.908-1.95-7.286-.642-2.957-1.2-5.872-1.778-8.807-.364-2.1-.9-4.308-1.221-6.365-.536-3.257-.879-6.278-1.222-9.45-.235-1.521-.514-3.214-.621-4.736-.471-4.607-.707-8.978-.707-13.071 0-40.158 37.114-79.522 74.915-79.522 7.586 0 15.193 1.222 22.565 3.793 28.601 9.635 47.847 36.465 47.807 66.645 0 1.457-.022 2.957-.086 4.607-.414 7.562-1.586 14.719-2.657 21.943-.257 1.521-.622 3.236-.922 4.779-.535 2.678-1.05 5.335-1.65 8.207-1.085 4.663-2.11 9.638-3.235 13.843-1.684 6.9-3.921 14.228-5.85 20.421-.879 2.85-1.736 5.636-2.658 8.486-1.804 4.8-3.403 9.765-5.228 14.164zm123.17-201.83c.407-1.672.922-3.236 1.457-4.907.6-2.122 1.243-4.329 1.822-6.429.514-1.693.9-3.257 1.286-4.95.557-2.1 1.135-4.221 1.693-6.321 1.345-5.545 2.525-10.646 3.557-15.793a91.397 91.397 0 0 0 1.135-6.172c1.45-7.653 2.631-15.673 3.193-22.8.215-2.722.3-5.336.3-7.672 0-41.571-33.75-75.343-75.3-75.343-41.53 0-75.28 33.772-75.28 75.343 0 2.336.064 4.93.3 7.672.043.879.236 1.95.278 2.871.15 3.467.91 6.44 1.158 9.686.3 1.886.578 3.9.9 5.936.257 1.436.535 2.871.835 4.329.614 3.76 1.36 7.212 2.1 10.671.775 3.918 1.735 7.477 2.615 11.122.535 2.228 1.114 4.371 1.671 6.493 1 3.878 2.055 7.758 3.107 11.357.515 1.671 1.05 3.235 1.457 4.907a44.407 44.407 0 0 1 1.136 3.364c-1.136-.578-2.186-1.178-3.343-1.735-1.35-.45-2.593-1.18-3.943-1.608-7.062-3.23-14.438-4.804-21.407-6.664-3.321-.643-6.75-1.179-10.243-1.521-7.307-28.994-10.629-54.88-10.629-66.858 0-60.321 48.987-109.35 109.26-109.35 60.3 0 109.29 49.029 109.29 109.35 0 12-3.408 37.864-10.736 66.9-3.343.343-6.793.879-10.115 1.522-3.67.943-7.69 1.795-10.842 2.807a39.684 39.684 0 0 0-3.493 1.2 61.415 61.415 0 0 0-7.05 2.657c-2.646.898-5.018 2.173-7.308 3.343.343-1.2.665-2.25 1.136-3.407zm-2.207-9.9c-.578 1.8-.964 3.728-1.564 5.528a320.435 320.435 0 0 1-1.757 5.572c-.557 1.757-1.115 3.557-1.715 5.293v.064c-3.3 1.972-6.664 4.029-9.664 6.172-.214.171-.279.257-.364.3a113.642 113.642 0 0 0-8.957 7.221 660.122 660.122 0 0 0-8.443 8.272c-.965 1.157-1.886 2.357-2.936 3.535-2.783 3.177-5.042 6.388-7.179 9.643-1.35 1.95-2.614 3.815-3.771 5.807-1.926 3.483-3.89 7.024-5.507 10.393-.665 1.629-1.286 3.172-2.036 4.822-.857 2.1-1.564 4.157-2.314 6.257-.579 1.693-1.008 3.257-1.522 4.972-.321 1.178-.6 2.357-.9 3.557a93.53 93.53 0 0 0-.878-3.515c-.515-1.735-1.072-3.321-1.543-5.057-.772-2.078-1.479-4.114-2.315-6.193-.728-1.671-1.35-3.214-2.035-4.864-4.637-9.633-10.031-18.109-16.436-25.843-3.466-4.275-7.767-8.417-11.4-11.829-2.872-2.571-5.829-4.928-8.958-7.221-.085-.043-.171-.129-.342-.3-3.15-2.143-6.279-4.2-9.686-6.172v-.064a382.092 382.092 0 0 1-1.715-5.293c-.6-1.929-1.2-3.729-1.778-5.571-.557-1.8-.986-3.729-1.543-5.529-1.753-6.046-3.138-11.647-4.607-17.272-1.62-7.354-3.3-14.549-4.436-21.493-.601-3.401-.972-6.63-1.478-9.857a80.19 80.19 0 0 1-.622-5.978c-.15-.9-.236-1.972-.278-2.85-.258-2.743-.322-5.336-.322-7.672 0-38.893 31.5-70.543 70.372-70.543 38.893 0 70.394 31.65 70.394 70.543-.182 3.836-.029 7.015-.6 10.522-.798 7.313-1.606 14.459-3.193 21.193-.321 1.757-.6 3.428-.921 5.164-1.792 7.642-3.25 15.317-5.357 22.35-.536 2.036-1.136 3.943-1.693 5.936zm-58.651 149.27c2.143 13.072 5.914 31.158 12.022 51.6-8.486-1.092-15.537-1.092-24.043 0 6.128-20.336 9.878-38.485 12.021-51.6zm2.379-16.671c-.258-11.195-.519-24.718.192-33.858.13-1.435.365-2.892.643-4.328 6.129-31.35 25.693-58.394 53.594-74.23 13.565-7.8 28.394-12.32 43.93-13.757 3.835-.321 6.814-.514 9.685-.514 59.486 0 113.72 56.508 113.72 118.46 0 14.337-2.465 32.807-7.115 52.158h-.535a69.17 69.17 0 0 0-7.072-.343c-4.414 0-8.786.343-13.092.9-.643.043-1.436.086-2.1.278-4.05.58-7.993 1.458-11.807 2.443-.45.193-.815.279-1.179.429.643-2.336 1.243-4.65 1.843-7.007.557-2.229 1.157-4.307 1.671-6.407.932-5.33 2.192-10.198 2.958-15.172.45-3.236.878-6.257 1.221-9.407.107-1.522.514-3.236.6-4.779.364-4.607.621-8.978.621-13.071 0-42.579-39.514-84.43-79.715-84.43-8.142 0-16.307 1.372-24.108 4.05-30.643 10.458-51.171 39-51.171 71.293 0 1.479.042 3.15.192 4.865.026 5.005.874 8.98 1.286 13.542.322 2.422.772 4.95 1.115 7.586.278 1.543.6 3.257.9 4.95.789 4.67 1.844 8.932 2.657 13.222.578 2.636 1.178 5.1 1.821 7.736.493 2.035 1.05 4.05 1.629 6.085.643 2.636 1.414 5.272 2.121 7.972.6 2.057 1.243 4.136 1.822 6.193.857 2.743 1.692 5.421 2.571 8.078.793 2.1 1.436 4.158 2.229 6.258.9 2.657 1.821 5.293 2.764 7.928.836 2.079 1.65 4.115 2.379 6.172.514 1.328 1.05 2.486 1.607 3.664-1.05-.75-1.929-1.414-2.872-2.057-1.371-.879-2.635-1.693-4.028-2.529-4.136-2.39-7.818-4.214-11.808-6.15a206.917 206.917 0 0 0-9.643-3.578c-.9-.279-1.778-.622-2.678-.9-3.986-1.136-7.886-2.079-11.936-2.829-9.729-31.822-13.586-58.737-14.914-68.915zm57.022 71.229c-1.934-4.89-3.513-10.058-4.928-14.679-.6-2.035-1.372-4.05-1.972-5.978-.878-2.936-1.543-5.829-2.357-8.722-1.384-4.907-2.593-10.029-3.6-14.636-1.52-5.95-2.725-12.508-3.729-17.957-.527-4.187-1.15-7.907-1.735-11.85a252.966 252.966 0 0 1-.9-10.093c-.043-1.65-.086-3.15-.086-4.607-.04-30.173 19.196-57 47.786-66.644 7.371-2.571 15-3.792 22.586-3.792 37.778 0 74.915 39.365 74.915 79.521 0 4.093-.236 8.486-.729 13.072-.086 1.5-.364 3.214-.6 4.735-.975 8.798-2.511 16.669-4.221 24.622-.707 2.379-1.35 4.8-1.972 7.286-.643 2.635-1.264 5.121-2.057 7.778h-.043v.172c-1.328.385-2.528.943-3.75 1.478-2.723.962-5.238 2.426-7.607 3.622-5.95 3.46-11.692 7.078-16.436 11.571-2.03 1.884-4.017 3.624-5.828 5.422-.965 1.071-2.015 2.207-2.958 3.236-1.853 1.959-3.51 4.08-5.014 6.085-.793.9-1.5 1.822-2.25 2.829-.9 1.179-1.607 2.357-2.421 3.557-1.74 2.008-2.954 4.447-4.329 6.45a151.858 151.858 0 0 0-7.351 13.2c-.556.943-1.006 2.057-1.542 3-.557 1.179-1.114 2.315-1.671 3.515-1.055 2.14-1.963 4.359-2.893 6.364-.407.986-.9 2.1-1.286 3.086-.844 2.187-1.715 4.104-2.571 6.15-.365 1.071-.815 2.035-1.179 3.085-1.136 2.915-2.25 5.7-3.236 8.315l-.514 1.221-.064.15c-.536-1.393-.965-2.7-1.565-4.071-2.185-4.629-4.371-9.043-6.878-13.222-2.636-4.02-5.258-8.517-7.929-12-2.96-3.673-6.013-7.606-8.914-10.801-1.222-1.307-2.786-2.614-4.05-3.835-1.843-1.8-3.75-3.6-5.615-5.315-.042-.021-.042-.021-.042-.042v-.022c-1.093-2.293-2.015-4.693-3.065-7.179-.878-2.057-1.778-3.964-2.507-6.192-1.071-2.593-1.993-5.25-2.893-7.886zm-347.38 12.794c18.686-19.264 43.007-32.464 69.365-35.08 2.679-.278 5.915-.557 9.172-.557 11.1 0 21.128 1.693 30.965 5.121 42.235 14.743 59.272 59.23 70.586 88.63l.964 2.657c.193.343.322.921.58 1.714.042.3.235.643.3.964.192.45.256.793.342 1.18s0 0 .021.15a306.94 306.94 0 0 0-3.064 9.792c-.557 1.736-1.157 3.407-1.671 5.186-1.436 5.314-2.636 10.864-3.6 16.52-2.572 14.293-3.772 28.607-3.772 43.608 0 5.593.064 11.143.3 16.479 0 .6.043 1.179.064 1.821-.15-1.05-.407-2.207-.664-3.343-.3-1.5-.621-2.978-.9-4.564-.667-3.19-1.406-6.29-1.993-9.257-.321-1.586-.643-3.086-.943-4.564-.321-1.522-.75-3-1.05-4.5-.3-1.415-.621-2.786-.921-4.072-.717-2.918-1.168-5.673-1.864-8.421-.429-1.5-.772-3.022-1.093-4.458-.685-2.532-1.208-5.378-1.95-7.671-.172-1.093-.45-2.207-.707-3.129-.615-2.408-1.196-4.56-1.779-6.771a144.24 144.24 0 0 0-1.693-6.214c-2.164-8.08-4.136-14.23-5.657-18.3-13.692-35.766-27.815-72.75-68.166-74.273l-.921-.043c-.557-.02-1.136-.17-1.693-.17-27.622 0-54.9 19.949-69.236 46.435-4.307-14.615-7.35-29.55-9.321-44.872zm11.207 51.578c12.729-27.172 39.794-48.258 67.33-48.258.492 0 .856 0 1.35.043l1.028.15c37.136 1.329 50.08 35.272 63.835 71.1 1.479 4.008 3.429 9.965 5.55 17.83 8.786 31.671 20.807 88.329 28.03 140.2-79.244-32.378-140.94-98.872-167.12-181.08zm276.77 202.69c-17.358 0-34.372-1.564-50.958-4.5-14.957-23.936-23.1-61.178-23.1-109.89 0-22.586 3.107-42.558 9.043-59.486 6.986-19.607 18.108-34.651 32.143-43.672 9.986-6.386 21.086-9.643 32.872-9.643s22.908 3.236 32.914 9.643c14.058 9.021 25.158 24.086 32.143 43.672 5.915 16.928 9.043 36.9 9.043 59.486 0 48.708-8.143 85.972-23.12 109.89-16.607 2.936-33.623 4.5-50.98 4.5zm99.986-17.7c-13.778 5.036-27.943 9.108-42.557 12.043 12.386-21.6 21.471-55.435 21.471-108.75 0-23.143-3.085-43.693-9.257-61.179-7.328-20.571-19.2-36.45-34.136-46.05-10.822-6.836-22.693-10.35-35.509-10.35s-24.685 3.514-35.508 10.35c-14.936 9.6-26.806 25.479-34.136 46.05-6.193 17.486-9.257 38.036-9.257 61.179 0 53.315 9.107 87.15 21.471 108.75-14.635-2.935-28.8-7.007-42.557-12.043-8.657-26.314-12.921-58.565-12.921-96.708 0-14.7 1.2-28.715 3.621-42.794 2.015-11.164 4.886-21.75 8.443-31.457 1.243-3.43 2.593-6.73 3.922-9.922 2.014-4.436 4.264-8.722 6.643-12.835 7.071-12.107 15.814-22.586 25.993-31.072 14.186-11.807 31.2-19.629 49.223-22.308 5.614-.9 10.564-1.243 15-1.243 4.457 0 9.407.365 15.022 1.243 18.043 2.679 35.057 10.479 49.222 22.308 13.651 11.336 24.558 26.057 32.658 43.908 1.328 3.193 2.678 6.493 3.921 9.922 3.557 9.707 6.429 20.292 8.443 31.457 2.422 14.08 3.622 28.093 3.622 42.794.043 38.143-4.222 70.394-12.836 96.709zm9.643-3.921c7.243-51.88 19.243-108.54 28.029-140.2 2.143-7.865 4.071-13.843 5.571-17.83 13.737-35.828 26.68-69.75 63.836-71.1l1.157-.15c.365-.043.75-.043 1.222-.043 27.557 0 54.578 21.108 67.35 48.258-26.23 82.2-87.901 148.69-167.17 181.08z"/>
 </g>
</svg>
