<?xml version="1.0" encoding="UTF-8"?>
<svg width="520" height="619" xmlns="http://www.w3.org/2000/svg">
<path d="M514.998 5v364.97c0 134.775-114.165 244.04-255.012 244.04C119.163 614.01 5 504.736 5 369.97V5Z" fill="#f00000"/>
<path d="m309.61 22.926c-1.182 4.525-1.835 8.698-5.116 12.299-4.644 5.662-11.514 8.026-15.775 13.845-7.215-.213-14.41-.163-21.569.862-6.693.986-13.952 2.173-20.054 5.183-2.76 1.345-5.215 3.049-6.887 5.682-1.22 1.885-1.371 4.148-1.717 6.316-10.69.27-21.425 2.947-31.512 6.385-5.442 2.074-11.412 4.24-16.03 7.81-1.547 1.182-3.087 3.118-2.528 5.186.987 4.154 4.33 6.863 7.523 9.377.044 6.385.244 12.293 3.682 17.899 1.766 2.865 4.431 4.13 7.209 5.789-.006 3.663.51 6.064 2.219 9.27-6.417-.045-12.626-.311-18.729-2.51-5.442-1.785-9.923-5.598-12.965-10.393-2.539-3.94-4.724-8.718-8.306-11.797-4.538-4.054-11.622-4.995-17.24-2.928-2.181.748-4.99 1.98-6.051 4.166-.742 1.22.218 2.558 1.412 2.91 2.37.673 4.55.748 6.574 2.319 2.79 1.973 4.173 4.866 5.11 8.058 1.47 5.242 4.055 10.244 8.347 13.713 3.023 2.338 6.66 4.191 10.361 5.147 4.89 1.137 9.791 1.86 14.813 1.244 5.82-.604 11.117-2.381 16.805-3.594 2.853-.622 5.802-.81 8.699-1.244-1.301 1.106-2.885 2.298-3.72 3.807-1 1.84-1.334 3.979-1.718 6.015-2.715.635-5.761 1.125-8.244 2.432-2.193 1.181-3.92 3.123-4.166 5.687-.308 2.489.942 4.286 2.06 6.36-1.948 2.432-3.731 4.739-4.29 7.9-.635 3.362-.159 6.831 2.386 9.295 2.181 2.087 5.683 2.223 8.467 1.582 3.488-.817 6.26-3.505 9.108-5.56.521 1.948 1.385 4.185.851 6.177-.817 3.865-2.897 7.844-6.637 9.553-3.393 1.823-7.986.345-11.851.678.019 1.986-.106 3.792.799 5.627 2.281 4.663 6.636 8.32 11.84 9.162 5.9 1.118 11.142-1.057 16.05-4.112-1.338 2.15-2.714 4.212-4.65 5.883-5.556 4.802-12.381 8.145-19.879 7.856-1.954-.044-4.053-.647-5.988-.352-1.307.666-1.088 2.73-1.383 3.986-7.466-8.509-14.845-17.121-22.01-25.888-3.859-4.896-8.087-9.608-13.297-13.096-4.92-3.507-10.905-6.368-15.222-10.54-3.193-3.055-4.412-6.982-7.391-10.2-2.319-2.489-4.916-4.738-7.43-7.026-2.476-2.23-5.49-4.45-6.76-7.636-1.363-3.708-.844-7.567-2.648-11.23-2.822-6.373-8.181-9.357-12.6-14.448-1.633-1.898-4.165-3.909-4.888-6.353-.566-3.105.42-6.708.847-9.813.874-5.36.567-10.654.165-16.033 2.325-1.584 4.442-3.23 5.75-5.793 2.853-4.89 1.67-11.6-2.76-15.139-2.866-2.187-6.121-2.577-9.584-3.023-1.565-2.646-3.016-5.128-5.461-7.082-3.589-2.916-8.653-3.635-13.04-2.366-2.155.623-3.929 1.748-5.808 2.916 3.683 1.905 7.103 3.397 9.252 7.18 1.81 2.835 1.998 5.882 1.684 9.156-2.558 2.35-5.153 4.223-6.215 7.711-.98 2.772-.3 5.818 1.685 7.961 1.081 1.094 2.783 1.693 4.172 2.309-1.32 4.99-1.484 10.664.596 15.478 2.514 6.19 5.45 11.576 5.764 18.432-4.029-5.342-7.107-11.632-10.633-17.275-1.678-2.74-4.193-5.335-5.299-8.358-.038-2.47 1.012-4.86.83-7.392.07-3.149-1.44-6.177-4.557-7.233-2.293-.968-4.298-.333-6.585.176-2.665-4.84-7.713-7.944-13.288-7.768-4.713.076-8.759 2.245-12.058 5.506 3.362.937 6.68 1.38 9.232 3.994 1.798 1.766 2.558 3.591 2.772 6.086-1.37 1.364-2.685 2.627-3.54 4.393-1.778 3.834-1.61 8.867 1.96 11.607 2.815 2.011 5.852 1.408 8.957.547 1.144 2.3 2.073 4.664 2.902 7.09 1.672 5.06 5.386 9.211 9.64 12.297 3.803 2.59 5.81 7.437 8.405 11.258-3.419.39-6.787.986-10.162 1.658-1.917.408-3.534.101-5.2-.904-2.834-1.766-3.606-6.008-6.415-8.032-2.137-1.627-5.026-2.075-7.446-.787-2.777 1.47-4.858 4.337-5.882 7.266-1.094 3.23-.654 6.245-.14 9.52-2.833 2.532-5.348 5.122-6.542 8.83-1.81 4.858-1.672 10.275 1.182 14.687l.898.234c1.496-2.23 2.282-4.563 4.318-6.455 1.785-1.822 3.92-2.726 6.371-3.31.824 1.162 1.656 2.475 2.711 3.443 3.055 2.709 7.736 3.256 11.356 1.377 2.093-1.03 3.542-2.604 5.138-4.244.861-.804 1.667-1.792 2.924-1.861 3.765-.296 7.606.146 11.383.228.358.918.722 1.842 1.08 2.76-1.464 1.357-2.915 2.926-4.625 3.963-1.854 1.093-3.904 1.139-5.984 1.365-.685 2.816.768 5.116 2.842 6.87 1.445 1.143 3.494 1.633 5.228 2.173-.572.955-1.2 1.937-1.652 2.961 2.382 1.785 5.775 2.3 8.691 2.312 3.89-.081 6.535-2.135 9.483-4.373.735 2.885 1.54 5.536 1.34 8.559-.384 4.563-1.842 8.773-3.803 12.877.56.446 1.15 1.073 1.847 1.287 3.979.402 7.63-.407 11.08-2.412-.207 2.834-.187 5.568 1.02 8.201 1.395 3.413 4.16 5.325 5.9 8.467 1.012 1.81 1.816 3.739 2.721 5.605.798-.414 1.64-.71 2.457-1.068.49 3.79 1.891 7.215 3.356 10.709 1.263 2.973 1.434 6.052 1.515 9.238 4.016-.672 5.117-3.909 7.033-6.982a35.3 35.3 0 013.38 13.078c.144 2.413-.188 4.9.158 7.29.647.533 1.162.85 2.029.661 3.218-.56 5.782-2.175 8.39-4.035 1.949 5.072 4.212 9.86 7.92 13.914 3.947 4.695 9.079 7.378 14.678 9.61-1.835 5.16-3.844 10.18-4.88 15.578-3.206-.24-6.4-.968-9.604-1.043-1.678.999-.824 2.987-.453 4.476 1.382 4.469 4.4 7.754 8.209 10.324-.038 3.268-.12 6.486.314 9.735 1.395 10.325 3.945 20.414 8.57 29.797-6.435 2.143-12.725 4.705-19.173 6.804-3.696 1.138-7.43 1.855-11.313 1.698-2.564-.07-4.958-.238-7.283 1.082-3.362 1.904-4.67 5.713-8.04 7.705-3.902 2.3-8.508 2.236-12.655.62-7.448-2.865-14.55-6.246-21.665-9.759.378-3.092 1.301-5.875.145-8.904-1.282-3.84-4.92-6.279-8.961-6.115-3.375-.132-5.588 1.703-8.039 3.714-1.955-1.615-3.832-3.113-6.346-3.754-7.969-2.073-16.566 1.906-20.52 9.045 3.658.076 6.914-.15 10.22 1.735 2.155 1.15 2.896 3.253 3.939 5.314-1.96 1.722-3.857 3.106-4.467 5.815-1.05 4.185 1.37 9.007 5.844 9.68 3.972.747 6.861-1.006 10.557-1.76 1.872-.377 3.106 1.048 4.388 2.148a72.3 72.3 0 0010.324 8.272c-4.801 1.049-9.557 2.25-14.37 3.25-2.917.59-6.241 1.638-9.208 1.173-3.173-1.231-5.607-3.845-9.302-4.115-6.543-.446-13.097 6.19-12.28 12.775.22 1.76 1.05 3.445 1.78 5.042-1.42 1.608-2.904 3.148-3.784 5.134-2.162 4.701-1.345 10.59 1.426 14.87 1.785-1.358 2.758-3.654 4.373-5.231 2.646-2.772 5.959-3.876 9.541-4.906 1.339 1.037 2.854 2.412 4.52 2.814 3.192.654 6.442-.51 8.654-2.853 1.66-1.666 2.186-3.69 2.959-5.832 3.545.062 7.285.263 10.785-.19 3.419-.452 6.674-1.217 10.024-1.965-2.3 3.4-4.125 7.383-7.764 9.545-2.357 1.39-4.932 2.86-7.64 3.375-3.514-.081-6.367-1.861-10.05-1.05-6.567.917-10.946 8.573-8.382 14.706.993 2.609 3.009 4.15 5.297 5.583-.61 3.588-.862 7.054.615 10.486 1.37 3.268 3.306 5.287 6.744 6.355.647-2.325 1.156-4.952 2.55-6.957 1.163-1.671 2.994-3.02 4.565-4.297 2.168.428 4.525 1.142 6.7.577 3.506-.849 6.697-2.84 8.57-5.983 1.401-2.168 1.961-4.605 2.238-7.144.302-1.584.13-3.1 1.488-4.2 3.488-2.985 8.11-5.291 11.346-8.773 2.771-3.017 4.297-7.392 6.434-10.578.949-1.521 2.741-1.973 4.306-2.608 2.998-1.062 5.913-2.306 8.854-3.494-1.012 1.207-2.136 2.389-2.99 3.721-1.075 1.609-1.111 3.885-.545 5.676.791 2.118 2.657 3.123 4.404 4.361-.296 1.71-.54 3.354-1.383 4.9-1.785 3.407-4.626 5.364-7.115 8.532 2.495.2 4.948.25 7.392-.38 4.362-1.093 8.628-2.695 11.827-5.976 1.81-1.684 2.903-3.814 4.443-5.693 1.785-1.345 4.097-1.805 5.719-3.627 2.149-2.307 2.388-5.562 2.935-8.51 3.878.063 7.643-.094 11.395-1.156-1.477 2.614-3.049 4.77-5.33 6.744-1.088.892-1.302 1.878-1.573 3.197 1.917.05 3.78.071 5.659-.369 5.448-1.32 10.62-2.658 15.421-5.687-.465.867-.917 1.733-1.294 2.638.553 1.452 2.84.957 4.078 1.051 7.233-.207 12.344-4.83 17.591-9.172-1.124 3.589-3.493 6.55-4.398 10.176 3.004-.402 5.97-.665 9.006-.715 1.71 4.745 3.663 9.74 2.846 14.881-.54 3.526-1.152 7.586-3.075 10.647-2.488 4.135-4.975 8.163-6.634 12.732-2.49 6.165-3.823 12.714-4.194 19.338-.188 3.82.34 7.474.698 11.264-7.925-7.762-17.755-13.452-28.602-15.903-6.674-1.74-13.554-1.627-20.436-1.426-12.38.786-24.529 4.952-34.691 12.104-9.043 6.316-16.202 14.972-21.123 24.82-7.774 15.567-8.792 34.394-1.44 50.307-2.118 2.992-3.904 6.17-5.626 9.387 45.758 41.759 107.668 67.45 175.884 67.45 69.548 0 132.559-26.672 178.563-69.87l-.91-1.596c-.071.069-.134.142-.205.21-1.666-3.116-3.401-6.153-5.557-8.962 7.604-13.147 8.957-29.143 6.135-43.861-2.42-10.841-7.724-21.6-15.9-29.26-6.77-6.624-15.046-10.824-23.983-13.74 1.634-5.173 2.455-10.633 2.248-16.063-.402-12.902-2.797-25.792-6.322-38.191-4.588-17.176-9.764-33.951-13.573-51.39-2.048-8.542-3.73-17.289-4.691-26.024-.478-5.631-.463-11.35-.35-16.994.151-7.29 1.245-14.668 2.426-21.858 1.534-8.735 3.62-17.233 7.447-25.271 3.463-7.31 7.24-14.55 11.061-21.676 6.593-12.946 13.09-25.19 16.867-39.31 2.1-8.604 3.208-17.52 3.113-26.376-.364-8.44-1.266-16.832-2.818-25.14-2.2-11.822-5.603-23.825-6.584-35.823-1.194-15.648 4.398-31.993 16.276-42.513 3.048-2.816 6.895-4.714 11.093-4.79 2.42.051 4.297 1.15 6.29 2.382-2.728 1.376-5.291 2.545-7.176 5.072-2.458 3.073-3.35 6.964-2.52 10.816.37 1.333 1.355 2.847 2.857 2.973 4.067.396 8.355-.647 12.15-2.049 3.797-1.401 6.843-3.784 9.985-6.248.107 4.091-.653 8.077-2.947 11.527-2.376 3.67-6.584 6.122-10.62 7.555-3.01 1.1-5.945.872-9.05 1.149-1.018.106-1.434 1.294-1.346 2.193.315 5.606 5.124 10.144 10.516 11.017 3.676.466 7.408.145 10.846-1.3-3.124 4.003-5.197 8.409-6.215 13.392-1.333 6.348-4.078 13.299-9.854 16.85-.993.804-2.364 1.185-2.181 2.719.012 1.508 2.15 2.426 3.318 2.96 3.394 1.471 6.713 1.162 10.182.163-.29 3.607-.44 7.142.283 10.718 1.219 6.021 3.14 12.052 6.717 17.118a19.86 19.86 0 0010.218 7.472c1.71.534 3.834 1.107 5.594.623 1.684-.496 3.012-2.019 2.697-3.847-.251-1.458-1.659-2.734-2.595-3.815-1.798-1.885-3.276-4.004-4.137-6.48-2.017-5.669-3.034-11.952-2.211-17.948 2.105-14.372 7.497-28.74 12.223-42.459 3.846-10.985 6.316-21.897 4.644-33.6a44 44 0 00-3.412-10.95c-4.192-9.082-12.643-15.973-22.303-18.461-6.617-1.83-13.54-1.922-20.226-.4-10.187 2.318-19.701 7.791-27.004 15.251-10.206 10.37-16.201 24.066-17.873 38.457-1.358 9.572-.107 18.685 1.414 28.143 2.156 11.696 3.814 23.433 4.28 35.33.395 14.002-1.19 28.189-5.118 41.65-4.204 13.663-11.965 26.685-18.168 39.575-4.053 8.113-7.867 16.22-10.437 24.949-3.495 11.878-5.726 24.166-6.575 36.521-.854 10.609.35 21.632 1.928 32.133 2.162 13.927 5.538 27.582 9.504 41.094 3.903 13.77 8.309 27.69 11.105 41.736 1.458 6.825 1.979 13.783 1.432 20.746-.547 4.312-1.985 8.948-5.348 11.908-4.77 4.155-12.514 3.761-17.183-.35-2.395-2.33-3.078-6.466-3.26-9.671-.446-12.927 1.106-26.446-1.408-39.104-.987-6.554-3.187-12.707-5.594-18.853-2.23-5.562-5.429-10.885-8.527-16.014-8.076-11.966-19.848-21.952-27.697-33.886-3.658-5.807-4.317-13.656-3.676-20.33 2.62-2.307 5.115-4.55 7.277-7.31 3.878-4.889 5.82-10.743 6.6-16.87 5.147 3.727 11.57 5.506 17.691 3.074-.302-3.444-2.572-5.203-4.162-8.094-4.663-7.535-6.359-16.333-5.498-25.113 2.382 1.854 4.644 3.708 7.447 4.908 5.053 2.476 11.683 3.154 16.83.627 2.08-.955 4.495-2.122 5.903-3.982-.013-1.062-.926-1.892-1.598-2.627-3.532-3.47-7.503-7.03-10.03-11.334-2.563-4.318-4.639-8.91-5.87-13.787 3.418 2.01 6.857 3.758 10.836 4.355 3.883.817 7.935.304 11.398-1.676.804-.54 1.584-1 1.553-2.093-.183-1.471-1.156-2.892-1.797-4.205-3.827-6.85-6.034-14.53-7.994-22.09-.842-3.168-1.231-6.374-1.715-9.604 2.765 1.571 5.295 3.067 8.576 3.2 3.702.094 7.235-.013 10-2.803-1.848-2.583-3.744-4.809-4.725-7.9-1.816-5.45-1.032-10.534-1.586-16.19-.163-3.337-.581-6.566-1.656-9.746 4.085.521 6.703-.038 10.317-1.873.012-.453.02-.9.033-1.352-2.4-2.187-4.809-4.073-6.11-7.152-1.753-4.104-1.374-8.273-1.462-12.584-.013-2.652-.874-5.02-1.786-7.465 2.005-.98 3.888-1.887 5.315-3.678 1.898-2.37 3.275-5.24 4.406-8.049.534-1.2.015-2.174-.35-3.324-1.558.553-3.208 1.37-4.867 1.553-2.18.27-4.429-1.164-5.767-2.78-1.54-1.84-1.415-4.781-1.873-7.05-.497-3.557-1.88-6.75-3.942-9.678 2.062-1.08 4.023-2.087 5.65-3.803 1.798-1.772 2.89-3.92 3.94-6.183-2.954-.113-5.762.476-8.232-1.516-2.79-2.174-2.631-6.379-3.782-9.47-1.426-4.186-4.487-7.058-8.195-9.27.616-4.959.79-9.923-.039-14.87-.943-7.025-3.853-14.329-8.975-19.357-1.093 2.1-2.106 4.11-3.847 5.776-2.005 2.03-4.403 3.136-6.942 4.33-2.67 1.238-5.149 2.784-7.625 4.361-.326-2.803-.79-5.524-2.029-8.088-2.118-4.405-5.568-7.54-9.553-10.23m-90.92 100.71c.936.41 1.68 2.039 2.636 2.397.987.095 2.154-1.38 3.115-1.574.962 2.005 2.066 3.715 3.606 5.324-4.198-.125-8.39-.068-12.588-.332.899-1.992 1.798-4.143 3.23-5.814m15.58.723c.741.478 1.45 1.025 2.23 1.44 1 .082 2.061-.398 3.035-.612.27 2.175.78 4.2 1.502 6.262-3.475-.647-6.977-1.038-10.496-1.334 1.552-1.747 2.679-3.682 3.729-5.756m16.539 4.166c.119 1.276.182 2.61.484 3.854.383 1.232 1.54 1.482 2.652 1.746 1.326-1.012 2.27-2.268 3.319-3.537 1.219 1.785 2.042 3.58 2.709 5.629-3.91-1.163-7.672-2.602-11.72-3.268.856-1.477 1.72-2.94 2.556-4.424m-29.881 5.3c8.082.005 16.243.608 24.199 2.06 4.286.741 8.858 1.401 12.918 2.972 1.093.547 2.256.775 2.25 2.233.364 3.972-.027 8.144-.473 12.097-.553.371-1.099.736-1.652 1.1-2.413-2.463-3.148-5.928-5.518-8.348-1.162-.088-2.314.01-3.476.079-.66-2.766-.62-5.213-3.41-6.752-2.615 2.268-3.872 4.099-5.041 7.367q-1.265-.492-2.528-.975c-.2-3.645-.56-7.208-3.457-9.785-1.03-.81-1.558-.816-2.695-.182-2.746 1.484-3.47 5.046-4.33 7.78-.918-.095-1.83-.188-2.748-.276-1.037-3.35-1.79-6.574-4.04-9.37"/>
<path d="m312.405 30.957c-.295.616-.59 1.225-.885 1.84a25.6 25.6 0 01-5.6 7.624c-3.532 3.4-7.799 5.689-11.362 9.05 5.115.573 10.043 1.552 14.612 4.028 2.218-2.94 4.656-5.637 7.201-8.295-.031-2.476.176-5.204-.502-7.58-.666-2.52-1.993-4.556-3.464-6.667m27.61 4.048c-2.716 2.218-5.431 4.304-8.68 5.705-4.764 2.05-9.125 4.865-12.676 8.673-3.488 3.52-6.65 7.328-9.226 11.57-1.213 1.987-2.243 4.067-3.556 5.99-.937-.377-2.835-.453-2.79-1.83-.064-2.871 2.173-5.881 3.5-8.332-9.893-3.752-19.621-3.602-30.022-3.3-6.342.396-12.759 1.483-18.974 2.784-4.028.874-8.082 2.426-11.501 4.758-3.08 2.036-3.683 7.233-.823 9.678 1.659 1.414 3.815 2.162 5.97 1.465 2.32-.76 4.475-1.917 6.838-2.584 4.487-1.219 8.767-2.489 13.456-1.533 3.224.773 6.36 2.338 8.722 4.695 1.17 1.144 2.093 2.514 3.269 3.632 1.04.97 2.417 1.614 3.637 2.35v3.416c-1.516.387-3.125.376-4.636.92-4.167 1.622-6.675 5.135-10.647 6.895-3.526 1.59-7.334 2.545-11.086 1.08-5.882-2.029-9.043-8.54-9.087-14.46-2.357.164-4.482.453-6.732-.503-2.23-.867-3.481-2.589-4.958-4.355-2.464-.012-5.028-.075-7.466.227a123 123 0 00-31.926 8.993c-2.507 1.181-5.574 2.438-7.403 4.58-.07.786.062 1.402.496 2.069 1.559 2.582 4.726 3.846 6.379 6.14.415 1.477.201 3.168.258 4.689 0 4.726.786 9.614 3.601 13.53 2.501 3.544 7.548 4.6 11.608 4.003 8.23-1.292 17.018-2.546 24.868 1.075 4.236 2.111 7.209 5.474 11.64 7.31 3.148 1.482 6.8 1.922 9.169 4.493 2.507 2.658 2.966 6.328 3.192 9.81.49 5.285.61 10.49-.12 15.762-.15 1.025-.873 1.973-1.307 2.91-.867 1.394.013 3.739-1.143 4.94-1.244 1.59-3.608 1.451-5.424 1.357-3.092-.302-5.122-2.495-7.051-4.689-2.627-3.048-5.487-6.165-9.27-7.755-9.283-3.62-19.778-4.657-29.532-2.539-2.212.434-4.217 1.364-6.171 2.445.019.779.012 1.578.106 2.344.296 1.886 2.765 3.312 2.784 5.23-1.854 3.104-4.933 4.876-5.354 8.891-.308 2.847.855 5.412 3.915 5.79 3.363.005 5.663-3.08 8.315-4.69 1.848-1.087 4.569-1.941 6.435-.464 1.2 1.074 1.685 3.028 2.012 4.556 1.602 7.082-2.282 15.491-9.069 18.376-2.652 1.162-5.393 1.326-8.246 1.458 2.15 3.47 5.525 5.8 9.629 6.203 4.864.56 9.747-2.262 12.902-5.781 2.62-2.916 3.362-6.267 4.456-9.893.515-.29 1.03-.585 1.545-.874 1.967.886 3.816 1.616 5.318 3.237 3.268 3.651 4.713 8.843 3.4 13.613-.635 2.608-1.98 4.763-3.237 7.095 5.166.515 9.39-3.243 12.243-7.108 2.099-2.746 2.57-5.788 3.28-9.062l1.71-.887c2.821 1.936 5.266 4.249 6.768 7.379 1.433 2.771 1.665 5.694 1.791 8.755 3.444-3.004 6.894-6.36 6.85-11.294.346-4.43-2.325-7.793-2.507-11.991.54-.679 1.169-1.49 2.136-1.433 1.578.735 2.068 2.212 2.897 3.626 1.666 3.305 4.657 6.009 8.151 7.24 2.772.968 6.097.478 8.956.138-1.91-2.432-3.739-4.607-4.405-7.736-.679-3.143 1.03-6.813.86-9.968-.263-2.551-.985-5.021-2.443-7.152-.654-1.106-1.641-2.25-1.905-3.52-.12-1.338 1.03-2.362 2.37-2.142 2.96.779 4.304 4.273 7.095 5.662 2.105 1.119 5.229 1.125 7.051-.578 2.942-2.42 3.808-5.568 5.06-8.993-3.37-.032-6.506-.534-9.032-2.947-4.261-3.853-4.877-9.799-4.173-15.191.364-.874 1.785-1.57 2.627-.848 2.043 1.464 3.017 3.991 5.436 5.26 1.666 1.069 3.89.17 5.16-1.113 1.64-1.766 2.218-4.637 2.885-6.893-2.634-.019-5.412.214-7.882-.867-4.757-1.904-8.741-6.116-11.582-10.282.346-.572.698-1.145 1.043-1.716 2.627.559 5.129 1.225 7.844.66 1.533-.478 2.865-1.64 4.103-2.633-4.89-2.005-8.076-6.09-10.294-10.728-.396-1.175-1.27-2.552-.145-3.577.786-1.08 2.2-.621 2.917.347 2.463 3.136 4.16 7.943 8.144 9.54 1.647.867 5.123-.811 5.965 1.087.484 1.716-1.044 3.406-1.967 4.732-2.074 2.79-4.657 4.481-7.956 5.537-.113.214-.227.434-.334.647 2.106 1.32 4.443 2.834 6.945 3.205 2.708.283 4.89-1.244 7.31-1.816 1.357-.076 2.073 1.27 1.815 2.489-1.212 5.411-2.407 10.47-6.423 14.548.277 1.006 1.075 2.005.547 3.024-.83 1.3-2.023 1.3-3.406 1.552-.364-1.037-.736-2.08-1.1-3.117-2.64.018-4.588-.359-7.008-1.37 1.213 2.696 2.545 5.09 5.537 6.065 3.538.766 5.851-1.729 9.12-2.753.257.823.471 1.66.628 2.508-.911 2.005-2.049 3.808-2.501 6.008-1.213 4.826-3.294 9.671-7.881 12.16-2.948 1.678-5.833 1.232-9.025.824.402 3.651-.679 7-.836 10.583.013 3.601 2.821 5.725 5.455 7.655 1.194.748 1.52 1.702 1.936 2.99-4.488 3.118-10.225 4.828-15.649 3.57-2.394-.452-4.575-1.458-6.636-2.74-.572 5.876-3.702 10.86-8.158 14.594-2.608 2.048-5.097 3.946-8.553 4.084l-.868-1.828c.678-2.093 1.333-4.117 1.195-6.354-.032-2.771-1.132-5.015-2.245-7.472-1.954 3.43-3.726 6.768-6.793 9.376-2.721 2.495-6.304 4.67-10.062 4.864-3.306.12-6.624-1.71-8.785-4.142 2.205-2.997 5.649-6.26 5.957-10.156.314-3.217-1.1-5.687-2.803-8.25a174 174 0 01-2.124 4.844c1.03 4.091-.691 7.63-3.06 10.841-6.662 8.296-17.428 13.43-28.105 12.96 1.018 2.08 2.13 3.57 4.442 4.273 3.815 1.458 6.864.095 10.679-.125.289.647.578 1.288.873 1.935-3.6 5.367-10.358 8.51-16.674 8.968-9.697.78-18.866-4.6-24.359-12.361-2.47-3.526-4.236-7.392-5.725-11.408-2.357 3.312-4.06 6.82-3.997 10.98.779 6.844 4.851 13.336 9.427 18.326 2.878 3.01 5.902 4.475 10.112 4.65 1.785.02 2.338 2.081 1.25 3.269-5.498 5.461-12.89 8.785-20.676 8.86-4.299.334-8.226-.778-12.305-1.934 1.873 3.123 3.695 6.064 6.548 8.402 4.582 3.827 10.483 6.636 16.46 7.164 4.638.471 8.843-1.056 12.821-3.293 2.218-1.3 3.249-3.337 5.895-3.884.364.578.722 1.157 1.093 1.735-.528 3.865-1.578 7.887-3.5 11.306-2.93 5.009-7.234 8.654-11.979 11.871-2.821 1.71-5.85 3.187-9.024 4.117-4.192 1.17-8.259.855-12.557.817 2.457 3.777 5.895 6.744 10.156 8.283 7.02 2.646 14.97 1.565 21.864-.942 9.779-3.557 16.862-10.596 26.358-15.09.603.503 1.263.974 1.797 1.546.113.955-.327 1.88-.679 2.74-3.456 7.12-5.983 14.147-11.4 20.124 2.903.27 5.719.445 8.628.08 7.052-1.105 13.198-4.763 18.207-9.753 4.418-4.55 7.68-10.444 12.394-14.661 2.439-2.194 5.229-3.652 8.158-5.072.66.49 1.312.993 1.928 1.546-.572 3.06-2.268 5.625-2.406 8.849-.214 4.625 2.23 9.383 3.192 13.926.553 2.206.39 4.299.327 6.542 5.493-1.917 10.652-2.985 15.328-6.768 4.927-3.639 7.894-9.175 9.854-14.85 1.873-5.487 1.207-10.558 1.332-16.24 2.609-1.169 4.677.056 6.883 1.42 3.614 2.388 5.9 6.348 7.327 10.345 1.427 3.82 1.012 7.925 1.025 11.96-.006 3.45-1.3 6.247-2.3 9.452 6.655-3.765 12.223-9 15.428-16.039 1.967-4.581 2.295-9.276 2.3-14.21-.125-1.438.73-2.092 1.597-3.079 3.067 2.143 5.172 5.028 8.39 6.769 1.583.88 3.268 1.288 5.002 1.753-4.185-7.108-7.076-14.65-7.302-22.995 0-3.608.327-7.36 1.414-10.823.39-1.47 1.49-2.01 2.633-2.846 3.834 2.796 6.668 6.215 11.15 8.182 4.267 2.093 9.106 1.91 13.41.05-6.347-5.976-11.412-13.084-14.102-21.437-1.2-3.846-2.483-8.094-1.836-12.148.12-1.15 1.27-1.69 2.012-2.432 2.759 2.017 4.901 4.418 7.773 6.027 4.148 2.25 8.768 3.495 13.469 2.445-2.778-4.845-4.614-10.427-6.467-15.693-2.37-8.24-4.89-16.887-4.475-25.522.107-1.552 1.66-2.004 2.866-1.175 2.803 1.91 5.173 4.129 8.415 5.36 1.735.768 3.432.667 5.286.736-1.748-3.3-2.967-6.806-3.326-10.533-1.074-7.523.692-15.322-2.96-22.374-1.526-3.136-4.23-4.455-4.726-7.773.641-.365 1.283-.723 1.918-1.087 3.808 2.136 6.108 5.203 10.797 5.48-1.917-2.728-3.37-5.543-3.853-8.893-1.125-4.751.434-9.484-1.257-13.877-.848-2.35-2.476-4.022-3.595-6.184-.2-.842.132-1.533 1.006-2.061 1.665.063 3.645.861 5.273.44 2.193-.786 3.11-2.715 4.191-4.607-4.487-.465-8.207-3.626-9.942-7.692-1.244-3.733-.672-7.58-2.633-11.262-1.295-2.853-3.734-4.393-5.53-6.8q.017-1.33 1.043-2.188c1.665-.232 3.262.196 4.89-.087 1.407-.421 2.689-1.396 3.933-2.163-2.011-.961-3.934-1.646-5.316-3.493-2.916-3.784-2.168-8.227-4.707-12.262-.956-1.558-2.313-2.482-3.733-3.576-1.031 4.959-3.086 9.51-5.506 13.927-1.068 1.741-2.275 3.74-3.979 4.927-1.615.792-3.625-.653-2.777-2.463 1.936-3.193 4.041-6.166 5.267-9.748 2.18-5.625 3.745-11.387 3.626-17.484.383-6.931-1.138-13.87-4.293-20.047m105.21 3.313q-1.377 0-2.752.111c-9.446.83-18.414 5.085-25.792 10.917-8.95 7.208-15.122 17.572-18.415 28.494-2.124 7.315-2.902 14.851-2.613 22.462.697 13.242 4.021 25.76 5.19 38.958.804 8.893 1.445 17.478.616 26.402-.251 6.963-1.395 13.782-2.771 20.601-2.74 14.417-9.226 26.345-15.806 39.216-4.563 9.326-9.478 18.05-12.972 27.854-2.483 6.806-4.21 13.907-5.53 21.022-1.119 5.574-2.13 11.319-2.533 16.994-.245 4.814-.264 9.64-.213 14.46.069 7.335 1.3 14.178 2.212 21.443 1.973 11.683 4.663 23.26 7.969 34.635 3.073 11.331 6.686 22.55 9.602 33.93 2.005 8.743 4.463 17.919 4.4 26.887-.006 4.92.27 10.263-1.339 14.938-.754 2.395-1.93 4.581-3.28 6.68 4.003.013 7.925.516 11.834 1.358 1.307-3.99 2.193-8.063 2.15-12.286.131-6.982-.674-13.914-1.974-20.764-2.093-12.576-6.065-25.252-9.314-37.608-3.325-12.054-6.568-24.24-9.176-36.47-1.81-7.88-3.192-15.85-3.953-23.9-1.2-15.818.453-31.48 3.777-46.946 2.671-12.286 8.214-22.952 14.034-33.925 6.102-11.646 12.506-23.593 17.182-35.905 4.556-13.147 6.549-27.092 5.254-40.975-.729-9.697-2.608-19.344-4.67-28.84-2.25-9.433-4.198-18.634-4.48-28.388-.24-11.809 3.01-23.598 9.735-33.346 2.664-4.223 5.958-7.913 10.049-10.798 4.374-3.425 10.319-5.485 15.824-3.927 3.406.792 6.247 3.035 8.402 5.706.956 1.08.754 2.231.868 3.557-2.91.767-5.625 1-8.007 3.023-1.942 1.66-3.915 4.18-3.613 6.888.125.792.006 1.52.785 1.98 5.229-1.069 10.093-2.15 14.46-5.399 1.899-1.3 3.232-3.085 4.891-4.625 1.22-1.2 3.105-.49 3.77.943 1.214 2.507 1.383 5.624 1.226 8.364-.471 4.513-1.98 9.227-5.185 12.557-4.7 4.884-11.042 7.693-17.773 8.302.899 1.678 1.785 3.123 3.614 3.896 4.826 2.275 10.35.384 14.404-2.601 1.936-1.364 3.161-3.532 5.072-4.877 1.458-.446 2.225.535 3.343 1.239-.194 1.621-.213 3.393-1.011 4.851-.704 1.295-1.71 2.495-2.634 3.645-2.64 3.249-5.21 6.85-6.888 10.696-1.98 4.575-2.117 9.396-4.392 13.89-1.634 3.6-3.847 6.667-6.48 9.596 1.508-.088 2.922-.069 4.368-.565 2.897-.855 3.846-3.558 7.126-3.344.308.59.61 1.176.918 1.767-1.181 3.733-2.224 7.365-1.835 11.343.528 5.637 2.074 11.362 4.694 16.396 2.037 4.003 5.172 7.19 9.452 8.724-4.418-5.656-6.473-12.374-6.737-19.495-.597-7.975 1.37-15.053 3.224-22.695 1.276-5.323 3.105-10.432 4.79-15.63 3.123-9.364 7-18.627 8.792-28.443 1.093-6.87 1.426-13.903-.842-20.577-2.15-6.75-6.48-13.668-12.752-17.263-5.504-3.294-11.875-5.13-18.295-5.133m-111.281 14.245c.503.151 1.012.308 1.515.472-.138 1.106.276 2.156-.855 2.803-2.3 1.697-4.7 3.224-6.844 5.128-3.507 2.898-6.385 6.712-7.8 11.06-.829 2.734-1.105 5.864.31 8.46 1.017 1.414 2.69 2.357 3.877 3.646.056 1.125.188 2.06-.962 2.664-2.923.377-6.027-1.835-7.309-4.387-1.93-3.576-1.426-7.849-.402-11.62 1.514-5.863 6.203-10.74 10.916-14.298 2.401-1.722 4.55-3.444 7.554-3.928m-237.52 11.418c-2.072.109-4.033.703-5.387 2.27-1.917 1.54.408 4.054-.214 6.04-1.816 1.753-5.009 2.715-6.347 4.896-1.257 1.91-.824 4.789 1.414 5.769 1.42 0 2.778-.647 4.255-.534 1.288 1.012.866 2.3.439 3.645-1.037 2.796-1.91 5.555-1.778 8.584-.019 3.633 1.464 6.455 2.746 9.736 1.282 3.242 2.697 6.51 3.633 9.873 1.138 4.148 1.263 8.177 1.822 12.406.176 1.565.176 3.136.176 4.707-1.22.195-2.168 1.131-3.23.113-1.942-1.558-3.431-3.795-4.933-5.763a96 96 0 01-8.114-12.645c-1.936-3.651-4.311-6.982-6.473-10.514-1.207-1.986-2.91-3.96-3.64-6.172-.232-2.438.956-4.964 1.025-7.44.032-1.571-.584-3.13-1.923-4.029-2.666.218-5.032 1.203-7.354 2.302-2.313 1.094-6.187 3.9-6.419 4.21-2.947 3.988-5.81 5.535-3.026 10.344.767.207 1.52.42 2.281.634 1.64-.616 3.287-1.37 5.003-1.735 1.144.044 2.062 1.107 2.634 2.012 2.432 3.909 3.456 8.597 5.674 12.569 3.073 4.7 8.875 7.53 11.941 12.513 1.999 3.305 4.35 6.617 5.688 10.25.534 1.012-.503 2.149-1.49 2.319-2.444.534-5.009.453-7.479.924-3.11.415-6.315 1.389-9.451 1.3-2.357-.339-4.826-1.356-6.794-2.701-2.576-1.766-3.149-5.94-5.706-7.63-1.502-.867-3.212.597-4.136 1.69-2.206 2.715-2.312 5.851-1.81 9.17 1.572.829 3.036 1.527 3.89 3.192 2.081 3.45.755 7.975 2.565 11.281 1.037 2.068 3.16 2.577 5.134 3.394 1.822-.785 3.532-1.42 4.946-2.891 1.66-1.647 2.62-3.539 4.996-4.28 5.135-1.942 10.401-.584 15.693.27 1.615.246 2.175 2.011 2.76 3.293 1.545 3.878 3.041 8.535 2.52 12.733-.371 2.652-2.056 4.23-3.96 5.914 2.137-.081 4.268.056 6.203-1.037 2.187-1.314 3.387-3.45 5.254-4.965 1.653-.842 2.664 1.043 3.393 2.212 4.035 6.756 3.099 15.21.54 22.317 2.314-.565 4.494-1.187 6.342-2.752 2.501-1.867 3.293-4.632 6.863-4.582.93 3.324-1.132 5.436-1.351 8.635-.189 2.35-.22 5.078.868 7.233 1.125 2.42 3.223 4.45 5.014 6.405 1.584-2.37 2.52-5.788 5.851-5.983.334.572.666 1.15 1.006 1.721-.666 4.098-1.57 7.831-1.068 12.035.459 3.407 2.224 6.738 3.267 10.076q.328.33.667.659c.747-3.187.849-6.128 2.376-9.056 3.06 5.273 5.95 10.816 7.76 16.66 1.238 3.709.774 7.127 1.302 11.112 2.206-1.584 4.249-3.049 5.55-5.519 2.023-3.613 1.916-8.056 1.972-12.06-.025-1.018.365-1.583 1.012-2.337 1.722.138 2.124 1.451 2.546 2.872.71 3.236 1.256 6.322.282 9.571-.509 2.105-1.91 3.708-2.589 5.7 5.179 3.821 11.658 5.33 18.043 4.79 4.362-.089 8.277-1.673 11.947-3.922-.823-.792-2.13-1.069-3.054-1.773-3.06-1.59-5.24-4.355-7.353-7-3.984-5.324-7.284-11.131-7.46-17.956-.1-7.177 3.651-14.02 10.118-17.301.528.32 1.057.647 1.578.968 1.917 6.925 5.147 13.417 10.332 18.47 3.815 3.242 8.95 5.945 14.059 5.926 2.67.157 5.16-.188 7.717-.93-3.023-.923-5.486-2.784-8.39-3.959-3.035-1.364-5.506-3.614-7.787-5.99-4.28-4.556-8.107-9.483-12.21-14.171-5.757-6.392-10.773-13.267-17.089-18.779-5.562-4.952-12.864-8.095-18.394-13.04-4.173-3.803-5.575-9.063-9.918-12.677-4.512-4.23-10.545-8.226-13.14-13.895-2.037-3.871-.887-8.05-3.118-11.897-2.118-4.424-5.72-6.517-9.006-9.91-2.891-2.866-5.901-6.185-7.61-9.918-1.547-3.419-.108-7.755.364-11.337.955-5.254 1.068-10.238.264-15.517-.019-1.665-.855-3.802 1.03-4.726 2.52-1.452 4.796-2.551 5.92-5.455 1.924-4.317-.829-9.42-5.423-10.3-1.797-.371-3.98-.747-6.052-.637m95.048 205.68c-2.608 1.024-5.16 1.96-7.938 2.412-2.551.39-5.298.195-7.862.013-1.615 4.506-3.362 8.886-4.38 13.574 8.44-2.13 16.283-8.169 20.18-16m99.881 6.674c-.088 3.588-.345 7.114-1.332 10.583-.37 1.477-.98 2.928-1.187 4.436.289 1.923 1.055 3.765 1.394 5.694.81 3.513.239 7.046-.622 10.49-1.666 5.976-4.895 11.01-6.825 16.767-1.156 3.558-1.753 7.31-1.866 11.042.113 4.003 1.2 7.975 1.514 11.935.025 5.63-1.602 11.155-6.29 14.643-3.325 2.539-6.996 3.016-10.955 3.827-.49 4.085-1.596 8.013-3.87 11.482-3.074 4.783-8.015 8.265-13.627 9.327-4.236.647-8.27-.12-12.298-1.427-.83-.301-1.616-.603-2.156-1.345.603-2.08 1.74-3.984 2.501-6.02-1.684 2.243-2.96 4.726-4.688 6.938-2.527 3.356-5.525 6.297-9.138 8.465-3.457 2.137-7.164 3.337-11.067 4.387 2.501 5.543 3.35 10.778 3.01 16.855 4.211-4.5 9.263-7.9 14.624-10.872 9.094-5.022 19.545-7.693 29.871-8.403 3.343-.446 6.656-.402 10.006.013 15.322.893 30.638 7.12 41.22 18.426 5.286 5.373 9.17 12.375 11.979 19.32a66.6 66.6 0 014.802 25c-.02 5.492-1.458 10.262-2.457 15.617 4.173-6.913 10.255-12.814 16.798-17.49 4.732-3.431 10.169-5.99 15.605-8.101-5.493-3.664-6.775-9.578-7.064-15.788-.069-9.628.189-19.275-.069-28.896-.817-14.134-5.713-28.086-13.148-40.083-5.254-8.63-12.487-15.725-19.174-23.461-3.64-4.204-7.592-8.723-10.288-13.6-2.935-5.618-3.972-12.4-3.878-18.678-2.696 1.678-5.392 3.526-8.29 4.833-1.357.56-2.727.654-3.607-.729-.232-1.584.522-2.753 1.207-4.098 2.143-3.745 4.123-7.969 4.776-12.268.396-4.198.22-8.754-1.225-12.75-.873-2.427-2.489-4.205-4.186-6.071m-39.518 9.539c-2.444 2.514-4.732 5.154-6.68 8.076-5.883 8.598-14.184 15.297-24.56 17.44-1.433 2.382-2.665 4.833-3.155 7.598-.685 3.123-.202 6.348-.748 9.44-.27 1.628-1.816 2.802-3.136 3.607-2.633 1.508-5.417 2.784-8.22 3.953-9.898 4.116-20.3 5.179-30.846 8.214-8.233 2.634-16.364 6.43-24.849 8.114-3.456.792-6.875.195-10.332.484-3.846.905-5.179 5.253-8.183 7.447-4.21 2.979-9.288 3.488-14.285 2.796-5.392-1.32-10.664-3.94-15.717-6.203-3.155-1.389-6.316-2.834-9.345-4.493-1.018-.616-2.326-1.32-2.766-2.488-.597-2.79.333-5.908-.037-8.742-2.106-11.417-21.31 7.324-21.12 7.896.007.02-.015.023-.049.018-1.817 2.295-4.671 4.987-4.724 7.068-.377 2.332 1.432 4.349 3.689 4.575 3.444-.547 6.184-2.614 9.942-2.325 2.878.176 4.575 1.916 6.568 3.745 2.664 2.57 5.75 4.701 8.647 7.046 1.835 1.502 4.117 2.784 5.593 4.638.145.873-.125 1.633-.383 2.45-6.441 1.043-12.795 2.465-19.149 3.948-3.89.76-8.013 1.677-11.99 1.457-3.143-.069-5.356-3.023-8.266-3.84-3.211-.704-6.523 2.062-7.824 4.802-1.1 2.03-.182 3.696.277 5.738 2.86-.182 5.404-.37 7.704 1.672 2.847 2.357 2.647 5.448 4.004 8.528 1.917 2.388 5.851 1.433 7.064-1.232 1.087-1.917 1.169-5.021 3.507-5.794 2.62-.912 5.92.075 8.685-.126 4.928-.352 9.829-1.464 14.586-2.765 5.663-1.376 10.508-4.575 16.246-5.763l1.572.792-.189 1.992c-2.834 1.037-5.706 2.218-8.296 3.777-2.696 1.603-4.794 4.116-6.586 6.649-1.684 2.42-2.445 4.871-4.38 6.958-3.665 3.84-8.523 6.454-13.739 7.428-2.947.446-5.831-1.622-8.716-1.245-2.916.402-5.713 2.59-6.48 5.487-.679 3.004 1.716 5.926 4.4 6.92 2.017.018 3.644-.817 5.605.119 2.778 1.043 3.809 3.651 6.065 5.11 2.727 1.15 6.348 1.005 8.717-.912 2.049-1.552 3.205-3.953 3.444-6.486.251-2.074.1-4.569 1.388-6.316 1.452-2.112 4.186-3.52 6.241-5.015 3.243-2.389 6.537-4.223 8.623-7.774 2.112-3.11 3.6-7.423 6.53-9.817 3.355-2.05 7.372-3.08 10.935-4.77 2.696-1.131 4.625-2.797 7.573-3.117.679 2.3 1.05 4.6.603 6.995-.515 2.256-2.331 3.996-3.645 5.9.296.73.597 1.46.892 2.194 3.708 1.66 7.662 2.526 11.728 1.967 1.804-.358 4.003-.93 5.342-2.275 2.225-2.64.76-6.97 3.406-9.05 1.716-1.476 3.362-.836 5.392-.748 3.922.377 8.064-.892 10.96-3.6.78-.553 1.49-1.51 2.552-1.214.961.39 1.333 1.138 1.289 2.156.17 3.74-1.855 7.126-3.784 10.162 6.002-1.44 11.47-4.041 14.77-9.496 1.024-1.747 1.576-1.577 3.43-1.653.434 3.507-.496 6.549-1.665 9.786 4.952-1.037 8.603-4.004 12.273-7.278 2.59-2.37 4.45-5.317 7.153-7.58q.885.522 1.772 1.031c.433 5.06-1.056 9.553-2.86 14.173 7.56-.76 14.625-2.992 20.093-8.491 4.355-4.713 8.333-10.514 9.854-16.818.804-2.985.886-6.329 1.213-9.408 1.094.182 2.237-.113 2.771 1.08 2.357 3.998 2.551 9.34 2.426 13.858 0 2.52-.766 4.809-1.678 7.121 3.111.805 6.115 1.3 9.276.408 5.173-1.628 9.352-5.806 10.88-11.029 1.784-4.807 1.287-9.792 3.468-14.342.924-1.879 1.942-3.802 3.287-5.417.71-.962 1.753-.88 2.828-1.062.735 4.205-2.237 6.605-2.853 10.879 2.796-.484 5.38-.943 7.598-2.86 3.482-2.916 4.644-7.63 4.01-12.003-.597-3.997-1.497-7.844-1.32-11.928-.082-4.896 1.357-9.27 2.916-13.833 1.829-5.21 4.751-9.188 6.014-14.53.748-2.69.686-5.412.453-8.17-1.558 2.092-3.005 4.192-4.921 5.995-3.746 3.74-8.736 6.21-13.745 7.768-2.143.704-4.487 1.263-6.504 2.262-2.011.987-3.5 2.878-5.247 4.091-1.433.987-3.483-.025-3.32-1.803 1.107-2.784 2.848-5.085 3.37-8.133 1.024-4.204-1.207-8.258-2.238-12.255-1.03-3.155-1.238-6.316-1.094-9.609m-37.638 5.047c-3.539 2.18-6.643 4.927-10.32 6.919-5.486 3.054-11.538 5.763-17.766 6.781-5.845.635-11.727.327-17.295-1.665-.139 7.925 1.74 16.025 3.96 23.598 1.281 4.261 3.034 8.334 5.045 12.293 10.093-2.306 21.18-3.921 30.412-8.836 1.2-.691 2.935-1.344 3.733-2.482.427-2.061.314-4.23.616-6.316.327-3.205 1.3-6.203 2.375-9.22-3.947-.031-8.955-.314-12.311-2.64-.968-.514-.453-1.878.289-2.387 5.034-4.355 8.478-10.075 11.262-16.045" fill="#fcdb00"/>
<path d="m84.795 53.295c-.763-.004-1.53.029-2.268.01 1.427 1.194 2.953 2.3 4.116 3.757 1.25 1.56 2.055 3.503 2.878 5.319a27.6 27.6 0 015.034-2.3c-1.779-3.005-4.122-5.456-7.516-6.575-.723-.167-1.481-.207-2.244-.211m184.492 19.24c1.967 1.986 3.601 4.117 3.23 7.096-.628 4.022-5.355 6.373-9.025 4.783-2.696-1.043-4.82-4.292-3.996-7.19.51-1.79 1.652-2.973 2.809-4.349-2.024.76-4.01.893-5.041 3.074-1.106 1.823-.464 3.764.246 5.58.999 2.627 3.028 4.927 5.812 5.662 2.395.46 4.638-.432 6.668-1.627 3.381-2.143 6.562-4.222 8.479-7.886-2.508-2.828-5.267-4.898-9.182-5.143m-2.89.565a3.514 3.514 0 00-3.514 3.513 3.514 3.514 0 003.513 3.514 3.514 3.514 0 003.514-3.514 3.514 3.514 0 00-3.514-3.513m-213.716 4.168c-1.416.007-2.862.432-4.285.71l7.724 7.083a45 45 0 014.606-3.393c-1.836-2.269-4.087-3.635-6.643-4.248a5.8 5.8 0 00-1.402-.152m104.924 27.166c-1.6.056-3.195.544-4.784.832 3.218 1.395 6.001 3.514 7.918 6.48 1.974 3.048 2.345 6.46 3.948 9.842 1.854 3.84 4.55 7.188 8.32 9.281 4.958 2.684 10.56 4.03 16.203 3.797 4.456-.013 8.578-1.131 12.965-1.76-4.267-.433-8.341-.69-12.451-2.086-5.82-1.91-11.085-4.99-14.68-10.056-3.67-4.689-5.173-9.584-9.365-13.31-1.83-1.685-4.078-2.44-6.473-2.911a7.2 7.2 0 00-1.601-.11m69.474 14.418q-.392.001-.785.007c.27 3.136 1.244 5.287 3.117 7.776 1.829-2.338 2.703-4.682 3.143-7.598a65 65 0 00-5.475-.185m-3.355.43c-1.238.106-2.475.226-3.713.345.39.81-.123 4.529 1.361 4.998 1.873-.856 2.352-5.344 2.352-5.344m12.21.759c.038 1.74.285 2.257 1.454 3.514l1.89-1.59-.093-.986c-1.1-.334-2.144-.693-3.25-.938m-18.953.164c-2.275.025-4.55.043-6.832.012-.062 2.954.723 4.853 2.319 7.28 1.439-2.47 2.955-4.891 4.513-7.292m25.887 3.4c-.345 3.25.388 5.857 1.608 8.811 1.728-1.496 2.691-3.073 3.615-5.135a39 39 0 01-5.223-3.676m10.004 5.541c-.237.007-.442.058-.592.172.139.597.598 3.321 1.145 3.604.412-.647 1.952-2.201 2.078-2.805-.54-.432-1.785-.994-2.63-.97m-33.478 7.229c-2.143 1.98-2.997 4.223-3.713 6.988 1.973-.075 3.952-.126 5.925-.17-.685-2.287-1.377-4.574-2.212-6.818m13.752 1.766a25 25 0 00-1.842 3.445q-.423 1.204-.836 2.4c1.653.409 3.317.71 5.002.961-.22-1.54-.15-2.942-.664-4.402-.296-.838-1.145-1.682-1.66-2.404m12.656 4.066q-.285.423-.559.856c-.911 1.357-1.609 2.82-2.281 4.31 1.313-.182 2.615-.37 3.89-.728a48 48 0 00-1.05-4.438m-197.313 5.889c-1.91 1.257-3.639 2.633-4.814 4.644-1.552 2.489-2.03 5.205-2.37 8.065 1.415-1.458 2.705-3.119 4.452-4.194 1.477-.86 3.229-1.407 4.838-1.992-.132-2.061-.346-4.109-.78-6.133-.433-.144-.88-.27-1.326-.39m203.451.222-4.767 1.727 4.75 4.695zm3.032 7.61q-.606.61-1.182 1.25c1.068 1.357 2.496 1.99 4.03 2.67.364-.792.753-1.577 1.13-2.356-1.47-.283-2.69-.835-3.978-1.564m-167.39 9.037c-2.22 1.596-4.477 2.997-6.94 4.191 1.734 1.672 3.38 2.458 5.838 1.836 1.828-1.313 1.057-4.11 1.101-6.027m-22.948 172.184c-2.64 0-5.255.5-7.38 1.436 2.546.848 9.138 5.762 9.138 5.762s3.276-4.51 5.771-5.64c-2.225-1.06-4.89-1.558-7.53-1.558m-11.106 55.006c-4.003 1.408-6.516 4.412-7.83 8.377.007 1.125.006 2.25.006 3.381 3.425-3.582 6.63-5.341 11.438-6.535-.629-2.269-1.47-4.041-3.614-5.223m82.586 11.287c-.15.591-.307 1.187-.47 1.778-.547 2.275-1.78 4.123-2.967 6.09 3.664-1.785 6.982-3.79 9.465-7.114-2.018-.213-4.03-.433-6.028-.754m-62.933 22.053c-.755.07-1.51.125-2.264.188-.465 1.527-.974 2.948-.893 4.582.132 1.973 1.064 4.028 1.717 5.888 1.377-2.86 3.004-5.386 5.404-7.504-1.238-1.181-2.506-2.255-3.964-3.154m190.187-24.692c-11.256-.32-22.462 2.495-32.36 7.818-9.823 5.291-17.936 13.512-23.184 23.347-5.241 9.785-8.496 21.537-6.41 32.623.578 4.733 1.696 9.547 3.532 13.953 3.337 6.875 5.493 14.178 9.257 20.864 11.86-12.355 28.313-19.934 45.376-21.172 3.23-.472 6.208-.365 9.439-.038 14.875.39 29.613 6.064 40.78 15.919 2.659-5.292 5.311-10.451 6.87-16.195 2.225-6.505 3.84-13.123 4.129-20.017.138-7.466-1.364-14.976-4.142-21.896-1.823-4.933-4.26-9.703-7.34-13.97-10.282-14.298-28.67-21.626-45.947-21.236m117.538 49.155a43 43 0 00-1.9.003c-14.864-.326-30.01 5.236-40.889 15.423-7.146 6.48-12.65 14.668-16.013 23.706-1.778 4.606-3.261 9.722-3.544 14.65 1.294 2.45 3.079 4.6 4.304 7.107 3.746 7.334 6.58 15.403 7.46 23.624 1.075 7.233.641 14.744.365 22.028 2.149-5.7 5.486-11.03 9.062-15.945 8.189-11.293 20.08-19.777 33.485-23.699 7.806-2.35 15.913-2.733 24.001-2.017 11.627 1.32 22.53 6.441 30.902 14.637 4.054-7.693 5.253-15.863 5.737-24.441.032-10.081-2.117-20.048-7.05-28.897-6.782-12.538-19.175-21.01-32.85-24.416-4.328-.93-8.651-1.671-13.07-1.762zm-228.768 5.487c-2.535-.009-5.07.075-7.543.241-9.767 1.119-19.3 4.557-27.483 10.012-9.961 6.611-17.842 16.088-22.562 27.067-5.128 12.457-5.744 26.616-.805 39.242 5.65-5.48 12.054-10.062 19.464-12.846 11.915-4.6 25.503-5.021 37.79-1.665 13.122 3.6 24.912 12.053 33 22.945a107 107 0 0111.853 19.803c-1.345-11.482-.766-23.436 2.847-34.478 2.024-6.523 5.154-12.751 9.1-18.313-.791-6.543-2.464-13.028-5.028-19.1-3.5-7.327-7.592-14.152-13.744-19.57-8.114-7.352-18.496-11.808-29.35-13.028a97 97 0 00-7.539-.31m111.62 28.304c-3.406.065-6.812.359-10.182.853-10.709 1.993-20.877 6.498-29.361 13.348-9.346 7.586-16.479 17.823-20.168 29.293-1.866 5.417-2.86 11.055-3.312 16.755-.453 6.825.232 13.399 1.056 20.155 1.52 12.097 4.827 24.296 8.252 35.986.874 3.13 1.753 6.272 2.463 9.44 31.267 5.958 63.494 6.02 94.798.3 1.835-.364 3.795-.602 5.542-1.294 1.019-2.074 1.484-4.455 2.17-6.661 5.272-18.244 10.677-38.217 10.407-57.297-.057-12.532-3.27-25.46-10.478-35.836-5.235-8.013-13.008-14.473-21.543-18.728-9.22-4.647-19.43-6.509-29.645-6.314m125.749 36.455c-2.043.03-4.093.159-6.146.37-12.777 1.516-24.932 7.995-33.863 17.183-9.898 10.326-16.34 24.24-20.035 37.934-3.155 10.238-5.499 20.652-7.975 31.06 37.457-9.05 72.4-27.006 101.994-51.629 3.261-2.74 6.504-5.505 9.546-8.484-4.6-10.935-14.474-19.464-25.51-23.505-5.83-2.2-11.884-3.017-18.011-2.93m-254.975.773c-12.965-.056-25.753 4.626-35.149 13.644-4.148 4.035-7.215 8.8-10.012 13.82 8.397 7.366 16.987 14.468 26.232 20.771 26.66 18.182 56.801 31.511 88.312 38.544-3.909-16.812-7.208-32.894-14.787-48.593-5.254-10.08-11.558-19.47-20.69-26.452-9.64-7.51-21.657-11.797-33.906-11.734" fill="#fff"/>
<path d="M514.998 5v364.97c0 134.775-114.165 244.04-255.012 244.04C119.163 614.01 5 504.736 5 369.97V5Z" fill="none" stroke="#000" stroke-width="10"/>
</svg>
