<?xml version="1.0" encoding="UTF-8"?>
<svg width="520" height="619" version="1.1" xmlns="http://www.w3.org/2000/svg">
<path d="M514.998 5v364.97c0 134.775-114.165 244.04-255.012 244.04C119.163 614.01 5 504.736 5 369.97V5Z" fill="#0093dd"/>
<path d="m5 26.848v312.484c2.262 3.686 4.868 7.16 7.928 10.135 4.315 4.432 9.806 8.027 15.052 11.277 4.187 2.449 8.503 4.818 13.026 6.58 1.396.582 2.902 1.072 4.188 1.868 2.626 10.645 3.74 21.277 9.193 31.193 3.042 5.73 7.358 11.392 13.344 14.239 3.716 1.854 7.597 1.965 11.662 1.812 4.18 9.782 12.873 17.497 22.533 21.69.9 4.09 1.561 8.011 3.287 11.85 2.486 5.747 6.141 10.828 10.108 15.646 8.851 10.59 18.479 20.347 27.746 30.392 6.611 6.856 13.027 13.908 19.485 20.911 7.933 9.017 15.713 18.15 23.714 27.106 2.277 2.503 5.223 5.148 8.51 6.17 2.223.637 4.144-.802 5.54-2.375 3.146-3.667 4.677-8.754 5.736-13.375 1.646-6.563 2.22-13.058 3.15-19.743a470 470 0 003.865-42.96c.472-7.62.244-15.162.3-22.765 3.182-.355 6.116-.978 8.54-3.212 3.226-3.086 5.436-7.646 7.315-11.65 5.081-10.694 7.668-22.135 8.764-33.882.55-4.426.596-8.858.54-13.309 6.814 1.133 13.393.857 19.98-1.279.03 8.552.19 17.085-.282 25.625-.092 66.533-.158 133.012-.299 199.557.016 1.045-.016 2.087-.025 3.13.699.006 1.388.05 2.087.05 8.577 0 17.05-.419 25.409-1.21.015-1.269.077-2.535.049-3.805.147-26.12.08-52.234.214-78.354.172-48.01.002-96.083.344-144.087 10.528-3.408 22.809-12.409 15.065-24.21 7.306-5.363 9.72-11.772 6.592-20.36.753-1.904 1.757-3.673 2.681-5.49 1.482-3.043 1.175-6.532.018-9.618-1.481-3.562-4.199-6.238-7.504-8.148.612-2.461 1.273-4.694.771-7.252-.526-3.398-2.412-6.176-4.872-8.502-3.257-3.177-8-4.812-12.389-5.663-.128-5.527.06-11.048.017-16.581 1.861-1.023 3.575-2.016 4.701-3.895 2.761-4.714 2.106-10.585-1.212-14.852.03-3.752.349-7.435-.037-11.181 1.69-1.996 3.28-3.962 4.345-6.373 1.304-2.822 1.714-5.761 1.91-8.84.661-8.068-2.667-14.937-.85-23.127.656-3.716 3.338-5.766 2.665-9.684 12.445-1.806 24.406-7.499 34.145-15.383 12.953-10.088 21.845-23.886 28.609-38.657 2.602-5.766 5.695-11.073 10.91-14.869 3.447-2.497 7.18-3.366 11.153-4.664q.301-.698.611-1.395c-1.383-3.532-3.22-6.716-6.416-8.908-2.95-2.32-6.309-3.152-10-3.348-.074-3.262-.21-6.513-.522-9.757-1.34-12.678-5.412-24.474-10.798-35.951-2.192-4.408-4.755-8.595-7.608-12.604-2.442-3.508-4.83-6.593-5.564-10.945-.68-3.257.238-6.036.728-9.194.147-.808-.06-1.365-.494-2.039-6.789-.912-13.707 2.804-17.355 8.479-1.133 1.848-1.405 3.789-1.82 5.876-9.96-6.623-21.32-10.939-33.245-12.12-10.223-1.163-20.457 1.44-30.276 3.937-3.379.937-6.57 2.073-10.107 2.293-8.54.606-17.342-2.245-24.063-7.522-3.948 2.822-7.283 7.927-6.09 12.971.778 2.633 3.653 4.045 5.832 5.361-2.4 2.32-4.785 4.56-5.428 8-.318 2.057 1.433 3.132 2.792 4.264 1.86 1.377 3.262 3.122 4.78 4.842-3.293 4.573-6.06 9.389-7.78 14.775-3.177 9.268-3.66 19.124-2.118 28.765 1.127 7.333 3.122 14.723 6.403 21.408 1.94 3.654 4.243 7.596 5.498 11.581.961 3.496.194 7.002-.271 10.485-.306 1.139.13 2.234 1.421 2.198 5.975-.245 11.172-4.971 12.243-10.83 9.623 5.535 20.8 8.155 31.873 7.597 4.126-.38 8.308-1.31 12.244-2.601 3.165-.998 5.583-3.305 8.71-4.223 6.03-1.439 12.523-.124 17.34 3.818 1.298 1.157 2.125 2.81 3.454 3.906 1.463.22 1.97-.942 2.742-1.916 2.749-3.868 4.01-9.513 2.162-13.994-1.047-2.57-3.086-3.905-5.314-5.355 1.45-1.727 3.501-3.875 3.838-6.176.343-1.971-1.506-2.84-2.914-3.68-2.081-1.028-4.42-2.356-6.758-2.534-1.977.698-3.783 2.216-5.785 2.835-1.304.349-2.716.42-4.05.56.966-1.634 1.719-3.177 3.39-4.205 2.773-1.671 6.135-2.41 9.091-3.769 4.157-1.867 8.613-3.9 12.108-6.875.784-.698 1.596-1.604.58-2.522-2.987-3.11-7.444-4.173-11.557-4.779 2.59-2.957 4.769-6.134 5.742-10.002.386-1.775 1.207-4.012-.244-5.524-2.185-2.191-6.024-2.343-8.828-1.437-3.556 1.035-6.054 3.286-8.705 5.735-2.18-3.392-3.697-6.732-7.142-9.089-2.057 2.473-1.042 5.019-1.3 7.981-.011 3.44-1.603 6.134-3.005 9.164-3.789-3.3-5.19-7.916-9.182-10.89-4.224-3.104-9.66-4.884-14.912-3.997-7.113 1.151-13.087 7.186-14.293 14.268-1.114 5.62 1.659 11.925 6.886 14.465 1.31.539 2.877-.024 3.006-1.555.288-3.532-.563-6.592 1.88-9.603 3.354-.098 6.844 1.108 9.789 2.65 3.715 2.027 6.966 6.17 6.69 10.59-.281 3.679-1.58 7.358-4.243 9.996-2.975 2.969-7.07 4.322-11.22 4.297-4.69.08-9.426-2.077-13.087-4.899-4.824-4.046-8.798-8.855-10.744-14.933-1.775-5.21-1.94-10.572-.617-15.916 1.946-9.164 7.283-17.484 14.757-23.116 7.53-5.588 15.935-7.84 24.952-9.799-1.647 2.902-3.115 5.663-2.625 9.14.63 2.075 2.778 1.358 4.449 1.634 1.481 1.977 3.023 4.749 5.264 5.912 1.518.49 2.197-.808 3.115-1.732 4.836-6.14 13.223-9.299 20.923-8.221 6.354.642 12.26 3.925 16.692 8.43 6.611 6.44 10.488 14.972 12.833 23.787 1.144 4.579 1.014 9.054.984 13.724-2.492-.826-4.773-1.604-7.436-.949-1.2.533-1.634 1.207-1.316 2.535.771 2.639 2.117 5.05 2.662 7.78 1.034 4.848 1.525 9.923 1.078 14.869-.991 8.576-4.401 16.821-9.953 23.451-6.373 7.835-15.475 13.034-25.006 16.045-3.324 1.163-6.66 1.976-10.18 2.27-.581-1.99-1.03-3.844-2.242-5.564-1.176-1.75-2.87-2.596-4.682-3.532-.324-3.177-.594-6.005-3.012-8.35-3.82-3.52-10.221-4.089-14.849-1.995-4.022 1.97-5.748 5.907-5.969 10.216-1.659.925-3.216 1.698-4.367 3.29-1.383 1.817-1.383 3.885-2.21 5.875-1.812.728-3.487.788-4.773 2.435-3.342 4.156-3.506 9.82-1.707 14.68.729 1.806-.214 3.072-.41 4.853.643 2.357 2.171 4.407 2.692 6.838 1.291 5.748-.036 11.459-.698 17.121-.429 5.387-.587 11.216 1.721 16.23.973 2.258 2.54 3.941 4.157 5.747-1.188 3.747.11 7.296-.472 11.024-1.175 2.29-2.736 4.072-3 6.771-.562 3.091.355 5.791 1.756 8.49-3.036-.526-5.777-.883-8.28 1.309-3.208 2.583-3.208 6.086-3.778 9.826-.318 3.471-2.18 5.926-3.924 8.803-1.904 2.926-3.213 5.846-5.87 8.215-4.437 4.04-9.457 7.296-14.495 10.375a130 130 0 00-11.729-.617c-1.157-3.36-2.338-6.513-4.597-9.323-2.51-3.19-6.121-5.008-10.045-5.81-11.141-2.357-22.48-3.736-33.711-5.725-4.69-.612-9.152-2-13.743-3.053-2.742-.667-5.424-1.224-7.933-2.601-2.62-1.555-5.626-1.293-8.276-2.75-2.143-1.163-4.267-1.696-6.667-2.02-2.797-3.453-4.694-7.29-7.761-10.492-4.218-4.567-8.717-8.839-12.873-13.473-.735-12.53-4.09-25.159-10.498-36.012-.87-1.5-2.1-2.95-2.67-4.597-.33-2.253-.159-4.554-.428-6.819-1.132-8.417-3.52-16.413-6.402-24.371-3.312-9.409-7.303-18.595-11.576-27.606-2.736-6.519-6.11-12.714-8.987-19.166-1.077-2.424-2.546-4.505-2.668-7.199-.184-3.28-.13-6.569-.386-9.844-.857-9.366-1.152-18.412-3.912-27.496-2.21-8.533-6.813-15.274-11.747-22.424-2.675-3.82-5.76-7.32-8.515-11.072-3.336-5.032-6.348-10.23-10.149-14.944-5.424-7.38-11.26-14.42-17.207-21.373"/>
<path d="m5 33.018v297.548c3.553 8.25 9.004 15.629 16.258 20.989 7.137 5.276 15.048 9.63 23.287 12.941-1.598-9.035-3.08-18.09-4.334-27.18-2.375-16.117-5.694-32.062-8.088-48.18-.165-1.438-.72-3.128-.353-4.542q1.009-.286 2.037-.508c2.84 13.406 5.625 26.83 8.209 40.285 3.74 18.78 5.685 37.713 9.927 56.432 1.714 8.417 4.813 16.82 9.924 23.787 1.88 2.595 4.248 4.855 7.082 6.373 2.871 1.487 5.87 1.629 9.035 1.672-1.279-5.118-2.453-10.222-3.261-15.438-3.434-17.795-7.212-35.572-10.616-53.373-.869-5.49-2.142-10.91-3.048-16.394-.3-1.261.091-1.812.685-2.871l1.494.882c3.796 16.62 7.475 33.208 11.21 49.84 2.203 10.29 4.093 20.643 6.241 30.946 1.298 4.78 2.365 9.975 5.352 13.972 3.967 5.522 9.244 10.285 15.371 13.303-.257-4.97-.589-9.898-.564-14.88-.894-23.672-2.804-47.393-3.93-71.046-.447-6.721-.893-13.46-1.15-20.193a117 117 0 01-.428-11.828c.74-.03 1.474-.056 2.215-.075.826 9.905 2.204 19.779 2.86 29.702 1.223 14.25 2.312 28.55 3.022 42.832.502 4.89.313 9.777.815 14.656.367 4.187.232 8.385.605 12.572.319 4.812.105 9.605.68 14.404.367 8.264 1.758 17.066 6.281 24.16 4.818 7.775 11.423 14.847 17.575 21.592 11.33 12.519 23.323 24.472 34.53 37.094 8.246 8.913 15.832 18.439 24.028 27.406-.477-2.54-.968-5.075-1.568-7.591-1.782-7.45-2.65-15.052-3.99-22.618-2.743-21.29-5.596-42.697-6.79-64.134-.44-10.21-1.164-20.41-1.519-30.614-.533-4.682-.31-9.383-.764-14.06-1.157-20.03-1.584-39.991.106-60.002.483-6.385 1.388-12.793 2.986-18.994 2.608-7.083 5.036-13.737 11.397-18.346-9.574-1.365-19.045-3.263-28.594-4.775-7.878-1.261-15.627-2.963-23.162-5.614-1.996-.6-4.054-.942-6.032-1.64-2.742-.882-5.39-2.491-8.207-3.072-2.105 0-4.29 1.132-6.066 2.19-3.03 1.93-4.53 5.131-5.137 8.571-.563 3.985.135 7.926.778 11.844.575 3.165 1.01 6.178 2.26 9.172.856 2.185 2.08 4.198 2.962 6.36.368.636-.557 1.462-.777 2.013-2.48-2.265-4.468-5.088-6.03-8.05-1.915-3.582-2.46-7.658-3.146-11.606-.887-5.638-.84-11.17 1.897-16.319 1.952-3.446 5.086-5.339 8.404-7.273a64.5 64.5 0 00-6.936-9.707c-2.968-3.514-6.665-6.196-9.42-9.924.13 3.342.313 6.63-.36 9.936-1.47 7.768-1.733 15.75-3.159 23.511l-1.703-.35c.19-7.602.772-15.21 1.03-22.812.268-12.132-.252-23.838-3.87-35.506-1.359-4.7-3.17-9.243-5.662-13.46.061 9.083-1.028 18.01-1.977 27.033-1.046 9.965-2.295 19.899-3.6 29.828-.354 4.634-1.101 8.87-.404 13.54.52 4.035 1.647 7.885 2.914 11.735.509 1.414.508 2.853.46 4.334q-.8.192-1.598.393c-4.616-5.595-5.944-13.73-6.207-20.758.447-10.4 2.062-20.806 3.256-31.176 1.2-10.602 2.528-21.235 2.95-31.898.576-6.19.283-12.348-.378-18.518-1.543-9.96-5.021-19.76-8.633-29.145-4.897-12.842-11.17-24.975-16.783-37.505-.104 7.517-.692 15.328.275 22.76.912 11.703 1.372 22.655 5.565 33.747q-.715.506-1.42 1.01c-2.302-2.98-4.042-6.355-5.211-9.93-1.959-6.409-2.25-12.718-2.918-19.335-.33-5.932-.973-11.785-.777-17.74.098-8.246 1.02-16.223.207-24.481-.092-7.676-.637-15.415-1.782-23.006-1.169-7.382-3.507-14.63-7.027-21.234-3.893-7.603-9.44-14.103-14.312-20.641-7.144-11.557-15.626-22.52-24.479-33.023m188.635 273.04c-.994-.013-2.005.298-2.883.811-3.055 1.702-4.88 4.951-6.52 7.914 5.803-.006 11.615.277 17.418.197-1.408-2.858-3.036-6.465-5.79-8.24a4.03 4.03 0 00-2.225-.681m-11.28 12.602c-3.8 9.574-4.444 19.38-5.521 29.553-.661 12.267-1.176 25.084-.252 37.351.092 4.083.14 8.154.545 12.225.716 15.408 1.855 30.846 2.24 46.266 5.283.655 10.573.38 15.862.777 5.613.606 11.08.258 16.67-.207-3.478-5.19-4.396-11.294-5.02-17.385-.361-5.938.035-11.861-.656-17.787-.037-4.934-.834-9.785-.883-14.713-.539-8.153-.331-16.306-.588-24.478-.165-11.227-1.565-23.047 1.043-34.145 1.408-6.078 2.84-11.784 6.758-16.803-10.045-.648-20.177.13-30.198-.654m26.739 58.445c.03 7.505-.184 15.083.594 22.545.434 5.89 1.088 11.84 1.173 17.746.05 6.642.144 14.221 2.5 20.52.778 1.824 1.597 4.125 3.133 5.447 1.347.851 2.791-.924 3.606-1.824 3.936-5.173 6.69-11.355 8.765-17.488 4.359-12.378 5.528-24.987 5.51-38.037-5.485-1.292-10.7-3.276-15.139-6.832-3.434-.71-6.58-2.015-10.142-2.077m-29.248 71.297c1.757 20.672 3.55 41.51 7.027 61.973 1.035 7.303 2.516 14.576 3.93 21.824 1.26 5.105 1.755 9.8 5.097 14.072 5.026-4.915 6.302-11.525 7.385-18.18 2.124-15.645 4.206-31.239 5.229-47.013.073-2.467.232-4.898.465-7.36.348-8.177.272-16.484.156-24.693-9.782.313-19.52-.23-29.29-.623" fill="#fff"/>
<path d="m339.13 38.434c-4.596.863-8.699 3.31-11.019 7.455-1.01 1.873-1.62 4.531-.299 6.398 2.272 3.636 4.965 6.88 7.708 10.154 1.095.772-.405 2.675-1.403 2.014-4.56-3.765-8.116-9.5-13.295-12.475-9.335-5.619-20.121-10.047-31.066-10.86-6.887-.662-13.938.208-20.672 1.677-6.397 1.285-12.04 3.741-18.621 4.488-6.226.478-12.714-.558-18.352-3.306-2.087-.962-4.06-2.107-6.037-3.276-.942 1.426-2.104 2.885-2.717 4.483-.636 2.087.52 4.162 2.332 5.197 2.125 1.395 4.5 1.064 5.155 3.99-2.798 2.375-5.467 4.701-7.157 8.037 2.425 1.8 4.627 3.668 6.739 5.822 2.993.306 6.024-.985 8.105-3.12 3.232-3.165 4.285-6.974 6.807-10.567q.92.552 1.85 1.096c-1.066 3.562-2.23 7.516-4.715 10.363-2.082 2.381-4.647 4.609-7.707 5.576-1.292.502-2.529.54-3.422 1.66-2.7 2.97-4.498 6.803-6.188 10.414-2.259 4.769-3.39 10.229-4.156 15.432-.526 4.952-.079 10.149.662 15.064 1.126 6.869 2.969 13.804 5.938 20.121 1.26 2.737 3.06 5.17 4.254 7.924 1.86 4.622 2.951 9.421 1.751 14.373 2.15-1.512 4.413-2.586 5.368-5.224.422-1.408 1.015-2.938.158-4.303-.673-1.334-1.31-1.991-.74-3.564 2.044-.215 4.261-.121 5.584-2 .63-1.812-.344-3.144-1.807-4.118-2.087-1.236-4.58-1.82-6.838-2.695.178-1.206-.227-2.272 1.236-2.756 2.853-.024 5.907 1.248 8.27 2.803 2.314 1.487 3.992 4.48 3.129 7.228-.533 1.861-2.368 2.897-3.813 3.993 8.362 5.515 19.025 7.83 28.953 7.511 6.287-.06 12.457-1.347 17.856-4.683 6.2-3.612 13.368-3.092 19.777-.319 2.602 1.09 4.593 2.919 6.528 4.92 1.15-3.103 2.326-6.106.912-9.375-1.457-3.122-4.31-3.985-7.016-5.705 1.518-2.485 3.746-4.354 5.313-6.808-1.733-1.06-3.888-2.835-5.975-2.871-2.357.9-4.088 2.456-6.77 2.664-2.148.14-4.689.109-6.433-1.348-.753-1.806.526-4.212 1.506-5.73 1.39-2.143 3.47-3.595 5.834-4.489 5.913-2.24 11.71-4.38 16.943-8.053-2.73-1.352-5.593-2.29-8.66-2.357-1.463-.177-2.994.225-4.102-.926.013-.844.293-1.542.85-2.111 1.732-1.996 3.489-3.91 4.799-6.225 1.414-2.307 2.082-4.837 2.664-7.45-1.604-.472-3.031-.992-4.72-.515-3.57 1.096-6.293 3.887-9.134 5.938-.955.612-2.026 1.242-2.908.115-1.163-1.775-1.921-3.818-2.937-5.685-.19 5.16-1.936 11.57-6.502 14.564-1.598-1.047-3.146-2.13-4.444-3.55-2.846-2.97-4.24-6.508-7.595-8.938-3.281-2.302-7.285-3.68-11.319-3.069-3.379.551-6.704 2.132-8.73 4.985-2.124 2.914-3.733 6.371-3.03 10.062.374 2.327 1.597 4.127 2.907 6.012.496-2.944.351-5.973 2.138-8.476.68-.876 1.849-2.14 3.061-2.036 3.948.215 7.884.828 11.367 2.8 4.187 2.276 7.73 6.122 8.752 10.872.918 3.796-.092 7.59-1.69 11.043-2.374 4.891-7.044 8.368-12.34 9.494-6.494 1.653-13.553-.233-18.91-4.09-4.027-2.993-7.835-6.684-10.314-11.085-3.721-6.397-5.575-13.945-4.234-21.303.643-4.86 2.246-9.434 4.437-13.799 4.573-9.794 13.743-17.048 23.678-20.904 5.87-2.4 11.999-3.666 18.236-4.688 3-.324 5.14-2.508 8.164-2.863q.405 1.23.7 2.488c-2.112 1.75-4.739 2.504-6.746 4.518-2.1 1.977-3.115 4.5-3.856 7.224 1.004.104 2.006.202 3.016.293 1.37 1.672 2.615 3.434 3.974 5.118 3.288-3.6 6.855-6.723 11.537-8.332 8.472-3.135 17.988-1.592 25.375 3.464 11.882 8.105 19.276 22.523 20.733 36.645.532 3.703-.098 7.198-.361 10.883.6.942 1.187 1.887 1.775 2.836 2.87.3 5.576 1.082 8.275 2.086.612 2.724-.367 5.773-1.181 8.375-1.176 3.09-2.71 6.243-4.688 8.9-.606.998-2.087-.246-2.79-.57 2.35-4.555 3.855-9.292 5.251-14.201-2.24-.264-4.42-.84-6.666-1.047-1.09-1.42-1.971-3.038-3.183-4.36-1.31-1.353-3.062-1.95-4.77-2.605 3.312 7.75 3.997 16.582 3.023 24.888-2.405 15.849-13.398 29.495-27.68 36.43-5.074 2.357-10.143 4.462-15.683 5.447 2.571 4.212 2.761 8.546 1.317 13.192 6.507-1.371 12.812-3.281 18.695-6.434 14.575-7.51 26.229-19.546 34.107-33.851 4.065-6.52 6.2-13.663 10.602-19.993 2.577-3.587 5.797-7.132 9.715-9.275 2.301-1.347 4.793-2.189 7.345-2.935-1.61-2.56-3.414-4.814-6.273-6.026-3.116-1.573-6.329-1.61-9.732-1.646.232-6.71-.02-13.322-1.385-19.914-2.89-15.17-8.95-29.659-18.12-42.116-1.713-2.24-3.133-4.65-3.93-7.375-1.15-3.538-.623-7.498-.33-11.134m-65.788 127.798c-2.257-.036-4.54.728-6.131 2.252-1.481 1.396-1.556 3.176-1.984 5.055 5.264.129 10.542.05 15.806-.012-.324-1.646-.521-3.464-1.709-4.75-1.493-1.674-3.725-2.508-5.982-2.545m-.602 11.524a601 601 0 00-10.844.062c-2.038 1.365-2.765 3.121-3.408 5.41 9.74-.085 19.484.185 29.217-.054-.704-2.088-1.513-5.08-4.127-5.361-3.608-.022-7.222-.05-10.838-.057m-10.53 9.351c-2.706-.002-5.413.002-8.118.022-1.806 1.696-2.907 3.733-3.121 6.219-.251 2.448.68 4.426 1.69 6.568 13.564.098 27.136.03 40.694.049 1.953-3.067 2.167-6.782 1.022-10.18-.465-.991-.992-2.454-2.277-2.51-1.818-.244-3.697-.132-5.528-.132-8.117.05-16.241-.028-24.361-.036m-10.15 17.284c1.023 2.669 2.284 5.05 2.786 7.902.808 5.705-.136 10.96-.98 16.56-.399 4.585-.703 10.007 1.378 14.237 1.145 2.552 2.925 4.59 4.902 6.531 8.375.05 16.78-.194 25.141.137 2.063-2.296 4.126-4.31 5.252-7.274 1.647-3.893 1.407-7.663 1.34-11.789-.067-3.96-1.224-7.688-1.285-11.63-.043-2.963.03-5.834.808-8.711.557-2.02 1.568-3.99 2.37-5.95-1.678.496-3.214.796-4.432 2.149-.955 1.157-1.49 2.723-2.113 4.07-1.886.324-2.73.256-3.698 2.129 1.188 1.39 2.364 2.572 2.725 4.445 1.016 5.436-1.464 10.706-5.008 14.698.184 1.683.668 3.421.582 5.117-.49.79-1.236 1.47-1.885 2.13-1.848-1.144-3.509-2.32-3.392-4.744.349-2.999 1.8-5.821 3.789-8.074 2.455-2.858 3.068-6.775 1.556-10.24l-2.148 1.027c-.447-.11-.895-.225-1.342-.336-.018-1.744.11-3.624-.281-5.332-.508-1.965-1.777-3.349-2.982-4.916-.668.912-1.34 1.812-2.032 2.705a112 112 0 01-2.478-2.332c-1.2 1.396-2.573 2.805-3.16 4.58-.527 1.739-.606 3.728-.79 5.534-1.224-.08-2.447-.172-3.671-.264-.172 2.59-.527 4.94.82 7.309 1.781 3.134 4.249 5.216 4.732 9.066.307 2.155-.4 4.328-2.462 5.29-1.127.397-1.8.036-2.485-.876 0-1.591.821-3.142.846-4.715-.263-1.322-1.38-2.508-2.102-3.629-2.356-3.336-3.837-7.088-3.066-11.238.41-2.381 1.904-3.715 3.103-5.668-.795-1.077-1.902-1.152-3.078-1.562-1.224-2.247-2.418-4.303-4.549-5.82-.746-.472-1.866-.357-2.71-.516m7.065 49.289c.012 2.197.041 4.396.078 6.593 8.962-.036 17.925.061 26.881.007.043-2.192.066-4.389.078-6.586-9.01.06-18.026-.008-27.037-.014zm.744 10.265c-1.666-.018-2.51 1.614-3.262 2.928-1.646 2.993-.677 7.923 2.475 9.545 8.931.147 18.064-.039 27.02.133 1.732-1.726 2.859-3.515 2.767-6.055.214-2.595-.974-4.524-2.455-6.52-8.729.117-17.466-.067-26.201-.006a2.5 2.5 0 00-.344-.025zm17.35 16.508c-4.69-.006-9.379.026-14.067.059.05 13.148-.08 26.289-.056 39.431 6.823-1.63 13.112-2.394 18.738-6.64.018-10.945.02-21.883.074-32.828q-2.344-.02-4.69-.022m-14.233 93.145c-.085 35.02-.194 69.333-.164 104.402.03 2.455-.196 4.897-.226 7.346-.078 42.868-.15 85.735-.13 128.607 6.161-.056 12.26-.347 18.31-.814.06-27.09.178-54.183.152-81.272-.013-2.252.215-4.486.246-6.732.061-45.794.097-91.607.256-137.395-3.612 1.292-8.039 2.008-11.7.551-3.146-1.212-4.661-4.402-4.802-7.61-.092-2.527.923-4.59 1.896-6.843-1.273-.092-2.558-.246-3.838-.24" fill="#fcdb00"/>
<path d="m250.328 280.094c-1.47.027-2.561 1.074-3.771 1.91-.496 3.159-1.067 6.317-1.428 9.494.814-.575 1.72-1.132 2.4-1.873.79-1.298 1.127-2.913 1.592-4.357.367.318.735.629 1.096.947-.251 1.806-.525 3.484-1.768 4.904-1.09 1.433-2.566 1.75-4.17 2.338-1.781 4.052-4.149 7.714-6.64 11.35-1.561 2.779-3.877 4.548-6.264 6.562-3.563 2.816-7.406 5.301-11.281 7.664-2.473 1.463-4.707 2.974-6.078 5.6-1.788 3.52-2.902 7.463-3.606 11.332-.936 4.768 1.761 9.887 3.781 14.08a29 29 0 01-1.627.262c-1.505-1.782-2.593-3.959-3.824-5.936-.275 6.372-.162 12.78-.021 19.164.238 3.018.27 6.011.234 9.035 1.745.196 3.494.367 5.244.557-.918-2.167-2.282-4.743-2.129-7.148-.067-1.323 1.286-1.58 2.149-2.272q.724.525 1.44 1.059c.752 2.748 1.498 5.374 3.18 7.724 1.917 3.067 5.725 4.866 8.835 6.537 5.399 2.786 11.233 3.765 17.232 4.194 2.467.092 4.976-.311 7.424-.617 2.247-.264 3.962-1.446 5.951-2.438-.055-3.06.231-6.096.268-9.15-1.849-2.008-3.377-4.023-3.524-6.87-.269-2.662.783-4.878 2.264-6.99-2.993-.575-5.74-1.211-7.871-3.568-3.41-3.55-3.106-9.452.188-12.953.857-.839 1.947-1.518 2.939-2.192-1.775-2.669-2.986-5.46-1.81-8.662 1.23-4.01 4.369-6.017 7.925-7.767-.012-3.288-.012-6.569-.006-9.856a97 97 0 01-4.842 2.301c-1.065 2.32-1.959 4.775-3.232 6.984-1.139 1.965-2.773 3.258-4.53 4.641.074 7.946.245 15.235-4.01 22.287-2.24 3.875-5.6 6.428-9.58 8.338-.611-.765-1.267-1.333-1.396-2.361 2.308-1.806 4.726-3.104 6.422-5.602 2.78-4.034 4.487-9.067 4.346-13.988.067-4.022-.201-7.811-.93-11.772.722-.508 1.434-1.022 2.205-1.457.692.398 1.345.852 2 1.305 1.053-1.561 1.896-3.166 2.631-4.904 2.204-5.185 4.93-9.758 6.16-15.334 1.17-5.27 2.117-10.798 1.897-16.21-.104-2.858-1.83-5.705-4.81-6.238a3.3 3.3 0 00-.655-.052zm36.037 21.34c.072 2.624-.164 5.262-.003 7.884.792 1.076 1.5 2.28 1.03 3.623-4.38 6.329-11.003 7.67-17.96 9.354-4.903 1.285-10.382 2.72-14.049 6.447-2.081 2.24-2.168 5.584.018 7.781 1.408 1.42 3.447 1.04 5.234.819 6.005-1.09 11.987-2.197 17.986-3.299 2.363-.398 4.259-1.58 6.248-2.822 3.545-2.271 6.938-4.204 9.772-7.375 2.546-2.639 4.553-5.628 5.146-9.307.404-3.25-1.229-6.274-3.494-8.484-2.87-2.56-6.298-3.648-9.928-4.621zm14.928 20.978c-1.365 1.365-2.583 2.79-4.193 3.893-5.424 3.673-10.804 8.24-17.268 10.07-5.797 1.126-11.642 2.062-17.457 3.072-3.104.57-6.991 1.195-9.52 3.21-2.889 2.227-2.876 7.124-.054 9.37 1.653 1.25 4.247 1.305 6.224 1.348 4.891-.049 9.85-1.028 14.704-1.598 3.464-.416 6.66.098 10.058-1.004 6.079-1.891 11.863-6.121 17.201-9.574 3.52-2.173 6.274-5.156 6.354-9.502.128-4.15-2.56-7.393-6.049-9.285m-21.398 1.322a38 38 0 011.095 5.875c-.434.031-.877.07-1.318.1-.361-1.683-.922-3.588-.787-5.314q.495-.34 1.01-.66m-14.153 3.489c1.818.404 3.525.593 4.578 2.338 1.072 2.001 1.426 4.96-1.218 5.896.073-2.056 1.144-3.73-.325-5.492-1.23-1.861-4.427-.886-6.35-1.125.919-.98 2.054-1.311 3.315-1.617m16.631 13.093a37.5 37.5 0 011.56 6.221l-1.322.293c-.477-1.738-.911-3.501-1.101-5.295a50 50 0 01.648-.924zm-17.178 2.069.002.002c2.345 1.316 2.502 4.613 1.957 6.927-.3 1.206-1.174 1.477-2.178 2.022.545-1.965 1.39-3.546.729-5.621-.239-1.488-1.305-1.92-2.395-2.772.625-.202 1.249-.405 1.885-.558zm38.086.937c-4.493 2.798-8.96 5.577-13.797 7.762-3.599 1.787-7.468 2.49-11.453 2.748-4.297.196-8.557 1.12-12.61 2.559-2.184.893-4.72 1.788-5.858 4.04-1.714 2.92-.244 6.949 2.7 8.436 2.155 1.084 4.556 1.272 6.919.899 5.044-.863 10.062-2.276 14.984-3.678 4.897-1.47 9.5-2.944 13.682-5.992 2.675-1.965 5.697-4.465 7.105-7.532 1.047-3.146.222-6.585-1.67-9.242zm-14.218 12.838h.001c.306 1.488.623 2.973.899 4.467-.447.067-.887.136-1.334.197-.3-1.346-.63-2.743-.697-4.127.373-.183.75-.365 1.13-.537zm-16.116 1.12c1.322.01 2.609.475 3.793 1.402 1.806 2.026 1.843 4.419-.011 6.445-.22-1.683.496-4.842-1.329-5.791-1.701-.76-3.778-.752-5.578-1.26 1.045-.539 2.096-.806 3.125-.797m23.645 7.1c-4.763 2.266-9.947 2.815-14.795 4.792-3.68 1.42-7.934 2.96-10.81 5.732-2.296 2.271-3.25 5.815-1.426 8.68.918 1.72 3.041 1.854 4.761 1.805 5.822-.22 11.362-2.792 16.455-5.387 2.981-1.322 5.637-3.262 7.688-5.803 1.383-1.738 1.641-4.321.98-6.39-.447-1.433-1.813-2.418-2.853-3.428m-5.319 5.962c.747 1.842 1.058 3.722 1.18 5.699l-1.148.22c-.472-1.879-1.128-3.759-1.39-5.68q.678-.148 1.358-.24m-11.722 4.336c1.167.01 2.263.345 3.084 1.35 1.42 1.75.864 3.576-.569 5.076-.281-1.55.381-3.65-1.21-4.575-1.243-.93-3.49-.237-4.934.008l-.307-1.133c1.2-.328 2.612-.737 3.936-.726" fill="#fff"/>
<path d="M514.998 5v364.97c0 134.775-114.165 244.04-255.012 244.04C119.163 614.01 5 504.736 5 369.97V5Z" fill="none" stroke="#000" stroke-width="10"/>
<path d="M514.998 5v364.97c0 134.775-114.165 244.04-255.012 244.04C119.163 614.01 5 504.736 5 369.97V5Z" fill="none"/>
</svg>
