<?xml version="1.0" encoding="UTF-8"?>
<svg width="520" height="619" version="1.1" xmlns="http://www.w3.org/2000/svg">
<path d="M514.998 5v364.97c0 134.775-114.165 244.04-255.012 244.04C119.163 614.01 5 504.736 5 369.97V5Z" fill="#fff" stroke="#000f00" stroke-width="10"/>
<path d="m254.178 19.166c-1.68.088-3.374.31-5.086.703-5.285 1.112-11.094 3.66-14.824 7.746-6.484 1.257-14.712 4.62-21.196 6.756-6.122 2.287-12.29 4.58-17.715 8.37-3.573 2.84-6.42 6.368-7.548 10.86-.786 2.916-.927 6.496.365 9.249 1.705 3.404 5.494 5.66 9.271 5.707 1.682.174 2.887-1.478 2.305-3.014-.489-3.218-1.584-5.75.18-8.852 2.368-3.468 7.69-4.686 11.175-2.236 1.95 1.205 3.045 2.812 5.618 2.195.622-.803 2.017-.248 2.82-.859 3.463-.454 7.042 1.627 9.568 3.908 4.947 4.627 8.795 11.17 12.782 16.268.465 2.374 1.913 4.864 1.884 7.367.518.675.501 1.293.612 2.096-1.578-1.793-3.37-3.41-5.104-5.051-5.849-5.64-12.804-9.9-20.26-13.078-3.864-1.071-8.07-3.23-12.203-2.98-.733.558-1.206.926-1.06 1.945-.035 1.187.902 1.601 1.513 2.504 4.546 6.756 10.4 11.66 13.473 19.209 1.542 3.509 3.446 8.456 3.877 12.187.722.96.29 2.55.844 3.55.238 3.807.843 4.866.744 8.673-4.464 9.608-7.891 18.535-11.442 28.382-2.246 1.653-5.215 3.139-7.904 3.918-4.29 1.723-9.574 1.67-14.172 1.559-1.402-.762-3.623-.105-5.142-.861-2.095-.256-5.43-1.158-7.264-1.897-11.384-4.114-20.853-12.17-27.11-22.494-2.933-4.813-5.763-9.945-10.064-13.705-4.504-4.086-10.084-7.078-15.91-8.527 2.235-7.095 3.513-15.01 3.414-22.524-.768-7.507-1.64-14.514-5.959-20.94-2.578-3.957-6.245-6.96-10.715-8.462-3.276-1.333-7.727-1.95-11.295-1.2-4.143.815-7.71 2.33-11.138 4.983-5.96 4.388-10.519 11.442-14.127 17.797-8.3 15.801-14.398 34.338-19.188 51.373-1.356 4.819-2.303 9.644-3.595 14.51-.821 4.446-2.69 11.489-3.08 15.9-.693 1.071-.315 2.753-.88 3.987-.424 3.317-1.298 6.645-1.478 9.962-.727 1.292-.134 3.219-.867 4.563-.227 4.126-1.286 8.202-1.461 12.328-.757 1.472-.128 3.748-.861 5.18-.309 4.93-1.182 10.143-1.514 15.16-.6 2.13-.215 4.802-.832 6.96-.629 8.876-1.793 17.859-2.037 26.85-.402 1.124-.292 2.258-.362 3.428-.052 2.933-.214 5.877-.19 8.805l-.339.46c.006 6.21-.296 12.43-.232 18.675-.117 6.815.197 13.618.261 20.433l.293.494c.105 3.841.012 7.887.588 11.659.128 6.588 1.1 13.3 1.444 19.841l.277.494c.402 6.036 1.329 11.997 2.027 18.09 1.484 9.9 3.288 22.296 5.412 31.993 2.561 12.74 5.888 26.923 9.747 39.273 2.374 7.752 5.386 16.795 9.023 24.07 1.542 2.881 3.393 6.617 6.32 8.3 2.3 1.373 5.33.954 7.373-.722 2.206-1.845 3.004-4.704 3.23-7.457.199-1.909-.43-3.114-.528-4.988-2.212-9.97-5.669-22.337-8.055-32.266-5.483-22.61-9.84-43.59-13.147-66.945-.477-1.42-.076-3.13-.74-4.568-.28-5.034-1.329-10.205-1.44-15.28-.674-2.188-.206-4.684-.712-6.896-.536-2.805-.024-5.913-.711-8.701-.122-6.472-.77-12.786-.787-19.258-.227-9.114-.14-18.245.185-27.354-.011-2.904.519-5.89.39-8.789.53.757.449 1.526.53 2.393.32 3.248 1.375 8.265 1.987 11.664 4.504 20.923 11.547 40.827 21.662 59.922 3.579 6.152 7.331 12.803 12.482 17.797 1.478 1.21 3.645 3.068 5.664 2.107.408-.622.896-1.048.867-1.863.163-3.213.327-6.732-.506-9.863-.14-1.758-.843-3.155-.855-4.936-.71-.943-.28-2.144-.932-3.185-.256-2.2-1.212-4.345-1.386-6.54-.751-.686-.268-1.961-.844-2.63-1.81-7.8-3.736-15.065-5.424-22.899-.495-3.527-1.683-7.016-1.875-10.56-.82-1.042-.214-2.863-.9-3.98-.134-1.316-.117-2.783-.594-4.028-.192-2.148-.154-4.43-.602-6.443-.32-5.85-.376-11.683.02-17.526.646-2.206.175-4.708.879-6.89.238-2.276.72-4.818 1.215-7.006.343-2.788 1.524-5.441 1.925-8.205l.381-.422c.14-1.647 1.105-3.078 1.524-4.79 1.14-3.282 1.874-5.08 3.48-8.216.675-1.001 1.083-2.65 2.113-3.342-.605 2.258-1.124 4.65-1.334 6.984-.762 1.054-.14 2.962-.902 3.934-.227 2.916-.743 5.902-1.156 8.783-.18 1.99-.233 3.883-.6 5.832-.285 2.27.047 4.742-.558 6.912-.123 4.295-.093 8.604.006 12.899l.302.484c-.035 3.87.407 7.344.994 11.133 1.514 9.335 4.411 18.925 8.567 27.475 3.94 7.682 8.713 15.795 15.941 20.824 1.53.727 2.596 1.312 4.11.072 2.764-5.907.412-11.484-.67-17.443-.89-3.603-1.723-7.48-2.573-11.112-.704-3.992-2.065-8.847-2.52-12.892-.674-1.356-.15-3.241-.884-4.528-.035-2.386-.63-4.66-.723-7.052-1.047-10.185.096-20.267 1.47-30.272 2.188-13.549 6.097-27.38 13.273-39.23l.46-.239c-.954 4.459-2.608 10.662-3.074 15.125-.785 1.054-.231 2.72-.953 3.895-.244 3.701-1.37 7.461-1.398 11.22-.896 2.305-.127 5.11-.9 7.432-.198 5.669-.17 11.338 0 17.012l.288.482c-.075 2.957.624 5.291.938 8.166 1.56 8.026 2.764 13.13 5.447 20.848 1.781 4.674 2.724 7.71 5.244 12.227 2.579 5.668 6.712 10.343 12.62 12.619 1.763.238 2.018-.344 3.078-1.479.448-2.444.175-5.134.047-7.607-.629-1.478-.25-3.073-.891-4.545-.099-2.229-.803-4.213-.879-6.477-.704-1.059-.146-2.963-.873-3.941-.18-1.17-.116-2.466-.559-3.56-.192-1.322-.077-2.817-.595-4.051-.163-1.537-.097-3.178-.58-4.657-.105-2.752-.297-5.5-.32-8.26-.298-1.11-.332-1.687.005-2.798-.07-3.539.217-7.06.287-10.586.803-1.409.132-3.754.9-5.156.356-4.703 1.676-10.552 2.77-15.075 2.287-9.76 4.889-16.493 8.951-25.666.204 1.781-.488 2.967-.855 4.713-1.292 5.576-2.455 12.27-3.02 17.95-.657 9.777-.621 19.42 2.16 28.796 2.515 9.58 6.815 17.864 12.227 26.21 1.88 2.973 3.818 5.982 6.117 8.648 1.647.436 2.851-.945 2.729-2.533-1.077-4.976-1.774-8.98-2.92-13.973-2.916-13.531-4.28-26.877-1.992-40.734.692-4.08 1.495-9.194 2.869-13.03.314-.314.14-1.392.623-1.41.075 2.695.192 5.39.314 8.084l.303.5c-.04 3.876.814 7.827 1.344 11.668.896 4.353 1.375 7.84 2.62 12.229.885 3.154 2.498 7.727 3.843 10.765 2.526 4.941 5.248 9.53 10.148 12.463 1.717 1.118 3.702 1.31 5.512 2.055.756 4.982 2.304 9.894 3.357 14.783.379 2.34 1.34 4.74 1.364 7.11.814 1.175.307 3.255.767 4.634.541 3.667-.07 6.06-.408 9.557-.902 1.664-1.805 3.312-2.666 5-6.396 14.003-13.112 27.866-19.776 41.77-7.129 14.59-14.131 29.29-21.423 43.827-.57.71-.052 1.602-.727 2.202-.425 2.921.813 5.313 1.191 8.072-3.846 8.253-7.425 16.597-11.185 24.873a7419 7419 0 00-18.309 40.957c-1.041 2.014-1.863 3.934-2.69 6.018-.366 1.63-2.345 2.474-3.474 3.632-2.153 1.537-4.719 3.199-7.367 3.635-1.03.745-2.451.212-3.36.91-6.395.344-12.843.086-19.245.022-3.324-.565-7.204-1.426-10.207.646-1.28.693-2.114 1.724-3.051 2.795-6.262 2.509-12.704 7.186-15.422 13.553-1.979 4.435-1.514 8.97-1.223 13.707.03 1.472 1.159 2.536 2.66 1.861 2.06-3.23 3.982-6.383 7.567-8.152 2.8-1.659 5.8-2.898 8.582-4.522h.676c1.635 1.182 4.46.164 5.978-.826 1.118-.477 1.786-1.671 2.979-1.636.04 1.024.047 2.053.082 3.084-.856.512-1.747.46-2.69.646-3.631.64-6.797 3.172-8.228 6.576-.413.751-.067 1.67-.678 2.281-.064 1.106.147 2.26-.027 3.348-2.503 1.705-5.185 3.3-7.397 5.389-4.778 3.678-8.654 8.671-11.797 13.775-.55.968-1.15 1.967-1.72 2.977 46.726 50.762 115.105 82.832 191.345 82.832 76.054 0 144.283-31.896 191.004-82.426-5.492-8.925-12.153-16.801-21.095-22.594-.082-1.722.326-3.284-.489-4.873-1.385-4.458-5.837-7.296-10.4-7.488-.28-1.205-.222-2.23-.664-3.418l.77-.006a11.4 11.4 0 004.347 2.404c.937.233 3.213.949 3.824.006 2.3 1.065 6.075 2.946 8.42 4.115a16.64 16.64 0 017.631 7.508c.826 1.298 1.227 1.437 2.734 1.047.868-1.14.664-2.368.82-3.719.25-4.004-.018-7.867-1.56-11.591-2.462-6.123-7.943-10.233-13.64-13.149-.815-.332-1.596-.575-2.12-1.332-1.152-1.513-2.943-2.555-4.677-3.207-2.596-.483-5.479.007-8.034.379-6.227.134-12.489.384-18.705-.006-1.129-.559-2.384-.234-3.49-.717-3.346-.861-6.53-3.066-9.05-5.406-2.166-1.95-2.882-4.406-4.11-6.96a8243 8243 0 01-28.691-65.651c-1.287-2.066.696-4.305.877-6.389.25-2.066-.169-3.795-1.094-5.588-6.425-12.897-12.594-25.905-18.67-38.935-7.42-15.743-14.423-30.49-21.785-46.362-1.339-2.962-3.358-4.685-3.346-8.066-.064-3.358-.227-7.24.582-10.47.308-2.8 1.548-7.038 2.025-9.686 1.013-3.987 2.206-9.138 3.399-12.99 5.075-.874 9.708-4.463 12.484-8.723 6.42-9.557 8.87-22.064 10.633-33.203.5-5.133 1.352-10.406 1.387-15.569q.426.157.861.297c.343 3.34 1.738 6.728 2.006 10.11.809 1.536.123 3.66.926 5.085.087 2.125.223 4.378.543 6.467.232 4.086.19 8.165-.02 12.25-.396 2.113-.395 4.314-.523 6.455-.78 1.28-.082 3.208-.944 4.489-.081 2.875-1.07 5.917-1.564 8.74-.856 3.597-1.607 7.23-2.457 10.867-.384 2.119-1.07 3.554-.668 5.818q.499.602 1.094 1.09c.401.018.79 0 1.18-.04.465-.31.827-.681 1.095-1.106 1.85-2.858 4.028-5.396 5.844-8.248 4.737-6.74 8.473-13.41 11.133-21.15 3.701-10.22 4.52-20.423 3.892-31.4-.518-2.21-.185-4.428-.662-6.628-.553-1.35-.052-3.12-.768-4.377-.023-3.399-1.502-8.106-1.857-11.58 4.214 9.382 7.007 18.803 8.904 28.912.565 1.257.14 2.794.815 4.098.366 3.794 1.385 8.333 1.414 12.879.937 5.604.147 13.125-.377 18.869-.844 7.548-2.533 15.074-3.406 21.918-.629 1.426-.249 3.16-.895 4.533-.227 3.183-.46 6.285-.053 9.469.507.622 1.018 1.565 1.955 1.414 1.467.145 2.34-.785 3.643-1.338 2.148-1.385 4.285-2.549 5.973-4.527 3.736-4.371 6.034-10.278 8.263-15.54 1.88-5.127 3.604-9.34 4.71-14.724 2.706-9.539 3.55-18.874 3.753-28.809-.28-6.215-.554-11.204-1.299-17.396-.343-1.321-.326-2.822-.414-4.184-.762-1.24-.173-3.173-.906-4.547-.215-2.776-.954-5.534-1.379-8.287-.867-3.445-1.577-7.495-2.916-10.824q.75-.043 1.117.762c5.384 8.276 8.846 19.213 11.104 28.74.25.733-.006 1.808.547 2.373.908 5.442 1.822 10.836 2.416 16.354.256 1.85-.123 3.91.488 5.662-.052 4.562.407 9.575-.326 14.033.058 5.127-1.496 11.535-1.979 16.37-.803.856-.14 2.546-.931 3.401-.163 2.561-1.104 5.07-1.47 7.62-.641.96-.142 2.12-.83 2.994-.511 2.892-1.505 6.216-2.099 9.115-.622.978-.123 2.184-.77 3.139-.61 4.277-2.141 8.198-.296 12.412.547 1.815 2.748 2.144 4.22 1.218 4.511-2.694 7.958-6.927 10.915-11.193 2.333-3.149 3.625-6.275 5.644-9.639 3.9-8.124 5.976-14.91 7.809-23.6.227-1.85.78-2.77.728-4.906.769-1.222.316-3.177.752-4.521.594-2.322-.014-5.405.742-7.588.053-4.295.111-8.588.012-12.883a2.73 2.73 0 00-.289-1.459c.04-4.784-.547-8.695-.855-13.357-.617-1.484-.293-3.822-.758-5.522-.472-1.373-.08-3.286-.738-4.548-.35-2.177-.628-4.881-1.332-6.924.686.058.564.872 1.128 1.285 2.416 5.057 4.918 10.714 5.971 16.098.815.628.199 2.055.955 2.783.402 2.927 1.275 5.017 1.455 8.177.71 1.508.186 3.585.838 5.14.303 2.403.14 4.848.582 7.077.216 4.278.186 8.572-.011 12.85-.542 2.433-.17 5.07-.694 7.514-.89 7.822-2.518 15.672-4.09 23.308-.384 2.369-1.362 4.651-1.566 7.031-.605.524-.413 1.605-.565 2.338-.465.728-.518 1.463-.6 2.301-.738.75-.134 2.159-.943 2.81-.203 2.428-1.623 6.355-1.966 8.858-.78.687-.111 2.102-.932 2.783-.18 2.357-1.14 4.62-1.467 6.977-.64.861-.093 2.221-.89 2.914-.035 1.06-.047 2.563-.518 3.488-.285 3.114-.6 6.396-.111 9.504 1.693 2.8 4.465.21 6.21-1.076 4.435-4.633 8.172-9.987 11.239-15.615 5.558-9.912 9.537-19.23 13.332-29.858 2.567-7.403 6.072-18.118 7.73-25.695.734-.762.152-2.165.891-2.852.407-3.556 1.734-7.07 1.961-10.615.844-1.1.228-2.77.955-4.057-.116-1.658.79-2.909.68-4.539l.361.092c.495 19.41.558 38.657-1.02 58.02-.325 3.247-.576 5.355-.593 8.754-.838 1.74-.103 4.504-.889 6.326-.623 7.996-1.949 15.807-3.078 23.64-.36 2.811-1.1 5.664-1.281 8.475-.704 1.17-.198 2.83-.903 3.965-.163 2.974-1.193 5.877-1.42 8.834-.686 1.28-.169 2.735-.937 3.928.087 1.286-.423 2.332-.604 3.554-2.485 11.483-4.656 21.675-7.34 33.112-1.466 6.105-3.153 12.035-4.497 18.187-.769.67-.177 1.799-.905 2.596-1.076 5.052-3.065 11.297-3.46 16.582.39 1.257.244 2.758.826 3.922 1.088 4.283 6.58 6.698 10.345 4.177 3.19-2.362 5.094-6.517 6.764-10.021 4.097-8.421 6.07-15.557 8.922-24.217 2.444-8.724 4.12-14.946 6.146-23.949.67-3.742 2.13-7.96 2.42-11.686.768-.832.212-2.434.91-3.418.227-2.781 1.345-5.481 1.438-8.263.739-1.228.262-2.632.914-3.93.25-3.323 1.269-6.651 1.432-9.986.727-1.065.249-2.84.732-4.04.43-1.291.135-2.74.728-4.027.175-3.992 1.339-8.345 1.438-12.332.838-1.856.034-4.638.953-6.267-.04-3.492.642-7.032.793-10.565.698-3.375.243-6.872.924-10.154.268-3.573-.03-7.357.57-10.768.42-14.608.309-29.169-.012-43.771l-.29-.45a530 530 0 00-.303-10.527l-.291-.482c.122-5.424-.779-10.425-.924-15.797-.588-2.456-.136-5.28-.834-7.648-.215-2.037.058-4.293-.576-6.23-.256-7.066-1.595-15.903-2.002-22.858-.757-1.723-.175-3.992-.89-5.674-.216-4.132-1.112-8.24-1.438-12.361-.769-1.409-.134-3.254-.868-4.58-.314-4.266-1.635-8.592-2.007-12.823-.722-1.012-.303-2.484-.815-3.642-4.359-21.668-10.056-41.76-18.629-62.176-2.968-6.483-6.273-13.36-10.615-19.024-5.762-8.043-14.731-14.005-24.934-13.08-1 .681-2.568.165-3.482.875-6.466 1.618-11.866 6.541-14.607 12.577-3.08 6.35-4.052 14.008-3.848 21.05-.064 6.536 1.608 12.653 3.453 18.805-9.294 1.95-18.117 8.176-22.773 16.627-1.77 2.584-3.178 5.79-5.174 8.24-6.699 9.545-17.484 16.89-28.576 19.73-6.24 1.73-12.722 2.009-19.2 1.456-4.527-.867-8.906-2.782-12.334-5.965-1.006-3.66-3.579-9.114-3.771-13.008-.704-1.28-.302-2.67-.773-3.986-1.322-8.84-.89-18.02.582-26.762 1.25-7.135 3.234-13.217 4.427-20.457 1.025-6.74.91-14.287-.93-20.875-2.007-7.036-5.732-14.078-10.976-19.287-3.131-3.283-7.165-5.832-11.018-8.178-4.55-2.63-10.69-4.999-15.742-6.25-4.976-1.148-9.896-2.09-14.935-1.826m-14.899 316.871c-.593 2.334.11 5.722-.681 7.863-.024 1.997-.163 3.998-.303 5.989-.512 2.41-.157 5.03-.815 7.422-.168 2.188-.18 4.986-.623 7.011-.261 1.88.037 3.993-.586 5.762-.075 4.3-.99 9.126-1.369 13.596-.308 1.577-.704 3.55-.588 5.185-.873 1.065-.244 3.29-.808 4.582a446 446 0 01-2.91 17.53c-2.823 15.207-7.107 29.61-12.17 44.048-.43.769-.377 1.61-.93 2.371.407 2.294 2.444 4.55 4.272 5.936 4.126 3.573 9.608 5.995 14.677 7.781 9.731 3.347 21.01 5.227 31.328 3.528 5.28-.873 10.116-1.857 15.133-3.743 5.989-2.077 12.06-5.161 16.617-9.718.984-1.502 2.479-2.756 1.85-4.717-7.112-20.952-12.099-43.195-15.137-65.37-.093-.977-.083-1.9-.502-2.814-.238-4.737-1.268-9.347-1.42-14.125-.838-2.31-.081-5.094-.896-7.422-.169-4.661-.815-8.683-.879-13.507-.78-2.957-.198-6.251-.82-9.237-.152-2.537-.006-5.114-.309-7.634 3.66 6.093 7.718 13.734 11.274 20.107 8.049 14.643 16.366 30.166 24.671 44.535 2.334 3.568 6.663 6.347 10.987 5.875.914.355.797 1.824 1.42 2.574 6.116 13.49 12.175 26.976 18.443 40.362.588 1.443 1.583 2.643 1.658 4.15-3.009 2.834-5.942 5.61-8.025 9.266-2.363 3.375-3.52 7.014-3.934 11.105.07 1.537-.244 3.579.844 4.783.949.542 2.055.459 2.898-.222 4.639-3.289 8.48-6.705 13.8-8.975.878-.29 1.473-.873 2.486-.64.646.593.202 1.945.882 2.615.193.972.043 2.152.555 3.002.169 1.885-.32 2.88-.42 4.683-.582 2.596-1.676 5.002-4.283 6.114-2.229.366-4.288.057-6.506-.112-4.115-.721-8.597-.651-12.793-.53-4.05.368-8.712 3.038-10.103 7.124-1.193 2.753-.745 5.848-.6 8.752-1.967 1.775-3.84 3.481-5.074 5.926-2.055 3.887-3.23 8.56-3.09 12.949-.78-.233-.938-.842-1.346-1.47-6.966-8.865-16.74-15.542-27.07-19.854-2.351-1.077-5.621-1.903-7.914-2.81-2.602-.449-6.517-1.491-9.322-1.829-.769-.169-1.725.038-2.371-.44-5.436-.331-10.9-.413-16.342-.105-10.348 1.158-19.832 3.968-29.022 9.025-7.298 4.226-13.83 9.241-19.027 15.946-.605.558-.873 1.793-1.682 2.049.233-5.785-1.159-12.314-4.994-16.784-.873-1.204-2.223-1.699-3.13-2.84 1.332-4.492.104-10.65-4.07-13.316-1.565-1.17-3.189-1.602-4.993-2.195-4.621-.483-9.375-.15-14.008.06l-.473.338c-1.955-.04-3.937.474-5.98.108-2.2-1.164-3.37-3.164-4.15-5.446-.373-2.217-1.06-4.068-.221-6.361.18-1.682.827-3.114 1.27-4.674 1.454-.134 3.541 1.082 4.792 1.85 4.08 2.194 7.601 5.066 11.233 7.906.46.413 1.066.424 1.554.738.565-.349 1.113-.513 1.567-1.025.879-3.667.43-7.752-1.072-11.18-2.136-5.238-5.68-9.561-9.97-13.199-.482-.99.734-2.602 1.112-3.545 5.407-11.116 10.512-22.61 16.244-34.512 1.49-2.944 2.939-6.63 4.51-9.382 3.975.343 8.354-1.695 10.658-5.012 3.585-6.996 7.925-14.52 11.807-21.48 7.496-13.538 15.993-28.485 23.693-42.004.43-.81.932-1.584 1.496-2.317"/>
<path d="m256.785 22.497c-2.261-.022-4.312.428-6.686.642-4.906 1.158-10.156 3.416-13.688 7.106-1.089 2.17-.694 4.121-.734 6.437q-.05.989.413 1.985c2.84-.233 5.698-.722 8.468-1.397 9.952-3.213 19.415-1.291 28.245 3.765 3.72 1.905 7.379 4.33 10.958 6.094 1.339 1.56-1.432 2.305-2.52 1.84-5.719-.603-9.277-4.782-11.5-5.315.25 4.761-1.03 9.667-4.505 13.083-2.77 2.486-6.442 3.924-10.19 3.487-5.57-.57-9.9-4.313-11.593-9.586-1.007-3.009-1.159-6.006-.787-9.149-2.153.308-4.108.291-6.267.187.192 4.708 1.833 9.3 2.73 13.927 1.105 4.883 2.938 9.41 4.335 14.212 1 3.556 2.491 7.03 3.388 10.604 1.03 4.278 2.187 9.155 1.861 13.578h-.582c-4.871-4.917-9.614-10.074-14.95-14.486-2.934-2.124-5.92-4.359-9.161-5.977-3.9-1.856-8.108-4.231-12.438-4.772a104 104 0 005.89 7.216c3.452 4.5 6.367 9.266 8.09 14.707 1.886 4.447 2.805 9.26 3.55 14.05l.681-.175c.955-2.112 2.095-4.126 3.184-6.175.343-.733.92-1.28 1.71-1.507 1.287.384 1.874 1.531 1.292 2.765-3.015 6.221-6.151 12.35-8.683 18.798-10.848 24.56-19.031 51.274-21.837 77.988-.186 2.81-.238 5.64-.581 8.433-.437 8.282.122 16.22.605 24.46.53 2.12.343 4.349.692 6.467.862 6.676 1.828 13.42 3.242 20.02 1.618 8.707 4.254 17.182 5.674 25.877.192 3.462 1.048 6.308.373 9.9-.472 1.309-.146 2.787-.606 4.067-5.814 11.576-10.894 23.542-16.661 35.188a10069 10069 0 01-22.169 45.844c-1.507 2.8-2.742 5.715-4.319 8.48-.692 1.455-1.64 2.473-1.233 4.208.424 1.385.512 3.095 1.309 4.312 1.42.07 2.793-.588 4.225-.704 1.612-.39 2.998-2.113 4.336-.215.268 2.485-.348 4.929-.01 7.431.814.268 1.78-.058 2.571-.302 2.218-.85 4.342-1.915 6.57-2.753.967-.227 1.916-.297 2.271.827.146 1.682.582 3.305.762 4.981 2.287.925 5.454-1.077 6.856-2.928 7.752-15.096 16.5-29.768 24.712-44.638 1.443-2.445 2.875-4.889 4.161-7.42 4.161-6.775 7.746-13.875 11.866-20.679.495-.74 1.077-2.555 2.218-2.287 3.323.494 6.46 2.194 9.802 2.689 2.275.46 4.702.343 7 .185 2.142-.11 4.266.163 6.402.093 4.58-.378 8.824-1.734 13.183-3.02.867.582 1.234 1.985 1.816 2.858 5.32 8.753 9.998 17.867 15.19 26.696 1.594 2.73 2.857 5.628 4.498 8.334 6.623 11.99 13.055 24.101 19.881 35.974 1.426 2.462 4.313 4.83 7.31 4.266.518-1.508.885-2.806.897-4.418.407-1.56 1.263-1.915 2.788-1.501 2.735 1.437 5.447 2.73 8.398 3.666 1.432-.238.785-2.863.826-3.893.1-1.967-1.012-4.167 1.45-5.011 2.386.89 4.493 2.083 7.123 1.915.931-1.869 1.95-4.546.832-6.519-.96-2.473-2.322-4.726-3.44-7.13-6.338-12.763-12.21-25.776-18.42-38.61-3.724-8.037-7.607-16.044-11.325-24.088-3.021-6.634-6-13.316-9.423-19.765-1.594-2.415-1.717-5.127-2.112-7.863.116-10.47 3.562-20.154 5.75-30.298 2.433-10.051 4.196-19.969 5.22-30.27.594-2.217.186-4.522.791-6.71.268-4.15.321-8.335.7-12.467.139-5.517-.397-11.058-.659-16.575-.518-1.85-.32-3.771-.64-5.628a186 186 0 00-6.99-31.94c-2.263-8.282-5.849-16.18-8.177-24.444-1.46-5.214-1.868-10.371-2.479-15.697-.029-3.102-.075-6.22.035-9.323.512-2.66.303-5.36.949-8.014.786-8.183 3.899-15.824 4.854-23.984 1.198-7.933.646-16.57-2.671-23.96-1.514-3.94-3.935-7.602-6.543-10.902-5.407-6.006-12.21-9.888-19.624-12.926-3.83-1.729-8.219-2.549-12.31-3.44-1.275-.47-2.758-.18-4.068-.575a15 15 0 00-2.352-.206m-24.92 9.098c-3.166 1.007-6.466 1.91-9.556 3.167-7.944 3.009-16.936 5.627-24.147 10.19-4.394 3.184-8.038 8.166-7.462 13.852.169 3.184 2.083 5.336 5.22 5.96.483-1.083-.465-2.497-.436-3.638-.216-3.026 1.001-6.49 3.41-8.433 3.312-2.87 8.41-3.795 12.438-1.99 1.484.773 2.747 1.751 4.097 2.723 2.526-1.07 5.244-1.111 7.933-.727 4.429 1.1 7.84 3.829 10.796 7.199 1.502 1.408 2.403 3.381 3.94 4.702-1.234-4.853-3.149-9.52-3.789-14.555-1.164-4.004-1.391-8.12-2.124-12.205-.064-2.008-.117-4.056.168-6.058zm-125.448 17.098c-1.097-.053-2.11.3-3.267.426-6.96 1.205-11.849 5.675-16.156 10.96-6.04 7.792-9.999 16.906-13.782 25.933-10.19 25.596-16.668 52.1-20.707 79.28-1.973 14.142-3.9 28.86-5.122 43.073-.477 4.283-.977 8.789-1.187 13.078-.61 2.759-.192 5.674-.722 8.45-.6 7.362-.75 14.795-1.268 22.117a682 682 0 000 30.851c.011.978.215 1.927.273 2.899.117 8.398 1.048 17.36 1.514 25.618.401 1.34.366 2.695.471 4.069 1.35 11.721 2.223 21.784 4.36 33.482.72 5.663 1.925 12.21 3.107 17.833 2.089 10.627 4.458 20.835 7.141 31.335 3.609 12.355 7.251 25.87 13.776 37.009.78 1.263 2.02 3.096 3.538 3.445 1.944.396 3.504-1.315 4.04-3.014.99-2.218.314-4.29.023-6.502-1.112-5.802-2.63-11.395-4.126-17.104-3.394-12.717-6.39-25.434-9.225-38.278-1.676-7.98-3.608-16.483-4.702-24.363-1.618-8.812-3.167-19.107-4.313-28.035-.478-1.955-.088-3.916-.769-5.796-.78-10.133-1.978-19.986-2.007-30.281-.291-1.153-.315-2.3-.338-3.481-.285-12.804-.193-25.62.046-38.423.012-.984.326-1.915.309-2.899.058-5.442.57-10.877.89-16.307.519-2.608.227-5.279.769-7.863.134-2.23.296-4.458.313-6.687.699-3.626.251-7.374.815-11.053.198-4.091.693-8.147 1.001-12.233.553-2.118.21-4.295.844-6.384.507-6.763 1.834-13.666 2.76-20.382 1.995-12.21 4.655-24.816 7.932-36.765 3.405-12.39 7.898-24.781 14.143-36.043 2.88-5.034 5.89-9.696 10.289-13.566 1.897-1.531 4.249-3.01 6.658-3.515 2.747-.227 5.343-.466 7.607 1.367 3.567 2.77 4.516 8.061 4.33 12.31a49 49 0 01-2.538 7.059c-.29.332-.68.46-1.175.396-.617-.67-.14-1.996-.076-2.823.466-3.707.32-7.432-.402-11.093-1.012-2.822-3.113-4.12-6.035-4.219-5.046 1.17-8.217 4.767-11.203 8.73-4.225 5.913-7.502 12.618-10.383 19.276-4.848 11.762-8.358 23.908-11.163 36.3-2.439 11.162-4.813 23.5-6.122 34.82-.594 2.868-.85 5.825-1.124 8.741-.553 2.13-.186 4.283-.86 6.373-.245 4.673-.798 9.213-1.072 13.893-.599 10.26-.762 20.707.268 30.938.879 8.777 2.473 17.472 4.54 26.062 2.123 8.876 5.086 17.693 8.049 26.3 1.891 4.802 3.992 9.51 5.959 14.288 4.173 8.824 8.84 18.287 15.01 25.87 1.14 1.077 1.984 2.648 3.329 3.446.145-3.824-.577-7.31-1.386-11-4.132-18.047-9.567-35.577-11.779-54.061-.454-2.334-.349-4.715-.855-7.037-.355-8.27-.518-16.878.774-25.055 1.752-12.326 5.383-25.05 12.053-35.676 1.275-1.583 2.49-3.376 4.108-4.621.932-.524 2.719-.559 2.928.809.087 2.514-.896 5.11-1.263 7.594-2.013 10.82-4.103 22.652-4.29 33.663-.424 3.411-.448 7.06 0 10.464.1 6.181.95 12.496 2.294 18.502 2.1 8.87 5.034 17.344 9.737 25.19 2.502 4.486 5.47 8.776 9.277 12.268.675.535 1.373 1.595 2.275 1.641.78-3.195-.442-6.978-.873-10.18-3.142-12.5-5.953-24.694-7.408-37.52-.291-2.19.104-4.272-.432-6.397-.14-3.265-.267-6.67.268-9.894-.064-5.128.896-10.074 1.38-15.149.622-3.212.977-6.647 1.746-9.888 2.38-10.244 5.837-20.673 11.18-29.77 1.495-2.467 3.463-4.707 5.57-6.675.832-.907 2.735-1 3.468.064.367 1.083.1 2.392-.023 3.51-4.004 14.747-6.413 29.268-7.356 44.516-.81 17.96 3.666 36.078 11.22 52.316 2.358 4.487 5.023 8.474 9.592 10.965.57-2.013-.454-4.702-.542-6.745-1.146-6.187-2.211-13.555-3.218-19.858-.506-2.31-.273-4.68-.884-6.978-.134-4.074-.512-8.183-.436-12.245.488-3.312.22-6.594.785-9.889.92-8.13 2.549-16.837 4.807-24.723 2.916-9.894 6.542-19.468 12.047-28.239 1.566-2.444 3.027-5.336 5.203-7.28.513-.023.984.186 1.427.628a4.3 4.3 0 01-.053 1.875c-2.899 10.412-5.849 20.66-7.13 31.428-.604 1.973-.168 3.998-.791 5.93-.43 5.43-.244 10.772.012 16.208.518 3.975 1.432 7.857 2.462 11.745 1.868 7.21 5.523 14.05 9.224 20.47.786 1.088 1.298 2.612 2.387 3.421-.082-2.549-.85-5.121-1.38-7.595a45 45 0 00-.92-4.662c-1.041-5.459-1.466-10.749-1.647-16.3-.53-2.783.175-5.356.07-8.143.018-3.556.367-6.99 1.054-10.476 1.443-9.225 3.958-18.409 7.892-26.889.407-.646.704-1.792 1.408-2.13 1.135-.064.722.926.844 1.653.04 3.69.035 7.385.128 11.075.762 7.834.926 15.57 2.596 23.286.885 5.68 2.188 11.285 4.15 16.697a37.5 37.5 0 007.443 12.932c1.455 1.438 3.469 2.41 5.244 3.411l.5-.262c-.82-5.85-2.234-11.715-2.607-17.663-.733-4.604-1.1-9.324-1.344-13.98-.803-9.609-.425-20.166.64-29.763 1.897-16.215 5.994-31.824 10.79-47.41-3.888 1.903-7.705 3.591-12.123 3.644-4.266.937-7.874-.03-12.123-.158-2.799-.57-5.418-1.024-8.241-1.88-12.961-4.312-24.222-13.723-30.945-25.59-2.613-4.423-5.598-9.207-9.539-12.57-2.118-1.567-4.277-3.411-6.687-4.43-3.498-1.501-6.902-2.916-10.714-3.41l-.146-.582c2.793-5.873 4.115-12.903 4.482-19.346.488-3.684-.175-7.054-.408-10.692-1.158-5.389-2.555-11.395-6.443-15.539-3.189-3.742-7.74-5.843-12.606-6.262a4.2 4.2 0 00-1.133-.211m309.15 1.095c-3.031.172-5.994 1.01-8.626 2.602-5.075 2.887-8.124 8.02-9.736 13.503-2.602 9.184-2.38 19.345.261 28.5.611 2.514 1.845 4.883 2.422 7.386l-.367.238c-6.96 1.391-13.951 4.382-18.997 9.492-5.08 5.22-7.368 11.611-11.844 17.263-7.28 9.079-17.576 15.778-28.785 18.874-2.648.745-5.348 1.077-8.025 1.618-2.555-.07-5.035.651-7.56.39-2.38-.46-4.75-.193-7.095-.885-2.544-.681-5.174-1.624-7.392-3.061.483 3.76 2.393 7.234 3.172 10.97 5.128 16.808 7.962 34.094 8.002 51.682-.227 11.937-1.408 23.163-3.34 34.925-.367 3.824-1.944 7.677-1.933 11.495 4.907-1.665 8.725-6.402 10.937-10.913 2.863-6.146 4.975-12.856 6.128-19.525.652-3.76 1.607-7.52 1.799-11.338.6-2.293.372-4.65.838-6.966.54-4.633.773-9.336.983-13.986.384-2.066.302-4.12.442-6.204.786.006.99.402 1.362 1.013 3.504 6.256 4.773 12.676 6.647 19.456a105.7 105.7 0 012.217 31.725c-1.076 8.282-2.316 16.138-4.47 24.25.716-.18 1.048-1.012 1.514-1.547 4.12-5.89 7.612-12.32 10.015-19.112 2.206-5.721 3.574-11.902 3.83-18.037 1.018-5.948.076-11.879-.314-17.576-.855-5.814-1.607-11.757-3.213-17.431-1.013-5.494-3.224-10.878-4.29-16.313-.4-1.653 1.7-2.282 2.527-1.007 10.208 13.99 15.72 31.265 18.716 48.154.478 2.584 1.002 5.21 1.136 7.84.693 2.183.18 4.463.785 6.693.268 4.65.297 9.341.035 13.991-.687 2.3-.14 4.697-.89 6.95-.663 7.059-2.375 15.125-3.475 22.243-.302 2.921-.984 5.675-.914 8.643l.443.186c2.287-1.426 4.364-3.125 6.169-5.127 4.068-5.914 5.971-12.112 8.678-18.665 2.083-6.536 3.922-13.27 4.894-20.062.629-2.444.355-5.08.844-7.548.367-6.018.401-12.047-.04-18.06-.787-7.583-1.52-15.213-3.12-22.697-1.054-6.012-2.665-11.448-3.742-17.466-.198-1.775 1.425-2.66 2.968-2.043 2.013 1.112 3.62 3.02 5.133 4.726 3.788 5.43 6.198 12.117 8.416 18.339 6.18 19.427 8.572 40.955 5.325 61.127-1.164 7.688-2.765 15.068-4.697 22.593-.687 3.853-2.148 7.723-2.66 11.669-.6 1.688-.337 3.498-.82 5.232-.273.873.104 1.886.314 2.753 1.228-.57 2.439-1.607 3.405-2.555 7.898-8.55 13.444-19.415 16.517-30.607 1.426-4.534 2.299-9.143 3.09-13.822.472-2.084.198-4.319.757-6.385.267-2.904.163-5.849.297-8.753.378-1.874.326-3.93-.012-5.81-.174-3.997.157-8.333-.67-12.215-.523-9.463-2.711-19.66-4.207-29.024-.082-1.78 2.101-2.194 3.23-1.228 2.683 2.246 4.685 5.116 6.198 8.253 5.087 10.622 8.009 21.935 9.184 33.627.152 1.776-.005 3.492.478 5.232.186 4.65.156 9.324.046 13.98-.53 4.278-.582 8.515-1.269 12.81-1.938 14.003-5.896 28.634-9.382 42.474-1.641 6.856-3.753 13.933-4.038 20.976q.723-.088 1.122-.595c1.537-1.583 2.812-3.38 4.32-4.993 3.747-5.5 7.262-11.309 9.957-17.408 3.038-5.971 5.518-12.14 7.81-18.432 7.09-19.66 12.612-39.552 14.248-60.451.518-14.556.192-29.083-1.409-43.563-1.414-14.707-3.55-30.543-6.663-44.988-2.864-13.875-6.682-27.336-12.362-40.35-2.794-6.041-5.506-11.716-9.726-16.93-2.013-2.782-4.976-5.11-8.188-6.332-2.776-1.135-6.216.436-7.24 3.247-1.507 3.83-1.03 8.701-.727 12.734.186.844-.902 2.166-1.484 1.013-1.368-2.293-1.671-5.407-2.27-7.991.005-3.603 1.082-7.985 3.806-10.528 2.543-2.206 5.843-2.526 9.038-1.81a19.9 19.9 0 017.281 4.778c4.481 4.301 7.56 10.208 10.528 15.632 9.574 20.068 14.364 41.148 17.966 62.932 1.252 7.013 2.224 15.02 2.969 22.11.628 5.802 1.251 11.64 1.548 17.465.611 3.638.5 7.602.651 11.338.611 2.95.234 6.035.77 9.02.279 4.284.825 8.521.953 12.816.792 3.591.024 7.467.838 11.046.28 14.556.408 29.106.023 43.662-.721 3.806-.174 7.816-.896 11.61-.174 5.832-1.059 11.67-1.414 17.496-.634 1.915-.268 3.876-.745 5.796-1.595 12.618-3.992 27.674-6.355 40.17-1.862 9.26-3.981 19.445-6.1 28.617-3.102 14.189-6.727 27.412-10.225 41.223-.617 2.31-.978 4.626-1.385 6.978.261 2.246 1.13 5.301 3.783 5.633 2.398.471 3.631-2.025 4.825-3.62 4.638-7.886 7.548-17.186 10.423-25.84 8.27-27.977 13.752-56.68 17.227-85.583.28-1.548.303-3.108.448-4.667.71-2.317.29-4.627.826-6.955.6-6.786 1.048-13.579 1.42-20.394.082-1.565-.022-3.102.35-4.644.536-18.275.443-36.188-.774-54.428-.18-5.325-.82-10.4-1-15.69-.635-2.544-.228-5.303-.839-7.858-.308-5.57-1.234-11.186-1.49-16.784-.43-1.764-.419-3.545-.523-5.35-.972-8.444-1.898-16.592-3.08-25.025-2.252-15.161-5.482-31.823-9.696-46.577-1.63-6.588-3.893-12.827-5.948-19.282-3.265-8.468-6.222-16.767-10.488-24.892-3.498-6.46-7.484-13.02-13.694-17.215-2.87-2.148-6.146-3.19-9.597-3.999a21.4 21.4 0 00-3.044-.047m-138.01 279.155c-1.804.134-3.555 1.071-5.354 1.38-1.618.535-3.312.46-4.918 1.012-2.747.32-5.372-.04-8.16.053-2.432.012-5.243.366-7.57-.39-1.997-.39-4.011-.803-5.955-1.409-.809-.238-1.595-.727-2.427-.616-.1 4.813-.646 9.597-.74 14.422-.529 2.706-.436 5.424-.634 8.153-.582 2.136-.121 4.563-.756 6.705-.151 5.744-1.164 11.477-1.519 17.163-.588 1.717-.274 3.492-.716 5.22a645 645 0 01-3.521 24.352c-2.898 17.407-7.67 34.954-13.735 51.552-.146.454-.158.88-.047 1.275 2.06 2.741 5.098 4.871 8.095 6.478 5.174 2.95 10.994 4.522 16.721 6.03 5.093.966 10.517 1.821 15.714 1.373 6.734-.338 13.515-2.008 19.9-4.12 5.918-2.16 11.936-5.064 15.998-10.04a504 504 0 01-8.31-29.187c-3.3-13.357-5.67-27.686-7.56-41.31-.647-6.263-1.695-12.613-1.934-18.91-.366-1.926-.477-3.876-.529-5.837a258 258 0 01-1-15.44c-.827-5.855-.501-11.932-1.043-17.909m-100.621 67.064c-1.816.82-3.544 1.321-5.564 1.135-.861 1.251-1.35 2.945-2.008 4.336-10.098 22.5-20.154 45-30.228 67.511-3.86 7.98-7.555 15.743-14.516 21.563-3.44 2.532-7.251 4.668-11.273 6.123-4.248 1.246-8.177 2.753-12.647 3.114-3.929.646-7.38 2.834-7.63 7.14.39 4.214 3.655 6.38 7.094 8.172 2.899 1.117 6.13 3.48 9.389 3.265 3.398-.489 5.586-2.84 6.023-6.222-.466-1.17-.71-2.275-1.711-3.136-1.438-1.181-3.33-1.88-4.907-2.66-.622-.396-1.472-.972-1.495-1.78.663-1.293 1.187-1.829 2.712-1.357 2.124.995 4.545 1.92 6.303 3.48 1.455.164 2.77-.355 4.033-1.001 6.082-3.51 12.362-8.881 19.2-10.645 6.536-1.804 13.782-.29 19.049 3.976.803.64 1.624 1.274 2.508 1.798 4.691-.082 8.98.577 13.503-1.175.902.518 1.862 1.233 1.49 2.409-.763 1.45-2.037 3.224-1.734 4.917.803 2.445 3.544 4.18 6.064 3.714 2.741-1.048 5.727-2.538 7.764-4.68 2.043-3.235 3.59-7.49 2.788-11.33-.606-2.643-2.509-4.564-5.035-5.454-2.572-1.158-5.668-.826-8.462-.867-4.813-.024-8.561 1.496-13.275.745-2.957-.96-5.373-3.108-6.461-6.047-1.158-3.05-1.81-6.67-.937-9.87.285-2.038.996-4.052 1.741-5.967.32-.704.663-1.664 1.384-2.037 2.346-.22 4.884 1.327 6.996 2.253 3.923 1.7 7.054 4.83 10.517 6.92-.035-4.383-2.112-7.746-4.435-11.28-1.426-1.867-2.816-3.73-4.591-5.29-1.2-1.28-2.585-1.751-3.353-3.264 1.32-3.131 2.846-6.17 4.417-9.179 4.18-9.33 8.73-18.478 12.898-27.796 2.112-3.992 3.776-8.183 5.988-12.129.908-1.24.07-2.322-.11-3.678l-.367-.163c-2.834.75-6.041 3.015-9.01 2.66-2.781-1.944-2.327-5.267-2.112-8.224m166.701.425c.233 2.578.559 6.291-2.13 7.74-3.48.757-6.11-1.233-9.079-2.641l-.53.116c-.348.913-.383 2.275-.436 3.282 3.993 8.992 8.27 17.68 12.198 26.655 1.682 3.3 3.027 6.74 4.686 10.046 1.787 4.388 4.09 8.555 5.953 12.915-.925 1.338-2.386 1.99-3.503 3.2-2.206 1.967-3.876 4.26-5.599 6.652-2.02 2.66-3.032 6.245-3.841 9.44l.18.688c1.095-.373 1.723-1.182 2.602-1.87 4.254-3.014 8.37-5.813 13.45-7.262 1.088-.093 2.374-.652 2.892.675 1.292 3.16 2.165 6.617 2.427 10.01-.36 3.224-.605 6.088-2.322 8.928-1.461 2.095-3.445 3.701-5.988 4.237-2.288.14-4.68.087-6.926-.373-3.911-.273-7.787-.587-11.716-.395-1.589.081-2.939.663-4.365 1.31-3.003 1.867-4.452 5.558-3.673 8.98.553 5.08 4.36 9.684 9.325 10.93 2.438 2.205 5.854.878 7.31-1.735 1.256-1.792-.252-3.533-1.06-5.145-.996-1.31.174-3.12 1.757-2.765 4.587 1.508 9.33.676 14.055.554.99-.536 1.764-1.31 2.596-2.049 4.674-3.626 10.744-5.162 16.54-3.789 5.244 1.514 9.866 4.11 14.423 7.042 2.939 1.67 6.122 4.342 9.45 5.11 2.52-1.14 5.146-3.306 7.917-3.87.814.704 1.396 1.304 1.105 2.462-1.938 2.398-6.931 2.508-7.344 6.07-.14 3.265 2.298 6.129 5.551 6.652 2.358.606 4.878-.669 7.031-1.565 3.574-1.845 7.73-3.516 9.365-7.514 1.338-2.642.162-5.784-2.265-7.327-2.398-1.984-6.105-1.839-9.032-2.619-3.463-.913-6.664-1.455-9.894-2.91-4.685-2.049-9.254-4.37-12.693-8.24-2.439-2.474-4.447-5.39-6.21-8.376-3.97-7.176-7.095-14.649-10.435-22.116-8.59-19.59-17.967-40.786-26.266-60.382-2.107.25-3.544-.152-5.506-.751m-212.068 79.67c-2.747.762-5.075 2.398-8.049 2.619-3.876.85-7.706.46-11.64.587-4.743-.174-9.97.117-14.544-1.129-2.398.291-4.662 1.566-5.72 3.824-1.194 2.776-1.73 6.908.209 9.47 1.251 1.169 3.853.995 5.209.04 1.612-.786 3.212-2.526 4.958-2.899 2.293 1.071 2.49 4.756 2.607 6.961 1.007.315 1.869-.338 2.899-.559 6.361-1.955 12.245-4.44 17.134-9.09 2.747-2.922 4.993-6.332 6.937-9.824m256.743.058c.43 1.77 1.582 3.428 2.49 5 1.822 2.35 3.661 5.028 6.135 6.686 5.168 4.255 11.878 6.7 18.368 8.032.331-1.728-.402-3.416.6-5.139.511-1.263 1.541-2.276 2.973-1.566 2.194 1.38 4.068 2.846 6.681 3.44 1.752.367 2.677-1.775 3.09-3.114.582-4.132-.063-8.713-4.184-10.738-3.777-.634-7.869.658-11.692.466-8.241.093-16.924.902-24.461-3.067m-300.95 8.055c-.944.034-1.544.622-2.341 1.07-3.841 2.561-7.42 6.251-8.462 10.884-.565 1.618-.53 3.241-.652 4.93 1.333-.92 2.392-2.206 3.777-3.073 2.805-1.723 5.79-3.23 8.724-4.732.355-.855-.687-1.88-.762-2.794-.751-2.09-.518-4.138-.285-6.285m344.797.058c.297 2.752.285 5.383-.943 7.92a2.17 2.17 0 00-.308 1.252c2.8 1.595 5.96 2.794 8.742 4.633 1.472.809 2.514 2.089 3.881 3.014.035-7.228-4.946-13.875-11.372-16.82m-171.288 12.31c-18.1-.623-36.625 6.273-49.737 18.804-4.808 4.755-8.514 10.516-10.249 17.087-.064.803-1.507.786-1.443-.169-.885-4.51-2.812-8.753-5.937-12.152-2.88-2.747-6.087-4.988-9.51-7.008-1.122.39-2.264.687-3.416.978-3.963.332-8.16-2.217-9.265-6.134-.507-1.274-.193-2.543-.14-3.9-3.451.373-6.978.129-10.446.135-2.288-.676-4.01-2.84-6.13-3.923-2.525-1.275-4.917-2.485-7.803-2.561-2.31.023-4.913-.058-7.095.797-5.448 1.961-9.784 5.088-14.521 8.288-2.06 1.426-4.545 2.2-6.693 3.446 1.607 6.652-5.407 12.967-11.861 11.25-.908-.268-1.857-.536-2.806-.594-1.909 3.655-3.945 6.914-4.847 11-.245 1.746-.326 3.509-.612 5.26-.128 1.38 1.246 4.04-.133 4.93-1.508 1.386-3.271-.384-4.36-1.454-2.915-3.324-6.099-7.595-6.355-12.146-.92-5.628 1.501-10.494 2.817-15.691-8.975 5.232-15.958 13.95-20.224 23.332l-.833 2.182c.564 1.113 17.458 19.395 40.158 35.06 36.543 25.654 80.223 41.205 124.652 44.836 2.515.245 5.116.012 7.572.577 6.6.087 13.217.28 19.805.076 2.462-.059 4.913.14 7.275-.326 7.398-.233 14.823-1.228 22.139-2.264 27.307-4.18 53.952-12.542 78.565-25.177 18.961-9.772 36.566-21.9 52.63-35.921 3.043-2.992 6.413-5.57 9.293-8.736 4.424-4.132 8.318-8.73 12.485-13.118.57-.815 1.623-1.63 1.92-2.555-3.521-7.263-9.504-13.462-16.325-17.693l-.227.722c1.082 3.154 2.293 6.105 2.707 9.399 1.589 7.28-2.357 14.865-8.387 18.898-1.007.337-2.567.448-3.015-.78.244-2.864.344-5.675.082-8.544-.833-4.377-2.905-7.904-5.192-11.646l-.355-.22c-.99.156-1.885.511-2.84.796-3.026.245-6.763-.716-8.77-3.143-2.113-2.177-3.184-5.313-2.457-8.31-8.31-3.661-14.957-9.86-23.42-12.245-2.921-.367-6.384-.565-9.125.692-2.811 1.094-5.4 3.195-7.845 4.947-3.975.774-8.282.96-12.304.547.343 2.229-.133 4.29-1.286 6.204-2.56 3.673-7.781 5.04-11.634 2.55-3.696 2.298-7.316 4.934-10.464 7.943-2.654 3.306-4.412 7.438-5.273 11.576-.018.442-.379.623-1.089.535-1.012-2.642-1.71-5.318-3.154-7.868-4.621-8.59-13.025-15.196-21.37-19.95-10.052-5.53-21.692-8.596-33.152-8.62m65.178 7.978c-2.502 1.676-4.272 5-4.94 7.91-.816 2.793-1.281 5.586-.903 8.496.768-.122 1.07-.93 1.565-1.466 2.672-3.265 6.525-5.633 9.906-8.113l.099-.384c-1.321-1.21-2.834-2.09-3.84-3.643-.751-.827-1.054-2.113-1.887-2.8m-132.666.134-.39.047c-1.018 2.695-2.963 4.72-5.366 6.245l.262.605c3.132 1.845 5.971 4.254 8.573 6.78.762.734 1.304 1.88 2.334 2.183.151-1.92.302-4.244-.414-6.065-.617-3.597-1.99-7.548-4.999-9.795m-99.768 10.392a.7.7 0 00-.289.078c-1.094 2.532-1.903 5.331-2.281 8.073-.89 3.579-.041 7.63 1.96 10.708.664.763 1.025 2.014 2.16 2.095.023-6.256 2.898-11.284 5.47-16.703-1.617-1.117-3.508-1.816-5.05-3.096-.54-.321-1.285-1.195-1.97-1.155m331.927.02c-2.02 1.787-4.319 3.097-6.728 4.278l-.216.367c1.85 3.585 4.371 6.96 5.017 11.04.606 1.862.594 3.765.513 5.697.75-.046.989-.529 1.437-1.052 2.084-2.934 3.521-6.217 3.166-9.895-.366-3.51-1.53-7.007-2.764-10.301z" fill="#f00000"/>
<path d="m253.055 39.912c-1.938 2.741-2.066 6.746-.57 9.708 1.21 2.182 4.12 3.701 6.512 2.52 3.783-1.193 4.755-6.105 3.137-9.364-1.338.61-2.502.867-4.033.715-.21-1.047.04-2.27 1.205-2.554.873-.035 1.03-.524.489-1.467 1.955.582 4.3 1.158 6.035 2.118.85 3.748.792 8.044-1.653 11.169-2.962 4.784-10.004 5.459-14.195 1.856-4.045-3.62-4.62-8.898-3.823-14.043 1.25-1.135 6.896-.658 6.896-.658" fill="#fff"/>
<path d="M514.998 5v364.97c0 134.775-114.165 244.04-255.012 244.04C119.163 614.01 5 504.736 5 369.97V5Z" fill="none" stroke="#000" stroke-width="10"/>
</svg>
