<?xml version="1.0" encoding="UTF-8" standalone="no"?>
<svg
   width="520"
   height="619"
   version="1.1"
   id="svg5"
   sodipodi:docname="CHE Muriaux COA.svg"
   inkscape:version="1.4.2 (f4327f4, 2025-05-13)"
   xmlns:inkscape="http://www.inkscape.org/namespaces/inkscape"
   xmlns:sodipodi="http://sodipodi.sourceforge.net/DTD/sodipodi-0.dtd"
   xmlns="http://www.w3.org/2000/svg"
   xmlns:svg="http://www.w3.org/2000/svg">
  <defs
     id="defs5" />
  <sodipodi:namedview
     id="namedview5"
     pagecolor="#ffffff"
     bordercolor="#000000"
     borderopacity="0.25"
     inkscape:showpageshadow="2"
     inkscape:pageopacity="0.0"
     inkscape:pagecheckerboard="0"
     inkscape:deskcolor="#d1d1d1"
     inkscape:zoom="0.93100489"
     inkscape:cx="198.17297"
     inkscape:cy="190.65421"
     inkscape:window-width="1920"
     inkscape:window-height="1017"
     inkscape:window-x="-8"
     inkscape:window-y="-8"
     inkscape:window-maximized="1"
     inkscape:current-layer="svg5" />
  <path
     d="M514.998 5v364.97c0 134.775-114.165 244.04-255.012 244.04C119.163 614.01 5 504.736 5 369.97V5Z"
     fill="#fff"
     stroke="#000f00"
     stroke-width="10"
     id="path1"
     style="fill:#fcdb00;fill-opacity:1" />
  <path
     d="m 260.97429,283.46355 c -17.00177,0 -33.49416,-3.35703 -49.01867,-9.97924 -14.99571,-6.39619 -28.46389,-15.55288 -40.02957,-27.21645 -11.56629,-11.6636 -20.64683,-25.24488 -26.98963,-40.36718 -6.5663,-15.65516 -9.89581,-32.28663 -9.89581,-49.43135 0,-17.14535 3.32951,-33.7762 9.89581,-49.43197 6.3428,-15.122301 15.42334,-28.703585 26.98963,-40.367174 11.56568,-11.663586 25.03386,-20.820501 40.02958,-27.21677 15.5245,-6.621526 32.01689,-9.978998 49.01866,-9.978998 17.00178,0 33.49418,3.357472 49.01867,9.978998 14.99571,6.396269 28.46388,15.553184 40.03018,27.21677 11.5663,11.663589 20.64684,25.244873 26.98903,40.367174 6.56692,15.65577 9.89641,32.28662 9.89641,49.43197 0,17.14472 -3.32949,33.77619 -9.89641,49.43135 -6.34219,15.1223 -15.42273,28.70358 -26.98903,40.36718 -11.5663,11.66357 -25.03447,20.82026 -40.03018,27.21645 -15.52449,6.62221 -32.01689,9.97924 -49.01867,9.97924 z"
     fill="#e01f26"
     id="path2"
     style="fill:#f00000;fill-opacity:1;stroke-width:6.09079" />
  <path
     d="m 260.97368,27.825298 c -70.45408,0 -127.56903,57.595569 -127.56903,128.644032 0,71.04846 57.11495,128.64428 127.56903,128.64428 70.45471,0 127.57027,-57.59582 127.57027,-128.64428 0,-71.048463 -57.11556,-128.644032 -127.57027,-128.644032 z m 0,3.298728 c 16.78192,0 33.0599,3.313557 48.38148,9.848666 14.80131,6.313144 28.09442,15.351373 39.51111,26.863666 11.4167,11.512917 20.37974,24.918415 26.63955,39.844102 6.48091,15.4506 9.76678,31.86585 9.76678,48.78887 0,16.92301 -3.28587,33.33826 -9.76678,48.78886 -6.25981,14.92568 -15.22285,28.33119 -26.63955,39.84348 -11.41669,11.51293 -24.7098,20.55139 -39.51111,26.86428 -15.32158,6.53524 -31.59956,9.8488 -48.38148,9.8488 -16.7813,0 -33.05926,-3.31356 -48.38086,-9.8488 -14.8013,-6.31289 -28.09441,-15.35135 -39.51109,-26.86428 -11.4161,-11.51229 -20.37913,-24.9178 -26.63955,-39.84348 -6.48032,-15.4506 -9.76619,-31.86585 -9.76619,-48.78886 0,-16.92302 3.28587,-33.33827 9.76619,-48.78887 6.26042,-14.925687 15.22345,-28.331185 26.63955,-39.844102 11.41668,-11.512293 24.70979,-20.550522 39.51109,-26.863666 15.3216,-6.535109 31.59956,-9.848666 48.38086,-9.848666 z"
     fill="#9f1c28"
     id="path3"
     style="fill:#000000;stroke-width:6.09079" />
  <path
     d="m 357.38836,156.46933 c 0,53.6961 -43.16585,97.22492 -96.41407,97.22492 -53.24761,0 -96.41345,-43.52882 -96.41345,-97.22492 0,-53.69611 43.16584,-97.225546 96.41345,-97.225546 53.24822,0 96.41407,43.529436 96.41407,97.225546 z"
     fill="#ffffff"
     id="path4-2"
     style="stroke-width:6.09079" />
  <path
     fill-rule="evenodd"
     clip-rule="evenodd"
     d="m 359.02372,156.46933 c 0,54.60686 -43.89813,98.87435 -98.04882,98.87435 -54.15129,0 -98.04945,-44.26749 -98.04945,-98.87435 0,-54.60687 43.89816,-98.874972 98.04945,-98.874972 54.15069,0 98.04882,44.268102 98.04882,98.874972 z m -3.27074,0 c 0,-52.78535 -42.43357,-95.576118 -94.77808,-95.576118 -52.34452,0 -94.77809,42.790768 -94.77809,95.576118 0,52.78534 42.43357,95.57612 94.77809,95.57612 52.34451,0 94.77808,-42.79078 94.77808,-95.57612 z"
     fill="#9f1c28"
     id="path5-2"
     style="fill:#000000;stroke-width:6.09079" />
  <path
     d="m 15.449471,440.78377 27.27766,-28.13513 14.087961,12.5233 44.412888,-49.06292 42.50404,49.02675 14.04853,-12.48713 46.47609,48.31157 14.42361,-9.61588 v 92.62845 H 82.169278 c -22.433457,0 -66.719807,-103.18901 -66.719807,-103.18901 z"
     fill="#2b753a"
     id="path6"
     style="fill:#009944;fill-opacity:1;stroke:#000000;stroke-width:3.54135;stroke-dasharray:none"
     sodipodi:nodetypes="cccccccccsc" />
  <path
     d="M 314.1988,543.97338 V 455.3341 l 8.43809,5.62611 46.47776,-48.31157 14.08762,12.5233 44.41272,-49.06292 42.50409,49.02736 14.04853,-12.48774 22.16914,23.04431 c 0.76929,16.33182 -48.01841,108.28043 -68.1006,108.28043 z"
     fill="#2b753a"
     id="path8"
     style="fill:#009944;fill-opacity:1;stroke:#000000;stroke-width:3.54135;stroke-dasharray:none"
     sodipodi:nodetypes="cccccccccsc" />
  <path
     d="M 81.220387,544.03775 C 80.06772,543.07159 144.20507,437.29808 144.20507,437.29808 l 14.42113,14.13023 45.13045,-68.94733 13.65682,17.84295 43.1178,-70.00636 41.26153,69.94874 13.61274,-17.78533 45.13045,68.94733 14.42031,-14.13023 65.31003,106.73967 c 0.24071,0.39341 -66.6186,69.318 -173.84249,69.3888 -67.62794,0.0447 -140.40145,-31.8361 -185.203453,-69.3888 z"
     fill="#1d8842"
     id="path9"
     style="fill:#009944;fill-opacity:1;stroke:#000000;stroke-width:3.54135;stroke-dasharray:none;stroke-opacity:1"
     sodipodi:nodetypes="sccccccccccss" />
  <path
     d="M514.998 5v364.97c0 134.775-114.165 244.04-255.012 244.04C119.163 614.01 5 504.736 5 369.97V5Z"
     fill="none"
     stroke="#000"
     stroke-width="10"
     id="path5" />
</svg>
