<?xml version="1.0" encoding="UTF-8"?>
<svg width="580" height="702.85" viewBox="0 0 435 527.14" xmlns="http://www.w3.org/2000/svg">
<path d="m217.34 2.136h215.51v316.76c0 113.82-96.417 206.09-215.37 206.09-118.93-1e-3 -215.34-92.281-215.34-206.09v-316.76z" fill="#fcdb00" stroke="#000" stroke-width="4.2715"/>
<path d="M81.447 22.514c-1.238.011-2.469.094-3.632.374-3.29 1.013-5.716 4.112-6.568 7.371-2.217 8.785-1.034 17.23-.322 26.095.571 6.157 2.286 12.073 3.028 18.2.792 5.266 1.113 10.571 1.133 15.886-.12 1.906.12 4.002-1.334 5.466-2.818 3.149-7.019 5.235-10.489 7.612 3.37.3 6.739 1.212 10.128 1.242-.26 1.013-.51 1.304-.762 2.317-4.643.05-9.577.382-13.578-2.416-3.831-2.738-7-6.438-10.48-9.607-10.136-9.478-22.972-22.983-41.124-19.186 10.145 5.016 20.412 16.303 28.66 26.636 4.973 4.894 9.858 10.681 15.684 14.421a39.453 39.453 0 0 0 13.408 5.717c3.82.863 7.892.381 11.663 1.334 3.32 1.625 6.027 4.813 8.514 7.49 5.586 6.59 10.54 14.162 10.52 23.137.231 4.232-1.184 8.003-3.089 11.693 2.307.421 4.604.843 6.89 1.295-7.762 4.553-17.54 4.964-25.722 1.263-12.787-5.566-24.652-12.316-38.621-15.405-4.754-.852-10.57-1.043-14.932 1.344-2.567 1.304-4.614 3.38-6.088 5.847l.894 1.554c5.285.722 11.202-.521 16.286 1.133 3.941 1.374 7.611 3.711 11.222 5.787 9.005 5.436 17.92 10.982 27.238 15.875 6.869 3.71 14.61 5.566 22.413 4.894 5.225-.401 9.978-2.096 14.912-3.69 6.107 8.494 13.849 17.76 17.128 27.778 1.605 4.764-1.252 8.665-3.68 12.486 1.936 0 3.871.04 5.797.11-1.885 2.267-3.38 4.323-6.558 4.533-13.93 1.174-27.308-1.193-40.847-4.06-7.812-1.645-15.905-.613-22.313 4.38-2.818 2.037-4.322 4.895-5.706 8.003 4.744.351 9.095-.841 13.658-1.814 5.184-1.093 9.578.672 14.372 2.366 9.356 3.53 18.03 7.501 28.02 9.367 5.445.752 11.09.832 16.165-1.545 4.382-1.835 7.282-5.024 10.5-8.363 1.465 2.497 2.658 5.345 4.533 7.56 3.32 3.25 9.727 3.291 13.528 5.568 3.68 2.607 6.689 5.285 11.372 5.967 4.653.481 9.557.58 13.337-2.618 2.919-2.357 3.02-6.338 2.589-9.757-.853-5.014-4.534-8.635-7.452-12.536-2.387-3.13-3.6-6.91-3.841-10.81-.492-9.127.101-18.131.793-27.107-.02-6.93-1.484-14.853-5.706-20.518-1.454-1.935-3.461-2.457-5.597-3.38-1.063 6.679 2.448 12.326 1.816 18.875-.532 8.414-3.23 17.067-4.734 25.29-1.694 10.61 1.023 18.447 1.795 28.826-1.163-.177-2.862-.548-2.862-.548s-1.77-12.38-2.4-16.027c-2.138-3.889-5.117-5.843-5.809-10.215-2.457-13.508-9.688-26.324-17.992-37.095-2.537-3.42-5.735-6.357-8.122-9.857-1.114-4.784-.964-9.768-2.217-14.562-3.821-16.287-11.563-31.93-20.589-45.95-.752-1.293-1.685-2.618-1.735-4.152-.401-9.216 1.595-17.66-1.283-26.656-3.89-12.445-9.748-23.106-10.85-36.474-1.004-7.28.03-13.908 2.707-20.687-1.188-.005-2.431-.065-3.669-.054zm270.755 1.957c-1.523-.08-3.075.684-3.72 2.188-1.715 3.67-.842 8.665-.792 12.616.632 8.695-1.604 16.507-4.061 24.74-1.605 5.365-3.982 10.8-4.855 16.335-1.183 9.236 1.304 18.664 3.27 27.62-4.804 3.981-9.497 8.363-12.997 13.568-5.806 8.504-9.045 18.473-10.399 28.631-.712 6.76-.412 13.7-.221 20.488-12.104 8.033-19.144 20.147-24.138 33.475-2.156 5.575-3.55 11.333-4.793 17.17-.963 5.314-4.73 10.228-7.878 14.554l-1.298-1.015s3.124-5.336 3.362-6.478c-2.379-4.324-2.057-5.793-2.814-10.3a93.05 93.05 0 0 0-2.264-10.02c-1.023-3.73-2.919-7.141-3.901-10.862-1.465-6.609-.873-12.725-1.244-19.364-5.015 1.775-7.49 4.764-8.554 9.948-2.025 11.964-1.405 24.94-1.425 37.044.01 3.34-.631 6.64-1.965 9.708-1.916 4.533-5.566 7.842-7.732 12.345-1.183 2.366-2.446 5.787-1.453 8.384 2.557 4.252 7.56 6.619 12.484 5.847 14.712-1.796 26.255-10.35 35.47-21.502 6.97 3.269 13.84 5.977 21.693 5.936 11.984.351 22.213-3.92 32.733-9.035 10.972-5.185 23.998-3.38 34.507-5.085-.17-3.19-2.988-3.941-5.384-5.265-12.877-5.475-25.745-3.93-38.952-.721-9.316 2.146-18.2 6.519-27.927 5.486-3.05-.26-5.466-1.695-7.872-3.44 2.557-.28 5.123-.451 7.69-.632-3.95-4.222-6.649-9.086-5.947-15.063 1.414-8.514 6.87-16.476 12.045-23.205 2.266-2.617 4.231-5.656 8.132-5.405 9.367.18 18.543-.071 27.589-2.79 12.074-3.459 21.282-10.9 31.19-18.16 8.323-6.027 17.95-8.584 28.049-9.658-4.393-5.686-11.041-5.947-17.64-5.064-8.665 1.544-17.039 5.485-24.891 9.356-7.542 3.74-14.802 9.427-22.855 11.303-4.854 1.324-9.819 1.383-14.793.881 1.745-1.032 3.54-1.985 5.335-2.938-2.126-1.915-4.622-3.72-6.287-6.057-2.186-13.127 3.428-25.403 11.381-35.511 2.277-2.748 4.665-6.178 7.804-7.943 3.25-.832 6.81-.26 10.108-1.152 10.751-2.477 19.204-9.849 25.933-18.263 3.62-4.532 5.657-9.326 10.2-12.876 6.63-5.275 15.403-8.153 22.203-11.944 1.946-1.033 2.638-2.658 3.34-4.633-3.73-1.675-7.24-2.588-11.313-1.475-8.173 2.136-15.824 6.76-22.614 11.684-5.967 4.282-9.438 10.43-14.933 15.163-3.179 2.788-6.658 5.756-10.559 7.45-2.186.803-4.684 1.034-6.088-1.222-2.888-4.152-3.77-9.958-4.251-14.902-.742-14.782 4.342-30.087 2.637-44.728-.732-4.733-2.136-10.81-5.836-14.14-.692-.676-1.595-1.027-2.509-1.074zM212.429 236.448c-9.41-.123-18.732.8-26.186 3.19-1.295 5.247-.927 11.548-4.838 16.06-4.874 5.306-11.241 6.79-18.09 7.833 2.597 3.8 5.562 7.302 8.67 10.682-4.432 4.864-8.012 9.998-8.774 16.717-.662 8.173 1.565 16.737 5.657 23.806 2.777 4.874 7.15 8.246 10.018 13.04 2.814 7.42 9.108 14.69 10.853 21.545l6.227 1.34c-4.889 2.537-7.596 5.043-8.877 9.896-2.727 6.78 3.72 14.31 10.62 14.411 6.748.482 15.353-.54 19.295-6.838-3.26-4.743-10.29-8.656-12.727-14.563-1.374-3.58 1.556-7.863 1.837-11.583 1.294-18.814-.413-37.425-9.037-54.463-2.407-4.904-5.795-9.036-8.743-13.589 1.348.07 2.81.115 3.947.243.753.744 1.176 1.106 1.939 2.164 8.915 10.891 13.078 25.662 14.933 39.391 1.494 9.798 1.222 19.296 1.011 29.173 6.92.01 13.841.12 20.75-.07.221-12.275.24-24.55.46-36.814.482-11.743 4.534-22.395 10.29-32.514l2.999.36c-3.871 7.712-6.588 15.697-7.922 24.23-2.397 14.883-2.899 30.096-1.946 45.129.34 2.948-1.013 5.064-2.728 7.28-3.97 5.095-8.253 9.959-12.415 14.902 2.688 2.437 5.347 5.174 9.178 5.445 4.051.29 8.272.371 12.274-.42 3.43-.813 7.08-2.536 8.023-6.257 1.033-5.706-1.063-10.67-3.269-15.765 2.307-.21 4.623-.453 6.93-.714.862-3.099 1.404-6.257 2.046-9.415.822-4.383 4.162-7.923 6.78-11.403 6.066-7.721 10.749-16.096 11.932-26.004 1.023-6.308.351-13.327-2.537-19.094-1.905-3.85-5.096-6.179-7.703-9.407-.682-2.056.191-4.764.351-6.91-5.234-1.234-12.837-2.657-16.147-7.33-3.249-5.115-1.933-13.087-2.124-18.904-8.612-2.73-20.859-4.62-32.958-4.78zm83.157 30.973c-8.574.096-17.063 2.353-24.465 7.052 1.816 2.918 4.13 6.627 5.5 9.692 2.81-.079 5.272-.596 7.628-.927 6.79-1.253 12.275-4.452 18.142-7.862 4.121-2.377 8.354-3.08 12.876-4.393-6.296-2.405-13.013-3.636-19.681-3.561zm-144.349 3.093c-4.535-.03-9.119.578-13.745 1.471 7.13 2.828 15.133 9.227 22.855 8.734 2.527-1.614 4.261-4.783 6.116-7.13-5.008-2.189-10.086-3.042-15.226-3.076zm-26.267 4.998c-3.311.054-6.572.958-9.782 2.23-5.194 2.046-9.326 5.355-13.649 8.785 9.307 3.63 16.207 10.158 25.834 12.686 5.243-.132 28.41 5.88 30.74 2.729-.646-4.26-.353-10.26.269-13.9-8.826-4.473-18.012-8.474-27.399-11.603a17.696 17.696 0 0 0-6.014-.927zm191.544.684a35.254 35.254 0 0 0-3.404.142c-5.896.552-10.71 3.159-15.674 6.157-5.686 3.74-13.91 3.73-20.499 4.102.512 3.36 1.245 11.372.743 15.472 5.456 1.785 12.488-.098 18.074-.89 11.212-1.775 25.329-10.74 34.736-16.968 1.564-.832 1.534-2.778.18-3.77-3.911-3.064-9.154-4.208-14.155-4.244zm-62.993 4.325c3.811 4.422 8.132 9.766 9.416 15.553.792 3.65-1.293 6.95-4.492 8.565-5.025 2.738-10.05 2.237-15.514 1.735 3.54-8.594 6.579-17.47 10.59-25.853zm-77.248 2.206c6.216 8.103 12.835 16.347 18.046 23.405-5.205 2.918-12.364 5.657-18.22 3.31-3.02-1.052-4.264-4.02-4.925-6.909-.613-7.605 1.892-14.143 5.1-19.806zm77.516 6.247c-2.497 4.763-4.523 9.728-6.228 14.833 3.199-.11 6.61.46 9.208-1.806 2.116-1.645 2.045-4.231 1.694-6.638-.421-2.687-2.828-4.594-4.673-6.389zm-76.516 3.33c-2.588 3.339-3.922 9.487-.753 12.796 3.239 2.598 6.99-.402 10-1.846-2.97-3.77-5.908-7.501-9.247-10.951zm40.826 83.064c-4.792.021-8.764 2.114-12.918 4.505 2.618 4.683 6.819 9.267 12.495 9.668 6.138-.562 9.698-4.634 13.017-9.357-3.48-2.457-6.619-4.743-11.081-4.753a16.794 16.794 0 0 0-1.514-.063z"/>
<path d="M208.134 349.054c5.746-.522 16.11-.17 21.877-.12-2.337 5.074-7.583 10.37-11.644 14.131-4.302-3.41-10.614-7.985-10.233-14.011z" fill="#000"/>
<path d="M217.642 410.66c-.491 0-.98.006-1.469.022-7.308.236-15.366 3.071-21.692 8.025-6.056 4.742-10.516 11.33-11.618 19.505 3.946 4.273 6.436 9.83 7.787 15.387 3.543-4.314 8.415-7.56 13.28-9.713l.022-.01.024-.01a41.926 41.926 0 0 1 16.85-3.227c5.515.097 10.8 1.289 15.467 3.345 4.007 1.765 7.581 4.194 10.449 7.136 1.378-4.51 3.56-8.686 6.973-12.207.024-.025.051-.049.076-.074l-.234.062c-5.145-19.738-20.704-28.193-35.915-28.242zm-61.125 21.41c-13.043.229-20.665 4.19-24.596 10.5-4.101 6.584-4.358 16.428-1.063 28.414 7.491-3.855 16.32-5.996 25.171-6.308 10.594-.373 21.254 1.936 29.68 7.386-.498-3.56-.517-8.04 1.276-12.432-.785-6.557-3.377-13.898-7.812-18.531-4.889-5.106-12.604-8.07-19.974-9.025a73.91 73.91 0 0 0-2.681-.004zm125.434.909a31.003 31.003 0 0 0-6.734.637l-.024.008-.026.005c-8.692 1.63-14.318 4.652-18.091 8.544-3.582 3.694-5.573 8.28-6.687 13.604 1.77 2.873 2.94 6.059 3.322 9.481l.003.026.001.024c.26 2.919.069 5.326-.224 7.438 14.886-9.739 32.45-10.11 46.664-4.205 4.554-7.441 7.79-14.124 4.93-22.711-2.17-4.964-6.586-8.62-12.056-10.751-3.442-1.341-7.272-2.052-11.077-2.099v-.001zm-61.18 12.348c-4.888-.089-10 .787-14.973 2.851-5.786 2.567-11.416 6.93-14.026 12.252l.024.252-.164.015c-.057.123-.135.238-.19.362-3.105 7.096.304 16.05.304 16.05l-3.787 2.57c-7.703-7.395-19.684-10.754-31.763-10.329-12.08.425-25.083 3.744-31.765 11.687-5.338 6.345-5.568 14.891-3.386 22.113 29.02 13.942 61.76 21.837 96.448 21.837 34.943 0 67.911-8.013 97.09-22.146 3.083-6.19 1.904-17.305-3.798-22.177-15.063-12.87-40.355-16.924-59.432-.772l-3.639-2.76s1.972-4.213 1.343-11.373c-.837-7.454-6.487-13.9-14.647-17.495-4.08-1.797-8.747-2.851-13.636-2.94zM177.344 21.925c-5.014 2.528-9.878 5.527-14.673 8.455 4.142 6.65 8.896 12.927 13.328 19.385 5.255 7.702 10.67 15.284 15.996 22.936 2.216-1.053 4.401-2.177 6.587-3.31-6.749-15.956-14.169-31.64-21.239-47.465zm83.498.322c-1.765 2.337-3.08 5.094-4.454 7.681-6.98 13.538-14.37 26.878-21.22 40.487a217.887 217.887 0 0 0 4.503 2.977c8.394-10.35 16.558-20.9 24.802-31.38 3.159-3.95 6.336-7.892 9.244-12.054-4.061-2.788-8.252-5.946-12.875-7.71zm-55.13 10.702V87.03h-52.527v22.767h52.528v113.597h22.768V109.797h52.528V87.03h-52.528V32.95zM147.7 44.529c-3.882 3.942-6.46 9.297-9.347 13.98 8.935 5.506 18.272 10.37 27.407 15.534 7.16 3.911 14.17 8.144 21.47 11.784 1.394-1.775 2.789-3.55 4.173-5.334-14.451-12.125-29.153-23.95-43.704-35.964zm149.223 3.06c-15.876 8.865-31.59 18.021-47.375 27.037.561 1.634 1.123 3.258 1.685 4.893 6.84-1.585 13.45-4.362 20.098-6.608 10.78-3.941 21.71-7.482 32.432-11.574-2.066-4.664-4.252-9.346-6.84-13.75zm-50.243 68.315c-1.344 1.464-2.587 3.018-3.82 4.573 8.844 6.187 18.19 11.812 27.186 17.759a762.732 762.732 0 0 0 19.826 12.737c3.18-4.773 6.048-9.799 8.465-15.003-9.507-3.931-19.154-7.5-28.711-11.311-7.682-2.808-15.173-6.218-22.945-8.755zm-62.318.56c-2.226 1.344-4.352 2.909-6.448 4.463-11.482 8.534-23.126 16.89-34.509 25.574 3.26 4.372 6.559 8.674 10.13 12.795 7.701-8.213 14.901-16.897 22.363-25.331 4.082-4.804 8.425-9.277 12.196-14.341-1.234-1.063-2.468-2.137-3.731-3.16zm12.976 8.425c-5.566 10.119-10.238 20.759-15.503 31.048-3.159 6.66-6.89 13.146-9.548 20.016 5.786 2.598 11.692 5.215 17.75 7.04 3.217-20.715 9.84-38.702 11.533-57.734-1.404-.14-2.818-.26-4.232-.37zm40.024.07a51.761 51.761 0 0 0-5.716 2.517c1.354 5.114 3.39 10.05 5.065 15.054 4.763 13.217 9.215 26.524 14.04 39.711 5.184-1.865 10.25-4.02 15.284-6.267a74.587 74.587 0 0 0-3.21-6.469c-5.797-10.26-11.654-20.487-17.38-30.787-2.747-4.663-5.053-9.357-8.082-13.76z"/>
<path d="M209.232 36.468v54.078c-16.825.014-35.154.006-52.527.006v15.723c17.507-.14 52.527-.025 52.527-.025v113.623h15.724V106.29s35.155-.016 52.529-.016V90.552c-17.498.393-52.529.07-52.529.07V36.468zm-25.378 82.288s-11.688 9.362-16.973 13.183c-4.994 3.73-10.139 7.25-15.193 10.89-1.534 1.224-4.623 3.892-4.623 3.892s4.342 6.288 6.438 8.695c6.288-5.846 31.994-35.237 31.994-35.237zm64.069.086-1.496 1.66s7.992 5.189 12.505 7.856c10.219 6.098 19.747 13.208 30.077 19.125a63.46 63.46 0 0 0 5.866-10.11c-11.913-5.435-46.952-18.53-46.952-18.53zm-49.943 8.27s-6.578 14.724-9.757 21.303c-4.142 8.885-8.827 17.34-12.788 26.276 4.131 1.976 8.335 3.76 12.737 5.014 2.517-9.156 11.793-52.32 11.793-52.32zm39.273.524-3.275 1.528s13.762 39.088 18.586 49.878c3.54-1.354 6.95-2.908 10.179-4.913-8.871-15.032-25.49-46.494-25.49-46.494zM148.298 48.25c10.63 8.033 39.974 32.262 39.974 32.262l-1.195 2.332s-10.027-5.29-15.703-8.319c-7.541-4.112-14.892-8.534-22.534-12.455-2.146-1.234-6.268-4.844-6.268-4.844s3.14-6.428 5.727-8.976zm27.408-22.664c4.032 5.896 6.108 12.114 9.086 18.522 3.57 7.652 10.55 24.11 10.55 24.11l-2.909 2.16s-4.873-7.747-7.41-11.618c-6.178-9.276-12.957-18.162-18.894-27.598 3.119-2.006 6.258-3.952 9.577-5.576zM295.928 51.24c1.835 2.627 3.3 5.435 4.784 8.263-8.424 4.252-17.39 6.378-26.135 9.768-6.779 2.447-22.006 7.923-22.006 7.923l-.589-1.777s35.583-20.638 43.946-24.178zm-34.187-25.794c2.928 1.374 5.696 3.029 8.454 4.724-3.059 5.034-6.71 9.607-10.44 14.15-7.03 8.604-20.088 26.659-20.088 26.659l-2.076-1.036s17.761-34.007 24.15-44.497z" fill="#f00000"/></svg>
