<?xml version="1.0" encoding="UTF-8"?>
<svg width="411.26" height="497.52" viewBox="-175.93 -213.74 411.26 497.52" xmlns="http://www.w3.org/2000/svg">
<path d="M29.56-209.74h201.77V86.83c0 106.56-90.271 192.95-201.64 192.95-111.35 0-201.62-86.397-201.62-192.95v-296.57z" fill="#f00000"/>
<path d="m-171.93-207.74v119.35l300.21 341.02c21.936-11.078 40.654-24.618 56.421-40.415 21.211-24.375 36.241-53.832 42.846-86.18l-293.83-333.77h-105.65z" fill="#fff" stroke="#000" stroke-dashoffset="4.58" stroke-linejoin="bevel" stroke-miterlimit="20" stroke-width="4"/>
<g fill="#f00000" stroke="#000" stroke-dashoffset="4.58" stroke-miterlimit="20" stroke-width="4"><circle cx="23.696" cy="13.87" r="55.687"/><circle cx="123.43" cy="127.16" r="55.687"/><circle cx="-76.034" cy="-99.417" r="55.687"/>
</g>
<path d="m29.56-209.74h201.77v296.57c0 106.56-90.271 192.95-201.64 192.95-111.35 0-201.62-86.397-201.62-192.95v-296.57z" fill="none" stroke="#000" stroke-width="8"/>
</svg>
