<?xml version="1.0" encoding="UTF-8"?>
<svg  viewBox="0 0 409.26 490.14" xmlns="http://www.w3.org/2000/svg">
<path d="M406.257 3v291.18c0 106.558-90.269 192.941-201.635 192.941C93.275 487.121 3 400.73 3 294.18V3z" fill="#fff" stroke="#000" stroke-width="5.9998"/><g fill-rule="evenodd">
<path d="m70.848 33.27 11.145 34.979 36.31-.073-29.415 21.546 11.281 34.936-29.321-21.66-29.328 21.66 11.285-34.936-29.41-21.546 36.3.073z" fill="#f00000"/>
<path d="m70.848 100.216 25.05 18.505-9.64-29.849 25.177-18.447-31.073.063-9.514-29.853-9.522 29.853-31.072-.063L55.43 88.872l-9.64 29.849 25.051-18.505zm-33.594 30.385 12.922-40.03-33.64-24.651 41.525.078 12.787-40.103 12.78 40.109 41.525-.074-33.64 24.641 12.932 40.02-33.597-24.812z"/>
<path d="m204.422 33.27 11.146 34.979 36.3-.073-29.41 21.546 11.285 34.936-29.327-21.66-29.332 21.66 11.297-34.936-29.406-21.546 36.296.073z" fill="#f00000"/>
<path d="m163.823 70.425 25.176 18.447-9.64 29.849 25.061-18.51 25.046 18.51-9.629-29.849 25.177-18.447-31.073.063-9.52-29.853-9.52 29.853zm74.191 60.165-33.588-24.811-33.593 24.811 12.926-40.019-33.644-24.651 41.524.084 12.787-40.109 12.786 40.109 41.526-.074-33.646 24.641 12.927 40.02z"/>
<path d="m335.458 33.27 11.152 34.979 36.3-.073-29.404 21.546 11.28 34.936-29.328-21.66-29.322 21.66 11.276-34.936-29.4-21.546 36.301.073z" fill="#f00000"/>
<path d="m335.458 100.216 25.057 18.505-9.64-29.849 25.177-18.447-31.073.063-9.52-29.853-9.515 29.853-31.073-.063 25.177 18.447-9.65 29.849zm-33.598 30.385 12.932-40.03-33.639-24.651 41.526.078 12.78-40.103 12.786 40.109 41.525-.074-33.64 24.641 12.922 40.02-33.594-24.812z"/></g>
<path d="m109.27 380.12c-20.468-0.396-37.655 15.853-43.019 54.321 34.53 31.207 80.55 50.858 131.37 52.519-14.406-62.92-55.572-106.21-88.347-106.84z" fill="#094"/>
<path d="M109.2 377.91c-7.448-.12-14.38 1.829-20.442 5.848-12.604 8.36-20.869 25.172-24.442 48.927 1.308 1.213 2.614 2.432 3.958 3.61 3.088-23.985 10.864-40.786 22.958-48.807 10.703-7.099 24.692-6.76 39.395.953 26.426 13.854 53.53 50.087 64.712 98.47 1.52.069 3.057.08 4.588.11-11.369-50.284-39.644-88.096-67.217-102.55-8.11-4.248-16.068-6.442-23.51-6.56z"/>
<path d="M296.42 380.124c-32.79.634-73.983 43.961-88.368 106.93 50.666-.814 96.784-19.459 131.757-49.724-4.89-40.54-22.42-57.607-43.395-57.202z" fill="#094"/>
<path d="M296.486 377.91c-7.448.12-15.406 2.313-23.515 6.567-27.582 14.464-55.88 52.301-67.232 102.628 1.541-.01 3.066-.073 4.598-.11 11.161-48.425 38.28-84.7 64.717-98.565 7.678-4.025 15.15-6.04 22.068-6.04a30.859 30.859 0 0 1 17.333 5.092c12.546 8.328 20.453 26.104 23.285 51.556a182.81 182.81 0 0 0 4.031-3.473c-3.322-25.275-11.74-43.113-24.848-51.812-6.057-4.02-12.99-5.968-20.437-5.848z"/>
<path d="m204.92 371.27c-31.775 0.517-63.144 37.5-35.9 112.81 11.563 1.975 23.448 3.062 35.604 3.062 12.322 0 24.363-1.114 36.071-3.134 30.203-75.004-3-113.26-35.775-112.74z" fill="#094"/>
<path d="M205.648 369.004c-9.197-.01-18.395 2.88-26.327 8.703-9.563 7.026-38.093 35.083-12.838 105.94 1.677.308 3.37.598 5.062.865-25.691-69.697 1.39-96.555 10.421-103.19 14.73-10.807 34.313-10.38 48.744 1.072 8.812 6.995 35.01 34.817 7.38 102.05 1.735-.276 3.47-.563 5.188-.885 27.062-68.27-.47-97.28-9.787-104.67-8.265-6.562-18.056-9.865-27.843-9.88z"/><g fill-rule="evenodd">
<path d="M70.862 184.475c9.267 4.131 14.652 10.23 19.51 15.75 9.428 10.683 16.98 19.24 49.64 9.312-26.712 6.032-38.29-5.005-47.722-14.02-6.61-6.307-12.099-11.55-21.428-11.042zm45.12 33.829c-15.625 0-22.162-7.417-28.963-15.12-5.964-6.76-12.13-13.75-25.223-17.12-2.183-.546-2.276-3.62-.126-4.302 16.984-5.442 25.484 2.672 33.708 10.521 10.333 9.864 21.026 20.057 50.197 11.14 1.63-.5 2.588.276 2.921.625 1.178 1.25.599 2.814.172 3.953l-.032.068c1.152 1.167.683 3.13-.869 3.656-13.702 4.698-23.9 6.579-31.786 6.579z"/>
<path d="M62.358 183.889c37.014 9.525 21.89 47.207 84.68 25.712-2.678.246 1.494-4.754-.812-4.046-54.926 16.8-48.65-32.969-83.878-21.666z" fill="#f00000"/>
<path d="m152.743 210.021-2.448 2.656a43.911 43.911 0 0 1-3.376 3.214l7.33-4.552zm-68.296 30.582h-.145c-6.303-.082-7.48-3.526-7.699-5.005-.109-.787-.39-4.792 5.167-6.505l.213-.063c4.813-1.244 9.912-2.353 14.833-3.426 17.964-3.938 36.526-8 46.947-19.052l8.313-9.046 17.124 15.093-23.229 14.411-.479.167c-23.863 8.23-43.217 12.494-60.9 13.421l-.15.005z"/>
<path d="m147.04 209.61c-14.42 15.297-41.493 17.974-63.946 23.76-3.172 0.985-2.635 2.713 1.267 2.76 19.675-1.031 39.581-6.25 59.68-13.176l17.687-10.975-9.322-8.213z" fill="#fd0"/>
<path d="M180.755 323.272c10.454 8.432 14.86 15.38 14.115 21.953-.599 5.249-4.25 9-9.396 12.103 5.385-1.63 11.037-2.65 16.39-3.62 8.563-1.54 17.423-3.135 19.526-6.822.88-1.547.724-3.975-.478-7.213l-.09-.261-6.734-22.37-33.322 6.23zm-48.3 58.733c2.02 0 3.875.448 5.558 1.339 2.91 1.536 5 4.224 6.295 8.098 6.298-6.172 15.267-11.02 27.026-14.603l-2.688-.548c-3.3-.667-4.713-4.604-2.577-7.214 1.755-2.15 3.76-3.967 5.948-5.52l-1.98.791c-6.202 2.459-12.625 5.016-17.286 8.125a4.467 4.467 0 0 1-4.672.183c-7.692-4.328-16-5.683-25.082-4.052a11.263 11.263 0 0 1 2.77 2.375c2.427 2.874 3.214 6.724 2.36 11.635 1.531-.4 2.968-.609 4.328-.609zm8.973 25.009a4.469 4.469 0 0 1-4.473-4.395c-.161-9.1-2.437-10.99-3.13-11.354-.672-.37-3.443-1.156-10.787 3.65-3.76 2.47-8.4-1.53-6.514-5.614 3.374-7.359 3.446-11.306 2.394-12.562-.468-.567-3.577-3.167-18.337.756-5.062 1.38-7.958-5.579-3.406-8.199 19.557-11.42 37.338-13.342 52.904-5.702 5.016-2.938 10.922-5.292 16.657-7.568 8.786-3.479 18.738-7.437 19.233-11.807.224-1.932-1.156-7.718-18.661-19.786-3.281-2.254-2.197-7.349 1.714-8.084l47.374-8.842a4.482 4.482 0 0 1 5.104 3.11l7.858 26.081c2.11 5.781 2.043 10.703-.202 14.625-4.172 7.312-14.15 9.12-25.702 11.197-8.152 1.48-17.09 3.09-23.854 6.86l14.187 2.87c4.927.974 4.76 8.067-.199 8.812-25.675 3.974-41.898 11.916-48.222 23.604a4.487 4.487 0 0 1-3.938 2.344z"/></g>
<path d="m217.22 311.91-47.363 8.839c29.504 20.348 22.67 28.666 8.359 35.327l6.854 6.094c20.588-6.876 47.675-3.428 40.046-24.047z" fill="#f00000"/>
<path d="M179.666 355.391c-8.85 4.37-21.208 7.906-29.396 13.369-15.608-8.765-32.707-6.178-50.848 4.422 20.354-5.407 30.286-1.866 21.161 18 13.776-9 20.547-4.892 20.843 11.368 7.235-13.375 24.875-21.78 51.48-25.895l-23.371-4.736c4.568-5.588 11.416-8.68 18.796-10.737l-8.665-5.791zm105.877 9.931-12.438.31a74.357 74.357 0 0 1 3.484 8.821c-11.38-1.303-22.958 1.514-34.743 8.838 9.588-1.719 18.037.129 24.672 7.675-7.307 4.808-10.531 14.345-12.354 25.486 20.15-22.01 27.632-21.787 27.16-7.584 6.349-18.265 18.698-23.655 33.474-23.811-13.51-4.568-26.037-9.661-29.256-19.734z" fill="#fcdb00"/>
<path d="M269.273 149.69c-19.671-.158-47.275 7.655-81.748 23.915-18.317 4.421-45.155-9.464-54.947 13.27-5.41-1.822-8.61.776-4.859 6.85 5.411 10.453 39.24 11.114 16.23 31.363 36.576-3.266 99.678-61.327 118.731-53.374 34.817 14.604 5.135 49.03-37.266 45.478-68.94 3.256-90.679 31.26-92.044 57.941 1.787 32.411 22.865 55.135 67.421 48.474l24.311 14.53c23.516-.968 39.92 8.745 48.931 29.542h12.459a16.197 16.197 0 0 1-1.386-3.964c-8.844-14.426 4.296-29.051-27.202-43.556 63.737-8.088 75.289-25.656 72.04-54.02-15.156 18.786-34.625 25.01-55.264 27.786 32.566-5.292 52.622-17.49 58.102-37.738-37.427 25.503-64.989 22.655-77.992-9.948 21.576-19.151 54.2-38.635 48.628-72.634-2.739-15.63-14.479-23.76-34.145-23.915zm49.843 138.236c-8.376 9.724-20.026 15.422-31.807 17.057 12.614-3.87 23.906-8.937 31.807-17.057z" fill="#f00000"/>
<path d="M269.033 147.423c-20.3-.11-48.165 7.994-82.247 24.051-5.719 1.324-12.614.776-19.286.24-13.459-1.073-28.655-2.28-36.155 12.51-2.818-.515-5.099.1-6.432 1.777-.953 1.208-2.12 3.948.864 8.811 2.177 4.11 7.521 6.688 12.697 9.194 5.25 2.536 10.662 5.15 11.136 8.603.36 2.631-2.11 6.359-7.136 10.781a2.24 2.24 0 0 0-.594 2.02l10.678-2.952.937-1.62a68.611 68.611 0 0 1-3.079.85c2.87-3.532 4.043-6.688 3.63-9.683-.795-5.833-7.322-8.983-13.63-12.037-4.535-2.197-9.243-4.462-10.702-7.29-.025-.047-.047-.099-.077-.147-1.527-2.462-1.35-3.577-1.215-3.749.157-.203 1.276-.521 3.453.197a2.245 2.245 0 0 0 2.762-1.234c5.885-13.681 18.822-12.661 32.503-11.556 7.11.552 14.463 1.145 20.911-.417.151-.036.298-.083.432-.151 46.598-21.985 82.129-28.98 100.055-19.672 6.948 3.594 11.204 9.662 12.666 18.01 4.47 27.287-16.514 44.54-36.816 61.238-3.907 3.224-7.604 6.256-11.088 9.36a2.236 2.236 0 0 0-.594 2.505c5.74 14.385 14.36 23.447 25.608 26.88 13.543 4.134 30.344.024 50.026-12.203-7.281 15.249-25.422 25.311-54.02 29.956-2.953.438-2.296 4.866.656 4.428 16.103-2.161 34.198-6.448 49.613-20.933a45.98 45.98 0 0 1-6.588 10.636c-8.13 8.724-19.922 13.495-31.353 17-2.568.838-1.72 4.666.963 4.349 11.875-1.641 25.265-7.61 34.546-19.349 2.292-2.61 4.312-5.516 5.953-8.797-1.551 17.245-14.42 32.157-69.82 39.176-2.23.282-2.7 1.188-.656 2.131 11.118 5.453 21.118 14.968 21.426 29.145.442 4.874.885 9.917 3.932 15.046 2.202 9.469 11.255 15.016 21.868 19.28-10.118 2.126-17.451 7.626-22.415 16.834-.672-1.536-1.73-2.854-3.375-3.526-4.417-1.808-11.051 1.938-21.13 12.077 2.15-8.229 5.287-13.42 9.803-16.38a2.231 2.231 0 0 0 .448-3.348c-4.49-5.099-10.037-8.052-16.59-8.818 8.282-3.593 16.558-4.926 24.708-4.005 1.615.188 2.885-1.358 2.385-2.905-8.431-26.02-26.248-38.786-53.013-37.89l-23.745-14.182a2.22 2.22 0 0 0-1.484-.287c-20.64 3.079-36.864-.03-48.192-9.275-9.984-8.13-15.733-20.916-16.64-36.989.891-16.775 10.88-43.712 63.103-52.859l2.495-4.947c-58.244 9.094-69.135 39.192-70.081 57.702v.239c.962 17.417 7.285 31.364 18.29 40.332 12.209 9.939 29.327 13.422 50.89 10.333l23.635 14.115c.374.214.801.323 1.234.323 24.098-.995 39.88 9.348 48.15 31.572-10.87-.479-21.833 2.708-32.677 9.437-2.082 1.302-.854 4.516 1.563 4.1 8.666-1.543 15.536.166 20.92 5.224-7.191 6.175-9.764 16.675-11.196 25.374a2.253 2.253 0 0 0 2.208 2.604 2.238 2.238 0 0 0 1.636-.73c15.77-17.202 20.488-17.12 21.576-16.671.448.188 1.912 1.265 1.694 7.505-.115 2.588 3.525 3.27 4.353.812 5.308-15.25 14.985-22.134 31.39-22.312 2.51-.03 3.073-3.546.693-4.354-12.573-5.676-26.145-8.781-29.363-19.76-1.824-4.937-2.199-9.4-2.62-14.067-.77-8.572-1.625-18.176-17.62-27.405 59.243-8.797 69.441-27.974 66.264-55.78a2.23 2.23 0 0 0-.375-1.032 40.743 40.743 0 0 0 3.151-8.11c.557-2.015-1.713-3.628-3.432-2.436-20.963 14.297-38.426 19.452-51.884 15.343-9.521-2.906-16.969-10.589-22.16-22.811 3.076-2.693 6.343-5.381 9.77-8.199 20.286-16.682 43.28-35.603 38.384-65.44-1.724-9.818-6.77-16.964-15.01-21.235-5.77-2.994-12.995-4.51-21.568-4.557z"/>
<path d="m185.25 252.39c61.58-50.422 100.42 37.472 150.62 56.212-32.682 11.155-56.994-32.473-86.206-46.109 22.109 10.735 39.947 36.636 65.362 46.426-24.78 21.729-64.414-48.895-104.2-37.576 40.613-6.068 58.326 33.176 88.2 40.535-16.426 20.202-54.41-31.858-90.726-28.854 31.374-1.291 49.02 22.364 73.535 33.556-40.411 10.5-45.833-20.91-80.477-23.451l-16.105-40.74z" fill="#f00000" fill-rule="evenodd"/>
<path d="M222.674 234.687c-12.051-.02-26.114 5.624-40.072 17.052-2.13 1.567-.964 5.51 1.641 4.219l3.676-2.86c38.922-30.8 67.993-4.64 98.754 23.051 13.457 12.114 27.316 24.603 42.056 31.797-4.77.546-9.604 0-14.13-1.61-9.787-4.02-18.53-10.526-26.86-17.535-2.238-1.917-4.457-3.89-6.713-5.876-9.702-8.599-19.754-17.484-30.43-22.462-2.668-1.21-4.547 2.733-1.922 4.041 9.76 4.735 18.65 12.5 28.066 20.724 2.745 2.4 5.51 4.811 8.324 7.171 8.093 6.954 16.395 13.37 25.19 17.036-2.936 1.443-6.114 1.688-9.499 1.047a2.237 2.237 0 0 0-1.224-.787 47.182 47.182 0 0 1-10.62-4.13c-5.847-3.411-12.123-8.124-18.743-13.114l-1.912-1.437c-9.968-7.937-20.15-16.005-32.609-20.005-8.327-3.13-16.848-4.276-25.452-1.833-2.667.776-1.802 4.77.948 4.364a50.007 50.007 0 0 1 23.62 1.953c10.572 4.136 21.01 11.74 30.754 19.062l.182.151c7.204 5.74 14.13 11.256 21.718 15.14a55.628 55.628 0 0 0 6.734 3.288c-7.134 3.951-17.983-2.387-33.868-12.396l-2.813-1.776c-11.63-7.98-23.77-15.761-39.14-17.745a42.87 42.87 0 0 0-10.229-.432 2.238 2.238 0 0 0-2.051 2.364 2.303 2.303 0 0 0 2.327 2.104c2.948-.13 5.907-.02 8.839.319 12.864 1.92 25.88 9.655 37.802 17.134l2.536 1.75c5.64 3.891 11.437 7.902 17.592 11.265-18.207 3.074-28.03-3.489-39.253-10.983-9.073-6.068-18.442-12.324-32.974-13.73-4.624-.598-5.005 4.042-1.744 4.34 14.166 1.035 23.347 7.176 32.228 13.114 9.214 6.155 18.67 12.462 33.176 12.462 4.682 0 9.9-.656 15.791-2.192.459-.115.87-.375 1.172-.745 6.088 1.661 11.453 1.12 15.833-3.203 5.797 1.27 11.245.5 16.254-3.484a34.743 34.743 0 0 0 20.948-.594c1.99-.682 2.032-3.479.063-4.214-16.344-6.098-31.91-20.114-46.967-33.67-20.917-18.823-42.307-38.083-66.999-38.135z"/><g fill-rule="evenodd">
<path d="m159.12 183.24c6.41 0 8.937-0.037 11.604 7.968 1.396 4.177-5.099 9.15-11.51 9.15s-13.203-4.66-13.203-9.056c0-4.4 3.005-2.843 8.962-6.11z" fill="#fff"/>
<path d="M158.503 185.675a7.082 7.082 0 0 1 7.025 7.135 7.083 7.083 0 0 1-7.025 7.125 7.077 7.077 0 0 1-7.021-7.125 7.079 7.079 0 0 1 7.02-7.135zM82.905 148.903c-.303-.016-.6.063-.86.224-.818.593-.818 3.353 1.792 7.342l.12.188c10.457 17.808 24.603 29.708 44.957 37.483l-3.802-5.057c-14.427-7.78-26.99-20.202-38.374-37.936-1.437-1.703-2.885-2.239-3.833-2.239zm69.394 61.504-12.532-3.376c-29.63-7.979-49.8-22.514-63.477-45.754-6.188-9.52-3.62-16.385.468-19.385 5.01-3.65 12.35-2.026 17.078 3.787l.298.41c10.785 16.88 22.582 28.51 36.03 35.546l.895.475 21.24 28.291z"/>
<path d="m90.358 148.5c-7.053-8.682-18.844-2.683-10.267 10.426 14.964 25.474 36.609 37.27 60.837 43.791l-12.838-17.109c-15.051-7.874-27.317-20.806-37.732-37.108z" fill="#fd0"/></g>
<path d="M131.346 185.742c2.353 4.095 6.265 5.048 10.208 4.97 3.984-.298 7.36-2.323 10.745-4.287 1.504-.875 5.181-2.62 8.186-3.599 5.199-2.37 11.48 4.636 10.75 10.453-.603 2.323-2.458 4.39-4.313 5.51-3.489 1.646-7.843 2.34-10.223 1.9-5.87-1.077-10.38-6.009-11.312-10.415" fill="none" stroke="#000" stroke-width="3.0293"/>
<path d="m165.49 189.85c0 2.672-2.563 4.833-5.72 4.833s-5.718-2.161-5.718-4.833c0-2.667 2.563-4.834 5.719-4.834s5.718 2.167 5.718 4.834z" fill="#fff"/>
<path d="m142.98 225.85c4.77-0.672 20.765-5.667 32.26-11.281 11.49-5.615 32.686-20.35 42.462-25.98 10.76-6.29 27.776-19.223 43.442-17.145 16.865 2.251 20.75 18.276 9.765 31.609-5.296 6.276-13.536 8.781-21.874 11.328-18.546 2.89-34.729 2.584-53.046 6.155" fill="none" stroke="#000" stroke-linecap="round" stroke-width="4.1652"/>
<path d="M406.257 3v291.18c0 106.558-90.269 192.941-201.635 192.941C93.275 487.121 3 400.73 3 294.18V3z" fill="none" stroke="#000" stroke-width="5.9998"/></svg>
