<?xml version="1.0" encoding="UTF-8"?>
<svg width="520" height="619"  xmlns="http://www.w3.org/2000/svg">
<path d="M514.998 5v364.97c0 134.775-114.165 244.04-255.012 244.04C119.163 614.01 5 504.736 5 369.97V5Z" fill="#fff"/>
<path d="m244.361 30.639c-3.816-.216-6.82 2.76-9.533 5.023-1.914 1.593-4.08 4.068-6.764 4.022-3.716.029-6.92-.742-10.468.898-4.674 2.025-6.628 5.84-9.575 9.686-1.733 2.363-3.087 5.59-5.375 7.433-3.325 2.31-7.818 2.698-11.693 1.805-4.283-.905-8.471-2.084-12.853-.766-4.668 1.768-7.808 5.363-10.317 9.547-3.57-.21-7.707-.59-11.133.629-3.752 1.278-6.467 4.588-7.453 8.37-.846 3.197-1.382 6.464-2.24 9.667-2.795 1.33-5.42.688-8.361 1.277-4.242 1.004-8.053 3.496-10.446 7.178-2.38-.537-4.516-1.208-6.996-1.004-2.468.193-4.656 1.657-5.963 3.729-1.762 2.789-2.976 5.824-3.822 9.01-3.921 1.435-7.41 3.548-9.773 7.084-4.009 5.794-4.686 12.772-4.149 19.623.088 1.832.588 3.933.162 5.736-.933 2.141-2.526 4.02-3.687 6.045-2.352 3.904-3.453 8.24-3.926 12.738-.572 4.668-3.583 8.36-7.002 11.365-1.879 1.658-4.243 2.966-4.955 5.534-.811 2.975-1.323 6.272-1.545 9.347-.21 3.641.979 6.762 1.994 10.17 1.348 3.239-1.959 6.815-2 10.258-.332 4.703 3.775 8.962 6.43 12.463-2.562 3.845-5.72 7.947-6.291 12.65-.578 5.777 1.682 11.1 5.002 15.698 2.077 2.707.566 5.641 1.867 8.664 1.494 3.927 6.086 6.775 8.303 9.984.362 4.58-1.984 9.598.385 13.922 2.905 5.24 8.752 8.147 13.648 11.035.012 4.674-1.92 8-1.016 12.457.677 2.918 1.88 5.794 3.28 8.438 1.943 3.705 6.792 5.847 9.074 9.103 1.202 2.387.87 5.538 1.826 8.018.496 1.22 1.722 1.908 2.86 2.44 3.168 1.405 6.459 2.6 9.832 3.423 3.407.776 7.211.606 10.677.355 2.655 2.2 5.596 4.43 8.8 5.76 3.01 1.26 6.33.375 9.265-.676 5.082-1.972 9.938-4.593 14.343-7.802 1.506-1.045 2.86-2.054 4.803-1.891 3.805.17 6.517 2.067 9.545 4.11 2.013 1.365 4.178 2.175 6.576 1.277 4.762-1.722 8.328-6.577 12.979-8.69 2.217-.968 4.707-1.114 7.094-.886 6.231.77 11.73 2.847 17.746 4.318 1.155 4.919.646 9.716 1.054 14.705.082 10.503-.011 21.01.006 31.514.304 15.772-.722 31.54-.238 47.289.228 4.143.724 8.097.1 12.234-.666 5.397-2.3 11.502-5.883 15.72-3.53 3.829-8.43 6.676-12.865 9.343-5.526 3.454-10.727 6.914-16.79 9.4-9.616 4.37-20.848 5.13-31.251 5.73-8.992.706-18.06.56-27.069.91-1.727.036-3.384 2.218-2.433 3.811 1.388 2.387 3.95 4.166 6.476 5.17 4.487 1.791 9.027 3.424 13.643 4.848-3.303 2.06-6.78 3.823-10.076 5.894-7.417 4.604-14.555 9.92-21.446 15.276-13.042 10.307-25.149 21.642-35.732 34.478l-2.72 4.848c45.31 39.522 105.56 63.627 171.694 63.627 69.87 0 133.151-26.91 179.21-70.461-5.812-6.814-12.785-12.028-19.829-17.496-8.939-6.763-18.187-13.2-27.896-18.819-10.66-5.963-21.9-10.818-33.53-14.564 2.965-1.902 5.953-3.735 8.614-6.115 1.155-1.068 2.258-2.177 2.771-3.711-.105-.876-.327-1.715-.53-2.573-2.183-.793-4.366-.723-6.647-.84-3.472-.291-6.962-.39-10.44-.484-2.976-.081-6.149.181-9.06-.449-2.463-.496-4.279-3-5.452-5.055-1.038-1.715-1.78-4.247-3.804-5.011-2.877-1.086-6.02-1.523-8.99-2.31-5.836-1.495-12.155-3.151-17.307-6.36-3.898-2.317-6.531-6.437-8.305-10.498-1.68-3.986-1.097-7.774-1.01-11.98.164-5.672.532-11.838-.728-17.376-1.12-5.216-1.511-10.655-1.879-15.97-.56-4.423-.262-8.876-.758-13.311-.572-15.358-.223-30.752-.328-46.121.006-5.654-.121-11.295.264-16.943 3.477-1.681 6.774-3.275 10.63-3.922 3.116-.683 6.572-.03 9.588.869 4.768 1.505 8.18 6.12 12.51 7.87 3.98 1.442 7.282.187 11.203-.554 1.477 2.772 2.83 6.466 5.672 8.106 2.527 1.36 5.467 2.019 8.197 2.87 2.259.602 4.81 1.594 7.16 1.43 4.832-.472 7.149-5.787 12.214-5.962 4.026.006 8.076 2.34 12.3 1.92 2.737-.199 4.57-2.062 6.233-4.034 1.377-1.698 2.91-3.045 4.906-3.967 2.935-1.365 5.507-2.894 8.705-3.408 2.848-.595 5.795-.065 8.62-.613 2.736-.63 4.521-2.87 5.122-5.531.893-3.828.998-7.586 2.707-11.221 1.237-3.104 4.225-4.48 6.098-7.322 1.319-2.054 2.09-4.489 2.633-6.852.776-4.487-.164-9.294.39-13.799 1.36-5.636 7.428-9.575 7.434-15.386-.24-3.735-2.048-7.284-2.229-11.077.123-2.363 1.05-4.837 1.592-7.148.619-2.433.597-4.726 1.828-6.99 2.766-5.45 5.46-11.099 5.192-17.371.046-3.916-1.656-6.896-3.016-10.444 2.463-4.709 4.494-11 2.96-16.27-1.08-4.41-6.222-7.858-6.233-12.45.688-4.71 2.883-8.98 2.9-13.928.298-4.137-1.652-8.346-4.033-11.625-1.371-1.943-3.967-3.559-4.516-5.881-1.283-4.516-2.088-9.196-3.558-13.648-.835-2.457-2.167-4.996-4.139-6.729-1.966-1.727-4.692-2.274-6.629-3.943-1.5-1.605-2.246-4.038-2.66-6.15-.724-3.572.561-8.31-1.19-11.56-1.464-2.217-4.79-2.807-6.226-5.34-2.072-3.728-3.314-7.422-6.565-10.439-2.771-2.707-6.319-2.852-9.796-4.113-3.7-1.307-7.825-2.982-10.684-5.748-2.1-2.363-2.176-6.528-3.256-9.457-1.33-3.658-2.9-7.926-5.736-10.691-3.116-2.824-6.822-2.946-10.807-3.004-4.02-.024-6.855-2.108-10.181-4.033-2.55-1.46-4.822-3.658-7.862-3.909-6.232-.688-11.044 3.5-17.545 2.537-2.065-.35-5.369-.798-6.308-3.01-2.317-6.237-4.34-13.473-9.627-17.913-3.315-3.04-7.346-4.51-11.653-5.55-2.678-.612-5.8.484-8.402 1.179-6.401 1.773-12.37 4.365-18.836 4.966-2.894.327-5.422-.764-8.24-1.4-2.748-.724-5.286-.526-7.795-2.06-3.07-1.81-5.211-4.161-9.063-4.22z"/>
<path d="m243.521 34.29q-.579.038-1.18.23c-4.09 1.604-6.784 6.428-11.009 8.103-3.472 1.307-7.884-.331-11.478.783-2.142.636-3.647 2.072-5.042 3.746-2.31 2.836-4.295 5.882-6.25 8.922-1.406 2.147-2.83 4.101-5.134 5.362-4.166 2.228-8.916 2.404-13.479 1.529-3.757-.654-7.994-2.007-11.681-.473-3.997 1.716-6.553 6.029-8.805 9.547-3.612-.25-7.919-1.26-11.338.1-2.351.81-4.201 2.472-5.111 4.795-1.436 3.658-1.587 7.896-3.075 11.548-.408.952-.94 1.78-1.966 2.141-1.984.63-4.255.519-6.327.781a15.4 15.4 0 00-7.55 2.819c-1.862 1.365-2.923 3.22-4.178 5.111-2.69-.461-5.408-1.225-8.133-1.348-1.546-.076-2.62.847-3.49 2.008-2.06 2.824-2.976 6.5-3.846 9.832-2.795.951-5.408 1.75-7.672 3.758-3.098 2.696-4.739 6.95-5.44 10.906-.799 4.58-.185 8.916.188 13.479.251 2.713-1.6 4.901-2.982 7.037-1.68 2.439-3.103 4.965-3.932 7.824-.957 3.262-.794 6.472-1.949 9.635-1.074 2.9-2.958 5.536-5.117 7.73-1.64 1.692-3.665 2.959-5.287 4.65-1.027 1.074-1.232 2.534-1.512 3.934-.607 3.892-1.161 7.534 0 11.397.671 2.795 2.306 6.068 1.174 8.88-.73 2.498-2.504 5.252-1.64 7.883 1.149 3.863 4.825 6.962 6.978 10.41-2.09 3.618-5.047 7.013-6.512 10.893-1.348 3.402-.566 7.33.846 10.586 1.073 2.52 3.04 4.422 4.26 6.815.98 2.439.17 5.654 1.285 8.082 1.704 3.652 6.219 5.636 7.69 9.248 1.382 3.594-.245 7.849-.198 11.49.006 2.007 1.533 3.734 2.857 5.094 2.294 2.363 5.06 3.967 7.96 5.46 1.411.817 3.425 1.822 3.769 3.579.81 4.02-1.552 8.099-.893 12.154.438 2.853 1.571 5.624 3.07 8.086 2.27 3.664 6.43 4.914 8.764 8.725 1.75 2.777 1.436 5.74 2.492 8.628 1.208 1.01 2.91 1.518 4.375 2.038 3.175 1.02 6.6 2.177 9.95 2.125 2.112.046 4.323-.31 6.412.017 3.186 1.284 5.49 4.643 8.957 5.752 2.596.811 5.434-.156 7.844-1.16 3.816-1.628 7.502-3.55 10.916-5.93 2.444-1.616 4.815-3.4 7.884-3.453 4.085.035 7.672 1.611 10.993 3.87 1.272.734 3.121 2.18 4.644 1.591 2.702-.834 5.066-3.326 7.225-5.094 3.343-2.748 7.118-4.75 11.564-4.65 6.979-.286 12.317 2.51 19.045 3.834-1.587-4.779-3.908-9.18-6.773-13.305-6.623-9.64-13.807-18.906-20.891-28.2-1.692.647-3.518 1.248-5 2.31-1.727 1.242-3.133 2.695-5.041 3.722-5.024 2.585-10.62 3.753-16.227 2.645.053-.496.098-.993.15-1.488 4.622-.607 9.006-2.148 13.423-3.817 3.401-1.383 5.035-4.097 7.818-6.197 1.82-1.482 4.936-.472 6.938-1.78 3.29-2.13 6.36-4.44 8.757-7.574 2.165-2.976 5.468-3.372 8.112-5.904 3.22-2.544 7.037-6.437 11.279-6.822 2.328-.362 4.873-.635 7.201-.162.181.583.274 1.172.268 1.767-2.959 2.025-7.417 1.464-10.457 3.623-1.763 1.319-3.157 3.035-5.024 4.26-2.287 1.488-4.644 2.86-6.885 4.43 3.204 3.577 6.05 7.433 9.196 11.05 1.529 1.78 2.977 3.63 4.435 5.467 2.644 3.379 5.578 6.5 8.21 9.885 2.858 3.635 5.618 7.33 8.792 10.703.642-5.526 1.542-10.988 1.606-16.572.88-15.364 1.744-30.7 1.691-46.098-2.649-.332-5.746-.53-8.174-1.72-.367-1.383.135-2.054 1.512-2.17 4.983-.135 10.083 1.101 15.043 1.574 5.339.636 10.222.256 15.193 1.78 3.396.968 6.366 2.69 9.325 4.57-.152.513-.298 1.025-.45 1.539-4.212-1.448-8.409-2.562-12.796-3.315-.502 5.672-.226 11.309-.01 16.986.058 5.468.56 10.9.88 16.356.66 8.466 1.284 16.904 2.282 25.33 5.718-7.679 11.518-15.68 18.619-22.074 6.424-5.602 13.8-8.968 21.63-12.102-1.552-2.089-4.417-4.539-4.253-7.31 1.254.28 2.275.74 3.261 1.556 2.562 2.113 4.82 4.63 6.559 7.46 1.19 1.866 2.246 3.985 3.734 5.63 1.255 1.383 3.076 1.843 4.85 2.158 3.14.502 6.144.35 9.248 1.313 2.918.893 5.892 2.55 8.186 4.562.957.823 1.056 1.238 1.004 2.522-3.134-.117-5.964-2.288-8.922-3.362-2.976-1.16-5.754-.804-8.87-1.236-2.153-.274-4.02-1.062-6.01-1.85-3.547 2.48-7.066 5.06-10.292 7.942-4.032 3.74-7.75 7.871-11.233 12.125-4.224 5.222-7.585 11.068-9.265 17.615 4.318-1.424 8.226-3.308 12.86-3.226 5.834-.035 11.308 2.433 15.667 6.209 1.832 1.5 3.43 3.192 5.898 3.513 3.35.514 6.887-1.501 10.12-.877 1.943 1.132 2.718 4.192 3.943 6.012 1.651 3.192 6.18 3.616 9.262 4.719 2.538.653 5.834 2.317 8.215.554 3.115-1.978 5.373-4.638 9.312-5.029 4.481-.52 8.012 1.33 12.29 1.815 1.82.256 3.162-1.185 4.34-2.346 1.845-1.96 3.59-3.869 6.017-5.135 3.99-2.1 8.407-4.114 12.982-4.242 2.048-.128 4.313.082 6.291-.484 1.062-.356 1.458-1.862 1.738-2.819.934-3.84 1.418-8.367 3.133-12.031 1.646-3.466 5.364-5.14 6.916-8.77 2.077-5.146 1.406-9.909 1.336-15.253-.064-3.63 1.488-6.774 3.682-9.563 1.657-2.211 3.688-4.442 3.91-7.336.064-3.08-1.67-6.22-1.99-9.336-.403-3.297.46-6.15 1.242-9.295.823-3.162 1.127-6.14 2.597-9.103 2.177-4.295 4.605-9.394 4.739-14.278.151-4.388-1.804-7.766-3.467-11.658 2.17-4.137 4.27-8.672 3.943-13.469-.397-4.942-5.594-7.928-6.656-12.83-.683-2.999.466-6.32 1.3-9.197.97-3.297 1.98-7.229 1.057-10.63-.933-3.11-2.888-5.999-5.082-8.362-1.248-1.395-2.451-2.639-3.07-4.453-1.71-5.217-2.048-11.558-4.615-16.447-1.675-3.052-4.604-3.812-7.387-5.487-3.314-1.768-4.64-6.12-5.072-9.592-.49-3.115.269-6.688-.758-9.658-1.61-1.832-4.137-2.759-5.643-4.853-2.275-3.169-2.945-6.944-5.898-9.838-2.474-2.562-6.605-3-9.873-4.184-3.944-1.412-8.11-3.362-11.115-6.355-2.282-2.288-2.896-5.081-3.56-8.121-.748-3.676-2.248-7.162-4.296-10.29-1.033-1.575-2.433-2.83-4.312-3.238-2.97-.63-6.062-.093-9.067-.927-4.878-1.372-8.308-4.34-12.521-6.733-2.346-1.377-4.64-.63-7.09-.035-3.273.957-6.307 2.07-9.785 2.088-3.168.052-6.95-.461-9.565-2.399-2.509-1.832-3.226-5.29-4.2-8.074-1.646-4.796-3.875-9.832-8.286-12.697-3.472-2.258-8.152-4.294-12.342-3.215-6.786 1.599-13.536 4.69-20.45 5.758-3.496.566-6.835-.035-10.214-.898-3.775-.998-7.48-1.092-10.748-3.333-2.216-1.358-4.588-3.426-7.293-3.234zm12.03 29.368c3.551.091 7.099 1.68 10.195 3.293 3.647 1.879 6.028 4.813 9.961 5.723 3.594.846 6.833.013 10.246-1.055 5.135-1.593 10.773-1.266 15.283 1.832 1.512 1.12 3.396 2.344 3.776 4.328-2.906-.274-4.785-1.954-7.563-2.818-3.77-1.214-7.504-.734-11.22.387-3.892 1.22-7.984 1.685-11.981.681-4.137-1.143-6.664-4.365-10.783-6.197-2.498-1.085-5.293-2.532-8.047-2.613-4.96.192-7.708 3.233-12.545 4.435.52-1.406.859-2.73 2.049-3.734 2.76-2.422 6.174-4.213 9.92-4.26q.354-.01.709-.002zm-32.412 29.658c5.018-.02 10.144 1.717 14.453 4.112 5.671 3.5 10.463 8.348 16.217 11.802 1.908 1.395 4.329 2.125 4.545 4.803-4.003-1.733-8.133-3.407-11.897-5.625-4.131-2.841-7.778-6.242-12.19-8.699-1.12 9.756-2.468 19.494-3.869 29.215.736.42 1.464.836 2.194 1.262a35 35 0 00-.268 2.328c-5.811.076-11.385-1.478-17.156-1.659-2.707-.093-5.256.58-7.707 1.688-3.32 1.505-6.74 2.397-9.576 4.451-1.862 1.284-3.326 2.684-5.637 3.139-.163-.805-.42-1.494.064-2.24 1.103-1.81 2.987-3.274 4.563-4.657-1.966-7.51-4.177-14.931-6.424-22.359-3.98.04-7.907-.216-11.752-1.313-1.575-.396-3.266-1.08-4.9-1.068-1.616.17-3.221.922-4.744 1.47-2.912 1.144-5.917 1.926-8.952 2.673-.087-.595-.17-1.184-.257-1.78 3.652-1.896 7.353-3.747 11.123-5.392 1.692-.741 3.015-.823 4.812-.39 4.75 1.248 9.968 2.317 14.899 2.077 4.487-.268 8.203-2.96 12.113-4.925 3.098-1.512 5.361-3.92 8.139-5.864 2.958-2.054 6.56-2.568 10.066-2.93q1.065-.115 2.14-.119m94.53 1.72c3.69-.08 7.553 1.104 10.116 3.81 1.96 2.024 2.854 4.456 4.436 6.68 1.056 1.476 2.567 2.112 4.172 2.83 4.288 1.837 9.085 3.524 12.738 6.476 2.976 2.41 5.705 5.008 7.105 8.666 1.622 4.201 2.06 9.067 2.83 13.496l-1.75.246c-1.44-4.382-3.116-8.69-4.755-13.002-1.32-3.472-4.02-5.18-6.797-7.38-5.293 7.52-10.037 15.486-14.594 23.474 2.567 1.535 5.344 2.148 8.144 3.053 1.092.233 1.057 1.72 1.413 2.566-2.352.03-4.604.036-6.862-.722-4.423-1.494-8.157-4.529-11.617-7.575-1.68-1.453-3.238-2.784-5.543-3.006-5.065-.624-9.739-.508-14.588-2.486-4.382-1.937-8.602-4.627-12.465-7.451-1.19-1.074-3.464-2.56-2.875-4.41.56-.24 1.161-.188 1.803.168 3.163 1.54 6.068 3.595 9.172 5.258.759-7.89.385-15.73.437-23.631-4.078-.269-7.964-.784-11.64-2.698 1.08-.53 2.048-1.003 3.28-.945 3.745.03 7.386.363 11.12-.238 5.065-.8 10.049-2.434 15.155-3.07a16 16 0 011.566-.11m-97.476 1.778c-2.094.508-4.371.922-6.332 1.832-2.06.963-3.554 2.684-5.28 4.125-1.448 1.238-3.04 2.194-4.663 3.174 1.663 7.352 3.238 14.705 5.088 22.01 2.719-.537 5.316-.799 8.088-.775 1.003-10.142 2.48-20.195 3.1-30.366m97.66 1.768c-1.8.028-3.683.452-5.39.736-.094 10.41-.542 20.825-.373 31.235 2.97.245 5.863.683 8.74 1.465 3.927-7.166 7.779-14.42 11.373-21.754-1.464-1.348-2.889-2.556-3.88-4.319-.975-1.593-1.763-3.792-3.262-4.935-1.588-1.185-3.509-1.943-5.446-2.305a9.6 9.6 0 00-1.761-.123m49.131 45.414c4.102 3.892 5.556 11.052 8.2 15.983 1.913 3.57 3.745 7.999 7.351 10.146 3.034 1.861 6.245 3.362 9.115 5.498-.957.268-1.873.712-2.882.555-4.348-.835-8.188-2.609-11.426-5.655-5.841 4.05-11.629 8.07-16.74 13.041 1.96 2.194 3.846 4.278 4.92 7.067.822 1.803 1.452 4.446 3.18 5.584 2.8 1.914 7.216 2.45 9.55 5.053 2.503 2.87 2.188 7.672 5.135 10.601 2.888 3.116 7.44 3.508 11.273 5.48-1.062.526-2.024 1.073-3.244 1.061-4.995-.035-10.123-2.076-12.516-6.715-1.4-2.439-1.434-5.747-3.127-7.947-2.678-2.328-6.716-2.765-9.523-5.07-2.982-2.235-3.214-6.023-5.438-9.133-1.242-1.978-3.058-3.164-4.96-4.418-1.71-1.068-2.281-2.718-3.122-4.44-1.447-3.255-2.975-6.523-4.113-9.902-.327-1.348-.993-2.42.104-3.623 1.686.45 2.357 2.222 3.302 3.518 6.028-4.347 11.812-9.044 17.729-13.543-.893-2.93-1.792-5.858-2.836-8.735-.45-1.383-1.028-2.73-.795-4.207zm-225.168 1.979c.403 3.804-2.543 6.64-2.234 10.642.438 4.54 2.076 8.72 1.936 13.446-.024 2.62-.834 5.164-2.69 7.066-2.31 2.375-5.193 4.106-7.451 6.568-3.262 3.513-5.823 7.623-5.525 12.606.175 4.884 3.209 8.763 3.687 13.402.11 3.274-1.388 6.687-2.246 9.82-.858 3.081-2.87 6.285-2.772 9.448.082 2.672.788 5.666 1.926 8.105 1.33 2.877 3.862 4.673 6.213 6.674.03.607.053 1.22.082 1.826-3.145-.012-5.373-1.539-7.375-3.814-2.602-2.959-3.852-6.897-4.377-10.743-.49-3.606.667-7.242 1.711-10.667.893-2.982 2.906-5.818 3.291-8.864.327-2.754-.916-5.036-1.861-7.527-2.112-5.135-2.172-11.256.103-16.35 1.81-4.008 5.165-7.4 8.666-9.984 1.873-1.476 3.986-2.858 4.657-5.291 1.657-6.139-2.686-12.831-1.198-18.643.934-2.754 2.57-6.56 5.457-7.72m155.674 1.937c1.745.07 3.349.642 4.912 1.377 3.484 1.634 6.904 3.04 10.102 5.1 3.402 2.164 6.418 4.814 9.219 7.709 1.902 2.013 3.88 3.575 4.89 6.248l-1.261.7c-2.527-1.05-4.656-3.337-6.721-5.093-3.227 3.81-6.401 7.596-8.928 11.926-4.365 7.235-7.743 14.885-11.658 22.383.904.857 1.802 1.716 2.69 2.586q-.484.99-.975 1.972c-4.4-1.645-7.966-4.441-11.992-6.77-3.805-2.427-7.637-4.253-10.922-7.404a10 10 0 012.04-1.341c2.323.636 4.47 2.07 6.6 3.174 5.404-9.232 10.41-18.707 15.043-28.346a112 112 0 003.705-8.123c-1.984-1.097-4.171-2.108-5.916-3.555-.904-.636-.694-1.574-.828-2.543m-35.6 10.399c-1.137 3.156-3.635 5.817-6.255 7.83-2.86 1.995-5.87 1.855-9.201 1.82 2.485 10.859 4.755 21.783 7.539 32.572a431 431 0 005.082-3.437c.507.501 1.008.998 1.51 1.5-2.708 2.614-5.454 5.8-8.92 7.345-3.857 1.792-8.631 2.025-12.833 2.86-2.748.548-5.49.542-8.273.326.023-.7.04-1.405.063-2.106a71 71 0 017.359-1.757c-2.638-13.462-6.723-26.7-10.078-39.998-2.136.758-4.154 1.353-5.963 2.783-2.346 1.879-4.201 4.358-6.477 6.342-2.719 2.462-6.197 4.096-9.482 5.69-3.81 1.855-7.767 2.141-11.922 3 1.605 3.18 3.39 6.248 5.164 9.335 3.915 7.136 7.92 14.237 11.969 21.303 1.126 1.949 2.357 3.834 3.6 5.707 1.447-1.762 2.683-3.682 4.09-5.467.659-.893 1.576-.957 2.544-1.4-.496 2.439-1.021 4.743-2.363 6.878-1.89 3.052-4.883 5.335-7.818 7.325-4.184 2.742-8.478 5.285-13.059 7.304q-.85-.882-1.7-1.773c1.868-1.675 3.805-3.145 6.04-4.307-1.342-2.089-2.648-4.19-3.996-6.273-6.127-9.056-11.759-18.415-17.967-27.418-1.441 2.17-2.807 4.346-3.758 6.78-1.925 4.702-2.597 9.236-6.18 13.116-.455-1.534-.675-2.887-.238-4.457 1.196-4.714 2.38-9.505 4.889-13.66 2.912-5.175 7.189-9.62 11.799-13.32 5.234-4.032 11.169-3.25 17.027-5.777 3.758-1.64 7.557-3.431 10.41-6.448 2.813-2.911 5.088-5.778 8.928-7.43 5.852-2.567 12.119-1.749 18.117-.185 3.081.782 6.634 2.211 9.803 1.283 3.962-1.062 6.624-4.334 10.55-5.886m69.764 18.345c3.14 3.315 6.178 6.687 9.096 10.2 2.118 2.561 5.06 4.65 6.502 7.55 1.505 2.947 2.105 6.558 2.975 9.739.886 3.337 2.264 6.598 3.752 9.714 1.312 2.784 3.093 5.042 4.044 8.006-1.604-.087-2.363-1.207-3.337-2.281-2.539-3.11-4.892-6.203-6.42-9.943-1.92-4.482-2.31-9.295-4.037-13.864-1.208 1.132-2.411 2.27-3.526 3.494-6.197 6.95-11.914 14.28-17.976 21.352 1.05 1.599 3.168 3.114 2.304 5.256-1.774-.14-2.772-1.276-3.998-2.397-2.929-2.923-6.137-5.525-9.06-8.449-2.048-2.048-4.634-4.022-6.133-6.49.508-.776.934-1.295 1.914-.928 1.575.654 2.998 1.82 4.38 2.813 3.193-3.84 6.228-7.812 9.262-11.774 3.927-5.14 7.352-10.621 11.15-15.861-.898-1.587-1.685-3.226-2.251-4.965.45-.397.904-.78 1.36-1.172m72.28 18.444c2.264 1.342 4.328 2.784 5.875 4.96 2.585 3.706 3.243 8.378 2.152 12.731-.788 3.612-2.975 7.213-2.17 10.953.338 2.433 1.623 4.237.625 6.629-1.826-2.637-3.7-5.491-4.662-8.572-.461-1.377.28-2.73.764-3.99 1.5-3.315 3.07-7.342 2.45-11.024-.752-3.746-3.132-5.98-5.017-9.066-.7-1.12-.543-1.42-.017-2.621m-119.866 29.248c3.304-.09 6.65.475 9.582 1.994 3.595 1.884 6.366 4.917 9.336 7.595 1.862 1.658 4.197 3.299 6.735 3.59 3.127.31 5.6-1.6 8.6-1.267-.065 1.196-.169 1.804-1.155 2.533-3.425 2.567-8.56 3.005-12.307.846-4.446-2.457-7.357-6.95-11.57-9.418-4.907-2.877-11.034-3.46-16.018-.414-2.596 1.668-5.268 2.755-8.414 2.627-5.088.081-8.543-2.727-13.363-3.584-3.454-.601-7.072-.525-10.287 1.004-3.88 1.867-7.427 4.364-11.371 6.12.28-1.079.32-2.053 1.201-2.841 3.991-3.565 7.486-7.044 12.953-8.07 4.82-1.144 9.109.174 13.584 1.855 2.614.94 5.573 2.34 8.397 2.031 4.154-.507 6.652-3.635 10.824-4.306a27 27 0 013.273-.295m-101.713 29.808c.48-.016.872.22 1.077 1.028-2.55 4.137-7.194 6.598-12.008 6.814-2.918.263-5.76-.057-8.035 2.137-2.393 2.264-1.99 5.036-2.2 8.04-.046 2.615-1.145 4.943-1.285 7.534-.204 2.86.042 5.385-1.633 7.883-2.806 5.041-9.482 7.164-14.716 4.842-2.142-1.022-4.265-2.357-5.87-4.114-.659-.764-1.138-2.158.35-2.24 2.918.963 5.28 2.883 8.42 3.461 3.641.817 7.655-1.11 9.248-4.477.677-2.76.32-5.736.904-8.548.718-3.525.737-7.195 1.67-10.655.876-3.302 3.624-5.987 6.979-6.675 2.841-.531 5.607-.274 8.443-1.114 2.655-.752 4.64-2.276 7.055-3.437.554-.196 1.122-.463 1.601-.479m167.836.164c4.196.035 8.4 1.128 12.01 3.239 3.174 1.937 5.929 4.388 7.026 8.064.834 2.06 1.096 5.11 3.535 5.904 3.845 1.372 7.86.152 11.629 2.364 3.792 2.077 5.648 5.73 6.687 9.773.916 4.067 1.896 8.146.39 12.184-1.347-2.784-2.502-5.636-3.226-8.653-.84-2.993-1.103-6.209-3.303-8.59-1.575-1.768-3.384-2.654-5.771-2.707-3.705-.163-6.983.005-10.012-2.515-3.034-2.387-2.48-6.797-4.914-9.668-1.92-2.258-4.703-3.846-7.504-4.744-4.388-1.319-9.288-1.097-13.834-1.739.339-1.15.21-2.047 1.627-2.298a24.4 24.4 0 015.66-.614m-70.694 214.381c1.972 3.185 4.242 6.162 6.955 8.753 8.758 8.42 19.012 15.381 29.766 20.988 2.398 1.33 4.871 2.516 7.263 3.846.992.595 2.253 1.342 2.778 2.404.572 1.553-.268 3.22-1.703 3.932-1.908.893-4.306 1.015-6.366 1.313 1.477 2.293 2.963 4.493 3.932 7.06.648 1.436.998 3.158 2.38 4.08 1.926 1.412 4.067 2.462 5.9 4.031 4.393 3.723 7.667 8.303 10.988 12.936 4.463 6.08 8.688 12.324 13.07 18.457.992 1.43 1.902 2.835 2.363 4.533-.268.805-1.161 1.145-1.914.807-1.43-.572-2.742-1.511-4.037-2.34-9.435-5.94-18.452-12.54-27.012-19.688-3.99-3.401-8.349-5.766-11.96-9.623-4.692-4.708-7.657-10.13-11.48-15.515-.378 2.182-.64 4.78-1.714 6.763-.397.77-1.103 1.08-1.879 1.383-1.762-.793-2.882-2.386-4.107-3.804-2.276-2.795-4.728-4.924-6.362-8.198-2.579-5.111-4.183-11.589-7.924-16.029-2.678-3.15-6.16-5.677-9.253-8.426-.035 2.136-.1 4.224.11 6.354.596 6.407 3.338 12.878 3.653 19.28.053 3.185-2.165 5.71-2.504 8.698-.175 4.02 2.043 8.177 1.588 12.15-.542 4.435-3.023 7.79-2.994 12.382.082 7.8-.513 15.561-.957 23.351-.344 6.821-1.692 13.601-3.717 20.12-1.003 2.888-1.971 5.969-3.617 8.56-.636 1.085-1.808 1.248-2.66.29-.414-2.246-.105-4.684.105-6.948.683-5.474.863-10.87-.17-16.32-1.009-5.777-3.122-11.431-3.828-17.231-.443-3.589-.028-7.06.24-10.625.555-4.254-3.238-6.157-3.757-10.516-.59-5.257.605-10.672.535-15.982-1.966-.689-4.277-1.208-5.986-2.434-1.32-1.085-1.651-3.319-1.809-4.924-.356-4.767-.051-9.611.713-14.332-1.272 1.862-2.57 3.671-4.192 5.252-1.803 1.768-3.657 3.302-5.011 5.479-1.652 2.66-3.07 5.468-4.61 8.193-1.15 2.02-2.288 4.364-3.968 5.992-.7.753-1.504.813-2.473.778-1.412-1.652-2.024-4.09-2.73-6.116a789 789 0 01-5.96 9.348c-1.838 2.842-2.887 5.76-5.005 8.408-2.416 2.994-5.188 5.724-7.918 8.426-6.238 6.004-12.796 11.967-20.067 16.688-2.182 1.44-4.178 3.063-6.77 3.658-.711-.549-1.12-1.004-.816-1.932.666-1.844 1.897-3.54 2.912-5.209 4.879-8.052 10.486-15.65 15.504-23.61 1.587-2.49 2.7-5.186 3.862-7.888 1.237-2.87 2.964-5.391 4.744-7.947-4.248.566-8.473 1.628-12.744 1.89-1.617.205-2.41-.771-3.541-1.705 2.48-3.506 5.386-6.37 8.986-8.716 3.758-2.399 7.165-5.007 11.08-6.99 2.614-1.331 5.263-2.597 7.983-3.688 2.818-1.138 5.544-1.91 8.152-3.531 4.341-2.69 7.521-6.36 10.748-10.252 3.647-4.587 7.032-9.377 9.973-14.453a173 173 0 00-22.186 9.796c-8.21 4.36-15.421 10.44-23.275 15.248-5.088 2.615-9.85 5.683-15.16 7.778-.613-.695-1.32-1.336-1.665-2.217-.221-2.486 1.063-5.246 1.956-7.521-2.253 1.295-4.802 2.532-6.745 4.253-2.707 2.393-5.153 5.624-8.187 7.584-1.068.683-2.504 1.035-3.432-.062-.74-1.05-1.166-2.353-1.685-3.52-3.991 3.408-5.753 8.11-10.082 11.145-3.221 2.567-6.927 2.883-10.457 4.709-7.26 4.009-14.367 8.332-21.73 12.137-1.366.595-3.875 1.868-4.651-.14.6-2.496 2.55-4.754 3.834-6.954-3.058 2.334-5.754 5.005-8.56 7.619-5.918 5.672-11.547 11.625-16.583 18.102 19.162 17.639 41.2 31.637 64.815 42.525 14.085 6.413 28.738 11.483 43.705 15.41 21.636 5.438 43.751 8.553 66.088 8.22 12.34-.063 24.63-1.242 36.802-3.232 49.137-7.97 95.654-30.172 131.989-64.306-5.024-6.67-11.38-11.502-17.944-16.543-6.477-4.878-12.943-9.727-19.828-14.016-5.572-3.758-11.406-7.038-17.422-10.014-3.5-1.78-7.173-3.173-10.697-4.9 1.365 1.984 2.493 4.083 3.602 6.213 1.476 3.01 4.888 4.81 7.234 7.312 3.518 3.653 7.276 7.23 10.322 11.286 3.332 4.504 6.793 8.856 9.588 13.734 1.634 2.9 4.014 5.668 5.047 8.824-1.01 1.745-2.468.455-3.781-.158-2.824-1.844-5.555-3.822-8.409-5.62-4.54-3.01-8.903-6.277-13.425-9.317-2.27-1.57-4.769-3.024-6.846-4.815-5.613-5.082-10.527-10.561-13.135-17.797-4.849.234-9.417.199-13.922-1.867-2.631-1.406-4.574-4.039-6.966-5.842-5.229-4.084-10.061-8.634-15.22-12.8-5.245-3.88-10.927-7.458-17.042-9.81-3.892-1.54-7.755-3.15-11.652-4.673-5.771-2.258-11.374-4.955-17.063-7.383" fill="#094"/>
<path d="m223.688 96.75c-.782 10.351-1.634 20.65-3.274 30.908 2.136.292 4.265.583 6.4.863.946-5.776 1.64-11.582 2.358-17.394.525-4.312 1.297-8.588 1.781-12.9a156 156 0 00-7.266-1.477m85.595 3.355a167 167 0 01-7.539 1.657c-.134 8.776.22 17.505-.357 26.263 2.299.806 4.605 1.501 6.968 2.114.485-5.987.263-11.969.426-17.973.059-4.026.333-8.04.502-12.06m-108.492 7.387c-2.27.998-4.55 1.961-6.85 2.889 1.908 7.2 4.318 14.231 5.922 21.508 1.926-.94 3.84-1.885 5.766-2.813-1.465-7.23-3.298-14.372-4.838-21.584m134.545 4.26q-.386.753-.764 1.506c-3.49 6.996-7.084 13.95-10.836 20.812a97 97 0 004.621 4.116c4.604-7.878 9.179-15.744 14.465-23.196a101 101 0 00-7.486-3.238m-27.863 43.85c-5.824 12.527-12.096 24.811-19.022 36.767 2.17 1.395 4.365 2.73 6.606 4.02 3.903-7.48 7.13-15.135 11.722-22.26 2.714-4.586 6.052-8.671 9.477-12.733a65 65 0 00-8.783-5.794m63.865 4.691c-4.026 2.783-7.76 6.01-11.652 8.969a198 198 0 00-6.016 4.767 116 116 0 003.99 7.237c5.608-4.902 11.66-9.197 17.635-13.637-1.406-2.404-2.62-4.903-3.957-7.336m-140.152 4.453c.916 2.923 1.792 5.852 2.51 8.828.945 3.898 2.24 7.696 3.15 11.6 1.581 6.512 3.413 13.03 4.61 19.623 3.144-.514 6.219-1.195 9.265-2.14-2.585-11.904-5.625-23.744-7.895-35.712-3.845-.986-7.696-1.779-11.64-2.199m-40.495 19.663c-3.034 1.937-5.52 4.429-7.976 7.026 4.971 7.136 9.703 14.436 14.37 21.777 2.773 4.294 5.66 8.506 8.315 12.871a71 71 0 006.723-4.342c-6.04-9.114-10.894-18.776-16.344-28.228-1.756-3-3.285-6.134-5.088-9.104m144.155 1.15c-1.062 1.395-2.02 2.846-2.989 4.305-5.245 7.96-11.056 15.557-17.03 22.979 1.767 1.814 3.57 3.595 5.46 5.287 4.697-5.654 9.43-11.285 14.139-16.934 2.334-2.83 4.925-5.397 7.58-7.93-2.375-2.579-4.686-5.22-7.16-7.706m-77.221 62.417c-.338 2.771-.158 5.63-.21 8.42.01 4.288-.322 8.554-.41 12.837-.07 9.342-.857 18.684-1.394 28.014-.49 6.494-.88 13.363-3.115 19.49-1.867-1.715-3.641-3.508-5.176-5.539-2.859-3.74-6.022-7.216-8.95-10.898-6.828-8.572-14.041-16.84-20.915-25.371-2.93 2.666-5.77 5.332-9.254 7.28 2.305 3.432 4.954 6.583 7.457 9.856 4.289 5.824 8.7 11.59 12.803 17.547 2.696 3.962 5.153 7.982 6.7 12.551 2.234 6.652 3.073 13.537 3.015 20.54.128 21.402.245 42.84-.385 64.237.035 5.054-.15 10.148.193 15.178.339 5.403.695 11.028-.396 16.367-.805 4.015-2.113 8.157-4.313 11.647-2.433 3.71-5.841 6.752-9.576 9.11-5.695 3.634-11.519 7.28-17.424 10.571-4.405 2.37-9.12 4.611-13.98 5.848-8.24 2.136-16.25 2.474-24.67 3.227-8.344.39-16.672.7-25.027.81 4.89 2.912 10.13 4.691 15.51 6.453 2.654.73 5.17 1.64 7.585 2.965-4.423 3.501-9.394 5.84-14.132 8.846-3.437 2.182-6.844 4.412-10.165 6.77-3.442 2.45-6.838 4.643-9.867 7.624-3.804 3.793-7.212 7.96-10.258 12.39 6.08-3.105 11.898-6.718 17.862-10.032 3.95-2.182 7.97-2.42 11.54-5.403 2.673-2.141 3.84-4.942 5.9-7.527 1.627-2.06 4.241-2.877 6.575-3.857.77 1.4 1.54 2.806 2.311 4.2 4.038-4.09 8.03-8.21 13.176-10.923 3.215-1.634 6.209-3.641 9.47-5.187-1.29 4.16-3.19 8.081-4.433 12.26 5.84-2.947 11.979-5.986 17.195-9.942 8.158-5.654 16.425-11.28 25.522-15.33 4.901-2.165 9.85-4.242 14.886-6.057 2.142-.776 4.342-1.755 6.577-2.17.536 1.296-.083 2.257-.579 3.43-1.727 3.443-3.6 6.792-5.812 9.95-2.264 3.354-4.498 6.688-7.211 9.71-3.822 4.254-7.452 8.712-12.738 11.186-6.378 2.894-12.738 4.76-18.678 8.746-3.822 2.614-7.737 5.182-11.273 8.17 3.518-.543 7.018-1.244 10.507-1.955 3.7-.736 7.178-2.148 10.854-3.006-2.83 3.273-6.302 5.59-8.84 9.133-3.46 4.353-4.604 9.377-7.486 14.086-4.522 7.754-9.944 14.976-14.758 22.556 7.556-5.292 14.379-11.617 20.902-18.135 2.38-2.59 5.17-4.814 6.623-7.97 1.004-2.078 1.978-4.155 3.239-6.086 2.9-4.47 5.746-8.94 9.107-13.082 1.126 2.474 2.241 4.953 3.367 7.433 2.76-3.84 4.581-8.192 7.154-12.119 3.496-4.376 7.83-8.199 11.069-12.82 2.41-3.449 3.84-7.333 6.086-10.916-.006 4.09-1.084 7.958-1.487 12.002-.519 4.971-1.173 10.148-1.091 15.137.058 1.4.087 3.11.787 4.359 1.651 1.342 4.056 1.737 5.842 2.898.781.502.979 1.303 1.101 2.166.49 4.79-.53 9.82-.547 14.506-.017 3.723 3.291 6.18 3.723 9.908.315 2.854-.24 5.864-.264 8.752-.093 3.274.38 6.5 1.307 9.639 1.885 6.716 3.49 13.434 3.59 20.453 2.042-8.163 2.649-16.46 2.847-24.846.356-4.872.24-9.733.38-14.605.122-4.061 2.542-7.167 2.974-11.059.198-4.06-2.158-8.652-1.604-12.865.385-2.97 3.156-5.782 2.567-8.728-.94-5.888-3.116-11.479-3.67-17.512-.502-4.411.123-8.688 1.01-13 1.884 1.348 3.74 2.737 5.507 4.236 2.947 2.515 6.028 4.872 8.514 7.854 2.643 3.122 4.493 7.125 6.016 10.9 1.237 3.017 2.106 6.067 4.207 8.617 1.698 2.02 3.565 3.888 5.275 5.895.759-3.799 1.267-7.639 2.031-11.432 4.5 5.258 7.912 11.098 11.932 16.664 3.309 4.412 7.382 8.078 11.94 11.164-1.78-2.281-3.146-4.58-3.846-7.422 1.914 1.337 3.68 2.788 4.965 4.772 1.808 2.538 2.312 5.135 4.64 7.031 6.267 5.094 12.714 10.026 19.483 14.444-4.71-6.763-9.347-13.602-14.354-20.149-2.766-3.688-6.577-6.385-10.451-8.8-1.167-.806-2.451-1.425-2.941-2.848-.835-2.113-1.417-4.264-2.55-6.26-1.586-2.813-3.226-5.59-4.72-8.455a90 90 0 009.633-.783c-4.697-2.65-9.582-4.907-14.15-7.795-5.596-3.472-11.15-6.938-16.186-11.215-7.521-5.812-14.023-12.324-18.02-21.088-.624-1.511-.653-2.999-.787-4.604 2.434 1.016 4.668 2.334 6.903 3.735 7.037 3.845 14.167 6.378 21.513 9.418 5.468 2.24 10.742 3.909 15.877 6.873 4.925 2.847 9.81 6.057 14.006 9.914 4.476 4.114 9.289 7.866 13.922 11.793 1.511 1.272 3.11 2.97 4.988 3.635 2.772.98 5.596 1.189 8.514 1.172 1.476.046 3.144-.069 4.545.433 1.278 1.033 1.909 2.975 2.603 4.428 1.144 2.777 2.679 5.298 4.733 7.498 8.324 8.795 18.703 14.788 28.469 21.836-3.642-5.333-7.09-10.743-11.274-15.68-3.904-4.907-8.828-9.218-13.496-13.361-2.923-2.708-3.52-6.339-5.895-9.28-2-2.228-5.244-3.448-7.753-5.064-2.97-1.902-6.332-3.53-8.928-5.928.828-.997 2.182-1.64 3.297-2.287a54.8 54.8 0 009.808-6.828c-4.557-.408-9.109-.793-13.695-.746-3.775-.093-8.245.046-11.752-1.512-3.326-1.739-5.402-6.126-7.223-9.26-5.298-1.627-10.754-2.427-16.011-4.195-4.097-1.43-8.484-2.93-12.043-5.457-4.727-3.77-8.737-9.136-9.752-15.217-.835-5.409.315-11.081.1-16.66.058-5.98-1.592-11.546-2.042-17.492-1.412-12.633-1.64-25.248-2.048-37.94.046-12.446-.169-24.905.175-37.345.047-5.888.168-12.299 1.942-17.953 2.071-6.273 5.475-11.945 9.752-16.957 3.647-4.283 7.45-8.508 11.582-12.324 2.888-2.702 6.267-4.93 9.441-7.393a174 174 0 01-4.184-6.063c-6.996 2.772-13.614 5.514-19.554 10.252-5.328 4.143-9.29 9.313-13.526 14.489-3.886 4.662-7.14 9.802-11.062 14.435-.677-2.328-1.325-4.633-1.512-7.06-1.202-12.038-2.469-24.103-3.006-36.194-.25-7.93-.325-15.873-.18-23.802-4.224-.082-8.396-.747-12.597-.957" fill="#7a3f28"/>
<path d="M514.998 5v364.97c0 134.775-114.165 244.04-255.012 244.04C119.163 614.01 5 504.736 5 369.97V5Z" fill="none" stroke="#000" stroke-width="10"/>
</svg>
