<?xml version="1.0" encoding="UTF-8" standalone="no"?>
<svg
   xmlns:dc="http://purl.org/dc/elements/1.1/"
   xmlns:cc="http://creativecommons.org/ns#"
   xmlns:rdf="http://www.w3.org/1999/02/22-rdf-syntax-ns#"
   xmlns:svg="http://www.w3.org/2000/svg"
   xmlns="http://www.w3.org/2000/svg"
   xmlns:sodipodi="http://sodipodi.sourceforge.net/DTD/sodipodi-0.dtd"
   xmlns:inkscape="http://www.inkscape.org/namespaces/inkscape"
   width="242.88748mm"
   height="282.04584mm"
   viewBox="0 0 242.88748 282.04584"
   version="1.1"
   id="svg8"
   sodipodi:docname="Wappen_Porrentruy2.svg"
   inkscape:version="1.0.2-2 (e86c870879, 2021-01-15)">
  <sodipodi:namedview
     pagecolor="#ffffff"
     bordercolor="#666666"
     borderopacity="1"
     objecttolerance="10"
     gridtolerance="10"
     guidetolerance="10"
     inkscape:pageopacity="0"
     inkscape:pageshadow="2"
     inkscape:window-width="1920"
     inkscape:window-height="1017"
     id="namedview13"
     showgrid="false"
     inkscape:pagecheckerboard="true"
     inkscape:zoom="16"
     inkscape:cx="873.0526"
     inkscape:cy="727.90951"
     inkscape:window-x="-8"
     inkscape:window-y="-8"
     inkscape:window-maximized="1"
     inkscape:current-layer="g1237"
     inkscape:document-rotation="0" />
  <defs
     id="defs2" />
  <metadata
     id="metadata5">
    <rdf:RDF>
      <cc:Work
         rdf:about="">
        <dc:format>image/svg+xml</dc:format>
        <dc:type
           rdf:resource="http://purl.org/dc/dcmitype/StillImage" />
        <dc:title />
      </cc:Work>
    </rdf:RDF>
  </metadata>
  <g
     id="layer1"
     transform="translate(-182.86315,16.966142)">
    <g
       id="g1237"
       transform="translate(264.24144,-0.67536678)">
      <path
         style="fill:#ffffff;stroke-width:0.264583"
         d="m -79.792032,128.06856 -0.06615,-142.921091 0.255527,0.291223 0.968801,0.01059 -0.385144,0.08895 c -0.398333,0.216133 -0.613866,0.02643 -0.693336,0.35017 -0.07947,0.323743 -1.379273,36.357378 -1.330682,81.032275 l 1.030928,80.168753 4.966082,5.95098 c 1.507174,10.93695 2.250416,10.50063 3.493566,15.345 1.907823,7.4345 26.812338,58.31002 41.921242,73.61861 1.112042,1.12674 1.739414,2.00167 1.709649,2.05569 -0.02977,0.054 0.161024,0.088 0.214532,0.0841 1.217384,-0.0881 1.49094,0.68226 3.334631,1.88713 17.5230522,11.45149 36.560429,17.19697 58.17258,18.41871 2.037291,0.11518 -70.350449,-15.03819 -84.12297,-42.09599 L -71.593021,180.56568 Z M 47.030163,263.5734 c 20.407768,-2.68102 86.414587,-45.32974 96.914237,-63.26964 2.14488,-3.66479 3.25045,-4.57294 5.21891,-9.58823 5.32312,-13.56233 9.1219,-28.05156 10.19602,-42.81354 0.42644,-5.86079 0.72052,-160.728138 0.29169,-161.265601 -0.1819,-0.228003 -0.56885,-0.544795 -0.85989,-0.703982 -0.46198,-0.252684 -0.4032,-0.290493 0.46302,-0.297477 l 0.99219,-0.008 0.1723,134.4584 -4.31949,51.97803 -20.62919,42.12087 c -24.07599,40.45062 -97.135925,50.5316 -95.112778,50.26581 z M 31.26715,261.55535 c -25.5663918,-1.77406 -48.134159,-11.90366 -66.682337,-28.21583 -21.332853,-18.76114 -39.803348,-62.96783 -41.685542,-76.59256 -1.583827,-11.46491 0.07219,-13.77549 -0.04707,-90.231418 l -0.124169,-79.602559 117.328675,0.169676 116.931213,-0.795127 1.21002,76.532108 c 1.17389,74.24798 0.0916,80.40855 -0.7704,88.04343 -3.09527,27.41771 -13.506,51.89524 -30.25824,71.29054 -3.46126,4.00737 -12.30815,11.25449 -16.19623,14.36889 -17.011695,13.6266 -36.275742,21.80336 -58.771004,24.24107 -4.443343,0.48152 -16.230164,1.25893 -20.748166,0.51115 z m 62.773327,-18.32491 c 4.7547,-1.82989 13.145663,-9.07524 15.072693,-13.01483 0.99236,-2.02877 1.33147,-3.7896 1.33147,-6.91369 0,-4.05328 0.83049,-7.28852 1.87097,-7.28852 0.28604,0 1.08969,0.75442 1.94334,1.82432 2.95604,3.70485 4.43665,4.08638 6.69825,1.72604 2.16919,-2.26389 4.03705,-7.09603 7.75367,-20.05871 3.26684,-11.39395 4.45094,-13.95037 8.82629,-19.05574 2.66118,-3.10518 3.6953,-5.1988 3.82368,-7.74121 0.17355,-3.43668 -1.09032,-5.0836 -4.84071,-6.30786 -5.87166,-1.9167 -8.73005,-5.77362 -7.84142,-10.58068 0.15817,-0.85562 0.93096,-2.93181 1.7173,-4.61374 2.1756,-4.65342 3.14155,-8.38767 3.88124,-15.00442 l 0.32985,-2.95054 1.56335,-0.30757 c 0.85985,-0.16916 2.44798,-0.76534 3.52919,-1.32485 l 1.96584,-1.01727 0.0169,1.36497 c 0.009,0.75073 -0.23891,2.72713 -0.12289,4.44916 0.18102,2.68655 0.2918,3.21181 0.78049,3.7005 0.44426,0.44426 0.67055,0.50813 1.02886,0.29038 1.5606,-0.94837 3.12858,-7.80826 2.38635,-10.44023 -0.17666,-0.62647 0.27729,-0.67639 1.85665,-1.36443 3.78924,-1.65077 6.62789,-6.69892 6.09116,-10.83227 -0.49059,-3.77799 -2.87241,-6.49939 -6.54376,-7.47673 -3.80925,-1.01405 -6.64439,0.35001 -8.46557,4.07299 -0.7918,1.61868 -0.86468,1.97954 -0.86468,4.28122 0,2.18909 0.0939,2.71404 0.7276,4.06687 0.40019,0.85433 0.72761,1.60441 0.72761,1.66685 0,0.0624 -0.68461,0.0778 -1.52136,0.0342 -1.40321,-0.0732 -1.52676,-0.13072 -1.59103,-0.74081 -0.36167,-3.43324 -0.88888,-4.26184 -3.12529,-4.91198 l -1.42938,-0.41553 1.12034,-0.85451 c 2.0307,-1.54887 1.5479,-2.17268 -2.46702,-3.18759 l -2.47113,-0.62466 1.57524,-0.316 c 1.74246,-0.34953 3.82421,-1.23805 3.82421,-1.63222 0,-0.85494 -3.16332,-2.34501 -4.97829,-2.34501 -1.04275,0 -0.59922,-0.38748 1.06001,-0.92604 1.97402,-0.64074 2.47471,-1.26157 1.598,-1.98141 -0.5704,-0.46834 -2.19442,-1.07656 -3.87072,-1.44963 l -0.76704,-0.17071 0.95887,-0.65157 c 0.91487,-0.62167 1.50125,-1.37094 1.50125,-1.91827 0,-0.4283 -1.9124,-1.04724 -4.25284,-1.3764 -3.17666,-0.44677 -3.22842,-0.49799 -1.17111,-1.158826 2.14594,-0.689309 3.57187,-1.385623 3.57187,-1.744226 0,-0.755743 -3.43226,-1.669915 -7.54062,-2.008426 l -2.38125,-0.196202 2.26579,-0.705686 c 2.28287,-0.710999 3.95191,-1.520108 3.95191,-1.915782 0,-0.372954 -2.0787,-0.982591 -5.82083,-1.70712 -0.59432,-0.115068 -0.51573,-0.200354 0.77435,-0.840259 0.78969,-0.391708 1.48168,-0.849815 1.53775,-1.018021 0.16622,-0.498671 -1.69618,-0.867244 -5.28921,-1.046742 l -3.37398,-0.168556 2.71252,-1.154896 c 3.19919,-1.362096 4.23992,-2.065297 3.63857,-2.458516 -0.50355,-0.329269 -2.46498,-0.707808 -5.0986,-0.983991 l -2.0559,-0.215595 1.76796,-1.058334 c 0.97238,-0.582083 1.94046,-1.324168 2.15128,-1.649079 0.35921,-0.553582 0.33571,-0.608896 -0.37352,-0.879332 -0.44839,-0.170971 -2.07796,-0.253709 -3.99836,-0.203007 -1.78283,0.04707 -3.24135,0.07274 -3.24114,0.05705 2e-4,-0.01569 0.70954,-0.46627 1.57631,-1.001273 1.84095,-1.136298 2.94733,-2.460662 2.36415,-2.829952 -0.60297,-0.381825 -4.99534,-0.176842 -8.83489,0.412306 -0.44696,0.06858 0.47783,-0.505863 2.11667,-1.314802 3.01983,-1.49061 4.79934,-2.819811 4.47585,-3.343233 -0.23543,-0.380929 -3.42108,-0.154313 -8.13811,0.578916 -1.881426,0.292455 -3.457052,0.495459 -3.501388,0.451123 -0.04434,-0.04434 1.130467,-0.732687 2.610676,-1.529665 2.515112,-1.354188 5.214432,-3.502417 5.214432,-4.14985 0,-0.803153 -2.88592,-0.552235 -6.859506,0.596406 -1.226111,0.354428 -2.270297,0.603416 -2.320409,0.553302 -0.05011,-0.05011 0.875633,-0.652833 2.057215,-1.339379 2.374379,-1.379607 4.56222,-3.239657 4.30332,-3.658574 -0.23181,-0.375066 -3.706499,-0.06077 -7.763956,0.702262 -1.819011,0.34208 -3.330155,0.603904 -3.358097,0.58183 -0.02795,-0.02207 1.024993,-0.691955 2.339861,-1.488631 2.475426,-1.499851 4.457819,-3.126039 4.457819,-3.656814 0,-0.611929 -2.881114,-0.208349 -8.334375,1.167463 -0.638207,0.161012 -0.404257,-0.110032 1.193871,-1.383167 1.927146,-1.535245 3.436337,-3.080907 3.436337,-3.519377 0,-0.664128 -3.765571,-0.339172 -7.386246,0.637408 l -1.433123,0.386545 1.202833,-1.244443 c 1.563999,-1.618107 2.885871,-3.492424 2.688397,-3.811945 -0.318575,-0.515467 -5.07333,0.631015 -9.888527,2.384353 -0.218282,0.07948 0.462417,-0.765773 1.512668,-1.878343 2.230334,-2.362689 3.529983,-4.59449 2.831581,-4.862494 -0.54796,-0.21027 -2.804509,0.49694 -5.385125,1.687719 -2.929631,1.351828 -4.250791,1.920592 -4.250791,1.829985 0,-0.0441 0.982266,-0.861621 2.182813,-1.816716 2.524394,-2.00828 3.443644,-2.93207 4.011067,-4.030877 0.312272,-0.604708 0.331486,-0.828432 0.08288,-0.965052 -0.56588,-0.310973 -3.264731,0.269351 -6.318179,1.358577 -1.626838,0.580327 -3.018964,1.055137 -3.093614,1.055137 -0.07465,0 0.88011,-1.041796 2.121686,-2.315104 2.335168,-2.394847 3.040552,-3.36627 2.629043,-3.620595 -0.130802,-0.08084 -1.411044,0.341714 -2.844985,0.939011 -1.433944,0.597297 -3.185009,1.314165 -3.891259,1.593041 l -1.284089,0.507047 1.371801,-1.528262 c 1.300049,-1.448324 2.387005,-3.163536 2.387005,-3.76668 0,-0.77066 -1.991657,-0.182962 -6.234997,1.839817 -5.007636,2.387113 -5.003575,2.386531 -2.846128,0.409686 1.970183,-1.805257 3.5887,-3.810635 3.906094,-4.839732 0.157097,-0.50936 0.08652,-0.595312 -0.488794,-0.595312 -0.694563,0 -3.898259,1.190723 -5.762289,2.14168 -0.583321,0.297588 -1.107283,0.494366 -1.164362,0.437288 -0.05708,-0.05708 0.449019,-0.749996 1.124664,-1.539812 1.350513,-1.578721 2.306058,-3.425576 1.95434,-3.777295 -0.258112,-0.258111 -2.318023,0.299249 -5.182463,1.402247 -1.086149,0.418237 -1.974815,0.703003 -1.974815,0.632812 0,-0.07019 0.362008,-0.65378 0.80446,-1.296863 0.996074,-1.447745 1.678615,-3.295732 1.341689,-3.632658 -0.488543,-0.488543 -3.082176,0.638352 -7.159284,3.1106 l -2.391063,1.449877 1.281705,-1.779042 c 1.43647,-1.993863 2.539381,-3.863369 2.805557,-4.755605 0.154694,-0.518544 0.08147,-0.595286 -0.567838,-0.595104 -0.933649,2.62e-4 -3.495921,1.20146 -5.952109,2.790357 l -1.881177,1.216927 1.351727,-1.698738 c 2.058972,-2.587543 3.254703,-5.226675 2.362687,-5.21475 -0.58197,0.0078 -4.654296,2.313538 -6.237002,3.531402 -0.841534,0.647546 -2.514804,2.217668 -3.71838,3.489163 -1.957628,2.0681 -2.140855,2.203188 -1.738074,1.281433 2.361107,-5.403337 4.090834,-10.6367 5.126908,-15.511698 0.663366,-3.121293 0.678804,-3.48514 0.139091,-3.278035 -0.639905,0.245555 -7.318259,5.381266 -10.968897,8.435174 -3.61913,3.02755 -7.139091,6.405716 -10.596991,10.170107 -2.049862,2.231552 -3.372755,3.131897 -3.870458,2.634195 -0.08542,-0.08542 0.177909,-0.843857 0.585169,-1.685423 0.579355,-1.197178 1.765588,-2.550393 5.451713,-6.219121 4.714782,-4.692534 6.70592,-7.147671 6.533536,-8.056055 -0.171683,-0.904684 -1.362964,-0.70731 -3.996563,0.66216 l -2.515039,1.307814 0.813974,-1.206079 c 0.447686,-0.663345 1.088936,-1.963595 1.425001,-2.889446 0.52396,-1.443493 0.554562,-1.705036 0.214752,-1.835433 -0.706721,-0.271193 -1.79211,0.181028 -3.612674,1.505193 -3.065706,2.229805 -7.781316,4.909101 -14.6417953,8.319106 -8.4369117,4.193572 -9.6766671,4.555049 -16.8010417,4.898708 -2.996726,0.144552 -5.769353,0.416623 -6.614583,0.649073 -4.481656,1.232511 -5.451454,1.460405 -7.330747,1.722665 -1.134078,0.158263 -4.94624,0.398288 -8.471469,0.53339 -6.571224,0.251835 -7.797827,0.145491 -8.123931,-0.704327 -0.270639,-0.705276 0.316241,-2.251839 1.83968,-4.847971 1.944791,-3.314165 2.830713,-5.187193 2.721914,-5.754695 -0.119568,-0.62366 -1.700149,-1.149699 -2.950874,-0.982089 -1.773677,0.237694 -3.426986,1.248003 -6.857249,4.19035 -0.838043,0.718843 -1.604335,1.226367 -1.702868,1.127836 -0.313132,-0.313131 1.42277,-4.067037 3.903228,-8.440764 1.58868,-2.801286 2.312437,-4.323016 2.138715,-4.496739 -0.152252,-0.152252 -1.243584,-0.214866 -2.597304,-0.149016 -1.805186,0.08781 -2.684931,0.274431 -3.8788,0.822817 -2.95883,1.359093 -4.370765,2.870742 -7.841811,8.3956 -2.074618,3.302169 -3.546485,5.022117 -4.297737,5.022117 -0.715524,0 -1.457584,-1.442133 -1.806511,-3.510809 -0.458317,-2.71721 -1.557057,-3.560808 -2.664081,-2.045441 -0.799069,1.093817 -1.664337,7.574526 -1.677971,12.567709 -0.01068,3.909451 0.03677,4.340293 0.62019,5.631357 0.913313,2.021107 3.535715,4.34082 7.074514,6.257946 3.746042,2.029399 5.922744,3.573796 7.007824,4.972143 1.567188,2.019639 4.812705,5.231262 5.286468,5.231262 0.254053,0 1.21567,-0.200974 2.136928,-0.446608 2.486586,-0.662999 8.331013,-0.603293 11.480316,0.117279 6.340004,1.450615 11.258675,4.464492 12.997209,7.963937 0.611683,1.231239 0.60873,3.573328 -0.006,4.737241 l -0.455502,0.862475 -2.306976,-2.026978 c -4.812607,-4.228494 -9.365022,-6.526313 -14.383742,-7.260146 -3.103787,-0.453834 -7.906943,0.08868 -7.894182,0.891643 0.0028,0.176292 0.977688,0.975376 2.166413,1.775741 5.284626,3.558122 10.632459,7.921728 10.217301,8.336886 -0.07887,0.07887 -1.261504,0.02029 -2.628082,-0.130164 -6.323555,-0.696214 -10.326466,-4.872472 -13.094611,-13.661671 -0.521689,-1.656445 -1.059206,-3.011718 -1.19448,-3.011718 -0.70078,0 -2.721131,2.372741 -3.655711,4.293341 l -1.015053,2.085978 -0.612739,-0.991431 c -0.872318,-1.411441 -0.965357,-3.475194 -0.270804,-6.006862 0.306724,-1.118021 0.55768,-2.261055 0.55768,-2.54008 0,-0.694856 -0.701805,-1.338863 -1.459026,-1.338863 -0.792051,0 -3.607607,2.56449 -4.514439,4.111882 -0.883706,1.507929 -1.524434,4.633963 -1.319519,6.437768 0.157364,1.385228 0.146131,1.416881 -0.439952,1.23975 -0.330791,-0.09997 -1.375345,-0.24633 -2.32123,-0.325237 -1.504009,-0.125465 -1.812862,-0.06972 -2.461559,0.444239 -0.603318,0.478009 -0.726777,0.762296 -0.661458,1.523116 0.07344,0.855453 0.261238,1.04803 2.196975,2.252938 20.273203,12.619122 39.269829,18.420577 68.6695509,20.971264 l 1.9945482,0.173045 2.3983844,-1.604253 c 5.0691575,-3.390702 8.6839905,-8.529683 11.0706565,-15.738446 1.657688,-5.006941 2.37668,-9.70519 2.684854,-17.544111 l 0.178011,-4.528111 0.951998,-0.452501 c 2.741866,-1.303261 6.583727,-4.866887 9.631944,-8.934382 1.556772,-2.077331 2.178413,-2.437429 2.837273,-1.643549 0.283093,0.341106 0.140914,0.691486 -0.885748,2.182812 -2.620159,3.806024 -6.106745,7.311597 -9.124702,9.174385 l -1.557181,0.96115 -0.166725,4.287141 c -0.446775,11.488436 -2.644708,19.569963 -7.171967,26.370437 -1.840895,2.76524 -5.0727905,6.055127 -7.4291988,7.562501 -0.799465,0.511413 -1.4535732,1.055172 -1.4535732,1.208357 0,0.65817 1.0951924,4.47439 1.7348861,6.045243 0.9847766,2.418249 2.4434113,5.283877 3.2064429,6.299359 0.864386,1.150357 0.745406,2.044997 -0.2719676,2.044997 -0.6508565,0 -0.9102408,-0.25577 -1.8867279,-1.860405 C 7.3004401,98.962058 6.3409868,97.088785 5.7909922,95.822452 5.2410001,94.556119 4.6017456,93.462101 4.3704284,93.391301 4.1391111,93.320501 1.1518832,92.550813 -2.2678563,91.680881 -11.435253,89.348833 -14.782762,88.751883 -20.78869,88.378127 c -5.154393,-0.320765 -11.771672,1.030433 -18.917708,3.862853 -4.634614,1.836986 -34.70983,16.51897 -35.28533,17.22543 -0.198181,0.24328 -0.291476,0.62176 -0.207322,0.84106 0.219514,0.57204 1.659988,1.39542 3.345777,1.91244 0.800365,0.24547 1.494475,0.4719 1.542467,0.50316 0.04799,0.0313 -0.606851,0.88549 -1.455208,1.89826 -1.575482,1.88082 -3.945686,5.81142 -3.67038,6.08672 0.08395,0.084 4.415274,0.20538 9.625172,0.26986 l 9.472541,0.11723 1.52164,-1.81952 c 0.836904,-1.00073 2.730913,-3.63072 4.208913,-5.84441 l 2.687275,-4.02489 0.560498,1.72984 c 0.347663,1.07298 0.879407,2.04876 1.400337,2.56969 0.788532,0.78853 0.956715,0.83984 2.752979,0.83984 1.68698,0 2.147723,-0.11822 3.897516,-0.99999 1.091406,-0.55 3.948906,-2.3704 6.35,-4.04534 5.013894,-3.49757 8.493416,-5.34886 10.48689,-5.57957 1.779712,-0.20598 3.709292,0.65226 5.669045,2.52147 1.406488,1.3415 1.441434,1.35676 3.150351,1.37524 7.8125637,0.0845 10.9869526,-0.3858 24.267602,-3.59528 3.843007,-0.92872 7.166525,-1.6198 7.385595,-1.53574 0.502129,0.19269 0.387892,1.40774 -0.159483,1.6963 -0.528762,0.27875 -13.0557879,3.25735 -17.065625,4.05776 -1.74625,0.34857 -4.3060938,0.78645 -5.6885417,0.97306 -3.054596,0.41233 -11.0314453,0.44089 -11.7764563,0.0422 -0.710297,-0.38015 -7.330911,0.71487 -9.665028,1.59854 -4.624229,1.75068 -8.051564,3.70455 -14.012682,7.9884 -2.255573,1.62092 -5.589323,4.00243 -7.408334,5.29223 -4.411818,3.12827 -9.42874,7.02481 -13.04659,10.13302 -3.605666,3.09774 -9.97216,9.35293 -9.97216,9.79781 0,0.64921 1.427035,0.89428 4.365625,0.7497 1.60073,-0.0787 3.198717,-0.22909 3.551084,-0.3341 0.545887,-0.16268 0.426722,0.0796 -0.805494,1.63773 -2.360836,2.98526 -4.465381,5.97197 -4.465381,6.33716 0,0.46431 3.43333,0.7701 6.231606,0.55501 5.524441,-0.42465 12.749094,-3.34163 16.453205,-6.64305 2.166266,-1.93076 4.329814,-5.00083 6.304635,-8.94627 l 1.733515,-3.46333 -0.161107,1.43832 c -0.08861,0.79108 -0.219779,1.82351 -0.291486,2.2943 -0.2002,1.31439 0.340164,2.95486 1.085133,3.29429 1.604502,0.73106 5.08613,-1.17624 10.977832,-6.01385 5.131184,-4.21315 7.306559,-5.7665 9.657292,-6.89587 3.381864,-1.62476 4.879461,-1.64778 8.7312497,-0.1342 2.9073581,1.14246 7.0871847,2.31597 10.6144827,2.98008 2.6957655,0.50754 3.0262909,0.52102 3.7630735,0.15346 0.7620688,-0.38017 0.8290507,-0.37084 1.1848597,0.16504 0.3105071,0.46765 0.6371061,0.56799 1.8488369,0.56799 1.2669915,0 1.5842875,-0.10786 2.2810495,-0.7754 l 0.809342,-0.7754 0.597096,0.54655 c 0.328401,0.3006 0.856244,0.62502 1.172985,0.72092 0.897104,0.27162 2.402136,-0.50284 3.023389,-1.55579 0.304715,-0.51645 0.596513,-0.93901 0.648438,-0.93901 0.05192,0 0.533027,0.29766 1.06912,0.66146 0.711163,0.48261 1.324727,0.66146 2.269207,0.66146 1.963335,0 3.087423,-0.57807 3.584419,-1.84329 l 0.416602,-1.06057 0.621509,0.67062 c 0.824934,0.89012 2.639573,1.69106 3.847637,1.69826 2.101969,0.0125 3.555802,-1.07972 4.746601,-3.56606 0.418172,-0.87313 0.76613,-1.7661 0.773245,-1.98438 0.0071,-0.21828 0.366078,0.28729 0.797695,1.12348 0.43162,0.8362 1.576567,2.35971 2.544329,3.38559 3.853865,4.0853 9.645396,7.00932 22.243896,11.23047 2.510235,0.84106 4.563676,1.60256 4.5632,1.69223 -5.29e-4,0.0897 -0.833911,0.50467 -1.852083,0.92223 -1.01817,0.41757 -1.851221,0.91236 -1.851221,1.09955 0,0.91925 4.362095,2.90219 9.252836,4.2062 l 2.241378,0.59761 0.692656,1.96039 c 1.416232,4.00828 2.918203,6.52962 8.350607,14.01806 6.716482,9.25851 8.752446,14.3578 7.381052,18.48667 -1.338374,4.02947 -6.407833,9.2647 -14.924905,15.41295 -8.377793,6.04771 -11.307149,10.10272 -16.946779,23.45889 -1.189472,2.81699 -2.096892,5.18758 -2.016491,5.26798 0.45847,0.45847 4.611828,-1.73699 6.318541,-3.33998 l 0.745771,-0.70044 -0.259239,0.66146 c -0.142581,0.3638 -1.037992,2.42356 -1.989799,4.57725 -1.307147,2.95773 -1.642139,3.94973 -1.369168,4.05448 0.477663,0.1833 6.822432,-1.35226 9.66729,-2.33967 4.198345,-1.45718 7.720796,-3.67643 10.484125,-6.60531 2.356533,-2.49772 2.898116,-4.16967 3.241006,-10.0055 0.227922,-3.87913 0.755097,-6.35 1.354807,-6.35 0.113196,0 0.281815,0.50683 0.374711,1.12629 0.220437,1.47 1.233889,3.60767 2.079119,4.3855 0.958768,0.88231 2.493235,1.02543 3.807182,0.35511 2.291924,-1.16925 5.116735,-5.08858 6.468478,-8.97479 0.291232,-0.83728 1.110173,-3.67967 1.81987,-6.31642 1.968845,-7.31493 2.609925,-8.46029 8.195145,-14.64154 1.63802,-1.81284 3.27859,-3.68986 3.6457,-4.17116 0.66518,-0.8721 0.66591,-0.87918 0.21229,-2.06695 -0.99843,-2.61437 -5.6748,-7.83342 -14.165766,-15.80967 -9.034571,-8.4869 -10.853256,-10.37706 -11.731485,-12.19254 -1.484262,-3.06828 -1.630524,-3.88197 -1.623195,-9.03029 0.0075,-5.25465 0.188016,-6.4942 2.023155,-13.89063 1.150705,-4.63785 1.595612,-5.82083 2.18917,-5.82083 1.0057,0 0.707576,2.32659 -1.05488,8.23238 -2.656306,8.90099 -2.675144,14.95971 -0.06187,19.89652 1.268961,2.39722 4.19231,5.3134 9.862228,9.83804 7.019013,5.60122 13.068243,11.34607 17.492813,16.61263 2.63669,3.13845 3.07628,4.05432 3.22228,6.71347 0.1508,2.74664 -0.69584,5.91214 -2.62906,9.82969 -3.58655,7.26793 -9.15736,13.97689 -16.799246,20.23145 -3.965064,3.24524 -4.580112,3.86644 -6.508461,6.57362 -1.898708,2.66557 -3.274759,5.54899 -5.090554,10.6669 -0.822804,2.31911 -1.845247,4.92046 -2.272099,5.78079 -0.42685,0.86032 -0.715859,1.66168 -0.642242,1.7808 0.302834,0.48999 4.802055,-1.40618 7.195283,-3.03242 0.535765,-0.36407 1.018934,-0.61712 1.073706,-0.56235 0.05477,0.0548 -0.444476,1.90687 -1.109438,4.11579 -1.335987,4.43795 -1.567389,6.64839 -0.746003,7.12611 0.616016,0.35827 1.895126,0.11812 4.299479,-0.80721 z M 139.58201,130.04993 c -0.33646,-0.21313 -1.24364,-2.34615 -1.53706,-3.61409 -0.15002,-0.64823 0.52803,-1.30101 1.11673,-1.07511 0.48759,0.18711 1.71005,2.82616 1.71005,3.69167 0,0.5538 -0.43574,1.24154 -0.78052,1.23194 -0.08,-0.002 -0.30918,-0.10771 -0.5092,-0.23441 z m 5.84641,-6.44518 c -0.95519,-1.17818 -1.47044,-5.37988 -0.81292,-6.62906 0.6254,-1.18816 1.82971,-1.33368 2.50522,-0.30272 0.57565,0.87855 0.36672,4.07488 -0.37612,5.7542 -0.5938,1.34238 -0.93505,1.64769 -1.31618,1.17758 z M -4.1198047,52.732814 c -0.993611,-0.396208 -1.8522183,-1.309193 -1.8522183,-1.969527 0,-0.805151 0.7276518,-1.015799 1.558634,-0.45121 1.1279901,0.766385 1.4353884,0.816843 2.4757247,0.406379 1.2241107,-0.482973 1.78647463,-0.295219 1.78647463,0.596445 0,0.546719 -0.22397243,0.784363 -1.12447913,1.193118 -1.2489313,0.566909 -1.8642145,0.615542 -2.8441359,0.224795 z m -4.1318577,-5.111258 c -0.336558,-0.87706 0.084738,-1.365562 2.0150561,-2.336493 2.458077,-1.236388 4.1298944,-1.47229 6.18991911,-0.873424 1.40339229,0.407979 1.50967809,0.49371 1.43325319,1.156102 -0.073708,0.638834 -0.1817079,0.709247 -1.008589,0.657571 -3.8194589,-0.238688 -3.8229355,-0.23822 -5.8511784,0.789716 -2.1431303,1.086159 -2.5595289,1.177057 -2.778461,0.606528 z M 19.616514,42.282484 c -0.330883,-0.33088 -0.206029,-1.024168 0.498263,-2.766703 1.419466,-3.512016 4.559599,-7.966118 8.715732,-12.362787 2.146647,-2.270881 2.691884,-2.712635 3.265644,-2.645833 1.31128,0.152667 0.94892,0.897737 -2.000594,4.113533 -4.456676,4.85902 -6.477926,7.736104 -8.160404,11.615663 -0.717729,1.654983 -1.026316,2.094019 -1.51566,2.156371 -0.337947,0.04306 -0.699288,-0.0065 -0.802981,-0.110244 z m -83.276823,-0.772787 c -0.873713,-1.052762 -0.76388,-12.690865 0.128188,-13.582934 0.308988,-0.308986 0.533807,-0.348255 0.850422,-0.14854 0.378805,0.238946 0.430396,1.066491 0.430396,6.903824 0,3.647786 -0.08388,6.768052 -0.186392,6.933925 -0.261882,0.423735 -0.823242,0.374938 -1.222614,-0.106275 z M 8.020493,20.605851 c 2.708857,-1.389462 6.115817,-3.324228 7.571026,-4.29948 l 2.645833,-1.773187 0.173752,-2.248958 c 0.09556,-1.236927 0.254325,-4.8683338 0.352803,-8.0697922 0.21449,-6.9730796 0.01601,-8.1472502 -1.400614,-8.2852987 C 15.50845,-4.2516187 12.256919,0.1458141 8.4002786,8.0508922 5.6112766,13.767594 3.6212183,18.208876 3.174226,19.714065 c -0.4161261,1.401254 -0.5618454,3.418078 -0.2469621,3.418078 0.092422,0 2.3843747,-1.136833 5.0932291,-2.526292 z"
         id="path1249"
         sodipodi:nodetypes="cccccssccsssssssccsssssssccccsscssscccscsssccssssssssssssscssccssssssssssscsscsscsssssscsssssscsssssscssscsssssssssssssssssssssssssscsssssssssssssssscssssssssssssssscsssscsssssssssssssscsssssssssssssssssssssssssssssssscssssssssscsssssssssscscssscssssscssssssscsssssssscscscsscssssssssssssscssssscsssssscssssssssssscssssssscssssssscssscssssssscssssssssssssssssssssssssssssssssssssssssscsssssssssssssssssssscsssssscsssssssscsssssss" />
      <path
         style="fill:none;stroke-width:0.264583"
         d="m 38.27954,265.55885 c 0.982265,-0.0509 2.589609,-0.0509 3.571875,0 0.982265,0.0509 0.178593,0.0926 -1.785938,0.0926 -1.964531,0 -2.768203,-0.0417 -1.785937,-0.0926 z M -19.796502,-16.224626 c 32.924088,-0.03702 86.79987,-0.03702 119.723958,0 32.924084,0.03701 5.986194,0.0673 -59.861979,0.0673 -65.848177,0 -92.786068,-0.03029 -59.861979,-0.0673 z"
         id="path1247" />
      <path
         style="fill:#f8d907;stroke-width:0.264583"
         d="m -50.250724,68.109531 c -3.050425,-1.258969 -5.20769,-3.836155 -2.816028,-8.15996 l 0.615359,-1.112486 0.810619,1.698349 c 0.824097,1.726587 2.17044,4.942866 3.32219,6.767355 0.729072,1.154928 0.690154,1.889013 -1.93214,0.806742 z m -10.374018,-4.881368 c -0.894211,-0.753156 -1.232914,-3.94031 -0.811633,-6.081549 0.282548,-1.436101 1.83946,-4.328045 2.102122,-4.328045 0.03501,0 -0.109945,1.434657 -0.143429,2.628369 -0.07361,2.624146 0.429439,4.437106 1.426679,6.373106 0.438697,0.851668 0.840492,1.393645 0.70638,1.563351 -0.375948,0.475727 -2.048807,0.881848 -3.280119,-0.155232 z m 11.257314,-10.829724 c -0.448916,-0.511286 -0.917806,-1.389062 -1.123647,-1.787281 -1.099899,-2.127875 -2.727449,-8.581024 -2.744671,-12.40083 -0.01437,-3.186057 1.696416,-6.587708 4.266372,-9.810719 0.803399,-1.007552 3.441788,-3.525243 4.086861,-4.063638 1.101717,-0.919522 3.447045,-1.509047 3.447045,-1.509047 0,0 -0.752017,2.33791 -1.937361,4.739004 -4.968838,10.065142 -5.770444,16.509102 -3.063741,22.859255 1.051653,2.467269 0.6194,3.303773 -0.914323,3.303773 -0.659358,0 -1.395254,-0.622918 -2.016535,-1.330517 z m -7.499498,-24.262221 c -0.711389,-0.25277 -1.063431,-0.68452 -0.900285,-1.712384 0.539045,-3.396121 4.919817,-9.202804 8.212712,-11.043238 2.571102,-1.437019 4.272379,-1.747412 -0.561307,5.539535 -2.178679,3.284433 -3.527066,6.404746 -3.874803,6.652541 -0.839448,0.598189 -1.975011,0.883795 -2.876317,0.563546 z"
         id="path1245" />
      <path
         style="fill:#cd1a15;stroke-width:0.264583"
         d="m 76.996463,148.79405 c -0.463656,-0.28271 -1.175384,-0.83884 -1.331666,-1.13085 -0.274613,-0.51313 -3.164369,-1.56276 -7.635073,-2.80069 -0.917257,-0.25399 -1.78826,-0.77559 -1.670147,-0.8937 0.118113,-0.11811 1.5453,-0.82981 2.926528,-1.07115 4.023797,-0.70304 10.073265,-0.0656 11.441576,1.17275 0.278617,0.25214 0.899551,1.29802 1.00058,1.89194 0.174154,1.0238 0.184798,1.25906 0.105947,2.13039 -0.0335,0.37015 -2.217367,1.11183 -3.337047,1.11001 -0.335743,-5.3e-4 -1.037042,-0.12598 -1.500698,-0.4087 z M -33.574897,68.571882 c -1.618062,-1.397188 -5.082225,-3.271558 -6.755029,-4.47833 -2.826157,-2.038816 -1.580166,-3.032591 -0.597914,-2.855817 5.1391,0.924867 11.85556,5.026494 15.419388,7.803988 1.246823,0.97172 0.81474,2.21624 0.207609,2.387225 -0.336119,0.09466 -1.828467,0.626222 -2.961655,0.359217 l -2.183483,-0.514479 z"
         id="path1243" />
      <path
         style="fill:#505050;stroke-width:0.264583"
         d="m -18.473585,-11.991293 c 32.196484,-0.03703 84.88164,-0.03703 117.078125,0 32.19648,0.03703 5.85391,0.06733 -58.539063,0.06733 -64.392969,0 -90.735547,-0.0303 -58.539062,-0.06733 z"
         id="path1241" />
      <path
         style="fill:#000000;stroke-width:0.264583"
         d="m 33.450894,265.30805 c -3.544623,-0.16587 -10.336083,-0.93684 -14.684375,-1.66701 -29.45306,-4.94575 -55.403568,-20.94583 -73.546391,-45.34588 -13.209887,-17.76581 -21.956189,-39.74114 -25.023133,-62.87135 -1.165542,-8.79025 -1.123886,-5.77115 -1.235738,-89.561458 -0.07332,-54.928099 -0.02044,-79.667166 0.171695,-80.32361 0.175478,-0.599524 0.526545,-1.062011 0.953997,-1.256771 0.964039,-0.439246 238.977531,-0.446299 239.941451,-0.0071 0.3634,0.165579 0.78613,0.660752 0.93939,1.100386 0.34221,0.981686 0.32711,150.626913 -0.0159,157.480853 -2.40918,48.13996 -27.47574,89.64431 -66.249955,109.69443 -18.257919,9.44115 -39.14631,13.79183 -61.251041,12.75752 z m 17.065625,-4.32001 c 16.886729,-1.54612 31.639737,-5.97133 45.39167,-13.61535 4.230931,-2.35177 11.361401,-7.17001 15.330201,-10.35901 3.99854,-3.2129 11.09946,-10.04057 14.41107,-13.85653 17.96902,-20.70565 28.82834,-47.68665 31.08961,-77.24508 0.17784,-2.32474 0.27224,-30.32809 0.27224,-80.764064 V -12.057442 H 40.065477 -76.880356 v 77.734615 c 0,51.019847 0.09395,78.957587 0.273389,81.293227 3.476158,45.24809 27.940068,84.02874 64.600608,102.40611 14.572247,7.30483 29.33904,11.05363 47.177044,11.97668 2.731048,0.14132 12.301273,-0.0864 15.345834,-0.36515 z m 39.290625,-17.18846 c -0.695585,-0.44088 -0.391729,-2.78773 0.920332,-7.10824 0.678222,-2.23332 1.178324,-4.1154 1.11134,-4.18238 -0.06699,-0.067 -0.812655,0.32015 -1.657038,0.86029 -2.2737,1.45447 -6.724634,3.39185 -6.724634,2.92707 0,-0.055 0.401563,-0.98004 0.89236,-2.05556 0.490799,-1.07552 1.450324,-3.56283 2.132282,-5.52736 1.684446,-4.85243 3.741457,-8.93965 5.817759,-11.55973 1.136637,-1.43432 3.040811,-3.26574 5.631709,-5.41653 6.322096,-5.24821 9.932646,-9.15737 13.645176,-14.77374 4.86813,-7.36458 6.83454,-13.53821 5.6175,-17.63642 -1.03297,-3.47841 -10.20978,-12.9886 -20.375328,-21.11552 -9.11321,-7.28563 -10.914653,-9.7408 -11.778983,-16.05351 -0.498387,-3.64001 -0.02164,-6.88877 2.110724,-14.3831 1.384787,-4.86694 1.65195,-6.70628 1.075045,-7.40141 -0.465109,-0.56042 -1.219454,-0.0862 -1.563918,0.98324 -0.608182,1.88813 -2.185736,8.43478 -2.694215,11.18067 -0.7971,4.3045 -0.959339,9.24457 -0.395438,12.04063 0.945076,4.68607 1.856409,5.97326 8.847725,12.49672 13.507908,12.60398 19.262088,19.11413 18.717308,21.17634 -0.0855,0.32362 -1.71507,2.3148 -3.62129,4.42486 -5.96421,6.60198 -6.68595,7.87836 -8.692406,15.37209 -1.996278,7.45574 -3.042044,9.90002 -5.364453,12.53842 -2.576682,2.92727 -4.602703,3.55602 -6.393096,1.98404 -0.995026,-0.87365 -1.516073,-1.97511 -2.031262,-4.29397 -0.261548,-1.17722 -0.413157,-1.45644 -0.673494,-1.24038 -0.740076,0.61421 -1.206521,2.83376 -1.441778,6.86063 -0.33805,5.78632 -0.808543,7.15378 -3.397634,9.87496 -3.742925,3.93388 -9.053078,6.46869 -17.288991,8.25292 -1.123323,0.24335 -2.158357,0.40156 -2.300073,0.35156 -0.141719,-0.05 0.62875,-2.10482 1.712156,-4.56628 1.083402,-2.46147 1.920258,-4.52496 1.859676,-4.58554 -0.06058,-0.0606 -0.801018,0.45258 -1.64542,1.14035 -1.893091,1.54194 -5.389141,3.26279 -5.389141,2.65268 0,-0.0597 1.07978,-2.6493 2.399511,-5.75469 3.568586,-8.39706 5.449351,-11.75007 8.880801,-15.83263 1.965243,-2.33814 3.151351,-3.38028 7.240521,-6.36166 6.324153,-4.6109 10.383068,-8.21391 12.869828,-11.42428 5.161,-6.66276 4.039997,-10.7852 -7.123139,-26.19499 -3.107481,-4.28961 -4.754684,-7.18381 -5.860478,-10.29707 -0.877872,-2.47156 -0.880801,-2.47562 -2.036318,-2.82158 -0.636453,-0.19054 -2.34781,-0.71011 -3.803018,-1.15458 -3.379047,-1.03208 -6.483927,-2.60843 -6.481429,-3.29063 5.29e-4,-0.12948 0.836274,-0.57803 1.857335,-0.99679 1.021062,-0.41875 1.912083,-0.85134 1.980047,-0.96131 0.06797,-0.10997 -2.388516,-1.05223 -5.458849,-2.09392 -12.754846,-4.32741 -17.648727,-6.81057 -21.581023,-10.95026 -1.020329,-1.07414 -2.186395,-2.63004 -2.59126,-3.45755 -0.404863,-0.82751 -0.769779,-1.47086 -0.810922,-1.42966 -0.04114,0.0412 -0.332293,0.72975 -0.646999,1.53012 -1.138113,2.89445 -2.678393,4.23067 -4.878678,4.23234 -1.528919,0.001 -3.421732,-0.82028 -4.030284,-1.74905 -0.540576,-0.82502 -0.782648,-0.79672 -0.964547,0.11276 -0.24293,1.21466 -0.989298,1.88172 -2.392463,2.13824 -1.45801,0.26655 -2.859476,-0.0236 -3.840255,-0.79509 -0.764662,-0.60149 -1.092965,-0.6336 -1.092965,-0.10692 0,0.73426 -1.414126,2.0004 -2.411073,2.15875 -0.800172,0.1271 -1.095743,0.0268 -1.81464,-0.61548 l -0.858774,-0.76732 -0.870881,0.87088 c -0.732719,0.73272 -1.064244,0.87089 -2.089714,0.87089 -0.9646099,0 -1.3367199,-0.13559 -1.7840112,-0.65002 -0.5145247,-0.59175 -0.6145001,-0.61546 -1.1154569,-0.26458 -0.7599521,0.53229 -1.5203408,0.48904 -5.2569666,-0.29903 -3.4866447,-0.73535 -7.0764664,-1.81276 -10.2568163,-3.07837 -4.583314,-1.82392 -8.188574,-0.37001 -16.744032,6.75242 -4.223403,3.51599 -6.145959,4.89284 -8.251629,5.90943 -2.004899,0.96794 -2.932277,1.09615 -3.727207,0.51526 -0.57767,-0.42212 -0.677825,-2.19983 -0.314251,-5.57782 l 0.19934,-1.85209 -1.78684,3.57188 c -2.181285,4.36037 -4.108712,7.18834 -6.267545,9.1959 -2.689204,2.50078 -7.469497,4.91679 -12.229398,6.18087 -2.304756,0.61208 -8.007092,0.95547 -9.699344,0.58409 l -1.009447,-0.22153 2.039346,-2.77643 c 1.12164,-1.52705 2.513703,-3.34675 3.093474,-4.0438 0.57977,-0.69706 1.009191,-1.3123 0.954268,-1.36723 -0.05492,-0.0549 -0.695078,0.0163 -1.422568,0.15826 -1.750732,0.34163 -5.913758,0.34806 -6.746667,0.0104 -0.642781,-0.26057 -0.549161,-0.37904 3.315544,-4.19554 6.128433,-6.052 12.579093,-11.25193 24.066243,-19.40001 8.622443,-6.11609 11.244821,-7.67692 16.142171,-9.6078 2.874854,-1.13347 8.8445,-2.15415 10.246789,-1.75198 1.328999,0.38115 9.0059033,0.28359 12.110503,-0.1539 3.97508942,-0.56017 6.0572491,-0.99604 14.684375,-3.07398 4.220104,-1.01646 7.837181,-2.00951 8.037949,-2.20679 0.230987,-0.22697 0.302006,-0.6098 0.193397,-1.04253 -0.13462,-0.53638 -0.335134,-0.68386 -0.929764,-0.68386 -0.41697,0 -3.659153,0.70809 -7.204856,1.57353 -11.8910149,2.90238 -15.7483515,3.53407 -21.660268,3.54714 l -4.101041,0.009 -1.442382,-1.39606 c -2.438757,-2.36045 -4.170087,-2.94185 -6.755235,-2.26851 -2.168041,0.5647 -4.312203,1.77896 -9.397175,5.32171 -5.44254,3.79187 -8.117022,5.16762 -10.140924,5.21646 -1.105251,0.0267 -1.641001,-0.0992 -2.207683,-0.51883 -0.951947,-0.70485 -1.862823,-2.3071 -2.088758,-3.67417 -0.09667,-0.5849 -0.232021,-1.15832 -0.300787,-1.27426 -0.06877,-0.11594 -0.893415,0.99717 -1.832554,2.47357 -1.951686,3.06822 -3.272205,4.91706 -5.328729,7.46067 l -1.443937,1.78593 h -9.494981 c -5.222239,0 -9.49498,-0.0643 -9.49498,-0.14283 0,-0.73245 3.20819,-5.63299 4.494439,-6.86529 0.438475,-0.42009 0.797227,-0.84565 0.797227,-0.9457 0,-0.10004 -0.838384,-0.45148 -1.863075,-0.78096 -2.080126,-0.66885 -3.164008,-1.38672 -3.164008,-2.09556 0,-0.51223 4.677542,-2.91193 21.960417,-11.26623 10.882373,-5.260393 14.723395,-6.925945 18.785416,-8.145772 4.881325,-1.465866 7.520985,-1.868551 12.303125,-1.876859 5.740887,-0.01 8.352756,0.419145 19.5438081,3.210973 4.9669806,1.239113 7.1515208,1.895163 7.2515598,2.177759 0.4947417,1.39759 2.5412197,5.492689 3.3654814,6.734489 0.9998922,1.5064 1.7573863,1.86254 2.4622757,1.15765 0.512104,-0.5121 0.366033,-1.04213 -0.7503157,-2.722575 C 8.5775071,97.221529 6.5944074,92.559951 5.7944,89.56695 5.4601942,88.316609 5.2061069,87.291891 5.2297606,87.2898 5.2534144,87.287684 6.1253223,86.716774 7.1673361,86.021052 13.735496,81.635686 18.64108,72.784786 20.46658,62.025894 c 0.552744,-3.257685 1.236356,-12.330698 0.9978,-13.242942 -0.09124,-0.348885 0.390691,-0.802013 1.89721,-1.783839 2.483493,-1.618538 5.461527,-4.544394 7.94621,-7.806979 1.859659,-2.441876 2.176566,-3.220685 1.56101,-3.836241 -0.683926,-0.683927 -1.276059,-0.257493 -3.324899,2.394479 -2.735522,3.540795 -6.127068,6.737107 -8.375984,7.893818 -1.115533,0.573767 -1.795912,1.096727 -1.864018,1.432745 -0.05899,0.291042 -0.170818,2.553229 -0.248508,5.027083 -0.293677,9.351669 -1.667351,15.661178 -4.782219,21.965505 -2.356136,4.768694 -6.3558818,9.204283 -10.0385193,11.132389 l -1.4244426,0.745792 -5.9124744,-0.59649 C -21.215725,83.523801 -34.638058,80.473932 -47.114731,75.350546 -51.9013,73.385004 -60.366037,69.093333 -65.23869,66.16159 c -4.846307,-2.915888 -5.068025,-3.178815 -3.862471,-4.580355 0.570676,-0.663451 0.794255,-0.735097 2.193508,-0.702932 0.856935,0.01971 1.969969,0.207923 2.473409,0.418274 l 0.915346,0.382456 0.0074,-2.670839 c 0.0063,-2.267699 0.111491,-2.920426 0.696795,-4.324353 1.496866,-3.590428 5.412214,-6.510843 5.93522,-4.427017 0.179732,0.716106 0.135845,1.003893 -0.522171,3.424137 -0.618276,2.274076 -0.546229,3.52206 0.298865,5.176923 0.713293,1.396772 1.389062,2.000623 1.389062,1.241232 0,-0.828379 1.919719,-4.158168 2.916471,-5.058672 0.579591,-0.523629 1.148672,-0.952051 1.264621,-0.952051 0.115948,0 0.481536,0.922735 0.812419,2.050521 2.332738,7.950965 6.060794,12.778796 10.882976,14.093452 1.105937,0.301509 5.554763,0.772957 5.554763,0.588648 0,-0.832334 -4.137657,-4.359291 -9.096523,-7.753911 -1.982949,-1.357439 -3.515643,-2.554113 -3.405984,-2.659274 0.352462,-0.338003 3.281646,-0.763186 5.257761,-0.763186 5.505561,0 11.343214,2.602485 16.872521,7.521941 l 2.262619,2.013061 0.559112,-1.095952 c 3.203908,-6.280179 -7.123348,-13.510853 -19.298351,-13.511827 -2.682044,-2.14e-4 -5.83642,0.419616 -7.185972,0.956416 -0.28234,0.112303 -1.084337,-0.555802 -2.592877,-2.16 -5.096664,-5.419849 -5.146657,-5.464035 -7.850153,-6.938235 -6.242981,-3.404267 -8.425965,-5.332024 -9.212572,-8.135469 -0.649125,-2.313467 -0.57462,-6.968766 0.195131,-12.192307 0.649747,-4.409192 1.075981,-5.615962 1.983574,-5.615962 0.761084,0 1.044629,0.537761 1.476622,2.800514 0.40285,2.1101 1.038034,3.349088 1.79319,3.497797 0.751232,0.147934 2.286126,-1.553421 4.331484,-4.801243 4.727209,-7.50633 7.208238,-9.434568 12.139299,-9.434568 1.235366,0 2.246119,0.08122 2.246119,0.180488 0,0.09927 -0.947182,1.855438 -2.104847,3.902604 -2.375514,4.20075 -3.909722,7.398764 -4.163031,8.67772 -0.198477,1.002107 -0.432655,1.129739 2.828295,-1.541484 3.906393,-3.199939 5.757815,-3.966136 7.977037,-3.301243 1.390248,0.416531 1.35024,0.549349 -1.822964,6.051788 -2.50046,4.335878 -2.533962,6.114828 -0.115903,6.154381 5.674908,0.09282 14.095915,-0.381844 16.843814,-0.949439 1.055315,-0.21798 2.916791,-0.700013 4.136615,-1.071187 1.860733,-0.56619 3.048638,-0.712933 7.377234,-0.911317 7.3579517,-0.337228 8.7333273,-0.724633 16.9045444,-4.761537 7.3449336,-3.62869 10.9210286,-5.628466 14.7203296,-8.231712 2.846265,-1.950236 4.301336,-2.400125 3.953901,-1.222499 -0.322294,1.092411 -1.389335,3.315877 -2.076807,4.327583 -0.37379,0.550082 -0.630222,1.049544 -0.569849,1.109916 0.06037,0.06037 0.801359,-0.30789 1.646637,-0.818361 1.984785,-1.198629 3.396208,-1.774868 4.347305,-1.774868 0.877893,0 0.900303,0.09667 0.287327,1.239333 -0.794914,1.481825 -3.133196,4.097896 -6.543683,7.321076 -3.511529,3.318672 -5.35922,5.691368 -5.603293,7.19541 -0.318246,1.961116 1.698236,0.753322 5.079289,-3.04229 2.641465,-2.965344 5.288679,-5.50689 9.261591,-8.891889 2.27988,-1.942505 10.899934,-8.58414 11.141191,-8.58414 0.275675,0 -0.08414,2.123634 -0.931706,5.499029 -1.023101,4.074438 -2.146924,7.384317 -3.889756,11.456112 -0.783714,1.831001 -1.424937,3.414763 -1.424937,3.519464 0,0.104703 0.579302,-0.500423 1.287335,-1.344721 2.874759,-3.428021 6.312239,-6.24281 9.748478,-7.982567 1.495218,-0.757023 1.762096,-0.728715 1.542478,0.163621 -0.261932,1.064263 -1.30407,2.754762 -2.824493,4.581737 -0.735745,0.884087 -1.296572,1.644663 -1.24628,1.690166 0.05029,0.0455 1.103471,-0.570878 2.340398,-1.36974 2.620468,-1.692407 4.771552,-2.71935 5.696085,-2.71935 0.359654,0 0.653915,0.06428 0.653915,0.142832 0,0.371692 -1.257826,2.565385 -2.497135,4.355084 -1.942293,2.804891 -1.921843,2.763677 -1.172815,2.3636 0.344985,-0.184264 1.401148,-0.809307 2.347034,-1.388986 2.246611,-1.376817 5.797322,-3.09128 6.402149,-3.09128 0.262361,0 0.474403,0.148828 0.471207,0.330729 -0.0098,0.560716 -0.948089,2.440104 -1.816939,3.639513 -0.454728,0.627737 -0.786667,1.181452 -0.737642,1.230477 0.04903,0.04903 1.380961,-0.397664 2.959854,-0.992648 2.841699,-1.070851 4.627621,-1.530676 4.627621,-1.191483 0,0.636321 -0.945574,2.153661 -2.326127,3.732687 -0.884669,1.011846 -1.574922,1.873289 -1.533895,1.914313 0.04102,0.04102 1.015608,-0.356952 2.165744,-0.884391 3.773625,-1.730547 5.927611,-2.400467 5.927611,-1.843569 0,0.702934 -1.753579,2.906109 -3.929293,4.936712 -2.693347,2.513711 -2.533718,2.511693 2.87096,-0.03633 4.386138,-2.067838 6.085416,-2.584916 6.085416,-1.851748 0,0.588825 -1.305954,2.432572 -2.866175,4.046469 -0.668237,0.691224 -1.093854,1.256771 -0.94582,1.256771 0.148035,0 1.810608,-0.637429 3.694605,-1.416508 4.198572,-1.736211 4.615307,-1.873046 4.615307,-1.515435 0,0.153294 -1.190625,1.514866 -2.645833,3.025714 -1.455209,1.51085 -2.645834,2.806586 -2.645834,2.879418 0,0.07283 1.419456,-0.383079 3.154344,-1.013137 3.086844,-1.121042 6.480935,-1.937967 6.785658,-1.633244 0.546785,0.546783 -1.670894,2.90135 -5.394225,5.727195 -1.210606,0.918795 -2.145754,1.725882 -2.078108,1.793526 0.06765,0.06765 1.177202,-0.404307 2.465681,-1.048782 4.587999,-2.29484 8.5604,-3.632118 8.5604,-2.881797 0,0.498107 -1.720162,2.859831 -3.336229,4.580528 -0.959043,1.021135 -1.696408,1.903915 -1.638588,1.961732 0.05782,0.05782 1.718402,-0.423204 3.690189,-1.068941 1.971783,-0.645734 4.27573,-1.255239 5.119878,-1.354452 l 1.534813,-0.180388 -0.502219,0.878713 c -0.27622,0.483291 -1.277615,1.692384 -2.22532,2.686868 -0.947706,0.994487 -1.683658,1.808157 -1.635448,1.808157 0.04821,0 1.285105,-0.303538 2.748656,-0.674529 3.300343,-0.836594 5.879221,-1.112636 6.159399,-0.659299 0.251468,0.406884 -1.243057,1.964005 -3.626861,3.778769 -0.979836,0.745937 -1.731245,1.406527 -1.669798,1.467974 0.06145,0.06145 1.637038,-0.247589 3.501313,-0.68675 3.978495,-0.937202 5.638549,-1.169572 5.638549,-0.789276 0,0.50649 -1.980962,2.101655 -4.438952,3.574458 -2.576899,1.544047 -3.15967,2.038826 -2.131655,1.809792 2.913515,-0.649107 6.849382,-1.261483 8.819565,-1.372222 l 2.381245,-0.133844 -1.21297,1.141941 c -0.667138,0.628071 -2.415915,1.853793 -3.88617,2.72383 -1.470258,0.870038 -2.633721,1.621362 -2.585472,1.669608 0.04825,0.04825 1.320774,-0.265832 2.827838,-0.697957 4.726634,-1.355289 7.370314,-1.730362 7.370314,-1.045665 0,0.698957 -2.74305,2.812465 -5.58811,4.305617 -1.655963,0.869082 -2.827385,1.61716 -2.603158,1.662388 0.224226,0.04523 1.891101,-0.163235 3.704166,-0.463256 4.293682,-0.710507 8.455852,-0.988381 8.455852,-0.564526 0,0.444447 -2.70053,2.128107 -5.37566,3.351485 -2.1945,1.003575 -2.966273,1.603645 -1.70194,1.323287 2.7084,-0.600567 9.45885,-0.866291 9.45885,-0.372337 0,0.45185 -1.65409,1.919676 -3.23001,2.866284 l -1.40019,0.841055 2.77812,-0.126151 c 2.73694,-0.124283 5.10917,0.07836 5.49264,0.469199 0.27437,0.279641 -1.28929,1.53403 -3.21071,2.575669 l -1.62047,0.878485 2.5589,0.167653 c 2.6799,0.175578 5.14901,0.652666 5.38921,1.041318 0.16621,0.268941 -1.81736,1.315659 -4.73758,2.499993 -2.01417,0.816872 -2.05355,0.84955 -1.2237,1.015521 0.47159,0.09432 1.70576,0.172177 2.7426,0.173019 2.19928,0.0019 4.90671,0.400653 5.2846,0.778539 0.1749,0.174897 -0.3522,0.554646 -1.56799,1.129657 -1.47223,0.696293 -1.70171,0.879988 -1.17,0.936524 2.47693,0.263367 6.35,1.254983 6.35,1.625783 0,0.204137 -2.88216,1.613382 -3.29966,1.613382 -0.43783,0 -3.08003,0.852254 -2.97325,0.959038 0.064,0.06398 1.65039,0.287591 3.52535,0.496908 3.47466,0.387908 6.02881,0.984232 6.33456,1.47895 0.2798,0.452726 -0.66118,0.960503 -3.45336,1.863513 l -2.64449,0.855241 3.04136,0.43631 c 3.46461,0.49703 5.02574,0.94294 5.02574,1.4355 0,0.56899 -0.99216,1.64335 -1.84312,1.99582 -1.1227,0.46504 -1.00342,0.70766 0.45406,0.92352 1.42804,0.2115 3.60786,1.07919 4.05024,1.61223 0.4077,0.49125 -0.99741,1.32727 -2.92101,1.73793 -0.80298,0.17143 -1.55139,0.39024 -1.66314,0.48623 -0.11175,0.096 0.72169,0.31773 1.85208,0.49273 2.24779,0.34798 4.39246,1.2584 4.51339,1.91595 0.0977,0.5311 -1.28243,1.14543 -3.91333,1.74195 l -1.98438,0.44993 1.5875,0.34868 c 2.77166,0.60875 3.76419,0.91909 4.63695,1.44985 l 0.85036,0.51713 -0.62247,0.6626 c -0.34236,0.36443 -1.03252,0.91601 -1.53369,1.22575 l -0.9112,0.56316 1.30357,0.29722 c 2.63072,0.59981 3.5499,1.66999 3.55153,4.13498 10e-4,1.63436 0.19242,1.80526 2.02987,1.81318 1.60828,0.007 1.69811,-0.14352 1.01199,-1.69496 -1.05355,-2.38227 -1.30907,-4.30132 -0.82454,-6.19264 1.43502,-5.60143 4.74323,-7.6812 9.75556,-6.13305 6.50174,2.00818 7.7166,11.01229 2.17501,16.12034 -1.15262,1.06245 -3.16956,2.13726 -4.01068,2.13726 -0.28001,0 -0.3452,0.1415 -0.21332,0.46302 0.10446,0.25466 0.2506,1.2435 0.32475,2.19742 0.22265,2.8641 -1.46983,8.45375 -2.62417,8.66668 -0.94926,0.1751 -1.23691,-0.94471 -1.43143,-5.57243 -0.10246,-2.43748 -0.2261,-4.43177 -0.27477,-4.43177 -0.0487,0 -0.65583,0.34732 -1.34924,0.77182 -1.42255,0.87088 -4.21466,1.87401 -5.21611,1.87401 -0.78686,0 -0.75414,-0.11896 -1.34648,4.89479 -0.59946,5.0739 -1.61983,8.92103 -3.37195,12.71325 -1.75176,3.79145 -2.09123,4.96956 -2.07413,7.19805 0.0304,3.96051 3.10109,7.29128 8.23438,8.93179 2.20772,0.70555 2.84908,1.10577 3.60677,2.25073 2.0146,3.04426 1.08193,6.84917 -2.77821,11.33399 -4.61265,5.35911 -5.71162,7.84183 -9.79601,22.13053 -2.99813,10.48855 -4.85559,15.02759 -7.04585,17.21785 -1.97776,1.97776 -3.34305,1.58724 -6.09964,-1.74471 -0.96087,-1.16143 -1.90645,-2.11169 -2.10128,-2.11169 -1.23616,0 -1.90447,2.3569 -2.2132,7.80521 -0.18259,3.22213 -0.37282,4.58431 -0.7964,5.70265 -1.68743,4.45523 -11.494618,12.77874 -16.943466,14.38019 -1.650966,0.48523 -2.110809,0.51332 -2.663957,0.16272 z m -9.474071,-95.00006 c 1.120585,-0.31123 1.408986,-0.89686 1.142143,-2.31925 -0.310597,-1.65563 -0.842536,-2.39 -1.946524,-2.68727 -2.157441,-0.58094 -3.910179,-0.8046 -6.305274,-0.8046 -2.331715,0 -6.327275,0.60385 -6.761687,1.0219 -0.106902,0.10287 1.805583,0.79973 4.249968,1.54856 4.046024,1.23949 4.540837,1.45802 5.521055,2.43824 1.174036,1.17403 2.1058,1.35637 4.100319,0.80242 z m 60.539197,-18.90866 c 0.39301,-0.47354 0.23814,-1.39249 -0.52323,-3.10468 -0.69262,-1.55756 -1.42383,-2.02545 -2.14516,-1.37266 -0.63706,0.57654 -0.63357,0.80355 0.0368,2.39385 0.29918,0.70972 0.65381,1.55829 0.78808,1.88571 0.28513,0.69532 1.33694,0.80817 1.84351,0.19778 z m 5.8205,-6.87893 c 0.73001,-1.50801 1.19837,-4.19956 0.9556,-5.49168 -0.12082,-0.64308 -0.4268,-1.15145 -0.86637,-1.43947 -0.60724,-0.39788 -0.75338,-0.40386 -1.37287,-0.0562 -1.10839,0.62212 -1.4066,1.46365 -1.26777,3.57748 0.13194,2.00879 1.0526,4.60087 1.63414,4.60087 0.18738,0 0.60015,-0.53597 0.91727,-1.19105 z M -26.374158,71.28226 c 0.379873,-0.0021 0.868826,-0.116674 1.086565,-0.254323 0.925547,-0.58511 -4.560557,-5.077373 -8.575313,-7.021844 -2.449436,-1.186336 -6.936335,-2.623724 -7.694229,-2.464863 -0.252452,0.05292 0.758497,0.928603 2.544964,2.204455 1.630082,1.164167 4.224327,3.332173 5.764988,4.81779 1.540661,1.48562 3.039327,2.755223 3.330368,2.82134 0.291042,0.06612 1.051801,0.071 1.690574,0.01085 0.638776,-0.06015 1.472213,-0.111184 1.852083,-0.113411 z m -22.282959,-4.157819 c -1.090102,-1.72683 -2.453439,-4.608036 -3.077824,-6.504512 -0.326456,-0.99156 -0.648377,-1.748017 -0.71538,-1.681014 -0.328986,0.328983 -0.876197,3.131854 -0.878978,4.5022 -0.0039,1.913822 0.558549,3.1607 1.760895,3.90379 1.035449,0.639942 3.353281,1.310717 3.477061,1.006253 0.04495,-0.110559 -0.20965,-0.66258 -0.565774,-1.226717 z m -9.470896,-3.411829 c 1.00078,-0.200154 1.017809,-0.377624 0.156851,-1.634609 -0.368485,-0.537982 -0.919632,-1.794235 -1.224772,-2.791669 -0.461126,-1.507315 -0.526236,-2.199748 -0.38562,-4.101042 l 0.169181,-2.287524 -0.668003,1.058334 c -0.941562,1.491739 -1.454147,3.386468 -1.454147,5.375137 0,2.447687 0.446569,3.740978 1.441357,4.174268 0.963706,0.419751 0.923248,0.415486 1.965153,0.207105 z m 11.692134,-10.427277 c 0.676359,-0.361979 0.645483,-0.957466 -0.138488,-2.670699 -1.477206,-3.228184 -1.93942,-7.645598 -1.214546,-11.607493 0.559054,-3.055588 2.180772,-7.43948 4.379965,-11.840104 1.181756,-2.364714 2.037601,-4.29948 1.901875,-4.29948 -0.571952,0 -3.546081,2.045478 -5.134192,3.531079 -3.122244,2.920709 -5.317564,6.615311 -5.914046,9.953025 -0.590669,3.305183 0.74181,11.715142 2.31376,14.603333 1.201727,2.207969 2.522805,3.016909 3.805672,2.330339 z m 45.70633133,-0.791853 c 0.69030057,-0.420864 0.85917088,-0.682352 0.79375,-1.229095 -0.13057187,-1.09124 -0.77816604,-1.329267 -2.05276983,-0.754499 -1.0800635,0.48704 -1.0955734,0.48636 -1.8641192,-0.08185 -1.0807568,-0.799039 -2.0624668,-0.759394 -2.2761337,0.09192 -0.4783613,1.905942 3.2655616,3.274412 5.39927273,1.973527 z M -5.4103893,47.209227 c 2.3235867,-1.123659 3.2079433,-1.251104 5.12454788,-0.73849 1.03245444,0.276138 1.25457744,0.261123 1.62560002,-0.1099 0.2846731,-0.28467 0.373544,-0.65365 0.2632657,-1.093033 -0.2126589,-0.847302 -1.57950165,-1.328963 -3.738589,-1.317437 -2.6514054,0.01416 -6.4822916,1.856076 -6.4822916,3.116739 0,0.500181 0.4974828,1.110154 0.9725051,1.192408 0.025559,0.0044 1.0312903,-0.468204 2.2349619,-1.050287 z M 21.976793,40.518623 c 1.539475,-3.739134 3.992663,-7.196021 8.70916,-12.272428 1.375196,-1.480135 2.500357,-2.855307 2.500357,-3.055938 0,-0.200628 -0.142875,-0.507656 -0.3175,-0.682281 -0.726159,-0.72616 -1.477065,-0.314743 -3.711958,2.033749 -4.586185,4.819293 -7.586118,9.027187 -9.200589,12.905325 -0.698715,1.67839 -0.792054,2.129554 -0.550328,2.660086 0.221567,0.486286 0.462057,0.618945 1.006826,0.555387 0.620853,-0.07243 0.828175,-0.356626 1.564032,-2.1439 z m -84.350518,1.200499 c 0.519153,-0.443227 0.531832,-0.604403 0.296598,-3.770312 -0.153267,-2.062758 -0.15102,-4.496454 0.006,-6.467436 0.270663,-3.39807 0.16256,-3.851315 -0.918576,-3.851315 -1.13305,0 -1.282854,0.563648 -1.405808,5.289442 -0.135556,5.210233 0.09288,8.30879 0.653911,8.869823 0.504842,0.504841 0.706473,0.494493 1.367903,-0.0702 z m 8.212213,-14.232234 c 0.514623,-0.433028 1.887406,-2.77922 3.85676,-6.591514 1.68175,-3.255545 3.057729,-6.001994 3.057729,-6.103218 0,-0.344332 -1.451314,0.172878 -2.671718,0.952129 -3.093958,1.975554 -6.417258,6.412162 -7.474558,9.978541 -0.396078,1.336011 -0.391362,1.423763 0.103105,1.918229 0.743524,0.743525 2.143841,0.674521 3.128682,-0.154167 z m 57.1853223,-5.68601 c 0,-1.499198 0.6873187,-3.37376 3.2822701,-8.951897 3.8069146,-8.1833905 6.3777656,-12.74065598 8.5373026,-15.1337977 1.010248,-1.1195297 2.538124,-1.986492 2.998943,-1.7016897 0.822794,0.5085135 1.031423,6.2017975 0.514745,14.0468534 -0.325171,4.93725 -0.02532,4.46613 -4.579517,7.19505 -2.680179,1.605987 -10.2349698,5.612162 -10.5833388,5.612162 -0.093723,0 -0.1704049,-0.480007 -0.1704049,-1.066681 z"
         id="path1239" />
    </g>
  </g>
</svg>
