<?xml version="1.0" encoding="UTF-8"?>
<svg width="600" height="726" xmlns="http://www.w3.org/2000/svg">
 <path d="m299.8 8.758h294.36v432.67c0 155.46-131.7 281.5-294.17 281.5-162.45 0-294.14-126.04-294.14-281.5v-432.67z" fill="#1c63b7"/>
 <g fill="#fcdb00" stroke="#000" stroke-width="5.8">
  <path d="m5.856 8.758v146.75l202.17 229.66-167.04 189.73c22.83 40.482 55.72 74.996 95.465 100.49l163.54-185.76 163.54 185.78c39.748-25.487 72.639-59.997 95.474-100.47l-167.06-189.76 202.2-229.67v-146.75h-54.733l-239.44 271.95-239.42-271.95z"/>
  <path d="M286.24 196.809c3.38-19.726 4.476-27.454 4.854-45.831.586-28.19-3.109-32.512-12.548-63.63-5.809-19.151 3.858-55.177 21.45-65.91 17.591 10.732 27.258 46.759 21.45 65.91-9.436 31.12-13.134 35.44-12.548 63.63.381 18.377 1.478 26.1 4.854 45.83 1.965 11.48-5.345 24.154-13.756 31.602-8.41-7.448-15.72-20.125-13.755-31.601z"/>
  <path d="M348.13 122.392c15.868 2.802 33.524-3.88 33.524-26.815 0-22.292-25.66-33.04-45.863-19.803-2.796 1.831-10.146 8.431-14.782 18.7-6.319 13.99-15.04 28.304-15.082 54.96 2.08 46.796 21.309 52.08 38.497 50.846-20.283-10.585-26.563-31.092-26.069-49.232.406-14.862 2.918-28.73 12.201-40.618 10.524-13.476 20.648-11.983 24.616-8.803 6.03 7.844-1.177 17.415-7.042 20.765zm-96.267 0c-15.869 2.802-33.524-3.88-33.524-26.815 0-22.292 25.66-33.04 45.863-19.803 2.796 1.831 10.146 8.431 14.782 18.7 6.318 13.99 15.04 28.304 15.082 54.96-2.08 46.796-21.309 52.08-38.497 50.846 20.283-10.585 26.563-31.092 26.069-49.232-.406-14.862-2.918-28.73-12.201-40.618-10.524-13.476-20.648-11.983-24.616-8.803-6.03 7.844 1.177 17.415 7.042 20.765z"/>
  <path d="M278.694 143.342c-5.017 0-8.448 3.472-8.362 8.013 0 4.406 3.53 8.013 8.362 8.013H321.3c4.832 0 8.361-3.607 8.361-8.013.09-4.541-3.345-8.013-8.361-8.013h-21.306z"/>
 </g>
 <path d="m299.8 5.84h294.36v432.67c0 155.46-131.7 281.5-294.17 281.5-162.45 0-294.14-126.04-294.14-281.5v-432.67z" fill="none" stroke="#000" stroke-width="11.6"/>
</svg>
