<?xml version="1.0" encoding="UTF-8"?>
<svg width="417.8" height="489.34" xmlns="http://www.w3.org/2000/svg" xmlns:rdf="http://www.w3.org/1999/02/22-rdf-syntax-ns#">
<g stroke="#000">
<path d="m2 298.21v-296.21h413.8v296.21c0 102.89-103.51 189.14-206.94 189.14-103.43 0-206.86-86.245-206.86-189.14z" fill="#cc2918" fill-rule="evenodd" stroke-width="4"/>
<g stroke-dashoffset="4.58" stroke-miterlimit="11" stroke-width="2">
<path d="m248.89 482.83c-7.7126-9.297-16-24.159-16-36.239v-408.8c0-11.932 8.3211-26.664 16-35.797h-80c7.8383 8.9968 16 23.865 16 35.797v408.62c0 12.139-9.17 28.716-15.931 36.338 26.642 6.1209 53.286 6.0847 79.931 0.0784z" fill="#feeb00"/>
<path d="m148.02 153.25c-6.9501-9.566-3.0225-25.003 7.2509-34.13 11.974-10.638 31.469-15.796 53.585-15.796s41.611 5.1576 53.585 15.796c10.273 9.1279 14.201 24.564 7.2509 34.13l-60.835 83.733z" fill="#fff"/>
<path d="m415.95 196.98c-9.297 7.7126-24.159 16-36.239 16h-341.8c-11.932 0-26.664-8.3211-35.797-16v80c8.9968-7.8383 23.865-16 35.797-16h341.62c12.139 0 28.716 9.17 36.338 15.931z" fill="#feeb00"/>
<path d="m110.43 268.96c-11.245 3.6539-24.713-4.8516-30.219-17.443-6.4177-14.675-5.2986-34.81 1.5356-55.843 6.8342-21.034 17.764-37.981 31.581-46.081 11.856-6.9499 27.751-5.9151 34.701 3.6509l60.835 83.733z" fill="#fff"/>
<path d="m208.86 340.48c0 11.824-12.251 22.004-25.927 23.35-15.94 1.5688-34.743-5.7175-52.635-18.717-17.892-12.999-30.632-28.631-34.066-44.275-2.9461-13.423 2.9498-28.22 14.195-31.874l98.434-31.983z" fill="#fff"/>
<path d="m208.86 157.19v79.784" fill="#feeb00"/>
<path d="m307.29 268.96c11.245 3.6539 17.141 18.451 14.195 31.874-3.4337 15.644-16.174 31.276-34.066 44.275-17.892 12.999-36.696 20.286-52.636 18.717-13.677-1.346-25.927-11.526-25.927-23.35l-2e-5 -103.5z" fill="#fff"/>
<circle cx="208.86" cy="157.19" r="7.1395" fill="#feeb00"/>
<path d="m269.7 153.25c6.9501-9.566 22.845-10.601 34.701-3.6509 13.818 8.1 24.747 25.047 31.581 46.081 6.8342 21.034 7.9533 41.168 1.5356 55.843-5.5064 12.591-18.974 21.097-30.219 17.443l-98.434-31.983z" fill="#fff"/>
</g>
</g>
<g fill="#feeb00" stroke="#000" stroke-dashoffset="4.58" stroke-miterlimit="11" stroke-width="2">
<path d="m224.77 177.6-15.91 59.378"/>
<circle transform="rotate(15)" cx="263.08" cy="113.37" r="7.1395"/>
<path d="m192.95 177.6 15.91 59.378"/>
<circle transform="rotate(-15)" cx="140.41" cy="221.49" r="7.1395"/>
</g>
<path d="m156.81 117.81c8.0214-6.5421 18.89-3.0609 29.597 6.4617 15.599 13.873 20.188-0.5009 22.452-11.955 2.2639 11.454 6.8529 25.828 22.452 11.955 10.707-9.5225 21.575-13.004 29.597-6.4617" fill="none" stroke="#000" stroke-dashoffset="4.58" stroke-miterlimit="11" stroke-width="2"/>
<g fill="#feeb00" stroke="#000" stroke-dashoffset="4.58" stroke-miterlimit="11" stroke-width="2">
<path d="m132.98 212.32 75.879 24.655"/>
<circle transform="rotate(-72)" cx="-160.84" cy="192.08" r="7.1395"/>
<path d="m157.3 203.5 51.556 33.481"/>
<circle transform="rotate(-57)" cx="-84.994" cy="242.76" r="7.1395"/>
<path d="m147.47 233.76 61.389 3.2172"/>
<circle transform="rotate(-87)" cx="-225.72" cy="159.5" r="7.1395"/>
</g>
<path d="m79.444 249.66c-3.7431-9.6505 2.9263-18.911 15.291-26.152 18.015-10.548 5.762-19.355-4.4318-25.047 11.593 1.3864 26.682 1.4639 18.308-17.659-5.7479-13.125-5.7001-24.538 3.0005-30.145" fill="none" stroke="#000" stroke-dashoffset="4.58" stroke-miterlimit="11" stroke-width="2"/>
<g fill="#feeb00" stroke="#000" stroke-dashoffset="4.58" stroke-miterlimit="11" stroke-width="2">
<path d="m161.96 301.53 46.896-64.547"/>
<circle transform="rotate(216)" cx="-308.26" cy="-148.74" r="7.1395"/>
<path d="m161.09 275.67 47.774-38.686"/>
<circle transform="rotate(231)" cx="-315.61" cy="-48.294" r="7.1395"/>
<path d="m186.83 294.37 22.03-57.39"/>
<circle transform="rotate(201)" cx="-279.91" cy="-207.86" r="7.1395"/>
</g>
<path d="m180.92 363.98c-10.335 0.57776-17.081-8.627-20.146-22.624-4.4652-20.393-16.627-11.461-25.191-3.5251 4.901-10.597 9.6374-24.924-11.137-22.869-14.259 1.4106-25.098-2.1615-27.742-12.169" fill="none" stroke="#000" stroke-dashoffset="4.58" stroke-miterlimit="11" stroke-width="2"/>
<g fill="#feeb00" stroke="#000" stroke-dashoffset="4.58" stroke-miterlimit="11" stroke-width="2">
<path d="m255.76 301.53-46.896-64.547"/>
<circle transform="rotate(144)" cx="-29.678" cy="-394.27" r="7.1395"/>
<path d="m230.89 294.37-22.03-57.39"/>
<circle transform="rotate(159)" cx="-110.06" cy="-357.56" r="7.1395"/>
<path d="m256.63 275.67-47.773-38.686"/>
<circle transform="rotate(129)" cx="52.727" cy="-372.92" r="7.1395"/>
</g>
<path d="m321.01 302.79c-2.6442 10.008-13.483 13.58-27.742 12.169-20.774-2.0551-16.038 12.271-11.137 22.869-8.5641-7.9358-20.726-16.868-25.191 3.5251-3.0648 13.997-9.8115 23.202-20.146 22.624" fill="none" stroke="#000" stroke-dashoffset="4.58" stroke-miterlimit="11" stroke-width="2"/>
<g fill="#feeb00" stroke="#000" stroke-dashoffset="4.58" stroke-miterlimit="11" stroke-width="2">
<path d="m284.74 212.32-75.879 24.655"/>
<circle transform="rotate(72)" cx="289.92" cy="-205.19" r="7.1395"/>
<path d="m270.25 233.76-61.389 3.2173"/>
<circle transform="rotate(87)" cx="247.59" cy="-257.64" r="7.1395"/>
<path d="m260.42 203.5-51.556 33.481"/>
<circle transform="rotate(57)" cx="312.5" cy="-107.57" r="7.1395"/>
</g>
<g stroke="#000">
<path d="m306.11 150.65c8.7007 5.6072 8.7484 17.02 3.0005 30.145-8.3741 19.123 6.7148 19.045 18.308 17.659-10.194 5.6926-22.447 14.499-4.4318 25.047 12.365 7.2402 19.034 16.501 15.291 26.152" fill="none" stroke-dashoffset="4.58" stroke-miterlimit="11" stroke-width="2"/>
<circle cx="208.86" cy="236.98" r="29.639" fill="#feeb00" stroke-dashoffset="4.58" stroke-miterlimit="11" stroke-width="2"/>
<path d="m2 298.21v-296.21h413.8v296.21c0 102.89-103.51 189.14-206.94 189.14-103.43 0-206.86-86.245-206.86-189.14z" fill="none" stroke-width="4"/>
</g>
</svg>
