<?xml version="1.0" encoding="UTF-8"?>
<svg width="700" height="397" fill="none" xmlns="http://www.w3.org/2000/svg">
<g stroke-width="4.173">
<path d="M168.7 303.41c.421 1.115-1.376 4.878-.742 6.578.634 1.695.688 2.33.688 2.33 5.445-4.928 20.88-14.317 20.88-14.317-5.545-.902-6.92-.584-6.92-.584z" fill="#fff"/>
<path d="M91.46 180.42c-.104 2.017 3.911 15.382 4.653 16.175.738.794 1.376.794-1.271-9.493-2.59-10.232-3.382-6.682-3.382-6.682z" fill="#000"/>
<path d="M123.18 153.9c5.396-4.03 4.336-15.536 9.728-16.334 5.337-.743 8.297 5.889 11.154 7.158 1.584.69 5.712 3.024 5.712 3.024-1.167 1.537-5.5 1.487-5.5 1.487-5.391 16.384-14.064 7.793-15.91 6.36-1.852-1.428-1.114-1.75-1.114-1.75z" fill="#000"/>
<path d="M131.21 144.94c1.272-1.804.267-3.763 2.698-3.659 2.43.16 7.455 5.25 7.297 6.098-2.54 13.74-9.094 5.676-9.094 5.676 3.91-.426 5.712-1.963 4.92-4.72-1.272-4.243-5.821-3.395-5.821-3.395z" fill="#fff"/>
<path d="M150.25 125.27c-1.639-20.151 11.946-24.077 14.748-30.387 1.167-2.598 1.322-5.413 2.54-3.554 3.168 4.878 5.02 19.942 1 23.016-2.48 1.908-1.21-1.483-1.318-3.396-.208-4.343-2.326-9.492-2.326-9.492-2.273 4.773-11.896 11.297-12.847 20.1-.53 5.037-1.797 3.713-1.797 3.713z" fill="#000"/>
<path d="M155.48 321.92c-.104 2.013 1.218 4.293 1.218 4.293 1.109-1.06 1.375-2.067 1.375-2.067-1.271-1.006-1.534-2.335-1.534-2.335z" fill="#fff"/>
<g fill="#000">
<path d="M246.62 271.69c3.436-3.5 21.357-26.62 10.891-53.349-9.782-25.088-48.109-52.982-59.584-74.991-7.664-14.797-3.436-28.692-2.06-24.557.897 2.706-3.119 10.504 5.337 24.135 18.188 29.381 48.426 40.302 59.53 75.467 6.079 19.303.37 39.613-10.312 51.599-4.599 5.25-3.802 1.696-3.802 1.696zm31.822-55.738c1.376-8.75 1.851-17.182-7.56-33.941-5.445-9.706-17.654-19.621-26.802-39.083-9.143-19.462-2.802-29.807-3.064-22.649-.742 20.631 26.802 47.623 34.149 64.437 3.544 8.169 7.826 14.743 5.024 32.296-.688 4.03-1.747-1.06-1.747-1.06z"/>
<path d="M263.43 203.49c-12.842-31.022-26.802-34.789-32.827-58.444-6.396-25.242 6.609-41.522 22.257-43.434 18.134-2.226 23.892 11.138 22.891 16.973-.213 1.274-.475-1.378-2.698-4.828-3.169-4.878-10.36-10.763-20.619-8.11-10.203 2.647-25.322 14.53-18.45 38.715 4.97 17.553 15.227 26.833 23.633 42.265 2.01 3.712 5.446 10.34 6.184 15.06.267 1.858-.371 1.804-.371 1.804z"/>
<path d="M234.2 168.6c-5.337-4.882-31.243-44.813-4.862-66.4 10.52-8.59 22.783-7.054 25.64-6.415 2.855.635-.055 1.537-2.115 1.27-2.064-.318-13.009-.794-22.045 8.486-13.48 13.841-15.015 31.344 3.327 61.31 1.64 2.597.055 1.749.055 1.749z"/>
<path d="M216.28 146.37c-8.881-11.986-15.277-45.982 14.539-58.336 14.535-6.047 32.298-3.395 40.97 6.574 1.534 1.804-.267.956-2.485-.318-.9-.53-14.644-11.243-35.421-2.865-31.614 12.834-20.723 44.391-17.921 50.225 3.119 6.628.317 4.72.317 4.72z"/>
</g>
<path d="M334.86 287.28c-9.515-8.645-27.757-19.942-63.862-17.395 0 0 7.876-4.298 5.02-7.162 27.227-28.212 16.282-50.009 14.218-56.587-2.06-6.577.53-10.078-4.436-25.138-5.287-16.175-36.742-43.063-24.688-49.853 5.02-2.86 12.842 4.194 13.055 9.285 0 0 22.153-7.639 13.272-37.6-8.881-29.966-41.03-34.952-72.005-23.442-34.416 12.78-31.297 45.343-25.797 63.64 7.926 26.41 35.788 38.235 52.495 63.853 10.203 15.699 12.58 40.887 5.762 45.66 3.649-8.537-2.064-28.266-8.881-42.958-11.104-23.918-44.039-37.863-46.257-42.424-.792-1.7-8.035-40.252-21.098-41.05 0 0 15.598-17.925-4.015-54.573 0 0-.688 14.588-15.223 26.253 0 0-1.797-14.267-14.644-19.73 0 0 3.594 9.44 1.901 14.004-1.693 4.56-12.213 16.597-6.292 30.387 0 0-5.287 4.188-8.089 7-11.733 11.776-5.708 29.062-9.99 32.032-4.228 5.513-5.183 5.676-2.856 9.97.954 1.803 6.133 4.134 7.192 3.499 0 0 4.124 2.071 6.184 2.756 2.802.907 6.45-.685 9.994-1.587 3.54-.902 5.6 2.811 9.674.372 0 0 .688.635-.901 6.202-1.53 5.571-6.555 17.236-3.648 21.533-3.699 9.017-15.065 4.72-18.61 3.287-.104-2.548-2.585-11.773-8.193-8.963-5.712-13.84-10.52-29.753-23.738-24.87-15.54 5.726-2.96 32.985-2.96 32.985-3.807 1.909-2.644 5.567-1.793 7.213.842 1.645 2.906 7.53 7.188 9.175-2.802-1.754-5.34-2.706-5.34-2.706 1.638 5.413 6.712 9.121 6.712 9.121-1.426-.317-2.752-.476-2.752-.476 2.118 3.287 7.935 9.493 14.277 10.767 6.292 1.274 7.93-.689 12-.267 4.02.376 21.307 8.912 22.153 8.804.847-.105 1.793-.902 1.793-.902 2.168 1.115 5.767.375 5.767.375-4.283 13.097 13.005 25.56 16.703 31.285 3.281 5.096 3.281 7.426 3.281 7.426-6.504-1.17-8.935-1.324-13.168 3.98-2.218 2.81-4.545 8.482-6.025 9.013-1.48.584-3.911 3.658-5.762 5.25-3.545 3.132 1.693 11.246 1.693 11.246-2.857 6.733 4.282 11.134 4.282 11.134-2.273-6.473 1.901-8.536 1.901-8.536-.95 7.104 4.336 10.232 4.336 10.232-6.346 5.784-9.94 16.497-11.683 29.331-5.866-4.402-47.212-24.875-71-87.082l-60.793-158.94 258.67-99.486 60.751 158.89c17.074 44.708 14.852 83.473 4.228 115.77z" fill="#fff"/>
<path d="M171.4 286.01c1.376-5.037-1.484-9.547-1.484-9.547 4.178 1.858 5.87 9.706 5.87 9.706l-4.39-.159zm11.154-.317c-.108-2.44-3.753-9.335-3.753-9.335 5.233 3.763 7.56 9.385 7.56 9.385zm7.718-.64c1-1.695-.634-6.043-.634-6.043 4.228 2.385 6.505 5.78 6.505 5.78-2.49.953-5.025-.054-5.871.264zm8.881-.952c.317-1.804-1.96-5.095-1.96-5.095a12.342 12.362 0 0 1 4.866 4.456c-1.48.957-2.906.64-2.906.64z" fill="#fff"/>
<path d="M352.46 239.45a10.09 10.107 0 0 0 3.277-4.243 10.211 10.228 0 0 0 .054-7.902 10.007 10.023 0 0 0 5.392 5.621c5.074 2.122 10.945-.375 13.109-5.57a10.207 10.224 0 0 0 .054-7.903c.95 2.44 2.802 4.511 5.391 5.572 5.079 2.121 10.945-.376 13.113-5.572a10.211 10.228 0 0 0 .05-7.901 10.007 10.023 0 0 0 5.396 5.621c5.074 2.122 10.94-.367 13.109-5.567a10.216 10.232 0 0 0 .054-7.902c.95 2.44 2.802 4.51 5.391 5.567 5.075 2.122 10.941-.371 13.11-5.567a10.195 10.211 0 0 0 .053-7.901 10.007 10.023 0 0 0 5.392 5.621c5.074 2.122 10.945-.372 13.113-5.567a10.216 10.232 0 0 0 .05-7.902c2.064 5.196 7.93 7.743 13.059 5.567a10.266 10.282 0 0 0 5.445-5.512 10.411 10.428 0 0 0 .105-7.798c-2.06-5.2-7.981-7.584-13.11-5.412a10.207 10.224 0 0 0 5.55-5.567c2.168-5.2-.212-11.138-5.287-13.26a9.89 9.906 0 0 0-7.772.108 10.286 10.303 0 0 0 5.604-5.571c2.168-5.196-.208-11.134-5.283-13.256a10.007 10.023 0 0 0-7.722.05 10.216 10.232 0 0 0 5.554-5.567c2.168-5.196-.213-11.134-5.287-13.256a9.89 9.906 0 0 0-7.772.104 10.299 10.316 0 0 0 5.604-5.567c2.168-5.2-.213-11.138-5.287-13.26a9.995 10.011 0 0 0-7.718.054 10.207 10.224 0 0 0 5.55-5.57c2.168-5.196-.209-11.135-5.287-13.257a9.882 9.898 0 0 0-7.768.105 10.311 10.328 0 0 0 5.603-5.568c2.164-5.2-.212-11.138-5.287-13.26a9.373 9.389 0 0 0-4.599-.739l-45.098 108.13c-10.466 25.083-14.748 48.204-14.906 69.787z" fill="#fff"/>
<path d="M427.79 384.81s-43.03-31.924-64.283-84.534a9.565 9.58 0 0 1 .054-7.639 10.199 10.215 0 0 1 13.055-5.462 9.84 9.856 0 0 1 5.5 5.304 9.215 9.23 0 0 1-.054-7.585 10.199 10.215 0 0 1 13.059-5.462 9.657 9.672 0 0 1 5.445 5.25 9.523 9.539 0 0 1-.054-7.53 10.199 10.215 0 0 1 13.059-5.463 9.824 9.84 0 0 1 5.496 5.304 9.215 9.23 0 0 1-.05-7.585 10.195 10.211 0 0 1 13.055-5.462 9.644 9.66 0 0 1 5.445 5.254 9.507 9.522 0 0 1-.05-7.535 10.195 10.211 0 0 1 13.055-5.462 9.832 9.848 0 0 1 5.5 5.304 9.215 9.23 0 0 1-.054-7.585 10.199 10.215 0 0 1 13.059-5.462 9.657 9.672 0 0 1 5.445 5.254c-2.114-4.933.213-10.767 5.341-12.943a10.245 10.261 0 0 1 7.61-.16c2.38.903 4.282 3.075 5.34 5.677 2.115 5.195-.424 10.767-5.445 12.408a10.011 10.027 0 0 1 7.664.639c5.079 2.547 7.455 8.482 5.396 13.31a8.673 8.687 0 0 1-5.5 4.878c2.38-.794 5.128-.635 7.718.639 5.074 2.543 7.455 8.482 5.391 13.31-1.055 2.439-3.065 4.134-5.441 4.878a10.015 10.032 0 0 1 7.663.639c5.075 2.543 7.456 8.482 5.392 13.31-1.055 2.439-3.065 4.134-5.496 4.878 2.377-.794 5.125-.635 7.718.634 5.075 2.548 7.451 8.487 5.391 13.314-1.059 2.44-3.064 4.135-5.445 4.878a10.028 10.044 0 0 1 7.668.635c5.074 2.548 7.45 8.487 5.391 13.314a8.673 8.687 0 0 1-5.5 4.878c2.381-.793 5.129-.635 7.718.635 5.075 2.548 7.456 8.486 5.396 13.314-1.06 2.439-3.282 5.463-5.658 6.202-52.971 18.564-104.99 11.828-104.99 11.828zm90.509-217.01a9.828 9.844 0 0 1-5.341-5.463c-2.06-5.195.53-11.193 5.658-13.364a9.548 9.564 0 0 1-7.718.055c-5.074-2.122-7.455-8.06-5.287-13.26a10.299 10.316 0 0 1 5.604-5.567 9.894 9.91 0 0 1-7.772.104c-5.075-2.122-7.455-8.06-5.287-13.256a10.382 10.399 0 0 1 5.55-5.571 9.548 9.564 0 0 1-7.718.054c-5.075-2.122-7.451-8.06-5.287-13.26a10.311 10.328 0 0 1 5.604-5.567 9.882 9.898 0 0 1-7.768.108c-5.08-2.121-7.456-8.06-5.287-13.26a10.37 10.387 0 0 1 5.55-5.567 9.548 9.564 0 0 1-7.719.05c-5.074-2.121-7.455-8.06-5.287-13.256a10.299 10.316 0 0 1 5.604-5.57 9.89 9.906 0 0 1-7.772.108c-5.074-2.122-7.455-8.06-5.287-13.26a10.374 10.391 0 0 1 5.554-5.567 9.56 9.576 0 0 1-7.722.054c-5.074-2.122-7.451-8.06-5.287-13.26.321-.69.584-1.22.371-2.067l199.89 83.899c.48.952.267 1.537 0 2.226-2.164 5.195-8.035 7.688-13.109 5.567a9.765 9.781 0 0 1-5.391-5.567 10.216 10.232 0 0 1-.055 7.901c-2.168 5.2-8.034 7.689-13.109 5.567-2.593-1.06-4.44-3.182-5.395-5.621a10.216 10.232 0 0 1-.05 7.902c-2.168 5.2-8.035 7.693-13.113 5.571a9.765 9.781 0 0 1-5.391-5.571 10.195 10.211 0 0 1-.054 7.901c-2.164 5.2-8.035 7.693-13.11 5.572a9.853 9.869 0 0 1-5.39-5.622 10.216 10.232 0 0 1-.055 7.902c-2.168 5.195-8.035 7.689-13.109 5.567a9.748 9.764 0 0 1-5.391-5.567c1 2.439 1.055 5.25-.054 7.902-2.169 5.195-8.035 7.688-13.113 5.567a9.853 9.869 0 0 1-5.392-5.622 10.216 10.232 0 0 1-.05 7.902c-2.168 5.2-8.039 7.693-13.113 5.571a9.765 9.781 0 0 1-5.391-5.57c2.06 5.199-.371 11.242-5.5 13.418-2.43.794-5.128.744-7.505-.209zm65.604 168.75c-.208-1.75 0-3.604.742-5.354a10.299 10.316 0 0 1 5.604-5.567 9.89 9.906 0 0 1-7.772.104c-5.074-2.121-7.455-8.06-5.287-13.26a10.382 10.399 0 0 1 5.55-5.567 9.548 9.564 0 0 1-7.718.054c-5.075-2.121-7.451-8.06-5.287-13.26a10.311 10.328 0 0 1 5.604-5.567 9.882 9.898 0 0 1-7.768.105c-5.079-2.122-7.456-8.06-5.287-13.256a10.366 10.382 0 0 1 5.55-5.572 9.548 9.564 0 0 1-7.719.055c-5.074-2.122-7.455-8.06-5.287-13.26a10.299 10.316 0 0 1 5.604-5.567 9.89 9.906 0 0 1-7.772.104c-5.074-2.122-7.455-8.06-5.287-13.256a10.386 10.403 0 0 1 5.554-5.571c-5.128 2.176-11.049-.21-13.113-5.409a10.416 10.433 0 0 1 .109-7.793 10.257 10.274 0 0 1 5.44-5.517c5.13-2.171 11 .372 13.06 5.567a10.216 10.232 0 0 1 .054-7.901c2.168-5.196 8.035-7.69 13.11-5.567a9.853 9.869 0 0 1 5.39 5.62 10.232 10.249 0 0 1 .055-7.9c2.168-5.2 8.034-7.69 13.113-5.572 2.589 1.065 4.44 3.132 5.39 5.571a10.216 10.232 0 0 1 .05-7.901c2.17-5.2 8.04-7.693 13.114-5.572a9.853 9.869 0 0 1 5.391 5.622 10.216 10.232 0 0 1 .054-7.902c2.169-5.195 8.035-7.685 13.11-5.567 2.589 1.06 4.44 3.132 5.39 5.567a10.232 10.249 0 0 1 .055-7.902c2.168-5.195 8.035-7.684 13.109-5.567a9.849 9.865 0 0 1 5.395 5.622 10.216 10.232 0 0 1 .05-7.902c2.168-5.196 8.04-7.689 13.113-5.567 1.53.635 2.802 1.587 3.753 2.756l-45.094 108.13c-10.52 25.142-23.95 44.441-39.123 59.718z" fill="#fff"/>
<path d="M424.83 394.62s-120.64-88.51-65.921-220.3L430.384 2.01l269.61 112.59-73.377 176.81c-58.683 130.52-201.79 103.2-201.79 103.2z" fill="#000"/>
<path d="M352.62 242.26a10.257 10.274 0 0 0 3.277-4.298 10.341 10.357 0 0 0 0-7.956 9.949 9.965 0 0 0 5.446 5.622c5.074 2.121 10.995-.372 13.163-5.567a10.462 10.479 0 0 0 .054-7.902 9.924 9.94 0 0 0 5.391 5.567c5.075 2.122 10.995-.372 13.163-5.567a10.341 10.357 0 0 0 0-7.956 9.949 9.965 0 0 0 5.446 5.621c5.074 2.122 10.995-.371 13.163-5.567a10.462 10.479 0 0 0 .054-7.901c.95 2.439 2.852 4.51 5.391 5.567 5.075 2.121 10.995-.372 13.163-5.567a10.341 10.357 0 0 0 0-7.956 9.949 9.965 0 0 0 5.446 5.621c5.074 2.122 10.995-.372 13.163-5.567a10.466 10.483 0 0 0 .054-7.902c2.06 5.196 7.98 7.743 13.109 5.567a10.015 10.032 0 0 0 5.445-5.567 10.182 10.199 0 0 0 .055-7.797c-2.064-5.195-8.035-7.584-13.163-5.408a10.216 10.232 0 0 0 5.55-5.572c2.168-5.195-.213-11.189-5.288-13.31a10.02 10.036 0 0 0-7.822.109 10.411 10.428 0 0 0 5.604-5.622c2.164-5.2-.213-11.193-5.287-13.314a9.894 9.91 0 0 0-7.772.11 10.207 10.224 0 0 0 5.55-5.572c2.168-5.196-.213-11.19-5.287-13.31a10.02 10.036 0 0 0-7.823.104 10.399 10.416 0 0 0 5.604-5.621c2.169-5.196-.212-11.19-5.287-13.31a9.894 9.91 0 0 0-7.772.104 10.203 10.22 0 0 0 5.55-5.567c2.168-5.195-.208-11.193-5.287-13.31a10.02 10.036 0 0 0-7.822.105 10.395 10.412 0 0 0 5.604-5.622c2.168-5.195-.213-11.193-5.287-13.31a9.37 9.384 0 0 0-4.6-.743l-45.043 108.51c-10.52 25.192-14.748 48.42-14.906 70.059z" fill="#fff"/>
<path d="M489.59 240.46c-3.065-1.274-6.555-1.328-9.936.054a13.201 13.222 0 0 0-7.51 8.378c-.37-.209-.688-.317-1.109-.53-6.609-2.757-14.273.476-17.074 7.267a9.84 9.856 0 0 0-.425 1.169 7.272 7.284 0 0 0-1.11-.535c-6.608-2.756-14.272.477-17.073 7.267-.159.422-.321.69-.425 1.111-.371-.209-.688-.317-1.055-.476-6.61-2.756-14.277.476-17.08 7.267-.158.372-.262.794-.42 1.17-.372-.218-.743-.376-1.11-.535-6.608-2.757-14.277.476-17.079 7.267-.158.426-.37.743-.475 1.17-.371-.218-.634-.322-1.055-.535-6.609-2.757-14.277.48-17.079 7.266a10.341 10.357 0 0 0-.42 1.17 7.15 7.162 0 0 0-1.11-.535c-6.609-2.756-14.277.48-17.079 7.267-.158.426-.05 0-.158.426-4.862-15.223-8.09-31.61-8.298-49.695 2.535-1.432 4.862-3.817 6.08-6.736.158-.368.262-.794.42-1.166.372.21.743.372 1.11.53 6.608 2.757 14.277-.475 17.079-7.266.158-.422.262-.69.367-1.11.375.208.688.316 1.113.475 6.609 2.757 14.273-.476 17.074-7.267.158-.367.317-.793.421-1.165.371.209.688.372 1.113.53 6.61 2.757 14.273-.476 17.074-7.266.159-.422.317-.69.421-1.111.371.209.688.317 1.114.476 6.608 2.756 14.273-.476 17.074-7.267.158-.372.262-.794.42-1.17a9.65 9.65 0 0 0 1.114.535c6.609 2.756 14.273-.476 17.074-7.267.159-.422.263-.743.421-1.17 3.282 1.755 7.351 2.072 11.05.481a13.193 13.214 0 0 0 7.083-7.158 13.384 13.406 0 0 0 .109-10.132 12.876 12.897 0 0 0-8.143-7.53c.212-.372.37-.69.53-1.111 2.801-6.79-.264-14.48-6.872-17.236a7.651 7.664 0 0 0-1.164-.426c.209-.372.367-.744.526-1.115 2.802-6.787-.263-14.475-6.872-17.236-.421-.159-.688-.318-1.109-.422.213-.376.317-.69.475-1.115 2.802-6.787-.262-14.48-6.871-17.236-.371-.159-.742-.263-1.163-.426a9.96 9.96 0 0 0 .53-1.111c2.801-6.79-.268-14.48-6.877-17.236-.42-.159-.683-.317-1.109-.476.213-.376.317-.64.53-1.06 2.802-6.792-.263-14.48-6.872-17.237-.37-.159-.742-.322-1.163-.426.209-.372.367-.743.53-1.115 2.802-6.787-.267-14.475-6.876-17.236-.421-.159-2.694-.794-4.65-.635l20.457-49.323 25.218 10.554c-.371.426-.847 1.433-1.005 1.804-2.802 6.791.267 14.48 6.871 17.236.426.16.797.16 1.218.318a8.635 8.635 0 0 0-.58 1.22c-2.802 6.79.263 14.48 6.872 17.235.37.159.738.268 1.163.426a10.341 10.357 0 0 0-.53 1.115c-2.801 6.787.263 14.475 6.872 17.236.425.16.688.263 1.113.372-.212.368-.316.74-.48 1.165-2.801 6.787.268 14.48 6.877 17.236.367.159.738.318 1.163.422-.213.376-.371.743-.53 1.115-2.802 6.791.263 14.48 6.872 17.236.425.159.688.318 1.109.426-.209.372-.317.69-.475 1.111-2.802 6.79.266 14.48 6.875 17.236.367.159.738.267 1.164.426a10.341 10.357 0 0 0-.53 1.115c-2.802 6.787.263 14.475 6.872 17.236l1.109.422a13.409 13.431 0 0 0-.634 11.243 12.701 12.721 0 0 0 16.866 7.054 13.205 13.227 0 0 0 7.505-8.378c.371.209.688.317 1.11.53 6.608 2.757 14.276-.476 17.078-7.266.159-.372.317-.794.421-1.17.372.217.688.376 1.11.535 6.608 2.756 14.277-.476 17.079-7.267.158-.426.316-.69.42-1.115.372.213.689.321 1.06.48 6.609 2.756 14.273-.48 17.074-7.267.158-.372.262-.793.42-1.17.372.214.743.377 1.114.535 6.609 2.757 14.273-.48 17.074-7.267.159-.426.371-.743.476-1.169.37.213.633.322 1.059.535 6.608 2.756 14.273-.48 17.074-7.267.158-.372.316-.794.42-1.17.372.213.689.376 1.114.535 6.609 2.756 14.273-.48 17.074-7.267l.475-1.274c.371.209.634.476 1.06.635 6.608 2.756 14.272-.476 17.073-7.267.159-.367.53-1.428.53-2.013l25.218 10.554-20.46 49.323c-1.268-1.432-3.331-2.652-3.753-2.865-6.608-2.756-14.277.476-17.079 7.267-.158.372-.262.793-.42 1.165a11.621 11.64 0 0 0-1.11-.53c-6.609-2.757-14.277.476-17.079 7.267-.158.422-.263.689-.367 1.11-.37-.208-.688-.317-1.113-.476-6.609-2.756-14.273.477-17.074 7.267a9.832 9.832 0 0 0-.421 1.17 7.138 7.15 0 0 0-1.113-.535c-6.61-2.756-14.273.476-17.074 7.267-.159.426-.317.69-.422 1.115-.37-.213-.688-.321-1.113-.48-6.609-2.756-14.273.476-17.074 7.267-.158.372-.263.793-.421 1.17a9.652 9.652 0 0 0-1.113-.535c-6.61-2.757-14.273.48-17.074 7.267-.159.426-.263.743-.421 1.169a12.792 12.813 0 0 0-11.05-.48 13.568 13.59 0 0 0-7.138 7.212 13.376 13.398 0 0 0-.104 10.128 12.855 12.876 0 0 0 8.139 7.534c-.209.372-.371.69-.53 1.111-2.802 6.791.267 14.48 6.876 17.236.367.16.738.318 1.163.426a10.332 10.349 0 0 0-.53 1.111c-2.801 6.791.264 14.48 6.872 17.24.426.159.688.318 1.11.422-.21.372-.317.69-.476 1.115-2.802 6.787.267 14.475 6.876 17.236.367.159.738.263 1.159.422-.209.376-.367.743-.525 1.115-2.802 6.787.262 14.48 6.871 17.236.421.159.688.317 1.11.476-.21.376-.318.64-.53 1.061-2.802 6.79.266 14.48 6.875 17.236.367.159.738.317 1.164.426-.213.372-.372.743-.53 1.115a13.71 13.732 0 0 0-.475 9.063c-12.955 12.57-27.015 22.118-41.183 29.385.212-.376.158-.318.37-.744 2.803-6.786-.266-14.48-6.875-17.236-.367-.158-.738-.263-1.163-.426a10.341 10.357 0 0 0 .53-1.11c2.801-6.791-.263-14.48-6.872-17.236-.425-.16-.688-.268-1.11-.376.21-.368.318-.74.476-1.161 2.802-6.791-.267-14.48-6.876-17.236a7.439 7.45 0 0 0-1.159-.426c.209-.372.367-.744.526-1.115 2.802-6.787-.263-14.475-6.872-17.236-.421-.16-.688-.318-1.11-.422.214-.376.318-.69.476-1.115 2.802-6.787-.262-14.48-6.871-17.236-.371-.159-.742-.263-1.164-.426.209-.368.367-.74.53-1.111 2.798-6.791-.267-14.48-6.876-17.236l-1.109-.426a13.45 13.45 0 0 0 .634-11.243 12.45 12.471 0 0 0-6.926-7.158z" fill="#f00000"/>
<path d="M428.43 387.84s-43.197-31.928-64.604-84.643a9.782 9.798 0 0 1 0-7.634c2.114-5.041 7.98-7.476 13.109-5.517a9.674 9.69 0 0 1 5.5 5.304 9.423 9.439 0 0 1-.105-7.585c2.114-5.036 7.981-7.475 13.11-5.513a9.928 9.944 0 0 1 5.5 5.246 9.632 9.647 0 0 1-.055-7.58c2.114-5.041 7.98-7.476 13.109-5.517a9.67 9.685 0 0 1 5.5 5.304 9.407 9.422 0 0 1-.105-7.584c2.114-5.037 7.981-7.476 13.11-5.513a9.928 9.944 0 0 1 5.5 5.245 9.636 9.652 0 0 1-.055-7.584c2.114-5.037 7.98-7.476 13.109-5.513a9.682 9.698 0 0 1 5.5 5.304 9.423 9.439 0 0 1-.109-7.584c2.118-5.041 7.985-7.476 13.113-5.513a9.907 9.923 0 0 1 5.496 5.246c-2.164-4.929.212-10.817 5.34-12.938a10.382 10.399 0 0 1 7.665-.16c2.38.903 4.336 3.075 5.395 5.727 2.114 5.2-.371 10.817-5.445 12.462 2.376-.794 5.128-.635 7.717.639 5.075 2.547 7.506 8.486 5.392 13.364a8.59 8.603 0 0 1-5.496 4.928 9.932 9.948 0 0 1 7.718.639c5.075 2.547 7.505 8.486 5.391 13.364-1.059 2.439-3.064 4.134-5.445 4.878 2.38-.794 5.129-.635 7.718.639 5.074 2.547 7.51 8.486 5.391 13.364a8.59 8.603 0 0 1-5.495 4.928c2.376-.794 5.128-.685 7.718.639 5.074 2.547 7.505 8.486 5.39 13.364-1.054 2.439-3.064 4.134-5.445 4.878 2.381-.794 5.129-.635 7.718.639 5.079 2.547 7.51 8.482 5.396 13.364a8.606 8.62 0 0 1-5.5 4.928 9.924 9.94 0 0 1 7.718.639c5.074 2.548 7.51 8.486 5.391 13.364-1.055 2.439-3.277 5.513-5.654 6.256-53.025 18.405-105.2 11.723-105.2 11.723zm90.401-217.76a9.665 9.68 0 0 1-5.341-5.463c-2.06-5.195.53-11.193 5.658-13.419a9.89 9.906 0 0 1-7.772.109c-5.075-2.122-7.455-8.06-5.287-13.31a10.395 10.412 0 0 1 5.604-5.622 10.015 10.032 0 0 1-7.822.105c-5.08-2.122-7.456-8.06-5.287-13.31a10.366 10.382 0 0 1 5.55-5.571 9.89 9.906 0 0 1-7.773.108c-5.074-2.121-7.455-8.06-5.287-13.314a10.399 10.416 0 0 1 5.604-5.621 10.015 10.032 0 0 1-7.822.108c-5.075-2.121-7.455-8.06-5.287-13.314a10.382 10.399 0 0 1 5.55-5.567 9.875 9.875 0 0 1-7.773.109c-5.074-2.122-7.45-8.06-5.287-13.314a10.411 10.428 0 0 1 5.604-5.622 10.015 10.032 0 0 1-7.822.109c-5.074-2.122-7.455-8.06-5.287-13.314a10.382 10.399 0 0 1 5.55-5.567 9.858 9.858 0 0 1-7.772.104c-5.075-2.121-7.451-8.06-5.283-13.31.317-.689.58-1.22.367-2.067l200.57 83.791c.475.956.317 1.541 0 2.23-2.168 5.196-8.035 7.685-13.163 5.567a9.765 9.781 0 0 1-5.392-5.567 10.195 10.211 0 0 1-.054 7.902c-2.168 5.195-8.035 7.689-13.163 5.567a9.961 9.977 0 0 1-5.445-5.621c1.005 2.439 1.113 5.304 0 7.956-2.168 5.195-8.035 7.688-13.163 5.567a9.761 9.777 0 0 1-5.392-5.567 10.195 10.211 0 0 1-.054 7.901c-2.168 5.196-8.035 7.689-13.163 5.567a9.961 9.977 0 0 1-5.445-5.62c1.005 2.438 1.113 5.303 0 7.955-2.164 5.195-8.035 7.689-13.163 5.567a9.765 9.781 0 0 1-5.392-5.567 10.195 10.211 0 0 1-.054 7.902c-2.164 5.195-8.035 7.688-13.163 5.567a9.961 9.977 0 0 1-5.445-5.622c1.005 2.44 1.113 5.304 0 7.956-2.164 5.196-8.035 7.69-13.163 5.568a9.765 9.781 0 0 1-5.392-5.568c2.064 5.196-.37 11.297-5.5 13.47a9.131 9.146 0 0 1-7.45.054zm66.03 169.18a11.008 11.026 0 0 1 .688-5.354 10.382 10.399 0 0 1 5.604-5.622 10.024 10.04 0 0 1-7.826.105c-5.075-2.122-7.456-8.06-5.287-13.31a10.382 10.399 0 0 1 5.55-5.571 9.882 9.898 0 0 1-7.769.108c-5.078-2.121-7.455-8.06-5.287-13.314a10.382 10.399 0 0 1 5.604-5.621 10.024 10.04 0 0 1-7.826.108c-5.075-2.121-7.455-8.06-5.287-13.314a10.386 10.403 0 0 1 5.554-5.567 9.89 9.906 0 0 1-7.772.109c-5.075-2.122-7.456-8.06-5.287-13.314a10.395 10.412 0 0 1 5.604-5.622 10.028 10.044 0 0 1-7.827.109c-5.074-2.122-7.45-8.06-5.287-13.314a10.386 10.403 0 0 1 5.554-5.567c-5.128 2.172-11.104-.209-13.163-5.408a10.161 10.178 0 0 1 .05-7.798 10.374 10.391 0 0 1 5.446-5.567c5.128-2.176 10.999.372 13.113 5.567a10.216 10.232 0 0 1 .05-7.901c2.168-5.2 8.039-7.69 13.163-5.568a9.936 9.952 0 0 1 5.445 5.622 10.341 10.357 0 0 1 0-7.956c2.168-5.2 8.04-7.689 13.163-5.567a9.77 9.785 0 0 1 5.396 5.567 10.216 10.232 0 0 1 .05-7.902c2.168-5.2 8.039-7.689 13.163-5.571a9.936 9.952 0 0 1 5.445 5.621 10.341 10.357 0 0 1 0-7.952c2.168-5.2 8.04-7.688 13.163-5.57 2.594 1.06 4.44 3.131 5.396 5.57a10.216 10.232 0 0 1 .05-7.901c2.168-5.2 8.039-7.693 13.163-5.572a9.932 9.948 0 0 1 5.445 5.622 10.341 10.357 0 0 1 0-7.952c2.168-5.2 8.04-7.693 13.163-5.571 1.535.639 2.802 1.59 3.757 2.756l-45.044 108.51c-10.466 25.138-23.896 44.491-39.119 59.873z" fill="#fff"/>
<path d="M269.56 395.63S119.1 414.357 65.29 277L-.002 110.48 273.318 2.66l65.296 166.52c53.813 137.36-69.048 226.45-69.048 226.45z" fill="#000"/>
<path d="M269.3 12.033 9.31 114.603l62.43 159.74c24.53 62.529 66.453 82.784 72.373 87.182 1.643-12.993 5.181-23.811 11.523-29.7 0 0-5.388-3.128-4.487-10.286 0 0-4.175 2.123-1.849 8.646 0 0-7.191-4.4-4.39-11.19 0 0-5.343-8.165-1.8-11.347 1.852-1.64 4.228-4.774 5.758-5.359 1.535-.58 3.809-6.311 6.027-9.176 4.178-5.409 6.663-5.251 13.217-4.136 0 0 .059-2.328-3.323-7.423-3.806-5.726-21.312-18.14-17.134-31.396 0 0-3.646.793-5.814-.318 0 0-.946.85-1.792.954-.846.105-18.35-8.327-22.42-8.703-4.124-.368-5.705 1.599-12.102.383-6.396-1.223-12.32-7.427-14.488-10.718a23.1 23.137 0 0 1 2.802.424s-5.181-3.656-6.874-9.12a40.708 40.774 0 0 1 5.44 2.709c-4.336-1.591-6.45-7.535-7.297-9.177-.842-1.645-2.056-5.305 1.751-7.268 0 0-12.899-27.416 2.696-33.305 13.318-5.036 18.292 10.976 24.162 24.871 5.654-2.919 8.189 6.367 8.347 8.965 3.649 1.432 15.123 5.67 18.771-3.45-3.014-4.298 2.006-16.125 3.486-21.747 1.534-5.672.847-6.257.847-6.257-4.02 2.44-6.188-1.266-9.732-.31-3.59.952-7.292 2.59-10.09 1.689-2.118-.635-6.295-2.7-6.295-2.7-1.055.635-6.285-1.695-7.24-3.5-2.377-4.293-1.427-4.456 2.801-10.082 4.283-2.97-1.9-20.356 9.838-32.342 2.852-2.865 8.144-7.161 8.144-7.161-6.03-13.841 4.43-26.096 6.124-30.711 1.693-4.615-2.012-14.103-2.012-14.103 13.06 5.358 14.968 19.732 14.968 19.732 14.54-11.882 15.115-26.575 15.115-26.575 20.09 36.806 4.496 54.994 4.496 54.994 13.163.689 20.775 39.509 21.622 41.209 2.272 4.56 35.63 18.353 46.998 42.376 6.98 14.743 12.902 34.579 9.308 43.224 6.821-4.887 4.177-30.286-6.238-45.981-17.024-25.722-45.208-37.39-53.456-63.96-5.708-18.4-9.142-51.176 25.433-64.382 31.138-11.878 63.603-7.106 72.797 23.019 9.202 30.12-13.054 38.028-13.054 38.028-.267-5.146-8.143-12.153-13.217-9.234-12.108 6.945 19.819 33.83 25.319 50.059 5.178 15.223 2.539 18.724 4.707 25.352 2.168 6.578 13.375 28.485-13.853 57.172 2.856 2.869-5.017 7.26-5.017 7.26 36.371-2.865 54.866 8.383 64.54 16.975 10.465-32.668 12.372-71.755-5.286-116.73zm-136.19 130.94c-2.156.025-1.248 1.964-2.476 3.711 0 0 4.545-.898 5.92 3.345.847 2.706-.957 4.295-4.918 4.772 0 0 6.662 8.12 9.097-5.776.158-.797-4.972-5.944-7.403-6.052-.076-.003-.15 0-.22 0zm46.639 135.82s3.74 6.88 3.852 9.38h3.86s-2.375-5.617-7.712-9.38zm-8.99.155s2.963 4.51 1.587 9.6l4.39.164s-1.75-7.91-5.978-9.764zm19.878 2.39s1.746 4.347.741 6.101c.847-.317 3.433.685 5.864-.318a20.364 20.397 0 0 0-6.605-5.783zm7.664 0s2.328 3.29 2.011 5.09c0 0 1.477.266 2.907-.636 0 0-1.587-2.754-4.918-4.454zm-13.861 18.557c-.537.012-.725.057-.725.057l-13.958 6.208c.425 1.115-1.376 4.931-.684 6.631.683 1.696.684 2.325.684 2.325 5.445-4.983 20.929-14.634 20.929-14.634-3.503-.533-5.352-.607-6.246-.587zm-26.793 24.985-1.051.057c-.108 2.013 1.262 4.34 1.262 4.34 1.11-1.111 1.377-2.064 1.377-2.064-1.272-1.002-1.588-2.333-1.588-2.333z" fill="#fff"/>
<path d="M90.826 182.81c-.108 2.013 4.124 15.486 4.862 16.28.742.794 1.376.743-1.322-9.543-2.802-10.345-3.544-6.737-3.544-6.737z" fill="#000"/>
<path d="M248.26 79.018c-37.643-.054-49.056 29.911-48.105 50.117l-1.116.432c-8.197-18.668 8.245-39.198 15.913-45.296-25.797 11.03-29.812 37.6-20.718 60.778 13.534 34.576 40.603 34.414 56.99 69.58 13.376 28.636 5.649 42.265-10.896 64.692l-.847-.995s16.068-27.212-2.378-65.134c-13.43-27.577-45.623-37.232-47.999-43.33-1.217-3.02-4.813-34.47-21.996-40.41 0 0 12.952-24.866-.211-45.076 0 0-1.581 3.713-4.333 7.847-4.495 6.787-18.768 15.06-18.56 33.411 0 0-.364-5.99-12.468 3.875-12.267 9.969-11.212 25.03-11.637 30.018-.471 4.986-5.869 10.18-5.977 11.558-.105 1.328 3.33 1.745 3.33 1.745s3.388-5.302 4.284-8.059c0 0 2.385 8.28.163 9.34 0 0 6.659 3.075 7.98 2.545 1.164-.426 3.856-2.547 7.346-2.439 4.178.105 5.923.735 9.309-.163 3.381-.902 10.839-4.03 15.7-13.418l.636-.049s.364 9.921-13.274 15.751c0 0 1.54 3.976-.098 9.226-1.693 5.25-7.827 12.462-4.495 15.327 0 0 4.65-11.087 8.086-10.661-3.544 3.767-7.032 18.778-5.977 22.065 0 0 1.328-.53 2.33-1.803 1.004-1.27 16.281-18.03 24.528-19.299 0 0 2.435.105.163 1.003-11.946 4.67-19.616 20.207-23.527 23.068-3.861 2.811-14.648 13.893-15.441 15.751l-1.637-3.075s-3.33-2.389-6.45-3.132c-7.56-1.804-10.99.373-13.054.106 0 0-8.036-3.548-13.323-5.832 0 0-.218.003-.114.587.163.53 7.832 6.997 15.392 7.953l-.74.954s-13.373-1.33-19.61-6.525c0 0-.321.214-.375.8-.05.58 10.679 7.843 17.713 9.013l-.847.587s-11.423-.003-17.607-4.568c0 0-.791.052-.05.954.739.903 8.987 7 13.854 6.632l-.269 1.003s-4.755-.947-9.83-1.582c0 0 6.079 6.57 14.114 4.29 4.019-1.165 7.078-2.597 8.77-1.06 3.649 3.287 24.955 8.542 27.966 7.798 2.96-.739 3.756-3.716 4.92-5.253 2.538-3.45 8.087-14.577 16.547-12.456 0 0 10.995-11.567 11.312-18.516l.798.375s4.068 5.405-6.189 18.24c0 0 40.447-6.093 41.981 20.685 0 0-.637 3.34-1.588.424-7.455-23.546-45.045-16.227-48.268-15.588-7.51 1.429-17.553 17.655-17.232 23.435.421 8.274 13.478 16.604 17.281 24.08 0 0-.947-4.668-3.803-10.344 0 0 11.37 6.683 14.594 13.736 0 0-.533-5.729-5.236-12.203 0 0 9.571 5.42 15.017 12.048 0 0 .21-4.456-1.85-6.95 0 0 5.863 1.592 9.407 5.042 0 0-.421-2.654-3.12-6.208 0 0 6.772.58 13.218 10.335 0 0-5.602 2.87-11.89 3.614-6.292.689-30.56 1.744-32.461 2.488-1.113.421-5.665 7.003-14.121 14.112-4.445 3.708-.054 7.689 0 10.074l2.54-.792s-1.69-.484-.79-5.416c.897-4.982 6.922-6.886 6.972-10.653l.847-.106s1.319.58-.424 4.56c-1.693 3.976-6.604 4.825-4.381 11.616l1.686-.294c-.034-.19-.022-.66.268-2.471.634-3.976 5.603-4.189 5.074-12.725 0 0 .473.688 1.32 5.62.846 4.928-5.92 5.462-1.955 13.948 0 0 1.107.007 7.028-3.23-3.803-3.554 1.11-9.448-1.8-13.532 0 0 13.86-5.931 18.934-7.472 5.074-1.591 42.657-1.48 45.247-1.64 2.59-.163 7.142-4.139 6.083-16.869 0 0 9.996 15.381 32.461-1.378 0 0-7.038-.743-11.792-2.814 0 0 22.466-2.278 17.867-12.301 0 0 20.146-11.461 17.24-46.25 0 0-2.91 31.615-17.232 39.676 0 0-3.227.154-1.376-1.224 11.842-8.804 17.44-48.045 12.102-66.129-5.337-18.084-28.597-39.567-33.463-50.81-12.313-28.537 15.646-30.282 21.833-13.418 0 0-.313 1.54-1.53.587-14.749-16.547-25.012-.21-16.606 12.252-.9-12.358 14.433-16.657 20.408-1.492 15.49-14 11.101-55.258-26.483-55.313zm-93.629 236.99c.04.229.155-.025.155-.025zm93.148-230.97c9.6.09 18.677 3.4 24.162 9.633 1.584 1.805-.268 1.006-2.54-.318-.897-.53-14.9-11.24-35.728-2.545-31.772 13.206-20.52 44.925-17.664 50.81 3.277 6.737.424 4.772.424 4.772-9.09-11.986-15.805-46.25 14.17-58.975 5.472-2.327 11.416-3.431 17.175-3.377zm-81.731 6.713c.204-.044.438.124.741.588 3.227 4.882 5.241 20.05 1.222 23.182-2.485 1.962-1.224-1.485-1.328-3.394-.208-4.402-2.427-9.552-2.427-9.552-2.272 4.828-11.9 11.514-12.802 20.368-.525 5.096-1.791 3.76-1.791 3.76-1.847-20.313 11.842-24.386 14.594-30.751.872-1.99 1.18-4.068 1.791-4.201zm83.856 3.883c2.406.018 4.23.29 5.122.473 2.852.635-.053 1.536-2.117 1.273-2.06-.268-13.166-.69-22.151 8.752-13.48 14.108-14.858 31.715 3.909 61.781 1.584 2.602 0 1.754 0 1.754-5.391-4.882-31.925-44.924-5.44-66.88 7.27-6.014 15.384-7.193 20.677-7.153zm7.883 6.028c14.516.34 19.3 11.858 18.437 17.195-.208 1.27-.476-1.38-2.753-4.83-3.223-4.877-10.566-10.762-20.824-8.001-10.307 2.756-25.437 14.905-18.299 39.194 5.183 17.658 15.598 26.93 24.162 42.416 2.064 3.767 5.602 10.404 6.344 15.123.263 1.854-.423 1.852-.423 1.852-13.218-31.185-27.335-34.843-33.568-58.657-6.663-25.401 6.341-41.944 22.102-44.015a31.633 31.633 0 0 1 4.821-.278zm-17.379 16.926a.241.241 0 0 1 .236.016c.274.168.464.905.424 2.268-.584 20.84 27.435 47.784 34.945 64.652 3.648 8.219 7.982 14.794 5.334 32.506-.58 4.084-1.686-1.003-1.686-1.003v-.008c1.322-8.854 1.742-17.34-7.932-34.153-5.604-9.702-17.972-19.666-27.387-39.186-7.165-14.866-5.187-24.54-3.933-25.091zm-45.4.334c.238-.017.466.218.65.734.951 2.707-3.065 10.602 5.603 24.283 18.61 29.485 49.164 40.201 60.638 75.575 6.292 19.412.685 39.932-9.943 52.131-4.65 5.463-3.852 1.86-3.852 1.86 3.436-3.55 21.3-27.047 10.514-53.934-10.099-25.192-48.946-53.037-60.687-75.15-6.892-12.99-4.597-25.376-2.924-25.499zm-61.755 20.238c4.784.085 7.602 6.03 10.326 7.22 1.584.688 5.766 2.968 5.766 2.968-1.163 1.537-5.497 1.542-5.497 1.542-5.287 16.547-14.117 8.013-16.02 6.526-1.9-1.433-1.107-1.754-1.107-1.754l-4.129.106c5.392-4.085 4.23-15.699 9.675-16.542.337-.05.667-.07.986-.065z" fill="#f00000"/>
<g fill="#e63027">
<path d="M90.455 207.47c-1.218-3.663-9.465-22.699-.688-26.892 12.475-6.043 19.722 20.26 19.722 20.26l-13.168 5.413c-4.124-9.974-6.396-20.74-6.396-20.74-5.867-5.99 3.227 21.057 3.227 21.057zm-1.534 6.098c3.118-1.487 19.297-9.815 26.644-10.079 2.064 4.67 1.747 7.852 1.747 7.852l-3.07-.53c.793-3.609-1.158-5.254-1.158-5.254-1.218 1.378-.955 3.663-.955 3.663-2.802-1.061-3.544-.16-3.544-.16.796 1.43 2.276 1.964 2.276 1.964l-.53 1.963-2.43-1.224c.634-1.75-1-4.189-1-4.189.05 1.274-1.273 4.03-1.273 4.03-1.059-1.537-2.485-2.97-2.485-2.97-.425 1.696 1.322 4.511 1.322 4.511l-1.584 3.233-3.336-2.39c.692-1.586.267-2.701.267-2.701-.95.371-1.693 1.75-1.693 1.75-1.055-1.537-2.802-.426-2.802-.426.317 1.858 2.064 2.493 2.064 2.493-1.584.426-2.485.317-2.485.317.688 1.274 2.114 2.018 2.114 2.018l-.897 1.645c-1.534-1.17-2.96-2.547-2.96-2.547a2.764 2.769 0 0 1 .158-2.916c-1.534.585-1.96 4.507-1.96 4.507s-2.113-1.433-2.43-4.56zM122.76 214.68c0 2.172-1.167 4.824-1.167 4.824a35.663 35.721 0 0 1 12.8 3.713 2236 2239.7 0 0 1 10.466-8.963c-2.751.69-2.168-3.926-2.168-3.926-9.465 10.98-19.93 4.348-19.93 4.348zm13.743-93.764c-5.233-11.723 5.337-20.949 5.554-26.52.208-5.567.05-6.574.05-6.574 5.233 3.872 6.505 14.317 6.505 14.317-8.035 9.072-5.763 14.321-6.768 16.706-2.01.109-5.337 2.072-5.337 2.072z"/>
<path d="m112.87 215.1.688-2.706 3.594 1.858-.317 2.548zm.634 2.756 2.485 1.913-1.218.69-1.584-.69zm-8.406-.367 2.222-3.717 2.485 1.858-.792 3.609-3.915-1.754z"/>
</g>
</g>
<path d="M335.12 295.29c-21.144 58.816-68.302 93.234-68.302 93.234s-60.163 6.995-116.57-23.659c.104-6.787-1.163-13.682 12.53-34.309 2.535 2.067 4.015 1.909 4.015 1.909l-.896-4.457c2.856-7.266 35.05-28.742 35.05-28.742 41.287 6.098 38.485-12.145 38.485-12.145 27.757 3.926 32.356-8.803 32.356-8.803 33.99-4.298 53.237 7.743 63.336 16.969z" fill="#094"/>
</svg>
