<?xml version="1.0" encoding="UTF-8" standalone="no"?>
<svg
   xmlns:dc="http://purl.org/dc/elements/1.1/"
   xmlns:cc="http://creativecommons.org/ns#"
   xmlns:rdf="http://www.w3.org/1999/02/22-rdf-syntax-ns#"
   xmlns:svg="http://www.w3.org/2000/svg"
   xmlns="http://www.w3.org/2000/svg"
   xmlns:sodipodi="http://sodipodi.sourceforge.net/DTD/sodipodi-0.dtd"
   xmlns:inkscape="http://www.inkscape.org/namespaces/inkscape"
   width="411.26"
   height="497.52"
   viewBox="-175.93 -213.74 411.26 497.52"
   version="1.1"
   id="svg16"
   sodipodi:docname="CHE Basse-Vendline COA.svg"
   inkscape:version="0.92.3 (2405546, 2018-03-11)">
  <metadata
     id="metadata22">
    <rdf:RDF>
      <cc:Work
         rdf:about="">
        <dc:format>image/svg+xml</dc:format>
        <dc:type
           rdf:resource="http://purl.org/dc/dcmitype/StillImage" />
      </cc:Work>
    </rdf:RDF>
  </metadata>
  <defs
     id="defs20" />
  <sodipodi:namedview
     pagecolor="#ffffff"
     bordercolor="#666666"
     borderopacity="1"
     objecttolerance="10"
     gridtolerance="10"
     guidetolerance="10"
     inkscape:pageopacity="0"
     inkscape:pageshadow="2"
     inkscape:window-width="1920"
     inkscape:window-height="1017"
     id="namedview18"
     showgrid="false"
     inkscape:zoom="1.0397747"
     inkscape:cx="40.27785"
     inkscape:cy="207.95653"
     inkscape:window-x="-8"
     inkscape:window-y="-8"
     inkscape:window-maximized="1"
     inkscape:current-layer="svg16" />
  <path
     d="M29.56-209.74h201.77V86.83c0 106.56-90.271 192.95-201.64 192.95-111.35 0-201.62-86.397-201.62-192.95v-296.57z"
     fill="#f00000"
     id="path2"
     style="fill:#ffffff;fill-opacity:1" />
  <path
     d="m -171.93,-207.74858 v 102.64166 l 339.64162,333.67246 c 27.64566,-29.26843 62.7789,-78.32316 63.5757,-146.205502 L -66.283,-207.74428 h -105.65 z"
     stroke-miterlimit="20"
     id="path4"
     inkscape:connector-curvature="0"
     style="display:inline;fill:#0093dd;fill-opacity:1;stroke:#000000;stroke-width:3.99999976;stroke-linejoin:bevel;stroke-miterlimit:20;stroke-dashoffset:4.57999992"
     sodipodi:nodetypes="ccccccc" />
  <path
     sodipodi:type="star"
     style="opacity:1;fill:#0093dd;fill-opacity:1;fill-rule:evenodd;stroke:#000000;stroke-width:11.33914185;stroke-linecap:round;stroke-linejoin:miter;stroke-miterlimit:4;stroke-dasharray:none;stroke-dashoffset:0;stroke-opacity:1;paint-order:stroke fill markers"
     id="path855"
     sodipodi:sides="5"
     sodipodi:cx="-120.84533"
     sodipodi:cy="89.283501"
     sodipodi:r1="158.75085"
     sodipodi:r2="61.700428"
     sodipodi:arg1="0.52499089"
     sodipodi:arg2="1.1533094"
     inkscape:flatsided="false"
     inkscape:rounded="0"
     inkscape:randomized="0"
     d="m 16.526311,168.85024 -112.354307,-23.16571 -58.239634,98.83464 -12.68748,-114.0139 -111.99437,-24.84759 104.51301,-47.298749 -10.97669,-114.1913 77.28007,84.781661 105.2103998,-45.726509 -56.7512938,99.696695 z"
     transform="matrix(0.41401614,0.17377584,-0.18318619,0.39274794,212.24934,-138.61784)" />
  <path
     sodipodi:type="star"
     style="opacity:1;fill:#f00000;fill-opacity:1;fill-rule:evenodd;stroke:#000000;stroke-width:19.60357666;stroke-linecap:round;stroke-linejoin:miter;stroke-miterlimit:4;stroke-dasharray:none;stroke-dashoffset:0;stroke-opacity:1;paint-order:stroke fill markers"
     id="path855-3"
     sodipodi:sides="5"
     sodipodi:cx="-120.84533"
     sodipodi:cy="89.283501"
     sodipodi:r1="158.75085"
     sodipodi:r2="61.700428"
     sodipodi:arg1="0.52499089"
     sodipodi:arg2="1.1533094"
     inkscape:flatsided="false"
     inkscape:rounded="0"
     inkscape:randomized="0"
     d="m 16.526311,168.85024 -112.354307,-23.16571 -58.239634,98.83464 -12.68748,-114.0139 -111.99437,-24.84759 104.51301,-47.298749 -10.97669,-114.1913 77.28007,84.781661 105.2103998,-45.726509 -56.7512938,99.696695 z"
     transform="matrix(0.23639902,0.10182413,-0.10459746,0.23013106,-70.790796,111.61231)" />
  <path
     sodipodi:type="star"
     style="opacity:1;fill:#f00000;fill-opacity:1;fill-rule:evenodd;stroke:#000000;stroke-width:19.60357666;stroke-linecap:round;stroke-linejoin:miter;stroke-miterlimit:4;stroke-dasharray:none;stroke-dashoffset:0;stroke-opacity:1;paint-order:stroke fill markers"
     id="path855-3-7"
     sodipodi:sides="5"
     sodipodi:cx="-120.84533"
     sodipodi:cy="89.283501"
     sodipodi:r1="158.75085"
     sodipodi:r2="61.700428"
     sodipodi:arg1="0.52499089"
     sodipodi:arg2="1.1533094"
     inkscape:flatsided="false"
     inkscape:rounded="0"
     inkscape:randomized="0"
     d="m 16.526311,168.85024 -112.354307,-23.16571 -58.239634,98.83464 -12.68748,-114.0139 -111.99437,-24.84759 104.51301,-47.298749 -10.97669,-114.1913 77.28007,84.781661 105.2103998,-45.726509 -56.7512938,99.696695 z"
     transform="matrix(0.23639902,0.10182413,-0.10459746,0.23013106,-23.901624,182.06018)" />
  <path
     sodipodi:type="star"
     style="opacity:1;fill:#f00000;fill-opacity:1;fill-rule:evenodd;stroke:#000000;stroke-width:19.60357666;stroke-linecap:round;stroke-linejoin:miter;stroke-miterlimit:4;stroke-dasharray:none;stroke-dashoffset:0;stroke-opacity:1;paint-order:stroke fill markers"
     id="path855-3-3"
     sodipodi:sides="5"
     sodipodi:cx="-120.84533"
     sodipodi:cy="89.283501"
     sodipodi:r1="158.75085"
     sodipodi:r2="61.700428"
     sodipodi:arg1="0.52499089"
     sodipodi:arg2="1.1533094"
     inkscape:flatsided="false"
     inkscape:rounded="0"
     inkscape:randomized="0"
     d="m 16.526311,168.85024 -112.354307,-23.16571 -58.239634,98.83464 -12.68748,-114.0139 -111.99437,-24.84759 104.51301,-47.298749 -10.97669,-114.1913 77.28007,84.781661 105.2103998,-45.726509 -56.7512938,99.696695 z"
     transform="matrix(0.23639902,0.10182413,-0.10459746,0.23013106,19.525932,111.2964)" />
  <path
     d="m -171.93,-207.74858 v 102.64166 l 339.64162,333.67246 c 13.53646,-14.33104 31.58829,-35.44599 43.80527,-59.15196 z"
     stroke-miterlimit="20"
     id="path4-1"
     inkscape:connector-curvature="0"
     style="fill:#009944;fill-opacity:1;stroke:#000000;stroke-width:3.99999976;stroke-linejoin:bevel;stroke-miterlimit:20;stroke-dashoffset:4.57999992"
     sodipodi:nodetypes="ccccc" />
  <path
     d="m29.56-209.74h201.77v296.57c0 106.56-90.271 192.95-201.64 192.95-111.35 0-201.62-86.397-201.62-192.95v-296.57z"
     fill="none"
     stroke="#000"
     stroke-width="8"
     id="path14" />
</svg>
