<svg width="410" height="487" xmlns="http://www.w3.org/2000/svg"><g clip-rule="evenodd" fill-rule="evenodd" stroke-width="1.542"><path d="M6.951 7.699v284.808c0 103.228 88.676 186.908 198.05 186.908s198.052-83.68 198.052-186.908V7.699z" fill="#f00000" fill-rule="nonzero"/><path d="M137.29 40.119c-6.848.013-10.927 9.253-10.09 12.717.836 3.465 2.413 6.267 2.674 7.284-8.501-5.604-16.995.444-16.655 8.395.298 6.93 4.502 13.98 12.4 12.593 1.32-.232 3.127-1.759 5.107-3.01v38.074h14.344V78.593c.978.9 2.98 2.348 3.89 2.515 8.365 1.537 12.832-5.672 12.4-12.593-.71-11.427-9.164-10.836-15.438-8.148.257-1.01 2.43-6.563 2.43-7.655 0-6.935-4.234-12.593-11.062-12.593zm162.72 0c-6.847.014-10.926 9.254-10.09 12.716.837 3.464 2.413 6.267 2.675 7.285-8.501-5.604-16.995.444-16.655 8.394.296 6.93 5.57 12.594 12.4 12.594 1.812 0 3.802-1.869 5.106-3.009v38.072h14.344V78.592c1.04 1.147 2.533 2.516 3.892 2.516 6.828 0 12.83-5.67 12.398-12.594-.71-11.427-9.163-10.835-15.44-8.147.258-1.01 2.433-6.564 2.433-7.656 0-6.935-4.235-12.592-11.063-12.592zm162.04 0c-6.848.013-10.928 9.253-10.09 12.717.837 3.465 2.412 6.267 2.673 7.284-8.501-5.604-16.995.444-16.655 8.395.298 6.93 5.571 12.593 12.4 12.593 1.812 0 3.706-1.808 5.106-3.01v38.074h14.344V78.593c1.028 1.049 2.534 2.515 3.892 2.515 6.828 0 12.83-5.672 12.4-12.593-.713-11.427-9.165-10.836-15.44-8.148.258-1.01 2.432-6.563 2.432-7.655 0-6.935-4.235-12.593-11.063-12.593z" fill="#fff" fill-rule="nonzero" stroke="#000" stroke-width="4.532" transform="matrix(.669 0 0 .62898 4.302 4.543)"/><path d="M133.31 110.04c-1.745-1.015-3.415-1.847-5.748-1.847-7.56 0-13.403 6.283-13.737 13.95-.346 7.906 5.86 14.133 13.737 13.952 1.106-.025 4.804-1.736 6.435-2.621l-9.429 28.51c-2.507-3.252-8.187-6.382-12.567-6.382-7.559 0-13.737 6.276-13.737 13.952s6.178 13.95 13.737 13.95c2.178 0 6.594-.404 6.966-.47l-6.237 23.064c-2.337-1.885-5.296-3.086-8.51-3.086-7.559 0-13.737 6.275-13.737 13.951 0 7.677 6.178 13.951 13.737 13.951 1.04 0 2.066-.27 3.04-.494l-24.025 73.338-.047 286.72 435.34.586-1.58-287.3-22.249-77.289c.778.14 1.615.37 2.432.37 7.5 0 13.616-6.211 13.616-13.827s-6.117-13.828-13.616-13.828c-3.597 0-6.808 1.507-9.24 3.827l-6.807-23.704c.164.006.321.123.486.123 7.5 0 13.616-6.211 13.616-13.827s-6.117-13.828-13.616-13.828c-2.905 0-5.57.891-7.78 2.469l-7.051-24.321c2.073 1.303 4.434 2.098 7.05 2.098 7.5 0 13.616-6.212 13.616-13.827s-6.117-13.828-13.615-13.828c-4.98 0-9.296 2.72-11.671 6.79-2.378-4.01-6.73-6.79-11.671-6.79-7.5 0-13.615 6.211-13.615 13.828 0 7.617 6.116 13.827 13.615 13.827 2.422 0 4.595-.723 6.564-1.852l-6.564 24.199c-2.22-1.607-4.849-2.593-7.78-2.593-7.5 0-13.617 6.212-13.617 13.828 0 7.617 6.116 13.827 13.616 13.827.366 0 .735-.095 1.094-.123l-6.564 24.57c-2.489-2.824-6.068-4.693-10.09-4.693-7.5 0-13.616 6.212-13.616 13.828 0 7.617 6.116 13.827 13.616 13.827 1.406 0 2.735-.338 4.011-.74l-20.788 77.411-16.856-32.157c6.441 0 10.603-6.193 10.603-12.659 0-7.962-5.398-13.999-12.898-13.999-3.385 0-7.478 1.376-9.857 3.458l-13.495-23.335c6.991-.563 12.522-6.46 12.522-13.705 0-7.616-6.117-13.827-13.616-13.827-4.687 0-8.864 2.503-11.305 6.174l-15.197-26.421c1.006.241 2.081.494 3.16.494 7.5 0 13.617-6.213 13.617-13.828 0-7.616-6.117-13.828-13.616-13.828-6.279 0-11.452 4.368-13.01 10.248l-16.298-28.717c7.16-.387 11.802-5.847 11.802-13.213 0-7.617-6.117-13.828-13.616-13.828-4.98 0-8.929 3.523-11.86 7.2-6.886-7.315-8.07-7.322-11.483-7.2-7.495.268-13.615 6.211-13.615 13.828 0 7.617 6.116 13.827 13.616 13.827h.12l-19.74 31.607c-.933-6.693-6.524-11.852-13.371-11.852-7.5 0-13.616 6.211-13.616 13.828 0 7.617 6.116 13.827 13.616 13.827 1.831 0 3.51-.443 5.105-1.111l-16.29 28.767c-2.205-4.597-6.787-7.902-12.157-7.902-7.5 0-13.616 6.212-13.616 13.828 0 7.617 6.116 13.827 13.616 13.827.365 0 .735-.095 1.094-.123l-14.103 24.94c-2.492-3.013-6.158-5.063-10.334-5.063-7.498 0-13.615 6.212-13.615 13.828 0 6.833 4.884 12.485 11.306 13.581l-15.12 27.254-16.002-51.947-5.35-19.013c1.193.344 2.469.616 3.77.616 7.558 0 13.737-6.274 13.737-13.95s-6.18-13.952-13.737-13.952c-4.001 0-7.586 1.788-10.09 4.57l-6.809-24.2c.439.043.888.123 1.338.123 7.559 0 13.737-6.274 13.737-13.95 0-7.678-6.18-13.952-13.737-13.952-3.09 0-5.974 1.085-8.267 2.84l-6.808-24.569c2.112 1.353 4.615 2.222 7.294 2.222 7.56 0 13.737-6.274 13.737-13.951 0-7.677-6.178-13.951-13.737-13.951-4.985 0-10.5 2.383-12.887 6.438 0 0-2.761-3.46-4.706-4.591z" fill="#fff" stroke="#000" stroke-miterlimit="6" stroke-width="6.285" transform="matrix(.669 0 0 .62898 4.302 4.543)"/><g fill="none" stroke="#000"><path d="m82.338 369.44 434.88.475" stroke-width="3.022" transform="matrix(.669 0 0 .62898 4.302 4.543)"/><path d="m70.51 419.99 457.38-.203M72.15 537.137l454.72-.245m-455.21-39.2 456.68.49" stroke-width="3.144" transform="matrix(.63805 0 0 .60922 13.589 5.35)"/><path d="M83.627 444.42h432.28" stroke-width="3.022" transform="matrix(.669 0 0 .62898 4.302 4.543)"/><path d="m403.91 320.9-206.66-.785 103.98-186.79z" stroke-width="5.473" transform="matrix(.669 0 0 .62898 4.302 4.543)"/></g><g fill="#fff" stroke="#000"><path d="m491.8 306.14-29.108-137.61L431.03 307z" stroke-linecap="round" stroke-miterlimit="8" stroke-width="4.532" transform="matrix(.669 0 0 .62898 4.302 4.543)"/><path d="m477.67 307.87-16.512-71.397-16.511 71.742zm39.91-67.412v68.63h-29.448zm-108.77-.181-.34 68.63h29.619z" stroke-linecap="round" stroke-miterlimit="8" stroke-width="4.532" transform="matrix(.669 0 0 .62898 4.302 4.543)"/><path d="M389.13 303.71h140.1v23.759h-140.1z" stroke-width="6.194" transform="matrix(.669 0 0 .62898 4.302 4.543)"/></g><g fill="none" stroke="#000"><path d="M300.77 220.14c-15.836-.414-16.836 14.648-9.895 24.66.174.252.095.605.11.91-.297-.016-.657.084-.89-.114-10.776-9.158-24.453-6.56-24.125 10.114.284 14.452 14.273 17.13 24.126 10.115.248-.176.591-.098.89-.114-.015.305.099.688-.11.91-10.257 10.734-3.772 24.982 9.894 24.66 14.179-.334 19.783-15.09 9.895-24.66-.22-.213-.096-.605-.11-.91.297.016.636-.056.89.114 12.42 8.338 24.113 4.804 24.124-10.115.017-19.412-15.283-15.547-24.125-10.114-.26.16-.591.098-.89.114.015-.305-.085-.674.11-.91 11.842-14.275 1.213-25.353-9.894-24.66z" stroke-width="5.771" transform="matrix(.669 0 0 .62898 4.302 4.543)"/><path d="M338.72 255.68c0 21.261-17.117 38.757-37.919 38.757s-37.919-17.495-37.919-38.757c0-21.261 17.117-38.756 37.919-38.756s37.919 17.495 37.919 38.756z" stroke-width="3.95" transform="matrix(.669 0 0 .62898 4.302 4.543)"/><path d="M352.36 255.64c0 28.943-23.302 52.761-51.619 52.761s-51.619-23.818-51.619-52.761 23.302-52.761 51.619-52.761 51.619 23.818 51.619 52.761z" stroke-width="5.672" transform="matrix(.669 0 0 .62898 4.302 4.543)"/></g><g fill="#fff" stroke="#000"><path d="M470.55 350.14c-8.99 0-19.9 12.636-19.9 30.094v93.262h38.542v-93.262c0-16.23-9.647-30.094-18.641-30.094z" fill-rule="nonzero" stroke-width="6.542" transform="matrix(.63805 0 0 .60922 13.589 5.35)"/><path d="M451.34 455.62h37.388v17.209H451.34z" stroke-width="5.43" transform="matrix(.63805 0 0 .60922 13.589 5.35)"/></g><path d="M295.34 323.26v22.1h-19.086v11.853h19.086v32.595c-35.665 25.338-58.433 49.275-61.363 71.855v114.08h130.94s.339-112.35 0-114.08c-5.009-25.58-25.125-50.405-57.168-72.048v-32.402h19.572V345.36h-19.572v-22.099z" fill="#fff" fill-rule="nonzero" stroke="#000" stroke-width="7.463" transform="matrix(.669 0 0 .62898 4.302 4.543)"/><g fill="none" stroke="#000"><path d="M309.92 483.69h44.868m-109.07 0h43.824" stroke-width="6.542" transform="matrix(.63805 0 0 .60922 13.589 5.35)"/><path d="M301.13 406.32c-29.02 21.992-50.083 45.669-52.466 65.266v99.002h102.8c-1.085-.552.085-97.635 0-99.002-1.159-18.836-29.01-48.486-50.332-65.265z" stroke-width="6.27" transform="matrix(.669 0 0 .62898 4.302 4.543)"/><path d="M277.29 474.88v17.613m42.829-18.592v18.592" stroke-width="6.542" transform="matrix(.63805 0 0 .60922 13.589 5.35)"/><path d="M311.8 555.07h41.132" stroke-width="6.281" transform="matrix(.63805 0 0 .60922 13.589 5.35)"/><path d="M320.12 546.38v17.225" stroke-width="5.823" transform="matrix(.63805 0 0 .60922 13.589 5.35)"/><path d="M246.54 555.07h41.132" stroke-width="6.281" transform="matrix(.63805 0 0 .60922 13.589 5.35)"/><path d="M279.33 546.38v17.225" stroke-width="5.823" transform="matrix(.63805 0 0 .60922 13.589 5.35)"/><path d="m301.05 406.44.101 168.91" stroke-width="6.288" transform="matrix(.669 0 0 .62898 4.302 4.543)"/><path d="m311.14 510.36-20.458.229" stroke-width="5.659" transform="matrix(.669 0 0 .62898 4.302 4.543)"/></g><g fill="#fff" stroke="#000"><path d="m167.56 304.08-29.108-137.61-31.662 138.47z" stroke-linecap="round" stroke-miterlimit="8" stroke-width="4.532" transform="matrix(.669 0 0 .62898 4.302 4.543)"/><path d="m153.43 305.8-16.511-71.397-16.512 71.742zm37.106-67.412v68.63h-29.448zm-106.9-.181-.34 68.63h29.619z" stroke-linecap="round" stroke-miterlimit="8" stroke-width="4.532" transform="matrix(.669 0 0 .62898 4.302 4.543)"/><path d="M70.123 303.71h140.1v23.759h-140.1z" stroke-width="6.194" transform="matrix(.669 0 0 .62898 4.302 4.543)"/></g><g stroke="#000"><path d="M197.19 327.67v232.79m201.88-232.79v232" fill="none" stroke-width="4.532" transform="matrix(.669 0 0 .62898 4.302 4.543)"/><g fill="#fff"><path d="M201.35 587.25h196.77v21.375H201.35z" stroke-width="4.967" transform="matrix(.63805 0 0 .60922 13.589 5.35)"/><path d="M131.01 351.18c-9.475.035-19.901 11.657-19.901 30.093v93.264h38.541v-93.265c0-19.041-8.7-30.13-18.64-30.093z" fill-rule="nonzero" stroke-width="6.539" transform="matrix(.63805 0 0 .60922 13.589 5.35)"/><path d="M111.77 456.66h37.39v17.21h-37.39z" stroke-width="5.454" transform="matrix(.63805 0 0 .60922 13.589 5.35)"/></g><path d="M94.199 337.71v41.999m78.4-41.999v43.365m-78.4 38.955v37.485m78.4-37.975v37.975m-78.4 40.122v39.254m78.4-40.176v39.935m-39.2-.039v40.222" stroke-width="1.572" transform="matrix(.63805 0 0 .60922 13.589 5.35)" fill="none"/><path d="M68.281 560.68h144.43v33.641H68.281z" fill="#fff" stroke-width="6.285" transform="matrix(.669 0 0 .62898 4.302 4.543)"/><path d="m133.4 497.41.245-22.008m87.955-145.29v50.96m147-50.96v50.96m0 39.2v37.24m-147-37.24v37.24m29.4-76.44v39.2m88.2-39.2v39.2m88.2-82.32v43.12m0 39.2v37.24m0 41.16v38.103m78.4-198.82v43.12m0 39.2v37.24m0 41.16v37.24m-39.2 1.96v39.2" stroke-width="1.572" transform="matrix(.63805 0 0 .60922 13.589 5.35)" fill="none"/><path d="M387.29 560.68h144.43v33.641H387.29z" fill="#fff" stroke-width="6.285" transform="matrix(.669 0 0 .62898 4.302 4.543)"/><path d="M458.89 484.29v-24.679" fill="none" stroke-width="1.511" transform="matrix(.669 0 0 .62898 4.302 4.543)"/></g></g><path d="M6.951 7.698v273.55c0 109.38 88.67 198.05 198.05 198.05s198.05-88.669 198.05-198.05V7.698z" fill="none" stroke="#000" stroke-width="10"/></svg>