<?xml version="1.0" encoding="UTF-8"?>
<svg width="720" height="864.09" version="1.1" viewBox="0 0 540 648.07" xmlns="http://www.w3.org/2000/svg">
 <path d="M0 .142v377.93c0 149.18 120.83 270 270 270s270-120.83 270-270V-.008z"/>
 <path d="M262.048 264.828c-2.358 1.491-4.76 3.672-6.712 5.455-.972 2-.672 4.502-2.216 6.247-.32 1.11-1.136 2.103-1.121 3.23-.16 1.15-.023 2.627 1.294 3.005.03 2.248 1.617 4.029 2.279 6.096 1.152.416 2.304-.38 3.438-.523 2.53-.979 4.385-3.26 6.981-3.17 1.38-.045 2.935.009 4.025.97 1.838-1.994 3.475-5.714 3.585-8.017 2.693-11.035 1.6-7.881-7.692-12.22-1.252-.477-2.554-.805-3.862-1.073zm30.517 2.899c-1.57.784-3.467 1.66-3.99 3.493.474 5.942-1.794 13.202-1.657 18.327-.32 1.355-1.216 3.585.65 4.184 1.31.93 2.62 1.878 3.813 2.955 1.176 1.123 2.4 2.203 3.513 3.387.466 1.002-1.67 2.675.303 2.937 1.5-.164 2.436-1.68 3.987-1.862 1.212-.592 3.591-.549 3.297-2.465-.549-1.516-1.047-3.03-1.374-4.616-1.184-5.91-4.504-12.94-5.157-18.167-.456-1.497-1.122-2.944-1.3-4.513-.68-1.12-.253-3.738-2.085-3.66zm-14.255 3.82a1.242 1.242 0 0 0-.126.008c-.549 1.56-1.019 3.03-1.28 4.668-1.102 2.422-1.496 5.13-2.71 7.475-.418 1.155-1.29 2.949-.474 4.085 1.057 1.3 2.642.83 3.83 2.044 1.86.124 2.886 1.946 4.629 1.423.372-2.362.129-4.9-.066-7.277-.46-2.328-2.031-7.82-1.95-9.433.075-1.043-.566-3.007-1.852-2.992zm20.576.57c-1.305.242-.803 2.034-.333 2.847.642 1.064.583 2.294.607 3.482.6 6.668 4.38 14.97 5.265 20.442 1.743.435 5.861-2.72 5.814-3.282a11.787 11.787 0 0 1 .056-3.335c.345-3.144 1.25-6.185 2.03-9.24-2.347-3.882-7.355-5.539-9.75-8.848-.899-.942-2.26-1.177-3.268-1.967l-.202-.075zm-32.198 19.674c-2.086.756-3.092 2.84-4.573 4.264-1.869.486-3.351 1.435-4.353 3.045-1.17 1.324-2.207 2.782-3.584 3.895-.19 1.908 2.605 2.418 3.696 3.684 1.638.934 2.78 2.506 4.417 3.417 4.545 2.432 9.113 6.331 13.236 7.435 5.385.61 9.623 3.168 14.579 2.244 1.36-1.462-1.205-11.275-1.881-13.692.21-1.096-.554-3.311-2.084-2.092-3.766 2.344-10.242 4.78-13.188 7.405-1.345.765-4.267 2.046-5.041.318.999-1.25 2.832-1.384 4.111-2.293 2.958-2.039 6.37-4.754 9.501-5.681 1.2-.516 2.51-1.157 3.092-2.4-2.544-1.917-5.782-4.001-8.657-4.914-1.831-.943-3.363-1.995-5.164-2.905-1.55-.207-2.613-1.487-4.105-1.73zm57.324 5.835c-1.513.757-4.33 2.818-6.646 3.95-4.827 2.363-9.92 4.077-15.008 5.89-2.315 1.56-5.377 1.454-7.552 2.206-.532 2.61-.922 7.875.352 9.602 14.103-1.711 28.602-6.236 38.534-14.38-3.62-2.714-8.623-5.735-9.68-7.268z" fill="#fff"/>
 <path d="M528.856 10.391 10.547 12.518l2.468 313.578s.35 42.461.548 62.023c-.07 8.316.15 15.26.947 22.828 2.082 9.12 2.84 17.137 4.994 26.139.667 4.903 2.713 12.162 4.294 17.01 3.563 13.02 9.61 25.987 14.396 37.85.883.88 2.334 4.555 2.434 5.158 3.598 9.498 9.443 17.346 16.06 27.429.92 1.442 2.146 2.663 2.787 4.302 3.526-3.53 12.506-9.761 13.219-11.012 16.618-13.256 37.354-30.647 54.319-39.396 16.073-6.682 34.698-15.5 43.1-17.801 2.47-19.329 10.36-40.153 11.924-58.12 3.592-21.513 10.61-42.492 14.562-62.318 1.64-8.604 3.966-16.97 6.23-25.477 2.123-8.63 5.43-17.13 9.185-24.75 2.519-4.71 3.961-12.13 6.888-15.601-3.486-5.926-4.354-12.042-4.876-18.072-8.063 16.119-18.06 28.35-25.632 41.1-6.663 13.345-13.774 23.547-21.157 34.944-1.462 2.48-3.29 4.537-4.732 7.024-11.363 13.55-15.662 21.69-25.937 30.079-1.264.62-2.053.474-3.362-.252-1.116-1.234-2.145-2.944-3.504-3.93-2.14-3.084-2.567-9.9-3.923-16.953-3.255-13.759-.686-30.976-3.539-43.405-1.398-11.212-1.227-23.442-2.553-34.225-.711-2.004.13-3.944-.593-5.921-.063-5.103-1.551-10.313-1.24-15.023-.413-1.58-.065-3.478-.953-4.842-2.884-1.877-4.796-5.37-7.436-6.274-2.214-2.367-7.782-8.438-9.46-8.884-9.035-9.455-20.132-14.07-29.222-23.504-2.645-18.039-4.94-36.498-7.869-52.845-3.08-22.236-8.199-53.15-8.199-53.15s-.072-3.651-1.182-6.688c2.998-1.873 4.38-2.696 6.626-3.365 7.744 6.983 15.522 12.88 21.738 19.995 3.116 3.095 6.191 5.98 9.112 9.153 1.509 1.612 3.395 2.655 4.734 4.463 4.072 3.666 9.02 8.898 12.168 11.478.12-.348.387-.637.6-1.1-1.49-1.996-4.875-5.926-6.175-7.819-2.123-2.03-4.107-4.164-6.19-6.234-.489-1.736-2.584-2.708-3.342-4.261-1.45-2.43-3.106-4.204-5.124-6.176-.247-1.344-1.384-1.501-2.141-2.487-2.193-3.094-5.665-5.328-7.767-8.565-1.302-2.348-9.191-9.351-9.407-10.149 1.338-.09 3.754-1.689 5.15-1.859 1.092 1.523 2.677 2.027 3.596 3.516 1.182 1.344 2.091 2.76 3.128 4.21 3.225 3.538 6.409 7.486 9.823 10.83 1.667 2.44 2.459 4.374 4.035 5.847.477.536 1.176.992 1.483 1.645.98 1.64 4.522 6.088 5.64 6.28.607 1.45 1.958 2.763 2.775 4.179.86 1.508 2.728 2.5 3.112 4.283.966 1.077 2.11 1.815 2.736 3.18.418.835 1.136.86 1.972.762.3-1.514-1.09-3.056-1.743-4.368-.536-1.58-2.063-2.318-2.663-3.845-.563-1.371-1.54-2.264-2.52-3.321-1.933-3.379-3.907-6.048-6.821-8.84-.837-1.952-2.652-2.943-3.441-4.883-.882-1.54-2.376-2.54-3.186-4.17-1.018-.856-1.86-1.803-2.233-3.108-1.462-.261-1.835-2.52-2.918-3.468-.287-1.402-1.338-2.643-2.16-3.772-1.77-.965-1.88-2.762-2.951-4.19-1.012-.777-1.822-1.697-2.782-2.52 1.685-1.24 4.564-1.352 6.594-1.965 1.96 4.291 4.34 7.036 6.606 10.83 2.403 3.361 5.11 7.219 7.05 10.81 1.338 1.193 1.554 3.067 2.931 4.282 1.41 2.599 2.736 5.274 4.283 7.767 2.05 3.947 3.975 7.65 6.985 10.354 1.227 1.893 2.14 3.714 3.432 5.64.503.169.987.202 1.45.105-2.9-5.533-4.237-9.375-6.319-12.866-1.077-1.593-2.017-3.39-2.63-5.21-1.045-.927-1.137-2.156-2.122-3.109-3.486-4.222-5.835-8.524-7.989-13.544-1.123-1.03-1.612-2.226-2.227-3.584-.87-1.581-2.387-3.294-2.441-4.883-.92-1.09-1.751-2.506-1.908-3.936-1.692-1.824-1.441-2.55-2.563-4.485 2.049-.607 4.762-1.16 6.514-.757 1.215 2.144 1.79 4.167 3.153 5.926.025 1.005.372 1.601 1.03 2.319 1.55 2.828 5.38 8.96 5.87 11.045 2.352 4.905 4.413 10.206 6.894 14.675 2.909 3.223 7.52 17.646 9.165 18.624 10.223-7.603 18.249-13.319 26.655-19.563 8.163-5.948 16.967-11.931 25.535-16.686.802 1.622 2.42 4.648 3.361 5.196-3.442 2.61-12.12 8.839-14.812 9.77-6.131 3.2-10.423 6.27-16.208 9.089-3.766 1.665-6.92 3.883-10.19 5.926-2.712 2.359-6.438 4.365-9.106 5.856-.804.17-2.814 1.286-1.58 2.174 5.952-2.98 6.755-2.81 11.33-5.238 2.783-1.365 6.957-2.775 9.195-4.685 1.474-1.45 3.732-1.821 5.586-2.872 9.883-5.348 20.224-10.409 28.683-14.133 1.17 2.587 2.484 4.443 3.649 5.953-4.47 1.628-9.311 3.48-13.48 4.727-8.45 4.846-19.906 7.949-28.46 12.075-2.377 1.398-4.65 2.03-6.229 3.552-1.168.574-2.304 1.011-3.25 1.938-.758.614-2.828 1.143-2.69 2.253 5.876-1.743 9.248-3.474 12.58-4.805 2.475-.508 6.002-1.812 7.533-3.412 1.613-.797 3.799-1.661 5.877-2.54 4.91-2.707 10.568-4.497 15.35-6.157 2.644-.88 5.033-1.336 8.991-2.375 1.828-.581 3.601-.967 5.357-1.796.746 1.46 2.788 3.617 3.409 5.3-2.978 1.69-8.752 2.867-10.607 3.005-2.592.849-6 .96-8.514 2.075-1.657.672-3.375.71-4.903 1.638-1.632.682-4.419 1.467-7.04 2.259-2.091.63-4.142 1.27-4.945 1.846-2.695.753-9.294 2.168-10.913 3.453-5.188 2.09-8.1 3.25-13.077 4.251.197.294.443.523.737.68 4.773-.67 18.716-3.238 20.936-5.126 2.548-.614 6.192-.918 9.145-1.475 8.117-2.518 17.121-3.928 24.46-5.928 3.851-.406 6.833-1.42 11.236-2.794-2.561-3.945-4.054-8.804-4.904-12.767-.365-5.248-1.736-10.297-1.945-15.29-.6-6.241.708-12.539.744-18.277.77-2.454.601-5.046 1.705-7.486 1.324-9.717 8.699-18.156 12.14-25.788 8.693-11.346 19.493-18.677 31.276-25.53 4.058-1.943 9.06-2.8 13.056-4.197 12.597-4.308 27.028-2.427 36.569-.495 9.265 2.26 19.126 6.58 26.014 11.298 3.732 1.788 9.357 8.745 11.828 9.806 4.028 4.075 8.308 8.326 10.582 12.982 6.168 8.792 10.677 20.539 11.41 30.74 2.375 18.192-1.669 38.766-10.047 53.41 2.483 2.334 4.58 4.586 6.933 6.639.056.222.022.37-.011.52-.989 1.153-1.82 2.22-2.8 3.414l3.383 1.997c8.632 5.11 17.753 10.068 25.123 15.63l6.722 2.632c.496-6.45 1.103-11.454 4.166-17.374 1.642-3.376 3.312-6.577 4.914-10.436.923.976 3.341 1.976 4.076 2.987-.992-4.31.052-9.089.709-13.104.697-7.098 3.657-15.342 7.618-20.583.872 1.795 4.604 6.529 4.955 7.006-.366-2.512.031-3.43.316-5.385.747-5.394 4.448-15.63 5.234-20.167 1.245-4.464 3.997-9.99 6.72-13.316.888 2.223 1.128 7.122 2.682 11.172 1.239-7.453 6.63-31.147 13.74-34.804.288 2.92 1.096 5.134.972 5.307 4.955-5.764 9.546-15.518 15.072-18.383.697 2.53 1.6 5.16 2.24 5.557 3.982-5.657 7.836-10.54 13.21-14.642 1.267 2.247 1.627 3.3 2.405 5.299 2.676-1.81 1.054-3.253 10.925-7.74 10.15-4.328 15.908-5.015 23.827-5.713-.606 5.027.03 12.284-2.968 16.919-.45.757-3.577 5.116-5.021 5.944 2.944.238 5.107-2.856 6.23-2.842.365 8.215-9.505 18.04-13.918 21.247 2.642-.498 6.104-1.433 8.583-1.644-1.083 9.477-8.514 14.701-13.588 18.474 3.7-1 5.666-.424 8.509-.3-1.55 7.025-5.262 13.266-8.292 18.666-1.733 6.612-13.63 8.971-16.641 12.108 5.81-2.159 9.738-4.264 13.905-6.223-1.884 5.54-1.824 11.035-4.589 15.124-2.763 4.09-7.06 7.985-9.556 11.095 3.087-.6 4.982-2.261 6.917-3.155-2.104 5.572-5.631 18.22-8.9 22.305-4.862 6.135-12.111 9.789-19.017 14.622 5.782-2.59 15.167-6.998 19.357-10.79-.182 4.85-3.313 15.533-5.71 19.733-4.05 6.977-12.602 13.155-19.952 17.953 3.428.175 8.655-4.026 11.294-5.843 1.619-1.26 3.475-2.814 4.663-4.425.144 10.283-6.77 24.29-13.13 31.515-1.435 2.005-9.165 7.139-12.345 8.579 5.533-.556 10.949-4.806 13.743-6.234-.292 9.858-8.023 19.26-11.34 25.197.812 12.963.1 22.937-.274 30.04-1.665 11.718-.08 24.033-1.755 35.937-2.244 25.208-8.325 43.795-12.827 66.885-3.83 17.504-13.21 32.976-23.342 43.992-4.074-3.42-7.946-11.82-10.18-15.904-2.303-7.919-3.307-12.963-3.163-20.62-2.078-17.575-2.046-36.548-4.464-53.17-.457 0-3.127.263-3.585.315-1.867 16.545-4.792 40.433-2.222 56.155-3 3.746-4.92 3.017-7.837 4.866 1.554 22.384 1.761 40.63-1.537 61.44 38.289 8.674 71.265 33.12 101.38 53.51 11.954 11.82 20.48 18.583 27.243 24.97 4.273-4.535 8.752-14.228 16.853-27.928 6.75-11.574 10.76-24.435 15.647-35.923 9.03-23.32 10.052-46.784 13.408-70.017 1.362-52.984 1.547-104.13.118-151.28-.462-78.613-.156-232.15-.156-232.15zm-326.07 128.055-1.263.386c.366 3.81.31 9.328.718 13.627-.013.94.243 3.484.273 8.514 1.038.282 3.129-1.143 3.82-1.705 3.08-2.903 4.906-6.673 7.644-9.341-4.379-3.49-9.043-7.637-11.192-11.48zM334.591 239.24c-1.807-.134-1.416 2.193-1.55 3.394-.601 8.44-4.094 15.862-6.366 21.825 1.635.945 3.188 2.118 5.01 2.671 2.065 1.248 3.865 1.98 6.642 2.868 3.537 1.02 7.705 2.17 11.361 2.32 1.297-.588 1.946-2.264 2.881-3.37 1.947-3.545 4.509-8.304 4.509-8.304s-1.028-6.462-1.607-9.44c-.33-1.735-.47-3.6-1.01-5.242-2.639-2.154-6.01-3.113-9.184-4.185-2.607-.837-5.29-1.414-7.967-1.954-.888-.263-1.78-.596-2.719-.584z" fill="#fff"/>
 <path d="M261.706 23.936c-16.85 1.886-24.304 7.493-36.083 13.57.011.043.019.088.03.131l-3.306 2.206c-3.674 3.748-7.649 6.892-10.591 11.131-1.362 1.183-1.727 3.03-2.739 4.255.004.008.01.014.015.022l-.61.956c-1.467 1.9-2.06 4.596-3.486 6.315-1.262 2.179-1.958 4.79-2.451 6.633l-.363.907c-.605 1.219-.747 2.185-1.625 3.06-.372 4.244-2.582 8.4-2.115 12.104-1.247 5.92-.061 11.834.411 17.612.353 8.809 8.1 26.484 13.35 32.431 2.499 3.478 6.23 6.527 9.28 9.447 3.75-3.18 7.593-4.345 10.845-6.608.137-1.103.332-4.217.482-5.49-4.185.36-3.82-2.35-4.307-3.003-1.432-2.885-.54-5.356-.62-6.834.992-.444 5.436.528 5.947-.2.035-.802-.155-2.064-.793-2.43-.555-.014-3.835-.693-4.39-.667-.068-3.37-.843-6.505.274-6.762.176-.542.085-1.116-.26-1.717-3.135-.33-5.625-3.308-7.788-4.59.58-3.584 2.409-4.747 3.55-7.441 1.788-3.17 2.828-4.804 3.924-6.45.705-1.684 2.813-3.466 2.623-5.34-1.521-1.507-3.174-3.253-3.024-4.481 1.206-1.388 1.826-3.48 3.743-5.219.848-.953 2.438-1.808 3.273-3.115-4.315-.05-7.886-1.557-10.343-3.093 1.883-4.6 7.663-11.638 12.554-12.449 1.71-6.752 4.808-9.3 10.77-15.353 14.617-9.39 32.54-4.72 44.41-.19 9.756 4.375 15.835 15.22 14.622 24.624 1.136.972 2.128 2.212 3.251 3.257 3.013 5.26 6.608 15.463 5.5 20.422-2.367-.125-4.778-1.49-7.433-2.06-.444.816-.939 4.022-1.291 4.89-1.661 3.692-3.545 12.679-5.196 14.623-1.34 3.484-2.388 7.248-1.048 10.294.509.275 2.725 1.293 3.274 1.45 5.92 3.296 15.511 6.35 20.613 9.247 3.106-2.739 9.632-16.685 11.002-24.662 1.124-12.008-.605-24.677-3.201-35.124-5.243-15.919-14.947-23.933-26.222-34.225-4.34-3.44-8.631-5.194-13.896-7.225-1.508-.562-3.178-1.114-4.61-1.706-.06-.006-.116-.021-.175-.03l-2.759-1-10.185-2.095c-4.323-.77-8.513-.418-12.834-.026z" fill="#fcdb00"/>
 <g stroke-width="1.333">
  <path d="M492.784 26.115c-6.449 5.78-20.198 12.932-23.717 18.4-.777 1.027-1.65 1.986-2.174 3.182-.957 1.815-4.425 7.137-5.982 8.537 5.182-3.836 12.155-6.68 13.466-7.532 5.682-3.627 12.104-4.918 16.748-11.334 1.372-2.443 1.18-8.749 1.66-11.253zm-4.698.413c-1.77.02-7.972 1.257-10.725 2.502-4.595 2.078-10.51 4.365-13.963 7.662.57 1.687 1.135 2.824 1.43 5.07-2.747 2.748-3.314 7.299-5.774 10.497a7.634 7.634 0 0 0-.06 1.338c1.07.19 1.626-1.625 2.377-2.225 1.95-4.539 4.882-6.765 7.009-10.395.65-1.108 19.434-13.487 20.17-14.381-.048-.05-.211-.072-.464-.07zm-28.809 7.932c-3.498.672-6.702 10.122-8.883 12.332-3.721 7.375-4.927 15.468-4.58 23.445.053 1.43-.123 2.893.066 4.31 2.36-3.101 5.375-7.135 6.844-10.027.763-1.236 1.226-2.951 1.245-4.132-.08-3.845 5.054-13.625 6.939-17.795 0 0-.128-4.093-1.63-8.133zm-16.098 9.63c-5.455 5.094-10.78 13.18-10.55 22 .53 9.043 1.996 18.953 1.916 27.38 1.063.126 1.047.585 1.296-.8.876-4.798 3.719-9.157 6.04-13.734-.62-1.855-1.325-5.156-1.132-7.14-.1-5.278.363-10.257 2.262-15.1-.039-.289 2.24-6.994.168-12.606zm49.052 1.357-10.892 4.116c-7.522 4.363-19.263 7.768-24.275 13.449-1.482 2.464-7.29 12.22-7.29 12.852 2.798-.68 7.096-2.807 9.726-4.127 8.668-6.076 21.837-11.07 27.827-18.33 1.959-2.042 4.686-4.251 4.904-7.96zm-65.132 15.055c-.423-.213-4.705 6.57-5.837 10.373-2.14 7.185-.658 14.682-1.492 22.443-.354 7.762-.346 17.284.096 25.491.399.007.803.006 1.201.006 1.624-3.992 4.112-8.663 6.614-13.016 2.268-7.863 1.879-19.042 1.207-26.83-.027-1.397-1.998-17.083-1.789-18.466zm56.284 4.476c-2.662-.065-5.905.422-7.343.982h-.002c-8.392 5.693-20.05 11.787-27.664 14.115-1.98 1.832-4.557 7.221-5.157 9.653-2.427 4.929-5.265 8.93-7.808 14.166.147-.108 1.154-.215 2.072-.405 6.345-6.849 15.594-12.725 22.589-17.052 2.238-1.472 4.383-3.113 6.855-4.175 1.68-.917 6.34-3.473 8.635-5.326 2.295-1.854 9.423-7.969 10.204-11.692-.67-.162-1.494-.244-2.381-.266zm-2.259 16.352c-.019-.013-.076.116-.141.271l.14-.037c.017-.147.017-.223.001-.234zm-.141.271-7.438 1.968c-14.004 4.456-25.564 13.857-36.37 23.402-4.92 4.347-8.553 10.77-12.62 15.125-1.311 3.813-1.417 5.577-3.352 8.825.039.328.24.64.588.94 10.287-7.381 21.157-15.99 31.13-22.299 5.89-5.144 12.494-6.57 17.093-9.101 6.372-4.491 10.214-17.036 10.969-18.86zm-70.063 4.114c-3.028 1.364-4.354 9.76-5.62 17.717-1.489 11.902-2.055 13.622.846 21.921-.983 8.076-.15 15.396 1.978 21.608 3.087-6.65 5.718-14.747 9.067-20.64-1.047-3.66-1.057-9.183-1.881-12.15-1.698-4.46.008-9.863-.457-13.956-.638-4.968-3.966-12.934-3.933-14.5zm58.305 22.25c-.02-.024-.055-.018-.103.023-7.119 4.275-20.592 13.345-27.73 16.125-8.496 7.09-19.31 11.898-25.168 16.44-1.186 4.47-6.177 16.723-7.749 20.724 6.308-3.565 10.851-9.71 17.23-13.109 8.682-6.77 19.55-9.624 27.8-16.578 5.119-4.316 11.785-12.984 13.063-15.263.349-.778 2.965-7.993 2.657-8.362zm-73.967 7.846c-.58-.424-3.002 6.6-3.526 12.753-5.042 12.179 3.138 31.083 3.473 46.519.507.18.656.067.905.078 2.676-5.868 4.369-9.395 6.03-13.958.944-2.734 2.438-5.952 3.523-10.281-1.67-2.11-3.675-10.67-3.527-15.992-.843-3.316-.48-5.83-.42-9.238.019-1.43-6.105-10.279-6.458-9.88zm63.472 18.454c-.027-.028-.065-.022-.115.022-16.612 8.478-29.73 18.253-43.308 26.435-2.119 2.062-7.344 4.53-8.176 5.25-2.403 6.378-5.962 14.37-8.36 19.784 5.175-3.613 6.653-3.883 8.534-5.02 9.753-8.23 24.01-14.188 31.53-21.986 4.953-4.252 13.185-9.26 16.057-12.946 2.233-3.054 4.243-11.121 3.838-11.539zm-75.302 8.546c-2.898 5.153-5.648 15.731-5.868 22.395 1.937 12.94 3.533 17.552 4.686 29.549.417 1.368.858 3.91 1.95 8.333 1.59-5.684 6.218-13.83 8.258-18.93.274-10.257-2.259-18.129-3.525-26.915-1.564-5.708-5.149-12.428-5.501-14.432zm70.488 17.26c-10.375 6.946-28.635 13.415-38.27 20.024-5.915 4.319-12.611 7.071-18.588 10.848-1.519 7.39-4.673 14.078-6.694 20.696a3.296 3.296 0 0 0 1.378-.169c8.456-7.851 18.442-14.138 27.116-19.095 8.672-4.956 10.653-5.518 21.738-13.774 11.086-8.256 13.32-18.53 13.32-18.53zm-79.06 10.362-2.64 6.582c-1.668 6.263-3.348 11.433-3.416 16.38-1.006 8.053-2.247 11.768 1.164 24.998 1.177 2.745 3.157 11.292 4.215 12.109 3.144-7.98 5.842-15.82 7.812-23.795-3.599-12.374-4.758-26.513-7.134-36.274zm66.419 20.479c-7.645 3.712-17.332 6.601-23.69 10.14h-.001c-10.471 6.691-22.1 12.69-31.626 20.424-1.143 5.23-4.457 12.672-5.651 19.29 2.156-2.004 6.71-4.29 8.51-6.162 11.861-11.733 37.747-18.948 45.705-27.327 3.5-4.098 6.806-16.16 6.753-16.365zm-81.372 15.892c-.979 2.759-1.42 4.913-1.38 6.818-1.651 10.331-.99 22.602 3.77 30.54.06 3.228 2.727 11.748 2.679 14.763.444 1.02 3.192-1 4.147-1.15 1.403-10.533 1.34-14.005 3.544-19.465-1.437-10.36-7.552-22.234-12.76-31.506zm68.053 15.216c-6.37 4.196-18.9 6.66-24.675 10.09-7.937 2.648-18.569 12.234-24.451 14.391-1.466 5.55-2.093 12.585-3.566 17.147 24.38-6.567 42.362-16.318 52.692-41.628zM354.66 323.21c-3.74 12.537-5.823 22.121-10.632 58.707 3.577-1.23 8.66-3.64 12.794-5.545-2.983-17.338 1.691-34.186 3.63-51.394-1.607-.33-4.534-1.543-5.792-1.768zm10.732 142.597-.003.002c4.594 12.972 8.413 27.024 11.644 39.767.673 11.515 10.147 28.397 10.515 41.321-14.59 6.867-24.19 4.63-32.99 7.224-4.667 6.568-9.418 24.992-13.513 34.194-8.33 12.078-22.667 7.256-34.848 5.307-10.943-1.809-26.672-12.846-17.83-24.096 6.735-5.492 20.65-1.158 22.3-16.479-15.23-.415-26.338.82-41.553 1.169-6.308.417-16.749 3.712-20.622 4.736 1.545 2.909 3.13 8.556 4.715 13.845-.633 7.692-9.457 19.172-18.864 17.07-12.37-.957-24.156 1.274-35.598 5.357-12.271 3.713-26.827 2.723-36.932-6.2-9.922-8.184.207-27.349 12.709-24.262 9.262 6.306 21.66-.52 29.931-7.463-9.579-6.091-26.679-23.346-28.827-34.438-5.574-3.013-6.504-4.229-12.408-12.56-.336-11.992 4.76-36.1 5.767-39.898-22.676 8.933-45.44 21.094-62.884 34.275-11.4 8.03-20.924 16.75-31.901 25.453-3.072 2.517-5.802 4.442-10.103 7.898 3.562 6.528 19.542 20.706 23.186 26.009 14.986 15.041 32.544 26.988 49.089 38.373 27.262 14.907 54.172 25.44 82.53 32.304 13.123 2.17 26.388 4.45 39.954 4.027 15.555 1.875 32-.017 47.467-1.384 10.995-1.74 22.255-4.152 33.283-6.516 11.835-4.853 25.45-8.267 37.407-13.951 22.625-10.194 42.912-23.124 60.74-37.805 14.33-12.213 28.802-25.358 39.38-41.644-13.293-18.33-32.939-30.61-51.307-43.039-13.735-9.114-28.977-15.408-43.455-23.583-5.367-2.468-11.033-4.608-16.979-5.013z" fill="#094"/>
  <path d="M273.626 47.575a15.52 15.52 0 0 0-1.397.035c-5.367-.115-10.613.143-15.255 2.362-2.885 1.38-5.918 3.618-7.09 6.458 4.723-.008 6.044.921 8.747.68 13.545.466 22.264 1.256 35.695 7.155.786.426 1.952.776 2.378.625-.11-1.728-.978-3.071-1.534-4.824-1.916-5.387-5.451-7.3-10.508-9.885-3.62-.729-7.578-2.52-11.036-2.605zm-28.16 12.678v.002c-.658.792-.918 1.34-1.79 2.004-.647.549-1.418.782-1.806 1.47-1.534 1.242-4.215 3.136-4.264 4.946.067.016.169.022.246.037 1.74-.874 3.966 1.052 5.708 1.25.404-.84 1.367-2.685 1.748-3.49l1.444-2.85c.645-.93.485-1.92-.19-2.577-.413-.486-.792-.8-1.095-.792zm8.906 1.725c-1.504.006-3.105 2.694-2.818 3.89l.075.002c-.567.82-1.656 2.91-2.035 4.184-.55 1.601 1.587 1.351 2.514 1.821.925.178 1.34-.07 1.531-.504l.563-1.822 1-3.788.354-1.967c.17-.152.176-.492-.085-1.228-.338-.416-.715-.59-1.099-.587zm7.053.573a1.127 1.127 0 0 0-.286.06c-.627.42-1.017 1.466-1.228 2.063-1.353 4.396-.88 8.155-.81 11.672-2.807-.647-3.774.008-6.94.085-3.508-1.09-7.948-1.636-8.956-2.023-2.484 1.135-4.113 4.644-4.915 6.9.47 1.025 2.095 2.656 3.217 3.001.066.368-.395 1.754-.717 2.195-.552 2.244-.712 2.54-1.384 3.95-.721 2.39 0 0-2.891 3.499-2.786 3.52-4.643 5.936-7.376 11.8 5.332 1.73 10.142 2.149 16.717 3.044 1.122-.666 2.02-1.581 3.335-2.618.473 2.63 1.98 5.06 2.05 5.783.777 1.58 1.01 2.934 1.816 5.98.4 1.877 1.322 4.343 2.193 6.887.183.744-.14.545-.876 1-1.194-1.258-1.032-2.79-1.703-4.355-1.804-4.482-2.932-6.78-4.133-10.07-3.323.408-6.111 1.29-11.313 1.36-.266 1.603-.893 4.024.882 4.957 2.895 1.424 5.199 1.527 6.763 1.827 1.235.191 2.62.38 3.532.947-.366 1.684-.481 1.95-1.591 2.96-1.356.818-6.028-.277-6.478-.04-1.662 2.586-2.71 3.57-2.65 6.513.87.978 2.306 1.073 4.118 2.161 5.67 1.755 10.507 2.288 15.359 1.392 2.617-.186 6.535-1.403 8.197-2.332 5.015-3.237 6.714-2.948 10.632-6.73.744-1.058 1.725-1.528 2.338 0-1.325 2.259-2.599 4.632-4.435 6.51-1.506 1.539-3.738 2.917-5.26 3.753-1.927 1.243-6.79 3.007-8.864 3.79.613 1.54 2.355 5.148 3.932 8.664 7.19-1.572 11.349-5.452 14.56-7.095 5.763-2.936 10.298-6.673 13.23-11.242.88-.999 2.262-2.264 2.274-3.766-2.187-3.828-2.737-5.948-2.041-10.336l.232-1.197.544-2.29c.82-1.857.805-3.487 1.228-5.394a129.438 129.438 0 0 1 2.62-6.945l1.705-5.253c.446-1.118.779-2.411 1.13-3.476l.042-2.775c-.022-1.672-.774-2.293-1.523-3.083-1.162-.568-1.546-1.702-2.898-2.036-3.39-1.779-7.918-1.341-11.053-1.345-.24-3.2.094-6.602-.614-9.727-.205-.95-1.14-1.142-2.428-2.736-.423 1.065-1.584 1.285-1.755 3.35-.136 1.264.169 4.56.815 7.65-1.677-.32-3.007-.384-4.763-.552-.243-.954-.37-3.431-.749-4.496l-.238-2.56c.03-1.264-.306-2.801-.927-3.848l-.682-1.574c-.42-.66-1.05-2.025-1.714-2.37-.896.888-1.494 1.945-1.402 2.91-.707 1.305-.228 2.133-.185 3.7-.088.283-.08.6.021.921-.065 2.311-.062 4.503.334 6.747-1.27-.557-5.243-1.433-6.555-1.658.448-2.753.388-2.523-.183-5.836.424-2.417.064-4.714.103-7.143-.216-.582-.749-1.175-1.402-1.13zm30.446 7.436a.728.728 0 0 0-.32.09c-.067 3.055.776 3.519.476 7.58a13.55 13.55 0 0 1-.613 1.802c2.1.266 3.405.267 5.644.93-.343-3.26-1.713-7.028-3.327-8.842-.525-.417-1.13-1.588-1.86-1.56zm10.845 2.282a1.758 1.758 0 0 0-.511.1c-1.152 2.228.423 5.389.352 7.162l.38 2.497c1.786.174 4.006 1.517 5.73 1.706-.754-3.125-2.307-5.757-3.31-8.318-.568-1.21-1.402-3.12-2.64-3.147zm-55.108 9.33c2.76.409 5 .26 8.563 1.084 2.063 1.462 5.537 2.51 7.037 3.473.097 1.831.47 2.645.007 3.996-2.884-.52-6.55-2.332-8.883-2.78-1.84-.352-8.9-.95-8.9-.95.231-2.384.905-3.36 2.175-4.823zm38.868 1.28a1.305 1.305 0 0 1 .24 0c1.497.79 2.168 2.339 3.785 4.395.595.369 1.703 4.103 1.646 4.464-.024 3.378-.28 4.933-1.998 8.501-1.927 2.55-7.398 9.946-8.523 12.832-1.77.465-3.303.2-4.095-.75.078-1.063.94-2.023 1.358-2.982 0 0 1.96-.683 2.171-1.913 1.058-1.697 1.886-2.974 3.038-4.295.746-.857 1.335-1.17 2.484-2.333 1.194-1.703 1.84-2.513 2.65-4.5.23-1.318.42-2.326.12-3.64-.985-1.88-1.702-3.776-4.302-3.465-3.39-.006-3.184 2.845-5.215 3.988-.867.072-1.702-.582-2.48-.914-.581-.712-.424-1.704-.974-2.487.98-.659 1.3-1.496 2.116-2.187 3.084-2.215 3.352-3.313 7.979-4.714zm-35.007 8.568a4.251 4.251 0 0 1 .092 8.502 4.251 4.251 0 0 1-.092-8.502zm11.702 3.718 3.279 1.226s.09.386-.012.975c-1.247.071-1.258.588-1.852 1.568-1.033 1.187-1.719 1.888-2.462 3.262-.759 1.406-.813 3.045-1.343 4.602-1.553 4.563-1.313 8.69-.434 12.43-.35.304-.722.244-1.1.337-2.321-.03-2.32-2.826-2.705-4.547-.94-4.193-.348-8.837 1.228-12.835 1.083-2.746 5.402-7.018 5.402-7.018zm-115.854 69.312c-1.232.822-2.382 3.06-3.24 4.705l-7.839 10.963c-2.505 2.987-3.695 3.622-4.51 4.967-.314 1.182.117.967 1.488 1.67 1.09.236 2.678 1.178 3.683.485 2.537-4.369 4.03-7.653 7.116-11.222l1.336-1.73c.437-.523.846-1.09 1.275-1.645l1.533-2.694c.826-.68 1.57-1.871 1.443-2.528-.046-1.082-1.13-2.638-2.285-2.97zm-5.278.305c-1.007.504-1.878.828-2.39 1.812-1.264 1.32-1.729 2.767-3.162 3.738-.924.41-1.618 1.659-2.206 2.13-.723.844-1.413 1.377-1.785 2.206-1.12.857-1.88 1.76-2.724 2.724l-3.386 4.117c-.094.007-.18.013-.29.019a18.6 18.6 0 0 1-.146.51l-.011.012-4.02 4.643-.487 1.692-.018.03.006.008-.006.019.054.037c.268.312.531.63.795.948-1.548-.136-3.315-.04-4.779.464-.366.332-.536.835-.516 1.5l-.585-.069c-.047-1.379-1.66-1.588-2.684-2.006-1.306-1.025-1.567-2.137-2.683-3.896-.144-.418-.568-.654-1.26-.712-.483-2.091-1.254-3.582-1.725-4.074-.867-.688-2.381-3.564-6.68-1.43-.158 1.293 1.953 2.644 1.947 3.963.704 3.134.103 1.578 1.145 3.825-.432 1.755.855 1.946.893 3.533.98 1.537 5.106 5.808 5.326 6.963.125 4.271 1.954 14.766 5.206 16.626 4.2 2.495 5.38 1.653 7.217 4.958 2.151 3.637 4.26 7.342 5.66 10.744 4.148 8.25 8.195 18.353 10.25 26.865.92-3.736 2.114-7.192 2.897-10.872.714-8.952 5.034-22.7-2.062-27.123-.476-.585-2.29-.13-2.978-.077-1.645 0-4.557.518-5.541.869-.803-.047-2.505.456-3.245.612-.854-.323-1.295-.798-1.462-1.324 0 0-.61-.63 1.383-.745 7.533-.597 7.78-4 11.105-7.13.637-1.552 1.642-5.045 3.283-8.511.275-.914.601-1.515 1.189-2.253.685-1.26 1.03-2.27.67-3.256-1.882-1.716-3.34-2.295-4.404-3.624-3.978-2.835-10.283-6.615-11.835-7.128 1.024-.568 1.455-1.058 1.886-2.14.9-.94 2.081-1.783 2.852-2.82.362-.808 1.264-1.257 1.963-1.8.52-.629 1.046-1.273 1.324-1.843l1.123-1.564 1-2.261c.341-.447.704-.956 1.013-1.299.606-.633 1.466-1.092 1.36-1.927l2.974-3.221c.301-1.056-.834-1.904-1.45-2.462zm9.539 4.942c-.445.01-.803.387-.886.8-.547.033-.79.794-1.175 1.049-1.035 1.686-1.887 2.548-3.005 4.24-1.708 1.359-2.577 3.561-4.21 4.92-.577 2.277-1.262 3.65-2.322 6.187-1.88.68-1.136 4.466 1 3.656 1.18.003 2.247-.96 2.868-2.227.026-1.319 2.154-2.675 1.56-3.902 2.064-3.083 2.039-3.945 2.105-4.224.685-.49 1.426-.829 1.773-1.645.652-1.469 2.062-2.194 1.64-3.969.234-.412.664-.704 1.297-.875.202-.574.51-.972.927-1.2.257-.953-.532-1.93-1.572-2.81zm2.97 3.926c-1.414.877-1.772 2.616-2.38 3.243-1.62 1.005-1.973 2.717-3.272 4.257-.541 1.314-.795 1.683-1.377 2.67-.346 1.912-2.23 2.612-2.56 4.59-1.12 1.07-1.64 2.064-2.165 3.36-1.023 2.173 2.632 3.725 3.114 3.637 1.038-1.417 1.75-3.16 2.944-4.406 1.733-1.97 2.83-3.667 3.942-5.608 1.029-2.176 2.79-4.093 3.753-6.265.55-1.158-.327-3.648-1.07-4.82-.388-.413-.688-.641-.928-.658zm207.536 98.883c-1.688.97-4.464 4.97-1.308 5.628 1.92.754 3.113 1.045 5.496 1.575 1.515.206 4.342 1.723 2.055 3.131-2.338.776-3.206.535-6.397-1.17-1.368-.938-2.475-2.138-4.368-2.331-2.173 2.135-3.622 4.52-2.92 6.04.704 1.366 1.76 1.725 3.802 2.411 3.878 1.32 4.804 3.913 9.15 1.886 1.857-1.324 2.585-3.678 2.798-5.85.371-1.903 2.256-3.14 2.675-.527-1.187 1.92-1.437 3.841-2.327 5.527-1.426 3.91-2.8 7.85-3.755 11.902-.65 2.864-1.934 7.835-3.32 10.03-1.657-1.004-.777-2.125-.674-3.41 1.716-2.544-.42-5.41-3.28-5.17-2.71-.281-4.221-2.839-6.662-3.673-2.646-.176-2.127 3.863-1.118 5.34 1.197 1.998 3.507 2.899 4.86 4.78 1.935 2.165 3.864 4.835 6.95 5.286 1.93.291 3.884.325 5.801.722 2.336.39 4.83.15 6.838-1.19 4.122-1.899 8.548-3.589 11.746-6.937 1.345-1.83.999-4.267 1.578-6.382-.045-2.968-.708-6.07-1.049-8.172-2.898-5.307-6.74-12.434-9.257-14.97-2.239-1.392-3.093-1.713-4.603-2.228-3.16-1.552-8.03-2.188-12.711-2.245zm-8.962 17.857c-.363-.001-.668.018-.863.07-.2 1.226-1.645 2.1-1.16 3.19-.58 1.423 1.192 2.91 2.79 2.85.356.26 9.598 2.783 10.543 3.245.855-2.55 1.714-4.178 2.063-5.1.137-.482.105-1.004-.11-1.552-3.37-.738-6.262-1.85-9.997-2.417-.593-.098-2.181-.285-3.267-.287zM321.76 553.36c-.314 2.956-3.571 5.929-5.26 9.178-3.075 3.87-6.083 11.064-7.323 12.558-1.236-1.482-5.368-2.849-7.169-2.855-2.278.078-5.477.148-6.18 2.924-.398 2.406-.315 3.336 1.128 4.674 2.732 1.255 5.93 3.816 11.292 2.92 1.853 1.328 4.98 1.854 6.81 1.997 1.058.6 2.106 1.333 3.302 1.566 3.21.623 6.244.564 9.793-.581 3.63-1.023 4.86-4.203 5.544-6.378l1.028-3.375 2.668-7.062c1.646-2.922 2.75-5.173 4.24-7.905l2.056-5.881c-10.313.057-18.52-1.904-21.929-1.781zm-108.521 8.05c-3.332 3.88-6.428 5.802-10.342 8.076-5.104 1.403-15.23 6.66-18.256 7.224-2.262-.702-3.86-1.216-5.862-2.104-2.375-1.298-3.335-2.153-6.103-2.83-2.595 1.804-3.604 5.359-2.746 7.702 1.081 2.407 2.692 3.71 5.427 3.95 4.252 2.35 9.218 2.923 13.983 2.978 1.467.016 4.326-.817 4.326-.817 1.876-.186 3.859-.704 5.64-1.067 5.067-1.462 10.983-2.023 14.897-3.478 3.916-1.455 9-1.705 13.559-1.804 2.459-.052 5.31.595 7.349.656 1.12.125 2.084-.15 3.05-.552 3.388-1.355 4.878-4.361 5.628-5.988 1.16-4.69-1.221-7.375-4.732-10.014-.941-.787-3.458-.68-4.961-.416-3.3.724-6.078 1.022-9.441.706-3.136-.457-9.088-.934-11.415-2.222zm103.73 11.11c.245 0 .488.025.737.059 1.256 1.753.735 4.058-.585 5.466h-.002c-.718-.005-1.205-.19-1.9-.322-.74.011-1.286-.078-1.909-.33-.404-.156-.66-.42-.915-.686.307-2.28.763-1.88 1.756-3.03.516-.508 1.296-.894 2.065-1.067a3.077 3.077 0 0 1 .753-.09zm8.294 1.273c.054 2.754-1.265 5.002-1.35 6.54-3.048-.455-3.748-1.556-4.855-1.909.62-1.519 1.871-2.557 3.112-3.51.535-.41.561-.7 1.812-.907zm5.004 2.127v.001c2.085.634-.417 4.648-1.499 5.424a5.394 5.394 0 0 1-2.298-.967c.154-1.143 2.496-4.39 3.797-4.458z" fill="#fb9"/>
  <path d="M66.406 108.33a3.6 3.6 0 0 0-.405.033c1.101 6.745 2.56 13.907 2.749 20.224 1.17 3.682 1.97 6.837 2.5 11.43l8.375 52.243s1.67 6.44 1.46 8.973c6.945 4.736 10.727 7.485 16.297 12.165 1.938 2.504 4.009 4.296 6.155 4.973 2.29 2.298 4.673 4.518 6.867 6.901l.724.038c-.013-1.755-.195-3.498-.11-5.267-2.68-4.507-5.942-13.654-6.305-19.29-2.25-2.766-2.892-5.264-5.68-8.334-2.485-5.24-2.91-9.937-5.02-15.454-1.567-1.378-2.025-2.806-1.47-4.856 2.325-4.346 7.757-2.25 11.886-2.023.228-10.058-.99-16.218-.504-24.288-6.843-6.403-10.66-12.709-13.456-13.927-1.54-1.508-5.728-4.848-6.243-6.45-6.628-5.816-11.022-11.237-17.82-17.092zm124.333 29.46a38.23 38.23 0 0 1-3.237.078c-12.402 1.34-17.877 2.869-24.54 4.184-9.172 1.96-11.349 2.495-19.51 3.643-3.038.218-6.138.357-8.97 1.13-.424 4.99-.127 15.168-.336 20.038 1.283-.673 2.486-3.373 4.294-4.094 4.026-2.32 9.2-2.65 12.598-.287 6.142 4.75 11.847 12.192 9.592 18.184-3.76 6.94-9.763 17.03-13.149 21.708-.027 3.593 3.43 13.502 3.915 17.315.848 1.94 1.553 6.706 2.161 7.435 3.57 1.884 8.107 9.702 10.072 10.53 9.084-.879 23.758-1.583 31.035-7.886.214-3.936-.204-8.055.024-12.036.126-4.236-.156-8.434-.181-12.664-.67-22.7-2.862-46.83-3.768-67.277zm-72.146 10.62c-2.963.032-5.47.125-5.47.125.112 5.886.403 8.626.802 13.068-.177 2.213.348 11.64 2.52 13.891 1.442 1.085 1.239 1.96 3.447 3.18.973-.666 1.815-1.815 2.625-2.702 1.397-2.657 3.151-5.059 4.902-7.481-.315-5.768-.084-13.668-.627-19.85-1.82-.236-5.237-.265-8.2-.232z" fill="#f00000"/>
 </g>
 <path d="M289.786 116.734c.353.36.353.36 0 0zm-33.821 3.382c.059.071.059.071 0 0z" fill="#a04961"/>
 <path d="M302.542 128.988c-.11 1.28-.771 1.397-1.494 2.854 4.98 3.015 11.8 9.723 14.405 11.137.02 1.032-1.313 1.75-2.22 1.462-5.151-3.37-11.033-7.33-14.44-11.528-2.848 2.52-8.186 6.157-10.17 8.72-5.64 6.397-16.24 9.223-23.29 11.66.183 3.149-.857 24.839-.572 25.208 9.937-1.794 25.151-7.203 30.827-14.274 3.557-3.82 6.777-6.679 10.641-10.158 1.189-.937 5.07-4.8 5.588-4.863 4.144-2.017 9.003-4.307 12.95-5.307.334-.692.17-2.037-.646-2.344-3.112-1.44-5.33-2.603-7.083-3.949-4.151-1.74-10.45-5.89-14.494-8.617zm-60.013 9.904c-.992 1.332-1.404 2.047-2.528 3.289-.567 0-1.122.037-1.67.122-.478 1.091-.842 2.233-1.273 3.343-.993 1.463-2.382 2.285-3.629 3.466-4.107 1.718-6.604 4.285-6.639 4.79 1.18 7.884 4.442 13.781 9.531 18.516 2.247 1.953 5.208 5.117 6.3 4.793 1.881-6.01 5.092-12.658 7.71-16.348 0 0 1.454-4.991 4.535-10.459-2.334-2.804-2.572-6.768-3.258-10.38-3.213.66-7.035-.86-9.08-1.132zm86.578 13.217c-1.31 1.667-2.587 3.501-2.67 6.509-4.12 10.692-7.269 22.09-8.249 32.824-2.698 12.573-.334 18.27 1.23 29.559 11.468 5.213 23.135 14.663 33.657 15.404.486-12.335-.859-25.01 4.153-35.42 1.503.303 3.778 2.107 4.288 3.327.831-1.935 1.169-2.405 1.139-4.045l4.179-22.735c-4.341-5.84-11.08-10.681-16.443-14.71-7.02-4.565-14.843-6.655-21.283-10.713zm-11.698 2.52c-2.603 3.06-6.548 6.443-10.002 9.177-7.427 8.564-14.693 14.629-24.35 19.15-9.56 4.231-20.763 4.44-27.393 4.52 2.631-10.647 1.304-22.565 3.198-32.551-4.447 6.615-7.69 14.574-9.809 21.594-1.255 4.7-1.513 3.756-4.159 9.388-7.521-2.707-20.073-10.567-21.876-14.125-1.803 6.912-3.384 17.864-4.105 24.903-1.337 8.659-1.373 15.19-1.16 23.782.3 4.749.235 9.77.515 14.604.097 6.42.916 11.215 1.729 17.265 1.62 5.2 2.229 11.405 6.842 15.328 1.85.605 3.62.879 5.574 1.324-.002-4.464.14-8.246 1.34-12.97.54-4.275.59-10.35 2.684-14.11 1.95-3.493 1.56 3.907 1.806 5.277.357 2.383.222 21.129.885 21.2 5.572.214 7.78-5.442 12.157-8.026 2.3-3.08 2.903-5.434 7.814-7.727 8.406 2.932 16.141 5.91 24.054 10.356 1.56-2.497-.003-.816 4.782-5.789 6.834 4.802 13.615 6.686 18.14 6.458-3.935-7.917-5.21-19.102-5.152-27.55-1.25-14.298 1.448-23.93 3.708-36.687.58-10.697 2.902-18.354 5.747-24.828 2.89-5.012 4.505-11.007 6.798-16.923.388-1.202 3.198-2.441.234-3.038zm-95.69 2.73c-3.453 2.682-6.66 5.904-10.077 8.947-2.532 3.753-8.166 6.423-7.296 11.583-.018 19.545.082 39.377.08 59.228-12.866 5.845-27.228 6.784-39.717 7.12 8.1 2.981 14.926 9.222 17.016 17.745 2.722 6.676 4.885 10.913.415 29.248 11.895-12.854 19.4-30.24 26.837-46.715 1.23-1.937 1.62-2.95 2.884-5.585-.303-8.295.142-18.394.77-25.123.328-9.73.588-18.8 3.247-28.74 1.75-9.062 4.488-18.128 6.337-26.489l.47-.61-.964-.608zm90.54 50.12c-1.269-.207-.83 1.478-1.136 2.177-.27 4.278-1.442 6.763-1.732 11.242.083 2.316-.55 4.608-.093 6.923-.381 9.945 1.662 23.041 4.734 33.505-.123 1.377 1.161 4.312 2.871 3.032-.642-1.485 1.83-8.246 2.445-10.845 1.023-1.79.93-3.851 1.854-5.667 2.33-3.688 4.085-7.853 3.17-11.549-2.396-.662-4.964-4.56-6.476-6.196-1.1-1.87-1.076-4.16-2.15-6.053-.794-3.706-3.504-10.1-3.487-16.569zm-159.9 33.328a4.186 4.186 0 0 0-.866.062c-.516 1.52-.697 3.33-.665 4.942-.56 2.752-.441 5.307-.744 7.834-.933 8.086-1.76 16.841-2.402 22.535-.387 4.293-.39 8.192-.045 11.096-.047 6.884 3.61 11.97 7.879 13.63 3.405 2.118 7.005 2.927 10.476 4.061-5.462 2.615-17.861-.723-18.669-4.98-.836.562-1.483 6.761-1.326 7.2l.02-.005-1.26 10.41a1.387 1.387 0 0 0-.025.23c-.57 2.414-.23 5.761-1.274 7.65.065 3.13-.354 5.798-.744 9.016-.704 7.345-2.743 15.699-3.496 23.326l2.827-2.673 32.414-52.449c2.098-5.492 4.324-7.917 3.532-14.448-.294-2.094.43-3.832.659-5.875.249-7.451-3.163-17.685-7.144-23.41-5.088-7.172-15.171-10.756-19.146-18.15zm-26.436 5.845c-.92.02-.54.993-.312 1.815 1.738 4.873.328 9.27 1.776 13.363.804 3.61.496 6.915 1.63 10.093.04 2.796.02 6.324 1.216 8.486-.642 1.59.258 8.882.587 9.804.334 6.961.764 11.494.823 17.612.048.1.075.203.112.305-.324 1.934.803 4.47-.068 6.23.442 2.268.347 3.751.409 5.99l1.135 14.493 1.28 13.085 1.313 8.968 1.295 1.232.09-.964c.049-.097.032-.296.037-.405l.415-4.49.042-1.636c.21-.383.085-.954.037-1.322l.287-10.897c-.13-2.606.2-5.525.3-7.845-.327-5.502.843-11.357-.185-16.014.432-2.115.224-5.05.055-7.859.317-.188.436-.82-.078-2.155-.07-1.91-.064-3.69.345-4.856-1.023-3.866-.111-8.29-.39-12.748.247-1.404-.236-1.433-.23-3.597-.038-1.607.183-3.042-.653-5.849-1.602-2.755-2.727-5.927-3.087-6.306-1.717-6.862-4.437-18.205-8.181-24.532zm292.374 2.536c-8.54 10.114-21.539 13.889-30.762 19.798 4.979 9.752 7.483 21.954 9.635 32.725 1.068-2.115 11.63-14.774 16.392-18.349 2.475-7.428 5.523-17.75 4.734-34.174zM320.584 271.6c-4.893 3.85-2.403 8.298 1.188 17.757 10.143 4.552 14.329 4.64 20.508 8.71 2.446-4.6 2.607-7.529 2.442-13.451-5.694-2.506-17.01-4.99-20.69-10.516-1.384-2.233-2.044-2.215-3.448-2.5zm-88.642 7.01c-.251.006-.49.044-.717.118 1.786 5.19 7.687 14.31 14.256 14.64.754-.758 2.495-2.144 2.327-5.14-5.581-2.557-12.082-9.716-15.865-9.619zm184.023 6.651c-1.21.007-14.283 16.399-18.017 21.816-.503 11.096.374 14.53-3.207 27.832-.263 5.135-.94 10.63-.532 16.013-.233 6.493-.143 14.81-1.353 22.046-2.187 9.725-2.033 31.382-1.615 28.365 4.55-5.563 7.572-20.152 8.291-25.262 4.268-22.534 10.33-37.243 13.408-57.931 1.483-9.73 5.108-26.69 3.025-32.879zm-191.143 2.36c-2.968 5.039-3.761 14.034-3.656 19.58-.245 9.8-.574 18.613.92 27.158 1.32 7.488 2.066 14.416 3.832 21.639 5.243 28.628 20.243 51.014 35.313 74.209 3.622 5.441 6.08 8.98 9.18 12.986 5.655 6.12 7.83 11.495 12.052 18.04 11.436 17.934 23.013 33.482 35.874 54.475 5.118-6.555 5.539-14.164 8.057-17.872 2.115-6.657 5.011-13.403 7.143-20.285 3.406-11.353 6.124-23.067 9.4-32.194 1.083-6.198 3.34-12.47 4.03-19.95 2.114-11.913 2.514-23.805-2.71-33.13-1.455 1.208-4.736.965-7.61 1.488 6.14-39.082 7.12-47.506 14.363-72.598 0 0-2.01-2.523-3.702-3.852-4.058 6.187-10.456 15.277-13.654 20.18-5.432 6.097-11.209 12.847-18.25 17.529-14.728 11.526-25.84 17.023-40.474 8.617-6.258-2.877-9.971-9.238-15.903-15.348-6.224-5.783-9.336-12.856-14.792-19.258-8.329-13.174-15.574-28.083-18.592-40.143l-.262-1.251zm-7.011 5.522c-5.268 8.997-6.375 19.736-8.854 29.75-2.09 9.93-2.95 20.062-2.986 30.13-1.56 8.687-1.684 17.193-2.253 25.497-.196 12.16-.037 24.43-.713 36.384-1.74 36.386 3.348 72.562 11.071 107.68 2.004 5.967 2.074 9.893 4.188 17.532-6.847.818-25.25-8.493-30.422-12.477 4.843 8.209 16.732 16.728 25.108 21.289 10.587 5.26 20.43 2.513 28.236 1.865.285-8.364.712-10.47.727-14.69 1.652-33.018 3.955-40.55 6.994-61.697 1.71-7.235 4.072-12.588 6.104-20.253.806-3.713 3.225-7.913 1.503-.097-2.924 17.94-3.31 37.449-4.225 54.107-.067 14.426-.67 21.63-1.94 39.62 13.003-3.62 28.73-2.995 41.423-3.503a263.121 263.121 0 0 1 34.966.624c13.88-.864 31.89.001 47.865-3.013-3.446-11.032-4.997-20.681-8.6-29.93-4.907-18.124-11.406-40.072-15.352-54.742-6.064 17.113-10.95 34.708-18.225 50.542-3.454 6.705-9.982 19.368-15.51 19.362-7.397-11.5-15.425-22.744-22.331-34.301-5.547-6.176-10.172-13.98-15.395-20.531-5.235-7.175-9.85-14.454-14.88-21.771-4.896-8.254-10.588-15.923-15.331-24.076-5.948-12.28-17.3-23.962-20.817-34.621-1.148 20.461-.983 39.906-2.732 54.255-.46 3.71-.726 13.967-2.788 19-1.43-11.953-1.686-19.963-1.013-28.286.978-8.825 1.919-12.827 1.059-23.58 0-12.826-.36-19.262.429-28.484.67-10.67-4.61-20.028-5.475-30.697-2.611-15.267-3.156-30.76-2.223-46.205.218-4.983 1.485-9.798 2.392-14.683zm15.893 2.464c.48 12.623 9.152 21.58 16.76 31.559 5.197 7.332 9.1 11.938 15.516 19.286 6.342 5.926 12.399 13.495 21.433 14.75 15.133-2.28 28.998-11.096 38.547-22.873 5.631-4.395 17.524-19.7 19.86-21.986-1.193-.909-3.022-2.176-3.481-3.118-6.44 5.626-15.6 8.413-23.922 10.665-10.643 1.555-20.278 6.117-30.718 5.672-8.18-1.459-16.191-3.407-23.96-6.955-8.03-4.708-13.854-10.458-20.32-17.603-3.399-2.631-8.121-7.852-9.715-9.397zm154.968 22.875c-3.881 1.21-8.058 2.334-11.7 1.748-1.248 7.543 2.664 18.21 3.6 24.102 2.034 13.042-.593 28.44 2.388 40.489-.46 6.087.888 9.48 4.29 16.072.252-4.763.052-8.973.292-13.816.24-7.178.185-9.897.344-17.643-.444-4.831.049-9.586.342-14.43.828-6.173-1.052-10.285.028-15.556-.958-7.692.67-15.712.416-20.966zm-146.33 15.098c1.613 6.987 7.205 13.374 11.752 19.292 4.49 7.478 6.363 10.87 9.556 15.368 4.575 6.828 12.485 13.042 20.226 10.066 3.279-1.5 6.339-2.635 12.013-4.84-5.321 4.313-11.377 11.03-19.987 8.936-7.25-1.68-12.018-8.585-17.31-13.951-4.48-6.402-8.322-11.371-11.337-16.8-4.77-6.754-4.554-6.565-7.49-14.979.213-.588 1.01-1.582 2.578-3.092zm-42.223 23.316c-2.946 5.044-4.061 19.285-5.855 24.564-2.138 7.514-2.928 15.272-4.578 22.867-2.853 23.451-7.522 44.664-10.856 70.474-.396 6.965-3.19 13.478-3.662 20.404-1.392 5.897-2.055 11.716 3.45 15.09 8.076 6.676 16.472 12.553 27.35 16.54-2.476-7.165-5.073-18.726-6.765-29.36-2.516-14.501-3.833-34.29-3.206-52.513.007-6.355.332-12.724.042-19.114 1.173-20.946 1.99-45.836 4.08-68.952z" fill="#880080"/>
</svg>
