<svg width="410" height="487" xmlns="http://www.w3.org/2000/svg"><g clip-rule="evenodd" fill-rule="evenodd" image-rendering="optimizeQuality" shape-rendering="geometricPrecision" stroke-width="1.268"><path d="M6.951 7.698v282.508c0 102.392 88.666 185.393 198.05 185.393s198.051-83.001 198.051-185.393V7.698z" fill="#f00000"/><g stroke-miterlimit="22.926" transform="matrix(.81667 0 0 .76162 .83 1.994)"><circle cx="250" cy="427.81" r="48.825" fill="#fefefe" stroke="#1e1a16" stroke-width="6.325"/><g fill="#fff" stroke="#000" stroke-width="7.825"><path d="m376.32 377.21 97.625.024v1.592c0 22.125-3.137 43.505-9.127 63.69l-39.544-33.805c-3.411 26.627-15.739 51.79-35.786 75.645l52.624 9.304c-21.074 35.107-51.452 64.11-87.747 83.325l-3.75-52.454c-20.88 13.12-52.656 24.17-78.233 27.452l30.524 44.596c-16.968 4.115-34.678 6.362-52.907 6.362-21.704 0-42.56-3.201-62.388-8.98l31.34-43.288a173.454 173.454 0 0 1-72.857-31.517l-8.811 53.23c-33.28-19.506-61.039-47.33-80.528-80.674l53.578-8.027C94.06 462.078 82.8 436.623 77.974 408.89l-42.931 32.673c-5.796-19.902-8.99-40.983-8.99-62.736v-1.592l99.355-.025c7.219 110.154 101.1 125.561 124.81 126.75 22.092-.219 121.794-21.446 126.102-126.75zM213.704 29.764h71.297V56.69h70.779V29.764h69.243v84.626h-34.621l23.078 250.031H86.519l19.23-250.03h284.653H74.975V29.763h70.011V56.69h68.718z" stroke-width="6.32533875"/><path d="M161.663 137.477h32.253v65.662h-32.253zM301.928 137.469h32.253v65.662h-32.253zM286.545 364.421v-88.474c0-34.621-76.939-34.621-76.939 0v88.474z" stroke-width="6.32533875"/></g></g></g><path d="M6.951 7.698v273.55c0 109.38 88.67 198.05 198.05 198.05s198.05-88.669 198.05-198.05V7.698z" fill="none" stroke="#000" stroke-width="10"/></svg>